<?xml version="1.0" standalone="no"?>
<!DOCTYPE svg PUBLIC "-//W3C//DTD SVG 1.1//EN" "http://www.w3.org/Graphics/SVG/1.1/DTD/svg11.dtd" >
<svg xmlns="http://www.w3.org/2000/svg" xmlns:xlink="http://www.w3.org/1999/xlink" version="1.1">
<metadata>
Created by FontForge 20201107 at Mon Jan 20 15:24:16 2025
 By 
Pavel Larin
</metadata>
<defs>
<font id="Paseo-BoldItalic" horiz-adv-x="0" >
  <font-face 
    font-family="Paseo Bold"
    font-weight="700"
    font-style="italic"
    font-stretch="normal"
    units-per-em="2048"
    panose-1="0 0 0 0 0 0 0 0 0 0"
    ascent="1638"
    descent="-410"
    x-height="1024"
    cap-height="1434"
    bbox="-406 -1638 2535 2458"
    underline-thickness="102"
    underline-position="-255"
    unicode-range="U+000D-E022"
  />
<missing-glyph horiz-adv-x="2048" 
d="M2068 2458l-649 -4096h-1298l649 4096h1298zM1311 -336h-680l-74 -463h680zM1155 -471l-31 -193h-409l30 193h410zM1423 373h-409l-37 -230h139l14 95h136l-31 -193h-410l54 328h-136l-73 -463h680zM1501 872h-135l-41 -270h-545l-22 -139h680zM1540 1118h-680l-20 -135
h270l-25 -152h-270l-20 -135h409l45 287h271zM1194 1516l-23 -148h-135l23 148h135zM1356 1655h-410l-67 -426h680l22 139h-270zM1710 2183h-676l-22 -135h266l-23 -152h-270l-22 -135h679l23 135h-270l22 152h271zM1223 -893h-680l-23 -135h287l-315 -193l-23 -135h680
l22 135h-417l315 193h131z" />
    <glyph glyph-name=".notdef" horiz-adv-x="2048" 
d="M2068 2458l-649 -4096h-1298l649 4096h1298zM1311 -336h-680l-74 -463h680zM1155 -471l-31 -193h-409l30 193h410zM1423 373h-409l-37 -230h139l14 95h136l-31 -193h-410l54 328h-136l-73 -463h680zM1501 872h-135l-41 -270h-545l-22 -139h680zM1540 1118h-680l-20 -135
h270l-25 -152h-270l-20 -135h409l45 287h271zM1194 1516l-23 -148h-135l23 148h135zM1356 1655h-410l-67 -426h680l22 139h-270zM1710 2183h-676l-22 -135h266l-23 -152h-270l-22 -135h679l23 135h-270l22 152h271zM1223 -893h-680l-23 -135h287l-315 -193l-23 -135h680
l22 135h-417l315 193h131z" />
    <glyph glyph-name=".null" 
 />
    <glyph glyph-name="nonmarkingreturn" horiz-adv-x="682" 
 />
    <glyph glyph-name="NULL" 
 />
    <glyph glyph-name="NULL" 
 />
    <glyph glyph-name="CR" unicode="&#xd;" horiz-adv-x="512" 
 />
    <glyph glyph-name="space" unicode=" " horiz-adv-x="657" 
 />
    <glyph glyph-name="exclam" unicode="!" horiz-adv-x="520" 
d="M289 336l45 1118h352l-305 -1118h-92zM281 -18q-55 0 -86.5 36.5t-22.5 92.5q8 53 50.5 90t96.5 37t85.5 -37t23.5 -90q-9 -57 -51 -93t-96 -36z" />
    <glyph glyph-name="quotedbl" unicode="&#x22;" horiz-adv-x="677" 
d="M549 1042l76 394h219l-226 -394h-69zM268 1042l76 394h221l-227 -394h-70z" />
    <glyph glyph-name="numbersign" unicode="#" horiz-adv-x="1429" 
d="M295 0l190 387h-321l37 78h321l148 301h-340l41 76h338l190 387h80l-191 -387l316 -2l190 389h82l-190 -389h315l-39 -74h-315l-150 -303h336l-37 -78h-333l-191 -385h-82l191 385l-316 2l-190 -387h-80zM918 463l147 303h-315l-146 -301z" />
    <glyph glyph-name="dollar" unicode="$" horiz-adv-x="1349" 
d="M557 -12q-177 22 -288.5 106t-114.5 225h63q1 -70 51.5 -125.5t128 -88t172.5 -44.5l84 531q-68 33 -117.5 61.5t-102.5 71.5t-83.5 87.5t-46 106t-4.5 130.5q25 156 162.5 259t326.5 136l25 160h64l-25 -152q25 2 72 2q50 0 75 -4l25 154h63l-24 -162
q145 -28 237.5 -111.5t96.5 -216.5h-62q-6 103 -86.5 170.5t-197.5 89.5l-82 -516q64 -30 105 -51.5t95 -55t86 -66.5t60.5 -76t37 -95.5t-0.5 -112.5q-18 -109 -95.5 -196t-185 -138t-237.5 -73l-33 -197h-64l31 189q-50 -6 -86 -6q-47 0 -61 2l-31 -185h-64zM696 55
q41 3 84 13l68 428q-23 12 -68 33t-67 34l-82 -506q18 -2 65 -2zM846 84q167 52 190 182q8 59 -25.5 106.5t-103.5 90.5zM774 1354q-142 -51 -162 -172q-16 -111 105 -191zM989 1382q-27 3 -71 0q-58 -4 -78 -8l-66 -422q40 -22 135 -67z" />
    <glyph glyph-name="percent" unicode="%" horiz-adv-x="1466" 
d="M209 0l1241 1434h76l-1241 -1434h-76zM1071 -18q-146 0 -227 89t-60 220q22 131 129.5 219t253.5 88q144 0 224.5 -88.5t58.5 -218.5q-20 -130 -128 -219.5t-251 -89.5zM1077 18q48 0 97.5 80t66.5 193q20 114 -3.5 193t-72.5 79q-48 0 -97 -78.5t-69 -193.5
q-17 -114 6.5 -193.5t71.5 -79.5zM569 838q-145 0 -225.5 89.5t-58.5 219.5q20 130 128 218.5t253 88.5t224.5 -88.5t59.5 -218.5q-22 -131 -129.5 -220t-251.5 -89zM578 874q50 0 97 79t66 194q19 116 -4 194t-73 78q-48 0 -97 -78.5t-67 -193.5q-18 -113 6 -193t72 -80z
" />
    <glyph glyph-name="ampersand" unicode="&#x26;" horiz-adv-x="1497" 
d="M551 -20q-197 2 -309.5 89.5t-87.5 249.5q9 62 40 117.5t69.5 95t100.5 81.5t110.5 68t121.5 62q-183 223 -150 418q19 117 97 202t182.5 124t220.5 39q75 0 139 -18.5t112 -54.5t70.5 -95.5t10.5 -134.5q-10 -63 -42.5 -118t-85.5 -102t-107 -83t-130 -78
q242 -254 387 -488q42 64 57.5 148t3.5 161t-58 136t-119 73l8 48h72q138 0 188.5 -14.5t61.5 -61.5t-11 -135q-15 -101 -63.5 -209t-112.5 -189q101 -180 109 -311h-394q5 42 -12 102q-216 -122 -479 -122zM690 53q93 1 178.5 28t145.5 69q-33 86 -107.5 198t-129.5 180
t-134 162l-18 21q-99 -62 -161.5 -145t-74.5 -171q-12 -94 13 -170t98.5 -125t189.5 -47zM891 868q114 70 179.5 151t84.5 198q20 122 -33.5 189t-140.5 67q-86 0 -159.5 -64t-92.5 -178q-12 -82 28 -169.5t134 -193.5z" />
    <glyph glyph-name="quotesingle" unicode="'" horiz-adv-x="399" 
d="M268 1042l76 394h221l-227 -394h-70z" />
    <glyph glyph-name="parenleft" unicode="(" horiz-adv-x="733" 
d="M569 -256q-218 225 -311 436t-61 418q65 405 643 852h61q-283 -398 -356 -852q-70 -453 86 -854h-62z" />
    <glyph glyph-name="parenright" unicode=")" horiz-adv-x="733" 
d="M61 -256q288 405 357 854q72 446 -86 852h61q438 -450 373 -852q-32 -206 -192.5 -417t-450.5 -437h-62z" />
    <glyph glyph-name="asterisk" unicode="*" horiz-adv-x="921" 
d="M631 950q-32 0 -48.5 25.5t-7.5 58.5l93 309l-269 -213q-29 -25 -60 -23t-44 30q-12 27 2 56t47 44l283 127l-244 127q-28 15 -33.5 45.5t17.5 58.5q23 25 53 26t53 -24l201 -213l6 308q0 34 25 60t57 26t49 -26t8 -60l-92 -308l268 213q30 26 61.5 26t43.5 -28
q12 -31 -1.5 -60t-47.5 -44l-285 -127l246 -127q28 -15 33 -43.5t-17 -56.5q-23 -29 -54 -30.5t-54 23.5l-199 213l-6 -309q0 -32 -26 -58t-58 -26z" />
    <glyph glyph-name="plus" unicode="+" horiz-adv-x="1069" 
d="M547 244l67 426h-405l14 94h406l61 385h94l-61 -385h405l-14 -94h-405l-68 -426h-94z" />
    <glyph glyph-name="comma" unicode="," horiz-adv-x="421" 
d="M145 -252q65 76 78 158q4 26 -7 44t-29 29t-36 24.5t-28 39t-4 63.5q9 57 53 93.5t94 36.5q60 0 89 -41.5t20 -106.5q-14 -88 -78.5 -194t-124.5 -158z" />
    <glyph glyph-name="hyphen" unicode="-" horiz-adv-x="837" 
d="M190 561l11 64h673l-10 -64h-674z" />
    <glyph glyph-name="period" unicode="." horiz-adv-x="421" 
d="M229 -18q-53 0 -85 37t-23 92q7 52 50.5 89.5t96.5 37.5t85.5 -37.5t25.5 -89.5q-9 -55 -53 -92t-97 -37z" />
    <glyph glyph-name="slash" unicode="/" horiz-adv-x="993" 
d="M63 -240l1006 1694h92l-1005 -1694h-93z" />
    <glyph glyph-name="zero" unicode="0" horiz-adv-x="1482" 
d="M762 -20q-198 0 -336.5 94.5t-196 262.5t-22.5 382q34 214 144 381t278 260.5t366 93.5t337 -93t197.5 -260.5t24.5 -381.5q-35 -215 -146 -383t-279.5 -262t-366.5 -94zM774 47q101 0 189.5 85.5t152 237.5t94.5 349q28 201 14 350t-76 234.5t-163 85.5
q-154 0 -270 -183t-162 -487q-29 -201 -17 -350.5t73.5 -235.5t164.5 -86z" />
    <glyph glyph-name="one" unicode="1" horiz-adv-x="782" 
d="M285 0l192 1212l-190 -145l12 86l377 301h178l-229 -1454h-340z" />
    <glyph glyph-name="two" unicode="2" horiz-adv-x="1128" 
d="M106 16q371 255 566 497t235 495q26 168 -51.5 260t-206.5 92q-122 0 -224 -84.5t-126 -231.5h-39q15 99 67.5 179.5t128 130t164 76t181.5 26.5q95 0 178.5 -28t147 -81t93 -138t13.5 -189q-10 -65 -44.5 -132.5t-80 -126.5t-116.5 -125.5t-133.5 -117.5t-152.5 -114
t-153 -104t-154 -99h340h125t84 5t55.5 8t34 17.5t25.5 24t24 37.5h43q-18 -30 -47 -82q-37 -64 -51.5 -89.5t-45.5 -57.5t-44.5 -39t-63 -16t-85 -9h-125.5h-13h-551z" />
    <glyph glyph-name="three" unicode="3" horiz-adv-x="1191" 
d="M578 -20q-188 0 -299.5 82.5t-128.5 232.5h36q22 -125 113.5 -186.5t206.5 -61.5q85 0 160.5 33t128 87.5t87 123.5t46.5 143q15 94 -7.5 174t-86 131.5t-158.5 51.5h-43l411 426h-325h-124.5t-84 -5.5t-55.5 -8t-34.5 -17.5t-25.5 -24.5t-24 -37.5h-41q9 18 26 51
q73 148 103 187q41 51 106 64q44 9 191 8h51h524l-590 -600q86 4 157.5 -6t122 -30.5t90.5 -50t62 -65.5t36.5 -77t14.5 -83.5t-5 -85.5q-22 -139 -114.5 -244t-229.5 -158.5t-297 -53.5z" />
    <glyph glyph-name="four" unicode="4" horiz-adv-x="1183" 
d="M680 2l65 408h-587l907 1044h190l-131 -836h170l-92 -208h-110l-66 -408h-346zM426 618h352l80 506z" />
    <glyph glyph-name="five" unicode="5" horiz-adv-x="1222" 
d="M592 -20q-188 0 -299.5 82.5t-126.5 232.5h35q16 -86 67 -143.5t115.5 -81t140.5 -23.5q170 0 281 117t139 295q32 197 -45.5 308.5t-234.5 111.5q-89 0 -182.5 -40.5t-205.5 -125.5l201 721h543h125t84 5.5t55.5 8t34 17.5t25.5 24.5t24 38.5h43q-10 -20 -28 -57
q-73 -145 -103 -183q-41 -51 -107 -63q-45 -8 -193 -8h-48h-457l-106 -381q192 129 415 129q145 1 260 -54.5t175.5 -164.5t37.5 -250q-25 -160 -125 -279.5t-240.5 -178t-299.5 -58.5z" />
    <glyph glyph-name="six" unicode="6" horiz-adv-x="1224" 
d="M639 -20q-155 0 -268.5 84.5t-161.5 235.5t-16 337q43 239 180.5 424t333.5 286t421 109l-4 -26q-429 -44 -589 -670q71 108 167.5 162.5t196.5 54.5q82 0 154.5 -35.5t124.5 -97.5t74 -157.5t3 -205.5q-37 -215 -212 -358t-404 -143zM655 33q112 0 189 117t112 319
q35 199 -12.5 309.5t-144.5 110.5q-72 0 -149.5 -62t-141.5 -178l-8 -47q-26 -164 -19.5 -290.5t52 -202.5t122.5 -76z" />
    <glyph glyph-name="seven" unicode="7" horiz-adv-x="1062" 
d="M291 0l743 1217h-424h-124.5t-84 -5.5t-55.5 -8t-34.5 -17.5t-25.5 -24.5t-24 -37.5h-43q10 20 28 55q73 146 103 184q41 51 107 63q45 9 190 8h51h547l-876 -1434h-78z" />
    <glyph glyph-name="eight" unicode="8" horiz-adv-x="1202" 
d="M604 -16q-102 0 -191 21.5t-154 61.5t-97.5 102t-20.5 138q39 237 369 430q-97 91 -144 180.5t-30 196.5q18 109 99 188.5t188.5 115.5t224.5 36q111 0 200 -33.5t139 -102.5t36 -159q-15 -93 -96 -186t-207 -168q80 -64 121 -100.5t94 -98.5t71 -126.5t6 -137.5
q-11 -70 -51.5 -129t-100.5 -100.5t-135.5 -71t-156.5 -43.5t-164 -14zM545 55q131 0 235.5 60t122.5 168q6 35 -7 71.5t-35 66.5t-61.5 68t-73.5 66t-86 70t-85 71q-118 -56 -220 -160.5t-116 -201.5q-14 -86 28.5 -150.5t121 -96.5t176.5 -32zM874 840q251 147 275 305
q16 107 -52.5 171t-176.5 64q-62 0 -119.5 -22.5t-102 -72.5t-55.5 -118q-7 -46 7.5 -88.5t53.5 -86.5t73.5 -74t96.5 -78z" />
    <glyph glyph-name="nine" unicode="9" horiz-adv-x="1224" 
d="M375 6q430 44 590 670q-69 -108 -166 -162.5t-199 -54.5q-81 0 -153.5 35t-125 97t-74.5 156.5t-3 204.5q37 216 212.5 360t405.5 144q238 0 367.5 -180.5t79.5 -460.5q-43 -239 -181 -428t-335.5 -294t-421.5 -113zM702 547q72 0 148.5 61.5t140.5 177.5l8 48
q27 164 20.5 290.5t-53 202.5t-124.5 76q-111 0 -187.5 -117t-111.5 -319q-35 -199 13.5 -309.5t145.5 -110.5z" />
    <glyph glyph-name="colon" unicode=":" horiz-adv-x="419" 
d="M356 791q-54 0 -85 37.5t-23 91.5q9 55 52 91t97 36t85 -36t22 -91q-7 -54 -50.5 -91.5t-97.5 -37.5zM227 -20q-54 0 -85 36.5t-23 92.5q9 53 52 90t97 37t85 -37t22 -90q-7 -55 -50 -92t-98 -37z" />
    <glyph glyph-name="semicolon" unicode=";" horiz-adv-x="421" 
d="M145 -252q65 76 78 158q4 26 -7 44t-29 29t-36 24.5t-28 39t-4 63.5q9 57 53 93.5t94 36.5q60 0 89 -41.5t20 -106.5q-14 -88 -78.5 -194t-124.5 -158zM356 791q-54 0 -85 37.5t-23 91.5q9 55 52 91t97 36t85 -36t22 -91q-7 -54 -50.5 -91.5t-97.5 -37.5z" />
    <glyph glyph-name="less" unicode="&#x3c;" horiz-adv-x="1087" 
d="M1071 285l-850 465l998 467l-17 -111l-772 -356l660 -355z" />
    <glyph glyph-name="equal" unicode="=" horiz-adv-x="1069" 
d="M231 819l15 92h905l-14 -92h-906zM188 541l15 92h905l-14 -92h-906z" />
    <glyph glyph-name="greater" unicode="&#x3e;" horiz-adv-x="1087" 
d="M147 285l19 110l770 355l-657 356l16 111l850 -467z" />
    <glyph glyph-name="question" unicode="?" horiz-adv-x="976" 
d="M477 336q11 93 44.5 180.5t76 157.5t85 137.5t77.5 147t47 159.5q21 123 -32 188.5t-150 65.5q-60 0 -120 -28t-108.5 -88t-62.5 -140h-55q20 110 92.5 190t167.5 116t200 36t190 -38t133 -118t30 -188q-11 -71 -46.5 -138.5t-83.5 -121t-104.5 -105t-112.5 -100.5
t-103 -97t-81 -103.5t-43 -112.5h-41zM444 -18q-56 0 -86.5 36t-21.5 93q8 53 50 90t97 37q53 0 84.5 -37.5t24.5 -89.5q-9 -56 -52 -92.5t-96 -36.5z" />
    <glyph glyph-name="at" unicode="@" horiz-adv-x="1886" 
d="M969 -385q-111 0 -210 19.5t-177.5 55.5t-145.5 87t-113.5 112.5t-82 132.5t-51 148t-20 158.5t10.5 163.5q22 138 80 270t153 249t215.5 205t278 139.5t330.5 51.5q104 0 199 -21t179.5 -64t150 -107.5t109 -150.5t56.5 -194t-6 -239q-18 -115 -73.5 -232t-133 -212.5
t-179.5 -155.5t-206 -60q-103 0 -165 56.5t-64 148.5q-135 -174 -260 -174q-127 0 -184.5 102t-30.5 271q14 85 47.5 172t86 167.5t116.5 143.5t146 101t167 38q100 0 160 -79l32 75h213q-26 -66 -110.5 -263.5t-144.5 -347t-66 -192.5q-10 -66 17 -95t93 -29q92 0 190 81.5
t169 211t92 264.5q23 142 2 254.5t-75 195.5t-137 137.5t-183.5 81.5t-214.5 27q-158 0 -300 -46t-250.5 -125.5t-193.5 -185.5t-137 -225t-72 -245q-11 -85 -9 -168t26.5 -161t62 -146.5t98.5 -126t135.5 -98.5t172 -64t209.5 -23q385 0 598 186h121q-124 -130 -316.5 -203
t-404.5 -73zM864 88q44 0 108 71t128 184t119 247l86 215q-6 47 -36 83t-65 36q-67 0 -149 -104t-146.5 -259t-87.5 -301q-13 -85 -1 -128.5t44 -43.5z" />
    <glyph glyph-name="A" unicode="A" horiz-adv-x="1513" 
d="M782 1280q-57 106 -157 106l8 48h203q153 0 239 -62t113 -203l239 -1169h-366l-88 436h-576l-237 -436h-74zM432 502h526l-114 561q-1 5 -6 33.5t-11 55.5t-14 52z" />
    <glyph glyph-name="B" unicode="B" horiz-adv-x="1542" 
d="M524 0q-75 0 -130.5 9.5t-93 24.5t-60 42.5t-33.5 54.5t-12 71.5t3 81.5t13 95l125 780q4 26 5 43t2 48t-5.5 51t-17.5 41.5t-34.5 32.5t-56.5 11l9 48h677q311 0 443.5 -94.5t105.5 -268.5q-15 -98 -82.5 -178t-175.5 -127q159 -39 225 -133t44 -232
q-30 -190 -195.5 -295.5t-476.5 -105.5h-279zM735 66q169 0 276.5 94t133.5 241q28 154 -49.5 237t-249.5 83h-236l-80 -500q-13 -83 12 -119t105 -36h88zM737 784q170 0 273.5 78t124.5 209q21 134 -58 215.5t-252 81.5h-178q36 -34 38.5 -108.5t-13.5 -147.5l-51 -328h116
z" />
    <glyph glyph-name="C" unicode="C" horiz-adv-x="1605" 
d="M901 -18q-122 1 -230.5 31.5t-196.5 90.5t-147 148.5t-81.5 205.5t0.5 261q22 141 82.5 261t146.5 206t193.5 147.5t225.5 91.5t241 31q101 1 187.5 -17t161 -57t128.5 -105t82 -157h-66q-22 67 -69 120t-106 83.5t-121.5 45.5t-121.5 13q-236 -5 -398.5 -179.5
t-211.5 -483.5q-49 -308 58.5 -483.5t340.5 -180.5q81 -2 170.5 23.5t182 87.5t149.5 151h66q-75 -120 -184.5 -197t-227.5 -108t-254 -30z" />
    <glyph glyph-name="D" unicode="D" horiz-adv-x="1638" 
d="M524 0q-58 0 -105 5.5t-81.5 15t-60 26t-42 34t-25.5 44.5t-13 51t-2 60t5.5 65.5t10.5 73.5l125 784q4 26 5 43t2 48t-5.5 51t-17.5 41.5t-34.5 32.5t-56.5 11l9 48h669q111 0 207 -16t168.5 -45.5t131.5 -71t98 -92t67.5 -108.5t38.5 -121t12.5 -129.5t-10.5 -133.5
q-17 -111 -60.5 -212.5t-121 -194.5t-182 -161t-253 -108.5t-323.5 -40.5h-156zM678 66q110 3 202.5 42.5t155.5 101t111.5 147.5t76.5 174t44 188q13 83 15 158.5t-8 150.5t-39 135t-75 107t-119 72.5t-168 25.5h-227q36 -34 38.5 -108.5t-13.5 -147.5l-142 -891
q-13 -83 12 -119t105 -36h31z" />
    <glyph glyph-name="E" unicode="E" horiz-adv-x="1386" 
d="M524 0q-75 0 -130.5 9.5t-93 24.5t-60 42.5t-33.5 54.5t-12 71.5t3 81.5t13 95l127 797q32 210 -127 210l8 48h825q187 0 216 -3q61 -7 82 -42q16 -26 36 -131q9 -45 15 -72h-72q-5 21 -13 56q-21 95 -49.5 110.5t-180.5 15.5h-42h-395q28 -28 36.5 -76t5 -89t-14.5 -116
l-50 -313h576l-10 -65h-576l-78 -488q-12 -82 17.5 -118.5t116.5 -36.5h217q164 0 199 6q51 9 82 50q14 18 76 127q18 31 34 58h69q-20 -36 -51 -95q-86 -160 -131.5 -186.5t-233.5 -25.5h-65h-336z" />
    <glyph glyph-name="F" unicode="F" horiz-adv-x="1304" 
d="M338 1176q32 210 -127 210l8 48h832q188 0 217 -3q60 -8 81 -43q16 -26 36 -130q8 -45 14 -72h-72q-5 21 -13 56q-21 95 -49.5 110.5t-178.5 15.5h-42h-403q22 -21 32.5 -49.5t10 -71t-3.5 -72t-12 -88.5l-50 -313h543l-10 -65h-543l-112 -709h-344z" />
    <glyph glyph-name="G" unicode="G" horiz-adv-x="1712" 
d="M901 -18q-122 1 -230.5 31.5t-196.5 90.5t-147 148.5t-81.5 205.5t0.5 261q22 141 82.5 261t146.5 206t193.5 147.5t225.5 91.5t241 31q101 1 187.5 -17t161 -57t128.5 -105t82 -157h-66q-22 67 -69 120t-106 83.5t-121.5 45.5t-121.5 13q-236 -5 -398.5 -179.5
t-211.5 -483.5q-49 -310 58 -488.5t341 -181.5q136 -3 254 53l66 414q32 211 -125 211l8 47h156q161 0 232.5 -42t73 -119.5t-14.5 -186.5l-17 -102q-74 -114 -193 -193t-255 -114.5t-283 -34.5z" />
    <glyph glyph-name="H" unicode="H" horiz-adv-x="1533" 
d="M338 1176q32 210 -127 210l8 48h160q160 0 231.5 -42.5t72.5 -120t-15 -186.5l-50 -305h543l105 654h346l-228 -1434h-346l113 713h-543l-112 -713h-344z" />
    <glyph glyph-name="I" unicode="I" horiz-adv-x="647" 
d="M338 1176q32 210 -127 210l8 48h160q160 0 231.5 -42.5t72.5 -120t-15 -186.5l-172 -1085h-344z" />
    <glyph glyph-name="J" unicode="J" horiz-adv-x="1280" 
d="M522 -20q-123 0 -220.5 36.5t-156.5 116t-53 189.5h64q-10 -123 87 -196t246 -73q147 0 250.5 100.5t134.5 301.5l115 721q32 210 -127 210l8 48h158q55 0 99 -5t76.5 -13.5t56 -24t39 -31t23.5 -41t11.5 -47t1.5 -56t-5.5 -62t-10.5 -69.5l-92 -579
q-17 -110 -68.5 -200.5t-122 -150t-158.5 -100t-177 -58t-179 -17.5z" />
    <glyph glyph-name="K" unicode="K" horiz-adv-x="1572" 
d="M1497 -8q-195 -24 -288 -18q-153 9 -205 79q-32 40 -41.5 116.5t-4.5 151t-2 156.5q-3 30 -6 50t-12 47t-23 45t-39 37t-58.5 30.5t-83.5 19.5t-113 9l899 719h94l-787 -625q124 15 216.5 -2.5t146.5 -61.5t81.5 -101t33.5 -130q3 -58 3.5 -148t5 -144.5t19.5 -98.5
q19 -54 56 -71.5t116 -10.5zM338 1176q32 210 -127 210l8 48h160q160 0 231.5 -42.5t72.5 -120t-15 -186.5l-172 -1085h-344z" />
    <glyph glyph-name="L" unicode="L" horiz-adv-x="1304" 
d="M524 0q-75 0 -130.5 9.5t-93 24.5t-60 42.5t-33.5 54.5t-12 71.5t3 81.5t13 95l127 797q32 210 -127 210l8 48h160q160 0 231.5 -42.5t72.5 -120t-15 -186.5l-138 -864q-12 -82 17.5 -118.5t116.5 -36.5h213h70t52.5 3.5t40.5 6t30.5 14t25.5 19.5t22.5 31t25 40.5
t30.5 56.5t40 70h70q-20 -37 -53 -98q-84 -158 -129.5 -184t-233.5 -25h-65h-279z" />
    <glyph glyph-name="M" unicode="M" horiz-adv-x="1941" 
d="M834 -37l-428 1223l-189 -1186h-65l206 1309q-50 77 -147 77l8 48h176q150 0 187 -5q93 -13 138 -78q22 -31 38 -79l293 -834l622 996h344l-227 -1434h-344l203 1274z" />
    <glyph glyph-name="N" unicode="N" horiz-adv-x="1456" 
d="M358 1305q-50 81 -147 81l8 48h172q155 0 207 -11q91 -19 143 -98q15 -23 29 -53l512 -1018l186 1180h66l-207 -1303q47 -82 146 -82l-9 -49h-172h-7q-54 0 -79 0.5t-65 3.5t-60 9t-48.5 17.5t-46 28.5t-37 43t-36.5 60l-507 1022l-189 -1184h-65z" />
    <glyph glyph-name="O" unicode="O" horiz-adv-x="1818" 
d="M905 -20q-230 0 -392 93t-232 261t-35 385q34 217 157 384t314.5 259t421.5 92q232 0 395 -92t233.5 -259t36.5 -384q-35 -217 -158.5 -385t-316 -261t-424.5 -93zM922 45q214 0 346 174t184 500q51 325 -26 497.5t-291 172.5q-217 0 -350.5 -172.5t-184.5 -497.5
q-52 -325 26.5 -499.5t295.5 -174.5z" />
    <glyph glyph-name="P" unicode="P" horiz-adv-x="1462" 
d="M338 1176q32 210 -127 210l8 48h756q115 0 205 -13t152 -37t104.5 -58t62.5 -76.5t26 -92.5t-5 -106q-10 -64 -36.5 -118.5t-78 -104.5t-124.5 -84.5t-182 -55t-245 -20.5h-252l-106 -668h-344zM788 731q169 0 260.5 85t114.5 235q25 149 -40 233t-234 84h-248
q28 -28 36.5 -76t5 -89t-14.5 -116l-56 -356h176z" />
    <glyph glyph-name="Q" unicode="Q" horiz-adv-x="1888" 
d="M940 -20q-239 0 -409 93t-245 261t-40 385q34 217 162 384t327.5 259t438.5 92q240 0 410.5 -92t246 -259t41.5 -384q-53 -329 -311 -534t-621 -205zM1425 -596q-82 0 -182 34.5t-194 83.5t-186 98t-183.5 83.5t-161.5 34.5q-44 0 -75 -5.5t-66.5 -21.5t-66.5 -50
t-58 -87h-21q83 200 188 285.5t234 85.5q79 0 177.5 -32t192.5 -78t187 -92t187.5 -78t167.5 -32q192 0 303 215h20q-98 -226 -216 -335t-247 -109zM956 45q214 0 363.5 178t200.5 496q49 317 -44 493.5t-307 176.5q-219 0 -369.5 -176.5t-199.5 -493.5q-51 -318 43.5 -496
t312.5 -178z" />
    <glyph glyph-name="R" unicode="R" horiz-adv-x="1540" 
d="M1499 -8q-404 -54 -510 59q-41 43 -60 112t-23 139t-10.5 140t-33.5 131t-80 95h-180l-106 -668h-344l186 1176q32 210 -127 210l8 48h723q115 0 205 -13t152 -37t104.5 -58t62.5 -76.5t26 -92.5t-5 -106q-21 -135 -118 -232t-286 -133q68 -13 110 -60t59.5 -115t26 -137
t21 -146.5t33.5 -123.5q23 -42 63.5 -55.5t110.5 -7.5zM760 731q169 0 259.5 85t113.5 235q52 317 -273 317h-219q28 -28 36.5 -76t5 -89t-14.5 -116l-56 -356h148z" />
    <glyph glyph-name="S" unicode="S" horiz-adv-x="1411" 
d="M684 -20q-133 0 -242.5 36.5t-182 116t-77.5 189.5h64q5 -82 69.5 -144.5t158.5 -92.5t198 -30q137 0 238.5 60t119.5 174q10 61 -27.5 109.5t-104.5 83.5t-149 69t-163.5 75t-146 91.5t-97.5 128.5t-18 176q16 101 76 184.5t145 136.5t185 82t202 29q120 0 219 -35
t166.5 -112.5t75.5 -186.5h-66q-7 84 -64 145.5t-137 90t-170 28.5q-121 0 -211 -57.5t-108 -167.5q-8 -52 13 -95.5t64 -74.5t101 -59t122.5 -54t129 -54.5t121 -65.5t97.5 -81t59 -107.5t6 -139.5q-16 -105 -81 -192t-158.5 -142t-204 -84.5t-222.5 -29.5z" />
    <glyph glyph-name="T" unicode="T" horiz-adv-x="1458" 
d="M555 0l217 1368h-121h-41q-147 0 -179.5 -15t-82.5 -108q-20 -37 -33 -59h-71q13 25 35 69q67 135 107.5 157.5t218.5 21.5h65h573q188 0 217 -3q60 -8 81 -43q16 -26 36 -130q8 -45 14 -72h-71q-5 21 -13 57q-21 94 -49 109.5t-176 15.5h-41h-125l-217 -1368h-344z" />
    <glyph glyph-name="U" unicode="U" horiz-adv-x="1497" 
d="M786 -23q-82 0 -155 12.5t-142.5 40t-120 72t-88 108.5t-46.5 149t6 194l98 623q32 210 -127 210l8 48h160q160 0 231.5 -42.5t72.5 -120t-15 -186.5l-88 -555q-18 -106 -8.5 -185t34.5 -133.5t68.5 -88t94 -48.5t110.5 -14q189 0 320.5 131t170.5 381l137 861h68
l-133 -844q-50 -309 -219 -461t-437 -152z" />
    <glyph glyph-name="V" unicode="V" horiz-adv-x="1515" 
d="M920 0q-150 0 -225.5 59t-104.5 201l-180 864q-10 40 -18 68.5t-25 68.5t-37 64.5t-51.5 42.5t-69.5 18l8 48h229q149 0 218.5 -58t99.5 -200l184 -885l637 1143h74l-686 -1227q66 -158 196 -158l-8 -49h-241z" />
    <glyph glyph-name="W" unicode="W" horiz-adv-x="2281" 
d="M877 2q-152 0 -229 59t-101 201l-154 862q-8 42 -14.5 69t-21.5 67.5t-32.5 65t-47.5 42.5t-68 18l8 48h229q147 0 212 -57t92 -201l161 -906l396 899q-10 45 -21.5 78t-31.5 67.5t-51.5 53t-72.5 18.5l9 48h229q147 0 211.5 -57t89.5 -201l166 -910l516 1168h72
l-561 -1256q56 -127 186 -127l-8 -49h-242q-152 0 -228 58.5t-100 201.5l-141 793l-391 -877q52 -127 188 -127l-8 -49h-241z" />
    <glyph glyph-name="X" unicode="X" horiz-adv-x="1499" 
d="M133 0l580 606l-228 533q-14 35 -18.5 44.5t-20.5 44t-26 49t-30 40.5t-37.5 37.5t-42 21.5t-50.5 10l8 48h279q73 0 123 -14t86 -49.5t58 -75t52 -111.5l125 -293l518 543h84l-577 -605l225 -534q49 -113 80 -156q63 -90 147 -90l-8 -49h-280q-73 0 -123 14.5t-86 50
t-58 75.5t-51 112l-125 293l-518 -545h-86z" />
    <glyph glyph-name="Y" unicode="Y" horiz-adv-x="1466" 
d="M561 0l94 598l-219 537q-6 13 -18 43t-20 48.5t-22 46t-29 45t-34.5 34.5t-44 25.5t-53.5 8.5l8 48h291q72 0 117.5 -11.5t78.5 -49t49 -68.5t47 -108q2 -5 3 -7l174 -436l543 680h80l-592 -746l-109 -688h-344z" />
    <glyph glyph-name="Z" unicode="Z" horiz-adv-x="1511" 
d="M152 0l995 1368h-436h-41q-150 0 -183 -15.5t-84 -111.5q-19 -34 -30 -55h-72q13 26 35 69q67 135 107.5 157.5t217.5 21.5h64h862l-997 -1368h414h40q66 0 92 -1t63.5 8t45 10.5t32.5 29.5t31.5 40.5t35.5 66.5q32 58 53 95h69q-20 -38 -53 -100q-84 -162 -130 -189
t-236 -26h-64h-831z" />
    <glyph glyph-name="bracketleft" unicode="[" horiz-adv-x="643" 
d="M61 -256l271 1706h479l-8 -55h-170l-252 -1594h170l-10 -57h-480z" />
    <glyph glyph-name="backslash" unicode="\" horiz-adv-x="894" 
d="M698 -240l-366 1694h96l367 -1694h-97z" />
    <glyph glyph-name="bracketright" unicode="]" horiz-adv-x="643" 
d="M61 -256l11 57h170l252 1594h-170l8 55h479l-270 -1706h-480z" />
    <glyph glyph-name="asciicircum" unicode="^" horiz-adv-x="692" 
d="M285 1155l362 612l166 -612h-108l-78 469l-234 -469h-108z" />
    <glyph glyph-name="underscore" unicode="_" horiz-adv-x="1144" 
d="M86 -104l10 63h981l-10 -63h-981z" />
    <glyph glyph-name="grave" unicode="`" horiz-adv-x="526" 
d="M371 1417q-45 56 -2 109q34 42 90 47q64 6 87 -48q5 -10 7 -22l84 -389h-23z" />
    <glyph glyph-name="a" unicode="a" horiz-adv-x="1292" 
d="M430 -20q-149 0 -241 76t-74 196q13 81 66 136t124.5 79.5t160.5 40t169 21t155.5 21t114.5 40.5q57 371 -256 371q-86 0 -163 -32.5t-130 -88.5h-59q61 92 200.5 148t303.5 56q101 0 185.5 -25t150.5 -75.5t95 -139t11 -204.5l-53 -340q-5 -30 -6.5 -52.5t2 -54.5
t15.5 -53t39.5 -36t68.5 -15l-9 -49h-149q-155 0 -221.5 37.5t-77.5 118.5q-179 -176 -422 -176zM588 92q61 0 130 33.5t128 93.5l47 303q-29 -13 -75.5 -24.5t-88.5 -19.5t-89 -23.5t-82.5 -36t-63 -58.5t-35.5 -90q-13 -87 23.5 -132.5t105.5 -45.5z" />
    <glyph glyph-name="b" unicode="b" horiz-adv-x="1413" 
d="M854 -20q-109 0 -195 48t-127 132l-24 -160h-324l195 1233q32 211 -125 211l6 49h158q50 0 90 -3.5t71 -12.5t54.5 -18t39 -26.5t26 -32t14.5 -40t6 -44.5t-1 -52.5t-6.5 -57t-9.5 -63.5l-38 -256q65 74 161.5 115.5t198.5 41.5q95 0 174.5 -34.5t136.5 -99t80.5 -167.5
t3.5 -231q-20 -127 -76.5 -230t-134 -168t-169 -99.5t-185.5 -34.5zM756 78q62 0 115.5 36t92 98.5t65 138t40.5 161.5q15 81 11 159t-21.5 138.5t-60 97.5t-105.5 37q-82 0 -152 -64.5t-108 -174.5l-60 -383q2 -109 52 -176.5t131 -67.5z" />
    <glyph glyph-name="c" unicode="c" horiz-adv-x="1159" 
d="M657 -20q-258 -2 -398.5 141t-100.5 391q26 166 121.5 288.5t237 184t310.5 59.5q300 0 392 -204h-64q-37 73 -107 104.5t-149 28.5q-151 -4 -252 -130t-133 -331q-19 -134 -2.5 -235t79.5 -161t163 -63q77 -3 157 28.5t140 104.5h63q-154 -203 -457 -206z" />
    <glyph glyph-name="d" unicode="d" horiz-adv-x="1329" 
d="M551 -20q-94 0 -173 34.5t-136 99.5t-80.5 168t-3.5 230q20 128 76 231t134 167.5t168.5 99t184.5 34.5q103 0 185 -41t126 -116l53 346q4 24 5.5 43t0.5 45.5t-8.5 46.5t-21 38t-38.5 28t-60 10l6 49h157q160 0 230.5 -42t70.5 -120t-16 -188l-180 -1143h-324l25 160
q-67 -84 -169 -132t-212 -48zM682 78q81 0 153 67.5t107 176.5l59 383q0 110 -50 174.5t-132 64.5t-149 -64t-106 -159t-56 -209q-16 -83 -12.5 -161t21 -139t60.5 -97.5t105 -36.5z" />
    <glyph glyph-name="e" unicode="e" horiz-adv-x="1275" 
d="M674 -20q-270 0 -412.5 142t-103.5 390q26 167 122 289.5t238 183.5t311 59q153 2 263 -47.5t165.5 -156.5t34.5 -260h-766q-9 -35 -12 -68q-33 -208 39 -326t248 -125q108 -5 208.5 44.5t147.5 130.5h68q-84 -123 -225.5 -189.5t-325.5 -66.5zM971 643q18 150 -19.5 245
t-132.5 95q-101 0 -175 -106t-114 -273z" />
    <glyph glyph-name="f" unicode="f" horiz-adv-x="698" 
d="M119 0l151 958h-131l11 66h131l6 31q36 238 214 347.5t470 88.5l-6 -47q-179 -1 -250 -90q-48 -59 -74 -204q-5 -28 -14 -89l-6 -37h231l-10 -66h-232l-151 -958h-340z" />
    <glyph glyph-name="g" unicode="g" horiz-adv-x="1292" 
d="M539 -565q-269 0 -401 79.5t-107 233.5q14 95 102 159t223 95h76q-129 -82 -153 -238q-20 -126 47 -205t221 -79q137 0 242 73t126 203q10 63 -7.5 111t-54 77.5t-86.5 52t-104 38t-106 31t-93.5 35.5t-67 47t-25 70t31.5 101q-115 46 -166 133.5t-32 209.5
q29 178 186 280t402 102h36q56 133 166.5 224.5t241.5 91.5q88 0 128 -42t30 -101q-8 -54 -52 -95t-106 -41q-55 0 -87 39t-26 88q13 75 107 119q-109 -1 -204.5 -82.5t-137.5 -204.5q199 -20 298 -119.5t73 -258.5q-28 -180 -185 -283t-405 -105q-57 0 -99.5 4.5t-63 10
t-56.5 16.5q-22 -43 -13.5 -76.5t40 -51.5t81 -33.5t109.5 -23t124 -20.5t126.5 -25.5t116.5 -37.5t92.5 -57t56 -85t6.5 -120q-25 -154 -198.5 -247t-452.5 -93zM678 322q100 0 163 95t87 245q13 93 7 167.5t-44.5 121t-106.5 46.5q-67 0 -119.5 -47t-83.5 -120t-46 -168
q-13 -94 -7 -169.5t44.5 -123t105.5 -47.5z" />
    <glyph glyph-name="h" unicode="h" horiz-adv-x="1372" 
d="M379 1233q32 211 -125 211l6 49h158q50 0 90 -3.5t71 -12.5t54.5 -18t39 -26.5t26 -32t14.5 -40t6 -44.5t-1 -52.5t-6.5 -57t-9.5 -63.5l-38 -246q184 150 405 150q78 0 140.5 -20.5t107.5 -62.5t62.5 -112.5t2.5 -163.5l-108 -688h-338l102 647q12 84 13.5 149.5
t-31 105.5t-102.5 40q-64 0 -137 -33t-130 -90l-129 -819h-338z" />
    <glyph glyph-name="i" unicode="i" horiz-adv-x="618" 
d="M305 766q32 211 -125 211l6 47h158q55 0 98.5 -5t76 -13t55.5 -24t38 -30.5t22.5 -41t10.5 -46.5t0.5 -56t-6 -61.5t-10.5 -70.5l-107 -676h-338zM494 1141q-77 0 -122 53t-34 129q12 77 73.5 129.5t139.5 52.5q75 0 120.5 -53t33.5 -129q-10 -75 -73 -128.5t-138 -53.5z
" />
    <glyph glyph-name="j" unicode="j" horiz-adv-x="616" 
d="M-227 -569q80 8 141 32.5t102 59t70 86t45 106t27 125.5l145 926q4 29 6 52.5t-2.5 55t-17 52.5t-40.5 36t-69 15l6 47h158q55 0 98.5 -5t76 -13t55.5 -24t38 -30.5t22.5 -41t10.5 -46.5t0.5 -56t-6 -61.5t-10.5 -70.5l-121 -762q-16 -103 -63 -187.5t-115.5 -143
t-158.5 -99t-190.5 -59t-211.5 -19.5zM494 1141q-76 0 -121.5 53.5t-34.5 128.5q12 76 74 129t139 53q75 0 119 -53t32 -129q-10 -75 -71.5 -128.5t-136.5 -53.5z" />
    <glyph glyph-name="k" unicode="k" horiz-adv-x="1372" 
d="M1110 -20q-186 0 -242 100q-20 31 -33 92.5t-23 120t-28 114.5t-59 90.5t-104 34.5l722 492h109l-623 -426q85 7 146 -11.5t93.5 -51.5t55.5 -85t32.5 -100t24 -110.5t31.5 -102.5q18 -52 47 -73t74 -23l-6 -43q-14 -1 -62 -6.5t-84.5 -8.5t-70.5 -3zM379 1233
q32 211 -125 211l6 49h158q50 0 90 -3.5t71 -12.5t54.5 -18t39 -26.5t26 -32t14.5 -40t6 -44.5t-1 -52.5t-6.5 -57t-9.5 -63.5l-180 -1143h-338z" />
    <glyph glyph-name="l" unicode="l" horiz-adv-x="821" 
d="M498 -20q-151 2 -220 89.5t-42 258.5l143 905q32 211 -125 211l6 49h158q50 0 90 -3.5t71 -12.5t54.5 -18t39 -26.5t26 -32t14.5 -40t6 -44.5t-1 -52.5t-6.5 -57t-9.5 -63.5l-141 -899q-7 -52 -8.5 -91.5t21 -64t71.5 -27.5q31 -3 81 13t87 41l-8 -49q-115 -86 -307 -86z
" />
    <glyph glyph-name="m" unicode="m" horiz-adv-x="1937" 
d="M305 766q32 211 -125 211l6 47h158q145 0 212 -32t81 -103q95 84 177.5 121t178.5 37q237 0 287 -175q178 175 371 175q162 0 243 -88t52 -271l-109 -688h-338l103 647q8 48 12 80t5.5 70t-4 62t-17 45t-34.5 30t-55 8q-96 -3 -215 -131q6 -55 -6 -123l-108 -688h-338
l102 647q8 47 12 80t5.5 70.5t-4 61.5t-17.5 45t-34 30t-54 8q-87 -3 -199 -115l-131 -827h-338z" />
    <glyph glyph-name="n" unicode="n" horiz-adv-x="1372" 
d="M305 766q32 211 -125 211l6 47h158q152 0 219 -34.5t78 -112.5q109 92 212.5 131t215.5 39q78 0 140.5 -20.5t107.5 -62.5t62.5 -112.5t2.5 -163.5l-108 -688h-338l102 647q12 84 13.5 149.5t-31 105.5t-102.5 40q-64 0 -137 -33t-130 -90l-129 -819h-338z" />
    <glyph glyph-name="o" unicode="o" horiz-adv-x="1359" 
d="M676 -20q-277 0 -417.5 142t-100.5 390q38 248 224 390t464 142q277 0 418.5 -141.5t103.5 -390.5q-39 -247 -227 -389.5t-465 -142.5zM686 45q127 0 210 130.5t116 336.5q17 95 14.5 180t-20.5 148.5t-61.5 101t-108.5 37.5q-85 0 -153 -65t-108.5 -167t-60.5 -235
q-17 -95 -15 -180t19 -148.5t60 -101t108 -37.5z" />
    <glyph glyph-name="p" unicode="p" horiz-adv-x="1413" 
d="M305 766q32 211 -125 211l6 47h158q158 0 224 -37.5t75 -122.5q78 97 179 138.5t202 41.5q95 0 174.5 -34.5t136.5 -99t80.5 -167.5t3.5 -231q-20 -127 -76.5 -230t-134 -168t-169 -99.5t-185.5 -34.5q-101 0 -183.5 42.5t-125.5 114.5l-113 -710h-338zM756 78
q62 0 115.5 36t92 98.5t65 138t40.5 161.5q15 81 11 159t-21.5 138.5t-60 97.5t-105.5 37q-82 0 -152 -64.5t-108 -174.5l-60 -383q2 -109 52 -176.5t131 -67.5z" />
    <glyph glyph-name="q" unicode="q" horiz-adv-x="1329" 
d="M913 137q-68 -73 -164 -115t-198 -42q-94 0 -173.5 34.5t-136.5 99.5t-80 168t-3 230q20 128 76 231t133.5 167.5t168 99t185.5 34.5q110 0 196 -46.5t127 -131.5l25 158h324l-252 -1597h-340zM682 78q81 0 153 67.5t107 176.5l59 383q0 110 -50 174.5t-132 64.5
t-149 -64t-106 -159t-56 -209q-16 -83 -12.5 -161t21 -139t60.5 -97.5t105 -36.5z" />
    <glyph glyph-name="r" unicode="r" horiz-adv-x="999" 
d="M305 766q32 211 -125 211l6 47h158q151 0 218 -34t79 -111q168 173 463 165l-37 -229q-95 54 -125 67q-180 77 -291 -65l-129 -817h-338z" />
    <glyph glyph-name="s" unicode="s" horiz-adv-x="1081" 
d="M516 -20q-145 0 -259 54t-151 154h66q31 -68 127 -106.5t209 -38.5q111 0 193.5 40.5t93.5 115.5q6 33 -12.5 60t-54.5 47t-83 37.5t-100 35.5t-105.5 38t-98.5 48t-79.5 62.5t-48.5 84.5t-6 111q16 100 94.5 175t185 110.5t222.5 35.5q135 0 237.5 -51.5t136.5 -152.5
h-65q-21 67 -103 104t-184 37q-103 0 -178.5 -38t-85.5 -109q-5 -33 14.5 -60t55 -46t83.5 -36.5t100.5 -35t105 -37t98 -47t78.5 -62t48 -84.5t5 -111q-17 -106 -101.5 -184t-198.5 -114.5t-239 -36.5z" />
    <glyph glyph-name="t" unicode="t" horiz-adv-x="743" 
d="M420 -20q-151 2 -220 89.5t-42 258.5l100 630h-119l11 66h118l41 250h338l-41 -250h217l-10 -66h-217l-113 -714q-7 -52 -8.5 -91.5t21 -64t71.5 -27.5q32 -3 82.5 13t85.5 41l-8 -49q-115 -86 -307 -86z" />
    <glyph glyph-name="u" unicode="u" horiz-adv-x="1372" 
d="M551 -20q-165 0 -253.5 88.5t-59.5 271.5l67 426q32 211 -125 211l6 47h158q55 0 98.5 -5t76 -13t55.5 -24t38 -30.5t22.5 -41t10.5 -46.5t0.5 -56t-6 -61.5t-10.5 -70.5l-47 -297q-8 -56 -11.5 -94.5t0 -79.5t17 -65.5t41.5 -40t71 -15.5q66 0 138 33t131 92l88 557
q32 211 -125 211l6 47h158q160 0 230 -41.5t70 -119t-16 -187.5l-106 -674h-326l23 141q-186 -163 -420 -163z" />
    <glyph glyph-name="v" unicode="v" horiz-adv-x="1277" 
d="M815 0q-149 0 -223 58.5t-105 201.5l-110 455q-11 50 -23 87t-34.5 81.5t-58.5 69t-83 24.5l6 47h236q143 0 210.5 -59t100.5 -199l119 -506l444 764h74l-491 -842q61 -133 178 -133l-8 -49h-232z" />
    <glyph glyph-name="w" unicode="w" horiz-adv-x="1908" 
d="M770 0q-152 2 -228 59.5t-96 200.5l-69 455q-7 47 -20 88.5t-35 83t-59.5 66t-84.5 24.5l6 47h236q147 0 218.5 -59t90.5 -199l78 -496l270 500q-53 207 -188 207l6 47h235q149 0 220 -59t90 -199l78 -494l407 752h74l-455 -840q43 -135 182 -135l-8 -49h-235
q-153 2 -228.5 59t-95.5 201l-67 406l-263 -490q32 -127 185 -127l-8 -49h-236z" />
    <glyph glyph-name="x" unicode="x" horiz-adv-x="1406" 
d="M164 0l465 418l-176 352q-7 14 -23 47t-24.5 49.5t-26.5 41.5t-34.5 37.5t-42 22t-56.5 9.5l6 47h287q37 0 65.5 -2t53 -10t41.5 -14.5t35 -24t28 -29t26.5 -40t25.5 -46t28 -57.5l69 -135l400 358h94l-463 -416l178 -352q6 -12 19.5 -41t20.5 -42.5t21 -37.5t26.5 -35.5
t30.5 -25.5t40.5 -19.5t48.5 -5.5l-8 -49h-287q-135 1 -184 42.5t-116 177.5q-2 3 -3 5l-70 135l-399 -360h-96z" />
    <glyph glyph-name="y" unicode="y" horiz-adv-x="1259" 
d="M360 -512l283 471l-260 756q-2 7 -11.5 35.5t-13.5 40t-14 38t-18 39t-20 33.5t-24.5 31.5t-28.5 22.5t-35 17t-40 5l6 47h262q73 0 120 -12.5t81 -47t54.5 -77.5t46.5 -121l133 -410l397 668h72l-916 -1536h-74z" />
    <glyph glyph-name="z" unicode="z" horiz-adv-x="1247" 
d="M119 0l719 958h-211h-38q-47 0 -67 0.5t-50 -2.5t-38.5 -3.5t-28 -10t-23.5 -14t-18.5 -23.5t-20.5 -30t-22 -42q-18 -34 -30 -55h-72q14 27 37 71q27 54 37 75.5t35.5 48t33 32t51 13t65.5 7t100 -0.5h65h647l-719 -956h215q157 -1 189 5q44 9 71 47q7 11 64 113
q4 8 8 15h72l-35 -70q-53 -105 -77 -131q-34 -37 -102 -44q-36 -4 -151 -3h-59h-647z" />
    <glyph glyph-name="braceleft" unicode="{" horiz-adv-x="757" 
d="M657 -244q-196 -30 -293 22.5t-81 158.5l75 475q9 62 -35 115.5t-126 68.5q108 21 160 76t65 141l78 471q18 95 132.5 139t291.5 15l-4 -29q-62 -1 -93 -30.5t-39 -86.5l-73 -471q-16 -94 -124.5 -149.5t-279.5 -75.5q162 -16 259 -68t85 -129l-67 -481
q-6 -41 -7.5 -70.5t17.5 -46t64 -16.5z" />
    <glyph glyph-name="bar" unicode="|" horiz-adv-x="258" 
d="M61 -256l271 1706h94l-270 -1706h-95z" />
    <glyph glyph-name="braceright" unicode="}" horiz-adv-x="757" 
d="M68 -215q24 0 41 3.5t29.5 13.5t19.5 18t13.5 28t8.5 31t8 39l82 481q13 77 127.5 129t280.5 68q-165 20 -256.5 75.5t-75.5 149.5l76 471q8 57 -13 86.5t-83 30.5l4 29q189 29 289.5 -15t85.5 -139l-70 -471q-13 -86 21.5 -141t134.5 -76q-86 -15 -147.5 -68.5
t-70.5 -115.5l-75 -475q-16 -106 -131.5 -158.5t-303.5 -22.5z" />
    <glyph glyph-name="asciitilde" unicode="~" horiz-adv-x="1042" 
d="M221 754q36 28 72.5 45.5t66 25.5t66.5 5.5t61 -6.5t62 -19t57.5 -24t59.5 -29q52 -26 82.5 -38.5t80 -26t88 -10.5t87.5 21t96 56l-15 -101q-30 -24 -59 -41t-59.5 -24t-54 -11.5t-55.5 1.5t-50.5 9t-53 17.5t-48.5 20.5t-52 25t-49 24q-45 20 -75.5 31t-74 19t-79 4
t-80 -22t-88.5 -53z" />
    <glyph glyph-name="uni00A0" unicode="&#xa0;" horiz-adv-x="657" 
 />
    <glyph glyph-name="exclamdown" unicode="&#xa1;" horiz-adv-x="520" 
d="M55 -315l307 1120h93l-47 -1120h-353zM424 903q-54 0 -86 36.5t-23 90.5q7 55 51 92t99 37q54 0 84 -36.5t22 -92.5q-9 -54 -51 -90.5t-96 -36.5z" />
    <glyph glyph-name="cent" unicode="&#xa2;" horiz-adv-x="1173" 
d="M680 -20q-119 0 -218.5 36t-168.5 102.5t-99 168.5t-10 225q26 165 125.5 288t240 184t300.5 60l24 156h60l-25 -156q255 -20 336 -204h-63q-35 71 -104 103t-144 30q-13 0 -37 -4l-145 -912q24 -4 34 -4q76 -2 154.5 30t136.5 103h64q-140 -187 -400 -204l-30 -183h-60z
M836 954q-115 -38 -191.5 -155t-103.5 -287q-28 -170 11.5 -287t143.5 -153z" />
    <glyph glyph-name="sterling" unicode="&#xa3;" horiz-adv-x="1277" 
d="M225 0q215 178 248 383q10 68 1 169.5t-32 190.5h-223l51 66h158q-11 93 2 170q14 92 55.5 170.5t99.5 134t129.5 95t147.5 58.5t152 19q178 2 288 -100.5t84 -282.5h-30q11 150 -75 233t-214 83q-127 -2 -216 -87t-116 -251q-16 -109 -8 -242h311l-49 -66h-260
q6 -90 -22 -188q-46 -161 -246 -356h397q172 -1 204 4q47 8 76 43q6 9 66 100q6 11 13 21h51q-22 -39 -59 -104q-111 -198 -160.5 -231t-238.5 -32h-56h-529z" />
    <glyph glyph-name="currency" unicode="&#xa4;" horiz-adv-x="1251" 
d="M643 -16q-213 0 -344 125l-125 -109l-35 41l127 109q-117 146 -80 362q34 220 195 365l-94 110l49 41l92 -110q169 124 383 124t344 -124l129 110l33 -41l-125 -108q114 -146 80 -367q-37 -221 -197 -365l90 -106l-47 -41l-92 109q-170 -125 -383 -125zM651 18
q72 0 132.5 68.5t99.5 177.5t61 250q20 140 17.5 250t-41.5 177t-111 67q-74 0 -134 -68t-97.5 -175.5t-59.5 -250.5q-20 -139 -19 -249.5t39.5 -178.5t112.5 -68z" />
    <glyph glyph-name="yen" unicode="&#xa5;" horiz-adv-x="1529" 
d="M651 0l92 580h-303l11 65h276l-55 139h-199l10 66h160l-115 280q-4 9 -20.5 51.5t-24.5 60t-28.5 51.5t-39 50t-47.5 29.5t-63 13.5l8 48h291q33 0 60 -3.5t48.5 -7.5t40.5 -15.5t32.5 -19.5t27.5 -28t22.5 -32t21.5 -40t20 -44.5t22 -53.5l176 -436l541 680h80
l-463 -584h201l-11 -66h-241l-78 -96l-6 -43h303l-10 -65h-304l-92 -580h-344z" />
    <glyph glyph-name="brokenbar" unicode="&#xa6;" horiz-adv-x="258" 
d="M207 666l125 784h94l-125 -784h-94zM61 -256l125 784h95l-125 -784h-95z" />
    <glyph glyph-name="section" unicode="&#xa7;" horiz-adv-x="1079" 
d="M522 -14q-135 0 -210 60.5t-64 156.5l49 -2q-10 -71 53.5 -115.5t157.5 -44.5q74 0 127 33.5t63 95.5q8 49 -16.5 93.5t-69.5 80t-100 70.5t-110 74t-98 81.5t-65 101.5t-10 126q12 73 72.5 144t151.5 118q-22 61 -13 117q19 116 130 197t259 81q136 0 210 -59.5
t63 -155.5h-55q10 78 -48 123t-145 45q-79 0 -137 -35.5t-68 -99.5q-7 -43 11.5 -82.5t54 -71t81.5 -65t95 -63.5t94.5 -67.5t79 -76.5t49.5 -91t6 -110q-14 -74 -73.5 -144.5t-149.5 -117.5q23 -53 10 -119q-18 -117 -126.5 -197.5t-258.5 -80.5zM870 434q73 70 82 148
q4 46 -30.5 89.5t-93.5 81t-122.5 73.5t-127.5 83.5t-97 96.5q-78 -68 -84 -148q-4 -46 30.5 -88.5t94 -80t123 -74t127.5 -84.5t98 -97z" />
    <glyph glyph-name="dieresis" unicode="&#xa8;" horiz-adv-x="829" 
d="M430 1116q-60 0 -94 40t-25 101t57 102.5t107 37.5q59 -2 92.5 -41t24.5 -99q-9 -61 -56 -101t-106 -40zM803 1116q-60 0 -95 40t-26 101q9 59 57 98.5t109 39.5q58 0 92 -39.5t25 -98.5q-9 -60 -56.5 -100.5t-105.5 -40.5z" />
    <glyph glyph-name="copyright" unicode="&#xa9;" horiz-adv-x="1472" 
d="M756 -18q-133 0 -246.5 52t-187.5 139.5t-107 208t-12 253.5q28 178 140 328.5t277 237.5t343 87q132 0 244.5 -52t186 -139.5t106 -208t11.5 -253.5q-28 -177 -139.5 -327.5t-275.5 -238t-340 -87.5zM836 250q-173 -2 -271.5 101t-70.5 284q19 120 88 208.5t166.5 131
t209.5 41.5q211 -3 279 -142l-45 -2q-27 51 -78.5 72.5t-107.5 18.5q-105 -3 -173 -92t-92 -236q-14 -96 -4 -168.5t52.5 -115.5t113.5 -46q53 -3 112.5 18t102.5 72l41 -4q-114 -138 -323 -141zM766 47q159 0 307.5 79t249 214.5t125.5 294.5t-32.5 295t-181 215.5
t-282.5 79.5q-161 0 -309 -78.5t-248 -214.5t-125 -297q-25 -159 32 -294.5t180.5 -214.5t283.5 -79z" />
    <glyph glyph-name="ordfeminine" unicode="&#xaa;" horiz-adv-x="1064" 
d="M555 659q-70 0 -130 25.5t-102.5 73.5t-60.5 125t-2 172q20 125 86 216.5t152.5 135t181.5 43.5q72 0 132.5 -25t88.5 -73l12 84h263l-121 -762h-262l12 80q-91 -95 -250 -95zM645 717q52 0 97.5 43.5t72.5 116.5l55 354q-1 73 -33 114t-85 41q-54 0 -98.5 -51t-71 -123
t-39.5 -157q-12 -86 -10.5 -161.5t30.5 -126t82 -50.5z" />
    <glyph glyph-name="guillemotleft" unicode="&#xab;" horiz-adv-x="1275" 
d="M1227 74l-600 471l749 473l-18 -119l-553 -354l440 -355zM788 74l-600 471l750 473l-18 -119l-553 -354l440 -355z" />
    <glyph glyph-name="logicalnot" unicode="&#xac;" horiz-adv-x="1042" 
d="M936 350l49 303h-778l14 103h879l-64 -406h-100z" />
    <glyph glyph-name="uni00AD" unicode="&#xad;" horiz-adv-x="837" 
d="M190 561l11 64h673l-10 -64h-674z" />
    <glyph glyph-name="registered" unicode="&#xae;" horiz-adv-x="964" 
d="M641 870q-166 0 -265 118t-73 284q26 165 162.5 282t302.5 117t264 -116.5t72 -282.5t-162 -284t-301 -118zM651 926q144 0 259.5 100.5t138.5 245.5q23 143 -61 243.5t-228 100.5t-260.5 -100.5t-139.5 -243.5q-23 -145 61.5 -245.5t229.5 -100.5zM520 1077l66 410h159
q82 0 119 -27.5t29 -79.5q-6 -38 -36 -63.5t-81 -34.5l84 -201h-100l-80 195h-37l-33 -199h-90zM711 1313q79 0 90 67q9 70 -70 70h-61l-21 -137h62z" />
    <glyph glyph-name="macron" unicode="&#xaf;" horiz-adv-x="886" 
d="M299 1180l14 90h709l-14 -90h-709z" />
    <glyph glyph-name="degree" unicode="&#xb0;" horiz-adv-x="765" 
d="M555 954q-125 0 -199.5 88.5t-54.5 212.5q20 125 122 213t226 88q125 0 199.5 -88.5t54.5 -212.5q-20 -125 -122 -213t-226 -88zM567 1030q92 0 167 66.5t89 158.5q15 92 -39.5 157t-146.5 65q-91 0 -166 -65t-90 -157q-14 -92 40.5 -158.5t145.5 -66.5z" />
    <glyph glyph-name="plusminus" unicode="&#xb1;" horiz-adv-x="1069" 
d="M557 313l68 426h-406l14 95h406l61 385h95l-62 -385h406l-15 -95h-405l-68 -426h-94zM129 152l14 94h901l-14 -94h-901z" />
    <glyph glyph-name="uni00B2" unicode="&#xb2;" horiz-adv-x="835" 
d="M195 565q263 182 400 354t165 353q19 119 -35.5 184.5t-144.5 65.5q-86 0 -160 -60t-92 -166h-29q15 95 75.5 164t141 100t170.5 31q143 0 236.5 -82.5t70.5 -228.5q-8 -52 -36 -106t-75 -105.5t-96 -97t-118 -96t-122 -86t-126 -82.5h481l-76 -154h-632z" />
    <glyph glyph-name="uni00B3" unicode="&#xb3;" horiz-adv-x="892" 
d="M530 545q-135 0 -214 57.5t-93 163.5h27q19 -88 82.5 -129t146.5 -41q119 0 201 81t98 191q14 92 -24.5 163t-128.5 95l2 9q64 33 105.5 90.5t53.5 132.5q13 86 -33.5 133t-123.5 47q-86 0 -162 -55.5t-90 -149.5h-23q14 86 69.5 147t127 88t151.5 27q83 0 146.5 -25
t98 -79.5t22.5 -130.5q-11 -72 -72 -127.5t-162 -75.5q104 -16 165.5 -59.5t80 -101t6.5 -130.5q-16 -99 -81.5 -172.5t-163 -111t-212.5 -37.5z" />
    <glyph glyph-name="acute" unicode="&#xb4;" horiz-adv-x="526" 
d="M496 1503q37 69 105 71q53 1 81 -37q34 -46 -10 -100q-8 -10 -19 -20l-342 -303h-22z" />
    <glyph glyph-name="uni00B5" unicode="&#xb5;" horiz-adv-x="1566" 
d="M373 766q32 211 -125 211l6 47h160q159 0 228.5 -41.5t69.5 -119t-16 -187.5l-47 -297q-11 -84 -13 -149.5t30 -105.5t102 -40q66 0 139.5 34t136.5 97q0 33 7 84l73 467q32 211 -125 211l7 47h159q159 0 229 -41.5t70 -119t-16 -187.5l-57 -363q-7 -44 -10 -74t-4 -67.5
t6.5 -62t21 -46.5t39.5 -32.5t63 -10.5l-4 -18q-82 -20 -149 -20q-260 0 -301 172q-209 -177 -389 -177q-41 0 -76 15l-88 -565h-338z" />
    <glyph glyph-name="paragraph" unicode="&#xb6;" horiz-adv-x="1128" 
d="M504 664q-148 1 -211 126q-56 114 -21 272q37 162 146 267q111 105 258 105h618l-227 -1432h-293l219 1376l-123 2q-74 0 -121 -57.5t-59 -132.5l-188 -1190h-103z" />
    <glyph glyph-name="periodcentered" unicode="&#xb7;" horiz-adv-x="423" 
d="M317 532q-55 0 -86.5 38t-23.5 94q9 54 52.5 91.5t98.5 37.5q54 0 86 -37.5t23 -91.5q-7 -55 -51.5 -93.5t-98.5 -38.5z" />
    <glyph glyph-name="cedilla" unicode="&#xb8;" horiz-adv-x="622" 
d="M209 -414q49 0 84 29.5t43 71.5q7 50 -27.5 91t-115.5 54l167 207h70l-117 -131q62 -1 106.5 -21t64 -50t26.5 -61t2 -61q-10 -59 -50.5 -104t-96 -64.5t-115.5 -22t-114 21t-85 67.5l23 27q71 -54 135 -54z" />
    <glyph glyph-name="uni00B9" unicode="&#xb9;" horiz-adv-x="587" 
d="M285 547l129 809l-68 2l2 14l336 215h12l-166 -1040h-245z" />
    <glyph glyph-name="ordmasculine" unicode="&#xba;" horiz-adv-x="1093" 
d="M651 655q-209 0 -315.5 107t-75.5 293q29 186 168 292.5t348 106.5q210 0 316 -106t77 -293q-31 -187 -169.5 -293.5t-348.5 -106.5zM655 705q50 0 89.5 26.5t66.5 76.5t44.5 109.5t29.5 137.5q14 100 14.5 178t-32.5 126t-99 48q-48 0 -86 -26.5t-64 -77t-43.5 -110.5
t-29.5 -138q-14 -100 -15 -177.5t30 -125t95 -47.5z" />
    <glyph glyph-name="guillemotright" unicode="&#xbb;" horiz-adv-x="1275" 
d="M553 74l18 116l551 355l-438 354l18 119l598 -473zM115 74l18 116l553 355l-440 354l18 119l598 -473z" />
    <glyph glyph-name="onequarter" unicode="&#xbc;" horiz-adv-x="1687" 
d="M322 629l127 809l-68 2l2 14l336 215h12l-164 -1040h-245zM268 -205l1331 1802h82l-1331 -1802h-82zM1255 -199l45 291h-395l625 748h137l-164 -1039h-248zM999 139h310l71 455z" />
    <glyph glyph-name="onehalf" unicode="&#xbd;" horiz-adv-x="1980" 
d="M233 -205l1332 1802h84l-1332 -1802h-84zM322 629l127 809l-68 2l2 14l336 215h12l-164 -1040h-245zM1098 -197q262 182 399.5 354.5t165.5 352.5q20 120 -34.5 186t-145.5 66q-89 0 -161.5 -60t-90.5 -165h-29q15 94 75.5 162.5t141 100t170.5 31.5q68 0 127.5 -20
t105 -57.5t67 -99t9.5 -136.5q-8 -52 -36 -105.5t-75.5 -105.5t-96 -96.5t-119 -95.5t-122 -85.5t-126.5 -82.5h483l-77 -154h-633z" />
    <glyph glyph-name="threequarters" unicode="&#xbe;" horiz-adv-x="1933" 
d="M565 -205l1331 1802h82l-1331 -1802h-82zM584 545q-135 0 -215.5 57.5t-92.5 163.5h27q17 -87 81 -128.5t148 -41.5q118 0 199.5 81t97.5 191q14 93 -23.5 163.5t-127.5 94.5l2 9q64 33 106 90.5t54 132.5q13 86 -34.5 133t-125.5 47q-85 0 -160.5 -55.5t-89.5 -149.5
h-22q14 86 69.5 147t126.5 88t150 27q131 0 208.5 -61t59.5 -174q-11 -72 -72 -127.5t-162 -75.5q104 -16 165.5 -59.5t80 -101t6.5 -130.5q-16 -99 -81.5 -172.5t-162.5 -111t-212 -37.5zM1499 -199l45 291h-393l625 748h137l-164 -1039h-250zM1243 139h309l72 455z" />
    <glyph glyph-name="questiondown" unicode="&#xbf;" horiz-adv-x="976" 
d="M461 -324q-106 0 -191.5 38t-133.5 118t-30 188q11 72 46.5 139.5t84 121.5t105 106t112.5 100.5t103.5 96.5t81.5 103.5t43 111.5h39q-10 -93 -43.5 -180.5t-75.5 -157.5t-84.5 -137.5t-78 -147.5t-48.5 -160q-19 -122 39.5 -188t155.5 -66q101 0 188.5 69.5
t108.5 188.5h37q-14 -84 -59.5 -151t-109.5 -108t-138.5 -63t-151.5 -22zM717 899q-54 0 -85.5 36.5t-23.5 90.5q9 55 51.5 92t96.5 37q55 0 86 -36.5t22 -92.5q-8 -54 -50 -90.5t-97 -36.5z" />
    <glyph glyph-name="Agrave" unicode="&#xc0;" horiz-adv-x="1513" 
d="M782 1280q-57 106 -157 106l8 48h203q153 0 239 -62t113 -203l239 -1169h-366l-88 436h-576l-237 -436h-74zM432 502h526l-114 561q-1 5 -6 33.5t-11 55.5t-14 52zM707 1835q-45 55 -3 108q34 42 90 48q64 7 89 -47q5 -10 8 -23l82 -389h-23z" />
    <glyph glyph-name="Aacute" unicode="&#xc1;" horiz-adv-x="1513" 
d="M782 1280q-57 106 -157 106l8 48h203q153 0 239 -62t113 -203l239 -1169h-366l-88 436h-576l-237 -436h-74zM432 502h526l-114 561q-1 5 -6 33.5t-11 55.5t-14 52zM1202 1925q36 70 105 71q53 0 81 -38q33 -47 -12 -101q-8 -9 -18 -18l-340 -303h-23z" />
    <glyph glyph-name="Acircumflex" unicode="&#xc2;" horiz-adv-x="1513" 
d="M782 1280q-57 106 -157 106l8 48h203q153 0 239 -62t113 -203l239 -1169h-366l-88 436h-576l-237 -436h-74zM432 502h526l-114 561q-1 5 -6 33.5t-11 55.5t-14 52zM954 1927q23 37 55 55.5t62 16t55 -21t35 -50.5l117 -389h-23l-215 289l-305 -289h-22z" />
    <glyph glyph-name="Atilde" unicode="&#xc3;" horiz-adv-x="1513" 
d="M782 1280q-57 106 -157 106l8 48h203q153 0 239 -62t113 -203l239 -1169h-366l-88 436h-576l-237 -436h-74zM432 502h526l-114 561q-1 5 -6 33.5t-11 55.5t-14 52zM1225 1538q-75 0 -231.5 52t-207.5 52q-53 0 -80 -17.5t-34 -61.5h-37q6 80 25.5 135t49 82.5t60.5 39
t70 11.5q74 0 229 -52.5t209 -52.5q53 0 80.5 18t34.5 62h37q-10 -131 -69 -199.5t-136 -68.5z" />
    <glyph glyph-name="Adieresis" unicode="&#xc4;" horiz-adv-x="1513" 
d="M782 1280q-57 106 -157 106l8 48h203q153 0 239 -62t113 -203l239 -1169h-366l-88 436h-576l-237 -436h-74zM432 502h526l-114 561q-1 5 -6 33.5t-11 55.5t-14 52zM809 1526q-60 0 -94 40t-25 101t57 102t107 37q59 -2 92.5 -41t24.5 -98q-9 -61 -56 -101t-106 -40z
M1182 1526q-60 0 -95 40t-26 101q9 59 57 98t109 39q58 0 91.5 -39t24.5 -98q-9 -61 -56 -101t-105 -40z" />
    <glyph glyph-name="Aring" unicode="&#xc5;" horiz-adv-x="1513" 
d="M782 1280q-57 106 -157 106l8 48h203q153 0 239 -62t113 -203l239 -1169h-366l-88 436h-576l-237 -436h-74zM432 502h526l-114 561q-1 5 -6 33.5t-11 55.5t-14 52zM995 1538q-94 0 -150.5 66.5t-41.5 160.5q13 95 91.5 162.5t172.5 67.5t151 -67.5t44 -162.5
q-15 -93 -94 -160t-173 -67zM1006 1610q64 0 118 45.5t64 109.5q9 64 -29.5 110t-101.5 46q-64 0 -117.5 -46t-62.5 -110q-10 -64 28 -109.5t101 -45.5z" />
    <glyph glyph-name="AE" unicode="&#xc6;" horiz-adv-x="2129" 
d="M70 0l899 1434h819q186 0 216 -4q60 -7 81 -42q16 -26 36 -131q9 -49 15 -79h-72q-5 24 -14 63q-8 39 -10.5 54.5t-16.5 34.5t-19 23t-38 10t-53.5 5.5t-83.5 -0.5h-47h-398q28 -28 36.5 -76t5 -89t-14.5 -116l-49 -313h577l-10 -65h-577l-78 -488q-12 -81 17.5 -118
t115.5 -37h217h40q46 0 65.5 -0.5t50.5 2.5t40 3t30.5 9t26 11.5t21 20t21 26t21.5 37t26 45.5q32 58 53 95h68q-20 -38 -53 -100q-84 -162 -130 -189t-236 -26h-64h-336q-75 0 -130.5 9.5t-93 24.5t-60.5 42.5t-34 54.5t-12 71.5t3 81.5t13 95l29 180h-491l-349 -559h-73z
M535 625h458l88 551q5 32 5.5 57.5t-4 57.5t-23 54.5t-51.5 32.5z" />
    <glyph glyph-name="Ccedilla" unicode="&#xc7;" horiz-adv-x="1607" 
d="M727 -449q49 0 84 29.5t43 71.5q8 49 -26.5 90.5t-116.5 54.5l151 185q-117 5 -219 38.5t-185 94.5t-138 149t-75.5 201.5t1.5 253.5q22 141 82.5 261t146.5 206t193.5 147.5t225.5 91.5t241 31q101 1 187.5 -17t161 -57t128.5 -105t82 -157h-66q-22 67 -69 120
t-106 83.5t-121.5 45.5t-121.5 13q-236 -5 -398.5 -179.5t-211.5 -483.5q-49 -308 58.5 -483.5t340.5 -180.5q81 -2 170.5 23.5t182 87.5t149.5 151h66q-107 -171 -271.5 -251.5t-365.5 -83.5l-99 -109q51 -1 89.5 -14.5t60 -33.5t35.5 -45.5t15 -50.5t-1 -48
q-12 -73 -71 -123t-131 -63.5t-145.5 7.5t-113.5 76l23 27q71 -54 135 -54z" />
    <glyph glyph-name="Egrave" unicode="&#xc8;" horiz-adv-x="1386" 
d="M524 0q-75 0 -130.5 9.5t-93 24.5t-60 42.5t-33.5 54.5t-12 71.5t3 81.5t13 95l127 797q32 210 -127 210l8 48h825q187 0 216 -3q61 -7 82 -42q16 -26 36 -131q9 -45 15 -72h-72q-5 21 -13 56q-21 95 -49.5 110.5t-180.5 15.5h-42h-395q28 -28 36.5 -76t5 -89t-14.5 -116
l-50 -313h576l-10 -65h-576l-78 -488q-12 -82 17.5 -118.5t116.5 -36.5h217q164 0 199 6q51 9 82 50q14 18 76 127q18 31 34 58h69q-20 -36 -51 -95q-86 -160 -131.5 -186.5t-233.5 -25.5h-65h-336zM745 1839q-45 56 -2 109q35 42 91 47q66 6 90 -49q4 -10 6 -21l84 -389
h-23z" />
    <glyph glyph-name="Eacute" unicode="&#xc9;" horiz-adv-x="1386" 
d="M524 0q-75 0 -130.5 9.5t-93 24.5t-60 42.5t-33.5 54.5t-12 71.5t3 81.5t13 95l127 797q32 210 -127 210l8 48h825q187 0 216 -3q61 -7 82 -42q16 -26 36 -131q9 -45 15 -72h-72q-5 21 -13 56q-21 95 -49.5 110.5t-180.5 15.5h-42h-395q28 -28 36.5 -76t5 -89t-14.5 -116
l-50 -313h576l-10 -65h-576l-78 -488q-12 -82 17.5 -118.5t116.5 -36.5h217q164 0 199 6q51 9 82 50q14 18 76 127q18 31 34 58h69q-20 -36 -51 -95q-86 -160 -131.5 -186.5t-233.5 -25.5h-65h-336zM1094 1921q36 69 103 71q53 1 81 -37q34 -45 -10 -100q-8 -10 -19 -20
l-342 -303h-22z" />
    <glyph glyph-name="Ecircumflex" unicode="&#xca;" horiz-adv-x="1386" 
d="M524 0q-75 0 -130.5 9.5t-93 24.5t-60 42.5t-33.5 54.5t-12 71.5t3 81.5t13 95l127 797q32 210 -127 210l8 48h825q187 0 216 -3q61 -7 82 -42q16 -26 36 -131q9 -45 15 -72h-72q-5 21 -13 56q-21 95 -49.5 110.5t-180.5 15.5h-42h-395q28 -28 36.5 -76t5 -89t-14.5 -116
l-50 -313h576l-10 -65h-576l-78 -488q-12 -82 17.5 -118.5t116.5 -36.5h217q164 0 199 6q51 9 82 50q14 18 76 127q18 31 34 58h69q-20 -36 -51 -95q-86 -160 -131.5 -186.5t-233.5 -25.5h-65h-336zM887 1931q23 37 55 55.5t62 16t55 -21t35 -50.5l116 -389h-22l-213 289
l-307 -289h-23z" />
    <glyph glyph-name="Edieresis" unicode="&#xcb;" horiz-adv-x="1386" 
d="M524 0q-75 0 -130.5 9.5t-93 24.5t-60 42.5t-33.5 54.5t-12 71.5t3 81.5t13 95l127 797q32 210 -127 210l8 48h825q187 0 216 -3q61 -7 82 -42q16 -26 36 -131q9 -45 15 -72h-72q-5 21 -13 56q-21 95 -49.5 110.5t-180.5 15.5h-42h-395q28 -28 36.5 -76t5 -89t-14.5 -116
l-50 -313h576l-10 -65h-576l-78 -488q-12 -82 17.5 -118.5t116.5 -36.5h217q164 0 199 6q51 9 82 50q14 18 76 127q18 31 34 58h69q-20 -36 -51 -95q-86 -160 -131.5 -186.5t-233.5 -25.5h-65h-336zM784 1538q-60 0 -93.5 40t-24.5 101t56.5 102.5t106.5 37.5
q58 -2 92 -41.5t25 -98.5q-9 -61 -56 -101t-106 -40zM1157 1538q-60 0 -95 40t-26 101q9 59 56 98.5t108 39.5q58 0 93 -39.5t26 -98.5q-9 -60 -56.5 -100.5t-105.5 -40.5z" />
    <glyph glyph-name="Igrave" unicode="&#xcc;" horiz-adv-x="647" 
d="M338 1176q32 210 -127 210l8 48h160q160 0 231.5 -42.5t72.5 -120t-15 -186.5l-172 -1085h-344zM453 1835q-45 55 -3 108q34 42 90 48q64 7 89 -47q5 -10 8 -23l82 -389h-23z" />
    <glyph glyph-name="Iacute" unicode="&#xcd;" horiz-adv-x="647" 
d="M338 1176q32 210 -127 210l8 48h160q160 0 231.5 -42.5t72.5 -120t-15 -186.5l-172 -1085h-344zM596 1929q37 69 105 71q53 1 82 -37q34 -45 -9 -99q-8 -11 -20 -21l-342 -303h-23z" />
    <glyph glyph-name="Icircumflex" unicode="&#xce;" horiz-adv-x="647" 
d="M338 1176q32 210 -127 210l8 48h160q160 0 231.5 -42.5t72.5 -120t-15 -186.5l-172 -1085h-344zM526 1927q23 37 55 55.5t62 16t55 -21t35 -50.5l117 -389h-23l-215 289l-305 -289h-22z" />
    <glyph glyph-name="Idieresis" unicode="&#xcf;" horiz-adv-x="647" 
d="M338 1176q32 210 -127 210l8 48h160q160 0 231.5 -42.5t72.5 -120t-15 -186.5l-172 -1085h-344zM381 1530q-60 0 -94 40t-25 101t57 102t107 37q59 -2 92.5 -41t24.5 -98q-9 -61 -56 -101t-106 -40zM754 1530q-60 0 -95 40t-26 101q9 59 57 98t109 39q58 0 91.5 -39
t24.5 -98q-9 -61 -56 -101t-105 -40z" />
    <glyph glyph-name="Eth" unicode="&#xd0;" horiz-adv-x="1638" 
d="M524 0q-58 0 -105 5.5t-81.5 15t-60 26t-42 34t-25.5 44.5t-13 51t-2 60t5.5 65.5t10.5 73.5l49 311h-133l10 70h133l66 403q4 26 5 43t2 48t-5.5 51t-17.5 41.5t-34.5 32.5t-56.5 11l9 48h669q99 0 185.5 -13t155 -36.5t125.5 -57t99 -74.5t73 -89.5t50 -101.5
t27.5 -110.5t8 -115.5t-10.5 -119q-17 -111 -60.5 -212.5t-121 -194.5t-182 -161t-253 -108.5t-323.5 -40.5h-156zM670 66q112 3 205 42.5t157 101t113 147.5t77 174.5t44 187.5q13 83 14.5 158.5t-9 150.5t-40 135t-75.5 107t-119.5 72.5t-168.5 25.5h-221
q36 -34 38.5 -108.5t-13.5 -147.5l-58 -356h152l-10 -70h-152l-74 -465q-13 -83 12 -119t105 -36h23z" />
    <glyph glyph-name="Ntilde" unicode="&#xd1;" horiz-adv-x="1456" 
d="M358 1305q-50 81 -147 81l8 48h172q155 0 207 -11q91 -19 143 -98q15 -23 29 -53l512 -1018l186 1180h66l-207 -1303q47 -82 146 -82l-9 -49h-172h-7q-54 0 -79 0.5t-65 3.5t-60 9t-48.5 17.5t-46 28.5t-37 43t-36.5 60l-507 1022l-189 -1184h-65zM1225 1552
q-75 0 -231 52.5t-208 52.5q-53 0 -80 -18t-34 -62h-37q6 80 25.5 135t49 82.5t60.5 39t70 11.5q74 0 229 -52t209 -52q53 0 80.5 18t34.5 62h37q-10 -131 -69 -200t-136 -69z" />
    <glyph glyph-name="Ograve" unicode="&#xd2;" horiz-adv-x="1888" 
d="M905 -20q-230 0 -392 93t-232 261t-35 385q34 217 157 384t314.5 259t421.5 92q232 0 395 -92t233.5 -259t36.5 -384q-35 -217 -158.5 -385t-316 -261t-424.5 -93zM922 45q214 0 346 174t184 500q51 325 -26 497.5t-291 172.5q-217 0 -350.5 -172.5t-184.5 -497.5
q-52 -325 26.5 -499.5t295.5 -174.5zM1061 1839q-45 55 -3 108q34 42 90 48q64 7 89 -47q5 -10 8 -23l84 -389h-22z" />
    <glyph glyph-name="Oacute" unicode="&#xd3;" horiz-adv-x="1888" 
d="M905 -20q-230 0 -392 93t-232 261t-35 385q34 217 157 384t314.5 259t421.5 92q232 0 395 -92t233.5 -259t36.5 -384q-35 -217 -158.5 -385t-316 -261t-424.5 -93zM922 45q214 0 346 174t184 500q51 325 -26 497.5t-291 172.5q-217 0 -350.5 -172.5t-184.5 -497.5
q-52 -325 26.5 -499.5t295.5 -174.5zM1210 1892q37 69 105 71q53 1 82 -37q34 -45 -9 -99q-8 -11 -20 -21l-342 -303h-22z" />
    <glyph glyph-name="Ocircumflex" unicode="&#xd4;" horiz-adv-x="1888" 
d="M905 -20q-230 0 -392 93t-232 261t-35 385q34 217 157 384t314.5 259t421.5 92q232 0 395 -92t233.5 -259t36.5 -384q-35 -217 -158.5 -385t-316 -261t-424.5 -93zM922 45q214 0 346 174t184 500q51 325 -26 497.5t-291 172.5q-217 0 -350.5 -172.5t-184.5 -497.5
q-52 -325 26.5 -499.5t295.5 -174.5zM1151 1927q23 37 55 55.5t62 16t55 -21t35 -50.5l117 -389h-23l-215 289l-305 -289h-23z" />
    <glyph glyph-name="Otilde" unicode="&#xd5;" horiz-adv-x="1888" 
d="M905 -20q-230 0 -392 93t-232 261t-35 385q34 217 157 384t314.5 259t421.5 92q232 0 395 -92t233.5 -259t36.5 -384q-35 -217 -158.5 -385t-316 -261t-424.5 -93zM922 45q214 0 346 174t184 500q51 325 -26 497.5t-291 172.5q-217 0 -350.5 -172.5t-184.5 -497.5
q-52 -325 26.5 -499.5t295.5 -174.5zM1425 1554q-60 0 -146.5 26t-166.5 52.5t-125 26.5q-53 0 -80.5 -18t-34.5 -62h-36q6 80 25.5 135t48.5 82.5t60 39t70 11.5q74 0 229.5 -52t209.5 -52q53 0 80 18t34 62h37q-8 -131 -68 -200t-137 -69z" />
    <glyph glyph-name="Odieresis" unicode="&#xd6;" horiz-adv-x="1888" 
d="M905 -20q-230 0 -392 93t-232 261t-35 385q34 217 157 384t314.5 259t421.5 92q232 0 395 -92t233.5 -259t36.5 -384q-35 -217 -158.5 -385t-316 -261t-424.5 -93zM922 45q214 0 346 174t184 500q51 325 -26 497.5t-291 172.5q-217 0 -350.5 -172.5t-184.5 -497.5
q-52 -325 26.5 -499.5t295.5 -174.5zM999 1528q-60 0 -93.5 40t-24.5 101t56.5 102t106.5 37q59 -2 92.5 -41t24.5 -98q-9 -61 -56 -101t-106 -40zM1372 1528q-60 0 -95 40t-26 101q9 59 57 98t109 39q58 0 92 -39t25 -98q-9 -60 -56.5 -100.5t-105.5 -40.5z" />
    <glyph glyph-name="multiply" unicode="&#xd7;" horiz-adv-x="886" 
d="M811 342l-252 303l-332 -287l-57 66l332 287l-230 272l78 68l230 -273l331 287l56 -68l-332 -286l256 -301z" />
    <glyph glyph-name="Oslash" unicode="&#xd8;" horiz-adv-x="1818" 
d="M905 -20q-255 0 -426 114l-88 -94h-78l121 129q-120 98 -169 249.5t-19 340.5q34 217 157 384t314.5 259t421.5 92q254 0 428 -113l86 93h80l-119 -127q120 -98 169.5 -248.5t20.5 -339.5q-35 -217 -158.5 -385t-316 -261t-424.5 -93zM922 45q214 0 346 174t184 500
q42 260 2 416l-836 -893q76 -197 304 -197zM1434 1198q-75 191 -299 191q-217 0 -350.5 -172.5t-184.5 -497.5q-42 -257 -2 -414z" />
    <glyph glyph-name="Ugrave" unicode="&#xd9;" horiz-adv-x="1497" 
d="M786 -23q-82 0 -155 12.5t-142.5 40t-120 72t-88 108.5t-46.5 149t6 194l98 623q32 210 -127 210l8 48h160q160 0 231.5 -42.5t72.5 -120t-15 -186.5l-88 -555q-18 -106 -8.5 -185t34.5 -133.5t68.5 -88t94 -48.5t110.5 -14q189 0 320.5 131t170.5 381l137 861h68
l-133 -844q-50 -309 -219 -461t-437 -152zM840 1845q-45 56 -2 109q34 42 90 47q64 6 87 -48q5 -10 7 -22l84 -389h-23z" />
    <glyph glyph-name="Uacute" unicode="&#xda;" horiz-adv-x="1497" 
d="M786 -23q-82 0 -155 12.5t-142.5 40t-120 72t-88 108.5t-46.5 149t6 194l98 623q32 210 -127 210l8 48h160q160 0 231.5 -42.5t72.5 -120t-15 -186.5l-88 -555q-18 -106 -8.5 -185t34.5 -133.5t68.5 -88t94 -48.5t110.5 -14q189 0 320.5 131t170.5 381l137 861h68
l-133 -844q-50 -309 -219 -461t-437 -152zM1204 1919q37 69 105 71q53 1 82 -37q34 -45 -9 -99q-8 -11 -20 -21l-342 -303h-23z" />
    <glyph glyph-name="Ucircumflex" unicode="&#xdb;" horiz-adv-x="1497" 
d="M786 -23q-82 0 -155 12.5t-142.5 40t-120 72t-88 108.5t-46.5 149t6 194l98 623q32 210 -127 210l8 48h160q160 0 231.5 -42.5t72.5 -120t-15 -186.5l-88 -555q-18 -106 -8.5 -185t34.5 -133.5t68.5 -88t94 -48.5t110.5 -14q189 0 320.5 131t170.5 381l137 861h68
l-133 -844q-50 -309 -219 -461t-437 -152zM1085 1931q23 37 55 55.5t62 16t55 -21t35 -50.5l117 -389h-23l-212 289l-308 -289h-22z" />
    <glyph glyph-name="Udieresis" unicode="&#xdc;" horiz-adv-x="1497" 
d="M786 -23q-82 0 -155 12.5t-142.5 40t-120 72t-88 108.5t-46.5 149t6 194l98 623q32 210 -127 210l8 48h160q160 0 231.5 -42.5t72.5 -120t-15 -186.5l-88 -555q-18 -106 -8.5 -185t34.5 -133.5t68.5 -88t94 -48.5t110.5 -14q189 0 320.5 131t170.5 381l137 861h68
l-133 -844q-50 -309 -219 -461t-437 -152zM922 1516q-60 0 -94 40t-25 101t57 102t107 37q59 -2 92 -40.5t24 -98.5q-9 -61 -55.5 -101t-105.5 -40zM1294 1516q-60 0 -94.5 40t-25.5 101q9 59 56.5 98t108.5 39q58 0 92 -39t25 -98q-9 -60 -56.5 -100.5t-105.5 -40.5z" />
    <glyph glyph-name="Yacute" unicode="&#xdd;" horiz-adv-x="1466" 
d="M561 0l94 598l-219 537q-6 13 -18 43t-20 48.5t-22 46t-29 45t-34.5 34.5t-44 25.5t-53.5 8.5l8 48h291q72 0 117.5 -11.5t78.5 -49t49 -68.5t47 -108q2 -5 3 -7l174 -436l543 680h80l-592 -746l-109 -688h-344zM1190 1933q36 70 105 71q53 0 81 -38q33 -47 -12 -101
q-8 -9 -18 -18l-342 -303h-23z" />
    <glyph glyph-name="Thorn" unicode="&#xde;" horiz-adv-x="1517" 
d="M338 1176q32 210 -127 210l8 48h160q112 0 180 -20.5t94.5 -59t31.5 -94.5t-9 -127l-6 -33h284q115 0 205 -13t152 -37t104.5 -58t62.5 -76.5t26 -92.5t-5 -106q-10 -64 -36 -118.5t-77.5 -104.5t-124.5 -84.5t-182 -55t-245 -20.5h-285l-53 -334h-344zM770 397
q169 0 260.5 85t114.5 235q25 149 -40 233t-235 84h-211l-100 -637h211z" />
    <glyph glyph-name="germandbls" unicode="&#xdf;" horiz-adv-x="1437" 
d="M922 -20q-141 0 -250.5 53.5t-147.5 154.5h66q29 -69 119.5 -108t195.5 -39q103 0 176.5 39t79.5 110q2 32 -22.5 59.5t-65.5 47t-93 42t-105.5 44t-103 53.5t-86 69.5t-54 93.5t-6.5 124q16 99 90.5 174.5t175 112.5t207.5 37q132 0 221 -54l4 27q30 175 -57.5 289
t-257.5 114q-84 0 -150.5 -26t-111.5 -68.5t-78.5 -106.5t-53 -131t-32.5 -151l-150 -940h-340l144 907q26 163 131 293.5t266.5 203.5t349.5 73q231 0 328 -134t59 -372l-14 -86q-30 45 -96 70.5t-142 25.5q-94 0 -160.5 -35.5t-70.5 -101.5q-2 -36 29.5 -67t82 -55
t112 -49.5t121 -58.5t106 -73.5t70 -103t11.5 -140.5q-16 -100 -93.5 -174t-182.5 -108.5t-221 -34.5z" />
    <glyph glyph-name="agrave" unicode="&#xe0;" horiz-adv-x="1325" 
d="M430 -20q-149 0 -241 76t-74 196q13 81 66 136t124.5 79.5t160.5 40t169 21t155.5 21t114.5 40.5q57 371 -256 371q-86 0 -163 -32.5t-130 -88.5h-59q61 92 200.5 148t303.5 56q101 0 185.5 -25t150.5 -75.5t95 -139t11 -204.5l-53 -340q-5 -30 -6.5 -52.5t2 -54.5
t15.5 -53t39.5 -36t68.5 -15l-9 -49h-149q-155 0 -221.5 37.5t-77.5 118.5q-179 -176 -422 -176zM588 92q61 0 130 33.5t128 93.5l47 303q-29 -13 -75.5 -24.5t-88.5 -19.5t-89 -23.5t-82.5 -36t-63 -58.5t-35.5 -90q-13 -87 23.5 -132.5t105.5 -45.5zM578 1448
q-45 55 -3 108q34 42 90 48q64 7 89 -47q5 -10 8 -23l84 -389h-23z" />
    <glyph glyph-name="aacute" unicode="&#xe1;" horiz-adv-x="1325" 
d="M430 -20q-149 0 -241 76t-74 196q13 81 66 136t124.5 79.5t160.5 40t169 21t155.5 21t114.5 40.5q57 371 -256 371q-86 0 -163 -32.5t-130 -88.5h-59q61 92 200.5 148t303.5 56q101 0 185.5 -25t150.5 -75.5t95 -139t11 -204.5l-53 -340q-5 -30 -6.5 -52.5t2 -54.5
t15.5 -53t39.5 -36t68.5 -15l-9 -49h-149q-155 0 -221.5 37.5t-77.5 118.5q-179 -176 -422 -176zM588 92q61 0 130 33.5t128 93.5l47 303q-29 -13 -75.5 -24.5t-88.5 -19.5t-89 -23.5t-82.5 -36t-63 -58.5t-35.5 -90q-13 -87 23.5 -132.5t105.5 -45.5zM965 1538
q37 69 104 71q52 1 80 -37q35 -45 -10 -100q-8 -10 -19 -20l-340 -303h-22z" />
    <glyph glyph-name="acircumflex" unicode="&#xe2;" horiz-adv-x="1325" 
d="M430 -20q-149 0 -241 76t-74 196q13 81 66 136t124.5 79.5t160.5 40t169 21t155.5 21t114.5 40.5q57 371 -256 371q-86 0 -163 -32.5t-130 -88.5h-59q61 92 200.5 148t303.5 56q101 0 185.5 -25t150.5 -75.5t95 -139t11 -204.5l-53 -340q-5 -30 -6.5 -52.5t2 -54.5
t15.5 -53t39.5 -36t68.5 -15l-9 -49h-149q-155 0 -221.5 37.5t-77.5 118.5q-179 -176 -422 -176zM588 92q61 0 130 33.5t128 93.5l47 303q-29 -13 -75.5 -24.5t-88.5 -19.5t-89 -23.5t-82.5 -36t-63 -58.5t-35.5 -90q-13 -87 23.5 -132.5t105.5 -45.5zM774 1536
q23 37 55 55.5t61.5 16t54.5 -21t36 -50.5l117 -389h-23l-215 289l-305 -289h-23z" />
    <glyph glyph-name="atilde" unicode="&#xe3;" horiz-adv-x="1325" 
d="M430 -20q-149 0 -241 76t-74 196q13 81 66 136t124.5 79.5t160.5 40t169 21t155.5 21t114.5 40.5q57 371 -256 371q-86 0 -163 -32.5t-130 -88.5h-59q61 92 200.5 148t303.5 56q101 0 185.5 -25t150.5 -75.5t95 -139t11 -204.5l-53 -340q-5 -30 -6.5 -52.5t2 -54.5
t15.5 -53t39.5 -36t68.5 -15l-9 -49h-149q-155 0 -221.5 37.5t-77.5 118.5q-179 -176 -422 -176zM588 92q61 0 130 33.5t128 93.5l47 303q-29 -13 -75.5 -24.5t-88.5 -19.5t-89 -23.5t-82.5 -36t-63 -58.5t-35.5 -90q-13 -87 23.5 -132.5t105.5 -45.5zM1047 1171
q-75 0 -231 52.5t-208 52.5q-53 0 -81 -18t-35 -62h-37q7 80 26.5 135t48.5 82.5t59.5 39t69.5 11.5q74 0 229.5 -52t209.5 -52q53 0 80.5 18t33.5 62h37q-8 -131 -66.5 -200t-135.5 -69z" />
    <glyph glyph-name="adieresis" unicode="&#xe4;" horiz-adv-x="1325" 
d="M430 -20q-149 0 -241 76t-74 196q13 81 66 136t124.5 79.5t160.5 40t169 21t155.5 21t114.5 40.5q57 371 -256 371q-86 0 -163 -32.5t-130 -88.5h-59q61 92 200.5 148t303.5 56q101 0 185.5 -25t150.5 -75.5t95 -139t11 -204.5l-53 -340q-5 -30 -6.5 -52.5t2 -54.5
t15.5 -53t39.5 -36t68.5 -15l-9 -49h-149q-155 0 -221.5 37.5t-77.5 118.5q-179 -176 -422 -176zM588 92q61 0 130 33.5t128 93.5l47 303q-29 -13 -75.5 -24.5t-88.5 -19.5t-89 -23.5t-82.5 -36t-63 -58.5t-35.5 -90q-13 -87 23.5 -132.5t105.5 -45.5zM625 1145
q-60 0 -95 40t-26 101q11 61 58.5 102t105.5 37q59 -2 92.5 -41t23.5 -98q-9 -61 -54.5 -101t-104.5 -40zM997 1145q-61 0 -96.5 40t-26.5 101q10 60 57.5 98.5t108.5 38.5q58 0 92.5 -39t24.5 -98q-9 -61 -55.5 -101t-104.5 -40z" />
    <glyph glyph-name="aring" unicode="&#xe5;" horiz-adv-x="1325" 
d="M430 -20q-149 0 -241 76t-74 196q13 81 66 136t124.5 79.5t160.5 40t169 21t155.5 21t114.5 40.5q57 371 -256 371q-86 0 -163 -32.5t-130 -88.5h-59q61 92 200.5 148t303.5 56q101 0 185.5 -25t150.5 -75.5t95 -139t11 -204.5l-53 -340q-5 -30 -6.5 -52.5t2 -54.5
t15.5 -53t39.5 -36t68.5 -15l-9 -49h-149q-155 0 -221.5 37.5t-77.5 118.5q-179 -176 -422 -176zM588 92q61 0 130 33.5t128 93.5l47 303q-29 -13 -75.5 -24.5t-88.5 -19.5t-89 -23.5t-82.5 -36t-63 -58.5t-35.5 -90q-13 -87 23.5 -132.5t105.5 -45.5zM811 1151
q-94 0 -151 66.5t-42 160.5q13 95 92 162.5t173 67.5t150.5 -67.5t43.5 -162.5q-15 -93 -93.5 -160t-172.5 -67zM823 1223q63 0 117 45.5t64 109.5q9 64 -30 110t-102 46q-64 0 -117.5 -46t-62.5 -110q-10 -64 29 -109.5t102 -45.5z" />
    <glyph glyph-name="ae" unicode="&#xe6;" horiz-adv-x="2031" 
d="M477 -20q-63 1 -117 11.5t-103.5 35.5t-81.5 62t-46 95.5t-2 132.5q22 141 112.5 215t237.5 101q41 7 85.5 10.5t97 4t87 0.5t97.5 -1.5t86 -1.5q12 164 -46.5 243t-203.5 79q-98 0 -183 -38t-137 -120h-67q162 238 489 238q253 0 377 -136q178 136 426 133
q153 2 263 -47.5t166 -156.5t36 -260h-768q-12 -46 -14 -68q-33 -210 32.5 -327t239.5 -124q108 -5 208.5 44.5t147.5 130.5h68q-84 -121 -223 -188.5t-309 -67.5q-162 0 -281 52.5t-184 151.5q-193 -207 -490 -204zM621 68q85 0 170.5 41t152.5 120q-52 117 -31 283l11 72
q-13 0 -75.5 0.5t-84.5 0t-67 -4t-75.5 -12t-58.5 -21.5q-119 -55 -147 -219q-21 -128 38.5 -194t166.5 -66zM1729 643q16 151 -21 245.5t-133 94.5t-169 -94.5t-112 -245.5h435z" />
    <glyph glyph-name="ccedilla" unicode="&#xe7;" horiz-adv-x="1159" 
d="M492 -455q49 0 82.5 29.5t43.5 71.5q7 50 -28 91t-115 54l152 189q-244 8 -376 150t-93 382q26 166 121.5 288.5t237 184t310.5 59.5q300 0 392 -204h-64q-37 73 -107 104.5t-149 28.5q-151 -4 -252 -130t-133 -331q-19 -134 -2.5 -235t79.5 -161t163 -63q77 -3 157 28.5
t140 104.5h63q-147 -190 -416 -204l-102 -115q117 -3 163.5 -63.5t35.5 -129.5q-10 -59 -50.5 -104t-96 -64.5t-115.5 -22t-114 21t-85 67.5l22 27q71 -54 136 -54z" />
    <glyph glyph-name="egrave" unicode="&#xe8;" horiz-adv-x="1275" 
d="M674 -20q-270 0 -412.5 142t-103.5 390q26 167 122 289.5t238 183.5t311 59q153 2 263 -47.5t165.5 -156.5t34.5 -260h-766q-9 -35 -12 -68q-33 -208 39 -326t248 -125q108 -5 208.5 44.5t147.5 130.5h68q-84 -123 -225.5 -189.5t-325.5 -66.5zM971 643q18 150 -19.5 245
t-132.5 95q-101 0 -175 -106t-114 -273zM674 1452q-45 55 -2 108q34 43 91 48q64 7 88 -48q5 -10 7 -22l84 -389h-22z" />
    <glyph glyph-name="eacute" unicode="&#xe9;" horiz-adv-x="1275" 
d="M674 -20q-270 0 -412.5 142t-103.5 390q26 167 122 289.5t238 183.5t311 59q153 2 263 -47.5t165.5 -156.5t34.5 -260h-766q-9 -35 -12 -68q-33 -208 39 -326t248 -125q108 -5 208.5 44.5t147.5 130.5h68q-84 -123 -225.5 -189.5t-325.5 -66.5zM971 643q18 150 -19.5 245
t-132.5 95q-101 0 -175 -106t-114 -273zM948 1534q36 70 105 71q53 0 81 -38q33 -47 -12 -101q-8 -9 -18 -18l-340 -303h-23z" />
    <glyph glyph-name="ecircumflex" unicode="&#xea;" horiz-adv-x="1275" 
d="M674 -20q-270 0 -412.5 142t-103.5 390q26 167 122 289.5t238 183.5t311 59q153 2 263 -47.5t165.5 -156.5t34.5 -260h-766q-9 -35 -12 -68q-33 -208 39 -326t248 -125q108 -5 208.5 44.5t147.5 130.5h68q-84 -123 -225.5 -189.5t-325.5 -66.5zM971 643q18 150 -19.5 245
t-132.5 95q-101 0 -175 -106t-114 -273zM799 1536q23 37 55 55.5t61.5 16t54.5 -21t36 -50.5l116 -389h-22l-215 289l-305 -289h-23z" />
    <glyph glyph-name="edieresis" unicode="&#xeb;" horiz-adv-x="1275" 
d="M674 -20q-270 0 -412.5 142t-103.5 390q26 167 122 289.5t238 183.5t311 59q153 2 263 -47.5t165.5 -156.5t34.5 -260h-766q-9 -35 -12 -68q-33 -208 39 -326t248 -125q108 -5 208.5 44.5t147.5 130.5h68q-84 -123 -225.5 -189.5t-325.5 -66.5zM971 643q18 150 -19.5 245
t-132.5 95q-101 0 -175 -106t-114 -273zM662 1135q-61 0 -95 40t-24 101q9 61 56.5 102t105.5 37q59 -2 93 -41t25 -98q-10 -61 -56 -101t-105 -40zM1034 1135q-61 0 -96 40t-25 101q9 59 56 98t108 39q58 0 93 -39t26 -98q-10 -61 -57 -101t-105 -40z" />
    <glyph glyph-name="igrave" unicode="&#xec;" horiz-adv-x="620" 
d="M305 766q32 211 -125 211l6 47h158q55 0 98.5 -5t76 -13t55.5 -24t38 -30.5t22.5 -41t10.5 -46.5t0.5 -56t-6 -61.5t-10.5 -70.5l-107 -676h-338zM268 1456q-45 56 -2 109q34 42 91 47q64 6 87 -48q5 -10 7 -22l84 -389h-23z" />
    <glyph glyph-name="iacute" unicode="&#xed;" horiz-adv-x="620" 
d="M305 766q32 211 -125 211l6 47h158q55 0 98.5 -5t76 -13t55.5 -24t38 -30.5t22.5 -41t10.5 -46.5t0.5 -56t-6 -61.5t-10.5 -70.5l-107 -676h-338zM502 1538q37 69 104 71q52 1 80 -37q35 -45 -10 -100q-8 -10 -19 -20l-340 -303h-22z" />
    <glyph glyph-name="icircumflex" unicode="&#xee;" horiz-adv-x="620" 
d="M305 766q32 211 -125 211l6 47h158q55 0 98.5 -5t76 -13t55.5 -24t38 -30.5t22.5 -41t10.5 -46.5t0.5 -56t-6 -61.5t-10.5 -70.5l-107 -676h-338zM422 1538q23 37 55 55.5t62 16t55 -21t35 -50.5l116 -389h-22l-215 289l-305 -289h-23z" />
    <glyph glyph-name="idieresis" unicode="&#xef;" horiz-adv-x="620" 
d="M305 766q32 211 -125 211l6 47h158q55 0 98.5 -5t76 -13t55.5 -24t38 -30.5t22.5 -41t10.5 -46.5t0.5 -56t-6 -61.5t-10.5 -70.5l-107 -676h-338zM299 1145q-60 0 -95 40t-26 101q11 61 58.5 102t105.5 37q59 -2 93 -41t24 -98q-9 -61 -55 -101t-105 -40zM672 1145
q-61 0 -96.5 40t-26.5 101q10 60 57.5 98.5t108.5 38.5q58 0 92 -39t24 -98q-9 -61 -55 -101t-104 -40z" />
    <glyph glyph-name="eth" unicode="&#xf0;" horiz-adv-x="1239" 
d="M614 -20q-93 0 -169.5 21t-128.5 57.5t-90 86.5t-54.5 108t-22.5 121.5t7 127.5q16 103 63 193.5t120.5 162.5t182 114t236.5 42q119 0 188 -66q-15 176 -92 305l-149 -79l-17 40l141 74q-97 131 -254 154l7 45q237 -9 401 -117l166 88l16 -41l-141 -74
q151 -116 213 -301.5t29 -398.5q-19 -128 -73.5 -246.5t-136.5 -211.5t-197 -149t-245 -56zM625 41q58 0 108.5 44t88 123.5t65.5 179t47 220.5q19 123 16 238q-24 50 -69.5 77t-100.5 27q-62 0 -112.5 -39t-84 -107t-55.5 -142.5t-36 -163.5q-14 -95 -15 -173.5t12 -144
t47.5 -102.5t88.5 -37z" />
    <glyph glyph-name="ntilde" unicode="&#xf1;" horiz-adv-x="1372" 
d="M305 766q32 211 -125 211l6 47h158q152 0 219 -34.5t78 -112.5q109 92 212.5 131t215.5 39q78 0 140.5 -20.5t107.5 -62.5t62.5 -112.5t2.5 -163.5l-108 -688h-338l102 647q12 84 13.5 149.5t-31 105.5t-102.5 40q-64 0 -137 -33t-130 -90l-129 -819h-338zM1096 1159
q-60 0 -146.5 26.5t-167 52.5t-125.5 26q-53 0 -80.5 -18t-33.5 -62h-37q6 80 25.5 135t48.5 82.5t59.5 39t69.5 11.5q74 0 229 -52t209 -52t81.5 17.5t33.5 61.5h36q-8 -131 -66.5 -199.5t-135.5 -68.5z" />
    <glyph glyph-name="ograve" unicode="&#xf2;" horiz-adv-x="1359" 
d="M676 -20q-277 0 -417.5 142t-100.5 390q38 248 224 390t464 142q277 0 418.5 -141.5t103.5 -390.5q-39 -247 -227 -389.5t-465 -142.5zM686 45q127 0 210 130.5t116 336.5q17 95 14.5 180t-20.5 148.5t-61.5 101t-108.5 37.5q-85 0 -153 -65t-108.5 -167t-60.5 -235
q-17 -95 -15 -180t19 -148.5t60 -101t108 -37.5zM631 1452q-45 55 -2 108q34 43 91 48q64 7 88 -48q5 -10 7 -22l84 -389h-22z" />
    <glyph glyph-name="oacute" unicode="&#xf3;" horiz-adv-x="1359" 
d="M676 -20q-277 0 -417.5 142t-100.5 390q38 248 224 390t464 142q277 0 418.5 -141.5t103.5 -390.5q-39 -247 -227 -389.5t-465 -142.5zM686 45q127 0 210 130.5t116 336.5q17 95 14.5 180t-20.5 148.5t-61.5 101t-108.5 37.5q-85 0 -153 -65t-108.5 -167t-60.5 -235
q-17 -95 -15 -180t19 -148.5t60 -101t108 -37.5zM1024 1540q37 70 106 71q53 0 80 -37q34 -46 -10 -100q-9 -10 -20 -20l-340 -303h-23z" />
    <glyph glyph-name="ocircumflex" unicode="&#xf4;" horiz-adv-x="1359" 
d="M676 -20q-277 0 -417.5 142t-100.5 390q38 248 224 390t464 142q277 0 418.5 -141.5t103.5 -390.5q-39 -247 -227 -389.5t-465 -142.5zM686 45q127 0 210 130.5t116 336.5q17 95 14.5 180t-20.5 148.5t-61.5 101t-108.5 37.5q-85 0 -153 -65t-108.5 -167t-60.5 -235
q-17 -95 -15 -180t19 -148.5t60 -101t108 -37.5zM809 1542q23 37 55 55.5t62 16t55 -21t35 -50.5l117 -389h-23l-213 289l-307 -289h-23z" />
    <glyph glyph-name="otilde" unicode="&#xf5;" horiz-adv-x="1359" 
d="M676 -20q-277 0 -417.5 142t-100.5 390q38 248 224 390t464 142q277 0 418.5 -141.5t103.5 -390.5q-39 -247 -227 -389.5t-465 -142.5zM686 45q127 0 210 130.5t116 336.5q17 95 14.5 180t-20.5 148.5t-61.5 101t-108.5 37.5q-85 0 -153 -65t-108.5 -167t-60.5 -235
q-17 -95 -15 -180t19 -148.5t60 -101t108 -37.5zM1079 1151q-75 0 -231 52t-207 52q-53 0 -80.5 -17.5t-34.5 -61.5h-37q6 80 25.5 135t49 82.5t60.5 39t70 11.5q74 0 229.5 -52.5t209.5 -52.5q53 0 80 18t34 62h37q-10 -131 -69 -199.5t-136 -68.5z" />
    <glyph glyph-name="odieresis" unicode="&#xf6;" horiz-adv-x="1359" 
d="M676 -20q-277 0 -417.5 142t-100.5 390q38 248 224 390t464 142q277 0 418.5 -141.5t103.5 -390.5q-39 -247 -227 -389.5t-465 -142.5zM686 45q127 0 210 130.5t116 336.5q17 95 14.5 180t-20.5 148.5t-61.5 101t-108.5 37.5q-85 0 -153 -65t-108.5 -167t-60.5 -235
q-17 -95 -15 -180t19 -148.5t60 -101t108 -37.5zM680 1147q-61 0 -95 40t-24 101q9 61 56.5 102t105.5 37q59 -2 93.5 -41t25.5 -98q-10 -61 -56.5 -101t-105.5 -40zM1053 1147q-61 0 -96 40t-25 101q9 59 56 98t108 39q58 0 92.5 -39t25.5 -98q-10 -61 -56.5 -101
t-104.5 -40z" />
    <glyph glyph-name="divide" unicode="&#xf7;" horiz-adv-x="1069" 
d="M209 676l14 92h905l-14 -92h-905zM592 268q-56 0 -88 37t-23 94q8 53 52.5 91t99.5 38t85.5 -38t22.5 -91q-9 -57 -51 -94t-98 -37zM692 909q-55 0 -86.5 37.5t-23.5 91.5q9 56 52 92.5t99 36.5t87 -36t22 -93q-8 -54 -51.5 -91.5t-98.5 -37.5z" />
    <glyph glyph-name="oslash" unicode="&#xf8;" horiz-adv-x="1359" 
d="M211 -4l90 90q-91 69 -128.5 178t-14.5 248q38 248 224 390t464 142q211 0 342 -81l67 65h74l-98 -96q180 -141 137 -420q-39 -247 -227 -389.5t-465 -142.5q-204 0 -334 77l-59 -61h-72zM686 45q127 0 210 130.5t116 336.5q18 117 12 217l-514 -510q16 -81 60 -127.5
t116 -46.5zM514 512q-20 -120 -14 -229l516 510q-30 186 -180 186q-85 0 -153 -65t-108.5 -167t-60.5 -235z" />
    <glyph glyph-name="ugrave" unicode="&#xf9;" horiz-adv-x="1372" 
d="M551 -20q-165 0 -253.5 88.5t-59.5 271.5l67 426q32 211 -125 211l6 47h158q55 0 98.5 -5t76 -13t55.5 -24t38 -30.5t22.5 -41t10.5 -46.5t0.5 -56t-6 -61.5t-10.5 -70.5l-47 -297q-8 -56 -11.5 -94.5t0 -79.5t17 -65.5t41.5 -40t71 -15.5q66 0 138 33t131 92l88 557
q32 211 -125 211l6 47h158q160 0 230 -41.5t70 -119t-16 -187.5l-106 -674h-326l23 141q-186 -163 -420 -163zM618 1450q-45 56 -2 109q35 42 91 47q66 6 90 -49q4 -10 6 -21l84 -389h-23z" />
    <glyph glyph-name="uacute" unicode="&#xfa;" horiz-adv-x="1372" 
d="M551 -20q-165 0 -253.5 88.5t-59.5 271.5l67 426q32 211 -125 211l6 47h158q55 0 98.5 -5t76 -13t55.5 -24t38 -30.5t22.5 -41t10.5 -46.5t0.5 -56t-6 -61.5t-10.5 -70.5l-47 -297q-8 -56 -11.5 -94.5t0 -79.5t17 -65.5t41.5 -40t71 -15.5q66 0 138 33t131 92l88 557
q32 211 -125 211l6 47h158q160 0 230 -41.5t70 -119t-16 -187.5l-106 -674h-326l23 141q-186 -163 -420 -163zM983 1538q37 70 106 71q53 0 80 -38q33 -47 -12 -101q-8 -9 -18 -18l-340 -303h-23z" />
    <glyph glyph-name="ucircumflex" unicode="&#xfb;" horiz-adv-x="1372" 
d="M551 -20q-165 0 -253.5 88.5t-59.5 271.5l67 426q32 211 -125 211l6 47h158q55 0 98.5 -5t76 -13t55.5 -24t38 -30.5t22.5 -41t10.5 -46.5t0.5 -56t-6 -61.5t-10.5 -70.5l-47 -297q-8 -56 -11.5 -94.5t0 -79.5t17 -65.5t41.5 -40t71 -15.5q66 0 138 33t131 92l88 557
q32 211 -125 211l6 47h158q160 0 230 -41.5t70 -119t-16 -187.5l-106 -674h-326l23 141q-186 -163 -420 -163zM807 1542q23 37 55 55.5t62 16t55 -21t35 -50.5l116 -389h-22l-213 289l-307 -289h-23z" />
    <glyph glyph-name="udieresis" unicode="&#xfc;" horiz-adv-x="1372" 
d="M551 -20q-165 0 -253.5 88.5t-59.5 271.5l67 426q32 211 -125 211l6 47h158q55 0 98.5 -5t76 -13t55.5 -24t38 -30.5t22.5 -41t10.5 -46.5t0.5 -56t-6 -61.5t-10.5 -70.5l-47 -297q-8 -56 -11.5 -94.5t0 -79.5t17 -65.5t41.5 -40t71 -15.5q66 0 138 33t131 92l88 557
q32 211 -125 211l6 47h158q160 0 230 -41.5t70 -119t-16 -187.5l-106 -674h-326l23 141q-186 -163 -420 -163zM680 1137q-61 0 -95 40t-24 101q9 61 57 102t107 37q58 -2 92 -41t25 -98q-10 -61 -56.5 -101t-105.5 -40zM1053 1137q-61 0 -96 40t-25 101q9 59 56 98t108 39
q58 0 92.5 -39t25.5 -98q-10 -61 -56.5 -101t-104.5 -40z" />
    <glyph glyph-name="yacute" unicode="&#xfd;" horiz-adv-x="1259" 
d="M360 -512l283 471l-260 756q-2 7 -11.5 35.5t-13.5 40t-14 38t-18 39t-20 33.5t-24.5 31.5t-28.5 22.5t-35 17t-40 5l6 47h262q73 0 120 -12.5t81 -47t54.5 -77.5t46.5 -121l133 -410l397 668h72l-916 -1536h-74zM1051 1540q37 69 104 71q53 1 81 -37q34 -45 -9 -99
q-9 -11 -21 -21l-340 -303h-22z" />
    <glyph glyph-name="thorn" unicode="&#xfe;" horiz-adv-x="1413" 
d="M379 1233q32 211 -125 211l6 49h158q50 0 90 -3.5t71 -12.5t54.5 -18t39 -26.5t26 -32t14.5 -40t6 -44.5t-1 -52.5t-6.5 -57t-9.5 -63.5l-38 -256q67 74 162.5 115.5t197.5 41.5q95 0 174.5 -34.5t136.5 -99t80.5 -167.5t3.5 -231q-20 -127 -76.5 -230t-134 -168
t-169 -99.5t-185.5 -34.5q-101 0 -183.5 42.5t-125.5 114.5l-113 -710h-338zM756 78q62 0 115.5 36t92 98.5t65 138t40.5 161.5q15 81 11 159t-21.5 138.5t-60 97.5t-105.5 37q-82 0 -152 -64.5t-108 -174.5l-60 -383q2 -109 52 -176.5t131 -67.5z" />
    <glyph glyph-name="ydieresis" unicode="&#xff;" horiz-adv-x="1259" 
d="M360 -512l283 471l-260 756q-2 7 -11.5 35.5t-13.5 40t-14 38t-18 39t-20 33.5t-24.5 31.5t-28.5 22.5t-35 17t-40 5l6 47h262q73 0 120 -12.5t81 -47t54.5 -77.5t46.5 -121l133 -410l397 668h72l-916 -1536h-74zM733 1149q-61 0 -95 40t-24 101q9 61 57 102.5t107 37.5
q58 -2 92 -41.5t25 -98.5q-10 -61 -56.5 -101t-105.5 -40zM1106 1149q-61 0 -96 40t-25 101q9 59 56 98t108 39q58 0 93 -39t26 -98q-10 -61 -57 -101t-105 -40z" />
    <glyph glyph-name="Amacron" unicode="&#x100;" horiz-adv-x="1513" 
d="M782 1280q-57 106 -157 106l8 48h203q153 0 239 -62t113 -203l239 -1169h-366l-88 436h-576l-237 -436h-74zM432 502h526l-114 561q-1 5 -6 33.5t-11 55.5t-14 52zM643 1563l14 90h709l-14 -90h-709z" />
    <glyph glyph-name="amacron" unicode="&#x101;" horiz-adv-x="1325" 
d="M430 -20q-149 0 -241 76t-74 196q13 81 66 136t124.5 79.5t160.5 40t169 21t155.5 21t114.5 40.5q57 371 -256 371q-86 0 -163 -32.5t-130 -88.5h-59q61 92 200.5 148t303.5 56q101 0 185.5 -25t150.5 -75.5t95 -139t11 -204.5l-53 -340q-5 -30 -6.5 -52.5t2 -54.5
t15.5 -53t39.5 -36t68.5 -15l-9 -49h-149q-155 0 -221.5 37.5t-77.5 118.5q-179 -176 -422 -176zM588 92q61 0 130 33.5t128 93.5l47 303q-29 -13 -75.5 -24.5t-88.5 -19.5t-89 -23.5t-82.5 -36t-63 -58.5t-35.5 -90q-13 -87 23.5 -132.5t105.5 -45.5zM444 1165l15 90h708
l-14 -90h-709z" />
    <glyph glyph-name="Abreve" unicode="&#x102;" horiz-adv-x="1513" 
d="M782 1280q-57 106 -157 106l8 48h203q153 0 239 -62t113 -203l239 -1169h-366l-88 436h-576l-237 -436h-74zM432 502h526l-114 561q-1 5 -6 33.5t-11 55.5t-14 52zM993 1538q-68 0 -121.5 19t-94 59t-57 111.5t-3.5 168.5h28q-5 -60 36 -101.5t103 -58t138 -16.5
t143.5 16.5t121.5 58t69 101.5h28q-18 -97 -57.5 -168.5t-92.5 -111.5t-113 -59t-128 -19z" />
    <glyph glyph-name="abreve" unicode="&#x103;" horiz-adv-x="1325" 
d="M430 -20q-149 0 -241 76t-74 196q13 81 66 136t124.5 79.5t160.5 40t169 21t155.5 21t114.5 40.5q57 371 -256 371q-86 0 -163 -32.5t-130 -88.5h-59q61 92 200.5 148t303.5 56q101 0 185.5 -25t150.5 -75.5t95 -139t11 -204.5l-53 -340q-5 -30 -6.5 -52.5t2 -54.5
t15.5 -53t39.5 -36t68.5 -15l-9 -49h-149q-155 0 -221.5 37.5t-77.5 118.5q-179 -176 -422 -176zM588 92q61 0 130 33.5t128 93.5l47 303q-29 -13 -75.5 -24.5t-88.5 -19.5t-89 -23.5t-82.5 -36t-63 -58.5t-35.5 -90q-13 -87 23.5 -132.5t105.5 -45.5zM797 1155
q-68 0 -121.5 19t-94.5 59t-57.5 111.5t-3.5 168.5h29q-5 -60 35.5 -101.5t102.5 -58t138 -16.5t143.5 16.5t121.5 58t69 101.5h29q-18 -97 -57.5 -168.5t-92.5 -111.5t-113 -59t-128 -19z" />
    <glyph glyph-name="Aogonek" unicode="&#x104;" horiz-adv-x="1513" 
d="M782 1280q-57 106 -157 106l8 48h203q153 0 239 -62t113 -203l239 -1169h-127q-104 -134 -74 -247q20 -76 89 -105q79 -34 160 17q4 2 8 5l8 -14q-117 -113 -250 -133q-111 -17 -166 41q-66 70 -5 205q47 105 167 231h-176l-88 436h-576l-237 -436h-74zM432 502h526
l-114 561q-1 5 -6 33.5t-11 55.5t-14 52z" />
    <glyph glyph-name="aogonek" unicode="&#x105;" horiz-adv-x="1325" 
d="M430 -20q-149 0 -241 76t-74 196q13 81 66 136t124.5 79.5t160.5 40t169 21t155.5 21t114.5 40.5q57 371 -256 371q-86 0 -163 -32.5t-130 -88.5h-59q61 92 200.5 148t303.5 56q101 0 185.5 -25t150.5 -75.5t95 -139t11 -204.5l-53 -340q-5 -30 -6.5 -52.5t2 -54.5
t15.5 -53t39.5 -36t68.5 -15l-9 -49h-149h-14q-119 -139 -97 -258q15 -79 84 -113q76 -36 157 8q8 5 17 11l11 -15q-117 -114 -250 -134q-111 -17 -167 42q-66 69 -6 204q51 117 191 257q-114 9 -165 46t-60 108q-179 -176 -422 -176zM588 92q61 0 130 33.5t128 93.5l47 303
q-29 -13 -75.5 -24.5t-88.5 -19.5t-89 -23.5t-82.5 -36t-63 -58.5t-35.5 -90q-13 -87 23.5 -132.5t105.5 -45.5z" />
    <glyph glyph-name="Cacute" unicode="&#x106;" horiz-adv-x="1605" 
d="M901 -18q-122 1 -230.5 31.5t-196.5 90.5t-147 148.5t-81.5 205.5t0.5 261q22 141 82.5 261t146.5 206t193.5 147.5t225.5 91.5t241 31q101 1 187.5 -17t161 -57t128.5 -105t82 -157h-66q-22 67 -69 120t-106 83.5t-121.5 45.5t-121.5 13q-236 -5 -398.5 -179.5
t-211.5 -483.5q-49 -308 58.5 -483.5t340.5 -180.5q81 -2 170.5 23.5t182 87.5t149.5 151h66q-75 -120 -184.5 -197t-227.5 -108t-254 -30zM1208 1923q36 70 105 71q53 0 81 -38q33 -47 -12 -101q-8 -9 -18 -18l-340 -303h-23z" />
    <glyph glyph-name="cacute" unicode="&#x107;" horiz-adv-x="1159" 
d="M657 -20q-258 -2 -398.5 141t-100.5 391q26 166 121.5 288.5t237 184t310.5 59.5q300 0 392 -204h-64q-37 73 -107 104.5t-149 28.5q-151 -4 -252 -130t-133 -331q-19 -134 -2.5 -235t79.5 -161t163 -63q77 -3 157 28.5t140 104.5h63q-154 -203 -457 -206zM950 1542
q37 69 105 71q53 1 82 -37q34 -45 -9 -99q-8 -11 -20 -21l-342 -303h-23z" />
    <glyph glyph-name="Cdotaccent" unicode="&#x10a;" horiz-adv-x="1605" 
d="M901 -18q-122 1 -230.5 31.5t-196.5 90.5t-147 148.5t-81.5 205.5t0.5 261q22 141 82.5 261t146.5 206t193.5 147.5t225.5 91.5t241 31q101 1 187.5 -17t161 -57t128.5 -105t82 -157h-66q-22 67 -69 120t-106 83.5t-121.5 45.5t-121.5 13q-236 -5 -398.5 -179.5
t-211.5 -483.5q-49 -308 58.5 -483.5t340.5 -180.5q81 -2 170.5 23.5t182 87.5t149.5 151h66q-75 -120 -184.5 -197t-227.5 -108t-254 -30zM1151 1528q-60 0 -94 39.5t-25 99.5q9 59 56 98t108 39q59 0 92.5 -38.5t24.5 -98.5q-9 -59 -56 -99t-106 -40z" />
    <glyph glyph-name="cdotaccent" unicode="&#x10b;" horiz-adv-x="1159" 
d="M657 -20q-258 -2 -398.5 141t-100.5 391q26 166 121.5 288.5t237 184t310.5 59.5q300 0 392 -204h-64q-37 73 -107 104.5t-149 28.5q-151 -4 -252 -130t-133 -331q-19 -134 -2.5 -235t79.5 -161t163 -63q77 -3 157 28.5t140 104.5h63q-154 -203 -457 -206zM844 1137
q-60 0 -94.5 39.5t-24.5 99.5q9 60 55.5 98.5t106.5 38.5q59 0 93.5 -39t25.5 -98q-10 -60 -56.5 -99.5t-105.5 -39.5z" />
    <glyph glyph-name="Ccaron" unicode="&#x10c;" horiz-adv-x="1607" 
d="M901 -18q-122 1 -230.5 31.5t-196.5 90.5t-147 148.5t-81.5 205.5t0.5 261q22 141 82.5 261t146.5 206t193.5 147.5t225.5 91.5t241 31q101 1 187.5 -17t161 -57t128.5 -105t82 -157h-66q-22 67 -69 120t-106 83.5t-121.5 45.5t-121.5 13q-236 -5 -398.5 -179.5
t-211.5 -483.5q-49 -308 58.5 -483.5t340.5 -180.5q81 -2 170.5 23.5t182 87.5t149.5 151h66q-75 -120 -184.5 -197t-227.5 -108t-254 -30zM1073 1608l-119 389h23l215 -291l305 291h23l-240 -389q-42 -67 -112 -71t-95 71z" />
    <glyph glyph-name="ccaron" unicode="&#x10d;" horiz-adv-x="1210" 
d="M657 -20q-258 -2 -398.5 141t-100.5 391q26 166 121.5 288.5t237 184t310.5 59.5q300 0 392 -204h-64q-37 73 -107 104.5t-149 28.5q-151 -4 -252 -130t-133 -331q-19 -134 -2.5 -235t79.5 -161t163 -63q77 -3 157 28.5t140 104.5h63q-154 -203 -457 -206zM754 1223
l-119 389h22l213 -291l308 291h22l-239 -389q-43 -67 -113 -71t-94 71z" />
    <glyph glyph-name="Dcaron" unicode="&#x10e;" horiz-adv-x="1638" 
d="M524 0q-58 0 -105 5.5t-81.5 15t-60 26t-42 34t-25.5 44.5t-13 51t-2 60t5.5 65.5t10.5 73.5l125 784q4 26 5 43t2 48t-5.5 51t-17.5 41.5t-34.5 32.5t-56.5 11l9 48h669q111 0 207 -16t168.5 -45.5t131.5 -71t98 -92t67.5 -108.5t38.5 -121t12.5 -129.5t-10.5 -133.5
q-17 -111 -60.5 -212.5t-121 -194.5t-182 -161t-253 -108.5t-323.5 -40.5h-156zM678 66q110 3 202.5 42.5t155.5 101t111.5 147.5t76.5 174t44 188q13 83 15 158.5t-8 150.5t-39 135t-75 107t-119 72.5t-168 25.5h-227q36 -34 38.5 -108.5t-13.5 -147.5l-142 -891
q-13 -83 12 -119t105 -36h31zM829 1608l-118 389h22l215 -291l305 291h23l-240 -389q-42 -67 -112 -71t-95 71z" />
    <glyph glyph-name="dcaron" unicode="&#x10f;" horiz-adv-x="1329" 
d="M551 -20q-94 0 -173 34.5t-136 99.5t-80.5 168t-3.5 230q20 128 76 231t134 167.5t168.5 99t184.5 34.5q103 0 185 -41t126 -116l53 346q4 24 5.5 43t0.5 45.5t-8.5 46.5t-21 38t-38.5 28t-60 10l6 49h157q160 0 230.5 -42t70.5 -120t-16 -188l-180 -1143h-324l25 160
q-67 -84 -169 -132t-212 -48zM682 78q81 0 153 67.5t107 176.5l59 383q0 110 -50 174.5t-132 64.5t-149 -64t-106 -159t-56 -209q-16 -83 -12.5 -161t21 -139t60.5 -97.5t105 -36.5zM1151 1632l-119 389h23l215 -290l305 290h22l-239 -389q-42 -67 -112 -71t-95 71z" />
    <glyph glyph-name="Dcroat" unicode="&#x110;" horiz-adv-x="1638" 
d="M524 0q-58 0 -105 5.5t-81.5 15t-60 26t-42 34t-25.5 44.5t-13 51t-2 60t5.5 65.5t10.5 73.5l49 311h-133l10 70h133l66 403q4 26 5 43t2 48t-5.5 51t-17.5 41.5t-34.5 32.5t-56.5 11l9 48h669q99 0 185.5 -13t155 -36.5t125.5 -57t99 -74.5t73 -89.5t50 -101.5
t27.5 -110.5t8 -115.5t-10.5 -119q-17 -111 -60.5 -212.5t-121 -194.5t-182 -161t-253 -108.5t-323.5 -40.5h-156zM670 66q112 3 205 42.5t157 101t113 147.5t77 174.5t44 187.5q13 83 14.5 158.5t-9 150.5t-40 135t-75.5 107t-119.5 72.5t-168.5 25.5h-221
q36 -34 38.5 -108.5t-13.5 -147.5l-58 -356h152l-10 -70h-152l-74 -465q-13 -83 12 -119t105 -36h23z" />
    <glyph glyph-name="dcroat" unicode="&#x111;" horiz-adv-x="1329" 
d="M551 -20q-94 0 -173 34.5t-136 99.5t-80.5 168t-3.5 230q20 128 76 231t134 167.5t168.5 99t184.5 34.5q103 0 185 -41t126 -116l43 278h-84l10 68h84q4 24 5.5 43t0.5 45.5t-8.5 46.5t-21 38t-38.5 28t-60 10l6 49h157q104 0 169 -17.5t93.5 -51t36.5 -82t-2 -109.5h119
l-10 -68h-117l-4 -22l-180 -1143h-324l25 160q-67 -84 -169 -132t-212 -48zM682 78q81 0 153 67.5t107 176.5l59 383q0 110 -50 174.5t-132 64.5t-149 -64t-106 -159t-56 -209q-16 -83 -12.5 -161t21 -139t60.5 -97.5t105 -36.5z" />
    <glyph glyph-name="Emacron" unicode="&#x112;" horiz-adv-x="1386" 
d="M524 0q-75 0 -130.5 9.5t-93 24.5t-60 42.5t-33.5 54.5t-12 71.5t3 81.5t13 95l127 797q32 210 -127 210l8 48h825q187 0 216 -3q61 -7 82 -42q16 -26 36 -131q9 -45 15 -72h-72q-5 21 -13 56q-21 95 -49.5 110.5t-180.5 15.5h-42h-395q28 -28 36.5 -76t5 -89t-14.5 -116
l-50 -313h576l-10 -65h-576l-78 -488q-12 -82 17.5 -118.5t116.5 -36.5h217q164 0 199 6q51 9 82 50q14 18 76 127q18 31 34 58h69q-20 -36 -51 -95q-86 -160 -131.5 -186.5t-233.5 -25.5h-65h-336zM600 1587l14 90h709l-14 -90h-709z" />
    <glyph glyph-name="emacron" unicode="&#x113;" horiz-adv-x="1275" 
d="M674 -20q-270 0 -412.5 142t-103.5 390q26 167 122 289.5t238 183.5t311 59q153 2 263 -47.5t165.5 -156.5t34.5 -260h-766q-9 -35 -12 -68q-33 -208 39 -326t248 -125q108 -5 208.5 44.5t147.5 130.5h68q-84 -123 -225.5 -189.5t-325.5 -66.5zM971 643q18 150 -19.5 245
t-132.5 95q-101 0 -175 -106t-114 -273zM504 1186l14 90h709l-15 -90h-708z" />
    <glyph glyph-name="Edotaccent" unicode="&#x116;" horiz-adv-x="1386" 
d="M524 0q-75 0 -130.5 9.5t-93 24.5t-60 42.5t-33.5 54.5t-12 71.5t3 81.5t13 95l127 797q32 210 -127 210l8 48h825q187 0 216 -3q61 -7 82 -42q16 -26 36 -131q9 -45 15 -72h-72q-5 21 -13 56q-21 95 -49.5 110.5t-180.5 15.5h-42h-395q28 -28 36.5 -76t5 -89t-14.5 -116
l-50 -313h576l-10 -65h-576l-78 -488q-12 -82 17.5 -118.5t116.5 -36.5h217q164 0 199 6q51 9 82 50q14 18 76 127q18 31 34 58h69q-20 -36 -51 -95q-86 -160 -131.5 -186.5t-233.5 -25.5h-65h-336zM938 1534q-60 0 -95 39.5t-26 99.5q10 60 57 98.5t107 38.5q59 0 93 -39
t24 -98q-9 -60 -55 -99.5t-105 -39.5z" />
    <glyph glyph-name="edotaccent" unicode="&#x117;" horiz-adv-x="1275" 
d="M674 -20q-270 0 -412.5 142t-103.5 390q26 167 122 289.5t238 183.5t311 59q153 2 263 -47.5t165.5 -156.5t34.5 -260h-766q-9 -35 -12 -68q-33 -208 39 -326t248 -125q108 -5 208.5 44.5t147.5 130.5h68q-84 -123 -225.5 -189.5t-325.5 -66.5zM971 643q18 150 -19.5 245
t-132.5 95q-101 0 -175 -106t-114 -273zM860 1147q-60 0 -95 39.5t-26 99.5q10 60 57 98.5t107 38.5q59 0 93 -39t24 -98q-9 -60 -55 -99.5t-105 -39.5z" />
    <glyph glyph-name="Eogonek" unicode="&#x118;" horiz-adv-x="1386" 
d="M524 0q-75 0 -130.5 9.5t-93 24.5t-60 42.5t-33.5 54.5t-12 71.5t3 81.5t13 95l127 797q32 210 -127 210l8 48h825q187 0 216 -3q61 -7 82 -42q16 -26 36 -131q9 -45 15 -72h-72q-5 21 -13 56q-21 95 -49.5 110.5t-180.5 15.5h-42h-395q28 -28 36.5 -76t5 -89t-14.5 -116
l-50 -313h576l-10 -65h-576l-78 -488q-12 -82 17.5 -118.5t116.5 -36.5h217q164 0 199 6q51 9 82 50q14 18 76 127q18 31 34 58h69q-20 -36 -51 -95q-86 -160 -131.5 -186.5t-233.5 -25.5h-65h-110q-104 -134 -74 -247q19 -76 88 -105q79 -34 160 17q4 2 8 5l8 -14
q-117 -113 -250 -133q-111 -17 -166 41q-66 70 -5 205q47 105 167 231h-162z" />
    <glyph glyph-name="eogonek" unicode="&#x119;" horiz-adv-x="1275" 
d="M971 643q18 150 -19.5 245t-132.5 95q-101 0 -175 -106t-114 -273zM887 -387q-118 -114 -250 -133q-112 -17 -167 42q-66 71 -5 206q52 115 188 252q-261 6 -397.5 147.5t-97.5 384.5q26 167 122 289.5t238 183.5t311 59q153 2 263 -47.5t165.5 -156.5t34.5 -260h-766
q-9 -35 -12 -68q-33 -208 39 -326t248 -125q108 -5 208.5 44.5t147.5 130.5h68q-80 -116 -210.5 -182.5t-299.5 -73.5q-118 -138 -96 -257q14 -81 84 -115q76 -36 157 8q8 5 17 11z" />
    <glyph glyph-name="Ecaron" unicode="&#x11a;" horiz-adv-x="1386" 
d="M524 0q-75 0 -130.5 9.5t-93 24.5t-60 42.5t-33.5 54.5t-12 71.5t3 81.5t13 95l127 797q32 210 -127 210l8 48h825q187 0 216 -3q61 -7 82 -42q16 -26 36 -131q9 -45 15 -72h-72q-5 21 -13 56q-21 95 -49.5 110.5t-180.5 15.5h-42h-395q28 -28 36.5 -76t5 -89t-14.5 -116
l-50 -313h576l-10 -65h-576l-78 -488q-12 -82 17.5 -118.5t116.5 -36.5h217q164 0 199 6q51 9 82 50q14 18 76 127q18 31 34 58h69q-20 -36 -51 -95q-86 -160 -131.5 -186.5t-233.5 -25.5h-65h-336zM858 1608l-119 389h23l215 -291l305 291h23l-240 -389q-42 -67 -112 -71
t-95 71z" />
    <glyph glyph-name="ecaron" unicode="&#x11b;" horiz-adv-x="1275" 
d="M674 -20q-270 0 -412.5 142t-103.5 390q26 167 122 289.5t238 183.5t311 59q153 2 263 -47.5t165.5 -156.5t34.5 -260h-766q-9 -35 -12 -68q-33 -208 39 -326t248 -125q108 -5 208.5 44.5t147.5 130.5h68q-84 -123 -225.5 -189.5t-325.5 -66.5zM971 643q18 150 -19.5 245
t-132.5 95q-101 0 -175 -106t-114 -273zM756 1221l-119 389h22l215 -291l306 291h22l-239 -389q-42 -67 -112 -71t-95 71z" />
    <glyph glyph-name="Gbreve" unicode="&#x11e;" horiz-adv-x="1712" 
d="M901 -18q-122 1 -230.5 31.5t-196.5 90.5t-147 148.5t-81.5 205.5t0.5 261q22 141 82.5 261t146.5 206t193.5 147.5t225.5 91.5t241 31q101 1 187.5 -17t161 -57t128.5 -105t82 -157h-66q-22 67 -69 120t-106 83.5t-121.5 45.5t-121.5 13q-236 -5 -398.5 -179.5
t-211.5 -483.5q-49 -310 58 -488.5t341 -181.5q136 -3 254 53l66 414q32 211 -125 211l8 47h156q161 0 232.5 -42t73 -119.5t-14.5 -186.5l-17 -102q-74 -114 -193 -193t-255 -114.5t-283 -34.5zM1182 1561q-68 0 -121.5 19t-94.5 59t-58 111.5t-5 168.5h29
q-4 -60 37 -101.5t103 -58t138 -16.5t143.5 16.5t121 58t67.5 101.5h29q-18 -97 -56.5 -168.5t-91.5 -111.5t-113 -59t-128 -19z" />
    <glyph glyph-name="gbreve" unicode="&#x11f;" horiz-adv-x="1292" 
d="M539 -565q-269 0 -401 79.5t-107 233.5q14 95 102 159t223 95h76q-129 -82 -153 -238q-20 -126 47 -205t221 -79q137 0 242 73t126 203q10 63 -7.5 111t-54 77.5t-86.5 52t-104 38t-106 31t-93.5 35.5t-67 47t-25 70t31.5 101q-115 46 -166 133.5t-32 209.5
q29 178 186 280t402 102h36q56 133 166.5 224.5t241.5 91.5q88 0 128 -42t30 -101q-8 -54 -52 -95t-106 -41q-55 0 -87 39t-26 88q13 75 107 119q-109 -1 -204.5 -82.5t-137.5 -204.5q199 -20 298 -119.5t73 -258.5q-28 -180 -185 -283t-405 -105q-57 0 -99.5 4.5t-63 10
t-56.5 16.5q-22 -43 -13.5 -76.5t40 -51.5t81 -33.5t109.5 -23t124 -20.5t126.5 -25.5t116.5 -37.5t92.5 -57t56 -85t6.5 -120q-25 -154 -198.5 -247t-452.5 -93zM678 322q100 0 163 95t87 245q13 93 7 167.5t-44.5 121t-106.5 46.5q-67 0 -119.5 -47t-83.5 -120t-46 -168
q-13 -94 -7 -169.5t44.5 -123t105.5 -47.5zM844 1395q-68 0 -121.5 19t-94.5 59t-57.5 111.5t-3.5 168.5h29q-5 -60 35.5 -101.5t102.5 -58t138 -16.5t143.5 16.5t121.5 58t69 101.5h29q-18 -97 -57.5 -168.5t-92.5 -111.5t-113 -59t-128 -19z" />
    <glyph glyph-name="Gdotaccent" unicode="&#x120;" horiz-adv-x="1712" 
d="M901 -18q-122 1 -230.5 31.5t-196.5 90.5t-147 148.5t-81.5 205.5t0.5 261q22 141 82.5 261t146.5 206t193.5 147.5t225.5 91.5t241 31q101 1 187.5 -17t161 -57t128.5 -105t82 -157h-66q-22 67 -69 120t-106 83.5t-121.5 45.5t-121.5 13q-236 -5 -398.5 -179.5
t-211.5 -483.5q-49 -310 58 -488.5t341 -181.5q136 -3 254 53l66 414q32 211 -125 211l8 47h156q161 0 232.5 -42t73 -119.5t-14.5 -186.5l-17 -102q-74 -114 -193 -193t-255 -114.5t-283 -34.5zM1169 1528q-60 0 -93.5 39.5t-24.5 99.5q9 59 55.5 98t107.5 39
q59 0 92.5 -38.5t24.5 -98.5q-9 -59 -56 -99t-106 -40z" />
    <glyph glyph-name="gdotaccent" unicode="&#x121;" horiz-adv-x="1292" 
d="M539 -565q-269 0 -401 79.5t-107 233.5q14 95 102 159t223 95h76q-129 -82 -153 -238q-20 -126 47 -205t221 -79q137 0 242 73t126 203q10 63 -7.5 111t-54 77.5t-86.5 52t-104 38t-106 31t-93.5 35.5t-67 47t-25 70t31.5 101q-115 46 -166 133.5t-32 209.5
q29 178 186 280t402 102h36q56 133 166.5 224.5t241.5 91.5q88 0 128 -42t30 -101q-8 -54 -52 -95t-106 -41q-55 0 -87 39t-26 88q13 75 107 119q-109 -1 -204.5 -82.5t-137.5 -204.5q199 -20 298 -119.5t73 -258.5q-28 -180 -185 -283t-405 -105q-57 0 -99.5 4.5t-63 10
t-56.5 16.5q-22 -43 -13.5 -76.5t40 -51.5t81 -33.5t109.5 -23t124 -20.5t126.5 -25.5t116.5 -37.5t92.5 -57t56 -85t6.5 -120q-25 -154 -198.5 -247t-452.5 -93zM678 322q100 0 163 95t87 245q13 93 7 167.5t-44.5 121t-106.5 46.5q-67 0 -119.5 -47t-83.5 -120t-46 -168
q-13 -94 -7 -169.5t44.5 -123t105.5 -47.5zM870 1413q-60 0 -93.5 39.5t-24.5 99.5t56 99t107 39q59 0 92.5 -39t24.5 -99q-9 -59 -56 -99t-106 -40z" />
    <glyph glyph-name="uni0122" unicode="&#x122;" horiz-adv-x="1712" 
d="M901 -18q-122 1 -230.5 31.5t-196.5 90.5t-147 148.5t-81.5 205.5t0.5 261q22 141 82.5 261t146.5 206t193.5 147.5t225.5 91.5t241 31q101 1 187.5 -17t161 -57t128.5 -105t82 -157h-66q-22 67 -69 120t-106 83.5t-121.5 45.5t-121.5 13q-236 -5 -398.5 -179.5
t-211.5 -483.5q-49 -310 58 -488.5t341 -181.5q136 -3 254 53l66 414q32 211 -125 211l8 47h156q161 0 232.5 -42t73 -119.5t-14.5 -186.5l-17 -102q-74 -114 -193 -193t-255 -114.5t-283 -34.5zM811 -586q63 78 76 158q4 26 -7.5 44t-29.5 29.5t-35.5 24.5t-28 39t-4.5 64
q10 57 54 93t94 36q60 0 88.5 -41.5t19.5 -106.5q-14 -88 -78 -194.5t-124 -157.5z" />
    <glyph glyph-name="uni0123" unicode="&#x123;" horiz-adv-x="1292" 
d="M539 -565q-269 0 -401 79.5t-107 233.5q14 95 102 159t223 95h76q-129 -82 -153 -238q-20 -126 47 -205t221 -79q137 0 242 73t126 203q10 63 -7.5 111t-54 77.5t-86.5 52t-104 38t-106 31t-93.5 35.5t-67 47t-25 70t31.5 101q-115 46 -166 133.5t-32 209.5
q29 178 186 280t402 102h36q56 133 166.5 224.5t241.5 91.5q88 0 128 -42t30 -101q-8 -54 -52 -95t-106 -41q-55 0 -87 39t-26 88q13 75 107 119q-109 -1 -204.5 -82.5t-137.5 -204.5q199 -20 298 -119.5t73 -258.5q-28 -180 -185 -283t-405 -105q-57 0 -99.5 4.5t-63 10
t-56.5 16.5q-22 -43 -13.5 -76.5t40 -51.5t81 -33.5t109.5 -23t124 -20.5t126.5 -25.5t116.5 -37.5t92.5 -57t56 -85t6.5 -120q-25 -154 -198.5 -247t-452.5 -93zM678 322q100 0 163 95t87 245q13 93 7 167.5t-44.5 121t-106.5 46.5q-67 0 -119.5 -47t-83.5 -120t-46 -168
q-13 -94 -7 -169.5t44.5 -123t105.5 -47.5zM977 1876q-63 -78 -76 -158q-4 -26 7 -44t29 -29t36 -24.5t27.5 -39t3.5 -63.5q-9 -57 -53.5 -93t-94.5 -36q-60 0 -88.5 41t-17.5 106q13 88 77 194t125 158z" />
    <glyph glyph-name="Hbar" unicode="&#x126;" horiz-adv-x="1533" 
d="M338 1176q32 210 -127 210l8 48h160q90 0 151 -15.5t94 -40.5t46.5 -67.5t12.5 -86t-11 -106.5l-13 -84h543l64 400h346l-228 -1434h-346l113 713h-543l-112 -713h-344zM618 780h543l31 189h-543z" />
    <glyph glyph-name="hbar" unicode="&#x127;" horiz-adv-x="1372" 
d="M379 1233q32 211 -125 211l6 49h158q113 0 180 -20.5t93 -59.5t30 -95.5t-10 -127.5h90l-10 -68h-91l-36 -225q184 150 405 150q78 0 140.5 -20.5t107.5 -62.5t62.5 -112.5t2.5 -163.5l-108 -688h-338l102 647q12 84 13.5 149.5t-31 105.5t-102.5 40q-64 0 -137 -33
t-130 -90l-129 -819h-338l178 1122h-90l11 68h90z" />
    <glyph glyph-name="Imacron" unicode="&#x12a;" horiz-adv-x="647" 
d="M338 1176q32 210 -127 210l8 48h160q160 0 231.5 -42.5t72.5 -120t-15 -186.5l-172 -1085h-344zM240 1556l14 91h659l-14 -91h-659z" />
    <glyph glyph-name="imacron" unicode="&#x12b;" horiz-adv-x="620" 
d="M305 766q32 211 -125 211l6 47h158q55 0 98.5 -5t76 -13t55.5 -24t38 -30.5t22.5 -41t10.5 -46.5t0.5 -56t-6 -61.5t-10.5 -70.5l-107 -676h-338zM213 1165l14 90h504l-14 -90h-504z" />
    <glyph glyph-name="Iogonek" unicode="&#x12e;" horiz-adv-x="647" 
d="M338 1176q32 210 -127 210l8 48h160q160 0 231.5 -42.5t72.5 -120t-15 -186.5l-172 -1085h-136q-104 -134 -74 -247q20 -76 89 -105q79 -34 160 17q4 2 8 5l8 -14q-117 -113 -250 -133q-111 -17 -166 41q-66 70 -5 205q47 105 167 231h-145z" />
    <glyph glyph-name="iogonek" unicode="&#x12f;" horiz-adv-x="618" 
d="M305 766q32 211 -125 211l6 47h158q55 0 98.5 -5t76 -13t55.5 -24t38 -30.5t22.5 -41t10.5 -46.5t0.5 -56t-6 -61.5t-10.5 -70.5l-107 -676h-127q-104 -134 -74 -247q20 -76 89 -105q79 -34 160 17q4 2 8 5l8 -14q-117 -113 -250 -133q-111 -17 -166 41q-66 70 -5 205
q47 105 167 231h-148zM494 1141q-77 0 -122 53t-34 129q12 77 73.5 129.5t139.5 52.5q75 0 120.5 -53t33.5 -129q-10 -75 -73 -128.5t-138 -53.5z" />
    <glyph glyph-name="Idotaccent" unicode="&#x130;" horiz-adv-x="647" 
d="M338 1176q32 210 -127 210l8 48h160q160 0 231.5 -42.5t72.5 -120t-15 -186.5l-172 -1085h-344zM561 1532q-74 0 -115.5 49.5t-29.5 122.5q10 72 68 120t132 48q72 0 113 -48t31 -120q-12 -73 -69.5 -122.5t-129.5 -49.5z" />
    <glyph glyph-name="dotlessi" unicode="&#x131;" horiz-adv-x="618" 
d="M305 766q32 211 -125 211l6 47h158q55 0 98.5 -5t76 -13t55.5 -24t38 -30.5t22.5 -41t10.5 -46.5t0.5 -56t-6 -61.5t-10.5 -70.5l-107 -676h-338z" />
    <glyph glyph-name="uni0136" unicode="&#x136;" horiz-adv-x="1572" 
d="M1497 -8q-195 -24 -288 -18q-153 9 -205 79q-32 40 -41.5 116.5t-4.5 151t-2 156.5q-3 32 -5.5 50.5t-11 46.5t-22 44.5t-38 36.5t-58.5 31t-84.5 19.5t-115.5 9.5l899 719h94l-778 -619q122 13 213.5 -6t144.5 -63.5t79.5 -102t31.5 -129.5q3 -58 3.5 -148t5 -144.5
t19.5 -98.5q19 -54 55.5 -72t116.5 -12zM338 1176q32 210 -127 210l8 48h160q160 0 231.5 -42.5t72.5 -120t-15 -186.5l-172 -1085h-344zM608 -580q28 32 49 76t27 82q4 26 -7 44t-29 29.5t-35.5 24.5t-27 39t-3.5 64q9 57 53 93t94 36q60 0 89 -42t18 -106
q-13 -88 -77.5 -194t-125.5 -158z" />
    <glyph glyph-name="uni0137" unicode="&#x137;" horiz-adv-x="1372" 
d="M1110 -20q-186 0 -242 100q-20 31 -33 92.5t-23 120t-28 114.5t-59 90.5t-104 34.5l722 492h109l-623 -426q85 7 146 -11.5t93.5 -51.5t55.5 -85t32.5 -100t24 -110.5t31.5 -102.5q18 -52 47 -73t74 -23l-6 -43q-14 -1 -62 -6.5t-84.5 -8.5t-70.5 -3zM379 1233
q32 211 -125 211l6 49h158q50 0 90 -3.5t71 -12.5t54.5 -18t39 -26.5t26 -32t14.5 -40t6 -44.5t-1 -52.5t-6.5 -57t-9.5 -63.5l-180 -1143h-338zM578 -600q62 76 75 158q4 26 -7 44t-29 29t-36 24.5t-28 39t-4 63.5q9 57 53 93t94 36q60 0 89 -41t20 -106q-14 -88 -78 -194
t-125 -158z" />
    <glyph glyph-name="Lacute" unicode="&#x139;" horiz-adv-x="1304" 
d="M524 0q-75 0 -130.5 9.5t-93 24.5t-60 42.5t-33.5 54.5t-12 71.5t3 81.5t13 95l127 797q32 210 -127 210l8 48h160q160 0 231.5 -42.5t72.5 -120t-15 -186.5l-138 -864q-12 -82 17.5 -118.5t116.5 -36.5h213h70t52.5 3.5t40.5 6t30.5 14t25.5 19.5t22.5 31t25 40.5
t30.5 56.5t40 70h70q-20 -37 -53 -98q-84 -158 -129.5 -184t-233.5 -25h-65h-279zM606 1929q37 69 105 71q53 1 82 -37q34 -45 -9 -99q-8 -11 -20 -21l-342 -303h-23z" />
    <glyph glyph-name="lacute" unicode="&#x13a;" horiz-adv-x="821" 
d="M498 -20q-151 2 -220 89.5t-42 258.5l143 905q32 211 -125 211l6 49h158q50 0 90 -3.5t71 -12.5t54.5 -18t39 -26.5t26 -32t14.5 -40t6 -44.5t-1 -52.5t-6.5 -57t-9.5 -63.5l-141 -899q-7 -52 -8.5 -91.5t21 -64t71.5 -27.5q31 -3 81 13t87 41l-8 -49q-115 -86 -307 -86z
M575 1956q37 69 105 71q53 1 82 -37q34 -45 -9 -99q-8 -11 -20 -21l-342 -303h-22z" />
    <glyph glyph-name="uni013B" unicode="&#x13b;" horiz-adv-x="1304" 
d="M524 0q-75 0 -130.5 9.5t-93 24.5t-60 42.5t-33.5 54.5t-12 71.5t3 81.5t13 95l127 797q32 210 -127 210l8 48h160q160 0 231.5 -42.5t72.5 -120t-15 -186.5l-138 -864q-12 -82 17.5 -118.5t116.5 -36.5h213h70t52.5 3.5t40.5 6t30.5 14t25.5 19.5t22.5 31t25 40.5
t30.5 56.5t40 70h70q-20 -37 -53 -98q-84 -158 -129.5 -184t-233.5 -25h-65h-279zM530 -584q63 78 76 158q4 26 -7 44t-29 29.5t-35.5 24.5t-27 39t-3.5 64q9 57 53 93t94 36q60 0 89 -42t18 -106q-14 -88 -78 -194t-125 -158z" />
    <glyph glyph-name="uni013C" unicode="&#x13c;" horiz-adv-x="821" 
d="M498 -20q-151 2 -220 89.5t-42 258.5l143 905q32 211 -125 211l6 49h158q50 0 90 -3.5t71 -12.5t54.5 -18t39 -26.5t26 -32t14.5 -40t6 -44.5t-1 -52.5t-6.5 -57t-9.5 -63.5l-141 -899q-7 -52 -8.5 -91.5t21 -64t71.5 -27.5q31 -3 81 13t87 41l-8 -49q-115 -86 -307 -86z
M289 -594q63 78 76 158q4 26 -7 44t-29 29t-36 24.5t-27.5 39t-3.5 63.5q9 57 53.5 93.5t94.5 36.5q60 0 88.5 -41.5t17.5 -106.5q-13 -88 -77.5 -194t-125.5 -158z" />
    <glyph glyph-name="Lcaron" unicode="&#x13d;" horiz-adv-x="1304" 
d="M524 0q-75 0 -130.5 9.5t-93 24.5t-60 42.5t-33.5 54.5t-12 71.5t3 81.5t13 95l127 797q32 210 -127 210l8 48h160q160 0 231.5 -42.5t72.5 -120t-15 -186.5l-138 -864q-12 -82 17.5 -118.5t116.5 -36.5h213h70t52.5 3.5t40.5 6t30.5 14t25.5 19.5t22.5 31t25 40.5
t30.5 56.5t40 70h70q-20 -37 -53 -98q-84 -158 -129.5 -184t-233.5 -25h-65h-279zM463 1610l-117 389h23l213 -291l307 291h22l-241 -389q-42 -67 -112 -71t-95 71z" />
    <glyph glyph-name="lcaron" unicode="&#x13e;" horiz-adv-x="821" 
d="M498 -20q-151 2 -220 89.5t-42 258.5l143 905q32 211 -125 211l6 49h158q50 0 90 -3.5t71 -12.5t54.5 -18t39 -26.5t26 -32t14.5 -40t6 -44.5t-1 -52.5t-6.5 -57t-9.5 -63.5l-141 -899q-7 -52 -8.5 -91.5t21 -64t71.5 -27.5q31 -3 81 13t87 41l-8 -49q-115 -86 -307 -86z
M453 1638l-119 390h22l213 -291l308 291h22l-240 -390q-43 -67 -112 -71t-94 71z" />
    <glyph glyph-name="Lslash" unicode="&#x141;" horiz-adv-x="1304" 
d="M59 418l183 147l96 611q32 210 -127 210l8 48h160q160 0 231.5 -42.5t72.5 -120t-15 -186.5l-33 -200l70 55h108l-192 -156l-91 -563q-12 -82 17.5 -118.5t116.5 -36.5h213h70t52.5 3.5t40.5 6t30.5 14t25.5 19.5t22.5 31t25 40.5t30.5 56.5t40 70h70q-20 -37 -53 -98
q-84 -158 -129.5 -184t-233.5 -25h-65h-279q-75 0 -130.5 9.5t-93 24.5t-60 42.5t-33.5 54.5t-12 71.5t3 81.5t13 95l14 86l-59 -47h-107z" />
    <glyph glyph-name="lslash" unicode="&#x142;" horiz-adv-x="821" 
d="M498 -20q-151 2 -220 89.5t-42 258.5l22 133l-70 -55l-38 49l122 98l107 680q32 211 -125 211l6 49h158q50 0 90 -3.5t71 -12.5t54.5 -18t39 -26.5t26 -32t14.5 -40t6 -44.5t-1 -52.5t-6.5 -57t-9.5 -63.5l-43 -277l76 62l37 -49l-127 -103l-84 -532q-7 -52 -8.5 -91.5
t21 -64t71.5 -27.5q31 -3 81 13t87 41l-8 -49q-115 -86 -307 -86z" />
    <glyph glyph-name="Nacute" unicode="&#x143;" horiz-adv-x="1456" 
d="M358 1305q-50 81 -147 81l8 48h172q155 0 207 -11q91 -19 143 -98q15 -23 29 -53l512 -1018l186 1180h66l-207 -1303q47 -82 146 -82l-9 -49h-172h-7q-54 0 -79 0.5t-65 3.5t-60 9t-48.5 17.5t-46 28.5t-37 43t-36.5 60l-507 1022l-189 -1184h-65zM1130 1927
q37 70 106 71q53 0 80 -37q34 -46 -10 -100q-9 -10 -20 -20l-340 -303h-22z" />
    <glyph glyph-name="nacute" unicode="&#x144;" horiz-adv-x="1372" 
d="M305 766q32 211 -125 211l6 47h158q152 0 219 -34.5t78 -112.5q109 92 212.5 131t215.5 39q78 0 140.5 -20.5t107.5 -62.5t62.5 -112.5t2.5 -163.5l-108 -688h-338l102 647q12 84 13.5 149.5t-31 105.5t-102.5 40q-64 0 -137 -33t-130 -90l-129 -819h-338zM938 1536
q36 70 105 71q53 0 81 -38q33 -47 -12 -101q-8 -9 -18 -18l-340 -303h-23z" />
    <glyph glyph-name="uni0145" unicode="&#x145;" horiz-adv-x="1456" 
d="M358 1305q-50 81 -147 81l8 48h172q155 0 207 -11q91 -19 143 -98q15 -23 29 -53l512 -1018l186 1180h66l-207 -1303q47 -82 146 -82l-9 -49h-172h-7q-54 0 -79 0.5t-65 3.5t-60 9t-48.5 17.5t-46 28.5t-37 43t-36.5 60l-507 1022l-189 -1184h-65zM582 -559q62 76 75 158
q4 26 -7 44t-29 29t-36 24.5t-28 39t-4 63.5q10 58 53.5 93.5t93.5 35.5q60 0 90 -41.5t19 -105.5q-14 -88 -78 -194t-125 -158z" />
    <glyph glyph-name="uni0146" unicode="&#x146;" horiz-adv-x="1372" 
d="M305 766q32 211 -125 211l6 47h158q152 0 219 -34.5t78 -112.5q109 92 212.5 131t215.5 39q78 0 140.5 -20.5t107.5 -62.5t62.5 -112.5t2.5 -163.5l-108 -688h-338l102 647q12 84 13.5 149.5t-31 105.5t-102.5 40q-64 0 -137 -33t-130 -90l-129 -819h-338zM586 -571
q27 34 48.5 77t27.5 80q4 26 -7.5 44t-29.5 29.5t-35.5 24.5t-27 39t-3.5 64q9 57 53.5 93t94.5 36q60 0 88.5 -41t17.5 -106q-14 -88 -78.5 -195t-124.5 -158z" />
    <glyph glyph-name="Ncaron" unicode="&#x147;" horiz-adv-x="1456" 
d="M358 1305q-50 81 -147 81l8 48h172q155 0 207 -11q91 -19 143 -98q15 -23 29 -53l512 -1018l186 1180h66l-207 -1303q47 -82 146 -82l-9 -49h-172h-7q-54 0 -79 0.5t-65 3.5t-60 9t-48.5 17.5t-46 28.5t-37 43t-36.5 60l-507 1022l-189 -1184h-65zM899 1610l-117 389h23
l213 -291l307 291h23l-242 -389q-42 -67 -112 -71t-95 71z" />
    <glyph glyph-name="ncaron" unicode="&#x148;" horiz-adv-x="1372" 
d="M305 766q32 211 -125 211l6 47h158q152 0 219 -34.5t78 -112.5q109 92 212.5 131t215.5 39q78 0 140.5 -20.5t107.5 -62.5t62.5 -112.5t2.5 -163.5l-108 -688h-338l102 647q12 84 13.5 149.5t-31 105.5t-102.5 40q-64 0 -137 -33t-130 -90l-129 -819h-338zM748 1219
l-119 389h22l215 -291l305 291h23l-240 -389q-42 -67 -111.5 -71t-94.5 71z" />
    <glyph glyph-name="Eng" unicode="&#x14a;" horiz-adv-x="1456" 
d="M1001 -393q37 0 67.5 8.5t51.5 21t37.5 34t25.5 39.5t16.5 46.5t10.5 45t7 44.5l18 109l-829 1231l-189 -1186h-65l202 1280q-28 52 -58.5 78.5t-84.5 27.5l8 48h223q108 0 163 -11t99.5 -46t96.5 -113l518 -772l149 942h66l-252 -1588q-4 -22 -7 -38t-12.5 -45t-22 -50
t-34.5 -46t-49.5 -41t-69 -27t-90.5 -11z" />
    <glyph glyph-name="eng" unicode="&#x14b;" horiz-adv-x="1372" 
d="M524 -569q98 10 168.5 43t113.5 89.5t67 122t38 154.5l127 807q12 84 13.5 149.5t-31 105.5t-102.5 40q-64 0 -137 -33t-130 -90l-129 -819h-338l121 766q32 211 -125 211l6 47h158q151 0 218 -34t79 -111q199 168 428 168q78 0 140.5 -20.5t107.5 -62.5t62.5 -112.5
t2.5 -163.5l-122 -774q-20 -128 -87 -227t-167.5 -159t-223 -90.5t-262.5 -31.5z" />
    <glyph glyph-name="Omacron" unicode="&#x14c;" horiz-adv-x="1888" 
d="M905 -20q-230 0 -392 93t-232 261t-35 385q34 217 157 384t314.5 259t421.5 92q232 0 395 -92t233.5 -259t36.5 -384q-35 -217 -158.5 -385t-316 -261t-424.5 -93zM922 45q214 0 346 174t184 500q51 325 -26 497.5t-291 172.5q-217 0 -350.5 -172.5t-184.5 -497.5
q-52 -325 26.5 -499.5t295.5 -174.5zM829 1581l15 90h708l-14 -90h-709z" />
    <glyph glyph-name="omacron" unicode="&#x14d;" horiz-adv-x="1359" 
d="M676 -20q-277 0 -417.5 142t-100.5 390q38 248 224 390t464 142q277 0 418.5 -141.5t103.5 -390.5q-39 -247 -227 -389.5t-465 -142.5zM686 45q127 0 210 130.5t116 336.5q17 95 14.5 180t-20.5 148.5t-61.5 101t-108.5 37.5q-85 0 -153 -65t-108.5 -167t-60.5 -235
q-17 -95 -15 -180t19 -148.5t60 -101t108 -37.5zM522 1167l15 90h708l-14 -90h-709z" />
    <glyph glyph-name="Ohungarumlaut" unicode="&#x150;" horiz-adv-x="1888" 
d="M905 -20q-230 0 -392 93t-232 261t-35 385q34 217 157 384t314.5 259t421.5 92q232 0 395 -92t233.5 -259t36.5 -384q-35 -217 -158.5 -385t-316 -261t-424.5 -93zM922 45q214 0 346 174t184 500q51 325 -26 497.5t-291 172.5q-217 0 -350.5 -172.5t-184.5 -497.5
q-52 -325 26.5 -499.5t295.5 -174.5zM1509 1929q37 70 106 72q55 1 83 -38q35 -46 -9 -100q-9 -10 -20 -20l-342 -303h-20zM1198 1929q37 70 105 72q54 1 83 -38q34 -46 -10 -100q-9 -10 -20 -20l-340 -303h-23z" />
    <glyph glyph-name="ohungarumlaut" unicode="&#x151;" horiz-adv-x="1359" 
d="M676 -20q-277 0 -417.5 142t-100.5 390q38 248 224 390t464 142q277 0 418.5 -141.5t103.5 -390.5q-39 -247 -227 -389.5t-465 -142.5zM686 45q127 0 210 130.5t116 336.5q17 95 14.5 180t-20.5 148.5t-61.5 101t-108.5 37.5q-85 0 -153 -65t-108.5 -167t-60.5 -235
q-17 -95 -15 -180t19 -148.5t60 -101t108 -37.5zM1196 1538q37 70 105 72q54 1 83 -38q34 -46 -10 -100q-9 -10 -20 -20l-340 -303h-21zM885 1538q37 70 104 72q53 1 81 -36q34 -46 -8 -100q-10 -11 -22 -22l-338 -303h-22z" />
    <glyph glyph-name="OE" unicode="&#x152;" horiz-adv-x="2529" 
d="M940 -20q-239 0 -409 93t-245 261t-40 385q34 217 162 384t327.5 259t438.5 92q172 0 335 -92l13 72h665q188 0 217 -3q60 -8 81 -43q16 -26 36 -130q8 -45 14 -72h-71q-5 21 -13 56q-21 95 -49.5 110.5t-178.5 15.5h-42h-323l-95 -594h576l-10 -65h-576l-78 -488
q-12 -82 16.5 -118.5t114.5 -36.5h217q165 0 200 6q52 10 84 51q15 19 78 131q16 28 30 53h69q-19 -35 -51 -95q-85 -160 -130.5 -186.5t-234.5 -25.5h-65h-336q-132 0 -204.5 24t-98.5 76q-227 -120 -424 -120zM956 45q226 0 383 209q0 12 15 125l129 815q-88 195 -314 195
q-219 0 -369.5 -176.5t-199.5 -493.5q-51 -318 43.5 -496t312.5 -178z" />
    <glyph glyph-name="oe" unicode="&#x153;" horiz-adv-x="2062" 
d="M676 -20q-277 0 -417.5 142t-100.5 390q38 248 224 390t464 142q239 0 375 -106q168 109 395 106q153 2 263 -47.5t165.5 -156.5t34.5 -260h-766q-11 -41 -13 -68q-33 -208 39.5 -326t249.5 -125q107 -5 207.5 44.5t147.5 130.5h67q-84 -123 -225 -189.5t-324 -66.5
q-238 0 -372 110q-176 -110 -414 -110zM686 45q174 0 264 258q-24 93 -6 209q18 119 74 211q-10 256 -182 256q-85 0 -153 -65t-108.5 -167t-60.5 -235q-17 -95 -15 -180t19 -148.5t60 -101t108 -37.5zM1757 643q18 150 -19 245t-132 95q-98 0 -171 -95.5t-112 -248.5z" />
    <glyph glyph-name="Racute" unicode="&#x154;" horiz-adv-x="1540" 
d="M1499 -8q-404 -54 -510 59q-41 43 -60 112t-23 139t-10.5 140t-33.5 131t-80 95h-180l-106 -668h-344l186 1176q32 210 -127 210l8 48h723q115 0 205 -13t152 -37t104.5 -58t62.5 -76.5t26 -92.5t-5 -106q-21 -135 -118 -232t-286 -133q68 -13 110 -60t59.5 -115t26 -137
t21 -146.5t33.5 -123.5q23 -42 63.5 -55.5t110.5 -7.5zM760 731q169 0 259.5 85t113.5 235q52 317 -273 317h-219q28 -28 36.5 -76t5 -89t-14.5 -116l-56 -356h148zM1079 1931q37 69 105 71q53 1 82 -37q34 -45 -9 -99q-8 -11 -20 -21l-342 -303h-23z" />
    <glyph glyph-name="racute" unicode="&#x155;" horiz-adv-x="999" 
d="M305 766q32 211 -125 211l6 47h158q151 0 218 -34t79 -111q168 173 463 165l-37 -229q-95 54 -125 67q-180 77 -291 -65l-129 -817h-338zM741 1532q37 69 105 71q53 1 82 -37q34 -45 -9 -99q-8 -11 -20 -21l-342 -303h-22z" />
    <glyph glyph-name="uni0156" unicode="&#x156;" horiz-adv-x="1540" 
d="M1499 -8q-404 -54 -510 59q-41 43 -60 112t-23 139t-10.5 140t-33.5 131t-80 95h-180l-106 -668h-344l186 1176q32 210 -127 210l8 48h723q115 0 205 -13t152 -37t104.5 -58t62.5 -76.5t26 -92.5t-5 -106q-21 -135 -118 -232t-286 -133q68 -13 110 -60t59.5 -115t26 -137
t21 -146.5t33.5 -123.5q23 -42 63.5 -55.5t110.5 -7.5zM760 731q169 0 259.5 85t113.5 235q52 317 -273 317h-219q28 -28 36.5 -76t5 -89t-14.5 -116l-56 -356h148zM580 -553q61 71 75 158q4 26 -7 44t-29 29t-35.5 24.5t-27 39t-3.5 63.5q9 57 53 93t94 36q60 0 89 -41
t20 -106q-14 -88 -79 -194t-126 -158z" />
    <glyph glyph-name="uni0157" unicode="&#x157;" horiz-adv-x="999" 
d="M305 766q32 211 -125 211l6 47h158q151 0 218 -34t79 -111q168 173 463 165l-37 -229q-95 54 -125 67q-180 77 -291 -65l-129 -817h-338zM213 -563q65 76 78 157q4 26 -7.5 44t-29.5 29.5t-35.5 24.5t-28 39t-4.5 64q9 57 53.5 93t94.5 36q60 0 88.5 -41t19.5 -106
q-14 -88 -78.5 -194t-125.5 -158z" />
    <glyph glyph-name="Rcaron" unicode="&#x158;" horiz-adv-x="1540" 
d="M1499 -8q-404 -54 -510 59q-41 43 -60 112t-23 139t-10.5 140t-33.5 131t-80 95h-180l-106 -668h-344l186 1176q32 210 -127 210l8 48h723q115 0 205 -13t152 -37t104.5 -58t62.5 -76.5t26 -92.5t-5 -106q-21 -135 -118 -232t-286 -133q68 -13 110 -60t59.5 -115t26 -137
t21 -146.5t33.5 -123.5q23 -42 63.5 -55.5t110.5 -7.5zM760 731q169 0 259.5 85t113.5 235q52 317 -273 317h-219q28 -28 36.5 -76t5 -89t-14.5 -116l-56 -356h148zM858 1608l-119 389h23l215 -291l305 291h23l-240 -389q-42 -67 -112 -71t-95 71z" />
    <glyph glyph-name="rcaron" unicode="&#x159;" horiz-adv-x="999" 
d="M305 766q32 211 -125 211l6 47h158q151 0 218 -34t79 -111q168 173 463 165l-37 -229q-95 54 -125 67q-180 77 -291 -65l-129 -817h-338zM618 1221l-118 389h22l215 -291l305 291h23l-240 -389q-42 -67 -112 -71t-95 71z" />
    <glyph glyph-name="Sacute" unicode="&#x15a;" horiz-adv-x="1411" 
d="M684 -20q-133 0 -242.5 36.5t-182 116t-77.5 189.5h64q5 -82 69.5 -144.5t158.5 -92.5t198 -30q137 0 238.5 60t119.5 174q10 61 -27.5 109.5t-104.5 83.5t-149 69t-163.5 75t-146 91.5t-97.5 128.5t-18 176q16 101 76 184.5t145 136.5t185 82t202 29q120 0 219 -35
t166.5 -112.5t75.5 -186.5h-66q-7 84 -64 145.5t-137 90t-170 28.5q-121 0 -211 -57.5t-108 -167.5q-8 -52 13 -95.5t64 -74.5t101 -59t122.5 -54t129 -54.5t121 -65.5t97.5 -81t59 -107.5t6 -139.5q-16 -105 -81 -192t-158.5 -142t-204 -84.5t-222.5 -29.5zM999 1921
q36 70 105 71q53 0 81 -38q33 -47 -12 -101q-8 -9 -18 -18l-342 -303h-22z" />
    <glyph glyph-name="sacute" unicode="&#x15b;" horiz-adv-x="1081" 
d="M516 -20q-145 0 -259 54t-151 154h66q31 -68 127 -106.5t209 -38.5q111 0 193.5 40.5t93.5 115.5q6 33 -12.5 60t-54.5 47t-83 37.5t-100 35.5t-105.5 38t-98.5 48t-79.5 62.5t-48.5 84.5t-6 111q16 100 94.5 175t185 110.5t222.5 35.5q135 0 237.5 -51.5t136.5 -152.5
h-65q-21 67 -103 104t-184 37q-103 0 -178.5 -38t-85.5 -109q-5 -33 14.5 -60t55 -46t83.5 -36.5t100.5 -35t105 -37t98 -47t78.5 -62t48 -84.5t5 -111q-17 -106 -101.5 -184t-198.5 -114.5t-239 -36.5zM842 1534q36 69 103 71q53 1 81 -37q34 -45 -10 -100q-8 -10 -19 -20
l-340 -303h-22z" />
    <glyph glyph-name="Scedilla" unicode="&#x15e;" horiz-adv-x="1411" 
d="M545 -442q49 0 83 29t44 71q7 50 -28.5 91t-115.5 54l142 177q-129 2 -235.5 39.5t-177 116t-75.5 186.5h64q5 -82 69.5 -144.5t158.5 -92.5t198 -30q137 0 238.5 60t119.5 174q10 61 -27.5 109.5t-104.5 83.5t-149 69t-163.5 75t-146 91.5t-97.5 128.5t-18 176
q16 101 76 184.5t145 136.5t185 82t202 29q120 0 219 -35t166.5 -112.5t75.5 -186.5h-66q-7 84 -64 145.5t-137 90t-170 28.5q-121 0 -211 -57.5t-108 -167.5q-8 -52 13 -95.5t64 -74.5t101 -59t122.5 -54t129 -54.5t121 -65.5t97.5 -81t59 -107.5t6 -139.5
q-16 -99 -74.5 -181.5t-143 -137.5t-185.5 -87.5t-206 -39.5l-92 -103q62 -1 105.5 -20.5t63.5 -49.5t27 -60.5t3 -61.5q-10 -59 -50.5 -104t-96 -65t-115.5 -22.5t-114 21t-85 67.5l23 27q69 -53 135 -53z" />
    <glyph glyph-name="scedilla" unicode="&#x15f;" horiz-adv-x="1081" 
d="M350 -451q49 0 84 29.5t43 71.5q8 49 -26.5 90.5t-116.5 54.5l149 185q-136 6 -239.5 60t-137.5 148h66q31 -68 127 -106.5t209 -38.5q111 0 193.5 40.5t93.5 115.5q6 33 -12.5 60t-54.5 47t-83 37.5t-100 35.5t-105.5 38t-98.5 48t-79.5 62.5t-48.5 84.5t-6 111
q16 100 94.5 175t185 110.5t222.5 35.5q135 0 237.5 -51.5t136.5 -152.5h-65q-21 67 -103 104t-184 37q-103 0 -178.5 -38t-85.5 -109q-5 -33 14.5 -60t55 -46t83.5 -36.5t100.5 -35t105 -37t98 -47t78.5 -62t48 -84.5t5 -111q-16 -101 -94 -177t-184 -114t-226 -44
l-96 -109q62 -1 106 -21t64 -50t26.5 -61t1.5 -61q-10 -59 -50 -104t-96 -64.5t-115.5 -22t-113.5 21t-85 67.5l22 27q71 -54 135 -54z" />
    <glyph glyph-name="Scaron" unicode="&#x160;" horiz-adv-x="1445" 
d="M684 -20q-133 0 -242.5 36.5t-182 116t-77.5 189.5h64q5 -82 69.5 -144.5t158.5 -92.5t198 -30q137 0 238.5 60t119.5 174q10 61 -27.5 109.5t-104.5 83.5t-149 69t-163.5 75t-146 91.5t-97.5 128.5t-18 176q16 101 76 184.5t145 136.5t185 82t202 29q120 0 219 -35
t166.5 -112.5t75.5 -186.5h-66q-7 84 -64 145.5t-137 90t-170 28.5q-121 0 -211 -57.5t-108 -167.5q-8 -52 13 -95.5t64 -74.5t101 -59t122.5 -54t129 -54.5t121 -65.5t97.5 -81t59 -107.5t6 -139.5q-16 -105 -81 -192t-158.5 -142t-204 -84.5t-222.5 -29.5zM899 1608
l-119 389h23l215 -291l305 291h23l-240 -389q-42 -67 -112 -71t-95 71z" />
    <glyph glyph-name="scaron" unicode="&#x161;" horiz-adv-x="1081" 
d="M516 -20q-145 0 -259 54t-151 154h66q31 -68 127 -106.5t209 -38.5q111 0 193.5 40.5t93.5 115.5q6 33 -12.5 60t-54.5 47t-83 37.5t-100 35.5t-105.5 38t-98.5 48t-79.5 62.5t-48.5 84.5t-6 111q16 100 94.5 175t185 110.5t222.5 35.5q135 0 237.5 -51.5t136.5 -152.5
h-65q-21 67 -103 104t-184 37q-103 0 -178.5 -38t-85.5 -109q-5 -33 14.5 -60t55 -46t83.5 -36.5t100.5 -35t105 -37t98 -47t78.5 -62t48 -84.5t5 -111q-17 -106 -101.5 -184t-198.5 -114.5t-239 -36.5zM627 1219l-119 389h22l215 -291l306 291h22l-239 -389
q-42 -67 -112 -71t-95 71z" />
    <glyph glyph-name="uni0162" unicode="&#x162;" horiz-adv-x="1458" 
d="M555 0l217 1368h-121h-41q-147 0 -179.5 -15t-82.5 -108q-20 -37 -33 -59h-71q13 25 35 69q67 135 107.5 157.5t218.5 21.5h65h573q188 0 217 -3q60 -8 81 -43q16 -26 36 -130q8 -45 14 -72h-71q-5 21 -13 57q-21 94 -49 109.5t-176 15.5h-41h-125l-217 -1368h-141
l-66 -72q50 -1 89 -14.5t61 -33.5t35 -46t16 -50t0 -48q-10 -59 -50.5 -104t-96 -65t-115.5 -22.5t-114 21t-85 67.5l23 27q69 -53 135 -53q49 0 83 29t42 71q8 49 -27 91t-115 55l119 147h-137z" />
    <glyph glyph-name="uni0163" unicode="&#x163;" horiz-adv-x="743" 
d="M266 -453q49 0 84 29.5t43 71.5q7 50 -27.5 91t-115.5 54l151 187q-142 8 -205.5 95t-37.5 253l100 630h-119l11 66h118l41 250h338l-41 -250h217l-10 -66h-217l-113 -714q-7 -52 -8.5 -91.5t21 -64t71.5 -27.5q32 -3 82.5 13t85.5 41l-8 -49q-91 -72 -256 -84l-100 -113
q62 -1 106 -21t64 -50t26.5 -61t1.5 -61q-10 -59 -50 -104t-96 -64.5t-115.5 -22t-113.5 21t-85 67.5l22 27q71 -54 135 -54z" />
    <glyph glyph-name="Tcaron" unicode="&#x164;" horiz-adv-x="1458" 
d="M555 0l217 1368h-121h-41q-147 0 -179.5 -15t-82.5 -108q-20 -37 -33 -59h-71q13 25 35 69q67 135 107.5 157.5t218.5 21.5h65h573q188 0 217 -3q60 -8 81 -43q16 -26 36 -130q8 -45 14 -72h-71q-5 21 -13 57q-21 94 -49 109.5t-176 15.5h-41h-125l-217 -1368h-344z
M868 1606l-118 389h22l215 -291l305 291h23l-240 -389q-42 -67 -112 -71t-95 71z" />
    <glyph glyph-name="tcaron" unicode="&#x165;" horiz-adv-x="743" 
d="M420 -20q-151 2 -220 89.5t-42 258.5l100 630h-119l11 66h118l41 250h338l-41 -250h217l-10 -66h-217l-113 -714q-7 -52 -8.5 -91.5t21 -64t71.5 -27.5q32 -3 82.5 13t85.5 41l-8 -49q-115 -86 -307 -86zM395 1436l-119 389h23l215 -291l305 291h23l-240 -389
q-43 -67 -112.5 -71t-94.5 71z" />
    <glyph glyph-name="Tbar" unicode="&#x166;" horiz-adv-x="1458" 
d="M555 0l102 643h-178l10 68h179l104 657h-121h-41q-147 0 -179.5 -15t-82.5 -108q-20 -37 -33 -59h-71q13 25 35 69q67 135 107.5 157.5t218.5 21.5h65h573q188 0 217 -3q60 -8 81 -43q16 -26 36 -130q8 -45 14 -72h-71q-5 21 -13 57q-21 94 -49 109.5t-176 15.5h-41h-125
l-104 -657h172l-10 -68h-173l-102 -643h-344z" />
    <glyph glyph-name="tbar" unicode="&#x167;" horiz-adv-x="743" 
d="M420 -20q-151 2 -220 89.5t-42 258.5l53 325h-98l4 37h98l43 268h-119l11 66h118l41 250h338l-41 -250h217l-10 -66h-217l-43 -268h109l-5 -37h-108l-66 -409q-7 -52 -8.5 -91.5t21 -64t71.5 -27.5q32 -3 82.5 13t85.5 41l-8 -49q-115 -86 -307 -86z" />
    <glyph glyph-name="Umacron" unicode="&#x16a;" horiz-adv-x="1497" 
d="M786 -23q-82 0 -155 12.5t-142.5 40t-120 72t-88 108.5t-46.5 149t6 194l98 623q32 210 -127 210l8 48h160q160 0 231.5 -42.5t72.5 -120t-15 -186.5l-88 -555q-18 -106 -8.5 -185t34.5 -133.5t68.5 -88t94 -48.5t110.5 -14q189 0 320.5 131t170.5 381l137 861h68
l-133 -844q-50 -309 -219 -461t-437 -152zM745 1591l15 90h708l-14 -90h-709z" />
    <glyph glyph-name="umacron" unicode="&#x16b;" horiz-adv-x="1372" 
d="M551 -20q-165 0 -253.5 88.5t-59.5 271.5l67 426q32 211 -125 211l6 47h158q55 0 98.5 -5t76 -13t55.5 -24t38 -30.5t22.5 -41t10.5 -46.5t0.5 -56t-6 -61.5t-10.5 -70.5l-47 -297q-8 -56 -11.5 -94.5t0 -79.5t17 -65.5t41.5 -40t71 -15.5q66 0 138 33t131 92l88 557
q32 211 -125 211l6 47h158q160 0 230 -41.5t70 -119t-16 -187.5l-106 -674h-326l23 141q-186 -163 -420 -163zM526 1180l15 90h708l-14 -90h-709z" />
    <glyph glyph-name="Uring" unicode="&#x16e;" horiz-adv-x="1497" 
d="M786 -23q-82 0 -155 12.5t-142.5 40t-120 72t-88 108.5t-46.5 149t6 194l98 623q32 210 -127 210l8 48h160q160 0 231.5 -42.5t72.5 -120t-15 -186.5l-88 -555q-18 -106 -8.5 -185t34.5 -133.5t68.5 -88t94 -48.5t110.5 -14q189 0 320.5 131t170.5 381l137 861h68
l-133 -844q-50 -309 -219 -461t-437 -152zM1098 1532q-94 0 -151 66.5t-42 160.5q15 95 93.5 162.5t172.5 67.5t151 -67.5t42 -162.5q-15 -93 -93.5 -160t-172.5 -67zM1110 1604q63 0 116.5 45.5t63.5 109.5t-29 110t-102 46t-116.5 -46t-63.5 -110t29 -109.5t102 -45.5z
" />
    <glyph glyph-name="uring" unicode="&#x16f;" horiz-adv-x="1372" 
d="M551 -20q-165 0 -253.5 88.5t-59.5 271.5l67 426q32 211 -125 211l6 47h158q55 0 98.5 -5t76 -13t55.5 -24t38 -30.5t22.5 -41t10.5 -46.5t0.5 -56t-6 -61.5t-10.5 -70.5l-47 -297q-8 -56 -11.5 -94.5t0 -79.5t17 -65.5t41.5 -40t71 -15.5q66 0 138 33t131 92l88 557
q32 211 -125 211l6 47h158q160 0 230 -41.5t70 -119t-16 -187.5l-106 -674h-326l23 141q-186 -163 -420 -163zM891 1149q-94 0 -151 66.5t-44 160.5q15 95 94 162.5t173 67.5t150.5 -67.5t41.5 -162.5q-13 -93 -91.5 -160t-172.5 -67zM901 1221q64 0 117.5 45.5t62.5 109.5
q10 64 -29 110t-102 46t-116.5 -46t-63.5 -110q-9 -64 29.5 -109.5t101.5 -45.5z" />
    <glyph glyph-name="Uhungarumlaut" unicode="&#x170;" horiz-adv-x="1497" 
d="M786 -23q-82 0 -155 12.5t-142.5 40t-120 72t-88 108.5t-46.5 149t6 194l98 623q32 210 -127 210l8 48h160q160 0 231.5 -42.5t72.5 -120t-15 -186.5l-88 -555q-18 -106 -8.5 -185t34.5 -133.5t68.5 -88t94 -48.5t110.5 -14q189 0 320.5 131t170.5 381l137 861h68
l-133 -844q-50 -309 -219 -461t-437 -152zM1362 1925q37 70 105 72q54 1 83 -38q34 -46 -10 -100q-9 -10 -20 -20l-340 -303h-21zM1051 1925q37 70 104 72q53 1 81 -36q34 -46 -8 -100q-10 -11 -22 -22l-338 -303h-22z" />
    <glyph glyph-name="uhungarumlaut" unicode="&#x171;" horiz-adv-x="1372" 
d="M551 -20q-165 0 -253.5 88.5t-59.5 271.5l67 426q32 211 -125 211l6 47h158q55 0 98.5 -5t76 -13t55.5 -24t38 -30.5t22.5 -41t10.5 -46.5t0.5 -56t-6 -61.5t-10.5 -70.5l-47 -297q-8 -56 -11.5 -94.5t0 -79.5t17 -65.5t41.5 -40t71 -15.5q66 0 138 33t131 92l88 557
q32 211 -125 211l6 47h158q160 0 230 -41.5t70 -119t-16 -187.5l-106 -674h-326l23 141q-186 -163 -420 -163zM1178 1548q36 70 105 72q53 1 82 -38q34 -46 -10 -100q-9 -10 -20 -20l-340 -303h-20zM866 1548q36 69 103 72q53 1 82 -36q35 -46 -7 -100q-10 -11 -22 -22
l-338 -303h-22z" />
    <glyph glyph-name="Uogonek" unicode="&#x172;" horiz-adv-x="1497" 
d="M1018 -377q-117 -113 -250 -134q-112 -17 -168 42q-65 70 -4 205q49 110 176 241q-80 1 -151.5 14t-139 41.5t-117 73t-85.5 108t-44.5 147.5t5.5 192l98 623q32 210 -127 210l8 48h160q160 0 231.5 -42.5t72.5 -120t-15 -186.5l-88 -555q-18 -106 -8.5 -185t34.5 -133.5
t68.5 -88t94 -48.5t110.5 -14q189 0 320.5 131t170.5 381l137 861h68l-133 -844q-46 -294 -202 -446t-404 -164q-111 -138 -85 -253q17 -78 86 -109q78 -35 159 12l12 8z" />
    <glyph glyph-name="uogonek" unicode="&#x173;" horiz-adv-x="1372" 
d="M551 -20q-165 0 -253.5 88.5t-59.5 271.5l67 426q32 211 -125 211l6 47h158q55 0 98.5 -5t76 -13t55.5 -24t38 -30.5t22.5 -41t10.5 -46.5t0.5 -56t-6 -61.5t-10.5 -70.5l-47 -297q-8 -56 -11.5 -94.5t0 -79.5t17 -65.5t41.5 -40t71 -15.5q66 0 138 33t131 92l88 557
q32 211 -125 211l6 47h158q160 0 230 -41.5t70 -119t-16 -187.5l-106 -674h-121q-122 -138 -102 -259q13 -81 82 -117q75 -38 155 5q11 6 21 13l10 -15q-117 -114 -249 -134q-112 -17 -167 42q-66 70 -6 205q53 118 195 260h-144l23 141q-186 -163 -420 -163z" />
    <glyph glyph-name="Wcircumflex" unicode="&#x174;" horiz-adv-x="2281" 
d="M877 2q-152 0 -229 59t-101 201l-154 862q-8 42 -14.5 69t-21.5 67.5t-32.5 65t-47.5 42.5t-68 18l8 48h229q147 0 212 -57t92 -201l161 -906l396 899q-10 45 -21.5 78t-31.5 67.5t-51.5 53t-72.5 18.5l9 48h229q147 0 211.5 -57t89.5 -201l166 -910l516 1168h72
l-561 -1256q56 -127 186 -127l-8 -49h-242q-152 0 -228 58.5t-100 201.5l-141 793l-391 -877q52 -127 188 -127l-8 -49h-241zM1417 1939q23 37 55 55.5t62 16t55 -21t35 -50.5l117 -389h-23l-215 289l-305 -289h-22z" />
    <glyph glyph-name="wcircumflex" unicode="&#x175;" horiz-adv-x="1908" 
d="M770 0q-152 2 -228 59.5t-96 200.5l-69 455q-7 47 -20 88.5t-35 83t-59.5 66t-84.5 24.5l6 47h236q147 0 218.5 -59t90.5 -199l78 -496l270 500q-53 207 -188 207l6 47h235q149 0 220 -59t90 -199l78 -494l407 752h74l-455 -840q43 -135 182 -135l-8 -49h-235
q-153 2 -228.5 59t-95.5 201l-67 406l-263 -490q32 -127 185 -127l-8 -49h-236zM1159 1544q23 37 55 55.5t62 16t55 -21t35 -50.5l117 -389h-23l-213 289l-307 -289h-22z" />
    <glyph glyph-name="Ycircumflex" unicode="&#x176;" horiz-adv-x="1466" 
d="M561 0l94 598l-219 537q-6 13 -18 43t-20 48.5t-22 46t-29 45t-34.5 34.5t-44 25.5t-53.5 8.5l8 48h291q72 0 117.5 -11.5t78.5 -49t49 -68.5t47 -108q2 -5 3 -7l174 -436l543 680h80l-592 -746l-109 -688h-344zM1057 1929q23 37 55 55.5t62 16t55 -21t35 -50.5l116 -389
h-22l-215 289l-305 -289h-23z" />
    <glyph glyph-name="ycircumflex" unicode="&#x177;" horiz-adv-x="1259" 
d="M360 -512l283 471l-260 756q-2 7 -11.5 35.5t-13.5 40t-14 38t-18 39t-20 33.5t-24.5 31.5t-28.5 22.5t-35 17t-40 5l6 47h262q73 0 120 -12.5t81 -47t54.5 -77.5t46.5 -121l133 -410l397 668h72l-916 -1536h-74zM889 1538q23 37 55 55.5t62 16t55 -21t35 -50.5l116 -389
h-22l-215 289l-305 -289h-23z" />
    <glyph glyph-name="Ydieresis" unicode="&#x178;" horiz-adv-x="1466" 
d="M561 0l94 598l-219 537q-6 13 -18 43t-20 48.5t-22 46t-29 45t-34.5 34.5t-44 25.5t-53.5 8.5l8 48h291q72 0 117.5 -11.5t78.5 -49t49 -68.5t47 -108q2 -5 3 -7l174 -436l543 680h80l-592 -746l-109 -688h-344zM942 1530q-60 0 -94 40t-25 101t57 102t107 37
q59 -2 92.5 -41t24.5 -98q-9 -61 -56 -101t-106 -40zM1315 1530q-60 0 -95 40t-26 101q9 59 57 98t109 39q58 0 92 -39t25 -98q-9 -60 -56.5 -100.5t-105.5 -40.5z" />
    <glyph glyph-name="Zacute" unicode="&#x179;" horiz-adv-x="1511" 
d="M152 0l995 1368h-436h-41q-150 0 -183 -15.5t-84 -111.5q-19 -34 -30 -55h-72q13 26 35 69q67 135 107.5 157.5t217.5 21.5h64h862l-997 -1368h414h40q66 0 92 -1t63.5 8t45 10.5t32.5 29.5t31.5 40.5t35.5 66.5q32 58 53 95h69q-20 -38 -53 -100q-84 -162 -130 -189
t-236 -26h-64h-831zM1059 1933q36 69 103 71q53 1 81 -37q34 -45 -10 -100q-8 -10 -19 -20l-342 -303h-22z" />
    <glyph glyph-name="zacute" unicode="&#x17a;" horiz-adv-x="1247" 
d="M119 0l719 958h-211h-38q-47 0 -67 0.5t-50 -2.5t-38.5 -3.5t-28 -10t-23.5 -14t-18.5 -23.5t-20.5 -30t-22 -42q-18 -34 -30 -55h-72q14 27 37 71q27 54 37 75.5t35.5 48t33 32t51 13t65.5 7t100 -0.5h65h647l-719 -956h215q157 -1 189 5q44 9 71 47q7 11 64 113
q4 8 8 15h72l-35 -70q-53 -105 -77 -131q-34 -37 -102 -44q-36 -4 -151 -3h-59h-647zM956 1536q36 70 105 71q53 0 81 -38q33 -47 -12 -101q-8 -9 -18 -18l-340 -303h-22z" />
    <glyph glyph-name="Zdotaccent" unicode="&#x17b;" horiz-adv-x="1511" 
d="M152 0l995 1368h-436h-41q-150 0 -183 -15.5t-84 -111.5q-19 -34 -30 -55h-72q13 26 35 69q67 135 107.5 157.5t217.5 21.5h64h862l-997 -1368h414h40q66 0 92 -1t63.5 8t45 10.5t32.5 29.5t31.5 40.5t35.5 66.5q32 58 53 95h69q-20 -38 -53 -100q-84 -162 -130 -189
t-236 -26h-64h-831zM918 1528q-60 0 -94 39.5t-25 99.5q9 59 56 98t108 39q59 0 92 -38.5t24 -98.5t-55.5 -99.5t-105.5 -39.5z" />
    <glyph glyph-name="zdotaccent" unicode="&#x17c;" horiz-adv-x="1247" 
d="M119 0l719 958h-211h-38q-47 0 -67 0.5t-50 -2.5t-38.5 -3.5t-28 -10t-23.5 -14t-18.5 -23.5t-20.5 -30t-22 -42q-18 -34 -30 -55h-72q14 27 37 71q27 54 37 75.5t35.5 48t33 32t51 13t65.5 7t100 -0.5h65h647l-719 -956h215q157 -1 189 5q44 9 71 47q7 11 64 113
q4 8 8 15h72l-35 -70q-53 -105 -77 -131q-34 -37 -102 -44q-36 -4 -151 -3h-59h-647zM815 1141q-60 0 -94 39.5t-25 99.5q9 59 56 98t108 39q59 0 92.5 -38.5t24.5 -98.5q-9 -59 -56 -99t-106 -40z" />
    <glyph glyph-name="Zcaron" unicode="&#x17d;" horiz-adv-x="1511" 
d="M152 0l995 1368h-436h-41q-150 0 -183 -15.5t-84 -111.5q-19 -34 -30 -55h-72q13 26 35 69q67 135 107.5 157.5t217.5 21.5h64h862l-997 -1368h414h40q66 0 92 -1t63.5 8t45 10.5t32.5 29.5t31.5 40.5t35.5 66.5q32 58 53 95h69q-20 -38 -53 -100q-84 -162 -130 -189
t-236 -26h-64h-831zM831 1618l-118 389h22l215 -291l305 291h23l-240 -389q-43 -67 -112.5 -71t-94.5 71z" />
    <glyph glyph-name="zcaron" unicode="&#x17e;" horiz-adv-x="1247" 
d="M119 0l719 958h-211h-38q-47 0 -67 0.5t-50 -2.5t-38.5 -3.5t-28 -10t-23.5 -14t-18.5 -23.5t-20.5 -30t-22 -42q-18 -34 -30 -55h-72q14 27 37 71q27 54 37 75.5t35.5 48t33 32t51 13t65.5 7t100 -0.5h65h647l-719 -956h215q157 -1 189 5q44 9 71 47q7 11 64 113
q4 8 8 15h72l-35 -70q-53 -105 -77 -131q-34 -37 -102 -44q-36 -4 -151 -3h-59h-647zM731 1217l-119 389h23l215 -291l305 291h23l-240 -389q-43 -67 -112.5 -71t-94.5 71z" />
    <glyph glyph-name="florin" unicode="&#x192;" horiz-adv-x="995" 
d="M-389 -530q56 0 101.5 10t80 24t64.5 42t51 54t43 71.5t37 82t37 96.5l411 1108h-133l10 66h148l8 25q50 159 163 261t267.5 142t343.5 23l-16 -41q-50 0 -91.5 -6.5t-75 -20t-59.5 -29.5t-48 -42t-39 -51.5t-34 -63.5t-30.5 -72t-32.5 -83q-3 -7 -4 -11l-12 -31h217
l-10 -66h-234l-405 -1103q-88 -235 -289 -342t-486 -82z" />
    <glyph glyph-name="uni0218" unicode="&#x218;" horiz-adv-x="1411" 
d="M684 -20q-133 0 -242.5 36.5t-182 116t-77.5 189.5h64q5 -82 69.5 -144.5t158.5 -92.5t198 -30q137 0 238.5 60t119.5 174q10 61 -27.5 109.5t-104.5 83.5t-149 69t-163.5 75t-146 91.5t-97.5 128.5t-18 176q16 101 76 184.5t145 136.5t185 82t202 29q120 0 219 -35
t166.5 -112.5t75.5 -186.5h-66q-7 84 -64 145.5t-137 90t-170 28.5q-121 0 -211 -57.5t-108 -167.5q-8 -52 13 -95.5t64 -74.5t101 -59t122.5 -54t129 -54.5t121 -65.5t97.5 -81t59 -107.5t6 -139.5q-16 -105 -81 -192t-158.5 -142t-204 -84.5t-222.5 -29.5zM553 -582
q63 78 76 158q4 26 -7 44t-29 29.5t-36 24.5t-27.5 39t-3.5 64q9 57 53.5 93t94.5 36q60 0 88.5 -41.5t17.5 -106.5q-13 -88 -77 -194t-125 -158z" />
    <glyph glyph-name="uni0219" unicode="&#x219;" horiz-adv-x="1081" 
d="M516 -20q-145 0 -259 54t-151 154h66q31 -68 127 -106.5t209 -38.5q111 0 193.5 40.5t93.5 115.5q6 33 -12.5 60t-54.5 47t-83 37.5t-100 35.5t-105.5 38t-98.5 48t-79.5 62.5t-48.5 84.5t-6 111q16 100 94.5 175t185 110.5t222.5 35.5q135 0 237.5 -51.5t136.5 -152.5
h-65q-21 67 -103 104t-184 37q-103 0 -178.5 -38t-85.5 -109q-5 -33 14.5 -60t55 -46t83.5 -36.5t100.5 -35t105 -37t98 -47t78.5 -62t48 -84.5t5 -111q-17 -106 -101.5 -184t-198.5 -114.5t-239 -36.5zM397 -569q27 34 48.5 77t27.5 80q4 26 -7 44t-29 29.5t-35.5 24.5
t-27 39t-3.5 64q9 57 53 93t94 36q60 0 89 -41.5t18 -105.5q-13 -88 -77.5 -194.5t-125.5 -158.5z" />
    <glyph glyph-name="uni021A" unicode="&#x21a;" horiz-adv-x="1458" 
d="M555 0l217 1368h-121h-41q-147 0 -179.5 -15t-82.5 -108q-20 -37 -33 -59h-71q13 25 35 69q67 135 107.5 157.5t218.5 21.5h65h573q188 0 217 -3q60 -8 81 -43q16 -26 36 -130q8 -45 14 -72h-71q-5 21 -13 57q-21 94 -49 109.5t-176 15.5h-41h-125l-217 -1368h-344z
M604 -551q65 76 78 158q4 26 -7 44t-29 29t-36 24.5t-28 39t-4 63.5q9 57 53 93.5t94 36.5q60 0 89 -41.5t20 -106.5q-14 -88 -79 -194t-126 -158z" />
    <glyph glyph-name="uni021B" unicode="&#x21b;" horiz-adv-x="743" 
d="M420 -20q-151 2 -220 89.5t-42 258.5l100 630h-119l11 66h118l41 250h338l-41 -250h217l-10 -66h-217l-113 -714q-7 -52 -8.5 -91.5t21 -64t71.5 -27.5q32 -3 82.5 13t85.5 41l-8 -49q-115 -86 -307 -86zM182 -588q63 78 76 158q4 26 -7 44t-29 29.5t-36 24.5t-28 39
t-4 64q9 57 53 93t94 36q60 0 89 -41.5t20 -106.5q-14 -88 -78 -194t-125 -158z" />
    <glyph glyph-name="circumflex" unicode="&#x2c6;" horiz-adv-x="743" 
d="M530 1503q23 37 55 55.5t62 16t55 -21t35 -50.5l117 -389h-23l-215 289l-305 -289h-22z" />
    <glyph glyph-name="caron" unicode="&#x2c7;" horiz-adv-x="743" 
d="M481 1186l-119 389h23l213 -291l307 291h23l-240 -389q-43 -67 -112.5 -71t-94.5 71z" />
    <glyph glyph-name="breve" unicode="&#x2d8;" horiz-adv-x="845" 
d="M625 1124q-68 0 -121.5 19t-94.5 59.5t-57.5 112t-3.5 168.5h29q-5 -60 35.5 -101.5t102.5 -58t138 -16.5t143.5 16.5t121.5 58t69 101.5h29q-36 -188 -141.5 -273.5t-249.5 -85.5z" />
    <glyph glyph-name="dotaccent" unicode="&#x2d9;" horiz-adv-x="456" 
d="M430 1118q-60 0 -94 39.5t-25 99.5q9 59 56 98.5t108 39.5q59 0 92.5 -39t24.5 -99q-9 -59 -56 -99t-106 -40z" />
    <glyph glyph-name="ring" unicode="&#x2da;" horiz-adv-x="634" 
d="M516 1104q-94 0 -150.5 66.5t-41.5 160.5q15 95 93.5 162.5t172.5 67.5t150.5 -67.5t41.5 -162.5q-15 -93 -93.5 -160t-172.5 -67zM528 1176q63 0 117 45.5t64 109.5t-29 110t-102 46t-117 -46t-64 -110t29 -109.5t102 -45.5z" />
    <glyph glyph-name="ogonek" unicode="&#x2db;" horiz-adv-x="628" 
d="M510 -344q-117 -114 -251 -134q-111 -17 -166 42q-65 71 -4 207q60 131 228 290l33 -26q-127 -141 -109 -264q12 -81 82 -118q74 -38 156 4q12 5 23 13z" />
    <glyph glyph-name="tilde" unicode="&#x2dc;" horiz-adv-x="935" 
d="M887 1130q-60 0 -146 26t-165.5 52.5t-124.5 26.5q-53 0 -81.5 -18t-35.5 -62h-37q6 80 25.5 135t49 82.5t60.5 39t70 11.5q74 0 229 -52t209 -52q53 0 80.5 18t34.5 62h37q-8 -131 -68 -200t-137 -69z" />
    <glyph glyph-name="hungarumlaut" unicode="&#x2dd;" horiz-adv-x="837" 
d="M805 1503q37 70 106 72q55 1 83 -38q35 -46 -9 -100q-9 -10 -20 -20l-342 -303h-21zM494 1503q37 70 106 72q53 1 81 -38q34 -46 -10 -100q-9 -10 -20 -20l-340 -303h-22z" />
    <glyph glyph-name="gravecomb" unicode="&#x300;" 
d="M371 1417q-45 56 -2 109q34 42 90 47q64 6 87 -48q5 -10 7 -22l84 -389h-23z" />
    <glyph glyph-name="acutecomb" unicode="&#x301;" 
d="M496 1503q37 69 105 71q53 1 81 -37q34 -46 -10 -100q-8 -10 -19 -20l-342 -303h-22z" />
    <glyph glyph-name="uni0302" unicode="&#x302;" 
d="M530 1503q23 37 55 55.5t62 16t55 -21t35 -50.5l117 -389h-23l-215 289l-305 -289h-22z" />
    <glyph glyph-name="tildecomb" unicode="&#x303;" 
d="M887 1130q-60 0 -146 26t-165.5 52.5t-124.5 26.5q-53 0 -81.5 -18t-35.5 -62h-37q6 80 25.5 135t49 82.5t60.5 39t70 11.5q74 0 229 -52t209 -52q53 0 80.5 18t34.5 62h37q-8 -131 -68 -200t-137 -69z" />
    <glyph glyph-name="uni0304" unicode="&#x304;" 
d="M299 1180l14 90h709l-14 -90h-709z" />
    <glyph glyph-name="uni0306" unicode="&#x306;" 
d="M625 1124q-68 0 -121.5 19t-94.5 59.5t-57.5 112t-3.5 168.5h29q-5 -60 35.5 -101.5t102.5 -58t138 -16.5t143.5 16.5t121.5 58t69 101.5h29q-36 -188 -141.5 -273.5t-249.5 -85.5z" />
    <glyph glyph-name="uni0307" unicode="&#x307;" 
d="M430 1118q-60 0 -94 39.5t-25 99.5q9 59 56 98.5t108 39.5q59 0 92.5 -39t24.5 -99q-9 -59 -56 -99t-106 -40z" />
    <glyph glyph-name="uni0308" unicode="&#x308;" 
d="M430 1116q-60 0 -94 40t-25 101t57 102.5t107 37.5q59 -2 92.5 -41t24.5 -99q-9 -61 -56 -101t-106 -40zM803 1116q-60 0 -95 40t-26 101q9 59 57 98.5t109 39.5q58 0 92 -39.5t25 -98.5q-9 -60 -56.5 -100.5t-105.5 -40.5z" />
    <glyph glyph-name="uni030A" unicode="&#x30a;" 
d="M516 1104q-94 0 -150.5 66.5t-41.5 160.5q15 95 93.5 162.5t172.5 67.5t150.5 -67.5t41.5 -162.5q-15 -93 -93.5 -160t-172.5 -67zM528 1176q63 0 117 45.5t64 109.5t-29 110t-102 46t-117 -46t-64 -110t29 -109.5t102 -45.5z" />
    <glyph glyph-name="uni030B" unicode="&#x30b;" 
d="M805 1503q37 70 106 72q55 1 83 -38q35 -46 -9 -100q-9 -10 -20 -20l-342 -303h-21zM494 1503q37 70 106 72q53 1 81 -38q34 -46 -10 -100q-9 -10 -20 -20l-340 -303h-22z" />
    <glyph glyph-name="uni030C" unicode="&#x30c;" 
d="M481 1186l-119 389h23l213 -291l307 291h23l-240 -389q-43 -67 -112.5 -71t-94.5 71z" />
    <glyph glyph-name="uni0312" unicode="&#x312;" 
d="M420 1114q-60 0 -89 41t-18 107q13 88 77 193t126 157l27 -13q-28 -32 -50 -75t-28 -80q-4 -26 7 -44t29 -29.5t35.5 -25t27 -40t3.5 -64.5q-9 -57 -53 -92t-94 -35z" />
    <glyph glyph-name="uni0326" unicode="&#x326;" 
d="M102 -598q63 78 76 158q4 26 -7 44t-29 29t-36 24.5t-28 39t-4 63.5q10 58 53.5 93.5t93.5 35.5q61 0 90.5 -41.5t18.5 -105.5q-14 -88 -78 -194t-125 -158z" />
    <glyph glyph-name="uni0327" unicode="&#x327;" 
d="M209 -414q49 0 84 29.5t43 71.5q7 50 -27.5 91t-115.5 54l167 207h70l-117 -131q62 -1 106.5 -21t64 -50t26.5 -61t2 -61q-10 -59 -50.5 -104t-96 -64.5t-115.5 -22t-114 21t-85 67.5l23 27q71 -54 135 -54z" />
    <glyph glyph-name="uni0328" unicode="&#x328;" 
d="M510 -344q-117 -114 -251 -134q-111 -17 -166 42q-65 71 -4 207q60 131 228 290l33 -26q-127 -141 -109 -264q12 -81 82 -118q74 -38 156 4q12 5 23 13z" />
    <glyph glyph-name="uni0335" unicode="&#x335;" 
d="M203 567l10 68h694l-10 -68h-694z" />
    <glyph glyph-name="uni0336" unicode="&#x336;" 
d="M203 567l10 68h795l-11 -68h-794z" />
    <glyph glyph-name="uni0337" unicode="&#x337;" 
d="M104 -53l717 735h82l-717 -735h-82z" />
    <glyph glyph-name="uni0338" unicode="&#x338;" 
d="M96 -100l1262 1349h86l-1266 -1349h-82z" />
    <glyph glyph-name="uni03BC" unicode="&#x3bc;" horiz-adv-x="1413" 
d="M383 766q32 211 -125 211l6 47h158q55 0 98.5 -5t76 -13t55.5 -24t38 -30.5t22.5 -41t10.5 -46.5t0.5 -56t-6 -61.5t-10.5 -70.5l-48 -297q-11 -84 -13 -149.5t30 -105.5t102 -40q66 0 138 33t131 92l88 557q32 211 -125 211l6 47h158q160 0 230 -41.5t70 -119
t-16 -187.5l-106 -674h-324l23 141q-168 -143 -367 -159q-51 -3 -86 8l-88 -565h-338z" />
    <glyph glyph-name="Wgrave" unicode="&#x1e80;" horiz-adv-x="2281" 
d="M877 2q-152 0 -229 59t-101 201l-154 862q-8 42 -14.5 69t-21.5 67.5t-32.5 65t-47.5 42.5t-68 18l8 48h229q147 0 212 -57t92 -201l161 -906l396 899q-10 45 -21.5 78t-31.5 67.5t-51.5 53t-72.5 18.5l9 48h229q147 0 211.5 -57t89.5 -201l166 -910l516 1168h72
l-561 -1256q56 -127 186 -127l-8 -49h-242q-152 0 -228 58.5t-100 201.5l-141 793l-391 -877q52 -127 188 -127l-8 -49h-241zM1280 1839q-45 55 -3 108q34 42 90 48q64 7 89 -47q5 -10 8 -23l84 -389h-22z" />
    <glyph glyph-name="wgrave" unicode="&#x1e81;" horiz-adv-x="1908" 
d="M770 0q-152 2 -228 59.5t-96 200.5l-69 455q-7 47 -20 88.5t-35 83t-59.5 66t-84.5 24.5l6 47h236q147 0 218.5 -59t90.5 -199l78 -496l270 500q-53 207 -188 207l6 47h235q149 0 220 -59t90 -199l78 -494l407 752h74l-455 -840q43 -135 182 -135l-8 -49h-235
q-153 2 -228.5 59t-95.5 201l-67 406l-263 -490q32 -127 185 -127l-8 -49h-236zM1053 1454q-44 55 -1 108q34 42 90 48q64 7 88 -48q5 -10 7 -22l84 -389h-23z" />
    <glyph glyph-name="Wacute" unicode="&#x1e82;" horiz-adv-x="2281" 
d="M877 2q-152 0 -229 59t-101 201l-154 862q-8 42 -14.5 69t-21.5 67.5t-32.5 65t-47.5 42.5t-68 18l8 48h229q147 0 212 -57t92 -201l161 -906l396 899q-10 45 -21.5 78t-31.5 67.5t-51.5 53t-72.5 18.5l9 48h229q147 0 211.5 -57t89.5 -201l166 -910l516 1168h72
l-561 -1256q56 -127 186 -127l-8 -49h-242q-152 0 -228 58.5t-100 201.5l-141 793l-391 -877q52 -127 188 -127l-8 -49h-241zM1503 1935q36 70 105 71q53 0 81 -38q33 -47 -12 -101q-8 -9 -18 -18l-340 -303h-23z" />
    <glyph glyph-name="wacute" unicode="&#x1e83;" horiz-adv-x="1908" 
d="M770 0q-152 2 -228 59.5t-96 200.5l-69 455q-7 47 -20 88.5t-35 83t-59.5 66t-84.5 24.5l6 47h236q147 0 218.5 -59t90.5 -199l78 -496l270 500q-53 207 -188 207l6 47h235q149 0 220 -59t90 -199l78 -494l407 752h74l-455 -840q43 -135 182 -135l-8 -49h-235
q-153 2 -228.5 59t-95.5 201l-67 406l-263 -490q32 -127 185 -127l-8 -49h-236zM1229 1532q37 69 105 71q53 1 81 -37q34 -46 -10 -100q-8 -10 -19 -20l-342 -303h-22z" />
    <glyph glyph-name="Wdieresis" unicode="&#x1e84;" horiz-adv-x="2281" 
d="M877 2q-152 0 -229 59t-101 201l-154 862q-8 42 -14.5 69t-21.5 67.5t-32.5 65t-47.5 42.5t-68 18l8 48h229q147 0 212 -57t92 -201l161 -906l396 899q-10 45 -21.5 78t-31.5 67.5t-51.5 53t-72.5 18.5l9 48h229q147 0 211.5 -57t89.5 -201l166 -910l516 1168h72
l-561 -1256q56 -127 186 -127l-8 -49h-242q-152 0 -228 58.5t-100 201.5l-141 793l-391 -877q52 -127 188 -127l-8 -49h-241zM1268 1526q-60 0 -94 40t-25 101t57 102t107 37q59 -2 92.5 -41t24.5 -98q-9 -61 -56 -101t-106 -40zM1640 1526q-60 0 -94.5 40t-25.5 101
q9 59 57 98t109 39q58 0 91.5 -39t24.5 -98q-9 -60 -56.5 -100.5t-105.5 -40.5z" />
    <glyph glyph-name="wdieresis" unicode="&#x1e85;" horiz-adv-x="1908" 
d="M770 0q-152 2 -228 59.5t-96 200.5l-69 455q-7 47 -20 88.5t-35 83t-59.5 66t-84.5 24.5l6 47h236q147 0 218.5 -59t90.5 -199l78 -496l270 500q-53 207 -188 207l6 47h235q149 0 220 -59t90 -199l78 -494l407 752h74l-455 -840q43 -135 182 -135l-8 -49h-235
q-153 2 -228.5 59t-95.5 201l-67 406l-263 -490q32 -127 185 -127l-8 -49h-236zM1012 1153q-60 0 -94 40t-25 101t57 102.5t107 37.5q59 -2 92.5 -41t24.5 -99q-9 -61 -56 -101t-106 -40zM1384 1153q-60 0 -94.5 40t-25.5 101q9 59 57 98.5t109 39.5q58 0 91.5 -39.5
t24.5 -98.5q-9 -60 -56.5 -100.5t-105.5 -40.5z" />
    <glyph glyph-name="Ygrave" unicode="&#x1ef2;" horiz-adv-x="1466" 
d="M561 0l94 598l-219 537q-6 13 -18 43t-20 48.5t-22 46t-29 45t-34.5 34.5t-44 25.5t-53.5 8.5l8 48h291q72 0 117.5 -11.5t78.5 -49t49 -68.5t47 -108q2 -5 3 -7l174 -436l543 680h80l-592 -746l-109 -688h-344zM885 1837q-45 55 -3 108q34 42 90 48q64 7 89 -47
q5 -10 8 -23l84 -389h-23z" />
    <glyph glyph-name="ygrave" unicode="&#x1ef3;" horiz-adv-x="1259" 
d="M360 -512l283 471l-260 756q-2 7 -11.5 35.5t-13.5 40t-14 38t-18 39t-20 33.5t-24.5 31.5t-28.5 22.5t-35 17t-40 5l6 47h262q73 0 120 -12.5t81 -47t54.5 -77.5t46.5 -121l133 -410l397 668h72l-916 -1536h-74zM723 1452q-45 55 -2 108q34 43 91 48q64 7 88 -48
q5 -10 7 -22l84 -389h-22z" />
    <glyph glyph-name="endash" unicode="&#x2013;" horiz-adv-x="1144" 
d="M190 561l11 64h981l-11 -64h-981z" />
    <glyph glyph-name="emdash" unicode="&#x2014;" horiz-adv-x="1861" 
d="M190 561l11 64h1697l-10 -64h-1698z" />
    <glyph glyph-name="quoteleft" unicode="&#x2018;" horiz-adv-x="421" 
d="M399 1042q-60 0 -88.5 41.5t-19.5 106.5q14 88 78 193t125 157l26 -12q-27 -32 -48.5 -75.5t-27.5 -80.5q-4 -26 7 -44t29 -29.5t35.5 -25t26.5 -40t3 -64.5q-9 -57 -52.5 -92t-93.5 -35z" />
    <glyph glyph-name="quoteright" unicode="&#x2019;" horiz-adv-x="421" 
d="M338 969q28 32 50 75t28 82q4 26 -7.5 43.5t-29.5 28.5t-35.5 24.5t-27 40t-3.5 64.5q9 57 52.5 92t93.5 35q61 0 90 -41t18 -106q-13 -87 -77 -193t-125 -158z" />
    <glyph glyph-name="quotesinglbase" unicode="&#x201a;" horiz-adv-x="421" 
d="M141 -268q65 72 78 157q4 26 -7 43.5t-29 29t-35.5 25t-27 39.5t-3.5 64q9 57 53 92t94 35q61 0 89.5 -40.5t17.5 -106.5q-13 -87 -77.5 -193t-125.5 -158z" />
    <glyph glyph-name="quotedblleft" unicode="&#x201c;" horiz-adv-x="743" 
d="M721 1042q-60 0 -89 41.5t-20 106.5q14 88 78 193t125 157l27 -12q-28 -32 -50 -75.5t-28 -80.5q-4 -26 7.5 -44t29 -29.5t35 -25t27 -40t3.5 -64.5q-9 -57 -52 -92t-93 -35zM399 1042q-60 0 -88.5 41.5t-19.5 106.5q14 88 78 193t125 157l26 -12q-27 -32 -48.5 -75.5
t-27.5 -80.5q-4 -26 7 -44t29 -29.5t35.5 -25t26.5 -40t3 -64.5q-9 -57 -52.5 -92t-93.5 -35z" />
    <glyph glyph-name="quotedblright" unicode="&#x201d;" horiz-adv-x="743" 
d="M659 969q28 32 50 75t28 82q4 26 -7.5 43.5t-29 28.5t-35 24.5t-27 40t-3.5 64.5q9 57 52 92t93 35q61 0 90.5 -41t18.5 -106q-13 -87 -77.5 -193t-125.5 -158zM338 969q28 32 50 75t28 82q4 26 -7.5 43.5t-29.5 28.5t-35.5 24.5t-27 40t-3.5 64.5q9 57 52.5 92t93.5 35
q61 0 90 -41t18 -106q-13 -87 -77 -193t-125 -158z" />
    <glyph glyph-name="quotedblbase" unicode="&#x201e;" horiz-adv-x="743" 
d="M463 -268q65 72 78 157q4 26 -7 43.5t-29 29t-36 25t-27.5 39.5t-3.5 64q9 57 53 92t95 35q60 0 88.5 -40.5t17.5 -106.5q-13 -87 -77.5 -193t-125.5 -158zM141 -268q65 72 78 157q4 26 -7 43.5t-29 29t-35.5 25t-27 39.5t-3.5 64q9 57 53 92t94 35q61 0 89.5 -40.5
t17.5 -106.5q-13 -87 -77.5 -193t-125.5 -158z" />
    <glyph glyph-name="dagger" unicode="&#x2020;" horiz-adv-x="659" 
d="M344 2l98 932l86 237q-63 -3 -109.5 -22t-79 -36t-63.5 -17l27 174q31 0 58 -17t67.5 -36.5t101.5 -22.5q7 62 -6 105.5t-26.5 73.5t-8.5 61h175q-4 -25 -19 -50t-32 -44t-36.5 -57.5t-29.5 -88.5q63 3 109.5 22.5t79 36.5t63.5 17l-27 -174q-26 0 -49 10.5t-40 24
t-53.5 25.5t-84.5 15l10 -237l-199 -932h-12z" />
    <glyph glyph-name="daggerdbl" unicode="&#x2021;" horiz-adv-x="659" 
d="M254 -55q4 25 19 50t32 44t36.5 57.5t29.5 87.5q-62 -3 -108 -22t-79 -36t-65 -17l28 174q32 0 59 -17t67.5 -37t101.5 -24q6 69 -2 112t-16 68.5t-3 56.5l97 250l-17 248q4 25 15 47.5t23.5 39.5t28 56.5t27.5 94.5q-63 -4 -109 -23.5t-78.5 -36t-64.5 -16.5l29 174
q26 0 49 -11t40 -24.5t53 -26t85 -14.5q6 62 -7.5 105t-27 72t-8.5 59h175q-4 -25 -19 -49t-32 -43t-35.5 -57t-28.5 -87q62 3 108.5 22t79.5 36.5t64 17.5l-29 -174q-31 0 -58 16.5t-67.5 36t-101.5 23.5q-6 -69 1.5 -112.5t15.5 -69t3 -56.5l-98 -248l18 -250
q-5 -31 -21 -57t-37 -69t-36 -111q63 4 109.5 24t79 37t63.5 17l-29 -174q-25 0 -48 10.5t-40 24t-53.5 25.5t-85.5 15q-7 -63 6 -106t26.5 -72.5t8.5 -60.5h-174z" />
    <glyph glyph-name="bullet" unicode="&#x2022;" horiz-adv-x="813" 
d="M485 360q-134 0 -215 96.5t-59 229.5t132.5 228.5t244.5 95.5t214 -95.5t58 -228.5q-22 -134 -132 -230t-243 -96z" />
    <glyph glyph-name="ellipsis" unicode="&#x2026;" horiz-adv-x="1179" 
d="M989 -18q-55 0 -86 36.5t-22 92.5q8 53 50.5 90t96.5 37t85.5 -37t23.5 -90q-9 -56 -51 -92.5t-97 -36.5zM229 -18q-55 0 -86 36.5t-22 92.5q8 53 50.5 90t96.5 37q53 0 84.5 -37.5t24.5 -89.5q-9 -56 -52 -92.5t-96 -36.5zM610 -20q-56 0 -86.5 37t-21.5 94q8 53 51 89
t98 36q52 0 83.5 -36t23.5 -89q-9 -56 -52 -93.5t-96 -37.5z" />
    <glyph glyph-name="perthousand" unicode="&#x2030;" horiz-adv-x="2138" 
d="M209 0l1243 1434h74l-1241 -1434h-76zM1022 -18q-145 0 -226 89.5t-61 219.5q22 131 130 219t253 88t225 -88.5t58 -218.5q-21 -131 -128 -220t-251 -89zM1028 18q50 0 98.5 79.5t65.5 193.5q20 115 -3 193.5t-73 78.5q-48 0 -97 -78.5t-69 -193.5q-17 -114 6.5 -193.5
t71.5 -79.5zM569 838q-145 0 -225.5 89.5t-58.5 219.5q20 130 128 218.5t253 88.5t224.5 -88.5t59.5 -218.5q-22 -131 -129.5 -220t-251.5 -89zM578 874q50 0 97 79t66 194q19 116 -4 194t-73 78q-48 0 -97 -78.5t-67 -193.5q-18 -113 6 -193t72 -80zM1743 -18
q-145 0 -226 89.5t-61 219.5q22 131 130 219t253 88q144 0 224.5 -88.5t58.5 -218.5q-20 -130 -128 -219.5t-251 -89.5zM1749 18q48 0 97.5 80t66.5 193q20 114 -3.5 193t-72.5 79q-48 0 -97 -78.5t-69 -193.5q-17 -114 6.5 -193.5t71.5 -79.5z" />
    <glyph glyph-name="guilsinglleft" unicode="&#x2039;" horiz-adv-x="837" 
d="M788 74l-600 471l750 473l-18 -119l-553 -354l440 -355z" />
    <glyph glyph-name="guilsinglright" unicode="&#x203a;" horiz-adv-x="837" 
d="M115 74l18 116l553 355l-440 354l18 119l598 -473z" />
    <glyph glyph-name="fraction" unicode="&#x2044;" horiz-adv-x="1460" 
d="M131 -240l1313 1694h82l-1313 -1694h-82z" />
    <glyph glyph-name="uni2070" unicode="&#x2070;" horiz-adv-x="1097" 
d="M659 545q-214 0 -324 147.5t-73 380.5q37 231 194 377.5t371 146.5q142 0 241.5 -66.5t140 -186t16.5 -271.5q-37 -234 -193.5 -381t-372.5 -147zM672 602q99 0 185.5 131.5t119.5 339.5q32 205 -13.5 337t-144.5 132q-101 0 -187.5 -130.5t-119.5 -338.5
q-33 -207 13 -339t147 -132z" />
    <glyph glyph-name="uni2074" unicode="&#x2074;" horiz-adv-x="833" 
d="M575 553l46 291h-396l625 747h137l-110 -698h110l-29 -49h-90l-45 -291h-248zM319 893h310l71 453z" />
    <glyph glyph-name="uni2075" unicode="&#x2075;" horiz-adv-x="919" 
d="M547 547q-134 0 -214 60.5t-91 168.5h24q14 -88 78.5 -133t151.5 -45q121 0 200.5 82.5t100.5 210.5q21 138 -35 217.5t-166 79.5q-119 0 -277 -119l142 518h610l-78 -155h-532l-74 -273q139 90 297 90q103 0 185 -39t125.5 -116.5t27.5 -178.5q-27 -170 -163.5 -269
t-311.5 -99z" />
    <glyph glyph-name="uni2076" unicode="&#x2076;" horiz-adv-x="913" 
d="M571 545q-170 0 -262 134t-57 335q31 170 130 302.5t239.5 205t300.5 77.5l-4 -16q-84 -10 -153 -49.5t-118.5 -105t-85 -145.5t-61.5 -181q45 70 107 109t123 45t119 -16t99 -67t60 -116t4 -154q-26 -154 -151.5 -256t-289.5 -102zM582 586q79 0 134 83t81 226
q16 88 7 147.5t-31.5 97.5t-59 46.5t-75.5 -4.5t-81.5 -56t-77.5 -108l-6 -29q-31 -170 -2.5 -286.5t111.5 -116.5z" />
    <glyph glyph-name="uni2077" unicode="&#x2077;" horiz-adv-x="763" 
d="M256 563q78 213 214.5 419.5t354.5 449.5h-557l78 155h625q-193 -268 -293 -501.5t-160 -522.5h-262z" />
    <glyph glyph-name="uni2078" unicode="&#x2078;" horiz-adv-x="897" 
d="M545 541q-96 0 -174 25t-123 78.5t-33 127.5q26 166 262 307q-67 66 -100.5 130t-22.5 139q13 79 71 136.5t134.5 83t161.5 25.5q122 0 201 -55.5t63 -153.5q-10 -68 -67 -134t-148 -122q55 -42 86.5 -70t68.5 -71t50.5 -89.5t5.5 -98.5q-14 -82 -82.5 -142.5t-160.5 -88
t-193 -27.5zM506 596q93 0 166 42.5t86 119.5q5 29 -6.5 58t-40.5 60t-55 54t-72.5 60t-71.5 59q-82 -39 -156.5 -113t-85.5 -145q-14 -91 58 -143t178 -52zM737 1155q176 101 195 217q13 78 -36 122t-124 44q-70 0 -128 -40t-69 -112q-5 -32 5 -61.5t38 -61t51.5 -52
t67.5 -56.5z" />
    <glyph glyph-name="uni2079" unicode="&#x2079;" horiz-adv-x="913" 
d="M383 561q308 34 426 453q-52 -64 -116.5 -99t-126.5 -38.5t-119 19t-97.5 67t-58.5 114.5t-4 152q27 148 153.5 253t288.5 105q109 0 190 -62.5t115 -167.5t13 -227q-44 -257 -235.5 -426.5t-432.5 -177.5zM838 1143q18 115 12 202.5t-40 139t-89 51.5q-82 0 -144 -80.5
t-85 -218.5q-11 -68 -8 -122.5t21.5 -89.5t44.5 -55.5t61.5 -20t72 17t76 55t74.5 94.5z" />
    <glyph glyph-name="uni2080" unicode="&#x2080;" horiz-adv-x="1097" 
d="M539 -225q-214 0 -324.5 147.5t-75.5 380.5q37 231 194.5 377.5t371.5 146.5q215 0 324.5 -146t72.5 -378q-37 -235 -192 -381.5t-371 -146.5zM549 -168q99 0 186 132t119 339q33 205 -12 337t-144 132q-101 0 -188.5 -131t-120.5 -338q-20 -141 -7 -246t57 -165t110 -60
z" />
    <glyph glyph-name="uni2081" unicode="&#x2081;" horiz-adv-x="587" 
d="M150 -221l126 809l-65 2l2 14l334 215h12l-164 -1040h-245z" />
    <glyph glyph-name="uni2082" unicode="&#x2082;" horiz-adv-x="835" 
d="M74 -195q262 182 400 354.5t167 352.5q19 120 -36 186t-146 66q-89 0 -161.5 -60t-88.5 -165h-29q21 140 132.5 217.5t252.5 77.5q67 0 127 -20.5t105 -58.5t66 -99t9 -136q-8 -52 -36 -105.5t-75 -105.5t-95.5 -96.5t-118.5 -95.5t-122 -86t-126 -82h481l-75 -154h-633z
" />
    <glyph glyph-name="uni2083" unicode="&#x2083;" horiz-adv-x="892" 
d="M410 -219q-134 0 -214 58.5t-94 164.5h27q19 -88 82.5 -129t146.5 -41q118 0 200.5 81t98.5 189q14 94 -24.5 165.5t-128.5 95.5l2 8q64 31 106 89t54 132q13 87 -34 134.5t-124 47.5q-86 0 -162 -56t-90 -149h-23q10 65 45 116.5t84 83t105 47.5t115 16q129 0 206.5 -62
t59.5 -174q-11 -72 -72 -127.5t-160 -75.5q102 -16 163.5 -60t80 -102t6.5 -131q-16 -99 -81.5 -172.5t-162.5 -111t-212 -37.5z" />
    <glyph glyph-name="uni2084" unicode="&#x2084;" horiz-adv-x="833" 
d="M455 -201l47 293h-396l625 748h137l-110 -701h110l-28 -47h-90l-48 -293h-247zM201 139h309l72 453z" />
    <glyph glyph-name="uni2085" unicode="&#x2085;" horiz-adv-x="919" 
d="M428 -205q-135 0 -214.5 60t-90.5 168h24q13 -88 77.5 -133.5t152.5 -45.5q121 0 200.5 82.5t100.5 210.5q21 139 -35 218t-166 79q-116 0 -278 -119l143 521h610l-80 -158h-532l-72 -270q143 90 295 90q103 0 185.5 -39.5t126.5 -117.5t28 -179q-28 -170 -164 -268.5
t-311 -98.5z" />
    <glyph glyph-name="uni2086" unicode="&#x2086;" horiz-adv-x="913" 
d="M455 -199q-170 0 -262.5 133t-57.5 334q31 171 129.5 304t238.5 205t300 77l-2 -16q-303 -35 -418 -480q45 69 106.5 108.5t122 45.5t118.5 -16t99.5 -66.5t60 -115.5t3.5 -154q-25 -154 -149.5 -256.5t-288.5 -102.5zM465 -158q79 0 133.5 83t81.5 227q11 73 8 130
t-21 92.5t-43.5 55t-59 17.5t-67.5 -19.5t-70.5 -57.5t-66.5 -96l-4 -28q-33 -170 -3.5 -287t112.5 -117z" />
    <glyph glyph-name="uni2087" unicode="&#x2087;" horiz-adv-x="763" 
d="M137 -184q77 211 214 416.5t356 451.5h-557l77 156h625q-193 -267 -293 -500t-160 -524h-262z" />
    <glyph glyph-name="uni2088" unicode="&#x2088;" horiz-adv-x="897" 
d="M428 -197q-96 0 -174 25t-123 78.5t-33 126.5q22 164 262 307q-142 138 -122 268q19 117 126.5 181.5t239.5 64.5q122 0 201 -55.5t63 -153.5q-20 -134 -215 -254q44 -34 69.5 -55.5t60 -57.5t51.5 -66t27 -70.5t3 -82.5q-21 -120 -149 -188t-287 -68zM389 -143
q93 0 166 42t84 119q5 29 -6 58t-40.5 60.5t-54 54t-72.5 61.5t-71 59q-83 -42 -156.5 -114.5t-84.5 -143.5q-14 -92 57.5 -144t177.5 -52zM621 418q175 96 194 217q11 77 -37.5 121.5t-122.5 44.5q-70 0 -127.5 -40.5t-68.5 -111.5q-5 -32 5 -62.5t37.5 -61t52 -52
t67.5 -55.5z" />
    <glyph glyph-name="uni2089" unicode="&#x2089;" horiz-adv-x="913" 
d="M272 -139q309 34 426 450q-52 -63 -116.5 -98t-126.5 -38.5t-119.5 19t-98 67.5t-58 114.5t-3.5 152.5q27 147 154 253t288 106q109 0 190 -62.5t115 -167.5t13 -227q-22 -128 -85.5 -239.5t-152.5 -190.5t-201.5 -125.5t-230.5 -50.5zM727 442q30 172 -2.5 282
t-116.5 110q-82 0 -143 -79.5t-86 -217.5q-11 -68 -8 -123t21.5 -90t45 -55.5t62 -20t72 17t76.5 55t75 93.5z" />
    <glyph glyph-name="Euro" unicode="&#x20ac;" horiz-adv-x="1777" 
d="M1098 -18q-138 1 -258.5 40t-212.5 112.5t-145 188t-54 257.5h-233l38 65h199q4 48 8 74q2 21 15 65h-228l39 66h205q45 145 134 261.5t204 190.5t248.5 113.5t273.5 40.5q211 2 359.5 -80.5t201.5 -261.5h-63q-23 70 -70.5 124t-107 85t-122 46t-122.5 13
q-211 -5 -364 -143.5t-220 -388.5h310l-39 -66h-285q-9 -30 -12 -65q-1 -9 -4 -24.5t-4.5 -27.5t-2.5 -22h314l-39 -65h-279q-12 -245 97.5 -382.5t316.5 -142.5q82 -2 172 23.5t183.5 89.5t152.5 156h63q-110 -179 -284.5 -261.5t-384.5 -80.5z" />
    <glyph glyph-name="trademark" unicode="&#x2122;" horiz-adv-x="1499" 
d="M897 1024l102 645h123l146 -532l323 532h111l-103 -645h-110l84 522l-318 -522h-73l-150 539l-86 -539h-49zM473 1024l94 598h-209l9 47h526l-8 -47h-205l-94 -598h-113z" />
    <glyph glyph-name="oneeighth" unicode="&#x215b;" horiz-adv-x="1959" 
d="M268 -205l1331 1802h82l-1331 -1802h-82zM1317 -238q95 0 168 42.5t84 119.5q5 29 -6 58t-40 60t-54.5 53.5t-72.5 60.5t-71 59q-83 -39 -157 -112.5t-85 -145.5q-14 -91 57.5 -143t176.5 -52zM322 629l127 809l-68 2l2 14l336 215h12l-164 -1040h-245zM1356 -293
q-96 0 -174 25t-123 79t-33 128q26 165 264 307q-68 67 -101.5 130t-21.5 138q13 79 71 136.5t135 83.5t161 26q122 0 200 -55.5t64 -153.5q-23 -133 -215 -256q43 -33 69.5 -55t60 -57t51 -65t26.5 -70.5t2 -82.5q-13 -82 -81.5 -142.5t-161 -88t-193.5 -27.5zM1548 322
q179 104 197 217q11 79 -38.5 122.5t-125.5 43.5q-70 0 -125.5 -40t-66.5 -112q-5 -32 4.5 -61.5t36.5 -60.5t51 -53t67 -56z" />
    <glyph glyph-name="threeeighths" unicode="&#x215c;" horiz-adv-x="2254" 
d="M559 -205l1331 1802h84l-1331 -1802h-84zM584 545q-135 0 -215.5 57.5t-92.5 163.5h27q17 -87 81 -128.5t148 -41.5q118 0 199.5 81t97.5 191q14 93 -23.5 163.5t-127.5 94.5l2 9q64 33 106 90.5t54 132.5q13 86 -34.5 133t-125.5 47q-85 0 -160.5 -55.5t-89.5 -149.5
h-22q14 86 69.5 147t126.5 88t150 27q131 0 208.5 -61t59.5 -174q-11 -72 -72 -127.5t-162 -75.5q104 -16 165.5 -59.5t80 -101t6.5 -130.5q-16 -99 -81.5 -172.5t-162.5 -111t-212 -37.5zM1602 -238q93 0 165.5 42.5t83.5 119.5q5 29 -6 58t-40 60t-54 53.5t-72 60.5
t-71 59q-82 -39 -156.5 -113t-85.5 -145q-14 -91 58 -143t178 -52zM1640 -293q-96 0 -173.5 25t-122.5 79t-33 128q26 166 262 307q-68 66 -100.5 129.5t-20.5 138.5q19 117 126 181.5t239 64.5q122 0 201 -55.5t65 -153.5q-23 -133 -215 -256q42 -32 69 -54.5t60 -57.5
t50 -65.5t26 -70.5t2 -82q-13 -82 -82 -142.5t-161 -88t-192 -27.5zM1833 322q177 103 195 217q11 78 -38 122t-124 44q-70 0 -126 -40t-67 -112q-5 -32 4.5 -61.5t37 -60.5t51.5 -52.5t67 -56.5z" />
    <glyph glyph-name="fiveeighths" unicode="&#x215d;" horiz-adv-x="2275" 
d="M584 -205l1331 1802h84l-1331 -1802h-84zM600 547q-134 0 -214 60.5t-91 168.5h24q14 -88 78.5 -133t151.5 -45q121 0 200.5 82.5t100.5 210.5q21 138 -35 217.5t-166 79.5q-119 0 -274 -119l139 518h610l-77 -155h-533l-74 -273q139 90 297 90q103 0 185 -39
t125.5 -116.5t27.5 -178.5q-27 -170 -163.5 -269t-311.5 -99zM1628 -238q93 0 166 42.5t84 119.5q5 29 -6 58t-40 60t-54.5 53.5t-72.5 60.5t-71 59q-82 -39 -156 -113t-85 -145q-14 -91 58 -143t177 -52zM1667 -293q-96 0 -174 25t-123 79t-33 128q26 166 262 307
q-67 65 -99.5 129t-20.5 139q19 117 125.5 181.5t238.5 64.5q122 0 201 -55.5t65 -153.5q-23 -133 -215 -256q42 -32 69 -54.5t60 -57.5t50 -65.5t26 -70.5t2 -82q-13 -82 -81.5 -142.5t-160.5 -88t-192 -27.5zM1860 322q176 102 194 217q11 78 -38 122t-124 44
q-70 0 -125.5 -40t-66.5 -112q-5 -32 4.5 -61.5t37 -60.5t51.5 -52.5t67 -56.5z" />
    <glyph glyph-name="seveneighths" unicode="&#x215e;" horiz-adv-x="2060" 
d="M344 -205l1331 1802h82l-1331 -1802h-82zM1413 -238q93 0 166 42.5t84 119.5q5 29 -6 58t-40 60t-54.5 53.5t-72.5 60.5t-71 59q-82 -39 -156 -113t-85 -145q-14 -91 58 -143t177 -52zM340 563q78 213 214.5 419.5t354.5 449.5h-557l78 155h625q-193 -268 -293 -501.5
t-160 -522.5h-262zM1450 -293q-96 0 -174 25t-123 79t-33 128q26 165 264 307q-68 66 -101 129.5t-21 138.5q19 117 126.5 181.5t239.5 64.5q122 0 200 -55.5t64 -153.5q-23 -132 -213 -256q43 -34 68.5 -55t59.5 -56.5t50.5 -65.5t26 -70.5t2.5 -82.5q-13 -82 -81.5 -142.5
t-161 -88t-193.5 -27.5zM1642 322q179 102 197 217q11 79 -38.5 122.5t-125.5 43.5q-70 0 -125.5 -40t-66.5 -112q-4 -25 3.5 -51t19.5 -46t38 -46.5t44.5 -42.5t53.5 -45z" />
    <glyph glyph-name="arrowleft" unicode="&#x2190;" horiz-adv-x="1468" 
d="M909 219l-704 416l6 24l833 416l-6 -26l-563 -361l1041 -2l-17 -80l-1034 -2l446 -356z" />
    <glyph glyph-name="arrowup" unicode="&#x2191;" horiz-adv-x="1021" 
d="M489 0l164 1036l-438 -504h-29l539 768h27l292 -768h-28l-279 504l-164 -1036h-84z" />
    <glyph glyph-name="arrowright" unicode="&#x2192;" horiz-adv-x="1466" 
d="M668 211l6 29l561 360h-1036l14 80l1036 2l-450 358l6 29l702 -418l-2 -22z" />
    <glyph glyph-name="arrowdown" unicode="&#x2193;" horiz-adv-x="1021" 
d="M518 -14l-297 770h29l280 -506l166 1038l80 -2l-164 -1036l439 506h28l-536 -768z" />
    <glyph glyph-name="arrowboth" unicode="&#x2194;" horiz-adv-x="2101" 
d="M907 219l-704 416l6 22l833 418l-4 -28l-565 -361h1413l-450 361l4 28l702 -418l-2 -22l-835 -416l4 29l561 358h-1405l446 -358z" />
    <glyph glyph-name="arrowupdn" unicode="&#x2195;" horiz-adv-x="1021" 
d="M492 -166l-295 766l30 2l279 -504l221 1405l-438 -504h-29l539 770l24 -2l295 -768h-28l-279 508l-225 -1413l442 508h29l-541 -768h-24z" />
    <glyph glyph-name="uni2196" unicode="&#x2196;" horiz-adv-x="1124" 
d="M1026 160l-614 731l8 -608l-25 -23l-119 840l23 14l799 -248l-23 -18l-598 102l621 -735z" />
    <glyph glyph-name="uni2197" unicode="&#x2197;" horiz-adv-x="1120" 
d="M186 162l-49 59l850 733l-627 -104l-18 20l879 250l12 -18l-381 -838l-16 21l198 610z" />
    <glyph glyph-name="uni2198" unicode="&#x2198;" horiz-adv-x="1122" 
d="M1069 174l-797 248l23 18l596 -102l-619 735l68 55l618 -731l-8 611l23 20l119 -840z" />
    <glyph glyph-name="uni2199" unicode="&#x2199;" horiz-adv-x="1118" 
d="M143 166l-12 20l383 838l14 -20l-200 -613l852 735l45 -61l-846 -731l625 104l18 -20z" />
    <glyph glyph-name="partialdiff" unicode="&#x2202;" horiz-adv-x="1251" 
d="M637 -20q-229 0 -359.5 143t-99.5 358q15 101 60.5 190t108.5 149t137.5 101.5t151.5 50.5t145.5 -6.5t124 -69t83.5 -136.5q40 626 -377 670l4 26q165 -6 300.5 -66.5t227 -165t131.5 -256.5t15 -331q-25 -186 -121 -337t-236.5 -235.5t-295.5 -84.5zM639 33
q116 0 209 161t127 408l4 47q-36 165 -134 220q-88 49 -181 -13q-111 -74 -166 -266q-16 -57 -25 -121q-29 -201 13 -318.5t153 -117.5z" />
    <glyph glyph-name="emptyset" unicode="&#x2205;" horiz-adv-x="1206" 
d="M324 92q-85 72 -123.5 180.5t-18.5 235.5q23 143 111.5 263t220 189.5t274.5 69.5q152 0 265 -80l188 219h78l-217 -260q77 -72 110 -176t13 -225q-34 -218 -209.5 -370t-392.5 -152q-130 0 -240 63l-172 -205h-94zM973 854q-86 61 -203 61q-167 0 -305 -119t-166 -288
q-15 -97 13 -181.5t91 -140.5zM641 102q167 0 305 119.5t164 286.5q15 89 -9 168.5t-79 136.5l-559 -666q79 -45 178 -45z" />
    <glyph glyph-name="product" unicode="&#x220f;" horiz-adv-x="1732" 
d="M467 6l252 1587h-365l11 64h1568l-10 -64h-369l-251 -1587h-261l252 1587h-315l-252 -1587h-260z" />
    <glyph glyph-name="summation" unicode="&#x2211;" horiz-adv-x="1206" 
d="M109 0l28 180l641 692l-422 691l29 180h944l62 -187h-947l430 -686l-647 -684h947l-121 -186h-944z" />
    <glyph glyph-name="minus" unicode="&#x2212;" horiz-adv-x="1069" 
d="M209 668l14 94h905l-14 -94h-905z" />
    <glyph glyph-name="radical" unicode="&#x221a;" horiz-adv-x="1599" 
d="M367 -20l-144 782h289l104 -631l791 1571h401l-106 -219h-332l-762 -1503h-241z" />
    <glyph glyph-name="infinity" unicode="&#x221e;" horiz-adv-x="2084" 
d="M1665 436q-114 0 -227 67.5t-213 194.5q-78 -49 -124.5 -77.5t-120.5 -68.5t-129.5 -61t-123 -37t-129.5 -16q-102 0 -180 32.5t-121 87t-60 121.5t-6 140q12 74 51 142.5t101.5 123.5t155 87.5t200.5 31.5q114 -1 213.5 -63.5t204.5 -192.5q95 61 155 96t146.5 78
t164 63t151.5 19q105 -1 185 -35t124.5 -90.5t62 -126.5t4.5 -145q-11 -71 -48 -136.5t-96.5 -118.5t-148 -84.5t-192.5 -31.5zM618 705q97 0 205.5 50.5t263.5 147.5q-179 225 -352 225q-148 0 -240.5 -67t-105.5 -156q-13 -82 46 -141t183 -59zM1665 516q137 0 220.5 62.5
t96.5 150.5q15 85 -45 148t-182 63q-94 0 -201.5 -50t-265.5 -149q89 -111 186.5 -168t190.5 -57z" />
    <glyph glyph-name="integral" unicode="&#x222b;" horiz-adv-x="1148" 
d="M68 -217q59 -7 110.5 10t91 53.5t74.5 92.5t62 122t51.5 147t46 163t43.5 173q13 55 20 83q79 312 124 438q113 318 280 424q149 94 358 41l-2 -21q-55 9 -102 2t-86 -39.5t-69 -61.5t-60 -95.5t-48 -107.5t-42.5 -132t-35.5 -134t-35 -145q-28 -116 -42 -173
q-86 -338 -158 -500q-128 -290 -326 -358q-115 -40 -260 -9z" />
    <glyph glyph-name="approxequal" unicode="&#x2248;" horiz-adv-x="1046" 
d="M254 961q61 48 120 66.5t118 7.5t102 -28t106 -48q9 -5 13 -7q51 -24 80 -35.5t77 -23.5t85 -8.5t84.5 21.5t93.5 55l-15 -101q-35 -28 -71.5 -45t-65 -25.5t-67 -5.5t-60 5.5t-63 19t-57 23.5t-60.5 29q-15 7 -23 11q-46 22 -77 34.5t-76.5 23t-83 7t-83.5 -22
t-91 -54.5zM203 608q35 28 71.5 45t66 25t66.5 5.5t60.5 -6.5t62.5 -19t57.5 -23.5t59.5 -28.5q38 -19 58.5 -28.5t57 -23t61 -17.5t59.5 -6t64.5 6.5t64.5 25.5t69 45l-16 -102q-48 -38 -97 -56.5t-89 -20.5t-87 10.5t-82.5 27.5t-83.5 39q-21 11 -32 16q-56 27 -96 40.5
t-93.5 19.5t-108 -13t-110.5 -63z" />
    <glyph glyph-name="notequal" unicode="&#x2260;" horiz-adv-x="1069" 
d="M244 121l254 420h-310l15 92h350l111 186h-433l15 92h471l246 408h102l-246 -408h332l-14 -92h-373l-109 -186h453l-14 -92h-496l-252 -420h-102z" />
    <glyph glyph-name="lessequal" unicode="&#x2264;" horiz-adv-x="1089" 
d="M1073 285l-850 465l998 467l-17 -111l-772 -356l660 -355zM143 152l15 94h909l-14 -94h-910z" />
    <glyph glyph-name="greaterequal" unicode="&#x2265;" horiz-adv-x="1089" 
d="M147 285l19 110l770 355l-657 356l16 111l850 -467zM127 152l14 94h910l-15 -94h-909z" />
    <glyph glyph-name="lozenge" unicode="&#x25ca;" horiz-adv-x="997" 
d="M518 -12l-303 725l533 725l301 -727zM543 150l409 561l-231 563l-410 -561z" />
    <glyph glyph-name="uniE000" unicode="&#xe000;" horiz-adv-x="1513" 
d="M768 1278q-58 108 -164 108l8 48h207q153 0 237 -61t113 -204l168 -796q13 -69 23.5 -112t28 -88t38 -69t51.5 -39.5t72 -15.5l-8 -49h-199q-153 0 -238 62t-112 204l-39 170h-563l-231 -436h-74zM426 502h516l-113 561q-1 5 -6 32t-11.5 54.5t-14.5 52.5z" />
    <glyph glyph-name="uniE001" unicode="&#xe001;" horiz-adv-x="1533" 
d="M338 1176q32 210 -127 210l8 48h160q160 0 231.5 -42.5t72.5 -120t-15 -186.5l-50 -305h543l105 654h346l-187 -1174q-32 -211 125 -211l-8 -49h-158q-55 0 -99 5.5t-76.5 13.5t-56 24t-38.5 31t-23 41t-11.5 47.5t-1.5 56t5.5 61.5t10.5 70l57 363h-543l-112 -713h-344z
" />
    <glyph glyph-name="uniE002" unicode="&#xe002;" horiz-adv-x="1503" 
d="M1001 0l-385 680l908 754h92l-684 -568l489 -866h-420zM338 1176q32 210 -127 210l8 48h160q160 0 231.5 -42.5t72.5 -120t-15 -186.5l-172 -1085h-344z" />
    <glyph glyph-name="uniE003" unicode="&#xe003;" horiz-adv-x="1941" 
d="M356 1296q-56 90 -145 90l8 48h242q145 0 214 -59.5t99 -198.5l199 -865l700 1123h344l-227 -1434h-344l203 1274l-654 -1047q53 -178 199 -178l-8 -49h-240q-148 0 -222.5 59.5t-105.5 200.5l-212 926l-189 -1186h-65z" />
    <glyph glyph-name="uniE004" unicode="&#xe004;" horiz-adv-x="1456" 
d="M1470 -319q-83 0 -141.5 9.5t-115.5 35.5t-103 76.5t-86 129.5l-618 1252l-189 -1184h-65l206 1305q-50 81 -147 81l8 48h172q85 0 136 -5.5t102 -23.5t86 -54.5t65 -97.5l502 -999l186 1180h66l-203 -1280l90 -185q25 -49 47 -84.5t54 -74.5t71 -59.5t82 -20.5h15
l-9 -49h-211z" />
    <glyph glyph-name="uniE005" unicode="&#xe005;" horiz-adv-x="1888" 
d="M1466 -561q-86 0 -151 28t-104.5 73t-69.5 100t-52 111.5t-44 105t-54.5 83t-75.5 42.5q-233 5 -397 99t-235.5 260t-36.5 378q34 217 162 384t327.5 259t438.5 92q240 0 410.5 -92t246 -259t41.5 -384q-49 -301 -270.5 -500t-540.5 -231q47 -26 95 -72.5t86.5 -90
t82 -84.5t100.5 -66t123 -25q65 0 117.5 14.5t107.5 60.5t95 123h20q-76 -227 -173.5 -318t-248.5 -91zM956 45q214 0 363.5 178t200.5 496q49 317 -44 493.5t-307 176.5q-219 0 -369.5 -176.5t-199.5 -493.5q-51 -318 43.5 -496t312.5 -178z" />
    <glyph glyph-name="uniE006" unicode="&#xe006;" horiz-adv-x="1540" 
d="M338 1176q32 210 -127 210l8 48h762q115 0 205 -13t152 -37t104.5 -58t62.5 -76.5t26 -92.5t-5 -106q-10 -63 -36 -117t-72 -102t-120.5 -84.5t-171.5 -55.5l281 -692h-397l-271 668h-137l-106 -668h-344zM795 731q169 0 261 85.5t115 234.5q25 149 -40.5 233t-235.5 84
h-254q28 -28 36.5 -76t5 -89t-14.5 -116l-56 -356h183z" />
    <glyph glyph-name="uniE007" unicode="&#xe007;" horiz-adv-x="1406" 
d="M680 -23q-132 0 -245.5 37.5t-190.5 117.5t-82 190h63q5 -81 73.5 -144t165.5 -94t200 -31q139 0 242.5 60.5t121.5 175.5q9 60 -10.5 108t-59.5 81t-95 60.5t-116.5 53t-122.5 52t-114.5 63t-91.5 81.5t-54.5 111.5t-3.5 149.5q20 127 108.5 221.5t203 139t235.5 44.5
q77 0 143 -20.5t116.5 -60.5t75 -105.5t15.5 -147.5h-63q7 82 -28.5 143t-93.5 89t-128 28q-101 0 -177.5 -54t-92.5 -155q-9 -55 11.5 -98t61.5 -72t96 -54t117 -48.5t123 -49.5t114.5 -63.5t92 -85t54.5 -119t2 -159.5q-17 -107 -81.5 -193.5t-158 -140.5t-203 -82.5
t-223.5 -28.5z" />
    <glyph glyph-name="uniE008" unicode="&#xe008;" horiz-adv-x="1515" 
d="M1022 -309q-167 0 -259 84t-132 270l-221 1079q-10 40 -18 68.5t-25 68.5t-37 64.5t-51.5 42.5t-69.5 18l8 48h229q149 0 218.5 -57.5t99.5 -200.5l184 -885l637 1143h74l-692 -1237l18 -86l12 -58.5t13.5 -56.5t17.5 -57.5t21.5 -52t27.5 -49.5t35 -39.5t44 -32.5
t53 -19t65 -8h22l-8 -47h-266z" />
    <glyph glyph-name="uniE009" unicode="&#xe009;" horiz-adv-x="2308" 
d="M975 -309q-169 0 -260.5 83t-126.5 271l-195 1079q-8 42 -14.5 69t-21.5 67.5t-32.5 65t-47.5 42.5t-68 18l8 48h229q146 0 211 -57t93 -201l161 -902l396 895q-10 45 -21.5 78t-31.5 67.5t-51.5 53t-72.5 18.5l9 48h229q146 0 210 -57t91 -201l164 -914l518 1172h72
l-572 -1280l9 -39q30 -158 59 -222q64 -146 213 -153l35 -2l-8 -47h-267q-168 0 -259.5 83t-125.5 271l-178 1010l-397 -891l8 -51q8 -46 14 -75t18 -71.5t25 -69.5t34 -58.5t46 -50t61 -32t79 -16.5l30 -2l-8 -47h-264z" />
    <glyph glyph-name="uniE00A" unicode="&#xe00a;" horiz-adv-x="1499" 
d="M1370 -309q-80 0 -141 20t-109 62.5t-84.5 99.5t-72.5 141l-226 531l-518 -545h-86l580 606l-226 533q-49 113 -79 156q-64 91 -148 91l8 48h279q59 0 103.5 -10.5t75 -28t57 -51.5t44 -68.5t41.5 -91.5l123 -293l518 543h84l-577 -605l338 -796q20 -47 35.5 -80t43 -77
t54 -71.5t64.5 -47t79 -19.5h27l-8 -47h-279z" />
    <glyph glyph-name="uniE00B" unicode="&#xe00b;" horiz-adv-x="1513" 
d="M1425 -309q-168 0 -257.5 81.5t-129.5 266.5l-82 397h-565l-231 -436h-74l680 1276q-63 110 -162 110l8 48h240q130 0 209.5 -61t107.5 -197l213 -1035q35 -164 56 -220q53 -144 164 -174q32 -9 71 -9h27l-8 -47h-267zM426 502h518l-125 588q-8 48 -24 108z" />
    <glyph glyph-name="uniE00C" unicode="&#xe00c;" horiz-adv-x="1572" 
d="M1817 -393q-116 -7 -209.5 -11.5t-169.5 14.5t-135 38.5t-104.5 59.5t-78.5 78.5t-56.5 95.5t-39 109.5t-26.5 121.5t-18.5 131.5t-14.5 138.5q-6 62 -9 94q-10 93 -30 132q-54 104 -260 106q-21 1 -45 0l899 719h94l-778 -619q98 9 174.5 -2t126.5 -36t85.5 -67
t53.5 -89t29 -107q7 -45 16 -112t15 -119.5t17 -119.5t22.5 -119t31.5 -109t44.5 -99t60.5 -80.5t79.5 -61.5t102.5 -33.5t129 -4.5zM338 1176q32 210 -127 210l8 48h160q160 0 231.5 -42.5t72.5 -120t-15 -186.5l-172 -1085h-344z" />
    <glyph glyph-name="uniE00D" unicode="&#xe00d;" horiz-adv-x="1941" 
d="M1104 -309q-167 0 -265.5 85t-148.5 267l-284 1141l-189 -1184h-65l204 1296q-58 90 -145 90l8 48h225q147 0 221.5 -60t108.5 -198l217 -834l682 1092h344l-227 -1434h-344l203 1274l-637 -1016l39 -154q35 -142 47 -177q50 -139 150 -175q40 -14 89 -14h23l-8 -47h-248
z" />
    <glyph glyph-name="uniE00E" unicode="&#xe00e;" horiz-adv-x="1542" 
d="M338 1176q32 210 -127 210l8 48h160q191 0 257 -59t46 -181l-2 -20q78 137 205.5 210.5t285.5 73.5q249 0 328.5 -137.5t32.5 -439.5l-139 -881h-346l143 907q31 175 27 278.5t-41 145.5t-119 41q-61 0 -126.5 -33t-125.5 -94.5t-106.5 -160.5t-65.5 -218l-137 -866h-344
z" />
    <glyph glyph-name="uniE00F" unicode="&#xe00f;" horiz-adv-x="1540" 
d="M1845 -401q-110 -11 -201.5 -12.5t-165 8.5t-132.5 26.5t-104.5 46t-80 62t-61 79.5t-45 92.5t-34.5 108t-28 120t-26 132.5q-1 8 -2 12q-31 176 -52 236q-40 117 -122 158h-189l-106 -668h-344l186 1176q32 210 -127 210l8 48h727q115 0 205 -13t152 -37t104.5 -58
t62.5 -76.5t26 -92.5t-5 -106q-11 -66 -39 -122.5t-77 -107t-128.5 -86.5t-183.5 -53q66 -5 118 -37t88 -86.5t60 -118.5t41 -145q50 -246 85 -346q75 -211 215 -273q78 -35 183 -28zM762 731q169 0 260.5 85t114.5 235q25 149 -40 233t-235 84h-221q28 -28 36.5 -76t5 -89
t-14.5 -116l-56 -356h150z" />
    <glyph glyph-name="uniE010" unicode="&#xe010;" horiz-adv-x="2275" 
d="M338 1176q32 210 -127 210l8 48h160q184 0 253.5 -54t51.5 -166l-2 -16q72 125 185 192.5t251 67.5q177 0 265 -76t100 -237q74 150 194 231.5t273 81.5q237 0 316 -138.5t32 -438.5l-139 -881h-347l144 905q38 265 8 364t-133 99q-53 -1 -108.5 -33.5t-106.5 -93
t-92 -158t-60 -217.5l-137 -866h-344l143 905q20 132 22 221.5t-15.5 143t-49.5 76t-84 22.5q-53 -1 -108.5 -33.5t-106.5 -93t-91.5 -158t-59.5 -217.5l-137 -866h-344z" />
    <glyph glyph-name="uniE011" unicode="&#xe011;" horiz-adv-x="1378" 
d="M551 -20q-94 0 -173.5 34.5t-136.5 99.5t-80 168t-3 230q20 128 76 231t133.5 167.5t168 99t185.5 34.5q110 0 196 -46.5t127 -131.5l25 158h324l-121 -764q-32 -211 125 -211l-8 -49h-154q-158 0 -226 38t-77 122q-73 -91 -172.5 -135.5t-208.5 -44.5zM682 78
q81 0 153 67.5t107 176.5l59 383q0 110 -50 174.5t-132 64.5t-149 -64t-106 -159t-56 -209q-16 -83 -12.5 -161t21 -139t60.5 -97.5t105 -36.5z" />
    <glyph glyph-name="uniE012" unicode="&#xe012;" horiz-adv-x="1378" 
d="M551 -20q-94 0 -173 34.5t-136 99.5t-80.5 168t-3.5 230q20 128 76 231t134 167.5t168.5 99t184.5 34.5q103 0 185 -41t126 -116l53 346q4 24 5.5 43t0.5 45.5t-8.5 46.5t-21 38t-38.5 28t-60 10l6 49h155q161 0 231.5 -42t71 -120t-15.5 -188l-139 -883
q-32 -211 125 -211l-8 -49h-154q-156 0 -223 37.5t-78 118.5q-66 -88 -167.5 -132t-215.5 -44zM682 78q81 0 153 67.5t107 176.5l59 383q0 110 -50 174.5t-132 64.5t-149 -64t-106 -159t-56 -209q-16 -83 -12.5 -161t21 -139t60.5 -97.5t105 -36.5z" />
    <glyph glyph-name="uniE013" unicode="&#xe013;" horiz-adv-x="698" 
d="M119 0l151 958h-131l11 66h133l6 39q17 109 73 196.5t136.5 141t177.5 80.5t201 24q135 -3 213 -61.5t75 -165.5h-53q0 76 -49.5 120t-126.5 44q-140 0 -210.5 -84.5t-96.5 -251.5l-15 -82h238l-10 -66h-232l-151 -958h-340z" />
    <glyph glyph-name="uniE014" unicode="&#xe014;" horiz-adv-x="1329" 
d="M541 -573q-159 0 -282 64t-167 190h55q23 -64 82.5 -109t124 -62.5t129.5 -17.5q176 0 268.5 106t122.5 298l39 241q-68 -73 -164 -115t-198 -42q-94 0 -173 34.5t-136 99.5t-80.5 168t-3.5 230q20 128 76 231t134 167.5t168.5 99t184.5 34.5q110 0 196 -46.5t127 -131.5
l25 158h324l-172 -1087q-16 -103 -63 -188.5t-114 -144t-150.5 -99.5t-172 -59.5t-180.5 -18.5zM682 78q81 0 153 67.5t107 176.5l59 383q0 110 -50 174.5t-132 64.5t-149 -64t-106 -159t-56 -209q-16 -83 -12.5 -161t21 -139t60.5 -97.5t105 -36.5z" />
    <glyph glyph-name="uniE015" unicode="&#xe015;" horiz-adv-x="1423" 
d="M379 1233q32 211 -125 211l6 49h156q161 0 231.5 -42t70.5 -120t-16 -188l-38 -246q184 150 405 150q78 0 140.5 -20.5t107.5 -62.5t62.5 -112.5t2.5 -163.5l-67 -428q-32 -211 125 -211l-8 -49h-154q-161 0 -231.5 42t-71 120t15.5 188l47 297q12 84 13.5 149.5
t-31 105.5t-102.5 40q-64 0 -137 -33t-130 -90l-129 -819h-338z" />
    <glyph glyph-name="uniE016" unicode="&#xe016;" horiz-adv-x="1359" 
d="M893 0l-275 532l723 492h111l-502 -338l340 -686h-397zM379 1233q32 211 -125 211l6 49h158q50 0 90 -3.5t71 -12.5t54.5 -18t39 -26.5t26 -32t14.5 -40t6 -44.5t-1 -52.5t-6.5 -57t-9.5 -63.5l-180 -1143h-338z" />
    <glyph glyph-name="uniE017" unicode="&#xe017;" horiz-adv-x="739" 
d="M522 0q-159 0 -228.5 42t-69.5 120t16 188l139 883q32 211 -125 211l6 49h158q50 0 90 -3.5t71 -12.5t54.5 -18t39 -26.5t26 -32t14.5 -40t6 -44.5t-1 -52.5t-6.5 -57t-9.5 -63.5l-139 -883q-5 -29 -6 -52.5t5.5 -55t22.5 -52.5t51.5 -36t86.5 -15l-8 -49h-193z" />
    <glyph glyph-name="uniE018" unicode="&#xe018;" horiz-adv-x="1986" 
d="M305 766q32 211 -125 211l6 47h156q147 0 214 -31.5t81 -103.5q95 84 177.5 121t178.5 37q237 0 287 -175q178 175 371 175q162 0 243 -88t52 -271l-68 -428q-32 -211 127 -211l-8 -49h-156q-161 0 -231.5 42t-71 120t15.5 188l48 297q8 48 12 80t5.5 70t-4 62t-17 45
t-34.5 30t-55 8q-96 -3 -215 -131q6 -55 -6 -123l-108 -688h-338l102 647q8 47 12 80t5.5 70.5t-4 61.5t-17.5 45t-34 30t-54 8q-87 -3 -199 -115l-131 -827h-338z" />
    <glyph glyph-name="uniE019" unicode="&#xe019;" horiz-adv-x="1423" 
d="M305 766q32 211 -125 211l6 47h156q154 0 221 -34.5t78 -112.5q109 92 212.5 131t215.5 39q78 0 140.5 -20.5t107.5 -62.5t62.5 -112.5t2.5 -163.5l-67 -428q-32 -211 125 -211l-8 -49h-156q-160 0 -230.5 42t-70.5 120t16 188l47 297q12 84 13.5 149.5t-31 105.5
t-102.5 40q-64 0 -137 -33t-130 -90l-129 -819h-338z" />
    <glyph glyph-name="uniE01A" unicode="&#xe01a;" horiz-adv-x="743" 
d="M420 -20q-151 2 -220 89.5t-42 258.5l100 630h-119l11 66h118l13 74q32 211 -127 213l8 47h155q145 0 216 -33t82.5 -96.5t-1.5 -155.5l-8 -49h217l-10 -66h-217l-113 -714q-7 -52 -8.5 -91.5t21 -64t71.5 -27.5q32 -3 82.5 13t85.5 41l-8 -49q-115 -86 -307 -86z" />
    <glyph glyph-name="uniE01B" unicode="&#xe01b;" horiz-adv-x="1423" 
d="M551 -20q-165 0 -253.5 88.5t-59.5 271.5l67 426q32 211 -125 211l6 47h158q55 0 98.5 -5t76 -13t55.5 -24t38 -30.5t22.5 -41t10.5 -46.5t0.5 -56t-6 -61.5t-10.5 -70.5l-47 -297q-8 -56 -11.5 -94.5t0 -79.5t17 -65.5t41.5 -40t71 -15.5q66 0 138 33t131 92l88 557
q32 211 -125 211l6 47h158q160 0 230 -41.5t70 -119t-16 -187.5l-65 -416q-32 -211 125 -211l-8 -49h-154q-153 0 -219.5 35.5t-77.5 114.5q-191 -170 -430 -170z" />
    <glyph glyph-name="uniE01C" unicode="&#xe01c;" horiz-adv-x="1406" 
d="M1706 -408q-130 -1 -221.5 4t-182 20.5t-155 44.5t-126 76.5t-110.5 116t-94 162.5l-158 344l-399 -360h-96l465 418l-176 352q-7 14 -23 47t-24.5 49.5t-26.5 41.5t-34.5 37.5t-42 22t-56.5 9.5l6 47h287q37 0 65.5 -2t53 -10t41.5 -14.5t35 -24t28 -29t26.5 -40
t25.5 -46t28 -57.5l69 -135l400 358h94l-463 -416l199 -411q7 -14 32.5 -66.5t42.5 -85.5t50.5 -89.5t63 -94t74 -83t89 -72.5t102 -45.5t119.5 -18.5z" />
    <glyph glyph-name="uniE01D" unicode="&#xe01d;" horiz-adv-x="1372" 
d="M584 -594q-158 0 -279.5 63t-165.5 189l56 2q22 -65 80.5 -109.5t122.5 -61.5t130 -17q175 0 266 105t121 298l41 254q-189 -149 -405 -149q-165 0 -253.5 88.5t-59.5 271.5l67 426q32 211 -125 211l6 47h158q55 0 98.5 -5t76 -13t55.5 -24t38 -30.5t22.5 -41t10.5 -46.5
t0.5 -56t-6 -61.5t-10.5 -70.5l-47 -297q-8 -56 -11.5 -94.5t0 -79.5t17 -65.5t41.5 -40t71 -15.5q66 0 138 33t131 92l88 557q32 211 -125 211l6 47h158q160 0 230 -41.5t70 -119t-16 -187.5l-120 -762q-16 -103 -63 -188.5t-113 -143.5t-149 -98.5t-171 -59t-180 -18.5z
" />
    <glyph glyph-name="uniE01E" unicode="&#xe01e;" horiz-adv-x="1226" 
d="M1706 -408q-130 -1 -221.5 4t-182 20.5t-155 44.5t-126 76.5t-110.5 116t-94 162.5l-158 344l-399 -360h-96l465 418l-199 409q-7 14 -32.5 67.5t-42.5 86t-50.5 90t-63 95t-74 83t-89 72t-102 45t-119.5 18.5l8 50q129 1 221 -4t182.5 -21t155 -45t126 -77t110.5 -116.5
t94 -162.5l157 -342l400 358h94l-463 -416l199 -411q8 -15 33 -66.5t42 -85.5t50.5 -90.5t63 -94.5t74 -83t89 -72t102 -45.5t119.5 -17.5z" />
    <glyph glyph-name="uniE01F" unicode="&#xe01f;" horiz-adv-x="1366" 
d="M119 0l151 958h-131l11 66h133l2 14q14 88 55.5 163t99.5 127.5t128.5 90t144 55t145.5 17.5q97 0 173.5 -31.5t113.5 -91.5q182 142 493 117l-8 -45q-55 0 -99 -9.5t-75.5 -24.5t-56 -43.5t-40 -55.5t-28.5 -71.5t-20.5 -80.5t-16.5 -94l-6 -37h234l-11 -66h-233
l-152 -958h-338l152 958h-330l-151 -958h-340zM604 1024h346l4 18q27 179 146 289q-22 44 -70 69t-110 25q-105 0 -191 -78.5t-111 -230.5z" />
    <glyph glyph-name="uniE020" unicode="&#xe020;" horiz-adv-x="1851" 
d="M119 0l151 958h-131l11 66h133l2 14q15 96 58.5 177.5t103 138t132 96t147 58t146.5 18.5q205 0 277 -125q89 78 201.5 119t224.5 41q172 0 274.5 -74t81.5 -201q-10 -76 -72 -129t-139 -53t-121 48t-32 124q10 73 66.5 120.5t129.5 47.5q13 0 49 -8q-65 65 -190 65
q-115 0 -201.5 -76t-111.5 -219l-29 -182h295q161 0 231.5 -41.5t71 -119t-15.5 -187.5l-107 -676h-338l121 764q13 80 8 109q-15 85 -137 85h-123l-151 -958h-340l151 958h-336l-151 -958h-340zM604 1024h354l11 57q22 158 137 279q-47 100 -180 100q-50 0 -96 -16.5
t-87.5 -51t-72 -94t-43.5 -137.5z" />
    <glyph glyph-name="uniE021" unicode="&#xe021;" horiz-adv-x="1175" 
d="M119 0l151 958h-131l11 66h133l12 74q14 88 57.5 164t106 130t138.5 93t156 57.5t158 18.5q105 0 187.5 -32t126.5 -95.5t30 -147.5q-10 -76 -71.5 -129t-136.5 -53q-78 0 -123 49.5t-33 124.5q10 70 65.5 119t124.5 49q33 0 56 -10q-65 65 -191 65q-115 0 -203 -77
t-110 -220l-29 -180h293q162 0 233 -41t71.5 -118.5t-15.5 -188.5l-107 -676h-338l121 764q13 80 8 109q-14 85 -135 85h-125l-151 -958h-340z" />
    <glyph glyph-name="uniE022" unicode="&#xe022;" horiz-adv-x="1505" 
d="M1184 -20q-152 2 -221.5 89t-42.5 259l143 905q33 207 -154 211h-20q-205 -5 -238 -227l-30 -193h229l-10 -66h-230l-151 -958h-340l151 958h-131l11 66h131l4 23q36 231 200.5 338.5t452.5 107.5h145q72 0 126 -11t89 -29t57 -49t31.5 -61t10 -75.5t-3.5 -83t-13 -92.5
l-133 -848q-7 -52 -8.5 -91.5t21 -64t71.5 -27.5q31 -3 81 13t85 41l-8 -49q-111 -86 -305 -86z" />
    <glyph glyph-name="eight.osf" horiz-adv-x="1202" 
d="M604 -16q-102 0 -191 21.5t-154 61.5t-97.5 102t-20.5 138q39 237 369 430q-97 91 -144 180.5t-30 196.5q18 109 99 188.5t188.5 115.5t224.5 36q111 0 200 -33.5t139 -102.5t36 -159q-15 -93 -96 -186t-207 -168q80 -64 121 -100.5t94 -98.5t71 -126.5t6 -137.5
q-11 -70 -51.5 -129t-100.5 -100.5t-135.5 -71t-156.5 -43.5t-164 -14zM545 55q131 0 235.5 60t122.5 168q6 35 -7 71.5t-35 66.5t-61.5 68t-73.5 66t-86 70t-85 71q-118 -56 -220 -160.5t-116 -201.5q-14 -86 28.5 -150.5t121 -96.5t176.5 -32zM874 840q251 147 275 305
q16 107 -52.5 171t-176.5 64q-62 0 -119.5 -22.5t-102 -72.5t-55.5 -118q-7 -46 7.5 -88.5t53.5 -86.5t73.5 -74t96.5 -78z" />
    <glyph glyph-name="five.osf" horiz-adv-x="1222" 
d="M528 -430q-188 0 -299.5 82.5t-128.5 232.5h35q16 -86 67.5 -143.5t116 -80.5t140.5 -23q114 0 205 56.5t144.5 148t72.5 206.5q32 197 -47 308.5t-236 111.5q-89 0 -181.5 -40.5t-205.5 -125.5l201 721h561q76 0 118.5 0.5t80 5t53 8t33.5 17t24.5 23t22.5 34.5h41
q-12 -22 -33 -63q-71 -138 -101 -174q-41 -49 -109 -61q-45 -7 -193 -7h-36h-464l-107 -381q195 129 416 129q145 1 260 -54.5t176 -164.5t39 -250q-19 -121 -82 -220t-153.5 -163t-201.5 -98.5t-229 -34.5z" />
    <glyph glyph-name="four.osf" horiz-adv-x="1179" 
d="M612 -428l66 412h-588l907 1040h191l-156 -981h170l-43 -59h-135l-66 -412h-346zM227 43h459l105 651z" />
    <glyph glyph-name="i.loclTRK" horiz-adv-x="618" 
d="M305 766q32 211 -125 211l6 47h158q55 0 98.5 -5t76 -13t55.5 -24t38 -30.5t22.5 -41t10.5 -46.5t0.5 -56t-6 -61.5t-10.5 -70.5l-107 -676h-338zM457 1141q-69 0 -108.5 46.5t-29.5 115.5q10 70 64.5 114.5t124.5 44.5t109.5 -44.5t29.5 -114.5q-10 -69 -65.5 -115.5
t-124.5 -46.5z" />
    <glyph glyph-name="nine.osf" horiz-adv-x="1224" 
d="M311 -403q430 44 590 669q-71 -108 -167 -162.5t-197 -54.5q-81 0 -154 35t-125.5 97.5t-75 157t-4.5 204.5q37 216 213 360t406 144q156 0 269.5 -80.5t162 -228t14.5 -332.5q-32 -180 -120 -334t-213 -262t-281 -171t-322 -69zM639 137q71 0 147.5 62t139.5 178l10 47
q27 164 20 290.5t-53.5 202.5t-124.5 76q-111 0 -188.5 -117.5t-112.5 -318.5q-34 -199 15.5 -309.5t146.5 -110.5z" />
    <glyph glyph-name="one.osf" horiz-adv-x="770" 
d="M276 0l127 801l-182 -137l12 71l369 293h178l-164 -1028h-340z" />
    <glyph glyph-name="seven.osf" horiz-adv-x="1062" 
d="M225 -410l744 1217h-441q-76 0 -117 -0.5t-79 -5t-52.5 -7.5t-32 -16.5t-24 -23t-22.5 -35.5h-43q12 23 33 63q71 138 100 174q41 49 108 61q44 7 189 7h41h551l-877 -1434h-78z" />
    <glyph glyph-name="six.osf" horiz-adv-x="1224" 
d="M639 -20q-155 0 -268.5 84.5t-161.5 235.5t-16 337q43 239 180.5 424t333.5 286t421 109l-4 -26q-429 -44 -589 -670q71 108 167.5 162.5t196.5 54.5q82 0 154.5 -35.5t124.5 -97.5t74 -157.5t3 -205.5q-37 -215 -212 -358t-404 -143zM655 33q112 0 189 117t112 319
q35 199 -12.5 309.5t-144.5 110.5q-72 0 -149.5 -62t-141.5 -178l-8 -47q-26 -164 -19.5 -290.5t52 -202.5t122.5 -76z" />
    <glyph glyph-name="three.osf" horiz-adv-x="1191" 
d="M514 -430q-188 0 -299.5 82.5t-130.5 232.5h37q22 -125 113 -186t206 -61q85 0 160.5 33t128 87.5t87 123.5t46.5 143q23 146 -44 251t-208 105h-43l412 426h-326h-125t-84 -5t-55.5 -8t-34 -17.5t-25.5 -24t-24 -37.5h-41q10 19 27 55q74 146 104 184q41 51 106 63
q44 8 187 7h53h525l-588 -600q75 3 139 -4t112 -22.5t87 -38.5t64 -52t44 -62t25.5 -69.5t9 -74t-5.5 -74.5q-22 -139 -114 -244t-228.5 -159t-296.5 -54z" />
    <glyph glyph-name="two.osf" horiz-adv-x="958" 
d="M152 20q209 146 348.5 327t163.5 331q19 111 -26.5 177.5t-141.5 66.5q-90 0 -160 -52.5t-88 -156.5h-41q16 105 85.5 182t162 113t194.5 36q75 0 139.5 -21t112 -61.5t69.5 -105t9 -145.5q-8 -50 -34 -99t-68 -93.5t-89 -84.5t-108.5 -80.5t-115 -73.5t-119.5 -72
q-21 -12 -31 -18h168h93.5t70.5 3t52 3.5t37.5 8t27 10t19.5 16.5t17.5 20t18.5 28h40q-19 -33 -44 -78t-34.5 -63.5t-29 -46.5t-27.5 -36.5t-30.5 -23t-38 -17t-49 -8t-64.5 -6t-84 -0.5h-410z" />
    <glyph glyph-name="zero.osf" horiz-adv-x="1234" 
d="M639 -20q-262 0 -383 146.5t-82 393.5q38 236 206 380t429 144q173 0 287.5 -67.5t158.5 -184.5t19 -272q-39 -246 -206.5 -393t-428.5 -147zM649 35q179 0 254 483q74 473 -102 473q-180 0 -256 -473q-22 -146 -23.5 -253.5t30.5 -168.5t97 -61z" />
    </font>
</defs>
</svg>
