<?xml version="1.0" standalone="no"?>
<!DOCTYPE svg PUBLIC "-//W3C//DTD SVG 1.1//EN" "http://www.w3.org/Graphics/SVG/1.1/DTD/svg11.dtd" >
<svg xmlns="http://www.w3.org/2000/svg" xmlns:xlink="http://www.w3.org/1999/xlink" version="1.1">
<metadata>
Created by FontForge 20170731 at Wed Feb 20 16:24:58 2019
 By Aleksey,,,
</metadata>
<defs>
<font id="StyreneAWeb-Regular" horiz-adv-x="600" >
  <font-face 
    font-family="Styrene A Web"
    font-weight="400"
    font-stretch="normal"
    units-per-em="1000"
    panose-1="0 0 0 0 0 0 0 0 0 0"
    ascent="800"
    descent="-200"
    x-height="494"
    cap-height="710"
    bbox="-115 -325 1197 1201"
    underline-thickness="76"
    underline-position="-304"
    unicode-range="U+0020-2013"
  />
<missing-glyph horiz-adv-x="265" 
 />
    <glyph glyph-name=".notdef" horiz-adv-x="265" 
 />
    <glyph glyph-name=".null" horiz-adv-x="0" 
 />
    <glyph glyph-name="nonmarkingreturn" horiz-adv-x="333" 
 />
    <glyph glyph-name="uni0020" unicode=" " horiz-adv-x="265" 
 />
    <glyph glyph-name="uni0021" unicode="!" horiz-adv-x="336" 
d="M123 232v478h90v-478h-90zM110 0v142h116v-142h-116z" />
    <glyph glyph-name="uni002C" unicode="," horiz-adv-x="292" 
d="M140 -214h-74q74 125 76 214h-54v142h116v-134q0 -82 -41 -179q-2 -4 -23 -43z" />
    <glyph glyph-name="uni002D" unicode="-" horiz-adv-x="496" 
d="M84 252v86h328v-86h-328z" />
    <glyph glyph-name="uni002E" unicode="." horiz-adv-x="292" 
d="M88 0v142h116v-142h-116z" />
    <glyph glyph-name="uni0030" unicode="0" horiz-adv-x="692" 
d="M346 722q119 0 183.5 -71t64.5 -188v-216q0 -121 -65.5 -190t-182.5 -69q-119 0 -183.5 71t-64.5 188v216q0 119 66 189t182 70zM346 76q75 0 113.5 48.5t38.5 123.5v214q0 77 -39 124.5t-113 47.5q-75 0 -113.5 -48.5t-38.5 -123.5v-214q0 -77 39.5 -124.5t112.5 -47.5z
" />
    <glyph glyph-name="uni0031" unicode="1" horiz-adv-x="445" 
d="M323 713v-713h-97v600l-176 -102v92l201 123h72z" />
    <glyph glyph-name="uni0032" unicode="2" horiz-adv-x="618" 
d="M574 88v-88h-499v60l240 237q62 62 90 103q31 50 31 103q0 61 -35.5 96t-96.5 35t-96.5 -38.5t-35.5 -100.5v-46h-95v47q0 103 63 164.5t164 61.5t165 -60t64 -159q0 -77 -40.5 -137.5t-114.5 -130.5l-150 -147h346z" />
    <glyph glyph-name="uni0033" unicode="3" horiz-adv-x="642" 
d="M570 194q0 -103 -73.5 -154.5t-179.5 -51.5q-100 0 -172 52.5t-80 147.5h97q11 -55 54 -83.5t101 -28.5q66 0 110.5 31t44.5 93q0 64 -39.5 93.5t-105.5 29.5h-125v88h128q56 0 88.5 28.5t32.5 83.5q0 56 -39 84t-97 28q-55 0 -90.5 -27t-44.5 -80h-96q3 60 38.5 107
t91.5 70q43 17 100 17q100 0 166.5 -50t66.5 -145q0 -108 -99 -154q20 -6 42 -18q80 -51 80 -161z" />
    <glyph glyph-name="uni0034" unicode="4" horiz-adv-x="688" 
d="M650 219h-151v-219h-94v219h-360v53l348 438h106v-407h151v-84zM173 303h232v295z" />
    <glyph glyph-name="uni0035" unicode="5" horiz-adv-x="651" 
d="M114 314v396h436v-88h-344v-206q52 52 144 52q103 0 165 -66t62 -168v-11q0 -107 -71 -171t-178 -64q-102 0 -172 55.5t-77 152.5h95q3 -18 12 -39q14 -40 54.5 -60.5t87.5 -20.5q66 0 109.5 41t43.5 106v10q0 69 -42 108t-111 39q-84 0 -134 -66h-80z" />
    <glyph glyph-name="uni0036" unicode="6" horiz-adv-x="654" 
d="M582 230q0 -111 -73 -176.5t-183 -65.5q-114 0 -184 65.5t-70 176.5q0 52 18 101.5t37.5 79t59.5 82.5l166 217h115l-207 -263q37 21 94 21q105 0 166 -67t61 -171zM485 230q0 73 -43.5 114.5t-115.5 41.5q-70 0 -113.5 -44t-43.5 -112q0 -69 44 -111.5t113 -42.5
q72 0 115.5 42t43.5 112z" />
    <glyph glyph-name="uni0037" unicode="7" horiz-adv-x="618" 
d="M563 637l-352 -637h-106l348 622h-388v88h498v-73z" />
    <glyph glyph-name="uni0038" unicode="8" horiz-adv-x="670" 
d="M590 192q0 -99 -71 -151.5t-173 -52.5h-27q-102 0 -170.5 53.5t-68.5 150.5q0 59 35.5 108.5t91.5 65.5q-52 16 -82.5 60t-30.5 100q0 95 65.5 145.5t162.5 50.5h26q99 0 163.5 -51t64.5 -145q0 -57 -30 -100.5t-83 -59.5q57 -16 92 -65.5t35 -108.5zM348 636h-26
q-57 0 -94.5 -29.5t-37.5 -84.5t37.5 -84.5t94.5 -29.5h26q57 0 94.5 29.5t37.5 84.5t-37.5 84.5t-94.5 29.5zM350 322h-30q-61 0 -101.5 -32t-40.5 -92q0 -59 41 -91.5t101 -32.5h30q61 0 101.5 32t40.5 92t-40 92t-102 32z" />
    <glyph glyph-name="uni0039" unicode="9" horiz-adv-x="654" 
d="M467 217l-166 -217h-115l207 263q-36 -21 -94 -21q-105 0 -166 67t-61 171q0 111 73 176.5t183 65.5q115 0 184.5 -65t69.5 -177q0 -73 -28.5 -130t-86.5 -133zM169 480q0 -72 44 -114t115 -42q70 0 113.5 44t43.5 112q0 99 -90 142q-30 12 -67 12q-71 0 -115 -42.5
t-44 -111.5z" />
    <glyph glyph-name="uni003A" unicode=":" horiz-adv-x="302" 
d="M93 0v142h116v-142h-116zM93 343v142h116v-142h-116z" />
    <glyph glyph-name="uni003B" unicode=";" horiz-adv-x="302" 
d="M93 343v142h116v-142h-116zM145 -214h-74q74 125 76 214h-54v142h116v-134q0 -82 -41 -179q-2 -4 -23 -43z" />
    <glyph glyph-name="uni003F" unicode="?" horiz-adv-x="544" 
d="M257 232h-92v8q0 49 16 73t60 54l72 50q79 53 79 120q0 50 -31 76.5t-81 26.5q-53 0 -83 -32.5t-30 -85.5v-32h-89v35q0 92 54.5 144.5t147.5 52.5q92 0 148.5 -47.5t56.5 -137.5q0 -63 -31 -106.5t-91 -83.5l-72 -49q-34 -24 -34 -66zM153 0v142h116v-142h-116z" />
    <glyph glyph-name="uni0041" unicode="A" horiz-adv-x="800" 
d="M665 0l-79 171h-378l-79 -171h-96l328 714h77l329 -714h-102zM248 259h298l-149 324z" />
    <glyph glyph-name="uni0042" unicode="B" horiz-adv-x="784" 
d="M110 0v710h348q106 0 172 -46t66 -146q0 -50 -32.5 -90.5t-81.5 -54.5q27 -8 50 -21q24 -16 41 -36q38 -53 38 -112q0 -106 -68 -155t-178 -49h-355zM456 621h-250v-210h250q140 0 140 105t-140 105zM463 322h-257v-233h257q150 0 150 117q0 116 -150 116z" />
    <glyph glyph-name="uni0043" unicode="C" horiz-adv-x="809" 
d="M420 -12q-152 0 -251.5 107.5t-99.5 259.5q0 155 100 261t251 106q113 0 205 -58t122 -162h-101q-28 61 -91.5 95t-134.5 34q-113 0 -181.5 -81t-68.5 -195q0 -115 69 -195.5t181 -80.5q157 0 228 130h99q-17 -67 -68 -118.5t-119 -78.5q-59 -24 -140 -24z" />
    <glyph glyph-name="uni0044" unicode="D" horiz-adv-x="832" 
d="M110 0v710h280q169 0 270.5 -95.5t101.5 -259.5q0 -166 -104 -260.5t-268 -94.5h-280zM390 621h-183v-532h183q125 0 198.5 72t73.5 194q0 127 -73.5 196.5t-198.5 69.5z" />
    <glyph glyph-name="uni0045" unicode="E" horiz-adv-x="749" 
d="M110 0v710h556v-90h-460v-198h275v-90h-275v-242h500v-90h-596z" />
    <glyph glyph-name="uni0046" unicode="F" horiz-adv-x="724" 
d="M110 0v710h576v-91h-479v-197h279v-91h-279v-331h-97z" />
    <glyph glyph-name="uni0047" unicode="G" horiz-adv-x="847" 
d="M758 398v-300q-56 -56 -138.5 -83t-171.5 -27q-167 0 -273 102t-106 266q0 158 102 262t258 104q107 0 190.5 -45.5t119.5 -137.5h-101q-69 93 -209 93q-119 0 -189.5 -79t-70.5 -197q0 -126 78 -202t201 -76q139 0 218 58v175h-280v87h372z" />
    <glyph glyph-name="uni0048" unicode="H" horiz-adv-x="850" 
d="M643 0v313h-436v-313h-97v710h97v-307h436v307h97v-710h-97z" />
    <glyph glyph-name="uni0049" unicode="I" horiz-adv-x="319" 
d="M111 0v710h97v-710h-97z" />
    <glyph glyph-name="uni004A" unicode="J" horiz-adv-x="663" 
d="M556 710v-487q0 -111 -63 -172.5t-172 -61.5q-110 0 -171 63t-61 171v189h96v-189q0 -65 36 -103.5t100 -38.5q66 0 102 38t36 104v487h97z" />
    <glyph glyph-name="uni004B" unicode="K" horiz-adv-x="780" 
d="M632 0l-425 330v-330h-97v710h97v-328l409 328h137l-435 -348l453 -362h-139z" />
    <glyph glyph-name="uni004C" unicode="L" horiz-adv-x="704" 
d="M666 91v-91h-556v710h97v-619h459z" />
    <glyph glyph-name="uni004D" unicode="M" horiz-adv-x="1009" 
d="M260 710l247 -576l247 576h145v-710h-92v626l-271 -630h-67l-269 626v-622h-90v710h150z" />
    <glyph glyph-name="uni004E" unicode="N" horiz-adv-x="860" 
d="M750 710v-715h-69l-478 601v-596h-93v710h118l429 -544v544h93z" />
    <glyph glyph-name="uni004F" unicode="O" horiz-adv-x="872" 
d="M436 -12q-159 0 -263 105t-104 262q0 158 105.5 262.5t261.5 104.5q158 0 262.5 -105.5t104.5 -261.5q0 -157 -106 -262t-261 -105zM436 78q117 0 192 80.5t75 196.5q0 118 -76 197.5t-191 79.5q-118 0 -192.5 -80t-74.5 -197q0 -119 75.5 -198t191.5 -79z" />
    <glyph glyph-name="uni0050" unicode="P" horiz-adv-x="778" 
d="M110 0v710h369q110 0 174.5 -49.5t64.5 -155.5q0 -104 -66 -156.5t-173 -52.5h-272v-296h-97zM482 620h-275v-234h275q61 0 98.5 29t37.5 88q0 117 -136 117z" />
    <glyph glyph-name="uni0051" unicode="Q" horiz-adv-x="872" 
d="M803 355q0 -114 -59.5 -205t-163.5 -135l184 -167h-132l-160 142q-3 0 -9 -1t-9 -1q-125 0 -217.5 55.5t-139.5 166.5q-28 66 -28 145q0 158 105.5 262.5t261.5 104.5q158 0 262.5 -105.5t104.5 -261.5zM436 78q117 0 192 80.5t75 196.5q0 118 -76 197.5t-191 79.5
q-118 0 -192.5 -80t-74.5 -197q0 -119 75.5 -198t191.5 -79z" />
    <glyph glyph-name="uni0052" unicode="R" horiz-adv-x="803" 
d="M110 0v710h377q234 0 234 -201q0 -146 -145 -183l172 -326h-103l-170 316h-268v-316h-97zM484 620h-277v-215h277q137 0 137 104q0 62 -36 86.5t-101 24.5z" />
    <glyph glyph-name="uni0053" unicode="S" horiz-adv-x="752" 
d="M346 633q-30 0 -56.5 -4t-54.5 -14.5t-44.5 -32.5t-16.5 -54q0 -86 136 -102l139 -16q106 -11 169.5 -62t63.5 -149q0 -57 -26 -100t-69.5 -66.5t-92 -34.5t-101.5 -11q-126 0 -216.5 52.5t-124.5 163.5h104q58 -127 237 -127q31 0 61.5 5.5t61.5 17.5t50 36.5t19 58.5
t-11 56.5t-34.5 35t-44 18t-54.5 10.5l-140 15q-97 9 -160.5 59t-63.5 140q0 68 43.5 113.5t101.5 63t124 17.5q117 0 204 -45.5t115 -147.5h-101q-52 104 -218 104z" />
    <glyph glyph-name="uni0054" unicode="T" horiz-adv-x="767" 
d="M40 620v90h687v-90h-295v-620h-97v620h-295z" />
    <glyph glyph-name="uni0055" unicode="U" horiz-adv-x="841" 
d="M421 81q102 0 159.5 63t57.5 164v402h96v-410q0 -142 -86.5 -227t-226.5 -85q-147 0 -230.5 84t-83.5 228v410h97v-402q0 -104 58 -165.5t159 -61.5z" />
    <glyph glyph-name="uni0056" unicode="V" horiz-adv-x="797" 
d="M759 710l-312 -713h-91l-318 713h110l256 -587l256 587h99z" />
    <glyph glyph-name="uni0057" unicode="W" horiz-adv-x="1129" 
d="M765 -4l-199 562l-200 -562h-79l-244 714h105l184 -557l196 561h81l197 -566l186 562h94l-237 -714h-84z" />
    <glyph glyph-name="uni0058" unicode="X" horiz-adv-x="813" 
d="M657 0l-254 292l-253 -292h-116l310 360l-304 350h128l239 -278l240 278h119l-300 -346l313 -364h-122z" />
    <glyph glyph-name="uni0059" unicode="Y" horiz-adv-x="765" 
d="M434 302v-302h-97v300l-322 410h123l250 -321l249 321h113z" />
    <glyph glyph-name="uni005A" unicode="Z" horiz-adv-x="782" 
d="M737 90v-90h-682v57l482 563h-472v90h622v-57l-486 -563h536z" />
    <glyph glyph-name="uni0061" unicode="a" horiz-adv-x="659" 
d="M474 0v85q-24 -47 -71.5 -72t-103.5 -25q-109 0 -175 75t-66 184q0 110 67 184.5t174 74.5q103 0 158 -68q14 -20 17 -26v82h91v-494h-91zM476 247q0 75 -44 125t-116 50q-74 0 -119 -50.5t-45 -124.5q0 -79 45 -124q45 -51 119 -51q72 0 116 51t44 124z" />
    <glyph glyph-name="uni0062" unicode="b" horiz-adv-x="665" 
d="M184 80v-80h-90v736h90v-326q23 46 74 71t106 25q111 0 177 -74t66 -185t-67 -185t-176 -74q-45 0 -90.5 18t-71.5 50q-14 15 -18 24zM182 247q0 -78 46 -124q45 -51 120 -51q74 0 120 50.5t46 124.5q0 77 -46 126t-120 49q-75 0 -120.5 -50t-45.5 -125z" />
    <glyph glyph-name="uni0063" unicode="c" horiz-adv-x="594" 
d="M543 340h-92q-41 82 -144 82q-70 0 -113 -52t-43 -123t44 -123t113 -52q103 0 145 82h90q-5 -44 -53 -96q-67 -70 -182 -70q-107 0 -179 76t-72 183q0 108 72 183.5t178 75.5q85 0 152 -43.5t84 -122.5z" />
    <glyph glyph-name="uni0064" unicode="d" horiz-adv-x="667" 
d="M482 0v85q-3 -5 -17 -25q-28 -35 -72 -53.5t-91 -18.5q-110 0 -177 74.5t-67 184.5q0 112 67.5 185.5t176.5 73.5q47 0 91 -17t71 -51q14 -18 18 -26v324h91v-736h-91zM484 247q0 76 -45.5 125.5t-119.5 49.5q-76 0 -121.5 -50t-45.5 -125q0 -76 46.5 -125.5t120.5 -49.5
q75 0 120 50.5t45 124.5z" />
    <glyph glyph-name="uni0065" unicode="e" horiz-adv-x="612" 
d="M308 506q116 0 184 -77.5t68 -192.5h-411q2 -49 30 -91.5t72 -59.5q29 -13 66 -13q44 0 87 17.5t60 51.5h90q-8 -45 -46 -80.5t-85 -54.5q-43 -18 -106 -18q-112 0 -186 74t-74 185t71 185t180 74zM308 428q-58 0 -98.5 -30t-54.5 -86h304q-17 55 -56 85.5t-95 30.5z" />
    <glyph glyph-name="uni0066" unicode="f" horiz-adv-x="489" 
d="M459 412h-192v-412h-91v412h-146v82h146v78q0 164 176 164h199v-82h-189q-95 0 -95 -95v-65h192v-82z" />
    <glyph glyph-name="uni0067" unicode="g" horiz-adv-x="667" 
d="M482 0v84q-3 -6 -17 -26q-58 -71 -163 -71q-110 0 -177 74.5t-67 184.5q0 112 67.5 186t176.5 74q106 0 162 -69q14 -18 18 -26v83h91v-494q0 -115 -72 -175.5t-187 -60.5q-122 0 -195 66q-44 41 -57 90h100q48 -72 152 -72q78 0 123 38t45 114zM484 246q0 74 -45 126
q-50 50 -120 50q-76 0 -121.5 -50t-45.5 -126q0 -75 47 -125t120 -50t119 51t46 124z" />
    <glyph glyph-name="uni0068" unicode="h" horiz-adv-x="652" 
d="M185 267v-267h-91v736h91v-333q24 47 69.5 74.5t98.5 27.5q91 0 153 -62q58 -65 58 -159v-284h-92v267q0 68 -37 111t-104 43t-106.5 -44t-39.5 -110z" />
    <glyph glyph-name="uni0069" unicode="i" horiz-adv-x="281" 
d="M93 589v143h95v-143h-95zM95 0v494h91v-494h-91z" />
    <glyph glyph-name="uni006A" unicode="j" horiz-adv-x="281" 
d="M93 589v143h95v-143h-95zM186 494v-547q0 -171 -168 -171h-133v85h118q92 0 92 96v537h91z" />
    <glyph glyph-name="uni006B" unicode="k" horiz-adv-x="591" 
d="M454 0l-272 228v-228h-88v736h88v-451l258 209h130l-292 -233l305 -261h-129z" />
    <glyph glyph-name="uni006C" unicode="l" horiz-adv-x="283" 
d="M96 0v736h91v-736h-91z" />
    <glyph glyph-name="uni006D" unicode="m" horiz-adv-x="1019" 
d="M185 267v-267h-91v494h91v-91q24 47 68.5 74.5t97.5 27.5q64 0 113 -31t74 -89q23 54 73 87t109 33q91 0 153 -62q58 -65 58 -159v-284h-92v267q0 67 -35.5 110.5t-101.5 43.5t-105 -44t-39 -110v-267h-92v267q0 67 -35.5 110.5t-101.5 43.5t-105 -44t-39 -110z" />
    <glyph glyph-name="uni006E" unicode="n" horiz-adv-x="652" 
d="M185 267v-267h-91v494h91v-91q24 47 69.5 74.5t98.5 27.5q91 0 153 -62q58 -65 58 -159v-284h-92v267q0 68 -37 111t-104 43t-106.5 -44t-39.5 -110z" />
    <glyph glyph-name="uni006F" unicode="o" horiz-adv-x="634" 
d="M317 506q111 0 185.5 -74.5t74.5 -184.5t-75.5 -184.5t-184.5 -74.5q-111 0 -185.5 75t-74.5 184q0 111 75 185t185 74zM317 72q74 0 120 51t46 124q0 75 -46.5 125t-119.5 50q-74 0 -120 -50.5t-46 -124.5t47 -124.5t119 -50.5z" />
    <glyph glyph-name="uni0070" unicode="p" horiz-adv-x="665" 
d="M184 80v-304h-90v718h90v-85q23 46 74 71.5t106 25.5q111 0 177 -74t66 -185q0 -112 -67 -185.5t-176 -73.5q-45 0 -90.5 18t-71.5 50q-14 15 -18 24zM182 247q0 -78 46 -124q45 -51 120 -51q74 0 120 50.5t46 124.5q0 73 -45 125q-50 50 -121 50q-75 0 -120.5 -50
t-45.5 -125z" />
    <glyph glyph-name="uni0071" unicode="q" horiz-adv-x="667" 
d="M482 -223v308q-3 -5 -17 -25q-28 -35 -72 -53.5t-91 -18.5q-110 0 -177 74.5t-67 184.5q0 112 67.5 185.5t176.5 73.5q53 0 105.5 -25t74.5 -69v82h91v-717h-91zM484 247q0 75 -46 125t-119 50q-75 0 -121 -50t-46 -125q0 -78 46 -124q45 -51 121 -51q73 0 119 51t46 124
z" />
    <glyph glyph-name="uni0072" unicode="r" horiz-adv-x="514" 
d="M185 279v-279h-91v494h91v-91q4 12 17 30q21 34 64.5 49.5t90.5 15.5h124v-91h-126q-82 0 -126 -26.5t-44 -101.5z" />
    <glyph glyph-name="uni0073" unicode="s" horiz-adv-x="565" 
d="M331 205l-106 12q-71 7 -116.5 43.5t-45.5 103.5q0 51 33.5 85t77 46.5t92.5 12.5q53 0 98.5 -12t84.5 -43.5t54 -80.5h-97q-1 1 -13 15q-51 43 -127 43q-41 0 -77 -14t-36 -49q0 -55 84 -64q28 -4 52 -6q48 -3 82.5 -10t68.5 -23.5t52 -48.5t18 -80q0 -40 -20 -70.5
t-53.5 -47t-69 -24t-73.5 -7.5q-84 0 -155 39t-91 113h97q5 -20 31.5 -38t51.5 -25q27 -9 66 -9q27 0 52.5 4.5t49 21t23.5 43.5q0 36 -23.5 50.5t-64.5 19.5z" />
    <glyph glyph-name="uni0074" unicode="t" horiz-adv-x="516" 
d="M466 84v-84h-117q-173 0 -173 165v247h-146v82h146v216h91v-216h199v-82h-199v-226q0 -56 23 -79t79 -23h97z" />
    <glyph glyph-name="uni0075" unicode="u" horiz-adv-x="639" 
d="M320 -11q-101 0 -166.5 60.5t-65.5 159.5v285h91v-268q0 -68 36.5 -110t103.5 -42q68 0 104 41.5t36 110.5v268h92v-285q0 -101 -65.5 -160.5t-165.5 -59.5z" />
    <glyph glyph-name="uni0076" unicode="v" horiz-adv-x="581" 
d="M558 494l-229 -503h-73l-233 503h102l170 -381l169 381h94z" />
    <glyph glyph-name="uni0077" unicode="w" horiz-adv-x="869" 
d="M582 -4l-146 373l-146 -373h-73l-189 498h98l134 -365l142 369h76l141 -365l132 361h90l-187 -498h-72z" />
    <glyph glyph-name="uni0078" unicode="x" horiz-adv-x="602" 
d="M467 0l-166 185l-167 -185h-110l222 246l-223 248h118l162 -183l165 183h111l-221 -245l221 -249h-112z" />
    <glyph glyph-name="uni0079" unicode="y" horiz-adv-x="581" 
d="M558 494l-324 -718h-93l106 235l-224 483h103l169 -376l169 376h94z" />
    <glyph glyph-name="uni007A" unicode="z" horiz-adv-x="606" 
d="M562 81v-81h-506v53l329 360h-321v81h462v-51l-334 -362h370z" />
    <glyph glyph-name="uni00A0" unicode="&#xa0;" horiz-adv-x="265" 
 />
    <glyph glyph-name="uni00C0" unicode="&#xc0;" horiz-adv-x="800" 
d="M665 0l-79 171h-378l-79 -171h-96l328 714h77l329 -714h-102zM248 259h298l-149 324zM450 778h-102l-120 150h110z" />
    <glyph glyph-name="uni00C1" unicode="&#xc1;" horiz-adv-x="800" 
d="M665 0l-79 171h-378l-79 -171h-96l328 714h77l329 -714h-102zM248 259h298l-149 324zM349 778l112 150h110l-120 -150h-102z" />
    <glyph glyph-name="uni00C2" unicode="&#xc2;" horiz-adv-x="800" 
d="M665 0l-79 171h-378l-79 -171h-96l328 714h77l329 -714h-102zM248 259h298l-149 324zM480 775l-80 89l-81 -89h-98l139 156h78l136 -156h-94z" />
    <glyph glyph-name="uni00C3" unicode="&#xc3;" horiz-adv-x="800" 
d="M665 0l-79 171h-378l-79 -171h-96l328 714h77l329 -714h-102zM248 259h298l-149 324zM395 816l-38 22q-14 8 -20 11q-9 4 -18 4q-17 0 -17 -24v-56h-73v66q0 94 77 94q25 0 49 -11q23 -12 48 -27l38 -22q24 -15 37 -15q18 0 18 24v56h73v-66q0 -42 -19 -68t-59 -26
q-27 0 -48 12q-18 9 -48 26z" />
    <glyph glyph-name="uni00C4" unicode="&#xc4;" horiz-adv-x="800" 
d="M665 0l-79 171h-378l-79 -171h-96l328 714h77l329 -714h-102zM248 259h298l-149 324zM251 778v139h92v-139h-92zM455 778v139h92v-139h-92z" />
    <glyph glyph-name="uni00C5" unicode="&#xc5;" horiz-adv-x="800" 
d="M665 0l-79 171h-378l-79 -171h-96l328 714h77l329 -714h-102zM248 259h298l-149 324zM399 768q-54 0 -92.5 36.5t-38.5 90.5q0 55 38.5 91t92.5 36q55 0 93 -36.5t38 -90.5q0 -55 -38.5 -91t-92.5 -36zM399 830q28 0 46 18t18 47q0 27 -17 47q-18 18 -47 18
q-28 0 -46 -18t-18 -47q0 -28 18 -46.5t46 -18.5z" />
    <glyph glyph-name="uni00C6" unicode="&#xc6;" horiz-adv-x="1160" 
d="M1117 90v-90h-575v183h-305l-127 -183h-110l497 710h580v-90h-439v-198h254v-90h-254v-242h479zM297 269h245v354z" />
    <glyph glyph-name="uni00C7" unicode="&#xc7;" horiz-adv-x="809" 
d="M475 -156q0 34 -41 34h-86v117q-126 26 -202.5 128t-76.5 232q0 155 100 261t251 106q113 0 205 -58t122 -162h-101q-28 61 -91.5 95t-134.5 34q-113 0 -181.5 -81t-68.5 -195q0 -115 69 -195.5t181 -80.5q157 0 228 130h99q-26 -103 -117 -161t-202 -60v-43h14
q120 0 120 -101q0 -53 -31.5 -81t-85.5 -28h-137v74h126q41 0 41 35z" />
    <glyph glyph-name="uni00C8" unicode="&#xc8;" horiz-adv-x="749" 
d="M110 0v710h556v-90h-460v-198h275v-90h-275v-242h500v-90h-596zM450 778h-102l-120 150h110z" />
    <glyph glyph-name="uni00C9" unicode="&#xc9;" horiz-adv-x="749" 
d="M110 0v710h556v-90h-460v-198h275v-90h-275v-242h500v-90h-596zM337 778l112 150h110l-120 -150h-102z" />
    <glyph glyph-name="uni00CA" unicode="&#xca;" horiz-adv-x="749" 
d="M110 0v710h556v-90h-460v-198h275v-90h-275v-242h500v-90h-596zM480 775l-80 89l-81 -89h-98l139 156h78l136 -156h-94z" />
    <glyph glyph-name="uni00CB" unicode="&#xcb;" horiz-adv-x="749" 
d="M110 0v710h556v-90h-460v-198h275v-90h-275v-242h500v-90h-596zM251 778v139h92v-139h-92zM455 778v139h92v-139h-92z" />
    <glyph glyph-name="uni00CC" unicode="&#xcc;" horiz-adv-x="319" 
d="M111 0v710h97v-710h-97zM210 778h-102l-120 150h110z" />
    <glyph glyph-name="uni00CD" unicode="&#xcd;" horiz-adv-x="319" 
d="M111 0v710h97v-710h-97zM109 778l112 150h110l-120 -150h-102z" />
    <glyph glyph-name="uni00CE" unicode="&#xce;" horiz-adv-x="319" 
d="M111 0v710h97v-710h-97zM240 775l-80 89l-81 -89h-98l139 156h78l136 -156h-94z" />
    <glyph glyph-name="uni00CF" unicode="&#xcf;" horiz-adv-x="319" 
d="M111 0v710h97v-710h-97zM11 778v139h92v-139h-92zM215 778v139h92v-139h-92z" />
    <glyph glyph-name="uni00D1" unicode="&#xd1;" horiz-adv-x="860" 
d="M750 710v-715h-69l-478 601v-596h-93v710h118l429 -544v544h93zM438 816l-38 22q-14 8 -20 11q-9 4 -18 4q-17 0 -17 -24v-56h-73v66q0 94 77 94q25 0 49 -11q22 -12 48 -27l38 -22q24 -15 37 -15q18 0 18 24v56h73v-66q0 -42 -19 -68t-59 -26q-27 0 -48 12q-18 9 -48 26
z" />
    <glyph glyph-name="uni00D2" unicode="&#xd2;" horiz-adv-x="872" 
d="M436 -12q-159 0 -263 105t-104 262q0 158 105.5 262.5t261.5 104.5q158 0 262.5 -105.5t104.5 -261.5q0 -157 -106 -262t-261 -105zM436 78q117 0 192 80.5t75 196.5q0 118 -76 197.5t-191 79.5q-118 0 -192.5 -80t-74.5 -197q0 -119 75.5 -198t191.5 -79zM487 778h-102
l-120 150h110z" />
    <glyph glyph-name="uni00D3" unicode="&#xd3;" horiz-adv-x="872" 
d="M436 -12q-159 0 -263 105t-104 262q0 158 105.5 262.5t261.5 104.5q158 0 262.5 -105.5t104.5 -261.5q0 -157 -106 -262t-261 -105zM436 78q117 0 192 80.5t75 196.5q0 118 -76 197.5t-191 79.5q-118 0 -192.5 -80t-74.5 -197q0 -119 75.5 -198t191.5 -79zM386 778
l112 150h110l-120 -150h-102z" />
    <glyph glyph-name="uni00D4" unicode="&#xd4;" horiz-adv-x="872" 
d="M436 -12q-159 0 -263 105t-104 262q0 158 105.5 262.5t261.5 104.5q158 0 262.5 -105.5t104.5 -261.5q0 -157 -106 -262t-261 -105zM436 78q117 0 192 80.5t75 196.5q0 118 -76 197.5t-191 79.5q-118 0 -192.5 -80t-74.5 -197q0 -119 75.5 -198t191.5 -79zM517 775
l-80 89l-81 -89h-98l139 156h78l136 -156h-94z" />
    <glyph glyph-name="uni00D5" unicode="&#xd5;" horiz-adv-x="872" 
d="M436 -12q-159 0 -263 105t-104 262q0 158 105.5 262.5t261.5 104.5q158 0 262.5 -105.5t104.5 -261.5q0 -157 -106 -262t-261 -105zM436 78q117 0 192 80.5t75 196.5q0 118 -76 197.5t-191 79.5q-118 0 -192.5 -80t-74.5 -197q0 -119 75.5 -198t191.5 -79zM432 816
l-38 22q-14 8 -20 11q-9 4 -18 4q-17 0 -17 -24v-56h-73v66q0 94 77 94q25 0 49 -11q22 -12 48 -27l38 -22q24 -15 37 -15q18 0 18 24v56h73v-66q0 -42 -19 -68t-59 -26q-27 0 -48 12q-18 9 -48 26z" />
    <glyph glyph-name="uni00D6" unicode="&#xd6;" horiz-adv-x="872" 
d="M436 -12q-159 0 -263 105t-104 262q0 158 105.5 262.5t261.5 104.5q158 0 262.5 -105.5t104.5 -261.5q0 -157 -106 -262t-261 -105zM436 78q117 0 192 80.5t75 196.5q0 118 -76 197.5t-191 79.5q-118 0 -192.5 -80t-74.5 -197q0 -119 75.5 -198t191.5 -79zM288 778v139
h92v-139h-92zM492 778v139h92v-139h-92z" />
    <glyph glyph-name="uni00D9" unicode="&#xd9;" horiz-adv-x="841" 
d="M421 81q102 0 159.5 63t57.5 164v402h96v-410q0 -142 -86.5 -227t-226.5 -85q-147 0 -230.5 84t-83.5 228v410h97v-402q0 -104 58 -165.5t159 -61.5zM486 778h-102l-120 150h110z" />
    <glyph glyph-name="uni00DA" unicode="&#xda;" horiz-adv-x="841" 
d="M421 81q102 0 159.5 63t57.5 164v402h96v-410q0 -142 -86.5 -227t-226.5 -85q-147 0 -230.5 84t-83.5 228v410h97v-402q0 -104 58 -165.5t159 -61.5zM356 778l112 150h110l-120 -150h-102z" />
    <glyph glyph-name="uni00DB" unicode="&#xdb;" horiz-adv-x="841" 
d="M421 81q102 0 159.5 63t57.5 164v402h96v-410q0 -142 -86.5 -227t-226.5 -85q-147 0 -230.5 84t-83.5 228v410h97v-402q0 -104 58 -165.5t159 -61.5zM502 775l-80 89l-81 -89h-98l139 156h78l136 -156h-94z" />
    <glyph glyph-name="uni00DC" unicode="&#xdc;" horiz-adv-x="841" 
d="M421 81q102 0 159.5 63t57.5 164v402h96v-410q0 -142 -86.5 -227t-226.5 -85q-147 0 -230.5 84t-83.5 228v410h97v-402q0 -104 58 -165.5t159 -61.5zM273 778v139h92v-139h-92zM477 778v139h92v-139h-92z" />
    <glyph glyph-name="uni00DD" unicode="&#xdd;" horiz-adv-x="765" 
d="M434 302v-302h-97v300l-322 410h123l250 -321l249 321h113zM329 778l112 150h110l-120 -150h-102z" />
    <glyph glyph-name="uni00DF" unicode="&#xdf;" horiz-adv-x="648" 
d="M186 528v-528h-92v534q0 105 59.5 159.5t165.5 54.5q100 0 163.5 -50t63.5 -145q0 -92 -60 -130q-17 -12 -34 -17q65 -17 102 -68t37 -119q0 -106 -63.5 -162.5t-168.5 -56.5h-81v83h64q70 0 112.5 34t42.5 102q0 69 -42 102.5t-113 33.5h-64v81h49q57 0 91 29t34 85
t-37.5 85t-95.5 29q-65 0 -99 -35.5t-34 -100.5z" />
    <glyph glyph-name="uni00E0" unicode="&#xe0;" horiz-adv-x="659" 
d="M474 0v85q-24 -47 -71.5 -72t-103.5 -25q-109 0 -175 75t-66 184q0 110 67 184.5t174 74.5q103 0 158 -68q14 -20 17 -26v82h91v-494h-91zM476 247q0 75 -44 125t-116 50q-74 0 -119 -50.5t-45 -124.5q0 -79 45 -124q45 -51 119 -51q72 0 116 51t44 124zM361 579h-93
l-115 183h100z" />
    <glyph glyph-name="uni00E1" unicode="&#xe1;" horiz-adv-x="659" 
d="M474 0v85q-24 -47 -71.5 -72t-103.5 -25q-109 0 -175 75t-66 184q0 110 67 184.5t174 74.5q103 0 158 -68q14 -20 17 -26v82h91v-494h-91zM476 247q0 75 -44 125t-116 50q-74 0 -119 -50.5t-45 -124.5q0 -79 45 -124q45 -51 119 -51q72 0 116 51t44 124zM260 579l108 183
h100l-115 -183h-93z" />
    <glyph glyph-name="uni00E2" unicode="&#xe2;" horiz-adv-x="659" 
d="M474 0v85q-24 -47 -71.5 -72t-103.5 -25q-109 0 -175 75t-66 184q0 110 67 184.5t174 74.5q103 0 158 -68q14 -20 17 -26v82h91v-494h-91zM476 247q0 75 -44 125t-116 50q-74 0 -119 -50.5t-45 -124.5q0 -79 45 -124q45 -51 119 -51q72 0 116 51t44 124zM390 576l-74 114
l-74 -114h-90l126 193h76l123 -193h-87z" />
    <glyph glyph-name="uni00E3" unicode="&#xe3;" horiz-adv-x="659" 
d="M474 0v85q-24 -47 -71.5 -72t-103.5 -25q-109 0 -175 75t-66 184q0 110 67 184.5t174 74.5q103 0 158 -68q14 -20 17 -26v82h91v-494h-91zM476 247q0 75 -44 125t-116 50q-74 0 -119 -50.5t-45 -124.5q0 -79 45 -124q45 -51 119 -51q72 0 116 51t44 124zM227 575h-72v76
q0 94 79 94q29 0 49 -11q18 -11 42 -32l29 -24q2 -1 8.5 -6t9.5 -7q8 -5 16 -5q17 0 17 23v67h72v-76q0 -94 -79 -94q-28 0 -48 12q-19 10 -43 31l-29 24q-2 1 -8.5 6t-9.5 7q-8 5 -16 5q-17 0 -17 -23v-67z" />
    <glyph glyph-name="uni00E4" unicode="&#xe4;" horiz-adv-x="659" 
d="M474 0v85q-24 -47 -71.5 -72t-103.5 -25q-109 0 -175 75t-66 184q0 110 67 184.5t174 74.5q103 0 158 -68q14 -20 17 -26v82h91v-494h-91zM476 247q0 75 -44 125t-116 50q-74 0 -119 -50.5t-45 -124.5q0 -79 45 -124q45 -51 119 -51q72 0 116 51t44 124zM176 589v139h92
v-139h-92zM364 589v139h92v-139h-92z" />
    <glyph glyph-name="uni00E5" unicode="&#xe5;" horiz-adv-x="659" 
d="M474 0v85q-24 -47 -71.5 -72t-103.5 -25q-109 0 -175 75t-66 184q0 110 67 184.5t174 74.5q103 0 158 -68q14 -20 17 -26v82h91v-494h-91zM476 247q0 75 -44 125t-116 50q-74 0 -119 -50.5t-45 -124.5q0 -79 45 -124q45 -51 119 -51q72 0 116 51t44 124zM316 567
q-54 0 -92.5 36.5t-38.5 90.5q0 55 38.5 91t92.5 36q55 0 93 -36.5t38 -90.5q0 -55 -38.5 -91t-92.5 -36zM316 629q28 0 46 18t18 47q0 27 -17 47q-18 18 -47 18q-28 0 -46 -18t-18 -47q0 -28 18 -46.5t46 -18.5z" />
    <glyph glyph-name="uni00E6" unicode="&#xe6;" horiz-adv-x="961" 
d="M57 156q0 81 56.5 117.5t142.5 36.5h161q0 58 -37.5 87.5t-97.5 29.5q-37 0 -72 -16t-47 -46h-92q13 66 76 104t135 38q137 0 187 -92q30 45 82 68.5t109 23.5q83 0 142.5 -41.5t89.5 -117.5q18 -52 17 -112l-91 1h-316q3 -70 50 -117.5t116 -47.5q38 0 63 9q26 8 43 20
q28 18 39 40h90q-8 -44 -45.5 -80t-84.5 -55q-43 -18 -105 -18q-65 0 -126 31t-92 86q-53 -116 -181 -116q-86 0 -149 43t-63 124zM659 428q-57 0 -97 -31t-54 -87h301q-16 56 -54 87t-96 31zM148 156q0 -46 36.5 -68.5t84.5 -22.5q60 0 104 32.5t44 89.5v50h-157
q-47 0 -79.5 -19t-32.5 -62z" />
    <glyph glyph-name="uni00E7" unicode="&#xe7;" horiz-adv-x="594" 
d="M543 340h-92q-41 82 -144 82q-70 0 -113 -52t-43 -123t44 -123t113 -52q103 0 145 82h90q-5 -44 -53 -96q-62 -66 -175 -70v-43h14q120 0 120 -101q0 -53 -31.5 -81t-85.5 -28h-137v74h126q41 0 41 35q0 34 -41 34h-86v121q-77 17 -127.5 91.5t-50.5 156.5
q0 108 72 183.5t178 75.5q85 0 152 -43.5t84 -122.5z" />
    <glyph glyph-name="uni00E8" unicode="&#xe8;" horiz-adv-x="612" 
d="M308 506q116 0 184 -77.5t68 -192.5h-411q2 -49 30 -91.5t72 -59.5q29 -13 66 -13q44 0 87 17.5t60 51.5h90q-8 -45 -46 -80.5t-85 -54.5q-43 -18 -106 -18q-112 0 -186 74t-74 185t71 185t180 74zM308 428q-58 0 -98.5 -30t-54.5 -86h304q-17 55 -56 85.5t-95 30.5z
M353 579h-93l-115 183h100z" />
    <glyph glyph-name="uni00E9" unicode="&#xe9;" horiz-adv-x="612" 
d="M308 506q116 0 184 -77.5t68 -192.5h-411q2 -49 30 -91.5t72 -59.5q29 -13 66 -13q44 0 87 17.5t60 51.5h90q-8 -45 -46 -80.5t-85 -54.5q-43 -18 -106 -18q-112 0 -186 74t-74 185t71 185t180 74zM308 428q-58 0 -98.5 -30t-54.5 -86h304q-17 55 -56 85.5t-95 30.5z
M252 579l108 183h100l-115 -183h-93z" />
    <glyph glyph-name="uni00EA" unicode="&#xea;" horiz-adv-x="612" 
d="M308 506q116 0 184 -77.5t68 -192.5h-411q2 -49 30 -91.5t72 -59.5q29 -13 66 -13q44 0 87 17.5t60 51.5h90q-8 -45 -46 -80.5t-85 -54.5q-43 -18 -106 -18q-112 0 -186 74t-74 185t71 185t180 74zM308 428q-58 0 -98.5 -30t-54.5 -86h304q-17 55 -56 85.5t-95 30.5z
M382 576l-74 114l-74 -114h-90l126 193h76l123 -193h-87z" />
    <glyph glyph-name="uni00EB" unicode="&#xeb;" horiz-adv-x="612" 
d="M308 506q116 0 184 -77.5t68 -192.5h-411q2 -49 30 -91.5t72 -59.5q29 -13 66 -13q44 0 87 17.5t60 51.5h90q-8 -45 -46 -80.5t-85 -54.5q-43 -18 -106 -18q-112 0 -186 74t-74 185t71 185t180 74zM308 428q-58 0 -98.5 -30t-54.5 -86h304q-17 55 -56 85.5t-95 30.5z
M168 589v139h92v-139h-92zM356 589v139h92v-139h-92z" />
    <glyph glyph-name="uni00EC" unicode="&#xec;" horiz-adv-x="281" 
d="M95 0v494h91v-494h-91zM185 579h-93l-115 183h100z" />
    <glyph glyph-name="uni00ED" unicode="&#xed;" horiz-adv-x="281" 
d="M95 0v494h91v-494h-91zM94 579l108 183h100l-115 -183h-93z" />
    <glyph glyph-name="uni00EE" unicode="&#xee;" horiz-adv-x="281" 
d="M212 576l-72 115l-72 -115h-88l122 193h76l119 -193h-85zM95 0v494h91v-494h-91z" />
    <glyph glyph-name="uni00EF" unicode="&#xef;" horiz-adv-x="281" 
d="M1 589v139h92v-139h-92zM187 589v139h92v-139h-92zM95 0v494h91v-494h-91z" />
    <glyph glyph-name="uni00F1" unicode="&#xf1;" horiz-adv-x="652" 
d="M185 267v-267h-91v494h91v-91q24 47 69.5 74.5t98.5 27.5q91 0 153 -62q58 -65 58 -159v-284h-92v267q0 68 -37 111t-104 43t-106.5 -44t-39.5 -110zM240 575h-72v76q0 94 79 94q29 0 49 -11q18 -11 42 -32l29 -24q2 -1 8.5 -6t9.5 -7q8 -5 16 -5q17 0 17 23v67h72v-76
q0 -94 -79 -94q-29 0 -48 12q-19 10 -43 31l-29 24q-2 1 -8.5 6t-9.5 7q-8 5 -16 5q-17 0 -17 -23v-67z" />
    <glyph glyph-name="uni00F2" unicode="&#xf2;" horiz-adv-x="634" 
d="M317 506q111 0 185.5 -74.5t74.5 -184.5t-75.5 -184.5t-184.5 -74.5q-111 0 -185.5 75t-74.5 184q0 111 75 185t185 74zM317 72q74 0 120 51t46 124q0 75 -46.5 125t-119.5 50q-74 0 -120 -50.5t-46 -124.5t47 -124.5t119 -50.5zM362 579h-93l-115 183h100z" />
    <glyph glyph-name="uni00F3" unicode="&#xf3;" horiz-adv-x="634" 
d="M317 506q111 0 185.5 -74.5t74.5 -184.5t-75.5 -184.5t-184.5 -74.5q-111 0 -185.5 75t-74.5 184q0 111 75 185t185 74zM317 72q74 0 120 51t46 124q0 75 -46.5 125t-119.5 50q-74 0 -120 -50.5t-46 -124.5t47 -124.5t119 -50.5zM261 579l108 183h100l-115 -183h-93z" />
    <glyph glyph-name="uni00F4" unicode="&#xf4;" horiz-adv-x="634" 
d="M317 506q111 0 185.5 -74.5t74.5 -184.5t-75.5 -184.5t-184.5 -74.5q-111 0 -185.5 75t-74.5 184q0 111 75 185t185 74zM317 72q74 0 120 51t46 124q0 75 -46.5 125t-119.5 50q-74 0 -120 -50.5t-46 -124.5t47 -124.5t119 -50.5zM391 576l-74 114l-74 -114h-90l126 193
h76l123 -193h-87z" />
    <glyph glyph-name="uni00F5" unicode="&#xf5;" horiz-adv-x="634" 
d="M317 506q111 0 185.5 -74.5t74.5 -184.5t-75.5 -184.5t-184.5 -74.5q-111 0 -185.5 75t-74.5 184q0 111 75 185t185 74zM317 72q74 0 120 51t46 124q0 75 -46.5 125t-119.5 50q-74 0 -120 -50.5t-46 -124.5t47 -124.5t119 -50.5zM228 575h-72v76q0 94 79 94q29 0 49 -11
q18 -11 42 -32l29 -24q2 -1 8.5 -6t9.5 -7q8 -5 16 -5q17 0 17 23v67h72v-76q0 -94 -79 -94q-29 0 -48 12q-19 10 -43 31l-29 24q-2 1 -8.5 6t-9.5 7q-8 5 -16 5q-17 0 -17 -23v-67z" />
    <glyph glyph-name="uni00F6" unicode="&#xf6;" horiz-adv-x="634" 
d="M317 506q111 0 185.5 -74.5t74.5 -184.5t-75.5 -184.5t-184.5 -74.5q-111 0 -185.5 75t-74.5 184q0 111 75 185t185 74zM317 72q74 0 120 51t46 124q0 75 -46.5 125t-119.5 50q-74 0 -120 -50.5t-46 -124.5t47 -124.5t119 -50.5zM177 589v139h92v-139h-92zM365 589v139
h92v-139h-92z" />
    <glyph glyph-name="uni00F9" unicode="&#xf9;" horiz-adv-x="637" 
d="M320 -11q-101 0 -166.5 60.5t-65.5 159.5v285h91v-268q0 -68 36.5 -110t103.5 -42q68 0 104 41.5t36 110.5v268h92v-285q0 -101 -65.5 -160.5t-165.5 -59.5zM363 579h-93l-115 183h100z" />
    <glyph glyph-name="uni00FA" unicode="&#xfa;" horiz-adv-x="637" 
d="M320 -11q-101 0 -166.5 60.5t-65.5 159.5v285h91v-268q0 -68 36.5 -110t103.5 -42q68 0 104 41.5t36 110.5v268h92v-285q0 -101 -65.5 -160.5t-165.5 -59.5zM262 579l108 183h100l-115 -183h-93z" />
    <glyph glyph-name="uni00FB" unicode="&#xfb;" horiz-adv-x="637" 
d="M320 -11q-101 0 -166.5 60.5t-65.5 159.5v285h91v-268q0 -68 36.5 -110t103.5 -42q68 0 104 41.5t36 110.5v268h92v-285q0 -101 -65.5 -160.5t-165.5 -59.5zM392 576l-74 114l-74 -114h-90l126 193h76l123 -193h-87z" />
    <glyph glyph-name="uni00FC" unicode="&#xfc;" horiz-adv-x="637" 
d="M320 -11q-101 0 -166.5 60.5t-65.5 159.5v285h91v-268q0 -68 36.5 -110t103.5 -42q68 0 104 41.5t36 110.5v268h92v-285q0 -101 -65.5 -160.5t-165.5 -59.5zM178 589v139h92v-139h-92zM366 589v139h92v-139h-92z" />
    <glyph glyph-name="uni00FD" unicode="&#xfd;" horiz-adv-x="581" 
d="M558 494l-324 -718h-93l106 235l-224 483h103l169 -376l169 376h94zM239 579l108 183h100l-115 -183h-93z" />
    <glyph glyph-name="uni00FF" unicode="&#xff;" horiz-adv-x="581" 
d="M558 494l-324 -718h-93l106 235l-224 483h103l169 -376l169 376h94zM155 589v139h92v-139h-92zM343 589v139h92v-139h-92z" />
    <glyph glyph-name="uni0100" unicode="&#x100;" horiz-adv-x="800" 
d="M665 0l-79 171h-378l-79 -171h-96l328 714h77l329 -714h-102zM248 259h298l-149 324zM564 813h-330v78h330v-78z" />
    <glyph glyph-name="uni0101" unicode="&#x101;" horiz-adv-x="659" 
d="M474 0v85q-24 -47 -71.5 -72t-103.5 -25q-109 0 -175 75t-66 184q0 110 67 184.5t174 74.5q103 0 158 -68q14 -20 17 -26v82h91v-494h-91zM476 247q0 75 -44 125t-116 50q-74 0 -119 -50.5t-45 -124.5q0 -79 45 -124q45 -51 119 -51q72 0 116 51t44 124zM469 621h-306v78
h306v-78z" />
    <glyph glyph-name="uni0102" unicode="&#x102;" horiz-adv-x="800" 
d="M665 0l-79 171h-378l-79 -171h-96l328 714h77l329 -714h-102zM248 259h298l-149 324zM399 843q32 0 50.5 21t18.5 54v13h76v-15q0 -67 -39.5 -106t-105.5 -39q-48 0 -84 22t-51 66q-10 24 -10 57v15h76v-13q0 -33 18.5 -54t50.5 -21z" />
    <glyph glyph-name="uni0103" unicode="&#x103;" horiz-adv-x="659" 
d="M474 0v85q-24 -47 -71.5 -72t-103.5 -25q-109 0 -175 75t-66 184q0 110 67 184.5t174 74.5q103 0 158 -68q14 -20 17 -26v82h91v-494h-91zM476 247q0 75 -44 125t-116 50q-74 0 -119 -50.5t-45 -124.5q0 -79 45 -124q45 -51 119 -51q72 0 116 51t44 124zM316 645
q31 0 47 20t16 52v17h76v-19q0 -66 -37 -104t-102 -38t-102 38.5t-37 103.5v19h76v-17q0 -31 16.5 -51.5t46.5 -20.5z" />
    <glyph glyph-name="uni0104" unicode="&#x104;" horiz-adv-x="800" 
d="M665 0l-79 171h-378l-79 -171h-96l328 714h77l329 -714q-53 -43 -74 -64q-27 -26 -27 -48q0 -30 37 -30h86v-82h-89q-55 0 -92 21.5t-37 71.5q0 27 16 53.5t33 42t45 35.5zM248 259h298l-149 324z" />
    <glyph glyph-name="uni0105" unicode="&#x105;" horiz-adv-x="659" 
d="M474 0v85q-24 -47 -71.5 -72t-103.5 -25q-109 0 -175 75t-66 184q0 110 67 184.5t174 74.5q103 0 158 -68q14 -20 17 -26v82h91v-494q-53 -43 -74 -64q-27 -26 -27 -48q0 -30 37 -30h86v-82h-89q-55 0 -92 21.5t-37 71.5q0 21 9 38q14 34 56 63q26 20 40 30zM476 247
q0 75 -44 125t-116 50q-74 0 -119 -50.5t-45 -124.5q0 -79 45 -124q45 -51 119 -51q72 0 116 51t44 124z" />
    <glyph glyph-name="uni0106" unicode="&#x106;" horiz-adv-x="809" 
d="M420 -12q-152 0 -251.5 107.5t-99.5 259.5q0 155 100 261t251 106q113 0 205 -58t122 -162h-101q-28 61 -91.5 95t-134.5 34q-113 0 -181.5 -81t-68.5 -195q0 -115 69 -195.5t181 -80.5q157 0 228 130h99q-17 -67 -68 -118.5t-119 -78.5q-59 -24 -140 -24zM370 778
l112 150h110l-120 -150h-102z" />
    <glyph glyph-name="uni0107" unicode="&#x107;" horiz-adv-x="594" 
d="M543 340h-92q-41 82 -144 82q-70 0 -113 -52t-43 -123t44 -123t113 -52q103 0 145 82h90q-5 -44 -53 -96q-67 -70 -182 -70q-107 0 -179 76t-72 183q0 108 72 183.5t178 75.5q85 0 152 -43.5t84 -122.5zM251 579l108 183h100l-115 -183h-93z" />
    <glyph glyph-name="uni0108" unicode="&#x108;" horiz-adv-x="809" 
d="M420 -12q-152 0 -251.5 107.5t-99.5 259.5q0 155 100 261t251 106q113 0 205 -58t122 -162h-101q-28 61 -91.5 95t-134.5 34q-113 0 -181.5 -81t-68.5 -195q0 -115 69 -195.5t181 -80.5q157 0 228 130h99q-17 -67 -68 -118.5t-119 -78.5q-59 -24 -140 -24zM501 775
l-80 89l-81 -89h-98l139 156h78l136 -156h-94z" />
    <glyph glyph-name="uni0109" unicode="&#x109;" horiz-adv-x="594" 
d="M543 340h-92q-41 82 -144 82q-70 0 -113 -52t-43 -123t44 -123t113 -52q103 0 145 82h90q-5 -44 -53 -96q-67 -70 -182 -70q-107 0 -179 76t-72 183q0 108 72 183.5t178 75.5q85 0 152 -43.5t84 -122.5zM381 576l-74 114l-74 -114h-90l126 193h76l123 -193h-87z" />
    <glyph glyph-name="uni010A" unicode="&#x10a;" horiz-adv-x="809" 
d="M420 -12q-152 0 -251.5 107.5t-99.5 259.5q0 155 100 261t251 106q113 0 205 -58t122 -162h-101q-28 61 -91.5 95t-134.5 34q-113 0 -181.5 -81t-68.5 -195q0 -115 69 -195.5t181 -80.5q157 0 228 130h99q-17 -67 -68 -118.5t-119 -78.5q-59 -24 -140 -24zM373 778v143
h94v-143h-94z" />
    <glyph glyph-name="uni010B" unicode="&#x10b;" horiz-adv-x="594" 
d="M543 340h-92q-41 82 -144 82q-70 0 -113 -52t-43 -123t44 -123t113 -52q103 0 145 82h90q-5 -44 -53 -96q-67 -70 -182 -70q-107 0 -179 76t-72 183q0 108 72 183.5t178 75.5q85 0 152 -43.5t84 -122.5zM260 589v143h94v-143h-94z" />
    <glyph glyph-name="uni010C" unicode="&#x10c;" horiz-adv-x="809" 
d="M420 -12q-152 0 -251.5 107.5t-99.5 259.5q0 155 100 261t251 106q113 0 205 -58t122 -162h-101q-28 61 -91.5 95t-134.5 34q-113 0 -181.5 -81t-68.5 -195q0 -115 69 -195.5t181 -80.5q157 0 228 130h99q-17 -67 -68 -118.5t-119 -78.5q-59 -24 -140 -24zM598 931
l-139 -156h-78l-136 156h94l81 -89l80 89h98z" />
    <glyph glyph-name="uni010D" unicode="&#x10d;" horiz-adv-x="594" 
d="M543 340h-92q-41 82 -144 82q-70 0 -113 -52t-43 -123t44 -123t113 -52q103 0 145 82h90q-5 -44 -53 -96q-67 -70 -182 -70q-107 0 -179 76t-72 183q0 108 72 183.5t178 75.5q85 0 152 -43.5t84 -122.5zM470 772l-126 -193h-76l-123 193h88l74 -114l74 114h89z" />
    <glyph glyph-name="uni0112" unicode="&#x112;" horiz-adv-x="749" 
d="M110 0v710h556v-90h-460v-198h275v-90h-275v-242h500v-90h-596zM564 813h-330v78h330v-78z" />
    <glyph glyph-name="uni0113" unicode="&#x113;" horiz-adv-x="612" 
d="M308 506q116 0 184 -77.5t68 -192.5h-411q2 -49 30 -91.5t72 -59.5q29 -13 66 -13q44 0 87 17.5t60 51.5h90q-8 -45 -46 -80.5t-85 -54.5q-43 -18 -106 -18q-112 0 -186 74t-74 185t71 185t180 74zM308 428q-58 0 -98.5 -30t-54.5 -86h304q-17 55 -56 85.5t-95 30.5z
M461 621h-306v78h306v-78z" />
    <glyph glyph-name="uni0114" unicode="&#x114;" horiz-adv-x="749" 
d="M110 0v710h556v-90h-460v-198h275v-90h-275v-242h500v-90h-596zM399 843q32 0 50.5 21t18.5 54v13h76v-15q0 -67 -39.5 -106t-105.5 -39q-48 0 -84 22t-51 66q-10 24 -10 57v15h76v-13q0 -33 18.5 -54t50.5 -21z" />
    <glyph glyph-name="uni0115" unicode="&#x115;" horiz-adv-x="612" 
d="M308 506q116 0 184 -77.5t68 -192.5h-411q2 -49 30 -91.5t72 -59.5q29 -13 66 -13q44 0 87 17.5t60 51.5h90q-8 -45 -46 -80.5t-85 -54.5q-43 -18 -106 -18q-112 0 -186 74t-74 185t71 185t180 74zM308 428q-58 0 -98.5 -30t-54.5 -86h304q-17 55 -56 85.5t-95 30.5z
M308 645q31 0 47 20t16 52v17h76v-19q0 -66 -37 -104t-102 -38t-102 38.5t-37 103.5v19h76v-17q0 -31 16.5 -51.5t46.5 -20.5z" />
    <glyph glyph-name="uni0116" unicode="&#x116;" horiz-adv-x="749" 
d="M110 0v710h556v-90h-460v-198h275v-90h-275v-242h500v-90h-596zM352 778v143h94v-143h-94z" />
    <glyph glyph-name="uni0117" unicode="&#x117;" horiz-adv-x="612" 
d="M308 506q116 0 184 -77.5t68 -192.5h-411q2 -49 30 -91.5t72 -59.5q29 -13 66 -13q44 0 87 17.5t60 51.5h90q-8 -45 -46 -80.5t-85 -54.5q-43 -18 -106 -18q-112 0 -186 74t-74 185t71 185t180 74zM308 428q-58 0 -98.5 -30t-54.5 -86h304q-17 55 -56 85.5t-95 30.5z
M261 589v143h94v-143h-94z" />
    <glyph glyph-name="uni0118" unicode="&#x118;" horiz-adv-x="749" 
d="M615 -142v-82h-89q-55 0 -92 21.5t-37 72.5q0 39 31 70q15 16 33 29q26 20 41 31h-392v710h556v-90h-460v-198h275v-90h-275v-242h500v-90h-113q-53 -43 -74 -64q-27 -26 -27 -48q0 -30 37 -30h86z" />
    <glyph glyph-name="uni0119" unicode="&#x119;" horiz-adv-x="612" 
d="M308 506q116 0 184 -77.5t68 -192.5h-411q2 -49 30 -91.5t72 -59.5q29 -13 66 -13q44 0 87 17.5t60 51.5h90q-10 -57 -104 -137q-42 -37 -70 -66q-25 -26 -25 -49q0 -31 40 -31h83v-82h-89q-55 0 -92 21.5t-37 71.5q0 61 95 121q-3 0 -9 -1t-9 -1q-197 0 -261 158
q-19 45 -19 101q0 111 71 185t180 74zM308 428q-58 0 -98.5 -30t-54.5 -86h304q-17 55 -56 85.5t-95 30.5z" />
    <glyph glyph-name="uni011A" unicode="&#x11a;" horiz-adv-x="749" 
d="M110 0v710h556v-90h-460v-198h275v-90h-275v-242h500v-90h-596zM577 931l-139 -156h-78l-136 156h94l81 -89l80 89h98z" />
    <glyph glyph-name="uni011B" unicode="&#x11b;" horiz-adv-x="612" 
d="M308 506q116 0 184 -77.5t68 -192.5h-411q2 -49 30 -91.5t72 -59.5q29 -13 66 -13q44 0 87 17.5t60 51.5h90q-8 -45 -46 -80.5t-85 -54.5q-43 -18 -106 -18q-112 0 -186 74t-74 185t71 185t180 74zM308 428q-58 0 -98.5 -30t-54.5 -86h304q-17 55 -56 85.5t-95 30.5z
M471 772l-126 -193h-76l-123 193h88l74 -114l74 114h89z" />
    <glyph glyph-name="uni011C" unicode="&#x11c;" horiz-adv-x="847" 
d="M758 398v-300q-56 -56 -138.5 -83t-171.5 -27q-167 0 -273 102t-106 266q0 158 102 262t258 104q107 0 190.5 -45.5t119.5 -137.5h-101q-69 93 -209 93q-119 0 -189.5 -79t-70.5 -197q0 -126 78 -202t201 -76q139 0 218 58v175h-280v87h372zM510 775l-80 89l-81 -89h-98
l139 156h78l136 -156h-94z" />
    <glyph glyph-name="uni011D" unicode="&#x11d;" horiz-adv-x="667" 
d="M482 0v84q-3 -6 -17 -26q-58 -71 -163 -71q-110 0 -177 74.5t-67 184.5q0 112 67.5 186t176.5 74q106 0 162 -69q14 -18 18 -26v83h91v-494q0 -115 -72 -175.5t-187 -60.5q-122 0 -195 66q-44 41 -57 90h100q48 -72 152 -72q78 0 123 38t45 114zM484 246q0 74 -45 126
q-50 50 -120 50q-76 0 -121.5 -50t-45.5 -126q0 -75 47 -125t120 -50t119 51t46 124zM389 576l-74 114l-74 -114h-90l126 193h76l123 -193h-87z" />
    <glyph glyph-name="uni011E" unicode="&#x11e;" horiz-adv-x="847" 
d="M758 398v-300q-56 -56 -138.5 -83t-171.5 -27q-167 0 -273 102t-106 266q0 158 102 262t258 104q107 0 190.5 -45.5t119.5 -137.5h-101q-69 93 -209 93q-119 0 -189.5 -79t-70.5 -197q0 -126 78 -202t201 -76q139 0 218 58v175h-280v87h372zM429 843q32 0 50.5 21
t18.5 54v13h76v-15q0 -67 -39.5 -106t-105.5 -39q-48 0 -84 22t-51 66q-10 24 -10 57v15h76v-13q0 -33 18.5 -54t50.5 -21z" />
    <glyph glyph-name="uni011F" unicode="&#x11f;" horiz-adv-x="667" 
d="M482 0v84q-3 -6 -17 -26q-58 -71 -163 -71q-110 0 -177 74.5t-67 184.5q0 112 67.5 186t176.5 74q106 0 162 -69q14 -18 18 -26v83h91v-494q0 -115 -72 -175.5t-187 -60.5q-122 0 -195 66q-44 41 -57 90h100q48 -72 152 -72q78 0 123 38t45 114zM484 246q0 74 -45 126
q-50 50 -120 50q-76 0 -121.5 -50t-45.5 -126q0 -75 47 -125t120 -50t119 51t46 124zM315 645q31 0 47 20t16 52v17h76v-19q0 -66 -37 -104t-102 -38t-102 38.5t-37 103.5v19h76v-17q0 -31 16.5 -51.5t46.5 -20.5z" />
    <glyph glyph-name="uni0120" unicode="&#x120;" horiz-adv-x="847" 
d="M758 398v-300q-56 -56 -138.5 -83t-171.5 -27q-167 0 -273 102t-106 266q0 158 102 262t258 104q107 0 190.5 -45.5t119.5 -137.5h-101q-69 93 -209 93q-119 0 -189.5 -79t-70.5 -197q0 -126 78 -202t201 -76q139 0 218 58v175h-280v87h372zM382 778v143h94v-143h-94z
" />
    <glyph glyph-name="uni0121" unicode="&#x121;" horiz-adv-x="667" 
d="M482 0v84q-3 -6 -17 -26q-58 -71 -163 -71q-110 0 -177 74.5t-67 184.5q0 112 67.5 186t176.5 74q106 0 162 -69q14 -18 18 -26v83h91v-494q0 -115 -72 -175.5t-187 -60.5q-122 0 -195 66q-44 41 -57 90h100q48 -72 152 -72q78 0 123 38t45 114zM484 246q0 74 -45 126
q-50 50 -120 50q-76 0 -121.5 -50t-45.5 -126q0 -75 47 -125t120 -50t119 51t46 124zM268 589v143h94v-143h-94z" />
    <glyph glyph-name="uni0122" unicode="&#x122;" horiz-adv-x="847" 
d="M758 398v-300q-56 -56 -138.5 -83t-171.5 -27q-167 0 -273 102t-106 266q0 158 102 262t258 104q107 0 190.5 -45.5t119.5 -137.5h-101q-69 93 -209 93q-119 0 -189.5 -79t-70.5 -197q0 -126 78 -202t201 -76q139 0 218 58v175h-280v87h372zM479 -325h-67q35 62 35 115
h-52v115h112v-98q0 -68 -28 -132z" />
    <glyph glyph-name="uni0123" unicode="&#x123;" horiz-adv-x="667" 
d="M482 0v84q-3 -6 -17 -26q-58 -71 -163 -71q-110 0 -177 74.5t-67 184.5q0 112 67.5 186t176.5 74q106 0 162 -69q14 -18 18 -26v83h91v-494q0 -115 -72 -175.5t-187 -60.5q-122 0 -195 66q-44 41 -57 90h100q48 -72 152 -72q78 0 123 38t45 114zM484 246q0 74 -45 126
q-50 50 -120 50q-76 0 -121.5 -50t-45.5 -126q0 -75 47 -125t120 -50t119 51t46 124zM286 819h67q-13 -23 -24 -57.5t-11 -57.5h52v-115h-112v98q0 67 28 132z" />
    <glyph glyph-name="uni0124" unicode="&#x124;" horiz-adv-x="850" 
d="M643 0v313h-436v-313h-97v710h97v-307h436v307h97v-710h-97zM506 775l-80 89l-81 -89h-98l139 156h78l136 -156h-94z" />
    <glyph glyph-name="uni0125" unicode="&#x125;" horiz-adv-x="652" 
d="M185 267v-267h-91v736h91v-333q24 47 69.5 74.5t98.5 27.5q91 0 153 -62q58 -65 58 -159v-284h-92v267q0 68 -37 111t-104 43t-106.5 -44t-39.5 -110zM410 801l-80 89l-81 -89h-98l139 156h78l136 -156h-94z" />
    <glyph glyph-name="uni0128" unicode="&#x128;" horiz-adv-x="319" 
d="M111 0v710h97v-710h-97zM155 816l-38 22q-14 8 -20 11q-9 4 -18 4q-17 0 -17 -24v-56h-73v66q0 94 77 94q25 0 49 -11q23 -12 48 -27l38 -22q24 -15 37 -15q18 0 18 24v56h73v-66q0 -42 -19 -68t-59 -26q-27 0 -48 12q-18 9 -48 26z" />
    <glyph glyph-name="uni0129" unicode="&#x129;" horiz-adv-x="281" 
d="M57 575h-71v76q0 94 78 94q30 0 47 -13q22 -16 41 -33l20 -18q9 -9 19 -15q7 -6 15 -6q17 0 17 23v67h71v-76q0 -42 -19 -68t-59 -26q-29 0 -46 13q-20 13 -42 33l-20 18q-17 15 -19 16q-8 5 -15 5q-17 0 -17 -23v-67zM95 0v494h91v-494h-91z" />
    <glyph glyph-name="uni012A" unicode="&#x12a;" horiz-adv-x="319" 
d="M111 0v710h97v-710h-97zM324 813h-330v78h330v-78z" />
    <glyph glyph-name="uni012B" unicode="&#x12b;" horiz-adv-x="281" 
d="M280 621h-279v78h279v-78zM95 0v494h91v-494h-91z" />
    <glyph glyph-name="uni012C" unicode="&#x12c;" horiz-adv-x="319" 
d="M111 0v710h97v-710h-97zM159 843q32 0 50.5 21t18.5 54v13h76v-15q0 -67 -39.5 -106t-105.5 -39q-48 0 -84 22t-51 66q-10 24 -10 57v15h76v-13q0 -33 18.5 -54t50.5 -21z" />
    <glyph glyph-name="uni012D" unicode="&#x12d;" horiz-adv-x="281" 
d="M140 645q29 0 44.5 19t15.5 49v21h76v-23q0 -27 -8 -54q-29 -84 -128 -84q-45 0 -80 21.5t-47 62.5q-9 25 -9 54v23h76v-21q0 -30 15.5 -49t44.5 -19zM95 0v494h91v-494h-91z" />
    <glyph glyph-name="uni012E" unicode="&#x12e;" horiz-adv-x="319" 
d="M111 0v710h97v-710q-53 -43 -74 -64q-27 -26 -27 -48q0 -30 37 -30h86v-82h-89q-55 0 -92 21.5t-37 71.5q0 28 17 54.5t35 41.5t47 35z" />
    <glyph glyph-name="uni012F" unicode="&#x12f;" horiz-adv-x="281" 
d="M93 589v143h95v-143h-95zM207 -142v-82h-89q-55 0 -92 21.5t-37 72.5q0 39 31 70q15 16 33 29q26 20 41 31h1v494h91v-494h-1q-53 -43 -74 -64q-27 -26 -27 -48q0 -30 37 -30h86z" />
    <glyph glyph-name="uni0130" unicode="&#x130;" horiz-adv-x="319" 
d="M111 0v710h97v-710h-97zM112 778v143h94v-143h-94z" />
    <glyph glyph-name="uni0131" unicode="&#x131;" horiz-adv-x="281" 
d="M95 0v494h91v-494h-91z" />
    <glyph glyph-name="uni0136" unicode="&#x136;" horiz-adv-x="780" 
d="M632 0l-425 330v-330h-97v710h97v-328l409 328h137l-435 -348l453 -362h-139zM438 -325h-67q35 62 35 115h-52v115h112v-98q0 -68 -28 -132z" />
    <glyph glyph-name="uni0137" unicode="&#x137;" horiz-adv-x="591" 
d="M454 0l-272 228v-228h-88v736h88v-451l258 209h130l-292 -233l305 -261h-129zM338 -325h-67q35 62 35 115h-52v115h112v-98q0 -68 -28 -132z" />
    <glyph glyph-name="uni0139" unicode="&#x139;" horiz-adv-x="704" 
d="M666 91v-91h-556v710h97v-619h459zM109 778l112 150h110l-120 -150h-102z" />
    <glyph glyph-name="uni013A" unicode="&#x13a;" horiz-adv-x="283" 
d="M96 0v736h91v-736h-91zM91 804l112 150h110l-120 -150h-102z" />
    <glyph glyph-name="uni013B" unicode="&#x13b;" horiz-adv-x="704" 
d="M666 91v-91h-556v710h97v-619h459zM422 -325h-67q35 62 35 115h-52v115h112v-98q0 -68 -28 -132z" />
    <glyph glyph-name="uni013C" unicode="&#x13c;" horiz-adv-x="283" 
d="M96 0v736h91v-736h-91zM171 -325h-67q35 62 35 115h-52v115h112v-98q0 -68 -28 -132z" />
    <glyph glyph-name="uni0143" unicode="&#x143;" horiz-adv-x="860" 
d="M750 710v-715h-69l-478 601v-596h-93v710h118l429 -544v544h93zM390 778l112 150h110l-120 -150h-102z" />
    <glyph glyph-name="uni0144" unicode="&#x144;" horiz-adv-x="652" 
d="M185 267v-267h-91v494h91v-91q24 47 69.5 74.5t98.5 27.5q91 0 153 -62q58 -65 58 -159v-284h-92v267q0 68 -37 111t-104 43t-106.5 -44t-39.5 -110zM273 579l108 183h100l-115 -183h-93z" />
    <glyph glyph-name="uni0145" unicode="&#x145;" horiz-adv-x="860" 
d="M750 710v-715h-69l-478 601v-596h-93v710h118l429 -544v544h93zM464 -325h-67q35 62 35 115h-52v115h112v-98q0 -68 -28 -132z" />
    <glyph glyph-name="uni0146" unicode="&#x146;" horiz-adv-x="652" 
d="M185 267v-267h-91v494h91v-91q24 47 69.5 74.5t98.5 27.5q91 0 153 -62q58 -65 58 -159v-284h-92v267q0 68 -37 111t-104 43t-106.5 -44t-39.5 -110zM359 -325h-67q35 62 35 115h-52v115h112v-98q0 -68 -28 -132z" />
    <glyph glyph-name="uni0147" unicode="&#x147;" horiz-adv-x="860" 
d="M750 710v-715h-69l-478 601v-596h-93v710h118l429 -544v544h93zM619 931l-139 -156h-78l-136 156h94l81 -89l80 89h98z" />
    <glyph glyph-name="uni0148" unicode="&#x148;" horiz-adv-x="652" 
d="M185 267v-267h-91v494h91v-91q24 47 69.5 74.5t98.5 27.5q91 0 153 -62q58 -65 58 -159v-284h-92v267q0 68 -37 111t-104 43t-106.5 -44t-39.5 -110zM492 772l-126 -193h-76l-123 193h88l74 -114l74 114h89z" />
    <glyph glyph-name="uni014C" unicode="&#x14c;" horiz-adv-x="872" 
d="M436 -12q-159 0 -263 105t-104 262q0 158 105.5 262.5t261.5 104.5q158 0 262.5 -105.5t104.5 -261.5q0 -157 -106 -262t-261 -105zM436 78q117 0 192 80.5t75 196.5q0 118 -76 197.5t-191 79.5q-118 0 -192.5 -80t-74.5 -197q0 -119 75.5 -198t191.5 -79zM601 813h-330
v78h330v-78z" />
    <glyph glyph-name="uni014D" unicode="&#x14d;" horiz-adv-x="634" 
d="M317 506q111 0 185.5 -74.5t74.5 -184.5t-75.5 -184.5t-184.5 -74.5q-111 0 -185.5 75t-74.5 184q0 111 75 185t185 74zM317 72q74 0 120 51t46 124q0 75 -46.5 125t-119.5 50q-74 0 -120 -50.5t-46 -124.5t47 -124.5t119 -50.5zM470 621h-306v78h306v-78z" />
    <glyph glyph-name="uni014E" unicode="&#x14e;" horiz-adv-x="872" 
d="M436 -12q-159 0 -263 105t-104 262q0 158 105.5 262.5t261.5 104.5q158 0 262.5 -105.5t104.5 -261.5q0 -157 -106 -262t-261 -105zM436 78q117 0 192 80.5t75 196.5q0 118 -76 197.5t-191 79.5q-118 0 -192.5 -80t-74.5 -197q0 -119 75.5 -198t191.5 -79zM436 843
q32 0 50.5 21t18.5 54v13h76v-15q0 -67 -39.5 -106t-105.5 -39q-48 0 -84 22t-51 66q-10 24 -10 57v15h76v-13q0 -33 18.5 -54t50.5 -21z" />
    <glyph glyph-name="uni014F" unicode="&#x14f;" horiz-adv-x="634" 
d="M317 506q111 0 185.5 -74.5t74.5 -184.5t-75.5 -184.5t-184.5 -74.5q-111 0 -185.5 75t-74.5 184q0 111 75 185t185 74zM317 72q74 0 120 51t46 124q0 75 -46.5 125t-119.5 50q-74 0 -120 -50.5t-46 -124.5t47 -124.5t119 -50.5zM317 645q31 0 47 20t16 52v17h76v-19
q0 -66 -37 -104t-102 -38t-102 38.5t-37 103.5v19h76v-17q0 -31 16.5 -51.5t46.5 -20.5z" />
    <glyph glyph-name="uni0150" unicode="&#x150;" horiz-adv-x="872" 
d="M436 -12q-159 0 -263 105t-104 262q0 158 105.5 262.5t261.5 104.5q158 0 262.5 -105.5t104.5 -261.5q0 -157 -106 -262t-261 -105zM436 78q117 0 192 80.5t75 196.5q0 118 -76 197.5t-191 79.5q-118 0 -192.5 -80t-74.5 -197q0 -119 75.5 -198t191.5 -79zM478 778
l78 150h92l-85 -150h-85zM302 778l78 150h92l-85 -150h-85z" />
    <glyph glyph-name="uni0151" unicode="&#x151;" horiz-adv-x="634" 
d="M317 506q111 0 185.5 -74.5t74.5 -184.5t-75.5 -184.5t-184.5 -74.5q-111 0 -185.5 75t-74.5 184q0 111 75 185t185 74zM317 72q74 0 120 51t46 124q0 75 -46.5 125t-119.5 50q-74 0 -120 -50.5t-46 -124.5t47 -124.5t119 -50.5zM361 579l84 183h88l-91 -183h-81z
M186 579l84 183h88l-91 -183h-81z" />
    <glyph glyph-name="uni0154" unicode="&#x154;" horiz-adv-x="803" 
d="M110 0v710h377q234 0 234 -201q0 -146 -145 -183l172 -326h-103l-170 316h-268v-316h-97zM484 620h-277v-215h277q137 0 137 104q0 62 -36 86.5t-101 24.5zM348 778l112 150h110l-120 -150h-102z" />
    <glyph glyph-name="uni0155" unicode="&#x155;" horiz-adv-x="514" 
d="M185 279v-279h-91v494h91v-91q4 12 17 30q21 34 64.5 49.5t90.5 15.5h124v-91h-126q-82 0 -126 -26.5t-44 -101.5zM246 579l108 183h100l-115 -183h-93z" />
    <glyph glyph-name="uni0156" unicode="&#x156;" horiz-adv-x="803" 
d="M110 0v710h377q234 0 234 -201q0 -146 -145 -183l172 -326h-103l-170 316h-268v-316h-97zM484 620h-277v-215h277q137 0 137 104q0 62 -36 86.5t-101 24.5zM428 -325h-67q35 62 35 115h-52v115h112v-98q0 -68 -28 -132z" />
    <glyph glyph-name="uni0157" unicode="&#x157;" horiz-adv-x="514" 
d="M185 279v-279h-91v494h91v-91q4 12 17 30q21 34 64.5 49.5t90.5 15.5h124v-91h-126q-82 0 -126 -26.5t-44 -101.5zM169 -325h-67q35 62 35 115h-52v115h112v-98q0 -68 -28 -132z" />
    <glyph glyph-name="uni0158" unicode="&#x158;" horiz-adv-x="803" 
d="M110 0v710h377q234 0 234 -201q0 -146 -145 -183l172 -326h-103l-170 316h-268v-316h-97zM484 620h-277v-215h277q137 0 137 104q0 62 -36 86.5t-101 24.5zM576 931l-139 -156h-78l-136 156h94l81 -89l80 89h98z" />
    <glyph glyph-name="uni0159" unicode="&#x159;" horiz-adv-x="514" 
d="M185 279v-279h-91v494h91v-91q4 12 17 30q21 34 64.5 49.5t90.5 15.5h124v-91h-126q-82 0 -126 -26.5t-44 -101.5zM465 772l-126 -193h-76l-123 193h88l74 -114l74 114h89z" />
    <glyph glyph-name="uni015A" unicode="&#x15a;" horiz-adv-x="752" 
d="M346 633q-30 0 -56.5 -4t-54.5 -14.5t-44.5 -32.5t-16.5 -54q0 -86 136 -102l139 -16q106 -11 169.5 -62t63.5 -149q0 -57 -26 -100t-69.5 -66.5t-92 -34.5t-101.5 -11q-126 0 -216.5 52.5t-124.5 163.5h104q58 -127 237 -127q31 0 61.5 5.5t61.5 17.5t50 36.5t19 58.5
t-11 56.5t-34.5 35t-44 18t-54.5 10.5l-140 15q-97 9 -160.5 59t-63.5 140q0 68 43.5 113.5t101.5 63t124 17.5q117 0 204 -45.5t115 -147.5h-101q-52 104 -218 104zM317 778l112 150h110l-120 -150h-102z" />
    <glyph glyph-name="uni015B" unicode="&#x15b;" horiz-adv-x="565" 
d="M331 205l-106 12q-71 7 -116.5 43.5t-45.5 103.5q0 51 33.5 85t77 46.5t92.5 12.5q53 0 98.5 -12t84.5 -43.5t54 -80.5h-97q-1 1 -13 15q-51 43 -127 43q-41 0 -77 -14t-36 -49q0 -55 84 -64q28 -4 52 -6q48 -3 82.5 -10t68.5 -23.5t52 -48.5t18 -80q0 -40 -20 -70.5
t-53.5 -47t-69 -24t-73.5 -7.5q-84 0 -155 39t-91 113h97q5 -20 31.5 -38t51.5 -25q27 -9 66 -9q27 0 52.5 4.5t49 21t23.5 43.5q0 36 -23.5 50.5t-64.5 19.5zM223 579l108 183h100l-115 -183h-93z" />
    <glyph glyph-name="uni015C" unicode="&#x15c;" horiz-adv-x="752" 
d="M346 633q-30 0 -56.5 -4t-54.5 -14.5t-44.5 -32.5t-16.5 -54q0 -86 136 -102l139 -16q106 -11 169.5 -62t63.5 -149q0 -57 -26 -100t-69.5 -66.5t-92 -34.5t-101.5 -11q-126 0 -216.5 52.5t-124.5 163.5h104q58 -127 237 -127q31 0 61.5 5.5t61.5 17.5t50 36.5t19 58.5
t-11 56.5t-34.5 35t-44 18t-54.5 10.5l-140 15q-97 9 -160.5 59t-63.5 140q0 68 43.5 113.5t101.5 63t124 17.5q117 0 204 -45.5t115 -147.5h-101q-52 104 -218 104zM448 775l-80 89l-81 -89h-98l139 156h78l136 -156h-94z" />
    <glyph glyph-name="uni015D" unicode="&#x15d;" horiz-adv-x="565" 
d="M331 205l-106 12q-71 7 -116.5 43.5t-45.5 103.5q0 51 33.5 85t77 46.5t92.5 12.5q53 0 98.5 -12t84.5 -43.5t54 -80.5h-97q-1 1 -13 15q-51 43 -127 43q-41 0 -77 -14t-36 -49q0 -55 84 -64q28 -4 52 -6q48 -3 82.5 -10t68.5 -23.5t52 -48.5t18 -80q0 -40 -20 -70.5
t-53.5 -47t-69 -24t-73.5 -7.5q-84 0 -155 39t-91 113h97q5 -20 31.5 -38t51.5 -25q27 -9 66 -9q27 0 52.5 4.5t49 21t23.5 43.5q0 36 -23.5 50.5t-64.5 19.5zM353 576l-74 114l-74 -114h-90l126 193h76l123 -193h-87z" />
    <glyph glyph-name="uni015E" unicode="&#x15e;" horiz-adv-x="752" 
d="M424 -156q0 34 -41 34h-86v117q-192 37 -245 208h104q58 -127 237 -127q31 0 61.5 5.5t61.5 17.5t50 36.5t19 58.5t-11 56.5t-34.5 35t-44 18t-54.5 10.5l-140 15q-97 9 -160.5 59t-63.5 140q0 68 43.5 113.5t101.5 63t124 17.5q117 0 204 -45.5t115 -147.5h-101
q-52 104 -218 104q-30 0 -56.5 -4t-54.5 -14.5t-44.5 -32.5t-16.5 -54q0 -86 136 -102l139 -16q106 -11 169.5 -62t63.5 -149q0 -49 -19 -87t-49 -61t-71 -38t-81.5 -20.5t-84.5 -5.5v-42h14q120 0 120 -101q0 -53 -31.5 -81t-85.5 -28h-137v74h126q41 0 41 35z" />
    <glyph glyph-name="uni015F" unicode="&#x15f;" horiz-adv-x="565" 
d="M331 205l-106 12q-71 7 -116.5 43.5t-45.5 103.5q0 51 33.5 85t77 46.5t92.5 12.5q53 0 98.5 -12t84.5 -43.5t54 -80.5h-97q-1 1 -13 15q-51 43 -127 43q-41 0 -77 -14t-36 -49q0 -55 84 -64q28 -4 52 -6q48 -3 82.5 -10t68.5 -23.5t52 -48.5t18 -80q0 -40 -20 -70.5
t-53.5 -47t-69 -24t-73.5 -7.5h-4v-41h14q120 0 120 -101q0 -53 -31.5 -81t-85.5 -28h-137v74h126q41 0 41 35q0 34 -41 34h-86v117q-4 2 -13 4t-14 4q-110 44 -135 135h97q5 -20 31.5 -38t51.5 -25q27 -9 66 -9q27 0 52.5 4.5t49 21t23.5 43.5q0 36 -23.5 50.5t-64.5 19.5z
" />
    <glyph glyph-name="uni0160" unicode="&#x160;" horiz-adv-x="752" 
d="M346 633q-30 0 -56.5 -4t-54.5 -14.5t-44.5 -32.5t-16.5 -54q0 -86 136 -102l139 -16q106 -11 169.5 -62t63.5 -149q0 -57 -26 -100t-69.5 -66.5t-92 -34.5t-101.5 -11q-126 0 -216.5 52.5t-124.5 163.5h104q58 -127 237 -127q31 0 61.5 5.5t61.5 17.5t50 36.5t19 58.5
t-11 56.5t-34.5 35t-44 18t-54.5 10.5l-140 15q-97 9 -160.5 59t-63.5 140q0 68 43.5 113.5t101.5 63t124 17.5q117 0 204 -45.5t115 -147.5h-101q-52 104 -218 104zM545 931l-139 -156h-78l-136 156h94l81 -89l80 89h98z" />
    <glyph glyph-name="uni0161" unicode="&#x161;" horiz-adv-x="565" 
d="M331 205l-106 12q-71 7 -116.5 43.5t-45.5 103.5q0 51 33.5 85t77 46.5t92.5 12.5q53 0 98.5 -12t84.5 -43.5t54 -80.5h-97q-1 1 -13 15q-51 43 -127 43q-41 0 -77 -14t-36 -49q0 -55 84 -64q28 -4 52 -6q48 -3 82.5 -10t68.5 -23.5t52 -48.5t18 -80q0 -40 -20 -70.5
t-53.5 -47t-69 -24t-73.5 -7.5q-84 0 -155 39t-91 113h97q5 -20 31.5 -38t51.5 -25q27 -9 66 -9q27 0 52.5 4.5t49 21t23.5 43.5q0 36 -23.5 50.5t-64.5 19.5zM442 772l-126 -193h-76l-123 193h88l74 -114l74 114h89z" />
    <glyph glyph-name="uni0162" unicode="&#x162;" horiz-adv-x="767" 
d="M40 620v90h687v-90h-295v-620h-97v620h-295zM413 -325h-67q35 62 35 115h-52v115h112v-98q0 -68 -28 -132z" />
    <glyph glyph-name="uni0163" unicode="&#x163;" horiz-adv-x="516" 
d="M466 84v-84h-117q-173 0 -173 165v247h-146v82h146v216h91v-216h199v-82h-199v-226q0 -56 23 -79t79 -23h97zM310 -325h-67q35 62 35 115h-52v115h112v-98q0 -68 -28 -132z" />
    <glyph glyph-name="uni0168" unicode="&#x168;" horiz-adv-x="841" 
d="M421 81q102 0 159.5 63t57.5 164v402h96v-410q0 -142 -86.5 -227t-226.5 -85q-147 0 -230.5 84t-83.5 228v410h97v-402q0 -104 58 -165.5t159 -61.5zM417 816l-38 22q-14 8 -20 11q-9 4 -18 4q-17 0 -17 -24v-56h-73v66q0 94 77 94q25 0 49 -11q23 -12 48 -27l38 -22
q24 -15 37 -15q18 0 18 24v56h73v-66q0 -42 -19 -68t-59 -26q-27 0 -48 12q-18 9 -48 26z" />
    <glyph glyph-name="uni0169" unicode="&#x169;" horiz-adv-x="637" 
d="M320 -11q-101 0 -166.5 60.5t-65.5 159.5v285h91v-268q0 -68 36.5 -110t103.5 -42q68 0 104 41.5t36 110.5v268h92v-285q0 -101 -65.5 -160.5t-165.5 -59.5zM229 575h-72v76q0 94 79 94q29 0 49 -11q18 -11 42 -32l29 -24q2 -1 8.5 -6t9.5 -7q8 -5 16 -5q17 0 17 23v67
h72v-76q0 -94 -79 -94q-28 0 -48 12q-19 10 -43 31l-29 24q-2 1 -8.5 6t-9.5 7q-8 5 -16 5q-17 0 -17 -23v-67z" />
    <glyph glyph-name="uni016A" unicode="&#x16a;" horiz-adv-x="841" 
d="M421 81q102 0 159.5 63t57.5 164v402h96v-410q0 -142 -86.5 -227t-226.5 -85q-147 0 -230.5 84t-83.5 228v410h97v-402q0 -104 58 -165.5t159 -61.5zM586 813h-330v78h330v-78z" />
    <glyph glyph-name="uni016B" unicode="&#x16b;" horiz-adv-x="637" 
d="M320 -11q-101 0 -166.5 60.5t-65.5 159.5v285h91v-268q0 -68 36.5 -110t103.5 -42q68 0 104 41.5t36 110.5v268h92v-285q0 -101 -65.5 -160.5t-165.5 -59.5zM471 621h-306v78h306v-78z" />
    <glyph glyph-name="uni016C" unicode="&#x16c;" horiz-adv-x="841" 
d="M421 81q102 0 159.5 63t57.5 164v402h96v-410q0 -142 -86.5 -227t-226.5 -85q-147 0 -230.5 84t-83.5 228v410h97v-402q0 -104 58 -165.5t159 -61.5zM421 843q32 0 50.5 21t18.5 54v13h76v-15q0 -67 -39.5 -106t-105.5 -39q-48 0 -84 22t-51 66q-10 24 -10 57v15h76v-13
q0 -33 18.5 -54t50.5 -21z" />
    <glyph glyph-name="uni016D" unicode="&#x16d;" horiz-adv-x="637" 
d="M320 -11q-101 0 -166.5 60.5t-65.5 159.5v285h91v-268q0 -68 36.5 -110t103.5 -42q68 0 104 41.5t36 110.5v268h92v-285q0 -101 -65.5 -160.5t-165.5 -59.5zM318 645q31 0 47 20t16 52v17h76v-19q0 -66 -37 -104t-102 -38t-102 38.5t-37 103.5v19h76v-17
q0 -31 16.5 -51.5t46.5 -20.5z" />
    <glyph glyph-name="uni016E" unicode="&#x16e;" horiz-adv-x="841" 
d="M421 81q102 0 159.5 63t57.5 164v402h96v-410q0 -142 -86.5 -227t-226.5 -85q-147 0 -230.5 84t-83.5 228v410h97v-402q0 -104 58 -165.5t159 -61.5zM421 768q-54 0 -92.5 36.5t-38.5 90.5q0 55 38.5 91t92.5 36q55 0 93 -36.5t38 -90.5q0 -55 -38.5 -91t-92.5 -36z
M421 830q28 0 46 18t18 47q0 27 -17 47q-18 18 -47 18q-28 0 -46 -18t-18 -47q0 -28 18 -46.5t46 -18.5z" />
    <glyph glyph-name="uni016F" unicode="&#x16f;" horiz-adv-x="637" 
d="M320 -11q-101 0 -166.5 60.5t-65.5 159.5v285h91v-268q0 -68 36.5 -110t103.5 -42q68 0 104 41.5t36 110.5v268h92v-285q0 -101 -65.5 -160.5t-165.5 -59.5zM318 567q-54 0 -92.5 36.5t-38.5 90.5q0 55 38.5 91t92.5 36q55 0 93 -36.5t38 -90.5q0 -55 -38.5 -91
t-92.5 -36zM318 629q28 0 46 18t18 47q0 27 -17 47q-18 18 -47 18q-28 0 -46 -18t-18 -47q0 -28 18 -46.5t46 -18.5z" />
    <glyph glyph-name="uni0170" unicode="&#x170;" horiz-adv-x="841" 
d="M421 81q102 0 159.5 63t57.5 164v402h96v-410q0 -142 -86.5 -227t-226.5 -85q-147 0 -230.5 84t-83.5 228v410h97v-402q0 -104 58 -165.5t159 -61.5zM463 778l78 150h92l-85 -150h-85zM287 778l78 150h92l-85 -150h-85z" />
    <glyph glyph-name="uni0171" unicode="&#x171;" horiz-adv-x="637" 
d="M320 -11q-101 0 -166.5 60.5t-65.5 159.5v285h91v-268q0 -68 36.5 -110t103.5 -42q68 0 104 41.5t36 110.5v268h92v-285q0 -101 -65.5 -160.5t-165.5 -59.5zM362 579l84 183h88l-91 -183h-81zM187 579l84 183h88l-91 -183h-81z" />
    <glyph glyph-name="uni0172" unicode="&#x172;" horiz-adv-x="841" 
d="M598 -142v-82h-89q-55 0 -92 21.5t-37 71.5q0 62 96 123q-38 -4 -55 -4q-147 0 -230.5 84t-83.5 228v410h97v-402q0 -104 58 -165.5t159 -61.5q102 0 159.5 63t57.5 164v402h96v-410q0 -94 -37 -159.5t-115 -132.5q-40 -34 -49 -42q-43 -34 -52 -55q-6 -11 -6 -21
q0 -32 39 -32h84z" />
    <glyph glyph-name="uni0173" unicode="&#x173;" horiz-adv-x="637" 
d="M477 -142v-82h-89q-55 0 -92 21.5t-37 71.5q0 25 16.5 50.5t32 38.5t43.5 33q-3 -1 -8 -1t-7 -1q-178 0 -231 132q-17 42 -17 88v285h91v-268q0 -68 36.5 -110t103.5 -42q68 0 104 41.5t36 110.5v268h92v-285q0 -62 -26 -109.5t-77 -93.5q-32 -30 -41 -39
q-40 -37 -47 -55q-6 -12 -6 -24q0 -30 37 -30h86z" />
    <glyph glyph-name="uni0174" unicode="&#x174;" horiz-adv-x="1129" 
d="M765 -4l-199 562l-200 -562h-79l-244 714h105l184 -557l196 561h81l197 -566l186 562h94l-237 -714h-84zM647 775l-80 89l-81 -89h-98l139 156h78l136 -156h-94z" />
    <glyph glyph-name="uni0175" unicode="&#x175;" horiz-adv-x="869" 
d="M582 -4l-146 373l-146 -373h-73l-189 498h98l134 -365l142 369h76l141 -365l132 361h90l-187 -498h-72zM513 576l-74 114l-74 -114h-90l126 193h76l123 -193h-87z" />
    <glyph glyph-name="uni0176" unicode="&#x176;" horiz-adv-x="765" 
d="M434 302v-302h-97v300l-322 410h123l250 -321l249 321h113zM469 775l-80 89l-81 -89h-98l139 156h78l136 -156h-94z" />
    <glyph glyph-name="uni0177" unicode="&#x177;" horiz-adv-x="581" 
d="M558 494l-324 -718h-93l106 235l-224 483h103l169 -376l169 376h94zM369 576l-74 114l-74 -114h-90l126 193h76l123 -193h-87z" />
    <glyph glyph-name="uni0178" unicode="&#x178;" horiz-adv-x="765" 
d="M434 302v-302h-97v300l-322 410h123l250 -321l249 321h113zM240 778v139h92v-139h-92zM444 778v139h92v-139h-92z" />
    <glyph glyph-name="uni0179" unicode="&#x179;" horiz-adv-x="782" 
d="M737 90v-90h-682v57l482 563h-472v90h622v-57l-486 -563h536zM319 778l112 150h110l-120 -150h-102z" />
    <glyph glyph-name="uni017A" unicode="&#x17a;" horiz-adv-x="606" 
d="M562 81v-81h-506v53l329 360h-321v81h462v-51l-334 -362h370zM239 579l108 183h100l-115 -183h-93z" />
    <glyph glyph-name="uni017B" unicode="&#x17b;" horiz-adv-x="782" 
d="M737 90v-90h-682v57l482 563h-472v90h622v-57l-486 -563h536zM328 778v143h94v-143h-94z" />
    <glyph glyph-name="uni017C" unicode="&#x17c;" horiz-adv-x="606" 
d="M562 81v-81h-506v53l329 360h-321v81h462v-51l-334 -362h370zM248 589v143h94v-143h-94z" />
    <glyph glyph-name="uni017D" unicode="&#x17d;" horiz-adv-x="782" 
d="M737 90v-90h-682v57l482 563h-472v90h622v-57l-486 -563h536zM554 931l-139 -156h-78l-136 156h94l81 -89l80 89h98z" />
    <glyph glyph-name="uni017E" unicode="&#x17e;" horiz-adv-x="606" 
d="M562 81v-81h-506v53l329 360h-321v81h462v-51l-334 -362h370zM458 772l-126 -193h-76l-123 193h88l74 -114l74 114h89z" />
    <glyph glyph-name="uni01FA" unicode="&#x1fa;" horiz-adv-x="800" 
d="M665 0l-79 171h-378l-79 -171h-96l328 714h77l329 -714h-102zM248 259h298l-149 324zM352 1061l104 140h106l-112 -140h-98zM399 768q-54 0 -92.5 36.5t-38.5 90.5q0 55 38.5 91t92.5 36q55 0 93 -36.5t38 -90.5q0 -55 -38.5 -91t-92.5 -36zM399 830q28 0 46 18t18 47
q0 27 -17 47q-18 18 -47 18q-28 0 -46 -18t-18 -47q0 -28 18 -46.5t46 -18.5z" />
    <glyph glyph-name="uni01FB" unicode="&#x1fb;" horiz-adv-x="659" 
d="M474 0v85q-24 -47 -71.5 -72t-103.5 -25q-109 0 -175 75t-66 184q0 110 67 184.5t174 74.5q103 0 158 -68q14 -20 17 -26v82h91v-494h-91zM476 247q0 75 -44 125t-116 50q-74 0 -119 -50.5t-45 -124.5q0 -79 45 -124q45 -51 119 -51q72 0 116 51t44 124zM264 860l97 150
h98l-104 -150h-91zM307 567q-54 0 -92.5 36.5t-38.5 90.5q0 55 38.5 91t92.5 36q55 0 93 -36.5t38 -90.5q0 -55 -38.5 -91t-92.5 -36zM307 629q28 0 46 18t18 47q0 27 -17 47q-18 18 -47 18q-28 0 -46 -18t-18 -47q0 -28 18 -46.5t46 -18.5z" />
    <glyph glyph-name="uni0218" unicode="&#x218;" horiz-adv-x="752" 
d="M346 633q-30 0 -56.5 -4t-54.5 -14.5t-44.5 -32.5t-16.5 -54q0 -86 136 -102l139 -16q106 -11 169.5 -62t63.5 -149q0 -57 -26 -100t-69.5 -66.5t-92 -34.5t-101.5 -11q-126 0 -216.5 52.5t-124.5 163.5h104q58 -127 237 -127q31 0 61.5 5.5t61.5 17.5t50 36.5t19 58.5
t-11 56.5t-34.5 35t-44 18t-54.5 10.5l-140 15q-97 9 -160.5 59t-63.5 140q0 68 43.5 113.5t101.5 63t124 17.5q117 0 204 -45.5t115 -147.5h-101q-52 104 -218 104zM418 -325h-67q35 62 35 115h-52v115h112v-98q0 -68 -28 -132z" />
    <glyph glyph-name="uni0219" unicode="&#x219;" horiz-adv-x="565" 
d="M331 205l-106 12q-71 7 -116.5 43.5t-45.5 103.5q0 51 33.5 85t77 46.5t92.5 12.5q53 0 98.5 -12t84.5 -43.5t54 -80.5h-97q-1 1 -13 15q-51 43 -127 43q-41 0 -77 -14t-36 -49q0 -55 84 -64q28 -4 52 -6q48 -3 82.5 -10t68.5 -23.5t52 -48.5t18 -80q0 -40 -20 -70.5
t-53.5 -47t-69 -24t-73.5 -7.5q-84 0 -155 39t-91 113h97q5 -20 31.5 -38t51.5 -25q27 -9 66 -9q27 0 52.5 4.5t49 21t23.5 43.5q0 36 -23.5 50.5t-64.5 19.5zM328 -325h-67q35 62 35 115h-52v115h112v-98q0 -68 -28 -132z" />
    <glyph glyph-name="uni0401" unicode="&#x401;" horiz-adv-x="749" 
d="M110 0v710h556v-90h-460v-198h275v-90h-275v-242h500v-90h-596zM251 778v139h92v-139h-92zM455 778v139h92v-139h-92z" />
    <glyph glyph-name="uni0403" unicode="&#x403;" horiz-adv-x="709" 
d="M110 0v710h569v-91h-472v-619h-97zM344 778l112 150h110l-120 -150h-102z" />
    <glyph glyph-name="uni040E" unicode="&#x40e;" horiz-adv-x="778" 
d="M306 0h-100l142 221l-323 489h112l266 -404l260 404h100zM406 843q32 0 50.5 21t18.5 54v13h76v-15q0 -67 -39.5 -106t-105.5 -39q-48 0 -84 22t-51 66q-10 24 -10 57v15h76v-13q0 -33 18.5 -54t50.5 -21z" />
    <glyph glyph-name="uni0410" unicode="&#x410;" horiz-adv-x="800" 
d="M665 0l-79 171h-378l-79 -171h-96l328 714h77l329 -714h-102zM248 259h298l-149 324z" />
    <glyph glyph-name="uni0411" unicode="&#x411;" horiz-adv-x="781" 
d="M207 420h253q112 0 181.5 -53.5t69.5 -159.5q0 -109 -68.5 -158t-182.5 -49h-350v710h546v-91h-449v-199zM463 330h-256v-240h256q148 0 148 119q0 63 -41 92t-107 29z" />
    <glyph glyph-name="uni0412" unicode="&#x412;" horiz-adv-x="784" 
d="M110 0v710h348q106 0 172 -46t66 -146q0 -50 -32.5 -90.5t-81.5 -54.5q27 -8 50 -21q24 -16 41 -36q38 -53 38 -112q0 -106 -68 -155t-178 -49h-355zM456 621h-250v-210h250q140 0 140 105t-140 105zM463 322h-257v-233h257q150 0 150 117q0 116 -150 116z" />
    <glyph glyph-name="uni0413" unicode="&#x413;" horiz-adv-x="709" 
d="M110 0v710h569v-91h-472v-619h-97z" />
    <glyph glyph-name="uni0414" unicode="&#x414;" horiz-adv-x="837" 
d="M610 90v530h-337l-33 -314q-17 -152 -49 -216h419zM190 710h517v-620h110v-251h-87v161h-633v-161h-87v251h79q43 66 59 223z" />
    <glyph glyph-name="uni0415" unicode="&#x415;" horiz-adv-x="749" 
d="M110 0v710h556v-90h-460v-198h275v-90h-275v-242h500v-90h-596z" />
    <glyph glyph-name="uni0416" unicode="&#x416;" horiz-adv-x="1152" 
d="M9 0l411 357l-394 353h133l367 -331v331h97v-331l367 331h133l-392 -352l412 -358h-136l-384 333v-333h-97v333l-384 -333h-133z" />
    <glyph glyph-name="uni0417" unicode="&#x417;" horiz-adv-x="774" 
d="M390 722q53 0 101 -9t93.5 -29.5t73 -60.5t27.5 -96t-30.5 -100.5t-82.5 -59.5q129 -39 129 -156q0 -61 -27 -106.5t-72.5 -69.5t-97 -35.5t-109.5 -11.5q-94 0 -177 34.5t-125 106.5q-23 37 -27 75h100q21 -63 87 -94t141 -31q37 0 69.5 5.5t66 18.5t53 40.5t19.5 66.5
q0 107 -181 107h-104v89h108q160 0 160 116q0 109 -196 109q-161 0 -220 -116h-102q16 68 64.5 115t118.5 72q60 20 140 20z" />
    <glyph glyph-name="uni0418" unicode="&#x418;" horiz-adv-x="859" 
d="M110 0v710h97v-580l445 580h97v-710h-97v582l-445 -582h-97z" />
    <glyph glyph-name="uni0419" unicode="&#x419;" horiz-adv-x="859" 
d="M110 0v710h97v-580l445 580h97v-710h-97v582l-445 -582h-97zM429 843q32 0 50.5 21t18.5 54v13h76v-15q0 -67 -39.5 -106t-105.5 -39q-48 0 -84 22t-51 66q-10 24 -10 57v15h76v-13q0 -33 18.5 -54t50.5 -21z" />
    <glyph glyph-name="uni041A" unicode="&#x41a;" horiz-adv-x="780" 
d="M110 0v710h97v-328l409 328h137l-435 -348l453 -362h-139l-425 330v-330h-97z" />
    <glyph glyph-name="uni041B" unicode="&#x41b;" horiz-adv-x="847" 
d="M300 620l-31 -328q-15 -159 -54 -223q-46 -75 -151 -75h-24v95h17q51 0 73.5 29.5t33.5 84.5q8 45 14 100l38 407h521v-710h-97v620h-340z" />
    <glyph glyph-name="uni041C" unicode="&#x41c;" horiz-adv-x="1009" 
d="M260 710l247 -576l247 576h145v-710h-92v626l-271 -630h-67l-269 626v-622h-90v710h150z" />
    <glyph glyph-name="uni041D" unicode="&#x41d;" horiz-adv-x="850" 
d="M643 0v313h-436v-313h-97v710h97v-307h436v307h97v-710h-97z" />
    <glyph glyph-name="uni041E" unicode="&#x41e;" horiz-adv-x="872" 
d="M436 -12q-159 0 -263 105t-104 262q0 158 105.5 262.5t261.5 104.5q158 0 262.5 -105.5t104.5 -261.5q0 -157 -106 -262t-261 -105zM436 78q117 0 192 80.5t75 196.5q0 118 -76 197.5t-191 79.5q-118 0 -192.5 -80t-74.5 -197q0 -119 75.5 -198t191.5 -79z" />
    <glyph glyph-name="uni041F" unicode="&#x41f;" horiz-adv-x="840" 
d="M110 0v710h620v-710h-97v620h-426v-620h-97z" />
    <glyph glyph-name="uni0420" unicode="&#x420;" horiz-adv-x="778" 
d="M110 0v710h369q110 0 174.5 -49.5t64.5 -155.5q0 -104 -66 -156.5t-173 -52.5h-272v-296h-97zM482 620h-275v-234h275q61 0 98.5 29t37.5 88q0 117 -136 117z" />
    <glyph glyph-name="uni0421" unicode="&#x421;" horiz-adv-x="809" 
d="M420 -12q-152 0 -251.5 107.5t-99.5 259.5q0 155 100 261t251 106q113 0 205 -58t122 -162h-101q-28 61 -91.5 95t-134.5 34q-113 0 -181.5 -81t-68.5 -195q0 -115 69 -195.5t181 -80.5q157 0 228 130h99q-17 -67 -68 -118.5t-119 -78.5q-59 -24 -140 -24z" />
    <glyph glyph-name="uni0422" unicode="&#x422;" horiz-adv-x="767" 
d="M40 620v90h687v-90h-295v-620h-97v620h-295z" />
    <glyph glyph-name="uni0423" unicode="&#x423;" horiz-adv-x="778" 
d="M306 0h-100l142 221l-323 489h112l266 -404l260 404h100z" />
    <glyph glyph-name="uni0424" unicode="&#x424;" horiz-adv-x="1109" 
d="M506 125h-172q-125 0 -199.5 61t-74.5 180q0 122 74 179.5t200 57.5h172v117h97v-117h172q126 0 200 -57.5t74 -179.5q0 -123 -75.5 -182t-198.5 -59h-172v-135h-97v135zM506 215v298h-175q-171 0 -171 -149q0 -75 47 -112t124 -37h175zM778 513h-175v-298h175
q77 0 124 37t47 112q0 149 -171 149z" />
    <glyph glyph-name="uni0425" unicode="&#x425;" horiz-adv-x="813" 
d="M657 0l-254 292l-253 -292h-116l310 360l-304 350h128l239 -278l240 278h119l-300 -346l313 -364h-122z" />
    <glyph glyph-name="uni0426" unicode="&#x426;" horiz-adv-x="860" 
d="M633 90v620h97v-620h110v-251h-87v161h-643v710h97v-620h426z" />
    <glyph glyph-name="uni0427" unicode="&#x427;" horiz-adv-x="812" 
d="M605 0v298q-107 -25 -237 -25q-141 0 -209.5 61.5t-68.5 200.5v175h97v-172q0 -143 101 -169q31 -10 79 -10q123 0 238 25v326h97v-710h-97z" />
    <glyph glyph-name="uni0428" unicode="&#x428;" horiz-adv-x="1197" 
d="M110 710h97v-620h343v620h97v-620h343v620h97v-710h-977v710z" />
    <glyph glyph-name="uni0429" unicode="&#x429;" horiz-adv-x="1217" 
d="M110 710h97v-620h343v620h97v-620h343v620h97v-620h110v-251h-87v161h-1000v710z" />
    <glyph glyph-name="uni042A" unicode="&#x42a;" horiz-adv-x="941" 
d="M40 619v91h329v-268h261q114 0 182.5 -57t68.5 -166q0 -112 -68 -165.5t-183 -53.5h-358v619h-232zM633 352h-264v-262h264q148 0 148 131q0 66 -40 98.5t-108 32.5z" />
    <glyph glyph-name="uni042B" unicode="&#x42b;" horiz-adv-x="1045" 
d="M207 442h261q114 0 182.5 -57t68.5 -166q0 -112 -68 -165.5t-183 -53.5h-358v710h97v-268zM471 352h-264v-262h264q148 0 148 131q0 66 -40 98.5t-108 32.5zM838 0v710h97v-710h-97z" />
    <glyph glyph-name="uni042C" unicode="&#x42c;" horiz-adv-x="779" 
d="M207 442h261q114 0 182.5 -57t68.5 -166q0 -112 -68 -165.5t-183 -53.5h-358v710h97v-268zM471 352h-264v-262h264q148 0 148 131q0 66 -40 98.5t-108 32.5z" />
    <glyph glyph-name="uni042D" unicode="&#x42d;" horiz-adv-x="809" 
d="M389 -12q-92 0 -174.5 39t-122.5 114q-22 37 -30 68h99q71 -130 228 -130q101 0 168.5 66.5t79.5 167.5h-340v90h340q-12 103 -78 165.5t-167 62.5q-70 0 -135.5 -34.5t-93.5 -94.5h-101q30 105 123 162.5t207 57.5q156 0 252 -105.5t96 -261.5q0 -155 -100 -261
t-251 -106z" />
    <glyph glyph-name="uni042E" unicode="&#x42e;" horiz-adv-x="1132" 
d="M110 0v710h97v-307h145q15 138 115.5 228.5t238.5 90.5q155 0 256 -106t101 -261t-102 -261t-255 -106q-143 0 -241.5 92t-113.5 233h-144v-313h-97zM706 78q114 0 185.5 81t71.5 196q0 116 -72 196.5t-185 80.5q-115 0 -186 -81t-71 -196q0 -117 71.5 -197t185.5 -80z
" />
    <glyph glyph-name="uni042F" unicode="&#x42f;" horiz-adv-x="813" 
d="M172 0h-107l186 299q-76 16 -117.5 66.5t-41.5 128.5q0 216 237 216h374v-710h-97v286h-257zM332 375h274v245h-274q-68 0 -104 -29.5t-36 -96.5q0 -119 140 -119z" />
    <glyph glyph-name="uni0430" unicode="&#x430;" horiz-adv-x="659" 
d="M474 0v85q-24 -47 -71.5 -72t-103.5 -25q-109 0 -175 75t-66 184q0 110 67 184.5t174 74.5q103 0 158 -68q14 -20 17 -26v82h91v-494h-91zM476 247q0 75 -44 125t-116 50q-74 0 -119 -50.5t-45 -124.5q0 -79 45 -124q45 -51 119 -51q72 0 116 51t44 124z" />
    <glyph glyph-name="uni0431" unicode="&#x431;" horiz-adv-x="642" 
d="M336 486q114 0 181.5 -68.5t67.5 -180.5t-74.5 -180.5t-185.5 -68.5q-122 0 -191 74.5t-69 195.5q0 23 1 34q0 22 1 33q0 10 2 36q2 23 3 44q10 134 76 205t196 93l200 35v-84l-198 -35q-103 -20 -142 -67t-48 -150q51 84 180 84zM325 72q76 0 121 45.5t45 119.5
q0 76 -45.5 120.5t-120.5 44.5q-76 0 -121 -45.5t-45 -119.5q0 -75 46 -120t120 -45z" />
    <glyph glyph-name="uni0432" unicode="&#x432;" horiz-adv-x="605" 
d="M94 0v494h260q73 0 121.5 -31t48.5 -99q0 -38 -19 -68t-55 -41q34 -9 63 -35q27 -27 27 -74q0 -73 -54.5 -109.5t-130.5 -36.5h-261zM354 414h-169v-122h169q80 0 80 64q0 31 -23.5 44.5t-56.5 13.5zM357 212h-172v-132h171q89 0 89 70q0 33 -26 47.5t-62 14.5z" />
    <glyph glyph-name="uni0433" unicode="&#x433;" horiz-adv-x="490" 
d="M92 0v494h368v-82h-277v-412h-91z" />
    <glyph glyph-name="uni0434" unicode="&#x434;" horiz-adv-x="626" 
d="M430 82v330h-202l-13 -110q-9 -75 -22 -137q-10 -49 -31 -83h268zM96 -149h-81v231h59q42 56 60 227l21 185h366v-412h90v-231h-81v149h-434v-149z" />
    <glyph glyph-name="uni0435" unicode="&#x435;" horiz-adv-x="612" 
d="M308 506q116 0 184 -77.5t68 -192.5h-411q2 -49 30 -91.5t72 -59.5q29 -13 66 -13q44 0 87 17.5t60 51.5h90q-8 -45 -46 -80.5t-85 -54.5q-43 -18 -106 -18q-112 0 -186 74t-74 185t71 185t180 74zM308 428q-58 0 -98.5 -30t-54.5 -86h304q-17 55 -56 85.5t-95 30.5z" />
    <glyph glyph-name="uni0436" unicode="&#x436;" horiz-adv-x="847" 
d="M378 0v223l-244 -223h-126l278 253l-266 241h128l230 -211v211h88v-211l230 211h127l-264 -239l280 -255h-129l-244 223v-223h-88z" />
    <glyph glyph-name="uni0437" unicode="&#x437;" horiz-adv-x="585" 
d="M296 70q129 0 129 75q0 65 -104 65h-82v80h83q95 0 95 68q0 32 -33 50q-36 17 -93 17q-102 0 -139 -70h-89q8 49 47 85.5t91 53.5q39 13 92 13q39 0 74 -7t68 -22.5t52.5 -45.5t19.5 -71q0 -39 -21 -68.5t-58 -39.5q92 -26 92 -107q0 -56 -36.5 -93.5t-84.5 -51
t-103 -13.5q-87 0 -160 42t-85 121h93q6 -13 18 -27q19 -27 57 -40.5t77 -13.5z" />
    <glyph glyph-name="uni0438" unicode="&#x438;" horiz-adv-x="657" 
d="M94 0v494h91v-372l287 372h91v-494h-91v375l-287 -375h-91z" />
    <glyph glyph-name="uni0439" unicode="&#x439;" horiz-adv-x="657" 
d="M94 0v494h91v-372l287 372h91v-494h-91v375l-287 -375h-91zM330 645q31 0 47 20t16 52v17h76v-19q0 -66 -37 -104t-102 -38t-102 38.5t-37 103.5v19h76v-17q0 -31 16.5 -51.5t46.5 -20.5z" />
    <glyph glyph-name="uni043A" unicode="&#x43a;" horiz-adv-x="591" 
d="M92 0v494h88v-214l260 214h130l-292 -237l305 -257h-129l-274 226v-226h-88z" />
    <glyph glyph-name="uni043B" unicode="&#x43b;" horiz-adv-x="624" 
d="M135 220l27 274h368v-494h-91v412h-204l-19 -198q-4 -38 -8 -64t-15 -58.5t-27 -52t-44 -33t-65 -13.5h-27v82h12q39 0 57.5 18t26.5 57q5 30 9 70z" />
    <glyph glyph-name="uni043C" unicode="&#x43c;" horiz-adv-x="820" 
d="M94 0v494h121l197 -389l197 389h117v-494h-89v388l-198 -391h-63l-196 387v-384h-86z" />
    <glyph glyph-name="uni043D" unicode="&#x43d;" horiz-adv-x="647" 
d="M94 0v494h91v-202h277v202h91v-494h-91v210h-277v-210h-91z" />
    <glyph glyph-name="uni043E" unicode="&#x43e;" horiz-adv-x="634" 
d="M317 506q111 0 185.5 -74.5t74.5 -184.5t-75.5 -184.5t-184.5 -74.5q-111 0 -185.5 75t-74.5 184q0 111 75 185t185 74zM317 72q74 0 120 51t46 124q0 75 -46.5 125t-119.5 50q-74 0 -120 -50.5t-46 -124.5t47 -124.5t119 -50.5z" />
    <glyph glyph-name="uni043F" unicode="&#x43f;" horiz-adv-x="637" 
d="M94 0v494h449v-494h-91v412h-267v-412h-91z" />
    <glyph glyph-name="uni0440" unicode="&#x440;" horiz-adv-x="665" 
d="M184 80v-304h-90v718h90v-85q23 46 74 71.5t106 25.5q111 0 177 -74t66 -185q0 -112 -67 -185.5t-176 -73.5q-45 0 -90.5 18t-71.5 50q-14 15 -18 24zM182 247q0 -78 46 -124q45 -51 120 -51q74 0 120 50.5t46 124.5q0 73 -45 125q-50 50 -121 50q-75 0 -120.5 -50
t-45.5 -125z" />
    <glyph glyph-name="uni0441" unicode="&#x441;" horiz-adv-x="594" 
d="M543 340h-92q-41 82 -144 82q-70 0 -113 -52t-43 -123t44 -123t113 -52q103 0 145 82h90q-5 -44 -53 -96q-67 -70 -182 -70q-107 0 -179 76t-72 183q0 108 72 183.5t178 75.5q85 0 152 -43.5t84 -122.5z" />
    <glyph glyph-name="uni0442" unicode="&#x442;" horiz-adv-x="551" 
d="M230 0v412h-200v82h491v-82h-200v-412h-91z" />
    <glyph glyph-name="uni0443" unicode="&#x443;" horiz-adv-x="581" 
d="M558 494l-324 -718h-93l106 235l-224 483h103l169 -376l169 376h94z" />
    <glyph glyph-name="uni0444" unicode="&#x444;" horiz-adv-x="779" 
d="M344 -214v202q-122 3 -204.5 73t-82.5 186q0 118 84 188.5t203 70.5v230h91v-230q122 -3 204.5 -72.5t82.5 -186.5q0 -118 -84 -188.5t-203 -70.5v-202h-91zM151 247q0 -82 55 -128.5t138 -46.5v350q-85 -2 -139 -47.5t-54 -127.5zM628 247q0 84 -54.5 129.5t-138.5 45.5
v-350q85 2 139 47.5t54 127.5z" />
    <glyph glyph-name="uni0445" unicode="&#x445;" horiz-adv-x="602" 
d="M467 0l-166 185l-167 -185h-110l222 246l-223 248h118l162 -183l165 183h111l-221 -245l221 -249h-112z" />
    <glyph glyph-name="uni0446" unicode="&#x446;" horiz-adv-x="647" 
d="M451 82v412h91v-412h90v-231h-81v149h-457v494h91v-412h266z" />
    <glyph glyph-name="uni0447" unicode="&#x447;" horiz-adv-x="618" 
d="M433 0v188q-14 -4 -40 -7q-4 0 -19.5 -1.5t-25.5 -2.5q-34 -2 -58 -2q-104 0 -157 44t-53 145v130h91v-120q0 -28 6 -51q13 -67 113 -67q23 0 59 2q10 1 25.5 2.5t19.5 1.5q22 3 39 6v226h91v-494h-91z" />
    <glyph glyph-name="uni0448" unicode="&#x448;" horiz-adv-x="923" 
d="M94 494h91v-412h231v412h91v-412h231v412h91v-494h-735v494z" />
    <glyph glyph-name="uni0449" unicode="&#x449;" horiz-adv-x="934" 
d="M94 494h91v-412h231v412h91v-412h231v412h91v-412h90v-231h-81v149h-744v494z" />
    <glyph glyph-name="uni044A" unicode="&#x44a;" horiz-adv-x="668" 
d="M291 335h150q146 0 186 -100q11 -33 11 -66q0 -82 -56.5 -125.5t-139.5 -43.5h-242v412h-170v82h261v-159zM431 253h-140v-171h140q111 0 111 87q0 84 -111 84z" />
    <glyph glyph-name="uni044B" unicode="&#x44b;" horiz-adv-x="800" 
d="M185 335h150q146 0 186 -100q11 -33 11 -66q0 -82 -56.5 -125.5t-139.5 -43.5h-242v494h91v-159zM325 253h-140v-171h140q111 0 111 87q0 84 -111 84zM615 0v494h91v-494h-91z" />
    <glyph glyph-name="uni044C" unicode="&#x44c;" horiz-adv-x="562" 
d="M185 335h150q146 0 186 -100q11 -33 11 -66q0 -82 -56.5 -125.5t-139.5 -43.5h-242v494h91v-159zM325 253h-140v-171h140q111 0 111 87q0 84 -111 84z" />
    <glyph glyph-name="uni044D" unicode="&#x44d;" horiz-adv-x="594" 
d="M51 154h90q20 -40 59 -61t86 -21q60 0 101.5 38.5t52.5 99.5h-228v82h226q-12 59 -52 94.5t-99 35.5q-103 0 -144 -82h-92q21 97 125 146q45 20 111 20q108 0 179 -75.5t71 -183.5q0 -109 -72 -184t-179 -75q-70 0 -132.5 33t-88.5 93q-13 29 -14 40z" />
    <glyph glyph-name="uni044E" unicode="&#x44e;" horiz-adv-x="840" 
d="M92 0v494h91v-202h94q16 96 85.5 155t165.5 59q110 0 182.5 -75t72.5 -184q0 -110 -73 -184.5t-182 -74.5q-97 0 -169 63t-84 159h-92v-210h-91zM528 72q73 0 117 51t44 124q0 75 -44 125q-50 50 -117 50q-72 0 -116.5 -51.5t-44.5 -123.5q0 -73 45 -124t116 -51z" />
    <glyph glyph-name="uni044F" unicode="&#x44f;" horiz-adv-x="607" 
d="M513 0h-91v179h-147l-120 -179h-105l131 191q-56 13 -86 52t-30 97q0 74 50.5 114t125.5 40h272v-494zM252 261h170v151h-170q-91 0 -91 -72q0 -40 25 -59.5t66 -19.5z" />
    <glyph glyph-name="uni0451" unicode="&#x451;" horiz-adv-x="612" 
d="M308 506q116 0 184 -77.5t68 -192.5h-411q2 -49 30 -91.5t72 -59.5q29 -13 66 -13q44 0 87 17.5t60 51.5h90q-8 -45 -46 -80.5t-85 -54.5q-43 -18 -106 -18q-112 0 -186 74t-74 185t71 185t180 74zM308 428q-58 0 -98.5 -30t-54.5 -86h304q-17 55 -56 85.5t-95 30.5z
M168 589v139h92v-139h-92zM356 589v139h92v-139h-92z" />
    <glyph glyph-name="uni0453" unicode="&#x453;" horiz-adv-x="490" 
d="M92 0v494h368v-82h-277v-412h-91zM227 579l108 183h100l-115 -183h-93z" />
    <glyph glyph-name="uni045E" unicode="&#x45e;" horiz-adv-x="581" 
d="M558 494l-324 -718h-93l106 235l-224 483h103l169 -376l169 376h94zM295 645q31 0 47 20t16 52v17h76v-19q0 -66 -37 -104t-102 -38t-102 38.5t-37 103.5v19h76v-17q0 -31 16.5 -51.5t46.5 -20.5z" />
    <glyph glyph-name="uni0490" unicode="&#x490;" horiz-adv-x="709" 
d="M110 0v710h482v160h87v-251h-472v-619h-97z" />
    <glyph glyph-name="uni1E80" unicode="&#x1e80;" horiz-adv-x="1129" 
d="M765 -4l-199 562l-200 -562h-79l-244 714h105l184 -557l196 561h81l197 -566l186 562h94l-237 -714h-84zM617 778h-102l-120 150h110z" />
    <glyph glyph-name="uni1E81" unicode="&#x1e81;" horiz-adv-x="869" 
d="M582 -4l-146 373l-146 -373h-73l-189 498h98l134 -365l142 369h76l141 -365l132 361h90l-187 -498h-72zM484 579h-93l-115 183h100z" />
    <glyph glyph-name="uni1E82" unicode="&#x1e82;" horiz-adv-x="1129" 
d="M765 -4l-199 562l-200 -562h-79l-244 714h105l184 -557l196 561h81l197 -566l186 562h94l-237 -714h-84zM516 778l112 150h110l-120 -150h-102z" />
    <glyph glyph-name="uni1E83" unicode="&#x1e83;" horiz-adv-x="869" 
d="M582 -4l-146 373l-146 -373h-73l-189 498h98l134 -365l142 369h76l141 -365l132 361h90l-187 -498h-72zM392 579l108 183h100l-115 -183h-93z" />
    <glyph glyph-name="uni1E84" unicode="&#x1e84;" horiz-adv-x="1129" 
d="M765 -4l-199 562l-200 -562h-79l-244 714h105l184 -557l196 561h81l197 -566l186 562h94l-237 -714h-84zM418 778v139h92v-139h-92zM622 778v139h92v-139h-92z" />
    <glyph glyph-name="uni1E85" unicode="&#x1e85;" horiz-adv-x="869" 
d="M582 -4l-146 373l-146 -373h-73l-189 498h98l134 -365l142 369h76l141 -365l132 361h90l-187 -498h-72zM299 589v139h92v-139h-92zM487 589v139h92v-139h-92z" />
    <glyph glyph-name="uni1EF2" unicode="&#x1ef2;" horiz-adv-x="765" 
d="M434 302v-302h-97v300l-322 410h123l250 -321l249 321h113zM448 778h-102l-120 150h110z" />
    <glyph glyph-name="uni1EF3" unicode="&#x1ef3;" horiz-adv-x="581" 
d="M558 494l-324 -718h-93l106 235l-224 483h103l169 -376l169 376h94zM343 579h-93l-115 183h100z" />
    <glyph glyph-name="uni2013" unicode="&#x2013;" horiz-adv-x="704" 
d="M84 257v76h536v-76h-536z" />
    <glyph glyph-name="_44" 
d="M404 579h-93l-115 183h100z" />
    <glyph glyph-name="_72" 
d="M160 589v139h92v-139h-92zM348 589v139h92v-139h-92z" />
    <glyph glyph-name="_73" horiz-adv-x="500" 
d="M403 621h-306v78h306v-78z" />
    <glyph glyph-name="_74" 
d="M196 579l108 183h100l-115 -183h-93z" />
    <glyph glyph-name="_75" 
d="M342 -156q0 34 -41 34h-86v122h80v-55h14q120 0 120 -101q0 -53 -31.5 -81t-85.5 -28h-137v74h126q41 0 41 35z" />
    <glyph glyph-name="_132" 
d="M334 576l-74 114l-74 -114h-90l126 193h76l123 -193h-87z" />
    <glyph glyph-name="_133" 
d="M424 772l-126 -193h-76l-123 193h88l74 -114l74 114h89z" />
    <glyph glyph-name="_134" 
d="M300 645q31 0 47 20t16 52v17h76v-19q0 -66 -37 -104t-102 -38t-102 38.5t-37 103.5v19h76v-17q0 -31 16.5 -51.5t46.5 -20.5z" />
    <glyph glyph-name="_135" 
d="M253 589v143h94v-143h-94z" />
    <glyph glyph-name="_136" 
d="M300 567q-54 0 -92.5 36.5t-38.5 90.5q0 55 38.5 91t92.5 36q55 0 93 -36.5t38 -90.5q0 -55 -38.5 -91t-92.5 -36zM300 629q28 0 46 18t18 47q0 27 -17 47q-18 18 -47 18q-28 0 -46 -18t-18 -47q0 -28 18 -46.5t46 -18.5z" />
    <glyph glyph-name="_137" 
d="M437 -142v-82h-89q-55 0 -92 21.5t-37 72.5q0 39 31 70q15 16 33 29q26 20 41 31h91q-53 -43 -74 -64q-27 -26 -27 -48q0 -30 37 -30h86z" />
    <glyph glyph-name="_138" 
d="M211 575h-72v76q0 94 79 94q29 0 49 -11q18 -11 42 -32l29 -24q2 -1 8.5 -6t9.5 -7q8 -5 16 -5q17 0 17 23v67h72v-76q0 -94 -79 -94q-28 0 -48 12q-19 10 -43 31l-29 24q-2 1 -8.5 6t-9.5 7q-8 5 -16 5q-17 0 -17 -23v-67z" />
    <glyph glyph-name="_139" 
d="M301 579l84 183h88l-91 -183h-81zM126 579l84 183h88l-91 -183h-81z" />
    <glyph glyph-name="_221" horiz-adv-x="281" 
d="M93 589v143h95v-143h-95zM95 0v494h91v-494h-91z" />
    <glyph glyph-name="_256" horiz-adv-x="500" 
d="M279 -325h-67q35 62 35 115h-52v115h112v-98q0 -68 -28 -132z" />
    <glyph glyph-name="_257" horiz-adv-x="500" 
d="M222 819h67q-13 -23 -24 -57.5t-11 -57.5h52v-115h-112v98q0 67 28 132z" />
    <glyph glyph-name="_258" 
d="M411 778h-102l-120 150h110z" />
    <glyph glyph-name="_259" 
d="M152 778v139h92v-139h-92zM356 778v139h92v-139h-92z" />
    <glyph glyph-name="_260" horiz-adv-x="500" 
d="M415 813h-330v78h330v-78z" />
    <glyph glyph-name="_261" 
d="M189 778l112 150h110l-120 -150h-102z" />
    <glyph glyph-name="_262" 
d="M341 775l-80 89l-81 -89h-98l139 156h78l136 -156h-94z" />
    <glyph glyph-name="_263" 
d="M435 931l-139 -156h-78l-136 156h94l81 -89l80 89h98z" />
    <glyph glyph-name="_264" 
d="M300 843q32 0 50.5 21t18.5 54v13h76v-15q0 -67 -39.5 -106t-105.5 -39q-48 0 -84 22t-51 66q-10 24 -10 57v15h76v-13q0 -33 18.5 -54t50.5 -21z" />
    <glyph glyph-name="_265" 
d="M253 778v143h94v-143h-94z" />
    <glyph glyph-name="_266" 
d="M300 768q-54 0 -92.5 36.5t-38.5 90.5q0 55 38.5 91t92.5 36q55 0 93 -36.5t38 -90.5q0 -55 -38.5 -91t-92.5 -36zM300 830q28 0 46 18t18 47q0 27 -17 47q-18 18 -47 18q-28 0 -46 -18t-18 -47q0 -28 18 -46.5t46 -18.5z" />
    <glyph glyph-name="_267" 
d="M296 816l-38 22q-14 8 -20 11q-9 4 -18 4q-17 0 -17 -24v-56h-73v66q0 94 77 94q25 0 49 -11q22 -12 48 -27l38 -22q24 -15 37 -15q18 0 18 24v56h73v-66q0 -42 -19 -68t-59 -26q-27 0 -48 12q-18 9 -48 26z" />
    <glyph glyph-name="_268" 
d="M303 778l78 150h92l-85 -150h-85zM127 778l78 150h92l-85 -150h-85z" />
    <glyph glyph-name="_277" horiz-adv-x="814" 
d="M722 -161v161h-630v-161h-87v251h74l285 624h86l285 -624h74v-251h-87zM175 90h458l-229 500z" />
    <glyph glyph-name="_285" horiz-adv-x="787" 
d="M33 0l312 713h91l318 -713h-110l-256 587l-256 -587h-99z" />
    <glyph glyph-name="_308" horiz-adv-x="632" 
d="M57 237q0 71 36 128.5t100 84.5q-102 33 -102 121q0 133 185 148q69 6 135 12q65 5 126 12v-84q-104 -13 -261 -24q-91 -6 -91 -67q0 -21 13 -36.5t36.5 -24t40 -12t41.5 -6.5q259 -37 259 -252q0 -112 -74 -180.5t-185 -68.5q-112 0 -185.5 70t-73.5 179zM316 72
q75 0 120 45.5t45 119.5q0 76 -45.5 120.5t-119.5 44.5q-75 0 -120 -45.5t-45 -119.5q0 -75 46 -120t119 -45z" />
    <glyph glyph-name="_310" horiz-adv-x="650" 
d="M88 222v299q0 106 67 165.5t173 59.5q104 0 170.5 -54t66.5 -153q0 -52 -25.5 -96.5t-71.5 -64.5q56 -21 86.5 -65.5t30.5 -105.5q0 -104 -73.5 -162t-179.5 -58q-115 0 -179.5 62t-64.5 173zM328 662q-68 0 -108.5 -36.5t-40.5 -104.5v-109h147q67 0 106 31t39 96
q0 63 -39 93t-104 30zM179 330v-108q0 -74 40 -113t114 -39q71 0 114.5 34t43.5 103q0 70 -44 96.5t-120 26.5h-148z" />
    <glyph glyph-name="_312" horiz-adv-x="543" 
d="M330 217l-106 -12q-41 -5 -64.5 -19.5t-23.5 -50.5q0 -27 23.5 -43.5t49 -21t52.5 -4.5q97 0 138 54q10 13 11 18h97q-14 -51 -54 -86.5t-89 -50.5t-103 -15q-103 0 -160 44q-56 38 -56 105q0 39 13.5 67.5t33.5 45.5t51.5 27.5t59 15t64.5 6.5q23 1 51 6q84 9 84 64
q0 25 -21 40t-44 19t-48 4q-83 0 -126 -43q-4 -4 -8.5 -9t-5.5 -6h-97q22 72 88 104t149 32q139 0 189 -84q14 -28 14 -60q0 -68 -45 -104t-117 -43z" />
    <glyph glyph-name="_313" horiz-adv-x="490" 
d="M92 0v494h368v-82h-277v-412h-91z" />
    <glyph glyph-name="_315" horiz-adv-x="667" 
d="M482 0v84q-3 -6 -17 -26q-58 -71 -163 -71q-110 0 -177 74.5t-67 184.5q0 112 67.5 186t176.5 74q106 0 162 -69q14 -18 18 -26v83h91v-494q0 -115 -72 -175.5t-187 -60.5q-122 0 -195 66q-44 41 -57 90h100q48 -72 152 -72q78 0 123 38t45 114zM484 246q0 74 -45 126
q-50 50 -120 50q-76 0 -121.5 -50t-45.5 -126q0 -75 47 -125t120 -50t119 51t46 124z" />
    <glyph glyph-name="_316" horiz-adv-x="626" 
d="M430 82v330h-202l-13 -110q-9 -75 -22 -137q-10 -49 -31 -83h268zM96 -149h-81v231h59q42 56 60 227l21 185h366v-412h90v-231h-81v149h-434v-149z" />
    <glyph glyph-name="_319" horiz-adv-x="847" 
d="M378 0v223l-244 -223h-126l278 253l-266 241h128l230 -211v453h88v-453l230 211h127l-264 -239l280 -255h-129l-244 223v-223h-88z" />
    <glyph glyph-name="_321" horiz-adv-x="543" 
d="M501 -6q0 -102 -68.5 -161t-170.5 -59q-95 0 -161 49t-81 140h96q13 -52 52.5 -79t93.5 -27q67 0 106 35.5t39 101.5q0 123 -150 123h-58v82h58q60 0 95 28t35 86q0 54 -33 82t-88 28q-100 0 -133 -76h-92q12 76 78 118t147 42q95 0 155 -51.5t60 -142.5q0 -50 -28.5 -90
t-74.5 -58q60 -18 91.5 -63t31.5 -108z" />
    <glyph glyph-name="_323" horiz-adv-x="645" 
d="M460 0v91q-30 -60 -103 -92q-27 -10 -62 -10q-92 0 -149 63q-58 58 -58 158v284h92v-267q0 -68 35.5 -111t101.5 -43t104.5 43.5t38.5 110.5v267h91v-494h-91z" />
    <glyph glyph-name="_325" horiz-adv-x="645" 
d="M460 0v91q-30 -60 -103 -92q-27 -10 -62 -10q-92 0 -149 63q-58 58 -58 158v284h92v-267q0 -68 35.5 -111t101.5 -43t104.5 43.5t38.5 110.5v267h91v-494h-91zM319 646q31 0 47 20t16 52v17h76v-19q0 -66 -37 -104t-102 -38t-102 38.5t-37 103.5v19h76v-17
q0 -31 16.5 -51.5t46.5 -20.5z" />
    <glyph glyph-name="_327" horiz-adv-x="591" 
d="M454 0l-272 228v-228h-88v736h88v-451l258 209h130l-292 -233l305 -261h-129z" />
    <glyph glyph-name="_329" horiz-adv-x="581" 
d="M23 0l229 503h73l233 -503h-102l-170 381l-169 -381h-94z" />
    <glyph glyph-name="_332" horiz-adv-x="647" 
d="M94 0v494h91v-202h277v202h91v-494h-91v210h-277v-210h-91z" />
    <glyph glyph-name="_335" horiz-adv-x="652" 
d="M185 267v-267h-91v494h91v-91q24 47 69.5 74.5t98.5 27.5q91 0 153 -62q58 -65 58 -159v-284h-92v267q0 68 -37 111t-104 43t-106.5 -44t-39.5 -110z" />
    <glyph glyph-name="_336" horiz-adv-x="637" 
d="M94 0v494h449v-494h-91v412h-267v-412h-91z" />
    <glyph glyph-name="_340" horiz-adv-x="1019" 
d="M185 267v-267h-91v494h91v-91q24 47 68.5 74.5t97.5 27.5q64 0 113 -31t74 -89q23 54 73 87t109 33q91 0 153 -62q58 -65 58 -159v-284h-92v267q0 67 -35.5 110.5t-101.5 43.5t-105 -44t-39 -110v-267h-92v267q0 67 -35.5 110.5t-101.5 43.5t-105 -44t-39 -110z" />
    <glyph glyph-name="_341" horiz-adv-x="551" 
d="M230 0v412h-200v82h491v-82h-200v-412h-91z" />
    <glyph glyph-name="_346" horiz-adv-x="656" 
d="M180 494v-267q0 -68 35.5 -111t101.5 -43t104.5 43.5t38.5 110.5v267h91v-412h90v-231h-81v149h-100v91q-30 -60 -103 -92q-27 -10 -62 -10q-92 0 -149 63q-58 58 -58 158v284h92z" />
    <glyph glyph-name="_348" horiz-adv-x="618" 
d="M433 0v188q-14 -4 -40 -7q-4 0 -19.5 -1.5t-25.5 -2.5q-34 -2 -58 -2q-104 0 -157 44t-53 145v130h91v-120q0 -28 6 -51q13 -67 113 -67q23 0 59 2q10 1 25.5 2.5t19.5 1.5q22 3 39 6v226h91v-494h-91z" />
    <glyph glyph-name="_350" horiz-adv-x="1019" 
d="M834 227v267h91v-494h-91v91q-23 -46 -68.5 -74t-97.5 -28q-63 0 -113 31.5t-74 88.5q-23 -55 -72.5 -87.5t-109.5 -32.5q-95 0 -152 63q-59 59 -59 158v284h92v-267q0 -67 36 -110.5t101 -43.5q66 0 105 44t39 110v267h92v-267q0 -67 36 -110.5t101 -43.5q66 0 105 44
t39 110z" />
    <glyph glyph-name="_352" horiz-adv-x="1030" 
d="M925 494v-412h90v-231h-81v149h-100v91q-29 -59 -104 -92q-27 -10 -62 -10q-63 0 -113 31.5t-74 88.5q-23 -55 -72.5 -87.5t-109.5 -32.5q-95 0 -153 63t-58 158v284h92v-267q0 -67 36 -110.5t101 -43.5q66 0 105 44t39 110v267h92v-267q0 -67 36 -110.5t101 -43.5
q66 0 105 44t39 110v267h91z" />
    <glyph glyph-name="_356" horiz-adv-x="556" 
d="M526 169q0 -56 -35 -99t-90 -65q-38 -17 -96 -17q-89 0 -153 53t-64 138v315h91v-159h130q160 0 205 -101q12 -32 12 -65zM179 253v-75q0 -55 35 -81.5t91 -26.5q54 0 89.5 24t35.5 75q0 84 -131 84h-120z" />
    <glyph glyph-name="_359" horiz-adv-x="840" 
d="M92 0v736h91v-444h94q16 96 85.5 155t165.5 59q110 0 182.5 -75t72.5 -184q0 -110 -73 -184.5t-182 -74.5q-97 0 -169 63t-84 159h-92v-210h-91zM528 72q73 0 117 51t44 124q0 75 -44 125q-50 50 -117 50q-72 0 -116.5 -51.5t-44.5 -123.5q0 -73 45 -124t116 -51z" />
    <glyph glyph-name="_365" horiz-adv-x="645" 
d="M460 0v91q-30 -60 -103 -92q-27 -10 -62 -10q-92 0 -149 63q-58 58 -58 158v284h92v-267q0 -68 35.5 -111t101.5 -43t104.5 43.5t38.5 110.5v267h91v-494h-91z" />
    <glyph glyph-name="_366" horiz-adv-x="489" 
d="M459 412h-192v-412h-91v412h-146v82h146v78q0 164 176 164h139v-82h-129q-95 0 -95 -95v-65h192v-82z" />
    <glyph glyph-name="_367" 
d="M257 860l97 150h98l-104 -150h-91zM300 567q-54 0 -92.5 36.5t-38.5 90.5q0 55 38.5 91t92.5 36q55 0 93 -36.5t38 -90.5q0 -55 -38.5 -91t-92.5 -36zM300 629q28 0 46 18t18 47q0 27 -17 47q-18 18 -47 18q-28 0 -46 -18t-18 -47q0 -28 18 -46.5t46 -18.5z" />
    <glyph glyph-name="_368" 
d="M253 1061l104 140h106l-112 -140h-98zM300 768q-54 0 -92.5 36.5t-38.5 90.5q0 55 38.5 91t92.5 36q55 0 93 -36.5t38 -90.5q0 -55 -38.5 -91t-92.5 -36zM300 830q28 0 46 18t18 47q0 27 -17 47q-18 18 -47 18q-28 0 -46 -18t-18 -47q0 -28 18 -46.5t46 -18.5z" />
    <glyph glyph-name="_369" horiz-adv-x="668" 
d="M638 169q0 -56 -35 -99t-90 -65q-38 -17 -96 -17q-89 0 -153 53t-64 138v233h-170v82h261v-159h130q160 0 205 -101q12 -32 12 -65zM291 253v-75q0 -55 35 -81.5t91 -26.5q54 0 89.5 24t35.5 75q0 84 -131 84h-120z" />
    <glyph glyph-name="_370" 
d="M300 645q31 0 47 20t16 52v17h76v-19q0 -66 -37 -104t-102 -38t-102 38.5t-37 103.5v19h76v-17q0 -31 16.5 -51.5t46.5 -20.5z" />
    <glyph glyph-name="_371" 
d="M300 843q32 0 50.5 21t18.5 54v13h76v-15q0 -67 -39.5 -106t-105.5 -39q-48 0 -84 22t-51 66q-10 24 -10 57v15h76v-13q0 -33 18.5 -54t50.5 -21z" />
    </font>
</defs>
</svg>
