<?xml version="1.0" standalone="no"?>
<!DOCTYPE svg PUBLIC "-//W3C//DTD SVG 1.1//EN" "http://www.w3.org/Graphics/SVG/1.1/DTD/svg11.dtd" >
<svg xmlns="http://www.w3.org/2000/svg" xmlns:xlink="http://www.w3.org/1999/xlink" version="1.1">
<metadata>
Created by FontForge 20201107 at Mon Jan 20 08:55:51 2025
 By 
Pavel Larin
</metadata>
<defs>
<font id="Paseo-Medium" horiz-adv-x="0" >
  <font-face 
    font-family="Paseo Medium"
    font-weight="500"
    font-stretch="normal"
    units-per-em="2048"
    panose-1="0 0 0 0 0 0 0 0 0 0"
    ascent="1638"
    descent="-410"
    x-height="1024"
    cap-height="1434"
    bbox="-395 -1638 2357 2458"
    underline-thickness="102"
    underline-position="-255"
    unicode-range="U+0020-E022"
  />
<missing-glyph horiz-adv-x="2048" 
d="M1679 2458v-4096h-1298v4096h1298zM1364 -336h-680v-463h680v463zM1229 -471v-193h-410v193h410zM1364 373h-410v-230h140v95h135v-193h-410v328h-135v-463h680v463zM1364 872h-135v-270h-545v-139h680v409zM1364 1118h-680v-135h270v-152h-270v-135h410v287h270v135z
M954 1516v-148h-135v148h135zM1094 1655h-410v-426h680v139h-270v287zM1364 2183h-676v-135h266v-152h-270v-135h680v135h-270v152h270v135zM1364 -893h-680v-135h287l-287 -193v-135h680v135h-418l287 193h131v135z" />
    <glyph glyph-name="uniE01F" unicode="ff" horiz-adv-x="1269" 
d="M139 0v971h-139v53h141v12q0 84 26 156.5t69 122.5t100.5 85.5t119.5 52.5t126 17q92 0 167.5 -36t114.5 -105q69 81 178.5 115t239.5 22v-32q-151 3 -214.5 -80.5t-63.5 -257.5v-72h247v-53h-247v-971h-242v971h-379v-971h-244zM373 1024h389v23q0 148 74 247
q-24 60 -80.5 93.5t-124.5 33.5q-106 0 -182 -77t-76 -224v-96z" />
    <glyph glyph-name="uniE020" unicode="ffi" horiz-adv-x="1697" 
d="M139 0v971h-139v53h141v12q0 111 40 200.5t105.5 143.5t143 82.5t158.5 28.5q91 0 162 -34t110 -99q62 84 157 127t200 43q146 0 246 -64.5t100 -173.5q0 -64 -42.5 -107.5t-105.5 -43.5q-64 0 -105.5 39.5t-41.5 103.5q0 60 40.5 99.5t100.5 39.5q18 0 39 -6
q-74 66 -195 66q-108 0 -179.5 -71.5t-74.5 -207.5v-178h283q68 0 115.5 -6.5t80.5 -23.5t52 -37.5t29 -58.5t13 -76t3 -99v-723h-242v784v12q0 32 -1 49t-8.5 44.5t-22.5 42.5t-46 26.5t-75 12.5h-170v-971h-244v971h-383v-971h-244zM373 1024h393v57q0 133 70 240
q-29 59 -83 90t-122 31q-50 0 -95 -17t-82 -51.5t-59 -93t-22 -133.5v-123z" />
    <glyph glyph-name="uniE021" unicode="fi" horiz-adv-x="1071" 
d="M139 0v971h-139v53h141v68q0 106 40 191.5t106.5 137.5t146.5 79.5t164 27.5q91 0 167.5 -27.5t124 -82.5t48.5 -128q0 -64 -42.5 -107.5t-104.5 -43.5q-63 0 -106.5 41t-43.5 102q0 59 39.5 100t97.5 41q24 0 45 -8q-77 66 -194 66q-111 0 -184.5 -73.5t-73.5 -215.5
v-168h276q70 0 118.5 -6t82 -23t53.5 -37.5t30.5 -58t13.5 -76t3 -100.5v-723h-241v784q0 81 -11 111q-28 75 -141 76h-172v-971h-244z" />
    <glyph glyph-name="uniE022" unicode="fl" horiz-adv-x="1351" 
d="M1063 -20q-136 0 -204 78t-68 245v948q0 192 -179 197h-22q-110 -3 -158.5 -70t-48.5 -178v-176h235v-53h-235v-971h-244v971h-139v53h139v37q0 426 475 426h99q72 0 124.5 -8.5t88 -29t57 -45.5t33 -66t15 -82t3.5 -103v-922q0 -95 24 -141t95 -49q39 -2 83.5 13.5
t74.5 41.5v-37q-38 -37 -104 -58t-144 -21z" />
    <glyph glyph-name=".notdef" horiz-adv-x="2048" 
d="M1679 2458v-4096h-1298v4096h1298zM1364 -336h-680v-463h680v463zM1229 -471v-193h-410v193h410zM1364 373h-410v-230h140v95h135v-193h-410v328h-135v-463h680v463zM1364 872h-135v-270h-545v-139h680v409zM1364 1118h-680v-135h270v-152h-270v-135h410v287h270v135z
M954 1516v-148h-135v148h135zM1094 1655h-410v-426h680v139h-270v287zM1364 2183h-676v-135h266v-152h-270v-135h680v135h-270v152h270v135zM1364 -893h-680v-135h287l-287 -193v-135h680v135h-418l287 193h131v135z" />
    <glyph glyph-name=".null" 
 />
    <glyph glyph-name="nonmarkingreturn" horiz-adv-x="682" 
 />
    <glyph glyph-name="space" unicode=" " horiz-adv-x="618" 
 />
    <glyph glyph-name="exclam" unicode="!" horiz-adv-x="446" 
d="M211 305l-102 1149h268l-101 -1149h-65zM246 -20q-48 0 -80.5 31.5t-32.5 80.5q0 45 33 78t80 33q45 0 77.5 -33t32.5 -78q0 -49 -32 -80.5t-78 -31.5z" />
    <glyph glyph-name="quotedbl" unicode="&#x22;" horiz-adv-x="636" 
d="M369 1036l22 400h184l-157 -400h-49zM102 1036l21 400h186l-157 -400h-50z" />
    <glyph glyph-name="numbersign" unicode="#" horiz-adv-x="1429" 
d="M295 0l129 385h-322l21 66h321l109 327h-340l25 64h337l130 387h65l-129 -387l344 -2l129 389h68l-129 -389h315l-22 -62h-316l-110 -329h335l-20 -64h-334l-129 -385h-67l129 385h-345l-129 -385h-65zM854 449l109 329h-342l-109 -327z" />
    <glyph glyph-name="dollar" unicode="$" horiz-adv-x="1269" 
d="M514 -10q-163 23 -276.5 104t-135.5 213h50q13 -70 67 -126t129.5 -88.5t165.5 -45.5v600q-85 38 -145 73t-118.5 85.5t-89 115.5t-30.5 144q0 146 109 244t274 131v184h57v-174q58 4 84 4q43 0 84 -6v176h56v-184q137 -28 231.5 -108t116.5 -206h-47q-21 102 -104 168.5
t-197 91.5v-581q52 -22 89.5 -40t83.5 -43.5t78 -49.5t64.5 -56.5t52.5 -67t32.5 -78t12.5 -91.5q0 -77 -33 -142.5t-90.5 -112.5t-130.5 -79t-159 -49v-205h-56v197q-47 -8 -96 -8q-32 0 -72 4v-193h-57v199zM641 39q51 0 98 12v498q-28 13 -84.5 37t-83.5 37v-580
q40 -4 70 -4zM795 66q194 60 194 221q0 74 -50 129t-144 106v-456zM514 1368q-75 -26 -119.5 -80t-44.5 -129q0 -132 164 -223v432zM739 1395q-47 4 -77 2q-60 -4 -91 -11v-485l168 -72v566z" />
    <glyph glyph-name="percent" unicode="%" horiz-adv-x="1460" 
d="M209 0l1014 1434h65l-1014 -1434h-65zM1085 -18q-134 0 -222.5 89.5t-88.5 219.5q0 129 88.5 218t222.5 89q133 0 223.5 -89.5t90.5 -217.5q0 -130 -90.5 -219.5t-223.5 -89.5zM1087 18q59 0 101.5 78.5t42.5 194.5q0 117 -42.5 194.5t-101.5 77.5q-58 0 -98.5 -77.5
t-40.5 -194.5q0 -116 40.5 -194.5t98.5 -78.5zM416 838q-134 0 -224 89.5t-90 219.5q0 129 90 218t224 89q132 0 221.5 -89t89.5 -218q0 -130 -89 -219.5t-222 -89.5zM418 874q59 0 100 78.5t41 194.5q0 117 -41 194.5t-100 77.5t-100.5 -77.5t-41.5 -194.5
q0 -116 41.5 -194.5t100.5 -78.5z" />
    <glyph glyph-name="ampersand" unicode="&#x26;" horiz-adv-x="1427" 
d="M565 -20q-129 2 -231 38.5t-166.5 114.5t-65.5 186q0 55 13.5 103t43.5 89.5t61 73.5t82 66.5t87.5 56.5t95.5 54q-213 222 -213 403q0 115 59.5 198t149.5 121t195 38q70 0 133 -19t113 -55t80 -94t30 -131q0 -65 -25 -122.5t-74.5 -106.5t-100 -85.5t-123.5 -79.5
q8 -7 68.5 -64.5t83 -79.5t78.5 -77.5t89 -91t77 -85.5t79 -95q35 69 39.5 157t-18 165t-75 134t-124.5 66v35h57q63 0 101 -2t69 -11.5t45 -21t23.5 -38.5t11.5 -55t2 -79q4 -98 -24 -200.5t-77 -188.5q125 -176 152 -297h-289q-3 58 -47 135q-194 -158 -465 -155zM666 47
q108 1 197.5 35t146.5 92q-35 58 -84 121t-113.5 132.5t-105 111.5t-112 112t-81.5 80q-240 -149 -240 -350q5 -144 108 -241t284 -93zM682 854q58 38 98 71t76 77t54 97.5t18 117.5q0 124 -69 192t-165 68q-93 0 -161 -65.5t-68 -180.5q0 -170 217 -377z" />
    <glyph glyph-name="quotesingle" unicode="'" horiz-adv-x="370" 
d="M102 1036l21 400h186l-157 -400h-50z" />
    <glyph glyph-name="parenleft" unicode="(" horiz-adv-x="651" 
d="M541 -256q-439 461 -439 854q0 394 439 852h49q-232 -405 -232 -852q0 -449 232 -854h-49z" />
    <glyph glyph-name="parenright" unicode=")" horiz-adv-x="651" 
d="M102 -256q232 405 232 854q0 447 -232 852h50q438 -457 438 -852q0 -394 -438 -854h-50z" />
    <glyph glyph-name="asterisk" unicode="*" horiz-adv-x="843" 
d="M442 991q-29 0 -47.5 23t-13.5 53l39 279l-211 -193q-23 -22 -51 -20.5t-45 26.5q-14 23 -5.5 50t35.5 40l238 115l-238 113q-28 15 -37.5 42t7.5 54q17 22 44 23t50 -21l213 -193l-39 277q-5 30 13.5 53t47.5 23t49 -23.5t15 -52.5l-39 -277l211 193q24 22 52.5 22
t41.5 -24q15 -29 7 -55t-36 -41l-237 -113l237 -115q28 -13 36 -39t-7 -51q-15 -26 -43 -27t-51 21l-211 193l39 -279q5 -29 -15 -52.5t-49 -23.5z" />
    <glyph glyph-name="plus" unicode="+" horiz-adv-x="1054" 
d="M508 258v426h-406v82h406v385h80v-385h405v-82h-405v-426h-80z" />
    <glyph glyph-name="comma" unicode="," horiz-adv-x="387" 
d="M172 -219q47 60 47 135q0 27 -18.5 45t-40 27.5t-40 35t-18.5 64.5q0 50 32.5 81.5t76.5 31.5q53 0 84 -36t31 -91q0 -76 -42 -165t-89 -136z" />
    <glyph glyph-name="hyphen" unicode="-" horiz-adv-x="837" 
d="M102 567v58h674v-58h-674z" />
    <glyph glyph-name="period" unicode="." horiz-adv-x="387" 
d="M215 -20q-47 0 -80 31.5t-33 80.5q0 44 33.5 77.5t79.5 33.5q44 0 77.5 -33.5t33.5 -77.5q0 -48 -33 -80t-78 -32z" />
    <glyph glyph-name="slash" unicode="/" horiz-adv-x="974" 
d="M102 -240l738 1694h73l-737 -1694h-74z" />
    <glyph glyph-name="zero" unicode="0" horiz-adv-x="1441" 
d="M752 -20q-133 0 -250 52t-203 146t-136 234t-50 307t49.5 306t135.5 232.5t203 145t251 51.5q133 0 250 -51.5t203 -145t136 -232.5t50 -306q0 -168 -49.5 -308t-135.5 -233.5t-203 -145.5t-251 -52zM752 33q170 0 281.5 188t111.5 498q0 309 -111 495.5t-282 186.5
q-176 0 -281.5 -184t-105.5 -498t106 -500t281 -186z" />
    <glyph glyph-name="one" unicode="1" horiz-adv-x="727" 
d="M297 0v1264l-154 -127v69l281 248h117v-1454h-244z" />
    <glyph glyph-name="two" unicode="2" horiz-adv-x="1101" 
d="M111 14q113 88 209 175.5t187 191.5t155 205t102.5 214t38.5 220q0 90 -27 160.5t-72.5 114t-103.5 65.5t-123 22q-131 0 -228 -89.5t-97 -241.5h-37q0 98 38.5 177t103 128t144.5 74.5t168 25.5q89 0 172.5 -27.5t152 -78.5t109.5 -134t41 -184q0 -68 -24 -139.5
t-62 -135t-97.5 -133.5t-117 -126t-135 -120.5t-136.5 -110t-136 -101.5h364q76 0 115.5 0.5t77.5 5t52.5 8.5t31.5 19t23 26.5t20 40.5h37q-9 -23 -25 -63q-19 -47 -26.5 -67.5t-25.5 -49t-24 -37.5t-32 -23t-39 -16t-56 -6.5t-72 -4t-97 0.5h-7h-542v14z" />
    <glyph glyph-name="three" unicode="3" horiz-adv-x="1155" 
d="M569 -20q-171 0 -289 77t-161 213h33q24 -64 66.5 -112t93 -74t100.5 -38.5t98 -12.5q121 0 209 58.5t129 147.5t41 195q0 153 -91.5 257t-252.5 104h-47l362 465h-346q-76 0 -115 -0.5t-77.5 -5t-52 -8.5t-31 -18.5t-23.5 -27t-20 -41.5h-33q53 159 69 192q28 55 75 71
q41 13 180 12h81h498l-473 -596q111 5 200.5 -17t146.5 -62t95 -94.5t54 -110.5t16 -114q0 -198 -149.5 -329t-385.5 -131z" />
    <glyph glyph-name="four" unicode="4" horiz-adv-x="1177" 
d="M741 0v410h-628l729 1044h149v-876h162l-55 -168h-107v-410h-250zM305 578h436v636z" />
    <glyph glyph-name="five" unicode="5" horiz-adv-x="1177" 
d="M582 -20q-172 0 -290.5 77t-160.5 213h33q32 -85 94.5 -140t131 -76t147.5 -21q89 0 160 35t114 94.5t65.5 133t22.5 155.5q0 202 -101 317t-272 115q-89 0 -174 -36t-182 -112l98 699h498h115t77 5t52 8.5t30.5 19t24 27.5t20.5 42h35q-54 -158 -69 -189
q-28 -56 -74 -72q-41 -14 -179 -13h-85h-414l-63 -422q164 114 366 114q140 2 259 -53.5t192 -164.5t73 -249q0 -156 -75 -273t-197.5 -175.5t-271.5 -58.5z" />
    <glyph glyph-name="six" unicode="6" horiz-adv-x="1196" 
d="M637 -20q-156 0 -278.5 89t-185.5 235.5t-60 318.5q3 149 46 279.5t115 227.5t167 169t202 111.5t219 47.5v-31q-139 -14 -249 -108t-175 -238.5t-88 -324.5q61 104 154 157.5t198 53.5q84 0 164 -34t142.5 -95t100 -155.5t36.5 -205.5q-2 -131 -64 -243.5t-179 -183
t-265 -70.5zM639 25q134 0 208 118t77 326q3 204 -80 318t-201 114q-88 0 -169 -63.5t-132 -182.5v-53q-1 -169 35 -300t104 -204t158 -73z" />
    <glyph glyph-name="seven" unicode="7" horiz-adv-x="1028" 
d="M281 0l550 1260h-436h-89.5t-67 -2.5t-50.5 -4t-35.5 -8.5t-26 -11.5t-17.5 -18.5t-15.5 -23.5t-15.5 -32.5h-37q54 159 70 191q28 55 74 71q41 14 179 13h85h528l-627 -1434h-69z" />
    <glyph glyph-name="eight" unicode="8" horiz-adv-x="1181" 
d="M602 -18q-212 0 -350.5 91t-138.5 240q0 248 319 437q-59 48 -99 86t-78 84.5t-56.5 96t-18.5 101.5q0 108 66 187t163 115t207 36q167 0 285.5 -84.5t118.5 -216.5q0 -96 -68 -192t-196 -175q162 -116 219 -167q151 -143 155 -279q0 -87 -45.5 -157.5t-121 -113.5
t-168 -66t-193.5 -23zM555 43q90 -1 170 25.5t134 83t54 131.5q0 37 -20 76t-47 70.5t-78 73.5t-88.5 69t-104 73.5t-100.5 71.5q-130 -65 -214.5 -173.5t-84.5 -213.5q0 -128 106 -207.5t273 -79.5zM715 817q248 149 248 326q0 111 -87.5 181.5t-207.5 70.5q-68 0 -128 -24
t-101.5 -77t-41.5 -125q0 -38 17.5 -76t42.5 -68t69.5 -68t79.5 -63.5t93 -65.5q11 -7 16 -11z" />
    <glyph glyph-name="nine" unicode="9" horiz-adv-x="1196" 
d="M395 8q139 15 249 109t175 239t88 326q-60 -105 -152.5 -159t-199.5 -54q-84 0 -163 34t-142 94.5t-100.5 154.5t-36.5 204q1 98 39 189t103 160.5t161.5 111t208.5 41.5q118 0 218 -51t166.5 -137.5t102.5 -202.5t33 -244q-4 -185 -69 -342t-171 -261.5t-237.5 -167
t-272.5 -72.5v28zM616 537q88 0 168 63t131 182v54q3 255 -79.5 416t-219.5 161q-132 0 -205.5 -118.5t-76.5 -325.5q-1 -104 22 -188t63 -136.5t90.5 -80t106.5 -27.5z" />
    <glyph glyph-name="colon" unicode=":" horiz-adv-x="387" 
d="M215 821q-46 0 -79.5 33.5t-33.5 79.5q0 47 33.5 78.5t79.5 31.5t78.5 -31.5t32.5 -78.5q0 -46 -32.5 -79.5t-78.5 -33.5zM215 -23q-46 0 -79.5 33t-33.5 80q0 46 33.5 78.5t79.5 32.5t78.5 -32.5t32.5 -78.5q0 -47 -32.5 -80t-78.5 -33z" />
    <glyph glyph-name="semicolon" unicode=";" horiz-adv-x="387" 
d="M172 -219q47 60 47 135q0 27 -18.5 45t-40 27.5t-40 35t-18.5 64.5q0 50 32.5 81.5t76.5 31.5q53 0 84 -36t31 -91q0 -76 -42 -165t-89 -136zM215 821q-46 0 -79.5 33.5t-33.5 79.5q0 47 33.5 78.5t79.5 31.5t78.5 -31.5t32.5 -78.5q0 -46 -32.5 -79.5t-78.5 -33.5z" />
    <glyph glyph-name="less" unicode="&#x3c;" horiz-adv-x="1054" 
d="M993 297l-891 448l891 451v-92l-719 -359l719 -356v-92z" />
    <glyph glyph-name="equal" unicode="=" horiz-adv-x="1054" 
d="M102 823v80h891v-80h-891zM102 559v78h891v-78h-891z" />
    <glyph glyph-name="greater" unicode="&#x3e;" horiz-adv-x="1054" 
d="M102 297v92l719 356l-719 359v92l891 -451z" />
    <glyph glyph-name="question" unicode="?" horiz-adv-x="931" 
d="M416 307q-2 90 22 179t59.5 162t72 145t62 156.5t25.5 168.5q0 131 -70.5 201t-174.5 70q-65 0 -125 -29.5t-101.5 -91t-42.5 -142.5h-41q1 81 33.5 145.5t86.5 104t121.5 60t141.5 20.5q99 0 185.5 -38.5t143 -118t56.5 -185.5q0 -67 -23 -133t-60 -121t-82 -109.5
t-89.5 -107t-81.5 -104.5t-60 -112t-23 -120h-35zM436 -20q-50 0 -81 31t-31 81q0 45 32 78t80 33q44 0 77.5 -33.5t33.5 -77.5q0 -48 -33 -80t-78 -32z" />
    <glyph glyph-name="at" unicode="@" horiz-adv-x="1822" 
d="M995 -371q-170 0 -316 47t-250.5 128.5t-179 189.5t-111 230.5t-36.5 250.5q0 133 36 260t109.5 239.5t176 197.5t246.5 134.5t311 49.5q120 0 232.5 -29t212.5 -89.5t174.5 -147.5t117.5 -210.5t43 -269.5q0 -88 -22 -179t-64 -172t-98 -145t-129.5 -101.5t-153.5 -37.5
q-101 0 -171 59.5t-79 153.5q-46 -82 -106 -133t-125 -51q-124 0 -191 98.5t-67 257.5q0 103 30.5 208.5t85 194t140.5 144.5t188 56q97 0 170 -89l21 80h182q-19 -83 -69.5 -271.5t-83.5 -323.5t-33 -177q0 -65 37 -97t102 -32q97 0 182.5 84t133 210.5t47.5 254.5
q0 135 -38 248t-103.5 192t-155 133.5t-191.5 80.5t-213 26q-154 0 -286 -45.5t-225.5 -123t-160.5 -181t-99 -219.5t-32 -238q0 -117 33 -228.5t100 -209t161 -171.5t224.5 -116.5t282.5 -42.5q374 0 551 180h102q-101 -123 -273 -190.5t-370 -67.5zM817 74q43 0 85 43.5
t77.5 118t63.5 157t51 174.5l51 211q-12 47 -48.5 84t-72.5 37q-79 0 -149.5 -106.5t-109 -256t-38.5 -286.5q0 -82 25.5 -129t64.5 -47z" />
    <glyph glyph-name="A" unicode="A" horiz-adv-x="1462" 
d="M586 1311q-34 44 -70 65t-92 21v37h162q128 0 201 -46.5t114 -160.5l467 -1227h-264l-182 479h-590l-178 -479h-62zM354 532h545l-229 607q-15 44 -45 112z" />
    <glyph glyph-name="B" unicode="B" horiz-adv-x="1492" 
d="M539 0q-83 0 -142 7t-101 25.5t-67.5 42.5t-40 66t-19.5 88.5t-5 116.5v844q0 36 -5 67t-19 65.5t-44 54.5t-73 20v37h643q283 0 424 -96t141 -263q0 -101 -56.5 -181.5t-162.5 -125.5q168 -36 253 -132t85 -239q0 -186 -144 -291.5t-432 -105.5h-235zM721 53
q182 0 283.5 95.5t101.5 248.5q2 157 -95.5 243.5t-275.5 86.5h-323v-473q0 -115 37.5 -158t152.5 -43h119zM616 780q181 0 276 78.5t95 216.5q0 140 -97.5 222.5t-285.5 82.5h-250q37 -30 47.5 -85.5t10.5 -143.5v-371h204z" />
    <glyph glyph-name="C" unicode="C" horiz-adv-x="1568" 
d="M899 -20q-118 1 -228 31.5t-206 92t-168 148.5t-113 207t-41 260t41 260t113 207t168 148.5t206 92t228 31.5q412 0 584 -311h-60q-53 90 -137 149t-163.5 80.5t-159.5 20.5q-255 -3 -408.5 -184.5t-153.5 -493.5t153.5 -493.5t408.5 -184.5q80 -1 159.5 20.5t163.5 80.5
t137 149h60q-172 -311 -584 -311z" />
    <glyph glyph-name="D" unicode="D" horiz-adv-x="1589" 
d="M539 0q-99 0 -164.5 11.5t-107.5 34t-64 65.5t-30 93.5t-9 131.5v854q0 36 -5 67t-19 65.5t-44 54.5t-73 20v37h636q163 0 296.5 -40.5t223.5 -109t151 -161.5t88.5 -195t27.5 -213q0 -110 -28 -211.5t-90 -194t-152 -160.5t-223 -108.5t-294 -40.5h-120zM657 53
q114 2 206.5 41.5t153 103t101.5 149.5t58.5 178.5t17.5 193.5q0 102 -17.5 195t-58.5 179t-103 149t-157 100.5t-213 37.5h-291q37 -30 47.5 -85.5t10.5 -143.5v-897q0 -115 37.5 -158t152.5 -43h55z" />
    <glyph glyph-name="E" unicode="E" horiz-adv-x="1337" 
d="M539 0q-83 0 -142 7t-101 25.5t-67.5 42.5t-40 66t-19.5 88.5t-5 116.5v856q0 34 -6.5 65t-21.5 62t-47 49.5t-77 18.5v37h758h58q169 1 205 -21t83 -156q12 -34 19 -53h-58q-7 17 -19 47q-39 97 -69.5 113t-174.5 16h-44h-420q40 -33 51 -90.5t11 -152.5v-369h598v-53
h-598v-461q0 -114 40 -157.5t158 -43.5h209h44q31 -2 57 0t45.5 1t36.5 3t29.5 6.5t23.5 10.5t19 15.5t17.5 22.5t16.5 29.5t17.5 37.5t20.5 47q11 26 17 40h58q-60 -155 -79 -187q-31 -54 -81 -68q-40 -12 -183 -11h-65h-274z" />
    <glyph glyph-name="F" unicode="F" horiz-adv-x="1255" 
d="M164 1202q0 34 -6.5 65t-21.5 62t-47 49.5t-77 18.5v37h779h58h96t63 -6t46 -14.5t28 -31t27.5 -49t26.5 -75.5q12 -34 19 -54h-59q-7 16 -18 45q-38 99 -68.5 115t-173.5 16h-43h-441q22 -18 35 -42.5t18 -62.5t6 -62.5t1 -75.5v-369h577v-53h-577v-715h-248v1202z" />
    <glyph glyph-name="G" unicode="G" horiz-adv-x="1677" 
d="M899 -20q-118 1 -228 31.5t-206 92t-168 148.5t-113 207t-41 260t41 260t113 207t168 148.5t206 92t228 31.5q412 0 584 -311h-60q-53 90 -137 149t-163.5 80.5t-159.5 20.5q-255 -3 -408.5 -184.5t-153.5 -493.5t154 -496t408 -186q194 0 321 108v383q0 35 -6 65.5
t-21 62t-46.5 50t-77.5 19.5v37h106q67 0 114.5 -7t80 -24t52 -38.5t30 -58.5t13.5 -75.5t3 -97.5v-152q-48 -88 -120 -153.5t-156.5 -103t-173 -55t-183.5 -17.5z" />
    <glyph glyph-name="H" unicode="H" horiz-adv-x="1478" 
d="M164 1202q0 35 -6 65t-21 61.5t-47 50t-78 18.5v37h111q79 0 131.5 -12t84 -32t47.5 -60t21 -83t5 -114v-361h653v662h250v-1434h-250v717h-653v-717h-248v1202z" />
    <glyph glyph-name="I" unicode="I" horiz-adv-x="577" 
d="M164 1202q0 35 -6 65t-21 61.5t-47 50t-78 18.5v37h111q79 0 131.5 -12t84 -32t47.5 -60t21 -83t5 -114v-1133h-248v1202z" />
    <glyph glyph-name="J" unicode="J" horiz-adv-x="1216" 
d="M504 -20q-115 0 -213 34.5t-167.5 110.5t-82.5 182h49q10 -84 67.5 -146t140 -92t177.5 -30q73 0 132.5 21.5t107 67t74 124.5t26.5 186v764q0 35 -6 65t-21 61.5t-46.5 50t-77.5 18.5v37h108q57 0 99.5 -6t73.5 -16t52 -29.5t34.5 -41t20 -56t9 -68.5t2.5 -84v-650
q0 -106 -33 -192t-87 -143t-127.5 -95.5t-151 -55.5t-160.5 -17z" />
    <glyph glyph-name="K" unicode="K" horiz-adv-x="1488" 
d="M1399 -10q-305 -42 -391 51q-39 40 -61.5 108t-42 173t-32.5 151q-14 48 -29.5 81t-47.5 69t-76 56.5t-116.5 32t-168.5 7.5l780 715h80l-704 -639q124 15 219 -0.5t156.5 -57.5t98.5 -97.5t58 -129.5q15 -57 35 -152t37.5 -157t42.5 -105q28 -45 62.5 -60t99.5 -9v-37z
M164 1202q0 35 -6 65t-21 61.5t-47 50t-78 18.5v37h111q79 0 131.5 -12t84 -32t47.5 -60t21 -83t5 -114v-1133h-248v1202z" />
    <glyph glyph-name="L" unicode="L" horiz-adv-x="1255" 
d="M539 0q-83 0 -142 7t-101 25.5t-67.5 42.5t-40 66t-19.5 88.5t-5 116.5v856q0 35 -6 65t-21 61.5t-47 50t-78 18.5v37h111q79 0 131.5 -12t84 -32t47.5 -60t21 -83t5 -114v-879q0 -114 40 -157.5t158 -43.5h193q139 0 173 9q45 12 72 57q13 23 66 147h60
q-61 -155 -79 -187q-31 -53 -80 -68q-40 -12 -181 -11h-68h-227z" />
    <glyph glyph-name="M" unicode="M" horiz-adv-x="1910" 
d="M862 -31l-643 1268v-1237h-55v1329q-59 68 -152 68v37h162q66 -1 105.5 -5.5t77 -19.5t63.5 -44t51 -77l490 -969l536 1115h248v-1434h-248v1305z" />
    <glyph glyph-name="N" unicode="N" horiz-adv-x="1441" 
d="M164 1325q-59 72 -152 72v37h152q131 0 196 -27.5t123 -118.5l742 -1091v1237h55v-1323q59 -72 150 -72v-39h-152q-131 0 -196 27.5t-124 117.5l-739 1092v-1237h-55v1325z" />
    <glyph glyph-name="O" unicode="O" horiz-adv-x="1806" 
d="M905 -20q-127 0 -242.5 33t-210 96.5t-164 152.5t-107.5 206t-38 251q0 167 59 306t162 232.5t242.5 145t298.5 51.5q161 0 300 -51.5t240.5 -145t159.5 -232.5t58 -306t-58 -306.5t-159.5 -234t-240.5 -146.5t-300 -52zM909 33q248 0 376 178t128 508t-128 506t-376 176
q-250 0 -379 -176t-129 -506t129 -508t379 -178z" />
    <glyph glyph-name="P" unicode="P" horiz-adv-x="1419" 
d="M164 1202q0 34 -6.5 65t-21.5 62t-47 49.5t-77 18.5v37h719q565 0 565 -379q0 -80 -29 -146t-92 -120t-176 -84.5t-268 -30.5h-319v-674h-248v1202zM682 727q184 0 270 87.5t86 240.5q0 151 -86 238t-270 87h-332q40 -33 51 -90.5t11 -152.5v-410h270z" />
    <glyph glyph-name="Q" unicode="Q" horiz-adv-x="1849" 
d="M926 -20q-164 0 -307 52t-248.5 146t-166.5 234t-61 307t61 306t166.5 232.5t248.5 145t307 51.5q165 0 307.5 -51.5t246.5 -145t164 -232.5t60 -306t-60 -307t-164 -234t-247 -146t-307 -52zM1507 -537q-81 0 -186 35t-205.5 84.5t-200 99t-197.5 84.5t-169 35
q-89 0 -147 -35t-95 -139h-20q49 179 132 255.5t199 76.5q78 0 181 -33t203.5 -80t200.5 -94.5t200 -80.5t174 -33q93 0 159.5 46t106.5 160h21q-110 -381 -357 -381zM930 33q236 0 380 182.5t144 503.5t-143.5 501.5t-380.5 180.5q-238 0 -383.5 -180.5t-145.5 -501.5
t145.5 -503.5t383.5 -182.5z" />
    <glyph glyph-name="R" unicode="R" horiz-adv-x="1480" 
d="M1427 -10q-62 -7 -109.5 -10t-108 -1.5t-109.5 17t-82 43.5q-52 43 -85 115.5t-50.5 147.5t-36.5 148.5t-58 134.5t-100 89h-276v-674h-248v1202q0 34 -6.5 65t-21.5 62t-47 49.5t-77 18.5v37h664q565 0 565 -379q0 -133 -78 -230t-248 -133q64 -16 109 -65t70.5 -117.5
t44.5 -138.5t45.5 -147t58.5 -124q32 -42 74 -58t110 -13v-39zM635 727q350 0 350 328q0 152 -83.5 238.5t-266.5 86.5h-285q40 -33 51 -90.5t11 -152.5v-410h223z" />
    <glyph glyph-name="S" unicode="S" horiz-adv-x="1372" 
d="M674 -20q-192 0 -341 85t-190 244h56q23 -85 95.5 -148t166.5 -92.5t196 -29.5q94 0 172.5 29t129.5 90.5t51 144.5q0 61 -36 111t-94.5 83t-134 66.5t-153.5 61.5t-153.5 68t-134 84.5t-94.5 113.5t-36 153q0 95 44 174t117 129.5t164 78.5t187 28q110 0 207 -32
t171.5 -103.5t98.5 -171.5h-55q-31 119 -146.5 185.5t-252.5 66.5q-132 0 -225 -68t-93 -190q0 -57 28.5 -103.5t77.5 -80t112 -62.5t132.5 -55.5t139 -54.5t132.5 -64t112 -79t77.5 -105.5t28.5 -137.5q0 -77 -31.5 -145t-85.5 -117.5t-125 -85.5t-151.5 -53.5
t-163.5 -17.5z" />
    <glyph glyph-name="T" unicode="T" horiz-adv-x="1429" 
d="M590 0v1380h-158h-35q-140 0 -169.5 -16t-67.5 -113q-12 -30 -19 -47h-59q50 138 58 154q24 49 62 63q36 14 165 13h79h537h58q169 1 205 -21t83 -156q12 -34 19 -53h-60q-7 17 -19 47q-38 97 -67.5 113t-169.5 16h-35h-159v-1380h-248z" />
    <glyph glyph-name="U" unicode="U" horiz-adv-x="1449" 
d="M752 -20q-95 0 -179 18.5t-160 62t-130.5 108.5t-86.5 165t-32 225v643q0 35 -6 65t-21 61.5t-47 50t-78 18.5v37h111q79 0 131.5 -12t84 -32t47.5 -60t21 -83t5 -114v-596q0 -135 31 -233.5t87 -153.5t125 -80t154 -25q92 -1 168 31t132.5 96t88 168t31.5 240v854h57
v-840q0 -313 -140 -464.5t-394 -149.5z" />
    <glyph glyph-name="V" unicode="V" horiz-adv-x="1470" 
d="M891 0q-125 0 -191.5 45.5t-109.5 159.5l-373 971q-17 42 -29.5 69t-32 59t-40 50t-49.5 30.5t-64 12.5v37h164q125 0 189 -45t106 -158l379 -987l479 1190h59l-508 -1260q76 -135 213 -135v-39h-192z" />
    <glyph glyph-name="W" unicode="W" horiz-adv-x="2246" 
d="M844 0q-126 0 -194.5 46.5t-106.5 160.5l-340 969q-18 52 -33 85t-39 68t-56 51.5t-73 16.5v37h162q124 0 185 -44.5t100 -158.5l346 -995l313 981q-34 88 -75.5 134t-110.5 46v37h159q124 0 184 -44.5t99 -158.5l350 -998l381 1201h59l-407 -1272q35 -64 84.5 -92.5
t122.5 -30.5v-39h-193q-125 0 -192 46.5t-107 160.5l-323 923l-312 -968q33 -64 83 -92.5t126 -30.5v-39h-192z" />
    <glyph glyph-name="X" unicode="X" horiz-adv-x="1458" 
d="M154 0l477 639l-338 559q-25 43 -45.5 72.5t-49.5 61.5t-64 48.5t-75 16.5v37h213q61 0 104 -11.5t77 -42t54 -59t54 -86.5l236 -387l438 586h70l-478 -637l338 -566q27 -43 46.5 -70.5t50 -59t65 -47t74.5 -15.5v-39h-217q-49 0 -87 9.5t-64.5 24t-51.5 43t-41 54
t-41 70.5l-237 387l-439 -588h-69z" />
    <glyph glyph-name="Y" unicode="Y" horiz-adv-x="1421" 
d="M584 0v606l-344 588q-2 3 -17.5 28.5t-18.5 30t-17.5 27t-20 28t-20.5 23t-23.5 23t-24 17t-28.5 15.5t-29.5 7.5t-34.5 3.5v37h221q47 0 82.5 -8.5t58.5 -20t46.5 -38.5t36.5 -47t39 -64q7 -11 10 -17l295 -510l456 705h68l-490 -758v-676h-245z" />
    <glyph glyph-name="Z" unicode="Z" horiz-adv-x="1445" 
d="M164 0l803 1380h-478q-153 0 -181 -5q-43 -8 -65 -43q-9 -16 -49 -118l-4 -10h-59q7 19 19 53q47 134 83 156t203 21h58h788l-805 -1381h445h47q157 -1 192.5 21.5t88.5 156.5q14 36 22 56h59q-7 -19 -20 -53q-50 -136 -74 -171q-32 -46 -93 -57q-40 -7 -172 -6h-57h-751
z" />
    <glyph glyph-name="bracketleft" unicode="[" horiz-adv-x="573" 
d="M102 -256v1706h410v-49h-184v-1606h184v-51h-410z" />
    <glyph glyph-name="backslash" unicode="\" horiz-adv-x="874" 
d="M737 -240l-635 1694h76l635 -1694h-76z" />
    <glyph glyph-name="bracketright" unicode="]" horiz-adv-x="573" 
d="M102 -256v51h183v1606h-183v49h410v-1706h-410z" />
    <glyph glyph-name="asciicircum" unicode="^" horiz-adv-x="659" 
d="M102 1159l248 576l248 -576h-102l-144 443l-147 -443h-103z" />
    <glyph glyph-name="underscore" unicode="_" horiz-adv-x="1144" 
d="M102 -98v57h981v-57h-981z" />
    <glyph glyph-name="grave" unicode="`" horiz-adv-x="538" 
d="M168 1403q-54 54 -24 106q23 40 73 47q61 8 94 -46q4 -8 8 -17l148 -367h-18z" />
    <glyph glyph-name="a" unicode="a" horiz-adv-x="1267" 
d="M461 -20q-150 0 -254.5 73.5t-104.5 192.5q0 73 37 123.5t97.5 76t134.5 41t152.5 23.5t147 17.5t122 30.5t73.5 54q0 102 -26 176t-73 114.5t-102 58.5t-122 18q-96 0 -177.5 -34.5t-134.5 -100.5h-49q61 97 183 148.5t270 51.5q94 0 176.5 -25.5t150 -75.5t107 -134.5
t39.5 -192.5v-383q0 -194 147 -194v-39h-104q-137 0 -197 34t-77 124q-79 -87 -187 -132.5t-229 -45.5zM555 59q83 0 165 40.5t146 113.5v330q-31 -27 -99 -44t-136.5 -29t-134.5 -31.5t-108 -64.5t-42 -116q0 -95 59.5 -147t149.5 -52z" />
    <glyph glyph-name="b" unicode="b" horiz-adv-x="1370" 
d="M774 -20q-112 0 -206 50.5t-152 133.5v-164h-232v1251q0 35 -6 66t-21.5 62t-47.5 49.5t-78 19.5v39h110q65 0 111.5 -7t78 -24t50.5 -38.5t29 -59t13 -76t3 -98.5v-310q56 78 149 124t199 46q217 0 355.5 -148t138.5 -384q0 -235 -139 -383.5t-355 -148.5zM702 53
q140 0 228 132.5t88 326.5q0 193 -87.5 326t-228.5 133q-92 0 -164 -59t-112 -167v-466q39 -104 112.5 -165t163.5 -61z" />
    <glyph glyph-name="c" unicode="c" horiz-adv-x="1187" 
d="M668 -20q-252 0 -409 149.5t-157 382.5q0 234 157 383.5t409 148.5q282 0 419 -202h-53q-108 148 -311 145q-165 -3 -266 -134t-101 -341t101 -341t266 -132q92 -3 174 33t137 110h53q-137 -202 -419 -202z" />
    <glyph glyph-name="d" unicode="d" horiz-adv-x="1320" 
d="M596 -20q-104 0 -195 39t-157 108.5t-104 169t-38 215.5q0 235 141 383.5t353 148.5q107 0 199 -46t149 -124v377q0 35 -6 65.5t-21 62t-46.5 50t-77.5 19.5v39h110q65 0 111.5 -7t78 -24t50.5 -38.5t29 -59t13 -76t3 -98.5v-1184h-232v164q-59 -83 -153.5 -133.5
t-206.5 -50.5zM668 53q91 0 164 61t112 165v466q-38 107 -111 166.5t-165 59.5q-139 0 -227.5 -133.5t-88.5 -325.5q0 -194 88 -326.5t228 -132.5z" />
    <glyph glyph-name="e" unicode="e" horiz-adv-x="1294" 
d="M682 -20q-258 0 -419 148.5t-161 383.5q0 236 159 384.5t413 147.5q137 1 247.5 -45t185 -150t85.5 -255h-832q-4 -27 -4 -82q0 -216 108.5 -340t297.5 -129q121 -3 222.5 56t141.5 151h56q-68 -128 -195.5 -199t-304.5 -71zM948 645q-14 161 -86.5 254.5t-187.5 93.5
q-124 0 -208 -106.5t-106 -274.5z" />
    <glyph glyph-name="f" unicode="f" horiz-adv-x="649" 
d="M139 0v969h-139v55h139v61q0 118 35 199t105 126t163 62.5t220 12.5v-37q-48 0 -85.5 -5t-66 -16.5t-49 -25.5t-35 -38t-23 -48t-13 -61t-6 -72t-1.5 -86v-72h246v-55h-246v-969h-244z" />
    <glyph glyph-name="g" unicode="g" horiz-adv-x="1253" 
d="M612 -553q-152 1 -268.5 33.5t-189 104t-72.5 175.5q0 89 71.5 152.5t190.5 99.5h59q-137 -85 -137 -243q0 -124 91 -203.5t255 -79.5q160 0 260.5 79t100.5 208q0 56 -21.5 100t-58 70.5t-84.5 48t-100.5 33.5t-106 26t-101.5 26t-87 34t-62 49t-26.5 71t18.5 101
q-109 48 -169 133t-60 199q0 173 138 276.5t357 103.5l37 -2q36 124 128 209.5t212 85.5q80 0 122 -38t42 -93q0 -49 -34.5 -86t-90.5 -37q-51 0 -86 35.5t-35 81.5q0 36 22 64.5t56 44.5q-101 -1 -180.5 -78.5t-104.5 -190.5q184 -21 296 -121.5t112 -254.5
q0 -176 -136.5 -279.5t-359.5 -105.5q-127 0 -227 38q-18 -50 -6.5 -88t44 -58.5t81.5 -37t108 -24.5t123.5 -19.5t127 -22.5t119 -33.5t99 -52.5t67.5 -80.5t25 -115.5q0 -151 -157 -244.5t-402 -93.5zM608 317q87 0 147.5 50.5t86.5 126.5t26 170q0 68 -15.5 128.5
t-46 109t-81 76.5t-115.5 28t-115.5 -28t-81 -76.5t-46 -109t-15.5 -128.5q0 -94 26.5 -170.5t86 -126.5t143.5 -50z" />
    <glyph glyph-name="h" unicode="h" horiz-adv-x="1310" 
d="M184 1251q0 35 -6 66t-21.5 62t-47.5 49.5t-78 19.5v39h110q65 0 111.5 -7t78 -24t50.5 -38.5t29 -59t13 -76t3 -98.5v-305q82 79 186 122t215 43q351 0 351 -372v-672h-242v633q0 61 -3.5 105t-15.5 89.5t-32.5 73.5t-57.5 46t-88 18q-83 0 -167 -37.5t-146 -108.5v-819
h-242v1251z" />
    <glyph glyph-name="i" unicode="i" horiz-adv-x="548" 
d="M184 793q0 34 -6 64.5t-21.5 61.5t-47.5 49.5t-78 18.5v37h110q56 0 97.5 -5.5t72.5 -15.5t51.5 -29.5t33 -40.5t19.5 -55.5t9 -69t2 -85.5v-723h-242v793zM266 1169q-64 0 -107.5 43.5t-43.5 106.5q0 62 43.5 104.5t107.5 42.5q60 0 104 -43t44 -104q0 -63 -44 -106.5
t-104 -43.5z" />
    <glyph glyph-name="j" unicode="j" horiz-adv-x="548" 
d="M-141 -567q177 11 252 116t75 295v949q0 194 -149 194v37h108q56 0 97.5 -5.5t72.5 -15.5t51.5 -29.5t33 -40.5t19.5 -55.5t9 -69t2 -85.5v-829q0 -122 -45.5 -216.5t-125 -151.5t-180.5 -85.5t-220 -28.5v21zM270 1169q-63 0 -107 43.5t-44 106.5q0 61 44 104t107 43
q61 0 103.5 -42.5t42.5 -104.5q0 -63 -42.5 -106.5t-103.5 -43.5z" />
    <glyph glyph-name="k" unicode="k" horiz-adv-x="1284" 
d="M1063 -20q-149 0 -213 77q-29 30 -56.5 83t-46.5 106t-47 109.5t-58 99.5t-80 69.5t-113 24.5l651 475h92l-584 -426q78 7 140 -14t100 -58t72.5 -93t55.5 -108t51 -113.5t58 -100.5q28 -44 62.5 -63t83.5 -21v-33q-130 -15 -168 -14zM184 1251q0 35 -6 66t-21.5 62
t-47.5 49.5t-78 19.5v39h110q65 0 111.5 -7t78 -24t50.5 -38.5t29 -59t13 -76t3 -98.5v-1184h-242v1251z" />
    <glyph glyph-name="l" unicode="l" horiz-adv-x="745" 
d="M457 -20q-136 0 -204.5 78t-68.5 245v948q0 35 -6 66t-21.5 62t-47.5 49.5t-78 19.5v39h110q65 0 111.5 -7t78 -24t50.5 -38.5t29 -59t13 -76t3 -98.5v-953q0 -94 25 -140.5t96 -49.5q37 -2 81.5 13.5t76.5 41.5v-37q-40 -37 -106 -58t-142 -21z" />
    <glyph glyph-name="m" unicode="m" horiz-adv-x="1910" 
d="M184 793q0 34 -6 64.5t-21.5 61.5t-47.5 49.5t-78 18.5v37h110q133 0 192 -31.5t77 -118.5q167 170 356 170q238 0 305 -188q165 188 369 188q160 0 248 -87.5t88 -284.5v-672h-242v633q0 45 -1 76.5t-5 69.5t-11.5 63.5t-20.5 51t-31.5 40.5t-45.5 23.5t-61 7.5
q-143 0 -271 -158q15 -59 15 -135v-672h-242v633q0 63 -2.5 106t-13 90.5t-28.5 75t-51.5 45t-80.5 15.5q-131 0 -258 -142v-823h-242v793z" />
    <glyph glyph-name="n" unicode="n" horiz-adv-x="1310" 
d="M184 793q0 34 -6 64.5t-21.5 61.5t-47.5 49.5t-78 18.5v37h110q137 0 196.5 -33t76.5 -125q178 178 413 178q351 0 351 -372v-672h-242v633q0 61 -3.5 105t-15.5 89.5t-32.5 73.5t-57.5 46t-88 18q-83 0 -167 -37.5t-146 -108.5v-819h-242v793z" />
    <glyph glyph-name="o" unicode="o" horiz-adv-x="1368" 
d="M684 -20q-255 0 -418.5 144.5t-163.5 387.5t163.5 387.5t418.5 144.5t418.5 -144.5t163.5 -387.5t-163.5 -387.5t-418.5 -144.5zM684 33q107 0 184 68.5t112.5 175t35.5 235.5q0 96 -21 181.5t-61 152.5t-104.5 106t-145.5 39t-145 -39t-103 -106.5t-59.5 -152
t-20.5 -181.5q0 -96 20.5 -181t59.5 -152t103 -106.5t145 -39.5z" />
    <glyph glyph-name="p" unicode="p" horiz-adv-x="1370" 
d="M184 793q0 34 -6 64.5t-21.5 61.5t-47.5 49.5t-78 18.5v37h110q139 0 198.5 -35t76.5 -129q60 91 157 137.5t201 46.5q217 0 355.5 -148t138.5 -384q0 -235 -139 -383.5t-355 -148.5q-105 0 -197.5 47.5t-150.5 122.5v-723h-242v1366zM702 53q140 0 228 132.5t88 326.5
q0 193 -87.5 326t-228.5 133q-92 0 -164 -59t-112 -167v-466q39 -104 112.5 -165t163.5 -61z" />
    <glyph glyph-name="q" unicode="q" horiz-adv-x="1320" 
d="M944 150q-58 -76 -150 -123t-198 -47q-215 0 -354.5 148.5t-139.5 383.5q0 236 139.5 384t354.5 148q113 0 207.5 -49t152.5 -135v164h232v-1597h-244v723zM668 53q91 0 164 61t112 165v466q-38 107 -111 166.5t-165 59.5q-139 0 -227.5 -133.5t-88.5 -325.5
q0 -194 88 -326.5t228 -132.5z" />
    <glyph glyph-name="r" unicode="r" horiz-adv-x="927" 
d="M184 793q0 34 -6 64.5t-21.5 61.5t-47.5 49.5t-78 18.5v37h110q136 0 195.5 -32.5t77.5 -123.5q86 97 205 140t247 34v-176q-34 13 -45 17.5t-46 16t-51.5 14.5t-50 8.5t-53.5 2.5t-50 -8.5t-52 -19t-46.5 -34.5t-45.5 -50v-813h-242v793z" />
    <glyph glyph-name="s" unicode="s" horiz-adv-x="1085" 
d="M530 -20q-141 0 -259.5 53t-168.5 151h56q44 -73 145 -113t217 -40q121 0 205 47t84 133q0 46 -38.5 82t-99.5 61.5t-135 50t-148 53.5t-135 65t-99.5 92.5t-38.5 127.5q0 93 62.5 163.5t157 104t204.5 33.5q131 0 240.5 -50.5t160.5 -149.5h-57q-38 72 -128 110.5
t-196 38.5q-114 0 -191.5 -44.5t-76.5 -125.5q0 -44 38.5 -79.5t99.5 -60t135 -48t147.5 -52t134.5 -64.5t99 -93t38 -129q0 -76 -38.5 -138t-103 -100t-144.5 -58.5t-167 -20.5z" />
    <glyph glyph-name="t" unicode="t" horiz-adv-x="692" 
d="M403 -20q-135 0 -202.5 78t-67.5 245v666h-133v55h133v236h242v-236h229v-55h-229v-738q0 -95 24 -141t95 -49q38 -2 82.5 13.5t76.5 41.5v-37q-89 -79 -250 -79z" />
    <glyph glyph-name="u" unicode="u" horiz-adv-x="1310" 
d="M535 -20q-351 0 -351 374v439q0 34 -6 64.5t-21.5 61.5t-47.5 49.5t-78 18.5v37h110q56 0 97.5 -5.5t72.5 -15.5t51.5 -29.5t33 -40.5t19.5 -55.5t9 -69t2 -85.5v-332q0 -61 3.5 -104.5t15 -89.5t32 -74t57 -46t87.5 -18q84 0 167.5 38t147.5 110v586q0 34 -6.5 64.5
t-22 61.5t-47.5 49.5t-78 18.5v37h111q56 0 97.5 -5.5t72.5 -15.5t51.5 -29.5t33 -40.5t19.5 -55.5t9 -69t2 -85.5v-723h-234v156q-84 -84 -190.5 -130t-218.5 -46z" />
    <glyph glyph-name="v" unicode="v" horiz-adv-x="1218" 
d="M774 0q-125 0 -189.5 45t-107.5 160l-237 561q-17 42 -29.5 69t-32 59t-40 50t-49.5 30.5t-64 12.5v37h178q113 -1 172.5 -47t103.5 -156l252 -602l334 805h61l-364 -870q36 -60 75 -87.5t101 -27.5v-39h-164z" />
    <glyph glyph-name="w" unicode="w" horiz-adv-x="1841" 
d="M719 0q-119 3 -183 48t-100 157l-198 561q-15 40 -27.5 69t-31.5 59.5t-40 49.5t-50 31t-64 12v37h178q116 -1 177 -47t95 -156l211 -590l227 592q-34 78 -77.5 121t-112.5 43v37h178q118 -1 178.5 -47t96.5 -156l213 -588l299 791h61l-328 -864q31 -66 72.5 -93.5
t108.5 -27.5v-39h-181q-120 3 -182.5 47.5t-97.5 157.5l-201 536l-221 -587q27 -64 68.5 -89.5t111.5 -25.5v-39h-180z" />
    <glyph glyph-name="x" unicode="x" horiz-adv-x="1329" 
d="M172 0l393 446l-243 357l-32 48t-31 46t-28.5 35t-35.5 31t-40.5 16.5t-52.5 7.5v37h211q34 0 60.5 -4.5t46.5 -9t39.5 -18.5t31.5 -23t30.5 -34t29 -40t33.5 -51l151 -217l346 397h76l-389 -444l242 -359q11 -16 32.5 -48t31.5 -45.5t29 -35t34.5 -30t39.5 -16t52 -7.5
v-39h-211q-46 1 -80 9t-56.5 18t-47 36.5t-40 48t-46.5 68.5l-152 219l-346 -399h-78z" />
    <glyph glyph-name="y" unicode="y" horiz-adv-x="1206" 
d="M401 -512l205 479l-366 799q-20 45 -31.5 69t-32 58t-40 51t-48.5 30t-63 13v37h194q59 -1 97.5 -11t69 -37t51 -60.5t48.5 -94.5l244 -565l326 768h59l-651 -1536h-62z" />
    <glyph glyph-name="z" unicode="z" horiz-adv-x="1232" 
d="M145 0l619 969h-291q-149 1 -177 -4q-42 -8 -63 -44q-9 -16 -49 -120h-61q49 134 58 152q24 48 65 61q36 11 171 10h68h602l-618 -969h301q141 -1 170 5q40 8 60 46q8 13 49 119h59q-6 -17 -17 -48q-19 -54 -25.5 -75.5t-27.5 -48.5t-28 -32.5t-46.5 -13.5t-63 -7.5
t-96.5 0.5h-56h-603z" />
    <glyph glyph-name="braceleft" unicode="{" horiz-adv-x="665" 
d="M604 -248q-164 -18 -254 35.5t-90 153.5v485q0 59 -42 105t-116 65q87 22 122.5 68.5t35.5 119.5l2 486q2 93 93.5 141t248.5 31v-29q-127 -3 -127 -139l-2 -477q0 -152 -256 -201q118 -21 190 -68.5t72 -115.5l4 -482q2 -77 26.5 -113.5t92.5 -37.5v-27z" />
    <glyph glyph-name="bar" unicode="|" horiz-adv-x="243" 
d="M102 -256v1706h80v-1706h-80z" />
    <glyph glyph-name="braceright" unicode="}" horiz-adv-x="665" 
d="M102 -221q69 1 94 37.5t27 113.5l2 482q1 68 73.5 115.5t190.5 68.5q-260 50 -260 201l2 477q0 136 -129 139v29q163 17 252.5 -31t89.5 -141l2 -486q0 -72 36 -119t122 -69q-74 -18 -114.5 -64t-40.5 -106v-485q0 -100 -92 -153.5t-255 -35.5v27z" />
    <glyph glyph-name="asciitilde" unicode="~" horiz-adv-x="1042" 
d="M102 754q31 28 65 45.5t62.5 25.5t66 5t62 -7t65.5 -19.5t62 -24.5t64 -29q55 -25 88 -38t84 -26t89 -10t84 21.5t87 56.5v-88q-52 -48 -106.5 -67t-119.5 -6.5t-103.5 27t-114.5 49.5l-33 15q-62 26 -103 38.5t-95.5 18.5t-105 -13t-98.5 -62v88z" />
    <glyph glyph-name="uni00A0" unicode="&#xa0;" horiz-adv-x="618" 
 />
    <glyph glyph-name="exclamdown" unicode="&#xa1;" horiz-adv-x="446" 
d="M109 -336l102 1151h65l101 -1151h-268zM244 918q-46 0 -79.5 32.5t-33.5 77.5q0 47 33.5 80t79.5 33t78 -33t32 -80q0 -46 -32 -78t-78 -32z" />
    <glyph glyph-name="cent" unicode="&#xa2;" horiz-adv-x="1146" 
d="M653 -20q-239 5 -395 154t-156 378t156 379t395 153v175h54v-175q257 -14 378 -202h-51q-52 71 -127.5 106t-161.5 37q-13 2 -38 -2v-942l34 -2q87 2 164 37.5t129 105.5h51q-121 -188 -378 -202v-187h-54v187zM653 975q-135 -30 -217 -155t-82 -308q0 -185 82 -310
t217 -153v926z" />
    <glyph glyph-name="sterling" unicode="&#xa3;" horiz-adv-x="1267" 
d="M221 0q101 80 153 186t52 224q0 131 -78 329h-246l33 58h189q-33 108 -33 186q0 113 42 204.5t112 148.5t157.5 88t183.5 32q170 3 292 -93t128 -259h-28q-10 97 -64.5 166.5t-129.5 100.5t-159 30q-142 -2 -229.5 -94t-87.5 -277q0 -89 33 -233h344l-31 -58h-299
q28 -119 23 -213q-14 -175 -170 -364h428q152 -1 184 5q45 9 70 48q13 19 51 102h47q-74 -185 -96 -223q-35 -62 -84 -80q-42 -15 -171 -14h-79h-537z" />
    <glyph glyph-name="currency" unicode="&#xa4;" horiz-adv-x="1255" 
d="M649 -18q-213 0 -370 131l-117 -117l-35 39l117 117q-138 144 -138 360q0 218 138 362l-125 123l39 37l121 -123q155 133 370 133q211 0 363 -124l114 114l37 -37l-114 -114q145 -148 145 -371t-145 -371l108 -106l-37 -39l-108 110q-152 -124 -363 -124zM651 16
q75 0 135.5 40.5t98 110t57 158t19.5 187.5q0 136 -33.5 246t-105 180t-171.5 70t-171.5 -70t-103.5 -180t-32 -246q0 -135 32 -244.5t103.5 -180.5t171.5 -71z" />
    <glyph glyph-name="yen" unicode="&#xa5;" horiz-adv-x="1425" 
d="M629 0v584h-310v57h289l-84 147h-205v58h168l-192 334q-4 6 -21.5 35.5t-22 36.5t-20.5 31.5t-24 32.5t-24 25.5t-28.5 24t-29.5 16t-35.5 12.5t-38.5 3v37h221q35 0 64 -5.5t49.5 -10.5t42 -22.5t31.5 -26t30 -38.5t26.5 -41t29.5 -51l297 -510l454 705h68l-379 -588
h195v-58h-232l-71 -112v-35h303v-57h-303v-584h-248z" />
    <glyph glyph-name="brokenbar" unicode="&#xa6;" horiz-adv-x="243" 
d="M102 666v784h80v-784h-80zM102 -256v784h80v-784h-80z" />
    <glyph glyph-name="section" unicode="&#xa7;" horiz-adv-x="1024" 
d="M508 -14q-131 0 -211 60.5t-86 162.5h41q3 -83 72 -131.5t172 -48.5q83 0 131.5 38.5t48.5 108.5q0 51 -32 96.5t-83 81t-112.5 70.5t-122.5 73.5t-111.5 81t-82 102t-30.5 128.5q1 74 48 141.5t124 110.5q-36 63 -36 127q0 110 90.5 188t230.5 78q131 0 210 -60.5
t85 -162.5h-45q-3 88 -68 136t-163 48q-87 0 -138 -39t-51 -110q0 -51 32 -96.5t83 -81.5t112.5 -71.5t122.5 -74.5t111.5 -82t82 -102t30.5 -127q-1 -74 -48 -141.5t-124 -110.5q36 -53 36 -127q0 -112 -89 -189t-230 -77zM756 426q78 60 75 156q-2 56 -41.5 104t-102.5 86
t-129.5 72.5t-137 79.5t-111.5 90q-79 -61 -76 -156q2 -56 41.5 -104t102.5 -86t129.5 -72.5t137.5 -79.5t112 -90z" />
    <glyph glyph-name="dieresis" unicode="&#xa8;" horiz-adv-x="800" 
d="M262 1128q-56 0 -92.5 36t-36.5 93q0 56 37 93t92 34q55 -2 91 -37t36 -90q0 -57 -36.5 -93t-90.5 -36zM602 1128q-56 0 -93.5 36.5t-37.5 92.5q0 55 37.5 90t93.5 35q53 0 90 -35t37 -90q0 -56 -37 -92.5t-90 -36.5z" />
    <glyph glyph-name="copyright" unicode="&#xa9;" horiz-adv-x="1472" 
d="M758 -18q-178 0 -329 87.5t-239 238t-88 327.5q0 178 88 328.5t239 237.5t329 87q176 0 326.5 -87.5t238.5 -238t88 -327.5t-88 -327.5t-238.5 -238t-326.5 -87.5zM786 254q-168 -2 -278.5 102.5t-110.5 280.5q0 173 110.5 276t278.5 103q188 0 293 -127l-32 -6
q-40 48 -101 70t-125 20q-111 -3 -169 -94.5t-58 -241.5q0 -152 58 -243t169 -95q64 -3 125 19t101 71l32 -10q-106 -125 -293 -125zM758 37q161 0 299.5 80.5t219.5 218.5t81 299t-81 299.5t-219.5 219.5t-299.5 81q-122 0 -233 -47.5t-191 -127.5t-127 -191.5t-47 -233.5
q0 -121 47 -231.5t127 -191t191 -128t233 -47.5z" />
    <glyph glyph-name="ordfeminine" unicode="&#xaa;" horiz-adv-x="1050" 
d="M473 672q-156 0 -258 108.5t-102 280.5t102 281.5t258 109.5q72 0 136 -26.5t104 -73.5v86h194v-752h-194v84q-88 -98 -240 -98zM524 715q58 0 106.5 38t74.5 105v406q-26 69 -73.5 104t-107.5 35q-92 0 -146 -94.5t-54 -247.5q0 -156 53.5 -251t146.5 -95z" />
    <glyph glyph-name="guillemotleft" unicode="&#xab;" horiz-adv-x="1269" 
d="M1208 88l-655 457l655 459v-109l-495 -350l495 -350v-107zM756 88l-654 457l654 459v-109l-496 -350l496 -350v-107z" />
    <glyph glyph-name="logicalnot" unicode="&#xac;" horiz-adv-x="1042" 
d="M893 377v303h-791v88h879v-391h-88z" />
    <glyph glyph-name="uni00AD" unicode="&#xad;" horiz-adv-x="837" 
d="M102 567v58h674v-58h-674z" />
    <glyph glyph-name="registered" unicode="&#xae;" horiz-adv-x="940" 
d="M492 883q-161 0 -275.5 114t-114.5 275t114 274t276 113q160 0 273.5 -113t113.5 -274t-113.5 -275t-273.5 -114zM492 930q141 0 239 100.5t98 241.5q0 140 -98.5 240t-238.5 100q-142 0 -241 -100t-99 -240q0 -142 99 -242t241 -100zM352 1075v410h146q77 0 117 -27.5
t40 -79.5q0 -39 -27 -65t-77 -33l115 -199h-88l-109 193h-41v-199h-76zM489 1311q89 0 89 67q0 70 -89 70h-61v-137h61z" />
    <glyph glyph-name="macron" unicode="&#xaf;" horiz-adv-x="872" 
d="M133 1184v76h666v-76h-666z" />
    <glyph glyph-name="degree" unicode="&#xb0;" horiz-adv-x="765" 
d="M403 954q-125 0 -213 88t-88 213t88 213t213 88t213.5 -88.5t88.5 -212.5t-88.5 -212.5t-213.5 -88.5zM403 1018q96 0 165 70t69 167t-68.5 165.5t-165.5 68.5q-95 0 -164 -68.5t-69 -165.5t69 -167t164 -70z" />
    <glyph glyph-name="plusminus" unicode="&#xb1;" horiz-adv-x="1054" 
d="M508 301v426h-406v80h406v385h80v-385h405v-80h-405v-426h-80zM109 152v79h878v-79h-878z" />
    <glyph glyph-name="uni00B2" unicode="&#xb2;" horiz-adv-x="817" 
d="M117 567q100 78 182 159.5t151 173t107.5 189.5t38.5 191q0 120 -66.5 186t-158.5 66q-91 0 -161.5 -62t-70.5 -170h-28q-1 139 94 214t229 75q87 0 162 -32t125.5 -102t50.5 -165q0 -48 -16.5 -98.5t-42 -95.5t-66.5 -94t-80 -88.5t-93 -85t-94.5 -78t-94.5 -72.5h485
l-45 -127h-608v16z" />
    <glyph glyph-name="uni00B3" unicode="&#xb3;" horiz-adv-x="874" 
d="M440 545q-122 0 -206 54t-115 151h24q65 -156 256 -156q82 0 143.5 40t90.5 101t29 133q0 98 -55 166t-156 88v15q67 33 103 92.5t36 132.5q0 86 -55.5 134t-133.5 48q-91 0 -158 -57t-67 -156h-22q1 86 46 147.5t110 89t141 27.5q120 0 202 -60.5t82 -170.5
q0 -71 -47.5 -126t-136.5 -79q137 -23 204.5 -103t67.5 -186q0 -141 -107 -233t-276 -92z" />
    <glyph glyph-name="acute" unicode="&#xb4;" horiz-adv-x="538" 
d="M281 1493q25 63 86 64q50 1 80 -36q38 -47 -1 -100q-7 -9 -16 -18l-278 -277h-19z" />
    <glyph glyph-name="uni00B5" unicode="&#xb5;" horiz-adv-x="1460" 
d="M225 793q0 34 -6 64.5t-21.5 61.5t-47.5 49.5t-78 18.5v37h110q56 0 97.5 -5.5t72.5 -15.5t51.5 -29.5t33 -40.5t19.5 -55.5t9 -69t2 -85.5v-332q0 -61 3.5 -104.5t15 -89.5t32 -74t57 -46t87.5 -18q85 0 169 39.5t152 116.5q-6 47 -6 98v480q0 34 -6.5 64.5t-22 61.5
t-47.5 49.5t-78 18.5v37h111q56 0 97.5 -5.5t72.5 -15.5t51.5 -29.5t33 -40.5t19.5 -55.5t9 -69t2 -85.5v-406q0 -58 2.5 -96t12 -81.5t27 -68.5t50 -41.5t78.5 -15.5v-14q-65 -14 -115 -14q-223 0 -279 180q-87 -87 -188.5 -136.5t-204.5 -49.5q-91 0 -135 34v-587h-242
v1366z" />
    <glyph glyph-name="paragraph" unicode="&#xb6;" horiz-adv-x="1079" 
d="M399 664q-151 1 -233 131q-73 115 -61 274q12 162 108 265q93 100 236 100h569v-1434h-217v1391l-172 2q-71 0 -109.5 -54.5t-38.5 -119.5v-1219h-82v664z" />
    <glyph glyph-name="periodcentered" unicode="&#xb7;" horiz-adv-x="397" 
d="M219 545q-49 0 -83 33.5t-34 83.5q0 48 34 82t83 34t83 -34t34 -82q0 -50 -34 -83.5t-83 -33.5z" />
    <glyph glyph-name="cedilla" unicode="&#xb8;" horiz-adv-x="608" 
d="M283 -401q45 0 72 26.5t32 65.5q2 49 -33.5 87.5t-113.5 49.5l116 197h56l-80 -125q105 -7 155 -61t50 -120q0 -69 -46 -116t-109.5 -59.5t-134 8.5t-114.5 75l14 21q70 -49 136 -49z" />
    <glyph glyph-name="uni00B9" unicode="&#xb9;" horiz-adv-x="583" 
d="M217 547v848l-74 2v14l242 176h14v-1040h-182z" />
    <glyph glyph-name="ordmasculine" unicode="&#xba;" horiz-adv-x="1085" 
d="M543 668q-189 0 -309.5 106.5t-120.5 286.5t120.5 286.5t309.5 106.5q191 0 310.5 -106.5t119.5 -286.5t-119.5 -286.5t-310.5 -106.5zM541 707q221 0 221 354q0 356 -221 356q-215 0 -215 -356q0 -354 215 -354z" />
    <glyph glyph-name="guillemotright" unicode="&#xbb;" horiz-adv-x="1269" 
d="M553 88v107l498 350l-498 350v109l655 -459zM102 88v107l498 350l-498 350v109l654 -459z" />
    <glyph glyph-name="onequarter" unicode="&#xbc;" horiz-adv-x="1648" 
d="M246 629v848l-72 2v14l240 176h16v-1040h-184zM276 -205l1045 1802h74l-1045 -1802h-74zM1290 -197v291h-428l506 748h107v-1039h-185zM950 143h340v502z" />
    <glyph glyph-name="onehalf" unicode="&#xbd;" horiz-adv-x="1947" 
d="M256 -205l1044 1802h74l-1044 -1802h-74zM246 629v848l-72 2v14l240 176h16v-1040h-184zM1110 -193q100 79 182 161t151 174t107.5 189.5t38.5 190.5q0 120 -66.5 186t-158.5 66q-97 0 -164 -60.5t-67 -170.5h-29q0 138 96 214.5t230 76.5q86 0 161 -33t125.5 -104
t50.5 -167q0 -66 -32 -137t-77 -129.5t-117.5 -126.5t-128 -113t-134.5 -104h487l-47 -125h-608v12z" />
    <glyph glyph-name="threequarters" unicode="&#xbe;" horiz-adv-x="1910" 
d="M573 -205l1045 1802h74l-1045 -1802h-74zM498 545q-124 0 -208.5 54t-113.5 151h25q23 -58 67.5 -94.5t90 -49t98.5 -12.5q121 0 190.5 81t69.5 193q0 99 -54 166.5t-155 87.5v15q67 33 103 92.5t36 132.5q0 86 -56 134t-134 48q-90 0 -157 -57t-67 -156h-22
q0 126 88.5 195t206.5 69q120 0 203.5 -60.5t83.5 -170.5q0 -71 -48 -126t-137 -79q137 -23 205 -103t68 -186q0 -140 -107.5 -232.5t-275.5 -92.5zM1550 -197v291h-428l506 748h109v-1039h-187zM1208 143h342v502z" />
    <glyph glyph-name="questiondown" unicode="&#xbf;" horiz-adv-x="931" 
d="M489 -336q-100 0 -187 39t-143.5 118.5t-56.5 184.5q0 68 23.5 134t60.5 121.5t82 110t90 107.5t82 104.5t60.5 111t23.5 118.5h33q3 -90 -21 -179t-59.5 -162t-72 -145t-62 -156.5t-25.5 -168.5q0 -130 73.5 -200t176.5 -70q107 0 189.5 72t83.5 194h30
q0 -107 -56.5 -184.5t-141 -113.5t-183.5 -36zM539 922q-46 0 -78.5 31.5t-32.5 76.5q0 49 32.5 81t78.5 32q48 0 80 -32t32 -81q0 -46 -32.5 -77t-79.5 -31z" />
    <glyph glyph-name="Agrave" unicode="&#xc0;" horiz-adv-x="1462" 
d="M586 1311q-34 44 -70 65t-92 21v37h162q128 0 201 -46.5t114 -160.5l467 -1227h-264l-182 479h-590l-178 -479h-62zM354 532h545l-229 607q-15 44 -45 112zM391 1808q-55 55 -23 108q24 40 75 45q61 7 92 -48q5 -7 8 -15l147 -366h-18z" />
    <glyph glyph-name="Aacute" unicode="&#xc1;" horiz-adv-x="1462" 
d="M586 1311q-34 44 -70 65t-92 21v37h162q128 0 201 -46.5t114 -160.5l467 -1227h-264l-182 479h-590l-178 -479h-62zM354 532h545l-229 607q-15 44 -45 112zM850 1901q25 63 86 64q50 1 81 -38q37 -46 -3 -100q-7 -9 -15 -17l-278 -276h-19z" />
    <glyph glyph-name="Acircumflex" unicode="&#xc2;" horiz-adv-x="1462" 
d="M586 1311q-34 44 -70 65t-92 21v37h162q128 0 201 -46.5t114 -160.5l467 -1227h-264l-182 479h-590l-178 -479h-62zM354 532h545l-229 607q-15 44 -45 112zM612 1903q15 35 42.5 52.5t55.5 15.5t54.5 -20t40.5 -48l168 -367h-19l-245 281l-248 -281h-19z" />
    <glyph glyph-name="Atilde" unicode="&#xc3;" horiz-adv-x="1462" 
d="M586 1311q-34 44 -70 65t-92 21v37h162q128 0 201 -46.5t114 -160.5l467 -1227h-264l-182 479h-590l-178 -479h-62zM354 532h545l-229 607q-15 44 -45 112zM907 1536q-72 0 -218 49t-193 49q-53 0 -79 -16.5t-26 -58.5h-26q-7 128 34 178.5t117 50.5q70 0 216 -49
t198 -49q104 0 104 75h27q6 -116 -37.5 -172.5t-116.5 -56.5z" />
    <glyph glyph-name="Adieresis" unicode="&#xc4;" horiz-adv-x="1462" 
d="M586 1311q-34 44 -70 65t-92 21v37h162q128 0 201 -46.5t114 -160.5l467 -1227h-264l-182 479h-590l-178 -479h-62zM354 532h545l-229 607q-15 44 -45 112zM543 1530q-56 0 -92.5 36t-36.5 93q0 56 37 93t92 34q55 -2 91 -37t36 -90q0 -57 -36 -93t-91 -36zM883 1530
q-56 0 -93.5 36.5t-37.5 92.5q0 55 37.5 90t93.5 35q53 0 90 -35t37 -90q0 -56 -37 -92.5t-90 -36.5z" />
    <glyph glyph-name="Aring" unicode="&#xc5;" horiz-adv-x="1462" 
d="M586 1311q-34 44 -70 65t-92 21v37h162q128 0 201 -46.5t114 -160.5l467 -1227h-264l-182 479h-590l-178 -479h-62zM354 532h545l-229 607q-15 44 -45 112zM711 1538q-88 0 -151.5 63t-63.5 152t63.5 152t151.5 63t152.5 -63t64.5 -152t-64.5 -152t-152.5 -63zM711 1593
q65 0 112 47t47 113t-47 112t-112 46t-111.5 -46t-46.5 -112t46.5 -113t111.5 -47z" />
    <glyph glyph-name="AE" unicode="&#xc6;" horiz-adv-x="2054" 
d="M82 0l655 1434h748h60q69 1 96 2t64 -9.5t45 -13t29.5 -34.5t26.5 -48t27 -79q16 -44 25 -70h-58q-9 23 -24 62q-39 103 -68.5 120t-166.5 16h-54h-420q28 -23 42 -65.5t16.5 -78.5t2.5 -99v-369h598v-53h-598v-461q0 -113 41 -157t158 -44h207h47q158 -1 194 22t92 160
q13 33 21 52h56q-7 -19 -20 -53q-50 -136 -74 -171q-32 -46 -93 -57q-40 -7 -172 -6h-57h-273q-83 0 -141.5 7t-101 25.5t-67.5 42.5t-39.5 66t-19.5 88.5t-5 116.5v215h-482l-254 -561h-63zM426 616h455v586q0 159 -105 189z" />
    <glyph glyph-name="Ccedilla" unicode="&#xc7;" horiz-adv-x="1579" 
d="M811 -422q45 0 72 26.5t32 65.5q2 49 -33.5 87.5t-113.5 49.5l102 173q-115 4 -221.5 37t-198.5 95.5t-160.5 148.5t-107.5 204t-39 254q0 140 41 260t113 207t168 148.5t206 92t228 31.5q412 0 584 -311h-60q-53 90 -137 149t-163.5 80.5t-159.5 20.5
q-255 -3 -408.5 -184.5t-153.5 -493.5t153.5 -493.5t408.5 -184.5q80 -1 159.5 20.5t163.5 80.5t137 149h60q-168 -300 -559 -311l-64 -101q105 -7 155 -60.5t50 -119.5q0 -69 -46 -116t-109 -59.5t-133.5 8.5t-114.5 75l14 20q70 -49 135 -49z" />
    <glyph glyph-name="Egrave" unicode="&#xc8;" horiz-adv-x="1337" 
d="M539 0q-83 0 -142 7t-101 25.5t-67.5 42.5t-40 66t-19.5 88.5t-5 116.5v856q0 34 -6.5 65t-21.5 62t-47 49.5t-77 18.5v37h758h58q169 1 205 -21t83 -156q12 -34 19 -53h-58q-7 17 -19 47q-39 97 -69.5 113t-174.5 16h-44h-420q40 -33 51 -90.5t11 -152.5v-369h598v-53
h-598v-461q0 -114 40 -157.5t158 -43.5h209h44q31 -2 57 0t45.5 1t36.5 3t29.5 6.5t23.5 10.5t19 15.5t17.5 22.5t16.5 29.5t17.5 37.5t20.5 47q11 26 17 40h58q-60 -155 -79 -187q-31 -54 -81 -68q-40 -12 -183 -11h-65h-274zM422 1810q-54 54 -24 107q23 40 73 47
q61 8 94 -46q4 -8 8 -17l148 -367h-19z" />
    <glyph glyph-name="Eacute" unicode="&#xc9;" horiz-adv-x="1337" 
d="M539 0q-83 0 -142 7t-101 25.5t-67.5 42.5t-40 66t-19.5 88.5t-5 116.5v856q0 34 -6.5 65t-21.5 62t-47 49.5t-77 18.5v37h758h58q169 1 205 -21t83 -156q12 -34 19 -53h-58q-7 17 -19 47q-39 97 -69.5 113t-174.5 16h-44h-420q40 -33 51 -90.5t11 -152.5v-369h598v-53
h-598v-461q0 -114 40 -157.5t158 -43.5h209h44q31 -2 57 0t45.5 1t36.5 3t29.5 6.5t23.5 10.5t19 15.5t17.5 22.5t16.5 29.5t17.5 37.5t20.5 47q11 26 17 40h58q-60 -155 -79 -187q-31 -54 -81 -68q-40 -12 -183 -11h-65h-274zM748 1898q25 63 86 64q50 1 80 -36
q38 -47 -1 -100q-7 -9 -16 -18l-279 -276h-18z" />
    <glyph glyph-name="Ecircumflex" unicode="&#xca;" horiz-adv-x="1337" 
d="M539 0q-83 0 -142 7t-101 25.5t-67.5 42.5t-40 66t-19.5 88.5t-5 116.5v856q0 34 -6.5 65t-21.5 62t-47 49.5t-77 18.5v37h758h58q169 1 205 -21t83 -156q12 -34 19 -53h-58q-7 17 -19 47q-39 97 -69.5 113t-174.5 16h-44h-420q40 -33 51 -90.5t11 -152.5v-369h598v-53
h-598v-461q0 -114 40 -157.5t158 -43.5h209h44q31 -2 57 0t45.5 1t36.5 3t29.5 6.5t23.5 10.5t19 15.5t17.5 22.5t16.5 29.5t17.5 37.5t20.5 47q11 26 17 40h58q-60 -155 -79 -187q-31 -54 -81 -68q-40 -12 -183 -11h-65h-274zM541 1907q15 35 42.5 52.5t55 15.5t54 -20
t40.5 -48l168 -367h-18l-246 281l-248 -281h-18z" />
    <glyph glyph-name="Edieresis" unicode="&#xcb;" horiz-adv-x="1337" 
d="M539 0q-83 0 -142 7t-101 25.5t-67.5 42.5t-40 66t-19.5 88.5t-5 116.5v856q0 34 -6.5 65t-21.5 62t-47 49.5t-77 18.5v37h758h58q169 1 205 -21t83 -156q12 -34 19 -53h-58q-7 17 -19 47q-39 97 -69.5 113t-174.5 16h-44h-420q40 -33 51 -90.5t11 -152.5v-369h598v-53
h-598v-461q0 -114 40 -157.5t158 -43.5h209h44q31 -2 57 0t45.5 1t36.5 3t29.5 6.5t23.5 10.5t19 15.5t17.5 22.5t16.5 29.5t17.5 37.5t20.5 47q11 26 17 40h58q-60 -155 -79 -187q-31 -54 -81 -68q-40 -12 -183 -11h-65h-274zM494 1538q-56 0 -92.5 36t-36.5 93q0 56 37 93
t92 34q55 -2 91 -37t36 -90q0 -57 -36.5 -93t-90.5 -36zM834 1538q-56 0 -94 36.5t-38 92.5q0 55 38 90t94 35q53 0 90 -35t37 -90q0 -56 -37 -92.5t-90 -36.5z" />
    <glyph glyph-name="Igrave" unicode="&#xcc;" horiz-adv-x="577" 
d="M164 1202q0 35 -6 65t-21 61.5t-47 50t-78 18.5v37h111q79 0 131.5 -12t84 -32t47.5 -60t21 -83t5 -114v-1133h-248v1202zM100 1808q-55 55 -23 108q24 40 75 45q61 7 92 -48q5 -7 8 -15l147 -366h-18z" />
    <glyph glyph-name="Iacute" unicode="&#xcd;" horiz-adv-x="577" 
d="M164 1202q0 35 -6 65t-21 61.5t-47 50t-78 18.5v37h111q79 0 131.5 -12t84 -32t47.5 -60t21 -83t5 -114v-1133h-248v1202zM264 1905q25 64 87 64q51 0 81 -38q37 -47 -4 -100q-6 -8 -14 -16l-279 -277h-18z" />
    <glyph glyph-name="Icircumflex" unicode="&#xce;" horiz-adv-x="577" 
d="M164 1202q0 35 -6 65t-21 61.5t-47 50t-78 18.5v37h111q79 0 131.5 -12t84 -32t47.5 -60t21 -83t5 -114v-1133h-248v1202zM193 1903q15 35 42.5 52.5t55 15.5t54 -20t40.5 -48l168 -367h-18l-246 281l-248 -281h-18z" />
    <glyph glyph-name="Idieresis" unicode="&#xcf;" horiz-adv-x="577" 
d="M164 1202q0 35 -6 65t-21 61.5t-47 50t-78 18.5v37h111q79 0 131.5 -12t84 -32t47.5 -60t21 -83t5 -114v-1133h-248v1202zM121 1532q-56 0 -92.5 36t-36.5 93q0 56 37 93t92 34q55 -2 91 -37t36 -90q0 -57 -36 -93t-91 -36zM461 1532q-56 0 -93.5 36.5t-37.5 92.5
q0 55 37.5 90t93.5 35q53 0 90 -35t37 -90q0 -56 -37 -92.5t-90 -36.5z" />
    <glyph glyph-name="Eth" unicode="&#xd0;" horiz-adv-x="1589" 
d="M539 0q-99 0 -164.5 11.5t-107.5 34t-64 65.5t-30 93.5t-9 131.5v364h-152v58h152v432q0 36 -5 67t-19 65.5t-44 54.5t-73 20v37h636q161 0 294 -40.5t223 -109t152 -161t90 -195t28 -213.5q0 -110 -28 -211.5t-90 -194t-152 -160.5t-223 -108.5t-294 -40.5h-120zM633 53
q116 2 211 41.5t157.5 103t105 149.5t61 179t18.5 193q0 102 -18.5 195t-60.5 179t-105 149t-158 100.5t-213 37.5h-277q37 -30 47.5 -85.5t10.5 -143.5v-393h182v-58h-182v-446q0 -115 37.5 -158t152.5 -43h31z" />
    <glyph glyph-name="Ntilde" unicode="&#xd1;" horiz-adv-x="1441" 
d="M164 1325q-59 72 -152 72v37h152q131 0 196 -27.5t123 -118.5l742 -1091v1237h55v-1323q59 -72 150 -72v-39h-152q-131 0 -196 27.5t-124 117.5l-739 1092v-1237h-55v1325zM948 1546q-72 0 -218 49.5t-193 49.5q-53 0 -79 -17t-26 -59h-26q-7 128 34 178.5t117 50.5
q69 0 216 -49t198 -49q104 0 104 76h27q6 -116 -37.5 -173t-116.5 -57z" />
    <glyph glyph-name="Ograve" unicode="&#xd2;" horiz-adv-x="1849" 
d="M905 -20q-127 0 -242.5 33t-210 96.5t-164 152.5t-107.5 206t-38 251q0 167 59 306t162 232.5t242.5 145t298.5 51.5q161 0 300 -51.5t240.5 -145t159.5 -232.5t58 -306t-58 -306.5t-159.5 -234t-240.5 -146.5t-300 -52zM909 33q248 0 376 178t128 508t-128 506t-376 176
q-250 0 -379 -176t-129 -506t129 -508t379 -178zM756 1812q-54 54 -24 107q23 40 73 47q61 8 94 -46q4 -8 8 -17l148 -367h-19z" />
    <glyph glyph-name="Oacute" unicode="&#xd3;" horiz-adv-x="1849" 
d="M905 -20q-127 0 -242.5 33t-210 96.5t-164 152.5t-107.5 206t-38 251q0 167 59 306t162 232.5t242.5 145t298.5 51.5q161 0 300 -51.5t240.5 -145t159.5 -232.5t58 -306t-58 -306.5t-159.5 -234t-240.5 -146.5t-300 -52zM909 33q248 0 376 178t128 508t-128 506t-376 176
q-250 0 -379 -176t-129 -506t129 -508t379 -178zM950 1882q25 64 87 64q51 0 81 -38q37 -47 -4 -100q-6 -8 -14 -16l-279 -276h-18z" />
    <glyph glyph-name="Ocircumflex" unicode="&#xd4;" horiz-adv-x="1849" 
d="M905 -20q-127 0 -242.5 33t-210 96.5t-164 152.5t-107.5 206t-38 251q0 167 59 306t162 232.5t242.5 145t298.5 51.5q161 0 300 -51.5t240.5 -145t159.5 -232.5t58 -306t-58 -306.5t-159.5 -234t-240.5 -146.5t-300 -52zM909 33q248 0 376 178t128 508t-128 506t-376 176
q-250 0 -379 -176t-129 -506t129 -508t379 -178zM834 1903q15 35 42.5 52.5t55 15.5t54 -20t40.5 -48l168 -367h-18l-246 281l-248 -281h-18z" />
    <glyph glyph-name="Otilde" unicode="&#xd5;" horiz-adv-x="1849" 
d="M905 -20q-127 0 -242.5 33t-210 96.5t-164 152.5t-107.5 206t-38 251q0 167 59 306t162 232.5t242.5 145t298.5 51.5q161 0 300 -51.5t240.5 -145t159.5 -232.5t58 -306t-58 -306.5t-159.5 -234t-240.5 -146.5t-300 -52zM909 33q248 0 376 178t128 508t-128 506t-376 176
q-250 0 -379 -176t-129 -506t129 -508t379 -178zM1135 1554q-72 0 -218.5 49.5t-193.5 49.5q-53 0 -79 -17t-26 -59h-26q-7 128 34 178.5t117 50.5q69 0 216 -49t198 -49q105 0 105 76h26q6 -116 -37 -173t-116 -57z" />
    <glyph glyph-name="Odieresis" unicode="&#xd6;" horiz-adv-x="1849" 
d="M905 -20q-127 0 -242.5 33t-210 96.5t-164 152.5t-107.5 206t-38 251q0 167 59 306t162 232.5t242.5 145t298.5 51.5q161 0 300 -51.5t240.5 -145t159.5 -232.5t58 -306t-58 -306.5t-159.5 -234t-240.5 -146.5t-300 -52zM909 33q248 0 376 178t128 508t-128 506t-376 176
q-250 0 -379 -176t-129 -506t129 -508t379 -178zM750 1530q-56 0 -92.5 36t-36.5 93q0 56 37 93t92 34q55 -2 91 -37t36 -90q0 -57 -36.5 -93t-90.5 -36zM1090 1530q-56 0 -94 36.5t-38 92.5q0 55 38 90t94 35q53 0 90 -35t37 -90q0 -56 -37 -92.5t-90 -36.5z" />
    <glyph glyph-name="multiply" unicode="&#xd7;" horiz-adv-x="866" 
d="M750 360l-301 302l-287 -287l-60 57l287 287l-270 272l55 58l272 -273l287 287l58 -57l-287 -287l301 -301z" />
    <glyph glyph-name="Oslash" unicode="&#xd8;" horiz-adv-x="1806" 
d="M905 -20q-260 0 -456 133l-89 -113h-57l109 137q-127 100 -198 249t-71 333q0 167 59 306t162 232.5t242.5 145t298.5 51.5q258 0 449 -125l82 105h59l-104 -131q129 -98 200.5 -247t71.5 -337q0 -167 -58 -306.5t-159.5 -234t-240.5 -146.5t-300 -52zM909 33
q248 0 376 178t128 508q0 301 -106 475l-779 -981q132 -180 381 -180zM1278 1235q-128 166 -369 166q-250 0 -379 -176t-129 -506q0 -293 103 -467z" />
    <glyph glyph-name="Ugrave" unicode="&#xd9;" horiz-adv-x="1449" 
d="M752 -20q-95 0 -179 18.5t-160 62t-130.5 108.5t-86.5 165t-32 225v643q0 35 -6 65t-21 61.5t-47 50t-78 18.5v37h111q79 0 131.5 -12t84 -32t47.5 -60t21 -83t5 -114v-596q0 -135 31 -233.5t87 -153.5t125 -80t154 -25q92 -1 168 31t132.5 96t88 168t31.5 240v854h57
v-840q0 -313 -140 -464.5t-394 -149.5zM522 1817q-55 55 -23 108q24 40 75 45q61 7 92 -48q5 -7 8 -15l147 -367h-18z" />
    <glyph glyph-name="Uacute" unicode="&#xda;" horiz-adv-x="1449" 
d="M752 -20q-95 0 -179 18.5t-160 62t-130.5 108.5t-86.5 165t-32 225v643q0 35 -6 65t-21 61.5t-47 50t-78 18.5v37h111q79 0 131.5 -12t84 -32t47.5 -60t21 -83t5 -114v-596q0 -135 31 -233.5t87 -153.5t125 -80t154 -25q92 -1 168 31t132.5 96t88 168t31.5 240v854h57
v-840q0 -313 -140 -464.5t-394 -149.5zM858 1896q25 64 87 64q51 0 81 -38q37 -47 -4 -100q-6 -8 -14 -16l-279 -276h-18z" />
    <glyph glyph-name="Ucircumflex" unicode="&#xdb;" horiz-adv-x="1449" 
d="M752 -20q-95 0 -179 18.5t-160 62t-130.5 108.5t-86.5 165t-32 225v643q0 35 -6 65t-21 61.5t-47 50t-78 18.5v37h111q79 0 131.5 -12t84 -32t47.5 -60t21 -83t5 -114v-596q0 -135 31 -233.5t87 -153.5t125 -80t154 -25q92 -1 168 31t132.5 96t88 168t31.5 240v854h57
v-840q0 -313 -140 -464.5t-394 -149.5zM711 1905q15 35 42.5 52.5t55 15.5t54 -20t40.5 -48l168 -367h-18l-246 281l-248 -281h-18z" />
    <glyph glyph-name="Udieresis" unicode="&#xdc;" horiz-adv-x="1449" 
d="M752 -20q-95 0 -179 18.5t-160 62t-130.5 108.5t-86.5 165t-32 225v643q0 35 -6 65t-21 61.5t-47 50t-78 18.5v37h111q79 0 131.5 -12t84 -32t47.5 -60t21 -83t5 -114v-596q0 -135 31 -233.5t87 -153.5t125 -80t154 -25q92 -1 168 31t132.5 96t88 168t31.5 240v854h57
v-840q0 -313 -140 -464.5t-394 -149.5zM621 1524q-56 0 -92.5 36t-36.5 93q0 56 37 93t92 34q55 -2 91 -37t36 -90q0 -57 -36 -93t-91 -36zM961 1524q-56 0 -94 36.5t-38 92.5q0 55 38 90t94 35q53 0 89.5 -35t36.5 -90q0 -56 -36.5 -92.5t-89.5 -36.5z" />
    <glyph glyph-name="Yacute" unicode="&#xdd;" horiz-adv-x="1421" 
d="M584 0v606l-344 588q-2 3 -17.5 28.5t-18.5 30t-17.5 27t-20 28t-20.5 23t-23.5 23t-24 17t-28.5 15.5t-29.5 7.5t-34.5 3.5v37h221q47 0 82.5 -8.5t58.5 -20t46.5 -38.5t36.5 -47t39 -64q7 -11 10 -17l295 -510l456 705h68l-490 -758v-676h-245zM842 1907q25 63 86 64
q50 1 80 -36q38 -47 -1 -100q-7 -9 -16 -18l-278 -277h-19z" />
    <glyph glyph-name="Thorn" unicode="&#xde;" horiz-adv-x="1460" 
d="M164 1202q0 35 -6 65t-21 61.5t-47 50t-78 18.5v37h111q93 0 150 -14t87.5 -49.5t41 -83t10.5 -126.5v-65h338q156 0 268.5 -29t176.5 -82.5t93 -119.5t29 -150q0 -63 -17.5 -117t-59 -103t-105.5 -83.5t-162 -55t-223 -20.5h-338v-336h-248v1202zM702 391
q185 0 271 86.5t86 237.5q0 153 -86 239t-271 86h-290v-649h290z" />
    <glyph glyph-name="germandbls" unicode="&#xdf;" horiz-adv-x="1349" 
d="M846 -20q-138 0 -253 52t-167 152h53q42 -73 141.5 -114t208.5 -41q118 0 197.5 46.5t75.5 131.5q-2 43 -40 78.5t-96.5 61t-129 50.5t-140.5 55.5t-128 67.5t-94 94.5t-36 128.5q0 92 60.5 162.5t152 104.5t195.5 34q124 0 211 -43v35q3 178 -98 281.5t-263 103.5
q-90 -1 -156.5 -33t-106 -91.5t-58.5 -138.5t-19 -179v-979h-243v932q0 236 157.5 385t405.5 149q200 0 314 -117t114 -335v-96q-41 37 -106 56t-134 19q-109 0 -182 -43t-70 -121q2 -42 40 -77t97 -60.5t129.5 -51.5t140.5 -57.5t127.5 -70t93.5 -97t36 -130.5
q0 -97 -63 -168t-159 -104t-208 -33z" />
    <glyph glyph-name="agrave" unicode="&#xe0;" horiz-adv-x="1286" 
d="M461 -20q-150 0 -254.5 73.5t-104.5 192.5q0 73 37 123.5t97.5 76t134.5 41t152.5 23.5t147 17.5t122 30.5t73.5 54q0 102 -26 176t-73 114.5t-102 58.5t-122 18q-96 0 -177.5 -34.5t-134.5 -100.5h-49q61 97 183 148.5t270 51.5q94 0 176.5 -25.5t150 -75.5t107 -134.5
t39.5 -192.5v-383q0 -194 147 -194v-39h-104q-137 0 -197 34t-77 124q-79 -87 -187 -132.5t-229 -45.5zM555 59q83 0 165 40.5t146 113.5v330q-31 -27 -99 -44t-136.5 -29t-134.5 -31.5t-108 -64.5t-42 -116q0 -95 59.5 -147t149.5 -52zM397 1421q-55 55 -23 108
q24 40 75 45q61 7 92 -48q5 -7 8 -15l147 -366h-18z" />
    <glyph glyph-name="aacute" unicode="&#xe1;" horiz-adv-x="1286" 
d="M461 -20q-150 0 -254.5 73.5t-104.5 192.5q0 73 37 123.5t97.5 76t134.5 41t152.5 23.5t147 17.5t122 30.5t73.5 54q0 102 -26 176t-73 114.5t-102 58.5t-122 18q-96 0 -177.5 -34.5t-134.5 -100.5h-49q61 97 183 148.5t270 51.5q94 0 176.5 -25.5t150 -75.5t107 -134.5
t39.5 -192.5v-383q0 -194 147 -194v-39h-104q-137 0 -197 34t-77 124q-79 -87 -187 -132.5t-229 -45.5zM555 59q83 0 165 40.5t146 113.5v330q-31 -27 -99 -44t-136.5 -29t-134.5 -31.5t-108 -64.5t-42 -116q0 -95 59.5 -147t149.5 -52zM723 1516q25 63 86 64q50 1 81 -38
q37 -46 -3 -100q-7 -9 -15 -17l-278 -276h-19z" />
    <glyph glyph-name="acircumflex" unicode="&#xe2;" horiz-adv-x="1286" 
d="M461 -20q-150 0 -254.5 73.5t-104.5 192.5q0 73 37 123.5t97.5 76t134.5 41t152.5 23.5t147 17.5t122 30.5t73.5 54q0 102 -26 176t-73 114.5t-102 58.5t-122 18q-96 0 -177.5 -34.5t-134.5 -100.5h-49q61 97 183 148.5t270 51.5q94 0 176.5 -25.5t150 -75.5t107 -134.5
t39.5 -192.5v-383q0 -194 147 -194v-39h-104q-137 0 -197 34t-77 124q-79 -87 -187 -132.5t-229 -45.5zM555 59q83 0 165 40.5t146 113.5v330q-31 -27 -99 -44t-136.5 -29t-134.5 -31.5t-108 -64.5t-42 -116q0 -95 59.5 -147t149.5 -52zM537 1511q15 35 42.5 52.5t55 15.5
t54 -20t40.5 -48l168 -366h-18l-246 280l-248 -280h-18z" />
    <glyph glyph-name="atilde" unicode="&#xe3;" horiz-adv-x="1286" 
d="M461 -20q-150 0 -254.5 73.5t-104.5 192.5q0 73 37 123.5t97.5 76t134.5 41t152.5 23.5t147 17.5t122 30.5t73.5 54q0 102 -26 176t-73 114.5t-102 58.5t-122 18q-96 0 -177.5 -34.5t-134.5 -100.5h-49q61 97 183 148.5t270 51.5q94 0 176.5 -25.5t150 -75.5t107 -134.5
t39.5 -192.5v-383q0 -194 147 -194v-39h-104q-137 0 -197 34t-77 124q-79 -87 -187 -132.5t-229 -45.5zM555 59q83 0 165 40.5t146 113.5v330q-31 -27 -99 -44t-136.5 -29t-134.5 -31.5t-108 -64.5t-42 -116q0 -95 59.5 -147t149.5 -52zM831 1161q-72 0 -218 49.5t-193 49.5
q-53 0 -79 -17t-26 -59h-26q-7 128 34 178.5t117 50.5q69 0 215.5 -49t198.5 -49q104 0 104 76h27q6 -116 -37.5 -173t-116.5 -57z" />
    <glyph glyph-name="adieresis" unicode="&#xe4;" horiz-adv-x="1286" 
d="M461 -20q-150 0 -254.5 73.5t-104.5 192.5q0 73 37 123.5t97.5 76t134.5 41t152.5 23.5t147 17.5t122 30.5t73.5 54q0 102 -26 176t-73 114.5t-102 58.5t-122 18q-96 0 -177.5 -34.5t-134.5 -100.5h-49q61 97 183 148.5t270 51.5q94 0 176.5 -25.5t150 -75.5t107 -134.5
t39.5 -192.5v-383q0 -194 147 -194v-39h-104q-137 0 -197 34t-77 124q-79 -87 -187 -132.5t-229 -45.5zM555 59q83 0 165 40.5t146 113.5v330q-31 -27 -99 -44t-136.5 -29t-134.5 -31.5t-108 -64.5t-42 -116q0 -95 59.5 -147t149.5 -52zM477 1145q-56 0 -92.5 36t-36.5 93
q0 56 37 93t92 34q55 -2 91 -37t36 -90q0 -56 -36 -92.5t-91 -36.5zM817 1145q-56 0 -93.5 36.5t-37.5 92.5q0 55 37.5 90t93.5 35q53 0 90 -35t37 -90q0 -56 -37 -92.5t-90 -36.5z" />
    <glyph glyph-name="aring" unicode="&#xe5;" horiz-adv-x="1286" 
d="M461 -20q-150 0 -254.5 73.5t-104.5 192.5q0 73 37 123.5t97.5 76t134.5 41t152.5 23.5t147 17.5t122 30.5t73.5 54q0 102 -26 176t-73 114.5t-102 58.5t-122 18q-96 0 -177.5 -34.5t-134.5 -100.5h-49q61 97 183 148.5t270 51.5q94 0 176.5 -25.5t150 -75.5t107 -134.5
t39.5 -192.5v-383q0 -194 147 -194v-39h-104q-137 0 -197 34t-77 124q-79 -87 -187 -132.5t-229 -45.5zM555 59q83 0 165 40.5t146 113.5v330q-31 -27 -99 -44t-136.5 -29t-134.5 -31.5t-108 -64.5t-42 -116q0 -95 59.5 -147t149.5 -52zM621 1149q-88 0 -151.5 63t-63.5 152
t63.5 152t151.5 63t152.5 -63t64.5 -152t-64.5 -152t-152.5 -63zM621 1204q65 0 112 47t47 113t-47 112t-112 46t-111.5 -46t-46.5 -112t46.5 -113t111.5 -47z" />
    <glyph glyph-name="ae" unicode="&#xe6;" horiz-adv-x="2052" 
d="M500 -20q-63 1 -119.5 13t-108 38.5t-89 65t-59.5 95.5t-22 127q0 250 299 310q87 17 216 19t241 -3q-18 337 -301 340q-104 0 -186.5 -40.5t-124.5 -117.5h-58q60 108 169.5 162.5t252.5 54.5q129 0 230.5 -46t160.5 -136q72 86 183.5 134t247.5 48q101 1 189.5 -26
t160 -80.5t116.5 -141.5t54 -202h-834q-6 -40 -6 -82q0 -217 105 -341t292 -128q121 -3 223 56t142 151h55q-68 -126 -193.5 -198t-293.5 -72q-160 0 -286 59.5t-202 165.5q-172 -225 -454 -225zM590 47q98 0 188.5 53t151.5 144q-67 118 -70 268v84q-23 0 -76.5 0.5
t-77 0.5t-66 -1.5t-67 -5t-54 -10t-52.5 -15.5q-76 -30 -113 -87t-37 -154q0 -130 77.5 -203.5t195.5 -73.5zM1708 645q-18 162 -89.5 255t-186.5 93q-119 0 -202 -96.5t-108 -251.5h586z" />
    <glyph glyph-name="ccedilla" unicode="&#xe7;" horiz-adv-x="1187" 
d="M590 -426q45 0 72 26.5t32 65.5q2 49 -33.5 87.5t-113.5 49.5l104 177q-246 6 -397.5 154t-151.5 378q0 234 157 383.5t409 148.5q282 0 419 -202h-53q-108 148 -311 145q-165 -3 -266 -134t-101 -341t101 -341t266 -132q92 -3 174 33t137 110h53q-130 -186 -380 -200
l-68 -107q105 -7 155 -60.5t50 -119.5q0 -69 -46 -116t-109.5 -59.5t-134 8.5t-114.5 75l15 20q70 -49 135 -49z" />
    <glyph glyph-name="egrave" unicode="&#xe8;" horiz-adv-x="1294" 
d="M682 -20q-258 0 -419 148.5t-161 383.5q0 236 159 384.5t413 147.5q137 1 247.5 -45t185 -150t85.5 -255h-832q-4 -27 -4 -82q0 -216 108.5 -340t297.5 -129q121 -3 222.5 56t141.5 151h56q-68 -128 -195.5 -199t-304.5 -71zM948 645q-14 161 -86.5 254.5t-187.5 93.5
q-124 0 -208 -106.5t-106 -274.5zM498 1427q-54 54 -24 107q23 40 73 47q61 8 94 -46q4 -8 8 -17l148 -367h-19z" />
    <glyph glyph-name="eacute" unicode="&#xe9;" horiz-adv-x="1294" 
d="M682 -20q-258 0 -419 148.5t-161 383.5q0 236 159 384.5t413 147.5q137 1 247.5 -45t185 -150t85.5 -255h-832q-4 -27 -4 -82q0 -216 108.5 -340t297.5 -129q121 -3 222.5 56t141.5 151h56q-68 -128 -195.5 -199t-304.5 -71zM948 645q-14 161 -86.5 254.5t-187.5 93.5
q-124 0 -208 -106.5t-106 -274.5zM707 1509q25 63 86 64q50 1 80 -36q38 -47 -1 -100q-7 -9 -16 -18l-278 -276h-19z" />
    <glyph glyph-name="ecircumflex" unicode="&#xea;" horiz-adv-x="1294" 
d="M682 -20q-258 0 -419 148.5t-161 383.5q0 236 159 384.5t413 147.5q137 1 247.5 -45t185 -150t85.5 -255h-832q-4 -27 -4 -82q0 -216 108.5 -340t297.5 -129q121 -3 222.5 56t141.5 151h56q-68 -128 -195.5 -199t-304.5 -71zM948 645q-14 161 -86.5 254.5t-187.5 93.5
q-124 0 -208 -106.5t-106 -274.5zM571 1507q15 35 42.5 52.5t55.5 15.5t54.5 -20t40.5 -48l168 -366h-19l-245 280l-248 -280h-19z" />
    <glyph glyph-name="edieresis" unicode="&#xeb;" horiz-adv-x="1294" 
d="M682 -20q-258 0 -419 148.5t-161 383.5q0 236 159 384.5t413 147.5q137 1 247.5 -45t185 -150t85.5 -255h-832q-4 -27 -4 -82q0 -216 108.5 -340t297.5 -129q121 -3 222.5 56t141.5 151h56q-68 -128 -195.5 -199t-304.5 -71zM948 645q-14 161 -86.5 254.5t-187.5 93.5
q-124 0 -208 -106.5t-106 -274.5zM506 1141q-56 0 -92.5 36t-36.5 93q0 56 37 93t92 34q55 -2 91 -37t36 -90q0 -56 -36.5 -92.5t-90.5 -36.5zM846 1141q-56 0 -93.5 36.5t-37.5 92.5q0 55 37.5 90t93.5 35q53 0 90 -35t37 -90q0 -56 -37 -92.5t-90 -36.5z" />
    <glyph glyph-name="igrave" unicode="&#xec;" horiz-adv-x="559" 
d="M184 793q0 34 -6 64.5t-21.5 61.5t-47.5 49.5t-78 18.5v37h110q56 0 97.5 -5.5t72.5 -15.5t51.5 -29.5t33 -40.5t19.5 -55.5t9 -69t2 -85.5v-723h-242v793zM23 1427q-54 54 -24 107q23 40 73 47q61 8 94 -46q4 -8 8 -17l148 -367h-19z" />
    <glyph glyph-name="iacute" unicode="&#xed;" horiz-adv-x="559" 
d="M184 793q0 34 -6 64.5t-21.5 61.5t-47.5 49.5t-78 18.5v37h110q56 0 97.5 -5.5t72.5 -15.5t51.5 -29.5t33 -40.5t19.5 -55.5t9 -69t2 -85.5v-723h-242v793zM238 1516q25 63 86 64q50 1 81 -38q37 -46 -3 -100q-7 -9 -15 -17l-278 -276h-19z" />
    <glyph glyph-name="icircumflex" unicode="&#xee;" horiz-adv-x="559" 
d="M184 793q0 34 -6 64.5t-21.5 61.5t-47.5 49.5t-78 18.5v37h110q56 0 97.5 -5.5t72.5 -15.5t51.5 -29.5t33 -40.5t19.5 -55.5t9 -69t2 -85.5v-723h-242v793zM150 1513q15 35 42.5 52.5t55 15.5t54 -20t40.5 -48l168 -366h-18l-246 280l-248 -280h-18z" />
    <glyph glyph-name="idieresis" unicode="&#xef;" horiz-adv-x="559" 
d="M184 793q0 34 -6 64.5t-21.5 61.5t-47.5 49.5t-78 18.5v37h110q56 0 97.5 -5.5t72.5 -15.5t51.5 -29.5t33 -40.5t19.5 -55.5t9 -69t2 -85.5v-723h-242v793zM94 1145q-56 0 -92.5 36t-36.5 93q0 56 37 93t92 34q55 -2 91 -37t36 -90q0 -56 -36.5 -92.5t-90.5 -36.5z
M434 1145q-56 0 -93.5 36.5t-37.5 92.5q0 55 37.5 90t93.5 35q53 0 90 -35t37 -90q0 -56 -37 -92.5t-90 -36.5z" />
    <glyph glyph-name="eth" unicode="&#xf0;" horiz-adv-x="1236" 
d="M616 -20q-102 0 -188 30t-145 79.5t-100.5 115.5t-60.5 138t-20 146q0 219 135 360.5t359 141.5q169 0 274 -123q-48 227 -184 385l-143 -82l-21 37l135 78q-126 129 -280 150v39q206 -12 385 -129l156 90l20 -35l-139 -82q155 -116 245 -295t91 -397q1 -97 -18.5 -190
t-62.5 -175.5t-103.5 -145.5t-147 -99.5t-187.5 -36.5zM616 29q134 0 208.5 159.5t74.5 417.5q0 86 -14 166q-41 79 -111.5 121.5t-148.5 42.5q-87 0 -151.5 -60.5t-95.5 -162t-30 -228.5q2 -134 31 -235t90 -161t147 -60z" />
    <glyph glyph-name="ntilde" unicode="&#xf1;" horiz-adv-x="1310" 
d="M184 793q0 34 -6 64.5t-21.5 61.5t-47.5 49.5t-78 18.5v37h110q137 0 196.5 -33t76.5 -125q178 178 413 178q351 0 351 -372v-672h-242v633q0 61 -3.5 105t-15.5 89.5t-32.5 73.5t-57.5 46t-88 18q-83 0 -167 -37.5t-146 -108.5v-819h-242v793zM860 1153q-72 0 -218 49
t-193 49q-53 0 -79 -16.5t-26 -58.5h-27q-7 128 34.5 178.5t117.5 50.5q69 0 216 -49t198 -49q104 0 104 75h27q6 -116 -37.5 -172.5t-116.5 -56.5z" />
    <glyph glyph-name="ograve" unicode="&#xf2;" horiz-adv-x="1368" 
d="M684 -20q-255 0 -418.5 144.5t-163.5 387.5t163.5 387.5t418.5 144.5t418.5 -144.5t163.5 -387.5t-163.5 -387.5t-418.5 -144.5zM684 33q107 0 184 68.5t112.5 175t35.5 235.5q0 96 -21 181.5t-61 152.5t-104.5 106t-145.5 39t-145 -39t-103 -106.5t-59.5 -152
t-20.5 -181.5q0 -96 20.5 -181t59.5 -152t103 -106.5t145 -39.5zM471 1423q-55 55 -23 108q24 40 75 45q61 7 92 -48q5 -7 8 -15l147 -366h-18z" />
    <glyph glyph-name="oacute" unicode="&#xf3;" horiz-adv-x="1368" 
d="M684 -20q-255 0 -418.5 144.5t-163.5 387.5t163.5 387.5t418.5 144.5t418.5 -144.5t163.5 -387.5t-163.5 -387.5t-418.5 -144.5zM684 33q107 0 184 68.5t112.5 175t35.5 235.5q0 96 -21 181.5t-61 152.5t-104.5 106t-145.5 39t-145 -39t-103 -106.5t-59.5 -152
t-20.5 -181.5q0 -96 20.5 -181t59.5 -152t103 -106.5t145 -39.5zM750 1509q25 63 86 64q50 1 80 -36q38 -47 -1 -100q-7 -9 -16 -18l-278 -276h-19z" />
    <glyph glyph-name="ocircumflex" unicode="&#xf4;" horiz-adv-x="1368" 
d="M684 -20q-255 0 -418.5 144.5t-163.5 387.5t163.5 387.5t418.5 144.5t418.5 -144.5t163.5 -387.5t-163.5 -387.5t-418.5 -144.5zM684 33q107 0 184 68.5t112.5 175t35.5 235.5q0 96 -21 181.5t-61 152.5t-104.5 106t-145.5 39t-145 -39t-103 -106.5t-59.5 -152
t-20.5 -181.5q0 -96 20.5 -181t59.5 -152t103 -106.5t145 -39.5zM580 1518q15 35 42.5 52.5t55 15.5t54 -20t40.5 -48l168 -367h-18l-246 281l-248 -281h-18z" />
    <glyph glyph-name="otilde" unicode="&#xf5;" horiz-adv-x="1368" 
d="M684 -20q-255 0 -418.5 144.5t-163.5 387.5t163.5 387.5t418.5 144.5t418.5 -144.5t163.5 -387.5t-163.5 -387.5t-418.5 -144.5zM684 33q107 0 184 68.5t112.5 175t35.5 235.5q0 96 -21 181.5t-61 152.5t-104.5 106t-145.5 39t-145 -39t-103 -106.5t-59.5 -152
t-20.5 -181.5q0 -96 20.5 -181t59.5 -152t103 -106.5t145 -39.5zM879 1149q-72 0 -218.5 49t-193.5 49q-53 0 -79 -17t-26 -59h-26q-7 128 34 179t117 51q69 0 216 -49t198 -49q105 0 105 75h26q6 -116 -37 -172.5t-116 -56.5z" />
    <glyph glyph-name="odieresis" unicode="&#xf6;" horiz-adv-x="1368" 
d="M684 -20q-255 0 -418.5 144.5t-163.5 387.5t163.5 387.5t418.5 144.5t418.5 -144.5t163.5 -387.5t-163.5 -387.5t-418.5 -144.5zM684 33q107 0 184 68.5t112.5 175t35.5 235.5q0 96 -21 181.5t-61 152.5t-104.5 106t-145.5 39t-145 -39t-103 -106.5t-59.5 -152
t-20.5 -181.5q0 -96 20.5 -181t59.5 -152t103 -106.5t145 -39.5zM516 1147q-56 0 -92.5 36t-36.5 93q0 56 37 93t92 34q55 -2 91 -37t36 -90q0 -56 -36.5 -92.5t-90.5 -36.5zM856 1147q-56 0 -93.5 36.5t-37.5 92.5q0 55 37.5 90t93.5 35q53 0 90 -35t37 -90
q0 -56 -37 -92.5t-90 -36.5z" />
    <glyph glyph-name="divide" unicode="&#xf7;" horiz-adv-x="1054" 
d="M102 688v80h891v-80h-891zM541 283q-51 0 -85 33.5t-34 84.5q0 48 34 81.5t85 33.5q49 0 81.5 -33.5t32.5 -81.5q0 -51 -32.5 -84.5t-81.5 -33.5zM541 928q-51 0 -85 33t-34 81q0 51 34 84t85 33q50 0 82 -33t32 -84q0 -48 -32.5 -81t-81.5 -33z" />
    <glyph glyph-name="oslash" unicode="&#xf8;" horiz-adv-x="1368" 
d="M231 -12l82 98q-100 70 -155.5 179.5t-55.5 246.5q0 243 163.5 387.5t418.5 144.5q197 0 342 -88l64 78h61l-86 -104q96 -70 148.5 -177t52.5 -241q0 -243 -163.5 -387.5t-418.5 -144.5q-192 0 -334 83l-61 -75h-58zM684 33q107 0 184 68.5t112.5 175t35.5 235.5
q0 167 -58 289l-518 -629q91 -139 244 -139zM356 512q0 -170 62 -297l516 631q-91 145 -250 145q-81 0 -145 -39t-103 -106.5t-59.5 -152t-20.5 -181.5z" />
    <glyph glyph-name="ugrave" unicode="&#xf9;" horiz-adv-x="1310" 
d="M535 -20q-351 0 -351 374v439q0 34 -6 64.5t-21.5 61.5t-47.5 49.5t-78 18.5v37h110q56 0 97.5 -5.5t72.5 -15.5t51.5 -29.5t33 -40.5t19.5 -55.5t9 -69t2 -85.5v-332q0 -61 3.5 -104.5t15 -89.5t32 -74t57 -46t87.5 -18q84 0 167.5 38t147.5 110v586q0 34 -6.5 64.5
t-22 61.5t-47.5 49.5t-78 18.5v37h111q56 0 97.5 -5.5t72.5 -15.5t51.5 -29.5t33 -40.5t19.5 -55.5t9 -69t2 -85.5v-723h-234v156q-84 -84 -190.5 -130t-218.5 -46zM389 1421q-55 55 -23 108q24 40 75 45q61 7 92 -48q5 -7 8 -15l147 -366h-18z" />
    <glyph glyph-name="uacute" unicode="&#xfa;" horiz-adv-x="1310" 
d="M535 -20q-351 0 -351 374v439q0 34 -6 64.5t-21.5 61.5t-47.5 49.5t-78 18.5v37h110q56 0 97.5 -5.5t72.5 -15.5t51.5 -29.5t33 -40.5t19.5 -55.5t9 -69t2 -85.5v-332q0 -61 3.5 -104.5t15 -89.5t32 -74t57 -46t87.5 -18q84 0 167.5 38t147.5 110v586q0 34 -6.5 64.5
t-22 61.5t-47.5 49.5t-78 18.5v37h111q56 0 97.5 -5.5t72.5 -15.5t51.5 -29.5t33 -40.5t19.5 -55.5t9 -69t2 -85.5v-723h-234v156q-84 -84 -190.5 -130t-218.5 -46zM725 1513q25 63 86 64q50 1 80 -36q38 -47 -1 -100q-7 -9 -16 -18l-278 -276h-18z" />
    <glyph glyph-name="ucircumflex" unicode="&#xfb;" horiz-adv-x="1310" 
d="M535 -20q-351 0 -351 374v439q0 34 -6 64.5t-21.5 61.5t-47.5 49.5t-78 18.5v37h110q56 0 97.5 -5.5t72.5 -15.5t51.5 -29.5t33 -40.5t19.5 -55.5t9 -69t2 -85.5v-332q0 -61 3.5 -104.5t15 -89.5t32 -74t57 -46t87.5 -18q84 0 167.5 38t147.5 110v586q0 34 -6.5 64.5
t-22 61.5t-47.5 49.5t-78 18.5v37h111q56 0 97.5 -5.5t72.5 -15.5t51.5 -29.5t33 -40.5t19.5 -55.5t9 -69t2 -85.5v-723h-234v156q-84 -84 -190.5 -130t-218.5 -46zM551 1518q15 35 42.5 52.5t55 15.5t54 -20t40.5 -48l168 -367h-18l-246 281l-248 -281h-18z" />
    <glyph glyph-name="udieresis" unicode="&#xfc;" horiz-adv-x="1310" 
d="M535 -20q-351 0 -351 374v439q0 34 -6 64.5t-21.5 61.5t-47.5 49.5t-78 18.5v37h110q56 0 97.5 -5.5t72.5 -15.5t51.5 -29.5t33 -40.5t19.5 -55.5t9 -69t2 -85.5v-332q0 -61 3.5 -104.5t15 -89.5t32 -74t57 -46t87.5 -18q84 0 167.5 38t147.5 110v586q0 34 -6.5 64.5
t-22 61.5t-47.5 49.5t-78 18.5v37h111q56 0 97.5 -5.5t72.5 -15.5t51.5 -29.5t33 -40.5t19.5 -55.5t9 -69t2 -85.5v-723h-234v156q-84 -84 -190.5 -130t-218.5 -46zM485 1141q-56 0 -92.5 36t-36.5 93q0 56 37 93t92 34q55 -2 91 -37t36 -90q0 -56 -36 -92.5t-91 -36.5z
M825 1141q-56 0 -93.5 36.5t-37.5 92.5q0 55 37.5 90t93.5 35q53 0 90 -35t37 -90q0 -56 -37 -92.5t-90 -36.5z" />
    <glyph glyph-name="yacute" unicode="&#xfd;" horiz-adv-x="1206" 
d="M401 -512l205 479l-366 799q-20 45 -31.5 69t-32 58t-40 51t-48.5 30t-63 13v37h194q59 -1 97.5 -11t69 -37t51 -60.5t48.5 -94.5l244 -565l326 768h59l-651 -1536h-62zM750 1511q25 63 86 64q50 1 80 -36q38 -47 -1 -100q-7 -9 -16 -18l-278 -276h-19z" />
    <glyph glyph-name="thorn" unicode="&#xfe;" horiz-adv-x="1370" 
d="M184 1251q0 35 -6 66t-21.5 62t-47.5 49.5t-78 19.5v39h110q65 0 111.5 -7t78 -24t50.5 -38.5t29 -59t13 -76t3 -98.5v-312q58 80 149.5 126t198.5 46q217 0 355.5 -148t138.5 -384q0 -235 -139 -383.5t-355 -148.5q-105 0 -197.5 47.5t-150.5 122.5v-723h-242v1824z
M702 53q140 0 228 132.5t88 326.5q0 193 -87.5 326t-228.5 133q-92 0 -164 -59t-112 -167v-466q39 -104 112.5 -165t163.5 -61z" />
    <glyph glyph-name="ydieresis" unicode="&#xff;" horiz-adv-x="1206" 
d="M401 -512l205 479l-366 799q-20 45 -31.5 69t-32 58t-40 51t-48.5 30t-63 13v37h194q59 -1 97.5 -11t69 -37t51 -60.5t48.5 -94.5l244 -565l326 768h59l-651 -1536h-62zM510 1147q-56 0 -92.5 36t-36.5 93q0 56 37 93t92 34q55 -2 91 -37t36 -90q0 -56 -36.5 -92.5
t-90.5 -36.5zM850 1147q-56 0 -93.5 36.5t-37.5 92.5q0 55 37.5 90t93.5 35q53 0 90 -35t37 -90q0 -56 -37 -92.5t-90 -36.5z" />
    <glyph glyph-name="Amacron" unicode="&#x100;" horiz-adv-x="1462" 
d="M586 1311q-34 44 -70 65t-92 21v37h162q128 0 201 -46.5t114 -160.5l467 -1227h-264l-182 479h-590l-178 -479h-62zM354 532h545l-229 607q-15 44 -45 112zM373 1556v76h665v-76h-665z" />
    <glyph glyph-name="amacron" unicode="&#x101;" horiz-adv-x="1286" 
d="M461 -20q-150 0 -254.5 73.5t-104.5 192.5q0 73 37 123.5t97.5 76t134.5 41t152.5 23.5t147 17.5t122 30.5t73.5 54q0 102 -26 176t-73 114.5t-102 58.5t-122 18q-96 0 -177.5 -34.5t-134.5 -100.5h-49q61 97 183 148.5t270 51.5q94 0 176.5 -25.5t150 -75.5t107 -134.5
t39.5 -192.5v-383q0 -194 147 -194v-39h-104q-137 0 -197 34t-77 124q-79 -87 -187 -132.5t-229 -45.5zM555 59q83 0 165 40.5t146 113.5v330q-31 -27 -99 -44t-136.5 -29t-134.5 -31.5t-108 -64.5t-42 -116q0 -95 59.5 -147t149.5 -52zM285 1176v75h665v-75h-665z" />
    <glyph glyph-name="Abreve" unicode="&#x102;" horiz-adv-x="1462" 
d="M586 1311q-34 44 -70 65t-92 21v37h162q128 0 201 -46.5t114 -160.5l467 -1227h-264l-182 479h-590l-178 -479h-62zM354 532h545l-229 607q-15 44 -45 112zM707 1538q-131 0 -218.5 80t-93.5 246h25q6 -86 87 -129t200 -43q121 0 201 43t87 129h25q-6 -167 -92.5 -246.5
t-220.5 -79.5z" />
    <glyph glyph-name="abreve" unicode="&#x103;" horiz-adv-x="1286" 
d="M461 -20q-150 0 -254.5 73.5t-104.5 192.5q0 73 37 123.5t97.5 76t134.5 41t152.5 23.5t147 17.5t122 30.5t73.5 54q0 102 -26 176t-73 114.5t-102 58.5t-122 18q-96 0 -177.5 -34.5t-134.5 -100.5h-49q61 97 183 148.5t270 51.5q94 0 176.5 -25.5t150 -75.5t107 -134.5
t39.5 -192.5v-383q0 -194 147 -194v-39h-104q-137 0 -197 34t-77 124q-79 -87 -187 -132.5t-229 -45.5zM555 59q83 0 165 40.5t146 113.5v330q-31 -27 -99 -44t-136.5 -29t-134.5 -31.5t-108 -64.5t-42 -116q0 -95 59.5 -147t149.5 -52zM618 1153q-131 0 -218 80t-93 246h25
q6 -86 86.5 -129t199.5 -43q121 0 201.5 43t87.5 129h25q-6 -167 -93 -246.5t-221 -79.5z" />
    <glyph glyph-name="Aogonek" unicode="&#x104;" horiz-adv-x="1462" 
d="M586 1311q-34 44 -70 65t-92 21v37h162q128 0 201 -46.5t114 -160.5l467 -1227h-96q-46 -71 -52 -139.5t20.5 -112.5t68 -75t92 -27.5t92.5 30.5l12 -12q-88 -100 -207 -114q-104 -13 -165 47q-73 72 -30 204q30 92 118 199h-117l-182 479h-590l-178 -479h-62zM354 532
h545l-229 607q-15 44 -45 112z" />
    <glyph glyph-name="aogonek" unicode="&#x105;" horiz-adv-x="1286" 
d="M461 -20q-150 0 -254.5 73.5t-104.5 192.5q0 73 37 123.5t97.5 76t134.5 41t152.5 23.5t147 17.5t122 30.5t73.5 54q0 102 -26 176t-73 114.5t-102 58.5t-122 18q-96 0 -177.5 -34.5t-134.5 -100.5h-49q61 97 183 148.5t270 51.5q94 0 176.5 -25.5t150 -75.5t107 -134.5
t39.5 -192.5v-383q0 -194 147 -194v-39h-104h-29q-92 -131 -50 -245q28 -76 101 -108q80 -35 149 9q6 4 11 8l13 -12q-87 -99 -206 -114q-104 -13 -166 47q-74 71 -32 200q31 100 131 217q-94 9 -138.5 44.5t-57.5 111.5q-79 -87 -187 -132.5t-229 -45.5zM555 59
q83 0 165 40.5t146 113.5v330q-31 -27 -99 -44t-136.5 -29t-134.5 -31.5t-108 -64.5t-42 -116q0 -95 59.5 -147t149.5 -52z" />
    <glyph glyph-name="Cacute" unicode="&#x106;" horiz-adv-x="1568" 
d="M899 -20q-118 1 -228 31.5t-206 92t-168 148.5t-113 207t-41 260t41 260t113 207t168 148.5t206 92t228 31.5q412 0 584 -311h-60q-53 90 -137 149t-163.5 80.5t-159.5 20.5q-255 -3 -408.5 -184.5t-153.5 -493.5t153.5 -493.5t408.5 -184.5q80 -1 159.5 20.5t163.5 80.5
t137 149h60q-172 -311 -584 -311zM934 1901q25 63 86 64q50 1 81 -38q37 -46 -3 -100q-7 -9 -15 -17l-278 -276h-19z" />
    <glyph glyph-name="cacute" unicode="&#x107;" horiz-adv-x="1187" 
d="M668 -20q-252 0 -409 149.5t-157 382.5q0 234 157 383.5t409 148.5q282 0 419 -202h-53q-108 148 -311 145q-165 -3 -266 -134t-101 -341t101 -341t266 -132q92 -3 174 33t137 110h53q-137 -202 -419 -202zM723 1518q25 63 86 64q50 1 81 -38q37 -46 -3 -100
q-7 -9 -15 -17l-278 -276h-19z" />
    <glyph glyph-name="Cdotaccent" unicode="&#x10a;" horiz-adv-x="1568" 
d="M899 -20q-118 1 -228 31.5t-206 92t-168 148.5t-113 207t-41 260t41 260t113 207t168 148.5t206 92t228 31.5q412 0 584 -311h-60q-53 90 -137 149t-163.5 80.5t-159.5 20.5q-255 -3 -408.5 -184.5t-153.5 -493.5t153.5 -493.5t408.5 -184.5q80 -1 159.5 20.5t163.5 80.5
t137 149h60q-172 -311 -584 -311zM903 1532q-56 0 -92.5 36t-36.5 91t36.5 90t92.5 35q55 0 91 -35t36 -90t-36.5 -91t-90.5 -36z" />
    <glyph glyph-name="cdotaccent" unicode="&#x10b;" horiz-adv-x="1187" 
d="M668 -20q-252 0 -409 149.5t-157 382.5q0 234 157 383.5t409 148.5q282 0 419 -202h-53q-108 148 -311 145q-165 -3 -266 -134t-101 -341t101 -341t266 -132q92 -3 174 33t137 110h53q-137 -202 -419 -202zM674 1143q-56 0 -92.5 36t-36.5 91t36.5 90t92.5 35
q55 0 91 -35t36 -90t-36.5 -91t-90.5 -36z" />
    <glyph glyph-name="Ccaron" unicode="&#x10c;" horiz-adv-x="1579" 
d="M899 -20q-118 1 -228 31.5t-206 92t-168 148.5t-113 207t-41 260t41 260t113 207t168 148.5t206 92t228 31.5q412 0 584 -311h-60q-53 90 -137 149t-163.5 80.5t-159.5 20.5q-255 -3 -408.5 -184.5t-153.5 -493.5t153.5 -493.5t408.5 -184.5q80 -1 159.5 20.5t163.5 80.5
t137 149h60q-172 -311 -584 -311zM825 1604l-170 364h19l248 -280l245 280h19l-168 -364q-31 -64 -95 -68t-98 68z" />
    <glyph glyph-name="ccaron" unicode="&#x10d;" horiz-adv-x="1218" 
d="M668 -20q-252 0 -409 149.5t-157 382.5q0 234 157 383.5t409 148.5q282 0 419 -202h-53q-108 148 -311 145q-165 -3 -266 -134t-101 -341t101 -341t266 -132q92 -3 174 33t137 110h53q-137 -202 -419 -202zM582 1219l-170 364h18l248 -280l246 280h18l-168 -364
q-31 -64 -94.5 -68t-97.5 68z" />
    <glyph glyph-name="Dcaron" unicode="&#x10e;" horiz-adv-x="1589" 
d="M539 0q-99 0 -164.5 11.5t-107.5 34t-64 65.5t-30 93.5t-9 131.5v854q0 36 -5 67t-19 65.5t-44 54.5t-73 20v37h636q163 0 296.5 -40.5t223.5 -109t151 -161.5t88.5 -195t27.5 -213q0 -110 -28 -211.5t-90 -194t-152 -160.5t-223 -108.5t-294 -40.5h-120zM657 53
q114 2 206.5 41.5t153 103t101.5 149.5t58.5 178.5t17.5 193.5q0 102 -17.5 195t-58.5 179t-103 149t-157 100.5t-213 37.5h-291q37 -30 47.5 -85.5t10.5 -143.5v-897q0 -115 37.5 -158t152.5 -43h55zM545 1604l-170 364h18l248 -280l246 280h18l-168 -364
q-31 -64 -94.5 -68t-97.5 68z" />
    <glyph glyph-name="dcaron" unicode="&#x10f;" horiz-adv-x="1320" 
d="M596 -20q-104 0 -195 39t-157 108.5t-104 169t-38 215.5q0 235 141 383.5t353 148.5q107 0 199 -46t149 -124v377q0 35 -6 65.5t-21 62t-46.5 50t-77.5 19.5v39h110q65 0 111.5 -7t78 -24t50.5 -38.5t29 -59t13 -76t3 -98.5v-1184h-232v164q-59 -83 -153.5 -133.5
t-206.5 -50.5zM668 53q91 0 164 61t112 165v466q-38 107 -111 166.5t-165 59.5q-139 0 -227.5 -133.5t-88.5 -325.5q0 -194 88 -326.5t228 -132.5zM903 1628l-170 365h19l247 -281l246 281h19l-168 -365q-31 -64 -95 -68t-98 68z" />
    <glyph glyph-name="Dcroat" unicode="&#x110;" horiz-adv-x="1589" 
d="M539 0q-99 0 -164.5 11.5t-107.5 34t-64 65.5t-30 93.5t-9 131.5v364h-152v58h152v432q0 36 -5 67t-19 65.5t-44 54.5t-73 20v37h636q161 0 294 -40.5t223 -109t152 -161t90 -195t28 -213.5q0 -110 -28 -211.5t-90 -194t-152 -160.5t-223 -108.5t-294 -40.5h-120zM633 53
q116 2 211 41.5t157.5 103t105 149.5t61 179t18.5 193q0 102 -18.5 195t-60.5 179t-105 149t-158 100.5t-213 37.5h-277q37 -30 47.5 -85.5t10.5 -143.5v-393h182v-58h-182v-446q0 -115 37.5 -158t152.5 -43h31z" />
    <glyph glyph-name="dcroat" unicode="&#x111;" horiz-adv-x="1320" 
d="M596 -20q-104 0 -195 39t-157 108.5t-104 169t-38 215.5q0 235 141 383.5t353 148.5q107 0 199 -46t149 -124v291h-110v60h110v26q0 35 -6 65.5t-21 62t-46.5 50t-77.5 19.5v39h110q91 0 147 -14t86 -48.5t40 -79t12 -120.5h129v-60h-129v-1165h-232v164
q-59 -83 -153.5 -133.5t-206.5 -50.5zM668 53q91 0 164 61t112 165v466q-38 107 -111 166.5t-165 59.5q-139 0 -227.5 -133.5t-88.5 -325.5q0 -194 88 -326.5t228 -132.5z" />
    <glyph glyph-name="Emacron" unicode="&#x112;" horiz-adv-x="1337" 
d="M539 0q-83 0 -142 7t-101 25.5t-67.5 42.5t-40 66t-19.5 88.5t-5 116.5v856q0 34 -6.5 65t-21.5 62t-47 49.5t-77 18.5v37h758h58q169 1 205 -21t83 -156q12 -34 19 -53h-58q-7 17 -19 47q-39 97 -69.5 113t-174.5 16h-44h-420q40 -33 51 -90.5t11 -152.5v-369h598v-53
h-598v-461q0 -114 40 -157.5t158 -43.5h209h44q31 -2 57 0t45.5 1t36.5 3t29.5 6.5t23.5 10.5t19 15.5t17.5 22.5t16.5 29.5t17.5 37.5t20.5 47q11 26 17 40h58q-60 -155 -79 -187q-31 -54 -81 -68q-40 -12 -183 -11h-65h-274zM313 1591v76h666v-76h-666z" />
    <glyph glyph-name="emacron" unicode="&#x113;" horiz-adv-x="1294" 
d="M682 -20q-258 0 -419 148.5t-161 383.5q0 236 159 384.5t413 147.5q137 1 247.5 -45t185 -150t85.5 -255h-832q-4 -27 -4 -82q0 -216 108.5 -340t297.5 -129q121 -3 222.5 56t141.5 151h56q-68 -128 -195.5 -199t-304.5 -71zM948 645q-14 161 -86.5 254.5t-187.5 93.5
q-124 0 -208 -106.5t-106 -274.5zM344 1180v75h666v-75h-666z" />
    <glyph glyph-name="Edotaccent" unicode="&#x116;" horiz-adv-x="1337" 
d="M539 0q-83 0 -142 7t-101 25.5t-67.5 42.5t-40 66t-19.5 88.5t-5 116.5v856q0 34 -6.5 65t-21.5 62t-47 49.5t-77 18.5v37h758h58q169 1 205 -21t83 -156q12 -34 19 -53h-58q-7 17 -19 47q-39 97 -69.5 113t-174.5 16h-44h-420q40 -33 51 -90.5t11 -152.5v-369h598v-53
h-598v-461q0 -114 40 -157.5t158 -43.5h209h44q31 -2 57 0t45.5 1t36.5 3t29.5 6.5t23.5 10.5t19 15.5t17.5 22.5t16.5 29.5t17.5 37.5t20.5 47q11 26 17 40h58q-60 -155 -79 -187q-31 -54 -81 -68q-40 -12 -183 -11h-65h-274zM647 1534q-56 0 -92.5 36t-36.5 91t36.5 90
t92.5 35q55 0 91 -35t36 -90t-36.5 -91t-90.5 -36z" />
    <glyph glyph-name="edotaccent" unicode="&#x117;" horiz-adv-x="1294" 
d="M682 -20q-258 0 -419 148.5t-161 383.5q0 236 159 384.5t413 147.5q137 1 247.5 -45t185 -150t85.5 -255h-832q-4 -27 -4 -82q0 -216 108.5 -340t297.5 -129q121 -3 222.5 56t141.5 151h56q-68 -128 -195.5 -199t-304.5 -71zM948 645q-14 161 -86.5 254.5t-187.5 93.5
q-124 0 -208 -106.5t-106 -274.5zM684 1147q-56 0 -92.5 36t-36.5 91t36.5 90t92.5 35q55 0 91 -35t36 -90t-36.5 -91t-90.5 -36z" />
    <glyph glyph-name="Eogonek" unicode="&#x118;" horiz-adv-x="1337" 
d="M539 0q-83 0 -142 7t-101 25.5t-67.5 42.5t-40 66t-19.5 88.5t-5 116.5v856q0 34 -6.5 65t-21.5 62t-47 49.5t-77 18.5v37h758h58q169 1 205 -21t83 -156q12 -34 19 -53h-58q-7 17 -19 47q-39 97 -69.5 113t-174.5 16h-44h-420q40 -33 51 -90.5t11 -152.5v-369h598v-53
h-598v-461q0 -114 40 -157.5t158 -43.5h209h44q31 -2 57 0t45.5 1t36.5 3t29.5 6.5t23.5 10.5t19 15.5t17.5 22.5t16.5 29.5t17.5 37.5t20.5 47q11 26 17 40h58q-60 -155 -79 -187q-31 -54 -81 -68q-40 -12 -183 -11h-65h-88q-46 -71 -52 -139.5t20.5 -112.5t68 -75
t92 -27.5t92.5 30.5l12 -12q-88 -100 -207 -114q-104 -13 -165 47q-73 72 -30 204q30 92 118 199h-135z" />
    <glyph glyph-name="eogonek" unicode="&#x119;" horiz-adv-x="1294" 
d="M948 645q-14 161 -86.5 254.5t-187.5 93.5q-124 0 -208 -106.5t-106 -274.5zM940 -369q-88 -99 -206 -114q-104 -12 -165 47q-74 72 -32 202q31 99 129 214q-166 3 -294.5 71t-199 188t-70.5 273q0 236 159 384.5t413 147.5q137 1 247.5 -45t185 -150t85.5 -255h-832
q-4 -27 -4 -82q0 -216 108.5 -340t297.5 -129q121 -3 222.5 56t141.5 151h56q-64 -121 -182.5 -192t-282.5 -78q-92 -131 -50 -245q28 -76 101 -108q80 -35 149 9q6 4 11 8z" />
    <glyph glyph-name="Ecaron" unicode="&#x11a;" horiz-adv-x="1337" 
d="M539 0q-83 0 -142 7t-101 25.5t-67.5 42.5t-40 66t-19.5 88.5t-5 116.5v856q0 34 -6.5 65t-21.5 62t-47 49.5t-77 18.5v37h758h58q169 1 205 -21t83 -156q12 -34 19 -53h-58q-7 17 -19 47q-39 97 -69.5 113t-174.5 16h-44h-420q40 -33 51 -90.5t11 -152.5v-369h598v-53
h-598v-461q0 -114 40 -157.5t158 -43.5h209h44q31 -2 57 0t45.5 1t36.5 3t29.5 6.5t23.5 10.5t19 15.5t17.5 22.5t16.5 29.5t17.5 37.5t20.5 47q11 26 17 40h58q-60 -155 -79 -187q-31 -54 -81 -68q-40 -12 -183 -11h-65h-274zM555 1604l-170 364h18l248 -280l246 280h18
l-167 -364q-31 -64 -95 -68t-98 68z" />
    <glyph glyph-name="ecaron" unicode="&#x11b;" horiz-adv-x="1294" 
d="M682 -20q-258 0 -419 148.5t-161 383.5q0 236 159 384.5t413 147.5q137 1 247.5 -45t185 -150t85.5 -255h-832q-4 -27 -4 -82q0 -216 108.5 -340t297.5 -129q121 -3 222.5 56t141.5 151h56q-68 -128 -195.5 -199t-304.5 -71zM948 645q-14 161 -86.5 254.5t-187.5 93.5
q-124 0 -208 -106.5t-106 -274.5zM580 1217l-170 364h18l248 -281l246 281h18l-168 -364q-31 -64 -94.5 -68t-97.5 68z" />
    <glyph glyph-name="Gbreve" unicode="&#x11e;" horiz-adv-x="1677" 
d="M899 -20q-118 1 -228 31.5t-206 92t-168 148.5t-113 207t-41 260t41 260t113 207t168 148.5t206 92t228 31.5q412 0 584 -311h-60q-53 90 -137 149t-163.5 80.5t-159.5 20.5q-255 -3 -408.5 -184.5t-153.5 -493.5t154 -496t408 -186q194 0 321 108v383q0 35 -6 65.5
t-21 62t-46.5 50t-77.5 19.5v37h106q67 0 114.5 -7t80 -24t52 -38.5t30 -58.5t13.5 -75.5t3 -97.5v-152q-48 -88 -120 -153.5t-156.5 -103t-173 -55t-183.5 -17.5zM907 1559q-131 0 -218 79.5t-93 245.5h25q6 -86 86.5 -129t199.5 -43q121 0 201.5 43t87.5 129h25
q-6 -167 -93 -246t-221 -79z" />
    <glyph glyph-name="gbreve" unicode="&#x11f;" horiz-adv-x="1253" 
d="M612 -553q-152 1 -268.5 33.5t-189 104t-72.5 175.5q0 89 71.5 152.5t190.5 99.5h59q-137 -85 -137 -243q0 -124 91 -203.5t255 -79.5q160 0 260.5 79t100.5 208q0 56 -21.5 100t-58 70.5t-84.5 48t-100.5 33.5t-106 26t-101.5 26t-87 34t-62 49t-26.5 71t18.5 101
q-109 48 -169 133t-60 199q0 173 138 276.5t357 103.5l37 -2q36 124 128 209.5t212 85.5q80 0 122 -38t42 -93q0 -49 -34.5 -86t-90.5 -37q-51 0 -86 35.5t-35 81.5q0 36 22 64.5t56 44.5q-101 -1 -180.5 -78.5t-104.5 -190.5q184 -21 296 -121.5t112 -254.5
q0 -176 -136.5 -279.5t-359.5 -105.5q-127 0 -227 38q-18 -50 -6.5 -88t44 -58.5t81.5 -37t108 -24.5t123.5 -19.5t127 -22.5t119 -33.5t99 -52.5t67.5 -80.5t25 -115.5q0 -151 -157 -244.5t-402 -93.5zM608 317q87 0 147.5 50.5t86.5 126.5t26 170q0 68 -15.5 128.5
t-46 109t-81 76.5t-115.5 28t-115.5 -28t-81 -76.5t-46 -109t-15.5 -128.5q0 -94 26.5 -170.5t86 -126.5t143.5 -50zM614 1384q-131 0 -218 80t-93 246h25q6 -86 86.5 -129t199.5 -43q121 0 201.5 43t87.5 129h25q-6 -167 -93 -246.5t-221 -79.5z" />
    <glyph glyph-name="Gdotaccent" unicode="&#x120;" horiz-adv-x="1677" 
d="M899 -20q-118 1 -228 31.5t-206 92t-168 148.5t-113 207t-41 260t41 260t113 207t168 148.5t206 92t228 31.5q412 0 584 -311h-60q-53 90 -137 149t-163.5 80.5t-159.5 20.5q-255 -3 -408.5 -184.5t-153.5 -493.5t154 -496t408 -186q194 0 321 108v383q0 35 -6 65.5
t-21 62t-46.5 50t-77.5 19.5v37h106q67 0 114.5 -7t80 -24t52 -38.5t30 -58.5t13.5 -75.5t3 -97.5v-152q-48 -88 -120 -153.5t-156.5 -103t-173 -55t-183.5 -17.5zM911 1532q-56 0 -92.5 36t-36.5 91t36.5 90t92.5 35q55 0 91 -35t36 -90t-36.5 -91t-90.5 -36z" />
    <glyph glyph-name="gdotaccent" unicode="&#x121;" horiz-adv-x="1253" 
d="M612 -553q-152 1 -268.5 33.5t-189 104t-72.5 175.5q0 89 71.5 152.5t190.5 99.5h59q-137 -85 -137 -243q0 -124 91 -203.5t255 -79.5q160 0 260.5 79t100.5 208q0 56 -21.5 100t-58 70.5t-84.5 48t-100.5 33.5t-106 26t-101.5 26t-87 34t-62 49t-26.5 71t18.5 101
q-109 48 -169 133t-60 199q0 173 138 276.5t357 103.5l37 -2q36 124 128 209.5t212 85.5q80 0 122 -38t42 -93q0 -49 -34.5 -86t-90.5 -37q-51 0 -86 35.5t-35 81.5q0 36 22 64.5t56 44.5q-101 -1 -180.5 -78.5t-104.5 -190.5q184 -21 296 -121.5t112 -254.5
q0 -176 -136.5 -279.5t-359.5 -105.5q-127 0 -227 38q-18 -50 -6.5 -88t44 -58.5t81.5 -37t108 -24.5t123.5 -19.5t127 -22.5t119 -33.5t99 -52.5t67.5 -80.5t25 -115.5q0 -151 -157 -244.5t-402 -93.5zM608 317q87 0 147.5 50.5t86.5 126.5t26 170q0 68 -15.5 128.5
t-46 109t-81 76.5t-115.5 28t-115.5 -28t-81 -76.5t-46 -109t-15.5 -128.5q0 -94 26.5 -170.5t86 -126.5t143.5 -50zM623 1378q-56 0 -92.5 36t-36.5 91t36.5 90t92.5 35q55 0 91 -35t36 -90t-36.5 -91t-90.5 -36z" />
    <glyph glyph-name="uni0122" unicode="&#x122;" horiz-adv-x="1677" 
d="M899 -20q-118 1 -228 31.5t-206 92t-168 148.5t-113 207t-41 260t41 260t113 207t168 148.5t206 92t228 31.5q412 0 584 -311h-60q-53 90 -137 149t-163.5 80.5t-159.5 20.5q-255 -3 -408.5 -184.5t-153.5 -493.5t154 -496t408 -186q194 0 321 108v383q0 35 -6 65.5
t-21 62t-46.5 50t-77.5 19.5v37h106q67 0 114.5 -7t80 -24t52 -38.5t30 -58.5t13.5 -75.5t3 -97.5v-152q-48 -88 -120 -153.5t-156.5 -103t-173 -55t-183.5 -17.5zM895 -526q45 67 45 135q0 27 -18.5 45t-40 27.5t-40 35t-18.5 64.5q0 50 33.5 80t77.5 30q52 0 82.5 -35.5
t30.5 -91.5q0 -74 -42 -164t-87 -137z" />
    <glyph glyph-name="uni0123" unicode="&#x123;" horiz-adv-x="1253" 
d="M612 -553q-152 1 -268.5 33.5t-189 104t-72.5 175.5q0 89 71.5 152.5t190.5 99.5h59q-137 -85 -137 -243q0 -124 91 -203.5t255 -79.5q160 0 260.5 79t100.5 208q0 56 -21.5 100t-58 70.5t-84.5 48t-100.5 33.5t-106 26t-101.5 26t-87 34t-62 49t-26.5 71t18.5 101
q-109 48 -169 133t-60 199q0 173 138 276.5t357 103.5l37 -2q36 124 128 209.5t212 85.5q80 0 122 -38t42 -93q0 -49 -34.5 -86t-90.5 -37q-51 0 -86 35.5t-35 81.5q0 36 22 64.5t56 44.5q-101 -1 -180.5 -78.5t-104.5 -190.5q184 -21 296 -121.5t112 -254.5
q0 -176 -136.5 -279.5t-359.5 -105.5q-127 0 -227 38q-18 -50 -6.5 -88t44 -58.5t81.5 -37t108 -24.5t123.5 -19.5t127 -22.5t119 -33.5t99 -52.5t67.5 -80.5t25 -115.5q0 -151 -157 -244.5t-402 -93.5zM608 317q87 0 147.5 50.5t86.5 126.5t26 170q0 68 -15.5 128.5
t-46 109t-81 76.5t-115.5 28t-115.5 -28t-81 -76.5t-46 -109t-15.5 -128.5q0 -94 26.5 -170.5t86 -126.5t143.5 -50zM647 1786q-45 -67 -45 -135q0 -27 18.5 -45t40 -27.5t40 -35t18.5 -64.5q0 -50 -33.5 -80.5t-77.5 -30.5q-52 0 -82 35.5t-30 91.5q0 74 42 164t87 137z
" />
    <glyph glyph-name="Hbar" unicode="&#x126;" horiz-adv-x="1478" 
d="M164 1202q0 35 -6 65t-21 61.5t-47 50t-78 18.5v37h111q74 0 125 -11t83.5 -31t50 -56t24 -78t6.5 -105v-106h653v387h250v-1434h-250v717h-653v-717h-248v1202zM412 772h653v219h-653v-219z" />
    <glyph glyph-name="hbar" unicode="&#x127;" horiz-adv-x="1310" 
d="M184 1251q0 35 -6 66t-21.5 62t-47.5 49.5t-78 19.5v39h110q64 0 109.5 -6.5t77 -23t50.5 -37t29.5 -55.5t14 -72t4.5 -93h127v-59h-127v-262q82 79 186 122t215 43q351 0 351 -372v-672h-242v633q0 61 -3.5 105t-15.5 89.5t-32.5 73.5t-57.5 46t-88 18q-83 0 -167 -37.5
t-146 -108.5v-819h-242v1141h-118v59h118v51z" />
    <glyph glyph-name="Imacron" unicode="&#x12a;" horiz-adv-x="577" 
d="M164 1202q0 35 -6 65t-21 61.5t-47 50t-78 18.5v37h111q79 0 131.5 -12t84 -32t47.5 -60t21 -83t5 -114v-1133h-248v1202zM-10 1559v75h598v-75h-598z" />
    <glyph glyph-name="imacron" unicode="&#x12b;" horiz-adv-x="559" 
d="M184 793q0 34 -6 64.5t-21.5 61.5t-47.5 49.5t-78 18.5v37h110q56 0 97.5 -5.5t72.5 -15.5t51.5 -29.5t33 -40.5t19.5 -55.5t9 -69t2 -85.5v-723h-242v793zM8 1167v76h473v-76h-473z" />
    <glyph glyph-name="Iogonek" unicode="&#x12e;" horiz-adv-x="577" 
d="M164 1202q0 35 -6 65t-21 61.5t-47 50t-78 18.5v37h111q79 0 131.5 -12t84 -32t47.5 -60t21 -83t5 -114v-1133h-97q-46 -71 -52 -139.5t20.5 -112.5t68.5 -75t92.5 -27.5t92.5 30.5l12 -12q-88 -100 -207 -114q-104 -13 -165 47q-73 72 -31 202q30 94 118 201h-100v1202z
" />
    <glyph glyph-name="iogonek" unicode="&#x12f;" horiz-adv-x="548" 
d="M184 793q0 34 -6 64.5t-21.5 61.5t-47.5 49.5t-78 18.5v37h110q56 0 97.5 -5.5t72.5 -15.5t51.5 -29.5t33 -40.5t19.5 -55.5t9 -69t2 -85.5v-723h-88q-46 -71 -52 -139.5t20.5 -112.5t68 -75t92 -27.5t92.5 30.5l12 -12q-88 -100 -207 -114q-104 -13 -165 47
q-73 72 -30 204q30 92 118 199h-103v793zM266 1169q-64 0 -107.5 43.5t-43.5 106.5q0 62 43.5 104.5t107.5 42.5q60 0 104 -43t44 -104q0 -63 -44 -106.5t-104 -43.5z" />
    <glyph glyph-name="Idotaccent" unicode="&#x130;" horiz-adv-x="577" 
d="M164 1202q0 35 -6 65t-21 61.5t-47 50t-78 18.5v37h111q79 0 131.5 -12t84 -32t47.5 -60t21 -83t5 -114v-1133h-248v1202zM281 1536q-63 0 -104.5 41t-41.5 104q0 61 41.5 101.5t104.5 40.5q62 0 103.5 -40.5t41.5 -101.5q0 -63 -41.5 -104t-103.5 -41z" />
    <glyph glyph-name="dotlessi" unicode="&#x131;" horiz-adv-x="548" 
d="M184 793q0 34 -6 64.5t-21.5 61.5t-47.5 49.5t-78 18.5v37h110q56 0 97.5 -5.5t72.5 -15.5t51.5 -29.5t33 -40.5t19.5 -55.5t9 -69t2 -85.5v-723h-242v793z" />
    <glyph glyph-name="uni0136" unicode="&#x136;" horiz-adv-x="1488" 
d="M1399 -10q-305 -42 -391 51q-39 40 -61.5 108t-42 173t-32.5 151q-11 36 -19 58.5t-24.5 52t-36 47.5t-52 37.5t-74 30t-100.5 16.5t-132 4l780 715h80l-682 -621q120 8 211.5 -11.5t150 -64.5t93.5 -100t55 -127q15 -57 35 -152t37.5 -157t42.5 -105q28 -45 62.5 -61
t99.5 -12v-33zM164 1202q0 35 -6 65t-21 61.5t-47 50t-78 18.5v37h111q79 0 131.5 -12t84 -32t47.5 -60t21 -83t5 -114v-1133h-248v1202zM664 -524q45 67 45 135q0 27 -18.5 45t-40 27.5t-40 35t-18.5 64.5q0 50 33 80.5t77 30.5q52 0 82.5 -35.5t30.5 -91.5
q0 -74 -42 -164.5t-87 -137.5z" />
    <glyph glyph-name="uni0137" unicode="&#x137;" horiz-adv-x="1284" 
d="M1063 -20q-149 0 -213 77q-29 30 -56.5 83t-46.5 106t-47 109.5t-58 99.5t-80 69.5t-113 24.5l651 475h92l-584 -426q78 7 140 -14t100 -58t72.5 -93t55.5 -108t51 -113.5t58 -100.5q28 -44 62.5 -63t83.5 -21v-33q-130 -15 -168 -14zM184 1251q0 35 -6 66t-21.5 62
t-47.5 49.5t-78 19.5v39h110q65 0 111.5 -7t78 -24t50.5 -38.5t29 -59t13 -76t3 -98.5v-1184h-242v1251zM608 -535q45 67 45 136q0 22 -12 37.5t-29 25.5t-34 21t-29 33.5t-12 54.5q0 50 33 80t77 30q52 0 82.5 -35.5t30.5 -91.5q0 -74 -42 -164t-87 -137z" />
    <glyph glyph-name="Lacute" unicode="&#x139;" horiz-adv-x="1255" 
d="M539 0q-83 0 -142 7t-101 25.5t-67.5 42.5t-40 66t-19.5 88.5t-5 116.5v856q0 35 -6 65t-21 61.5t-47 50t-78 18.5v37h111q79 0 131.5 -12t84 -32t47.5 -60t21 -83t5 -114v-879q0 -114 40 -157.5t158 -43.5h193q139 0 173 9q45 12 72 57q13 23 66 147h60
q-61 -155 -79 -187q-31 -53 -80 -68q-40 -12 -181 -11h-68h-227zM274 1905q25 64 87 64q51 0 81 -38q37 -47 -4 -100q-6 -8 -14 -16l-279 -277h-18z" />
    <glyph glyph-name="lacute" unicode="&#x13a;" horiz-adv-x="745" 
d="M457 -20q-136 0 -204.5 78t-68.5 245v948q0 35 -6 66t-21.5 62t-47.5 49.5t-78 19.5v39h110q65 0 111.5 -7t78 -24t50.5 -38.5t29 -59t13 -76t3 -98.5v-953q0 -94 25 -140.5t96 -49.5q37 -2 81.5 13.5t76.5 41.5v-37q-40 -37 -106 -58t-142 -21zM246 1935q25 63 86 64
q50 1 80 -36q38 -47 -1 -100q-7 -9 -16 -18l-278 -276h-19z" />
    <glyph glyph-name="uni013B" unicode="&#x13b;" horiz-adv-x="1255" 
d="M539 0q-83 0 -142 7t-101 25.5t-67.5 42.5t-40 66t-19.5 88.5t-5 116.5v856q0 35 -6 65t-21 61.5t-47 50t-78 18.5v37h111q79 0 131.5 -12t84 -32t47.5 -60t21 -83t5 -114v-879q0 -114 40 -157.5t158 -43.5h193q139 0 173 9q45 12 72 57q13 23 66 147h60
q-61 -155 -79 -187q-31 -53 -80 -68q-40 -12 -181 -11h-68h-227zM608 -526q45 67 45 135q0 22 -12 37.5t-29 25.5t-34 21t-29 33.5t-12 54.5q0 50 33 80t77 30q52 0 82.5 -35.5t30.5 -91.5q0 -74 -42 -164t-87 -137z" />
    <glyph glyph-name="uni013C" unicode="&#x13c;" horiz-adv-x="745" 
d="M457 -20q-136 0 -204.5 78t-68.5 245v948q0 35 -6 66t-21.5 62t-47.5 49.5t-78 19.5v39h110q65 0 111.5 -7t78 -24t50.5 -38.5t29 -59t13 -76t3 -98.5v-953q0 -94 25 -140.5t96 -49.5q37 -2 81.5 13.5t76.5 41.5v-37q-40 -37 -106 -58t-142 -21zM346 -524q45 67 45 135
q0 27 -18.5 45t-40 27.5t-40 35t-18.5 64.5q0 50 33.5 80.5t77.5 30.5q52 0 82.5 -35.5t30.5 -91.5q0 -74 -42 -164.5t-87 -137.5z" />
    <glyph glyph-name="Lcaron" unicode="&#x13d;" horiz-adv-x="1255" 
d="M539 0q-83 0 -142 7t-101 25.5t-67.5 42.5t-40 66t-19.5 88.5t-5 116.5v856q0 35 -6 65t-21 61.5t-47 50t-78 18.5v37h111q79 0 131.5 -12t84 -32t47.5 -60t21 -83t5 -114v-879q0 -114 40 -157.5t158 -43.5h193q139 0 173 9q45 12 72 57q13 23 66 147h60
q-61 -155 -79 -187q-31 -53 -80 -68q-40 -12 -181 -11h-68h-227zM172 1606l-170 364h18l248 -280l246 280h18l-167 -364q-31 -64 -95 -68t-98 68z" />
    <glyph glyph-name="lcaron" unicode="&#x13e;" horiz-adv-x="745" 
d="M457 -20q-136 0 -204.5 78t-68.5 245v948q0 35 -6 66t-21.5 62t-47.5 49.5t-78 19.5v39h110q65 0 111.5 -7t78 -24t50.5 -38.5t29 -59t13 -76t3 -98.5v-953q0 -94 25 -140.5t96 -49.5q37 -2 81.5 13.5t76.5 41.5v-37q-40 -37 -106 -58t-142 -21zM152 1628l-170 365h18
l248 -281l246 281h18l-168 -365q-31 -64 -94.5 -68t-97.5 68z" />
    <glyph glyph-name="Lslash" unicode="&#x141;" horiz-adv-x="1255" 
d="M8 418l156 157v627q0 35 -6 65t-21 61.5t-47 50t-78 18.5v37h111q79 0 131.5 -12t84 -32t47.5 -60t21 -83t5 -114v-306l75 78h84l-159 -162v-489q0 -114 40 -157.5t158 -43.5h193q139 0 173 9q45 12 72 57q13 23 66 147h60q-61 -155 -79 -187q-31 -53 -80 -68
q-40 -12 -181 -11h-68h-227q-83 0 -142 7t-101 25.5t-67.5 42.5t-40 66t-19.5 88.5t-5 116.5v146l-72 -74h-84z" />
    <glyph glyph-name="lslash" unicode="&#x142;" horiz-adv-x="745" 
d="M457 -20q-136 0 -204.5 78t-68.5 245v193l-90 -88l-41 43l131 129v671q0 35 -6 66t-21.5 62t-47.5 49.5t-78 19.5v39h110q65 0 111.5 -7t78 -24t50.5 -38.5t29 -59t13 -76t3 -98.5v-369l94 92l43 -43l-137 -133v-500q0 -94 25 -140.5t96 -49.5q37 -2 81.5 13.5t76.5 41.5
v-37q-40 -37 -106 -58t-142 -21z" />
    <glyph glyph-name="Nacute" unicode="&#x143;" horiz-adv-x="1441" 
d="M164 1325q-59 72 -152 72v37h152q131 0 196 -27.5t123 -118.5l742 -1091v1237h55v-1323q59 -72 150 -72v-39h-152q-131 0 -196 27.5t-124 117.5l-739 1092v-1237h-55v1325zM827 1903q25 62 85 64q51 1 82 -37q38 -47 -1 -100q-7 -9 -16 -18l-279 -276h-18z" />
    <glyph glyph-name="nacute" unicode="&#x144;" horiz-adv-x="1310" 
d="M184 793q0 34 -6 64.5t-21.5 61.5t-47.5 49.5t-78 18.5v37h110q137 0 196.5 -33t76.5 -125q178 178 413 178q351 0 351 -372v-672h-242v633q0 61 -3.5 105t-15.5 89.5t-32.5 73.5t-57.5 46t-88 18q-83 0 -167 -37.5t-146 -108.5v-819h-242v793zM674 1511q25 63 86 64
q50 1 80 -36q38 -47 -1 -100q-7 -9 -16 -18l-278 -276h-19z" />
    <glyph glyph-name="uni0145" unicode="&#x145;" horiz-adv-x="1441" 
d="M164 1325q-59 72 -152 72v37h152q131 0 196 -27.5t123 -118.5l742 -1091v1237h55v-1323q59 -72 150 -72v-39h-152q-131 0 -196 27.5t-124 117.5l-739 1092v-1237h-55v1325zM664 -504q45 67 45 135q0 27 -18.5 45t-40 27.5t-40 35t-18.5 64.5q0 50 33 80.5t77 30.5
q52 0 82.5 -35.5t30.5 -91.5q0 -74 -42 -164t-87 -137z" />
    <glyph glyph-name="uni0146" unicode="&#x146;" horiz-adv-x="1310" 
d="M184 793q0 34 -6 64.5t-21.5 61.5t-47.5 49.5t-78 18.5v37h110q137 0 196.5 -33t76.5 -125q178 178 413 178q351 0 351 -372v-672h-242v633q0 61 -3.5 105t-15.5 89.5t-32.5 73.5t-57.5 46t-88 18q-83 0 -167 -37.5t-146 -108.5v-819h-242v793zM631 -510q45 67 45 135
q0 27 -18.5 45t-40 27.5t-40 35t-18.5 64.5q0 50 33.5 80.5t77.5 30.5q52 0 82 -35.5t30 -91.5q0 -74 -42 -164t-87 -137z" />
    <glyph glyph-name="Ncaron" unicode="&#x147;" horiz-adv-x="1441" 
d="M164 1325q-59 72 -152 72v37h152q131 0 196 -27.5t123 -118.5l742 -1091v1237h55v-1323q59 -72 150 -72v-39h-152q-131 0 -196 27.5t-124 117.5l-739 1092v-1237h-55v1325zM651 1606l-170 364h19l248 -280l245 280h19l-168 -364q-31 -64 -95 -68t-98 68z" />
    <glyph glyph-name="ncaron" unicode="&#x148;" horiz-adv-x="1310" 
d="M184 793q0 34 -6 64.5t-21.5 61.5t-47.5 49.5t-78 18.5v37h110q137 0 196.5 -33t76.5 -125q178 178 413 178q351 0 351 -372v-672h-242v633q0 61 -3.5 105t-15.5 89.5t-32.5 73.5t-57.5 46t-88 18q-83 0 -167 -37.5t-146 -108.5v-819h-242v793zM524 1214l-170 365h19
l248 -281l245 281h19l-168 -365q-31 -64 -95 -68t-98 68z" />
    <glyph glyph-name="Eng" unicode="&#x14a;" horiz-adv-x="1441" 
d="M1049 -397q37 1 65.5 9.5t46.5 20.5t31 33.5t19.5 38.5t9.5 46.5t3.5 46t0.5 48.5v140l-1006 1249v-1235h-55v1309q-32 42 -66.5 63.5t-85.5 22.5v39h183q85 0 136 -14.5t86.5 -43.5t86.5 -92l721 -907v1057h55v-1588q0 -24 -0.5 -38t-4.5 -44.5t-12 -50.5t-25 -46
t-41 -41.5t-62 -26.5t-86 -11v15z" />
    <glyph glyph-name="eng" unicode="&#x14b;" horiz-adv-x="1310" 
d="M604 -567q91 6 156 37t103 85.5t55.5 125.5t17.5 163v789q0 61 -3.5 105t-15.5 89.5t-32.5 73.5t-57.5 46t-88 18q-83 0 -167 -37.5t-146 -108.5v-819h-242v793q0 34 -6 64.5t-21.5 61.5t-47.5 49.5t-78 18.5v37h110q136 0 195.5 -32.5t77.5 -123.5q179 176 413 176
q351 0 351 -372v-778q0 -98 -30 -178.5t-82 -136.5t-125 -94t-157 -55.5t-180 -17.5v21z" />
    <glyph glyph-name="Omacron" unicode="&#x14c;" horiz-adv-x="1849" 
d="M905 -20q-127 0 -242.5 33t-210 96.5t-164 152.5t-107.5 206t-38 251q0 167 59 306t162 232.5t242.5 145t298.5 51.5q161 0 300 -51.5t240.5 -145t159.5 -232.5t58 -306t-58 -306.5t-159.5 -234t-240.5 -146.5t-300 -52zM909 33q248 0 376 178t128 508t-128 506t-376 176
q-250 0 -379 -176t-129 -506t129 -508t379 -178zM596 1591v76h666v-76h-666z" />
    <glyph glyph-name="omacron" unicode="&#x14d;" horiz-adv-x="1368" 
d="M684 -20q-255 0 -418.5 144.5t-163.5 387.5t163.5 387.5t418.5 144.5t418.5 -144.5t163.5 -387.5t-163.5 -387.5t-418.5 -144.5zM684 33q107 0 184 68.5t112.5 175t35.5 235.5q0 96 -21 181.5t-61 152.5t-104.5 106t-145.5 39t-145 -39t-103 -106.5t-59.5 -152
t-20.5 -181.5q0 -96 20.5 -181t59.5 -152t103 -106.5t145 -39.5zM362 1167v76h666v-76h-666z" />
    <glyph glyph-name="Ohungarumlaut" unicode="&#x150;" horiz-adv-x="1849" 
d="M905 -20q-127 0 -242.5 33t-210 96.5t-164 152.5t-107.5 206t-38 251q0 167 59 306t162 232.5t242.5 145t298.5 51.5q161 0 300 -51.5t240.5 -145t159.5 -232.5t58 -306t-58 -306.5t-159.5 -234t-240.5 -146.5t-300 -52zM909 33q248 0 376 178t128 508t-128 506t-376 176
q-250 0 -379 -176t-129 -506t129 -508t379 -178zM1176 1905q25 64 86 65q52 1 82 -37q38 -47 -3 -100q-7 -9 -16 -18l-278 -277h-17zM883 1905q26 64 88 65q50 1 81 -38q37 -47 -3 -100q-7 -9 -15 -17l-278 -277h-19z" />
    <glyph glyph-name="ohungarumlaut" unicode="&#x151;" horiz-adv-x="1368" 
d="M684 -20q-255 0 -418.5 144.5t-163.5 387.5t163.5 387.5t418.5 144.5t418.5 -144.5t163.5 -387.5t-163.5 -387.5t-418.5 -144.5zM684 33q107 0 184 68.5t112.5 175t35.5 235.5q0 96 -21 181.5t-61 152.5t-104.5 106t-145.5 39t-145 -39t-103 -106.5t-59.5 -152
t-20.5 -181.5q0 -96 20.5 -181t59.5 -152t103 -106.5t145 -39.5zM946 1513q25 63 86 65q51 1 82 -36q39 -46 0 -99q-8 -10 -18 -20l-279 -276h-16zM653 1513q26 64 87 65q51 1 82 -37q38 -47 -1 -100q-7 -9 -16 -18l-279 -276h-18z" />
    <glyph glyph-name="OE" unicode="&#x152;" horiz-adv-x="2473" 
d="M926 -20q-164 0 -307 52t-248.5 146t-166.5 234t-61 307t61 306t166.5 232.5t248.5 145t307 51.5q194 0 374 -102v82h607h58h96t63 -6t46 -14.5t28 -31t27.5 -49t26.5 -75.5q12 -34 19 -54h-59q-7 16 -18 45q-38 99 -68.5 115t-173.5 16h-43h-359v-612h596v-53h-596v-461
q0 -114 40 -157.5t157 -43.5h207q160 0 191 5q53 9 80 49q18 25 67 145l6 14h59q-60 -155 -77 -185q-30 -54 -78 -69q-40 -13 -180 -12h-74h-273q-150 0 -226 21.5t-108 82.5q-199 -124 -415 -124zM930 33q234 0 377 188q-7 43 -7 125v879q-138 176 -370 176
q-238 0 -383.5 -180.5t-145.5 -501.5t145.5 -503.5t383.5 -182.5z" />
    <glyph glyph-name="oe" unicode="&#x153;" horiz-adv-x="2084" 
d="M684 -20q-255 0 -418.5 144.5t-163.5 387.5t163.5 387.5t418.5 144.5q236 0 393 -129q154 129 387 129q137 1 247.5 -45t185 -150t85.5 -255h-831q-4 -54 -4 -82q0 -216 109 -340t298 -129q121 -3 222 56t143 151h53q-68 -128 -194 -199t-301 -71q-239 0 -396 131
q-159 -131 -397 -131zM684 33q99 0 168.5 61t108.5 166q-68 117 -68 252q0 137 65 254q-37 104 -106.5 164.5t-167.5 60.5q-81 0 -145 -39t-103 -106.5t-59.5 -152t-20.5 -181.5q0 -96 20.5 -181t59.5 -152t103 -106.5t145 -39.5zM1741 645q-15 161 -88 254.5t-189 93.5
q-122 0 -205.5 -100t-105.5 -260z" />
    <glyph glyph-name="Racute" unicode="&#x154;" horiz-adv-x="1480" 
d="M1427 -10q-62 -7 -109.5 -10t-108 -1.5t-109.5 17t-82 43.5q-52 43 -85 115.5t-50.5 147.5t-36.5 148.5t-58 134.5t-100 89h-276v-674h-248v1202q0 34 -6.5 65t-21.5 62t-47 49.5t-77 18.5v37h664q565 0 565 -379q0 -133 -78 -230t-248 -133q64 -16 109 -65t70.5 -117.5
t44.5 -138.5t45.5 -147t58.5 -124q32 -42 74 -58t110 -13v-39zM635 727q350 0 350 328q0 152 -83.5 238.5t-266.5 86.5h-285q40 -33 51 -90.5t11 -152.5v-410h223zM737 1907q25 64 87 64q51 0 81 -38q37 -47 -4 -100q-6 -8 -14 -16l-279 -277h-18z" />
    <glyph glyph-name="racute" unicode="&#x155;" horiz-adv-x="927" 
d="M184 793q0 34 -6 64.5t-21.5 61.5t-47.5 49.5t-78 18.5v37h110q136 0 195.5 -32.5t77.5 -123.5q86 97 205 140t247 34v-176q-34 13 -45 17.5t-46 16t-51.5 14.5t-50 8.5t-53.5 2.5t-50 -8.5t-52 -19t-46.5 -34.5t-45.5 -50v-813h-242v793zM494 1509q25 63 86 64
q50 1 80 -36q38 -47 -1 -100q-7 -9 -16 -18l-278 -276h-19z" />
    <glyph glyph-name="uni0156" unicode="&#x156;" horiz-adv-x="1480" 
d="M1427 -10q-62 -7 -109.5 -10t-108 -1.5t-109.5 17t-82 43.5q-52 43 -85 115.5t-50.5 147.5t-36.5 148.5t-58 134.5t-100 89h-276v-674h-248v1202q0 34 -6.5 65t-21.5 62t-47 49.5t-77 18.5v37h664q565 0 565 -379q0 -133 -78 -230t-248 -133q64 -16 109 -65t70.5 -117.5
t44.5 -138.5t45.5 -147t58.5 -124q32 -42 74 -58t110 -13v-39zM635 727q350 0 350 328q0 152 -83.5 238.5t-266.5 86.5h-285q40 -33 51 -90.5t11 -152.5v-410h223zM653 -504q45 67 45 135q0 22 -12 37.5t-29 25.5t-34 21t-29 33.5t-12 54.5q0 50 33 80.5t77 30.5
q52 0 82.5 -35.5t30.5 -91.5q0 -74 -42 -164t-87 -137z" />
    <glyph glyph-name="uni0157" unicode="&#x157;" horiz-adv-x="927" 
d="M184 793q0 34 -6 64.5t-21.5 61.5t-47.5 49.5t-78 18.5v37h110q136 0 195.5 -32.5t77.5 -123.5q86 97 205 140t247 34v-176q-34 13 -45 17.5t-46 16t-51.5 14.5t-50 8.5t-53.5 2.5t-50 -8.5t-52 -19t-46.5 -34.5t-45.5 -50v-813h-242v793zM264 -506q45 67 45 135
q0 22 -12 37.5t-29 25.5t-34 21t-29 33.5t-12 54.5q0 50 33 80.5t77 30.5q52 0 82.5 -35.5t30.5 -91.5q0 -74 -42 -164t-87 -137z" />
    <glyph glyph-name="Rcaron" unicode="&#x158;" horiz-adv-x="1480" 
d="M1427 -10q-62 -7 -109.5 -10t-108 -1.5t-109.5 17t-82 43.5q-52 43 -85 115.5t-50.5 147.5t-36.5 148.5t-58 134.5t-100 89h-276v-674h-248v1202q0 34 -6.5 65t-21.5 62t-47 49.5t-77 18.5v37h664q565 0 565 -379q0 -133 -78 -230t-248 -133q64 -16 109 -65t70.5 -117.5
t44.5 -138.5t45.5 -147t58.5 -124q32 -42 74 -58t110 -13v-39zM635 727q350 0 350 328q0 152 -83.5 238.5t-266.5 86.5h-285q40 -33 51 -90.5t11 -152.5v-410h223zM571 1604l-170 364h19l248 -280l245 280h19l-168 -364q-31 -64 -95 -68t-98 68z" />
    <glyph glyph-name="rcaron" unicode="&#x159;" horiz-adv-x="927" 
d="M184 793q0 34 -6 64.5t-21.5 61.5t-47.5 49.5t-78 18.5v37h110q136 0 195.5 -32.5t77.5 -123.5q86 97 205 140t247 34v-176q-34 13 -45 17.5t-46 16t-51.5 14.5t-50 8.5t-53.5 2.5t-50 -8.5t-52 -19t-46.5 -34.5t-45.5 -50v-813h-242v793zM410 1217l-170 364h18l248 -281
l246 281h18l-168 -364q-31 -64 -94.5 -68t-97.5 68z" />
    <glyph glyph-name="Sacute" unicode="&#x15a;" horiz-adv-x="1372" 
d="M674 -20q-192 0 -341 85t-190 244h56q23 -85 95.5 -148t166.5 -92.5t196 -29.5q94 0 172.5 29t129.5 90.5t51 144.5q0 61 -36 111t-94.5 83t-134 66.5t-153.5 61.5t-153.5 68t-134 84.5t-94.5 113.5t-36 153q0 95 44 174t117 129.5t164 78.5t187 28q110 0 207 -32
t171.5 -103.5t98.5 -171.5h-55q-31 119 -146.5 185.5t-252.5 66.5q-132 0 -225 -68t-93 -190q0 -57 28.5 -103.5t77.5 -80t112 -62.5t132.5 -55.5t139 -54.5t132.5 -64t112 -79t77.5 -105.5t28.5 -137.5q0 -77 -31.5 -145t-85.5 -117.5t-125 -85.5t-151.5 -53.5
t-163.5 -17.5zM713 1898q25 63 86 64q50 1 80 -36q38 -47 -1 -100q-7 -9 -16 -18l-278 -276h-19z" />
    <glyph glyph-name="sacute" unicode="&#x15b;" horiz-adv-x="1085" 
d="M530 -20q-141 0 -259.5 53t-168.5 151h56q44 -73 145 -113t217 -40q121 0 205 47t84 133q0 46 -38.5 82t-99.5 61.5t-135 50t-148 53.5t-135 65t-99.5 92.5t-38.5 127.5q0 93 62.5 163.5t157 104t204.5 33.5q131 0 240.5 -50.5t160.5 -149.5h-57q-38 72 -128 110.5
t-196 38.5q-114 0 -191.5 -44.5t-76.5 -125.5q0 -44 38.5 -79.5t99.5 -60t135 -48t147.5 -52t134.5 -64.5t99 -93t38 -129q0 -76 -38.5 -138t-103 -100t-144.5 -58.5t-167 -20.5zM598 1511q25 64 87 64q51 0 81 -38q37 -47 -4 -100q-6 -8 -14 -16l-279 -276h-18z" />
    <glyph glyph-name="Scedilla" unicode="&#x15e;" horiz-adv-x="1372" 
d="M608 -418q45 0 72.5 26.5t32.5 65.5q2 49 -34 88t-114 50l101 168q-190 2 -336 86.5t-187 242.5h56q23 -85 95.5 -148t166.5 -92.5t196 -29.5q94 0 172.5 29t129.5 90.5t51 144.5q0 61 -36 111t-94.5 83t-134 66.5t-153.5 61.5t-153.5 68t-134 84.5t-94.5 113.5t-36 153
q0 95 44 174t117 129.5t164 78.5t187 28q110 0 207 -32t171.5 -103.5t98.5 -171.5h-55q-31 119 -146.5 185.5t-252.5 66.5q-132 0 -225 -68t-93 -190q0 -57 28.5 -103.5t77.5 -80t112 -62.5t132.5 -55.5t139 -54.5t132.5 -64t112 -79t77.5 -105.5t28.5 -137.5
q0 -91 -43 -168.5t-115 -129t-163 -82.5t-191 -37l-62 -99q105 -7 155 -60.5t50 -119.5q0 -69 -46 -116t-109 -59.5t-133.5 8.5t-114.5 75l14 20q70 -49 135 -49z" />
    <glyph glyph-name="scedilla" unicode="&#x15f;" horiz-adv-x="1085" 
d="M442 -424q45 0 72.5 26.5t32.5 65.5q2 48 -34 87t-114 50l105 175q-134 5 -244.5 57.5t-157.5 146.5h56q44 -73 145 -113t217 -40q121 0 205 47t84 133q0 46 -38.5 82t-99.5 61.5t-135 50t-148 53.5t-135 65t-99.5 92.5t-38.5 127.5q0 93 62.5 163.5t157 104t204.5 33.5
q131 0 240.5 -50.5t160.5 -149.5h-57q-38 72 -128 110.5t-196 38.5q-114 0 -191.5 -44.5t-76.5 -125.5q0 -44 38.5 -79.5t99.5 -60t135 -48t147.5 -52t134.5 -64.5t99 -93t38 -129q0 -97 -62 -169.5t-156.5 -108t-207.5 -39.5l-65 -103q105 -7 154.5 -60.5t49.5 -119.5
q0 -69 -46 -116t-109 -59.5t-133.5 8.5t-114.5 75l14 20q70 -49 135 -49z" />
    <glyph glyph-name="Scaron" unicode="&#x160;" horiz-adv-x="1394" 
d="M674 -20q-192 0 -341 85t-190 244h56q23 -85 95.5 -148t166.5 -92.5t196 -29.5q94 0 172.5 29t129.5 90.5t51 144.5q0 61 -36 111t-94.5 83t-134 66.5t-153.5 61.5t-153.5 68t-134 84.5t-94.5 113.5t-36 153q0 95 44 174t117 129.5t164 78.5t187 28q110 0 207 -32
t171.5 -103.5t98.5 -171.5h-55q-31 119 -146.5 185.5t-252.5 66.5q-132 0 -225 -68t-93 -190q0 -57 28.5 -103.5t77.5 -80t112 -62.5t132.5 -55.5t139 -54.5t132.5 -64t112 -79t77.5 -105.5t28.5 -137.5q0 -77 -31.5 -145t-85.5 -117.5t-125 -85.5t-151.5 -53.5
t-163.5 -17.5zM610 1604l-170 364h19l248 -280l245 280h19l-168 -364q-31 -64 -95 -68t-98 68z" />
    <glyph glyph-name="scaron" unicode="&#x161;" horiz-adv-x="1085" 
d="M530 -20q-141 0 -259.5 53t-168.5 151h56q44 -73 145 -113t217 -40q121 0 205 47t84 133q0 46 -38.5 82t-99.5 61.5t-135 50t-148 53.5t-135 65t-99.5 92.5t-38.5 127.5q0 93 62.5 163.5t157 104t204.5 33.5q131 0 240.5 -50.5t160.5 -149.5h-57q-38 72 -128 110.5
t-196 38.5q-114 0 -191.5 -44.5t-76.5 -125.5q0 -44 38.5 -79.5t99.5 -60t135 -48t147.5 -52t134.5 -64.5t99 -93t38 -129q0 -76 -38.5 -138t-103 -100t-144.5 -58.5t-167 -20.5zM451 1214l-170 365h18l248 -281l246 281h18l-168 -365q-31 -64 -94.5 -68t-97.5 68z" />
    <glyph glyph-name="uni0162" unicode="&#x162;" horiz-adv-x="1429" 
d="M590 0v1380h-158h-35q-140 0 -169.5 -16t-67.5 -113q-12 -30 -19 -47h-59q50 138 58 154q24 49 62 63q36 14 165 13h79h537h58q169 1 205 -21t83 -156q12 -34 19 -53h-60q-7 17 -19 47q-38 97 -67.5 113t-169.5 16h-35h-159v-1380h-99l-51 -80q105 -7 155 -60.5
t50 -119.5q0 -69 -46 -116t-109.5 -59.5t-134 8.5t-114.5 75l15 20q70 -49 135 -49q45 0 72 26.5t32 65.5q2 49 -33.5 87.5t-113.5 49.5l90 152h-96z" />
    <glyph glyph-name="uni0163" unicode="&#x163;" horiz-adv-x="692" 
d="M328 -426q45 0 72 26.5t32 65.5q2 49 -33.5 87.5t-113.5 49.5l104 177q-127 5 -191.5 82.5t-64.5 240.5v666h-133v55h133v236h242v-236h229v-55h-229v-738q0 -95 24 -141t95 -49q38 -2 82.5 13.5t76.5 41.5v-37q-74 -68 -209 -77l-67 -107q105 -7 155 -60.5t50 -119.5
q0 -69 -46 -116t-109.5 -59.5t-134 8.5t-114.5 75l15 20q70 -49 135 -49z" />
    <glyph glyph-name="Tcaron" unicode="&#x164;" horiz-adv-x="1429" 
d="M590 0v1380h-158h-35q-140 0 -169.5 -16t-67.5 -113q-12 -30 -19 -47h-59q50 138 58 154q24 49 62 63q36 14 165 13h79h537h58q169 1 205 -21t83 -156q12 -34 19 -53h-60q-7 17 -19 47q-38 97 -67.5 113t-169.5 16h-35h-159v-1380h-248zM610 1602l-170 364h19l248 -280
l245 280h19l-168 -364q-31 -64 -95 -68t-98 68z" />
    <glyph glyph-name="tcaron" unicode="&#x165;" horiz-adv-x="692" 
d="M403 -20q-135 0 -202.5 78t-67.5 245v666h-133v55h133v236h242v-236h229v-55h-229v-738q0 -95 24 -141t95 -49q38 -2 82.5 13.5t76.5 41.5v-37q-89 -79 -250 -79zM156 1427l-170 365h18l248 -281l246 281h18l-168 -365q-31 -64 -94.5 -68t-97.5 68z" />
    <glyph glyph-name="Tbar" unicode="&#x166;" horiz-adv-x="1429" 
d="M590 0v647h-205v60h205v673h-158h-35q-140 0 -169.5 -16t-67.5 -113q-12 -30 -19 -47h-59q50 138 58 154q24 49 62 63q36 14 165 13h79h537h58q169 1 205 -21t83 -156q12 -34 19 -53h-60q-7 17 -19 47q-38 97 -67.5 113t-169.5 16h-35h-159v-673h200v-60h-200v-647h-248z
" />
    <glyph glyph-name="tbar" unicode="&#x167;" horiz-adv-x="692" 
d="M403 -20q-135 0 -202.5 78t-67.5 245v348h-106v35h106v283h-133v55h133v236h242v-236h229v-55h-229v-283h114v-35h-114v-420q0 -95 24 -141t95 -49q38 -2 82.5 13.5t76.5 41.5v-37q-89 -79 -250 -79z" />
    <glyph glyph-name="Umacron" unicode="&#x16a;" horiz-adv-x="1449" 
d="M752 -20q-95 0 -179 18.5t-160 62t-130.5 108.5t-86.5 165t-32 225v643q0 35 -6 65t-21 61.5t-47 50t-78 18.5v37h111q79 0 131.5 -12t84 -32t47.5 -60t21 -83t5 -114v-596q0 -135 31 -233.5t87 -153.5t125 -80t154 -25q92 -1 168 31t132.5 96t88 168t31.5 240v854h57
v-840q0 -313 -140 -464.5t-394 -149.5zM451 1595v76h665v-76h-665z" />
    <glyph glyph-name="umacron" unicode="&#x16b;" horiz-adv-x="1310" 
d="M535 -20q-351 0 -351 374v439q0 34 -6 64.5t-21.5 61.5t-47.5 49.5t-78 18.5v37h110q56 0 97.5 -5.5t72.5 -15.5t51.5 -29.5t33 -40.5t19.5 -55.5t9 -69t2 -85.5v-332q0 -61 3.5 -104.5t15 -89.5t32 -74t57 -46t87.5 -18q84 0 167.5 38t147.5 110v586q0 34 -6.5 64.5
t-22 61.5t-47.5 49.5t-78 18.5v37h111q56 0 97.5 -5.5t72.5 -15.5t51.5 -29.5t33 -40.5t19.5 -55.5t9 -69t2 -85.5v-723h-234v156q-84 -84 -190.5 -130t-218.5 -46zM326 1184v76h665v-76h-665z" />
    <glyph glyph-name="Uring" unicode="&#x16e;" horiz-adv-x="1449" 
d="M752 -20q-95 0 -179 18.5t-160 62t-130.5 108.5t-86.5 165t-32 225v643q0 35 -6 65t-21 61.5t-47 50t-78 18.5v37h111q79 0 131.5 -12t84 -32t47.5 -60t21 -83t5 -114v-596q0 -135 31 -233.5t87 -153.5t125 -80t154 -25q92 -1 168 31t132.5 96t88 168t31.5 240v854h57
v-840q0 -313 -140 -464.5t-394 -149.5zM799 1532q-88 0 -151.5 63t-63.5 152t63.5 152t151.5 63t152.5 -63t64.5 -152t-64.5 -152t-152.5 -63zM799 1587q65 0 112 47t47 113t-47 112t-112 46t-111.5 -46t-46.5 -112t46.5 -113t111.5 -47z" />
    <glyph glyph-name="uring" unicode="&#x16f;" horiz-adv-x="1310" 
d="M535 -20q-351 0 -351 374v439q0 34 -6 64.5t-21.5 61.5t-47.5 49.5t-78 18.5v37h110q56 0 97.5 -5.5t72.5 -15.5t51.5 -29.5t33 -40.5t19.5 -55.5t9 -69t2 -85.5v-332q0 -61 3.5 -104.5t15 -89.5t32 -74t57 -46t87.5 -18q84 0 167.5 38t147.5 110v586q0 34 -6.5 64.5
t-22 61.5t-47.5 49.5t-78 18.5v37h111q56 0 97.5 -5.5t72.5 -15.5t51.5 -29.5t33 -40.5t19.5 -55.5t9 -69t2 -85.5v-723h-234v156q-84 -84 -190.5 -130t-218.5 -46zM666 1143q-88 0 -151.5 63t-63.5 152t63.5 152t151.5 63t152.5 -63t64.5 -152t-64.5 -152t-152.5 -63z
M666 1198q65 0 112 47t47 113t-47 112t-112 46t-111.5 -46t-46.5 -112t46.5 -113t111.5 -47z" />
    <glyph glyph-name="Uhungarumlaut" unicode="&#x170;" horiz-adv-x="1449" 
d="M752 -20q-95 0 -179 18.5t-160 62t-130.5 108.5t-86.5 165t-32 225v643q0 35 -6 65t-21 61.5t-47 50t-78 18.5v37h111q79 0 131.5 -12t84 -32t47.5 -60t21 -83t5 -114v-596q0 -135 31 -233.5t87 -153.5t125 -80t154 -25q92 -1 168 31t132.5 96t88 168t31.5 240v854h57
v-840q0 -313 -140 -464.5t-394 -149.5zM993 1901q25 63 86 65q51 1 82 -37q38 -46 0 -99q-8 -10 -18 -20l-279 -276h-16zM700 1901q26 64 87 65q51 0 82 -38q38 -46 -1 -99q-7 -10 -16 -19l-279 -276h-18z" />
    <glyph glyph-name="uhungarumlaut" unicode="&#x171;" horiz-adv-x="1310" 
d="M535 -20q-351 0 -351 374v439q0 34 -6 64.5t-21.5 61.5t-47.5 49.5t-78 18.5v37h110q56 0 97.5 -5.5t72.5 -15.5t51.5 -29.5t33 -40.5t19.5 -55.5t9 -69t2 -85.5v-332q0 -61 3.5 -104.5t15 -89.5t32 -74t57 -46t87.5 -18q84 0 167.5 38t147.5 110v586q0 34 -6.5 64.5
t-22 61.5t-47.5 49.5t-78 18.5v37h111q56 0 97.5 -5.5t72.5 -15.5t51.5 -29.5t33 -40.5t19.5 -55.5t9 -69t2 -85.5v-723h-234v156q-84 -84 -190.5 -130t-218.5 -46zM887 1518q25 64 86 65q51 0 82 -38q38 -46 -2 -99q-7 -10 -17 -19l-278 -276h-17zM594 1518q26 64 88 65
q51 0 81 -39q37 -48 -4 -101q-6 -8 -14 -16l-278 -276h-18z" />
    <glyph glyph-name="Uogonek" unicode="&#x172;" horiz-adv-x="1449" 
d="M1024 -362q-88 -99 -207 -114q-105 -12 -166 48q-73 72 -30 203q32 95 124 205q-95 1 -178 20t-158 62.5t-128.5 109t-85 164.5t-31.5 223v643q0 35 -6 65t-21 61.5t-47 50t-78 18.5v37h111q79 0 131.5 -12t84 -32t47.5 -60t21 -83t5 -114v-596q0 -135 31 -233.5
t87 -153.5t125 -80t154 -25q92 -1 168 31t132.5 96t88 168t31.5 240v854h57v-840q0 -299 -128 -450.5t-361 -163.5q-88 -131 -45 -243q29 -75 102 -105q80 -34 150 12l8 6z" />
    <glyph glyph-name="uogonek" unicode="&#x173;" horiz-adv-x="1310" 
d="M535 -20q-351 0 -351 374v439q0 34 -6 64.5t-21.5 61.5t-47.5 49.5t-78 18.5v37h110q56 0 97.5 -5.5t72.5 -15.5t51.5 -29.5t33 -40.5t19.5 -55.5t9 -69t2 -85.5v-332q0 -61 3.5 -104.5t15 -89.5t32 -74t57 -46t87.5 -18q84 0 167.5 38t147.5 110v586q0 34 -6.5 64.5
t-22 61.5t-47.5 49.5t-78 18.5v37h111q56 0 97.5 -5.5t72.5 -15.5t51.5 -29.5t33 -40.5t19.5 -55.5t9 -69t2 -85.5v-723h-86q-96 -133 -55 -249q26 -77 99 -110q79 -35 149 8q7 4 13 9l13 -12q-88 -99 -207 -114q-104 -13 -166 47q-73 71 -31 202q33 101 135 219h-98v156
q-84 -84 -190.5 -130t-218.5 -46z" />
    <glyph glyph-name="Wcircumflex" unicode="&#x174;" horiz-adv-x="2246" 
d="M844 0q-126 0 -194.5 46.5t-106.5 160.5l-340 969q-18 52 -33 85t-39 68t-56 51.5t-73 16.5v37h162q124 0 185 -44.5t100 -158.5l346 -995l313 981q-34 88 -75.5 134t-110.5 46v37h159q124 0 184 -44.5t99 -158.5l350 -998l381 1201h59l-407 -1272q35 -64 84.5 -92.5
t122.5 -30.5v-39h-193q-125 0 -192 46.5t-107 160.5l-323 923l-312 -968q33 -64 83 -92.5t126 -30.5v-39h-192zM1073 1909q15 35 42.5 52.5t55.5 15.5t54.5 -20t40.5 -48l168 -367h-19l-246 281l-247 -281h-19z" />
    <glyph glyph-name="wcircumflex" unicode="&#x175;" horiz-adv-x="1841" 
d="M719 0q-119 3 -183 48t-100 157l-198 561q-15 40 -27.5 69t-31.5 59.5t-40 49.5t-50 31t-64 12v37h178q116 -1 177 -47t95 -156l211 -590l227 592q-34 78 -77.5 121t-112.5 43v37h178q118 -1 178.5 -47t96.5 -156l213 -588l299 791h61l-328 -864q31 -66 72.5 -93.5
t108.5 -27.5v-39h-181q-120 3 -182.5 47.5t-97.5 157.5l-201 536l-221 -587q27 -64 68.5 -89.5t111.5 -25.5v-39h-180zM874 1518q15 35 42.5 52.5t55.5 15.5t54.5 -20t40.5 -48l168 -367h-18l-246 281l-248 -281h-18z" />
    <glyph glyph-name="Ycircumflex" unicode="&#x176;" horiz-adv-x="1421" 
d="M584 0v606l-344 588q-2 3 -17.5 28.5t-18.5 30t-17.5 27t-20 28t-20.5 23t-23.5 23t-24 17t-28.5 15.5t-29.5 7.5t-34.5 3.5v37h221q47 0 82.5 -8.5t58.5 -20t46.5 -38.5t36.5 -47t39 -64q7 -11 10 -17l295 -510l456 705h68l-490 -758v-676h-245zM711 1905
q15 35 42.5 52.5t55 15.5t54 -20t40.5 -48l168 -367h-18l-246 281l-248 -281h-18z" />
    <glyph glyph-name="ycircumflex" unicode="&#x177;" horiz-adv-x="1206" 
d="M401 -512l205 479l-366 799q-20 45 -31.5 69t-32 58t-40 51t-48.5 30t-63 13v37h194q59 -1 97.5 -11t69 -37t51 -60.5t48.5 -94.5l244 -565l326 768h59l-651 -1536h-62zM580 1513q15 35 42.5 52.5t55 15.5t54 -20t40.5 -48l168 -366h-18l-246 280l-248 -280h-18z" />
    <glyph glyph-name="Ydieresis" unicode="&#x178;" horiz-adv-x="1421" 
d="M584 0v606l-344 588q-2 3 -17.5 28.5t-18.5 30t-17.5 27t-20 28t-20.5 23t-23.5 23t-24 17t-28.5 15.5t-29.5 7.5t-34.5 3.5v37h221q47 0 82.5 -8.5t58.5 -20t46.5 -38.5t36.5 -47t39 -64q7 -11 10 -17l295 -510l456 705h68l-490 -758v-676h-245zM653 1528
q-56 0 -92.5 36t-36.5 93q0 56 37 93t92 34q55 -2 91 -37t36 -90q0 -57 -36 -93t-91 -36zM993 1528q-56 0 -93.5 36.5t-37.5 92.5q0 55 37.5 90t93.5 35q53 0 90 -35t37 -90q0 -56 -37 -92.5t-90 -36.5z" />
    <glyph glyph-name="Zacute" unicode="&#x179;" horiz-adv-x="1445" 
d="M164 0l803 1380h-478q-153 0 -181 -5q-43 -8 -65 -43q-9 -16 -49 -118l-4 -10h-59q7 19 19 53q47 134 83 156t203 21h58h788l-805 -1381h445h47q157 -1 192.5 21.5t88.5 156.5q14 36 22 56h59q-7 -19 -20 -53q-50 -136 -74 -171q-32 -46 -93 -57q-40 -7 -172 -6h-57h-751
zM754 1907q25 63 86 64q50 1 80 -36q38 -47 -1 -100q-7 -9 -16 -18l-278 -277h-19z" />
    <glyph glyph-name="zacute" unicode="&#x17a;" horiz-adv-x="1232" 
d="M145 0l619 969h-291q-149 1 -177 -4q-42 -8 -63 -44q-9 -16 -49 -120h-61q49 134 58 152q24 48 65 61q36 11 171 10h68h602l-618 -969h301q141 -1 170 5q40 8 60 46q8 13 49 119h59q-6 -17 -17 -48q-19 -54 -25.5 -75.5t-27.5 -48.5t-28 -32.5t-46.5 -13.5t-63 -7.5
t-96.5 0.5h-56h-603zM700 1511q25 64 87 64q51 0 81 -38q37 -47 -4 -100q-6 -8 -14 -16l-279 -276h-18z" />
    <glyph glyph-name="Zdotaccent" unicode="&#x17b;" horiz-adv-x="1445" 
d="M164 0l803 1380h-478q-153 0 -181 -5q-43 -8 -65 -43q-9 -16 -49 -118l-4 -10h-59q7 19 19 53q47 134 83 156t203 21h58h788l-805 -1381h445h47q157 -1 192.5 21.5t88.5 156.5q14 36 22 56h59q-7 -19 -20 -53q-50 -136 -74 -171q-32 -46 -93 -57q-40 -7 -172 -6h-57h-751
zM657 1534q-56 0 -92.5 36t-36.5 91t36.5 90t92.5 35q55 0 91 -35t36 -90t-36.5 -91t-90.5 -36z" />
    <glyph glyph-name="zdotaccent" unicode="&#x17c;" horiz-adv-x="1232" 
d="M145 0l619 969h-291q-149 1 -177 -4q-42 -8 -63 -44q-9 -16 -49 -120h-61q49 134 58 152q24 48 65 61q36 11 171 10h68h602l-618 -969h301q141 -1 170 5q40 8 60 46q8 13 49 119h59q-6 -17 -17 -48q-19 -54 -25.5 -75.5t-27.5 -48.5t-28 -32.5t-46.5 -13.5t-63 -7.5
t-96.5 0.5h-56h-603zM621 1143q-56 0 -92.5 36t-36.5 91t36.5 90t92.5 35q55 0 91 -35t36 -90t-36.5 -91t-90.5 -36z" />
    <glyph glyph-name="Zcaron" unicode="&#x17d;" horiz-adv-x="1445" 
d="M164 0l803 1380h-478q-153 0 -181 -5q-43 -8 -65 -43q-9 -16 -49 -118l-4 -10h-59q7 19 19 53q47 134 83 156t203 21h58h788l-805 -1381h445h47q157 -1 192.5 21.5t88.5 156.5q14 36 22 56h59q-7 -19 -20 -53q-50 -136 -74 -171q-32 -46 -93 -57q-40 -7 -172 -6h-57h-751
zM575 1612l-169 364h18l248 -280l246 280h18l-168 -364q-31 -64 -95 -68t-98 68z" />
    <glyph glyph-name="zcaron" unicode="&#x17e;" horiz-adv-x="1232" 
d="M145 0l619 969h-291q-149 1 -177 -4q-42 -8 -63 -44q-9 -16 -49 -120h-61q49 134 58 152q24 48 65 61q36 11 171 10h68h602l-618 -969h301q141 -1 170 5q40 8 60 46q8 13 49 119h59q-6 -17 -17 -48q-19 -54 -25.5 -75.5t-27.5 -48.5t-28 -32.5t-46.5 -13.5t-63 -7.5
t-96.5 0.5h-56h-603zM520 1214l-170 365h19l247 -281l246 281h19l-168 -365q-31 -64 -95 -68t-98 68z" />
    <glyph glyph-name="florin" unicode="&#x192;" horiz-adv-x="925" 
d="M-297 -551q74 1 126.5 15t88 38t61.5 70t42.5 97t33.5 132l248 1168h-139v55h149l11 45q21 117 72.5 198t132 125t178.5 60t223 8l-8 -30q-54 0 -96.5 -7.5t-74.5 -19.5t-57 -36t-42 -48t-32.5 -65.5t-26 -79t-24.5 -97.5l-10 -53h234v-55h-248l-244 -1159
q-24 -117 -76.5 -197.5t-131.5 -124.5t-176 -60t-222 -8z" />
    <glyph glyph-name="uni0218" unicode="&#x218;" horiz-adv-x="1372" 
d="M674 -20q-192 0 -341 85t-190 244h56q23 -85 95.5 -148t166.5 -92.5t196 -29.5q94 0 172.5 29t129.5 90.5t51 144.5q0 61 -36 111t-94.5 83t-134 66.5t-153.5 61.5t-153.5 68t-134 84.5t-94.5 113.5t-36 153q0 95 44 174t117 129.5t164 78.5t187 28q110 0 207 -32
t171.5 -103.5t98.5 -171.5h-55q-31 119 -146.5 185.5t-252.5 66.5q-132 0 -225 -68t-93 -190q0 -57 28.5 -103.5t77.5 -80t112 -62.5t132.5 -55.5t139 -54.5t132.5 -64t112 -79t77.5 -105.5t28.5 -137.5q0 -77 -31.5 -145t-85.5 -117.5t-125 -85.5t-151.5 -53.5
t-163.5 -17.5zM635 -520q45 67 45 135q0 27 -18.5 45t-40 27.5t-40 35t-18.5 64.5q0 50 33.5 80.5t77.5 30.5q52 0 82 -35.5t30 -91.5q0 -74 -42 -164t-87 -137z" />
    <glyph glyph-name="uni0219" unicode="&#x219;" horiz-adv-x="1085" 
d="M530 -20q-141 0 -259.5 53t-168.5 151h56q44 -73 145 -113t217 -40q121 0 205 47t84 133q0 46 -38.5 82t-99.5 61.5t-135 50t-148 53.5t-135 65t-99.5 92.5t-38.5 127.5q0 93 62.5 163.5t157 104t204.5 33.5q131 0 240.5 -50.5t160.5 -149.5h-57q-38 72 -128 110.5
t-196 38.5q-114 0 -191.5 -44.5t-76.5 -125.5q0 -44 38.5 -79.5t99.5 -60t135 -48t147.5 -52t134.5 -64.5t99 -93t38 -129q0 -76 -38.5 -138t-103 -100t-144.5 -58.5t-167 -20.5zM504 -520q45 67 45 135q0 27 -18.5 45t-40 27.5t-40 35t-18.5 64.5q0 50 33.5 80.5t77.5 30.5
q52 0 82 -35.5t30 -91.5q0 -74 -42 -164t-87 -137z" />
    <glyph glyph-name="uni021A" unicode="&#x21a;" horiz-adv-x="1429" 
d="M590 0v1380h-158h-35q-140 0 -169.5 -16t-67.5 -113q-12 -30 -19 -47h-59q50 138 58 154q24 49 62 63q36 14 165 13h79h537h58q169 1 205 -21t83 -156q12 -34 19 -53h-60q-7 17 -19 47q-38 97 -67.5 113t-169.5 16h-35h-159v-1380h-248zM680 -502q45 67 45 135
q0 27 -18.5 45t-40 27.5t-40 35t-18.5 64.5q0 50 33.5 80.5t77.5 30.5q52 0 82 -35.5t30 -91.5q0 -74 -42 -164t-87 -137z" />
    <glyph glyph-name="uni021B" unicode="&#x21b;" horiz-adv-x="692" 
d="M403 -20q-135 0 -202.5 78t-67.5 245v666h-133v55h133v236h242v-236h229v-55h-229v-738q0 -95 24 -141t95 -49q38 -2 82.5 13.5t76.5 41.5v-37q-89 -79 -250 -79zM285 -518q45 67 45 135q0 27 -18.5 45t-40 27.5t-40 35t-18.5 64.5q0 50 33.5 80.5t77.5 30.5
q52 0 82 -35.5t30 -91.5q0 -74 -42 -164t-87 -137z" />
    <glyph glyph-name="circumflex" unicode="&#x2c6;" horiz-adv-x="737" 
d="M303 1493q15 35 42.5 52.5t55.5 15.5t54.5 -20t40.5 -48l168 -367h-19l-246 281l-247 -281h-19z" />
    <glyph glyph-name="caron" unicode="&#x2c7;" horiz-adv-x="737" 
d="M303 1196l-170 365h19l247 -281l246 281h19l-168 -365q-31 -64 -95 -68t-98 68z" />
    <glyph glyph-name="breve" unicode="&#x2d8;" horiz-adv-x="831" 
d="M444 1135q-131 0 -218 79.5t-93 245.5h25q6 -86 86.5 -129t199.5 -43q121 0 201.5 43t87.5 129h25q-6 -167 -93 -246t-221 -79z" />
    <glyph glyph-name="dotaccent" unicode="&#x2d9;" horiz-adv-x="460" 
d="M262 1130q-56 0 -92.5 36t-36.5 91t36.5 90t92.5 35q55 0 91 -35t36 -90t-36.5 -91t-90.5 -36z" />
    <glyph glyph-name="ring" unicode="&#x2da;" horiz-adv-x="634" 
d="M348 1116q-88 0 -151.5 63t-63.5 152t63.5 152t151.5 63t152.5 -63t64.5 -152t-64.5 -152t-152.5 -63zM348 1171q65 0 112.5 47t47.5 113q0 65 -47.5 111.5t-112.5 46.5t-111.5 -46t-46.5 -112t46.5 -113t111.5 -47z" />
    <glyph glyph-name="ogonek" unicode="&#x2db;" horiz-adv-x="620" 
d="M551 -336q-88 -99 -207 -114q-104 -13 -165 47q-74 72 -31 203q37 113 159 247l27 -24q-98 -134 -57 -252q26 -77 99 -111q79 -36 149 6l14 10z" />
    <glyph glyph-name="tilde" unicode="&#x2dc;" horiz-adv-x="903" 
d="M678 1137q-72 0 -218.5 49t-193.5 49q-53 0 -78.5 -17t-25.5 -59h-27q-7 128 34.5 179t117.5 51q69 0 215 -49.5t198 -49.5q105 0 105 76h26q6 -116 -37 -172.5t-116 -56.5z" />
    <glyph glyph-name="hungarumlaut" unicode="&#x2dd;" horiz-adv-x="831" 
d="M571 1493q25 63 86 65q51 1 82 -36q39 -46 0 -99q-8 -10 -18 -20l-279 -277h-16zM279 1493q26 64 88 65q50 1 81 -38q37 -47 -3 -100q-7 -9 -15 -17l-278 -277h-19z" />
    <glyph glyph-name="gravecomb" unicode="&#x300;" 
d="M168 1403q-54 54 -24 106q23 40 73 47q61 8 94 -46q4 -8 8 -17l148 -367h-18z" />
    <glyph glyph-name="acutecomb" unicode="&#x301;" 
d="M281 1493q25 63 86 64q50 1 80 -36q38 -47 -1 -100q-7 -9 -16 -18l-278 -277h-19z" />
    <glyph glyph-name="uni0302" unicode="&#x302;" 
d="M303 1493q15 35 42.5 52.5t55.5 15.5t54.5 -20t40.5 -48l168 -367h-19l-246 281l-247 -281h-19z" />
    <glyph glyph-name="tildecomb" unicode="&#x303;" 
d="M678 1137q-72 0 -218.5 49t-193.5 49q-53 0 -78.5 -17t-25.5 -59h-27q-7 128 34.5 179t117.5 51q69 0 215 -49.5t198 -49.5q105 0 105 76h26q6 -116 -37 -172.5t-116 -56.5z" />
    <glyph glyph-name="uni0304" unicode="&#x304;" 
d="M133 1184v76h666v-76h-666z" />
    <glyph glyph-name="uni0306" unicode="&#x306;" 
d="M444 1135q-131 0 -218 79.5t-93 245.5h25q6 -86 86.5 -129t199.5 -43q121 0 201.5 43t87.5 129h25q-6 -167 -93 -246t-221 -79z" />
    <glyph glyph-name="uni0307" unicode="&#x307;" 
d="M262 1130q-56 0 -92.5 36t-36.5 91t36.5 90t92.5 35q55 0 91 -35t36 -90t-36.5 -91t-90.5 -36z" />
    <glyph glyph-name="uni0308" unicode="&#x308;" 
d="M262 1128q-56 0 -92.5 36t-36.5 93q0 56 37 93t92 34q55 -2 91 -37t36 -90q0 -57 -36.5 -93t-90.5 -36zM602 1128q-56 0 -93.5 36.5t-37.5 92.5q0 55 37.5 90t93.5 35q53 0 90 -35t37 -90q0 -56 -37 -92.5t-90 -36.5z" />
    <glyph glyph-name="uni030A" unicode="&#x30a;" 
d="M348 1116q-88 0 -151.5 63t-63.5 152t63.5 152t151.5 63t152.5 -63t64.5 -152t-64.5 -152t-152.5 -63zM348 1171q65 0 112.5 47t47.5 113q0 65 -47.5 111.5t-112.5 46.5t-111.5 -46t-46.5 -112t46.5 -113t111.5 -47z" />
    <glyph glyph-name="uni030B" unicode="&#x30b;" 
d="M571 1493q25 63 86 65q51 1 82 -36q39 -46 0 -99q-8 -10 -18 -20l-279 -277h-16zM279 1493q26 64 88 65q50 1 81 -38q37 -47 -3 -100q-7 -9 -15 -17l-278 -277h-19z" />
    <glyph glyph-name="uni030C" unicode="&#x30c;" 
d="M303 1196l-170 365h19l247 -281l246 281h19l-168 -365q-31 -64 -95 -68t-98 68z" />
    <glyph glyph-name="uni0312" unicode="&#x312;" 
d="M248 1126q-53 0 -84 35.5t-31 93.5q0 74 42 162t89 135l23 -8q-47 -66 -47 -133q0 -22 12 -37.5t29 -25t34 -21t29 -34.5t12 -56q0 -50 -32 -80.5t-76 -30.5z" />
    <glyph glyph-name="uni0326" unicode="&#x326;" 
d="M205 -549q45 67 45 135q0 27 -18.5 45t-40 27.5t-40 35t-18.5 64.5q0 50 33.5 80.5t77.5 30.5q52 0 82 -35.5t30 -91.5q0 -74 -42 -164t-87 -137z" />
    <glyph glyph-name="uni0327" unicode="&#x327;" 
d="M283 -401q45 0 72 26.5t32 65.5q2 49 -33.5 87.5t-113.5 49.5l116 197h56l-80 -125q105 -7 155 -61t50 -120q0 -69 -46 -116t-109.5 -59.5t-134 8.5t-114.5 75l14 21q70 -49 136 -49z" />
    <glyph glyph-name="uni0328" unicode="&#x328;" 
d="M551 -336q-88 -99 -207 -114q-104 -13 -165 47q-74 72 -31 203q37 113 159 247l27 -24q-98 -134 -57 -252q26 -77 99 -111q79 -36 149 6l14 10z" />
    <glyph glyph-name="uni0335" unicode="&#x335;" 
d="M133 571v60h653v-60h-653z" />
    <glyph glyph-name="uni0336" unicode="&#x336;" 
d="M133 571v60h746v-60h-746z" />
    <glyph glyph-name="uni0337" unicode="&#x337;" 
d="M133 -31l565 690h72l-565 -690h-72z" />
    <glyph glyph-name="uni0338" unicode="&#x338;" 
d="M133 -59l983 1267h76l-987 -1267h-72z" />
    <glyph glyph-name="uni03BC" unicode="&#x3bc;" horiz-adv-x="1308" 
d="M256 793q0 34 -6.5 64.5t-22 61.5t-47.5 49.5t-78 18.5v37h109q56 0 98 -5.5t73 -15.5t51.5 -29.5t33 -40.5t19 -56t8.5 -68.5t2 -85.5v-332q0 -61 3.5 -104.5t15 -89.5t32.5 -74t57.5 -46t87.5 -18q84 0 167 38t149 110v586q0 34 -6.5 64.5t-22 61.5t-47.5 49.5
t-78 18.5v37h109q66 0 112 -6.5t78 -24t50.5 -38t28 -58.5t12.5 -75.5t3 -98.5v-723h-231v156q-77 -77 -177 -123.5t-202 -50.5q-89 -3 -141 32v-587h-240v1366z" />
    <glyph glyph-name="Wgrave" unicode="&#x1e80;" horiz-adv-x="2246" 
d="M844 0q-126 0 -194.5 46.5t-106.5 160.5l-340 969q-18 52 -33 85t-39 68t-56 51.5t-73 16.5v37h162q124 0 185 -44.5t100 -158.5l346 -995l313 981q-34 88 -75.5 134t-110.5 46v37h159q124 0 184 -44.5t99 -158.5l350 -998l381 1201h59l-407 -1272q35 -64 84.5 -92.5
t122.5 -30.5v-39h-193q-125 0 -192 46.5t-107 160.5l-323 923l-312 -968q33 -64 83 -92.5t126 -30.5v-39h-192zM915 1815q-55 55 -23 108q24 40 75 45q61 7 92 -48q5 -7 8 -15l147 -367h-18z" />
    <glyph glyph-name="wgrave" unicode="&#x1e81;" horiz-adv-x="1841" 
d="M719 0q-119 3 -183 48t-100 157l-198 561q-15 40 -27.5 69t-31.5 59.5t-40 49.5t-50 31t-64 12v37h178q116 -1 177 -47t95 -156l211 -590l227 592q-34 78 -77.5 121t-112.5 43v37h178q118 -1 178.5 -47t96.5 -156l213 -588l299 791h61l-328 -864q31 -66 72.5 -93.5
t108.5 -27.5v-39h-181q-120 3 -182.5 47.5t-97.5 157.5l-201 536l-221 -587q27 -64 68.5 -89.5t111.5 -25.5v-39h-180zM737 1423q-55 55 -23 108q24 40 75 45q61 7 92 -48q5 -7 8 -15l147 -366h-18z" />
    <glyph glyph-name="Wacute" unicode="&#x1e82;" horiz-adv-x="2246" 
d="M844 0q-126 0 -194.5 46.5t-106.5 160.5l-340 969q-18 52 -33 85t-39 68t-56 51.5t-73 16.5v37h162q124 0 185 -44.5t100 -158.5l346 -995l313 981q-34 88 -75.5 134t-110.5 46v37h159q124 0 184 -44.5t99 -158.5l350 -998l381 1201h59l-407 -1272q35 -64 84.5 -92.5
t122.5 -30.5v-39h-193q-125 0 -192 46.5t-107 160.5l-323 923l-312 -968q33 -64 83 -92.5t126 -30.5v-39h-192zM1210 1909q25 64 87 64q51 0 81 -38q37 -47 -4 -100q-6 -8 -14 -16l-279 -277h-18z" />
    <glyph glyph-name="wacute" unicode="&#x1e83;" horiz-adv-x="1841" 
d="M719 0q-119 3 -183 48t-100 157l-198 561q-15 40 -27.5 69t-31.5 59.5t-40 49.5t-50 31t-64 12v37h178q116 -1 177 -47t95 -156l211 -590l227 592q-34 78 -77.5 121t-112.5 43v37h178q118 -1 178.5 -47t96.5 -156l213 -588l299 791h61l-328 -864q31 -66 72.5 -93.5
t108.5 -27.5v-39h-181q-120 3 -182.5 47.5t-97.5 157.5l-201 536l-221 -587q27 -64 68.5 -89.5t111.5 -25.5v-39h-180zM975 1509q25 63 86 64q50 1 80 -36q38 -47 -1 -100q-7 -9 -16 -18l-278 -276h-19z" />
    <glyph glyph-name="Wdieresis" unicode="&#x1e84;" horiz-adv-x="2246" 
d="M844 0q-126 0 -194.5 46.5t-106.5 160.5l-340 969q-18 52 -33 85t-39 68t-56 51.5t-73 16.5v37h162q124 0 185 -44.5t100 -158.5l346 -995l313 981q-34 88 -75.5 134t-110.5 46v37h159q124 0 184 -44.5t99 -158.5l350 -998l381 1201h59l-407 -1272q35 -64 84.5 -92.5
t122.5 -30.5v-39h-193q-125 0 -192 46.5t-107 160.5l-323 923l-312 -968q33 -64 83 -92.5t126 -30.5v-39h-192zM1006 1538q-56 0 -92.5 36t-36.5 93q0 56 37 93t92 34q55 -2 91 -37t36 -90q0 -57 -36.5 -93t-90.5 -36zM1346 1538q-56 0 -94 36.5t-38 92.5q0 55 38 90t94 35
q53 0 90 -35t37 -90q0 -56 -37 -92.5t-90 -36.5z" />
    <glyph glyph-name="wdieresis" unicode="&#x1e85;" horiz-adv-x="1841" 
d="M719 0q-119 3 -183 48t-100 157l-198 561q-15 40 -27.5 69t-31.5 59.5t-40 49.5t-50 31t-64 12v37h178q116 -1 177 -47t95 -156l211 -590l227 592q-34 78 -77.5 121t-112.5 43v37h178q118 -1 178.5 -47t96.5 -156l213 -588l299 791h61l-328 -864q31 -66 72.5 -93.5
t108.5 -27.5v-39h-181q-120 3 -182.5 47.5t-97.5 157.5l-201 536l-221 -587q27 -64 68.5 -89.5t111.5 -25.5v-39h-180zM801 1151q-56 0 -92.5 36t-36.5 93q0 56 37 93t92 34q55 -2 91 -37t36 -90q0 -56 -36 -92.5t-91 -36.5zM1141 1151q-56 0 -93.5 36.5t-37.5 92.5
q0 55 37.5 90t93.5 35q53 0 90 -35t37 -90q0 -56 -37 -92.5t-90 -36.5z" />
    <glyph glyph-name="Ygrave" unicode="&#x1ef2;" horiz-adv-x="1421" 
d="M584 0v606l-344 588q-2 3 -17.5 28.5t-18.5 30t-17.5 27t-20 28t-20.5 23t-23.5 23t-24 17t-28.5 15.5t-29.5 7.5t-34.5 3.5v37h221q47 0 82.5 -8.5t58.5 -20t46.5 -38.5t36.5 -47t39 -64q7 -11 10 -17l295 -510l456 705h68l-490 -758v-676h-245zM530 1810
q-55 55 -23 108q24 40 75 46q61 7 92 -48q5 -7 8 -15l147 -367h-18z" />
    <glyph glyph-name="ygrave" unicode="&#x1ef3;" horiz-adv-x="1206" 
d="M401 -512l205 479l-366 799q-20 45 -31.5 69t-32 58t-40 51t-48.5 30t-63 13v37h194q59 -1 97.5 -11t69 -37t51 -60.5t48.5 -94.5l244 -565l326 768h59l-651 -1536h-62zM446 1423q-55 55 -23 108q24 40 75 45q61 7 92 -48q5 -7 8 -15l147 -366h-18z" />
    <glyph glyph-name="endash" unicode="&#x2013;" horiz-adv-x="1144" 
d="M102 567v58h981v-58h-981z" />
    <glyph glyph-name="emdash" unicode="&#x2014;" horiz-adv-x="1861" 
d="M102 567v58h1698v-58h-1698z" />
    <glyph glyph-name="quoteleft" unicode="&#x2018;" horiz-adv-x="387" 
d="M215 1081q-52 0 -82.5 35.5t-30.5 91.5q0 73 42 161.5t87 135.5l25 -8q-20 -25 -32.5 -62t-12.5 -71q0 -27 18 -45t39.5 -27.5t39.5 -35t18 -66.5q0 -50 -33.5 -79.5t-77.5 -29.5z" />
    <glyph glyph-name="quoteright" unicode="&#x2019;" horiz-adv-x="387" 
d="M172 1036q47 57 47 135q0 26 -18.5 44t-40 28t-40 36t-18.5 67q0 49 32.5 78.5t76.5 29.5q53 0 84 -35t31 -92q0 -74 -42.5 -163.5t-88.5 -135.5z" />
    <glyph glyph-name="quotesinglbase" unicode="&#x201a;" horiz-adv-x="387" 
d="M172 -229q47 60 47 137q0 26 -18.5 44t-40 27.5t-40 35t-18.5 65.5q0 49 32.5 78.5t76.5 29.5q53 0 84 -35t31 -92q0 -73 -42.5 -163t-88.5 -136z" />
    <glyph glyph-name="quotedblleft" unicode="&#x201c;" horiz-adv-x="679" 
d="M508 1081q-52 0 -82.5 35.5t-30.5 91.5q0 73 42 161.5t87 135.5l25 -8q-20 -25 -33.5 -62.5t-13.5 -70.5q0 -22 12 -37.5t29 -25t34 -21t29 -34.5t12 -56q0 -50 -33 -79.5t-77 -29.5zM215 1081q-52 0 -82.5 35.5t-30.5 91.5q0 73 42 161.5t87 135.5l25 -8
q-20 -25 -32.5 -62t-12.5 -71q0 -27 18 -45t39.5 -27.5t39.5 -35t18 -66.5q0 -50 -33.5 -79.5t-77.5 -29.5z" />
    <glyph glyph-name="quotedblright" unicode="&#x201d;" horiz-adv-x="679" 
d="M465 1036q47 61 47 135q0 26 -18.5 44t-40 28t-40 36t-18.5 67q0 49 32.5 78.5t76.5 29.5q52 0 83 -35.5t31 -91.5q0 -74 -42.5 -163.5t-88.5 -135.5zM172 1036q47 57 47 135q0 26 -18.5 44t-40 28t-40 36t-18.5 67q0 49 32.5 78.5t76.5 29.5q53 0 84 -35t31 -92
q0 -74 -42.5 -163.5t-88.5 -135.5z" />
    <glyph glyph-name="quotedblbase" unicode="&#x201e;" horiz-adv-x="679" 
d="M465 -229q47 64 47 137q0 26 -18.5 44t-40 27.5t-40 35t-18.5 65.5q0 49 32.5 78.5t76.5 29.5q52 0 83 -35.5t31 -91.5q0 -73 -42.5 -163t-88.5 -136zM172 -229q47 60 47 137q0 26 -18.5 44t-40 27.5t-40 35t-18.5 65.5q0 49 32.5 78.5t76.5 29.5q53 0 84 -35t31 -92
q0 -73 -42.5 -163t-88.5 -136z" />
    <glyph glyph-name="dagger" unicode="&#x2020;" horiz-adv-x="659" 
d="M344 2l-49 932l47 237q-62 -3 -105.5 -22t-73.5 -36t-61 -17v174q31 0 61 -17t73.5 -36.5t105.5 -22.5q-3 62 -23.5 105.5t-38.5 73.5t-18 61h174q0 -31 -18 -60.5t-37.5 -73t-22.5 -106.5q62 3 105.5 22.5t73.5 36.5t61 17v-174q-31 0 -61 17t-73.5 36t-105.5 22
l50 -237l-52 -932h-12z" />
    <glyph glyph-name="daggerdbl" unicode="&#x2021;" horiz-adv-x="659" 
d="M262 -55q0 31 18 60.5t38.5 73t23.5 105.5q-62 -3 -105 -22t-73 -36t-62 -17v174q32 0 62 -17t73 -37t105 -24q-4 69 -18.5 112t-26.5 68.5t-12 56.5l55 250l-55 248q0 31 12 56.5t26.5 69t18.5 112.5q-62 -4 -105 -23.5t-73 -36t-62 -16.5v174q32 0 62 -17.5t73 -36.5
t105 -22q-3 62 -23.5 105t-38.5 72t-18 59h174q0 -30 -18 -59t-37.5 -72t-22.5 -105q62 3 105.5 22t73.5 36.5t61 17.5v-174q-31 0 -61 16.5t-73.5 36t-105.5 23.5q4 -69 19 -112.5t27 -69t12 -56.5l-60 -248l60 -250q0 -31 -12 -57t-27 -69t-19 -111q62 4 105.5 24t73.5 37
t61 17v-174q-31 0 -61 17t-73.5 36t-105.5 22q2 -50 14.5 -88.5t26.5 -57.5t25.5 -43.5t11.5 -49.5h-174z" />
    <glyph glyph-name="bullet" unicode="&#x2022;" horiz-adv-x="745" 
d="M395 393q-120 0 -206.5 86.5t-86.5 206.5t86.5 205.5t206.5 85.5t204.5 -85.5t84.5 -205.5t-84.5 -206.5t-204.5 -86.5z" />
    <glyph glyph-name="ellipsis" unicode="&#x2026;" horiz-adv-x="1087" 
d="M915 -20q-48 0 -80 31.5t-32 80.5q0 45 32.5 78t79.5 33q45 0 78 -33t33 -78q0 -49 -32 -80.5t-79 -31.5zM215 -20q-47 0 -80 31.5t-33 80.5q0 44 33.5 77.5t79.5 33.5q44 0 77.5 -33.5t33.5 -77.5q0 -48 -33 -80t-78 -32zM567 -23q-48 0 -81 33t-33 82q0 44 33.5 76.5
t80.5 32.5q45 0 77 -32t32 -77q0 -49 -31.5 -82t-77.5 -33z" />
    <glyph glyph-name="perthousand" unicode="&#x2030;" horiz-adv-x="2082" 
d="M209 0l1016 1434h63l-1014 -1434h-65zM1024 -18q-134 0 -223.5 89.5t-89.5 219.5q0 129 89.5 218t223.5 89t222.5 -89t88.5 -218q0 -130 -88.5 -219.5t-222.5 -89.5zM1026 18q59 0 100 78.5t41 194.5q0 117 -41 194.5t-100 77.5t-100 -77.5t-41 -194.5q0 -116 41 -194.5
t100 -78.5zM416 838q-134 0 -224 89.5t-90 219.5q0 129 90 218t224 89q132 0 221.5 -89t89.5 -218q0 -130 -89 -219.5t-222 -89.5zM418 874q59 0 100 78.5t41 194.5q0 117 -41 194.5t-100 77.5t-100.5 -77.5t-41.5 -194.5q0 -116 41.5 -194.5t100.5 -78.5zM1710 -18
q-134 0 -223.5 89.5t-89.5 219.5q0 129 89.5 218t223.5 89q131 0 221 -89.5t90 -217.5q0 -129 -89.5 -219t-221.5 -90zM1712 18q58 0 99.5 79t41.5 194q0 117 -41.5 194.5t-99.5 77.5t-99.5 -77.5t-41.5 -194.5q0 -115 41.5 -194t99.5 -79z" />
    <glyph glyph-name="guilsinglleft" unicode="&#x2039;" horiz-adv-x="817" 
d="M756 88l-654 457l654 459v-109l-496 -350l496 -350v-107z" />
    <glyph glyph-name="guilsinglright" unicode="&#x203a;" horiz-adv-x="817" 
d="M102 88v107l498 350l-498 350v109l654 -459z" />
    <glyph glyph-name="fraction" unicode="&#x2044;" horiz-adv-x="1460" 
d="M178 -240l1045 1694h73l-1044 -1694h-74z" />
    <glyph glyph-name="uni2070" unicode="&#x2070;" horiz-adv-x="1077" 
d="M569 545q-96 0 -179.5 37t-144.5 103.5t-96.5 167t-35.5 220.5q0 238 129.5 381t326.5 143t327 -143t130 -381q0 -241 -129.5 -384.5t-327.5 -143.5zM571 594q113 0 193 131t80 348q0 214 -80 344.5t-193 130.5t-192.5 -130t-79.5 -345q0 -217 79.5 -348t192.5 -131z" />
    <glyph glyph-name="uni2074" unicode="&#x2074;" horiz-adv-x="866" 
d="M541 551v293h-428l505 747h107v-698h117l-23 -49h-94v-293h-184zM201 893h340v500z" />
    <glyph glyph-name="uni2075" unicode="&#x2075;" horiz-adv-x="892" 
d="M455 545q-125 0 -212 59.5t-112 161.5h25q24 -82 95 -128t163 -46q125 0 192.5 84t67.5 207q0 141 -73 222t-189 81q-117 0 -254 -107l61 506h572l-48 -129h-497l-37 -293q125 76 258 76q101 0 185.5 -38.5t137 -115t52.5 -176.5q0 -166 -112 -265t-275 -99z" />
    <glyph glyph-name="uni2076" unicode="&#x2076;" horiz-adv-x="901" 
d="M487 543q-112 0 -199.5 63.5t-132 168.5t-42.5 229q3 131 50 242.5t122.5 185.5t169.5 117.5t194 49.5v-16q-148 -18 -240 -151t-116 -334q37 67 95 105.5t119.5 45t124.5 -14.5t111.5 -64.5t78.5 -114.5t28 -156q-2 -145 -103 -250.5t-260 -105.5zM487 584
q93 0 144.5 82.5t54.5 226.5q1 85 -20.5 150t-56.5 99.5t-80 45.5t-89 -4.5t-86 -59.5t-69 -110v-27q-2 -178 52.5 -290.5t149.5 -112.5z" />
    <glyph glyph-name="uni2077" unicode="&#x2077;" horiz-adv-x="743" 
d="M176 561q90 428 408 895h-543l43 129h608q-148 -269 -223 -510.5t-92 -513.5h-201z" />
    <glyph glyph-name="uni2078" unicode="&#x2078;" horiz-adv-x="890" 
d="M463 539q-92 0 -170 25t-129 79t-51 129q0 170 229 315q-85 66 -132.5 128.5t-47.5 132.5q0 79 46.5 136.5t115.5 83t149 25.5q117 0 201 -55t84 -154q0 -146 -187 -264q62 -42 100 -71t82 -71.5t65.5 -86.5t21.5 -92q0 -83 -56.5 -144t-140 -88.5t-180.5 -27.5zM432 590
q101 0 172.5 44t71.5 124q0 26 -13.5 53t-31.5 48.5t-53 50.5t-59.5 47.5t-71.5 51.5t-70 50q-85 -43 -151 -118.5t-66 -154.5q0 -92 81.5 -144t190.5 -52zM539 1143q174 103 174 233q0 80 -60 124t-141 44q-77 0 -132.5 -41.5t-55.5 -116.5q0 -32 15.5 -62.5t53 -65t63 -54
t83.5 -61.5z" />
    <glyph glyph-name="uni2079" unicode="&#x2079;" horiz-adv-x="901" 
d="M315 555q147 18 241.5 146.5t121.5 322.5q-41 -63 -101 -99t-122.5 -41.5t-125 16t-110.5 64.5t-77.5 113t-28.5 154q2 91 46.5 171.5t129.5 132.5t190 52q110 0 197 -65t131.5 -168t42.5 -219q-2 -131 -48.5 -244t-122 -189t-170 -121.5t-194.5 -52.5v27zM688 1143
q0 177 -56.5 287t-152.5 110q-95 0 -150 -81t-57 -222q-2 -81 19.5 -144t56.5 -97.5t81.5 -46t92.5 2.5t90.5 57t75.5 109v25z" />
    <glyph glyph-name="uni2080" unicode="&#x2080;" horiz-adv-x="1077" 
d="M569 -225q-96 0 -179.5 37t-144.5 103.5t-96.5 167t-35.5 220.5q0 238 129.5 381t326.5 143t327 -143t130 -381q0 -241 -129.5 -384.5t-327.5 -143.5zM571 -176q113 0 193 131t80 348q0 214 -80 344.5t-193 130.5t-192.5 -130t-79.5 -345q0 -217 79.5 -348t192.5 -131z
" />
    <glyph glyph-name="uni2081" unicode="&#x2081;" horiz-adv-x="585" 
d="M215 -221v848l-72 2v14l240 176h16v-1040h-184z" />
    <glyph glyph-name="uni2082" unicode="&#x2082;" horiz-adv-x="817" 
d="M117 -190q99 78 182 160t151.5 173.5t107 189t38.5 189.5q0 122 -66.5 188t-158.5 66q-97 0 -164.5 -61t-67.5 -170h-28q-1 138 94.5 214.5t228.5 76.5q87 0 162.5 -33.5t125.5 -104.5t50 -166q0 -56 -20 -113.5t-60 -113t-82.5 -104t-104.5 -102.5t-108.5 -91.5
t-111.5 -85.5h485l-45 -125h-608v13z" />
    <glyph glyph-name="uni2083" unicode="&#x2083;" horiz-adv-x="874" 
d="M440 -219q-122 0 -206 54.5t-115 150.5h24q65 -156 256 -156q122 0 192.5 81.5t70.5 192.5q0 99 -55 167.5t-156 88.5v15q66 32 102.5 91.5t36.5 131.5q0 87 -55.5 135.5t-133.5 48.5q-91 0 -158 -57.5t-67 -155.5h-22q1 86 46 147t110 88t141 27q120 0 202 -60t82 -169
q0 -71 -48 -127t-136 -80q137 -23 204.5 -103t67.5 -186q0 -141 -107 -233t-276 -92z" />
    <glyph glyph-name="uni2084" unicode="&#x2084;" horiz-adv-x="866" 
d="M541 -201v293h-428l505 748h107v-699h117l-23 -49h-94v-293h-184zM201 141h340v500z" />
    <glyph glyph-name="uni2085" unicode="&#x2085;" horiz-adv-x="892" 
d="M455 -205q-125 0 -212 58.5t-112 160.5h25q24 -82 95 -128t163 -46q125 0 192.5 84t67.5 207q0 142 -73 222.5t-189 80.5q-119 0 -254 -106l61 508h572l-48 -131h-497l-37 -293q127 77 258 77q101 0 185.5 -39t137 -115.5t52.5 -176.5q0 -166 -112 -264.5t-275 -98.5z
" />
    <glyph glyph-name="uni2086" unicode="&#x2086;" horiz-adv-x="901" 
d="M487 -201q-112 0 -199.5 63t-132 167t-42.5 227q3 132 50 244t122.5 185.5t169.5 117t194 49.5v-18q-148 -18 -240 -150t-116 -332q37 66 95 104.5t119.5 45.5t124.5 -13.5t111.5 -63.5t78.5 -113.5t28 -155.5q-2 -146 -103 -251.5t-260 -105.5zM487 -162q93 0 144.5 84
t54.5 228q1 85 -20.5 149.5t-56.5 99.5t-80 45.5t-89 -5t-86 -59.5t-69 -110v-26q-2 -180 52.5 -293t149.5 -113z" />
    <glyph glyph-name="uni2087" unicode="&#x2087;" horiz-adv-x="743" 
d="M176 -184q89 424 408 895h-543l43 129h608q-148 -269 -223 -510.5t-92 -513.5h-201z" />
    <glyph glyph-name="uni2088" unicode="&#x2088;" horiz-adv-x="890" 
d="M463 -193q-144 0 -247 61.5t-103 170.5q0 170 229 315q-85 66 -132.5 128.5t-47.5 131.5q0 79 46.5 136.5t115.5 83.5t149 26q75 0 138.5 -23t105 -71.5t41.5 -114.5q0 -144 -187 -262q52 -36 80.5 -57t70 -57t63.5 -64.5t38.5 -67t16.5 -77.5q0 -82 -56.5 -142.5
t-140 -88.5t-180.5 -28zM432 -143q101 0 172.5 44.5t71.5 123.5q0 31 -15 61t-52.5 65t-62.5 55t-86.5 63.5t-82.5 58.5q-86 -45 -151.5 -119.5t-65.5 -153.5q0 -64 41 -110.5t101 -67t130 -20.5zM539 412q174 99 174 233q0 78 -60.5 123t-140.5 45q-77 0 -132.5 -41.5
t-55.5 -116.5q0 -27 13 -54t29.5 -48t50.5 -49.5t56 -44.5t66 -47z" />
    <glyph glyph-name="uni2089" unicode="&#x2089;" horiz-adv-x="901" 
d="M315 -150q147 18 241.5 145t121.5 320q-41 -63 -101 -98.5t-122.5 -41t-125 16t-110.5 64.5t-77.5 113.5t-28.5 154.5q2 91 46.5 172t129.5 133t190 52q110 0 197 -65t131.5 -168t42.5 -220q-2 -131 -49 -244t-122 -189t-169.5 -122t-194.5 -53v30zM688 436
q0 179 -56.5 288.5t-152.5 109.5q-95 0 -150 -81.5t-57 -222.5q-2 -82 19.5 -145t56.5 -97.5t81.5 -46t92.5 3t90.5 57t75.5 108.5v26z" />
    <glyph glyph-name="Euro" unicode="&#x20ac;" horiz-adv-x="1738" 
d="M1081 -20q-133 1 -257 41t-225.5 114t-172 190t-92.5 259h-232l25 57h203q-4 50 -4 78q0 29 4 69h-228l25 58h207q17 117 66 216.5t120.5 171t161.5 122.5t191 76t208 26q190 0 347 -77.5t249 -254.5h-51q-44 75 -103.5 130t-124 85t-127 43.5t-126.5 12.5
q-227 -3 -375.5 -149t-177.5 -402h346l-27 -58h-323q-4 -40 -4 -69q0 -28 4 -78h350l-27 -57h-319q31 -252 179 -396t374 -147q87 -1 169 21.5t168 85.5t144 161h51q-47 -91 -115 -157t-148 -102.5t-161.5 -53t-171.5 -16.5z" />
    <glyph glyph-name="trademark" unicode="&#x2122;" horiz-adv-x="1478" 
d="M735 1024v645h109l233 -539l244 539h96v-645h-96v522l-234 -522h-67l-236 539v-539h-49zM311 1024v598h-209v47h512v-47h-204v-598h-99z" />
    <glyph glyph-name="oneeighth" unicode="&#x215b;" horiz-adv-x="1941" 
d="M276 -205l1045 1802h74l-1045 -1802h-74zM1354 -244q101 0 173 44t72 124q0 30 -15.5 60t-52 63.5t-64 55t-85.5 63t-82 59.5q-87 -42 -152 -117t-65 -155q0 -62 40.5 -108.5t101 -67.5t129.5 -21zM246 629v848l-72 2v14l240 176h16v-1040h-184zM1384 -295q-92 0 -170 25
t-129 79.5t-51 129.5q0 169 230 315q-86 67 -133.5 128.5t-47.5 131.5q0 60 27 108t72.5 77.5t100.5 45t114 15.5q117 0 199.5 -55t82.5 -154q0 -146 -184 -264q62 -43 99 -71.5t81.5 -71.5t66 -87.5t21.5 -91.5q0 -83 -57 -144t-141 -88.5t-181 -27.5zM1460 309
q176 106 176 234q0 80 -60 124t-142 44q-77 0 -133 -41.5t-56 -116.5q0 -32 16 -63t51.5 -64.5t64.5 -56t83 -60.5z" />
    <glyph glyph-name="threeeighths" unicode="&#x215c;" horiz-adv-x="2222" 
d="M586 -205l1044 1802h74l-1045 -1802h-73zM498 545q-124 0 -208.5 54t-113.5 151h25q23 -58 67.5 -94.5t90 -49t98.5 -12.5q121 0 190.5 81t69.5 193q0 99 -54 166.5t-155 87.5v15q67 33 103 92.5t36 132.5q0 86 -56 134t-134 48q-90 0 -157 -57t-67 -156h-22
q0 126 88.5 195t206.5 69q120 0 203.5 -60.5t83.5 -170.5q0 -71 -48 -126t-137 -79q137 -23 205 -103t68 -186q0 -140 -107.5 -232.5t-275.5 -92.5zM1628 -244q100 0 172 44t72 124q0 30 -15.5 60t-52 63.5t-64 55t-85.5 63t-82 59.5q-86 -42 -151.5 -117.5t-65.5 -154.5
q0 -62 41 -108.5t101.5 -67.5t129.5 -21zM1659 -295q-92 0 -170 25t-129 79.5t-51 129.5q0 169 227 315q-84 67 -131 128.5t-47 131.5q0 79 46.5 136.5t115.5 83.5t149 26q117 0 201 -55t84 -154q0 -145 -185 -264q62 -42 99 -71t81.5 -72t65.5 -87.5t21 -91.5
q0 -83 -57 -144t-140.5 -88.5t-179.5 -27.5zM1735 309q172 104 172 234q0 80 -59.5 124t-139.5 44q-77 0 -132.5 -41.5t-55.5 -116.5q0 -32 16 -63t51.5 -64.5t64.5 -56t83 -60.5z" />
    <glyph glyph-name="fiveeighths" unicode="&#x215d;" horiz-adv-x="2236" 
d="M598 -205l1044 1802h76l-1044 -1802h-76zM508 545q-123 0 -210.5 59.5t-113.5 161.5h25q24 -82 95 -128t163 -46q126 0 193 84t67 207q0 142 -72.5 222.5t-189.5 80.5q-118 0 -252 -107l59 506h572l-47 -129h-498l-35 -293q122 76 258 76q101 0 185.5 -38.5t137 -115
t52.5 -176.5q0 -166 -112.5 -265t-276.5 -99zM1647 -244q100 0 171.5 44t71.5 124q0 30 -15.5 60t-52 63.5t-64 55t-85.5 63t-82 59.5q-86 -42 -151.5 -117.5t-65.5 -154.5q0 -92 82 -144.5t191 -52.5zM1677 -295q-92 0 -170 25t-129 79.5t-51 129.5q0 169 227 315
q-84 65 -131 127.5t-47 132.5q0 79 46.5 136.5t116 83.5t149.5 26q117 0 200.5 -55t83.5 -154q0 -146 -184 -264q48 -33 79 -56t70.5 -57.5t62 -64t38.5 -68t16 -76.5q0 -83 -57 -144t-140.5 -88.5t-179.5 -27.5zM1753 309q172 104 172 234q0 80 -59.5 124t-139.5 44
q-77 0 -132.5 -41.5t-55.5 -116.5q0 -32 16 -63t51.5 -64.5t64.5 -56t83 -60.5z" />
    <glyph glyph-name="seveneighths" unicode="&#x215e;" horiz-adv-x="2056" 
d="M389 -205l1045 1802h73l-1044 -1802h-74zM1466 -244q101 0 172.5 44t71.5 124q0 30 -15.5 60t-52 63.5t-64 55t-85.5 63t-82 59.5q-86 -42 -151.5 -117.5t-65.5 -154.5q0 -62 41 -108.5t101.5 -67.5t129.5 -21zM293 561q45 221 145 439t262 456h-544l45 129h606
q-147 -269 -221.5 -510.5t-91.5 -513.5h-201zM1497 -295q-92 0 -170 25t-129 79.5t-51 129.5q0 170 229 315q-85 66 -132.5 128t-47.5 132q0 79 47 136.5t116.5 83.5t149.5 26q74 0 137 -22.5t104.5 -71t41.5 -115.5q0 -144 -184 -264q48 -33 79 -56t70.5 -57.5t62 -64
t38.5 -68t16 -76.5q0 -83 -57 -144t-140.5 -88.5t-179.5 -27.5zM1571 309q176 104 176 234q0 80 -60.5 124t-142.5 44q-76 0 -131 -41.5t-55 -116.5q0 -32 15.5 -63t51.5 -64.5t64 -55.5t82 -61z" />
    <glyph glyph-name="arrowleft" unicode="&#x2190;" horiz-adv-x="1466" 
d="M872 223l-768 416v16l768 416v-27l-507 -358l1040 -4l-2 -72l-1036 -2l505 -356v-29z" />
    <glyph glyph-name="arrowup" unicode="&#x2191;" horiz-adv-x="1015" 
d="M489 0v1036l-358 -504h-29l416 768h21l415 -768h-28l-359 504v-1036h-78z" />
    <glyph glyph-name="arrowright" unicode="&#x2192;" horiz-adv-x="1466" 
d="M635 215v29l506 358l-1037 2l-2 72l1039 2l-506 358v29l768 -418l2 -14z" />
    <glyph glyph-name="arrowdown" unicode="&#x2193;" horiz-adv-x="1015" 
d="M518 -14l-416 770h29l358 -506v1036l76 2v-1038l361 506h28l-417 -768z" />
    <glyph glyph-name="arrowboth" unicode="&#x2194;" horiz-adv-x="2101" 
d="M872 213l-770 416l2 14l768 418v-29l-507 -360h1413l-508 360v29l768 -418l2 -14l-770 -416v29l504 358h-1405l503 -358v-29z" />
    <glyph glyph-name="arrowupdn" unicode="&#x2195;" horiz-adv-x="1015" 
d="M518 -168l-416 768l29 2l358 -504v1405l-358 -504h-29l416 770l19 -2l417 -768h-28l-361 508v-1413l361 508h28l-417 -768z" />
    <glyph glyph-name="uni2196" unicode="&#x2196;" horiz-adv-x="1118" 
d="M1001 162l-731 733l103 -610l-21 -23l-250 840l15 10l837 -248l-20 -20l-610 104l733 -735z" />
    <glyph glyph-name="uni2197" unicode="&#x2197;" horiz-adv-x="1116" 
d="M156 164l-54 53l734 733l-611 -102l-20 20l837 248l13 -12l-248 -838l-21 21l103 610z" />
    <glyph glyph-name="uni2198" unicode="&#x2198;" horiz-adv-x="1116" 
d="M1042 176l-837 248l20 20l611 -104l-734 735l54 51l733 -731l-103 611l19 20l250 -840z" />
    <glyph glyph-name="uni2199" unicode="&#x2199;" horiz-adv-x="1114" 
d="M113 170l-11 14l250 838l19 -21l-105 -612l735 733l52 -53l-731 -731l608 102l22 -20z" />
    <glyph glyph-name="partialdiff" unicode="&#x2202;" horiz-adv-x="1196" 
d="M612 -20q-148 0 -265.5 70.5t-180 183t-64.5 243.5q-2 119 41.5 218.5t113.5 160.5t159.5 90t177 19.5t169.5 -63t134 -146.5q-23 180 -88 324.5t-175 238.5t-249 108v31q112 -8 219 -47.5t202 -111.5t167 -169t115.5 -227.5t46.5 -279.5q4 -172 -59 -318.5
t-185.5 -235.5t-278.5 -89zM608 25q136 0 218 160.5t79 416.5v53q-29 70 -71 122t-88 81t-96.5 38t-97.5 -2t-89 -44.5t-73 -85t-49 -127.5t-17 -168q3 -207 77.5 -325.5t206.5 -118.5z" />
    <glyph glyph-name="emptyset" unicode="&#x2205;" horiz-adv-x="1206" 
d="M313 88q-98 72 -154.5 182t-56.5 238q0 218 152.5 370t370.5 152q153 0 282 -82l154 221h67l-174 -256q89 -72 140 -177.5t51 -227.5q0 -143 -69 -263t-189 -189.5t-262 -69.5q-134 0 -258 67l-144 -209h-78zM858 874q-108 68 -233 68q-180 0 -307.5 -127t-127.5 -307
q0 -105 46 -196t126 -152zM625 74q179 0 305.5 127t126.5 307q0 98 -41 185.5t-113 146.5l-485 -713q95 -53 207 -53z" />
    <glyph glyph-name="product" unicode="&#x220f;" horiz-adv-x="1677" 
d="M494 4v1593h-392v54h1514v-54h-389v-1593h-195v1593h-344v-1593h-194z" />
    <glyph glyph-name="summation" unicode="&#x2211;" horiz-adv-x="1193" 
d="M121 0v125l567 733l-567 727v125h940l72 -145h-928l559 -709l-561 -711h930l-72 -145h-940z" />
    <glyph glyph-name="minus" unicode="&#x2212;" horiz-adv-x="1054" 
d="M102 684v80h891v-80h-891z" />
    <glyph glyph-name="radical" unicode="&#x221a;" horiz-adv-x="1521" 
d="M371 -20l-269 782h220l206 -645l545 1579h387l-53 -158h-330l-540 -1558h-166z" />
    <glyph glyph-name="infinity" unicode="&#x221e;" horiz-adv-x="2029" 
d="M1567 436q-119 0 -244.5 70.5t-245.5 200.5q-71 -52 -111 -80.5t-107.5 -70.5t-118 -63.5t-115 -38t-125.5 -16.5q-96 0 -173 30.5t-125.5 81.5t-74 114.5t-25.5 132.5q0 57 16.5 110.5t51.5 101.5t84 83.5t119.5 56.5t152.5 20q221 -3 463 -260q83 61 136.5 97.5
t130.5 79.5t150.5 63.5t145.5 19.5q98 -1 179 -34t131.5 -87t78 -121t27.5 -139q0 -68 -25.5 -130t-73.5 -112.5t-126 -80t-176 -29.5zM479 643q54 0 110.5 17t121 55t109.5 69t122 88q-105 113 -211.5 174.5t-195.5 61.5q-149 0 -232.5 -74.5t-83.5 -173.5q0 -91 68 -154
t192 -63zM1554 500q137 0 211 69t74 166q0 94 -70 163t-194 69q-98 0 -201 -57t-252 -169q106 -115 220 -178t212 -63z" />
    <glyph glyph-name="integral" unicode="&#x222b;" horiz-adv-x="1093" 
d="M102 -217q62 -9 111 9.5t83 53.5t60.5 97.5t42 125.5t28 155t19 168t14.5 182q3 46 5 69q27 334 60 485q67 315 233 400q111 57 274 20v-26q-65 13 -116.5 -0.5t-87 -49t-62 -89.5t-43 -123t-28 -148t-19 -165t-14.5 -175l-9 -123q-29 -342 -68 -502q-74 -300 -246 -376
q-100 -44 -237 -19v31z" />
    <glyph glyph-name="approxequal" unicode="&#x2248;" horiz-adv-x="1046" 
d="M102 961q28 25 56 42.5t59 24t54.5 10.5t59 -3.5t55 -11t59 -20t54.5 -23t58 -26.5q54 -24 86 -36.5t82 -24.5t87.5 -9t82.5 21.5t86 55.5v-89q-31 -27 -64 -44t-60.5 -25.5t-64.5 -6t-60.5 6t-64.5 18.5t-60.5 23.5t-63.5 28.5q-21 9 -31 14q-62 28 -105 41.5t-98.5 20
t-107 -12.5t-99.5 -64v89zM106 602q36 32 72.5 50.5t76 21.5t70.5 1.5t76.5 -17t70.5 -26t75 -32.5q41 -19 63 -28.5t61 -23.5t64.5 -18t61.5 -6t64 6.5t61 26t63 45.5v-90q-53 -48 -106.5 -67t-117.5 -6.5t-101.5 26t-114.5 49.5q-21 9 -31 14q-61 27 -104 40.5t-98 19.5
t-106.5 -13t-99.5 -63v90z" />
    <glyph glyph-name="notequal" unicode="&#x2260;" horiz-adv-x="1054" 
d="M203 72l221 487h-322v78h357l86 186h-443v80h476l208 463h88l-208 -463h327v-80h-362l-82 -186h444v-78h-483l-219 -487h-88z" />
    <glyph glyph-name="lessequal" unicode="&#x2264;" horiz-adv-x="1056" 
d="M995 297l-889 448l889 451v-92l-719 -359l719 -356v-92zM113 152v79h882v-79h-882z" />
    <glyph glyph-name="greaterequal" unicode="&#x2265;" horiz-adv-x="1056" 
d="M102 297v92l719 356l-719 359v92l891 -451zM102 152v79h883v-79h-883z" />
    <glyph glyph-name="lozenge" unicode="&#x25ca;" horiz-adv-x="997" 
d="M520 -12l-418 725l418 725l416 -727zM518 154l318 557l-318 559l-317 -557z" />
    <glyph glyph-name="uniE000" unicode="&#xe000;" horiz-adv-x="1462" 
d="M578 1309q-68 88 -175 88v37h175q126 0 198.5 -46.5t114.5 -160.5l358 -932q24 -61 38 -93.5t34.5 -69.5t41 -53.5t49.5 -28t67 -11.5v-39h-148q-126 0 -199 47.5t-114 161.5l-109 270h-581l-174 -479h-62zM350 532h539l-230 607q-23 68 -47 112z" />
    <glyph glyph-name="uniE001" unicode="&#xe001;" horiz-adv-x="1478" 
d="M164 1202q0 35 -6 65t-21 61.5t-47 50t-78 18.5v37h111q79 0 131.5 -12t84 -32t47.5 -60t21 -83t5 -114v-361h653v662h250v-1201q0 -194 151 -194v-39h-110q-66 0 -113 7t-79 24t-51.5 39t-30 59t-14 75.5t-3.5 96.5v416h-653v-717h-248v1202z" />
    <glyph glyph-name="uniE002" unicode="&#xe002;" horiz-adv-x="1447" 
d="M1016 0l-582 698l791 736h78l-656 -607l678 -827h-309zM164 1202q0 35 -6 65t-21 61.5t-47 50t-78 18.5v37h111q79 0 131.5 -12t84 -32t47.5 -60t21 -83t5 -114v-1133h-248v1202z" />
    <glyph glyph-name="uniE003" unicode="&#xe003;" horiz-adv-x="1910" 
d="M164 1321q-63 76 -152 76v37h193q82 0 137 -24.5t87 -66t60 -112.5l437 -987l571 1190h248v-1434h-248v1305l-541 -1127q73 -136 203 -139v-39h-190q-121 0 -185.5 48.5t-107.5 156.5l-457 1032v-1237h-55v1321z" />
    <glyph glyph-name="uniE004" unicode="&#xe004;" horiz-adv-x="1441" 
d="M1546 -309q-72 0 -118.5 6t-94.5 23t-89 52.5t-87.5 89.5t-105.5 140l-832 1233v-1235h-55v1325q-59 72 -152 72v37h152q128 0 197.5 -33t130.5 -125l733 -1077v1235h55v-1317l88 -135q91 -129 159 -190.5t150 -61.5h15v-39h-146z" />
    <glyph glyph-name="uniE005" unicode="&#xe005;" horiz-adv-x="1849" 
d="M1528 -514q-78 0 -144 24.5t-113 65t-87 89.5t-74.5 100.5t-67 95.5t-73 77.5t-84.5 43.5q-158 6 -294 61t-235.5 149t-156 230t-56.5 297q0 167 61 306t166.5 232.5t248.5 145t307 51.5q165 0 307.5 -51.5t246.5 -145t164 -232.5t60 -306q0 -157 -53 -290t-146 -226
t-220 -150t-275 -69q53 -26 112 -72t107.5 -89.5t101 -85t113 -66.5t123.5 -25q47 0 84.5 8.5t74.5 29.5t66.5 61t50.5 99h21q-43 -196 -124 -277t-212 -81zM930 33q236 0 380 182.5t144 503.5t-143.5 501.5t-380.5 180.5q-238 0 -383.5 -180.5t-145.5 -501.5t145.5 -503.5
t383.5 -182.5z" />
    <glyph glyph-name="uniE006" unicode="&#xe006;" horiz-adv-x="1480" 
d="M164 1202q0 34 -6.5 65t-21.5 62t-47 49.5t-77 18.5v37h699q155 0 267 -28.5t176 -81.5t93 -119.5t29 -149.5q0 -64 -18.5 -119.5t-58.5 -104.5t-110 -84.5t-165 -52.5l405 -694h-291l-393 674h-233v-674h-248v1202zM662 727q184 0 270 87.5t86 240.5q0 151 -86 238
t-270 87h-312q40 -33 51 -90.5t11 -152.5v-410h250z" />
    <glyph glyph-name="uniE007" unicode="&#xe007;" horiz-adv-x="1351" 
d="M664 -23q-123 0 -233 35.5t-195.5 112.5t-112.5 184h55q21 -84 96.5 -147t171.5 -93t197 -30q151 0 254.5 71t103.5 203q0 65 -26.5 117t-72 88t-104 66t-123 56t-129 53.5t-123 62.5t-104 78t-72 106t-26.5 141q0 115 65.5 202t162.5 129t206 42q94 0 173 -31.5
t136.5 -103t69.5 -172.5h-55q-16 118 -101 183t-192 65q-104 0 -175 -59t-71 -169q0 -58 26.5 -103.5t71.5 -76.5t103.5 -58t123.5 -51.5t129.5 -51.5t123 -65t103.5 -85t71.5 -117.5t26.5 -157.5q0 -81 -30.5 -151t-83.5 -119.5t-123.5 -84.5t-151 -52t-166.5 -17z" />
    <glyph glyph-name="uniE008" unicode="&#xe008;" horiz-adv-x="1470" 
d="M1083 -305q-91 0 -157.5 22.5t-122 77.5t-99 134t-92.5 204l-395 1043q-17 42 -29.5 69t-32 59t-40 50t-49.5 30.5t-64 12.5v37h164q125 0 189 -45t106 -158l379 -987l479 1190h59l-510 -1268l25 -66q23 -57 40.5 -97t42 -86t50 -75.5t57.5 -56t72 -39t86 -12.5h27v-39
h-185z" />
    <glyph glyph-name="uniE009" unicode="&#xe009;" horiz-adv-x="2263" 
d="M1022 -305q-122 0 -202.5 43.5t-137 134.5t-115.5 260l-364 1043q-18 52 -33 85t-39 68t-56 51.5t-73 16.5v37h162q124 0 184.5 -44t100.5 -159l346 -991l313 977q-34 88 -75.5 134t-110.5 46v37h159q124 0 184 -44.5t99 -158.5l350 -1000l381 1203h59l-411 -1289l14 -34
q19 -52 32 -86.5t32.5 -77t37.5 -70t43 -56t51.5 -45t61 -28t74.5 -12.5l35 -2v-39h-187q-92 0 -157 22t-117.5 76.5t-93 133.5t-84.5 206l-346 997l-314 -978l13 -43q26 -72 45.5 -119t49.5 -99t62 -82t78 -50.5t101 -22.5l32 -2v-39h-184z" />
    <glyph glyph-name="uniE00A" unicode="&#xe00a;" horiz-adv-x="1458" 
d="M1452 -305q-156 0 -249.5 72t-213.5 274l-327 547l-439 -588h-69l477 639l-334 559q-26 43 -47 72.5t-51 61.5t-65 48.5t-75 16.5v37h213q61 0 105 -12t78 -41.5t55.5 -59.5t54.5 -86l232 -387l438 586h70l-478 -637l433 -725q53 -88 87.5 -138.5t80 -102t91 -74.5
t97.5 -23h31v-39h-195z" />
    <glyph glyph-name="uniE00B" unicode="&#xe00b;" horiz-adv-x="1462" 
d="M1507 -305q-75 0 -131 14.5t-100.5 42t-83 80.5t-71 118.5t-72.5 166.5l-140 362h-581l-174 -479h-62l486 1309q-71 88 -175 88v37h193q113 0 183 -46.5t110 -156.5l395 -1038q82 -209 119 -277q70 -130 164 -166q43 -16 96 -16h31v-39h-187zM350 532h541l-240 623
q-14 39 -39 94z" />
    <glyph glyph-name="uniE00C" unicode="&#xe00c;" horiz-adv-x="1488" 
d="M1829 -389q-399 -42 -606 123q-137 110 -228 346q-38 98 -118 375q-3 9 -5 18q-20 66 -38 102t-62.5 78t-128 57t-209.5 9l780 715h80l-682 -621q97 6 174.5 -6.5t131 -38.5t94.5 -67.5t65.5 -86.5t44.5 -104q14 -43 39 -120.5t40 -125.5t42 -120.5t48.5 -118.5
t55 -105.5t66 -96.5t78 -76t94.5 -59t111.5 -30.5t132.5 -5.5v-41zM164 1202q0 35 -6 65t-21 61.5t-47 50t-78 18.5v37h111q79 0 131.5 -12t84 -32t47.5 -60t21 -83t5 -114v-1133h-248v1202z" />
    <glyph glyph-name="uniE00D" unicode="&#xe00d;" horiz-adv-x="1910" 
d="M1202 -305q-91 0 -158.5 23.5t-124.5 80t-103 132t-103 198.5l-494 1104v-1233h-55v1321q-63 76 -152 76v37h183q82 0 138.5 -24t91 -66t64.5 -113l445 -969l563 1172h248v-1434h-248v1305l-534 -1110l47 -111q70 -155 104 -207q78 -122 191 -140q22 -3 45 -3h28v-39
h-176z" />
    <glyph glyph-name="uniE00E" unicode="&#xe00e;" horiz-adv-x="1503" 
d="M164 1202q0 35 -6 65t-21 61.5t-47 50t-78 18.5v37h111q166 0 227.5 -51.5t61.5 -184.5v-47q59 147 186.5 226t290.5 79q240 -1 346 -140.5t106 -443.5v-872h-249v897q0 277 -62 384t-211 105q-71 1 -141.5 -31t-130.5 -92t-97.5 -159.5t-37.5 -222.5v-881h-248v1202z
" />
    <glyph glyph-name="uniE00F" unicode="&#xe00f;" horiz-adv-x="1480" 
d="M1849 -393q-373 -38 -565 79q-134 82 -225 270q-50 101 -138 362q-2 6 -3 10q-24 71 -43.5 118.5t-46.5 97.5t-61.5 82t-76.5 48h-278v-674h-248v1202q0 34 -6.5 65t-21.5 62t-47 49.5t-77 18.5v37h676q156 0 268.5 -28.5t176.5 -81.5t93 -119t29 -150q0 -138 -86 -237
t-276 -132q194 -18 309 -332q90 -256 133 -348q102 -218 239 -300q115 -69 275 -60v-39zM641 727q185 0 270.5 87t85.5 241q0 151 -85.5 238t-270.5 87h-291q40 -33 51 -90.5t11 -152.5v-410h229z" />
    <glyph glyph-name="uniE010" unicode="&#xe010;" horiz-adv-x="2269" 
d="M164 1202q0 35 -6 65t-21 61.5t-47 50t-78 18.5v37h111q162 0 225.5 -48.5t63.5 -175.5v-43q56 140 170 214.5t260 74.5q174 -2 272 -83t133 -255q51 162 171.5 250t277.5 88q227 -1 327.5 -140.5t100.5 -443.5v-872h-250v895q0 186 -27.5 294t-80.5 152t-142 45
q-64 -1 -125.5 -32.5t-114 -91.5t-84.5 -159t-32 -222v-881h-248v895q0 186 -28 294t-81.5 152t-142.5 45q-64 -1 -125.5 -32.5t-114 -91.5t-84.5 -159t-32 -222v-881h-248v1202z" />
    <glyph glyph-name="uniE011" unicode="&#xe011;" horiz-adv-x="1349" 
d="M596 -20q-215 0 -354.5 148.5t-139.5 383.5q0 236 139.5 384t354.5 148q113 0 207.5 -49t152.5 -135v164h232v-791q0 -194 149 -194v-39h-96q-149 0 -209.5 33.5t-77.5 130.5q-60 -88 -154 -136t-204 -48zM668 53q91 0 164 61t112 165v466q-38 107 -111 166.5t-165 59.5
q-139 0 -227.5 -133.5t-88.5 -325.5q0 -194 88 -326.5t228 -132.5z" />
    <glyph glyph-name="uniE012" unicode="&#xe012;" horiz-adv-x="1349" 
d="M596 -20q-104 0 -195 39t-157 108.5t-104 169t-38 215.5q0 235 141 383.5t353 148.5q107 0 199 -46t149 -124v377q0 35 -6 65.5t-21 62t-46.5 50t-77.5 19.5v39h102q68 0 115.5 -6.5t80.5 -24t52 -38.5t29 -59.5t13 -76t3 -98.5v-951q0 -194 149 -194v-39h-96
q-146 0 -207 33.5t-78 126.5q-56 -85 -151 -132.5t-209 -47.5zM668 53q91 0 164 61t112 165v466q-38 107 -111 166.5t-165 59.5q-139 0 -227.5 -133.5t-88.5 -325.5q0 -194 88 -326.5t228 -132.5z" />
    <glyph glyph-name="uniE013" unicode="&#xe013;" horiz-adv-x="649" 
d="M139 0v969h-139v55h141v37q0 112 37 198t101 137.5t146 77t177 23.5q117 -2 197.5 -51.5t97.5 -136.5h-45q-13 63 -72 100t-135 37q-137 0 -201.5 -79t-64.5 -241v-102h250v-55h-246v-969h-244z" />
    <glyph glyph-name="uniE014" unicode="&#xe014;" horiz-adv-x="1320" 
d="M641 -573q-95 0 -181.5 25t-163 84t-114.5 145h45q25 -54 69.5 -95t97 -63.5t104.5 -33.5t102 -11q174 0 259 105t85 296v271q-58 -76 -150 -123t-198 -47q-104 0 -195 39t-157 108.5t-104 169t-38 215.5q0 235 141 383.5t353 148.5q113 0 207.5 -49t152.5 -135v164h232
v-1114q0 -98 -31 -179.5t-83 -137t-123 -93.5t-148.5 -55.5t-161.5 -17.5zM668 53q91 0 164 61t112 165v466q-38 107 -111 166.5t-165 59.5q-139 0 -227.5 -133.5t-88.5 -325.5q0 -194 88 -326.5t228 -132.5z" />
    <glyph glyph-name="uniE015" unicode="&#xe015;" horiz-adv-x="1341" 
d="M184 1251q0 35 -6 66t-21.5 62t-47.5 49.5t-78 19.5v39h102q68 0 115.5 -6.5t80.5 -24t52 -38.5t29 -59.5t13 -76t3 -98.5v-305q82 79 186 122t215 43q351 0 351 -372v-439q0 -194 151 -194v-39h-98q-51 0 -90.5 3.5t-70 13t-52 21t-37 32t-24 41t-13.5 52.5t-6.5 62.5
t-1.5 75.5v332q0 61 -3.5 105t-15.5 89.5t-32.5 73.5t-57.5 46t-88 18q-83 0 -167 -37.5t-146 -108.5v-819h-242v1251z" />
    <glyph glyph-name="uniE016" unicode="&#xe016;" horiz-adv-x="1273" 
d="M897 0l-448 549l651 475h92l-516 -371l516 -653h-295zM184 1251q0 35 -6 66t-21.5 62t-47.5 49.5t-78 19.5v39h110q65 0 111.5 -7t78 -24t50.5 -38.5t29 -59t13 -76t3 -98.5v-1184h-242v1251z" />
    <glyph glyph-name="uniE017" unicode="&#xe017;" horiz-adv-x="630" 
d="M469 0q-56 0 -97.5 5.5t-72.5 15.5t-51.5 29.5t-33 40.5t-19.5 55.5t-9 69t-2 85.5v950q0 35 -6 66t-21.5 62t-47.5 49.5t-78 19.5v39h110q65 0 111.5 -7t78 -24t50.5 -38.5t29 -59t13 -76t3 -98.5v-951q0 -194 172 -194v-39h-129z" />
    <glyph glyph-name="uniE018" unicode="&#xe018;" horiz-adv-x="1939" 
d="M184 793q0 34 -6 64.5t-21.5 61.5t-47.5 49.5t-78 18.5v37h102q140 0 200 -30.5t77 -119.5q167 170 356 170q238 0 305 -188q165 188 369 188q160 0 248 -87.5t88 -284.5v-439q0 -35 6 -65.5t21.5 -61.5t47 -49t76.5 -18v-39h-98q-51 0 -90.5 3.5t-70 13t-52 21t-37 32
t-24 41t-13.5 52.5t-6.5 62.5t-1.5 75.5v332q0 45 -1 76.5t-5 69.5t-11.5 63.5t-20.5 51t-31.5 40.5t-45.5 23.5t-61 7.5q-143 0 -271 -158q15 -59 15 -135v-672h-242v633q0 63 -2.5 106t-13 90.5t-28.5 75t-51.5 45t-80.5 15.5q-131 0 -258 -142v-823h-242v793z" />
    <glyph glyph-name="uniE019" unicode="&#xe019;" horiz-adv-x="1341" 
d="M184 793q0 34 -6 64.5t-21.5 61.5t-47.5 49.5t-78 18.5v37h102q143 0 203.5 -33t77.5 -125q178 178 413 178q351 0 351 -372v-439q0 -194 151 -194v-39h-104q-57 0 -99.5 5.5t-74 15.5t-52 29.5t-33.5 40.5t-19.5 56t-8.5 68.5t-2 85.5v332q0 61 -3.5 105t-15.5 89.5
t-32.5 73.5t-57.5 46t-88 18q-83 0 -167 -37.5t-146 -108.5v-819h-242v793z" />
    <glyph glyph-name="uniE01A" unicode="&#xe01a;" horiz-adv-x="692" 
d="M403 -20q-135 0 -202.5 78t-67.5 245v666h-133v55h133v74q0 35 -6 65.5t-21.5 61.5t-47.5 49.5t-78 19.5v37h100q95 0 151.5 -12t89 -45t43 -79t11.5 -126v-45h229v-55h-229v-738q0 -95 24 -141t95 -49q38 -2 82.5 13.5t76.5 41.5v-37q-89 -79 -250 -79z" />
    <glyph glyph-name="uniE01B" unicode="&#xe01b;" horiz-adv-x="1341" 
d="M535 -20q-351 0 -351 374v439q0 34 -6 64.5t-21.5 61.5t-47.5 49.5t-78 18.5v37h110q56 0 97.5 -5.5t72.5 -15.5t51.5 -29.5t33 -40.5t19.5 -55.5t9 -69t2 -85.5v-332q0 -61 3.5 -104.5t15 -89.5t32 -74t57 -46t87.5 -18q84 0 167.5 38t147.5 110v586q0 34 -6.5 64.5
t-22 61.5t-47.5 49.5t-78 18.5v37h111q56 0 97.5 -5.5t72.5 -15.5t51.5 -29.5t33 -40.5t19.5 -55.5t9 -69t2 -85.5v-490q0 -194 151 -194v-39h-100q-143 0 -203.5 33.5t-75.5 126.5q-174 -180 -415 -180z" />
    <glyph glyph-name="uniE01C" unicode="&#xe01c;" horiz-adv-x="1329" 
d="M1729 -397q-130 -3 -225.5 4t-182.5 31t-153 61t-136 101.5t-132.5 144.5t-141.5 198l-162 256l-346 -399h-78l393 446l-243 357l-32 48t-31 46t-28.5 35t-35.5 31t-40.5 16.5t-52.5 7.5v37h211q34 0 60.5 -4.5t46.5 -9t39.5 -18.5t31.5 -23t30.5 -34t29 -40t33.5 -51
l151 -217l346 397h76l-389 -444l199 -306q21 -30 69.5 -102.5t75 -110.5t76.5 -103t87 -101.5t93 -83t107.5 -71t117.5 -42.5t136 -18v-39z" />
    <glyph glyph-name="uniE01D" unicode="&#xe01d;" horiz-adv-x="1310" 
d="M643 -588q-92 0 -176.5 25t-159.5 83.5t-114 143.5l43 2q25 -55 68.5 -96t95 -63.5t102.5 -33t102 -10.5q332 0 332 402v280q-84 -78 -188.5 -121.5t-212.5 -43.5q-351 0 -351 374v439q0 34 -6 64.5t-21.5 61.5t-47.5 49.5t-78 18.5v37h110q56 0 97.5 -5.5t72.5 -15.5
t51.5 -29.5t33 -40.5t19.5 -55.5t9 -69t2 -85.5v-332q0 -61 3.5 -104.5t15 -89.5t32 -74t57 -46t87.5 -18q84 0 167.5 38t147.5 110v586q0 34 -6.5 64.5t-22 61.5t-47.5 49.5t-78 18.5v37h111q56 0 97.5 -5.5t72.5 -15.5t51.5 -29.5t33 -40.5t19.5 -55.5t9 -69t2 -85.5v-829
q0 -122 -45 -217t-121.5 -151.5t-170 -85t-198.5 -28.5z" />
    <glyph glyph-name="uniE01E" unicode="&#xe01e;" horiz-adv-x="1222" 
d="M1729 -397q-130 -3 -225.5 4t-182.5 31t-153 61t-136 101.5t-132.5 144.5t-141.5 198l-162 256l-346 -399h-78l393 446l-198 304q-21 31 -56 83t-58.5 87.5t-59.5 86t-64.5 85.5t-68.5 77.5t-75.5 71.5t-81 58.5t-90.5 46.5t-98.5 27t-109.5 9v41q129 3 224.5 -4
t182 -31.5t152.5 -61.5t135.5 -102t132 -145t141.5 -198l162 -254l346 397h76l-389 -444l199 -306q22 -31 56 -82.5t58 -87.5t60 -86t64.5 -85.5t68 -77.5t75.5 -71.5t81.5 -58.5t90.5 -46.5t98.5 -27.5t109.5 -9v-39z" />
    <glyph glyph-name="i.loclTRK" horiz-adv-x="548" 
d="M184 793q0 34 -6 64.5t-21.5 61.5t-47.5 49.5t-78 18.5v37h110q56 0 97.5 -5.5t72.5 -15.5t51.5 -29.5t33 -40.5t19.5 -55.5t9 -69t2 -85.5v-723h-242v793zM248 1145q-62 0 -103 39.5t-41 99.5q0 61 41 99t103 38q59 0 99 -38t40 -99q0 -60 -40 -99.5t-99 -39.5z" />
    <glyph glyph-name="zero.osf" horiz-adv-x="1157" 
d="M610 -20q-225 0 -361 144.5t-136 393.5q0 241 136.5 383.5t360.5 142.5q223 0 360.5 -142.5t137.5 -383.5q0 -249 -136.5 -393.5t-361.5 -144.5zM610 25q114 0 174 128.5t60 360.5q0 226 -60.5 355.5t-173.5 129.5q-115 0 -174 -128.5t-59 -356.5q0 -233 59 -361
t174 -128z" />
    <glyph glyph-name="one.osf" horiz-adv-x="690" 
d="M270 0v856l-127 -102v57l258 223h115v-1034h-246z" />
    <glyph glyph-name="two.osf" horiz-adv-x="915" 
d="M145 18q114 90 213.5 202t168.5 244.5t69 242.5q0 116 -59.5 181.5t-155.5 65.5q-97 0 -163 -56.5t-66 -164.5h-37q0 99 52 171.5t131 106t171 33.5q93 0 171.5 -33.5t130.5 -107t52 -174.5q0 -48 -17 -97t-41 -90t-67 -89t-78.5 -81.5t-93.5 -79.5t-93 -71.5t-95 -68.5
h213q64 0 98.5 0.5t66.5 4.5t45 7.5t28 16.5t21 23.5t19 35.5h33q-9 -23 -25 -62q-16 -42 -22.5 -59.5t-21.5 -42.5t-20.5 -32.5t-27.5 -20t-34 -14t-48.5 -5.5t-63 -4h-83.5h-371v18z" />
    <glyph glyph-name="three.osf" horiz-adv-x="1155" 
d="M569 -430q-170 0 -288.5 77.5t-161.5 213.5h33q32 -84 96.5 -140t130 -77t131.5 -21q91 0 165 33.5t119.5 90.5t70 128.5t24.5 149.5q0 153 -91.5 256.5t-252.5 103.5h-47l362 465h-346h-115t-77 -5t-52.5 -8.5t-31 -18t-23.5 -27t-20 -41.5h-33q52 159 69 192
q28 55 75 70q41 13 179 12h82h498l-473 -596q111 5 200.5 -17t146.5 -61.5t95 -94t54 -110.5t16 -114q0 -198 -150 -329.5t-385 -131.5z" />
    <glyph glyph-name="four.osf" horiz-adv-x="1165" 
d="M741 -430v420h-628l729 1034h149v-981h160l-29 -53h-131v-420h-250zM223 43h518v741z" />
    <glyph glyph-name="five.osf" horiz-adv-x="1177" 
d="M582 -430q-172 0 -290.5 77.5t-160.5 213.5h33q48 -124 149 -181t224 -57q89 0 160 35t114 94.5t65.5 133t22.5 155.5q0 202 -101 317t-272 115q-90 0 -175 -35.5t-181 -111.5l98 698h555q116 0 161.5 6.5t64 21.5t41.5 60h34q-56 -151 -70 -176q-28 -54 -73 -70
q-41 -14 -181 -14h-33h-30h-438l-63 -422q165 115 366 115q140 2 259 -53.5t192 -164.5t73 -249q0 -118 -43.5 -215t-118 -160.5t-173 -98t-209.5 -34.5z" />
    <glyph glyph-name="six.osf" horiz-adv-x="1196" 
d="M637 -20q-156 0 -278.5 89t-185.5 235.5t-60 318.5q3 149 46 279.5t115 227.5t167 169t202 111.5t219 47.5v-31q-139 -14 -249 -108t-175 -238.5t-88 -324.5q61 104 154 157.5t198 53.5q84 0 164 -34t142.5 -95t100 -155.5t36.5 -205.5q-2 -131 -64 -243.5t-179 -183
t-265 -70.5zM639 25q134 0 208 118t77 326q3 204 -80 318t-201 114q-88 0 -169 -63.5t-132 -182.5v-53q-1 -169 35 -300t104 -204t158 -73z" />
    <glyph glyph-name="seven.osf" horiz-adv-x="1028" 
d="M281 -410l550 1260h-485q-60 0 -92.5 -0.5t-62.5 -4.5t-42 -7.5t-26.5 -16t-20.5 -23t-18 -34.5h-37q7 19 20 53q47 121 69 151q31 42 95 51q39 5 167 5h38h541l-627 -1434h-69z" />
    <glyph glyph-name="eight.osf" horiz-adv-x="1181" 
d="M602 -18q-212 0 -350.5 91t-138.5 240q0 248 319 437q-59 48 -99 86t-78 84.5t-56.5 96t-18.5 101.5q0 108 66 187t163 115t207 36q167 0 285.5 -84.5t118.5 -216.5q0 -96 -68 -192t-196 -175q162 -116 219 -167q151 -143 155 -279q0 -87 -45.5 -157.5t-121 -113.5
t-168 -66t-193.5 -23zM555 43q90 -1 170 25.5t134 83t54 131.5q0 37 -20 76t-47 70.5t-78 73.5t-88.5 69t-104 73.5t-100.5 71.5q-130 -65 -214.5 -173.5t-84.5 -213.5q0 -128 106 -207.5t273 -79.5zM715 817q248 149 248 326q0 111 -87.5 181.5t-207.5 70.5q-68 0 -128 -24
t-101.5 -77t-41.5 -125q0 -38 17.5 -76t42.5 -68t69.5 -68t79.5 -63.5t93 -65.5q11 -7 16 -11z" />
    <glyph glyph-name="nine.osf" horiz-adv-x="1196" 
d="M395 -401q139 14 249 108t175 238.5t88 324.5q-60 -104 -153 -157.5t-199 -53.5q-84 0 -163 34t-142 95t-100.5 155t-36.5 204q1 98 39 188.5t103 159.5t161.5 110.5t208.5 41.5q118 0 218 -50.5t166.5 -137t102.5 -202.5t33 -245q-3 -148 -46 -279.5t-115.5 -229.5
t-167 -172t-202 -114.5t-219.5 -48.5v31zM616 125q88 0 168 63.5t131 182.5v53q3 256 -79.5 416.5t-219.5 160.5q-132 0 -205.5 -118t-76.5 -326q-1 -104 22 -188t63 -136.5t90.5 -80t106.5 -27.5z" />
    </font>
</defs>
</svg>
