<?xml version="1.0" standalone="no"?>
<!DOCTYPE svg PUBLIC "-//W3C//DTD SVG 1.1//EN" "http://www.w3.org/Graphics/SVG/1.1/DTD/svg11.dtd" >
<svg xmlns="http://www.w3.org/2000/svg" xmlns:xlink="http://www.w3.org/1999/xlink" version="1.1">
<metadata>
Created by FontForge 20201107 at Thu Mar 20 16:40:47 2025
 By 
(c) 2021, Benedetta Bovani &#38; Colllettivo
</metadata>
<defs>
<font id="OrticaLinear-Light" horiz-adv-x="0" >
  <font-face 
    font-family="Ortica Linear Light"
    font-weight="300"
    font-stretch="normal"
    units-per-em="2048"
    panose-1="0 0 0 0 0 0 0 0 0 0"
    ascent="1638"
    descent="-410"
    x-height="1024"
    cap-height="1434"
    bbox="-139 -571 2777 2036"
    underline-thickness="102"
    underline-position="-255"
    unicode-range="U+0020-FB02"
  />
<missing-glyph horiz-adv-x="1024" 
d="M840 1556v-2048h-650v2048h650zM682 160h-340v-232h340v232zM614 92v-96h-204v96h204zM682 514h-205v-115h70v47h67v-96h-204v164h-68v-231h340v231zM682 764h-68v-135h-272v-70h340v205zM682 887h-340v-68h135v-76h-135v-67h205v143h135v68zM477 1085v-73h-67v73h67z
M547 1155h-205v-213h340v70h-135v143zM682 1419h-338v-67h133v-76h-135v-68h340v68h-135v76h135v67zM682 -119h-340v-67h143l-143 -97v-67h340v67h-209l143 97h66v67z" />
    <glyph glyph-name="fi" unicode="fi" horiz-adv-x="1298" 
d="M254 1176q0 181 114 292t314 111q117 0 219.5 -49.5t167.5 -124.5l-100 -277h-29q0 398 -266 398q-136 0 -205.5 -98t-69.5 -271v-133l709 2v-897q0 -34 10 -54.5t32 -29.5t49 -12t70 -4h13v-29h-489v29q101 4 128 14q50 18 50 86v745q0 72 -24.5 91.5t-96.5 19.5h-451
l2 -852q0 -24 6.5 -41.5t26.5 -28.5t37 -17.5t58.5 -10t70 -4.5t90.5 -2v-29h-612v29q38 2 54 3t45 6.5t42 15t24.5 27.5t12.5 44l-2 860h-123v39h123v152z" />
    <glyph glyph-name="fl" unicode="fl" horiz-adv-x="1366" 
d="M627 985h-226v-852q0 -24 6.5 -41.5t26.5 -28.5t37 -17.5t58.5 -10t70 -4.5t90.5 -2v-29h-612v29q32 1 46 2t40 4.5t38 10t27 17.5t21 28.5t6 41.5v852h-125v39h125v172q0 165 124 274t331 109q61 0 123.5 -14t94 -26t109.5 -44l117 84h2l-2 -1454q1 -27 10 -44.5t20 -27
t37.5 -15t45.5 -6.5t61 -3v-29h-489v29q32 1 46 2t40 4.5t38 10t27 17.5t21 28.5t6 41.5v1118q0 123 -84.5 199t-220.5 76q-91 0 -154.5 -28t-96.5 -80.5t-47 -115t-14 -145.5v-133h226v-39z" />
    <glyph glyph-name="f_f" unicode="ff" horiz-adv-x="1540" 
d="M1001 1196v33l-2 -6q0 153 -76.5 228t-213.5 75q-91 0 -153.5 -28t-95 -81t-46 -115t-13.5 -145v-133h600v172zM1411 1024v-39h-264v-852q0 -24 6.5 -41.5t26.5 -28.5t37 -17.5t58.5 -10t70 -4.5t90.5 -2v-29h-613v29q32 1 46 2t40 4.5t38 10t27 17.5t21 28.5t6 41.5v852
h-600v-852q0 -24 6.5 -41.5t26.5 -28.5t37 -17.5t58.5 -10t70 -4.5t90.5 -2v-29h-612v29q32 1 46 2t40 4.5t38 10t27 17.5t21 28.5t6 41.5v852h-125v39h125v172q0 163 128.5 273t324.5 110q94 0 176 -28.5t198 -98.5q103 127 283 127q95 0 181 -45t145 -129l-80 -277h-29
q0 217 -53.5 309.5t-163.5 92.5q-53 0 -92.5 -17.5t-63.5 -47t-38.5 -75.5t-19.5 -96t-5 -116v-154h264z" />
    <glyph glyph-name="f_f_i" unicode="ffi" horiz-adv-x="2041" 
d="M1851 129q0 -34 10 -54.5t32 -29.5t49 -12t70 -4h13v-29h-489v29q101 4 128 14q50 18 50 86v743q0 71 -24.5 90t-96.5 19h-450l2 -848q0 -24 6.5 -41.5t26.5 -28.5t37 -17.5t58.5 -10t70 -4.5t90.5 -2v-29h-613v29q32 1 45.5 2t40 4.5t38.5 9.5t27 16t21 26t6 38l-2 856
l-596 2v-850q0 -24 6.5 -41.5t26.5 -28.5t37 -17.5t58.5 -10t70 -4.5t90.5 -2v-29h-612v29q32 1 46 2t40 4.5t38 10t27 17.5t21 28.5t6 41.5v850h-123v39h123v174q0 163 128.5 273t324.5 110q96 0 179.5 -29.5t203.5 -101.5q118 131 331 131q119 0 221.5 -49.5t167.5 -124.5
l-100 -277h-29q0 217 -65 307.5t-201 90.5q-79 0 -133.5 -25.5t-84.5 -75.5t-43 -114.5t-13 -153.5v-133h708v-895zM999 1223q0 153 -76.5 228t-213.5 75q-91 0 -153.5 -28t-95 -81t-46 -115t-13.5 -145v-135l596 2v152q0 33 2 47z" />
    <glyph glyph-name=".notdef" horiz-adv-x="1024" 
d="M840 1556v-2048h-650v2048h650zM682 160h-340v-232h340v232zM614 92v-96h-204v96h204zM682 514h-205v-115h70v47h67v-96h-204v164h-68v-231h340v231zM682 764h-68v-135h-272v-70h340v205zM682 887h-340v-68h135v-76h-135v-67h205v143h135v68zM477 1085v-73h-67v73h67z
M547 1155h-205v-213h340v70h-135v143zM682 1419h-338v-67h133v-76h-135v-68h340v68h-135v76h135v67zM682 -119h-340v-67h143l-143 -97v-67h340v67h-209l143 97h66v67z" />
    <glyph glyph-name=".null" 
 />
    <glyph glyph-name="nonmarkingreturn" horiz-adv-x="682" 
 />
    <glyph glyph-name="space" unicode=" " horiz-adv-x="512" 
 />
    <glyph glyph-name="exclam" unicode="!" horiz-adv-x="600" 
d="M270 336h45l66 1098h-174zM291 -23q42 0 73 31t31 76q0 42 -31 73t-73 31q-44 0 -75.5 -30.5t-31.5 -73.5q0 -45 31 -76t76 -31z" />
    <glyph glyph-name="quotedbl" unicode="&#x22;" horiz-adv-x="524" 
d="M139 1120h35l49 377q7 56 -37 77q-37 17 -70 -6q-32 -23 -26 -71zM348 1120h35l49 377q7 56 -37 77q-37 17 -70 -6q-32 -23 -26 -71z" />
    <glyph glyph-name="numbersign" unicode="#" horiz-adv-x="1521" 
d="M686 1434h72l-125 -463h409l121 463h72l-121 -463h326l-19 -68h-325l-107 -405h373l-21 -68h-368l-113 -430h-72l113 430l-416 -2l-116 -428h-72l117 428h-332l18 68h332l111 407h-396l19 68h395zM504 496l414 2l106 405h-410z" />
    <glyph glyph-name="dollar" unicode="$" horiz-adv-x="1073" 
d="M502 1556h67v-137q116 -9 227 -51.5t152 -69.5l-57 -335h-31q3 158 -71.5 266t-219.5 133v-553l166 -76q130 -59 190 -137t60 -182q0 -73 -27.5 -141t-78 -123.5t-131 -92t-179.5 -43.5v-166h-67v164q-212 6 -434 170l38 344h33q5 -197 100.5 -321.5t262.5 -136.5v602
l-148 65q-280 127 -280 352q0 152 119.5 240.5t308.5 93.5v135zM225 1139q0 -98 57 -161.5t167 -113.5l53 -24v528h-13q-116 0 -190 -64t-74 -165zM569 70q131 10 199 93.5t68 205.5q0 75 -47 133.5t-156 107.5l-64 29v-569z" />
    <glyph glyph-name="percent" unicode="%" horiz-adv-x="1409" 
d="M156 0l1013 1434h107l-1014 -1434h-106zM600 1130q0 73 -33 143.5t-95 117.5t-136 47q-110 0 -187 -95.5t-77 -212.5q0 -115 77 -210t187 -95q112 0 188 93t76 212zM336 1376q50 0 87.5 -39.5t54 -94t16.5 -112.5q0 -109 -40.5 -176t-117.5 -67q-70 0 -114 76.5
t-44 166.5q0 104 42.5 175t115.5 71zM1337 305q0 73 -33 143.5t-95 117t-136 46.5q-110 0 -187 -95t-77 -212q0 -115 77 -210t187 -95q112 0 188 93t76 212zM1073 551q50 0 87.5 -39.5t54 -94t16.5 -112.5q0 -109 -40.5 -176.5t-117.5 -67.5q-70 0 -114 77t-44 167
q0 104 42.5 175t115.5 71z" />
    <glyph glyph-name="ampersand" unicode="&#x26;" horiz-adv-x="1492" 
d="M1479 0h-332l-213 221q-81 -104 -179 -167.5t-229 -63.5q-156 0 -267.5 101t-111.5 251q0 69 23.5 132t66 115t88 92t103.5 79q-91 111 -127.5 191.5t-36.5 164.5q0 72 25 131t65.5 97.5t94 65.5t108.5 38.5t111 11.5q213 0 397 -168l-90 -268h-31q4 195 -70.5 295
t-211.5 100q-123 0 -189.5 -75t-66.5 -179q0 -47 12.5 -90.5t34 -85t70.5 -101.5t102 -118.5t147 -157.5l209 -219q190 276 159 344q-14 31 -75 31h-141v37h477v-37h-47q-33 0 -60.5 -16.5t-57 -56.5t-54.5 -82t-71 -121t-89 -144l240 -252q33 -34 65 -49t86 -16l66 -2v-29z
M311 401q0 -135 82 -220t199 -85q157 0 299 170l-275 285q-79 82 -153 166q-152 -135 -152 -316z" />
    <glyph glyph-name="quotesingle" unicode="'" horiz-adv-x="315" 
d="M139 1120h35l49 377q7 56 -37 77q-37 17 -70 -6q-32 -23 -26 -71z" />
    <glyph glyph-name="parenleft" unicode="(" horiz-adv-x="731" 
d="M645 1444q-165 -222 -244 -461.5t-79 -468.5q0 -236 80.5 -487.5t242.5 -442.5l-24 -18q-79 88 -139.5 165t-123 174t-103 189t-66 201t-25.5 219q0 92 16 180t50.5 172t71.5 154.5t96 154t105 142.5t118 145z" />
    <glyph glyph-name="parenright" unicode=")" horiz-adv-x="731" 
d="M111 1462q71 -86 117.5 -145.5t105.5 -142t95.5 -153.5t71 -155t50.5 -172t16 -180q0 -136 -36 -267.5t-104.5 -252t-142 -218.5t-173.5 -210l-25 18q162 191 243 442.5t81 487.5q0 228 -79.5 468t-244.5 462z" />
    <glyph glyph-name="asterisk" unicode="*" horiz-adv-x="772" 
d="M428 1104l4 10l279 -49v141l-279 -55l-4 10l184 221l-125 76l-96 -280h-12l-100 280l-125 -74l190 -223l-4 -10l-279 55v-141l279 49l4 -10l-190 -223l125 -74l100 280h12l96 -280l125 76z" />
    <glyph glyph-name="plus" unicode="+" horiz-adv-x="1173" 
d="M1071 696v-82h-440v-446h-88v446h-441v82h441v447h88v-447h440z" />
    <glyph glyph-name="comma" unicode="," horiz-adv-x="428" 
d="M121 -322q97 65 151 161t54 186q0 73 -30 115t-83 42q-49 0 -78 -29.5t-29 -70.5q0 -48 29.5 -75t69.5 -27q37 0 57 18q-1 -32 -8.5 -66t-24 -74.5t-49.5 -82t-78 -76.5z" />
    <glyph glyph-name="hyphen" unicode="-" horiz-adv-x="858" 
d="M102 559h654v-94h-654v94z" />
    <glyph glyph-name="period" unicode="." horiz-adv-x="436" 
d="M219 -23q42 0 73.5 31t31.5 76q0 42 -31.5 73t-73.5 31q-44 0 -75 -30.5t-31 -73.5q0 -46 30.5 -76.5t75.5 -30.5z" />
    <glyph glyph-name="slash" unicode="/" horiz-adv-x="808" 
d="M61 -299l719 1855l90 -2l-716 -1853h-93z" />
    <glyph glyph-name="zero" unicode="0" horiz-adv-x="1189" 
d="M592 1460q-152 0 -270 -95t-182 -263.5t-64 -382.5t64 -383t182 -264t270 -95t270 95t182 264t64 383t-64 382.5t-182 263.5t-270 95zM592 35q-87 0 -155.5 58.5t-109.5 157t-62 217.5t-21 251t21 251t62 217.5t109.5 157t155.5 58.5t155.5 -58.5t109.5 -157t62 -217.5
t21 -251t-21 -251t-62 -217.5t-109.5 -157t-155.5 -58.5z" />
    <glyph glyph-name="one" unicode="1" horiz-adv-x="907" 
d="M102 1264l2 -2l287 98v-1229q0 -34 -19.5 -55t-59.5 -30t-81 -12t-106 -5h-14v-29h708v29q-158 4 -203 16q-69 27 -73 86v1323h-19l-422 -151v-39z" />
    <glyph glyph-name="two" unicode="2" horiz-adv-x="1234" 
d="M156 1094q40 73 89.5 126t100.5 80.5t97.5 39.5t93.5 12q138 0 222.5 -89.5t84.5 -246.5q0 -124 -68.5 -241t-224.5 -273l-449 -445v-57h908l65 360h-28q-15 -54 -24 -82.5t-23 -61t-28 -47t-36.5 -28.5t-51 -18t-69.5 -4h-567l424 373q186 162 270 290t84 260
q0 84 -29 159t-82.5 133t-137 92t-185.5 34q-170 0 -290 -94.5t-175 -261.5z" />
    <glyph glyph-name="three" unicode="3" horiz-adv-x="1007" 
d="M152 1219q59 72 136 110.5t158 38.5q111 0 170.5 -67t59.5 -152q0 -60 -24.5 -110.5t-62 -86t-99.5 -68t-117.5 -53.5t-136.5 -47l6 -32q127 21 231 -3t168.5 -80t99.5 -132t35 -162q0 -137 -85.5 -239.5t-219.5 -102.5q-156 0 -228 97t-91 310h-29l-31 -334
q73 -53 169.5 -89.5t199.5 -36.5q108 0 200 39.5t152 104.5t93.5 146.5t33.5 167.5q0 111 -67.5 197.5t-184 132.5t-258.5 41q73 25 124.5 46.5t108.5 54.5t92 70t58 89.5t23 114.5q0 119 -83 197.5t-235 78.5q-133 0 -237 -69t-154 -158z" />
    <glyph glyph-name="four" unicode="4" horiz-adv-x="1261" 
d="M53 399h727v-266q0 -24 -6 -41.5t-22.5 -28.5t-30 -17.5t-45.5 -10t-51.5 -4.5t-63.5 -2v-29h582v29q-48 1 -70.5 2t-54 4.5t-44 10t-27 18t-19 28.5t-4.5 41v266h219v105h-219v930h-58l-813 -926v-109zM133 504l649 739l-2 -739h-647z" />
    <glyph glyph-name="five" unicode="5" horiz-adv-x="1236" 
d="M209 428q2 -93 24 -164.5t56 -115t81 -71.5t94 -38t101 -10q89 0 162 41.5t117 107t67 139t23 144.5q0 179 -93 277t-235 98q-97 0 -184.5 -43t-210.5 -129l-29 16l111 754h708v-129h-663l-80 -547q96 79 206.5 128.5t213.5 49.5q184 0 302 -115.5t118 -308.5
q0 -73 -21.5 -147.5t-67 -144.5t-109 -124t-154 -86.5t-195.5 -32.5q-114 0 -216.5 39.5t-217.5 110.5l51 307z" />
    <glyph glyph-name="six" unicode="6" horiz-adv-x="1185" 
d="M930 1413q-251 -39 -435 -221.5t-233 -448.5q60 89 157.5 140.5t188.5 54.5q80 3 158.5 -25t144 -84t106 -149.5t40.5 -210.5q0 -151 -66.5 -264.5t-174 -170.5t-238.5 -57q-224 0 -364 172.5t-140 446.5q0 170 65 322t178.5 264.5t271 185.5t337.5 92zM246 571
q0 -230 95 -382t251 -152q73 0 131.5 32.5t95 88t55.5 126t19 148.5t-20.5 151t-60 134.5t-105.5 99t-148 37.5q-88 0 -173.5 -57.5t-137.5 -161.5q-2 -20 -2 -64z" />
    <glyph glyph-name="seven" unicode="7" horiz-adv-x="1042" 
d="M41 1434h926l18 -29q-125 -154 -216.5 -312t-144.5 -293t-85 -282.5t-42.5 -264t-11.5 -253.5h-145q1 122 13 231t45.5 244.5t88.5 263.5t147.5 278.5t217.5 299.5l-811 -2v119z" />
    <glyph glyph-name="eight" unicode="8" horiz-adv-x="1232" 
d="M991 1153q0 -50 -18.5 -96.5t-44 -80.5t-66.5 -68.5t-71.5 -55t-73.5 -45.5l14 -8q61 -33 101.5 -58t92.5 -66t83 -81.5t53 -97t22 -119.5q0 -55 -14.5 -108.5t-49.5 -107t-88 -94t-137 -65.5t-188 -25q-204 0 -328 114t-124 278q0 67 23.5 126t56.5 100t82.5 78.5t88 59
t87.5 43.5q-60 35 -103.5 67t-88.5 77t-69 100.5t-24 118.5q0 143 112.5 232t294.5 89q171 0 274 -90.5t103 -216.5zM305 395q0 -152 90 -249t236 -97q81 0 142.5 29t94.5 76t48.5 96t15.5 98q0 33 -6 63t-19.5 56t-27 47.5t-37.5 43t-40.5 36t-46.5 33t-46.5 28t-48.5 27.5
t-44 25l-75 43q-236 -137 -236 -355zM344 1182q0 -47 20 -91t48.5 -77.5t76 -69.5t86.5 -59.5t97 -55.5q54 40 91 82.5t64 109t27 144.5q0 62 -28 116.5t-89.5 92t-144.5 37.5q-103 0 -175.5 -65t-72.5 -164z" />
    <glyph glyph-name="nine" unicode="9" horiz-adv-x="1181" 
d="M217 25q252 39 438.5 221.5t235.5 447.5q-60 -89 -159.5 -140t-192.5 -54q-81 -3 -159.5 25t-145 84t-107.5 150t-41 210q0 113 39 207t105.5 155.5t154 95t184.5 33.5q147 0 262.5 -77.5t178.5 -213.5t63 -307q0 -177 -65 -333.5t-179 -271t-270.5 -188t-337.5 -92.5z
M258 1006q0 -62 12 -121t38.5 -114t64 -96.5t93.5 -66t122 -24.5q88 0 175.5 57.5t141.5 161.5q2 20 2 63q0 149 -43 270.5t-124 193t-185 71.5q-73 0 -131 -32.5t-93.5 -88.5t-54 -125.5t-18.5 -148.5z" />
    <glyph glyph-name="colon" unicode=":" horiz-adv-x="436" 
d="M219 -16q42 0 73.5 30.5t31.5 75.5q0 42 -31.5 73.5t-73.5 31.5q-44 0 -75 -31t-31 -74q0 -45 30.5 -75.5t75.5 -30.5zM219 825q42 0 73.5 31t31.5 76q0 42 -31.5 73t-73.5 31q-44 0 -75 -30.5t-31 -73.5q0 -46 30.5 -76.5t75.5 -30.5z" />
    <glyph glyph-name="semicolon" unicode=";" horiz-adv-x="452" 
d="M219 825q42 0 73.5 31t31.5 76q0 42 -31.5 73t-73.5 31q-44 0 -75 -30.5t-31 -73.5q0 -46 30.5 -76.5t75.5 -30.5zM135 -322q97 65 151 161t54 186q0 73 -30 115t-83 42q-49 0 -77.5 -29.5t-28.5 -70.5q0 -48 29 -75t69 -27q37 0 57 18q-2 -72 -38 -152.5t-121 -146.5z
" />
    <glyph glyph-name="less" unicode="&#x3c;" horiz-adv-x="1173" 
d="M84 674l960 448v-96l-786 -369l786 -370v-97l-960 451v33z" />
    <glyph glyph-name="equal" unicode="=" horiz-adv-x="1173" 
d="M1071 858v-84h-969v84h969zM1071 551v-84h-969v84h969z" />
    <glyph glyph-name="greater" unicode="&#x3e;" horiz-adv-x="1173" 
d="M1090 674v-33l-961 -451v97l786 370l-786 369v96z" />
    <glyph glyph-name="question" unicode="?" horiz-adv-x="946" 
d="M186 1038q-15 202 54.5 302t203.5 100q117 0 182.5 -73t65.5 -202q0 -33 -5.5 -64.5t-10 -53t-21 -51t-22.5 -41.5t-31 -41.5t-29 -34.5t-35 -37t-32 -33q-73 -73 -113.5 -148t-40.5 -184q0 -97 21 -139h45q-10 45 -10 100q0 80 22.5 136.5t77.5 111.5q30 30 82.5 70.5
t91.5 73.5t79 77.5t61.5 104t21.5 131.5q0 75 -23.5 134.5t-61.5 97t-90 62.5t-105.5 35.5t-110.5 10.5q-111 0 -197.5 -37t-173.5 -107l74 -301h30zM412 -23q42 0 73 31t31 76q0 42 -31 73t-73 31q-44 0 -75.5 -30.5t-31.5 -73.5q0 -45 31 -76t76 -31z" />
    <glyph glyph-name="at" unicode="@" horiz-adv-x="1564" 
d="M102 487q0 134 44 247.5t118 192t170 134.5t199.5 82t208.5 26q122 0 234.5 -41.5t198 -115t136.5 -181.5t51 -233q0 -102 -30 -184.5t-76.5 -133.5t-106 -85.5t-114.5 -48t-107 -13.5q-156 0 -131 156l6 45q-56 -77 -118 -132t-111 -55q-90 0 -157.5 78.5t-67.5 200.5
q0 88 34.5 170.5t89.5 141t125 93.5t138 35q121 0 180 -45l51 45h18l-86 -581q-13 -92 66 -92q33 0 69.5 11.5t75 39.5t69 69.5t50 107.5t19.5 146q0 153 -71.5 274.5t-196.5 189t-279 67.5q-111 0 -204.5 -31.5t-160 -86.5t-113.5 -128.5t-69.5 -158t-22.5 -175.5
q0 -144 49 -259.5t135 -189.5t200.5 -113.5t248.5 -39.5q157 0 314 66l20 -43q-171 -91 -362 -91q-110 0 -212.5 21.5t-198.5 71t-167 122t-113.5 181.5t-42.5 243zM569 473q0 -102 40.5 -163.5t105.5 -61.5q74 0 203 170l47 309q-70 76 -164 76q-98 0 -165 -93.5
t-67 -236.5z" />
    <glyph glyph-name="A" unicode="A" horiz-adv-x="1464" 
d="M-102 0v29q106 3 165 31t91 102l501 1138q-14 32 -25 49t-26.5 30t-47.5 17.5t-68.5 6.5t-108.5 2v29h383l559 -1323q12 -27 31 -43.5t55.5 -24.5t56 -9.5t72.5 -3.5q13 -1 20 -1v-29h-618v29q58 0 93 1t64 5t41.5 10.5t18 19t2 28t-13.5 40.5l-185 440h-538l-199 -454
q-27 -61 27 -78q28 -9 147 -12h17v-29h-514zM446 635h488l-238 569z" />
    <glyph glyph-name="B" unicode="B" horiz-adv-x="1282" 
d="M45 29q131 5 147 8q51 8 62 42q4 14 4 34v1210q0 15 -2 26t-7.5 19t-11 14t-18 9.5t-22 5.5t-29.5 3.5t-34 2t-41.5 1t-47.5 1.5v29h643q65 0 125 -11t114.5 -36t94.5 -62t64 -92t24 -123q0 -60 -22 -111.5t-55.5 -87t-79 -63.5t-87 -44t-84.5 -26q61 -11 116.5 -30.5
t109 -52.5t92 -76t62.5 -104.5t24 -133.5q0 -58 -16.5 -112t-53.5 -103.5t-90 -86t-131 -58t-172 -21.5h-678v29zM707 49q85 0 149 30t99 80t52 106t17 116q0 46 -12.5 94t-42.5 97.5t-74 88t-113.5 63t-154.5 24.5h-207v-699h287zM633 797q65 0 122 15.5t103 47t73 86
t27 125.5q0 141 -96.5 229.5t-292.5 88.5h-149v-592h213z" />
    <glyph glyph-name="C" unicode="C" horiz-adv-x="1437" 
d="M1290 1325l-4 -369h-35q-101 453 -463 453q-118 0 -212.5 -40.5t-152 -103.5t-95.5 -146.5t-53 -162t-15 -157.5q0 -206 73 -367.5t205.5 -251.5t301.5 -90q334 0 460 402h46q-14 -71 -42.5 -141t-78 -138.5t-113 -120t-153.5 -83.5t-193 -32q-127 0 -236.5 39.5
t-188.5 108.5t-136 160t-85 196t-28 215q0 122 27 233.5t84.5 208.5t140 168.5t200 112.5t257.5 41q137 0 250.5 -34t238.5 -101z" />
    <glyph glyph-name="D" unicode="D" horiz-adv-x="1454" 
d="M45 29q130 5 146 8q49 8 59 43q4 13 4 33v1208q0 38 -19 55.5t-43.5 21t-96.5 5.5q-32 1 -50 2v29l576 2q122 1 233 -26.5t203.5 -83t160.5 -133t106 -183t38 -228.5q0 -170 -52.5 -311t-154.5 -247t-264.5 -165t-370.5 -59h-475v29zM625 66q118 0 214 39t158.5 103.5
t105 151t61 178t18.5 187.5q0 151 -44.5 275.5t-122.5 206.5t-183 126.5t-226 44.5h-190v-1312h209z" />
    <glyph glyph-name="E" unicode="E" horiz-adv-x="1347" 
d="M45 29q130 5 146 8q49 8 59 43q4 13 4 33v1208q0 38 -19 55.5t-43.5 21t-96.5 5.5q-32 1 -50 2v29h1116l66 -455h-39q-23 156 -64 244t-97 120.5t-142 32.5h-469v-616h450q64 0 103.5 54.5t42.5 172.5h32v-516h-32q-3 116 -42.5 173.5t-103.5 57.5h-450v-643h502
q48 0 87 11t66.5 26.5t51 45.5t37.5 54.5t28 68t21 72t19 79.5l9 39h39l-88 -455h-1143v29z" />
    <glyph glyph-name="F" unicode="F" horiz-adv-x="1282" 
d="M254 113q0 -38 -19 -55.5t-43.5 -21t-96.5 -5.5q-32 -1 -50 -2v-29h645v29q-166 5 -186 8q-66 8 -79 44q-5 13 -5 32v569h454q63 0 101 -57t41 -174h33v516h-33q-5 -228 -142 -228h-454v637h465q66 0 111.5 -16t85 -59t66.5 -122t44 -200h39l-66 455h-1120v-29
q130 -5 146 -8q49 -8 59 -43q4 -13 4 -33v-1208z" />
    <glyph glyph-name="G" unicode="G" horiz-adv-x="1501" 
d="M752 -23q-98 0 -193.5 32t-179.5 95.5t-148.5 151t-101.5 206.5t-37 253q0 113 27.5 219t86.5 201.5t143.5 167t206 113.5t265.5 42q225 0 484 -143l-9 -367h-30q-30 114 -67.5 194t-94 142t-138 92.5t-190.5 30.5q-123 0 -222 -52t-161.5 -141t-95.5 -203t-33 -243
q0 -131 32 -246t86.5 -197t124 -141.5t146 -88.5t152.5 -29q79 0 145 25t109 67t70.5 86t44.5 94v229l-312 23v31h588v-31q-41 0 -61.5 -2t-36.5 -5t-20.5 -15.5t-6.5 -24.5t-2 -41v-502h-23l-108 238q-58 -113 -174 -187t-266 -74z" />
    <glyph glyph-name="H" unicode="H" horiz-adv-x="1638" 
d="M45 29q16 1 46.5 1t45 0.5t37 3.5t33.5 9.5t23 17.5t17 29t5 43v1178q0 29 -7.5 48t-21 28.5t-32.5 14t-42 4t-49.5 -0.5h-54.5v29h578v-29h-54.5t-50 0.5t-42.5 -4t-33 -14t-21.5 -28.5t-7.5 -48v-520h809v520q0 29 -7.5 48t-21.5 28.5t-33 14t-42.5 4t-50 -0.5h-54.5
v29h579v-29h-54.5t-50 0.5t-42.5 -4t-33 -14t-21.5 -28.5t-7.5 -48v-1178q0 -25 5 -43t17.5 -29t23.5 -17.5t34 -9.5t37.5 -3.5t45 -0.5t46.5 -1v-29h-579v29q16 1 46.5 1t45 0.5t37.5 3.5t34 9.5t23.5 17.5t17.5 29t5 43v596h-809v-596q0 -25 5 -43t17.5 -29t23.5 -17.5
t34 -9.5t37.5 -3.5t45 -0.5t46.5 -1v-29h-578v29z" />
    <glyph glyph-name="I" unicode="I" horiz-adv-x="710" 
d="M436 119q0 -18 5 -32t11.5 -23t20.5 -15.5t24.5 -10t32 -5.5t34.5 -2t40 -1t41 -1v-29h-579v29q14 0 41 1t40 1t34 2t31.5 5.5t24.5 10t20.5 15.5t11.5 23t5 32v1202q0 21 -5 35.5t-17 23.5t-23.5 14t-33.5 7t-38 2.5t-44.5 0.5t-46.5 1v29h579v-29q-18 -1 -47 -1
t-44.5 -0.5t-37.5 -2.5t-34 -7t-24 -14t-17 -24t-5 -35v-1202z" />
    <glyph glyph-name="J" unicode="J" horiz-adv-x="749" 
d="M41 -268q63 12 111.5 48.5t76 83t44.5 107t22.5 112t5.5 105.5v1133q0 20 -5 35t-17 24t-24 14t-34 7t-37.5 2.5t-44.5 0.5t-47 1v29h576v-29q-18 -1 -47 -1t-44.5 -0.5t-37.5 -2.5t-34 -7t-24 -14t-17 -24t-5 -35v-975q0 -121 -28.5 -227t-72.5 -178t-100 -126t-109 -81
t-100 -33z" />
    <glyph glyph-name="K" unicode="K" horiz-adv-x="1423" 
d="M416 123q0 -16 3 -29t11 -22t14.5 -16t22 -11.5t24.5 -7t30.5 -4t31 -2t36 -1.5t36.5 -1v-29h-580v29q10 0 36.5 1t36 1.5t31 2t30.5 4t24.5 7t22 11.5t14.5 16t11 22t3 29v1198q0 20 -5 35t-17 24t-24 14t-34 7t-37.5 2.5t-44.5 0.5t-47 1v29h580v-29q-18 -1 -47 -1
t-44.5 -0.5t-37.5 -2.5t-34 -7t-24 -14t-17 -24t-5 -35v-635l518 494q77 74 104 109t27 63q0 13 -3 22t-11.5 14.5t-16 9t-23.5 5t-26.5 2t-32.5 0.5h-34v29h483v-29q-58 -1 -97.5 -7t-70 -23t-45.5 -29t-45 -41l-441 -426q45 -61 184.5 -254.5t248 -340t145.5 -188.5
q30 -34 63 -49t89 -16l65 -2v-29h-332q-56 75 -257 348t-316 424l-176 -170v-479z" />
    <glyph glyph-name="L" unicode="L" horiz-adv-x="1316" 
d="M45 29q139 3 174 18.5t35 85.5v1188q0 20 -5 35t-17 24t-24 14t-34 7t-37.5 2.5t-44.5 0.5t-47 1v29h580v-29q-18 -1 -47 -1t-44.5 -0.5t-37.5 -2.5t-34 -7t-24 -14t-17 -24t-5 -35v-1270h532q68 0 119.5 29t85.5 86.5t55.5 126t38.5 162.5h39l-53 -455h-1188v29z" />
    <glyph glyph-name="M" unicode="M" horiz-adv-x="1845" 
d="M45 1405v29h361l538 -1231l504 1231h352v-29q-130 -5 -145 -8q-50 -8 -60 -43q-4 -13 -4 -33v-1210q0 -20 5 -34t17 -22.5t23 -14t33 -7.5t37.5 -2.5t45.5 -0.5t48 -1v-29h-575v29q17 1 47 1t46.5 0.5t39.5 2.5t36 7.5t26 14t18.5 22.5t5.5 34v1034l8 135l-518 -1280h-60
l-555 1280l13 -135v-1034q0 -14 2.5 -25t9.5 -19.5t13 -14t19.5 -9.5t22 -6.5t27.5 -3.5t29.5 -1.5t34.5 -1.5t36 -1v-29h-481v29q12 0 36 1t35.5 1.5t31.5 1.5t30 3.5t25 6.5t22 9.5t15 13.5t11 19.5t3 25.5l-2 1210q0 38 -19 55.5t-43 21t-96 5.5q-31 1 -49 2z" />
    <glyph glyph-name="N" unicode="N" horiz-adv-x="1579" 
d="M350 111q0 -14 2.5 -25t9.5 -19.5t13 -14t19.5 -9.5t22 -6.5t28 -3.5t30 -1.5t34.5 -1.5t36 -1v-29h-482v29q12 0 36 1t35.5 1.5t31.5 1.5t30 3.5t25 6.5t22 9.5t15 13.5t11 19.5t3 25.5v1194q-54 70 -86 83.5t-141 16.5v29h322l903 -1190v1056q0 70 -35.5 86t-173.5 19
v29h493v-29q-138 -3 -173 -19t-35 -86v-1300h-78l-918 1210v-1099z" />
    <glyph glyph-name="O" unicode="O" horiz-adv-x="1581" 
d="M793 -23q-123 0 -233.5 40t-195 110t-146.5 163t-94 203.5t-32 225.5q0 152 51 287.5t141.5 236t222.5 159t286 58.5t285.5 -58.5t220.5 -159t139.5 -236t50.5 -287.5q0 -145 -50.5 -279t-139.5 -237t-221 -164.5t-285 -61.5zM793 1399q-162 0 -279.5 -89.5t-176 -241.5
t-58.5 -349q0 -131 34.5 -251.5t97.5 -215t162.5 -151t219.5 -56.5q97 0 180 37t143 101t102.5 149.5t63.5 183.5t21 203q0 197 -57.5 349t-174 241.5t-278.5 89.5z" />
    <glyph glyph-name="P" unicode="P" horiz-adv-x="1214" 
d="M45 1405v29h555q269 0 401 -106.5t132 -289.5q0 -196 -153 -317t-423 -121h-141v-485q0 -43 26.5 -62t57.5 -22t116 -2h56v-29h-627v29q17 1 51 1t51 0.5t41.5 5t36 13t20.5 25t9 41.5v1206q0 17 -3.5 29.5t-8.5 21.5t-17.5 14.5t-22 8.5t-30 5t-35 2.5t-43.5 1t-49 1.5z
M543 653q198 0 310 108t112 275q0 158 -110 252t-323 94h-116v-729h127z" />
    <glyph glyph-name="Q" unicode="Q" horiz-adv-x="1619" 
d="M1579 -244q-224 -10 -372.5 10.5t-247.5 69.5t-199 141q-146 7 -272.5 71t-212.5 165.5t-134.5 233t-48.5 272.5q0 152 51 287.5t141.5 236t222.5 159t286 58.5t285.5 -58.5t220.5 -159t139.5 -236t50.5 -287.5q0 -168 -64.5 -318t-188 -258.5t-284.5 -146.5
q101 -90 210 -139.5t202 -62.5t215 -11v-27zM793 1399q-162 0 -279.5 -89.5t-176 -241.5t-58.5 -349q0 -131 34.5 -251.5t97.5 -215t162.5 -151t219.5 -56.5q97 0 180 37t143 101t102.5 149.5t63.5 183.5t21 203q0 197 -57.5 349t-174 241.5t-278.5 89.5z" />
    <glyph glyph-name="R" unicode="R" horiz-adv-x="1310" 
d="M1249 45l92 -16v-29h-94q-60 0 -112.5 15.5t-93 40.5t-80 68t-69 84.5t-64 104t-60 114t-63.5 127t-68 130.5q-25 -2 -78 -2h-143v-569q0 -21 4.5 -35.5t15 -23.5t20.5 -14t30.5 -7t35 -2.5t42.5 -0.5t46 -1v-29h-565v29q19 1 49.5 1t46 0.5t37.5 2.5t33 7t22.5 14
t16 23.5t4.5 35.5v1187q0 78 -25.5 91.5t-162.5 13.5h-21v29h604q212 0 339.5 -87.5t127.5 -250.5q0 -137 -79.5 -238.5t-235.5 -144.5q6 -13 21 -43q35 -72 57 -116.5t65 -127t77.5 -137t76.5 -113.5t80 -92t71 -39zM596 733q90 0 170 40.5t133 121.5t53 184q0 64 -22 117
t-69 96.5t-130 67.5t-196 24h-119v-651h180z" />
    <glyph glyph-name="S" unicode="S" horiz-adv-x="1116" 
d="M987 1329l-59 -352h-31q3 190 -97.5 310t-291.5 120q-122 0 -202.5 -69.5t-80.5 -176.5q0 -101 61 -166t179 -121l301 -139q138 -64 200 -144.5t62 -189.5q0 -83 -32 -158t-92 -135t-154.5 -95.5t-210.5 -35.5q-80 0 -157.5 19.5t-143 54.5t-97.5 56t-73 51l41 360h30
q5 -222 118 -355.5t308 -129.5q150 3 231 94.5t81 224.5q0 79 -50.5 142.5t-164.5 115.5l-293 133q-297 135 -297 365q0 111 62.5 191.5t168 120.5t240.5 40q134 0 269 -49.5t175 -81.5z" />
    <glyph glyph-name="T" unicode="T" horiz-adv-x="1374" 
d="M29 977l57 457h1202l58 -457h-35q-14 87 -27.5 145t-34 111t-47 82.5t-65 47t-90.5 17.5h-275v-1267q0 -59 30 -70t202 -14v-29h-629v29q163 3 199 15t36 69v1267h-282q-117 0 -174 -95t-91 -308h-34z" />
    <glyph glyph-name="U" unicode="U" horiz-adv-x="1542" 
d="M10 1405v29h580v-29q-21 -1 -53 -1t-47.5 -0.5t-37 -2.5t-31.5 -7t-21 -14t-15 -23.5t-4 -35.5v-782q0 -226 117.5 -356t304.5 -130q208 0 318 133t110 351v784q0 61 -25 73t-126 11h-58v29h502v-29q-21 -1 -53 -1t-47.5 -0.5t-37 -2.5t-31.5 -7t-21 -14t-15 -23.5
t-4 -35.5v-780q0 -134 -40 -241.5t-110 -177t-163.5 -107t-202.5 -38.5q-277 -2 -428.5 137t-151.5 423v784q0 21 -2.5 35.5t-12.5 23.5t-18 14t-30 7t-36.5 2.5t-50 0.5t-59.5 1z" />
    <glyph glyph-name="V" unicode="V" horiz-adv-x="1331" 
d="M-139 1405q129 -3 160 -12q37 -12 61 -56q11 -19 29 -61l563 -1276h51l477 1290q18 46 40.5 68t68.5 33.5t133 13.5v29h-524v-29q16 0 46 -1q31 0 45.5 -0.5t38 -2.5t33.5 -5.5t24 -10.5t18 -17t6.5 -25t-2 -35t-13.5 -46l-381 -1026l-452 1038q-15 33 -20.5 53.5
t-1.5 35.5t17 22.5t39.5 11.5t62 5.5t88.5 2.5h13v29h-620v-29z" />
    <glyph glyph-name="W" unicode="W" horiz-adv-x="1939" 
d="M913 1335q-7 20 -25 34t-39 20.5t-52.5 10.5t-55 4h-56t-48.5 1v29h618v-29q-15 -1 -36 -1h-35.5t-33.5 -0.5t-30.5 -2t-25.5 -4.5t-19.5 -7.5t-13 -12t-5 -18t4.5 -24.5l369 -1048l325 975q18 53 21 81.5t-20 42t-46 15.5t-90 3q-36 1 -57 1v29h489v-29
q-107 -4 -136 -14q-49 -15 -67 -68l-426 -1323h-51l-373 1085l-395 -1085h-51l-453 1303q-11 33 -19.5 48.5t-20.5 28t-33.5 16.5t-50 6t-78.5 3h-11v29h609v-29q-28 -1 -76 -1h-53.5t-40.5 -2t-31.5 -6.5t-18 -12t-10.5 -20t2.5 -30t10.5 -41.5l352 -1005l332 905z" />
    <glyph glyph-name="X" unicode="X" horiz-adv-x="1435" 
d="M-76 1405v29h703v-29q-72 -1 -115 -3.5t-78 -9t-47.5 -16.5t-14 -28.5t11 -42.5t38.5 -60l297 -411l319 421q16 21 27.5 38t17 31t8.5 24.5t-2 19t-10.5 14t-20.5 9.5t-27.5 6.5t-37 4t-44 2t-52.5 1.5v29h547v-29q-119 -1 -177 -22t-100 -76l-403 -537l450 -625
q14 -20 27.5 -35.5t29 -27t26.5 -20t30 -14t29.5 -8.5t34.5 -5t35 -3t41 -1.5t44 -1.5v-29h-723v29q177 3 214 11q55 11 47 48q-5 21 -29 55l-361 502l-335 -471q-36 -51 -43.5 -80t22.5 -42.5t66 -17t120 -5.5v-29h-575v29q126 4 186.5 27t92.5 67l419 588l-450 624
q-8 11 -16 19.5t-15 15t-17.5 11.5t-17 8.5t-21.5 6t-22.5 4t-27 2.5t-28.5 1t-35 1t-38 1z" />
    <glyph glyph-name="Y" unicode="Y" horiz-adv-x="1255" 
d="M-100 1405v29h608v-29h-150q-65 0 -78 -26t23 -83l379 -608l315 549q39 66 49.5 101t-5.5 51t-64 16h-143v29h501v-29h-78q-19 0 -35 -2.5t-27.5 -6t-23 -12t-18 -14t-15.5 -19t-13 -21t-14 -25.5l-15 -27l-375 -672v-487q0 -16 2 -28.5t8.5 -22t12.5 -15.5t19 -10.5
t22 -6.5t29 -3.5t32 -2t38 -1t42 -0.5v-29h-568v29q16 0 42 0.5t38.5 1t32.5 2t29.5 3.5t23 6.5t19.5 10.5t12.5 15.5t9 22t2.5 28.5v487l-393 639q-60 98 -77 118q-40 41 -97 42h-100z" />
    <glyph glyph-name="Z" unicode="Z" horiz-adv-x="1294" 
d="M86 39l23 -39h1079l61 455h-43q-14 -79 -26 -131t-32.5 -106t-45.5 -85t-63 -50.5t-87 -19.5h-663l936 1340l-23 31l-1055 2v-2l-45 -455h41q11 65 20.5 110t24 94t32.5 80t43 57.5t58.5 39t75.5 12.5h623z" />
    <glyph glyph-name="bracketleft" unicode="[" horiz-adv-x="622" 
d="M569 1507v-32h-272v-1893h274v-33h-426v9h-2v1949h426z" />
    <glyph glyph-name="backslash" unicode="\" horiz-adv-x="808" 
d="M748 -299h-93l-716 1853l90 2z" />
    <glyph glyph-name="bracketright" unicode="]" horiz-adv-x="622" 
d="M53 1507h426v-1949h-2v-9h-426v33h275v1893h-273v32z" />
    <glyph glyph-name="asciicircum" unicode="^" horiz-adv-x="858" 
d="M442 1434l303 -535h-88l-229 410l-227 -410h-88l303 535h26z" />
    <glyph glyph-name="underscore" unicode="_" horiz-adv-x="950" 
d="M20 -168h910v-61h-910v61z" />
    <glyph glyph-name="grave" unicode="`" horiz-adv-x="587" 
d="M479 1169l27 31l-344 324l-80 -101z" />
    <glyph glyph-name="a" unicode="a" horiz-adv-x="1046" 
d="M725 657q-2 134 -75 210.5t-208 76.5q-116 0 -198 -65.5t-105 -176.5h-37q3 36 15.5 77t42 90t72 87.5t111.5 64.5t153 26q171 0 270.5 -95t99.5 -250v-555q0 -46 13 -72.5t36 -34.5t54 -10t67 1v-31h-311v156q-113 -89 -198 -131.5t-167 -42.5q-46 0 -89.5 13.5t-81 40
t-60.5 72t-23 103.5q0 52 18.5 94.5t49 73t81.5 56.5t103.5 44.5t126.5 38.5q45 12 240 62v77zM252 244q0 -82 48.5 -123t123.5 -41q65 0 144 32.5t157 90.5v325q-39 -11 -100 -27t-101 -27t-71 -21q-106 -33 -153.5 -83.5t-47.5 -125.5z" />
    <glyph glyph-name="b" unicode="b" horiz-adv-x="1220" 
d="M338 807q78 57 161.5 97t135.5 40q159 0 265 -117.5t106 -328.5q0 -202 -92.5 -324.5t-270.5 -122.5q-104 0 -181.5 38.5t-123.5 90.5v627zM-10 1442q116 31 138 32q49 4 62 -37q7 -23 7 -65v-1284q6 -2 54.5 -24.5t74 -32t74 -25t96 -22.5t98.5 -7q234 0 387.5 165.5
t153.5 428.5q0 229 -116.5 351t-313.5 122q-119 0 -367 -176v711l-348 -104v-33z" />
    <glyph glyph-name="c" unicode="c" horiz-adv-x="1081" 
d="M977 901l-72 -280h-28q-2 99 -27.5 173.5t-68.5 117t-95 63t-113 20.5q-158 0 -252 -108.5t-94 -292.5q0 -234 113 -372t287 -138q66 0 120 16t96 48.5t74 71t64 93.5l31 -18q-57 -140 -170 -229t-273 -89q-203 0 -343 145t-140 370q0 114 32.5 213.5t94.5 177t159.5 122
t219.5 44.5q104 0 196 -35.5t189 -112.5z" />
    <glyph glyph-name="d" unicode="d" horiz-adv-x="1239" 
d="M895 168q-89 -78 -188 -128t-175 -50q-88 0 -168 34t-142 95t-99 155.5t-37 206.5q0 120 43.5 225.5t116.5 179t173 116t210 42.5q124 0 266 -67v414q0 21 -2.5 36.5t-10 25t-13.5 16t-21.5 7.5t-25 1t-32 -5t-35.5 -8.5t-43 -11.5q-28 -8 -44 -12v33l368 104v-1427
q0 -81 35 -101t162 -20v-29h-338v168zM233 565q0 -108 31.5 -198.5t83 -148.5t116.5 -90t134 -32q66 0 153 40.5t144 92.5v605q-131 143 -301 143q-172 0 -266.5 -116t-94.5 -296z" />
    <glyph glyph-name="e" unicode="e" horiz-adv-x="1118" 
d="M86 512q0 108 30.5 203.5t89 170t152 118t211.5 43.5q185 0 306.5 -115.5t123.5 -286.5h-774q-2 -16 -2 -51q0 -223 113.5 -364.5t306.5 -141.5q41 0 83.5 10t93.5 34t100 74.5t86 121.5l36 -15q-149 -336 -458 -336q-220 0 -359 146.5t-139 388.5zM231 684h596
q-17 141 -97 225t-200 84q-66 0 -120 -26t-89.5 -71t-57.5 -98t-32 -114z" />
    <glyph glyph-name="f" unicode="f" horiz-adv-x="792" 
d="M256 1196q0 167 97 275t265 108q95 0 181 -45t145 -129l-80 -277h-28q0 217 -53.5 309.5t-161.5 92.5q-66 0 -110.5 -25.5t-68.5 -75t-33.5 -109.5t-9.5 -142v-154h265v-43h-265v-848q0 -24 6.5 -41.5t26.5 -28.5t37 -17.5t58.5 -10t70 -4.5t90.5 -2v-29h-610v29
q32 1 46 2t40 4.5t38 10t27 17.5t21 28.5t6 41.5v848h-125v43h125v172z" />
    <glyph glyph-name="g" unicode="g" horiz-adv-x="1159" 
d="M545 375q-70 0 -125 14q-57 -31 -98 -60.5t-41 -37.5q0 -67 118 -92l437 -95q123 -26 177 -68t54 -128q0 -109 -74 -201t-200 -145.5t-273 -53.5q-123 0 -226.5 42t-163.5 116t-60 162q0 23 18 50t64 64t68.5 53.5t83.5 59.5q16 12 24 17q-93 30 -131.5 76t-38.5 108
q0 33 209 150q-107 39 -171.5 120t-64.5 187q0 140 121 237t293 97q117 0 219 -48q119 10 185 43.5t118 102.5l18 -8l-63 -166h-207q73 -47 114.5 -114t41.5 -144q0 -147 -125 -242.5t-301 -95.5zM537 1010q-117 0 -184.5 -82.5t-67.5 -196.5q0 -133 79 -223t214 -90
q106 0 172.5 79.5t66.5 196.5q0 124 -78.5 220t-201.5 96zM219 -129q0 -139 87.5 -220t256.5 -81q96 0 185 33.5t145.5 93.5t56.5 129q0 61 -35 93t-127 52l-380 80l-11 2q-70 -51 -124 -106.5t-54 -75.5z" />
    <glyph glyph-name="h" unicode="h" horiz-adv-x="1298" 
d="M963 608q0 170 -61 256t-197 86q-56 0 -123.5 -29.5t-106 -55.5t-84.5 -62q-7 -6 -10 -8v-680q0 -21 3 -35.5t12.5 -23.5t17.5 -14.5t27 -8t31 -3t40.5 -0.5t44.5 -1v-29h-494v29q15 1 43.5 1t43 0.5t35 4.5t30.5 12t17.5 22.5t7.5 36.5v1225q0 26 -3 46.5t-6.5 35
t-12 24t-15 15t-20.5 6.5t-23 1t-28 -5t-30 -8.5t-34.5 -11t-36.5 -11.5v31l350 125v-729q7 5 37 25.5t43 29t43 28t47 29.5t45 26t48 24.5t43.5 17.5t44 13t38.5 4q151 0 242.5 -94t91.5 -244v-594q0 -18 3 -31.5t7.5 -22.5t15 -15t19 -9t25.5 -4.5t29 -2t35.5 -0.5
t39.5 -1v-29h-494v29q14 1 38.5 1t37.5 0.5t32.5 3t29.5 8t21 14.5t15.5 24t4.5 35v493z" />
    <glyph glyph-name="i" unicode="i" horiz-adv-x="571" 
d="M33 909v33l348 105v-947q0 -26 8 -41t23 -21t36 -7.5t48 -1t59 -0.5v-29h-494v29q27 2 52.5 0.5t48.5 1t40.5 8t27.5 21.5t10 42v715q0 23 -1 40.5t-4.5 31t-6 23.5t-10.5 16t-13 10t-18 4t-21 -0.5t-27 -4.5t-30 -7t-36 -10q-26 -7 -40 -11zM285 1337q45 0 76.5 32.5
t31.5 78.5q0 44 -32 76t-76 32q-49 0 -80 -33t-31 -75q0 -45 33 -78t78 -33z" />
    <glyph glyph-name="j" unicode="j" horiz-adv-x="630" 
d="M334 1358q46 0 77 32t31 78q0 44 -32 76.5t-76 32.5q-49 0 -80 -33.5t-31 -75.5q0 -44 32.5 -77t78.5 -33zM2 -449q82 37 136 83t81.5 101t38 107.5t10.5 120.5v875q0 32 -3.5 54.5t-8.5 37t-17 21.5t-21.5 10t-29.5 -0.5t-34.5 -7t-43.5 -11t-49 -12.5v33l349 84v-959
q0 -109 -19.5 -193.5t-51.5 -141t-86 -101t-109 -71.5t-134 -54z" />
    <glyph glyph-name="k" unicode="k" horiz-adv-x="1161" 
d="M979 119q30 -49 72.5 -65.5t136.5 -24.5v-29h-324l-356 610l-150 -112v-363q0 -68 29.5 -85.5t144.5 -18.5v-31h-493v31q63 1 94.5 4t52.5 15t26 30.5t5 54.5v1251q0 39 -5.5 62t-16.5 34t-31 10.5t-45 -7t-61 -18.5l-27 -9v35l327 104v-1036l461 342q37 27 49.5 47
t-6 32.5t-71.5 12.5h-82v29h430v-29q-80 0 -140 -27.5t-192 -127.5l-184 -140z" />
    <glyph glyph-name="l" unicode="l" horiz-adv-x="587" 
d="M377 125q0 -26 8.5 -44t19.5 -27.5t37.5 -15t45.5 -6.5t61 -3v-29h-492v29q32 1 46 2t40.5 4.5t38.5 10t27 17.5t21 28.5t6 41.5v1239q0 35 -11 55.5t-26.5 27t-40.5 4.5t-43 -7.5t-45.5 -14.5t-38.5 -12v29l346 125v-1454z" />
    <glyph glyph-name="m" unicode="m" horiz-adv-x="1832" 
d="M381 123q0 -17 2 -29.5t8 -22t10.5 -16.5t17 -11t19.5 -7t25 -4.5t27.5 -1.5t33 -1t35.5 -1v-29h-498v29q10 0 33.5 1t33.5 1.5t29.5 2.5t28 6t21.5 10.5t18.5 16t10 24t4.5 32.5v743q0 31 -7 48.5t-20 24.5t-33.5 6t-45 -7t-57.5 -16q-29 -9 -44 -13v33l348 105v-201
q6 5 40.5 33.5t48 39.5t46 36t51.5 37t45 27t46.5 21.5t37.5 6.5q243 0 305 -203q7 5 35.5 29t41 34.5t41.5 32.5t45.5 33.5t42 28t43.5 24.5t37.5 14.5t35.5 6.5q164 0 239.5 -89.5t75.5 -242.5v-592q0 -17 2 -29.5t7.5 -22t10 -16.5t16.5 -11.5t18.5 -7t24.5 -4t27 -1.5
t33 -1t35 -1v-29h-493v29q7 0 37.5 1t39 2t31 4t30.5 9t20 16t16 25.5t4 36.5v530q0 293 -225 293q-34 0 -70 -13t-79 -44t-57 -42t-54 -46q6 -40 6 -86v-592q0 -17 2 -29.5t7.5 -22t10 -16.5t16.5 -11.5t18.5 -7t24.5 -4t27 -1.5t33 -1t35 -1v-29h-494v29q10 0 33.5 1
t33.5 1.5t29.5 2.5t28 6t21.5 10.5t18.5 16t10 24t4.5 32.5v530q0 68 -13 120.5t-34.5 84.5t-52 52.5t-61.5 28t-67 7.5q-100 0 -268 -155v-668z" />
    <glyph glyph-name="n" unicode="n" horiz-adv-x="1308" 
d="M965 649q0 295 -242 295q-24 0 -50.5 -6t-49.5 -14.5t-51 -23t-46.5 -26t-45 -30t-39 -28t-34.5 -26.5t-26 -20v-647q0 -17 2 -29.5t8 -22t10.5 -16.5t17 -11t19.5 -7t25 -4.5t27.5 -1.5t33 -1t35.5 -1v-29h-498v29q10 0 33.5 1t33.5 1.5t29.5 2.5t28 6t21.5 10.5
t18.5 16t10 24t4.5 32.5v743q0 31 -7 48.5t-20 24.5t-33.5 6t-45 -7t-57.5 -16q-29 -9 -44 -13v33l348 105v-211q11 7 57.5 39.5t70.5 48.5t68.5 43.5t74 42t64 26t58.5 11.5q148 0 242 -96t94 -240v-588q0 -17 2 -29.5t8 -22t10.5 -16.5t17 -11t19.5 -7t25 -4.5t27.5 -1.5
t33 -1t35.5 -1v-29h-502v29q10 0 33.5 1t33.5 1.5t29.5 2.5t28 6t21.5 10.5t18.5 16t10 24t4.5 32.5v526z" />
    <glyph glyph-name="o" unicode="o" horiz-adv-x="1196" 
d="M604 -23q-146 0 -266 74.5t-186 197t-66 263.5q0 145 66 267t185.5 195t266.5 73t263.5 -73t179.5 -195t63 -267q0 -106 -37 -203t-102.5 -170.5t-161 -117.5t-205.5 -44zM604 989q-153 0 -253.5 -136.5t-100.5 -340.5q0 -130 45 -239t127 -173.5t182 -64.5
q99 0 178 64.5t121.5 173t42.5 239.5q0 205 -95 341t-247 136z" />
    <glyph glyph-name="p" unicode="p" horiz-adv-x="1251" 
d="M27 909v33l348 105v-195q104 94 152 125q106 70 227 70q177 0 294 -126.5t117 -338.5q0 -256 -154.5 -422t-392.5 -166q-137 0 -243 47v-399q0 -19 2.5 -32.5t10.5 -24.5t16 -18.5t26 -12.5t32.5 -8t44.5 -5t52.5 -2.5t65.5 -1.5v-29h-570v29q120 3 149 18.5t29 86.5
v1196q0 85 -36.5 97.5t-128.5 -16.5q-27 -7 -41 -10zM375 188q51 -38 84 -59t92 -41t123 -20q169 0 262.5 124.5t93.5 319.5q0 193 -100 312.5t-252 119.5q-77 0 -158 -44t-145 -118v-594z" />
    <glyph glyph-name="q" unicode="q" horiz-adv-x="1177" 
d="M86 481q0 251 155.5 408.5t420.5 157.5q115 0 288 -74l45 74h17v-1418q0 -19 3.5 -32.5t7.5 -23.5t15 -16t18 -10t26 -6t28.5 -2t36 -1t39.5 -1v-29h-555v29q20 0 55 1q50 1 71.5 2t49.5 5.5t38 14t17.5 26t7.5 43.5v527q-25 -28 -55 -53.5t-76.5 -55.5t-107 -48.5
t-125.5 -18.5q-185 0 -302.5 143t-117.5 358zM217 557q0 -204 103.5 -335.5t252.5 -131.5q156 0 297 135v641q-65 48 -142 79.5t-146 31.5q-168 0 -266.5 -112t-98.5 -308z" />
    <glyph glyph-name="r" unicode="r" horiz-adv-x="960" 
d="M817 645q21 155 -22.5 236.5t-135.5 81.5q-28 0 -60 -16.5t-56.5 -35t-63.5 -60.5t-57 -63.5t-60 -72.5v-596q0 -27 7 -43t24 -26t45 -14t69.5 -5.5t98.5 -1.5h53v-29h-616v29q113 2 137 9q36 11 40 53q1 9 1 20v741q0 35 -9 55.5t-21.5 28.5t-39 5.5t-47.5 -8.5t-62 -19
l-9 -3v31l329 105v-263q26 32 35 43.5t39.5 47t48.5 52.5t50.5 45.5t57.5 42t57 25t61 11.5q76 0 136 -44.5t85 -109.5l-88 -252h-27z" />
    <glyph glyph-name="s" unicode="s" horiz-adv-x="942" 
d="M819 944l-41 -272h-28q-4 87 -29.5 151.5t-68 102.5t-94.5 56.5t-114 18.5q-97 0 -151.5 -50.5t-54.5 -129.5q0 -77 47.5 -124t148.5 -87l152 -59q142 -57 202 -117.5t60 -163.5q0 -124 -110.5 -208.5t-276.5 -84.5q-101 0 -204.5 39t-162.5 80l15 291h30
q17 -163 109 -261.5t215 -98.5q112 0 181 62t69 144q0 68 -47.5 117.5t-165.5 95.5l-148 58q-120 47 -185 111t-65 169q0 124 97 193.5t260 69.5q100 0 200 -31t160 -72z" />
    <glyph glyph-name="t" unicode="t" horiz-adv-x="780" 
d="M748 162q-72 -91 -137.5 -138t-159.5 -47q-96 0 -169 62.5t-73 175.5v766h-148v43q218 36 250 266h39v-266h326v-43h-326v-717q0 -93 46 -143.5t110 -50.5q63 0 109.5 26t103.5 90z" />
    <glyph glyph-name="u" unicode="u" horiz-adv-x="1298" 
d="M20 909v33l351 105v-672q0 -144 61.5 -223.5t165.5 -79.5q83 0 174.5 56.5t147.5 119.5v610q0 23 -2 39t-7.5 27t-10.5 17.5t-17.5 8t-21.5 1.5t-28 -5t-33 -9.5t-41 -13t-46 -14.5v33l348 105v-869q0 -53 9 -83.5t37.5 -44t50.5 -16.5t77 -4q22 -1 33 -1v-29h-348v197
q-220 -220 -367 -220q-144 0 -235 92.5t-91 239.5v549q0 25 -3.5 42.5t-9 28t-17.5 15t-21.5 5.5t-30 -3.5t-35 -9t-43 -13.5t-47.5 -14z" />
    <glyph glyph-name="v" unicode="v" horiz-adv-x="1040" 
d="M-61 995q111 -3 137.5 -15.5t54.5 -82.5l363 -897h51l348 885q9 20 18 35.5t20 27t18.5 19.5t20.5 13t20.5 8t24 4.5t24 2t29 0.5h30.5v29h-432v-29q25 2 50 1t48 -3.5t40 -12t26.5 -23.5t8.5 -39t-14 -58l-268 -676l-276 701q-8 21 -13 35t-5.5 26.5t0.5 19.5t10.5 13
t17.5 8.5t29.5 4.5t38 2.5t49.5 0.5v29h-469v-29z" />
    <glyph glyph-name="w" unicode="w" horiz-adv-x="1517" 
d="M504 995v29h454v-29q-126 -2 -146 -9q-26 -10 -13 -42l282 -723l240 660q16 42 18 65t-13.5 33.5t-36.5 13t-66 2.5h-25v29h389v-29h-39t-38 -1t-30.5 -3.5t-31 -9t-23.5 -17t-23.5 -27.5t-17.5 -40l-313 -897h-45l-260 668l-240 -668h-45l-370 897q-11 25 -17.5 39
t-18.5 26.5t-20.5 17t-32 8.5t-43 5t-61.5 2v29h463v-29q-111 -2 -131 -7q-31 -10 -18 -46l4 -10l305 -711l196 524l-69 179q-14 36 -26.5 49t-40 17.5t-97.5 4.5z" />
    <glyph glyph-name="x" unicode="x" horiz-adv-x="1138" 
d="M23 995v29h479v-29q-101 -2 -116 -7q-25 -9 -4 -45q5 -8 11 -17l217 -316l199 252q31 40 37.5 67.5t-9 40.5t-41.5 20t-59 6t-63 -1v29h444v-29q-43 -1 -64.5 -3t-47 -8t-44 -21t-40.5 -38.5t-52 -62.5l-227 -299l248 -358q32 -48 53.5 -74t53 -52t69 -37.5t88.5 -12.5
v-29h-516v29q67 1 100 4.5t50 16t10 34.5t-35 61l-215 310l-238 -293q-30 -37 -37 -63.5t6 -40t36.5 -21.5t54.5 -8h61v-29h-428v29q6 0 26 0.5t25 0.5t21 1t21.5 3t19 5.5t20 9t18.5 13t21.5 17.5t21.5 23t25 29l293 369l-274 395q-43 63 -82.5 80t-136.5 20z" />
    <glyph glyph-name="y" unicode="y" horiz-adv-x="962" 
d="M-111 995q80 -2 109 -11.5t47 -45.5l391 -844l-274 -547l86 -39l608 1389q9 20 14 32t13 24t11 17.5t14.5 11.5t15 7.5t21 3.5t25 1.5t33.5 0t41 0.5v29h-413v-29q113 3 137 -4q37 -11 23 -60q-3 -14 -11 -32l-274 -639l-287 623q-12 27 -17 46t2 31t14.5 19t34.5 10.5
t47.5 4t66.5 1.5v29h-478v-29z" />
    <glyph glyph-name="z" unicode="z" horiz-adv-x="991" 
d="M96 0h809l41 324h-33q-8 -49 -16 -82.5t-23 -73.5t-34.5 -64t-51 -40.5t-71.5 -16.5h-461l678 946l-21 31h-780l-39 -324h33q48 279 221 279h400l-670 -948z" />
    <glyph glyph-name="braceleft" unicode="{" horiz-adv-x="757" 
d="M477 8q0 -111 14 -188t48 -125.5t54.5 -66.5t69.5 -49q9 -6 13 -9l-8 -21q-84 21 -147.5 55.5t-99.5 82t-59 88t-31.5 99t-10 88.5t-1.5 81v16q0 24 0.5 74t0.5 72t-1 62.5t-3.5 61t-7 50.5t-11.5 48t-17 36.5t-24 32.5q-8 8 -20.5 15.5t-22.5 11.5t-28 8.5l-26 6.5
t-27.5 5t-22.5 4v10q2 0 34.5 7t45.5 11t35 13t34 20q38 35 49.5 99t11.5 256q0 25 -1 67t-2 68t1 65t7 65t16 60t28 58.5t44 52t62.5 48t84.5 40.5t109 35l8 -21q-40 -17 -70.5 -33.5t-52.5 -36t-36.5 -35.5t-23 -40.5t-13 -43t-5.5 -51.5t-0.5 -56.5t1.5 -67.5t1 -76
q0 -139 -14.5 -229t-50 -145.5t-81 -83.5t-120.5 -50q96 -29 152 -84.5t85 -166.5t29 -294z" />
    <glyph glyph-name="bar" unicode="|" horiz-adv-x="354" 
d="M143 1460h68v-1720h-68v1720z" />
    <glyph glyph-name="braceright" unicode="}" horiz-adv-x="757" 
d="M281 8q0 183 29 294t85 166.5t152 84.5q-75 22 -120.5 50t-81 83.5t-50 145.5t-14.5 229q0 32 1 76t1.5 67.5t-0.5 56.5t-5.5 51.5t-13 43t-23 40.5t-36.5 35.5t-52.5 36t-70.5 33.5l8 21q60 -15 109 -35t84.5 -40.5t62.5 -48t44 -52t28 -58.5t16 -60t6.5 -65t1 -65
t-2 -68t-1.5 -67q0 -191 12 -255.5t50 -99.5q12 -11 34 -20t35 -13t45.5 -11t34.5 -7v-10q-3 -1 -22.5 -4t-27.5 -5l-26 -6.5t-28 -8.5t-22.5 -11.5t-20.5 -15.5q-12 -12 -21.5 -27t-16.5 -35t-11.5 -37.5t-7.5 -46t-4.5 -48t-2 -55.5t-0.5 -57v-64.5v-66.5v-17
q0 -43 -0.5 -68t-7 -75t-18.5 -83.5t-38 -79t-62 -77t-93 -62t-129 -48.5l-8 21q69 45 93 67q92 89 104 295q2 36 2 76z" />
    <glyph glyph-name="asciitilde" unicode="~" horiz-adv-x="946" 
d="M666 489q22 0 44.5 19t48.5 60.5t45 77t50 99.5l-23 11q-83 -140 -135 -140q-49 0 -130.5 36t-159 72t-115.5 36q-16 0 -36 -16t-50 -56.5t-49.5 -70t-61.5 -95.5l21 -12q51 67 82.5 97t62.5 30q46 0 125.5 -37t158.5 -74t122 -37z" />
    <glyph glyph-name="uni00A0" unicode="&#xa0;" horiz-adv-x="512" 
 />
    <glyph glyph-name="exclamdown" unicode="&#xa1;" horiz-adv-x="600" 
d="M291 688l-64 -1098h174l-65 1098h-45zM311 1047q-45 0 -75.5 -30.5t-30.5 -76.5q0 -43 31 -73.5t75 -30.5q42 0 73.5 31t31.5 73q0 45 -31.5 76t-73.5 31z" />
    <glyph glyph-name="cent" unicode="&#xa2;" horiz-adv-x="1052" 
d="M950 887l-69 -273h-29q-3 187 -85.5 276t-207.5 89q-154 0 -245 -105.5t-91 -285.5q0 -227 108.5 -360.5t278.5 -133.5q123 0 201 56t143 167l29 -18q-54 -131 -155.5 -216.5t-247.5 -92.5v-266h-72v268q-181 18 -301.5 155t-120.5 342q0 137 46 251t143 192t233 94v266
h72v-262q101 0 188.5 -34t181.5 -109z" />
    <glyph glyph-name="sterling" unicode="&#xa3;" horiz-adv-x="1218" 
d="M383 1169q0 -65 19.5 -125t65 -149t56.5 -113h387l-18 -61h-344q20 -68 20 -125v-10h340l-18 -62h-328q-11 -72 -44 -143t-72 -121.5t-81.5 -92.5t-71.5 -64t-44 -29l545 4q120 1 182.5 77.5t118.5 284.5h34l-96 -440h-884l-19 55q117 73 200 200t83 230q0 27 -2 39h-344
v60h333q-13 60 -47 137h-284v59h258q-27 59 -38 83.5t-29.5 75t-25.5 94t-6 89.5q1 71 28.5 129.5t71 97t101 64.5t117.5 37.5t121 11.5q148 0 261 -57t181 -137l-74 -328h-35q2 108 -18 192t-53 136t-78.5 85.5t-91 46.5t-94.5 13q-139 0 -211 -71.5t-72 -172.5z" />
    <glyph glyph-name="currency" unicode="&#xa4;" horiz-adv-x="1228" 
d="M612 246q-151 0 -268 96l-156 -158l-51 54l158 159q-84 108 -84 252q0 142 82 248l-162 164l51 53l160 -162q117 99 270 99q151 0 269 -97l157 160l52 -53l-160 -160q84 -111 84 -252t-80 -248l162 -163l-52 -54l-159 162q-114 -100 -273 -100zM612 322q139 0 232.5 93.5
t93.5 233.5q0 139 -93 232.5t-233 93.5q-139 0 -232 -93t-93 -233t93 -233.5t232 -93.5z" />
    <glyph glyph-name="yen" unicode="&#xa5;" horiz-adv-x="1214" 
d="M901 610v-61h-203v-115h203v-61h-203v-254q0 -16 2 -28.5t8.5 -22t12.5 -15.5t19 -10.5t22 -6.5t29 -3.5t32 -2t38 -1t42 -0.5v-29h-563v29q16 0 42 0.5t38.5 1t32.5 2t29.5 3.5t23 6.5t19.5 10.5t12.5 15.5t9 22t2.5 28.5v254h-223v59h223v117h-221v59h219l-373 637
q-58 100 -80 123q-35 37 -94 37h-100v29h608v-29h-150q-65 0 -77 -25.5t22 -83.5l359 -608l294 549q22 41 34 67t17 47.5t-2 32t-23.5 16t-45.5 5.5h-143v29h501v-29h-77q-15 0 -28.5 -2t-24 -3.5t-21 -8t-16.5 -8.5t-15 -12.5t-12 -13.5t-11.5 -17.5t-10.5 -17.5
t-11.5 -21.5t-11.5 -22.5l-355 -668h201z" />
    <glyph glyph-name="brokenbar" unicode="&#xa6;" horiz-adv-x="354" 
d="M143 1460h68v-747h-68v747zM143 487h68v-747h-68v747z" />
    <glyph glyph-name="section" unicode="&#xa7;" horiz-adv-x="1040" 
d="M180 139q17 -158 109.5 -256t214.5 -98q112 0 181 61.5t69 143.5q0 64 -50.5 107t-199.5 110l-55 24q-61 27 -98.5 46t-82 48t-69 57.5t-41.5 68t-17 86.5q0 92 60 155t166 88q-105 53 -158 111t-53 147q0 120 98 189t260 69q100 0 200 -30.5t160 -71.5l-40 -272h-29
q-4 87 -29 151.5t-67.5 102.5t-94.5 56.5t-114 18.5q-97 0 -152 -50t-55 -126q0 -79 57 -130t191 -107l63 -27q87 -36 138.5 -63.5t90.5 -62t54.5 -74.5t15.5 -95q0 -86 -59.5 -149.5t-163.5 -94.5q117 -55 163 -106.5t46 -142.5q0 -121 -110.5 -204t-276.5 -83
q-102 0 -205.5 38t-161.5 79l15 286h30zM279 573q0 -76 55 -127.5t180 -103.5l88 -37q75 21 120.5 72.5t45.5 105.5q0 27 -9 51t-30.5 45.5t-40.5 37.5t-56 35.5t-58 30t-64 30.5l-31 14l-41 18q-75 -12 -117 -59t-42 -113z" />
    <glyph glyph-name="dieresis" unicode="&#xa8;" horiz-adv-x="718" 
d="M178 1292q38 0 66 28t28 69q0 38 -28.5 66t-65.5 28q-40 0 -68 -28t-28 -66q0 -41 28 -69t68 -28zM543 1292q37 0 65.5 28t28.5 69q0 38 -28.5 66t-65.5 28q-40 0 -68.5 -28t-28.5 -66q0 -41 28.5 -69t68.5 -28z" />
    <glyph glyph-name="copyright" unicode="&#xa9;" horiz-adv-x="1753" 
d="M877 1382q-142 0 -265.5 -50t-210.5 -138.5t-136.5 -213t-49.5 -269.5q0 -193 84.5 -346t236 -238.5t341.5 -85.5t341.5 85t237.5 238t86 347q0 193 -86 346.5t-238 239t-341 85.5zM895 1124q-122 0 -214.5 -58t-139.5 -152.5t-47 -208.5q0 -77 27 -148.5t75.5 -126.5
t122.5 -88t162 -33q70 0 128 26.5t96 69.5t61.5 90.5t33.5 96.5h-43q-61 -189 -237 -189q-135 0 -215 101t-80 260q0 30 4.5 60.5t15 65t30 64t46 54.5t67 39t89.5 14q101 0 166 -54t94 -149h39l-7 189q-73 39 -135.5 58t-138.5 19zM877 1466q159 0 300 -56.5t243 -155.5
t161 -240t59 -303q0 -216 -100.5 -389t-275 -269t-387.5 -96q-214 0 -388.5 96t-275 269t-100.5 389q0 162 59 303t160.5 240t243 155.5t301.5 56.5z" />
    <glyph glyph-name="ordfeminine" unicode="&#xaa;" horiz-adv-x="624" 
d="M346 1335q0 81 -45.5 128.5t-128.5 47.5q-73 0 -121 -41t-63 -114h-31q1 32 14 67.5t40 72t77 60t115 23.5q108 0 174.5 -59.5t66.5 -155.5v-334q0 -52 27 -67t80 -13v-26h-203v98q-143 -109 -231 -109q-68 0 -116 39.5t-48 110.5q0 40 17.5 70.5t54 53t75.5 37t99 31.5
q130 35 147 39v41zM61 1085q0 -48 27 -74t70 -26q86 0 190 74l-2 196q-28 -8 -89.5 -24.5t-94.5 -26.5q-101 -32 -101 -119z" />
    <glyph glyph-name="guillemotleft" unicode="&#xab;" horiz-adv-x="1175" 
d="M643 520q101 -93 225.5 -245.5t184.5 -260.5l-29 -24q-163 169 -300.5 290.5t-297.5 219.5v26q165 107 307.5 231t290.5 277l29 -20q-58 -103 -181 -248.5t-229 -245.5zM217 520q101 -93 225.5 -245.5t184.5 -260.5l-29 -24q-163 169 -300.5 290.5t-297.5 219.5v26
q165 107 307.5 231t290.5 277l29 -20q-58 -103 -181 -248.5t-229 -245.5z" />
    <glyph glyph-name="logicalnot" unicode="&#xac;" horiz-adv-x="1228" 
d="M1116 829v-2h2v-544h-84v462h-911v84h993z" />
    <glyph glyph-name="uni00AD" unicode="&#xad;" horiz-adv-x="858" 
d="M102 559h654v-94h-654v94z" />
    <glyph glyph-name="registered" unicode="&#xae;" horiz-adv-x="1196" 
d="M836 692l28 -2l2 -28h-45q-32 0 -60 12t-47 27t-42 48.5t-34.5 54.5t-35 67.5t-35.5 68.5h-8h-61v-215q0 -6 1 -11t4 -8t6 -5.5t8 -4t9.5 -2t12 -0.5h13h15h15.5v-26h-250v26h15h14.5h13t12 1t10 2t8.5 3.5t6 5.5t4 8t1 11v461q0 31 -11 36t-73 5v26h260q85 0 145 -39.5
t60 -109.5q0 -55 -36.5 -96t-105.5 -58l24 -48t26.5 -52t33 -58.5t32 -47t35 -39t30.5 -13.5zM582 985q54 0 90.5 28.5t36.5 86.5q0 112 -160 112h-51v-227h84zM590 1391q-194 0 -319.5 -129t-125.5 -326q0 -201 125 -328t320 -127q191 0 319.5 128t128.5 327
q0 197 -127.5 326t-320.5 129zM590 1460q148 0 269.5 -67t192 -187t70.5 -270q0 -228 -153 -377t-379 -149q-149 0 -271 67t-192 187.5t-70 271.5q0 227 153 375.5t380 148.5z" />
    <glyph glyph-name="macron" unicode="&#xaf;" horiz-adv-x="718" 
d="M637 1382h-555v-82h555v82z" />
    <glyph glyph-name="degree" unicode="&#xb0;" horiz-adv-x="413" 
d="M166 1126q-72 0 -119 48t-47 120q0 71 47 118.5t119 47.5t119 -47.5t47 -118.5q0 -72 -47 -120t-119 -48zM166 1178q49 0 78.5 33t29.5 83t-29.5 82.5t-78.5 32.5t-79 -32.5t-30 -82.5t30 -83t79 -33z" />
    <glyph glyph-name="plusminus" unicode="&#xb1;" horiz-adv-x="1173" 
d="M1071 827v-84h-428v-270h-88v270h-453v84h453v267h88v-267h428zM1071 276v-81h-969v81h969z" />
    <glyph glyph-name="uni00B2" unicode="&#xb2;" horiz-adv-x="729" 
d="M119 1223q42 91 92.5 128.5t112.5 37.5q64 0 106.5 -43.5t42.5 -120.5q0 -62 -40 -127.5t-128 -147.5l-248 -233v-53h516l41 231h-43q-22 -93 -47.5 -123.5t-85.5 -30.5h-266l248 205q98 82 134 146t36 139q0 97 -72 163t-176 66q-202 0 -272 -223z" />
    <glyph glyph-name="uni00B3" unicode="&#xb3;" horiz-adv-x="661" 
d="M115 1294q75 105 172 105q52 0 80 -27.5t28 -64.5q0 -39 -19.5 -70.5t-58 -55t-77 -39t-93.5 -32.5l15 -49q139 23 211.5 -25.5t72.5 -152.5q0 -80 -39 -126t-108 -46q-70 0 -120 48t-60 156h-33l-27 -188q40 -30 102 -50t132 -20q119 0 199.5 74.5t80.5 175.5
q0 103 -80.5 161t-191.5 50q89 31 143 76.5t54 116.5q0 63 -48.5 106t-130.5 43q-83 0 -144.5 -41t-92.5 -100z" />
    <glyph glyph-name="acute" unicode="&#xb4;" horiz-adv-x="587" 
d="M109 1169l397 254l-80 101l-344 -324z" />
    <glyph glyph-name="uni00B5" unicode="&#xb5;" horiz-adv-x="1292" 
d="M20 909v33l345 105v-693q0 -142 60 -211t167 -69q83 0 174 56t147 118v610q0 23 -2 39t-7.5 27t-10.5 17.5t-17 8t-21 1.5t-28.5 -5t-33 -9.5t-40.5 -13t-46 -14.5v33l348 105v-869q0 -53 9 -83.5t37.5 -44t50.5 -16.5t77 -4q22 -1 33 -1v-29h-349v197
q-220 -220 -374 -220q-97 0 -174 52v-512h-138v1341q0 25 -3.5 42.5t-9 28t-17.5 15t-21.5 5.5t-30 -3.5t-35 -9t-43 -13.5t-47.5 -14z" />
    <glyph glyph-name="paragraph" unicode="&#xb6;" horiz-adv-x="1228" 
d="M1044 1434v-29q-18 -1 -46.5 -1t-44.5 -0.5t-38 -2.5t-33.5 -7t-23.5 -14t-17 -23.5t-5 -35.5v-1813h-74v1887h-139v-1887h-74v1145q-176 0 -293 113.5t-117 277.5q0 163 117.5 276.5t292.5 113.5h495z" />
    <glyph glyph-name="periodcentered" unicode="&#xb7;" horiz-adv-x="497" 
d="M250 440q42 0 73 31t31 76q0 42 -31 73t-73 31q-44 0 -75.5 -30.5t-31.5 -73.5q0 -45 31 -76t76 -31z" />
    <glyph glyph-name="cedilla" unicode="&#xb8;" horiz-adv-x="522" 
d="M197 27h59l-78 -158q61 25 98 25q74 0 119 -40.5t45 -109.5q0 -90 -91.5 -159t-260.5 -83l-6 37q138 25 198 66.5t60 115.5q0 56 -31 86.5t-76 30.5q-59 0 -124 -61l-23 16z" />
    <glyph glyph-name="uni00B9" unicode="&#xb9;" horiz-adv-x="579" 
d="M74 1337l147 39v-610q0 -19 -9 -31.5t-32 -19.5t-39 -9.5t-54 -5.5q-14 -1 -21 -2v-34h415v34q-99 8 -123 18q-32 14 -32 50v694h-13l-239 -71v-52z" />
    <glyph glyph-name="ordmasculine" unicode="&#xba;" horiz-adv-x="1196" 
d="M549 915q-136 0 -230 100t-94 236q0 134 94 231t230 97q137 0 227 -96.5t90 -231.5q0 -137 -90.5 -236.5t-226.5 -99.5zM549 1538q-92 0 -151.5 -83t-59.5 -204q0 -122 59.5 -207.5t151.5 -85.5q93 0 149 84.5t56 208.5q0 122 -56 204.5t-149 82.5z" />
    <glyph glyph-name="guillemotright" unicode="&#xbb;" horiz-adv-x="1179" 
d="M532 520q-105 99 -228 245t-181 249l29 20q148 -153 290.5 -277t307.5 -231v-26q-160 -98 -297.5 -219.5t-300.5 -290.5l-29 24q60 108 184 260.5t225 245.5zM963 520q-106 100 -229 245.5t-181 248.5l29 20q148 -153 290.5 -277t307.5 -231v-26q-160 -98 -297.5 -219.5
t-300.5 -290.5l-29 24q60 108 184.5 260.5t225.5 245.5z" />
    <glyph glyph-name="onequarter" unicode="&#xbc;" horiz-adv-x="1650" 
d="M74 1337l147 39v-610q0 -19 -9 -31.5t-32 -19.5t-39 -9.5t-54 -5.5q-14 -1 -21 -2v-34h415v34q-99 8 -123 18q-32 14 -32 50v694h-13l-239 -71v-52zM350 0h-84l1022 1434h84zM920 195h391v-101q0 -33 -23.5 -42.5t-82.5 -12.5h-9v-41h336v41q-81 4 -98 14q-19 11 -19 41
v101h115v77h-115v500h-49l-446 -496v-81zM985 272l330 361l-4 -361h-326z" />
    <glyph glyph-name="onehalf" unicode="&#xbd;" horiz-adv-x="1693" 
d="M74 1337l147 39v-610q0 -19 -9 -31.5t-32 -19.5t-39 -9.5t-54 -5.5q-14 -1 -21 -2v-34h415v34q-99 8 -123 18q-32 14 -32 50v694h-13l-239 -71v-52zM350 0h-84l1022 1434h84zM1030 561q42 91 92.5 128.5t112.5 37.5q64 0 106.5 -43.5t42.5 -120.5q0 -62 -40 -127
t-127 -147l-248 -234v-53h524l41 231h-41q-22 -93 -47.5 -123t-85.5 -30h-277l248 205q98 82 134 145.5t36 138.5q0 98 -72.5 164t-175.5 66q-202 0 -272 -224z" />
    <glyph glyph-name="threequarters" unicode="&#xbe;" horiz-adv-x="1691" 
d="M365 0h-84l1022 1434h83zM115 1294q75 105 172 105q52 0 80 -27.5t28 -64.5q0 -39 -19.5 -70.5t-58 -55t-77 -39t-93.5 -32.5l15 -49q139 23 211.5 -25.5t72.5 -152.5q0 -80 -39 -126t-108 -46q-70 0 -120 48t-60 156h-33l-27 -188q40 -30 102 -50t132 -20
q119 0 199.5 74.5t80.5 175.5q0 103 -80.5 161t-191.5 50q89 31 143 76.5t54 116.5q0 63 -48.5 106t-130.5 43q-83 0 -144.5 -41t-92.5 -100zM961 195h391v-101q0 -33 -23.5 -42.5t-82.5 -12.5h-9v-41h336v41q-81 4 -98 14q-19 11 -19 41v101h115v77h-115v500h-49l-446 -496
v-81zM1026 272l330 361l-4 -361h-326z" />
    <glyph glyph-name="questiondown" unicode="&#xbf;" horiz-adv-x="946" 
d="M760 -14q15 -202 -54.5 -302t-203.5 -100q-117 0 -182.5 73t-65.5 202q0 33 5.5 64.5t10 53t21 51t22.5 41.5t31 41.5t29 34.5t35 37t32 33q73 73 113.5 148t40.5 184q0 97 -21 139h-45q11 -49 11 -100q0 -80 -23 -136.5t-78 -111.5q-30 -30 -82.5 -70.5t-91.5 -73.5
t-79 -77.5t-61.5 -104t-21.5 -131.5q0 -92 35 -161t93.5 -106.5t124.5 -55t139 -17.5q111 0 197 37t173 107l-73 301h-31zM535 1047q-42 0 -73.5 -31t-31.5 -76q0 -42 31.5 -73t73.5 -31q44 0 75 30.5t31 73.5q0 46 -30.5 76.5t-75.5 30.5z" />
    <glyph glyph-name="Agrave" unicode="&#xc0;" horiz-adv-x="1464" 
d="M836 1585l26 31l-344 323l-80 -100zM-102 0v29q106 3 165 31t91 102l501 1138q-14 32 -25 49t-26.5 30t-47.5 17.5t-68.5 6.5t-108.5 2v29h383l559 -1323q12 -27 31 -43.5t55.5 -24.5t56 -9.5t72.5 -3.5q13 -1 20 -1v-29h-618v29q58 0 93 1t64 5t41.5 10.5t18 19t2 28
t-13.5 40.5l-185 440h-538l-199 -454q-27 -61 27 -78q28 -9 147 -12h17v-29h-514zM446 635h488l-238 569z" />
    <glyph glyph-name="Aacute" unicode="&#xc1;" horiz-adv-x="1464" 
d="M584 1585l397 254l-80 100l-344 -323zM-102 0v29q106 3 165 31t91 102l501 1138q-14 32 -25 49t-26.5 30t-47.5 17.5t-68.5 6.5t-108.5 2v29h383l559 -1323q12 -27 31 -43.5t55.5 -24.5t56 -9.5t72.5 -3.5q13 -1 20 -1v-29h-618v29q58 0 93 1t64 5t41.5 10.5t18 19t2 28
t-13.5 40.5l-185 440h-538l-199 -454q-27 -61 27 -78q28 -9 147 -12h17v-29h-514zM446 635h488l-238 569z" />
    <glyph glyph-name="Acircumflex" unicode="&#xc2;" horiz-adv-x="1464" 
d="M379 1614l35 -37l264 205l266 -205l35 37l-289 295h-22zM-102 0v29q106 3 165 31t91 102l501 1138q-14 32 -25 49t-26.5 30t-47.5 17.5t-68.5 6.5t-108.5 2v29h383l559 -1323q12 -27 31 -43.5t55.5 -24.5t56 -9.5t72.5 -3.5q13 -1 20 -1v-29h-618v29q58 0 93 1t64 5
t41.5 10.5t18 19t2 28t-13.5 40.5l-185 440h-538l-199 -454q-27 -61 27 -78q28 -9 147 -12h17v-29h-514zM446 635h488l-238 569z" />
    <glyph glyph-name="Atilde" unicode="&#xc3;" horiz-adv-x="1464" 
d="M819 1698q56 0 146 184l-23 12q-61 -98 -100 -98q-44 0 -156.5 51t-144.5 51q-42 0 -154 -174l23 -12q28 36 40.5 50.5t31 28t36.5 13.5q27 0 144 -53t157 -53zM-102 0v29q106 3 165 31t91 102l501 1138q-14 32 -25 49t-26.5 30t-47.5 17.5t-68.5 6.5t-108.5 2v29h383
l559 -1323q12 -27 31 -43.5t55.5 -24.5t56 -9.5t72.5 -3.5q13 -1 20 -1v-29h-618v29q58 0 93 1t64 5t41.5 10.5t18 19t2 28t-13.5 40.5l-185 440h-538l-199 -454q-27 -61 27 -78q28 -9 147 -12h17v-29h-514zM446 635h488l-238 569z" />
    <glyph glyph-name="Adieresis" unicode="&#xc4;" horiz-adv-x="1464" 
d="M498 1729q38 0 66 28t28 68q0 38 -28.5 66t-65.5 28q-40 0 -68.5 -28t-28.5 -66q0 -41 28.5 -68.5t68.5 -27.5zM862 1729q38 0 66 28t28 68q0 38 -28.5 66t-65.5 28q-40 0 -68 -28t-28 -66q0 -41 28 -68.5t68 -27.5zM-102 0v29q106 3 165 31t91 102l501 1138
q-14 32 -25 49t-26.5 30t-47.5 17.5t-68.5 6.5t-108.5 2v29h383l559 -1323q12 -27 31 -43.5t55.5 -24.5t56 -9.5t72.5 -3.5q13 -1 20 -1v-29h-618v29q58 0 93 1t64 5t41.5 10.5t18 19t2 28t-13.5 40.5l-185 440h-538l-199 -454q-27 -61 27 -78q28 -9 147 -12h17v-29h-514z
M446 635h488l-238 569z" />
    <glyph glyph-name="Aring" unicode="&#xc5;" horiz-adv-x="1464" 
d="M680 1620q-74 0 -131 52.5t-57 125.5q0 72 56.5 124t131.5 52t131.5 -52t56.5 -124q0 -73 -57 -125.5t-131 -52.5zM680 1671q49 0 74.5 34.5t25.5 92.5q0 55 -25 91t-75 36t-75 -36t-25 -91q0 -58 25.5 -92.5t74.5 -34.5zM-102 0v29q106 3 165 31t91 102l501 1138
q-14 32 -25 49t-26.5 30t-47.5 17.5t-68.5 6.5t-108.5 2v29h383l559 -1323q12 -27 31 -43.5t55.5 -24.5t56 -9.5t72.5 -3.5q13 -1 20 -1v-29h-618v29q58 0 93 1t64 5t41.5 10.5t18 19t2 28t-13.5 40.5l-185 440h-538l-199 -454q-27 -61 27 -78q28 -9 147 -12h17v-29h-514z
M446 635h488l-238 569z" />
    <glyph glyph-name="AE" unicode="&#xc6;" horiz-adv-x="2154" 
d="M848 29q130 5 146 8q49 8 59 43q4 13 4 33v460h-459l-324 -454q-23 -32 -27 -50.5t16.5 -26.5t41 -9.5t69.5 -2.5h17t15.5 -0.5t17.5 -0.5v-29h-516v29q116 3 188.5 29.5t128.5 103.5l832 1161q-1 53 -38 68q-25 9 -132 13q-23 0 -39 1v29h1120l45 -455h-39
q-24 165 -57.5 250t-83 116t-135.5 31h-475v-616h460q131 0 136 227h32v-516h-32q-6 231 -136 231h-460v-643h508q65 0 114 22t76 44.5t52.5 83t32.5 87.5t26 109q8 33 12 50h39l-88 -455h-1147v29zM643 635h414v579z" />
    <glyph glyph-name="Ccedilla" unicode="&#xc7;" horiz-adv-x="1437" 
d="M1290 1325l-4 -369h-35q-101 453 -463 453q-118 0 -212.5 -40.5t-152 -103.5t-95.5 -146.5t-53 -162t-15 -157.5q0 -206 73 -367.5t205.5 -251.5t301.5 -90q334 0 460 402h46q-14 -70 -41.5 -138.5t-75.5 -136t-109.5 -119t-148.5 -85t-187 -36.5l-53 -108q61 25 98 25
q74 0 119 -40.5t45 -109.5q0 -90 -91.5 -159t-260.5 -83l-6 37q138 25 198 66.5t60 115.5q0 56 -31 86.5t-76 30.5q-59 0 -124 -61l-23 16l88 184q-149 8 -271.5 72t-200.5 164t-120.5 224.5t-42.5 258.5q0 122 27 233.5t84.5 208.5t140 168.5t200 112.5t257.5 41
q137 0 250.5 -34t238.5 -101z" />
    <glyph glyph-name="Egrave" unicode="&#xc8;" horiz-adv-x="1347" 
d="M45 29q130 5 146 8q49 8 59 43q4 13 4 33v1208q0 38 -19 55.5t-43.5 21t-96.5 5.5q-32 1 -50 2v29h1116l66 -455h-39q-23 156 -64 244t-97 120.5t-142 32.5h-469v-616h450q64 0 103.5 54.5t42.5 172.5h32v-516h-32q-3 116 -42.5 173.5t-103.5 57.5h-450v-643h502
q48 0 87 11t66.5 26.5t51 45.5t37.5 54.5t28 68t21 72t19 79.5l9 39h39l-88 -455h-1143v29zM811 1585l27 31l-344 323l-80 -100z" />
    <glyph glyph-name="Eacute" unicode="&#xc9;" horiz-adv-x="1347" 
d="M45 29q130 5 146 8q49 8 59 43q4 13 4 33v1208q0 38 -19 55.5t-43.5 21t-96.5 5.5q-32 1 -50 2v29h1116l66 -455h-39q-23 156 -64 244t-97 120.5t-142 32.5h-469v-616h450q64 0 103.5 54.5t42.5 172.5h32v-516h-32q-3 116 -42.5 173.5t-103.5 57.5h-450v-643h502
q48 0 87 11t66.5 26.5t51 45.5t37.5 54.5t28 68t21 72t19 79.5l9 39h39l-88 -455h-1143v29zM559 1585l397 254l-79 100l-345 -323z" />
    <glyph glyph-name="Ecircumflex" unicode="&#xca;" horiz-adv-x="1347" 
d="M45 29q130 5 146 8q49 8 59 43q4 13 4 33v1208q0 38 -19 55.5t-43.5 21t-96.5 5.5q-32 1 -50 2v29h1116l66 -455h-39q-23 156 -64 244t-97 120.5t-142 32.5h-469v-616h450q64 0 103.5 54.5t42.5 172.5h32v-516h-32q-3 116 -42.5 173.5t-103.5 57.5h-450v-643h502
q48 0 87 11t66.5 26.5t51 45.5t37.5 54.5t28 68t21 72t19 79.5l9 39h39l-88 -455h-1143v29zM354 1614l35 -37l264 205l267 -205l34 37l-288 295h-23z" />
    <glyph glyph-name="Edieresis" unicode="&#xcb;" horiz-adv-x="1347" 
d="M45 29q130 5 146 8q49 8 59 43q4 13 4 33v1208q0 38 -19 55.5t-43.5 21t-96.5 5.5q-32 1 -50 2v29h1116l66 -455h-39q-23 156 -64 244t-97 120.5t-142 32.5h-469v-616h450q64 0 103.5 54.5t42.5 172.5h32v-516h-32q-3 116 -42.5 173.5t-103.5 57.5h-450v-643h502
q48 0 87 11t66.5 26.5t51 45.5t37.5 54.5t28 68t21 72t19 79.5l9 39h39l-88 -455h-1143v29zM473 1729q38 0 66 28t28 68q0 38 -28.5 66t-65.5 28q-40 0 -68 -28t-28 -66q0 -41 28 -68.5t68 -27.5zM838 1729q38 0 66 28t28 68q0 38 -28.5 66t-65.5 28q-40 0 -68.5 -28
t-28.5 -66q0 -41 28.5 -68.5t68.5 -27.5z" />
    <glyph glyph-name="Igrave" unicode="&#xcc;" horiz-adv-x="710" 
d="M436 119q0 -18 5 -32t11.5 -23t20.5 -15.5t24.5 -10t32 -5.5t34.5 -2t40 -1t41 -1v-29h-579v29q14 0 41 1t40 1t34 2t31.5 5.5t24.5 10t20.5 15.5t11.5 23t5 32v1202q0 21 -5 35.5t-17 23.5t-23.5 14t-33.5 7t-38 2.5t-44.5 0.5t-46.5 1v29h579v-29q-18 -1 -47 -1
t-44.5 -0.5t-37.5 -2.5t-34 -7t-24 -14t-17 -24t-5 -35v-1202zM518 1559l27 30l-344 324l-80 -101z" />
    <glyph glyph-name="Iacute" unicode="&#xcd;" horiz-adv-x="710" 
d="M436 119q0 -18 5 -32t11.5 -23t20.5 -15.5t24.5 -10t32 -5.5t34.5 -2t40 -1t41 -1v-29h-579v29q14 0 41 1t40 1t34 2t31.5 5.5t24.5 10t20.5 15.5t11.5 23t5 32v1202q0 21 -5 35.5t-17 23.5t-23.5 14t-33.5 7t-38 2.5t-44.5 0.5t-46.5 1v29h579v-29q-18 -1 -47 -1
t-44.5 -0.5t-37.5 -2.5t-34 -7t-24 -14t-17 -24t-5 -35v-1202zM266 1559l398 253l-80 101l-344 -324z" />
    <glyph glyph-name="Icircumflex" unicode="&#xce;" horiz-adv-x="710" 
d="M436 119q0 -18 5 -32t11.5 -23t20.5 -15.5t24.5 -10t32 -5.5t34.5 -2t40 -1t41 -1v-29h-579v29q14 0 41 1t40 1t34 2t31.5 5.5t24.5 10t20.5 15.5t11.5 23t5 32v1202q0 21 -5 35.5t-17 23.5t-23.5 14t-33.5 7t-38 2.5t-44.5 0.5t-46.5 1v29h579v-29q-18 -1 -47 -1
t-44.5 -0.5t-37.5 -2.5t-34 -7t-24 -14t-17 -24t-5 -35v-1202zM61 1587l35 -37l264 205l267 -205l35 37l-289 295h-23z" />
    <glyph glyph-name="Idieresis" unicode="&#xcf;" horiz-adv-x="710" 
d="M436 119q0 -18 5 -32t11.5 -23t20.5 -15.5t24.5 -10t32 -5.5t34.5 -2t40 -1t41 -1v-29h-579v29q14 0 41 1t40 1t34 2t31.5 5.5t24.5 10t20.5 15.5t11.5 23t5 32v1202q0 21 -5 35.5t-17 23.5t-23.5 14t-33.5 7t-38 2.5t-44.5 0.5t-46.5 1v29h579v-29q-18 -1 -47 -1
t-44.5 -0.5t-37.5 -2.5t-34 -7t-24 -14t-17 -24t-5 -35v-1202zM180 1702q38 0 66 28t28 68q0 38 -28.5 66t-65.5 28q-40 0 -68 -28t-28 -66q0 -41 28 -68.5t68 -27.5zM545 1702q38 0 66 28t28 68q0 38 -28.5 66t-65.5 28q-40 0 -68 -28t-28 -66q0 -41 28 -68.5t68 -27.5z
" />
    <glyph glyph-name="Eth" unicode="&#xd0;" horiz-adv-x="1454" 
d="M774 700h-358v-634h209q118 0 214 39t158.5 103.5t105 151t61 178t18.5 187.5q0 151 -44.5 275.5t-122.5 206.5t-183 126.5t-226 44.5h-190v-620h358v-58zM45 29q130 5 146 8q49 8 59 43q4 13 4 33v587h-195v58h195v563q0 38 -19 55.5t-43.5 21t-96.5 5.5q-32 1 -50 2v29
l576 2q122 1 233 -26.5t203.5 -83t160.5 -133t106 -183t38 -228.5q0 -170 -52.5 -311t-154.5 -247t-264.5 -165t-370.5 -59h-475v29z" />
    <glyph glyph-name="Ntilde" unicode="&#xd1;" horiz-adv-x="1579" 
d="M350 111q0 -14 2.5 -25t9.5 -19.5t13 -14t19.5 -9.5t22 -6.5t28 -3.5t30 -1.5t34.5 -1.5t36 -1v-29h-482v29q12 0 36 1t35.5 1.5t31.5 1.5t30 3.5t25 6.5t22 9.5t15 13.5t11 19.5t3 25.5v1194q-54 70 -86 83.5t-141 16.5v29h322l903 -1190v1056q0 70 -35.5 86t-173.5 19
v29h493v-29q-138 -3 -173 -19t-35 -86v-1300h-78l-918 1210v-1099zM934 1671q55 0 145 184l-22 13q-62 -99 -101 -99q-44 0 -156.5 51.5t-144.5 51.5q-41 0 -153 -174l22 -12q27 35 40.5 50t32 28.5t36.5 13.5q27 0 144 -53.5t157 -53.5z" />
    <glyph glyph-name="Ograve" unicode="&#xd2;" horiz-adv-x="1581" 
d="M793 -23q-123 0 -233.5 40t-195 110t-146.5 163t-94 203.5t-32 225.5q0 152 51 287.5t141.5 236t222.5 159t286 58.5t285.5 -58.5t220.5 -159t139.5 -236t50.5 -287.5q0 -145 -50.5 -279t-139.5 -237t-221 -164.5t-285 -61.5zM793 1399q-162 0 -279.5 -89.5t-176 -241.5
t-58.5 -349q0 -131 34.5 -251.5t97.5 -215t162.5 -151t219.5 -56.5q97 0 180 37t143 101t102.5 149.5t63.5 183.5t21 203q0 197 -57.5 349t-174 241.5t-278.5 89.5zM946 1559l27 30l-344 324l-80 -101z" />
    <glyph glyph-name="Oacute" unicode="&#xd3;" horiz-adv-x="1581" 
d="M793 -23q-123 0 -233.5 40t-195 110t-146.5 163t-94 203.5t-32 225.5q0 152 51 287.5t141.5 236t222.5 159t286 58.5t285.5 -58.5t220.5 -159t139.5 -236t50.5 -287.5q0 -145 -50.5 -279t-139.5 -237t-221 -164.5t-285 -61.5zM793 1399q-162 0 -279.5 -89.5t-176 -241.5
t-58.5 -349q0 -131 34.5 -251.5t97.5 -215t162.5 -151t219.5 -56.5q97 0 180 37t143 101t102.5 149.5t63.5 183.5t21 203q0 197 -57.5 349t-174 241.5t-278.5 89.5zM694 1559l398 253l-80 101l-344 -324z" />
    <glyph glyph-name="Ocircumflex" unicode="&#xd4;" horiz-adv-x="1581" 
d="M793 -23q-123 0 -233.5 40t-195 110t-146.5 163t-94 203.5t-32 225.5q0 152 51 287.5t141.5 236t222.5 159t286 58.5t285.5 -58.5t220.5 -159t139.5 -236t50.5 -287.5q0 -145 -50.5 -279t-139.5 -237t-221 -164.5t-285 -61.5zM793 1399q-162 0 -279.5 -89.5t-176 -241.5
t-58.5 -349q0 -131 34.5 -251.5t97.5 -215t162.5 -151t219.5 -56.5q97 0 180 37t143 101t102.5 149.5t63.5 183.5t21 203q0 197 -57.5 349t-174 241.5t-278.5 89.5zM489 1587l35 -37l264 205l267 -205l35 37l-289 295h-23z" />
    <glyph glyph-name="Otilde" unicode="&#xd5;" horiz-adv-x="1581" 
d="M793 -23q-123 0 -233.5 40t-195 110t-146.5 163t-94 203.5t-32 225.5q0 152 51 287.5t141.5 236t222.5 159t286 58.5t285.5 -58.5t220.5 -159t139.5 -236t50.5 -287.5q0 -145 -50.5 -279t-139.5 -237t-221 -164.5t-285 -61.5zM793 1399q-162 0 -279.5 -89.5t-176 -241.5
t-58.5 -349q0 -131 34.5 -251.5t97.5 -215t162.5 -151t219.5 -56.5q97 0 180 37t143 101t102.5 149.5t63.5 183.5t21 203q0 197 -57.5 349t-174 241.5t-278.5 89.5zM930 1671q55 0 145 184l-22 13q-62 -99 -101 -99q-44 0 -156.5 51.5t-144.5 51.5q-41 0 -153 -174l22 -12
q27 35 40.5 50t32 28.5t36.5 13.5q27 0 144 -53.5t157 -53.5z" />
    <glyph glyph-name="Odieresis" unicode="&#xd6;" horiz-adv-x="1581" 
d="M793 -23q-123 0 -233.5 40t-195 110t-146.5 163t-94 203.5t-32 225.5q0 152 51 287.5t141.5 236t222.5 159t286 58.5t285.5 -58.5t220.5 -159t139.5 -236t50.5 -287.5q0 -145 -50.5 -279t-139.5 -237t-221 -164.5t-285 -61.5zM793 1399q-162 0 -279.5 -89.5t-176 -241.5
t-58.5 -349q0 -131 34.5 -251.5t97.5 -215t162.5 -151t219.5 -56.5q97 0 180 37t143 101t102.5 149.5t63.5 183.5t21 203q0 197 -57.5 349t-174 241.5t-278.5 89.5zM608 1702q38 0 66 28t28 68q0 38 -28.5 66t-65.5 28q-40 0 -68 -28t-28 -66q0 -41 28 -68.5t68 -27.5z
M973 1702q38 0 66 28t28 68q0 38 -28.5 66t-65.5 28q-40 0 -68 -28t-28 -66q0 -41 28 -68.5t68 -27.5z" />
    <glyph glyph-name="multiply" unicode="&#xd7;" horiz-adv-x="1173" 
d="M1018 295l-60 -59l-372 372l-373 -372l-59 59l374 373l-372 372l59 60l373 -373l373 373l59 -60l-375 -372z" />
    <glyph glyph-name="Oslash" unicode="&#xd8;" horiz-adv-x="1581" 
d="M309 -29h-98l123 183q-115 106 -178.5 254t-63.5 311q0 152 51 287.5t141.5 236t222.5 159t286 58.5q194 0 350 -92l61 92h90l-88 -133q134 -102 208.5 -261.5t74.5 -346.5q0 -145 -50.5 -279t-139.5 -237t-221 -164.5t-285 -61.5q-220 0 -398 125zM793 1399
q-162 0 -279.5 -89.5t-176 -241.5t-58.5 -349q0 -271 127 -457l686 1030q-123 107 -299 107zM457 195q137 -150 336 -150q97 0 180 37t143 101t102.5 149.5t63.5 183.5t21 203q0 330 -156 518z" />
    <glyph glyph-name="Ugrave" unicode="&#xd9;" horiz-adv-x="1542" 
d="M10 1405v29h580v-29q-21 -1 -53 -1t-47.5 -0.5t-37 -2.5t-31.5 -7t-21 -14t-15 -23.5t-4 -35.5v-782q0 -226 117.5 -356t304.5 -130q208 0 318 133t110 351v784q0 61 -25 73t-126 11h-58v29h502v-29q-21 -1 -53 -1t-47.5 -0.5t-37 -2.5t-31.5 -7t-21 -14t-15 -23.5
t-4 -35.5v-780q0 -134 -40 -241.5t-110 -177t-163.5 -107t-202.5 -38.5q-277 -2 -428.5 137t-151.5 423v784q0 21 -2.5 35.5t-12.5 23.5t-18 14t-30 7t-36.5 2.5t-50 0.5t-59.5 1zM971 1559l26 30l-344 324l-80 -101z" />
    <glyph glyph-name="Uacute" unicode="&#xda;" horiz-adv-x="1542" 
d="M10 1405v29h580v-29q-21 -1 -53 -1t-47.5 -0.5t-37 -2.5t-31.5 -7t-21 -14t-15 -23.5t-4 -35.5v-782q0 -226 117.5 -356t304.5 -130q208 0 318 133t110 351v784q0 61 -25 73t-126 11h-58v29h502v-29q-21 -1 -53 -1t-47.5 -0.5t-37 -2.5t-31.5 -7t-21 -14t-15 -23.5
t-4 -35.5v-780q0 -134 -40 -241.5t-110 -177t-163.5 -107t-202.5 -38.5q-277 -2 -428.5 137t-151.5 423v784q0 21 -2.5 35.5t-12.5 23.5t-18 14t-30 7t-36.5 2.5t-50 0.5t-59.5 1zM719 1559l397 253l-80 101l-344 -324z" />
    <glyph glyph-name="Ucircumflex" unicode="&#xdb;" horiz-adv-x="1542" 
d="M10 1405v29h580v-29q-21 -1 -53 -1t-47.5 -0.5t-37 -2.5t-31.5 -7t-21 -14t-15 -23.5t-4 -35.5v-782q0 -226 117.5 -356t304.5 -130q208 0 318 133t110 351v784q0 61 -25 73t-126 11h-58v29h502v-29q-21 -1 -53 -1t-47.5 -0.5t-37 -2.5t-31.5 -7t-21 -14t-15 -23.5
t-4 -35.5v-780q0 -134 -40 -241.5t-110 -177t-163.5 -107t-202.5 -38.5q-277 -2 -428.5 137t-151.5 423v784q0 21 -2.5 35.5t-12.5 23.5t-18 14t-30 7t-36.5 2.5t-50 0.5t-59.5 1zM514 1587l35 -37l264 205l266 -205l35 37l-289 295h-22z" />
    <glyph glyph-name="Udieresis" unicode="&#xdc;" horiz-adv-x="1542" 
d="M10 1405v29h580v-29q-21 -1 -53 -1t-47.5 -0.5t-37 -2.5t-31.5 -7t-21 -14t-15 -23.5t-4 -35.5v-782q0 -226 117.5 -356t304.5 -130q208 0 318 133t110 351v784q0 61 -25 73t-126 11h-58v29h502v-29q-21 -1 -53 -1t-47.5 -0.5t-37 -2.5t-31.5 -7t-21 -14t-15 -23.5
t-4 -35.5v-780q0 -134 -40 -241.5t-110 -177t-163.5 -107t-202.5 -38.5q-277 -2 -428.5 137t-151.5 423v784q0 21 -2.5 35.5t-12.5 23.5t-18 14t-30 7t-36.5 2.5t-50 0.5t-59.5 1zM633 1702q38 0 66 28t28 68q0 38 -28.5 66t-65.5 28q-40 0 -68 -28t-28 -66q0 -41 28 -68.5
t68 -27.5zM997 1702q38 0 66.5 28t28.5 68q0 38 -29 66t-66 28q-40 0 -68 -28t-28 -66q0 -41 28 -68.5t68 -27.5z" />
    <glyph glyph-name="Yacute" unicode="&#xdd;" horiz-adv-x="1255" 
d="M-100 1405v29h608v-29h-150q-65 0 -78 -26t23 -83l379 -608l315 549q39 66 49.5 101t-5.5 51t-64 16h-143v29h501v-29h-78q-19 0 -35 -2.5t-27.5 -6t-23 -12t-18 -14t-15.5 -19t-13 -21t-14 -25.5l-15 -27l-375 -672v-487q0 -16 2 -28.5t8.5 -22t12.5 -15.5t19 -10.5
t22 -6.5t29 -3.5t32 -2t38 -1t42 -0.5v-29h-568v29q16 0 42 0.5t38.5 1t32.5 2t29.5 3.5t23 6.5t19.5 10.5t12.5 15.5t9 22t2.5 28.5v487l-393 639q-60 98 -77 118q-40 41 -97 42h-100zM592 1559l397 253l-80 101l-344 -324z" />
    <glyph glyph-name="Thorn" unicode="&#xde;" horiz-adv-x="1204" 
d="M621 1151q147 0 262 -44.5t182.5 -133.5t67.5 -209q0 -201 -156 -324t-420 -123h-141v-202q0 -43 26.5 -62t57.5 -22t116 -2h56v-29h-627v29q17 1 51 1t51 0.5t41.5 5t36 13t20.5 25t9 41.5v1204q0 25 -9 41.5t-20.5 25t-36 13t-41.5 5t-51 0.5t-51 1v29h627v-29h-56
q-41 1 -73 0.5t-55.5 -4.5t-39.5 -13t-24 -26t-8 -43v-168h205zM543 371q107 0 190 28.5t133.5 77.5t76.5 112t26 136q0 169 -113.5 272t-302.5 103h-137v-729h127z" />
    <glyph glyph-name="germandbls" unicode="&#xdf;" horiz-adv-x="1267" 
d="M45 0h332v1137q0 183 71.5 287t198.5 104q111 0 175.5 -61.5t64.5 -190.5q0 -69 -20.5 -126.5t-51 -92.5t-66 -67t-66 -54t-51 -50.5t-20.5 -58.5q0 -48 22.5 -86.5t58 -65.5t79 -52t87 -54.5t79 -64.5t58 -89.5t22.5 -123.5q0 -38 -5.5 -74t-19.5 -72t-36 -62.5
t-57 -42.5t-79 -15q-109 3 -169.5 102t-63.5 256h-31l-29 -283q148 -125 310 -125q134 0 233.5 99t99.5 248q0 75 -24 138t-62 105t-84 77t-92 62.5t-84 53t-62 56.5t-24 65q0 18 31 43.5t74.5 57t87.5 70.5t75 98.5t31 127.5q0 132 -108 217.5t-285 85.5q-107 0 -190 -36.5
t-132 -97.5t-73.5 -135t-24.5 -155l-2 -1042q0 -17 -4 -29.5t-9 -21t-17.5 -14.5t-20.5 -9t-27 -5t-29.5 -2.5t-34.5 -1.5t-36 -1v-29z" />
    <glyph glyph-name="agrave" unicode="&#xe0;" horiz-adv-x="1046" 
d="M725 657q-2 134 -75 210.5t-208 76.5q-116 0 -198 -65.5t-105 -176.5h-37q3 36 15.5 77t42 90t72 87.5t111.5 64.5t153 26q171 0 270.5 -95t99.5 -250v-555q0 -46 13 -72.5t36 -34.5t54 -10t67 1v-31h-311v156q-113 -89 -198 -131.5t-167 -42.5q-46 0 -89.5 13.5t-81 40
t-60.5 72t-23 103.5q0 52 18.5 94.5t49 73t81.5 56.5t103.5 44.5t126.5 38.5q45 12 240 62v77zM637 1149l27 31l-345 323l-79 -100zM252 244q0 -82 48.5 -123t123.5 -41q65 0 144 32.5t157 90.5v325q-39 -11 -100 -27t-101 -27t-71 -21q-106 -33 -153.5 -83.5t-47.5 -125.5z
" />
    <glyph glyph-name="aacute" unicode="&#xe1;" horiz-adv-x="1046" 
d="M725 657q-2 134 -75 210.5t-208 76.5q-116 0 -198 -65.5t-105 -176.5h-37q3 36 15.5 77t42 90t72 87.5t111.5 64.5t153 26q171 0 270.5 -95t99.5 -250v-555q0 -46 13 -72.5t36 -34.5t54 -10t67 1v-31h-311v156q-113 -89 -198 -131.5t-167 -42.5q-46 0 -89.5 13.5t-81 40
t-60.5 72t-23 103.5q0 52 18.5 94.5t49 73t81.5 56.5t103.5 44.5t126.5 38.5q45 12 240 62v77zM385 1149l397 254l-80 100l-344 -323zM252 244q0 -82 48.5 -123t123.5 -41q65 0 144 32.5t157 90.5v325q-39 -11 -100 -27t-101 -27t-71 -21q-106 -33 -153.5 -83.5
t-47.5 -125.5z" />
    <glyph glyph-name="acircumflex" unicode="&#xe2;" horiz-adv-x="1046" 
d="M725 657q-2 134 -75 210.5t-208 76.5q-116 0 -198 -65.5t-105 -176.5h-37q3 36 15.5 77t42 90t72 87.5t111.5 64.5t153 26q171 0 270.5 -95t99.5 -250v-555q0 -46 13 -72.5t36 -34.5t54 -10t67 1v-31h-311v156q-113 -89 -198 -131.5t-167 -42.5q-46 0 -89.5 13.5t-81 40
t-60.5 72t-23 103.5q0 52 18.5 94.5t49 73t81.5 56.5t103.5 44.5t126.5 38.5q45 12 240 62v77zM209 1231l29 -25l245 195l252 -195l25 25l-264 299h-23zM252 244q0 -82 48.5 -123t123.5 -41q65 0 144 32.5t157 90.5v325q-39 -11 -100 -27t-101 -27t-71 -21
q-106 -33 -153.5 -83.5t-47.5 -125.5z" />
    <glyph glyph-name="atilde" unicode="&#xe3;" horiz-adv-x="1046" 
d="M725 657q-2 134 -75 210.5t-208 76.5q-116 0 -198 -65.5t-105 -176.5h-37q3 36 15.5 77t42 90t72 87.5t111.5 64.5t153 26q171 0 270.5 -95t99.5 -250v-555q0 -46 13 -72.5t36 -34.5t54 -10t67 1v-31h-311v156q-113 -89 -198 -131.5t-167 -42.5q-46 0 -89.5 13.5t-81 40
t-60.5 72t-23 103.5q0 52 18.5 94.5t49 73t81.5 56.5t103.5 44.5t126.5 38.5q45 12 240 62v77zM621 1262q55 0 145 184l-23 12q-61 -98 -100 -98q-44 0 -156.5 51t-144.5 51q-42 0 -154 -174l23 -12q28 36 40.5 50.5t31 28t36.5 13.5q27 0 144.5 -53t157.5 -53zM252 244
q0 -82 48.5 -123t123.5 -41q65 0 144 32.5t157 90.5v325q-39 -11 -100 -27t-101 -27t-71 -21q-106 -33 -153.5 -83.5t-47.5 -125.5z" />
    <glyph glyph-name="adieresis" unicode="&#xe4;" horiz-adv-x="1046" 
d="M725 657q-2 134 -75 210.5t-208 76.5q-116 0 -198 -65.5t-105 -176.5h-37q3 36 15.5 77t42 90t72 87.5t111.5 64.5t153 26q171 0 270.5 -95t99.5 -250v-555q0 -46 13 -72.5t36 -34.5t54 -10t67 1v-31h-311v156q-113 -89 -198 -131.5t-167 -42.5q-46 0 -89.5 13.5t-81 40
t-60.5 72t-23 103.5q0 52 18.5 94.5t49 73t81.5 56.5t103.5 44.5t126.5 38.5q45 12 240 62v77zM299 1292q37 0 65.5 28t28.5 69q0 38 -28.5 66t-65.5 28q-40 0 -68 -28t-28 -66q0 -41 28 -69t68 -28zM664 1292q38 0 66 28t28 69q0 38 -28.5 66t-65.5 28q-40 0 -68.5 -28
t-28.5 -66q0 -41 28.5 -69t68.5 -28zM252 244q0 -82 48.5 -123t123.5 -41q65 0 144 32.5t157 90.5v325q-39 -11 -100 -27t-101 -27t-71 -21q-106 -33 -153.5 -83.5t-47.5 -125.5z" />
    <glyph glyph-name="aring" unicode="&#xe5;" horiz-adv-x="1046" 
d="M725 657q-2 134 -75 210.5t-208 76.5q-116 0 -198 -65.5t-105 -176.5h-37q3 36 15.5 77t42 90t72 87.5t111.5 64.5t153 26q171 0 270.5 -95t99.5 -250v-555q0 -46 13 -72.5t36 -34.5t54 -10t67 1v-31h-311v156q-113 -89 -198 -131.5t-167 -42.5q-46 0 -89.5 13.5t-81 40
t-60.5 72t-23 103.5q0 52 18.5 94.5t49 73t81.5 56.5t103.5 44.5t126.5 38.5q45 12 240 62v77zM481 1184q-74 0 -131 52.5t-57 125.5q0 72 56.5 124t131.5 52t132 -52t57 -124q0 -73 -57 -125.5t-132 -52.5zM481 1235q49 0 75 34.5t26 92.5q0 55 -25.5 91t-75.5 36t-75 -36
t-25 -91q0 -58 25.5 -92.5t74.5 -34.5zM252 244q0 -82 48.5 -123t123.5 -41q65 0 144 32.5t157 90.5v325q-39 -11 -100 -27t-101 -27t-71 -21q-106 -33 -153.5 -83.5t-47.5 -125.5z" />
    <glyph glyph-name="ae" unicode="&#xe6;" horiz-adv-x="1759" 
d="M246 240q0 -79 47 -119.5t115 -40.5q122 0 225.5 119.5t103.5 283.5v43q-34 -9 -101.5 -25t-113.5 -28t-76 -22q-105 -35 -152.5 -86t-47.5 -125zM102 702q3 34 16 74.5t43.5 89.5t73.5 88.5t113.5 66t155.5 26.5q116 0 200.5 -56t126.5 -141q61 93 162.5 145t229.5 52
q174 0 293.5 -111t119.5 -283h-759q-3 -27 -3 -51q0 -226 113 -370t303 -144q39 0 80.5 9.5t91.5 33.5t99 74.5t86 122.5l36 -15q-46 -108 -123.5 -186t-160 -114t-162.5 -36q-179 0 -307 104t-166 261q-21 -90 -67.5 -162t-103.5 -113.5t-115 -63t-111 -21.5
q-108 0 -184.5 58t-76.5 171q0 65 25 113t78.5 83t114.5 58t155 49q142 37 260 59v70q0 144 -81.5 222.5t-213.5 78.5q-119 0 -200.5 -64t-104.5 -178h-37zM883 698h585q-13 134 -91 214.5t-191 80.5q-68 0 -122.5 -25t-90 -68.5t-57.5 -93.5t-33 -108z" />
    <glyph glyph-name="ccedilla" unicode="&#xe7;" horiz-adv-x="1081" 
d="M977 901l-72 -280h-28q-2 99 -27.5 173.5t-68.5 117t-95 63t-113 20.5q-158 0 -252 -108.5t-94 -292.5q0 -234 113 -372t287 -138q66 0 120 16t96 48.5t74 71t64 93.5l31 -18q-58 -138 -167.5 -226.5t-266.5 -91.5l-54 -108q61 25 99 25q74 0 118.5 -40.5t44.5 -109.5
q0 -90 -91.5 -159t-260.5 -83l-6 37q138 25 198 66.5t60 115.5q0 56 -30.5 86.5t-75.5 30.5q-60 0 -125 -61l-23 16l88 187q-187 19 -310.5 160t-123.5 352q0 114 32.5 213.5t94.5 177t159.5 122t219.5 44.5q104 0 196 -35.5t189 -112.5z" />
    <glyph glyph-name="egrave" unicode="&#xe8;" horiz-adv-x="1118" 
d="M700 1149l27 31l-344 323l-80 -100zM86 512q0 108 30.5 203.5t89 170t152 118t211.5 43.5q185 0 306.5 -115.5t123.5 -286.5h-774q-2 -16 -2 -51q0 -223 113.5 -364.5t306.5 -141.5q41 0 83.5 10t93.5 34t100 74.5t86 121.5l36 -15q-149 -336 -458 -336
q-220 0 -359 146.5t-139 388.5zM231 684h596q-17 141 -97 225t-200 84q-66 0 -120 -26t-89.5 -71t-57.5 -98t-32 -114z" />
    <glyph glyph-name="eacute" unicode="&#xe9;" horiz-adv-x="1118" 
d="M449 1149l397 254l-80 100l-344 -323zM86 512q0 108 30.5 203.5t89 170t152 118t211.5 43.5q185 0 306.5 -115.5t123.5 -286.5h-774q-2 -16 -2 -51q0 -223 113.5 -364.5t306.5 -141.5q41 0 83.5 10t93.5 34t100 74.5t86 121.5l36 -15q-149 -336 -458 -336
q-220 0 -359 146.5t-139 388.5zM231 684h596q-17 141 -97 225t-200 84q-66 0 -120 -26t-89.5 -71t-57.5 -98t-32 -114z" />
    <glyph glyph-name="ecircumflex" unicode="&#xea;" horiz-adv-x="1118" 
d="M272 1231l29 -25l246 195l252 -195l24 25l-264 299h-22zM86 512q0 108 30.5 203.5t89 170t152 118t211.5 43.5q185 0 306.5 -115.5t123.5 -286.5h-774q-2 -16 -2 -51q0 -223 113.5 -364.5t306.5 -141.5q41 0 83.5 10t93.5 34t100 74.5t86 121.5l36 -15
q-149 -336 -458 -336q-220 0 -359 146.5t-139 388.5zM231 684h596q-17 141 -97 225t-200 84q-66 0 -120 -26t-89.5 -71t-57.5 -98t-32 -114z" />
    <glyph glyph-name="edieresis" unicode="&#xeb;" horiz-adv-x="1118" 
d="M362 1292q38 0 66.5 28.5t28.5 68.5q0 38 -29 66t-66 28q-40 0 -68 -28t-28 -66q0 -41 28 -69t68 -28zM727 1292q37 0 65.5 28t28.5 69q0 38 -28.5 66t-65.5 28q-40 0 -68 -28t-28 -66q0 -41 28 -69t68 -28zM86 512q0 108 30.5 203.5t89 170t152 118t211.5 43.5
q185 0 306.5 -115.5t123.5 -286.5h-774q-2 -16 -2 -51q0 -223 113.5 -364.5t306.5 -141.5q41 0 83.5 10t93.5 34t100 74.5t86 121.5l36 -15q-149 -336 -458 -336q-220 0 -359 146.5t-139 388.5zM231 684h596q-17 141 -97 225t-200 84q-66 0 -120 -26t-89.5 -71t-57.5 -98
t-32 -114z" />
    <glyph glyph-name="igrave" unicode="&#xec;" horiz-adv-x="587" 
d="M33 909v33l348 105v-947q0 -26 8 -41t23 -21t36 -7.5t48 -1t59 -0.5v-29h-494v29q27 2 52.5 0.5t48.5 1t40.5 8t27.5 21.5t10 42v715q0 23 -1 40.5t-4.5 31t-6 23.5t-10.5 16t-13 10t-18 4t-21 -0.5t-27 -4.5t-30 -7t-36 -10q-26 -7 -40 -11zM455 1149l26 31l-344 323
l-80 -100z" />
    <glyph glyph-name="iacute" unicode="&#xed;" horiz-adv-x="587" 
d="M33 909v33l348 105v-947q0 -26 8 -41t23 -21t36 -7.5t48 -1t59 -0.5v-29h-494v29q27 2 52.5 0.5t48.5 1t40.5 8t27.5 21.5t10 42v715q0 23 -1 40.5t-4.5 31t-6 23.5t-10.5 16t-13 10t-18 4t-21 -0.5t-27 -4.5t-30 -7t-36 -10q-26 -7 -40 -11zM203 1149l397 254l-80 100
l-344 -323z" />
    <glyph glyph-name="icircumflex" unicode="&#xee;" horiz-adv-x="587" 
d="M33 909v33l348 105v-947q0 -26 8 -41t23 -21t36 -7.5t48 -1t59 -0.5v-29h-494v29q27 2 52.5 0.5t48.5 1t40.5 8t27.5 21.5t10 42v715q0 23 -1 40.5t-4.5 31t-6 23.5t-10.5 16t-13 10t-18 4t-21 -0.5t-27 -4.5t-30 -7t-36 -10q-26 -7 -40 -11zM27 1231l28 -25l246 195
l252 -195l25 25l-265 299h-22z" />
    <glyph glyph-name="idieresis" unicode="&#xef;" horiz-adv-x="587" 
d="M33 909v33l348 105v-947q0 -26 8 -41t23 -21t36 -7.5t48 -1t59 -0.5v-29h-494v29q27 2 52.5 0.5t48.5 1t40.5 8t27.5 21.5t10 42v715q0 23 -1 40.5t-4.5 31t-6 23.5t-10.5 16t-13 10t-18 4t-21 -0.5t-27 -4.5t-30 -7t-36 -10q-26 -7 -40 -11zM117 1292q37 0 65.5 28
t28.5 69q0 38 -28.5 66t-65.5 28q-40 0 -68.5 -28t-28.5 -66q0 -41 28.5 -69t68.5 -28zM481 1292q37 0 65.5 28t28.5 69q0 38 -28.5 66t-65.5 28q-40 0 -68 -28t-28 -66q0 -41 28 -69t68 -28z" />
    <glyph glyph-name="eth" unicode="&#xf0;" horiz-adv-x="1196" 
d="M387 1155l-39 57l266 164q-103 79 -227 140l29 53q156 -67 270 -150l283 174l39 -59l-260 -160q85 -69 150 -149.5t104.5 -157t64.5 -159.5t34 -152.5t9 -139.5q0 -292 -133 -465.5t-361 -173.5q-116 0 -216 44t-167.5 117t-106 168t-40.5 198q-3 242 132 392.5
t345 150.5q223 0 367 -150q-60 255 -258 432zM248 549q0 -133 45 -248t134 -188.5t204 -73.5q315 0 321 606q-9 43 -30 89t-56 92.5t-78 83.5t-100.5 60t-118.5 23q-149 0 -235 -125t-86 -319z" />
    <glyph glyph-name="ntilde" unicode="&#xf1;" horiz-adv-x="1308" 
d="M965 649q0 295 -242 295q-24 0 -50.5 -6t-49.5 -14.5t-51 -23t-46.5 -26t-45 -30t-39 -28t-34.5 -26.5t-26 -20v-647q0 -17 2 -29.5t8 -22t10.5 -16.5t17 -11t19.5 -7t25 -4.5t27.5 -1.5t33 -1t35.5 -1v-29h-498v29q10 0 33.5 1t33.5 1.5t29.5 2.5t28 6t21.5 10.5
t18.5 16t10 24t4.5 32.5v743q0 31 -7 48.5t-20 24.5t-33.5 6t-45 -7t-57.5 -16q-29 -9 -44 -13v33l348 105v-211q11 7 57.5 39.5t70.5 48.5t68.5 43.5t74 42t64 26t58.5 11.5q148 0 242 -96t94 -240v-588q0 -17 2 -29.5t8 -22t10.5 -16.5t17 -11t19.5 -7t25 -4.5t27.5 -1.5
t33 -1t35.5 -1v-29h-502v29q10 0 33.5 1t33.5 1.5t29.5 2.5t28 6t21.5 10.5t18.5 16t10 24t4.5 32.5v526zM850 1262q55 0 145 184l-22 12q-61 -98 -101 -98q-44 0 -156.5 51t-144.5 51q-41 0 -153 -174l22 -12q27 35 40.5 50t32 28.5t36.5 13.5q27 0 144 -53t157 -53z" />
    <glyph glyph-name="ograve" unicode="&#xf2;" horiz-adv-x="1196" 
d="M604 -23q-146 0 -266 74.5t-186 197t-66 263.5q0 145 66 267t185.5 195t266.5 73t263.5 -73t179.5 -195t63 -267q0 -106 -37 -203t-102.5 -170.5t-161 -117.5t-205.5 -44zM604 989q-153 0 -253.5 -136.5t-100.5 -340.5q0 -130 45 -239t127 -173.5t182 -64.5
q99 0 178 64.5t121.5 173t42.5 239.5q0 205 -95 341t-247 136zM760 1149l26 31l-344 323l-80 -100z" />
    <glyph glyph-name="oacute" unicode="&#xf3;" horiz-adv-x="1196" 
d="M604 -23q-146 0 -266 74.5t-186 197t-66 263.5q0 145 66 267t185.5 195t266.5 73t263.5 -73t179.5 -195t63 -267q0 -106 -37 -203t-102.5 -170.5t-161 -117.5t-205.5 -44zM604 989q-153 0 -253.5 -136.5t-100.5 -340.5q0 -130 45 -239t127 -173.5t182 -64.5
q99 0 178 64.5t121.5 173t42.5 239.5q0 205 -95 341t-247 136zM508 1149l397 254l-80 100l-344 -323z" />
    <glyph glyph-name="ocircumflex" unicode="&#xf4;" horiz-adv-x="1196" 
d="M604 -23q-146 0 -266 74.5t-186 197t-66 263.5q0 145 66 267t185.5 195t266.5 73t263.5 -73t179.5 -195t63 -267q0 -106 -37 -203t-102.5 -170.5t-161 -117.5t-205.5 -44zM604 989q-153 0 -253.5 -136.5t-100.5 -340.5q0 -130 45 -239t127 -173.5t182 -64.5
q99 0 178 64.5t121.5 173t42.5 239.5q0 205 -95 341t-247 136zM332 1231l28 -25l246 195l252 -195l25 25l-265 299h-22z" />
    <glyph glyph-name="otilde" unicode="&#xf5;" horiz-adv-x="1196" 
d="M604 -23q-146 0 -266 74.5t-186 197t-66 263.5q0 145 66 267t185.5 195t266.5 73t263.5 -73t179.5 -195t63 -267q0 -106 -37 -203t-102.5 -170.5t-161 -117.5t-205.5 -44zM604 989q-153 0 -253.5 -136.5t-100.5 -340.5q0 -130 45 -239t127 -173.5t182 -64.5
q99 0 178 64.5t121.5 173t42.5 239.5q0 205 -95 341t-247 136zM743 1262q56 0 146 184l-23 12q-61 -98 -100 -98q-44 0 -156.5 51t-144.5 51q-42 0 -154 -174l23 -12q28 36 40.5 50.5t31 28t36.5 13.5q27 0 144 -53t157 -53z" />
    <glyph glyph-name="odieresis" unicode="&#xf6;" horiz-adv-x="1196" 
d="M604 -23q-146 0 -266 74.5t-186 197t-66 263.5q0 145 66 267t185.5 195t266.5 73t263.5 -73t179.5 -195t63 -267q0 -106 -37 -203t-102.5 -170.5t-161 -117.5t-205.5 -44zM604 989q-153 0 -253.5 -136.5t-100.5 -340.5q0 -130 45 -239t127 -173.5t182 -64.5
q99 0 178 64.5t121.5 173t42.5 239.5q0 205 -95 341t-247 136zM422 1292q38 0 66 28t28 69q0 38 -28.5 66t-65.5 28q-40 0 -68 -28t-28 -66q0 -41 28 -69t68 -28zM786 1292q38 0 66.5 28.5t28.5 68.5q0 38 -29 66t-66 28q-40 0 -68 -28t-28 -66q0 -41 28 -69t68 -28z" />
    <glyph glyph-name="divide" unicode="&#xf7;" horiz-adv-x="1173" 
d="M600 932q43 0 74 31t31 75q0 45 -32.5 75t-72.5 30q-47 0 -76.5 -32t-29.5 -73q0 -47 32 -76.5t74 -29.5zM600 176q43 0 74 31.5t31 75.5q0 45 -32 74.5t-73 29.5q-47 0 -76.5 -31.5t-29.5 -72.5q0 -47 32 -77t74 -30zM1071 707v-84h-969v84h969z" />
    <glyph glyph-name="oslash" unicode="&#xf8;" horiz-adv-x="1196" 
d="M268 -29h-75l86 123q-91 75 -142 185t-51 233q0 145 66 267t185.5 195t266.5 73q150 0 277 -80l59 86h70l-84 -123q88 -74 136 -183t48 -235q0 -106 -37 -203t-102.5 -170.5t-161 -117.5t-205.5 -44q-151 0 -276 82zM604 989q-153 0 -253.5 -136.5t-100.5 -340.5
q0 -187 92 -326l483 701q-92 102 -221 102zM381 137q99 -102 223 -102q99 0 178 64.5t121.5 173t42.5 239.5q0 193 -84 326z" />
    <glyph glyph-name="ugrave" unicode="&#xf9;" horiz-adv-x="1298" 
d="M20 909v33l351 105v-672q0 -144 61.5 -223.5t165.5 -79.5q83 0 174.5 56.5t147.5 119.5v610q0 23 -2 39t-7.5 27t-10.5 17.5t-17.5 8t-21.5 1.5t-28 -5t-33 -9.5t-41 -13t-46 -14.5v33l348 105v-869q0 -53 9 -83.5t37.5 -44t50.5 -16.5t77 -4q22 -1 33 -1v-29h-348v197
q-220 -220 -367 -220q-144 0 -235 92.5t-91 239.5v549q0 25 -3.5 42.5t-9 28t-17.5 15t-21.5 5.5t-30 -3.5t-35 -9t-43 -13.5t-47.5 -14zM819 1149l27 31l-344 323l-80 -100z" />
    <glyph glyph-name="uacute" unicode="&#xfa;" horiz-adv-x="1298" 
d="M20 909v33l351 105v-672q0 -144 61.5 -223.5t165.5 -79.5q83 0 174.5 56.5t147.5 119.5v610q0 23 -2 39t-7.5 27t-10.5 17.5t-17.5 8t-21.5 1.5t-28 -5t-33 -9.5t-41 -13t-46 -14.5v33l348 105v-869q0 -53 9 -83.5t37.5 -44t50.5 -16.5t77 -4q22 -1 33 -1v-29h-348v197
q-220 -220 -367 -220q-144 0 -235 92.5t-91 239.5v549q0 25 -3.5 42.5t-9 28t-17.5 15t-21.5 5.5t-30 -3.5t-35 -9t-43 -13.5t-47.5 -14zM567 1149l398 254l-80 100l-344 -323z" />
    <glyph glyph-name="ucircumflex" unicode="&#xfb;" horiz-adv-x="1298" 
d="M20 909v33l351 105v-672q0 -144 61.5 -223.5t165.5 -79.5q83 0 174.5 56.5t147.5 119.5v610q0 23 -2 39t-7.5 27t-10.5 17.5t-17.5 8t-21.5 1.5t-28 -5t-33 -9.5t-41 -13t-46 -14.5v33l348 105v-869q0 -53 9 -83.5t37.5 -44t50.5 -16.5t77 -4q22 -1 33 -1v-29h-348v197
q-220 -220 -367 -220q-144 0 -235 92.5t-91 239.5v549q0 25 -3.5 42.5t-9 28t-17.5 15t-21.5 5.5t-30 -3.5t-35 -9t-43 -13.5t-47.5 -14zM391 1231l29 -25l246 195l252 -195l24 25l-264 299h-23z" />
    <glyph glyph-name="udieresis" unicode="&#xfc;" horiz-adv-x="1298" 
d="M20 909v33l351 105v-672q0 -144 61.5 -223.5t165.5 -79.5q83 0 174.5 56.5t147.5 119.5v610q0 23 -2 39t-7.5 27t-10.5 17.5t-17.5 8t-21.5 1.5t-28 -5t-33 -9.5t-41 -13t-46 -14.5v33l348 105v-869q0 -53 9 -83.5t37.5 -44t50.5 -16.5t77 -4q22 -1 33 -1v-29h-348v197
q-220 -220 -367 -220q-144 0 -235 92.5t-91 239.5v549q0 25 -3.5 42.5t-9 28t-17.5 15t-21.5 5.5t-30 -3.5t-35 -9t-43 -13.5t-47.5 -14zM481 1292q37 0 65.5 28t28.5 69q0 38 -28.5 66t-65.5 28q-40 0 -68 -28t-28 -66q0 -41 28 -69t68 -28zM846 1292q38 0 66 28t28 69
q0 38 -28.5 66t-65.5 28q-40 0 -68 -28t-28 -66q0 -41 28 -69t68 -28z" />
    <glyph glyph-name="yacute" unicode="&#xfd;" horiz-adv-x="962" 
d="M-111 995q80 -2 109 -11.5t47 -45.5l391 -844l-274 -547l86 -39l608 1389q9 20 14 32t13 24t11 17.5t14.5 11.5t15 7.5t21 3.5t25 1.5t33.5 0t41 0.5v29h-413v-29q113 3 137 -4q37 -11 23 -60q-3 -14 -11 -32l-274 -639l-287 623q-12 27 -17 46t2 31t14.5 19t34.5 10.5
t47.5 4t66.5 1.5v29h-478v-29zM391 1149l397 254l-79 100l-344 -323z" />
    <glyph glyph-name="thorn" unicode="&#xfe;" horiz-adv-x="1226" 
d="M16 1442v33l349 104v-715q53 49 80.5 72t74.5 55.5t92.5 46t96.5 13.5q191 0 311.5 -123t120.5 -330q0 -269 -159.5 -433.5t-420.5 -164.5q-105 0 -196 31v-389q0 -19 2.5 -32.5t10.5 -24.5t15.5 -18.5t26 -12.5t32.5 -8t44 -5t52.5 -2.5t65.5 -1.5v-29h-569v29
q120 3 149 18.5t29 86.5v1728q0 86 -37.5 98.5t-131.5 -17.5q-25 -6 -38 -9zM365 164q132 -92 282 -92q166 0 264.5 125t98.5 342q0 189 -99 296t-252 107q-84 0 -155.5 -33.5t-138.5 -109.5v-635z" />
    <glyph glyph-name="ydieresis" unicode="&#xff;" horiz-adv-x="962" 
d="M-111 995q80 -2 109 -11.5t47 -45.5l391 -844l-274 -547l86 -39l608 1389q9 20 14 32t13 24t11 17.5t14.5 11.5t15 7.5t21 3.5t25 1.5t33.5 0t41 0.5v29h-413v-29q113 3 137 -4q37 -11 23 -60q-3 -14 -11 -32l-274 -639l-287 623q-12 27 -17 46t2 31t14.5 19t34.5 10.5
t47.5 4t66.5 1.5v29h-478v-29zM305 1292q37 0 65.5 28t28.5 69q0 38 -28.5 66t-65.5 28q-40 0 -68 -28t-28 -66q0 -41 28 -69t68 -28zM670 1292q38 0 66 28t28 69q0 38 -28.5 66t-65.5 28q-40 0 -68.5 -28t-28.5 -66q0 -41 28.5 -69t68.5 -28z" />
    <glyph glyph-name="Amacron" unicode="&#x100;" horiz-adv-x="1464" 
d="M956 1819h-555v-82h555v82zM-102 0v29q106 3 165 31t91 102l501 1138q-14 32 -25 49t-26.5 30t-47.5 17.5t-68.5 6.5t-108.5 2v29h383l559 -1323q12 -27 31 -43.5t55.5 -24.5t56 -9.5t72.5 -3.5q13 -1 20 -1v-29h-618v29q58 0 93 1t64 5t41.5 10.5t18 19t2 28t-13.5 40.5
l-185 440h-538l-199 -454q-27 -61 27 -78q28 -9 147 -12h17v-29h-514zM446 635h488l-238 569z" />
    <glyph glyph-name="amacron" unicode="&#x101;" horiz-adv-x="1046" 
d="M725 657q-2 134 -75 210.5t-208 76.5q-116 0 -198 -65.5t-105 -176.5h-37q3 36 15.5 77t42 90t72 87.5t111.5 64.5t153 26q171 0 270.5 -95t99.5 -250v-555q0 -46 13 -72.5t36 -34.5t54 -10t67 1v-31h-311v156q-113 -89 -198 -131.5t-167 -42.5q-46 0 -89.5 13.5t-81 40
t-60.5 72t-23 103.5q0 52 18.5 94.5t49 73t81.5 56.5t103.5 44.5t126.5 38.5q45 12 240 62v77zM758 1382h-555v-82h555v82zM252 244q0 -82 48.5 -123t123.5 -41q65 0 144 32.5t157 90.5v325q-39 -11 -100 -27t-101 -27t-71 -21q-106 -33 -153.5 -83.5t-47.5 -125.5z" />
    <glyph glyph-name="Abreve" unicode="&#x102;" horiz-adv-x="1464" 
d="M424 1880q32 -93 99 -148t159 -55q185 0 254 203h41q-21 -139 -102.5 -217t-192.5 -78q-122 0 -200.5 75t-98.5 220h41zM-102 0v29q106 3 165 31t91 102l501 1138q-14 32 -25 49t-26.5 30t-47.5 17.5t-68.5 6.5t-108.5 2v29h383l559 -1323q12 -27 31 -43.5t55.5 -24.5
t56 -9.5t72.5 -3.5q13 -1 20 -1v-29h-618v29q58 0 93 1t64 5t41.5 10.5t18 19t2 28t-13.5 40.5l-185 440h-538l-199 -454q-27 -61 27 -78q28 -9 147 -12h17v-29h-514zM446 635h488l-238 569z" />
    <glyph glyph-name="abreve" unicode="&#x103;" horiz-adv-x="1046" 
d="M725 657q-2 134 -75 210.5t-208 76.5q-116 0 -198 -65.5t-105 -176.5h-37q3 36 15.5 77t42 90t72 87.5t111.5 64.5t153 26q171 0 270.5 -95t99.5 -250v-555q0 -46 13 -72.5t36 -34.5t54 -10t67 1v-31h-311v156q-113 -89 -198 -131.5t-167 -42.5q-46 0 -89.5 13.5t-81 40
t-60.5 72t-23 103.5q0 52 18.5 94.5t49 73t81.5 56.5t103.5 44.5t126.5 38.5q45 12 240 62v77zM219 1493q-1 -127 70 -197.5t192 -70.5q120 0 191 72t71 196h-38q-3 -73 -65.5 -120.5t-158.5 -47.5q-92 0 -156 48t-67 120h-39zM252 244q0 -82 48.5 -123t123.5 -41
q65 0 144 32.5t157 90.5v325q-39 -11 -100 -27t-101 -27t-71 -21q-106 -33 -153.5 -83.5t-47.5 -125.5z" />
    <glyph glyph-name="Aogonek" unicode="&#x104;" horiz-adv-x="1464" 
d="M-102 0v29q106 3 165 31t91 102l501 1138q-14 32 -25 49t-26.5 30t-47.5 17.5t-68.5 6.5t-108.5 2v29h383l559 -1323q12 -27 31 -43.5t55.5 -24.5t56 -9.5t72.5 -3.5q13 -1 20 -1v-29h-249q-7 -8 -25 -27t-24 -25.5t-19.5 -22t-17.5 -23t-12.5 -21t-11 -23.5t-5 -23.5
t-2.5 -27.5q0 -63 40 -97t91 -34q79 0 139 70l23 -18q-96 -129 -205 -129q-79 0 -132.5 50t-53.5 126q0 24 4.5 45t16.5 41t20.5 33t29 31.5t29 25.5t34.5 26t31 23h-319v29q58 0 93 1t64 5t41.5 10.5t18 19t2 28t-13.5 40.5l-185 440h-538l-199 -454q-27 -61 27 -78
q28 -9 147 -12h17v-29h-514zM446 635h488l-238 569z" />
    <glyph glyph-name="aogonek" unicode="&#x105;" horiz-adv-x="1046" 
d="M725 657q-2 134 -75 210.5t-208 76.5q-116 0 -198 -65.5t-105 -176.5h-37q3 36 15.5 77t42 90t72 87.5t111.5 64.5t153 26q171 0 270.5 -95t99.5 -250v-555q0 -46 13 -72.5t36 -34.5t54 -10t67 1v-31h-129q-9 -9 -30.5 -32t-28 -30.5t-21 -25t-19.5 -27t-12.5 -24.5
t-9.5 -29.5t-2 -30.5q0 -63 40 -97t91 -34q80 0 140 70l22 -19q-96 -129 -205 -129q-79 0 -132.5 50.5t-53.5 126.5q0 34 10 63t32 54t38 40t49.5 40t44.5 34h-135v156q-113 -89 -198 -131.5t-167 -42.5q-46 0 -89.5 13.5t-81 40t-60.5 72t-23 103.5q0 52 18.5 94.5t49 73
t81.5 56.5t103.5 44.5t126.5 38.5q45 12 240 62v77zM252 244q0 -82 48.5 -123t123.5 -41q65 0 144 32.5t157 90.5v325q-39 -11 -100 -27t-101 -27t-71 -21q-106 -33 -153.5 -83.5t-47.5 -125.5z" />
    <glyph glyph-name="Cacute" unicode="&#x106;" horiz-adv-x="1437" 
d="M1290 1325l-4 -369h-35q-101 453 -463 453q-118 0 -212.5 -40.5t-152 -103.5t-95.5 -146.5t-53 -162t-15 -157.5q0 -206 73 -367.5t205.5 -251.5t301.5 -90q334 0 460 402h46q-14 -71 -42.5 -141t-78 -138.5t-113 -120t-153.5 -83.5t-193 -32q-127 0 -236.5 39.5
t-188.5 108.5t-136 160t-85 196t-28 215q0 122 27 233.5t84.5 208.5t140 168.5t200 112.5t257.5 41q137 0 250.5 -34t238.5 -101zM623 1585l397 254l-80 100l-344 -323z" />
    <glyph glyph-name="cacute" unicode="&#x107;" horiz-adv-x="1081" 
d="M977 901l-72 -280h-28q-2 99 -27.5 173.5t-68.5 117t-95 63t-113 20.5q-158 0 -252 -108.5t-94 -292.5q0 -234 113 -372t287 -138q66 0 120 16t96 48.5t74 71t64 93.5l31 -18q-57 -140 -170 -229t-273 -89q-203 0 -343 145t-140 370q0 114 32.5 213.5t94.5 177t159.5 122
t219.5 44.5q104 0 196 -35.5t189 -112.5zM498 1149l397 254l-80 100l-344 -323z" />
    <glyph glyph-name="Cdotaccent" unicode="&#x10a;" horiz-adv-x="1437" 
d="M1290 1325l-4 -369h-35q-101 453 -463 453q-118 0 -212.5 -40.5t-152 -103.5t-95.5 -146.5t-53 -162t-15 -157.5q0 -206 73 -367.5t205.5 -251.5t301.5 -90q334 0 460 402h46q-14 -71 -42.5 -141t-78 -138.5t-113 -120t-153.5 -83.5t-193 -32q-127 0 -236.5 39.5
t-188.5 108.5t-136 160t-85 196t-28 215q0 122 27 233.5t84.5 208.5t140 168.5t200 112.5t257.5 41q137 0 250.5 -34t238.5 -101zM719 1729q38 0 66 28t28 68q0 38 -28.5 66t-65.5 28q-40 0 -68 -28t-28 -66q0 -41 28 -68.5t68 -27.5z" />
    <glyph glyph-name="cdotaccent" unicode="&#x10b;" horiz-adv-x="1081" 
d="M977 901l-72 -280h-28q-2 99 -27.5 173.5t-68.5 117t-95 63t-113 20.5q-158 0 -252 -108.5t-94 -292.5q0 -234 113 -372t287 -138q66 0 120 16t96 48.5t74 71t64 93.5l31 -18q-57 -140 -170 -229t-273 -89q-203 0 -343 145t-140 370q0 114 32.5 213.5t94.5 177t159.5 122
t219.5 44.5q104 0 196 -35.5t189 -112.5zM594 1292q38 0 66 28t28 69q0 38 -28.5 66t-65.5 28q-40 0 -68 -28t-28 -66q0 -41 28 -69t68 -28z" />
    <glyph glyph-name="Ccaron" unicode="&#x10c;" horiz-adv-x="1437" 
d="M1290 1325l-4 -369h-35q-101 453 -463 453q-118 0 -212.5 -40.5t-152 -103.5t-95.5 -146.5t-53 -162t-15 -157.5q0 -206 73 -367.5t205.5 -251.5t301.5 -90q334 0 460 402h46q-14 -71 -42.5 -141t-78 -138.5t-113 -120t-153.5 -83.5t-193 -32q-127 0 -236.5 39.5
t-188.5 108.5t-136 160t-85 196t-28 215q0 122 27 233.5t84.5 208.5t140 168.5t200 112.5t257.5 41q137 0 250.5 -34t238.5 -101zM418 1874l289 -295h22l289 295l-35 37l-266 -205l-264 205z" />
    <glyph glyph-name="ccaron" unicode="&#x10d;" horiz-adv-x="1081" 
d="M977 901l-72 -280h-28q-2 99 -27.5 173.5t-68.5 117t-95 63t-113 20.5q-158 0 -252 -108.5t-94 -292.5q0 -234 113 -372t287 -138q66 0 120 16t96 48.5t74 71t64 93.5l31 -18q-57 -140 -170 -229t-273 -89q-203 0 -343 145t-140 370q0 114 32.5 213.5t94.5 177t159.5 122
t219.5 44.5q104 0 196 -35.5t189 -112.5zM297 1505l264 -299h23l264 299l-25 25l-252 -195l-245 195z" />
    <glyph glyph-name="Dcaron" unicode="&#x10e;" horiz-adv-x="1454" 
d="M45 29q130 5 146 8q49 8 59 43q4 13 4 33v1208q0 38 -19 55.5t-43.5 21t-96.5 5.5q-32 1 -50 2v29l576 2q122 1 233 -26.5t203.5 -83t160.5 -133t106 -183t38 -228.5q0 -170 -52.5 -311t-154.5 -247t-264.5 -165t-370.5 -59h-475v29zM625 66q118 0 214 39t158.5 103.5
t105 151t61 178t18.5 187.5q0 151 -44.5 275.5t-122.5 206.5t-183 126.5t-226 44.5h-190v-1312h209zM319 1874l289 -295h23l289 295l-35 37l-267 -205l-264 205z" />
    <glyph glyph-name="dcaron" unicode="&#x10f;" horiz-adv-x="1447" 
d="M895 168q-89 -78 -188 -128t-175 -50q-88 0 -168 34t-142 95t-99 155.5t-37 206.5q0 120 43.5 225.5t116.5 179t173 116t210 42.5q124 0 266 -67v414q0 21 -2.5 36.5t-10 25t-13.5 16t-21.5 7.5t-25 1t-32 -5t-35.5 -8.5t-43 -11.5q-28 -8 -44 -12v33l368 104v-1427
q0 -81 35 -101t162 -20v-29h-338v168zM1280 1505l-33 -428h47l129 414q18 58 -26 79q-38 19 -78 -3q-37 -21 -39 -62zM233 565q0 -108 31.5 -198.5t83 -148.5t116.5 -90t134 -32q66 0 153 40.5t144 92.5v605q-131 143 -301 143q-172 0 -266.5 -116t-94.5 -296z" />
    <glyph glyph-name="Dcroat" unicode="&#x110;" horiz-adv-x="1454" 
d="M774 700h-358v-634h209q118 0 214 39t158.5 103.5t105 151t61 178t18.5 187.5q0 151 -44.5 275.5t-122.5 206.5t-183 126.5t-226 44.5h-190v-620h358v-58zM45 29q130 5 146 8q49 8 59 43q4 13 4 33v587h-195v58h195v563q0 38 -19 55.5t-43.5 21t-96.5 5.5q-32 1 -50 2v29
l576 2q122 1 233 -26.5t203.5 -83t160.5 -133t106 -183t38 -228.5q0 -170 -52.5 -311t-154.5 -247t-264.5 -165t-370.5 -59h-475v29z" />
    <glyph glyph-name="dcroat" unicode="&#x111;" horiz-adv-x="1239" 
d="M1233 1266v-43h-197v-1073q0 -81 35 -101t162 -20v-29h-338v168q-89 -78 -188 -128t-175 -50q-88 0 -168 34t-142 95t-99 155.5t-37 206.5q0 120 43.5 225.5t116.5 179t173 116t210 42.5q124 0 266 -67v246h-516v43h516v125q0 21 -2.5 36.5t-10 25t-13.5 16t-21.5 7.5
t-25 1t-32 -5t-35.5 -8.5t-43 -11.5q-28 -8 -44 -12v33l368 104v-311h197zM233 565q0 -108 31.5 -198.5t83 -148.5t116.5 -90t134 -32q66 0 153 40.5t144 92.5v605q-131 143 -301 143q-172 0 -266.5 -116t-94.5 -296z" />
    <glyph glyph-name="Emacron" unicode="&#x112;" horiz-adv-x="1347" 
d="M45 29q130 5 146 8q49 8 59 43q4 13 4 33v1208q0 38 -19 55.5t-43.5 21t-96.5 5.5q-32 1 -50 2v29h1116l66 -455h-39q-23 156 -64 244t-97 120.5t-142 32.5h-469v-616h450q64 0 103.5 54.5t42.5 172.5h32v-516h-32q-3 116 -42.5 173.5t-103.5 57.5h-450v-643h502
q48 0 87 11t66.5 26.5t51 45.5t37.5 54.5t28 68t21 72t19 79.5l9 39h39l-88 -455h-1143v29zM932 1819h-555v-82h555v82z" />
    <glyph glyph-name="emacron" unicode="&#x113;" horiz-adv-x="1118" 
d="M821 1382h-555v-82h555v82zM86 512q0 108 30.5 203.5t89 170t152 118t211.5 43.5q185 0 306.5 -115.5t123.5 -286.5h-774q-2 -16 -2 -51q0 -223 113.5 -364.5t306.5 -141.5q41 0 83.5 10t93.5 34t100 74.5t86 121.5l36 -15q-149 -336 -458 -336q-220 0 -359 146.5
t-139 388.5zM231 684h596q-17 141 -97 225t-200 84q-66 0 -120 -26t-89.5 -71t-57.5 -98t-32 -114z" />
    <glyph glyph-name="Edotaccent" unicode="&#x116;" horiz-adv-x="1347" 
d="M45 29q130 5 146 8q49 8 59 43q4 13 4 33v1208q0 38 -19 55.5t-43.5 21t-96.5 5.5q-32 1 -50 2v29h1116l66 -455h-39q-23 156 -64 244t-97 120.5t-142 32.5h-469v-616h450q64 0 103.5 54.5t42.5 172.5h32v-516h-32q-3 116 -42.5 173.5t-103.5 57.5h-450v-643h502
q48 0 87 11t66.5 26.5t51 45.5t37.5 54.5t28 68t21 72t19 79.5l9 39h39l-88 -455h-1143v29zM655 1729q38 0 66.5 28t28.5 68q0 38 -29 66t-66 28q-40 0 -68 -28t-28 -66q0 -41 28 -68.5t68 -27.5z" />
    <glyph glyph-name="edotaccent" unicode="&#x117;" horiz-adv-x="1118" 
d="M545 1292q37 0 65.5 28t28.5 69q0 38 -28.5 66t-65.5 28q-40 0 -68 -28t-28 -66q0 -41 28 -69t68 -28zM86 512q0 108 30.5 203.5t89 170t152 118t211.5 43.5q185 0 306.5 -115.5t123.5 -286.5h-774q-2 -16 -2 -51q0 -223 113.5 -364.5t306.5 -141.5q41 0 83.5 10t93.5 34
t100 74.5t86 121.5l36 -15q-149 -336 -458 -336q-220 0 -359 146.5t-139 388.5zM231 684h596q-17 141 -97 225t-200 84q-66 0 -120 -26t-89.5 -71t-57.5 -98t-32 -114z" />
    <glyph glyph-name="Eogonek" unicode="&#x118;" horiz-adv-x="1347" 
d="M45 29q130 5 146 8q49 8 59 43q4 13 4 33v1208q0 38 -19 55.5t-43.5 21t-96.5 5.5q-32 1 -50 2v29h1116l66 -455h-39q-23 156 -64 244t-97 120.5t-142 32.5h-469v-616h450q64 0 103.5 54.5t42.5 172.5h32v-516h-32q-3 116 -42.5 173.5t-103.5 57.5h-450v-643h502
q48 0 87 11t66.5 26.5t51 45.5t37.5 54.5t28 68t21 72t19 79.5l9 39h39l-88 -455h-141q-9 -9 -30.5 -32t-28 -30.5t-21 -25t-19.5 -27t-12.5 -24.5t-9.5 -29.5t-2 -30.5q0 -63 40 -97t91 -34q79 0 139 70l23 -19q-96 -129 -205 -129q-79 0 -133 50.5t-54 126.5q0 34 10 63
t32 54t38 40t49.5 40t44.5 34h-954v29z" />
    <glyph glyph-name="eogonek" unicode="&#x119;" horiz-adv-x="1118" 
d="M731 0q-9 -9 -30.5 -32t-28 -30.5t-21 -25t-19.5 -27t-12.5 -24.5t-9.5 -29.5t-2 -30.5q0 -63 40 -97t91 -34q80 0 140 70l22 -19q-96 -129 -205 -129q-79 0 -132.5 50.5t-53.5 126.5q0 18 2.5 34t9.5 31.5t12 26.5t18 25.5t18.5 21.5t23 21t22.5 18.5t25 19.5t23 17
q-47 -7 -80 -7q-220 0 -359 146.5t-139 388.5q0 108 30.5 203.5t89 170t152 118t211.5 43.5q185 0 306.5 -115.5t123.5 -286.5h-774q-2 -16 -2 -51q0 -223 113.5 -364.5t306.5 -141.5q41 0 83.5 10t93.5 34t100 74.5t86 121.5l36 -15q-111 -249 -311 -313zM231 684h596
q-17 141 -97 225t-200 84q-66 0 -120 -26t-89.5 -71t-57.5 -98t-32 -114z" />
    <glyph glyph-name="Ecaron" unicode="&#x11a;" horiz-adv-x="1347" 
d="M45 29q130 5 146 8q49 8 59 43q4 13 4 33v1208q0 38 -19 55.5t-43.5 21t-96.5 5.5q-32 1 -50 2v29h1116l66 -455h-39q-23 156 -64 244t-97 120.5t-142 32.5h-469v-616h450q64 0 103.5 54.5t42.5 172.5h32v-516h-32q-3 116 -42.5 173.5t-103.5 57.5h-450v-643h502
q48 0 87 11t66.5 26.5t51 45.5t37.5 54.5t28 68t21 72t19 79.5l9 39h39l-88 -455h-1143v29zM354 1874l289 -295h23l288 295l-34 37l-267 -205l-264 205z" />
    <glyph glyph-name="ecaron" unicode="&#x11b;" horiz-adv-x="1118" 
d="M248 1505l264 -299h23l264 299l-25 25l-252 -195l-246 195zM86 512q0 108 30.5 203.5t89 170t152 118t211.5 43.5q185 0 306.5 -115.5t123.5 -286.5h-774q-2 -16 -2 -51q0 -223 113.5 -364.5t306.5 -141.5q41 0 83.5 10t93.5 34t100 74.5t86 121.5l36 -15
q-149 -336 -458 -336q-220 0 -359 146.5t-139 388.5zM231 684h596q-17 141 -97 225t-200 84q-66 0 -120 -26t-89.5 -71t-57.5 -98t-32 -114z" />
    <glyph glyph-name="Gbreve" unicode="&#x11e;" horiz-adv-x="1501" 
d="M752 -23q-98 0 -193.5 32t-179.5 95.5t-148.5 151t-101.5 206.5t-37 253q0 113 27.5 219t86.5 201.5t143.5 167t206 113.5t265.5 42q225 0 484 -143l-9 -367h-30q-30 114 -67.5 194t-94 142t-138 92.5t-190.5 30.5q-123 0 -222 -52t-161.5 -141t-95.5 -203t-33 -243
q0 -131 32 -246t86.5 -197t124 -141.5t146 -88.5t152.5 -29q79 0 145 25t109 67t70.5 86t44.5 94v229l-312 23v31h588v-31q-41 0 -61.5 -2t-36.5 -5t-20.5 -15.5t-6.5 -24.5t-2 -41v-502h-23l-108 238q-58 -113 -174 -187t-266 -74zM547 1880q32 -93 99 -148t159 -55
q185 0 254 203h41q-21 -139 -102.5 -217t-192.5 -78q-122 0 -200.5 75t-98.5 220h41z" />
    <glyph glyph-name="gbreve" unicode="&#x11f;" horiz-adv-x="1159" 
d="M545 375q-70 0 -125 14q-57 -31 -98 -60.5t-41 -37.5q0 -67 118 -92l437 -95q123 -26 177 -68t54 -128q0 -109 -74 -201t-200 -145.5t-273 -53.5q-123 0 -226.5 42t-163.5 116t-60 162q0 23 18 50t64 64t68.5 53.5t83.5 59.5q16 12 24 17q-93 30 -131.5 76t-38.5 108
q0 33 209 150q-107 39 -171.5 120t-64.5 187q0 140 121 237t293 97q117 0 219 -48q119 10 185 43.5t118 102.5l18 -8l-63 -166h-207q73 -47 114.5 -114t41.5 -144q0 -147 -125 -242.5t-301 -95.5zM537 1010q-117 0 -184.5 -82.5t-67.5 -196.5q0 -133 79 -223t214 -90
q106 0 172.5 79.5t66.5 196.5q0 124 -78.5 220t-201.5 96zM272 1518q-1 -127 70.5 -198t192.5 -71q120 0 191 72.5t71 196.5h-39q-3 -73 -65 -120.5t-158 -47.5q-92 0 -156.5 48t-67.5 120h-39zM219 -129q0 -139 87.5 -220t256.5 -81q96 0 185 33.5t145.5 93.5t56.5 129
q0 61 -35 93t-127 52l-380 80l-11 2q-70 -51 -124 -106.5t-54 -75.5z" />
    <glyph glyph-name="Gdotaccent" unicode="&#x120;" horiz-adv-x="1501" 
d="M752 -23q-98 0 -193.5 32t-179.5 95.5t-148.5 151t-101.5 206.5t-37 253q0 113 27.5 219t86.5 201.5t143.5 167t206 113.5t265.5 42q225 0 484 -143l-9 -367h-30q-30 114 -67.5 194t-94 142t-138 92.5t-190.5 30.5q-123 0 -222 -52t-161.5 -141t-95.5 -203t-33 -243
q0 -131 32 -246t86.5 -197t124 -141.5t146 -88.5t152.5 -29q79 0 145 25t109 67t70.5 86t44.5 94v229l-312 23v31h588v-31q-41 0 -61.5 -2t-36.5 -5t-20.5 -15.5t-6.5 -24.5t-2 -41v-502h-23l-108 238q-58 -113 -174 -187t-266 -74zM803 1729q38 0 66 28t28 68
q0 38 -28.5 66t-65.5 28q-40 0 -68 -28t-28 -66q0 -41 28 -68.5t68 -27.5z" />
    <glyph glyph-name="gdotaccent" unicode="&#x121;" horiz-adv-x="1159" 
d="M545 375q-70 0 -125 14q-57 -31 -98 -60.5t-41 -37.5q0 -67 118 -92l437 -95q123 -26 177 -68t54 -128q0 -109 -74 -201t-200 -145.5t-273 -53.5q-123 0 -226.5 42t-163.5 116t-60 162q0 23 18 50t64 64t68.5 53.5t83.5 59.5q16 12 24 17q-93 30 -131.5 76t-38.5 108
q0 33 209 150q-107 39 -171.5 120t-64.5 187q0 140 121 237t293 97q117 0 219 -48q119 10 185 43.5t118 102.5l18 -8l-63 -166h-207q73 -47 114.5 -114t41.5 -144q0 -147 -125 -242.5t-301 -95.5zM537 1010q-117 0 -184.5 -82.5t-67.5 -196.5q0 -133 79 -223t214 -90
q106 0 172.5 79.5t66.5 196.5q0 124 -78.5 220t-201.5 96zM535 1317q38 0 66 28t28 68q0 38 -28.5 66t-65.5 28q-40 0 -68.5 -28t-28.5 -66q0 -41 28.5 -68.5t68.5 -27.5zM219 -129q0 -139 87.5 -220t256.5 -81q96 0 185 33.5t145.5 93.5t56.5 129q0 61 -35 93t-127 52
l-380 80l-11 2q-70 -51 -124 -106.5t-54 -75.5z" />
    <glyph glyph-name="uni0122" unicode="&#x122;" horiz-adv-x="1501" 
d="M752 -23q-98 0 -193.5 32t-179.5 95.5t-148.5 151t-101.5 206.5t-37 253q0 113 27.5 219t86.5 201.5t143.5 167t206 113.5t265.5 42q225 0 484 -143l-9 -367h-30q-30 114 -67.5 194t-94 142t-138 92.5t-190.5 30.5q-123 0 -222 -52t-161.5 -141t-95.5 -203t-33 -243
q0 -131 32 -246t86.5 -197t124 -141.5t146 -88.5t152.5 -29q79 0 145 25t109 67t70.5 86t44.5 94v229l-312 23v31h588v-31q-41 0 -61.5 -2t-36.5 -5t-20.5 -15.5t-6.5 -24.5t-2 -41v-502h-23l-108 238q-58 -113 -174 -187t-266 -74zM672 -571q108 57 160.5 138t52.5 165
q0 61 -31.5 100t-83.5 39q-47 0 -76.5 -31.5t-29.5 -77.5q0 -43 29 -68.5t65 -25.5q26 0 59 21q-7 -141 -160 -240z" />
    <glyph glyph-name="uni0123" unicode="&#x123;" horiz-adv-x="1159" 
d="M545 375q-70 0 -125 14q-57 -31 -98 -60.5t-41 -37.5q0 -67 118 -92l437 -95q123 -26 177 -68t54 -128q0 -109 -74 -201t-200 -145.5t-273 -53.5q-123 0 -226.5 42t-163.5 116t-60 162q0 23 18 50t64 64t68.5 53.5t83.5 59.5q16 12 24 17q-93 30 -131.5 76t-38.5 108
q0 33 209 150q-107 39 -171.5 120t-64.5 187q0 140 121 237t293 97q117 0 219 -48q119 10 185 43.5t118 102.5l18 -8l-63 -166h-207q73 -47 114.5 -114t41.5 -144q0 -147 -125 -242.5t-301 -95.5zM537 1010q-117 0 -184.5 -82.5t-67.5 -196.5q0 -133 79 -223t214 -90
q106 0 172.5 79.5t66.5 196.5q0 124 -78.5 220t-201.5 96zM631 1649q-108 -57 -160.5 -138t-52.5 -165q0 -61 31 -100.5t83 -39.5q47 0 77 31.5t30 77.5q0 43 -29 68.5t-65 25.5q-29 0 -60 -20q7 140 160 239zM219 -129q0 -139 87.5 -220t256.5 -81q96 0 185 33.5
t145.5 93.5t56.5 129q0 61 -35 93t-127 52l-380 80l-11 2q-70 -51 -124 -106.5t-54 -75.5z" />
    <glyph glyph-name="Hbar" unicode="&#x126;" horiz-adv-x="1632" 
d="M45 29q16 1 46.5 1t45 0.5t37 3.5t33.5 9.5t23 17.5t17 29t5 43v954h-225v58h225v166q0 29 -7.5 48t-21 28.5t-32.5 14t-42 4t-49.5 -0.5h-54.5v29h578v-29h-54.5t-50 0.5t-42.5 -4t-33 -14t-21.5 -28.5t-7.5 -48v-166h809v166q0 29 -7.5 48t-21.5 28.5t-33 14t-42.5 4
t-50 -0.5h-54.5v29h579v-29h-54.5t-50 0.5t-42.5 -4t-33 -14t-21.5 -28.5t-7.5 -48v-166h218v-58h-218v-954q0 -25 5 -43t17.5 -29t23.5 -17.5t34 -9.5t37.5 -3.5t45 -0.5t46.5 -1v-29h-579v29q16 1 46.5 1t45 0.5t37.5 3.5t34 9.5t23.5 17.5t17.5 29t5 43v596h-809v-596
q0 -25 5 -43t17.5 -29t23.5 -17.5t34 -9.5t37.5 -3.5t45 -0.5t46.5 -1v-29h-578v29zM414 791h809v296h-809v-296z" />
    <glyph glyph-name="hbar" unicode="&#x127;" horiz-adv-x="1298" 
d="M963 608q0 170 -61 256t-197 86q-56 0 -123.5 -29.5t-106 -55.5t-84.5 -62q-7 -6 -10 -8v-680q0 -21 3 -35.5t12.5 -23.5t17.5 -14.5t27 -8t31 -3t40.5 -0.5t44.5 -1v-29h-494v29q15 1 43.5 1t43 0.5t35 4.5t30.5 12t17.5 22.5t7.5 36.5v1117h-201v43h201v65
q0 26 -3 46.5t-6.5 35t-12 24t-15 15t-20.5 6.5t-23 1t-28 -5t-30 -8.5t-34.5 -11t-36.5 -11.5v31l350 125v-313h367v-43h-367v-373q7 5 37 25.5t43 29t43 28t47 29.5t45 26t48 24.5t43.5 17.5t44 13t38.5 4q151 0 242.5 -94t91.5 -244v-594q0 -18 3 -31.5t7.5 -22.5t15 -15
t19 -9t25.5 -4.5t29 -2t35.5 -0.5t39.5 -1v-29h-494v29q14 1 38.5 1t37.5 0.5t32.5 3t29.5 8t21 14.5t15.5 24t4.5 35v493z" />
    <glyph glyph-name="Imacron" unicode="&#x12a;" horiz-adv-x="710" 
d="M436 119q0 -18 5 -32t11.5 -23t20.5 -15.5t24.5 -10t32 -5.5t34.5 -2t40 -1t41 -1v-29h-579v29q14 0 41 1t40 1t34 2t31.5 5.5t24.5 10t20.5 15.5t11.5 23t5 32v1202q0 21 -5 35.5t-17 23.5t-23.5 14t-33.5 7t-38 2.5t-44.5 0.5t-46.5 1v29h579v-29q-18 -1 -47 -1
t-44.5 -0.5t-37.5 -2.5t-34 -7t-24 -14t-17 -24t-5 -35v-1202zM639 1792h-555v-82h555v82z" />
    <glyph glyph-name="imacron" unicode="&#x12b;" horiz-adv-x="587" 
d="M33 909v33l348 105v-947q0 -26 8 -41t23 -21t36 -7.5t48 -1t59 -0.5v-29h-494v29q27 2 52.5 0.5t48.5 1t40.5 8t27.5 21.5t10 42v715q0 23 -1 40.5t-4.5 31t-6 23.5t-10.5 16t-13 10t-18 4t-21 -0.5t-27 -4.5t-30 -7t-36 -10q-26 -7 -40 -11zM575 1382h-555v-82h555v82z
" />
    <glyph glyph-name="Iogonek" unicode="&#x12e;" horiz-adv-x="710" 
d="M436 119q0 -18 5 -32t11.5 -23t20.5 -15.5t24.5 -10t32 -5.5t34.5 -2t40 -1t41 -1v-29h-229q-9 -9 -30.5 -32t-28 -30.5t-21 -25t-19.5 -27t-12.5 -24.5t-9.5 -29.5t-2 -30.5q0 -63 40 -97t91 -34q79 0 139 70l23 -19q-96 -129 -205 -129q-79 0 -132.5 50.5t-53.5 126.5
q0 34 10 63t32 54t38 40t49.5 40t44.5 34h-303v29q14 0 41 1t40 1t34 2t31.5 5.5t24.5 10t20.5 15.5t11.5 23t5 32v1202q0 21 -5 35.5t-17 23.5t-23.5 14t-33.5 7t-38 2.5t-44.5 0.5t-46.5 1v29h579v-29q-18 -1 -47 -1t-44.5 -0.5t-37.5 -2.5t-34 -7t-24 -14t-17 -24t-5 -35
v-1202z" />
    <glyph glyph-name="iogonek" unicode="&#x12f;" horiz-adv-x="575" 
d="M33 909v33l348 105v-947q0 -26 8 -41t23 -21t36 -7.5t48 -1t59 -0.5v-29h-178q-9 -9 -30.5 -32t-28 -30.5t-21 -25t-19.5 -27t-12.5 -24.5t-9.5 -29.5t-2 -30.5q0 -63 40 -97t91 -34q79 0 139 70l23 -19q-96 -129 -205 -129q-79 0 -132.5 50.5t-53.5 126.5q0 34 10 63
t32 54t38 40t49.5 40t44.5 34h-269v29q27 2 52.5 0.5t48.5 1t40.5 8t27.5 21.5t10 42v715q0 23 -1 40.5t-4.5 31t-6 23.5t-10.5 16t-13 10t-18 4t-21 -0.5t-27 -4.5t-30 -7t-36 -10q-26 -7 -40 -11zM297 1358q46 0 77.5 32t31.5 78q0 44 -32.5 76.5t-76.5 32.5
q-49 0 -80 -33.5t-31 -75.5q0 -44 33 -77t78 -33z" />
    <glyph glyph-name="Idotaccent" unicode="&#x130;" horiz-adv-x="710" 
d="M436 119q0 -18 5 -32t11.5 -23t20.5 -15.5t24.5 -10t32 -5.5t34.5 -2t40 -1t41 -1v-29h-579v29q14 0 41 1t40 1t34 2t31.5 5.5t24.5 10t20.5 15.5t11.5 23t5 32v1202q0 21 -5 35.5t-17 23.5t-23.5 14t-33.5 7t-38 2.5t-44.5 0.5t-46.5 1v29h579v-29q-18 -1 -47 -1
t-44.5 -0.5t-37.5 -2.5t-34 -7t-24 -14t-17 -24t-5 -35v-1202zM362 1702q38 0 66.5 28t28.5 68q0 38 -29 66t-66 28q-40 0 -68 -28t-28 -66q0 -41 28 -68.5t68 -27.5z" />
    <glyph glyph-name="dotlessi" unicode="&#x131;" horiz-adv-x="587" 
d="M33 909v33l348 105v-947q0 -26 8 -41t23 -21t36 -7.5t48 -1t59 -0.5v-29h-494v29q27 2 52.5 0.5t48.5 1t40.5 8t27.5 21.5t10 42v715q0 23 -1 40.5t-4.5 31t-6 23.5t-10.5 16t-13 10t-18 4t-21 -0.5t-27 -4.5t-30 -7t-36 -10q-26 -7 -40 -11z" />
    <glyph glyph-name="uni0136" unicode="&#x136;" horiz-adv-x="1423" 
d="M416 123q0 -16 3 -29t11 -22t14.5 -16t22 -11.5t24.5 -7t30.5 -4t31 -2t36 -1.5t36.5 -1v-29h-580v29q10 0 36.5 1t36 1.5t31 2t30.5 4t24.5 7t22 11.5t14.5 16t11 22t3 29v1198q0 20 -5 35t-17 24t-24 14t-34 7t-37.5 2.5t-44.5 0.5t-47 1v29h580v-29q-18 -1 -47 -1
t-44.5 -0.5t-37.5 -2.5t-34 -7t-24 -14t-17 -24t-5 -35v-635l518 494q77 74 104 109t27 63q0 13 -3 22t-11.5 14.5t-16 9t-23.5 5t-26.5 2t-32.5 0.5h-34v29h483v-29q-58 -1 -97.5 -7t-70 -23t-45.5 -29t-45 -41l-441 -426q45 -61 184.5 -254.5t248 -340t145.5 -188.5
q30 -34 63 -49t89 -16l65 -2v-29h-332q-56 75 -257 348t-316 424l-176 -170v-479zM694 -571q108 57 160.5 138t52.5 165q0 61 -31 100t-83 39q-47 0 -77 -31.5t-30 -77.5q0 -43 29 -68.5t65 -25.5q27 0 60 21q-7 -141 -160 -240z" />
    <glyph glyph-name="uni0137" unicode="&#x137;" horiz-adv-x="1161" 
d="M979 119q30 -49 72.5 -65.5t136.5 -24.5v-29h-324l-356 610l-150 -112v-363q0 -68 29.5 -85.5t144.5 -18.5v-31h-493v31q63 1 94.5 4t52.5 15t26 30.5t5 54.5v1251q0 39 -5.5 62t-16.5 34t-31 10.5t-45 -7t-61 -18.5l-27 -9v35l327 104v-1036l461 342q37 27 49.5 47
t-6 32.5t-71.5 12.5h-82v29h430v-29q-80 0 -140 -27.5t-192 -127.5l-184 -140zM512 -571q108 57 160.5 138t52.5 165q0 61 -31.5 100t-83.5 39q-47 0 -76.5 -31.5t-29.5 -77.5q0 -43 29 -68.5t65 -25.5q26 0 59 21q-7 -142 -159 -240z" />
    <glyph glyph-name="Lacute" unicode="&#x139;" horiz-adv-x="1316" 
d="M45 29q139 3 174 18.5t35 85.5v1188q0 20 -5 35t-17 24t-24 14t-34 7t-37.5 2.5t-44.5 0.5t-47 1v29h580v-29q-18 -1 -47 -1t-44.5 -0.5t-37.5 -2.5t-34 -7t-24 -14t-17 -24t-5 -35v-1270h532q68 0 119.5 29t85.5 86.5t55.5 126t38.5 162.5h39l-53 -455h-1188v29z
M242 1585l397 254l-80 100l-344 -323z" />
    <glyph glyph-name="lacute" unicode="&#x13a;" horiz-adv-x="587" 
d="M377 125q0 -26 8.5 -44t19.5 -27.5t37.5 -15t45.5 -6.5t61 -3v-29h-492v29q32 1 46 2t40.5 4.5t38.5 10t27 17.5t21 28.5t6 41.5v1239q0 35 -11 55.5t-26.5 27t-40.5 4.5t-43 -7.5t-45.5 -14.5t-38.5 -12v29l346 125v-1454zM205 1681l397 254l-80 101l-344 -324z" />
    <glyph glyph-name="uni013B" unicode="&#x13b;" horiz-adv-x="1316" 
d="M45 29q139 3 174 18.5t35 85.5v1188q0 20 -5 35t-17 24t-24 14t-34 7t-37.5 2.5t-44.5 0.5t-47 1v29h580v-29q-18 -1 -47 -1t-44.5 -0.5t-37.5 -2.5t-34 -7t-24 -14t-17 -24t-5 -35v-1270h532q68 0 119.5 29t85.5 86.5t55.5 126t38.5 162.5h39l-53 -455h-1188v29z
M557 -571q108 57 160.5 138t52.5 165q0 61 -31.5 100t-83.5 39q-47 0 -76.5 -31.5t-29.5 -77.5q0 -43 29 -68.5t65 -25.5q26 0 59 21q-7 -142 -159 -240z" />
    <glyph glyph-name="uni013C" unicode="&#x13c;" horiz-adv-x="587" 
d="M377 125q0 -26 8.5 -44t19.5 -27.5t37.5 -15t45.5 -6.5t61 -3v-29h-492v29q32 1 46 2t40.5 4.5t38.5 10t27 17.5t21 28.5t6 41.5v1239q0 35 -11 55.5t-26.5 27t-40.5 4.5t-43 -7.5t-45.5 -14.5t-38.5 -12v29l346 125v-1454zM199 -571q108 57 160.5 138t52.5 165
q0 61 -31.5 100t-83.5 39q-47 0 -77 -31.5t-30 -77.5q0 -43 29.5 -68.5t65.5 -25.5q26 0 59 21q-7 -141 -160 -240z" />
    <glyph glyph-name="Lcaron" unicode="&#x13d;" horiz-adv-x="1316" 
d="M45 29q139 3 174 18.5t35 85.5v1188q0 20 -5 35t-17 24t-24 14t-34 7t-37.5 2.5t-44.5 0.5t-47 1v29h580v-29q-18 -1 -47 -1t-44.5 -0.5t-37.5 -2.5t-34 -7t-24 -14t-17 -24t-5 -35v-1270h532q68 0 119.5 29t85.5 86.5t55.5 126t38.5 162.5h39l-53 -455h-1188v29z
M799 1378l-33 -428h47l129 414q18 58 -26 79q-38 19 -78 -3q-37 -21 -39 -62z" />
    <glyph glyph-name="lcaron" unicode="&#x13e;" horiz-adv-x="745" 
d="M377 125q0 -26 8.5 -44t19.5 -27.5t37.5 -15t45.5 -6.5t61 -3v-29h-492v29q32 1 46 2t40.5 4.5t38.5 10t27 17.5t21 28.5t6 41.5v1239q0 35 -11 55.5t-26.5 27t-40.5 4.5t-43 -7.5t-45.5 -14.5t-38.5 -12v29l346 125v-1454zM578 1501l-33 -428h47l129 414q18 58 -26 79
q-38 19 -78 -3q-37 -21 -39 -62z" />
    <glyph glyph-name="Lslash" unicode="&#x141;" horiz-adv-x="1312" 
d="M45 29q139 3 174 18.5t35 85.5v610l-180 -98l-31 49l211 115v512q0 20 -5 35t-17 24t-24 14t-34 7t-37.5 2.5t-44.5 0.5t-47 1v29h580v-29q-18 -1 -47 -1t-44.5 -0.5t-37.5 -2.5t-34 -7t-24 -14t-17 -24t-5 -35v-424l268 145l31 -49l-299 -162v-780h532q68 0 119.5 29
t85.5 86.5t55.5 126t38.5 162.5h39l-53 -455h-1188v29z" />
    <glyph glyph-name="lslash" unicode="&#x142;" horiz-adv-x="595" 
d="M72 651l-29 43l193 119v559q0 35 -11 55.5t-26.5 27t-40.5 4.5t-43 -7.5t-45.5 -14.5t-38.5 -12v29l346 125v-680l151 92l29 -43l-180 -110v-713q0 -26 8.5 -44t19.5 -27.5t37.5 -15t45.5 -6.5t61 -3v-29h-492v29q32 1 46 2t40.5 4.5t38.5 10t27 17.5t21 28.5t6 41.5v619
z" />
    <glyph glyph-name="Nacute" unicode="&#x143;" horiz-adv-x="1579" 
d="M350 111q0 -14 2.5 -25t9.5 -19.5t13 -14t19.5 -9.5t22 -6.5t28 -3.5t30 -1.5t34.5 -1.5t36 -1v-29h-482v29q12 0 36 1t35.5 1.5t31.5 1.5t30 3.5t25 6.5t22 9.5t15 13.5t11 19.5t3 25.5v1194q-54 70 -86 83.5t-141 16.5v29h322l903 -1190v1056q0 70 -35.5 86t-173.5 19
v29h493v-29q-138 -3 -173 -19t-35 -86v-1300h-78l-918 1210v-1099zM698 1559l398 253l-80 101l-344 -324z" />
    <glyph glyph-name="nacute" unicode="&#x144;" horiz-adv-x="1308" 
d="M965 649q0 295 -242 295q-24 0 -50.5 -6t-49.5 -14.5t-51 -23t-46.5 -26t-45 -30t-39 -28t-34.5 -26.5t-26 -20v-647q0 -17 2 -29.5t8 -22t10.5 -16.5t17 -11t19.5 -7t25 -4.5t27.5 -1.5t33 -1t35.5 -1v-29h-498v29q10 0 33.5 1t33.5 1.5t29.5 2.5t28 6t21.5 10.5
t18.5 16t10 24t4.5 32.5v743q0 31 -7 48.5t-20 24.5t-33.5 6t-45 -7t-57.5 -16q-29 -9 -44 -13v33l348 105v-211q11 7 57.5 39.5t70.5 48.5t68.5 43.5t74 42t64 26t58.5 11.5q148 0 242 -96t94 -240v-588q0 -17 2 -29.5t8 -22t10.5 -16.5t17 -11t19.5 -7t25 -4.5t27.5 -1.5
t33 -1t35.5 -1v-29h-502v29q10 0 33.5 1t33.5 1.5t29.5 2.5t28 6t21.5 10.5t18.5 16t10 24t4.5 32.5v526zM614 1149l398 254l-80 100l-344 -323z" />
    <glyph glyph-name="uni0145" unicode="&#x145;" horiz-adv-x="1579" 
d="M350 111q0 -14 2.5 -25t9.5 -19.5t13 -14t19.5 -9.5t22 -6.5t28 -3.5t30 -1.5t34.5 -1.5t36 -1v-29h-482v29q12 0 36 1t35.5 1.5t31.5 1.5t30 3.5t25 6.5t22 9.5t15 13.5t11 19.5t3 25.5v1194q-54 70 -86 83.5t-141 16.5v29h322l903 -1190v1056q0 70 -35.5 86t-173.5 19
v29h493v-29q-138 -3 -173 -19t-35 -86v-1300h-78l-918 1210v-1099zM692 -571q108 57 160.5 138t52.5 165q0 61 -31 100t-83 39q-47 0 -77 -31.5t-30 -77.5q0 -43 29 -68.5t65 -25.5q27 0 60 21q-7 -141 -160 -240z" />
    <glyph glyph-name="uni0146" unicode="&#x146;" horiz-adv-x="1308" 
d="M965 649q0 295 -242 295q-24 0 -50.5 -6t-49.5 -14.5t-51 -23t-46.5 -26t-45 -30t-39 -28t-34.5 -26.5t-26 -20v-647q0 -17 2 -29.5t8 -22t10.5 -16.5t17 -11t19.5 -7t25 -4.5t27.5 -1.5t33 -1t35.5 -1v-29h-498v29q10 0 33.5 1t33.5 1.5t29.5 2.5t28 6t21.5 10.5
t18.5 16t10 24t4.5 32.5v743q0 31 -7 48.5t-20 24.5t-33.5 6t-45 -7t-57.5 -16q-29 -9 -44 -13v33l348 105v-211q11 7 57.5 39.5t70.5 48.5t68.5 43.5t74 42t64 26t58.5 11.5q148 0 242 -96t94 -240v-588q0 -17 2 -29.5t8 -22t10.5 -16.5t17 -11t19.5 -7t25 -4.5t27.5 -1.5
t33 -1t35.5 -1v-29h-502v29q10 0 33.5 1t33.5 1.5t29.5 2.5t28 6t21.5 10.5t18.5 16t10 24t4.5 32.5v526zM571 -571q108 57 160.5 138t52.5 165q0 61 -31 100t-83 39q-47 0 -77 -31.5t-30 -77.5q0 -43 29 -68.5t65 -25.5q27 0 60 21q-7 -141 -160 -240z" />
    <glyph glyph-name="Ncaron" unicode="&#x147;" horiz-adv-x="1579" 
d="M350 111q0 -14 2.5 -25t9.5 -19.5t13 -14t19.5 -9.5t22 -6.5t28 -3.5t30 -1.5t34.5 -1.5t36 -1v-29h-482v29q12 0 36 1t35.5 1.5t31.5 1.5t30 3.5t25 6.5t22 9.5t15 13.5t11 19.5t3 25.5v1194q-54 70 -86 83.5t-141 16.5v29h322l903 -1190v1056q0 70 -35.5 86t-173.5 19
v29h493v-29q-138 -3 -173 -19t-35 -86v-1300h-78l-918 1210v-1099zM494 1847l288 -295h23l289 295l-35 37l-266 -205l-265 205z" />
    <glyph glyph-name="ncaron" unicode="&#x148;" horiz-adv-x="1308" 
d="M965 649q0 295 -242 295q-24 0 -50.5 -6t-49.5 -14.5t-51 -23t-46.5 -26t-45 -30t-39 -28t-34.5 -26.5t-26 -20v-647q0 -17 2 -29.5t8 -22t10.5 -16.5t17 -11t19.5 -7t25 -4.5t27.5 -1.5t33 -1t35.5 -1v-29h-498v29q10 0 33.5 1t33.5 1.5t29.5 2.5t28 6t21.5 10.5
t18.5 16t10 24t4.5 32.5v743q0 31 -7 48.5t-20 24.5t-33.5 6t-45 -7t-57.5 -16q-29 -9 -44 -13v33l348 105v-211q11 7 57.5 39.5t70.5 48.5t68.5 43.5t74 42t64 26t58.5 11.5q148 0 242 -96t94 -240v-588q0 -17 2 -29.5t8 -22t10.5 -16.5t17 -11t19.5 -7t25 -4.5t27.5 -1.5
t33 -1t35.5 -1v-29h-502v29q10 0 33.5 1t33.5 1.5t29.5 2.5t28 6t21.5 10.5t18.5 16t10 24t4.5 32.5v526zM414 1505l264 -299h22l265 299l-25 25l-252 -195l-246 195z" />
    <glyph glyph-name="Eng" unicode="&#x14a;" horiz-adv-x="1570" 
d="M1270 0q0 -46 -2 -79t-8.5 -73.5t-20 -68.5t-35 -54.5t-56.5 -42.5t-81 -22v-29q281 6 281 369v1300q0 70 35 86t173 19v29h-493v-29q138 -3 173.5 -19t35.5 -86v-1050l-903 1184h-322v-29q21 -1 56.5 -1t49 -0.5t36 -3.5t30.5 -9t18.5 -17.5t13.5 -29.5t3 -44v-1167
q0 -24 -8 -41.5t-27 -28.5t-33.5 -17.5t-46.5 -10t-45 -4t-49 -2.5v-29h481v29q-38 1 -54.5 2t-45 4.5t-41 10t-27.5 17.5t-20.5 28.5t-5.5 41.5v1098z" />
    <glyph glyph-name="eng" unicode="&#x14b;" horiz-adv-x="1232" 
d="M1110 -12q0 -351 -350 -357v23q34 3 62 10.5t48.5 16t36 23.5t25.5 26.5t17 33t10.5 35t5 41t1.5 41.5t-0.5 45.5t-0.5 46.5v680q0 295 -242 295q-124 0 -331 -160q-8 -5 -11 -8v-659q0 -16 2 -28.5t8 -22t10.5 -16t17 -11t19.5 -7t25 -4t27.5 -1.5t33 -1t35.5 -1v-29
h-498v29q10 0 33.5 1t33.5 1.5t29.5 2.5t28 5.5t21.5 10.5t18.5 16t10 23t4.5 32v745q0 20 -2.5 35t-9 24.5t-13 15.5t-19.5 6.5t-23 0t-30 -5.5t-33 -9l-39 -12q-25 -8 -38 -12v33l348 105v-207q11 7 57.5 39.5t70.5 48.5t68.5 43.5t74 42t64 26t58.5 11.5q148 0 242 -96
t94 -240v-727z" />
    <glyph glyph-name="Omacron" unicode="&#x14c;" horiz-adv-x="1581" 
d="M793 -23q-123 0 -233.5 40t-195 110t-146.5 163t-94 203.5t-32 225.5q0 152 51 287.5t141.5 236t222.5 159t286 58.5t285.5 -58.5t220.5 -159t139.5 -236t50.5 -287.5q0 -145 -50.5 -279t-139.5 -237t-221 -164.5t-285 -61.5zM793 1399q-162 0 -279.5 -89.5t-176 -241.5
t-58.5 -349q0 -131 34.5 -251.5t97.5 -215t162.5 -151t219.5 -56.5q97 0 180 37t143 101t102.5 149.5t63.5 183.5t21 203q0 197 -57.5 349t-174 241.5t-278.5 89.5zM1067 1792h-555v-82h555v82z" />
    <glyph glyph-name="omacron" unicode="&#x14d;" horiz-adv-x="1196" 
d="M604 -23q-146 0 -266 74.5t-186 197t-66 263.5q0 145 66 267t185.5 195t266.5 73t263.5 -73t179.5 -195t63 -267q0 -106 -37 -203t-102.5 -170.5t-161 -117.5t-205.5 -44zM604 989q-153 0 -253.5 -136.5t-100.5 -340.5q0 -130 45 -239t127 -173.5t182 -64.5
q99 0 178 64.5t121.5 173t42.5 239.5q0 205 -95 341t-247 136zM881 1382h-555v-82h555v82z" />
    <glyph glyph-name="Ohungarumlaut" unicode="&#x150;" horiz-adv-x="1581" 
d="M793 -23q-123 0 -233.5 40t-195 110t-146.5 163t-94 203.5t-32 225.5q0 152 51 287.5t141.5 236t222.5 159t286 58.5t285.5 -58.5t220.5 -159t139.5 -236t50.5 -287.5q0 -145 -50.5 -279t-139.5 -237t-221 -164.5t-285 -61.5zM793 1399q-162 0 -279.5 -89.5t-176 -241.5
t-58.5 -349q0 -131 34.5 -251.5t97.5 -215t162.5 -151t219.5 -56.5q97 0 180 37t143 101t102.5 149.5t63.5 183.5t21 203q0 197 -57.5 349t-174 241.5t-278.5 89.5zM535 1559l397 253l-80 101l-344 -324zM940 1559l397 253l-80 101l-344 -324z" />
    <glyph glyph-name="ohungarumlaut" unicode="&#x151;" horiz-adv-x="1196" 
d="M604 -23q-146 0 -266 74.5t-186 197t-66 263.5q0 145 66 267t185.5 195t266.5 73t263.5 -73t179.5 -195t63 -267q0 -106 -37 -203t-102.5 -170.5t-161 -117.5t-205.5 -44zM604 989q-153 0 -253.5 -136.5t-100.5 -340.5q0 -130 45 -239t127 -173.5t182 -64.5
q99 0 178 64.5t121.5 173t42.5 239.5q0 205 -95 341t-247 136zM348 1149l397 254l-79 100l-344 -323zM754 1149l397 254l-80 100l-344 -323z" />
    <glyph glyph-name="OE" unicode="&#x152;" horiz-adv-x="2082" 
d="M805 0q-207 0 -370 92t-253 256t-90 371q0 197 89.5 360t253.5 259t370 96h1091l46 -455h-39q-18 124 -39.5 200.5t-55.5 121t-75.5 60t-106.5 15.5h-475v-616h461q130 0 135 227h33v-516h-33q-6 231 -135 231h-461v-643h508q65 0 114 22t76 44.5t52.5 83t32.5 87.5
t26 109q8 33 12 50h39l-88 -455h-1118zM842 53q80 0 111.5 14.5t31.5 63.5v1155q0 36 -5.5 56t-24 28.5t-35 10t-57.5 1.5h-21q-135 0 -243 -50t-177.5 -139.5t-106 -210t-36.5 -263.5q0 -108 23 -206t69.5 -182t112.5 -146t158 -97t200 -35z" />
    <glyph glyph-name="oe" unicode="&#x153;" horiz-adv-x="2002" 
d="M604 -23q-147 0 -266.5 75t-185.5 198t-66 266t66 264t185.5 194t266.5 73q142 0 252 -68.5t174 -190.5q59 121 167 190t257 69q185 0 306.5 -115.5t123.5 -286.5h-774q-2 -16 -2 -47q0 -225 113.5 -367.5t306.5 -142.5q41 0 83.5 10t93 34t99.5 74.5t86 121.5l37 -15
q-149 -336 -459 -336q-145 0 -260 67.5t-178 191.5q-66 -122 -175.5 -190.5t-250.5 -68.5zM250 516q0 -202 101 -341.5t253 -139.5q151 0 246.5 139t95.5 342q0 133 -42.5 240.5t-121 170t-178.5 62.5q-153 0 -253.5 -136t-100.5 -337zM1712 684q-17 141 -96.5 225
t-196.5 84q-68 0 -123 -26.5t-91 -71.5t-58.5 -98t-32.5 -113h598z" />
    <glyph glyph-name="Racute" unicode="&#x154;" horiz-adv-x="1310" 
d="M1249 45l92 -16v-29h-94q-60 0 -112.5 15.5t-93 40.5t-80 68t-69 84.5t-64 104t-60 114t-63.5 127t-68 130.5q-25 -2 -78 -2h-143v-569q0 -21 4.5 -35.5t15 -23.5t20.5 -14t30.5 -7t35 -2.5t42.5 -0.5t46 -1v-29h-565v29q19 1 49.5 1t46 0.5t37.5 2.5t33 7t22.5 14
t16 23.5t4.5 35.5v1187q0 78 -25.5 91.5t-162.5 13.5h-21v29h604q212 0 339.5 -87.5t127.5 -250.5q0 -137 -79.5 -238.5t-235.5 -144.5q6 -13 21 -43q35 -72 57 -116.5t65 -127t77.5 -137t76.5 -113.5t80 -92t71 -39zM596 733q90 0 170 40.5t133 121.5t53 184q0 64 -22 117
t-69 96.5t-130 67.5t-196 24h-119v-651h180zM516 1559l397 253l-79 101l-345 -324z" />
    <glyph glyph-name="racute" unicode="&#x155;" horiz-adv-x="960" 
d="M817 645q21 155 -22.5 236.5t-135.5 81.5q-28 0 -60 -16.5t-56.5 -35t-63.5 -60.5t-57 -63.5t-60 -72.5v-596q0 -27 7 -43t24 -26t45 -14t69.5 -5.5t98.5 -1.5h53v-29h-616v29q113 2 137 9q36 11 40 53q1 9 1 20v741q0 35 -9 55.5t-21.5 28.5t-39 5.5t-47.5 -8.5t-62 -19
l-9 -3v31l329 105v-263q26 32 35 43.5t39.5 47t48.5 52.5t50.5 45.5t57.5 42t57 25t61 11.5q76 0 136 -44.5t85 -109.5l-88 -252h-27zM385 1149l397 254l-80 100l-344 -323z" />
    <glyph glyph-name="uni0156" unicode="&#x156;" horiz-adv-x="1310" 
d="M1249 45l92 -16v-29h-94q-60 0 -112.5 15.5t-93 40.5t-80 68t-69 84.5t-64 104t-60 114t-63.5 127t-68 130.5q-25 -2 -78 -2h-143v-569q0 -21 4.5 -35.5t15 -23.5t20.5 -14t30.5 -7t35 -2.5t42.5 -0.5t46 -1v-29h-565v29q19 1 49.5 1t46 0.5t37.5 2.5t33 7t22.5 14
t16 23.5t4.5 35.5v1187q0 78 -25.5 91.5t-162.5 13.5h-21v29h604q212 0 339.5 -87.5t127.5 -250.5q0 -137 -79.5 -238.5t-235.5 -144.5q6 -13 21 -43q35 -72 57 -116.5t65 -127t77.5 -137t76.5 -113.5t80 -92t71 -39zM596 733q90 0 170 40.5t133 121.5t53 184q0 64 -22 117
t-69 96.5t-130 67.5t-196 24h-119v-651h180zM551 -571q108 57 160.5 138t52.5 165q0 61 -31.5 100t-83.5 39q-47 0 -76.5 -31.5t-29.5 -77.5q0 -43 29 -68.5t65 -25.5q26 0 59 21q-7 -142 -159 -240z" />
    <glyph glyph-name="uni0157" unicode="&#x157;" horiz-adv-x="960" 
d="M817 645q21 155 -22.5 236.5t-135.5 81.5q-28 0 -60 -16.5t-56.5 -35t-63.5 -60.5t-57 -63.5t-60 -72.5v-596q0 -27 7 -43t24 -26t45 -14t69.5 -5.5t98.5 -1.5h53v-29h-616v29q113 2 137 9q36 11 40 53q1 9 1 20v741q0 35 -9 55.5t-21.5 28.5t-39 5.5t-47.5 -8.5t-62 -19
l-9 -3v31l329 105v-263q26 32 35 43.5t39.5 47t48.5 52.5t50.5 45.5t57.5 42t57 25t61 11.5q76 0 136 -44.5t85 -109.5l-88 -252h-27zM193 -571q108 57 160.5 138t52.5 165q0 61 -31.5 100t-83.5 39q-47 0 -77 -31.5t-30 -77.5q0 -43 29.5 -68.5t65.5 -25.5q26 0 59 21
q-7 -141 -160 -240z" />
    <glyph glyph-name="Rcaron" unicode="&#x158;" horiz-adv-x="1310" 
d="M1249 45l92 -16v-29h-94q-60 0 -112.5 15.5t-93 40.5t-80 68t-69 84.5t-64 104t-60 114t-63.5 127t-68 130.5q-25 -2 -78 -2h-143v-569q0 -21 4.5 -35.5t15 -23.5t20.5 -14t30.5 -7t35 -2.5t42.5 -0.5t46 -1v-29h-565v29q19 1 49.5 1t46 0.5t37.5 2.5t33 7t22.5 14
t16 23.5t4.5 35.5v1187q0 78 -25.5 91.5t-162.5 13.5h-21v29h604q212 0 339.5 -87.5t127.5 -250.5q0 -137 -79.5 -238.5t-235.5 -144.5q6 -13 21 -43q35 -72 57 -116.5t65 -127t77.5 -137t76.5 -113.5t80 -92t71 -39zM596 733q90 0 170 40.5t133 121.5t53 184q0 64 -22 117
t-69 96.5t-130 67.5t-196 24h-119v-651h180zM311 1847l289 -295h23l288 295l-34 37l-267 -205l-264 205z" />
    <glyph glyph-name="rcaron" unicode="&#x159;" horiz-adv-x="960" 
d="M817 645q21 155 -22.5 236.5t-135.5 81.5q-28 0 -60 -16.5t-56.5 -35t-63.5 -60.5t-57 -63.5t-60 -72.5v-596q0 -27 7 -43t24 -26t45 -14t69.5 -5.5t98.5 -1.5h53v-29h-616v29q113 2 137 9q36 11 40 53q1 9 1 20v741q0 35 -9 55.5t-21.5 28.5t-39 5.5t-47.5 -8.5t-62 -19
l-9 -3v31l329 105v-263q26 32 35 43.5t39.5 47t48.5 52.5t50.5 45.5t57.5 42t57 25t61 11.5q76 0 136 -44.5t85 -109.5l-88 -252h-27zM184 1505l265 -299h22l264 299l-24 25l-252 -195l-246 195z" />
    <glyph glyph-name="Sacute" unicode="&#x15a;" horiz-adv-x="1116" 
d="M987 1329l-59 -352h-31q3 190 -97.5 310t-291.5 120q-122 0 -202.5 -69.5t-80.5 -176.5q0 -101 61 -166t179 -121l301 -139q138 -64 200 -144.5t62 -189.5q0 -83 -32 -158t-92 -135t-154.5 -95.5t-210.5 -35.5q-80 0 -157.5 19.5t-143 54.5t-97.5 56t-73 51l41 360h30
q5 -222 118 -355.5t308 -129.5q150 3 231 94.5t81 224.5q0 79 -50.5 142.5t-164.5 115.5l-293 133q-297 135 -297 365q0 111 62.5 191.5t168 120.5t240.5 40q134 0 269 -49.5t175 -81.5zM446 1559l398 253l-80 101l-344 -324z" />
    <glyph glyph-name="sacute" unicode="&#x15b;" horiz-adv-x="942" 
d="M819 944l-41 -272h-28q-4 87 -29.5 151.5t-68 102.5t-94.5 56.5t-114 18.5q-97 0 -151.5 -50.5t-54.5 -129.5q0 -77 47.5 -124t148.5 -87l152 -59q142 -57 202 -117.5t60 -163.5q0 -124 -110.5 -208.5t-276.5 -84.5q-101 0 -204.5 39t-162.5 80l15 291h30
q17 -163 109 -261.5t215 -98.5q112 0 181 62t69 144q0 68 -47.5 117.5t-165.5 95.5l-148 58q-120 47 -185 111t-65 169q0 124 97 193.5t260 69.5q100 0 200 -31t160 -72zM365 1149l397 254l-80 100l-344 -323z" />
    <glyph glyph-name="Scedilla" unicode="&#x15e;" horiz-adv-x="1116" 
d="M987 1329l-59 -352h-31q3 190 -97.5 310t-291.5 120q-122 0 -202.5 -69.5t-80.5 -176.5q0 -101 61 -166t179 -121l301 -139q138 -64 200 -144.5t62 -189.5q0 -106 -49 -197t-151.5 -153t-241.5 -71l-56 -111q61 25 99 25q74 0 119 -40.5t45 -109.5q0 -90 -92 -159
t-261 -83l-6 37q138 25 198 66.5t60 115.5q0 56 -30.5 86.5t-75.5 30.5q-60 0 -125 -61l-23 16l88 184q-231 4 -458 181l41 360h30q5 -222 118 -355.5t308 -129.5q150 3 231 94.5t81 224.5q0 79 -50.5 142.5t-164.5 115.5l-293 133q-297 135 -297 365q0 111 62.5 191.5
t168 120.5t240.5 40q134 0 269 -49.5t175 -81.5z" />
    <glyph glyph-name="scedilla" unicode="&#x15f;" horiz-adv-x="942" 
d="M819 944l-41 -272h-28q-4 87 -29.5 151.5t-68 102.5t-94.5 56.5t-114 18.5q-97 0 -151.5 -50.5t-54.5 -129.5q0 -77 47.5 -124t148.5 -87l152 -59q142 -57 202 -117.5t60 -163.5q0 -119 -102.5 -202.5t-260.5 -90.5l-53 -108q61 25 98 25q74 0 119 -40.5t45 -109.5
q0 -90 -91.5 -159t-260.5 -83l-6 37q138 25 198 66.5t60 115.5q0 56 -31 86.5t-76 30.5q-60 0 -125 -61l-22 16l88 187q-95 5 -188 41.5t-146 74.5l15 291h30q17 -163 109 -261.5t215 -98.5q112 0 181 62t69 144q0 68 -47.5 117.5t-165.5 95.5l-148 58q-120 47 -185 111
t-65 169q0 124 97 193.5t260 69.5q100 0 200 -31t160 -72z" />
    <glyph glyph-name="Scaron" unicode="&#x160;" horiz-adv-x="1116" 
d="M987 1329l-59 -352h-31q3 190 -97.5 310t-291.5 120q-122 0 -202.5 -69.5t-80.5 -176.5q0 -101 61 -166t179 -121l301 -139q138 -64 200 -144.5t62 -189.5q0 -83 -32 -158t-92 -135t-154.5 -95.5t-210.5 -35.5q-80 0 -157.5 19.5t-143 54.5t-97.5 56t-73 51l41 360h30
q5 -222 118 -355.5t308 -129.5q150 3 231 94.5t81 224.5q0 79 -50.5 142.5t-164.5 115.5l-293 133q-297 135 -297 365q0 111 62.5 191.5t168 120.5t240.5 40q134 0 269 -49.5t175 -81.5zM242 1847l288 -295h23l289 295l-35 37l-266 -205l-265 205z" />
    <glyph glyph-name="scaron" unicode="&#x161;" horiz-adv-x="942" 
d="M819 944l-41 -272h-28q-4 87 -29.5 151.5t-68 102.5t-94.5 56.5t-114 18.5q-97 0 -151.5 -50.5t-54.5 -129.5q0 -77 47.5 -124t148.5 -87l152 -59q142 -57 202 -117.5t60 -163.5q0 -124 -110.5 -208.5t-276.5 -84.5q-101 0 -204.5 39t-162.5 80l15 291h30
q17 -163 109 -261.5t215 -98.5q112 0 181 62t69 144q0 68 -47.5 117.5t-165.5 95.5l-148 58q-120 47 -185 111t-65 169q0 124 97 193.5t260 69.5q100 0 200 -31t160 -72zM164 1505l264 -299h23l264 299l-25 25l-252 -195l-245 195z" />
    <glyph glyph-name="uni0162" unicode="&#x162;" horiz-adv-x="1374" 
d="M29 977l57 457h1202l58 -457h-35q-14 87 -27.5 145t-34 111t-47 82.5t-65 47t-90.5 17.5h-275v-1267q0 -59 30 -70t202 -14v-29h-279l-66 -131q61 25 99 25q74 0 119 -40.5t45 -109.5q0 -90 -92 -159t-261 -83l-6 37q138 25 198 66.5t60 115.5q0 56 -30.5 86.5
t-75.5 30.5q-60 0 -125 -61l-23 16l99 207h-291v29q163 3 199 15t36 69v1267h-282q-117 0 -174 -95t-91 -308h-34z" />
    <glyph glyph-name="uni0163" unicode="&#x163;" horiz-adv-x="780" 
d="M748 162q-69 -86 -129 -132t-144 -53l-53 -108q61 25 98 25q74 0 119 -40.5t45 -109.5q0 -90 -91.5 -159t-260.5 -83l-6 37q138 25 198 66.5t60 115.5q0 56 -31 86.5t-76 30.5q-60 0 -125 -61l-22 16l88 187q-86 10 -147.5 71t-61.5 164v766h-148v43q218 36 250 266h39
v-266h326v-43h-326v-717q0 -93 46 -143.5t110 -50.5q63 0 109.5 26t103.5 90z" />
    <glyph glyph-name="Tcaron" unicode="&#x164;" horiz-adv-x="1374" 
d="M29 977l57 457h1202l58 -457h-35q-14 87 -27.5 145t-34 111t-47 82.5t-65 47t-90.5 17.5h-275v-1267q0 -59 30 -70t202 -14v-29h-629v29q163 3 199 15t36 69v1267h-282q-117 0 -174 -95t-91 -308h-34zM387 1847l289 -295h22l289 295l-35 37l-266 -205l-264 205z" />
    <glyph glyph-name="tcaron" unicode="&#x165;" horiz-adv-x="800" 
d="M748 162q-72 -91 -137.5 -138t-159.5 -47q-96 0 -169 62.5t-73 175.5v766h-148v43q218 36 250 266h39v-266h326v-43h-326v-717q0 -93 46 -143.5t110 -50.5q63 0 109.5 26t103.5 90zM575 1604l-32 -428h47l129 413q18 58 -27 80q-38 18 -78 -4q-37 -20 -39 -61z" />
    <glyph glyph-name="Tbar" unicode="&#x166;" horiz-adv-x="1374" 
d="M1122 893v-62h-350v-718q0 -59 30 -70t202 -14v-29h-629v29q163 3 199 15t36 69v718h-372v62h372v487h-282q-117 0 -174 -95t-91 -308h-34l57 457h1202l58 -457h-35q-14 87 -27.5 145t-34 111t-47 82.5t-65 47t-90.5 17.5h-275v-487h350z" />
    <glyph glyph-name="tbar" unicode="&#x167;" horiz-adv-x="780" 
d="M61 737h148v244h-148v43q218 36 250 266h39v-266h326v-43h-326v-244h326v-43h-326v-430q0 -93 46 -143.5t110 -50.5q63 0 109.5 26t103.5 90l29 -24q-72 -91 -137.5 -138t-159.5 -47q-96 0 -169 62.5t-73 175.5v479h-148v43z" />
    <glyph glyph-name="Umacron" unicode="&#x16a;" horiz-adv-x="1542" 
d="M10 1405v29h580v-29q-21 -1 -53 -1t-47.5 -0.5t-37 -2.5t-31.5 -7t-21 -14t-15 -23.5t-4 -35.5v-782q0 -226 117.5 -356t304.5 -130q208 0 318 133t110 351v784q0 61 -25 73t-126 11h-58v29h502v-29q-21 -1 -53 -1t-47.5 -0.5t-37 -2.5t-31.5 -7t-21 -14t-15 -23.5
t-4 -35.5v-780q0 -134 -40 -241.5t-110 -177t-163.5 -107t-202.5 -38.5q-277 -2 -428.5 137t-151.5 423v784q0 21 -2.5 35.5t-12.5 23.5t-18 14t-30 7t-36.5 2.5t-50 0.5t-59.5 1zM1092 1792h-555v-82h555v82z" />
    <glyph glyph-name="umacron" unicode="&#x16b;" horiz-adv-x="1298" 
d="M20 909v33l351 105v-672q0 -144 61.5 -223.5t165.5 -79.5q83 0 174.5 56.5t147.5 119.5v610q0 23 -2 39t-7.5 27t-10.5 17.5t-17.5 8t-21.5 1.5t-28 -5t-33 -9.5t-41 -13t-46 -14.5v33l348 105v-869q0 -53 9 -83.5t37.5 -44t50.5 -16.5t77 -4q22 -1 33 -1v-29h-348v197
q-220 -220 -367 -220q-144 0 -235 92.5t-91 239.5v549q0 25 -3.5 42.5t-9 28t-17.5 15t-21.5 5.5t-30 -3.5t-35 -9t-43 -13.5t-47.5 -14zM940 1382h-555v-82h555v82z" />
    <glyph glyph-name="Uring" unicode="&#x16e;" horiz-adv-x="1542" 
d="M10 1405v29h580v-29q-21 -1 -53 -1t-47.5 -0.5t-37 -2.5t-31.5 -7t-21 -14t-15 -23.5t-4 -35.5v-782q0 -226 117.5 -356t304.5 -130q208 0 318 133t110 351v784q0 61 -25 73t-126 11h-58v29h502v-29q-21 -1 -53 -1t-47.5 -0.5t-37 -2.5t-31.5 -7t-21 -14t-15 -23.5
t-4 -35.5v-780q0 -134 -40 -241.5t-110 -177t-163.5 -107t-202.5 -38.5q-277 -2 -428.5 137t-151.5 423v784q0 21 -2.5 35.5t-12.5 23.5t-18 14t-30 7t-36.5 2.5t-50 0.5t-59.5 1zM815 1593q-74 0 -131 53t-57 126q0 72 56.5 124t131.5 52t132 -52t57 -124q0 -73 -57.5 -126
t-131.5 -53zM815 1645q49 0 74.5 34.5t25.5 92.5q0 55 -25 90.5t-75 35.5t-75 -35.5t-25 -90.5q0 -58 25.5 -92.5t74.5 -34.5z" />
    <glyph glyph-name="uring" unicode="&#x16f;" horiz-adv-x="1298" 
d="M20 909v33l351 105v-672q0 -144 61.5 -223.5t165.5 -79.5q83 0 174.5 56.5t147.5 119.5v610q0 23 -2 39t-7.5 27t-10.5 17.5t-17.5 8t-21.5 1.5t-28 -5t-33 -9.5t-41 -13t-46 -14.5v33l348 105v-869q0 -53 9 -83.5t37.5 -44t50.5 -16.5t77 -4q22 -1 33 -1v-29h-348v197
q-220 -220 -367 -220q-144 0 -235 92.5t-91 239.5v549q0 25 -3.5 42.5t-9 28t-17.5 15t-21.5 5.5t-30 -3.5t-35 -9t-43 -13.5t-47.5 -14zM664 1184q-75 0 -132 52.5t-57 125.5q0 72 57 124t132 52t131.5 -52t56.5 -124q0 -73 -57 -125.5t-131 -52.5zM664 1235
q49 0 74.5 34.5t25.5 92.5q0 55 -25 91t-75 36t-75.5 -36t-25.5 -91q0 -58 26 -92.5t75 -34.5z" />
    <glyph glyph-name="Uhungarumlaut" unicode="&#x170;" horiz-adv-x="1542" 
d="M10 1405v29h580v-29q-21 -1 -53 -1t-47.5 -0.5t-37 -2.5t-31.5 -7t-21 -14t-15 -23.5t-4 -35.5v-782q0 -226 117.5 -356t304.5 -130q208 0 318 133t110 351v784q0 61 -25 73t-126 11h-58v29h502v-29q-21 -1 -53 -1t-47.5 -0.5t-37 -2.5t-31.5 -7t-21 -14t-15 -23.5
t-4 -35.5v-780q0 -134 -40 -241.5t-110 -177t-163.5 -107t-202.5 -38.5q-277 -2 -428.5 137t-151.5 423v784q0 21 -2.5 35.5t-12.5 23.5t-18 14t-30 7t-36.5 2.5t-50 0.5t-59.5 1zM559 1559l397 253l-79 101l-345 -324zM965 1559l397 253l-80 101l-344 -324z" />
    <glyph glyph-name="uhungarumlaut" unicode="&#x171;" horiz-adv-x="1298" 
d="M20 909v33l351 105v-672q0 -144 61.5 -223.5t165.5 -79.5q83 0 174.5 56.5t147.5 119.5v610q0 23 -2 39t-7.5 27t-10.5 17.5t-17.5 8t-21.5 1.5t-28 -5t-33 -9.5t-41 -13t-46 -14.5v33l348 105v-869q0 -53 9 -83.5t37.5 -44t50.5 -16.5t77 -4q22 -1 33 -1v-29h-348v197
q-220 -220 -367 -220q-144 0 -235 92.5t-91 239.5v549q0 25 -3.5 42.5t-9 28t-17.5 15t-21.5 5.5t-30 -3.5t-35 -9t-43 -13.5t-47.5 -14zM408 1149l397 254l-80 100l-344 -323zM813 1149l397 254l-80 100l-344 -323z" />
    <glyph glyph-name="Uogonek" unicode="&#x172;" horiz-adv-x="1542" 
d="M10 1405v29h580v-29q-21 -1 -53 -1t-47.5 -0.5t-37 -2.5t-31.5 -7t-21 -14t-15 -23.5t-4 -35.5v-782q0 -226 117.5 -356t304.5 -130q208 0 318 133t110 351v784q0 61 -25 73t-126 11h-58v29h502v-29q-21 -1 -53 -1t-47.5 -0.5t-37 -2.5t-31.5 -7t-21 -14t-15 -23.5
t-4 -35.5v-780q0 -193 -80 -326t-217 -192q-7 -8 -26 -28t-24.5 -26t-19 -22t-18 -23.5t-13 -21t-11 -23.5t-5 -23.5t-2.5 -27.5q0 -63 40 -97t91 -34q79 0 139 70l23 -19q-96 -129 -205 -129q-79 0 -132.5 50t-53.5 126q0 45 22 85t44.5 60.5t64.5 53.5q-73 -17 -133 -17
q-277 -2 -428.5 137t-151.5 423v784q0 21 -2.5 35.5t-12.5 23.5t-18 14t-30 7t-36.5 2.5t-50 0.5t-59.5 1z" />
    <glyph glyph-name="uogonek" unicode="&#x173;" horiz-adv-x="1298" 
d="M20 909v33l351 105v-672q0 -144 61.5 -223.5t165.5 -79.5q83 0 174.5 56.5t147.5 119.5v610q0 23 -2 39t-7.5 27t-10.5 17.5t-17.5 8t-21.5 1.5t-28 -5t-33 -9.5t-41 -13t-46 -14.5v33l348 105v-869q0 -53 9 -83.5t37.5 -44t50.5 -16.5t77 -4q22 -1 33 -1v-29h-146
q-9 -9 -30.5 -32t-28 -30.5t-21 -25t-19.5 -27t-12.5 -24.5t-9.5 -29.5t-2 -30.5q0 -63 40 -97t91 -34q80 0 140 70l22 -19q-96 -129 -205 -129q-79 0 -132.5 50.5t-53.5 126.5q0 34 10 63t32 54t38 40t49.5 40t44.5 34h-155v197q-220 -220 -367 -220q-144 0 -235 92.5
t-91 239.5v549q0 25 -3.5 42.5t-9 28t-17.5 15t-21.5 5.5t-30 -3.5t-35 -9t-43 -13.5t-47.5 -14z" />
    <glyph glyph-name="Wcircumflex" unicode="&#x174;" horiz-adv-x="1939" 
d="M913 1335q-7 20 -25 34t-39 20.5t-52.5 10.5t-55 4h-56t-48.5 1v29h618v-29q-15 -1 -36 -1h-35.5t-33.5 -0.5t-30.5 -2t-25.5 -4.5t-19.5 -7.5t-13 -12t-5 -18t4.5 -24.5l369 -1048l325 975q18 53 21 81.5t-20 42t-46 15.5t-90 3q-36 1 -57 1v29h489v-29
q-107 -4 -136 -14q-49 -15 -67 -68l-426 -1323h-51l-373 1085l-395 -1085h-51l-453 1303q-11 33 -19.5 48.5t-20.5 28t-33.5 16.5t-50 6t-78.5 3h-11v29h609v-29q-28 -1 -76 -1h-53.5t-40.5 -2t-31.5 -6.5t-18 -12t-10.5 -20t2.5 -30t10.5 -41.5l352 -1005l332 905z
M702 1587l35 -37l264 205l267 -205l35 37l-289 295h-23z" />
    <glyph glyph-name="wcircumflex" unicode="&#x175;" horiz-adv-x="1517" 
d="M504 995v29h454v-29q-126 -2 -146 -9q-26 -10 -13 -42l282 -723l240 660q16 42 18 65t-13.5 33.5t-36.5 13t-66 2.5h-25v29h389v-29h-39t-38 -1t-30.5 -3.5t-31 -9t-23.5 -17t-23.5 -27.5t-17.5 -40l-313 -897h-45l-260 668l-240 -668h-45l-370 897q-11 25 -17.5 39
t-18.5 26.5t-20.5 17t-32 8.5t-43 5t-61.5 2v29h463v-29q-111 -2 -131 -7q-31 -10 -18 -46l4 -10l305 -711l196 524l-69 179q-14 36 -26.5 49t-40 17.5t-97.5 4.5zM487 1231l29 -25l246 195l252 -195l24 25l-264 299h-22z" />
    <glyph glyph-name="Ycircumflex" unicode="&#x176;" horiz-adv-x="1255" 
d="M-100 1405v29h608v-29h-150q-65 0 -78 -26t23 -83l379 -608l315 549q39 66 49.5 101t-5.5 51t-64 16h-143v29h501v-29h-78q-19 0 -35 -2.5t-27.5 -6t-23 -12t-18 -14t-15.5 -19t-13 -21t-14 -25.5l-15 -27l-375 -672v-487q0 -16 2 -28.5t8.5 -22t12.5 -15.5t19 -10.5
t22 -6.5t29 -3.5t32 -2t38 -1t42 -0.5v-29h-568v29q16 0 42 0.5t38.5 1t32.5 2t29.5 3.5t23 6.5t19.5 10.5t12.5 15.5t9 22t2.5 28.5v487l-393 639q-60 98 -77 118q-40 41 -97 42h-100zM387 1587l35 -37l264 205l266 -205l35 37l-289 295h-22z" />
    <glyph glyph-name="ycircumflex" unicode="&#x177;" horiz-adv-x="962" 
d="M-111 995q80 -2 109 -11.5t47 -45.5l391 -844l-274 -547l86 -39l608 1389q9 20 14 32t13 24t11 17.5t14.5 11.5t15 7.5t21 3.5t25 1.5t33.5 0t41 0.5v29h-413v-29q113 3 137 -4q37 -11 23 -60q-3 -14 -11 -32l-274 -639l-287 623q-12 27 -17 46t2 31t14.5 19t34.5 10.5
t47.5 4t66.5 1.5v29h-478v-29zM215 1231l29 -25l245 195l252 -195l25 25l-264 299h-23z" />
    <glyph glyph-name="Ydieresis" unicode="&#x178;" horiz-adv-x="1255" 
d="M-100 1405v29h608v-29h-150q-65 0 -78 -26t23 -83l379 -608l315 549q39 66 49.5 101t-5.5 51t-64 16h-143v29h501v-29h-78q-19 0 -35 -2.5t-27.5 -6t-23 -12t-18 -14t-15.5 -19t-13 -21t-14 -25.5l-15 -27l-375 -672v-487q0 -16 2 -28.5t8.5 -22t12.5 -15.5t19 -10.5
t22 -6.5t29 -3.5t32 -2t38 -1t42 -0.5v-29h-568v29q16 0 42 0.5t38.5 1t32.5 2t29.5 3.5t23 6.5t19.5 10.5t12.5 15.5t9 22t2.5 28.5v487l-393 639q-60 98 -77 118q-40 41 -97 42h-100zM506 1702q38 0 66 28t28 68q0 38 -28.5 66t-65.5 28q-40 0 -68 -28t-28 -66
q0 -41 28 -68.5t68 -27.5zM870 1702q38 0 66.5 28t28.5 68q0 38 -29 66t-66 28q-40 0 -68 -28t-28 -66q0 -41 28 -68.5t68 -27.5z" />
    <glyph glyph-name="Zacute" unicode="&#x179;" horiz-adv-x="1294" 
d="M86 39l23 -39h1079l61 455h-43q-14 -79 -26 -131t-32.5 -106t-45.5 -85t-63 -50.5t-87 -19.5h-663l936 1340l-23 31l-1055 2v-2l-45 -455h41q11 65 20.5 110t24 94t32.5 80t43 57.5t58.5 39t75.5 12.5h623zM602 1559l397 253l-79 101l-345 -324z" />
    <glyph glyph-name="zacute" unicode="&#x17a;" horiz-adv-x="991" 
d="M96 0h809l41 324h-33q-8 -49 -16 -82.5t-23 -73.5t-34.5 -64t-51 -40.5t-71.5 -16.5h-461l678 946l-21 31h-780l-39 -324h33q48 279 221 279h400l-670 -948zM410 1149l397 254l-80 100l-344 -323z" />
    <glyph glyph-name="Zdotaccent" unicode="&#x17b;" horiz-adv-x="1294" 
d="M86 39l23 -39h1079l61 455h-43q-14 -79 -26 -131t-32.5 -106t-45.5 -85t-63 -50.5t-87 -19.5h-663l936 1340l-23 31l-1055 2v-2l-45 -455h41q11 65 20.5 110t24 94t32.5 80t43 57.5t58.5 39t75.5 12.5h623zM698 1702q38 0 66.5 28t28.5 68q0 38 -29 66t-66 28
q-40 0 -68 -28t-28 -66q0 -41 28 -68.5t68 -27.5z" />
    <glyph glyph-name="zdotaccent" unicode="&#x17c;" horiz-adv-x="991" 
d="M96 0h809l41 324h-33q-8 -49 -16 -82.5t-23 -73.5t-34.5 -64t-51 -40.5t-71.5 -16.5h-461l678 946l-21 31h-780l-39 -324h33q48 279 221 279h400l-670 -948zM506 1292q38 0 66 28t28 69q0 38 -28.5 66t-65.5 28q-40 0 -68 -28t-28 -66q0 -41 28 -69t68 -28z" />
    <glyph glyph-name="Zcaron" unicode="&#x17d;" horiz-adv-x="1294" 
d="M86 39l23 -39h1079l61 455h-43q-14 -79 -26 -131t-32.5 -106t-45.5 -85t-63 -50.5t-87 -19.5h-663l936 1340l-23 31l-1055 2v-2l-45 -455h41q11 65 20.5 110t24 94t32.5 80t43 57.5t58.5 39t75.5 12.5h623zM397 1847l289 -295h23l288 295l-34 37l-267 -205l-264 205z" />
    <glyph glyph-name="zcaron" unicode="&#x17e;" horiz-adv-x="991" 
d="M96 0h809l41 324h-33q-8 -49 -16 -82.5t-23 -73.5t-34.5 -64t-51 -40.5t-71.5 -16.5h-461l678 946l-21 31h-780l-39 -324h33q48 279 221 279h400l-670 -948zM209 1505l264 -299h23l264 299l-25 25l-252 -195l-245 195z" />
    <glyph glyph-name="uni018F" unicode="&#x18f;" horiz-adv-x="1449" 
d="M92 934q40 249 201 385.5t391 136.5q302 0 488 -199.5t186 -533.5q0 -149 -42 -282t-120.5 -237t-202 -165.5t-276.5 -61.5q-273 0 -445 159t-172 407h1065q4 54 4 78q0 203 -64 362.5t-188.5 251.5t-289.5 92q-54 0 -105.5 -10t-108 -37t-104 -69.5t-89.5 -113.5
t-68 -163h-60zM324 489q17 -209 128.5 -329.5t282.5 -120.5q94 0 171 38t127 103.5t81 142.5t45 166h-835z" />
    <glyph glyph-name="florin" unicode="&#x192;" horiz-adv-x="1228" 
d="M315 981h193v215q0 167 95 275t261 108q90 0 176 -43t144 -125l-80 -248h-29q0 204 -52 285.5t-157 81.5q-52 0 -90.5 -17.5t-61.5 -47t-37 -75.5t-19 -96t-5 -116v-197h293v-59h-293v-578q0 -159 -86.5 -260.5t-214.5 -101.5q-82 0 -163 39.5t-138 119.5l76 232h29
q3 -183 51 -262.5t139 -79.5q89 0 125.5 83.5t36.5 247.5v560h-193v59z" />
    <glyph glyph-name="uni0218" unicode="&#x218;" horiz-adv-x="1116" 
d="M987 1329l-59 -352h-31q3 190 -97.5 310t-291.5 120q-122 0 -202.5 -69.5t-80.5 -176.5q0 -101 61 -166t179 -121l301 -139q138 -64 200 -144.5t62 -189.5q0 -83 -32 -158t-92 -135t-154.5 -95.5t-210.5 -35.5q-80 0 -157.5 19.5t-143 54.5t-97.5 56t-73 51l41 360h30
q5 -222 118 -355.5t308 -129.5q150 3 231 94.5t81 224.5q0 79 -50.5 142.5t-164.5 115.5l-293 133q-297 135 -297 365q0 111 62.5 191.5t168 120.5t240.5 40q134 0 269 -49.5t175 -81.5zM457 -571q108 57 160.5 138t52.5 165q0 61 -31.5 100t-83.5 39q-47 0 -76.5 -31.5
t-29.5 -77.5q0 -43 29 -68.5t65 -25.5q26 0 59 21q-7 -141 -160 -240z" />
    <glyph glyph-name="uni0219" unicode="&#x219;" horiz-adv-x="942" 
d="M819 944l-41 -272h-28q-4 87 -29.5 151.5t-68 102.5t-94.5 56.5t-114 18.5q-97 0 -151.5 -50.5t-54.5 -129.5q0 -77 47.5 -124t148.5 -87l152 -59q142 -57 202 -117.5t60 -163.5q0 -124 -110.5 -208.5t-276.5 -84.5q-101 0 -204.5 39t-162.5 80l15 291h30
q17 -163 109 -261.5t215 -98.5q112 0 181 62t69 144q0 68 -47.5 117.5t-165.5 95.5l-148 58q-120 47 -185 111t-65 169q0 124 97 193.5t260 69.5q100 0 200 -31t160 -72zM358 -571q108 57 160.5 138t52.5 165q0 61 -31 100t-83 39q-47 0 -77 -31.5t-30 -77.5q0 -43 29 -68.5
t65 -25.5q27 0 60 21q-7 -141 -160 -240z" />
    <glyph glyph-name="uni021A" unicode="&#x21a;" horiz-adv-x="1374" 
d="M29 977l57 457h1202l58 -457h-35q-14 87 -27.5 145t-34 111t-47 82.5t-65 47t-90.5 17.5h-275v-1267q0 -59 30 -70t202 -14v-29h-629v29q163 3 199 15t36 69v1267h-282q-117 0 -174 -95t-91 -308h-34zM586 -571q108 57 160.5 138t52.5 165q0 61 -31.5 100t-83.5 39
q-47 0 -76.5 -31.5t-29.5 -77.5q0 -43 29 -68.5t65 -25.5q26 0 59 21q-7 -141 -160 -240z" />
    <glyph glyph-name="uni021B" unicode="&#x21b;" horiz-adv-x="780" 
d="M748 162q-72 -91 -137.5 -138t-159.5 -47q-96 0 -169 62.5t-73 175.5v766h-148v43q218 36 250 266h39v-266h326v-43h-326v-717q0 -93 46 -143.5t110 -50.5q63 0 109.5 26t103.5 90zM348 -571q108 57 160.5 138t52.5 165q0 61 -31.5 100t-83.5 39q-47 0 -76.5 -31.5
t-29.5 -77.5q0 -43 29 -68.5t65 -25.5q27 0 60 21q-7 -141 -160 -240z" />
    <glyph glyph-name="uni0237" unicode="&#x237;" horiz-adv-x="598" 
d="M2 -449q82 37 136 83t81.5 101t38 107.5t10.5 120.5v875q0 32 -3.5 54.5t-8.5 37t-17 21.5t-21.5 10t-29.5 -0.5t-34.5 -7t-43.5 -11t-49 -12.5v33l349 84v-959q0 -109 -19.5 -193.5t-51.5 -141t-86 -101t-109 -71.5t-134 -54z" />
    <glyph glyph-name="uni0259" unicode="&#x259;" horiz-adv-x="1118" 
d="M96 711q74 167 186 251.5t273 84.5q205 0 341 -145.5t136 -385.5q0 -108 -30.5 -204t-89 -171.5t-152 -119.5t-211.5 -44q-185 0 -309.5 115.5t-124.5 286.5h778q2 16 2 47q0 224 -109.5 367t-287.5 143q-238 0 -363 -242zM287 340q13 -144 95.5 -226.5t201.5 -82.5
q68 0 123 26.5t91 71.5t58.5 98t32.5 113h-602z" />
    <glyph glyph-name="circumflex" unicode="&#x2c6;" horiz-adv-x="714" 
d="M82 1231l29 -25l245 195l252 -195l25 25l-264 299h-23z" />
    <glyph glyph-name="caron" unicode="&#x2c7;" horiz-adv-x="714" 
d="M82 1470l264 -299h23l264 299l-25 25l-252 -195l-245 195z" />
    <glyph glyph-name="breve" unicode="&#x2d8;" horiz-adv-x="688" 
d="M82 1493q-1 -127 70 -197.5t192 -70.5q120 0 191 72t71 196h-39q-3 -73 -65 -120.5t-158 -47.5q-92 0 -156 48t-67 120h-39z" />
    <glyph glyph-name="dotaccent" unicode="&#x2d9;" horiz-adv-x="354" 
d="M178 1292q38 0 66 28t28 69q0 38 -28.5 66t-65.5 28q-40 0 -68 -28t-28 -66q0 -41 28 -69t68 -28z" />
    <glyph glyph-name="ring" unicode="&#x2da;" horiz-adv-x="540" 
d="M270 1184q-74 0 -131 52.5t-57 125.5q0 72 56.5 124t131.5 52t132 -52t57 -124q0 -73 -57 -125.5t-132 -52.5zM270 1235q49 0 75 34.5t26 92.5q0 55 -25.5 91t-75.5 36t-75 -36t-25 -91q0 -58 25.5 -92.5t74.5 -34.5z" />
    <glyph glyph-name="ogonek" unicode="&#x2db;" horiz-adv-x="555" 
d="M303 0q-9 -9 -30.5 -32t-28 -30.5t-21 -25t-19.5 -27t-12.5 -24.5t-9.5 -29.5t-2 -30.5q0 -63 40 -97t91 -34q80 0 140 70l22 -19q-96 -129 -205 -129q-79 0 -132.5 50.5t-53.5 126.5q0 35 10 64t32.5 54.5t39 40.5t50 40t44.5 34z" />
    <glyph glyph-name="tilde" unicode="&#x2dc;" horiz-adv-x="741" 
d="M514 1262q55 0 145 184l-22 12q-61 -98 -100 -98q-44 0 -156.5 51t-144.5 51q-42 0 -154 -174l22 -12q27 35 40.5 50t32 28.5t36.5 13.5q27 0 144 -53t157 -53z" />
    <glyph glyph-name="hungarumlaut" unicode="&#x2dd;" horiz-adv-x="993" 
d="M109 1149l397 254l-80 100l-344 -323zM514 1149l397 254l-80 100l-344 -323z" />
    <glyph glyph-name="gravecomb" unicode="&#x300;" 
d="M479 1149l27 31l-344 323l-80 -100z" />
    <glyph glyph-name="acutecomb" unicode="&#x301;" 
d="M109 1149l397 254l-80 100l-344 -323z" />
    <glyph glyph-name="uni0302" unicode="&#x302;" 
d="M82 1231l29 -25l245 195l252 -195l25 25l-264 299h-23z" />
    <glyph glyph-name="tildecomb" unicode="&#x303;" 
d="M514 1262q55 0 145 184l-22 12q-61 -98 -100 -98q-44 0 -156.5 51t-144.5 51q-42 0 -154 -174l22 -12q27 35 40.5 50t32 28.5t36.5 13.5q27 0 144 -53t157 -53z" />
    <glyph glyph-name="uni0304" unicode="&#x304;" 
d="M637 1382h-555v-82h555v82z" />
    <glyph glyph-name="uni0306" unicode="&#x306;" 
d="M82 1493q-1 -127 70 -197.5t192 -70.5q120 0 191 72t71 196h-39q-3 -73 -65 -120.5t-158 -47.5q-92 0 -156 48t-67 120h-39z" />
    <glyph glyph-name="uni0307" unicode="&#x307;" 
d="M178 1292q38 0 66 28t28 69q0 38 -28.5 66t-65.5 28q-40 0 -68 -28t-28 -66q0 -41 28 -69t68 -28z" />
    <glyph glyph-name="uni0308" unicode="&#x308;" 
d="M178 1292q38 0 66 28t28 69q0 38 -28.5 66t-65.5 28q-40 0 -68 -28t-28 -66q0 -41 28 -69t68 -28zM543 1292q37 0 65.5 28t28.5 69q0 38 -28.5 66t-65.5 28q-40 0 -68.5 -28t-28.5 -66q0 -41 28.5 -69t68.5 -28z" />
    <glyph glyph-name="uni030A" unicode="&#x30a;" 
d="M270 1184q-74 0 -131 52.5t-57 125.5q0 72 56.5 124t131.5 52t132 -52t57 -124q0 -73 -57 -125.5t-132 -52.5zM270 1235q49 0 75 34.5t26 92.5q0 55 -25.5 91t-75.5 36t-75 -36t-25 -91q0 -58 25.5 -92.5t74.5 -34.5z" />
    <glyph glyph-name="uni030B" unicode="&#x30b;" 
d="M109 1149l397 254l-80 100l-344 -323zM514 1149l397 254l-80 100l-344 -323z" />
    <glyph glyph-name="uni030C" unicode="&#x30c;" 
d="M82 1505l264 -299h23l264 299l-25 25l-252 -195l-245 195z" />
    <glyph glyph-name="uni0312" unicode="&#x312;" 
d="M295 1624q-108 -57 -160.5 -138t-52.5 -165q0 -61 31.5 -100t83.5 -39q47 0 76.5 31t29.5 77q0 43 -29 68.5t-65 25.5q-28 0 -59 -20q7 142 159 240z" />
    <glyph glyph-name="uni0326" unicode="&#x326;" 
d="M96 -571q108 57 160.5 138t52.5 165q0 61 -31 100t-83 39q-47 0 -77 -31.5t-30 -77.5q0 -43 29 -68.5t65 -25.5q27 0 60 21q-7 -141 -160 -240z" />
    <glyph glyph-name="uni0327" unicode="&#x327;" 
d="M197 27h59l-78 -158q61 25 98 25q74 0 119 -40.5t45 -109.5q0 -90 -91.5 -159t-260.5 -83l-6 37q138 25 198 66.5t60 115.5q0 56 -31 86.5t-76 30.5q-59 0 -124 -61l-23 16z" />
    <glyph glyph-name="uni0328" unicode="&#x328;" 
d="M303 0q-9 -9 -30.5 -32t-28 -30.5t-21 -25t-19.5 -27t-12.5 -24.5t-9.5 -29.5t-2 -30.5q0 -63 40 -97t91 -34q80 0 140 70l22 -19q-96 -129 -205 -129q-79 0 -132.5 50.5t-53.5 126.5q0 35 10 64t32.5 54.5t39 40.5t50 40t44.5 34z" />
    <glyph glyph-name="Wgrave" unicode="&#x1e80;" horiz-adv-x="1939" 
d="M913 1335q-7 20 -25 34t-39 20.5t-52.5 10.5t-55 4h-56t-48.5 1v29h618v-29q-15 -1 -36 -1h-35.5t-33.5 -0.5t-30.5 -2t-25.5 -4.5t-19.5 -7.5t-13 -12t-5 -18t4.5 -24.5l369 -1048l325 975q18 53 21 81.5t-20 42t-46 15.5t-90 3q-36 1 -57 1v29h489v-29
q-107 -4 -136 -14q-49 -15 -67 -68l-426 -1323h-51l-373 1085l-395 -1085h-51l-453 1303q-11 33 -19.5 48.5t-20.5 28t-33.5 16.5t-50 6t-78.5 3h-11v29h609v-29q-28 -1 -76 -1h-53.5t-40.5 -2t-31.5 -6.5t-18 -12t-10.5 -20t2.5 -30t10.5 -41.5l352 -1005l332 905z
M1159 1559l27 30l-344 324l-80 -101z" />
    <glyph glyph-name="wgrave" unicode="&#x1e81;" horiz-adv-x="1517" 
d="M504 995v29h454v-29q-126 -2 -146 -9q-26 -10 -13 -42l282 -723l240 660q16 42 18 65t-13.5 33.5t-36.5 13t-66 2.5h-25v29h389v-29h-39t-38 -1t-30.5 -3.5t-31 -9t-23.5 -17t-23.5 -27.5t-17.5 -40l-313 -897h-45l-260 668l-240 -668h-45l-370 897q-11 25 -17.5 39
t-18.5 26.5t-20.5 17t-32 8.5t-43 5t-61.5 2v29h463v-29q-111 -2 -131 -7q-31 -10 -18 -46l4 -10l305 -711l196 524l-69 179q-14 36 -26.5 49t-40 17.5t-97.5 4.5zM915 1149l27 31l-344 323l-80 -100z" />
    <glyph glyph-name="Wacute" unicode="&#x1e82;" horiz-adv-x="1939" 
d="M913 1335q-7 20 -25 34t-39 20.5t-52.5 10.5t-55 4h-56t-48.5 1v29h618v-29q-15 -1 -36 -1h-35.5t-33.5 -0.5t-30.5 -2t-25.5 -4.5t-19.5 -7.5t-13 -12t-5 -18t4.5 -24.5l369 -1048l325 975q18 53 21 81.5t-20 42t-46 15.5t-90 3q-36 1 -57 1v29h489v-29
q-107 -4 -136 -14q-49 -15 -67 -68l-426 -1323h-51l-373 1085l-395 -1085h-51l-453 1303q-11 33 -19.5 48.5t-20.5 28t-33.5 16.5t-50 6t-78.5 3h-11v29h609v-29q-28 -1 -76 -1h-53.5t-40.5 -2t-31.5 -6.5t-18 -12t-10.5 -20t2.5 -30t10.5 -41.5l352 -1005l332 905z
M907 1559l398 253l-80 101l-344 -324z" />
    <glyph glyph-name="wacute" unicode="&#x1e83;" horiz-adv-x="1517" 
d="M504 995v29h454v-29q-126 -2 -146 -9q-26 -10 -13 -42l282 -723l240 660q16 42 18 65t-13.5 33.5t-36.5 13t-66 2.5h-25v29h389v-29h-39t-38 -1t-30.5 -3.5t-31 -9t-23.5 -17t-23.5 -27.5t-17.5 -40l-313 -897h-45l-260 668l-240 -668h-45l-370 897q-11 25 -17.5 39
t-18.5 26.5t-20.5 17t-32 8.5t-43 5t-61.5 2v29h463v-29q-111 -2 -131 -7q-31 -10 -18 -46l4 -10l305 -711l196 524l-69 179q-14 36 -26.5 49t-40 17.5t-97.5 4.5zM664 1149l397 254l-80 100l-344 -323z" />
    <glyph glyph-name="Wdieresis" unicode="&#x1e84;" horiz-adv-x="1939" 
d="M913 1335q-7 20 -25 34t-39 20.5t-52.5 10.5t-55 4h-56t-48.5 1v29h618v-29q-15 -1 -36 -1h-35.5t-33.5 -0.5t-30.5 -2t-25.5 -4.5t-19.5 -7.5t-13 -12t-5 -18t4.5 -24.5l369 -1048l325 975q18 53 21 81.5t-20 42t-46 15.5t-90 3q-36 1 -57 1v29h489v-29
q-107 -4 -136 -14q-49 -15 -67 -68l-426 -1323h-51l-373 1085l-395 -1085h-51l-453 1303q-11 33 -19.5 48.5t-20.5 28t-33.5 16.5t-50 6t-78.5 3h-11v29h609v-29q-28 -1 -76 -1h-53.5t-40.5 -2t-31.5 -6.5t-18 -12t-10.5 -20t2.5 -30t10.5 -41.5l352 -1005l332 905z
M821 1702q38 0 66 28t28 68q0 38 -28.5 66t-65.5 28q-40 0 -68 -28t-28 -66q0 -41 28 -68.5t68 -27.5zM1186 1702q38 0 66 28t28 68q0 38 -28.5 66t-65.5 28q-40 0 -68 -28t-28 -66q0 -41 28 -68.5t68 -27.5z" />
    <glyph glyph-name="wdieresis" unicode="&#x1e85;" horiz-adv-x="1517" 
d="M504 995v29h454v-29q-126 -2 -146 -9q-26 -10 -13 -42l282 -723l240 660q16 42 18 65t-13.5 33.5t-36.5 13t-66 2.5h-25v29h389v-29h-39t-38 -1t-30.5 -3.5t-31 -9t-23.5 -17t-23.5 -27.5t-17.5 -40l-313 -897h-45l-260 668l-240 -668h-45l-370 897q-11 25 -17.5 39
t-18.5 26.5t-20.5 17t-32 8.5t-43 5t-61.5 2v29h463v-29q-111 -2 -131 -7q-31 -10 -18 -46l4 -10l305 -711l196 524l-69 179q-14 36 -26.5 49t-40 17.5t-97.5 4.5zM578 1292q38 0 66 28t28 69q0 38 -28.5 66t-65.5 28q-40 0 -68.5 -28t-28.5 -66q0 -41 28.5 -69t68.5 -28z
M942 1292q38 0 66 28t28 69q0 38 -28.5 66t-65.5 28q-40 0 -68 -28t-28 -66q0 -41 28 -69t68 -28z" />
    <glyph glyph-name="uni1E9E" unicode="&#x1e9e;" horiz-adv-x="1370" 
d="M410 0h-365v29q16 1 46.5 1t45 0.5t37 3.5t33.5 9.5t23 17.5t17 29t5 43v1178q0 27 -8.5 45t-19 27.5t-34.5 14.5t-40 5.5t-51.5 0.5t-53.5 1v29h1241v-29l-491 -584q60 13 129 13q60 0 118 -12t117 -42.5t103 -76.5t72 -120.5t28 -168.5q0 -108 -39 -193.5t-105 -137.5
t-146.5 -79t-168.5 -27q-182 0 -357 137q-6 5 -9 7l51 287h28q-1 -189 81 -291.5t200 -100.5t198.5 102.5t80.5 272.5q0 193 -95.5 294t-259.5 101q-42 0 -104 -11.5t-113 -35.5l-2 2v80l488 574h-680v-1395z" />
    <glyph glyph-name="Ygrave" unicode="&#x1ef2;" horiz-adv-x="1255" 
d="M-100 1405v29h608v-29h-150q-65 0 -78 -26t23 -83l379 -608l315 549q39 66 49.5 101t-5.5 51t-64 16h-143v29h501v-29h-78q-19 0 -35 -2.5t-27.5 -6t-23 -12t-18 -14t-15.5 -19t-13 -21t-14 -25.5l-15 -27l-375 -672v-487q0 -16 2 -28.5t8.5 -22t12.5 -15.5t19 -10.5
t22 -6.5t29 -3.5t32 -2t38 -1t42 -0.5v-29h-568v29q16 0 42 0.5t38.5 1t32.5 2t29.5 3.5t23 6.5t19.5 10.5t12.5 15.5t9 22t2.5 28.5v487l-393 639q-60 98 -77 118q-40 41 -97 42h-100zM844 1559l26 30l-344 324l-80 -101z" />
    <glyph glyph-name="ygrave" unicode="&#x1ef3;" horiz-adv-x="962" 
d="M-111 995q80 -2 109 -11.5t47 -45.5l391 -844l-274 -547l86 -39l608 1389q9 20 14 32t13 24t11 17.5t14.5 11.5t15 7.5t21 3.5t25 1.5t33.5 0t41 0.5v29h-413v-29q113 3 137 -4q37 -11 23 -60q-3 -14 -11 -32l-274 -639l-287 623q-12 27 -17 46t2 31t14.5 19t34.5 10.5
t47.5 4t66.5 1.5v29h-478v-29zM643 1149l27 31l-344 323l-80 -100z" />
    <glyph glyph-name="endash" unicode="&#x2013;" horiz-adv-x="1214" 
d="M0 547h1214v-70h-1214v70z" />
    <glyph glyph-name="emdash" unicode="&#x2014;" horiz-adv-x="1939" 
d="M0 547h1939v-70h-1939v70z" />
    <glyph glyph-name="quoteleft" unicode="&#x2018;" horiz-adv-x="352" 
d="M256 1579q-97 -65 -151 -161t-54 -185q0 -73 30 -115.5t83 -42.5q49 0 77.5 30t28.5 71q0 48 -29 75t-69 27q-37 0 -57 -18q2 72 38 152.5t121 146.5z" />
    <glyph glyph-name="quoteright" unicode="&#x2019;" horiz-adv-x="352" 
d="M106 1075q97 65 151 161t54 185q0 74 -30 116t-82 42q-49 0 -78 -29.5t-29 -70.5q0 -48 29 -75.5t69 -27.5q37 0 58 19q-1 -32 -8.5 -66t-24 -74.5t-49.5 -82t-78 -76.5z" />
    <glyph glyph-name="quotesinglbase" unicode="&#x201a;" horiz-adv-x="352" 
d="M106 -324q97 65 151 161t54 186q0 74 -30 115.5t-82 41.5q-49 0 -78 -29.5t-29 -70.5q0 -48 29 -75.5t69 -27.5q37 0 58 19q-1 -32 -8.5 -66t-24 -74.5t-49.5 -82t-78 -76.5z" />
    <glyph glyph-name="quotedblleft" unicode="&#x201c;" horiz-adv-x="618" 
d="M532 1579q-97 -65 -150.5 -160.5t-53.5 -185.5q0 -74 30 -116t82 -42q49 0 78 30t29 71q0 48 -29 75t-69 27q-38 0 -58 -18q1 32 8.5 66t24 74.5t49.5 82t78 76.5zM266 1579q-97 -65 -151 -161t-54 -185q0 -73 30 -115.5t83 -42.5q49 0 78 30t29 71q0 48 -29.5 75
t-69.5 27q-37 0 -57 -18q1 32 8.5 66t24 74.5t49.5 82t78 76.5z" />
    <glyph glyph-name="quotedblright" unicode="&#x201d;" horiz-adv-x="618" 
d="M96 1075q97 65 151 161t54 185q0 73 -30 115.5t-83 42.5q-49 0 -77.5 -29.5t-28.5 -70.5q0 -48 29 -75.5t69 -27.5q37 0 58 19q-1 -32 -8.5 -66t-24 -74.5t-49.5 -82t-78 -76.5zM362 1075q97 65 151 161t54 185q0 74 -30 116t-82 42q-49 0 -78 -29.5t-29 -70.5
q0 -48 29 -75.5t69 -27.5q37 0 58 19q-1 -32 -8.5 -66t-24 -74.5t-49.5 -82t-78 -76.5z" />
    <glyph glyph-name="quotedblbase" unicode="&#x201e;" horiz-adv-x="618" 
d="M86 -326q97 65 151 161t54 185q0 73 -30 115.5t-83 42.5q-49 0 -77.5 -29.5t-28.5 -70.5q0 -48 29 -75.5t69 -27.5q36 0 57 19q-2 -72 -38 -152.5t-121 -146.5zM352 -326q97 65 151 161t54 185q0 73 -30 115.5t-83 42.5q-49 0 -77.5 -29.5t-28.5 -70.5q0 -48 29 -75.5
t69 -27.5q37 0 58 19q-1 -32 -8.5 -66t-24 -74.5t-49.5 -82t-78 -76.5z" />
    <glyph glyph-name="dagger" unicode="&#x2020;" horiz-adv-x="1024" 
d="M272 29q13 0 35.5 0.5t34.5 1t29.5 2t26.5 3.5t21.5 6.5t18.5 10.5t12.5 15.5t8.5 22t2 28.5l-15 966l-184 -14q-21 -2 -36 -7.5t-24.5 -19t-15 -23t-8.5 -33.5t-3.5 -35.5t-1.5 -44.5t-1 -46h-29v504h29q0 -13 1 -46t1.5 -44.5t3.5 -35.5t8.5 -33.5t15 -23t24.5 -19
t36 -7.5l182 -14l-4 301q0 21 -5.5 35.5t-17.5 23.5t-24 14t-33.5 7t-37.5 2.5t-44.5 0.5t-46.5 1v28h562v-28q-18 -1 -46.5 -1t-44.5 -0.5t-37.5 -2.5t-33.5 -7t-24 -14t-17.5 -23.5t-5.5 -35.5l-4 -301l188 14q24 2 40 11.5t24.5 20t13 34.5t5 39.5t0.5 50.5t1 53h29v-504
h-29q-1 18 -1 53t-0.5 50.5t-5 39.5t-13 34.5t-24.5 20t-40 11.5l-190 14l-15 -966q0 -16 2 -28.5t8.5 -22t12.5 -15.5t18.5 -10.5t21.5 -6.5t26.5 -3.5t29.5 -2t34.5 -1t35.5 -0.5v-29h-480v29z" />
    <glyph glyph-name="daggerdbl" unicode="&#x2021;" horiz-adv-x="983" 
d="M252 29q14 0 40.5 1t37.5 1t31 2t28.5 5.5t21 10t17.5 15.5t8.5 23t3.5 32l-6 368l-192 -16q-21 -2 -36 -7.5t-24.5 -19t-15 -23t-8.5 -33.5t-3.5 -35.5t-1.5 -44.5t-1 -46h-29v504h29q0 -13 1 -46t1.5 -44.5t3.5 -35.5t8.5 -33.5t15 -23t24.5 -19t36 -7.5l192 -16
l-10 585l-182 -14q-21 -2 -36 -7.5t-24.5 -19t-15 -23t-8.5 -33.5t-3.5 -35.5t-1.5 -44.5t-1 -46h-29v504h29q0 -13 1 -46t1.5 -44.5t3.5 -35.5t8.5 -33.5t15 -23t24.5 -19t36 -7.5l182 -14l-4 260q0 21 -5.5 35.5t-17.5 23.5t-24 14t-33.5 7t-37.5 2.5t-44.5 0.5t-46.5 1
v28h561v-28q-18 -1 -46.5 -1t-44.5 -0.5t-37.5 -2.5t-33.5 -7t-24 -14t-17.5 -23.5t-5.5 -35.5l-4 -260l189 14q24 2 40 11.5t24.5 20t12.5 34.5t4.5 39.5t0.5 50.5t1 53h29v-504h-29q-1 18 -1 46v44t-2 37t-7.5 32.5t-14 23.5t-23 18t-35.5 8l-189 14l-10 -585l199 16
q24 2 40 11.5t24.5 20t12.5 34.5t4.5 39.5t0.5 50.5t1 53h29v-504h-29q-1 18 -1 46v44t-2 37t-7.5 32.5t-14 23.5t-23 18t-35.5 8l-199 16l-6 -368q0 -18 3.5 -32t8.5 -23t17.5 -15.5t21 -10t28.5 -5.5t31 -2t37.5 -1t40.5 -1v-29h-479v29z" />
    <glyph glyph-name="bullet" unicode="&#x2022;" horiz-adv-x="839" 
d="M424 307q96 0 163.5 69t67.5 171q0 100 -68.5 165.5t-162.5 65.5q-102 0 -171 -68.5t-69 -162.5q0 -104 71.5 -172t168.5 -68z" />
    <glyph glyph-name="ellipsis" unicode="&#x2026;" horiz-adv-x="1419" 
d="M219 -23q42 0 73.5 31t31.5 76q0 42 -31.5 73t-73.5 31q-44 0 -75 -30.5t-31 -73.5q0 -46 30.5 -76.5t75.5 -30.5zM711 -23q42 0 73 31t31 76q0 42 -31 73t-73 31q-44 0 -75.5 -30.5t-31.5 -73.5q0 -45 31 -76t76 -31zM1202 -23q42 0 73.5 31t31.5 76q0 42 -31.5 73
t-73.5 31q-44 0 -75 -30.5t-31 -73.5q0 -46 31 -76.5t75 -30.5z" />
    <glyph glyph-name="perthousand" unicode="&#x2030;" horiz-adv-x="2062" 
d="M156 0l1013 1434h107l-1014 -1434h-106zM600 1130q0 73 -33 143.5t-95 117.5t-136 47q-110 0 -187 -95.5t-77 -212.5q0 -115 77 -210t187 -95q112 0 188 93t76 212zM336 1376q50 0 87.5 -39.5t54 -94t16.5 -112.5q0 -109 -40.5 -176t-117.5 -67q-70 0 -114 76.5
t-44 166.5q0 104 42.5 175t115.5 71zM1337 305q0 73 -33 143.5t-95 117t-136 46.5q-110 0 -187 -95t-77 -212q0 -115 77 -210t187 -95q112 0 188 93t76 212zM1073 551q50 0 87.5 -39.5t54 -94t16.5 -112.5q0 -109 -40.5 -176.5t-117.5 -67.5q-70 0 -114 77t-44 167
q0 104 42.5 175t115.5 71zM1991 305q0 73 -33.5 143.5t-95.5 117t-136 46.5q-110 0 -187 -95t-77 -212q0 -115 77 -210t187 -95q112 0 188.5 93.5t76.5 211.5zM1726 551q50 0 87.5 -39.5t54 -94t16.5 -112.5q0 -109 -40.5 -176.5t-117.5 -67.5q-70 0 -113.5 77t-43.5 167
q0 104 42.5 175t114.5 71z" />
    <glyph glyph-name="guilsinglleft" unicode="&#x2039;" horiz-adv-x="749" 
d="M217 520q101 -93 225.5 -245.5t184.5 -260.5l-29 -24q-163 169 -300.5 290.5t-297.5 219.5v26q165 107 307.5 231t290.5 277l29 -20q-58 -103 -181 -248.5t-229 -245.5z" />
    <glyph glyph-name="guilsinglright" unicode="&#x203a;" horiz-adv-x="749" 
d="M532 520q-105 99 -228 245t-181 249l29 20q148 -153 290.5 -277t307.5 -231v-26q-160 -98 -297.5 -219.5t-300.5 -290.5l-29 24q60 108 184 260.5t225 245.5z" />
    <glyph glyph-name="fraction" unicode="&#x2044;" horiz-adv-x="1146" 
d="M104 0h-84l1022 1434h84z" />
    <glyph glyph-name="uni2070" unicode="&#x2070;" horiz-adv-x="579" 
d="M555 1057q0 171 -84 287t-209 116q-126 0 -209.5 -115.5t-83.5 -287.5t83.5 -288t209.5 -116t209.5 116t83.5 288zM262 1417q87 0 135.5 -97t48.5 -263t-48.5 -263.5t-135.5 -97.5t-135.5 97.5t-48.5 263.5t48.5 263t135.5 97z" />
    <glyph glyph-name="Euro" unicode="&#x20ac;" horiz-adv-x="1542" 
d="M922 815l-19 -61h-477q3 -78 14 -138l480 2l-19 -61h-448q52 -210 189 -333.5t333 -123.5q307 0 430 396h45q-13 -70 -41 -138.5t-75.5 -135.5t-108 -118t-144.5 -82.5t-180 -31.5q-134 0 -246 45.5t-189 124.5t-126 180t-68 217h-180v59h174q-4 54 -4 80l2 58h-170v59
h174q14 133 61 245t127 200t203 138t277 50q120 0 229 -33.5t232 -99.5l-4 -361h-35q-102 443 -434 443q-81 0 -149.5 -20.5t-118.5 -55t-89.5 -82.5t-64.5 -99.5t-42.5 -110t-25 -110.5t-8.5 -104z" />
    <glyph glyph-name="trademark" unicode="&#x2122;" horiz-adv-x="1800" 
d="M61 1155l25 279h647l25 -279h-37q-3 14 -8 42q-8 45 -12.5 67t-14.5 52.5t-20.5 44t-28 24t-41.5 10.5h-129v-647q0 -32 17 -38.5t116 -7.5v-38h-379v38q96 2 117.5 8.5t21.5 37.5l-2 647h-127q-17 0 -30.5 -4t-25 -14.5t-19.5 -19.5t-16 -30t-13 -33.5t-11.5 -42
t-9.5 -45t-10 -51.5h-35zM795 1395v39h223l262 -592l244 592h215v-39q-10 -1 -24.5 -1.5t-22 -0.5t-18 -1t-15 -2t-11 -3t-9.5 -5t-6 -7.5t-4 -10.5t-1 -14v-596q0 -33 23.5 -42t73.5 -10h14v-38h-303v38q63 2 77 9q19 11 19 43v503l6 66l-268 -659h-31l-283 659l9 -66v-501
q0 -16 5 -26t9.5 -15.5t21 -8t24.5 -3t34 -1.5v-38h-264v38q74 2 92 13q20 11 20 35l-2 600q0 8 -1 14t-4 10.5t-5.5 7.5t-9 5t-11 3t-15 2t-17.5 1t-22 1t-25 1z" />
    <glyph glyph-name="arrowleft" unicode="&#x2190;" horiz-adv-x="1515" 
d="M647 285q-96 118 -230.5 221t-334.5 211v22q199 101 333.5 203t231.5 223l27 -12q-56 -100 -142 -206.5t-176 -176.5l1078 -2v-88l-1078 4q92 -73 178 -179t140 -206z" />
    <glyph glyph-name="arrowup" unicode="&#x2191;" horiz-adv-x="1167" 
d="M143 848q118 96 221 230.5t211 334.5h23q101 -199 203 -333.5t223 -231.5l-12 -27q-100 56 -206.5 142t-176.5 176l-2 -1078h-88l4 1078q-73 -92 -179 -178t-206 -140z" />
    <glyph glyph-name="arrowright" unicode="&#x2192;" horiz-adv-x="1515" 
d="M868 1167q96 -118 230.5 -221t335.5 -211v-22q-200 -101 -334.5 -203.5t-231.5 -222.5l-26 12q57 101 142 207t175 176l-1077 2v88l1077 -4q-92 73 -177 178.5t-140 206.5z" />
    <glyph glyph-name="arrowdown" unicode="&#x2193;" horiz-adv-x="1044" 
d="M96 653q101 -55 206.5 -140t178.5 -177l-4 1077h88l2 -1077q70 90 176 175t207 142l13 -26q-120 -97 -222.5 -231.5t-203.5 -334.5h-23q-108 201 -211 335.5t-221 230.5z" />
    <glyph glyph-name="arrowboth" unicode="&#x2194;" horiz-adv-x="1843" 
d="M360 678q91 -72 174.5 -176.5t139.5 -204.5l-27 -14q-96 118 -230.5 221t-334.5 211v22q199 101 333.5 203t231.5 223l27 -12q-56 -100 -142 -206.5t-176 -176.5h1131q-90 70 -176 176.5t-142 206.5l27 12q97 -121 231.5 -223t333.5 -203v-22q-200 -108 -334.5 -211
t-230.5 -221l-27 14q56 100 139.5 204.5t174.5 176.5h-1123z" />
    <glyph glyph-name="uni2196" unicode="&#x2196;" horiz-adv-x="1155" 
d="M176 504q15 152 -7 319.5t-87 386.5l16 15q210 -69 378 -91.5t323 -7.5l10 -26q-108 -32 -244.5 -46.5t-251.5 -0.5l760 -762l-61 -64l-760 766q13 -119 -1 -255t-46 -242z" />
    <glyph glyph-name="uni2197" unicode="&#x2197;" horiz-adv-x="1161" 
d="M358 1145q152 -15 320 7t387 87l14 -16q-129 -393 -98 -701l-27 -10q-32 108 -46.5 244.5t-0.5 251.5l-762 -760l-63 61l766 760q-119 -13 -255.5 1t-242.5 46z" />
    <glyph glyph-name="uni2198" unicode="&#x2198;" horiz-adv-x="1155" 
d="M979 954q-15 -152 7 -319.5t87 -386.5l-16 -15q-210 69 -378 91.5t-323 7.5l-10 26q109 32 245.5 47t250.5 1l-760 761l61 64l760 -766q-13 119 1 255.5t46 242.5z" />
    <glyph glyph-name="uni2199" unicode="&#x2199;" horiz-adv-x="1161" 
d="M803 336q-152 15 -320 -7t-387 -87l-14 16q129 393 98 700l27 11q32 -108 46.5 -244.5t0.5 -251.5l762 760l63 -62l-766 -759q119 13 255.5 -1t242.5 -46z" />
    <glyph glyph-name="minus" unicode="&#x2212;" horiz-adv-x="1173" 
d="M1071 694v-84h-969v84h969z" />
    <glyph glyph-name="approxequal" unicode="&#x2248;" horiz-adv-x="946" 
d="M666 346q22 0 44.5 19t48.5 60.5t45 77t50 99.5l-23 10q-82 -139 -135 -139q-49 0 -130.5 35.5t-159 71.5t-115.5 36q-16 0 -36 -16t-49.5 -55.5t-50 -70.5t-61.5 -95l21 -12q51 67 82.5 97t62.5 30q46 0 125.5 -37t158.5 -74t122 -37zM666 612q22 0 44.5 19t48.5 60.5
t45 77t50 99.5l-23 11q-83 -140 -135 -140q-49 0 -130.5 36t-159 72t-115.5 36q-16 0 -36 -16t-50 -56.5t-49.5 -70t-61.5 -95.5l21 -12q51 67 82.5 97t62.5 30q46 0 125.5 -37t158.5 -74t122 -37z" />
    <glyph glyph-name="notequal" unicode="&#x2260;" horiz-adv-x="1173" 
d="M346 172l-63 39l143 256h-324v84h373l125 223h-498v84h545l154 272l65 -38l-131 -234h336v-84h-385l-125 -223h510v-84h-559z" />
    <glyph glyph-name="lessequal" unicode="&#x2264;" horiz-adv-x="1173" 
d="M141 756l883 362v-86l-707 -293l707 -274v-86l-883 344v33zM141 266h883v-78h-883v78z" />
    <glyph glyph-name="greaterequal" unicode="&#x2265;" horiz-adv-x="1173" 
d="M1032 756v-33l-882 -344v86l706 274l-706 293v86zM1032 266v-78h-882v78h882z" />
    <glyph glyph-name="i.loclTRK" horiz-adv-x="587" 
d="M33 909v33l348 105v-947q0 -26 8 -41t23 -21t36 -7.5t48 -1t59 -0.5v-29h-494v29q27 2 52.5 0.5t48.5 1t40.5 8t27.5 21.5t10 42v715q0 23 -1 40.5t-4.5 31t-6 23.5t-10.5 16t-13 10t-18 4t-21 -0.5t-27 -4.5t-30 -7t-36 -10q-26 -7 -40 -11zM299 1292q37 0 65.5 28
t28.5 69q0 38 -28.5 66t-65.5 28q-40 0 -68 -28t-28 -66q0 -41 28 -69t68 -28z" />
    <glyph glyph-name="f_b" horiz-adv-x="2041" 
d="M1159 180q46 -52 123.5 -90.5t181.5 -38.5q177 0 270 119t93 307q0 224 -105.5 345.5t-265.5 121.5q-52 0 -135.5 -40t-161.5 -97v-627zM1018 1251q0 123 -85 199t-222 76q-88 0 -150 -28t-96 -80.5t-49 -116t-15 -144.5v-133h226v-39h-226v-852q0 -24 6.5 -41.5
t26.5 -28.5t37 -17.5t58.5 -10t70 -4.5t90.5 -2v-29h-612v29q32 1 46 2t40 4.5t38 10t27 17.5t21 28.5t6 41.5v852h-125v39h125v172q0 166 128.5 274.5t328.5 108.5q62 0 122 -13.5t95.5 -27.5t105.5 -45l121 86h2v-711q248 176 367 176q197 0 313.5 -122t116.5 -351
q0 -263 -153.5 -428.5t-387.5 -165.5q-51 0 -98.5 7t-96 22.5t-74 25t-74 32t-54.5 24.5v1163z" />
    <glyph glyph-name="f_f_b" horiz-adv-x="2762" 
d="M1411 1024v-39h-268v-852q0 -24 6.5 -41.5t26.5 -28.5t37 -17.5t58.5 -10t70 -4.5t90.5 -2v-29h-613v29q32 1 46 2t40 4.5t38 10t27 17.5t21 28.5t6 41.5v852h-596v-852q0 -24 6.5 -41.5t26.5 -28.5t37 -17.5t58.5 -10t70 -4.5t90.5 -2v-29h-612v29q32 1 46 2t40 4.5
t38 10t27 17.5t21 28.5t6 41.5v852h-125v39h125v172q0 163 128.5 273t324.5 110q97 0 182 -30t207 -105q132 135 352 135q80 0 146.5 -22t158.5 -68l109 90h16v-711q248 176 367 176q197 0 313.5 -122t116.5 -351q0 -266 -153.5 -432t-387.5 -166q-51 0 -98.5 7t-96 22.5
t-74 25t-74 32t-54.5 24.5v1139q0 153 -76 228t-213 75q-73 0 -127.5 -19t-88.5 -51.5t-55 -80.5t-28.5 -100t-7.5 -118v-133h268zM997 1217q0 158 -75.5 233.5t-212.5 75.5q-91 0 -153.5 -28t-95 -81t-46 -115t-13.5 -145v-133h596v172v23v-2zM1880 176q46 -52 123.5 -90.5
t181.5 -38.5q177 0 270 119.5t93 310.5q0 224 -105.5 345.5t-265.5 121.5q-52 0 -135.5 -40t-161.5 -97v-631z" />
    <glyph glyph-name="f_f_h" horiz-adv-x="2797" 
d="M1411 1024v-39h-268v-852q0 -24 6.5 -41.5t26.5 -28.5t37 -17.5t58.5 -10t70 -4.5t90.5 -2v-29h-613v29q32 1 46 2t40 4.5t38 10t27 17.5t21 28.5t6 41.5v852h-596v-852q0 -24 6.5 -41.5t26.5 -28.5t37 -17.5t58.5 -10t70 -4.5t90.5 -2v-29h-612v29q32 1 46 2t40 4.5
t38 10t27 17.5t21 28.5t6 41.5v852h-125v39h125v172q0 163 128.5 273t324.5 110q97 0 182 -30t207 -105q132 135 352 135q80 0 146.5 -22t158.5 -68l107 90h16l-2 -729q8 5 49 32.5t58.5 39t56.5 35.5t63.5 36t57 26.5t59 21t49.5 6.5q151 0 242.5 -94t91.5 -244v-594
q0 -18 3 -31.5t7.5 -22.5t15 -15t19 -9t25.5 -4.5t29 -2t35.5 -0.5t39.5 -1v-29h-493v29q14 1 38.5 1t37.5 0.5t32 3t29.5 8t21 14.5t15 24t4.5 35v493q0 170 -61 256t-197 86q-45 0 -94 -16t-98.5 -46t-74 -47t-61.5 -46v-670q1 -27 10 -44.5t20 -27t37.5 -15t45.5 -6.5
t61 -3v-29h-489v29q32 1 46 2t40 4.5t38 10t27 17.5t21 28.5t6 41.5v1090q0 153 -76 228t-213 75q-73 0 -127.5 -19t-88.5 -51.5t-55 -80.5t-28.5 -100t-7.5 -118v-133h268zM997 1214q1 159 -75 235.5t-213 76.5q-91 0 -153.5 -28t-95 -81t-46 -115t-13.5 -145v-133h596v172
v18z" />
    <glyph glyph-name="f_f_k" horiz-adv-x="2678" 
d="M1411 1024v-39h-268v-852q0 -24 6.5 -41.5t26.5 -28.5t37 -17.5t58.5 -10t70 -4.5t90.5 -2v-29h-613v29q32 1 46 2t40 4.5t38 10t27 17.5t21 28.5t6 41.5v852h-596v-852q0 -24 6.5 -41.5t26.5 -28.5t37 -17.5t58.5 -10t70 -4.5t90.5 -2v-29h-612v29q32 1 46 2t40 4.5
t38 10t27 17.5t21 28.5t6 41.5v852h-125v39h125v172q0 163 128.5 273t324.5 110q97 0 182 -30t207 -105q132 135 352 135q80 0 146.5 -22t158.5 -68l107 90h16l-2 -1018l461 342q37 27 49 47t-6.5 32.5t-71.5 12.5h-82v29h430v-29q-80 0 -140 -27.5t-192 -127.5l-184 -140
l357 -581q30 -49 72 -65.5t136 -24.5v-29h-323l-357 610l-149 -112v-373q1 -27 10 -44.5t20 -27t37.5 -15t45.5 -6.5t61 -3v-29h-489v29q32 1 46 2t40 4.5t38 10t27 17.5t21 28.5t6 41.5v1090q0 153 -76 228t-213 75q-73 0 -127.5 -19t-88.5 -51.5t-55 -80.5t-28.5 -100
t-7.5 -118v-133h268zM997 1214q1 159 -75 235.5t-213 76.5q-91 0 -153.5 -28t-95 -81t-46 -115t-13.5 -145v-133h596v172v18z" />
    <glyph glyph-name="f_h" horiz-adv-x="2058" 
d="M627 985h-226v-852q0 -24 6.5 -41.5t26.5 -28.5t37 -17.5t58.5 -10t70 -4.5t90.5 -2v-29h-612v29q32 1 46 2t40 4.5t38 10t27 17.5t21 28.5t6 41.5v852h-125v39h125v172q0 163 128.5 273t324.5 110q80 0 146.5 -22t158.5 -68l108 90h17l-2 -729q8 5 49 32.5t58.5 39
t56.5 35.5t63.5 36t57 26.5t59 21t49.5 6.5q151 0 242.5 -94t91.5 -244v-594q0 -18 3 -31.5t7.5 -22.5t15 -15t19 -9t25.5 -4.5t29 -2t35.5 -0.5t39.5 -1v-29h-494v29q14 1 38.5 1t37.5 0.5t32 3t29.5 8t21 14.5t15 24t4.5 35v493q0 170 -61 256t-197 86q-45 0 -94 -15.5
t-98 -46t-73 -47.5t-62 -46v-670q1 -27 10 -44.5t20 -27t37.5 -15t45.5 -6.5t61 -3v-29h-490v29q32 1 46 2t40 4.5t38 10t27 17.5t21 28.5t6 41.5v1090q0 153 -76.5 228t-213.5 75q-91 0 -153.5 -28t-95 -81t-46 -115t-13.5 -145v-133h226v-39z" />
    <glyph glyph-name="f_j" horiz-adv-x="1296" 
d="M254 1176q0 181 113.5 292t312.5 111q119 0 221.5 -49.5t167.5 -124.5l-100 -277h-29q0 217 -65 307.5t-201 90.5q-79 0 -133.5 -25.5t-85 -75.5t-43.5 -114.5t-13 -153.5v-131h709v-938q0 -110 -19 -194.5t-50.5 -141t-84.5 -100.5t-107.5 -71t-133.5 -54l-8 24
q82 37 136 83t81.5 101t38 107.5t10.5 120.5v916q0 71 -24 89.5t-97 18.5h-451l2 -854q0 -24 6.5 -41.5t26.5 -28.5t37 -17.5t58.5 -10t70 -4.5t90.5 -2v-29h-612v29q32 1 45.5 2t40 4.5t38.5 9.5t27 16t21 26t6 38l-2 862h-123v39h123v150z" />
    <glyph glyph-name="f_k" horiz-adv-x="1959" 
d="M1778 119q30 -49 72.5 -65.5t136.5 -24.5v-29h-324l-356 610l-152 -114v-371q1 -27 10 -44.5t20 -27t37.5 -15t45.5 -6.5t61 -3v-29h-489v29q32 1 46 2t40 4.5t38 10t27 17.5t21 28.5t6 41.5v1118q0 123 -84.5 199t-220.5 76q-91 0 -154.5 -28t-96.5 -80.5t-47 -115
t-14 -145.5v-133h226v-39h-226v-852q0 -24 6.5 -41.5t26.5 -28.5t37 -17.5t58.5 -10t70 -4.5t90.5 -2v-29h-612v29q32 1 46 2t40 4.5t38 10t27 17.5t21 28.5t6 41.5v852h-125v39h125v172q0 165 124 274t331 109q61 0 123.5 -14t94 -26t109.5 -44l117 84h2l-2 -1020l463 344
q37 27 49 47t-6.5 32.5t-71.5 12.5h-82v29h430v-29q-80 0 -139.5 -27t-191.5 -128l-185 -140z" />
    <glyph glyph-name="zero.osf" horiz-adv-x="1191" 
d="M596 1047q-225 0 -369.5 -149t-144.5 -386q0 -241 144 -388t370 -147q232 0 373 146t141 389q0 239 -141.5 387t-372.5 148zM596 1001q176 0 269 -134.5t93 -354.5q0 -136 -39 -244.5t-122.5 -176.5t-200.5 -68q-106 0 -189.5 67.5t-128.5 178.5t-45 243
q0 214 100.5 351.5t262.5 137.5z" />
    <glyph glyph-name="one.osf" horiz-adv-x="882" 
d="M115 950l2 -2l266 31v-848q0 -34 -19.5 -55t-60 -30t-82 -12t-104.5 -5h-15v-29h709v29q-158 4 -203 16q-69 27 -73 86v916h-19l-401 -70v-27z" />
    <glyph glyph-name="two.osf" horiz-adv-x="1050" 
d="M129 680q32 89 89 149.5t117 84.5t122 24q114 0 190 -64.5t76 -179.5q0 -92 -55.5 -173.5t-194.5 -186.5l-371 -277v-57h764l66 344h-29q-21 -76 -35 -114t-35.5 -66.5t-48.5 -36.5t-73 -8h-449l268 172q131 84 200.5 146.5t104.5 133t35 162.5q0 127 -95 220.5
t-255 93.5q-169 0 -276 -94t-148 -263z" />
    <glyph glyph-name="three.osf" horiz-adv-x="1009" 
d="M131 805q59 72 136.5 110.5t158.5 38.5q111 0 170 -67t59 -152q0 -60 -24.5 -111.5t-62.5 -88t-98.5 -70t-118 -56t-136.5 -47.5l6 -32q127 21 231 -3t169 -81t100 -134.5t35 -166.5q0 -84 -36.5 -161.5t-108 -129t-160.5 -51.5q-156 0 -228.5 97t-91.5 310h-29l-30 -334
q175 -127 368 -127q108 0 200.5 41t152.5 107t93.5 147.5t33.5 163.5q0 114 -68 203t-185 135t-259 41q71 24 125 47t109.5 57t91.5 72t58.5 91.5t22.5 115.5q0 119 -82.5 198t-234.5 79q-133 0 -237.5 -69.5t-154.5 -158.5z" />
    <glyph glyph-name="four.osf" horiz-adv-x="1171" 
d="M53 0h721v-492h144v492h215v104h-215v920h-58l-807 -915v-109zM133 104l643 730l-2 -730h-641z" />
    <glyph glyph-name="five.osf" horiz-adv-x="1165" 
d="M174 -35q4 -95 27.5 -168t58 -117t82.5 -71.5t94.5 -38t100.5 -10.5q74 0 137 27.5t105.5 72.5t73 103t44.5 119t14 120q0 179 -90 281t-241 102q-24 0 -48 -2.5t-43 -5t-43 -10.5t-37.5 -12t-39.5 -17t-35.5 -17t-38 -21t-35 -21t-38.5 -24t-38 -24l-28 11l112 782h682
v-125h-637l-86 -573q102 86 200.5 123.5t219.5 37.5q192 0 306 -123t114 -321q0 -98 -37.5 -193.5t-103.5 -171.5t-167 -123t-218 -47q-207 0 -451 150l51 307h33z" />
    <glyph glyph-name="six.osf" horiz-adv-x="1193" 
d="M950 1413q-257 -38 -442 -223t-232 -455q58 93 158 146.5t195 56.5q80 3 158.5 -25t143.5 -84t105.5 -149.5t40.5 -210.5q0 -151 -66.5 -264.5t-174 -170.5t-238.5 -57q-224 0 -363 172.5t-139 446.5q0 170 65 322t178 264.5t270 185.5t337 92zM262 571
q0 -231 96.5 -382.5t253.5 -151.5q97 0 168.5 56t105.5 144t34 195q0 82 -21.5 157t-62 136.5t-107 98t-149.5 36.5q-91 0 -178 -62t-138 -173z" />
    <glyph glyph-name="seven.osf" horiz-adv-x="1146" 
d="M78 1024h926l18 -29q-126 -156 -217 -311.5t-145.5 -293t-86.5 -292.5t-43.5 -288.5t-13.5 -301.5h-151q2 152 15.5 278.5t48 269t92 274t150 279t218.5 298.5l-811 -2v119z" />
    <glyph glyph-name="eight.osf" horiz-adv-x="1196" 
d="M952 1180q0 -58 -22.5 -109.5t-64.5 -93t-80 -70t-89 -59.5l17 -8q145 -79 201 -123q146 -116 147 -281q0 -62 -14 -122.5t-49 -122.5t-88 -108.5t-139 -76t-193 -29.5q-195 0 -319 122.5t-124 287.5q0 72 23.5 135.5t56.5 107t82.5 82.5t88.5 61t87 44q-57 32 -98 61.5
t-82 71.5t-62.5 94.5t-21.5 114.5q0 144 104 233t287 89q166 0 259 -88.5t93 -212.5zM289 434q0 -167 89 -276t234 -109q66 0 119.5 22t87.5 56.5t57 78t32.5 85t9.5 80.5q0 41 -9.5 78t-21.5 64.5t-37 56t-42.5 45.5t-52.5 40.5t-52 33.5t-55.5 31t-49.5 28l-78 43
q-231 -138 -231 -357zM346 1202q0 -51 24.5 -98.5t72 -89t95.5 -73.5t115 -69q162 123 162 293q0 46 -14 91t-41.5 85.5t-76 65.5t-110.5 25q-101 0 -164 -64t-63 -166z" />
    <glyph glyph-name="nine.osf" horiz-adv-x="1163" 
d="M233 -389q166 25 307.5 115.5t239.5 234.5t131 320q-61 -89 -162 -140.5t-194 -54.5q-81 -3 -159.5 25t-145 84t-107.5 150t-41 210q0 113 39.5 207.5t106 156t154 95t184.5 33.5q147 0 262.5 -77.5t178.5 -213.5t63 -307q0 -177 -65 -333.5t-179 -271t-270.5 -188
t-337.5 -92.5zM266 592q0 -62 12 -121t38.5 -114t65 -96.5t96 -66t126.5 -24.5q89 0 179 58t143 161q2 20 2 64q0 228 -100 381t-257 153q-76 0 -135.5 -32.5t-96 -88.5t-55 -125.5t-18.5 -148.5z" />
    <glyph glyph-name="hyphen.case" horiz-adv-x="858" 
d="M102 723h654v-94h-654v94z" />
    <glyph glyph-name="uni00AD.case" horiz-adv-x="858" 
d="M102 723h654v-94h-654v94z" />
    <glyph glyph-name="endash.case" horiz-adv-x="1214" 
d="M0 711h1214v-70h-1214v70z" />
    <glyph glyph-name="emdash.case" horiz-adv-x="1939" 
d="M0 711h1939v-70h-1939v70z" />
    <glyph glyph-name="at.case" horiz-adv-x="1564" 
d="M836 41q-109 0 -212.5 23t-199 74t-166.5 125t-113.5 184.5t-42.5 244.5q0 138 44 255t117.5 197.5t170 137t200 83t208.5 26.5q122 0 234.5 -42t198 -117t136.5 -186.5t51 -242.5q0 -86 -21 -157t-56.5 -119t-79 -83.5t-94 -55.5t-95.5 -29t-88 -9q-156 0 -131 156l6 45
q-56 -76 -118 -131t-111 -55q-90 0 -157.5 78t-67.5 200q0 88 34.5 170.5t89.5 141t125 93.5t138 35q121 0 180 -45l51 45h18l-86 -581q-13 -92 66 -92q43 0 88.5 18t91 56.5t74.5 113.5t29 174q0 160 -71.5 286t-193 193.5t-270.5 67.5q-135 0 -247 -48.5t-184 -129
t-111.5 -183.5t-39.5 -215q0 -151 49 -272t135 -198.5t200.5 -118.5t248.5 -41q159 0 314 65l20 -43q-176 -94 -362 -94zM569 690q0 -102 40.5 -163.5t105.5 -61.5q74 0 203 170l47 309q-70 76 -164 76q-98 0 -165 -93.5t-67 -236.5z" />
    <glyph glyph-name="uni030C.alt" 
d="M115 1501l-33 -428h47l129 414q18 58 -26 79q-38 19 -78 -3q-37 -21 -39 -62z" />
    <glyph glyph-name="uni0302.case" 
d="M82 1188l35 -37l264 205l266 -205l35 37l-289 295h-22z" />
    <glyph glyph-name="uni030C.case" 
d="M82 1448l289 -295h22l289 295l-35 37l-266 -205l-264 205z" />
    <glyph glyph-name="uni0306.case" 
d="M123 1454q32 -93 99 -148t159 -55q185 0 254 203h41q-21 -139 -102.5 -217t-192.5 -78q-122 0 -200.5 75t-98.5 220h41z" />
    </font>
</defs>
</svg>
