<?xml version="1.0" standalone="no"?>
<!DOCTYPE svg PUBLIC "-//W3C//DTD SVG 1.1//EN" "http://www.w3.org/Graphics/SVG/1.1/DTD/svg11.dtd" >
<svg xmlns="http://www.w3.org/2000/svg" xmlns:xlink="http://www.w3.org/1999/xlink" version="1.1">
<metadata>
Created by FontForge 20170731 at Wed Aug 24 03:19:29 2022
 By Aleksey,,,
(c) 2012 House Industries/Brand Design Co., Inc. All Rights Reserved.
</metadata>
<defs>
<font id="HouseSlant-Regular" horiz-adv-x="980" >
  <font-face 
    font-family="House Slant"
    font-weight="500"
    font-stretch="normal"
    units-per-em="2048"
    panose-1="3 6 6 2 4 4 2 3 2 4"
    ascent="1812"
    descent="-236"
    x-height="1292"
    cap-height="1286.5"
    bbox="-287 -608.25 1682.67 1892"
    underline-thickness="0"
    underline-position="0"
    unicode-range="U+0020-FB02"
  />
<missing-glyph horiz-adv-x="2048" 
 />
    <glyph glyph-name="fi" unicode="fi" horiz-adv-x="1224" 
d="M834 1069q-78 -10 -324 -45q-13 -34 -28.5 -77.5t-36 -102.5t-33.5 -96q97 12 151 14q65 3 84 -47q18 -45 29 -119q5 -34 -5.5 -48t-45.5 -20q-190 -35 -308 -65q-81 -248 -141 -447q-10 -33 -29 -42t-51 1q-80 22 -127 56q-26 19 -31.5 44.5t3.5 67.5q22 121 102.5 389
t163.5 508q-24 44 -47 131q-7 29 1 39.5t34 18.5q99 29 262.5 50.5t314.5 27.5q35 2 53 -9.5t33 -46.5q26 -63 29 -118q2 -34 -8.5 -47t-44.5 -17zM1278 1206q30 -24 35.5 -43.5t-6.5 -54.5q-68 -184 -175.5 -523.5t-173.5 -574.5q-9 -33 -24 -41.5t-47 0.5q-71 20 -127 60
q-27 20 -33.5 44t2.5 68q37 174 141 541t172 559q13 36 35.5 45.5t55.5 -2.5q75 -23 145 -78z" />
    <glyph glyph-name="fl" unicode="fl" horiz-adv-x="1544" 
d="M834 1069q-78 -10 -324 -45q-13 -34 -28.5 -77.5t-36 -102.5t-33.5 -96q97 12 151 14q65 3 84 -47q18 -45 29 -119q5 -34 -5.5 -48t-45.5 -20q-190 -35 -308 -65q-81 -248 -141 -447q-10 -33 -29 -42t-51 1q-80 22 -127 56q-26 19 -31.5 44.5t3.5 67.5q22 121 102.5 389
t163.5 508q-24 44 -47 131q-7 29 1 39.5t34 18.5q99 29 262.5 50.5t314.5 27.5q35 2 53 -9.5t33 -46.5q26 -63 29 -118q2 -34 -8.5 -47t-44.5 -17zM1348 70q-267 -62 -349 -86q-53 -14 -83.5 -10t-57.5 28q-47 41 -82 90q-21 30 -26.5 57t2.5 68q46 197 148 522t183 525
q14 35 36.5 44t54.5 -3q89 -28 147 -74q29 -23 34 -43t-9 -55q-152 -398 -299 -859q112 22 233 31q35 3 54.5 -6t31.5 -39q26 -66 31 -121q6 -35 -1.5 -47.5t-47.5 -21.5z" />
    <glyph glyph-name=".notdef" horiz-adv-x="2048" 
 />
    <glyph glyph-name=".null" horiz-adv-x="0" 
 />
    <glyph glyph-name="nonmarkingreturn" horiz-adv-x="682" 
 />
    <glyph glyph-name="space" unicode=" " horiz-adv-x="440" 
 />
    <glyph glyph-name="exclam" unicode="!" horiz-adv-x="546" 
d="M584 1298q28 -24 33 -48.5t-9 -59.5q-196 -488 -315 -850q-10 -33 -26 -41t-46 0q-57 13 -119 51q-28 19 -34 43t6 68q79 302 278 866q13 38 33 47.5t57 -2.5q89 -29 142 -74zM41 -59q-59 18 -82.5 74.5t4.5 129.5q26 64 80.5 94.5t118.5 6.5q61 -22 80.5 -76.5
t-2.5 -110.5q-24 -73 -80.5 -105t-118.5 -13z" />
    <glyph glyph-name="quotedbl" unicode="&#x22;" horiz-adv-x="765" 
d="M408 1028q-35 -51 -80 -59q-37 -8 -95 -4q-56 3 -32 61q113 254 180 453q18 57 78 24q57 -32 82 -65q21 -25 22 -52t-10 -57q-21 -68 -65 -158t-80 -143zM698 977q-40 -46 -86 -49t-94 6q-59 12 -26 65q153 260 231 428q28 60 80 17q54 -43 74 -74q13 -20 15.5 -38.5
t-1 -32.5t-14.5 -39q-28 -66 -82.5 -151t-96.5 -132z" />
    <glyph glyph-name="numbersign" unicode="#" horiz-adv-x="978" 
d="M956 786q-70 -6 -147 -12q-13 -33 -37 -99.5t-37 -99.5q51 -1 73.5 -18t41.5 -59q12 -26 5 -39.5t-38 -16.5q-36 -3 -135 -16q-40 -113 -88 -258q-15 -52 -62 -23q-29 18 -44.5 39t-21 57t10.5 85q2 7 9.5 30.5t11.5 38.5q-23 -5 -81 -16.5t-89 -18.5q-56 -173 -72 -223
q-10 -29 -22.5 -33t-36.5 11q-46 28 -63.5 68t1.5 110l6 24q-48 -7 -75.5 13t-53.5 69q-14 28 -8.5 42.5t35.5 21.5q80 20 156 37q8 27 28 90t31 98q0 1 -3 -1q-2 -1 -3 -1q-60 -13 -92 8t-58 76q-14 28 -7.5 41t38.5 20q83 19 188 37q51 151 111 291q13 31 30 35t42 -16
q94 -77 53 -187q-5 -17 -18.5 -48.5t-18.5 -45.5q107 12 160 16q58 155 115 285q25 56 71 16q93 -79 47 -186q-6 -14 -20 -49t-23 -55q59 -1 84 -20t41 -64q11 -28 4 -39.5t-39 -14.5zM616 750q-89 -12 -163 -27q-38 -102 -66 -186q97 14 164 22q26 88 65 191z" />
    <glyph glyph-name="dollar" unicode="$" horiz-adv-x="755" 
d="M442 1141q70 176 93 223q25 55 73 16q84 -64 51 -180q-16 -55 -41 -123q49 -43 52 -47q49 -56 41 -147q-6 -57 -27 -129t-45 -117q-10 -22 -24 -27t-37 4q-115 49 -99 162q2 13 8 36.5t11 43t8.5 39t2 32.5t-8.5 17q-12 7 -38.5 -10t-53.5 -47.5t-48 -70.5t-21 -80
t26 -74q19 -23 48 -48t54.5 -45t53 -43t46 -46t31 -49t12 -57.5t-15.5 -66.5q-29 -66 -96.5 -121.5t-163.5 -56.5q-23 0 -35 2q-44 -130 -70 -223q-7 -30 -21.5 -34.5t-39.5 11.5q-79 51 -51 215q3 18 10.5 46t9.5 38q-63 40 -123 115q-62 80 -8 113q37 22 82.5 17t73.5 -28
q70 -54 140 -71.5t91 6.5q20 17 -12.5 48t-102 81.5t-104.5 87.5q-33 35 -52 76.5t-22 95t21 109.5q36 80 100 158t137 122q41 24 84 27z" />
    <glyph glyph-name="percent" unicode="%" horiz-adv-x="1214" 
d="M1069 1040q-152 -172 -427.5 -515.5t-393.5 -510.5q-20 -25 -32 -24t-32 24q-23 27 -32.5 52t-2.5 60.5t35 76.5q86 126 273 366.5t358 446.5q-54 -31 -111.5 -37.5t-103.5 12.5q-11 -101 -51.5 -194t-104.5 -146q-65 -52 -141 -37q-53 9 -102 45q-42 33 -58 84
q-36 110 23.5 269.5t167.5 238.5q22 17 53.5 23.5t56.5 1.5q70 -13 111 -57q20 -23 41 -70q28 -58 100 -64q62 -5 152 37t160 117q22 23 38 21.5t33 -27.5q66 -105 -10 -193zM1079 479q7 -115 -39 -250.5t-131 -201.5q-61 -49 -141 -37q-62 11 -102 45q-39 30 -54 84
q-33 110 29.5 269.5t171.5 238.5q47 34 113 24q61 -10 108 -57q42 -44 45 -115zM451 1149q-18 10 -62.5 -51t-69.5 -129q-33 -91 -39.5 -156.5t17.5 -77.5q25 -11 60 37t67 141q28 82 37 151.5t-10 84.5zM928 524q-18 10 -63 -51t-72 -129q-36 -91 -44.5 -157t15.5 -78
q23 -9 60 39.5t71 138.5q29 78 40.5 150t-7.5 87z" />
    <glyph glyph-name="ampersand" unicode="&#x26;" horiz-adv-x="1062" 
d="M641 96q-97 -66 -209 -102q-47 -16 -85.5 -22.5t-86.5 -4.5t-96.5 26t-95.5 70q-203 195 -2 420q75 86 219 174q-24 50 -33 78q-39 107 -35 191.5t57 173.5q44 74 131 133t175 80q54 12 100 12.5t93 -27t91 -86.5q83 -108 77.5 -222t-95.5 -210q-72 -80 -264 -198
q64 -119 108 -185q76 59 133 111q32 29 56 29t32 -25q34 -97 -59 -225q-31 -40 -45 -54q44 -60 80 -102q24 -29 22 -44t-28 -36q-44 -36 -97 -47q-30 -6 -52.5 6t-57.5 49q-9 9 -33 37zM489 778q103 61 156 109q30 27 51 64t27 82t-21 83q-58 -14 -116.5 -54t-87.5 -87
q-49 -82 -13 -184zM506 276q-46 67 -115 181q-44 -33 -78 -67t-52 -61t-29.5 -52.5t-10.5 -41.5t6 -28q19 -28 96.5 -9.5t182.5 78.5z" />
    <glyph glyph-name="quotesingle" unicode="'" horiz-adv-x="434" 
d="M387 977q-40 -46 -86 -49t-94 6q-58 12 -25 65q170 299 230 428q14 31 34 34t46 -17q46 -32 73 -74q13 -20 15.5 -38.5t-1 -32.5t-14.5 -39q-28 -67 -82.5 -152t-95.5 -131z" />
    <glyph glyph-name="parenleft" unicode="(" horiz-adv-x="497" 
d="M455 1386q46 52 88 -8q96 -143 8 -278q-104 -157 -170.5 -348t-81.5 -391t43 -373q9 -28 2.5 -37t-35.5 -12q-129 -11 -178 127q-53 144 -55 320.5t41.5 351.5t130.5 345t207 303z" />
    <glyph glyph-name="parenright" unicode=")" horiz-adv-x="555" 
d="M510 1143q29 -288 -84.5 -623t-304.5 -522q-81 -78 -207 -66q-31 3 -35.5 20.5t15.5 39.5q128 149 221 377t129 480t0 460q-7 41 4.5 58t54.5 9q93 -20 145.5 -81.5t61.5 -151.5z" />
    <glyph glyph-name="asterisk" unicode="*" horiz-adv-x="972" 
d="M920 862q-63 -12 -215 -51q25 -26 77 -78.5t80 -81.5q22 -24 20 -35.5t-28 -27.5q-29 -19 -55 -24.5t-59.5 6.5t-71.5 46q-49 43 -90 84q-11 -35 -33 -108t-35 -113q-9 -30 -22 -33t-39 13q-45 26 -62.5 66t0.5 110q9 35 23 84q-12 -4 -55 -19t-64 -22q-59 -20 -99.5 -1
t-72.5 71q-18 26 -14 39.5t36 25.5q104 41 240 84q-100 113 -160 188q-38 46 17 70q115 51 190 -39q11 -13 36.5 -43t39.5 -45q47 140 96 250q25 57 70 18q96 -79 53 -186q-39 -103 -49 -131q49 11 98 18q70 9 110.5 -10.5t63.5 -64.5q26 -51 -26 -60z" />
    <glyph glyph-name="plus" unicode="+" horiz-adv-x="999" 
d="M406 186q-35 0 -92.5 44.5t-57.5 80.5q0 45 35 181q-37 -5 -119 -19q-24 -4 -37 -4q-23 0 -43 20q-27 27 -47 73t-20 83q0 22 10 32t35 15q99 20 295 41q66 185 106 264q13 27 24 38.5t29 11.5q45 0 119 -54q37 -27 37 -55q0 -20 -10 -43q-47 -108 -60 -145q73 0 162 -7
q35 -3 55 -26q25 -29 39.5 -72t14.5 -78q0 -17 -9.5 -23.5t-33.5 -6.5q-125 0 -310 -19q-17 -53 -84 -293q-6 -24 -14 -31.5t-24 -7.5z" />
    <glyph glyph-name="comma" unicode="," horiz-adv-x="428" 
d="M51 -209q-26 -26 -47 -35.5t-49 -9.5q-56 0 -107 21q-26 11 -30.5 27t12.5 44q120 198 207 355q16 29 37.5 33t46.5 -13q72 -45 106 -88q19 -28 18 -46.5t-18 -49.5q-32 -60 -84 -129t-92 -109z" />
    <glyph glyph-name="hyphen" unicode="-" horiz-adv-x="808" 
d="M98 700q89 19 229.5 32t262.5 13q61 0 78 -53q14 -42 26 -110q4 -30 -7 -41t-44 -13q-260 -14 -455 -55q-30 -6 -49.5 2.5t-36.5 36.5q-34 54 -49 111q-17 65 45 77z" />
    <glyph glyph-name="period" unicode="." horiz-adv-x="452" 
d="M61 -41q-59 18 -82 75.5t5 129.5q26 63 79.5 92.5t118.5 5.5q61 -22 80.5 -75t-2.5 -109q-24 -73 -81 -105.5t-118 -13.5z" />
    <glyph glyph-name="slash" unicode="/" horiz-adv-x="724" 
d="M813 1217q24 -31 23.5 -51t-21.5 -52q-112 -164 -352.5 -557t-353.5 -594q-17 -31 -34 -35.5t-46 13.5q-54 34 -86 71q-23 23 -23 49t21 68q79 163 320.5 579.5t354.5 581.5q42 62 97 19q67 -55 100 -92z" />
    <glyph glyph-name="zero" unicode="0" horiz-adv-x="935" 
d="M838 1196q73 -68 80 -192q8 -144 -25.5 -317.5t-113.5 -347.5t-189 -280q-104 -102 -260 -86q-116 14 -195 72q-31 22 -60 61t-42 82q-22 91 -20.5 198t33.5 228.5t81 234t121 213.5t155 167q90 73 213 59q64 -7 126 -33t96 -59zM633 1059q-45 15 -134 -105.5
t-151 -287.5q-59 -160 -69 -302t43 -171q53 -21 129 91t137 294q31 95 52.5 201t21.5 188.5t-29 91.5z" />
    <glyph glyph-name="one" unicode="1" horiz-adv-x="528" 
d="M567 1112q-72 -196 -180 -537t-168 -561q-9 -34 -23 -42t-46 1q-75 21 -123 56q-26 19 -32.5 44.5t3.5 69.5q29 129 98.5 377.5t132.5 440.5q-27 18 -37 26t-18 20.5t-4 25.5t16 34q45 78 125 180q26 32 45.5 39t53.5 -4q75 -25 131 -72q29 -25 34 -43t-8 -55z" />
    <glyph glyph-name="two" unicode="2" horiz-adv-x="845" 
d="M334 244q93 18 215 22q57 3 84 -53q32 -62 41 -115q7 -30 -2 -41t-41 -14q-102 -9 -249 -33t-230 -45q-60 -11 -82 -5.5t-39 28.5q-56 65 -92 129q-38 78 16 119q157 125 333 305.5t282 323t79 167.5q-24 22 -81.5 -17t-149.5 -124q-44 -39 -115 -43t-121 20
q-68 30 8 142q72 107 170 181.5t195 94.5q59 11 109.5 1t93 -36.5t71.5 -58.5t45 -66q22 -48 27 -94.5t-7.5 -94t-33.5 -90t-55 -97.5q-75 -118 -206 -259t-265 -247z" />
    <glyph glyph-name="three" unicode="3" horiz-adv-x="886" 
d="M590 633q66 -19 110 -66q61 -63 77.5 -139.5t-4 -147t-68.5 -135.5q-140 -187 -390 -190q-198 0 -348 174q-31 36 -40 62.5t-1.5 41t27.5 27.5q46 28 96.5 25t89.5 -29q105 -65 178 -59.5t138 73.5q37 39 53.5 86.5t13 82.5t-19.5 55q-41 53 -140 36q-125 -23 -180 109
q-26 64 29 84q221 81 336 156t115 137q0 35 -35 35q-50 0 -154 -70q-61 -38 -129 -29t-113 52q-40 40 0 90q49 63 134.5 119t171.5 77q38 9 71.5 10.5t75 -7t81.5 -38.5t73 -81q49 -76 55 -157t-20 -142.5t-72 -106.5q-80 -77 -211 -135z" />
    <glyph glyph-name="four" unicode="4" horiz-adv-x="970" 
d="M788 629q54 -3 72 -58q20 -58 25 -108q3 -33 -7 -46t-42 -14q-20 -1 -62 -4t-63 -4q-66 -197 -123 -393q-9 -33 -24.5 -41.5t-47.5 0.5q-65 19 -115 57q-26 22 -31.5 46.5t5.5 68.5q17 74 67 236q-78 -10 -231 -35q-27 -8 -54.5 -2.5t-47.5 30.5q-46 52 -95 140
q-30 54 17 123q100 148 273 344.5t300 306.5q30 26 52.5 30t54.5 -8q34 -10 108 -53t105 -69q29 -24 33.5 -44t-9.5 -55q-101 -271 -160 -448zM266 590q67 9 256 26q51 151 140 398q-193 -181 -396 -424z" />
    <glyph glyph-name="five" unicode="5" horiz-adv-x="804" 
d="M530 991q-61 -116 -120 -260q133 30 221 -33q89 -63 94 -196.5t-74 -286.5q-56 -110 -154 -174t-216 -64q-90 0 -167 38.5t-124 119.5q-39 64 -40.5 90t27.5 43q47 28 104.5 25.5t90.5 -31.5q138 -119 236 14q32 43 50.5 95.5t18 89t-13.5 57.5q-37 40 -164 -2
q-37 -12 -51 -10.5t-39 18.5q-35 23 -80 72q-33 38 -8 111q68 202 201 467q33 64 102 75q180 28 373 35q70 3 88 -55q6 -15 9.5 -34t5 -31.5t3 -35t2.5 -30.5q4 -34 -6.5 -47.5t-44.5 -16.5q-93 -10 -324 -43z" />
    <glyph glyph-name="six" unicode="6" horiz-adv-x="835" 
d="M463 774q66 3 129 -26q89 -41 119.5 -100.5t25.5 -145.5q-9 -146 -83.5 -281t-168.5 -203q-139 -101 -325 -12q-108 52 -149.5 136.5t-22.5 207.5q13 89 47 192t94.5 227t162.5 255.5t232 243.5q32 27 51 33t58 -1q39 -8 88.5 -26.5t71.5 -34.5q19 -15 26.5 -27.5
t3 -28.5t-25.5 -34q-182 -152 -334 -375zM281 453q-91 -221 -29 -260q38 -23 90.5 18.5t99.5 132.5q41 79 49 139t-24 82q-33 15 -88 -17t-98 -95z" />
    <glyph glyph-name="seven" unicode="7" horiz-adv-x="878" 
d="M639 1040q-187 -21 -277 -34q-73 -14 -110 36q-44 71 -64 129q-11 29 -5 41.5t32 18.5q97 26 251.5 43t297.5 22q36 0 59.5 -11t42.5 -42q34 -50 74 -127q17 -30 15 -63.5t-29 -67.5q-160 -207 -338.5 -480.5t-315.5 -524.5q-15 -30 -31 -34.5t-44 13.5q-66 45 -105 98
q-20 28 -19.5 53.5t21.5 65.5q208 415 545 864z" />
    <glyph glyph-name="eight" unicode="8" horiz-adv-x="892" 
d="M877 827q-63 -94 -248 -206q72 -60 105.5 -121.5t29 -123t-31 -118.5t-77.5 -123q-51 -65 -112.5 -106t-125.5 -56t-128.5 -9t-126.5 32q-112 45 -160 133t-22 193q24 95 100.5 175.5t193.5 159.5q-88 78 -100.5 172.5t53.5 194.5q56 84 138.5 151t177.5 105
q151 61 291 -72q53 -51 78.5 -112t18 -131.5t-53.5 -137.5zM637 1083q-99 -65 -152 -132t-53 -124q0 -36 21 -63q223 143 223 242q0 41 -39 77zM444 506q-140 -93 -194 -201q-24 -56 -17.5 -87.5t33.5 -43.5q32 -14 82 14.5t88 90.5q28 46 41 81.5t6.5 75t-39.5 70.5z" />
    <glyph glyph-name="nine" unicode="9" horiz-adv-x="831" 
d="M319 426q-46 8 -69 18q-172 71 -178 242q-6 149 71.5 309.5t184.5 241.5q151 110 319 29q116 -54 167.5 -129t45.5 -195q-7 -131 -91 -308t-223 -351t-294 -287q-24 -18 -40.5 -26.5t-35.5 -8.5t-39 12q-68 38 -104 74q-15 15 -21 26t-1 27t26 33q148 122 282 293z
M471 659q41 76 69.5 147t40 124t8 89t-23.5 46q-37 17 -95.5 -47t-100.5 -156q-38 -87 -41.5 -153.5t34.5 -87.5q47 -21 109 38z" />
    <glyph glyph-name="colon" unicode=":" horiz-adv-x="503" 
d="M205 492q-59 18 -82.5 74.5t4.5 129.5q26 63 80 93t119 6q61 -22 80 -75.5t-3 -109.5q-24 -73 -80 -105t-118 -13zM37 -41q-59 18 -82.5 75t4.5 130q26 63 80 92.5t119 5.5q61 -22 80.5 -79t-2.5 -113q-24 -72 -80 -101.5t-119 -9.5z" />
    <glyph glyph-name="semicolon" unicode=";" horiz-adv-x="532" 
d="M63 -209q-26 -26 -47 -35.5t-49 -9.5q-55 0 -106 21q-51 20 -19 71q120 198 207 355q16 29 37.5 33t46.5 -13q74 -46 107 -88q19 -28 18 -46.5t-18 -49.5q-32 -59 -84.5 -128.5t-92.5 -109.5zM211 492q-59 18 -82.5 74.5t4.5 129.5q26 63 80 93t119 6q61 -22 80.5 -75.5
t-2.5 -109.5q-24 -73 -80.5 -105t-118.5 -13z" />
    <glyph glyph-name="less" unicode="&#x3c;" horiz-adv-x="684" 
d="M616 764q-144 -59 -288 -131q145 -71 196 -113q31 -27 39 -57t0 -60q-8 -41 -25 -71.5t-34 -30.5q-15 0 -33 12q-175 106 -377 203q-31 15 -42 29.5t-11 40.5q0 76 15 111.5t73 68.5q212 121 346 166q35 13 63.5 11.5t53.5 -23.5q27 -24 46 -59t19 -58q0 -25 -41 -39z
" />
    <glyph glyph-name="equal" unicode="=" horiz-adv-x="892" 
d="M240 680q-33 -3 -51 5.5t-31 35.5q-26 53 -35 108q-11 58 51 66q126 17 289 18.5t280 -10.5q58 -6 72 -53q20 -62 25 -100q3 -29 -7.5 -39.5t-39.5 -8.5q-275 9 -553 -22zM180 328q-33 -6 -52 1t-32 33q-23 43 -43 107q-9 29 4.5 47t40.5 23q127 25 287.5 38.5
t282.5 10.5q55 0 73 -49q21 -45 31 -99q6 -27 -3.5 -38t-39.5 -13q-286 -9 -549 -61z" />
    <glyph glyph-name="greater" unicode="&#x3e;" horiz-adv-x="681" 
d="M633 672q-10 -37 -33 -86q-29 -59 -86 -80q-214 -82 -408 -170q-65 -28 -65 39q0 59 8 108q9 53 66 84q79 44 231 92q-23 12 -113 53t-122 60q-27 15 -27 39q0 40 26 99t58 59q12 0 27 -6q93 -37 233 -108t182 -103q24 -18 28 -34t-5 -46z" />
    <glyph glyph-name="question" unicode="?" horiz-adv-x="927" 
d="M225 338q-25 18 -30 42.5t4 63.5q12 57 39 110t58 91t73 74.5t74 59.5t70 48q12 7 17 11q91 61 135 118.5t44 100.5q0 25 -15.5 38t-36.5 13q-21 -1 -43.5 -9t-50 -26.5t-45.5 -32t-53.5 -43t-50.5 -41.5q-51 -40 -116 -45.5t-122 25.5q-22 11 -29.5 25t1.5 42t42 70
q75 99 167.5 165.5t183.5 86.5q108 23 191.5 -19t127.5 -114q40 -65 53.5 -129.5t1.5 -120t-35.5 -100t-58.5 -84.5q-33 -37 -84.5 -73.5t-98 -66.5t-93.5 -68t-83.5 -95t-55.5 -131q-7 -30 -21.5 -38.5t-44.5 -0.5q-63 17 -115 53zM80 111q14 69 73 105.5t138 8.5
q37 -13 59 -36.5t27 -51t3.5 -51.5t-9.5 -47q-18 -54 -66 -84t-112 -21q-60 8 -94.5 56.5t-18.5 120.5z" />
    <glyph glyph-name="at" unicode="@" horiz-adv-x="1218" 
d="M633 18q-122 -45 -279 19q-60 24 -113.5 65.5t-100 109t-70.5 150t-18.5 196t48.5 239.5q41 120 111 214t153.5 149.5t176 82.5t184.5 21.5t174 -41.5q101 -44 165 -123t85.5 -175.5t12.5 -202t-48 -210.5q-31 -83 -68.5 -142.5t-74.5 -92t-78 -47t-76.5 -13.5t-71.5 14
q-36 12 -68 43.5t-40 83.5q-23 -40 -55 -60.5t-63.5 -20t-63.5 11.5q-36 14 -63.5 39t-47.5 65.5t-16.5 104t34.5 141.5q69 176 178 266t205 53q32 -12 55 -43.5t29 -72.5q39 -28 47 -55t-6 -64l-39 -111q-39 -111 -57.5 -185.5t-3.5 -90.5q17 -18 48 5.5t70.5 90
t72.5 160.5q19 53 31 108.5t14.5 122t-9.5 122.5t-49.5 105.5t-97.5 75.5q-44 19 -95.5 20.5t-105.5 -13.5t-109 -50.5t-105.5 -86t-95.5 -123t-77 -158.5q-38 -100 -48 -189t2.5 -149t39 -106.5t56.5 -71.5t61 -35q40 -14 94.5 -17t75.5 -8q76 -21 104 -69q10 -15 7 -30.5
t-21 -21.5zM750 813q0 37 -23 43q-34 8 -99 -69t-106 -183q-27 -69 -34.5 -118t-0.5 -70t23 -25q28 -8 68.5 46.5t84 151.5t87.5 224z" />
    <glyph glyph-name="A" unicode="A" 
d="M604 317q-308 -54 -383 -75q-60 -112 -121 -234q-17 -31 -32.5 -36t-44.5 8q-62 25 -99 67q-22 25 -22.5 50.5t18.5 68.5q102 226 275 548t303 525q26 41 57.5 59t83.5 17q59 -1 132.5 -18.5t127.5 -39.5q35 -14 44 -37.5t3 -64.5q-59 -409 -110 -1130q-2 -35 -14 -47.5
t-46 -12.5q-72 0 -127 19q-30 10 -41.5 32.5t-11.5 69.5q0 55 8 231zM379 539q159 24 239 30q16 219 48 475q-135 -228 -287 -505z" />
    <glyph glyph-name="B" unicode="B" horiz-adv-x="948" 
d="M719 621q47 -30 74.5 -85t29.5 -116q1 -69 -25 -121t-83 -104q-74 -69 -197 -136t-225 -98q-55 -19 -84.5 -16t-65.5 32q-58 44 -125 117q-35 40 -41 67t7 87q13 58 32 127t47.5 161.5t45.5 146.5t55 171t47 147q-28 53 -43 93q-15 38 -9 60.5t38 39.5q78 42 181 72.5
t206 44t193 -4t132 -67.5q85 -106 95 -229q6 -76 -33.5 -148.5t-104.5 -130.5q-58 -52 -147 -110zM397 729q156 57 262.5 152t98.5 145q-3 23 -37 30.5t-95.5 -6.5t-131.5 -49q-52 -144 -97 -272zM311 475q-73 -233 -80 -256q145 45 238.5 114.5t87.5 125.5
q-2 22 -32.5 35.5t-88.5 10t-125 -29.5z" />
    <glyph glyph-name="C" unicode="C" horiz-adv-x="876" 
d="M682 352q44 -16 45.5 -51.5t-27.5 -85.5q-52 -104 -157 -197q-43 -37 -108.5 -56t-125.5 -13q-103 10 -200 67q-36 23 -68 60t-45 80q-43 138 0 349t153 415.5t250 324.5q100 83 207 72q65 -6 135 -35t109 -65q40 -37 53.5 -80t11.5 -103q-2 -62 -16.5 -138.5
t-34.5 -125.5q-5 -15 -9.5 -22.5t-13.5 -16t-20.5 -7.5t-32.5 3q-78 18 -111 59t-36 115q-1 22 5.5 70.5t3.5 76t-23 35.5q-28 12 -86 -59t-116 -177.5t-93 -201.5q-39 -103 -60 -204t-16.5 -174.5t39.5 -86.5q29 -10 70.5 18t105.5 99q43 47 98 61t113 -6z" />
    <glyph glyph-name="D" unicode="D" horiz-adv-x="1001" 
d="M205 1012q-42 86 -47 102q-16 36 -11 59t37 41q64 36 145 61t175.5 30.5t179.5 -14.5t158 -83.5t110 -165.5q29 -79 29 -175t-26.5 -198t-85 -206t-140 -196t-199.5 -172t-256 -132q-80 -30 -143 17q-65 53 -117 108q-18 19 -26.5 31.5t-15 32.5t-4 46.5t13.5 65.5
q94 347 223 748zM242 236q72 36 135 82t109.5 95t85 102.5t64 105t42.5 101t24 93t6.5 78.5t-8.5 59q-19 50 -71 70.5t-133 -4.5q-125 -339 -254 -782z" />
    <glyph glyph-name="E" unicode="E" horiz-adv-x="788" 
d="M209 1036q-31 53 -49 135q-6 30 1.5 41t33.5 17q102 30 273 51.5t318 26.5q64 3 80 -58q20 -61 25 -114q2 -34 -10 -48.5t-45 -17.5q-165 -18 -322 -43q-18 -49 -56.5 -152.5t-47.5 -128.5q77 12 157 15q35 2 54.5 -8.5t29.5 -38.5q24 -71 29 -119q4 -33 -6.5 -46.5
t-44.5 -21.5q-232 -45 -324 -69q-36 -99 -63 -187q133 25 245 33q68 6 86 -45q26 -70 31 -121q4 -34 -5.5 -47.5t-43.5 -21.5q-288 -67 -358 -86q-46 -12 -73.5 -7t-55.5 29q-45 38 -82 88q-41 56 -25 133q47 207 248 811z" />
    <glyph glyph-name="F" unicode="F" horiz-adv-x="778" 
d="M834 1069q-78 -10 -324 -45q-13 -34 -28.5 -77.5t-36 -102.5t-33.5 -96q97 12 151 14q65 3 84 -47q18 -45 29 -119q5 -34 -5.5 -48t-45.5 -20q-190 -35 -308 -65q-81 -248 -141 -447q-10 -33 -29 -42t-51 1q-80 22 -127 56q-26 19 -31.5 44.5t3.5 67.5q22 121 102.5 389
t163.5 508q-24 44 -47 131q-7 29 1 39.5t34 18.5q99 29 262.5 50.5t314.5 27.5q35 2 53 -9.5t33 -46.5q26 -63 29 -118q2 -34 -8.5 -47t-44.5 -17z" />
    <glyph glyph-name="G" unicode="G" horiz-adv-x="905" 
d="M872 764q-9 -29 -23.5 -39t-45.5 -6q-161 22 -158 178q0 16 2.5 44.5t3.5 48.5t0.5 41t-5 33t-13.5 15q-45 15 -138.5 -116t-168.5 -308q-65 -154 -80 -303t37 -178q42 -19 104.5 49.5t118.5 182.5q-78 -4 -117.5 34t-48.5 125q-3 26 8.5 37.5t40.5 18.5q117 30 250 47
q44 6 70.5 -2.5t46.5 -36.5q27 -41 47 -82q17 -38 16.5 -65t-18.5 -68q-58 -140 -133.5 -245.5t-157.5 -162.5q-104 -73 -225 -51q-104 17 -193 78q-34 25 -63.5 65.5t-40.5 85.5q-39 145 9 358.5t165.5 416t265.5 311.5q80 60 199 43q60 -8 121.5 -35.5t99.5 -65.5
q62 -62 65 -178q1 -54 -12 -136.5t-29 -133.5z" />
    <glyph glyph-name="H" unicode="H" horiz-adv-x="925" 
d="M1020 1133q-75 -206 -178 -527.5t-183 -597.5q-9 -34 -23 -42t-46 1q-78 22 -125 58q-26 20 -32 44t3 68q18 92 78 307q-107 -16 -219 -38q-62 -201 -117 -396q-9 -33 -24.5 -41.5t-47.5 0.5q-71 21 -126 60q-27 20 -33.5 44t2.5 68q24 112 80 320q-26 62 -31 92
q-5 29 1 40.5t32 18.5q7 2 21.5 6.5t21.5 6.5q127 444 190 616q14 38 35 47t53 -4q85 -30 146 -78q30 -24 35.5 -43.5t-7.5 -54.5q-63 -168 -145 -428q113 13 207 20q102 344 178 562q13 39 35 47.5t55 -4.5q76 -25 137 -74q28 -22 33.5 -42.5t-6.5 -55.5z" />
    <glyph glyph-name="I" unicode="I" horiz-adv-x="425" 
d="M479 1206q30 -24 35.5 -43.5t-6.5 -54.5q-67 -182 -174 -521t-174 -577q-9 -33 -24.5 -41.5t-47.5 0.5q-71 20 -127 60q-27 20 -33.5 44t2.5 68q36 173 141 540t173 560q13 36 35 45.5t55 -2.5q75 -23 145 -78z" />
    <glyph glyph-name="J" unicode="J" horiz-adv-x="856" 
d="M186 -27q-174 58 -206 238q-18 110 22 244q17 58 42.5 81t66.5 1q67 -34 100 -85.5t27 -113.5q-10 -82 -5 -119.5t35 -40.5q38 -4 93.5 111.5t111 295.5t100 348.5t78.5 317.5q9 36 32 46t56 -1q89 -25 150 -71q31 -24 36.5 -43.5t-3.5 -53.5q-107 -457 -215.5 -737
t-233.5 -375q-126 -95 -287 -43z" />
    <glyph glyph-name="K" unicode="K" horiz-adv-x="907" 
d="M514 498q94 -227 184 -387q15 -28 9.5 -46.5t-33.5 -35.5q-34 -19 -92 -35q-90 -23 -140 53q-103 162 -176 332q-59 -199 -108 -369q-9 -34 -23.5 -42t-46.5 1q-80 22 -129 60q-26 20 -32 44t3 68q38 178 145 555t175 564q13 36 34.5 45.5t53.5 -2.5q75 -23 145 -78
q31 -25 36.5 -43.5t-7.5 -53.5q-39 -102 -125 -368q350 371 475 524q23 28 42 28.5t42 -24.5q50 -53 68 -121q16 -57 -29 -129q-115 -184 -471 -540z" />
    <glyph glyph-name="L" unicode="L" horiz-adv-x="727" 
d="M530 70q-262 -61 -348 -86q-53 -14 -83.5 -10t-57.5 28q-47 41 -82 90q-21 31 -27 57.5t2 67.5q45 196 148 521t184 526q14 35 36 44t54 -3q90 -28 148 -74q29 -23 33.5 -43t-9.5 -55q-152 -398 -299 -859q111 22 234 31q35 3 54.5 -6t31.5 -39q26 -66 31 -121
q6 -35 -2 -47.5t-48 -21.5z" />
    <glyph glyph-name="M" unicode="M" horiz-adv-x="1269" 
d="M383 219q-5 109 -4 296t6 333q-170 -552 -242 -832q-10 -38 -28.5 -47.5t-53.5 2.5q-32 10 -84 41q-38 23 -46 55t6 95q39 187 140 523.5t175 545.5q13 35 31 49t47 14q39 0 100.5 -18.5t101.5 -38.5q47 -25 62.5 -49t15.5 -74l-2 -110l-2 -275v-127q70 143 182.5 339.5
t186.5 309.5q23 34 49.5 44.5t67.5 4.5q103 -18 215 -75q32 -17 39 -42.5t-7 -72.5q-30 -105 -158.5 -529t-166.5 -567q-15 -49 -49 -49q-42 0 -113 41q-40 24 -49.5 53.5t4.5 102.5q62 286 207 725q-237 -421 -412 -762q-14 -28 -25 -38.5t-28 -10.5q-38 0 -103 30
q-32 14 -46 38.5t-17 74.5z" />
    <glyph glyph-name="N" unicode="N" horiz-adv-x="972" 
d="M600 481q41 167 106 391t117 369q13 37 35 47t55 -2q45 -14 93 -43q35 -23 43.5 -46t-5.5 -73q-232 -740 -327 -1095q-16 -66 -94 -47q-57 15 -115 47q-53 29 -72 104q-52 229 -76 623q-112 -355 -221 -740q-9 -32 -26.5 -41.5t-51.5 0.5q-40 14 -88 43q-35 23 -43 47
t4 91q32 148 136.5 495.5t185.5 585.5q19 53 66 53q24 0 75.5 -17.5t96.5 -41.5q34 -18 46 -39t15 -64q25 -409 45 -647z" />
    <glyph glyph-name="O" unicode="O" horiz-adv-x="948" 
d="M848 1202q76 -76 82 -196q7 -144 -27 -318.5t-114.5 -350.5t-190.5 -284q-105 -103 -262 -84q-117 14 -197 70q-33 23 -62 62.5t-42 84.5q-24 92 -22.5 199t34 228.5t83 234.5t124 215.5t156.5 171.5q43 36 104.5 53.5t112.5 9.5q65 -9 125.5 -35t95.5 -61zM641 1067
q-46 14 -135 -116.5t-146 -282.5q-37 -97 -58 -201.5t-16.5 -185t40.5 -95.5q54 -23 131.5 91t140.5 301q33 97 54.5 205t20.5 191.5t-32 92.5z" />
    <glyph glyph-name="P" unicode="P" horiz-adv-x="966" 
d="M305 358q-77 -242 -108 -356q-11 -33 -25.5 -41.5t-46.5 0.5q-72 19 -123 57q-26 20 -32 45.5t3 67.5q45 216 240 842q-42 86 -47 102q-16 38 -10.5 60.5t37.5 40.5q78 44 179 78t204 51t193 0.5t134 -70.5q92 -115 109 -256q10 -80 -23 -148.5t-98 -138.5
q-90 -100 -255 -192.5t-331 -141.5zM401 651q175 64 281 174t94 179q-3 22 -39 29.5t-94.5 -3.5t-120.5 -39q-45 -120 -121 -340z" />
    <glyph glyph-name="Q" unicode="Q" horiz-adv-x="946" 
d="M760 66q18 -29 14.5 -46.5t-31.5 -37.5q-47 -32 -102 -45q-63 -14 -102 34q-4 5 -11 13t-10 12q-70 -37 -182 -27q-111 10 -197 70q-33 23 -62 62.5t-42 84.5q-24 92 -22.5 199t34 228.5t83 234.5t124 215.5t156.5 171.5q43 36 104.5 53.5t112.5 9.5q65 -9 125.5 -35
t95.5 -61q74 -74 80 -196q11 -187 -50.5 -422.5t-179.5 -409.5q28 -53 62 -108zM387 201q-22 35 -27 49q-11 24 -6 42.5t31 31.5q54 28 125 43q41 79 86 211q61 184 74.5 329t-29.5 160q-45 15 -129.5 -104t-151.5 -295q-37 -97 -58 -201.5t-16.5 -185t40.5 -95.5
q30 -12 61 15z" />
    <glyph glyph-name="R" unicode="R" horiz-adv-x="993" 
d="M303 389q-69 -207 -119 -377q-9 -32 -23 -40.5t-46 -0.5q-72 20 -111 47q-27 20 -33 45.5t2 67.5q49 237 242 842q-40 78 -49 102q-15 38 -9.5 60.5t36.5 40.5q78 44 179 78t203.5 50.5t193 0t134.5 -69.5q90 -108 109 -256q19 -153 -119 -287q-126 -123 -332 -225
q109 -183 252 -352q23 -29 20.5 -45.5t-26.5 -36.5q-17 -14 -32 -22.5t-23.5 -11t-32.5 -9.5q-78 -24 -144 39q-58 52 -135.5 155t-136.5 205zM522 997q-29 -72 -125 -338q86 33 163.5 83t125.5 99.5t74 93.5t20 69q-8 37 -83.5 37.5t-174.5 -44.5z" />
    <glyph glyph-name="S" unicode="S" horiz-adv-x="821" 
d="M-66 324q48 24 105 19.5t90 -32.5q90 -78 171 -104.5t118 8.5q10 8 10.5 19t-7 24.5t-20.5 29t-32 33t-39.5 35.5t-44 38.5t-45.5 40t-44.5 42t-39.5 41.5q-40 46 -61 102t-19 127.5t35 143.5q43 101 129.5 203.5t177.5 160.5q107 66 211 29q50 -19 99.5 -51.5
t78.5 -65.5q26 -29 38 -64.5t10.5 -64.5t-3.5 -59q-10 -70 -43.5 -172.5t-65.5 -165.5q-15 -29 -32 -36t-45 5q-161 70 -134 191q4 19 14 52.5t19 61t17.5 59t9 46t-5.5 22.5q-13 8 -47.5 -17t-72 -68t-68.5 -99t-35.5 -110t26.5 -101q23 -31 59 -65t68.5 -62t67 -58.5
t59.5 -60t41 -61.5t15 -68.5t-21 -74.5q-122 -236 -350 -236q-222 0 -381 227q-29 41 -38 68.5t-2.5 42t27.5 25.5z" />
    <glyph glyph-name="T" unicode="T" horiz-adv-x="907" 
d="M967 1081q-143 -13 -224 -22q-173 -498 -329 -1055q-9 -32 -23.5 -40t-46.5 1q-73 20 -127 60q-27 20 -33 46t4 68q31 153 103.5 410t142.5 467q-22 -4 -46 -8.5t-49 -9.5t-34 -7q-32 -7 -51.5 -0.5t-36.5 33.5q-40 66 -57 147q-6 29 3 41.5t36 18.5q139 31 338 53
t348 25q55 0 78 -33q39 -60 51 -135q5 -34 -3.5 -45.5t-43.5 -14.5z" />
    <glyph glyph-name="U" unicode="U" horiz-adv-x="923" 
d="M20 174q-19 56 -20.5 130.5t18.5 171.5t40.5 177t64 202t68.5 188t73 190q13 35 35 43.5t55 -4.5q78 -29 123 -74q59 -56 25 -137q-37 -95 -63 -164.5t-65.5 -179t-61 -189t-38.5 -159t-11 -126t34 -55.5q25 -9 54.5 16.5t60.5 82.5t61 124t63 162t59 174.5t56 183.5
t48 167.5t40 146.5q10 37 32.5 47t55.5 -2q74 -23 138 -73q29 -24 34 -43.5t-6 -53.5q-50 -187 -88.5 -318t-86.5 -270t-92 -231.5t-97.5 -168t-110.5 -114.5q-48 -33 -96.5 -43.5t-114.5 -7.5q-107 5 -192 70q-66 49 -95 137z" />
    <glyph glyph-name="V" unicode="V" horiz-adv-x="954" 
d="M1040 1104q-63 -171 -228.5 -518t-289.5 -580q-25 -47 -56.5 -56t-88.5 13q-83 32 -144 74q-76 51 -83 166q-7 129 -7 229q3 381 37 791q3 36 15 49.5t45 13.5q81 0 136.5 -31.5t55.5 -103.5q0 -90 -13 -385.5t-16 -448.5q69 149 220.5 485t210.5 464q24 54 96 26
q62 -25 102 -71q21 -25 22 -53.5t-14 -63.5z" />
    <glyph glyph-name="W" unicode="W" horiz-adv-x="1312" 
d="M889 4q-18 -40 -44.5 -48.5t-80.5 7.5q-106 31 -140 59t-34 97q0 103 45 538q-67 -127 -198.5 -385.5t-137.5 -269.5q-20 -38 -43 -45t-70 6q-57 14 -114 43q-45 23 -45 78q0 143 49.5 497t107.5 646q6 31 18 45t34 14q30 0 80.5 -17t80.5 -38q25 -17 32 -42t-1 -69
q-4 -22 -145 -731q102 212 221 449.5t155 298.5q20 32 40 38.5t61 -4.5q51 -13 96 -43q25 -18 32.5 -40t2.5 -60q-23 -206 -84 -661q87 223 217.5 509.5t181.5 378.5q21 36 40.5 43t58.5 -10q66 -29 106 -78q21 -30 19 -57.5t-23 -69.5q-332 -655 -518 -1079z" />
    <glyph glyph-name="X" unicode="X" horiz-adv-x="954" 
d="M303 666q-114 470 -119 497q-12 56 -12 70q0 28 24.5 37.5t92.5 9.5q53 0 82 -4.5t49.5 -21.5t30 -41t20.5 -72q12 -51 29.5 -128.5t23.5 -99.5q21 26 70.5 87t73.5 92q117 147 148 179t56 32q48 0 92 -62.5t44 -101.5q0 -37 -33 -78q-270 -324 -375 -453
q73 -301 139 -561q6 -24 6 -37q0 -27 -28 -35t-84 -8q-63 0 -94 10.5t-48 35.5t-36 83q-32 101 -74 271q-56 -72 -163 -212.5t-128 -168.5q-23 -29 -47 -29q-31 0 -70 45q-65 74 -65 107q0 31 26 69q96 153 369 488z" />
    <glyph glyph-name="Y" unicode="Y" horiz-adv-x="888" 
d="M967 1100q-87 -172 -457 -713q-58 -179 -121 -397q-9 -33 -24.5 -41t-47.5 2q-78 23 -124 61q-27 22 -33 46t4 69q26 118 94 365q-35 279 -106 741q-5 34 5 47.5t42 17.5q83 11 139 -2q32 -7 47.5 -27.5t24.5 -64.5q32 -164 65 -430q142 224 316 508q19 31 38 35.5
t48 -14.5q63 -40 94 -84q20 -29 18.5 -52.5t-22.5 -66.5z" />
    <glyph glyph-name="Z" unicode="Z" horiz-adv-x="768" 
d="M535 1026q-120 -21 -191 -35q-73 -14 -104 41q-39 81 -50 137q-6 30 1.5 42t33.5 20q107 27 265 46.5t290 22.5q34 1 51.5 -10.5t26.5 -40.5q20 -74 27 -114q7 -28 1 -58.5t-30 -60.5q-287 -352 -610 -776q130 31 205 41q76 10 96 -45q26 -73 31 -121q3 -34 -8.5 -48
t-45.5 -20q-288 -67 -374 -92q-46 -13 -73 -8.5t-54 28.5q-48 45 -89 99q-49 65 -12 125q82 132 264 377.5t349 449.5z" />
    <glyph glyph-name="bracketleft" unicode="[" horiz-adv-x="622" 
d="M436 59q5 -32 -5.5 -45.5t-45.5 -19.5q-32 -6 -102 -20l-95 -19q-67 -13 -110 27q-48 45 -68 71q-21 27 -25 57t7 80q51 202 146 503.5t177 529.5q18 52 80 61q122 16 223 16q60 0 80 -57q23 -62 29 -113q3 -32 -7.5 -44t-43.5 -17q-29 -4 -160 -18q-160 -440 -280 -840
q38 5 88 8q34 3 54 -7.5t30 -39.5q18 -47 28 -113z" />
    <glyph glyph-name="backslash" unicode="\" horiz-adv-x="733" 
d="M383 1311q36 -7 49.5 -24t16.5 -56q12 -199 56.5 -598t80.5 -625q5 -34 -5 -47.5t-44 -17.5q-58 -7 -113 2q-32 6 -47.5 26.5t-24.5 65.5q-39 178 -98 595t-72 615q-3 38 12.5 55t51.5 19q73 3 137 -10z" />
    <glyph glyph-name="bracketright" unicode="]" horiz-adv-x="651" 
d="M670 1077q-73 -194 -170.5 -494t-163.5 -526q-7 -26 -25 -41t-59 -22q-29 -4 -186 -31q-38 -6 -58.5 3t-34.5 36q-29 55 -43 102q-19 58 39 74q79 22 164 35q131 440 273 842q-39 -4 -68 -8q-37 -4 -53.5 5t-28.5 40q-27 70 -33 112q-8 52 53 66q95 22 234 28
q63 3 96 -36q36 -47 56 -82q15 -28 16.5 -50t-8.5 -53z" />
    <glyph glyph-name="asciicircum" unicode="^" horiz-adv-x="1024" 
d="M748 602q-58 4 -107 16q-48 14 -63 68q-26 135 -43 311q-151 -161 -265 -297q-19 -22 -33.5 -22.5t-33.5 22.5q-46 62 -60 91q-23 48 9 92q63 88 176 217.5t211 220.5q28 26 48.5 28.5t39.5 -12.5q57 -39 84 -71q19 -22 24.5 -40.5t7.5 -60.5q10 -219 50 -514
q4 -29 -6 -40t-39 -9z" />
    <glyph glyph-name="underscore" unicode="_" horiz-adv-x="880" 
d="M-45 -377q-29 0 -38.5 12.5t-0.5 42.5q27 85 33 99q12 30 29.5 41.5t50.5 11.5h913q33 0 43.5 -11t1.5 -40q-23 -70 -37 -103q-12 -29 -29.5 -41t-48.5 -12h-917z" />
    <glyph glyph-name="grave" unicode="`" horiz-adv-x="1024" 
d="M528 1436q-45 28 -109.5 79.5t-109.5 96.5q-28 28 -28 78q0 31 14.5 71t36.5 66q19 22 37 23.5t43 -17.5q41 -29 161 -155t154 -173q13 -18 15.5 -29t-1.5 -16.5t-16 -15.5q-27 -20 -72 -31q-37 -9 -64 -4t-61 27z" />
    <glyph glyph-name="a" unicode="a" 
d="M604 317q-308 -54 -383 -75q-60 -112 -121 -234q-17 -31 -32.5 -36t-44.5 8q-62 25 -99 67q-22 25 -22.5 50.5t18.5 68.5q102 226 275 548t303 525q26 41 57.5 59t83.5 17q59 -1 132.5 -18.5t127.5 -39.5q35 -14 44 -37.5t3 -64.5q-59 -409 -110 -1130q-2 -35 -14 -47.5
t-46 -12.5q-72 0 -127 19q-30 10 -41.5 32.5t-11.5 69.5q0 55 8 231zM379 539q159 24 239 30q16 219 48 475q-135 -228 -287 -505z" />
    <glyph glyph-name="b" unicode="b" horiz-adv-x="948" 
d="M719 621q47 -30 74.5 -85t29.5 -116q1 -69 -25 -121t-83 -104q-74 -69 -197 -136t-225 -98q-55 -19 -84.5 -16t-65.5 32q-58 44 -125 117q-35 40 -41 67t7 87q13 58 32 127t47.5 161.5t45.5 146.5t55 171t47 147q-28 53 -43 93q-15 38 -9 60.5t38 39.5q78 42 181 72.5
t206 44t193 -4t132 -67.5q85 -106 95 -229q6 -76 -33.5 -148.5t-104.5 -130.5q-58 -52 -147 -110zM397 729q156 57 262.5 152t98.5 145q-3 23 -37 30.5t-95.5 -6.5t-131.5 -49q-52 -144 -97 -272zM311 475q-73 -233 -80 -256q145 45 238.5 114.5t87.5 125.5
q-2 22 -32.5 35.5t-88.5 10t-125 -29.5z" />
    <glyph glyph-name="c" unicode="c" horiz-adv-x="876" 
d="M682 352q44 -16 45.5 -51.5t-27.5 -85.5q-52 -104 -157 -197q-43 -37 -108.5 -56t-125.5 -13q-103 10 -200 67q-36 23 -68 60t-45 80q-43 138 0 349t153 415.5t250 324.5q100 83 207 72q65 -6 135 -35t109 -65q40 -37 53.5 -80t11.5 -103q-2 -62 -16.5 -138.5
t-34.5 -125.5q-5 -15 -9.5 -22.5t-13.5 -16t-20.5 -7.5t-32.5 3q-78 18 -111 59t-36 115q-1 22 5.5 70.5t3.5 76t-23 35.5q-28 12 -86 -59t-116 -177.5t-93 -201.5q-39 -103 -60 -204t-16.5 -174.5t39.5 -86.5q29 -10 70.5 18t105.5 99q43 47 98 61t113 -6z" />
    <glyph glyph-name="d" unicode="d" horiz-adv-x="1001" 
d="M205 1012q-42 86 -47 102q-16 36 -11 59t37 41q64 36 145 61t175.5 30.5t179.5 -14.5t158 -83.5t110 -165.5q29 -79 29 -175t-26.5 -198t-85 -206t-140 -196t-199.5 -172t-256 -132q-80 -30 -143 17q-65 53 -117 108q-18 19 -26.5 31.5t-15 32.5t-4 46.5t13.5 65.5
q94 347 223 748zM242 236q72 36 135 82t109.5 95t85 102.5t64 105t42.5 101t24 93t6.5 78.5t-8.5 59q-19 50 -71 70.5t-133 -4.5q-125 -339 -254 -782z" />
    <glyph glyph-name="e" unicode="e" horiz-adv-x="788" 
d="M209 1036q-31 53 -49 135q-6 30 1.5 41t33.5 17q102 30 273 51.5t318 26.5q64 3 80 -58q20 -61 25 -114q2 -34 -10 -48.5t-45 -17.5q-165 -18 -322 -43q-18 -49 -56.5 -152.5t-47.5 -128.5q77 12 157 15q35 2 54.5 -8.5t29.5 -38.5q24 -71 29 -119q4 -33 -6.5 -46.5
t-44.5 -21.5q-232 -45 -324 -69q-36 -99 -63 -187q133 25 245 33q68 6 86 -45q26 -70 31 -121q4 -34 -5.5 -47.5t-43.5 -21.5q-288 -67 -358 -86q-46 -12 -73.5 -7t-55.5 29q-45 38 -82 88q-41 56 -25 133q47 207 248 811z" />
    <glyph glyph-name="f" unicode="f" horiz-adv-x="778" 
d="M834 1069q-78 -10 -324 -45q-13 -34 -28.5 -77.5t-36 -102.5t-33.5 -96q97 12 151 14q65 3 84 -47q18 -45 29 -119q5 -34 -5.5 -48t-45.5 -20q-190 -35 -308 -65q-81 -248 -141 -447q-10 -33 -29 -42t-51 1q-80 22 -127 56q-26 19 -31.5 44.5t3.5 67.5q22 121 102.5 389
t163.5 508q-24 44 -47 131q-7 29 1 39.5t34 18.5q99 29 262.5 50.5t314.5 27.5q35 2 53 -9.5t33 -46.5q26 -63 29 -118q2 -34 -8.5 -47t-44.5 -17z" />
    <glyph glyph-name="g" unicode="g" horiz-adv-x="905" 
d="M872 764q-9 -29 -23.5 -39t-45.5 -6q-161 22 -158 178q0 16 2.5 44.5t3.5 48.5t0.5 41t-5 33t-13.5 15q-45 15 -138.5 -116t-168.5 -308q-65 -154 -80 -303t37 -178q42 -19 104.5 49.5t118.5 182.5q-78 -4 -117.5 34t-48.5 125q-3 26 8.5 37.5t40.5 18.5q117 30 250 47
q44 6 70.5 -2.5t46.5 -36.5q27 -41 47 -82q17 -38 16.5 -65t-18.5 -68q-58 -140 -133.5 -245.5t-157.5 -162.5q-104 -73 -225 -51q-104 17 -193 78q-34 25 -63.5 65.5t-40.5 85.5q-39 145 9 358.5t165.5 416t265.5 311.5q80 60 199 43q60 -8 121.5 -35.5t99.5 -65.5
q62 -62 65 -178q1 -54 -12 -136.5t-29 -133.5z" />
    <glyph glyph-name="h" unicode="h" horiz-adv-x="925" 
d="M1020 1133q-75 -206 -178 -527.5t-183 -597.5q-9 -34 -23 -42t-46 1q-78 22 -125 58q-26 20 -32 44t3 68q18 92 78 307q-107 -16 -219 -38q-62 -201 -117 -396q-9 -33 -24.5 -41.5t-47.5 0.5q-71 21 -126 60q-27 20 -33.5 44t2.5 68q24 112 80 320q-26 62 -31 92
q-5 29 1 40.5t32 18.5q7 2 21.5 6.5t21.5 6.5q127 444 190 616q14 38 35 47t53 -4q85 -30 146 -78q30 -24 35.5 -43.5t-7.5 -54.5q-63 -168 -145 -428q113 13 207 20q102 344 178 562q13 39 35 47.5t55 -4.5q76 -25 137 -74q28 -22 33.5 -42.5t-6.5 -55.5z" />
    <glyph glyph-name="i" unicode="i" horiz-adv-x="425" 
d="M479 1206q30 -24 35.5 -43.5t-6.5 -54.5q-67 -182 -174 -521t-174 -577q-9 -33 -24.5 -41.5t-47.5 0.5q-71 20 -127 60q-27 20 -33.5 44t2.5 68q36 173 141 540t173 560q13 36 35 45.5t55 -2.5q75 -23 145 -78z" />
    <glyph glyph-name="j" unicode="j" horiz-adv-x="856" 
d="M186 -27q-174 58 -206 238q-18 110 22 244q17 58 42.5 81t66.5 1q67 -34 100 -85.5t27 -113.5q-10 -82 -5 -119.5t35 -40.5q38 -4 93.5 111.5t111 295.5t100 348.5t78.5 317.5q9 36 32 46t56 -1q89 -25 150 -71q31 -24 36.5 -43.5t-3.5 -53.5q-107 -457 -215.5 -737
t-233.5 -375q-126 -95 -287 -43z" />
    <glyph glyph-name="k" unicode="k" horiz-adv-x="907" 
d="M514 498q94 -227 184 -387q15 -28 9.5 -46.5t-33.5 -35.5q-34 -19 -92 -35q-90 -23 -140 53q-103 162 -176 332q-59 -199 -108 -369q-9 -34 -23.5 -42t-46.5 1q-80 22 -129 60q-26 20 -32 44t3 68q38 178 145 555t175 564q13 36 34.5 45.5t53.5 -2.5q75 -23 145 -78
q31 -25 36.5 -43.5t-7.5 -53.5q-39 -102 -125 -368q350 371 475 524q23 28 42 28.5t42 -24.5q50 -53 68 -121q16 -57 -29 -129q-115 -184 -471 -540z" />
    <glyph glyph-name="l" unicode="l" horiz-adv-x="727" 
d="M530 70q-262 -61 -348 -86q-53 -14 -83.5 -10t-57.5 28q-47 41 -82 90q-21 31 -27 57.5t2 67.5q45 196 148 521t184 526q14 35 36 44t54 -3q90 -28 148 -74q29 -23 33.5 -43t-9.5 -55q-152 -398 -299 -859q111 22 234 31q35 3 54.5 -6t31.5 -39q26 -66 31 -121
q6 -35 -2 -47.5t-48 -21.5z" />
    <glyph glyph-name="m" unicode="m" horiz-adv-x="1269" 
d="M383 219q-5 109 -4 296t6 333q-170 -552 -242 -832q-10 -38 -28.5 -47.5t-53.5 2.5q-32 10 -84 41q-38 23 -46 55t6 95q39 187 140 523.5t175 545.5q13 35 31 49t47 14q39 0 100.5 -18.5t101.5 -38.5q47 -25 62.5 -49t15.5 -74l-2 -110l-2 -275v-127q70 143 182.5 339.5
t186.5 309.5q23 34 49.5 44.5t67.5 4.5q103 -18 215 -75q32 -17 39 -42.5t-7 -72.5q-30 -105 -158.5 -529t-166.5 -567q-15 -49 -49 -49q-42 0 -113 41q-40 24 -49.5 53.5t4.5 102.5q62 286 207 725q-237 -421 -412 -762q-14 -28 -25 -38.5t-28 -10.5q-38 0 -103 30
q-32 14 -46 38.5t-17 74.5z" />
    <glyph glyph-name="n" unicode="n" horiz-adv-x="972" 
d="M600 481q41 167 106 391t117 369q13 37 35 47t55 -2q45 -14 93 -43q35 -23 43.5 -46t-5.5 -73q-232 -740 -327 -1095q-16 -66 -94 -47q-57 15 -115 47q-53 29 -72 104q-52 229 -76 623q-112 -355 -221 -740q-9 -32 -26.5 -41.5t-51.5 0.5q-40 14 -88 43q-35 23 -43 47
t4 91q32 148 136.5 495.5t185.5 585.5q19 53 66 53q24 0 75.5 -17.5t96.5 -41.5q34 -18 46 -39t15 -64q25 -409 45 -647z" />
    <glyph glyph-name="o" unicode="o" horiz-adv-x="948" 
d="M848 1202q76 -76 82 -196q7 -144 -27 -318.5t-114.5 -350.5t-190.5 -284q-105 -103 -262 -84q-117 14 -197 70q-33 23 -62 62.5t-42 84.5q-24 92 -22.5 199t34 228.5t83 234.5t124 215.5t156.5 171.5q43 36 104.5 53.5t112.5 9.5q65 -9 125.5 -35t95.5 -61zM641 1067
q-46 14 -135 -116.5t-146 -282.5q-37 -97 -58 -201.5t-16.5 -185t40.5 -95.5q54 -23 131.5 91t140.5 301q33 97 54.5 205t20.5 191.5t-32 92.5z" />
    <glyph glyph-name="p" unicode="p" horiz-adv-x="966" 
d="M305 358q-77 -242 -108 -356q-11 -33 -25.5 -41.5t-46.5 0.5q-72 19 -123 57q-26 20 -32 45.5t3 67.5q45 216 240 842q-42 86 -47 102q-16 38 -10.5 60.5t37.5 40.5q78 44 179 78t204 51t193 0.5t134 -70.5q92 -115 109 -256q10 -80 -23 -148.5t-98 -138.5
q-90 -100 -255 -192.5t-331 -141.5zM401 651q175 64 281 174t94 179q-3 22 -39 29.5t-94.5 -3.5t-120.5 -39q-45 -120 -121 -340z" />
    <glyph glyph-name="q" unicode="q" horiz-adv-x="946" 
d="M760 66q18 -29 14.5 -46.5t-31.5 -37.5q-47 -32 -102 -45q-63 -14 -102 34q-4 5 -11 13t-10 12q-70 -37 -182 -27q-111 10 -197 70q-33 23 -62 62.5t-42 84.5q-24 92 -22.5 199t34 228.5t83 234.5t124 215.5t156.5 171.5q43 36 104.5 53.5t112.5 9.5q65 -9 125.5 -35
t95.5 -61q74 -74 80 -196q11 -187 -50.5 -422.5t-179.5 -409.5q28 -53 62 -108zM387 201q-22 35 -27 49q-11 24 -6 42.5t31 31.5q54 28 125 43q41 79 86 211q61 184 74.5 329t-29.5 160q-45 15 -129.5 -104t-151.5 -295q-37 -97 -58 -201.5t-16.5 -185t40.5 -95.5
q30 -12 61 15z" />
    <glyph glyph-name="r" unicode="r" horiz-adv-x="993" 
d="M303 389q-69 -207 -119 -377q-9 -32 -23 -40.5t-46 -0.5q-72 20 -111 47q-27 20 -33 45.5t2 67.5q49 237 242 842q-40 78 -49 102q-15 38 -9.5 60.5t36.5 40.5q78 44 179 78t203.5 50.5t193 0t134.5 -69.5q90 -108 109 -256q19 -153 -119 -287q-126 -123 -332 -225
q109 -183 252 -352q23 -29 20.5 -45.5t-26.5 -36.5q-17 -14 -32 -22.5t-23.5 -11t-32.5 -9.5q-78 -24 -144 39q-58 52 -135.5 155t-136.5 205zM522 997q-29 -72 -125 -338q86 33 163.5 83t125.5 99.5t74 93.5t20 69q-8 37 -83.5 37.5t-174.5 -44.5z" />
    <glyph glyph-name="s" unicode="s" horiz-adv-x="821" 
d="M-66 324q48 24 105 19.5t90 -32.5q90 -78 171 -104.5t118 8.5q10 8 10.5 19t-7 24.5t-20.5 29t-32 33t-39.5 35.5t-44 38.5t-45.5 40t-44.5 42t-39.5 41.5q-40 46 -61 102t-19 127.5t35 143.5q43 101 129.5 203.5t177.5 160.5q107 66 211 29q50 -19 99.5 -51.5
t78.5 -65.5q26 -29 38 -64.5t10.5 -64.5t-3.5 -59q-10 -70 -43.5 -172.5t-65.5 -165.5q-15 -29 -32 -36t-45 5q-161 70 -134 191q4 19 14 52.5t19 61t17.5 59t9 46t-5.5 22.5q-13 8 -47.5 -17t-72 -68t-68.5 -99t-35.5 -110t26.5 -101q23 -31 59 -65t68.5 -62t67 -58.5
t59.5 -60t41 -61.5t15 -68.5t-21 -74.5q-122 -236 -350 -236q-222 0 -381 227q-29 41 -38 68.5t-2.5 42t27.5 25.5z" />
    <glyph glyph-name="t" unicode="t" horiz-adv-x="907" 
d="M967 1081q-143 -13 -224 -22q-173 -498 -329 -1055q-9 -32 -23.5 -40t-46.5 1q-73 20 -127 60q-27 20 -33 46t4 68q31 153 103.5 410t142.5 467q-22 -4 -46 -8.5t-49 -9.5t-34 -7q-32 -7 -51.5 -0.5t-36.5 33.5q-40 66 -57 147q-6 29 3 41.5t36 18.5q139 31 338 53
t348 25q55 0 78 -33q39 -60 51 -135q5 -34 -3.5 -45.5t-43.5 -14.5z" />
    <glyph glyph-name="u" unicode="u" horiz-adv-x="923" 
d="M20 174q-19 56 -20.5 130.5t18.5 171.5t40.5 177t64 202t68.5 188t73 190q13 35 35 43.5t55 -4.5q78 -29 123 -74q59 -56 25 -137q-37 -95 -63 -164.5t-65.5 -179t-61 -189t-38.5 -159t-11 -126t34 -55.5q25 -9 54.5 16.5t60.5 82.5t61 124t63 162t59 174.5t56 183.5
t48 167.5t40 146.5q10 37 32.5 47t55.5 -2q74 -23 138 -73q29 -24 34 -43.5t-6 -53.5q-50 -187 -88.5 -318t-86.5 -270t-92 -231.5t-97.5 -168t-110.5 -114.5q-48 -33 -96.5 -43.5t-114.5 -7.5q-107 5 -192 70q-66 49 -95 137z" />
    <glyph glyph-name="v" unicode="v" horiz-adv-x="954" 
d="M1040 1104q-63 -171 -228.5 -518t-289.5 -580q-25 -47 -56.5 -56t-88.5 13q-83 32 -144 74q-76 51 -83 166q-7 129 -7 229q3 381 37 791q3 36 15 49.5t45 13.5q81 0 136.5 -31.5t55.5 -103.5q0 -90 -13 -385.5t-16 -448.5q69 149 220.5 485t210.5 464q24 54 96 26
q62 -25 102 -71q21 -25 22 -53.5t-14 -63.5z" />
    <glyph glyph-name="w" unicode="w" horiz-adv-x="1312" 
d="M889 4q-18 -40 -44.5 -48.5t-80.5 7.5q-106 31 -140 59t-34 97q0 103 45 538q-67 -127 -198.5 -385.5t-137.5 -269.5q-20 -38 -43 -45t-70 6q-57 14 -114 43q-45 23 -45 78q0 143 49.5 497t107.5 646q6 31 18 45t34 14q30 0 80.5 -17t80.5 -38q25 -17 32 -42t-1 -69
q-4 -22 -145 -731q102 212 221 449.5t155 298.5q20 32 40 38.5t61 -4.5q51 -13 96 -43q25 -18 32.5 -40t2.5 -60q-23 -206 -84 -661q87 223 217.5 509.5t181.5 378.5q21 36 40.5 43t58.5 -10q66 -29 106 -78q21 -30 19 -57.5t-23 -69.5q-332 -655 -518 -1079z" />
    <glyph glyph-name="x" unicode="x" horiz-adv-x="954" 
d="M303 666q-114 470 -119 497q-12 56 -12 70q0 28 24.5 37.5t92.5 9.5q53 0 82 -4.5t49.5 -21.5t30 -41t20.5 -72q12 -51 29.5 -128.5t23.5 -99.5q21 26 70.5 87t73.5 92q117 147 148 179t56 32q48 0 92 -62.5t44 -101.5q0 -37 -33 -78q-270 -324 -375 -453
q73 -301 139 -561q6 -24 6 -37q0 -27 -28 -35t-84 -8q-63 0 -94 10.5t-48 35.5t-36 83q-32 101 -74 271q-56 -72 -163 -212.5t-128 -168.5q-23 -29 -47 -29q-31 0 -70 45q-65 74 -65 107q0 31 26 69q96 153 369 488z" />
    <glyph glyph-name="y" unicode="y" horiz-adv-x="888" 
d="M967 1100q-87 -172 -457 -713q-58 -179 -121 -397q-9 -33 -24.5 -41t-47.5 2q-78 23 -124 61q-27 22 -33 46t4 69q26 118 94 365q-35 279 -106 741q-5 34 5 47.5t42 17.5q83 11 139 -2q32 -7 47.5 -27.5t24.5 -64.5q32 -164 65 -430q142 224 316 508q19 31 38 35.5
t48 -14.5q63 -40 94 -84q20 -29 18.5 -52.5t-22.5 -66.5z" />
    <glyph glyph-name="z" unicode="z" horiz-adv-x="768" 
d="M535 1026q-120 -21 -191 -35q-73 -14 -104 41q-39 81 -50 137q-6 30 1.5 42t33.5 20q107 27 265 46.5t290 22.5q34 1 51.5 -10.5t26.5 -40.5q20 -74 27 -114q7 -28 1 -58.5t-30 -60.5q-287 -352 -610 -776q130 31 205 41q76 10 96 -45q26 -73 31 -121q3 -34 -8.5 -48
t-45.5 -20q-288 -67 -374 -92q-46 -13 -73 -8.5t-54 28.5q-48 45 -89 99q-49 65 -12 125q82 132 264 377.5t349 449.5z" />
    <glyph glyph-name="braceleft" unicode="{" horiz-adv-x="694" 
d="M510 59q5 -32 -5.5 -45.5t-45.5 -19.5q-34 -6 -104.5 -20.5t-92.5 -18.5q-46 -7 -68 -1t-44 28q-43 43 -66 75q-22 30 -27 56t6 77q44 164 84 299q-15 1 -25 9.5t-22 29.5q-32 55 -49 140q-11 53 37 65q58 14 143 27q46 149 156 463q21 53 82 61q89 12 221 16
q61 3 82 -57q22 -65 27 -113q3 -32 -7 -44.5t-44 -16.5q-52 -7 -160 -18q-154 -424 -279 -840q50 6 88 8q65 6 84 -47q20 -52 29 -113z" />
    <glyph glyph-name="bar" unicode="|" horiz-adv-x="733" 
d="M643 1321q30 -23 35.5 -43t-8.5 -55q-69 -187 -210 -633t-202 -670q-9 -33 -23.5 -41.5t-46.5 0.5q-44 13 -102 49q-27 18 -33 43.5t4 69.5q37 175 172.5 645t204.5 660q24 67 88 40q82 -36 121 -65z" />
    <glyph glyph-name="braceright" unicode="}" horiz-adv-x="772" 
d="M670 1077q-37 -98 -119 -334q60 0 78 -57q10 -32 28 -125q6 -33 -5.5 -46.5t-45.5 -18.5q-61 -8 -143 -21q-80 -252 -127 -418q-13 -51 -86 -63q-39 -6 -187 -31q-36 -6 -56 3t-34 36q-29 55 -43 102q-19 58 39 74q76 21 164 35q131 440 273 842q-14 -1 -39 -4.5
t-29 -3.5q-37 -5 -54.5 4.5t-29.5 40.5q-30 98 -33 112q-11 54 55 66q114 22 240 28q35 2 54 -5.5t36 -30.5q42 -57 56 -82q15 -28 16.5 -50t-8.5 -53z" />
    <glyph glyph-name="asciitilde" unicode="~" horiz-adv-x="1024" 
d="M831 811q39 0 39 -106q0 -96 -45 -150.5t-139 -54.5q-64 0 -181.5 35.5t-168.5 35.5q-62 0 -113 -51q-14 -14 -28 -14q-43 0 -43 108q0 96 45.5 150.5t142.5 54.5q51 0 174 -35.5t178 -35.5q29 0 58 16t50.5 31.5t30.5 15.5z" />
    <glyph glyph-name="uni00A0" unicode="&#xa0;" horiz-adv-x="493" 
 />
    <glyph glyph-name="exclamdown" unicode="&#xa1;" horiz-adv-x="546" 
d="M-23 23q-28 24 -33 48.5t9 59.5q196 488 315 850q10 33 26 41t46 0q57 -13 119 -51q28 -19 34 -43t-6 -68q-79 -302 -278 -866q-13 -38 -33 -47.5t-57 2.5q-89 29 -142 74zM520 1380q59 -18 82.5 -74.5t-4.5 -129.5q-26 -64 -80 -94.5t-119 -6.5q-61 22 -80 76.5t3 110.5
q24 73 80 105t118 13z" />
    <glyph glyph-name="cent" unicode="&#xa2;" horiz-adv-x="755" 
d="M604 434q35 -11 35 -41q0 -21 -21 -61q-43 -76 -124 -148q-60 -52 -166 -55q-65 -204 -72 -221q-11 -31 -27.5 -35t-42.5 12q-61 37 -55 127q3 45 31 158q-82 37 -115 93.5t-33 150.5q0 165 91.5 372t226.5 320q58 47 145 51q61 157 86 205q31 58 80 16q31 -27 45 -63
q18 -42 0 -111q-10 -39 -31 -100q97 -60 97 -158q0 -95 -39 -198q-7 -19 -15 -27t-24 -8q-27 0 -64.5 17t-58.5 42q-23 29 -23 74q0 16 4.5 48.5t4.5 45.5q0 43 -25 43q-36 0 -106.5 -111t-108.5 -219q-49 -143 -49 -243q0 -50 13.5 -78.5t37.5 -28.5q40 0 119 90
q43 49 127 49q36 0 57 -8z" />
    <glyph glyph-name="sterling" unicode="&#xa3;" horiz-adv-x="929" 
d="M260 -18q-49 -12 -73 -8t-56 30q-48 39 -88 96q-32 49 -16 127q27 133 53 228q-31 25 -54.5 76.5t-23.5 86.5q0 22 11 34t38 18q7 2 96 16q74 226 164 389q67 118 140.5 173t160.5 55q55 0 128 -25t124 -72q94 -87 94 -225q0 -90 -30 -188q-20 -63 -48 -81t-69 3
q-119 58 -119 170q0 23 3 59t3 49q0 82 -39 82q-41 0 -103 -91.5t-126 -272.5q94 4 131 4q42 0 62 -11.5t34 -41.5q35 -72 35 -119q0 -19 -12.5 -26t-40.5 -9q-125 -6 -279 -29q-27 -105 -49 -211q141 34 320 51q50 4 70 -4.5t32 -38.5q33 -84 33 -137q0 -21 -11.5 -32
t-39.5 -17q-162 -33 -455 -108z" />
    <glyph glyph-name="yen" unicode="&#xa5;" horiz-adv-x="970" 
d="M389 -55q-26 0 -75.5 21t-80.5 46q-19 15 -26.5 29.5t-7.5 38.5q0 26 20 108q-14 -2 -39 -6t-39 -6q-45 -6 -73.5 1t-57.5 36t-43 61q-30 70 49 84q112 16 256 31q2 6 10 37t13 47q-19 -3 -61 -8t-62 -8q-45 -6 -73.5 2t-57.5 37q-28 28 -43 69q-11 32 3 51.5t65 26.5
q113 14 225 25q-15 83 -32.5 184.5t-37 212.5t-28.5 162q-8 46 14 61t106 15q66 0 96 -20t42 -79q40 -217 65 -420q127 191 315 498q19 32 41 34.5t50 -16.5q26 -15 52.5 -41.5t41.5 -52.5q17 -30 15 -52.5t-23 -53.5q-80 -127 -295 -412h65q90 0 117 -53q25 -52 25 -80
q0 -20 -17.5 -27.5t-60.5 -9.5q-83 -2 -246 -14q-15 -40 -33 -90q102 4 142 4q48 0 75 -10t41 -39q27 -52 27 -80q0 -21 -17.5 -29t-60.5 -10q-159 -11 -268 -23q-50 -159 -72 -237q-8 -26 -16 -35.5t-25 -9.5z" />
    <glyph glyph-name="brokenbar" unicode="&#xa6;" horiz-adv-x="733" 
d="M360 455q28 -21 33.5 -43.5t-6.5 -55.5q-61 -194 -129 -436q-10 -35 -31 -43t-57 4q-51 15 -86 47q-24 21 -29.5 48.5t2.5 64.5q36 174 111 428q12 39 34 46t64 -9q43 -16 94 -51zM643 1321v-2q33 -25 37.5 -44.5t-12.5 -70.5q-19 -59 -80 -232t-66 -188
q-13 -37 -36.5 -44.5t-53.5 5.5q-70 24 -113 70q-18 18 -21.5 41.5t7.5 75.5q24 105 129 411q14 40 35.5 48t67.5 -11q49 -19 106 -59z" />
    <glyph glyph-name="section" unicode="&#xa7;" horiz-adv-x="780" 
d="M227 623q0 -43 38.5 -79.5t111.5 -82.5q43 16 71.5 42t28.5 56q0 23 -27 45t-80.5 54t-84.5 57q-58 -42 -58 -92zM289 -41q-62 0 -123 20.5t-105.5 52t-79.5 67.5t-53 68.5t-18 53.5q0 24 32.5 42t67.5 18q55 0 99 -35q121 -92 194 -92q55 0 55 36q0 30 -26.5 58.5
t-66.5 50.5t-86 51.5t-86 60t-66.5 78t-26.5 103.5q0 70 52.5 138t137.5 104q-16 40 -16 86q0 74 50.5 162.5t131 151t156.5 62.5q107 0 198 -82t91 -165q0 -42 -10 -99t-33 -107t-51 -50q-21 0 -51 14t-57.5 48t-27.5 79q0 16 8.5 54t8.5 54q0 50 -37 50q-39 0 -84 -53
t-45 -111q0 -39 30 -73t72.5 -61t85.5 -55.5t73 -67.5t30 -85q0 -77 -56 -140t-139 -90q64 -61 64 -131q0 -42 -22.5 -88.5t-60 -86t-93.5 -65.5t-117 -26z" />
    <glyph glyph-name="dieresis" unicode="&#xa8;" horiz-adv-x="1024" 
d="M207 1532q0 67 41 115.5t104 48.5q61 0 93 -34t32 -83q0 -75 -41.5 -122.5t-109.5 -47.5q-50 0 -84.5 34.5t-34.5 88.5zM547 1542q0 64 41.5 114t103.5 50q56 0 89.5 -36.5t33.5 -94.5q0 -72 -39.5 -116t-97.5 -44q-56 0 -93.5 34.5t-37.5 92.5z" />
    <glyph glyph-name="copyright" unicode="&#xa9;" horiz-adv-x="1253" 
d="M559 123q195 0 299 203q21 40 21 61q0 42 -93 49q-76 5 -127 -49q-81 -90 -118 -90q-52 0 -52 106q0 99 50 244q38 108 108.5 219t106.5 111q24 0 24 -43q0 -13 -4 -45.5t-4 -48.5q0 -53 40.5 -93t104.5 -40q33 0 55.5 79t22.5 154q0 78 -76.5 144.5t-195.5 66.5
q-73 0 -145.5 -52t-128.5 -134.5t-100 -181.5t-67.5 -197.5t-23.5 -177.5q0 -74 20 -127q24 -61 113.5 -109.5t169.5 -48.5zM1223 797q0 -109 -27 -222t-82.5 -218.5t-132 -187.5t-184 -131.5t-230.5 -49.5q-245 0 -396 136t-151 361q0 109 29 221t87.5 214.5t138 183
t189 128.5t232.5 48q133 0 236.5 -39.5t165.5 -107.5t93.5 -153t31.5 -183z" />
    <glyph glyph-name="ordfeminine" unicode="&#xaa;" horiz-adv-x="606" 
d="M475 1112q0 26 -5 38.5t-21 12.5q-29 0 -70 -62.5t-68 -137.5q-35 -96 -35 -164q0 -54 29 -54q30 0 66.5 51t64.5 132q39 112 39 184zM537 1167q12 40 26 72q13 29 33 29q14 0 53 -23q49 -30 49 -51q0 -12 -8 -33q-41 -111 -93.5 -275.5t-78.5 -269.5q-6 -22 -20 -22
q-18 0 -64 20q-26 11 -34.5 22t-8.5 30q0 24 12 73q-55 -123 -120 -123q-33 0 -70 15q-58 24 -81 62.5t-23 115.5q0 72 24 157t74 170t115 134q45 35 94 35q48 0 85 -33t36 -105z" />
    <glyph glyph-name="guillemotleft" unicode="&#xab;" horiz-adv-x="927" 
d="M399 256q-37 -29 -63 10q-147 174 -256 279q-35 35 -37.5 67t25.5 68q63 84 158 173.5t171 123.5q47 20 88 4q37 -15 58 -39q30 -38 -11 -68q-158 -116 -268 -243q130 -119 176 -207q15 -30 16.5 -47.5t-10.5 -50.5q-14 -40 -47 -70zM758 246q-38 -29 -64 10
q-135 174 -243 287q-38 39 -42 69.5t23 65.5q57 76 165.5 169t188.5 128q47 20 88 4q37 -15 58 -39q33 -42 -10 -72q-186 -129 -287 -235q128 -135 170 -225q14 -31 15.5 -47.5t-11.5 -49.5q-16 -37 -51 -65z" />
    <glyph glyph-name="logicalnot" unicode="&#xac;" horiz-adv-x="1024" 
d="M713 625q-210 -3 -477 -39q-28 -4 -41 -4q-23 0 -43 20q-27 27 -46.5 70t-19.5 80q0 22 10 32t35 15q198 39 539 39q77 0 170 -7q35 -3 55 -26q49 -58 49 -143q0 -25 -14 -66q-44 -124 -101 -330q-6 -24 -14 -31.5t-24 -7.5q-35 0 -92.5 44.5t-57.5 80.5q0 75 72 273z
" />
    <glyph glyph-name="registered" unicode="&#xae;" horiz-adv-x="776" 
d="M610 563q-34 -9 -55.5 -3.5t-46.5 28.5q-61 55 -131 182q-23 -8 -55 -14q-9 -33 -26 -87.5t-22 -74.5q-12 -39 -59 -29q-44 8 -82 39q-24 20 -28.5 41t4.5 62q17 80 110 370q-23 46 -31 66q-13 33 -7.5 51t34.5 33q57 30 160 55t164 25q107 0 162 -70t55 -176
q0 -130 -193 -221q37 -59 121 -176q18 -27 16.5 -40.5t-20.5 -27.5q-34 -23 -70 -33zM518 1130q-37 0 -80 -14q-31 -91 -55 -170q91 32 141.5 75t50.5 77q0 32 -57 32z" />
    <glyph glyph-name="macron" unicode="&#xaf;" horiz-adv-x="1024" 
d="M266 1626q74 13 194.5 23t196.5 10q85 0 117 -43q21 -27 34 -62.5t13 -62.5q0 -21 -15 -28t-52 -9q-154 -7 -365 -41q-75 -13 -113 23q-30 28 -50.5 67.5t-20.5 69.5q0 23 14 35t47 18z" />
    <glyph glyph-name="degree" unicode="&#xb0;" horiz-adv-x="739" 
d="M172 981q0 69 41 141t114.5 122t155.5 50q52 0 101.5 -13.5t92.5 -40.5t69 -74t26 -107q0 -82 -24.5 -145.5t-66.5 -101t-91.5 -56.5t-104.5 -19q-62 0 -116 14t-99 42t-71.5 76t-26.5 112zM565 1077q0 68 -49 68q-56 0 -94.5 -66.5t-38.5 -138.5q0 -61 55 -61
q38 0 68.5 35.5t44.5 80t14 82.5z" />
    <glyph glyph-name="plusminus" unicode="&#xb1;" horiz-adv-x="1024" 
d="M471 395q-36 0 -96 40t-60 75q0 18 25 106q-63 -8 -119 -18q-24 -4 -37 -4q-23 0 -43 20q-27 27 -47 72t-20 82q0 22 10 32t35 15q99 20 295 41q58 163 75 201q24 49 54 49q47 0 119 -53q36 -27 36 -56q0 -18 -10 -45q-3 -8 -13.5 -37t-15.5 -43q85 0 162 -6
q36 -3 56 -26q25 -29 39 -71t14 -77q0 -17 -9.5 -23.5t-33.5 -6.5q-124 0 -309 -19q-17 -49 -68 -209q-6 -21 -15 -30t-24 -9zM788 129q-268 0 -565 -57q-24 -4 -37 -4q-23 0 -43 20q-27 27 -47 71t-20 81q0 21 10.5 31.5t34.5 15.5q92 19 241 34t250 15q53 0 111 -4
q34 -3 55 -27q25 -29 39 -70t14 -75q0 -17 -10 -24t-33 -7z" />
    <glyph glyph-name="twosuperior" unicode="&#xb2;" horiz-adv-x="604" 
d="M270 774q111 19 125 19q27 0 43 -27q29 -72 29 -84q0 -13 -21 -16q-66 -5 -237 -37q-15 -3 -37 -9t-31 -6q-20 0 -30 17q-58 74 -58 106q0 15 19 31q362 302 362 383q0 14 -14 14q-18 0 -38.5 -12t-32 -23.5t-34.5 -35.5q-26 -29 -57 -29q-26 0 -54 17t-28 36q0 12 8 25
q40 67 104.5 112t121.5 45q88 0 147 -69q35 -41 35 -88q0 -68 -83 -165.5t-239 -203.5z" />
    <glyph glyph-name="threesuperior" unicode="&#xb3;" horiz-adv-x="612" 
d="M428 958q57 -17 84 -55t27 -80q0 -70 -60 -137q-70 -76 -188 -76q-123 0 -203 90q-22 25 -22 43q0 17 18.5 27t40.5 10q30 0 51 -14q48 -29 78 -29q45 0 72 31q32 35 32 82t-47 47q-5 0 -18 -2t-21 -2q-26 0 -52.5 26.5t-26.5 63.5q0 20 20 25q107 26 160 66t53 69
q0 16 -16 16q-24 0 -72 -31q-22 -14 -47 -14q-26 0 -52 17t-26 40q0 10 10 23q35 47 98 78t121 31q46 0 72.5 -13t48.5 -45q33 -52 33 -102q0 -60 -61 -115q-48 -44 -107 -70z" />
    <glyph glyph-name="acute" unicode="&#xb4;" horiz-adv-x="1024" 
d="M444 1413q-74 -15 -120 10q-35 20 -61.5 50t-26.5 49q0 13 7 20t29 14q197 66 430 183q28 13 42.5 8.5t25.5 -27.5q21 -44 21 -102q0 -52 -43 -82q-57 -39 -143.5 -73.5t-160.5 -49.5z" />
    <glyph glyph-name="paragraph" unicode="&#xb6;" horiz-adv-x="1247" 
d="M897 -20q-40 0 -111 49q-34 23 -34 63q0 106 233 881q-86 -25 -119 -37q-187 -584 -276 -909q-11 -47 -41 -47q-16 0 -50 15.5t-63 35.5q-33 21 -33 61t64 291q-47 -8 -105 -8q-148 0 -208 74q-41 53 -66 121.5t-25 136.5q0 175 175 301q153 110 401 190.5t481 89.5
q78 3 108 -4.5t54 -34.5q30 -33 48 -80t18 -88q0 -46 -45 -51q-40 -4 -60 -8q-199 -602 -305 -995q-11 -47 -41 -47z" />
    <glyph glyph-name="periodcentered" unicode="&#xb7;" horiz-adv-x="552" 
d="M209 453q-59 18 -82.5 74.5t4.5 129.5q26 63 80 93t119 6q61 -22 80.5 -75.5t-2.5 -109.5q-24 -73 -80.5 -105t-118.5 -13z" />
    <glyph glyph-name="cedilla" unicode="&#xb8;" horiz-adv-x="1024" 
d="M498 -414q-52 0 -103 35.5t-51 79.5q0 14 18.5 21.5t40.5 7.5q25 0 55 -21.5t40 -21.5q22 0 40.5 32t18.5 66q0 29 -33 29q-5 0 -19.5 -3.5t-19.5 -3.5q-7 0 -24 7q-25 13 -37 22q-23 21 -8 58q28 64 104 155q11 13 21 15.5t34 -5.5q33 -12 54 -30q14 -11 15.5 -18.5
t-11.5 -26.5q-57 -74 -62 -80q109 -14 109 -117q0 -76 -49 -138.5t-133 -62.5z" />
    <glyph glyph-name="onesuperior" unicode="&#xb9;" horiz-adv-x="432" 
d="M430 1192q-40 -99 -94 -270.5t-82 -284.5q-6 -25 -21 -25q-23 0 -81 23q-48 23 -48 53q0 35 38 174.5t83 267.5q-28 19 -28 31t8 25q21 38 63 92q17 20 35 20q36 0 84 -28q17 -10 33 -26t16 -27q0 -10 -6 -25z" />
    <glyph glyph-name="ordmasculine" unicode="&#xba;" horiz-adv-x="552" 
d="M580 1245q45 -43 45 -127q0 -52 -12.5 -118t-39 -135.5t-62 -127.5t-87.5 -95.5t-111 -37.5q-53 0 -100 19q-59 24 -87 66.5t-28 117.5q0 112 62.5 244.5t165.5 210.5q48 34 106 34q39 0 81.5 -15t66.5 -36zM465 1116q0 49 -23 49q-24 0 -67 -64.5t-68 -135.5
q-37 -98 -37 -181q0 -59 27 -59q29 0 64 55.5t65 143.5q39 119 39 192z" />
    <glyph glyph-name="guillemotright" unicode="&#xbb;" horiz-adv-x="964" 
d="M113 274q-42 -36 -66 -2q-17 24 -27 54q-9 29 -6 48t23 48q72 97 282 237q-79 113 -198 213q-20 17 -22 31t12 31q30 33 69 49q42 16 82 -6q60 -34 137 -121t113 -151q27 -47 21 -81t-48 -63q-192 -133 -372 -287zM494 260q-39 -36 -66 -6q-21 24 -31 55q-18 52 25 103
q79 94 274 233q-77 115 -200 219q-20 16 -22.5 29.5t13.5 34.5q23 26 62 45q26 12 46 10.5t46 -16.5q59 -35 131.5 -122.5t108.5 -154.5q50 -89 -31 -145q-38 -27 -73 -53.5t-79 -62t-62.5 -50.5t-75 -63t-66.5 -56z" />
    <glyph glyph-name="onequarter" unicode="&#xbc;" horiz-adv-x="1107" 
d="M430 1192q-40 -99 -94 -270.5t-82 -284.5q-6 -25 -21 -25q-23 0 -81 23q-48 23 -48 53q0 35 38 174.5t83 267.5q-28 19 -28 31t8 25q21 38 63 92q17 20 35 20q36 0 84 -28q17 -10 33 -26t16 -27q0 -10 -6 -25zM969 319q25 -3 35 -28q12 -27 12 -58q0 -14 -8 -18t-45 -8
l-33 -4q-24 -69 -62 -195q-6 -22 -20 -22q-13 0 -50 10.5t-55 23.5q-16 11 -16 31q0 12 37 142l-45 -7q-90 -12 -129 -12q-17 0 -33 19q-53 68 -53 92q0 17 14 37q48 70 141 171.5t158 157.5q22 19 43 19q22 0 88.5 -25.5t91.5 -46.5q17 -14 17 -27q0 -9 -6 -24
q-31 -77 -82 -228zM678 301q61 8 127 14q30 98 67 197q-92 -85 -194 -211zM707 1016q151 180 180.5 212t46.5 32q24 0 45.5 -42.5t21.5 -78.5q0 -53 -40 -99q-153 -173 -429 -516.5t-393 -509.5q-18 -24 -30 -24q-21 0 -46.5 39.5t-25.5 72.5q0 45 39 101q87 128 275.5 371
t355.5 442z" />
    <glyph glyph-name="onehalf" unicode="&#xbd;" horiz-adv-x="1091" 
d="M711 133q111 19 125 19q27 0 43 -27q28 -70 28 -84q0 -8 -4 -11.5t-16 -4.5q-67 -5 -238 -37q-15 -3 -36.5 -9t-30.5 -6q-21 0 -31 17q-57 73 -57 106q0 16 18 31q362 302 362 383q0 14 -14 14q-18 0 -38.5 -12.5t-31 -23t-34.5 -35.5q-26 -29 -58 -29q-26 0 -54 17
t-28 36q0 10 9 25q40 68 104 112.5t121 44.5q88 0 147 -69q35 -41 35 -88q0 -68 -83 -165.5t-238 -203.5zM702 1016q148 178 179.5 211t48.5 33q24 0 45.5 -42.5t21.5 -78.5q0 -52 -41 -99q-152 -172 -427.5 -515.5t-393.5 -510.5q-18 -24 -31 -24q-20 0 -45.5 39.5
t-25.5 72.5q0 45 39 101q88 129 276.5 372t353.5 441zM430 1192q-40 -99 -94 -270.5t-82 -284.5q-6 -25 -21 -25q-23 0 -81 23q-48 23 -48 53q0 35 38 174.5t83 267.5q-28 19 -28 31t8 25q21 38 63 92q17 20 35 20q36 0 84 -28q17 -10 33 -26t16 -27q0 -10 -6 -25z" />
    <glyph glyph-name="threequarters" unicode="&#xbe;" horiz-adv-x="1185" 
d="M750 301q61 8 127 14q30 98 67 197q-92 -85 -194 -211zM1040 319q25 -3 35 -28q12 -27 12 -58q0 -14 -8 -18t-45 -8l-33 -4q-16 -47 -61 -195q-6 -22 -20 -22q-13 0 -50 10.5t-55 23.5q-16 11 -16 31q0 12 37 142l-45 -7q-90 -12 -129 -12q-17 0 -33 19q-54 69 -54 92
q0 16 15 37q48 70 141 171.5t158 157.5q22 19 43 19q22 0 88.5 -25.5t91.5 -46.5q16 -13 16 -27q0 -9 -6 -24q-31 -77 -82 -228zM408 958q57 -17 83.5 -55t26.5 -80q0 -71 -59 -137q-70 -76 -189 -76q-122 0 -202 90q-23 26 -23 43t18.5 27t40.5 10q31 0 52 -14
q48 -29 77 -29q45 0 72 31q33 36 33 82q0 47 -47 47q-5 0 -18 -2t-21 -2q-26 0 -53 26.5t-27 63.5q0 20 21 25q107 26 160 66t53 69q0 16 -17 16q-24 0 -72 -31q-22 -14 -47 -14q-26 0 -51.5 17t-25.5 40q0 10 10 23q35 47 98 78t121 31q46 0 72.5 -13t48.5 -45
q32 -50 32 -102q0 -60 -61 -115q-49 -45 -106 -70zM815 1016q151 180 180.5 212t46.5 32q24 0 46 -42.5t22 -78.5q0 -52 -41 -99q-152 -172 -427.5 -515.5t-393.5 -510.5q-18 -24 -31 -24q-21 0 -46.5 39.5t-25.5 72.5q0 45 39 101q87 128 275.5 371t355.5 442z" />
    <glyph glyph-name="questiondown" unicode="&#xbf;" horiz-adv-x="897" 
d="M678 942q25 -18 30.5 -42.5t-3.5 -63.5q-12 -57 -39.5 -110.5t-56.5 -89.5t-75 -75.5t-72.5 -58.5t-70.5 -48l-18 -12q-91 -61 -134.5 -118t-43.5 -101q0 -25 15 -38t36 -13q21 1 43.5 9t50 26.5t45.5 32t53.5 43t50.5 41.5q51 40 116 45.5t122 -25.5q22 -11 29.5 -25
t-1.5 -42t-42 -70q-75 -99 -167.5 -165.5t-183.5 -86.5q-108 -23 -191.5 19t-127.5 114q-40 65 -53.5 129.5t-1.5 120t35.5 100t58.5 84.5q28 32 70 63.5t80 54.5t80.5 54.5t76.5 64.5t63.5 84t45.5 113q7 30 21 38.5t44 0.5q63 -17 115 -53zM823 1169q-14 -69 -73 -105.5
t-138 -8.5q-37 13 -59 36.5t-27 51t-3.5 51.5t9.5 47q18 54 66.5 84t112.5 21q60 -8 94.5 -56.5t17.5 -120.5z" />
    <glyph glyph-name="Agrave" unicode="&#xc0;" 
d="M604 317q-308 -54 -383 -75q-60 -112 -121 -234q-17 -31 -32.5 -36t-44.5 8q-62 25 -99 67q-22 25 -22.5 50.5t18.5 68.5q102 226 275 548t303 525q26 41 57.5 59t83.5 17q59 -1 132.5 -18.5t127.5 -39.5q35 -14 44 -37.5t3 -64.5q-59 -409 -110 -1130q-2 -35 -14 -47.5
t-46 -12.5q-72 0 -127 19q-30 10 -41.5 32.5t-11.5 69.5q0 55 8 231zM379 539q159 24 239 30q16 219 48 475q-135 -228 -287 -505zM778 1409q-45 28 -109.5 79.5t-109.5 96.5q-29 29 -29 78q0 31 15 71t37 66q19 22 37 23.5t43 -17.5q41 -30 161 -155t154 -172
q18 -29 16.5 -38.5t-18.5 -23.5q-27 -20 -72 -31q-37 -9 -64 -4t-61 27z" />
    <glyph glyph-name="Aacute" unicode="&#xc1;" 
d="M604 317q-308 -54 -383 -75q-60 -112 -121 -234q-17 -31 -32.5 -36t-44.5 8q-62 25 -99 67q-22 25 -22.5 50.5t18.5 68.5q102 226 275 548t303 525q26 41 57.5 59t83.5 17q59 -1 132.5 -18.5t127.5 -39.5q35 -14 44 -37.5t3 -64.5q-59 -409 -110 -1130q-2 -35 -14 -47.5
t-46 -12.5q-72 0 -127 19q-30 10 -41.5 32.5t-11.5 69.5q0 55 8 231zM379 539q159 24 239 30q16 219 48 475q-135 -228 -287 -505zM813 1423q-74 -15 -121 11q-35 20 -61.5 49.5t-26.5 48.5q0 13 7.5 20.5t29.5 14.5q203 68 430 182q28 13 42.5 8.5t25.5 -26.5
q20 -42 20 -103q0 -52 -43 -82q-57 -39 -143 -73.5t-160 -49.5z" />
    <glyph glyph-name="Acircumflex" unicode="&#xc2;" 
d="M604 317q-308 -54 -383 -75q-60 -112 -121 -234q-17 -31 -32.5 -36t-44.5 8q-62 25 -99 67q-22 25 -22.5 50.5t18.5 68.5q102 226 275 548t303 525q26 41 57.5 59t83.5 17q59 -1 132.5 -18.5t127.5 -39.5q35 -14 44 -37.5t3 -64.5q-59 -409 -110 -1130q-2 -35 -14 -47.5
t-46 -12.5q-72 0 -127 19q-30 10 -41.5 32.5t-11.5 69.5q0 55 8 231zM379 539q159 24 239 30q16 219 48 475q-135 -228 -287 -505zM1040 1399q-41 -6 -77 16q-57 37 -134 135q-107 -68 -186 -98q-42 -15 -78 -2q-38 15 -69 43q-31 31 12 68q47 40 152.5 111.5t166.5 99.5
q39 18 62 12.5t47 -35.5q32 -40 92 -124t92 -136q16 -27 13.5 -39t-21.5 -23q-33 -22 -72 -28z" />
    <glyph glyph-name="Atilde" unicode="&#xc3;" 
d="M604 317q-308 -54 -383 -75q-60 -112 -121 -234q-17 -31 -32.5 -36t-44.5 8q-62 25 -99 67q-22 25 -22.5 50.5t18.5 68.5q102 226 275 548t303 525q26 41 57.5 59t83.5 17q59 -1 132.5 -18.5t127.5 -39.5q35 -14 44 -37.5t3 -64.5q-59 -409 -110 -1130q-2 -35 -14 -47.5
t-46 -12.5q-72 0 -127 19q-30 10 -41.5 32.5t-11.5 69.5q0 55 8 231zM379 539q159 24 239 30q16 219 48 475q-135 -228 -287 -505zM1112 1589q0 -85 -42.5 -133.5t-127.5 -48.5q-59 0 -148.5 35t-140.5 35q-35 0 -74.5 -32t-52.5 -32q-39 0 -39 94q0 87 42 137t128 50
q51 0 145 -35t146 -35q35 0 73.5 31t51.5 31q18 0 28.5 -26.5t10.5 -70.5z" />
    <glyph glyph-name="Adieresis" unicode="&#xc4;" 
d="M604 317q-308 -54 -383 -75q-60 -112 -121 -234q-17 -31 -32.5 -36t-44.5 8q-62 25 -99 67q-22 25 -22.5 50.5t18.5 68.5q102 226 275 548t303 525q26 41 57.5 59t83.5 17q59 -1 132.5 -18.5t127.5 -39.5q35 -14 44 -37.5t3 -64.5q-59 -409 -110 -1130q-2 -35 -14 -47.5
t-46 -12.5q-72 0 -127 19q-30 10 -41.5 32.5t-11.5 69.5q0 55 8 231zM379 539q159 24 239 30q16 219 48 475q-135 -228 -287 -505zM506 1542q0 67 41 115.5t104 48.5q61 0 93 -34t32 -83q0 -75 -41.5 -122.5t-109.5 -47.5q-51 0 -85 34.5t-34 88.5zM846 1552q0 64 41.5 114
t103.5 50q56 0 89.5 -36.5t33.5 -94.5q0 -72 -39.5 -116t-97.5 -44q-56 0 -93.5 34.5t-37.5 92.5z" />
    <glyph glyph-name="Aring" unicode="&#xc5;" 
d="M776 -35q-78 0 -127 19q-31 12 -42 34t-11 68q0 55 8 231q-308 -54 -383 -75q-60 -112 -121 -234q-17 -32 -32.5 -37t-44.5 9q-73 37 -99 67q-22 25 -22.5 50.5t18.5 68.5q91 204 258 501t322 550q18 30 45 51q-39 51 -39 125q0 113 83.5 207t207.5 94q132 0 210 -63
t78 -161q0 -100 -42 -171.5t-113 -104.5q3 -18 0 -39q-30 -238 -94 -1130q-2 -35 -14 -47.5t-46 -12.5zM889 1491q0 33 -14.5 50.5t-34.5 17.5q-34 0 -61.5 -26t-42 -62.5t-22 -67.5t-7.5 -49q0 -62 55 -62q38 0 68.5 36t44.5 80.5t14 82.5zM379 539q159 24 239 30
q16 219 48 475q-135 -228 -287 -505z" />
    <glyph glyph-name="AE" unicode="&#xc6;" horiz-adv-x="1310" 
d="M442 600l7 2q89 21 174 39q74 237 125 387q-6 -6 -48 -63t-114 -158.5t-144 -206.5zM53 8q-19 -31 -36.5 -36t-51.5 12q-54 26 -90 65q-27 28 -27 55.5t27 73.5q121 219 342.5 545.5t366.5 503.5q44 54 86.5 69t117.5 -2q24 -5 97 -30q108 17 234.5 29t189.5 12
q33 0 50.5 -12.5t29.5 -45.5q24 -67 24 -129q0 -26 -11.5 -37t-43.5 -14q-111 -11 -324 -39q-19 -56 -56 -168t-50 -151q74 14 137 18q53 2 72.5 -6.5t31.5 -40.5q25 -70 25 -117q0 -24 -10.5 -34.5t-42.5 -14.5q-146 -19 -295 -49q-8 -24 -30 -94t-32 -101q148 31 242 31
q28 0 44 -9.5t26 -35.5q32 -87 32 -141q0 -21 -11.5 -32t-39.5 -17q-214 -49 -338 -84q-44 -14 -74.5 -10t-56.5 30q-39 39 -80 90q-43 53 -24 133q24 103 51 189q-21 -4 -281 -60q-152 -230 -221 -346z" />
    <glyph glyph-name="Ccedilla" unicode="&#xc7;" horiz-adv-x="876" 
d="M143 -434q-52 0 -102.5 35.5t-50.5 79.5q0 14 18.5 21t40.5 7q26 0 56.5 -21.5t37.5 -21.5q23 0 41.5 32t18.5 66q0 29 -33 29q-5 0 -19.5 -3t-19.5 -3q-16 0 -47 17.5t-31 41.5q0 19 27.5 65t60.5 87q-12 6 -32 18q-36 23 -68 60t-45 80q-43 138 0 349t153 415.5
t250 324.5q100 83 207 72q65 -6 135 -35t109 -65q40 -37 53.5 -80t11.5 -103q-2 -62 -16.5 -138.5t-34.5 -125.5q-5 -15 -9.5 -22.5t-13.5 -16t-20.5 -7.5t-32.5 3q-78 18 -111 59t-36 115q-1 22 5.5 70.5t3.5 76t-23 35.5q-28 12 -86 -59t-116 -177.5t-93 -201.5
q-39 -103 -60 -204t-16.5 -174.5t39.5 -86.5q29 -10 70.5 18t105.5 99q43 47 98 61t113 -6q44 -16 45.5 -51.5t-27.5 -85.5q-52 -104 -157 -197q-38 -32 -94 -51.5t-111 -19.5q-30 0 -66 8q-30 -37 -57 -72q111 -11 111 -116q0 -76 -49.5 -138.5t-133.5 -62.5z" />
    <glyph glyph-name="Egrave" unicode="&#xc8;" horiz-adv-x="788" 
d="M209 1036q-31 53 -49 135q-6 30 1.5 41t33.5 17q102 30 273 51.5t318 26.5q64 3 80 -58q20 -61 25 -114q2 -34 -10 -48.5t-45 -17.5q-165 -18 -322 -43q-18 -49 -56.5 -152.5t-47.5 -128.5q77 12 157 15q35 2 54.5 -8.5t29.5 -38.5q24 -71 29 -119q4 -33 -6.5 -46.5
t-44.5 -21.5q-232 -45 -324 -69q-36 -99 -63 -187q133 25 245 33q68 6 86 -45q26 -70 31 -121q4 -34 -5.5 -47.5t-43.5 -21.5q-288 -67 -358 -86q-46 -12 -73.5 -7t-55.5 29q-45 38 -82 88q-41 56 -25 133q47 207 248 811zM545 1436q-45 28 -109.5 79.5t-109.5 96.5
q-29 29 -29 78q0 31 14.5 71t36.5 66q19 22 37 23.5t43 -17.5q41 -29 161 -155t154 -173q13 -18 15.5 -29t-1.5 -16.5t-16 -15.5q-27 -21 -71 -31q-37 -9 -64 -4t-61 27z" />
    <glyph glyph-name="Eacute" unicode="&#xc9;" horiz-adv-x="788" 
d="M209 1036q-31 53 -49 135q-6 30 1.5 41t33.5 17q102 30 273 51.5t318 26.5q64 3 80 -58q20 -61 25 -114q2 -34 -10 -48.5t-45 -17.5q-165 -18 -322 -43q-18 -49 -56.5 -152.5t-47.5 -128.5q77 12 157 15q35 2 54.5 -8.5t29.5 -38.5q24 -71 29 -119q4 -33 -6.5 -46.5
t-44.5 -21.5q-232 -45 -324 -69q-36 -99 -63 -187q133 25 245 33q68 6 86 -45q26 -70 31 -121q4 -34 -5.5 -47.5t-43.5 -21.5q-288 -67 -358 -86q-46 -12 -73.5 -7t-55.5 29q-45 38 -82 88q-41 56 -25 133q47 207 248 811zM621 1413q-75 -15 -121 10q-35 20 -61.5 50
t-26.5 49q0 13 7.5 20t29.5 14q197 66 430 183q28 13 42 8.5t25 -27.5q21 -44 21 -102q0 -52 -43 -82q-57 -39 -143 -73.5t-160 -49.5z" />
    <glyph glyph-name="Ecircumflex" unicode="&#xca;" horiz-adv-x="788" 
d="M209 1036q-31 53 -49 135q-6 30 1.5 41t33.5 17q102 30 273 51.5t318 26.5q64 3 80 -58q20 -61 25 -114q2 -34 -10 -48.5t-45 -17.5q-165 -18 -322 -43q-18 -49 -56.5 -152.5t-47.5 -128.5q77 12 157 15q35 2 54.5 -8.5t29.5 -38.5q24 -71 29 -119q4 -33 -6.5 -46.5
t-44.5 -21.5q-232 -45 -324 -69q-36 -99 -63 -187q133 25 245 33q68 6 86 -45q26 -70 31 -121q4 -34 -5.5 -47.5t-43.5 -21.5q-288 -67 -358 -86q-46 -12 -73.5 -7t-55.5 29q-45 38 -82 88q-41 56 -25 133q47 207 248 811zM827 1389q-41 -6 -77 16q-57 37 -134 135
q-107 -68 -186 -98q-42 -15 -78 -2q-38 15 -69 43q-30 30 12 67q47 40 152.5 111.5t166.5 99.5q39 18 62 13t47 -35q32 -40 92 -124t92 -136q16 -27 13.5 -39t-21.5 -23q-33 -22 -72 -28z" />
    <glyph glyph-name="Edieresis" unicode="&#xcb;" horiz-adv-x="788" 
d="M209 1036q-31 53 -49 135q-6 30 1.5 41t33.5 17q102 30 273 51.5t318 26.5q64 3 80 -58q20 -61 25 -114q2 -34 -10 -48.5t-45 -17.5q-165 -18 -322 -43q-18 -49 -56.5 -152.5t-47.5 -128.5q77 12 157 15q35 2 54.5 -8.5t29.5 -38.5q24 -71 29 -119q4 -33 -6.5 -46.5
t-44.5 -21.5q-232 -45 -324 -69q-36 -99 -63 -187q133 25 245 33q68 6 86 -45q26 -70 31 -121q4 -34 -5.5 -47.5t-43.5 -21.5q-288 -67 -358 -86q-46 -12 -73.5 -7t-55.5 29q-45 38 -82 88q-41 56 -25 133q47 207 248 811zM354 1532q0 66 41.5 115t104.5 49q61 0 93 -34
t32 -83q0 -74 -42 -122t-110 -48q-51 0 -85 34.5t-34 88.5zM694 1542q0 64 42 114t104 50q56 0 89.5 -36.5t33.5 -94.5q0 -72 -39.5 -116t-98.5 -44q-56 0 -93.5 34.5t-37.5 92.5z" />
    <glyph glyph-name="Igrave" unicode="&#xcc;" horiz-adv-x="425" 
d="M422 1417q-184 152 -184 230q0 50 38.5 109t71.5 59q20 0 49 -33q59 -65 128.5 -165t101.5 -161q12 -23 9.5 -34.5t-20.5 -22.5q-41 -23 -100 -23q-45 0 -94 41zM479 1206q30 -24 35.5 -43.5t-6.5 -54.5q-67 -182 -174 -521t-174 -577q-9 -33 -24.5 -41.5t-47.5 0.5
q-71 20 -127 60q-27 20 -33.5 44t2.5 68q36 173 141 540t173 560q13 36 35 45.5t55 -2.5q75 -23 145 -78z" />
    <glyph glyph-name="Iacute" unicode="&#xcd;" horiz-adv-x="425" 
d="M459 1409q-53 -9 -94 8q-42 18 -72.5 50.5t-30.5 54.5q0 13 7.5 20t29.5 14q205 68 379 156q27 14 40 12.5t25 -24.5q21 -44 21 -109q0 -39 -35 -71q-40 -37 -111 -66.5t-159 -44.5zM479 1206q30 -24 35.5 -43.5t-6.5 -54.5q-67 -182 -174 -521t-174 -577
q-9 -33 -24.5 -41.5t-47.5 0.5q-71 20 -127 60q-27 20 -33.5 44t2.5 68q36 173 141 540t173 560q13 36 35 45.5t55 -2.5q75 -23 145 -78z" />
    <glyph glyph-name="Icircumflex" unicode="&#xce;" horiz-adv-x="425" 
d="M666 1380q-31 -8 -55.5 -2t-49.5 31q-38 38 -90 115q-83 -65 -131 -92q-46 -26 -96 -13q-43 13 -68 35q-30 27 10 72q39 44 125 117t148 110q40 26 73 20t60 -49q26 -41 75 -136t72 -144q7 -17 5.5 -25t-15.5 -16q-30 -15 -63 -23zM479 1206q30 -24 35.5 -43.5
t-6.5 -54.5q-67 -182 -174 -521t-174 -577q-9 -33 -24.5 -41.5t-47.5 0.5q-71 20 -127 60q-27 20 -33.5 44t2.5 68q36 173 141 540t173 560q13 36 35 45.5t55 -2.5q75 -23 145 -78z" />
    <glyph glyph-name="Idieresis" unicode="&#xcf;" horiz-adv-x="425" 
d="M209 1532q0 62 39.5 113t101.5 51q56 0 84.5 -32t28.5 -85q0 -76 -39 -123t-102 -47q-51 0 -82 33t-31 90zM512 1542q0 65 37.5 114.5t97.5 49.5q57 0 86 -36t29 -95q0 -67 -37 -113.5t-96 -46.5q-51 0 -84 35t-33 92zM479 1206q30 -24 35.5 -43.5t-6.5 -54.5
q-67 -182 -174 -521t-174 -577q-9 -33 -24.5 -41.5t-47.5 0.5q-71 20 -127 60q-27 20 -33.5 44t2.5 68q36 173 141 540t173 560q13 36 35 45.5t55 -2.5q75 -23 145 -78z" />
    <glyph glyph-name="Eth" unicode="&#xd0;" horiz-adv-x="1050" 
d="M543 594q-62 -8 -152 -23q-45 -139 -100 -335q121 60 215.5 148.5t147.5 179.5t79.5 173t26.5 148q0 65 -34 106t-103 41q-37 0 -78 -14l-78 -217q33 0 58 -18.5t37.5 -47t18 -56t5.5 -52.5q0 -17 -9.5 -23.5t-33.5 -9.5zM16 182q0 51 93 359q-22 1 -48.5 36t-40.5 78
q-15 39 -4.5 64t54.5 33l106 14l78 246q-34 66 -47 98q-15 33 -9 60t40 49q59 37 163.5 63.5t192.5 26.5q64 0 123.5 -13.5t117.5 -47t100.5 -83t68.5 -127.5t26 -176q0 -121 -45 -249.5t-129.5 -251t-222.5 -228.5t-309 -170q-40 -15 -68.5 -12.5t-62.5 22.5
q-27 16 -67.5 50.5t-66.5 64.5q-43 52 -43 94z" />
    <glyph glyph-name="Ntilde" unicode="&#xd1;" horiz-adv-x="972" 
d="M600 481q41 167 106 391t117 369q13 37 35 47t55 -2q45 -14 93 -43q35 -23 43.5 -46t-5.5 -73q-232 -740 -327 -1095q-16 -66 -94 -47q-57 15 -115 47q-53 29 -72 104q-52 229 -76 623q-112 -355 -221 -740q-9 -32 -26.5 -41.5t-51.5 0.5q-40 14 -88 43q-35 23 -43 47
t4 91q32 148 136.5 495.5t185.5 585.5q19 53 66 53q24 0 75.5 -17.5t96.5 -41.5q34 -18 46 -39t15 -64q25 -409 45 -647zM1051 1569q0 -85 -42.5 -134t-127.5 -49q-59 0 -148.5 35t-140.5 35q-35 0 -74.5 -31.5t-52.5 -31.5q-39 0 -39 94q0 87 42 136.5t128 49.5
q51 0 145 -34.5t146 -34.5q35 0 73.5 30.5t51.5 30.5q18 0 28.5 -26t10.5 -70z" />
    <glyph glyph-name="Ograve" unicode="&#xd2;" horiz-adv-x="948" 
d="M848 1202q76 -76 82 -196q7 -144 -27 -318.5t-114.5 -350.5t-190.5 -284q-105 -103 -262 -84q-117 14 -197 70q-33 23 -62 62.5t-42 84.5q-24 92 -22.5 199t34 228.5t83 234.5t124 215.5t156.5 171.5q43 36 104.5 53.5t112.5 9.5q65 -9 125.5 -35t95.5 -61zM641 1067
q-46 14 -135 -116.5t-146 -282.5q-37 -97 -58 -201.5t-16.5 -185t40.5 -95.5q54 -23 131.5 91t140.5 301q33 97 54.5 205t20.5 191.5t-32 92.5zM735 1425q-44 28 -109 80t-110 97q-29 29 -29 77q0 31 15 71.5t37 66.5q19 22 36.5 23.5t42.5 -17.5q41 -30 161.5 -155.5
t154.5 -172.5q13 -18 15.5 -29t-1.5 -16.5t-16 -15.5q-27 -20 -72 -31q-37 -9 -64 -4.5t-61 26.5z" />
    <glyph glyph-name="Oacute" unicode="&#xd3;" horiz-adv-x="948" 
d="M848 1202q76 -76 82 -196q7 -144 -27 -318.5t-114.5 -350.5t-190.5 -284q-105 -103 -262 -84q-117 14 -197 70q-33 23 -62 62.5t-42 84.5q-24 92 -22.5 199t34 228.5t83 234.5t124 215.5t156.5 171.5q43 36 104.5 53.5t112.5 9.5q65 -9 125.5 -35t95.5 -61zM641 1067
q-46 14 -135 -116.5t-146 -282.5q-37 -97 -58 -201.5t-16.5 -185t40.5 -95.5q54 -23 131.5 91t140.5 301q33 97 54.5 205t20.5 191.5t-32 92.5zM748 1403q-75 -15 -121 10q-35 20 -61.5 49.5t-26.5 48.5q0 13 7 20.5t29 14.5q200 67 431 183q28 13 42 8.5t25 -27.5
q21 -44 21 -102q0 -52 -43 -82q-57 -39 -143 -73.5t-160 -49.5z" />
    <glyph glyph-name="Ocircumflex" unicode="&#xd4;" horiz-adv-x="948" 
d="M848 1202q76 -76 82 -196q7 -144 -27 -318.5t-114.5 -350.5t-190.5 -284q-105 -103 -262 -84q-117 14 -197 70q-33 23 -62 62.5t-42 84.5q-24 92 -22.5 199t34 228.5t83 234.5t124 215.5t156.5 171.5q43 36 104.5 53.5t112.5 9.5q65 -9 125.5 -35t95.5 -61zM641 1067
q-46 14 -135 -116.5t-146 -282.5q-37 -97 -58 -201.5t-16.5 -185t40.5 -95.5q54 -23 131.5 91t140.5 301q33 97 54.5 205t20.5 191.5t-32 92.5zM954 1378q-39 -5 -77 17q-57 37 -134 135q-107 -68 -186 -98q-42 -15 -78 -2q-38 15 -69 43q-30 30 12 67q47 40 152.5 111.5
t166.5 99.5q39 18 62 13t47 -35q32 -39 91.5 -123.5t92.5 -137.5q16 -27 13.5 -38.5t-21.5 -22.5q-34 -23 -72 -29z" />
    <glyph glyph-name="Otilde" unicode="&#xd5;" horiz-adv-x="948" 
d="M1028 1686q18 0 28.5 -26.5t10.5 -70.5q0 -85 -42.5 -133.5t-127.5 -48.5q-59 0 -148.5 35t-140.5 35q-35 0 -74.5 -32t-52.5 -32q-39 0 -39 94q0 87 42 137t128 50q51 0 145 -35t146 -35q35 0 73.5 31t51.5 31zM848 1202q76 -76 82 -196q7 -144 -27 -318.5
t-114.5 -350.5t-190.5 -284q-105 -103 -262 -84q-117 14 -197 70q-33 23 -62 62.5t-42 84.5q-24 92 -22.5 199t34 228.5t83 234.5t124 215.5t156.5 171.5q43 36 104.5 53.5t112.5 9.5q65 -9 125.5 -35t95.5 -61zM326 186q54 -23 131.5 91t140.5 301q33 97 54.5 205
t20.5 191.5t-32 92.5q-46 14 -135 -116.5t-146 -282.5q-37 -97 -58 -201.5t-16.5 -185t40.5 -95.5z" />
    <glyph glyph-name="Odieresis" unicode="&#xd6;" horiz-adv-x="948" 
d="M848 1202q76 -76 82 -196q7 -144 -27 -318.5t-114.5 -350.5t-190.5 -284q-105 -103 -262 -84q-117 14 -197 70q-33 23 -62 62.5t-42 84.5q-24 92 -22.5 199t34 228.5t83 234.5t124 215.5t156.5 171.5q43 36 104.5 53.5t112.5 9.5q65 -9 125.5 -35t95.5 -61zM641 1067
q-46 14 -135 -116.5t-146 -282.5q-37 -97 -58 -201.5t-16.5 -185t40.5 -95.5q54 -23 131.5 91t140.5 301q33 97 54.5 205t20.5 191.5t-32 92.5zM461 1542q0 67 41 115.5t104 48.5q61 0 93 -34t32 -83q0 -75 -41.5 -122.5t-109.5 -47.5q-50 0 -84.5 34.5t-34.5 88.5z
M801 1552q0 64 41.5 114t103.5 50q56 0 89.5 -36.5t33.5 -94.5q0 -72 -39.5 -116t-97.5 -44q-56 0 -93.5 34.5t-37.5 92.5z" />
    <glyph glyph-name="multiply" unicode="&#xd7;" horiz-adv-x="854" 
d="M616 223q-70 0 -122 70q-42 55 -113 176q-141 -124 -229 -223q-18 -21 -35 -21q-29 0 -52.5 45.5t-23.5 75.5q0 62 90 152q33 32 156 143q-98 188 -154 307q-6 12 -6 25q0 37 88 37q41 0 78 -9q32 -7 52.5 -26.5t43.5 -61.5q28 -54 68 -127q126 103 264 209q25 19 39 19
q22 0 36.5 -42.5t14.5 -76.5q3 -60 -47 -107q-32 -29 -211 -178q111 -199 176 -295q12 -21 12 -32q0 -25 -45 -42.5t-80 -17.5z" />
    <glyph glyph-name="Oslash" unicode="&#xd8;" horiz-adv-x="968" 
d="M979 1133q-24 -24 -49 -56q10 -37 10 -121q0 -101 -22 -228t-68 -261.5t-108.5 -246.5t-153 -183.5t-191.5 -71.5q-72 0 -157.5 28t-124.5 77l-99 -113q-18 -18 -30 -18q-24 0 -42 36t-18 76q0 55 21.5 93.5t83.5 105.5q-8 44 -8 106q0 83 20.5 184.5t56.5 206.5
t89.5 204.5t116.5 177t141.5 124.5t158.5 47q53 0 112 -20t103 -49l107 102q22 19 37 19q21 0 40 -36.5t19 -74.5q0 -58 -45 -108zM684 967q0 102 -41 102q-49 0 -134 -128.5t-138 -272.5q-34 -90 -55 -189.5t-21 -173.5q0 -123 57 -123q55 0 126 110.5t132 285.5
q33 96 53.5 202.5t20.5 186.5z" />
    <glyph glyph-name="Ugrave" unicode="&#xd9;" horiz-adv-x="923" 
d="M20 174q-19 56 -20.5 130.5t18.5 171.5t40.5 177t64 202t68.5 188t73 190q13 35 35 43.5t55 -4.5q78 -29 123 -74q59 -56 25 -137q-37 -95 -63 -164.5t-65.5 -179t-61 -189t-38.5 -159t-11 -126t34 -55.5q25 -9 54.5 16.5t60.5 82.5t61 124t63 162t59 174.5t56 183.5
t48 167.5t40 146.5q10 37 32.5 47t55.5 -2q74 -23 138 -73q29 -24 34 -43.5t-6 -53.5q-50 -187 -88.5 -318t-86.5 -270t-92 -231.5t-97.5 -168t-110.5 -114.5q-48 -33 -96.5 -43.5t-114.5 -7.5q-107 5 -192 70q-66 49 -95 137zM643 1425q-44 28 -109 80t-110 97
q-29 29 -29 77q0 31 15 71.5t36 66.5q19 22 37 23.5t43 -17.5q41 -30 161.5 -155.5t154.5 -172.5q13 -18 15.5 -29t-1.5 -16.5t-16 -15.5q-27 -20 -72 -31q-37 -9 -64 -4.5t-61 26.5z" />
    <glyph glyph-name="Uacute" unicode="&#xda;" horiz-adv-x="923" 
d="M20 174q-19 56 -20.5 130.5t18.5 171.5t40.5 177t64 202t68.5 188t73 190q13 35 35 43.5t55 -4.5q78 -29 123 -74q59 -56 25 -137q-37 -95 -63 -164.5t-65.5 -179t-61 -189t-38.5 -159t-11 -126t34 -55.5q25 -9 54.5 16.5t60.5 82.5t61 124t63 162t59 174.5t56 183.5
t48 167.5t40 146.5q10 37 32.5 47t55.5 -2q74 -23 138 -73q29 -24 34 -43.5t-6 -53.5q-50 -187 -88.5 -318t-86.5 -270t-92 -231.5t-97.5 -168t-110.5 -114.5q-48 -33 -96.5 -43.5t-114.5 -7.5q-107 5 -192 70q-66 49 -95 137zM717 1403q-75 -15 -121 10q-35 20 -61.5 49.5
t-26.5 48.5q0 13 7.5 20.5t29.5 14.5q197 66 430 183q28 13 42 8.5t25 -27.5q21 -44 21 -102q0 -52 -43 -82q-57 -39 -143 -73.5t-160 -49.5z" />
    <glyph glyph-name="Ucircumflex" unicode="&#xdb;" horiz-adv-x="923" 
d="M20 174q-19 56 -20.5 130.5t18.5 171.5t40.5 177t64 202t68.5 188t73 190q13 35 35 43.5t55 -4.5q78 -29 123 -74q59 -56 25 -137q-37 -95 -63 -164.5t-65.5 -179t-61 -189t-38.5 -159t-11 -126t34 -55.5q25 -9 54.5 16.5t60.5 82.5t61 124t63 162t59 174.5t56 183.5
t48 167.5t40 146.5q10 37 32.5 47t55.5 -2q74 -23 138 -73q29 -24 34 -43.5t-6 -53.5q-50 -187 -88.5 -318t-86.5 -270t-92 -231.5t-97.5 -168t-110.5 -114.5q-48 -33 -96.5 -43.5t-114.5 -7.5q-107 5 -192 70q-66 49 -95 137zM946 1378q-40 -6 -78 17q-55 36 -133 135
q-107 -68 -186 -98q-42 -15 -78 -2q-40 16 -70 43q-30 30 13 67q47 40 152.5 111.5t166.5 99.5q39 18 62 13t47 -35q32 -39 91.5 -123.5t92.5 -137.5q16 -27 13.5 -38.5t-21.5 -22.5q-34 -23 -72 -29z" />
    <glyph glyph-name="Udieresis" unicode="&#xdc;" horiz-adv-x="923" 
d="M20 174q-19 56 -20.5 130.5t18.5 171.5t40.5 177t64 202t68.5 188t73 190q13 35 35 43.5t55 -4.5q78 -29 123 -74q59 -56 25 -137q-37 -95 -63 -164.5t-65.5 -179t-61 -189t-38.5 -159t-11 -126t34 -55.5q25 -9 54.5 16.5t60.5 82.5t61 124t63 162t59 174.5t56 183.5
t48 167.5t40 146.5q10 37 32.5 47t55.5 -2q74 -23 138 -73q29 -24 34 -43.5t-6 -53.5q-50 -187 -88.5 -318t-86.5 -270t-92 -231.5t-97.5 -168t-110.5 -114.5q-48 -33 -96.5 -43.5t-114.5 -7.5q-107 5 -192 70q-66 49 -95 137zM430 1522q0 67 41 115.5t104 48.5q61 0 93 -34
t32 -83q0 -75 -41.5 -122.5t-109.5 -47.5q-51 0 -85 34.5t-34 88.5zM770 1532q0 64 41.5 114t103.5 50q56 0 89.5 -36.5t33.5 -94.5q0 -72 -39.5 -116t-97.5 -44q-56 0 -93.5 34.5t-37.5 92.5z" />
    <glyph glyph-name="Yacute" unicode="&#xdd;" horiz-adv-x="888" 
d="M967 1100q-87 -172 -457 -713q-58 -179 -121 -397q-9 -33 -24.5 -41t-47.5 2q-78 23 -124 61q-27 22 -33 46t4 69q26 118 94 365q-35 279 -106 741q-5 34 5 47.5t42 17.5q83 11 139 -2q32 -7 47.5 -27.5t24.5 -64.5q32 -164 65 -430q142 224 316 508q19 31 38 35.5
t48 -14.5q63 -40 94 -84q20 -29 18.5 -52.5t-22.5 -66.5zM649 1403q-75 -15 -121 10q-35 20 -61.5 49.5t-26.5 48.5q0 13 7.5 20.5t29.5 14.5q197 66 430 183q28 13 42.5 8.5t25.5 -27.5q20 -42 20 -102q0 -52 -43 -82q-57 -39 -143 -73.5t-160 -49.5z" />
    <glyph glyph-name="Thorn" unicode="&#xde;" horiz-adv-x="954" 
d="M551 1323q30 -23 35 -42.5t-8 -55.5q-5 -15 -17 -50.5t-18 -54.5q40 4 71 4q164 -3 224 -77q110 -137 110 -291q0 -87 -60 -176.5t-160.5 -165t-225 -138t-258.5 -104.5q-39 -122 -74 -260q-6 -22 -16.5 -31.5t-25 -9t-38.5 9.5q-42 15 -94 47q-27 16 -35 37t0 64
q47 203 199 725q-15 15 -35.5 59t-30.5 90q-6 28 -2 44t21 28q46 35 133 67q66 217 102 306q13 35 36.5 42t64.5 -10q46 -18 102 -57zM436 799q-47 -141 -110 -348q181 71 283 169t102 179q0 25 -21 41t-57 16q-83 0 -197 -57z" />
    <glyph glyph-name="germandbls" unicode="&#xdf;" horiz-adv-x="1660" 
d="M762 324q48 24 104.5 19.5t89.5 -32.5q90 -78 171 -104.5t118 8.5q10 8 10.5 19t-7 24.5t-20.5 29t-32 33t-39.5 35.5t-44 38.5t-45.5 40t-44.5 42t-39.5 41.5q-40 46 -61 102t-19 127.5t35 143.5q43 101 129.5 203.5t177.5 160.5q107 66 211 29q50 -19 99.5 -51.5
t78.5 -65.5q26 -29 38 -64.5t10.5 -64.5t-3.5 -59q-11 -71 -43.5 -173t-64.5 -165q-15 -29 -32.5 -36t-45.5 5q-160 69 -133 191q4 19 14 52.5t19 61t17 59t8.5 46t-5.5 22.5q-13 8 -47.5 -17t-72 -68t-68 -99t-35 -110t26.5 -101q23 -31 58.5 -65t68.5 -62t67.5 -58.5
t59 -60t40.5 -61.5t15 -68.5t-21 -74.5q-122 -236 -350 -236q-222 0 -381 227q-29 41 -38 68.5t-2 42t28 25.5zM-66 324q48 24 105 19.5t90 -32.5q90 -78 171 -104.5t118 8.5q10 8 10.5 19t-7 24.5t-20.5 29t-32 33t-39.5 35.5t-44 38.5t-45.5 40t-44.5 42t-39.5 41.5
q-40 46 -61 102t-19 127.5t35 143.5q43 101 129.5 203.5t177.5 160.5q107 66 211 29q50 -19 99.5 -51.5t78.5 -65.5q26 -29 38 -64.5t10.5 -64.5t-3.5 -59q-10 -70 -43.5 -172.5t-65.5 -165.5q-15 -29 -32 -36t-45 5q-161 70 -134 191q4 19 14 52.5t19 61t17.5 59t9 46
t-5.5 22.5q-13 8 -47.5 -17t-72 -68t-68.5 -99t-35.5 -110t26.5 -101q23 -31 59 -65t68.5 -62t67 -58.5t59.5 -60t41 -61.5t15 -68.5t-21 -74.5q-122 -236 -350 -236q-222 0 -381 227q-29 41 -38 68.5t-2.5 42t27.5 25.5z" />
    <glyph glyph-name="agrave" unicode="&#xe0;" 
d="M604 317q-308 -54 -383 -75q-60 -112 -121 -234q-17 -31 -32.5 -36t-44.5 8q-62 25 -99 67q-22 25 -22.5 50.5t18.5 68.5q102 226 275 548t303 525q26 41 57.5 59t83.5 17q59 -1 132.5 -18.5t127.5 -39.5q35 -14 44 -37.5t3 -64.5q-59 -409 -110 -1130q-2 -35 -14 -47.5
t-46 -12.5q-72 0 -127 19q-30 10 -41.5 32.5t-11.5 69.5q0 55 8 231zM379 539q159 24 239 30q16 219 48 475q-135 -228 -287 -505zM778 1409q-45 28 -109.5 79.5t-109.5 96.5q-29 29 -29 78q0 31 15 71t37 66q19 22 37 23.5t43 -17.5q41 -30 161 -155t154 -172
q18 -29 16.5 -38.5t-18.5 -23.5q-27 -20 -72 -31q-37 -9 -64 -4t-61 27z" />
    <glyph glyph-name="aacute" unicode="&#xe1;" 
d="M604 317q-308 -54 -383 -75q-60 -112 -121 -234q-17 -31 -32.5 -36t-44.5 8q-62 25 -99 67q-22 25 -22.5 50.5t18.5 68.5q102 226 275 548t303 525q26 41 57.5 59t83.5 17q59 -1 132.5 -18.5t127.5 -39.5q35 -14 44 -37.5t3 -64.5q-59 -409 -110 -1130q-2 -35 -14 -47.5
t-46 -12.5q-72 0 -127 19q-30 10 -41.5 32.5t-11.5 69.5q0 55 8 231zM379 539q159 24 239 30q16 219 48 475q-135 -228 -287 -505zM813 1423q-74 -15 -121 11q-35 20 -61.5 49.5t-26.5 48.5q0 13 7.5 20.5t29.5 14.5q203 68 430 182q28 13 42.5 8.5t25.5 -26.5
q20 -42 20 -103q0 -52 -43 -82q-57 -39 -143 -73.5t-160 -49.5z" />
    <glyph glyph-name="acircumflex" unicode="&#xe2;" 
d="M604 317q-308 -54 -383 -75q-60 -112 -121 -234q-17 -31 -32.5 -36t-44.5 8q-62 25 -99 67q-22 25 -22.5 50.5t18.5 68.5q102 226 275 548t303 525q26 41 57.5 59t83.5 17q59 -1 132.5 -18.5t127.5 -39.5q35 -14 44 -37.5t3 -64.5q-59 -409 -110 -1130q-2 -35 -14 -47.5
t-46 -12.5q-72 0 -127 19q-30 10 -41.5 32.5t-11.5 69.5q0 55 8 231zM379 539q159 24 239 30q16 219 48 475q-135 -228 -287 -505zM1040 1399q-41 -6 -77 16q-57 37 -134 135q-107 -68 -186 -98q-42 -15 -78 -2q-38 15 -69 43q-31 31 12 68q47 40 152.5 111.5t166.5 99.5
q39 18 62 12.5t47 -35.5q32 -40 92 -124t92 -136q16 -27 13.5 -39t-21.5 -23q-33 -22 -72 -28z" />
    <glyph glyph-name="atilde" unicode="&#xe3;" 
d="M604 317q-308 -54 -383 -75q-60 -112 -121 -234q-17 -31 -32.5 -36t-44.5 8q-62 25 -99 67q-22 25 -22.5 50.5t18.5 68.5q102 226 275 548t303 525q26 41 57.5 59t83.5 17q59 -1 132.5 -18.5t127.5 -39.5q35 -14 44 -37.5t3 -64.5q-59 -409 -110 -1130q-2 -35 -14 -47.5
t-46 -12.5q-72 0 -127 19q-30 10 -41.5 32.5t-11.5 69.5q0 55 8 231zM379 539q159 24 239 30q16 219 48 475q-135 -228 -287 -505zM1112 1589q0 -85 -42.5 -133.5t-127.5 -48.5q-59 0 -148.5 35t-140.5 35q-35 0 -74.5 -32t-52.5 -32q-39 0 -39 94q0 87 42 137t128 50
q51 0 145 -35t146 -35q35 0 73.5 31t51.5 31q18 0 28.5 -26.5t10.5 -70.5z" />
    <glyph glyph-name="adieresis" unicode="&#xe4;" 
d="M604 317q-308 -54 -383 -75q-60 -112 -121 -234q-17 -31 -32.5 -36t-44.5 8q-62 25 -99 67q-22 25 -22.5 50.5t18.5 68.5q102 226 275 548t303 525q26 41 57.5 59t83.5 17q59 -1 132.5 -18.5t127.5 -39.5q35 -14 44 -37.5t3 -64.5q-59 -409 -110 -1130q-2 -35 -14 -47.5
t-46 -12.5q-72 0 -127 19q-30 10 -41.5 32.5t-11.5 69.5q0 55 8 231zM379 539q159 24 239 30q16 219 48 475q-135 -228 -287 -505zM506 1542q0 67 41 115.5t104 48.5q61 0 93 -34t32 -83q0 -75 -41.5 -122.5t-109.5 -47.5q-51 0 -85 34.5t-34 88.5zM846 1552q0 64 41.5 114
t103.5 50q56 0 89.5 -36.5t33.5 -94.5q0 -72 -39.5 -116t-97.5 -44q-56 0 -93.5 34.5t-37.5 92.5z" />
    <glyph glyph-name="aring" unicode="&#xe5;" 
d="M776 -35q-78 0 -127 19q-31 12 -42 34t-11 68q0 55 8 231q-308 -54 -383 -75q-60 -112 -121 -234q-17 -32 -32.5 -37t-44.5 9q-73 37 -99 67q-22 25 -22.5 50.5t18.5 68.5q91 204 258 501t322 550q18 30 45 51q-39 51 -39 125q0 113 83.5 207t207.5 94q132 0 210 -63
t78 -161q0 -100 -42 -171.5t-113 -104.5q3 -18 0 -39q-30 -238 -94 -1130q-2 -35 -14 -47.5t-46 -12.5zM889 1491q0 33 -14.5 50.5t-34.5 17.5q-34 0 -61.5 -26t-42 -62.5t-22 -67.5t-7.5 -49q0 -62 55 -62q38 0 68.5 36t44.5 80.5t14 82.5zM379 539q159 24 239 30
q16 219 48 475q-135 -228 -287 -505z" />
    <glyph glyph-name="ae" unicode="&#xe6;" horiz-adv-x="1310" 
d="M442 600l7 2q89 21 174 39q74 237 125 387q-6 -6 -48 -63t-114 -158.5t-144 -206.5zM53 8q-19 -31 -36.5 -36t-51.5 12q-54 26 -90 65q-27 28 -27 55.5t27 73.5q121 219 342.5 545.5t366.5 503.5q44 54 86.5 69t117.5 -2q24 -5 97 -30q108 17 234.5 29t189.5 12
q33 0 50.5 -12.5t29.5 -45.5q24 -67 24 -129q0 -26 -11.5 -37t-43.5 -14q-111 -11 -324 -39q-19 -56 -56 -168t-50 -151q74 14 137 18q53 2 72.5 -6.5t31.5 -40.5q25 -70 25 -117q0 -24 -10.5 -34.5t-42.5 -14.5q-146 -19 -295 -49q-8 -24 -30 -94t-32 -101q148 31 242 31
q28 0 44 -9.5t26 -35.5q32 -87 32 -141q0 -21 -11.5 -32t-39.5 -17q-214 -49 -338 -84q-44 -14 -74.5 -10t-56.5 30q-39 39 -80 90q-43 53 -24 133q24 103 51 189q-21 -4 -281 -60q-152 -230 -221 -346z" />
    <glyph glyph-name="ccedilla" unicode="&#xe7;" horiz-adv-x="876" 
d="M143 -434q-52 0 -102.5 35.5t-50.5 79.5q0 14 18.5 21t40.5 7q26 0 56.5 -21.5t37.5 -21.5q23 0 41.5 32t18.5 66q0 29 -33 29q-5 0 -19.5 -3t-19.5 -3q-16 0 -47 17.5t-31 41.5q0 19 27.5 65t60.5 87q-12 6 -32 18q-36 23 -68 60t-45 80q-43 138 0 349t153 415.5
t250 324.5q100 83 207 72q65 -6 135 -35t109 -65q40 -37 53.5 -80t11.5 -103q-2 -62 -16.5 -138.5t-34.5 -125.5q-5 -15 -9.5 -22.5t-13.5 -16t-20.5 -7.5t-32.5 3q-78 18 -111 59t-36 115q-1 22 5.5 70.5t3.5 76t-23 35.5q-28 12 -86 -59t-116 -177.5t-93 -201.5
q-39 -103 -60 -204t-16.5 -174.5t39.5 -86.5q29 -10 70.5 18t105.5 99q43 47 98 61t113 -6q44 -16 45.5 -51.5t-27.5 -85.5q-52 -104 -157 -197q-38 -32 -94 -51.5t-111 -19.5q-30 0 -66 8q-30 -37 -57 -72q111 -11 111 -116q0 -76 -49.5 -138.5t-133.5 -62.5z" />
    <glyph glyph-name="egrave" unicode="&#xe8;" horiz-adv-x="788" 
d="M209 1036q-31 53 -49 135q-6 30 1.5 41t33.5 17q102 30 273 51.5t318 26.5q64 3 80 -58q20 -61 25 -114q2 -34 -10 -48.5t-45 -17.5q-165 -18 -322 -43q-18 -49 -56.5 -152.5t-47.5 -128.5q77 12 157 15q35 2 54.5 -8.5t29.5 -38.5q24 -71 29 -119q4 -33 -6.5 -46.5
t-44.5 -21.5q-232 -45 -324 -69q-36 -99 -63 -187q133 25 245 33q68 6 86 -45q26 -70 31 -121q4 -34 -5.5 -47.5t-43.5 -21.5q-288 -67 -358 -86q-46 -12 -73.5 -7t-55.5 29q-45 38 -82 88q-41 56 -25 133q47 207 248 811zM545 1436q-45 28 -109.5 79.5t-109.5 96.5
q-29 29 -29 78q0 31 14.5 71t36.5 66q19 22 37 23.5t43 -17.5q41 -29 161 -155t154 -173q13 -18 15.5 -29t-1.5 -16.5t-16 -15.5q-27 -21 -71 -31q-37 -9 -64 -4t-61 27z" />
    <glyph glyph-name="eacute" unicode="&#xe9;" horiz-adv-x="788" 
d="M209 1036q-31 53 -49 135q-6 30 1.5 41t33.5 17q102 30 273 51.5t318 26.5q64 3 80 -58q20 -61 25 -114q2 -34 -10 -48.5t-45 -17.5q-165 -18 -322 -43q-18 -49 -56.5 -152.5t-47.5 -128.5q77 12 157 15q35 2 54.5 -8.5t29.5 -38.5q24 -71 29 -119q4 -33 -6.5 -46.5
t-44.5 -21.5q-232 -45 -324 -69q-36 -99 -63 -187q133 25 245 33q68 6 86 -45q26 -70 31 -121q4 -34 -5.5 -47.5t-43.5 -21.5q-288 -67 -358 -86q-46 -12 -73.5 -7t-55.5 29q-45 38 -82 88q-41 56 -25 133q47 207 248 811zM621 1413q-75 -15 -121 10q-35 20 -61.5 50
t-26.5 49q0 13 7.5 20t29.5 14q197 66 430 183q28 13 42 8.5t25 -27.5q21 -44 21 -102q0 -52 -43 -82q-57 -39 -143 -73.5t-160 -49.5z" />
    <glyph glyph-name="ecircumflex" unicode="&#xea;" horiz-adv-x="788" 
d="M209 1036q-31 53 -49 135q-6 30 1.5 41t33.5 17q102 30 273 51.5t318 26.5q64 3 80 -58q20 -61 25 -114q2 -34 -10 -48.5t-45 -17.5q-165 -18 -322 -43q-18 -49 -56.5 -152.5t-47.5 -128.5q77 12 157 15q35 2 54.5 -8.5t29.5 -38.5q24 -71 29 -119q4 -33 -6.5 -46.5
t-44.5 -21.5q-232 -45 -324 -69q-36 -99 -63 -187q133 25 245 33q68 6 86 -45q26 -70 31 -121q4 -34 -5.5 -47.5t-43.5 -21.5q-288 -67 -358 -86q-46 -12 -73.5 -7t-55.5 29q-45 38 -82 88q-41 56 -25 133q47 207 248 811zM827 1389q-41 -6 -77 16q-57 37 -134 135
q-107 -68 -186 -98q-42 -15 -78 -2q-38 15 -69 43q-30 30 12 67q47 40 152.5 111.5t166.5 99.5q39 18 62 13t47 -35q32 -40 92 -124t92 -136q16 -27 13.5 -39t-21.5 -23q-33 -22 -72 -28z" />
    <glyph glyph-name="edieresis" unicode="&#xeb;" horiz-adv-x="788" 
d="M209 1036q-31 53 -49 135q-6 30 1.5 41t33.5 17q102 30 273 51.5t318 26.5q64 3 80 -58q20 -61 25 -114q2 -34 -10 -48.5t-45 -17.5q-165 -18 -322 -43q-18 -49 -56.5 -152.5t-47.5 -128.5q77 12 157 15q35 2 54.5 -8.5t29.5 -38.5q24 -71 29 -119q4 -33 -6.5 -46.5
t-44.5 -21.5q-232 -45 -324 -69q-36 -99 -63 -187q133 25 245 33q68 6 86 -45q26 -70 31 -121q4 -34 -5.5 -47.5t-43.5 -21.5q-288 -67 -358 -86q-46 -12 -73.5 -7t-55.5 29q-45 38 -82 88q-41 56 -25 133q47 207 248 811zM354 1532q0 66 41.5 115t104.5 49q61 0 93 -34
t32 -83q0 -74 -42 -122t-110 -48q-51 0 -85 34.5t-34 88.5zM694 1542q0 64 42 114t104 50q56 0 89.5 -36.5t33.5 -94.5q0 -72 -39.5 -116t-98.5 -44q-56 0 -93.5 34.5t-37.5 92.5z" />
    <glyph glyph-name="igrave" unicode="&#xec;" horiz-adv-x="425" 
d="M422 1417q-184 152 -184 230q0 50 38.5 109t71.5 59q20 0 49 -33q59 -65 128.5 -165t101.5 -161q12 -23 9.5 -34.5t-20.5 -22.5q-41 -23 -100 -23q-45 0 -94 41zM479 1206q30 -24 35.5 -43.5t-6.5 -54.5q-67 -182 -174 -521t-174 -577q-9 -33 -24.5 -41.5t-47.5 0.5
q-71 20 -127 60q-27 20 -33.5 44t2.5 68q36 173 141 540t173 560q13 36 35 45.5t55 -2.5q75 -23 145 -78z" />
    <glyph glyph-name="iacute" unicode="&#xed;" horiz-adv-x="425" 
d="M459 1409q-53 -9 -94 8q-42 18 -72.5 50.5t-30.5 54.5q0 13 7.5 20t29.5 14q205 68 379 156q27 14 40 12.5t25 -24.5q21 -44 21 -109q0 -39 -35 -71q-40 -37 -111 -66.5t-159 -44.5zM479 1206q30 -24 35.5 -43.5t-6.5 -54.5q-67 -182 -174 -521t-174 -577
q-9 -33 -24.5 -41.5t-47.5 0.5q-71 20 -127 60q-27 20 -33.5 44t2.5 68q36 173 141 540t173 560q13 36 35 45.5t55 -2.5q75 -23 145 -78z" />
    <glyph glyph-name="icircumflex" unicode="&#xee;" horiz-adv-x="425" 
d="M666 1380q-31 -8 -55.5 -2t-49.5 31q-38 38 -90 115q-83 -65 -131 -92q-46 -26 -96 -13q-43 13 -68 35q-30 27 10 72q39 44 125 117t148 110q40 26 73 20t60 -49q26 -41 75 -136t72 -144q7 -17 5.5 -25t-15.5 -16q-30 -15 -63 -23zM479 1206q30 -24 35.5 -43.5
t-6.5 -54.5q-67 -182 -174 -521t-174 -577q-9 -33 -24.5 -41.5t-47.5 0.5q-71 20 -127 60q-27 20 -33.5 44t2.5 68q36 173 141 540t173 560q13 36 35 45.5t55 -2.5q75 -23 145 -78z" />
    <glyph glyph-name="idieresis" unicode="&#xef;" horiz-adv-x="425" 
d="M209 1532q0 62 39.5 113t101.5 51q56 0 84.5 -32t28.5 -85q0 -76 -39 -123t-102 -47q-51 0 -82 33t-31 90zM512 1542q0 65 37.5 114.5t97.5 49.5q57 0 86 -36t29 -95q0 -67 -37 -113.5t-96 -46.5q-51 0 -84 35t-33 92zM479 1206q30 -24 35.5 -43.5t-6.5 -54.5
q-67 -182 -174 -521t-174 -577q-9 -33 -24.5 -41.5t-47.5 0.5q-71 20 -127 60q-27 20 -33.5 44t2.5 68q36 173 141 540t173 560q13 36 35 45.5t55 -2.5q75 -23 145 -78z" />
    <glyph glyph-name="eth" unicode="&#xf0;" horiz-adv-x="1050" 
d="M543 594q-62 -8 -152 -23q-45 -139 -100 -335q121 60 215.5 148.5t147.5 179.5t79.5 173t26.5 148q0 65 -34 106t-103 41q-37 0 -78 -14l-78 -217q33 0 58 -18.5t37.5 -47t18 -56t5.5 -52.5q0 -17 -9.5 -23.5t-33.5 -9.5zM16 182q0 51 93 359q-22 1 -48.5 36t-40.5 78
q-15 39 -4.5 64t54.5 33l106 14l78 246q-34 66 -47 98q-15 33 -9 60t40 49q59 37 163.5 63.5t192.5 26.5q64 0 123.5 -13.5t117.5 -47t100.5 -83t68.5 -127.5t26 -176q0 -121 -45 -249.5t-129.5 -251t-222.5 -228.5t-309 -170q-40 -15 -68.5 -12.5t-62.5 22.5
q-27 16 -67.5 50.5t-66.5 64.5q-43 52 -43 94z" />
    <glyph glyph-name="ntilde" unicode="&#xf1;" horiz-adv-x="972" 
d="M600 481q41 167 106 391t117 369q13 37 35 47t55 -2q45 -14 93 -43q35 -23 43.5 -46t-5.5 -73q-232 -740 -327 -1095q-16 -66 -94 -47q-57 15 -115 47q-53 29 -72 104q-52 229 -76 623q-112 -355 -221 -740q-9 -32 -26.5 -41.5t-51.5 0.5q-40 14 -88 43q-35 23 -43 47
t4 91q32 148 136.5 495.5t185.5 585.5q19 53 66 53q24 0 75.5 -17.5t96.5 -41.5q34 -18 46 -39t15 -64q25 -409 45 -647zM1051 1569q0 -85 -42.5 -134t-127.5 -49q-59 0 -148.5 35t-140.5 35q-35 0 -74.5 -31.5t-52.5 -31.5q-39 0 -39 94q0 87 42 136.5t128 49.5
q51 0 145 -34.5t146 -34.5q35 0 73.5 30.5t51.5 30.5q18 0 28.5 -26t10.5 -70z" />
    <glyph glyph-name="ograve" unicode="&#xf2;" horiz-adv-x="948" 
d="M848 1202q76 -76 82 -196q7 -144 -27 -318.5t-114.5 -350.5t-190.5 -284q-105 -103 -262 -84q-117 14 -197 70q-33 23 -62 62.5t-42 84.5q-24 92 -22.5 199t34 228.5t83 234.5t124 215.5t156.5 171.5q43 36 104.5 53.5t112.5 9.5q65 -9 125.5 -35t95.5 -61zM641 1067
q-46 14 -135 -116.5t-146 -282.5q-37 -97 -58 -201.5t-16.5 -185t40.5 -95.5q54 -23 131.5 91t140.5 301q33 97 54.5 205t20.5 191.5t-32 92.5zM735 1425q-44 28 -109 80t-110 97q-29 29 -29 77q0 31 15 71.5t37 66.5q19 22 36.5 23.5t42.5 -17.5q41 -30 161.5 -155.5
t154.5 -172.5q13 -18 15.5 -29t-1.5 -16.5t-16 -15.5q-27 -20 -72 -31q-37 -9 -64 -4.5t-61 26.5z" />
    <glyph glyph-name="oacute" unicode="&#xf3;" horiz-adv-x="948" 
d="M848 1202q76 -76 82 -196q7 -144 -27 -318.5t-114.5 -350.5t-190.5 -284q-105 -103 -262 -84q-117 14 -197 70q-33 23 -62 62.5t-42 84.5q-24 92 -22.5 199t34 228.5t83 234.5t124 215.5t156.5 171.5q43 36 104.5 53.5t112.5 9.5q65 -9 125.5 -35t95.5 -61zM641 1067
q-46 14 -135 -116.5t-146 -282.5q-37 -97 -58 -201.5t-16.5 -185t40.5 -95.5q54 -23 131.5 91t140.5 301q33 97 54.5 205t20.5 191.5t-32 92.5zM748 1403q-75 -15 -121 10q-35 20 -61.5 49.5t-26.5 48.5q0 13 7 20.5t29 14.5q200 67 431 183q28 13 42 8.5t25 -27.5
q21 -44 21 -102q0 -52 -43 -82q-57 -39 -143 -73.5t-160 -49.5z" />
    <glyph glyph-name="ocircumflex" unicode="&#xf4;" horiz-adv-x="948" 
d="M848 1202q76 -76 82 -196q7 -144 -27 -318.5t-114.5 -350.5t-190.5 -284q-105 -103 -262 -84q-117 14 -197 70q-33 23 -62 62.5t-42 84.5q-24 92 -22.5 199t34 228.5t83 234.5t124 215.5t156.5 171.5q43 36 104.5 53.5t112.5 9.5q65 -9 125.5 -35t95.5 -61zM641 1067
q-46 14 -135 -116.5t-146 -282.5q-37 -97 -58 -201.5t-16.5 -185t40.5 -95.5q54 -23 131.5 91t140.5 301q33 97 54.5 205t20.5 191.5t-32 92.5zM954 1378q-39 -5 -77 17q-57 37 -134 135q-107 -68 -186 -98q-42 -15 -78 -2q-38 15 -69 43q-30 30 12 67q47 40 152.5 111.5
t166.5 99.5q39 18 62 13t47 -35q32 -39 91.5 -123.5t92.5 -137.5q16 -27 13.5 -38.5t-21.5 -22.5q-34 -23 -72 -29z" />
    <glyph glyph-name="otilde" unicode="&#xf5;" horiz-adv-x="948" 
d="M848 1202q76 -76 82 -196q7 -144 -27 -318.5t-114.5 -350.5t-190.5 -284q-105 -103 -262 -84q-117 14 -197 70q-33 23 -62 62.5t-42 84.5q-24 92 -22.5 199t34 228.5t83 234.5t124 215.5t156.5 171.5q43 36 104.5 53.5t112.5 9.5q65 -9 125.5 -35t95.5 -61zM641 1067
q-46 14 -135 -116.5t-146 -282.5q-37 -97 -58 -201.5t-16.5 -185t40.5 -95.5q54 -23 131.5 91t140.5 301q33 97 54.5 205t20.5 191.5t-32 92.5zM1067 1589q0 -85 -42.5 -133.5t-127.5 -48.5q-59 0 -148.5 35t-140.5 35q-35 0 -74.5 -32t-52.5 -32q-39 0 -39 94q0 87 42 137
t128 50q51 0 145 -35t146 -35q35 0 73.5 31t51.5 31q18 0 28.5 -26.5t10.5 -70.5z" />
    <glyph glyph-name="odieresis" unicode="&#xf6;" horiz-adv-x="948" 
d="M848 1202q76 -76 82 -196q7 -144 -27 -318.5t-114.5 -350.5t-190.5 -284q-105 -103 -262 -84q-117 14 -197 70q-33 23 -62 62.5t-42 84.5q-24 92 -22.5 199t34 228.5t83 234.5t124 215.5t156.5 171.5q43 36 104.5 53.5t112.5 9.5q65 -9 125.5 -35t95.5 -61zM641 1067
q-46 14 -135 -116.5t-146 -282.5q-37 -97 -58 -201.5t-16.5 -185t40.5 -95.5q54 -23 131.5 91t140.5 301q33 97 54.5 205t20.5 191.5t-32 92.5zM461 1542q0 67 41 115.5t104 48.5q61 0 93 -34t32 -83q0 -75 -41.5 -122.5t-109.5 -47.5q-50 0 -84.5 34.5t-34.5 88.5z
M801 1552q0 64 41.5 114t103.5 50q56 0 89.5 -36.5t33.5 -94.5q0 -72 -39.5 -116t-97.5 -44q-56 0 -93.5 34.5t-37.5 92.5z" />
    <glyph glyph-name="divide" unicode="&#xf7;" horiz-adv-x="935" 
d="M246 281q0 54 38 99.5t91 45.5q57 0 83.5 -35.5t26.5 -81.5q0 -60 -35.5 -100.5t-87.5 -40.5q-47 0 -81.5 31.5t-34.5 81.5zM436 938q0 54 38 99.5t91 45.5q57 0 84 -35t27 -81q0 -60 -35.5 -101t-87.5 -41q-47 0 -82 32t-35 81zM786 539q-261 -16 -569 -60
q-20 -4 -37.5 0t-34.5 21q-27 27 -48 71.5t-21 81.5q0 41 57 49q282 40 551 43q86 0 107 -40q38 -68 38 -136q0 -17 -9.5 -22.5t-33.5 -7.5z" />
    <glyph glyph-name="oslash" unicode="&#xf8;" horiz-adv-x="968" 
d="M979 1133q-24 -24 -49 -56q10 -37 10 -121q0 -101 -22 -228t-68 -261.5t-108.5 -246.5t-153 -183.5t-191.5 -71.5q-72 0 -157.5 28t-124.5 77l-99 -113q-18 -18 -30 -18q-24 0 -42 36t-18 76q0 55 21.5 93.5t83.5 105.5q-8 44 -8 106q0 83 20.5 184.5t56.5 206.5
t89.5 204.5t116.5 177t141.5 124.5t158.5 47q53 0 112 -20t103 -49l107 102q22 19 37 19q21 0 40 -36.5t19 -74.5q0 -58 -45 -108zM684 967q0 102 -41 102q-49 0 -134 -128.5t-138 -272.5q-34 -90 -55 -189.5t-21 -173.5q0 -123 57 -123q55 0 126 110.5t132 285.5
q33 96 53.5 202.5t20.5 186.5z" />
    <glyph glyph-name="ugrave" unicode="&#xf9;" horiz-adv-x="923" 
d="M20 174q-19 56 -20.5 130.5t18.5 171.5t40.5 177t64 202t68.5 188t73 190q13 35 35 43.5t55 -4.5q78 -29 123 -74q59 -56 25 -137q-37 -95 -63 -164.5t-65.5 -179t-61 -189t-38.5 -159t-11 -126t34 -55.5q25 -9 54.5 16.5t60.5 82.5t61 124t63 162t59 174.5t56 183.5
t48 167.5t40 146.5q10 37 32.5 47t55.5 -2q74 -23 138 -73q29 -24 34 -43.5t-6 -53.5q-50 -187 -88.5 -318t-86.5 -270t-92 -231.5t-97.5 -168t-110.5 -114.5q-48 -33 -96.5 -43.5t-114.5 -7.5q-107 5 -192 70q-66 49 -95 137zM643 1425q-44 28 -109 80t-110 97
q-29 29 -29 77q0 31 15 71.5t36 66.5q19 22 37 23.5t43 -17.5q41 -30 161.5 -155.5t154.5 -172.5q13 -18 15.5 -29t-1.5 -16.5t-16 -15.5q-27 -20 -72 -31q-37 -9 -64 -4.5t-61 26.5z" />
    <glyph glyph-name="uacute" unicode="&#xfa;" horiz-adv-x="923" 
d="M20 174q-19 56 -20.5 130.5t18.5 171.5t40.5 177t64 202t68.5 188t73 190q13 35 35 43.5t55 -4.5q78 -29 123 -74q59 -56 25 -137q-37 -95 -63 -164.5t-65.5 -179t-61 -189t-38.5 -159t-11 -126t34 -55.5q25 -9 54.5 16.5t60.5 82.5t61 124t63 162t59 174.5t56 183.5
t48 167.5t40 146.5q10 37 32.5 47t55.5 -2q74 -23 138 -73q29 -24 34 -43.5t-6 -53.5q-50 -187 -88.5 -318t-86.5 -270t-92 -231.5t-97.5 -168t-110.5 -114.5q-48 -33 -96.5 -43.5t-114.5 -7.5q-107 5 -192 70q-66 49 -95 137zM717 1403q-75 -15 -121 10q-35 20 -61.5 49.5
t-26.5 48.5q0 13 7.5 20.5t29.5 14.5q197 66 430 183q28 13 42 8.5t25 -27.5q21 -44 21 -102q0 -52 -43 -82q-57 -39 -143 -73.5t-160 -49.5z" />
    <glyph glyph-name="ucircumflex" unicode="&#xfb;" horiz-adv-x="923" 
d="M20 174q-19 56 -20.5 130.5t18.5 171.5t40.5 177t64 202t68.5 188t73 190q13 35 35 43.5t55 -4.5q78 -29 123 -74q59 -56 25 -137q-37 -95 -63 -164.5t-65.5 -179t-61 -189t-38.5 -159t-11 -126t34 -55.5q25 -9 54.5 16.5t60.5 82.5t61 124t63 162t59 174.5t56 183.5
t48 167.5t40 146.5q10 37 32.5 47t55.5 -2q74 -23 138 -73q29 -24 34 -43.5t-6 -53.5q-50 -187 -88.5 -318t-86.5 -270t-92 -231.5t-97.5 -168t-110.5 -114.5q-48 -33 -96.5 -43.5t-114.5 -7.5q-107 5 -192 70q-66 49 -95 137zM946 1378q-40 -6 -78 17q-55 36 -133 135
q-107 -68 -186 -98q-42 -15 -78 -2q-40 16 -70 43q-30 30 13 67q47 40 152.5 111.5t166.5 99.5q39 18 62 13t47 -35q32 -39 91.5 -123.5t92.5 -137.5q16 -27 13.5 -38.5t-21.5 -22.5q-34 -23 -72 -29z" />
    <glyph glyph-name="udieresis" unicode="&#xfc;" horiz-adv-x="923" 
d="M20 174q-19 56 -20.5 130.5t18.5 171.5t40.5 177t64 202t68.5 188t73 190q13 35 35 43.5t55 -4.5q78 -29 123 -74q59 -56 25 -137q-37 -95 -63 -164.5t-65.5 -179t-61 -189t-38.5 -159t-11 -126t34 -55.5q25 -9 54.5 16.5t60.5 82.5t61 124t63 162t59 174.5t56 183.5
t48 167.5t40 146.5q10 37 32.5 47t55.5 -2q74 -23 138 -73q29 -24 34 -43.5t-6 -53.5q-50 -187 -88.5 -318t-86.5 -270t-92 -231.5t-97.5 -168t-110.5 -114.5q-48 -33 -96.5 -43.5t-114.5 -7.5q-107 5 -192 70q-66 49 -95 137zM430 1522q0 67 41 115.5t104 48.5q61 0 93 -34
t32 -83q0 -75 -41.5 -122.5t-109.5 -47.5q-51 0 -85 34.5t-34 88.5zM770 1532q0 64 41.5 114t103.5 50q56 0 89.5 -36.5t33.5 -94.5q0 -72 -39.5 -116t-97.5 -44q-56 0 -93.5 34.5t-37.5 92.5z" />
    <glyph glyph-name="yacute" unicode="&#xfd;" horiz-adv-x="888" 
d="M967 1100q-87 -172 -457 -713q-58 -179 -121 -397q-9 -33 -24.5 -41t-47.5 2q-78 23 -124 61q-27 22 -33 46t4 69q26 118 94 365q-35 279 -106 741q-5 34 5 47.5t42 17.5q83 11 139 -2q32 -7 47.5 -27.5t24.5 -64.5q32 -164 65 -430q142 224 316 508q19 31 38 35.5
t48 -14.5q63 -40 94 -84q20 -29 18.5 -52.5t-22.5 -66.5zM649 1403q-75 -15 -121 10q-35 20 -61.5 49.5t-26.5 48.5q0 13 7.5 20.5t29.5 14.5q197 66 430 183q28 13 42.5 8.5t25.5 -27.5q20 -42 20 -102q0 -52 -43 -82q-57 -39 -143 -73.5t-160 -49.5z" />
    <glyph glyph-name="thorn" unicode="&#xfe;" horiz-adv-x="954" 
d="M551 1323q30 -23 35 -42.5t-8 -55.5q-5 -15 -17 -50.5t-18 -54.5q40 4 71 4q164 -3 224 -77q110 -137 110 -291q0 -87 -60 -176.5t-160.5 -165t-225 -138t-258.5 -104.5q-39 -122 -74 -260q-6 -22 -16.5 -31.5t-25 -9t-38.5 9.5q-42 15 -94 47q-27 16 -35 37t0 64
q47 203 199 725q-15 15 -35.5 59t-30.5 90q-6 28 -2 44t21 28q46 35 133 67q66 217 102 306q13 35 36.5 42t64.5 -10q46 -18 102 -57zM436 799q-47 -141 -110 -348q181 71 283 169t102 179q0 25 -21 41t-57 16q-83 0 -197 -57z" />
    <glyph glyph-name="ydieresis" unicode="&#xff;" horiz-adv-x="888" 
d="M967 1100q-87 -172 -457 -713q-58 -179 -121 -397q-9 -33 -24.5 -41t-47.5 2q-78 23 -124 61q-27 22 -33 46t4 69q26 118 94 365q-35 279 -106 741q-5 34 5 47.5t42 17.5q83 11 139 -2q32 -7 47.5 -27.5t24.5 -64.5q32 -164 65 -430q142 224 316 508q19 31 38 35.5
t48 -14.5q63 -40 94 -84q20 -29 18.5 -52.5t-22.5 -66.5zM383 1522q0 67 41 115.5t104 48.5q61 0 93 -34t32 -83q0 -75 -41.5 -122.5t-109.5 -47.5q-50 0 -84.5 34.5t-34.5 88.5zM723 1532q0 64 41.5 114t103.5 50q56 0 89.5 -36.5t33.5 -94.5q0 -72 -39.5 -116t-97.5 -44
q-56 0 -93.5 34.5t-37.5 92.5z" />
    <glyph glyph-name="Amacron" unicode="&#x100;" 
d="M604 317q-308 -54 -383 -75q-60 -112 -121 -234q-17 -31 -32.5 -36t-44.5 8q-62 25 -99 67q-22 25 -22.5 50.5t18.5 68.5q102 226 275 548t303 525q26 41 57.5 59t83.5 17q59 -1 132.5 -18.5t127.5 -39.5q35 -14 44 -37.5t3 -64.5q-59 -409 -110 -1130q-2 -35 -14 -47.5
t-46 -12.5q-72 0 -127 19q-30 10 -41.5 32.5t-11.5 69.5q0 55 8 231zM379 539q159 24 239 30q16 219 48 475q-135 -228 -287 -505zM524 1636q74 13 194.5 23t196.5 10q85 0 117 -43q21 -27 34 -62.5t13 -62.5q0 -21 -15 -28t-52 -9q-154 -7 -365 -41q-74 -13 -112 23
q-30 28 -51 67.5t-21 69.5q0 23 14 35t47 18z" />
    <glyph glyph-name="amacron" unicode="&#x101;" 
d="M604 317q-308 -54 -383 -75q-60 -112 -121 -234q-17 -31 -32.5 -36t-44.5 8q-62 25 -99 67q-22 25 -22.5 50.5t18.5 68.5q102 226 275 548t303 525q26 41 57.5 59t83.5 17q59 -1 132.5 -18.5t127.5 -39.5q35 -14 44 -37.5t3 -64.5q-59 -409 -110 -1130q-2 -35 -14 -47.5
t-46 -12.5q-72 0 -127 19q-30 10 -41.5 32.5t-11.5 69.5q0 55 8 231zM379 539q159 24 239 30q16 219 48 475q-135 -228 -287 -505zM524 1636q74 13 194.5 23t196.5 10q85 0 117 -43q21 -27 34 -62.5t13 -62.5q0 -21 -15 -28t-52 -9q-154 -7 -365 -41q-74 -13 -112 23
q-30 28 -51 67.5t-21 69.5q0 23 14 35t47 18z" />
    <glyph glyph-name="Abreve" unicode="&#x102;" 
d="M604 317q-308 -54 -383 -75q-60 -112 -121 -234q-17 -31 -32.5 -36t-44.5 8q-62 25 -99 67q-22 25 -22.5 50.5t18.5 68.5q102 226 275 548t303 525q26 41 57.5 59t83.5 17q59 -1 132.5 -18.5t127.5 -39.5q35 -14 44 -37.5t3 -64.5q-59 -409 -110 -1130q-2 -35 -14 -47.5
t-46 -12.5q-72 0 -127 19q-30 10 -41.5 32.5t-11.5 69.5q0 55 8 231zM379 539q159 24 239 30q16 219 48 475q-135 -228 -287 -505zM559 1776q10 30 41 30q25 0 59 -16.5t58 -36.5q17 -15 23.5 -49.5t7 -65.5t15 -55t46.5 -24q36 0 84 46t78 124q20 50 73 30q51 -20 74 -44
t23 -56q0 -90 -70.5 -173t-175.5 -83q-84 0 -162.5 31t-133 97t-54.5 152q0 52 14 93z" />
    <glyph glyph-name="abreve" unicode="&#x103;" 
d="M604 317q-308 -54 -383 -75q-60 -112 -121 -234q-17 -31 -32.5 -36t-44.5 8q-62 25 -99 67q-22 25 -22.5 50.5t18.5 68.5q102 226 275 548t303 525q26 41 57.5 59t83.5 17q59 -1 132.5 -18.5t127.5 -39.5q35 -14 44 -37.5t3 -64.5q-59 -409 -110 -1130q-2 -35 -14 -47.5
t-46 -12.5q-72 0 -127 19q-30 10 -41.5 32.5t-11.5 69.5q0 55 8 231zM379 539q159 24 239 30q16 219 48 475q-135 -228 -287 -505zM559 1776q10 30 41 30q25 0 59 -16.5t58 -36.5q17 -15 23.5 -49.5t7 -65.5t15 -55t46.5 -24q36 0 84 46t78 124q20 50 73 30q51 -20 74 -44
t23 -56q0 -90 -70.5 -173t-175.5 -83q-84 0 -162.5 31t-133 97t-54.5 152q0 52 14 93z" />
    <glyph glyph-name="Aogonek" unicode="&#x104;" 
d="M602 -502q-92 0 -149.5 70.5t-57.5 155.5q0 47 21.5 90t60 77.5t72 57t78.5 47.5q-31 22 -31 90q0 55 8 231q-308 -54 -383 -75q-60 -112 -121 -234q-17 -32 -32.5 -37t-44.5 9q-73 37 -99 67q-22 25 -22.5 50.5t18.5 68.5q98 219 272 540.5t306 532.5q25 40 57.5 60
t83.5 16q26 -2 50 -4.5t46 -7t37.5 -7.5t36.5 -9.5t30 -9t31.5 -10.5t28.5 -10q35 -13 44 -37t3 -65q-29 -201 -61 -528t-49 -602q-4 -73 -35.5 -111t-130.5 -104q-71 -48 -99 -80.5t-28 -61.5q0 -18 9.5 -27.5t22.5 -9.5q23 0 50.5 18t51 39.5t59.5 39.5t73 18q32 0 58 -10
t26 -29q0 -15 -27 -53q-54 -71 -123.5 -113.5t-140.5 -42.5zM379 539q159 24 239 30q16 219 48 475q-135 -228 -287 -505z" />
    <glyph glyph-name="aogonek" unicode="&#x105;" 
d="M602 -502q-92 0 -149.5 70.5t-57.5 155.5q0 47 21.5 90t60 77.5t72 57t78.5 47.5q-31 22 -31 90q0 55 8 231q-308 -54 -383 -75q-60 -112 -121 -234q-17 -32 -32.5 -37t-44.5 9q-73 37 -99 67q-22 25 -22.5 50.5t18.5 68.5q98 219 272 540.5t306 532.5q25 40 57.5 60
t83.5 16q26 -2 50 -4.5t46 -7t37.5 -7.5t36.5 -9.5t30 -9t31.5 -10.5t28.5 -10q35 -13 44 -37t3 -65q-29 -201 -61 -528t-49 -602q-4 -73 -35.5 -111t-130.5 -104q-71 -48 -99 -80.5t-28 -61.5q0 -18 9.5 -27.5t22.5 -9.5q23 0 50.5 18t51 39.5t59.5 39.5t73 18q32 0 58 -10
t26 -29q0 -15 -27 -53q-54 -71 -123.5 -113.5t-140.5 -42.5zM379 539q159 24 239 30q16 219 48 475q-135 -228 -287 -505z" />
    <glyph glyph-name="Cacute" unicode="&#x106;" horiz-adv-x="876" 
d="M682 352q44 -16 45.5 -51.5t-27.5 -85.5q-52 -104 -157 -197q-43 -37 -108.5 -56t-125.5 -13q-103 10 -200 67q-36 23 -68 60t-45 80q-43 138 0 349t153 415.5t250 324.5q100 83 207 72q65 -6 135 -35t109 -65q40 -37 53.5 -80t11.5 -103q-2 -62 -16.5 -138.5
t-34.5 -125.5q-5 -15 -9.5 -22.5t-13.5 -16t-20.5 -7.5t-32.5 3q-78 18 -111 59t-36 115q-1 22 5.5 70.5t3.5 76t-23 35.5q-28 12 -86 -59t-116 -177.5t-93 -201.5q-39 -103 -60 -204t-16.5 -174.5t39.5 -86.5q29 -10 70.5 18t105.5 99q43 47 98 61t113 -6zM760 1423
q-74 -15 -121 11q-35 20 -61.5 49.5t-26.5 48.5q0 13 7.5 20.5t29.5 14.5q203 68 430 182q28 13 42 8.5t25 -26.5q21 -44 21 -103q0 -52 -43 -82q-57 -39 -143 -73.5t-160 -49.5z" />
    <glyph glyph-name="cacute" unicode="&#x107;" horiz-adv-x="876" 
d="M682 352q44 -16 45.5 -51.5t-27.5 -85.5q-52 -104 -157 -197q-43 -37 -108.5 -56t-125.5 -13q-103 10 -200 67q-36 23 -68 60t-45 80q-43 138 0 349t153 415.5t250 324.5q100 83 207 72q65 -6 135 -35t109 -65q40 -37 53.5 -80t11.5 -103q-2 -62 -16.5 -138.5
t-34.5 -125.5q-5 -15 -9.5 -22.5t-13.5 -16t-20.5 -7.5t-32.5 3q-78 18 -111 59t-36 115q-1 22 5.5 70.5t3.5 76t-23 35.5q-28 12 -86 -59t-116 -177.5t-93 -201.5q-39 -103 -60 -204t-16.5 -174.5t39.5 -86.5q29 -10 70.5 18t105.5 99q43 47 98 61t113 -6zM760 1423
q-74 -15 -121 11q-35 20 -61.5 49.5t-26.5 48.5q0 13 7.5 20.5t29.5 14.5q203 68 430 182q28 13 42 8.5t25 -26.5q21 -44 21 -103q0 -52 -43 -82q-57 -39 -143 -73.5t-160 -49.5z" />
    <glyph glyph-name="Ccircumflex" unicode="&#x108;" horiz-adv-x="876" 
d="M961 1389q-41 -6 -78 16q-55 36 -133 135q-106 -67 -187 -98q-42 -15 -78 -2q-38 15 -69 43q-30 30 12 67q47 40 153 111.5t167 99.5q39 18 61.5 13t46.5 -35q32 -40 92 -124t92 -136q16 -27 13.5 -39t-21.5 -23q-33 -22 -71 -28zM682 352q44 -16 45.5 -51.5t-27.5 -85.5
q-52 -104 -157 -197q-43 -37 -108.5 -56t-125.5 -13q-103 10 -200 67q-36 23 -68 60t-45 80q-43 138 0 349t153 415.5t250 324.5q100 83 207 72q65 -6 135 -35t109 -65q40 -37 53.5 -80t11.5 -103q-2 -62 -16.5 -138.5t-34.5 -125.5q-5 -15 -9.5 -22.5t-13.5 -16t-20.5 -7.5
t-32.5 3q-78 18 -111 59t-36 115q-1 22 5.5 70.5t3.5 76t-23 35.5q-28 12 -86 -59t-116 -177.5t-93 -201.5q-39 -103 -60 -204t-16.5 -174.5t39.5 -86.5q29 -10 70.5 18t105.5 99q43 47 98 61t113 -6z" />
    <glyph glyph-name="ccircumflex" unicode="&#x109;" horiz-adv-x="876" 
d="M682 352q44 -16 45.5 -51.5t-27.5 -85.5q-52 -104 -157 -197q-43 -37 -108.5 -56t-125.5 -13q-103 10 -200 67q-36 23 -68 60t-45 80q-43 138 0 349t153 415.5t250 324.5q100 83 207 72q65 -6 135 -35t109 -65q40 -37 53.5 -80t11.5 -103q-2 -62 -16.5 -138.5
t-34.5 -125.5q-5 -15 -9.5 -22.5t-13.5 -16t-20.5 -7.5t-32.5 3q-78 18 -111 59t-36 115q-1 22 5.5 70.5t3.5 76t-23 35.5q-28 12 -86 -59t-116 -177.5t-93 -201.5q-39 -103 -60 -204t-16.5 -174.5t39.5 -86.5q29 -10 70.5 18t105.5 99q43 47 98 61t113 -6zM961 1389
q-41 -6 -78 16q-55 36 -133 135q-106 -67 -187 -98q-42 -15 -78 -2q-38 15 -69 43q-30 30 12 67q47 40 153 111.5t167 99.5q39 18 61.5 13t46.5 -35q32 -40 92 -124t92 -136q16 -27 13.5 -39t-21.5 -23q-33 -22 -71 -28z" />
    <glyph glyph-name="Cdotaccent" unicode="&#x10a;" horiz-adv-x="876" 
d="M682 352q44 -16 45.5 -51.5t-27.5 -85.5q-52 -104 -157 -197q-43 -37 -108.5 -56t-125.5 -13q-103 10 -200 67q-36 23 -68 60t-45 80q-43 138 0 349t153 415.5t250 324.5q100 83 207 72q65 -6 135 -35t109 -65q40 -37 53.5 -80t11.5 -103q-2 -62 -16.5 -138.5
t-34.5 -125.5q-5 -15 -9.5 -22.5t-13.5 -16t-20.5 -7.5t-32.5 3q-78 18 -111 59t-36 115q-1 22 5.5 70.5t3.5 76t-23 35.5q-28 12 -86 -59t-116 -177.5t-93 -201.5q-39 -103 -60 -204t-16.5 -174.5t39.5 -86.5q29 -10 70.5 18t105.5 99q43 47 98 61t113 -6zM588 1544
q0 67 47 123.5t115 56.5q71 0 104 -44t33 -101q0 -74 -44 -125t-110 -51q-59 0 -102 39.5t-43 101.5z" />
    <glyph glyph-name="cdotaccent" unicode="&#x10b;" horiz-adv-x="876" 
d="M588 1544q0 67 47 123.5t115 56.5q71 0 104 -44t33 -101q0 -74 -44 -125t-110 -51q-59 0 -102 39.5t-43 101.5zM682 352q44 -16 45.5 -51.5t-27.5 -85.5q-52 -104 -157 -197q-43 -37 -108.5 -56t-125.5 -13q-103 10 -200 67q-36 23 -68 60t-45 80q-43 138 0 349
t153 415.5t250 324.5q100 83 207 72q65 -6 135 -35t109 -65q40 -37 53.5 -80t11.5 -103q-2 -62 -16.5 -138.5t-34.5 -125.5q-5 -15 -9.5 -22.5t-13.5 -16t-20.5 -7.5t-32.5 3q-78 18 -111 59t-36 115q-1 22 5.5 70.5t3.5 76t-23 35.5q-28 12 -86 -59t-116 -177.5t-93 -201.5
q-39 -103 -60 -204t-16.5 -174.5t39.5 -86.5q29 -10 70.5 18t105.5 99q43 47 98 61t113 -6z" />
    <glyph glyph-name="Ccaron" unicode="&#x10c;" horiz-adv-x="876" 
d="M682 352q44 -16 45.5 -51.5t-27.5 -85.5q-52 -104 -157 -197q-43 -37 -108.5 -56t-125.5 -13q-103 10 -200 67q-36 23 -68 60t-45 80q-43 138 0 349t153 415.5t250 324.5q100 83 207 72q65 -6 135 -35t109 -65q40 -37 53.5 -80t11.5 -103q-2 -62 -16.5 -138.5
t-34.5 -125.5q-5 -15 -9.5 -22.5t-13.5 -16t-20.5 -7.5t-32.5 3q-78 18 -111 59t-36 115q-1 22 5.5 70.5t3.5 76t-23 35.5q-28 12 -86 -59t-116 -177.5t-93 -201.5q-39 -103 -60 -204t-16.5 -174.5t39.5 -86.5q29 -10 70.5 18t105.5 99q43 47 98 61t113 -6zM819 1407
q-39 -18 -61.5 -12.5t-46.5 35.5q-33 41 -93 125t-92 135q-15 27 -12.5 38t21.5 23q35 23 71 29q40 6 78 -17q55 -36 133 -135q106 67 187 98q43 16 77 3q40 -16 70 -43q31 -31 -12 -68q-47 -40 -153 -111.5t-167 -99.5z" />
    <glyph glyph-name="ccaron" unicode="&#x10d;" horiz-adv-x="876" 
d="M682 352q44 -16 45.5 -51.5t-27.5 -85.5q-52 -104 -157 -197q-43 -37 -108.5 -56t-125.5 -13q-103 10 -200 67q-36 23 -68 60t-45 80q-43 138 0 349t153 415.5t250 324.5q100 83 207 72q65 -6 135 -35t109 -65q40 -37 53.5 -80t11.5 -103q-2 -62 -16.5 -138.5
t-34.5 -125.5q-5 -15 -9.5 -22.5t-13.5 -16t-20.5 -7.5t-32.5 3q-78 18 -111 59t-36 115q-1 22 5.5 70.5t3.5 76t-23 35.5q-28 12 -86 -59t-116 -177.5t-93 -201.5q-39 -103 -60 -204t-16.5 -174.5t39.5 -86.5q29 -10 70.5 18t105.5 99q43 47 98 61t113 -6zM819 1407
q-39 -18 -61.5 -12.5t-46.5 35.5q-33 41 -93 125t-92 135q-15 27 -12.5 38t21.5 23q35 23 71 29q40 6 78 -17q55 -36 133 -135q106 67 187 98q43 16 77 3q40 -16 70 -43q31 -31 -12 -68q-47 -40 -153 -111.5t-167 -99.5z" />
    <glyph glyph-name="Dcaron" unicode="&#x10e;" horiz-adv-x="1001" 
d="M205 1012q-42 86 -47 102q-16 36 -11 59t37 41q64 36 145 61t175.5 30.5t179.5 -14.5t158 -83.5t110 -165.5q29 -79 29 -175t-26.5 -198t-85 -206t-140 -196t-199.5 -172t-256 -132q-80 -30 -143 17q-65 53 -117 108q-18 19 -26.5 31.5t-15 32.5t-4 46.5t13.5 65.5
q94 347 223 748zM242 236q72 36 135 82t109.5 95t85 102.5t64 105t42.5 101t24 93t6.5 78.5t-8.5 59q-19 50 -71 70.5t-133 -4.5q-125 -339 -254 -782zM717 1417q-39 -18 -62 -12.5t-47 35.5q-32 40 -92 124t-92 136q-16 27 -13.5 38.5t21.5 22.5q35 23 72 29q41 6 78 -16
q53 -35 133 -136q111 71 186 99q42 15 78 2q40 -16 70 -43q30 -30 -13 -68q-47 -40 -152.5 -111.5t-166.5 -99.5z" />
    <glyph glyph-name="dcaron" unicode="&#x10f;" horiz-adv-x="1001" 
d="M205 1012q-42 86 -47 102q-16 36 -11 59t37 41q64 36 145 61t175.5 30.5t179.5 -14.5t158 -83.5t110 -165.5q29 -79 29 -175t-26.5 -198t-85 -206t-140 -196t-199.5 -172t-256 -132q-80 -30 -143 17q-65 53 -117 108q-18 19 -26.5 31.5t-15 32.5t-4 46.5t13.5 65.5
q94 347 223 748zM242 236q72 36 135 82t109.5 95t85 102.5t64 105t42.5 101t24 93t6.5 78.5t-8.5 59q-19 50 -71 70.5t-133 -4.5q-125 -339 -254 -782zM717 1417q-39 -18 -62 -12.5t-47 35.5q-32 40 -92 124t-92 136q-16 27 -13.5 38.5t21.5 22.5q35 23 72 29q41 6 78 -16
q53 -35 133 -136q111 71 186 99q42 15 78 2q40 -16 70 -43q30 -30 -13 -68q-47 -40 -152.5 -111.5t-166.5 -99.5z" />
    <glyph glyph-name="Dcroat" unicode="&#x110;" horiz-adv-x="1050" 
d="M543 594q-62 -8 -152 -23q-45 -139 -100 -335q121 60 215.5 148.5t147.5 179.5t79.5 173t26.5 148q0 65 -34 106t-103 41q-37 0 -78 -14l-78 -217q33 0 58 -18.5t37.5 -47t18 -56t5.5 -52.5q0 -17 -9.5 -23.5t-33.5 -9.5zM16 182q0 51 93 359q-22 1 -48.5 36t-40.5 78
q-15 39 -4.5 64t54.5 33l106 14l78 246q-34 66 -47 98q-15 33 -9 60t40 49q59 37 163.5 63.5t192.5 26.5q64 0 123.5 -13.5t117.5 -47t100.5 -83t68.5 -127.5t26 -176q0 -121 -45 -249.5t-129.5 -251t-222.5 -228.5t-309 -170q-40 -15 -68.5 -12.5t-62.5 22.5
q-27 16 -67.5 50.5t-66.5 64.5q-43 52 -43 94z" />
    <glyph glyph-name="dcroat" unicode="&#x111;" horiz-adv-x="1050" 
d="M543 594q-62 -8 -152 -23q-45 -139 -100 -335q121 60 215.5 148.5t147.5 179.5t79.5 173t26.5 148q0 65 -34 106t-103 41q-37 0 -78 -14l-78 -217q33 0 58 -18.5t37.5 -47t18 -56t5.5 -52.5q0 -17 -9.5 -23.5t-33.5 -9.5zM16 182q0 51 93 359q-22 1 -48.5 36t-40.5 78
q-15 39 -4.5 64t54.5 33l106 14l78 246q-34 66 -47 98q-15 33 -9 60t40 49q59 37 163.5 63.5t192.5 26.5q64 0 123.5 -13.5t117.5 -47t100.5 -83t68.5 -127.5t26 -176q0 -121 -45 -249.5t-129.5 -251t-222.5 -228.5t-309 -170q-40 -15 -68.5 -12.5t-62.5 22.5
q-27 16 -67.5 50.5t-66.5 64.5q-43 52 -43 94z" />
    <glyph glyph-name="Emacron" unicode="&#x112;" horiz-adv-x="788" 
d="M209 1036q-31 53 -49 135q-6 30 1.5 41t33.5 17q102 30 273 51.5t318 26.5q64 3 80 -58q20 -61 25 -114q2 -34 -10 -48.5t-45 -17.5q-165 -18 -322 -43q-18 -49 -56.5 -152.5t-47.5 -128.5q77 12 157 15q35 2 54.5 -8.5t29.5 -38.5q24 -71 29 -119q4 -33 -6.5 -46.5
t-44.5 -21.5q-232 -45 -324 -69q-36 -99 -63 -187q133 25 245 33q68 6 86 -45q26 -70 31 -121q4 -34 -5.5 -47.5t-43.5 -21.5q-288 -67 -358 -86q-46 -12 -73.5 -7t-55.5 29q-45 38 -82 88q-41 56 -25 133q47 207 248 811zM332 1626q74 13 194.5 23t196.5 10q85 0 117 -43
q21 -27 34 -62.5t13 -62.5q0 -21 -15 -28t-53 -9q-153 -7 -364 -41q-75 -13 -113 23q-30 28 -51 67.5t-21 69.5q0 23 14.5 35t47.5 18z" />
    <glyph glyph-name="emacron" unicode="&#x113;" horiz-adv-x="788" 
d="M209 1036q-31 53 -49 135q-6 30 1.5 41t33.5 17q102 30 273 51.5t318 26.5q64 3 80 -58q20 -61 25 -114q2 -34 -10 -48.5t-45 -17.5q-165 -18 -322 -43q-18 -49 -56.5 -152.5t-47.5 -128.5q77 12 157 15q35 2 54.5 -8.5t29.5 -38.5q24 -71 29 -119q4 -33 -6.5 -46.5
t-44.5 -21.5q-232 -45 -324 -69q-36 -99 -63 -187q133 25 245 33q68 6 86 -45q26 -70 31 -121q4 -34 -5.5 -47.5t-43.5 -21.5q-288 -67 -358 -86q-46 -12 -73.5 -7t-55.5 29q-45 38 -82 88q-41 56 -25 133q47 207 248 811zM332 1626q74 13 194.5 23t196.5 10q85 0 117 -43
q21 -27 34 -62.5t13 -62.5q0 -21 -15 -28t-53 -9q-153 -7 -364 -41q-75 -13 -113 23q-30 28 -51 67.5t-21 69.5q0 23 14.5 35t47.5 18z" />
    <glyph glyph-name="Edotaccent" unicode="&#x116;" horiz-adv-x="788" 
d="M209 1036q-31 53 -49 135q-6 30 1.5 41t33.5 17q102 30 273 51.5t318 26.5q64 3 80 -58q20 -61 25 -114q2 -34 -10 -48.5t-45 -17.5q-165 -18 -322 -43q-18 -49 -56.5 -152.5t-47.5 -128.5q77 12 157 15q35 2 54.5 -8.5t29.5 -38.5q24 -71 29 -119q4 -33 -6.5 -46.5
t-44.5 -21.5q-232 -45 -324 -69q-36 -99 -63 -187q133 25 245 33q68 6 86 -45q26 -70 31 -121q4 -34 -5.5 -47.5t-43.5 -21.5q-288 -67 -358 -86q-46 -12 -73.5 -7t-55.5 29q-45 38 -82 88q-41 56 -25 133q47 207 248 811zM479 1544q0 67 47.5 123.5t114.5 56.5
q71 0 104 -44t33 -101q0 -74 -43.5 -125t-109.5 -51q-59 0 -102.5 39.5t-43.5 101.5z" />
    <glyph glyph-name="edotaccent" unicode="&#x117;" horiz-adv-x="788" 
d="M209 1036q-31 53 -49 135q-6 30 1.5 41t33.5 17q102 30 273 51.5t318 26.5q64 3 80 -58q20 -61 25 -114q2 -34 -10 -48.5t-45 -17.5q-165 -18 -322 -43q-18 -49 -56.5 -152.5t-47.5 -128.5q77 12 157 15q35 2 54.5 -8.5t29.5 -38.5q24 -71 29 -119q4 -33 -6.5 -46.5
t-44.5 -21.5q-232 -45 -324 -69q-36 -99 -63 -187q133 25 245 33q68 6 86 -45q26 -70 31 -121q4 -34 -5.5 -47.5t-43.5 -21.5q-288 -67 -358 -86q-46 -12 -73.5 -7t-55.5 29q-45 38 -82 88q-41 56 -25 133q47 207 248 811zM479 1544q0 67 47.5 123.5t114.5 56.5
q71 0 104 -44t33 -101q0 -74 -43.5 -125t-109.5 -51q-59 0 -102.5 39.5t-43.5 101.5z" />
    <glyph glyph-name="Eogonek" unicode="&#x118;" horiz-adv-x="788" 
d="M326 -461q-93 0 -150 70t-57 155q0 27 8 52.5t18 45t31.5 41t37 35t46.5 33t47.5 28.5t52.5 28.5t50 27.5q-196 -63 -220 -69q-34 -11 -59 -11q-28 0 -53 18t-62 62q-34 39 -46.5 64.5t-12.5 54.5q0 22 16 100q45 183 236 762q-20 33 -35.5 83.5t-15.5 74.5q0 14 7 21.5
t30 13.5q115 32 296 55t302 23q29 0 45.5 -13.5t27.5 -44.5q25 -76 25 -129q0 -26 -12 -37t-43 -14q-165 -18 -322 -43q-18 -49 -56.5 -152.5t-47.5 -128.5q99 15 168 15q39 0 64 -35.5t32.5 -73.5t7.5 -76q0 -21 -12 -32t-41 -17q-232 -45 -324 -69q-36 -99 -63 -187
q177 33 262 33q51 0 69 -45q31 -73 31 -145q0 -52 -43 -103.5t-180 -156.5q-66 -52 -89.5 -85.5t-23.5 -64.5q0 -14 9 -22.5t22 -8.5q23 0 50.5 18t50.5 39.5t59 39.5t73 18q32 0 58 -10t26 -29q0 -54 -87.5 -121.5t-153.5 -81.5q-24 -6 -49 -6z" />
    <glyph glyph-name="eogonek" unicode="&#x119;" horiz-adv-x="788" 
d="M326 -461q-93 0 -150 70t-57 155q0 27 8 52.5t18 45t31.5 41t37 35t46.5 33t47.5 28.5t52.5 28.5t50 27.5q-196 -63 -220 -69q-34 -11 -59 -11q-28 0 -53 18t-62 62q-34 39 -46.5 64.5t-12.5 54.5q0 22 16 100q45 183 236 762q-20 33 -35.5 83.5t-15.5 74.5q0 14 7 21.5
t30 13.5q115 32 296 55t302 23q29 0 45.5 -13.5t27.5 -44.5q25 -76 25 -129q0 -26 -12 -37t-43 -14q-165 -18 -322 -43q-18 -49 -56.5 -152.5t-47.5 -128.5q99 15 168 15q39 0 64 -35.5t32.5 -73.5t7.5 -76q0 -21 -12 -32t-41 -17q-232 -45 -324 -69q-36 -99 -63 -187
q177 33 262 33q51 0 69 -45q31 -73 31 -145q0 -52 -43 -103.5t-180 -156.5q-66 -52 -89.5 -85.5t-23.5 -64.5q0 -14 9 -22.5t22 -8.5q23 0 50.5 18t50.5 39.5t59 39.5t73 18q32 0 58 -10t26 -29q0 -54 -87.5 -121.5t-153.5 -81.5q-24 -6 -49 -6z" />
    <glyph glyph-name="Ecaron" unicode="&#x11a;" horiz-adv-x="788" 
d="M209 1036q-31 53 -49 135q-6 30 1.5 41t33.5 17q102 30 273 51.5t318 26.5q64 3 80 -58q20 -61 25 -114q2 -34 -10 -48.5t-45 -17.5q-165 -18 -322 -43q-18 -49 -56.5 -152.5t-47.5 -128.5q77 12 157 15q35 2 54.5 -8.5t29.5 -38.5q24 -71 29 -119q4 -33 -6.5 -46.5
t-44.5 -21.5q-232 -45 -324 -69q-36 -99 -63 -187q133 25 245 33q68 6 86 -45q26 -70 31 -121q4 -34 -5.5 -47.5t-43.5 -21.5q-288 -67 -358 -86q-46 -12 -73.5 -7t-55.5 29q-45 38 -82 88q-41 56 -25 133q47 207 248 811zM657 1417q-39 -18 -61.5 -12.5t-46.5 35.5
q-32 40 -92 124t-92 136q-16 27 -13.5 38.5t21.5 22.5q35 23 71 29q41 6 78 -16q53 -35 133 -136q110 70 187 99q42 15 78 2q38 -15 69 -43q31 -31 -12 -68q-47 -40 -153 -111.5t-167 -99.5z" />
    <glyph glyph-name="ecaron" unicode="&#x11b;" horiz-adv-x="788" 
d="M209 1036q-31 53 -49 135q-6 30 1.5 41t33.5 17q102 30 273 51.5t318 26.5q64 3 80 -58q20 -61 25 -114q2 -34 -10 -48.5t-45 -17.5q-165 -18 -322 -43q-18 -49 -56.5 -152.5t-47.5 -128.5q77 12 157 15q35 2 54.5 -8.5t29.5 -38.5q24 -71 29 -119q4 -33 -6.5 -46.5
t-44.5 -21.5q-232 -45 -324 -69q-36 -99 -63 -187q133 25 245 33q68 6 86 -45q26 -70 31 -121q4 -34 -5.5 -47.5t-43.5 -21.5q-288 -67 -358 -86q-46 -12 -73.5 -7t-55.5 29q-45 38 -82 88q-41 56 -25 133q47 207 248 811zM657 1417q-39 -18 -61.5 -12.5t-46.5 35.5
q-32 40 -92 124t-92 136q-16 27 -13.5 38.5t21.5 22.5q35 23 71 29q41 6 78 -16q53 -35 133 -136q110 70 187 99q42 15 78 2q38 -15 69 -43q31 -31 -12 -68q-47 -40 -153 -111.5t-167 -99.5z" />
    <glyph glyph-name="Gcircumflex" unicode="&#x11c;" horiz-adv-x="905" 
d="M932 1389q-41 -6 -78 16q-55 36 -133 135q-107 -68 -186 -98q-42 -15 -78 -2q-40 16 -70 43q-30 30 12 67q47 40 153 111.5t167 99.5q39 18 61.5 13t46.5 -35q33 -41 93 -125t92 -135q16 -27 13.5 -39t-21.5 -23q-33 -22 -72 -28zM872 764q-9 -29 -23.5 -39t-45.5 -6
q-161 22 -158 178q0 16 2.5 44.5t3.5 48.5t0.5 41t-5 33t-13.5 15q-45 15 -138.5 -116t-168.5 -308q-65 -154 -80 -303t37 -178q42 -19 104.5 49.5t118.5 182.5q-78 -4 -117.5 34t-48.5 125q-3 26 8.5 37.5t40.5 18.5q117 30 250 47q44 6 70.5 -2.5t46.5 -36.5
q27 -41 47 -82q17 -38 16.5 -65t-18.5 -68q-58 -140 -133.5 -245.5t-157.5 -162.5q-104 -73 -225 -51q-104 17 -193 78q-34 25 -63.5 65.5t-40.5 85.5q-39 145 9 358.5t165.5 416t265.5 311.5q80 60 199 43q60 -8 121.5 -35.5t99.5 -65.5q62 -62 65 -178q1 -54 -12 -136.5
t-29 -133.5z" />
    <glyph glyph-name="gcircumflex" unicode="&#x11d;" horiz-adv-x="905" 
d="M872 764q-9 -29 -23.5 -39t-45.5 -6q-161 22 -158 178q0 16 2.5 44.5t3.5 48.5t0.5 41t-5 33t-13.5 15q-45 15 -138.5 -116t-168.5 -308q-65 -154 -80 -303t37 -178q42 -19 104.5 49.5t118.5 182.5q-78 -4 -117.5 34t-48.5 125q-3 26 8.5 37.5t40.5 18.5q117 30 250 47
q44 6 70.5 -2.5t46.5 -36.5q27 -41 47 -82q17 -38 16.5 -65t-18.5 -68q-58 -140 -133.5 -245.5t-157.5 -162.5q-104 -73 -225 -51q-104 17 -193 78q-34 25 -63.5 65.5t-40.5 85.5q-39 145 9 358.5t165.5 416t265.5 311.5q80 60 199 43q60 -8 121.5 -35.5t99.5 -65.5
q62 -62 65 -178q1 -54 -12 -136.5t-29 -133.5zM932 1389q-41 -6 -78 16q-55 36 -133 135q-107 -68 -186 -98q-42 -15 -78 -2q-40 16 -70 43q-30 30 12 67q47 40 153 111.5t167 99.5q39 18 61.5 13t46.5 -35q33 -41 93 -125t92 -135q16 -27 13.5 -39t-21.5 -23
q-33 -22 -72 -28z" />
    <glyph glyph-name="Gbreve" unicode="&#x11e;" horiz-adv-x="905" 
d="M872 764q-9 -29 -23.5 -39t-45.5 -6q-161 22 -158 178q0 16 2.5 44.5t3.5 48.5t0.5 41t-5 33t-13.5 15q-45 15 -138.5 -116t-168.5 -308q-65 -154 -80 -303t37 -178q42 -19 104.5 49.5t118.5 182.5q-78 -4 -117.5 34t-48.5 125q-3 26 8.5 37.5t40.5 18.5q117 30 250 47
q44 6 70.5 -2.5t46.5 -36.5q27 -41 47 -82q17 -38 16.5 -65t-18.5 -68q-58 -140 -133.5 -245.5t-157.5 -162.5q-104 -73 -225 -51q-104 17 -193 78q-34 25 -63.5 65.5t-40.5 85.5q-39 145 9 358.5t165.5 416t265.5 311.5q80 60 199 43q60 -8 121.5 -35.5t99.5 -65.5
q62 -62 65 -178q1 -54 -12 -136.5t-29 -133.5zM553 1755q11 31 41 31q25 0 59 -16.5t58 -36.5q17 -15 23.5 -50t7 -65.5t15 -55t46.5 -24.5q36 0 84 46t78 124q20 51 73 31q51 -20 74 -44.5t23 -56.5q0 -90 -70.5 -173t-175.5 -83q-62 0 -123 19t-112.5 53t-83 89t-31.5 120
q0 51 14 92z" />
    <glyph glyph-name="gbreve" unicode="&#x11f;" horiz-adv-x="905" 
d="M872 764q-9 -29 -23.5 -39t-45.5 -6q-161 22 -158 178q0 16 2.5 44.5t3.5 48.5t0.5 41t-5 33t-13.5 15q-45 15 -138.5 -116t-168.5 -308q-65 -154 -80 -303t37 -178q42 -19 104.5 49.5t118.5 182.5q-78 -4 -117.5 34t-48.5 125q-3 26 8.5 37.5t40.5 18.5q117 30 250 47
q44 6 70.5 -2.5t46.5 -36.5q27 -41 47 -82q17 -38 16.5 -65t-18.5 -68q-58 -140 -133.5 -245.5t-157.5 -162.5q-104 -73 -225 -51q-104 17 -193 78q-34 25 -63.5 65.5t-40.5 85.5q-39 145 9 358.5t165.5 416t265.5 311.5q80 60 199 43q60 -8 121.5 -35.5t99.5 -65.5
q62 -62 65 -178q1 -54 -12 -136.5t-29 -133.5zM553 1755q11 31 41 31q25 0 59 -16.5t58 -36.5q17 -15 23.5 -50t7 -65.5t15 -55t46.5 -24.5q36 0 84 46t78 124q20 51 73 31q51 -20 74 -44.5t23 -56.5q0 -90 -70.5 -173t-175.5 -83q-62 0 -123 19t-112.5 53t-83 89t-31.5 120
q0 51 14 92z" />
    <glyph glyph-name="Gdotaccent" unicode="&#x120;" horiz-adv-x="905" 
d="M588 1544q0 67 47 123.5t115 56.5q71 0 104 -44t33 -101q0 -74 -44 -125t-110 -51q-59 0 -102 39.5t-43 101.5zM872 764q-9 -29 -23.5 -39t-45.5 -6q-161 22 -158 178q0 16 2.5 44.5t3.5 48.5t0.5 41t-5 33t-13.5 15q-45 15 -138.5 -116t-168.5 -308q-65 -154 -80 -303
t37 -178q42 -19 104.5 49.5t118.5 182.5q-78 -4 -117.5 34t-48.5 125q-3 26 8.5 37.5t40.5 18.5q117 30 250 47q44 6 70.5 -2.5t46.5 -36.5q27 -41 47 -82q17 -38 16.5 -65t-18.5 -68q-58 -140 -133.5 -245.5t-157.5 -162.5q-104 -73 -225 -51q-104 17 -193 78
q-34 25 -63.5 65.5t-40.5 85.5q-39 145 9 358.5t165.5 416t265.5 311.5q80 60 199 43q60 -8 121.5 -35.5t99.5 -65.5q62 -62 65 -178q1 -54 -12 -136.5t-29 -133.5z" />
    <glyph glyph-name="gdotaccent" unicode="&#x121;" horiz-adv-x="905" 
d="M872 764q-9 -29 -23.5 -39t-45.5 -6q-161 22 -158 178q0 16 2.5 44.5t3.5 48.5t0.5 41t-5 33t-13.5 15q-45 15 -138.5 -116t-168.5 -308q-65 -154 -80 -303t37 -178q42 -19 104.5 49.5t118.5 182.5q-78 -4 -117.5 34t-48.5 125q-3 26 8.5 37.5t40.5 18.5q117 30 250 47
q44 6 70.5 -2.5t46.5 -36.5q27 -41 47 -82q17 -38 16.5 -65t-18.5 -68q-58 -140 -133.5 -245.5t-157.5 -162.5q-104 -73 -225 -51q-104 17 -193 78q-34 25 -63.5 65.5t-40.5 85.5q-39 145 9 358.5t165.5 416t265.5 311.5q80 60 199 43q60 -8 121.5 -35.5t99.5 -65.5
q62 -62 65 -178q1 -54 -12 -136.5t-29 -133.5zM588 1544q0 67 47 123.5t115 56.5q71 0 104 -44t33 -101q0 -74 -44 -125t-110 -51q-59 0 -102 39.5t-43 101.5z" />
    <glyph glyph-name="Gcommaaccent" unicode="&#x122;" horiz-adv-x="905" 
d="M872 764q-9 -29 -23.5 -39t-45.5 -6q-161 22 -158 178q0 16 2.5 44.5t3.5 48.5t0.5 41t-5 33t-13.5 15q-45 15 -138.5 -116t-168.5 -308q-65 -154 -80 -303t37 -178q42 -19 104.5 49.5t118.5 182.5q-78 -4 -117.5 34t-48.5 125q-3 26 8.5 37.5t40.5 18.5q117 30 250 47
q44 6 70.5 -2.5t46.5 -36.5q27 -41 47 -82q17 -38 16.5 -65t-18.5 -68q-58 -140 -133.5 -245.5t-157.5 -162.5q-104 -73 -225 -51q-104 17 -193 78q-34 25 -63.5 65.5t-40.5 85.5q-39 145 9 358.5t165.5 416t265.5 311.5q80 60 199 43q60 -8 121.5 -35.5t99.5 -65.5
q62 -62 65 -178q1 -54 -12 -136.5t-29 -133.5zM94 -563v2q-33 -31 -61 -41t-72 -4q-46 7 -78 26q-36 19 -10 64q126 208 207 354q25 46 80 21q54 -24 100 -74q24 -27 26 -53.5t-18 -65.5q-27 -52 -80.5 -119.5t-93.5 -109.5z" />
    <glyph glyph-name="gcommaaccent" unicode="&#x123;" horiz-adv-x="905" 
d="M872 764q-9 -29 -23.5 -39t-45.5 -6q-161 22 -158 178q0 16 2.5 44.5t3.5 48.5t0.5 41t-5 33t-13.5 15q-45 15 -138.5 -116t-168.5 -308q-65 -154 -80 -303t37 -178q42 -19 104.5 49.5t118.5 182.5q-78 -4 -117.5 34t-48.5 125q-3 26 8.5 37.5t40.5 18.5q117 30 250 47
q44 6 70.5 -2.5t46.5 -36.5q27 -41 47 -82q17 -38 16.5 -65t-18.5 -68q-58 -140 -133.5 -245.5t-157.5 -162.5q-104 -73 -225 -51q-104 17 -193 78q-34 25 -63.5 65.5t-40.5 85.5q-39 145 9 358.5t165.5 416t265.5 311.5q80 60 199 43q60 -8 121.5 -35.5t99.5 -65.5
q62 -62 65 -178q1 -54 -12 -136.5t-29 -133.5zM94 -563v2q-33 -31 -61 -41t-72 -4q-46 7 -78 26q-36 19 -10 64q126 208 207 354q25 46 80 21q54 -24 100 -74q24 -27 26 -53.5t-18 -65.5q-27 -52 -80.5 -119.5t-93.5 -109.5z" />
    <glyph glyph-name="Hcircumflex" unicode="&#x124;" horiz-adv-x="925" 
d="M1020 1133q-75 -206 -178 -527.5t-183 -597.5q-9 -34 -23 -42t-46 1q-78 22 -125 58q-26 20 -32 44t3 68q18 92 78 307q-107 -16 -219 -38q-62 -201 -117 -396q-9 -33 -24.5 -41.5t-47.5 0.5q-71 21 -126 60q-27 20 -33.5 44t2.5 68q24 112 80 320q-26 62 -31 92
q-5 29 1 40.5t32 18.5q7 2 21.5 6.5t21.5 6.5q127 444 190 616q14 38 35 47t53 -4q85 -30 146 -78q30 -24 35.5 -43.5t-7.5 -54.5q-63 -168 -145 -428q113 13 207 20q102 344 178 562q13 39 35 47.5t55 -4.5q76 -25 137 -74q28 -22 33.5 -42.5t-6.5 -55.5zM948 1389
q-41 -6 -78 16q-55 36 -133 135q-107 -68 -186 -98q-42 -15 -78 -2q-40 16 -70 43q-30 30 13 67q47 40 152.5 111.5t166.5 99.5q39 18 62 13t47 -35q32 -40 92 -124t92 -136q16 -27 13.5 -39t-21.5 -23q-33 -22 -72 -28z" />
    <glyph glyph-name="hcircumflex" unicode="&#x125;" horiz-adv-x="925" 
d="M948 1389q-41 -6 -78 16q-55 36 -133 135q-107 -68 -186 -98q-42 -15 -78 -2q-40 16 -70 43q-30 30 13 67q47 40 152.5 111.5t166.5 99.5q39 18 62 13t47 -35q32 -40 92 -124t92 -136q16 -27 13.5 -39t-21.5 -23q-33 -22 -72 -28zM1020 1133q-75 -206 -178 -527.5
t-183 -597.5q-9 -34 -23 -42t-46 1q-78 22 -125 58q-26 20 -32 44t3 68q18 92 78 307q-107 -16 -219 -38q-62 -201 -117 -396q-9 -33 -24.5 -41.5t-47.5 0.5q-71 21 -126 60q-27 20 -33.5 44t2.5 68q24 112 80 320q-26 62 -31 92q-5 29 1 40.5t32 18.5q7 2 21.5 6.5
t21.5 6.5q127 444 190 616q14 38 35 47t53 -4q85 -30 146 -78q30 -24 35.5 -43.5t-7.5 -54.5q-63 -168 -145 -428q113 13 207 20q102 344 178 562q13 39 35 47.5t55 -4.5q76 -25 137 -74q28 -22 33.5 -42.5t-6.5 -55.5z" />
    <glyph glyph-name="Hbar" unicode="&#x126;" horiz-adv-x="1232" 
d="M823 8q-9 -34 -23 -42t-46 1q-83 23 -125 58q-26 22 -32 45t3 67q19 90 70 279q-76 -11 -219 -39q-65 -213 -109 -367q-9 -33 -24.5 -41.5t-47.5 0.5q-73 21 -127 60q-27 20 -33 43.5t3 68.5q18 96 65 277q-24 56 -31 92q-6 30 0.5 40.5t32.5 18.5l43 13q8 32 28 96.5
t28 95.5q-80 -11 -115 21q-43 40 -68 102q-21 55 45 66q93 15 203 28q72 218 84 250q14 38 35 47t53 -4q85 -30 146 -78q30 -24 35.5 -43.5t-7.5 -54.5q-7 -23 -31 -84q68 6 197 14q50 156 74 224q14 39 35.5 47.5t54.5 -4.5q76 -25 137 -74q28 -22 33.5 -42.5t-6.5 -55.5
q-4 -14 -14.5 -40.5t-14.5 -39.5q47 -1 64.5 -10.5t27.5 -32.5q21 -61 27 -97q6 -38 -11 -51.5t-67 -15.5q-19 -1 -57 -2t-56 -2q-107 -318 -260 -834zM530 637q99 13 207 20q14 47 51 166q-74 -4 -202 -16q-9 -29 -28.5 -87t-27.5 -83z" />
    <glyph glyph-name="hbar" unicode="&#x127;" horiz-adv-x="1232" 
d="M823 8q-9 -34 -23 -42t-46 1q-83 23 -125 58q-26 22 -32 45t3 67q19 90 70 279q-76 -11 -219 -39q-65 -213 -109 -367q-9 -33 -24.5 -41.5t-47.5 0.5q-73 21 -127 60q-27 20 -33 43.5t3 68.5q18 96 65 277q-24 56 -31 92q-6 30 0.5 40.5t32.5 18.5l43 13q8 32 28 96.5
t28 95.5q-80 -11 -115 21q-43 40 -68 102q-21 55 45 66q93 15 203 28q72 218 84 250q14 38 35 47t53 -4q85 -30 146 -78q30 -24 35.5 -43.5t-7.5 -54.5q-7 -23 -31 -84q68 6 197 14q50 156 74 224q14 39 35.5 47.5t54.5 -4.5q76 -25 137 -74q28 -22 33.5 -42.5t-6.5 -55.5
q-4 -14 -14.5 -40.5t-14.5 -39.5q47 -1 64.5 -10.5t27.5 -32.5q21 -61 27 -97q6 -38 -11 -51.5t-67 -15.5q-19 -1 -57 -2t-56 -2q-107 -318 -260 -834zM530 637q99 13 207 20q14 47 51 166q-74 -4 -202 -16q-9 -29 -28.5 -87t-27.5 -83z" />
    <glyph glyph-name="Imacron" unicode="&#x12a;" horiz-adv-x="425" 
d="M244 1626q187 33 360 33q56 0 86 -37q38 -47 51 -98q9 -35 -3 -50.5t-60 -19.5q-182 -20 -330 -43q-60 -9 -94 25q-47 47 -66 102q-24 73 56 88zM479 1206q30 -24 35.5 -43.5t-6.5 -54.5q-67 -182 -174 -521t-174 -577q-9 -33 -24.5 -41.5t-47.5 0.5q-71 20 -127 60
q-27 20 -33.5 44t2.5 68q36 173 141 540t173 560q13 36 35 45.5t55 -2.5q75 -23 145 -78z" />
    <glyph glyph-name="imacron" unicode="&#x12b;" horiz-adv-x="425" 
d="M244 1626q187 33 360 33q56 0 86 -37q38 -47 51 -98q9 -35 -3 -50.5t-60 -19.5q-182 -20 -330 -43q-60 -9 -94 25q-47 47 -66 102q-24 73 56 88zM479 1206q30 -24 35.5 -43.5t-6.5 -54.5q-67 -182 -174 -521t-174 -577q-9 -33 -24.5 -41.5t-47.5 0.5q-71 20 -127 60
q-27 20 -33.5 44t2.5 68q36 173 141 540t173 560q13 36 35 45.5t55 -2.5q75 -23 145 -78z" />
    <glyph glyph-name="Iogonek" unicode="&#x12e;" horiz-adv-x="425" 
d="M-80 -485q-93 0 -150 70t-57 155q0 46 15 82.5t44.5 64.5t57 47t70 44.5t67.5 44.5q-32 22 -39.5 50t2.5 68q36 173 141 540t173 560q13 36 35 45.5t55 -2.5q75 -23 145 -78q30 -24 35.5 -43.5t-6.5 -54.5q-67 -182 -174 -521t-174 -577q-15 -55 -46.5 -88t-125.5 -96
q-71 -48 -99 -80t-28 -61q0 -18 10 -27.5t23 -9.5q15 0 34 9.5t32 19t38.5 30t36.5 29.5q36 26 94 26q32 0 57 -9.5t25 -28.5q0 -16 -27 -54q-54 -71 -123.5 -113t-140.5 -42z" />
    <glyph glyph-name="iogonek" unicode="&#x12f;" horiz-adv-x="425" 
d="M-80 -485q-93 0 -150 70t-57 155q0 46 15 82.5t44.5 64.5t57 47t70 44.5t67.5 44.5q-32 22 -39.5 50t2.5 68q36 173 141 540t173 560q13 36 35 45.5t55 -2.5q75 -23 145 -78q30 -24 35.5 -43.5t-6.5 -54.5q-67 -182 -174 -521t-174 -577q-15 -55 -46.5 -88t-125.5 -96
q-71 -48 -99 -80t-28 -61q0 -18 10 -27.5t23 -9.5q15 0 34 9.5t32 19t38.5 30t36.5 29.5q36 26 94 26q32 0 57 -9.5t25 -28.5q0 -16 -27 -54q-54 -71 -123.5 -113t-140.5 -42z" />
    <glyph glyph-name="Idotaccent" unicode="&#x130;" horiz-adv-x="425" 
d="M479 1206q30 -24 35.5 -43.5t-6.5 -54.5q-67 -182 -174 -521t-174 -577q-9 -33 -24.5 -41.5t-47.5 0.5q-71 20 -127 60q-27 20 -33.5 44t2.5 68q36 173 141 540t173 560q13 36 35 45.5t55 -2.5q75 -23 145 -78zM340 1544q0 67 47 123.5t115 56.5q71 0 104 -44t33 -101
q0 -74 -44 -125t-110 -51q-59 0 -102 39.5t-43 101.5z" />
    <glyph glyph-name="dotlessi" unicode="&#x131;" horiz-adv-x="425" 
d="M479 1206q30 -24 35.5 -43.5t-6.5 -54.5q-67 -182 -174 -521t-174 -577q-9 -33 -24.5 -41.5t-47.5 0.5q-71 20 -127 60q-27 20 -33.5 44t2.5 68q36 173 141 540t173 560q13 36 35 45.5t55 -2.5q75 -23 145 -78z" />
    <glyph glyph-name="Jcircumflex" unicode="&#x134;" horiz-adv-x="856" 
d="M1071 1348q-41 -6 -78 16q-55 36 -133 135q-107 -68 -186 -98q-42 -15 -78 -2q-40 16 -70 43q-30 30 13 67q47 40 152.5 111.5t166.5 99.5q39 18 62 13t47 -35q32 -40 92 -124t92 -136q16 -27 13.5 -39t-21.5 -23q-33 -22 -72 -28zM186 -27q-174 58 -206 238
q-18 110 22 244q17 58 42.5 81t66.5 1q67 -34 100 -85.5t27 -113.5q-10 -82 -5 -119.5t35 -40.5q38 -4 93.5 111.5t111 295.5t100 348.5t78.5 317.5q9 36 32 46t56 -1q89 -25 150 -71q31 -24 36.5 -43.5t-3.5 -53.5q-107 -457 -215.5 -737t-233.5 -375q-126 -95 -287 -43z
" />
    <glyph glyph-name="jcircumflex" unicode="&#x135;" horiz-adv-x="856" 
d="M186 -27q-174 58 -206 238q-18 110 22 244q17 58 42.5 81t66.5 1q67 -34 100 -85.5t27 -113.5q-10 -82 -5 -119.5t35 -40.5q38 -4 93.5 111.5t111 295.5t100 348.5t78.5 317.5q9 36 32 46t56 -1q89 -25 150 -71q31 -24 36.5 -43.5t-3.5 -53.5q-107 -457 -215.5 -737
t-233.5 -375q-126 -95 -287 -43zM1071 1348q-41 -6 -78 16q-55 36 -133 135q-107 -68 -186 -98q-42 -15 -78 -2q-40 16 -70 43q-30 30 13 67q47 40 152.5 111.5t166.5 99.5q39 18 62 13t47 -35q32 -40 92 -124t92 -136q16 -27 13.5 -39t-21.5 -23q-33 -22 -72 -28z" />
    <glyph glyph-name="Kcommaaccent" unicode="&#x136;" horiz-adv-x="907" 
d="M514 498q94 -227 184 -387q15 -28 9.5 -46.5t-33.5 -35.5q-34 -19 -92 -35q-90 -23 -140 53q-103 162 -176 332q-59 -199 -108 -369q-9 -34 -23.5 -42t-46.5 1q-80 22 -129 60q-26 20 -32 44t3 68q38 178 145 555t175 564q13 36 34.5 45.5t53.5 -2.5q75 -23 145 -78
q31 -25 36.5 -43.5t-7.5 -53.5q-39 -102 -125 -368q350 371 475 524q23 28 42 28.5t42 -24.5q50 -53 68 -121q16 -57 -29 -129q-115 -184 -471 -540zM174 -563v2q-33 -31 -61 -41t-72 -4q-46 7 -78 26q-36 19 -10 64q126 208 207 354q25 46 80 21q54 -24 100 -74
q24 -27 26 -53.5t-18 -65.5q-27 -52 -80.5 -119.5t-93.5 -109.5z" />
    <glyph glyph-name="kcommaaccent" unicode="&#x137;" horiz-adv-x="907" 
d="M514 498q94 -227 184 -387q15 -28 9.5 -46.5t-33.5 -35.5q-34 -19 -92 -35q-90 -23 -140 53q-103 162 -176 332q-59 -199 -108 -369q-9 -34 -23.5 -42t-46.5 1q-80 22 -129 60q-26 20 -32 44t3 68q38 178 145 555t175 564q13 36 34.5 45.5t53.5 -2.5q75 -23 145 -78
q31 -25 36.5 -43.5t-7.5 -53.5q-39 -102 -125 -368q350 371 475 524q23 28 42 28.5t42 -24.5q50 -53 68 -121q16 -57 -29 -129q-115 -184 -471 -540zM174 -563v2q-33 -31 -61 -41t-72 -4q-46 7 -78 26q-36 19 -10 64q126 208 207 354q25 46 80 21q54 -24 100 -74
q24 -27 26 -53.5t-18 -65.5q-27 -52 -80.5 -119.5t-93.5 -109.5z" />
    <glyph glyph-name="Lacute" unicode="&#x139;" horiz-adv-x="727" 
d="M530 70q-262 -61 -348 -86q-53 -14 -83.5 -10t-57.5 28q-47 41 -82 90q-21 31 -27 57.5t2 67.5q45 196 148 521t184 526q14 35 36 44t54 -3q90 -28 148 -74q29 -23 33.5 -43t-9.5 -55q-152 -398 -299 -859q111 22 234 31q35 3 54.5 -6t31.5 -39q26 -66 31 -121
q6 -35 -2 -47.5t-48 -21.5zM618 1413q-74 -15 -120 10q-35 20 -61.5 50t-26.5 49q0 13 7 20t29 14q200 67 431 183q28 13 42 8.5t25 -27.5q21 -44 21 -102q0 -52 -43 -82q-57 -39 -143.5 -73.5t-160.5 -49.5z" />
    <glyph glyph-name="lacute" unicode="&#x13a;" horiz-adv-x="727" 
d="M530 70q-262 -61 -348 -86q-53 -14 -83.5 -10t-57.5 28q-47 41 -82 90q-21 31 -27 57.5t2 67.5q45 196 148 521t184 526q14 35 36 44t54 -3q90 -28 148 -74q29 -23 33.5 -43t-9.5 -55q-152 -398 -299 -859q111 22 234 31q35 3 54.5 -6t31.5 -39q26 -66 31 -121
q6 -35 -2 -47.5t-48 -21.5zM618 1413q-74 -15 -120 10q-35 20 -61.5 50t-26.5 49q0 13 7 20t29 14q200 67 431 183q28 13 42 8.5t25 -27.5q21 -44 21 -102q0 -52 -43 -82q-57 -39 -143.5 -73.5t-160.5 -49.5z" />
    <glyph glyph-name="Lcommaaccent" unicode="&#x13b;" horiz-adv-x="727" 
d="M530 70q-262 -61 -348 -86q-53 -14 -83.5 -10t-57.5 28q-47 41 -82 90q-21 31 -27 57.5t2 67.5q45 196 148 521t184 526q14 35 36 44t54 -3q90 -28 148 -74q29 -23 33.5 -43t-9.5 -55q-152 -398 -299 -859q111 22 234 31q35 3 54.5 -6t31.5 -39q26 -66 31 -121
q6 -35 -2 -47.5t-48 -21.5zM76 -563v2q-33 -31 -61 -41t-72 -4q-46 7 -78 26q-36 19 -10 64q114 189 206 354q25 46 80 21t101 -74q24 -27 26 -53.5t-18 -65.5q-27 -52 -80.5 -119.5t-93.5 -109.5z" />
    <glyph glyph-name="lcommaaccent" unicode="&#x13c;" horiz-adv-x="727" 
d="M530 70q-262 -61 -348 -86q-53 -14 -83.5 -10t-57.5 28q-47 41 -82 90q-21 31 -27 57.5t2 67.5q45 196 148 521t184 526q14 35 36 44t54 -3q90 -28 148 -74q29 -23 33.5 -43t-9.5 -55q-152 -398 -299 -859q111 22 234 31q35 3 54.5 -6t31.5 -39q26 -66 31 -121
q6 -35 -2 -47.5t-48 -21.5zM76 -563v2q-33 -31 -61 -41t-72 -4q-46 7 -78 26q-36 19 -10 64q114 189 206 354q25 46 80 21t101 -74q24 -27 26 -53.5t-18 -65.5q-27 -52 -80.5 -119.5t-93.5 -109.5z" />
    <glyph glyph-name="Lcaron" unicode="&#x13d;" horiz-adv-x="727" 
d="M530 70q-262 -61 -348 -86q-53 -14 -83.5 -10t-57.5 28q-47 41 -82 90q-21 31 -27 57.5t2 67.5q45 196 148 521t184 526q14 35 36 44t54 -3q90 -28 148 -74q29 -23 33.5 -43t-9.5 -55q-152 -398 -299 -859q111 22 234 31q35 3 54.5 -6t31.5 -39q26 -66 31 -121
q6 -35 -2 -47.5t-48 -21.5zM731 825q-22 -33 -46.5 -46.5t-61.5 -10.5q-44 3 -78 18q-17 7 -19.5 20t6.5 38q94 229 154 430q15 53 74 24q65 -32 98 -86q18 -28 19 -52t-11 -62q-17 -62 -58 -141t-77 -132z" />
    <glyph glyph-name="lcaron" unicode="&#x13e;" horiz-adv-x="727" 
d="M530 70q-262 -61 -348 -86q-53 -14 -83.5 -10t-57.5 28q-47 41 -82 90q-21 31 -27 57.5t2 67.5q45 196 148 521t184 526q14 35 36 44t54 -3q90 -28 148 -74q29 -23 33.5 -43t-9.5 -55q-152 -398 -299 -859q111 22 234 31q35 3 54.5 -6t31.5 -39q26 -66 31 -121
q6 -35 -2 -47.5t-48 -21.5zM731 825q-22 -33 -46.5 -46.5t-61.5 -10.5q-44 3 -78 18q-17 7 -19.5 20t6.5 38q94 229 154 430q15 53 74 24q65 -32 98 -86q18 -28 19 -52t-11 -62q-17 -62 -58 -141t-77 -132z" />
    <glyph glyph-name="Lslash" unicode="&#x141;" horiz-adv-x="901" 
d="M346 -18q-46 -14 -71.5 -10.5t-53.5 28.5q-45 42 -88 92q-41 51 -24 125q15 64 67 258q-18 -9 -50 -27.5t-38 -21.5q-22 -11 -32.5 -7.5t-16.5 21.5q-10 30 -10 64q0 35 20.5 62t71.5 59q26 17 123 71q127 399 196 568q14 35 36 44t54 -3q96 -30 148 -74
q29 -24 33.5 -43.5t-9.5 -54.5q-19 -50 -96 -261q80 36 127 50q53 17 58 -33q4 -35 -5 -78q-14 -60 -90 -94q-160 -70 -170 -74q-33 -95 -123 -369q111 22 234 31q35 3 54.5 -6t31.5 -39q20 -52 31 -121q5 -36 -2.5 -48t-46.5 -21q-282 -65 -359 -88z" />
    <glyph glyph-name="lslash" unicode="&#x142;" horiz-adv-x="901" 
d="M346 -18q-46 -14 -71.5 -10.5t-53.5 28.5q-45 42 -88 92q-41 51 -24 125q15 64 67 258q-18 -9 -50 -27.5t-38 -21.5q-22 -11 -32.5 -7.5t-16.5 21.5q-10 30 -10 64q0 35 20.5 62t71.5 59q26 17 123 71q127 399 196 568q14 35 36 44t54 -3q96 -30 148 -74
q29 -24 33.5 -43.5t-9.5 -54.5q-19 -50 -96 -261q80 36 127 50q53 17 58 -33q4 -35 -5 -78q-14 -60 -90 -94q-160 -70 -170 -74q-33 -95 -123 -369q111 22 234 31q35 3 54.5 -6t31.5 -39q20 -52 31 -121q5 -36 -2.5 -48t-46.5 -21q-282 -65 -359 -88z" />
    <glyph glyph-name="Nacute" unicode="&#x143;" horiz-adv-x="972" 
d="M600 481q41 167 106 391t117 369q13 37 35 47t55 -2q45 -14 93 -43q35 -23 43.5 -46t-5.5 -73q-232 -740 -327 -1095q-16 -66 -94 -47q-57 15 -115 47q-53 29 -72 104q-52 229 -76 623q-112 -355 -221 -740q-9 -32 -26.5 -41.5t-51.5 0.5q-40 14 -88 43q-35 23 -43 47
t4 91q32 148 136.5 495.5t185.5 585.5q19 53 66 53q24 0 75.5 -17.5t96.5 -41.5q34 -18 46 -39t15 -64q25 -409 45 -647zM750 1403q-75 -15 -121 10q-35 20 -61.5 49.5t-26.5 48.5q0 13 7.5 20.5t29.5 14.5q197 66 430 183q28 13 42 8.5t25 -27.5q21 -44 21 -102
q0 -52 -43 -82q-57 -39 -143 -73.5t-160 -49.5z" />
    <glyph glyph-name="nacute" unicode="&#x144;" horiz-adv-x="972" 
d="M600 481q41 167 106 391t117 369q13 37 35 47t55 -2q45 -14 93 -43q35 -23 43.5 -46t-5.5 -73q-232 -740 -327 -1095q-16 -66 -94 -47q-57 15 -115 47q-53 29 -72 104q-52 229 -76 623q-112 -355 -221 -740q-9 -32 -26.5 -41.5t-51.5 0.5q-40 14 -88 43q-35 23 -43 47
t4 91q32 148 136.5 495.5t185.5 585.5q19 53 66 53q24 0 75.5 -17.5t96.5 -41.5q34 -18 46 -39t15 -64q25 -409 45 -647zM750 1403q-75 -15 -121 10q-35 20 -61.5 49.5t-26.5 48.5q0 13 7.5 20.5t29.5 14.5q197 66 430 183q28 13 42 8.5t25 -27.5q21 -44 21 -102
q0 -52 -43 -82q-57 -39 -143 -73.5t-160 -49.5z" />
    <glyph glyph-name="Ncommaaccent" unicode="&#x145;" horiz-adv-x="972" 
d="M600 481q41 167 106 391t117 369q13 37 35 47t55 -2q45 -14 93 -43q35 -23 43.5 -46t-5.5 -73q-232 -740 -327 -1095q-16 -66 -94 -47q-57 15 -115 47q-53 29 -72 104q-52 229 -76 623q-112 -355 -221 -740q-9 -32 -26.5 -41.5t-51.5 0.5q-40 14 -88 43q-35 23 -43 47
t4 91q32 148 136.5 495.5t185.5 585.5q19 53 66 53q24 0 75.5 -17.5t96.5 -41.5q34 -18 46 -39t15 -64q25 -409 45 -647zM209 -563v2q-33 -31 -61 -41t-72 -4q-46 7 -78 26q-36 19 -10 64q126 208 207 354q25 46 79 21q55 -25 101 -74q24 -27 26 -53.5t-18 -65.5
q-27 -52 -80.5 -119.5t-93.5 -109.5z" />
    <glyph glyph-name="ncommaaccent" unicode="&#x146;" horiz-adv-x="972" 
d="M600 481q41 167 106 391t117 369q13 37 35 47t55 -2q45 -14 93 -43q35 -23 43.5 -46t-5.5 -73q-232 -740 -327 -1095q-16 -66 -94 -47q-57 15 -115 47q-53 29 -72 104q-52 229 -76 623q-112 -355 -221 -740q-9 -32 -26.5 -41.5t-51.5 0.5q-40 14 -88 43q-35 23 -43 47
t4 91q32 148 136.5 495.5t185.5 585.5q19 53 66 53q24 0 75.5 -17.5t96.5 -41.5q34 -18 46 -39t15 -64q25 -409 45 -647zM209 -563v2q-33 -31 -61 -41t-72 -4q-46 7 -78 26q-36 19 -10 64q126 208 207 354q25 46 79 21q55 -25 101 -74q24 -27 26 -53.5t-18 -65.5
q-27 -52 -80.5 -119.5t-93.5 -109.5z" />
    <glyph glyph-name="Ncaron" unicode="&#x147;" horiz-adv-x="972" 
d="M600 481q41 167 106 391t117 369q13 37 35 47t55 -2q45 -14 93 -43q35 -23 43.5 -46t-5.5 -73q-232 -740 -327 -1095q-16 -66 -94 -47q-57 15 -115 47q-53 29 -72 104q-52 229 -76 623q-112 -355 -221 -740q-9 -32 -26.5 -41.5t-51.5 0.5q-40 14 -88 43q-35 23 -43 47
t4 91q32 148 136.5 495.5t185.5 585.5q19 53 66 53q24 0 75.5 -17.5t96.5 -41.5q34 -18 46 -39t15 -64q25 -409 45 -647zM768 1407q-39 -18 -62 -12.5t-47 35.5q-32 40 -92 124t-92 136q-16 27 -13.5 38.5t21.5 22.5q35 23 72 29q40 6 78 -17q55 -36 133 -135q107 68 186 98
q43 16 78 3q40 -16 70 -43q30 -30 -13 -68q-47 -40 -152.5 -111.5t-166.5 -99.5z" />
    <glyph glyph-name="ncaron" unicode="&#x148;" horiz-adv-x="972" 
d="M600 481q41 167 106 391t117 369q13 37 35 47t55 -2q45 -14 93 -43q35 -23 43.5 -46t-5.5 -73q-232 -740 -327 -1095q-16 -66 -94 -47q-57 15 -115 47q-53 29 -72 104q-52 229 -76 623q-112 -355 -221 -740q-9 -32 -26.5 -41.5t-51.5 0.5q-40 14 -88 43q-35 23 -43 47
t4 91q32 148 136.5 495.5t185.5 585.5q19 53 66 53q24 0 75.5 -17.5t96.5 -41.5q34 -18 46 -39t15 -64q25 -409 45 -647zM768 1407q-39 -18 -62 -12.5t-47 35.5q-32 40 -92 124t-92 136q-16 27 -13.5 38.5t21.5 22.5q35 23 72 29q40 6 78 -17q55 -36 133 -135q107 68 186 98
q43 16 78 3q40 -16 70 -43q30 -30 -13 -68q-47 -40 -152.5 -111.5t-166.5 -99.5z" />
    <glyph glyph-name="Omacron" unicode="&#x14c;" horiz-adv-x="948" 
d="M848 1202q76 -76 82 -196q7 -144 -27 -318.5t-114.5 -350.5t-190.5 -284q-105 -103 -262 -84q-117 14 -197 70q-33 23 -62 62.5t-42 84.5q-24 92 -22.5 199t34 228.5t83 234.5t124 215.5t156.5 171.5q43 36 104.5 53.5t112.5 9.5q65 -9 125.5 -35t95.5 -61zM641 1067
q-46 14 -135 -116.5t-146 -282.5q-37 -97 -58 -201.5t-16.5 -185t40.5 -95.5q54 -23 131.5 91t140.5 301q33 97 54.5 205t20.5 191.5t-32 92.5zM500 1636q74 13 194.5 23t196.5 10q85 0 117 -43q21 -27 34 -62.5t13 -62.5q0 -21 -15 -28t-53 -9q-153 -7 -364 -41
q-75 -13 -113 23q-30 28 -51 67.5t-21 69.5q0 23 14.5 35t47.5 18z" />
    <glyph glyph-name="omacron" unicode="&#x14d;" horiz-adv-x="948" 
d="M848 1202q76 -76 82 -196q7 -144 -27 -318.5t-114.5 -350.5t-190.5 -284q-105 -103 -262 -84q-117 14 -197 70q-33 23 -62 62.5t-42 84.5q-24 92 -22.5 199t34 228.5t83 234.5t124 215.5t156.5 171.5q43 36 104.5 53.5t112.5 9.5q65 -9 125.5 -35t95.5 -61zM641 1067
q-46 14 -135 -116.5t-146 -282.5q-37 -97 -58 -201.5t-16.5 -185t40.5 -95.5q54 -23 131.5 91t140.5 301q33 97 54.5 205t20.5 191.5t-32 92.5zM500 1636q74 13 194.5 23t196.5 10q85 0 117 -43q21 -27 34 -62.5t13 -62.5q0 -21 -15 -28t-53 -9q-153 -7 -364 -41
q-75 -13 -113 23q-30 28 -51 67.5t-21 69.5q0 23 14.5 35t47.5 18z" />
    <glyph glyph-name="Ohungarumlaut" unicode="&#x150;" horiz-adv-x="948" 
d="M848 1202q76 -76 82 -196q7 -144 -27 -318.5t-114.5 -350.5t-190.5 -284q-105 -103 -262 -84q-117 14 -197 70q-33 23 -62 62.5t-42 84.5q-24 92 -22.5 199t34 228.5t83 234.5t124 215.5t156.5 171.5q43 36 104.5 53.5t112.5 9.5q65 -9 125.5 -35t95.5 -61zM641 1067
q-46 14 -135 -116.5t-146 -282.5q-37 -97 -58 -201.5t-16.5 -185t40.5 -95.5q54 -23 131.5 91t140.5 301q33 97 54.5 205t20.5 191.5t-32 92.5zM643 1456q-62 -41 -115 -20q-30 12 -51 30q-34 27 6 70q47 54 136 144.5t139 127.5q26 20 40 20.5t31 -16.5q26 -26 43 -69
q12 -33 8.5 -53.5t-22.5 -47.5q-29 -40 -90 -91.5t-125 -94.5zM1022 1460q-37 -24 -67 -28t-62 8q-26 9 -47 26q-33 26 8 70q34 40 143.5 139t165.5 142q31 22 54 2q32 -29 45 -72q10 -30 5.5 -55.5t-26.5 -53.5q-60 -75 -219 -178z" />
    <glyph glyph-name="ohungarumlaut" unicode="&#x151;" horiz-adv-x="948" 
d="M848 1202q76 -76 82 -196q7 -144 -27 -318.5t-114.5 -350.5t-190.5 -284q-105 -103 -262 -84q-117 14 -197 70q-33 23 -62 62.5t-42 84.5q-24 92 -22.5 199t34 228.5t83 234.5t124 215.5t156.5 171.5q43 36 104.5 53.5t112.5 9.5q65 -9 125.5 -35t95.5 -61zM641 1067
q-46 14 -135 -116.5t-146 -282.5q-37 -97 -58 -201.5t-16.5 -185t40.5 -95.5q54 -23 131.5 91t140.5 301q33 97 54.5 205t20.5 191.5t-32 92.5zM643 1456q-62 -41 -115 -20q-30 12 -51 30q-34 27 6 70q47 54 136 144.5t139 127.5q26 20 40 20.5t31 -16.5q26 -26 43 -69
q12 -33 8.5 -53.5t-22.5 -47.5q-29 -40 -90 -91.5t-125 -94.5zM1022 1460q-37 -24 -67 -28t-62 8q-26 9 -47 26q-33 26 8 70q34 40 143.5 139t165.5 142q31 22 54 2q32 -29 45 -72q10 -30 5.5 -55.5t-26.5 -53.5q-60 -75 -219 -178z" />
    <glyph glyph-name="OE" unicode="&#x152;" horiz-adv-x="1296" 
d="M641 1067q-1 0 -4 1t-4 1q-49 0 -134.5 -128.5t-138.5 -272.5q-34 -90 -54.5 -189t-20.5 -174q0 -123 57 -123q40 0 97.5 76t109.5 188.5t88.5 256t36.5 264.5q0 89 -33 100zM725 -18q-61 -16 -91.5 -5.5t-60.5 54.5q-80 -66 -186 -66q-55 0 -125 18t-123 56
q-73 56 -104 147q-23 70 -23 172q0 137 40.5 283t102 261.5t129.5 204t128 130.5q88 63 184 63q56 0 117 -25t106 -73q15 39 64 51q77 20 205 36t219 16q49 0 67 -58q25 -81 25 -129q0 -26 -12.5 -37t-43.5 -14q-140 -15 -301 -41q-1 -4 -104 -281q97 13 137 13q35 0 54 -9
t30 -38q31 -79 31 -138q0 -21 -12 -32t-41 -17q-182 -35 -303 -67q-42 -116 -64 -187q155 31 242 31q29 0 43.5 -10t25.5 -37q33 -79 33 -139q0 -21 -11.5 -32t-39.5 -17q-214 -49 -338 -84z" />
    <glyph glyph-name="oe" unicode="&#x153;" horiz-adv-x="1296" 
d="M641 1067q-1 0 -4 1t-4 1q-49 0 -134.5 -128.5t-138.5 -272.5q-34 -90 -54.5 -189t-20.5 -174q0 -123 57 -123q40 0 97.5 76t109.5 188.5t88.5 256t36.5 264.5q0 89 -33 100zM725 -18q-61 -16 -91.5 -5.5t-60.5 54.5q-80 -66 -186 -66q-55 0 -125 18t-123 56
q-73 56 -104 147q-23 70 -23 172q0 137 40.5 283t102 261.5t129.5 204t128 130.5q88 63 184 63q56 0 117 -25t106 -73q15 39 64 51q77 20 205 36t219 16q49 0 67 -58q25 -81 25 -129q0 -26 -12.5 -37t-43.5 -14q-140 -15 -301 -41q-1 -4 -104 -281q97 13 137 13q35 0 54 -9
t30 -38q31 -79 31 -138q0 -21 -12 -32t-41 -17q-182 -35 -303 -67q-42 -116 -64 -187q155 31 242 31q29 0 43.5 -10t25.5 -37q33 -79 33 -139q0 -21 -11.5 -32t-39.5 -17q-214 -49 -338 -84z" />
    <glyph glyph-name="Racute" unicode="&#x154;" horiz-adv-x="993" 
d="M303 389q-69 -207 -119 -377q-9 -32 -23 -40.5t-46 -0.5q-72 20 -111 47q-27 20 -33 45.5t2 67.5q49 237 242 842q-40 78 -49 102q-15 38 -9.5 60.5t36.5 40.5q78 44 179 78t203.5 50.5t193 0t134.5 -69.5q90 -108 109 -256q19 -153 -119 -287q-126 -123 -332 -225
q109 -183 252 -352q23 -29 20.5 -45.5t-26.5 -36.5q-17 -14 -32 -22.5t-23.5 -11t-32.5 -9.5q-78 -24 -144 39q-58 52 -135.5 155t-136.5 205zM522 997q-29 -72 -125 -338q86 33 163.5 83t125.5 99.5t74 93.5t20 69q-8 37 -83.5 37.5t-174.5 -44.5zM713 1413
q-75 -15 -121 10q-35 20 -61.5 50t-26.5 49q0 13 7.5 20t29.5 14q197 66 430 183q28 13 42 8.5t25 -27.5q21 -44 21 -102q0 -52 -43 -82q-57 -39 -143 -73.5t-160 -49.5z" />
    <glyph glyph-name="racute" unicode="&#x155;" horiz-adv-x="993" 
d="M303 389q-69 -207 -119 -377q-9 -32 -23 -40.5t-46 -0.5q-72 20 -111 47q-27 20 -33 45.5t2 67.5q49 237 242 842q-40 78 -49 102q-15 38 -9.5 60.5t36.5 40.5q78 44 179 78t203.5 50.5t193 0t134.5 -69.5q90 -108 109 -256q19 -153 -119 -287q-126 -123 -332 -225
q109 -183 252 -352q23 -29 20.5 -45.5t-26.5 -36.5q-17 -14 -32 -22.5t-23.5 -11t-32.5 -9.5q-78 -24 -144 39q-58 52 -135.5 155t-136.5 205zM522 997q-29 -72 -125 -338q86 33 163.5 83t125.5 99.5t74 93.5t20 69q-8 37 -83.5 37.5t-174.5 -44.5zM713 1413
q-75 -15 -121 10q-35 20 -61.5 50t-26.5 49q0 13 7.5 20t29.5 14q197 66 430 183q28 13 42 8.5t25 -27.5q21 -44 21 -102q0 -52 -43 -82q-57 -39 -143 -73.5t-160 -49.5z" />
    <glyph glyph-name="Rcommaaccent" unicode="&#x156;" horiz-adv-x="993" 
d="M303 389q-69 -207 -119 -377q-9 -32 -23 -40.5t-46 -0.5q-72 20 -111 47q-27 20 -33 45.5t2 67.5q49 237 242 842q-40 78 -49 102q-15 38 -9.5 60.5t36.5 40.5q78 44 179 78t203.5 50.5t193 0t134.5 -69.5q90 -108 109 -256q19 -153 -119 -287q-126 -123 -332 -225
q109 -183 252 -352q23 -29 20.5 -45.5t-26.5 -36.5q-17 -14 -32 -22.5t-23.5 -11t-32.5 -9.5q-78 -24 -144 39q-58 52 -135.5 155t-136.5 205zM522 997q-29 -72 -125 -338q86 33 163.5 83t125.5 99.5t74 93.5t20 69q-8 37 -83.5 37.5t-174.5 -44.5zM209 -563v2
q-33 -31 -61 -41t-72 -4q-46 7 -78 26q-36 19 -10 64q126 208 207 354q25 46 79 21q55 -25 101 -74q24 -27 26 -53.5t-18 -65.5q-27 -52 -80.5 -119.5t-93.5 -109.5z" />
    <glyph glyph-name="rcommaaccent" unicode="&#x157;" horiz-adv-x="993" 
d="M303 389q-69 -207 -119 -377q-9 -32 -23 -40.5t-46 -0.5q-72 20 -111 47q-27 20 -33 45.5t2 67.5q49 237 242 842q-40 78 -49 102q-15 38 -9.5 60.5t36.5 40.5q78 44 179 78t203.5 50.5t193 0t134.5 -69.5q90 -108 109 -256q19 -153 -119 -287q-126 -123 -332 -225
q109 -183 252 -352q23 -29 20.5 -45.5t-26.5 -36.5q-17 -14 -32 -22.5t-23.5 -11t-32.5 -9.5q-78 -24 -144 39q-58 52 -135.5 155t-136.5 205zM522 997q-29 -72 -125 -338q86 33 163.5 83t125.5 99.5t74 93.5t20 69q-8 37 -83.5 37.5t-174.5 -44.5zM209 -563v2
q-33 -31 -61 -41t-72 -4q-46 7 -78 26q-36 19 -10 64q126 208 207 354q25 46 79 21q55 -25 101 -74q24 -27 26 -53.5t-18 -65.5q-27 -52 -80.5 -119.5t-93.5 -109.5z" />
    <glyph glyph-name="Rcaron" unicode="&#x158;" horiz-adv-x="993" 
d="M303 389q-69 -207 -119 -377q-9 -32 -23 -40.5t-46 -0.5q-72 20 -111 47q-27 20 -33 45.5t2 67.5q49 237 242 842q-40 78 -49 102q-15 38 -9.5 60.5t36.5 40.5q78 44 179 78t203.5 50.5t193 0t134.5 -69.5q90 -108 109 -256q19 -153 -119 -287q-126 -123 -332 -225
q109 -183 252 -352q23 -29 20.5 -45.5t-26.5 -36.5q-17 -14 -32 -22.5t-23.5 -11t-32.5 -9.5q-78 -24 -144 39q-58 52 -135.5 155t-136.5 205zM522 997q-29 -72 -125 -338q86 33 163.5 83t125.5 99.5t74 93.5t20 69q-8 37 -83.5 37.5t-174.5 -44.5zM770 1417
q-39 -18 -61.5 -12.5t-46.5 35.5q-33 41 -93 125t-92 135q-16 27 -13.5 38.5t21.5 22.5q34 23 72 29q41 6 78 -16q53 -35 133 -136q111 71 186 99q42 15 78 2q40 -16 70 -43q31 -31 -12 -68q-47 -40 -153 -111.5t-167 -99.5z" />
    <glyph glyph-name="rcaron" unicode="&#x159;" horiz-adv-x="993" 
d="M303 389q-69 -207 -119 -377q-9 -32 -23 -40.5t-46 -0.5q-72 20 -111 47q-27 20 -33 45.5t2 67.5q49 237 242 842q-40 78 -49 102q-15 38 -9.5 60.5t36.5 40.5q78 44 179 78t203.5 50.5t193 0t134.5 -69.5q90 -108 109 -256q19 -153 -119 -287q-126 -123 -332 -225
q109 -183 252 -352q23 -29 20.5 -45.5t-26.5 -36.5q-17 -14 -32 -22.5t-23.5 -11t-32.5 -9.5q-78 -24 -144 39q-58 52 -135.5 155t-136.5 205zM522 997q-29 -72 -125 -338q86 33 163.5 83t125.5 99.5t74 93.5t20 69q-8 37 -83.5 37.5t-174.5 -44.5zM770 1417
q-39 -18 -61.5 -12.5t-46.5 35.5q-33 41 -93 125t-92 135q-16 27 -13.5 38.5t21.5 22.5q34 23 72 29q41 6 78 -16q53 -35 133 -136q111 71 186 99q42 15 78 2q40 -16 70 -43q31 -31 -12 -68q-47 -40 -153 -111.5t-167 -99.5z" />
    <glyph glyph-name="Sacute" unicode="&#x15a;" horiz-adv-x="821" 
d="M-66 324q48 24 105 19.5t90 -32.5q90 -78 171 -104.5t118 8.5q10 8 10.5 19t-7 24.5t-20.5 29t-32 33t-39.5 35.5t-44 38.5t-45.5 40t-44.5 42t-39.5 41.5q-40 46 -61 102t-19 127.5t35 143.5q43 101 129.5 203.5t177.5 160.5q107 66 211 29q50 -19 99.5 -51.5
t78.5 -65.5q26 -29 38 -64.5t10.5 -64.5t-3.5 -59q-10 -70 -43.5 -172.5t-65.5 -165.5q-15 -29 -32 -36t-45 5q-161 70 -134 191q4 19 14 52.5t19 61t17.5 59t9 46t-5.5 22.5q-13 8 -47.5 -17t-72 -68t-68.5 -99t-35.5 -110t26.5 -101q23 -31 59 -65t68.5 -62t67 -58.5
t59.5 -60t41 -61.5t15 -68.5t-21 -74.5q-122 -236 -350 -236q-222 0 -381 227q-29 41 -38 68.5t-2.5 42t27.5 25.5zM754 1403q-75 -15 -121 10q-35 20 -61.5 49.5t-26.5 48.5q0 13 7.5 20.5t29.5 14.5q197 66 430 183q28 13 42 8.5t25 -27.5q21 -44 21 -102q0 -52 -43 -82
q-57 -39 -143 -73.5t-160 -49.5z" />
    <glyph glyph-name="sacute" unicode="&#x15b;" horiz-adv-x="821" 
d="M-66 324q48 24 105 19.5t90 -32.5q90 -78 171 -104.5t118 8.5q10 8 10.5 19t-7 24.5t-20.5 29t-32 33t-39.5 35.5t-44 38.5t-45.5 40t-44.5 42t-39.5 41.5q-40 46 -61 102t-19 127.5t35 143.5q43 101 129.5 203.5t177.5 160.5q107 66 211 29q50 -19 99.5 -51.5
t78.5 -65.5q26 -29 38 -64.5t10.5 -64.5t-3.5 -59q-10 -70 -43.5 -172.5t-65.5 -165.5q-15 -29 -32 -36t-45 5q-161 70 -134 191q4 19 14 52.5t19 61t17.5 59t9 46t-5.5 22.5q-13 8 -47.5 -17t-72 -68t-68.5 -99t-35.5 -110t26.5 -101q23 -31 59 -65t68.5 -62t67 -58.5
t59.5 -60t41 -61.5t15 -68.5t-21 -74.5q-122 -236 -350 -236q-222 0 -381 227q-29 41 -38 68.5t-2.5 42t27.5 25.5zM754 1403q-75 -15 -121 10q-35 20 -61.5 49.5t-26.5 48.5q0 13 7.5 20.5t29.5 14.5q197 66 430 183q28 13 42 8.5t25 -27.5q21 -44 21 -102q0 -52 -43 -82
q-57 -39 -143 -73.5t-160 -49.5z" />
    <glyph glyph-name="Scircumflex" unicode="&#x15c;" horiz-adv-x="821" 
d="M-66 324q48 24 105 19.5t90 -32.5q90 -78 171 -104.5t118 8.5q10 8 10.5 19t-7 24.5t-20.5 29t-32 33t-39.5 35.5t-44 38.5t-45.5 40t-44.5 42t-39.5 41.5q-40 46 -61 102t-19 127.5t35 143.5q43 101 129.5 203.5t177.5 160.5q107 66 211 29q50 -19 99.5 -51.5
t78.5 -65.5q26 -29 38 -64.5t10.5 -64.5t-3.5 -59q-10 -70 -43.5 -172.5t-65.5 -165.5q-15 -29 -32 -36t-45 5q-161 70 -134 191q4 19 14 52.5t19 61t17.5 59t9 46t-5.5 22.5q-13 8 -47.5 -17t-72 -68t-68.5 -99t-35.5 -110t26.5 -101q23 -31 59 -65t68.5 -62t67 -58.5
t59.5 -60t41 -61.5t15 -68.5t-21 -74.5q-122 -236 -350 -236q-222 0 -381 227q-29 41 -38 68.5t-2.5 42t27.5 25.5zM907 1352q-41 -6 -78 16q-55 36 -133 135q-107 -68 -186 -98q-42 -15 -78 -2q-40 16 -70 43q-30 30 13 67q47 40 152.5 111.5t166.5 99.5q39 18 62 13
t47 -35q32 -40 92 -124t92 -136q16 -27 13.5 -39t-21.5 -23q-33 -22 -72 -28z" />
    <glyph glyph-name="scircumflex" unicode="&#x15d;" horiz-adv-x="821" 
d="M907 1352q-41 -6 -78 16q-55 36 -133 135q-107 -68 -186 -98q-42 -15 -78 -2q-40 16 -70 43q-30 30 13 67q47 40 152.5 111.5t166.5 99.5q39 18 62 13t47 -35q32 -40 92 -124t92 -136q16 -27 13.5 -39t-21.5 -23q-33 -22 -72 -28zM-66 324q48 24 105 19.5t90 -32.5
q90 -78 171 -104.5t118 8.5q10 8 10.5 19t-7 24.5t-20.5 29t-32 33t-39.5 35.5t-44 38.5t-45.5 40t-44.5 42t-39.5 41.5q-40 46 -61 102t-19 127.5t35 143.5q43 101 129.5 203.5t177.5 160.5q107 66 211 29q50 -19 99.5 -51.5t78.5 -65.5q26 -29 38 -64.5t10.5 -64.5
t-3.5 -59q-10 -70 -43.5 -172.5t-65.5 -165.5q-15 -29 -32 -36t-45 5q-161 70 -134 191q4 19 14 52.5t19 61t17.5 59t9 46t-5.5 22.5q-13 8 -47.5 -17t-72 -68t-68.5 -99t-35.5 -110t26.5 -101q23 -31 59 -65t68.5 -62t67 -58.5t59.5 -60t41 -61.5t15 -68.5t-21 -74.5
q-122 -236 -350 -236q-222 0 -381 227q-29 41 -38 68.5t-2.5 42t27.5 25.5z" />
    <glyph glyph-name="Scedilla" unicode="&#x15e;" horiz-adv-x="821" 
d="M211 -414q-52 0 -103 35.5t-51 79.5q0 14 19 21.5t41 7.5q25 0 54.5 -21.5t39.5 -21.5q22 0 40.5 32t18.5 66q0 29 -32 29q-5 0 -19.5 -3.5t-19.5 -3.5q-7 0 -25 7q-25 13 -37 22q-23 21 -8 58q21 43 57 92q-135 53 -239 202q-29 41 -38 68.5t-2.5 42t27.5 25.5
q48 24 105 19.5t90 -32.5q90 -78 171 -104.5t118 8.5q10 8 10.5 19t-7 24.5t-20.5 29t-32 33t-39.5 35.5t-44 38.5t-45.5 40t-44.5 42t-39.5 41.5q-40 46 -61 102t-19 127.5t35 143.5q43 101 129.5 203.5t177.5 160.5q107 66 211 29q50 -19 99.5 -51.5t78.5 -65.5
q26 -29 38 -64.5t10.5 -64.5t-3.5 -59q-10 -70 -43.5 -172.5t-65.5 -165.5q-15 -29 -32 -36t-45 5q-161 70 -134 191q4 19 14 52.5t19 61t17.5 59t9 46t-5.5 22.5q-13 8 -47.5 -17t-72 -68t-68.5 -99t-35.5 -110t26.5 -101q23 -31 59 -65t68.5 -62t67 -58.5t59.5 -60
t41 -61.5t15 -68.5t-21 -74.5q-122 -236 -350 -236q-1 -1 -18 -23t-25 -34q108 -14 108 -117q0 -76 -49 -138.5t-133 -62.5z" />
    <glyph glyph-name="scedilla" unicode="&#x15f;" horiz-adv-x="821" 
d="M211 -414q-52 0 -103 35.5t-51 79.5q0 14 19 21.5t41 7.5q25 0 54.5 -21.5t39.5 -21.5q22 0 40.5 32t18.5 66q0 29 -32 29q-5 0 -19.5 -3.5t-19.5 -3.5q-7 0 -25 7q-25 13 -37 22q-23 21 -8 58q21 43 57 92q-135 53 -239 202q-29 41 -38 68.5t-2.5 42t27.5 25.5
q48 24 105 19.5t90 -32.5q90 -78 171 -104.5t118 8.5q10 8 10.5 19t-7 24.5t-20.5 29t-32 33t-39.5 35.5t-44 38.5t-45.5 40t-44.5 42t-39.5 41.5q-40 46 -61 102t-19 127.5t35 143.5q43 101 129.5 203.5t177.5 160.5q107 66 211 29q50 -19 99.5 -51.5t78.5 -65.5
q26 -29 38 -64.5t10.5 -64.5t-3.5 -59q-10 -70 -43.5 -172.5t-65.5 -165.5q-15 -29 -32 -36t-45 5q-161 70 -134 191q4 19 14 52.5t19 61t17.5 59t9 46t-5.5 22.5q-13 8 -47.5 -17t-72 -68t-68.5 -99t-35.5 -110t26.5 -101q23 -31 59 -65t68.5 -62t67 -58.5t59.5 -60
t41 -61.5t15 -68.5t-21 -74.5q-122 -236 -350 -236q-1 -1 -18 -23t-25 -34q108 -14 108 -117q0 -76 -49 -138.5t-133 -62.5z" />
    <glyph glyph-name="Scaron" unicode="&#x160;" horiz-adv-x="821" 
d="M-66 324q48 24 105 19.5t90 -32.5q90 -78 171 -104.5t118 8.5q10 8 10.5 19t-7 24.5t-20.5 29t-32 33t-39.5 35.5t-44 38.5t-45.5 40t-44.5 42t-39.5 41.5q-40 46 -61 102t-19 127.5t35 143.5q43 101 129.5 203.5t177.5 160.5q107 66 211 29q50 -19 99.5 -51.5
t78.5 -65.5q26 -29 38 -64.5t10.5 -64.5t-3.5 -59q-10 -70 -43.5 -172.5t-65.5 -165.5q-15 -29 -32 -36t-45 5q-161 70 -134 191q4 19 14 52.5t19 61t17.5 59t9 46t-5.5 22.5q-13 8 -47.5 -17t-72 -68t-68.5 -99t-35.5 -110t26.5 -101q23 -31 59 -65t68.5 -62t67 -58.5
t59.5 -60t41 -61.5t15 -68.5t-21 -74.5q-122 -236 -350 -236q-222 0 -381 227q-29 41 -38 68.5t-2.5 42t27.5 25.5zM813 1407q-39 -18 -61.5 -12.5t-46.5 35.5q-33 41 -93 125t-92 135q-16 27 -13.5 38.5t21.5 22.5q35 23 72 29q40 6 78 -17q55 -36 133 -135q107 68 186 98
q43 16 78 3q40 -16 70 -43q31 -31 -12 -68q-47 -40 -153 -111.5t-167 -99.5z" />
    <glyph glyph-name="scaron" unicode="&#x161;" horiz-adv-x="821" 
d="M-66 324q48 24 105 19.5t90 -32.5q90 -78 171 -104.5t118 8.5q10 8 10.5 19t-7 24.5t-20.5 29t-32 33t-39.5 35.5t-44 38.5t-45.5 40t-44.5 42t-39.5 41.5q-40 46 -61 102t-19 127.5t35 143.5q43 101 129.5 203.5t177.5 160.5q107 66 211 29q50 -19 99.5 -51.5
t78.5 -65.5q26 -29 38 -64.5t10.5 -64.5t-3.5 -59q-10 -70 -43.5 -172.5t-65.5 -165.5q-15 -29 -32 -36t-45 5q-161 70 -134 191q4 19 14 52.5t19 61t17.5 59t9 46t-5.5 22.5q-13 8 -47.5 -17t-72 -68t-68.5 -99t-35.5 -110t26.5 -101q23 -31 59 -65t68.5 -62t67 -58.5
t59.5 -60t41 -61.5t15 -68.5t-21 -74.5q-122 -236 -350 -236q-222 0 -381 227q-29 41 -38 68.5t-2.5 42t27.5 25.5zM813 1407q-39 -18 -61.5 -12.5t-46.5 35.5q-33 41 -93 125t-92 135q-16 27 -13.5 38.5t21.5 22.5q35 23 72 29q40 6 78 -17q55 -36 133 -135q107 68 186 98
q43 16 78 3q40 -16 70 -43q31 -31 -12 -68q-47 -40 -153 -111.5t-167 -99.5z" />
    <glyph glyph-name="Tcommaaccent" unicode="&#x162;" horiz-adv-x="907" 
d="M229 -414q-52 0 -102.5 35.5t-50.5 79.5q0 14 18.5 21.5t40.5 7.5q25 0 54.5 -21.5t39.5 -21.5q23 0 41.5 32t18.5 66q0 29 -33 29q-5 0 -19.5 -3.5t-19.5 -3.5q-7 0 -24 7q-25 13 -37 22q-24 21 -9 58q19 43 80 124q-2 1 -5 3.5t-5 3.5q-27 20 -33 46t4 68
q31 153 103.5 410t142.5 467q-22 -4 -46 -8.5t-49 -9.5t-34 -7q-32 -7 -51.5 -0.5t-36.5 33.5q-40 66 -57 147q-6 29 3 41.5t36 18.5q139 31 338 53t348 25q55 0 78 -33q39 -60 51 -135q5 -34 -3.5 -45.5t-43.5 -14.5q-143 -13 -224 -22q-173 -498 -329 -1055
q-9 -32 -22.5 -40.5t-43.5 -0.5q-33 -44 -45 -59q109 -14 109 -117q0 -76 -49.5 -138.5t-133.5 -62.5z" />
    <glyph glyph-name="tcommaaccent" unicode="&#x163;" horiz-adv-x="907" 
d="M229 -414q-52 0 -102.5 35.5t-50.5 79.5q0 14 18.5 21.5t40.5 7.5q25 0 54.5 -21.5t39.5 -21.5q23 0 41.5 32t18.5 66q0 29 -33 29q-5 0 -19.5 -3.5t-19.5 -3.5q-7 0 -24 7q-25 13 -37 22q-24 21 -9 58q19 43 80 124q-2 1 -5 3.5t-5 3.5q-27 20 -33 46t4 68
q31 153 103.5 410t142.5 467q-22 -4 -46 -8.5t-49 -9.5t-34 -7q-32 -7 -51.5 -0.5t-36.5 33.5q-40 66 -57 147q-6 29 3 41.5t36 18.5q139 31 338 53t348 25q55 0 78 -33q39 -60 51 -135q5 -34 -3.5 -45.5t-43.5 -14.5q-143 -13 -224 -22q-173 -498 -329 -1055
q-9 -32 -22.5 -40.5t-43.5 -0.5q-33 -44 -45 -59q109 -14 109 -117q0 -76 -49.5 -138.5t-133.5 -62.5z" />
    <glyph glyph-name="Tcaron" unicode="&#x164;" horiz-adv-x="907" 
d="M967 1081q-143 -13 -224 -22q-173 -498 -329 -1055q-9 -32 -23.5 -40t-46.5 1q-73 20 -127 60q-27 20 -33 46t4 68q31 153 103.5 410t142.5 467q-22 -4 -46 -8.5t-49 -9.5t-34 -7q-32 -7 -51.5 -0.5t-36.5 33.5q-40 66 -57 147q-6 29 3 41.5t36 18.5q139 31 338 53
t348 25q55 0 78 -33q39 -60 51 -135q5 -34 -3.5 -45.5t-43.5 -14.5zM743 1417q-39 -18 -61.5 -12.5t-46.5 35.5q-32 40 -92 124t-92 136q-16 27 -13.5 38.5t21.5 22.5q35 23 71 29q41 6 78 -16q53 -35 133 -136q110 70 187 99q42 15 78 2q38 -15 69 -43q31 -31 -12 -68
q-47 -40 -153 -111.5t-167 -99.5z" />
    <glyph glyph-name="tcaron" unicode="&#x165;" horiz-adv-x="907" 
d="M967 1081q-143 -13 -224 -22q-173 -498 -329 -1055q-9 -32 -23.5 -40t-46.5 1q-73 20 -127 60q-27 20 -33 46t4 68q31 153 103.5 410t142.5 467q-22 -4 -46 -8.5t-49 -9.5t-34 -7q-32 -7 -51.5 -0.5t-36.5 33.5q-40 66 -57 147q-6 29 3 41.5t36 18.5q139 31 338 53
t348 25q55 0 78 -33q39 -60 51 -135q5 -34 -3.5 -45.5t-43.5 -14.5zM743 1417q-39 -18 -61.5 -12.5t-46.5 35.5q-32 40 -92 124t-92 136q-16 27 -13.5 38.5t21.5 22.5q35 23 71 29q41 6 78 -16q53 -35 133 -136q110 70 187 99q42 15 78 2q38 -15 69 -43q31 -31 -12 -68
q-47 -40 -153 -111.5t-167 -99.5z" />
    <glyph glyph-name="Umacron" unicode="&#x16a;" horiz-adv-x="923" 
d="M20 174q-19 56 -20.5 130.5t18.5 171.5t40.5 177t64 202t68.5 188t73 190q13 35 35 43.5t55 -4.5q78 -29 123 -74q59 -56 25 -137q-37 -95 -63 -164.5t-65.5 -179t-61 -189t-38.5 -159t-11 -126t34 -55.5q25 -9 54.5 16.5t60.5 82.5t61 124t63 162t59 174.5t56 183.5
t48 167.5t40 146.5q10 37 32.5 47t55.5 -2q74 -23 138 -73q29 -24 34 -43.5t-6 -53.5q-50 -187 -88.5 -318t-86.5 -270t-92 -231.5t-97.5 -168t-110.5 -114.5q-48 -33 -96.5 -43.5t-114.5 -7.5q-107 5 -192 70q-66 49 -95 137zM451 1616q74 13 194.5 23t196.5 10
q84 0 116 -43q21 -27 34.5 -62.5t13.5 -62.5q0 -21 -15 -28t-53 -9q-154 -7 -365 -41q-75 -13 -112 22q-30 28 -51 68t-21 70q0 23 14.5 35t47.5 18z" />
    <glyph glyph-name="umacron" unicode="&#x16b;" horiz-adv-x="923" 
d="M20 174q-19 56 -20.5 130.5t18.5 171.5t40.5 177t64 202t68.5 188t73 190q13 35 35 43.5t55 -4.5q78 -29 123 -74q59 -56 25 -137q-37 -95 -63 -164.5t-65.5 -179t-61 -189t-38.5 -159t-11 -126t34 -55.5q25 -9 54.5 16.5t60.5 82.5t61 124t63 162t59 174.5t56 183.5
t48 167.5t40 146.5q10 37 32.5 47t55.5 -2q74 -23 138 -73q29 -24 34 -43.5t-6 -53.5q-50 -187 -88.5 -318t-86.5 -270t-92 -231.5t-97.5 -168t-110.5 -114.5q-48 -33 -96.5 -43.5t-114.5 -7.5q-107 5 -192 70q-66 49 -95 137zM451 1616q74 13 194.5 23t196.5 10
q84 0 116 -43q21 -27 34.5 -62.5t13.5 -62.5q0 -21 -15 -28t-53 -9q-154 -7 -365 -41q-75 -13 -112 22q-30 28 -51 68t-21 70q0 23 14.5 35t47.5 18z" />
    <glyph glyph-name="Ubreve" unicode="&#x16c;" horiz-adv-x="923" 
d="M20 174q-19 56 -20.5 130.5t18.5 171.5t40.5 177t64 202t68.5 188t73 190q13 35 35 43.5t55 -4.5q78 -29 123 -74q59 -56 25 -137q-37 -95 -63 -164.5t-65.5 -179t-61 -189t-38.5 -159t-11 -126t34 -55.5q25 -9 54.5 16.5t60.5 82.5t61 124t63 162t59 174.5t56 183.5
t48 167.5t40 146.5q10 37 32.5 47t55.5 -2q74 -23 138 -73q29 -24 34 -43.5t-6 -53.5q-50 -187 -88.5 -318t-86.5 -270t-92 -231.5t-97.5 -168t-110.5 -114.5q-48 -33 -96.5 -43.5t-114.5 -7.5q-107 5 -192 70q-66 49 -95 137zM465 1755q11 31 41 31q25 0 59 -16.5t58 -36.5
q17 -15 23.5 -50t7 -65.5t15 -55t46.5 -24.5q36 0 84 46t78 124q20 51 73 31q51 -20 74 -44.5t23 -56.5q0 -90 -70.5 -173t-175.5 -83q-62 0 -123 19t-112.5 53t-83 89t-31.5 120q0 51 14 92z" />
    <glyph glyph-name="ubreve" unicode="&#x16d;" horiz-adv-x="923" 
d="M20 174q-19 56 -20.5 130.5t18.5 171.5t40.5 177t64 202t68.5 188t73 190q13 35 35 43.5t55 -4.5q78 -29 123 -74q59 -56 25 -137q-37 -95 -63 -164.5t-65.5 -179t-61 -189t-38.5 -159t-11 -126t34 -55.5q25 -9 54.5 16.5t60.5 82.5t61 124t63 162t59 174.5t56 183.5
t48 167.5t40 146.5q10 37 32.5 47t55.5 -2q74 -23 138 -73q29 -24 34 -43.5t-6 -53.5q-50 -187 -88.5 -318t-86.5 -270t-92 -231.5t-97.5 -168t-110.5 -114.5q-48 -33 -96.5 -43.5t-114.5 -7.5q-107 5 -192 70q-66 49 -95 137zM465 1755q11 31 41 31q25 0 59 -16.5t58 -36.5
q17 -15 23.5 -50t7 -65.5t15 -55t46.5 -24.5q36 0 84 46t78 124q20 51 73 31q51 -20 74 -44.5t23 -56.5q0 -90 -70.5 -173t-175.5 -83q-62 0 -123 19t-112.5 53t-83 89t-31.5 120q0 51 14 92z" />
    <glyph glyph-name="Uring" unicode="&#x16e;" horiz-adv-x="923" 
d="M20 174q-19 56 -20.5 130.5t18.5 171.5t40.5 177t64 202t68.5 188t73 190q13 35 35 43.5t55 -4.5q78 -29 123 -74q59 -56 25 -137q-37 -95 -63 -164.5t-65.5 -179t-61 -189t-38.5 -159t-11 -126t34 -55.5q25 -9 54.5 16.5t60.5 82.5t61 124t63 162t59 174.5t56 183.5
t48 167.5t40 146.5q10 37 32.5 47t55.5 -2q74 -23 138 -73q29 -24 34 -43.5t-6 -53.5q-50 -187 -88.5 -318t-86.5 -270t-92 -231.5t-97.5 -168t-110.5 -114.5q-48 -33 -96.5 -43.5t-114.5 -7.5q-107 5 -192 70q-66 49 -95 137zM760 1882q132 0 210.5 -63t78.5 -160
q0 -150 -83.5 -231.5t-199.5 -81.5q-122 0 -209.5 62.5t-87.5 172.5q0 70 35.5 138.5t104 115.5t151.5 47zM852 1679q0 68 -49 68q-55 0 -94 -70t-39 -135q0 -61 55 -61q46 0 86.5 62.5t40.5 135.5z" />
    <glyph glyph-name="uring" unicode="&#x16f;" horiz-adv-x="923" 
d="M20 174q-19 56 -20.5 130.5t18.5 171.5t40.5 177t64 202t68.5 188t73 190q13 35 35 43.5t55 -4.5q78 -29 123 -74q59 -56 25 -137q-37 -95 -63 -164.5t-65.5 -179t-61 -189t-38.5 -159t-11 -126t34 -55.5q25 -9 54.5 16.5t60.5 82.5t61 124t63 162t59 174.5t56 183.5
t48 167.5t40 146.5q10 37 32.5 47t55.5 -2q74 -23 138 -73q29 -24 34 -43.5t-6 -53.5q-50 -187 -88.5 -318t-86.5 -270t-92 -231.5t-97.5 -168t-110.5 -114.5q-48 -33 -96.5 -43.5t-114.5 -7.5q-107 5 -192 70q-66 49 -95 137zM760 1882q132 0 210.5 -63t78.5 -160
q0 -150 -83.5 -231.5t-199.5 -81.5q-122 0 -209.5 62.5t-87.5 172.5q0 70 35.5 138.5t104 115.5t151.5 47zM852 1679q0 68 -49 68q-55 0 -94 -70t-39 -135q0 -61 55 -61q46 0 86.5 62.5t40.5 135.5z" />
    <glyph glyph-name="Uhungarumlaut" unicode="&#x170;" horiz-adv-x="923" 
d="M20 174q-19 56 -20.5 130.5t18.5 171.5t40.5 177t64 202t68.5 188t73 190q13 35 35 43.5t55 -4.5q78 -29 123 -74q59 -56 25 -137q-37 -95 -63 -164.5t-65.5 -179t-61 -189t-38.5 -159t-11 -126t34 -55.5q25 -9 54.5 16.5t60.5 82.5t61 124t63 162t59 174.5t56 183.5
t48 167.5t40 146.5q10 37 32.5 47t55.5 -2q74 -23 138 -73q29 -24 34 -43.5t-6 -53.5q-50 -187 -88.5 -318t-86.5 -270t-92 -231.5t-97.5 -168t-110.5 -114.5q-48 -33 -96.5 -43.5t-114.5 -7.5q-107 5 -192 70q-66 49 -95 137zM553 1436q-63 -41 -115 -21q-28 11 -51 31
q-34 27 6 70q47 54 136 144.5t139 127.5q26 20 40 20.5t31 -16.5q25 -25 43 -70q11 -33 8 -53t-22 -47q-29 -40 -90 -91.5t-125 -94.5zM932 1440q-37 -24 -67 -28t-62 7q-24 8 -47 27q-33 26 8 70q34 40 143.5 138.5t165.5 141.5q31 21 53 2q32 -29 45 -72q10 -29 6 -54.5
t-26 -53.5q-60 -75 -219 -178z" />
    <glyph glyph-name="uhungarumlaut" unicode="&#x171;" horiz-adv-x="923" 
d="M20 174q-19 56 -20.5 130.5t18.5 171.5t40.5 177t64 202t68.5 188t73 190q13 35 35 43.5t55 -4.5q78 -29 123 -74q59 -56 25 -137q-37 -95 -63 -164.5t-65.5 -179t-61 -189t-38.5 -159t-11 -126t34 -55.5q25 -9 54.5 16.5t60.5 82.5t61 124t63 162t59 174.5t56 183.5
t48 167.5t40 146.5q10 37 32.5 47t55.5 -2q74 -23 138 -73q29 -24 34 -43.5t-6 -53.5q-50 -187 -88.5 -318t-86.5 -270t-92 -231.5t-97.5 -168t-110.5 -114.5q-48 -33 -96.5 -43.5t-114.5 -7.5q-107 5 -192 70q-66 49 -95 137zM553 1436q-63 -41 -115 -21q-28 11 -51 31
q-34 27 6 70q47 54 136 144.5t139 127.5q26 20 40 20.5t31 -16.5q25 -25 43 -70q11 -33 8 -53t-22 -47q-29 -40 -90 -91.5t-125 -94.5zM932 1440q-37 -24 -67 -28t-62 7q-24 8 -47 27q-33 26 8 70q34 40 143.5 138.5t165.5 141.5q31 21 53 2q32 -29 45 -72q10 -29 6 -54.5
t-26 -53.5q-60 -75 -219 -178z" />
    <glyph glyph-name="Uogonek" unicode="&#x172;" horiz-adv-x="923" 
d="M193 -481q-94 0 -151.5 71t-57.5 156q0 87 54.5 139.5t164.5 102.5q-49 21 -88 49q-67 50 -95 137q-19 56 -20.5 130.5t18.5 171.5t40.5 177t64 202t68.5 188t73 190q13 35 35 43.5t55 -4.5q78 -29 123 -74q59 -56 25 -137q-37 -95 -63 -164.5t-65.5 -179t-61 -189
t-38.5 -159t-11 -126t34 -55.5q25 -9 54.5 16.5t60.5 82.5t61 124t63 162t59 174.5t56 183.5t48 167.5t40 146.5q10 37 32.5 47t55.5 -2q74 -23 138 -73q29 -24 34 -43.5t-6 -53.5q-116 -436 -212 -690t-212 -369q-35 -35 -91.5 -73t-123.5 -78.5t-94 -59.5
q-127 -91 -127 -161q0 -18 10 -27.5t23 -9.5q21 0 41.5 11.5t54 39.5t45.5 37q37 27 92 27q32 0 58 -10t26 -29q0 -18 -26 -54q-54 -71 -123.5 -113t-140.5 -42z" />
    <glyph glyph-name="uogonek" unicode="&#x173;" horiz-adv-x="923" 
d="M193 -481q-94 0 -151.5 71t-57.5 156q0 87 54.5 139.5t164.5 102.5q-49 21 -88 49q-67 50 -95 137q-19 56 -20.5 130.5t18.5 171.5t40.5 177t64 202t68.5 188t73 190q13 35 35 43.5t55 -4.5q78 -29 123 -74q59 -56 25 -137q-37 -95 -63 -164.5t-65.5 -179t-61 -189
t-38.5 -159t-11 -126t34 -55.5q25 -9 54.5 16.5t60.5 82.5t61 124t63 162t59 174.5t56 183.5t48 167.5t40 146.5q10 37 32.5 47t55.5 -2q74 -23 138 -73q29 -24 34 -43.5t-6 -53.5q-116 -436 -212 -690t-212 -369q-35 -35 -91.5 -73t-123.5 -78.5t-94 -59.5
q-127 -91 -127 -161q0 -18 10 -27.5t23 -9.5q21 0 41.5 11.5t54 39.5t45.5 37q37 27 92 27q32 0 58 -10t26 -29q0 -18 -26 -54q-54 -71 -123.5 -113t-140.5 -42z" />
    <glyph glyph-name="Ydieresis" unicode="&#x178;" horiz-adv-x="888" 
d="M967 1100q-87 -172 -457 -713q-58 -179 -121 -397q-9 -33 -24.5 -41t-47.5 2q-78 23 -124 61q-27 22 -33 46t4 69q26 118 94 365q-35 279 -106 741q-5 34 5 47.5t42 17.5q83 11 139 -2q32 -7 47.5 -27.5t24.5 -64.5q32 -164 65 -430q142 224 316 508q19 31 38 35.5
t48 -14.5q63 -40 94 -84q20 -29 18.5 -52.5t-22.5 -66.5zM383 1522q0 67 41 115.5t104 48.5q61 0 93 -34t32 -83q0 -75 -41.5 -122.5t-109.5 -47.5q-50 0 -84.5 34.5t-34.5 88.5zM723 1532q0 64 41.5 114t103.5 50q56 0 89.5 -36.5t33.5 -94.5q0 -72 -39.5 -116t-97.5 -44
q-56 0 -93.5 34.5t-37.5 92.5z" />
    <glyph glyph-name="Zacute" unicode="&#x179;" horiz-adv-x="768" 
d="M535 1026q-120 -21 -191 -35q-73 -14 -104 41q-39 81 -50 137q-6 30 1.5 42t33.5 20q107 27 265 46.5t290 22.5q34 1 51.5 -10.5t26.5 -40.5q20 -74 27 -114q7 -28 1 -58.5t-30 -60.5q-287 -352 -610 -776q130 31 205 41q76 10 96 -45q26 -73 31 -121q3 -34 -8.5 -48
t-45.5 -20q-288 -67 -374 -92q-46 -13 -73 -8.5t-54 28.5q-48 45 -89 99q-49 65 -12 125q82 132 264 377.5t349 449.5zM662 1413q-75 -15 -121 10q-35 20 -61.5 50t-26.5 49q0 13 7 20t29 14q200 67 431 183q28 13 42 8.5t25 -27.5q21 -44 21 -102q0 -52 -43 -82
q-57 -39 -143 -73.5t-160 -49.5z" />
    <glyph glyph-name="zacute" unicode="&#x17a;" horiz-adv-x="768" 
d="M535 1026q-120 -21 -191 -35q-73 -14 -104 41q-39 81 -50 137q-6 30 1.5 42t33.5 20q107 27 265 46.5t290 22.5q34 1 51.5 -10.5t26.5 -40.5q20 -74 27 -114q7 -28 1 -58.5t-30 -60.5q-287 -352 -610 -776q130 31 205 41q76 10 96 -45q26 -73 31 -121q3 -34 -8.5 -48
t-45.5 -20q-288 -67 -374 -92q-46 -13 -73 -8.5t-54 28.5q-48 45 -89 99q-49 65 -12 125q82 132 264 377.5t349 449.5zM662 1413q-75 -15 -121 10q-35 20 -61.5 50t-26.5 49q0 13 7 20t29 14q200 67 431 183q28 13 42 8.5t25 -27.5q21 -44 21 -102q0 -52 -43 -82
q-57 -39 -143 -73.5t-160 -49.5z" />
    <glyph glyph-name="Zdotaccent" unicode="&#x17b;" horiz-adv-x="768" 
d="M535 1026q-120 -21 -191 -35q-73 -14 -104 41q-39 81 -50 137q-6 30 1.5 42t33.5 20q107 27 265 46.5t290 22.5q34 1 51.5 -10.5t26.5 -40.5q20 -74 27 -114q7 -28 1 -58.5t-30 -60.5q-287 -352 -610 -776q130 31 205 41q76 10 96 -45q26 -73 31 -121q3 -34 -8.5 -48
t-45.5 -20q-288 -67 -374 -92q-46 -13 -73 -8.5t-54 28.5q-48 45 -89 99q-49 65 -12 125q82 132 264 377.5t349 449.5zM522 1544q0 67 47 123.5t115 56.5q71 0 104 -44t33 -101q0 -74 -43.5 -125t-109.5 -51q-59 0 -102.5 39.5t-43.5 101.5z" />
    <glyph glyph-name="zdotaccent" unicode="&#x17c;" horiz-adv-x="768" 
d="M535 1026q-120 -21 -191 -35q-73 -14 -104 41q-39 81 -50 137q-6 30 1.5 42t33.5 20q107 27 265 46.5t290 22.5q34 1 51.5 -10.5t26.5 -40.5q20 -74 27 -114q7 -28 1 -58.5t-30 -60.5q-287 -352 -610 -776q130 31 205 41q76 10 96 -45q26 -73 31 -121q3 -34 -8.5 -48
t-45.5 -20q-288 -67 -374 -92q-46 -13 -73 -8.5t-54 28.5q-48 45 -89 99q-49 65 -12 125q82 132 264 377.5t349 449.5zM522 1544q0 67 47 123.5t115 56.5q71 0 104 -44t33 -101q0 -74 -43.5 -125t-109.5 -51q-59 0 -102.5 39.5t-43.5 101.5z" />
    <glyph glyph-name="Zcaron" unicode="&#x17d;" horiz-adv-x="768" 
d="M535 1026q-120 -21 -191 -35q-73 -14 -104 41q-39 81 -50 137q-6 30 1.5 42t33.5 20q107 27 265 46.5t290 22.5q34 1 51.5 -10.5t26.5 -40.5q20 -74 27 -114q7 -28 1 -58.5t-30 -60.5q-287 -352 -610 -776q130 31 205 41q76 10 96 -45q26 -73 31 -121q3 -34 -8.5 -48
t-45.5 -20q-288 -67 -374 -92q-46 -13 -73 -8.5t-54 28.5q-48 45 -89 99q-49 65 -12 125q82 132 264 377.5t349 449.5zM700 1417q-39 -18 -61.5 -12.5t-46.5 35.5q-32 40 -92 124t-92 136q-16 27 -13.5 38.5t21.5 22.5q35 23 71 29q41 6 78 -16q53 -35 133 -136
q110 70 187 99q42 15 78 2q38 -15 69 -43q31 -31 -12 -68q-47 -40 -153 -111.5t-167 -99.5z" />
    <glyph glyph-name="zcaron" unicode="&#x17e;" horiz-adv-x="768" 
d="M535 1026q-120 -21 -191 -35q-73 -14 -104 41q-39 81 -50 137q-6 30 1.5 42t33.5 20q107 27 265 46.5t290 22.5q34 1 51.5 -10.5t26.5 -40.5q20 -74 27 -114q7 -28 1 -58.5t-30 -60.5q-287 -352 -610 -776q130 31 205 41q76 10 96 -45q26 -73 31 -121q3 -34 -8.5 -48
t-45.5 -20q-288 -67 -374 -92q-46 -13 -73 -8.5t-54 28.5q-48 45 -89 99q-49 65 -12 125q82 132 264 377.5t349 449.5zM700 1417q-39 -18 -61.5 -12.5t-46.5 35.5q-32 40 -92 124t-92 136q-16 27 -13.5 38.5t21.5 22.5q35 23 71 29q41 6 78 -16q53 -35 133 -136
q110 70 187 99q42 15 78 2q38 -15 69 -43q31 -31 -12 -68q-47 -40 -153 -111.5t-167 -99.5z" />
    <glyph glyph-name="florin" unicode="&#x192;" horiz-adv-x="1128" 
d="M268 -39q-97 0 -155 53q-67 56 -109.5 157.5t-42.5 166.5q0 30 16 43.5t54 13.5q73 0 113 -23t71 -83q42 -81 76 -94q53 73 123 311q-36 -8 -54 -8q-36 0 -61 43q-53 88 -53 137q0 39 49 51q70 16 188 27q66 240 115 331q64 114 130.5 166t145.5 52q55 0 130 -27
q186 -71 186 -221q0 -58 -13.5 -123t-35.5 -105q-26 -48 -82 -26q-66 27 -93.5 64t-27.5 91q0 17 3 49.5t3 39.5q0 40 -20 40q-74 0 -166 -313q45 2 92 2q40 0 61 -12t35 -41q35 -76 35 -119q0 -19 -12.5 -26t-40.5 -9q-111 -6 -232 -20q-80 -302 -121 -385
q-38 -82 -87.5 -127.5t-127.5 -63.5q-58 -12 -92 -12z" />
    <glyph glyph-name="Scommaaccent" unicode="&#x218;" horiz-adv-x="821" 
d="M-66 324q48 24 105 19.5t90 -32.5q90 -78 171 -104.5t118 8.5q10 8 10.5 19t-7 24.5t-20.5 29t-32 33t-39.5 35.5t-44 38.5t-45.5 40t-44.5 42t-39.5 41.5q-40 46 -61 102t-19 127.5t35 143.5q43 101 129.5 203.5t177.5 160.5q107 66 211 29q50 -19 99.5 -51.5
t78.5 -65.5q26 -29 38 -64.5t10.5 -64.5t-3.5 -59q-10 -70 -43.5 -172.5t-65.5 -165.5q-15 -29 -32 -36t-45 5q-161 70 -134 191q4 19 14 52.5t19 61t17.5 59t9 46t-5.5 22.5q-13 8 -47.5 -17t-72 -68t-68.5 -99t-35.5 -110t26.5 -101q23 -31 59 -65t68.5 -62t67 -58.5
t59.5 -60t41 -61.5t15 -68.5t-21 -74.5q-122 -236 -350 -236q-222 0 -381 227q-29 41 -38 68.5t-2.5 42t27.5 25.5zM63 -563v2q-33 -31 -61 -41t-72 -4q-45 7 -77 26q-37 19 -11 64q126 208 207 354q25 46 80 21q54 -24 100 -74q24 -27 26.5 -53.5t-17.5 -65.5
q-27 -52 -80.5 -119t-94.5 -110z" />
    <glyph glyph-name="scommaaccent" unicode="&#x219;" horiz-adv-x="821" 
d="M-66 324q48 24 105 19.5t90 -32.5q90 -78 171 -104.5t118 8.5q10 8 10.5 19t-7 24.5t-20.5 29t-32 33t-39.5 35.5t-44 38.5t-45.5 40t-44.5 42t-39.5 41.5q-40 46 -61 102t-19 127.5t35 143.5q43 101 129.5 203.5t177.5 160.5q107 66 211 29q50 -19 99.5 -51.5
t78.5 -65.5q26 -29 38 -64.5t10.5 -64.5t-3.5 -59q-10 -70 -43.5 -172.5t-65.5 -165.5q-15 -29 -32 -36t-45 5q-161 70 -134 191q4 19 14 52.5t19 61t17.5 59t9 46t-5.5 22.5q-13 8 -47.5 -17t-72 -68t-68.5 -99t-35.5 -110t26.5 -101q23 -31 59 -65t68.5 -62t67 -58.5
t59.5 -60t41 -61.5t15 -68.5t-21 -74.5q-122 -236 -350 -236q-222 0 -381 227q-29 41 -38 68.5t-2.5 42t27.5 25.5zM63 -563v2q-33 -31 -61 -41t-72 -4q-45 7 -77 26q-37 19 -11 64q126 208 207 354q25 46 80 21q54 -24 100 -74q24 -27 26.5 -53.5t-17.5 -65.5
q-27 -52 -80.5 -119t-94.5 -110z" />
    <glyph glyph-name="uni021A" unicode="&#x21a;" horiz-adv-x="907" 
d="M967 1081q-143 -13 -224 -22q-173 -498 -329 -1055q-9 -32 -23.5 -40t-46.5 1q-73 20 -127 60q-27 20 -33 46t4 68q31 153 103.5 410t142.5 467q-22 -4 -46 -8.5t-49 -9.5t-34 -7q-32 -7 -51.5 -0.5t-36.5 33.5q-40 66 -57 147q-6 29 3 41.5t36 18.5q139 31 338 53
t348 25q55 0 78 -33q39 -60 51 -135q5 -34 -3.5 -45.5t-43.5 -14.5zM160 -563v2q-33 -31 -61 -41t-72 -4q-46 7 -78 26q-36 19 -10 64q114 189 206 354q25 46 80 21t101 -74q24 -27 26 -53.5t-18 -65.5q-27 -52 -80.5 -119.5t-93.5 -109.5z" />
    <glyph glyph-name="uni021B" unicode="&#x21b;" horiz-adv-x="907" 
d="M967 1081q-143 -13 -224 -22q-173 -498 -329 -1055q-9 -32 -23.5 -40t-46.5 1q-73 20 -127 60q-27 20 -33 46t4 68q31 153 103.5 410t142.5 467q-22 -4 -46 -8.5t-49 -9.5t-34 -7q-32 -7 -51.5 -0.5t-36.5 33.5q-40 66 -57 147q-6 29 3 41.5t36 18.5q139 31 338 53
t348 25q55 0 78 -33q39 -60 51 -135q5 -34 -3.5 -45.5t-43.5 -14.5zM160 -563v2q-33 -31 -61 -41t-72 -4q-46 7 -78 26q-36 19 -10 64q114 189 206 354q25 46 80 21t101 -74q24 -27 26 -53.5t-18 -65.5q-27 -52 -80.5 -119.5t-93.5 -109.5z" />
    <glyph glyph-name="uni0237" unicode="&#x237;" horiz-adv-x="856" 
d="M186 -27q-174 58 -206 238q-18 110 22 244q17 58 42.5 81t66.5 1q67 -34 100 -85.5t27 -113.5q-10 -82 -5 -119.5t35 -40.5q38 -4 93.5 111.5t111 295.5t100 348.5t78.5 317.5q9 36 32 46t56 -1q89 -25 150 -71q31 -24 36.5 -43.5t-3.5 -53.5q-107 -457 -215.5 -737
t-233.5 -375q-126 -95 -287 -43z" />
    <glyph glyph-name="circumflex" unicode="&#x2c6;" horiz-adv-x="1024" 
d="M743 1389q-41 -6 -77 16q-57 37 -134 135q-107 -68 -186 -98q-42 -15 -78 -2q-38 15 -69 43q-30 30 12 67q47 40 152.5 111.5t166.5 99.5q39 18 62 13t47 -35q32 -40 92 -124t92 -136q16 -27 13.5 -39t-21.5 -23q-33 -22 -72 -28z" />
    <glyph glyph-name="caron" unicode="&#x2c7;" horiz-adv-x="1024" 
d="M496 1417q-39 -18 -62 -12.5t-47 35.5q-32 40 -92 124t-92 136q-16 27 -13.5 38.5t21.5 22.5q35 23 72 29q41 6 77 -16q55 -36 134 -136q111 71 186 99q42 15 78 2q38 -15 69 -43q31 -31 -12 -68q-47 -40 -152.5 -111.5t-166.5 -99.5z" />
    <glyph glyph-name="breve" unicode="&#x2d8;" horiz-adv-x="1024" 
d="M227 1765q11 31 41 31q25 0 59 -16.5t58 -36.5q17 -15 23.5 -50t7 -65.5t15 -55t46.5 -24.5q36 0 84 46t78 124q20 51 74 31q51 -20 73.5 -44t22.5 -56q0 -90 -70.5 -173t-175.5 -83q-84 0 -162.5 31t-133 97t-54.5 152q0 51 14 92z" />
    <glyph glyph-name="dotaccent" unicode="&#x2d9;" horiz-adv-x="1024" 
d="M362 1544q0 67 47 123.5t115 56.5q71 0 104.5 -44t33.5 -101q0 -74 -44 -125t-110 -51q-59 0 -102.5 39.5t-43.5 101.5z" />
    <glyph glyph-name="ring" unicode="&#x2da;" horiz-adv-x="1024" 
d="M514 1892q132 0 210.5 -63t78.5 -160q0 -150 -83.5 -231.5t-199.5 -81.5q-122 0 -209.5 62.5t-87.5 172.5q0 70 35.5 138.5t104 115.5t151.5 47zM606 1690q0 67 -49 67q-55 0 -94 -70t-39 -135q0 -61 55 -61q46 0 86.5 63t40.5 136z" />
    <glyph glyph-name="ogonek" unicode="&#x2db;" horiz-adv-x="1024" 
d="M684 63q14 -20 14 -45q0 -40 -29.5 -80.5t-72 -74t-85 -65t-72 -63t-29.5 -57.5q0 -14 8.5 -22t19.5 -8q22 1 49.5 19t51 39t60 38.5t73.5 17.5q32 0 58 -9.5t26 -28.5q0 -16 -27 -54q-54 -71 -123.5 -113t-140.5 -42q-87 0 -144 63.5t-57 134.5q0 74 60 137
q43 44 98 87.5t94 79t68 83.5q11 19 26 19q16 0 38 -17t36 -39z" />
    <glyph glyph-name="tilde" unicode="&#x2dc;" horiz-adv-x="1024" 
d="M754 1675q18 0 28.5 -26t10.5 -70q0 -85 -42.5 -133.5t-127.5 -48.5q-59 0 -148.5 34.5t-140.5 34.5q-35 0 -74.5 -31.5t-52.5 -31.5q-39 0 -39 94q0 87 42 136.5t128 49.5q51 0 145 -34.5t146 -34.5q35 0 73.5 30.5t51.5 30.5z" />
    <glyph glyph-name="hungarumlaut" unicode="&#x2dd;" horiz-adv-x="1024" 
d="M270 1446q-62 -41 -114 -21q-30 12 -52 31q-33 27 7 70q49 55 136.5 145t137.5 127q26 20 40.5 20.5t31.5 -16.5q26 -26 43 -69q11 -33 7.5 -53.5t-22.5 -47.5q-29 -40 -90 -91.5t-125 -94.5zM649 1450q-37 -24 -67 -28t-62 8q-26 9 -47 26q-33 26 8 70
q34 40 143.5 138.5t166.5 141.5q31 21 53 2q33 -29 45 -71q10 -30 5.5 -55.5t-26.5 -53.5q-60 -75 -219 -178z" />
    <glyph glyph-name="endash" unicode="&#x2013;" horiz-adv-x="974" 
d="M115 700q110 19 286 32t328 13q72 0 96 -53q26 -60 35 -110q4 -30 -9.5 -41t-55.5 -13q-325 -14 -568 -55q-38 -6 -62.5 2t-45.5 37q-48 67 -62 111q-20 65 58 77z" />
    <glyph glyph-name="emdash" unicode="&#x2014;" horiz-adv-x="1136" 
d="M125 700q134 19 345 32t394 13q91 0 117 -53q29 -60 39 -110q6 -30 -11 -41t-65 -13q-388 -14 -682 -55q-46 -6 -75.5 2.5t-55.5 36.5q-50 57 -74 111q-26 65 68 77z" />
    <glyph glyph-name="quoteleft" unicode="&#x2018;" horiz-adv-x="536" 
d="M315 1028q-24 58 -47.5 155.5t-29.5 170.5q-2 39 4 60.5t32 41.5q38 28 95 47q63 23 69 -41q21 -203 78 -481q7 -30 -4 -43t-41 -10q-44 6 -90 24q-46 19 -66 76z" />
    <glyph glyph-name="quoteright" unicode="&#x2019;" horiz-adv-x="475" 
d="M432 1030q-29 -53 -74 -67q-47 -13 -94 -13q-59 0 -39 58q83 248 135 469q13 58 74 32q56 -27 88 -59q23 -23 28 -49t-3 -58q-14 -69 -49 -162t-66 -151z" />
    <glyph glyph-name="quotesinglbase" unicode="&#x201a;" horiz-adv-x="434" 
d="M23 -205q-40 -46 -86 -49t-95 6q-58 12 -24 66q165 289 229 428q14 31 34 33.5t46 -17.5q48 -33 74 -74q13 -20 15.5 -38.5t-1 -32.5t-14.5 -39q-28 -67 -82.5 -152t-95.5 -131z" />
    <glyph glyph-name="quotedblleft" unicode="&#x201c;" horiz-adv-x="794" 
d="M301 1042q-31 53 -65.5 148t-47.5 166q-8 32 -3.5 57.5t28.5 48.5q30 30 88 58q60 29 74 -33q42 -187 131 -469q9 -31 0 -45t-37 -12q-59 4 -94 14q-40 12 -74 67zM596 1028q-24 58 -48 156t-30 170q-3 37 4 59.5t33 42.5q39 28 94 47q64 23 70 -41q21 -203 78 -481
q7 -30 -4 -43t-41 -10q-44 6 -90 24q-41 17 -66 76z" />
    <glyph glyph-name="quotedblright" unicode="&#x201d;" horiz-adv-x="786" 
d="M432 1030q-29 -53 -74 -67q-47 -13 -94 -13q-59 0 -39 58q83 248 135 469q13 58 74 32q56 -27 88 -59q23 -23 28 -49t-3 -58q-14 -69 -49 -162t-66 -151zM725 1010q-37 -52 -80 -60q-53 -7 -96 -2q-57 6 -31 62q123 261 187 450q21 57 77 25q54 -35 80 -68q22 -26 23 -52
t-11 -56q-21 -69 -66.5 -159t-82.5 -140z" />
    <glyph glyph-name="quotedblbase" unicode="&#x201e;" horiz-adv-x="765" 
d="M96 -178q-28 -52 -73 -66q-50 -15 -95 -12q-30 2 -38.5 15t1.5 44q81 240 136 467q14 59 75 33q49 -22 86 -59q21 -22 25.5 -48t-2.5 -59q-15 -71 -50 -165.5t-65 -149.5zM393 -197q-39 -51 -84 -59q-43 -9 -92 -2q-30 5 -38 18.5t5 44.5q42 89 99.5 226t87.5 223
q21 62 78 27q50 -29 79 -66q19 -24 21.5 -49.5t-8.5 -61.5q-20 -68 -65 -156.5t-83 -144.5z" />
    <glyph glyph-name="dagger" unicode="&#x2020;" horiz-adv-x="710" 
d="M307 852q-17 -4 -33 -8q-50 -12 -77 4q-45 26 -72 78q-19 40 29 57q65 25 217 49q73 207 92 244q19 39 67 14q96 -52 70 -141q-6 -19 -18 -51.5t-13 -36.5q54 6 82 6q43 0 65 -17t46 -65q11 -21 7 -35t-30 -20q-29 -7 -118.5 -22.5t-114.5 -20.5q-100 -274 -197 -586
q-10 -30 -26.5 -34.5t-36.5 9.5q-29 18 -48.5 50.5t-19.5 66.5q0 22 10 64q53 200 119 395z" />
    <glyph glyph-name="daggerdbl" unicode="&#x2021;" horiz-adv-x="710" 
d="M309 301q-10 -30 -26.5 -34.5t-36.5 9.5q-29 18 -48.5 50.5t-19.5 66.5q0 22 10 64q4 16 12.5 46.5t12.5 45.5q-35 -7 -41 -8q-34 -6 -53 -1t-39 25q-26 26 -41 60q-11 21 -5 37.5t36 27.5q73 26 200 45q14 49 37 117q-17 -4 -33 -8q-50 -12 -77 4q-45 26 -72 78
q-19 40 29 57q65 25 217 49q73 207 92 244q19 39 67 14q96 -52 70 -141q-6 -19 -18 -51.5t-13 -36.5q54 6 82 6q43 0 65 -17t46 -65q11 -21 7 -35t-30 -20q-29 -7 -118.5 -22.5t-114.5 -20.5q-7 -20 -22.5 -63.5t-22.5 -63.5q50 4 76 4q43 0 64.5 -16.5t45.5 -65.5
q13 -29 6.5 -42t-39.5 -17q-92 -13 -213 -37q-16 -47 -46.5 -142.5t-45.5 -142.5z" />
    <glyph glyph-name="bullet" unicode="&#x2022;" horiz-adv-x="784" 
d="M143 647q0 135 75.5 224.5t199.5 89.5q118 0 176.5 -66t58.5 -158q0 -132 -81 -225.5t-205 -93.5q-96 0 -160 63t-64 166z" />
    <glyph glyph-name="ellipsis" unicode="&#x2026;" horiz-adv-x="1538" 
d="M1147 -41q-59 18 -82.5 75t4.5 130q26 63 80 92.5t119 5.5q61 -22 80.5 -75t-2.5 -109q-24 -73 -81 -105.5t-118 -13.5zM604 -41q-59 18 -82.5 75t4.5 130q26 63 80 92.5t119 5.5q61 -22 80.5 -75t-2.5 -109q-24 -73 -81 -105.5t-118 -13.5zM61 -41q-59 18 -82 75.5
t5 129.5q26 63 79.5 92.5t118.5 5.5q61 -22 80.5 -75t-2.5 -109q-24 -73 -81 -105.5t-118 -13.5z" />
    <glyph glyph-name="perthousand" unicode="&#x2030;" horiz-adv-x="1685" 
d="M1069 1040q-152 -172 -427.5 -515.5t-393.5 -510.5q-20 -25 -32 -24t-32 24q-23 27 -32.5 52t-2.5 60.5t35 76.5q86 126 273 366.5t358 446.5q-54 -31 -111.5 -37.5t-103.5 12.5q-11 -101 -51.5 -194t-104.5 -146q-65 -52 -141 -37q-53 9 -102 45q-42 33 -58 84
q-36 110 23.5 269.5t167.5 238.5q22 17 53.5 23.5t56.5 1.5q70 -13 111 -57q20 -23 41 -70q28 -58 100 -64q62 -5 152 37t160 117q22 23 38 21.5t33 -27.5q66 -105 -10 -193zM297 735q25 -11 60 37t67 141q28 82 37 151.5t-10 84.5q-18 10 -62.5 -51t-69.5 -129
q-33 -91 -39.5 -156.5t17.5 -77.5zM1409 27q-61 -49 -141 -37q-63 11 -103 45q-37 29 -53 84q-34 114 35 280q-38 -17 -70 -4q-10 -107 -54 -210.5t-114 -157.5q-61 -49 -141 -37q-62 11 -102 45q-39 30 -54 84q-33 110 29.5 269.5t171.5 238.5q47 34 113 24q61 -10 108 -57
q37 -39 43 -96q37 -15 80 5t111 85q80 77 157 63q63 -11 109 -57q42 -44 45 -115q7 -115 -39 -250.5t-131 -201.5zM764 109q23 -9 60 39.5t71 138.5q29 78 40.5 150t-7.5 87q-18 10 -63 -51t-72 -129q-36 -91 -44.5 -157t15.5 -78zM1264 109q23 -9 60 39.5t71 138.5
q29 77 40 150t-8 87q-18 10 -63 -51t-72 -129q-36 -90 -44 -156.5t16 -78.5z" />
    <glyph glyph-name="guilsinglleft" unicode="&#x2039;" horiz-adv-x="534" 
d="M365 246q-38 -26 -64 12q-109 149 -235 277q-66 69 -11 145q56 79 157.5 169.5t180.5 125.5q47 20 88 4q37 -15 58 -39q30 -38 -11 -68q-178 -128 -282 -245q112 -112 164 -211q15 -33 16.5 -53t-10.5 -48q-19 -44 -51 -69z" />
    <glyph glyph-name="guilsinglright" unicode="&#x203a;" horiz-adv-x="587" 
d="M115 272q-39 -36 -66 -6q-20 24 -31 56q-18 51 25 102q83 98 274 231q-81 118 -198 217q-20 16 -22 29.5t14 34.5q24 27 61 45q26 12 46 10.5t46 -16.5q59 -35 131.5 -122.5t108.5 -154.5q50 -89 -31 -145q-149 -105 -358 -281z" />
    <glyph glyph-name="fraction" unicode="&#x2044;" horiz-adv-x="952" 
d="M651 1016q148 178 179.5 211t48.5 33q24 0 45.5 -42.5t21.5 -78.5q0 -52 -41 -99q-152 -172 -427.5 -515.5t-393.5 -510.5q-17 -22 -30.5 -23.5t-30.5 17.5q-41 45 -41 94q0 46 38 101q87 128 275.5 371t355.5 442z" />
    <glyph glyph-name="Euro" unicode="&#x20ac;" horiz-adv-x="1138" 
d="M760 18q-43 -37 -108.5 -56t-125.5 -13q-103 10 -200 67q-36 23 -68 60t-45 80q-27 86 -18 200q-50 -8 -84 -0.5t-58 35.5q-35 39 -47 74q-22 57 43 70q110 19 178 26q6 28 21 78q-54 -8 -87 0t-59 37q-33 37 -45 74q-19 61 60 71q97 14 211 23q127 264 288 401
q100 83 207 72q65 -6 135 -35t109 -65q40 -37 54 -80.5t12 -102.5q-1 -61 -16.5 -137.5t-35.5 -126.5q-5 -15 -9 -22.5t-13 -16t-20.5 -7.5t-32.5 3q-78 18 -111.5 59t-36.5 115q-1 22 5.5 70.5t3.5 76t-23 35.5q-28 11 -83.5 -56.5t-115.5 -174.5q78 0 107 -11t45 -42
q24 -46 24 -82q0 -18 -12.5 -24.5t-44.5 -8.5q-20 -1 -95.5 -4.5t-109.5 -5.5q-21 -53 -33 -92q31 2 88 2q53 0 77 -10.5t40 -36.5q18 -29 25 -60q7 -32 -7.5 -45t-56.5 -16q-77 -5 -211 -19q-31 -194 31 -217q29 -10 70.5 18t105.5 99q43 47 98 61t113 -6q44 -16 46 -51.5
t-27 -85.5q-51 -102 -158 -197z" />
    <glyph glyph-name="trademark" unicode="&#x2122;" horiz-adv-x="1484" 
d="M680 1124q-58 -3 -123 -10q-56 -164 -156 -512q-11 -35 -43 -35q-22 0 -56 12t-60 31q-34 24 -25 74q21 107 109 401q-43 -4 -78 -4q-41 0 -64 35t-32 74q-8 24 -1.5 40t33.5 23q62 17 197 28t248 11q31 0 42 -6.5t23 -30.5q19 -37 29 -77q8 -30 -0.5 -41.5t-42.5 -12.5z
M817 610q-5 -21 -14 -30t-29 -9q-27 0 -61.5 12.5t-55.5 28.5q-19 14 -23 36.5t3 60.5q25 153 160 532q9 25 21.5 34t33.5 9q70 0 127 -22q34 -14 50.5 -37t19.5 -64q7 -98 10 -211q44 83 103 174t102 142q22 25 41 28.5t59 -8.5q49 -16 100 -51q23 -17 27.5 -33t-4.5 -47
q-25 -86 -82.5 -289.5t-71.5 -251.5q-7 -28 -20.5 -36t-44.5 -3q-37 6 -78 29q-29 17 -37 38.5t0 62.5q24 121 59 231q-37 -67 -143 -272q-13 -27 -25 -33.5t-36 -1.5q-36 8 -56 18q-34 16 -39 66q-8 73 -12 221q-31 -101 -84 -324z" />
    <glyph glyph-name="minus" unicode="&#x2212;" horiz-adv-x="999" 
d="M786 539q-261 -16 -569 -60q-20 -4 -37.5 0t-34.5 21q-27 27 -48 71.5t-21 81.5q0 41 57 49q282 40 551 43q86 0 107 -40q38 -68 38 -136q0 -17 -9.5 -22.5t-33.5 -7.5z" />
    <glyph glyph-name="notequal" unicode="&#x2260;" horiz-adv-x="892" 
d="M739 903q62 -6 76 -53q20 -62 25 -100q3 -29 -7.5 -39.5t-39.5 -8.5q-91 3 -183 3q-46 -78 -71 -119q45 2 129 2q55 0 73 -49q21 -45 31 -99q6 -27 -3.5 -38t-39.5 -13q-162 -6 -326 -24q-36 -62 -75 -130t-75.5 -132.5t-51.5 -90.5q-14 -22 -29 -22q-17 0 -37.5 19
t-34.5 46q-15 30 -13.5 58.5t22.5 79.5q19 49 63 133q-30 -3 -47 4.5t-29 31.5q-23 43 -43 107q-9 29 4.5 47t40.5 23q90 17 209 30q4 7 32 53.5t44 71.5q-92 -8 -143 -14q-33 -3 -51 5.5t-31 35.5q-26 53 -35 108q-11 58 51 66q155 21 348 18q170 263 215 314q24 29 44 30
t40 -24q41 -51 45 -113q3 -38 -28 -80q-31 -39 -99 -137z" />
    <glyph glyph-name="commaaccent" unicode="&#xf6c3;" horiz-adv-x="1024" 
d="M532 -563v2q-33 -31 -61 -41t-72 -4q-45 7 -77 26q-37 19 -11 64q126 208 207 354q25 46 80 21q54 -24 100 -74q24 -27 26.5 -53.5t-17.5 -65.5q-27 -52 -80.5 -119t-94.5 -110z" />
    <glyph glyph-name="i.dot" horiz-adv-x="425" 
d="M340 1544q0 67 47 123.5t115 56.5q71 0 104 -44t33 -101q0 -74 -44 -125t-110 -51q-59 0 -102 39.5t-43 101.5zM479 1206q30 -24 35.5 -43.5t-6.5 -54.5q-67 -182 -174 -521t-174 -577q-9 -33 -24.5 -41.5t-47.5 0.5q-71 20 -127 60q-27 20 -33.5 44t2.5 68
q36 173 141 540t173 560q13 36 35 45.5t55 -2.5q75 -23 145 -78z" />
    <glyph glyph-name="CR" horiz-adv-x="493" 
 />
    </font>
</defs>
</svg>
