<?xml version="1.0" standalone="no"?>
<!DOCTYPE svg PUBLIC "-//W3C//DTD SVG 1.1//EN" "http://www.w3.org/Graphics/SVG/1.1/DTD/svg11.dtd" >
<svg xmlns="http://www.w3.org/2000/svg" xmlns:xlink="http://www.w3.org/1999/xlink" version="1.1">
<metadata>
Created by FontForge 20201107 at Tue Dec  6 22:39:28 2022
 By 
Pavel Larin
</metadata>
<defs>
<font id="LaroSoft-SemiBold" horiz-adv-x="631" >
  <font-face 
    font-family="Laro Soft SemiBold"
    font-weight="600"
    font-stretch="normal"
    units-per-em="1000"
    panose-1="0 0 7 0 0 0 0 0 0 0"
    ascent="800"
    descent="-200"
    x-height="500"
    cap-height="700"
    bbox="-515 -500 1177 1300"
    underline-thickness="50"
    underline-position="-100"
    unicode-range="U+0020-25CA"
  />
<missing-glyph horiz-adv-x="900" 
d="M167 1300h571v-1800h-571v1800zM599 1120v59h-297v-59h117v-67h-118v-59h298v59h-118v67h118zM481 821v126h-180v-187h298v61h-118zM360 886h59v-65h-59v65zM599 652v59h-298v-59h118v-67h-118v-59h180v126h118zM599 423v180h-59v-118h-239v-62h298zM599 180v204h-180
v-101h62v41h59v-84h-180v144h-59v-204h298zM599 -131v203h-298v-203h298zM360 13h180v-85h-180v85zM599 -232v60h-298v-60h126l-126 -84v-60h298v60h-183l126 84h57z" />
    <glyph glyph-name=".notdef" horiz-adv-x="900" 
d="M167 1300h571v-1800h-571v1800zM599 1120v59h-297v-59h117v-67h-118v-59h298v59h-118v67h118zM481 821v126h-180v-187h298v61h-118zM360 886h59v-65h-59v65zM599 652v59h-298v-59h118v-67h-118v-59h180v126h118zM599 423v180h-59v-118h-239v-62h298zM599 180v204h-180
v-101h62v41h59v-84h-180v144h-59v-204h298zM599 -131v203h-298v-203h298zM360 13h180v-85h-180v85zM599 -232v60h-298v-60h126l-126 -84v-60h298v60h-183l126 84h57z" />
    <glyph glyph-name=".null" horiz-adv-x="0" 
 />
    <glyph glyph-name="nonmarkingreturn" horiz-adv-x="333" 
 />
    <glyph glyph-name="space" unicode=" " horiz-adv-x="362" 
 />
    <glyph glyph-name="exclam" unicode="!" horiz-adv-x="281" 
d="M123 200q-9 0 -14.5 5t-5.5 14l-18 460q0 9 5.5 15t14.5 6h100q9 0 15.5 -6t5.5 -16l-19 -459q0 -9 -5.5 -14t-14.5 -5h-64zM98 11q-24 24 -24 58t24 58t58 24t58 -24t24 -58t-24 -58t-58 -24t-58 24z" />
    <glyph glyph-name="quotedbl" unicode="&#x22;" horiz-adv-x="429" 
d="M94 500q-8 0 -14 6t-6 14v223q0 8 6 14t14 6h89q11 0 17 -8t4 -19l-50 -221q-2 -7 -6.5 -11t-11.5 -4h-42zM269 500q-8 0 -14 6t-6 14v223q0 8 6 14t14 6h89q11 0 17.5 -8t4.5 -19l-51 -221q-2 -7 -6.5 -11t-11.5 -4h-42z" />
    <glyph glyph-name="numbersign" unicode="#" horiz-adv-x="957" 
d="M229 0q-12 0 -18.5 8.5t-3.5 20.5l39 137h-143q-11 0 -17.5 8t-3.5 20l18 67q1 6 6.5 10t11.5 4h160l44 155h-141q-12 0 -18.5 8.5t-3.5 20.5l19 66q1 6 6.5 10t11.5 4h157l42 147q1 6 6.5 10t11.5 4h70q12 0 18.5 -9t3.5 -20l-39 -132h163l42 147q1 6 6.5 10t11.5 4h69
q12 0 18.5 -9t3.5 -20l-38 -132h140q12 0 19 -9t3 -20l-20 -66q-1 -6 -6.5 -9.5t-11.5 -3.5h-154l-45 -157h139q12 0 19 -9.5t3 -20.5l-21 -65q-1 -6 -6.5 -9.5t-11.5 -3.5h-154l-43 -152q-1 -6 -6.5 -10t-11.5 -4h-70q-12 0 -18 9t-3 20l40 137h-163l-44 -152
q-1 -6 -6.5 -10t-11.5 -4h-69zM391 275l162 -1l46 157l-163 -1z" />
    <glyph glyph-name="dollar" unicode="$" horiz-adv-x="703" 
d="M371 -88q-10 0 -17.5 7t-7.5 18v48q-89 4 -155 39t-106 98q-4 5 -4 12q0 11 10 19l65 53q8 6 17 6q16 0 25 -15q22 -35 59.5 -55.5t88.5 -24.5v179q-73 20 -124.5 42t-87.5 63.5t-36 105.5q0 57 31.5 103.5t87.5 74t129 30.5v48q0 11 7.5 18t17.5 7h3q11 0 18 -7t7 -18
v-48q84 -4 144 -39t85 -90q2 -6 2 -8q0 -12 -10 -19l-66 -51q-7 -6 -16 -6q-16 0 -27 19q-15 27 -44 43.5t-68 20.5v-171q78 -21 131.5 -44t91 -66t37.5 -110q0 -94 -68 -149t-192 -60v-48q0 -11 -7 -18t-18 -7h-3zM346 588q-47 -4 -74.5 -27.5t-27.5 -56.5q1 -31 27 -46.5
t75 -27.5v158zM399 116q55 3 84 23t29 51q0 28 -15 45t-37 25.5t-61 19.5v-164z" />
    <glyph glyph-name="percent" unicode="%" horiz-adv-x="850" 
d="M158.5 395.5q-38.5 22.5 -61.5 61.5t-23 85t23 84.5t61.5 61.5t84.5 23t85 -23t62 -61.5t23 -84.5q0 -47 -23 -85.5t-62 -61t-85 -22.5t-84.5 22.5zM171 0q-13 0 -20.5 7t-7.5 18q0 10 7 18l505 650q5 7 13 7h43q13 0 20.5 -7t7.5 -18q0 -9 -6 -18l-504 -650
q-5 -7 -13 -7h-45zM297.5 487.5q23.5 23.5 23.5 54.5t-23 54t-55 23q-31 0 -54 -22.5t-23 -54.5q0 -31 23 -54.5t54 -23.5t54.5 23.5zM552 13q-39 23 -62 62t-23 85q0 45 23 84.5t62 62.5t85 23t85 -23t62 -62t23 -85q0 -47 -23 -86t-62 -61.5t-85 -22.5t-85 23z
M690.5 106.5q22.5 22.5 22.5 53.5t-22.5 53.5t-53.5 22.5q-32 0 -54.5 -22t-22.5 -54t22.5 -54t54.5 -22q31 0 53.5 22.5z" />
    <glyph glyph-name="ampersand" unicode="&#x26;" horiz-adv-x="865" 
d="M808 9q-8 -9 -21 -9h-102q-9 0 -15.5 5.5t-8.5 13.5q-12 49 -61 101q-59 -73 -128.5 -105t-156.5 -32q-113 0 -177.5 53.5t-64.5 144.5q0 75 50.5 123.5t138.5 81.5q-42 37 -63.5 73.5t-21.5 77.5q0 58 30.5 99t82 62t114.5 21q66 0 115 -21t76 -59t27 -87
q0 -68 -40.5 -108.5t-110.5 -69.5q86 -58 121 -84q37 47 84.5 79t104.5 38q11 1 19 -7t8 -19v-100q0 -11 -7 -17.5t-18 -7.5q-24 -2 -49.5 -13.5t-46.5 -27.5l4 -3q103 -96 122 -182q3 -12 -5 -21zM342.5 586q-27.5 -21 -27.5 -60q0 -27 19.5 -51t57.5 -52q49 23 75 48
t26 59q0 37 -25.5 57t-61.5 20t-63.5 -21zM514 195q-41 32 -79.5 59.5t-48.5 34.5q-41 27 -53 36q-48 -26 -73.5 -51.5t-25.5 -62.5q0 -45 35 -71.5t86 -26.5q95 0 159 82z" />
    <glyph glyph-name="quotesingle" unicode="'" horiz-adv-x="253" 
d="M94 500q-8 0 -14 6t-6 14v223q0 8 6 14t14 6h89q11 0 17 -8t4 -19l-50 -221q-2 -7 -6.5 -11t-11.5 -4h-42z" />
    <glyph glyph-name="parenleft" unicode="(" horiz-adv-x="383" 
d="M252 -180q-4 -3 -10 -3q-10 0 -16 9q-71 111 -111.5 231t-40.5 262t40.5 262t111.5 231q6 9 16 9q4 0 10 -3l69 -38q11 -6 11 -17q0 -7 -4 -12q-52 -88 -79.5 -200t-27.5 -232t27.5 -232.5t79.5 -199.5q4 -5 4 -12q0 -12 -11 -18z" />
    <glyph glyph-name="parenright" unicode=")" horiz-adv-x="383" 
d="M93 -143q-11 6 -11 18q0 7 4 12q53 86 79.5 198.5t26.5 233.5t-26.5 233t-79.5 199q-4 5 -4 12q0 11 11 17l68 38q6 3 10 3q10 0 16 -9q72 -111 112.5 -231t40.5 -262t-40.5 -262t-112.5 -231q-6 -9 -16 -9q-5 0 -10 3z" />
    <glyph glyph-name="asterisk" unicode="*" horiz-adv-x="447" 
d="M229 541q-9 0 -15.5 7t-5.5 16l6 81l-54 -63q-6 -7 -16 -7q-9 0 -14 5l-16 15q-6 6 -6 15q0 10 7 16l63 55l-81 -7h-2q-9 0 -15 6t-6 15v20q0 9 7 15.5t16 5.5l81 -6l-62 54q-8 6 -8 16q0 8 7 15l15 14q6 6 14 6q10 0 16 -8l54 -63l-6 84v2q0 8 6.5 14t14.5 6h19
q9 0 15.5 -6.5t5.5 -15.5l-6 -84l55 63q6 8 15 8q8 0 15 -7l13 -13q7 -7 7 -16t-7 -15l-63 -54l82 6h2q8 0 14.5 -6.5t6.5 -14.5v-20q0 -10 -6.5 -16t-16.5 -5l-82 7l63 -55q8 -8 8 -16t-7 -15l-14 -14q-7 -7 -15 -7q-10 0 -16 8l-54 63l6 -81v-2q0 -8 -6.5 -14.5
t-14.5 -6.5h-19z" />
    <glyph glyph-name="plus" unicode="+" horiz-adv-x="512" 
d="M235 154q-8 0 -14 6t-6 14v122h-121q-8 0 -14 6t-6 14v71q0 8 6 14t14 6h121v122q0 8 6 14t14 6h71q8 0 14 -6t6 -14v-122h123q8 0 14 -6t6 -14v-71q0 -8 -6 -14t-14 -6h-123v-122q0 -8 -6 -14t-14 -6h-71z" />
    <glyph glyph-name="comma" unicode="," horiz-adv-x="281" 
d="M127 -89q0 10 7 24q12 30 11 53q-30 4 -50.5 27t-20.5 54q0 34 24 58t58 24q37 0 60.5 -27.5t21.5 -64.5q-3 -44 -25.5 -85t-52.5 -72q-7 -7 -18 -7q-5 0 -8 2q-7 4 -7 14z" />
    <glyph glyph-name="hyphen" unicode="-" horiz-adv-x="544" 
d="M94 295q-8 0 -14 6t-6 14v70q0 8 6 14t14 6h385q8 0 14 -6t6 -14v-70q0 -8 -6 -14t-14 -6h-385z" />
    <glyph glyph-name="period" unicode="." horiz-adv-x="281" 
d="M98 11q-24 24 -24 58t24 58t58 24t58 -24t24 -58t-24 -58t-58 -24t-58 24z" />
    <glyph glyph-name="slash" unicode="/" horiz-adv-x="538" 
d="M103 -161q-11 0 -17.5 8t-3.5 20l258 939q1 6 6.5 10t11.5 4h108q11 0 17.5 -8t3.5 -20l-259 -939q-1 -6 -6.5 -10t-11.5 -4h-107z" />
    <glyph glyph-name="zero" unicode="0" horiz-adv-x="697" 
d="M210 34q-69 50 -109 134t-40 182t40 182t109 134t151 50q81 0 149.5 -50t108.5 -134t40 -182t-40 -182t-108.5 -134t-149.5 -50q-82 0 -151 50zM435.5 156q34.5 30 55 81.5t20.5 112.5t-20.5 114t-55 84.5t-74.5 31.5t-75 -31.5t-56 -84.5t-21 -114t21 -112.5t56 -81.5
t75 -30t74.5 30z" />
    <glyph glyph-name="one" unicode="1" horiz-adv-x="424" 
d="M221 0q-10 0 -17.5 7.5t-7.5 17.5v506l-52 -51q-7 -7 -18 -7q-12 0 -19 8l-47 52q-7 9 -7 17q0 10 8 18l129 126q6 6 14 6h114q11 0 18 -7t7 -18v-650q0 -10 -7 -17.5t-18 -7.5h-97z" />
    <glyph glyph-name="two" unicode="2" horiz-adv-x="633" 
d="M88 0q-10 0 -17.5 7.5t-7.5 17.5v65q2 54 33.5 96.5t76 73t112.5 68.5q56 32 88 53t53.5 47.5t21.5 56.5q0 43 -34 69t-92 26q-39 0 -70 -15t-47 -44q-4 -7 -10 -11t-12 -4q-3 0 -9 2l-84 31q-17 7 -17 22q0 3 2 9q26 68 93.5 107t160.5 39q76 0 136.5 -25t95 -72.5
t34.5 -111.5q0 -63 -33 -110.5t-79.5 -80t-123.5 -75.5q-64 -36 -100 -60t-59 -53h363q11 0 18 -7t7 -18v-78q0 -10 -7 -17.5t-18 -7.5h-475z" />
    <glyph glyph-name="three" unicode="3" horiz-adv-x="691" 
d="M184 19.5q-77 35.5 -113 101.5q-3 5 -3 10q0 15 15 23l85 42q6 3 10 3q12 0 22 -13q24 -33 70 -51.5t100 -18.5q62 0 97.5 27.5t35.5 76.5q0 45 -32 70t-97 25h-34q-10 0 -17.5 7.5t-7.5 17.5v53q0 11 7.5 18.5t17.5 7.5h5q44 0 72.5 23.5t28.5 59.5q0 39 -28.5 62
t-72.5 23q-36 0 -66 -15.5t-47 -43.5q-8 -13 -22 -13q-5 0 -8 1l-86 31q-17 6 -17 23q0 4 2 10q29 63 94 99.5t154 36.5q73 0 129 -26.5t86.5 -72.5t30.5 -103q0 -41 -19.5 -76t-56.5 -55q61 -12 97.5 -58.5t36.5 -109.5q0 -113 -82.5 -172t-213.5 -59q-96 0 -173 35.5z" />
    <glyph glyph-name="four" unicode="4" horiz-adv-x="622" 
d="M404 0q-10 0 -17.5 7.5t-7.5 17.5v183h-293q-10 0 -17.5 7.5t-7.5 17.5v91q0 7 5 14l305 355q7 7 16 7h112q11 0 18.5 -7.5t7.5 -17.5v-358h23q11 0 18 -7t7 -18v-58q0 -11 -7 -18.5t-17 -7.5h-24v-183q0 -10 -7 -17.5t-18 -7.5h-96zM379 553l-198 -236h198v236z" />
    <glyph glyph-name="five" unicode="5" horiz-adv-x="642" 
d="M174.5 20.5q-70.5 35.5 -103.5 100.5q-3 6 -3 11q0 7 4 13t10 9l84 41q6 3 12 3q12 0 22 -15q20 -32 54.5 -49.5t78.5 -16.5q60 3 93 37t33 88q0 59 -42.5 91.5t-127.5 32.5q-65 0 -153 -17q-14 -3 -24 4.5t-10 21.5v300q0 11 7.5 18t17.5 7h407q11 0 18 -7t7 -18v-76
q0 -11 -7.5 -18.5t-17.5 -7.5h-310v-117q58 8 109 8q140 0 206 -57.5t66 -171.5q0 -77 -35 -133.5t-97.5 -86.5t-142.5 -30q-85 0 -155.5 35.5z" />
    <glyph glyph-name="six" unicode="6" horiz-adv-x="663" 
d="M208.5 22q-63.5 38 -99.5 103q-48 85 -48 209q0 103 40 190.5t114.5 139t172.5 51.5q44 0 99 -17t94 -58q7 -7 7 -16q0 -10 -9 -19l-47 -43q-6 -6 -15 -6q-8 0 -16 5q-51 37 -112 37q-55 0 -100 -30t-69 -85t-19 -126q16 52 68 84t113 32q69 0 124 -30.5t86.5 -84.5
t31.5 -122t-35.5 -126t-97 -91.5t-134.5 -33.5q-85 -1 -148.5 37zM442.5 147q38.5 36 38.5 89q0 52 -38 88t-92 36t-91.5 -35t-37.5 -89q0 -53 35.5 -89t91.5 -36q55 0 93.5 36z" />
    <glyph glyph-name="seven" unicode="7" horiz-adv-x="597" 
d="M163 0q-13 0 -22 8.5t-9 20.5q0 8 4 15l264 529h-313q-11 0 -18.5 7.5t-7.5 17.5v77q0 11 7.5 18t17.5 7h456q11 0 18 -7t7 -18v-97q0 -3 -2 -9l-274 -556q-6 -13 -20 -13h-108z" />
    <glyph glyph-name="eight" unicode="8" horiz-adv-x="680" 
d="M201 14.5q-66 26.5 -103 78t-37 122.5q0 60 35.5 110.5t92.5 62.5q-37 21 -56 54.5t-19 73.5q0 57 29.5 101.5t84.5 69.5t127 25q63 0 116.5 -25t85.5 -69.5t32 -101.5q0 -40 -18.5 -73.5t-55.5 -55.5q57 -12 92 -62t35 -110q0 -105 -75.5 -166t-213.5 -61
q-86 0 -152 26.5zM417.5 448q24.5 22 24.5 56q0 35 -25.5 59.5t-63.5 24.5q-40 0 -65 -24.5t-25 -59.5t25.5 -56.5t65.5 -21.5q39 0 63.5 22zM454 148.5q37 31.5 37 81.5q0 44 -32.5 75t-87.5 31h-39q-54 0 -87.5 -30.5t-33.5 -75.5q0 -50 37.5 -81.5t103.5 -31.5
q65 0 102 31.5z" />
    <glyph glyph-name="nine" unicode="9" horiz-adv-x="663" 
d="M198 2q-54 17 -94 58q-7 7 -7 16q0 10 9 19l47 42q8 6 15 6q9 0 16 -6q49 -35 112 -35q56 0 100.5 29.5t68.5 84.5t19 127q-16 -53 -67 -85.5t-112 -32.5q-70 0 -125.5 31t-87 85.5t-31.5 122.5t36 125.5t98 91.5t135 34q85 0 147.5 -38t98.5 -103q48 -83 48 -210
q0 -102 -39.5 -189t-113.5 -138.5t-172 -51.5q-47 0 -101 17zM426 374q37 35 37 90q0 53 -36 89t-92 36q-54 -1 -91.5 -37.5t-37.5 -87.5q0 -52 37.5 -88.5t90.5 -36.5q55 0 92 35z" />
    <glyph glyph-name="colon" unicode=":" horiz-adv-x="281" 
d="M98 371.5q-24 24.5 -24 58.5q0 33 24 57t58 24t58 -24t24 -57q0 -34 -24 -58.5t-58 -24.5t-58 24.5zM98 11q-24 24 -24 58t24 58t58 24t58 -24t24 -58t-24 -58t-58 -24t-58 24z" />
    <glyph glyph-name="semicolon" unicode=";" horiz-adv-x="281" 
d="M98 371.5q-24 24.5 -24 58.5q0 33 24 57t58 24t58 -24t24 -57q0 -34 -24 -58.5t-58 -24.5t-58 24.5zM127 -89q0 10 7 24q12 30 11 53q-30 4 -50.5 27t-20.5 54q0 34 24 58t58 24q37 0 60.5 -27.5t21.5 -64.5q-3 -44 -25.5 -85t-52.5 -72q-7 -7 -18 -7q-5 0 -8 2
q-7 4 -7 14z" />
    <glyph glyph-name="less" unicode="&#x3c;" horiz-adv-x="505" 
d="M84 323q-10 5 -10 16v40q0 11 10 16l341 168q6 3 12 3q10 0 16.5 -7t6.5 -17l2 -76q0 -11 -10 -16l-178 -89l178 -91q10 -5 10 -16l-2 -76q0 -10 -6.5 -17t-16.5 -7q-5 0 -11 3z" />
    <glyph glyph-name="equal" unicode="=" horiz-adv-x="512" 
d="M94 401q-8 0 -14 6t-6 14v70q0 8 6 14t14 6h355q8 0 14 -6t6 -14v-70q0 -8 -6 -14t-14 -6h-355zM94 185q-8 0 -14 6t-6 14v69q0 8 6 14t14 6h355q8 0 14 -6t6 -14v-69q0 -8 -6 -14t-14 -6h-355z" />
    <glyph glyph-name="greater" unicode="&#x3e;" horiz-adv-x="505" 
d="M110 157q-6 -3 -11 -3q-10 0 -17 7t-7 18l-1 75q0 11 10 16l178 91l-178 89q-10 5 -10 16l1 75q0 10 6.5 17t15.5 7q7 0 13 -3l342 -167q10 -5 10 -16v-40q0 -11 -10 -16z" />
    <glyph glyph-name="question" unicode="?" horiz-adv-x="597" 
d="M262 193q-8 0 -14 6t-6 15q1 43 15 74t33.5 51.5t49.5 45.5q39 32 57.5 57t18.5 64q0 41 -30 68.5t-78 27.5q-35 0 -63 -17.5t-41 -48.5q-3 -8 -9.5 -11.5t-14.5 -1.5l-85 21q-9 2 -13.5 9.5t-1.5 16.5q23 65 85 104t145 39q71 0 126 -23t85.5 -66.5t30.5 -101.5
q0 -42 -15 -73.5t-37 -52.5t-57 -47q-46 -34 -71 -63t-31 -74q-1 -8 -6 -13.5t-13 -5.5h-60zM236.5 11q-23.5 24 -23.5 58t23.5 58t57.5 24t58 -24t24 -58t-23.5 -58t-58.5 -24q-34 0 -57.5 24z" />
    <glyph glyph-name="at" unicode="@" horiz-adv-x="852" 
d="M261.5 2.5q-87.5 50.5 -137.5 138.5t-50 194q0 107 51 194.5t140 138t199 50.5q98 0 176.5 -43.5t123 -119t44.5 -167.5q0 -32 -4 -57q-10 -62 -41 -109t-74 -72.5t-88 -25.5q-42 0 -69.5 20t-32.5 59q-26 -28 -58 -44t-65 -16q-59 0 -95.5 46t-36.5 117q0 22 5 50
q11 55 41.5 101.5t72 74t85.5 27.5q35 0 62 -19t41 -52l15 57q1 6 6.5 10t11.5 4h19q12 0 18.5 -8t3.5 -20l-72 -273q-3 -13 -3 -25q0 -26 15.5 -37t40.5 -11q47 0 86 41.5t50 111.5q4 23 4 51q0 75 -36 136.5t-100 97t-144 35.5q-94 0 -169.5 -42.5t-118 -116t-42.5 -164.5
q0 -90 41.5 -163.5t115 -116.5t164.5 -43q70 0 133 29q6 3 11 3q11 0 16 -11l10 -18q2 -3 2 -10q0 -13 -9 -17q-71 -36 -163 -36q-108 0 -195.5 50.5zM436 222.5q29 21.5 51 57.5t29 76q4 28 4 41q0 47 -20 75.5t-55 28.5q-28 0 -57 -21.5t-50.5 -57.5t-27.5 -76
q-5 -25 -5 -43q0 -45 20.5 -73.5t53.5 -28.5q28 0 57 21.5z" />
    <glyph glyph-name="A" unicode="A" horiz-adv-x="765" 
d="M72 0q-13 0 -21.5 8.5t-8.5 20.5q0 7 2 11l250 645q2 7 8.5 11t13.5 4h135q7 0 13.5 -4t8.5 -11l249 -645q2 -4 2 -12q0 -12 -8 -20t-21 -8h-104q-7 0 -13.5 4t-8.5 11l-54 141h-265l-54 -141q-2 -7 -8.5 -11t-13.5 -4h-102zM383 507l-84 -221h168z" />
    <glyph glyph-name="B" unicode="B" horiz-adv-x="744" 
d="M91 0q-11 0 -18.5 7.5t-7.5 17.5v650q0 11 7.5 18t17.5 7h302q116 0 176.5 -50.5t60.5 -137.5q0 -40 -17.5 -74t-49.5 -55q57 -20 92 -66t35 -106q0 -62 -29.5 -109.5t-84 -74.5t-126.5 -27h-358zM380 419q44 0 73 22.5t29 58.5q0 38 -27 58t-75 20h-168v-159h168z
M436 122q44 0 74 26.5t30 67.5q0 42 -30 67.5t-74 25.5h-224v-187h224z" />
    <glyph glyph-name="C" unicode="C" horiz-adv-x="777" 
d="M235 34.5q-87 47.5 -135.5 130.5t-48.5 185t48.5 185t135.5 130.5t197 47.5q89 0 161.5 -32t125.5 -91q6 -7 6 -16q0 -10 -9 -19l-72 -61q-7 -6 -17 -6q-11 0 -20 10q-63 73 -175 73q-66 0 -118.5 -29t-82.5 -79.5t-30 -112.5t30 -112.5t82.5 -79.5t118.5 -29
q112 0 175 73q9 10 21 10q9 0 16 -6l72 -61q10 -9 10 -20q0 -6 -5 -13q-53 -60 -126.5 -92.5t-162.5 -32.5q-110 0 -197 47.5z" />
    <glyph glyph-name="D" unicode="D" horiz-adv-x="786" 
d="M91 0q-11 0 -18.5 7.5t-7.5 17.5v650q0 11 7.5 18t17.5 7h271q115 0 200 -46t130 -125.5t45 -178.5t-45 -178.5t-130 -125.5t-200 -46h-270zM361 139q65 0 116 24.5t80.5 72.5t29.5 114t-29.5 114t-80.5 72.5t-116 24.5h-149v-422h149z" />
    <glyph glyph-name="E" unicode="E" horiz-adv-x="676" 
d="M91 0q-11 0 -18.5 7.5t-7.5 17.5v650q0 11 7.5 18t17.5 7h496q11 0 18 -7t7 -18v-81q0 -11 -7.5 -18.5t-17.5 -7.5h-374v-148h275q11 0 18.5 -7.5t7.5 -17.5v-90q0 -10 -7 -17.5t-18 -7.5h-276v-148h373q11 0 18.5 -7.5t7.5 -17.5v-81q0 -11 -7.5 -18.5t-17.5 -7.5h-495z
" />
    <glyph glyph-name="F" unicode="F" horiz-adv-x="655" 
d="M90 0q-10 0 -17.5 7.5t-7.5 17.5v650q0 11 7.5 18t17.5 7h496q11 0 18 -7t7 -18v-81q0 -11 -7.5 -18.5t-17.5 -7.5h-374v-155h275q11 0 18.5 -7.5t7.5 -17.5v-89q0 -10 -7 -17.5t-18 -7.5h-276v-248q0 -11 -7.5 -18.5t-17.5 -7.5h-97z" />
    <glyph glyph-name="G" unicode="G" horiz-adv-x="801" 
d="M235 34.5q-87 47.5 -135.5 130.5t-48.5 185t48.5 185t135.5 130.5t197 47.5q183 0 287 -116q6 -7 6 -16q0 -10 -9 -19l-72 -61q-7 -6 -17 -6q-11 0 -20 10q-59 66 -175 66q-66 0 -118.5 -29t-82.5 -79.5t-30 -112.5q0 -67 32 -120.5t88 -83.5t126 -30q109 0 174 73v91
h-172q-10 0 -17.5 7.5t-7.5 17.5v71q0 11 7.5 18t17.5 7h272q11 0 18 -7t7 -18v-256q0 -9 -7 -15q-70 -63 -141.5 -90.5t-165.5 -27.5q-110 0 -197 47.5z" />
    <glyph glyph-name="H" unicode="H" horiz-adv-x="764" 
d="M90 0q-10 0 -17.5 7.5t-7.5 17.5v650q0 11 7.5 18t17.5 7h97q11 0 18 -7t7 -18v-251h340v250q0 11 7.5 18.5t17.5 7.5h97q11 0 18 -7t7 -18v-650q0 -10 -7 -17.5t-18 -7.5h-97q-10 0 -17.5 7.5t-7.5 17.5v257h-340v-257q0 -10 -7 -17.5t-18 -7.5h-97z" />
    <glyph glyph-name="I" unicode="I" horiz-adv-x="277" 
d="M90 0q-10 0 -17.5 7.5t-7.5 17.5v650q0 11 7.5 18t17.5 7h97q11 0 18 -7t7 -18v-650q0 -10 -7 -17.5t-18 -7.5h-97z" />
    <glyph glyph-name="J" unicode="J" horiz-adv-x="648" 
d="M155 18q-64 34 -105 94q-5 7 -5 13q0 11 10 19l70 57q9 7 17 7q14 0 23 -14q24 -32 58.5 -48.5t74.5 -16.5q39 0 72 18.5t53 52t20 77.5v398q0 11 7.5 18t17.5 7h97q11 0 18 -7t7 -18v-375q0 -101 -38.5 -172t-105.5 -107.5t-154 -36.5q-73 0 -137 34z" />
    <glyph glyph-name="K" unicode="K" horiz-adv-x="717" 
d="M90 0q-10 0 -17.5 7.5t-7.5 17.5v650q0 11 7.5 18t17.5 7h97q11 0 18 -7t7 -18v-251h96l220 268q6 8 16 8h82q16 0 25.5 -9.5t9.5 -22.5q0 -14 -8 -23l-236 -292l237 -298q8 -9 8 -23q0 -13 -9.5 -22.5t-25.5 -9.5h-95q-10 0 -16 8l-217 270h-87v-253q0 -10 -7 -17.5
t-18 -7.5h-97z" />
    <glyph glyph-name="L" unicode="L" horiz-adv-x="659" 
d="M91 0q-11 0 -18.5 7.5t-7.5 17.5v650q0 11 7.5 18t17.5 7h97q11 0 18 -7t7 -18v-543h373q11 0 18.5 -7.5t7.5 -17.5v-81q0 -11 -7.5 -18.5t-17.5 -7.5h-495z" />
    <glyph glyph-name="M" unicode="M" horiz-adv-x="944" 
d="M90 0q-10 0 -17.5 7.5t-7.5 17.5v650q0 11 7.5 18t17.5 7h110q13 0 19 -11l253 -437l253 437q6 11 19 11h109q11 0 18.5 -7.5t7.5 -17.5v-650q0 -10 -7 -17.5t-18 -7.5h-97q-10 0 -17.5 7.5t-7.5 17.5v404l-189 -324q-6 -11 -19 -11h-105q-13 0 -19 11l-188 324v-404
q0 -10 -7 -17.5t-18 -7.5h-97z" />
    <glyph glyph-name="N" unicode="N" horiz-adv-x="765" 
d="M90 0q-10 0 -17.5 7.5t-7.5 17.5v650q0 11 7.5 18t17.5 7h112q10 0 17 -9l334 -452v436q0 11 7.5 18t17.5 7h97q11 0 18 -7t7 -18v-650q0 -10 -7 -17.5t-18 -7.5h-111q-10 0 -17 9l-335 452v-436q0 -10 -7 -17.5t-18 -7.5h-97z" />
    <glyph glyph-name="O" unicode="O" horiz-adv-x="860" 
d="M234.5 34.5q-86.5 47.5 -135 130.5t-48.5 185t48.5 185t135 130.5t195.5 47.5t195 -47.5t134.5 -130.5t48.5 -185t-48.5 -185t-134.5 -130.5t-195 -47.5t-195.5 47.5zM547 158q52 29 81.5 79.5t29.5 112.5t-29.5 112.5t-81.5 79.5t-117 29t-117 -29t-82 -79.5t-30 -112.5
t30 -112.5t82 -79.5t117 -29t117 29z" />
    <glyph glyph-name="P" unicode="P" horiz-adv-x="689" 
d="M90 0q-10 0 -17.5 7.5t-7.5 17.5v650q0 11 7.5 18t17.5 7h294q80 0 139 -32.5t90 -88.5t31 -124q0 -67 -31 -123t-90 -89t-139 -33h-172v-184q0 -11 -7.5 -18.5t-17.5 -7.5h-97zM371 344q57 0 91.5 30.5t34.5 80.5q0 49 -34.5 80t-91.5 31h-159v-222h159z" />
    <glyph glyph-name="Q" unicode="Q" horiz-adv-x="860" 
d="M237 34.5q-87 47.5 -136.5 130.5t-49.5 185t49.5 185t136.5 130.5t193 47.5t192.5 -47.5t136 -130.5t49.5 -185q0 -66 -22.5 -125t-62.5 -106l44 -42q8 -8 8 -19q0 -12 -9 -20l-55 -49q-9 -7 -17 -7q-9 0 -17 8l-52 50q-87 -53 -195 -53q-106 0 -193 47.5zM514 157
l-24 23q-8 7 -8 19q0 14 10 21l58 47q8 6 17 6t15 -6l32 -30q44 49 44 113q0 62 -30 112.5t-82 79.5t-116 29q-65 0 -117.5 -29t-82 -79.5t-29.5 -112.5t29.5 -112.5t82 -79.5t117.5 -29q46 0 84 28z" />
    <glyph glyph-name="R" unicode="R" horiz-adv-x="729" 
d="M90 0q-10 0 -17.5 7.5t-7.5 17.5v650q0 11 7.5 18t17.5 7h330q74 0 129.5 -31.5t85 -85t29.5 -119.5q0 -72 -37 -129t-104 -82l114 -207q4 -7 4 -16q0 -12 -8.5 -21t-22.5 -9h-98q-13 0 -19 11l-123 217h-158v-203q0 -10 -7 -17.5t-18 -7.5h-97zM407 362q49 0 78.5 27.5
t29.5 73.5t-29.5 74.5t-78.5 28.5h-195v-204h195z" />
    <glyph glyph-name="S" unicode="S" horiz-adv-x="685" 
d="M65 95q-6 8 -6 16q0 12 9 19l68 58q8 6 17 6q12 0 21 -9q61 -71 171 -71q65 0 102 21t37 53q0 26 -21 44.5t-52 30.5t-88 29q-80 24 -130.5 46t-86.5 62.5t-36 104.5q0 61 34 108.5t96 73.5t142 26q85 0 148.5 -27t98.5 -75q5 -7 5 -13q0 -11 -10 -19l-69 -55
q-7 -6 -16 -6q-13 0 -24 14q-21 27 -58 42.5t-80 15.5q-54 0 -87.5 -24t-33.5 -59q0 -22 19 -37t47 -25.5t82 -26.5q82 -23 135.5 -46t92 -66.5t38.5 -111.5q0 -98 -75 -152.5t-209 -54.5q-181 0 -281 108z" />
    <glyph glyph-name="T" unicode="T" horiz-adv-x="682" 
d="M294 0q-11 0 -18.5 7.5t-7.5 17.5v528h-194q-11 0 -18.5 7.5t-7.5 17.5v97q0 11 7.5 18t17.5 7h536q11 0 18 -7t7 -18v-97q0 -10 -7 -17.5t-18 -7.5h-193v-527q0 -11 -7.5 -18.5t-17.5 -7.5h-97z" />
    <glyph glyph-name="U" unicode="U" horiz-adv-x="772" 
d="M220 25q-73 38 -114 106.5t-41 155.5v388q0 11 7.5 18t17.5 7h97q11 0 18 -7t7 -18v-389q0 -72 47 -114.5t127 -42.5q81 0 127 42.5t46 114.5v388q0 11 7.5 18.5t17.5 7.5h98q11 0 18 -7t7 -18v-388q0 -87 -41 -155.5t-114 -106.5t-166 -38t-166 38z" />
    <glyph glyph-name="V" unicode="V" horiz-adv-x="765" 
d="M317 0q-7 0 -13.5 4t-8.5 11l-251 645q-2 4 -2 11q0 12 8.5 20.5t21.5 8.5h102q7 0 13.5 -4t8.5 -11l187 -492l186 492q2 7 8.5 11t13.5 4h103q13 0 21.5 -8.5t8.5 -20.5q0 -7 -2 -11l-251 -645q-2 -7 -8.5 -11t-13.5 -4h-132z" />
    <glyph glyph-name="W" unicode="W" horiz-adv-x="1184" 
d="M314 0q-7 0 -13.5 4t-8.5 11l-248 645q-2 4 -2 12q0 12 8 20t21 8h103q7 0 13.5 -4t8.5 -11l176 -465l140 463q2 8 8 12.5t14 4.5h118q8 0 14 -4.5t8 -12.5l140 -463l176 465q2 7 8.5 11t13.5 4h102q13 0 21 -8t8 -20q0 -8 -2 -12l-249 -645q-2 -7 -8.5 -11t-13.5 -4
h-121q-8 0 -14.5 4.5t-8.5 12.5l-133 452l-133 -452q-2 -8 -8.5 -12.5t-14.5 -4.5h-123z" />
    <glyph glyph-name="X" unicode="X" horiz-adv-x="823" 
d="M130 0q-15 0 -24.5 9t-9.5 22q0 11 7 21l217 298l-217 298q-7 10 -7 21q0 13 9.5 22t24.5 9h106q10 0 17 -9l158 -217l158 217q7 9 17 9h107q15 0 24.5 -9t9.5 -22q0 -11 -7 -21l-217 -298l217 -298q7 -10 7 -21q0 -13 -9.5 -22t-24.5 -9h-107q-10 0 -17 9l-158 217
l-158 -217q-7 -9 -17 -9h-106z" />
    <glyph glyph-name="Y" unicode="Y" horiz-adv-x="729" 
d="M317 0q-11 0 -18.5 7.5t-7.5 17.5v265l-240 360q-6 9 -6 19q0 13 9 22t24 9h103q12 0 18 -10l166 -256l165 256q6 10 18 10h103q15 0 24 -9t9 -22q0 -10 -6 -19l-239 -360v-265q0 -10 -7 -17.5t-18 -7.5h-97z" />
    <glyph glyph-name="Z" unicode="Z" horiz-adv-x="708" 
d="M90 0q-10 0 -17.5 7.5t-7.5 17.5v111q0 7 5 14l354 409h-334q-10 0 -17.5 7.5t-7.5 17.5v91q0 11 7.5 18t17.5 7h527q11 0 18.5 -7.5t7.5 -17.5v-111q0 -7 -5 -14l-361 -409h341q11 0 18 -7t7 -18v-91q0 -10 -7 -17.5t-18 -7.5h-528z" />
    <glyph glyph-name="bracketleft" unicode="[" horiz-adv-x="368" 
d="M94 -194q-8 0 -14 6t-6 14v1023q0 8 6 14t14 6h210q8 0 14 -6t6 -14v-69q0 -8 -6 -14t-14 -6h-84v-844h84q8 0 14 -6t6 -14v-70q0 -8 -6 -14t-14 -6h-210z" />
    <glyph glyph-name="backslash" unicode="\" horiz-adv-x="538" 
d="M358 -161q-6 0 -11.5 4t-6.5 10l-258 939q-3 12 3.5 20t17.5 8h107q6 0 11.5 -4t6.5 -10l259 -939q3 -12 -3.5 -20t-17.5 -8h-108z" />
    <glyph glyph-name="bracketright" unicode="]" horiz-adv-x="368" 
d="M94 -194q-8 0 -14 6t-6 14v70q0 8 6 14t14 6h83v844h-83q-8 0 -14 6t-6 14v69q0 8 6 14t14 6h210q8 0 14 -6t6 -14v-1023q0 -8 -6 -14t-14 -6h-210z" />
    <glyph glyph-name="asciicircum" unicode="^" horiz-adv-x="480" 
d="M116 700q-11 0 -18 6.5t-7 16.5q0 7 4 14l119 213q5 9 15 9h53q10 0 15 -9l119 -213q4 -7 4 -14q0 -10 -7 -16.5t-18 -6.5h-69q-5 0 -10 3t-7 8l-53 121l-55 -121q-2 -5 -7 -8t-10 -3h-68z" />
    <glyph glyph-name="underscore" unicode="_" horiz-adv-x="739" 
d="M94 -140q-8 0 -14 6t-6 14v69q0 8 6 14t14 6h581q8 0 14 -6t6 -14v-69q0 -8 -6 -14t-14 -6h-581z" />
    <glyph glyph-name="grave" unicode="`" horiz-adv-x="394" 
d="M248 772q-9 0 -13 6l-122 143q-8 10 -8 19q0 11 8 18.5t21 7.5h99q12 0 16 -9l81 -148q4 -8 4 -13q0 -10 -7.5 -17t-18.5 -7h-60z" />
    <glyph glyph-name="a" unicode="a" horiz-adv-x="607" 
d="M89.5 27.5q-48.5 41.5 -48.5 114.5q0 71 56.5 116t163.5 45q80 0 146 -24v11q0 60 -29 89.5t-91 29.5q-69 0 -136 -38q-5 -4 -13 -4q-13 0 -21 11l-30 42q-5 8 -5 16q0 15 13 22q105 56 225 56q113 0 173.5 -50t60.5 -146v-293q0 -10 -7 -17.5t-18 -7.5h-78
q-10 0 -17.5 7.5t-7.5 17.5v25q-33 -27 -85.5 -45.5t-108.5 -18.5q-94 0 -142.5 41.5zM352.5 91q38.5 15 55.5 33v79q-44 21 -96 21q-124 0 -124 -74q-3 -74 88 -74q38 0 76.5 15z" />
    <glyph glyph-name="b" unicode="b" horiz-adv-x="637" 
d="M251 11q-48 23 -79 66v-52q0 -10 -7 -17.5t-18 -7.5h-67q-11 0 -18.5 7.5t-7.5 17.5v650q0 11 7.5 18t17.5 7h96q11 0 18 -7t7 -18v-224q59 61 159 61q68 0 122 -34t84.5 -93.5t30.5 -134.5q0 -74 -30.5 -134t-85 -94t-121.5 -34q-60 0 -108 23zM414 145q35 39 35 105
t-35 105t-94 39q-41 0 -71.5 -18.5t-48.5 -52.5v-145q18 -34 48.5 -53t71.5 -19q59 0 94 39z" />
    <glyph glyph-name="c" unicode="c" horiz-adv-x="558" 
d="M171 20q-64 33 -97 93t-33 139q0 76 33.5 135t98 92.5t152.5 33.5q109 0 185 -54q10 -6 10 -19q0 -8 -6 -16l-41 -54q-7 -10 -20 -10q-8 0 -16 5q-46 32 -106 32q-65 0 -104 -42.5t-39 -104.5t39 -104t104 -42q60 0 106 32q8 5 16 5q13 0 20 -10l42 -54q7 -8 7 -18
q0 -8 -6 -13q-76 -59 -191 -59q-90 0 -154 33z" />
    <glyph glyph-name="d" unicode="d" horiz-adv-x="637" 
d="M156.5 22q-54.5 34 -85 94t-30.5 134q0 75 30.5 135t85 93.5t122.5 33.5q99 0 158 -61v224q0 11 7.5 18t17.5 7h97q11 0 18 -7t7 -18v-650q0 -10 -7 -17.5t-18 -7.5h-67q-11 0 -18.5 7.5t-7.5 17.5v52q-32 -43 -80 -66t-107 -23q-68 0 -122.5 34zM389.5 125
q30.5 19 47.5 53v145q-17 34 -47.5 52.5t-72.5 18.5q-59 0 -94 -39t-35 -105t35 -105t94 -39q42 0 72.5 19z" />
    <glyph glyph-name="e" unicode="e" 
d="M174.5 20q-64.5 34 -99 94t-34.5 136t34 136t98 94t151 34q120 0 187 -61t79 -168v-21q0 -10 -7 -17.5t-18 -7.5h-372q0 -41 20 -75.5t55.5 -54.5t78.5 -20q66 0 122 36q8 5 15 5q12 0 19 -9l34 -42q7 -8 7 -18q0 -8 -6 -13q-38 -30 -94 -46t-119 -16q-86 0 -150.5 34z
M441 327q-13 43 -42 67t-75 24q-47 0 -79.5 -24.5t-47.5 -66.5h244z" />
    <glyph glyph-name="f" unicode="f" horiz-adv-x="425" 
d="M92 0q-10 0 -17.5 7.5t-7.5 17.5v361h-25q-11 0 -18.5 7.5t-7.5 17.5v64q0 11 7.5 18t17.5 7h26v26q0 103 51 150.5t150 47.5q52 0 114 -15q8 -1 13 -8t5 -15v-61q0 -12 -8 -20t-20 -8q-5 0 -8 1q-32 7 -63 7q-43 0 -65 -18.5t-22 -65.5v-21h97q11 0 18 -7t7 -18v-64
q0 -10 -7 -17.5t-18 -7.5h-97v-361q0 -10 -7 -17.5t-18 -7.5h-97z" />
    <glyph glyph-name="g" unicode="g" horiz-adv-x="643" 
d="M106 -282q-59 38 -61 107q0 35 17.5 66.5t52.5 50.5q-65 30 -65 102q0 31 17.5 59.5t53.5 63.5q-38 25 -57.5 63.5t-19.5 85.5q0 88 66 141.5t188 56.5h32l226 36q13 2 22 -6t9 -21v-35q0 -10 -7 -17.5t-18 -7.5h-59q84 -50 84 -147q0 -92 -68.5 -145.5t-202.5 -53.5
q-72 0 -127 19q-42 -29 -42 -54q0 -22 17 -30t51 -8q19 0 81 4q28 2 42 4q11 1 38 3t47 2q95 0 145.5 -43.5t46.5 -121.5q-2 -67 -53 -113.5t-129 -70t-162 -24.5q-106 -4 -165 34zM412 237q35 30 35 79t-35 79t-96 30t-95.5 -30t-34.5 -79t35 -79t95 -30q61 0 96 30z
M454.5 -205.5q55.5 22.5 58.5 67.5q9 67 -103 67q-55 0 -97 -3t-50 -4l-25 -2q-21 -8 -34 -26.5t-13 -41.5q0 -35 28.5 -56t83.5 -22q96 -2 151.5 20.5z" />
    <glyph glyph-name="h" unicode="h" 
d="M79 0q-10 0 -17.5 7.5t-7.5 17.5v650q0 11 7.5 18t17.5 7h96q11 0 18 -7t7 -18v-269q42 55 96.5 81t113.5 26q93 0 131.5 -48t38.5 -143v-297q0 -10 -7 -17.5t-18 -7.5h-97q-10 0 -17.5 7.5t-7.5 17.5v246q0 60 -21.5 90t-75.5 30q-43 0 -79.5 -25.5t-56.5 -68.5v-272
q0 -10 -7 -17.5t-18 -7.5h-96z" />
    <glyph glyph-name="i" unicode="i" horiz-adv-x="254" 
d="M66.5 582q-24.5 25 -24.5 61q0 35 24.5 60t60.5 25q35 0 60.5 -25t25.5 -60q0 -36 -25.5 -61t-60.5 -25q-36 0 -60.5 25zM79 0q-10 0 -17.5 7.5t-7.5 17.5v450q0 11 7.5 18t17.5 7h96q11 0 18 -7t7 -18v-450q0 -10 -7 -17.5t-18 -7.5h-96z" />
    <glyph glyph-name="j" unicode="j" horiz-adv-x="248" 
d="M66.5 582q-24.5 25 -24.5 61q0 35 24.5 60t60.5 25q35 0 60.5 -25t25.5 -60q0 -36 -25.5 -61t-60.5 -25q-36 0 -60.5 25zM-35.5 -267q-6.5 7 -6.5 17v66q0 10 7.5 17t18.5 8q39 3 54.5 24.5t15.5 63.5v546q0 11 7.5 18t17.5 7h96q11 0 18 -7t7 -18v-554
q0 -104 -53 -153.5t-166 -42.5q-10 1 -16.5 8z" />
    <glyph glyph-name="k" unicode="k" horiz-adv-x="585" 
d="M79 0q-10 0 -17.5 7.5t-7.5 17.5v650q0 11 7.5 18t17.5 7h96q11 0 18 -7t7 -18v-349h47l170 168q6 6 15 6h74q17 0 27 -10t10 -24q0 -15 -11 -26l-175 -184l178 -195q10 -11 10 -26q0 -13 -10 -23t-26 -10h-88q-9 0 -15 7l-159 171h-47v-155q0 -10 -7 -17.5t-18 -7.5h-96
z" />
    <glyph glyph-name="l" unicode="l" horiz-adv-x="254" 
d="M79 0q-10 0 -17.5 7.5t-7.5 17.5v650q0 11 7.5 18t17.5 7h96q11 0 18 -7t7 -18v-650q0 -10 -7 -17.5t-18 -7.5h-96z" />
    <glyph glyph-name="m" unicode="m" horiz-adv-x="913" 
d="M79 0q-10 0 -17.5 7.5t-7.5 17.5v450q0 11 7.5 18t17.5 7h84q11 0 18 -7t7 -18v-86q41 68 92.5 97.5t115.5 26.5q56 -1 87.5 -29t43.5 -83q77 118 199 112q72 -1 104 -47.5t32 -135.5v-304q0 -11 -7.5 -18.5t-17.5 -7.5h-97q-10 0 -17.5 7.5t-7.5 17.5v255q0 57 -17.5 84
t-55.5 27q-36 0 -65 -25.5t-46 -68.5q2 -22 2 -33v-239q0 -10 -7 -17.5t-18 -7.5h-98q-10 0 -17.5 7.5t-7.5 17.5v255q0 56 -18 83.5t-55 27.5q-36 0 -65.5 -25.5t-46.5 -68.5v-272q0 -10 -7 -17.5t-18 -7.5h-96z" />
    <glyph glyph-name="n" unicode="n" horiz-adv-x="635" 
d="M83 0q-10 0 -17.5 7.5t-7.5 17.5v450q0 11 7.5 18t17.5 7h83q11 0 18 -7t7 -18v-86q44 64 102 94t121 30q93 0 132 -48t39 -143v-297q0 -10 -7 -17.5t-18 -7.5h-98q-10 0 -17.5 7.5t-7.5 17.5v246q0 61 -21.5 90.5t-75.5 29.5q-43 0 -79.5 -25.5t-56.5 -68.5v-272
q0 -10 -7 -17.5t-18 -7.5h-96z" />
    <glyph glyph-name="o" unicode="o" horiz-adv-x="643" 
d="M169 20q-63 34 -95.5 93.5t-32.5 136.5t32.5 136.5t95.5 93.5t152 34t152.5 -34t96 -93.5t32.5 -136.5t-32.5 -136.5t-96 -93.5t-152.5 -34t-152 34zM419.5 146.5q35.5 40.5 35.5 103.5t-35.5 103.5t-98.5 40.5q-62 0 -97.5 -40.5t-35.5 -103.5t35.5 -103.5t97.5 -40.5
q63 0 98.5 40.5z" />
    <glyph glyph-name="p" unicode="p" horiz-adv-x="637" 
d="M79 -250q-10 0 -17.5 7t-7.5 18v699q0 11 7.5 18.5t17.5 7.5h67q11 0 18.5 -7.5t7.5 -17.5v-52q31 44 78.5 66.5t108.5 22.5q68 0 122 -34t84.5 -93.5t30.5 -134.5q0 -74 -30.5 -134t-85 -94t-121.5 -34q-49 0 -89.5 16.5t-69.5 46.5v-275q0 -11 -7.5 -18.5t-17.5 -7.5
h-96zM414 145q35 39 35 105t-35 105t-94 39q-41 0 -71.5 -18.5t-48.5 -52.5v-145q18 -34 48.5 -53t71.5 -19q59 0 94 39z" />
    <glyph glyph-name="q" unicode="q" horiz-adv-x="637" 
d="M462 -250q-10 0 -17.5 7t-7.5 18v276q-61 -63 -158 -63q-68 0 -122.5 34t-85 94t-30.5 134q0 75 30.5 135t85 93.5t122.5 33.5q60 0 107.5 -22.5t79.5 -66.5v52q0 11 7.5 18t17.5 7h67q11 0 18.5 -7.5t7.5 -17.5v-699q0 -11 -7.5 -18.5t-17.5 -7.5h-97zM389.5 125
q30.5 19 47.5 53v145q-17 34 -47.5 52.5t-72.5 18.5q-59 0 -94 -39t-35 -105t35 -105t94 -39q42 0 72.5 19z" />
    <glyph glyph-name="r" unicode="r" horiz-adv-x="434" 
d="M79 0q-10 0 -17.5 7.5t-7.5 17.5v450q0 11 7.5 18t17.5 7h84q11 0 18 -7t7 -18v-90q75 112 190 120q11 1 18.5 -6t7.5 -19v-82q0 -13 -9 -20.5t-23 -5.5q-20 2 -30 2q-105 0 -142 -87v-262q0 -10 -7 -17.5t-18 -7.5h-96z" />
    <glyph glyph-name="s" unicode="s" horiz-adv-x="550" 
d="M53 40q-11 8 -11 20q0 10 6 17l42 52q8 9 19 9q8 0 15 -4q33 -22 73.5 -32t78.5 -10q41 0 66 12.5t25 36.5q0 21 -25.5 33t-85.5 29q-62 16 -103.5 32.5t-71 47.5t-29.5 80q0 69 59.5 109.5t162.5 40.5q123 0 203 -54q10 -7 10 -20q0 -9 -6 -17l-41 -51q-7 -9 -19 -9
q-9 0 -17 5q-57 41 -126 41q-34 0 -57 -14.5t-23 -36.5q0 -23 28 -36.5t90 -32.5q63 -19 102 -35t67.5 -45t28.5 -73q0 -79 -64 -113.5t-172 -34.5q-142 0 -225 53z" />
    <glyph glyph-name="t" unicode="t" horiz-adv-x="408" 
d="M113 38q-50 50 -50 158v190h-22q-10 0 -17.5 7.5t-7.5 17.5v64q0 10 7 17.5t17 7.5h23v95q0 11 7.5 18t17.5 7h98q11 0 18 -7t7 -18v-95h107q11 0 18 -7t7 -18v-64q0 -10 -7 -17.5t-18 -7.5h-107v-181q0 -54 24 -77.5t77 -23.5q9 0 16 1t13 1q13 0 21.5 -7.5t8.5 -19.5
v-58q0 -8 -5.5 -15t-14.5 -8q-47 -10 -85 -10q-103 0 -153 50z" />
    <glyph glyph-name="u" unicode="u" 
d="M89.5 35q-38.5 48 -38.5 143v297q0 11 7.5 18t17.5 7h97q11 0 18 -7t7 -18v-246q0 -60 21.5 -90t75.5 -30q43 0 80 25.5t56 68.5v272q0 11 7.5 18t17.5 7h97q11 0 18 -7t7 -18v-450q0 -10 -7 -17.5t-18 -7.5h-84q-10 0 -17.5 7.5t-7.5 17.5v86q-43 -65 -101 -94.5
t-122 -29.5q-93 0 -131.5 48z" />
    <glyph glyph-name="v" unicode="v" horiz-adv-x="665" 
d="M278 0q-14 0 -20 13l-204 445q-3 8 -3 14q0 12 8.5 20t21.5 8h102q7 0 13 -4t8 -10l128 -310l127 310q2 6 8 10t13 4h103q13 0 22 -8t9 -20q0 -6 -3 -14l-204 -445q-6 -13 -20 -13h-109z" />
    <glyph glyph-name="w" unicode="w" horiz-adv-x="952" 
d="M258 0q-14 0 -21 14l-186 445q-3 6 -3 13q0 12 8.5 20t21.5 8h105q7 0 13.5 -4t8.5 -11l113 -302l96 301q2 7 8 11.5t14 4.5h79q8 0 14 -4.5t8 -11.5l97 -301l112 302q2 7 8 11t14 4h105q13 0 21.5 -8t8.5 -20q0 -7 -3 -13l-187 -445q-7 -14 -21 -14h-102q-8 0 -14 4.5
t-8 11.5l-92 282l-91 -282q-2 -7 -8 -11.5t-14 -4.5h-105z" />
    <glyph glyph-name="x" unicode="x" horiz-adv-x="669" 
d="M119 0q-15 0 -25 9.5t-10 22.5q0 11 8 22l151 196l-150 196q-8 11 -8 23q0 13 9.5 22t24.5 9h97q10 0 17 -9l102 -139l101 139q7 9 17 9h97q15 0 24.5 -9t9.5 -22q0 -12 -8 -23l-150 -196l151 -196q8 -11 8 -22q0 -13 -10 -22.5t-25 -9.5h-97q-11 0 -17 9l-101 146
l-102 -146q-6 -9 -17 -9h-97z" />
    <glyph glyph-name="y" unicode="y" horiz-adv-x="653" 
d="M103.5 -238.5q-7.5 7.5 -7.5 18.5v75q0 10 7.5 17.5t18.5 8.5q44 2 80 20t53 51l20 47l-229 457q-4 7 -4 15q0 12 9 20.5t22 8.5h103q14 0 20 -13l145 -310l110 308q5 15 21 15h105q13 0 21.5 -8.5t8.5 -20.5q0 -7 -2 -11l-196 -502q-39 -107 -104.5 -154t-182.5 -50
q-11 0 -18.5 7.5z" />
    <glyph glyph-name="z" unicode="z" horiz-adv-x="579" 
d="M79 0q-10 0 -17.5 7.5t-7.5 17.5v92q0 8 7 15l270 243h-252q-10 0 -17.5 7.5t-7.5 17.5v75q0 11 7.5 18t17.5 7h422q11 0 18 -7t7 -18v-91q0 -8 -7 -15l-265 -245h247q11 0 18 -7t7 -18v-74q0 -10 -7 -17.5t-18 -7.5h-422z" />
    <glyph glyph-name="braceleft" unicode="{" horiz-adv-x="369" 
d="M275 -186q-76 1 -115.5 44t-39.5 104q0 41 4 123t4 123q0 20 -2 62q-1 26 -43 52q-4 2 -6.5 4.5t-2.5 3.5v2q27 16 39 29t13 31q2 42 2 63q0 41 -4 125t-4 126q0 38 16.5 73t51 57t85.5 22h31q8 0 14 -6t6 -14v-44q0 -7 -5.5 -12t-13.5 -7q-24 -5 -35 -22t-11 -41
q0 -35 2 -105l1 -103q0 -51 -3 -104q-3 -43 -44 -71q20 -13 31.5 -31t12.5 -37q3 -51 3 -100l-1 -99q-2 -66 -2 -100q0 -26 9.5 -43t35.5 -21q20 -3 20 -20v-44q0 -8 -6 -14t-14 -6h-29z" />
    <glyph glyph-name="bar" unicode="|" horiz-adv-x="264" 
d="M94 -206q-8 0 -14 6t-6 14v866q0 8 6 14t14 6h107q8 0 14 -6t6 -14v-866q0 -8 -6 -14t-14 -6h-107z" />
    <glyph glyph-name="braceright" unicode="}" horiz-adv-x="369" 
d="M94 -186q-8 0 -14 6t-6 14v44q0 17 20 20q27 4 36.5 21t9.5 43l-1 106q-2 70 -2 105q0 28 2 88q1 19 13.5 37t32.5 31q-44 29 -45 71q-3 59 -3 117q0 65 1 97l1 98q0 54 -46 63q-8 2 -13.5 7t-5.5 12v44q0 8 6 14t14 6h31q51 0 86 -22t52 -57t17 -73q0 -42 -4 -124
t-4 -124q0 -22 2 -66q0 -16 10 -28t32 -27q8 -5 8 -7v-3q-25 -15 -37.5 -28.5t-12.5 -28.5q-2 -44 -2 -66q0 -41 4 -121t4 -121q0 -61 -39.5 -104t-116.5 -44h-30z" />
    <glyph glyph-name="asciitilde" unicode="~" horiz-adv-x="681" 
d="M509 268q-42 0 -82 8t-90 22q-86 25 -134 25q-35 0 -62 -12q-4 -2 -11 -2q-14 0 -18 11l-30 61q-2 3 -2 9q0 13 10 17q50 25 113 25q39 0 77 -7.5t85 -20.5q95 -27 144 -27q36 0 61 11q4 2 11 2q13 0 17 -11l30 -61q2 -6 2 -8q0 -13 -15 -21q-45 -21 -106 -21z" />
    <glyph glyph-name="exclamdown" unicode="&#xa1;" horiz-adv-x="281" 
d="M98 378.5q-24 24.5 -24 58.5t24 58t58 24t58 -24t24 -58t-24 -58.5t-58 -24.5t-58 24.5zM106 -194q-9 0 -15 6t-6 15l18 459q0 9 5.5 14t14.5 5h64q9 0 14.5 -5t5.5 -14l19 -458q0 -9 -6 -15.5t-15 -6.5h-99z" />
    <glyph glyph-name="cent" unicode="&#xa2;" horiz-adv-x="641" 
d="M349 -61q-10 0 -17.5 7t-7.5 18v31q-69 7 -126.5 45.5t-90.5 100t-33 132.5t33 132t90.5 100t126.5 46v66q0 11 7.5 18t17.5 7h4q11 0 18 -7t7 -18v-65q62 -6 115.5 -37.5t88.5 -82.5q4 -5 4 -13q0 -15 -14 -23l-55 -31q-6 -3 -12 -3q-12 0 -21 11q-19 25 -46.5 41.5
t-59.5 20.5v-322q34 4 62 20t46 42q9 12 22 12q6 0 12 -3l55 -31q7 -4 10.5 -10t3.5 -12q0 -8 -4 -13q-35 -52 -90 -85.5t-117 -37.5v-31q0 -11 -7 -18t-18 -7h-4zM324 431q-55 -9 -91.5 -54t-36.5 -104t36.5 -103.5t91.5 -54.5v316z" />
    <glyph glyph-name="sterling" unicode="&#xa3;" horiz-adv-x="705" 
d="M186 0q-11 0 -18.5 6.5t-7.5 15.5v17q0 3 2 9q40 75 42 146q0 26 -4.5 50.5t-13.5 57.5h-87q-10 0 -17.5 7.5t-7.5 17.5v35q0 11 7.5 18t17.5 7h65q-15 50 -15 96q0 73 35 125.5t96 80t137 27.5q88 0 150 -38t87 -102l2 -8q0 -10 -10 -18l-58 -43q-9 -6 -17 -6
q-18 0 -27 20q-16 33 -46 52t-70 19q-55 0 -89.5 -33t-34.5 -91q0 -28 7 -81h161q11 0 18.5 -7.5t7.5 -17.5v-35q0 -10 -7 -17.5t-18 -7.5h-164q3 -18 3 -38q0 -30 -7 -57q-10 -43 -49 -94h327q13 0 20.5 -7.5t7.5 -19.5q0 -6 -1 -9l-17 -60q-2 -8 -8.5 -12.5t-14.5 -4.5
h-384z" />
    <glyph glyph-name="currency" unicode="&#xa4;" horiz-adv-x="695" 
d="M214 47l-43 -42q-8 -8 -18 -8t-18 8l-41 40q-8 8 -8 18q0 8 8 18l43 44q-47 64 -47 148q0 85 47 149l-43 43q-8 8 -8 18t8 18l41 41q8 8 18 8q11 0 18 -8l43 -43q64 47 149 47q87 0 149 -47l43 43q8 8 18 8t18 -8l41 -41q8 -8 8 -18q0 -8 -8 -18l-42 -43q47 -69 47 -149
q0 -79 -47 -148l42 -44q7 -7 7 -17t-8 -18l-40 -40q-8 -8 -19 -8q-10 0 -17 7l-43 42q-69 -47 -149 -47q-78 0 -149 47zM438.5 143.5q34.5 20.5 55 55t20.5 74.5q0 42 -20.5 76.5t-55 54.5t-75.5 20t-75.5 -20t-54.5 -54.5t-20 -76.5q0 -40 20 -74.5t54.5 -55t75.5 -20.5
t75.5 20.5z" />
    <glyph glyph-name="yen" unicode="&#xa5;" horiz-adv-x="810" 
d="M371 0q-10 0 -17.5 7.5t-7.5 17.5v177h-159q-11 0 -18.5 7.5t-7.5 17.5v15q0 11 7.5 18.5t17.5 7.5h160v22l-31 50h-129q-10 0 -17.5 7.5t-7.5 17.5v15q0 11 7.5 18t17.5 7h86l-164 245q-7 11 -7 20q0 12 9.5 21t24.5 9h102q12 0 18 -10l166 -256l165 256q6 10 18 10h102
q15 0 24.5 -9t9.5 -21q0 -9 -7 -20l-164 -245h87q11 0 18 -7t7 -18v-15q0 -10 -7 -17.5t-18 -7.5h-129l-32 -50v-22h160q11 0 18.5 -7.5t7.5 -17.5v-15q0 -11 -7.5 -18.5t-17.5 -7.5h-161v-177q0 -10 -7 -17.5t-18 -7.5h-99z" />
    <glyph glyph-name="brokenbar" unicode="&#xa6;" horiz-adv-x="264" 
d="M94 280q-8 0 -14 6t-6 14v372q0 8 6 14t14 6h107q8 0 14 -6t6 -14v-372q0 -8 -6 -14t-14 -6h-107zM94 -203q-8 0 -14 6t-6 14v379q0 8 6 14t14 6h107q8 0 14 -6t6 -14v-379q0 -8 -6 -14t-14 -6h-107z" />
    <glyph glyph-name="section" unicode="&#xa7;" horiz-adv-x="576" 
d="M177 -10q-53 28 -77 80l-2 8q0 7 5 13t13 8l87 17h3q13 0 18 -13q11 -23 31.5 -35t44.5 -12q34 0 54 17.5t20 44.5q0 34 -24.5 50t-78.5 33q-9 2 -27 8l-19 7q-50 18 -80 33t-50.5 41t-20.5 65q0 27 15 51t42 41q-33 36 -33 92q0 47 27.5 83.5t75.5 57t106 20.5
q67 0 120.5 -28.5t78.5 -80.5q2 -6 2 -9q0 -7 -5 -13t-13 -7l-87 -17h-4q-13 0 -18 13q-10 23 -30.5 35.5t-45.5 12.5q-33 0 -53.5 -18t-20.5 -44q0 -24 12.5 -38.5t32 -23.5t56.5 -21l28 -9l19 -7q48 -17 77.5 -31.5t50.5 -38.5t24 -59q2 -29 -13 -56t-43 -46
q32 -39 32 -91q0 -47 -28 -83.5t-75 -57t-105 -20.5q-69 0 -122 28zM456 284q0 26 -31 41t-95 32q-58 14 -97 27.5t-67 35.5q-16 -23 -16 -43q0 -25 31.5 -41t94.5 -32q60 -15 97 -27.5t65 -34.5q16 22 18 42z" />
    <glyph glyph-name="dieresis" unicode="&#xa8;" horiz-adv-x="542" 
d="M101 785.5q-27 26.5 -27 64.5q0 37 27 63.5t65 26.5q37 0 64 -26.5t27 -63.5t-26.5 -64t-64.5 -27t-65 26.5zM342 785.5q-27 26.5 -27 64.5q0 37 27 63.5t65 26.5t65 -26.5t27 -63.5q0 -38 -27 -64.5t-65 -26.5t-65 26.5z" />
    <glyph glyph-name="copyright" unicode="&#xa9;" horiz-adv-x="899" 
d="M268.5 12.5q-89.5 52.5 -142 142t-52.5 195.5t52.5 195.5t142 142t196.5 52.5q106 0 195.5 -52.5t142 -142t52.5 -195.5t-52.5 -195.5t-142 -142t-195.5 -52.5q-107 0 -196.5 52.5zM622 78q72 42 114.5 114t42.5 158t-42.5 158t-114.5 114t-157 42q-86 0 -158 -42
t-114.5 -114t-42.5 -158t42.5 -158t114.5 -114t158 -42q85 0 157 42zM362 166.5q-49 28.5 -77.5 77t-28.5 106.5t28.5 106.5t77.5 77t107 28.5q49 0 93 -22t74 -61q5 -7 5 -12q0 -11 -11 -17l-52 -31q-4 -3 -10 -3q-9 0 -15 8q-16 17 -38 27t-46 10q-47 0 -79.5 -32
t-32.5 -79t32.5 -79t79.5 -32q25 0 47 10t37 29q6 8 17 8q6 0 10 -3l52 -31q11 -6 11 -17q0 -5 -5 -12q-30 -39 -74.5 -62t-94.5 -23q-58 0 -107 28.5z" />
    <glyph glyph-name="guillemotleft" unicode="&#xab;" horiz-adv-x="931" 
d="M395 15q-7 0 -12 5l-295 295q-7 9 -7 14q0 7 7 14l292 291q5 5 12 5h105q13 0 21.5 -8t8.5 -19q0 -12 -10 -22l-261 -262l264 -264q10 -10 10 -22q0 -11 -8.5 -19t-22.5 -8h-104zM713 15q-7 0 -12 5l-296 294q-7 9 -7 15q0 8 7 15l293 290q5 5 12 5h105q14 0 22.5 -8
t8.5 -19q0 -12 -10 -22l-262 -262l264 -264q10 -10 10 -22q0 -11 -8.5 -19t-22.5 -8h-104z" />
    <glyph glyph-name="logicalnot" unicode="&#xac;" horiz-adv-x="681" 
d="M547 148q-8 0 -14 6t-6 14v124h-433q-8 0 -14 6t-6 14v70q0 8 6 14t14 6h522q8 0 14 -6t6 -14v-214q0 -8 -6 -14t-14 -6h-69z" />
    <glyph glyph-name="registered" unicode="&#xae;" horiz-adv-x="663" 
d="M210 441.5q-63 36.5 -99.5 99.5t-36.5 137t36.5 137t99.5 99.5t137 36.5t137 -36.5t99.5 -99.5t36.5 -137t-36.5 -137t-99.5 -99.5t-137 -36.5t-137 36.5zM463 478.5q53 30.5 83.5 83.5t30.5 116t-30.5 116t-83.5 83.5t-116 30.5t-116 -30.5t-83.5 -83.5t-30.5 -116
t30.5 -116t83.5 -83.5t116 -30.5t116 30.5zM266 537q-8 0 -14 6t-6 14v251q0 8 6 14t14 6h103q43 0 71.5 -24.5t28.5 -64.5q0 -28 -14.5 -49.5t-40.5 -30.5l55 -95q4 -5 4 -12t-4.5 -11t-11.5 -4h-18q-10 0 -15 9l-59 104h-71v-93q0 -8 -6 -14t-14 -6h-8zM379 698
q19 0 30 11.5t11 29.5t-13 29t-34 11h-79v-81h85z" />
    <glyph glyph-name="macron" unicode="&#xaf;" horiz-adv-x="486" 
d="M94 775q-8 0 -14 6t-6 14v70q0 8 6 14t14 6h329q8 0 14 -6t6 -14v-70q0 -8 -6 -14t-14 -6h-329z" />
    <glyph glyph-name="degree" unicode="&#xb0;" horiz-adv-x="480" 
d="M164.5 525.5q-41.5 24.5 -66 66t-24.5 90.5t24.5 91t66 67t90.5 25t90.5 -24.5t66 -66.5t24.5 -92q0 -49 -24.5 -90.5t-66 -66t-90.5 -24.5t-90.5 24.5zM309.5 628.5q22.5 22.5 22.5 53.5q0 32 -22.5 54.5t-54.5 22.5t-54.5 -22.5t-22.5 -54.5q0 -31 22.5 -53.5
t54.5 -22.5t54.5 22.5z" />
    <glyph glyph-name="plusminus" unicode="&#xb1;" horiz-adv-x="512" 
d="M235 231q-8 0 -14 6t-6 14v123h-121q-8 0 -14 6t-6 14v70q0 8 6 14t14 6h121v121q0 8 6 14t14 6h71q8 0 14 -6t6 -14v-121h123q8 0 14 -6t6 -14v-70q0 -8 -6 -14t-14 -6h-123v-123q0 -8 -6 -14t-14 -6h-71zM94 80q-8 0 -14 6t-6 14v69q0 8 6 14t14 6h355q8 0 14 -6t6 -14
v-69q0 -8 -6 -14t-14 -6h-355z" />
    <glyph glyph-name="acute" unicode="&#xb4;" horiz-adv-x="394" 
d="M116 772q-11 0 -18.5 7t-7.5 17q0 5 4 13l81 148q5 9 16 9h99q13 0 21 -8t8 -18t-8 -20l-123 -142q-5 -6 -13 -6h-59z" />
    <glyph glyph-name="paragraph" unicode="&#xb6;" horiz-adv-x="678" 
d="M265 -200q-11 0 -18.5 7.5t-7.5 17.5v479q-52 0 -89.5 28t-56.5 73.5t-19 97.5q0 51 19.5 96t58 73t92.5 28h104q11 0 18.5 -7.5t7.5 -17.5v-850q0 -11 -7 -18t-18 -7h-84zM513 -200q-11 0 -18.5 7.5t-7.5 17.5v850q0 11 7.5 18t17.5 7h98q11 0 18 -7t7 -18v-850
q0 -11 -7 -18t-18 -7h-97z" />
    <glyph glyph-name="periodcentered" unicode="&#xb7;" horiz-adv-x="291" 
d="M99.5 261.5q-25.5 25.5 -25.5 60.5q0 37 25.5 62.5t61.5 25.5t61.5 -25.5t25.5 -62.5q0 -35 -25.5 -60.5t-61.5 -25.5t-61.5 25.5z" />
    <glyph glyph-name="cedilla" unicode="&#xb8;" horiz-adv-x="377" 
d="M91 -270q-10 6 -10 17q0 7 2 10l28 53q4 10 17 10q6 0 10 -2q31 -13 51 -13q23 0 37 10t14 28q0 19 -17 33t-46 17q-12 1 -19.5 8t-7.5 16q0 5 3 11l28 62q2 5 7 8t10 3h41q13 0 22 -7.5t9 -16.5q0 -7 -4 -12l-28 -35q42 -9 68.5 -40.5t26.5 -72.5q0 -49 -36.5 -81.5
t-101.5 -32.5q-53 0 -104 27z" />
    <glyph glyph-name="guillemotright" unicode="&#xbb;" horiz-adv-x="931" 
d="M144 15q-14 0 -22.5 8t-8.5 19q0 12 10 22l264 264l-262 262q-10 10 -10 22q0 11 8.5 19t22.5 8h105q7 0 12 -5l292 -291q7 -6 7 -14q0 -7 -7 -14l-295 -295q-5 -5 -12 -5h-104zM461 15q-14 0 -22.5 8t-8.5 19q0 12 10 22l264 264l-261 262q-10 10 -10 22q0 11 8.5 19
t21.5 8h105q7 0 12 -5l292 -291q7 -7 7 -15q0 -7 -6 -13l-295 -295q-5 -5 -12 -5h-105z" />
    <glyph glyph-name="onequarter" unicode="&#xbc;" horiz-adv-x="974" 
d="M215 473q-8 0 -14 6t-6 14v387l-15 -14q-6 -6 -13 -6q-8 0 -15 7l-31 31q-6 6 -6 15q0 8 6 14l69 68q5 5 12 5h57q8 0 14 -6t6 -14v-487q0 -8 -6 -14t-14 -6h-44zM178 -151q-12 0 -19 7t-7 17q0 7 5 15l586 929q5 8 15 8h60q12 0 19 -7t7 -17q0 -7 -5 -15l-586 -929
q-5 -8 -15 -8h-60zM774 -290q-8 0 -14 6t-6 14v144h-194q-8 0 -14 6t-6 14v59q0 4 3 9l202 269q5 7 14 7h59q8 0 14 -6t6 -14v-262h16q8 0 14 -6t6 -14v-42q0 -8 -5.5 -14t-12.5 -6h-18v-144q0 -8 -6 -14t-14 -6h-44zM754 107l-117 -151h117v151z" />
    <glyph glyph-name="onehalf" unicode="&#xbd;" horiz-adv-x="1066" 
d="M215 473q-8 0 -14 6t-6 14v387l-15 -14q-6 -6 -13 -6q-8 0 -15 7l-31 31q-6 6 -6 15q0 8 6 14l69 68q5 5 12 5h57q8 0 14 -6t6 -14v-487q0 -8 -6 -14t-14 -6h-44zM184 -151q-12 0 -19 7t-7 17q0 7 5 15l587 929q5 8 15 8h60q12 0 19 -7t7 -17q0 -7 -5 -15l-587 -929
q-5 -8 -15 -8h-60zM613 -290q-8 0 -14 6t-6 14v64q1 35 22 63t50.5 48t75.5 45l21 12q62 37 89.5 64.5t27.5 60.5q0 30 -27 50.5t-74 20.5q-33 0 -56.5 -10t-35.5 -28q-10 -15 -25 -9l-43 18q-13 7 -13 18q0 6 2 9q22 41 67.5 63.5t104.5 22.5q53 0 96 -20t67 -54.5
t24 -77.5q0 -65 -38.5 -111.5t-120.5 -88.5q-55 -31 -81 -50.5t-27 -45.5h246q8 0 14 -6t6 -14v-44q0 -8 -6 -14t-14 -6h-332z" />
    <glyph glyph-name="threequarters" unicode="&#xbe;" horiz-adv-x="1052" 
d="M181.5 489q-47.5 19 -71.5 57q-3 5 -3 11t3 11t9 7l42 21q6 2 8 2q9 0 17 -10q28 -34 104 -34q57 0 86 23t29 66q0 33 -21.5 51.5t-62.5 18.5h-43q-8 0 -14 6t-6 14v46q0 8 4.5 14t11.5 6q35 0 59 19.5t24 44.5q0 29 -21 45.5t-60 16.5q-40 0 -63 -27q-6 -9 -17 -9
q-5 0 -8 2l-42 21q-6 2 -9 7t-3 11q0 7 3 11q21 31 58 49t82 18q75 0 120.5 -39.5t45.5 -105.5q0 -25 -10.5 -48.5t-29.5 -40.5q41 -15 64 -50t23 -81q0 -79 -54 -126t-143 -47q-64 0 -111.5 19zM252 -151q-12 0 -19 7t-7 17q0 7 5 15l587 927q5 8 15 8h60q12 0 19 -7t7 -17
q0 -7 -5 -15l-586 -927q-5 -8 -15 -8h-61zM852 -290q-8 0 -14 6t-6 14v144h-194q-8 0 -14 6t-6 14v59q0 4 3 9l202 269q5 7 14 7h60q8 0 14 -6t6 -14v-262h15q8 0 14 -6t6 -14v-42q0 -8 -5 -14t-12 -6h-18v-144q0 -8 -6 -14t-14 -6h-45zM832 107l-117 -151h117v151z" />
    <glyph glyph-name="questiondown" unicode="&#xbf;" horiz-adv-x="597" 
d="M275 378.5q-24 24.5 -24 58.5t24 58t57 24q34 0 58.5 -24t24.5 -58t-24 -58.5t-59 -24.5q-33 0 -57 24.5zM191.5 -184.5q-55.5 23.5 -86.5 66.5t-31 101q0 43 15 74t36.5 51.5t57.5 47.5q48 36 72 64t30 73q1 8 6.5 13.5t12.5 5.5h61q8 0 14 -6t6 -15q-2 -43 -16 -74.5
t-33 -51.5t-50 -46q-38 -31 -56.5 -56t-18.5 -64q1 -42 30.5 -68.5t76.5 -26.5q36 0 64.5 17.5t41.5 47.5q3 8 9.5 12t13.5 2l84 -21q8 -2 13 -9t3 -14q-22 -68 -84 -107.5t-146 -39.5q-70 0 -125.5 23.5z" />
    <glyph glyph-name="Agrave" unicode="&#xc0;" horiz-adv-x="765" 
d="M72 0q-13 0 -21.5 8.5t-8.5 20.5q0 7 2 11l250 645q2 7 8.5 11t13.5 4h135q7 0 13.5 -4t8.5 -11l249 -645q2 -4 2 -12q0 -12 -8 -20t-21 -8h-104q-7 0 -13.5 4t-8.5 11l-54 141h-265l-54 -141q-2 -7 -8.5 -11t-13.5 -4h-102zM383 507l-84 -221h168zM351 740q-9 0 -13 6
l-122 143q-8 10 -8 19q0 11 8 18.5t21 7.5h99q12 0 16 -9l81 -148q4 -8 4 -13q0 -10 -7.5 -17t-18.5 -7h-60z" />
    <glyph glyph-name="Aacute" unicode="&#xc1;" horiz-adv-x="765" 
d="M72 0q-13 0 -21.5 8.5t-8.5 20.5q0 7 2 11l250 645q2 7 8.5 11t13.5 4h135q7 0 13.5 -4t8.5 -11l249 -645q2 -4 2 -12q0 -12 -8 -20t-21 -8h-104q-7 0 -13.5 4t-8.5 11l-54 141h-265l-54 -141q-2 -7 -8.5 -11t-13.5 -4h-102zM383 507l-84 -221h168zM375 751
q-11 0 -18.5 7t-7.5 17q0 5 4 13l81 148q5 9 16 9h99q13 0 21 -8t8 -18t-8 -20l-123 -142q-5 -6 -13 -6h-59z" />
    <glyph glyph-name="Acircumflex" unicode="&#xc2;" horiz-adv-x="765" 
d="M72 0q-13 0 -21.5 8.5t-8.5 20.5q0 7 2 11l250 645q2 7 8.5 11t13.5 4h135q7 0 13.5 -4t8.5 -11l249 -645q2 -4 2 -12q0 -12 -8 -20t-21 -8h-104q-7 0 -13.5 4t-8.5 11l-54 141h-265l-54 -141q-2 -7 -8.5 -11t-13.5 -4h-102zM383 507l-84 -221h168zM219 744
q-12 0 -20 7.5t-8 17.5q0 11 7 19l119 145q4 6 13 6h108q9 0 13 -6l119 -145q7 -8 7 -19q0 -10 -8 -17.5t-20 -7.5h-101q-10 0 -15 9l-49 88l-48 -88q-4 -9 -16 -9h-101z" />
    <glyph glyph-name="Atilde" unicode="&#xc3;" horiz-adv-x="765" 
d="M72 0q-13 0 -21.5 8.5t-8.5 20.5q0 7 2 11l250 645q2 7 8.5 11t13.5 4h135q7 0 13.5 -4t8.5 -11l249 -645q2 -4 2 -12q0 -12 -8 -20t-21 -8h-104q-7 0 -13.5 4t-8.5 11l-54 141h-265l-54 -141q-2 -7 -8.5 -11t-13.5 -4h-102zM383 507l-84 -221h168zM349 766
q-43 13 -63 13q-22 0 -39 -11q-8 -7 -19 -7q-13 0 -19 14l-26 59q-2 4 -2 7q0 6 5 13q40 40 100 40q33 0 89 -14q10 -2 28 -8q17 -5 34 -8.5t30 -3.5q25 0 42 12q9 6 19 6q14 0 20 -15l24 -63q1 -2 1 -6q0 -8 -5 -13q-39 -38 -98 -38q-21 0 -46.5 4.5t-48.5 10.5
q-11 3 -26 8z" />
    <glyph glyph-name="Adieresis" unicode="&#xc4;" horiz-adv-x="765" 
d="M72 0q-13 0 -21.5 8.5t-8.5 20.5q0 7 2 11l250 645q2 7 8.5 11t13.5 4h135q7 0 13.5 -4t8.5 -11l249 -645q2 -4 2 -12q0 -12 -8 -20t-21 -8h-104q-7 0 -13.5 4t-8.5 11l-54 141h-265l-54 -141q-2 -7 -8.5 -11t-13.5 -4h-102zM383 507l-84 -221h168zM196 766.5
q-27 26.5 -27 64.5q0 37 27 63.5t65 26.5q37 0 64 -26.5t27 -63.5t-26.5 -64t-64.5 -27t-65 26.5zM437 766.5q-27 26.5 -27 64.5q0 37 27 63.5t65 26.5t65 -26.5t27 -63.5q0 -38 -27 -64.5t-65 -26.5t-65 26.5z" />
    <glyph glyph-name="Aring" unicode="&#xc5;" horiz-adv-x="765" 
d="M72 0q-13 0 -21.5 8.5t-8.5 20.5q0 7 2 11l250 645q2 7 8.5 11t13.5 4h135q7 0 13.5 -4t8.5 -11l249 -645q2 -4 2 -12q0 -12 -8 -20t-21 -8h-104q-7 0 -13.5 4t-8.5 11l-54 141h-265l-54 -141q-2 -7 -8.5 -11t-13.5 -4h-102zM383 507l-84 -221h168zM310 743.5
q-31 18.5 -49 49.5t-18 67t18 67t49 49t67 18q37 0 68 -18t49 -49t18 -67q0 -37 -18 -68t-49 -49t-68 -18q-36 0 -67 18.5zM415 823q15 15 15 37q0 21 -15 36t-36 15t-36 -15t-15 -36q0 -22 15 -37t36 -14q21 -1 36 14z" />
    <glyph glyph-name="AE" unicode="&#xc6;" horiz-adv-x="1070" 
d="M71 0q-13 0 -21 8t-8 20q0 8 2 12l247 645q2 7 8.5 11t13.5 4h666q11 0 18.5 -7.5t7.5 -17.5v-81q0 -11 -7.5 -18.5t-17.5 -7.5h-375v-154h269q11 0 18 -7t7 -18v-78q0 -10 -7 -17.5t-18 -7.5h-269v-154h375q11 0 18 -7t7 -18v-81q0 -11 -7.5 -18.5t-17.5 -7.5h-496
q-10 0 -17.5 7.5t-7.5 17.5v176h-196l-67 -186q-2 -7 -8 -11t-14 -4h-103zM392 568l-92 -256h159v256h-67z" />
    <glyph glyph-name="Ccedilla" unicode="&#xc7;" horiz-adv-x="785" 
d="M716 145q10 -9 10 -20q0 -6 -5 -13q-48 -55 -114 -87t-145 -37q3 -6 3 -11q0 -7 -4 -12l-28 -35q42 -9 68.5 -40.5t26.5 -72.5q0 -49 -36.5 -81.5t-101.5 -32.5q-53 0 -104 27q-10 6 -10 17q0 7 2 10l28 53q4 10 17 10q6 0 10 -2q31 -13 51 -13q23 0 37 10t14 28
q0 19 -17 33t-46 17q-12 1 -19.5 8t-7.5 16q0 5 3 11l28 62q-96 12 -169.5 61.5t-114.5 127.5t-41 171q0 102 48.5 185t135.5 130.5t197 47.5q89 0 161.5 -32t125.5 -91q6 -7 6 -16q0 -10 -9 -19l-72 -61q-7 -6 -17 -6q-11 0 -20 10q-63 73 -175 73q-66 0 -118.5 -29
t-82.5 -79.5t-30 -112.5t30 -112.5t82.5 -79.5t118.5 -29q112 0 175 73q9 10 21 10q9 0 16 -6z" />
    <glyph glyph-name="Egrave" unicode="&#xc8;" horiz-adv-x="676" 
d="M91 0q-11 0 -18.5 7.5t-7.5 17.5v650q0 11 7.5 18t17.5 7h496q11 0 18 -7t7 -18v-81q0 -11 -7.5 -18.5t-17.5 -7.5h-374v-148h275q11 0 18.5 -7.5t7.5 -17.5v-90q0 -10 -7 -17.5t-18 -7.5h-276v-148h373q11 0 18.5 -7.5t7.5 -17.5v-81q0 -11 -7.5 -18.5t-17.5 -7.5h-495z
M348 744q-9 0 -13 6l-122 143q-8 10 -8 19q0 11 8 18.5t21 7.5h99q12 0 16 -9l81 -148q4 -8 4 -13q0 -10 -7.5 -17t-18.5 -7h-60z" />
    <glyph glyph-name="Eacute" unicode="&#xc9;" horiz-adv-x="676" 
d="M91 0q-11 0 -18.5 7.5t-7.5 17.5v650q0 11 7.5 18t17.5 7h496q11 0 18 -7t7 -18v-81q0 -11 -7.5 -18.5t-17.5 -7.5h-374v-148h275q11 0 18.5 -7.5t7.5 -17.5v-90q0 -10 -7 -17.5t-18 -7.5h-276v-148h373q11 0 18.5 -7.5t7.5 -17.5v-81q0 -11 -7.5 -18.5t-17.5 -7.5h-495z
M280 744q-11 0 -18.5 7t-7.5 17q0 5 4 13l81 148q5 9 16 9h99q13 0 21 -8t8 -18t-8 -20l-123 -142q-5 -6 -13 -6h-59z" />
    <glyph glyph-name="Ecircumflex" unicode="&#xca;" horiz-adv-x="676" 
d="M91 0q-11 0 -18.5 7.5t-7.5 17.5v650q0 11 7.5 18t17.5 7h496q11 0 18 -7t7 -18v-81q0 -11 -7.5 -18.5t-17.5 -7.5h-374v-148h275q11 0 18.5 -7.5t7.5 -17.5v-90q0 -10 -7 -17.5t-18 -7.5h-276v-148h373q11 0 18.5 -7.5t7.5 -17.5v-81q0 -11 -7.5 -18.5t-17.5 -7.5h-495z
M175 747q-12 0 -20 7.5t-8 17.5q0 11 7 19l119 145q4 6 13 6h108q9 0 13 -6l119 -145q7 -8 7 -19q0 -10 -8 -17.5t-20 -7.5h-101q-10 0 -15 9l-49 88l-48 -88q-4 -9 -16 -9h-101z" />
    <glyph glyph-name="Edieresis" unicode="&#xcb;" horiz-adv-x="652" 
d="M91 0q-11 0 -18.5 7.5t-7.5 17.5v650q0 11 7.5 18t17.5 7h496q11 0 18 -7t7 -18v-81q0 -11 -7.5 -18.5t-17.5 -7.5h-374v-148h275q11 0 18.5 -7.5t7.5 -17.5v-90q0 -10 -7 -17.5t-18 -7.5h-276v-148h373q11 0 18.5 -7.5t7.5 -17.5v-81q0 -11 -7.5 -18.5t-17.5 -7.5h-495z
M154 770.5q-27 26.5 -27 64.5q0 37 27 63.5t65 26.5q37 0 64 -26.5t27 -63.5t-26.5 -64t-64.5 -27t-65 26.5zM395 770.5q-27 26.5 -27 64.5q0 37 27 63.5t65 26.5t65 -26.5t27 -63.5q0 -38 -27 -64.5t-65 -26.5t-65 26.5z" />
    <glyph glyph-name="Igrave" unicode="&#xcc;" horiz-adv-x="277" 
d="M90 0q-10 0 -17.5 7.5t-7.5 17.5v650q0 11 7.5 18t17.5 7h97q11 0 18 -7t7 -18v-650q0 -10 -7 -17.5t-18 -7.5h-97zM100 740q-9 0 -13 6l-122 143q-8 10 -8 19q0 11 8 18.5t21 7.5h99q12 0 16 -9l81 -148q4 -8 4 -13q0 -10 -7.5 -17t-18.5 -7h-60z" />
    <glyph glyph-name="Iacute" unicode="&#xcd;" horiz-adv-x="277" 
d="M90 0q-10 0 -17.5 7.5t-7.5 17.5v650q0 11 7.5 18t17.5 7h97q11 0 18 -7t7 -18v-650q0 -10 -7 -17.5t-18 -7.5h-97zM120 741q-11 0 -18.5 7t-7.5 17q0 5 4 13l81 148q5 9 16 9h99q13 0 21 -8t8 -18t-8 -20l-123 -142q-5 -6 -13 -6h-59z" />
    <glyph glyph-name="Icircumflex" unicode="&#xce;" horiz-adv-x="277" 
d="M10 742q-11 0 -17.5 7.5t-6.5 17.5t6 19l101 145q5 6 11 6h92q8 0 11 -6l102 -145q6 -9 6 -18q0 -11 -6.5 -18.5t-17.5 -7.5h-86q-8 0 -13 9l-42 88l-41 -88q-3 -9 -13 -9h-86zM90 0q-10 0 -17.5 7.5t-7.5 17.5v650q0 11 7.5 18t17.5 7h97q11 0 18 -7t7 -18v-650
q0 -10 -7 -17.5t-18 -7.5h-97z" />
    <glyph glyph-name="Idieresis" unicode="&#xcf;" horiz-adv-x="277" 
d="M90 0q-10 0 -17.5 7.5t-7.5 17.5v650q0 11 7.5 18t17.5 7h97q11 0 18 -7t7 -18v-650q0 -10 -7 -17.5t-18 -7.5h-97zM-35 768.5q-27 26.5 -27 64.5q0 37 27 63.5t65 26.5q37 0 64 -26.5t27 -63.5t-26.5 -64t-64.5 -27t-65 26.5zM206 768.5q-27 26.5 -27 64.5q0 37 27 63.5
t65 26.5t65 -26.5t27 -63.5q0 -38 -27 -64.5t-65 -26.5t-65 26.5z" />
    <glyph glyph-name="Eth" unicode="&#xd0;" horiz-adv-x="786" 
d="M91 0q-11 0 -18.5 7.5t-7.5 17.5v270h-36q-10 0 -17.5 7.5t-7.5 17.5v60q0 11 7.5 18t17.5 7h36v270q0 11 7.5 18t17.5 7h271q115 0 200 -46t130 -125.5t45 -178.5t-45 -178.5t-130 -125.5t-200 -46h-270zM361 139q65 0 116 24.5t80.5 72.5t29.5 114t-29.5 114
t-80.5 72.5t-116 24.5h-149v-156h41q11 0 18 -7t7 -18v-60q0 -10 -7 -17.5t-18 -7.5h-41v-156h149z" />
    <glyph glyph-name="Ntilde" unicode="&#xd1;" horiz-adv-x="765" 
d="M90 0q-10 0 -17.5 7.5t-7.5 17.5v650q0 11 7.5 18t17.5 7h112q10 0 17 -9l334 -452v436q0 11 7.5 18t17.5 7h97q11 0 18 -7t7 -18v-650q0 -10 -7 -17.5t-18 -7.5h-111q-10 0 -17 9l-335 452v-436q0 -10 -7 -17.5t-18 -7.5h-97zM356 766q-43 13 -63 13q-22 0 -39 -11
q-8 -7 -19 -7q-13 0 -19 14l-26 59q-2 4 -2 7q0 6 5 13q40 40 100 40q33 0 89 -14q10 -2 28 -8q17 -5 34 -8.5t30 -3.5q25 0 42 12q9 6 19 6q14 0 20 -15l24 -63q1 -2 1 -6q0 -8 -5 -13q-39 -38 -98 -38q-21 0 -46.5 4.5t-48.5 10.5q-11 3 -26 8z" />
    <glyph glyph-name="Ograve" unicode="&#xd2;" horiz-adv-x="860" 
d="M234.5 34.5q-86.5 47.5 -135 130.5t-48.5 185t48.5 185t135 130.5t195.5 47.5t195 -47.5t134.5 -130.5t48.5 -185t-48.5 -185t-134.5 -130.5t-195 -47.5t-195.5 47.5zM547 158q52 29 81.5 79.5t29.5 112.5t-29.5 112.5t-81.5 79.5t-117 29t-117 -29t-82 -79.5t-30 -112.5
t30 -112.5t82 -79.5t117 -29t117 29zM410 752q-9 0 -13 6l-122 143q-8 10 -8 19q0 11 8 18.5t21 7.5h99q12 0 16 -9l81 -148q4 -8 4 -13q0 -10 -7.5 -17t-18.5 -7h-60z" />
    <glyph glyph-name="Oacute" unicode="&#xd3;" horiz-adv-x="860" 
d="M234.5 34.5q-86.5 47.5 -135 130.5t-48.5 185t48.5 185t135 130.5t195.5 47.5t195 -47.5t134.5 -130.5t48.5 -185t-48.5 -185t-134.5 -130.5t-195 -47.5t-195.5 47.5zM547 158q52 29 81.5 79.5t29.5 112.5t-29.5 112.5t-81.5 79.5t-117 29t-117 -29t-82 -79.5t-30 -112.5
t30 -112.5t82 -79.5t117 -29t117 29zM396 748q-11 0 -18.5 7t-7.5 17q0 5 4 13l81 148q5 9 16 9h99q13 0 21 -8t8 -18t-8 -20l-123 -142q-5 -6 -13 -6h-59z" />
    <glyph glyph-name="Ocircumflex" unicode="&#xd4;" horiz-adv-x="860" 
d="M234.5 34.5q-86.5 47.5 -135 130.5t-48.5 185t48.5 185t135 130.5t195.5 47.5t195 -47.5t134.5 -130.5t48.5 -185t-48.5 -185t-134.5 -130.5t-195 -47.5t-195.5 47.5zM547 158q52 29 81.5 79.5t29.5 112.5t-29.5 112.5t-81.5 79.5t-117 29t-117 -29t-82 -79.5t-30 -112.5
t30 -112.5t82 -79.5t117 -29t117 29zM267 752q-12 0 -20 7.5t-8 17.5q0 11 7 19l119 145q4 6 13 6h108q9 0 13 -6l119 -145q7 -8 7 -19q0 -10 -8 -17.5t-20 -7.5h-101q-10 0 -15 9l-49 88l-48 -88q-4 -9 -16 -9h-101z" />
    <glyph glyph-name="Otilde" unicode="&#xd5;" horiz-adv-x="860" 
d="M234.5 34.5q-86.5 47.5 -135 130.5t-48.5 185t48.5 185t135 130.5t195.5 47.5t195 -47.5t134.5 -130.5t48.5 -185t-48.5 -185t-134.5 -130.5t-195 -47.5t-195.5 47.5zM547 158q52 29 81.5 79.5t29.5 112.5t-29.5 112.5t-81.5 79.5t-117 29t-117 -29t-82 -79.5t-30 -112.5
t30 -112.5t82 -79.5t117 -29t117 29zM403 786q-43 13 -63 13q-22 0 -39 -11q-8 -7 -19 -7q-13 0 -19 14l-26 59q-2 4 -2 7q0 6 5 13q40 40 100 40q33 0 89 -14q10 -2 28 -8q17 -5 34 -8.5t30 -3.5q25 0 42 12q9 6 19 6q14 0 20 -15l24 -63q1 -2 1 -6q0 -8 -5 -13
q-39 -38 -98 -38q-21 0 -46.5 4.5t-48.5 10.5q-11 3 -26 8z" />
    <glyph glyph-name="Odieresis" unicode="&#xd6;" horiz-adv-x="860" 
d="M234.5 34.5q-86.5 47.5 -135 130.5t-48.5 185t48.5 185t135 130.5t195.5 47.5t195 -47.5t134.5 -130.5t48.5 -185t-48.5 -185t-134.5 -130.5t-195 -47.5t-195.5 47.5zM547 158q52 29 81.5 79.5t29.5 112.5t-29.5 112.5t-81.5 79.5t-117 29t-117 -29t-82 -79.5t-30 -112.5
t30 -112.5t82 -79.5t117 -29t117 29zM238 770.5q-27 26.5 -27 64.5q0 37 27 63.5t65 26.5q37 0 64 -26.5t27 -63.5t-26.5 -64t-64.5 -27t-65 26.5zM479 770.5q-27 26.5 -27 64.5q0 37 27 63.5t65 26.5t65 -26.5t27 -63.5q0 -38 -27 -64.5t-65 -26.5t-65 26.5z" />
    <glyph glyph-name="multiply" unicode="&#xd7;" horiz-adv-x="476" 
d="M253 273l-85 -85q-6 -6 -14 -6q-9 0 -15 6l-49 49q-7 9 -7 15q0 7 7 14l87 86l-87 86q-6 6 -6 14q0 9 6 15l49 49q6 6 14 6t14 -6l86 -86l87 86q6 6 14 6t14 -6l50 -49q6 -6 6 -14q0 -9 -6 -15l-86 -86l86 -86q6 -6 6 -15q0 -8 -6 -14l-50 -50q-6 -6 -14 -6t-14 6z" />
    <glyph glyph-name="Oslash" unicode="&#xd8;" horiz-adv-x="847" 
d="M693 618q55 -50 85 -119t30 -149q0 -102 -48.5 -185t-134.5 -130.5t-195 -47.5q-128 0 -223 64l-22 -26q-14 -16 -26.5 -25.5t-16.5 -6.5l-30 26q-4 3 3.5 17t21.5 30l21 25q-51 49 -79 116t-28 143q0 102 48.5 185t135 130.5t195.5 47.5q121 0 213 -58l50 59
q14 16 26.5 25.5t16.5 6.5l30 -26q4 -3 -3.5 -16.5t-21.5 -29.5zM215 270.5q14 -37.5 40 -66.5l291 339q-53 28 -116 28q-65 0 -117 -29t-82 -79.5t-30 -112.5q0 -42 14 -79.5zM547 158q52 29 81.5 79.5t29.5 112.5q0 45 -16 85t-46 70l-292 -342q54 -34 126 -34
q65 0 117 29z" />
    <glyph glyph-name="Ugrave" unicode="&#xd9;" horiz-adv-x="772" 
d="M220 25q-73 38 -114 106.5t-41 155.5v388q0 11 7.5 18t17.5 7h97q11 0 18 -7t7 -18v-389q0 -72 47 -114.5t127 -42.5q81 0 127 42.5t46 114.5v388q0 11 7.5 18.5t17.5 7.5h98q11 0 18 -7t7 -18v-388q0 -87 -41 -155.5t-114 -106.5t-166 -38t-166 38zM368 742q-9 0 -13 6
l-122 143q-8 10 -8 19q0 11 8 18.5t21 7.5h99q12 0 16 -9l81 -148q4 -8 4 -13q0 -10 -7.5 -17t-18.5 -7h-60z" />
    <glyph glyph-name="Uacute" unicode="&#xda;" horiz-adv-x="772" 
d="M220 25q-73 38 -114 106.5t-41 155.5v388q0 11 7.5 18t17.5 7h97q11 0 18 -7t7 -18v-389q0 -72 47 -114.5t127 -42.5q81 0 127 42.5t46 114.5v388q0 11 7.5 18.5t17.5 7.5h98q11 0 18 -7t7 -18v-388q0 -87 -41 -155.5t-114 -106.5t-166 -38t-166 38zM344 745
q-11 0 -18.5 7t-7.5 17q0 5 4 13l81 148q5 9 16 9h99q13 0 21 -8t8 -18t-8 -20l-123 -142q-5 -6 -13 -6h-59z" />
    <glyph glyph-name="Ucircumflex" unicode="&#xdb;" horiz-adv-x="772" 
d="M220 25q-73 38 -114 106.5t-41 155.5v388q0 11 7.5 18t17.5 7h97q11 0 18 -7t7 -18v-389q0 -72 47 -114.5t127 -42.5q81 0 127 42.5t46 114.5v388q0 11 7.5 18.5t17.5 7.5h98q11 0 18 -7t7 -18v-388q0 -87 -41 -155.5t-114 -106.5t-166 -38t-166 38zM216 746
q-12 0 -20 7.5t-8 17.5q0 11 7 19l119 145q4 6 13 6h108q9 0 13 -6l119 -145q7 -8 7 -19q0 -10 -8 -17.5t-20 -7.5h-101q-10 0 -15 9l-49 88l-48 -88q-4 -9 -16 -9h-101z" />
    <glyph glyph-name="Udieresis" unicode="&#xdc;" horiz-adv-x="772" 
d="M220 25q-73 38 -114 106.5t-41 155.5v388q0 11 7.5 18t17.5 7h97q11 0 18 -7t7 -18v-389q0 -72 47 -114.5t127 -42.5q81 0 127 42.5t46 114.5v388q0 11 7.5 18.5t17.5 7.5h98q11 0 18 -7t7 -18v-388q0 -87 -41 -155.5t-114 -106.5t-166 -38t-166 38zM198 767.5
q-27 26.5 -27 64.5q0 37 27 63.5t65 26.5q37 0 64 -26.5t27 -63.5t-26.5 -64t-64.5 -27t-65 26.5zM439 767.5q-27 26.5 -27 64.5q0 37 27 63.5t65 26.5t65 -26.5t27 -63.5q0 -38 -27 -64.5t-65 -26.5t-65 26.5z" />
    <glyph glyph-name="Yacute" unicode="&#xdd;" horiz-adv-x="729" 
d="M317 0q-11 0 -18.5 7.5t-7.5 17.5v265l-240 360q-6 9 -6 19q0 13 9 22t24 9h103q12 0 18 -10l166 -256l165 256q6 10 18 10h103q15 0 24 -9t9 -22q0 -10 -6 -19l-239 -360v-265q0 -10 -7 -17.5t-18 -7.5h-97zM337 746q-11 0 -18.5 7t-7.5 17q0 5 4 13l81 148q5 9 16 9h99
q13 0 21 -8t8 -18t-8 -20l-123 -142q-5 -6 -13 -6h-59z" />
    <glyph glyph-name="Thorn" unicode="&#xde;" horiz-adv-x="696" 
d="M90 0q-10 0 -17.5 7.5t-7.5 17.5v650q0 11 7.5 18t17.5 7h97q11 0 18 -7t7 -18v-75h172q79 0 138 -33t90.5 -90.5t31.5 -128.5t-31.5 -128.5t-91 -91t-137.5 -33.5h-172v-69q0 -11 -7.5 -18.5t-17.5 -7.5h-97zM371 229q55 0 90.5 32.5t35.5 86.5q0 53 -35.5 85.5
t-90.5 32.5h-159v-237h159z" />
    <glyph glyph-name="germandbls" unicode="&#xdf;" horiz-adv-x="673" 
d="M240 2q-8 2 -12.5 8.5t-4.5 14.5v69q0 14 10.5 22t24.5 5q36 -6 80 -6q70 0 110 27t40 78q0 43 -29.5 69t-85.5 25l-62 -1q-11 0 -18.5 7.5t-7.5 18.5v55q0 11 7.5 18t17.5 7h20q43 0 71.5 23.5t28.5 59.5q0 38 -31 61.5t-76 23.5q-54 0 -88.5 -31t-34.5 -90v-441
q0 -10 -7 -17.5t-18 -7.5h-96q-10 0 -17.5 7.5t-7.5 17.5v483q0 66 35.5 113t96 71t135.5 24q77 0 135.5 -23.5t91 -67.5t32.5 -102q0 -44 -20 -82t-56 -58q61 -12 97.5 -58.5t36.5 -109.5q0 -113 -82 -169t-214 -56q-64 1 -102 12z" />
    <glyph glyph-name="agrave" unicode="&#xe0;" horiz-adv-x="607" 
d="M89.5 27.5q-48.5 41.5 -48.5 114.5q0 71 56.5 116t163.5 45q80 0 146 -24v11q0 60 -29 89.5t-91 29.5q-69 0 -136 -38q-5 -4 -13 -4q-13 0 -21 11l-30 42q-5 8 -5 16q0 15 13 22q105 56 225 56q113 0 173.5 -50t60.5 -146v-293q0 -10 -7 -17.5t-18 -7.5h-78
q-10 0 -17.5 7.5t-7.5 17.5v25q-33 -27 -85.5 -45.5t-108.5 -18.5q-94 0 -142.5 41.5zM352.5 91q38.5 15 55.5 33v79q-44 21 -96 21q-124 0 -124 -74q-3 -74 88 -74q38 0 76.5 15zM324 571q-9 0 -13 6l-122 143q-8 10 -8 19q0 11 8 18.5t21 7.5h99q12 0 16 -9l81 -148
q4 -8 4 -13q0 -10 -7.5 -17t-18.5 -7h-60z" />
    <glyph glyph-name="aacute" unicode="&#xe1;" horiz-adv-x="607" 
d="M89.5 27.5q-48.5 41.5 -48.5 114.5q0 71 56.5 116t163.5 45q80 0 146 -24v11q0 60 -29 89.5t-91 29.5q-69 0 -136 -38q-5 -4 -13 -4q-13 0 -21 11l-30 42q-5 8 -5 16q0 15 13 22q105 56 225 56q113 0 173.5 -50t60.5 -146v-293q0 -10 -7 -17.5t-18 -7.5h-78
q-10 0 -17.5 7.5t-7.5 17.5v25q-33 -27 -85.5 -45.5t-108.5 -18.5q-94 0 -142.5 41.5zM352.5 91q38.5 15 55.5 33v79q-44 21 -96 21q-124 0 -124 -74q-3 -74 88 -74q38 0 76.5 15zM264 570q-11 0 -18.5 7t-7.5 17q0 5 4 13l81 148q5 9 16 9h99q13 0 21 -8t8 -18t-8 -20
l-123 -142q-5 -6 -13 -6h-59z" />
    <glyph glyph-name="acircumflex" unicode="&#xe2;" horiz-adv-x="607" 
d="M170 569q-11 0 -18 7.5t-7 18.5q0 9 6 18l109 145q5 6 12 6h98q7 0 12 -6l109 -145q6 -9 6 -18q0 -11 -7 -18.5t-19 -7.5h-92q-4 0 -8 2.5t-5 6.5l-45 88l-44 -88q-4 -9 -14 -9h-93zM89.5 27.5q-48.5 41.5 -48.5 114.5q0 71 56.5 116t163.5 45q80 0 146 -24v11
q0 60 -29 89.5t-91 29.5q-69 0 -136 -38q-5 -4 -13 -4q-13 0 -21 11l-30 42q-5 8 -5 16q0 15 13 22q105 56 225 56q113 0 173.5 -50t60.5 -146v-293q0 -10 -7 -17.5t-18 -7.5h-78q-10 0 -17.5 7.5t-7.5 17.5v25q-33 -27 -85.5 -45.5t-108.5 -18.5q-94 0 -142.5 41.5z
M352.5 91q38.5 15 55.5 33v79q-44 21 -96 21q-124 0 -124 -74q-3 -74 88 -74q38 0 76.5 15z" />
    <glyph glyph-name="atilde" unicode="&#xe3;" horiz-adv-x="607" 
d="M89.5 27.5q-48.5 41.5 -48.5 114.5q0 71 56.5 116t163.5 45q80 0 146 -24v11q0 60 -29 89.5t-91 29.5q-69 0 -136 -38q-5 -4 -13 -4q-13 0 -21 11l-30 42q-5 8 -5 16q0 15 13 22q105 56 225 56q113 0 173.5 -50t60.5 -146v-293q0 -10 -7 -17.5t-18 -7.5h-78
q-10 0 -17.5 7.5t-7.5 17.5v25q-33 -27 -85.5 -45.5t-108.5 -18.5q-94 0 -142.5 41.5zM352.5 91q38.5 15 55.5 33v79q-44 21 -96 21q-124 0 -124 -74q-3 -74 88 -74q38 0 76.5 15zM272 592q-43 13 -63 13q-22 0 -39 -11q-8 -7 -19 -7q-13 0 -19 14l-26 59q-2 4 -2 7
q0 6 5 13q40 40 100 40q33 0 89 -14q10 -2 28 -8q17 -5 34 -8.5t30 -3.5q25 0 42 12q9 6 19 6q14 0 20 -15l24 -63q1 -2 1 -6q0 -8 -5 -13q-39 -38 -98 -38q-21 0 -46.5 4.5t-48.5 10.5q-11 3 -26 8z" />
    <glyph glyph-name="adieresis" unicode="&#xe4;" horiz-adv-x="607" 
d="M89.5 27.5q-48.5 41.5 -48.5 114.5q0 71 56.5 116t163.5 45q80 0 146 -24v11q0 60 -29 89.5t-91 29.5q-69 0 -136 -38q-5 -4 -13 -4q-13 0 -21 11l-30 42q-5 8 -5 16q0 15 13 22q105 56 225 56q113 0 173.5 -50t60.5 -146v-293q0 -10 -7 -17.5t-18 -7.5h-78
q-10 0 -17.5 7.5t-7.5 17.5v25q-33 -27 -85.5 -45.5t-108.5 -18.5q-94 0 -142.5 41.5zM352.5 91q38.5 15 55.5 33v79q-44 21 -96 21q-124 0 -124 -74q-3 -74 88 -74q38 0 76.5 15zM119 594.5q-27 26.5 -27 64.5q0 37 27 63.5t65 26.5q37 0 64 -26.5t27 -63.5t-26.5 -64
t-64.5 -27t-65 26.5zM360 594.5q-27 26.5 -27 64.5q0 37 27 63.5t65 26.5t65 -26.5t27 -63.5q0 -38 -27 -64.5t-65 -26.5t-65 26.5z" />
    <glyph glyph-name="aring" unicode="&#xe5;" horiz-adv-x="607" 
d="M89.5 27.5q-48.5 41.5 -48.5 114.5q0 71 56.5 116t163.5 45q80 0 146 -24v11q0 60 -29 89.5t-91 29.5q-69 0 -136 -38q-5 -4 -13 -4q-13 0 -21 11l-30 42q-5 8 -5 16q0 15 13 22q105 56 225 56q113 0 173.5 -50t60.5 -146v-293q0 -10 -7 -17.5t-18 -7.5h-78
q-10 0 -17.5 7.5t-7.5 17.5v25q-33 -27 -85.5 -45.5t-108.5 -18.5q-94 0 -142.5 41.5zM352.5 91q38.5 15 55.5 33v79q-44 21 -96 21q-124 0 -124 -74q-3 -74 88 -74q38 0 76.5 15zM242 580.5q-31 18.5 -49 49.5t-18 67t18 67t49 49t67 18q37 0 68 -18t49 -49t18 -67
q0 -37 -18 -68t-49 -49t-68 -18q-36 0 -67 18.5zM347 660q15 15 15 37q0 21 -15 36t-36 15t-36 -15t-15 -36q0 -22 15 -37t36 -14q21 -1 36 14z" />
    <glyph glyph-name="ae" unicode="&#xe6;" horiz-adv-x="999" 
d="M89.5 27.5q-48.5 41.5 -48.5 114.5q0 71 56.5 116t163.5 45q74 0 146 -18v8q0 116 -120 116q-69 0 -136 -38q-5 -4 -13 -4q-13 0 -21 11l-30 42q-5 8 -5 16q0 15 13 22q105 56 225 56q67 0 110 -22t66 -66q31 41 81 64.5t114 23.5q120 0 185.5 -60.5t80.5 -168.5v-31
q0 -10 -7 -17.5t-18 -7.5h-371l2 -17q10 -54 51.5 -88.5t99.5 -34.5q66 0 122 36q8 5 15 5q12 0 19 -10l34 -41q6 -7 6 -16q0 -11 -9 -19q-37 -28 -92 -43t-117 -15q-70 0 -125 24t-91 67q-47 -43 -112 -67t-132 -24q-94 0 -142.5 41.5zM816 311q-10 49 -40.5 78t-80.5 29
q-51 0 -85.5 -29t-46.5 -78h253zM415 148q-8 25 -8 61q-40 20 -103 20q-56 0 -87 -21.5t-32 -58.5q0 -36 22.5 -49.5t69.5 -11.5q69 1 138 60z" />
    <glyph glyph-name="ccedilla" unicode="&#xe7;" horiz-adv-x="558" 
d="M515 77q7 -8 7 -18q0 -8 -6 -13q-66 -51 -161 -58q5 -7 5 -13q0 -7 -4 -12l-28 -35q42 -9 68.5 -40.5t26.5 -72.5q0 -49 -36.5 -81.5t-101.5 -32.5q-53 0 -104 27q-10 6 -10 17q0 7 2 10l28 53q4 10 17 10q6 0 10 -2q31 -13 51 -13q23 0 37 10t14 28q0 19 -17 33t-46 17
q-12 1 -19.5 8t-7.5 16q0 5 3 11l28 62l1 2q-110 14 -170.5 83.5t-60.5 178.5q0 76 33.5 135t98 92.5t152.5 33.5q109 0 185 -54q10 -6 10 -19q0 -8 -6 -16l-41 -54q-7 -10 -20 -10q-8 0 -16 5q-46 32 -106 32q-65 0 -104 -42.5t-39 -104.5t39 -104t104 -42q60 0 106 32
q8 5 16 5q13 0 20 -10z" />
    <glyph glyph-name="egrave" unicode="&#xe8;" 
d="M174.5 20q-64.5 34 -99 94t-34.5 136t34 136t98 94t151 34q120 0 187 -61t79 -168v-21q0 -10 -7 -17.5t-18 -7.5h-372q0 -41 20 -75.5t55.5 -54.5t78.5 -20q66 0 122 36q8 5 15 5q12 0 19 -9l34 -42q7 -8 7 -18q0 -8 -6 -13q-38 -30 -94 -46t-119 -16q-86 0 -150.5 34z
M441 327q-13 43 -42 67t-75 24q-47 0 -79.5 -24.5t-47.5 -66.5h244zM305 573q-9 0 -13 6l-122 143q-8 10 -8 19q0 11 8 18.5t21 7.5h99q12 0 16 -9l81 -148q4 -8 4 -13q0 -10 -7.5 -17t-18.5 -7h-60z" />
    <glyph glyph-name="eacute" unicode="&#xe9;" 
d="M174.5 20q-64.5 34 -99 94t-34.5 136t34 136t98 94t151 34q120 0 187 -61t79 -168v-21q0 -10 -7 -17.5t-18 -7.5h-372q0 -41 20 -75.5t55.5 -54.5t78.5 -20q66 0 122 36q8 5 15 5q12 0 19 -9l34 -42q7 -8 7 -18q0 -8 -6 -13q-38 -30 -94 -46t-119 -16q-86 0 -150.5 34z
M441 327q-13 43 -42 67t-75 24q-47 0 -79.5 -24.5t-47.5 -66.5h244zM302 569q-11 0 -18.5 7t-7.5 17q0 5 4 13l81 148q5 9 16 9h99q13 0 21 -8t8 -18t-8 -20l-123 -142q-5 -6 -13 -6h-59z" />
    <glyph glyph-name="ecircumflex" unicode="&#xea;" 
d="M166 572q-12 0 -19.5 7.5t-7.5 17.5q0 11 7 19l114 145q5 6 13 6h103q8 0 13 -6l114 -145q7 -8 7 -19q0 -10 -7.5 -17.5t-19.5 -7.5h-97q-9 0 -14 9l-47 88l-47 -88q-1 -4 -5.5 -6.5t-9.5 -2.5h-97zM174.5 20q-64.5 34 -99 94t-34.5 136t34 136t98 94t151 34
q120 0 187 -61t79 -168v-21q0 -10 -7 -17.5t-18 -7.5h-372q0 -41 20 -75.5t55.5 -54.5t78.5 -20q66 0 122 36q8 5 15 5q12 0 19 -9l34 -42q7 -8 7 -18q0 -8 -6 -13q-38 -30 -94 -46t-119 -16q-86 0 -150.5 34zM441 327q-13 43 -42 67t-75 24q-47 0 -79.5 -24.5t-47.5 -66.5
h244z" />
    <glyph glyph-name="edieresis" unicode="&#xeb;" 
d="M174.5 20q-64.5 34 -99 94t-34.5 136t34 136t98 94t151 34q120 0 187 -61t79 -168v-21q0 -10 -7 -17.5t-18 -7.5h-372q0 -41 20 -75.5t55.5 -54.5t78.5 -20q66 0 122 36q8 5 15 5q12 0 19 -9l34 -42q7 -8 7 -18q0 -8 -6 -13q-38 -30 -94 -46t-119 -16q-86 0 -150.5 34z
M441 327q-13 43 -42 67t-75 24q-47 0 -79.5 -24.5t-47.5 -66.5h244zM139 594.5q-27 26.5 -27 64.5q0 37 27 63.5t65 26.5q37 0 64 -26.5t27 -63.5t-26.5 -64t-64.5 -27t-65 26.5zM380 594.5q-27 26.5 -27 64.5q0 37 27 63.5t65 26.5t65 -26.5t27 -63.5q0 -38 -27 -64.5
t-65 -26.5t-65 26.5z" />
    <glyph glyph-name="igrave" unicode="&#xec;" horiz-adv-x="254" 
d="M79 0q-10 0 -17.5 7.5t-7.5 17.5v450q0 11 7.5 18t17.5 7h96q11 0 18 -7t7 -18v-450q0 -10 -7 -17.5t-18 -7.5h-96zM89 569q-9 0 -13 6l-122 143q-8 10 -8 19q0 11 8 18.5t21 7.5h99q12 0 16 -9l81 -148q4 -8 4 -13q0 -10 -7.5 -17t-18.5 -7h-60z" />
    <glyph glyph-name="iacute" unicode="&#xed;" horiz-adv-x="254" 
d="M79 0q-10 0 -17.5 7.5t-7.5 17.5v450q0 11 7.5 18t17.5 7h96q11 0 18 -7t7 -18v-450q0 -10 -7 -17.5t-18 -7.5h-96zM116 571q-11 0 -18.5 7t-7.5 17q0 5 4 13l81 148q5 9 16 9h99q13 0 21 -8t8 -18t-8 -20l-123 -142q-5 -6 -13 -6h-59z" />
    <glyph glyph-name="icircumflex" unicode="&#xee;" horiz-adv-x="254" 
d="M-5 568q-11 0 -17.5 7.5t-6.5 17.5t6 19l101 145q5 6 11 6h93q6 0 11 -6l101 -145q6 -9 6 -19t-6.5 -17.5t-17.5 -7.5h-86q-8 0 -13 9l-41 88l-41 -88q-4 -9 -14 -9h-86zM79 0q-10 0 -17.5 7.5t-7.5 17.5v450q0 11 7.5 18t17.5 7h96q11 0 18 -7t7 -18v-450
q0 -10 -7 -17.5t-18 -7.5h-96z" />
    <glyph glyph-name="idieresis" unicode="&#xef;" horiz-adv-x="254" 
d="M79 0q-10 0 -17.5 7.5t-7.5 17.5v450q0 11 7.5 18t17.5 7h96q11 0 18 -7t7 -18v-450q0 -10 -7 -17.5t-18 -7.5h-96zM-35.5 596.5q-26.5 26.5 -26.5 64.5q0 37 26.5 63.5t64.5 26.5t64.5 -26.5t26.5 -63.5q0 -38 -26.5 -64.5t-64.5 -26.5t-64.5 26.5zM161.5 593.5
q-26.5 26.5 -26.5 64.5q0 37 26.5 63.5t64.5 26.5t64.5 -26.5t26.5 -63.5q0 -38 -26.5 -64.5t-64.5 -26.5t-64.5 26.5z" />
    <glyph glyph-name="eth" unicode="&#xf0;" horiz-adv-x="623" 
d="M171.5 25.5q-60.5 35.5 -95.5 96t-35 133.5q0 69 29 122.5t81.5 84t120.5 30.5q58 0 111.5 -33.5t71.5 -84.5q-9 108 -62 161t-133 53q-28 0 -52 -8q-6 -2 -10 -2q-8 0 -14 4.5t-9 11.5l-29 71q-2 3 -2 11t4.5 14t11.5 8q48 18 100 18q97 0 167 -50l41 31q6 5 16 5
q11 0 18 -8l25 -30q7 -9 7 -17q0 -11 -11 -20l-29 -23q45 -55 67.5 -131t18.5 -168q-2 -85 -33.5 -156.5t-93 -115t-148.5 -43.5q-73 0 -133.5 35.5zM412 151.5q36 39.5 38 103.5q0 40 -19 72.5t-51.5 50.5t-71.5 18q-38 0 -69 -18.5t-49 -51t-18 -71.5q0 -40 18.5 -72.5
t50.5 -51.5t72 -19q63 0 99 39.5z" />
    <glyph glyph-name="ntilde" unicode="&#xf1;" horiz-adv-x="635" 
d="M83 0q-10 0 -17.5 7.5t-7.5 17.5v450q0 11 7.5 18t17.5 7h83q11 0 18 -7t7 -18v-86q44 64 102 94t121 30q93 0 132 -48t39 -143v-297q0 -10 -7 -17.5t-18 -7.5h-98q-10 0 -17.5 7.5t-7.5 17.5v246q0 61 -21.5 90.5t-75.5 29.5q-43 0 -79.5 -25.5t-56.5 -68.5v-272
q0 -10 -7 -17.5t-18 -7.5h-96zM277 597q-43 13 -63 13q-22 0 -39 -11q-8 -7 -19 -7q-13 0 -19 14l-26 59q-2 4 -2 7q0 6 5 13q40 40 100 40q33 0 89 -14q10 -2 28 -8q17 -5 34 -8.5t30 -3.5q25 0 42 12q9 6 19 6q14 0 20 -15l24 -63q1 -2 1 -6q0 -8 -5 -13q-39 -38 -98 -38
q-21 0 -46.5 4.5t-48.5 10.5q-11 3 -26 8z" />
    <glyph glyph-name="ograve" unicode="&#xf2;" horiz-adv-x="643" 
d="M169 20q-63 34 -95.5 93.5t-32.5 136.5t32.5 136.5t95.5 93.5t152 34t152.5 -34t96 -93.5t32.5 -136.5t-32.5 -136.5t-96 -93.5t-152.5 -34t-152 34zM419.5 146.5q35.5 40.5 35.5 103.5t-35.5 103.5t-98.5 40.5q-62 0 -97.5 -40.5t-35.5 -103.5t35.5 -103.5t97.5 -40.5
q63 0 98.5 40.5zM298 571q-9 0 -13 6l-122 143q-8 10 -8 19q0 11 8 18.5t21 7.5h99q12 0 16 -9l81 -148q4 -8 4 -13q0 -10 -7.5 -17t-18.5 -7h-60z" />
    <glyph glyph-name="oacute" unicode="&#xf3;" horiz-adv-x="643" 
d="M169 20q-63 34 -95.5 93.5t-32.5 136.5t32.5 136.5t95.5 93.5t152 34t152.5 -34t96 -93.5t32.5 -136.5t-32.5 -136.5t-96 -93.5t-152.5 -34t-152 34zM419.5 146.5q35.5 40.5 35.5 103.5t-35.5 103.5t-98.5 40.5q-62 0 -97.5 -40.5t-35.5 -103.5t35.5 -103.5t97.5 -40.5
q63 0 98.5 40.5zM299 572q-11 0 -18.5 7t-7.5 17q0 5 4 13l81 148q5 9 16 9h99q13 0 21 -8t8 -18t-8 -20l-123 -142q-5 -6 -13 -6h-59z" />
    <glyph glyph-name="ocircumflex" unicode="&#xf4;" horiz-adv-x="643" 
d="M164 572q-12 0 -19.5 7.5t-7.5 17.5q0 11 7 19l114 145q5 6 13 6h103q9 0 13 -6l114 -145q7 -8 7 -19q0 -10 -7.5 -17.5t-19.5 -7.5h-97q-9 0 -14 9l-47 88l-47 -88q-1 -4 -5.5 -6.5t-9.5 -2.5h-97zM169 20q-63 34 -95.5 93.5t-32.5 136.5t32.5 136.5t95.5 93.5t152 34
t152.5 -34t96 -93.5t32.5 -136.5t-32.5 -136.5t-96 -93.5t-152.5 -34t-152 34zM419.5 146.5q35.5 40.5 35.5 103.5t-35.5 103.5t-98.5 40.5q-62 0 -97.5 -40.5t-35.5 -103.5t35.5 -103.5t97.5 -40.5q63 0 98.5 40.5z" />
    <glyph glyph-name="otilde" unicode="&#xf5;" horiz-adv-x="643" 
d="M169 20q-63 34 -95.5 93.5t-32.5 136.5t32.5 136.5t95.5 93.5t152 34t152.5 -34t96 -93.5t32.5 -136.5t-32.5 -136.5t-96 -93.5t-152.5 -34t-152 34zM419.5 146.5q35.5 40.5 35.5 103.5t-35.5 103.5t-98.5 40.5q-62 0 -97.5 -40.5t-35.5 -103.5t35.5 -103.5t97.5 -40.5
q63 0 98.5 40.5zM297 590q-43 13 -63 13q-22 0 -39 -11q-8 -7 -19 -7q-13 0 -19 14l-26 59q-2 4 -2 7q0 6 5 13q40 40 100 40q33 0 89 -14q10 -2 28 -8q17 -5 34 -8.5t30 -3.5q25 0 42 12q9 6 19 6q14 0 20 -15l24 -63q1 -2 1 -6q0 -8 -5 -13q-39 -38 -98 -38
q-21 0 -46.5 4.5t-48.5 10.5q-11 3 -26 8z" />
    <glyph glyph-name="odieresis" unicode="&#xf6;" horiz-adv-x="643" 
d="M169 20q-63 34 -95.5 93.5t-32.5 136.5t32.5 136.5t95.5 93.5t152 34t152.5 -34t96 -93.5t32.5 -136.5t-32.5 -136.5t-96 -93.5t-152.5 -34t-152 34zM419.5 146.5q35.5 40.5 35.5 103.5t-35.5 103.5t-98.5 40.5q-62 0 -97.5 -40.5t-35.5 -103.5t35.5 -103.5t97.5 -40.5
q63 0 98.5 40.5zM141 592.5q-27 26.5 -27 64.5q0 37 27 63.5t65 26.5q37 0 64 -26.5t27 -63.5t-26.5 -64t-64.5 -27t-65 26.5zM382 592.5q-27 26.5 -27 64.5q0 37 27 63.5t65 26.5t65 -26.5t27 -63.5q0 -38 -27 -64.5t-65 -26.5t-65 26.5z" />
    <glyph glyph-name="divide" unicode="&#xf7;" horiz-adv-x="512" 
d="M217.5 477q-23.5 23 -23.5 55t23.5 55t55.5 23q31 0 53.5 -23t22.5 -55t-22.5 -55t-53.5 -23q-32 0 -55.5 23zM94 293q-8 0 -14 6t-6 14v70q0 8 6 14t14 6h355q8 0 14 -6t6 -14v-70q0 -8 -6 -14t-14 -6h-355zM217 106.5q-23 22.5 -23 55.5q0 32 23.5 55t55.5 23
q31 0 53.5 -23t22.5 -55q0 -33 -22.5 -55.5t-53.5 -22.5q-33 0 -56 22.5z" />
    <glyph glyph-name="oslash" unicode="&#xf8;" horiz-adv-x="643" 
d="M494 468q53 -34 80.5 -90.5t27.5 -127.5q0 -77 -32.5 -136.5t-96 -93.5t-152.5 -34q-81 0 -144 30l-36 -52q-10 -15 -20 -23.5t-13 -6.5l-27 23q-4 2 1 14.5t16 26.5l33 47q-44 35 -67 88t-23 117q0 77 32.5 136.5t95.5 93.5t152 34q71 0 123 -21l63 91q11 15 20.5 23.5
t12.5 5.5l27 -22q3 -3 -2 -15t-15 -27zM212 161l157 225q-22 8 -48 8q-62 0 -97.5 -40.5t-35.5 -103.5q0 -53 24 -89zM419.5 146.5q35.5 40.5 35.5 103.5q0 32 -10 59.5t-29 47.5l-164 -234q29 -17 69 -17q63 0 98.5 40.5z" />
    <glyph glyph-name="ugrave" unicode="&#xf9;" 
d="M89.5 35q-38.5 48 -38.5 143v297q0 11 7.5 18t17.5 7h97q11 0 18 -7t7 -18v-246q0 -60 21.5 -90t75.5 -30q43 0 80 25.5t56 68.5v272q0 11 7.5 18t17.5 7h97q11 0 18 -7t7 -18v-450q0 -10 -7 -17.5t-18 -7.5h-84q-10 0 -17.5 7.5t-7.5 17.5v86q-43 -65 -101 -94.5
t-122 -29.5q-93 0 -131.5 48zM336 569q-9 0 -13 6l-122 143q-8 10 -8 19q0 11 8 18.5t21 7.5h99q12 0 16 -9l81 -148q4 -8 4 -13q0 -10 -7.5 -17t-18.5 -7h-60z" />
    <glyph glyph-name="uacute" unicode="&#xfa;" 
d="M89.5 35q-38.5 48 -38.5 143v297q0 11 7.5 18t17.5 7h97q11 0 18 -7t7 -18v-246q0 -60 21.5 -90t75.5 -30q43 0 80 25.5t56 68.5v272q0 11 7.5 18t17.5 7h97q11 0 18 -7t7 -18v-450q0 -10 -7 -17.5t-18 -7.5h-84q-10 0 -17.5 7.5t-7.5 17.5v86q-43 -65 -101 -94.5
t-122 -29.5q-93 0 -131.5 48zM283 568q-11 0 -18.5 7t-7.5 17q0 5 4 13l81 148q5 9 16 9h99q13 0 21 -8t8 -18t-8 -20l-123 -142q-5 -6 -13 -6h-59z" />
    <glyph glyph-name="ucircumflex" unicode="&#xfb;" 
d="M161 572q-12 0 -19.5 7.5t-7.5 17.5q0 11 7 19l114 145q5 6 13 6h103q9 0 13 -6l114 -145q7 -8 7 -19q0 -10 -7.5 -17.5t-19.5 -7.5h-97q-9 0 -14 9l-47 88l-47 -88q-1 -4 -5.5 -6.5t-9.5 -2.5h-97zM89.5 35q-38.5 48 -38.5 143v297q0 11 7.5 18t17.5 7h97q11 0 18 -7
t7 -18v-246q0 -60 21.5 -90t75.5 -30q43 0 80 25.5t56 68.5v272q0 11 7.5 18t17.5 7h97q11 0 18 -7t7 -18v-450q0 -10 -7 -17.5t-18 -7.5h-84q-10 0 -17.5 7.5t-7.5 17.5v86q-43 -65 -101 -94.5t-122 -29.5q-93 0 -131.5 48z" />
    <glyph glyph-name="udieresis" unicode="&#xfc;" 
d="M89.5 35q-38.5 48 -38.5 143v297q0 11 7.5 18t17.5 7h97q11 0 18 -7t7 -18v-246q0 -60 21.5 -90t75.5 -30q43 0 80 25.5t56 68.5v272q0 11 7.5 18t17.5 7h97q11 0 18 -7t7 -18v-450q0 -10 -7 -17.5t-18 -7.5h-84q-10 0 -17.5 7.5t-7.5 17.5v86q-43 -65 -101 -94.5
t-122 -29.5q-93 0 -131.5 48zM133 591.5q-27 26.5 -27 64.5q0 37 27 63.5t65 26.5q37 0 64 -26.5t27 -63.5t-26.5 -64t-64.5 -27t-65 26.5zM374 591.5q-27 26.5 -27 64.5q0 37 27 63.5t65 26.5t65 -26.5t27 -63.5q0 -38 -27 -64.5t-65 -26.5t-65 26.5z" />
    <glyph glyph-name="yacute" unicode="&#xfd;" horiz-adv-x="663" 
d="M103.5 -238.5q-7.5 7.5 -7.5 18.5v75q0 10 7.5 17.5t18.5 8.5q44 2 80 20t53 51l20 47l-229 457q-4 7 -4 15q0 12 9 20.5t22 8.5h103q14 0 20 -13l145 -310l110 308q5 15 21 15h105q13 0 21.5 -8.5t8.5 -20.5q0 -7 -2 -11l-196 -502q-39 -107 -104.5 -154t-182.5 -50
q-11 0 -18.5 7.5zM328 571q-11 0 -18.5 7t-7.5 17q0 5 4 13l81 148q5 9 16 9h99q13 0 21 -8t8 -18t-8 -20l-123 -142q-5 -6 -13 -6h-59z" />
    <glyph glyph-name="thorn" unicode="&#xfe;" horiz-adv-x="637" 
d="M79 -250q-10 0 -17.5 7t-7.5 18v900q0 11 7.5 18t17.5 7h96q11 0 18 -7t7 -18v-224q61 64 159 64q68 0 122 -34.5t84.5 -95t30.5 -135.5q0 -74 -30.5 -134t-85 -94t-121.5 -34q-101 0 -159 61v-274q0 -11 -7 -18t-18 -7h-96zM414 145q35 39 35 105t-35 105t-94 39
q-41 0 -71.5 -18.5t-48.5 -52.5v-145q18 -34 48.5 -53t71.5 -19q59 0 94 39z" />
    <glyph glyph-name="ydieresis" unicode="&#xff;" horiz-adv-x="663" 
d="M103.5 -238.5q-7.5 7.5 -7.5 18.5v75q0 10 7.5 17.5t18.5 8.5q44 2 80 20t53 51l20 47l-229 457q-4 7 -4 15q0 12 9 20.5t22 8.5h103q14 0 20 -13l145 -310l110 308q5 15 21 15h105q13 0 21.5 -8.5t8.5 -20.5q0 -7 -2 -11l-196 -502q-39 -107 -104.5 -154t-182.5 -50
q-11 0 -18.5 7.5zM162 592.5q-27 26.5 -27 64.5q0 37 27 63.5t65 26.5q37 0 64 -26.5t27 -63.5t-26.5 -64t-64.5 -27t-65 26.5zM403 592.5q-27 26.5 -27 64.5q0 37 27 63.5t65 26.5t65 -26.5t27 -63.5q0 -38 -27 -64.5t-65 -26.5t-65 26.5z" />
    <glyph glyph-name="Amacron" unicode="&#x100;" horiz-adv-x="765" 
d="M72 0q-13 0 -21.5 8.5t-8.5 20.5q0 7 2 11l250 645q2 7 8.5 11t13.5 4h135q7 0 13.5 -4t8.5 -11l249 -645q2 -4 2 -12q0 -12 -8 -20t-21 -8h-104q-7 0 -13.5 4t-8.5 11l-54 141h-265l-54 -141q-2 -7 -8.5 -11t-13.5 -4h-102zM383 507l-84 -221h168zM217 749q-8 0 -14 6
t-6 14v70q0 8 6 14t14 6h329q8 0 14 -6t6 -14v-70q0 -8 -6 -14t-14 -6h-329z" />
    <glyph glyph-name="amacron" unicode="&#x101;" horiz-adv-x="607" 
d="M89.5 27.5q-48.5 41.5 -48.5 114.5q0 71 56.5 116t163.5 45q80 0 146 -24v11q0 60 -29 89.5t-91 29.5q-69 0 -136 -38q-5 -4 -13 -4q-13 0 -21 11l-30 42q-5 8 -5 16q0 15 13 22q105 56 225 56q113 0 173.5 -50t60.5 -146v-293q0 -10 -7 -17.5t-18 -7.5h-78
q-10 0 -17.5 7.5t-7.5 17.5v25q-33 -27 -85.5 -45.5t-108.5 -18.5q-94 0 -142.5 41.5zM352.5 91q38.5 15 55.5 33v79q-44 21 -96 21q-124 0 -124 -74q-3 -74 88 -74q38 0 76.5 15zM144 573q-8 0 -14 6t-6 14v70q0 8 6 14t14 6h329q8 0 14 -6t6 -14v-70q0 -8 -6 -14t-14 -6
h-329z" />
    <glyph glyph-name="Abreve" unicode="&#x102;" horiz-adv-x="765" 
d="M72 0q-13 0 -21.5 8.5t-8.5 20.5q0 7 2 11l250 645q2 7 8.5 11t13.5 4h135q7 0 13.5 -4t8.5 -11l249 -645q2 -4 2 -12q0 -12 -8 -20t-21 -8h-104q-7 0 -13.5 4t-8.5 11l-54 141h-265l-54 -141q-2 -7 -8.5 -11t-13.5 -4h-102zM383 507l-84 -221h168zM239 788.5
q-53 46.5 -56 128.5q0 8 6 14t14 6h80q8 0 13 -5.5t6 -13.5q9 -67 81 -67q35 0 55.5 15.5t24.5 51.5q1 8 6.5 13.5t13.5 5.5h80q8 0 14 -5.5t6 -14.5q-4 -82 -57 -128.5t-144 -46.5q-90 0 -143 46.5z" />
    <glyph glyph-name="abreve" unicode="&#x103;" horiz-adv-x="607" 
d="M180 610.5q-51 46.5 -54 128.5q0 8 5.5 14t13.5 6h78q7 0 12 -5.5t6 -13.5q9 -67 79 -67q34 0 54 15.5t24 51.5q0 8 5.5 13.5t13.5 5.5h78q8 0 13.5 -5.5t5.5 -14.5q-4 -82 -55.5 -128.5t-139.5 -46.5t-139 46.5zM89.5 27.5q-48.5 41.5 -48.5 114.5q0 71 56.5 116
t163.5 45q80 0 146 -24v11q0 60 -29 89.5t-91 29.5q-69 0 -136 -38q-5 -4 -13 -4q-13 0 -21 11l-30 42q-5 8 -5 16q0 15 13 22q105 56 225 56q113 0 173.5 -50t60.5 -146v-293q0 -10 -7 -17.5t-18 -7.5h-78q-10 0 -17.5 7.5t-7.5 17.5v25q-33 -27 -85.5 -45.5t-108.5 -18.5
q-94 0 -142.5 41.5zM352.5 91q38.5 15 55.5 33v79q-44 21 -96 21q-124 0 -124 -74q-3 -74 88 -74q38 0 76.5 15z" />
    <glyph glyph-name="Aogonek" unicode="&#x104;" horiz-adv-x="765" 
d="M776 -178q5 -7 5 -13q0 -9 -8 -17q-23 -21 -51.5 -31.5t-58.5 -10.5q-54 0 -91.5 33t-37.5 89q0 32 16.5 65t49.5 63h-9q-7 0 -13.5 4t-8.5 11l-54 141h-265l-54 -141q-2 -7 -8.5 -11t-13.5 -4h-102q-13 0 -21.5 8.5t-8.5 20.5q0 7 2 11l250 645q2 7 8.5 11t13.5 4h135
q7 0 13.5 -4t8.5 -11l249 -645q2 -4 2 -12q0 -12 -8 -20t-21 -8h-15q2 -6 2 -8q0 -14 -13 -27q-31 -33 -31 -63q0 -22 11.5 -34t29.5 -12q13 0 31 10q5 4 13 4q7 0 13 -6zM383 507l-84 -221h168z" />
    <glyph glyph-name="aogonek" unicode="&#x105;" horiz-adv-x="607" 
d="M598 -178q5 -7 5 -13q0 -9 -8 -17q-23 -21 -51.5 -31.5t-58.5 -10.5q-54 0 -91.5 33t-37.5 89q0 34 19.5 69.5t56.5 67.5q-6 6 -6 16v25q-33 -27 -85.5 -45.5t-108.5 -18.5q-94 0 -142.5 41.5t-48.5 114.5q0 71 56.5 116t163.5 45q80 0 146 -24v11q0 60 -29 89.5
t-91 29.5q-69 0 -136 -38q-5 -4 -13 -4q-13 0 -21 11l-30 42q-5 8 -5 16q0 15 13 22q105 56 225 56q113 0 173.5 -50t60.5 -146v-293q0 -10 -7 -17.5t-18 -7.5h-27q2 -6 2 -8q0 -14 -13 -27q-31 -33 -31 -63q0 -22 11.5 -34t29.5 -12q13 0 31 10q5 4 13 4q7 0 13 -6z
M408 203q-44 21 -96 21q-124 0 -124 -74q-3 -74 88 -74q38 0 76.5 15t55.5 33v79z" />
    <glyph glyph-name="Cacute" unicode="&#x106;" horiz-adv-x="777" 
d="M235 34.5q-87 47.5 -135.5 130.5t-48.5 185t48.5 185t135.5 130.5t197 47.5q89 0 161.5 -32t125.5 -91q6 -7 6 -16q0 -10 -9 -19l-72 -61q-7 -6 -17 -6q-11 0 -20 10q-63 73 -175 73q-66 0 -118.5 -29t-82.5 -79.5t-30 -112.5t30 -112.5t82.5 -79.5t118.5 -29
q112 0 175 73q9 10 21 10q9 0 16 -6l72 -61q10 -9 10 -20q0 -6 -5 -13q-53 -60 -126.5 -92.5t-162.5 -32.5q-110 0 -197 47.5zM394 747q-11 0 -18.5 7t-7.5 17q0 5 4 13l81 148q4 9 16 9h99q13 0 21 -8t8 -18t-8 -20l-123 -142q-4 -6 -13 -6h-59z" />
    <glyph glyph-name="cacute" unicode="&#x107;" horiz-adv-x="558" 
d="M171 20q-64 33 -97 93t-33 139q0 76 33.5 135t98 92.5t152.5 33.5q109 0 185 -54q10 -6 10 -19q0 -8 -6 -16l-41 -54q-7 -10 -20 -10q-8 0 -16 5q-46 32 -106 32q-65 0 -104 -42.5t-39 -104.5t39 -104t104 -42q60 0 106 32q8 5 16 5q13 0 20 -10l42 -54q7 -8 7 -18
q0 -8 -6 -13q-76 -59 -191 -59q-90 0 -154 33zM287 571q-11 0 -18.5 7t-7.5 17q0 5 4 13l81 148q4 9 16 9h99q13 0 21 -8t8 -18t-8 -20l-123 -142q-4 -6 -13 -6h-59z" />
    <glyph glyph-name="Cdotaccent" unicode="&#x10a;" horiz-adv-x="777" 
d="M235 34.5q-87 47.5 -135.5 130.5t-48.5 185t48.5 185t135.5 130.5t197 47.5q89 0 161.5 -32t125.5 -91q6 -7 6 -16q0 -10 -9 -19l-72 -61q-7 -6 -17 -6q-11 0 -20 10q-63 73 -175 73q-66 0 -118.5 -29t-82.5 -79.5t-30 -112.5t30 -112.5t82.5 -79.5t118.5 -29
q112 0 175 73q9 10 21 10q9 0 16 -6l72 -61q10 -9 10 -20q0 -6 -5 -13q-53 -60 -126.5 -92.5t-162.5 -32.5q-110 0 -197 47.5zM358.5 787.5q-26.5 26.5 -26.5 64.5q0 37 26.5 63.5t64.5 26.5t64.5 -26.5t26.5 -63.5q0 -38 -26.5 -64.5t-64.5 -26.5t-64.5 26.5z" />
    <glyph glyph-name="cdotaccent" unicode="&#x10b;" horiz-adv-x="558" 
d="M171 20q-64 33 -97 93t-33 139q0 76 33.5 135t98 92.5t152.5 33.5q109 0 185 -54q10 -6 10 -19q0 -8 -6 -16l-41 -54q-7 -10 -20 -10q-8 0 -16 5q-46 32 -106 32q-65 0 -104 -42.5t-39 -104.5t39 -104t104 -42q60 0 106 32q8 5 16 5q13 0 20 -10l42 -54q7 -8 7 -18
q0 -8 -6 -13q-76 -59 -191 -59q-90 0 -154 33zM254.5 594.5q-26.5 26.5 -26.5 64.5q0 37 26.5 63.5t64.5 26.5t64.5 -26.5t26.5 -63.5q0 -38 -26.5 -64.5t-64.5 -26.5t-64.5 26.5z" />
    <glyph glyph-name="Ccaron" unicode="&#x10c;" horiz-adv-x="785" 
d="M235 34.5q-87 47.5 -135.5 130.5t-48.5 185t48.5 185t135.5 130.5t197 47.5q89 0 161.5 -32t125.5 -91q6 -7 6 -16q0 -10 -9 -19l-72 -61q-7 -6 -17 -6q-11 0 -20 10q-63 73 -175 73q-66 0 -118.5 -29t-82.5 -79.5t-30 -112.5t30 -112.5t82.5 -79.5t118.5 -29
q112 0 175 73q9 10 21 10q9 0 16 -6l72 -61q10 -9 10 -20q0 -6 -5 -13q-53 -60 -126.5 -92.5t-162.5 -32.5q-110 0 -197 47.5zM372 748q-9 0 -13 6l-119 145q-7 8 -7 19q0 10 8 17.5t20 7.5h102q10 0 15 -9l48 -87l49 87q5 9 15 9h101q12 0 20 -7.5t8 -17.5q0 -11 -7 -19
l-119 -145q-4 -6 -13 -6h-108z" />
    <glyph glyph-name="ccaron" unicode="&#x10d;" horiz-adv-x="558" 
d="M253 566q-8 0 -13 6l-114 145q-7 8 -7 19q0 10 7.5 17.5t19.5 7.5h98q4 0 8 -2.5t6 -6.5l47 -87l47 87q5 9 14 9h97q12 0 19.5 -7.5t7.5 -17.5q0 -11 -7 -19l-114 -145q-4 -6 -13 -6h-103zM171 20q-64 33 -97 93t-33 139q0 76 33.5 135t98 92.5t152.5 33.5q109 0 185 -54
q10 -6 10 -19q0 -8 -6 -16l-41 -54q-7 -10 -20 -10q-8 0 -16 5q-46 32 -106 32q-65 0 -104 -42.5t-39 -104.5t39 -104t104 -42q60 0 106 32q8 5 16 5q13 0 20 -10l42 -54q7 -8 7 -18q0 -8 -6 -13q-76 -59 -191 -59q-90 0 -154 33z" />
    <glyph glyph-name="Dcaron" unicode="&#x10e;" horiz-adv-x="786" 
d="M91 0q-11 0 -18.5 7.5t-7.5 17.5v650q0 11 7.5 18t17.5 7h271q115 0 200 -46t130 -125.5t45 -178.5t-45 -178.5t-130 -125.5t-200 -46h-270zM361 139q65 0 116 24.5t80.5 72.5t29.5 114t-29.5 114t-80.5 72.5t-116 24.5h-149v-422h149zM294 746q-9 0 -13 6l-119 145
q-7 8 -7 19q0 10 8 17.5t20 7.5h102q10 0 15 -9l48 -87l49 87q5 9 15 9h101q12 0 20 -7.5t8 -17.5q0 -11 -7 -19l-119 -145q-4 -6 -13 -6h-108z" />
    <glyph glyph-name="dcaron" unicode="&#x10f;" horiz-adv-x="641" 
d="M478 738q-8 0 -12 6l-102 145q-6 9 -6 19t6.5 17.5t17.5 7.5h88q8 0 13 -9l41 -87l42 87q5 9 13 9h87q11 0 17.5 -7.5t6.5 -17.5t-6 -19l-102 -145q-4 -6 -11 -6h-93zM156.5 22q-54.5 34 -85 94t-30.5 134q0 75 30.5 135t85 93.5t122.5 33.5q99 0 158 -61v224
q0 11 7.5 18t17.5 7h97q11 0 18 -7t7 -18v-650q0 -10 -7 -17.5t-18 -7.5h-67q-11 0 -18.5 7.5t-7.5 17.5v52q-32 -43 -80 -66t-107 -23q-68 0 -122.5 34zM389.5 125q30.5 19 47.5 53v145q-17 34 -47.5 52.5t-72.5 18.5q-59 0 -94 -39t-35 -105t35 -105t94 -39q42 0 72.5 19z
" />
    <glyph glyph-name="Dcroat" unicode="&#x110;" horiz-adv-x="786" 
d="M91 0q-11 0 -18.5 7.5t-7.5 17.5v270h-36q-10 0 -17.5 7.5t-7.5 17.5v60q0 11 7.5 18t17.5 7h36v270q0 11 7.5 18t17.5 7h271q115 0 200 -46t130 -125.5t45 -178.5t-45 -178.5t-130 -125.5t-200 -46h-270zM361 139q65 0 116 24.5t80.5 72.5t29.5 114t-29.5 114
t-80.5 72.5t-116 24.5h-149v-156h41q11 0 18 -7t7 -18v-60q0 -10 -7 -17.5t-18 -7.5h-41v-156h149z" />
    <glyph glyph-name="dcroat" unicode="&#x111;" horiz-adv-x="637" 
d="M156.5 22q-54.5 34 -85 94t-30.5 134q0 75 30.5 135.5t85 95t122.5 34.5q97 0 158 -64v110h-29q-11 0 -18.5 7.5t-7.5 17.5v11q0 11 7.5 18t17.5 7h30v53q0 11 7.5 18t17.5 7h97q11 0 18 -7t7 -18v-53h31q11 0 18 -7t7 -18v-11q0 -10 -7 -17.5t-18 -7.5h-31v-536
q0 -10 -7 -17.5t-18 -7.5h-67q-11 0 -18.5 7.5t-7.5 17.5v52q-31 -44 -79 -66.5t-108 -22.5q-68 0 -122.5 34zM389.5 125q30.5 19 47.5 53v145q-17 34 -47.5 52.5t-72.5 18.5q-59 0 -94 -39t-35 -105t35 -105t94 -39q42 0 72.5 19z" />
    <glyph glyph-name="Emacron" unicode="&#x112;" horiz-adv-x="676" 
d="M91 0q-11 0 -18.5 7.5t-7.5 17.5v650q0 11 7.5 18t17.5 7h496q11 0 18 -7t7 -18v-81q0 -11 -7.5 -18.5t-17.5 -7.5h-374v-148h275q11 0 18.5 -7.5t7.5 -17.5v-90q0 -10 -7 -17.5t-18 -7.5h-276v-148h373q11 0 18.5 -7.5t7.5 -17.5v-81q0 -11 -7.5 -18.5t-17.5 -7.5h-495z
M176 760q-8 0 -14 6t-6 14v70q0 8 6 14t14 6h329q8 0 14 -6t6 -14v-70q0 -8 -6 -14t-14 -6h-329z" />
    <glyph glyph-name="emacron" unicode="&#x113;" 
d="M174.5 20q-64.5 34 -99 94t-34.5 136t34 136t98 94t151 34q120 0 187 -61t79 -168v-21q0 -10 -7 -17.5t-18 -7.5h-372q0 -41 20 -75.5t55.5 -54.5t78.5 -20q66 0 122 36q8 5 15 5q12 0 19 -9l34 -42q7 -8 7 -18q0 -8 -6 -13q-38 -30 -94 -46t-119 -16q-86 0 -150.5 34z
M441 327q-13 43 -42 67t-75 24q-47 0 -79.5 -24.5t-47.5 -66.5h244zM155 573q-8 0 -14 6t-6 14v70q0 8 6 14t14 6h329q8 0 14 -6t6 -14v-70q0 -8 -6 -14t-14 -6h-329z" />
    <glyph glyph-name="Edotaccent" unicode="&#x116;" horiz-adv-x="676" 
d="M91 0q-11 0 -18.5 7.5t-7.5 17.5v650q0 11 7.5 18t17.5 7h496q11 0 18 -7t7 -18v-81q0 -11 -7.5 -18.5t-17.5 -7.5h-374v-148h275q11 0 18.5 -7.5t7.5 -17.5v-90q0 -10 -7 -17.5t-18 -7.5h-276v-148h373q11 0 18.5 -7.5t7.5 -17.5v-81q0 -11 -7.5 -18.5t-17.5 -7.5h-495z
M275.5 771.5q-26.5 26.5 -26.5 64.5q0 37 26.5 63.5t64.5 26.5t64.5 -26.5t26.5 -63.5q0 -38 -26.5 -64.5t-64.5 -26.5t-64.5 26.5z" />
    <glyph glyph-name="edotaccent" unicode="&#x117;" 
d="M174.5 20q-64.5 34 -99 94t-34.5 136t34 136t98 94t151 34q120 0 187 -61t79 -168v-21q0 -10 -7 -17.5t-18 -7.5h-372q0 -41 20 -75.5t55.5 -54.5t78.5 -20q66 0 122 36q8 5 15 5q12 0 19 -9l34 -42q7 -8 7 -18q0 -8 -6 -13q-38 -30 -94 -46t-119 -16q-86 0 -150.5 34z
M441 327q-13 43 -42 67t-75 24q-47 0 -79.5 -24.5t-47.5 -66.5h244zM258.5 595.5q-26.5 26.5 -26.5 64.5q0 37 26.5 63.5t64.5 26.5t64.5 -26.5t26.5 -63.5q0 -38 -26.5 -64.5t-64.5 -26.5t-64.5 26.5z" />
    <glyph glyph-name="Eogonek" unicode="&#x118;" horiz-adv-x="676" 
d="M212 568v-148h275q11 0 18.5 -7.5t7.5 -17.5v-90q0 -10 -7 -17.5t-18 -7.5h-276v-148h373q11 0 18.5 -7.5t7.5 -17.5v-81q0 -11 -7.5 -18.5t-17.5 -7.5h-216q2 -6 2 -9q0 -14 -13 -27q-31 -33 -31 -63q0 -22 11.5 -34t29.5 -12q13 0 31 10q5 4 13 4q7 0 13 -6l40 -42
q5 -7 5 -13q0 -9 -8 -17q-23 -21 -51.5 -31.5t-58.5 -10.5q-54 0 -91.5 33t-37.5 89q0 67 67 129h-200q-11 0 -18.5 7.5t-7.5 17.5v650q0 11 7.5 18t17.5 7h496q11 0 18 -7t7 -18v-81q0 -11 -7.5 -18.5t-17.5 -7.5h-374z" />
    <glyph glyph-name="eogonek" unicode="&#x119;" 
d="M511 453q67 -61 79 -168v-21q0 -10 -7 -17.5t-18 -7.5h-372q0 -41 20 -75.5t55.5 -54.5t78.5 -20q66 0 122 36q8 5 15 5q12 0 19 -9l34 -42q7 -8 7 -18q0 -8 -6 -13q-32 -25 -76.5 -40t-95.5 -20q0 -14 -13 -27q-31 -33 -31 -63q0 -22 11.5 -34t29.5 -12q13 0 31 10
q5 4 13 4q7 0 13 -6l40 -42q5 -7 5 -13q0 -9 -8 -17q-23 -21 -51.5 -31.5t-58.5 -10.5q-54 0 -91.5 33t-37.5 89q0 61 58 121q-72 9 -125.5 45t-81.5 92t-28 124q0 76 34 136t98 94t151 34q120 0 187 -61zM441 327q-13 43 -42 67t-75 24q-47 0 -79.5 -24.5t-47.5 -66.5h244z
" />
    <glyph glyph-name="Ecaron" unicode="&#x11a;" horiz-adv-x="676" 
d="M91 0q-11 0 -18.5 7.5t-7.5 17.5v650q0 11 7.5 18t17.5 7h496q11 0 18 -7t7 -18v-81q0 -11 -7.5 -18.5t-17.5 -7.5h-374v-148h275q11 0 18.5 -7.5t7.5 -17.5v-90q0 -10 -7 -17.5t-18 -7.5h-276v-148h373q11 0 18.5 -7.5t7.5 -17.5v-81q0 -11 -7.5 -18.5t-17.5 -7.5h-495z
M289 745q-9 0 -13 6l-119 145q-7 8 -7 19q0 10 8 17.5t20 7.5h102q10 0 15 -9l48 -87l49 87q5 9 15 9h101q12 0 20 -7.5t8 -17.5q0 -11 -7 -19l-119 -145q-4 -6 -13 -6h-108z" />
    <glyph glyph-name="ecaron" unicode="&#x11b;" 
d="M274 571q-8 0 -13 6l-114 145q-7 8 -7 19q0 10 7.5 17.5t19.5 7.5h98q4 0 8 -2.5t6 -6.5l47 -87l47 87q5 9 14 9h97q12 0 19.5 -7.5t7.5 -17.5q0 -11 -7 -19l-114 -145q-4 -6 -13 -6h-103zM174.5 20q-64.5 34 -99 94t-34.5 136t34 136t98 94t151 34q120 0 187 -61
t79 -168v-21q0 -10 -7 -17.5t-18 -7.5h-372q0 -41 20 -75.5t55.5 -54.5t78.5 -20q66 0 122 36q8 5 15 5q12 0 19 -9l34 -42q7 -8 7 -18q0 -8 -6 -13q-38 -30 -94 -46t-119 -16q-86 0 -150.5 34zM441 327q-13 43 -42 67t-75 24q-47 0 -79.5 -24.5t-47.5 -66.5h244z" />
    <glyph glyph-name="Gbreve" unicode="&#x11e;" horiz-adv-x="801" 
d="M235 34.5q-87 47.5 -135.5 130.5t-48.5 185t48.5 185t135.5 130.5t197 47.5q183 0 287 -116q6 -7 6 -16q0 -10 -9 -19l-72 -61q-7 -6 -17 -6q-11 0 -20 10q-59 66 -175 66q-66 0 -118.5 -29t-82.5 -79.5t-30 -112.5q0 -67 32 -120.5t88 -83.5t126 -30q109 0 174 73v91
h-172q-10 0 -17.5 7.5t-7.5 17.5v71q0 11 7.5 18t17.5 7h272q11 0 18 -7t7 -18v-256q0 -9 -7 -15q-70 -63 -141.5 -90.5t-165.5 -27.5q-110 0 -197 47.5zM316 819.5q-53 46.5 -56 128.5q0 8 6 14t14 6h80q7 0 12.5 -5.5t6.5 -13.5q9 -67 81 -67q35 0 55.5 15.5t24.5 51.5
q1 8 6.5 13.5t13.5 5.5h80q8 0 14 -5.5t6 -14.5q-4 -82 -57 -128.5t-144 -46.5q-90 0 -143 46.5z" />
    <glyph glyph-name="gbreve" unicode="&#x11f;" horiz-adv-x="643" 
d="M106 -282q-59 38 -61 107q0 35 17.5 66.5t52.5 50.5q-65 30 -65 102q0 31 17.5 59.5t53.5 63.5q-38 25 -57.5 63.5t-19.5 85.5q0 88 66 141.5t188 56.5h32l226 36q13 2 22 -6t9 -21v-35q0 -10 -7 -17.5t-18 -7.5h-59q84 -50 84 -147q0 -92 -68.5 -145.5t-202.5 -53.5
q-72 0 -127 19q-42 -29 -42 -54q0 -22 17 -30t51 -8q19 0 81 4q28 2 42 4q11 1 38 3t47 2q95 0 145.5 -43.5t46.5 -121.5q-2 -67 -53 -113.5t-129 -70t-162 -24.5q-106 -4 -165 34zM412 237q35 30 35 79t-35 79t-96 30t-95.5 -30t-34.5 -79t35 -79t95 -30q61 0 96 30z
M454.5 -205.5q55.5 22.5 58.5 67.5q9 67 -103 67q-55 0 -97 -3t-50 -4l-25 -2q-21 -8 -34 -26.5t-13 -41.5q0 -35 28.5 -56t83.5 -22q96 -2 151.5 20.5zM172 635.5q-53 46.5 -56 128.5q0 8 6 14t14 6h80q7 0 12.5 -5.5t6.5 -13.5q9 -67 81 -67q35 0 55.5 15.5t24.5 51.5
q1 8 6.5 13.5t13.5 5.5h80q8 0 14 -5.5t6 -14.5q-4 -82 -57 -128.5t-144 -46.5q-90 0 -143 46.5z" />
    <glyph glyph-name="Gdotaccent" unicode="&#x120;" horiz-adv-x="801" 
d="M235 34.5q-87 47.5 -135.5 130.5t-48.5 185t48.5 185t135.5 130.5t197 47.5q183 0 287 -116q6 -7 6 -16q0 -10 -9 -19l-72 -61q-7 -6 -17 -6q-11 0 -20 10q-59 66 -175 66q-66 0 -118.5 -29t-82.5 -79.5t-30 -112.5q0 -67 32 -120.5t88 -83.5t126 -30q109 0 174 73v91
h-172q-10 0 -17.5 7.5t-7.5 17.5v71q0 11 7.5 18t17.5 7h272q11 0 18 -7t7 -18v-256q0 -9 -7 -15q-70 -63 -141.5 -90.5t-165.5 -27.5q-110 0 -197 47.5zM368.5 800.5q-26.5 26.5 -26.5 64.5q0 37 26.5 63.5t64.5 26.5t64.5 -26.5t26.5 -63.5q0 -38 -26.5 -64.5t-64.5 -26.5
t-64.5 26.5z" />
    <glyph glyph-name="gdotaccent" unicode="&#x121;" horiz-adv-x="643" 
d="M106 -282q-59 38 -61 107q0 35 17.5 66.5t52.5 50.5q-65 30 -65 102q0 31 17.5 59.5t53.5 63.5q-38 25 -57.5 63.5t-19.5 85.5q0 88 66 141.5t188 56.5h32l226 36q13 2 22 -6t9 -21v-35q0 -10 -7 -17.5t-18 -7.5h-59q84 -50 84 -147q0 -92 -68.5 -145.5t-202.5 -53.5
q-72 0 -127 19q-42 -29 -42 -54q0 -22 17 -30t51 -8q19 0 81 4q28 2 42 4q11 1 38 3t47 2q95 0 145.5 -43.5t46.5 -121.5q-2 -67 -53 -113.5t-129 -70t-162 -24.5q-106 -4 -165 34zM412 237q35 30 35 79t-35 79t-96 30t-95.5 -30t-34.5 -79t35 -79t95 -30q61 0 96 30z
M454.5 -205.5q55.5 22.5 58.5 67.5q9 67 -103 67q-55 0 -97 -3t-50 -4l-25 -2q-21 -8 -34 -26.5t-13 -41.5q0 -35 28.5 -56t83.5 -22q96 -2 151.5 20.5zM260.5 636.5q-26.5 26.5 -26.5 64.5q0 37 26.5 63.5t64.5 26.5t64.5 -26.5t26.5 -63.5q0 -38 -26.5 -64.5t-64.5 -26.5
t-64.5 26.5z" />
    <glyph glyph-name="uni0122" unicode="&#x122;" horiz-adv-x="801" 
d="M235 34.5q-87 47.5 -135.5 130.5t-48.5 185t48.5 185t135.5 130.5t197 47.5q183 0 287 -116q6 -7 6 -16q0 -10 -9 -19l-72 -61q-7 -6 -17 -6q-11 0 -20 10q-59 66 -175 66q-66 0 -118.5 -29t-82.5 -79.5t-30 -112.5q0 -67 32 -120.5t88 -83.5t126 -30q109 0 174 73v91
h-172q-10 0 -17.5 7.5t-7.5 17.5v71q0 11 7.5 18t17.5 7h272q11 0 18 -7t7 -18v-256q0 -9 -7 -15q-70 -63 -141.5 -90.5t-165.5 -27.5q-110 0 -197 47.5zM363 -279q-10 0 -16.5 7.5t-4.5 17.5l26 173q1 7 6 12t13 5h109q11 0 18 -6.5t7 -16.5q0 -7 -3 -13l-91 -170
q-5 -9 -16 -9h-48z" />
    <glyph glyph-name="uni0123" unicode="&#x123;" horiz-adv-x="643" 
d="M402 825q10 0 16.5 -7.5t4.5 -17.5l-26 -173q-1 -7 -6 -12t-13 -5h-109q-11 0 -18 6.5t-7 16.5q0 7 3 13l91 170q5 9 16 9h48zM106 -282q-59 38 -61 107q0 35 17.5 66.5t52.5 50.5q-65 30 -65 102q0 31 17.5 59.5t53.5 63.5q-38 25 -57.5 63.5t-19.5 85.5q0 88 66 141.5
t188 56.5h32l226 36q13 2 22 -6t9 -21v-35q0 -10 -7 -17.5t-18 -7.5h-59q84 -50 84 -147q0 -92 -68.5 -145.5t-202.5 -53.5q-72 0 -127 19q-42 -29 -42 -54q0 -22 17 -30t51 -8q19 0 81 4q28 2 42 4q11 1 38 3t47 2q95 0 145.5 -43.5t46.5 -121.5q-2 -67 -53 -113.5
t-129 -70t-162 -24.5q-106 -4 -165 34zM412 237q35 30 35 79t-35 79t-96 30t-95.5 -30t-34.5 -79t35 -79t95 -30q61 0 96 30zM454.5 -205.5q55.5 22.5 58.5 67.5q9 67 -103 67q-55 0 -97 -3t-50 -4l-25 -2q-21 -8 -34 -26.5t-13 -41.5q0 -35 28.5 -56t83.5 -22
q96 -2 151.5 20.5z" />
    <glyph glyph-name="Hbar" unicode="&#x126;" horiz-adv-x="764" 
d="M90 0q-10 0 -17.5 7.5t-7.5 17.5v650q0 11 7.5 18t17.5 7h97q11 0 18 -7t7 -18v-109h340v109q0 11 7.5 18t17.5 7h97q11 0 18 -7t7 -18v-650q0 -10 -7 -17.5t-18 -7.5h-97q-10 0 -17.5 7.5t-7.5 17.5v257h-340v-257q0 -10 -7 -17.5t-18 -7.5h-97zM212 510v-86h340v86
h-340z" />
    <glyph glyph-name="hbar" unicode="&#x127;" 
d="M79 0q-10 0 -17.5 7.5t-7.5 17.5v536h-32q-10 0 -17.5 7.5t-7.5 17.5v11q0 11 7.5 18t17.5 7h32v53q0 11 7.5 18t17.5 7h96q11 0 18 -7t7 -18v-53h31q11 0 18 -7t7 -18v-11q0 -10 -7 -17.5t-18 -7.5h-31v-155q42 55 96.5 81t113.5 26q93 0 131.5 -48t38.5 -143v-297
q0 -10 -7 -17.5t-18 -7.5h-97q-10 0 -17.5 7.5t-7.5 17.5v246q0 60 -21.5 90t-75.5 30q-43 0 -79.5 -25.5t-56.5 -68.5v-272q0 -10 -7 -17.5t-18 -7.5h-96z" />
    <glyph glyph-name="Imacron" unicode="&#x12a;" horiz-adv-x="277" 
d="M16 747q-6 0 -10.5 6t-4.5 14v70q0 8 4.5 14t10.5 6h242q6 0 10 -6t4 -14v-70q0 -8 -4 -14t-10 -6h-242zM90 0q-10 0 -17.5 7.5t-7.5 17.5v650q0 11 7.5 18t17.5 7h97q11 0 18 -7t7 -18v-650q0 -10 -7 -17.5t-18 -7.5h-97z" />
    <glyph glyph-name="imacron" unicode="&#x12b;" horiz-adv-x="254" 
d="M19 568q-5 0 -8.5 6t-3.5 14v70q0 8 3.5 14t8.5 6h208q5 0 9 -6t4 -14v-70q0 -8 -4 -14t-9 -6h-208zM79 0q-10 0 -17.5 7.5t-7.5 17.5v450q0 11 7.5 18t17.5 7h96q11 0 18 -7t7 -18v-450q0 -10 -7 -17.5t-18 -7.5h-96z" />
    <glyph glyph-name="Iogonek" unicode="&#x12e;" horiz-adv-x="277" 
d="M261 -178q5 -7 5 -13q0 -9 -8 -17q-23 -21 -51.5 -31.5t-58.5 -10.5q-54 0 -91.5 33t-37.5 89q0 32 17 65.5t49 62.5q-8 2 -14 9t-6 16v650q0 11 7.5 18t17.5 7h97q11 0 18 -7t7 -18v-650q0 -10 -7 -17.5t-18 -7.5h-22q2 -6 2 -8q0 -14 -13 -27q-31 -33 -31 -63
q0 -22 11.5 -34t29.5 -12q13 0 31 10q5 4 13 4q7 0 13 -6z" />
    <glyph glyph-name="iogonek" unicode="&#x12f;" horiz-adv-x="254" 
d="M66.5 582q-24.5 25 -24.5 61q0 35 24.5 60t60.5 25q35 0 60.5 -25t25.5 -60q0 -36 -25.5 -61t-60.5 -25q-36 0 -60.5 25zM25.5 -218q-37.5 33 -37.5 90q0 30 17.5 65.5t48.5 64.5v473q0 11 7.5 18t17.5 7h96q11 0 18 -7t7 -18v-450q0 -10 -4 -17.5t-9 -7.5h-14
q-37 -17 -59 -45.5t-22 -53.5q0 -21 11.5 -33.5t29.5 -12.5q12 0 28 8q8 5 16 5q10 0 16 -7l34 -36q7 -7 7 -17q0 -11 -8 -18q-50 -41 -109 -41q-54 0 -91.5 33z" />
    <glyph glyph-name="Idotaccent" unicode="&#x130;" horiz-adv-x="277" 
d="M90 0q-10 0 -17.5 7.5t-7.5 17.5v650q0 11 7.5 18t17.5 7h97q11 0 18 -7t7 -18v-650q0 -10 -7 -17.5t-18 -7.5h-97zM75.5 766.5q-26.5 26.5 -26.5 64.5q0 37 26.5 63.5t64.5 26.5t64.5 -26.5t26.5 -63.5q0 -38 -26.5 -64.5t-64.5 -26.5t-64.5 26.5z" />
    <glyph glyph-name="dotlessi" unicode="&#x131;" horiz-adv-x="254" 
d="M79 0q-10 0 -17.5 7.5t-7.5 17.5v450q0 11 7.5 18t17.5 7h96q11 0 18 -7t7 -18v-450q0 -10 -7 -17.5t-18 -7.5h-96z" />
    <glyph glyph-name="uni0136" unicode="&#x136;" horiz-adv-x="717" 
d="M90 0q-10 0 -17.5 7.5t-7.5 17.5v650q0 11 7.5 18t17.5 7h97q11 0 18 -7t7 -18v-251h96l220 268q6 8 16 8h82q16 0 25.5 -9.5t9.5 -22.5q0 -14 -8 -23l-236 -292l237 -298q8 -9 8 -23q0 -13 -9.5 -22.5t-25.5 -9.5h-95q-10 0 -16 8l-217 270h-87v-253q0 -10 -7 -17.5
t-18 -7.5h-97zM278 -269q-10 0 -16.5 7.5t-4.5 17.5l26 173q1 7 6 12t13 5h109q11 0 18 -6.5t7 -16.5q0 -7 -3 -13l-91 -170q-4 -9 -16 -9h-48z" />
    <glyph glyph-name="uni0137" unicode="&#x137;" horiz-adv-x="587" 
d="M79 0q-10 0 -17.5 7.5t-7.5 17.5v650q0 11 7.5 18t17.5 7h96q11 0 18 -7t7 -18v-349h47l170 168q6 6 15 6h74q17 0 27 -10t10 -24q0 -15 -11 -26l-175 -184l178 -195q10 -11 10 -26q0 -13 -10 -23t-26 -10h-88q-9 0 -15 7l-159 171h-47v-155q0 -10 -7 -17.5t-18 -7.5h-96
zM229 -275q-10 0 -16.5 7.5t-4.5 17.5l26 173q1 7 6 12t13 5h109q11 0 18 -6.5t7 -16.5q0 -7 -3 -13l-91 -170q-4 -9 -16 -9h-48z" />
    <glyph glyph-name="Lacute" unicode="&#x139;" horiz-adv-x="659" 
d="M91 0q-11 0 -18.5 7.5t-7.5 17.5v650q0 11 7.5 18t17.5 7h97q11 0 18 -7t7 -18v-543h373q11 0 18.5 -7.5t7.5 -17.5v-81q0 -11 -7.5 -18.5t-17.5 -7.5h-495zM128 742q-11 0 -18.5 7t-7.5 17q0 5 4 13l81 148q4 9 16 9h99q13 0 21 -8t8 -18t-8 -20l-123 -142q-4 -6 -13 -6
h-59z" />
    <glyph glyph-name="lacute" unicode="&#x13a;" horiz-adv-x="254" 
d="M114 748q-14 0 -22.5 8t-8.5 20q0 9 4 17l75 139q6 12 19 12h84q16 0 26 -9.5t10 -23.5q0 -13 -10 -24l-113 -132q-6 -7 -16 -7h-48zM79 0q-10 0 -17.5 7.5t-7.5 17.5v650q0 11 7.5 18t17.5 7h96q11 0 18 -7t7 -18v-650q0 -10 -7 -17.5t-18 -7.5h-96z" />
    <glyph glyph-name="uni013B" unicode="&#x13b;" horiz-adv-x="659" 
d="M91 0q-11 0 -18.5 7.5t-7.5 17.5v650q0 11 7.5 18t17.5 7h97q11 0 18 -7t7 -18v-543h373q11 0 18.5 -7.5t7.5 -17.5v-81q0 -11 -7.5 -18.5t-17.5 -7.5h-495zM266 -269q-10 0 -16.5 7.5t-4.5 17.5l26 173q1 7 6 12t13 5h109q11 0 18 -6.5t7 -16.5q0 -7 -3 -13l-91 -170
q-5 -9 -16 -9h-48z" />
    <glyph glyph-name="uni013C" unicode="&#x13c;" horiz-adv-x="254" 
d="M79 0q-10 0 -17.5 7.5t-7.5 17.5v650q0 11 7.5 18t17.5 7h96q11 0 18 -7t7 -18v-650q0 -10 -7 -17.5t-18 -7.5h-96zM48 -274q-10 0 -16.5 7.5t-4.5 17.5l26 173q1 7 6 12t13 5h109q11 0 18 -6.5t7 -16.5q0 -7 -3 -13l-91 -170q-5 -9 -16 -9h-48z" />
    <glyph glyph-name="Lcaron" unicode="&#x13d;" horiz-adv-x="659" 
d="M103 741q-7 0 -12 6l-107 145q-6 9 -6 19t7 17.5t18 7.5h92q8 0 13 -9l43 -87l44 87q5 9 14 9h91q11 0 18 -7.5t7 -18.5q0 -9 -6 -18l-107 -145q-5 -6 -12 -6h-97zM91 0q-11 0 -18.5 7.5t-7.5 17.5v650q0 11 7.5 18t17.5 7h97q11 0 18 -7t7 -18v-543h373q11 0 18.5 -7.5
t7.5 -17.5v-81q0 -11 -7.5 -18.5t-17.5 -7.5h-495z" />
    <glyph glyph-name="lcaron" unicode="&#x13e;" horiz-adv-x="254" 
d="M79 747q-8 0 -13 6l-114 145q-7 8 -7 19q0 10 7.5 17.5t19.5 7.5h98q4 0 8 -2.5t6 -6.5l47 -87l47 87q5 9 14 9h97q12 0 19.5 -7.5t7.5 -17.5q0 -11 -7 -19l-114 -145q-4 -6 -13 -6h-103zM79 0q-10 0 -17.5 7.5t-7.5 17.5v650q0 11 7.5 18t17.5 7h96q11 0 18 -7t7 -18
v-650q0 -10 -7 -17.5t-18 -7.5h-96z" />
    <glyph glyph-name="Lslash" unicode="&#x141;" horiz-adv-x="659" 
d="M585 132q11 0 18.5 -7.5t7.5 -17.5v-81q0 -11 -7.5 -18.5t-17.5 -7.5h-495q-11 0 -18.5 7.5t-7.5 17.5v229l-26 -23q-6 -5 -12.5 -6.5t-9.5 2.5l-27 31q-2 2 -2 5q0 9 10 17l67 59v336q0 11 7.5 18t17.5 7h97q11 0 18 -7t7 -18v-207l33 29q6 5 12.5 6.5t9.5 -2.5l27 -31
q2 -2 2 -5q0 -9 -10 -17l-74 -65v-251h373z" />
    <glyph glyph-name="lslash" unicode="&#x142;" horiz-adv-x="254" 
d="M248 423q4 -3 4 -9q0 -9 -6 -15l-46 -54v-320q0 -10 -7 -17.5t-18 -7.5h-96q-10 0 -17.5 7.5t-7.5 17.5v148l-17 -20q-5 -6 -12.5 -8t-11.5 2l-39 29q-5 3 -5 10t6 14l79 93v382q0 11 7.5 18t17.5 7h96q11 0 18 -7t7 -18v-221q5 2 9 -2z" />
    <glyph glyph-name="Nacute" unicode="&#x143;" horiz-adv-x="765" 
d="M90 0q-10 0 -17.5 7.5t-7.5 17.5v650q0 11 7.5 18t17.5 7h112q10 0 17 -9l334 -452v436q0 11 7.5 18t17.5 7h97q11 0 18 -7t7 -18v-650q0 -10 -7 -17.5t-18 -7.5h-111q-10 0 -17 9l-335 452v-436q0 -10 -7 -17.5t-18 -7.5h-97zM355 740q-11 0 -18.5 7t-7.5 17q0 5 4 13
l81 148q4 9 16 9h99q13 0 21 -8t8 -18t-8 -20l-123 -142q-4 -6 -13 -6h-59z" />
    <glyph glyph-name="nacute" unicode="&#x144;" horiz-adv-x="635" 
d="M83 0q-10 0 -17.5 7.5t-7.5 17.5v450q0 11 7.5 18t17.5 7h83q11 0 18 -7t7 -18v-86q44 64 102 94t121 30q93 0 132 -48t39 -143v-297q0 -10 -7 -17.5t-18 -7.5h-98q-10 0 -17.5 7.5t-7.5 17.5v246q0 61 -21.5 90.5t-75.5 29.5q-43 0 -79.5 -25.5t-56.5 -68.5v-272
q0 -10 -7 -17.5t-18 -7.5h-96zM265 567q-11 0 -18.5 7t-7.5 17q0 5 4 13l81 148q4 9 16 9h99q13 0 21 -8t8 -18t-8 -20l-123 -142q-4 -6 -13 -6h-59z" />
    <glyph glyph-name="uni0145" unicode="&#x145;" horiz-adv-x="765" 
d="M90 0q-10 0 -17.5 7.5t-7.5 17.5v650q0 11 7.5 18t17.5 7h112q10 0 17 -9l334 -452v436q0 11 7.5 18t17.5 7h97q11 0 18 -7t7 -18v-650q0 -10 -7 -17.5t-18 -7.5h-111q-10 0 -17 9l-335 452v-436q0 -10 -7 -17.5t-18 -7.5h-97zM309 -269q-10 0 -16.5 7.5t-4.5 17.5
l26 173q1 7 6 12t13 5h109q11 0 18 -6.5t7 -16.5q0 -7 -3 -13l-91 -170q-5 -9 -16 -9h-48z" />
    <glyph glyph-name="uni0146" unicode="&#x146;" horiz-adv-x="635" 
d="M83 0q-10 0 -17.5 7.5t-7.5 17.5v450q0 11 7.5 18t17.5 7h83q11 0 18 -7t7 -18v-86q44 64 102 94t121 30q93 0 132 -48t39 -143v-297q0 -10 -7 -17.5t-18 -7.5h-98q-10 0 -17.5 7.5t-7.5 17.5v246q0 61 -21.5 90.5t-75.5 29.5q-43 0 -79.5 -25.5t-56.5 -68.5v-272
q0 -10 -7 -17.5t-18 -7.5h-96zM243 -269q-10 0 -16.5 7.5t-4.5 17.5l26 173q1 7 6 12t13 5h109q11 0 18 -6.5t7 -16.5q0 -7 -3 -13l-91 -170q-5 -9 -16 -9h-48z" />
    <glyph glyph-name="Ncaron" unicode="&#x147;" horiz-adv-x="765" 
d="M90 0q-10 0 -17.5 7.5t-7.5 17.5v650q0 11 7.5 18t17.5 7h112q10 0 17 -9l334 -452v436q0 11 7.5 18t17.5 7h97q11 0 18 -7t7 -18v-650q0 -10 -7 -17.5t-18 -7.5h-111q-10 0 -17 9l-335 452v-436q0 -10 -7 -17.5t-18 -7.5h-97zM332 742q-9 0 -13 6l-119 145q-7 8 -7 19
q0 10 8 17.5t20 7.5h102q10 0 15 -9l48 -87l49 87q5 9 15 9h101q12 0 20 -7.5t8 -17.5q0 -11 -7 -19l-119 -145q-4 -6 -13 -6h-108z" />
    <glyph glyph-name="ncaron" unicode="&#x148;" horiz-adv-x="635" 
d="M270 566q-8 0 -13 6l-114 145q-7 8 -7 19q0 10 7.5 17.5t19.5 7.5h98q4 0 8 -2.5t6 -6.5l47 -87l47 87q5 9 14 9h97q12 0 19.5 -7.5t7.5 -17.5q0 -11 -7 -19l-114 -145q-4 -6 -13 -6h-103zM83 0q-10 0 -17.5 7.5t-7.5 17.5v450q0 11 7.5 18t17.5 7h83q11 0 18 -7t7 -18
v-86q44 64 102 94t121 30q93 0 132 -48t39 -143v-297q0 -10 -7 -17.5t-18 -7.5h-98q-10 0 -17.5 7.5t-7.5 17.5v246q0 61 -21.5 90.5t-75.5 29.5q-43 0 -79.5 -25.5t-56.5 -68.5v-272q0 -10 -7 -17.5t-18 -7.5h-96z" />
    <glyph glyph-name="Eng" unicode="&#x14a;" horiz-adv-x="765" 
d="M394 -253q-7 7 -7 17v43q0 11 7.5 18t18.5 8q70 2 104.5 37.5t35.5 95.5l-2 34l-339 463v-438q0 -10 -7 -17.5t-18 -7.5h-97q-10 0 -17.5 7.5t-7.5 17.5v650q0 11 7.5 18t17.5 7h114q10 0 17 -9l332 -454v438q0 11 7.5 18t17.5 7h97q11 0 18 -7t7 -18v-691
q0 -123 -74 -187.5t-215 -57.5q-10 1 -17 8z" />
    <glyph glyph-name="eng" unicode="&#x14b;" horiz-adv-x="635" 
d="M349.5 -242q-6.5 7 -6.5 17v41q0 10 7.5 17t18.5 8q38 3 53 25.5t15 64.5v340q0 61 -21.5 90.5t-75.5 29.5q-43 0 -79.5 -25.5t-56.5 -68.5v-272q0 -10 -7 -17.5t-18 -7.5h-96q-10 0 -17.5 7.5t-7.5 17.5v450q0 11 7.5 18t17.5 7h83q11 0 18 -7t7 -18v-86q44 64 102 94
t121 30q93 0 132 -48t39 -143v-376q0 -104 -53 -153.5t-166 -42.5q-10 1 -16.5 8z" />
    <glyph glyph-name="Omacron" unicode="&#x14c;" horiz-adv-x="860" 
d="M234.5 34.5q-86.5 47.5 -135 130.5t-48.5 185t48.5 185t135 130.5t195.5 47.5t195 -47.5t134.5 -130.5t48.5 -185t-48.5 -185t-134.5 -130.5t-195 -47.5t-195.5 47.5zM547 158q52 29 81.5 79.5t29.5 112.5t-29.5 112.5t-81.5 79.5t-117 29t-117 -29t-82 -79.5t-30 -112.5
t30 -112.5t82 -79.5t117 -29t117 29zM266 769q-8 0 -14 6t-6 14v70q0 8 6 14t14 6h329q8 0 14 -6t6 -14v-70q0 -8 -6 -14t-14 -6h-329z" />
    <glyph glyph-name="omacron" unicode="&#x14d;" horiz-adv-x="643" 
d="M169 20q-63 34 -95.5 93.5t-32.5 136.5t32.5 136.5t95.5 93.5t152 34t152.5 -34t96 -93.5t32.5 -136.5t-32.5 -136.5t-96 -93.5t-152.5 -34t-152 34zM419.5 146.5q35.5 40.5 35.5 103.5t-35.5 103.5t-98.5 40.5q-62 0 -97.5 -40.5t-35.5 -103.5t35.5 -103.5t97.5 -40.5
q63 0 98.5 40.5zM162 570q-8 0 -14 6t-6 14v70q0 8 6 14t14 6h329q8 0 14 -6t6 -14v-70q0 -8 -6 -14t-14 -6h-329z" />
    <glyph glyph-name="Ohungarumlaut" unicode="&#x150;" horiz-adv-x="860" 
d="M234.5 34.5q-86.5 47.5 -135 130.5t-48.5 185t48.5 185t135 130.5t195.5 47.5t195 -47.5t134.5 -130.5t48.5 -185t-48.5 -185t-134.5 -130.5t-195 -47.5t-195.5 47.5zM547 158q52 29 81.5 79.5t29.5 112.5t-29.5 112.5t-81.5 79.5t-117 29t-117 -29t-82 -79.5t-30 -112.5
t30 -112.5t82 -79.5t117 -29t117 29zM309 752q-11 0 -18.5 7t-7.5 17q0 5 4 13l81 148q5 9 16 9h99q13 0 21 -8t8 -18t-8 -20l-123 -142q-5 -6 -13 -6h-59zM519 752q-11 0 -18 6.5t-7 15.5q0 7 4 14l80 149q5 9 16 9h101q13 0 21 -7.5t8 -18.5q0 -9 -8 -19l-122 -143
q-4 -6 -13 -6h-62z" />
    <glyph glyph-name="ohungarumlaut" unicode="&#x151;" horiz-adv-x="643" 
d="M169 20q-63 34 -95.5 93.5t-32.5 136.5t32.5 136.5t95.5 93.5t152 34t152.5 -34t96 -93.5t32.5 -136.5t-32.5 -136.5t-96 -93.5t-152.5 -34t-152 34zM419.5 146.5q35.5 40.5 35.5 103.5t-35.5 103.5t-98.5 40.5q-62 0 -97.5 -40.5t-35.5 -103.5t35.5 -103.5t97.5 -40.5
q63 0 98.5 40.5zM203 571q-11 0 -18.5 7t-7.5 17q0 5 4 13l81 148q5 9 16 9h99q13 0 21 -8t8 -18t-8 -20l-123 -142q-5 -6 -13 -6h-59zM413 571q-11 0 -18 6.5t-7 15.5q0 7 4 14l80 149q5 9 16 9h101q13 0 21 -7.5t8 -18.5q0 -9 -8 -19l-122 -143q-4 -6 -13 -6h-62z" />
    <glyph glyph-name="OE" unicode="&#x152;" horiz-adv-x="1213" 
d="M237 32.5q-87 48.5 -136.5 132t-49.5 185.5t49.5 185.5t136.5 132t193 48.5q94 0 171 -40q0 10 7 17t18 7h497q11 0 18 -7t7 -18v-81q0 -11 -7.5 -18.5t-17.5 -7.5h-375v-154h268q11 0 18 -7t7 -18v-78q0 -10 -7 -17.5t-18 -7.5h-268v-154h375q11 0 18 -7t7 -18v-81
q0 -11 -7.5 -18.5t-17.5 -7.5h-497q-11 0 -18 3.5t-7 8.5v12q-77 -40 -171 -40q-106 0 -193 48.5zM600 203v294q-57 81 -165 81q-67 0 -120.5 -30.5t-83.5 -82.5t-30 -115t30 -115t83 -82t121 -30q109 0 165 80z" />
    <glyph glyph-name="oe" unicode="&#x153;" horiz-adv-x="1048" 
d="M170 20q-63 34 -96 93.5t-33 136.5t33 136.5t96 93.5t151 34q73 0 127 -28t82 -76q30 48 85.5 76t124.5 28q119 0 189 -62t78 -167v-31q0 -10 -7 -17.5t-18 -7.5h-374l4 -19q9 -53 50.5 -87t100.5 -34q66 0 121 36q8 5 15 5q12 0 19 -9l35 -41q6 -7 6 -16q0 -13 -10 -20
q-37 -28 -91 -43t-116 -15q-71 0 -126 28t-86 76q-28 -48 -82 -76t-127 -28q-88 0 -151 34zM861 311q-9 48 -40.5 77.5t-80.5 29.5q-51 0 -85 -29t-46 -78h252zM419.5 137q35.5 43 35.5 113q0 69 -35.5 112.5t-98.5 43.5q-62 0 -97.5 -43.5t-35.5 -112.5q0 -70 35.5 -113
t97.5 -43q63 0 98.5 43z" />
    <glyph glyph-name="Racute" unicode="&#x154;" horiz-adv-x="729" 
d="M90 0q-10 0 -17.5 7.5t-7.5 17.5v650q0 11 7.5 18t17.5 7h330q74 0 129.5 -31.5t85 -85t29.5 -119.5q0 -72 -37 -129t-104 -82l114 -207q4 -7 4 -16q0 -12 -8.5 -21t-22.5 -9h-98q-13 0 -19 11l-123 217h-158v-203q0 -10 -7 -17.5t-18 -7.5h-97zM407 362q49 0 78.5 27.5
t29.5 73.5t-29.5 74.5t-78.5 28.5h-195v-204h195zM278 742q-11 0 -18.5 7t-7.5 17q0 5 4 13l81 148q4 9 16 9h99q13 0 21 -8t8 -18t-8 -20l-123 -142q-4 -6 -13 -6h-59z" />
    <glyph glyph-name="racute" unicode="&#x155;" horiz-adv-x="434" 
d="M79 0q-10 0 -17.5 7.5t-7.5 17.5v450q0 11 7.5 18t17.5 7h84q11 0 18 -7t7 -18v-90q75 112 190 120q11 1 18.5 -6t7.5 -19v-82q0 -13 -9 -20.5t-23 -5.5q-20 2 -30 2q-105 0 -142 -87v-262q0 -10 -7 -17.5t-18 -7.5h-96zM144 569q-11 0 -18.5 7t-7.5 17q0 5 4 13l81 148
q4 9 16 9h99q13 0 21 -8t8 -18t-8 -20l-123 -142q-4 -6 -13 -6h-59z" />
    <glyph glyph-name="uni0156" unicode="&#x156;" horiz-adv-x="729" 
d="M90 0q-10 0 -17.5 7.5t-7.5 17.5v650q0 11 7.5 18t17.5 7h330q74 0 129.5 -31.5t85 -85t29.5 -119.5q0 -72 -37 -129t-104 -82l114 -207q4 -7 4 -16q0 -12 -8.5 -21t-22.5 -9h-98q-13 0 -19 11l-123 217h-158v-203q0 -10 -7 -17.5t-18 -7.5h-97zM407 362q49 0 78.5 27.5
t29.5 73.5t-29.5 74.5t-78.5 28.5h-195v-204h195zM279 -279q-10 0 -16.5 7.5t-4.5 17.5l26 173q1 7 6 12t13 5h109q11 0 18 -6.5t7 -16.5q0 -7 -3 -13l-91 -170q-5 -9 -16 -9h-48z" />
    <glyph glyph-name="uni0157" unicode="&#x157;" horiz-adv-x="434" 
d="M79 0q-10 0 -17.5 7.5t-7.5 17.5v450q0 11 7.5 18t17.5 7h84q11 0 18 -7t7 -18v-90q75 112 190 120q11 1 18.5 -6t7.5 -19v-82q0 -13 -9 -20.5t-23 -5.5q-20 2 -30 2q-105 0 -142 -87v-262q0 -10 -7 -17.5t-18 -7.5h-96zM50 -273q-10 0 -16.5 7.5t-4.5 17.5l26 173
q1 7 6 12t13 5h109q11 0 18 -6.5t7 -16.5q0 -7 -3 -13l-91 -170q-5 -9 -16 -9h-48z" />
    <glyph glyph-name="Rcaron" unicode="&#x158;" horiz-adv-x="729" 
d="M90 0q-10 0 -17.5 7.5t-7.5 17.5v650q0 11 7.5 18t17.5 7h330q74 0 129.5 -31.5t85 -85t29.5 -119.5q0 -72 -37 -129t-104 -82l114 -207q4 -7 4 -16q0 -12 -8.5 -21t-22.5 -9h-98q-13 0 -19 11l-123 217h-158v-203q0 -10 -7 -17.5t-18 -7.5h-97zM407 362q49 0 78.5 27.5
t29.5 73.5t-29.5 74.5t-78.5 28.5h-195v-204h195zM288 745q-9 0 -13 6l-119 145q-7 8 -7 19q0 10 8 17.5t20 7.5h102q10 0 15 -9l48 -87l49 87q5 9 15 9h101q12 0 20 -7.5t8 -17.5q0 -11 -7 -19l-119 -145q-4 -6 -13 -6h-108z" />
    <glyph glyph-name="rcaron" unicode="&#x159;" horiz-adv-x="434" 
d="M166 571q-8 0 -13 6l-114 145q-7 8 -7 19q0 10 7.5 17.5t19.5 7.5h98q4 0 8 -2.5t6 -6.5l47 -87l47 87q5 9 14 9h97q12 0 19.5 -7.5t7.5 -17.5q0 -11 -7 -19l-114 -145q-4 -6 -13 -6h-103zM79 0q-10 0 -17.5 7.5t-7.5 17.5v450q0 11 7.5 18t17.5 7h84q11 0 18 -7t7 -18
v-90q75 112 190 120q11 1 18.5 -6t7.5 -19v-82q0 -13 -9 -20.5t-23 -5.5q-20 2 -30 2q-105 0 -142 -87v-262q0 -10 -7 -17.5t-18 -7.5h-96z" />
    <glyph glyph-name="Sacute" unicode="&#x15a;" horiz-adv-x="685" 
d="M65 95q-6 8 -6 16q0 12 9 19l68 58q8 6 17 6q12 0 21 -9q61 -71 171 -71q65 0 102 21t37 53q0 26 -21 44.5t-52 30.5t-88 29q-80 24 -130.5 46t-86.5 62.5t-36 104.5q0 61 34 108.5t96 73.5t142 26q85 0 148.5 -27t98.5 -75q5 -7 5 -13q0 -11 -10 -19l-69 -55
q-7 -6 -16 -6q-13 0 -24 14q-21 27 -58 42.5t-80 15.5q-54 0 -87.5 -24t-33.5 -59q0 -22 19 -37t47 -25.5t82 -26.5q82 -23 135.5 -46t92 -66.5t38.5 -111.5q0 -98 -75 -152.5t-209 -54.5q-181 0 -281 108zM320 752q-11 0 -18.5 7t-7.5 17q0 5 4 13l81 148q4 9 16 9h99
q13 0 21 -8t8 -18t-8 -20l-123 -142q-4 -6 -13 -6h-59z" />
    <glyph glyph-name="sacute" unicode="&#x15b;" horiz-adv-x="550" 
d="M53 40q-11 8 -11 20q0 10 6 17l42 52q8 9 19 9q8 0 15 -4q33 -22 73.5 -32t78.5 -10q41 0 66 12.5t25 36.5q0 21 -25.5 33t-85.5 29q-62 16 -103.5 32.5t-71 47.5t-29.5 80q0 69 59.5 109.5t162.5 40.5q123 0 203 -54q10 -7 10 -20q0 -9 -6 -17l-41 -51q-7 -9 -19 -9
q-9 0 -17 5q-57 41 -126 41q-34 0 -57 -14.5t-23 -36.5q0 -23 28 -36.5t90 -32.5q63 -19 102 -35t67.5 -45t28.5 -73q0 -79 -64 -113.5t-172 -34.5q-142 0 -225 53zM246 569q-11 0 -18.5 7t-7.5 17q0 5 4 13l81 148q4 9 16 9h99q13 0 21 -8t8 -18t-8 -20l-123 -142
q-4 -6 -13 -6h-59z" />
    <glyph glyph-name="Scedilla" unicode="&#x15e;" horiz-adv-x="685" 
d="M555 41.5q-75 -54.5 -209 -54.5h-22q3 -5 3 -11q0 -7 -4 -11l-28 -35q42 -9 68.5 -40.5t26.5 -72.5q0 -49 -36.5 -81.5t-101.5 -32.5q-53 0 -104 27q-10 6 -10 17q0 7 2 10l28 53q4 10 17 10q6 0 10 -2q31 -13 51 -13q23 0 37 10t14 28q0 19 -17 33t-46 17q-12 1 -19.5 8
t-7.5 16q0 5 3 11l28 62q1 4 6 7q-110 22 -179 98q-6 8 -6 16q0 12 9 19l68 58q8 6 17 6q12 0 21 -9q61 -71 171 -71q65 0 102 21t37 53q0 26 -21 44.5t-52 30.5t-88 29q-80 24 -130.5 46t-86.5 62.5t-36 104.5q0 61 34 108.5t96 73.5t142 26q85 0 148.5 -27t98.5 -75
q5 -7 5 -13q0 -11 -10 -19l-69 -55q-7 -6 -16 -6q-13 0 -24 14q-21 27 -58 42.5t-80 15.5q-54 0 -87.5 -24t-33.5 -59q0 -22 19 -37t47 -25.5t82 -26.5q82 -23 135.5 -46t92 -66.5t38.5 -111.5q0 -98 -75 -152.5z" />
    <glyph glyph-name="scedilla" unicode="&#x15f;" horiz-adv-x="550" 
d="M456 25q-58 -35 -157 -38q4 -5 4 -12t-4 -12l-28 -35q42 -9 68.5 -40.5t26.5 -72.5q0 -49 -36.5 -81.5t-101.5 -32.5q-53 0 -104 27q-10 6 -10 17q0 7 2 10l28 53q4 10 17 10q6 0 10 -2q31 -13 51 -13q23 0 37 10t14 28q0 19 -17 33t-46 17q-12 1 -19.5 8t-7.5 16
q0 5 3 11l28 62l1 2q-100 10 -162 50q-11 8 -11 20q0 10 6 17l42 52q8 9 19 9q8 0 15 -4q33 -22 73.5 -32t78.5 -10q41 0 66 12.5t25 36.5q0 21 -25.5 33t-85.5 29q-62 16 -103.5 32.5t-71 47.5t-29.5 80q0 69 59.5 109.5t162.5 40.5q123 0 203 -54q10 -7 10 -20
q0 -9 -6 -17l-41 -51q-7 -9 -19 -9q-9 0 -17 5q-57 41 -126 41q-34 0 -57 -14.5t-23 -36.5q0 -23 28 -36.5t90 -32.5q63 -19 102 -35t67.5 -45t28.5 -73q0 -75 -58 -110z" />
    <glyph glyph-name="Scaron" unicode="&#x160;" horiz-adv-x="691" 
d="M65 95q-6 8 -6 16q0 12 9 19l68 58q8 6 17 6q12 0 21 -9q61 -71 171 -71q65 0 102 21t37 53q0 26 -21 44.5t-52 30.5t-88 29q-80 24 -130.5 46t-86.5 62.5t-36 104.5q0 61 34 108.5t96 73.5t142 26q85 0 148.5 -27t98.5 -75q5 -7 5 -13q0 -11 -10 -19l-69 -55
q-7 -6 -16 -6q-13 0 -24 14q-21 27 -58 42.5t-80 15.5q-54 0 -87.5 -24t-33.5 -59q0 -22 19 -37t47 -25.5t82 -26.5q82 -23 135.5 -46t92 -66.5t38.5 -111.5q0 -98 -75 -152.5t-209 -54.5q-181 0 -281 108zM287 749q-9 0 -13 6l-119 145q-7 8 -7 19q0 10 8 17.5t20 7.5h102
q10 0 15 -9l48 -87l49 87q5 9 15 9h101q12 0 20 -7.5t8 -17.5q0 -11 -7 -19l-119 -145q-4 -6 -13 -6h-108z" />
    <glyph glyph-name="scaron" unicode="&#x161;" horiz-adv-x="550" 
d="M226 571q-8 0 -13 6l-114 145q-7 8 -7 19q0 10 7.5 17.5t19.5 7.5h98q4 0 8 -2.5t6 -6.5l47 -87l47 87q5 9 14 9h97q12 0 19.5 -7.5t7.5 -17.5q0 -11 -7 -19l-114 -145q-4 -6 -13 -6h-103zM53 40q-11 8 -11 20q0 10 6 17l42 52q8 9 19 9q8 0 15 -4q33 -22 73.5 -32
t78.5 -10q41 0 66 12.5t25 36.5q0 21 -25.5 33t-85.5 29q-62 16 -103.5 32.5t-71 47.5t-29.5 80q0 69 59.5 109.5t162.5 40.5q123 0 203 -54q10 -7 10 -20q0 -9 -6 -17l-41 -51q-7 -9 -19 -9q-9 0 -17 5q-57 41 -126 41q-34 0 -57 -14.5t-23 -36.5q0 -23 28 -36.5t90 -32.5
q63 -19 102 -35t67.5 -45t28.5 -73q0 -79 -64 -113.5t-172 -34.5q-142 0 -225 53z" />
    <glyph glyph-name="uni0162" unicode="&#x162;" horiz-adv-x="682" 
d="M609 700q11 0 18 -7t7 -18v-97q0 -10 -7 -17.5t-18 -7.5h-193v-527q0 -11 -7.5 -18.5t-17.5 -7.5h-13q3 -6 3 -11q0 -7 -4 -12l-28 -35q42 -9 68.5 -40.5t26.5 -72.5q0 -49 -36.5 -81.5t-101.5 -32.5q-53 0 -104 27q-10 6 -10 17q0 7 2 10l28 53q4 10 17 10q6 0 10 -2
q31 -13 51 -13q23 0 37 10t14 28q0 19 -17 33t-46 17q-12 1 -19.5 8t-7.5 16q0 5 3 11l27 60q-10 2 -16.5 8.5t-6.5 16.5v528h-194q-11 0 -18.5 7.5t-7.5 17.5v97q0 11 7.5 18t17.5 7h536z" />
    <glyph glyph-name="uni0163" unicode="&#x163;" horiz-adv-x="408" 
d="M371 21q0 -8 -5.5 -15t-14.5 -8q-26 -6 -55 -9q6 -6 6 -14q0 -7 -4 -12l-28 -35q42 -9 68.5 -40.5t26.5 -72.5q0 -49 -36.5 -81.5t-101.5 -32.5q-53 0 -104 27q-10 6 -10 17q0 7 2 10l28 53q4 10 17 10q6 0 10 -2q31 -13 51 -13q23 0 37 10t14 28q0 19 -17 33t-46 17
q-12 1 -19.5 8t-7.5 16q0 5 3 11l28 62l2 3q-77 11 -114.5 61t-37.5 144v190h-22q-10 0 -17.5 7.5t-7.5 17.5v64q0 10 7 17.5t17 7.5h23v95q0 11 7.5 18t17.5 7h98q11 0 18 -7t7 -18v-95h107q11 0 18 -7t7 -18v-64q0 -10 -7 -17.5t-18 -7.5h-107v-181q0 -54 24 -77.5
t77 -23.5q9 0 16 1t13 1q13 0 21.5 -7.5t8.5 -19.5v-58z" />
    <glyph glyph-name="Tcaron" unicode="&#x164;" horiz-adv-x="682" 
d="M294 0q-11 0 -18.5 7.5t-7.5 17.5v528h-194q-11 0 -18.5 7.5t-7.5 17.5v97q0 11 7.5 18t17.5 7h536q11 0 18 -7t7 -18v-97q0 -10 -7 -17.5t-18 -7.5h-193v-527q0 -11 -7.5 -18.5t-17.5 -7.5h-97zM289 742q-9 0 -13 6l-119 145q-7 8 -7 19q0 10 8 17.5t20 7.5h102
q10 0 15 -9l48 -87l49 87q5 9 15 9h101q12 0 20 -7.5t8 -17.5q0 -11 -7 -19l-119 -145q-4 -6 -13 -6h-108z" />
    <glyph glyph-name="tcaron" unicode="&#x165;" horiz-adv-x="408" 
d="M92 757q-8 0 -12 6l-109 145q-7 8 -7 19q0 10 7 17.5t19 7.5h94q9 0 14 -9l44 -87l44 87q5 9 14 9h93q12 0 19 -7.5t7 -17.5q0 -11 -7 -19l-109 -145q-5 -6 -12 -6h-99zM113 38q-50 50 -50 158v190h-22q-10 0 -17.5 7.5t-7.5 17.5v64q0 10 7 17.5t17 7.5h23v95
q0 11 7.5 18t17.5 7h98q11 0 18 -7t7 -18v-95h107q11 0 18 -7t7 -18v-64q0 -10 -7 -17.5t-18 -7.5h-107v-181q0 -54 24 -77.5t77 -23.5q9 0 16 1t13 1q13 0 21.5 -7.5t8.5 -19.5v-58q0 -8 -5.5 -15t-14.5 -8q-47 -10 -85 -10q-103 0 -153 50z" />
    <glyph glyph-name="Tbar" unicode="&#x166;" horiz-adv-x="682" 
d="M609 700q11 0 18 -7t7 -18v-97q0 -10 -7 -17.5t-18 -7.5h-193v-159h93q8 0 14 -6t6 -14v-70q0 -8 -6 -14t-14 -6h-93v-258q0 -11 -7.5 -18.5t-17.5 -7.5h-97q-11 0 -18.5 7.5t-7.5 17.5v259h-88q-8 0 -14 6t-6 14v70q0 8 6 14t14 6h88v159h-194q-11 0 -18.5 7.5
t-7.5 17.5v97q0 11 7.5 18t17.5 7h536z" />
    <glyph glyph-name="tbar" unicode="&#x167;" horiz-adv-x="411" 
d="M362.5 98.5q8.5 -7.5 8.5 -19.5v-58q0 -8 -5.5 -15t-14.5 -8q-47 -10 -85 -10q-103 0 -153 50t-50 158v58h-32q-7 0 -12 4t-5 10v48q0 5 5 9t12 4h32v57h-22q-10 0 -17.5 7.5t-7.5 17.5v64q0 10 7 17.5t17 7.5h23v184q0 11 7.5 18t17.5 7h98q11 0 18 -7t7 -18v-184h124
q11 0 18.5 -7.5t7.5 -17.5v-64q0 -10 -7 -17.5t-18 -7.5h-125v-57h105q7 0 12.5 -4t5.5 -9v-48q0 -6 -5 -10t-13 -4h-105v-49q0 -54 24 -77.5t77 -23.5q9 0 16 1t13 1q13 0 21.5 -7.5z" />
    <glyph glyph-name="Umacron" unicode="&#x16a;" horiz-adv-x="772" 
d="M220 25q-73 38 -114 106.5t-41 155.5v388q0 11 7.5 18t17.5 7h97q11 0 18 -7t7 -18v-389q0 -72 47 -114.5t127 -42.5q81 0 127 42.5t46 114.5v388q0 11 7.5 18.5t17.5 7.5h98q11 0 18 -7t7 -18v-388q0 -87 -41 -155.5t-114 -106.5t-166 -38t-166 38zM229 746q-8 0 -14 6
t-6 14v70q0 8 6 14t14 6h329q8 0 14 -6t6 -14v-70q0 -8 -6 -14t-14 -6h-329z" />
    <glyph glyph-name="umacron" unicode="&#x16b;" 
d="M89.5 35q-38.5 48 -38.5 143v297q0 11 7.5 18t17.5 7h97q11 0 18 -7t7 -18v-246q0 -60 21.5 -90t75.5 -30q43 0 80 25.5t56 68.5v272q0 11 7.5 18t17.5 7h97q11 0 18 -7t7 -18v-450q0 -10 -7 -17.5t-18 -7.5h-84q-10 0 -17.5 7.5t-7.5 17.5v86q-43 -65 -101 -94.5
t-122 -29.5q-93 0 -131.5 48zM150 571q-8 0 -14 6t-6 14v70q0 8 6 14t14 6h329q8 0 14 -6t6 -14v-70q0 -8 -6 -14t-14 -6h-329z" />
    <glyph glyph-name="Uring" unicode="&#x16e;" horiz-adv-x="772" 
d="M220 25q-73 38 -114 106.5t-41 155.5v388q0 11 7.5 18t17.5 7h97q11 0 18 -7t7 -18v-389q0 -72 47 -114.5t127 -42.5q81 0 127 42.5t46 114.5v388q0 11 7.5 18.5t17.5 7.5h98q11 0 18 -7t7 -18v-388q0 -87 -41 -155.5t-114 -106.5t-166 -38t-166 38zM317 760.5
q-31 18.5 -49 49.5t-18 67t18 67t49 49t67 18q37 0 68 -18t49 -49t18 -67q0 -37 -18 -68t-49 -49t-68 -18q-36 0 -67 18.5zM422 840q15 15 15 37q0 21 -15 36t-36 15t-36 -15t-15 -36q0 -22 15 -37t36 -14q21 -1 36 14z" />
    <glyph glyph-name="uring" unicode="&#x16f;" 
d="M89.5 35q-38.5 48 -38.5 143v297q0 11 7.5 18t17.5 7h97q11 0 18 -7t7 -18v-246q0 -60 21.5 -90t75.5 -30q43 0 80 25.5t56 68.5v272q0 11 7.5 18t17.5 7h97q11 0 18 -7t7 -18v-450q0 -10 -7 -17.5t-18 -7.5h-84q-10 0 -17.5 7.5t-7.5 17.5v86q-43 -65 -101 -94.5
t-122 -29.5q-93 0 -131.5 48zM255 579.5q-31 18.5 -49 49.5t-18 67t18 67t49 49t67 18q37 0 68 -18t49 -49t18 -67q0 -37 -18 -68t-49 -49t-68 -18q-36 0 -67 18.5zM360 659q15 15 15 37q0 21 -15 36t-36 15t-36 -15t-15 -36q0 -22 15 -37t36 -14q21 -1 36 14z" />
    <glyph glyph-name="Uhungarumlaut" unicode="&#x170;" horiz-adv-x="772" 
d="M220 25q-73 38 -114 106.5t-41 155.5v388q0 11 7.5 18t17.5 7h97q11 0 18 -7t7 -18v-389q0 -72 47 -114.5t127 -42.5q81 0 127 42.5t46 114.5v388q0 11 7.5 18.5t17.5 7.5h98q11 0 18 -7t7 -18v-388q0 -87 -41 -155.5t-114 -106.5t-166 -38t-166 38zM238 741
q-11 0 -18.5 7t-7.5 17q0 5 4 13l81 148q5 9 16 9h99q13 0 21 -8t8 -18t-8 -20l-123 -142q-5 -6 -13 -6h-59zM448 741q-11 0 -18 6.5t-7 15.5q0 7 4 14l80 149q5 9 16 9h101q13 0 21 -7.5t8 -18.5q0 -9 -8 -19l-122 -143q-4 -6 -13 -6h-62z" />
    <glyph glyph-name="uhungarumlaut" unicode="&#x171;" 
d="M89.5 35q-38.5 48 -38.5 143v297q0 11 7.5 18t17.5 7h97q11 0 18 -7t7 -18v-246q0 -60 21.5 -90t75.5 -30q43 0 80 25.5t56 68.5v272q0 11 7.5 18t17.5 7h97q11 0 18 -7t7 -18v-450q0 -10 -7 -17.5t-18 -7.5h-84q-10 0 -17.5 7.5t-7.5 17.5v86q-43 -65 -101 -94.5
t-122 -29.5q-93 0 -131.5 48zM189 569q-11 0 -18.5 7t-7.5 17q0 5 4 13l81 148q5 9 16 9h99q13 0 21 -8t8 -18t-8 -20l-123 -142q-5 -6 -13 -6h-59zM399 569q-11 0 -18 6.5t-7 15.5q0 7 4 14l80 149q5 9 16 9h101q13 0 21 -7.5t8 -18.5q0 -9 -8 -19l-122 -143q-4 -6 -13 -6
h-62z" />
    <glyph glyph-name="Uogonek" unicode="&#x172;" horiz-adv-x="772" 
d="M682 700q11 0 18 -7t7 -18v-388q0 -80 -35 -144.5t-98 -104.5t-145 -49l1 -5q-2 -14 -13 -25q-31 -33 -31 -63q0 -22 11.5 -34t29.5 -12q13 0 31 10q5 4 13 4q7 0 13 -6l40 -42q5 -7 5 -13q0 -9 -8 -17q-23 -21 -51.5 -31.5t-58.5 -10.5q-54 0 -91.5 33t-37.5 89
q0 64 61 123q-82 9 -145 49t-98 104.5t-35 144.5v388q0 11 7.5 18t17.5 7h97q11 0 18 -7t7 -18v-389q0 -72 47 -114.5t127 -42.5q81 0 127 42.5t46 114.5v388q0 11 7.5 18.5t17.5 7.5h98z" />
    <glyph glyph-name="uogonek" unicode="&#x173;" 
d="M634 -178q5 -7 5 -13q0 -9 -8 -17q-23 -21 -51.5 -31.5t-58.5 -10.5q-54 0 -91.5 33t-37.5 89q0 33 17.5 66.5t50.5 63.5q-7 2 -11.5 8.5t-4.5 14.5v86q-43 -65 -101 -94.5t-122 -29.5q-93 0 -131.5 48t-38.5 143v297q0 11 7.5 18t17.5 7h97q11 0 18 -7t7 -18v-246
q0 -60 21.5 -90t75.5 -30q43 0 80 25.5t56 68.5v272q0 11 7.5 18t17.5 7h97q11 0 18 -7t7 -18v-450q0 -10 -7 -17.5t-18 -7.5h-15q2 -6 2 -8q0 -14 -13 -27q-31 -33 -31 -63q0 -22 11.5 -34t29.5 -12q13 0 31 10q5 4 13 4q7 0 13 -6z" />
    <glyph glyph-name="Wcircumflex" unicode="&#x174;" horiz-adv-x="1184" 
d="M314 0q-7 0 -13.5 4t-8.5 11l-248 645q-2 4 -2 12q0 12 8 20t21 8h103q7 0 13.5 -4t8.5 -11l176 -465l140 463q2 8 8 12.5t14 4.5h118q8 0 14 -4.5t8 -12.5l140 -463l176 465q2 7 8.5 11t13.5 4h102q13 0 21 -8t8 -20q0 -8 -2 -12l-249 -645q-2 -7 -8.5 -11t-13.5 -4
h-121q-8 0 -14.5 4.5t-8.5 12.5l-133 452l-133 -452q-2 -8 -8.5 -12.5t-14.5 -4.5h-123zM427 748q-12 0 -20 7.5t-8 17.5q0 11 7 19l119 145q4 6 13 6h108q9 0 13 -6l119 -145q7 -8 7 -19q0 -10 -8 -17.5t-20 -7.5h-101q-10 0 -15 9l-49 88l-48 -88q-4 -9 -16 -9h-101z" />
    <glyph glyph-name="wcircumflex" unicode="&#x175;" horiz-adv-x="952" 
d="M320 584q-12 0 -19.5 7.5t-7.5 17.5q0 11 7 19l114 145q5 6 13 6h103q9 0 13 -6l114 -145q7 -8 7 -19q0 -10 -7.5 -17.5t-19.5 -7.5h-97q-9 0 -14 9l-47 88l-47 -88q-1 -4 -5.5 -6.5t-9.5 -2.5h-97zM258 0q-14 0 -21 14l-186 445q-3 6 -3 13q0 12 8.5 20t21.5 8h105
q7 0 13.5 -4t8.5 -11l113 -302l96 301q2 7 8 11.5t14 4.5h79q8 0 14 -4.5t8 -11.5l97 -301l112 302q2 7 8 11t14 4h105q13 0 21.5 -8t8.5 -20q0 -7 -3 -13l-187 -445q-7 -14 -21 -14h-102q-8 0 -14 4.5t-8 11.5l-92 282l-91 -282q-2 -7 -8 -11.5t-14 -4.5h-105z" />
    <glyph glyph-name="Ycircumflex" unicode="&#x176;" horiz-adv-x="729" 
d="M317 0q-11 0 -18.5 7.5t-7.5 17.5v265l-240 360q-6 9 -6 19q0 13 9 22t24 9h103q12 0 18 -10l166 -256l165 256q6 10 18 10h103q15 0 24 -9t9 -22q0 -10 -6 -19l-239 -360v-265q0 -10 -7 -17.5t-18 -7.5h-97zM196 750q-12 0 -20 7.5t-8 17.5q0 11 7 19l119 145q4 6 13 6
h108q9 0 13 -6l119 -145q7 -8 7 -19q0 -10 -8 -17.5t-20 -7.5h-101q-10 0 -15 9l-49 88l-48 -88q-4 -9 -16 -9h-101z" />
    <glyph glyph-name="ycircumflex" unicode="&#x177;" horiz-adv-x="663" 
d="M186 583q-12 0 -19.5 7.5t-7.5 17.5q0 11 7 19l114 145q5 6 13 6h103q8 0 13 -6l114 -145q7 -8 7 -19q0 -10 -7.5 -17.5t-19.5 -7.5h-97q-9 0 -14 9l-47 88l-47 -88q-1 -4 -5.5 -6.5t-9.5 -2.5h-97zM103.5 -238.5q-7.5 7.5 -7.5 18.5v75q0 10 7.5 17.5t18.5 8.5
q44 2 80 20t53 51l20 47l-229 457q-4 7 -4 15q0 12 9 20.5t22 8.5h103q14 0 20 -13l145 -310l110 308q5 15 21 15h105q13 0 21.5 -8.5t8.5 -20.5q0 -7 -2 -11l-196 -502q-39 -107 -104.5 -154t-182.5 -50q-11 0 -18.5 7.5z" />
    <glyph glyph-name="Ydieresis" unicode="&#x178;" horiz-adv-x="729" 
d="M317 0q-11 0 -18.5 7.5t-7.5 17.5v265l-240 360q-6 9 -6 19q0 13 9 22t24 9h103q12 0 18 -10l166 -256l165 256q6 10 18 10h103q15 0 24 -9t9 -22q0 -10 -6 -19l-239 -360v-265q0 -10 -7 -17.5t-18 -7.5h-97zM174 765.5q-27 26.5 -27 64.5q0 37 27 63.5t65 26.5
q37 0 64 -26.5t27 -63.5t-26.5 -64t-64.5 -27t-65 26.5zM415 765.5q-27 26.5 -27 64.5q0 37 27 63.5t65 26.5t65 -26.5t27 -63.5q0 -38 -27 -64.5t-65 -26.5t-65 26.5z" />
    <glyph glyph-name="Zacute" unicode="&#x179;" horiz-adv-x="708" 
d="M90 0q-10 0 -17.5 7.5t-7.5 17.5v111q0 7 5 14l354 409h-334q-10 0 -17.5 7.5t-7.5 17.5v91q0 11 7.5 18t17.5 7h527q11 0 18.5 -7.5t7.5 -17.5v-111q0 -7 -5 -14l-361 -409h341q11 0 18 -7t7 -18v-91q0 -10 -7 -17.5t-18 -7.5h-528zM323 741q-11 0 -18.5 7t-7.5 17
q0 5 4 13l81 148q4 9 16 9h99q13 0 21 -8t8 -18t-8 -20l-123 -142q-4 -6 -13 -6h-59z" />
    <glyph glyph-name="zacute" unicode="&#x17a;" horiz-adv-x="579" 
d="M79 0q-10 0 -17.5 7.5t-7.5 17.5v92q0 8 7 15l270 243h-252q-10 0 -17.5 7.5t-7.5 17.5v75q0 11 7.5 18t17.5 7h422q11 0 18 -7t7 -18v-91q0 -8 -7 -15l-265 -245h247q11 0 18 -7t7 -18v-74q0 -10 -7 -17.5t-18 -7.5h-422zM249 571q-11 0 -18.5 7t-7.5 17q0 5 4 13
l81 148q4 9 16 9h99q13 0 21 -8t8 -18t-8 -20l-123 -142q-4 -6 -13 -6h-59z" />
    <glyph glyph-name="Zdotaccent" unicode="&#x17b;" horiz-adv-x="708" 
d="M90 0q-10 0 -17.5 7.5t-7.5 17.5v111q0 7 5 14l354 409h-334q-10 0 -17.5 7.5t-7.5 17.5v91q0 11 7.5 18t17.5 7h527q11 0 18.5 -7.5t7.5 -17.5v-111q0 -7 -5 -14l-361 -409h341q11 0 18 -7t7 -18v-91q0 -10 -7 -17.5t-18 -7.5h-528zM295.5 771.5q-26.5 26.5 -26.5 64.5
q0 37 26.5 63.5t64.5 26.5t64.5 -26.5t26.5 -63.5q0 -38 -26.5 -64.5t-64.5 -26.5t-64.5 26.5z" />
    <glyph glyph-name="zdotaccent" unicode="&#x17c;" horiz-adv-x="579" 
d="M79 0q-10 0 -17.5 7.5t-7.5 17.5v92q0 8 7 15l270 243h-252q-10 0 -17.5 7.5t-7.5 17.5v75q0 11 7.5 18t17.5 7h422q11 0 18 -7t7 -18v-91q0 -8 -7 -15l-265 -245h247q11 0 18 -7t7 -18v-74q0 -10 -7 -17.5t-18 -7.5h-422zM235.5 593.5q-26.5 26.5 -26.5 64.5
q0 37 26.5 63.5t64.5 26.5t64.5 -26.5t26.5 -63.5q0 -38 -26.5 -64.5t-64.5 -26.5t-64.5 26.5z" />
    <glyph glyph-name="Zcaron" unicode="&#x17d;" horiz-adv-x="720" 
d="M90 0q-10 0 -17.5 7.5t-7.5 17.5v111q0 7 5 14l354 409h-334q-10 0 -17.5 7.5t-7.5 17.5v91q0 11 7.5 18t17.5 7h527q11 0 18.5 -7.5t7.5 -17.5v-111q0 -7 -5 -14l-361 -409h341q11 0 18 -7t7 -18v-91q0 -10 -7 -17.5t-18 -7.5h-528zM310 744q-9 0 -13 6l-119 145
q-7 8 -7 19q0 10 8 17.5t20 7.5h102q10 0 15 -9l48 -87l49 87q5 9 15 9h101q12 0 20 -7.5t8 -17.5q0 -11 -7 -19l-119 -145q-4 -6 -13 -6h-108z" />
    <glyph glyph-name="zcaron" unicode="&#x17e;" horiz-adv-x="579" 
d="M244 583q-8 0 -13 6l-114 145q-7 8 -7 19q0 10 7.5 17.5t19.5 7.5h98q4 0 8 -2.5t6 -6.5l47 -87l47 87q5 9 14 9h97q12 0 19.5 -7.5t7.5 -17.5q0 -11 -7 -19l-114 -145q-4 -6 -13 -6h-103zM79 0q-10 0 -17.5 7.5t-7.5 17.5v92q0 8 7 15l270 243h-252q-10 0 -17.5 7.5
t-7.5 17.5v75q0 11 7.5 18t17.5 7h422q11 0 18 -7t7 -18v-91q0 -8 -7 -15l-265 -245h247q11 0 18 -7t7 -18v-74q0 -10 -7 -17.5t-18 -7.5h-422z" />
    <glyph glyph-name="uni0218" unicode="&#x218;" horiz-adv-x="685" 
d="M65 95q-6 8 -6 16q0 12 9 19l68 58q8 6 17 6q12 0 21 -9q61 -71 171 -71q65 0 102 21t37 53q0 26 -21 44.5t-52 30.5t-88 29q-80 24 -130.5 46t-86.5 62.5t-36 104.5q0 61 34 108.5t96 73.5t142 26q85 0 148.5 -27t98.5 -75q5 -7 5 -13q0 -11 -10 -19l-69 -55
q-7 -6 -16 -6q-13 0 -24 14q-21 27 -58 42.5t-80 15.5q-54 0 -87.5 -24t-33.5 -59q0 -22 19 -37t47 -25.5t82 -26.5q82 -23 135.5 -46t92 -66.5t38.5 -111.5q0 -98 -75 -152.5t-209 -54.5q-181 0 -281 108zM278 -279q-10 0 -16.5 7.5t-4.5 17.5l26 173q1 7 6 12t13 5h109
q11 0 18 -6.5t7 -16.5q0 -7 -3 -13l-91 -170q-5 -9 -16 -9h-48z" />
    <glyph glyph-name="uni0219" unicode="&#x219;" horiz-adv-x="550" 
d="M53 40q-11 8 -11 20q0 10 6 17l42 52q8 9 19 9q8 0 15 -4q33 -22 73.5 -32t78.5 -10q41 0 66 12.5t25 36.5q0 21 -25.5 33t-85.5 29q-62 16 -103.5 32.5t-71 47.5t-29.5 80q0 69 59.5 109.5t162.5 40.5q123 0 203 -54q10 -7 10 -20q0 -9 -6 -17l-41 -51q-7 -9 -19 -9
q-9 0 -17 5q-57 41 -126 41q-34 0 -57 -14.5t-23 -36.5q0 -23 28 -36.5t90 -32.5q63 -19 102 -35t67.5 -45t28.5 -73q0 -79 -64 -113.5t-172 -34.5q-142 0 -225 53zM200 -271q-10 0 -16.5 7.5t-4.5 17.5l26 173q1 7 6 12t13 5h109q11 0 18 -6.5t7 -16.5q0 -7 -3 -13
l-91 -170q-5 -9 -16 -9h-48z" />
    <glyph glyph-name="uni021A" unicode="&#x21a;" horiz-adv-x="682" 
d="M294 0q-11 0 -18.5 7.5t-7.5 17.5v528h-194q-11 0 -18.5 7.5t-7.5 17.5v97q0 11 7.5 18t17.5 7h536q11 0 18 -7t7 -18v-97q0 -10 -7 -17.5t-18 -7.5h-193v-527q0 -11 -7.5 -18.5t-17.5 -7.5h-97zM259 -270q-10 0 -16.5 7.5t-4.5 17.5l26 173q1 7 6 12t13 5h109
q11 0 18 -6.5t7 -16.5q0 -7 -3 -13l-91 -170q-5 -9 -16 -9h-48z" />
    <glyph glyph-name="uni021B" unicode="&#x21b;" horiz-adv-x="408" 
d="M113 38q-50 50 -50 158v190h-22q-10 0 -17.5 7.5t-7.5 17.5v64q0 10 7 17.5t17 7.5h23v95q0 11 7.5 18t17.5 7h98q11 0 18 -7t7 -18v-95h107q11 0 18 -7t7 -18v-64q0 -10 -7 -17.5t-18 -7.5h-107v-181q0 -54 24 -77.5t77 -23.5q9 0 16 1t13 1q13 0 21.5 -7.5t8.5 -19.5
v-58q0 -8 -5.5 -15t-14.5 -8q-47 -10 -85 -10q-103 0 -153 50zM152 -277q-10 0 -16.5 7.5t-4.5 17.5l26 173q1 7 6 12t13 5h109q11 0 18 -6.5t7 -16.5q0 -7 -3 -13l-91 -170q-5 -9 -16 -9h-48z" />
    <glyph glyph-name="circumflex" unicode="&#x2c6;" horiz-adv-x="562" 
d="M131 772q-12 0 -20 7.5t-8 17.5q0 11 7 19l119 145q4 6 13 6h108q9 0 13 -6l119 -145q7 -8 7 -19q0 -10 -8 -17.5t-20 -7.5h-101q-10 0 -15 9l-49 88l-48 -88q-4 -9 -16 -9h-101z" />
    <glyph glyph-name="caron" unicode="&#x2c7;" horiz-adv-x="562" 
d="M242 772q-9 0 -13 6l-119 145q-7 8 -7 19q0 10 8 17.5t20 7.5h102q10 0 15 -9l48 -87l49 87q5 9 15 9h101q12 0 20 -7.5t8 -17.5q0 -11 -7 -19l-119 -145q-4 -6 -13 -6h-108z" />
    <glyph glyph-name="breve" unicode="&#x2d8;" horiz-adv-x="517" 
d="M130 811.5q-53 46.5 -56 128.5q0 8 6 14t14 6h80q8 0 13 -5.5t6 -13.5q9 -67 81 -67q35 0 55.5 15.5t24.5 51.5q1 8 6.5 13.5t13.5 5.5h80q8 0 14 -5.5t6 -14.5q-4 -82 -57 -128.5t-144 -46.5q-90 0 -143 46.5z" />
    <glyph glyph-name="dotaccent" unicode="&#x2d9;" horiz-adv-x="299" 
d="M100.5 785.5q-26.5 26.5 -26.5 64.5q0 37 26.5 63.5t64.5 26.5t64.5 -26.5t26.5 -63.5q0 -38 -26.5 -64.5t-64.5 -26.5t-64.5 26.5z" />
    <glyph glyph-name="ring" unicode="&#x2da;" horiz-adv-x="387" 
d="M141 780.5q-31 18.5 -49 49.5t-18 67t18 67t49 49t67 18q37 0 68 -18t49 -49t18 -67q0 -37 -18 -68t-49 -49t-68 -18q-36 0 -67 18.5zM246 860q15 15 15 37q0 21 -15 36t-36 15t-36 -15t-15 -36q0 -22 15 -37t36 -14q21 -1 36 14z" />
    <glyph glyph-name="ogonek" unicode="&#x2db;" horiz-adv-x="374" 
d="M111.5 -218q-37.5 33 -37.5 89q0 37 22.5 75.5t65.5 71.5q7 4 15 3l24 -6q21 -6 21 -24q0 -14 -13 -27q-31 -33 -31 -63q0 -22 11.5 -34t29.5 -12q13 0 31 10q5 4 13 4q7 0 13 -6l40 -42q5 -7 5 -13q0 -9 -8 -17q-23 -21 -51.5 -31.5t-58.5 -10.5q-54 0 -91.5 33z" />
    <glyph glyph-name="tilde" unicode="&#x2dc;" horiz-adv-x="516" 
d="M245 786q-43 13 -63 13q-22 0 -39 -11q-8 -7 -19 -7q-13 0 -19 14l-26 59q-2 4 -2 7q0 6 5 13q40 40 100 40q33 0 89 -14q10 -2 28 -8q17 -5 34 -8.5t30 -3.5q25 0 42 12q9 6 19 6q14 0 20 -15l24 -63q1 -2 1 -6q0 -8 -5 -13q-39 -38 -98 -38q-21 0 -46.5 4.5t-48.5 10.5
q-11 3 -26 8z" />
    <glyph glyph-name="hungarumlaut" unicode="&#x2dd;" horiz-adv-x="605" 
d="M116 772q-11 0 -18.5 7t-7.5 17q0 5 4 13l81 148q5 9 16 9h99q13 0 21 -8t8 -18t-8 -20l-123 -142q-5 -6 -13 -6h-59zM326 772q-11 0 -18 6.5t-7 15.5q0 7 4 14l80 149q5 9 16 9h101q13 0 21 -7.5t8 -18.5q0 -9 -8 -19l-122 -143q-4 -6 -13 -6h-62z" />
    <glyph glyph-name="gravecomb" unicode="&#x300;" horiz-adv-x="0" 
d="M-146 772q-9 0 -13 6l-122 143q-8 10 -8 19q0 11 8 18.5t21 7.5h99q11 0 16 -9l81 -148q4 -8 4 -13q0 -10 -7.5 -17t-18.5 -7h-60z" />
    <glyph glyph-name="acutecomb" unicode="&#x301;" horiz-adv-x="0" 
d="M-278 772q-11 0 -18.5 7t-7.5 17q0 5 4 13l81 148q4 9 16 9h99q13 0 21 -8t8 -18t-8 -20l-123 -142q-4 -6 -13 -6h-59z" />
    <glyph glyph-name="uni0302" unicode="&#x302;" horiz-adv-x="0" 
d="M-431 772q-12 0 -20 7.5t-8 17.5q0 11 7 19l119 145q4 6 13 6h108q9 0 13 -6l119 -145q7 -8 7 -19q0 -10 -8 -17.5t-20 -7.5h-101q-10 0 -15 9l-49 88l-48 -88q-5 -9 -16 -9h-101z" />
    <glyph glyph-name="tildecomb" unicode="&#x303;" horiz-adv-x="0" 
d="M-275 787q-15 5 -31 8.5t-28 3.5q-23 0 -39 -11q-8 -7 -19 -7q-13 0 -19 14l-26 59q-2 4 -2 7q0 6 5 13q40 40 100 40q31 0 87 -14q10 -2 30 -8q44 -12 64 -12q25 0 42 12q9 6 19 6q14 0 20 -15l24 -63q1 -2 1 -6q0 -8 -5 -13q-38 -38 -97 -38q-34 0 -96 16q-10 2 -30 8z
" />
    <glyph glyph-name="uni0304" unicode="&#x304;" horiz-adv-x="0" 
d="M-392 775q-8 0 -14 6t-6 14v70q0 8 6 14t14 6h329q8 0 14 -6t6 -14v-70q0 -8 -6 -14t-14 -6h-329z" />
    <glyph glyph-name="uni0306" unicode="&#x306;" horiz-adv-x="0" 
d="M-387 811.5q-53 46.5 -56 128.5q0 8 6 14t14 6h80q7 0 12.5 -5.5t6.5 -13.5q9 -67 81 -67q35 0 55.5 15.5t24.5 51.5q1 8 6.5 13.5t13.5 5.5h80q8 0 14 -5.5t6 -14.5q-4 -82 -57 -128.5t-144 -46.5q-90 0 -143 46.5z" />
    <glyph glyph-name="uni0307" unicode="&#x307;" horiz-adv-x="0" 
d="M-198.5 798.5q-26.5 26.5 -26.5 64.5q0 37 26.5 63.5t64.5 26.5t64.5 -26.5t26.5 -63.5q0 -38 -26.5 -64.5t-64.5 -26.5t-64.5 26.5z" />
    <glyph glyph-name="uni0308" unicode="&#x308;" horiz-adv-x="0" 
d="M-441 798.5q-27 26.5 -27 64.5q0 37 27 63.5t65 26.5q37 0 64 -26.5t27 -63.5t-27 -64t-64 -27q-38 0 -65 26.5zM-200 798.5q-27 26.5 -27 64.5q0 37 27 63.5t65 26.5t65 -26.5t27 -63.5q0 -38 -27 -64.5t-65 -26.5t-65 26.5z" />
    <glyph glyph-name="uni030A" unicode="&#x30a;" horiz-adv-x="0" 
d="M-246 780.5q-31 18.5 -49 49.5t-18 67t18 67t49 49t67 18q37 0 68 -18t49 -49t18 -67q0 -37 -18 -68t-49 -49t-68 -18q-36 0 -67 18.5zM-141 860q15 15 15 37q0 21 -15 36t-36 15t-36 -15t-15 -36q0 -22 15 -37t36 -14q21 -1 36 14z" />
    <glyph glyph-name="uni030B" unicode="&#x30b;" horiz-adv-x="0" 
d="M-489 772q-11 0 -18.5 7t-7.5 17q0 5 4 13l81 148q4 9 16 9h99q13 0 21 -8t8 -18t-8 -20l-123 -142q-5 -6 -13 -6h-59zM-279 772q-11 0 -18 6.5t-7 15.5q0 7 4 14l80 149q4 9 16 9h101q13 0 21 -7.5t8 -18.5q0 -9 -8 -19l-122 -143q-5 -6 -13 -6h-62z" />
    <glyph glyph-name="uni030C" unicode="&#x30c;" horiz-adv-x="0" 
d="M-320 772q-9 0 -13 6l-119 145q-7 8 -7 19q0 10 8 17.5t20 7.5h102q10 0 15 -9l48 -87l49 87q5 9 15 9h101q12 0 20 -7.5t8 -17.5q0 -11 -7 -19l-119 -145q-4 -6 -13 -6h-108z" />
    <glyph glyph-name="uni0312" unicode="&#x312;" horiz-adv-x="0" 
d="M-202 772q-11 0 -18 6.5t-7 16.5q0 7 3 13l91 170q4 9 16 9h48q10 0 16.5 -7.5t4.5 -17.5l-26 -173q-1 -7 -6 -12t-13 -5h-109z" />
    <glyph glyph-name="uni0326" unicode="&#x326;" horiz-adv-x="0" 
d="M-218 -309q-10 0 -16.5 7.5t-4.5 17.5l26 173q1 7 6 12t13 5h109q11 0 18 -6.5t7 -16.5q0 -7 -3 -13l-91 -170q-5 -9 -16 -9h-48z" />
    <glyph glyph-name="uni0327" unicode="&#x327;" horiz-adv-x="0" 
d="M-286 -270q-10 6 -10 17q0 7 2 10l28 53q4 10 17 10q6 0 10 -2q31 -13 51 -13q23 0 37 10t14 28q0 19 -17 33t-46 17q-12 1 -19.5 8t-7.5 16q0 5 3 11l28 62q2 5 7 8t10 3h41q13 0 22 -7.5t9 -16.5q0 -7 -4 -12l-28 -35q42 -9 68.5 -40.5t26.5 -72.5q0 -49 -36.5 -81.5
t-101.5 -32.5q-53 0 -104 27z" />
    <glyph glyph-name="uni0328" unicode="&#x328;" horiz-adv-x="0" 
d="M-262.5 -218q-37.5 33 -37.5 89q0 37 22.5 75.5t65.5 71.5q8 4 15 3l24 -6q21 -6 21 -24q0 -14 -13 -27q-31 -33 -31 -63q0 -22 11.5 -34t29.5 -12q13 0 31 10q5 4 13 4q7 0 13 -6l40 -42q5 -7 5 -13q0 -9 -8 -17q-23 -21 -51.5 -31.5t-58.5 -10.5q-54 0 -91.5 33z" />
    <glyph glyph-name="Wgrave" unicode="&#x1e80;" horiz-adv-x="1184" 
d="M314 0q-7 0 -13.5 4t-8.5 11l-248 645q-2 4 -2 12q0 12 8 20t21 8h103q7 0 13.5 -4t8.5 -11l176 -465l140 463q2 8 8 12.5t14 4.5h118q8 0 14 -4.5t8 -12.5l140 -463l176 465q2 7 8.5 11t13.5 4h102q13 0 21 -8t8 -20q0 -8 -2 -12l-249 -645q-2 -7 -8.5 -11t-13.5 -4
h-121q-8 0 -14.5 4.5t-8.5 12.5l-133 452l-133 -452q-2 -8 -8.5 -12.5t-14.5 -4.5h-123zM542 750q-9 0 -13 6l-122 143q-8 10 -8 19q0 11 8 18.5t21 7.5h99q12 0 16 -9l81 -148q4 -8 4 -13q0 -10 -7.5 -17t-18.5 -7h-60z" />
    <glyph glyph-name="wgrave" unicode="&#x1e81;" horiz-adv-x="952" 
d="M258 0q-14 0 -21 14l-186 445q-3 6 -3 13q0 12 8.5 20t21.5 8h105q7 0 13.5 -4t8.5 -11l113 -302l96 301q2 7 8 11.5t14 4.5h79q8 0 14 -4.5t8 -11.5l97 -301l112 302q2 7 8 11t14 4h105q13 0 21.5 -8t8.5 -20q0 -7 -3 -13l-187 -445q-7 -14 -21 -14h-102q-8 0 -14 4.5
t-8 11.5l-92 282l-91 -282q-2 -7 -8 -11.5t-14 -4.5h-105zM413 568q-9 0 -13 6l-122 143q-8 10 -8 19q0 11 8 18.5t21 7.5h99q12 0 16 -9l81 -148q4 -8 4 -13q0 -10 -7.5 -17t-18.5 -7h-60z" />
    <glyph glyph-name="Wacute" unicode="&#x1e82;" horiz-adv-x="1184" 
d="M314 0q-7 0 -13.5 4t-8.5 11l-248 645q-2 4 -2 12q0 12 8 20t21 8h103q7 0 13.5 -4t8.5 -11l176 -465l140 463q2 8 8 12.5t14 4.5h118q8 0 14 -4.5t8 -12.5l140 -463l176 465q2 7 8.5 11t13.5 4h102q13 0 21 -8t8 -20q0 -8 -2 -12l-249 -645q-2 -7 -8.5 -11t-13.5 -4
h-121q-8 0 -14.5 4.5t-8.5 12.5l-133 452l-133 -452q-2 -8 -8.5 -12.5t-14.5 -4.5h-123zM578 746q-11 0 -18.5 7t-7.5 17q0 5 4 13l81 148q5 9 16 9h99q13 0 21 -8t8 -18t-8 -20l-123 -142q-5 -6 -13 -6h-59z" />
    <glyph glyph-name="wacute" unicode="&#x1e83;" horiz-adv-x="952" 
d="M258 0q-14 0 -21 14l-186 445q-3 6 -3 13q0 12 8.5 20t21.5 8h105q7 0 13.5 -4t8.5 -11l113 -302l96 301q2 7 8 11.5t14 4.5h79q8 0 14 -4.5t8 -11.5l97 -301l112 302q2 7 8 11t14 4h105q13 0 21.5 -8t8.5 -20q0 -7 -3 -13l-187 -445q-7 -14 -21 -14h-102q-8 0 -14 4.5
t-8 11.5l-92 282l-91 -282q-2 -7 -8 -11.5t-14 -4.5h-105zM477 571q-11 0 -18.5 7t-7.5 17q0 5 4 13l81 148q5 9 16 9h99q13 0 21 -8t8 -18t-8 -20l-123 -142q-5 -6 -13 -6h-59z" />
    <glyph glyph-name="Wdieresis" unicode="&#x1e84;" horiz-adv-x="1184" 
d="M314 0q-7 0 -13.5 4t-8.5 11l-248 645q-2 4 -2 12q0 12 8 20t21 8h103q7 0 13.5 -4t8.5 -11l176 -465l140 463q2 8 8 12.5t14 4.5h118q8 0 14 -4.5t8 -12.5l140 -463l176 465q2 7 8.5 11t13.5 4h102q13 0 21 -8t8 -20q0 -8 -2 -12l-249 -645q-2 -7 -8.5 -11t-13.5 -4
h-121q-8 0 -14.5 4.5t-8.5 12.5l-133 452l-133 -452q-2 -8 -8.5 -12.5t-14.5 -4.5h-123zM407 777.5q-27 26.5 -27 64.5q0 37 27 63.5t65 26.5q37 0 64 -26.5t27 -63.5t-26.5 -64t-64.5 -27t-65 26.5zM648 777.5q-27 26.5 -27 64.5q0 37 27 63.5t65 26.5t65 -26.5t27 -63.5
q0 -38 -27 -64.5t-65 -26.5t-65 26.5z" />
    <glyph glyph-name="wdieresis" unicode="&#x1e85;" horiz-adv-x="952" 
d="M258 0q-14 0 -21 14l-186 445q-3 6 -3 13q0 12 8.5 20t21.5 8h105q7 0 13.5 -4t8.5 -11l113 -302l96 301q2 7 8 11.5t14 4.5h79q8 0 14 -4.5t8 -11.5l97 -301l112 302q2 7 8 11t14 4h105q13 0 21.5 -8t8.5 -20q0 -7 -3 -13l-187 -445q-7 -14 -21 -14h-102q-8 0 -14 4.5
t-8 11.5l-92 282l-91 -282q-2 -7 -8 -11.5t-14 -4.5h-105zM289 593.5q-27 26.5 -27 64.5q0 37 27 63.5t65 26.5q37 0 64 -26.5t27 -63.5t-26.5 -64t-64.5 -27t-65 26.5zM530 593.5q-27 26.5 -27 64.5q0 37 27 63.5t65 26.5t65 -26.5t27 -63.5q0 -38 -27 -64.5t-65 -26.5
t-65 26.5z" />
    <glyph glyph-name="Ygrave" unicode="&#x1ef2;" horiz-adv-x="729" 
d="M317 0q-11 0 -18.5 7.5t-7.5 17.5v265l-240 360q-6 9 -6 19q0 13 9 22t24 9h103q12 0 18 -10l166 -256l165 256q6 10 18 10h103q15 0 24 -9t9 -22q0 -10 -6 -19l-239 -360v-265q0 -10 -7 -17.5t-18 -7.5h-97zM348 741q-9 0 -13 6l-122 143q-8 10 -8 19q0 11 8 18.5
t21 7.5h99q12 0 16 -9l81 -148q4 -8 4 -13q0 -10 -7.5 -17t-18.5 -7h-60z" />
    <glyph glyph-name="ygrave" unicode="&#x1ef3;" horiz-adv-x="663" 
d="M103.5 -238.5q-7.5 7.5 -7.5 18.5v75q0 10 7.5 17.5t18.5 8.5q44 2 80 20t53 51l20 47l-229 457q-4 7 -4 15q0 12 9 20.5t22 8.5h103q14 0 20 -13l145 -310l110 308q5 15 21 15h105q13 0 21.5 -8.5t8.5 -20.5q0 -7 -2 -11l-196 -502q-39 -107 -104.5 -154t-182.5 -50
q-11 0 -18.5 7.5zM322 572q-9 0 -13 6l-122 143q-8 10 -8 19q0 11 8 18.5t21 7.5h99q12 0 16 -9l81 -148q4 -8 4 -13q0 -10 -7.5 -17t-18.5 -7h-60z" />
    <glyph glyph-name="endash" unicode="&#x2013;" horiz-adv-x="739" 
d="M94 295q-8 0 -14 6t-6 14v70q0 8 6 14t14 6h581q8 0 14 -6t6 -14v-70q0 -8 -6 -14t-14 -6h-581z" />
    <glyph glyph-name="emdash" unicode="&#x2014;" horiz-adv-x="1006" 
d="M94 295q-8 0 -14 6t-6 14v70q0 8 6 14t14 6h847q8 0 14 -6t6 -14v-70q0 -8 -6 -14t-14 -6h-847z" />
    <glyph glyph-name="quoteleft" unicode="&#x2018;" horiz-adv-x="281" 
d="M184 773q0 -10 -7 -24q-12 -30 -11 -53q30 -4 50.5 -27t20.5 -54q0 -34 -24 -58t-58 -24q-37 0 -60.5 27.5t-21.5 64.5q3 44 25.5 85t52.5 72q7 7 18 7q5 0 8 -2q7 -4 7 -14z" />
    <glyph glyph-name="quoteright" unicode="&#x2019;" horiz-adv-x="281" 
d="M127 554q0 10 7 24q12 30 11 53q-30 4 -50.5 27t-20.5 54q0 34 24 58t58 24q37 0 60.5 -27.5t21.5 -64.5q-3 -44 -25.5 -85t-52.5 -72q-7 -7 -18 -7q-5 0 -8 2q-7 4 -7 14z" />
    <glyph glyph-name="quotesinglbase" unicode="&#x201a;" horiz-adv-x="281" 
d="M127 -89q0 10 7 24q12 30 11 53q-30 4 -50.5 27t-20.5 54q0 34 24 58t58 24q37 0 60.5 -27.5t21.5 -64.5q-3 -44 -25.5 -85t-52.5 -72q-7 -7 -18 -7q-5 0 -8 2q-7 4 -7 14z" />
    <glyph glyph-name="quotedblleft" unicode="&#x201c;" horiz-adv-x="469" 
d="M184 773q0 -10 -7 -24q-12 -30 -11 -53q30 -4 50.5 -27t20.5 -54q0 -34 -24 -58t-58 -24q-37 0 -60.5 27.5t-21.5 64.5q3 44 25.5 85t52.5 72q7 7 18 7q5 0 8 -2q7 -4 7 -14zM372 773q0 -10 -7 -24q-12 -30 -11 -53q30 -4 50.5 -27t20.5 -54q0 -34 -24 -58t-58 -24
q-37 0 -60.5 27.5t-21.5 64.5q3 44 25.5 85t52.5 72q7 7 18 7q5 0 8 -2q7 -4 7 -14z" />
    <glyph glyph-name="quotedblright" unicode="&#x201d;" horiz-adv-x="469" 
d="M315 554q0 10 7 24q12 30 11 53q-30 4 -50.5 27t-20.5 54q0 34 24 58t58 24q37 0 60.5 -27.5t21.5 -64.5q-3 -44 -25.5 -85t-52.5 -72q-7 -7 -18 -7q-5 0 -8 2q-7 4 -7 14zM127 554q0 10 7 24q12 30 11 53q-30 4 -50.5 27t-20.5 54q0 34 24 58t58 24q37 0 60.5 -27.5
t21.5 -64.5q-3 -44 -25.5 -85t-52.5 -72q-7 -7 -18 -7q-5 0 -8 2q-7 4 -7 14z" />
    <glyph glyph-name="quotedblbase" unicode="&#x201e;" horiz-adv-x="476" 
d="M322 -89q0 10 7 24q12 30 11 53q-30 4 -50.5 27t-20.5 54q0 34 24 58t58 24q37 0 60.5 -27.5t21.5 -64.5q-3 -44 -25.5 -85t-52.5 -72q-7 -7 -18 -7q-5 0 -8 2q-7 4 -7 14zM127 -89q0 10 7 24q12 30 11 53q-30 4 -50.5 27t-20.5 54q0 34 24 58t58 24q37 0 60.5 -27.5
t21.5 -64.5q-3 -44 -25.5 -85t-52.5 -72q-7 -7 -18 -7q-5 0 -8 2q-7 4 -7 14z" />
    <glyph glyph-name="dagger" unicode="&#x2020;" horiz-adv-x="597" 
d="M264 -206q-8 0 -14 6t-6 14l-8 574l-140 -7h-2q-8 0 -14 6.5t-6 14.5v128q0 9 6.5 15.5t15.5 5.5l138 -7l-2 135q0 9 6 15t15 6h121q9 0 15 -6t6 -15l-2 -135l139 7h2q8 0 14 -6.5t6 -14.5v-128q0 -9 -6.5 -15.5t-15.5 -5.5l-140 7l-8 -574q0 -8 -6 -14t-14 -6h-100z" />
    <glyph glyph-name="daggerdbl" unicode="&#x2021;" horiz-adv-x="597" 
d="M251 -205q-9 0 -14.5 5.5t-5.5 15.5l4 153l-139 -7h-2q-8 0 -14 6.5t-6 14.5v126q0 9 6.5 15.5t15.5 5.5l145 -7l4 132l-5 135l-144 -7h-2q-8 0 -14 6.5t-6 14.5v126q0 9 6.5 15.5t15.5 5.5l138 -7l-3 135q0 10 5.5 15.5t14.5 5.5h125q9 0 14.5 -5.5t5.5 -15.5l-3 -135
l139 7h2q8 0 14 -6.5t6 -14.5v-126q0 -9 -6.5 -15.5t-15.5 -5.5l-144 7l-6 -135l5 -132l145 7h2q8 0 14 -6.5t6 -14.5v-126q0 -9 -6.5 -15.5t-15.5 -5.5l-140 7l4 -153q0 -10 -5.5 -15.5t-14.5 -5.5h-125z" />
    <glyph glyph-name="bullet" unicode="&#x2022;" horiz-adv-x="479" 
d="M164 179q-41 24 -65.5 65.5t-24.5 90.5t24 90.5t65.5 66t90.5 24.5t90.5 -24.5t66 -66t24.5 -90.5t-24.5 -90.5t-66 -65.5t-90.5 -24t-90 24z" />
    <glyph glyph-name="ellipsis" unicode="&#x2026;" horiz-adv-x="684" 
d="M98 11q-24 24 -24 58t24 58t58 24t58 -24t24 -58t-24 -58t-58 -24t-58 24zM299 11q-24 24 -24 58t24 58t58 24t58 -24t24 -58t-24 -58t-58 -24t-58 24zM500 11q-24 24 -24 58t24 58t58 24t57.5 -24t23.5 -58t-23.5 -58t-57.5 -24t-58 24z" />
    <glyph glyph-name="perthousand" unicode="&#x2030;" horiz-adv-x="1220" 
d="M158.5 395.5q-38.5 22.5 -61.5 61.5t-23 85t23 84.5t61.5 61.5t84.5 23t85 -23t62 -61.5t23 -84.5q0 -47 -23 -85.5t-62 -61t-85 -22.5t-84.5 22.5zM171 0q-13 0 -20.5 7t-7.5 18q0 10 7 18l505 650q5 7 13 7h43q13 0 20.5 -7t7.5 -18q0 -9 -6 -18l-504 -650
q-5 -7 -13 -7h-45zM297.5 487.5q23.5 23.5 23.5 54.5t-23 54t-55 23q-31 0 -54 -22.5t-23 -54.5q0 -31 23 -54.5t54 -23.5t54.5 23.5zM552 13q-39 23 -62 62t-23 85q0 45 23 84.5t62 62.5t85 23t85 -23t62 -62t23 -85q0 -47 -23 -86t-62 -61.5t-85 -22.5t-85 23zM922 13
q-39 23 -62 62t-23 85q0 45 23 84.5t62 62.5t85 23t85 -23t62 -62t23 -85q0 -47 -23 -86t-62 -61.5t-85 -22.5t-85 23zM690.5 106.5q22.5 22.5 22.5 53.5t-22.5 53.5t-53.5 22.5q-32 0 -54.5 -22t-22.5 -54t22.5 -54t54.5 -22q31 0 53.5 22.5zM1060.5 106.5
q22.5 22.5 22.5 53.5t-22.5 53.5t-53.5 22.5q-32 0 -54.5 -22t-22.5 -54t22.5 -54t54.5 -22q31 0 53.5 22.5z" />
    <glyph glyph-name="guilsinglleft" unicode="&#x2039;" horiz-adv-x="613" 
d="M395 15q-7 0 -12 5l-295 295q-7 9 -7 14q0 7 7 14l292 291q5 5 12 5h105q13 0 21.5 -8t8.5 -19q0 -12 -10 -22l-261 -262l264 -264q10 -10 10 -22q0 -11 -8.5 -19t-22.5 -8h-104z" />
    <glyph glyph-name="guilsinglright" unicode="&#x203a;" horiz-adv-x="613" 
d="M144 15q-14 0 -22.5 8t-8.5 19q0 12 10 22l264 264l-261 262q-10 10 -10 22q0 11 8.5 19t21.5 8h105q7 0 12 -5l292 -291q6 -6 6 -14t-6 -14l-295 -295q-5 -5 -12 -5h-104z" />
    <glyph glyph-name="fraction" unicode="&#x2044;" horiz-adv-x="854" 
d="M120 -151q-12 0 -19 7t-7 17q0 7 5 15l587 929q5 8 15 8h60q12 0 19 -7t7 -17q0 -7 -5 -15l-586 -929q-5 -8 -15 -8h-61z" />
    <glyph glyph-name="Euro" unicode="&#x20ac;" horiz-adv-x="837" 
d="M394 20q-78 36 -129.5 99.5t-69.5 145.5h-70q-19 0 -29.5 10.5t-4.5 21.5l10 19q7 12 20 12h65q-2 14 -2 22t2 28h-49q-18 0 -29 10.5t-5 21.5l10 19q7 12 20 12h63q20 80 71.5 142.5t128.5 97.5t170 35q110 0 198 -54q12 -7 12 -21q0 -10 -8 -20l-63 -64q-7 -7 -17 -7
q-8 0 -13 4q-29 17 -58 23.5t-64 6.5q-71 -1 -124 -41t-71 -102h127q19 0 30 -10t5 -21l-11 -20q-6 -12 -19 -12h-153q-2 -20 -2 -28l1 -22h137q18 0 29 -10t5 -21l-10 -20q-7 -12 -20 -12h-124q18 -64 72.5 -106t127.5 -43q38 -1 69.5 5.5t59.5 24.5q8 5 15 5q10 0 16 -8
l59 -61q9 -10 9 -21t-9 -17q-90 -60 -206 -60q-94 0 -172 36z" />
    <glyph glyph-name="trademark" unicode="&#x2122;" horiz-adv-x="945" 
d="M202 521q-8 0 -14 6t-6 14v274h-88q-8 0 -14 6t-6 14v43q0 8 6 14t14 6h262q8 0 14 -6t6 -14v-43q0 -8 -6 -14t-14 -6h-90v-274q0 -8 -6 -14t-14 -6h-44zM449 521q-8 0 -14 6t-6 14v337q0 8 6 14t14 6h68q10 0 15 -9l133 -235l134 235q5 9 15 9h66q8 0 14 -6t6 -14v-337
q0 -8 -6 -14t-14 -6h-43q-8 0 -14 6t-6 14v210l-98 -172q-5 -9 -15 -9h-77q-10 0 -15 9l-99 174v-212q0 -8 -6 -14t-14 -6h-44z" />
    <glyph glyph-name="oneeighth" unicode="&#x215b;" horiz-adv-x="1052" 
d="M215 473q-8 0 -14 6t-6 14v387l-15 -14q-6 -6 -13 -6q-8 0 -15 7l-31 31q-6 6 -6 15q0 8 6 14l69 68q5 5 12 5h57q8 0 14 -6t6 -14v-487q0 -8 -6 -14t-14 -6h-44zM171 -151q-12 0 -19 7t-7 17q0 7 5 15l588 929q5 8 15 8h59q12 0 19 -7t7 -17q0 -7 -5 -15l-587 -929
q-5 -8 -15 -8h-60zM616 -255q-52 45 -52 121q0 42 21 76t58 51q-19 16 -30 39t-11 50q0 40 21 73t57 52t79 19q44 0 79.5 -19t56 -52t20.5 -73q0 -55 -40 -89q37 -18 57 -51.5t20 -75.5q0 -77 -52.5 -121.5t-143.5 -44.5q-88 0 -140 45zM810.5 40.5q19.5 16.5 19.5 41.5
q0 24 -20 41t-51 17t-51.5 -17t-20.5 -41q0 -25 20 -41.5t52 -17.5q32 1 51.5 17.5zM867 -134q0 31 -21.5 51.5t-59.5 20.5h-55q-38 0 -60 -20.5t-22 -51.5q0 -40 27 -61t81 -21q110 0 110 82z" />
    <glyph glyph-name="threeeighths" unicode="&#x215c;" horiz-adv-x="1115" 
d="M181.5 489q-47.5 19 -71.5 57q-3 5 -3 11t3 11t9 7l42 21q6 2 8 2q9 0 17 -10q28 -34 104 -34q57 0 86 23t29 66q0 33 -21.5 51.5t-62.5 18.5h-43q-8 0 -14 6t-6 14v46q0 8 4.5 14t11.5 6q35 0 59 19.5t24 44.5q0 28 -20.5 45t-57.5 17q-42 0 -66 -27q-6 -9 -17 -9
q-5 0 -8 2l-42 21q-6 2 -9 7t-3 11q0 7 3 11q21 31 58 49t82 18q75 0 120.5 -39.5t45.5 -105.5q0 -25 -10.5 -48.5t-29.5 -40.5q41 -15 64 -50t23 -81q0 -79 -54 -126t-143 -47q-64 0 -111.5 19zM251 -152q-12 0 -19 7t-7 17q0 7 5 15l588 928q5 8 15 8h59q12 0 19 -7t7 -17
q0 -7 -5 -15l-585 -928q-5 -8 -15 -8h-62zM678 -255q-52 45 -52 121q0 42 21 76t58 51q-20 16 -31 39t-11 50q0 40 21 73t57 52t80 19t80 -19t56.5 -52t20.5 -73q0 -53 -42 -89q37 -18 58 -51.5t21 -75.5q0 -77 -53 -121.5t-144 -44.5q-88 0 -140 45zM872 40.5
q19 16.5 19 41.5t-19.5 41.5t-50.5 16.5q-32 0 -51.5 -16.5t-19.5 -41.5t19.5 -41.5t51.5 -17.5q32 1 51 17.5zM930 -134q0 31 -22.5 51.5t-61.5 20.5h-52q-39 0 -61 -20.5t-22 -51.5q0 -40 27 -61t81 -21q111 0 111 82z" />
    <glyph glyph-name="fiveeighths" unicode="&#x215d;" horiz-adv-x="1102" 
d="M180.5 491.5q-48.5 23.5 -71.5 66.5q-3 5 -3 10q0 12 14 18l44 16q6 2 7 2q11 0 17 -11q13 -19 39 -30t61 -11q53 0 78.5 25t25.5 77q0 92 -110 92q-37 0 -129 -15q-10 -1 -17.5 5t-7.5 17v227q0 8 6 14t14 6h273q8 0 14 -6t6 -14v-44q0 -8 -6 -14t-14 -6h-208v-91l49 5
q9 1 27 1q88 0 138.5 -48t50.5 -129q0 -87 -50.5 -136.5t-138.5 -49.5q-60 0 -108.5 23.5zM226 -153q-12 0 -19 7t-7 17q0 7 5 15l588 928q5 8 15 8h59q12 0 19 -7t7 -17q0 -7 -5 -15l-586 -928q-5 -8 -15 -8h-61zM665.5 -255q-52.5 45 -52.5 121q0 42 21 76t58 51
q-20 16 -31 39t-11 50q0 40 21 73t57.5 52t80.5 19t79.5 -19t56 -52t20.5 -73q0 -54 -41 -89q37 -18 57.5 -51.5t20.5 -75.5q0 -77 -53 -121.5t-144 -44.5q-87 0 -139.5 45zM859.5 40.5q18.5 16.5 18.5 41.5q0 24 -19.5 41t-49.5 17q-32 0 -52 -16.5t-20 -41.5t19.5 -41.5
t52.5 -17.5q32 1 50.5 17.5zM889 -195.5q27 20.5 27 61.5q0 31 -22 51.5t-60 20.5h-53q-39 0 -61 -20.5t-22 -51.5q0 -40 27.5 -61t80.5 -21q56 0 83 20.5z" />
    <glyph glyph-name="seveneighths" unicode="&#x215e;" horiz-adv-x="1011" 
d="M200 473q-11 0 -18 7t-7 17q0 6 3 12l209 406h-254q-8 0 -14 6t-6 14v45q0 8 6 14t14 6h327q8 0 14 -6t6 -14v-61q0 -1 -2 -7l-217 -429q-4 -10 -16 -10h-45zM147 -151q-12 0 -19 7t-7 17q0 7 5 15l587 927q5 8 15 8h60q12 0 19 -7t7 -17q0 -7 -5 -15l-587 -927
q-5 -8 -15 -8h-60zM575 -255q-52 45 -52 121q0 42 20.5 76t57.5 51q-20 16 -30.5 39t-10.5 50q0 40 20.5 73t56.5 52t80 19t80.5 -19t57 -52t20.5 -73q0 -54 -43 -89q37 -18 58 -51.5t21 -75.5q0 -77 -52.5 -121.5t-143.5 -44.5q-88 0 -140 45zM768.5 40.5
q19.5 16.5 19.5 41.5t-19.5 41.5t-51.5 16.5q-31 0 -50.5 -16.5t-19.5 -41.5t19 -41.5t51 -17.5q32 1 51.5 17.5zM826 -134q0 31 -22 51.5t-61 20.5h-53q-38 0 -60 -20.5t-22 -51.5q0 -40 27 -61t81 -21q110 0 110 82z" />
    <glyph glyph-name="arrowleft" unicode="&#x2190;" horiz-adv-x="826" 
d="M83 309q-9 5 -9 15v54q0 10 9 15l298 172q5 3 10 3q10 0 16 -10l27 -40q4 -5 4 -12q0 -11 -11 -17l-151 -89h486q8 0 14 -6t6 -14v-57q0 -8 -6 -14t-14 -6h-488l153 -89q11 -6 11 -18q0 -6 -4 -11l-27 -41q-6 -10 -16 -10q-5 0 -10 3z" />
    <glyph glyph-name="arrowup" unicode="&#x2191;" horiz-adv-x="564" 
d="M270 0q-8 0 -14 6t-6 14v486l-90 -152q-6 -11 -17 -11q-7 0 -12 4l-41 26q-9 6 -9 17q0 6 3 10l171 298q5 9 15 9h54q10 0 15 -9l172 -298q3 -4 3 -10q0 -10 -10 -17l-41 -26q-8 -4 -11 -4q-12 0 -18 11l-88 151v-485q0 -8 -6 -14t-14 -6h-56z" />
    <glyph glyph-name="arrowright" unicode="&#x2192;" horiz-adv-x="826" 
d="M476 136q-4 -3 -11 -3q-10 0 -16 9l-26 41q-4 8 -4 11q0 12 11 18l150 87l-486 1q-8 0 -14 6t-6 14v58q0 8 6 14t14 6h487l-152 88q-10 6 -10 18q0 7 3 11l27 42q6 9 17 9q5 0 10 -3l297 -173q9 -5 9 -15v-53q0 -10 -9 -15z" />
    <glyph glyph-name="arrowdown" unicode="&#x2193;" horiz-adv-x="564" 
d="M270 -10q-10 0 -15 9l-172 297q-2 3 -2 9q0 11 9 17l40 27q5 4 13 4q11 0 17 -10l88 -152l1 487q0 8 6 14t14 6h57q8 0 14 -6t6 -14v-487l88 151q6 11 18 11q5 0 11 -4l42 -27q9 -6 9 -17q0 -5 -3 -10l-173 -296q-5 -9 -15 -9h-53z" />
    <glyph glyph-name="arrowboth" unicode="&#x2194;" horiz-adv-x="1073" 
d="M83 309q-9 5 -9 15v54q0 10 9 15l298 172q5 3 10 3q10 0 16 -10l27 -40q4 -5 4 -12q0 -11 -11 -17l-151 -89h552l-152 89q-11 6 -11 18q0 7 4 12l28 40q6 9 16 9q4 0 10 -3l297 -172q9 -5 9 -15v-54q0 -10 -9 -15l-297 -172q-4 -3 -10 -3q-10 0 -16 10l-27 41q-4 5 -4 12
q0 11 10 17l152 89h-554l153 -89q11 -6 11 -18q0 -6 -4 -11l-27 -41q-6 -10 -16 -10q-5 0 -10 3z" />
    <glyph glyph-name="arrowupdn" unicode="&#x2195;" horiz-adv-x="564" 
d="M270 -99q-10 0 -15 9l-171 297q-3 5 -3 10q0 11 9 17l41 26q5 4 12 4q10 0 17 -10l90 -152v507l-90 -152q-6 -11 -18 -11q-5 0 -11 4l-41 27q-9 6 -9 17q0 6 2 9l172 299q5 9 15 9h54q10 0 15 -9l173 -299q2 -3 2 -9q0 -11 -9 -17l-41 -27q-5 -4 -12 -4q-11 0 -17 11
l-88 152v-505l88 150q6 11 17 11q7 0 12 -4l41 -27q9 -6 9 -17q0 -5 -3 -10l-172 -297q-5 -9 -15 -9h-54z" />
    <glyph glyph-name="uni2196" unicode="&#x2196;" horiz-adv-x="679" 
d="M207 425l44 -171q1 -2 1 -6q0 -16 -16 -19l-48 -10h-4q-15 0 -20 14l-87 333q-1 2 -1 5q0 7 5 12l38 38q7 7 17 4l332 -89q7 -2 11.5 -8.5t2.5 -14.5l-10 -48q-1 -9 -9 -13.5t-17 -2.5l-168 46l343 -345q6 -7 6 -15t-6 -14l-41 -40q-6 -6 -14 -6t-14 6z" />
    <glyph glyph-name="uni2197" unicode="&#x2197;" horiz-adv-x="678" 
d="M88 123q-7 9 -7 14q0 7 7 14l345 345l-171 -45l-6 -1q-7 0 -12.5 4.5t-7.5 12.5l-10 48v4q0 15 14 20l333 88q2 1 5 1q7 0 12 -5l38 -38q7 -7 4 -17l-88 -332q-2 -8 -9 -12t-15 -3l-48 10q-9 2 -13.5 9.5t-2.5 16.5l44 169l-343 -343q-6 -6 -14 -6q-9 0 -15 6z" />
    <glyph glyph-name="uni2198" unicode="&#x2198;" horiz-adv-x="679" 
d="M241 164q-8 2 -12 9t-3 15l10 48q2 9 9.5 13t16.5 2l170 -45l-344 344q-7 9 -7 14q0 7 7 14l41 41q6 6 14 6t14 -6l345 -344l-45 170l-1 6q0 14 17 19l47 10h4q15 0 20 -14l89 -331q1 -2 1 -5q0 -7 -5 -12l-39 -38q-7 -7 -17 -4z" />
    <glyph glyph-name="uni2199" unicode="&#x2199;" horiz-adv-x="678" 
d="M136 73q-2 -1 -5 -1q-7 0 -12 5l-38 39q-7 8 -4 17l87 333q2 8 9 11.5t15 2.5l48 -10q20 -5 15 -25l-44 -171l345 343q6 6 14 6t14 -6l40 -40q6 -6 6 -14q0 -9 -6 -15l-344 -344l170 45q2 1 7 1q16 0 19 -16l10 -47v-4q0 -15 -14 -20z" />
    <glyph glyph-name="partialdiff" unicode="&#x2202;" horiz-adv-x="663" 
d="M207 25.5q-61 35.5 -97 96t-36 133.5q0 71 31 128t85.5 89.5t123.5 32.5q60 0 109.5 -30.5t68.5 -82.5q-9 108 -62 161.5t-133 53.5q-27 0 -56 -10l-8 -2q-14 0 -19 13l-32 81l-2 8q0 13 13 19q57 19 104 19q101 0 175 -55t112 -151t34 -216q-2 -87 -34 -160.5t-94 -118
t-149 -44.5q-73 0 -134 35.5zM448.5 151q35.5 39 39.5 104q-1 61 -42 101t-101 40q-38 0 -71 -19t-52 -51t-19 -71t19.5 -72t53.5 -52t74 -19q63 0 98.5 39z" />
    <glyph glyph-name="emptyset" unicode="&#x2205;" horiz-adv-x="667" 
d="M181 53l-43 -42q-6 -6 -14 -6t-14 6l-19 19q-6 6 -6 14q0 9 6 15l41 41q-28 35 -43 78t-15 91q0 74 36.5 136.5t99.5 99.5t137 37q47 0 90.5 -15.5t78.5 -43.5l43 42q6 6 14 6t14 -6l19 -18q6 -6 6 -14q0 -7 -6 -15l-43 -44q57 -73 57 -165q0 -74 -36.5 -137t-99.5 -100
t-137 -37q-92 0 -166 58zM435 403q-43 29 -88 29t-82.5 -21.5t-59 -59t-21.5 -82.5q0 -49 29 -88zM429.5 127q37.5 22 59 59.5t21.5 82.5t-29 83l-218 -218q38 -29 84 -29q45 0 82.5 22z" />
    <glyph glyph-name="product" unicode="&#x220f;" horiz-adv-x="776" 
d="M173 -207q-10 0 -17.5 7t-7.5 18v735h-48q-11 0 -18.5 7.5t-7.5 17.5v97q0 11 7.5 18t17.5 7h609q11 0 18 -7t7 -18v-97q0 -10 -7 -17.5t-18 -7.5h-49v-734q0 -11 -7.5 -18.5t-17.5 -7.5h-98q-10 0 -17.5 7t-7.5 18v735h-216v-734q0 -11 -7.5 -18.5t-17.5 -7.5h-97z" />
    <glyph glyph-name="summation" unicode="&#x2211;" horiz-adv-x="714" 
d="M99 -182q-10 0 -17.5 7t-7.5 18v113q0 8 7 15l321 291l-321 285q-7 7 -7 15v112q0 11 7.5 18.5t17.5 7.5h545q11 0 18 -7t7 -18v-97q0 -10 -7 -17.5t-18 -7.5h-351l291 -276q8 -7 8 -19q0 -11 -8 -19l-291 -274h351q11 0 18 -7.5t7 -17.5v-97q0 -11 -7 -18t-18 -7h-545z
" />
    <glyph glyph-name="minus" unicode="&#x2212;" horiz-adv-x="512" 
d="M94 296q-8 0 -14 6t-6 14v71q0 8 6 14t14 6h355q8 0 14 -6t6 -14v-71q0 -8 -6 -14t-14 -6h-355z" />
    <glyph glyph-name="radical" unicode="&#x221a;" horiz-adv-x="849" 
d="M234 -254q-12 0 -17 12l-132 365q-2 6 -2 9q0 10 6.5 16t17.5 6h111q12 0 17 -12l69 -191l250 736q6 13 17 13h215q8 0 14 -6t6 -14v-107q0 -8 -6 -14t-14 -6h-122l-280 -795q-5 -12 -17 -12h-133z" />
    <glyph glyph-name="infinity" unicode="&#x221e;" horiz-adv-x="1069" 
d="M180.5 197.5q-52.5 29.5 -79.5 76.5t-27 99q0 50 25 94t75.5 71t123.5 27q72 0 129 -32t121 -89q57 55 113 87t124 32q77 0 131 -28.5t81 -75t27 -98.5q0 -50 -25 -94.5t-73.5 -71.5t-116.5 -27q-77 1 -137 33.5t-122 88.5q-59 -57 -115.5 -89.5t-127.5 -32.5
q-74 0 -126.5 29.5zM386.5 298.5q35.5 21.5 84.5 67.5q-50 46 -88.5 68t-85.5 22q-54 0 -84 -25.5t-30 -59.5q0 -38 33 -66t91 -28q44 0 79.5 21.5zM888 302q28 25 28 59q0 38 -34 65.5t-97 27.5q-43 0 -77 -21t-80 -66q49 -45 90 -67.5t92 -22.5q50 0 78 25z" />
    <glyph glyph-name="integral" unicode="&#x222b;" horiz-adv-x="518" 
d="M144 -215l-39 52q-15 22 -15 31q0 6 5 8q4 1 10.5 1.5t10.5 2.5q32 23 56.5 125.5t45.5 303.5l9 91q11 113 20.5 180t28.5 120t50 76q26 21 66 19q9 -2 13 -7l39 -52q12 -15 12 -30q0 -9 -7 -9q-15 0 -22 -7q-24 -20 -36 -85.5t-27 -205.5l-11 -97q-16 -149 -29.5 -239.5
t-38.5 -162.5t-66 -101q-27 -22 -62 -21q-9 2 -13 7z" />
    <glyph glyph-name="approxequal" unicode="&#x2248;" horiz-adv-x="681" 
d="M508 381q-42 0 -81.5 8t-92.5 23q-85 23 -132 23q-36 0 -61 -11q-4 -2 -11 -2q-14 0 -18 11l-30 61q-2 3 -2 9q0 13 10 17q50 25 113 25q39 0 74.5 -7t84.5 -20q50 -14 84 -21t64 -7q35 0 60 11q4 2 11 2q13 0 17 -11l30 -62q2 -4 2 -7q0 -13 -16 -21q-45 -21 -106 -21z
M509 170q-42 0 -80.5 8t-92.5 23q-87 24 -137 24q-34 0 -58 -10q-4 -2 -11 -2q-14 0 -18 11l-30 61q-2 6 -2 9q0 11 11 17q49 24 112 24q66 0 159 -28q49 -14 82.5 -21t63.5 -7q34 0 62 12q5 3 10 3q14 0 18 -12l30 -61q2 -6 2 -8q0 -6 -4 -12t-11 -9q-47 -22 -106 -22z" />
    <glyph glyph-name="notequal" unicode="&#x2260;" horiz-adv-x="626" 
d="M118 0q-11 0 -18 6.5t-7 16.5q0 8 4 15l92 154h-45q-8 0 -14 6t-6 14v69q0 8 6 14t14 6h110l65 107h-175q-8 0 -14 6t-6 14v70q0 8 6 14t14 6h240l105 174q4 8 15 8h34q12 0 19 -6.5t7 -17.5q0 -7 -4 -14l-87 -144h25q8 0 14 -6t6 -14v-70q0 -8 -6 -14t-14 -6h-91
l-64 -107h155q8 0 14 -6t6 -14v-69q0 -8 -6 -14t-14 -6h-221l-110 -183q-4 -9 -15 -9h-34z" />
    <glyph glyph-name="lessequal" unicode="&#x2264;" horiz-adv-x="522" 
d="M93 387q-10 5 -10 16v43q0 11 10 16l341 166q6 3 11 3q9 0 15.5 -7t7.5 -17l3 -75q0 -11 -11 -17l-178 -88l179 -91q10 -5 10 -16l-3 -77q-1 -10 -7.5 -17t-15.5 -7q-5 0 -11 3zM94 63q-8 0 -14 6t-6 14v70q0 8 6 14t14 6h365q8 0 14 -6t6 -14v-70q0 -8 -6 -14t-14 -6
h-365z" />
    <glyph glyph-name="greaterequal" unicode="&#x2265;" horiz-adv-x="522" 
d="M117 222q-6 -3 -11 -3q-10 0 -16.5 7t-6.5 17l-2 77q0 11 10 16l178 91l-178 88q-10 5 -10 17l2 75q0 10 6.5 17t16.5 7q5 0 11 -3l343 -166q10 -5 10 -16v-43q0 -11 -10 -16zM94 63q-8 0 -14 6t-6 14v70q0 8 6 14t14 6h365q8 0 14 -6t6 -14v-70q0 -8 -6 -14t-14 -6h-365
z" />
    <glyph glyph-name="lozenge" unicode="&#x25ca;" horiz-adv-x="609" 
d="M280 2q-10 0 -15 9l-186 322q-2 6 -2 9q0 5 2 9l186 322q5 9 15 9h74q10 0 15 -9l191 -322q2 -3 2 -9t-2 -9l-191 -322q-5 -9 -15 -9h-74zM207 342l112 -192l112 192l-112 191z" />
    <glyph glyph-name="C.ss01" horiz-adv-x="509" 
d="M221 48.5q-83 44.5 -126.5 122t-43.5 179.5t43.5 179.5t126.5 122t200 48.5q12 1 19.5 -6.5t7.5 -18.5v-94q0 -11 -7 -18t-18 -8q-108 -6 -165 -60t-57 -145t57 -145t165 -60q11 -1 18 -8t7 -18v-94q0 -11 -7.5 -18.5t-19.5 -6.5q-117 4 -200 48.5z" />
    <glyph glyph-name="M.ss01" horiz-adv-x="1044" 
d="M90 0q-10 0 -17.5 7.5t-7.5 17.5v650q0 11 7.5 18t17.5 7h87q11 0 18 -7t7 -18v-94q33 59 89.5 95t123.5 36q69 0 108.5 -34t55.5 -105q33 63 91.5 101t127.5 38q72 0 111 -28t54.5 -90t15.5 -172v-396q0 -11 -7.5 -18.5t-17.5 -7.5h-97q-10 0 -17.5 7.5t-7.5 17.5v400
q0 73 -21 107t-67 34q-52 0 -93.5 -43t-55.5 -120v-378q0 -10 -7 -17.5t-18 -7.5h-97q-10 0 -17.5 7.5t-7.5 17.5v400q0 73 -20.5 107t-67.5 34q-51 0 -93 -44t-55 -123v-373q0 -11 -7.5 -18.5t-17.5 -7.5h-97z" />
    <glyph glyph-name="N.ss01" horiz-adv-x="770" 
d="M90 0q-10 0 -17.5 7.5t-7.5 17.5v650q0 11 7.5 18t17.5 7h87q11 0 18 -7t7 -18v-116q39 69 110.5 111t165.5 42q87 0 136 -30.5t70 -94.5t21 -172v-389q0 -11 -7.5 -18.5t-17.5 -7.5h-97q-10 0 -17.5 7.5t-7.5 17.5v406q0 70 -34.5 106t-97.5 36q-42 0 -89 -19.5
t-82 -57.5t-43 -90v-381q0 -10 -7 -17.5t-18 -7.5h-97z" />
    <glyph glyph-name="U.ss01" horiz-adv-x="770" 
d="M156.5 18.5q-49.5 30.5 -70.5 94.5t-21 172v389q0 11 7.5 18.5t17.5 7.5h97q11 0 18 -7t7 -18v-406q0 -70 34.5 -106t98.5 -36q42 0 88.5 19.5t81.5 57.5t43 90v381q0 11 7.5 18t17.5 7h97q11 0 18 -7t7 -18v-650q0 -10 -7 -17.5t-18 -7.5h-87q-10 0 -17.5 7.5t-7.5 17.5
v116q-38 -69 -110 -111t-166 -42q-86 0 -135.5 30.5z" />
    <glyph glyph-name="i.loclTRK" horiz-adv-x="254" 
d="M79 0q-10 0 -17.5 7.5t-7.5 17.5v450q0 11 7.5 18t17.5 7h96q11 0 18 -7t7 -18v-450q0 -10 -7 -17.5t-18 -7.5h-96zM69.5 593.5q-26.5 26.5 -26.5 64.5q0 37 26.5 63.5t64.5 26.5t64.5 -26.5t26.5 -63.5q0 -38 -26.5 -64.5t-64.5 -26.5t-64.5 26.5z" />
    <glyph glyph-name="a.ss01" horiz-adv-x="637" 
d="M156.5 22q-54.5 34 -85 94t-30.5 134q0 75 30.5 135.5t85 95t122.5 34.5q56 0 101 -20.5t76 -59.5v39q0 11 7.5 18.5t17.5 7.5h78q11 0 18 -7t7 -18v-450q0 -10 -7 -17.5t-18 -7.5h-78q-10 0 -17.5 7.5t-7.5 17.5v42q-31 -38 -76 -58.5t-101 -20.5q-68 0 -122.5 34z
M389 125q30 19 48 53v145q-17 34 -47.5 52.5t-72.5 18.5q-59 0 -94 -39t-35 -105t35 -105t94 -39q42 0 72 19z" />
    <glyph glyph-name="f.ss01" horiz-adv-x="410" 
d="M96 0q-10 0 -17.5 7.5t-7.5 17.5v361h-34q-10 0 -17.5 7.5t-7.5 17.5v64q0 11 7.5 18t17.5 7h34v11q0 109 50 160t162 51h69q11 0 18 -7t7 -18v-69q0 -10 -7 -17.5t-18 -7.5h-35q-43 0 -63.5 -6.5t-28 -24.5t-7.5 -56v-16h134q11 0 18 -7t7 -18v-64q0 -10 -7 -17.5
t-18 -7.5h-134v-361q0 -10 -7 -17.5t-18 -7.5h-97z" />
    <glyph glyph-name="g.ss01" horiz-adv-x="637" 
d="M184 -233q-53 15 -91 42q-9 7 -9 19q0 9 6 17l51 61q8 9 19 9q8 0 16 -5q53 -37 123 -37q62 0 100 26.5t38 82.5v88q-60 -62 -158 -62q-69 0 -123 30.5t-84.5 86t-30.5 128.5q0 74 30.5 134t85 94t122.5 34q56 0 101 -20.5t77 -59.5v39q0 11 7.5 18.5t17.5 7.5h77
q11 0 18 -7t7 -18v-496q0 -117 -73.5 -172t-215.5 -55q-58 0 -111 15zM389.5 133q30.5 19 47.5 53v137q-17 34 -47.5 52.5t-72.5 18.5q-58 0 -93.5 -38.5t-35.5 -102.5q0 -65 34.5 -102t94.5 -37q42 0 72.5 19z" />
    <glyph glyph-name="y.ss01" 
d="M179 -233q-53 15 -91 42q-9 7 -9 19q0 9 6 17l51 61q8 9 19 9q8 0 16 -5q55 -37 121 -37q64 0 102 26.5t38 82.5v128q-44 -52 -100 -77t-117 -25q-89 0 -126.5 49t-37.5 144v274q0 11 7.5 18t17.5 7h97q11 0 18 -7t7 -18v-225q0 -58 20.5 -88t71.5 -32q46 -1 84.5 26
t57.5 74v244q0 11 7.5 18.5t17.5 7.5h96q11 0 18 -7t7 -18v-496q0 -117 -73 -172t-215 -55q-58 0 -111 15z" />
    <glyph glyph-name="zero.dnom" horiz-adv-x="549" 
d="M178.5 -263q-48.5 36 -76.5 98.5t-28 136.5q0 73 28 134.5t76.5 97.5t107.5 36q57 0 105.5 -36t76.5 -97.5t28 -134.5q0 -74 -28 -136t-76.5 -98.5t-105.5 -36.5q-59 0 -107.5 36zM347.5 -188q28.5 25 45 67.5t16.5 92.5t-16.5 91.5t-45 66t-61.5 24.5q-34 0 -62.5 -24
t-45.5 -66t-17 -92t17 -92.5t45.5 -67.5t62.5 -25q33 0 61.5 25z" />
    <glyph glyph-name="one.dnom" horiz-adv-x="316" 
d="M183 -291q-8 0 -14 6t-6 14v387l-14 -13q-6 -6 -14 -6t-14 6l-32 32q-6 6 -6 15t6 15l69 66q5 5 12 5h58q8 0 14 -6t6 -14v-487q0 -8 -6 -14t-14 -6h-45z" />
    <glyph glyph-name="two.dnom" horiz-adv-x="500" 
d="M94 -290q-8 0 -14 6t-6 14v64q1 34 21.5 62t49.5 48t74 45l24 13q63 38 90.5 66t27.5 61q-1 29 -28.5 49t-74.5 20q-32 0 -56 -9.5t-36 -27.5q-10 -16 -25 -10l-42 18q-13 5 -13 18q0 3 2 9q22 41 66.5 63.5t104.5 22.5q54 0 96.5 -20t66.5 -54.5t24 -77.5
q0 -65 -38.5 -111.5t-120.5 -88.5q-6 -3 -39 -22t-50.5 -37.5t-18.5 -36.5h246q8 0 14 -6t6 -14v-44q0 -8 -6 -14t-14 -6h-331z" />
    <glyph glyph-name="three.dnom" horiz-adv-x="517" 
d="M156 -279q-47 20 -72 58q-3 4 -3 9q0 12 12 19l41 21q3 2 9 2q9 0 16 -9q13 -16 40 -25.5t64 -9.5q57 0 86.5 23t29.5 66q0 33 -22 52.5t-61 19.5h-44q-8 0 -14 6t-6 14v44q0 8 4.5 14t11.5 6q35 0 58.5 19.5t23.5 46.5q0 28 -20 45t-56 17q-45 0 -68 -28q-6 -9 -17 -9
q-5 0 -8 2l-41 22q-11 6 -11 18q0 6 3 10q22 32 59 49t83 17q73 0 117.5 -39.5t44.5 -103.5q0 -26 -10 -50t-29 -40q41 -16 63.5 -50.5t22.5 -81.5q0 -78 -54 -126t-143 -48q-63 0 -110 20z" />
    <glyph glyph-name="four.dnom" horiz-adv-x="462" 
d="M308 -290q-8 0 -14 6t-6 14v144h-194q-8 0 -14 6t-6 14v59q0 4 3 9l202 269q5 7 14 7h61q8 0 14 -6t6 -14v-262h14q8 0 14 -6t6 -14v-42q0 -8 -5 -14t-12 -6h-17v-144q0 -8 -6 -14t-14 -6h-46zM288 107l-118 -151h118v151z" />
    <glyph glyph-name="five.dnom" horiz-adv-x="506" 
d="M154.5 -283q-48.5 24 -71.5 66q-2 3 -2 9t3.5 11.5t9.5 7.5l44 17q2 1 6 1q10 0 18 -11q13 -19 39 -29.5t60 -11.5q53 0 79 25t26 77q0 92 -113 92q-24 0 -56 -4t-44 -5q-8 -2 -26 -4q-11 -2 -18 4.5t-7 16.5v226q0 8 6 14t14 6h274q8 0 14 -6t6 -14v-44q0 -8 -6 -14
t-14 -6h-208v-89l48 3q9 1 27 1q88 0 139 -48t51 -129q0 -87 -50.5 -136.5t-138.5 -49.5q-61 0 -109.5 24z" />
    <glyph glyph-name="six.dnom" horiz-adv-x="519" 
d="M155 -260q-51 40 -68 103q-13 59 -13 116q0 80 27 143.5t77 99.5t114 36q62 0 113 -37q8 -6 8 -16q0 -8 -6 -14l-28 -32q-6 -6 -14 -6q-9 0 -14 4q-29 20 -65 20q-51 0 -86 -40t-36 -104q18 28 49 45t66 17q54 0 96.5 -24t66.5 -66t24 -93q0 -53 -26 -97t-70.5 -69.5
t-96.5 -25.5q-67 0 -118 40zM349 -183.5q31 31.5 31 75.5q0 45 -31 76t-76 31q-44 0 -75 -31t-31 -76q0 -44 31 -75.5t75 -31.5q45 0 76 31.5z" />
    <glyph glyph-name="seven.dnom" horiz-adv-x="493" 
d="M160 -290q-11 0 -18 7t-7 17q0 6 3 12l209 405h-253q-8 0 -14 6t-6 14v46q0 8 6 14t14 6h325q8 0 14 -6t6 -14v-62q0 -1 -2 -7l-215 -428q-4 -10 -16 -10h-46z" />
    <glyph glyph-name="eight.dnom" horiz-adv-x="516" 
d="M126 -254.5q-52 45.5 -52 122.5q0 41 21 75t58 52q-20 14 -31 37t-11 51q0 40 20.5 73.5t56.5 52.5t80 19t80.5 -19t57 -52.5t20.5 -73.5q0 -27 -11.5 -50t-31.5 -38q37 -18 58 -52t21 -75q0 -77 -52.5 -122.5t-143.5 -45.5q-88 0 -140 45.5zM320 41q19 16 19 42
q0 25 -19.5 42t-51.5 17q-31 0 -50.5 -17t-19.5 -42t19 -41.5t51 -18.5q33 2 52 18zM377 -132q0 31 -22 51t-61 20h-53q-39 0 -60.5 -20t-21.5 -51q0 -83 108 -83q110 0 110 83z" />
    <glyph glyph-name="nine.dnom" horiz-adv-x="519" 
d="M133 -262q-8 6 -8 16q0 8 6 14l30 32q7 7 14 7q6 0 13 -5q30 -21 65 -21q51 0 86 40t37 103q-18 -28 -50 -44t-68 -16q-53 0 -95 24t-65.5 65.5t-23.5 92.5q0 52 26 96t70 70t96 26q67 0 118.5 -40t67.5 -103q14 -57 14 -115q0 -81 -27 -145t-76.5 -99.5t-114.5 -35.5
t-115 38zM341.5 -29q31.5 31 31.5 75q0 45 -31 75.5t-76 30.5t-75.5 -30t-30.5 -76q0 -44 30.5 -75t75.5 -31q44 0 75.5 31z" />
    <glyph glyph-name="zero.numr" horiz-adv-x="549" 
d="M178.5 506q-48.5 36 -76.5 97.5t-28 134.5q0 74 28 136.5t76.5 98.5t107.5 36q57 0 105.5 -36.5t76.5 -98.5t28 -136q0 -73 -28 -134.5t-76.5 -97.5t-105.5 -36q-59 0 -107.5 36zM347.5 580.5q28.5 24.5 45 66t16.5 91.5t-16.5 92.5t-45 67.5t-61.5 25q-34 0 -62.5 -25
t-45.5 -67.5t-17 -92.5t17 -92t45.5 -66t62.5 -24q33 0 61.5 24.5z" />
    <glyph glyph-name="one.numr" horiz-adv-x="316" 
d="M183 473q-8 0 -14 6t-6 14v387l-14 -13q-6 -6 -14 -6t-14 6l-32 31q-7 9 -7 15q0 8 7 15l69 67q5 5 12 5h58q8 0 14 -6t6 -14v-487q0 -8 -6 -14t-14 -6h-45z" />
    <glyph glyph-name="two.numr" horiz-adv-x="500" 
d="M94 478q-8 0 -14 6t-6 14v64q1 48 37 80.5t103 69.5q6 3 13.5 7.5t15.5 9.5q62 37 90 65t28 61q-1 30 -28.5 50.5t-74.5 20.5q-33 0 -56.5 -10t-35.5 -28q-11 -16 -25 -10l-42 18q-13 7 -13 18q0 3 2 9q22 41 66.5 64t104.5 23q53 0 96 -20.5t67 -55.5t24 -78
q0 -65 -38.5 -112t-120.5 -88q-55 -30 -81 -49.5t-27 -44.5h246q8 0 14 -6t6 -14v-44q0 -8 -6 -14t-14 -6h-331z" />
    <glyph glyph-name="three.numr" horiz-adv-x="517" 
d="M155 489.5q-47 19.5 -71 57.5q-3 5 -3 10q0 6 3 11t9 7l41 21q6 2 8 2q9 0 17 -10q13 -16 39.5 -25t64.5 -9q57 0 86.5 23t29.5 66q0 33 -22 51.5t-61 18.5h-44q-8 0 -14 6t-6 14v46q0 8 4.5 14t11.5 6q34 0 58 19.5t24 44.5q0 28 -19.5 45t-56.5 17q-44 0 -68 -27
q-6 -9 -17 -9q-5 0 -8 2l-41 21q-11 5 -11 18q0 5 3 11q21 31 57.5 49t81.5 18q74 0 119.5 -39.5t45.5 -105.5q0 -26 -10 -49.5t-29 -39.5q40 -15 63 -49.5t23 -81.5q0 -79 -54 -126t-143 -47q-64 0 -111 19.5z" />
    <glyph glyph-name="four.numr" horiz-adv-x="462" 
d="M308 472q-8 0 -14 6t-6 14v144h-194q-8 0 -14 6t-6 14v59q0 5 3 9l202 269q5 7 14 7h61q8 0 14 -6t6 -14v-262h14q8 0 14 -6t6 -14v-42q0 -8 -5 -14t-12 -6h-17v-144q0 -8 -6 -14t-14 -6h-46zM288 870l-118 -152h118v152z" />
    <glyph glyph-name="five.numr" horiz-adv-x="506" 
d="M154.5 491.5q-48.5 23.5 -71.5 66.5q-3 5 -3 10q0 12 14 18l44 16q2 1 6 1q10 0 17 -10q13 -19 39.5 -30t60.5 -11q53 0 79 25t26 77q0 92 -115 92q-36 0 -124 -15q-10 -1 -17.5 5t-7.5 17v227q0 8 6 14t14 6h274q8 0 14 -6t6 -14v-44q0 -8 -6 -14t-14 -6h-208v-91l48 5
q9 1 27 1q88 0 139 -48t51 -129q0 -87 -50.5 -136.5t-138.5 -49.5q-61 0 -109.5 23.5z" />
    <glyph glyph-name="six.numr" horiz-adv-x="519" 
d="M155 512q-51 40 -68 103q-13 59 -13 115q0 81 27 145t76.5 99.5t114.5 35.5t115 -38q7 -6 7 -15q0 -8 -6 -14l-29 -33q-6 -6 -14 -6q-9 0 -14 4q-30 21 -65 21q-51 0 -86 -40.5t-36 -102.5q17 27 46.5 43t62.5 17q55 2 99 -21.5t69 -65.5t25 -95q0 -52 -26 -96t-70.5 -70
t-96.5 -26q-67 0 -118 40zM349 588.5q31 30.5 31 75.5q0 44 -31 75t-76 31q-44 0 -75 -31t-31 -75q0 -45 31 -75.5t75 -30.5q45 0 76 30.5z" />
    <glyph glyph-name="seven.numr" horiz-adv-x="493" 
d="M160 473q-11 0 -18 7t-7 17q0 6 3 12l209 406h-253q-8 0 -14 6t-6 14v45q0 8 6 14t14 6h325q8 0 14 -6t6 -14v-61q0 -1 -2 -7l-215 -429q-4 -10 -16 -10h-46z" />
    <glyph glyph-name="eight.numr" horiz-adv-x="516" 
d="M126 529.5q-52 45.5 -52 121.5q0 42 21 76t58 51q-42 33 -42 88q0 41 20.5 74t56.5 51.5t80 18.5t80.5 -18.5t57 -51.5t20.5 -74q0 -53 -43 -88q37 -18 58 -51.5t21 -75.5q0 -77 -52.5 -122t-143.5 -45q-88 0 -140 45.5zM319.5 824.5q19.5 16.5 19.5 41.5t-19.5 41.5
t-51.5 17.5q-31 0 -50.5 -17t-19.5 -42t19.5 -41.5t50.5 -16.5q32 0 51.5 16.5zM377 651q0 31 -22 51t-61 20h-53q-38 0 -60 -20t-22 -51q0 -40 27 -61t81 -21q110 0 110 82z" />
    <glyph glyph-name="nine.numr" horiz-adv-x="519" 
d="M134 509q-8 6 -8 16q0 8 6 14l29 32q6 6 14 6q7 0 14 -4q29 -20 64 -20q52 0 86.5 39.5t36.5 104.5q-18 -28 -49.5 -45t-66.5 -17q-53 0 -95.5 24t-66.5 66t-24 93q0 53 26 97t70 69.5t96 25.5q67 0 118.5 -40t67.5 -103q14 -57 14 -116q0 -80 -27 -143.5t-77 -99.5
t-114 -36q-61 0 -114 37zM341.5 742q31.5 31 31.5 76q0 44 -31.5 75.5t-75.5 31.5q-45 0 -75.5 -31t-30.5 -76t30.5 -76t75.5 -31q44 0 75.5 31z" />
    </font>
</defs>
</svg>
