<?xml version="1.0" standalone="no"?>
<!DOCTYPE svg PUBLIC "-//W3C//DTD SVG 1.1//EN" "http://www.w3.org/Graphics/SVG/1.1/DTD/svg11.dtd" >
<svg xmlns="http://www.w3.org/2000/svg" xmlns:xlink="http://www.w3.org/1999/xlink" version="1.1">
<metadata>
Created by FontForge 20201107 at Fri Nov 25 13:44:07 2022
 By 
Copyright 2020 The Martian Mono Project Authors (https://github.com/evilmartians/mono)
</metadata>
<defs>
<font id="MartianMonoSemiExpanded-Regular" horiz-adv-x="750" >
  <font-face 
    font-family="Martian Mono SemiExpanded"
    font-weight="400"
    font-stretch="semi-expanded"
    units-per-em="1000"
    panose-1="2 11 0 9 2 0 0 0 0 4"
    ascent="800"
    descent="-200"
    x-height="600"
    cap-height="800"
    bbox="-28 -250 830 1088"
    underline-thickness="50"
    underline-position="-125"
    unicode-range="U+0020-A78C"
  />
<missing-glyph 
d="M100 0v800h550v-800h-550zM140 36h470v728h-470v-728zM190 90v620h370z" />
    <glyph glyph-name=".notdef" 
d="M100 0v800h550v-800h-550zM140 36h470v728h-470v-728zM190 90v620h370z" />
    <glyph glyph-name=".null" horiz-adv-x="0" 
 />
    <glyph glyph-name="nonmarkingreturn" horiz-adv-x="333" 
 />
    <glyph glyph-name="space" unicode=" " 
 />
    <glyph glyph-name="exclam" unicode="!" 
d="M318 800h114v-570h-114v570zM375 -6q-43 0 -66.5 19.5t-23.5 55.5q0 37 23.5 56.5t66.5 19.5t66.5 -19.5t23.5 -56.5q0 -36 -23.5 -55.5t-66.5 -19.5z" />
    <glyph glyph-name="quotedbl" unicode="&#x22;" 
d="M192 848h124l-20 -390h-84zM434 848h124l-20 -390h-84z" />
    <glyph glyph-name="numbersign" unicode="#" 
d="M388 800l-157 -800h-90l157 800h90zM609 800l-157 -800h-90l157 800h90zM102 600h600v-96h-600v96zM48 296h600v-96h-600v96z" />
    <glyph glyph-name="dollar" unicode="$" 
d="M344 -100v1000h80v-1000h-80zM200 204q17 -54 64 -83t118 -29q78 0 123 35.5t45 96.5q0 48 -31 76.5t-93 35.5l-102 12q-112 14 -169 70.5t-57 155.5q0 73 36 127t101 84.5t151 30.5q85 0 150 -29t103 -82.5t43 -128.5h-110q-16 63 -64.5 97.5t-121.5 34.5
q-82 0 -129 -36t-47 -98q0 -48 31.5 -76t92.5 -36l102 -12q113 -13 169.5 -70t56.5 -156q0 -72 -35 -126t-98 -84t-147 -30q-85 0 -149.5 26.5t-102 76t-42.5 117.5h112z" />
    <glyph glyph-name="percent" unicode="%" 
d="M50 130v97l650 443v-97zM529 -16q-77 0 -119 47.5t-42 135.5t42 135.5t119 47.5t119 -47.5t42 -135.5t-42 -135.5t-119 -47.5zM529 80q30 0 46.5 22.5t16.5 64.5t-16.5 64.5t-46.5 22.5t-46.5 -22.5t-16.5 -64.5t16.5 -64.5t46.5 -22.5zM221 816q77 0 119 -47.5
t42 -135.5t-42 -135.5t-119 -47.5t-119 47.5t-42 135.5t42 135.5t119 47.5zM221 720q-30 0 -46.5 -22.5t-16.5 -64.5t16.5 -64.5t46.5 -22.5t46.5 22.5t16.5 64.5t-16.5 64.5t-46.5 22.5z" />
    <glyph glyph-name="ampersand" unicode="&#x26;" 
d="M312 -16q-66 0 -118 28t-82 77t-30 111q0 57 20 99.5t53 74.5t73 57t79.5 47.5t72.5 45t53 49t20 61.5q0 36 -20.5 57t-56.5 21q-37 0 -58.5 -23.5t-21.5 -64.5q0 -25 8 -48.5t22.5 -48t35.5 -53.5l342 -474h-133l-301 417q-26 37 -45.5 71.5t-30 68.5t-10.5 69
q0 57 24 99.5t67.5 66.5t100.5 24q55 0 95.5 -22t63 -62t22.5 -94q0 -51 -19.5 -88.5t-51.5 -67t-70.5 -53.5t-77.5 -47t-71 -48.5t-51.5 -56.5t-19.5 -73q0 -33 15 -58.5t42 -39.5t63 -14q71 0 119.5 34t79 102t47.5 168h110q-15 -93 -46.5 -168.5t-78 -130t-105.5 -84
t-130 -29.5z" />
    <glyph glyph-name="quotesingle" unicode="'" 
d="M313 848h124l-20 -390h-84z" />
    <glyph glyph-name="parenleft" unicode="(" 
d="M600 820q-129 -40 -194.5 -151t-65.5 -289t65.5 -288.5t194.5 -151.5v-100q-122 27 -204.5 97t-124 181t-41.5 262t41.5 262t124 181t204.5 97v-100z" />
    <glyph glyph-name="parenright" unicode=")" 
d="M150 820v100q122 -27 204.5 -97t124 -181t41.5 -262t-41.5 -262t-124 -181t-204.5 -97v100q129 41 194.5 151.5t65.5 288.5t-65.5 289t-194.5 151z" />
    <glyph glyph-name="asterisk" unicode="*" 
d="M502 67l-142 228l15 48l50 -1l174 -205zM248 67l-97 70l174 205l50 1l15 -48zM334 314l-261 64l37 114l249 -102l16 -47zM375 343l-40 30l-20 268h120l-20 -268zM416 314l-41 29l16 47l249 102l37 -114z" />
    <glyph glyph-name="plus" unicode="+" 
d="M325 45v255h-255v100h255v255h100v-255h255v-100h-255v-255h-100z" />
    <glyph glyph-name="comma" unicode="," 
d="M262 -180q39 28 70.5 78t42.5 102v180q56 0 82.5 -30.5t26.5 -93.5q0 -43 -8.5 -87.5t-23 -83t-34.5 -65.5h-156zM375 -8q-47 0 -73 24.5t-26 69.5t26 69.5t73 24.5t73 -24.5t26 -69.5t-26 -69.5t-73 -24.5z" />
    <glyph glyph-name="hyphen" unicode="-" 
d="M70 300v100h610v-100h-610z" />
    <glyph glyph-name="period" unicode="." 
d="M375 -8q-47 0 -73 24.5t-26 69.5t26 69.5t73 24.5t73 -24.5t26 -69.5t-26 -69.5t-73 -24.5z" />
    <glyph glyph-name="slash" unicode="/" 
d="M620 848l-380 -1018h-110l380 1018h110z" />
    <glyph glyph-name="zero" unicode="0" 
d="M375 -16q-156 0 -235.5 105t-79.5 311t79.5 311t235.5 105t235.5 -105t79.5 -311t-79.5 -311t-235.5 -105zM375 92q103 0 152 75.5t49 232.5t-49 232.5t-152 75.5t-152 -75.5t-49 -232.5t49 -232.5t152 -75.5zM141 303l468 317v-123l-468 -317v123z" />
    <glyph glyph-name="one" unicode="1" 
d="M464 800v-692h216v-108h-570v108h240v648l29 -19l-269 -171v121l182 113h172z" />
    <glyph glyph-name="two" unicode="2" 
d="M118 174l312 200q60 38 89 82.5t29 99.5q0 71 -43.5 111.5t-120.5 40.5q-71 0 -115.5 -39.5t-61.5 -112.5h-113q4 79 44 137.5t104.5 90.5t141.5 32q84 0 146.5 -32.5t97 -91t34.5 -136.5q0 -82 -44 -150.5t-130 -121.5l-272 -166v-10h430v-108h-528v174z" />
    <glyph glyph-name="three" unicode="3" 
d="M661 214q0 -68 -36 -120t-98 -81t-142 -29q-88 0 -153 30t-101.5 86.5t-39.5 133.5h112q10 -68 58.5 -105t121.5 -37q48 0 84.5 16t57 45t20.5 67q0 60 -41.5 97t-110.5 37h-108v106h108q71 0 114.5 33.5t43.5 87.5q0 56 -45.5 91.5t-119.5 35.5q-76 0 -125 -39.5
t-64 -112.5h-112q5 81 43.5 139t104.5 89.5t155 31.5q82 0 144.5 -28t97.5 -79t35 -122q0 -64 -37 -109.5t-97 -59.5v-16q59 -16 94.5 -66t35.5 -122z" />
    <glyph glyph-name="four" unicode="4" 
d="M569 800v-460h126v-108h-126v-232h-114v232h-400v155l308 413h206zM155 351v-11h300v452h32z" />
    <glyph glyph-name="five" unicode="5" 
d="M128 800h526v-108h-457l45 43v-249h30q21 21 59.5 33.5t80.5 12.5q76 0 134 -33.5t91 -93.5t33 -141t-36.5 -144t-100 -99.5t-145.5 -36.5q-121 0 -198 61.5t-92 168.5h114q20 -58 63 -90t111 -32q51 0 89.5 21.5t59.5 60.5t21 90q0 52 -20.5 89t-58 57t-89.5 20
q-54 0 -94.5 -21.5t-61.5 -62.5h-104v454z" />
    <glyph glyph-name="six" unicode="6" 
d="M375 -16q-85 0 -152 35t-105 96.5t-38 140.5q0 63 26.5 127.5t85.5 142.5l207 274h131l-207 -269l15 -16q13 3 27.5 5t29.5 2q80 0 142 -34.5t97.5 -94.5t35.5 -137q0 -79 -38 -140.5t-104.5 -96.5t-152.5 -35zM194 256q0 -48 23 -85t63.5 -58t94.5 -21t95 21t63.5 58
t22.5 85q0 49 -22.5 85.5t-63.5 57.5t-95 21t-94.5 -21t-63.5 -57.5t-23 -85.5z" />
    <glyph glyph-name="seven" unicode="7" 
d="M630 612l-314 -612h-126l356 682v10h-446v108h530v-188z" />
    <glyph glyph-name="eight" unicode="8" 
d="M375 460q85 0 133.5 33t48.5 91t-48.5 91t-133.5 33t-133.5 -33t-48.5 -91t48.5 -91t133.5 -33zM83 590q0 68 36.5 119t102.5 79t153 28q88 0 153.5 -28t102 -79t36.5 -119q0 -63 -37 -109.5t-97 -60.5v-16q59 -15 95.5 -66t36.5 -120q0 -70 -36.5 -122.5t-101.5 -82
t-152 -29.5t-152.5 29.5t-101.5 82t-36 122.5q0 69 36.5 120t95.5 66v16q-60 14 -97 60.5t-37 109.5zM199 224q0 -61 47 -96.5t129 -35.5t129 35.5t47 96.5q0 62 -47 97t-129 35t-129 -35t-47 -97z" />
    <glyph glyph-name="nine" unicode="9" 
d="M375 816q86 0 152.5 -35t104.5 -96.5t38 -140.5q0 -63 -26.5 -127.5t-85.5 -142.5l-207 -274h-131l207 269l-15 16q-13 -3 -27.5 -5t-29.5 -2q-80 0 -142 34.5t-97.5 94.5t-35.5 137q0 79 38 140.5t105 96.5t152 35zM556 544q0 49 -22.5 85.5t-63.5 57.5t-95 21
t-94.5 -21t-63.5 -57.5t-23 -85.5q0 -48 23 -85t63.5 -58t94.5 -21t95 21t63.5 58t22.5 85z" />
    <glyph glyph-name="colon" unicode=":" 
d="M375 -8q-47 0 -73 24.5t-26 69.5t26 69.5t73 24.5t73 -24.5t26 -69.5t-26 -69.5t-73 -24.5zM375 420q-47 0 -73 24.5t-26 69.5t26 69.5t73 24.5t73 -24.5t26 -69.5t-26 -69.5t-73 -24.5z" />
    <glyph glyph-name="semicolon" unicode=";" 
d="M375 420q-47 0 -73 24.5t-26 69.5t26 69.5t73 24.5t73 -24.5t26 -69.5t-26 -69.5t-73 -24.5zM262 -180q39 28 70.5 78t42.5 102v180q56 0 82.5 -30.5t26.5 -93.5q0 -43 -8.5 -87.5t-23 -83t-34.5 -65.5h-156zM375 -8q-47 0 -73 24.5t-26 69.5t26 69.5t73 24.5t73 -24.5
t26 -69.5t-26 -69.5t-73 -24.5z" />
    <glyph glyph-name="less" unicode="&#x3c;" 
d="M120 350v85l510 236v-113l-450 -203v-5h-60zM120 350h60v-5l450 -203v-113l-510 236v85z" />
    <glyph glyph-name="equal" unicode="=" 
d="M90 440v100h570v-100h-570zM90 160v100h570v-100h-570z" />
    <glyph glyph-name="greater" unicode="&#x3e;" 
d="M630 350h-60v5l-450 203v113l510 -236v-85zM630 350v-85l-510 -236v113l450 203v5h60z" />
    <glyph glyph-name="question" unicode="?" 
d="M403 230h-108v16q0 52 16.5 87.5t42 61t55 46t55 41.5t42 48t16.5 66q0 32 -18.5 57t-50 40t-70.5 15q-65 0 -107 -34.5t-56 -97.5h-112q15 116 89 178t188 62q73 0 129.5 -29.5t89 -79t32.5 -111.5q0 -56 -17 -93t-43.5 -62t-56 -44.5t-56 -39.5t-43.5 -47.5t-17 -69.5
v-10zM351 -6q-43 0 -66.5 19.5t-23.5 55.5q0 37 23.5 56.5t66.5 19.5t66.5 -19.5t23.5 -56.5q0 -36 -23.5 -55.5t-66.5 -19.5z" />
    <glyph glyph-name="at" unicode="@" 
d="M420 -216q-112 0 -193 62.5t-125 178t-44 275.5t42.5 275.5t121.5 178t188 62.5q125 0 192.5 -75t67.5 -215v-486h-108v34h-30q-29 -50 -96 -50q-76 0 -118 71.5t-42 204.5t42 204.5t118 71.5q67 0 96 -50h30q0 91 -38.5 137.5t-113.5 46.5q-120 0 -185 -106.5
t-65 -303.5q0 -202 68 -311t192 -109q36 0 74.5 9t67.5 27v-94q-29 -19 -67.5 -28.5t-74.5 -9.5zM478 126q47 0 67.5 41.5t20.5 132.5q0 92 -20.5 133t-67.5 41q-46 0 -67 -41t-21 -133q0 -91 21 -132.5t67 -41.5z" />
    <glyph glyph-name="A" unicode="A" 
d="M56 0l226 800h186l226 -800h-120l-197 712h-10l-198 -712h-113zM185 271v108h380v-108h-380z" />
    <glyph glyph-name="B" unicode="B" 
d="M130 0v800h266q125 0 197.5 -58.5t72.5 -159.5q0 -58 -30.5 -100.5t-85.5 -59.5v-16q62 -19 96 -67.5t34 -116.5q0 -103 -76 -162.5t-208 -59.5h-266zM244 106h152q83 0 126.5 32.5t43.5 91.5t-43.5 91.5t-126.5 32.5h-152v-248zM244 454h152q78 0 119 31t41 89t-41 89
t-119 31h-152v-240z" />
    <glyph glyph-name="C" unicode="C" 
d="M395 -16q-154 0 -232.5 104.5t-78.5 311.5t80.5 311.5t240.5 104.5q85 0 147.5 -35t99 -101.5t42.5 -159.5h-106q-15 89 -62 138.5t-121 49.5q-106 0 -156.5 -75.5t-50.5 -232.5t48 -232.5t149 -75.5q71 0 115.5 46t57.5 128h106q-6 -88 -41 -151.5t-95.5 -97
t-142.5 -33.5z" />
    <glyph glyph-name="D" unicode="D" 
d="M100 0v800h240q173 0 261.5 -101.5t88.5 -298.5q0 -196 -88.5 -298t-261.5 -102h-240zM214 108h126q117 0 176.5 73.5t59.5 218.5q0 146 -59.5 219t-176.5 73h-126v-584z" />
    <glyph glyph-name="E" unicode="E" 
d="M150 0v800h510v-108h-396v-239h346v-100h-346v-245h386v-108h-500z" />
    <glyph glyph-name="F" unicode="F" 
d="M170 0v800h510v-108h-396v-251h346v-100h-346v-341h-114z" />
    <glyph glyph-name="G" unicode="G" 
d="M362 -16q-136 0 -212 106.5t-76 309.5q0 206 81 311t238 105q85 0 147 -33.5t98.5 -95t44.5 -147.5h-108q-16 78 -61.5 123t-120.5 45q-104 0 -154.5 -75.5t-50.5 -232.5q0 -160 49.5 -237t152.5 -77q47 0 86.5 28t63 75t23.5 103h-194v108h294v-400h-100v70h-30
q-19 -40 -64.5 -63t-106.5 -23z" />
    <glyph glyph-name="H" unicode="H" 
d="M100 0v800h114v-343h322v343h114v-800h-114v349h-322v-349h-114z" />
    <glyph glyph-name="I" unicode="I" 
d="M100 0v108h218v584h-218v108h550v-108h-218v-584h218v-108h-550z" />
    <glyph glyph-name="J" unicode="J" 
d="M354 -16q-85 0 -146.5 32t-94.5 91.5t-33 142.5v100h112v-90q0 -79 43 -123.5t119 -44.5q77 0 119.5 44.5t42.5 123.5v430h-378v110h492v-550q0 -83 -33.5 -142.5t-95 -91.5t-147.5 -32z" />
    <glyph glyph-name="K" unicode="K" 
d="M150 800h114v-800h-114v800zM542 0l-315 387l333 413h138l-330 -409l318 -391h-144z" />
    <glyph glyph-name="L" unicode="L" 
d="M190 0v800h114v-692h376v-108h-490z" />
    <glyph glyph-name="M" unicode="M" 
d="M80 0v800h186l107 -470h10l107 470h180v-800h-106v500l4 220h-10l-102 -450h-162l-102 450h-10l4 -220v-500h-106z" />
    <glyph glyph-name="N" unicode="N" 
d="M92 0v800h200l252 -730h10l-4 180v550h108v-800h-200l-252 730h-10l4 -180v-550h-108z" />
    <glyph glyph-name="O" unicode="O" 
d="M375 -16q-156 0 -235.5 105t-79.5 311t79.5 311t235.5 105t235.5 -105t79.5 -311t-79.5 -311t-235.5 -105zM375 92q103 0 152 75.5t49 232.5t-49 232.5t-152 75.5t-152 -75.5t-49 -232.5t49 -232.5t152 -75.5z" />
    <glyph glyph-name="P" unicode="P" 
d="M140 0v800h308q77 0 134 -29t88.5 -82t31.5 -125q0 -71 -31.5 -123.5t-88.5 -81.5t-134 -29h-194v-330h-114zM254 434h198q63 0 99.5 34.5t36.5 94.5t-36.5 94.5t-99.5 34.5h-198v-258z" />
    <glyph glyph-name="Q" unicode="Q" 
d="M345 -125v135h60v-40l245 -73v-113zM375 -16q-156 0 -235.5 105t-79.5 311t79.5 311t235.5 105t235.5 -105t79.5 -311t-79.5 -311t-235.5 -105zM375 92q103 0 152 75.5t49 232.5t-49 232.5t-152 75.5t-152 -75.5t-49 -232.5t49 -232.5t152 -75.5z" />
    <glyph glyph-name="R" unicode="R" 
d="M124 0v800h308q77 0 134 -28t88.5 -80t31.5 -123q0 -67 -32 -117t-89 -78.5t-133 -28.5h-194v-345h-114zM574 0l-234 365h126l240 -365h-132zM238 444h196q62 0 100 34.5t38 89.5q0 56 -38 90t-100 34h-196v-248z" />
    <glyph glyph-name="S" unicode="S" 
d="M200 204q17 -54 64 -83t118 -29q78 0 123 35.5t45 96.5q0 48 -31 76.5t-93 35.5l-102 12q-112 14 -169 70.5t-57 155.5q0 73 36 127t101 84.5t151 30.5q85 0 150 -29t103 -82.5t43 -128.5h-110q-16 63 -64.5 97.5t-121.5 34.5q-82 0 -129 -36t-47 -98q0 -48 31.5 -76
t92.5 -36l102 -12q113 -13 169.5 -70t56.5 -156q0 -72 -35 -126t-98 -84t-147 -30q-85 0 -149.5 26.5t-102 76t-42.5 117.5h112z" />
    <glyph glyph-name="T" unicode="T" 
d="M318 0v692h-258v108h630v-108h-258v-692h-114z" />
    <glyph glyph-name="U" unicode="U" 
d="M90 800h114v-510q0 -93 45.5 -145.5t127.5 -52.5t127.5 52.5t45.5 145.5v510h110v-520q0 -144 -73 -220t-212 -76t-212 76t-73 220v520z" />
    <glyph glyph-name="V" unicode="V" 
d="M176 800l197 -712h10l198 712h113l-226 -800h-186l-226 800h120z" />
    <glyph glyph-name="W" unicode="W" 
d="M131 800l77 -600l12 -120h10l67 520h166l63 -520h10l12 120l78 600h100l-111 -800h-168l-65 540h-10l-70 -540h-167l-111 800h107z" />
    <glyph glyph-name="X" unicode="X" 
d="M69 0l218 384l-234 416h131l175 -314l10 -46h11l10 46l179 314h128l-234 -407l218 -393h-133l-157 286l-10 46h-11l-10 -46l-161 -286h-130z" />
    <glyph glyph-name="Y" unicode="Y" 
d="M169 800l194 -327l10 -29h10l10 29l197 327h117l-275 -452v-348h-114v348l-275 452h126z" />
    <glyph glyph-name="Z" unicode="Z" 
d="M110 0v196l456 486v10h-456v108h530v-196l-456 -486v-10h456v-108h-530z" />
    <glyph glyph-name="bracketleft" unicode="[" 
d="M600 900v-100h-222v-840h222v-100h-330v1040h330z" />
    <glyph glyph-name="backslash" unicode="\" 
d="M130 848h110l380 -1018h-110z" />
    <glyph glyph-name="bracketright" unicode="]" 
d="M150 900h330v-1040h-330v100h222v840h-222v100z" />
    <glyph glyph-name="asciicircum" unicode="^" 
d="M126 500l175 316h148l175 -316h-108l-166 307h50l-166 -307h-108z" />
    <glyph glyph-name="underscore" unicode="_" 
d="M70 -150v100h610v-100h-610z" />
    <glyph glyph-name="grave" unicode="`" 
d="M213 848h144l180 -276h-104z" />
    <glyph glyph-name="a" unicode="a" 
d="M530 376v-97l-214 -32q-43 -7 -63 -28.5t-20 -55.5q0 -32 28 -53.5t71 -21.5q52 0 94 23t67 61.5t25 86.5v121q0 63 -39.5 98t-110.5 35q-49 0 -87 -14.5t-62 -41.5t-33 -67h-106q6 70 43.5 120.5t101 78t147.5 27.5q122 0 188 -59t66 -169v-388h-108v60h-30
q-28 -37 -72 -56.5t-106 -19.5q-60 0 -103.5 22t-67 61.5t-23.5 92.5q0 74 49 121.5t140 60.5z" />
    <glyph glyph-name="b" unicode="b" 
d="M416 -16q-54 0 -99.5 21t-66.5 55h-30v-60h-110v848h110v-308h30q21 35 66.5 55.5t99.5 20.5q81 0 142 -39.5t94.5 -110.5t33.5 -166t-33.5 -166t-94.5 -110.5t-142 -39.5zM396 88q84 0 132 57t48 155t-48 155t-132 57t-132 -57t-48 -155t48 -155t132 -57z" />
    <glyph glyph-name="c" unicode="c" 
d="M389 -16q-87 0 -152.5 39t-102 109.5t-36.5 164.5q0 96 37.5 167.5t105.5 111.5t158 40q81 0 141.5 -31t95.5 -86.5t38 -130.5h-101q-13 67 -60 105.5t-118 38.5q-88 0 -137.5 -57.5t-49.5 -157.5q0 -97 48.5 -153t132.5 -56q62 0 106 34t62 92h101q-6 -69 -42.5 -120.5
t-95 -80.5t-131.5 -29z" />
    <glyph glyph-name="d" unicode="d" 
d="M334 -16q-81 0 -141.5 39.5t-94.5 110.5t-34 166t34 166t94.5 110.5t141.5 39.5q54 0 99.5 -20.5t66.5 -55.5h30v308h110v-848h-110v60h-30q-21 -34 -66.5 -55t-99.5 -21zM354 88q84 0 132 57t48 155t-48 155t-132 57t-132 -57t-48 -155t48 -155t132 -57z" />
    <glyph glyph-name="e" unicode="e" 
d="M185 362h400l-37 -57q0 101 -41.5 156t-118.5 55q-84 0 -132 -56.5t-48 -154.5q0 -105 48 -163t136 -58q56 0 99.5 26t72.5 74h104q-15 -60 -54.5 -105t-96.5 -70t-125 -25q-90 0 -155.5 39t-101 111t-35.5 171q0 94 36 163.5t101 108.5t151 39q81 0 140 -37t90.5 -106.5
t31.5 -165.5q0 -11 -0.5 -21.5t-1.5 -21.5h-463v98z" />
    <glyph glyph-name="f" unicode="f" 
d="M396 0h-110v496h-146v104h146v58q0 97 56 151.5t156 54.5q95 0 151.5 -46t62.5 -128h-102q-16 35 -44 53.5t-68 18.5q-48 0 -75 -30t-27 -84v-48h254v-104h-254v-496z" />
    <glyph glyph-name="g" unicode="g" 
d="M646 20q0 -71 -34 -124t-97 -82.5t-151 -29.5q-81 0 -143 24.5t-98 68.5t-39 103h108q17 -45 62.5 -70.5t109.5 -25.5q81 0 126.5 38.5t45.5 107.5v64h-30q-22 -30 -65.5 -48t-92.5 -18q-79 0 -138.5 36.5t-92.5 102.5t-33 153q0 89 33 155.5t92.5 103.5t138.5 37
q50 0 93.5 -19t64.5 -51h30v54h110v-580zM194 320q0 -89 46.5 -140.5t127.5 -51.5t127.5 51.5t46.5 140.5t-46.5 140.5t-127.5 51.5t-127.5 -51.5t-46.5 -140.5z" />
    <glyph glyph-name="h" unicode="h" 
d="M120 0v848h110v-296h30q25 30 65 47t86 17q70 0 121.5 -30t80.5 -84t29 -126v-376h-110v346q0 79 -39 121.5t-112 42.5t-112 -42.5t-39 -121.5v-346h-110z" />
    <glyph glyph-name="i" unicode="i" 
d="M155 600h310v-496h200v-104h-510v104h200v392h-200v104zM402 692q-41 0 -64.5 20.5t-23.5 57.5t23.5 57.5t64.5 20.5t64.5 -20.5t23.5 -57.5t-23.5 -57.5t-64.5 -20.5z" />
    <glyph glyph-name="j" unicode="j" 
d="M145 600h390v-616q0 -96 -55 -148t-157 -52q-96 0 -151.5 44t-62.5 126h104q15 -34 42.5 -52t67.5 -18q48 0 75 29t27 81v502h-280v104zM480 692q-41 0 -64.5 20.5t-23.5 57.5t23.5 57.5t64.5 20.5t64.5 -20.5t23.5 -57.5t-23.5 -57.5t-64.5 -20.5z" />
    <glyph glyph-name="k" unicode="k" 
d="M531 0l-285 292l295 308h145l-293 -304l289 -296h-151zM172 0v848h110v-848h-110z" />
    <glyph glyph-name="l" unicode="l" 
d="M140 848h310v-744h200v-104h-510v104h200v640h-200v104z" />
    <glyph glyph-name="m" unicode="m" 
d="M80 600h110v-48h79l-65 -40q3 48 32 76t76 28q43 0 73 -32.5t37 -85.5l-65 48h128l-60 -34q3 47 35.5 75.5t81.5 28.5q59 0 95.5 -46.5t36.5 -123.5v-446h-110v400q0 46 -16.5 69t-49.5 23t-49.5 -23t-16.5 -69v-400h-110v400q0 46 -16.5 69t-49.5 23t-49.5 -23
t-16.5 -69v-400h-110v600z" />
    <glyph glyph-name="n" unicode="n" 
d="M120 0v600h110v-48h30q25 30 65 47t86 17q70 0 121.5 -30t80.5 -84t29 -126v-376h-110v346q0 79 -39 121.5t-112 42.5t-112 -42.5t-39 -121.5v-346h-110z" />
    <glyph glyph-name="o" unicode="o" 
d="M375 -16q-88 0 -154.5 39.5t-103.5 110.5t-37 166t37 166t103.5 110.5t154.5 39.5q89 0 155 -39.5t103 -110.5t37 -166t-37 -166t-103 -110.5t-155 -39.5zM375 88q86 0 135.5 57t49.5 155t-49.5 155t-135.5 57t-135.5 -57t-49.5 -155t49.5 -155t135.5 -57z" />
    <glyph glyph-name="p" unicode="p" 
d="M110 -200v800h110v-60h30q21 35 66.5 55.5t99.5 20.5q81 0 142 -39.5t94.5 -110.5t33.5 -166t-33.5 -166t-94.5 -110.5t-142 -39.5q-54 0 -99.5 21t-66.5 55h-30v-260h-110zM396 88q84 0 132 57t48 155t-48 155t-132 57t-132 -57t-48 -155t48 -155t132 -57z" />
    <glyph glyph-name="q" unicode="q" 
d="M530 -200v260h-30q-21 -34 -66.5 -55t-99.5 -21q-81 0 -141.5 39.5t-94.5 110.5t-34 166t34 166t94.5 110.5t141.5 39.5q54 0 99.5 -20.5t66.5 -55.5h30v60h110v-800h-110zM354 88q84 0 132 57t48 155t-48 155t-132 57t-132 -57t-48 -155t48 -155t132 -57z" />
    <glyph glyph-name="r" unicode="r" 
d="M100 600h248v-46h30q20 30 53.5 46t76.5 16q80 0 126 -52t46 -144v-80h-114v64q0 108 -94 108q-58 0 -87 -48.5t-29 -143.5v-216h208v-104h-444v104h126v392h-146v104z" />
    <glyph glyph-name="s" unicode="s" 
d="M217 184q15 -46 57.5 -71t109.5 -25q70 0 105 21t35 63q0 26 -28.5 43t-85.5 25l-86 12q-106 15 -155 56.5t-49 117.5q0 90 69 140t193 50q125 0 196.5 -56t75.5 -156h-100q-15 52 -59 80t-115 28q-74 0 -112 -21t-38 -63q0 -26 28.5 -43t85.5 -25l86 -12
q107 -15 155.5 -56.5t48.5 -117.5q0 -60 -30 -102.5t-86 -65t-136 -22.5q-121 0 -191 53t-75 147h101z" />
    <glyph glyph-name="t" unicode="t" 
d="M340 756v-156h294v-104h-294v-296q0 -55 25.5 -83.5t74.5 -28.5q48 0 76 30.5t41 91.5h98q-6 -109 -63 -167.5t-156 -58.5t-152.5 56.5t-53.5 159.5v296h-146v104h146v156h110z" />
    <glyph glyph-name="u" unicode="u" 
d="M630 600v-600h-110v48h-30q-25 -30 -65 -47t-86 -17q-69 0 -121 30t-81 84t-29 126v376h110v-346q0 -79 39 -121.5t112 -42.5t112 42.5t39 121.5v346h110z" />
    <glyph glyph-name="v" unicode="v" 
d="M70 600h120l184 -503h10l183 503h113l-220 -600h-170z" />
    <glyph glyph-name="w" unicode="w" 
d="M151 0l-118 600h116l57 -350l19 -170h10l63 520h164l63 -520h10l18 170l59 350h105l-118 -600h-156l-63 524h-10l-63 -524h-156z" />
    <glyph glyph-name="x" unicode="x" 
d="M90 0l193 285l-205 315h132l150 -230l11 -29h10l11 29l157 230h123l-207 -305l195 -295h-134l-138 208l-11 29h-10l-11 -29l-140 -208h-126z" />
    <glyph glyph-name="y" unicode="y" 
d="M72 600h121l175 -450h73l-33 -100h-121zM680 600l-242 -686q-22 -61 -64 -95.5t-96 -34.5q-80 0 -127 42.5t-53 121.5h100q14 -34 30.5 -49t43.5 -15q25 0 40.5 15t28.5 49l227 652h112z" />
    <glyph glyph-name="z" unicode="z" 
d="M132 600h486v-194l-420 -292v-10h420v-104h-486v194l420 292v10h-420v104z" />
    <glyph glyph-name="braceleft" unicode="{" 
d="M630 820q-97 -7 -140.5 -36.5t-43.5 -85.5q0 -36 10 -69t10 -77q0 -58 -38.5 -102.5t-101.5 -59.5v-10h-126v52q84 12 122 43.5t38 88.5q0 37 -10 68.5t-10 65.5q0 107 71 159t219 55v-92zM630 -60v-92q-148 3 -219 55.5t-71 158.5q0 35 10 66t10 68q0 57 -38 88.5
t-122 43.5v52h126v-10q63 -15 101.5 -59.5t38.5 -102.5q0 -43 -10 -76.5t-10 -69.5q0 -56 43.5 -85t140.5 -37z" />
    <glyph glyph-name="bar" unicode="|" 
d="M328 -60v920h94v-920h-94z" />
    <glyph glyph-name="braceright" unicode="}" 
d="M120 820v92q148 -3 219 -55t71 -159q0 -34 -10 -65.5t-10 -68.5q0 -57 38 -88.5t122 -43.5v-52h-126v10q-63 15 -101.5 59.5t-38.5 102.5q0 44 10 77t10 69q0 56 -43.5 85.5t-140.5 36.5zM120 -60q97 8 140.5 37t43.5 85q0 36 -10 69.5t-10 76.5q0 58 38.5 102.5
t101.5 59.5v10h126v-52q-84 -12 -122 -43.5t-38 -88.5q0 -37 10 -68t10 -66q0 -106 -71 -158.5t-219 -55.5v92z" />
    <glyph glyph-name="asciitilde" unicode="~" 
d="M510 235q-42 0 -74 13.5t-57 33.5t-47 40t-44 33.5t-48 13.5t-43.5 -21t-22.5 -59h-94q9 82 52 129t108 47q42 0 74 -13.5t57 -33.5t47 -40t44 -33.5t48 -13.5t44 21.5t22 58.5h94q-9 -82 -52 -129t-108 -47z" />
    <glyph glyph-name="uni00A0" unicode="&#xa0;" 
 />
    <glyph glyph-name="exclamdown" unicode="&#xa1;" 
d="M432 -198h-114v570h114v-570zM375 608q43 0 66.5 -19.5t23.5 -55.5q0 -37 -23.5 -56.5t-66.5 -19.5t-66.5 19.5t-23.5 56.5q0 36 23.5 55.5t66.5 19.5z" />
    <glyph glyph-name="cent" unicode="&#xa2;" 
d="M347 -100v800h80v-800h-80zM389 -16q-87 0 -152.5 39t-102 109.5t-36.5 164.5q0 96 37.5 167.5t105.5 111.5t158 40q81 0 141.5 -31t95.5 -86.5t38 -130.5h-101q-13 67 -60 105.5t-118 38.5q-88 0 -137.5 -57.5t-49.5 -157.5q0 -97 48.5 -153t132.5 -56q62 0 106 34
t62 92h101q-6 -69 -42.5 -120.5t-95 -80.5t-131.5 -29z" />
    <glyph glyph-name="sterling" unicode="&#xa3;" 
d="M110 0v166q65 8 97.5 38t32.5 82q0 38 -10.5 68.5t-24.5 61t-24.5 67.5t-10.5 87q0 76 33 131t91.5 85t135.5 30q122 0 192.5 -67.5t77.5 -192.5h-110q-12 77 -52 114.5t-108 37.5q-67 0 -107.5 -36.5t-40.5 -95.5q0 -41 10.5 -73.5t24.5 -63t24.5 -64.5t10.5 -79
q0 -75 -35.5 -119.5t-106.5 -56.5v-12h450v-108h-550zM110 320v96h440v-96h-440z" />
    <glyph glyph-name="currency" unicode="&#xa4;" 
d="M375 140q-58 0 -105.5 28.5t-76 76t-28.5 105.5t28.5 105.5t76 76t105.5 28.5t105.5 -28.5t76 -76t28.5 -105.5t-28.5 -105.5t-76 -76t-105.5 -28.5zM177 95l-57 57l85 85l57 -57zM375 230q33 0 60.5 16.5t43.5 43.5t16 60t-16 60.5t-43.5 43.5t-60.5 16t-60 -16
t-43.5 -43.5t-16.5 -60.5t16.5 -60t43.5 -43.5t60 -16.5zM205 463l-85 85l57 57l85 -85zM573 95l-85 85l57 57l85 -85zM545 463l-57 57l85 85l57 -57z" />
    <glyph glyph-name="yen" unicode="&#xa5;" 
d="M125 300v92h500v-92h-500zM125 128v92h500v-92h-500zM169 800l194 -327l10 -29h10l10 29l197 327h117l-275 -452v-348h-114v348l-275 452h126z" />
    <glyph glyph-name="brokenbar" unicode="&#xa6;" 
d="M422 860v-370h-94v370h94zM422 310v-370h-94v370h94z" />
    <glyph glyph-name="section" unicode="&#xa7;" 
d="M510 610q-9 49 -42.5 75.5t-88.5 26.5q-48 0 -79 -21t-31 -55q0 -28 20 -48.5t59 -33.5l116 -37q78 -25 122.5 -80.5t44.5 -126.5q0 -58 -31 -107t-86 -75l-141 42v4h4q64 0 104 35.5t40 90.5t-40 90.5t-104 35.5h-4l-139 44l6 22q-40 26 -60.5 61.5t-20.5 78.5
q0 55 27 96.5t76.5 64.5t116.5 23q105 0 166 -53.5t67 -152.5h-102zM240 -10q9 -49 42.5 -75.5t88.5 -26.5q48 0 79 21t31 55q0 29 -20 49t-59 33l-116 37q-78 25 -122.5 80.5t-44.5 126.5q0 59 31 107.5t86 74.5l141 -42v-4h-4q-64 0 -104 -35.5t-40 -90.5t40 -90.5
t104 -35.5h4l139 -44l-6 -22q40 -25 60.5 -60.5t20.5 -79.5q0 -55 -27 -96.5t-76.5 -64.5t-116.5 -23q-105 0 -166 53.5t-67 152.5h102z" />
    <glyph glyph-name="dieresis" unicode="&#xa8;" 
d="M264 701q-35 0 -54.5 17t-19.5 47t19.5 47t54.5 17t54.5 -17t19.5 -47t-19.5 -47t-54.5 -17zM486 701q-35 0 -54.5 17t-19.5 47t19.5 47t54.5 17t54.5 -17t19.5 -47t-19.5 -47t-54.5 -17z" />
    <glyph glyph-name="copyright" unicode="&#xa9;" 
d="M375 20q-97 0 -168 46t-109 131t-38 203t38 203t109 131t168 46q98 0 168.5 -46t108.5 -131t38 -203t-38 -203t-108.5 -131t-168.5 -46zM375 106q110 0 169.5 76.5t59.5 217.5t-59.5 217.5t-169.5 76.5t-169.5 -76.5t-59.5 -217.5t59.5 -217.5t169.5 -76.5zM536 352
q-4 -76 -45.5 -119.5t-109.5 -43.5q-81 0 -125 55t-44 156q0 102 45 157t127 55q75 0 116 -45.5t44 -130.5h-88q-3 41 -21 62.5t-50 21.5q-37 0 -57 -31t-20 -89q0 -57 19.5 -88t54.5 -31q29 0 46 18.5t20 52.5h88z" />
    <glyph glyph-name="ordfeminine" unicode="&#xaa;" 
d="M339 472q-40 0 -66 26t-26 66q0 41 26 67t73 34l87 15v-65l-72 -12q-13 -2 -20.5 -10t-7.5 -19q0 -13 9 -20.5t24 -7.5q27 0 44.5 18t17.5 42v76q0 26 -13 42.5t-36 16.5q-25 0 -43 -14.5t-24 -38.5h-85q7 61 46.5 95t106.5 34q65 0 99.5 -32.5t34.5 -91.5v-213h-86v32
h-8q-10 -19 -31 -29.5t-50 -10.5z" />
    <glyph glyph-name="guillemotleft" unicode="&#xab;" 
d="M405 52l-250 216v132l250 216v-122l-218 -188v61l218 -188v-127zM595 122l-210 154v116l210 154v-109l-182 -133v65l182 -133v-114z" />
    <glyph glyph-name="logicalnot" unicode="&#xac;" 
d="M570 90v220h-500v100h610v-320h-110z" />
    <glyph glyph-name="uni00AD" unicode="&#xad;" 
d="M70 300v100h610v-100h-610z" />
    <glyph glyph-name="registered" unicode="&#xae;" 
d="M283 737h109q41 0 67 -22t26 -57q0 -34 -26 -55.5t-67 -21.5h-43v-84h-66v240zM349 631h39q30 0 30 26t-30 26h-39v-52zM418 497l-51 100h70l52 -100h-71zM375 389q-64 0 -116.5 30.5t-83 82t-30.5 115.5t30.5 115.5t83 82t116.5 30.5q65 0 117 -30.5t82.5 -82
t30.5 -115.5t-30.5 -115.5t-82.5 -82t-117 -30.5zM375 445q48 0 86.5 23t61 62t22.5 87t-22.5 87t-61 62t-86.5 23q-47 0 -86 -23t-61.5 -62t-22.5 -87t22.5 -87t61.5 -62t86 -23z" />
    <glyph glyph-name="macron" unicode="&#xaf;" 
d="M205 720v90h340v-90h-340z" />
    <glyph glyph-name="degree" unicode="&#xb0;" 
d="M375 456q-51 0 -92.5 24t-65.5 65t-24 91q0 51 24 91.5t65.5 64.5t92.5 24t92 -24t65.5 -64.5t24.5 -91.5q0 -50 -24.5 -91t-65.5 -65t-92 -24zM375 552q23 0 41.5 11t29.5 30.5t11 42.5q0 24 -11 43t-29.5 30t-41.5 11t-41.5 -11t-29.5 -30t-11 -43q0 -23 11 -42.5
t29.5 -30.5t41.5 -11z" />
    <glyph glyph-name="plusminus" unicode="&#xb1;" 
d="M325 160v215h-255v100h255v215h100v-215h255v-100h-255v-215h-100zM70 10v100h610v-100h-610z" />
    <glyph glyph-name="uni00B2" unicode="&#xb2;" 
d="M232 608l176 85q23 11 36.5 31t13.5 43q0 34 -20.5 53t-55.5 19q-32 0 -53.5 -16t-28.5 -45h-86q5 62 51 100.5t117 38.5q75 0 118.5 -40t43.5 -110q0 -47 -27 -84t-80 -63l-185 -87l-4 25h287v-78h-303v128z" />
    <glyph glyph-name="uni00B3" unicode="&#xb3;" 
d="M546 603q0 -38 -21 -68t-57.5 -47t-83.5 -17q-74 0 -121.5 37t-50.5 98h86q5 -26 28 -41.5t57 -15.5t54.5 16t20.5 41q0 26 -19 41t-52 15h-45v74h45q35 0 55 13.5t20 37.5q0 23 -21 37.5t-55 14.5q-36 0 -61 -16t-31 -45h-86q4 62 53.5 100.5t125.5 38.5q47 0 83 -16.5
t57 -44.5t21 -65q0 -31 -19.5 -54.5t-51.5 -31.5v-8q32 -12 50.5 -37t18.5 -57z" />
    <glyph glyph-name="acute" unicode="&#xb4;" 
d="M293 690l104 150h130l-134 -150h-100z" />
    <glyph glyph-name="uni00B5" unicode="&#xb5;" 
d="M340 -16q-60 0 -105 30t-70 84t-25 126l90 30q0 -79 37.5 -122.5t107.5 -43.5t107.5 43.5t37.5 122.5v346h110v-600h-110v50h-14q-27 -31 -70 -48.5t-96 -17.5zM120 -200v800h110v-346v-154h-10l10 -300h-110z" />
    <glyph glyph-name="paragraph" unicode="&#xb6;" 
d="M594 800v-1000h-94v1000h94zM84 520v60q0 64 24.5 113.5t67 78t96.5 28.5h114v-1000h-94v500h-20q-54 0 -96.5 28.5t-67 78t-24.5 113.5z" />
    <glyph glyph-name="periodcentered" unicode="&#xb7;" 
d="M375 306q-47 0 -73 24.5t-26 69.5t26 69.5t73 24.5t73 -24.5t26 -69.5t-26 -69.5t-73 -24.5z" />
    <glyph glyph-name="cedilla" unicode="&#xb8;" 
d="M350 20h88l-18 -58q43 -6 65.5 -28t22.5 -56q0 -44 -37 -69t-103 -25q-61 0 -97 23.5t-39 66.5h84q5 -12 19 -19t35 -7q20 0 31 8.5t11 22.5t-10.5 23t-30.5 10l-47 4z" />
    <glyph glyph-name="uni00B9" unicode="&#xb9;" 
d="M240 480v78h120v327l42 -23l-162 -102v93l89 55h117v-350h106v-78h-312z" />
    <glyph glyph-name="ordmasculine" unicode="&#xba;" 
d="M375 471q-74 0 -119.5 47.5t-45.5 125.5t45.5 125.5t119.5 47.5t119.5 -47.5t45.5 -125.5t-45.5 -125.5t-119.5 -47.5zM375 549q37 0 58 25.5t21 69.5t-21 69.5t-58 25.5t-58 -25.5t-21 -69.5t21 -69.5t58 -25.5z" />
    <glyph glyph-name="guillemotright" unicode="&#xbb;" 
d="M345 616l250 -216v-132l-250 -216v122l218 188v-61l-218 188v127zM155 546l210 -154v-116l-210 -154v109l182 133v-65l-182 133v114z" />
    <glyph glyph-name="onequarter" unicode="&#xbc;" 
d="M701 800l-219 -320h-93l219 320h93zM361 320l-219 -320h-93l219 320h93zM10 372v78h120v327l42 -23l-162 -102v93l89 55h117v-350h106v-78h-312zM654 428v-236h68v-78h-68v-114h-86v114h-214v93l165 221h135zM414 164v28h154v232h41z" />
    <glyph glyph-name="onehalf" unicode="&#xbd;" 
d="M701 800l-219 -320h-93l219 320h93zM361 320l-219 -320h-93l219 320h93zM10 372v78h120v327l42 -23l-162 -102v93l89 55h117v-350h106v-78h-312zM430 128l176 85q23 11 36.5 31t13.5 43q0 34 -20.5 53t-55.5 19q-32 0 -53.5 -16t-28.5 -45h-86q5 62 51 100.5t117 38.5
q75 0 118.5 -40t43.5 -110q0 -47 -27 -84t-80 -63l-185 -87l-4 25h287v-78h-303v128z" />
    <glyph glyph-name="threequarters" unicode="&#xbe;" 
d="M701 800l-219 -320h-93l219 320h93zM361 320l-219 -320h-93l219 320h93zM332 495q0 -38 -21 -68t-57.5 -47t-83.5 -17q-74 0 -121.5 37t-50.5 98h86q5 -26 28 -41.5t57 -15.5t54.5 16t20.5 41q0 26 -19 41t-52 15h-45v74h45q35 0 55 13.5t20 37.5q0 23 -21 37.5t-55 14.5
q-36 0 -61 -16t-31 -45h-86q4 62 53.5 100.5t125.5 38.5q47 0 83 -16.5t57 -44.5t21 -65q0 -31 -19.5 -54.5t-51.5 -31.5v-8q32 -12 50.5 -37t18.5 -57zM654 428v-236h68v-78h-68v-114h-86v114h-214v93l165 221h135zM414 164v28h154v232h41z" />
    <glyph glyph-name="questiondown" unicode="&#xbf;" 
d="M347 372h108v-16q0 -52 -16.5 -87.5t-42 -61t-55 -46t-55 -41.5t-42 -48t-16.5 -66q0 -31 18.5 -56.5t50 -40.5t70.5 -15q65 0 107.5 34.5t55.5 97.5h112q-15 -115 -89 -177.5t-188 -62.5q-73 0 -129.5 29.5t-89 79.5t-32.5 111q0 56 17 93t43.5 62t56 44.5t56 39.5
t43.5 47.5t17 69.5v10zM399 608q43 0 66.5 -19.5t23.5 -55.5q0 -37 -23.5 -56.5t-66.5 -19.5t-66.5 19.5t-23.5 56.5q0 36 23.5 55.5t66.5 19.5z" />
    <glyph glyph-name="Agrave" unicode="&#xc0;" 
d="M56 0l226 800h186l226 -800h-120l-197 712h-10l-198 -712h-113zM185 271v108h380v-108h-380zM425 890h-100l-134 150h130z" />
    <glyph glyph-name="Aacute" unicode="&#xc1;" 
d="M56 0l226 800h186l226 -800h-120l-197 712h-10l-198 -712h-113zM185 271v108h380v-108h-380zM325 890l104 150h130l-134 -150h-100z" />
    <glyph glyph-name="Acircumflex" unicode="&#xc2;" 
d="M56 0l226 800h186l226 -800h-120l-197 712h-10l-198 -712h-113zM185 271v108h380v-108h-380zM202 890l104 150h138l104 -150h-100l-106 119h66l-106 -119h-100z" />
    <glyph glyph-name="Atilde" unicode="&#xc3;" 
d="M56 0l226 800h186l226 -800h-120l-197 712h-10l-198 -712h-113zM185 271v108h380v-108h-380zM187 890q7 77 34.5 111.5t81.5 34.5q40 0 64.5 -12.5t42 -25t37.5 -12.5q14 0 21 13t11 41h84q-7 -76 -34.5 -111t-81.5 -35q-40 0 -64.5 12.5t-42 25t-37.5 12.5
q-13 0 -20.5 -12.5t-11.5 -41.5h-84z" />
    <glyph glyph-name="Adieresis" unicode="&#xc4;" 
d="M56 0l226 800h186l226 -800h-120l-197 712h-10l-198 -712h-113zM185 271v108h380v-108h-380zM264 901q-35 0 -54.5 17t-19.5 47t19.5 47t54.5 17t54.5 -17t19.5 -47t-19.5 -47t-54.5 -17zM486 901q-35 0 -54.5 17t-19.5 47t19.5 47t54.5 17t54.5 -17t19.5 -47t-19.5 -47
t-54.5 -17z" />
    <glyph glyph-name="Aring" unicode="&#xc5;" 
d="M56 0l226 800h186l226 -800h-120l-197 712h-10l-198 -712h-113zM185 271v108h380v-108h-380zM375 868q-58 0 -94 29.5t-36 77.5t36 77.5t94 29.5t94 -29.5t36 -77.5t-36 -77.5t-94 -29.5zM375 924q28 0 45 14.5t17 36.5q0 23 -17 37t-45 14t-45 -14t-17 -37
q0 -22 17 -36.5t45 -14.5z" />
    <glyph glyph-name="AE" unicode="&#xc6;" 
d="M380 0v271h-185v100h185v321h-36l-213 -692h-116l252 800h443v-108h-216v-239h176v-100h-176v-245h206v-108h-320z" />
    <glyph glyph-name="Ccedilla" unicode="&#xc7;" 
d="M395 -16q-154 0 -232.5 104.5t-78.5 311.5t80.5 311.5t240.5 104.5q85 0 147.5 -35t99 -101.5t42.5 -159.5h-106q-15 89 -62 138.5t-121 49.5q-106 0 -156.5 -75.5t-50.5 -232.5t48 -232.5t149 -75.5q71 0 115.5 46t57.5 128h106q-6 -88 -41 -151.5t-95.5 -97
t-142.5 -33.5zM379 20h88l-18 -58q43 -6 65.5 -28t22.5 -56q0 -44 -37 -69t-103 -25q-61 0 -97 23.5t-39 66.5h84q5 -12 19 -19t35 -7q20 0 31 8.5t11 22.5t-10.5 23t-30.5 10l-47 4z" />
    <glyph glyph-name="Egrave" unicode="&#xc8;" 
d="M150 0v800h510v-108h-396v-239h346v-100h-346v-245h386v-108h-500zM496 890h-100l-134 150h130z" />
    <glyph glyph-name="Eacute" unicode="&#xc9;" 
d="M150 0v800h510v-108h-396v-239h346v-100h-346v-245h386v-108h-500zM332 890l104 150h130l-134 -150h-100z" />
    <glyph glyph-name="Ecircumflex" unicode="&#xca;" 
d="M150 0v800h510v-108h-396v-239h346v-100h-346v-245h386v-108h-500zM241 890l104 150h138l104 -150h-100l-106 119h66l-106 -119h-100z" />
    <glyph glyph-name="Edieresis" unicode="&#xcb;" 
d="M150 0v800h510v-108h-396v-239h346v-100h-346v-245h386v-108h-500zM303 901q-35 0 -54.5 17t-19.5 47t19.5 47t54.5 17t54.5 -17t19.5 -47t-19.5 -47t-54.5 -17zM525 901q-35 0 -54.5 17t-19.5 47t19.5 47t54.5 17t54.5 -17t19.5 -47t-19.5 -47t-54.5 -17z" />
    <glyph glyph-name="Igrave" unicode="&#xcc;" 
d="M100 0v108h218v584h-218v108h550v-108h-218v-584h218v-108h-550zM457 890h-100l-134 150h130z" />
    <glyph glyph-name="Iacute" unicode="&#xcd;" 
d="M100 0v108h218v584h-218v108h550v-108h-218v-584h218v-108h-550zM293 890l104 150h130l-134 -150h-100z" />
    <glyph glyph-name="Icircumflex" unicode="&#xce;" 
d="M100 0v108h218v584h-218v108h550v-108h-218v-584h218v-108h-550zM202 890l104 150h138l104 -150h-100l-106 119h66l-106 -119h-100z" />
    <glyph glyph-name="Idieresis" unicode="&#xcf;" 
d="M100 0v108h218v584h-218v108h550v-108h-218v-584h218v-108h-550zM264 901q-35 0 -54.5 17t-19.5 47t19.5 47t54.5 17t54.5 -17t19.5 -47t-19.5 -47t-54.5 -17zM486 901q-35 0 -54.5 17t-19.5 47t19.5 47t54.5 17t54.5 -17t19.5 -47t-19.5 -47t-54.5 -17z" />
    <glyph glyph-name="Eth" unicode="&#xd0;" 
d="M40 347v106h300v-106h-300zM100 0v800h240q173 0 261.5 -101.5t88.5 -298.5q0 -196 -88.5 -298t-261.5 -102h-240zM214 108h126q117 0 176.5 73.5t59.5 218.5q0 146 -59.5 219t-176.5 73h-126v-584z" />
    <glyph glyph-name="Ntilde" unicode="&#xd1;" 
d="M92 0v800h200l252 -730h10l-4 180v550h108v-800h-200l-252 730h-10l4 -180v-550h-108zM187 890q7 77 34.5 111.5t81.5 34.5q40 0 64.5 -12.5t42 -25t37.5 -12.5q14 0 21 13t11 41h84q-7 -76 -34.5 -111t-81.5 -35q-40 0 -64.5 12.5t-42 25t-37.5 12.5q-13 0 -20.5 -12.5
t-11.5 -41.5h-84z" />
    <glyph glyph-name="Ograve" unicode="&#xd2;" 
d="M375 -16q-156 0 -235.5 105t-79.5 311t79.5 311t235.5 105t235.5 -105t79.5 -311t-79.5 -311t-235.5 -105zM375 92q103 0 152 75.5t49 232.5t-49 232.5t-152 75.5t-152 -75.5t-49 -232.5t49 -232.5t152 -75.5zM457 890h-100l-134 150h130z" />
    <glyph glyph-name="Oacute" unicode="&#xd3;" 
d="M375 -16q-156 0 -235.5 105t-79.5 311t79.5 311t235.5 105t235.5 -105t79.5 -311t-79.5 -311t-235.5 -105zM375 92q103 0 152 75.5t49 232.5t-49 232.5t-152 75.5t-152 -75.5t-49 -232.5t49 -232.5t152 -75.5zM293 890l104 150h130l-134 -150h-100z" />
    <glyph glyph-name="Ocircumflex" unicode="&#xd4;" 
d="M375 -16q-156 0 -235.5 105t-79.5 311t79.5 311t235.5 105t235.5 -105t79.5 -311t-79.5 -311t-235.5 -105zM375 92q103 0 152 75.5t49 232.5t-49 232.5t-152 75.5t-152 -75.5t-49 -232.5t49 -232.5t152 -75.5zM202 890l104 150h138l104 -150h-100l-106 119h66l-106 -119
h-100z" />
    <glyph glyph-name="Otilde" unicode="&#xd5;" 
d="M375 -16q-156 0 -235.5 105t-79.5 311t79.5 311t235.5 105t235.5 -105t79.5 -311t-79.5 -311t-235.5 -105zM375 92q103 0 152 75.5t49 232.5t-49 232.5t-152 75.5t-152 -75.5t-49 -232.5t49 -232.5t152 -75.5zM187 890q7 77 34.5 111.5t81.5 34.5q40 0 64.5 -12.5t42 -25
t37.5 -12.5q14 0 21 13t11 41h84q-7 -76 -34.5 -111t-81.5 -35q-40 0 -64.5 12.5t-42 25t-37.5 12.5q-13 0 -20.5 -12.5t-11.5 -41.5h-84z" />
    <glyph glyph-name="Odieresis" unicode="&#xd6;" 
d="M375 -16q-156 0 -235.5 105t-79.5 311t79.5 311t235.5 105t235.5 -105t79.5 -311t-79.5 -311t-235.5 -105zM375 92q103 0 152 75.5t49 232.5t-49 232.5t-152 75.5t-152 -75.5t-49 -232.5t49 -232.5t152 -75.5zM264 901q-35 0 -54.5 17t-19.5 47t19.5 47t54.5 17t54.5 -17
t19.5 -47t-19.5 -47t-54.5 -17zM486 901q-35 0 -54.5 17t-19.5 47t19.5 47t54.5 17t54.5 -17t19.5 -47t-19.5 -47t-54.5 -17z" />
    <glyph glyph-name="multiply" unicode="&#xd7;" 
d="M186 95l-66 66l189 189l-189 189l66 66l189 -189l189 189l66 -66l-189 -189l189 -189l-66 -66l-189 189z" />
    <glyph glyph-name="Oslash" unicode="&#xd8;" 
d="M581 816h109l-521 -832h-109zM375 -16q-156 0 -235.5 105t-79.5 311t79.5 311t235.5 105t235.5 -105t79.5 -311t-79.5 -311t-235.5 -105zM375 92q103 0 152 75.5t49 232.5t-49 232.5t-152 75.5t-152 -75.5t-49 -232.5t49 -232.5t152 -75.5z" />
    <glyph glyph-name="Ugrave" unicode="&#xd9;" 
d="M90 800h114v-510q0 -93 45.5 -145.5t127.5 -52.5t127.5 52.5t45.5 145.5v510h110v-520q0 -144 -73 -220t-212 -76t-212 76t-73 220v520zM457 890h-100l-134 150h130z" />
    <glyph glyph-name="Uacute" unicode="&#xda;" 
d="M90 800h114v-510q0 -93 45.5 -145.5t127.5 -52.5t127.5 52.5t45.5 145.5v510h110v-520q0 -144 -73 -220t-212 -76t-212 76t-73 220v520zM293 890l104 150h130l-134 -150h-100z" />
    <glyph glyph-name="Ucircumflex" unicode="&#xdb;" 
d="M90 800h114v-510q0 -93 45.5 -145.5t127.5 -52.5t127.5 52.5t45.5 145.5v510h110v-520q0 -144 -73 -220t-212 -76t-212 76t-73 220v520zM202 890l104 150h138l104 -150h-100l-106 119h66l-106 -119h-100z" />
    <glyph glyph-name="Udieresis" unicode="&#xdc;" 
d="M90 800h114v-510q0 -93 45.5 -145.5t127.5 -52.5t127.5 52.5t45.5 145.5v510h110v-520q0 -144 -73 -220t-212 -76t-212 76t-73 220v520zM264 901q-35 0 -54.5 17t-19.5 47t19.5 47t54.5 17t54.5 -17t19.5 -47t-19.5 -47t-54.5 -17zM486 901q-35 0 -54.5 17t-19.5 47
t19.5 47t54.5 17t54.5 -17t19.5 -47t-19.5 -47t-54.5 -17z" />
    <glyph glyph-name="Yacute" unicode="&#xdd;" 
d="M169 800l194 -327l10 -29h10l10 29l197 327h117l-275 -452v-348h-114v348l-275 452h126zM293 890l104 150h130l-134 -150h-100z" />
    <glyph glyph-name="Thorn" unicode="&#xde;" 
d="M140 0v800h114v-155h194q77 0 134 -29t88.5 -82t31.5 -125q0 -71 -31.5 -123.5t-88.5 -81.5t-134 -29h-194v-175h-114zM254 279h198q63 0 99.5 34.5t36.5 94.5t-36.5 94.5t-99.5 34.5h-198v-258z" />
    <glyph glyph-name="germandbls" unicode="&#xdf;" 
d="M342 0h88q77 0 134.5 30.5t89.5 85t32 126.5q0 86 -41.5 143.5t-112.5 72.5v18q41 21 64.5 64t23.5 98q0 66 -31.5 117t-86.5 80t-126 29q-124 0 -195 -74t-71 -202v-588h110v578q0 85 41.5 133.5t114.5 48.5q59 0 96.5 -37t37.5 -95q0 -61 -36 -96.5t-98 -35.5h-34v-100
h68q75 0 118.5 -39t43.5 -107q0 -66 -44.5 -106t-117.5 -40h-68v-104z" />
    <glyph glyph-name="agrave" unicode="&#xe0;" 
d="M530 376v-97l-214 -32q-43 -7 -63 -28.5t-20 -55.5q0 -32 28 -53.5t71 -21.5q52 0 94 23t67 61.5t25 86.5v121q0 63 -39.5 98t-110.5 35q-49 0 -87 -14.5t-62 -41.5t-33 -67h-106q6 70 43.5 120.5t101 78t147.5 27.5q122 0 188 -59t66 -169v-388h-108v60h-30
q-28 -37 -72 -56.5t-106 -19.5q-60 0 -103.5 22t-67 61.5t-23.5 92.5q0 74 49 121.5t140 60.5zM454 690h-100l-134 150h130z" />
    <glyph glyph-name="aacute" unicode="&#xe1;" 
d="M530 376v-97l-214 -32q-43 -7 -63 -28.5t-20 -55.5q0 -32 28 -53.5t71 -21.5q52 0 94 23t67 61.5t25 86.5v121q0 63 -39.5 98t-110.5 35q-49 0 -87 -14.5t-62 -41.5t-33 -67h-106q6 70 43.5 120.5t101 78t147.5 27.5q122 0 188 -59t66 -169v-388h-108v60h-30
q-28 -37 -72 -56.5t-106 -19.5q-60 0 -103.5 22t-67 61.5t-23.5 92.5q0 74 49 121.5t140 60.5zM290 690l104 150h130l-134 -150h-100z" />
    <glyph glyph-name="acircumflex" unicode="&#xe2;" 
d="M530 376v-97l-214 -32q-43 -7 -63 -28.5t-20 -55.5q0 -32 28 -53.5t71 -21.5q52 0 94 23t67 61.5t25 86.5v121q0 63 -39.5 98t-110.5 35q-49 0 -87 -14.5t-62 -41.5t-33 -67h-106q6 70 43.5 120.5t101 78t147.5 27.5q122 0 188 -59t66 -169v-388h-108v60h-30
q-28 -37 -72 -56.5t-106 -19.5q-60 0 -103.5 22t-67 61.5t-23.5 92.5q0 74 49 121.5t140 60.5zM199 690l104 150h138l104 -150h-100l-106 119h66l-106 -119h-100z" />
    <glyph glyph-name="atilde" unicode="&#xe3;" 
d="M530 376v-97l-214 -32q-43 -7 -63 -28.5t-20 -55.5q0 -32 28 -53.5t71 -21.5q52 0 94 23t67 61.5t25 86.5v121q0 63 -39.5 98t-110.5 35q-49 0 -87 -14.5t-62 -41.5t-33 -67h-106q6 70 43.5 120.5t101 78t147.5 27.5q122 0 188 -59t66 -169v-388h-108v60h-30
q-28 -37 -72 -56.5t-106 -19.5q-60 0 -103.5 22t-67 61.5t-23.5 92.5q0 74 49 121.5t140 60.5zM184 690q7 77 34.5 111.5t81.5 34.5q40 0 64.5 -12.5t42 -25t37.5 -12.5q14 0 21 13t11 41h84q-7 -76 -34.5 -111t-81.5 -35q-40 0 -64.5 12.5t-42 25t-37.5 12.5
q-13 0 -20.5 -12.5t-11.5 -41.5h-84z" />
    <glyph glyph-name="adieresis" unicode="&#xe4;" 
d="M530 376v-97l-214 -32q-43 -7 -63 -28.5t-20 -55.5q0 -32 28 -53.5t71 -21.5q52 0 94 23t67 61.5t25 86.5v121q0 63 -39.5 98t-110.5 35q-49 0 -87 -14.5t-62 -41.5t-33 -67h-106q6 70 43.5 120.5t101 78t147.5 27.5q122 0 188 -59t66 -169v-388h-108v60h-30
q-28 -37 -72 -56.5t-106 -19.5q-60 0 -103.5 22t-67 61.5t-23.5 92.5q0 74 49 121.5t140 60.5zM261 701q-35 0 -54.5 17t-19.5 47t19.5 47t54.5 17t54.5 -17t19.5 -47t-19.5 -47t-54.5 -17zM483 701q-35 0 -54.5 17t-19.5 47t19.5 47t54.5 17t54.5 -17t19.5 -47t-19.5 -47
t-54.5 -17z" />
    <glyph glyph-name="aring" unicode="&#xe5;" 
d="M530 376v-97l-214 -32q-43 -7 -63 -28.5t-20 -55.5q0 -32 28 -53.5t71 -21.5q52 0 94 23t67 61.5t25 86.5v121q0 63 -39.5 98t-110.5 35q-49 0 -87 -14.5t-62 -41.5t-33 -67h-106q6 70 43.5 120.5t101 78t147.5 27.5q122 0 188 -59t66 -169v-388h-108v60h-30
q-28 -37 -72 -56.5t-106 -19.5q-60 0 -103.5 22t-67 61.5t-23.5 92.5q0 74 49 121.5t140 60.5zM372 668q-58 0 -94 29.5t-36 77.5t36 77.5t94 29.5t94 -29.5t36 -77.5t-36 -77.5t-94 -29.5zM372 724q28 0 45 14.5t17 36.5q0 23 -17 37t-45 14t-45 -14t-17 -37
q0 -22 17 -36.5t45 -14.5z" />
    <glyph glyph-name="ae" unicode="&#xe6;" 
d="M540 -16q-98 0 -148 78t-50 243q0 160 47 235.5t147 75.5q60 0 99 -33.5t58 -101.5t19 -174q0 -11 -0.5 -21.5t-1.5 -21.5h-300v98h237l-37 -57q0 77 -8 123t-25.5 67t-46.5 21q-32 0 -53 -22.5t-31 -69.5t-10 -119q0 -75 10.5 -124t32.5 -73t55 -24q34 0 56.5 24.5
t33.5 75.5h102q-11 -97 -60.5 -148.5t-125.5 -51.5zM342 376v-97l-110 -32q-40 -11 -58.5 -33t-18.5 -56q0 -31 19.5 -50.5t51.5 -19.5q48 0 77 38.5t29 102.5v151q0 68 -22.5 100.5t-67.5 32.5t-72.5 -30t-41.5 -93h-104q11 109 68 167.5t154 58.5q87 0 133.5 -59.5
t46.5 -168.5v-288l-24 -30h-40q-25 -44 -62.5 -65t-93.5 -21q-76 0 -122 45.5t-46 120.5q0 72 44.5 119t138.5 73z" />
    <glyph glyph-name="ccedilla" unicode="&#xe7;" 
d="M389 -16q-87 0 -152.5 39t-102 109.5t-36.5 164.5q0 96 37.5 167.5t105.5 111.5t158 40q81 0 141.5 -31t95.5 -86.5t38 -130.5h-101q-13 67 -60 105.5t-118 38.5q-88 0 -137.5 -57.5t-49.5 -157.5q0 -97 48.5 -153t132.5 -56q62 0 106 34t62 92h101q-6 -69 -42.5 -120.5
t-95 -80.5t-131.5 -29zM373 20h88l-18 -58q43 -6 65.5 -28t22.5 -56q0 -44 -37 -69t-103 -25q-61 0 -97 23.5t-39 66.5h84q5 -12 19 -19t35 -7q20 0 31 8.5t11 22.5t-10.5 23t-30.5 10l-47 4z" />
    <glyph glyph-name="egrave" unicode="&#xe8;" 
d="M185 362h400l-37 -57q0 101 -41.5 156t-118.5 55q-84 0 -132 -56.5t-48 -154.5q0 -105 48 -163t136 -58q56 0 99.5 26t72.5 74h104q-15 -60 -54.5 -105t-96.5 -70t-125 -25q-90 0 -155.5 39t-101 111t-35.5 171q0 94 36 163.5t101 108.5t151 39q81 0 140 -37t90.5 -106.5
t31.5 -165.5q0 -11 -0.5 -21.5t-1.5 -21.5h-463v98zM466 690h-100l-134 150h130z" />
    <glyph glyph-name="eacute" unicode="&#xe9;" 
d="M185 362h400l-37 -57q0 101 -41.5 156t-118.5 55q-84 0 -132 -56.5t-48 -154.5q0 -105 48 -163t136 -58q56 0 99.5 26t72.5 74h104q-15 -60 -54.5 -105t-96.5 -70t-125 -25q-90 0 -155.5 39t-101 111t-35.5 171q0 94 36 163.5t101 108.5t151 39q81 0 140 -37t90.5 -106.5
t31.5 -165.5q0 -11 -0.5 -21.5t-1.5 -21.5h-463v98zM302 690l104 150h130l-134 -150h-100z" />
    <glyph glyph-name="ecircumflex" unicode="&#xea;" 
d="M185 362h400l-37 -57q0 101 -41.5 156t-118.5 55q-84 0 -132 -56.5t-48 -154.5q0 -105 48 -163t136 -58q56 0 99.5 26t72.5 74h104q-15 -60 -54.5 -105t-96.5 -70t-125 -25q-90 0 -155.5 39t-101 111t-35.5 171q0 94 36 163.5t101 108.5t151 39q81 0 140 -37t90.5 -106.5
t31.5 -165.5q0 -11 -0.5 -21.5t-1.5 -21.5h-463v98zM211 690l104 150h138l104 -150h-100l-106 119h66l-106 -119h-100z" />
    <glyph glyph-name="edieresis" unicode="&#xeb;" 
d="M185 362h400l-37 -57q0 101 -41.5 156t-118.5 55q-84 0 -132 -56.5t-48 -154.5q0 -105 48 -163t136 -58q56 0 99.5 26t72.5 74h104q-15 -60 -54.5 -105t-96.5 -70t-125 -25q-90 0 -155.5 39t-101 111t-35.5 171q0 94 36 163.5t101 108.5t151 39q81 0 140 -37t90.5 -106.5
t31.5 -165.5q0 -11 -0.5 -21.5t-1.5 -21.5h-463v98zM273 701q-35 0 -54.5 17t-19.5 47t19.5 47t54.5 17t54.5 -17t19.5 -47t-19.5 -47t-54.5 -17zM495 701q-35 0 -54.5 17t-19.5 47t19.5 47t54.5 17t54.5 -17t19.5 -47t-19.5 -47t-54.5 -17z" />
    <glyph glyph-name="igrave" unicode="&#xec;" 
d="M155 600h310v-496h200v-104h-510v104h200v392h-200v104zM452 690h-100l-134 150h130z" />
    <glyph glyph-name="iacute" unicode="&#xed;" 
d="M155 600h310v-496h200v-104h-510v104h200v392h-200v104zM352 690l104 150h130l-134 -150h-100z" />
    <glyph glyph-name="icircumflex" unicode="&#xee;" 
d="M155 600h310v-496h200v-104h-510v104h200v392h-200v104zM229 690l104 150h138l104 -150h-100l-106 119h66l-106 -119h-100z" />
    <glyph glyph-name="idieresis" unicode="&#xef;" 
d="M155 600h310v-496h200v-104h-510v104h200v392h-200v104zM291 701q-35 0 -54.5 17t-19.5 47t19.5 47t54.5 17t54.5 -17t19.5 -47t-19.5 -47t-54.5 -17zM513 701q-35 0 -54.5 17t-19.5 47t19.5 47t54.5 17t54.5 -17t19.5 -47t-19.5 -47t-54.5 -17z" />
    <glyph glyph-name="eth" unicode="&#xf0;" 
d="M365 -16q-85 0 -149.5 39.5t-100 110.5t-35.5 166q0 93 37.5 162t102 107.5t145.5 38.5q25 0 48.5 -4t40.5 -13l12 11q-36 51 -101 108.5t-139 103.5l89 60q80 -53 145 -119.5t112 -140t72.5 -149t25.5 -147.5q0 -103 -37 -178t-105 -115.5t-163 -40.5zM190 300
q0 -98 49.5 -155t135.5 -57t135.5 57t49.5 155t-49.5 155t-135.5 57q-57 0 -98.5 -25.5t-64 -73t-22.5 -113.5zM176 710l388 107l19 -77l-388 -107z" />
    <glyph glyph-name="ntilde" unicode="&#xf1;" 
d="M120 0v600h110v-48h30q25 30 65 47t86 17q70 0 121.5 -30t80.5 -84t29 -126v-376h-110v346q0 79 -39 121.5t-112 42.5t-112 -42.5t-39 -121.5v-346h-110zM187 690q7 77 34.5 111.5t81.5 34.5q40 0 64.5 -12.5t42 -25t37.5 -12.5q14 0 21 13t11 41h84q-7 -76 -34.5 -111
t-81.5 -35q-40 0 -64.5 12.5t-42 25t-37.5 12.5q-13 0 -20.5 -12.5t-11.5 -41.5h-84z" />
    <glyph glyph-name="ograve" unicode="&#xf2;" 
d="M375 -16q-88 0 -154.5 39.5t-103.5 110.5t-37 166t37 166t103.5 110.5t154.5 39.5q89 0 155 -39.5t103 -110.5t37 -166t-37 -166t-103 -110.5t-155 -39.5zM375 88q86 0 135.5 57t49.5 155t-49.5 155t-135.5 57t-135.5 -57t-49.5 -155t49.5 -155t135.5 -57zM457 690h-100
l-134 150h130z" />
    <glyph glyph-name="oacute" unicode="&#xf3;" 
d="M375 -16q-88 0 -154.5 39.5t-103.5 110.5t-37 166t37 166t103.5 110.5t154.5 39.5q89 0 155 -39.5t103 -110.5t37 -166t-37 -166t-103 -110.5t-155 -39.5zM375 88q86 0 135.5 57t49.5 155t-49.5 155t-135.5 57t-135.5 -57t-49.5 -155t49.5 -155t135.5 -57zM293 690
l104 150h130l-134 -150h-100z" />
    <glyph glyph-name="ocircumflex" unicode="&#xf4;" 
d="M375 -16q-88 0 -154.5 39.5t-103.5 110.5t-37 166t37 166t103.5 110.5t154.5 39.5q89 0 155 -39.5t103 -110.5t37 -166t-37 -166t-103 -110.5t-155 -39.5zM375 88q86 0 135.5 57t49.5 155t-49.5 155t-135.5 57t-135.5 -57t-49.5 -155t49.5 -155t135.5 -57zM202 690
l104 150h138l104 -150h-100l-106 119h66l-106 -119h-100z" />
    <glyph glyph-name="otilde" unicode="&#xf5;" 
d="M375 -16q-88 0 -154.5 39.5t-103.5 110.5t-37 166t37 166t103.5 110.5t154.5 39.5q89 0 155 -39.5t103 -110.5t37 -166t-37 -166t-103 -110.5t-155 -39.5zM375 88q86 0 135.5 57t49.5 155t-49.5 155t-135.5 57t-135.5 -57t-49.5 -155t49.5 -155t135.5 -57zM187 690
q7 77 34.5 111.5t81.5 34.5q40 0 64.5 -12.5t42 -25t37.5 -12.5q14 0 21 13t11 41h84q-7 -76 -34.5 -111t-81.5 -35q-40 0 -64.5 12.5t-42 25t-37.5 12.5q-13 0 -20.5 -12.5t-11.5 -41.5h-84z" />
    <glyph glyph-name="odieresis" unicode="&#xf6;" 
d="M375 -16q-88 0 -154.5 39.5t-103.5 110.5t-37 166t37 166t103.5 110.5t154.5 39.5q89 0 155 -39.5t103 -110.5t37 -166t-37 -166t-103 -110.5t-155 -39.5zM375 88q86 0 135.5 57t49.5 155t-49.5 155t-135.5 57t-135.5 -57t-49.5 -155t49.5 -155t135.5 -57zM264 701
q-35 0 -54.5 17t-19.5 47t19.5 47t54.5 17t54.5 -17t19.5 -47t-19.5 -47t-54.5 -17zM486 701q-35 0 -54.5 17t-19.5 47t19.5 47t54.5 17t54.5 -17t19.5 -47t-19.5 -47t-54.5 -17z" />
    <glyph glyph-name="divide" unicode="&#xf7;" 
d="M70 300v100h610v-100h-610zM375 490q-41 0 -64.5 20.5t-23.5 57.5t23.5 57.5t64.5 20.5t64.5 -20.5t23.5 -57.5t-23.5 -57.5t-64.5 -20.5zM375 54q-41 0 -64.5 20.5t-23.5 57.5t23.5 57.5t64.5 20.5t64.5 -20.5t23.5 -57.5t-23.5 -57.5t-64.5 -20.5z" />
    <glyph glyph-name="oslash" unicode="&#xf8;" 
d="M559 616h111l-479 -632h-111zM375 -16q-88 0 -154.5 39.5t-103.5 110.5t-37 166t37 166t103.5 110.5t154.5 39.5q89 0 155 -39.5t103 -110.5t37 -166t-37 -166t-103 -110.5t-155 -39.5zM375 88q86 0 135.5 57t49.5 155t-49.5 155t-135.5 57t-135.5 -57t-49.5 -155
t49.5 -155t135.5 -57z" />
    <glyph glyph-name="ugrave" unicode="&#xf9;" 
d="M630 600v-600h-110v48h-30q-25 -30 -65 -47t-86 -17q-69 0 -121 30t-81 84t-29 126v376h110v-346q0 -79 39 -121.5t112 -42.5t112 42.5t39 121.5v346h110zM457 690h-100l-134 150h130z" />
    <glyph glyph-name="uacute" unicode="&#xfa;" 
d="M630 600v-600h-110v48h-30q-25 -30 -65 -47t-86 -17q-69 0 -121 30t-81 84t-29 126v376h110v-346q0 -79 39 -121.5t112 -42.5t112 42.5t39 121.5v346h110zM293 690l104 150h130l-134 -150h-100z" />
    <glyph glyph-name="ucircumflex" unicode="&#xfb;" 
d="M630 600v-600h-110v48h-30q-25 -30 -65 -47t-86 -17q-69 0 -121 30t-81 84t-29 126v376h110v-346q0 -79 39 -121.5t112 -42.5t112 42.5t39 121.5v346h110zM202 690l104 150h138l104 -150h-100l-106 119h66l-106 -119h-100z" />
    <glyph glyph-name="udieresis" unicode="&#xfc;" 
d="M630 600v-600h-110v48h-30q-25 -30 -65 -47t-86 -17q-69 0 -121 30t-81 84t-29 126v376h110v-346q0 -79 39 -121.5t112 -42.5t112 42.5t39 121.5v346h110zM264 701q-35 0 -54.5 17t-19.5 47t19.5 47t54.5 17t54.5 -17t19.5 -47t-19.5 -47t-54.5 -17zM486 701
q-35 0 -54.5 17t-19.5 47t19.5 47t54.5 17t54.5 -17t19.5 -47t-19.5 -47t-54.5 -17z" />
    <glyph glyph-name="yacute" unicode="&#xfd;" 
d="M72 600h121l175 -450h73l-33 -100h-121zM680 600l-242 -686q-22 -61 -64 -95.5t-96 -34.5q-80 0 -127 42.5t-53 121.5h100q14 -34 30.5 -49t43.5 -15q25 0 40.5 15t28.5 49l227 652h112zM296 690l104 150h130l-134 -150h-100z" />
    <glyph glyph-name="thorn" unicode="&#xfe;" 
d="M416 -16q-54 0 -99.5 21t-66.5 55h-30v-260h-110v1048h110v-308h30q21 35 66.5 55.5t99.5 20.5q81 0 142 -39.5t94.5 -110.5t33.5 -166t-33.5 -166t-94.5 -110.5t-142 -39.5zM216 300q0 -98 48 -155t132 -57t132 57t48 155t-48 155t-132 57t-132 -57t-48 -155z" />
    <glyph glyph-name="ydieresis" unicode="&#xff;" 
d="M72 600h121l175 -450h73l-33 -100h-121zM680 600l-242 -686q-22 -61 -64 -95.5t-96 -34.5q-80 0 -127 42.5t-53 121.5h100q14 -34 30.5 -49t43.5 -15q25 0 40.5 15t28.5 49l227 652h112zM267 701q-35 0 -54.5 17t-19.5 47t19.5 47t54.5 17t54.5 -17t19.5 -47t-19.5 -47
t-54.5 -17zM489 701q-35 0 -54.5 17t-19.5 47t19.5 47t54.5 17t54.5 -17t19.5 -47t-19.5 -47t-54.5 -17z" />
    <glyph glyph-name="Amacron" unicode="&#x100;" 
d="M56 0l226 800h186l226 -800h-120l-197 712h-10l-198 -712h-113zM185 271v108h380v-108h-380zM205 920v90h340v-90h-340z" />
    <glyph glyph-name="amacron" unicode="&#x101;" 
d="M530 376v-97l-214 -32q-43 -7 -63 -28.5t-20 -55.5q0 -32 28 -53.5t71 -21.5q52 0 94 23t67 61.5t25 86.5v121q0 63 -39.5 98t-110.5 35q-49 0 -87 -14.5t-62 -41.5t-33 -67h-106q6 70 43.5 120.5t101 78t147.5 27.5q122 0 188 -59t66 -169v-388h-108v60h-30
q-28 -37 -72 -56.5t-106 -19.5q-60 0 -103.5 22t-67 61.5t-23.5 92.5q0 74 49 121.5t140 60.5zM202 720v90h340v-90h-340z" />
    <glyph glyph-name="Abreve" unicode="&#x102;" 
d="M56 0l226 800h186l226 -800h-120l-197 712h-10l-198 -712h-113zM185 271v108h380v-108h-380zM293 1030q3 -37 24 -55.5t58 -18.5q38 0 58.5 18.5t23.5 55.5h100q-7 -74 -52.5 -112t-129.5 -38t-129.5 38t-52.5 112h100z" />
    <glyph glyph-name="abreve" unicode="&#x103;" 
d="M530 376v-97l-214 -32q-43 -7 -63 -28.5t-20 -55.5q0 -32 28 -53.5t71 -21.5q52 0 94 23t67 61.5t25 86.5v121q0 63 -39.5 98t-110.5 35q-49 0 -87 -14.5t-62 -41.5t-33 -67h-106q6 70 43.5 120.5t101 78t147.5 27.5q122 0 188 -59t66 -169v-388h-108v60h-30
q-28 -37 -72 -56.5t-106 -19.5q-60 0 -103.5 22t-67 61.5t-23.5 92.5q0 74 49 121.5t140 60.5zM290 830q3 -37 24 -55.5t58 -18.5q38 0 58.5 18.5t23.5 55.5h100q-7 -74 -52.5 -112t-129.5 -38t-129.5 38t-52.5 112h100z" />
    <glyph glyph-name="Aogonek" unicode="&#x104;" 
d="M56 0l226 800h186l226 -800h-120l-197 712h-10l-198 -712h-113zM185 271v108h380v-108h-380zM638 -216q-58 0 -92 26t-34 72q0 33 20.5 64.5t55.5 53.5l50 2l56 -2q-38 -18 -60 -43t-22 -51q0 -19 13 -30.5t35 -11.5q11 0 18 1t16 3v-78q-12 -3 -25 -4.5t-31 -1.5z" />
    <glyph glyph-name="aogonek" unicode="&#x105;" 
d="M530 376v-97l-214 -32q-43 -7 -63 -28.5t-20 -55.5q0 -32 28 -53.5t71 -21.5q52 0 94 23t67 61.5t25 86.5v121q0 63 -39.5 98t-110.5 35q-49 0 -87 -14.5t-62 -41.5t-33 -67h-106q6 70 43.5 120.5t101 78t147.5 27.5q122 0 188 -59t66 -169v-388h-108v60h-30
q-28 -37 -72 -56.5t-106 -19.5q-60 0 -103.5 22t-67 61.5t-23.5 92.5q0 74 49 121.5t140 60.5zM570 -216q-58 0 -92 26t-34 72q0 33 20.5 64.5t55.5 53.5l50 2l56 -2q-38 -18 -60 -43t-22 -51q0 -19 13 -30.5t35 -11.5q11 0 18 1t16 3v-78q-12 -3 -25 -4.5t-31 -1.5z" />
    <glyph glyph-name="Cacute" unicode="&#x106;" 
d="M395 -16q-154 0 -232.5 104.5t-78.5 311.5t80.5 311.5t240.5 104.5q85 0 147.5 -35t99 -101.5t42.5 -159.5h-106q-15 89 -62 138.5t-121 49.5q-106 0 -156.5 -75.5t-50.5 -232.5t48 -232.5t149 -75.5q71 0 115.5 46t57.5 128h106q-6 -88 -41 -151.5t-95.5 -97
t-142.5 -33.5zM322 890l104 150h130l-134 -150h-100z" />
    <glyph glyph-name="cacute" unicode="&#x107;" 
d="M389 -16q-87 0 -152.5 39t-102 109.5t-36.5 164.5q0 96 37.5 167.5t105.5 111.5t158 40q81 0 141.5 -31t95.5 -86.5t38 -130.5h-101q-13 67 -60 105.5t-118 38.5q-88 0 -137.5 -57.5t-49.5 -157.5q0 -97 48.5 -153t132.5 -56q62 0 106 34t62 92h101q-6 -69 -42.5 -120.5
t-95 -80.5t-131.5 -29zM316 690l104 150h130l-134 -150h-100z" />
    <glyph glyph-name="Cdotaccent" unicode="&#x10a;" 
d="M395 -16q-154 0 -232.5 104.5t-78.5 311.5t80.5 311.5t240.5 104.5q85 0 147.5 -35t99 -101.5t42.5 -159.5h-106q-15 89 -62 138.5t-121 49.5q-106 0 -156.5 -75.5t-50.5 -232.5t48 -232.5t149 -75.5q71 0 115.5 46t57.5 128h106q-6 -88 -41 -151.5t-95.5 -97
t-142.5 -33.5zM404 892q-41 0 -64.5 20.5t-23.5 57.5t23.5 57.5t64.5 20.5t64.5 -20.5t23.5 -57.5t-23.5 -57.5t-64.5 -20.5z" />
    <glyph glyph-name="cdotaccent" unicode="&#x10b;" 
d="M389 -16q-87 0 -152.5 39t-102 109.5t-36.5 164.5q0 96 37.5 167.5t105.5 111.5t158 40q81 0 141.5 -31t95.5 -86.5t38 -130.5h-101q-13 67 -60 105.5t-118 38.5q-88 0 -137.5 -57.5t-49.5 -157.5q0 -97 48.5 -153t132.5 -56q62 0 106 34t62 92h101q-6 -69 -42.5 -120.5
t-95 -80.5t-131.5 -29zM398 692q-41 0 -64.5 20.5t-23.5 57.5t23.5 57.5t64.5 20.5t64.5 -20.5t23.5 -57.5t-23.5 -57.5t-64.5 -20.5z" />
    <glyph glyph-name="Ccaron" unicode="&#x10c;" 
d="M395 -16q-154 0 -232.5 104.5t-78.5 311.5t80.5 311.5t240.5 104.5q85 0 147.5 -35t99 -101.5t42.5 -159.5h-106q-15 89 -62 138.5t-121 49.5q-106 0 -156.5 -75.5t-50.5 -232.5t48 -232.5t149 -75.5q71 0 115.5 46t57.5 128h106q-6 -88 -41 -151.5t-95.5 -97
t-142.5 -33.5zM577 1040l-104 -150h-138l-104 150h100l106 -119h-66l106 119h100z" />
    <glyph glyph-name="ccaron" unicode="&#x10d;" 
d="M389 -16q-87 0 -152.5 39t-102 109.5t-36.5 164.5q0 96 37.5 167.5t105.5 111.5t158 40q81 0 141.5 -31t95.5 -86.5t38 -130.5h-101q-13 67 -60 105.5t-118 38.5q-88 0 -137.5 -57.5t-49.5 -157.5q0 -97 48.5 -153t132.5 -56q62 0 106 34t62 92h101q-6 -69 -42.5 -120.5
t-95 -80.5t-131.5 -29zM571 840l-104 -150h-138l-104 150h100l106 -119h-66l106 119h100z" />
    <glyph glyph-name="Dcaron" unicode="&#x10e;" 
d="M100 0v800h240q173 0 261.5 -101.5t88.5 -298.5q0 -196 -88.5 -298t-261.5 -102h-240zM214 108h126q117 0 176.5 73.5t59.5 218.5q0 146 -59.5 219t-176.5 73h-126v-584zM528 1040l-104 -150h-138l-104 150h100l106 -119h-66l106 119h100z" />
    <glyph glyph-name="dcaron" unicode="&#x10f;" 
d="M314 -16q-81 0 -139 38t-89.5 109t-31.5 169t31.5 169t89.5 109t139 38q54 0 93.5 -19t62.5 -57h30v308h110v-848h-110v60h-30q-23 -37 -62.5 -56.5t-93.5 -19.5zM504 300q0 102 -44 157t-126 55t-126 -55t-44 -157t44 -157t126 -55t126 55t44 157zM680 648l40 200h110
l-60 -200h-90z" />
    <glyph glyph-name="Dcroat" unicode="&#x110;" 
d="M40 347v106h300v-106h-300zM100 0v800h240q173 0 261.5 -101.5t88.5 -298.5q0 -196 -88.5 -298t-261.5 -102h-240zM214 108h126q117 0 176.5 73.5t59.5 218.5q0 146 -59.5 219t-176.5 73h-126v-584z" />
    <glyph glyph-name="dcroat" unicode="&#x111;" 
d="M370 678v90h360v-90h-360zM334 -16q-81 0 -141.5 39.5t-94.5 110.5t-34 166t34 166t94.5 110.5t141.5 39.5q54 0 99.5 -20.5t66.5 -55.5h30v308h110v-848h-110v60h-30q-21 -34 -66.5 -55t-99.5 -21zM354 88q84 0 132 57t48 155t-48 155t-132 57t-132 -57t-48 -155
t48 -155t132 -57z" />
    <glyph glyph-name="Emacron" unicode="&#x112;" 
d="M150 0v800h510v-108h-396v-239h346v-100h-346v-245h386v-108h-500zM244 920v90h340v-90h-340z" />
    <glyph glyph-name="emacron" unicode="&#x113;" 
d="M185 362h400l-37 -57q0 101 -41.5 156t-118.5 55q-84 0 -132 -56.5t-48 -154.5q0 -105 48 -163t136 -58q56 0 99.5 26t72.5 74h104q-15 -60 -54.5 -105t-96.5 -70t-125 -25q-90 0 -155.5 39t-101 111t-35.5 171q0 94 36 163.5t101 108.5t151 39q81 0 140 -37t90.5 -106.5
t31.5 -165.5q0 -11 -0.5 -21.5t-1.5 -21.5h-463v98zM214 720v90h340v-90h-340z" />
    <glyph glyph-name="Edotaccent" unicode="&#x116;" 
d="M150 0v800h510v-108h-396v-239h346v-100h-346v-245h386v-108h-500zM414 892q-41 0 -64.5 20.5t-23.5 57.5t23.5 57.5t64.5 20.5t64.5 -20.5t23.5 -57.5t-23.5 -57.5t-64.5 -20.5z" />
    <glyph glyph-name="edotaccent" unicode="&#x117;" 
d="M185 362h400l-37 -57q0 101 -41.5 156t-118.5 55q-84 0 -132 -56.5t-48 -154.5q0 -105 48 -163t136 -58q56 0 99.5 26t72.5 74h104q-15 -60 -54.5 -105t-96.5 -70t-125 -25q-90 0 -155.5 39t-101 111t-35.5 171q0 94 36 163.5t101 108.5t151 39q81 0 140 -37t90.5 -106.5
t31.5 -165.5q0 -11 -0.5 -21.5t-1.5 -21.5h-463v98zM384 692q-41 0 -64.5 20.5t-23.5 57.5t23.5 57.5t64.5 20.5t64.5 -20.5t23.5 -57.5t-23.5 -57.5t-64.5 -20.5z" />
    <glyph glyph-name="Eogonek" unicode="&#x118;" 
d="M150 0v800h510v-108h-396v-239h346v-100h-346v-245h386v-108h-500zM584 -216q-58 0 -92 26t-34 72q0 33 20.5 64.5t55.5 53.5l50 2l56 -2q-38 -18 -60 -43t-22 -51q0 -19 13 -30.5t35 -11.5q11 0 18 1t16 3v-78q-12 -3 -25 -4.5t-31 -1.5z" />
    <glyph glyph-name="eogonek" unicode="&#x119;" 
d="M185 362h400l-37 -57q0 101 -41.5 156t-118.5 55q-84 0 -132 -56.5t-48 -154.5q0 -105 48 -163t136 -58q56 0 99.5 26t72.5 74h104q-15 -60 -54.5 -105t-96.5 -70t-125 -25q-90 0 -155.5 39t-101 111t-35.5 171q0 94 36 163.5t101 108.5t151 39q81 0 140 -37t90.5 -106.5
t31.5 -165.5q0 -11 -0.5 -21.5t-1.5 -21.5h-463v98zM545 -216q-58 0 -92 26t-34 72q0 35 24.5 74.5t66.5 73.5l158 154q-6 -31 -28 -70t-54 -75q-31 -34 -49 -63.5t-18 -59.5q0 -24 14 -38t38 -14q8 0 15.5 1t14.5 3v-78q-12 -3 -25 -4.5t-31 -1.5z" />
    <glyph glyph-name="Ecaron" unicode="&#x11a;" 
d="M150 0v800h510v-108h-396v-239h346v-100h-346v-245h386v-108h-500zM587 1040l-104 -150h-138l-104 150h100l106 -119h-66l106 119h100z" />
    <glyph glyph-name="ecaron" unicode="&#x11b;" 
d="M185 362h400l-37 -57q0 101 -41.5 156t-118.5 55q-84 0 -132 -56.5t-48 -154.5q0 -105 48 -163t136 -58q56 0 99.5 26t72.5 74h104q-15 -60 -54.5 -105t-96.5 -70t-125 -25q-90 0 -155.5 39t-101 111t-35.5 171q0 94 36 163.5t101 108.5t151 39q81 0 140 -37t90.5 -106.5
t31.5 -165.5q0 -11 -0.5 -21.5t-1.5 -21.5h-463v98zM557 840l-104 -150h-138l-104 150h100l106 -119h-66l106 119h100z" />
    <glyph glyph-name="Gbreve" unicode="&#x11e;" 
d="M362 -16q-136 0 -212 106.5t-76 309.5q0 206 81 311t238 105q85 0 147 -33.5t98.5 -95t44.5 -147.5h-108q-16 78 -61.5 123t-120.5 45q-104 0 -154.5 -75.5t-50.5 -232.5q0 -160 49.5 -237t152.5 -77q47 0 86.5 28t63 75t23.5 103h-194v108h294v-400h-100v70h-30
q-19 -40 -64.5 -63t-106.5 -23zM314 1030q3 -37 24 -55.5t58 -18.5q38 0 58.5 18.5t23.5 55.5h100q-7 -74 -52.5 -112t-129.5 -38t-129.5 38t-52.5 112h100z" />
    <glyph glyph-name="gbreve" unicode="&#x11f;" 
d="M646 20q0 -71 -34 -124t-97 -82.5t-151 -29.5q-81 0 -143 24.5t-98 68.5t-39 103h108q17 -45 62.5 -70.5t109.5 -25.5q81 0 126.5 38.5t45.5 107.5v64h-30q-22 -30 -65.5 -48t-92.5 -18q-79 0 -138.5 36.5t-92.5 102.5t-33 153q0 89 33 155.5t92.5 103.5t138.5 37
q50 0 93.5 -19t64.5 -51h30v54h110v-580zM194 320q0 -89 46.5 -140.5t127.5 -51.5t127.5 51.5t46.5 140.5t-46.5 140.5t-127.5 51.5t-127.5 -51.5t-46.5 -140.5zM303 830q3 -37 24 -55.5t58 -18.5q38 0 58.5 18.5t23.5 55.5h100q-7 -74 -52.5 -112t-129.5 -38t-129.5 38
t-52.5 112h100z" />
    <glyph glyph-name="Gdotaccent" unicode="&#x120;" 
d="M362 -16q-136 0 -212 106.5t-76 309.5q0 206 81 311t238 105q85 0 147 -33.5t98.5 -95t44.5 -147.5h-108q-16 78 -61.5 123t-120.5 45q-104 0 -154.5 -75.5t-50.5 -232.5q0 -160 49.5 -237t152.5 -77q47 0 86.5 28t63 75t23.5 103h-194v108h294v-400h-100v70h-30
q-19 -40 -64.5 -63t-106.5 -23zM396 892q-41 0 -64.5 20.5t-23.5 57.5t23.5 57.5t64.5 20.5t64.5 -20.5t23.5 -57.5t-23.5 -57.5t-64.5 -20.5z" />
    <glyph glyph-name="gdotaccent" unicode="&#x121;" 
d="M646 20q0 -71 -34 -124t-97 -82.5t-151 -29.5q-81 0 -143 24.5t-98 68.5t-39 103h108q17 -45 62.5 -70.5t109.5 -25.5q81 0 126.5 38.5t45.5 107.5v64h-30q-22 -30 -65.5 -48t-92.5 -18q-79 0 -138.5 36.5t-92.5 102.5t-33 153q0 89 33 155.5t92.5 103.5t138.5 37
q50 0 93.5 -19t64.5 -51h30v54h110v-580zM194 320q0 -89 46.5 -140.5t127.5 -51.5t127.5 51.5t46.5 140.5t-46.5 140.5t-127.5 51.5t-127.5 -51.5t-46.5 -140.5zM385 692q-41 0 -64.5 20.5t-23.5 57.5t23.5 57.5t64.5 20.5t64.5 -20.5t23.5 -57.5t-23.5 -57.5t-64.5 -20.5z
" />
    <glyph glyph-name="uni0122" unicode="&#x122;" 
d="M362 -16q-136 0 -212 106.5t-76 309.5q0 206 81 311t238 105q85 0 147 -33.5t98.5 -95t44.5 -147.5h-108q-16 78 -61.5 123t-120.5 45q-104 0 -154.5 -75.5t-50.5 -232.5q0 -160 49.5 -237t152.5 -77q47 0 86.5 28t63 75t23.5 103h-194v108h294v-400h-100v70h-30
q-19 -40 -64.5 -63t-106.5 -23zM394 -170q-31 0 -49.5 15t-18.5 40t18.5 40t49.5 15t49.5 -15t18.5 -40t-18.5 -40t-49.5 -15zM320 -250q36 24 55 48t19 40v102q35 0 53.5 -18t18.5 -52q0 -29 -11.5 -60t-32.5 -60h-102z" />
    <glyph glyph-name="uni0123" unicode="&#x123;" 
d="M646 20q0 -71 -34 -124t-97 -82.5t-151 -29.5q-81 0 -143 24.5t-98 68.5t-39 103h108q17 -45 62.5 -70.5t109.5 -25.5q81 0 126.5 38.5t45.5 107.5v64h-30q-22 -30 -65.5 -48t-92.5 -18q-79 0 -138.5 36.5t-92.5 102.5t-33 153q0 89 33 155.5t92.5 103.5t138.5 37
q50 0 93.5 -19t64.5 -51h30v54h110v-580zM194 320q0 -89 46.5 -140.5t127.5 -51.5t127.5 51.5t46.5 140.5t-46.5 140.5t-127.5 51.5t-127.5 -51.5t-46.5 -140.5zM384 770q31 0 49.5 -15t18.5 -40t-18.5 -40t-49.5 -15t-49.5 15t-18.5 40t18.5 40t49.5 15zM458 850
q-36 -24 -55 -48t-19 -40v-102q-34 0 -53 18t-19 52q0 29 11.5 60.5t32.5 59.5h102z" />
    <glyph glyph-name="Hbar" unicode="&#x126;" 
d="M110 0v800h114v-343h302v343h114v-800h-114v349h-302v-349h-114zM20 600v90h710v-90h-710z" />
    <glyph glyph-name="hbar" unicode="&#x127;" 
d="M30 678v90h360v-90h-360zM120 0v848h110v-296h30q25 30 65 47t86 17q70 0 121.5 -30t80.5 -84t29 -126v-376h-110v346q0 79 -39 121.5t-112 42.5t-112 -42.5t-39 -121.5v-346h-110z" />
    <glyph glyph-name="Itilde" unicode="&#x128;" 
d="M100 0v108h218v584h-218v108h550v-108h-218v-584h218v-108h-550zM187 890q7 77 34.5 111.5t81.5 34.5q40 0 64.5 -12.5t42 -25t37.5 -12.5q14 0 21 13t11 41h84q-7 -76 -34.5 -111t-81.5 -35q-40 0 -64.5 12.5t-42 25t-37.5 12.5q-13 0 -20.5 -12.5t-11.5 -41.5h-84z" />
    <glyph glyph-name="itilde" unicode="&#x129;" 
d="M155 600h310v-496h200v-104h-510v104h200v392h-200v104zM214 690q7 77 34.5 111.5t81.5 34.5q40 0 64.5 -12.5t42 -25t37.5 -12.5q14 0 21 13t11 41h84q-7 -76 -34.5 -111t-81.5 -35q-40 0 -64.5 12.5t-42 25t-37.5 12.5q-13 0 -20.5 -12.5t-11.5 -41.5h-84z" />
    <glyph glyph-name="Imacron" unicode="&#x12a;" 
d="M100 0v108h218v584h-218v108h550v-108h-218v-584h218v-108h-550zM205 920v90h340v-90h-340z" />
    <glyph glyph-name="imacron" unicode="&#x12b;" 
d="M155 600h310v-496h200v-104h-510v104h200v392h-200v104zM232 720v90h340v-90h-340z" />
    <glyph glyph-name="Iogonek" unicode="&#x12e;" 
d="M100 0v108h218v584h-218v108h550v-108h-218v-584h218v-108h-550zM584 -216q-58 0 -92 26t-34 72q0 33 20.5 64.5t55.5 53.5l50 2l56 -2q-38 -18 -60 -43t-22 -51q0 -19 13 -30.5t35 -11.5q11 0 18 1t16 3v-78q-12 -3 -25 -4.5t-31 -1.5z" />
    <glyph glyph-name="iogonek" unicode="&#x12f;" 
d="M155 600h310v-496h200v-104h-510v104h200v392h-200v104zM402 692q-41 0 -64.5 20.5t-23.5 57.5t23.5 57.5t64.5 20.5t64.5 -20.5t23.5 -57.5t-23.5 -57.5t-64.5 -20.5zM599 -216q-58 0 -92 26t-34 72q0 33 20.5 64.5t55.5 53.5l50 2l56 -2q-38 -18 -60 -43t-22 -51
q0 -19 13 -30.5t35 -11.5q11 0 18 1t16 3v-78q-12 -3 -25 -4.5t-31 -1.5z" />
    <glyph glyph-name="Idotaccent" unicode="&#x130;" 
d="M100 0v108h218v584h-218v108h550v-108h-218v-584h218v-108h-550zM375 892q-41 0 -64.5 20.5t-23.5 57.5t23.5 57.5t64.5 20.5t64.5 -20.5t23.5 -57.5t-23.5 -57.5t-64.5 -20.5z" />
    <glyph glyph-name="dotlessi" unicode="&#x131;" 
d="M155 600h310v-496h200v-104h-510v104h200v392h-200v104z" />
    <glyph glyph-name="IJ" unicode="&#x132;" 
d="M80 0v800h114v-800h-114zM394 -16h-60v108h60q77 0 119.5 44.5t42.5 123.5v540h114v-550q0 -83 -33.5 -142.5t-95 -91.5t-147.5 -32z" />
    <glyph glyph-name="ij" unicode="&#x133;" 
d="M230 600v-600h-110v600h110zM175 692q-41 0 -64.5 20.5t-23.5 57.5t23.5 57.5t64.5 20.5t64.5 -20.5t23.5 -57.5t-23.5 -57.5t-64.5 -20.5zM630 600v-616q0 -96 -55 -148t-157 -52h-84v100h84q48 0 75 29t27 81v606h110zM575 692q-41 0 -64.5 20.5t-23.5 57.5t23.5 57.5
t64.5 20.5t64.5 -20.5t23.5 -57.5t-23.5 -57.5t-64.5 -20.5z" />
    <glyph glyph-name="uni0136" unicode="&#x136;" 
d="M150 800h114v-800h-114v800zM542 0l-315 387l333 413h138l-330 -409l318 -391h-144zM393 -170q-31 0 -49.5 15t-18.5 40t18.5 40t49.5 15t49.5 -15t18.5 -40t-18.5 -40t-49.5 -15zM319 -250q36 24 55 48t19 40v102q35 0 53.5 -18t18.5 -52q0 -29 -11.5 -60t-32.5 -60
h-102z" />
    <glyph glyph-name="uni0137" unicode="&#x137;" 
d="M531 0l-285 292l295 308h145l-293 -304l289 -296h-151zM172 0v848h110v-848h-110zM403 -170q-31 0 -49.5 15t-18.5 40t18.5 40t49.5 15t49.5 -15t18.5 -40t-18.5 -40t-49.5 -15zM329 -250q36 24 55 48t19 40v102q35 0 53.5 -18t18.5 -52q0 -29 -11.5 -60t-32.5 -60h-102z
" />
    <glyph glyph-name="kgreenlandic" unicode="&#x138;" 
d="M525 0l-285 292l295 308h145l-293 -304l289 -296h-151zM166 0v600h110v-600h-110z" />
    <glyph glyph-name="Lacute" unicode="&#x139;" 
d="M190 0v800h114v-692h376v-108h-490zM200 890l104 150h130l-134 -150h-100z" />
    <glyph glyph-name="lacute" unicode="&#x13a;" 
d="M140 848h310v-744h200v-104h-510v104h200v640h-200v104zM346 938l104 150h130l-134 -150h-100z" />
    <glyph glyph-name="uni013B" unicode="&#x13b;" 
d="M190 0v800h114v-692h376v-108h-490zM433 -170q-31 0 -49.5 15t-18.5 40t18.5 40t49.5 15t49.5 -15t18.5 -40t-18.5 -40t-49.5 -15zM359 -250q36 24 55 48t19 40v102q35 0 53.5 -18t18.5 -52q0 -29 -11.5 -60t-32.5 -60h-102z" />
    <glyph glyph-name="uni013C" unicode="&#x13c;" 
d="M140 848h310v-744h200v-104h-510v104h200v640h-200v104zM393 -170q-31 0 -49.5 15t-18.5 40t18.5 40t49.5 15t49.5 -15t18.5 -40t-18.5 -40t-49.5 -15zM319 -250q36 24 55 48t19 40v102q35 0 53.5 -18t18.5 -52q0 -29 -11.5 -60t-32.5 -60h-102z" />
    <glyph glyph-name="Lcaron" unicode="&#x13d;" 
d="M190 0v800h114v-692h376v-108h-490zM410 600l44 200h110l-64 -200h-90z" />
    <glyph glyph-name="lcaron" unicode="&#x13e;" 
d="M140 848h310v-744h200v-104h-510v104h200v640h-200v104zM520 648l44 200h110l-64 -200h-90z" />
    <glyph glyph-name="Ldot" unicode="&#x13f;" 
d="M190 0v800h114v-692h376v-108h-490zM514 306q-47 0 -73 24.5t-26 69.5t26 69.5t73 24.5t73 -24.5t26 -69.5t-26 -69.5t-73 -24.5z" />
    <glyph glyph-name="ldot" unicode="&#x140;" 
d="M90 848h310v-744h200v-104h-510v104h200v640h-200v104zM584 330q-47 0 -73 24.5t-26 69.5t26 69.5t73 24.5t73 -24.5t26 -69.5t-26 -69.5t-73 -24.5z" />
    <glyph glyph-name="Lslash" unicode="&#x141;" 
d="M84 238v110l400 220v-110zM190 0v800h114v-692h376v-108h-490z" />
    <glyph glyph-name="lslash" unicode="&#x142;" 
d="M170 295v104l420 230v-104zM140 848h310v-744h200v-104h-510v104h200v640h-200v104z" />
    <glyph glyph-name="Nacute" unicode="&#x143;" 
d="M92 0v800h200l252 -730h10l-4 180v550h108v-800h-200l-252 730h-10l4 -180v-550h-108zM293 890l104 150h130l-134 -150h-100z" />
    <glyph glyph-name="nacute" unicode="&#x144;" 
d="M120 0v600h110v-48h30q25 30 65 47t86 17q70 0 121.5 -30t80.5 -84t29 -126v-376h-110v346q0 79 -39 121.5t-112 42.5t-112 -42.5t-39 -121.5v-346h-110zM293 690l104 150h130l-134 -150h-100z" />
    <glyph glyph-name="uni0145" unicode="&#x145;" 
d="M92 0v800h200l252 -730h10l-4 180v550h108v-800h-200l-252 730h-10l4 -180v-550h-108zM373 -170q-31 0 -49.5 15t-18.5 40t18.5 40t49.5 15t49.5 -15t18.5 -40t-18.5 -40t-49.5 -15zM299 -250q36 24 55 48t19 40v102q35 0 53.5 -18t18.5 -52q0 -29 -11.5 -60t-32.5 -60
h-102z" />
    <glyph glyph-name="uni0146" unicode="&#x146;" 
d="M120 0v600h110v-48h30q25 30 65 47t86 17q70 0 121.5 -30t80.5 -84t29 -126v-376h-110v346q0 79 -39 121.5t-112 42.5t-112 -42.5t-39 -121.5v-346h-110zM373 -170q-31 0 -49.5 15t-18.5 40t18.5 40t49.5 15t49.5 -15t18.5 -40t-18.5 -40t-49.5 -15zM299 -250
q36 24 55 48t19 40v102q35 0 53.5 -18t18.5 -52q0 -29 -11.5 -60t-32.5 -60h-102z" />
    <glyph glyph-name="Ncaron" unicode="&#x147;" 
d="M92 0v800h200l252 -730h10l-4 180v550h108v-800h-200l-252 730h-10l4 -180v-550h-108zM548 1040l-104 -150h-138l-104 150h100l106 -119h-66l106 119h100z" />
    <glyph glyph-name="ncaron" unicode="&#x148;" 
d="M120 0v600h110v-48h30q25 30 65 47t86 17q70 0 121.5 -30t80.5 -84t29 -126v-376h-110v346q0 79 -39 121.5t-112 42.5t-112 -42.5t-39 -121.5v-346h-110zM548 840l-104 -150h-138l-104 150h100l106 -119h-66l106 119h100z" />
    <glyph glyph-name="Eng" unicode="&#x14a;" 
d="M430 -240v96h20q50 0 75 25.5t25 75.5v43l53 20l55 -20v-37q0 -100 -52 -151.5t-154 -51.5h-22zM92 0v800h200l252 -730h10l-4 180v550h108v-800h-200l-252 730h-10l4 -180v-550h-108z" />
    <glyph glyph-name="eng" unicode="&#x14b;" 
d="M422 -216v94h20q90 0 90 99v23l55 20l55 -20v-17q0 -98 -50 -148.5t-148 -50.5h-22zM120 0v600h110v-48h30q25 30 65 47t86 17q70 0 121.5 -30t80.5 -84t29 -126v-376h-110v346q0 79 -39 121.5t-112 42.5t-112 -42.5t-39 -121.5v-346h-110z" />
    <glyph glyph-name="Omacron" unicode="&#x14c;" 
d="M375 -16q-156 0 -235.5 105t-79.5 311t79.5 311t235.5 105t235.5 -105t79.5 -311t-79.5 -311t-235.5 -105zM375 92q103 0 152 75.5t49 232.5t-49 232.5t-152 75.5t-152 -75.5t-49 -232.5t49 -232.5t152 -75.5zM205 920v90h340v-90h-340z" />
    <glyph glyph-name="omacron" unicode="&#x14d;" 
d="M375 -16q-88 0 -154.5 39.5t-103.5 110.5t-37 166t37 166t103.5 110.5t154.5 39.5q89 0 155 -39.5t103 -110.5t37 -166t-37 -166t-103 -110.5t-155 -39.5zM375 88q86 0 135.5 57t49.5 155t-49.5 155t-135.5 57t-135.5 -57t-49.5 -155t49.5 -155t135.5 -57zM205 720v90
h340v-90h-340z" />
    <glyph glyph-name="Ohungarumlaut" unicode="&#x150;" 
d="M375 -16q-156 0 -235.5 105t-79.5 311t79.5 311t235.5 105t235.5 -105t79.5 -311t-79.5 -311t-235.5 -105zM375 92q103 0 152 75.5t49 232.5t-49 232.5t-152 75.5t-152 -75.5t-49 -232.5t49 -232.5t152 -75.5zM197 890l94 150h128l-124 -150h-98zM395 890l124 150h136
l-154 -150h-106z" />
    <glyph glyph-name="ohungarumlaut" unicode="&#x151;" 
d="M375 -16q-88 0 -154.5 39.5t-103.5 110.5t-37 166t37 166t103.5 110.5t154.5 39.5q89 0 155 -39.5t103 -110.5t37 -166t-37 -166t-103 -110.5t-155 -39.5zM375 88q86 0 135.5 57t49.5 155t-49.5 155t-135.5 57t-135.5 -57t-49.5 -155t49.5 -155t135.5 -57zM197 690
l94 150h128l-124 -150h-98zM395 690l124 150h136l-154 -150h-106z" />
    <glyph glyph-name="OE" unicode="&#x152;" 
d="M245 -16q-53 0 -92 22.5t-64 72t-37 129t-12 192.5t12 192.5t37 129t64 72t92 22.5q47 0 78.5 -15.5t52.5 -48.5h20v48h344v-108h-230v-239h190v-100h-190v-245h220v-108h-334v48h-20q-21 -33 -52.5 -48.5t-78.5 -15.5zM277 92q35 0 59 15t38 50.5t20 95t6 147.5
q0 89 -6 148t-20 94.5t-38 50.5t-59 15t-59 -15t-38 -50.5t-20 -94.5t-6 -148q0 -88 6 -147.5t20 -95t38 -50.5t59 -15z" />
    <glyph glyph-name="oe" unicode="&#x153;" 
d="M243 -16q-67 0 -111 34t-65 104t-21 178t21 178t65 104t111 34q68 0 111.5 -34t64.5 -104t21 -178t-21 -178t-64.5 -104t-111.5 -34zM249 88q32 0 52.5 23t30.5 70t10 119q0 73 -10 119.5t-30.5 69.5t-52.5 23t-52.5 -23t-30.5 -69.5t-10 -119.5q0 -72 10 -119t30.5 -70
t52.5 -23zM546 -16q-65 0 -108 34.5t-63.5 105.5t-20.5 181q0 107 20 175.5t62 102t106 33.5q60 0 97.5 -31t55 -99t17.5 -179q0 -11 -0.5 -21.5t-1.5 -21.5h-288v98h225l-37 -57q0 77 -7 123t-23 67t-42 21q-30 0 -49.5 -22.5t-29 -69.5t-9.5 -119q0 -75 10 -124t30.5 -73
t51.5 -24q29 0 50.5 26t31.5 74h102q-11 -97 -57.5 -148.5t-122.5 -51.5z" />
    <glyph glyph-name="Racute" unicode="&#x154;" 
d="M124 0v800h308q77 0 134 -28t88.5 -80t31.5 -123q0 -67 -32 -117t-89 -78.5t-133 -28.5h-194v-345h-114zM574 0l-234 365h126l240 -365h-132zM238 444h196q62 0 100 34.5t38 89.5q0 56 -38 90t-100 34h-196v-248zM293 890l104 150h130l-134 -150h-100z" />
    <glyph glyph-name="racute" unicode="&#x155;" 
d="M100 600h248v-46h30q20 30 53.5 46t76.5 16q80 0 126 -52t46 -144v-80h-114v64q0 108 -94 108q-58 0 -87 -48.5t-29 -143.5v-216h208v-104h-444v104h126v392h-146v104zM313 690l104 150h130l-134 -150h-100z" />
    <glyph glyph-name="uni0156" unicode="&#x156;" 
d="M124 0v800h308q77 0 134 -28t88.5 -80t31.5 -123q0 -67 -32 -117t-89 -78.5t-133 -28.5h-194v-345h-114zM574 0l-234 365h126l240 -365h-132zM238 444h196q62 0 100 34.5t38 89.5q0 56 -38 90t-100 34h-196v-248zM393 -170q-31 0 -49.5 15t-18.5 40t18.5 40t49.5 15
t49.5 -15t18.5 -40t-18.5 -40t-49.5 -15zM319 -250q36 24 55 48t19 40v102q35 0 53.5 -18t18.5 -52q0 -29 -11.5 -60t-32.5 -60h-102z" />
    <glyph glyph-name="uni0157" unicode="&#x157;" 
d="M100 600h248v-46h30q20 30 53.5 46t76.5 16q80 0 126 -52t46 -144v-80h-114v64q0 108 -94 108q-58 0 -87 -48.5t-29 -143.5v-216h208v-104h-444v104h126v392h-146v104zM299 -170q-31 0 -49.5 15t-18.5 40t18.5 40t49.5 15t49.5 -15t18.5 -40t-18.5 -40t-49.5 -15z
M225 -250q36 24 55 48t19 40v102q35 0 53.5 -18t18.5 -52q0 -29 -11.5 -60t-32.5 -60h-102z" />
    <glyph glyph-name="Rcaron" unicode="&#x158;" 
d="M124 0v800h308q77 0 134 -28t88.5 -80t31.5 -123q0 -67 -32 -117t-89 -78.5t-133 -28.5h-194v-345h-114zM574 0l-234 365h126l240 -365h-132zM238 444h196q62 0 100 34.5t38 89.5q0 56 -38 90t-100 34h-196v-248zM548 1040l-104 -150h-138l-104 150h100l106 -119h-66
l106 119h100z" />
    <glyph glyph-name="rcaron" unicode="&#x159;" 
d="M100 600h248v-46h30q20 30 53.5 46t76.5 16q80 0 126 -52t46 -144v-80h-114v64q0 108 -94 108q-58 0 -87 -48.5t-29 -143.5v-216h208v-104h-444v104h126v392h-146v104zM568 840l-104 -150h-138l-104 150h100l106 -119h-66l106 119h100z" />
    <glyph glyph-name="Sacute" unicode="&#x15a;" 
d="M200 204q17 -54 64 -83t118 -29q78 0 123 35.5t45 96.5q0 48 -31 76.5t-93 35.5l-102 12q-112 14 -169 70.5t-57 155.5q0 73 36 127t101 84.5t151 30.5q85 0 150 -29t103 -82.5t43 -128.5h-110q-16 63 -64.5 97.5t-121.5 34.5q-82 0 -129 -36t-47 -98q0 -48 31.5 -76
t92.5 -36l102 -12q113 -13 169.5 -70t56.5 -156q0 -72 -35 -126t-98 -84t-147 -30q-85 0 -149.5 26.5t-102 76t-42.5 117.5h112zM306 890l104 150h130l-134 -150h-100z" />
    <glyph glyph-name="sacute" unicode="&#x15b;" 
d="M217 184q15 -46 57.5 -71t109.5 -25q70 0 105 21t35 63q0 26 -28.5 43t-85.5 25l-86 12q-106 15 -155 56.5t-49 117.5q0 90 69 140t193 50q125 0 196.5 -56t75.5 -156h-100q-15 52 -59 80t-115 28q-74 0 -112 -21t-38 -63q0 -26 28.5 -43t85.5 -25l86 -12
q107 -15 155.5 -56.5t48.5 -117.5q0 -60 -30 -102.5t-86 -65t-136 -22.5q-121 0 -191 53t-75 147h101zM301 690l104 150h130l-134 -150h-100z" />
    <glyph glyph-name="Scedilla" unicode="&#x15e;" 
d="M200 204q17 -54 64 -83t118 -29q78 0 123 35.5t45 96.5q0 48 -31 76.5t-93 35.5l-102 12q-112 14 -169 70.5t-57 155.5q0 73 36 127t101 84.5t151 30.5q85 0 150 -29t103 -82.5t43 -128.5h-110q-16 63 -64.5 97.5t-121.5 34.5q-82 0 -129 -36t-47 -98q0 -48 31.5 -76
t92.5 -36l102 -12q113 -13 169.5 -70t56.5 -156q0 -72 -35 -126t-98 -84t-147 -30q-85 0 -149.5 26.5t-102 76t-42.5 117.5h112zM353 20h88l-18 -58q43 -6 65.5 -28t22.5 -56q0 -44 -37 -69t-103 -25q-61 0 -97 23.5t-39 66.5h84q5 -12 19 -19t35 -7q20 0 31 8.5t11 22.5
t-10.5 23t-30.5 10l-47 4z" />
    <glyph glyph-name="scedilla" unicode="&#x15f;" 
d="M217 184q15 -46 57.5 -71t109.5 -25q70 0 105 21t35 63q0 26 -28.5 43t-85.5 25l-86 12q-106 15 -155 56.5t-49 117.5q0 90 69 140t193 50q125 0 196.5 -56t75.5 -156h-100q-15 52 -59 80t-115 28q-74 0 -112 -21t-38 -63q0 -26 28.5 -43t85.5 -25l86 -12
q107 -15 155.5 -56.5t48.5 -117.5q0 -60 -30 -102.5t-86 -65t-136 -22.5q-121 0 -191 53t-75 147h101zM358 20h88l-18 -58q43 -6 65.5 -28t22.5 -56q0 -44 -37 -69t-103 -25q-61 0 -97 23.5t-39 66.5h84q5 -12 19 -19t35 -7q20 0 31 8.5t11 22.5t-10.5 23t-30.5 10l-47 4z
" />
    <glyph glyph-name="Scaron" unicode="&#x160;" 
d="M200 204q17 -54 64 -83t118 -29q78 0 123 35.5t45 96.5q0 48 -31 76.5t-93 35.5l-102 12q-112 14 -169 70.5t-57 155.5q0 73 36 127t101 84.5t151 30.5q85 0 150 -29t103 -82.5t43 -128.5h-110q-16 63 -64.5 97.5t-121.5 34.5q-82 0 -129 -36t-47 -98q0 -48 31.5 -76
t92.5 -36l102 -12q113 -13 169.5 -70t56.5 -156q0 -72 -35 -126t-98 -84t-147 -30q-85 0 -149.5 26.5t-102 76t-42.5 117.5h112zM561 1040l-104 -150h-138l-104 150h100l106 -119h-66l106 119h100z" />
    <glyph glyph-name="scaron" unicode="&#x161;" 
d="M217 184q15 -46 57.5 -71t109.5 -25q70 0 105 21t35 63q0 26 -28.5 43t-85.5 25l-86 12q-106 15 -155 56.5t-49 117.5q0 90 69 140t193 50q125 0 196.5 -56t75.5 -156h-100q-15 52 -59 80t-115 28q-74 0 -112 -21t-38 -63q0 -26 28.5 -43t85.5 -25l86 -12
q107 -15 155.5 -56.5t48.5 -117.5q0 -60 -30 -102.5t-86 -65t-136 -22.5q-121 0 -191 53t-75 147h101zM556 840l-104 -150h-138l-104 150h100l106 -119h-66l106 119h100z" />
    <glyph glyph-name="uni0162" unicode="&#x162;" 
d="M318 0v692h-258v108h630v-108h-258v-692h-114zM343 20h88l-18 -58q43 -6 65.5 -28t22.5 -56q0 -44 -37 -69t-103 -25q-61 0 -97 23.5t-39 66.5h84q5 -12 19 -19t35 -7q20 0 31 8.5t11 22.5t-10.5 23t-30.5 10l-47 4z" />
    <glyph glyph-name="uni0163" unicode="&#x163;" 
d="M340 756v-156h294v-104h-294v-296q0 -55 25.5 -83.5t74.5 -28.5q48 0 76 30.5t41 91.5h98q-6 -109 -63 -167.5t-156 -58.5t-152.5 56.5t-53.5 159.5v296h-146v104h146v156h110zM419 20h88l-18 -58q43 -6 65.5 -28t22.5 -56q0 -44 -37 -69t-103 -25q-61 0 -97 23.5
t-39 66.5h84q5 -12 19 -19t35 -7q20 0 31 8.5t11 22.5t-10.5 23t-30.5 10l-47 4z" />
    <glyph glyph-name="Tcaron" unicode="&#x164;" 
d="M318 0v692h-258v108h630v-108h-258v-692h-114zM548 1040l-104 -150h-138l-104 150h100l106 -119h-66l106 119h100z" />
    <glyph glyph-name="tcaron" unicode="&#x165;" 
d="M340 756v-156h294v-104h-294v-296q0 -55 25.5 -83.5t74.5 -28.5q48 0 76 30.5t41 91.5h98q-6 -109 -63 -167.5t-156 -58.5t-152.5 56.5t-53.5 159.5v296h-146v104h146v156h110zM410 648l44 200h110l-64 -200h-90z" />
    <glyph glyph-name="Tbar" unicode="&#x166;" 
d="M155 344v96h440v-96h-440zM318 0v692h-258v108h630v-108h-258v-692h-114z" />
    <glyph glyph-name="tbar" unicode="&#x167;" 
d="M340 756v-156h294v-104h-294v-296q0 -55 25.5 -83.5t74.5 -28.5q48 0 76 30.5t41 91.5h98q-6 -109 -63 -167.5t-156 -58.5t-152.5 56.5t-53.5 159.5v296h-146v104h146v156h110zM84 324v92h530v-92h-530z" />
    <glyph glyph-name="Utilde" unicode="&#x168;" 
d="M90 800h114v-510q0 -93 45.5 -145.5t127.5 -52.5t127.5 52.5t45.5 145.5v510h110v-520q0 -144 -73 -220t-212 -76t-212 76t-73 220v520zM187 890q7 77 34.5 111.5t81.5 34.5q40 0 64.5 -12.5t42 -25t37.5 -12.5q14 0 21 13t11 41h84q-7 -76 -34.5 -111t-81.5 -35
q-40 0 -64.5 12.5t-42 25t-37.5 12.5q-13 0 -20.5 -12.5t-11.5 -41.5h-84z" />
    <glyph glyph-name="utilde" unicode="&#x169;" 
d="M630 600v-600h-110v48h-30q-25 -30 -65 -47t-86 -17q-69 0 -121 30t-81 84t-29 126v376h110v-346q0 -79 39 -121.5t112 -42.5t112 42.5t39 121.5v346h110zM187 690q7 77 34.5 111.5t81.5 34.5q40 0 64.5 -12.5t42 -25t37.5 -12.5q14 0 21 13t11 41h84q-7 -76 -34.5 -111
t-81.5 -35q-40 0 -64.5 12.5t-42 25t-37.5 12.5q-13 0 -20.5 -12.5t-11.5 -41.5h-84z" />
    <glyph glyph-name="Umacron" unicode="&#x16a;" 
d="M90 800h114v-510q0 -93 45.5 -145.5t127.5 -52.5t127.5 52.5t45.5 145.5v510h110v-520q0 -144 -73 -220t-212 -76t-212 76t-73 220v520zM205 920v90h340v-90h-340z" />
    <glyph glyph-name="umacron" unicode="&#x16b;" 
d="M630 600v-600h-110v48h-30q-25 -30 -65 -47t-86 -17q-69 0 -121 30t-81 84t-29 126v376h110v-346q0 -79 39 -121.5t112 -42.5t112 42.5t39 121.5v346h110zM205 720v90h340v-90h-340z" />
    <glyph glyph-name="Ubreve" unicode="&#x16c;" 
d="M90 800h114v-510q0 -93 45.5 -145.5t127.5 -52.5t127.5 52.5t45.5 145.5v510h110v-520q0 -144 -73 -220t-212 -76t-212 76t-73 220v520zM293 1030q3 -37 24 -55.5t58 -18.5q38 0 58.5 18.5t23.5 55.5h100q-7 -74 -52.5 -112t-129.5 -38t-129.5 38t-52.5 112h100z" />
    <glyph glyph-name="ubreve" unicode="&#x16d;" 
d="M630 600v-600h-110v48h-30q-25 -30 -65 -47t-86 -17q-69 0 -121 30t-81 84t-29 126v376h110v-346q0 -79 39 -121.5t112 -42.5t112 42.5t39 121.5v346h110zM293 830q3 -37 24 -55.5t58 -18.5q38 0 58.5 18.5t23.5 55.5h100q-7 -74 -52.5 -112t-129.5 -38t-129.5 38
t-52.5 112h100z" />
    <glyph glyph-name="Uring" unicode="&#x16e;" 
d="M90 800h114v-510q0 -93 45.5 -145.5t127.5 -52.5t127.5 52.5t45.5 145.5v510h110v-520q0 -144 -73 -220t-212 -76t-212 76t-73 220v520zM375 868q-58 0 -94 29.5t-36 77.5t36 77.5t94 29.5t94 -29.5t36 -77.5t-36 -77.5t-94 -29.5zM375 924q28 0 45 14.5t17 36.5
q0 23 -17 37t-45 14t-45 -14t-17 -37q0 -22 17 -36.5t45 -14.5z" />
    <glyph glyph-name="uring" unicode="&#x16f;" 
d="M630 600v-600h-110v48h-30q-25 -30 -65 -47t-86 -17q-69 0 -121 30t-81 84t-29 126v376h110v-346q0 -79 39 -121.5t112 -42.5t112 42.5t39 121.5v346h110zM375 668q-58 0 -94 29.5t-36 77.5t36 77.5t94 29.5t94 -29.5t36 -77.5t-36 -77.5t-94 -29.5zM375 724
q28 0 45 14.5t17 36.5q0 23 -17 37t-45 14t-45 -14t-17 -37q0 -22 17 -36.5t45 -14.5z" />
    <glyph glyph-name="Uhungarumlaut" unicode="&#x170;" 
d="M90 800h114v-510q0 -93 45.5 -145.5t127.5 -52.5t127.5 52.5t45.5 145.5v510h110v-520q0 -144 -73 -220t-212 -76t-212 76t-73 220v520zM197 890l94 150h128l-124 -150h-98zM395 890l124 150h136l-154 -150h-106z" />
    <glyph glyph-name="uhungarumlaut" unicode="&#x171;" 
d="M630 600v-600h-110v48h-30q-25 -30 -65 -47t-86 -17q-69 0 -121 30t-81 84t-29 126v376h110v-346q0 -79 39 -121.5t112 -42.5t112 42.5t39 121.5v346h110zM197 690l94 150h128l-124 -150h-98zM395 690l124 150h136l-154 -150h-106z" />
    <glyph glyph-name="Uogonek" unicode="&#x172;" 
d="M90 800h114v-510q0 -93 45.5 -145.5t127.5 -52.5t127.5 52.5t45.5 145.5v510h110v-520q0 -144 -73 -220t-212 -76t-212 76t-73 220v520zM431 -216q-58 0 -92 26t-34 72q0 33 20.5 64.5t55.5 53.5l50 2l56 -2q-38 -18 -60 -43t-22 -51q0 -19 13 -30.5t35 -11.5q11 0 18 1
t16 3v-78q-12 -3 -25 -4.5t-31 -1.5z" />
    <glyph glyph-name="uogonek" unicode="&#x173;" 
d="M630 600v-600h-110v48h-30q-25 -30 -65 -47t-86 -17q-69 0 -121 30t-81 84t-29 126v376h110v-346q0 -79 39 -121.5t112 -42.5t112 42.5t39 121.5v346h110zM574 -216q-58 0 -92 26t-34 72q0 33 20.5 64.5t55.5 53.5l50 2l56 -2q-38 -18 -60 -43t-22 -51q0 -19 13 -30.5
t35 -11.5q11 0 18 1t16 3v-78q-12 -3 -25 -4.5t-31 -1.5z" />
    <glyph glyph-name="Wcircumflex" unicode="&#x174;" 
d="M131 800l77 -600l12 -120h10l67 520h166l63 -520h10l12 120l78 600h100l-111 -800h-168l-65 540h-10l-70 -540h-167l-111 800h107zM202 890l104 150h138l104 -150h-100l-106 119h66l-106 -119h-100z" />
    <glyph glyph-name="wcircumflex" unicode="&#x175;" 
d="M151 0l-118 600h116l57 -350l19 -170h10l63 520h164l63 -520h10l18 170l59 350h105l-118 -600h-156l-63 524h-10l-63 -524h-156zM202 690l104 150h138l104 -150h-100l-106 119h66l-106 -119h-100z" />
    <glyph glyph-name="Ycircumflex" unicode="&#x176;" 
d="M169 800l194 -327l10 -29h10l10 29l197 327h117l-275 -452v-348h-114v348l-275 452h126zM202 890l104 150h138l104 -150h-100l-106 119h66l-106 -119h-100z" />
    <glyph glyph-name="ycircumflex" unicode="&#x177;" 
d="M72 600h121l175 -450h73l-33 -100h-121zM680 600l-242 -686q-22 -61 -64 -95.5t-96 -34.5q-80 0 -127 42.5t-53 121.5h100q14 -34 30.5 -49t43.5 -15q25 0 40.5 15t28.5 49l227 652h112zM205 690l104 150h138l104 -150h-100l-106 119h66l-106 -119h-100z" />
    <glyph glyph-name="Ydieresis" unicode="&#x178;" 
d="M169 800l194 -327l10 -29h10l10 29l197 327h117l-275 -452v-348h-114v348l-275 452h126zM264 901q-35 0 -54.5 17t-19.5 47t19.5 47t54.5 17t54.5 -17t19.5 -47t-19.5 -47t-54.5 -17zM486 901q-35 0 -54.5 17t-19.5 47t19.5 47t54.5 17t54.5 -17t19.5 -47t-19.5 -47
t-54.5 -17z" />
    <glyph glyph-name="Zacute" unicode="&#x179;" 
d="M110 0v196l456 486v10h-456v108h530v-196l-456 -486v-10h456v-108h-530zM293 890l104 150h130l-134 -150h-100z" />
    <glyph glyph-name="zacute" unicode="&#x17a;" 
d="M132 600h486v-194l-420 -292v-10h420v-104h-486v194l420 292v10h-420v104zM293 690l104 150h130l-134 -150h-100z" />
    <glyph glyph-name="Zdotaccent" unicode="&#x17b;" 
d="M110 0v196l456 486v10h-456v108h530v-196l-456 -486v-10h456v-108h-530zM375 892q-41 0 -64.5 20.5t-23.5 57.5t23.5 57.5t64.5 20.5t64.5 -20.5t23.5 -57.5t-23.5 -57.5t-64.5 -20.5z" />
    <glyph glyph-name="zdotaccent" unicode="&#x17c;" 
d="M132 600h486v-194l-420 -292v-10h420v-104h-486v194l420 292v10h-420v104zM375 692q-41 0 -64.5 20.5t-23.5 57.5t23.5 57.5t64.5 20.5t64.5 -20.5t23.5 -57.5t-23.5 -57.5t-64.5 -20.5z" />
    <glyph glyph-name="Zcaron" unicode="&#x17d;" 
d="M110 0v196l456 486v10h-456v108h530v-196l-456 -486v-10h456v-108h-530zM548 1040l-104 -150h-138l-104 150h100l106 -119h-66l106 119h100z" />
    <glyph glyph-name="zcaron" unicode="&#x17e;" 
d="M132 600h486v-194l-420 -292v-10h420v-104h-486v194l420 292v10h-420v104zM548 840l-104 -150h-138l-104 150h100l106 -119h-66l106 119h100z" />
    <glyph glyph-name="uni018F" unicode="&#x18f;" 
d="M614 333h-454l29 47q0 -148 44.5 -219t137.5 -71q104 0 154.5 74.5t50.5 228.5q0 162 -52 239.5t-161 77.5q-67 0 -116.5 -39.5t-79.5 -117.5h-107q29 126 108 194.5t195 68.5q162 0 244.5 -107t82.5 -316q0 -202 -80.5 -305.5t-238.5 -103.5q-146 0 -221 99.5t-75 294.5
q0 25 1 39t2 18h536v-102z" />
    <glyph glyph-name="florin" unicode="&#x192;" 
d="M630 848v-104h-60q-67 0 -103.5 -31t-36.5 -89v-24h200v-104h-200v-472q0 -107 -54.5 -165.5t-155.5 -58.5h-40v104h40q48 0 74 31t26 89v472h-140v104h140v24q0 107 65 165.5t185 58.5h60z" />
    <glyph glyph-name="uni019D" unicode="&#x19d;" 
d="M-28 -240v96h20q50 0 75 25.5t25 75.5v43l53 20l55 -20v-37q0 -100 -52 -151.5t-154 -51.5h-22zM92 0v800h200l252 -730h10l-4 180v550h108v-800h-200l-252 730h-10l4 -180v-550h-108z" />
    <glyph glyph-name="uni01CD" unicode="&#x1cd;" 
d="M56 0l226 800h186l226 -800h-120l-197 712h-10l-198 -712h-113zM185 271v108h380v-108h-380zM548 1040l-104 -150h-138l-104 150h100l106 -119h-66l106 119h100z" />
    <glyph glyph-name="uni01CE" unicode="&#x1ce;" 
d="M530 376v-97l-214 -32q-43 -7 -63 -28.5t-20 -55.5q0 -32 28 -53.5t71 -21.5q52 0 94 23t67 61.5t25 86.5v121q0 63 -39.5 98t-110.5 35q-49 0 -87 -14.5t-62 -41.5t-33 -67h-106q6 70 43.5 120.5t101 78t147.5 27.5q122 0 188 -59t66 -169v-388h-108v60h-30
q-28 -37 -72 -56.5t-106 -19.5q-60 0 -103.5 22t-67 61.5t-23.5 92.5q0 74 49 121.5t140 60.5zM545 840l-104 -150h-138l-104 150h100l106 -119h-66l106 119h100z" />
    <glyph glyph-name="Gcaron" unicode="&#x1e6;" 
d="M362 -16q-136 0 -212 106.5t-76 309.5q0 206 81 311t238 105q85 0 147 -33.5t98.5 -95t44.5 -147.5h-108q-16 78 -61.5 123t-120.5 45q-104 0 -154.5 -75.5t-50.5 -232.5q0 -160 49.5 -237t152.5 -77q47 0 86.5 28t63 75t23.5 103h-194v108h294v-400h-100v70h-30
q-19 -40 -64.5 -63t-106.5 -23zM569 1040l-104 -150h-138l-104 150h100l106 -119h-66l106 119h100z" />
    <glyph glyph-name="gcaron" unicode="&#x1e7;" 
d="M646 20q0 -71 -34 -124t-97 -82.5t-151 -29.5q-81 0 -143 24.5t-98 68.5t-39 103h108q17 -45 62.5 -70.5t109.5 -25.5q81 0 126.5 38.5t45.5 107.5v64h-30q-22 -30 -65.5 -48t-92.5 -18q-79 0 -138.5 36.5t-92.5 102.5t-33 153q0 89 33 155.5t92.5 103.5t138.5 37
q50 0 93.5 -19t64.5 -51h30v54h110v-580zM194 320q0 -89 46.5 -140.5t127.5 -51.5t127.5 51.5t46.5 140.5t-46.5 140.5t-127.5 51.5t-127.5 -51.5t-46.5 -140.5zM558 840l-104 -150h-138l-104 150h100l106 -119h-66l106 119h100z" />
    <glyph glyph-name="Aringacute" unicode="&#x1fa;" 
d="M56 0l226 800h186l226 -800h-120l-197 712h-10l-198 -712h-113zM185 271v108h380v-108h-380zM375 826q-55 0 -85.5 19.5t-30.5 54.5t30.5 54.5t85.5 19.5q56 0 86 -19.5t30 -54.5t-30 -54.5t-86 -19.5zM375 876q48 0 48 24t-48 24t-48 -24t48 -24zM327 1000l64 82h120
l-94 -82h-90z" />
    <glyph glyph-name="aringacute" unicode="&#x1fb;" 
d="M530 376v-97l-214 -32q-43 -7 -63 -28.5t-20 -55.5q0 -32 28 -53.5t71 -21.5q52 0 94 23t67 61.5t25 86.5v121q0 63 -39.5 98t-110.5 35q-49 0 -87 -14.5t-62 -41.5t-33 -67h-106q6 70 43.5 120.5t101 78t147.5 27.5q122 0 188 -59t66 -169v-388h-108v60h-30
q-28 -37 -72 -56.5t-106 -19.5q-60 0 -103.5 22t-67 61.5t-23.5 92.5q0 74 49 121.5t140 60.5zM372 668q-58 0 -94 29.5t-36 77.5t36 77.5t94 29.5t94 -29.5t36 -77.5t-36 -77.5t-94 -29.5zM372 724q28 0 45 14.5t17 36.5q0 23 -17 37t-45 14t-45 -14t-17 -37
q0 -22 17 -36.5t45 -14.5zM314 932l104 150h130l-134 -150h-100z" />
    <glyph glyph-name="AEacute" unicode="&#x1fc;" 
d="M380 0v271h-185v100h185v321h-36l-213 -692h-116l252 800h443v-108h-216v-239h176v-100h-176v-245h206v-108h-320zM378 890l104 150h130l-134 -150h-100z" />
    <glyph glyph-name="aeacute" unicode="&#x1fd;" 
d="M540 -16q-98 0 -148 78t-50 243q0 160 47 235.5t147 75.5q60 0 99 -33.5t58 -101.5t19 -174q0 -11 -0.5 -21.5t-1.5 -21.5h-300v98h237l-37 -57q0 77 -8 123t-25.5 67t-46.5 21q-32 0 -53 -22.5t-31 -69.5t-10 -119q0 -75 10.5 -124t32.5 -73t55 -24q34 0 56.5 24.5
t33.5 75.5h102q-11 -97 -60.5 -148.5t-125.5 -51.5zM342 376v-97l-110 -32q-40 -11 -58.5 -33t-18.5 -56q0 -31 19.5 -50.5t51.5 -19.5q48 0 77 38.5t29 102.5v151q0 68 -22.5 100.5t-67.5 32.5t-72.5 -30t-41.5 -93h-104q11 109 68 167.5t154 58.5q87 0 133.5 -59.5
t46.5 -168.5v-288l-24 -30h-40q-25 -44 -62.5 -65t-93.5 -21q-76 0 -122 45.5t-46 120.5q0 72 44.5 119t138.5 73zM293 690l104 150h130l-134 -150h-100z" />
    <glyph glyph-name="Oslashacute" unicode="&#x1fe;" 
d="M581 816h109l-521 -832h-109zM375 -16q-156 0 -235.5 105t-79.5 311t79.5 311t235.5 105t235.5 -105t79.5 -311t-79.5 -311t-235.5 -105zM375 92q103 0 152 75.5t49 232.5t-49 232.5t-152 75.5t-152 -75.5t-49 -232.5t49 -232.5t152 -75.5zM293 890l104 150h130
l-134 -150h-100z" />
    <glyph glyph-name="oslashacute" unicode="&#x1ff;" 
d="M559 616h111l-479 -632h-111zM375 -16q-88 0 -154.5 39.5t-103.5 110.5t-37 166t37 166t103.5 110.5t154.5 39.5q89 0 155 -39.5t103 -110.5t37 -166t-37 -166t-103 -110.5t-155 -39.5zM375 88q86 0 135.5 57t49.5 155t-49.5 155t-135.5 57t-135.5 -57t-49.5 -155
t49.5 -155t135.5 -57zM293 690l104 150h130l-134 -150h-100z" />
    <glyph glyph-name="uni0218" unicode="&#x218;" 
d="M200 204q17 -54 64 -83t118 -29q78 0 123 35.5t45 96.5q0 48 -31 76.5t-93 35.5l-102 12q-112 14 -169 70.5t-57 155.5q0 73 36 127t101 84.5t151 30.5q85 0 150 -29t103 -82.5t43 -128.5h-110q-16 63 -64.5 97.5t-121.5 34.5q-82 0 -129 -36t-47 -98q0 -48 31.5 -76
t92.5 -36l102 -12q113 -13 169.5 -70t56.5 -156q0 -72 -35 -126t-98 -84t-147 -30q-85 0 -149.5 26.5t-102 76t-42.5 117.5h112zM376 -170q-31 0 -49.5 15t-18.5 40t18.5 40t49.5 15t49.5 -15t18.5 -40t-18.5 -40t-49.5 -15zM302 -250q36 24 55 48t19 40v102q35 0 53.5 -18
t18.5 -52q0 -29 -11.5 -60t-32.5 -60h-102z" />
    <glyph glyph-name="uni0219" unicode="&#x219;" 
d="M217 184q15 -46 57.5 -71t109.5 -25q70 0 105 21t35 63q0 26 -28.5 43t-85.5 25l-86 12q-106 15 -155 56.5t-49 117.5q0 90 69 140t193 50q125 0 196.5 -56t75.5 -156h-100q-15 52 -59 80t-115 28q-74 0 -112 -21t-38 -63q0 -26 28.5 -43t85.5 -25l86 -12
q107 -15 155.5 -56.5t48.5 -117.5q0 -60 -30 -102.5t-86 -65t-136 -22.5q-121 0 -191 53t-75 147h101zM381 -170q-31 0 -49.5 15t-18.5 40t18.5 40t49.5 15t49.5 -15t18.5 -40t-18.5 -40t-49.5 -15zM307 -250q36 24 55 48t19 40v102q35 0 53.5 -18t18.5 -52q0 -29 -11.5 -60
t-32.5 -60h-102z" />
    <glyph glyph-name="uni021A" unicode="&#x21a;" 
d="M318 0v692h-258v108h630v-108h-258v-692h-114zM373 -170q-31 0 -49.5 15t-18.5 40t18.5 40t49.5 15t49.5 -15t18.5 -40t-18.5 -40t-49.5 -15zM299 -250q36 24 55 48t19 40v102q35 0 53.5 -18t18.5 -52q0 -29 -11.5 -60t-32.5 -60h-102z" />
    <glyph glyph-name="uni021B" unicode="&#x21b;" 
d="M340 756v-156h294v-104h-294v-296q0 -55 25.5 -83.5t74.5 -28.5q48 0 76 30.5t41 91.5h98q-6 -109 -63 -167.5t-156 -58.5t-152.5 56.5t-53.5 159.5v296h-146v104h146v156h110zM442 -170q-31 0 -49.5 15t-18.5 40t18.5 40t49.5 15t49.5 -15t18.5 -40t-18.5 -40t-49.5 -15
zM368 -250q36 24 55 48t19 40v102q35 0 53.5 -18t18.5 -52q0 -29 -11.5 -60t-32.5 -60h-102z" />
    <glyph glyph-name="uni0232" unicode="&#x232;" 
d="M169 800l194 -327l10 -29h10l10 29l197 327h117l-275 -452v-348h-114v348l-275 452h126zM205 920v90h340v-90h-340z" />
    <glyph glyph-name="uni0233" unicode="&#x233;" 
d="M72 600h121l175 -450h73l-33 -100h-121zM680 600l-242 -686q-22 -61 -64 -95.5t-96 -34.5q-80 0 -127 42.5t-53 121.5h100q14 -34 30.5 -49t43.5 -15q25 0 40.5 15t28.5 49l227 652h112zM208 720v90h340v-90h-340z" />
    <glyph glyph-name="uni0237" unicode="&#x237;" 
d="M145 600h390v-616q0 -96 -55 -148t-157 -52q-96 0 -151.5 44t-62.5 126h104q15 -34 42.5 -52t67.5 -18q48 0 75 29t27 81v502h-280v104z" />
    <glyph glyph-name="uni0259" unicode="&#x259;" 
d="M565 238h-400l37 57q0 -100 42 -155.5t118 -55.5q84 0 132 57t48 154q0 105 -47.5 163t-136.5 58q-55 0 -99 -26t-73 -74h-104q15 60 54.5 105t96.5 70t125 25q91 0 156 -39t100.5 -110.5t35.5 -171.5q0 -93 -36 -163t-100.5 -109t-151.5 -39q-81 0 -139.5 37.5
t-90.5 106.5t-32 165q0 11 0.5 22t1.5 21h463v-98z" />
    <glyph glyph-name="uni0272" unicode="&#x272;" 
d="M10 -216v94h20q90 0 90 99v23l55 20l55 -20v-17q0 -98 -50 -148.5t-148 -50.5h-22zM120 0v600h110v-48h30q25 30 65 47t86 17q70 0 121.5 -30t80.5 -84t29 -126v-376h-110v346q0 79 -39 121.5t-112 42.5t-112 -42.5t-39 -121.5v-346h-110z" />
    <glyph glyph-name="uni02BC" unicode="&#x2bc;" 
d="M262 504q39 28 70.5 78t42.5 102v180q56 0 82.5 -30.5t26.5 -93.5q0 -43 -8.5 -87.5t-23 -83t-34.5 -65.5h-156zM375 676q-47 0 -73 24.5t-26 69.5t26 69.5t73 24.5t73 -24.5t26 -69.5t-26 -69.5t-73 -24.5z" />
    <glyph glyph-name="circumflex" unicode="&#x2c6;" 
d="M202 690l104 150h138l104 -150h-100l-106 119h66l-106 -119h-100z" />
    <glyph glyph-name="caron" unicode="&#x2c7;" 
d="M548 840l-104 -150h-138l-104 150h100l106 -119h-66l106 119h100z" />
    <glyph glyph-name="breve" unicode="&#x2d8;" 
d="M293 830q3 -37 24 -55.5t58 -18.5q38 0 58.5 18.5t23.5 55.5h100q-7 -74 -52.5 -112t-129.5 -38t-129.5 38t-52.5 112h100z" />
    <glyph glyph-name="dotaccent" unicode="&#x2d9;" 
d="M375 692q-41 0 -64.5 20.5t-23.5 57.5t23.5 57.5t64.5 20.5t64.5 -20.5t23.5 -57.5t-23.5 -57.5t-64.5 -20.5z" />
    <glyph glyph-name="ring" unicode="&#x2da;" 
d="M375 668q-58 0 -94 29.5t-36 77.5t36 77.5t94 29.5t94 -29.5t36 -77.5t-36 -77.5t-94 -29.5zM375 724q28 0 45 14.5t17 36.5q0 23 -17 37t-45 14t-45 -14t-17 -37q0 -22 17 -36.5t45 -14.5z" />
    <glyph glyph-name="ogonek" unicode="&#x2db;" 
d="M408 -216q-58 0 -92 26t-34 72q0 33 20.5 64.5t55.5 53.5l50 2l56 -2q-38 -18 -60 -43t-22 -51q0 -19 13 -30.5t35 -11.5q11 0 18 1t16 3v-78q-12 -3 -25 -4.5t-31 -1.5z" />
    <glyph glyph-name="tilde" unicode="&#x2dc;" 
d="M163 690q6 68 40.5 107t89.5 39q45 0 74 -12.5t49.5 -25t40.5 -12.5q16 0 28 14.5t18 39.5h84q-6 -68 -40.5 -107t-89.5 -39q-45 0 -74 12.5t-49.5 25t-40.5 12.5q-16 0 -28 -14t-18 -40h-84z" />
    <glyph glyph-name="hungarumlaut" unicode="&#x2dd;" 
d="M197 690l94 150h128l-124 -150h-98zM395 690l124 150h136l-154 -150h-106z" />
    <glyph glyph-name="gravecomb" unicode="&#x300;" horiz-adv-x="0" 
d="M457 690h-100l-134 150h130z" />
    <glyph glyph-name="acutecomb" unicode="&#x301;" horiz-adv-x="0" 
d="M293 690l104 150h130l-134 -150h-100z" />
    <glyph glyph-name="uni0302" unicode="&#x302;" horiz-adv-x="0" 
d="M202 690l104 150h138l104 -150h-100l-106 119h66l-106 -119h-100z" />
    <glyph glyph-name="tildecomb" unicode="&#x303;" horiz-adv-x="0" 
d="M187 690q7 77 34.5 111.5t81.5 34.5q40 0 64.5 -12.5t42 -25t37.5 -12.5q14 0 21 13t11 41h84q-7 -76 -34.5 -111t-81.5 -35q-40 0 -64.5 12.5t-42 25t-37.5 12.5q-13 0 -20.5 -12.5t-11.5 -41.5h-84z" />
    <glyph glyph-name="uni0304" unicode="&#x304;" horiz-adv-x="0" 
d="M205 720v90h340v-90h-340z" />
    <glyph glyph-name="uni0306" unicode="&#x306;" horiz-adv-x="0" 
d="M293 830q3 -37 24 -55.5t58 -18.5q38 0 58.5 18.5t23.5 55.5h100q-7 -74 -52.5 -112t-129.5 -38t-129.5 38t-52.5 112h100z" />
    <glyph glyph-name="uni0307" unicode="&#x307;" horiz-adv-x="0" 
d="M375 692q-41 0 -64.5 20.5t-23.5 57.5t23.5 57.5t64.5 20.5t64.5 -20.5t23.5 -57.5t-23.5 -57.5t-64.5 -20.5z" />
    <glyph glyph-name="uni0308" unicode="&#x308;" horiz-adv-x="0" 
d="M264 701q-35 0 -54.5 17t-19.5 47t19.5 47t54.5 17t54.5 -17t19.5 -47t-19.5 -47t-54.5 -17zM486 701q-35 0 -54.5 17t-19.5 47t19.5 47t54.5 17t54.5 -17t19.5 -47t-19.5 -47t-54.5 -17z" />
    <glyph glyph-name="uni030A" unicode="&#x30a;" horiz-adv-x="0" 
d="M375 668q-58 0 -94 29.5t-36 77.5t36 77.5t94 29.5t94 -29.5t36 -77.5t-36 -77.5t-94 -29.5zM375 724q28 0 45 14.5t17 36.5q0 23 -17 37t-45 14t-45 -14t-17 -37q0 -22 17 -36.5t45 -14.5z" />
    <glyph glyph-name="uni030B" unicode="&#x30b;" horiz-adv-x="0" 
d="M197 690l94 150h128l-124 -150h-98zM395 690l124 150h136l-154 -150h-106z" />
    <glyph glyph-name="uni030C" unicode="&#x30c;" horiz-adv-x="0" 
d="M548 840l-104 -150h-138l-104 150h100l106 -119h-66l106 119h100z" />
    <glyph glyph-name="uni0312" unicode="&#x312;" horiz-adv-x="0" 
d="M377 770q31 0 49.5 -15t18.5 -40t-18.5 -40t-49.5 -15t-49.5 15t-18.5 40t18.5 40t49.5 15zM451 850q-36 -24 -55 -48t-19 -40v-102q-34 0 -53 18t-19 52q0 29 11.5 60.5t32.5 59.5h102z" />
    <glyph glyph-name="dotbelowcomb" unicode="&#x323;" horiz-adv-x="0" 
d="M375 -248q-41 0 -64.5 20.5t-23.5 57.5t23.5 57.5t64.5 20.5t64.5 -20.5t23.5 -57.5t-23.5 -57.5t-64.5 -20.5z" />
    <glyph glyph-name="uni0326" unicode="&#x326;" horiz-adv-x="0" 
d="M373 -170q-31 0 -49.5 15t-18.5 40t18.5 40t49.5 15t49.5 -15t18.5 -40t-18.5 -40t-49.5 -15zM299 -250q36 24 55 48t19 40v102q35 0 53.5 -18t18.5 -52q0 -29 -11.5 -60t-32.5 -60h-102z" />
    <glyph glyph-name="uni0327" unicode="&#x327;" horiz-adv-x="0" 
d="M350 20h88l-18 -58q43 -6 65.5 -28t22.5 -56q0 -44 -37 -69t-103 -25q-61 0 -97 23.5t-39 66.5h84q5 -12 19 -19t35 -7q20 0 31 8.5t11 22.5t-10.5 23t-30.5 10l-47 4z" />
    <glyph glyph-name="uni0328" unicode="&#x328;" horiz-adv-x="0" 
d="M408 -216q-58 0 -92 26t-34 72q0 33 20.5 64.5t55.5 53.5l50 2l56 -2q-38 -18 -60 -43t-22 -51q0 -19 13 -30.5t35 -11.5q11 0 18 1t16 3v-78q-12 -3 -25 -4.5t-31 -1.5z" />
    <glyph glyph-name="uni1E0C" unicode="&#x1e0c;" 
d="M100 0v800h240q173 0 261.5 -101.5t88.5 -298.5q0 -196 -88.5 -298t-261.5 -102h-240zM214 108h126q117 0 176.5 73.5t59.5 218.5q0 146 -59.5 219t-176.5 73h-126v-584zM355 -248q-41 0 -64.5 20.5t-23.5 57.5t23.5 57.5t64.5 20.5t64.5 -20.5t23.5 -57.5t-23.5 -57.5
t-64.5 -20.5z" />
    <glyph glyph-name="uni1E0D" unicode="&#x1e0d;" 
d="M334 -16q-81 0 -141.5 39.5t-94.5 110.5t-34 166t34 166t94.5 110.5t141.5 39.5q54 0 99.5 -20.5t66.5 -55.5h30v308h110v-848h-110v60h-30q-21 -34 -66.5 -55t-99.5 -21zM354 88q84 0 132 57t48 155t-48 155t-132 57t-132 -57t-48 -155t48 -155t132 -57zM375 -248
q-41 0 -64.5 20.5t-23.5 57.5t23.5 57.5t64.5 20.5t64.5 -20.5t23.5 -57.5t-23.5 -57.5t-64.5 -20.5z" />
    <glyph glyph-name="uni1E24" unicode="&#x1e24;" 
d="M100 0v800h114v-343h322v343h114v-800h-114v349h-322v-349h-114zM375 -248q-41 0 -64.5 20.5t-23.5 57.5t23.5 57.5t64.5 20.5t64.5 -20.5t23.5 -57.5t-23.5 -57.5t-64.5 -20.5z" />
    <glyph glyph-name="uni1E25" unicode="&#x1e25;" 
d="M120 0v848h110v-296h30q25 30 65 47t86 17q70 0 121.5 -30t80.5 -84t29 -126v-376h-110v346q0 79 -39 121.5t-112 42.5t-112 -42.5t-39 -121.5v-346h-110zM375 -248q-41 0 -64.5 20.5t-23.5 57.5t23.5 57.5t64.5 20.5t64.5 -20.5t23.5 -57.5t-23.5 -57.5t-64.5 -20.5z
" />
    <glyph glyph-name="uni1E62" unicode="&#x1e62;" 
d="M200 204q17 -54 64 -83t118 -29q78 0 123 35.5t45 96.5q0 48 -31 76.5t-93 35.5l-102 12q-112 14 -169 70.5t-57 155.5q0 73 36 127t101 84.5t151 30.5q85 0 150 -29t103 -82.5t43 -128.5h-110q-16 63 -64.5 97.5t-121.5 34.5q-82 0 -129 -36t-47 -98q0 -48 31.5 -76
t92.5 -36l102 -12q113 -13 169.5 -70t56.5 -156q0 -72 -35 -126t-98 -84t-147 -30q-85 0 -149.5 26.5t-102 76t-42.5 117.5h112zM378 -248q-41 0 -64.5 20.5t-23.5 57.5t23.5 57.5t64.5 20.5t64.5 -20.5t23.5 -57.5t-23.5 -57.5t-64.5 -20.5z" />
    <glyph glyph-name="uni1E63" unicode="&#x1e63;" 
d="M217 184q15 -46 57.5 -71t109.5 -25q70 0 105 21t35 63q0 26 -28.5 43t-85.5 25l-86 12q-106 15 -155 56.5t-49 117.5q0 90 69 140t193 50q125 0 196.5 -56t75.5 -156h-100q-15 52 -59 80t-115 28q-74 0 -112 -21t-38 -63q0 -26 28.5 -43t85.5 -25l86 -12
q107 -15 155.5 -56.5t48.5 -117.5q0 -60 -30 -102.5t-86 -65t-136 -22.5q-121 0 -191 53t-75 147h101zM383 -248q-41 0 -64.5 20.5t-23.5 57.5t23.5 57.5t64.5 20.5t64.5 -20.5t23.5 -57.5t-23.5 -57.5t-64.5 -20.5z" />
    <glyph glyph-name="uni1E6C" unicode="&#x1e6c;" 
d="M318 0v692h-258v108h630v-108h-258v-692h-114zM375 -248q-41 0 -64.5 20.5t-23.5 57.5t23.5 57.5t64.5 20.5t64.5 -20.5t23.5 -57.5t-23.5 -57.5t-64.5 -20.5z" />
    <glyph glyph-name="uni1E6D" unicode="&#x1e6d;" 
d="M340 756v-156h294v-104h-294v-296q0 -55 25.5 -83.5t74.5 -28.5q48 0 76 30.5t41 91.5h98q-6 -109 -63 -167.5t-156 -58.5t-152.5 56.5t-53.5 159.5v296h-146v104h146v156h110zM444 -248q-41 0 -64.5 20.5t-23.5 57.5t23.5 57.5t64.5 20.5t64.5 -20.5t23.5 -57.5
t-23.5 -57.5t-64.5 -20.5z" />
    <glyph glyph-name="Wgrave" unicode="&#x1e80;" 
d="M131 800l77 -600l12 -120h10l67 520h166l63 -520h10l12 120l78 600h100l-111 -800h-168l-65 540h-10l-70 -540h-167l-111 800h107zM448 890h-100l-134 150h130z" />
    <glyph glyph-name="wgrave" unicode="&#x1e81;" 
d="M151 0l-118 600h116l57 -350l19 -170h10l63 520h164l63 -520h10l18 170l59 350h105l-118 -600h-156l-63 524h-10l-63 -524h-156zM430 690h-100l-134 150h130z" />
    <glyph glyph-name="Wacute" unicode="&#x1e82;" 
d="M131 800l77 -600l12 -120h10l67 520h166l63 -520h10l12 120l78 600h100l-111 -800h-168l-65 540h-10l-70 -540h-167l-111 800h107zM338 890l104 150h130l-134 -150h-100z" />
    <glyph glyph-name="wacute" unicode="&#x1e83;" 
d="M151 0l-118 600h116l57 -350l19 -170h10l63 520h164l63 -520h10l18 170l59 350h105l-118 -600h-156l-63 524h-10l-63 -524h-156zM334 690l104 150h130l-134 -150h-100z" />
    <glyph glyph-name="Wdieresis" unicode="&#x1e84;" 
d="M131 800l77 -600l12 -120h10l67 520h166l63 -520h10l12 120l78 600h100l-111 -800h-168l-65 540h-10l-70 -540h-167l-111 800h107zM264 901q-35 0 -54.5 17t-19.5 47t19.5 47t54.5 17t54.5 -17t19.5 -47t-19.5 -47t-54.5 -17zM486 901q-35 0 -54.5 17t-19.5 47t19.5 47
t54.5 17t54.5 -17t19.5 -47t-19.5 -47t-54.5 -17z" />
    <glyph glyph-name="wdieresis" unicode="&#x1e85;" 
d="M151 0l-118 600h116l57 -350l19 -170h10l63 520h164l63 -520h10l18 170l59 350h105l-118 -600h-156l-63 524h-10l-63 -524h-156zM264 701q-35 0 -54.5 17t-19.5 47t19.5 47t54.5 17t54.5 -17t19.5 -47t-19.5 -47t-54.5 -17zM486 701q-35 0 -54.5 17t-19.5 47t19.5 47
t54.5 17t54.5 -17t19.5 -47t-19.5 -47t-54.5 -17z" />
    <glyph glyph-name="uni1E92" unicode="&#x1e92;" 
d="M110 0v196l456 486v10h-456v108h530v-196l-456 -486v-10h456v-108h-530zM375 -248q-41 0 -64.5 20.5t-23.5 57.5t23.5 57.5t64.5 20.5t64.5 -20.5t23.5 -57.5t-23.5 -57.5t-64.5 -20.5z" />
    <glyph glyph-name="uni1E93" unicode="&#x1e93;" 
d="M132 600h486v-194l-420 -292v-10h420v-104h-486v194l420 292v10h-420v104zM375 -248q-41 0 -64.5 20.5t-23.5 57.5t23.5 57.5t64.5 20.5t64.5 -20.5t23.5 -57.5t-23.5 -57.5t-64.5 -20.5z" />
    <glyph glyph-name="uni1E9E" unicode="&#x1e9e;" 
d="M100 0v528q0 131 72.5 201.5t205.5 70.5h272v-108l-225 -261l-24 41h31q83 0 143 -28t92.5 -80t32.5 -124q0 -112 -71.5 -176t-196.5 -64h-98v108h94q74 0 116 35.5t42 96.5q0 62 -42 97t-116 35h-94v100l221 257v-37h-181q-76 0 -118 -41.5t-42 -118.5v-532h-114z" />
    <glyph glyph-name="uni1EBC" unicode="&#x1ebc;" 
d="M150 0v800h510v-108h-396v-239h346v-100h-346v-245h386v-108h-500zM226 890q7 77 34.5 111.5t81.5 34.5q40 0 64.5 -12.5t42 -25t37.5 -12.5q14 0 21 13t11 41h84q-7 -76 -34.5 -111t-81.5 -35q-40 0 -64.5 12.5t-42 25t-37.5 12.5q-13 0 -20.5 -12.5t-11.5 -41.5h-84z
" />
    <glyph glyph-name="uni1EBD" unicode="&#x1ebd;" 
d="M185 362h400l-37 -57q0 101 -41.5 156t-118.5 55q-84 0 -132 -56.5t-48 -154.5q0 -105 48 -163t136 -58q56 0 99.5 26t72.5 74h104q-15 -60 -54.5 -105t-96.5 -70t-125 -25q-90 0 -155.5 39t-101 111t-35.5 171q0 94 36 163.5t101 108.5t151 39q81 0 140 -37t90.5 -106.5
t31.5 -165.5q0 -11 -0.5 -21.5t-1.5 -21.5h-463v98zM196 690q7 77 34.5 111.5t81.5 34.5q40 0 64.5 -12.5t42 -25t37.5 -12.5q14 0 21 13t11 41h84q-7 -76 -34.5 -111t-81.5 -35q-40 0 -64.5 12.5t-42 25t-37.5 12.5q-13 0 -20.5 -12.5t-11.5 -41.5h-84z" />
    <glyph glyph-name="uni1ECA" unicode="&#x1eca;" 
d="M100 0v108h218v584h-218v108h550v-108h-218v-584h218v-108h-550zM375 -248q-41 0 -64.5 20.5t-23.5 57.5t23.5 57.5t64.5 20.5t64.5 -20.5t23.5 -57.5t-23.5 -57.5t-64.5 -20.5z" />
    <glyph glyph-name="uni1ECB" unicode="&#x1ecb;" 
d="M155 600h310v-496h200v-104h-510v104h200v392h-200v104zM402 692q-41 0 -64.5 20.5t-23.5 57.5t23.5 57.5t64.5 20.5t64.5 -20.5t23.5 -57.5t-23.5 -57.5t-64.5 -20.5zM402 -248q-41 0 -64.5 20.5t-23.5 57.5t23.5 57.5t64.5 20.5t64.5 -20.5t23.5 -57.5t-23.5 -57.5
t-64.5 -20.5z" />
    <glyph glyph-name="uni1ECC" unicode="&#x1ecc;" 
d="M375 -16q-156 0 -235.5 105t-79.5 311t79.5 311t235.5 105t235.5 -105t79.5 -311t-79.5 -311t-235.5 -105zM375 92q103 0 152 75.5t49 232.5t-49 232.5t-152 75.5t-152 -75.5t-49 -232.5t49 -232.5t152 -75.5zM375 -248q-41 0 -64.5 20.5t-23.5 57.5t23.5 57.5t64.5 20.5
t64.5 -20.5t23.5 -57.5t-23.5 -57.5t-64.5 -20.5z" />
    <glyph glyph-name="uni1ECD" unicode="&#x1ecd;" 
d="M375 -16q-88 0 -154.5 39.5t-103.5 110.5t-37 166t37 166t103.5 110.5t154.5 39.5q89 0 155 -39.5t103 -110.5t37 -166t-37 -166t-103 -110.5t-155 -39.5zM375 88q86 0 135.5 57t49.5 155t-49.5 155t-135.5 57t-135.5 -57t-49.5 -155t49.5 -155t135.5 -57zM375 -248
q-41 0 -64.5 20.5t-23.5 57.5t23.5 57.5t64.5 20.5t64.5 -20.5t23.5 -57.5t-23.5 -57.5t-64.5 -20.5z" />
    <glyph glyph-name="uni1EE4" unicode="&#x1ee4;" 
d="M90 800h114v-510q0 -93 45.5 -145.5t127.5 -52.5t127.5 52.5t45.5 145.5v510h110v-520q0 -144 -73 -220t-212 -76t-212 76t-73 220v520zM375 -248q-41 0 -64.5 20.5t-23.5 57.5t23.5 57.5t64.5 20.5t64.5 -20.5t23.5 -57.5t-23.5 -57.5t-64.5 -20.5z" />
    <glyph glyph-name="uni1EE5" unicode="&#x1ee5;" 
d="M630 600v-600h-110v48h-30q-25 -30 -65 -47t-86 -17q-69 0 -121 30t-81 84t-29 126v376h110v-346q0 -79 39 -121.5t112 -42.5t112 42.5t39 121.5v346h110zM375 -248q-41 0 -64.5 20.5t-23.5 57.5t23.5 57.5t64.5 20.5t64.5 -20.5t23.5 -57.5t-23.5 -57.5t-64.5 -20.5z
" />
    <glyph glyph-name="Ygrave" unicode="&#x1ef2;" 
d="M169 800l194 -327l10 -29h10l10 29l197 327h117l-275 -452v-348h-114v348l-275 452h126zM457 890h-100l-134 150h130z" />
    <glyph glyph-name="ygrave" unicode="&#x1ef3;" 
d="M72 600h121l175 -450h73l-33 -100h-121zM680 600l-242 -686q-22 -61 -64 -95.5t-96 -34.5q-80 0 -127 42.5t-53 121.5h100q14 -34 30.5 -49t43.5 -15q25 0 40.5 15t28.5 49l227 652h112zM460 690h-100l-134 150h130z" />
    <glyph glyph-name="uni1EF8" unicode="&#x1ef8;" 
d="M169 800l194 -327l10 -29h10l10 29l197 327h117l-275 -452v-348h-114v348l-275 452h126zM187 890q7 77 34.5 111.5t81.5 34.5q40 0 64.5 -12.5t42 -25t37.5 -12.5q14 0 21 13t11 41h84q-7 -76 -34.5 -111t-81.5 -35q-40 0 -64.5 12.5t-42 25t-37.5 12.5
q-13 0 -20.5 -12.5t-11.5 -41.5h-84z" />
    <glyph glyph-name="uni1EF9" unicode="&#x1ef9;" 
d="M72 600h121l175 -450h73l-33 -100h-121zM680 600l-242 -686q-22 -61 -64 -95.5t-96 -34.5q-80 0 -127 42.5t-53 121.5h100q14 -34 30.5 -49t43.5 -15q25 0 40.5 15t28.5 49l227 652h112zM190 690q7 77 34.5 111.5t81.5 34.5q40 0 64.5 -12.5t42 -25t37.5 -12.5
q14 0 21 13t11 41h84q-7 -76 -34.5 -111t-81.5 -35q-40 0 -64.5 12.5t-42 25t-37.5 12.5q-13 0 -20.5 -12.5t-11.5 -41.5h-84z" />
    <glyph glyph-name="uni2002" unicode="&#x2002;" 
 />
    <glyph glyph-name="uni2003" unicode="&#x2003;" 
 />
    <glyph glyph-name="uni2011" unicode="&#x2011;" 
d="M70 300v100h610v-100h-610z" />
    <glyph glyph-name="endash" unicode="&#x2013;" 
d="M70 400h610v-100h-610v100z" />
    <glyph glyph-name="emdash" unicode="&#x2014;" 
d="M40 400h670v-100h-670v100z" />
    <glyph glyph-name="quoteleft" unicode="&#x2018;" 
d="M488 848q-39 -28 -70.5 -77.5t-42.5 -102.5v-180q-55 0 -82 30.5t-27 93.5q0 44 8.5 88t23.5 83t34 65h156zM375 676q47 0 73 -24.5t26 -69.5t-26 -69.5t-73 -24.5t-73 24.5t-26 69.5t26 69.5t73 24.5z" />
    <glyph glyph-name="quoteright" unicode="&#x2019;" 
d="M262 504q39 28 70.5 78t42.5 102v180q56 0 82.5 -30.5t26.5 -93.5q0 -43 -8.5 -87.5t-23 -83t-34.5 -65.5h-156zM375 676q-47 0 -73 24.5t-26 69.5t26 69.5t73 24.5t73 -24.5t26 -69.5t-26 -69.5t-73 -24.5z" />
    <glyph glyph-name="quotesinglbase" unicode="&#x201a;" 
d="M262 -180q39 28 70.5 78t42.5 102v180q56 0 82.5 -30.5t26.5 -93.5q0 -43 -8.5 -87.5t-23 -83t-34.5 -65.5h-156zM375 -8q-47 0 -73 24.5t-26 69.5t26 69.5t73 24.5t73 -24.5t26 -69.5t-26 -69.5t-73 -24.5z" />
    <glyph glyph-name="quotedblleft" unicode="&#x201c;" 
d="M641 848q-39 -28 -70.5 -77.5t-42.5 -102.5v-180q-55 0 -82 30.5t-27 93.5q0 44 8.5 88t23.5 83t34 65h156zM528 676q47 0 73 -24.5t26 -69.5t-26 -69.5t-73 -24.5t-73 24.5t-26 69.5t26 69.5t73 24.5zM360 848q-39 -28 -70.5 -77.5t-42.5 -102.5v-180q-55 0 -82 30.5
t-27 93.5q0 44 8.5 88t23.5 83t34 65h156zM247 676q47 0 73 -24.5t26 -69.5t-26 -69.5t-73 -24.5t-73 24.5t-26 69.5t26 69.5t73 24.5z" />
    <glyph glyph-name="quotedblright" unicode="&#x201d;" 
d="M109 504q39 28 70.5 78t42.5 102v180q56 0 82.5 -30.5t26.5 -93.5q0 -43 -8.5 -87.5t-23 -83t-34.5 -65.5h-156zM222 676q-47 0 -73 24.5t-26 69.5t26 69.5t73 24.5t73 -24.5t26 -69.5t-26 -69.5t-73 -24.5zM390 504q39 28 70.5 78t42.5 102v180q56 0 82.5 -30.5
t26.5 -93.5q0 -43 -8.5 -87.5t-23 -83t-34.5 -65.5h-156zM503 676q-47 0 -73 24.5t-26 69.5t26 69.5t73 24.5t73 -24.5t26 -69.5t-26 -69.5t-73 -24.5z" />
    <glyph glyph-name="quotedblbase" unicode="&#x201e;" 
d="M109 -180q39 28 70.5 78t42.5 102v180q56 0 82.5 -30.5t26.5 -93.5q0 -43 -8.5 -87.5t-23 -83t-34.5 -65.5h-156zM222 -8q-47 0 -73 24.5t-26 69.5t26 69.5t73 24.5t73 -24.5t26 -69.5t-26 -69.5t-73 -24.5zM390 -180q39 28 70.5 78t42.5 102v180q56 0 82.5 -30.5
t26.5 -93.5q0 -43 -8.5 -87.5t-23 -83t-34.5 -65.5h-156zM503 -8q-47 0 -73 24.5t-26 69.5t26 69.5t73 24.5t73 -24.5t26 -69.5t-26 -69.5t-73 -24.5z" />
    <glyph glyph-name="dagger" unicode="&#x2020;" 
d="M321 -20v840h108v-840h-108zM135 504v96h480v-96h-480z" />
    <glyph glyph-name="daggerdbl" unicode="&#x2021;" 
d="M321 -20v840h108v-840h-108zM135 200v96h480v-96h-480zM135 504v96h480v-96h-480z" />
    <glyph glyph-name="bullet" unicode="&#x2022;" 
d="M375 150q-96 0 -148 52t-52 148t52 148t148 52t148 -52t52 -148t-52 -148t-148 -52z" />
    <glyph glyph-name="ellipsis" unicode="&#x2026;" 
d="M375 -8q-38 0 -59 24.5t-21 69.5t21 69.5t59 24.5t59 -24.5t21 -69.5t-21 -69.5t-59 -24.5zM620 -8q-38 0 -59 24.5t-21 69.5t21 69.5t59 24.5t59 -24.5t21 -69.5t-21 -69.5t-59 -24.5zM130 -8q-38 0 -59 24.5t-21 69.5t21 69.5t59 24.5t59 -24.5t21 -69.5t-21 -69.5
t-59 -24.5z" />
    <glyph glyph-name="perthousand" unicode="&#x2030;" 
d="M50 249v91l650 331v-91zM349 -16q-67 0 -104 45t-37 128t37 128t104 45q68 0 104.5 -45t36.5 -128t-36.5 -128t-104.5 -45zM359 80q26 0 39.5 19.5t13.5 57.5t-13.5 57.5t-39.5 19.5t-39.5 -19.5t-13.5 -57.5t13.5 -57.5t39.5 -19.5zM579 80q26 0 39.5 19.5t13.5 57.5
t-13.5 57.5t-39.5 19.5t-39.5 -19.5t-13.5 -57.5t13.5 -57.5t39.5 -19.5zM589 -16q-67 0 -104 45t-37 128t37 128t104 45q68 0 104.5 -45t36.5 -128t-36.5 -128t-104.5 -45zM171 470q-73 0 -112 45t-39 128t39 128t112 45t112 -45t39 -128t-39 -128t-112 -45zM171 566
q26 0 39.5 19.5t13.5 57.5t-13.5 57.5t-39.5 19.5t-39.5 -19.5t-13.5 -57.5t13.5 -57.5t39.5 -19.5z" />
    <glyph glyph-name="guilsinglleft" unicode="&#x2039;" 
d="M500 52l-250 216v132l250 216v-122l-218 -188v61l218 -188v-127z" />
    <glyph glyph-name="guilsinglright" unicode="&#x203a;" 
d="M250 616l250 -216v-132l-250 -216v122l218 188v-61l-218 188v127z" />
    <glyph glyph-name="fraction" unicode="&#x2044;" 
d="M701 800l-559 -800h-93l559 800h93z" />
    <glyph glyph-name="uni2070" unicode="&#x2070;" 
d="M375 471q-86 0 -133 58t-47 165t47 165t133 58t133 -58t47 -165t-47 -165t-133 -58zM375 549q47 0 70.5 36.5t23.5 108.5t-23.5 108.5t-70.5 36.5q-46 0 -70 -36.5t-24 -108.5t24 -108.5t70 -36.5zM246 648l258 176v-84l-258 -176v84z" />
    <glyph glyph-name="uni2074" unicode="&#x2074;" 
d="M486 908v-236h68v-78h-68v-114h-86v114h-214v93l165 221h135zM246 644v28h154v232h41z" />
    <glyph glyph-name="uni2075" unicode="&#x2075;" 
d="M226 908h314v-78h-262l34 43v-129h10q14 10 34 15.5t42 5.5q69 0 110.5 -40t41.5 -105q0 -67 -46 -108t-123 -41q-69 0 -115.5 34t-53.5 89h86q8 -22 30 -34.5t52 -12.5q40 0 62 20t22 54q0 32 -21.5 51t-59.5 19q-24 0 -44.5 -9t-30.5 -24h-82v250z" />
    <glyph glyph-name="uni2076" unicode="&#x2076;" 
d="M375 471q-49 0 -88 19t-61 52t-22 75q0 37 13.5 71t43.5 73l111 147h99l-111 -144l8 -9q6 2 13 3t14 1q44 0 78 -18.5t53.5 -50.5t19.5 -73q0 -42 -22 -75t-60.5 -52t-88.5 -19zM290 619q0 -31 23.5 -50.5t61.5 -19.5t61.5 19.5t23.5 50.5q0 32 -23.5 51t-61.5 19
t-61.5 -19t-23.5 -51z" />
    <glyph glyph-name="uni2077" unicode="&#x2077;" 
d="M540 786l-168 -306h-91l206 371v-21h-247v78h300v-122z" />
    <glyph glyph-name="uni2078" unicode="&#x2078;" 
d="M375 734q41 0 62.5 14t21.5 39t-21.5 38.5t-62.5 13.5q-40 0 -62 -13.5t-22 -38.5t22 -39t62 -14zM205 796q0 56 45.5 88.5t124.5 32.5t124.5 -32.5t45.5 -88.5q0 -34 -17.5 -58t-49.5 -35v-9q32 -10 48.5 -35.5t16.5 -61.5q0 -58 -45 -91.5t-123 -33.5t-123 33.5
t-45 91.5q0 36 17 61.5t48 35.5v9q-32 11 -49.5 35t-17.5 58zM293 606q0 -27 21.5 -41.5t60.5 -14.5t60.5 14.5t21.5 41.5t-21.5 41.5t-60.5 14.5t-60.5 -14.5t-21.5 -41.5z" />
    <glyph glyph-name="uni2079" unicode="&#x2079;" 
d="M375 917q50 0 88.5 -19t60.5 -51.5t22 -75.5q0 -37 -13.5 -71t-43.5 -73l-111 -147h-99l111 144l-8 9q-6 -2 -12.5 -3t-14.5 -1q-44 0 -78 18.5t-53.5 50.5t-19.5 73q0 43 22 75.5t61 51.5t88 19zM460 769q0 32 -23.5 51t-61.5 19t-61.5 -19t-23.5 -51q0 -31 23.5 -50.5
t61.5 -19.5t61.5 19.5t23.5 50.5z" />
    <glyph glyph-name="uni2080" unicode="&#x2080;" 
d="M375 -117q-86 0 -133 58t-47 165t47 165t133 58t133 -58t47 -165t-47 -165t-133 -58zM375 -39q47 0 70.5 36.5t23.5 108.5t-23.5 108.5t-70.5 36.5q-46 0 -70 -36.5t-24 -108.5t24 -108.5t70 -36.5zM246 60l258 176v-84l-258 -176v84z" />
    <glyph glyph-name="uni2081" unicode="&#x2081;" 
d="M240 -108v78h120v327l42 -23l-162 -102v93l89 55h117v-350h106v-78h-312z" />
    <glyph glyph-name="uni2082" unicode="&#x2082;" 
d="M232 20l176 85q23 11 36.5 31t13.5 43q0 34 -20.5 53t-55.5 19q-32 0 -53.5 -16t-28.5 -45h-86q5 62 51 100.5t117 38.5q75 0 118.5 -40t43.5 -110q0 -47 -27 -84t-80 -63l-185 -87l-4 25h287v-78h-303v128z" />
    <glyph glyph-name="uni2083" unicode="&#x2083;" 
d="M546 15q0 -38 -21 -68t-57.5 -47t-83.5 -17q-74 0 -121.5 37t-50.5 98h86q5 -26 28 -41.5t57 -15.5t54.5 16t20.5 41q0 26 -19 41t-52 15h-45v74h45q35 0 55 13.5t20 37.5q0 23 -21 37.5t-55 14.5q-36 0 -61 -16t-31 -45h-86q4 62 53.5 100.5t125.5 38.5q47 0 83 -16.5
t57 -44.5t21 -65q0 -31 -19.5 -54.5t-51.5 -31.5v-8q32 -12 50.5 -37t18.5 -57z" />
    <glyph glyph-name="uni2084" unicode="&#x2084;" 
d="M486 320v-236h68v-78h-68v-114h-86v114h-214v93l165 221h135zM246 56v28h154v232h41z" />
    <glyph glyph-name="uni2085" unicode="&#x2085;" 
d="M226 320h314v-78h-262l34 43v-129h10q14 10 34 15.5t42 5.5q69 0 110.5 -40t41.5 -105q0 -67 -46 -108t-123 -41q-69 0 -115.5 34t-53.5 89h86q8 -22 30 -34.5t52 -12.5q40 0 62 20t22 54q0 32 -21.5 51t-59.5 19q-24 0 -44.5 -9t-30.5 -24h-82v250z" />
    <glyph glyph-name="uni2086" unicode="&#x2086;" 
d="M375 -117q-49 0 -88 19t-61 52t-22 75q0 37 13.5 71t43.5 73l111 147h99l-111 -144l8 -9q6 2 13 3t14 1q44 0 78 -18.5t53.5 -50.5t19.5 -73q0 -42 -22 -75t-60.5 -52t-88.5 -19zM290 31q0 -31 23.5 -50.5t61.5 -19.5t61.5 19.5t23.5 50.5q0 32 -23.5 51t-61.5 19
t-61.5 -19t-23.5 -51z" />
    <glyph glyph-name="uni2087" unicode="&#x2087;" 
d="M540 198l-168 -306h-91l206 371v-21h-247v78h300v-122z" />
    <glyph glyph-name="uni2088" unicode="&#x2088;" 
d="M375 146q41 0 62.5 14t21.5 39t-21.5 38.5t-62.5 13.5q-40 0 -62 -13.5t-22 -38.5t22 -39t62 -14zM205 208q0 56 45.5 88.5t124.5 32.5t124.5 -32.5t45.5 -88.5q0 -34 -17.5 -58t-49.5 -35v-9q32 -10 48.5 -35.5t16.5 -61.5q0 -58 -45 -91.5t-123 -33.5t-123 33.5
t-45 91.5q0 36 17 61.5t48 35.5v9q-32 11 -49.5 35t-17.5 58zM293 18q0 -27 21.5 -41.5t60.5 -14.5t60.5 14.5t21.5 41.5t-21.5 41.5t-60.5 14.5t-60.5 -14.5t-21.5 -41.5z" />
    <glyph glyph-name="uni2089" unicode="&#x2089;" 
d="M375 329q50 0 88.5 -19t60.5 -51.5t22 -75.5q0 -37 -13.5 -71t-43.5 -73l-111 -147h-99l111 144l-8 9q-6 -2 -12.5 -3t-14.5 -1q-44 0 -78 18.5t-53.5 50.5t-19.5 73q0 43 22 75.5t61 51.5t88 19zM460 181q0 32 -23.5 51t-61.5 19t-61.5 -19t-23.5 -51q0 -31 23.5 -50.5
t61.5 -19.5t61.5 19.5t23.5 50.5z" />
    <glyph glyph-name="Euro" unicode="&#x20ac;" 
d="M421 -16q-140 0 -215.5 105.5t-75.5 310.5t76 310.5t217 105.5q81 0 140.5 -33.5t94 -96t40.5 -150.5h-108q-10 81 -53 126.5t-114 45.5q-93 0 -138 -75.5t-45 -232.5t44.5 -232.5t136.5 -75.5q60 0 99.5 40t49.5 112h108q-6 -81 -38.5 -139.5t-88 -89.5t-130.5 -31z
M40 278v92h450v-92h-450zM40 450v92h450v-92h-450z" />
    <glyph glyph-name="uni20BD" unicode="&#x20bd;" 
d="M164 800h274q82 0 141 -29t91 -82.5t32 -128.5q0 -74 -32 -128t-91 -83t-141 -29h-164v-80h202v-92h-202v-148h-110v148h-114v92h114v80h-114v92h114v388zM274 422h168q67 0 105.5 36t38.5 98t-38.5 98t-105.5 36h-168v-268z" />
    <glyph glyph-name="uni2116" unicode="&#x2116;" 
d="M72 0v800h200l82 -690h10l-4 140v550h108v-800h-200l-82 690h-10l4 -140v-550h-108zM615 471q-40 0 -65.5 18t-37.5 56.5t-12 98.5q0 61 12 99t37.5 56t65.5 18t65.5 -18t37.5 -56t12 -99q0 -60 -12 -98.5t-37.5 -56.5t-65.5 -18zM615 549q17 0 23 19t6 76t-6 76t-23 19
t-23 -19t-6 -76t6 -76t23 -19zM519 344v76h190v-76h-190z" />
    <glyph glyph-name="trademark" unicode="&#x2122;" 
d="M164 440v292h-106v68h284v-68h-106v-292h-72zM390 440v360h113l24 -169h9l25 169h109v-360h-70v144l3 140h-9l-24 -171h-80l-24 171h-9l3 -140v-144h-70z" />
    <glyph glyph-name="arrowleft" unicode="&#x2190;" 
d="M312 38l-292 292v60l292 292v-135l-226 -222v70l226 -222v-135zM730 310h-664v100h664v-100z" />
    <glyph glyph-name="arrowup" unicode="&#x2191;" 
d="M53 524l292 292h60l292 -292h-135l-222 226h70l-222 -226h-135zM325 0v770h100v-770h-100z" />
    <glyph glyph-name="arrowright" unicode="&#x2192;" 
d="M438 38v135l226 222v-70l-226 222v135l292 -292v-60zM20 310v100h664v-100h-664z" />
    <glyph glyph-name="arrowdown" unicode="&#x2193;" 
d="M53 276h135l222 -226h-70l222 226h135l-292 -292h-60zM325 800h100v-770h-100v770z" />
    <glyph glyph-name="minus" unicode="&#x2212;" 
d="M70 300v100h610v-100h-610z" />
    <glyph glyph-name="approxequal" unicode="&#x2248;" 
d="M510 364q-42 0 -74 13.5t-57 33.5t-47 40t-44 33.5t-48 13.5t-43.5 -21t-22.5 -59h-94q9 82 52 129t108 47q42 0 74 -13.5t57 -33.5t47 -40t44 -33.5t48 -13.5t44 21.5t22 58.5h94q-9 -82 -52 -129t-108 -47zM510 106q-42 0 -74 13.5t-57 33.5t-47 40t-44 33.5t-48 13.5
t-43.5 -21t-22.5 -59h-94q9 82 52 129t108 47q42 0 74 -13.5t57 -33.5t47 -40t44 -33.5t48 -13.5t44 21.5t22 58.5h94q-9 -82 -52 -129t-108 -47z" />
    <glyph glyph-name="notequal" unicode="&#x2260;" 
d="M483 690h102l-318 -680h-102zM90 440v100h570v-100h-570zM90 160v100h570v-100h-570z" />
    <glyph glyph-name="uniA78B" unicode="&#xa78b;" 
d="M339 400v400h100v-180l-20 -220h-80z" />
    <glyph glyph-name="uniA78C" unicode="&#xa78c;" 
d="M341 380v380h100v-170l-20 -210h-80z" />
    <glyph glyph-name="uni004A0301" 
d="M354 -16q-85 0 -146.5 32t-94.5 91.5t-33 142.5v100h112v-90q0 -79 43 -123.5t119 -44.5q77 0 119.5 44.5t42.5 123.5v430h-378v110h492v-550q0 -83 -33.5 -142.5t-95 -91.5t-147.5 -32zM522 890l104 150h130l-134 -150h-100z" />
    <glyph glyph-name="i.loclTRK" 
d="M155 600h310v-496h200v-104h-510v104h200v392h-200v104zM402 692q-41 0 -64.5 20.5t-23.5 57.5t23.5 57.5t64.5 20.5t64.5 -20.5t23.5 -57.5t-23.5 -57.5t-64.5 -20.5z" />
    <glyph glyph-name="uni006A0301" 
d="M145 600h390v-616q0 -96 -55 -148t-157 -52q-96 0 -151.5 44t-62.5 126h104q15 -34 42.5 -52t67.5 -18q48 0 75 29t27 81v502h-280v104zM430 690l104 150h130l-134 -150h-100z" />
    <glyph glyph-name="zero.dnom" 
d="M375 -9q-86 0 -133 58t-47 165t47 165t133 58t133 -58t47 -165t-47 -165t-133 -58zM375 69q47 0 70.5 36.5t23.5 108.5t-23.5 108.5t-70.5 36.5q-46 0 -70 -36.5t-24 -108.5t24 -108.5t70 -36.5zM246 168l258 176v-84l-258 -176v84z" />
    <glyph glyph-name="one.dnom" 
d="M240 0v78h120v327l42 -23l-162 -102v93l89 55h117v-350h106v-78h-312z" />
    <glyph glyph-name="two.dnom" 
d="M232 128l176 85q23 11 36.5 31t13.5 43q0 34 -20.5 53t-55.5 19q-32 0 -53.5 -16t-28.5 -45h-86q5 62 51 100.5t117 38.5q75 0 118.5 -40t43.5 -110q0 -47 -27 -84t-80 -63l-185 -87l-4 25h287v-78h-303v128z" />
    <glyph glyph-name="three.dnom" 
d="M546 123q0 -38 -21 -68t-57.5 -47t-83.5 -17q-74 0 -121.5 37t-50.5 98h86q5 -26 28 -41.5t57 -15.5t54.5 16t20.5 41q0 26 -19 41t-52 15h-45v74h45q35 0 55 13.5t20 37.5q0 23 -21 37.5t-55 14.5q-36 0 -61 -16t-31 -45h-86q4 62 53.5 100.5t125.5 38.5q47 0 83 -16.5
t57 -44.5t21 -65q0 -31 -19.5 -54.5t-51.5 -31.5v-8q32 -12 50.5 -37t18.5 -57z" />
    <glyph glyph-name="four.dnom" 
d="M486 428v-236h68v-78h-68v-114h-86v114h-214v93l165 221h135zM246 164v28h154v232h41z" />
    <glyph glyph-name="five.dnom" 
d="M226 428h314v-78h-262l34 43v-129h10q14 10 34 15.5t42 5.5q69 0 110.5 -40t41.5 -105q0 -67 -46 -108t-123 -41q-69 0 -115.5 34t-53.5 89h86q8 -22 30 -34.5t52 -12.5q40 0 62 20t22 54q0 32 -21.5 51t-59.5 19q-24 0 -44.5 -9t-30.5 -24h-82v250z" />
    <glyph glyph-name="six.dnom" 
d="M375 -9q-49 0 -88 19t-61 52t-22 75q0 37 13.5 71t43.5 73l111 147h99l-111 -144l8 -9q6 2 13 3t14 1q44 0 78 -18.5t53.5 -50.5t19.5 -73q0 -42 -22 -75t-60.5 -52t-88.5 -19zM290 139q0 -31 23.5 -50.5t61.5 -19.5t61.5 19.5t23.5 50.5q0 32 -23.5 51t-61.5 19
t-61.5 -19t-23.5 -51z" />
    <glyph glyph-name="seven.dnom" 
d="M540 306l-168 -306h-91l206 371v-21h-247v78h300v-122z" />
    <glyph glyph-name="eight.dnom" 
d="M375 254q41 0 62.5 14t21.5 39t-21.5 38.5t-62.5 13.5q-40 0 -62 -13.5t-22 -38.5t22 -39t62 -14zM205 316q0 56 45.5 88.5t124.5 32.5t124.5 -32.5t45.5 -88.5q0 -34 -17.5 -58t-49.5 -35v-9q32 -10 48.5 -35.5t16.5 -61.5q0 -58 -45 -91.5t-123 -33.5t-123 33.5
t-45 91.5q0 36 17 61.5t48 35.5v9q-32 11 -49.5 35t-17.5 58zM293 126q0 -27 21.5 -41.5t60.5 -14.5t60.5 14.5t21.5 41.5t-21.5 41.5t-60.5 14.5t-60.5 -14.5t-21.5 -41.5z" />
    <glyph glyph-name="nine.dnom" 
d="M375 437q50 0 88.5 -19t60.5 -51.5t22 -75.5q0 -37 -13.5 -71t-43.5 -73l-111 -147h-99l111 144l-8 9q-6 -2 -12.5 -3t-14.5 -1q-44 0 -78 18.5t-53.5 50.5t-19.5 73q0 43 22 75.5t61 51.5t88 19zM460 289q0 32 -23.5 51t-61.5 19t-61.5 -19t-23.5 -51q0 -31 23.5 -50.5
t61.5 -19.5t61.5 19.5t23.5 50.5z" />
    <glyph glyph-name="zero.numr" 
d="M375 363q-86 0 -133 58t-47 165t47 165t133 58t133 -58t47 -165t-47 -165t-133 -58zM375 441q47 0 70.5 36.5t23.5 108.5t-23.5 108.5t-70.5 36.5q-46 0 -70 -36.5t-24 -108.5t24 -108.5t70 -36.5zM246 540l258 176v-84l-258 -176v84z" />
    <glyph glyph-name="one.numr" 
d="M240 372v78h120v327l42 -23l-162 -102v93l89 55h117v-350h106v-78h-312z" />
    <glyph glyph-name="two.numr" 
d="M232 500l176 85q23 11 36.5 31t13.5 43q0 34 -20.5 53t-55.5 19q-32 0 -53.5 -16t-28.5 -45h-86q5 62 51 100.5t117 38.5q75 0 118.5 -40t43.5 -110q0 -47 -27 -84t-80 -63l-185 -87l-4 25h287v-78h-303v128z" />
    <glyph glyph-name="three.numr" 
d="M546 495q0 -38 -21 -68t-57.5 -47t-83.5 -17q-74 0 -121.5 37t-50.5 98h86q5 -26 28 -41.5t57 -15.5t54.5 16t20.5 41q0 26 -19 41t-52 15h-45v74h45q35 0 55 13.5t20 37.5q0 23 -21 37.5t-55 14.5q-36 0 -61 -16t-31 -45h-86q4 62 53.5 100.5t125.5 38.5q47 0 83 -16.5
t57 -44.5t21 -65q0 -31 -19.5 -54.5t-51.5 -31.5v-8q32 -12 50.5 -37t18.5 -57z" />
    <glyph glyph-name="four.numr" 
d="M486 800v-236h68v-78h-68v-114h-86v114h-214v93l165 221h135zM246 536v28h154v232h41z" />
    <glyph glyph-name="five.numr" 
d="M226 800h314v-78h-262l34 43v-129h10q14 10 34 15.5t42 5.5q69 0 110.5 -40t41.5 -105q0 -67 -46 -108t-123 -41q-69 0 -115.5 34t-53.5 89h86q8 -22 30 -34.5t52 -12.5q40 0 62 20t22 54q0 32 -21.5 51t-59.5 19q-24 0 -44.5 -9t-30.5 -24h-82v250z" />
    <glyph glyph-name="six.numr" 
d="M375 363q-49 0 -88 19t-61 52t-22 75q0 37 13.5 71t43.5 73l111 147h99l-111 -144l8 -9q6 2 13 3t14 1q44 0 78 -18.5t53.5 -50.5t19.5 -73q0 -42 -22 -75t-60.5 -52t-88.5 -19zM290 511q0 -31 23.5 -50.5t61.5 -19.5t61.5 19.5t23.5 50.5q0 32 -23.5 51t-61.5 19
t-61.5 -19t-23.5 -51z" />
    <glyph glyph-name="seven.numr" 
d="M540 678l-168 -306h-91l206 371v-21h-247v78h300v-122z" />
    <glyph glyph-name="eight.numr" 
d="M375 626q41 0 62.5 14t21.5 39t-21.5 38.5t-62.5 13.5q-40 0 -62 -13.5t-22 -38.5t22 -39t62 -14zM205 688q0 56 45.5 88.5t124.5 32.5t124.5 -32.5t45.5 -88.5q0 -34 -17.5 -58t-49.5 -35v-9q32 -10 48.5 -35.5t16.5 -61.5q0 -58 -45 -91.5t-123 -33.5t-123 33.5
t-45 91.5q0 36 17 61.5t48 35.5v9q-32 11 -49.5 35t-17.5 58zM293 498q0 -27 21.5 -41.5t60.5 -14.5t60.5 14.5t21.5 41.5t-21.5 41.5t-60.5 14.5t-60.5 -14.5t-21.5 -41.5z" />
    <glyph glyph-name="nine.numr" 
d="M375 809q50 0 88.5 -19t60.5 -51.5t22 -75.5q0 -37 -13.5 -71t-43.5 -73l-111 -147h-99l111 144l-8 9q-6 -2 -12.5 -3t-14.5 -1q-44 0 -78 18.5t-53.5 50.5t-19.5 73q0 43 22 75.5t61 51.5t88 19zM460 661q0 32 -23.5 51t-61.5 19t-61.5 -19t-23.5 -51q0 -31 23.5 -50.5
t61.5 -19.5t61.5 19.5t23.5 50.5z" />
    <glyph glyph-name="colon.case" 
d="M375 92q-47 0 -73 24.5t-26 69.5t26 69.5t73 24.5t73 -24.5t26 -69.5t-26 -69.5t-73 -24.5zM375 520q-47 0 -73 24.5t-26 69.5t26 69.5t73 24.5t73 -24.5t26 -69.5t-26 -69.5t-73 -24.5z" />
    <glyph glyph-name="hyphen.case" 
d="M70 350v100h610v-100h-610z" />
    <glyph glyph-name="endash.case" 
d="M70 450h610v-100h-610v100z" />
    <glyph glyph-name="emdash.case" 
d="M40 450h670v-100h-670v100z" />
    <glyph glyph-name="plus.case" 
d="M325 95v255h-255v100h255v255h100v-255h255v-100h-255v-255h-100z" />
    <glyph glyph-name="minus.case" 
d="M70 350v100h610v-100h-610z" />
    <glyph glyph-name="multiply.case" 
d="M186 145l-66 66l189 189l-189 189l66 66l189 -189l189 189l66 -66l-189 -189l189 -189l-66 -66l-189 189z" />
    <glyph glyph-name="divide.case" 
d="M70 350v100h610v-100h-610zM375 540q-41 0 -64.5 20.5t-23.5 57.5t23.5 57.5t64.5 20.5t64.5 -20.5t23.5 -57.5t-23.5 -57.5t-64.5 -20.5zM375 104q-41 0 -64.5 20.5t-23.5 57.5t23.5 57.5t64.5 20.5t64.5 -20.5t23.5 -57.5t-23.5 -57.5t-64.5 -20.5z" />
    <glyph glyph-name="equal.case" 
d="M90 490v100h570v-100h-570zM90 210v100h570v-100h-570z" />
    <glyph glyph-name="notequal.case" 
d="M483 740h102l-318 -680h-102zM90 490v100h570v-100h-570zM90 210v100h570v-100h-570z" />
    <glyph glyph-name="greater.case" 
d="M630 400h-60v5l-450 203v113l510 -236v-85zM630 400v-85l-510 -236v113l450 203v5h60z" />
    <glyph glyph-name="less.case" 
d="M120 400v85l510 236v-113l-450 -203v-5h-60zM120 400h60v-5l450 -203v-113l-510 236v85z" />
    <glyph glyph-name="plusminus.case" 
d="M325 210v215h-255v100h255v215h100v-215h255v-100h-255v-215h-100zM70 60v100h610v-100h-610z" />
    <glyph glyph-name="approxequal.case" 
d="M510 414q-42 0 -74 13.5t-57 33.5t-47 40t-44 33.5t-48 13.5t-43.5 -21t-22.5 -59h-94q9 82 52 129t108 47q42 0 74 -13.5t57 -33.5t47 -40t44 -33.5t48 -13.5t44 21.5t22 58.5h94q-9 -82 -52 -129t-108 -47zM510 156q-42 0 -74 13.5t-57 33.5t-47 40t-44 33.5t-48 13.5
t-43.5 -21t-22.5 -59h-94q9 82 52 129t108 47q42 0 74 -13.5t57 -33.5t47 -40t44 -33.5t48 -13.5t44 21.5t22 58.5h94q-9 -82 -52 -129t-108 -47z" />
    <glyph glyph-name="asciitilde.case" 
d="M510 285q-42 0 -74 13.5t-57 33.5t-47 40t-44 33.5t-48 13.5t-43.5 -21t-22.5 -59h-94q9 82 52 129t108 47q42 0 74 -13.5t57 -33.5t47 -40t44 -33.5t48 -13.5t44 21.5t22 58.5h94q-9 -82 -52 -129t-108 -47z" />
    <glyph glyph-name="percent.cv01" 
d="M529 -16q-79 0 -120 52.5t-41 155.5t41 155.5t120 52.5q80 0 120.5 -52.5t40.5 -155.5t-40.5 -155.5t-120.5 -52.5zM90 0l159 340h87l-153 -340h-93zM529 80q32 0 47.5 28.5t15.5 83.5q0 56 -15.5 84t-47.5 28q-31 0 -47 -28t-16 -84q0 -55 16 -83.5t47 -28.5zM221 816
q80 0 120.5 -52.5t40.5 -155.5t-40.5 -155.5t-120.5 -52.5q-79 0 -120 52.5t-41 155.5t41 155.5t120 52.5zM660 800l-159 -340h-87l153 340h93zM221 720q-31 0 -47 -28t-16 -84q0 -55 16 -83.5t47 -28.5q32 0 47.5 28.5t15.5 83.5q0 56 -15.5 84t-47.5 28z" />
    <glyph glyph-name="percent.cv02" 
d="M650 820v-122l-550 -718v122zM529 -16q-77 0 -119 47.5t-42 135.5t42 135.5t119 47.5t119 -47.5t42 -135.5t-42 -135.5t-119 -47.5zM529 80q30 0 46.5 22.5t16.5 64.5t-16.5 64.5t-46.5 22.5t-46.5 -22.5t-16.5 -64.5t16.5 -64.5t46.5 -22.5zM221 816q77 0 119 -47.5
t42 -135.5t-42 -135.5t-119 -47.5t-119 47.5t-42 135.5t42 135.5t119 47.5zM221 720q-30 0 -46.5 -22.5t-16.5 -64.5t16.5 -64.5t46.5 -22.5t46.5 22.5t16.5 64.5t-16.5 64.5t-46.5 22.5z" />
    <glyph glyph-name="arrowright.case" 
d="M438 78v135l226 222v-70l-226 222v135l292 -292v-60zM20 350v100h664v-100h-664z" />
    <glyph glyph-name="arrowleft.case" 
d="M312 78l-292 292v60l292 292v-135l-226 -222v70l226 -222v-135zM730 350h-664v100h664v-100z" />
    <glyph glyph-name="brevecombcy" horiz-adv-x="0" 
d="M293 830q3 -37 24 -55.5t58 -18.5q38 0 58.5 18.5t23.5 55.5h100q-7 -74 -52.5 -112t-129.5 -38t-129.5 38t-52.5 112h100z" />
    <glyph glyph-name="uni030C.alt" horiz-adv-x="0" 
d="M100 648l44 200h110l-64 -200h-90z" />
    <glyph glyph-name="uni0328.e" horiz-adv-x="0" 
d="M545 -216q-58 0 -92 26t-34 72q0 35 24.5 74.5t66.5 73.5l158 154q-6 -31 -28 -70t-54 -75q-31 -34 -49 -63.5t-18 -59.5q0 -24 14 -38t38 -14q8 0 15.5 1t14.5 3v-78q-12 -3 -25 -4.5t-31 -1.5z" />
    <glyph glyph-name="periodcentered.loclCAT" horiz-adv-x="0" 
d="M259 330q-47 0 -73 24.5t-26 69.5t26 69.5t73 24.5t73 -24.5t26 -69.5t-26 -69.5t-73 -24.5z" />
    <glyph glyph-name="ringacutecomb.case" horiz-adv-x="0" 
d="M375 626q-55 0 -85.5 19.5t-30.5 54.5t30.5 54.5t85.5 19.5q56 0 86 -19.5t30 -54.5t-30 -54.5t-86 -19.5zM375 676q48 0 48 24t-48 24t-48 -24t48 -24zM327 800l64 82h120l-94 -82h-90z" />
    <glyph glyph-name="periodcentered.loclCAT.case" horiz-adv-x="0" 
d="M139 306q-47 0 -73 24.5t-26 69.5t26 69.5t73 24.5t73 -24.5t26 -69.5t-26 -69.5t-73 -24.5z" />
    <glyph glyph-name="cent.BRACKET.wght_126_180" 
d="M347 590v110h80v-110h-80zM347 -100v110h80v-110h-80zM389 -16q-87 0 -152.5 39t-102 109.5t-36.5 164.5q0 96 37.5 167.5t105.5 111.5t158 40q81 0 141.5 -31t95.5 -86.5t38 -130.5h-101q-13 67 -60 105.5t-118 38.5q-88 0 -137.5 -57.5t-49.5 -157.5q0 -97 48.5 -153
t132.5 -56q62 0 106 34t62 92h101q-6 -69 -42.5 -120.5t-95 -80.5t-131.5 -29z" />
    <glyph glyph-name="dollar.BRACKET.wght_126_180" 
d="M344 790v110h80v-110h-80zM344 -100v110h80v-110h-80zM200 204q17 -54 64 -83t118 -29q78 0 123 35.5t45 96.5q0 48 -31 76.5t-93 35.5l-102 12q-112 14 -169 70.5t-57 155.5q0 73 36 127t101 84.5t151 30.5q85 0 150 -29t103 -82.5t43 -128.5h-110q-16 63 -64.5 97.5
t-121.5 34.5q-82 0 -129 -36t-47 -98q0 -48 31.5 -76t92.5 -36l102 -12q113 -13 169.5 -70t56.5 -156q0 -72 -35 -126t-98 -84t-147 -30q-85 0 -149.5 26.5t-102 76t-42.5 117.5h112z" />
  </font>
</defs>
</svg>
