<?xml version="1.0" standalone="no"?>
<!DOCTYPE svg PUBLIC "-//W3C//DTD SVG 1.1//EN" "http://www.w3.org/Graphics/SVG/1.1/DTD/svg11.dtd" >
<svg xmlns="http://www.w3.org/2000/svg" xmlns:xlink="http://www.w3.org/1999/xlink" version="1.1">
<metadata>
Created by FontForge 20201107 at Thu Jun 11 16:24:58 2020
 By 
Copyright (c) 2020, Ghuroba Studio. All Rights Reserved.
</metadata>
<defs>
<font id="Madina" horiz-adv-x="573" >
  <font-face 
    font-family="Madina"
    font-weight="400"
    font-stretch="normal"
    units-per-em="2048"
    panose-1="2 0 5 3 0 0 0 0 0 0"
    ascent="1229"
    descent="-819"
    x-height="477"
    cap-height="1270"
    bbox="-1244.11 -1108.97 5681 1600.2"
    underline-thickness="102"
    underline-position="-307"
    unicode-range="U+0020-E003"
  />
<missing-glyph horiz-adv-x="748" 
d="M68 0v1229h544v-1229h-544zM136 68h408v1093h-408v-1093z" />
    <glyph glyph-name=".notdef" horiz-adv-x="748" 
d="M68 0v1229h544v-1229h-544zM136 68h408v1093h-408v-1093z" />
    <glyph glyph-name=".null" horiz-adv-x="0" 
 />
    <glyph glyph-name="nonmarkingreturn" horiz-adv-x="682" 
 />
    <glyph glyph-name="space" unicode=" " horiz-adv-x="368" 
 />
    <glyph glyph-name="exclam" unicode="!" horiz-adv-x="647" 
d="M201 9q-25 0 -43.5 18.5t-18.5 43.5t18.5 43.5t43.5 18.5t43.5 -18.5t18.5 -43.5t-18.5 -43.5t-43.5 -18.5zM286 211q-10 -23 -38 -23q-26 0 -27 21l3 16q26 63 96.5 254.5t90.5 243.5q13 32 25.5 69.5t20 60.5t16 47t16 36t17 20t21.5 6.5t27 -10.5q41 -25 37.5 -71.5
t-54.5 -156.5q-25 -55 -127 -257t-124 -256z" />
    <glyph glyph-name="quotedbl" unicode="&#x22;" horiz-adv-x="534" 
d="M250 935q-10 1 -16.5 4.5t-7.5 11.5t-0.5 15t4.5 18.5t7 18.5t8.5 19t7.5 16q3 6 9.5 22t10 23l10 20t12 19t13.5 13t17 10t19 2q14 -1 20 -8.5t3 -23t-6 -26t-12 -31.5t-11 -25q-27 -65 -49 -84q-18 -15 -39 -14zM414 935q-10 1 -16.5 4.5t-7.5 11.5t-0.5 15t4.5 18.5
t7 18.5t8.5 19t7.5 16q3 6 9.5 22t10 23l10 20t12 19t13.5 13t17 10t19 2q14 -1 20 -8.5t3 -23t-6 -26t-12 -31.5t-11 -25q-27 -65 -49 -84q-18 -15 -39 -14z" />
    <glyph glyph-name="numbersign" unicode="#" horiz-adv-x="1212" 
d="M143 127q-25 -1 -37 23t9 34l14 4q20 2 74 7t84 8q36 96 47 129q-118 -5 -129 -6q-25 -1 -38 23t7 34l14 4q21 2 79 6.5t93 7.5q3 9 6.5 19t8 21t6.5 16q14 37 29 80.5t23 68t18 47.5t20 33t23 10q10 0 30 -10q37 -21 37 -61q0 -47 -55 -166q-3 -7 -23 -47q168 12 217 14
q9 27 11 31q14 37 29 80.5t23 68t18 47.5t20 33t22 10q11 0 31 -10q37 -21 37 -61q0 -45 -53 -166q-2 -4 -6.5 -12.5t-6.5 -12.5q23 2 62 2q51 0 75.5 -10.5t24.5 -38.5v-4q-3 -27 -28 -36t-80 -9q-13 0 -46 1t-53 1q-27 -50 -55 -107q98 5 102 5q50 0 74.5 -10.5
t24.5 -37.5v-6q-1 -27 -27.5 -36t-83.5 -9q-15 0 -52 1t-58 1h-25q-80 -160 -94 -196q-10 -23 -38 -23q-26 1 -27 21q-1 7 3 16q40 100 70 180q-38 -1 -122.5 -2t-125.5 -2q-72 -144 -90 -190q-9 -22 -37 -23q-26 0 -27 21q-1 7 3 16q3 7 26.5 70.5t38.5 103.5
q-108 -5 -117 -6zM627 227q7 23 21.5 62.5t17.5 48.5q-33 -1 -108.5 -2t-111.5 -2q-7 -13 -28.5 -56.5t-34.5 -68.5q106 10 244 18z" />
    <glyph glyph-name="dollar" unicode="$" horiz-adv-x="993" 
d="M334 -266q-7 -23 -37 -27q-29 -3 -32 18q-2 7 1 16q12 40 49 182q-131 -4 -195.5 58t-36.5 178q13 56 52 90.5t86 44.5q90 19 121 -7q14 -12 -1 -21l-4 -2q-102 -37 -147 -120q-41 -74 -9 -131q36 -63 143 -55q53 205 136 534q-35 26 -51 38t-46 38t-42.5 43t-29 44.5
t-18.5 52.5t2.5 57t20.5 67q38 81 116 129.5t184 58.5q4 16 11 46q7 33 10.5 47.5t10.5 35t12.5 27.5t15 14.5t21 6.5t27.5 -8q41 -17 47 -54t-20 -120q88 -16 145.5 -67.5t51.5 -116.5q-3 -40 -35 -73q-36 -38 -59 -3q-10 14 -16 40q-2 55 -29 104.5t-73 71.5q0 -1 -1.5 -5
t-2.5 -6q-28 -79 -137 -434q43 -34 71 -60.5t57.5 -63t43.5 -77.5t13 -86q-2 -56 -26 -104t-61 -81.5t-86 -59.5t-96.5 -40.5t-96.5 -22.5q-57 -187 -60 -197zM545 426q-16 -52 -66 -215.5t-72 -237.5q219 59 228 288q4 83 -90 165zM486 597q72 283 91 348l9 36
q-58 -14 -107.5 -52.5t-76.5 -86.5q-21 -37 -23.5 -70.5t12.5 -64t37.5 -56t57.5 -54.5z" />
    <glyph glyph-name="percent" unicode="%" horiz-adv-x="1306" 
d="M897 212q-19 11 -61.5 -24.5t-79.5 -95.5q-77 -125 -32 -154q40 -26 139 118q31 44 43 78.5t8.5 52t-17.5 25.5zM676 165q104 161 223 105q24 -11 41.5 -27.5t32.5 -44.5t7 -72t-41 -97q-33 -54 -66 -87t-63 -44t-54.5 -10.5t-52.5 9.5q-25 8 -43.5 32.5t-26.5 59.5
t2.5 82t40.5 94zM552 891q-19 11 -61.5 -25t-79.5 -96q-77 -124 -33 -153q40 -26 139 117q31 44 43 78.5t9 52.5t-17 26zM330 843q30 47 62.5 75.5t61.5 36.5t53 6.5t47 -12.5q24 -11 41.5 -28t32 -45t6.5 -72t-41 -97q-33 -54 -66 -87t-63 -43.5t-54.5 -10t-52.5 9.5
q-25 8 -43.5 32.5t-26.5 59.5t2.5 81.5t40.5 93.5zM122 -106q-18 -16 -44 -4q-24 13 -14 33q3 6 9 11q51 45 450 434t440 427q26 24 53.5 51.5t44.5 45t35.5 35t30 25t24 10.5t22 -3.5t19.5 -21.5q26 -41 2 -80.5t-118 -116.5q-37 -30 -186 -161.5t-298.5 -265t-304 -272
t-165.5 -147.5z" />
    <glyph glyph-name="ampersand" unicode="&#x26;" horiz-adv-x="1474" 
d="M855 354q56 14 179 28t184 28q50 12 98.5 39.5t37.5 58.5q-13 24 -53 19t-66 -25q-24 -18 -59 -58q-11 -9 -14 -1q-8 25 67 78q32 22 80.5 22t59.5 -29q19 -53 -31 -100t-131 -66q-56 -14 -182 -29t-191 -32q-56 -15 -93 -32t-53 -36t-21.5 -33.5t-6.5 -34.5
q-1 -14 2 -24.5t5 -14t1 -3.5q-8 -1 -16 15t-8 30q-6 74 48 123t163 77zM1031 761q43 29 59 70.5t-11 74t-95 32.5q-99 0 -183 -76q-76 -68 -82 -145q-7 -91 95 -131q27 -11 60 -17q23 -4 27 -11.5t-6 -13.5t-23 -6q-300 4 -425 -227q-41 -75 -41.5 -156.5t35 -138
t94.5 -63.5q51 -6 118.5 12t133.5 75q67 58 133 181q29 52 37 54q4 1 7 -5q3 -5 -11 -44.5t-48.5 -99t-78.5 -99.5q-60 -57 -140 -87.5t-156 -26.5q-83 4 -141.5 45.5t-83 102.5t-21 134t37.5 140q39 77 124 133.5t181 78.5t178 9q-36 6 -74.5 28.5t-69.5 60.5t-35.5 88.5
t26.5 111.5q14 25 37 49.5t59.5 50t91.5 38t118 6.5q69 -6 111 -36t50.5 -68t-11 -79t-65.5 -69q-20 -13 -47 -21t-44.5 -8t-20.5 9v4.5t1.5 2t4 0.5h7t9.5 1t13 3.5t17 6t21.5 10.5t26.5 16z" />
    <glyph glyph-name="quotesingle" unicode="'" horiz-adv-x="391" 
d="M250 935q-10 1 -16.5 4.5t-7.5 11.5t-0.5 15t4.5 18.5t7 18.5t8.5 19t7.5 16q3 6 9.5 22t10 23l10 20t12 19t13.5 13t17 10t19 2q14 -1 20 -8.5t3 -23t-6 -26t-12 -31.5t-11 -25q-27 -65 -49 -84q-18 -15 -39 -14z" />
    <glyph glyph-name="parenleft" unicode="(" horiz-adv-x="671" 
d="M701 937q-153 -66 -293 -341q-46 -90 -74 -192.5t-34.5 -189.5t-3.5 -155t13 -114q22 -98 78 -177q19 -26 64 -48q10 -5 11 -6q0 -2 -15 -2q-50 0 -96 32q-64 44 -107 143.5t-56 224t16 273t102 275.5q147 256 378 295q10 2 20 3t19.5 2t18.5 1.5t16.5 0.5t12.5 -0.5
t8 -1.5t3 -2q0 -3 -8.5 -3.5t-29 -4t-43.5 -13.5z" />
    <glyph glyph-name="parenright" unicode=")" horiz-adv-x="688" 
d="M348 871q-7 10 -14 18.5t-13 13.5t-11 9.5t-9 7t-6.5 5t-3.5 4t0 3.5q2 5 27.5 -12.5t54.5 -42.5q175 -154 166 -450q-5 -146 -58.5 -287.5t-130.5 -240.5t-166.5 -161.5t-166.5 -65.5q-55 -2 -99 24q-15 9 -9 10q2 0 10 -1q50 -6 80 7q91 40 160 109q33 33 71 89.5
t78.5 134t70.5 179t38 202.5q25 309 -69 445z" />
    <glyph glyph-name="asterisk" unicode="*" horiz-adv-x="587" 
d="M106 616q-9 -4 -17 5.5t-7.5 23t12.5 18.5q21 9 78 35t73 33q-5 5 -12.5 15t-10.5 13q-65 80 -70 89q-23 38 5 54q24 13 45.5 -1.5t60.5 -70.5q6 -9 30 -43q1 2 4 10t4 11q7 18 14 39t11.5 34l9 26t8.5 20t9.5 11.5t12 3.5t15.5 -6q23 -14 21.5 -40t-30.5 -88
q-8 -16 -12 -26q18 8 37.5 17.5t32 15.5l25 12t20.5 8t15 1.5t11 -5.5t6 -15q7 -26 -13.5 -43.5t-84.5 -40.5q-7 -3 -27.5 -10.5t-33.5 -12.5q82 -116 103 -143q6 -8 -1.5 -19.5t-19 -15t-21.5 5.5q-43 54 -103 123q-26 -59 -62 -146q-4 -9 -17.5 -10t-24 6t-5.5 19
q14 34 54 144q-133 -52 -145 -57z" />
    <glyph glyph-name="plus" unicode="+" horiz-adv-x="1052" 
d="M480 43q-7 -23 -42 -25q-34 -2 -39 20q-2 7 1 16q16 48 94 311q-132 2 -188 6q-20 1 -22 22q-1 25 23 34q7 3 16 3q5 0 74.5 -1.5t114.5 -2.5q8 25 21.5 71.5t19.5 65.5q4 11 10 32q38 122 54.5 150t50.5 15q23 -9 32 -16.5t9 -26.5t-9.5 -45t-29.5 -79q-5 -13 -8 -20
q-23 -59 -54 -148q7 0 21 -0.5t22 -0.5q27 0 69 -1q83 -1 99.5 -5.5t16.5 -28.5q0 -20 -33.5 -24.5t-140.5 -2.5q-12 0 -37 0.5t-38 0.5q-25 -74 -64 -191z" />
    <glyph glyph-name="comma" unicode="," horiz-adv-x="481" 
d="M162 -86q-1 5 15.5 20.5t35.5 37t22 39.5q2 12 -6.5 17t-19 6t-20 10.5t-9.5 29.5q0 25 21.5 40.5t47.5 12.5q27 -3 43 -28.5t10 -65.5q-9 -67 -72 -109q-43 -28 -62 -17q-5 3 -6 7z" />
    <glyph glyph-name="hyphen" unicode="-" horiz-adv-x="933" 
d="M247 187q-20 1 -22 22q-1 25 23 34q7 3 16 3q168 -4 287 -6q27 0 69 -1q82 -1 98.5 -5.5t16.5 -28.5q0 -20 -33.5 -24.5t-140.5 -2.5q-242 4 -314 9z" />
    <glyph glyph-name="period" unicode="." horiz-adv-x="425" 
d="M246 -5q-26 0 -44 18.5t-18 43.5t18 43.5t44 18.5t44 -18.5t18 -43.5t-18 -43.5t-44 -18.5z" />
    <glyph glyph-name="slash" unicode="/" horiz-adv-x="800" 
d="M-18 -265q-17 -19 -43 -10q-24 8 -16 30q2 6 8 12q47 53 411 498t400 487q19 22 39 46.5t33.5 42t28 36t24.5 30t21 22t19 14.5t16.5 4.5t17 -4.5t16.5 -16q29 -37 8.5 -80t-107.5 -133q-34 -35 -171.5 -188t-273 -305t-281 -316t-150.5 -170z" />
    <glyph glyph-name="zero" unicode="0" horiz-adv-x="714" 
d="M678 905q-17 9 -45 5t-58 -14t-68 -37.5t-74.5 -65t-77 -97t-76.5 -133.5q-71 -146 -98 -265t-14 -186t54 -91q18 -14 48 -9t63 19t73 48.5t79 80t81.5 113t79.5 147.5t61 148.5t32.5 118.5t8.5 89.5t-10.5 65t-25 41t-33.5 22.5zM151 563q39 88 95.5 166t124.5 136.5
t147.5 83.5t154.5 4q47 -13 77 -51.5t40 -102.5t-13.5 -164t-81.5 -223q-119 -250 -250 -360t-244 -68q-70 26 -99.5 122t-15.5 219t65 238z" />
    <glyph glyph-name="one" unicode="1" horiz-adv-x="684" 
d="M810 962q11 -1 -5 -25q-3 -5 -12 -17l-23 -33q-54 -78 -93.5 -171t-58.5 -166t-49 -153t-66 -142t-107.5 -122.5t-174.5 -104.5l62 -1q260 -2 260 -19q-9 -20 -313 -20q-31 0 -82 -1q-95 -2 -110 7q-9 7 -7 20q2 11 33.5 12t68.5 1t47 7q36 24 67 53t71.5 78t79.5 126
t73 176q51 150 98.5 232t158.5 219l-434 -168q-9 -3 -17.5 0.5t-9.5 11.5q-2 16 16 22q60 20 194.5 72t220.5 81t112 25z" />
    <glyph glyph-name="two" unicode="2" horiz-adv-x="940" 
d="M143 161q-23 -19 -31.5 -45t-1 -49.5t40 -38t85.5 -11.5t112.5 24.5t92 40t54.5 34.5q-30 24 -67 44t-86.5 36.5t-102.5 8.5t-96 -44zM871 930q74 -51 95.5 -148t-9 -212.5t-122.5 -246.5t-232 -243q25 -19 47.5 -31.5t49.5 -20.5t56.5 -4.5t60.5 17.5
q-26 -39 -72.5 -45.5t-91.5 10.5t-84 48q-87 -55 -168 -73.5t-187 -14.5q-51 2 -89 24t-53.5 53t-8 68t40.5 68q48 44 111 56.5t122.5 -3t108 -39.5t84.5 -52q106 82 185 179.5t118 186t53.5 169.5t1.5 139.5t-48 86.5q-50 41 -110.5 50.5t-116 -8t-108 -53.5t-90 -82
t-59 -97t-17.5 -96q9 -95 74.5 -111.5t139.5 31.5t115 125q4 8 9.5 18.5t8 16t6 11t6.5 7.5t6 1q20 -11 14.5 -60t-23.5 -81q-26 -46 -72 -82.5t-98.5 -51.5t-101 -8.5t-83.5 52t-42 124.5q-6 73 27.5 146t95.5 125t137 83t159 24t154 -56z" />
    <glyph glyph-name="three" unicode="3" horiz-adv-x="933" 
d="M472 932h601q8 0 15.5 0.5t12 0.5t8 0.5t5.5 -0.5t3 -2q6 -7 -26 -26q-12 -8 -31 -18q-63 -33 -212 -102.5t-240 -118t-107 -76.5q26 12 65.5 13.5t85 -8.5t88.5 -29.5t77.5 -54t49.5 -77.5q21 -70 10.5 -138t-54 -130.5t-104 -111t-140 -79t-160.5 -33.5
q-145 -6 -229.5 40.5t-86.5 148.5q-2 71 47 142t144 117q10 5 30 12t46 11.5t31 -7.5q1 -2 -2.5 -4.5t-13 -5t-21 -6.5t-28 -12t-31.5 -18q-143 -95 -152 -198q-9 -92 55 -131t170 -28q81 8 159 47.5t132.5 98t79 131t-2.5 146.5q-22 63 -67 99.5t-113.5 41t-156.5 -37.5
q-15 -8 -39.5 0.5t-12.5 38.5q5 14 23 28q74 63 220.5 138.5t255.5 119.5l110 45h-502q-10 0 -15.5 6.5t-3.5 14.5q2 12 27 12z" />
    <glyph glyph-name="four" unicode="4" horiz-adv-x="876" 
d="M920 959q11 -1 17 -9.5t2 -18.5q-17 -46 -73.5 -227t-94.5 -281q67 6 127 22q23 6 54 20q2 1 4.5 2.5t5.5 2.5l2 1q1 1 2 1q1 1 2 1t2 1l1 1q1 1 2 1h4l10 -1q13 -5 13 -19t-13 -19q-1 0 -2 -1q-8 -6 -14 -8q-32 -15 -62 -23q-62 -17 -154 -24q-26 -67 -53 -120
q-10 -19 -28 -58.5t-29.5 -64.5t-32.5 -57.5t-41 -52t-50 -34t-64 -15.5q-51 -2 -51 18q0 16 48 76q51 65 77 107q61 98 114 197q-5 0 -15.5 0.5t-16.5 0.5q-155 3 -233 18q-58 -44 -133 -64.5t-156 -4.5q-23 2 -47.5 23t-21.5 54q5 58 129 69q52 5 153 -16q99 86 180.5 227
t119.5 265q5 14 20 14q10 0 16.5 -9t2.5 -19q-29 -111 -51 -181.5t-67.5 -163.5t-103.5 -158q54 -10 193 -13q9 0 26.5 -0.5t25.5 -0.5q47 92 87 180.5t90.5 210.5t56.5 136q5 14 20 14zM257 423q-40 7 -86 9q-34 2 -65 -6t-33 -23q-1 -10 9.5 -14.5t33.5 -6.5q65 -5 141 41
z" />
    <glyph glyph-name="five" unicode="5" horiz-adv-x="884" 
d="M504 961q42 12 93 5.5t81 -16t68 -23.5t53 -18q72 -16 114 -5.5t64.5 20t26.5 0.5q4 -7 0 -15t-12 -12l-12 -6t-33 -13t-51 -14t-63.5 -4.5t-73.5 9.5q-150 39 -207 43q-114 8 -159 -58q-13 -18 -27 -13q-8 3 -11.5 11t0.5 16q17 28 61 56t88 37zM497 884q14 0 32.5 -9.5
t13.5 -19.5l-146 -308q93 17 138 19q74 3 135 -13t102.5 -52.5t53 -94t-13.5 -136.5q-38 -110 -136 -187t-218.5 -107t-239.5 -15q-105 14 -143 88q-30 58 5 131q30 63 92 109q39 29 89.5 43t56.5 -11q0 -9 -12.5 -11.5t-44 -14t-65.5 -38.5q-56 -44 -79 -93q-25 -54 -5 -94
q28 -56 117 -69q73 -11 159.5 16t170 97.5t125.5 169.5q46 129 8.5 187.5t-159.5 53.5q-15 0 -103 -25q-97 -26 -110 1q-10 18 10 59l147 311q5 13 20 13z" />
    <glyph glyph-name="six" unicode="6" horiz-adv-x="741" 
d="M839 984q18 -2 16 -21q-2 -18 -22 -22q-8 -2 -21 -6.5t-55 -23t-83.5 -42t-99.5 -66t-110.5 -92.5t-109.5 -123.5t-102 -157.5q-42 -78 -62.5 -152t-17 -135t40 -100.5t103.5 -46.5q58 -6 116.5 19.5t103.5 69t80.5 100t52.5 111.5t13 104.5t-32 77.5q-42 35 -96 18
t-105 -69t-71 -109q-34 -97 -45 -113q-18 -27 -43 3q-33 41 -5 125q21 63 67 114t99.5 76.5t111 30t101.5 -25.5q38 -24 54.5 -68.5t10.5 -98t-27.5 -112t-62.5 -112t-91 -96t-115.5 -66.5t-134.5 -21q-96 4 -153.5 49t-72 116t1 156.5t59.5 175.5q44 91 106.5 169.5
t127.5 131t132.5 95.5t126.5 67.5t106 41t74 22.5l27 6h6z" />
    <glyph glyph-name="seven" unicode="7" horiz-adv-x="757" 
d="M307 932h603q4 4 25.5 2t2.5 -24q-171 -201 -271 -335.5t-244 -347.5q-17 -25 -46.5 -72t-46 -71t-40.5 -52.5t-47 -41t-47 -12.5q-29 0 -46.5 4t-22.5 13t-4 19.5t12.5 27.5t23.5 32.5t32 39.5q5 6 8 9.5t8 9.5t9 11l8 10q30 37 126 158t161 202t162 193t177 194h-545
q-24 0 -24 14q0 17 26 17z" />
    <glyph glyph-name="eight" unicode="8" horiz-adv-x="860" 
d="M373 857q43 55 127 90t207 34q132 -1 209 -72.5t36 -190.5q-13 -37 -51.5 -85t-89.5 -88.5t-106.5 -58.5t-101.5 5q-19 10 10 31q9 6 33 21q109 65 161 126q26 31 44 65q39 72 9.5 137.5t-108.5 76.5q-54 8 -103.5 -1t-84.5 -29.5t-58.5 -41.5t-39.5 -43
q-42 -60 -51 -115t11 -99.5t53.5 -85t75.5 -79t79 -74t62 -77.5t26 -83q1 -54 -16.5 -101t-54 -87t-100.5 -63.5t-149 -24.5q-54 0 -106.5 11t-100.5 35.5t-76 70.5t-25 107q4 83 58 161t135 118q51 25 87 18q25 -5 2 -25q-4 -3 -9 -6q-64 -43 -110.5 -116t-49.5 -167
q-1 -35 6 -61.5t26.5 -52t60 -40t100.5 -16.5q119 -4 185.5 66.5t54.5 185.5q-8 51 -38.5 101t-65.5 84.5t-84.5 84t-78.5 86.5q-49 66 -48 137t48 131z" />
    <glyph glyph-name="nine" unicode="9" horiz-adv-x="790" 
d="M191 547q-11 73 13 144.5t71.5 124t108 88.5t121.5 47q50 7 86 2t65.5 -20t47 -29.5t29 -27t13.5 -12.5q4 -2 7 -4q27 45 40 71q4 13 34 19.5t56 -4t20 -38.5q-21 -104 -176 -483q-8 -20 -23.5 -59t-24 -60t-24 -56.5t-27.5 -56t-31 -50.5t-37 -48t-43 -40.5t-51.5 -37
t-61 -28t-72.5 -21.5q-74 -16 -135.5 0.5t-94 53.5t-30.5 91.5t47 110.5q12 15 32.5 29t30.5 2q3 -4 -2.5 -11t-17 -19t-17.5 -21q-29 -43 -29.5 -84.5t30 -72t88.5 -38.5q39 -5 86.5 12.5t84.5 49.5q78 68 133.5 181.5t112 274.5t94.5 240q-8 -8 -29.5 -43.5t-62 -94
t-89.5 -115.5q-36 -42 -74 -71.5t-78 -46.5t-81 -12.5t-76 33.5q-21 17 -39.5 56.5t-24.5 73.5zM731 823q-2 1 -15.5 16t-29.5 28.5t-38 28t-49.5 20.5t-55.5 0q-57 -12 -103 -44t-72 -69.5t-43.5 -81t-24 -75t-6.5 -55.5q-1 -84 35 -119.5t96.5 -12t125.5 104.5
q87 109 180 259z" />
    <glyph glyph-name="colon" unicode=":" horiz-adv-x="319" 
d="M164 327q-26 0 -44 18t-18 43q0 26 18.5 44.5t43.5 18.5q26 0 44 -18.5t18 -43.5t-18 -43.5t-44 -18.5zM18 -86q-1 5 16 20.5t36 37t22 39.5q2 12 -6.5 17t-19.5 6t-20.5 10.5t-9.5 29.5q0 25 22 40.5t48 12.5q27 -3 43 -28.5t10 -65.5q-9 -67 -72 -108q-43 -29 -63 -18
q-5 2 -6 7z" />
    <glyph glyph-name="semicolon" unicode=";" horiz-adv-x="438" 
d="M61 -18q-25 0 -43 17.5t-18 43.5t17.5 43.5t43.5 17.5t44 -17.5t20 -43.5q0 -26 -18.5 -43.5t-45.5 -17.5zM164 326q-25 0 -43.5 18.5t-18.5 44.5q0 25 18 43.5t44 18.5t43.5 -17.5t19.5 -44.5q0 -26 -18 -43.5t-45 -19.5z" />
    <glyph glyph-name="less" unicode="&#x3c;" horiz-adv-x="1048" 
d="M339 400q-12 9 -15 23t4 20q2 15 27 21q45 11 155.5 41.5t183.5 45.5t151 22q19 2 21 -21q3 -27 -21 -42l-14 -6q-247 -55 -452 -80q33 -20 161 -87q16 -8 50.5 -25.5t54 -28t43.5 -24.5t37 -26q19 -16 0.5 -42t-44.5 -20q-14 3 -29 9.5t-35 19t-30 18.5t-34.5 23.5
t-27.5 19.5q-76 53 -186 139z" />
    <glyph glyph-name="equal" unicode="=" horiz-adv-x="1167" 
d="M262 483q-20 1 -21 22q-1 23 22 30l11 2q112 2 232 2h100q25 0 67.5 0.5t59.5 0.5q55 0 81.5 -6t26.5 -24q0 -5 -1 -8q-6 -22 -32.5 -28.5t-90.5 -6.5h-53q-94 2 -402 16zM221 238q-18 0 -19 20q0 23 21 31l13 2q23 0 97.5 0.5t117.5 0.5q79 0 114 -1q25 0 68 0.5t60 0.5
q109 0 109 -30q0 -5 -1 -8q-6 -20 -31.5 -27t-78.5 -7q-9 0 -31.5 0.5t-36.5 0.5q-37 0 -402 17z" />
    <glyph glyph-name="greater" unicode="&#x3e;" horiz-adv-x="980" 
d="M741 362q12 -9 15 -23t-4 -20q-2 -15 -26 -21q-47 -12 -156 -42t-183 -45.5t-152 -22.5q-19 -2 -21 20q-3 29 21 44q6 4 14 6q245 54 453 80q-26 16 -162 87q-22 11 -70.5 33.5t-82.5 40.5t-51 33q-19 16 -0.5 42.5t44.5 20.5q58 -13 175 -94q76 -53 186 -139z" />
    <glyph glyph-name="question" unicode="?" horiz-adv-x="831" 
d="M260 229q-17 -28 -37 -28t-8 31q12 32 51.5 63t90.5 61t104.5 65t103 89t76.5 119q35 84 -7.5 150.5t-112.5 76.5q-40 6 -72 -5.5t-49.5 -30t-31.5 -37.5t-25.5 -28.5t-23.5 -1.5q-47 30 -24 88q22 56 93 92q70 36 154 28q129 -12 172.5 -112t-23.5 -236
q-30 -60 -80 -113.5t-102.5 -90t-102.5 -67t-90.5 -60t-55.5 -53.5zM205 -6q-26 0 -44 18t-18 43q0 26 18.5 44.5t43.5 18.5t43.5 -18t18.5 -44t-18.5 -44t-43.5 -18z" />
    <glyph glyph-name="at" unicode="@" horiz-adv-x="1327" 
d="M755 854q86 1 166 -25.5t145 -77t101.5 -133t31.5 -183.5q-10 -184 -127 -320q-92 -105 -200 -128q-110 -24 -172 56q-22 30 -35 72q-9 33 -8 63q-93 -155 -183 -158q-37 -1 -63.5 24.5t-36.5 63.5t-13 80t7 74q13 55 41 104t66 86t89 54.5t106 8.5q32 -5 58 -31.5
t28 -58.5v1q12 19 20 30t23 24t33 11t39 -19q44 -34 -5 -107q-82 -125 -99 -234q-7 -70 51 -82q63 -13 150 46q110 75 159 206q29 78 29 164q0 77 -28 139t-71 100t-99 64t-108 36.5t-103 10.5q-158 1 -294.5 -86t-213.5 -227t-75 -293q2 -178 91.5 -297t223.5 -150
q96 -22 178.5 -13t136.5 30.5t92 40t46 16.5q6 -1 -14.5 -20.5t-59.5 -44t-97.5 -47t-129.5 -30.5t-156 7q-185 35 -289 166.5t-104 341.5q0 88 30.5 179.5t90.5 174t140 147t187.5 104t224.5 40.5zM697 463q-33 17 -79 -15t-93 -106q-33 -52 -46.5 -113t3.5 -111
q26 -56 99 26q17 20 37 48q39 57 68 103q17 38 45 88q0 62 -34 80z" />
    <glyph glyph-name="A" unicode="A" horiz-adv-x="1646" 
d="M2081 1307q4 -12 5 -20t-7.5 -15.5t-17.5 -12t-23.5 -9t-26 -7.5t-26 -6.5t-22.5 -5.5q-105 -92 -212.5 -282t-191.5 -404q92 3 161.5 13.5t104.5 21.5t57 25t27 21t6 13q12 -120 -370 -131q-5 -14 -17.5 -46t-18.5 -48q-21 -57 -39.5 -115.5t-35 -128.5t-25 -129.5
t-5.5 -113t21 -83.5q30 -51 92.5 -58t120.5 28q22 13 46 40t39.5 45.5t22.5 17.5q8 -4 2 -22.5t-23 -43.5t-33 -39q-123 -105 -277 -39q-66 28 -94.5 100.5t-21 175.5t34.5 214t73 237q1 1 2 3.5t1 3.5q-99 0 -251 5q-51 2 -99 3l-2.5 -5t-2.5 -4q-54 -98 -83.5 -150
t-83 -138t-92.5 -133.5t-97.5 -108t-112.5 -93t-124 -57.5t-145 -30q-108 -6 -193.5 44t-117.5 150q-6 20 -6.5 52.5t9.5 79.5t31.5 93.5t65.5 97t105 88.5q42 26 72.5 42t93.5 39.5t132 37t179 23.5t243 11q340 561 769 669q-83 -9 -173 -6t-160 11t-171 11t-206 -6
q-104 -9 -195 -35.5t-165.5 -71t-118.5 -112.5t-45 -152q-1 -66 35 -107t89 -49t113.5 9.5t106.5 57.5q37 33 62 69.5t39 82.5t19.5 78t12.5 87q4 34 22 -2q25 -51 29 -116q1 -10 0 -19q-8 -127 -137 -219q-26 -18 -68 -33t-91 -23.5t-98.5 -3t-90 23.5t-66 60t-25.5 103
q0 96 46 171t128 122.5t182 75t220 37.5q103 8 218 4.5t207 -11t198.5 -5.5t192.5 19q5 2 13.5 5.5t33.5 12.5t48.5 16t53.5 13.5t53 8t42.5 -4t26.5 -18.5zM907 515q-227 1 -391 -36.5t-260 -97.5q-61 -38 -104.5 -87t-64 -93.5t-29.5 -89t-7.5 -74t7.5 -48.5
q26 -77 96.5 -115.5t165.5 -32.5q44 3 88.5 23.5t81.5 49t79.5 77.5t73.5 90.5t72 106.5t66 108.5t65.5 114t60.5 104.5zM1423 543q83 215 205.5 403.5t239.5 277.5q-137 -26 -230 -72q-299 -148 -557 -599q66 -2 99 -4q138 -6 243 -6z" />
    <glyph glyph-name="B" unicode="B" horiz-adv-x="1572" 
d="M715 815q5 -28 15.5 -56.5t20.5 -46.5t17.5 -34t6 -26.5t-14.5 -16.5q-8 -4 -19.5 -4t-25.5 4t-27 14t-25 26.5t-20 41t-11 57t1 75.5q10 98 65 176t137 124t182 65.5t202 8.5q67 -8 124 -33q38 20 65 32q141 63 144 42q1 -8 -5.5 -12.5t-40 -20t-69.5 -36.5
q-22 -13 -47 -29q68 -42 108.5 -103t44.5 -133t-38 -146q-68 -117 -253 -163q86 -28 136 -97.5t56 -157.5t-21 -187q-25 -84 -91.5 -151t-156 -106.5t-193.5 -59.5t-210.5 -15.5t-200.5 31.5q-108 -72 -242 -81q-108 -6 -193 44t-117 150q-33 108 -8 213q9 39 24.5 68
t32 43.5t33 21t29.5 5t20 -8.5q14 -15 17.5 -28.5t-7 -33t-19.5 -31t-36 -41.5q-4 -5 -6 -7q-70 -79 -29 -202q26 -78 97.5 -117t164.5 -30q40 4 77 18.5t67 34t60 51.5t52.5 61.5t47 74.5t41.5 80t39 88.5t35.5 89t34.5 92t34 88.5q174 446 460 631q-42 20 -81 27
q-41 6 -89 6.5t-98 -12.5t-97.5 -32t-88 -51.5t-69 -71t-40.5 -91.5t-2 -112zM1055 634q3 1 9 1.5t9 0.5q21 3 40 3q215 31 295 208q33 79 10 152.5t-90 123.5q-94 -73 -167 -184t-149 -305h13h16h14zM1171 606q-91 -12 -171 -4q-2 -5 -15 -40t-20 -55q-33 -92 -63.5 -165.5
t-74 -158t-98 -154.5t-116.5 -120q36 -3 76.5 -3.5t90.5 3.5t100.5 14t102.5 26t100.5 41.5t91 59t76.5 80t54 102.5q19 50 23.5 108.5t-6 115t-49.5 98.5t-102 52z" />
    <glyph glyph-name="C" unicode="C" horiz-adv-x="860" 
d="M111 1242q-22 -69 28 -140t144 -134q125 123 265 185q-33 44 -82 85q-26 22 -77.5 42.5t-108 31t-105.5 -6t-64 -63.5zM253 937q-131 89 -174 197.5t32 181.5q44 41 123.5 36t155 -31t128.5 -60q60 -39 102 -80q60 20 131 28q74 8 130 2t95 -24t63 -42t34.5 -52.5
t10 -56.5t-11.5 -53q-27 -63 -90.5 -105t-147 -58t-180 -11t-191.5 32q-48 13 -83 28q-93 -119 -163 -282q-31 -72 -50.5 -160.5t-19 -182t23 -169.5t84 -121.5t156.5 -39.5q80 5 150.5 39.5t129.5 95t105.5 128.5t94.5 159q12 24 27 24q3 0 5 -1t2 -3.5t-0.5 -5t-2 -6
t-2.5 -6t-3 -6.5l-3 -6q-210 -424 -499 -447q-133 -11 -228.5 42.5t-141 153.5t-44.5 240.5t53 299.5q55 165 199 322zM683 1106q37 -60 30.5 -101t-46.5 -44q-11 -1 -19 3t-14 14.5t-10 20.5t-11.5 30t-13.5 35q-104 -60 -193 -164q48 -21 86 -32q67 -20 148 -25t159.5 5.5
t142 47t88.5 93.5q27 61 -1.5 105.5t-97 55.5t-164.5 -14q-43 -12 -84 -30z" />
    <glyph glyph-name="D" unicode="D" horiz-adv-x="1693" 
d="M669 751q5 -29 16 -58t21 -47.5t17.5 -35t6 -27t-14.5 -16.5q-9 -4 -20.5 -4t-25.5 4t-27.5 14.5t-25.5 27.5t-20.5 42t-11.5 58t1 77q10 100 66.5 179.5t140.5 125.5t186 66.5t207 10.5q52 -5 92 -17q57 37 131 71q141 63 144 42q1 -8 -5.5 -12.5t-40 -20t-69.5 -36.5
q-52 -30 -100 -66q84 -36 149 -98.5t107 -155.5t42.5 -209.5t-43.5 -261.5q-39 -119 -104.5 -216t-142.5 -160t-164 -107t-172 -62t-163.5 -20t-142 14t-104.5 45q-124 -93 -270 -101q-108 -6 -193 44t-117 150q-33 108 -8 213q9 39 24.5 68t32 43.5t33 21t29.5 5t20 -8.5
q14 -15 17.5 -28.5t-7 -33t-19.5 -31t-36 -41.5q-4 -5 -6 -7q-70 -79 -29 -202q26 -78 97.5 -117t164.5 -30q40 4 77 18.5t67 34t60 51.5t52.5 61.5t47 74.5t41.5 80t39 88.5t35.5 89t34.5 92t34 88.5q156 401 401 590q-27 7 -57 12q-37 6 -79 5t-86.5 -9t-88.5 -23
t-84 -37.5t-72.5 -53t-54.5 -68.5t-30.5 -84.5t0.5 -101.5zM632 -75q69 -29 148.5 -32t160.5 18.5t160 71.5t146 122t120.5 177.5t82.5 230.5q27 130 22 240t-53 198.5t-135 133.5q-89 -82 -162.5 -214t-156.5 -364q-31 -88 -61 -159.5t-71 -152.5t-92 -150t-109 -120z" />
    <glyph glyph-name="E" unicode="E" horiz-adv-x="866" 
d="M272 1202q-3 -7 -5 -14.5t-3.5 -15t-1.5 -14.5q0 -55 49.5 -110t134.5 -96q5 60 38 118q37 66 114 121q-18 20 -50 37.5t-72 28t-78 10.5q-96 0 -126 -65zM641 1218q99 54 208 54q15 0 29 -1q106 -7 162.5 -54t56.5 -112q0 -30 -12 -59t-36 -56t-58 -48
q-20 -12 -45 -23.5t-62.5 -24.5t-86.5 -21t-100 -8q-16 0 -32 1t-33 3t-35 4.5t-36 6.5h-1q6 -60 56 -103.5t150 -62.5q30 -5 35.5 -15t-7.5 -18t-30 -8h-16q-387 0 -552 -301q-28 -50 -41.5 -104.5t-13.5 -107.5q0 -104 47.5 -178.5t125.5 -84.5q11 -1 22.5 -2t24.5 -1
q173 0 298 114q33 30 64 66t54 69.5t44.5 67.5t37 61.5t28.5 49.5t23 34t16 12q2 0 3 -0.5t2.5 -2t2.5 -3.5v-1q0 -11 -31.5 -73t-90.5 -148.5t-116 -139.5q-38 -36 -82.5 -64.5t-91.5 -49t-97 -32t-97 -11.5q-6 0 -11 0.5t-10 0.5q-77 4 -136.5 31.5t-96 72.5t-55.5 101
t-19 121q0 117 57 229q35 69 96 127t134 96t154 59.5t157 21.5q40 0 76 -6q-76 12 -147 71.5t-81 145.5q-56 23 -99.5 53t-69.5 62.5t-39 65.5t-13 64q0 46 25 80q43 58 149 58q64 0 130.5 -22t111.5 -57zM719 1142q12 -15 21 -30t14.5 -28t8 -24.5t2.5 -21.5q0 -27 -15 -43
q-14 -15 -26 -15q-7 0 -13.5 5t-13.5 17.5t-12 23t-14 32t-14 33.5q-89 -86 -97 -180q3 0 8 -1.5t7 -2.5q61 -15 126 -15q157 0 274 76q26 17 45.5 39.5t29.5 47t10 48.5q0 44 -36.5 72t-110.5 28q-100 0 -194 -61z" />
    <glyph glyph-name="F" unicode="F" horiz-adv-x="1212" 
d="M1761 1174q13 4 30 11t27.5 11.5t23 8.5t17 3t8.5 -4q4 -10 0 -27t-26.5 -39.5t-60.5 -37.5q-178 -71 -431 -45q-1 -3 -28.5 -13.5t-73 -41.5t-85.5 -82q-68 -85 -111 -183.5t-92 -251.5l-1 -1q100 23 180 35q1 0 10.5 19.5t23.5 40.5t26 25q17 5 29 4.5t19.5 -10.5
t-7.5 -35q-64 -121 -88 -142q-8 -6 -14 -7q-11 -1 -16 6t-3.5 20t4.5 23.5t8 23.5q-100 -17 -183 -37q-24 -72 -47.5 -132.5t-57.5 -130.5t-69.5 -126t-83 -110.5t-99 -92t-117 -63t-137.5 -31.5q-68 -6 -140.5 21.5t-122.5 84.5q-18 -116 44 -192l1.5 -1.5l3.5 -3.5t5.5 -6
t5.5 -7.5t5.5 -8t4.5 -8t3 -8t0.5 -6.5t-2.5 -5q-6 -5 -18 2.5t-20 17.5l-9 10q-86 106 -53 254q-13 21 -22 44q-38 93 -11 213q9 39 23.5 68.5t30.5 44t32.5 22t29.5 6t20 -8.5q15 -15 18.5 -29.5t-8.5 -35.5t-21 -33t-38 -45q-66 -77 -33 -181q87 207 383 350
q135 65 346 121q3 10 10 27.5t9 24.5q48 131 129.5 261t161.5 203q46 42 101.5 67.5t100.5 33.5q-95 12 -115 15q-374 70 -603 1t-289 -272q-12 -33 -8 -72t17.5 -73.5t47.5 -61t82 -35.5q127 -22 236 126q32 44 58 94t40.5 88t25 70.5t17.5 49t12 14.5q13 -5 22 -28.5
t9.5 -62.5t-7.5 -83t-33.5 -95.5t-65.5 -95.5q-65 -72 -147 -102t-168 -17q-101 15 -152.5 102.5t-22.5 193.5q20 75 60 132.5t112.5 103.5t173.5 69t250 22.5t336 -29.5q264 -42 567 61zM86 -77q36 -61 107 -91.5t145 -24.5q69 5 129 45.5t98.5 84t83.5 137.5t64 144.5
t60 165.5q5 15 8 22q-196 -55 -314 -112q-288 -141 -369 -337q-3 -6 -7 -19t-5 -15z" />
    <glyph glyph-name="G" unicode="G" horiz-adv-x="1204" 
d="M1069 1156q-91 -2 -182 -42q-44 -20 -69 -36q50 -39 72.5 -79.5t15.5 -68.5t-38 -37q-22 -6 -36 7.5t-39.5 54t-51.5 69.5q-119 -94 -200 -242q83 -23 165 -28q75 -5 161 8.5t165.5 43t137.5 82.5t71 119q14 71 -35 110.5t-137 38.5zM410 1170q-79 -1 -132 -27.5
t-59 -86.5q-6 -67 46 -124.5t142 -99.5q99 159 264 256q-34 25 -79 48q-68 34 -182 34zM414 1208q131 0 227 -36q48 -17 102 -46q76 35 145 51q117 26 196 21t124 -36.5t61.5 -72t8.5 -85.5q-17 -95 -106.5 -164t-217.5 -99t-271 -22q-81 4 -162 25q-29 -62 -43 -114
q-35 -132 -16.5 -223.5t68 -139.5t112.5 -43q175 13 355 251q92 160 189 249q45 41 103 68t96.5 34t44.5 0q3 -5 -4.5 -9t-26.5 -11.5t-41.5 -20t-54 -39t-59.5 -61.5q-68 -85 -111 -183.5t-92 -251.5q-32 -98 -77 -193.5t-111.5 -191.5t-142 -169t-173.5 -119.5t-201 -48.5
q-60 -1 -119 16.5t-114 62.5t-81 110q-38 93 -11 212q9 39 23.5 68.5t30.5 44t32.5 22t29.5 6t20 -8.5q14 -15 17.5 -29t-5 -31t-20 -32.5t-33.5 -40.5q-5 -6 -8 -9q-72 -84 -25 -202q30 -74 106 -111.5t159 -31.5q78 6 152 52.5t130 112.5t110 160.5t91 178t74 183.5
q21 53 29 71q-144 -131 -279 -142q-64 -5 -121.5 14t-106 62t-75.5 123.5t-22 187.5q5 108 64 218q-131 65 -184 158.5t2 179.5q51 73 212 75z" />
    <glyph glyph-name="H" unicode="H" horiz-adv-x="1648" 
d="M1258 1174q44 30 79.5 44t56 12.5t27.5 -14.5q9 -17 -3 -31t-44.5 -24.5t-83.5 -15.5q-45 -39 -82 -85t-61.5 -86.5t-51 -103.5t-41 -105.5t-41.5 -123.5t-44 -129q97 0 211 -6q136 -7 245 -1q60 156 130.5 281.5t139.5 209t143 142t139.5 87t131.5 37.5
q-96 -45 -180 -125t-151 -186.5t-115 -206t-98 -224.5q243 37 310 148q3 6 4 2q0 -2 1 -8q8 -58 -77 -105.5t-251 -70.5q-15 -39 -43 -113q-21 -57 -39.5 -115.5t-35 -128.5t-25 -129.5t-5.5 -113t21 -83.5q30 -51 92.5 -58t120.5 28q22 13 46 40t39.5 45.5t22.5 17.5
q8 -4 2 -22.5t-23 -43.5t-33 -39q-123 -105 -277 -39q-66 28 -94.5 100.5t-21 175.5t34.5 214t73 237q1 2 2.5 7t2.5 7q-119 -6 -253 -2q-99 4 -203 4q0 -2 -1 -5t-2 -5q-34 -92 -60 -157t-63 -143t-72 -131t-83 -107.5t-99.5 -88t-117.5 -56t-141 -27.5q-108 -6 -193.5 44
t-117.5 150q-6 20 -6.5 52.5t9.5 79.5t31.5 93.5t65.5 97t105 88.5q49 30 87 48.5t109.5 43t174.5 39t237 19.5q113 288 191 412.5t185 205.5q-58 -19 -128 -23t-189 0.5t-175 4.5q-143 -1 -260 -44.5t-189 -128.5t-74 -198q-1 -66 35 -107t89 -49t113.5 9.5t106.5 57.5
q37 33 62 69.5t38.5 83t19 77t12.5 87.5q4 34 22 -2q25 -51 29 -116q1 -10 0 -19q-8 -128 -136 -219q-32 -22 -85 -39.5t-114 -20.5t-115 10t-90 58.5t-36 118.5q0 129 76 221.5t204 137.5t296 47q6 0 143.5 -3.5t231 3.5t174.5 29zM805 472q-215 -9 -336.5 -42t-212.5 -90
q-61 -38 -104.5 -87t-64 -93.5t-29.5 -89t-7.5 -74t7.5 -48.5q26 -78 97.5 -117.5t164.5 -30.5q40 4 76.5 18.5t66.5 33.5t59.5 51t51.5 60.5t47 74t41.5 79t39 87.5t35.5 88t34.5 92t33.5 88z" />
    <glyph glyph-name="I" unicode="I" horiz-adv-x="1058" 
d="M1505 1251q2 0 12 4t18.5 6.5t21 5.5t22 3t19 -1.5t14.5 -8t6 -17.5q1 -10 -7 -17t-22 -9.5t-27 -3.5t-28.5 -1.5t-21.5 -1.5q-23 -4 -31 -5q-68 -34 -85 -44q-97 -56 -161 -126.5t-118.5 -181t-126.5 -309.5q136 3 203 131q25 48 45.5 61.5t45.5 11.5q11 -1 19.5 -8
t12 -19.5t1 -28t-16.5 -37t-37 -43.5q-106 -99 -285 -101q-10 -31 -13 -38q-27 -75 -51 -135.5t-60 -135t-72.5 -131.5t-86 -115t-102.5 -97t-121 -65t-143 -31q-107 -6 -192.5 44t-117.5 151q-33 108 -8 212q9 39 24.5 68t32 43.5t33 21.5t29.5 5.5t20 -8.5
q10 -10 14.5 -20t2 -22.5t-5 -20t-16 -24.5t-20 -25t-26.5 -30q-70 -79 -29 -202q26 -78 97.5 -117t164.5 -30q40 4 77 18.5t67 34t60 51.5t52.5 61.5t47 74.5t41.5 80t39 88.5t35.5 89t34.5 92t34 88.5q3 7 8 21.5t8 21.5q-70 23 -115 77t-58.5 118t-3.5 131t42 119
q53 85 135 137.5t174.5 72.5t178.5 28t176.5 15.5t139.5 22.5zM854 572q64 148 133 260t137 180.5t124 107.5t119 68q1 0 4 2t5 2q-209 -24 -285 -44q-170 -44 -262 -160q-28 -34 -51 -77q-52 -100 -28 -197.5t104 -141.5z" />
    <glyph glyph-name="J" unicode="J" horiz-adv-x="1280" 
d="M510 193q-11 -56 -188 -37q-90 10 -184 -117q-65 -87 -80 -180t15.5 -162.5t103.5 -110t172 -30.5q57 6 111 35.5t98 72t87 106t75 124.5t66.5 141.5t57 142.5t49.5 141q-44 3 -77 11q-84 19 -147 75.5t-94 134t-20.5 176.5t68.5 195q53 89 136.5 153.5t171 97.5
t189.5 56.5t185.5 32t166 21t123.5 26.5q14 6 36 3.5t31 -14.5q7 -10 -5 -15q-4 -3 -17 -9.5t-38 -20t-53 -31.5q-106 -67 -178.5 -147t-136.5 -213q45 -30 66.5 -81.5t14.5 -116.5q-12 -121 -85 -203.5t-181 -113.5q-274 -807 -701 -828q-117 -6 -202 45t-119.5 131.5
t-23 179t72.5 183.5q52 73 102 114t128 70q74 28 120.5 26t67.5 -20t16 -44zM1550 1251q-253 -40 -272 -44q-276 -53 -418 -162q-103 -79 -158 -196q-46 -97 -51.5 -184t21 -146.5t67.5 -99t90 -55.5q31 -11 74 -14q42 128 55 164q67 192 155 341q-60 -2 -106 -32
q-32 -21 -50.5 -45.5t-23 -40.5t-18 -30.5t-38.5 -20.5q-27 -6 -36 23q-13 41 27 87q35 41 102 65q86 31 162 25q49 78 101.5 138.5t106.5 101.5t91 63t89 48q5 2 15 7t15 7zM1063 376q88 35 146.5 109t66.5 179q8 107 -55 158q-59 -131 -117 -317q-37 -118 -41 -129z" />
    <glyph glyph-name="K" unicode="K" horiz-adv-x="1478" 
d="M1270 1174q44 30 80 44t56.5 12.5t27.5 -14.5q9 -17 -3 -31t-44.5 -24.5t-83.5 -15.5q-57 -48 -99 -103t-74.5 -126.5t-53 -127t-54 -157.5t-57.5 -166q-34 -92 -60 -157t-63 -143t-72 -131t-83 -107.5t-99.5 -88t-117.5 -56t-141 -27.5q-108 -6 -193 44t-117 150
q-33 108 -8 212q9 39 24.5 68t32 43.5t33 21.5t29.5 5.5t20 -8.5q14 -15 17.5 -28.5t-7 -33t-19.5 -31t-36 -41.5q-4 -5 -6 -7q-70 -79 -29 -202q26 -78 97.5 -117.5t164.5 -30.5q40 4 77 18.5t67 34t60 51.5t52.5 62t47 75t41.5 80t39 88t35.5 89t34.5 92.5t34 88.5
q82 211 144.5 335t115.5 191t127 123q-38 -12 -97.5 -17.5t-109 -5t-141 2.5t-144.5 2q-144 0 -261 -43.5t-188.5 -129t-73.5 -198.5q-1 -66 35 -107t89 -49t113.5 9.5t106.5 57.5q37 33 62 69.5t39 82.5t19.5 78t12.5 87q4 34 22 -2q24 -51 28 -116q1 -10 0 -19
q-8 -128 -136 -219q-32 -22 -85 -39.5t-114 -20.5t-115 10t-90 58.5t-36 118.5q0 129 75.5 221.5t203.5 137.5t297 47q22 0 112.5 -1t147 0t141 8t148.5 22zM2113 1270q69 -1 98 -43t-5 -80l-2 1q17 43 -8 73q-25 31 -75.5 27t-97 -22.5t-80.5 -42.5q-94 -66 -170.5 -156.5
t-163.5 -228.5q-93 -147 -188.5 -219.5t-216.5 -94.5q37 -45 57.5 -88t25 -88t0.5 -85t-17 -94q-16 -69 -24 -112.5t-11 -96.5t10.5 -88.5t44.5 -55.5q54 -31 132.5 -14t123.5 64q21 22 36.5 47t22.5 39.5t11 15.5q12 5 11 -16q-2 -40 -34 -86l-6 -8q-44 -57 -125 -88.5
t-179 -4.5q-60 17 -98 56t-52.5 88t-14 109t10.5 113t28 107q19 55 28 105t3 98t-31 73q-1 0 -23.5 -3.5t-48 -4t-59.5 5.5q-22 5 -26 23.5t6 25.5q19 19 52.5 22t64.5 -5t55 -22q56 17 102 48.5t81 74t61 81.5t58.5 91t55.5 83q150 200 279.5 281t278.5 94q7 1 19 1z
M1123 500q-22 15 -60 11q-21 -1 -19 -10q2 -12 79 -1z" />
    <glyph glyph-name="L" unicode="L" horiz-adv-x="1097" 
d="M158 -165q-4 0 -8.5 -0.5t-8 -1t-5.5 -0.5q-78 -10 -91 -26q-4 -4 -4 -10t3 -11t9 -8.5t11.5 -5.5t14.5 -3.5t14.5 -2t13.5 -1.5t10 -1q97 -9 205 22q33 9 63 23q-140 31 -227 26zM1441 1224q-70 -18 -168.5 -152.5t-174.5 -316.5q122 17 244 102t164 170
q28 63 26.5 109.5t-27.5 71.5t-64 16zM399 1116q42 67 124.5 96t168.5 25t176 -29q77 -21 131 -49.5t72 -47.5t12 -25q-6 -8 -23 3t-66 37.5t-111 44.5q-83 24 -155.5 26.5t-139 -27.5t-98.5 -95q-19 -39 -22 -79t10 -79t48.5 -73t89 -59t136.5 -38t186 -9q3 5 35.5 66.5
t65.5 118.5t86 128.5t104 113.5q68 56 147.5 87t136.5 -1q54 -30 54.5 -117t-53.5 -166t-167 -154.5t-267 -101.5q-36 -78 -77 -180.5t-66.5 -170.5t-66 -151t-83 -143.5t-109 -124.5t-151.5 -117q90 -21 264 -85.5t274 -89.5q208 -52 322.5 -28.5t156 75t19.5 105.5
q-21 50 -83 62.5t-141 -20.5q-20 -9 -37.5 -19t-29.5 -21.5t-21 -20.5t-15.5 -22t-10 -19.5t-6.5 -19t-3.5 -15t-1.5 -12.5q-1 -8 -2 -10.5t-3.5 -0.5t-8.5 11q-9 14 -9 36.5t11 49.5t42 55t79 47q43 17 90.5 21t90.5 -6t73.5 -41t36.5 -78q5 -43 -3 -81t-34 -73t-69 -58
t-113.5 -33t-161.5 -1q-113 11 -223.5 45t-187 70t-177.5 78.5t-185 64.5q-77 -35 -152 -48q-95 -20 -193 -15t-112 45q-9 26 9 51t56 34q53 12 116 13t122 -6.5t139 -22.5q84 58 147 131.5t106.5 162.5t74 169t72 194t77.5 195q-140 1 -251 26t-178 67t-102 96t-32 113.5
t40 119.5z" />
    <glyph glyph-name="M" unicode="M" horiz-adv-x="1968" 
d="M1371 1108q-49 -8 -114 -12t-115.5 -5t-134.5 -1t-128 -1q-235 -5 -377.5 -102.5t-145.5 -268.5q-2 -88 58.5 -128.5t142 -27.5t143.5 68q37 33 62 69.5t38.5 83t19 77t12.5 87.5q4 34 22 -2q25 -51 29 -116q1 -10 0 -19q-8 -128 -136 -219q-32 -22 -85 -39.5t-114 -20.5
t-115 10t-90 58.5t-36 118.5q0 192 158 295.5t418 110.5q37 1 161.5 -1.5t217.5 3t170 26.5l2 1q8 5 19 12t28.5 17t35 17t34 11t29 0.5t17.5 -15.5q11 -26 -29 -47.5t-83 -27.5q-38 -40 -65 -92t-42.5 -115.5t-24.5 -117t-19 -129.5t-19 -121q-1 -4 -7 -37t-12 -62.5
t-15 -69t-20.5 -76t-23.5 -62.5q4 8 39 79t57 113t59 109.5t75 125t75 103.5q305 378 629 450q136 30 143 -11q0 -18 -16 -26t-32 -7h-17q-107 -61 -208 -210.5t-166.5 -313t-100.5 -319.5q-15 -67 -24.5 -137t-12.5 -154t12 -159t50 -122q40 -55 104 -65.5t124 23.5t92 99
q8 15 14.5 30.5t10 25t6 17t4.5 11t3 2.5q8 -4 12.5 -18.5t-4 -46.5t-33.5 -70q-58 -88 -166.5 -106.5t-207.5 51.5q-94 70 -125 244t20 404q71 303 216 519t314 298q-31 -7 -72 -21.5t-108.5 -49.5t-133.5 -82.5t-145.5 -126t-147.5 -173.5q-57 -80 -95 -140.5t-61 -103.5
t-79.5 -148t-119.5 -217q-70 -125 -146.5 -213t-118.5 -82q-15 2 -4 17l16 20q42 48 70 92q49 76 91 231.5t59 334.5q28 305 167 526q-108 -77 -187 -206.5t-203 -428.5q-49 -119 -81.5 -189.5t-94.5 -177.5t-121.5 -168.5t-148.5 -113t-190 -61.5q-106 -10 -192 41.5
t-118 152.5q-33 108 -8 212q9 39 24.5 68t32 43.5t33 21.5t29.5 5.5t20 -8.5q10 -10 14.5 -20t2 -22.5t-5 -20t-16 -24.5t-20 -25t-26.5 -30q-70 -79 -29 -201q26 -78 97.5 -117.5t164.5 -30.5q99 10 183 62.5t152.5 145t122.5 198.5t109 251q64 167 128.5 293t126 207.5
t117 131t115.5 80.5q-10 -2 -15 -2z" />
    <glyph glyph-name="N" unicode="N" horiz-adv-x="1779" 
d="M2350 1270q106 0 151 -61q28 -39 13 -69q-9 -16 -28 -18q-32 -4 -48 5t-21.5 24.5t-10.5 31.5t-23 27.5t-52 12.5q-55 1 -104.5 -16t-97 -55.5t-91.5 -89.5t-93 -129.5t-95 -163.5t-104 -202q-10 -20 -37 -75.5t-42.5 -87t-46 -90t-52.5 -96t-56 -91t-62.5 -90t-66 -79.5
t-72.5 -72t-76 -54t-83 -39q-14 -2 -20.5 2t-3.5 15q52 173 71 282.5t28.5 276t21.5 278.5q35 313 160 463q-97 -59 -158 -124t-127.5 -190.5t-158.5 -356.5q-34 -85 -55 -135.5t-60.5 -132.5t-72.5 -133.5t-84 -114t-102.5 -99t-119 -63.5t-142.5 -32q-107 -6 -192.5 44
t-117.5 151q-33 108 -8 212q9 39 24.5 68t32 43.5t33 21.5t29.5 5.5t20 -8.5q10 -10 14.5 -20t2 -22.5t-5 -20t-16 -24.5t-20 -25t-26.5 -30q-70 -79 -29 -202q26 -78 97.5 -117t164.5 -30q79 8 150 46t126.5 94.5t109 142t94.5 172.5t87 202q115 289 214 442.5t200 225.5
q-58 -7 -136 -9t-147 -1.5t-151 -0.5q-238 -3 -379 -101t-144 -270q-2 -88 58.5 -128.5t142 -27.5t143.5 68q37 33 62 69.5t38.5 83t19 77t12.5 87.5q4 34 22 -2q25 -51 29 -116q1 -10 0 -19q-8 -128 -136 -219q-32 -22 -85 -39.5t-114 -20.5t-115 10t-90 58.5t-36 118.5
q0 130 74 222t202 137t300 47h106t126 1t137 6t137 14q117 58 162 65q37 5 46 -15q7 -16 -9.5 -31t-44 -24.5t-45.5 -14.5t-26 -6q-43 -69 -60.5 -186t-30.5 -347q-14 -256 -77 -454.5t-126 -284.5q60 38 115.5 93.5t91.5 98.5t92.5 140.5t79 140t91.5 177.5q7 14 11 21.5
t10 19t11 21.5q16 31 50.5 102.5t56.5 115.5t62 113.5t72.5 114t81 98t96 85t108.5 55t126 26.5q3 0 8.5 0.5t8.5 0.5z" />
    <glyph glyph-name="O" unicode="O" horiz-adv-x="1263" 
d="M813 1034q-176 -159 -264 -334q-47 -96 -57 -122q3 0 6 -3q80 -18 157 -18q35 86 93 172q87 131 189.5 216.5t210.5 85.5q33 0 66 -9q68 -19 84 -104q20 49 20 96q0 36 -11 67q-18 55 -62 88t-94 33q-136 0 -311 -145q32 -25 52 -47t20 -29q0 -2 -1 -2q-3 -3 -7 -3
q-15 0 -91 58zM743 1128q195 122 352 122q16 0 23 -1q100 -8 159 -56.5t73 -105.5q10 -37 10 -75q0 -91 -57 -178q-8 -103 -56.5 -235t-105.5 -237q-288 -530 -593 -530q-56 0 -110 16q-102 32 -151 124.5t-49 225.5q0 180 81 390q-130 68 -224.5 173t-94.5 217q0 72 43 138
q82 129 307 129q101 0 207 -26q80 -21 186 -91zM711 1108q-87 54 -150 68q-76 19 -158 19q-197 0 -249 -114q-27 -57 -27 -117q0 -94 61 -177t156 -142q124 284 305 420q10 7 31 21.5t31 21.5zM641 518q-12 -1 -37 -1q-56 0 -108 7q-4 1 -12.5 2t-12.5 2q-86 -222 -86 -394
q0 -186 107 -232q39 -18 81 -18q102 0 218 95.5t211.5 240.5t160.5 310q46 116 70 220q-99 -99 -225 -148q-101 -44 -232 -67q-65 -129 -108 -299q-13 -50 -30 -50q-15 0 -27 37t-12 81q0 3 0.5 9t0.5 9q6 106 41 196zM795 573q138 27 229 80q141 76 225 181q4 38 4 52
q0 76 -34 87q-14 5 -34 5q-41 0 -88.5 -29.5t-86 -69.5t-77.5 -91.5t-60.5 -84.5t-36.5 -60q-18 -33 -41 -70z" />
    <glyph glyph-name="P" unicode="P" horiz-adv-x="1445" 
d="M659 817q3 -21 11 -42t17 -36.5t18.5 -30.5t16 -26t10.5 -20t1.5 -16t-11.5 -11q-8 -4 -19.5 -4t-25.5 4t-27 14t-25 26.5t-20 41t-11 57t1 75.5q10 98 65 176t137 124t182 65.5t202 8.5q73 -8 147 -42q52 29 80 41q141 63 144 42q1 -8 -5.5 -12.5t-40 -20t-69.5 -36.5
q-22 -13 -62 -39q80 -49 129 -126t49 -182q0 -124 -54.5 -222.5t-146 -157.5t-206 -88.5t-240.5 -26.5q-36 -88 -73.5 -160t-90.5 -145.5t-112 -125t-136.5 -86t-164.5 -39.5q-108 -6 -193 44t-117 150q-33 108 -8 213q9 39 24.5 68t32 43.5t33 21t29.5 5t20 -8.5
q14 -15 17.5 -28.5t-7 -33t-19.5 -31t-36 -41.5q-4 -5 -6 -7q-70 -79 -29 -202q26 -78 97.5 -117t164.5 -30q40 4 77 18.5t67 34t60 51.5t52.5 61.5t47 74.5t41.5 80t39 88.5t35.5 89t34.5 92t34 88.5q173 443 455 628q-51 27 -107 37q-41 6 -90 6t-101.5 -13.5
t-102.5 -32.5t-93.5 -52.5t-74 -72t-44 -92t-3.5 -112.5zM915 374q64 2 126 16t129.5 49t119 87t87.5 136.5t42 190.5q11 175 -97 265q-104 -82 -185 -218.5t-172 -392.5q-22 -63 -50 -133z" />
    <glyph glyph-name="Q" unicode="Q" horiz-adv-x="1251" 
d="M889 246q89 115 145.5 245.5t73 243t6.5 206t-47 149.5q-30 45 -86 63.5t-114 14t-120 -24.5q1 -1 3 -3.5t3 -3.5q71 -80 100 -179t18.5 -193t-50 -185.5t-99.5 -161.5t-137 -116t-156 -54q-75 -7 -124 34.5t-65 111.5t-6 157.5t46 171.5q129 299 353 425
q-76 40 -155 22.5t-153 -82.5q-38 -33 -69 -74t-50 -79.5t-33 -77t-21.5 -70.5t-13.5 -56.5t-10.5 -38t-10.5 -12.5q-13 2 -15 33t9.5 80t31 102.5t52 107.5t70.5 89q110 100 230 119q118 18 205 -31q126 51 263 41q86 -7 149.5 -44.5t97 -94.5t47 -122t7.5 -134
q-12 -146 -57.5 -273t-109 -221t-154.5 -177t-180.5 -141t-201.5 -114q-3 -1 -6.5 -3t-6.5 -3t-7 -3t-7 -3q147 -71 217 -96q149 -51 241 -63q156 -20 274 32q36 16 57 45.5t3 46.5q-19 18 -11 28q11 14 42 -10q20 -15 28.5 -49.5t-5.5 -74.5t-55 -60q-49 -24 -106 -33
t-108 -8t-120 17.5t-115.5 31t-123 46.5t-115.5 50t-117 56q-29 14 -44 21q-100 -27 -213 -29.5t-191.5 25t-70.5 80.5q4 31 45.5 51.5t115.5 13.5q128 -12 283 -80q130 51 248 134t196 184zM389 -92q-59 26 -99 41q-45 17 -86.5 25.5t-72.5 8.5t-53.5 -6.5t-33 -19
t-7.5 -28.5q5 -31 63 -50t142 -7q73 11 147 36zM676 1115q-23 -12 -38 -21q-102 -62 -200.5 -205.5t-138.5 -270.5q-30 -103 -20.5 -176t40.5 -112.5t68 -33.5q86 15 159.5 83t118 159.5t70 189.5t25 182t-25.5 128q-28 49 -58 77z" />
    <glyph glyph-name="R" unicode="R" horiz-adv-x="1429" 
d="M659 817q3 -21 11 -42t17 -36.5t18.5 -30.5t16 -26t10.5 -20t1.5 -16t-11.5 -11q-8 -4 -19.5 -4t-25.5 4t-27 14t-25 26.5t-20 41t-11 57t1 75.5q10 98 65 176t137 124t182 65.5t202 8.5q73 -8 147 -42q52 29 80 41q141 63 144 42q1 -8 -5.5 -12.5t-40 -20t-69.5 -36.5
q-22 -13 -62 -39q80 -49 129 -126t49 -182q0 -96 -32.5 -176.5t-90.5 -138.5t-133 -97.5t-166 -60.5q9 -3 27 -13q41 -26 63 -75.5t21 -104t-15 -110.5q-36 -122 -38 -167q-3 -82 57 -119q41 -25 88.5 -23.5t87.5 17.5t67 40q18 16 30 36.5t17.5 33.5t9.5 14q14 4 15 -14
q1 -36 -40 -83q-39 -45 -114 -64.5t-168 2.5q-73 22 -114 66t-47 100t3 108.5t32 108.5q19 45 27.5 85.5t3 78t-30.5 54.5q-14 11 -42 17q-77 -12 -165 -10q-36 -88 -73.5 -160t-90.5 -145.5t-112 -125t-136.5 -86t-164.5 -39.5q-108 -6 -193 44t-117 150q-33 108 -8 213
q9 39 24.5 68t32 43.5t33 21t29.5 5t20 -8.5q14 -15 17.5 -28.5t-7 -33t-19.5 -31t-36 -41.5q-4 -5 -6 -7q-70 -79 -29 -202q26 -78 97.5 -117t164.5 -30q40 4 77 18.5t67 34t60 51.5t52.5 61.5t47 74.5t41.5 80t39 88.5t35.5 89t34.5 92t34 88.5q173 443 455 628
q-51 27 -107 37q-41 6 -90 6t-101.5 -13.5t-102.5 -32.5t-93.5 -52.5t-74 -72t-44 -92t-3.5 -112.5zM915 374q64 2 126 16t129.5 49t119 87t87.5 136.5t42 190.5q11 175 -97 265q-104 -82 -185 -218.5t-172 -392.5q-22 -63 -50 -133z" />
    <glyph glyph-name="S" unicode="S" horiz-adv-x="1396" 
d="M805 712q26 -33 39.5 -61.5t12.5 -38t-5 -12.5q-4 0 -12 9.5t-22 29t-25 32.5q-75 91 -177 140.5t-197 53t-178.5 -32t-127.5 -104.5q-27 -49 -24.5 -100.5t43.5 -101t111 -76.5q3 -1 38 -12q47 52 105 79q66 31 134.5 31t117 -22t76.5 -56q4 -5 12 -17q89 20 196 60
q137 52 233 117q-13 59 -18.5 89t-12 79t-3.5 90t13 81q17 68 46 120.5t56 79.5t60.5 45.5t50.5 23.5t37 8q114 20 139 -77q22 -87 -32 -217q-24 -56 -58 -103q-80 -112 -218 -215q6 -31 19 -91t19.5 -98.5t11.5 -92.5t-1 -109.5t-23 -114.5q-23 -81 -73 -150t-114.5 -116.5
t-142.5 -80.5t-156.5 -45.5t-156 -6.5t-141.5 31q-133 52 -204.5 169.5t-68.5 246.5t70 228q-56 14 -106.5 41.5t-88 64.5t-52.5 85.5t0 98.5q27 90 100 145.5t167.5 67t194.5 -5t190.5 -67t145.5 -122.5zM1162 596q-111 -75 -213 -111q-5 -2 -29.5 -11t-46 -16.5
t-57.5 -18.5t-71 -20q30 -63 31.5 -139.5t-27.5 -139t-81 -82.5q-47 -18 -64.5 11.5t17.5 61.5q40 37 57.5 87t14.5 96.5t-20 89.5q-195 -37 -368 -10q-53 -77 -66.5 -179t26.5 -203.5t133 -156.5q46 -27 113 -36t142 0.5t154 40t147.5 77t124.5 117t84 155.5
q21 65 24.5 136.5t-3 124.5t-22.5 126zM1209 670q89 72 166 173q59 77 91.5 162t22.5 147q-9 54 -62 37q-59 -18 -122 -104q-97 -133 -103 -296q-1 -18 0 -35q2 -48 7 -84zM656 439q-11 19 -24 32q-49 53 -141 41.5t-160 -85.5q135 -22 325 12z" />
    <glyph glyph-name="T" unicode="T" horiz-adv-x="1073" 
d="M1234 991q121 -16 222.5 -19.5t179 6.5t116.5 39t28 75q-12 49 -72 69t-138 10t-147 -44q-115 -57 -189 -136zM1182 926q-97 -135 -217 -473q-27 -75 -51 -135.5t-60 -135t-72.5 -132t-86 -115.5t-102.5 -97t-121 -65t-143 -31q-107 -6 -192.5 44t-117.5 151
q-33 108 -8 212q9 39 24.5 68t32 43.5t33 21.5t29.5 5.5t20 -8.5q10 -10 14.5 -20t2 -22.5t-5 -20t-16 -24.5t-20 -25t-26.5 -30q-70 -79 -29 -202q26 -78 97.5 -117t164.5 -30q40 4 77 18.5t67 34t60 51.5t52.5 62t47 75t41.5 80t39 88t35.5 89t34.5 92.5t34 88.5
q115 295 270 473q-116 19 -266 52q-37 8 -94 21.5t-91.5 21.5t-84.5 18t-81.5 14.5t-72 7.5t-67.5 0t-58 -10.5t-52 -22t-40.5 -36t-32.5 -51.5q-60 -132 118 -234q6 -4 1 -3l-15 5q-59 19 -97.5 58t-49.5 86t9 99.5t72 96.5q51 43 110.5 62.5t139.5 17t165.5 -18.5
t210.5 -49q165 -44 337 -72q93 89 202 144q60 30 133 47t149 13.5t127 -32.5q35 -20 47.5 -55.5t1.5 -72t-39 -62.5q-134 -121 -590 -59z" />
    <glyph glyph-name="U" unicode="U" horiz-adv-x="1302" 
d="M115 986q-68 -93 -74.5 -219.5t61.5 -151.5q48 -16 100.5 6.5t84 53.5t56.5 65q88 124 136 297q24 -73 7 -161.5t-68 -161.5q-31 -44 -70.5 -76t-75.5 -47.5t-72 -22t-62.5 -4.5t-43.5 9q-62 24 -83.5 97t-3 160t65.5 162q59 94 151 150.5t196 64.5q69 5 126.5 -14.5
t97.5 -63.5t55.5 -112t-0.5 -160q-11 -62 -51 -161.5t-86 -194.5t-89 -201t-67 -190.5t-12 -153t69 -97.5q231 -117 588 650q6 13 9 19q1 2 2.5 5.5t2.5 5.5q98 280 217 461q74 112 128 150.5t86 22.5q3 -2 -3 -11t-23 -33.5t-39.5 -59t-56 -99t-66.5 -142.5
q-153 -356 -202 -538.5t-34 -313.5q14 -119 69.5 -175.5t110.5 -38.5q63 21 109 83q15 20 19 16q2 -2 4 -8q7 -23 -28.5 -64.5t-99.5 -56.5q-74 -17 -136 18.5t-98 103t-50.5 152t-2.5 163.5q12 72 25 128q-202 -418 -407 -483q-41 -11 -82.5 -12.5t-80.5 17t-69.5 49
t-49 84.5t-19.5 123q-1 89 28 192t73 196.5t89 182.5t80.5 176.5t42.5 151.5q9 81 -27.5 132t-85.5 62q-50 10 -110 -1t-132.5 -57.5t-128.5 -123.5z" />
    <glyph glyph-name="V" unicode="V" horiz-adv-x="1165" 
d="M1847 1209q104 -14 141 -84q25 -45 6 -77q-10 -17 -30 -17q-32 1 -47 12.5t-18.5 29t-6.5 35.5t-19.5 33.5t-50.5 20.5q-81 12 -159.5 -20.5t-163 -115.5t-169.5 -200.5t-191 -292.5q-200 -329 -452.5 -524t-527.5 -199h-1l-2 -1q-17 -3 -28 1q-3 0 -10.5 0.5t-11.5 0.5
q2 1 8 1t8 1q-2 2 -2 3q-1 3 1.5 4t12 1.5t18.5 1.5q35 6 66.5 22t57 36.5t50 53.5t43 62.5t38 74.5t32.5 79.5t29.5 87t26.5 87t25.5 90t24.5 85.5q138 469 415 657q-109 -19 -388 -7q-100 4 -194.5 -21t-166.5 -73t-116.5 -120t-45.5 -157q-1 -66 35 -107t89 -49
t113.5 9.5t106.5 57.5q37 33 62 69.5t38.5 83t19 77t12.5 87.5q4 34 22 -2q25 -51 29 -116q1 -10 0 -19q-8 -128 -136 -219q-32 -22 -85 -39.5t-114 -20.5t-115 10t-90 58.5t-36 118.5q0 128 80.5 222t209.5 139t286 45q33 0 114.5 -2.5t128 -2t115.5 9t127 27.5
q63 33 79 32q4 0 6 -5q1 -5 -1 -8t-9.5 -8t-17 -10.5t-29 -18t-40.5 -27.5q-89 -64 -146.5 -139t-108.5 -202t-107 -340q-27 -102 -58 -187.5t-76 -175.5t-107.5 -160t-137.5 -110q130 43 246 116t210.5 167.5t166 187t142.5 205.5q14 23 44 72q55 90 87.5 140t94 137
t114 136.5t121 102.5t143 74t153.5 15q5 0 17 -2z" />
    <glyph glyph-name="W" unicode="W" horiz-adv-x="1687" 
d="M1140 1229q4 0 6 -5v-5t-2 -4l-4 -4t-7 -5t-9.5 -5.5t-12.5 -7.5l-16 -10l-27 -18q-12 -8 -19 -13q-129 -92 -199.5 -227t-153.5 -449q-26 -99 -60 -188.5t-81.5 -179t-112 -160.5t-139.5 -112q73 27 143.5 72.5t127.5 96t115 119t99.5 126t88 133.5t74 124.5t62.5 115.5
q59 111 119 200.5t105.5 144t96.5 99.5t81.5 65.5t71.5 43.5q120 69 125 48q1 -5 -1 -8t-9.5 -8t-17.5 -10.5t-29.5 -18t-40.5 -27.5l-1 -1q-1 -1 -2 -1q-123 -80 -221 -268.5t-155 -415.5q-17 -70 -33.5 -125t-39.5 -122.5t-50.5 -121t-61.5 -106t-77.5 -93.5t-94.5 -68
q76 17 148.5 50.5t132 73t119 95t105 106.5t95.5 118.5t84.5 119.5t76.5 120q14 23 44 72q55 90 87.5 140t94 137t114 136.5t121 102.5t143 74t153.5 15q11 0 17 -1q104 -14 141 -84q24 -45 5 -77q-10 -17 -30 -17q-32 1 -47 12.5t-18.5 29t-6.5 35t-19.5 33t-50.5 20.5
q-81 12 -158.5 -20t-162 -116.5t-168 -200t-193.5 -291.5q-5 -8 -16 -26q-27 -45 -44.5 -72.5t-57 -85.5t-72 -98.5t-84 -99t-98.5 -100t-110 -87.5t-124.5 -75.5t-135.5 -51t-150 -26.5q-121 -7 -125 0q-2 4 4 6.5t26 5.5q38 7 71.5 24t62.5 47t52 59.5t45.5 78t38 84
t34.5 96t29 95t28.5 100t26.5 94.5q-59 -93 -107 -163t-106 -145t-110.5 -128.5t-115 -104t-124.5 -81.5t-134.5 -50t-149.5 -20q-33 0 -39 6q-3 2 3 4q3 0 12 1q10 2 17 3q35 6 66.5 22t57 36.5t50 53.5t43 62.5t38 74.5t32.5 79.5t29.5 87t26.5 87t25.5 90t24.5 85.5
q134 455 399 645q-109 -17 -372 -5q-135 6 -253.5 -42t-193.5 -144t-76 -219q-1 -73 35.5 -117t89 -52.5t113 10.5t106.5 63q37 36 62 76t38.5 90.5t19 84t12.5 94.5q4 36 21 0q25 -53 30 -125q1 -13 0 -24q-8 -139 -136 -239q-32 -24 -85 -43t-114 -22.5t-115 11t-90 64
t-36 129.5q0 106 46.5 191t126.5 139.5t183 83.5t220 29q34 0 111.5 -2.5t123 -2.5t112.5 8.5t123 26.5q77 41 94 40z" />
    <glyph glyph-name="X" unicode="X" horiz-adv-x="1153" 
d="M1545 1154q35 16 80.5 30.5t110.5 29t135.5 12t127.5 -25.5q21 -9 34 -17.5t18.5 -19.5t6.5 -15.5t3 -17.5q3 -23 -16.5 -41.5t-42.5 -19.5t-40 15q-8 11 -7.5 40t-17.5 37q-44 27 -115 23t-138.5 -22.5t-112.5 -42.5q-115 -63 -197 -134t-162 -189q-2 -5 -6 -13t-6 -13
q-123 -266 -171 -402t-65 -298q-9 -82 6 -149t50.5 -109.5t85.5 -64t114 -15.5t134 39q44 21 104 72q22 19 26 10q1 -1 1 -2q4 -15 -44.5 -57.5t-90.5 -62.5q-69 -33 -141 -39t-136.5 17t-114.5 70t-78 126.5t-24 180.5q2 42 4 63q-250 -400 -565 -419q-109 -6 -189 44
t-99 150q-20 106 18 212q14 39 33 68t37.5 43.5t36 21.5t30 5.5t18.5 -8.5q12 -15 14 -28.5t-11 -32.5t-24 -31t-40 -41l-8 -8q-78 -78 -53 -202q16 -78 83 -117.5t162 -30.5q340 33 598 602q1 2 2.5 6t2.5 6q22 78 53 158t75.5 185t62.5 149q57 138 39 235t-111 113
q-181 32 -365 -126q-72 -62 -120 -136t-63 -136t-7.5 -111.5t37.5 -70.5q31 -22 75 -18t87 23.5t80 48.5q40 32 74.5 69t57.5 69.5t41.5 64t29 55t18 41.5t11 24.5t5.5 2.5q38 -102 -29.5 -225t-176.5 -180q-77 -40 -163 -43t-136 29q-45 27 -59.5 88.5t8 147t81.5 173.5
q34 51 86.5 99.5t121 90.5t153.5 61t168 5q109 -19 170.5 -113t39.5 -233q145 158 295 225z" />
    <glyph glyph-name="Y" unicode="Y" horiz-adv-x="1277" 
d="M514 1200q-107 15 -206 -37t-172 -161q-53 -79 -72.5 -169t-1.5 -159.5t67 -94.5q64 -29 123 -0.5t105.5 101t66.5 166.5q6 27 10 81.5t9.5 78t18.5 11.5q24 -22 39 -71t8 -126t-45 -149q-25 -47 -71.5 -83.5t-96 -52.5t-99.5 -20.5t-82 13.5q-75 36 -101 123.5t-4 189
t81 188.5q68 101 176 164t219 63q147 0 233.5 -101t50.5 -275q-16 -76 -96 -240t-96 -246q-8 -40 -8 -81.5t9 -81.5t34.5 -67t64.5 -32q164 -19 373 314q121 321 251 511q32 47 66 87.5t65 70t62 54.5t57.5 41t51 28.5t44 18.5t34 9.5t23 3t10.5 -2.5q3 -3 -4 -7.5
t-22.5 -11t-36 -16t-46.5 -26t-51.5 -37t-54 -53t-52.5 -70.5q-74 -120 -139 -266t-95 -237t-70.5 -227.5t-45.5 -153.5q-31 -96 -77 -185.5t-111.5 -172.5t-141.5 -145t-173 -100t-201 -40q-60 -1 -119 16.5t-114 62.5t-81 110q-38 93 -11 212q9 39 23.5 68.5t30.5 44
t32.5 22t29.5 6t20 -8.5q14 -15 17.5 -29t-5 -31t-20 -32.5t-33.5 -40.5l-3 -3t-2.5 -3t-2.5 -3q-72 -84 -25 -203q30 -74 106 -111t159 -31q79 6 152 43.5t130.5 94.5t110 136t91.5 160t73 175q22 61 27 74q-106 -125 -215 -157q-41 -13 -82 -13t-80.5 15t-70 44.5
t-51.5 82t-25 121.5q-5 81 22 174.5t63 166t70 167t40 171.5q6 80 -39 126t-98 54z" />
    <glyph glyph-name="Z" unicode="Z" horiz-adv-x="1093" 
d="M717 1299q64 16 119 10.5t103 -24.5t83 -54.5t59 -79.5t32.5 -99t3 -113t-30 -122t-66.5 -126q-49 -72 -117.5 -133t-139.5 -101.5t-128.5 -66t-109.5 -40.5q67 18 159 -9t143 -93q16 5 29 10q47 18 87 34t68 28.5t50.5 23.5t36.5 18.5t24.5 14t16 10t9 6t6 3t4.5 0
t6 -2.5q13 -7 -9.5 -28.5t-92 -58t-171.5 -73.5l-45 -15q24 -44 35.5 -100.5t8 -125t-37.5 -145.5t-98 -146q-81 -88 -180.5 -140t-186.5 -63t-153 -5.5t-107 23.5q-83 36 -113.5 118t1.5 181t121 178q56 49 142 88.5t157.5 59.5t183 48t167.5 45q-49 66 -167.5 86
t-238.5 -24q-23 -9 -37.5 11t6.5 34q9 6 24 8q40 6 90.5 25t109.5 50t119 77.5t114.5 103t101 130.5t73.5 155q29 87 28 165.5t-35 134.5t-104.5 73.5t-179.5 -15.5q-82 -26 -159 -86t-127 -144q-33 -55 -45 -135.5t8 -152t71 -92.5q36 -17 73.5 -10.5t69 23t62.5 47t54 61
t43 65.5q27 47 47 91t29 71t14.5 47.5t10 28.5t10.5 7q27 -6 34 -57t-17.5 -130.5t-81.5 -149.5q-42 -52 -94 -85.5t-102 -45.5t-94 -10.5t-80 14.5q-32 12 -58.5 49t-41 91.5t-4.5 129.5t48 152q44 87 137.5 164.5t219.5 107.5zM802 205q-33 -9 -120.5 -32.5t-141 -39.5
t-127.5 -41.5t-132.5 -57t-102.5 -67.5q-63 -52 -98 -116.5t-38.5 -120.5t23.5 -100t81 -58q47 -15 99 -10t98 18.5t92.5 38.5t82.5 50.5t69 54.5q133 119 191.5 255t23.5 226z" />
    <glyph glyph-name="bracketleft" unicode="[" horiz-adv-x="819" 
d="M449 -272q10 -1 10.5 -13t-11.5 -13q-400 -24 -405 3q-3 14 162.5 504.5t206.5 597.5q14 36 19 50.5t15 33t12.5 21.5t14.5 10.5t17.5 7t25 3t34.5 6.5q47 10 160.5 -1t103.5 -42q-4 -11 -61.5 -12t-121 -6.5t-78.5 -29.5q-29 -46 -109.5 -267.5t-171.5 -481.5t-127 -346
q-1 -2 13.5 -5t39.5 -5t55.5 -4t63 -3.5t59.5 -3t47.5 -2.5t25.5 -2z" />
    <glyph glyph-name="backslash" unicode="\" horiz-adv-x="800" 
d="M-18 -265q-17 -19 -43 -10q-24 8 -16 30q2 6 8 12q47 53 411 498t400 487q19 22 39 46.5t33.5 42t28 36t24.5 30t21 22t19 14.5t16.5 4.5t17 -4.5t16.5 -16q29 -37 8.5 -80t-107.5 -133q-34 -35 -171.5 -188t-273 -305t-281 -316t-150.5 -170z" />
    <glyph glyph-name="bracketright" unicode="]" horiz-adv-x="884" 
d="M331 939q-10 1 -10.5 13t11.5 13q400 24 405 -4q2 -9 -91 -254.5t-198.5 -522.5t-121.5 -323q-27 -78 -48 -98t-91 -34q-47 -10 -160 1t-103 42q5 10 26 8t56 -4t69 -3t65 10.5t44 35.5q50 93 470 1104q2 5 -69 9q-49 2 -168 4q-78 2 -86 3z" />
    <glyph glyph-name="asciicircum" unicode="^" horiz-adv-x="720" 
d="M518 1454q43 -1 63.5 -51t65.5 -239q13 -57 21 -89q1 -8 -10 -14t-27 -7.5t-32.5 -0.5t-29 6t-14.5 13q-12 57 -25.5 148t-23.5 144q-44 -37 -80 -96t-69 -113t-71 -81q-22 -15 -82 -14q-50 2 -46 19q59 63 151.5 171t139.5 156t69 48z" />
    <glyph glyph-name="underscore" unicode="_" horiz-adv-x="847" 
d="M144 2q-20 1 -21 23q-1 25 21 33q8 4 18 3q52 -4 105 -5t100.5 -0.5t121.5 -0.5q153 -3 175 -10q20 -8 20 -29q0 -20 -43 -23t-141 1q-315 5 -356 8z" />
    <glyph glyph-name="grave" unicode="`" horiz-adv-x="288" 
d="M55 1270q-9 7 -5 22.5t15.5 23t26.5 -0.5q47 -35 98.5 -82t42.5 -59q-10 -12 -69.5 23.5t-108.5 72.5z" />
    <glyph glyph-name="a" unicode="a" horiz-adv-x="579" 
d="M360 420q2 4 9 16.5t10.5 18t12 15.5t17 14t20.5 8.5t28.5 4t36.5 -4.5q57 -12 -24 -133q-84 -129 -99 -222q-6 -42 0.5 -61.5t22.5 -15.5t35.5 19t41.5 40q60 70 139 219q10 19 14.5 21.5t12.5 -1.5q8 -5 6.5 -11.5t-12.5 -27.5q-2 -4 -15 -27.5t-16.5 -30t-15 -27.5
t-16.5 -29t-16 -26.5t-17.5 -28t-17 -24.5t-18.5 -24.5t-18 -20.5t-20 -20q-58 -55 -117.5 -44.5t-74.5 81.5q-9 37 -4 80q-96 -162 -187 -164q-37 -1 -63.5 24.5t-36.5 63.5t-13 80t7 74q13 55 41 104t66 86t89 54.5t106 8.5q32 -5 58 -31.5t28 -58.5v1zM301 457
q-33 17 -79 -15t-93 -106q-35 -54 -55 -134t0 -122q22 -46 89 21q28 28 58 71q35 50 68 106q13 36 46 98q0 63 -34 81z" />
    <glyph glyph-name="b" unicode="b" horiz-adv-x="600" 
d="M280 867q160 255 299 228q38 -7 54.5 -31t11 -57.5t-19.5 -71t-39 -77.5t-47 -71t-43 -56q-144 -173 -294 -277q-5 -11 -14.5 -33t-13.5 -33q131 117 240 95q80 -16 101.5 -92.5t-23.5 -172.5q-1 -3 -3.5 -8.5t-4.5 -8.5q82 31 137 121q3 4 6 9.5t4.5 8.5t3.5 6.5t3.5 5
t3 4t3 3t2.5 1.5t2.5 1h3.5t4 -1q13 -3 -4 -34q-38 -66 -78 -102t-110 -56q-12 -18 -38 -50q-103 -119 -245 -117q-46 1 -65.5 22t-14.5 49q7 40 47 59.5t123 30.5q8 1 29.5 3.5t32.5 4.5q51 73 64 157t-17 105q-52 43 -188 -74q-32 -28 -61 -73q-34 -84 -55 -143
q-34 -96 -50 -117.5t-65 -19.5q-13 1 -21.5 9t-12.5 30t10 61q58 169 159 400.5t183 361.5zM311 140q-6 0 -19 -1.5t-20 -2.5q-101 -10 -129 -50q-15 -22 7 -36q25 -15 72 13t89 77zM225 508q125 94 266 266q85 102 115 195q27 85 -24 86h-3q-45 -1 -114.5 -98.5
t-140.5 -235.5q-41 -82 -99 -213z" />
    <glyph glyph-name="c" unicode="c" horiz-adv-x="403" 
d="M312 457q-28 18 -72 -18t-86 -96q-31 -44 -48.5 -102.5t-7.5 -114.5t54 -77q24 -11 61.5 4t69.5 53q42 49 88 122.5t65 113.5q12 24 27 18q13 -4 -10 -45q-89 -161 -146 -225q-112 -124 -228 -74q-45 20 -70 66.5t-24.5 94.5t9.5 91q30 108 114.5 178t165.5 65
q42 -3 73 -45q33 -45 8 -108q-9 -22 -29 -34.5t-38 -8.5q-21 5 -26.5 24t12.5 36q17 15 28.5 29.5t17 30t-7.5 22.5z" />
    <glyph glyph-name="d" unicode="d" horiz-adv-x="591" 
d="M316 456q-33 17 -79 -15.5t-93 -106.5q-34 -53 -50.5 -124t2.5 -122q26 -56 103 33q16 19 34 45q55 78 98 161q2 6 5.5 17t6.5 20t6 17q-3 59 -33 75zM600 962q18 33 43 45.5t72 0.5q16 -5 22 -14t0 -26t-12 -27.5t-21 -35.5q-57 -94 -169 -364t-147 -417q-19 -81 16 -79
q33 2 81 64q65 82 140 231q8 17 14.5 20.5t9.5 -0.5q14 -4 -8 -45q-99 -187 -167 -263q-34 -38 -76.5 -42.5t-73.5 23t-37 74.5q-4 34 13 107q-106 -198 -208 -202q-49 -1 -78.5 43t-32 98.5t5.5 101.5q13 55 40.5 104t65.5 86t89 54.5t106 8.5q27 -5 49.5 -24t31.5 -45
q102 281 231 523z" />
    <glyph glyph-name="e" unicode="e" horiz-adv-x="382" 
d="M296 443q-11 30 -50 13q-55 -23 -104 -115q-9 -17 -22 -52q23 -16 62.5 -1t69.5 46q29 30 40 60t4 49zM111 261q-15 -51 -20 -97.5t6 -82.5t40 -42q32 -6 67 15.5t68.5 63.5t54 73t43.5 69q5 8 7 12q10 17 19.5 34.5t14.5 26.5t9.5 16.5t8 9.5t7.5 1q12 -4 8 -16
q-4 -15 -45 -84q-2 -4 -21 -37t-28.5 -48t-32.5 -48t-39.5 -49.5t-43.5 -38t-51.5 -29t-55.5 -7t-63 14.5q-57 25 -75.5 90.5t2.5 157.5q19 86 71 151t124 88q46 14 90 -0.5t55 -44.5q11 -32 -7.5 -77t-59.5 -78q-91 -74 -153 -44z" />
    <glyph glyph-name="f" unicode="f" horiz-adv-x="389" 
d="M175 419q48 34 85 66q58 48 110 98t107 111t85.5 118t24.5 98q-5 37 -39 38q-62 2 -154 -122l-12 -16q-77 -109 -207 -391zM149 362l-45 -105q61 -49 148 -39q100 12 160 106q4 7 9 16t8.5 15.5t7 12t7 7.5t7.5 0q6 -3 8 -5.5t-2 -16t-19 -38.5q-67 -110 -196 -120
q-94 -8 -146 42q37 -47 52 -133t4.5 -177t-35.5 -171.5t-69 -125.5t-94 -30q-56 17 -67.5 116t12.5 228t72 263q59 166 149.5 357.5t183.5 294.5q44 48 89.5 78.5t83 39.5t68 5t49 -20.5t22.5 -41.5q8 -55 -25.5 -124t-96 -136.5t-113 -114t-105.5 -89.5q-83 -66 -127 -94z
M82 198q-109 -313 -114 -480q-2 -88 30 -83q4 1 8 3q37 19 74 120t43.5 220.5t-41.5 219.5z" />
    <glyph glyph-name="g" unicode="g" horiz-adv-x="559" 
d="M429 455q28 29 53.5 47.5t42.5 25t28.5 6.5t18.5 -6l1 -1q4 -3 -1 -6q-9 -6 -17 -12t-29 -29t-45 -57q-17 -24 -31 -48t-27.5 -54t-22 -51t-21 -58.5t-17.5 -54t-18.5 -62t-17.5 -59.5q-30 -100 -58 -177t-65 -155.5t-79 -134t-93 -100t-115.5 -66.5t-139.5 -22
q-79 0 -137.5 33t-96.5 115q-37 77 -20 183q5 34 16.5 60t25 40t27.5 21t25 6.5t18 -6.5q30 -27 5 -69q-8 -14 -41 -57q-53 -69 -11 -176q44 -110 189 -110q49 0 95 21.5t81.5 54.5t70.5 85t60 101.5t51.5 117.5t43 118t36.5 117q5 17 17 53q-63 -74 -124 -75
q-37 -1 -63.5 24.5t-36.5 63.5t-13 80t7 74q13 55 41 104t66 86t89 54.5t106 8.5q36 -5 62.5 -35.5t23.5 -66.5q21 29 40 48zM330 457q-33 17 -79 -15t-93 -106q-35 -54 -55 -134t0 -122q22 -46 89 21q28 28 58 71q21 29 33 49q36 82 81 151q0 67 -34 85z" />
    <glyph glyph-name="h" unicode="h" horiz-adv-x="577" 
d="M280 867q160 255 299 228q38 -7 54.5 -31t11 -57.5t-19.5 -71t-39 -77.5t-47 -71t-43 -56q-144 -173 -294 -277q-24 -56 -35 -83q75 81 137 103.5t106 2.5q30 -14 47.5 -40.5t15 -68.5t-32.5 -87q-35 -53 -57.5 -101.5t-28 -84.5t14.5 -46q30 -14 95.5 60.5t129.5 199.5
l5 10l4.5 9t4 8.5t4 7.5l4.5 6t4 5t4 3.5t4.5 1.5t4.5 0q10 -7 8.5 -13t-18.5 -40q-2 -5 -3 -7q-15 -30 -34 -63.5t-47 -77.5t-60 -80.5t-61 -53.5q-58 -36 -112.5 -6t-53.5 105q0 44 29.5 102t59 108.5t30.5 74.5q3 49 -54 31q-63 -20 -134 -93q-33 -34 -54 -68
q-14 -35 -52 -137q-34 -96 -50 -117.5t-65 -19.5q-13 1 -21.5 9t-12.5 30t10 61q58 169 159 400.5t183 361.5zM225 508q125 94 266 266q85 102 115 195q27 85 -24 86h-3q-45 -1 -114.5 -98.5t-140.5 -235.5q-41 -82 -99 -213z" />
    <glyph glyph-name="i" unicode="i" horiz-adv-x="266" 
d="M246 589q-17 -17 -39.5 -21.5t-38.5 6.5q-7 4 -9 8q-13 15 -12 39t15 44q6 9 9 12q16 17 39.5 21t39.5 -7q5 -3 8 -8q13 -15 12.5 -39t-14.5 -44q-2 -3 -10 -11zM64 405q13 26 23.5 41t36 28t60.5 9q13 -2 20.5 -8.5t6.5 -18.5t-3 -22.5t-10 -27t-12 -25t-13 -23.5
q-80 -142 -112 -235q-22 -66 9 -71.5t73 44.5q46 52 142 219q4 7 8.5 15t6.5 11.5t5 8.5t4 6t4 3.5t5 1.5t6 -1q8 -4 6.5 -11.5t-13.5 -29.5q-117 -216 -174 -267q-59 -52 -112 -34.5t-71 89.5q-1 15 -2 26t4.5 32t9.5 35.5t13.5 37.5t16 38t17 37.5t17 35t15.5 31t13 25.5z
" />
    <glyph glyph-name="j" unicode="j" horiz-adv-x="237" 
d="M245 585q-16 -17 -39 -21t-39 7q-7 4 -9 8q-13 15 -12.5 39t14.5 44q2 3 10 11q17 17 39.5 21.5t38.5 -6.5q7 -4 9 -8q13 -15 12 -39t-15 -44q-6 -9 -9 -12zM70 434q29 36 69.5 54.5t56.5 11.5q15 -7 19 -14t-2 -16t-15 -17.5t-23 -22t-22 -25.5q-16 -24 -30.5 -47.5
t-28 -55t-21.5 -49.5t-21.5 -59.5t-17.5 -53.5t-19 -63t-17 -59q-36 -122 -70 -211t-82.5 -177.5t-102.5 -143.5t-129 -89t-165 -34q-80 0 -138.5 33t-96.5 115q-37 77 -20 183q5 34 16.5 60t25 40t27.5 21t25 6.5t18 -6.5q30 -27 5 -69q-7 -13 -41 -57q-53 -69 -11 -176
q44 -110 189 -110q49 0 95 21.5t81.5 54.5t70.5 85t60 101.5t51.5 117.5t43 118t36.5 117q92 302 184 416z" />
    <glyph glyph-name="k" unicode="k" horiz-adv-x="540" 
d="M289 894q79 119 150.5 167t141.5 34q38 -7 55 -30.5t12.5 -56.5t-18 -70t-37 -76.5t-45 -70t-42.5 -55.5q-156 -188 -313 -297q-46 -106 -52 -122q21 14 49 20q32 6 57.5 24.5t43.5 40.5t36.5 44.5t46.5 40t64 23.5q53 8 83.5 -36t18.5 -72q-7 -16 -22 -24t-25.5 -6.5
t-15.5 2.5q-9 7 -9 12t5.5 8.5t13.5 11t12 17.5q10 27 -4 40q-21 16 -65 -30q-32 -34 -48 -48t-48 -33t-76 -33q13 -9 22 -16.5t20 -21t15.5 -28t3.5 -35t-11 -43.5q-22 -52 -22.5 -95t21.5 -47q39 -9 111 70.5t144 217.5q8 15 12 21.5t10.5 12t13.5 5.5q17 0 -10 -49
q-1 -2 -23 -41.5t-32 -56.5t-34.5 -54.5t-42 -59.5t-42.5 -46.5t-48 -38.5q-28 -17 -60.5 -18.5t-58.5 11t-43 40t-17 64.5q1 37 20 82.5t20 74.5q2 39 -11 40q-58 6 -107 -72q-19 -51 -30 -94q-23 -91 -43 -115t-72 -22q-12 1 -20.5 9t-11 30t11.5 61q1 3 34.5 102.5
t45 131.5t48 126.5t63.5 150.5t68.5 134.5t85.5 143.5zM219 497q135 100 274 277q85 109 113 200q25 80 -24 81q-45 1 -114.5 -96.5t-141.5 -237.5q-53 -105 -107 -224z" />
    <glyph glyph-name="l" unicode="l" horiz-adv-x="331" 
d="M282 883q50 72 98.5 118.5t85.5 64.5t69.5 19.5t52.5 -8.5t34 -27q33 -41 -5.5 -137.5t-129.5 -194.5q-178 -193 -319 -299q-37 -78 -58 -142q-28 -81 -33 -146.5t14 -88.5q11 -13 25 -14.5t30 8t33 25.5t35.5 39t36 47.5t35.5 53.5t32.5 54.5t28.5 51.5l6.5 13t6 11.5
t5 9.5l4 8t4 6t4 4t3.5 2t4.5 0.5t4.5 -1.5q8 -7 6 -14.5t-18 -40.5q-23 -47 -45 -86t-55.5 -88.5t-65 -81t-70 -50t-73.5 -9.5q-159 39 -65 323q108 325 279 570zM202 489q18 17 67 59.5t94.5 89.5t119.5 132q69 80 101.5 158t8.5 97q-39 31 -120 -66t-159 -249
q-13 -25 -36 -70.5t-41.5 -82t-34.5 -68.5z" />
    <glyph glyph-name="m" unicode="m" horiz-adv-x="870" 
d="M68 348q-15 -26 -21 -30.5t-17 2.5q-7 5 18 48q3 6 5 9q10 16 14.5 23t17.5 23t28 24.5t33 10.5q57 8 81.5 -17.5t19.5 -74.5q77 90 115.5 120t76.5 19q67 -19 81 -65q92 91 178 66q73 -22 84 -74.5t-41 -122.5q-56 -77 -81.5 -159t3.5 -99q29 -14 95.5 66.5t132.5 201.5
q3 5 7 12t5.5 10t4 7.5t4 6t4 3t5 2t5.5 0.5q17 0 -4 -39l-4 -8q-1 -3 -13 -23.5t-18 -30.5t-20 -34t-23.5 -39t-25 -38t-27.5 -38t-27.5 -33.5t-28.5 -30.5t-27.5 -22t-27.5 -14q-66 -22 -105.5 5.5t-38.5 101.5q0 44 30.5 111t61 126.5t31.5 83.5q2 40 -24 35
q-38 -6 -99 -79q-15 -19 -28 -38q-7 -17 -25 -48q-40 -64 -69 -151t-36 -99q-12 -14 -34 -15t-43 18.5t-19 49.5q4 57 60.5 179.5t58.5 146.5q4 44 -30 21q-48 -33 -124 -147l-39 -64q0 -1 -1 -1l-1 -2q-12 -26 -32 -67t-31 -67q-31 -70 -45 -88q-25 -30 -55 -24
q-21 5 -32 15t-10 37.5t20 72.5q6 15 36.5 82.5t45.5 104.5q3 8 10.5 23.5t12.5 27t9 24t2 19.5t-11 8q-20 1 -58 -64z" />
    <glyph glyph-name="n" unicode="n" horiz-adv-x="636" 
d="M68 348q-15 -26 -21 -30.5t-17 2.5q-7 5 18 48q3 6 5 9q10 16 14.5 23t17.5 23t28 24.5t33 10.5q63 9 86.5 -22.5t11.5 -90.5q156 184 236 161q73 -22 84 -74t-41 -122q-56 -78 -82 -152.5t-1 -96.5q16 -14 41.5 3t56.5 59.5t59 88.5t60 105q3 5 6.5 12t5 10.5t4.5 8.5
t4.5 6.5t4.5 4t4.5 1.5t5.5 0q9 -5 7 -15.5t-16 -35.5q-4 -7 -32 -60t-41 -73.5t-38 -59t-48.5 -61t-47.5 -35.5q-41 -19 -78 -16t-62.5 34.5t-25.5 80.5q0 44 32.5 110.5t65 126t33.5 83.5q3 50 -57 5q-67 -50 -141 -152q-36 -51 -54 -89q-5 -10 -11 -18q-21 -43 -35 -75
q-31 -70 -45 -88q-25 -30 -55 -24q-21 5 -32 15t-10 37.5t20 72.5q6 15 36.5 82.5t45.5 104.5q3 8 10.5 23.5t12.5 27t9 24t2 19.5t-11 8q-20 1 -58 -64z" />
    <glyph glyph-name="o" unicode="o" horiz-adv-x="483" 
d="M272 260q22 5 36.5 -7.5t6.5 -37.5q-2 -6 -11 -30q38 64 45 122.5t-25 90.5q-37 28 -87.5 7t-92.5 -78q-35 -48 -49.5 -104t-8.5 -98t26 -58q19 -17 46.5 -10t52 24t48.5 43q-18 12 -24.5 36t-3.5 44q7 48 41 56zM233 487q69 0 119 -54q42 -46 33.5 -128.5t-62.5 -158.5
q29 -4 68 28t68 74q14 20 25.5 38t18 29t11.5 20t7 13.5t4 7.5t4 3.5t6 0.5q23 0 -10 -57q-2 -4 -36 -59q-30 -50 -85 -95.5t-110 -37.5q-36 -41 -72 -66.5t-68.5 -34.5t-60.5 -8t-53 12q-41 18 -60.5 77.5t-4.5 140t68 145.5q39 49 89 79.5t101 30.5z" />
    <glyph glyph-name="p" unicode="p" horiz-adv-x="575" 
d="M135 373q126 123 238 101q80 -16 102.5 -89.5t-22.5 -169.5q-2 -3 -5 -8.5t-4 -8.5q3 1 9.5 3.5t9.5 3.5q88 33 149 145q3 6 10 11t11 4q15 -4 4 -25q-57 -115 -174 -162q-12 -5 -38 -13q-22 -31 -37 -49q-114 -132 -248 -123q-35 2 -56 18.5t-18 47.5q4 33 53 67t132 41
q32 2 48 4q46 72 55.5 148t-19.5 96q-21 19 -53.5 12t-65 -28.5t-64.5 -53.5q-35 -35 -66 -93t-40 -90q0 -3 -1 -4q-6 -19 -17.5 -59.5t-18.5 -62.5q-30 -100 -58 -177t-65 -155.5t-79 -134t-93 -100t-115.5 -66.5t-139.5 -22q-80 0 -138.5 33t-96.5 115q-37 77 -20 183
q5 34 16.5 60t25 40t27.5 21t25 6.5t18 -6.5q13 -12 17 -23.5t-3.5 -28.5t-15 -28.5t-27.5 -37.5q-4 -5 -6 -8q-54 -70 -12 -176q44 -110 189 -110q49 0 95 21.5t81.5 54.5t70.5 85t60 101.5t51.5 117.5t43 118t36.5 117q40 131 95.5 245t119.5 174q47 44 88.5 64t54.5 9
l1 -1q4 -3 -1 -6q-9 -6 -17 -12t-29 -29t-45 -57t-38 -61q1 2 4.5 5.5zM279 143q-18 -2 -25 -2q-90 -4 -136 -54q-27 -30 -13 -47q3 -3 8 -5q29 -11 76.5 21.5t89.5 86.5z" />
    <glyph glyph-name="q" unicode="q" horiz-adv-x="561" 
d="M360 438q3 7 9 19l8 16t6.5 12.5t6.5 11l6 7.5t7.5 5.5t8.5 2t10.5 0.5t12 -2t15.5 -4q19 -6 27 -16t6 -26t-7.5 -32t-16.5 -40l-3.5 -7t-2.5 -6q-63 -142 -125 -308q1 0 7 3t10 4q138 56 245 258q10 19 13 22t11 2q2 0 5 -2t5 -10t-8 -24q-1 -1 -14.5 -26t-21.5 -37.5
t-26 -39.5t-35 -45.5t-40 -41.5t-50 -41t-57 -32l-11 -5.5t-10.5 -5t-8.5 -4.5t-3 -3q1 -1 18 -59q33 -89 9 -341q-25 -268 -135 -296q-85 -21 -128.5 68t-15.5 233q43 220 144 487q-81 -118 -159 -121q-37 -1 -63.5 24.5t-36.5 63.5t-13 80t7 74q13 55 41 104t66 86
t89 54.5t106 8.5q31 -5 56 -30t29 -56l3.5 7t3.5 8zM295 457q-33 17 -79 -15t-93 -106q-35 -54 -55 -134t0 -122q22 -46 89 21q28 28 58 71q49 70 91 147q2 3 10 22.5t13 29.5q0 68 -34 86zM311 24q-38 -103 -46 -128q-111 -323 -88 -454q11 -64 52 -51q73 22 98 218
q12 92 16.5 148t-1.5 127.5t-28 129.5q0 2 -1 5.5t-2 4.5z" />
    <glyph glyph-name="r" unicode="r" horiz-adv-x="385" 
d="M94 476q-15 11 -20.5 34.5t-0.5 47.5t17 45.5t31.5 28.5t42.5 -3q15 -7 18.5 -24.5t-0.5 -34t-12 -31.5q-34 -66 21 -92q124 -60 62 -187q-13 -26 -21 -43t-18.5 -40t-17 -38t-13 -33t-9 -29.5t-3.5 -21.5t2 -15.5t10 -6.5q29 -5 107.5 107.5t117.5 185.5q7 13 9.5 18
t7 12t8 8.5t7.5 0.5q16 -7 -1 -38q-1 -2 -17 -31t-25 -44.5t-28.5 -48.5t-33.5 -53.5t-34.5 -49.5t-37.5 -46t-35.5 -33.5t-35 -21.5t-31.5 -1q-48 14 -72.5 48t-19.5 82q2 14 5.5 26.5t11.5 30.5t11.5 25.5t17 32.5t15.5 29q20 38 29.5 62.5t12 50t-11 44t-43.5 32.5
q-44 -99 -52 -115q-13 -23 -26 -15q-8 5 4 29q35 68 51 116z" />
    <glyph glyph-name="s" unicode="s" horiz-adv-x="403" 
d="M278 602q17 0 21 -13q3 -15 -22 -30q-6 -3 -18.5 -16.5t-32 -47t-29.5 -72.5q-8 -37 -2.5 -63t20 -55.5t30 -52.5t28.5 -55t14 -63q0 -2 1 -10t1 -11q5 5 17 19q68 80 140 220q6 12 17 8q13 -5 6 -20q-27 -56 -79.5 -136.5t-88.5 -119.5q-13 -14 -23.5 -24.5t-24.5 -24
t-26.5 -22.5t-28 -19t-31 -15.5t-33 -9t-37 -3t-39.5 5.5q-100 23 -99 107q0 23 12 44.5t26 32t21 5.5q6 -8 2 -15.5t-11 -25t-4 -32.5q5 -32 47 -38.5t72 12.5q39 21 44 71.5t-27 93.5q-34 45 -40 103t7 86q2 6 -7 -9q-7 -11 -28 -50q-22 -41 -30 -55q-1 -1 -2 -3
q-14 -25 -24 -23q-2 0 -5 2q-8 5 13 44q8 15 33.5 67.5t48.5 87.5t56 67q20 19 55 36.5t48 20.5q4 1 12 1z" />
    <glyph glyph-name="t" unicode="t" horiz-adv-x="284" 
d="M-281 717q-3 -23 -19.5 -35t-33.5 -9t-24 17q-13 23 -4 50.5t38 50.5q53 41 112.5 53.5t166.5 3.5q65 -5 255 -53q46 98 83 167q18 33 43 45.5t72 0.5q16 -5 22 -14t0 -26t-12 -27.5t-21 -35.5q-22 -36 -70 -139q210 -44 371 -10q41 8 68.5 21.5t38 29t13.5 27.5t2 24
q-2 24 28 46t57 10q19 -8 23 -25t-2 -33t-17 -33q-29 -40 -86 -62.5t-104 -29.5q-188 -32 -404 11q-71 -155 -140 -333t-94 -285q-19 -81 16 -79q33 2 81 64q62 79 139 231q12 24 25 20q14 -4 -8 -45q-99 -187 -167 -263q-34 -38 -76.5 -42.5t-73.5 23t-37 74.5
q-8 67 58 262t160 400q-14 3 -45.5 11.5t-44 11.5t-43 10t-41.5 9t-40.5 7t-40 4.5t-39.5 2t-39 -1.5q-74 -7 -106.5 -31t-39.5 -75z" />
    <glyph glyph-name="u" unicode="u" horiz-adv-x="589" 
d="M383 440q46 78 109 35q43 -29 -5 -102t-80.5 -153t-37.5 -114q-12 -78 22 -73q31 6 77 66q54 69 150 235q20 34 29 26q11 -9 -12 -51q-110 -197 -174 -268q-34 -38 -79 -42.5t-80 23t-45 74.5q-5 22 -2 53q-82 -120 -130 -143q-61 -32 -112.5 -5.5t-55.5 100.5
q-2 44 22 113.5t54 127.5q53 102 81.5 130t71.5 7q23 -11 24 -34.5t-14 -54.5t-48 -84q-52 -81 -75.5 -167t6.5 -101q33 -11 80.5 43t128.5 184q24 56 95 175z" />
    <glyph glyph-name="v" unicode="v" horiz-adv-x="526" 
d="M27 334q39 77 56 99q45 56 94 17q57 -46 13 -171q-7 -21 -22 -61t-22 -60.5t-16 -47.5t-13 -44.5t-4 -28.5q0 -41 64 13q71 60 129 149q26 41 36 69q1 20 9.5 57t22.5 79t37 65t49 8q10 -6 10 -25t-4.5 -36.5t-9.5 -28.5q-14 -30 -58 -105q-16 -29 -12.5 -53.5
t22.5 -29.5q30 -8 78 41.5t76 106.5q9 17 22 13t0 -27q-33 -62 -87 -116t-96 -45q-17 4 -30.5 17t-14.5 28q-7 -16 -53 -74t-86 -96q-32 -30 -60.5 -44t-48 -14t-35.5 10.5t-25.5 23t-16.5 28.5q-11 25 0 80t41 158q22 75 16 84q-4 7 -19 -19l-10 -18q-15 -32 -25 -44
t-20 -7q-6 4 -3.5 12t16.5 37z" />
    <glyph glyph-name="w" unicode="w" horiz-adv-x="692" 
d="M639 479q11 -9 13.5 -27t-1 -33t-8.5 -26q-8 -18 -33 -58t-30 -49q-17 -28 -19 -53.5t12 -31.5q19 -8 69 35t85 109q10 19 21 15q15 -4 -1 -34q-39 -75 -101 -121t-101 -23q-15 8 -25 25q-4 -7 -16 -26t-19 -31q-104 -178 -190 -142q-50 20 -67.5 71.5t3.5 121.5
q-1 -2 -4 -6.5t-4 -6.5t-14 -24.5t-18 -31t-19.5 -31t-24 -33t-24.5 -27.5t-28.5 -24.5t-29.5 -15t-32.5 -7t-32.5 7.5q-35 15 -46 59.5t-0.5 99t25.5 101.5t32 80q19 40 30 61.5t27 45.5t31 33.5t32 8.5q38 -3 52 -22t3 -58.5t-49 -104.5q-52 -88 -85 -179t-7 -94
q19 -2 46 23t59 74t57 92t58 103q5 12 9 21q70 149 111 145q17 -2 28 -4.5t22 -14t11 -30t-12.5 -53.5t-41.5 -83q-49 -83 -75 -167t-4 -99q19 -13 42 -0.5t51 50t49 71.5t51 88q-8 57 26 132q22 50 53.5 83.5t53.5 14.5z" />
    <glyph glyph-name="x" unicode="x" horiz-adv-x="464" 
d="M392 478q21 0 42.5 -12t21.5 -29q0 -24 -26 -35t-37 10q-27 51 -81 1.5t-85 -145.5q-7 -20 -11 -39q-31 -136 20 -176q24 -19 58.5 1t70.5 68t66 97t56 101q18 37 26 40q5 3 11 0q4 -2 5.5 -5.5t-1.5 -12t-7 -16.5t-13 -24q-3 -6 -11 -20q-10 -20 -16.5 -31.5t-20.5 -36
t-24.5 -40.5t-26.5 -39.5t-29.5 -39t-30.5 -33t-33 -27t-33 -16t-34.5 -4.5t-33.5 11q-46 26 -48 98q-50 -93 -117 -119q-44 -18 -75 -1q-28 15 -3 39l9 7q48 34 102 113t80.5 159t0.5 112q-28 34 -88 -71l-1.5 -1.5t-0.5 -1.5q-16 -29 -22 -35.5t-15 -2.5q-13 5 -2 24
q3 6 18.5 35.5t23.5 41.5t23.5 30.5t32 24.5t35.5 1q27 -7 46 -35.5t21 -76.5q35 58 68 84q35 27 89 27z" />
    <glyph glyph-name="y" unicode="y" horiz-adv-x="536" 
d="M502 483q19 2 24 -1t0 -10.5t-16 -19.5l-5 -5t-5 -5.5t-5 -6t-5 -6t-5.5 -7t-4.5 -6.5q-16 -24 -30.5 -48.5t-27.5 -54t-22 -50.5t-21 -58t-17 -54.5t-18.5 -62t-17.5 -59.5q-30 -100 -58 -177t-65 -155.5t-79 -134t-93 -100t-115.5 -66.5t-139.5 -22q-79 0 -137.5 33
t-96.5 115q-37 77 -20 183q5 34 16.5 60t24.5 40t27 21t25 6.5t18 -6.5q30 -27 5 -70q-8 -13 -40 -56q-54 -70 -12 -176q44 -110 189 -110q49 0 95 21.5t81.5 54.5t70.5 85t60 101.5t51.5 117.5t43 118t36.5 117q23 74 40 120q-73 -98 -118 -126q-40 -21 -79 -22.5t-69 26.5
t-32 77q-4 81 57 209q37 79 69 121.5t64 36.5q36 -7 46.5 -19t-2.5 -52.5t-62 -122.5t-64.5 -151.5t14.5 -84.5q29 -12 99.5 67t133.5 180q89 182 192 195z" />
    <glyph glyph-name="z" unicode="z" horiz-adv-x="538" 
d="M63 340q-11 -17 -28 -48q-16 -31 -22 -31q-4 1 -7 7q-9 17 31 78q16 25 27 39t41 44.5t72 51t94 29.5q67 11 116.5 -6.5t64.5 -57.5q38 -105 -74 -173q-29 -18 -65 -33.5t-57 -21.5l-22 -7q10 -1 26 -4t55.5 -22t66.5 -49q58 42 98 84t79 102q3 5 7.5 11.5t6 9.5t4.5 7
t4 5l3.5 3.5t3 1.5t3.5 0.5t5 -0.5q18 -3 -16 -55l-13 -18q-75 -106 -168 -174q51 -75 36 -196q-15 -114 -108 -240.5t-204 -170.5q-79 -31 -147 -37t-113 10t-73.5 40.5t-38.5 55.5q-25 74 25.5 160t155.5 154q78 50 201 107.5t188 98.5q-28 67 -98 86q-10 6 -30 3.5
t-27 -4t-27 -8t-29 -8.5q-32 -7 -38 -6t-11 8q-3 10 -2 18.5t12 18.5t21.5 17t26.5 14.5t26 12t22 9.5q3 1 5 2q37 15 59.5 26.5t53 31.5t46.5 45t17 55q1 33 -22 50t-67 11q-116 -16 -196 -137zM330 68q-69 -43 -193.5 -104t-181.5 -97q-95 -61 -138 -139t-32 -119
q15 -53 73 -60.5t130 21.5q77 28 157.5 102.5t130 148.5t56.5 119q12 76 -2 128z" />
    <glyph glyph-name="braceleft" unicode="{" horiz-adv-x="804" 
d="M446 -299q10 -1 10.5 -13.5t-11.5 -13.5q-204 -12 -273 -10q-194 6 -169 73q18 49 43.5 113.5t38 96.5t27 75t18.5 65.5t5.5 51t-6 50t-21.5 43.5q-13 20 -34 37t-29.5 28.5t-4.5 31.5q5 21 15.5 28t46.5 16t68 22t57 33.5t45.5 44.5t50.5 80.5t54 108t74 160.5
q4 9 12.5 27.5t11 24t8.5 19t9.5 16.5t9.5 12t11.5 11t13 7.5t17 8t20.5 5.5t26 6q48 10 160.5 -1t102.5 -43q-5 -10 -26.5 -7.5t-57.5 4.5t-70.5 3.5t-64.5 -11t-41 -39.5q-187 -460 -324 -525q-34 -16 -68 -21t-51 -5.5t-18 -4.5q-2 -7 6.5 -13.5t22.5 -12t33 -24
t32 -45.5q69 -144 -103 -497q-3 -5 71 -8.5t159 -5t93 -2.5z" />
    <glyph glyph-name="bar" unicode="|" horiz-adv-x="598" 
d="M79 -373q-8 -23 -35 -25q-24 -2 -28 17q-1 8 3 19q24 67 196 616t190 601q16 46 38 122q26 89 43 115t54 5q40 -24 37.5 -71.5t-50.5 -163.5q-19 -46 -89 -237.5t-140.5 -387.5t-141.5 -394.5t-77 -215.5z" />
    <glyph glyph-name="braceright" unicode="}" horiz-adv-x="882" 
d="M320 942q-10 1 -10.5 13.5t11.5 13.5q204 12 273 10q193 -7 169 -73q-18 -49 -43.5 -113.5t-38 -96.5t-27 -75t-18.5 -65.5t-5.5 -51t6 -50t21.5 -43.5q13 -20 34 -37t29.5 -28.5t4.5 -31.5q-5 -21 -15.5 -28t-46.5 -16t-68 -22t-57 -33.5t-45.5 -44.5t-50.5 -80.5
t-54 -108t-74 -160.5q-4 -9 -12.5 -27.5t-11 -24t-8.5 -19t-9.5 -16.5t-9.5 -12t-11.5 -11t-13 -7.5t-17 -8t-20.5 -5.5t-26 -6q-48 -10 -160.5 1t-102.5 43q5 10 26.5 7.5t57.5 -4.5t70.5 -3.5t64.5 11t41 39.5q187 460 324 525q34 16 67.5 21t50.5 5.5t18 4.5
q2 7 -6.5 13.5t-22.5 12t-32.5 24t-31.5 45.5q-69 144 103 497q3 5 -71 8.5t-159 5t-93 2.5z" />
    <glyph glyph-name="asciitilde" unicode="~" horiz-adv-x="638" 
d="M41 1284q10 53 60 100.5t120 47.5q39 -1 115.5 -31.5t112.5 -32.5h13q77 0 126 66q3 -8 3 -17q0 -42 -46 -88.5t-103 -46.5q-42 0 -119 30t-120 31q-91 0 -162 -59z" />
    <glyph glyph-name="cent" unicode="&#xa2;" horiz-adv-x="854" 
d="M620 738q-25 24 -83 9q-28 -98 -95 -346t-92 -338q82 -7 146 43q25 19 37 7t-15 -35q-82 -68 -181 -62q-23 -85 -36 -122q-4 -12 -19 -15.5t-26.5 5t-5.5 24.5q11 29 35 117q-42 11 -86 40q-62 40 -89 119t-21.5 156t30.5 144q54 143 161.5 237.5t217.5 109.5
q11 40 20 68q4 13 11 35q18 57 28.5 72t36.5 4q7 -3 11 -6.5t5 -9.5t0.5 -11.5t-4 -16t-7 -20.5t-10 -27.5t-11.5 -33.5q-2 -7 -8 -25.5t-9 -27.5q2 0 6 -1t6 -1q60 -11 91 -66.5t20 -140.5q-3 -23 -14 -38.5t-23 -15.5q-18 0 -4 49q23 78 -23 120zM468 718
q-96 -53 -161 -140q-38 -50 -66 -114t-41.5 -130.5t-1 -129t53.5 -101.5q16 -16 46 -28q23 83 170 643z" />
    <glyph glyph-name="sterling" unicode="&#xa3;" horiz-adv-x="905" 
d="M983 868q0 38 -40.5 71t-106.5 28q-35 -2 -65.5 -12t-56.5 -29.5t-47.5 -39.5t-42.5 -53t-35.5 -59.5t-32.5 -69.5t-29 -71.5t-29 -76.5q-10 -26 -15 -40q7 0 21.5 -0.5t20.5 -0.5h41.5h33.5q57 1 64.5 -4t-8.5 -36q-14 -25 -44 -30t-110 -5h-34h-12l-128 -373
q59 -7 149 -3.5t172.5 -3.5t82.5 -31q0 -35 -36 -42t-194 -6h-93q-1 0 -92.5 -3.5t-120.5 -2.5q-9 0 -21.5 0.5t-19 0.5t-16 0.5t-13.5 1t-11 2t-8 4t-5.5 6.5t-3 9t0.5 12q3 24 18.5 35t39 11t55.5 -2q45 187 115 384q-78 -1 -160 2q-18 1 -11 28q9 31 33 41l13 2
q37 0 153 2q12 31 29 71q66 153 130 242t146.5 134t195.5 47q73 1 135.5 -28.5t73.5 -61.5q17 -51 -24 -68q-28 -13 -49 2q-8 7 -9 16z" />
    <glyph glyph-name="yen" unicode="&#xa5;" horiz-adv-x="690" 
d="M133 358q-11 0 -14.5 16.5t2.5 32.5t20 16q81 0 131 1q-18 37 -38.5 98t-34.5 110t-40.5 145t-39.5 141q-5 17 27 27q49 16 101 4q33 -8 35 -25q37 -326 78 -467q31 40 143.5 241t135.5 228q21 25 63 22q37 -2 37 -25q0 -4 -2 -9q-40 -51 -151.5 -239.5t-155.5 -250.5
q101 1 120 -4q29 -7 23 -33q-6 -24 -28.5 -29t-84.5 -5h-7h-7h-8h-41l-27 -113h3q23 -1 44.5 -0.5t40.5 0.5h35t28 -2.5t20 -6.5t11 -11.5t1 -17.5q-6 -23 -27.5 -28t-81.5 -5h-27h-64l-31 -134q-9 -34 -49 -39q-37 -5 -51 17q-5 9 -3 22l31 135q-104 2 -138 4
q-11 0 -14.5 16t2.5 32t20 16q16 0 66 1t80 1l26 114q-123 2 -159 4z" />
    <glyph glyph-name="dieresis" unicode="&#xa8;" horiz-adv-x="368" 
d="M287 422q-26 17 -66 -16.5t-79 -89.5q-29 -41 -45 -95t-7 -105.5t50 -70.5q21 -10 55.5 4t64.5 49q38 45 80 111.5t62 105.5q11 21 25 17q11 -4 -8 -38q-1 -2 -2 -3q-85 -152 -134 -208q-103 -115 -210 -68q-42 18 -64.5 61t-22 87t8.5 84q28 100 105.5 164.5t151.5 59.5
q41 -3 68 -41q30 -41 8 -100q-8 -20 -27.5 -32t-35.5 -8q-20 5 -24 22.5t12 32.5q62 58 34 77z" />
    <glyph glyph-name="copyright" unicode="&#xa9;" horiz-adv-x="991" 
d="M773 526q-35 28 -87 30.5t-111.5 -25t-109.5 -82.5q-63 -70 -98 -145t-38 -136t16.5 -110t59.5 -74q66 -42 167.5 -4t159.5 128q78 122 89.5 246.5t-48.5 171.5zM640 620q51 0 90.5 -16t82.5 -60q66 -76 46.5 -213t-102.5 -254q-40 -57 -92.5 -94t-106 -51t-105 -9.5
t-94.5 27.5q-42 23 -69 79t-33 127t20.5 154.5t84.5 153.5q58 69 130.5 112.5t147.5 43.5zM680 411q-20 14 -53 -13t-63 -71q-23 -33 -35.5 -76t-5.5 -84.5t40 -56.5q18 -8 45 3t51 39q10 12 18.5 24t12 19t7 12t6.5 6t8 0q11 -4 -1.5 -27t-32.5 -46q-81 -92 -168 -54
q-33 15 -51.5 49t-18 69t6.5 67q22 80 84.5 131.5t121.5 47.5q30 -1 54 -33q25 -33 7 -80q-7 -16 -22 -25t-28 -6q-16 4 -19.5 18t9.5 26q50 45 27 61z" />
    <glyph glyph-name="uni00AD" unicode="&#xad;" horiz-adv-x="174" 
d="M82 102q1 -5 4.5 -11t4.5 -7.5t-1 -4.5q-3 -1 -7 0.5t-7 8.5t-2 18q2 24 24.5 37t49.5 10q12 -2 18 -5l10 5q18 8 18 5q0 -1 -14 -9q-1 -1 -4 -2t-4 -2q22 -13 22 -39q0 -46 -53 -59q2 0 4 -2q16 -10 8 -36q-8 -29 3 -36q16 -10 30 4q2 2 3.5 5t2.5 4l1 2q2 1 2 -2
l-5 -10q-12 -14 -35 -8q-32 10 -16 48q8 21 0 27q-4 2 -5 2q-7 -1 -21 -1q-28 -67 -72 -69q-31 -2 -39 24q-4 14 -1 26q2 8 6 12.5t7 5t5 -0.5q5 -5 -7 -18q-8 -9 -3 -25q7 -22 33 -19q7 1 13 3.5t11.5 8.5t9 10.5t8 14.5t6.5 15t6.5 17t5.5 16q22 56 57 79q-5 2 -13 4
q-22 4 -45 -9t-19 -37zM114 47q23 1 42 15t21 45q1 22 -12 33q-24 -18 -44 -77q-1 -2 -3.5 -7.5t-3.5 -8.5z" />
    <glyph glyph-name="registered" unicode="&#xae;" horiz-adv-x="974" 
d="M502 234q23 1 46 31.5t2 59.5l-6 -7q-7 -8 -10.5 -13t-10.5 -19t-14 -32q-6 -16 -7 -20zM471 301q0 -18 -12 -20q-11 -2 -17 5t-4 19q5 29 33 44.5t61 12.5q27 -2 44.5 -17.5t19.5 -37.5q2 -28 -15.5 -48t-45.5 -26h-9q15 -4 21 -12t7 -29q0 -7 -3 -20t-3 -21.5t7 -9.5
q6 -1 13 11t16 12q11 0 12.5 -12t-10.5 -21q-17 -13 -47 -5q-21 6 -26 32t1 41q4 15 -8 24q-6 3 -7 3h-1q-1 -2 -5.5 -13t-6 -14t-6 -13t-7.5 -13t-8.5 -10.5t-11.5 -10t-13.5 -6.5t-16.5 -5t-20 0q-16 1 -29.5 10.5t-18.5 25.5q-5 15 -1 32q7 28 29 27q17 0 18 -15
q1 -7 -6 -16q-5 -6 -8.5 -14t-2.5 -16t9 -11q19 -7 43 22.5t39 69.5q25 64 68 74q-7 4 -16 6q-20 4 -37.5 -8t-18.5 -27zM538 511q44 0 74.5 -8t65.5 -36q42 -35 48 -105.5t-17.5 -144.5t-65.5 -133q-42 -58 -100 -89t-116 -30t-105 32q-43 28 -64.5 91t-7 148t73.5 156
q44 53 100 86t114 33zM640 439q-27 22 -66.5 24t-85 -19.5t-84.5 -63.5q-64 -71 -87.5 -144.5t-10.5 -127t51 -85.5q54 -43 138.5 -13.5t127.5 101.5q48 82 62 150t0.5 110t-45.5 68z" />
    <glyph glyph-name="Agrave" unicode="&#xc0;" horiz-adv-x="1646" 
d="M2081 1307q4 -12 5 -20t-7.5 -15.5t-17.5 -12t-23.5 -9t-26 -7.5t-26 -6.5t-22.5 -5.5q-105 -92 -212.5 -282t-191.5 -404q92 3 161.5 13.5t104.5 21.5t57 25t27 21t6 13q12 -120 -370 -131q-5 -14 -17.5 -46t-18.5 -48q-21 -57 -39.5 -115.5t-35 -128.5t-25 -129.5
t-5.5 -113t21 -83.5q30 -51 92.5 -58t120.5 28q22 13 46 40t39.5 45.5t22.5 17.5q8 -4 2 -22.5t-23 -43.5t-33 -39q-123 -105 -277 -39q-66 28 -94.5 100.5t-21 175t34.5 213t73 236.5q1 1 2 4.5t1 4.5q-99 0 -251 5q-51 2 -99 3l-2.5 -5t-2.5 -4q-54 -98 -83.5 -150
t-83 -138t-92.5 -133.5t-97.5 -108t-112.5 -93t-124 -57.5t-145 -30q-108 -6 -193.5 44t-117.5 150q-6 20 -6.5 52.5t9.5 79.5t31.5 93.5t65.5 97t105 88.5q42 26 72.5 42t93.5 39.5t132 37t179 23.5t243 11q340 561 769 669q-83 -9 -173 -6t-160 11t-171 11t-206 -6
q-104 -9 -195 -35.5t-165.5 -71t-118.5 -112.5t-45 -152q-1 -66 35 -107t89 -49t113.5 9.5t106.5 57.5q37 33 62 69.5t39 82.5t19.5 78t12.5 87q4 34 22 -2q25 -51 29 -116q1 -10 0 -19q-8 -127 -137 -219q-26 -18 -68 -33t-91 -23.5t-98.5 -3t-90 23.5t-66 60t-25.5 103
q0 96 46 171t128 122.5t182 75t220 37.5q103 8 218 4.5t207 -11t198.5 -5.5t192.5 19q5 2 13.5 5.5t33.5 12.5t48.5 16t53.5 13.5t53 8t42.5 -4t26.5 -18.5zM907 515q-227 1 -391 -36.5t-260 -97.5q-61 -38 -104.5 -87t-64 -93.5t-29.5 -89t-7.5 -74t7.5 -48.5
q26 -77 96.5 -115.5t165.5 -32.5q44 3 88.5 23.5t81.5 49t79.5 77.5t73.5 90.5t72 106.5t66 108.5t65.5 114t60.5 104.5zM1423 543q83 215 205.5 403.5t239.5 277.5q-137 -26 -230 -72q-299 -148 -557 -599q66 -2 99 -4q138 -6 243 -6zM1643 1538q-19 14 -2 37q18 25 44 17
q4 -2 9 -5q38 -25 114.5 -96.5t65.5 -83.5q-10 -6 -21.5 -6t-32 10.5t-39 22t-41.5 29t-39.5 30.5t-34 26.5t-23.5 18.5z" />
    <glyph glyph-name="Aacute" unicode="&#xc1;" horiz-adv-x="1646" 
d="M2081 1307q4 -12 5 -20t-7.5 -15.5t-17.5 -12t-23.5 -9t-26 -7.5t-26 -6.5t-22.5 -5.5q-105 -92 -212.5 -282t-191.5 -404q92 3 161.5 13.5t104.5 21.5t57 25t27 21t6 13q12 -120 -370 -131q-5 -14 -17.5 -46t-18.5 -48q-21 -57 -39.5 -115.5t-35 -128.5t-25 -129.5
t-5.5 -113t21 -83.5q30 -51 92.5 -58t120.5 28q22 13 46 40t39.5 45.5t22.5 17.5q8 -4 2 -22.5t-23 -43.5t-33 -39q-123 -105 -277 -39q-66 28 -94.5 100.5t-21 175.5t34.5 214t73 237q1 1 2 3.5t1 3.5q-99 0 -251 5q-51 2 -99 3l-2.5 -5t-2.5 -4q-54 -98 -83.5 -150
t-83 -138t-92.5 -133.5t-97.5 -108t-112.5 -93t-124 -57.5t-145 -30q-108 -6 -193.5 44t-117.5 150q-6 20 -6.5 52.5t9.5 79.5t31.5 93.5t65.5 97t105 88.5q42 26 72.5 42t93.5 39.5t132 37t179 23.5t243 11q340 561 769 669q-83 -9 -173 -6t-160 11t-171 11t-206 -6
q-104 -9 -195 -35.5t-165.5 -71t-118.5 -112.5t-45 -152q-1 -66 35 -107t89 -49t113.5 9.5t106.5 57.5q37 33 62 69.5t39 82.5t19.5 78t12.5 87q4 34 22 -2q25 -51 29 -116q1 -10 0 -19q-8 -127 -137 -219q-26 -18 -68 -33t-91 -23.5t-98.5 -3t-90 23.5t-66 60t-25.5 103
q0 96 46 171t128 122.5t182 75t220 37.5q103 8 218 4.5t207 -11t198.5 -5.5t192.5 19q5 2 13.5 5.5t33.5 12.5t48.5 16t53.5 13.5t53 8t42.5 -4t26.5 -18.5zM907 515q-227 1 -391 -36.5t-260 -97.5q-61 -38 -104.5 -87t-64 -93.5t-29.5 -89t-7.5 -74t7.5 -48.5
q26 -77 96.5 -115.5t165.5 -32.5q44 3 88.5 23.5t81.5 49t79.5 77.5t73.5 90.5t72 106.5t66 108.5t65.5 114t60.5 104.5zM1423 543q83 215 205.5 403.5t239.5 277.5q-137 -26 -230 -72q-299 -148 -557 -599q66 -2 99 -4q138 -6 243 -6zM2011 1538q-6 -5 -23.5 -18.5
t-34 -26.5t-39.5 -30.5t-41.5 -29t-39 -22t-32 -10.5t-21.5 6q-11 12 65.5 83.5t114.5 96.5q26 18 49 -7q19 -20 7 -37z" />
    <glyph glyph-name="Acircumflex" unicode="&#xc2;" horiz-adv-x="1646" 
d="M2081 1307q4 -12 5 -20t-7.5 -15.5t-17.5 -12t-23.5 -9t-26 -7.5t-26 -6.5t-22.5 -5.5q-105 -92 -212.5 -282t-191.5 -404q92 3 161.5 13.5t104.5 21.5t57 25t27 21t6 13q12 -120 -370 -131q-5 -14 -17.5 -46t-18.5 -48q-21 -57 -39.5 -115.5t-35 -128.5t-25 -129.5
t-5.5 -113t21 -83.5q30 -51 92.5 -58t120.5 28q22 13 46 40t39.5 45.5t22.5 17.5q8 -4 2 -22.5t-23 -43.5t-33 -39q-123 -105 -277 -39q-66 28 -94.5 100.5t-21 175.5t34.5 214t73 237q1 1 2 3.5t1 3.5q-99 0 -251 5q-51 2 -99 3l-2.5 -5t-2.5 -4q-54 -98 -83.5 -150
t-83 -138t-92.5 -133.5t-97.5 -108t-112.5 -93t-124 -57.5t-145 -30q-108 -6 -193.5 44t-117.5 150q-6 20 -6.5 52.5t9.5 79.5t31.5 93.5t65.5 97t105 88.5q42 26 72.5 42t93.5 39.5t132 37t179 23.5t243 11q340 561 769 669q-83 -9 -173 -6t-160 11t-171 11t-206 -6
q-104 -9 -195 -35.5t-165.5 -71t-118.5 -112.5t-45 -152q-1 -66 35 -107t89 -49t113.5 9.5t106.5 57.5q37 33 62 69.5t39 82.5t19.5 78t12.5 87q4 34 22 -2q25 -51 29 -116q1 -10 0 -19q-8 -127 -137 -219q-26 -18 -68 -33t-91 -23.5t-98.5 -3t-90 23.5t-66 60t-25.5 103
q0 96 46 171t128 122.5t182 75t220 37.5q103 8 218 4.5t207 -11t198.5 -5.5t192.5 19q5 2 13.5 5.5t33.5 12.5t48.5 16t53.5 13.5t53 8t42.5 -4t26.5 -18.5zM907 515q-227 1 -391 -36.5t-260 -97.5q-61 -38 -104.5 -87t-64 -93.5t-29.5 -89t-7.5 -74t7.5 -48.5
q26 -77 96.5 -115.5t165.5 -32.5q44 3 88.5 23.5t81.5 49t79.5 77.5t73.5 90.5t72 106.5t66 108.5t65.5 114t60.5 104.5zM1423 543q83 215 205.5 403.5t239.5 277.5q-137 -26 -230 -72q-299 -148 -557 -599q66 -2 99 -4q138 -6 243 -6zM1921 1597q21 -9 31 -45t14 -133
q0 -8 -17 -11t-33.5 3t-16.5 19q1 24 1.5 69.5t0.5 56.5q1 8 -19.5 -18t-47.5 -62.5t-38 -45.5q-22 -20 -58 -13q-27 5 -20 20q1 1 2 3q82 103 127.5 136t73.5 21z" />
    <glyph glyph-name="Atilde" unicode="&#xc3;" horiz-adv-x="1646" 
d="M2081 1307q4 -12 5 -20t-7.5 -15.5t-17.5 -12t-23.5 -9t-26 -7.5t-26 -6.5t-22.5 -5.5q-105 -92 -212.5 -282t-191.5 -404q92 3 161.5 13.5t104.5 21.5t57 25t27 21t6 13q12 -120 -370 -131q-5 -14 -17.5 -46t-18.5 -48q-21 -57 -39.5 -115.5t-35 -128.5t-25 -129.5
t-5.5 -113t21 -83.5q30 -51 92.5 -58t120.5 28q22 13 46 40t39.5 45.5t22.5 17.5q8 -4 2 -22.5t-23 -43.5t-33 -39q-123 -105 -277 -39q-66 28 -94.5 100.5t-21 175.5t34.5 214t73 237q1 1 2 3.5t1 3.5q-99 0 -251 5q-51 2 -99 3l-2.5 -5t-2.5 -4q-54 -98 -83.5 -150
t-83 -138t-92.5 -133.5t-97.5 -108t-112.5 -93t-124 -57.5t-145 -30q-108 -6 -193.5 44t-117.5 150q-6 20 -6.5 52.5t9.5 79.5t31.5 93.5t65.5 97t105 88.5q42 26 72.5 42t93.5 39.5t132 37t179 23.5t243 11q340 561 769 669q-83 -9 -173 -6t-160 11t-171 11t-206 -6
q-104 -9 -195 -35.5t-165.5 -71t-118.5 -112.5t-45 -152q-1 -66 35 -107t89 -49t113.5 9.5t106.5 57.5q37 33 62 69.5t39 82.5t19.5 78t12.5 87q4 34 22 -2q25 -51 29 -116q1 -10 0 -19q-8 -127 -137 -219q-26 -18 -68 -33t-91 -23.5t-98.5 -3t-90 23.5t-66 60t-25.5 103
q0 96 46 171t128 122.5t182 75t220 37.5q103 8 218 4.5t207 -11t198.5 -5.5t192.5 19q5 2 13.5 5.5t33.5 12.5t48.5 16t53.5 13.5t53 8t42.5 -4t26.5 -18.5zM907 515q-227 1 -391 -36.5t-260 -97.5q-61 -38 -104.5 -87t-64 -93.5t-29.5 -89t-7.5 -74t7.5 -48.5
q26 -77 96.5 -115.5t165.5 -32.5q44 3 88.5 23.5t81.5 49t79.5 77.5t73.5 90.5t72 106.5t66 108.5t65.5 114t60.5 104.5zM1423 543q83 215 205.5 403.5t239.5 277.5q-137 -26 -230 -72q-299 -148 -557 -599q66 -2 99 -4q138 -6 243 -6zM1757 1432q-3 38 27 75.5t71 36.5
q21 -1 62.5 -19.5t62.5 -19.5q17 -1 27 0t24.5 9.5t26.5 26.5q10 -29 -8 -67t-67 -38q-24 0 -67 18.5t-66 18.5q-49 0 -93 -41z" />
    <glyph glyph-name="Adieresis" unicode="&#xc4;" horiz-adv-x="1646" 
d="M2081 1307q4 -12 5 -20t-7.5 -15.5t-17.5 -12t-23.5 -9t-26 -7.5t-26 -6.5t-22.5 -5.5q-105 -92 -212.5 -282t-191.5 -404q92 3 161.5 13.5t104.5 21.5t57 25t27 21t6 13q12 -120 -370 -131q-5 -14 -17.5 -46t-18.5 -48q-21 -57 -39.5 -115.5t-35 -128.5t-25 -129.5
t-5.5 -113t21 -83.5q30 -51 92.5 -58t120.5 28q22 13 46 40t39.5 45.5t22.5 17.5q8 -4 2 -22.5t-23 -43.5t-33 -39q-123 -105 -277 -39q-66 28 -94.5 100.5t-21 175.5t34.5 214t73 237q1 1 2 3.5t1 3.5q-99 0 -251 5q-51 2 -99 3l-2.5 -5t-2.5 -4q-54 -98 -83.5 -150
t-83 -138t-92.5 -133.5t-97.5 -108t-112.5 -93t-124 -57.5t-145 -30q-108 -6 -193.5 44t-117.5 150q-6 20 -6.5 52.5t9.5 79.5t31.5 93.5t65.5 97t105 88.5q42 26 72.5 42t93.5 39.5t132 37t179 23.5t243 11q340 561 769 669q-83 -9 -173 -6t-160 11t-171 11t-206 -6
q-104 -9 -195 -35.5t-165.5 -71t-118.5 -112.5t-45 -152q-1 -66 35 -107t89 -49t113.5 9.5t106.5 57.5q37 33 62 69.5t39 82.5t19.5 78t12.5 87q4 34 22 -2q25 -51 29 -116q1 -10 0 -19q-8 -127 -137 -219q-26 -18 -68 -33t-91 -23.5t-98.5 -3t-90 23.5t-66 60t-25.5 103
q0 96 46 171t128 122.5t182 75t220 37.5q103 8 218 4.5t207 -11t198.5 -5.5t192.5 19q5 2 13.5 5.5t33.5 12.5t48.5 16t53.5 13.5t53 8t42.5 -4t26.5 -18.5zM907 515q-227 1 -391 -36.5t-260 -97.5q-61 -38 -104.5 -87t-64 -93.5t-29.5 -89t-7.5 -74t7.5 -48.5
q26 -77 96.5 -115.5t165.5 -32.5q44 3 88.5 23.5t81.5 49t79.5 77.5t73.5 90.5t72 106.5t66 108.5t65.5 114t60.5 104.5zM1423 543q83 215 205.5 403.5t239.5 277.5q-137 -26 -230 -72q-299 -148 -557 -599q66 -2 99 -4q138 -6 243 -6zM1801 1429q-25 0 -43.5 18.5
t-18.5 43.5q0 26 18 44t43 18q26 0 44.5 -18.5t18.5 -43.5t-18.5 -43.5t-43.5 -18.5zM1963 1429q-25 0 -43.5 18.5t-18.5 43.5q0 26 18 44t43 18q26 0 44.5 -18.5t18.5 -43.5t-18.5 -43.5t-43.5 -18.5z" />
    <glyph glyph-name="Aring" unicode="&#xc5;" horiz-adv-x="1646" 
d="M2081 1307q4 -12 5 -20t-7.5 -15.5t-17.5 -12t-23.5 -9t-26 -7.5t-26 -6.5t-22.5 -5.5q-105 -92 -212.5 -282t-191.5 -404q92 3 161.5 13.5t104.5 21.5t57 25t27 21t6 13q12 -120 -370 -131q-5 -14 -17.5 -46t-18.5 -48q-21 -57 -39.5 -115.5t-35 -128.5t-25 -129.5
t-5.5 -113t21 -83.5q30 -51 92.5 -58t120.5 28q22 13 46 40t39.5 45.5t22.5 17.5q8 -4 2 -22.5t-23 -43.5t-33 -39q-123 -105 -277 -39q-66 28 -94.5 100.5t-21 175.5t34.5 214t73 237q1 1 2 3.5t1 3.5q-99 0 -251 5q-51 2 -99 3l-2.5 -5t-2.5 -4q-54 -98 -83.5 -150
t-83 -138t-92.5 -133.5t-97.5 -108t-112.5 -93t-124 -57.5t-145 -30q-108 -6 -193.5 44t-117.5 150q-6 20 -6.5 52.5t9.5 79.5t31.5 93.5t65.5 97t105 88.5q42 26 72.5 42t93.5 39.5t132 37t179 23.5t243 11q340 561 769 669q-83 -9 -173 -6t-160 11t-171 11t-206 -6
q-104 -9 -195 -35.5t-165.5 -71t-118.5 -112.5t-45 -152q-1 -66 35 -107t89 -49t113.5 9.5t106.5 57.5q37 33 62 69.5t39 82.5t19.5 78t12.5 87q4 34 22 -2q25 -51 29 -116q1 -10 0 -19q-8 -127 -137 -219q-26 -18 -68 -33t-91 -23.5t-98.5 -3t-90 23.5t-66 60t-25.5 103
q0 96 46 171t128 122.5t182 75t220 37.5q103 8 218 4.5t207 -11t198.5 -5.5t192.5 19q5 2 13.5 5.5t33.5 12.5t48.5 16t53.5 13.5t53 8t42.5 -4t26.5 -18.5zM907 515q-227 1 -391 -36.5t-260 -97.5q-61 -38 -104.5 -87t-64 -93.5t-29.5 -89t-7.5 -74t7.5 -48.5
q26 -77 96.5 -115.5t165.5 -32.5q44 3 88.5 23.5t81.5 49t79.5 77.5t73.5 90.5t72 106.5t66 108.5t65.5 114t60.5 104.5zM1423 543q83 215 205.5 403.5t239.5 277.5q-137 -26 -230 -72q-299 -148 -557 -599q66 -2 99 -4q138 -6 243 -6zM1919 1411q-33 0 -56.5 23.5
t-23.5 56.5t23 56.5t56 23.5t57 -23.5t24 -56.5t-23.5 -56.5t-56.5 -23.5zM1920 1457q14 0 23.5 10t9.5 24t-10 24t-24 10q-13 0 -22.5 -10t-9.5 -24t9.5 -24t23.5 -10z" />
    <glyph glyph-name="AE" unicode="&#xc6;" horiz-adv-x="866" 
d="M1423 543q83 215 205.5 403.5t239.5 277.5q-137 -26 -230 -72q-299 -148 -557 -599q66 -2 99 -4q138 -6 243 -6zM907 515q-221 4 -387.5 -34.5t-263.5 -99.5q-61 -38 -104.5 -87t-64 -93.5t-29.5 -89t-7.5 -74t7.5 -48.5q26 -77 96.5 -115.5t165.5 -32.5q44 3 88.5 23.5
t81.5 49t79.5 77.5t73.5 90.5t72 106.5t66 108.5t65.5 114t60.5 104.5zM1888 873q8 -57 58 -99t147 -60q30 -5 35.5 -15t-7.5 -18t-30 -8q-399 7 -568 -301q-55 -99 -55.5 -207.5t47.5 -183t126 -84.5q23 -6 65 -2.5t85.5 11.5t97 34.5t98.5 67.5q48 44 93 102t72.5 105.5
t50.5 87.5t37 56t21 3q3 -6 -28.5 -68.5t-91.5 -151t-118 -142.5q-83 -76 -186.5 -118.5t-202.5 -37.5q-80 4 -142 34.5t-98 78.5t-53 109.5t-13 129t27 134.5q15 67 52 170q1 1 2 3.5t1 3.5q-99 0 -251 5q-51 2 -99 3l-2.5 -5t-2.5 -4q-54 -98 -83.5 -150t-83 -138
t-92.5 -133.5t-97.5 -108t-112.5 -93t-124 -57.5t-145 -30q-108 -6 -193.5 44t-117.5 150q-6 20 -6.5 52.5t9.5 79.5t31.5 93.5t65.5 97t105 88.5q42 26 72.5 42t93.5 39.5t132 37t179 23.5t243 11q340 561 769 669q-83 -9 -173 -6t-160 11t-171 11t-206 -6
q-104 -9 -195 -35.5t-165.5 -71t-118.5 -112.5t-45 -152q-1 -66 35 -107t89 -49t113.5 9.5t106.5 57.5q37 33 62 69.5t39 82.5t19.5 78t12.5 87q4 34 22 -2q25 -51 29 -116q1 -10 0 -19q-8 -127 -137 -219q-26 -18 -68 -33t-91 -23.5t-98.5 -3t-90 23.5t-66 60t-25.5 103
q0 96 46 171t128 122.5t182 75t220 37.5q103 8 218 4.5t207 -11t198.5 -5.5t192.5 19q5 2 13.5 5.5t33.5 12.5t48.5 16t53.5 13.5t53 8t42.5 -4t26.5 -18.5q4 -12 5 -20t-7.5 -15.5t-17.5 -12t-23.5 -9t-26 -7.5t-26 -6.5t-22.5 -5.5q-30 -26 -51 -50q133 100 294 90
q74 -5 127.5 -30.5t76 -63t22.5 -80t-30 -84t-84 -71.5q-92 -51 -217.5 -68t-212.5 -1zM1886 902q210 -32 416 66q30 14 51.5 37.5t30.5 49.5t5.5 52.5t-19.5 47.5t-49.5 34.5t-80.5 13.5q-130 0 -240 -97t-114 -204zM1584 605q97 59 208.5 83.5t208.5 8.5q-42 7 -86 30
t-82 62.5t-52.5 92.5t1.5 119q-106 -173 -198 -396z" />
    <glyph glyph-name="Ccedilla" unicode="&#xc7;" horiz-adv-x="860" 
d="M111 1242q-22 -69 28 -140t144 -134q125 123 265 185q-33 44 -82 85q-26 22 -77.5 42.5t-108 31t-105.5 -6t-64 -63.5zM253 937q-131 89 -174 197.5t32 181.5q44 41 123.5 36t155 -31t128.5 -60q60 -39 102 -80q60 20 131 28q74 8 130 2t95 -24t63 -42t34.5 -52.5
t10 -56.5t-11.5 -53q-27 -63 -90.5 -105t-147 -58t-180 -11t-191.5 32q-48 13 -83 28q-93 -119 -163 -282q-31 -72 -50.5 -160.5t-19 -182t23 -169.5t84 -121.5t156.5 -39.5q80 5 150.5 39.5t129.5 95t105.5 128.5t94.5 159q12 24 27 24q3 0 5 -1t2 -3.5t-0.5 -5t-2 -6
t-2.5 -6t-3 -6.5l-3 -6q-210 -424 -499 -447h-7q-1 -15 4 -17.5t16.5 0t30.5 -4.5q28 -11 33 -46t-18 -59q-20 -20 -58.5 -17.5t-52.5 24.5q-9 13 -5 25t13.5 14.5t16.5 -1.5q7 -12 26.5 -13.5t34 9t8.5 29.5q-5 18 -19.5 17t-27 -7.5t-23.5 4.5q-11 14 -7 41
q-99 -2 -176 34.5t-123.5 104t-67.5 159t-10.5 204.5t51.5 236q55 165 199 322zM683 1106q37 -60 30.5 -101t-46.5 -44q-11 -1 -19 3t-14 14.5t-10 20.5t-11.5 30t-13.5 35q-104 -60 -193 -164q48 -21 86 -32q67 -20 148 -25t159.5 5.5t142 47t88.5 93.5q27 61 -1.5 105.5
t-97 55.5t-164.5 -14q-43 -12 -84 -30z" />
    <glyph glyph-name="Egrave" unicode="&#xc8;" horiz-adv-x="866" 
d="M713 1485q-19 14 -2 37q18 25 44 17q4 -2 9 -5q38 -25 114.5 -96.5t65.5 -83.5q-10 -6 -21.5 -6t-32 10.5t-39 22t-41.5 29t-39.5 30.5t-34 26.5t-23.5 18.5zM272 1202q-28 -61 21 -130.5t153 -119.5q5 60 38 118q37 66 114 121q-32 36 -98.5 59.5t-135 14t-92.5 -62.5z
M641 1218q112 61 237 53q74 -5 126 -30.5t72.5 -63.5t20 -80.5t-28.5 -84t-77 -70.5q-20 -12 -45.5 -24t-68.5 -25.5t-88 -20.5t-106 -6t-122 14h-1q6 -60 56 -103.5t150 -62.5q30 -5 35.5 -15t-7.5 -18t-30 -8q-399 7 -568 -301q-55 -99 -55.5 -207.5t47.5 -183t126 -84.5
q23 -6 65 -2.5t85 11.5t96.5 34.5t98.5 67.5q48 44 93 102t73 105.5t51 87.5t37 56t21 3q3 -6 -28.5 -68.5t-91.5 -151t-118 -142.5q-83 -76 -186.5 -118.5t-202.5 -37.5q-110 6 -184 60t-101.5 134.5t-18.5 176t54 184.5q52 103 158.5 178.5t228.5 106t230 13.5
q-76 12 -147 71.5t-81 145.5q-76 30 -128.5 74.5t-73 89.5t-19 87.5t24.5 73.5q34 46 108.5 55t152.5 -13t130 -63zM719 1142q26 -33 37 -63t8.5 -50.5t-14.5 -33.5q-13 -14 -24 -15t-19.5 9t-17.5 28t-18 40l-3 9t-3.5 7.5t-4 9t-3.5 8.5q-89 -86 -97 -180q3 0 8 -1.5
t7 -2.5q92 -25 203.5 -9.5t196.5 70.5q58 38 79 93.5t-14.5 98.5t-126.5 43q-100 0 -194 -61z" />
    <glyph glyph-name="Eacute" unicode="&#xc9;" horiz-adv-x="866" 
d="M971 1485q-6 -4 -23.5 -18t-34 -27t-40 -30.5t-41.5 -29t-39 -22t-32.5 -10.5t-21.5 6q-11 12 66 83.5t115 96.5q26 18 49 -7q19 -20 7 -37zM272 1202q-28 -61 21 -130.5t153 -119.5q5 60 38 118q37 66 114 121q-32 36 -98.5 59.5t-135 14t-92.5 -62.5zM641 1218
q112 61 237 53q74 -5 126 -30.5t72.5 -63.5t20 -80.5t-28.5 -84t-77 -70.5q-20 -12 -45.5 -24t-68.5 -25.5t-88 -20.5t-106 -6t-122 14h-1q6 -60 56 -103.5t150 -62.5q30 -5 35.5 -15t-7.5 -18t-30 -8q-399 7 -568 -301q-55 -99 -55.5 -207.5t47.5 -183t126 -84.5
q23 -6 65 -2.5t85 11.5t96.5 34.5t98.5 67.5q48 44 93 102t73 105.5t51 87.5t37 56t21 3q3 -6 -28.5 -68.5t-91.5 -151t-118 -142.5q-83 -76 -186.5 -118.5t-202.5 -37.5q-110 6 -184 60t-101.5 134.5t-18.5 176t54 184.5q52 103 158.5 178.5t228.5 106t230 13.5
q-76 12 -147 71.5t-81 145.5q-76 30 -128.5 74.5t-73 89.5t-19 87.5t24.5 73.5q34 46 108.5 55t152.5 -13t130 -63zM719 1142q26 -33 37 -63t8.5 -50.5t-14.5 -33.5q-13 -14 -24 -15t-19.5 9t-17.5 28t-18 40l-3 9t-3.5 7.5t-4 9t-3.5 8.5q-89 -86 -97 -180q3 0 8 -1.5
t7 -2.5q92 -25 203.5 -9.5t196.5 70.5q58 38 79 93.5t-14.5 98.5t-126.5 43q-100 0 -194 -61z" />
    <glyph glyph-name="Ecircumflex" unicode="&#xca;" horiz-adv-x="866" 
d="M1014 1573q21 -9 31 -45t14 -133q0 -8 -17 -11.5t-34 2.5t-17 19q1 24 1.5 70t0.5 57q1 8 -19 -18.5t-47 -63t-38 -45.5q-22 -20 -58 -13q-27 5 -20 20q1 1 2 3q82 103 128 136.5t73 21.5zM272 1202q-28 -61 21 -130.5t153 -119.5q5 60 38 118q37 66 114 121
q-32 36 -98.5 59.5t-135 14t-92.5 -62.5zM641 1218q112 61 237 53q74 -5 126 -30.5t72.5 -63.5t20 -80.5t-28.5 -84t-77 -70.5q-20 -12 -45.5 -24t-68.5 -25.5t-88 -20.5t-106 -6t-122 14h-1q6 -60 56 -103.5t150 -62.5q30 -5 35.5 -15t-7.5 -18t-30 -8q-399 7 -568 -301
q-55 -99 -55.5 -207.5t47.5 -183t126 -84.5q23 -6 65 -2.5t85 11.5t96.5 34.5t98.5 67.5q48 44 93 102t73 105.5t51 87.5t37 56t21 3q3 -6 -28.5 -68.5t-91.5 -151t-118 -142.5q-83 -76 -186.5 -118.5t-202.5 -37.5q-110 6 -184 60t-101.5 134.5t-18.5 176t54 184.5
q52 103 158.5 178.5t228.5 106t230 13.5q-76 12 -147 71.5t-81 145.5q-76 30 -128.5 74.5t-73 89.5t-19 87.5t24.5 73.5q34 46 108.5 55t152.5 -13t130 -63zM719 1142q26 -33 37 -63t8.5 -50.5t-14.5 -33.5q-13 -14 -24 -15t-19.5 9t-17.5 28t-18 40l-3 9t-3.5 7.5t-4 9
t-3.5 8.5q-89 -86 -97 -180q3 0 8 -1.5t7 -2.5q92 -25 203.5 -9.5t196.5 70.5q58 38 79 93.5t-14.5 98.5t-126.5 43q-100 0 -194 -61z" />
    <glyph glyph-name="Edieresis" unicode="&#xcb;" horiz-adv-x="866" 
d="M771 1378q-25 0 -43.5 18t-18.5 44t18 44t43 18q26 0 44.5 -18.5t18.5 -43.5q0 -26 -18.5 -44t-43.5 -18zM932 1378q-26 0 -44 18t-18 44t18 44t44 18t44 -18t18 -44t-18 -44t-44 -18zM272 1202q-28 -61 21 -130.5t153 -119.5q5 60 38 118q37 66 114 121
q-32 36 -98.5 59.5t-135 14t-92.5 -62.5zM641 1218q112 61 237 53q74 -5 126 -30.5t72.5 -63.5t20 -80.5t-28.5 -84t-77 -70.5q-20 -12 -45.5 -24t-68.5 -25.5t-88 -20.5t-106 -6t-122 14h-1q6 -60 56 -103.5t150 -62.5q30 -5 35.5 -15t-7.5 -18t-30 -8q-399 7 -568 -301
q-55 -99 -55.5 -207.5t47.5 -183t126 -84.5q23 -6 65 -2.5t85 11.5t96.5 34.5t98.5 67.5q48 44 93 102t73 105.5t51 87.5t37 56t21 3q3 -6 -28.5 -68.5t-91.5 -151t-118 -142.5q-83 -76 -186.5 -118.5t-202.5 -37.5q-110 6 -184 60t-101.5 134.5t-18.5 176t54 184.5
q52 103 158.5 178.5t228.5 106t230 13.5q-76 12 -147 71.5t-81 145.5q-76 30 -128.5 74.5t-73 89.5t-19 87.5t24.5 73.5q34 46 108.5 55t152.5 -13t130 -63zM719 1142q26 -33 37 -63t8.5 -50.5t-14.5 -33.5q-13 -14 -24 -15t-19.5 9t-17.5 28t-18 40l-3 9t-3.5 7.5t-4 9
t-3.5 8.5q-89 -86 -97 -180q3 0 8 -1.5t7 -2.5q92 -25 203.5 -9.5t196.5 70.5q58 38 79 93.5t-14.5 98.5t-126.5 43q-100 0 -194 -61z" />
    <glyph glyph-name="Igrave" unicode="&#xcc;" horiz-adv-x="1032" 
d="M1536 1246q36 11 53 -15q9 -13 -14 -18q-2 0 -22 -3q-5 -1 -16 -2.5t-16 -2.5q-62 -31 -84 -44q-102 -59 -171 -125.5t-137.5 -185.5t-139.5 -309q135 2 204 134q25 48 45.5 61.5t45.5 11.5q11 -1 19.5 -8t12 -19.5t1 -28t-16.5 -37t-37 -43.5q-52 -49 -126.5 -78
t-159.5 -27q-2 -6 -6 -17.5t-6 -16.5q-27 -75 -51 -135.5t-60 -135t-72.5 -131.5t-86 -115t-102.5 -97t-121 -65t-143 -31q-107 -6 -192.5 44t-117.5 151q-33 108 -8 212q9 39 24.5 68t32 43.5t33 21.5t29.5 5.5t20 -8.5q10 -10 14.5 -20t2 -22.5t-5 -20t-16 -24.5t-20 -25
t-26.5 -30q-70 -79 -29 -202q26 -78 97.5 -117t164.5 -30q40 4 77 18.5t67 34t60 51.5t52.5 61.5t47 74.5t41.5 80t39 88.5t35.5 89t34.5 92t34 88.5q12 32 18 47q-84 36 -122 117t-28.5 168t54.5 156q46 69 124 115.5t170.5 69t179.5 34.5t179 24.5t141 27.5zM1110 1450
q-19 14 -2 37q18 25 44 17q4 -2 9 -5q38 -25 114.5 -96.5t65.5 -83.5q-10 -6 -21.5 -6t-32 10.5t-39 22t-41.5 29t-39.5 30.5t-34 26.5t-23.5 18.5zM857 579q52 118 113.5 214.5t116 158t117.5 111.5t107.5 75.5t96.5 49.5q1 0 3 1q-68 -10 -113.5 -17.5t-103.5 -20
t-98.5 -26t-85.5 -34.5t-77.5 -46t-62.5 -59t-51 -75q-47 -98 -33.5 -191t71.5 -141z" />
    <glyph glyph-name="Iacute" unicode="&#xcd;" horiz-adv-x="1032" 
d="M1536 1246q36 11 53 -15q9 -13 -14 -18q-2 0 -22 -3q-5 -1 -16 -2.5t-16 -2.5q-62 -31 -84 -44q-102 -59 -171 -125.5t-137.5 -185.5t-139.5 -309q135 2 204 134q25 48 45.5 61.5t45.5 11.5q11 -1 19.5 -8t12 -19.5t1 -28t-16.5 -37t-37 -43.5q-52 -49 -126.5 -78
t-159.5 -27q-2 -6 -6 -17.5t-6 -16.5q-27 -75 -51 -135.5t-60 -135t-72.5 -131.5t-86 -115t-102.5 -97t-121 -65t-143 -31q-107 -6 -192.5 44t-117.5 151q-33 108 -8 212q9 39 24.5 68t32 43.5t33 21.5t29.5 5.5t20 -8.5q10 -10 14.5 -20t2 -22.5t-5 -20t-16 -24.5t-20 -25
t-26.5 -30q-70 -79 -29 -202q26 -78 97.5 -117t164.5 -30q40 4 77 18.5t67 34t60 51.5t52.5 61.5t47 74.5t41.5 80t39 88.5t35.5 89t34.5 92t34 88.5q12 32 18 47q-84 36 -122 117t-28.5 168t54.5 156q46 69 124 115.5t170.5 69t179.5 34.5t179 24.5t141 27.5zM1434 1450
q-6 -4 -23.5 -18t-34 -27t-40 -30.5t-41.5 -29t-39 -22t-32.5 -10.5t-21.5 6q-11 12 65.5 83.5t114.5 96.5q25 17 49 -6q19 -20 8 -37zM857 579q52 118 113.5 214.5t116 158t117.5 111.5t107.5 75.5t96.5 49.5q1 0 3 1q-68 -10 -113.5 -17.5t-103.5 -20t-98.5 -26
t-85.5 -34.5t-77.5 -46t-62.5 -59t-51 -75q-47 -98 -33.5 -191t71.5 -141z" />
    <glyph glyph-name="Icircumflex" unicode="&#xce;" horiz-adv-x="1032" 
d="M1536 1246q36 11 53 -15q9 -13 -14 -18q-2 0 -22 -3q-5 -1 -16 -2.5t-16 -2.5q-62 -31 -84 -44q-102 -59 -171 -125.5t-137.5 -185.5t-139.5 -309q135 2 204 134q25 48 45.5 61.5t45.5 11.5q11 -1 19.5 -8t12 -19.5t1 -28t-16.5 -37t-37 -43.5q-52 -49 -126.5 -78
t-159.5 -27q-2 -6 -6 -17.5t-6 -16.5q-27 -75 -51 -135.5t-60 -135t-72.5 -131.5t-86 -115t-102.5 -97t-121 -65t-143 -31q-107 -6 -192.5 44t-117.5 151q-33 108 -8 212q9 39 24.5 68t32 43.5t33 21.5t29.5 5.5t20 -8.5q10 -10 14.5 -20t2 -22.5t-5 -20t-16 -24.5t-20 -25
t-26.5 -30q-70 -79 -29 -202q26 -78 97.5 -117t164.5 -30q40 4 77 18.5t67 34t60 51.5t52.5 61.5t47 74.5t41.5 80t39 88.5t35.5 89t34.5 92t34 88.5q12 32 18 47q-84 36 -122 117t-28.5 168t54.5 156q46 69 124 115.5t170.5 69t179.5 34.5t179 24.5t141 27.5zM1374 1491
q21 -9 31 -45t14 -133q0 -8 -17 -11.5t-33.5 2.5t-16.5 19q1 24 1.5 70t0.5 57q1 8 -19.5 -18.5t-47.5 -63t-38 -45.5q-23 -20 -58 -13q-26 5 -19 20q1 2 2 3q82 103 127.5 136.5t72.5 21.5zM857 579q52 118 113.5 214.5t116 158t117.5 111.5t107.5 75.5t96.5 49.5q1 0 3 1
q-68 -10 -113.5 -17.5t-103.5 -20t-98.5 -26t-85.5 -34.5t-77.5 -46t-62.5 -59t-51 -75q-47 -98 -33.5 -191t71.5 -141z" />
    <glyph glyph-name="Idieresis" unicode="&#xcf;" horiz-adv-x="1032" 
d="M1536 1246q36 11 53 -15q9 -13 -14 -18q-2 0 -22 -3q-5 -1 -16 -2.5t-16 -2.5q-62 -31 -84 -44q-102 -59 -171 -125.5t-137.5 -185.5t-139.5 -309q135 2 204 134q25 48 45.5 61.5t45.5 11.5q11 -1 19.5 -8t12 -19.5t1 -28t-16.5 -37t-37 -43.5q-52 -49 -126.5 -78
t-159.5 -27q-2 -6 -6 -17.5t-6 -16.5q-27 -75 -51 -135.5t-60 -135t-72.5 -131.5t-86 -115t-102.5 -97t-121 -65t-143 -31q-107 -6 -192.5 44t-117.5 151q-33 108 -8 212q9 39 24.5 68t32 43.5t33 21.5t29.5 5.5t20 -8.5q10 -10 14.5 -20t2 -22.5t-5 -20t-16 -24.5t-20 -25
t-26.5 -30q-70 -79 -29 -202q26 -78 97.5 -117t164.5 -30q40 4 77 18.5t67 34t60 51.5t52.5 61.5t47 74.5t41.5 80t39 88.5t35.5 89t34.5 92t34 88.5q12 32 18 47q-84 36 -122 117t-28.5 168t54.5 156q46 69 124 115.5t170.5 69t179.5 34.5t179 24.5t141 27.5zM1163 1300
q-26 0 -44 18t-18 43q0 26 18 44.5t43 18.5q26 0 44.5 -18.5t18.5 -43.5q0 -26 -18.5 -44t-43.5 -18zM1325 1300q-26 0 -44 18t-18 43q0 26 18 44.5t43 18.5q26 0 44 -18t18 -44t-18 -44t-43 -18zM857 579q52 118 113.5 214.5t116 158t117.5 111.5t107.5 75.5t96.5 49.5
q1 0 3 1q-68 -10 -113.5 -17.5t-103.5 -20t-98.5 -26t-85.5 -34.5t-77.5 -46t-62.5 -59t-51 -75q-47 -98 -33.5 -191t71.5 -141z" />
    <glyph glyph-name="Eth" unicode="&#xd0;" horiz-adv-x="1687" 
d="M669 751q5 -29 16 -58t21 -47.5t17.5 -35t6 -27t-14.5 -16.5q-9 -4 -20.5 -4t-25.5 4t-27.5 14.5t-25.5 27.5t-20.5 42t-11.5 58t1 77q10 100 66.5 179.5t140.5 125.5t186 66.5t207 10.5q52 -5 92 -17q57 37 131 71q141 63 144 42q1 -8 -5.5 -12.5t-40 -20t-69.5 -36.5
q-52 -30 -100 -66q84 -36 149 -98.5t107 -155.5t42.5 -209.5t-43.5 -261.5q-39 -119 -104.5 -216t-142.5 -160t-164 -107t-172 -62t-163.5 -20t-142 14t-104.5 45q-124 -93 -270 -101q-108 -6 -193 44t-117 150q-33 108 -8 213q9 39 24.5 68t32 43.5t33 21t29.5 5t20 -8.5
q14 -15 17.5 -28.5t-7 -33t-19.5 -31t-36 -41.5q-4 -5 -6 -7q-70 -79 -29 -202q26 -78 97.5 -117t164.5 -30q63 6 119 38.5t96.5 76.5t80.5 113.5t66.5 129.5t59.5 146q-44 2 -97.5 5t-85 4.5t-39.5 1.5q-21 -1 -25 17q-4 21 20 30q6 2 14 3q33 3 235 -2q3 8 19 50.5
t25 64.5q156 401 401 590q-27 7 -57 12q-37 6 -79 5t-86.5 -9t-88.5 -23t-84 -37.5t-72.5 -53t-54.5 -68.5t-30.5 -84.5t0.5 -101.5zM632 -75q69 -29 148.5 -32t160.5 18.5t160 71.5t146 122t120.5 177.5t82.5 230.5q27 130 22 240t-53 198.5t-135 133.5
q-89 -82 -162.5 -214t-156.5 -364q-8 -24 -40 -108q148 -11 148 -28q0 -27 -171 -27q-119 -287 -270 -419z" />
    <glyph glyph-name="Ntilde" unicode="&#xd1;" horiz-adv-x="1804" 
d="M2350 1270q106 0 151 -61q28 -39 13 -69q-9 -16 -28 -18q-32 -4 -48 5t-21.5 24.5t-10.5 31.5t-23 27.5t-52 12.5q-55 1 -104.5 -16t-97 -55.5t-91.5 -89.5t-93 -129.5t-95 -163.5t-104 -202q-10 -20 -37 -75.5t-42.5 -87t-46 -90t-52.5 -96t-56 -91t-62.5 -90t-66 -79.5
t-72.5 -72t-76 -54t-83 -39q-14 -2 -20.5 2t-3.5 15q52 173 71 282.5t28.5 276t21.5 278.5q35 313 160 463q-97 -59 -158 -124t-127.5 -190.5t-158.5 -356.5q-34 -85 -55 -135.5t-60.5 -132.5t-72.5 -133.5t-84 -114t-102.5 -99t-119 -63.5t-142.5 -32q-107 -6 -192.5 44
t-117.5 151q-33 108 -8 212q9 39 24.5 68t32 43.5t33 21.5t29.5 5.5t20 -8.5q10 -10 14.5 -20t2 -22.5t-5 -20t-16 -24.5t-20 -25t-26.5 -30q-70 -79 -29 -202q26 -78 97.5 -117t164.5 -30q79 8 150 46t126.5 94.5t109 142t94.5 172.5t87 202q115 289 214 442.5t200 225.5
q-58 -7 -136 -9t-147 -1.5t-151 -0.5q-238 -3 -379 -101t-144 -270q-2 -88 58.5 -128.5t142 -27.5t143.5 68q37 33 62 69.5t38.5 83t19 77t12.5 87.5q4 34 22 -2q25 -51 29 -116q1 -10 0 -19q-8 -128 -136 -219q-32 -22 -85 -39.5t-114 -20.5t-115 10t-90 58.5t-36 118.5
q0 130 74 222t202 137t300 47h106t126 1t137 6t137 14q117 58 162 65q37 5 46 -15q7 -16 -9.5 -31t-44 -24.5t-45.5 -14.5t-26 -6q-43 -69 -60.5 -186t-30.5 -347q-14 -256 -77 -454.5t-126 -284.5q60 38 115.5 93.5t91.5 98.5t92.5 140.5t79 140t91.5 177.5q7 14 11 21.5
t10 19t11 21.5q16 31 50.5 102.5t56.5 115.5t62 113.5t72.5 114t81 98t96 85t108.5 55t126 26.5q3 0 8.5 0.5t8.5 0.5zM1688 1309q-3 38 26.5 75.5t70.5 36.5q21 -1 63 -19.5t63 -19.5q17 -1 26.5 0t24 9.5t26.5 26.5q10 -29 -8 -67t-67 -38q-24 0 -67 18.5t-66 18.5
q-48 0 -92 -41z" />
    <glyph glyph-name="Ograve" unicode="&#xd2;" horiz-adv-x="1263" 
d="M864 1491q-19 14 -2 37q18 25 44 17q4 -2 9 -5q38 -25 115 -96.5t66 -83.5q-10 -6 -21.5 -6t-32.5 10.5t-39 22t-41.5 29t-40 30.5t-34 27t-23.5 18zM813 1034q-170 -151 -264 -333q-29 -54 -57 -123q1 0 3 -1t3 -1q73 -20 157 -18q34 82 93 171q30 46 62 86t70 79
t76.5 66t82 47.5t86.5 23t89 -8.5q69 -20 85 -104q35 85 9 163q-18 55 -62.5 89t-93.5 33q-135 -1 -312 -146q82 -69 72 -79q-11 -11 -69 33q-7 5 -21 16zM743 1129q211 132 375 119q100 -8 158.5 -56t73.5 -105q33 -127 -48 -253q-8 -102 -55.5 -233.5t-105.5 -238.5
q-339 -625 -702 -513q-88 27 -138 102t-59 177.5t11 220t67 239.5q-62 33 -117.5 74t-103 95t-74 110.5t-24 122t41.5 127.5q35 55 98 86.5t137 38t144 0t136 -23.5q82 -22 185 -89zM710 1108q-82 51 -149 68q-77 19 -155 20.5t-151.5 -26.5t-100.5 -88q-28 -70 -26 -132.5
t34.5 -120.5t77.5 -103t103 -81q58 131 137 241t169 178q39 30 61 44zM640 519q-71 -3 -145 6q-16 2 -23 4q-56 -146 -77 -275t2 -225.5t94 -127.5q69 -30 144 -8.5t150 82t145 149t129.5 193t103.5 214.5q50 126 71 219q-97 -97 -226 -149q-106 -44 -233 -67
q-62 -123 -108 -299q-14 -54 -32 -48q-22 7 -32 73q-5 32 -3 61q7 104 40 198zM796 573q128 25 228 80q151 83 225 180q16 123 -30 139q-42 14 -94 -10t-94.5 -64.5t-87 -96.5t-68 -92t-40.5 -66q-23 -40 -39 -70z" />
    <glyph glyph-name="Oacute" unicode="&#xd3;" horiz-adv-x="1263" 
d="M1188 1491q-6 -4 -23.5 -18t-34 -27t-40 -30.5t-41.5 -29t-39 -22t-32.5 -10.5t-21.5 6q-11 12 66 83.5t115 96.5q26 18 49 -7q19 -20 7 -37zM813 1034q-170 -151 -264 -333q-29 -54 -57 -123q1 0 3 -1t3 -1q73 -20 157 -18q34 82 93 171q30 46 62 86t70 79t76.5 66
t82 47.5t86.5 23t89 -8.5q69 -20 85 -104q35 85 9 163q-18 55 -62.5 89t-93.5 33q-135 -1 -312 -146q82 -69 72 -79q-11 -11 -69 33q-7 5 -21 16zM743 1129q211 132 375 119q100 -8 158.5 -56t73.5 -105q33 -127 -48 -253q-8 -102 -55.5 -233.5t-105.5 -238.5
q-339 -625 -702 -513q-88 27 -138 102t-59 177.5t11 220t67 239.5q-62 33 -117.5 74t-103 95t-74 110.5t-24 122t41.5 127.5q35 55 98 86.5t137 38t144 0t136 -23.5q82 -22 185 -89zM710 1108q-82 51 -149 68q-77 19 -155 20.5t-151.5 -26.5t-100.5 -88q-28 -70 -26 -132.5
t34.5 -120.5t77.5 -103t103 -81q58 131 137 241t169 178q39 30 61 44zM640 519q-71 -3 -145 6q-16 2 -23 4q-56 -146 -77 -275t2 -225.5t94 -127.5q69 -30 144 -8.5t150 82t145 149t129.5 193t103.5 214.5q50 126 71 219q-97 -97 -226 -149q-106 -44 -233 -67
q-62 -123 -108 -299q-14 -54 -32 -48q-22 7 -32 73q-5 32 -3 61q7 104 40 198zM796 573q128 25 228 80q151 83 225 180q16 123 -30 139q-42 14 -94 -10t-94.5 -64.5t-87 -96.5t-68 -92t-40.5 -66q-23 -40 -39 -70z" />
    <glyph glyph-name="Ocircumflex" unicode="&#xd4;" horiz-adv-x="1263" 
d="M1182 1536q21 -9 31 -45t14 -133q0 -8 -17 -11.5t-34 2.5t-17 19q1 24 1.5 70t0.5 57q1 8 -19 -18.5t-47 -63t-38 -45.5q-22 -20 -58 -13q-27 5 -20 20q1 1 2 3q82 103 128 136.5t73 21.5zM813 1034q-170 -151 -264 -333q-29 -54 -57 -123q1 0 3 -1t3 -1q73 -20 157 -18
q34 82 93 171q30 46 62 86t70 79t76.5 66t82 47.5t86.5 23t89 -8.5q69 -20 85 -104q35 85 9 163q-18 55 -62.5 89t-93.5 33q-135 -1 -312 -146q82 -69 72 -79q-11 -11 -69 33q-7 5 -21 16zM743 1129q211 132 375 119q100 -8 158.5 -56t73.5 -105q33 -127 -48 -253
q-8 -102 -55.5 -233.5t-105.5 -238.5q-339 -625 -702 -513q-88 27 -138 102t-59 177.5t11 220t67 239.5q-62 33 -117.5 74t-103 95t-74 110.5t-24 122t41.5 127.5q35 55 98 86.5t137 38t144 0t136 -23.5q82 -22 185 -89zM710 1108q-82 51 -149 68q-77 19 -155 20.5
t-151.5 -26.5t-100.5 -88q-28 -70 -26 -132.5t34.5 -120.5t77.5 -103t103 -81q58 131 137 241t169 178q39 30 61 44zM640 519q-71 -3 -145 6q-16 2 -23 4q-56 -146 -77 -275t2 -225.5t94 -127.5q69 -30 144 -8.5t150 82t145 149t129.5 193t103.5 214.5q50 126 71 219
q-97 -97 -226 -149q-106 -44 -233 -67q-62 -123 -108 -299q-14 -54 -32 -48q-22 7 -32 73q-5 32 -3 61q7 104 40 198zM796 573q128 25 228 80q151 83 225 180q16 123 -30 139q-42 14 -94 -10t-94.5 -64.5t-87 -96.5t-68 -92t-40.5 -66q-23 -40 -39 -70z" />
    <glyph glyph-name="Otilde" unicode="&#xd5;" horiz-adv-x="1263" 
d="M956 1339q-3 38 27 75.5t71 36.5q21 -1 63 -19t63 -19q17 -1 26.5 0t24 9.5t26.5 26.5q10 -29 -8 -67.5t-67 -38.5q-24 0 -67 19t-66 19q-48 0 -93 -42zM813 1034q-170 -151 -264 -333q-29 -54 -57 -123q1 0 3 -1t3 -1q73 -20 157 -18q34 82 93 171q30 46 62 86t70 79
t76.5 66t82 47.5t86.5 23t89 -8.5q69 -20 85 -104q35 85 9 163q-18 55 -62.5 89t-93.5 33q-135 -1 -312 -146q82 -69 72 -79q-11 -11 -69 33q-7 5 -21 16zM743 1129q211 132 375 119q100 -8 158.5 -56t73.5 -105q33 -127 -48 -253q-8 -102 -55.5 -233.5t-105.5 -238.5
q-339 -625 -702 -513q-88 27 -138 102t-59 177.5t11 220t67 239.5q-62 33 -117.5 74t-103 95t-74 110.5t-24 122t41.5 127.5q35 55 98 86.5t137 38t144 0t136 -23.5q82 -22 185 -89zM710 1108q-82 51 -149 68q-77 19 -155 20.5t-151.5 -26.5t-100.5 -88q-28 -70 -26 -132.5
t34.5 -120.5t77.5 -103t103 -81q58 131 137 241t169 178q39 30 61 44zM640 519q-71 -3 -145 6q-16 2 -23 4q-56 -146 -77 -275t2 -225.5t94 -127.5q69 -30 144 -8.5t150 82t145 149t129.5 193t103.5 214.5q50 126 71 219q-97 -97 -226 -149q-106 -44 -233 -67
q-62 -123 -108 -299q-14 -54 -32 -48q-22 7 -32 73q-5 32 -3 61q7 104 40 198zM796 573q128 25 228 80q151 83 225 180q16 123 -30 139q-42 14 -94 -10t-94.5 -64.5t-87 -96.5t-68 -92t-40.5 -66q-23 -40 -39 -70z" />
    <glyph glyph-name="Odieresis" unicode="&#xd6;" horiz-adv-x="1263" 
d="M1030 1343q-26 0 -44 18.5t-18 43.5t18 43.5t44 18.5t44 -18t18 -43q0 -26 -18.5 -44.5t-43.5 -18.5zM1192 1343q-26 0 -44 18.5t-18 43.5q0 26 18 44t43 18q26 0 44.5 -18t18.5 -43q0 -26 -18.5 -44.5t-43.5 -18.5zM813 1034q-170 -151 -264 -333q-29 -54 -57 -123
q1 0 3 -1t3 -1q73 -20 157 -18q34 82 93 171q30 46 62 86t70 79t76.5 66t82 47.5t86.5 23t89 -8.5q69 -20 85 -104q35 85 9 163q-18 55 -62.5 89t-93.5 33q-135 -1 -312 -146q82 -69 72 -79q-11 -11 -69 33q-7 5 -21 16zM743 1129q211 132 375 119q100 -8 158.5 -56
t73.5 -105q33 -127 -48 -253q-8 -102 -55.5 -233.5t-105.5 -238.5q-339 -625 -702 -513q-88 27 -138 102t-59 177.5t11 220t67 239.5q-62 33 -117.5 74t-103 95t-74 110.5t-24 122t41.5 127.5q35 55 98 86.5t137 38t144 0t136 -23.5q82 -22 185 -89zM710 1108
q-82 51 -149 68q-77 19 -155 20.5t-151.5 -26.5t-100.5 -88q-28 -70 -26 -132.5t34.5 -120.5t77.5 -103t103 -81q58 131 137 241t169 178q39 30 61 44zM640 519q-71 -3 -145 6q-16 2 -23 4q-56 -146 -77 -275t2 -225.5t94 -127.5q69 -30 144 -8.5t150 82t145 149t129.5 193
t103.5 214.5q50 126 71 219q-97 -97 -226 -149q-106 -44 -233 -67q-62 -123 -108 -299q-14 -54 -32 -48q-22 7 -32 73q-5 32 -3 61q7 104 40 198zM796 573q128 25 228 80q151 83 225 180q16 123 -30 139q-42 14 -94 -10t-94.5 -64.5t-87 -96.5t-68 -92t-40.5 -66
q-23 -40 -39 -70z" />
    <glyph glyph-name="multiply" unicode="&#xd7;" horiz-adv-x="1052" 
d="M344 199q-25 -15 -43.5 8.5t10.5 42.5q2 1 186 127q-113 98 -166 150q-16 16 1 34q19 19 43 4q4 -2 7 -5q64 -57 168 -147q88 59 133 88q9 6 24 15.5t24 15.5t22 14t21.5 12t19 9t17.5 6.5t14.5 2t13 -2.5t9.5 -8q23 -30 -96 -102q-4 -3 -6.5 -4.5t-6 -3.5t-6.5 -4
q-54 -33 -131 -84q5 -4 13 -11.5t13 -11.5q108 -94 116 -103q18 -20 8 -35q-2 -3 -6 -8q-13 -15 -41 3t-109 89q-8 7 -23.5 21t-23.5 21q-143 -95 -205 -133z" />
    <glyph glyph-name="Oslash" unicode="&#xd8;" horiz-adv-x="1263" 
d="M524 -397q-11 -23 -38 -22q-24 0 -24 21q0 8 4 17q11 23 91 213q-57 -1 -118 17q-88 27 -138 102t-59 177.5t11 220t67 239.5q-62 33 -117.5 74t-103 95t-74 110.5t-24 122t41.5 127.5q35 55 98 86.5t137 38t144 0t136 -23.5q82 -22 185 -89q211 132 375 119q24 -2 35 -4
q20 45 23 53q61 141 77 164q23 34 48 20q28 -14 20.5 -51t-63.5 -147q-10 -19 -29 -62q97 -45 121 -134q33 -127 -48 -253q-8 -102 -55.5 -233.5t-105.5 -238.5q-250 -461 -513 -521q-23 -54 -47.5 -109.5t-38.5 -87.5t-18 -41zM813 1034q-170 -151 -264 -333
q-29 -54 -57 -123q1 0 3 -1t3 -1q73 -20 157 -18q34 82 93 171q153 230 308 286q50 118 79 187q-130 -10 -295 -145q82 -69 72 -79q-11 -11 -69 33q-7 5 -21 16zM710 1108q-82 51 -149 68q-77 19 -155 20.5t-151.5 -26.5t-100.5 -88q-28 -70 -26 -132.5t34.5 -120.5
t77.5 -103t103 -81q58 131 137 241t169 178q39 30 61 44zM1299 918q35 85 9 163q-26 76 -93 107q-44 -97 -70 -156q36 0 69 -10q69 -20 85 -104zM640 519q-71 -3 -145 6q-16 2 -23 4q-56 -146 -77 -275t2 -225.5t94 -127.5q41 -19 88 -17q25 59 80 190t106.5 252t96.5 227
q-49 -13 -87 -19q-62 -123 -108 -299q-14 -54 -32 -48q-22 7 -32 73q-5 32 -3 61q7 104 40 198zM796 573q45 9 83 21q89 212 110 260q-84 -92 -154 -211q-23 -40 -39 -70zM1234 750q-97 -97 -226 -149q-7 -3 -60 -22q-183 -423 -295 -681q93 32 192 130.5t180 229t138 273.5
q50 126 71 219zM1249 833q16 123 -30 139q-48 16 -106 -15q-24 -55 -74 -169.5t-71 -161.5q37 16 56 27q151 83 225 180z" />
    <glyph glyph-name="Ugrave" unicode="&#xd9;" horiz-adv-x="1302" 
d="M115 986q-68 -93 -74.5 -219.5t61.5 -151.5q48 -16 100.5 6.5t84 53.5t56.5 65q88 124 136 297q24 -73 7 -161.5t-68 -161.5q-31 -44 -70.5 -76t-75.5 -47.5t-72 -22t-62.5 -4.5t-43.5 9q-62 24 -83.5 97t-3 160t65.5 162q59 94 151 150.5t196 64.5q69 5 126.5 -14.5
t97.5 -63.5t55.5 -112t-0.5 -160q-11 -62 -51 -161.5t-86 -194.5t-89 -201t-67 -190.5t-12 -153t69 -97.5q231 -117 588 650q6 13 9 19q1 2 2.5 5.5t2.5 5.5q98 280 217 461q74 112 128 150.5t86 22.5q3 -2 -3 -11t-23 -33.5t-39.5 -59t-56 -99t-66.5 -142.5
q-153 -356 -202 -538.5t-34 -313.5q14 -119 69.5 -175.5t110.5 -38.5q63 21 109 83q15 20 19 16q2 -2 4 -8q7 -23 -28.5 -64.5t-99.5 -56.5q-74 -17 -136 18.5t-98 103t-50.5 152t-2.5 163.5q12 72 25 128q-202 -418 -407 -483q-41 -11 -82.5 -12.5t-80.5 17t-69.5 49
t-49 84.5t-19.5 123q-1 89 28 192t73 196.5t89 182.5t80.5 176.5t42.5 151.5q9 81 -27.5 132t-85.5 62q-50 10 -110 -1t-132.5 -57.5t-128.5 -123.5zM864 1409q-19 14 -2 37q18 25 44 17q4 -2 9 -5q38 -25 115 -96.5t66 -83.5q-10 -6 -21.5 -6t-32.5 10.5t-39 22t-41.5 29
t-40 30.5t-34 27t-23.5 18z" />
    <glyph glyph-name="Uacute" unicode="&#xda;" horiz-adv-x="1302" 
d="M115 986q-68 -93 -74.5 -219.5t61.5 -151.5q48 -16 100.5 6.5t84 53.5t56.5 65q88 124 136 297q24 -73 7 -161.5t-68 -161.5q-31 -44 -70.5 -76t-75.5 -47.5t-72 -22t-62.5 -4.5t-43.5 9q-62 24 -83.5 97t-3 160t65.5 162q59 94 151 150.5t196 64.5q69 5 126.5 -14.5
t97.5 -63.5t55.5 -112t-0.5 -160q-11 -62 -51 -161.5t-86 -194.5t-89 -201t-67 -190.5t-12 -153t69 -97.5q231 -117 588 650q6 13 9 19q1 2 2.5 5.5t2.5 5.5q98 280 217 461q74 112 128 150.5t86 22.5q3 -2 -3 -11t-23 -33.5t-39.5 -59t-56 -99t-66.5 -142.5
q-153 -356 -202 -538.5t-34 -313.5q14 -119 69.5 -175.5t110.5 -38.5q63 21 109 83q15 20 19 16q2 -2 4 -8q7 -23 -28.5 -64.5t-99.5 -56.5q-74 -17 -136 18.5t-98 103t-50.5 152t-2.5 163.5q12 72 25 128q-202 -418 -407 -483q-41 -11 -82.5 -12.5t-80.5 17t-69.5 49
t-49 84.5t-19.5 123q-1 89 28 192t73 196.5t89 182.5t80.5 176.5t42.5 151.5q9 81 -27.5 132t-85.5 62q-50 10 -110 -1t-132.5 -57.5t-128.5 -123.5zM1188 1409q-6 -4 -23.5 -18t-34 -27t-40 -30.5t-41.5 -29t-39 -22t-32.5 -10.5t-21.5 6q-11 12 66 83.5t115 96.5
q26 18 49 -7q19 -20 7 -37z" />
    <glyph glyph-name="Ucircumflex" unicode="&#xdb;" horiz-adv-x="1302" 
d="M115 986q-68 -93 -74.5 -219.5t61.5 -151.5q48 -16 100.5 6.5t84 53.5t56.5 65q88 124 136 297q24 -73 7 -161.5t-68 -161.5q-31 -44 -70.5 -76t-75.5 -47.5t-72 -22t-62.5 -4.5t-43.5 9q-62 24 -83.5 97t-3 160t65.5 162q59 94 151 150.5t196 64.5q69 5 126.5 -14.5
t97.5 -63.5t55.5 -112t-0.5 -160q-11 -62 -51 -161.5t-86 -194.5t-89 -201t-67 -190.5t-12 -153t69 -97.5q231 -117 588 650q6 13 9 19q1 2 2.5 5.5t2.5 5.5q98 280 217 461q74 112 128 150.5t86 22.5q3 -2 -3 -11t-23 -33.5t-39.5 -59t-56 -99t-66.5 -142.5
q-153 -356 -202 -538.5t-34 -313.5q14 -119 69.5 -175.5t110.5 -38.5q63 21 109 83q15 20 19 16q2 -2 4 -8q7 -23 -28.5 -64.5t-99.5 -56.5q-74 -17 -136 18.5t-98 103t-50.5 152t-2.5 163.5q12 72 25 128q-202 -418 -407 -483q-41 -11 -82.5 -12.5t-80.5 17t-69.5 49
t-49 84.5t-19.5 123q-1 89 28 192t73 196.5t89 182.5t80.5 176.5t42.5 151.5q9 81 -27.5 132t-85.5 62q-50 10 -110 -1t-132.5 -57.5t-128.5 -123.5zM1141 1454q21 -9 31 -45t14 -133q0 -8 -17 -11.5t-34 2.5t-17 19q1 24 1.5 70t0.5 57q1 8 -19 -18.5t-47 -63t-38 -45.5
q-22 -20 -58 -13q-27 5 -20 20q1 1 2 3q82 103 128 136.5t73 21.5z" />
    <glyph glyph-name="Udieresis" unicode="&#xdc;" horiz-adv-x="1302" 
d="M115 986q-68 -93 -74.5 -219.5t61.5 -151.5q48 -16 100.5 6.5t84 53.5t56.5 65q88 124 136 297q24 -73 7 -161.5t-68 -161.5q-31 -44 -70.5 -76t-75.5 -47.5t-72 -22t-62.5 -4.5t-43.5 9q-62 24 -83.5 97t-3 160t65.5 162q59 94 151 150.5t196 64.5q69 5 126.5 -14.5
t97.5 -63.5t55.5 -112t-0.5 -160q-11 -62 -51 -161.5t-86 -194.5t-89 -201t-67 -190.5t-12 -153t69 -97.5q231 -117 588 650q6 13 9 19q1 2 2.5 5.5t2.5 5.5q98 280 217 461q74 112 128 150.5t86 22.5q3 -2 -3 -11t-23 -33.5t-39.5 -59t-56 -99t-66.5 -142.5
q-153 -356 -202 -538.5t-34 -313.5q14 -119 69.5 -175.5t110.5 -38.5q63 21 109 83q15 20 19 16q2 -2 4 -8q7 -23 -28.5 -64.5t-99.5 -56.5q-74 -17 -136 18.5t-98 103t-50.5 152t-2.5 163.5q12 72 25 128q-202 -418 -407 -483q-41 -11 -82.5 -12.5t-80.5 17t-69.5 49
t-49 84.5t-19.5 123q-1 89 28 192t73 196.5t89 182.5t80.5 176.5t42.5 151.5q9 81 -27.5 132t-85.5 62q-50 10 -110 -1t-132.5 -57.5t-128.5 -123.5zM971 1262q-26 0 -44 18t-18 43q0 26 18 44t43 18q26 0 44.5 -18t18.5 -43q0 -26 -18.5 -44t-43.5 -18zM1133 1262
q-26 0 -44.5 18t-18.5 43t18 43.5t44 18.5t44 -18t18 -43q0 -26 -18 -44t-43 -18z" />
    <glyph glyph-name="Yacute" unicode="&#xdd;" horiz-adv-x="1320" 
d="M1270 1470q-6 -4 -23.5 -18t-34 -27t-40 -30.5t-41.5 -29t-39 -22t-32.5 -10.5t-21.5 6q-11 12 66 84t115 97q17 12 35.5 3t22.5 -25.5t-7 -27.5zM514 1200q-107 15 -206 -37t-172 -161q-53 -79 -72.5 -169t-1.5 -159.5t67 -94.5q64 -29 123 -0.5t105.5 101t66.5 166.5
q6 27 10 81.5t9.5 78t18.5 11.5q24 -22 39 -71t8 -126t-45 -149q-25 -47 -71.5 -83.5t-96 -52.5t-99.5 -20.5t-82 13.5q-75 36 -101 123.5t-4 189t81 188.5q68 101 176 164t219 63q147 0 233.5 -101t50.5 -275q-16 -76 -96 -240t-96 -246q-8 -40 -8 -81.5t9 -81.5t34.5 -67
t64.5 -32q164 -19 373 314q121 321 251 511q32 47 66 87.5t65 70t62 54.5t57.5 41t51 28.5t44 18.5t34 9.5t23 3t10.5 -2.5q3 -3 -4 -7.5t-22.5 -11t-36 -16t-46.5 -26t-51.5 -37t-54 -53t-52.5 -70.5q-74 -120 -139 -266t-95 -237t-70.5 -227.5t-45.5 -153.5
q-31 -96 -77 -185.5t-111.5 -172.5t-141.5 -145t-173 -100t-201 -40q-60 -1 -119 16.5t-114 62.5t-81 110q-38 93 -11 212q9 39 23.5 68.5t30.5 44t32.5 22t29.5 6t20 -8.5q14 -15 17.5 -29t-5 -31t-20 -32.5t-33.5 -40.5l-3 -3t-2.5 -3t-2.5 -3q-72 -84 -25 -203
q30 -74 106 -111t159 -31q79 6 152 43.5t130.5 94.5t110 136t91.5 160t73 175q22 61 27 74q-106 -125 -215 -157q-41 -13 -82 -13t-80.5 15t-70 44.5t-51.5 82t-25 121.5q-5 81 22 174.5t63 166t70 167t40 171.5q6 80 -39 126t-98 54z" />
    <glyph glyph-name="germandbls" unicode="&#xdf;" horiz-adv-x="1087" 
d="M596 568q58 -2 131.5 52t106.5 141q37 95 7.5 159t-110.5 61q-176 -6 -338 -496q-163 -490 -365 -565q-30 -12 -28 2q2 16 28 36l2 2q41 31 80 103.5t62 141t55 173t49 150.5q45 125 91.5 212.5t87.5 138t91 79t91 37t98 9.5q67 1 115 -23.5t69.5 -66t19 -96
t-31.5 -112.5q-68 -135 -220 -166q79 -50 112.5 -165t-8.5 -228q-29 -71 -80.5 -116.5t-109.5 -62.5t-124.5 -17.5t-121.5 10.5t-104 30q-42 16 -42 31q1 11 18 8q5 -1 10 -3q18 -8 30 -12.5t41.5 -14t52 -13.5t57 -6t62 3.5t59.5 19t57.5 37.5t49.5 62.5t40 89.5
q18 55 20.5 124.5t-17.5 133t-63 83.5q-43 6 -54 21q-7 10 12 13h12z" />
    <glyph glyph-name="agrave" unicode="&#xe0;" 
d="M158 741q-13 10 -7 27.5t22.5 25t35.5 -2.5q38 -25 114.5 -97t65.5 -84q-10 -6 -21.5 -6t-32 10.5t-39 22t-41.5 29t-39.5 30.5t-34 26.5t-23.5 18.5zM354 420q2 4 9 16.5t10.5 18t11.5 15.5t16.5 14t20.5 8.5t28.5 4t36.5 -4.5q57 -12 -23 -133q-84 -129 -99 -222
q-6 -42 0.5 -61.5t22.5 -15.5t35.5 19t41.5 40q60 70 139 219q10 19 14.5 21.5t12.5 -1.5q8 -5 6.5 -11.5t-12.5 -27.5q-2 -4 -15 -27.5t-16.5 -30t-15 -27.5t-16.5 -29t-16 -26.5t-17.5 -28t-17 -24.5t-18.5 -24.5t-18 -20.5t-20 -20q-58 -55 -117.5 -44.5t-74.5 81.5
q-9 40 -5 80q-96 -162 -186 -164q-37 -1 -63.5 24.5t-36.5 63.5t-13 80t7 74q13 55 41 104t66 86t89 54.5t106 8.5q32 -5 58 -31.5t28 -58.5v1zM295 457q-33 17 -79 -15t-93 -106q-35 -54 -55 -134t0 -122q22 -46 89 21q28 28 58 71q35 50 68 106q13 36 46 98q0 63 -34 81z
" />
    <glyph glyph-name="aacute" unicode="&#xe1;" 
d="M465 741q-6 -4 -23.5 -18t-34 -27t-40 -30.5t-41.5 -29t-39 -22t-32.5 -10.5t-21.5 6q-11 12 66 84t115 97q17 12 35.5 3t22.5 -25.5t-7 -27.5zM354 420q2 4 9 16.5t10.5 18t11.5 15.5t16.5 14t20.5 8.5t28.5 4t36.5 -4.5q57 -12 -23 -133q-84 -129 -99 -222
q-6 -42 0.5 -61.5t22.5 -15.5t35.5 19t41.5 40q60 70 139 219q10 19 14.5 21.5t12.5 -1.5q8 -5 6.5 -11.5t-12.5 -27.5q-2 -4 -15 -27.5t-16.5 -30t-15 -27.5t-16.5 -29t-16 -26.5t-17.5 -28t-17 -24.5t-18.5 -24.5t-18 -20.5t-20 -20q-58 -55 -117.5 -44.5t-74.5 81.5
q-9 40 -5 80q-96 -162 -186 -164q-37 -1 -63.5 24.5t-36.5 63.5t-13 80t7 74q13 55 41 104t66 86t89 54.5t106 8.5q32 -5 58 -31.5t28 -58.5v1zM295 457q-33 17 -79 -15t-93 -106q-35 -54 -55 -134t0 -122q22 -46 89 21q28 28 58 71q35 50 68 106q13 36 46 98q0 63 -34 81z
" />
    <glyph glyph-name="acircumflex" unicode="&#xe2;" 
d="M387 791q21 -9 31 -45t14 -134q0 -8 -17 -11t-33.5 3t-16.5 19q1 24 1.5 70t0.5 57q1 8 -19.5 -18.5t-47.5 -63t-38 -45.5q-22 -20 -58 -13q-27 5 -20 20l2 3q82 103 128 136.5t73 21.5zM354 420q2 4 9 16.5t10.5 18t11.5 15.5t16.5 14t20.5 8.5t28.5 4t36.5 -4.5
q57 -12 -23 -133q-84 -129 -99 -222q-6 -42 0.5 -61.5t22.5 -15.5t35.5 19t41.5 40q60 70 139 219q10 19 14.5 21.5t12.5 -1.5q8 -5 6.5 -11.5t-12.5 -27.5q-2 -4 -15 -27.5t-16.5 -30t-15 -27.5t-16.5 -29t-16 -26.5t-17.5 -28t-17 -24.5t-18.5 -24.5t-18 -20.5t-20 -20
q-58 -55 -117.5 -44.5t-74.5 81.5q-9 40 -5 80q-96 -162 -186 -164q-37 -1 -63.5 24.5t-36.5 63.5t-13 80t7 74q13 55 41 104t66 86t89 54.5t106 8.5q32 -5 58 -31.5t28 -58.5v1zM295 457q-33 17 -79 -15t-93 -106q-35 -54 -55 -134t0 -122q22 -46 89 21q28 28 58 71
q35 50 68 106q13 36 46 98q0 63 -34 81z" />
    <glyph glyph-name="atilde" unicode="&#xe3;" 
d="M127 606q-3 38 27 75.5t71 36.5q21 -1 62.5 -19t62.5 -19q17 -1 27 0t24.5 9.5t26.5 26.5q10 -29 -8.5 -67.5t-67.5 -38.5q-24 0 -66.5 18.5t-65.5 18.5q-49 0 -93 -41zM354 420q2 4 9 16.5t10.5 18t11.5 15.5t16.5 14t20.5 8.5t28.5 4t36.5 -4.5q57 -12 -23 -133
q-84 -129 -99 -222q-6 -42 0.5 -61.5t22.5 -15.5t35.5 19t41.5 40q60 70 139 219q10 19 14.5 21.5t12.5 -1.5q8 -5 6.5 -11.5t-12.5 -27.5q-2 -4 -15 -27.5t-16.5 -30t-15 -27.5t-16.5 -29t-16 -26.5t-17.5 -28t-17 -24.5t-18.5 -24.5t-18 -20.5t-20 -20
q-58 -55 -117.5 -44.5t-74.5 81.5q-9 40 -5 80q-96 -162 -186 -164q-37 -1 -63.5 24.5t-36.5 63.5t-13 80t7 74q13 55 41 104t66 86t89 54.5t106 8.5q32 -5 58 -31.5t28 -58.5v1zM295 457q-33 17 -79 -15t-93 -106q-35 -54 -55 -134t0 -122q22 -46 89 21q28 28 58 71
q35 50 68 106q13 36 46 98q0 63 -34 81z" />
    <glyph glyph-name="adieresis" unicode="&#xe4;" 
d="M223 596q-25 0 -43.5 18t-18.5 44t18.5 44t43.5 18t43.5 -18t18.5 -44t-18.5 -44t-43.5 -18zM385 596q-25 0 -43.5 18t-18.5 44t18 44t43 18q26 0 44.5 -18.5t18.5 -43.5q0 -26 -18.5 -44t-43.5 -18zM354 420q2 4 9 16.5t10.5 18t11.5 15.5t16.5 14t20.5 8.5t28.5 4
t36.5 -4.5q57 -12 -23 -133q-84 -129 -99 -222q-6 -42 0.5 -61.5t22.5 -15.5t35.5 19t41.5 40q60 70 139 219q10 19 14.5 21.5t12.5 -1.5q8 -5 6.5 -11.5t-12.5 -27.5q-2 -4 -15 -27.5t-16.5 -30t-15 -27.5t-16.5 -29t-16 -26.5t-17.5 -28t-17 -24.5t-18.5 -24.5t-18 -20.5
t-20 -20q-58 -55 -117.5 -44.5t-74.5 81.5q-9 40 -5 80q-96 -162 -186 -164q-37 -1 -63.5 24.5t-36.5 63.5t-13 80t7 74q13 55 41 104t66 86t89 54.5t106 8.5q32 -5 58 -31.5t28 -58.5v1zM295 457q-33 17 -79 -15t-93 -106q-35 -54 -55 -134t0 -122q22 -46 89 21
q28 28 58 71q35 50 68 106q13 36 46 98q0 63 -34 81z" />
    <glyph glyph-name="aring" unicode="&#xe5;" 
d="M344 594q-33 0 -56.5 23.5t-23.5 56.5t23 56.5t56 23.5t57 -23t24 -56t-23.5 -57t-56.5 -24zM344 633q17 0 29.5 12.5t12.5 29.5t-12.5 29.5t-29.5 12.5t-29.5 -12.5t-12.5 -29.5t12.5 -29.5t29.5 -12.5zM354 420q2 4 9 16.5t10.5 18t11.5 15.5t16.5 14t20.5 8.5t28.5 4
t36.5 -4.5q57 -12 -23 -133q-84 -129 -99 -222q-6 -42 0.5 -61.5t22.5 -15.5t35.5 19t41.5 40q60 70 139 219q10 19 14.5 21.5t12.5 -1.5q8 -5 6.5 -11.5t-12.5 -27.5q-2 -4 -15 -27.5t-16.5 -30t-15 -27.5t-16.5 -29t-16 -26.5t-17.5 -28t-17 -24.5t-18.5 -24.5t-18 -20.5
t-20 -20q-58 -55 -117.5 -44.5t-74.5 81.5q-9 40 -5 80q-96 -162 -186 -164q-37 -1 -63.5 24.5t-36.5 63.5t-13 80t7 74q13 55 41 104t66 86t89 54.5t106 8.5q32 -5 58 -31.5t28 -58.5v1zM295 457q-33 17 -79 -15t-93 -106q-35 -54 -55 -134t0 -122q22 -46 89 21
q28 28 58 71q35 50 68 106q13 36 46 98q0 63 -34 81z" />
    <glyph glyph-name="ae" unicode="&#xe6;" horiz-adv-x="669" 
d="M583 443q-11 30 -50 13q-55 -23 -104 -115q-12 -23 -23 -52q23 -16 63 -0.5t70 45.5q29 30 40 60t4 49zM295 457q-33 17 -79 -15t-93 -106q-35 -54 -55 -134t0 -122q22 -46 89 21q28 28 58 71q38 54 64 99q15 64 49 118q-5 53 -33 68zM397 261q-24 -71 -20 -142.5
t47 -79.5q32 -6 67 15.5t68.5 63.5t54 73t43.5 69q5 8 7 12q10 17 19.5 34.5t14.5 26.5t9.5 16.5t8 9.5t7.5 1q12 -4 8 -16q-4 -15 -45 -84q-2 -4 -21 -37t-28.5 -48t-32.5 -48t-39.5 -49.5t-43.5 -38t-51.5 -29t-55.5 -7t-63 14.5q-92 41 -84 175q-99 -175 -195 -179
q-37 -1 -63.5 24.5t-36.5 63.5t-13 80t7 74q13 55 41 104t66 86t89 54.5t106 8.5q31 -5 56 -30t29 -56q48 59 119 82q46 14 90.5 -0.5t55.5 -44.5q11 -32 -7.5 -77t-59.5 -78q-92 -74 -154 -44z" />
    <glyph glyph-name="ccedilla" unicode="&#xe7;" horiz-adv-x="403" 
d="M312 457q-28 18 -72 -18t-86 -96q-31 -44 -48.5 -102.5t-7.5 -114.5t54 -77q24 -11 61.5 4t69.5 53q42 49 88 122.5t65 113.5q12 24 27 18q13 -4 -10 -45q-89 -161 -146 -225q-58 -64 -114 -82q0 -10 5.5 -11t17 1t28.5 -5q28 -11 33 -46t-18 -59q-20 -20 -58.5 -17.5
t-52.5 24.5q-9 13 -5 25t13.5 14.5t16.5 -1.5q7 -12 26.5 -13.5t34 9t8.5 29.5q-5 18 -19.5 17t-27 -7t-23.5 5q-8 11 -8 29q-42 -5 -85 14q-45 20 -70 66.5t-24.5 94.5t9.5 91q30 108 114.5 178t165.5 65q42 -3 73 -45q33 -45 8 -108q-9 -22 -29 -34.5t-38 -8.5
q-21 5 -26.5 24t12.5 36q17 15 28.5 29.5t17 30t-7.5 22.5z" />
    <glyph glyph-name="egrave" unicode="&#xe8;" horiz-adv-x="382" 
d="M296 443q-11 30 -50 13q-55 -23 -104 -115q-11 -21 -22 -52q23 -16 62.5 -1t69.5 46q29 30 40 60t4 49zM45 702q-13 10 -7 27.5t22.5 25t35.5 -2.5q38 -25 114.5 -97t65.5 -84q-10 -6 -21.5 -6t-32 10.5t-39 22t-41.5 29t-39.5 30.5t-34 26.5t-23.5 18.5zM111 261
q-25 -72 -21.5 -144.5t47.5 -77.5q100 -12 219 197q3 6 12 21.5t13.5 23.5t11.5 18.5t12 14.5t9 3q7 -2 9 -4.5t-1.5 -13.5t-13.5 -29t-31 -53q-16 -28 -25 -42t-31 -45.5t-39 -49t-44 -39t-52 -29.5t-57 -8t-65 14q-57 25 -75.5 90.5t2.5 157.5q19 86 71 151t124 88
q46 14 90 -0.5t55 -44.5q11 -32 -7.5 -77t-59.5 -78q-91 -74 -153 -44z" />
    <glyph glyph-name="eacute" unicode="&#xe9;" horiz-adv-x="382" 
d="M296 443q-11 30 -50 13q-55 -23 -104 -115q-11 -21 -22 -52q23 -16 62.5 -1t69.5 46q29 30 40 60t4 49zM315 702q-6 -5 -23.5 -18.5t-34 -26.5t-39.5 -30.5t-41.5 -29t-39 -22t-32 -10.5t-21.5 6q-11 12 65.5 84t114.5 97q17 12 35.5 3t22.5 -25.5t-7 -27.5zM111 261
q-25 -72 -21.5 -144.5t47.5 -77.5q100 -12 219 197q3 6 12 21.5t13.5 23.5t11.5 18.5t12 14.5t9 3q7 -2 9 -4.5t-1.5 -13.5t-13.5 -29t-31 -53q-16 -28 -25 -42t-31 -45.5t-39 -49t-44 -39t-52 -29.5t-57 -8t-65 14q-57 25 -75.5 90.5t2.5 157.5q19 86 71 151t124 88
q46 14 90 -0.5t55 -44.5q11 -32 -7.5 -77t-59.5 -78q-91 -74 -153 -44z" />
    <glyph glyph-name="ecircumflex" unicode="&#xea;" horiz-adv-x="382" 
d="M296 443q-11 30 -50 13q-55 -23 -104 -115q-11 -21 -22 -52q23 -16 62.5 -1t69.5 46q29 30 40 60t4 49zM326 770q21 -9 31 -45t14 -133q0 -8 -17 -11.5t-34 2.5t-17 19q1 24 1.5 70t0.5 57q1 8 -19 -18.5t-47 -63t-38 -45.5q-22 -20 -58 -13q-27 5 -20 20l2 3
q82 103 128 136.5t73 21.5zM111 261q-25 -72 -21.5 -144.5t47.5 -77.5q100 -12 219 197q3 6 12 21.5t13.5 23.5t11.5 18.5t12 14.5t9 3q7 -2 9 -4.5t-1.5 -13.5t-13.5 -29t-31 -53q-16 -28 -25 -42t-31 -45.5t-39 -49t-44 -39t-52 -29.5t-57 -8t-65 14q-57 25 -75.5 90.5
t2.5 157.5q19 86 71 151t124 88q46 14 90 -0.5t55 -44.5q11 -32 -7.5 -77t-59.5 -78q-91 -74 -153 -44z" />
    <glyph glyph-name="edieresis" unicode="&#xeb;" horiz-adv-x="382" 
d="M296 443q-11 30 -50 13q-55 -23 -104 -115q-11 -21 -22 -52q23 -16 62.5 -1t69.5 46q29 30 40 60t4 49zM160 578q-26 0 -44 18t-18 43q0 26 18 44t43 18q26 0 44.5 -18t18.5 -43q0 -26 -18 -44t-44 -18zM322 578q-26 0 -44.5 18t-18.5 43t18.5 43.5t43.5 18.5
q26 0 44 -18t18 -43q0 -26 -18 -44t-43 -18zM111 261q-25 -72 -21.5 -144.5t47.5 -77.5q100 -12 219 197q3 6 12 21.5t13.5 23.5t11.5 18.5t12 14.5t9 3q7 -2 9 -4.5t-1.5 -13.5t-13.5 -29t-31 -53q-16 -28 -25 -42t-31 -45.5t-39 -49t-44 -39t-52 -29.5t-57 -8t-65 14
q-57 25 -75.5 90.5t2.5 157.5q19 86 71 151t124 88q46 14 90 -0.5t55 -44.5q11 -32 -7.5 -77t-59.5 -78q-91 -74 -153 -44z" />
    <glyph glyph-name="igrave" unicode="&#xec;" horiz-adv-x="266" 
d="M4 702q-13 10 -7 27.5t22.5 25t35.5 -2.5q38 -25 115 -97t66 -84q-10 -6 -21.5 -6t-32.5 10.5t-39 22t-41.5 29t-40 30.5t-34 27t-23.5 18zM64 405q13 26 23.5 41t36 28t60.5 9q13 -2 20.5 -8.5t6.5 -18.5t-3 -22.5t-10 -27t-12 -25t-13 -23.5q-80 -142 -112 -235
q-22 -66 9 -71.5t73 44.5q46 52 142 219q4 7 8.5 15t6.5 11.5t5 8.5t4 6t4 3.5t5 1.5t6 -1q8 -4 6.5 -11.5t-13.5 -29.5q-117 -216 -174 -267q-59 -52 -112 -34.5t-71 89.5q-1 15 -2 26t4.5 32t9.5 35.5t13.5 37.5t16 38t17 37.5t17 35t15.5 31t13 25.5z" />
    <glyph glyph-name="iacute" unicode="&#xed;" horiz-adv-x="266" 
d="M311 702q-6 -5 -23.5 -18.5t-34 -26.5t-39.5 -30.5t-41.5 -29t-39 -22t-32 -10.5t-21.5 6q-11 12 65.5 84t114.5 97q17 12 35.5 3t22.5 -25.5t-7 -27.5zM64 405q13 26 23.5 41t36 28t60.5 9q13 -2 20.5 -8.5t6.5 -18.5t-3 -22.5t-10 -27t-12 -25t-13 -23.5
q-80 -142 -112 -235q-22 -66 9 -71.5t73 44.5q46 52 142 219q4 7 8.5 15t6.5 11.5t5 8.5t4 6t4 3.5t5 1.5t6 -1q8 -4 6.5 -11.5t-13.5 -29.5q-117 -216 -174 -267q-59 -52 -112 -34.5t-71 89.5q-1 15 -2 26t4.5 32t9.5 35.5t13.5 37.5t16 38t17 37.5t17 35t15.5 31t13 25.5z
" />
    <glyph glyph-name="icircumflex" unicode="&#xee;" horiz-adv-x="266" 
d="M264 764q21 -9 31 -45t14 -133q0 -8 -17 -11.5t-33.5 2.5t-16.5 19q1 24 1.5 70t0.5 57q1 8 -19.5 -18.5t-47.5 -63t-38 -45.5q-22 -20 -58 -13q-27 5 -20 20l2 3q82 103 128 136.5t73 21.5zM64 405q13 26 23.5 41t36 28t60.5 9q13 -2 20.5 -8.5t6.5 -18.5t-3 -22.5
t-10 -27t-12 -25t-13 -23.5q-80 -142 -112 -235q-22 -66 9 -71.5t73 44.5q46 52 142 219q4 7 8.5 15t6.5 11.5t5 8.5t4 6t4 3.5t5 1.5t6 -1q8 -4 6.5 -11.5t-13.5 -29.5q-117 -216 -174 -267q-59 -52 -112 -34.5t-71 89.5q-1 15 -2 26t4.5 32t9.5 35.5t13.5 37.5t16 38
t17 37.5t17 35t15.5 31t13 25.5z" />
    <glyph glyph-name="idieresis" unicode="&#xef;" horiz-adv-x="266" 
d="M98 578q-26 0 -44 18t-18 43t18 43.5t44 18.5t44 -18t18 -43q0 -26 -18 -44t-44 -18zM260 578q-26 0 -44 18t-18 43t18 43.5t44 18.5t44 -18t18 -43q0 -26 -18 -44t-44 -18zM64 405q13 26 23.5 41t36 28t60.5 9q13 -2 20.5 -8.5t6.5 -18.5t-3 -22.5t-10 -27t-12 -25
t-13 -23.5q-80 -142 -112 -235q-22 -66 9 -71.5t73 44.5q46 52 142 219q4 7 8.5 15t6.5 11.5t5 8.5t4 6t4 3.5t5 1.5t6 -1q8 -4 6.5 -11.5t-13.5 -29.5q-117 -216 -174 -267q-59 -52 -112 -34.5t-71 89.5q-1 15 -2 26t4.5 32t9.5 35.5t13.5 37.5t16 38t17 37.5t17 35
t15.5 31t13 25.5z" />
    <glyph glyph-name="eth" unicode="&#xf0;" horiz-adv-x="571" 
d="M743 635q-27 2 -193 -2q-53 -112 -105 -253.5t-79 -255.5q-19 -81 16 -79q33 2 81 64q58 74 135 219l3 6q15 28 24 29q3 0 6 -1q8 -2 6.5 -10.5t-14.5 -32.5q-11 -20 -39.5 -72t-42 -75.5t-38.5 -58.5t-51 -61q-57 -55 -115 -36.5t-73 91.5q-6 30 6 91
q-101 -182 -198 -186q-37 -1 -63.5 25t-36.5 63.5t-13 80t7 74.5q13 55 41 104t66 86t89 54.5t106 8.5q24 -4 45.5 -20.5t31.5 -39.5q34 91 75 182q-154 -3 -215 -3q-18 0 -22.5 13.5t2 27t16.5 12.5q19 -2 244 4q22 48 61 120q18 33 43 45.5t72 0.5q16 -5 22 -13.5t0 -26
t-11.5 -27.5t-21.5 -35q-12 -20 -33 -61q129 3 162 1q21 -2 28.5 -15.5t-0.5 -25.5t-24 -12zM295 456q-33 17 -79 -15.5t-93 -106.5q-34 -53 -50 -124t3 -122q26 -56 103 33q16 19 34 45q43 60 82 131q13 44 32 100q-7 46 -32 59z" />
    <glyph glyph-name="ntilde" unicode="&#xf1;" horiz-adv-x="636" 
d="M211 571q-3 38 26.5 75.5t70.5 36.5q21 -1 63 -19t63 -19q17 -1 27 0t24.5 9.5t26.5 26.5q10 -29 -8.5 -67.5t-67.5 -38.5q-24 0 -66.5 19t-65.5 19q-48 0 -93 -42zM68 348q-15 -26 -21 -30.5t-17 2.5q-7 5 18 48q3 6 5 9q10 16 14.5 23t17.5 23t28 24.5t33 10.5
q63 9 86 -23t11 -91q145 167 230 142q74 -22 85 -74.5t-41 -122.5q-56 -78 -78.5 -140t1.5 -88q16 -14 41.5 3t56.5 59.5t59 88.5t60 105q3 5 6.5 12t5 10.5t4.5 8.5t4.5 6.5t4.5 4t4.5 1.5t5.5 0q9 -5 7 -15.5t-16 -35.5q-4 -7 -32 -60t-41 -73.5t-38 -59t-48.5 -61
t-47.5 -35.5q-41 -19 -78 -16t-62.5 34.5t-25.5 80.5q0 44 31 105.5t62 115.5t32 78q3 49 -53 13q-62 -41 -134 -135q-40 -51 -59 -93q-5 -10 -11 -18q-21 -43 -35 -75q-31 -70 -45 -88q-25 -30 -55 -24q-21 5 -32 15t-10 37.5t20 72.5q6 15 36.5 82.5t45.5 104.5
q3 8 10.5 23.5t12.5 27t9 24t2 19.5t-11 8q-20 1 -58 -64z" />
    <glyph glyph-name="ograve" unicode="&#xf2;" horiz-adv-x="483" 
d="M106 702q-18 13 -2 37q18 26 44 18q5 -2 10 -5q38 -25 114.5 -97t65.5 -84q-10 -6 -21.5 -6t-32.5 10.5t-39 22t-41.5 29t-40 30.5t-34 27t-23.5 18zM272 260q22 5 36.5 -7.5t6.5 -37.5q-2 -6 -11 -30q38 64 45 122.5t-25 90.5q-37 28 -87.5 7t-92.5 -78
q-35 -48 -49.5 -104t-8.5 -98t26 -58q19 -17 46.5 -10t52 24t48.5 43q-18 12 -24.5 36t-3.5 44q7 48 41 56zM233 487q69 0 119 -54q42 -46 33.5 -128.5t-62.5 -158.5q29 -4 68 28t68 74q14 20 25.5 38t18 29t11.5 20t7 13.5t4 7.5t4 3.5t6 0.5q23 0 -10 -57q-2 -4 -36 -59
q-30 -50 -85 -95.5t-110 -37.5q-36 -41 -72 -66.5t-68.5 -34.5t-60.5 -8t-53 12q-41 18 -60.5 77.5t-4.5 140t68 145.5q39 49 89 79.5t101 30.5z" />
    <glyph glyph-name="oacute" unicode="&#xf3;" horiz-adv-x="483" 
d="M381 702q-6 -5 -23.5 -18.5t-34 -26.5t-39.5 -30.5t-41.5 -29t-39 -22t-32 -10.5t-21.5 6q-11 12 65.5 84t114.5 97q17 12 35.5 3t22.5 -25.5t-7 -27.5zM272 260q22 5 36.5 -7.5t6.5 -37.5q-2 -6 -11 -30q38 64 45 122.5t-25 90.5q-37 28 -87.5 7t-92.5 -78
q-35 -48 -49.5 -104t-8.5 -98t26 -58q19 -17 46.5 -10t52 24t48.5 43q-18 12 -24.5 36t-3.5 44q7 48 41 56zM233 487q69 0 119 -54q42 -46 33.5 -128.5t-62.5 -158.5q29 -4 68 28t68 74q14 20 25.5 38t18 29t11.5 20t7 13.5t4 7.5t4 3.5t6 0.5q23 0 -10 -57q-2 -4 -36 -59
q-30 -50 -85 -95.5t-110 -37.5q-36 -41 -72 -66.5t-68.5 -34.5t-60.5 -8t-53 12q-41 18 -60.5 77.5t-4.5 140t68 145.5q39 49 89 79.5t101 30.5z" />
    <glyph glyph-name="ocircumflex" unicode="&#xf4;" horiz-adv-x="483" 
d="M346 743q21 -9 31 -45t14 -133q0 -8 -17 -11.5t-33.5 2.5t-16.5 19q1 24 1.5 70t0.5 57q1 8 -19.5 -18.5t-47.5 -63t-38 -45.5q-22 -20 -58 -13q-27 6 -20 21q1 2 2 3q82 103 127.5 136t73.5 21zM272 260q22 5 36.5 -7.5t6.5 -37.5q-2 -6 -11 -30q38 64 45 122.5
t-25 90.5q-37 28 -87.5 7t-92.5 -78q-35 -48 -49.5 -104t-8.5 -98t26 -58q19 -17 46.5 -10t52 24t48.5 43q-18 12 -24.5 36t-3.5 44q7 48 41 56zM233 487q69 0 119 -54q42 -46 33.5 -128.5t-62.5 -158.5q29 -4 68 28t68 74q14 20 25.5 38t18 29t11.5 20t7 13.5t4 7.5t4 3.5
t6 0.5q23 0 -10 -57q-2 -4 -36 -59q-30 -50 -85 -95.5t-110 -37.5q-36 -41 -72 -66.5t-68.5 -34.5t-60.5 -8t-53 12q-41 18 -60.5 77.5t-4.5 140t68 145.5q39 49 89 79.5t101 30.5z" />
    <glyph glyph-name="otilde" unicode="&#xf5;" horiz-adv-x="483" 
d="M106 563q-3 38 27 75.5t71 36.5q21 -1 63 -19t63 -19q17 -1 26.5 0t24 9.5t26.5 26.5q10 -29 -8 -67.5t-67 -38.5q-24 0 -67 18.5t-66 18.5q-49 0 -93 -41zM272 260q22 5 36.5 -7.5t6.5 -37.5q-2 -6 -11 -30q38 64 45 122.5t-25 90.5q-37 28 -87.5 7t-92.5 -78
q-35 -48 -49.5 -104t-8.5 -98t26 -58q19 -17 46.5 -10t52 24t48.5 43q-18 12 -24.5 36t-3.5 44q7 48 41 56zM233 487q69 0 119 -54q42 -46 33.5 -128.5t-62.5 -158.5q29 -4 68 28t68 74q14 20 25.5 38t18 29t11.5 20t7 13.5t4 7.5t4 3.5t6 0.5q23 0 -10 -57q-2 -4 -36 -59
q-30 -50 -85 -95.5t-110 -37.5q-36 -41 -72 -66.5t-68.5 -34.5t-60.5 -8t-53 12q-41 18 -60.5 77.5t-4.5 140t68 145.5q39 49 89 79.5t101 30.5z" />
    <glyph glyph-name="odieresis" unicode="&#xf6;" horiz-adv-x="483" 
d="M170 551q-26 0 -44 18.5t-18 43.5q0 26 18 44t43 18q26 0 44.5 -18.5t18.5 -43.5t-18 -43.5t-44 -18.5zM332 551q-26 0 -44 18.5t-18 43.5q0 26 18 44t43 18q26 0 44.5 -18.5t18.5 -43.5t-18 -43.5t-44 -18.5zM272 260q22 5 36.5 -7.5t6.5 -37.5q-2 -6 -11 -30
q38 64 45 122.5t-25 90.5q-37 28 -87.5 7t-92.5 -78q-35 -48 -49.5 -104t-8.5 -98t26 -58q19 -17 46.5 -10t52 24t48.5 43q-18 12 -24.5 36t-3.5 44q7 48 41 56zM233 487q69 0 119 -54q42 -46 33.5 -128.5t-62.5 -158.5q29 -4 68 28t68 74q14 20 25.5 38t18 29t11.5 20
t7 13.5t4 7.5t4 3.5t6 0.5q23 0 -10 -57q-2 -4 -36 -59q-30 -50 -85 -95.5t-110 -37.5q-36 -41 -72 -66.5t-68.5 -34.5t-60.5 -8t-53 12q-41 18 -60.5 77.5t-4.5 140t68 145.5q39 49 89 79.5t101 30.5z" />
    <glyph glyph-name="divide" unicode="&#xf7;" horiz-adv-x="878" 
d="M247 371q-20 1 -22 22q-1 25 23 34q7 3 16 3q118 -3 328 -6q27 0 69 -1q82 -1 98.5 -5.5t16.5 -28.5q0 -20 -33.5 -24.5t-140.5 -2.5q-295 5 -355 9zM480 141q-26 0 -44 18.5t-18 43.5q0 26 18 44t43 18q26 0 44.5 -18.5t18.5 -43.5t-18 -43.5t-44 -18.5zM547 508
q-26 0 -44 18t-18 43q0 26 18.5 44.5t43.5 18.5t43.5 -18t18.5 -44t-18.5 -44t-43.5 -18z" />
    <glyph glyph-name="oslash" unicode="&#xf8;" horiz-adv-x="483" 
d="M80 -129q-6 -14 -29 -11q-22 5 -17 21q3 7 9 23t17 46t19 52q-16 2 -39 12q-41 18 -60.5 77.5t-4.5 140t68 145.5q39 49 89 79.5t101 30.5q16 0 24 -1q8 21 16.5 47t12.5 38.5t10 24.5t13 15t18 0q25 -9 24 -33.5t-28 -82.5q-5 -9 -12 -27q20 -12 41 -35
q42 -46 33.5 -128.5t-62.5 -158.5q29 -4 68 28t68 74q14 20 25.5 38t18 29t11.5 20t7 13.5t4 7.5t4 3.5t6 0.5q23 0 -10 -57q-2 -4 -36 -59q-30 -50 -85 -95.5t-110 -37.5q-81 -92 -163 -107q-11 -29 -22.5 -59.5t-19 -49t-9.5 -24.5zM272 260q22 5 36.5 -7.5t6.5 -37.5
q-2 -6 -11 -30q38 64 45 122.5t-25 90.5q-13 12 -35 15q-36 -89 -138 -357q50 4 108 68q-18 12 -24.5 36t-3.5 44q7 48 41 56zM106 74q10 27 55 151.5t63 173.5q-43 -23 -80 -72q-33 -45 -48 -98t-11 -93.5t21 -61.5z" />
    <glyph glyph-name="ugrave" unicode="&#xf9;" 
d="M147 702q-18 13 -2 37q18 26 44 18q5 -2 10 -5q38 -25 114.5 -97t65.5 -84q-10 -6 -21.5 -6t-32.5 10.5t-39 22t-41.5 29t-40 30.5t-34 27t-23.5 18zM383 440q46 78 109 35q43 -29 -5 -102t-80.5 -153t-37.5 -114q-12 -78 22 -73q31 6 77 66q54 69 150 235q20 34 29 26
q11 -9 -12 -51q-110 -197 -174 -268q-34 -38 -79 -42.5t-80 23t-45 74.5q-5 22 -2 53q-82 -120 -130 -143q-61 -32 -112.5 -5.5t-55.5 100.5q-2 44 22 113.5t54 127.5q53 102 81.5 130t71.5 7q23 -11 24 -34.5t-14 -54.5t-48 -84q-52 -81 -75.5 -167t6.5 -101
q33 -11 80.5 43t128.5 184q24 56 95 175z" />
    <glyph glyph-name="uacute" unicode="&#xfa;" 
d="M492 702q-6 -4 -23.5 -18t-34 -27t-40 -30.5t-41.5 -29t-39 -22t-32.5 -10.5t-21.5 6q-11 12 65.5 84t114.5 97q25 17 49 -7q19 -20 8 -37zM383 440q46 78 109 35q43 -29 -5 -102t-80.5 -153t-37.5 -114q-12 -78 22 -73q31 6 77 66q54 69 150 235q20 34 29 26
q11 -9 -12 -51q-110 -197 -174 -268q-34 -38 -79 -42.5t-80 23t-45 74.5q-5 22 -2 53q-82 -120 -130 -143q-61 -32 -112.5 -5.5t-55.5 100.5q-2 44 22 113.5t54 127.5q53 102 81.5 130t71.5 7q23 -11 24 -34.5t-14 -54.5t-48 -84q-52 -81 -75.5 -167t6.5 -101
q33 -11 80.5 43t128.5 184q24 56 95 175z" />
    <glyph glyph-name="ucircumflex" unicode="&#xfb;" 
d="M393 766q21 -9 31 -45t14 -133q0 -8 -17 -11.5t-33.5 2.5t-16.5 19q1 24 1.5 70t0.5 57q1 8 -19.5 -18.5t-47.5 -63t-38 -45.5q-23 -20 -58 -13q-26 5 -19 20q1 2 2 3q82 103 127.5 136.5t72.5 21.5zM383 440q46 78 109 35q43 -29 -5 -102t-80.5 -153t-37.5 -114
q-12 -78 22 -73q31 6 77 66q54 69 150 235q20 34 29 26q11 -9 -12 -51q-110 -197 -174 -268q-34 -38 -79 -42.5t-80 23t-45 74.5q-5 22 -2 53q-82 -120 -130 -143q-61 -32 -112.5 -5.5t-55.5 100.5q-2 44 22 113.5t54 127.5q53 102 81.5 130t71.5 7q23 -11 24 -34.5
t-14 -54.5t-48 -84q-52 -81 -75.5 -167t6.5 -101q33 -11 80.5 43t128.5 184q24 56 95 175z" />
    <glyph glyph-name="udieresis" unicode="&#xfc;" 
d="M242 563q-26 0 -44 18.5t-18 43.5q0 26 18 44t43 18t43.5 -18.5t18.5 -43.5q0 -26 -18 -44t-43 -18zM403 563q-25 0 -43.5 18.5t-18.5 43.5t18.5 43.5t43.5 18.5t43.5 -18.5t18.5 -43.5t-18.5 -43.5t-43.5 -18.5zM383 440q46 78 109 35q43 -29 -5 -102t-80.5 -153
t-37.5 -114q-12 -78 22 -73q31 6 77 66q54 69 150 235q20 34 29 26q11 -9 -12 -51q-110 -197 -174 -268q-34 -38 -79 -42.5t-80 23t-45 74.5q-5 22 -2 53q-82 -120 -130 -143q-61 -32 -112.5 -5.5t-55.5 100.5q-2 44 22 113.5t54 127.5q53 102 81.5 130t71.5 7
q23 -11 24 -34.5t-14 -54.5t-48 -84q-52 -81 -75.5 -167t6.5 -101q33 -11 80.5 43t128.5 184q24 56 95 175z" />
    <glyph glyph-name="yacute" unicode="&#xfd;" horiz-adv-x="534" 
d="M492 682q-6 -4 -23.5 -18t-34 -27t-40 -30.5t-41.5 -29t-39 -22t-32.5 -10.5t-21.5 6q-11 12 65.5 83.5t114.5 96.5q25 17 49 -6q19 -20 8 -37q-2 -4 -5 -6zM502 483q19 2 24 -1t0 -10.5t-16 -19.5l-5 -5t-5 -5.5t-5 -6t-5 -6t-5.5 -7t-4.5 -6.5q-16 -24 -30.5 -48.5
t-27.5 -54t-22 -50.5t-21 -58t-17 -54.5t-18.5 -62t-17.5 -59.5q-30 -100 -58 -177t-65 -155.5t-79 -134t-93 -100t-115.5 -66.5t-139.5 -22q-79 0 -137.5 33t-96.5 115q-37 77 -20 183q5 34 16.5 60t24.5 40t27 21t25 6.5t18 -6.5q30 -27 5 -70q-8 -13 -40 -56
q-54 -70 -12 -176q44 -110 189 -110q49 0 95 21t82 54.5t70.5 85.5t60 102t51.5 117.5t43 118t37 116.5q30 94 39 120q-73 -98 -118 -126q-40 -21 -79 -22.5t-69 26.5t-32 77q-4 81 57 209q37 79 69 121.5t64 36.5q36 -7 46.5 -19t-2.5 -52.5t-62 -122.5t-64.5 -151.5
t14.5 -84.5q29 -12 100.5 67t133.5 180q89 182 191 195z" />
    <glyph glyph-name="ydieresis" unicode="&#xff;" horiz-adv-x="534" 
d="M252 547q-26 0 -44 18.5t-18 43.5q0 26 18 44t43 18q26 0 44.5 -18.5t18.5 -43.5t-18 -43.5t-44 -18.5zM414 547q-26 0 -44 18.5t-18 43.5q0 26 18 44t43 18q26 0 44.5 -18.5t18.5 -43.5t-18 -43.5t-44 -18.5zM502 483q19 2 24 -1t0 -10.5t-16 -19.5l-5 -5t-5 -5.5t-5 -6
t-5 -6t-5.5 -7t-4.5 -6.5q-16 -24 -30.5 -48.5t-27.5 -54t-22 -50.5t-21 -58t-17 -54.5t-18.5 -62t-17.5 -59.5q-30 -100 -58 -177t-65 -155.5t-79 -134t-93 -100t-115.5 -66.5t-139.5 -22q-79 0 -137.5 33t-96.5 115q-37 77 -20 183q5 34 16.5 60t24.5 40t27 21t25 6.5
t18 -6.5q30 -27 5 -70q-8 -13 -40 -56q-54 -70 -12 -176q44 -110 189 -110q49 0 95 21t82 54.5t70.5 85.5t60 102t51.5 117.5t43 118t37 116.5q30 94 39 120q-73 -98 -118 -126q-40 -21 -79 -22.5t-69 26.5t-32 77q-4 81 57 209q37 79 69 121.5t64 36.5q36 -7 46.5 -19
t-2.5 -52.5t-62 -122.5t-64.5 -151.5t14.5 -84.5q29 -12 100.5 67t133.5 180q89 182 191 195z" />
    <glyph glyph-name="OE" unicode="&#x152;" horiz-adv-x="1832" 
d="M795 573q138 27 229 80q141 76 225 181q4 38 4 52q0 76 -34 87q-14 5 -34 5q-41 0 -88.5 -29.5t-86 -69.5t-77.5 -91.5t-60.5 -84.5t-36.5 -60q-18 -33 -41 -70zM641 518h-19q-69 0 -147 19q-88 -226 -88 -403q0 -185 105 -232q39 -18 81 -18q94 0 197.5 78.5
t198.5 211.5q0 114 57 225q49 97 154 176q34 86 53 175q-99 -99 -225 -148q-101 -44 -232 -67q-65 -129 -108 -299q-13 -50 -30 -50q-15 0 -27 37t-12 81q0 3 0.5 9t0.5 9q6 106 41 196zM711 1108q-144 87 -308 87q-130 0 -206.5 -63.5t-76.5 -187.5q0 -172 224 -299
q124 284 305 420q10 7 31 21.5t31 21.5zM1198 1196q-24 6 -47 6q-136 0 -311 -145q32 -25 52 -47t20 -29q0 -2 -1 -2q-3 -3 -7 -3q-15 0 -91 58q-176 -159 -264 -334q-47 -96 -57 -122q19 -6 72 -13.5t91 -7.5q35 86 93 172q87 131 189.5 216.5t210.5 85.5q33 0 66 -9
q68 -19 84 -104q14 41 15 51q-60 41 -90 91.5t-30 98.5q0 17 5 37zM1233 1178q-2 -14 -2 -21q0 -76 88 -145q0 39 -12 69q-18 63 -74 97zM1688 1141q46 -57 46 -103q0 -27 -16 -43q-15 -16 -26 -16q-5 0 -10 3t-10 9.5t-8.5 13t-9 18t-9 20.5t-9.5 24l-10 25
q-89 -85 -98 -181q60 -20 137 -20q160 0 279 78q39 25 62 61t23 72q0 44 -37 72t-110 28q-105 0 -194 -61zM1415 913q-33 14 -63 31q-15 -58 -49 -110q-8 -89 -50 -213q138 76 364 76q5 0 13 -0.5t12 -0.5q-76 12 -146.5 71.5t-80.5 145.5zM1567 1190q-27 31 -86 53.5
t-116 22.5q-88 0 -120 -54q87 -50 105 -125q14 -49 8 -104q45 -25 57 -31q3 56 37 117q38 66 115 121zM1610 1219q94 51 207 51h30q107 -7 163 -53.5t56 -112.5q0 -44 -27.5 -87.5t-78.5 -74.5q-127 -76 -291 -76q-73 0 -141 15q14 -131 207 -166q19 -3 28.5 -9t9 -11.5
t-5.5 -10.5t-14.5 -8t-19.5 -2h-15q-390 0 -553 -301q-55 -99 -55 -213q0 -105 47 -179t125 -83q95 -12 179.5 11.5t166.5 98.5q44 40 83 88t63.5 87t44 73t32.5 53t21 19q5 0 8 -6q0 -11 -26 -63t-79 -129.5t-110 -129.5q-83 -77 -184 -118.5t-205 -37.5q-131 7 -207 77
t-94 179q-207 -268 -427 -268q-56 0 -110 16q-102 32 -151 124.5t-49 225.5q0 180 81 390q-123 52 -220.5 161.5t-97.5 227.5q0 90 52.5 152.5t129 89t167.5 26.5q123 0 212.5 -29t180.5 -88q195 122 352 122q16 0 23 -1q55 -6 92 -20q1 2 4.5 5t4.5 5q42 58 148 58
q65 0 132 -21.5t111 -56.5z" />
    <glyph glyph-name="oe" unicode="&#x153;" horiz-adv-x="733" 
d="M647 443q-11 30 -50 13q-55 -23 -104 -115q-14 -26 -23 -52q23 -16 62.5 -1t69.5 46q29 30 40.5 60t4.5 49zM324 398q-37 28 -87.5 7t-92.5 -78q-35 -48 -49.5 -104t-8.5 -98t26 -58q31 -25 76.5 0t83.5 72q56 69 73 145.5t-21 113.5zM233 487q69 0 119 -54
q22 -24 30 -60q59 103 154 132q46 14 90 -0.5t55 -44.5q11 -32 -7.5 -77t-59.5 -78q-91 -74 -153 -44q-25 -72 -21.5 -144.5t47.5 -77.5q101 -12 220 197q4 7 12 22t13 23.5t11.5 18.5t11.5 14t9 3q7 -2 9 -4.5t-1.5 -13.5t-13.5 -29t-31 -53q-16 -28 -25 -42t-31 -45.5
t-39 -49t-44 -39t-52 -29.5t-57 -8t-65 14q-77 34 -83 140q-12 -18 -31 -41q-48 -56 -98 -85t-88.5 -30t-73.5 12q-41 18 -60.5 77.5t-4.5 140t68 145.5q39 49 89 79.5t101 30.5z" />
    <glyph glyph-name="Scaron" unicode="&#x160;" horiz-adv-x="1396" 
d="M805 712q26 -33 39.5 -61.5t12.5 -38t-5 -12.5q-4 0 -12 9.5t-22 29t-25 32.5q-75 91 -177 140.5t-197 53t-178.5 -32t-127.5 -104.5q-27 -49 -24.5 -100.5t43.5 -101t111 -76.5q3 -1 38 -12q47 52 105 79q66 31 134.5 31t117 -22t76.5 -56q4 -5 12 -17q89 20 196 60
q137 52 233 117q-13 59 -18.5 89t-12 79t-3.5 90t13 81q17 68 46 120.5t56 79.5t60.5 45.5t50.5 23.5t37 8q114 20 139 -77q22 -87 -32 -217q-24 -56 -58 -103q-79 -110 -219 -215q5 -32 18 -91.5t19 -98t11 -92.5t-0.5 -109.5t-20.5 -114.5q-27 -103 -106.5 -193
t-188.5 -144.5t-237 -68t-252 37.5q-100 40 -167 119.5t-89.5 170.5t-9.5 186t63 168q-56 14 -106.5 41.5t-88 64.5t-52.5 85.5t0 98.5q27 90 100 145.5t167.5 67t194.5 -5t190.5 -67t145.5 -122.5zM1410 1339q-8 5 -13 18.5t-7 34.5t-3 41.5t-2 48.5t-2 46q0 6 18 8t36 0
t17 -8q-8 -66 -10 -129q1 -25 69 60q50 62 57 69q24 21 54 10q15 -6 11 -13q-22 -24 -44.5 -50t-37 -43t-30 -34.5t-25 -27.5t-20.5 -19.5t-18.5 -13.5t-16 -5.5t-16.5 0.5t-17 7zM1162 596q-111 -75 -213 -111q-5 -2 -29.5 -11t-46 -16.5t-57.5 -18.5t-71 -20
q30 -63 31.5 -139.5t-27.5 -139t-81 -82.5q-47 -18 -64.5 11.5t17.5 61.5q40 37 57.5 87t14.5 96.5t-20 89.5q-195 -37 -368 -10q-40 -57 -58 -133t-12.5 -152.5t45.5 -147t110 -112.5q46 -27 113.5 -35.5t143.5 1.5t156 41.5t149.5 78.5t126 118t84.5 156q21 65 24.5 136.5
t-3 124.5t-22.5 126zM1209 670q87 69 166 173q59 77 91.5 162t22.5 147q-9 54 -62 37q-59 -18 -122 -104q-97 -133 -103 -296q-1 -18 0 -35q2 -48 7 -84zM656 439q-11 19 -24 32q-49 53 -141 41.5t-160 -85.5q135 -22 325 12z" />
    <glyph glyph-name="scaron" unicode="&#x161;" horiz-adv-x="403" 
d="M268 691q-16 8 -23 38.5t-9 113.5q0 7 13.5 9.5t27 -3t12.5 -16.5q-1 -16 -1.5 -36.5t-1.5 -42t-1 -29.5q-1 -7 15 15q6 8 21 29q37 53 47 62q18 17 47 10q22 -6 12 -20q-115 -153 -159 -130zM278 602q17 0 21 -13q3 -15 -22 -30q-6 -3 -18.5 -16.5t-32 -47t-29.5 -72.5
q-8 -37 -2.5 -63t20 -55.5t30 -52.5t28.5 -55t14 -63q0 -2 1 -10t1 -11q5 5 17 19q63 74 138 220q6 12 17 8q13 -5 2 -28q-26 -54 -78.5 -134t-83.5 -114q-13 -14 -23.5 -24.5t-24.5 -24t-26.5 -22.5t-28 -19t-31 -15.5t-33 -9t-37 -3t-39.5 5.5q-100 23 -99 107
q0 23 12 44.5t26 32t21 5.5q6 -8 2 -15.5t-11 -25t-4 -32.5q5 -32 47 -38.5t72 12.5q39 21 44 71.5t-27 93.5q-34 45 -40 103t7 86q2 6 -7 -9q-7 -11 -28 -50q-22 -41 -30 -55q-1 -1 -2 -3q-14 -25 -24 -23q-2 0 -5 2q-9 6 11 44q10 18 28 54t30 58.5t34 53.5t48 56
q20 19 55 36.5t48 20.5q4 1 12 1z" />
    <glyph glyph-name="Ydieresis" unicode="&#x178;" horiz-adv-x="1320" 
d="M1042 1249q-25 0 -43 19t-18 45q0 25 17.5 43t43.5 18q27 0 44.5 -18.5t17.5 -46.5q0 -24 -18 -41t-44 -19zM1204 1249q-25 0 -43 19t-18 45q0 25 17.5 43t43.5 18t44 -17.5t18 -43.5q1 -26 -17.5 -44t-44.5 -20zM467 1203q-94 0 -179.5 -52.5t-150.5 -149.5
q-83 -122 -83 -256q0 -80 34.5 -130.5t102.5 -50.5q77 0 142.5 81.5t90.5 200.5q6 27 9.5 74t7 74.5t12.5 27.5q23 0 40.5 -56.5t17.5 -111.5q0 -95 -46 -182q-38 -73 -119.5 -115.5t-158.5 -42.5q-92 0 -139.5 69t-47.5 165q0 148 90 282q69 100 176.5 162.5t218.5 62.5
q125 0 210 -75t85 -208q0 -45 -10 -91q-16 -77 -95.5 -241.5t-96.5 -246.5q-10 -43 -7.5 -89.5t12.5 -85t39 -63.5t72 -25q158 0 357 316q121 318 252 510q50 73 105 131.5t99.5 91.5t87.5 54.5t69 29t42 7.5q10 0 -8 -10q-92 -49 -142 -91q-66 -55 -108 -122
q-60 -97 -111.5 -204.5t-89.5 -211.5t-63 -181.5t-51 -168.5t-35 -119q-31 -96 -77 -185t-111.5 -172t-142 -145t-173.5 -100.5t-201 -40.5q-61 -1 -120 17t-113 62t-80 109q-37 95 -12 213q16 71 48.5 105.5t63.5 34.5q18 0 25 -9q18 -18 18 -37q0 -18 -14 -39t-44 -55
q-2 -2 -3 -3.5t-3 -3t-3 -3.5q-74 -89 -25 -203q29 -74 103.5 -111t160.5 -30q79 6 152 43t131 94t110.5 135.5t91 160.5t72.5 175q2 7 12 32.5t15 41.5q-71 -82 -137.5 -125.5t-158.5 -43.5q-91 0 -155 64.5t-73 198.5q-5 83 22 176.5t63 165.5t70.5 165.5t40.5 170.5
q8 93 -48.5 138t-135.5 45z" />
    <glyph glyph-name="Zcaron" unicode="&#x17d;" horiz-adv-x="1093" 
d="M717 1299q64 16 119 10.5t103 -24.5t83 -54.5t59 -79.5t32.5 -99t3 -113t-30 -122t-66.5 -126q-49 -72 -117.5 -133t-139.5 -101.5t-128.5 -66t-109.5 -40.5q67 18 159 -9t143 -93q16 5 29 10q47 18 87 34t68 28.5t50.5 23.5t36.5 18.5t24.5 14t16 10t9 6t6 3t4.5 0
t6 -2.5q13 -7 -9.5 -28.5t-92 -58t-171.5 -73.5l-45 -15q24 -44 35.5 -100.5t8 -125t-37.5 -145.5t-98 -146q-81 -88 -180.5 -140t-186.5 -63t-153 -5.5t-107 23.5q-83 36 -113.5 118t1.5 181t121 178q56 49 142 88.5t157.5 59.5t183 48t167.5 45q-49 66 -167.5 86
t-238.5 -24q-23 -9 -37.5 11t6.5 34q9 6 24 8q40 6 90.5 25t109.5 50t119 77.5t114.5 103t101 130.5t73.5 155q29 87 28 165.5t-35 134.5t-104.5 73.5t-179.5 -15.5q-82 -26 -159 -86t-127 -144q-33 -55 -45 -135.5t8 -152t71 -92.5q36 -17 73.5 -10.5t69 23t62.5 47t54 61
t43 65.5q27 47 47 91t29 71t14.5 47.5t10 28.5t10.5 7q27 -6 34 -57t-17.5 -130.5t-81.5 -149.5q-42 -52 -94 -85.5t-102 -45.5t-94 -10.5t-80 14.5q-32 12 -58.5 49t-41 91.5t-4.5 129.5t48 152q44 87 137.5 164.5t219.5 107.5zM857 1380q-8 5 -13 18.5t-7 34.5t-3 41.5
t-2 48.5t-2 46q0 6 18 8t36 0t17 -8q-8 -66 -10 -129q1 -25 69 60q50 62 57 69q24 21 54 10q16 -5 12 -13q-21 -24 -44.5 -50t-37.5 -43t-30 -34.5t-25.5 -27.5t-20.5 -19.5t-18.5 -13.5t-16 -5.5t-16.5 0.5t-17 7zM802 205q-33 -9 -120.5 -32.5t-141 -39.5t-127.5 -41.5
t-132.5 -57t-102.5 -67.5q-63 -52 -98 -116.5t-38.5 -120.5t23.5 -100t81 -58q47 -15 99 -10t98 18.5t92.5 38.5t82.5 50.5t69 54.5q133 119 191.5 255t23.5 226z" />
    <glyph glyph-name="zcaron" unicode="&#x17e;" horiz-adv-x="538" 
d="M63 340q-11 -17 -28 -48q-16 -31 -22 -31q-4 1 -7 7q-9 17 31 78q16 25 27 39t41 44.5t72 51t94 29.5q67 11 116.5 -6.5t64.5 -57.5q38 -105 -74 -173q-29 -18 -65 -33.5t-57 -21.5l-22 -7q11 -1 28.5 -4.5t59 -25t68.5 -55.5q79 53 134 136q9 15 18 30.5t13.5 24.5t9 17
t8 11t8.5 2q18 -2 0 -40t-57 -90q-51 -69 -118 -115q44 -75 29 -185q-15 -114 -108 -240.5t-204 -170.5q-79 -31 -147 -37t-113 10t-73.5 40.5t-38.5 55.5q-25 74 25.5 160.5t155.5 153.5q90 57 230.5 122t161.5 76q-27 75 -101 94q-10 6 -30 3.5t-27 -4t-27 -8t-29 -8.5
q-32 -7 -38 -6t-11 8q-3 10 -2 18.5t12 18.5t21.5 17t26.5 14.5t26 12t22 9.5q3 1 5 2q37 15 59.5 26.5t53 31.5t46.5 45t17 55q1 33 -22 50t-67 11q-116 -16 -196 -137zM362 608q-16 8 -23 39t-9 114q0 7 13.5 9.5t27 -3t12.5 -16.5q-1 -16 -1.5 -36.5t-1.5 -42t-1 -29.5
q-1 -7 15 15q6 8 21 29q37 53 47 62q18 17 47 10q22 -6 12 -20q-65 -86 -101.5 -114t-57.5 -17zM332 59q-31 -16 -102.5 -47t-142 -67t-142.5 -84q-93 -62 -130 -135.5t-30 -116.5q6 -36 37 -51t73 -10.5t93 22.5q77 28 157.5 102.5t130 148.5t56.5 119q11 67 0 119z" />
    <glyph glyph-name="quoteleft" unicode="&#x2018;" horiz-adv-x="212" 
d="M208 1140q0 -5 -19.5 -18t-42 -31t-27.5 -35q-4 -11 3.5 -17.5t18.5 -9t18.5 -13.5t4.5 -31q-4 -25 -28 -37t-49 -4q-26 8 -37 35t0 67q20 63 86 94q48 22 67 8q5 -3 5 -8z" />
    <glyph glyph-name="quoteright" unicode="&#x2019;" horiz-adv-x="387" 
d="M237 922q-2 5 14 22t33.5 40t18.5 41q1 12 -8 16.5t-20 4.5t-21 8.5t-12 28.5q-2 25 18.5 42.5t46.5 15.5q27 -2 45 -25.5t16 -63.5q-4 -68 -64 -115q-40 -30 -60 -22q-5 2 -7 7z" />
    <glyph glyph-name="quotedblleft" unicode="&#x201c;" horiz-adv-x="409" 
d="M208 1140q0 -5 -19.5 -18t-42 -31t-27.5 -35q-4 -11 3.5 -17.5t18.5 -9t18.5 -13.5t4.5 -31q-4 -25 -28 -37t-49 -4q-26 8 -37 35t0 67q20 63 86 94q48 22 67 8q5 -3 5 -8zM372 1140q0 -5 -19.5 -18t-42 -31t-27.5 -35q-4 -11 3.5 -17.5t18.5 -9t18.5 -13.5t4.5 -31
q-4 -25 -28 -37t-49 -4q-26 8 -37 35t0 67q20 63 86 94q48 22 67 8q5 -3 5 -8z" />
    <glyph glyph-name="quotedblright" unicode="&#x201d;" horiz-adv-x="524" 
d="M161 967q0 5 19 18t41.5 31t27.5 35q4 11 -3.5 17.5t-18 9t-18 13.5t-4.5 31q4 25 28 37t49 4q26 -8 37 -34.5t0 -66.5q-20 -63 -86 -95q-48 -22 -67 -8q-5 3 -5 8zM315 967q0 5 19 18t41.5 31t27.5 35q4 11 -3.5 17.5t-18.5 9t-18.5 13.5t-4.5 31q4 25 28.5 37t49.5 4
q26 -8 37 -34.5t0 -66.5q-20 -63 -86 -95q-48 -22 -67 -8q-5 3 -5 8z" />
    <glyph glyph-name="Euro" unicode="&#x20ac;" horiz-adv-x="935" 
d="M939 840q0 34 -40 64t-106 30q-72 0 -137.5 -27.5t-116.5 -75.5t-90.5 -105t-71.5 -125h36h83q116 1 136 -10q16 -9 5 -28q-14 -24 -45 -29t-112 -5h-29h-104q-33 -87 -46 -176h4h83q116 1 136 -10q14 -10 5 -28q-13 -23 -43 -28t-108 -5h-35h-48q-3 -131 52 -210.5
t164 -77.5q32 1 54.5 7.5t34.5 16.5t22.5 20t26 18.5t38.5 11.5q20 2 29 -17q14 -29 -30 -54q-55 -31 -186 -36q-114 -5 -205.5 84t-104.5 236q-101 0 -145 2q-18 1 -11 26q8 29 33 39l13 2q39 0 109 2q5 86 38 177q-112 0 -172 3q-18 1 -14 26q5 29 29 39l12 2q108 0 174 1
q94 204 226 292.5t331 80.5q74 -3 135.5 -30t71.5 -56q16 -47 -23 -64q-29 -13 -50 2q-8 6 -8 15z" />
    <glyph glyph-name="name_preview" unicode="&#xe000;" horiz-adv-x="5685" 
d="M4368 -209q20 -83 70.5 -135t131.5 -63q150 -20 298 32q-48 89 -180.5 137.5t-319.5 28.5zM1359 1109q-63 -11 -138 -15t-193 -4t-161 -1q-235 -3 -378.5 -101t-146.5 -270q-1 -66 35.5 -106t89.5 -48.5t113 9t106 57.5q38 33 63 70t39 82.5t19.5 77.5t12.5 88
q4 34 22 -2q25 -51 29 -116v-20q-8 -128 -137 -219q-31 -22 -84 -39.5t-114 -21t-115 10t-90 59t-36 118.5q0 192 158 296t418 110q45 2 164 -0.5t214 3t171 25.5l2 3q143 87 164 41q11 -25 -29 -46.5t-84 -29.5q-47 -48 -78 -124t-42.5 -135t-26.5 -165.5t-23 -149.5
q0 -2 -6.5 -37t-12.5 -63.5t-15 -68.5t-20.5 -76.5t-23.5 -62.5q4 7 39 79t56.5 113t59 109t75 125t74.5 103q309 382 631 451q136 31 141 -10q1 -17 -15 -25.5t-32 -8.5l-16 1q-107 -62 -208 -211t-167 -312.5t-101 -320.5q-15 -66 -24.5 -137.5t-13 -154.5t12 -158
t50.5 -122q40 -56 103.5 -66t124 24t92.5 99q12 23 21 45.5t12.5 31.5t5.5 9q8 -4 12 -19t-4.5 -46.5t-32.5 -69.5q-58 -88 -166.5 -106.5t-208.5 51.5q-94 70 -125.5 244.5t18.5 402.5q73 303 218.5 519.5t314.5 298.5q-31 -7 -72 -21.5t-108.5 -49.5t-134 -82t-146 -126
t-147.5 -174q-57 -80 -95 -140.5t-61 -103t-80 -148.5t-119 -217q-70 -125 -146 -213t-118 -82q-15 2 -5 16q4 6 17 22q42 48 70 91q49 75 90.5 230.5t58.5 335.5q27 305 166 527q-108 -78 -186.5 -206.5t-202.5 -428.5q-41 -98 -67.5 -157t-74 -151.5t-93.5 -150
t-107.5 -118t-136 -94t-159.5 -41.5q-104 -11 -191 41t-118 154q-33 105 -8 213q9 38 24.5 67t32 43.5t33 21.5t29.5 5.5t20 -8.5q14 -15 18 -29t-7 -33.5t-20 -30.5t-35 -40q-5 -5 -7 -8q-71 -78 -29 -203q26 -78 97 -117.5t166 -30.5q79 8 150 45.5t127 94t109 141
t94.5 173.5t84.5 204q64 167 128.5 293t126.5 207.5t117.5 131t115.5 79.5h-14zM2258 458q-33 17 -78 -15.5t-94 -107.5q-35 -54 -55 -133.5t0 -120.5q22 -53 102 35q21 24 45 57q37 51 68 104q10 31 45 99q0 64 -33 82zM2892 372q-10 68 -41 84q-33 17 -78.5 -15
t-93.5 -106q-34 -53 -50 -125t3 -121q30 -70 137 78q38 56 90 139q5 12 16.5 33.5t16.5 32.5zM2996 765q-183 -63 -348 -84q-188 -27 -315.5 27t-133.5 158q-5 82 68.5 150t192.5 100.5t243 19.5q127 -14 227.5 -78t147.5 -168q4 2 67.5 29.5t74.5 32t66.5 27.5t74.5 30
t65 25t73.5 26.5t64 19.5t68.5 19q155 34 276.5 20.5t198.5 -65t92 -128.5q277 106 362 130q212 60 371.5 50t260 -75t139.5 -176q174 45 285 -69q48 -51 60 -136.5t-12 -189.5t-93.5 -228.5t-175.5 -243.5q-245 -277 -485 -373q26 -71 4 -147q-24 -78 -116 -134t-228 -78.5
t-285 -4.5q-174 21 -305.5 112t-207.5 230q-27 -13 -117 -56.5t-139 -66.5q57 -100 68 -210t-27 -204q-28 -67 -87.5 -109.5t-136.5 -52t-159 7t-163.5 70.5t-141.5 137q-51 65 -76 136q-246 -41 -401.5 -15t-227.5 127q-71 98 14.5 205.5t288.5 173.5q126 41 241.5 57
t256 -0.5t275.5 -76.5q136 -61 225 -170q167 76 273 121q-90 222 -31 453q15 60 60.5 174t47.5 145q3 49 -56 5q-67 -50 -140 -151q-36 -51 -54 -89q-4 -8 -4 -9q-2 -4 -37 -77q-31 -71 -45 -89q-24 -29 -53 -24q-22 4 -33 14.5t-9.5 38t20.5 72.5l81 192q2 5 6.5 16
t7.5 18.5t7 18t6 18t3 14.5t-1 11.5t-6 6.5q-9 4 -20.5 -9t-36.5 -55q-15 -25 -20 -31q-2 -5 -5 -10q-116 -215 -176 -268q-59 -53 -111.5 -35.5t-70.5 90.5q-5 23 1 53q-39 -63 -80 -108q-34 -38 -76.5 -42t-73.5 23t-36 74q-6 17 -2 45q-89 -136 -177 -139
q-56 -2 -83.5 50.5t-27.5 124.5q-48 -80 -96 -126q-58 -56 -118 -45.5t-75 80.5q-9 43 -4 82q-96 -164 -188 -166q-37 -1 -63.5 24.5t-36 63.5t-12.5 80t7 74q28 118 110.5 195t190.5 59q33 -5 58.5 -31t28.5 -59v2q3 4 9.5 16t10.5 18t12 16t17 14t21 8.5t28.5 4t36.5 -4.5
q53 -12 -25 -134q-83 -127 -100 -223q-6 -42 1 -61t23 -15t35.5 19t40.5 39q42 47 96 140q29 116 111 191.5t189 57.5q32 -5 60 -30t32 -56q55 113 72 192q16 87 10 152zM2982 851q-29 102 -102 167t-171 83q-100 17 -212.5 -9t-189 -87.5t-71.5 -136.5q4 -61 58 -98.5
t137 -44.5t184 9q134 21 367 117zM3356 589q-17 -17 -40 -21t-38 7q-6 3 -11 8q-12 14 -10.5 38.5t13.5 43.5q2 2 5.5 6.5t4.5 5.5q17 17 40 21t38 -7q4 -2 10 -8q12 -15 11 -39t-13 -43q-2 -2 -5.5 -6.5t-4.5 -5.5zM3835 -380q60 -136 177.5 -225t265.5 -112
q145 -20 269 -3t215 71t118 131q22 62 -1 121q-148 -52 -301 -41q-226 15 -294 217q-118 -22 -244 -71q-143 -60 -205 -88zM2825 -751q49 -93 116 -170q57 -67 140 -110.5t167 -53.5t161 27t118 122q37 89 15.5 185.5t-90.5 189.5q-284 -127 -582 -182q-7 -1 -22.5 -4
t-22.5 -4zM3390 -489q-87 84 -182 127q-107 48 -222.5 70.5t-212.5 19.5t-167 -13.5t-122 -27.5q-200 -63 -271.5 -155.5t-6.5 -170.5q123 -151 565 -59q-18 61 -23.5 122t-1.5 92l3 30q3 -12 6.5 -50.5t13 -87.5t29.5 -100q18 3 39 10q248 59 553 193zM3486 820
q53 -35 131.5 -41t181.5 18t188.5 52t208.5 75q-11 25 -31.5 49t-60.5 49.5t-90.5 39t-129 11.5t-170.5 -27q-97 -26 -197.5 -65.5t-223 -93.5t-190.5 -81q18 -88 -6 -199q-20 -87 -62 -181.5t-80.5 -173.5t-50.5 -128q-19 -81 17 -79q35 3 82 64q51 64 115 185
q23 50 55 110q12 25 23 41t37 29.5t61 9.5q13 -2 20 -9t6.5 -19t-3 -22.5t-10.5 -27.5t-12.5 -25.5t-12.5 -23.5q-81 -144 -113 -233q-14 -45 -4.5 -62t35.5 -7t53 42q47 54 142 219q5 9 10.5 19.5t8.5 15.5t6 8q3 5 9 17q11 21 18 32t20.5 29t29 28t33.5 13q64 9 87 -28
t7 -101q153 179 231 158q70 -21 78 -71t-35 -126q-174 -329 -92 -615q156 63 316 103q70 17 149 29q-37 164 18 383q-104 -195 -205 -197q-37 -1 -63.5 24.5t-36 63.5t-12.5 80t7 74q28 118 111 195t191 59q33 -5 59 -32t27 -60q17 33 45 65q13 10 31 11t34.5 -10.5
t27.5 -26t10 -36t-17 -40.5q-79 -114 -118 -265.5t-21 -278.5q206 14 348.5 -41.5t193.5 -156.5q225 91 462 355q115 129 188 263t93 239t-1.5 183.5t-82.5 107.5q-34 18 -81.5 14.5t-76.5 -11t-47 -16.5q46 -271 -252 -602q-75 -83 -164.5 -136t-149.5 -30q-34 14 -55 61
t-23.5 114.5t33.5 160t111 182.5q192 233 448 324q-37 90 -108 140.5t-167 60.5t-206 -8.5t-238 -65.5q-41 -15 -121 -45q-137 -52 -206.5 -77t-185 -62t-185 -47t-154.5 -15.5t-148.5 15.5t-114.5 63q-28 22 -48.5 48.5t-24 41t0.5 19.5q1 0 11.5 -16t32 -40t45.5 -39z
M5324 759q-79 -35 -175.5 -105t-181.5 -161q-62 -67 -107 -145t-64.5 -142.5t-15.5 -113.5t34 -65q37 -18 125 39.5t157 139.5q50 60 87.5 112.5t79.5 128t58.5 156t2.5 156.5zM4309 458q-33 17 -78 -15.5t-94 -107.5q-35 -54 -55 -133.5t0 -120.5q22 -53 102 35
q21 24 45 57q29 41 56.5 86.5t40.5 70.5l12 25q3 9 6 15h-2q0 8 -0.5 19.5t-8.5 35.5t-24 33z" />
    <glyph glyph-name="a.3" unicode="&#xe001;" horiz-adv-x="507" 
d="M225 457q-33 17 -78.5 -15t-92.5 -106q-35 -55 -55.5 -134.5t-0.5 -121.5q22 -46 89 21q28 28 58 71q29 42 56.5 88t40.5 71l13 25q4 10 6 14h-2q0 8 -0.5 19.5t-9 35.5t-24.5 32zM1241 759q-80 -35 -177 -106t-180 -161q-62 -67 -107.5 -144.5t-65 -142t-15.5 -113.5
t34 -64q37 -19 125.5 38.5t156.5 138.5q51 61 88 113.5t79 128t58.5 156t3.5 156.5zM-598 819q53 -35 135 -39.5t169.5 14.5t196 54t200.5 71.5t198.5 76t175.5 59.5q212 60 371.5 50t260 -74.5t139.5 -175.5q177 44 284 -71q48 -51 60 -136t-12 -189t-92.5 -228
t-174.5 -243q-69 -77 -134 -139t-147 -121t-163.5 -96.5t-178.5 -57t-196 -12.5t-167.5 51.5t-102 109.5t-45 150t-3.5 168t30 169q-104 -192 -204 -196q-49 -1 -78.5 42.5t-32 98t5.5 101.5q13 55 40.5 104t65.5 86t89 54.5t106 8.5q33 -5 59 -32.5t27 -60.5q24 44 45 67
q13 10 31 10.5t34 -11t27 -26.5t10 -36t-17 -40q-54 -79 -91 -179t-47.5 -200.5t4 -188t67.5 -147t139 -71.5q388 -52 793 399q115 128 187.5 262t92.5 239t-1 183.5t-83 106.5q-34 18 -81.5 15t-76.5 -10.5t-47 -15.5q18 -104 -14 -213.5t-90.5 -199.5t-147.5 -190
q-75 -83 -164.5 -135.5t-148.5 -29.5q-34 13 -55.5 60.5t-23.5 115.5t34.5 160.5t110.5 182.5q189 229 448 322q-38 89 -109 140t-166.5 61t-205.5 -8.5t-237 -65.5q-45 -16 -136.5 -50.5t-137 -51t-127 -45t-127 -41t-116 -30.5t-114 -22t-101 -6.5t-98 7t-82.5 26.5
t-76 45q-28 23 -47.5 48.5t-25 41.5t0.5 18q2 1 12.5 -14.5t31.5 -39.5t44 -40z" />
    <glyph glyph-name="d.4" unicode="&#xe002;" horiz-adv-x="571" 
d="M446 851q-29 102 -102.5 167t-171.5 82q-100 17 -212.5 -9.5t-189 -88t-71.5 -136.5q6 -89 116 -124.5t263 -8.5q140 24 368 118zM460 766q-180 -62 -349 -86q-189 -26 -316 27t-133 157q-5 82 68.5 150.5t192.5 101t243 19.5q127 -13 227.5 -77t147.5 -168q16 7 107 46
t123 51.5t101 39.5t120.5 43t101.5 28q161 36 285 20.5t200 -72t84 -137.5q-8 24 -26 49t-57 53t-90 44.5t-133.5 15.5t-180.5 -27q-96 -26 -196 -64.5t-223.5 -93t-189.5 -80.5q17 -91 -8 -200q-26 -110 -102.5 -270t-88.5 -212q-19 -81 16 -79q33 2 81 64q62 79 139 231
q12 24 25 20q14 -4 -8 -45q-99 -187 -167 -263q-34 -38 -76.5 -42.5t-74 23t-37.5 74.5q-4 15 0 45q-91 -137 -176 -140q-49 -1 -78.5 43t-32 98.5t5.5 101.5q13 55 40.5 104t65.5 86t89 54.5t106 8.5q32 -5 59.5 -30t33.5 -56q54 113 70 190q16 79 11 154zM355 372
q-10 68 -41 84q-33 17 -79 -15.5t-93 -106.5q-34 -53 -50.5 -124t2.5 -122q26 -56 103 33q16 19 34 45q41 58 92 141q10 21 32 65z" />
    <glyph glyph-name="n.4" unicode="&#xe003;" horiz-adv-x="636" 
d="M74 360q-17 -29 -23.5 -35.5t-15.5 -0.5q-10 6 11 42l1.5 3l1.5 3t2 3q12 22 18 32t20 29.5t29.5 29.5t33.5 12q65 9 88 -27.5t8 -100.5q153 179 230 156q71 -21 79 -70.5t-36 -125.5q-175 -330 -92 -614q154 61 314 101q279 64 466.5 29.5t276 -134.5t50.5 -224
q-23 -77 -115 -134t-228.5 -79.5t-285.5 -4.5q-172 21 -303 112.5t-207 230.5q-44 -20 -129 -61t-128 -61q58 -100 69 -209.5t-28 -205.5q-28 -67 -87.5 -109.5t-136.5 -52t-159 7t-164 70.5t-142 137q-47 64 -76 135q-246 -41 -400.5 -13.5t-227.5 128.5q-71 98 15 204.5
t289 173.5q126 41 241.5 57t255.5 -1t275 -77q133 -59 224 -170q202 92 273 122q-88 218 -30 451q15 60 60.5 174.5t47.5 145.5q3 50 -56 5q-66 -49 -140 -152q-36 -50 -54 -89q-1 -1 -2 -4t-2 -4q-4 -9 -11 -24t-13 -28l-12 -26q-2 -5 -7 -16t-7.5 -17t-7 -16.5t-8 -15.5
t-9 -15t-9.5 -13t-10.5 -10t-12 -7t-13.5 -3t-15 1q-22 5 -33 15t-10 37.5t20 72.5q57 133 82 193q2 5 6.5 16t7.5 18t7 17.5t5.5 17.5t2.5 14.5t-0.5 12t-5.5 6.5q-9 4 -21 -9.5t-37 -55.5zM12 -489q-83 83 -180 127q-108 49 -223 71.5t-212 19.5t-166 -13.5t-122 -27.5
q-201 -63 -272.5 -155.5t-7.5 -170.5q45 -54 134.5 -76.5t196.5 -16.5t236 34q-18 60 -24.5 120.5t-3.5 90.5l3 31q3 -11 6.5 -49t13.5 -87t30 -100q6 1 20 4t20 5q263 66 551 193zM-552 -750q42 -83 116 -172q45 -54 108 -93.5t132 -57t134.5 -12.5t122 43t89.5 106
q38 89 16 186t-92 191q-288 -128 -581 -183q-7 -2 -22 -4t-23 -4zM457 -379q60 -136 177.5 -224.5t266.5 -112.5q144 -20 267.5 -3.5t214.5 70.5t118 131q39 110 -58 202t-294.5 110.5t-486.5 -87.5q-122 -48 -205 -86z" />
    </font>
</defs>
</svg>
