<?xml version="1.0" standalone="no"?>
<!DOCTYPE svg PUBLIC "-//W3C//DTD SVG 1.1//EN" "http://www.w3.org/Graphics/SVG/1.1/DTD/svg11.dtd" >
<svg xmlns="http://www.w3.org/2000/svg" xmlns:xlink="http://www.w3.org/1999/xlink" version="1.1">
<metadata>
Created by FontForge 20201107 at Mon Jan 31 10:10:38 2022
 By 
Copyright (C) 2021 by UICreative. All Right Reserved
</metadata>
<defs>
<font id="MelindaEvaniaRegular" horiz-adv-x="573" >
  <font-face 
    font-family="Melinda Evania"
    font-weight="400"
    font-stretch="normal"
    units-per-em="1000"
    panose-1="0 0 0 0 0 0 0 0 0 0"
    ascent="800"
    descent="-200"
    x-height="447"
    cap-height="635"
    bbox="-45 -222 1013 806"
    underline-thickness="0"
    underline-position="0"
    unicode-range="U+000A-20AC"
  />
<missing-glyph horiz-adv-x="527" 
d="M50 700h427v-700h-427v700zM78 680l185 -309l186 309h-371zM251 350l-180 300v-601zM264 329l-185 -308h370zM276 350l181 -303v605z" />
    <glyph glyph-name=".notdef" horiz-adv-x="527" 
d="M50 700h427v-700h-427v700zM78 680l185 -309l186 309h-371zM251 350l-180 300v-601zM264 329l-185 -308h370zM276 350l181 -303v605z" />
    <glyph glyph-name=".null" horiz-adv-x="0" 
 />
    <glyph glyph-name=".null" horiz-adv-x="0" 
 />
    <glyph glyph-name="nonmarkingreturn" horiz-adv-x="333" 
 />
    <glyph glyph-name="controlLF" unicode="&#xa;" horiz-adv-x="0" 
 />
    <glyph glyph-name="controlCR" unicode="&#xd;" horiz-adv-x="0" 
 />
    <glyph glyph-name="space" unicode=" " horiz-adv-x="310" 
 />
    <glyph glyph-name="exclam" unicode="!" horiz-adv-x="202" 
d="M107 157h-19l-44 479h114zM99.5 108q22.5 0 38 -15.5t15.5 -38.5q0 -24 -15.5 -39t-38.5 -15t-37 15t-14 39q0 23 14.5 38.5t37 15.5z" />
    <glyph glyph-name="quotedbl" unicode="&#x22;" horiz-adv-x="292" 
d="M177 597h80l-21 -197h-37zM57 400l-22 197h80l-21 -197h-37z" />
    <glyph glyph-name="numbersign" unicode="#" horiz-adv-x="492" 
d="M452 369h-87l-30 -129h91l-14 -64h-91l-29 -126h-30l29 126h-118l-29 -126h-57l29 126h-79l15 64h79l30 129h-104l5 27h103l26 115h56l-25 -115h119l25 115h29l-26 -115h88zM306 240l30 129h-119l-30 -129h119z" />
    <glyph glyph-name="dollar" unicode="$" horiz-adv-x="576" 
d="M528.5 231q10.5 -32 6.5 -70q-4 -35 -24.5 -64.5t-53.5 -51t-77 -33.5q-9 -2 -18.5 -4t-19 -3.5t-19.5 -2.5t-20 -1v-67h-30v67q-81 3 -142 39.5t-91 85.5l54 28q19 -28 43 -53.5t61.5 -48.5t74.5 -26v257q-62 17 -104 37q-49 22 -77.5 48.5t-39.5 57.5t-8 67
q3 35 22.5 65t51.5 52.5t74 34.5q36 10 81 11v67h30v-67q64 -4 112 -24q56 -24 99 -77l-49 -30q-43 53 -82 80q-33 22 -80 27v-255q1 -1 2 -1t2 -1q66 -16 111.5 -37.5t72.5 -48t37.5 -58.5zM273 385v247q-38 -1 -67 -12q-36 -12 -60.5 -31.5t-36 -44t-7.5 -48.5
q3 -15 11.5 -29.5t30 -29t60.5 -30.5q27 -11 69 -22zM425 58q50 34 53 87q2 24 -5 42t-28 33t-59 29q-33 12 -83 26v-250q77 3 122 33z" />
    <glyph glyph-name="percent" unicode="%" horiz-adv-x="758" 
d="M681.5 294.5q39.5 -42.5 39.5 -126.5q0 -81 -40 -124.5t-98 -43.5t-96.5 43t-38.5 130q0 69 34.5 116.5t99.5 47.5q60 0 99.5 -42.5zM644 59q24 31 24 113q0 76 -24 107t-60 31t-60 -31t-24 -114q0 -76 24.5 -106.5t59.5 -30.5q36 0 60 31zM308 505q0 -81 -40 -125
t-98 -44t-96.5 43t-38.5 130q0 69 34.5 116.5t99.5 47.5q60 0 99.5 -42.5t39.5 -125.5zM231.5 395q23.5 31 23.5 113q0 76 -24 107t-60 31t-59.5 -31t-23.5 -114q0 -76 24 -106.5t59 -30.5q37 0 60.5 31zM521 673h63l-347 -672h-65z" />
    <glyph glyph-name="ampersand" unicode="&#x26;" horiz-adv-x="596" 
d="M407 182q24 -30 64.5 -84t74.5 -97h-95q-62 80 -88 113q-45 -68 -78 -91t-79 -23q-76 0 -121 52t-45 119q0 32 7.5 56t26 46t37 37t54.5 41q-65 63 -65 135q0 64 36 106.5t91 42.5q43 0 74 -18.5t45 -46t14 -60.5q0 -24 -10 -46.5t-29.5 -41.5t-31.5 -28.5t-31 -22.5
q-5 -2 -6 -4l138 -164l50 79l22 -10q-19 -35 -55 -90zM161 509q0 -24 8 -43.5t22.5 -37t41.5 -42.5q12 5 23 17.5t19 29.5t13 36.5t5 38.5q0 43 -17 74t-48 31q-67 0 -67 -104zM226 65q36 0 62.5 13t56.5 56q-21 27 -79 97t-85 104q-41 -31 -55 -64.5t-14 -75.5
q0 -62 34.5 -96t79.5 -34z" />
    <glyph glyph-name="quotesingle" unicode="'" horiz-adv-x="151" 
d="M35 597h80l-21 -197h-37z" />
    <glyph glyph-name="parenleft" unicode="(" horiz-adv-x="206" 
d="M247 -100l-8 1q-33 4 -60 17q-28 13 -50 36t-38 49q-15 26 -24 56q-4 14 -7 30q-3 18 -5 34l-4 35q-2 19 -3 36v235q1 18 3 35l4 34q2 17 5 33t7 30q9 31 24 58q16 26 38 49t50 37q27 13 60 18l8 1v-36h-7q-33 0 -58 -28t-36.5 -68.5t-16.5 -72t-5 -50.5q0 -208 1 -271
q1 -13 2 -29t4.5 -49.5t11.5 -62t20 -57t32 -45.5t45 -17h7v-38z" />
    <glyph glyph-name="parenright" unicode=")" horiz-adv-x="211" 
d="M-38 -64h8q27 0 48 21q23 24 38.5 70.5t21 99t7 81t0.5 49.5q0 91 -1 169q0 13 -1.5 29.5t-5 49.5t-11.5 62t-19.5 57t-31.5 45t-45 17h-8v38l9 -1q32 -4 59.5 -17t49.5 -36t38 -49t24 -56q4 -15 7 -30t6 -34l3 -35q2 -18 3 -36v-32q2 -163 1 -172q0 -16 -1 -31
q-1 -18 -3 -35l-3 -34l-6 -33q-3 -15 -7 -30q-8 -31 -24 -57.5t-38 -49.5t-49 -37q-28 -13 -60 -18l-9 -1v36z" />
    <glyph glyph-name="asterisk" unicode="*" horiz-adv-x="354" 
d="M212 521q27 -23 75 -82l-52 -37q-25 34 -60 93q-32 -61 -56 -93l-52 37q51 62 73 82q-57 11 -107 24l20 62q69 -24 101 -42q-9 79 -9 108h63q-1 -43 -10 -107q45 22 103 41l20 -61q-56 -19 -109 -25z" />
    <glyph glyph-name="plus" unicode="+" horiz-adv-x="445" 
d="M257 314h160v-33h-160v-181h-69v181h-160v33h160v176h69v-176z" />
    <glyph glyph-name="comma" unicode="," horiz-adv-x="185" 
d="M79 124q27 0 50 -24t23 -67q0 -47 -33 -79t-77 -45l-11 25q69 32 69 74q0 20 -14 29.5t-41 16.5q-5 1 -9.5 8.5t-4.5 18.5q0 17 13 30t35 13z" />
    <glyph glyph-name="hyphen" unicode="-" horiz-adv-x="312" 
d="M283 200h-255v69h255v-69z" />
    <glyph glyph-name="period" unicode="." horiz-adv-x="168" 
d="M83 109q15 0 27 -7.5t19 -19.5t7 -27q0 -24 -15 -39.5t-38 -15.5t-37.5 15t-14.5 40q0 23 14.5 38.5t37.5 15.5z" />
    <glyph glyph-name="slash" unicode="/" horiz-adv-x="359" 
d="M100 0h-80l240 636h80z" />
    <glyph glyph-name="zero" unicode="0" horiz-adv-x="477" 
d="M430 223q0 -59 -16 -103t-38 -66.5t-51.5 -36t-49 -16.5t-38 -3t-37.5 3t-48.5 16.5t-51.5 36t-38 66.5t-16 103v163q0 59 16 103.5t38 66.5t51.5 35.5t48.5 16.5t37.5 3t38 -3t49 -16.5t51.5 -35.5t38 -66.5t16 -103.5v-163zM352 417q0 46 -10 78.5t-27.5 48.5t-36 23
t-40.5 7q-114 0 -114 -157v-224q0 -157 114 -157q22 0 40.5 6.5t36 23t27.5 49t10 78.5v224z" />
    <glyph glyph-name="one" unicode="1" horiz-adv-x="216" 
d="M167 4h-78v553h-50v46h128v-599z" />
    <glyph glyph-name="two" unicode="2" horiz-adv-x="466" 
d="M44 5v44q0 34 11.5 64.5t25.5 51t41 44t44.5 35.5t50.5 32q21 14 40.5 29.5t41 38t34.5 49t13 53.5q0 66 -29.5 97.5t-71.5 31.5q-40 0 -70.5 -13t-48.5 -35t-28 -45.5t-16 -50.5l-3 -18h-38l1 11q0 2 1 7t4 17.5t7.5 25t12.5 29t17.5 31t24.5 29t32 25t40.5 17t49.5 6.5
h15q73 -1 125.5 -48.5t52.5 -137.5q0 -31 -10.5 -58.5t-24 -46.5t-39 -40.5t-41 -32t-44.5 -28.5q-36 -23 -61.5 -43.5t-39.5 -36.5t-22 -32t-10.5 -27t-2.5 -25l-1 -11h291v-39h-375z" />
    <glyph glyph-name="three" unicode="3" horiz-adv-x="484" 
d="M440 180q0 -48 -17 -84.5t-45 -57.5t-61 -31t-70 -10q-12 0 -16 1q-67 0 -121.5 45.5t-65.5 130.5l-3 23l38 4l3 -19q4 -28 15 -53.5t29.5 -48.5t47.5 -36.5t65 -13.5q42 0 71 19.5t40.5 47t11.5 60.5q0 65 -34 104.5t-88 39.5h-71v37h71q25 0 49.5 14.5t41 42t16.5 60.5
q0 63 -32 92.5t-77 29.5q-60 0 -102.5 -43t-53.5 -101l-3 -17h-38l4 29q8 42 28 75t46.5 51.5t55 28.5t56.5 11h18q29 0 58.5 -10t56.5 -29t44 -51t17 -71v-14q0 -15 -4 -30.5t-11 -29.5t-17 -27t-23 -23l-12 -10l14 -8q30 -19 49 -54.5t19 -73.5z" />
    <glyph glyph-name="four" unicode="4" horiz-adv-x="460" 
d="M422 200v-36h-59v-160h-78v160h-256v30l256 410h78v-404h59zM75 200h210v337z" />
    <glyph glyph-name="five" unicode="5" horiz-adv-x="477" 
d="M252 -2h-17q-68 0 -122.5 45t-66.5 130l-4 28h79v-9q0 -9 1.5 -25t13 -51t31.5 -55q29 -29 74 -29h11q41 0 72.5 36.5t31.5 97.5v41q0 33 -7 58t-18.5 40t-27.5 24t-31 12.5t-33 3.5h-167v259h338v-41h-260v-180h43v-1h4l8 1h25h1q48 0 76 -7q60 -14 93.5 -57.5
t33.5 -105.5v-46q0 -53 -27 -92.5t-67.5 -58t-87.5 -18.5z" />
    <glyph glyph-name="six" unicode="6" horiz-adv-x="477" 
d="M232 -2q-56 0 -98 23.5t-65 65.5t-23 98v201q0 43 8.5 78t22 58t32.5 40t37 26t38.5 14.5t33.5 7t26 1.5q26 0 51 -5.5t49 -19t42 -33t29.5 -49.5t11.5 -67v-21h-42l1 10q0 8 -0.5 20.5t-9.5 41.5t-27 48q-36 39 -105 39q-30 0 -53 -11t-35.5 -26.5t-20 -37.5t-10 -40
t-2.5 -38v-90l18 13q46 34 102 34q49 0 87 -17t59.5 -45.5t31.5 -61t10 -67.5t-9.5 -67t-28.5 -60.5t-54 -45.5t-80 -17h-27zM353 188q0 17 -2 34t-9 39.5t-18.5 39t-33.5 28.5t-51 12q-47 0 -81 -39.5t-34 -113.5q0 -16 1.5 -31.5t6 -33.5t13 -33t20.5 -28t31 -20t43 -7
q55 0 84.5 39.5t29.5 113.5z" />
    <glyph glyph-name="seven" unicode="7" horiz-adv-x="421" 
d="M143 5h-83l249 559h-285v40h371l1 -34z" />
    <glyph glyph-name="eight" unicode="8" horiz-adv-x="485" 
d="M228 -2q-52 0 -93.5 22t-65.5 61t-24 87v13q0 80 60 124l12 9l-12 9q-53 43 -53 114v13q0 39 17.5 71t44 51t56.5 29t58 10h29q27 0 57 -10t56.5 -29t44 -51t17.5 -71v-13q0 -71 -53 -114l-12 -9l12 -9q60 -45 60 -124v-13q0 -73 -52 -121.5t-130 -48.5h-29zM249 295h-13
q-4 0 -8.5 -0.5t-16 -2.5t-22 -6t-23.5 -12t-22 -19t-15 -29t-6 -39v-31q0 -51 33 -86.5t72 -35.5h28q25 0 49 15.5t40 44t16 62.5v31q0 21 -6 39t-15 29t-21.5 19t-23 12t-22.5 6t-16.5 2.5t-7.5 0.5zM256 575h-28q-14 0 -35.5 -10t-42 -35.5t-20.5 -58.5v-36q0 -26 11 -46
t25.5 -30t31.5 -16.5t26 -8t11 -1.5h14q2 0 11 1.5t26 8t31.5 16.5t25.5 30t11 46v36q0 33 -20.5 58.5t-42 35.5t-35.5 10z" />
    <glyph glyph-name="nine" unicode="9" horiz-adv-x="477" 
d="M430 223q0 -59 -16.5 -103.5t-39 -66.5t-53 -35.5t-50 -16.5t-38.5 -3q-34 0 -65 9.5t-58 29t-43.5 54.5t-17.5 81v21h42l-1 -10q0 -8 0.5 -20.5t9.5 -41.5t27 -48q37 -39 106 -39q29 0 52 11t35.5 26.5t20 37.5t10 40t2.5 38v90l-18 -13q-46 -34 -102 -34q-49 0 -87 17
t-59 45.5t-31.5 61t-10.5 67.5t9.5 67t28.5 60.5t54 45.5t80 17h27q85 -1 135.5 -51.5t50.5 -135.5v-201zM352 421q0 20 -2 38t-9.5 40t-19.5 38t-33.5 26.5t-49.5 10.5q-56 0 -85.5 -39.5t-29.5 -113.5q0 -17 2 -34t9 -39.5t18.5 -39t33.5 -28.5t52 -12q46 0 80 39.5
t34 113.5z" />
    <glyph glyph-name="colon" unicode=":" horiz-adv-x="180" 
d="M89 109q15 0 27 -7.5t19 -19.5t7 -27q0 -24 -15 -39.5t-38 -15.5t-37.5 15t-14.5 40q0 11 4 21t10.5 17t16 11.5t21.5 4.5zM89 354q-23 0 -37.5 15t-14.5 39q0 11 4 21t10.5 17.5t16 11.5t21.5 4q15 0 27 -7t19 -19.5t7 -27.5q0 -24 -15 -39t-38 -15z" />
    <glyph glyph-name="semicolon" unicode=";" horiz-adv-x="195" 
d="M96 386q-23 0 -37.5 15t-14.5 40q0 11 4 21t10.5 17t16.5 11.5t21 4.5q15 0 27 -7t19 -19.5t7 -27.5q0 -24 -15 -39.5t-38 -15.5zM84 124q27 0 50 -24t23 -67q0 -47 -33 -79t-77 -45l-11 25q69 32 69 74q0 20 -14 29.5t-41 16.5q-5 1 -9.5 8.5t-4.5 18.5q0 17 13 30
t35 13z" />
    <glyph glyph-name="less" unicode="&#x3c;" horiz-adv-x="491" 
d="M454 100l-422 192v66l422 184v-42l-360 -153l360 -166v-81z" />
    <glyph glyph-name="equal" unicode="=" horiz-adv-x="405" 
d="M370 150h-336v69h336v-69zM370 293h-336v69h336v-69z" />
    <glyph glyph-name="greater" unicode="&#x3e;" horiz-adv-x="491" 
d="M36 542l422 -192v-67l-422 -183v41l360 154l-360 165v82z" />
    <glyph glyph-name="question" unicode="?" horiz-adv-x="465" 
d="M415 550q8 -14 11.5 -36t2.5 -37q-4 -36 -18 -63.5t-33.5 -44.5t-42.5 -30.5t-45.5 -26.5t-41 -28t-30 -40t-11.5 -59v-30h-28v46q0 76 72 132q1 1 11 8.5t12.5 9.5t12 10t13 12.5t11.5 13t11.5 15t9 16.5t8 19t4.5 21t2 24q0 34 -11.5 65t-40 54.5t-68.5 23.5
q-30 0 -53 -19t-35 -47t-18 -53.5t-6 -44.5l-85 10q-1 13 1.5 31t14.5 45t32.5 48.5t61.5 37t96 15.5q59 0 107 -26t73 -72zM190 108q23 0 38 -15.5t15 -38.5q0 -24 -15 -39t-38 -15t-37.5 15t-14.5 39q0 23 14.5 38.5t37.5 15.5z" />
    <glyph glyph-name="at" unicode="@" horiz-adv-x="851" 
d="M425 619q107 0 194 -42t139 -122.5t52 -183.5q0 -70 -22.5 -133t-64.5 -103t-93 -40h-76v75q-22 -39 -62 -60t-95 -21q-51 0 -93 16.5t-73 46t-49.5 69t-20.5 85.5v19q2 52 21.5 92.5t51 69.5t73.5 44q43 15 90 15q81 0 144 -53q44 -37 67.5 -91t23.5 -114v-173
q42 0 77 37t54.5 96t19.5 123t-21.5 118.5t-57.5 91.5t-82.5 63.5t-96.5 38.5t-100 12q-101 0 -183.5 -51.5t-127 -133.5t-44.5 -176q0 -92 48 -174.5t132.5 -133.5t184.5 -51q67 0 151 35l10 -21q-94 -39 -171 -39q-104 0 -192.5 51.5t-140 140t-51.5 193t51.5 193t140 140
t192.5 51.5zM554 155v119q0 48 -25 82.5t-59.5 49t-72.5 14.5q-35 0 -64.5 -14.5t-50 -41t-31.5 -64t-11 -84.5q1 -94 43 -147.5t114 -53.5q67 0 110 36.5t47 103.5z" />
    <glyph glyph-name="A" unicode="A" 
d="M484 0l-235 532l-124 -296h235l9 -19h-252l-91 -217h-26l235 550l-38 86h100l278 -636h-91z" />
    <glyph glyph-name="B" unicode="B" horiz-adv-x="569" 
d="M497 291q51 -41 55 -105v-14q-4 -84 -70 -128.5t-182 -43.5h-250v635h85h129q94 -1 148.5 -38.5t59.5 -103.5v-13q-3 -49 -33 -82.5t-83 -50.5q90 -15 141 -56zM458.5 115.5q8.5 28.5 8.5 65.5q0 33 -11 59.5t-30 41.5t-39.5 26t-43 15.5t-36.5 6t-24 1.5v19q11 0 23.5 3
t29 12.5t29.5 24.5t22 42t9 61q0 26 -8 51q-7 23 -22.5 38t-40.5 23t-61 8l-129 1v-588h165q47 0 78.5 10t51.5 30.5t28.5 49z" />
    <glyph glyph-name="C" unicode="C" horiz-adv-x="618" 
d="M350 13q29 0 58.5 12.5t51.5 30t40.5 37t29 34t12.5 21.5l60 -21q-23 -33 -53 -59t-62.5 -43t-67.5 -26t-69 -9q-70 0 -129.5 25.5t-103.5 70.5t-69 106.5t-25 133.5q0 69 25 127t69 101t104 67t131 24q47 0 86 -12.5t70.5 -34.5t56 -50.5t41.5 -60.5l-47 -6
q-11 21 -29.5 46t-43.5 46q-26 21 -59 35.5t-75 14.5q-52 0 -96.5 -22.5t-77.5 -62t-51 -94t-18 -118.5q0 -67 18 -124t50.5 -99t76.5 -66t96 -24z" />
    <glyph glyph-name="D" unicode="D" horiz-adv-x="628" 
d="M578.5 456.5q25.5 -57.5 25.5 -130.5q0 -77 -25.5 -137t-73 -102t-116.5 -64q-72 -23 -157 -23h-182v635h182q88 0 157 -21t116.5 -60.5t73 -97zM448 102.5q69 77.5 72 216.5q0 70 -17 124.5t-52.5 92.5t-90.5 58t-131 20l-94 1v-590h98q146 0 215 77.5z" />
    <glyph glyph-name="E" unicode="E" horiz-adv-x="469" 
d="M135 19h332v-19h-417v635h399v-19h-314v-241h242v-18h-242v-338z" />
    <glyph glyph-name="F" unicode="F" horiz-adv-x="447" 
d="M449 616h-314v-241h242v-18h-242v-357h-85v635h399v-19z" />
    <glyph glyph-name="G" unicode="G" horiz-adv-x="638" 
d="M524 291h85v-159q-32 -72 -100 -108.5t-159 -36.5q-70 0 -129 26q-60 26 -104 71.5t-69 107t-25 133.5q0 69 24 128t67 102t101.5 67.5t127.5 24.5q81 0 147 -35q32 -18 65 -52.5t53 -72.5l-47 -6q-41 74 -105 111q-52 30 -113 30q-56 0 -100 -23t-73 -63
q-30 -40 -46 -95q-15 -55 -15 -116q0 -65 16 -123t47 -100t76 -66.5t102 -24.5q66 0 105.5 32t68.5 89v159z" />
    <glyph glyph-name="H" unicode="H" horiz-adv-x="603" 
d="M135 0h-85v635h85v-635zM467 635h85v-635h-85v317h-314v19h314v299z" />
    <glyph glyph-name="I" unicode="I" horiz-adv-x="185" 
d="M50 635h85v-635h-85v635z" />
    <glyph glyph-name="J" unicode="J" horiz-adv-x="459" 
d="M98 635h316v-442q0 -46 -16 -83.5t-44 -63t-66 -39.5t-83 -14q-39 0 -75 13.5t-63 37.5t-44 57q-9 16 -13.5 33.5t-4.5 36.5h43q1 -32 12.5 -61t32 -49.5t49 -32.5t63.5 -12q40 0 64.5 13t38 36.5t17.5 56.5t4 71v424h-231v18z" />
    <glyph glyph-name="K" unicode="K" horiz-adv-x="568" 
d="M217 359l359 -359h-115l-320 317l315 318h29zM50 0v635h85v-635h-85z" />
    <glyph glyph-name="L" unicode="L" horiz-adv-x="460" 
d="M135 19h332v-19h-417v635h85v-616z" />
    <glyph glyph-name="M" unicode="M" horiz-adv-x="726" 
d="M589 635h87v-635h-85v570l-196 -500l28 -70h-85l-266 586v-586h-22l-1 635h98l233 -531z" />
    <glyph glyph-name="N" unicode="N" horiz-adv-x="605" 
d="M534 635h21v-635h-17l-467 601v-601h-21v635h107l377 -488v488z" />
    <glyph glyph-name="O" unicode="O" horiz-adv-x="704" 
d="M656 448q25 -61 25 -132.5t-25 -132.5t-69 -105.5t-104 -69.5t-130.5 -25t-131 25t-104.5 70t-69 105.5t-25 132t25 132.5t69 105.5t104.5 70t131 25.5t130.5 -25.5t104 -70t69 -105.5zM579 191q15 57 13.5 124.5t-18.5 124t-48 98t-74.5 65.5t-98.5 24q-57 0 -102.5 -23
t-76 -64.5t-46.5 -99t-16 -124.5q0 -66 16 -122t46.5 -97.5t76 -66t102.5 -25.5q59 0 104.5 23t76 64.5t45.5 98.5z" />
    <glyph glyph-name="P" unicode="P" horiz-adv-x="556" 
d="M520.5 515q21.5 -38 21.5 -86q0 -51 -21 -90.5t-61.5 -67.5t-97.5 -42.5t-130 -14.5h-97v-214h-85v635h182q73 0 130 -14t97 -41t61.5 -65zM406 283q57 51 61 142q0 91 -58 141t-180 51l-94 1v-386h98q116 0 173 51z" />
    <glyph glyph-name="Q" unicode="Q" horiz-adv-x="704" 
d="M557 -41q24 4 48 15l10 -12q-26 -22 -60 -32q-29 -9 -57.5 -11t-57.5 1q-9 0 -18.5 1.5t-21 3t-17.5 2.5q-77 11 -112 8q-28 -2 -58 -14l-10 12q38 29 73 37q34 7 72 5l70 -10q23 -4 46 -7t47 -3q23 -1 46 4zM656 448q25 -61 25 -132.5t-25 -132.5t-69 -105.5t-104 -69.5
t-130.5 -25t-131 25t-104.5 70t-69 105.5t-25 132t25 132.5t69 105.5t104.5 70t131 25.5t130.5 -25.5t104 -70t69 -105.5zM579 191q15 57 13.5 124.5t-18.5 124t-48 98t-74.5 65.5t-98.5 24q-57 0 -102.5 -23t-76 -64.5t-46.5 -98.5t-16 -125q0 -66 16 -122t46.5 -97.5
t76 -66t102.5 -25.5q59 0 104.5 23t76 64.5t45.5 98.5z" />
    <glyph glyph-name="R" unicode="R" horiz-adv-x="607" 
d="M584 21h24v-21h-72q-93 0 -147 61l-5 5l-4 5l-112 128q-57 68 -101 68h-32v-267h-85v635h218q121 0 187 -47.5t66 -133.5q0 -83 -59 -132t-165 -54q9 -4 18 -9t15.5 -9.5t14 -10.5l12.5 -10t11.5 -10.5l10 -10t9 -10.5t7.5 -9t6.5 -8.5t5.5 -6.5l9 -12q25 -32 40 -50
t39 -43t46 -36.5t43 -11.5zM135 286h134q46 0 77 11t51 32.5t29.5 53t10.5 71.5q0 39 -8.5 69t-29 50.5t-53.5 32t-82 11.5l-129 1v-332z" />
    <glyph glyph-name="S" unicode="S" horiz-adv-x="538" 
d="M510.5 221.5q10.5 -31.5 6.5 -70.5q-4 -35 -24.5 -64.5t-53.5 -51t-76.5 -33.5t-93.5 -12q-86 0 -150.5 37.5t-96.5 88.5l54 29q34 -51 84.5 -91t108.5 -40q87 0 137.5 34t53.5 87q2 24 -5 42t-28 33t-59 29t-99 30q-70 19 -118.5 41t-77 48.5t-39.5 57.5t-8 67
q3 35 22.5 65t51.5 52.5t74.5 34.5t90.5 12q76 -2 132 -25.5t99 -76.5l-49 -30q-43 54 -82 80q-41 28 -100 28q-42 0 -77.5 -12.5t-60 -31.5t-36 -44t-7.5 -49q3 -15 11.5 -29t30 -29t60.5 -31q38 -15 103 -31q66 -17 111 -38q46 -21 73 -48t37.5 -58.5z" />
    <glyph glyph-name="T" unicode="T" horiz-adv-x="502" 
d="M-6 635h514v-19h-214v-616h-86v616h-214v19z" />
    <glyph glyph-name="U" unicode="U" horiz-adv-x="586" 
d="M517 242v393h27v-394q-1 -52 -18.5 -98t-49.5 -79t-76 -51.5t-97 -18.5q-58 0 -106 17.5t-82.5 48t-53.5 72t-19 91.5v412h86v-402q0 -45 10 -83t31.5 -65.5t54.5 -42t79 -14.5q48 0 87.5 15.5t67.5 43.5t43 68q16 39 16 87z" />
    <glyph glyph-name="V" unicode="V" horiz-adv-x="581" 
d="M556 635h26l-271 -635h-36l-277 635h97l233 -533z" />
    <glyph glyph-name="W" unicode="W" horiz-adv-x="966" 
d="M941 635h25l-271 -635h-36l-176 404l-172 -404h-36l-277 635h97l233 -533l142 332l-88 201h98l232 -533z" />
    <glyph glyph-name="X" unicode="X" horiz-adv-x="543" 
d="M315 331l226 -331h-93l-199 284q-39 -29 -73.5 -69.5t-55.5 -76.5t-37 -68t-22 -51l-6 -19h-32q3 7 7.5 20t22.5 51t40 73.5t60 80.5t82 80l-233 330h98l200 -283q31 27 61 66.5t50 75.5t35.5 68.5t23.5 52.5l7 20h28q-3 -8 -8 -22.5t-23 -54.5t-38.5 -76t-53 -79
t-67.5 -72z" />
    <glyph glyph-name="Y" unicode="Y" horiz-adv-x="518" 
d="M521 633l-211 -382l1 -251h-85v242l-230 391h98l206 -352l194 352h27z" />
    <glyph glyph-name="Z" unicode="Z" horiz-adv-x="526" 
d="M527 635l-424 -616h381v-19h-486l419 616h-371v19h481z" />
    <glyph glyph-name="bracketleft" unicode="[" horiz-adv-x="173" 
d="M192 677q-18 0 -42 -15q-31 -19 -31 -54v-631q0 -36 66 -42q6 -1 7 -1v-34h-18q-14 1 -27.5 3t-32 8.5t-32 16.5t-23 28t-9.5 41v610q0 28 13.5 48.5t34.5 30t40 13.5t36 4h18v-26z" />
    <glyph glyph-name="backslash" unicode="\" horiz-adv-x="359" 
d="M338 0h-80l-240 636h80z" />
    <glyph glyph-name="bracketright" unicode="]" horiz-adv-x="173" 
d="M53 608q0 50 -60 66l-13 3v26h18q13 0 27.5 -2t32.5 -8.5t31.5 -16.5t23 -28t9.5 -42v-609q0 -28 -13 -48.5t-35 -30t-40 -13.5t-36 -5h-18v34q34 0 57 16q16 11 16 27v631z" />
    <glyph glyph-name="underscore" unicode="_" horiz-adv-x="590" 
d="M540 -100h-490v47h490v-47z" />
    <glyph glyph-name="a" unicode="a" horiz-adv-x="529" 
d="M404 402q44 -37 67.5 -91t23.5 -114v-193h-78v75q-22 -39 -62 -60t-94 -21q-52 0 -94 16.5t-73 46t-49 69t-21 85.5v19q3 51 22.5 92t50.5 70t73.5 44t90.5 15q80 0 143 -53zM417 164v119q0 48 -25 82.5t-59 49t-72 14.5q-36 0 -65 -14.5t-49.5 -41t-32 -64.5t-11.5 -84
q1 -94 43 -147.5t115 -53.5q67 0 110 36.5t46 103.5z" />
    <glyph glyph-name="b" unicode="b" horiz-adv-x="541" 
d="M494 325q22 -47 22 -102q0 -20 -6 -49.5t-16 -49.5q-19 -41 -50.5 -69.5t-73 -44t-90.5 -15.5q-30 0 -54.5 7.5t-44 19.5t-34 25.5t-24.5 27.5v-72h-78v587l78 50v-262q2 2 4 4.5t10.5 10.5t17.5 15t23 15.5t29 14.5t34 10.5t39 4.5q41 0 76.5 -11t57.5 -26t40.5 -35
t26 -32t13.5 -24zM394 79q44 53 44 143q0 46 -12 83.5t-29.5 59.5t-40 37t-41.5 20.5t-35 5.5q-64 0 -110.5 -43.5t-46.5 -79.5v-189q1 -1 1 -2q52 -85 156 -85q71 0 114 50z" />
    <glyph glyph-name="c" unicode="c" horiz-adv-x="482" 
d="M262 20q86 0 152 83l49 -15q-30 -46 -83 -72t-118 -26q-51 0 -94.5 18t-75.5 49.5t-50 73.5t-18 90t18.5 91t50.5 74.5t76 50t95 18.5q70 0 123.5 -30.5t78.5 -85.5l-41 -7q-7 12 -19 25.5t-31.5 28.5t-48.5 25t-62 10q-34 0 -63.5 -15.5t-51 -42.5t-33.5 -63.5t-12 -79
t12 -79.5t33 -64t50 -42t63 -15z" />
    <glyph glyph-name="d" unicode="d" horiz-adv-x="541" 
d="M495 3h-78v72q-9 -13 -23.5 -27t-34 -26t-44.5 -19.5t-54 -7.5q-49 0 -91 15.5t-73 44t-51 69.5q-9 20 -15.5 49.5t-6.5 49.5q0 55 23 102q5 12 12.5 24t26 32t40.5 35t57.5 26t77.5 11q26 0 52 -7.5t44 -18.5t32 -22t21 -19l7 -8v212l78 50v-637zM261 29q102 0 156 87
v189q0 36 -46.5 79.5t-109.5 43.5q-14 0 -29.5 -4.5t-33.5 -13t-35 -25t-30.5 -38t-22 -54t-8.5 -71.5q0 -90 45 -143q42 -50 114 -50z" />
    <glyph glyph-name="e" unicode="e" horiz-adv-x="526" 
d="M272 16q35 0 68 15t54 37t33 38t16 26l49 -7q-13 -29 -36.5 -54t-53 -43t-63 -28t-67.5 -10q-53 0 -98.5 17.5t-79 49t-52 74t-18.5 92.5q0 52 18.5 94.5t51 73.5t76.5 48t97 17q49 0 91.5 -16t74.5 -45.5t50 -69.5q20 -43 19 -97h-397v-5q-1 -43 9.5 -81t31.5 -66
t52.5 -44t73.5 -16zM123.5 326.5q-12.5 -33.5 -16.5 -74.5h313q-2 40 -13 73.5t-30.5 57.5t-47 38t-62.5 14t-63 -13t-48 -37.5t-32.5 -58z" />
    <glyph glyph-name="f" unicode="f" horiz-adv-x="280" 
d="M233.5 652.5q43.5 2.5 90.5 -16.5v-60q-5 6 -13.5 15t-32.5 23.5t-45 14.5q-30 0 -50 -26.5t-20 -73.5v-82h115v-18h-115v-426h-78v426h-81v18h81v36q0 51 19.5 88.5t52.5 58t76.5 23z" />
    <glyph glyph-name="g" unicode="g" horiz-adv-x="530" 
d="M497 199v-168q0 -55 -15.5 -97t-44 -71t-69 -44.5t-91.5 -15.5q-47 0 -87.5 19t-67.5 54l13 10q18 -17 36 -26.5t35.5 -14.5t34.5 -7q19 -1 36 -1q74 0 108 49q32 48 32 146v47q-22 -39 -62 -60t-94 -21q-52 0 -94 16.5t-73 46t-49 69t-21 85.5v19q3 52 22.5 92.5
t50.5 69.5t73.5 44t90.5 15q80 0 143 -53q44 -37 68 -90.5t25 -112.5zM417 164v119q0 48 -25 82.5t-59 49t-72 14.5q-36 0 -65 -14.5t-49.5 -41t-32 -64t-11.5 -84.5q1 -94 43 -147.5t115 -53.5q67 0 110 36.5t46 103.5z" />
    <glyph glyph-name="h" unicode="h" horiz-adv-x="535" 
d="M484 319q15 -44 15 -98v-218h-78v218q0 96 -33.5 148.5t-107.5 52.5q-38 0 -66.5 -14t-48 -37.5t-30.5 -54.5q-10 -31 -12 -65v-248h-78v587l78 50v-284q22 47 62 73.5t95 26.5q50 0 90.5 -16.5t69.5 -46.5t44 -74z" />
    <glyph glyph-name="i" unicode="i" horiz-adv-x="167" 
d="M84 500q-18 0 -27.5 11t-9.5 26q0 16 10 26t27 10q15 0 25.5 -10t10.5 -26q0 -15 -10 -26t-26 -11zM43 398l78 49v-444h-78v395z" />
    <glyph glyph-name="j" unicode="j" horiz-adv-x="168" 
d="M83 499q-18 0 -27.5 11t-9.5 26q0 16 10 26t27 10q16 0 26 -10t10 -26q0 -15 -10 -26t-26 -11zM122 447v-487q0 -82 -43.5 -130t-123.5 -52v18q31 2 49 13t27 28q8 17 11 41q2 23 2 51v469z" />
    <glyph glyph-name="k" unicode="k" horiz-adv-x="463" 
d="M45 3v587l78 50v-637h-78zM197 265l262 -262h-90l-239 239l251 202h36z" />
    <glyph glyph-name="l" unicode="l" horiz-adv-x="169" 
d="M45 590l78 50v-637h-78v587z" />
    <glyph glyph-name="m" unicode="m" horiz-adv-x="851" 
d="M617 449q51 0 89.5 -14.5t61 -38.5t33.5 -53.5t11 -62.5v-277h-79v253q0 159 -116 159q-35 0 -64.5 -16.5t-47.5 -40.5t-28 -48.5t-10 -43.5v-263h-79v253q0 159 -116 159q-35 0 -64.5 -14t-47.5 -34.5t-28.5 -42t-10.5 -38.5v-283h-78v395l78 51v-85q14 27 56.5 56
t94.5 29q73 0 118 -28t64 -74q8 15 19 29t30.5 32.5t49 29.5t64.5 11z" />
    <glyph glyph-name="n" unicode="n" horiz-adv-x="506" 
d="M272 449q98 0 146.5 -49t48.5 -120v-277h-79v253q0 159 -116 159q-34 0 -64.5 -15.5t-48 -37t-28 -42t-10.5 -34.5v-283h-78v395l78 51v-85q14 27 56.5 56t94.5 29z" />
    <glyph glyph-name="o" unicode="o" horiz-adv-x="553" 
d="M509.5 315q18.5 -42 18.5 -91.5t-18.5 -92t-52 -72.5t-79.5 -47.5t-101 -17.5t-101.5 17.5t-80.5 47.5t-52.5 72.5t-18.5 92t18.5 91.5t52.5 72.5t80.5 48t101.5 17.5t101 -17.5t79.5 -48t52 -72.5zM438.5 140.5q10.5 37.5 9.5 82.5t-13 82.5t-33 65t-52.5 43t-72.5 15.5
q-42 0 -74.5 -14.5t-54 -42t-32.5 -65.5t-11 -84q0 -44 11 -81t32.5 -64.5t53.5 -43t75 -16.5q44 -1 76.5 14.5t53.5 43t31.5 65z" />
    <glyph glyph-name="p" unicode="p" horiz-adv-x="530" 
d="M483.5 324q19.5 -41 22.5 -92v-19q-3 -46 -21 -85.5t-49 -69t-73.5 -46t-93.5 -16.5q-55 0 -95 21t-62 60v-269h-79v389q1 58 25 112t67 91q64 53 144 53q48 0 90 -15t73.5 -44t51 -70zM383.5 75.5q42.5 53.5 42.5 147.5q0 46 -11 84t-31.5 64.5t-49.5 41t-65 14.5
q-38 0 -72.5 -14.5t-59 -49t-24.5 -82.5v-119q3 -67 46 -103.5t110 -36.5q72 0 114.5 53.5z" />
    <glyph glyph-name="q" unicode="q" horiz-adv-x="530" 
d="M497 197v-389h-80v269q-22 -39 -62 -60t-94 -21q-52 0 -94 16.5t-73 46t-49 69t-21 85.5v19q3 51 22.5 92t50.5 70t73.5 44t90.5 15q80 0 143 -53q44 -37 68 -91t25 -112zM417 162v119q0 48 -25 82.5t-59 49t-72 14.5q-36 0 -65 -14.5t-49.5 -41t-32 -64.5t-11.5 -84
q1 -94 43 -147.5t115 -53.5q67 0 110 36.5t46 103.5z" />
    <glyph glyph-name="r" unicode="r" horiz-adv-x="330" 
d="M239 455q54 0 85 -17l-12 -54q-36 18 -68 21.5t-54 -5t-38 -23t-23.5 -29t-7.5 -25.5v-320h-78v395l78 51v-74q3 7 8 15t15.5 20t23.5 21.5t32 16.5t39 7z" />
    <glyph glyph-name="s" unicode="s" horiz-adv-x="446" 
d="M381 206.5q53 -37.5 43 -96.5q-4 -27 -22 -49.5t-45 -38t-61.5 -24t-71.5 -8.5q-70 0 -121.5 25.5t-79.5 60.5q-1 0 14 4.5t30 9.5l15 5q4 -7 14.5 -17.5t29 -26t45 -25.5t54.5 -10q59 0 97 23t42 57q3 20 -3.5 33t-23.5 23q-18 11 -48 19q-31 8 -77 17q-55 10 -91 25
q-37 15 -59 34.5t-30 44t-5 54.5q3 22 17 42t38 34.5t57.5 24t75.5 9.5q62 0 107.5 -24.5t70.5 -58.5l-42 -19q-20 30 -52.5 53.5t-83.5 23.5q-30 0 -52.5 -6.5t-38 -17.5t-24 -24.5t-11.5 -27.5q-6 -30 25.5 -54.5t111.5 -38.5q102 -18 155 -55.5z" />
    <glyph glyph-name="t" unicode="t" horiz-adv-x="308" 
d="M166 445h140v-18h-140v-424h-79v424h-84v18h84l1 112l78 51v-163z" />
    <glyph glyph-name="u" unicode="u" horiz-adv-x="504" 
d="M460 449l-1 -446h-78v85q-13 -27 -55.5 -56t-94.5 -29q-99 0 -147 49t-48 120v226l78 51v-253q0 -159 117 -159q34 0 64 15.5t48 37t28 42t10 34.5v232z" />
    <glyph glyph-name="v" unicode="v" horiz-adv-x="467" 
d="M432 447h31l-217 -444h-25l-217 444h89l169 -344z" />
    <glyph glyph-name="w" unicode="w" horiz-adv-x="661" 
d="M622 447h31l-153 -444h-36l-134 399l-137 -399h-36l-149 444h72l117 -346l118 346h72l118 -346z" />
    <glyph glyph-name="x" unicode="x" horiz-adv-x="464" 
d="M270 230l186 -227h-85l-156 189q-28 -16 -54.5 -41t-44.5 -50t-31.5 -47.5t-19.5 -36.5l-7 -14h-33q3 6 8.5 16.5t22.5 39.5t36 54.5t47.5 54t57.5 46.5l-192 233h91l156 -195q32 18 58.5 44.5t42 52t26 48t14.5 36.5l4 14h33l-5.5 -16.5t-17.5 -40t-31 -55.5t-45.5 -56
t-60.5 -49z" />
    <glyph glyph-name="y" unicode="y" horiz-adv-x="505" 
d="M460 449v-418q0 -55 -15.5 -97t-44 -71t-69 -44.5t-91.5 -15.5q-47 0 -87.5 19t-67.5 54l13 10q18 -17 36 -26.5t35.5 -14.5t34.5 -7q19 -1 36 -1q74 0 108 49q32 48 32 146v56q-13 -27 -55 -56t-94 -29q-99 0 -147 49t-48 120v226l78 51v-253q0 -159 117 -159
q34 0 64 15.5t48 37t28 42t10 34.5v232z" />
    <glyph glyph-name="z" unicode="z" horiz-adv-x="440" 
d="M436 447l-337 -425h307v-19h-401l332 426h-294v18h393z" />
    <glyph glyph-name="braceleft" unicode="{" horiz-adv-x="220" 
d="M242 692q-12 0 -27 -3.5t-30 -16t-15 -30.5q0 -1 0.5 -16.5t0.5 -33.5v-42.5t-1 -48.5t-2 -46.5t-2.5 -41t-4.5 -28.5q-10 -35 -41 -66q-4 -3 0 -7q31 -31 41 -66q3 -10 4.5 -28t2.5 -40.5t2 -46t1 -47.5v-41.5t-0.5 -32.5t-0.5 -16q0 -19 9 -32.5t22 -19.5t23.5 -8
t17.5 -2v-32q-11 0 -23 1.5t-27 5.5t-28.5 11.5t-25 18t-18.5 26.5t-7 36q0 201 -13 228q-6 12 -11 20t-12.5 14.5t-17.5 11.5q-21 10 -23 38v2.5v2v2v2.5q2 28 23 38q15 7 24 17.5t17 28.5q13 27 13 221q0 29 14 50.5t36.5 31t41.5 13.5t37 4v-32z" />
    <glyph glyph-name="verticalbar" unicode="|" horiz-adv-x="164" 
d="M114 -91h-64v818h64v-818z" />
    <glyph glyph-name="braceright" unicode="}" horiz-adv-x="220" 
d="M-23 -68q12 0 27 4t30 16t15 31v13v26.5v35.5v41t1 42t2 40.5t2.5 34t4.5 23.5q9 36 40 66q4 4 0 8q-31 30 -40 65q-3 10 -5 28t-3 40.5t-1.5 46t-0.5 47.5v41.5v33v15.5q0 19 -8.5 32.5t-22 19.5t-23.5 8.5t-18 2.5v31q18 0 37 -4t41.5 -13.5t36.5 -31t14 -50.5
q0 -201 13 -227q9 -19 17.5 -29.5t24.5 -17.5q20 -10 22 -37v-3v-2.5v-2v-2.5q-2 -28 -22 -37q-16 -8 -24.5 -18t-17.5 -29q-13 -27 -13 -221q0 -29 -14 -50t-36 -31t-41.5 -14t-36.5 -4z" />
    <glyph glyph-name="nonbreakingspace" unicode="&#xa0;" horiz-adv-x="341" 
 />
    <glyph glyph-name="exclamdown" unicode="&#xa1;" horiz-adv-x="190" 
d="M107 380l43 -480h-114l51 480h20zM95 428q-23 0 -38 16t-15 38q0 24 15 39.5t38 15.5t37.5 -15t14.5 -40q0 -23 -14.5 -38.5t-37.5 -15.5z" />
    <glyph glyph-name="cent" unicode="&#xa2;" horiz-adv-x="515" 
d="M276 38q87 0 151 84l50 -16q-30 -46 -83 -71.5t-118 -25.5q-33 0 -64 8l-48 -158l-29 9l48 158h-0.5h-1.5q-43 18 -75 49.5t-50 73.5t-18 90q0 49 18.5 91.5t50.5 74t76 50t95 18.5q18 0 40 -3l46 153l29 -9l-46 -150q30 -8 55 -22q53 -30 78 -85l-41 -7
q-7 13 -18.5 26.5t-34.5 29.5t-49 24l-115 -380q27 -12 54 -12zM195 65l113 372q-17 2 -30 2q-34 0 -63.5 -15t-51 -42t-33.5 -63.5t-12 -79.5t12 -80t33 -64q12 -15 32 -30z" />
    <glyph glyph-name="sterling" unicode="&#xa3;" horiz-adv-x="510" 
d="M459 85l16 -48q-3 -2 -8 -5t-23.5 -9t-40.5 -8.5t-59.5 0.5t-78.5 14q-50 10 -94.5 3.5t-75.5 -19.5l-31 -13l-28 59q3 3 8 7t19 18t26 29.5t25 39.5t20 48.5t7 57t-10 65.5h-75v30h64q-41 135 2 217.5t153 82.5q19 0 37.5 -2t45.5 -11.5t47.5 -25.5t37.5 -48.5t23 -75.5
l-72 -16q0 66 -35 111.5t-94 45.5q-27 0 -48 -15t-34.5 -46t-10 -87t28.5 -130h129v-30h-119q19 -72 -10 -152t-67 -111q36 17 75 20t72 -2.5t64 -11t60.5 -2.5t53.5 20z" />
    <glyph glyph-name="yen" unicode="&#xa5;" horiz-adv-x="567" 
d="M331 262v-31h147v-30h-147v-51h147v-31h-147l1 -108h-85v108h-143v31h143v51h-143v30h143v22l-230 392h98l206 -353l194 353h27z" />
    <glyph glyph-name="section" unicode="&#xa7;" horiz-adv-x="547" 
d="M452 148q61 -43 50 -111q-5 -32 -25.5 -57.5t-51.5 -43t-70.5 -27t-82.5 -9.5q-80 0 -139 28.5t-91 69.5l6.5 2t16.5 5t20 6.5t17 5.5l7 2q4 -5 11.5 -13.5t24 -23t34.5 -25.5t43.5 -20t50.5 -9q68 0 111.5 27t48.5 66q3 22 -4 37t-27 27t-55 21q-34 10 -88 20
q-63 12 -105 29t-67 39.5t-34.5 51t-5.5 62.5q3 24 19 47t43.5 40t66.5 28q2 0 7.5 1t6.5 2q-25 7 -38 12q-42 17 -67 39.5t-34.5 51t-5.5 62.5q3 25 19 48t43.5 39.5t66.5 27t87 10.5q70 0 122.5 -27.5t81.5 -66.5l-49 -22q-23 35 -60 62t-95 27q-35 0 -61 -8t-43.5 -20
t-27.5 -27.5t-13 -32.5q-7 -34 29 -62t128 -45q117 -20 177.5 -63t49.5 -111q-5 -31 -25.5 -56.5t-51.5 -43.5t-70 -28q63 -18 99 -44zM272 212q67 0 111 27q48 30 48 70q0 43 -51 69.5t-118 26.5q-34 0 -60 -7q-1 0 -4 -1q-80 -22 -80 -79q0 -31 26.5 -56.5t61 -37.5
t66.5 -12z" />
    <glyph glyph-name="copyright" unicode="&#xa9;" horiz-adv-x="728" 
d="M363.5 653q87.5 0 162 -43t118 -117.5t43.5 -162t-43.5 -162t-118 -117.5t-162 -43t-162 43t-117.5 117.5t-43 162t43 162t117.5 117.5t162 43zM364 45q118 0 201.5 84t83.5 201.5t-83.5 201t-201.5 83.5t-201.5 -83.5t-83.5 -201t83.5 -201.5t201.5 -84zM290.5 438.5
q-16.5 -20.5 -25.5 -48.5t-9 -61t9 -61t25 -49t38.5 -32.5t48.5 -11.5q66 0 116 64l38 -12q-23 -35 -63.5 -55t-90.5 -20q-39 0 -72.5 14t-58 38t-38.5 56t-14 69t14 70t39 57t58.5 38.5t72.5 14.5q54 0 95 -23.5t60 -65.5l-31 -6q-14 24 -45 46t-79 22q-26 0 -48.5 -11.5
t-39 -32z" />
    <glyph glyph-name="guillemotleft" unicode="&#xab;" horiz-adv-x="382" 
d="M232 284l116 -184h-71l-115 184l115 184h69zM219 468l-115 -184l116 -184h-71l-115 184l116 184h69z" />
    <glyph glyph-name="softhyphen" unicode="&#xad;" horiz-adv-x="0" 
 />
    <glyph glyph-name="registered" unicode="&#xae;" horiz-adv-x="453" 
d="M226.5 650q77.5 0 132.5 -55t55 -132.5t-55 -132t-133 -54.5q-50 0 -93.5 25t-68.5 68t-25 94q0 77 55 132t132.5 55zM226 296q69 0 118 49t49 118q0 45 -22.5 83.5t-61 60.5t-83.5 22t-83.5 -22t-60.5 -60.5t-22 -83.5q0 -69 48.5 -118t117.5 -49zM266 413
q15 -19 21.5 -26.5t19.5 -18.5t24 -11h9v-7h-27q-16 0 -29.5 5.5t-17 9t-10.5 11.5l-40 46q-21 25 -37 25h-12v-97h-31v232h80q44 0 68 -17.5t24 -48.5t-21.5 -48.5t-60.5 -19.5q21 -10 40 -35zM167 454h49q16 0 27.5 4t19 12t11 19.5t3.5 26.5q0 14 -3 25t-10.5 18.5
t-19.5 11.5t-30 4h-47v-121z" />
    <glyph glyph-name="degree" unicode="&#xb0;" horiz-adv-x="278" 
d="M137 613q45 0 75 -31t30 -75q0 -47 -29.5 -77t-75.5 -30q-44 0 -73 30t-29 77q0 45 29.5 75.5t72.5 30.5zM137 449q17 0 30 7t20 20t7 31q0 24 -16 40.5t-41 16.5q-11 0 -21 -4t-17.5 -11.5t-11.5 -18.5t-4 -23q0 -18 7 -31t19 -20t28 -7z" />
    <glyph glyph-name="periodcentered" unicode="&#xb7;" horiz-adv-x="168" 
d="M83 308q15 0 27 -7t19 -19.5t7 -27.5q0 -24 -15 -39t-38 -15q-15 0 -27 6.5t-18.5 19t-6.5 28.5q0 11 4 21t10.5 17.5t16 11.5t21.5 4z" />
    <glyph glyph-name="guillemotright" unicode="&#xbb;" horiz-adv-x="382" 
d="M232 468l116 -184l-116 -184h-69l114 184l-115 184h70zM105 468l115 -184l-116 -184h-69l115 184l-116 184h71z" />
    <glyph glyph-name="questiondown" unicode="&#xbf;" horiz-adv-x="457" 
d="M432 77q1 -13 -1.5 -31t-14.5 -45t-32.5 -48.5t-61.5 -37t-96 -15.5q-59 0 -106.5 25.5t-73.5 71.5q-7 14 -11 36t-3 37q3 33 14.5 58t27.5 41t35.5 30t39.5 23.5t39 22.5t33.5 27.5t23.5 37.5t10 52v31h27v-46q0 -77 -72 -132q-2 -2 -8 -6q-15 -11 -23 -18t-22 -21.5
t-21.5 -28t-13.5 -33.5t-6 -42q0 -25 6.5 -49t20.5 -45.5t38 -35t55 -13.5q29 0 52 19t35 47t18 53.5t6 43.5zM271 439q-15 0 -27 7.5t-19 19.5t-7 27q0 24 15 39.5t38 15.5t37.5 -15t14.5 -40q0 -23 -14.5 -38.5t-37.5 -15.5z" />
    <glyph glyph-name="Agrave" unicode="&#xc0;" 
d="M264 679h-33l-103 118h80zM483 1l-235 532l-124 -296h235l9 -18h-252l-91 -218h-26l235 550l-38 87h100l278 -637h-91z" />
    <glyph glyph-name="Aacute" unicode="&#xc1;" 
d="M398 806l-118 -136h-37l63 136h92zM483 1l-235 532l-124 -296h235l9 -18h-252l-91 -218h-26l235 550l-38 87h100l278 -637h-91z" />
    <glyph glyph-name="Acircumflex" unicode="&#xc2;" 
d="M266 764l-51 -85h-51l73 118h57l73 -118h-51zM483 1l-235 532l-124 -296h235l9 -18h-252l-91 -218h-26l235 550l-38 87h100l278 -637h-91z" />
    <glyph glyph-name="Atilde" unicode="&#xc3;" 
d="M213 722q-31 0 -53 -31v48q2 2 6.5 6t21 11t36.5 7t51.5 -14.5t49.5 -14.5q11 0 23.5 7t20.5 15l8 7v-46q-17 -14 -29 -18t-37 -4q-16 0 -49 13.5t-49 13.5zM483 1l-235 532l-124 -296h235l9 -18h-252l-91 -218h-26l235 550l-38 87h100l278 -637h-91z" />
    <glyph glyph-name="Adieresis" unicode="&#xc4;" 
d="M206 679q-19 0 -31 12.5t-12 32.5q0 19 12 32t31 13t31.5 -13t12.5 -32q0 -20 -12.5 -32.5t-31.5 -12.5zM322 679q-19 0 -31 12.5t-12 32.5q0 19 12 32t31 13q9 0 17.5 -3.5t14 -9.5t9 -14.5t3.5 -17.5q0 -20 -12.5 -32.5t-31.5 -12.5zM483 1l-235 532l-124 -296h235
l9 -18h-252l-91 -218h-26l235 550l-38 87h100l278 -637h-91z" />
    <glyph glyph-name="Aring" unicode="&#xc5;" 
d="M255 642q-29 0 -49.5 20.5t-20.5 49.5t20.5 49.5t49.5 20.5t50 -20.5t21 -49.5t-21 -49.5t-50 -20.5zM255.5 744q-13.5 0 -23 -9t-9.5 -23q0 -9 4.5 -16t12 -11.5t15.5 -4.5q14 0 23.5 9.5t9.5 23t-9.5 22.5t-23 9zM483 1l-235 532l-124 -296h235l9 -18h-252l-91 -218
h-26l235 550l-38 87h100l278 -637h-91z" />
    <glyph glyph-name="AE" unicode="&#xc6;" horiz-adv-x="705" 
d="M371 358v-338h332v-19h-417v218h-170l-91 -218h-26l273 637l413 -2v-19h-314v-240h243v-19h-243zM286 237v379l-162 -379h162z" />
    <glyph glyph-name="Ccedilla" unicode="&#xc7;" horiz-adv-x="617" 
d="M350 15q29 0 58.5 12t51.5 29.5t40.5 37t29 34.5t12.5 21l60 -21q-23 -33 -53 -59t-62.5 -43t-67.5 -25.5t-69 -8.5h-8h-7l-4 -21q37 -8 52 -40.5t-4 -66.5q-10 -18 -29 -26.5t-38.5 -8t-38 3t-29.5 6.5l-12 4l8 44q4 -2 10 -3.5t22 -5t28.5 -3.5t24.5 5t15 16
q6 24 -14.5 35.5t-46.5 14.5l10 51q-37 7 -68 20q-60 26 -104 71t-69 106t-25 134q0 68 25 126.5t69 101t104 67t131 24.5q47 0 86 -12.5t70.5 -34.5t56 -50.5t41.5 -60.5l-47 -7q-11 22 -29.5 46.5t-43.5 45.5q-26 22 -59 36t-75 14q-52 0 -96.5 -22t-77.5 -62t-51 -94.5
t-18 -117.5q0 -67 18 -125q18 -57 51 -99q32 -42 76 -65.5t96 -23.5z" />
    <glyph glyph-name="Egrave" unicode="&#xc8;" horiz-adv-x="469" 
d="M285 679h-32l-104 118h81zM135 20h332v-19h-417v635h399v-19h-314v-240h242v-19h-242v-338z" />
    <glyph glyph-name="Eacute" unicode="&#xc9;" horiz-adv-x="469" 
d="M376 797l-104 -118h-32l55 118h81zM135 20h332v-19h-417v635h399v-19h-314v-240h242v-19h-242v-338z" />
    <glyph glyph-name="Ecircumflex" unicode="&#xca;" horiz-adv-x="469" 
d="M258 765l-50 -85h-51l73 119h57l73 -119h-52zM135 20h332v-19h-417v635h399v-19h-314v-240h242v-19h-242v-338z" />
    <glyph glyph-name="Edieresis" unicode="&#xcb;" horiz-adv-x="469" 
d="M200 679q-19 0 -31 12.5t-12 32.5q0 19 12 32t31 13t31.5 -13t12.5 -32q0 -20 -12.5 -32.5t-31.5 -12.5zM315.5 679q-19.5 0 -31.5 12.5t-11 32.5q0 19 12 32t30.5 13t31.5 -13t13 -32q0 -20 -12.5 -32.5t-32 -12.5zM135 20h332v-19h-417v635h399v-19h-314v-240h242v-19
h-242v-338z" />
    <glyph glyph-name="Igrave" unicode="&#xcc;" horiz-adv-x="185" 
d="M122 678h-33l-103 119h80zM49 636h85v-635h-85v635z" />
    <glyph glyph-name="Iacute" unicode="&#xcd;" horiz-adv-x="185" 
d="M194 799l-103 -119h-33l56 119h80zM50 1v635h85v-635h-85z" />
    <glyph glyph-name="Icircumflex" unicode="&#xce;" horiz-adv-x="185" 
d="M121 799l73 -119h-51l-51 85l-50 -85h-51l73 119h57zM50 1v635h85v-635h-85z" />
    <glyph glyph-name="Idieresis" unicode="&#xcf;" horiz-adv-x="185" 
d="M78 723q0 -20 -12.5 -32.5t-31.5 -12.5t-31 12.5t-12 32.5q0 19 12 32t31 13q12 0 22.5 -6t16 -16.5t5.5 -22.5zM150 768q19 0 31.5 -13t12.5 -32q0 -20 -12.5 -32.5t-31.5 -12.5q-13 0 -22.5 5.5t-15 15.5t-5.5 24q0 19 12 32t31 13zM50 1v635h85v-635h-85z" />
    <glyph glyph-name="Ntilde" unicode="&#xd1;" horiz-adv-x="605" 
d="M244 722q-31 0 -53 -31v48q2 2 6.5 6t21 11t36.5 7t51.5 -14.5t49.5 -14.5q11 0 23.5 7t20.5 15l8 7v-46q-17 -14 -29 -18t-37 -4q-16 0 -49 13.5t-49 13.5zM534 636h21v-635h-17l-467 601v-601h-21v635h107l377 -488v488z" />
    <glyph glyph-name="Ograve" unicode="&#xd2;" horiz-adv-x="704" 
d="M379 679h-32l-104 118h81zM656 449q25 -61 25 -132.5t-25 -132t-69 -105t-104 -70t-130.5 -25.5t-131 25.5t-104.5 70t-69 105t-25 132t25 132.5t69 105.5t104.5 70t131 25.5t130.5 -25.5t104 -70t69 -105.5zM579 193q15 57 13.5 124t-18.5 124t-48 98.5t-74.5 65
t-98.5 23.5q-57 1 -102.5 -22t-76 -65t-46.5 -99t-16 -125q0 -65 16 -121.5t46.5 -98t75.5 -65.5q46 -24 103 -25q59 -1 104.5 22t76 65t45.5 99z" />
    <glyph glyph-name="Oacute" unicode="&#xd3;" horiz-adv-x="704" 
d="M462 797l-103 -118h-33l56 118h80zM656 449q25 -61 25 -132.5t-25 -132t-69 -105t-104 -70t-130.5 -25.5t-131 25.5t-104.5 70t-69 105t-25 132t25 132.5t69 105.5t104.5 70t131 25.5t130.5 -25.5t104 -70t69 -105.5zM579 193q15 57 13.5 124t-18.5 124t-48 98.5
t-74.5 65t-98.5 23.5q-57 1 -102.5 -22t-76 -65t-46.5 -99t-16 -125q0 -65 16 -121.5t46.5 -98t75.5 -65.5q46 -24 103 -25q59 -1 104.5 22t76 65t45.5 99z" />
    <glyph glyph-name="Ocircumflex" unicode="&#xd4;" horiz-adv-x="704" 
d="M349 764l-50 -85h-51l73 119h57l73 -119h-51zM656 449q25 -61 25 -132.5t-25 -132t-69 -105t-104 -70t-130.5 -25.5t-131 25.5t-104.5 70t-69 105t-25 132t25 132.5t69 105.5t104.5 70t131 25.5t130.5 -25.5t104 -70t69 -105.5zM579 193q15 57 13.5 124t-18.5 124
t-48 98.5t-74.5 65t-98.5 23.5q-57 1 -102.5 -22t-76 -65t-46.5 -99t-16 -125q0 -65 16 -121.5t46.5 -98t75.5 -65.5q46 -24 103 -25q59 -1 104.5 22t76 65t45.5 99z" />
    <glyph glyph-name="Otilde" unicode="&#xd5;" horiz-adv-x="704" 
d="M298 722q-31 0 -53 -31v48q3 2 7 6t20.5 11t36.5 7q17 0 34.5 -7.5t34.5 -14.5t33 -7q10 0 23 7t21 15l7 7v-46q-16 -14 -28 -18t-37 -4q-16 0 -49.5 13.5t-49.5 13.5zM656 449q25 -61 25 -132.5t-25 -132t-69 -105t-104 -70t-130.5 -25.5t-131 25.5t-104.5 70t-69 105
t-25 132t25 132.5t69 105.5t104.5 70t131 25.5t130.5 -25.5t104 -70t69 -105.5zM579 193q15 57 13.5 124t-18.5 124t-48 98.5t-74.5 65t-98.5 23.5q-57 1 -102.5 -22t-76 -65t-46.5 -99t-16 -125q0 -65 16 -121.5t46.5 -98t75.5 -65.5q46 -24 103 -25q59 -1 104.5 22t76 65
t45.5 99z" />
    <glyph glyph-name="Odieresis" unicode="&#xd6;" horiz-adv-x="704" 
d="M293 679q-19 0 -31 12.5t-12 32.5q0 19 12 32t31 13q12 0 22 -6t16 -16.5t6 -22.5q0 -20 -12.5 -32.5t-31.5 -12.5zM408.5 679q-19.5 0 -31.5 12.5t-12 32.5q0 19 12.5 32t30.5 13q13 0 23 -6t16 -16.5t6 -22.5q0 -20 -12.5 -32.5t-32 -12.5zM656 449q25 -61 25 -132.5
t-25 -132t-69 -105t-104 -70t-130.5 -25.5t-131 25.5t-104.5 70t-69 105t-25 132t25 132.5t69 105.5t104.5 70t131 25.5t130.5 -25.5t104 -70t69 -105.5zM579 193q15 57 13.5 124t-18.5 124t-48 98.5t-74.5 65t-98.5 23.5q-57 1 -102.5 -22t-76 -65t-46.5 -99t-16 -125
q0 -65 16 -121.5t46.5 -98t75.5 -65.5q46 -24 103 -25q59 -1 104.5 22t76 65t45.5 99z" />
    <glyph glyph-name="multiply" unicode="&#xd7;" horiz-adv-x="393" 
d="M359 375l-125 -124l113 -113l-24 -24l-112 113l-128 -127l-49 49l127 128l-112 112l23 24l113 -113l124 125z" />
    <glyph glyph-name="Oslash" unicode="&#xd8;" horiz-adv-x="710" 
d="M659 452q25 -61 25 -132.5t-25 -132t-69 -105.5t-104 -70t-130.5 -25t-130.5 25q-44 18 -79 47l-68 -75l-27 24l68 75q-43 45 -68 104q-25 61 -25 132.5t25 132.5t69 105.5t104.5 70t131 25.5t130.5 -25q43 -18 78 -47l68 76l26 -24l-67 -76q43 -45 68 -105zM131 198
q9 -33 29 -69l369 413q-31 42 -74.5 65.5t-98.5 23.5q-57 1 -102.5 -22.5t-76 -65t-47 -98.5t-16.5 -125q0 -66 17 -122zM582 195.5q15 57.5 13.5 124.5t-18.5 124q-10 32 -29 66l-368 -413q30 -39 73 -62q46 -25 103 -25q59 -1 104.5 22t76 64.5t45.5 99z" />
    <glyph glyph-name="Ugrave" unicode="&#xd9;" horiz-adv-x="586" 
d="M335 679h-32l-103 118h80zM517 637h27v-393q-1 -53 -18.5 -98.5t-49.5 -78.5t-76 -52t-97 -19q-58 0 -106 17.5t-82.5 48.5t-53.5 72.5t-19 90.5v412h86v-401q0 -46 10 -84t31.5 -65t54.5 -42t79 -15q48 0 87.5 16t67.5 44t43 67q16 39 16 88v392z" />
    <glyph glyph-name="Uacute" unicode="&#xda;" horiz-adv-x="586" 
d="M397 797l-104 -118h-32l55 118h81zM517 637h27v-393q-1 -53 -18.5 -98.5t-49.5 -78.5t-76 -52t-97 -19q-58 0 -106 17.5t-82.5 48.5t-53.5 72.5t-19 90.5v412h86v-401q0 -46 10 -84t31.5 -65t54.5 -42t79 -15q48 0 87.5 16t67.5 44t43 67q16 39 16 88v392z" />
    <glyph glyph-name="Ucircumflex" unicode="&#xdb;" horiz-adv-x="586" 
d="M299 772l-51 -85h-51l73 119h57l73 -119h-51zM517 637h27v-393q-1 -53 -18.5 -98.5t-49.5 -78.5t-76 -52t-97 -19q-58 0 -106 17.5t-82.5 48.5t-53.5 72.5t-19 90.5v412h86v-401q0 -46 10 -84t31.5 -65t54.5 -42t79 -15q48 0 87.5 16t67.5 44t43 67q16 40 16 88v392z" />
    <glyph glyph-name="Udieresis" unicode="&#xdc;" horiz-adv-x="586" 
d="M234 686q-19 0 -31 12.5t-12 32.5q0 19 12 32t31 13q12 0 22.5 -6t16 -16.5t5.5 -22.5q0 -20 -12.5 -32.5t-31.5 -12.5zM350 686q-19 0 -31 12.5t-12 32.5q0 19 12 32t31 13q12 0 22 -6t16 -16.5t6 -22.5q0 -20 -12.5 -32.5t-31.5 -12.5zM517 637h27v-393
q-1 -53 -18.5 -98.5t-49.5 -78.5t-76 -52t-97 -19q-58 0 -106 17.5t-82.5 48.5t-53.5 72.5t-19 90.5v412h86v-401q0 -46 10 -84t31.5 -65t54.5 -42t79 -15q48 0 87.5 16t67.5 44t43 67q16 40 16 88v392z" />
    <glyph glyph-name="Yacute" unicode="&#xdd;" horiz-adv-x="516" 
d="M399 805l-103 -119h-32l55 119h80zM520 636l-211 -383l1 -250h-85v241l-230 392h98l206 -353l194 353h27z" />
    <glyph glyph-name="germandbls" unicode="&#xdf;" horiz-adv-x="534" 
d="M328 356q43 0 85.5 -25.5t69.5 -66.5t30.5 -93t-31.5 -106q-26 -39 -69.5 -55.5t-85.5 -10.5t-78.5 27.5t-52.5 53.5l22 10.5t45 21.5l22 10q38 -50 91.5 -68t81.5 19q17 28 13.5 59t-27.5 60t-55.5 51t-70.5 31.5t-72 1.5l-34 32q39 68 82 147q26 50 24 89.5t-26 63
t-61 23.5q-55 0 -73.5 -45t-18.5 -148l1 -430l-94 -1q-1 229 -1 282v159q0 96 50 149t132 53q45 0 84.5 -19t63 -58.5t13.5 -89.5q-9 -48 -60 -127z" />
    <glyph glyph-name="agrave" unicode="&#xe0;" horiz-adv-x="529" 
d="M273 524h-32l-104 119h81zM404 407q44 -38 67.5 -91.5t23.5 -113.5v-194h-78v76q-22 -39 -62 -60.5t-94 -21.5q-52 0 -94 16.5t-73 46t-49 69.5t-21 86v19q3 51 22.5 92t50.5 69.5t73.5 44t90.5 15.5q80 0 143 -53zM417 168v120q0 48 -25 82.5t-59 49t-72 14.5
q-36 0 -65 -14.5t-49.5 -41t-32 -64.5t-11.5 -85q1 -94 43 -147.5t115 -53.5q67 0 110 36.5t46 103.5z" />
    <glyph glyph-name="aacute" unicode="&#xe1;" horiz-adv-x="529" 
d="M395 643l-103 -119h-32l55 119h80zM404 407q44 -38 67.5 -91.5t23.5 -113.5v-194h-78v76q-22 -39 -62 -60.5t-94 -21.5q-52 0 -94 16.5t-73 46t-49 69.5t-21 86v19q3 51 22.5 92t50.5 69.5t73.5 44t90.5 15.5q80 0 143 -53zM417 168v120q0 48 -25 82.5t-59 49t-72 14.5
q-36 0 -65 -14.5t-49.5 -41t-32 -64.5t-11.5 -85q1 -94 43 -147.5t115 -53.5q67 0 110 36.5t46 103.5z" />
    <glyph glyph-name="acircumflex" unicode="&#xe2;" horiz-adv-x="529" 
d="M265 609l-50 -85h-51l73 119h57l73 -119h-51zM404 407q44 -38 67.5 -91.5t23.5 -113.5v-194h-78v76q-22 -39 -62 -60.5t-94 -21.5q-52 0 -94 16.5t-73 46t-49 69.5t-21 86v19q3 51 22.5 92t50.5 69.5t73.5 44t90.5 15.5q80 0 143 -53zM417 168v120q0 48 -25 82.5t-59 49
t-72 14.5q-36 0 -65 -14.5t-49.5 -41t-32 -64.5t-11.5 -85q1 -94 43 -147.5t115 -53.5q67 0 110 36.5t46 103.5z" />
    <glyph glyph-name="atilde" unicode="&#xe3;" horiz-adv-x="529" 
d="M239 568q-14 0 -27 -8t-20 -16l-6 -7v47l7 7t20.5 10.5t36.5 6.5q21 0 52 -14t50 -14q10 0 23 7t21 14l7 7v-45q-16 -15 -28 -18.5t-37 -3.5q-16 -1 -49.5 13t-49.5 14zM404 407q30 -25 50.5 -58t30.5 -70.5t10 -76.5v-194h-78v76q-22 -39 -62 -60.5t-94 -21.5
q-52 0 -94 16.5t-73 46t-49 69.5t-21 86v19q3 51 22.5 92t50.5 69.5t73.5 44t90.5 15.5q80 0 143 -53zM417 168v120q0 48 -25 82.5t-59 49t-72 14.5q-36 0 -65 -14.5t-49.5 -41t-32 -64.5t-11.5 -85q1 -94 43 -147.5t115 -53.5q67 0 110 36.5t46 103.5z" />
    <glyph glyph-name="adieresis" unicode="&#xe4;" horiz-adv-x="529" 
d="M205 524q-19 0 -31 12.5t-12 32.5t12 32.5t31 12.5t31.5 -13t12.5 -32q0 -20 -12.5 -32.5t-31.5 -12.5zM321 524q-19 0 -31 12.5t-12 32.5t12 32.5t31 12.5q9 0 17 -3.5t14 -9.5t9.5 -14t3.5 -18q0 -20 -12.5 -32.5t-31.5 -12.5zM404 407q44 -38 67.5 -91.5t23.5 -113.5
v-194h-78v76q-22 -39 -62 -60.5t-94 -21.5q-52 0 -94 16.5t-73 46t-49 69.5t-21 86v19q3 51 22.5 92t50.5 69.5t73.5 44t90.5 15.5q80 0 143 -53zM417 168v120q0 48 -25 82.5t-59 49t-72 14.5q-36 0 -65 -14.5t-49.5 -41t-32 -64.5t-11.5 -85q1 -94 43 -147.5t115 -53.5
q67 0 110 36.5t46 103.5z" />
    <glyph glyph-name="aring" unicode="&#xe5;" horiz-adv-x="529" 
d="M260 487q-14 0 -27 6t-22.5 15t-15 22t-5.5 28q0 29 20.5 49.5t49.5 20.5t49.5 -20.5t20.5 -49.5t-20.5 -50t-49.5 -21zM260 590q-13 0 -22.5 -9.5t-9.5 -23t9.5 -23t22.5 -9.5t22.5 9.5t9.5 23.5q0 8 -4 15.5t-11.5 12t-16.5 4.5zM404 407q30 -25 50.5 -58t30.5 -70.5
t10 -76.5v-194h-78v76q-22 -39 -62 -60.5t-94 -21.5q-52 0 -94 16.5t-73 46t-49 69.5t-21 86v19q3 51 22.5 92t50.5 69.5t73.5 44t90.5 15.5q80 0 143 -53zM417 168v120q0 48 -25 82.5t-59 49t-72 14.5q-36 0 -65 -14.5t-49.5 -41t-32 -64.5t-11.5 -85q1 -94 43 -147.5
t115 -53.5q67 0 110 36.5t46 103.5z" />
    <glyph glyph-name="ae" unicode="&#xe6;" horiz-adv-x="919" 
d="M665 20q35 0 68 15.5t54 37.5t33 38t16 25l49 -6q-13 -30 -36.5 -54.5t-53 -42.5t-63 -28t-67.5 -10q-53 0 -98 18q-39 14 -72 43v-48h-78v76q-22 -39 -62 -60.5t-94 -21.5q-52 0 -94 16.5t-73 46t-49 69.5t-21 86v19q3 51 22.5 92t50.5 69.5t73.5 44t90.5 15.5
q80 0 143 -53q27 -23 48 -55q16 27 34 44q33 30 77.5 47.5t96.5 17.5q49 0 92 -16t74.5 -45.5t49.5 -69.5q20 -43 20 -97h-398v-5q-1 -43 9.5 -81t31.5 -66.5t52.5 -44.5t73.5 -16zM517 331q-13 -33 -17 -74h313q-2 40 -13 73.5t-30.5 57.5t-47 37.5t-62.5 13.5t-63 -13
t-48 -37t-32 -58zM417 168v120q0 48 -25 82.5t-59 49t-72 14.5q-36 0 -65 -14.5t-49.5 -41t-32 -64.5t-11.5 -85q1 -94 43 -147.5t115 -53.5q67 0 110 36.5t46 103.5z" />
    <glyph glyph-name="ccedilla" unicode="&#xe7;" horiz-adv-x="483" 
d="M262 25q86 0 152 83l49 -16q-30 -46 -83 -71.5t-118 -25.5h-2.5h-2.5l-4 -17q38 -8 53 -40.5t-4 -66.5q-11 -18 -29.5 -26.5t-38.5 -8t-38 3t-30 6.5l-11 4l8 44l9 -3t22 -5t29 -3.5t25 4.5t14 16q6 24 -14 36t-47 15l9 46q-23 5 -43 13q-43 18 -75 49t-50 73.5t-18 90.5
t18.5 91t50.5 74.5t76 49.5t95 18q70 0 123.5 -30t78.5 -85l-41 -8q-7 13 -19 26.5t-31.5 28.5t-48.5 25t-62 10q-34 0 -63.5 -15.5t-51 -42.5t-33.5 -63.5t-12 -79t12 -79.5t33 -64t50 -42t63 -15z" />
    <glyph glyph-name="egrave" unicode="&#xe8;" horiz-adv-x="526" 
d="M290 524h-32l-104 119h81zM272 20q35 0 68 15.5t54 37.5t33 38t16 25l49 -6q-13 -30 -36.5 -54.5t-53 -42.5t-63 -28t-67.5 -10q-53 0 -98.5 17.5t-79 49t-52 74t-18.5 92.5q0 52 18.5 94.5t51 73t76.5 48t97 17.5q49 0 91.5 -16t74.5 -45.5t50 -69.5q20 -43 19 -97h-397
v-5q-1 -43 9.5 -81t31.5 -66.5t52.5 -44.5t73.5 -16zM124 331q-13 -33 -17 -74h313q-2 40 -13 73.5t-30.5 57.5t-47 37.5t-62.5 13.5t-63 -13t-48 -37t-32 -58z" />
    <glyph glyph-name="eacute" unicode="&#xe9;" horiz-adv-x="526" 
d="M380 643l-103 -119h-32l55 119h80zM272 20q35 0 68 15.5t54 37.5t33 38t16 25l49 -6q-13 -30 -36.5 -54.5t-53 -42.5t-63 -28t-67.5 -10q-53 0 -98.5 17.5t-79 49t-52 74t-18.5 92.5q0 52 18.5 94.5t51 73t76.5 48t97 17.5q49 0 91.5 -16t74.5 -45.5t50 -69.5
q20 -43 19 -97h-397v-5q-1 -43 9.5 -81t31.5 -66.5t52.5 -44.5t73.5 -16zM124 331q-13 -33 -17 -74h313q-2 40 -13 73.5t-30.5 57.5t-47 37.5t-62.5 13.5t-63 -13t-48 -37t-32 -58z" />
    <glyph glyph-name="ecircumflex" unicode="&#xea;" horiz-adv-x="526" 
d="M263 610l-50 -85h-51l73 119h57l73 -119h-52zM272 20q29 0 56 11t46 25.5t35 32.5t23.5 29.5t10.5 17.5l49 -6q-13 -30 -36.5 -54.5t-53 -42.5t-63 -28t-67.5 -10q-53 0 -98.5 17.5t-79 49t-52 74t-18.5 92.5q0 52 18.5 94.5t51 73t76.5 48t97 17.5q49 0 91.5 -16
t74.5 -45.5t50 -69.5q20 -43 19 -97h-397v-5q-1 -43 9.5 -81t31.5 -66.5t52.5 -44.5t73.5 -16zM124 331q-13 -33 -17 -74h313q-2 40 -13 73.5t-30.5 57.5t-47 37.5t-62.5 13.5t-63 -13t-48 -37t-32 -58z" />
    <glyph glyph-name="edieresis" unicode="&#xeb;" horiz-adv-x="526" 
d="M205 524q-19 0 -31 12.5t-12 32.5t12 32.5t31 12.5t31.5 -13t12.5 -32q0 -20 -12.5 -32.5t-31.5 -12.5zM320.5 524q-19.5 0 -31 12.5t-11.5 32.5t12 32.5t30 12.5q10 0 18 -3.5t14 -9.5t9.5 -14t3.5 -18q0 -20 -12.5 -32.5t-32 -12.5zM272 20q29 0 56 11t46 25.5t35 32.5
t23.5 29.5t10.5 17.5l49 -6q-13 -30 -36.5 -54.5t-53 -42.5t-63 -28t-67.5 -10q-53 0 -98.5 17.5t-79 49t-52 74t-18.5 92.5q0 52 18.5 94.5t51 73t76.5 48t97 17.5q49 0 91.5 -16t74.5 -45.5t50 -69.5q20 -43 19 -97h-397v-5q-1 -43 9.5 -81t31.5 -66.5t52.5 -44.5
t73.5 -16zM124 331q-13 -33 -17 -74h313q-2 40 -13 73.5t-30.5 57.5t-47 37.5t-62.5 13.5t-63 -13t-48 -37t-32 -58z" />
    <glyph glyph-name="igrave" unicode="&#xec;" horiz-adv-x="166" 
d="M113 524h-33l-103 118h80zM43 403l78 49v-444h-78v395z" />
    <glyph glyph-name="iacute" unicode="&#xed;" horiz-adv-x="165" 
d="M184 644l-103 -118h-33l56 118h80zM43 8v395l78 49v-444h-78z" />
    <glyph glyph-name="icircumflex" unicode="&#xee;" horiz-adv-x="165" 
d="M111 644l73 -119h-51l-51 85l-50 -85h-51l73 119h57zM43 8v395l78 49v-444h-78z" />
    <glyph glyph-name="idieresis" unicode="&#xef;" horiz-adv-x="165" 
d="M67 568q0 -13 -5.5 -23.5t-16 -16t-22.5 -5.5q-19 0 -31 12.5t-12 32.5q0 19 12 32t31 13t31.5 -13t12.5 -32zM139 613q19 0 31.5 -13t12.5 -32q0 -20 -12.5 -32.5t-31.5 -12.5t-31 12.5t-12 32.5q0 19 12 32t31 13zM43 8v395l78 49v-444h-78z" />
    <glyph glyph-name="ntilde" unicode="&#xf1;" horiz-adv-x="504" 
d="M198 567q-31 0 -52 -31v48q2 2 6.5 6t21 11t35.5 7q21 0 52 -14.5t50 -14.5q10 0 23 7t21 15l8 7v-45q-17 -15 -29 -19t-37 -4q-16 0 -49.5 13.5t-49.5 13.5zM271 453q98 0 146.5 -48.5t48.5 -119.5v-277h-79v252q0 159 -116 159q-28 0 -53 -10t-42.5 -25t-30.5 -33
t-19 -34t-6 -26v-283h-78v395l78 50v-84q6 11 19 24.5t32 27.5t45.5 23t54.5 9z" />
    <glyph glyph-name="ograve" unicode="&#xf2;" horiz-adv-x="553" 
d="M307 524h-33l-103 119h80zM509.5 320q18.5 -42 18.5 -91.5t-18.5 -92t-52 -73t-79.5 -47.5t-101 -17t-101.5 17t-80.5 47.5t-52.5 73t-18.5 92t18.5 91.5t52.5 72.5t80.5 48t101.5 17.5t101 -17.5t79.5 -48t52 -72.5zM438.5 145q10.5 38 9.5 83q-1 44 -13 82t-33 65.5
t-52.5 43t-72.5 15.5q-42 0 -74.5 -14.5t-54 -42t-32.5 -66t-11 -83.5q0 -44 11 -81t32.5 -64.5t53.5 -43t75 -16.5q44 -1 76.5 14t53.5 42.5t31.5 65.5z" />
    <glyph glyph-name="oacute" unicode="&#xf3;" horiz-adv-x="553" 
d="M386 643l-103 -119h-32l55 119h80zM510 320q18 -42 18 -91.5t-18.5 -92t-52 -73t-79.5 -47.5t-101 -17t-101.5 17t-80.5 47.5t-52.5 73t-18.5 92t18.5 91.5t52.5 72.5t80.5 48t101.5 17.5t101 -17.5t79.5 -48t52.5 -72.5zM438.5 145q10.5 38 9.5 83q-1 44 -13 82
t-33 65.5t-52.5 43t-72.5 15.5q-42 0 -74.5 -14.5t-54 -42t-32.5 -66t-11 -83.5q0 -44 11 -81t32.5 -64.5t53.5 -43t75 -16.5q44 -1 76.5 14t53.5 42.5t31.5 65.5z" />
    <glyph glyph-name="ocircumflex" unicode="&#xf4;" horiz-adv-x="553" 
d="M275 610l-50 -85h-51l73 119h57l73 -119h-51zM509.5 320q18.5 -42 18.5 -91.5t-18.5 -92t-52 -73t-79.5 -47.5t-101 -17t-101.5 17t-80.5 47.5t-52.5 73t-18.5 92t18.5 91.5t52.5 72.5t80.5 48t101.5 17.5t101 -17.5t79.5 -48t52 -72.5zM438.5 145q10.5 38 9.5 83
q-1 44 -13 82t-33 65.5t-52.5 43t-72.5 15.5q-42 0 -74.5 -14.5t-54 -42t-32.5 -66t-11 -83.5q0 -44 11 -81t32.5 -64.5t53.5 -43t75 -16.5q44 -1 76.5 14t53.5 42.5t31.5 65.5z" />
    <glyph glyph-name="otilde" unicode="&#xf5;" horiz-adv-x="553" 
d="M221 568q-14 0 -27.5 -8t-19.5 -16l-6 -7v47q2 3 6.5 7t21 10.5t36.5 6.5t51.5 -14t49.5 -14q11 0 24 7t20 14l8 7v-45q-17 -15 -28.5 -18.5t-36.5 -3.5q-17 -1 -50 13t-49 14zM510 320q18 -42 18 -91.5t-18.5 -92t-52 -73t-79.5 -47.5t-101 -17t-101.5 17t-80.5 47.5
t-52.5 73t-18.5 92t18.5 91.5t52.5 72.5t80.5 48t101.5 17.5t101 -17.5t79.5 -48t52.5 -72.5zM438.5 145q10.5 38 9.5 83q-1 44 -13 82t-33 65.5t-52.5 43t-72.5 15.5q-42 0 -74.5 -14.5t-54 -42t-32.5 -66t-11 -83.5q0 -44 11 -81t32.5 -64.5t53.5 -43t75 -16.5
q44 -1 76.5 14t53.5 42.5t31.5 65.5z" />
    <glyph glyph-name="odieresis" unicode="&#xf6;" horiz-adv-x="553" 
d="M218 524q-19 0 -31 12.5t-12 32.5t12 32.5t31 12.5t31.5 -13t12.5 -32q0 -20 -12.5 -32.5t-31.5 -12.5zM334 524q-19 0 -31 12.5t-12 32.5t12 32.5t30.5 12.5t31.5 -13t13 -32q0 -20 -12.5 -32.5t-31.5 -12.5zM509.5 320q18.5 -42 18.5 -91.5t-18.5 -92t-52 -73
t-79.5 -47.5t-101 -17t-101.5 17t-80.5 47.5t-52.5 73t-18.5 92t18.5 91.5t52.5 72.5t80.5 48t101.5 17.5t101 -17.5t79.5 -48t52 -72.5zM438.5 145q10.5 38 9.5 83q-1 44 -13 82t-33 65.5t-52.5 43t-72.5 15.5q-42 0 -74.5 -14.5t-54 -42t-32.5 -66t-11 -83.5q0 -44 11 -81
t32.5 -64.5t53.5 -43t75 -16.5q44 -1 76.5 14t53.5 42.5t31.5 65.5z" />
    <glyph glyph-name="oslash" unicode="&#xf8;" horiz-adv-x="554" 
d="M511 323q19 -42 19 -91.5t-19 -92t-52.5 -73t-79.5 -47.5t-101 -17t-101 17q-10 4 -32 15l-44 -58l-26 19l43 56q-19 13 -22 16q-34 30 -52.5 72.5t-18.5 92t18.5 91.5t52.5 72.5t80.5 48t101.5 17.5t101 -17q9 -4 30 -15l45 58l25 -20l-42 -55q18 -13 22 -16
q33 -31 52 -73zM117 150q10 -34 30 -61l238 308q-17 16 -35 25q-31 15 -72 15q-42 0 -74.5 -14.5t-54 -42t-32.5 -66t-11 -83.5q0 -44 11 -81zM439.5 148q10.5 38 9.5 83t-13 82q-10 33 -29 60l-237 -308q17 -14 33 -22q32 -16 75 -17q44 -1 76.5 14.5t53.5 42.5t31.5 65z
" />
    <glyph glyph-name="ugrave" unicode="&#xf9;" horiz-adv-x="504" 
d="M291 524h-33l-103 119h80zM460 453l-1 -445h-78v85q-13 -27 -55.5 -56t-94.5 -29q-99 0 -147 49t-48 120v226l78 50v-252q0 -159 117 -159q34 0 64 15t48 36.5t28 42.5t10 35v232z" />
    <glyph glyph-name="uacute" unicode="&#xfa;" horiz-adv-x="504" 
d="M374 643l-103 -119h-33l56 119h80zM460 453l-1 -445h-78v85q-13 -27 -55.5 -56t-94.5 -29q-99 0 -147 49t-48 120v226l78 50v-252q0 -159 117 -159q34 0 64 15t48 36.5t28 42.5t10 35v232z" />
    <glyph glyph-name="ucircumflex" unicode="&#xfb;" horiz-adv-x="504" 
d="M248 616l-50 -85h-51l72 119h57l73 -119h-51zM460 454l-1 -446h-78v85q-13 -27 -55.5 -56t-94.5 -29q-99 0 -147 49t-48 120v226l78 51v-1v-252q0 -159 117 -159q34 0 64 15t48 36.5t28 42.5t10 35v232z" />
    <glyph glyph-name="udieresis" unicode="&#xfc;" horiz-adv-x="504" 
d="M198 530q-19 0 -31 12.5t-12 32.5q0 19 12 32t31 13t31.5 -13t12.5 -32q0 -20 -12.5 -32.5t-31.5 -12.5zM314 530q-19 0 -31 12.5t-12 32.5q0 19 12 32t31 13q12 0 22 -6t16 -16t6 -23q0 -20 -12.5 -32.5t-31.5 -12.5zM460 454l-1 -446h-78v85q-13 -27 -55.5 -56
t-94.5 -29q-99 0 -147 49t-48 120v226l78 51v-1v-252q0 -159 117 -159q34 0 64 15.5t48 37t28 42t10 34.5v232z" />
    <glyph glyph-name="yacute" unicode="&#xfd;" horiz-adv-x="505" 
d="M374 649l-104 -119h-32l55 119h81zM460 454v-418q0 -55 -15.5 -97t-44 -71.5t-69 -44.5t-91.5 -15q-47 0 -87.5 19t-67.5 54l13 10q18 -17 36 -26.5t35.5 -14.5t34.5 -7q19 -1 36 -1q74 0 108 49q32 48 32 146v56q-13 -27 -55 -56t-94 -29q-99 0 -147 49t-48 120v226
l78 51v-1v-252q0 -159 117 -159q34 0 64 15t48 36.5t28 42.5t10 35v232z" />
    <glyph glyph-name="ydieresis" unicode="&#xff;" horiz-adv-x="505" 
d="M228 530q-19 0 -31 12.5t-12 32.5q0 19 12.5 32t30.5 13q13 0 23 -6t16 -16t6 -23q0 -20 -13 -32.5t-32 -12.5zM344 530q-19 0 -31 12.5t-12 32.5q0 19 12 32t31 13t31.5 -13t12.5 -32q0 -20 -12.5 -32.5t-31.5 -12.5zM381 403l79 51v-418q0 -55 -15.5 -97t-44 -71.5
t-69 -44.5t-91.5 -15q-47 0 -87.5 19t-67.5 54l13 10q18 -17 36 -26.5t35.5 -14.5t34.5 -7q19 -1 36 -1q74 0 108 49q32 48 32 146v56q-13 -27 -55 -56t-94 -29q-99 0 -147 49t-48 120v226l78 51v-1v-252q0 -159 117 -159q34 0 64 15t48 36.5t28 42.5t10 35v232z" />
    <glyph glyph-name="dotlessi" unicode="&#x131;" horiz-adv-x="166" 
d="M43 402l78 49v-444h-78v395z" />
    <glyph glyph-name="OE" unicode="&#x152;" horiz-adv-x="1016" 
d="M681 358v-338h332v-19h-416v89q-2 -1 -3.5 -3.5t-3.5 -4t-3 -3.5q-44 -44 -104 -69.5t-130.5 -25.5t-131 25.5t-104.5 70t-69 105.5t-25 132t25 132t69 105.5t104.5 70t131 25.5t130.5 -25.5t104 -69.5q2 -2 5.5 -6t4.5 -5v92h398v-19h-314v-240h243v-19h-243zM579 193
q15 57 13.5 124t-18.5 124t-48 98.5t-74.5 65t-98.5 23.5q-57 1 -102.5 -22t-76 -65t-46.5 -99t-16 -125q0 -65 16 -121.5t46.5 -98t75.5 -65.5q46 -24 103 -25q59 -1 104.5 22t76 65t45.5 99z" />
    <glyph glyph-name="oe" unicode="&#x153;" horiz-adv-x="952" 
d="M698 20q35 0 68 15.5t54 37.5t33 38t16 25l49 -6q-13 -30 -36.5 -54.5t-53 -42.5t-63 -28t-67.5 -10q-53 0 -98.5 17.5t-78.5 48.5q-17 16 -32 39q-15 -21 -31 -36q-34 -31 -80 -48t-101 -17t-101.5 17t-80.5 47.5t-52.5 73t-18.5 92t18.5 91.5t52.5 72.5t80.5 48
t101.5 17.5t101 -17.5t80 -47.5q16 -16 30 -35q15 22 31 38q33 30 77.5 47.5t96.5 17.5q49 0 92 -16t74.5 -45.5t49.5 -69.5q20 -43 20 -97h-398v-5q-1 -43 9.5 -81t31.5 -66.5t52.5 -44.5t73.5 -16zM549.5 331.5q-12.5 -33.5 -16.5 -74.5h313q-2 40 -13 73.5t-30.5 57.5
t-47 37.5t-62.5 13.5t-63 -13t-48 -37t-32.5 -57.5zM438.5 145q10.5 38 9.5 83q-1 44 -13 82t-33 65.5t-52.5 43t-72.5 15.5q-42 0 -74.5 -14.5t-54 -42t-32.5 -66t-11 -83.5q0 -44 11 -81t32.5 -64.5t53.5 -43t75 -16.5q44 -1 76.5 14t53.5 42.5t31.5 65.5z" />
    <glyph glyph-name="Scaron" unicode="&#x160;" horiz-adv-x="539" 
d="M299 678h-58l-72 119h51l50 -85l50 85h51zM510.5 224q10.5 -32 6.5 -70q-4 -35 -24.5 -64.5t-53.5 -51t-76.5 -33.5t-93.5 -12q-86 0 -150.5 37t-96.5 89l54 28q34 -50 84.5 -90t108.5 -40q87 0 137.5 34t53.5 87q2 24 -5 41.5t-28 33t-59 29.5t-99 30q-70 18 -118.5 40
t-77 49t-39.5 58q-11 30 -8 66t22.5 66t51.5 52.5t74.5 34.5t90.5 12q76 -2 132 -25.5t99 -76.5l-49 -30q-43 53 -82 79q-41 29 -100 29q-42 0 -77.5 -12.5t-60 -32t-36 -44t-7.5 -48.5q3 -15 11.5 -29.5t30 -29t60.5 -30.5q38 -16 103 -32q66 -17 111 -38q46 -21 73 -47.5
t37.5 -58.5z" />
    <glyph glyph-name="scaron" unicode="&#x161;" horiz-adv-x="446" 
d="M253 526h-57l-73 119h51l50 -85l50 85h52zM380.5 211.5q52.5 -37.5 43.5 -96.5q-4 -28 -22 -50t-45 -37.5t-61.5 -24t-71.5 -8.5q-70 0 -121.5 25.5t-79.5 60.5l5.5 2t14.5 4.5t17.5 5.5t14.5 5l7 1q4 -6 14.5 -16.5t29 -26t45 -26t54.5 -10.5q59 0 97 23.5t42 57.5
q3 19 -3.5 32t-23.5 24q-18 10 -48 19q-31 8 -77 17q-55 10 -91 25q-37 15 -59 34.5t-30 44t-5 54.5q3 22 17 42t38 34.5t57.5 23.5t75.5 9q62 0 107.5 -24t70.5 -58l-42 -19q-20 30 -52.5 53.5t-83.5 23.5q-30 0 -52.5 -6.5t-38 -17.5t-24 -24.5t-11.5 -27.5
q-6 -30 25.5 -54.5t111.5 -39.5q102 -17 154.5 -54.5z" />
    <glyph glyph-name="Ydieresis" unicode="&#x178;" horiz-adv-x="516" 
d="M239 686q-19 0 -31 12.5t-12 32.5q0 19 12 32t31 13t32 -13t13 -32q0 -20 -13 -32.5t-32 -12.5zM355 686q-19 0 -31 12.5t-12 32.5q0 19 12 32t31 13t31.5 -13t12.5 -32q0 -20 -12.5 -32.5t-31.5 -12.5zM520 636l-211 -383l1 -250h-85v241l-230 392h98l206 -353l194 353
h27z" />
    <glyph glyph-name="Zcaron" unicode="&#x17d;" horiz-adv-x="526" 
d="M284 678h-57l-72 119h51l50 -85l50 85h51zM528 637l-424 -616h381v-18h-486l419 615h-371v19h481z" />
    <glyph glyph-name="zcaron" unicode="&#x17e;" horiz-adv-x="435" 
d="M247 526h-57l-73 119h51l50 -85l51 85h51zM434 452l-337 -425h307v-19h-401l332 426h-294v18h393z" />
    <glyph glyph-name="endash" unicode="&#x2013;" horiz-adv-x="458" 
d="M433 200h-408v47h408v-47z" />
    <glyph glyph-name="emdash" unicode="&#x2014;" horiz-adv-x="543" 
d="M516 121h-490v47h490v-47z" />
    <glyph glyph-name="quoteleft" unicode="&#x2018;" horiz-adv-x="180" 
d="M133 464q4 -1 8 -8t4 -17q0 -15 -11.5 -27t-32.5 -12q-15 0 -29.5 8.5t-25.5 28t-11 46.5q0 43 30 72t70 41l10 -23q-62 -29 -62 -67q0 -19 12.5 -27.5t37.5 -14.5z" />
    <glyph glyph-name="quoteright" unicode="&#x2019;" horiz-adv-x="180" 
d="M78 596q24 0 45 -22t21 -61q0 -43 -30 -72t-70 -41l-10 23q63 29 63 67q0 13 -8 21.5t-17 12.5t-25 8q-5 1 -9 8t-4 17q0 15 11.5 27t32.5 12z" />
    <glyph glyph-name="quotesinglbase" unicode="&#x201a;" horiz-adv-x="185" 
d="M79 125q27 0 50 -24t23 -68q0 -46 -33 -78.5t-77 -45.5l-11 25q69 33 69 74q0 21 -14 30.5t-41 16.5q-5 1 -9.5 8.5t-4.5 18.5q0 17 13 30t35 13z" />
    <glyph glyph-name="quotedblleft" unicode="&#x201c;" horiz-adv-x="303" 
d="M145 573q-62 -29 -62 -67q0 -19 12.5 -27.5t37.5 -14.5q1 -1 3.5 -2.5t4.5 -4.5t3 -8t1 -10q0 -15 -11.5 -27t-32.5 -12q-15 0 -29.5 8.5t-25.5 28t-11 46.5q0 29 16 53.5t37.5 38t46.5 21.5zM256 464q4 -1 8 -8t4 -17q0 -15 -11.5 -27t-31.5 -12q-25 0 -46 22t-21 61
q0 43 30.5 72t69.5 41l10 -23q-62 -29 -62 -67q0 -19 12.5 -27.5t37.5 -14.5z" />
    <glyph glyph-name="quotedblright" unicode="&#x201d;" horiz-adv-x="303" 
d="M201 596q15 0 29.5 -8.5t25.5 -28t11 -46.5q0 -43 -30 -72t-70 -41l-10 23q63 29 63 67q0 13 -7.5 21.5t-17 12.5t-25.5 8q-4 1 -8.5 8t-4.5 17q0 15 11.5 27t32.5 12zM78 596q24 0 45 -22t21 -61q0 -43 -30 -72t-70 -41l-10 23q63 29 63 67q0 13 -8 21.5t-17 12.5t-25 8
q-5 1 -9 8t-4 17q0 15 11.5 27t32.5 12z" />
    <glyph glyph-name="quotedblbase" unicode="&#x201e;" horiz-adv-x="321" 
d="M215 125q27 0 50 -24t23 -68q0 -46 -33 -78.5t-77 -45.5l-11 25q69 33 69 74q0 21 -14 30.5t-41 16.5q-5 1 -9.5 8.5t-4.5 18.5t5 20.5t16.5 16t26.5 6.5zM79 125q27 0 50 -24t23 -68q0 -46 -33 -78.5t-77 -45.5l-11 25q69 33 69 74q0 21 -14 30.5t-41 16.5
q-5 1 -9.5 8.5t-4.5 18.5q0 17 13 30t35 13z" />
    <glyph glyph-name="dagger" unicode="&#x2020;" horiz-adv-x="421" 
d="M242 552h154v-63h-154v-580h-65v580h-153v63h153v175h65v-175z" />
    <glyph glyph-name="bullet" unicode="&#x2022;" horiz-adv-x="235" 
d="M116 372q36 0 60 -25t24 -61q0 -38 -24 -62t-60 -24q-24 0 -42.5 11t-29 30.5t-10.5 44.5q0 36 23 61t59 25z" />
    <glyph glyph-name="guilsinglleft" unicode="&#x2039;" horiz-adv-x="254" 
d="M104 284l116 -184h-71l-115 184l116 184h69z" />
    <glyph glyph-name="guilsinglright" unicode="&#x203a;" horiz-adv-x="254" 
d="M105 468l115 -184l-116 -184h-69l115 184l-116 184h71z" />
    <glyph glyph-name="Euro" unicode="&#x20ac;" horiz-adv-x="546" 
d="M255.5 548q-32.5 -40 -50.5 -94q-9 -26 -13 -55h230v-30h-234q-1 -17 -1 -33q0 -17 1 -35h234v-30h-231q5 -31 14 -59q18 -57 50.5 -99.5t76.5 -66t96 -23.5q42 0 87 27v-36l-18 -5q-35 -9 -69 -9q-70 0 -130 25q-60 26 -103.5 71t-68.5 106q-13 32 -20 69h-74v30h70
q-1 17 -1 35q0 17 1 33h-70v30h75q6 34 19 64q25 58 69 101t104 67t131 24q46 0 85 -12v-30l-5 2.5l-5 2.5q-33 15 -75 15q-52 0 -97 -22.5t-77.5 -62.5z" />
    </font>
</defs>
</svg>
