<?xml version="1.0" standalone="no"?>
<!DOCTYPE svg PUBLIC "-//W3C//DTD SVG 1.1//EN" "http://www.w3.org/Graphics/SVG/1.1/DTD/svg11.dtd" >
<svg xmlns="http://www.w3.org/2000/svg" xmlns:xlink="http://www.w3.org/1999/xlink" version="1.1">
<metadata>
Created by FontForge 20170731 at Mon Jun 10 15:16:52 2019
 By Aleksey,,,
Bathilda(c)Subectype. 2019. All Rights Reserved
</metadata>
<defs>
<font id="Bathilda" horiz-adv-x="75" >
  <font-face 
    font-family="Bathilda"
    font-weight="400"
    font-stretch="normal"
    units-per-em="2048"
    panose-1="2 0 5 0 0 0 0 0 0 0"
    ascent="1638"
    descent="-410"
    x-height="287"
    cap-height="1454"
    bbox="-2636 -1454 3151.27 1719.04"
    underline-thickness="150"
    underline-position="-367"
    unicode-range="U+001D-201E"
  />
<missing-glyph 
 />
    <glyph glyph-name=".notdef" 
 />
    <glyph glyph-name=".null" 
 />
    <glyph glyph-name=".null" 
 />
    <glyph glyph-name="nonmarkingreturn" 
 />
    <glyph glyph-name="space" unicode=" " horiz-adv-x="1500" 
 />
    <glyph glyph-name="space" unicode="&#xa0;" horiz-adv-x="1500" 
 />
    <glyph glyph-name="exclam" unicode="!" horiz-adv-x="997" 
d="M1242 1145q10 14 4.5 31t-22.5 28l-7 4q-17 9 -35 8q-19 -3 -27 -17q-44 -65 -111 -174q-130 -211 -226 -389q-58 -107 -95 -185q-46 -97 -76 -174q-71 -193 -44 -274q6 -17 22.5 -27t35.5 -8l7 1q18 3 27 17q9 13 4 31q-20 60 44 222q30 80 74 169q33 70 93 182
q94 175 223 383q58 93 109 172zM608 -104q-16 4 -31.5 -4.5t-20.5 -23.5l-31 -83q-6 -16 1 -29t24 -17l38 -9q16 -4 31 4t21 23l31 84q5 15 -2 28.5t-23 17.5z" />
    <glyph glyph-name="quotedbl" unicode="&#x22;" horiz-adv-x="641" 
d="M554 1166q8 15 0.5 33.5t-25.5 29.5l-7 4q-17 11 -36 9q-19 -3 -26 -18q-45 -87 -93 -188q-26 -41 -5 -83q18 -34 49 -27q29 6 51 54q55 115 92 186zM744 1166q8 15 0.5 33.5t-25.5 29.5l-7 4q-18 11 -36 9q-19 -3 -26 -18q-11 -20 -93 -188q-26 -41 -4 -83
q18 -34 48 -27q29 6 51 54q55 115 92 186z" />
    <glyph glyph-name="numbersign" unicode="#" horiz-adv-x="1636" 
d="M235 451q-134 -10 -201 -17q-15 -1 -26 -18q-9 -16 -6 -37l1 -8q3 -21 16 -34t29 -12q100 11 199 18q65 5 195 13q-1 -5 -5 -15q-30 -86 -58 -188q-18 -66 -28 -143q-11 -86 11 -151q7 -18 26 -29q16 -10 36 -9l7 2q17 3 25 17q8 16 1 34q-15 47 -3 121q12 73 24 117
q26 95 57 182q4 11 12 33.5t12 33.5q41 1 121 3q51 1 151 -1q-25 -75 -44 -148q-18 -66 -28 -143q-12 -83 11 -151q8 -18 26 -29q17 -11 35 -8l7 1q19 3 26 18q8 15 0 33q-15 49 -2 122q12 74 24 117q27 96 57 181l1 1v2q80 -6 118 -11q37 -4 113 -20q71 -17 105 -47
q13 -13 29 -12t26 17l4 6q9 16 7 37q-3 21 -16 34q-49 46 -127 66q-81 20 -137 26q-41 6 -83 9q27 70 34 88q49 115 64 150h17q104 -2 209 -12q55 -5 129 -19q81 -17 120 -47q16 -13 34 -12q20 2 30 18l4 6q11 17 8 37q-3 21 -18 34q-58 46 -146 65q-84 19 -157 25
q-92 9 -182 12q48 104 73 155q42 89 92 185q7 16 0 34q-8 18 -25 29l-7 4q-18 10 -36 9q-19 -3 -26 -18q-45 -87 -93 -188q-49 -103 -96 -207q-100 0 -150 -1l-111 -3q14 31 44 93q38 79 92 186q8 15 0 33t-25 30l-7 4q-18 10 -36 9q-17 -3 -25 -18q-32 -62 -94 -188
q-40 -81 -72 -154q-150 -7 -270 -16q-80 -5 -232 -19q-19 -2 -29 -18q-11 -17 -8 -36l2 -9q3 -21 18 -33q15 -13 34 -12q152 14 228 19q138 10 207 13q-22 -50 -64 -152q-16 -39 -29 -73q-138 -7 -249 -16zM868 703q32 1 96 1q-15 -34 -43 -102q-27 -64 -51 -132
q-110 3 -196 2l-72 -1l8 18q38 91 89 209q115 4 169 5z" />
    <glyph glyph-name="dollar" unicode="$" horiz-adv-x="1216" 
d="M1052 756q8 44 12 114q7 132 -19 235q-22 86 -66 145q-56 78 -145 109q13 37 41 109q8 22 2.5 45.5t-21.5 34.5l-7 5q-18 11 -34 4q-18 -7 -26 -30q-38 -98 -56 -147h-12q-68 3 -142 -15q-67 -15 -145 -48q-134 -59 -227 -143q-96 -85 -130 -183q-41 -113 13 -224
q77 -155 340 -273q-34 -114 -44 -149q-43 -155 -70 -271q-10 -41 -21 -103q-30 0 -67 5q-80 14 -107 63q-14 25 -14 65q0 22 -15 37q-14 15 -37 16h-2q-22 0 -37 -15t-16 -37q0 -69 27 -116q50 -95 183 -118q33 -6 68 -6q-16 -129 1 -197q6 -23 22.5 -34t33.5 -4l8 3
q17 8 26 31q8 22 2 45q-11 51 6 161q37 4 80 14q108 23 215.5 71.5t183.5 113.5q89 76 93 161q1 38 -16 75q-19 40 -54 74q-58 57 -168 111q-66 32 -156 68q1 5 4 14.5t5 14.5q91 283 209 606l24 66q108 -38 144 -182q18 -69 18 -155q0 -75 -12 -147q-4 -20 8 -39
q11 -17 34 -22h2q21 -4 39 8.5t22 33.5zM694 1274q-2 -5 -5 -13.5t-4 -12.5q-117 -321 -211 -614q-2 -6 -6 -18.5t-6 -18.5q-219 100 -276 217q-33 67 -9 142q25 69 102 139q83 74 195 123q67 28 124 42q48 13 96 14zM396 -19q5 24 14 60q26 116 68 262q22 80 45 152
q69 -25 135 -57q42 -21 81 -45q43 -28 65 -50q39 -39 37 -72q-2 -38 -55 -81q-64 -56 -160 -98.5t-191 -63.5q-6 -1 -19 -3.5t-20 -3.5z" />
    <glyph glyph-name="percent" unicode="%" horiz-adv-x="1157" 
d="M1128 1319q16 17 15 41t-18 41l-7 7q-16 16 -40 16q-24 -2 -38 -19q-64 -73 -188 -223q-224 -271 -394 -498q-104 -142 -172 -240q-91 -134 -146 -228q-146 -249 -140 -367q2 -24 19 -40t39 -15h10q24 2 38 19q15 18 13 42q-4 81 124 297q59 100 142 220q69 102 169 235
q168 225 389 492q61 74 185 220zM230 920q44 -17 86 -14.5t82.5 16t74.5 40.5t62 59.5t44 73.5t21 81.5t-6.5 84.5t-39.5 82q-40 56 -101.5 75.5t-125.5 5.5q-66 -13 -116 -51.5t-76.5 -88t-35 -106.5t3.5 -108t45 -92t82 -58zM470 1288q22 -39 24.5 -81t-12.5 -77
t-39.5 -66t-55.5 -47.5t-62.5 -23t-59.5 9.5q-83 43 -69 138q11 79 75 139q69 65 137 48q35 -9 62 -40zM586 -135q44 -17 86 -14.5t82.5 16t74.5 40.5t62 59.5t44 73.5t21 81.5t-6.5 84.5t-39.5 82q-40 55 -101 74.5t-126 6.5q-66 -13 -116 -51.5t-76.5 -88t-35 -106.5
t3.5 -108t45 -92t82 -58zM826 233q22 -39 24.5 -81t-12.5 -77t-39 -66t-55.5 -47.5t-62.5 -23t-59 9.5q-84 43 -70 138q11 79 75 139q69 65 137 48q35 -9 62 -40z" />
    <glyph glyph-name="ampersand" unicode="&#x26;" horiz-adv-x="1224" 
d="M625 -54q99 -75 225 -122q83 -28 130 -36q22 -4 41 7q20 11 24 31l1 2q4 19 -8.5 36t-34.5 21q-44 7 -108 30q-89 33 -159 79q111 62 182 146q65 75 87 155q22 92 -24 147q-60 74 -200 55q-22 -3 -35.5 -19t-9.5 -36v-3q3 -18 22 -31q18 -12 41 -9q70 11 90 -14
q17 -22 6 -68q-15 -58 -68 -118q-72 -84 -180 -135q-160 153 -163 389q91 52 106 61q150 86 190 113q215 142 341 257q168 154 180 260q7 54 -15 98.5t-72 71.5q-62 34 -151 31q-86 -3 -176 -39q-166 -68 -292 -219q-144 -173 -201 -426q-16 -76 -21 -154
q-104 -61 -179 -114q-105 -73 -143 -123t-48 -100q-12 -63 19 -118q28 -49 88 -85q68 -38 154 -51q189 -29 361 30zM537 24q-121 -31 -253 -11q-64 10 -111 37q-36 22 -50 47q-15 26 -9 56q7 29 31 62q33 43 119 100q32 23 111 73q20 -212 162 -364zM493 577q2 11 6 32.5
t6 32.5q52 231 181 387q109 131 249 187q70 27 132 30q55 2 87 -16q42 -23 35 -75q-9 -73 -150 -203q-118 -108 -327 -246q-35 -23 -184 -109q-18 -12 -35 -20z" />
    <glyph glyph-name="quotesingle" unicode="'" horiz-adv-x="246" 
d="M199 1160q8 15 1 33.5t-25 29.5l-7 4q-18 11 -36 9q-19 -3 -26 -18q-45 -87 -93 -188q-26 -41 -5 -83q18 -34 49 -27q29 6 51 54q34 74 91 186z" />
    <glyph glyph-name="parenleft" unicode="(" horiz-adv-x="621" 
d="M618 1387q22 1 38 17.5t15 39.5t-17.5 38.5t-38.5 14.5q-131 -5 -266 -134q-145 -140 -235 -376q-105 -272 -115 -633q-11 -413 108 -907q5 -22 24.5 -34t41.5 -7q22 6 34 25t7 41q-116 480 -105 879q8 338 107 597q80 212 209 336q105 100 193 103z" />
    <glyph glyph-name="parenright" unicode=")" horiz-adv-x="683" 
d="M51 -435q-22 -1 -37 -17t-14 -38t17 -37t38 -14q128 4 258 130q142 137 230 367q103 269 111 616q11 402 -105 884q-5 21 -24 32.5t-40 6.5q-22 -5 -33.5 -24t-6.5 -40q113 -467 103 -856q-8 -328 -105 -581q-80 -209 -204 -328q-102 -97 -188 -101z" />
    <glyph glyph-name="asterisk" unicode="*" horiz-adv-x="358" 
d="M1 1184q-4 -21 16 -35q51 -32 87 -52q-53 -35 -86 -53q-14 -11 -17 -24q-3 -14 6 -26q7 -13 22 -16q29 -6 126 69q34 -57 59 -107q9 -17 24 -20q17 -2 27 6q13 7 16 22q3 18 -23 67q-20 39 -39 62q78 -5 99 -5q30 0 36 28q3 14 -4 27q-7 12 -22 15q-20 3 -118 9
q2 12 5.5 35t5.5 31q3 14 -5 27q-8 12 -23 14q-15 3 -26 -4q-12 -9 -15 -23q-5 -22 -12 -76q-90 58 -97 59q-14 3 -27 -7q-12 -9 -15 -23z" />
    <glyph glyph-name="plus" unicode="+" horiz-adv-x="789" 
d="M679 249q19 66 -96 66q-3 0 -43 -2q-38 -2 -43 -2l-53 3l24 80q1 3 6 16.5t8 23.5q11 28 14 38q9 26 -5 43q-14 18 -40 18q-25 0 -42 -13q-18 -12 -33 -38q-14 -27 -33 -89l-25 -82q-73 -5 -122 -5q-58 0 -71 -4q-43 -11 -56 -57q-10 -32 12.5 -48.5t77.5 -16.5
q25 0 122 5l-24 -81l-24 -82q-9 -33 2 -47q10 -16 42 -16q63 0 82 63l49 166q27 -2 71 0l70 1q15 0 26 -2q15 -3 24 -3q27 0 49 19q24 21 31 46z" />
    <glyph glyph-name="comma" unicode="," horiz-adv-x="382" 
d="M138 -152q22 38 10.5 79.5t-54.5 49.5q-62 11 -106 -35q-35 -38 -23 -74q13 -33 66 -37q-84 -171 -47 -168q27 2 87 80q40 53 67 105z" />
    <glyph glyph-name="hyphen" unicode="-" horiz-adv-x="1360" 
d="M1522 198q25 -1 45 16.5t24 43.5l1 11q3 26 -12 44q-13 17 -40 19q-154 3 -311 3q-67 6 -109 -35q-35 -33 -16 -64q22 -37 111 -35q154 0 307 -3z" />
    <glyph glyph-name="hyphen" unicode="&#xad;" horiz-adv-x="1360" 
d="M1522 198q25 -1 45 16.5t24 43.5l1 11q3 26 -12 44q-13 17 -40 19q-154 3 -311 3q-67 6 -109 -35q-35 -33 -16 -64q22 -37 111 -35q154 0 307 -3z" />
    <glyph glyph-name="period" unicode="." horiz-adv-x="438" 
d="M182 -132q2 0 5 -0.5t13 -0.5t18.5 2t19.5 8t19 14.5t13.5 24.5t6.5 37q1 25 -14 45.5t-39 25.5q-52 11 -85 -36q-29 -41 -15 -81q13 -36 58 -39z" />
    <glyph glyph-name="slash" unicode="/" horiz-adv-x="941" 
d="M1171 1371q12 20 9.5 48t-18.5 47l-6 7q-15 20 -35 18q-19 0 -32 -21q-85 -146 -146 -255q-175 -310 -305 -570q-71 -139 -132 -274q-70 -152 -111 -260q-109 -282 -96 -420q3 -28 18.5 -46.5t34.5 -17.5l8 1q20 2 32 21q12 23 9 48q-10 91 86 340q47 118 108 252
q46 101 129 268q137 270 302 563q73 131 145 251z" />
    <glyph glyph-name="zero" unicode="0" horiz-adv-x="1093" 
d="M845 1365q-20 20 -36 31q-126 90 -284 21q-144 -61 -273 -237q-60 -83 -109 -183q-139 -286 -143 -577q-6 -246 93 -393q21 -33 48 -60q18 -17 36 -30q127 -90 285 -22q145 63 272 238q60 83 109 183q138 281 144 576q4 247 -93 394q-24 36 -49 59zM885 928
q-4 -265 -132 -527q-44 -92 -100 -168q-112 -155 -236 -209q-113 -48 -193 9q-21 18 -22 19q-58 56 -80.5 153.5t-20.5 199.5q6 268 132 527q41 86 100 168q114 156 237 208q112 50 192 -8q12 -9 22 -19q58 -56 80.5 -153.5t20.5 -199.5z" />
    <glyph glyph-name="one" unicode="1" horiz-adv-x="731" 
d="M655 1390q9 18 2 40t-26 35l-8 5q-19 15 -39 10q-21 -3 -30 -21q-39 -74 -113 -224q-125 -252 -230 -498q-56 -134 -94 -237q-43 -114 -75 -224q-69 -243 -34 -350q8 -22 27 -35t39 -9l8 1q19 3 29 21q9 19 2 40q-24 74 37 284q28 99 73 217q33 87 93 233
q105 245 227 491q62 127 112 221z" />
    <glyph glyph-name="two" unicode="2" horiz-adv-x="1506" 
d="M712 136q4 3 11 10q71 61 159 169q82 104 158 225q93 154 146 289q67 171 64 301q-2 165 -111 253q-76 60 -197 73q-113 13 -222.5 -23t-197.5 -111q-78 -69 -122 -153q-48 -93 -47 -188q2 -108 66 -201q13 -18 32.5 -22.5t34.5 8.5l5 5q15 13 16.5 34.5t-11.5 40.5
q-41 58 -41 124q-1 66 34 132q34 66 100 124q73 63 166.5 94t187.5 21q93 -10 144 -51q61 -48 61 -149q2 -105 -56 -256q-49 -127 -137 -271q-71 -115 -152 -215q-72 -91 -147 -159q-26 -23 -80 -65q-127 28 -229 20q-239 -18 -317 -106q-26 -30 -29.5 -67t21.5 -76
q39 -52 125 -60q92 -9 204 30q128 44 254 136q83 -23 203 -68q62 -23 81.5 -29.5t77 -24t89 -22t76.5 -5t81 9.5q103 29 171 142q9 17 6 39q-4 21 -21 36l-7 6q-16 14 -35.5 11t-29.5 -20q-45 -79 -117 -100q-62 -18 -154 4q-53 12 -197 63zM432 80q-65 -35 -122 -54
q-96 -33 -165 -25q-23 3 -34 7q59 57 254 72q45 2 67 0z" />
    <glyph glyph-name="three" unicode="3" horiz-adv-x="1174" 
d="M722 797q121 62 204 145q119 117 132 247q15 147 -96 231q-69 53 -171 62q-91 10 -190 -15q-55 -14 -106.5 -38.5t-99 -61.5t-78.5 -90.5t-36 -115.5q-3 -26 0 -53q2 -22 17 -39q14 -17 35 -20l8 -1q20 -2 32 11.5t10 35.5q-4 46 15 88t54 72t70.5 51t73.5 34q27 9 47 14
q87 21 160 13q74 -8 115 -39q44 -34 37 -103q-9 -93 -106 -190q-100 -98 -267 -169q-66 -27 -135 -48q-34 -12 -41 -29q-10 -29 6 -57q20 -34 57 -34h4.5h5.5h5q56 2 111 0q161 -6 253 -61q61 -35 87 -92q23 -52 16 -123q-13 -105 -96 -208q-77 -96 -187.5 -150t-235.5 -54
q-105 2 -188 41q-77 38 -113 99q-35 61 -25 138q2 21 -10.5 41t-31.5 27l-8 3q-19 7 -35 -2.5t-18 -29.5q-15 -122 45 -224q56 -100 173 -157q103 -50 232 -52q143 0 270 61.5t215 171.5q99 121 115 257q13 103 -28 195q-45 97 -145 158q-67 40 -158 60z" />
    <glyph glyph-name="four" unicode="4" horiz-adv-x="1207" 
d="M774 520l-631 7q205 183 372 398q96 121 173 247q74 122 110 208q7 18 -0.5 39.5t-26.5 35.5l-7 5q-20 13 -37 9q-18 -3 -26 -21q-37 -89 -103 -197q-73 -118 -167 -239q-178 -229 -399 -419l-2 -2q-26 -26 -30 -61q-2 -31 11 -56q14 -28 39 -45q28 -18 63 -18l626 -6
q-64 -210 -98 -305q-20 -56 -32 -83q-24 -60 -38 -69q-15 -10 -16.5 -31t11.5 -41l5 -8q15 -21 33 -26q20 -6 35 3q19 13 41.5 54.5t31.5 65t27 71.5q38 107 110 346q2 5 5 14t4 14q22 14 16 47l-1 2q5 17 20.5 66t23.5 76q55 174 90 269q49 135 93 224q8 18 2 40
q-8 22 -25 35l-7 6q-18 14 -37 11t-27 -20q-44 -91 -96 -232q-42 -116 -92 -273q-14 -47 -44 -141z" />
    <glyph glyph-name="five" unicode="5" horiz-adv-x="1240" 
d="M376 1358q5 0 16 -0.5t17 -0.5q36 -2 116 -8q7 0 81 -5t112 -7q152 -8 243 -3q133 8 160 55q10 17 5 39.5t-21 35.5l-6 5q-16 13 -33.5 11t-28.5 -17q-21 -10 -95 -14q-88 -3 -233 4l-189 12q-86 6 -129 8l-21 1q-21 0 -21 -1q-35 -2 -48 -24q-100 -166 -117 -295
q-14 -94 19 -167q32 -69 101 -103q57 -27 130 -24q175 6 276 -58q75 -49 106 -133q29 -81 15 -181q-22 -162 -123 -274q-74 -83 -165.5 -135t-188.5 -55q-82 -3 -145 33q-58 32 -86 92q-34 74 -14 176q4 21 -6 41t-29 27l-8 3q-19 7 -35 -2.5t-21 -29.5q-29 -145 24 -260
q46 -98 138 -150q87 -49 196 -46q115 4 221.5 63.5t193.5 155.5q58 64 97 151t52 179q17 135 -22 245q-46 128 -158 199q-129 82 -333 75q-52 -2 -85 14q-31 16 -42 41q-16 35 -8 93q13 96 92 234z" />
    <glyph glyph-name="six" unicode="6" horiz-adv-x="1071" 
d="M111 463q18 105 67 239q88 232 285 424q193 188 417 256q18 5 26 24.5t1 40.5l-3 9q-7 21 -25 32q-17 12 -35 6q-242 -73 -452 -277q-212 -206 -308 -460q-160 -426 -21 -661q84 -141 246 -173q142 -29 283 34q57 25 104 63.5t83 89.5t52.5 117.5t7.5 138.5
q-12 100 -82 180q-75 84 -189 110q-117 28 -234 -19q-124 -49 -223 -174zM109 253q110 211 268 274q91 37 182 16q81 -19 131 -76q42 -47 49 -104q13 -102 -45 -179.5t-148 -117.5q-116 -52 -230 -29q-115 23 -170 116q-25 41 -37 100z" />
    <glyph glyph-name="seven" unicode="7" horiz-adv-x="1103" 
d="M955 1331l-3 -3l-1 -2q-226 -297 -409 -575q-107 -160 -196 -311q-73 -124 -121 -225q-91 -195 -77 -289q3 -22 18.5 -35t34.5 -9l7 1q20 3 31 21q11 19 8 40q-6 49 42 160q41 99 140 271q82 138 193 307q180 271 405 568q26 33 32 72q8 77 -67 117q-49 26 -130 35
q-63 9 -148 9q-77 0 -165 -8q-169 -14 -296 -45q-19 -4 -29.5 -23t-6.5 -40l2 -9q3 -22 20 -34q15 -12 35 -7q125 30 282 43q93 7 158 7q76 0 137 -8q68 -9 98 -25q1 -2 6 -3z" />
    <glyph glyph-name="eight" unicode="8" horiz-adv-x="1104" 
d="M730 535q80 65 157 206q76 144 93 281q15 124 -22.5 230t-138.5 167q-85 50 -189 52q-103 0 -186 -46q-92 -49 -135 -134.5t-29 -189.5q17 -128 97 -260q-19 2 -33 -11q-42 -33 -94 -85q-105 -105 -166 -206q-67 -108 -79 -210q-18 -149 29 -257q44 -103 136 -158
q103 -61 234 -53q125 8 231 72q108 68 156 174.5t21 230.5q-22 96 -82 197zM668 627q-10 13 -69 91q-47 60 -71.5 93.5t-59 88.5t-53.5 107t-26 107q-10 70 18 126t90 89q61 34 134 32q74 0 132 -35q133 -81 108 -289q-13 -114 -81 -244q-62 -115 -122 -166zM428 764
q26 -38 84 -112q42 -54 61.5 -80.5t52 -74.5t51 -92t28.5 -89q19 -90 -15.5 -165t-113.5 -125q-84 -51 -180 -56q-96 -7 -170 37q-75 45 -99.5 127.5t-12.5 180.5q9 81 66 169q53 88 150 185q42 42 83 76q7 5 15 19z" />
    <glyph glyph-name="nine" unicode="9" horiz-adv-x="1026" 
d="M742 738q-2 -5 -5.5 -14.5t-4.5 -14.5q-89 -234 -285 -424q-192 -187 -417 -257q-18 -5 -26 -24t-1 -41l3 -8q6 -22 24 -33t36 -6q242 73 452 277q213 208 308 461q95 252 89 442q-3 151 -72 254q-64 97 -169 128q-84 26 -176 5q-136 -29 -229.5 -135.5t-115.5 -261.5
q-21 -137 27 -257q53 -132 170 -177q100 -40 228 3q84 28 164 83zM796 925q-139 -118 -252 -157q-99 -34 -171 -7q-69 27 -101 107q-35 82 -19 187q18 123 92.5 207t182.5 108q70 15 130 -3q68 -21 107 -80q45 -69 49 -182q3 -80 -18 -180z" />
    <glyph glyph-name="colon" unicode=":" horiz-adv-x="480" 
d="M210 -90q4 -1 11 -1.5t25 2.5t32 11.5t26 30.5t14 54q1 28 -16.5 50.5t-43.5 28.5q-57 13 -95 -38q-32 -44 -20 -89q14 -44 67 -49zM321 401q4 -1 11 -1.5t25 2.5t31.5 11.5t26 30.5t13.5 54q1 28 -16 50.5t-44 28.5q-57 13 -94 -38q-33 -44 -20 -89t67 -49z" />
    <glyph glyph-name="semicolon" unicode=";" horiz-adv-x="491" 
d="M200 314q4 -1 11.5 -1.5t26.5 2.5t34 12t28 32t14 57q1 30 -17 54t-46 30q-60 14 -100 -39q-34 -47 -22 -94q13 -49 71 -53zM138 -152q22 38 10.5 79.5t-54.5 49.5q-62 11 -106 -35q-35 -38 -23 -74q13 -33 66 -37q-84 -171 -47 -168q27 2 87 80q40 53 67 105z" />
    <glyph glyph-name="semicolon" unicode="&#x37e;" horiz-adv-x="491" 
d="M200 314q4 -1 11.5 -1.5t26.5 2.5t34 12t28 32t14 57q1 30 -17 54t-46 30q-60 14 -100 -39q-34 -47 -22 -94q13 -49 71 -53zM138 -152q22 38 10.5 79.5t-54.5 49.5q-62 11 -106 -35q-35 -38 -23 -74q13 -33 66 -37q-84 -171 -47 -168q27 2 87 80q40 53 67 105z" />
    <glyph glyph-name="less" unicode="&#x3c;" horiz-adv-x="941" 
d="M190 240l719 266q20 8 27 24q7 18 0 35l-1 2q-8 17 -26.5 24t-38.5 0l-839 -311q-31 -11 -31 -42q0 -30 32 -41l720 -253q17 -7 38 1q19 8 26 25l1 1q7 18 -1 35t-28 24z" />
    <glyph glyph-name="greater" unicode="&#x3e;" horiz-adv-x="1023" 
d="M911 266l-720 -267q-19 -6 -27 -24q-7 -17 0 -35l1 -1q7 -17 26 -24.5t39 -0.5l840 311q33 13 31 42q0 31 -31 42l-721 254q-20 6 -39 -1q-18 -8 -26 -25l-1 -2q-7 -17 1 -34t28 -24z" />
    <glyph glyph-name="question" unicode="?" horiz-adv-x="1209" 
d="M406 1002q-9 -20 1 -41q11 -19 34 -25l2 -1q23 -6 45.5 4.5t30.5 32.5q55 135 180 234.5t280 132.5q100 21 189 8q86 -15 142 -62q50 -43 67.5 -110t10 -129.5t-29.5 -131.5q-19 -61 -56.5 -118t-74.5 -97t-102 -90t-104 -76t-115 -75q-56 -36 -82 -52.5t-77.5 -53
t-78 -60t-65 -62t-60 -72t-40.5 -77t-27 -88.5q-4 -22 10 -39q15 -16 39 -18l3 -1q24 -1 43.5 13t23.5 36q10 59 45 113q25 39 61 76t93 78.5t82.5 58.5t94.5 61q67 43 109 71t100 71t97 80.5t80 85t70 100.5t48 112q29 89 35.5 170t-20.5 164.5t-93 140.5q-79 69 -199 88
q-111 19 -238 -9q-188 -40 -337.5 -159.5t-216.5 -283.5zM446 -374q4 -1 11.5 -1.5t27 2.5t35 10t30 26t18.5 47q4 24 -13 44t-45 25q-63 11 -107 -37q-37 -39 -25 -76q14 -36 68 -40z" />
    <glyph glyph-name="at" unicode="@" horiz-adv-x="2015" 
d="M836 120q106 -46 229 31q49 30 91.5 80t73.5 110t46.5 128t14.5 135t-27.5 130t-74 113t-130 85t-191.5 45q-310 29 -573 -150q-200 -137 -313 -352t-91 -411q24 -206 194 -308q97 -59 236 -75q225 -27 419 48t375 227q19 16 17.5 36t-20.5 38q-16 13 -43.5 12.5
t-40.5 -12.5q-191 -175 -422 -232q-89 -23 -181.5 -23t-180 23.5t-151 87t-80.5 160.5q-25 139 59 320q46 101 117.5 191.5t164 163t209 115t238.5 42.5q227 0 321 -116q41 -51 48.5 -127.5t-11 -145.5t-52.5 -123q-44 -71 -113 -123q-96 -71 -135 -15q-13 17 -18 48
q-8 43 4 88t32 84t22 45q9 35 -28 57t-76 -1q-10 -6 -66.5 -64.5t-142.5 -133.5t-168 -122q-46 -26 -78.5 -31t-43 8t2 40.5t49.5 61.5q30 27 59 36.5t50.5 6.5t40 -7t34 1t26.5 26q18 35 -24 61q-55 34 -142 15q-70 -15 -131 -64q-86 -68 -89 -151q-3 -71 58 -105
q89 -48 241 22q116 53 247 169q0 -65 28.5 -119t89.5 -79z" />
    <glyph glyph-name="A" unicode="A" horiz-adv-x="1951" 
d="M1431 590q45 116 79 202q103 266 132 357q28 86 36 141q12 81 -16 122q-4 6 -14 16q-39 35 -96 11q-39 -16 -100 -67q-39 -32 -97 -92q-46 -48 -111 -123q-120 -140 -249 -312q-115 -154 -226 -318q-260 -71 -446 -207q-166 -122 -251 -275q-96 -169 -65 -305
q18 -79 73 -113t122 -16q60 16 124 68.5t120.5 127t98.5 140t81 136.5q80 146 208 339q199 51 447 59q-50 -159 -73 -281q-28 -148 -17 -220q12 -78 47 -121.5t88 -49t112.5 6t133 50t134.5 74.5t131.5 89t110.5 84.5t84 68.5q14 14 14 35.5t-13 38.5l-5 8q-14 17 -33 20
t-34 -10q-35 -49 -173 -150q-215 -159 -355 -200q-129 -37 -141 55q-8 61 16 186q24 128 78 295q2 7 6 19q61 -4 97 -20q22 -10 27 -19q3 -6 0 -23q-5 -21 5 -41q9 -20 28 -28l8 -3q19 -8 35.5 1t21.5 29q16 64 -11.5 115t-86.5 77q-36 14 -85 23zM930 563q83 118 146 202
q128 172 244 306q56 66 108 119q58 60 90 86q41 34 60 45v-3q-7 -39 -32 -122q-34 -104 -130 -347q-69 -177 -96 -252h-50h-3q-185 -7 -337 -34zM667 370q-77 -121 -129 -219q-109 -200 -215 -315q-88 -94 -154 -112q-32 -7 -47 3q-11 8 -17 30q-20 87 54 218
q75 134 223 243q121 90 285 152z" />
    <glyph glyph-name="B" unicode="B" horiz-adv-x="1911" 
d="M909 509q-135 -11 -288 -81q-37 -17 -54 -31q-23 -20 -26.5 -47t15.5 -45t55 -14q62 6 249 77q11 4 32.5 12.5t31.5 13.5q48 2 85 -5q107 -19 140 -92t-30 -179q-294 -43 -455 -85q-53 -14 -112 -33t-135 -49.5t-134 -70.5t-79 -82q-22 -55 -0.5 -89.5t69.5 -48.5
q69 -21 184 -9q199 20 399.5 113.5t317.5 245.5l811 145q29 16 29.5 48t-22.5 51t-52 3l-692 -120q42 114 3.5 206.5t-138.5 136.5q89 44 168.5 91t169 113.5t155 135t112.5 154.5t54 173q6 67 -16 121t-64.5 89t-94 57t-112.5 32q-173 31 -402 -22q-213 -49 -415 -159.5
t-359 -269.5q-68 -70 -100 -106l-31.5 -37.5t-30.5 -42t-27 -49.5t-6.5 -45t16.5 -43q9 -11 22 -17.5t31 -8.5t29 -2.5t34 0t30 0.5q83 -2 119.5 -43.5t28.5 -129.5q0 -7 -2 -19q-1 -2 -24 -34t-56.5 -80.5t-68.5 -103t-63.5 -112t-36.5 -96.5q-8 -41 9.5 -59t51 -8t68.5 44
q60 57 126.5 183t95.5 224q19 26 88 119q168 221 367 462q22 26 5 56t-48 35.5t-56 -18.5q-57 -68 -115.5 -146.5t-128.5 -175t-111 -151.5q-20 82 -82 124t-157 44h-46q43 57 140 155q232 235 560 351q263 93 476 73q178 -16 231 -107q21 -36 17 -82q-7 -84 -67.5 -170.5
t-142.5 -154t-189.5 -133.5t-190.5 -107t-165 -75zM999 -16q-109 -91 -256.5 -147.5t-286.5 -70.5q-90 -9 -138 3q22 16 28 20q62 40 144.5 72.5t178 56t166.5 37.5t164 29z" />
    <glyph glyph-name="C" unicode="C" horiz-adv-x="1345" 
d="M972 925q-3 -20 6 -40q11 -21 30 -28l7 -3q19 -8 36 2t21 31q21 105 20 199q-2 136 -51 232q-50 100 -138 134q-24 10 -53 13q-107 13 -239 -75q-123 -81 -238 -225q-116 -142 -205.5 -319t-131.5 -358q-70 -316 -2 -508q61 -173 220 -240q136 -56 325 -28
q217 32 450.5 157.5t391.5 290.5q13 14 12.5 36.5t-14.5 39.5l-5 6q-14 17 -34 19t-33 -12q-147 -155 -368 -273.5t-424 -148.5q-169 -24 -276 22q-110 45 -152 163q-55 160 8 435q39 169 123 335.5t193 299.5q111 136 217 205q105 72 184 63q16 -2 28 -7q45 -18 75 -74
q34 -68 36 -172q0 -83 -19 -172z" />
    <glyph glyph-name="D" unicode="D" horiz-adv-x="1995" 
d="M1334 159q55 102 93 220.5t54.5 248t-4.5 263t-83 244.5q-65 116 -162 193t-207 108.5t-232.5 24t-238.5 -54t-225.5 -133t-192.5 -204.5q-78 -109 -104 -160q-62 -125 -5 -179q17 -17 48 -23t61.5 -4.5t64.5 -4.5t60.5 -20.5t47 -55.5t25.5 -107q0 -4 0.5 -11t1.5 -11
q0 -1 -16.5 -35.5t-39 -86t-45.5 -110t-40 -119t-19 -101.5q-3 -74 30 -97q38 -26 87 41q46 62 86 190q48 149 59 278q5 24 145 287t180 333q20 35 -10 69q-27 30 -55 20q-14 -4 -22 -19q-157 -278 -268 -502q-21 55 -52 91.5t-71.5 54.5t-81 24.5t-93.5 6.5q28 60 108 173
q104 148 243.5 237.5t276.5 110.5t267 -18t222.5 -129t135 -243.5t11.5 -343.5q-43 -257 -179 -464q-4 -2 -63 -8t-143.5 -15t-189.5 -31t-199.5 -52t-175.5 -83.5t-116 -121.5q-23 -44 -23.5 -88.5t20 -79.5t59.5 -61t94.5 -34t125.5 2q79 13 158 45.5t139.5 69.5t123 88
t100 87t78 82.5t49.5 58.5t22 30l1 1q181 15 395.5 45.5t352.5 65.5q21 21 17.5 50.5t-28.5 48.5t-49 2q-203 -52 -609 -84zM1095 11q-107 -120 -252 -211.5t-284 -115.5q-58 -8 -99 -4.5t-58 21t-14.5 41.5t31.5 55.5t79 62.5q56 35 128.5 61.5t166 44t148 25.5t154.5 20z
" />
    <glyph glyph-name="E" unicode="E" horiz-adv-x="1334" 
d="M557 722q-182 -23 -316 -115q-147 -102 -208 -265q-42 -116 -31 -232q12 -121 78 -218q82 -118 211.5 -159t269.5 -24q220 28 457 153q242 126 407 298q13 14 13 36.5t-14 39.5l-6 6q-14 17 -33.5 19t-32.5 -12q-152 -159 -384 -281q-226 -118 -429 -144
q-112 -13 -215.5 15t-166.5 118q-46 69 -54 153q-9 90 25 177q49 134 173 220q142 98 346 105q54 2 110 0q35 -2 50 13q13 13 15 37q0 44 -42 64q-2 1 -5.5 2.5t-5.5 2.5q-51 19 -110 52q-171 96 -206 240q-16 66 3 134q17 65 67 117q62 65 150 84.5t175 -7.5q40 -11 84 -50
q49 -44 76 -106q30 -67 21 -133q-7 -62 -45 -118q-11 -16 -7.5 -38.5t19.5 -36.5l7 -6q16 -14 35 -13q20 2 30 18q52 78 62 166q12 104 -32 203q-37 87 -109 152q-61 56 -127 75q-112 33 -223 7.5t-189 -107.5q-65 -68 -92 -161q-27 -99 -3 -199q39 -165 202 -282z" />
    <glyph glyph-name="F" unicode="F" horiz-adv-x="1461" 
d="M133 1049q25 22 102 74q164 106 371 162q243 68 492 59q208 -6 350 -65q134 -55 162 -136q10 -31 5 -66q-3 -21 8.5 -40.5t30.5 -25.5l7 -2q20 -6 35.5 4.5t18.5 32.5q10 69 -11 129q-47 136 -231 213q-158 65 -384 72q-262 9 -518 -62q-223 -61 -394 -173
q-56 -38 -84 -59q-38 -30 -54 -48q-60 -62 -27 -122q19 -33 67 -48q28 -10 70 -17q44 -9 64 -14t58 -20.5t57 -35.5q66 -72 49 -290q-8 -119 -38 -256l-13 -28q-88 -184 -144 -326q-32 -82 -45 -125q-18 -57 -20 -94q-2 -42 11 -67q14 -22 31 -29q23 -11 44.5 2t32.5 30.5
t24 43.5q34 68 78 196q57 162 97 344q60 126 91 189q15 29 41.5 82t48.5 96.5t42 82.5q44 6 62 8q90 11 174 11q72 0 116 -7q91 -16 104 -42q2 -3 2 -10q0 -22 13 -40q14 -17 33 -20l8 -1q19 -3 33 10.5t15 35.5q0 38 -17 74q-60 115 -315 115q-63 1 -162 -8q5 10 17 32
q34 66 87 161q19 35 59 105q11 16 6.5 38.5t-20.5 36.5l-6 5q-17 14 -36 12q-21 -3 -29 -20q-26 -41 -62 -108q-40 -73 -88 -163q-83 -156 -171 -332q6 236 -88 336q-29 32 -74.5 54t-77.5 30.5t-85 19.5q-4 1 -11.5 2t-11.5 2z" />
    <glyph glyph-name="G" unicode="G" horiz-adv-x="1717" 
d="M1128 181q34 72 62 145q44 114 77 219q27 86 39 158q26 156 -51 202q-63 37 -187 -36q-49 -27 -109 -70q-82 -58 -122 -88q-5 -4 -39 -28.5t-42.5 -30.5t-38.5 -27t-42.5 -29.5t-39 -26.5t-43.5 -28.5t-39.5 -24t-43.5 -25.5q-75 -41 -137 -62q-105 -34 -158 -5
q-46 25 -50 105q-8 98 42 231q37 103 98.5 199.5t139.5 176t175 131t196 58.5q71 5 129 -13q53 -17 84 -46q29 -30 34 -67q4 -20 0 -48q-3 -23 9 -41q10 -18 30 -25l8 -3q19 -5 35 6t19 32q6 42 0 86q-13 85 -74 144q-54 51 -130 74q-77 23 -162 17q-112 -8 -221 -64.5
t-197 -144t-157 -195t-111 -223.5q-57 -154 -49 -281q11 -155 117 -212q89 -49 225 -5q71 22 157 70q117 64 337 226q68 49 119 85q76 51 102 67q27 15 54 27q25 11 39 12q2 -22 -6 -71q-9 -53 -36 -141q-30 -96 -74 -209q-42 -111 -96 -208q-50 -2 -76 -3
q-368 -16 -535 -48q-301 -58 -370 -196q-29 -60 -14 -122q18 -71 86 -125q115 -88 295 -82q182 6 350 113q188 120 327 350q128 -5 358 22.5t379 64.5q16 10 20.5 31t-6.5 41l-5 8q-11 20 -29.5 26.5t-34.5 -3.5q-135 -28 -325.5 -50.5t-291.5 -19.5zM925 55
q-111 -156 -248 -242q-148 -94 -305 -100q-148 -4 -231 61q-56 42 -32 87q20 40 82 73.5t115.5 48.5t109.5 26q77 14 176 24t154 13t179 9z" />
    <glyph glyph-name="H" unicode="H" horiz-adv-x="1940" 
d="M1164 343q262 99 440 362q67 99 116 219t59 232q14 144 -55 195q-54 40 -125 -6q-73 -46 -164 -184q-105 -158 -219 -402q-80 -167 -132 -319q-207 -65 -452 -5q1 4 5 12q66 154 111 287q51 154 74 271q51 256 -28 371q-52 78 -147 78q-74 1 -165 -49
q-161 -87 -302.5 -275.5t-178.5 -381.5q-5 -21 6 -40.5t30 -26.5l7 -3q19 -7 35.5 2.5t20.5 30.5q33 170 162 340.5t272 248.5q74 39 124 39q41 0 59 -27q45 -67 6 -270q-20 -107 -71 -257q-39 -118 -108 -280q-3 -7 -9 -20t-8 -18q-38 13 -86 33q-19 8 -35.5 -1t-21.5 -29
l-2 -9q-5 -20 4.5 -40.5t28.5 -28.5q44 -18 66 -26q-1 -4 -4 -8q-96 -205 -195 -366q-91 -148 -128 -169q-16 -9 -21 -30t5 -41l4 -8q11 -21 29 -28q18 -8 36 2q56 32 160 200q101 163 201 377q12 24 17 37q242 -69 457 -24q-54 -194 -42 -332q13 -150 99 -222
q82 -69 212 -52q140 19 323 131q187 115 399 315q14 13 14.5 35.5t-12.5 39.5l-6 7q-14 18 -33 21t-33 -10q-200 -190 -384 -304q-167 -104 -290 -120q-91 -11 -136 28q-44 37 -52 129q-11 141 63 369zM1220 499q42 103 87 197q112 238 211 388q82 122 138 158q9 6 19 9
q7 -23 3 -71q-9 -97 -54 -204t-103 -194q-124 -185 -301 -283z" />
    <glyph glyph-name="I" unicode="I" horiz-adv-x="905" 
d="M1 748q-4 -21 6.5 -40.5t29.5 -26.5l8 -3q19 -7 35 2.5t21 30.5q33 170 162 340.5t272 248.5q74 39 124 39q41 0 59 -27q45 -67 6 -270q-24 -121 -80 -281q-56 -157 -125 -314q-45 -98 -57 -124q-96 -203 -264 -504q-51 -85 -85 -130q-38 -48 -49 -54q-17 -9 -22 -30
t6 -41l4 -8q9 -20 29 -28q19 -8 35 2q57 31 167 215q121 200 270 515q26 55 58 127q79 181 128 322q57 160 84 296q51 256 -28 371q-52 78 -147 78q-74 1 -165 -49q-161 -87 -302.5 -275.5t-179.5 -381.5z" />
    <glyph glyph-name="J" unicode="J" horiz-adv-x="1746" 
d="M1166 38q488 54 663 117q16 10 20.5 31t-6.5 41l-5 8q-11 20 -29.5 26.5t-35.5 -3.5q-102 -34 -260.5 -60t-274.5 -33q60 116 102 252q68 216 62 420q-5 213 -92 366q-147 252 -459 247q-147 -2 -296 -84.5t-260 -207.5q-113 -127 -161 -264q-53 -158 -5 -289
q40 -111 150 -186q17 -12 35.5 -7t26.5 24l4 7q8 19 1.5 40.5t-23.5 33.5q-74 50 -101 122q-32 87 8 203q39 116 140 229q98 110 231 185.5t263 77.5q252 6 363 -187q69 -121 74 -300q4 -179 -57 -381q-52 -167 -141 -318q-22 -2 -65 -6.5t-65 -6.5q-353 -37 -512 -71
q-173 -38 -289 -115q-107 -71 -149 -164q-29 -67 -21 -132q9 -69 57 -120q95 -101 277 -74q253 37 467 189.5t363 389.5zM1019 22q-136 -183 -316.5 -300t-390.5 -149q-133 -18 -188 40q-18 20 -21 45q-4 30 12 66q31 68 116 124q100 66 260 102q162 35 502 69q18 2 26 3z
" />
    <glyph glyph-name="K" unicode="K" horiz-adv-x="1933" 
d="M532 219q66 138 79 168q79 181 128 322q57 160 84 296q51 256 -28 371q-52 78 -147 78q-74 1 -165 -49q-161 -87 -302.5 -275.5t-179.5 -381.5q-4 -21 6.5 -40.5t29.5 -26.5l8 -3q19 -7 35 2.5t21 30.5q33 170 162 340.5t272 248.5q74 39 124 39q41 0 59 -27
q45 -67 6 -270q-24 -121 -80 -281q-58 -163 -126 -314q-18 -42 -56 -124q-106 -226 -210 -397q-51 -85 -85 -130q-38 -48 -49 -54q-17 -9 -22 -30t6 -41l4 -8q9 -20 29 -28q19 -8 35 2q57 31 167 215q55 91 118 209q64 -51 206 -6q34 11 71 29q70 -42 132.5 -96t144.5 -135
q57 -56 82 -80t76 -61.5t95 -54.5q148 -59 320 52q91 60 200 170q110 113 248 292q12 15 10 37t-17 38l-7 6q-13 16 -34 16q-20 0 -32 -15q-135 -176 -240 -282q-97 -102 -184 -158q-134 -89 -242 -46q-33 13 -73.5 43t-64 52.5t-64.5 63.5l-4 4l-3 3l-4 4
q-146 142 -233 204q19 11 55 35q50 34 100 78q60 51 116 107q132 129 252 278q89 111 157 214q110 169 153 299q50 143 21 248q-1 6 -8 26q-8 21 -26.5 30.5t-36.5 2.5l-7 -3q-17 -6 -24 -26q-7 -21 1 -41q26 -65 -15 -187q-41 -117 -142 -273q-66 -101 -151 -207
q-119 -147 -244 -269q-64 -63 -112 -104q-56 -47 -93 -71q-47 -33 -111 -68q-43 20 -101.5 23t-89.5 -14z" />
    <glyph glyph-name="L" unicode="L" horiz-adv-x="1148" 
d="M678 1434q9 20 2.5 40.5t-23.5 30.5l-7 4q-17 10 -35.5 3t-27.5 -27q-13 -29 -38.5 -82.5t-34.5 -72.5q-195 -402 -295 -649q-56 -134 -101 -263q-50 -144 -77 -252q-68 -276 -22 -412q17 -52 48.5 -85t71.5 -45.5t81.5 -12.5t88.5 11q63 14 143 49q82 36 246 110
q20 9 71 32t79 35q65 28 108 43q82 29 134 23q39 -6 79 -25q19 -8 36 1q18 8 25 29l3 8q7 20 -0.5 40.5t-25.5 28.5q-56 27 -107 32q-70 9 -174 -27q-48 -16 -114 -46q-26 -11 -76.5 -33.5t-75.5 -33.5q-126 -58 -244 -110q-219 -93 -282 -20q-14 17 -20 37q-42 124 53 445
q50 165 145 396q99 240 291 639q8 18 23.5 50t28 58.5t23.5 50.5z" />
    <glyph glyph-name="M" unicode="M" horiz-adv-x="2535" 
d="M175 135q92 207 140 327q53 131 85 223q41 117 63 210q58 233 0 332q-12 20 -25 32q-64 62 -186 28q-112 -31 -282 -147q-17 -12 -22 -33.5t6 -40.5l4 -7q11 -19 31.5 -23.5t37.5 6.5q89 62 164 99q130 63 171 34q4 -3 10 -11q34 -60 -14 -245q-20 -85 -60 -199
q-36 -100 -83 -216q-63 -154 -163 -380q-44 -98 -65 -147q-31 -73 -42 -105q-37 -102 -58 -175q-7 -24 -12 -48q-9 -56 33 -72q35 -13 67 24q7 9 15 21q12 18 45 76q54 92 81 137q260 423 493 746q126 176 250 326q313 380 492 437q34 10 44 5q4 -2 4 -8q11 -40 -18 -149
q-14 -53 -47 -146q-45 -118 -96 -234q-49 -113 -116 -255q-14 -30 -43 -92t-44 -92q-39 -82 -115 -246q-60 -130 -90 -207q-32 -78 -52 -140q-19 -63 -1 -94q6 -11 17 -17q11 -8 24 -8q35 -3 80 56q20 24 79 106q44 63 130 191q159 240 259 377q93 125 167 215
q91 106 166 174q151 136 244 122q1 0 16 -3q14 -5 22 -13q37 -39 15 -181q-9 -68 -33 -159q-23 -88 -48 -177q-8 -23 -16 -53q-36 -124 -49 -173q-25 -92 -37 -158q-33 -181 33 -246q18 -18 43 -26q107 -36 287 88q84 57 193 157q95 88 196 197q15 16 15 38t-14 37l-6 6
q-14 16 -35 16t-35 -16q-91 -99 -190 -190q-97 -90 -181 -148q-55 -37 -92 -54q-70 -32 -104 -21q-1 1 -2 1t-2 1q-13 13 -9 65q1 27 9 77q13 71 35 147q22 82 48 169q10 36 16 54q38 138 50 182q26 105 35 172q29 198 -44 277q-28 30 -68 42q-147 46 -357 -139
q-89 -81 -177 -186q-75 -87 -173 -221q-103 -139 -265 -383q0 -1 -1 -2.5t-2 -2.5t-1 -2l1 1v2q19 41 57.5 122.5t57.5 122.5q30 62 88 186q80 172 118 259q66 152 98 241q96 260 68 366q-11 45 -40 68.5t-64.5 23.5t-75.5 -11q-213 -67 -544 -472q-121 -146 -254 -331
q-169 -233 -350 -517z" />
    <glyph glyph-name="N" unicode="N" horiz-adv-x="1717" 
d="M238 92q14 43 17 56q32 107 53 182q67 235 89 378q32 206 -5 320q-33 102 -107 137.5t-170 21.5q-36 -5 -85 -19q-18 -5 -26 -24.5t-1 -40.5l3 -9q7 -21 24.5 -32.5t35.5 -5.5q157 47 209 -15q14 -17 22 -42q28 -86 -1 -260q-20 -129 -85 -365q-22 -77 -53 -178
q-52 -177 -72 -254q-24 -90 -32 -140q-11 -64 10 -94q8 -11 18 -17q9 -6 23 -8q33 -3 69 56q21 34 61 106q26 46 116 227q192 383 303 580q92 159 168 276q93 139 171 228q175 199 284 170q6 -2 9 -4q29 -25 29 -145q1 -52 -9 -152q-16 -151 -72 -440q-2 -11 -6.5 -33.5
t-6.5 -34.5q-29 -149 -51 -276q-18 -104 -24 -162q-10 -73 -11 -140q-5 -158 61 -210q18 -12 31 -16q71 -24 161 23q45 23 98 66q72 57 162 156q84 94 164 202q12 16 10 38t-18 37l-6 6q-16 16 -34 16q-19 0 -32 -16q-81 -109 -159 -195q-83 -92 -152 -147q-46 -37 -80 -55
q-58 -32 -94 -21q-6 9 -11 59q-2 50 5 126q10 93 29 199q7 42 50 273q4 18 13 68q56 286 74 450q15 147 6 239q-12 123 -72 175q-24 20 -52 27q-160 42 -369 -194q-79 -90 -179 -238q-72 -107 -172 -282q-117 -205 -308 -587q-11 -23 -23 -46z" />
    <glyph glyph-name="O" unicode="O" horiz-adv-x="1595" 
d="M50 432q-51 -133 -50 -277q2 -158 67 -279q73 -135 197 -173q98 -30 206.5 10.5t205.5 117.5q34 26 77 66q3 -3 31 -3.5t79 3.5t116.5 13t150.5 29t173 47.5t190.5 73t198.5 101.5q15 12 17 33q3 22 -10 41l-5 7q-12 19 -31.5 23.5t-34.5 -7.5q-20 -10 -55.5 -27
t-135.5 -59t-190 -73.5t-197.5 -55.5t-180.5 -20q104 127 177 276q93 184 127 373q42 222 -3 404q-48 194 -182 292q-46 33 -98 51q-261 95 -485 -24q-144 -78 -242 -230q-95 -147 -128 -328q-39 -210 15 -405zM589 -89q-76 -56 -158 -86.5t-151 -9.5q-80 23 -128 113
q-47 88 -51 216q0 68 13 129q18 -33 39 -66q159 -242 436 -296zM160 413q50 104 134.5 172.5t192.5 96.5q19 4 27.5 23t1.5 41l-2 8q-7 22 -24 33.5t-36 7.5q-208 -55 -329 -225q-13 109 9 231q30 159 113 288q87 134 210 200q188 102 413 20q39 -15 70 -37q96 -70 132 -216
q38 -153 2 -348q-33 -173 -118 -344q-99 -199 -249 -351q-3 0 -4 1q-312 12 -471 256q-26 39 -45 79q-14 27 -27 64z" />
    <glyph glyph-name="P" unicode="P" horiz-adv-x="1445" 
d="M396 342q166 302 370 640q21 33 -8 68q-25 31 -54 24q-15 -4 -24 -19q-169 -280 -291 -498q-23 91 -82 141.5t-149 51.5h-43l40 64q99 146 208 243.5t257 168.5q255 122 490 104q326 -26 257 -324q-23 -101 -81.5 -202.5t-136 -184t-164.5 -148.5t-173 -106
q-99 -46 -166 -48q-70 -2 -79 41q-5 25 -24 37.5t-39 8.5t-30 -20q-10 -28 -2 -56.5t26 -53.5q30 -44 77.5 -61.5t102 -9.5t96.5 21t86 33q122 57 237.5 153.5t201.5 212.5q33 43 62 91.5t57 110t43 121t19.5 125.5t-13.5 124q-18 65 -56.5 113.5t-90.5 76t-104 42
t-111 18.5q-255 21 -533 -111q-160 -76 -282 -186t-226 -268q-19 -30 -30 -49t-24.5 -53t-9 -63.5t26.5 -51.5q20 -21 55 -25.5t68.5 -3.5t65.5 -6t54.5 -40.5t28.5 -98.5q3 -47 -2 -97q-44 -83 -89 -169q-167 -328 -178 -443q-4 -45 19.5 -70.5t61.5 -13t69 65.5
q60 101 125.5 276.5t90.5 303.5z" />
    <glyph glyph-name="Q" unicode="Q" horiz-adv-x="1788" 
d="M1043 -93q214 163 377 392q132 183 202 373q82 224 62 404q-22 194 -154 292q-44 32 -100 51q-274 95 -542 -24q-172 -78 -306 -230q-129 -147 -195 -328q-78 -211 -49 -405q-80 -134 -101 -277q-24 -158 29 -279q59 -135 190 -173q103 -30 228 9.5t245 115.5l36 -15
q151 -63 218 -103q95 -55 131 -121q48 -89 4 -228q-8 -22 3 -40q9 -20 30 -25l8 -3q20 -5 39 6t26 32q59 190 -12 320q-49 91 -168 160q-77 46 -201 96zM382 273q58 -134 163.5 -224.5t258.5 -164.5q-196 -103 -313 -69q-83 23 -122 113q-40 90 -21 216q9 64 34 129z
M924 -42q-81 36 -140 68.5t-123 79.5t-110.5 108t-74.5 135q-10 26 -19 64q145 210 406 269q21 4 33.5 23t9.5 41l-2 8q-3 22 -20.5 34t-38.5 7q-239 -55 -402 -225q6 116 48 231q60 160 172 288q118 134 265 200q226 101 462 20q42 -15 72 -37q95 -70 110 -216
q18 -155 -55 -348q-64 -172 -185 -344q-176 -245 -408 -406z" />
    <glyph glyph-name="R" unicode="R" horiz-adv-x="1639" 
d="M396 342q166 302 370 640q21 33 -8 68q-25 31 -54 24q-15 -4 -24 -19q-169 -280 -291 -498q-23 91 -82 141.5t-149 51.5h-43l40 64q99 146 208 243.5t257 168.5q255 122 490 104q242 -20 295 -182q34 -104 -6 -227t-110 -218q-61 -82 -135 -143.5t-162.5 -103.5
t-167.5 -67.5t-189 -52.5q-6 -1 -31 -7l-37.5 -9t-36.5 -10t-38.5 -14t-32 -16.5t-29 -21.5t-17.5 -26q-37 -79 76 -246q76 -110 185 -220q31 -32 66 -64t84 -73t97 -70.5t96.5 -51t92.5 -21t75 26.5q23 19 15 51.5t-32 46t-49 -1.5q-21 -18 -91 13q-108 50 -243.5 179.5
t-217.5 249.5q-58 85 -62 119q19 19 161 53q92 22 163 43t151 54.5t144 73.5t128.5 98.5t117.5 130.5q61 82 98 172.5t48.5 178.5t-8 169.5t-67 145t-134 105.5t-202.5 51q-255 21 -533 -111q-160 -76 -282 -186t-226 -268q-19 -30 -30 -49t-24.5 -53t-9 -63.5t26.5 -51.5
q20 -21 55 -25.5t68.5 -3.5t65.5 -6t54.5 -40.5t28.5 -98.5q3 -47 -2 -97q-44 -83 -89 -169q-172 -337 -178 -443q-2 -34 11 -57.5t34 -29.5t48 10t51 56q71 118 138 291t84 292z" />
    <glyph glyph-name="S" unicode="S" horiz-adv-x="1410" 
d="M570 100q-15 18 -31 36t-36 37.5t-33 31.5t-38 34.5t-34 30.5q-57 51 -80.5 73t-70.5 71t-76 93t-47 90q-40 108 -7 221q29 101 95.5 191t152.5 153.5t183 105t193 55.5q113 18 198 -6q79 -23 115 -75q60 -91 -10 -272q-37 -97 -113 -196q-79 -103 -161 -159
q-16 -11 -19 -32.5t8 -40.5l4 -8q12 -20 31 -25.5t35 5.5q94 63 181 178q86 112 128 222q67 172 34 301q-12 49 -39 89q-61 92 -180 125q-105 30 -236 9q-109 -16 -217.5 -63.5t-204 -119.5t-169 -173.5t-106.5 -217.5q-46 -158 13 -308q55 -140 225 -298q27 -26 83 -76
q85 -77 101 -94q5 -4 10 -9.5t11.5 -12l10.5 -10.5q-192 -95 -316 -218q-75 -75 -102 -140q-18 -37 -12 -82.5t41 -73.5q54 -42 166 -20q177 36 290 139q126 118 113 257q-4 42 -21 81q153 49 336.5 83.5t501.5 73.5q20 1 32 16t10 37l-1 9q-2 23 -17.5 39t-34.5 15
q-81 -13 -249 -37.5t-241.5 -36.5t-187 -38.5t-212.5 -59.5zM542 -41q10 -21 11 -40q4 -44 -21 -88t-61 -77q-94 -87 -249 -118q-30 -6 -48 -6t-28 1l3 9q20 48 81 107q117 117 312 212z" />
    <glyph glyph-name="T" unicode="T" horiz-adv-x="1387" 
d="M608 606q4 52 6 105q7 247 -87 348q-71 77 -255 67q81 40 163 68q147 50 312 80q266 47 524 32q196 -11 334 -58q129 -47 159 -105q2 -3 4 -9q7 -22 25.5 -32.5t36.5 -4.5l7 3q18 6 25.5 25.5t-0.5 40.5q-4 14 -12 27q-33 64 -106 110t-166 69.5t-165.5 34.5t-147.5 15
q-267 15 -544 -34q-174 -30 -325 -83q-136 -48 -242 -108q-79 -47 -110 -70q-43 -33 -44 -67q0 -16 8 -34q21 -39 79 -37q32 1 72 8q110 13 150 14q120 3 153 -32q54 -57 51 -237q-1 -164 -53 -401q-10 -48 -16 -72q-87 -186 -137 -313q-28 -69 -44 -122q-18 -57 -20 -92
q-2 -39 10 -63q13 -22 32 -31q38 -16 69 26q15 21 31 57q36 80 76 206q45 135 78 278l4 8q24 52 110 228q83 169 214 419q14 27 43 80.5t44 80.5q7 12 19 33l22 38.5t19 33.5q10 17 6 39t-20 36l-7 5q-15 14 -35 12q-20 -3 -30 -20q-13 -22 -62 -108q-58 -108 -87 -163
q-91 -171 -171 -331z" />
    <glyph glyph-name="U" unicode="U" horiz-adv-x="2390" 
d="M2010 1218q-41 -94 -95 -201q-128 -256 -237 -491q-97 -209 -155 -363q-29 -77 -46 -138q-17 -56 -26 -112q-19 -116 28 -176q48 -61 147 -45q75 12 201 72q111 54 281 156q171 103 368 231q16 10 20 31.5t-7 40.5l-4 8q-11 20 -30 26t-36 -4q-205 -132 -364 -228
q-161 -97 -273 -152q-73 -36 -118 -51q-53 -17 -79 -18q-4 -1 -17 0t-16 5q-8 10 -5 33q0 25 4 44q5 33 23 97q18 60 44 129q48 127 152 354q90 194 235 486q80 162 117 255q24 63 30 91q14 62 -16 97q-36 42 -93 5q-26 -16 -82 -70q-51 -52 -123 -135q-59 -69 -173 -211
q-19 -23 -56 -69.5t-55 -69.5q-216 -273 -334 -416q-163 -198 -273 -314q-122 -129 -213 -192q-87 -60 -146 -54q-52 5 -72 27q-17 19 -19 62q-3 94 70 277q43 110 166 367q94 199 105 223q53 118 83 205q70 206 18 304q-22 42 -63 65q-76 41 -202 14q-118 -23 -251 -96
q-122 -67 -230 -163t-185 -212q-11 -16 -7.5 -38.5t19.5 -36.5l7 -6q16 -14 35.5 -12.5t29.5 17.5q138 211 384 346q121 66 225 87q96 21 140 -4q7 -3 11 -9q18 -27 2 -102q-9 -45 -28 -102q-28 -80 -80 -196q-20 -44 -104 -220q-123 -257 -169 -375q-81 -202 -78 -324
q3 -91 51 -147q51 -58 146 -67q89 -7 199 68q97 65 228 204q104 108 278 319q114 138 336 418q18 23 55 69.5t56 69.5q99 124 156 192q72 84 110 125z" />
    <glyph glyph-name="V" unicode="V" horiz-adv-x="2060" 
d="M2451 1393q20 0 32 15q14 14 12 37l-1 9q-1 22 -16 38t-34 17q-188 8 -461 -233q-110 -95 -247 -244q-104 -113 -248 -285q-86 -103 -254 -313q-130 -162 -196 -243q-100 -121 -169 -195q-60 -62 -92 -90q-33 -29 -61 -46q-27 -14 -34 -12q-10 5 -13 8q-25 27 -18 128
q4 53 18 131q19 104 92 382q10 36 14 53q39 141 61 241q32 139 42 225q33 255 -55 357q-25 30 -58 46q-92 47 -228 -1q-69 -25 -149 -78q-216 -143 -380 -402q-10 -17 -6.5 -39t19.5 -36l7 -6q16 -14 35.5 -12t29.5 19q154 241 353 375q70 47 151 75t136 0q9 -4 21 -16
q50 -57 24 -254q-14 -104 -41 -214q-10 -44 -59 -235q-10 -36 -14 -53q-70 -258 -95 -391q-52 -280 34 -374q25 -27 59 -39q55 -20 133 35q56 39 145 132q81 86 174 201q67 81 199 245q166 208 251 310q134 160 245 281q122 135 239 238q252 220 403 213z" />
    <glyph glyph-name="W" unicode="W" horiz-adv-x="2596" 
d="M1567 767q-8 -40 -40 -172q-31 -128 -43 -183q-39 -175 -47 -295q-11 -178 50 -262q40 -54 105 -68q111 -23 254 168q51 67 127 190q48 76 138 232q164 276 219 361q95 150 179 257q97 126 191 215q212 197 408 191q18 -1 32 14q13 16 11 38l-1 9q-1 22 -16 38t-34 17
q-230 6 -467 -212q-181 -168 -387 -490q-81 -129 -221 -367q-107 -181 -136 -228q-66 -108 -121 -182q-43 -56 -74 -86q-61 -58 -95 -51q-21 6 -31 17q-38 39 -29 178q7 112 44 278q8 35 24 102t18 77q18 71 29 119q17 79 20 101q17 105 -17 146q-9 12 -26 21
q-33 14 -77 -24q-23 -20 -65 -66q-53 -59 -189 -221q-140 -166 -211 -248q-92 -107 -169 -188q-84 -90 -157 -157t-125 -96q-34 -19 -51 -19q-4 13 -4 52q3 47 15 109q14 70 40 162q36 127 135 393q97 262 124 360q51 194 23 292q-43 147 -221 137q-51 -3 -117 -20
q-5 -1 -13 -3q-60 -18 -135 -52q-92 -42 -171 -91q-8 -5 -24 -15.5t-24 -15.5q-213 -149 -215 -297q0 -30 9 -62l1 -4q6 -21 24 -34q18 -11 36 -6l8 2q18 5 26 24t2 40l-1 4q-9 31 7 67t50 69.5t60 55t53 40.5q8 6 24 16t20 13q73 45 161 85q66 32 124 48q1 0 5 1t5 2
q50 14 100 18q78 3 101 -27q1 -2 9 -20q18 -63 -25 -223q-22 -76 -53 -165q-38 -107 -67 -184q-102 -275 -138 -402q-26 -87 -41 -166q-15 -75 -17 -125q-6 -127 54 -173q9 -7 17 -10q89 -43 274 124q74 66 163 162q70 74 173 191q33 38 213 251q134 159 176 207q2 3 7 8
t7 8z" />
    <glyph glyph-name="X" unicode="X" horiz-adv-x="1953" 
d="M565 307q113 -206 257 -355q156 -160 288 -199q176 -52 364 15q105 38 210 110q164 112 320 297q13 16 11.5 38t-16.5 38l-6 6q-14 16 -33.5 17t-32.5 -14q-149 -177 -302 -281q-169 -114 -322 -130q-94 -10 -178 16q-107 31 -240 170q-137 140 -249 349l3 3
q226 243 534 513q161 140 260 218q15 12 17 33.5t-11 40.5l-5 7q-13 19 -31 24q-19 4 -35 -8q-102 -82 -264 -221q-292 -257 -522 -500q-182 407 -192 905q0 22 -14 39t-33 19l-8 1q-19 2 -33 -12t-13 -36q10 -548 221 -995q-105 -115 -192 -227q-119 -151 -195 -288
q-183 -330 -93 -539q9 -20 28 -29t36 -1l7 3q17 8 23 28q6 21 -3 41q-44 102 13 264q50 141 171 316q103 150 260 324z" />
    <glyph glyph-name="Y" unicode="Y" horiz-adv-x="1707" 
d="M1185 781q0 -1 -1 -2q-90 -370 -212 -630q-341 -20 -517 -56q-62 -13 -120.5 -32t-120 -49.5t-110.5 -77t-74 -103.5q-31 -71 -20 -142q12 -72 63 -128q60 -66 146.5 -89t176.5 -14q293 32 519 364q65 95 124 214h2q556 52 748 126q17 9 21 30t-6 41l-4 8q-10 19 -29 27
q-18 8 -36 -2q16 -9 -164 -45q-296 -58 -477 -66q108 251 189 581q28 120 -6 166q-12 15 -30 23q-32 14 -77 -11q-18 -10 -39 -28q-45 -35 -129 -115q-154 -144 -244 -213q-129 -101 -236 -142q-64 -24 -98 -31q-38 -8 -64 -5q-20 0 -27 10q-2 2 -3 4q-14 38 22 164
q25 83 104 277q77 182 107 283q15 53 22 95q14 88 -15 143q-4 7 -12 19q-57 75 -194 38q-58 -15 -146 -56q-89 -43 -196 -106q-16 -10 -20.5 -31t5.5 -41l5 -8q11 -20 29.5 -27t34.5 3q124 71 195 105q80 37 133 51q25 7 47 8q27 0 33 -6q7 -15 0 -67q-8 -39 -19 -75
q-26 -89 -102 -270q-85 -214 -108 -288q-49 -163 -17 -247q45 -117 204 -89q59 11 122 37q117 44 256 152q94 73 252 221q71 65 83 76q20 18 30 26zM912 28q-45 -79 -79 -129q-205 -298 -458 -325q-64 -7 -130 7t-105 58q-25 28 -30 59q-5 32 11 72q31 66 111 115
q97 62 252 94q175 35 428 49z" />
    <glyph glyph-name="Z" unicode="Z" horiz-adv-x="1853" 
d="M777 -55q7 5 21 17q104 90 196 196q258 293 410 648q69 163 90 283q25 141 -18 209q-4 8 -12 16q-81 94 -259 98q-153 4 -339 -55q-102 -33 -183 -74q-120 -60 -201 -128q-95 -80 -132 -165q-32 -81 -19.5 -147t63.5 -123q14 -15 33 -14t33 18l6 7q14 17 14.5 39
t-12.5 37q-60 66 -28 138q25 58 97 118q74 63 179 114q81 41 168 68q169 55 308 52q143 -4 198 -68q0 -1 2 -3q18 -29 3 -125q-21 -112 -81 -251q-143 -334 -388 -614q-89 -101 -184 -183q-60 -50 -91 -73q-140 32 -253 23q-256 -18 -352 -112q-34 -32 -43 -72.5t13 -80.5
q34 -54 126 -66q98 -11 228 32q138 46 292 153q90 -25 226 -76q167 -62 248 -79q137 -27 234 13q94 41 161 148q12 18 9 40q-1 21 -18 34l-6 4q-16 12 -35 7.5t-31 -23.5q-46 -74 -107 -100q-70 -31 -181 -8q-75 15 -235 75q-100 36 -150 53zM507 -114q-80 -45 -159 -71
q-107 -36 -187 -27q-35 3 -55 16l2 2q65 63 288 82q53 4 111 -2z" />
    <glyph glyph-name="bracketleft" unicode="[" horiz-adv-x="1104" 
d="M304 -548q-38 -10 -71 -14q-46 -6 -70 -6q-26 0 -46 4q-11 3 -11 5l-1 2q-6 13 4 85q12 86 43 209q32 141 84 313q51 172 127 399q62 189 127 361q57 152 117 303q54 134 94 214q29 62 48 83q6 2 8 4q9 7 27 7q22 0 47 -5q32 -8 47 -14q26 -10 38 -17h1q47 -22 67 23
q9 20 -3 42q-11 20 -31 29q-20 10 -71 27q-53 17 -107 17t-79 -19q-25 -18 -59 -77q-34 -62 -69 -141q-41 -92 -78 -186q-42 -105 -81 -210q-56 -154 -76 -212q-37 -105 -65 -190q-17 -50 -49 -150q-32 -102 -62 -201q-11 -37 -32.5 -111.5t-32.5 -111.5q-35 -122 -55 -216
q-24 -115 -31 -176q-9 -80 8 -116v-1q24 -44 71 -61q44 -17 98 -17q40 0 85 8q42 8 63 14q1 0 5 2h3q4 0 10 2q35 17 27 61q0 2 -1 3q-9 24 -27 34t-41 1z" />
    <glyph glyph-name="backslash" unicode="\" horiz-adv-x="593" 
d="M5 1588q-8 26 -2.5 57t22.5 51l6 7q17 19 33 15q17 -5 25 -30q34 -106 98 -322q121 -416 196 -714q39 -149 82 -341q39 -180 64 -321q61 -344 31 -503q-5 -31 -21.5 -50t-33.5 -14l-7 2q-17 5 -25 31q-7 22 -2 57q21 107 -33 408q-19 111 -62 311q-42 179 -81 334
q-85 334 -194 705q-49 166 -96 317z" />
    <glyph glyph-name="bracketright" unicode="]" horiz-adv-x="995" 
d="M683 1359q23 6 71 14q38 5 70 5q26 0 47 -4q8 0 10 -5q1 -1 1 -2q6 -13 -4 -84q-11 -75 -42 -210q-33 -138 -85 -313q-64 -213 -127 -399q-63 -192 -127 -360q-72 -193 -117 -303q-56 -139 -94 -214q-26 -60 -48 -84q-2 0 -8 -4q-10 -7 -27 -7q-23 0 -47 6q-23 4 -47 14
q-16 5 -38 16l-1 1q-47 20 -67 -23q-8 -18 3 -42q10 -20 31 -30q12 -6 71 -26q51 -18 107 -18q54 0 79 20q25 17 59 76q32 57 69 141q31 69 78 187q42 103 81 210q48 128 76 211q51 149 65 191q17 49 49 149q42 134 62 201q50 171 65 224q34 121 55 215q21 96 31 176
q10 82 -8 117q-21 43 -71 62q-45 16 -98 16q-48 0 -85 -8q-42 -8 -63 -13q-4 -2 -5 -2q-1 -1 -3 -1q-7 0 -10 -2q-36 -16 -27 -60q0 -1 0.5 -2t0.5 -2q9 -24 27 -33.5t41 -0.5z" />
    <glyph glyph-name="asciicircum" unicode="^" horiz-adv-x="668" 
d="M558 1087l106 -349q5 -17 22 -25t35 -5l1 1q17 3 30 17q11 15 5 33l-135 447q-9 28 -40 31t-47 -20l-327 -471q-10 -16 -4.5 -32.5t22.5 -24.5l2 -1q17 -8 35 -3q18 3 28 18z" />
    <glyph glyph-name="underscore" unicode="_" horiz-adv-x="1009" 
d="M618 -136q48 -1 86.5 13.5t45.5 34.5l3 9q6 20 -23 35q-28 15 -77 15q-300 3 -601 3q-136 5 -216 -30q-54 -23 -32 -45q33 -34 221 -33q396 0 593 -2z" />
    <glyph glyph-name="grave" unicode="`" horiz-adv-x="379" 
d="M130 1243q-12 13 -37 16.5t-48 -4.5l-10 -3q-23 -8 -32 -23q-7 -13 3 -27q82 -87 150 -155q29 -38 89 -42q51 -3 62 24q8 25 -29 61q-100 102 -148 153z" />
    <glyph glyph-name="a" unicode="a" horiz-adv-x="1085" 
d="M372 226q-1 -37 5 -77q14 -100 53 -159t90.5 -76.5t117.5 -9.5t127.5 34.5t126 65t109 71t80.5 63.5q29 25 41.5 36.5t23.5 33.5t7 44q-5 26 -21 35.5t-34.5 4.5t-36.5 -20q-184 -158 -289 -214q-283 -152 -276 197q1 42 6 91q4 65 -48 81q-35 10 -81 -34l-30 -30
q-10 30 -37 38q-62 17 -130 -2t-120 -61q-89 -72 -119 -176q-16 -54 -8 -98q12 -67 64 -89q60 -26 149 33q30 21 73 60q34 30 78 76q78 81 79 82zM276 292q-8 -9 -17.5 -18.5t-20.5 -21.5t-17 -18q-32 -34 -74 -72q-34 -33 -64 -52q-31 -22 -55 -27q1 11 6 31q23 79 92 131
q73 57 150 47z" />
    <glyph glyph-name="b" unicode="b" horiz-adv-x="863" 
d="M41 183q104 70 141 97q178 131 318 256q24 21 70 65q61 58 120 128q46 55 83 116q66 109 70 197q4 98 -65 150q-60 46 -152 29q-106 -22 -223 -122q-128 -112 -237 -296q-61 -102 -121 -252q-37 -92 -81 -230q-58 -187 -98 -367q0 -4 -1.5 -10.5t-2.5 -10.5
q-2 -22 7.5 -42t30.5 -29q38 -19 63 18q8 13 29.5 53t37.5 63q31 46 73 81t82 47q18 5 30.5 -3t11 -40.5t-28.5 -85.5q-10 -4 -25 -7t-32.5 -9t-42.5 -19q-35 -14 -55 -49t-10 -65q19 -50 82 -44q49 8 103.5 42t77.5 37q65 7 212 74.5t269.5 142t129.5 99.5q5 20 -5 42l-1 2
q-11 21 -30 29.5t-40 -5.5q-77 -60 -244.5 -151.5t-270.5 -107.5q5 12 10.5 32t5 59.5t-15.5 73.5q-16 28 -36.5 44t-39 21.5t-42 0.5t-40.5 -12t-41 -23.5t-36.5 -26.5t-33.5 -28.5t-26 -22.5q1 1 10 29.5t10 29.5zM94 361q28 77 49 133q57 143 115 240q100 170 220 275
q97 85 183 102q47 9 65 -5q14 -10 11 -41q-2 -63 -56 -151q-31 -52 -76 -105q-43 -52 -113 -121q-34 -32 -68 -62q-134 -122 -312 -252q-3 -2 -9 -6.5t-9 -6.5z" />
    <glyph glyph-name="c" unicode="c" horiz-adv-x="993" 
d="M252 175q-13 -16 -12 -38.5t15 -36.5l6 -6q14 -14 33.5 -12.5t32.5 17.5q68 88 60 173q-5 50 -35 85q-27 31 -70 44q-97 28 -203 -53q-56 -42 -96 -100q-47 -69 -60 -141q-16 -88 22 -155q17 -31 42 -53q55 -49 164 -50t232 33.5t254 87t233 105t166 94.5q17 11 21.5 34
t-7.5 40l-5 7q-14 17 -32 17q-11 1 -44 -16t-94 -51t-109 -57q-576 -277 -716 -152q-13 12 -20 25q-16 29 -8 70q8 44 40 92q32 45 71 74q70 52 123 36q15 -4 23 -14q7 -9 7 -17q3 -32 -34 -82z" />
    <glyph glyph-name="d" unicode="d" horiz-adv-x="1390" 
d="M479 460q-79 -115 -147 -201q0 32 -25 49q-70 45 -145 45q-56 1 -119 -27q-82 -39 -141.5 -122t-72.5 -179q-15 -111 43 -171.5t158 -23.5q160 59 399 368q-13 -158 38 -254q31 -62 84 -91.5t115 -27.5t134.5 23.5t144 58t142.5 79.5t130 84t107 75q36 26 50 36
q17 11 21 32.5t-8 40.5l-5 8q-11 19 -32 23.5t-37 -6.5q-14 -9 -70 -51.5t-108.5 -79t-125.5 -84.5t-137.5 -77t-127 -47t-111 -3.5t-73.5 61.5q-56 107 16 367q24 33 84.5 111.5t111.5 145.5t112 159t100.5 168.5t60.5 157t8 140.5q-7 33 -34.5 52.5t-62 20.5t-75 -23
t-70.5 -71q-98 -152 -209 -417q-80 -192 -123 -349zM286 202q-51 -63 -108 -120q-179 -185 -222 -133q-14 17 -12 60q10 69 49.5 126t97.5 84q38 19 76 19q44 -1 86 -28q16 -11 33 -8zM650 632q25 89 123.5 290.5t134.5 243.5q30 35 35 8q5 -31 -26 -102q-41 -96 -136 -248
t-131 -192z" />
    <glyph glyph-name="e" unicode="e" horiz-adv-x="991" 
d="M-203 133q113 15 196 89q93 82 102 172q8 70 -40 97q-62 35 -163 -33q-36 -25 -74 -61q-62 -60 -95 -128.5t-35 -132.5t24 -122.5t76 -100t128.5 -64t173.5 -15.5q55 4 112 16.5t100 25t105 42t93 44.5t100.5 57t91 55.5t98.5 62.5q23 19 15 51.5t-32 46t-49 -1.5
q-31 -19 -102.5 -65t-107.5 -68.5t-101 -57.5t-111.5 -52.5t-108 -32.5t-120.5 -17q-132 -6 -214 51q-45 29 -59 62.5t-3 79.5zM-142 263q2 12 42.5 48t56.5 41q6 2 1 -8q-17 -29 -55 -61q-29 -24 -45 -20z" />
    <glyph glyph-name="f" unicode="f" horiz-adv-x="887" 
d="M-230 146q33 20 99 62q134 89 221 167q108 94 163 182q71 116 45 218q-6 19 -15 39q-24 46 -58 67q-14 8 -21 10q-79 29 -172 -64q-42 -42 -81 -99q-38 -54 -83 -131q-53 -89 -110 -206q-52 -106 -105 -229q-105 -243 -177 -458q-32 -93 -57 -189q-6 -25 -18 -77
q-6 -32 -9 -63q-8 -97 15 -146q16 -34 48 -49q31 -15 67 -2q43 16 78 77q12 19 22 47q7 20 19 60q20 72 32 142q13 63 19 137q6 72 -1 113q-13 61 -1 77q7 8 51 13q7 1 20 2.5t19 2.5q23 1 62 5q209 16 442.5 96t390.5 196q16 15 11 38.5t-24 37.5l-2 1q-32 25 -77 -9
q-127 -89 -354.5 -162.5t-401.5 -87.5q-21 -1 -63 -5q-17 -1 -46 -5q-1 0 -13 -2t-18 -4q36 92 83 198zM-419 -339v-5q-6 -64 -18 -127q-14 -79 -30 -132q-10 -34 -16 -51q-5 -15 -14 -32q-1 0 -1 -1t-1 -2q0 26 2 48q3 26 9 56q8 41 18 76q23 88 51 170zM-141 339
q55 112 106 199q36 63 78 123q37 53 70 86q18 17 34.5 18.5t25 -5.5t11.5 -15q19 -52 -28 -127q-46 -75 -143 -159q-70 -61 -154 -120z" />
    <glyph glyph-name="g" unicode="g" horiz-adv-x="1383" 
d="M347 -97q9 51 14 83q13 86 7 164q-7 84 -37 133q-37 68 -108 78q-78 12 -162 -57q-6 -5 -33 -29q-69 49 -158.5 53.5t-165.5 -29.5q-67 -27 -120 -69q-54 -41 -87 -91q-60 -94 -19 -172q21 -38 56 -59q70 -41 183 4q37 15 66 31q70 40 151 102q4 4 10 7l18 15q10 8 26 22
q24 20 70 60q5 5 30 28t42 37.5t41 27t41 10.5q14 -2 23 -20q15 -25 22 -85q4 -67 -7 -141q-11 -78 -31 -149q-112 -42 -167 -65q-207 -84 -367 -174q-146 -80 -266 -173q-210 -164 -269 -321q-27 -70 -21 -133q8 -67 47 -115q13 -15 28 -28q58 -48 143.5 -57.5t155.5 12.5
q206 51 397 248q224 229 371 604q25 65 41 115q6 2 18 6.5t18 6.5q226 91 383 172t302 185q19 13 21.5 36t-12.5 41l-2 2q-13 17 -35 20.5t-40 -8.5q-302 -203 -618 -328zM-57 200q-9 -7 -29 -25q-5 -4 -13.5 -11t-12.5 -10q-2 -2 -6 -5t-6 -5q-5 -3 -13 -9
q-81 -63 -138 -94q-24 -12 -54 -26q-63 -25 -85 -11q-6 2 -10 11q-10 19 16 60q23 36 63 66q43 34 95 54q112 44 193 5zM174 -281q-1 -2 -3.5 -8.5t-3.5 -10.5q-140 -354 -349 -570q-173 -175 -347 -219q-132 -33 -198 21q-57 47 -18 148q48 129 236 277q109 84 252 163
q153 85 356 169z" />
    <glyph glyph-name="h" unicode="h" horiz-adv-x="1055" 
d="M-12 85l18 48t17 46q2 2 69.5 45t164.5 106.5t212.5 153.5t214.5 180.5t169.5 193t79.5 186.5q11 99 -60 151q-43 32 -101 34t-115.5 -21.5t-103 -49.5t-84.5 -57q-96 -75 -183 -181t-152 -217t-125 -246t-100.5 -251t-80.5 -249q-21 -69 30 -93q55 -25 87 30
q42 71 118 128.5t100 -0.5q5 -12 14 -38t15 -43t19 -40.5t26 -37t35.5 -26.5t49 -16.5t64 2t82.5 21.5q32 11 69.5 29t68.5 34.5t77 44.5t71.5 44t75.5 50.5t66.5 46t67.5 47t56 39.5q16 11 19.5 28.5t-4 33t-20.5 27.5t-30.5 13.5t-34.5 -9.5q-39 -28 -118.5 -87t-130 -95
t-124 -78.5t-138.5 -66.5q-39 -14 -65.5 -14t-39.5 10.5t-22.5 31t-14 42.5t-14.5 50.5t-25 48.5q-33 47 -90 48.5t-103.5 -22.5t-76.5 -55zM95 363q99 233 197 373q39 57 86.5 113t107 113.5t128 99t130.5 52.5q43 7 62.5 -2t15.5 -45q-5 -48 -40 -107t-84 -114t-120 -119
t-132.5 -113t-138 -104t-119.5 -84.5t-93 -62.5z" />
    <glyph glyph-name="i" unicode="i" horiz-adv-x="700" 
d="M147 386q10 22 2 47t-29 39l-9 6q-21 13 -43 7t-33 -28l-9 -21q-10 -22 -2 -48t30 -39l8 -5q22 -14 44 -7.5t32 28.5zM81 185q8 19 2 40q-6 20 -28 33l-7 5q-18 12 -38 7.5t-27 -23.5q-25 -78 -35 -143q-22 -165 82 -203q108 -40 336 57q106 45 210.5 106t159.5 104
q20 15 27.5 37.5t-1.5 39.5q-12 20 -36 26.5t-45 -6.5q-116 -88 -299 -180t-270 -76q-94 17 -31 176z" />
    <glyph glyph-name="j" unicode="j" horiz-adv-x="734" 
d="M-1211 318q-8 0 -26 6q-20 6 -33 29q-8 13 -8 31q0 9 1 13l6 32q3 18 15.5 29t29.5 11q7 0 25 -6q21 -8 33 -29q8 -13 8 -32q0 -9 -1 -13l-5 -31q-4 -18 -16.5 -29t-28.5 -11zM-2315 -1454q-141 0 -231 71t-90 186q0 89 61.5 193t189.5 212q315 266 957 479q13 43 25 93
t20 85.5t20 97.5t16.5 86.5t18 98.5t16.5 91t18 27.5t34 10.5q36 0 54 -31q8 -16 8 -30l-1 -11q-45 -249 -106 -476q150 57 354.5 197.5t382.5 301.5q10 28 38 28q23 0 42.5 -18.5t19.5 -43.5q0 -6 -4 -20q-112 -116 -243.5 -219t-238 -167t-197.5 -111t-142 -67l-51 -19
q-64 -222 -157 -403t-193 -298.5t-211.5 -196.5t-212.5 -113t-197 -34zM-2320 -1346q74 0 156.5 29t178.5 97t185.5 168t176.5 255t152 345q-225 -79 -406.5 -165t-298 -163.5t-195 -154.5t-111.5 -140t-33 -118q0 -70 53.5 -111.5t141.5 -41.5z" />
    <glyph glyph-name="k" unicode="k" horiz-adv-x="974" 
d="M682 90l-35 -22l-55 -33t-64 -34.5t-74.5 -33t-72.5 -20t-73 -5.5t-61.5 21t-49.5 50q11 12 71 43.5t83 60.5q12 21 9.5 48.5t-26.5 45t-56 4.5q-7 -3 -99 -71q-109 -80 -110 -56q0 4 2 10q19 86 24 96q21 16 23 17q24 20 99 77q175 135 305 257q35 31 67 64
q66 68 113 128q47 62 76 116q59 111 57 197q-4 99 -76 151q-64 45 -157 28q-107 -21 -218 -122q-125 -114 -221 -296q-56 -106 -105 -252q-37 -111 -66 -230q-42 -169 -74 -366q-2 -14 -2 -22q0 -1 -0.5 -7t0.5 -6q6 -34 33 -53q18 -12 35 -11t26.5 7t27 21.5t25.5 21.5
q3 2 7.5 6t6.5 5.5t6 3.5t6.5 1.5t6 -2t7.5 -4.5q41 -38 87 -59.5t86 -30t91 -1.5t86 15.5t87.5 32t79 37t76.5 40.5q154 85 332 227q15 12 14.5 34t-16.5 41l-1 2q-18 20 -38 24q-22 4 -38 -8q-142 -113 -267 -188zM122 369q15 56 40 133q48 143 100 240q91 171 204 275
q97 87 180 102q44 11 66 -5q14 -9 14 -41q2 -62 -46 -150q-32 -57 -70 -106q-48 -61 -107 -120q-35 -36 -64 -63q-127 -119 -300 -252q-2 -2 -8 -6t-9 -7z" />
    <glyph glyph-name="l" unicode="l" horiz-adv-x="919" 
d="M65 168q335 192 540 411q182 194 232 377q43 155 -22 256q-35 54 -88 72.5t-112 7.5q-113 -22 -234 -139q-131 -126 -252 -352q-77 -144 -120 -280q-75 -235 -38 -394q25 -109 80.5 -175t127.5 -87t158.5 -14t173.5 38.5t174 77t158 95.5t126 99q35 33 11 66l-5 7
q-14 18 -33 21.5t-34 -9.5q-46 -41 -105.5 -84.5t-132.5 -85.5t-146.5 -73t-147 -44t-134 -3t-106.5 56t-66 127q-2 5 -3 15.5t-2 13.5zM67 306q23 183 150 427q110 207 234 328q104 100 192 116q67 14 93 -27q31 -48 4 -148q-42 -158 -209 -335q-179 -191 -464 -361z" />
    <glyph glyph-name="m" unicode="m" horiz-adv-x="1531" 
d="M54 160q3 16 7 41q3 20 -9 40q-13 19 -31 25l-8 2q-19 5 -34.5 -6.5t-18.5 -32.5q-3 -29 -20 -82q-5 -13 -13 -39l-7 -22q-22 -68 -22 -105q-2 -44 27 -67q32 -29 70 -5q6 4 12.5 9.5t12 10.5t13 13.5t11.5 13.5t12 15.5t11 14t11 15t9 12.5q118 169 193 252
q22 25 38 41.5t33.5 33.5t28 23.5t20.5 10t13.5 -5t3.5 -24.5t-6.5 -45t-18.5 -70q-2 -6 -5.5 -18.5t-5.5 -18.5q-25 -83 -31 -114q-17 -77 11 -114q35 -48 96 -17q33 17 94 71q64 60 108 96q55 45 67 47q11 2 14 -13q1 -9 1 -24q-6 -133 18 -196q7 -18 18 -37
q47 -75 144 -82q60 -5 136.5 18t141 56t144.5 86.5t125.5 88t106.5 82.5q14 14 14.5 36t-13.5 40l-6 6q-14 18 -33 21q-19 1 -33 -12q-7 -5 -47.5 -36t-59 -44.5t-61.5 -45t-70.5 -48t-69.5 -42.5t-74.5 -40t-70 -28.5t-70.5 -19.5t-63 -3q-46 2 -61 28l-6 12q-12 32 -9 141
q5 33 1 81t-24 76q-47 63 -137 10q-36 -19 -85 -59q-40 -32 -116 -102q-2 -1 -4.5 -3.5t-6.5 -6t-7 -6.5q3 9 7.5 26t6.5 23l12 39q40 134 37 196q-2 49 -27.5 80.5t-67.5 34.5q-93 5 -226 -142q-66 -73 -151 -192z" />
    <glyph glyph-name="n" unicode="n" horiz-adv-x="1108" 
d="M40 177q0 2 1 5.5t2 5.5q6 19 -2 41q-14 33 -48.5 37.5t-45.5 -30.5q-4 -13 -14 -39q-4 -10 -11 -29.5t-10 -29.5q-36 -91 -40 -142q-3 -41 17 -68q16 -21 38.5 -25t40.5 9q34 20 94 105q99 140 177 212q54 49 84.5 63.5t38 -4.5t0.5 -56.5t-28 -97.5q-41 -117 -49 -167
q-10 -60 4.5 -101t46 -57t73.5 -21t86 7q111 24 208.5 75t224 143.5t160.5 113.5q46 33 27 82q-12 29 -30 34q-6 1 -10 -1q-60 -34 -146.5 -92.5t-147.5 -100t-147 -82t-168 -58.5q-15 -3 -27 -3.5t-19.5 3t-13.5 8t-8 13.5t-3 17.5t1.5 22t5 24.5t7.5 27.5t9.5 29
t10.5 30.5q1 2 9.5 26.5t10.5 31.5t9 29t9.5 33.5t7 30t5.5 33.5t1 29q0 52 -26.5 86t-72.5 39q-96 12 -212 -96q-63 -59 -130 -146z" />
    <glyph glyph-name="o" unicode="o" horiz-adv-x="948" 
d="M318 -16q137 -13 243.5 7t223.5 69q53 22 143.5 65t100.5 58q14 21 5 45l-4 8q-10 22 -27 31q-19 10 -36 2q-161 -91 -242 -123q-176 -71 -345 -62q22 54 33 113q16 81 -1 157q-22 84 -79 129q-22 15 -43 24q-72 24 -135 4t-112 -72q-39 -44 -59 -95q-22 -57 -15 -119
q3 -21 7 -35l-2 -4t-2 -3.5t-2 -4t-2 -4.5q-24 -52 -24 -118q2 -66 29 -119q34 -63 90 -82q78 -27 168 41q44 32 87 88zM180 7q-17 -19 -48.5 -34t-52.5 -7q-13 4 -21 20q-12 21 -12 54q0 18 3 35q12 -11 38 -29q28 -18 93 -39zM259 99q-80 13 -132 46q-12 7 -24 18
q22 16 53 23q18 5 26.5 23t2.5 40l-3 9q-6 22 -23.5 34.5t-35.5 8.5q-21 -4 -44 -14q13 33 39 61q31 32 72.5 48.5t79.5 1.5q8 -3 15 -9q20 -15 29 -50q11 -45 0 -102q-9 -51 -37 -106q-12 -22 -18 -32z" />
    <glyph glyph-name="p" unicode="p" horiz-adv-x="1064" 
d="M-261 32q-33 -16 -114.5 -47.5t-115.5 -48.5q-24 -12 -45 -31.5t-33.5 -42.5t-2 -46.5t47.5 -39.5q68 -29 173 21q92 44 155 131q100 29 227 73q190 66 320 121q3 1 10 4q18 7 28 12t23 14t17.5 21.5t2.5 28.5q-3 28 -29.5 47.5t-53.5 0.5l-30 -14q-182 -79 -446 -164
q13 50 14 100.5t-19 102t-64 77.5q-83 51 -208 -26q-113 -72 -241 -248q14 106 3 147q-8 33 -36 42t-48.5 -10t-12.5 -52q7 -26 -19 -180.5t-35 -175.5q-4 -7 -10.5 -20.5t-12.5 -24.5t-13 -19q-32 -36 -88.5 -127.5t-120 -214t-107 -244.5t-49.5 -218.5t52 -136.5
q15 -10 30 -11t29.5 8t27 18.5t26.5 30t23 33.5t20.5 37t16 33t13.5 28q101 222 181 481q45 147 77 290q87 148 168 251q102 130 183 180q78 49 111 28q11 -7 16 -23q13 -42 -1.5 -98t-39.5 -98zM-946 -623q-4 -15 -36.5 -99.5t-62.5 -161.5l-30 -76q28 125 50 170
q17 52 79 167z" />
    <glyph glyph-name="q" unicode="q" horiz-adv-x="1296" 
d="M347 180q-1 -1 -1 -4t-1 -4q-19 -60 -62 -152q-49 -106 -112 -223l-2 -3q-79 -146 -146 -290q-59 -127 -100 -234q-39 -101 -60 -182q-21 -77 -26 -134q-11 -113 48 -148q11 -6 22 -9q67 -16 147 80q39 49 85 131q45 83 86 190q94 242 144 548q13 79 32 99q11 11 58 17
q3 1 62.5 10t73 11.5t72.5 13.5t82.5 18.5t80.5 24t89.5 32t86 40t93.5 51t89 62t94 76.5q15 18 14.5 40t-15.5 37l-2 2q-14 16 -36 17q-25 2 -43 -18q-70 -73 -160 -127t-193.5 -88t-197 -54t-207.5 -35q-49 -9 -63 -14q1 4 5 12q49 106 69 171q32 110 -4 153
q-43 51 -124 4q-21 -12 -61 -43q-1 -1 -3 -2.5t-3 -2.5q-21 35 -59 56q-49 25 -109 16q-84 -11 -162.5 -85.5t-118.5 -161.5q-24 -49 -25 -93q-3 -67 46 -96q49 -30 138 4q55 22 120 68q81 56 174 144l1 1q31 29 62 56q4 3 11 9t11 9zM172 176q-74 -69 -146 -120
q-57 -40 -98 -56q-18 -8 -32 -10q4 19 14 40q27 59 83.5 117t110.5 65q28 4 44 -5q14 -8 21 -26q2 -4 3 -5zM249 -294q-45 -251 -127 -466q-42 -106 -81 -177q-39 -72 -73 -112q-12 -16 -21 -24q0 11 1 17q3 43 22 114q24 86 57 171q40 105 97 227q60 127 125 250z" />
    <glyph glyph-name="r" unicode="r" horiz-adv-x="901" 
d="M16 261l2 8q57 128 9 200q-32 49 -91 43q-65 -6 -104 -75q-22 -41 -29 -96q-7 -68 28 -114l2 -2q31 -36 87 -52q28 -9 137 -28q41 -6 27 -60q-39 -127 -1 -204q17 -38 54 -60q35 -21 82.5 -23t97 11.5t107 39.5t108.5 56.5t107 67t97.5 66.5t83 59.5t61.5 42.5
q41 23 22 63l-4 8q-5 10 -20 21t-39 16.5t-46 -18.5q-85 -86 -250 -196.5t-270 -132.5q-56 -12 -75.5 17t-9.5 87q2 9 5.5 27.5t7 32t8.5 26.5q16 79 -29 122q-14 13 -47 23t-73.5 16.5t-44.5 7.5zM-90 293q-8 6 -6 21q5 51 25 68q12 10 13 -6q1 -25 -32 -83z" />
    <glyph glyph-name="s" unicode="s" horiz-adv-x="769" 
d="M-39 -41q87 25 227 58.5t240 65t213 84.5q16 7 21 27.5t-5 41.5l-4 9q-11 24 -20 32t-24 0q-76 -40 -163.5 -72t-151 -49t-177 -45.5t-183.5 -47.5q-38 149 -1 198q28 38 11 72.5t-51 39.5t-53 -12q-76 -95 -10 -335q-15 -6 -48.5 -22t-84.5 -51t-67 -67q-21 -41 -20 -80
q3 -56 43 -96q41 -39 112 -49q33 -5 74 2q62 13 100 59q47 58 37 157q-5 41 -15 80zM-131 -71q5 -20 6 -37q6 -96 -45 -126q-39 -23 -77 0q-37 22 -26 61q16 57 134 98q2 2 8 4z" />
    <glyph glyph-name="t" unicode="t" horiz-adv-x="893" 
d="M-58 722q230 18 454 16q40 0 58 42q17 39 -4 62q-11 12 -30 12q-183 1 -393 -12q84 121 207.5 279t183.5 223q30 32 -1 60q-30 27 -72 18q-21 -4 -36 -19q-37 -37 -199 -256t-224 -312q-74 -8 -162 -25q-294 -56 -387 -180q-47 -64 -24 -117q15 -35 47 -33q7 0 14 3
q25 10 34.5 24.5t11 29.5t5 32t22 35t55.5 35.5t113 36t187 35.5q-354 -558 -288 -776q18 -61 62 -93t104 -34t131 12.5t150 47.5t153.5 70t148.5 81.5t128.5 80.5t98.5 68q38 27 31 69q-6 32 -33 37q-18 3 -37 -8q-17 -10 -63 -39t-93.5 -58t-111 -67t-122.5 -68.5
t-122 -60t-115.5 -44t-96 -17.5t-71 16.5t-33.5 60.5q-12 74 49 231t138.5 296t131.5 206z" />
    <glyph glyph-name="u" unicode="u" horiz-adv-x="1085" 
d="M309 47q-4 -19 -5 -32q-9 -74 11.5 -136t80.5 -91q42 -20 90 -20t94 16t96.5 45t95.5 64t93 75.5t86.5 76.5t78.5 71t67 54q16 12 20 30t-8 37l-4 8q-12 19 -31 24.5t-35 -5.5q-17 -15 -86.5 -81.5t-123 -114.5t-130.5 -101t-137 -72q-51 -18 -81.5 -9t-46 31.5t-17 59.5
t5.5 76t21 82q21 65 21 94q-2 47 -33 68q-32 22 -65 0q-15 -9 -40 -38q-23 -27 -53 -69q-104 -145 -177 -212q-89 -82 -144 -75h-3q0 7 -1 9q0 58 74 237l15 36q8 19 0 40q-6 22 -25 33l-7 4q-17 11 -35 5.5t-26 -24.5q-10 -24 -15 -35q-1 -4 -9.5 -24t-11.5 -27t-11 -27.5
t-11.5 -30t-10 -28.5t-9.5 -31t-7.5 -29.5t-6.5 -30.5t-3.5 -28t-1.5 -28q0 -56 28 -93t78 -43q97 -12 212 97q67 62 143 162z" />
    <glyph glyph-name="v" unicode="v" horiz-adv-x="1003" 
d="M251 42q15 26 31 62q22 50 26 89q8 79 -41 94q-45 13 -96 -32q-64 -57 -70 -150q-2 -39 11 -70q-28 -34 -81 -80q-79 -69 -73 -20v3q6 39 24 107q11 43 35 127q4 12 5 18q6 20 -2.5 41t-27.5 30l-7 3q-19 10 -36.5 2t-22.5 -28q-1 -4 -3 -10t-3 -10q-20 -67 -36 -130
t-26 -117q-20 -125 29 -167q28 -23 63 -16q130 27 239 162q51 -23 120 -23t135 15.5t149 46t144.5 58.5t138.5 63.5t116 51.5q20 8 30 26.5t2 38.5l-3 8q-8 21 -27 31q-17 9 -35 3q-25 -12 -63.5 -31.5t-73.5 -37t-79.5 -39t-85 -39.5t-85.5 -35.5t-87 -29t-83 -19
t-79.5 -6.5t-71.5 10z" />
    <glyph glyph-name="w" unicode="w" horiz-adv-x="1234" 
d="M361 54q-41 -64 -99 -108q-53 -43 -53 18q0 27 11 88q12 67 27 128q6 24 -4 47t-32 32q-34 14 -68 -31q-15 -19 -35 -51q-46 -68 -56 -82q-7 -9 -17 -26q-14 -20 -16 -20q-3 1 8 46q8 33 26 97q6 20 -3 41t-28 30l-7 3q-18 9 -40.5 1t-28.5 -28q-24 -88 -34 -133
q-14 -65 -17 -95q-4 -42 8 -81t46 -55t74 12q11 8 30 27q25 27 55 66q-1 -12 -1 -35q4 -88 46 -125q63 -56 171 27q63 49 113 120q51 -28 120 -32.5t133.5 7.5t149.5 41.5t143.5 55.5t142 64t120.5 53q20 7 32.5 27t4.5 40l-4 8q-8 22 -26 31q-19 9 -36 3q-16 -8 -86.5 -44
t-123.5 -62.5t-136 -59.5t-146 -48.5t-128.5 -15.5t-107.5 26q22 49 30 92q9 40 5 70q-5 31 -24 52t-47 20q-30 -1 -62 -41q-44 -61 -44 -133q2 -37 14 -67z" />
    <glyph glyph-name="x" unicode="x" horiz-adv-x="901" 
d="M-33 -113q32 -40 69 -64q57 -35 131 -38q137 -2 317 113q99 65 202 141q47 35 103 81q18 14 34 28q12 10 22 22q13 17 11 38.5t-16 36.5l-6 6q-15 10 -72.5 -27t-131.5 -97t-164 -119.5t-171 -98t-152.5 -27t-107.5 87.5q64 73 166 172q46 44 83 76q15 14 17 35.5
t-11 39.5l-4 7q-13 17 -32 20.5t-34 -9.5q-33 -28 -95 -88q-74 -71 -138 -142q-11 29 -23.5 72t-21.5 65t-21 29q-22 12 -46 -4.5t-27 -52.5q-5 -51 62 -199q-187 -235 -131 -361q9 -20 27.5 -27.5t35.5 1.5l7 4q17 9 23 30t-3 41q-8 17 5 51q14 43 43 85q21 35 50 72z" />
    <glyph glyph-name="y" unicode="y" horiz-adv-x="1340" 
d="M-125 -240q156 63 308 143t233 130.5t289 182.5q19 12 23.5 34t-7.5 41l-1 2q-12 19 -34 24t-41 -7q-45 -29 -175 -114t-181 -115.5t-152.5 -83.5t-205.5 -95q3 10 9.5 29.5t9.5 29.5q23 72 38 135q17 68 22 125q8 86 -12 132q-18 39 -54 52.5t-75 -0.5
q-84 -29 -230 -196q-17 -19 -34 -40q-7 -8 -15 -16.5t-17 -19.5t-15 -17q-65 -74 -111 -120q-59 -59 -101 -85q-46 -31 -67 -25q-13 4 -21 19q-1 1 -3 4q-11 22 -5 64q6 40 32 98q3 5 5 10q25 48 56 88q31 37 53 52q1 1 2.5 2t2.5 1q20 10 27 32t-4 41l-1 2q-11 21 -32 27
q-23 6 -42 -4q-2 -2 -6.5 -4.5t-7.5 -3.5q-84 -56 -153 -195q-32 -66 -42 -130q-12 -77 17 -132q2 -2 4 -6t4 -6q33 -53 86 -66q70 -17 156 39q51 32 118 99q49 49 116 125q7 9 23 27t24 28q12 13 34 39q126 140 177 161q5 -25 0 -65q-3 -37 -19 -111q-11 -46 -36 -127
q-21 -65 -53 -148q-214 -87 -384 -175q-227 -120 -437 -280q-58 -44 -110 -89t-112.5 -105.5t-102.5 -125t-54 -121.5q-14 -61 9.5 -110t81.5 -70q94 -35 244 14q223 72 455 284q272 252 462 622q17 36 32 70zM-280 -304q-173 -325 -415 -546q-106 -98 -220 -169
q-104 -63 -193 -92q-114 -37 -171 -15q-30 10 -22 52q13 62 89 149q41 49 103 106q64 58 147 122q199 152 419 269q122 64 263 124z" />
    <glyph glyph-name="z" unicode="z" horiz-adv-x="1079" 
d="M-496 -42q14 12 20 19q79 68 123 132q65 93 52 175q-9 54 -52 86q-39 28 -99 30q-142 0 -334 -153q-18 -13 -21 -36q-2 -23 12 -40l1 -2q14 -17 36.5 -19.5t40.5 10.5q162 129 264 129q26 -3 34 -9q6 -4 8 -15q6 -37 -33 -93q-35 -49 -106 -113q-80 -71 -199 -152
q-1 -1 -6 -4.5t-8 -5.5q-6 -4 -9 -7q-27 -29 -11 -62q10 -22 31.5 -30t42.5 2q116 51 180 50q37 -2 53 -17q15 -16 19 -51v-8l-9 -3q-229 -89 -420 -201q-198 -117 -352 -254q-304 -273 -331 -435q-11 -64 20.5 -109t95.5 -59q51 -11 118 0q66 10 138 37q237 86 452 288
q255 240 363 548q19 51 30 109q85 33 163.5 71.5t128 66.5t122.5 82.5t99 75.5t110 92.5t106 90.5q17 14 19 37q3 22 -12 40l-1 1q-14 18 -36.5 20t-39.5 -12q-78 -68 -114.5 -100t-98.5 -83t-103 -79t-98.5 -64.5t-116 -64.5t-126.5 -56q-10 61 -48 99q-39 38 -98 46z
M-478 -353q-6 -16 -8 -24q-101 -283 -335 -504q-200 -187 -414 -265q-61 -23 -116 -31q-47 -7 -79 -1q-20 5 -26.5 13t-3.5 28q9 49 74 139q37 48 91 105q63 66 132 126q141 127 333 241q173 101 352 173z" />
    <glyph glyph-name="braceleft" unicode="{" horiz-adv-x="753" 
d="M225 651q49 19 87 62q51 56 84 132q34 74 58 167q26 99 44 185q18 79 42 159q25 79 51 132q26 54 61 85q31 27 73 24h1q22 0 36 14t15 38q0 5 -1 7q-3 18 -18 33l-17 17q-5 5 -14 7q-80 10 -138 -29q-56 -40 -91 -110q-34 -68 -59 -158q-26 -93 -48 -181
q-8 -30 -23.5 -91.5t-22.5 -92.5q-23 -89 -56 -160q-32 -67 -76 -107q-44 -37 -105 -37q-30 0 -49 -37q-3 -10 -2 -19q6 -32 29 -49h1q34 -23 53 -57q22 -37 29 -77q8 -49 2 -106q-7 -55 -25 -124q-18 -66 -42 -133q-38 -105 -49 -133q-1 0 -1 -1q-52 -150 -82 -254
q-35 -127 7 -210q0 -1 1 -2q37 -64 105 -89q6 -2 9 -2q50 0 57 41q6 26 -12 49q-14 15 -29 21q-24 11 -38 30q-9 18 -5 50q3 41 16 91q14 58 33 109q20 59 42 114l51 138q27 74 44 146q18 78 25 143q8 71 -4 136q-12 68 -49 129z" />
    <glyph glyph-name="bar" unicode="|" horiz-adv-x="752" 
d="M537 1597q-1 24 12.5 53t34.5 47l8 7q22 19 37 14q15 -4 18 -28q11 -189 17 -300q18 -389 19 -666q1 -158 -3 -318q-6 -182 -16 -300q-24 -321 -93 -468q-14 -29 -35 -46.5t-37 -13.5l-6 2q-15 5 -17 28q-2 25 12 54q48 103 68 380q10 119 15 290q3 105 3 312
q-3 321 -20 657q-5 134 -17 296z" />
    <glyph glyph-name="braceright" unicode="}" horiz-adv-x="753" 
d="M441 519q-49 -21 -87 -62q-51 -57 -84 -132q-34 -76 -58 -168q-26 -97 -44 -184q-18 -79 -42 -160q-21 -71 -51 -132q-25 -53 -61 -84q-31 -28 -73 -25h-1q-22 0 -35.5 -14t-14.5 -38v-7q3 -18 18 -33l17 -17q7 -6 14 -6q80 -11 138 29q56 37 91 110q34 66 59 157
q26 93 48 181q7 31 22.5 92.5t23.5 91.5q23 89 56 160q31 66 77 107q41 37 104 37q30 0 49 37q3 10 2 19q-7 35 -29 49q0 1 -1 1q-34 21 -53 57q-20 35 -29 76q-8 49 -2 106q7 58 25 124q19 71 42 133q29 82 50 133v1q50 144 82 255q35 126 -7 209q0 2 -1 2q-37 64 -105 89
q-6 2 -9 2q-50 0 -57 -41q-6 -27 12 -48q13 -16 30 -22q21 -8 37 -29q9 -19 5 -51q-3 -41 -16 -91q-13 -54 -33 -109q-20 -57 -42 -114q-8 -23 -25 -68.5t-26 -68.5q-27 -75 -44 -146q-18 -80 -25 -144q-8 -70 4 -136q14 -72 49 -128z" />
    <glyph glyph-name="asciitilde" unicode="~" horiz-adv-x="624" 
d="M583 640q-45 -88 -98 -99q-36 -6 -74 15q-34 19 -76 53l3 1q-44 39 -90 65q-47 28 -96 19q-81 -16 -161 -168q-13 -22 -10 -42q5 -24 10 -33q20 -37 43 9q62 109 118 119q36 8 75 -16q35 -22 81 -56q29 -22 85 -55q50 -27 95 -18q33 6 69 39q35 30 72 102q6 13 6 36
t-6 38q-27 30 -46 -9z" />
    <glyph glyph-name="exclamdown" unicode="&#xa1;" horiz-adv-x="748" 
d="M32 -200q-9 -14 -3.5 -31.5t22.5 -27.5l6 -4q18 -11 35 -8q20 3 28 17l111 174q133 218 225 388q52 96 95 185q48 103 76 175q72 189 44 273q-5 17 -22 27.5t-35 7.5l-8 -1q-17 -1 -27 -16q-9 -14 -3 -31q19 -60 -45 -222q-28 -74 -73 -169q-48 -98 -93 -182
q-98 -180 -224 -383q-35 -58 -109 -172zM667 1049q16 -4 31 4t21 23l31 84q5 15 -2 28.5t-23 17.5l-39 9q-16 4 -31 -4t-21 -24l-30 -83q-6 -15 1 -28.5t23 -17.5z" />
    <glyph glyph-name="plusminus" unicode="&#xb1;" horiz-adv-x="872" 
d="M607 370q19 66 -96 66q-3 0 -43 -2q-38 -2 -43 -2l-53 3l24 80q1 3 6 16.5t8 23.5q11 28 14 38q9 26 -5 43q-14 18 -40 18q-25 0 -42 -13q-18 -12 -33 -38q-14 -27 -33 -89l-25 -82q-73 -5 -122 -5q-58 0 -71 -4q-43 -11 -56 -57q-10 -32 12.5 -48.5t77.5 -16.5
q25 0 122 5l-24 -81l-24 -82q-9 -33 2 -47q10 -16 42 -16q63 0 82 63l49 166q27 -2 71 0l70 1q15 0 26 -2q15 -3 24 -3q27 0 49 19q24 21 31 46zM446 -121q38 -1 68.5 13.5t35.5 34.5l2 9q5 20 -18 35q-22 15 -61 15q-234 3 -471 3q-106 5 -169 -30q-45 -25 -23 -48
q30 -31 171 -30q310 0 465 -2z" />
    <glyph glyph-name="quoteleft" unicode="&#x2018;" horiz-adv-x="368" 
d="M221 1067q-22 -38 -10.5 -80t54.5 -49q62 -11 105 34q36 38 24 74q-11 34 -66 37q84 171 46 169q-26 -2 -85 -79q-41 -53 -68 -106z" />
    <glyph glyph-name="quoteright" unicode="&#x2019;" horiz-adv-x="457" 
d="M316 1113q22 38 10.5 79.5t-54.5 49.5q-62 11 -106 -35q-35 -38 -23 -74q13 -33 66 -37q-84 -171 -47 -168q27 2 87 80q40 53 67 105z" />
    <glyph glyph-name="quotesinglbase" unicode="&#x201a;" horiz-adv-x="368" 
d="M138 -152q22 38 10.5 79.5t-54.5 49.5q-62 11 -106 -35q-35 -38 -23 -74q13 -33 66 -37q-84 -171 -47 -168q27 2 87 80q40 53 67 105z" />
    <glyph glyph-name="quotedblleft" unicode="&#x201c;" horiz-adv-x="536" 
d="M331 1059q-22 -38 -10.5 -80t54.5 -49q62 -11 105 34q36 38 24 74q-11 34 -66 37q84 171 46 169q-26 -2 -85 -79q-41 -53 -68 -106zM111 1059q-22 -38 -10.5 -80t54.5 -49q62 -11 105 34q36 38 24 74q-11 34 -66 37q84 171 46 169q-26 -2 -85 -79q-41 -53 -68 -106z" />
    <glyph glyph-name="quotedblright" unicode="&#x201d;" horiz-adv-x="648" 
d="M354 1113q22 38 10.5 79.5t-54.5 49.5q-62 11 -106 -35q-35 -38 -23 -74q13 -33 66 -37q-84 -171 -47 -168q27 2 87 80q40 53 67 105zM574 1113q22 38 10.5 79.5t-54.5 49.5q-62 11 -106 -35q-35 -38 -23 -74q13 -33 66 -37q-84 -171 -47 -168q27 2 87 80q41 53 67 105z
" />
    <glyph glyph-name="quotedblbase" unicode="&#x201e;" horiz-adv-x="540" 
d="M138 -152q22 38 10.5 79.5t-54.5 49.5q-62 11 -106 -35q-35 -38 -23 -74q13 -33 66 -37q-84 -171 -47 -168q27 2 87 80q40 53 67 105zM375 -159q22 38 10.5 79.5t-54.5 49.5q-62 11 -106 -35q-35 -38 -23 -74q13 -33 66 -37q-84 -171 -47 -168q27 2 87 80q40 53 67 105z
" />
    </font>
</defs>
</svg>
