<?xml version="1.0" standalone="no"?>
<!DOCTYPE svg PUBLIC "-//W3C//DTD SVG 1.1//EN" "http://www.w3.org/Graphics/SVG/1.1/DTD/svg11.dtd" >
<svg xmlns="http://www.w3.org/2000/svg" xmlns:xlink="http://www.w3.org/1999/xlink" version="1.1">
<metadata>
Created by FontForge 20170731 at Wed Aug 24 05:03:39 2022
 By Aleksey,,,
Copyright (c) 2018 by Stefano Giliberti (brumale). All rights reserved.
</metadata>
<defs>
<font id="Altero-Regular" horiz-adv-x="1435" >
  <font-face 
    font-family="Altero"
    font-weight="400"
    font-stretch="normal"
    units-per-em="2048"
    panose-1="0 0 5 0 0 0 0 0 0 0"
    ascent="1638"
    descent="-410"
    x-height="1434"
    cap-height="1434"
    bbox="-47 -569 2603 2202"
    underline-thickness="102"
    underline-position="-307"
    unicode-range="U+0020-25CA"
  />
<missing-glyph horiz-adv-x="1024" 
d="M0 0v1434h1024v-1434h-1024zM512 809l348 522h-696zM573 717l349 -522v1044zM164 102h696l-348 523zM102 1239v-1044l349 522z" />
    <glyph glyph-name=".notdef" horiz-adv-x="1024" 
d="M0 0v1434h1024v-1434h-1024zM512 809l348 522h-696zM573 717l349 -522v1044zM164 102h696l-348 523zM102 1239v-1044l349 522z" />
    <glyph glyph-name=".null" horiz-adv-x="0" 
 />
    <glyph glyph-name="nonmarkingreturn" horiz-adv-x="682" 
 />
    <glyph glyph-name="space" unicode=" " horiz-adv-x="737" 
 />
    <glyph glyph-name="exclam" unicode="!" horiz-adv-x="540" 
d="M418 487h-295v947h295v-947zM270 295q61 0 104.5 -44t43.5 -104q0 -61 -43 -104t-105 -43t-104.5 43t-42.5 104q0 60 43 104t104 44z" />
    <glyph glyph-name="quotedbl" unicode="&#x22;" horiz-adv-x="958" 
d="M418 813h-295v621h295v-621zM836 813h-295v621h295v-621z" />
    <glyph glyph-name="numbersign" unicode="#" horiz-adv-x="1517" 
d="M1149 1108h246v-295h-246v-192h246v-295h-246v-326h-295v326h-192v-326h-295v326h-244v295h244v192h-244v295h244v326h295v-326h192v326h295v-326zM662 813v-192h192v192h-192z" />
    <glyph glyph-name="dollar" unicode="$" horiz-adv-x="1353" 
d="M678 1434q245 0 385 -101q82 -58 125 -143t43 -189h-295q0 65 -43 91q-45 34 -141 43v-273q190 -15 311 -98q82 -58 125 -143t43 -189q0 -103 -43 -188q-44 -87 -125 -144q-142 -100 -385 -100q-242 0 -387 100q-81 57 -125 144q-43 85 -43 188h295q0 -64 43 -90
q45 -34 143 -43v272q-191 15 -313 99q-82 58 -125 143t-43 188q0 104 43 189t125 143q143 101 387 101zM604 868v267q-98 -9 -143 -43q-43 -26 -43 -91q0 -64 43 -90q45 -34 143 -43zM752 565v-266q96 9 141 43q43 26 43 90t-43 90q-45 34 -141 43z" />
    <glyph glyph-name="percent" unicode="%" horiz-adv-x="1923" 
d="M1573 1321l-983 -1378l-240 172l983 1378zM494 1434q169 0 269.5 -101t100.5 -270t-100.5 -270t-269.5 -101t-270 101t-101 270t101 270t270 101zM494 1139q-47 0 -62 -15q-14 -14 -14 -61q0 -45 14 -62q17 -14 62 -14q47 0 61 14t14 62q0 50 -14 61q-12 15 -61 15z
M1430 743q169 0 269.5 -100.5t100.5 -269.5t-101 -271t-269 -102q-169 0 -270 102t-101 271t101 269.5t270 100.5zM1430 449q-47 0 -62 -15q-14 -14 -14 -61q0 -51 14 -62q13 -16 62 -16q45 0 61 16q14 14 14 62q0 44 -14 61q-19 15 -61 15z" />
    <glyph glyph-name="ampersand" unicode="&#x26;" horiz-adv-x="1665" 
d="M735 1434q112 0 206.5 -46t150.5 -128q51 -79 57 -170q6 -90 -33 -185q-56 -133 -196 -203q42 -44 170 -163q26 70 26 139v147h295v-147q0 -179 -92 -338q55 -43 92 -59l131 -66l-131 -264l-131 65q-72 37 -164 107q-53 -38 -112 -62q-140 -61 -310 -61q-157 0 -290 61.5
t-207 167.5q-120 171 -47 375q57 158 215 234q12 7 47 20q-20 50 -23 60q-54 160 2 296q45 106 139 164q89 56 205 56zM735 1139q-55 0 -71 -39q-12 -31 4 -88q16 -39 37 -76q118 31 139 82q19 52 2 78q-29 43 -111 43zM616 588l-20 20q-78 -22 -116.5 -44t-51.5 -58
q-22 -60 8 -107q30 -43 96 -71q78 -33 162 -33q103 0 187 35q-100 93 -265 258z" />
    <glyph glyph-name="quotesingle" unicode="'" horiz-adv-x="540" 
d="M418 813h-295v621h295v-621z" />
    <glyph glyph-name="parenleft" unicode="(" horiz-adv-x="735" 
d="M612 1540l-100 -108q-94 -108 -94 -308v-815q0 -199 94 -307l100 -108l-219 -199l-98 108q-86 95 -131 228q-41 128 -41 278v815q0 151 41 279q44 131 131 227l98 109z" />
    <glyph glyph-name="parenright" unicode=")" horiz-adv-x="735" 
d="M342 1739l98 -109q87 -96 131 -227q41 -128 41 -279v-815q0 -150 -41 -278q-45 -133 -131 -228l-98 -108l-219 199l100 108q94 108 94 307v815q0 200 -94 308l-100 108z" />
    <glyph glyph-name="asterisk" unicode="*" horiz-adv-x="1081" 
d="M614 1122l271 156l73 -127l-270 -156l270 -155l-73 -129l-271 155v-311h-147v311l-270 -155l-74 129l270 155l-270 156l74 127l270 -156v312h147v-312z" />
    <glyph glyph-name="plus" unicode="+" horiz-adv-x="1191" 
d="M743 864h326v-295h-326v-325h-294v325h-326v295h326v326h294v-326z" />
    <glyph glyph-name="comma" unicode="," horiz-adv-x="610" 
d="M487 295v-148q0 -291 -188 -440l-117 -92l-182 231l115 93q78 60 78 208v148h294z" />
    <glyph glyph-name="hyphen" unicode="-" horiz-adv-x="1028" 
d="M905 569h-782v295h782v-295z" />
    <glyph glyph-name="period" unicode="." horiz-adv-x="540" 
d="M270 295q61 0 104.5 -44t43.5 -104q0 -61 -43 -104t-105 -43t-104.5 43t-42.5 104q0 60 43 104t104 44z" />
    <glyph glyph-name="slash" unicode="/" horiz-adv-x="1101" 
d="M979 1628l-573 -1909l-283 84l573 1911z" />
    <glyph glyph-name="zero" unicode="0" horiz-adv-x="1355" 
d="M678 1434q120 0 223 -35q102 -37 182 -113q75 -75 113 -184q37 -98 37 -223v-324q0 -125 -37 -223q-38 -110 -113 -182q-78 -78 -182 -115q-103 -35 -223 -35t-223 35q-110 39 -183 115q-73 70 -112 182q-37 98 -37 223v324q0 125 37 223q38 110 112 184t183 113
q103 35 223 35zM678 1139q-135 0 -197 -62q-63 -63 -63 -198v-324q0 -133 63 -199q61 -61 197 -61q135 0 196 61q64 67 64 199v324q0 134 -64 198q-62 62 -196 62z" />
    <glyph glyph-name="one" unicode="1" horiz-adv-x="718" 
d="M123 1139v295q215 0 346 -127q127 -131 127 -346v-961h-295v961q0 94 -41 137q-41 41 -137 41z" />
    <glyph glyph-name="two" unicode="2" horiz-adv-x="1353" 
d="M678 1434q246 0 393 -117q160 -129 160 -356q0 -228 -160 -357q-147 -117 -393 -117h-82q-96 0 -137 -41q-41 -39 -41 -137v-14h813v-295h-1108v342q6 92 31 156q30 91 96 157q131 127 346 127h82q143 0 209 54q49 39 49 125q0 82 -49 126q-68 52 -209 52
q-143 0 -211 -52q-49 -44 -49 -126h-295q0 227 160 356q147 117 395 117z" />
    <glyph glyph-name="three" unicode="3" horiz-adv-x="1353" 
d="M678 1434q245 0 385 -101q82 -58 125 -143t43 -189q0 -103 -43 -188q-22 -48 -70 -96q48 -48 70 -96q43 -85 43 -189q0 -103 -43 -188q-44 -87 -125 -144q-142 -100 -385 -100q-248 0 -395 117q-160 129 -160 356h295q0 -83 49 -127q66 -51 211 -51q150 0 215 47
q43 26 43 90t-43 90q-65 47 -215 47h-164v295h164q150 0 215 47q43 26 43 90q0 65 -43 91q-65 47 -215 47q-143 0 -211 -52q-49 -44 -49 -126h-295q0 227 160 356q147 117 395 117z" />
    <glyph glyph-name="four" unicode="4" horiz-adv-x="1376" 
d="M545 539h413v407h295v-946h-295v244h-835l432 1190h313z" />
    <glyph glyph-name="five" unicode="5" horiz-adv-x="1353" 
d="M1231 1139h-813v-193h260q246 0 393 -117q160 -129 160 -356t-160 -356q-147 -117 -393 -117q-248 0 -395 117q-160 129 -160 356h295q0 -83 49 -127q66 -51 211 -51q143 0 209 51q49 44 49 127q0 86 -49 125q-65 53 -209 53h-555v783h1108v-295z" />
    <glyph glyph-name="six" unicode="6" horiz-adv-x="1353" 
d="M678 1434q207 0 348 -84q154 -97 195 -277l-289 -61q-11 55 -62 86q-65 41 -192 41q-143 0 -211 -52q-49 -44 -49 -126v-58q110 43 260 43q246 0 393 -117q160 -129 160 -356t-160 -356q-147 -117 -393 -117q-248 0 -395 117q-160 129 -160 356v488q0 227 160 356
q147 117 395 117zM678 651q-146 0 -211 -53q-49 -39 -49 -125q0 -83 49 -127q66 -51 211 -51q143 0 209 51q49 44 49 127q0 86 -49 125q-65 53 -209 53z" />
    <glyph glyph-name="seven" unicode="7" horiz-adv-x="1349" 
d="M612 0h-321l487 1139h-655v295h1104z" />
    <glyph glyph-name="eight" unicode="8" horiz-adv-x="1353" 
d="M678 1434q245 0 385 -101q82 -58 125 -143t43 -189q0 -103 -43 -188q-22 -48 -70 -96q48 -48 70 -96q43 -85 43 -189q0 -103 -43 -188q-44 -87 -125 -144q-142 -100 -385 -100q-242 0 -387 100q-81 57 -125 144q-43 85 -43 188q0 104 43 189q28 54 70 96q-42 42 -70 96
q-43 85 -43 188q0 104 43 189t125 143q143 101 387 101zM678 1139q-152 0 -217 -47q-43 -26 -43 -91q0 -64 43 -90q65 -47 217 -47q150 0 215 47q43 26 43 90q0 65 -43 91q-65 47 -215 47zM678 569q-152 0 -217 -47q-43 -26 -43 -90t43 -90q65 -47 217 -47q150 0 215 47
q43 26 43 90t-43 90q-65 47 -215 47z" />
    <glyph glyph-name="nine" unicode="9" horiz-adv-x="1353" 
d="M676 1434q248 0 395 -117q160 -129 160 -356v-488q0 -227 -160 -356q-147 -117 -395 -117q-207 0 -348 84q-154 97 -195 276l289 62q11 -56 61 -86q65 -41 193 -41q145 0 211 51q49 44 49 127v57q-110 -43 -260 -43q-246 0 -393 117q-160 129 -160 357q0 227 160 356
q147 117 393 117zM676 1139q-141 0 -209 -52q-49 -44 -49 -126q0 -86 49 -125q66 -54 209 -54q145 0 211 54q49 39 49 125q0 82 -49 126q-68 52 -211 52z" />
    <glyph glyph-name="colon" unicode=":" horiz-adv-x="540" 
d="M270 864q61 0 104.5 -43.5t43.5 -103.5q0 -61 -43 -104.5t-105 -43.5q-61 0 -104 43t-43 105q0 60 43 103.5t104 43.5zM270 295q61 0 104.5 -44t43.5 -104q0 -61 -43 -104t-105 -43t-104.5 43t-42.5 104q0 60 43 104t104 44z" />
    <glyph glyph-name="semicolon" unicode=";" horiz-adv-x="610" 
d="M340 864q61 0 104 -43.5t43 -103.5q0 -62 -43 -105t-104 -43t-104 43t-43 105q0 60 43 103.5t104 43.5zM487 295v-148q0 -291 -188 -440l-117 -92l-182 231l115 93q78 60 78 208v148h294z" />
    <glyph glyph-name="less" unicode="&#x3c;" horiz-adv-x="1200" 
d="M1077 1196l-520 -479l520 -479l-200 -218l-754 697l754 696z" />
    <glyph glyph-name="equal" unicode="=" horiz-adv-x="1191" 
d="M1069 795h-946v295h946v-295zM1069 346h-946v295h946v-295z" />
    <glyph glyph-name="greater" unicode="&#x3e;" horiz-adv-x="1200" 
d="M1077 717l-753 -697l-201 218l520 479l-520 479l201 217z" />
    <glyph glyph-name="question" unicode="?" horiz-adv-x="1179" 
d="M584 1434q212 0 338 -111q135 -117 135 -322q0 -204 -135 -321q-77 -68 -191 -96v-97h-295v377h148q103 0 143 37q35 29 35 100q0 66 -35 101q-43 37 -143 37q-86 0 -133 -29q-33 -23 -41 -61l-287 67q39 160 168 242q121 76 293 76zM584 295q61 0 104 -44t43 -104
q0 -61 -42.5 -104t-104.5 -43t-105 43t-43 104q0 60 43.5 104t104.5 44z" />
    <glyph glyph-name="at" unicode="@" horiz-adv-x="1769" 
d="M885 1479q168 0 313 -49q149 -54 246 -154q98 -95 153 -246q50 -148 50 -313q0 -185 -76 -303q-88 -133 -252 -133q-79 0 -144.5 34.5t-107.5 100.5q-88 -54 -207 -54q-161 0 -260 95q-94 98 -94 260q0 164 94 258q96 96 260 96q71 0 133 -20v20h221v-354q0 -120 37 -180
q22 -35 68 -35q45 0 67 35q39 58 39 180q0 266 -137 403t-403 137q-267 0 -404 -137q-137 -134 -137 -403q0 -270 137 -404q134 -137 404 -137q187 0 311 68l107 -195q-180 -94 -418 -94q-179 0 -316 49q-146 53 -245 152t-152 245q-49 137 -49 316q0 176 49 313
q56 152 152 246q102 102 245 154q145 49 316 49zM860 850q-71 0 -102 -31t-31 -102q0 -74 31 -103q28 -30 102 -30q73 0 103 30t30 103q0 70 -30 102q-33 31 -103 31z" />
    <glyph glyph-name="A" unicode="A" horiz-adv-x="1765" 
d="M1642 0h-325l-76 162h-717l-75 -162h-326l665 1434h189zM659 457h445l-221 479z" />
    <glyph glyph-name="B" unicode="B" horiz-adv-x="1597" 
d="M123 1434h919q199 0 316 -117t117 -316q0 -171 -89 -284q89 -113 89 -285q0 -198 -117 -315t-316 -117h-919v1434zM418 1139v-275h624q76 0 107 31q31 29 31 106q0 78 -31 107q-31 31 -107 31h-624zM418 569v-274h624q76 0 107 31q31 29 31 106q0 78 -31 107
q-30 30 -107 30h-624z" />
    <glyph glyph-name="C" unicode="C" horiz-adv-x="1648" 
d="M840 1434q258 0 440 -119q91 -63 154 -154q62 -89 92 -203l-285 -77q-34 128 -127 188q-101 70 -274 70q-214 0 -318 -104t-104 -318t104 -318t318 -104q173 0 274 70q93 60 127 188l285 -78q-30 -114 -92 -203t-154 -153q-182 -119 -440 -119q-156 0 -293 45
q-141 52 -234 145t-145 234q-45 137 -45 293t45 293q51 139 145 233q95 95 234 146q128 45 293 45z" />
    <glyph glyph-name="D" unicode="D" horiz-adv-x="1597" 
d="M123 1434h635q168 0 293 -45q136 -49 233 -146q96 -96 146 -233q45 -128 45 -293t-45 -293q-51 -139 -146 -234q-96 -96 -233 -145q-133 -45 -293 -45h-635v1434zM418 1139v-844h340q214 0 318 104t104 318t-104 318t-318 104h-340z" />
    <glyph glyph-name="E" unicode="E" 
d="M1313 1139h-895v-275h895v-295h-895v-274h895v-295h-1190v1434h1190v-295z" />
    <glyph glyph-name="F" unicode="F" 
d="M1313 1139h-895v-275h813v-295h-813v-569h-295v1434h1190v-295z" />
    <glyph glyph-name="G" unicode="G" horiz-adv-x="1679" 
d="M840 1434q209 0 368 -78q164 -80 254 -242l-256 -143q-45 77 -129 121q-96 47 -237 47q-214 0 -318 -104t-104 -318t104 -318t318 -104q343 0 407 274h-489v295h798v-147q0 -165 -45 -293q-52 -141 -145 -234q-94 -94 -233 -145q-137 -45 -293 -45t-293 45
q-141 52 -234 145t-145 234q-45 137 -45 293t45 293q51 139 145 233q95 95 234 146q128 45 293 45z" />
    <glyph glyph-name="H" unicode="H" horiz-adv-x="1517" 
d="M1395 0h-295v569h-682v-569h-295v1434h295v-570h682v570h295v-1434z" />
    <glyph glyph-name="I" unicode="I" horiz-adv-x="540" 
d="M418 0h-295v1434h295v-1434z" />
    <glyph glyph-name="J" unicode="J" horiz-adv-x="948" 
d="M825 1434v-879q0 -125 -37 -223q-39 -112 -112 -182q-73 -76 -182 -115q-103 -35 -224 -35h-147v295h147q136 0 197 61q63 66 63 199v879h295z" />
    <glyph glyph-name="K" unicode="K" horiz-adv-x="1540" 
d="M858 819l559 -819h-358l-406 594l-235 -260v-334h-295v1434h295v-662l600 662h399z" />
    <glyph glyph-name="L" unicode="L" 
d="M418 295h895v-295h-1190v1434h295v-1139z" />
    <glyph glyph-name="M" unicode="M" horiz-adv-x="2004" 
d="M1882 0h-295v784l-504 -784h-161l-504 784v-784h-295v1434h227l651 -1014l654 1014h227v-1434z" />
    <glyph glyph-name="N" unicode="N" horiz-adv-x="1558" 
d="M1436 0h-215l-803 899v-899h-295v1434h213l805 -899v899h295v-1434z" />
    <glyph glyph-name="O" unicode="O" horiz-adv-x="1679" 
d="M840 1434q165 0 293 -45q137 -50 233 -146q94 -94 145 -233q45 -128 45 -293t-45 -293q-52 -141 -145 -234q-94 -94 -233 -145q-137 -45 -293 -45t-293 45q-141 52 -234 145t-145 234q-45 137 -45 293t45 293q51 139 145 233q95 95 234 146q128 45 293 45zM840 1139
q-214 0 -318 -104t-104 -318t104 -318t318 -104t318 104t104 318t-104 318t-318 104z" />
    <glyph glyph-name="P" unicode="P" horiz-adv-x="1517" 
d="M123 1434h758q238 0 376 -138t138 -376q0 -236 -138 -374t-376 -138h-463v-408h-295v1434zM418 1139v-437h463q117 0 166 52q53 53 53 166q0 114 -53 167q-49 52 -166 52h-463z" />
    <glyph glyph-name="Q" unicode="Q" horiz-adv-x="1679" 
d="M840 1434q165 0 293 -45q137 -50 233 -146q94 -94 145 -233q45 -125 45 -293q0 -166 -45 -291q-48 -135 -145 -236q-96 -96 -233 -143q-71 -25 -146 -37v-254h-295v254q-73 11 -145 37q-139 48 -234 143q-97 101 -145 236q-45 133 -45 291q0 160 45 293q51 139 145 233
q95 95 234 146q128 45 293 45zM840 1139q-214 0 -318 -104t-104 -318q0 -213 104.5 -317.5t317.5 -104.5t317.5 104.5t104.5 317.5q0 214 -104 318t-318 104z" />
    <glyph glyph-name="R" unicode="R" horiz-adv-x="1517" 
d="M123 1434h758q238 0 376 -138t138 -376q0 -179 -81.5 -304t-228.5 -176l310 -440h-361l-284 408h-332v-408h-295v1434zM418 1139v-437h463q117 0 166 52q53 53 53 166q0 114 -53 167q-49 52 -166 52h-463z" />
    <glyph glyph-name="S" unicode="S" horiz-adv-x="1597" 
d="M799 1434q259 0 428 -93q189 -101 237 -309l-288 -61q-14 68 -91 112q-100 56 -286 56q-215 0 -322 -56q-26 -15 -39.5 -30t-16.5 -26t-3 -26t3 -25.5t16.5 -25.5t39.5 -30q105 -56 322 -56q293 0 463 -92q103 -56 158 -143.5t55 -196.5t-55 -196.5t-158 -143.5
q-170 -92 -463 -92q-261 0 -428 92q-191 104 -236 309l287 62q17 -71 92 -113q98 -55 285 -55q216 0 321 55q37 21 48.5 40t11.5 42q0 15 -3 26t-17 26t-40 30q-103 55 -321 55q-289 0 -461 93q-104 55 -159.5 142.5t-55.5 196.5t55.5 197t159.5 143q172 93 461 93z" />
    <glyph glyph-name="T" unicode="T" horiz-adv-x="1476" 
d="M1354 1139h-469v-1139h-295v1139h-467v295h1231v-295z" />
    <glyph glyph-name="U" unicode="U" horiz-adv-x="1515" 
d="M1393 1434v-799q0 -146 -39 -256q-42 -119 -129 -209q-84 -84 -209 -129q-118 -41 -258 -41t-258 41q-122 44 -207 129t-129 209q-41 107 -41 256v799h295v-799q0 -174 82 -256q84 -84 258 -84t258 84q82 82 82 256v799h295z" />
    <glyph glyph-name="V" unicode="V" horiz-adv-x="1765" 
d="M977 0h-189l-665 1434h326l434 -936l434 936h325z" />
    <glyph glyph-name="W" unicode="W" horiz-adv-x="2646" 
d="M1909 0h-195l-391 911l-391 -911h-195l-614 1434h321l390 -912l391 912h194l391 -912l392 912h321z" />
    <glyph glyph-name="X" unicode="X" horiz-adv-x="1632" 
d="M997 717l512 -717h-362l-332 463l-330 -463h-362l512 717l-512 717h362l330 -463l332 463h362z" />
    <glyph glyph-name="Y" unicode="Y" horiz-adv-x="1638" 
d="M967 434v-434h-295v434l-549 1000h336l360 -656l361 656h336z" />
    <glyph glyph-name="Z" unicode="Z" horiz-adv-x="1507" 
d="M1384 1087l-878 -792h878v-295h-1261v346l878 793h-878v295h1261v-347z" />
    <glyph glyph-name="bracketleft" unicode="[" horiz-adv-x="702" 
d="M580 1382h-162v-1331h162v-295h-457v1921h457v-295z" />
    <glyph glyph-name="backslash" unicode="\" horiz-adv-x="1101" 
d="M979 -197l-283 -84l-573 1909l283 86z" />
    <glyph glyph-name="bracketright" unicode="]" horiz-adv-x="702" 
d="M580 1677v-1921h-457v295h162v1331h-162v295h457z" />
    <glyph glyph-name="asciicircum" unicode="^" horiz-adv-x="1634" 
d="M1511 506l-235 -176l-459 612l-459 -612l-235 176l694 928z" />
    <glyph glyph-name="underscore" unicode="_" horiz-adv-x="1353" 
d="M1231 -295h-1108v295h1108v-295z" />
    <glyph glyph-name="grave" unicode="`" horiz-adv-x="497" 
d="M498 1550l-35 -55l-463 279l35 55z" />
    <glyph glyph-name="a" unicode="a" horiz-adv-x="1765" 
d="M1642 0h-325l-76 162h-717l-75 -162h-326l665 1434h189zM829 1368l-604 -1302h183l75 161h799l76 -161h182l-604 1302h-107zM1206 391h-649l326 701zM659 457h445l-221 479z" />
    <glyph glyph-name="b" unicode="b" horiz-adv-x="1597" 
d="M123 1434h919q199 0 316 -117t117 -316q0 -171 -89 -284q89 -113 89 -285q0 -198 -117 -315t-316 -117h-919v1434zM188 1368v-1302h854q175 0 269 98q98 94 98 268q0 152 -74 244l-32 41l32 41q74 92 74 243q0 175 -98 269q-94 98 -269 98h-854zM352 1204h690
q103 0 152 -49q51 -47 51 -154q0 -109 -51 -153q-49 -49 -152 -49h-690v405zM418 1139v-275h624q76 0 107 31q31 29 31 106q0 78 -31 107q-31 31 -107 31h-624zM352 635h690q103 0 152 -49q51 -47 51 -154q0 -109 -51 -153q-50 -50 -152 -50h-690v406zM418 569v-274h624
q76 0 107 31q31 29 31 106q0 78 -31 107q-30 30 -107 30h-624z" />
    <glyph glyph-name="c" unicode="c" horiz-adv-x="1648" 
d="M840 1434q258 0 440 -119q91 -63 154 -154q62 -89 92 -203l-285 -77q-34 128 -127 188q-101 70 -274 70q-214 0 -318 -104t-104 -318t104 -318t318 -104q173 0 274 70q93 60 127 188l285 -78q-30 -114 -92 -203t-154 -153q-182 -119 -440 -119q-156 0 -293 45
q-141 52 -234 145t-145 234q-45 137 -45 293t45 293q51 139 145 233q95 95 234 146q128 45 293 45zM840 1368q-153 0 -271 -41q-128 -47 -209 -131q-83 -80 -131 -207q-41 -131 -41 -272q0 -142 41 -273q47 -125 131 -206q82 -85 207 -132q127 -40 273 -40q240 0 403 108
q79 52 137 135q38 56 62 121l-158 43q-43 -105 -133 -164q-60 -40 -141 -61q-78 -19 -170 -19q-112 0 -207 29q-91 30 -158 94q-64 67 -94 158q-29 95 -29 207t29 207q29 89 94 157q69 66 158 95q92 28 207 28q96 0 170 -18q78 -21 141 -62q90 -60 133 -163l158 43
q-23 63 -62 120q-59 84 -137 136q-163 108 -403 108z" />
    <glyph glyph-name="d" unicode="d" horiz-adv-x="1597" 
d="M123 1434h635q168 0 293 -45q136 -49 233 -146q96 -96 146 -233q45 -128 45 -293t-45 -293q-51 -139 -146 -234q-96 -96 -233 -145q-133 -45 -293 -45h-635v1434zM188 1368v-1302h570q148 0 272 40q118 43 207 132q84 81 131 208q41 118 41 271q0 152 -41 270
q-47 128 -131 209q-88 88 -209 131q-115 41 -270 41h-570zM352 1204h406q115 0 207 -28q87 -29 157 -95q66 -70 95 -157q28 -92 28 -207t-28 -207q-29 -89 -95 -158q-68 -65 -157 -94q-95 -29 -207 -29h-406v975zM418 1139v-844h340q214 0 318 104t104 318t-104 318
t-318 104h-340z" />
    <glyph glyph-name="e" unicode="e" 
d="M1313 1139h-895v-275h895v-295h-895v-274h895v-295h-1190v1434h1190v-295zM188 1368v-1302h1059v163h-895v406h895v164h-895v405h895v164h-1059z" />
    <glyph glyph-name="f" unicode="f" 
d="M1313 1139h-895v-275h813v-295h-813v-569h-295v1434h1190v-295zM188 1368v-1302h164v569h813v164h-813v405h895v164h-1059z" />
    <glyph glyph-name="g" unicode="g" horiz-adv-x="1679" 
d="M840 1434q209 0 368 -78q164 -80 254 -242l-256 -143q-45 77 -129 121q-96 47 -237 47q-214 0 -318 -104t-104 -318t104 -318t318 -104q343 0 407 274h-489v295h798v-147q0 -165 -45 -293q-52 -141 -145 -234q-94 -94 -233 -145q-137 -45 -293 -45t-293 45
q-141 52 -234 145t-145 234q-45 137 -45 293t45 293q51 139 145 233q95 95 234 146q128 45 293 45zM840 1368q-153 0 -271 -41q-128 -47 -209 -131q-83 -80 -131 -207q-41 -131 -41 -272q0 -142 41 -273q47 -125 131 -206q82 -85 207 -132q127 -40 273 -40q145 0 272 40
q125 47 207 132q84 81 131 208q41 118 41 271v82h-668v-164h506l-18 -80q-38 -166 -162 -246q-57 -39 -139 -61q-81 -19 -170 -19q-112 0 -207 29q-91 30 -158 94q-64 67 -94 158q-29 95 -29 207t29 207q29 89 94 157q69 66 158 95q92 28 207 28q154 0 266 -53
q71 -38 121 -94l143 80q-71 101 -190 159q-147 72 -340 72z" />
    <glyph glyph-name="h" unicode="h" horiz-adv-x="1517" 
d="M1395 0h-295v569h-682v-569h-295v1434h295v-570h682v570h295v-1434zM1165 1368v-569h-813v569h-164v-1302h164v569h813v-569h164v1302h-164z" />
    <glyph glyph-name="i" unicode="i" horiz-adv-x="540" 
d="M418 0h-295v1434h295v-1434zM188 1368v-1302h164v1302h-164z" />
    <glyph glyph-name="j" unicode="j" horiz-adv-x="948" 
d="M825 1434v-879q0 -125 -37 -223q-39 -112 -112 -182q-73 -76 -182 -115q-103 -35 -224 -35h-147v295h147q136 0 197 61q63 66 63 199v879h295zM596 1368v-813q0 -161 -82 -246q-47 -44 -106 -61q-62 -19 -138 -19h-82v-163h82q108 0 203 30q96 36 156 99l2 2
q62 62 96 155v2q33 82 33 201v813h-164z" />
    <glyph glyph-name="k" unicode="k" horiz-adv-x="1540" 
d="M858 819l559 -819h-358l-406 594l-235 -260v-334h-295v1434h295v-662l600 662h399zM1047 1368l-695 -766v766h-164v-1302h164v292l310 342l432 -634h198l-518 759l496 543h-223z" />
    <glyph glyph-name="l" unicode="l" 
d="M418 295h895v-295h-1190v1434h295v-1139zM188 1368v-1302h1059v163h-895v1139h-164z" />
    <glyph glyph-name="m" unicode="m" horiz-adv-x="2004" 
d="M1882 0h-295v784l-504 -784h-161l-504 784v-784h-295v1434h227l651 -1014l654 1014h227v-1434zM1690 1368l-689 -1069l-686 1069h-127v-1302h164v942l604 -942h93l604 942v-942h164v1302h-127z" />
    <glyph glyph-name="n" unicode="n" horiz-adv-x="1558" 
d="M1436 0h-215l-803 899v-899h-295v1434h213l805 -899v899h295v-1434zM1206 1368v-1006l-899 1006h-119v-1302h164v1005l897 -1005h121v1302h-164z" />
    <glyph glyph-name="o" unicode="o" horiz-adv-x="1679" 
d="M840 1434q165 0 293 -45q137 -50 233 -146q94 -94 145 -233q45 -128 45 -293t-45 -293q-52 -141 -145 -234q-94 -94 -233 -145q-137 -45 -293 -45t-293 45q-141 52 -234 145t-145 234q-45 137 -45 293t45 293q51 139 145 233q95 95 234 146q128 45 293 45zM840 1368
q-153 0 -271 -41q-128 -47 -209 -131q-83 -80 -131 -207q-41 -131 -41 -272q0 -142 41 -273q47 -125 131 -206q82 -85 207 -132q127 -40 273 -40q145 0 272 40q125 47 207 132q84 81 131 208q41 118 41 271q0 152 -41 270q-47 128 -131 209q-81 84 -209 131q-118 41 -270 41
zM840 1204q115 0 207 -28q87 -29 157 -95q65 -68 94 -157q29 -95 29 -207t-29 -207q-30 -91 -94 -158q-68 -65 -157 -94q-95 -29 -207 -29t-207 29q-91 30 -158 94q-64 67 -94 158q-29 95 -29 207t29 207q29 89 94 157q69 66 158 95q92 28 207 28zM840 1139
q-214 0 -318 -104t-104 -318t104 -318t318 -104t318 104t104 318t-104 318t-318 104z" />
    <glyph glyph-name="p" unicode="p" horiz-adv-x="1517" 
d="M123 1434h758q238 0 376 -138t138 -376q0 -236 -138 -374t-376 -138h-463v-408h-295v1434zM188 1368v-1302h164v407h529q211 0 329.5 118t118.5 329q0 105 -31 190q-29 80 -88 139t-139 88q-85 31 -190 31h-693zM352 1204h529q145 0 213 -71q71 -71 71 -213
q0 -140 -71 -211q-69 -72 -213 -72h-529v567zM418 1139v-437h463q117 0 166 52q53 53 53 166q0 114 -53 167q-49 52 -166 52h-463z" />
    <glyph glyph-name="q" unicode="q" horiz-adv-x="1679" 
d="M840 1434q165 0 293 -45q137 -50 233 -146q94 -94 145 -233q45 -125 45 -293q0 -166 -45 -291q-48 -135 -145 -236q-96 -96 -233 -143q-71 -25 -146 -37v-254h-295v254q-73 11 -145 37q-139 48 -234 143q-97 101 -145 236q-45 133 -45 291q0 160 45 293q51 139 145 233
q95 95 234 146q128 45 293 45zM840 1368q-153 0 -271 -41q-128 -47 -209 -131q-84 -81 -131 -209q-41 -125 -41 -270q0 -143 41 -271q43 -119 131 -210q82 -82 207 -127h2q75 -26 133 -33l56 -10v-244h164v244l55 10q58 7 133 33h2q125 45 207 127q88 91 131 213
q41 115 41 268q0 155 -41 270q-47 128 -131 209q-81 84 -209 131q-118 41 -270 41zM840 1204q115 0 207 -28q87 -29 157 -95q65 -68 94 -157q29 -95 29 -207q0 -113 -29 -205q-30 -94 -94 -158q-66 -66 -157 -96q-95 -29 -207 -29t-207 29q-92 30 -158 96q-64 64 -94 158
q-29 92 -29 205q0 112 29 207q29 89 94 157q69 66 158 95q92 28 207 28zM840 1139q-214 0 -318 -104t-104 -318q0 -213 104.5 -317.5t317.5 -104.5t317.5 104.5t104.5 317.5q0 214 -104 318t-318 104z" />
    <glyph glyph-name="r" unicode="r" horiz-adv-x="1517" 
d="M123 1434h758q238 0 376 -138t138 -376q0 -179 -81.5 -304t-228.5 -176l310 -440h-361l-284 408h-332v-408h-295v1434zM188 1368v-1302h164v407h432l285 -407h199l-287 407l82 29q126 44 194 149q36 55 54 119q18 67 18 150q0 105 -31 190q-29 80 -88 139t-139 88
q-85 31 -190 31h-693zM352 1204h529q145 0 213 -71q71 -71 71 -213q0 -140 -71 -211q-69 -72 -213 -72h-529v567zM418 1139v-437h463q117 0 166 52q53 53 53 166q0 114 -53 167q-49 52 -166 52h-463z" />
    <glyph glyph-name="s" unicode="s" horiz-adv-x="1597" 
d="M799 1434q259 0 428 -93q189 -101 237 -309l-288 -61q-14 68 -91 112q-100 56 -286 56q-215 0 -322 -56q-26 -15 -39.5 -30t-16.5 -26t-3 -26t3 -25.5t16.5 -25.5t39.5 -30q105 -56 322 -56q293 0 463 -92q103 -56 158 -143.5t55 -196.5t-55 -196.5t-158 -143.5
q-170 -92 -463 -92q-261 0 -428 92q-191 104 -236 309l287 62q17 -71 92 -113q98 -55 285 -55q216 0 321 55q37 21 48.5 40t11.5 42q0 15 -3 26t-17 26t-40 30q-103 55 -321 55q-289 0 -461 93q-104 55 -159.5 142.5t-55.5 196.5t55.5 197t159.5 143q172 93 461 93z
M799 1368q-274 0 -430 -84q-92 -51 -136 -121q-45 -68 -45 -162q0 -93 45 -161q44 -70 136 -121q156 -84 430 -84q128 0 223 -21q73 -14 129 -43h2q92 -50 92 -139t-92 -139q-121 -64 -354 -64q-205 0 -318 64q-54 29 -78 63q-15 19 -20 31l-164 -35q50 -130 182 -202
q82 -45 174 -62q107 -22 224 -22q276 0 432 84q87 47 133 120q45 68 45 162t-45 162q-47 74 -133 121q-156 84 -432 84q-134 0 -224 20q-73 14 -129 43h-2q-92 50 -92 139q0 90 92 140h2q119 63 353 63q105 0 176 -14q83 -18 143 -49q69 -38 99 -94l163 34q-15 42 -51 90
q-53 68 -135 113q-150 84 -395 84z" />
    <glyph glyph-name="t" unicode="t" horiz-adv-x="1476" 
d="M1354 1139h-469v-1139h-295v1139h-467v295h1231v-295zM188 1368v-164h467v-1138h164v1138h469v164h-1100z" />
    <glyph glyph-name="u" unicode="u" horiz-adv-x="1515" 
d="M1393 1434v-799q0 -146 -39 -256q-42 -119 -129 -209q-84 -84 -209 -129q-118 -41 -258 -41t-258 41q-122 44 -207 129t-129 209q-41 107 -41 256v799h295v-799q0 -174 82 -256q84 -84 258 -84t258 84q82 82 82 256v799h295zM1163 1368v-733q0 -93 -22 -170
q-28 -83 -78 -133q-54 -54 -133 -78q-80 -25 -172 -25t-172 25q-79 24 -133 78q-50 50 -78 133q-23 81 -23 170v733h-164v-733q0 -136 37 -234q41 -113 115 -184q70 -73 182 -115q104 -36 236 -36q131 0 235 36q108 40 185 113q77 83 114 186q35 100 35 234v733h-164z" />
    <glyph glyph-name="v" unicode="v" horiz-adv-x="1765" 
d="M977 0h-189l-665 1434h326l434 -936l434 936h325zM1358 1368l-475 -1026l-475 1026h-183l604 -1302h107l604 1302h-182z" />
    <glyph glyph-name="w" unicode="w" horiz-adv-x="2646" 
d="M1909 0h-195l-391 911l-391 -911h-195l-614 1434h321l390 -912l391 912h194l391 -912l392 912h321zM2245 1368l-435 -1012l-434 1012h-108l-434 -1012l-433 1012h-178l557 -1302h109l434 1011l434 -1011h109l557 1302h-178z" />
    <glyph glyph-name="x" unicode="x" horiz-adv-x="1632" 
d="M997 717l512 -717h-362l-332 463l-330 -463h-362l512 717l-512 717h362l330 -463l332 463h362zM1180 1368l-365 -510l-362 510h-203l465 -651l-465 -651h203l362 509l365 -509h202l-464 651l464 651h-202z" />
    <glyph glyph-name="y" unicode="y" horiz-adv-x="1638" 
d="M967 434v-434h-295v434l-549 1000h336l360 -656l361 656h336zM1219 1368l-400 -725l-399 725h-187l504 -917v-385h164v385l504 917h-186z" />
    <glyph glyph-name="z" unicode="z" horiz-adv-x="1507" 
d="M1384 1087l-878 -792h878v-295h-1261v346l878 793h-878v295h1261v-347zM188 1368v-164h983l-983 -887v-251h1131v163h-983l983 887v252h-1131z" />
    <glyph glyph-name="braceleft" unicode="{" horiz-adv-x="937" 
d="M815 1540l-98 -108q-96 -107 -96 -308v-204q0 -115 -54 -203q54 -88 54 -203v-205q0 -200 96 -307l98 -108l-219 -199l-98 108q-81 90 -131 228q-41 128 -41 278v205q0 36 -9 45q-10 10 -47 10h-147v295h147q37 0 47 10q9 9 9 46v204q0 151 41 279q49 137 131 227l98 109
z" />
    <glyph glyph-name="bar" unicode="|" horiz-adv-x="540" 
d="M418 -244h-295v1921h295v-1921z" />
    <glyph glyph-name="braceright" unicode="}" horiz-adv-x="937" 
d="M342 1739l98 -109q82 -90 131 -227q41 -128 41 -279v-204q0 -37 9 -46q10 -10 47 -10h147v-295h-147q-37 0 -47 -10q-9 -9 -9 -45v-205q0 -150 -41 -278q-50 -138 -131 -228l-98 -108l-219 199l98 108q96 107 96 307v205q0 115 54 203q-54 88 -54 203v204q0 201 -96 308
l-98 108z" />
    <glyph glyph-name="asciitilde" unicode="~" 
d="M395 997q137 29 252 -22q134 -56 203 -191q13 -26 32.5 -41t40 -17.5t31 -2.5t19.5 2q25 7 35 20q10 15 10 29v148h295v-148q0 -132 -84 -225q-74 -83 -189 -111q-143 -28 -252 23q-134 56 -202 190q-13 26 -32.5 41.5t-40 18t-31 2.5t-19.5 -2q-20 -6 -35 -21
q-10 -10 -10 -28v-148h-295v148q0 132 84 225q77 83 188 110z" />
    <glyph glyph-name="exclamdown" unicode="&#xa1;" horiz-adv-x="540" 
d="M270 569q-61 0 -104 44t-43 104q0 61 42.5 104t104.5 43t105 -43t43 -104q0 -60 -43.5 -104t-104.5 -44zM123 377h295v-946h-295v946z" />
    <glyph glyph-name="cent" unicode="&#xa2;" horiz-adv-x="1302" 
d="M676 1272q175 0 303 -70q137 -77 201 -221l-271 -121q-36 98 -178 115v-514q142 17 178 114l271 -120q-65 -145 -201 -219q-132 -72 -303 -72q-121 0 -221 35q-109 38 -185 114q-74 74 -112 183q-35 92 -35 223q0 129 35 221q37 106 112 184q79 76 185 113q100 35 221 35
zM584 467v500q-66 -15 -105 -54q-61 -61 -61 -196t61 -199q39 -39 105 -51z" />
    <glyph glyph-name="sterling" unicode="&#xa3;" horiz-adv-x="1110" 
d="M987 1139h-229q-172 0 -256 -84t-84 -256v-8h569v-148h-569v-348h569v-295h-864v799q0 141 41 256q44 124 129 209t209 129q115 41 256 41h229v-295z" />
    <glyph glyph-name="currency" unicode="&#xa4;" horiz-adv-x="1351" 
d="M1229 1063l-142 -143q48 -94 48 -203q0 -105 -48 -203l142 -141l-209 -209l-141 143q-96 -47 -203 -47q-111 0 -203 47l-143 -143l-207 209l141 141q-47 96 -47 203q0 111 47 203l-141 143l207 209l143 -144q94 48 203 48q105 0 203 -48l141 144zM791 834q-47 47 -115 47
t-115 -47t-47 -116t47 -116t115 -47t115 47t47 116t-47 116z" />
    <glyph glyph-name="yen" unicode="&#xa5;" horiz-adv-x="1638" 
d="M1073 629h227v-148h-309l-24 -47v-51h333v-147h-333v-236h-295v236h-332v147h332v51l-25 47h-307v148h225l-442 805h336l360 -656l361 656h336z" />
    <glyph glyph-name="brokenbar" unicode="&#xa6;" horiz-adv-x="540" 
d="M418 854h-295v823h295v-823zM418 -244h-295v824h295v-824z" />
    <glyph glyph-name="section" unicode="&#xa7;" horiz-adv-x="1353" 
d="M678 1677q247 0 385 -100q79 -53 125 -143q43 -82 43 -189h-295q0 64 -43 90q-65 47 -215 47q-152 0 -217 -47q-43 -26 -43 -90q0 -60 43 -90q70 -47 217 -47q247 0 385 -100q79 -53 125 -144q43 -82 43 -188q0 -129 -68 -232l-10 -12q21 -25 35 -55q43 -85 43 -189
q0 -103 -43 -188t-125 -143q-144 -101 -385 -101q-240 0 -387 101q-82 58 -125 143t-43 188h295q0 -64 43 -90q65 -47 217 -47q150 0 215 47q43 26 43 90q0 65 -43 91q-65 47 -215 47q-242 0 -387 100q-82 58 -125 143t-43 189q0 133 67 231l11 12q-17 22 -35 58
q-43 82 -43 186q0 107 43 189q46 90 125 143q141 100 387 100zM451 842q-33 -28 -33 -84q0 -64 43 -90q65 -47 217 -47q123 0 225 -27q33 28 33 82q0 64 -43 90q-65 47 -215 47q-117 0 -227 29z" />
    <glyph glyph-name="dieresis" unicode="&#xa8;" horiz-adv-x="237" 
d="M49 1593q21 0 35 -14t14 -35t-14 -35t-35 -14q-20 0 -34.5 14.5t-14.5 34.5t14.5 34.5t34.5 14.5zM188 1593q22 0 36 -14.5t14 -34.5t-14 -34.5t-36 -14.5q-20 0 -34.5 14.5t-14.5 34.5t14.5 34.5t34.5 14.5z" />
    <glyph glyph-name="copyright" unicode="&#xa9;" horiz-adv-x="1679" 
d="M840 1434q168 0 293 -45q136 -49 233 -146q92 -87 145 -233q45 -128 45 -293t-45 -293q-54 -147 -145 -234q-96 -96 -233 -145q-133 -45 -293 -45q-158 0 -291 45q-135 48 -236 145q-95 95 -143 234q-47 133 -47 293t47 293q47 137 143 233q103 98 236 146q125 45 291 45
zM840 1139q-213 0 -317.5 -104.5t-104.5 -317.5t104.5 -317.5t317.5 -104.5q214 0 318 104t104 318t-104 318t-318 104zM846 993q97 0 164 -43q70 -43 98 -129l-139 -45q-23 70 -123 70q-68 0 -98.5 -31t-30.5 -98t30.5 -98t98.5 -31q101 0 123 69l139 -45q-28 -86 -98 -129
q-67 -43 -164 -43q-129 0 -203 74t-74 203t74 203q73 73 203 73z" />
    <glyph glyph-name="guillemotleft" unicode="&#xab;" horiz-adv-x="1568" 
d="M905 1083l-364 -364l364 -367l-207 -209l-575 576l575 573zM1446 1083l-365 -364l365 -367l-207 -209l-575 576l575 573z" />
    <glyph glyph-name="logicalnot" unicode="&#xac;" horiz-adv-x="1191" 
d="M1069 367h-295v407h-651v295h946v-702z" />
    <glyph glyph-name="registered" unicode="&#xae;" horiz-adv-x="1679" 
d="M840 1434q165 0 293 -45q137 -50 233 -146q94 -94 145 -233q45 -128 45 -293t-45 -293q-52 -141 -145 -234q-94 -94 -233 -145q-137 -45 -293 -45t-293 45q-141 52 -234 145t-145 234q-45 137 -45 293t45 293q51 139 145 233q95 95 234 146q128 45 293 45zM840 1139
q-214 0 -318 -104t-104 -318t104 -318t318 -104t318 104t104 318t-104 318t-318 104zM608 993h318q89 0 141.5 -52.5t52.5 -141.5q0 -71 -34.5 -120.5t-94.5 -66.5l129 -172h-184l-121 162h-59v-162h-148v553zM756 846v-96h170q27 0 37 10t10 39q0 27 -10 37t-37 10h-170z
" />
    <glyph glyph-name="macron" unicode="&#xaf;" horiz-adv-x="473" 
d="M473 1495h-473v66h473v-66z" />
    <glyph glyph-name="degree" unicode="&#xb0;" horiz-adv-x="1110" 
d="M555 1434q198 0 315 -117t117 -316q0 -198 -117 -315t-315 -117t-315 117t-117 315q0 199 117 316t315 117zM555 1139q-75 0 -106 -31t-31 -107q0 -75 31 -106t106 -31q76 0 107 31q30 30 30 106q0 77 -30 107q-31 31 -107 31z" />
    <glyph glyph-name="plusminus" unicode="&#xb1;" horiz-adv-x="1191" 
d="M743 1042h326v-294h-326v-326h-294v326h-326v294h326v326h294v-326zM1069 66h-946v294h946v-294z" />
    <glyph glyph-name="acute" unicode="&#xb4;" horiz-adv-x="497" 
d="M498 1774l-463 -279l-35 55l463 279z" />
    <glyph glyph-name="paragraph" unicode="&#xb6;" horiz-adv-x="1517" 
d="M1395 -244h-295v1626h-422q-135 0 -199 -61q-61 -61 -61 -197q0 -135 61 -196q64 -64 199 -64h147v-1108h-295v828q-41 9 -75 20q-113 43 -183 115q-76 73 -114 182q-35 100 -35 223q0 121 35 224q38 106 114 182q74 74 183 112q92 35 223 35h717v-1921z" />
    <glyph glyph-name="periodcentered" unicode="&#xb7;" horiz-adv-x="540" 
d="M270 864q61 0 104.5 -43.5t43.5 -103.5q0 -61 -43 -104.5t-105 -43.5q-61 0 -104 43t-43 105q0 60 43 103.5t104 43.5z" />
    <glyph glyph-name="cedilla" unicode="&#xb8;" horiz-adv-x="372" 
d="M143 63h66q78 -9 121 -59.5t43 -134.5q0 -91 -52.5 -143t-144.5 -52q-132 0 -176 101l59 26q27 -61 117 -61q131 0 131 129q0 131 -131 131h-33v63z" />
    <glyph glyph-name="guillemotright" unicode="&#xbb;" horiz-adv-x="1568" 
d="M905 719l-575 -576l-207 209l364 367l-364 364l207 209zM1446 719l-576 -576l-206 209l364 367l-364 364l206 209z" />
    <glyph glyph-name="onequarter" unicode="&#xbc;" horiz-adv-x="1503" 
d="M1122 1352l-700 -1403l-264 131l700 1403zM270 717h-147v717h147v-717zM1006 270h227v203h147v-473h-147v123h-438l217 594h155z" />
    <glyph glyph-name="onehalf" unicode="&#xbd;" horiz-adv-x="1601" 
d="M1122 1352l-700 -1403l-264 131l700 1403zM270 717h-147v717h147v-717zM1200 717q123 0 197 -58q82 -67 82 -178q0 -115 -82 -178q-71 -59 -197 -59q-58 0 -88.5 -23.5t-38.5 -73.5h406v-147h-555l2 147q9 105 71 170q74 74 203 74q71 0 105 27q26 17 26 63q0 45 -26 62
q-29 26 -105 26q-71 0 -104 -26q-25 -20 -25 -62h-147q0 111 80 178q77 58 196 58z" />
    <glyph glyph-name="threequarters" unicode="&#xbe;" horiz-adv-x="1822" 
d="M1442 1352l-701 -1403l-264 131l701 1403zM399 1434q123 0 197 -58q82 -67 82 -178q0 -71 -43 -123q43 -52 43 -123q0 -111 -82 -178q-72 -57 -197 -57q-121 0 -196 57q-80 67 -80 178h147q0 -41 25 -61q34 -27 104 -27q75 0 105 27q26 17 26 61q0 22 -14 33
q-21 16 -76 16h-123v148h123q55 0 76 16q14 11 14 33q0 45 -26 62q-29 26 -105 26q-71 0 -104 -26q-25 -20 -25 -62h-147q0 111 80 178q77 58 196 58zM1325 270h227v203h148v-473h-148v123h-438l217 594h156z" />
    <glyph glyph-name="questiondown" unicode="&#xbf;" horiz-adv-x="1179" 
d="M596 569q-61 0 -104 44t-43 104q0 61 42.5 104t104.5 43t104.5 -43t42.5 -104q0 -60 -43 -104t-104 -44zM596 -569q-213 0 -338 110q-135 117 -135 322q0 204 135 321q79 70 191 97v96h294v-377h-147q-103 0 -143 -37q-35 -29 -35 -100q0 -66 35 -101q42 -36 143 -36
q88 0 133 28q33 23 41 62l287 -68q-39 -160 -168 -242q-119 -75 -293 -75z" />
    <glyph glyph-name="Agrave" unicode="&#xc0;" horiz-adv-x="1765" 
d="M1133 1550l-35 -55l-463 279l35 55zM1642 0h-325l-76 162h-717l-75 -162h-326l665 1434h189zM659 457h445l-221 479z" />
    <glyph glyph-name="Aacute" unicode="&#xc1;" horiz-adv-x="1765" 
d="M1133 1774l-463 -279l-35 55l463 279zM1642 0h-325l-76 162h-717l-75 -162h-326l665 1434h189zM659 457h445l-221 479z" />
    <glyph glyph-name="Acircumflex" unicode="&#xc2;" horiz-adv-x="1765" 
d="M883 1739l-244 -244l-47 45l291 291l291 -291l-48 -45zM1642 0h-325l-76 162h-717l-75 -162h-326l665 1434h189zM659 457h445l-221 479z" />
    <glyph glyph-name="Atilde" unicode="&#xc3;" horiz-adv-x="1765" 
d="M700 1759q59 13 119.5 -16t93.5 -101q23 -51 61.5 -68.5t78.5 -10.5q34 7 58 33.5t24 72.5v33h65v-33q0 -67 -39 -115q-37 -43 -96 -55q-61 -12 -120 14.5t-93 102.5q-23 51 -62 70t-77 10q-33 -7 -57.5 -34t-24.5 -73v-33h-66v33q0 67 39 115q37 43 96 55zM1642 0h-325
l-76 162h-717l-75 -162h-326l665 1434h189zM659 457h445l-221 479z" />
    <glyph glyph-name="Adieresis" unicode="&#xc4;" horiz-adv-x="1765" 
d="M813 1593q21 0 35 -14t14 -35t-14 -35t-35 -14q-20 0 -34.5 14.5t-14.5 34.5t14.5 34.5t34.5 14.5zM952 1593q21 0 35 -14t14 -35t-14 -35t-35 -14q-20 0 -34.5 14.5t-14.5 34.5t14.5 34.5t34.5 14.5zM1642 0h-325l-76 162h-717l-75 -162h-326l665 1434h189zM659 457h445
l-221 479z" />
    <glyph glyph-name="Aring" unicode="&#xc5;" horiz-adv-x="1765" 
d="M883 1886q92 0 144 -52t52 -144q0 -91 -52 -143t-144 -52q-91 0 -143 52t-52 143q0 92 52 144t143 52zM883 1821q-129 0 -129 -131q0 -129 129 -129q131 0 131 129q0 131 -131 131zM1642 0h-325l-76 162h-717l-75 -162h-326l665 1434h189zM659 457h445l-221 479z" />
    <glyph glyph-name="AE" unicode="&#xc6;" horiz-adv-x="2664" 
d="M2542 1139h-895v-275h813v-295h-813v-274h895v-295h-1190v162h-820l-79 -162h-330l428 864v2q89 172 183.5 282t209.5 175q111 63 260 90q123 21 295 21h1043v-295zM1352 457v678q-167 -14 -262 -68q-75 -43 -141.5 -123.5t-135.5 -212.5l-135 -274h674z" />
    <glyph glyph-name="Ccedilla" unicode="&#xc7;" horiz-adv-x="1648" 
d="M1114 365q93 60 127 188l285 -78q-30 -114 -92 -203t-154 -153q-141 -91 -313 -111q45 -51 45 -137q0 -91 -52.5 -143t-144.5 -52q-132 0 -176 101l59 26q27 -61 117 -61q131 0 131 129q0 114 -100 129h-6q-156 0 -293 45q-141 52 -234 145t-145 234q-45 137 -45 293
t45 293q51 139 145 233q95 95 234 146q128 45 293 45q258 0 440 -119q91 -63 154 -154q62 -89 92 -203l-285 -77q-34 128 -127 188q-101 70 -274 70q-214 0 -318 -104t-104 -318t104 -318t318 -104q173 0 274 70z" />
    <glyph glyph-name="Egrave" unicode="&#xc8;" 
d="M967 1550l-35 -55l-463 279l35 55zM1313 1139h-895v-275h895v-295h-895v-274h895v-295h-1190v1434h1190v-295z" />
    <glyph glyph-name="Eacute" unicode="&#xc9;" 
d="M967 1774l-463 -279l-35 55l463 279zM1313 1139h-895v-275h895v-295h-895v-274h895v-295h-1190v1434h1190v-295z" />
    <glyph glyph-name="Ecircumflex" unicode="&#xca;" 
d="M719 1739l-244 -244l-47 45l291 291l291 -291l-47 -45zM1313 1139h-895v-275h895v-295h-895v-274h895v-295h-1190v1434h1190v-295z" />
    <glyph glyph-name="Edieresis" unicode="&#xcb;" 
d="M649 1593q21 0 35 -14t14 -35t-14 -35t-35 -14q-20 0 -34.5 14.5t-14.5 34.5t14.5 34.5t34.5 14.5zM788 1593q22 0 36 -14.5t14 -34.5t-14 -34.5t-36 -14.5q-20 0 -34.5 14.5t-14.5 34.5t14.5 34.5t34.5 14.5zM1313 1139h-895v-275h895v-295h-895v-274h895v-295h-1190
v1434h1190v-295z" />
    <glyph glyph-name="Igrave" unicode="&#xcc;" horiz-adv-x="540" 
d="M518 1550l-35 -55l-463 279l35 55zM418 0h-295v1434h295v-1434z" />
    <glyph glyph-name="Iacute" unicode="&#xcd;" horiz-adv-x="540" 
d="M518 1774l-463 -279l-35 55l463 279zM418 0h-295v1434h295v-1434z" />
    <glyph glyph-name="Icircumflex" unicode="&#xce;" horiz-adv-x="540" 
d="M270 1739l-243 -244l-47 45l290 291l291 -291l-47 -45zM418 0h-295v1434h295v-1434z" />
    <glyph glyph-name="Idieresis" unicode="&#xcf;" horiz-adv-x="540" 
d="M201 1593q21 0 35 -14t14 -35t-14 -35t-35 -14q-20 0 -34.5 14.5t-14.5 34.5t14.5 34.5t34.5 14.5zM340 1593q21 0 35 -14t14 -35t-14 -35t-35 -14q-20 0 -34.5 14.5t-14.5 34.5t14.5 34.5t34.5 14.5zM418 0h-295v1434h295v-1434z" />
    <glyph glyph-name="Eth" unicode="&#xd0;" horiz-adv-x="1597" 
d="M1430 1010q45 -128 45 -293t-45 -293q-51 -139 -146 -234q-96 -96 -233 -145q-133 -45 -293 -45h-635v1434h635q168 0 293 -45q136 -49 233 -146q96 -96 146 -233zM418 295h340q214 0 318 104t104 318t-104 318t-318 104h-340v-389h446v-66h-446v-389z" />
    <glyph glyph-name="Ntilde" unicode="&#xd1;" horiz-adv-x="1558" 
d="M598 1759q59 13 119.5 -16t93.5 -101q23 -51 61 -68.5t78 -10.5q34 7 58 33.5t24 72.5v33h66v-33q0 -67 -39 -115q-37 -43 -96 -55q-61 -12 -120 14.5t-93 102.5q-23 51 -62 70t-78 10q-33 -7 -57.5 -34t-24.5 -73v-33h-65v33q0 67 39 115q37 43 96 55zM1436 0h-215
l-803 899v-899h-295v1434h213l805 -899v899h295v-1434z" />
    <glyph glyph-name="Ograve" unicode="&#xd2;" horiz-adv-x="1679" 
d="M1090 1550l-35 -55l-463 279l35 55zM840 1434q165 0 293 -45q137 -50 233 -146q94 -94 145 -233q45 -128 45 -293t-45 -293q-52 -141 -145 -234q-94 -94 -233 -145q-137 -45 -293 -45t-293 45q-141 52 -234 145t-145 234q-45 137 -45 293t45 293q51 139 145 233
q95 95 234 146q128 45 293 45zM840 1139q-214 0 -318 -104t-104 -318t104 -318t318 -104t318 104t104 318t-104 318t-318 104z" />
    <glyph glyph-name="Oacute" unicode="&#xd3;" horiz-adv-x="1679" 
d="M1090 1774l-463 -279l-35 55l463 279zM840 1434q165 0 293 -45q137 -50 233 -146q94 -94 145 -233q45 -128 45 -293t-45 -293q-52 -141 -145 -234q-94 -94 -233 -145q-137 -45 -293 -45t-293 45q-141 52 -234 145t-145 234q-45 137 -45 293t45 293q51 139 145 233
q95 95 234 146q128 45 293 45zM840 1139q-214 0 -318 -104t-104 -318t104 -318t318 -104t318 104t104 318t-104 318t-318 104z" />
    <glyph glyph-name="Ocircumflex" unicode="&#xd4;" horiz-adv-x="1679" 
d="M840 1739l-244 -244l-47 45l291 291l290 -291l-47 -45zM840 1434q165 0 293 -45q137 -50 233 -146q94 -94 145 -233q45 -128 45 -293t-45 -293q-52 -141 -145 -234q-94 -94 -233 -145q-137 -45 -293 -45t-293 45q-141 52 -234 145t-145 234q-45 137 -45 293t45 293
q51 139 145 233q95 95 234 146q128 45 293 45zM840 1139q-214 0 -318 -104t-104 -318t104 -318t318 -104t318 104t104 318t-104 318t-318 104z" />
    <glyph glyph-name="Otilde" unicode="&#xd5;" horiz-adv-x="1679" 
d="M657 1759q59 13 119.5 -16t93.5 -101q23 -51 61.5 -68.5t78.5 -10.5q34 7 58 33.5t24 72.5v33h65v-33q0 -67 -39 -115q-37 -43 -96 -55q-61 -12 -120 14.5t-93 102.5q-23 51 -62 70t-77 10q-33 -7 -57.5 -34t-24.5 -73v-33h-66v33q0 67 39 115q37 43 96 55zM840 1434
q165 0 293 -45q137 -50 233 -146q94 -94 145 -233q45 -128 45 -293t-45 -293q-52 -141 -145 -234q-94 -94 -233 -145q-137 -45 -293 -45t-293 45q-141 52 -234 145t-145 234q-45 137 -45 293t45 293q51 139 145 233q95 95 234 146q128 45 293 45zM840 1139q-214 0 -318 -104
t-104 -318t104 -318t318 -104t318 104t104 318t-104 318t-318 104z" />
    <glyph glyph-name="Odieresis" unicode="&#xd6;" horiz-adv-x="1679" 
d="M770 1593q21 0 35 -14t14 -35t-14 -35t-35 -14q-20 0 -34.5 14.5t-14.5 34.5t14.5 34.5t34.5 14.5zM909 1593q21 0 35 -14t14 -35t-14 -35t-35 -14q-20 0 -34.5 14.5t-14.5 34.5t14.5 34.5t34.5 14.5zM840 1434q165 0 293 -45q137 -50 233 -146q94 -94 145 -233
q45 -128 45 -293t-45 -293q-52 -141 -145 -234q-94 -94 -233 -145q-137 -45 -293 -45t-293 45q-141 52 -234 145t-145 234q-45 137 -45 293t45 293q51 139 145 233q95 95 234 146q128 45 293 45zM840 1139q-214 0 -318 -104t-104 -318t104 -318t318 -104t318 104t104 318
t-104 318t-318 104z" />
    <glyph glyph-name="multiply" unicode="&#xd7;" horiz-adv-x="1239" 
d="M1116 1006l-289 -289l289 -287l-209 -209l-289 287l-286 -287l-209 209l287 287l-287 289l209 208l286 -288l289 288z" />
    <glyph glyph-name="Oslash" unicode="&#xd8;" horiz-adv-x="1679" 
d="M1511 1010q45 -128 45 -293t-45 -293q-52 -141 -145 -234q-94 -94 -233 -145q-137 -45 -293 -45t-293 45q-99 37 -166 88l-27 -31l-49 43l25 29l-17 16q-93 93 -145 234q-45 137 -45 293t45 293q51 139 145 233q95 95 234 146q128 45 293 45t293 -45q94 -37 163 -86
l27 30l51 -43l-26 -30l18 -17q94 -94 145 -233zM418 717q0 -214 104 -318l582 678q-103 62 -264 62q-214 0 -318 -104t-104 -318zM840 295q214 0 318 104t104 318q0 215 -107 319l-582 -678q100 -63 267 -63z" />
    <glyph glyph-name="Ugrave" unicode="&#xd9;" horiz-adv-x="1515" 
d="M1008 1550l-35 -55l-463 279l35 55zM1393 1434v-799q0 -146 -39 -256q-42 -119 -129 -209q-84 -84 -209 -129q-118 -41 -258 -41t-258 41q-122 44 -207 129t-129 209q-41 107 -41 256v799h295v-799q0 -174 82 -256q84 -84 258 -84t258 84q82 82 82 256v799h295z" />
    <glyph glyph-name="Uacute" unicode="&#xda;" horiz-adv-x="1515" 
d="M1008 1774l-463 -279l-35 55l463 279zM1393 1434v-799q0 -146 -39 -256q-42 -119 -129 -209q-84 -84 -209 -129q-118 -41 -258 -41t-258 41q-122 44 -207 129t-129 209q-41 107 -41 256v799h295v-799q0 -174 82 -256q84 -84 258 -84t258 84q82 82 82 256v799h295z" />
    <glyph glyph-name="Ucircumflex" unicode="&#xdb;" horiz-adv-x="1515" 
d="M758 1739l-244 -244l-47 45l291 291l291 -291l-48 -45zM1393 1434v-799q0 -146 -39 -256q-42 -119 -129 -209q-84 -84 -209 -129q-118 -41 -258 -41t-258 41q-122 44 -207 129t-129 209q-41 107 -41 256v799h295v-799q0 -174 82 -256q84 -84 258 -84t258 84q82 82 82 256
v799h295z" />
    <glyph glyph-name="Udieresis" unicode="&#xdc;" horiz-adv-x="1515" 
d="M688 1593q21 0 35 -14t14 -35t-14 -35t-35 -14q-20 0 -34.5 14.5t-14.5 34.5t14.5 34.5t34.5 14.5zM827 1593q21 0 35.5 -14.5t14.5 -34.5t-14.5 -34.5t-35.5 -14.5q-20 0 -34.5 14.5t-14.5 34.5t14.5 34.5t34.5 14.5zM1393 1434v-799q0 -146 -39 -256
q-42 -119 -129 -209q-84 -84 -209 -129q-118 -41 -258 -41t-258 41q-122 44 -207 129t-129 209q-41 107 -41 256v799h295v-799q0 -174 82 -256q84 -84 258 -84t258 84q82 82 82 256v799h295z" />
    <glyph glyph-name="Yacute" unicode="&#xdd;" horiz-adv-x="1638" 
d="M1069 1774l-463 -279l-35 55l463 279zM967 434v-434h-295v434l-549 1000h336l360 -656l361 656h336z" />
    <glyph glyph-name="Thorn" unicode="&#xde;" horiz-adv-x="1517" 
d="M418 1251h442q122 0 215 -34q101 -37 176 -109q75 -75 109 -176q35 -100 35 -215q0 -117 -35 -213q-34 -103 -109 -178q-75 -72 -176 -109q-96 -35 -215 -35h-442v-182h-295v1434h295v-183zM418 956v-479h442q124 0 182 58t58 182t-58 182q-57 57 -182 57h-442z" />
    <glyph glyph-name="agrave" unicode="&#xe0;" horiz-adv-x="1765" 
d="M1133 1550l-35 -55l-463 279l35 55zM1642 0h-325l-76 162h-717l-75 -162h-326l665 1434h189zM829 1368l-604 -1302h183l75 161h799l76 -161h182l-604 1302h-107zM1206 391h-649l326 701zM659 457h445l-221 479z" />
    <glyph glyph-name="aacute" unicode="&#xe1;" horiz-adv-x="1765" 
d="M1133 1774l-463 -279l-35 55l463 279zM1642 0h-325l-76 162h-717l-75 -162h-326l665 1434h189zM829 1368l-604 -1302h183l75 161h799l76 -161h182l-604 1302h-107zM1206 391h-649l326 701zM659 457h445l-221 479z" />
    <glyph glyph-name="acircumflex" unicode="&#xe2;" horiz-adv-x="1765" 
d="M883 1739l-244 -244l-47 45l291 291l291 -291l-48 -45zM1642 0h-325l-76 162h-717l-75 -162h-326l665 1434h189zM829 1368l-604 -1302h183l75 161h799l76 -161h182l-604 1302h-107zM1206 391h-649l326 701zM659 457h445l-221 479z" />
    <glyph glyph-name="atilde" unicode="&#xe3;" horiz-adv-x="1765" 
d="M700 1759q59 13 119.5 -16t93.5 -101q23 -51 61.5 -68.5t78.5 -10.5q34 7 58 33.5t24 72.5v33h65v-33q0 -67 -39 -115q-37 -43 -96 -55q-61 -12 -120 14.5t-93 102.5q-23 51 -62 70t-77 10q-33 -7 -57.5 -34t-24.5 -73v-33h-66v33q0 67 39 115q37 43 96 55zM1642 0h-325
l-76 162h-717l-75 -162h-326l665 1434h189zM829 1368l-604 -1302h183l75 161h799l76 -161h182l-604 1302h-107zM1206 391h-649l326 701zM659 457h445l-221 479z" />
    <glyph glyph-name="adieresis" unicode="&#xe4;" horiz-adv-x="1765" 
d="M813 1593q21 0 35 -14t14 -35t-14 -35t-35 -14q-20 0 -34.5 14.5t-14.5 34.5t14.5 34.5t34.5 14.5zM952 1593q21 0 35 -14t14 -35t-14 -35t-35 -14q-20 0 -34.5 14.5t-14.5 34.5t14.5 34.5t34.5 14.5zM1642 0h-325l-76 162h-717l-75 -162h-326l665 1434h189zM829 1368
l-604 -1302h183l75 161h799l76 -161h182l-604 1302h-107zM1206 391h-649l326 701zM659 457h445l-221 479z" />
    <glyph glyph-name="aring" unicode="&#xe5;" horiz-adv-x="1765" 
d="M883 1886q92 0 144 -52t52 -144q0 -91 -52 -143t-144 -52q-91 0 -143 52t-52 143q0 92 52 144t143 52zM883 1821q-129 0 -129 -131q0 -129 129 -129q131 0 131 129q0 131 -131 131zM1642 0h-325l-76 162h-717l-75 -162h-326l665 1434h189zM829 1368l-604 -1302h183
l75 161h799l76 -161h182l-604 1302h-107zM1206 391h-649l326 701zM659 457h445l-221 479z" />
    <glyph glyph-name="ae" unicode="&#xe6;" horiz-adv-x="2664" 
d="M2542 1139h-895v-275h813v-295h-813v-274h895v-295h-1190v162h-820l-79 -162h-330l428 864v2q89 172 183.5 282t209.5 175q111 63 260 90q123 21 295 21h1043v-295zM2476 1368h-977q-168 0 -282 -18q-145 -28 -240 -84q-109 -62 -194.5 -161.5t-172.5 -268.5l-381 -770
h183l80 161h925v-161h1059v163h-895v406h813v164h-813v405h895v164zM1417 391h-844l45 94l138 277q70 137 141 223q75 90 160 139q106 59 289 76l71 6v-815zM1352 457v678q-167 -14 -262 -68q-75 -43 -141.5 -123.5t-135.5 -212.5l-135 -274h674z" />
    <glyph glyph-name="ccedilla" unicode="&#xe7;" horiz-adv-x="1648" 
d="M1114 365q93 60 127 188l285 -78q-30 -114 -92 -203t-154 -153q-141 -91 -313 -111q45 -51 45 -137q0 -91 -52.5 -143t-144.5 -52q-132 0 -176 101l59 26q27 -61 117 -61q131 0 131 129q0 114 -100 129h-6q-156 0 -293 45q-141 52 -234 145t-145 234q-45 137 -45 293
t45 293q51 139 145 233q95 95 234 146q128 45 293 45q258 0 440 -119q91 -63 154 -154q62 -89 92 -203l-285 -77q-34 128 -127 188q-101 70 -274 70q-214 0 -318 -104t-104 -318t104 -318t318 -104q173 0 274 70zM1442 430l-158 43q-43 -105 -133 -164q-60 -40 -141 -61
q-78 -19 -170 -19q-112 0 -207 29q-91 30 -158 94q-64 67 -94 158q-29 95 -29 207t29 207q29 89 94 157q69 66 158 95q92 28 207 28q96 0 170 -18q78 -21 141 -62q90 -60 133 -163l158 43q-23 63 -62 120q-59 84 -137 136q-163 108 -403 108q-153 0 -271 -41
q-128 -47 -209 -131q-83 -80 -131 -207q-41 -131 -41 -272q0 -142 41 -273q47 -125 131 -206q82 -85 207 -132q127 -40 273 -40q240 0 403 108q79 52 137 135q38 56 62 121z" />
    <glyph glyph-name="egrave" unicode="&#xe8;" 
d="M967 1550l-35 -55l-463 279l35 55zM1313 1139h-895v-275h895v-295h-895v-274h895v-295h-1190v1434h1190v-295zM188 1368v-1302h1059v163h-895v406h895v164h-895v405h895v164h-1059z" />
    <glyph glyph-name="eacute" unicode="&#xe9;" 
d="M967 1774l-463 -279l-35 55l463 279zM1313 1139h-895v-275h895v-295h-895v-274h895v-295h-1190v1434h1190v-295zM188 1368v-1302h1059v163h-895v406h895v164h-895v405h895v164h-1059z" />
    <glyph glyph-name="ecircumflex" unicode="&#xea;" 
d="M719 1739l-244 -244l-47 45l291 291l291 -291l-47 -45zM1313 1139h-895v-275h895v-295h-895v-274h895v-295h-1190v1434h1190v-295zM188 1368v-1302h1059v163h-895v406h895v164h-895v405h895v164h-1059z" />
    <glyph glyph-name="edieresis" unicode="&#xeb;" 
d="M649 1593q21 0 35 -14t14 -35t-14 -35t-35 -14q-20 0 -34.5 14.5t-14.5 34.5t14.5 34.5t34.5 14.5zM788 1593q22 0 36 -14.5t14 -34.5t-14 -34.5t-36 -14.5q-20 0 -34.5 14.5t-14.5 34.5t14.5 34.5t34.5 14.5zM1313 1139h-895v-275h895v-295h-895v-274h895v-295h-1190
v1434h1190v-295zM188 1368v-1302h1059v163h-895v406h895v164h-895v405h895v164h-1059z" />
    <glyph glyph-name="igrave" unicode="&#xec;" horiz-adv-x="540" 
d="M518 1550l-35 -55l-463 279l35 55zM418 0h-295v1434h295v-1434zM188 1368v-1302h164v1302h-164z" />
    <glyph glyph-name="iacute" unicode="&#xed;" horiz-adv-x="540" 
d="M518 1774l-463 -279l-35 55l463 279zM418 0h-295v1434h295v-1434zM188 1368v-1302h164v1302h-164z" />
    <glyph glyph-name="icircumflex" unicode="&#xee;" horiz-adv-x="540" 
d="M270 1739l-243 -244l-47 45l290 291l291 -291l-47 -45zM418 0h-295v1434h295v-1434zM188 1368v-1302h164v1302h-164z" />
    <glyph glyph-name="idieresis" unicode="&#xef;" horiz-adv-x="540" 
d="M201 1593q21 0 35 -14t14 -35t-14 -35t-35 -14q-20 0 -34.5 14.5t-14.5 34.5t14.5 34.5t34.5 14.5zM340 1593q21 0 35 -14t14 -35t-14 -35t-35 -14q-20 0 -34.5 14.5t-14.5 34.5t14.5 34.5t34.5 14.5zM418 0h-295v1434h295v-1434zM188 1368v-1302h164v1302h-164z" />
    <glyph glyph-name="eth" unicode="&#xf0;" horiz-adv-x="1597" 
d="M1430 1010q45 -128 45 -293t-45 -293q-51 -139 -146 -234q-96 -96 -233 -145q-133 -45 -293 -45h-635v1434h635q168 0 293 -45q136 -49 233 -146q96 -96 146 -233zM1368 446q41 118 41 271q0 152 -41 270q-47 128 -131 209q-88 88 -209 131q-115 41 -270 41h-570v-1302
h570q148 0 272 40q118 43 207 132q84 81 131 208zM1122 1081q66 -70 95 -157q28 -92 28 -207t-28 -207q-29 -89 -95 -158q-68 -65 -157 -94q-95 -29 -207 -29h-406v455h-82v66h82v454h406q115 0 207 -28q87 -29 157 -95zM418 295h340q214 0 318 104t104 318t-104 318
t-318 104h-340v-389h446v-66h-446v-389z" />
    <glyph glyph-name="ntilde" unicode="&#xf1;" horiz-adv-x="1558" 
d="M598 1759q59 13 119.5 -16t93.5 -101q23 -51 61 -68.5t78 -10.5q34 7 58 33.5t24 72.5v33h66v-33q0 -67 -39 -115q-37 -43 -96 -55q-61 -12 -120 14.5t-93 102.5q-23 51 -62 70t-78 10q-33 -7 -57.5 -34t-24.5 -73v-33h-65v33q0 67 39 115q37 43 96 55zM1436 0h-215
l-803 899v-899h-295v1434h213l805 -899v899h295v-1434zM1206 1368v-1006l-899 1006h-119v-1302h164v1005l897 -1005h121v1302h-164z" />
    <glyph glyph-name="ograve" unicode="&#xf2;" horiz-adv-x="1679" 
d="M1090 1550l-35 -55l-463 279l35 55zM840 1434q165 0 293 -45q137 -50 233 -146q94 -94 145 -233q45 -128 45 -293t-45 -293q-52 -141 -145 -234q-94 -94 -233 -145q-137 -45 -293 -45t-293 45q-141 52 -234 145t-145 234q-45 137 -45 293t45 293q51 139 145 233
q95 95 234 146q128 45 293 45zM840 1368q-153 0 -271 -41q-128 -47 -209 -131q-83 -80 -131 -207q-41 -131 -41 -272q0 -142 41 -273q47 -125 131 -206q82 -85 207 -132q127 -40 273 -40q145 0 272 40q125 47 207 132q84 81 131 208q41 118 41 271q0 152 -41 270
q-47 128 -131 209q-81 84 -209 131q-118 41 -270 41zM840 1204q115 0 207 -28q87 -29 157 -95q65 -68 94 -157q29 -95 29 -207t-29 -207q-30 -91 -94 -158q-68 -65 -157 -94q-95 -29 -207 -29t-207 29q-91 30 -158 94q-64 67 -94 158q-29 95 -29 207t29 207q29 89 94 157
q69 66 158 95q92 28 207 28zM840 1139q-214 0 -318 -104t-104 -318t104 -318t318 -104t318 104t104 318t-104 318t-318 104z" />
    <glyph glyph-name="oacute" unicode="&#xf3;" horiz-adv-x="1679" 
d="M1090 1774l-463 -279l-35 55l463 279zM840 1434q165 0 293 -45q137 -50 233 -146q94 -94 145 -233q45 -128 45 -293t-45 -293q-52 -141 -145 -234q-94 -94 -233 -145q-137 -45 -293 -45t-293 45q-141 52 -234 145t-145 234q-45 137 -45 293t45 293q51 139 145 233
q95 95 234 146q128 45 293 45zM840 1368q-153 0 -271 -41q-128 -47 -209 -131q-83 -80 -131 -207q-41 -131 -41 -272q0 -142 41 -273q47 -125 131 -206q82 -85 207 -132q127 -40 273 -40q145 0 272 40q125 47 207 132q84 81 131 208q41 118 41 271q0 152 -41 270
q-47 128 -131 209q-81 84 -209 131q-118 41 -270 41zM840 1204q115 0 207 -28q87 -29 157 -95q65 -68 94 -157q29 -95 29 -207t-29 -207q-30 -91 -94 -158q-68 -65 -157 -94q-95 -29 -207 -29t-207 29q-91 30 -158 94q-64 67 -94 158q-29 95 -29 207t29 207q29 89 94 157
q69 66 158 95q92 28 207 28zM840 1139q-214 0 -318 -104t-104 -318t104 -318t318 -104t318 104t104 318t-104 318t-318 104z" />
    <glyph glyph-name="ocircumflex" unicode="&#xf4;" horiz-adv-x="1679" 
d="M840 1739l-244 -244l-47 45l291 291l290 -291l-47 -45zM840 1434q165 0 293 -45q137 -50 233 -146q94 -94 145 -233q45 -128 45 -293t-45 -293q-52 -141 -145 -234q-94 -94 -233 -145q-137 -45 -293 -45t-293 45q-141 52 -234 145t-145 234q-45 137 -45 293t45 293
q51 139 145 233q95 95 234 146q128 45 293 45zM840 1368q-153 0 -271 -41q-128 -47 -209 -131q-83 -80 -131 -207q-41 -131 -41 -272q0 -142 41 -273q47 -125 131 -206q82 -85 207 -132q127 -40 273 -40q145 0 272 40q125 47 207 132q84 81 131 208q41 118 41 271
q0 152 -41 270q-47 128 -131 209q-81 84 -209 131q-118 41 -270 41zM840 1204q115 0 207 -28q87 -29 157 -95q65 -68 94 -157q29 -95 29 -207t-29 -207q-30 -91 -94 -158q-68 -65 -157 -94q-95 -29 -207 -29t-207 29q-91 30 -158 94q-64 67 -94 158q-29 95 -29 207t29 207
q29 89 94 157q69 66 158 95q92 28 207 28zM840 1139q-214 0 -318 -104t-104 -318t104 -318t318 -104t318 104t104 318t-104 318t-318 104z" />
    <glyph glyph-name="otilde" unicode="&#xf5;" horiz-adv-x="1679" 
d="M657 1759q59 13 119.5 -16t93.5 -101q23 -51 61.5 -68.5t78.5 -10.5q34 7 58 33.5t24 72.5v33h65v-33q0 -67 -39 -115q-37 -43 -96 -55q-61 -12 -120 14.5t-93 102.5q-23 51 -62 70t-77 10q-33 -7 -57.5 -34t-24.5 -73v-33h-66v33q0 67 39 115q37 43 96 55zM840 1434
q165 0 293 -45q137 -50 233 -146q94 -94 145 -233q45 -128 45 -293t-45 -293q-52 -141 -145 -234q-94 -94 -233 -145q-137 -45 -293 -45t-293 45q-141 52 -234 145t-145 234q-45 137 -45 293t45 293q51 139 145 233q95 95 234 146q128 45 293 45zM840 1368q-153 0 -271 -41
q-128 -47 -209 -131q-83 -80 -131 -207q-41 -131 -41 -272q0 -142 41 -273q47 -125 131 -206q82 -85 207 -132q127 -40 273 -40q145 0 272 40q125 47 207 132q84 81 131 208q41 118 41 271q0 152 -41 270q-47 128 -131 209q-81 84 -209 131q-118 41 -270 41zM840 1204
q115 0 207 -28q87 -29 157 -95q65 -68 94 -157q29 -95 29 -207t-29 -207q-30 -91 -94 -158q-68 -65 -157 -94q-95 -29 -207 -29t-207 29q-91 30 -158 94q-64 67 -94 158q-29 95 -29 207t29 207q29 89 94 157q69 66 158 95q92 28 207 28zM840 1139q-214 0 -318 -104
t-104 -318t104 -318t318 -104t318 104t104 318t-104 318t-318 104z" />
    <glyph glyph-name="odieresis" unicode="&#xf6;" horiz-adv-x="1679" 
d="M770 1593q21 0 35 -14t14 -35t-14 -35t-35 -14q-20 0 -34.5 14.5t-14.5 34.5t14.5 34.5t34.5 14.5zM909 1593q21 0 35 -14t14 -35t-14 -35t-35 -14q-20 0 -34.5 14.5t-14.5 34.5t14.5 34.5t34.5 14.5zM840 1434q165 0 293 -45q137 -50 233 -146q94 -94 145 -233
q45 -128 45 -293t-45 -293q-52 -141 -145 -234q-94 -94 -233 -145q-137 -45 -293 -45t-293 45q-141 52 -234 145t-145 234q-45 137 -45 293t45 293q51 139 145 233q95 95 234 146q128 45 293 45zM840 1368q-153 0 -271 -41q-128 -47 -209 -131q-83 -80 -131 -207
q-41 -131 -41 -272q0 -142 41 -273q47 -125 131 -206q82 -85 207 -132q127 -40 273 -40q145 0 272 40q125 47 207 132q84 81 131 208q41 118 41 271q0 152 -41 270q-47 128 -131 209q-81 84 -209 131q-118 41 -270 41zM840 1204q115 0 207 -28q87 -29 157 -95
q65 -68 94 -157q29 -95 29 -207t-29 -207q-30 -91 -94 -158q-68 -65 -157 -94q-95 -29 -207 -29t-207 29q-91 30 -158 94q-64 67 -94 158q-29 95 -29 207t29 207q29 89 94 157q69 66 158 95q92 28 207 28zM840 1139q-214 0 -318 -104t-104 -318t104 -318t318 -104t318 104
t104 318t-104 318t-318 104z" />
    <glyph glyph-name="divide" unicode="&#xf7;" horiz-adv-x="1359" 
d="M680 1434q61 0 104 -44t43 -104q0 -62 -42.5 -104.5t-104.5 -42.5t-105 43t-43 104q0 60 43.5 104t104.5 44zM1237 569h-1114v295h1114v-295zM680 295q61 0 104 -44t43 -104q0 -61 -42.5 -104t-104.5 -43t-105 43t-43 104q0 60 43.5 104t104.5 44z" />
    <glyph glyph-name="oslash" unicode="&#xf8;" horiz-adv-x="1679" 
d="M1511 1010q45 -128 45 -293t-45 -293q-52 -141 -145 -234q-94 -94 -233 -145q-137 -45 -293 -45t-293 45q-99 37 -166 88l-27 -31l-49 43l25 29l-17 16q-93 93 -145 234q-45 137 -45 293t45 293q51 139 145 233q95 95 234 146q128 45 293 45t293 -45q94 -37 163 -86
l27 30l51 -43l-26 -30l18 -17q94 -94 145 -233zM360 238l13 -13l106 123l-4 4q-64 67 -94 158q-29 95 -29 207t29 207q29 89 94 157q69 66 158 95q92 28 207 28t207 -28q45 -15 100 -50l106 127q-61 43 -143 74q-118 41 -270 41q-153 0 -271 -41q-128 -47 -209 -131
q-83 -80 -131 -207q-41 -131 -41 -272q0 -142 41 -273q47 -125 131 -206zM1450 446q41 118 41 271q0 152 -41 270q-47 128 -131 209l-12 14l-107 -125l4 -4q65 -68 94 -157q29 -95 29 -207t-29 -207q-30 -91 -94 -158q-68 -65 -157 -94q-95 -29 -207 -29t-207 29
q-54 18 -103 49l-106 -125q64 -46 143 -76q127 -40 273 -40q145 0 272 40q125 47 207 132q84 81 131 208zM522 399l582 678q-103 62 -264 62q-214 0 -318 -104t-104 -318t104 -318zM1262 717q0 215 -107 319l-582 -678q100 -63 267 -63q214 0 318 104t104 318z" />
    <glyph glyph-name="ugrave" unicode="&#xf9;" horiz-adv-x="1515" 
d="M1008 1550l-35 -55l-463 279l35 55zM1393 1434v-799q0 -146 -39 -256q-42 -119 -129 -209q-84 -84 -209 -129q-118 -41 -258 -41t-258 41q-122 44 -207 129t-129 209q-41 107 -41 256v799h295v-799q0 -174 82 -256q84 -84 258 -84t258 84q82 82 82 256v799h295z
M1163 1368v-733q0 -93 -22 -170q-28 -83 -78 -133q-54 -54 -133 -78q-80 -25 -172 -25t-172 25q-79 24 -133 78q-50 50 -78 133q-23 81 -23 170v733h-164v-733q0 -136 37 -234q41 -113 115 -184q70 -73 182 -115q104 -36 236 -36q131 0 235 36q108 40 185 113q77 83 114 186
q35 100 35 234v733h-164z" />
    <glyph glyph-name="uacute" unicode="&#xfa;" horiz-adv-x="1515" 
d="M1008 1774l-463 -279l-35 55l463 279zM1393 1434v-799q0 -146 -39 -256q-42 -119 -129 -209q-84 -84 -209 -129q-118 -41 -258 -41t-258 41q-122 44 -207 129t-129 209q-41 107 -41 256v799h295v-799q0 -174 82 -256q84 -84 258 -84t258 84q82 82 82 256v799h295z
M1163 1368v-733q0 -93 -22 -170q-28 -83 -78 -133q-54 -54 -133 -78q-80 -25 -172 -25t-172 25q-79 24 -133 78q-50 50 -78 133q-23 81 -23 170v733h-164v-733q0 -136 37 -234q41 -113 115 -184q70 -73 182 -115q104 -36 236 -36q131 0 235 36q108 40 185 113q77 83 114 186
q35 100 35 234v733h-164z" />
    <glyph glyph-name="ucircumflex" unicode="&#xfb;" horiz-adv-x="1515" 
d="M758 1739l-244 -244l-47 45l291 291l291 -291l-48 -45zM1393 1434v-799q0 -146 -39 -256q-42 -119 -129 -209q-84 -84 -209 -129q-118 -41 -258 -41t-258 41q-122 44 -207 129t-129 209q-41 107 -41 256v799h295v-799q0 -174 82 -256q84 -84 258 -84t258 84q82 82 82 256
v799h295zM1163 1368v-733q0 -93 -22 -170q-28 -83 -78 -133q-54 -54 -133 -78q-80 -25 -172 -25t-172 25q-79 24 -133 78q-50 50 -78 133q-23 81 -23 170v733h-164v-733q0 -136 37 -234q41 -113 115 -184q70 -73 182 -115q104 -36 236 -36q131 0 235 36q108 40 185 113
q77 83 114 186q35 100 35 234v733h-164z" />
    <glyph glyph-name="udieresis" unicode="&#xfc;" horiz-adv-x="1515" 
d="M688 1593q21 0 35 -14t14 -35t-14 -35t-35 -14q-20 0 -34.5 14.5t-14.5 34.5t14.5 34.5t34.5 14.5zM827 1593q21 0 35.5 -14.5t14.5 -34.5t-14.5 -34.5t-35.5 -14.5q-20 0 -34.5 14.5t-14.5 34.5t14.5 34.5t34.5 14.5zM1393 1434v-799q0 -146 -39 -256
q-42 -119 -129 -209q-84 -84 -209 -129q-118 -41 -258 -41t-258 41q-122 44 -207 129t-129 209q-41 107 -41 256v799h295v-799q0 -174 82 -256q84 -84 258 -84t258 84q82 82 82 256v799h295zM1163 1368v-733q0 -93 -22 -170q-28 -83 -78 -133q-54 -54 -133 -78
q-80 -25 -172 -25t-172 25q-79 24 -133 78q-50 50 -78 133q-23 81 -23 170v733h-164v-733q0 -136 37 -234q41 -113 115 -184q70 -73 182 -115q104 -36 236 -36q131 0 235 36q108 40 185 113q77 83 114 186q35 100 35 234v733h-164z" />
    <glyph glyph-name="yacute" unicode="&#xfd;" horiz-adv-x="1638" 
d="M1069 1774l-463 -279l-35 55l463 279zM967 434v-434h-295v434l-549 1000h336l360 -656l361 656h336zM1219 1368l-400 -725l-399 725h-187l504 -917v-385h164v385l504 917h-186z" />
    <glyph glyph-name="thorn" unicode="&#xfe;" horiz-adv-x="1517" 
d="M418 1251h442q122 0 215 -34q101 -37 176 -109q75 -75 109 -176q35 -100 35 -215q0 -117 -35 -213q-34 -103 -109 -178q-75 -72 -176 -109q-96 -35 -215 -35h-442v-182h-295v1434h295v-183zM188 1368v-1302h164v182h508q105 0 193 31q84 29 153 94q64 67 92 153
q31 88 31 191q0 99 -31 194q-31 89 -92 150q-69 65 -153 94q-88 31 -193 31h-508v182h-164zM352 1022h508q74 0 129 -18q56 -16 101 -58q75 -78 75 -229q0 -68 -16 -127q-23 -67 -59 -103q-43 -40 -101 -57q-55 -18 -129 -18h-508v610zM418 956v-479h442q124 0 182 58
t58 182t-58 182q-57 57 -182 57h-442z" />
    <glyph glyph-name="ydieresis" unicode="&#xff;" horiz-adv-x="1638" 
d="M750 1593q21 0 35 -14t14 -35t-14 -35t-35 -14q-20 0 -35 14.5t-15 34.5t15 34.5t35 14.5zM889 1593q21 0 35 -14t14 -35t-14 -35t-35 -14q-20 0 -34.5 14.5t-14.5 34.5t14.5 34.5t34.5 14.5zM967 434v-434h-295v434l-549 1000h336l360 -656l361 656h336zM1219 1368
l-400 -725l-399 725h-187l504 -917v-385h164v385l504 917h-186z" />
    <glyph glyph-name="Amacron" unicode="&#x100;" horiz-adv-x="1765" 
d="M1120 1495h-473v66h473v-66zM1642 0h-325l-76 162h-717l-75 -162h-326l665 1434h189zM659 457h445l-221 479z" />
    <glyph glyph-name="amacron" unicode="&#x101;" horiz-adv-x="1765" 
d="M1120 1495h-473v66h473v-66zM1642 0h-325l-76 162h-717l-75 -162h-326l665 1434h189zM829 1368l-604 -1302h183l75 161h799l76 -161h182l-604 1302h-107zM1206 391h-649l326 701zM659 457h445l-221 479z" />
    <glyph glyph-name="Abreve" unicode="&#x102;" horiz-adv-x="1765" 
d="M1159 1804v-32q0 -131 -72 -203q-74 -74 -204 -74q-132 0 -203 74q-74 71 -74 203v32h66v-32q0 -102 53 -158q56 -53 158 -53q104 0 157 53q54 54 54 158v32h65zM1642 0h-325l-76 162h-717l-75 -162h-326l665 1434h189zM659 457h445l-221 479z" />
    <glyph glyph-name="abreve" unicode="&#x103;" horiz-adv-x="1765" 
d="M1159 1804v-32q0 -131 -72 -203q-74 -74 -204 -74q-132 0 -203 74q-74 71 -74 203v32h66v-32q0 -102 53 -158q56 -53 158 -53q104 0 157 53q54 54 54 158v32h65zM1642 0h-325l-76 162h-717l-75 -162h-326l665 1434h189zM829 1368l-604 -1302h183l75 161h799l76 -161h182
l-604 1302h-107zM1206 391h-649l326 701zM659 457h445l-221 479z" />
    <glyph glyph-name="Aogonek" unicode="&#x104;" horiz-adv-x="1765" 
d="M1423 -342q122 0 158 88l61 -22q-25 -63 -81.5 -97.5t-137.5 -34.5q-109 0 -174 62q-61 64 -61 174q0 113 61 174q24 24 49 35l-57 125h-717l-75 -162h-326l665 1434h189l665 -1434h-219q-84 0 -127 -43t-43 -129q0 -84 43 -127t127 -43zM1104 457l-221 479l-224 -479
h445z" />
    <glyph glyph-name="aogonek" unicode="&#x105;" horiz-adv-x="1765" 
d="M1423 -342q122 0 158 88l61 -22q-25 -63 -81.5 -97.5t-137.5 -34.5q-109 0 -174 62q-61 64 -61 174q0 113 61 174q24 24 49 35l-57 125h-717l-75 -162h-326l665 1434h189l665 -1434h-219q-84 0 -127 -43t-43 -129q0 -84 43 -127t127 -43zM1540 66l-604 1302h-107
l-604 -1302h183l75 161h799l76 -161h182zM883 1092l323 -701h-649zM1104 457l-221 479l-224 -479h445z" />
    <glyph glyph-name="Cacute" unicode="&#x106;" horiz-adv-x="1648" 
d="M1073 1774l-463 -279l-35 55l463 279zM840 1434q258 0 440 -119q91 -63 154 -154q62 -89 92 -203l-285 -77q-34 128 -127 188q-101 70 -274 70q-214 0 -318 -104t-104 -318t104 -318t318 -104q173 0 274 70q93 60 127 188l285 -78q-30 -114 -92 -203t-154 -153
q-182 -119 -440 -119q-156 0 -293 45q-141 52 -234 145t-145 234q-45 137 -45 293t45 293q51 139 145 233q95 95 234 146q128 45 293 45z" />
    <glyph glyph-name="cacute" unicode="&#x107;" horiz-adv-x="1648" 
d="M1073 1774l-463 -279l-35 55l463 279zM840 1434q258 0 440 -119q91 -63 154 -154q62 -89 92 -203l-285 -77q-34 128 -127 188q-101 70 -274 70q-214 0 -318 -104t-104 -318t104 -318t318 -104q173 0 274 70q93 60 127 188l285 -78q-30 -114 -92 -203t-154 -153
q-182 -119 -440 -119q-156 0 -293 45q-141 52 -234 145t-145 234q-45 137 -45 293t45 293q51 139 145 233q95 95 234 146q128 45 293 45zM840 1368q-153 0 -271 -41q-128 -47 -209 -131q-83 -80 -131 -207q-41 -131 -41 -272q0 -142 41 -273q47 -125 131 -206
q82 -85 207 -132q127 -40 273 -40q240 0 403 108q79 52 137 135q38 56 62 121l-158 43q-43 -105 -133 -164q-60 -40 -141 -61q-78 -19 -170 -19q-112 0 -207 29q-91 30 -158 94q-64 67 -94 158q-29 95 -29 207t29 207q29 89 94 157q69 66 158 95q92 28 207 28q96 0 170 -18
q78 -21 141 -62q90 -60 133 -163l158 43q-23 63 -62 120q-59 84 -137 136q-163 108 -403 108z" />
    <glyph glyph-name="Cdotaccent" unicode="&#x10a;" horiz-adv-x="1648" 
d="M825 1593q21 0 35 -14t14 -35t-14 -35t-35 -14q-20 0 -34.5 14.5t-14.5 34.5t14.5 34.5t34.5 14.5zM840 1434q258 0 440 -119q91 -63 154 -154q62 -89 92 -203l-285 -77q-34 128 -127 188q-101 70 -274 70q-214 0 -318 -104t-104 -318t104 -318t318 -104q173 0 274 70
q93 60 127 188l285 -78q-30 -114 -92 -203t-154 -153q-182 -119 -440 -119q-156 0 -293 45q-141 52 -234 145t-145 234q-45 137 -45 293t45 293q51 139 145 233q95 95 234 146q128 45 293 45z" />
    <glyph glyph-name="cdotaccent" unicode="&#x10b;" horiz-adv-x="1648" 
d="M825 1593q21 0 35 -14t14 -35t-14 -35t-35 -14q-20 0 -34.5 14.5t-14.5 34.5t14.5 34.5t34.5 14.5zM840 1434q258 0 440 -119q91 -63 154 -154q62 -89 92 -203l-285 -77q-34 128 -127 188q-101 70 -274 70q-214 0 -318 -104t-104 -318t104 -318t318 -104q173 0 274 70
q93 60 127 188l285 -78q-30 -114 -92 -203t-154 -153q-182 -119 -440 -119q-156 0 -293 45q-141 52 -234 145t-145 234q-45 137 -45 293t45 293q51 139 145 233q95 95 234 146q128 45 293 45zM840 1368q-153 0 -271 -41q-128 -47 -209 -131q-83 -80 -131 -207
q-41 -131 -41 -272q0 -142 41 -273q47 -125 131 -206q82 -85 207 -132q127 -40 273 -40q240 0 403 108q79 52 137 135q38 56 62 121l-158 43q-43 -105 -133 -164q-60 -40 -141 -61q-78 -19 -170 -19q-112 0 -207 29q-91 30 -158 94q-64 67 -94 158q-29 95 -29 207t29 207
q29 89 94 157q69 66 158 95q92 28 207 28q96 0 170 -18q78 -21 141 -62q90 -60 133 -163l158 43q-23 63 -62 120q-59 84 -137 136q-163 108 -403 108z" />
    <glyph glyph-name="Ccaron" unicode="&#x10c;" horiz-adv-x="1648" 
d="M1116 1786l-291 -291l-290 291l47 45l243 -244l244 244zM840 1434q258 0 440 -119q91 -63 154 -154q62 -89 92 -203l-285 -77q-34 128 -127 188q-101 70 -274 70q-214 0 -318 -104t-104 -318t104 -318t318 -104q173 0 274 70q93 60 127 188l285 -78q-30 -114 -92 -203
t-154 -153q-182 -119 -440 -119q-156 0 -293 45q-141 52 -234 145t-145 234q-45 137 -45 293t45 293q51 139 145 233q95 95 234 146q128 45 293 45z" />
    <glyph glyph-name="ccaron" unicode="&#x10d;" horiz-adv-x="1648" 
d="M1116 1786l-291 -291l-290 291l47 45l243 -244l244 244zM840 1434q258 0 440 -119q91 -63 154 -154q62 -89 92 -203l-285 -77q-34 128 -127 188q-101 70 -274 70q-214 0 -318 -104t-104 -318t104 -318t318 -104q173 0 274 70q93 60 127 188l285 -78q-30 -114 -92 -203
t-154 -153q-182 -119 -440 -119q-156 0 -293 45q-141 52 -234 145t-145 234q-45 137 -45 293t45 293q51 139 145 233q95 95 234 146q128 45 293 45zM840 1368q-153 0 -271 -41q-128 -47 -209 -131q-83 -80 -131 -207q-41 -131 -41 -272q0 -142 41 -273q47 -125 131 -206
q82 -85 207 -132q127 -40 273 -40q240 0 403 108q79 52 137 135q38 56 62 121l-158 43q-43 -105 -133 -164q-60 -40 -141 -61q-78 -19 -170 -19q-112 0 -207 29q-91 30 -158 94q-64 67 -94 158q-29 95 -29 207t29 207q29 89 94 157q69 66 158 95q92 28 207 28q96 0 170 -18
q78 -21 141 -62q90 -60 133 -163l158 43q-23 63 -62 120q-59 84 -137 136q-163 108 -403 108z" />
    <glyph glyph-name="Dcaron" unicode="&#x10e;" horiz-adv-x="1597" 
d="M1090 1786l-291 -291l-291 291l47 45l244 -244l243 244zM123 1434h635q168 0 293 -45q136 -49 233 -146q96 -96 146 -233q45 -128 45 -293t-45 -293q-51 -139 -146 -234q-96 -96 -233 -145q-133 -45 -293 -45h-635v1434zM418 1139v-844h340q214 0 318 104t104 318
t-104 318t-318 104h-340z" />
    <glyph glyph-name="dcaron" unicode="&#x10f;" horiz-adv-x="1597" 
d="M1090 1786l-291 -291l-291 291l47 45l244 -244l243 244zM123 1434h635q168 0 293 -45q136 -49 233 -146q96 -96 146 -233q45 -128 45 -293t-45 -293q-51 -139 -146 -234q-96 -96 -233 -145q-133 -45 -293 -45h-635v1434zM188 1368v-1302h570q148 0 272 40q118 43 207 132
q84 81 131 208q41 118 41 271q0 152 -41 270q-47 128 -131 209q-88 88 -209 131q-115 41 -270 41h-570zM352 1204h406q115 0 207 -28q87 -29 157 -95q66 -70 95 -157q28 -92 28 -207t-28 -207q-29 -89 -95 -158q-68 -65 -157 -94q-95 -29 -207 -29h-406v975zM418 1139v-844
h340q214 0 318 104t104 318t-104 318t-318 104h-340z" />
    <glyph glyph-name="Dcroat" unicode="&#x110;" horiz-adv-x="1597" 
d="M1430 1010q45 -128 45 -293t-45 -293q-51 -139 -146 -234q-96 -96 -233 -145q-133 -45 -293 -45h-635v1434h635q168 0 293 -45q136 -49 233 -146q96 -96 146 -233zM418 295h340q214 0 318 104t104 318t-104 318t-318 104h-340v-389h446v-66h-446v-389z" />
    <glyph glyph-name="dcroat" unicode="&#x111;" horiz-adv-x="1597" 
d="M1430 1010q45 -128 45 -293t-45 -293q-51 -139 -146 -234q-96 -96 -233 -145q-133 -45 -293 -45h-635v1434h635q168 0 293 -45q136 -49 233 -146q96 -96 146 -233zM1368 446q41 118 41 271q0 152 -41 270q-47 128 -131 209q-88 88 -209 131q-115 41 -270 41h-570v-1302
h570q148 0 272 40q118 43 207 132q84 81 131 208zM1122 1081q66 -70 95 -157q28 -92 28 -207t-28 -207q-29 -89 -95 -158q-68 -65 -157 -94q-95 -29 -207 -29h-406v455h-82v66h82v454h406q115 0 207 -28q87 -29 157 -95zM418 295h340q214 0 318 104t104 318t-104 318
t-318 104h-340v-389h446v-66h-446v-389z" />
    <glyph glyph-name="Emacron" unicode="&#x112;" 
d="M954 1495h-473v66h473v-66zM1313 1139h-895v-275h895v-295h-895v-274h895v-295h-1190v1434h1190v-295z" />
    <glyph glyph-name="emacron" unicode="&#x113;" 
d="M954 1495h-473v66h473v-66zM1313 1139h-895v-275h895v-295h-895v-274h895v-295h-1190v1434h1190v-295zM188 1368v-1302h1059v163h-895v406h895v164h-895v405h895v164h-1059z" />
    <glyph glyph-name="Edotaccent" unicode="&#x116;" 
d="M719 1593q21 0 35 -14t14 -35t-14 -35t-35 -14q-20 0 -34.5 14.5t-14.5 34.5t14.5 34.5t34.5 14.5zM1313 1139h-895v-275h895v-295h-895v-274h895v-295h-1190v1434h1190v-295z" />
    <glyph glyph-name="edotaccent" unicode="&#x117;" 
d="M719 1593q21 0 35 -14t14 -35t-14 -35t-35 -14q-20 0 -34.5 14.5t-14.5 34.5t14.5 34.5t34.5 14.5zM1313 1139h-895v-275h895v-295h-895v-274h895v-295h-1190v1434h1190v-295zM188 1368v-1302h1059v163h-895v406h895v164h-895v405h895v164h-1059z" />
    <glyph glyph-name="Eogonek" unicode="&#x118;" 
d="M418 1139v-275h895v-295h-895v-274h895v-295h-219q-84 0 -127 -43t-43 -129q0 -84 43 -127t127 -43q121 0 157 88l62 -22q-25 -63 -81.5 -97.5t-137.5 -34.5q-109 0 -174 62q-62 65 -62 174t60 172h-795v1434h1190v-295h-895z" />
    <glyph glyph-name="eogonek" unicode="&#x119;" 
d="M418 1139v-275h895v-295h-895v-274h895v-295h-219q-84 0 -127 -43t-43 -129q0 -84 43 -127t127 -43q121 0 157 88l62 -22q-25 -63 -81.5 -97.5t-137.5 -34.5q-109 0 -174 62q-62 65 -62 174t60 172h-795v1434h1190v-295h-895zM352 799v405h895v164h-1059v-1302h1059v163
h-895v406h895v164h-895z" />
    <glyph glyph-name="Ecaron" unicode="&#x11a;" 
d="M1010 1786l-291 -291l-291 291l47 45l244 -244l244 244zM1313 1139h-895v-275h895v-295h-895v-274h895v-295h-1190v1434h1190v-295z" />
    <glyph glyph-name="ecaron" unicode="&#x11b;" 
d="M1010 1786l-291 -291l-291 291l47 45l244 -244l244 244zM1313 1139h-895v-275h895v-295h-895v-274h895v-295h-1190v1434h1190v-295zM188 1368v-1302h1059v163h-895v406h895v164h-895v405h895v164h-1059z" />
    <glyph glyph-name="Gbreve" unicode="&#x11e;" horiz-adv-x="1679" 
d="M1116 1804v-32q0 -131 -72 -203q-74 -74 -204 -74q-132 0 -203 74q-74 71 -74 203v32h66v-32q0 -102 53 -158q56 -53 158 -53q104 0 157 53q54 54 54 158v32h65zM840 1434q209 0 368 -78q164 -80 254 -242l-256 -143q-45 77 -129 121q-96 47 -237 47q-214 0 -318 -104
t-104 -318t104 -318t318 -104q343 0 407 274h-489v295h798v-147q0 -165 -45 -293q-52 -141 -145 -234q-94 -94 -233 -145q-137 -45 -293 -45t-293 45q-141 52 -234 145t-145 234q-45 137 -45 293t45 293q51 139 145 233q95 95 234 146q128 45 293 45z" />
    <glyph glyph-name="gbreve" unicode="&#x11f;" horiz-adv-x="1679" 
d="M1116 1804v-32q0 -131 -72 -203q-74 -74 -204 -74q-132 0 -203 74q-74 71 -74 203v32h66v-32q0 -102 53 -158q56 -53 158 -53q104 0 157 53q54 54 54 158v32h65zM840 1434q209 0 368 -78q164 -80 254 -242l-256 -143q-45 77 -129 121q-96 47 -237 47q-214 0 -318 -104
t-104 -318t104 -318t318 -104q343 0 407 274h-489v295h798v-147q0 -165 -45 -293q-52 -141 -145 -234q-94 -94 -233 -145q-137 -45 -293 -45t-293 45q-141 52 -234 145t-145 234q-45 137 -45 293t45 293q51 139 145 233q95 95 234 146q128 45 293 45zM840 1368
q-153 0 -271 -41q-128 -47 -209 -131q-83 -80 -131 -207q-41 -131 -41 -272q0 -142 41 -273q47 -125 131 -206q82 -85 207 -132q127 -40 273 -40q145 0 272 40q125 47 207 132q84 81 131 208q41 118 41 271v82h-668v-164h506l-18 -80q-38 -166 -162 -246q-57 -39 -139 -61
q-81 -19 -170 -19q-112 0 -207 29q-91 30 -158 94q-64 67 -94 158q-29 95 -29 207t29 207q29 89 94 157q69 66 158 95q92 28 207 28q154 0 266 -53q71 -38 121 -94l143 80q-71 101 -190 159q-147 72 -340 72z" />
    <glyph glyph-name="Gdotaccent" unicode="&#x120;" horiz-adv-x="1679" 
d="M840 1593q21 0 35 -14t14 -35t-14 -35t-35 -14q-20 0 -34.5 14.5t-14.5 34.5t14.5 34.5t34.5 14.5zM840 1434q209 0 368 -78q164 -80 254 -242l-256 -143q-45 77 -129 121q-96 47 -237 47q-214 0 -318 -104t-104 -318t104 -318t318 -104q343 0 407 274h-489v295h798v-147
q0 -165 -45 -293q-52 -141 -145 -234q-94 -94 -233 -145q-137 -45 -293 -45t-293 45q-141 52 -234 145t-145 234q-45 137 -45 293t45 293q51 139 145 233q95 95 234 146q128 45 293 45z" />
    <glyph glyph-name="gdotaccent" unicode="&#x121;" horiz-adv-x="1679" 
d="M840 1593q21 0 35 -14t14 -35t-14 -35t-35 -14q-20 0 -34.5 14.5t-14.5 34.5t14.5 34.5t34.5 14.5zM840 1434q209 0 368 -78q164 -80 254 -242l-256 -143q-45 77 -129 121q-96 47 -237 47q-214 0 -318 -104t-104 -318t104 -318t318 -104q343 0 407 274h-489v295h798v-147
q0 -165 -45 -293q-52 -141 -145 -234q-94 -94 -233 -145q-137 -45 -293 -45t-293 45q-141 52 -234 145t-145 234q-45 137 -45 293t45 293q51 139 145 233q95 95 234 146q128 45 293 45zM840 1368q-153 0 -271 -41q-128 -47 -209 -131q-83 -80 -131 -207q-41 -131 -41 -272
q0 -142 41 -273q47 -125 131 -206q82 -85 207 -132q127 -40 273 -40q145 0 272 40q125 47 207 132q84 81 131 208q41 118 41 271v82h-668v-164h506l-18 -80q-38 -166 -162 -246q-57 -39 -139 -61q-81 -19 -170 -19q-112 0 -207 29q-91 30 -158 94q-64 67 -94 158
q-29 95 -29 207t29 207q29 89 94 157q69 66 158 95q92 28 207 28q154 0 266 -53q71 -38 121 -94l143 80q-71 101 -190 159q-147 72 -340 72z" />
    <glyph glyph-name="Gcommaaccent" unicode="&#x122;" horiz-adv-x="1679" 
d="M840 1434q209 0 368 -78q164 -80 254 -242l-256 -143q-45 77 -129 121q-96 47 -237 47q-214 0 -318 -104t-104 -318t104 -318t318 -104q343 0 407 274h-489v295h798v-147q0 -165 -45 -293q-52 -141 -145 -234q-94 -94 -233 -145q-137 -45 -293 -45t-293 45
q-141 52 -234 145t-145 234q-45 137 -45 293t45 293q51 139 145 233q95 95 234 146q128 45 293 45zM946 -61v-33q0 -119 -37 -203q-35 -91 -108 -147l-25 -21l-41 51l27 21q119 96 119 299v33h65z" />
    <glyph glyph-name="gcommaaccent" unicode="&#x123;" horiz-adv-x="1679" 
d="M840 1434q209 0 368 -78q164 -80 254 -242l-256 -143q-45 77 -129 121q-96 47 -237 47q-214 0 -318 -104t-104 -318t104 -318t318 -104q343 0 407 274h-489v295h798v-147q0 -165 -45 -293q-52 -141 -145 -234q-94 -94 -233 -145q-137 -45 -293 -45t-293 45
q-141 52 -234 145t-145 234q-45 137 -45 293t45 293q51 139 145 233q95 95 234 146q128 45 293 45zM840 1368q-153 0 -271 -41q-128 -47 -209 -131q-83 -80 -131 -207q-41 -131 -41 -272q0 -142 41 -273q47 -125 131 -206q82 -85 207 -132q127 -40 273 -40q145 0 272 40
q125 47 207 132q84 81 131 208q41 118 41 271v82h-668v-164h506l-18 -80q-38 -166 -162 -246q-57 -39 -139 -61q-81 -19 -170 -19q-112 0 -207 29q-91 30 -158 94q-64 67 -94 158q-29 95 -29 207t29 207q29 89 94 157q69 66 158 95q92 28 207 28q154 0 266 -53
q71 -38 121 -94l143 80q-71 101 -190 159q-147 72 -340 72zM946 -61v-33q0 -119 -37 -203q-35 -91 -108 -147l-25 -21l-41 51l27 21q119 96 119 299v33h65z" />
    <glyph glyph-name="Hbar" unicode="&#x126;" horiz-adv-x="1517" 
d="M1395 1434v-1434h-295v569h-682v-569h-295v1434h295v-252h682v252h295zM1100 864v252h-682v-252h682z" />
    <glyph glyph-name="hbar" unicode="&#x127;" horiz-adv-x="1517" 
d="M1395 1434v-1434h-295v569h-682v-569h-295v1434h295v-252h682v252h295zM1329 1368h-164v-186h115v-66h-115v-317h-813v317h-114v66h114v186h-164v-1302h164v569h813v-569h164v1302zM418 1116v-252h682v252h-682z" />
    <glyph glyph-name="Itilde" unicode="&#x128;" horiz-adv-x="540" 
d="M88 1759q59 13 119.5 -16t93.5 -101q23 -51 61 -68.5t78 -10.5q34 7 58 33.5t24 72.5v33h66v-33q0 -67 -39 -115q-37 -43 -96 -55q-61 -12 -120 14.5t-93 102.5q-23 51 -62 70t-78 10q-33 -7 -57.5 -34t-24.5 -73v-33h-65v33q0 67 39 115q37 43 96 55zM418 0h-295v1434
h295v-1434z" />
    <glyph glyph-name="itilde" unicode="&#x129;" horiz-adv-x="540" 
d="M88 1759q59 13 119.5 -16t93.5 -101q23 -51 61 -68.5t78 -10.5q34 7 58 33.5t24 72.5v33h66v-33q0 -67 -39 -115q-37 -43 -96 -55q-61 -12 -120 14.5t-93 102.5q-23 51 -62 70t-78 10q-33 -7 -57.5 -34t-24.5 -73v-33h-65v33q0 67 39 115q37 43 96 55zM418 0h-295v1434
h295v-1434zM188 1368v-1302h164v1302h-164z" />
    <glyph glyph-name="Imacron" unicode="&#x12a;" horiz-adv-x="540" 
d="M506 1495h-473v66h473v-66zM418 0h-295v1434h295v-1434z" />
    <glyph glyph-name="imacron" unicode="&#x12b;" horiz-adv-x="540" 
d="M506 1495h-473v66h473v-66zM418 0h-295v1434h295v-1434zM188 1368v-1302h164v1302h-164z" />
    <glyph glyph-name="Iogonek" unicode="&#x12e;" horiz-adv-x="540" 
d="M436 -254l62 -22q-25 -63 -81.5 -97.5t-137.5 -34.5q-110 0 -175 62q-61 64 -61 174q0 113 61 174l19 16v1416h295v-1434h-139q-84 0 -127 -43t-43 -129q0 -84 43 -127t127 -43q121 0 157 88z" />
    <glyph glyph-name="iogonek" unicode="&#x12f;" horiz-adv-x="540" 
d="M436 -254l62 -22q-25 -63 -81.5 -97.5t-137.5 -34.5q-110 0 -175 62q-61 64 -61 174q0 113 61 174l19 16v1416h295v-1434h-139q-84 0 -127 -43t-43 -129q0 -84 43 -127t127 -43q121 0 157 88zM352 66v1302h-164v-1302h164z" />
    <glyph glyph-name="Idotaccent" unicode="&#x130;" horiz-adv-x="540" 
d="M270 1593q21 0 35 -14t14 -35t-14 -35t-35 -14q-20 0 -34.5 14.5t-14.5 34.5t14.5 34.5t34.5 14.5zM418 0h-295v1434h295v-1434z" />
    <glyph glyph-name="dotlessi" unicode="&#x131;" horiz-adv-x="540" 
d="M418 0h-295v1434h295v-1434zM188 1368v-1302h164v1302h-164z" />
    <glyph glyph-name="IJ" unicode="&#x132;" horiz-adv-x="1447" 
d="M418 0h-295v1434h295v-1434zM1325 1434v-879q0 -125 -37 -223q-39 -112 -112 -182q-73 -76 -183 -115q-103 -35 -223 -35h-147v295h147q136 0 197 61q63 66 63 199v879h295z" />
    <glyph glyph-name="ij" unicode="&#x133;" horiz-adv-x="1447" 
d="M418 0h-295v1434h295v-1434zM1325 1434v-879q0 -125 -37 -223q-39 -112 -112 -182q-73 -76 -183 -115q-103 -35 -223 -35h-147v295h147q136 0 197 61q63 66 63 199v879h295zM188 1368v-1302h164v1302h-164zM1096 1368v-813q0 -161 -82 -246q-46 -43 -107 -61
q-62 -19 -137 -19h-82v-163h82q108 0 203 30q95 36 155 99l2 2q64 64 97 155v2q33 82 33 201v813h-164z" />
    <glyph glyph-name="Kcommaaccent" unicode="&#x136;" horiz-adv-x="1540" 
d="M858 819l559 -819h-358l-406 594l-235 -260v-334h-295v1434h295v-662l600 662h399zM877 -61v-33q0 -119 -37 -203q-34 -90 -109 -147l-24 -21l-41 51l26 21q119 96 119 299v33h66z" />
    <glyph glyph-name="kcommaaccent" unicode="&#x137;" horiz-adv-x="1540" 
d="M858 819l559 -819h-358l-406 594l-235 -260v-334h-295v1434h295v-662l600 662h399zM1047 1368l-695 -766v766h-164v-1302h164v292l310 342l432 -634h198l-518 759l496 543h-223zM877 -61v-33q0 -119 -37 -203q-34 -90 -109 -147l-24 -21l-41 51l26 21q119 96 119 299v33
h66z" />
    <glyph glyph-name="Lacute" unicode="&#x139;" 
d="M621 1774l-463 -279l-35 55l463 279zM418 295h895v-295h-1190v1434h295v-1139z" />
    <glyph glyph-name="lacute" unicode="&#x13a;" 
d="M621 1774l-463 -279l-35 55l463 279zM418 295h895v-295h-1190v1434h295v-1139zM188 1368v-1302h1059v163h-895v1139h-164z" />
    <glyph glyph-name="Lcommaaccent" unicode="&#x13b;" 
d="M418 295h895v-295h-1190v1434h295v-1139zM823 -61v-33q0 -119 -37 -203q-34 -91 -108 -147l-25 -21l-41 51l27 21q119 96 119 299v33h65z" />
    <glyph glyph-name="lcommaaccent" unicode="&#x13c;" 
d="M418 295h895v-295h-1190v1434h295v-1139zM188 1368v-1302h1059v163h-895v1139h-164zM823 -61v-33q0 -119 -37 -203q-34 -91 -108 -147l-25 -21l-41 51l27 21q119 96 119 299v33h65z" />
    <glyph glyph-name="Lcaron" unicode="&#x13d;" 
d="M418 295h895v-295h-1190v1434h295v-1139zM752 1042h-66v392h66v-392z" />
    <glyph glyph-name="lcaron" unicode="&#x13e;" 
d="M418 295h895v-295h-1190v1434h295v-1139zM752 1042h-66v392h66v-392zM188 1368v-1302h1059v163h-895v1139h-164z" />
    <glyph glyph-name="Ldot" unicode="&#x13f;" 
d="M418 295h895v-295h-1190v1434h295v-1139zM719 766q21 0 35 -14t14 -35t-14 -35t-35 -14q-20 0 -34.5 14.5t-14.5 34.5t14.5 34.5t34.5 14.5z" />
    <glyph glyph-name="ldot" unicode="&#x140;" 
d="M418 295h895v-295h-1190v1434h295v-1139zM188 1368v-1302h1059v163h-895v1139h-164zM719 766q21 0 35 -14t14 -35t-14 -35t-35 -14q-20 0 -34.5 14.5t-14.5 34.5t14.5 34.5t34.5 14.5z" />
    <glyph glyph-name="Lslash" unicode="&#x141;" 
d="M1313 295v-295h-1190v1434h295v-725l436 125l18 -64l-454 -129v-346h895z" />
    <glyph glyph-name="lslash" unicode="&#x142;" 
d="M1313 295v-295h-1190v1434h295v-725l436 125l18 -64l-454 -129v-346h895zM1247 229h-895v394l-112 -33l-19 63l131 37v678h-164v-1302h1059v163z" />
    <glyph glyph-name="Nacute" unicode="&#x143;" horiz-adv-x="1558" 
d="M1028 1774l-463 -279l-35 55l463 279zM1436 0h-215l-803 899v-899h-295v1434h213l805 -899v899h295v-1434z" />
    <glyph glyph-name="nacute" unicode="&#x144;" horiz-adv-x="1558" 
d="M1028 1774l-463 -279l-35 55l463 279zM1436 0h-215l-803 899v-899h-295v1434h213l805 -899v899h295v-1434zM1206 1368v-1006l-899 1006h-119v-1302h164v1005l897 -1005h121v1302h-164z" />
    <glyph glyph-name="Ncommaaccent" unicode="&#x145;" horiz-adv-x="1558" 
d="M1436 0h-215l-803 899v-899h-295v1434h213l805 -899v899h295v-1434zM885 -61v-33q0 -119 -37 -203q-34 -90 -109 -147l-24 -21l-41 51l26 21q119 96 119 299v33h66z" />
    <glyph glyph-name="ncommaaccent" unicode="&#x146;" horiz-adv-x="1558" 
d="M1436 0h-215l-803 899v-899h-295v1434h213l805 -899v899h295v-1434zM1206 1368v-1006l-899 1006h-119v-1302h164v1005l897 -1005h121v1302h-164zM885 -61v-33q0 -119 -37 -203q-34 -90 -109 -147l-24 -21l-41 51l26 21q119 96 119 299v33h66z" />
    <glyph glyph-name="Ncaron" unicode="&#x147;" horiz-adv-x="1558" 
d="M1071 1786l-291 -291l-291 291l48 45l243 -244l244 244zM1436 0h-215l-803 899v-899h-295v1434h213l805 -899v899h295v-1434z" />
    <glyph glyph-name="ncaron" unicode="&#x148;" horiz-adv-x="1558" 
d="M1071 1786l-291 -291l-291 291l48 45l243 -244l244 244zM1436 0h-215l-803 899v-899h-295v1434h213l805 -899v899h295v-1434zM1206 1368v-1006l-899 1006h-119v-1302h164v1005l897 -1005h121v1302h-164z" />
    <glyph glyph-name="Eng" unicode="&#x14a;" horiz-adv-x="1517" 
d="M1395 1434v-1434q0 -291 -189 -440l-116 -92l-183 231l115 92q78 60 78 209v92l-682 795v-887h-295v1434h215l762 -887v887h295z" />
    <glyph glyph-name="eng" unicode="&#x14b;" horiz-adv-x="1517" 
d="M1395 1434v-1434q0 -291 -189 -440l-116 -92l-183 231l115 92q78 60 78 209v92l-682 795v-887h-295v1434h215l762 -887v887h295zM1165 1368v-997l-858 997h-119v-1302h164v997l797 -928l16 -18v-117q0 -86 -24 -150q-23 -68 -78 -110l-64 -51l101 -129l65 51
q68 53 109 133q55 107 55 256v1368h-164z" />
    <glyph glyph-name="Omacron" unicode="&#x14c;" horiz-adv-x="1679" 
d="M1077 1495h-473v66h473v-66zM840 1434q165 0 293 -45q137 -50 233 -146q94 -94 145 -233q45 -128 45 -293t-45 -293q-52 -141 -145 -234q-94 -94 -233 -145q-137 -45 -293 -45t-293 45q-141 52 -234 145t-145 234q-45 137 -45 293t45 293q51 139 145 233q95 95 234 146
q128 45 293 45zM840 1139q-214 0 -318 -104t-104 -318t104 -318t318 -104t318 104t104 318t-104 318t-318 104z" />
    <glyph glyph-name="omacron" unicode="&#x14d;" horiz-adv-x="1679" 
d="M1077 1495h-473v66h473v-66zM840 1434q165 0 293 -45q137 -50 233 -146q94 -94 145 -233q45 -128 45 -293t-45 -293q-52 -141 -145 -234q-94 -94 -233 -145q-137 -45 -293 -45t-293 45q-141 52 -234 145t-145 234q-45 137 -45 293t45 293q51 139 145 233q95 95 234 146
q128 45 293 45zM840 1368q-153 0 -271 -41q-128 -47 -209 -131q-83 -80 -131 -207q-41 -131 -41 -272q0 -142 41 -273q47 -125 131 -206q82 -85 207 -132q127 -40 273 -40q145 0 272 40q125 47 207 132q84 81 131 208q41 118 41 271q0 152 -41 270q-47 128 -131 209
q-81 84 -209 131q-118 41 -270 41zM840 1204q115 0 207 -28q87 -29 157 -95q65 -68 94 -157q29 -95 29 -207t-29 -207q-30 -91 -94 -158q-68 -65 -157 -94q-95 -29 -207 -29t-207 29q-91 30 -158 94q-64 67 -94 158q-29 95 -29 207t29 207q29 89 94 157q69 66 158 95
q92 28 207 28zM840 1139q-214 0 -318 -104t-104 -318t104 -318t318 -104t318 104t104 318t-104 318t-318 104z" />
    <glyph glyph-name="Ohungarumlaut" unicode="&#x150;" horiz-adv-x="1679" 
d="M846 1790l-244 -295l-51 41l246 295zM1130 1790l-243 -295l-51 41l245 295zM840 1434q165 0 293 -45q137 -50 233 -146q94 -94 145 -233q45 -128 45 -293t-45 -293q-52 -141 -145 -234q-94 -94 -233 -145q-137 -45 -293 -45t-293 45q-141 52 -234 145t-145 234
q-45 137 -45 293t45 293q51 139 145 233q95 95 234 146q128 45 293 45zM840 1139q-214 0 -318 -104t-104 -318t104 -318t318 -104t318 104t104 318t-104 318t-318 104z" />
    <glyph glyph-name="ohungarumlaut" unicode="&#x151;" horiz-adv-x="1679" 
d="M846 1790l-244 -295l-51 41l246 295zM1130 1790l-243 -295l-51 41l245 295zM840 1434q165 0 293 -45q137 -50 233 -146q94 -94 145 -233q45 -128 45 -293t-45 -293q-52 -141 -145 -234q-94 -94 -233 -145q-137 -45 -293 -45t-293 45q-141 52 -234 145t-145 234
q-45 137 -45 293t45 293q51 139 145 233q95 95 234 146q128 45 293 45zM840 1368q-153 0 -271 -41q-128 -47 -209 -131q-83 -80 -131 -207q-41 -131 -41 -272q0 -142 41 -273q47 -125 131 -206q82 -85 207 -132q127 -40 273 -40q145 0 272 40q125 47 207 132q84 81 131 208
q41 118 41 271q0 152 -41 270q-47 128 -131 209q-81 84 -209 131q-118 41 -270 41zM840 1204q115 0 207 -28q87 -29 157 -95q65 -68 94 -157q29 -95 29 -207t-29 -207q-30 -91 -94 -158q-68 -65 -157 -94q-95 -29 -207 -29t-207 29q-91 30 -158 94q-64 67 -94 158
q-29 95 -29 207t29 207q29 89 94 157q69 66 158 95q92 28 207 28zM840 1139q-214 0 -318 -104t-104 -318t104 -318t318 -104t318 104t104 318t-104 318t-318 104z" />
    <glyph glyph-name="OE" unicode="&#x152;" horiz-adv-x="2574" 
d="M1556 1139v-275h895v-295h-895v-274h895v-295h-1189v109q-54 -37 -129 -64q-137 -45 -293 -45t-293 45q-141 52 -234 145t-145 234q-45 137 -45 293t45 293q51 139 145 233q95 95 234 146q128 45 293 45t293 -45q75 -27 129 -64v109h1189v-295h-895zM840 295
q214 0 318 104t104 318t-104 318t-318 104t-318 -104t-104 -318t104 -318t318 -104z" />
    <glyph glyph-name="oe" unicode="&#x153;" horiz-adv-x="2574" 
d="M2451 1139h-895v-275h814v-295h-814v-274h895v-295h-1189v109q-54 -37 -129 -64q-137 -45 -293 -45t-293 45q-141 52 -234 145t-145 234q-45 137 -45 293t45 293q51 139 145 233q95 95 234 146q128 45 293 45t293 -45q75 -27 129 -64v109h1189v-295zM1327 1368v-160
l-100 62q-47 31 -117 57q-118 41 -270 41q-153 0 -271 -41q-128 -47 -209 -131q-83 -80 -131 -207q-41 -131 -41 -272q0 -142 41 -273q47 -125 131 -206q82 -85 207 -132q127 -40 273 -40q145 0 272 40q66 26 115 58l100 61v-159h1059v163h-895v406h813v164h-813v405h895
v164h-1059zM840 1204q115 0 207 -28q87 -29 157 -95q65 -68 94 -157q29 -95 29 -207t-29 -207q-30 -91 -94 -158q-68 -65 -157 -94q-95 -29 -207 -29t-207 29q-91 30 -158 94q-64 67 -94 158q-29 95 -29 207t29 207q29 89 94 157q69 66 158 95q92 28 207 28zM840 1139
q-214 0 -318 -104t-104 -318t104 -318t318 -104t318 104t104 318t-104 318t-318 104z" />
    <glyph glyph-name="Racute" unicode="&#x154;" horiz-adv-x="1517" 
d="M1008 1774l-463 -279l-35 55l463 279zM123 1434h758q238 0 376 -138t138 -376q0 -179 -81.5 -304t-228.5 -176l310 -440h-361l-284 408h-332v-408h-295v1434zM418 1139v-437h463q117 0 166 52q53 53 53 166q0 114 -53 167q-49 52 -166 52h-463z" />
    <glyph glyph-name="racute" unicode="&#x155;" horiz-adv-x="1517" 
d="M1008 1774l-463 -279l-35 55l463 279zM123 1434h758q238 0 376 -138t138 -376q0 -179 -81.5 -304t-228.5 -176l310 -440h-361l-284 408h-332v-408h-295v1434zM188 1368v-1302h164v407h432l285 -407h199l-287 407l82 29q126 44 194 149q36 55 54 119q18 67 18 150
q0 105 -31 190q-29 80 -88 139t-139 88q-85 31 -190 31h-693zM352 1204h529q145 0 213 -71q71 -71 71 -213q0 -140 -71 -211q-69 -72 -213 -72h-529v567zM418 1139v-437h463q117 0 166 52q53 53 53 166q0 114 -53 167q-49 52 -166 52h-463z" />
    <glyph glyph-name="Rcommaaccent" unicode="&#x156;" horiz-adv-x="1517" 
d="M123 1434h758q238 0 376 -138t138 -376q0 -179 -81.5 -304t-228.5 -176l310 -440h-361l-284 408h-332v-408h-295v1434zM418 1139v-437h463q117 0 166 52q53 53 53 166q0 114 -53 167q-49 52 -166 52h-463zM864 -61v-33q0 -119 -37 -203q-35 -91 -108 -147l-25 -21l-41 51
l27 21q119 96 119 299v33h65z" />
    <glyph glyph-name="rcommaaccent" unicode="&#x157;" horiz-adv-x="1517" 
d="M123 1434h758q238 0 376 -138t138 -376q0 -179 -81.5 -304t-228.5 -176l310 -440h-361l-284 408h-332v-408h-295v1434zM188 1368v-1302h164v407h432l285 -407h199l-287 407l82 29q126 44 194 149q36 55 54 119q18 67 18 150q0 105 -31 190q-29 80 -88 139t-139 88
q-85 31 -190 31h-693zM352 1204h529q145 0 213 -71q71 -71 71 -213q0 -140 -71 -211q-69 -72 -213 -72h-529v567zM418 1139v-437h463q117 0 166 52q53 53 53 166q0 114 -53 167q-49 52 -166 52h-463zM864 -61v-33q0 -119 -37 -203q-35 -91 -108 -147l-25 -21l-41 51l27 21
q119 96 119 299v33h65z" />
    <glyph glyph-name="Rcaron" unicode="&#x158;" horiz-adv-x="1517" 
d="M1051 1786l-291 -291l-291 291l47 45l244 -244l244 244zM123 1434h758q238 0 376 -138t138 -376q0 -179 -81.5 -304t-228.5 -176l310 -440h-361l-284 408h-332v-408h-295v1434zM418 1139v-437h463q117 0 166 52q53 53 53 166q0 114 -53 167q-49 52 -166 52h-463z" />
    <glyph glyph-name="rcaron" unicode="&#x159;" horiz-adv-x="1517" 
d="M1051 1786l-291 -291l-291 291l47 45l244 -244l244 244zM123 1434h758q238 0 376 -138t138 -376q0 -179 -81.5 -304t-228.5 -176l310 -440h-361l-284 408h-332v-408h-295v1434zM188 1368v-1302h164v407h432l285 -407h199l-287 407l82 29q126 44 194 149q36 55 54 119
q18 67 18 150q0 105 -31 190q-29 80 -88 139t-139 88q-85 31 -190 31h-693zM352 1204h529q145 0 213 -71q71 -71 71 -213q0 -140 -71 -211q-69 -72 -213 -72h-529v567zM418 1139v-437h463q117 0 166 52q53 53 53 166q0 114 -53 167q-49 52 -166 52h-463z" />
    <glyph glyph-name="Sacute" unicode="&#x15a;" horiz-adv-x="1597" 
d="M1049 1774l-463 -279l-35 55l463 279zM799 1434q259 0 428 -93q189 -101 237 -309l-288 -61q-14 68 -91 112q-100 56 -286 56q-215 0 -322 -56q-26 -15 -39.5 -30t-16.5 -26t-3 -26t3 -25.5t16.5 -25.5t39.5 -30q105 -56 322 -56q293 0 463 -92q103 -56 158 -143.5
t55 -196.5t-55 -196.5t-158 -143.5q-170 -92 -463 -92q-261 0 -428 92q-191 104 -236 309l287 62q17 -71 92 -113q98 -55 285 -55q216 0 321 55q37 21 48.5 40t11.5 42q0 15 -3 26t-17 26t-40 30q-103 55 -321 55q-289 0 -461 93q-104 55 -159.5 142.5t-55.5 196.5t55.5 197
t159.5 143q172 93 461 93z" />
    <glyph glyph-name="sacute" unicode="&#x15b;" horiz-adv-x="1597" 
d="M1049 1774l-463 -279l-35 55l463 279zM799 1434q259 0 428 -93q189 -101 237 -309l-288 -61q-14 68 -91 112q-100 56 -286 56q-215 0 -322 -56q-26 -15 -39.5 -30t-16.5 -26t-3 -26t3 -25.5t16.5 -25.5t39.5 -30q105 -56 322 -56q293 0 463 -92q103 -56 158 -143.5
t55 -196.5t-55 -196.5t-158 -143.5q-170 -92 -463 -92q-261 0 -428 92q-191 104 -236 309l287 62q17 -71 92 -113q98 -55 285 -55q216 0 321 55q37 21 48.5 40t11.5 42q0 15 -3 26t-17 26t-40 30q-103 55 -321 55q-289 0 -461 93q-104 55 -159.5 142.5t-55.5 196.5t55.5 197
t159.5 143q172 93 461 93zM799 1368q-274 0 -430 -84q-92 -51 -136 -121q-45 -68 -45 -162q0 -93 45 -161q44 -70 136 -121q156 -84 430 -84q128 0 223 -21q73 -14 129 -43h2q92 -50 92 -139t-92 -139q-121 -64 -354 -64q-205 0 -318 64q-54 29 -78 63q-15 19 -20 31
l-164 -35q50 -130 182 -202q82 -45 174 -62q107 -22 224 -22q276 0 432 84q87 47 133 120q45 68 45 162t-45 162q-47 74 -133 121q-156 84 -432 84q-134 0 -224 20q-73 14 -129 43h-2q-92 50 -92 139q0 90 92 140h2q119 63 353 63q105 0 176 -14q83 -18 143 -49
q69 -38 99 -94l163 34q-15 42 -51 90q-53 68 -135 113q-150 84 -395 84z" />
    <glyph glyph-name="Scedilla" unicode="&#x15e;" horiz-adv-x="1597" 
d="M1262 772q103 -56 158 -143.5t55 -196.5t-55 -196.5t-158 -143.5q-127 -68 -320 -86q43 -49 43 -135q0 -91 -52.5 -143t-144.5 -52q-132 0 -176 101l60 26q27 -61 116 -61q132 0 132 129q0 117 -101 129h-20q-261 0 -428 92q-191 104 -236 309l287 62q17 -71 92 -113
q98 -55 285 -55q216 0 321 55q37 21 48.5 40t11.5 42q0 15 -3 26t-17 26t-40 30q-103 55 -321 55q-289 0 -461 93q-104 55 -159.5 142.5t-55.5 196.5t55.5 197t159.5 143q172 93 461 93q259 0 428 -93q189 -101 237 -309l-288 -61q-14 68 -91 112q-100 56 -286 56
q-215 0 -322 -56q-26 -15 -39.5 -30t-16.5 -26t-3 -26t3 -25.5t16.5 -25.5t39.5 -30q105 -56 322 -56q293 0 463 -92z" />
    <glyph glyph-name="scedilla" unicode="&#x15f;" horiz-adv-x="1597" 
d="M1262 772q103 -56 158 -143.5t55 -196.5t-55 -196.5t-158 -143.5q-127 -68 -320 -86q43 -49 43 -135q0 -91 -52.5 -143t-144.5 -52q-132 0 -176 101l60 26q27 -61 116 -61q132 0 132 129q0 117 -101 129h-20q-261 0 -428 92q-191 104 -236 309l287 62q17 -71 92 -113
q98 -55 285 -55q216 0 321 55q37 21 48.5 40t11.5 42q0 15 -3 26t-17 26t-40 30q-103 55 -321 55q-289 0 -461 93q-104 55 -159.5 142.5t-55.5 196.5t55.5 197t159.5 143q172 93 461 93q259 0 428 -93q189 -101 237 -309l-288 -61q-14 68 -91 112q-100 56 -286 56
q-215 0 -322 -56q-26 -15 -39.5 -30t-16.5 -26t-3 -26t3 -25.5t16.5 -25.5t39.5 -30q105 -56 322 -56q293 0 463 -92zM1364 270q45 68 45 162t-45 162q-47 74 -133 121q-156 84 -432 84q-134 0 -224 20q-73 14 -129 43h-2q-92 50 -92 139q0 90 92 140h2q119 63 353 63
q105 0 176 -14q83 -18 143 -49q69 -38 99 -94l163 34q-15 42 -51 90q-53 68 -135 113q-150 84 -395 84q-274 0 -430 -84q-92 -51 -136 -121q-45 -68 -45 -162q0 -93 45 -161q44 -70 136 -121q156 -84 430 -84q128 0 223 -21q73 -14 129 -43h2q92 -50 92 -139t-92 -139
q-121 -64 -354 -64q-205 0 -318 64q-54 29 -78 63q-15 19 -20 31l-164 -35q50 -130 182 -202q82 -45 174 -62q107 -22 224 -22q276 0 432 84q87 47 133 120z" />
    <glyph glyph-name="Scaron" unicode="&#x160;" horiz-adv-x="1597" 
d="M1090 1786l-291 -291l-291 291l47 45l244 -244l243 244zM799 1434q259 0 428 -93q189 -101 237 -309l-288 -61q-14 68 -91 112q-100 56 -286 56q-215 0 -322 -56q-26 -15 -39.5 -30t-16.5 -26t-3 -26t3 -25.5t16.5 -25.5t39.5 -30q105 -56 322 -56q293 0 463 -92
q103 -56 158 -143.5t55 -196.5t-55 -196.5t-158 -143.5q-170 -92 -463 -92q-261 0 -428 92q-191 104 -236 309l287 62q17 -71 92 -113q98 -55 285 -55q216 0 321 55q37 21 48.5 40t11.5 42q0 15 -3 26t-17 26t-40 30q-103 55 -321 55q-289 0 -461 93q-104 55 -159.5 142.5
t-55.5 196.5t55.5 197t159.5 143q172 93 461 93z" />
    <glyph glyph-name="scaron" unicode="&#x161;" horiz-adv-x="1597" 
d="M1090 1786l-291 -291l-291 291l47 45l244 -244l243 244zM799 1434q259 0 428 -93q189 -101 237 -309l-288 -61q-14 68 -91 112q-100 56 -286 56q-215 0 -322 -56q-26 -15 -39.5 -30t-16.5 -26t-3 -26t3 -25.5t16.5 -25.5t39.5 -30q105 -56 322 -56q293 0 463 -92
q103 -56 158 -143.5t55 -196.5t-55 -196.5t-158 -143.5q-170 -92 -463 -92q-261 0 -428 92q-191 104 -236 309l287 62q17 -71 92 -113q98 -55 285 -55q216 0 321 55q37 21 48.5 40t11.5 42q0 15 -3 26t-17 26t-40 30q-103 55 -321 55q-289 0 -461 93q-104 55 -159.5 142.5
t-55.5 196.5t55.5 197t159.5 143q172 93 461 93zM799 1368q-274 0 -430 -84q-92 -51 -136 -121q-45 -68 -45 -162q0 -93 45 -161q44 -70 136 -121q156 -84 430 -84q128 0 223 -21q73 -14 129 -43h2q92 -50 92 -139t-92 -139q-121 -64 -354 -64q-205 0 -318 64q-54 29 -78 63
q-15 19 -20 31l-164 -35q50 -130 182 -202q82 -45 174 -62q107 -22 224 -22q276 0 432 84q87 47 133 120q45 68 45 162t-45 162q-47 74 -133 121q-156 84 -432 84q-134 0 -224 20q-73 14 -129 43h-2q-92 50 -92 139q0 90 92 140h2q119 63 353 63q105 0 176 -14
q83 -18 143 -49q69 -38 99 -94l163 34q-15 42 -51 90q-53 68 -135 113q-150 84 -395 84z" />
    <glyph glyph-name="Tcedilla" unicode="&#x162;" horiz-adv-x="1476" 
d="M885 1139v-1139q39 -51 39 -131q0 -91 -52.5 -143t-144.5 -52q-132 0 -176 101l59 26q27 -61 117 -61q131 0 131 129q0 131 -131 131h-137v1139h-467v295h1231v-295h-469z" />
    <glyph glyph-name="tcedilla" unicode="&#x163;" horiz-adv-x="1476" 
d="M885 1139v-1137q41 -50 41 -133q0 -91 -52.5 -143t-144.5 -52q-132 0 -176 101l59 26q27 -61 117 -61q131 0 131 129q0 131 -131 131h-139v1139h-467v295h1231v-295h-469zM819 66v1138h469v164h-1100v-164h467v-1138h164z" />
    <glyph glyph-name="Tcaron" unicode="&#x164;" horiz-adv-x="1476" 
d="M1030 1786l-291 -291l-290 291l47 45l243 -244l244 244zM1354 1139h-469v-1139h-295v1139h-467v295h1231v-295z" />
    <glyph glyph-name="tcaron" unicode="&#x165;" horiz-adv-x="1476" 
d="M1030 1786l-291 -291l-290 291l47 45l243 -244l244 244zM1354 1139h-469v-1139h-295v1139h-467v295h1231v-295zM188 1368v-164h467v-1138h164v1138h469v164h-1100z" />
    <glyph glyph-name="Tbar" unicode="&#x166;" horiz-adv-x="1476" 
d="M885 1139v-389h151v-66h-151v-684h-295v684h-148v66h148v389h-467v295h1231v-295h-469z" />
    <glyph glyph-name="tbar" unicode="&#x167;" horiz-adv-x="1476" 
d="M885 1139v-389h151v-66h-151v-684h-295v684h-148v66h148v389h-467v295h1231v-295h-469zM819 750v454h469v164h-1100v-164h467v-454h164zM819 684h-164v-618h164v618z" />
    <glyph glyph-name="Utilde" unicode="&#x168;" horiz-adv-x="1515" 
d="M575 1759q59 13 119.5 -16t93.5 -101q23 -51 61.5 -68.5t78.5 -10.5q34 7 58 33.5t24 72.5v33h65v-33q0 -67 -39 -115q-37 -43 -96 -55q-61 -12 -120 14.5t-93 102.5q-23 51 -62 70t-77 10q-33 -7 -57.5 -34t-24.5 -73v-33h-66v33q0 67 39 115q37 43 96 55zM1393 1434
v-799q0 -146 -39 -256q-42 -119 -129 -209q-84 -84 -209 -129q-118 -41 -258 -41t-258 41q-122 44 -207 129t-129 209q-41 107 -41 256v799h295v-799q0 -174 82 -256q84 -84 258 -84t258 84q82 82 82 256v799h295z" />
    <glyph glyph-name="utilde" unicode="&#x169;" horiz-adv-x="1515" 
d="M575 1759q59 13 119.5 -16t93.5 -101q23 -51 61.5 -68.5t78.5 -10.5q34 7 58 33.5t24 72.5v33h65v-33q0 -67 -39 -115q-37 -43 -96 -55q-61 -12 -120 14.5t-93 102.5q-23 51 -62 70t-77 10q-33 -7 -57.5 -34t-24.5 -73v-33h-66v33q0 67 39 115q37 43 96 55zM1393 1434
v-799q0 -146 -39 -256q-42 -119 -129 -209q-84 -84 -209 -129q-118 -41 -258 -41t-258 41q-122 44 -207 129t-129 209q-41 107 -41 256v799h295v-799q0 -174 82 -256q84 -84 258 -84t258 84q82 82 82 256v799h295zM1163 1368v-733q0 -93 -22 -170q-28 -83 -78 -133
q-54 -54 -133 -78q-80 -25 -172 -25t-172 25q-79 24 -133 78q-50 50 -78 133q-23 81 -23 170v733h-164v-733q0 -136 37 -234q41 -113 115 -184q70 -73 182 -115q104 -36 236 -36q131 0 235 36q108 40 185 113q77 83 114 186q35 100 35 234v733h-164z" />
    <glyph glyph-name="Umacron" unicode="&#x16a;" horiz-adv-x="1515" 
d="M995 1495h-473v66h473v-66zM1393 1434v-799q0 -146 -39 -256q-42 -119 -129 -209q-84 -84 -209 -129q-118 -41 -258 -41t-258 41q-122 44 -207 129t-129 209q-41 107 -41 256v799h295v-799q0 -174 82 -256q84 -84 258 -84t258 84q82 82 82 256v799h295z" />
    <glyph glyph-name="umacron" unicode="&#x16b;" horiz-adv-x="1515" 
d="M995 1495h-473v66h473v-66zM1393 1434v-799q0 -146 -39 -256q-42 -119 -129 -209q-84 -84 -209 -129q-118 -41 -258 -41t-258 41q-122 44 -207 129t-129 209q-41 107 -41 256v799h295v-799q0 -174 82 -256q84 -84 258 -84t258 84q82 82 82 256v799h295zM1163 1368v-733
q0 -93 -22 -170q-28 -83 -78 -133q-54 -54 -133 -78q-80 -25 -172 -25t-172 25q-79 24 -133 78q-50 50 -78 133q-23 81 -23 170v733h-164v-733q0 -136 37 -234q41 -113 115 -184q70 -73 182 -115q104 -36 236 -36q131 0 235 36q108 40 185 113q77 83 114 186q35 100 35 234
v733h-164z" />
    <glyph glyph-name="Uring" unicode="&#x16e;" horiz-adv-x="1515" 
d="M758 1886q92 0 144 -52t52 -144q0 -91 -52 -143t-144 -52q-91 0 -143 52t-52 143q0 92 52 144t143 52zM758 1821q-129 0 -129 -131q0 -129 129 -129q131 0 131 129q0 131 -131 131zM1393 1434v-799q0 -146 -39 -256q-42 -119 -129 -209q-84 -84 -209 -129
q-118 -41 -258 -41t-258 41q-122 44 -207 129t-129 209q-41 107 -41 256v799h295v-799q0 -174 82 -256q84 -84 258 -84t258 84q82 82 82 256v799h295z" />
    <glyph glyph-name="uring" unicode="&#x16f;" horiz-adv-x="1515" 
d="M758 1886q92 0 144 -52t52 -144q0 -91 -52 -143t-144 -52q-91 0 -143 52t-52 143q0 92 52 144t143 52zM758 1821q-129 0 -129 -131q0 -129 129 -129q131 0 131 129q0 131 -131 131zM1393 1434v-799q0 -146 -39 -256q-42 -119 -129 -209q-84 -84 -209 -129
q-118 -41 -258 -41t-258 41q-122 44 -207 129t-129 209q-41 107 -41 256v799h295v-799q0 -174 82 -256q84 -84 258 -84t258 84q82 82 82 256v799h295zM1163 1368v-733q0 -93 -22 -170q-28 -83 -78 -133q-54 -54 -133 -78q-80 -25 -172 -25t-172 25q-79 24 -133 78
q-50 50 -78 133q-23 81 -23 170v733h-164v-733q0 -136 37 -234q41 -113 115 -184q70 -73 182 -115q104 -36 236 -36q131 0 235 36q108 40 185 113q77 83 114 186q35 100 35 234v733h-164z" />
    <glyph glyph-name="Uhungarumlaut" unicode="&#x170;" horiz-adv-x="1515" 
d="M764 1790l-244 -295l-51 41l246 295zM1049 1790l-244 -295l-51 41l245 295zM1393 1434v-799q0 -146 -39 -256q-42 -119 -129 -209q-84 -84 -209 -129q-118 -41 -258 -41t-258 41q-122 44 -207 129t-129 209q-41 107 -41 256v799h295v-799q0 -174 82 -256q84 -84 258 -84
t258 84q82 82 82 256v799h295z" />
    <glyph glyph-name="uhungarumlaut" unicode="&#x171;" horiz-adv-x="1515" 
d="M764 1790l-244 -295l-51 41l246 295zM1049 1790l-244 -295l-51 41l245 295zM1393 1434v-799q0 -146 -39 -256q-42 -119 -129 -209q-84 -84 -209 -129q-118 -41 -258 -41t-258 41q-122 44 -207 129t-129 209q-41 107 -41 256v799h295v-799q0 -174 82 -256q84 -84 258 -84
t258 84q82 82 82 256v799h295zM1163 1368v-733q0 -93 -22 -170q-28 -83 -78 -133q-54 -54 -133 -78q-80 -25 -172 -25t-172 25q-79 24 -133 78q-50 50 -78 133q-23 81 -23 170v733h-164v-733q0 -136 37 -234q41 -113 115 -184q70 -73 182 -115q104 -36 236 -36q131 0 235 36
q108 40 185 113q77 83 114 186q35 100 35 234v733h-164z" />
    <glyph glyph-name="Uogonek" unicode="&#x172;" horiz-adv-x="1515" 
d="M1393 1434v-799q0 -146 -39 -256q-42 -119 -129 -209q-84 -84 -209 -129q-118 -41 -258 -41h-25q-59 -6 -94 -41q-43 -43 -43 -129q0 -84 43 -127t127 -43q122 0 158 88l61 -22q-25 -63 -81.5 -97.5t-137.5 -34.5q-109 0 -174 62q-62 65 -62 174q0 112 62 174l10 10
q-52 9 -102 27q-122 44 -207 129t-129 209q-41 107 -41 256v799h295v-799q0 -174 82 -256q84 -84 258 -84t258 84q82 82 82 256v799h295z" />
    <glyph glyph-name="uogonek" unicode="&#x173;" horiz-adv-x="1515" 
d="M1393 1434v-799q0 -146 -39 -256q-42 -119 -129 -209q-84 -84 -209 -129q-115 -41 -250 -41q-84 0 -127 -43t-43 -129q0 -84 43 -127t127 -43q122 0 158 88l61 -22q-25 -63 -81.5 -97.5t-137.5 -34.5q-109 0 -174 62q-62 65 -62 174q0 112 62 174l12 12q-56 10 -104 27
q-122 44 -207 129t-129 209q-41 107 -41 256v799h295v-799q0 -174 82 -256q84 -84 258 -84t258 84q82 82 82 256v799h295zM1327 1368h-164v-733q0 -93 -22 -170q-28 -83 -78 -133q-54 -54 -133 -78q-80 -25 -172 -25t-172 25q-79 24 -133 78q-50 50 -78 133q-23 81 -23 170
v733h-164v-733q0 -136 37 -234q41 -113 115 -184q70 -73 182 -115q104 -36 236 -36q131 0 235 36q108 40 185 113q77 83 114 186q35 100 35 234v733z" />
    <glyph glyph-name="Wcircumflex" unicode="&#x174;" horiz-adv-x="2646" 
d="M1323 1739l-244 -244l-47 45l291 291l291 -291l-47 -45zM1909 0h-195l-391 911l-391 -911h-195l-614 1434h321l390 -912l391 912h194l391 -912l392 912h321z" />
    <glyph glyph-name="wcircumflex" unicode="&#x175;" horiz-adv-x="2646" 
d="M1323 1739l-244 -244l-47 45l291 291l291 -291l-47 -45zM1909 0h-195l-391 911l-391 -911h-195l-614 1434h321l390 -912l391 912h194l391 -912l392 912h321zM2245 1368l-435 -1012l-434 1012h-108l-434 -1012l-433 1012h-178l557 -1302h109l434 1011l434 -1011h109
l557 1302h-178z" />
    <glyph glyph-name="Ycircumflex" unicode="&#x176;" horiz-adv-x="1638" 
d="M819 1739l-244 -244l-47 45l291 291l291 -291l-47 -45zM967 434v-434h-295v434l-549 1000h336l360 -656l361 656h336z" />
    <glyph glyph-name="ycircumflex" unicode="&#x177;" horiz-adv-x="1638" 
d="M819 1739l-244 -244l-47 45l291 291l291 -291l-47 -45zM967 434v-434h-295v434l-549 1000h336l360 -656l361 656h336zM1219 1368l-400 -725l-399 725h-187l504 -917v-385h164v385l504 917h-186z" />
    <glyph glyph-name="Ydieresis" unicode="&#x178;" horiz-adv-x="1638" 
d="M750 1593q21 0 35 -14t14 -35t-14 -35t-35 -14q-20 0 -35 14.5t-15 34.5t15 34.5t35 14.5zM889 1593q21 0 35 -14t14 -35t-14 -35t-35 -14q-20 0 -34.5 14.5t-14.5 34.5t14.5 34.5t34.5 14.5zM967 434v-434h-295v434l-549 1000h336l360 -656l361 656h336z" />
    <glyph glyph-name="Zacute" unicode="&#x179;" horiz-adv-x="1507" 
d="M1004 1774l-463 -279l-35 55l463 279zM1384 1087l-878 -792h878v-295h-1261v346l878 793h-878v295h1261v-347z" />
    <glyph glyph-name="zacute" unicode="&#x17a;" horiz-adv-x="1507" 
d="M1004 1774l-463 -279l-35 55l463 279zM1384 1087l-878 -792h878v-295h-1261v346l878 793h-878v295h1261v-347zM188 1368v-164h983l-983 -887v-251h1131v163h-983l983 887v252h-1131z" />
    <glyph glyph-name="Zdotaccent" unicode="&#x17b;" horiz-adv-x="1507" 
d="M754 1593q21 0 35 -14t14 -35t-14 -35t-35 -14q-20 0 -34.5 14.5t-14.5 34.5t14.5 34.5t34.5 14.5zM1384 1087l-878 -792h878v-295h-1261v346l878 793h-878v295h1261v-347z" />
    <glyph glyph-name="zdotaccent" unicode="&#x17c;" horiz-adv-x="1507" 
d="M754 1593q21 0 35 -14t14 -35t-14 -35t-35 -14q-20 0 -34.5 14.5t-14.5 34.5t14.5 34.5t34.5 14.5zM1384 1087l-878 -792h878v-295h-1261v346l878 793h-878v295h1261v-347zM188 1368v-164h983l-983 -887v-251h1131v163h-983l983 887v252h-1131z" />
    <glyph glyph-name="Zcaron" unicode="&#x17d;" horiz-adv-x="1507" 
d="M1044 1786l-290 -291l-291 291l47 45l244 -244l243 244zM1384 1087l-878 -792h878v-295h-1261v346l878 793h-878v295h1261v-347z" />
    <glyph glyph-name="zcaron" unicode="&#x17e;" horiz-adv-x="1507" 
d="M1044 1786l-290 -291l-291 291l47 45l244 -244l243 244zM1384 1087l-878 -792h878v-295h-1261v346l878 793h-878v295h1261v-347zM188 1368v-164h983l-983 -887v-251h1131v163h-983l983 887v252h-1131z" />
    <glyph glyph-name="Ohorn" unicode="&#x1a0;" horiz-adv-x="1771" 
d="M1669 1434v-277q0 -131 -72 -203q-26 -26 -59 -43q18 -92 18 -194q0 -165 -45 -293q-52 -141 -145 -234q-94 -94 -233 -145q-137 -45 -293 -45t-293 45q-141 52 -234 145t-145 234q-45 137 -45 293t45 293q51 139 145 233q95 95 234 146q128 45 293 45t293 -45
q137 -50 233 -146q94 -94 145 -233l11 -33q15 9 28 22q54 57 54 158v277h65zM840 295q214 0 318 104t104 318t-104 318t-318 104t-318 -104t-104 -318t104 -318t318 -104z" />
    <glyph glyph-name="ohorn" unicode="&#x1a1;" horiz-adv-x="1771" 
d="M1669 1434v-277q0 -131 -72 -203q-26 -26 -59 -43q18 -92 18 -194q0 -165 -45 -293q-52 -141 -145 -234q-94 -94 -233 -145q-137 -45 -293 -45t-293 45q-141 52 -234 145t-145 234q-45 137 -45 293t45 293q51 139 145 233q95 95 234 146q128 45 293 45t293 -45
q137 -50 233 -146q94 -94 145 -233l11 -33q15 9 28 22q54 57 54 158v277h65zM1491 717q0 87 -16 172q-33 -8 -82 -8h-33v65h33q37 0 67 6l-10 35q-47 128 -131 209q-81 84 -209 131q-118 41 -270 41q-153 0 -271 -41q-128 -47 -209 -131q-83 -80 -131 -207
q-41 -131 -41 -272q0 -142 41 -273q47 -125 131 -206q82 -85 207 -132q127 -40 273 -40q145 0 272 40q125 47 207 132q84 81 131 208q41 118 41 271zM1204 1081q65 -68 94 -157q29 -95 29 -207t-29 -207q-30 -91 -94 -158q-68 -65 -157 -94q-95 -29 -207 -29t-207 29
q-91 30 -158 94q-64 67 -94 158q-29 95 -29 207t29 207q29 89 94 157q69 66 158 95q92 28 207 28t207 -28q87 -29 157 -95zM840 295q214 0 318 104t104 318t-104 318t-318 104t-318 -104t-104 -318t104 -318t318 -104z" />
    <glyph glyph-name="Uhorn" unicode="&#x1af;" horiz-adv-x="1669" 
d="M1628 1434v-277q0 -131 -72 -203q-62 -62 -163 -71v-248q0 -146 -39 -256q-42 -119 -129 -209q-84 -84 -209 -129q-118 -41 -258 -41t-258 41q-122 44 -207 129t-129 209q-41 107 -41 256v799h295v-799q0 -174 82 -256q84 -84 258 -84t258 84q82 82 82 256v799h295v-486
q74 9 116 51q54 57 54 158v277h65z" />
    <glyph glyph-name="uhorn" unicode="&#x1b0;" horiz-adv-x="1669" 
d="M1628 1434v-277q0 -131 -72 -203q-62 -62 -163 -71v-248q0 -146 -39 -256q-42 -119 -129 -209q-84 -84 -209 -129q-118 -41 -258 -41t-258 41q-122 44 -207 129t-129 209q-41 107 -41 256v799h295v-799q0 -174 82 -256q84 -84 258 -84t258 84q82 82 82 256v799h295v-486
q74 9 116 51q54 57 54 158v277h65zM1292 401q35 100 35 234v246h-8v65h8v422h-164v-733q0 -93 -22 -170q-28 -83 -78 -133q-54 -54 -133 -78q-80 -25 -172 -25t-172 25q-79 24 -133 78q-50 50 -78 133q-23 81 -23 170v733h-164v-733q0 -136 37 -234q41 -113 115 -184
q70 -73 182 -115q104 -36 236 -36q131 0 235 36q108 40 185 113q77 83 114 186z" />
    <glyph glyph-name="Acaron" unicode="&#x1cd;" horiz-adv-x="1765" 
d="M1174 1786l-291 -291l-291 291l47 45l244 -244l243 244zM1642 0h-325l-76 162h-717l-75 -162h-326l665 1434h189zM659 457h445l-221 479z" />
    <glyph glyph-name="acaron" unicode="&#x1ce;" horiz-adv-x="1765" 
d="M1174 1786l-291 -291l-291 291l47 45l244 -244l243 244zM1642 0h-325l-76 162h-717l-75 -162h-326l665 1434h189zM829 1368l-604 -1302h183l75 161h799l76 -161h182l-604 1302h-107zM1206 391h-649l326 701zM659 457h445l-221 479z" />
    <glyph glyph-name="Icaron" unicode="&#x1cf;" horiz-adv-x="540" 
d="M561 1786l-291 -291l-290 291l47 45l243 -244l244 244zM418 0h-295v1434h295v-1434z" />
    <glyph glyph-name="icaron" unicode="&#x1d0;" horiz-adv-x="540" 
d="M561 1786l-291 -291l-290 291l47 45l243 -244l244 244zM418 0h-295v1434h295v-1434zM188 1368v-1302h164v1302h-164z" />
    <glyph glyph-name="Ocaron" unicode="&#x1d1;" horiz-adv-x="1679" 
d="M1130 1786l-290 -291l-291 291l47 45l244 -244l243 244zM840 1434q165 0 293 -45q137 -50 233 -146q94 -94 145 -233q45 -128 45 -293t-45 -293q-52 -141 -145 -234q-94 -94 -233 -145q-137 -45 -293 -45t-293 45q-141 52 -234 145t-145 234q-45 137 -45 293t45 293
q51 139 145 233q95 95 234 146q128 45 293 45zM840 1139q-214 0 -318 -104t-104 -318t104 -318t318 -104t318 104t104 318t-104 318t-318 104z" />
    <glyph glyph-name="ocaron" unicode="&#x1d2;" horiz-adv-x="1679" 
d="M1130 1786l-290 -291l-291 291l47 45l244 -244l243 244zM840 1434q165 0 293 -45q137 -50 233 -146q94 -94 145 -233q45 -128 45 -293t-45 -293q-52 -141 -145 -234q-94 -94 -233 -145q-137 -45 -293 -45t-293 45q-141 52 -234 145t-145 234q-45 137 -45 293t45 293
q51 139 145 233q95 95 234 146q128 45 293 45zM840 1368q-153 0 -271 -41q-128 -47 -209 -131q-83 -80 -131 -207q-41 -131 -41 -272q0 -142 41 -273q47 -125 131 -206q82 -85 207 -132q127 -40 273 -40q145 0 272 40q125 47 207 132q84 81 131 208q41 118 41 271
q0 152 -41 270q-47 128 -131 209q-81 84 -209 131q-118 41 -270 41zM840 1204q115 0 207 -28q87 -29 157 -95q65 -68 94 -157q29 -95 29 -207t-29 -207q-30 -91 -94 -158q-68 -65 -157 -94q-95 -29 -207 -29t-207 29q-91 30 -158 94q-64 67 -94 158q-29 95 -29 207t29 207
q29 89 94 157q69 66 158 95q92 28 207 28zM840 1139q-214 0 -318 -104t-104 -318t104 -318t318 -104t318 104t104 318t-104 318t-318 104z" />
    <glyph glyph-name="Ucaron" unicode="&#x1d3;" horiz-adv-x="1515" 
d="M1049 1786l-291 -291l-291 291l47 45l244 -244l243 244zM1393 1434v-799q0 -146 -39 -256q-42 -119 -129 -209q-84 -84 -209 -129q-118 -41 -258 -41t-258 41q-122 44 -207 129t-129 209q-41 107 -41 256v799h295v-799q0 -174 82 -256q84 -84 258 -84t258 84
q82 82 82 256v799h295z" />
    <glyph glyph-name="ucaron" unicode="&#x1d4;" horiz-adv-x="1515" 
d="M1049 1786l-291 -291l-291 291l47 45l244 -244l243 244zM1393 1434v-799q0 -146 -39 -256q-42 -119 -129 -209q-84 -84 -209 -129q-118 -41 -258 -41t-258 41q-122 44 -207 129t-129 209q-41 107 -41 256v799h295v-799q0 -174 82 -256q84 -84 258 -84t258 84
q82 82 82 256v799h295zM1163 1368v-733q0 -93 -22 -170q-28 -83 -78 -133q-54 -54 -133 -78q-80 -25 -172 -25t-172 25q-79 24 -133 78q-50 50 -78 133q-23 81 -23 170v733h-164v-733q0 -136 37 -234q41 -113 115 -184q70 -73 182 -115q104 -36 236 -36q131 0 235 36
q108 40 185 113q77 83 114 186q35 100 35 234v733h-164z" />
    <glyph glyph-name="Udieresismacron" unicode="&#x1d5;" horiz-adv-x="1515" 
d="M995 1634h-473v66h473v-66zM690 1593q21 0 35 -14t14 -35t-14 -35t-35 -14q-20 0 -34.5 14.5t-14.5 34.5t14.5 34.5t34.5 14.5zM829 1593q21 0 35.5 -14.5t14.5 -34.5t-14.5 -34.5t-35.5 -14.5q-20 0 -34.5 14.5t-14.5 34.5t14.5 34.5t34.5 14.5zM1393 1434v-799
q0 -146 -39 -256q-42 -119 -129 -209q-84 -84 -209 -129q-118 -41 -258 -41t-258 41q-122 44 -207 129t-129 209q-41 107 -41 256v799h295v-799q0 -174 82 -256q84 -84 258 -84t258 84q82 82 82 256v799h295z" />
    <glyph glyph-name="udieresismacron" unicode="&#x1d6;" horiz-adv-x="1515" 
d="M995 1634h-473v66h473v-66zM690 1593q21 0 35 -14t14 -35t-14 -35t-35 -14q-20 0 -34.5 14.5t-14.5 34.5t14.5 34.5t34.5 14.5zM829 1593q21 0 35.5 -14.5t14.5 -34.5t-14.5 -34.5t-35.5 -14.5q-20 0 -34.5 14.5t-14.5 34.5t14.5 34.5t34.5 14.5zM1393 1434v-799
q0 -146 -39 -256q-42 -119 -129 -209q-84 -84 -209 -129q-118 -41 -258 -41t-258 41q-122 44 -207 129t-129 209q-41 107 -41 256v799h295v-799q0 -174 82 -256q84 -84 258 -84t258 84q82 82 82 256v799h295zM1163 1368v-733q0 -93 -22 -170q-28 -83 -78 -133
q-54 -54 -133 -78q-80 -25 -172 -25t-172 25q-79 24 -133 78q-50 50 -78 133q-23 81 -23 170v733h-164v-733q0 -136 37 -234q41 -113 115 -184q70 -73 182 -115q104 -36 236 -36q131 0 235 36q108 40 185 113q77 83 114 186q35 100 35 234v733h-164z" />
    <glyph glyph-name="Udieresisacute" unicode="&#x1d7;" horiz-adv-x="1515" 
d="M961 1810l-463 -278l-35 55l463 279zM688 1593q21 0 35 -14t14 -35t-14 -35t-35 -14q-20 0 -34.5 14.5t-14.5 34.5t14.5 34.5t34.5 14.5zM827 1593q21 0 35.5 -14.5t14.5 -34.5t-14.5 -34.5t-35.5 -14.5q-20 0 -34.5 14.5t-14.5 34.5t14.5 34.5t34.5 14.5zM1393 1434
v-799q0 -146 -39 -256q-42 -119 -129 -209q-84 -84 -209 -129q-118 -41 -258 -41t-258 41q-122 44 -207 129t-129 209q-41 107 -41 256v799h295v-799q0 -174 82 -256q84 -84 258 -84t258 84q82 82 82 256v799h295z" />
    <glyph glyph-name="udieresisacute" unicode="&#x1d8;" horiz-adv-x="1515" 
d="M961 1810l-463 -278l-35 55l463 279zM688 1593q21 0 35 -14t14 -35t-14 -35t-35 -14q-20 0 -34.5 14.5t-14.5 34.5t14.5 34.5t34.5 14.5zM827 1593q21 0 35.5 -14.5t14.5 -34.5t-14.5 -34.5t-35.5 -14.5q-20 0 -34.5 14.5t-14.5 34.5t14.5 34.5t34.5 14.5zM1393 1434
v-799q0 -146 -39 -256q-42 -119 -129 -209q-84 -84 -209 -129q-118 -41 -258 -41t-258 41q-122 44 -207 129t-129 209q-41 107 -41 256v799h295v-799q0 -174 82 -256q84 -84 258 -84t258 84q82 82 82 256v799h295zM1163 1368v-733q0 -93 -22 -170q-28 -83 -78 -133
q-54 -54 -133 -78q-80 -25 -172 -25t-172 25q-79 24 -133 78q-50 50 -78 133q-23 81 -23 170v733h-164v-733q0 -136 37 -234q41 -113 115 -184q70 -73 182 -115q104 -36 236 -36q131 0 235 36q108 40 185 113q77 83 114 186q35 100 35 234v733h-164z" />
    <glyph glyph-name="Udieresiscaron" unicode="&#x1d9;" horiz-adv-x="1515" 
d="M1049 1896l-291 -290l-291 290l47 46l244 -244l243 244zM688 1593q21 0 35 -14t14 -35t-14 -35t-35 -14q-20 0 -34.5 14.5t-14.5 34.5t14.5 34.5t34.5 14.5zM827 1593q21 0 35.5 -14.5t14.5 -34.5t-14.5 -34.5t-35.5 -14.5q-20 0 -34.5 14.5t-14.5 34.5t14.5 34.5
t34.5 14.5zM1393 1434v-799q0 -146 -39 -256q-42 -119 -129 -209q-84 -84 -209 -129q-118 -41 -258 -41t-258 41q-122 44 -207 129t-129 209q-41 107 -41 256v799h295v-799q0 -174 82 -256q84 -84 258 -84t258 84q82 82 82 256v799h295z" />
    <glyph glyph-name="udieresiscaron" unicode="&#x1da;" horiz-adv-x="1515" 
d="M1049 1896l-291 -290l-291 290l47 46l244 -244l243 244zM688 1593q21 0 35 -14t14 -35t-14 -35t-35 -14q-20 0 -34.5 14.5t-14.5 34.5t14.5 34.5t34.5 14.5zM827 1593q21 0 35.5 -14.5t14.5 -34.5t-14.5 -34.5t-35.5 -14.5q-20 0 -34.5 14.5t-14.5 34.5t14.5 34.5
t34.5 14.5zM1393 1434v-799q0 -146 -39 -256q-42 -119 -129 -209q-84 -84 -209 -129q-118 -41 -258 -41t-258 41q-122 44 -207 129t-129 209q-41 107 -41 256v799h295v-799q0 -174 82 -256q84 -84 258 -84t258 84q82 82 82 256v799h295zM1163 1368v-733q0 -93 -22 -170
q-28 -83 -78 -133q-54 -54 -133 -78q-80 -25 -172 -25t-172 25q-79 24 -133 78q-50 50 -78 133q-23 81 -23 170v733h-164v-733q0 -136 37 -234q41 -113 115 -184q70 -73 182 -115q104 -36 236 -36q131 0 235 36q108 40 185 113q77 83 114 186q35 100 35 234v733h-164z" />
    <glyph glyph-name="Udieresisgrave" unicode="&#x1db;" horiz-adv-x="1515" 
d="M1053 1587l-35 -55l-463 278l35 56zM688 1593q21 0 35 -14t14 -35t-14 -35t-35 -14q-20 0 -34.5 14.5t-14.5 34.5t14.5 34.5t34.5 14.5zM827 1593q21 0 35.5 -14.5t14.5 -34.5t-14.5 -34.5t-35.5 -14.5q-20 0 -34.5 14.5t-14.5 34.5t14.5 34.5t34.5 14.5zM1393 1434v-799
q0 -146 -39 -256q-42 -119 -129 -209q-84 -84 -209 -129q-118 -41 -258 -41t-258 41q-122 44 -207 129t-129 209q-41 107 -41 256v799h295v-799q0 -174 82 -256q84 -84 258 -84t258 84q82 82 82 256v799h295z" />
    <glyph glyph-name="udieresisgrave" unicode="&#x1dc;" horiz-adv-x="1515" 
d="M1053 1587l-35 -55l-463 278l35 56zM688 1593q21 0 35 -14t14 -35t-14 -35t-35 -14q-20 0 -34.5 14.5t-14.5 34.5t14.5 34.5t34.5 14.5zM827 1593q21 0 35.5 -14.5t14.5 -34.5t-14.5 -34.5t-35.5 -14.5q-20 0 -34.5 14.5t-14.5 34.5t14.5 34.5t34.5 14.5zM1393 1434v-799
q0 -146 -39 -256q-42 -119 -129 -209q-84 -84 -209 -129q-118 -41 -258 -41t-258 41q-122 44 -207 129t-129 209q-41 107 -41 256v799h295v-799q0 -174 82 -256q84 -84 258 -84t258 84q82 82 82 256v799h295zM1163 1368v-733q0 -93 -22 -170q-28 -83 -78 -133
q-54 -54 -133 -78q-80 -25 -172 -25t-172 25q-79 24 -133 78q-50 50 -78 133q-23 81 -23 170v733h-164v-733q0 -136 37 -234q41 -113 115 -184q70 -73 182 -115q104 -36 236 -36q131 0 235 36q108 40 185 113q77 83 114 186q35 100 35 234v733h-164z" />
    <glyph glyph-name="Scommaaccent" unicode="&#x218;" horiz-adv-x="1597" 
d="M799 1434q259 0 428 -93q189 -101 237 -309l-288 -61q-14 68 -91 112q-100 56 -286 56q-215 0 -322 -56q-26 -15 -39.5 -30t-16.5 -26t-3 -26t3 -25.5t16.5 -25.5t39.5 -30q105 -56 322 -56q293 0 463 -92q103 -56 158 -143.5t55 -196.5t-55 -196.5t-158 -143.5
q-170 -92 -463 -92q-261 0 -428 92q-191 104 -236 309l287 62q17 -71 92 -113q98 -55 285 -55q216 0 321 55q37 21 48.5 40t11.5 42q0 15 -3 26t-17 26t-40 30q-103 55 -321 55q-289 0 -461 93q-104 55 -159.5 142.5t-55.5 196.5t55.5 197t159.5 143q172 93 461 93zM905 -61
v-33q0 -119 -37 -203q-34 -91 -108 -147l-25 -21l-41 51l27 21q119 96 119 299v33h65z" />
    <glyph glyph-name="scommaaccent" unicode="&#x219;" horiz-adv-x="1597" 
d="M799 1434q259 0 428 -93q189 -101 237 -309l-288 -61q-14 68 -91 112q-100 56 -286 56q-215 0 -322 -56q-26 -15 -39.5 -30t-16.5 -26t-3 -26t3 -25.5t16.5 -25.5t39.5 -30q105 -56 322 -56q293 0 463 -92q103 -56 158 -143.5t55 -196.5t-55 -196.5t-158 -143.5
q-170 -92 -463 -92q-261 0 -428 92q-191 104 -236 309l287 62q17 -71 92 -113q98 -55 285 -55q216 0 321 55q37 21 48.5 40t11.5 42q0 15 -3 26t-17 26t-40 30q-103 55 -321 55q-289 0 -461 93q-104 55 -159.5 142.5t-55.5 196.5t55.5 197t159.5 143q172 93 461 93z
M799 1368q-274 0 -430 -84q-92 -51 -136 -121q-45 -68 -45 -162q0 -93 45 -161q44 -70 136 -121q156 -84 430 -84q128 0 223 -21q73 -14 129 -43h2q92 -50 92 -139t-92 -139q-121 -64 -354 -64q-205 0 -318 64q-54 29 -78 63q-15 19 -20 31l-164 -35q50 -130 182 -202
q82 -45 174 -62q107 -22 224 -22q276 0 432 84q87 47 133 120q45 68 45 162t-45 162q-47 74 -133 121q-156 84 -432 84q-134 0 -224 20q-73 14 -129 43h-2q-92 50 -92 139q0 90 92 140h2q119 63 353 63q105 0 176 -14q83 -18 143 -49q69 -38 99 -94l163 34q-15 42 -51 90
q-53 68 -135 113q-150 84 -395 84zM905 -61v-33q0 -119 -37 -203q-34 -91 -108 -147l-25 -21l-41 51l27 21q119 96 119 299v33h65z" />
    <glyph glyph-name="uni021A" unicode="&#x21a;" horiz-adv-x="1476" 
d="M1354 1139h-469v-1139h-295v1139h-467v295h1231v-295zM770 -61v-33q0 -119 -37 -203q-35 -91 -108 -147l-25 -21l-41 51l27 21q119 96 119 299v33h65z" />
    <glyph glyph-name="uni021B" unicode="&#x21b;" horiz-adv-x="1476" 
d="M1354 1139h-469v-1139h-295v1139h-467v295h1231v-295zM188 1368v-164h467v-1138h164v1138h469v164h-1100zM770 -61v-33q0 -119 -37 -203q-35 -91 -108 -147l-25 -21l-41 51l27 21q119 96 119 299v33h65z" />
    <glyph glyph-name="circumflex" unicode="&#x2c6;" horiz-adv-x="581" 
d="M291 1739l-244 -244l-47 45l291 291l291 -291l-47 -45z" />
    <glyph glyph-name="caron" unicode="&#x2c7;" horiz-adv-x="581" 
d="M582 1786l-291 -291l-291 291l47 45l244 -244l244 244z" />
    <glyph glyph-name="breve" unicode="&#x2d8;" horiz-adv-x="552" 
d="M553 1804v-32q0 -131 -72 -203q-74 -74 -205 -74t-202 74q-74 71 -74 203v32h66v-32q0 -102 53 -158q56 -53 157 -53q105 0 158 53t53 158v32h66z" />
    <glyph glyph-name="dotaccent" unicode="&#x2d9;" horiz-adv-x="98" 
d="M49 1593q21 0 35 -14t14 -35t-14 -35t-35 -14q-20 0 -34.5 14.5t-14.5 34.5t14.5 34.5t34.5 14.5z" />
    <glyph glyph-name="ring" unicode="&#x2da;" horiz-adv-x="391" 
d="M195 1886q92 0 144 -52t52 -144q0 -91 -52 -143t-144 -52q-91 0 -143 52t-52 143q0 92 52 144t143 52zM195 1821q-129 0 -129 -131q0 -129 129 -129q131 0 131 129q0 131 -131 131z" />
    <glyph glyph-name="ogonek" unicode="&#x2db;" horiz-adv-x="454" 
d="M236 66v-66q-84 0 -127 -43t-43 -129q0 -84 43 -127t127 -43q121 0 157 88l62 -22q-25 -63 -81.5 -97.5t-137.5 -34.5q-110 0 -175 62q-61 64 -61 174q0 113 61 174q67 64 175 64z" />
    <glyph glyph-name="tilde" unicode="&#x2dc;" horiz-adv-x="634" 
d="M135 1759q59 13 119.5 -16t93.5 -101q23 -51 61 -68.5t78 -10.5q34 7 58 33.5t24 72.5v33h66v-33q0 -67 -39 -115q-37 -43 -96 -55q-61 -12 -120 14.5t-93 102.5q-23 51 -62 70t-78 10q-33 -7 -57 -34t-24 -73v-33h-66v33q0 67 39 115q37 43 96 55z" />
    <glyph glyph-name="hungarumlaut" unicode="&#x2dd;" horiz-adv-x="579" 
d="M295 1790l-244 -295l-51 41l246 295zM580 1790l-244 -295l-51 41l245 295z" />
    <glyph glyph-name="hookabovecomb" unicode="&#x309;" horiz-adv-x="0" 
d="M0 1821v65q92 0 143.5 -52t51.5 -144q0 -91 -51.5 -143t-143.5 -52v66q129 0 129 129q0 131 -129 131z" />
    <glyph glyph-name="uni031B" unicode="&#x31b;" horiz-adv-x="0" 
d="M309 1434v-277q0 -132 -71 -203q-73 -73 -205 -73h-33v65h33q104 0 157 53q54 57 54 158v277h65z" />
    <glyph glyph-name="dotbelowcomb" unicode="&#x323;" horiz-adv-x="0" 
d="M49 -61q21 0 35 -14.5t14 -35.5t-14 -35t-35 -14q-20 0 -34.5 14.5t-14.5 34.5t14.5 35t34.5 15z" />
    <glyph glyph-name="uni0326" unicode="&#x326;" horiz-adv-x="0" 
d="M211 -61v-33q0 -119 -37 -203q-34 -91 -108 -147l-25 -21l-41 51l27 21q118 95 118 299v33h66z" />
    <glyph glyph-name="Wgrave" unicode="&#x1e80;" horiz-adv-x="2646" 
d="M1573 1550l-35 -55l-463 279l35 55zM1909 0h-195l-391 911l-391 -911h-195l-614 1434h321l390 -912l391 912h194l391 -912l392 912h321z" />
    <glyph glyph-name="wgrave" unicode="&#x1e81;" horiz-adv-x="2646" 
d="M1573 1550l-35 -55l-463 279l35 55zM1909 0h-195l-391 911l-391 -911h-195l-614 1434h321l390 -912l391 912h194l391 -912l392 912h321zM2245 1368l-435 -1012l-434 1012h-108l-434 -1012l-433 1012h-178l557 -1302h109l434 1011l434 -1011h109l557 1302h-178z" />
    <glyph glyph-name="Wacute" unicode="&#x1e82;" horiz-adv-x="2646" 
d="M1573 1774l-463 -279l-35 55l463 279zM1909 0h-195l-391 911l-391 -911h-195l-614 1434h321l390 -912l391 912h194l391 -912l392 912h321z" />
    <glyph glyph-name="wacute" unicode="&#x1e83;" horiz-adv-x="2646" 
d="M1573 1774l-463 -279l-35 55l463 279zM1909 0h-195l-391 911l-391 -911h-195l-614 1434h321l390 -912l391 912h194l391 -912l392 912h321zM2245 1368l-435 -1012l-434 1012h-108l-434 -1012l-433 1012h-178l557 -1302h109l434 1011l434 -1011h109l557 1302h-178z" />
    <glyph glyph-name="Wdieresis" unicode="&#x1e84;" horiz-adv-x="2646" 
d="M1253 1593q21 0 35.5 -14.5t14.5 -34.5t-14.5 -34.5t-35.5 -14.5q-20 0 -34.5 14.5t-14.5 34.5t14.5 34.5t34.5 14.5zM1393 1593q21 0 35 -14t14 -35t-14 -35t-35 -14q-20 0 -35 14.5t-15 34.5t15 34.5t35 14.5zM1909 0h-195l-391 911l-391 -911h-195l-614 1434h321
l390 -912l391 912h194l391 -912l392 912h321z" />
    <glyph glyph-name="wdieresis" unicode="&#x1e85;" horiz-adv-x="2646" 
d="M1253 1593q21 0 35.5 -14.5t14.5 -34.5t-14.5 -34.5t-35.5 -14.5q-20 0 -34.5 14.5t-14.5 34.5t14.5 34.5t34.5 14.5zM1393 1593q21 0 35 -14t14 -35t-14 -35t-35 -14q-20 0 -35 14.5t-15 34.5t15 34.5t35 14.5zM1909 0h-195l-391 911l-391 -911h-195l-614 1434h321
l390 -912l391 912h194l391 -912l392 912h321zM2245 1368l-435 -1012l-434 1012h-108l-434 -1012l-433 1012h-178l557 -1302h109l434 1011l434 -1011h109l557 1302h-178z" />
    <glyph glyph-name="Adotbelow" unicode="&#x1ea0;" horiz-adv-x="1765" 
d="M1642 0h-325l-76 162h-717l-75 -162h-326l665 1434h189zM659 457h445l-221 479zM883 -61q21 0 35 -14.5t14 -35.5t-14 -35t-35 -14q-20 0 -34.5 14.5t-14.5 34.5t14.5 35t34.5 15z" />
    <glyph glyph-name="adotbelow" unicode="&#x1ea1;" horiz-adv-x="1765" 
d="M1642 0h-325l-76 162h-717l-75 -162h-326l665 1434h189zM829 1368l-604 -1302h183l75 161h799l76 -161h182l-604 1302h-107zM1206 391h-649l326 701zM659 457h445l-221 479zM883 -61q21 0 35 -14.5t14 -35.5t-14 -35t-35 -14q-20 0 -34.5 14.5t-14.5 34.5t14.5 35
t34.5 15z" />
    <glyph glyph-name="Ahookabove" unicode="&#x1ea2;" horiz-adv-x="1765" 
d="M786 1821v65q92 0 143.5 -52t51.5 -144q0 -91 -51.5 -143t-143.5 -52v66q129 0 129 129q0 131 -129 131zM1642 0h-325l-76 162h-717l-75 -162h-326l665 1434h189zM659 457h445l-221 479z" />
    <glyph glyph-name="ahookabove" unicode="&#x1ea3;" horiz-adv-x="1765" 
d="M786 1821v65q92 0 143.5 -52t51.5 -144q0 -91 -51.5 -143t-143.5 -52v66q129 0 129 129q0 131 -129 131zM1642 0h-325l-76 162h-717l-75 -162h-326l665 1434h189zM829 1368l-604 -1302h183l75 161h799l76 -161h182l-604 1302h-107zM1206 391h-649l326 701zM659 457h445
l-221 479z" />
    <glyph glyph-name="Acircumflexacute" unicode="&#x1ea4;" horiz-adv-x="1765" 
d="M1128 2044l-462 -279l-35 56l463 278zM883 1739l-244 -244l-47 45l291 291l291 -291l-48 -45zM1642 0h-325l-76 162h-717l-75 -162h-326l665 1434h189zM659 457h445l-221 479z" />
    <glyph glyph-name="acircumflexacute" unicode="&#x1ea5;" horiz-adv-x="1765" 
d="M1128 2044l-462 -279l-35 56l463 278zM883 1739l-244 -244l-47 45l291 291l291 -291l-48 -45zM1642 0h-325l-76 162h-717l-75 -162h-326l665 1434h189zM829 1368l-604 -1302h183l75 161h799l76 -161h182l-604 1302h-107zM1206 391h-649l326 701zM659 457h445l-221 479z
" />
    <glyph glyph-name="Acircumflexgrave" unicode="&#x1ea6;" horiz-adv-x="1765" 
d="M1135 1821l-35 -56l-463 279l35 55zM883 1739l-244 -244l-47 45l291 291l291 -291l-48 -45zM1642 0h-325l-76 162h-717l-75 -162h-326l665 1434h189zM659 457h445l-221 479z" />
    <glyph glyph-name="acircumflexgrave" unicode="&#x1ea7;" horiz-adv-x="1765" 
d="M1135 1821l-35 -56l-463 279l35 55zM883 1739l-244 -244l-47 45l291 291l291 -291l-48 -45zM1642 0h-325l-76 162h-717l-75 -162h-326l665 1434h189zM829 1368l-604 -1302h183l75 161h799l76 -161h182l-604 1302h-107zM1206 391h-649l326 701zM659 457h445l-221 479z" />
    <glyph glyph-name="Acircumflexhookabove" unicode="&#x1ea8;" horiz-adv-x="1765" 
d="M958 2136v66q92 0 143.5 -52.5t51.5 -144.5q0 -91 -51.5 -143t-143.5 -52v66q129 0 129 129q0 131 -129 131zM883 1739l-244 -244l-47 45l291 291l291 -291l-48 -45zM1642 0h-325l-76 162h-717l-75 -162h-326l665 1434h189zM659 457h445l-221 479z" />
    <glyph glyph-name="acircumflexhookabove" unicode="&#x1ea9;" horiz-adv-x="1765" 
d="M958 2136v66q92 0 143.5 -52.5t51.5 -144.5q0 -91 -51.5 -143t-143.5 -52v66q129 0 129 129q0 131 -129 131zM883 1739l-244 -244l-47 45l291 291l291 -291l-48 -45zM1642 0h-325l-76 162h-717l-75 -162h-326l665 1434h189zM829 1368l-604 -1302h183l75 161h799l76 -161
h182l-604 1302h-107zM1206 391h-649l326 701zM659 457h445l-221 479z" />
    <glyph glyph-name="Acircumflextilde" unicode="&#x1eaa;" horiz-adv-x="1765" 
d="M700 2075q59 13 119.5 -16t93.5 -101q23 -51 61.5 -69t78.5 -11q33 7 57.5 34t24.5 73v32h65v-32q0 -67 -39 -115q-37 -43 -96 -55q-61 -12 -120 14t-93 102q-23 51 -62 70t-77 10q-34 -7 -58 -33.5t-24 -72.5v-33h-66v33q0 66 39 114q38 44 96 56zM885 1739l-244 -244
l-47 45l291 291l291 -291l-48 -45zM1642 0h-325l-76 162h-717l-75 -162h-326l665 1434h189zM659 457h445l-221 479z" />
    <glyph glyph-name="acircumflextilde" unicode="&#x1eab;" horiz-adv-x="1765" 
d="M700 2075q59 13 119.5 -16t93.5 -101q23 -51 61.5 -69t78.5 -11q33 7 57.5 34t24.5 73v32h65v-32q0 -67 -39 -115q-37 -43 -96 -55q-61 -12 -120 14t-93 102q-23 51 -62 70t-77 10q-34 -7 -58 -33.5t-24 -72.5v-33h-66v33q0 66 39 114q38 44 96 56zM885 1739l-244 -244
l-47 45l291 291l291 -291l-48 -45zM1642 0h-325l-76 162h-717l-75 -162h-326l665 1434h189zM829 1368l-604 -1302h183l75 161h799l76 -161h182l-604 1302h-107zM1206 391h-649l326 701zM659 457h445l-221 479z" />
    <glyph glyph-name="Acircumflexdotbelow" unicode="&#x1eac;" horiz-adv-x="1765" 
d="M883 1739l-244 -244l-47 45l291 291l291 -291l-48 -45zM1642 0h-325l-76 162h-717l-75 -162h-326l665 1434h189zM659 457h445l-221 479zM883 -61q21 0 35 -14.5t14 -35.5t-14 -35t-35 -14q-20 0 -34.5 14.5t-14.5 34.5t14.5 35t34.5 15z" />
    <glyph glyph-name="acircumflexdotbelow" unicode="&#x1ead;" horiz-adv-x="1765" 
d="M883 1739l-244 -244l-47 45l291 291l291 -291l-48 -45zM1642 0h-325l-76 162h-717l-75 -162h-326l665 1434h189zM829 1368l-604 -1302h183l75 161h799l76 -161h182l-604 1302h-107zM1206 391h-649l326 701zM659 457h445l-221 479zM883 -61q21 0 35 -14.5t14 -35.5
t-14 -35t-35 -14q-20 0 -34.5 14.5t-14.5 34.5t14.5 35t34.5 15z" />
    <glyph glyph-name="Abreveacute" unicode="&#x1eae;" horiz-adv-x="1765" 
d="M1253 1978l-462 -278l-35 55l463 279zM1159 1804v-32q0 -131 -72 -203q-74 -74 -204 -74q-132 0 -203 74q-74 71 -74 203v32h66v-32q0 -102 53 -158q56 -53 158 -53q104 0 157 53q54 54 54 158v32h65zM1642 0h-325l-76 162h-717l-75 -162h-326l665 1434h189zM659 457h445
l-221 479z" />
    <glyph glyph-name="abreveacute" unicode="&#x1eaf;" horiz-adv-x="1765" 
d="M1253 1978l-462 -278l-35 55l463 279zM1159 1804v-32q0 -131 -72 -203q-74 -74 -204 -74q-132 0 -203 74q-74 71 -74 203v32h66v-32q0 -102 53 -158q56 -53 158 -53q104 0 157 53q54 54 54 158v32h65zM1642 0h-325l-76 162h-717l-75 -162h-326l665 1434h189zM829 1368
l-604 -1302h183l75 161h799l76 -161h182l-604 1302h-107zM1206 391h-649l326 701zM659 457h445l-221 479z" />
    <glyph glyph-name="Abrevegrave" unicode="&#x1eb0;" horiz-adv-x="1765" 
d="M1010 1755l-35 -55l-463 278l35 56zM1159 1804v-32q0 -131 -72 -203q-74 -74 -204 -74q-132 0 -203 74q-74 71 -74 203v32h66v-32q0 -102 53 -158q56 -53 158 -53q104 0 157 53q54 54 54 158v32h65zM1642 0h-325l-76 162h-717l-75 -162h-326l665 1434h189zM659 457h445
l-221 479z" />
    <glyph glyph-name="abrevegrave" unicode="&#x1eb1;" horiz-adv-x="1765" 
d="M1010 1755l-35 -55l-463 278l35 56zM1159 1804v-32q0 -131 -72 -203q-74 -74 -204 -74q-132 0 -203 74q-74 71 -74 203v32h66v-32q0 -102 53 -158q56 -53 158 -53q104 0 157 53q54 54 54 158v32h65zM1642 0h-325l-76 162h-717l-75 -162h-326l665 1434h189zM829 1368
l-604 -1302h183l75 161h799l76 -161h182l-604 1302h-107zM1206 391h-649l326 701zM659 457h445l-221 479z" />
    <glyph glyph-name="Abrevehookabove" unicode="&#x1eb2;" horiz-adv-x="1765" 
d="M827 2054v66q92 0 143.5 -52.5t51.5 -144.5q0 -91 -51.5 -142.5t-143.5 -51.5v65q129 0 129 129q0 131 -129 131zM1159 1804v-32q0 -131 -72 -203q-74 -74 -204 -74q-132 0 -203 74q-74 71 -74 203v32h66v-32q0 -102 53 -158q56 -53 158 -53q104 0 157 53q54 54 54 158
v32h65zM1642 0h-325l-76 162h-717l-75 -162h-326l665 1434h189zM659 457h445l-221 479z" />
    <glyph glyph-name="abrevehookabove" unicode="&#x1eb3;" horiz-adv-x="1765" 
d="M827 2054v66q92 0 143.5 -52.5t51.5 -144.5q0 -91 -51.5 -142.5t-143.5 -51.5v65q129 0 129 129q0 131 -129 131zM1159 1804v-32q0 -131 -72 -203q-74 -74 -204 -74q-132 0 -203 74q-74 71 -74 203v32h66v-32q0 -102 53 -158q56 -53 158 -53q104 0 157 53q54 54 54 158
v32h65zM1642 0h-325l-76 162h-717l-75 -162h-326l665 1434h189zM829 1368l-604 -1302h183l75 161h799l76 -161h182l-604 1302h-107zM1206 391h-649l326 701zM659 457h445l-221 479z" />
    <glyph glyph-name="Abrevetilde" unicode="&#x1eb4;" horiz-adv-x="1765" 
d="M700 2097q59 13 119.5 -16t93.5 -101q23 -51 61.5 -68.5t78.5 -10.5q34 7 58 33.5t24 72.5v33h65v-33q0 -67 -39 -115q-37 -43 -96 -55q-61 -12 -120 14.5t-93 102.5q-23 51 -62 70t-77 10q-33 -7 -57.5 -34t-24.5 -73v-33h-66v33q0 67 39 115q37 43 96 55zM1159 1804
v-32q0 -131 -72 -203q-74 -74 -204 -74q-132 0 -203 74q-74 71 -74 203v32h66v-32q0 -102 53 -158q56 -53 158 -53q104 0 157 53q54 54 54 158v32h65zM1642 0h-325l-76 162h-717l-75 -162h-326l665 1434h189zM659 457h445l-221 479z" />
    <glyph glyph-name="abrevetilde" unicode="&#x1eb5;" horiz-adv-x="1765" 
d="M700 2097q59 13 119.5 -16t93.5 -101q23 -51 61.5 -68.5t78.5 -10.5q34 7 58 33.5t24 72.5v33h65v-33q0 -67 -39 -115q-37 -43 -96 -55q-61 -12 -120 14.5t-93 102.5q-23 51 -62 70t-77 10q-33 -7 -57.5 -34t-24.5 -73v-33h-66v33q0 67 39 115q37 43 96 55zM1159 1804
v-32q0 -131 -72 -203q-74 -74 -204 -74q-132 0 -203 74q-74 71 -74 203v32h66v-32q0 -102 53 -158q56 -53 158 -53q104 0 157 53q54 54 54 158v32h65zM1642 0h-325l-76 162h-717l-75 -162h-326l665 1434h189zM829 1368l-604 -1302h183l75 161h799l76 -161h182l-604 1302
h-107zM1206 391h-649l326 701zM659 457h445l-221 479z" />
    <glyph glyph-name="Abrevedotbelow" unicode="&#x1eb6;" horiz-adv-x="1765" 
d="M1159 1804v-32q0 -131 -72 -203q-74 -74 -204 -74q-132 0 -203 74q-74 71 -74 203v32h66v-32q0 -102 53 -158q56 -53 158 -53q104 0 157 53q54 54 54 158v32h65zM1642 0h-325l-76 162h-717l-75 -162h-326l665 1434h189zM659 457h445l-221 479zM883 -61q21 0 35 -14.5
t14 -35.5t-14 -35t-35 -14q-20 0 -34.5 14.5t-14.5 34.5t14.5 35t34.5 15z" />
    <glyph glyph-name="abrevedotbelow" unicode="&#x1eb7;" horiz-adv-x="1765" 
d="M1159 1804v-32q0 -131 -72 -203q-74 -74 -204 -74q-132 0 -203 74q-74 71 -74 203v32h66v-32q0 -102 53 -158q56 -53 158 -53q104 0 157 53q54 54 54 158v32h65zM1642 0h-325l-76 162h-717l-75 -162h-326l665 1434h189zM829 1368l-604 -1302h183l75 161h799l76 -161h182
l-604 1302h-107zM1206 391h-649l326 701zM659 457h445l-221 479zM883 -61q21 0 35 -14.5t14 -35.5t-14 -35t-35 -14q-20 0 -34.5 14.5t-14.5 34.5t14.5 35t34.5 15z" />
    <glyph glyph-name="Edotbelow" unicode="&#x1eb8;" 
d="M1313 1139h-895v-275h895v-295h-895v-274h895v-295h-1190v1434h1190v-295zM719 -61q21 0 35 -14.5t14 -35.5t-14 -35t-35 -14q-20 0 -34.5 14.5t-14.5 34.5t14.5 35t34.5 15z" />
    <glyph glyph-name="edotbelow" unicode="&#x1eb9;" 
d="M1313 1139h-895v-275h895v-295h-895v-274h895v-295h-1190v1434h1190v-295zM188 1368v-1302h1059v163h-895v406h895v164h-895v405h895v164h-1059zM719 -61q21 0 35 -14.5t14 -35.5t-14 -35t-35 -14q-20 0 -34.5 14.5t-14.5 34.5t14.5 35t34.5 15z" />
    <glyph glyph-name="Ehookabove" unicode="&#x1eba;" 
d="M621 1821v65q92 0 143 -52t51 -144q0 -91 -51 -143t-143 -52v66q129 0 129 129q0 131 -129 131zM1313 1139h-895v-275h895v-295h-895v-274h895v-295h-1190v1434h1190v-295z" />
    <glyph glyph-name="ehookabove" unicode="&#x1ebb;" 
d="M621 1821v65q92 0 143 -52t51 -144q0 -91 -51 -143t-143 -52v66q129 0 129 129q0 131 -129 131zM1313 1139h-895v-275h895v-295h-895v-274h895v-295h-1190v1434h1190v-295zM188 1368v-1302h1059v163h-895v406h895v164h-895v405h895v164h-1059z" />
    <glyph glyph-name="Etilde" unicode="&#x1ebc;" 
d="M537 1759q59 13 119.5 -16t93.5 -101q23 -51 61 -68.5t78 -10.5q34 7 58 33.5t24 72.5v33h65v-33q0 -67 -39 -115q-37 -43 -96 -55q-61 -12 -120 14.5t-93 102.5q-23 51 -62 70t-77 10q-33 -7 -57.5 -34t-24.5 -73v-33h-66v33q0 67 39 115q37 43 97 55zM1313 1139h-895
v-275h895v-295h-895v-274h895v-295h-1190v1434h1190v-295z" />
    <glyph glyph-name="etilde" unicode="&#x1ebd;" 
d="M537 1759q59 13 119.5 -16t93.5 -101q23 -51 61 -68.5t78 -10.5q34 7 58 33.5t24 72.5v33h65v-33q0 -67 -39 -115q-37 -43 -96 -55q-61 -12 -120 14.5t-93 102.5q-23 51 -62 70t-77 10q-33 -7 -57.5 -34t-24.5 -73v-33h-66v33q0 67 39 115q37 43 97 55zM1313 1139h-895
v-275h895v-295h-895v-274h895v-295h-1190v1434h1190v-295zM188 1368v-1302h1059v163h-895v406h895v164h-895v405h895v164h-1059z" />
    <glyph glyph-name="Ecircumflexacute" unicode="&#x1ebe;" 
d="M965 2044l-463 -279l-35 56l463 278zM719 1739l-244 -244l-47 45l291 291l291 -291l-47 -45zM1313 1139h-895v-275h895v-295h-895v-274h895v-295h-1190v1434h1190v-295z" />
    <glyph glyph-name="ecircumflexacute" unicode="&#x1ebf;" 
d="M965 2044l-463 -279l-35 56l463 278zM719 1739l-244 -244l-47 45l291 291l291 -291l-47 -45zM1313 1139h-895v-275h895v-295h-895v-274h895v-295h-1190v1434h1190v-295zM188 1368v-1302h1059v163h-895v406h895v164h-895v405h895v164h-1059z" />
    <glyph glyph-name="Ecircumflexgrave" unicode="&#x1ec0;" 
d="M971 1821l-35 -56l-463 279l35 55zM719 1739l-244 -244l-47 45l291 291l291 -291l-47 -45zM1313 1139h-895v-275h895v-295h-895v-274h895v-295h-1190v1434h1190v-295z" />
    <glyph glyph-name="ecircumflexgrave" unicode="&#x1ec1;" 
d="M971 1821l-35 -56l-463 279l35 55zM719 1739l-244 -244l-47 45l291 291l291 -291l-47 -45zM1313 1139h-895v-275h895v-295h-895v-274h895v-295h-1190v1434h1190v-295zM188 1368v-1302h1059v163h-895v406h895v164h-895v405h895v164h-1059z" />
    <glyph glyph-name="Ecircumflexhookabove" unicode="&#x1ec2;" 
d="M795 2136v66q92 0 143 -52t51 -145q0 -91 -51 -143t-143 -52v66q129 0 129 129q0 131 -129 131zM719 1739l-244 -244l-47 45l291 291l291 -291l-47 -45zM1313 1139h-895v-275h895v-295h-895v-274h895v-295h-1190v1434h1190v-295z" />
    <glyph glyph-name="ecircumflexhookabove" unicode="&#x1ec3;" 
d="M795 2136v66q92 0 143 -52t51 -145q0 -91 -51 -143t-143 -52v66q129 0 129 129q0 131 -129 131zM719 1739l-244 -244l-47 45l291 291l291 -291l-47 -45zM1313 1139h-895v-275h895v-295h-895v-274h895v-295h-1190v1434h1190v-295zM188 1368v-1302h1059v163h-895v406h895
v164h-895v405h895v164h-1059z" />
    <glyph glyph-name="Ecircumflextilde" unicode="&#x1ec4;" 
d="M537 2075q59 13 119.5 -16t93.5 -101q23 -51 61.5 -69t77.5 -11q33 7 57.5 34t24.5 73v32h65v-32q0 -67 -39 -115q-37 -43 -96 -55q-61 -12 -120 14t-93 102q-23 51 -62 70t-77 10q-34 -7 -58 -33.5t-24 -72.5v-33h-66v33q0 66 39 114q38 44 97 56zM721 1739l-244 -244
l-47 45l291 291l291 -291l-47 -45zM1313 1139h-895v-275h895v-295h-895v-274h895v-295h-1190v1434h1190v-295z" />
    <glyph glyph-name="ecircumflextilde" unicode="&#x1ec5;" 
d="M537 2075q59 13 119.5 -16t93.5 -101q23 -51 61.5 -69t77.5 -11q33 7 57.5 34t24.5 73v32h65v-32q0 -67 -39 -115q-37 -43 -96 -55q-61 -12 -120 14t-93 102q-23 51 -62 70t-77 10q-34 -7 -58 -33.5t-24 -72.5v-33h-66v33q0 66 39 114q38 44 97 56zM721 1739l-244 -244
l-47 45l291 291l291 -291l-47 -45zM1313 1139h-895v-275h895v-295h-895v-274h895v-295h-1190v1434h1190v-295zM188 1368v-1302h1059v163h-895v406h895v164h-895v405h895v164h-1059z" />
    <glyph glyph-name="Ecircumflexdotbelow" unicode="&#x1ec6;" 
d="M719 1739l-244 -244l-47 45l291 291l291 -291l-47 -45zM1313 1139h-895v-275h895v-295h-895v-274h895v-295h-1190v1434h1190v-295zM719 -61q21 0 35 -14.5t14 -35.5t-14 -35t-35 -14q-20 0 -34.5 14.5t-14.5 34.5t14.5 35t34.5 15z" />
    <glyph glyph-name="ecircumflexdotbelow" unicode="&#x1ec7;" 
d="M719 1739l-244 -244l-47 45l291 291l291 -291l-47 -45zM1313 1139h-895v-275h895v-295h-895v-274h895v-295h-1190v1434h1190v-295zM188 1368v-1302h1059v163h-895v406h895v164h-895v405h895v164h-1059zM719 -61q21 0 35 -14.5t14 -35.5t-14 -35t-35 -14q-20 0 -34.5 14.5
t-14.5 34.5t14.5 35t34.5 15z" />
    <glyph glyph-name="Ihookabove" unicode="&#x1ec8;" horiz-adv-x="540" 
d="M174 1821v65q92 0 143.5 -52t51.5 -144q0 -91 -51.5 -143t-143.5 -52v66q129 0 129 129q0 131 -129 131zM418 0h-295v1434h295v-1434z" />
    <glyph glyph-name="ihookabove" unicode="&#x1ec9;" horiz-adv-x="540" 
d="M174 1821v65q92 0 143.5 -52t51.5 -144q0 -91 -51.5 -143t-143.5 -52v66q129 0 129 129q0 131 -129 131zM418 0h-295v1434h295v-1434zM188 1368v-1302h164v1302h-164z" />
    <glyph glyph-name="Idotbelow" unicode="&#x1eca;" horiz-adv-x="540" 
d="M418 0h-295v1434h295v-1434zM270 -61q21 0 35 -14.5t14 -35.5t-14 -35t-35 -14q-20 0 -34.5 14.5t-14.5 34.5t14.5 35t34.5 15z" />
    <glyph glyph-name="idotbelow" unicode="&#x1ecb;" horiz-adv-x="540" 
d="M418 0h-295v1434h295v-1434zM188 1368v-1302h164v1302h-164zM270 -61q21 0 35 -14.5t14 -35.5t-14 -35t-35 -14q-20 0 -34.5 14.5t-14.5 34.5t14.5 35t34.5 15z" />
    <glyph glyph-name="Odotbelow" unicode="&#x1ecc;" horiz-adv-x="1679" 
d="M840 1434q165 0 293 -45q137 -50 233 -146q94 -94 145 -233q45 -128 45 -293t-45 -293q-52 -141 -145 -234q-94 -94 -233 -145q-137 -45 -293 -45t-293 45q-141 52 -234 145t-145 234q-45 137 -45 293t45 293q51 139 145 233q95 95 234 146q128 45 293 45zM840 1139
q-214 0 -318 -104t-104 -318t104 -318t318 -104t318 104t104 318t-104 318t-318 104zM840 -61q21 0 35 -14.5t14 -35.5t-14 -35t-35 -14q-20 0 -34.5 14.5t-14.5 34.5t14.5 35t34.5 15z" />
    <glyph glyph-name="odotbelow" unicode="&#x1ecd;" horiz-adv-x="1679" 
d="M840 1434q165 0 293 -45q137 -50 233 -146q94 -94 145 -233q45 -128 45 -293t-45 -293q-52 -141 -145 -234q-94 -94 -233 -145q-137 -45 -293 -45t-293 45q-141 52 -234 145t-145 234q-45 137 -45 293t45 293q51 139 145 233q95 95 234 146q128 45 293 45zM840 1368
q-153 0 -271 -41q-128 -47 -209 -131q-83 -80 -131 -207q-41 -131 -41 -272q0 -142 41 -273q47 -125 131 -206q82 -85 207 -132q127 -40 273 -40q145 0 272 40q125 47 207 132q84 81 131 208q41 118 41 271q0 152 -41 270q-47 128 -131 209q-81 84 -209 131q-118 41 -270 41
zM840 1204q115 0 207 -28q87 -29 157 -95q65 -68 94 -157q29 -95 29 -207t-29 -207q-30 -91 -94 -158q-68 -65 -157 -94q-95 -29 -207 -29t-207 29q-91 30 -158 94q-64 67 -94 158q-29 95 -29 207t29 207q29 89 94 157q69 66 158 95q92 28 207 28zM840 1139
q-214 0 -318 -104t-104 -318t104 -318t318 -104t318 104t104 318t-104 318t-318 104zM840 -61q21 0 35 -14.5t14 -35.5t-14 -35t-35 -14q-20 0 -34.5 14.5t-14.5 34.5t14.5 35t34.5 15z" />
    <glyph glyph-name="Ohookabove" unicode="&#x1ece;" horiz-adv-x="1679" 
d="M743 1821v65q92 0 143.5 -52t51.5 -144q0 -91 -51.5 -143t-143.5 -52v66q129 0 129 129q0 131 -129 131zM840 1434q165 0 293 -45q137 -50 233 -146q94 -94 145 -233q45 -128 45 -293t-45 -293q-52 -141 -145 -234q-94 -94 -233 -145q-137 -45 -293 -45t-293 45
q-141 52 -234 145t-145 234q-45 137 -45 293t45 293q51 139 145 233q95 95 234 146q128 45 293 45zM840 1139q-214 0 -318 -104t-104 -318t104 -318t318 -104t318 104t104 318t-104 318t-318 104z" />
    <glyph glyph-name="ohookabove" unicode="&#x1ecf;" horiz-adv-x="1679" 
d="M743 1821v65q92 0 143.5 -52t51.5 -144q0 -91 -51.5 -143t-143.5 -52v66q129 0 129 129q0 131 -129 131zM840 1434q165 0 293 -45q137 -50 233 -146q94 -94 145 -233q45 -128 45 -293t-45 -293q-52 -141 -145 -234q-94 -94 -233 -145q-137 -45 -293 -45t-293 45
q-141 52 -234 145t-145 234q-45 137 -45 293t45 293q51 139 145 233q95 95 234 146q128 45 293 45zM840 1368q-153 0 -271 -41q-128 -47 -209 -131q-83 -80 -131 -207q-41 -131 -41 -272q0 -142 41 -273q47 -125 131 -206q82 -85 207 -132q127 -40 273 -40q145 0 272 40
q125 47 207 132q84 81 131 208q41 118 41 271q0 152 -41 270q-47 128 -131 209q-81 84 -209 131q-118 41 -270 41zM840 1204q115 0 207 -28q87 -29 157 -95q65 -68 94 -157q29 -95 29 -207t-29 -207q-30 -91 -94 -158q-68 -65 -157 -94q-95 -29 -207 -29t-207 29
q-91 30 -158 94q-64 67 -94 158q-29 95 -29 207t29 207q29 89 94 157q69 66 158 95q92 28 207 28zM840 1139q-214 0 -318 -104t-104 -318t104 -318t318 -104t318 104t104 318t-104 318t-318 104z" />
    <glyph glyph-name="Ocircumflexacute" unicode="&#x1ed0;" horiz-adv-x="1679" 
d="M1085 2044l-462 -279l-35 56l463 278zM840 1739l-244 -244l-47 45l291 291l290 -291l-47 -45zM840 1434q165 0 293 -45q137 -50 233 -146q94 -94 145 -233q45 -128 45 -293t-45 -293q-52 -141 -145 -234q-94 -94 -233 -145q-137 -45 -293 -45t-293 45q-141 52 -234 145
t-145 234q-45 137 -45 293t45 293q51 139 145 233q95 95 234 146q128 45 293 45zM840 1139q-214 0 -318 -104t-104 -318t104 -318t318 -104t318 104t104 318t-104 318t-318 104z" />
    <glyph glyph-name="ocircumflexacute" unicode="&#x1ed1;" horiz-adv-x="1679" 
d="M1085 2044l-462 -279l-35 56l463 278zM840 1739l-244 -244l-47 45l291 291l290 -291l-47 -45zM840 1434q165 0 293 -45q137 -50 233 -146q94 -94 145 -233q45 -128 45 -293t-45 -293q-52 -141 -145 -234q-94 -94 -233 -145q-137 -45 -293 -45t-293 45q-141 52 -234 145
t-145 234q-45 137 -45 293t45 293q51 139 145 233q95 95 234 146q128 45 293 45zM840 1368q-153 0 -271 -41q-128 -47 -209 -131q-83 -80 -131 -207q-41 -131 -41 -272q0 -142 41 -273q47 -125 131 -206q82 -85 207 -132q127 -40 273 -40q145 0 272 40q125 47 207 132
q84 81 131 208q41 118 41 271q0 152 -41 270q-47 128 -131 209q-81 84 -209 131q-118 41 -270 41zM840 1204q115 0 207 -28q87 -29 157 -95q65 -68 94 -157q29 -95 29 -207t-29 -207q-30 -91 -94 -158q-68 -65 -157 -94q-95 -29 -207 -29t-207 29q-91 30 -158 94
q-64 67 -94 158q-29 95 -29 207t29 207q29 89 94 157q69 66 158 95q92 28 207 28zM840 1139q-214 0 -318 -104t-104 -318t104 -318t318 -104t318 104t104 318t-104 318t-318 104z" />
    <glyph glyph-name="Ocircumflexgrave" unicode="&#x1ed2;" horiz-adv-x="1679" 
d="M1092 1821l-35 -56l-463 279l35 55zM840 1739l-244 -244l-47 45l291 291l290 -291l-47 -45zM840 1434q165 0 293 -45q137 -50 233 -146q94 -94 145 -233q45 -128 45 -293t-45 -293q-52 -141 -145 -234q-94 -94 -233 -145q-137 -45 -293 -45t-293 45q-141 52 -234 145
t-145 234q-45 137 -45 293t45 293q51 139 145 233q95 95 234 146q128 45 293 45zM840 1139q-214 0 -318 -104t-104 -318t104 -318t318 -104t318 104t104 318t-104 318t-318 104z" />
    <glyph glyph-name="ocircumflexgrave" unicode="&#x1ed3;" horiz-adv-x="1679" 
d="M1092 1821l-35 -56l-463 279l35 55zM840 1739l-244 -244l-47 45l291 291l290 -291l-47 -45zM840 1434q165 0 293 -45q137 -50 233 -146q94 -94 145 -233q45 -128 45 -293t-45 -293q-52 -141 -145 -234q-94 -94 -233 -145q-137 -45 -293 -45t-293 45q-141 52 -234 145
t-145 234q-45 137 -45 293t45 293q51 139 145 233q95 95 234 146q128 45 293 45zM840 1368q-153 0 -271 -41q-128 -47 -209 -131q-83 -80 -131 -207q-41 -131 -41 -272q0 -142 41 -273q47 -125 131 -206q82 -85 207 -132q127 -40 273 -40q145 0 272 40q125 47 207 132
q84 81 131 208q41 118 41 271q0 152 -41 270q-47 128 -131 209q-81 84 -209 131q-118 41 -270 41zM840 1204q115 0 207 -28q87 -29 157 -95q65 -68 94 -157q29 -95 29 -207t-29 -207q-30 -91 -94 -158q-68 -65 -157 -94q-95 -29 -207 -29t-207 29q-91 30 -158 94
q-64 67 -94 158q-29 95 -29 207t29 207q29 89 94 157q69 66 158 95q92 28 207 28zM840 1139q-214 0 -318 -104t-104 -318t104 -318t318 -104t318 104t104 318t-104 318t-318 104z" />
    <glyph glyph-name="Ocircumflexhookabove" unicode="&#x1ed4;" horiz-adv-x="1679" 
d="M915 2136v66q92 0 143.5 -52.5t51.5 -144.5q0 -91 -51.5 -143t-143.5 -52v66q129 0 129 129q0 131 -129 131zM840 1739l-244 -244l-47 45l291 291l290 -291l-47 -45zM840 1434q165 0 293 -45q137 -50 233 -146q94 -94 145 -233q45 -128 45 -293t-45 -293
q-52 -141 -145 -234q-94 -94 -233 -145q-137 -45 -293 -45t-293 45q-141 52 -234 145t-145 234q-45 137 -45 293t45 293q51 139 145 233q95 95 234 146q128 45 293 45zM840 1139q-214 0 -318 -104t-104 -318t104 -318t318 -104t318 104t104 318t-104 318t-318 104z" />
    <glyph glyph-name="ocircumflexhookabove" unicode="&#x1ed5;" horiz-adv-x="1679" 
d="M915 2136v66q92 0 143.5 -52.5t51.5 -144.5q0 -91 -51.5 -143t-143.5 -52v66q129 0 129 129q0 131 -129 131zM840 1739l-244 -244l-47 45l291 291l290 -291l-47 -45zM840 1434q165 0 293 -45q137 -50 233 -146q94 -94 145 -233q45 -128 45 -293t-45 -293
q-52 -141 -145 -234q-94 -94 -233 -145q-137 -45 -293 -45t-293 45q-141 52 -234 145t-145 234q-45 137 -45 293t45 293q51 139 145 233q95 95 234 146q128 45 293 45zM840 1368q-153 0 -271 -41q-128 -47 -209 -131q-83 -80 -131 -207q-41 -131 -41 -272q0 -142 41 -273
q47 -125 131 -206q82 -85 207 -132q127 -40 273 -40q145 0 272 40q125 47 207 132q84 81 131 208q41 118 41 271q0 152 -41 270q-47 128 -131 209q-81 84 -209 131q-118 41 -270 41zM840 1204q115 0 207 -28q87 -29 157 -95q65 -68 94 -157q29 -95 29 -207t-29 -207
q-30 -91 -94 -158q-68 -65 -157 -94q-95 -29 -207 -29t-207 29q-91 30 -158 94q-64 67 -94 158q-29 95 -29 207t29 207q29 89 94 157q69 66 158 95q92 28 207 28zM840 1139q-214 0 -318 -104t-104 -318t104 -318t318 -104t318 104t104 318t-104 318t-318 104z" />
    <glyph glyph-name="Ocircumflextilde" unicode="&#x1ed6;" horiz-adv-x="1679" 
d="M657 2075q59 13 119.5 -16t93.5 -101q23 -51 61.5 -69t78.5 -11q33 7 57.5 34t24.5 73v32h65v-32q0 -67 -39 -115q-37 -43 -96 -55q-61 -12 -120 14t-93 102q-23 51 -62 70t-77 10q-34 -7 -58 -33.5t-24 -72.5v-33h-66v33q0 66 39 114q38 44 96 56zM842 1739l-244 -244
l-47 45l291 291l291 -291l-48 -45zM840 1434q165 0 293 -45q137 -50 233 -146q94 -94 145 -233q45 -128 45 -293t-45 -293q-52 -141 -145 -234q-94 -94 -233 -145q-137 -45 -293 -45t-293 45q-141 52 -234 145t-145 234q-45 137 -45 293t45 293q51 139 145 233
q95 95 234 146q128 45 293 45zM840 1139q-214 0 -318 -104t-104 -318t104 -318t318 -104t318 104t104 318t-104 318t-318 104z" />
    <glyph glyph-name="ocircumflextilde" unicode="&#x1ed7;" horiz-adv-x="1679" 
d="M657 2075q59 13 119.5 -16t93.5 -101q23 -51 61.5 -69t78.5 -11q33 7 57.5 34t24.5 73v32h65v-32q0 -67 -39 -115q-37 -43 -96 -55q-61 -12 -120 14t-93 102q-23 51 -62 70t-77 10q-34 -7 -58 -33.5t-24 -72.5v-33h-66v33q0 66 39 114q38 44 96 56zM842 1739l-244 -244
l-47 45l291 291l291 -291l-48 -45zM840 1434q165 0 293 -45q137 -50 233 -146q94 -94 145 -233q45 -128 45 -293t-45 -293q-52 -141 -145 -234q-94 -94 -233 -145q-137 -45 -293 -45t-293 45q-141 52 -234 145t-145 234q-45 137 -45 293t45 293q51 139 145 233
q95 95 234 146q128 45 293 45zM840 1368q-153 0 -271 -41q-128 -47 -209 -131q-83 -80 -131 -207q-41 -131 -41 -272q0 -142 41 -273q47 -125 131 -206q82 -85 207 -132q127 -40 273 -40q145 0 272 40q125 47 207 132q84 81 131 208q41 118 41 271q0 152 -41 270
q-47 128 -131 209q-81 84 -209 131q-118 41 -270 41zM840 1204q115 0 207 -28q87 -29 157 -95q65 -68 94 -157q29 -95 29 -207t-29 -207q-30 -91 -94 -158q-68 -65 -157 -94q-95 -29 -207 -29t-207 29q-91 30 -158 94q-64 67 -94 158q-29 95 -29 207t29 207q29 89 94 157
q69 66 158 95q92 28 207 28zM840 1139q-214 0 -318 -104t-104 -318t104 -318t318 -104t318 104t104 318t-104 318t-318 104z" />
    <glyph glyph-name="Ocircumflexdotbelow" unicode="&#x1ed8;" horiz-adv-x="1679" 
d="M840 1739l-244 -244l-47 45l291 291l290 -291l-47 -45zM840 1434q165 0 293 -45q137 -50 233 -146q94 -94 145 -233q45 -128 45 -293t-45 -293q-52 -141 -145 -234q-94 -94 -233 -145q-137 -45 -293 -45t-293 45q-141 52 -234 145t-145 234q-45 137 -45 293t45 293
q51 139 145 233q95 95 234 146q128 45 293 45zM840 1139q-214 0 -318 -104t-104 -318t104 -318t318 -104t318 104t104 318t-104 318t-318 104zM840 -61q21 0 35 -14.5t14 -35.5t-14 -35t-35 -14q-20 0 -34.5 14.5t-14.5 34.5t14.5 35t34.5 15z" />
    <glyph glyph-name="ocircumflexdotbelow" unicode="&#x1ed9;" horiz-adv-x="1679" 
d="M840 1739l-244 -244l-47 45l291 291l290 -291l-47 -45zM840 1434q165 0 293 -45q137 -50 233 -146q94 -94 145 -233q45 -128 45 -293t-45 -293q-52 -141 -145 -234q-94 -94 -233 -145q-137 -45 -293 -45t-293 45q-141 52 -234 145t-145 234q-45 137 -45 293t45 293
q51 139 145 233q95 95 234 146q128 45 293 45zM840 1368q-153 0 -271 -41q-128 -47 -209 -131q-83 -80 -131 -207q-41 -131 -41 -272q0 -142 41 -273q47 -125 131 -206q82 -85 207 -132q127 -40 273 -40q145 0 272 40q125 47 207 132q84 81 131 208q41 118 41 271
q0 152 -41 270q-47 128 -131 209q-81 84 -209 131q-118 41 -270 41zM840 1204q115 0 207 -28q87 -29 157 -95q65 -68 94 -157q29 -95 29 -207t-29 -207q-30 -91 -94 -158q-68 -65 -157 -94q-95 -29 -207 -29t-207 29q-91 30 -158 94q-64 67 -94 158q-29 95 -29 207t29 207
q29 89 94 157q69 66 158 95q92 28 207 28zM840 1139q-214 0 -318 -104t-104 -318t104 -318t318 -104t318 104t104 318t-104 318t-318 104zM840 -61q21 0 35 -14.5t14 -35.5t-14 -35t-35 -14q-20 0 -34.5 14.5t-14.5 34.5t14.5 35t34.5 15z" />
    <glyph glyph-name="Ohornacute" unicode="&#x1eda;" horiz-adv-x="1771" 
d="M627 1495l-35 55l463 279l35 -55zM1669 1434v-277q0 -131 -72 -203q-26 -26 -59 -43q18 -92 18 -194q0 -165 -45 -293q-52 -141 -145 -234q-94 -94 -233 -145q-137 -45 -293 -45t-293 45q-141 52 -234 145t-145 234q-45 137 -45 293t45 293q51 139 145 233q95 95 234 146
q128 45 293 45t293 -45q137 -50 233 -146q94 -94 145 -233l11 -33q15 9 28 22q54 57 54 158v277h65zM840 295q214 0 318 104t104 318t-104 318t-318 104t-318 -104t-104 -318t104 -318t318 -104z" />
    <glyph glyph-name="ohornacute" unicode="&#x1edb;" horiz-adv-x="1771" 
d="M627 1495l-35 55l463 279l35 -55zM1669 1434v-277q0 -131 -72 -203q-26 -26 -59 -43q18 -92 18 -194q0 -165 -45 -293q-52 -141 -145 -234q-94 -94 -233 -145q-137 -45 -293 -45t-293 45q-141 52 -234 145t-145 234q-45 137 -45 293t45 293q51 139 145 233q95 95 234 146
q128 45 293 45t293 -45q137 -50 233 -146q94 -94 145 -233l11 -33q15 9 28 22q54 57 54 158v277h65zM1491 717q0 87 -16 172q-33 -8 -82 -8h-33v65h33q37 0 67 6l-10 35q-47 128 -131 209q-81 84 -209 131q-118 41 -270 41q-153 0 -271 -41q-128 -47 -209 -131
q-83 -80 -131 -207q-41 -131 -41 -272q0 -142 41 -273q47 -125 131 -206q82 -85 207 -132q127 -40 273 -40q145 0 272 40q125 47 207 132q84 81 131 208q41 118 41 271zM1204 1081q65 -68 94 -157q29 -95 29 -207t-29 -207q-30 -91 -94 -158q-68 -65 -157 -94
q-95 -29 -207 -29t-207 29q-91 30 -158 94q-64 67 -94 158q-29 95 -29 207t29 207q29 89 94 157q69 66 158 95q92 28 207 28t207 -28q87 -29 157 -95zM840 295q214 0 318 104t104 318t-104 318t-318 104t-318 -104t-104 -318t104 -318t318 -104z" />
    <glyph glyph-name="Ohorngrave" unicode="&#x1edc;" horiz-adv-x="1771" 
d="M1055 1495l-463 279l35 55l463 -279zM1669 1434v-277q0 -131 -72 -203q-26 -26 -59 -43q18 -92 18 -194q0 -165 -45 -293q-52 -141 -145 -234q-94 -94 -233 -145q-137 -45 -293 -45t-293 45q-141 52 -234 145t-145 234q-45 137 -45 293t45 293q51 139 145 233
q95 95 234 146q128 45 293 45t293 -45q137 -50 233 -146q94 -94 145 -233l11 -33q15 9 28 22q54 57 54 158v277h65zM840 295q214 0 318 104t104 318t-104 318t-318 104t-318 -104t-104 -318t104 -318t318 -104z" />
    <glyph glyph-name="ohorngrave" unicode="&#x1edd;" horiz-adv-x="1771" 
d="M1055 1495l-463 279l35 55l463 -279zM1669 1434v-277q0 -131 -72 -203q-26 -26 -59 -43q18 -92 18 -194q0 -165 -45 -293q-52 -141 -145 -234q-94 -94 -233 -145q-137 -45 -293 -45t-293 45q-141 52 -234 145t-145 234q-45 137 -45 293t45 293q51 139 145 233
q95 95 234 146q128 45 293 45t293 -45q137 -50 233 -146q94 -94 145 -233l11 -33q15 9 28 22q54 57 54 158v277h65zM1491 717q0 87 -16 172q-33 -8 -82 -8h-33v65h33q37 0 67 6l-10 35q-47 128 -131 209q-81 84 -209 131q-118 41 -270 41q-153 0 -271 -41
q-128 -47 -209 -131q-83 -80 -131 -207q-41 -131 -41 -272q0 -142 41 -273q47 -125 131 -206q82 -85 207 -132q127 -40 273 -40q145 0 272 40q125 47 207 132q84 81 131 208q41 118 41 271zM1204 1081q65 -68 94 -157q29 -95 29 -207t-29 -207q-30 -91 -94 -158
q-68 -65 -157 -94q-95 -29 -207 -29t-207 29q-91 30 -158 94q-64 67 -94 158q-29 95 -29 207t29 207q29 89 94 157q69 66 158 95q92 28 207 28t207 -28q87 -29 157 -95zM840 295q214 0 318 104t104 318t-104 318t-318 104t-318 -104t-104 -318t104 -318t318 -104z" />
    <glyph glyph-name="Ohornhookabove" unicode="&#x1ede;" horiz-adv-x="1771" 
d="M938 1690q0 -91 -51.5 -143t-143.5 -52v66q129 0 129 129q0 131 -129 131v65q92 0 143.5 -52t51.5 -144zM1669 1434v-277q0 -131 -72 -203q-26 -26 -59 -43q18 -92 18 -194q0 -165 -45 -293q-52 -141 -145 -234q-94 -94 -233 -145q-137 -45 -293 -45t-293 45
q-141 52 -234 145t-145 234q-45 137 -45 293t45 293q51 139 145 233q95 95 234 146q128 45 293 45t293 -45q137 -50 233 -146q94 -94 145 -233l11 -33q15 9 28 22q54 57 54 158v277h65zM840 295q214 0 318 104t104 318t-104 318t-318 104t-318 -104t-104 -318t104 -318
t318 -104z" />
    <glyph glyph-name="ohornhookabove" unicode="&#x1edf;" horiz-adv-x="1771" 
d="M938 1690q0 -91 -51.5 -143t-143.5 -52v66q129 0 129 129q0 131 -129 131v65q92 0 143.5 -52t51.5 -144zM1669 1434v-277q0 -131 -72 -203q-26 -26 -59 -43q18 -92 18 -194q0 -165 -45 -293q-52 -141 -145 -234q-94 -94 -233 -145q-137 -45 -293 -45t-293 45
q-141 52 -234 145t-145 234q-45 137 -45 293t45 293q51 139 145 233q95 95 234 146q128 45 293 45t293 -45q137 -50 233 -146q94 -94 145 -233l11 -33q15 9 28 22q54 57 54 158v277h65zM1491 717q0 87 -16 172q-33 -8 -82 -8h-33v65h33q37 0 67 6l-10 35q-47 128 -131 209
q-81 84 -209 131q-118 41 -270 41q-153 0 -271 -41q-128 -47 -209 -131q-83 -80 -131 -207q-41 -131 -41 -272q0 -142 41 -273q47 -125 131 -206q82 -85 207 -132q127 -40 273 -40q145 0 272 40q125 47 207 132q84 81 131 208q41 118 41 271zM1204 1081q65 -68 94 -157
q29 -95 29 -207t-29 -207q-30 -91 -94 -158q-68 -65 -157 -94q-95 -29 -207 -29t-207 29q-91 30 -158 94q-64 67 -94 158q-29 95 -29 207t29 207q29 89 94 157q69 66 158 95q92 28 207 28t207 -28q87 -29 157 -95zM840 295q214 0 318 104t104 318t-104 318t-318 104
t-318 -104t-104 -318t104 -318t318 -104z" />
    <glyph glyph-name="Ohorntilde" unicode="&#x1ee0;" horiz-adv-x="1771" 
d="M588 1556h-66v33q0 67 39 115q37 43 96 55q59 13 119.5 -16t93.5 -101q23 -51 61.5 -68.5t78.5 -10.5q34 7 58 33.5t24 72.5v33h65v-33q0 -67 -39 -115q-37 -43 -96 -55q-61 -12 -120 14.5t-93 102.5q-23 51 -62 70t-77 10q-33 -7 -57.5 -34t-24.5 -73v-33zM1669 1434
v-277q0 -131 -72 -203q-26 -26 -59 -43q18 -92 18 -194q0 -165 -45 -293q-52 -141 -145 -234q-94 -94 -233 -145q-137 -45 -293 -45t-293 45q-141 52 -234 145t-145 234q-45 137 -45 293t45 293q51 139 145 233q95 95 234 146q128 45 293 45t293 -45q137 -50 233 -146
q94 -94 145 -233l11 -33q15 9 28 22q54 57 54 158v277h65zM840 295q214 0 318 104t104 318t-104 318t-318 104t-318 -104t-104 -318t104 -318t318 -104z" />
    <glyph glyph-name="ohorntilde" unicode="&#x1ee1;" horiz-adv-x="1771" 
d="M588 1556h-66v33q0 67 39 115q37 43 96 55q59 13 119.5 -16t93.5 -101q23 -51 61.5 -68.5t78.5 -10.5q34 7 58 33.5t24 72.5v33h65v-33q0 -67 -39 -115q-37 -43 -96 -55q-61 -12 -120 14.5t-93 102.5q-23 51 -62 70t-77 10q-33 -7 -57.5 -34t-24.5 -73v-33zM1669 1434
v-277q0 -131 -72 -203q-26 -26 -59 -43q18 -92 18 -194q0 -165 -45 -293q-52 -141 -145 -234q-94 -94 -233 -145q-137 -45 -293 -45t-293 45q-141 52 -234 145t-145 234q-45 137 -45 293t45 293q51 139 145 233q95 95 234 146q128 45 293 45t293 -45q137 -50 233 -146
q94 -94 145 -233l11 -33q15 9 28 22q54 57 54 158v277h65zM1491 717q0 87 -16 172q-33 -8 -82 -8h-33v65h33q37 0 67 6l-10 35q-47 128 -131 209q-81 84 -209 131q-118 41 -270 41q-153 0 -271 -41q-128 -47 -209 -131q-83 -80 -131 -207q-41 -131 -41 -272q0 -142 41 -273
q47 -125 131 -206q82 -85 207 -132q127 -40 273 -40q145 0 272 40q125 47 207 132q84 81 131 208q41 118 41 271zM1204 1081q65 -68 94 -157q29 -95 29 -207t-29 -207q-30 -91 -94 -158q-68 -65 -157 -94q-95 -29 -207 -29t-207 29q-91 30 -158 94q-64 67 -94 158
q-29 95 -29 207t29 207q29 89 94 157q69 66 158 95q92 28 207 28t207 -28q87 -29 157 -95zM840 295q214 0 318 104t104 318t-104 318t-318 104t-318 -104t-104 -318t104 -318t318 -104z" />
    <glyph glyph-name="Ohorndotbelow" unicode="&#x1ee2;" horiz-adv-x="1771" 
d="M1669 1434v-277q0 -131 -72 -203q-26 -26 -59 -43q18 -92 18 -194q0 -165 -45 -293q-52 -141 -145 -234q-94 -94 -233 -145q-137 -45 -293 -45t-293 45q-141 52 -234 145t-145 234q-45 137 -45 293t45 293q51 139 145 233q95 95 234 146q128 45 293 45t293 -45
q137 -50 233 -146q94 -94 145 -233l11 -33q15 9 28 22q54 57 54 158v277h65zM840 295q214 0 318 104t104 318t-104 318t-318 104t-318 -104t-104 -318t104 -318t318 -104zM840 -61q21 0 35 -14.5t14 -35.5t-14 -35t-35 -14q-20 0 -34.5 14.5t-14.5 34.5t14.5 35t34.5 15z
" />
    <glyph glyph-name="ohorndotbelow" unicode="&#x1ee3;" horiz-adv-x="1771" 
d="M1669 1434v-277q0 -131 -72 -203q-26 -26 -59 -43q18 -92 18 -194q0 -165 -45 -293q-52 -141 -145 -234q-94 -94 -233 -145q-137 -45 -293 -45t-293 45q-141 52 -234 145t-145 234q-45 137 -45 293t45 293q51 139 145 233q95 95 234 146q128 45 293 45t293 -45
q137 -50 233 -146q94 -94 145 -233l11 -33q15 9 28 22q54 57 54 158v277h65zM1491 717q0 87 -16 172q-33 -8 -82 -8h-33v65h33q37 0 67 6l-10 35q-47 128 -131 209q-81 84 -209 131q-118 41 -270 41q-153 0 -271 -41q-128 -47 -209 -131q-83 -80 -131 -207
q-41 -131 -41 -272q0 -142 41 -273q47 -125 131 -206q82 -85 207 -132q127 -40 273 -40q145 0 272 40q125 47 207 132q84 81 131 208q41 118 41 271zM1204 1081q65 -68 94 -157q29 -95 29 -207t-29 -207q-30 -91 -94 -158q-68 -65 -157 -94q-95 -29 -207 -29t-207 29
q-91 30 -158 94q-64 67 -94 158q-29 95 -29 207t29 207q29 89 94 157q69 66 158 95q92 28 207 28t207 -28q87 -29 157 -95zM840 295q214 0 318 104t104 318t-104 318t-318 104t-318 -104t-104 -318t104 -318t318 -104zM840 -61q21 0 35 -14.5t14 -35.5t-14 -35t-35 -14
q-20 0 -34.5 14.5t-14.5 34.5t14.5 35t34.5 15z" />
    <glyph glyph-name="Udotbelow" unicode="&#x1ee4;" horiz-adv-x="1515" 
d="M1393 1434v-799q0 -146 -39 -256q-42 -119 -129 -209q-84 -84 -209 -129q-118 -41 -258 -41t-258 41q-122 44 -207 129t-129 209q-41 107 -41 256v799h295v-799q0 -174 82 -256q84 -84 258 -84t258 84q82 82 82 256v799h295zM758 -61q21 0 35 -14.5t14 -35.5t-14 -35
t-35 -14q-20 0 -34.5 14.5t-14.5 34.5t14.5 35t34.5 15z" />
    <glyph glyph-name="udotbelow" unicode="&#x1ee5;" horiz-adv-x="1515" 
d="M1393 1434v-799q0 -146 -39 -256q-42 -119 -129 -209q-84 -84 -209 -129q-118 -41 -258 -41t-258 41q-122 44 -207 129t-129 209q-41 107 -41 256v799h295v-799q0 -174 82 -256q84 -84 258 -84t258 84q82 82 82 256v799h295zM1163 1368v-733q0 -93 -22 -170
q-28 -83 -78 -133q-54 -54 -133 -78q-80 -25 -172 -25t-172 25q-79 24 -133 78q-50 50 -78 133q-23 81 -23 170v733h-164v-733q0 -136 37 -234q41 -113 115 -184q70 -73 182 -115q104 -36 236 -36q131 0 235 36q108 40 185 113q77 83 114 186q35 100 35 234v733h-164z
M758 -61q21 0 35 -14.5t14 -35.5t-14 -35t-35 -14q-20 0 -34.5 14.5t-14.5 34.5t14.5 35t34.5 15z" />
    <glyph glyph-name="Uhookabove" unicode="&#x1ee6;" horiz-adv-x="1515" 
d="M662 1821v65q92 0 143 -52t51 -144q0 -91 -51 -143t-143 -52v66q129 0 129 129q0 131 -129 131zM1393 1434v-799q0 -146 -39 -256q-42 -119 -129 -209q-84 -84 -209 -129q-118 -41 -258 -41t-258 41q-122 44 -207 129t-129 209q-41 107 -41 256v799h295v-799
q0 -174 82 -256q84 -84 258 -84t258 84q82 82 82 256v799h295z" />
    <glyph glyph-name="uhookabove" unicode="&#x1ee7;" horiz-adv-x="1515" 
d="M662 1821v65q92 0 143 -52t51 -144q0 -91 -51 -143t-143 -52v66q129 0 129 129q0 131 -129 131zM1393 1434v-799q0 -146 -39 -256q-42 -119 -129 -209q-84 -84 -209 -129q-118 -41 -258 -41t-258 41q-122 44 -207 129t-129 209q-41 107 -41 256v799h295v-799
q0 -174 82 -256q84 -84 258 -84t258 84q82 82 82 256v799h295zM1163 1368v-733q0 -93 -22 -170q-28 -83 -78 -133q-54 -54 -133 -78q-80 -25 -172 -25t-172 25q-79 24 -133 78q-50 50 -78 133q-23 81 -23 170v733h-164v-733q0 -136 37 -234q41 -113 115 -184
q70 -73 182 -115q104 -36 236 -36q131 0 235 36q108 40 185 113q77 83 114 186q35 100 35 234v733h-164z" />
    <glyph glyph-name="Uhornacute" unicode="&#x1ee8;" horiz-adv-x="1669" 
d="M545 1495l-35 55l463 279l35 -55zM1628 1434v-277q0 -131 -72 -203q-62 -62 -163 -71v-248q0 -146 -39 -256q-42 -119 -129 -209q-84 -84 -209 -129q-118 -41 -258 -41t-258 41q-122 44 -207 129t-129 209q-41 107 -41 256v799h295v-799q0 -174 82 -256q84 -84 258 -84
t258 84q82 82 82 256v799h295v-486q74 9 116 51q54 57 54 158v277h65z" />
    <glyph glyph-name="uhornacute" unicode="&#x1ee9;" horiz-adv-x="1669" 
d="M545 1495l-35 55l463 279l35 -55zM1628 1434v-277q0 -131 -72 -203q-62 -62 -163 -71v-248q0 -146 -39 -256q-42 -119 -129 -209q-84 -84 -209 -129q-118 -41 -258 -41t-258 41q-122 44 -207 129t-129 209q-41 107 -41 256v799h295v-799q0 -174 82 -256q84 -84 258 -84
t258 84q82 82 82 256v799h295v-486q74 9 116 51q54 57 54 158v277h65zM1292 401q35 100 35 234v246h-8v65h8v422h-164v-733q0 -93 -22 -170q-28 -83 -78 -133q-54 -54 -133 -78q-80 -25 -172 -25t-172 25q-79 24 -133 78q-50 50 -78 133q-23 81 -23 170v733h-164v-733
q0 -136 37 -234q41 -113 115 -184q70 -73 182 -115q104 -36 236 -36q131 0 235 36q108 40 185 113q77 83 114 186z" />
    <glyph glyph-name="Uhorngrave" unicode="&#x1eea;" horiz-adv-x="1669" 
d="M973 1495l-463 279l35 55l463 -279zM1628 1434v-277q0 -131 -72 -203q-62 -62 -163 -71v-248q0 -146 -39 -256q-42 -119 -129 -209q-84 -84 -209 -129q-118 -41 -258 -41t-258 41q-122 44 -207 129t-129 209q-41 107 -41 256v799h295v-799q0 -174 82 -256q84 -84 258 -84
t258 84q82 82 82 256v799h295v-486q74 9 116 51q54 57 54 158v277h65z" />
    <glyph glyph-name="uhorngrave" unicode="&#x1eeb;" horiz-adv-x="1669" 
d="M973 1495l-463 279l35 55l463 -279zM1628 1434v-277q0 -131 -72 -203q-62 -62 -163 -71v-248q0 -146 -39 -256q-42 -119 -129 -209q-84 -84 -209 -129q-118 -41 -258 -41t-258 41q-122 44 -207 129t-129 209q-41 107 -41 256v799h295v-799q0 -174 82 -256q84 -84 258 -84
t258 84q82 82 82 256v799h295v-486q74 9 116 51q54 57 54 158v277h65zM1292 401q35 100 35 234v246h-8v65h8v422h-164v-733q0 -93 -22 -170q-28 -83 -78 -133q-54 -54 -133 -78q-80 -25 -172 -25t-172 25q-79 24 -133 78q-50 50 -78 133q-23 81 -23 170v733h-164v-733
q0 -136 37 -234q41 -113 115 -184q70 -73 182 -115q104 -36 236 -36q131 0 235 36q108 40 185 113q77 83 114 186z" />
    <glyph glyph-name="Uhornhookabove" unicode="&#x1eec;" horiz-adv-x="1669" 
d="M856 1690q0 -91 -51 -143t-143 -52v66q129 0 129 129q0 131 -129 131v65q92 0 143 -52t51 -144zM1628 1434v-277q0 -131 -72 -203q-62 -62 -163 -71v-248q0 -146 -39 -256q-42 -119 -129 -209q-84 -84 -209 -129q-118 -41 -258 -41t-258 41q-122 44 -207 129t-129 209
q-41 107 -41 256v799h295v-799q0 -174 82 -256q84 -84 258 -84t258 84q82 82 82 256v799h295v-486q74 9 116 51q54 57 54 158v277h65z" />
    <glyph glyph-name="uhornhookabove" unicode="&#x1eed;" horiz-adv-x="1669" 
d="M856 1690q0 -91 -51 -143t-143 -52v66q129 0 129 129q0 131 -129 131v65q92 0 143 -52t51 -144zM1628 1434v-277q0 -131 -72 -203q-62 -62 -163 -71v-248q0 -146 -39 -256q-42 -119 -129 -209q-84 -84 -209 -129q-118 -41 -258 -41t-258 41q-122 44 -207 129t-129 209
q-41 107 -41 256v799h295v-799q0 -174 82 -256q84 -84 258 -84t258 84q82 82 82 256v799h295v-486q74 9 116 51q54 57 54 158v277h65zM1292 401q35 100 35 234v246h-8v65h8v422h-164v-733q0 -93 -22 -170q-28 -83 -78 -133q-54 -54 -133 -78q-80 -25 -172 -25t-172 25
q-79 24 -133 78q-50 50 -78 133q-23 81 -23 170v733h-164v-733q0 -136 37 -234q41 -113 115 -184q70 -73 182 -115q104 -36 236 -36q131 0 235 36q108 40 185 113q77 83 114 186z" />
    <glyph glyph-name="Uhorntilde" unicode="&#x1eee;" horiz-adv-x="1669" 
d="M506 1556h-66v33q0 67 39 115q37 43 96 55q59 13 119.5 -16t93.5 -101q23 -51 61.5 -68.5t78.5 -10.5q34 7 58 33.5t24 72.5v33h65v-33q0 -67 -39 -115q-37 -43 -96 -55q-61 -12 -120 14.5t-93 102.5q-23 51 -62 70t-77 10q-33 -7 -57.5 -34t-24.5 -73v-33zM1628 1434
v-277q0 -131 -72 -203q-62 -62 -163 -71v-248q0 -146 -39 -256q-42 -119 -129 -209q-84 -84 -209 -129q-118 -41 -258 -41t-258 41q-122 44 -207 129t-129 209q-41 107 -41 256v799h295v-799q0 -174 82 -256q84 -84 258 -84t258 84q82 82 82 256v799h295v-486q74 9 116 51
q54 57 54 158v277h65z" />
    <glyph glyph-name="uhorntilde" unicode="&#x1eef;" horiz-adv-x="1669" 
d="M506 1556h-66v33q0 67 39 115q37 43 96 55q59 13 119.5 -16t93.5 -101q23 -51 61.5 -68.5t78.5 -10.5q34 7 58 33.5t24 72.5v33h65v-33q0 -67 -39 -115q-37 -43 -96 -55q-61 -12 -120 14.5t-93 102.5q-23 51 -62 70t-77 10q-33 -7 -57.5 -34t-24.5 -73v-33zM1628 1434
v-277q0 -131 -72 -203q-62 -62 -163 -71v-248q0 -146 -39 -256q-42 -119 -129 -209q-84 -84 -209 -129q-118 -41 -258 -41t-258 41q-122 44 -207 129t-129 209q-41 107 -41 256v799h295v-799q0 -174 82 -256q84 -84 258 -84t258 84q82 82 82 256v799h295v-486q74 9 116 51
q54 57 54 158v277h65zM1292 401q35 100 35 234v246h-8v65h8v422h-164v-733q0 -93 -22 -170q-28 -83 -78 -133q-54 -54 -133 -78q-80 -25 -172 -25t-172 25q-79 24 -133 78q-50 50 -78 133q-23 81 -23 170v733h-164v-733q0 -136 37 -234q41 -113 115 -184q70 -73 182 -115
q104 -36 236 -36q131 0 235 36q108 40 185 113q77 83 114 186z" />
    <glyph glyph-name="Uhorndotbelow" unicode="&#x1ef0;" horiz-adv-x="1669" 
d="M1628 1434v-277q0 -131 -72 -203q-62 -62 -163 -71v-248q0 -146 -39 -256q-42 -119 -129 -209q-84 -84 -209 -129q-118 -41 -258 -41t-258 41q-122 44 -207 129t-129 209q-41 107 -41 256v799h295v-799q0 -174 82 -256q84 -84 258 -84t258 84q82 82 82 256v799h295v-486
q74 9 116 51q54 57 54 158v277h65zM758 -61q21 0 35 -14.5t14 -35.5t-14 -35t-35 -14q-20 0 -34.5 14.5t-14.5 34.5t14.5 35t34.5 15z" />
    <glyph glyph-name="uhorndotbelow" unicode="&#x1ef1;" horiz-adv-x="1669" 
d="M1628 1434v-277q0 -131 -72 -203q-62 -62 -163 -71v-248q0 -146 -39 -256q-42 -119 -129 -209q-84 -84 -209 -129q-118 -41 -258 -41t-258 41q-122 44 -207 129t-129 209q-41 107 -41 256v799h295v-799q0 -174 82 -256q84 -84 258 -84t258 84q82 82 82 256v799h295v-486
q74 9 116 51q54 57 54 158v277h65zM1292 401q35 100 35 234v246h-8v65h8v422h-164v-733q0 -93 -22 -170q-28 -83 -78 -133q-54 -54 -133 -78q-80 -25 -172 -25t-172 25q-79 24 -133 78q-50 50 -78 133q-23 81 -23 170v733h-164v-733q0 -136 37 -234q41 -113 115 -184
q70 -73 182 -115q104 -36 236 -36q131 0 235 36q108 40 185 113q77 83 114 186zM758 -61q21 0 35 -14.5t14 -35.5t-14 -35t-35 -14q-20 0 -34.5 14.5t-14.5 34.5t14.5 35t34.5 15z" />
    <glyph glyph-name="Ygrave" unicode="&#x1ef2;" horiz-adv-x="1638" 
d="M1069 1550l-35 -55l-463 279l35 55zM967 434v-434h-295v434l-549 1000h336l360 -656l361 656h336z" />
    <glyph glyph-name="ygrave" unicode="&#x1ef3;" horiz-adv-x="1638" 
d="M1069 1550l-35 -55l-463 279l35 55zM967 434v-434h-295v434l-549 1000h336l360 -656l361 656h336zM1219 1368l-400 -725l-399 725h-187l504 -917v-385h164v385l504 917h-186z" />
    <glyph glyph-name="Ydotbelow" unicode="&#x1ef4;" horiz-adv-x="1638" 
d="M967 434v-434h-295v434l-549 1000h336l360 -656l361 656h336zM819 -61q21 0 35 -14.5t14 -35.5t-14 -35t-35 -14q-20 0 -34.5 14.5t-14.5 34.5t14.5 35t34.5 15z" />
    <glyph glyph-name="ydotbelow" unicode="&#x1ef5;" horiz-adv-x="1638" 
d="M967 434v-434h-295v434l-549 1000h336l360 -656l361 656h336zM1219 1368l-400 -725l-399 725h-187l504 -917v-385h164v385l504 917h-186zM819 -61q21 0 35 -14.5t14 -35.5t-14 -35t-35 -14q-20 0 -34.5 14.5t-14.5 34.5t14.5 35t34.5 15z" />
    <glyph glyph-name="Yhookabove" unicode="&#x1ef6;" horiz-adv-x="1638" 
d="M723 1821v65q92 0 143.5 -52t51.5 -144q0 -91 -51.5 -143t-143.5 -52v66q129 0 129 129q0 131 -129 131zM967 434v-434h-295v434l-549 1000h336l360 -656l361 656h336z" />
    <glyph glyph-name="yhookabove" unicode="&#x1ef7;" horiz-adv-x="1638" 
d="M723 1821v65q92 0 143.5 -52t51.5 -144q0 -91 -51.5 -143t-143.5 -52v66q129 0 129 129q0 131 -129 131zM967 434v-434h-295v434l-549 1000h336l360 -656l361 656h336zM1219 1368l-400 -725l-399 725h-187l504 -917v-385h164v385l504 917h-186z" />
    <glyph glyph-name="Ytilde" unicode="&#x1ef8;" horiz-adv-x="1638" 
d="M637 1759q59 13 119.5 -16t93.5 -101q23 -51 61 -68.5t78 -10.5q34 7 58 33.5t24 72.5v33h66v-33q0 -67 -39 -115q-37 -43 -97 -55q-61 -12 -120 14.5t-93 102.5q-23 51 -62 70t-77 10q-33 -7 -57.5 -34t-24.5 -73v-33h-65v33q0 67 39 115q37 43 96 55zM967 434v-434
h-295v434l-549 1000h336l360 -656l361 656h336z" />
    <glyph glyph-name="ytilde" unicode="&#x1ef9;" horiz-adv-x="1638" 
d="M637 1759q59 13 119.5 -16t93.5 -101q23 -51 61 -68.5t78 -10.5q34 7 58 33.5t24 72.5v33h66v-33q0 -67 -39 -115q-37 -43 -97 -55q-61 -12 -120 14.5t-93 102.5q-23 51 -62 70t-77 10q-33 -7 -57.5 -34t-24.5 -73v-33h-65v33q0 67 39 115q37 43 96 55zM967 434v-434
h-295v434l-549 1000h336l360 -656l361 656h336zM1219 1368l-400 -725l-399 725h-187l504 -917v-385h164v385l504 917h-186z" />
    <glyph glyph-name="endash" unicode="&#x2013;" horiz-adv-x="1353" 
d="M1231 569h-1108v295h1108v-295z" />
    <glyph glyph-name="emdash" unicode="&#x2014;" horiz-adv-x="1597" 
d="M1475 569h-1352v295h1352v-295z" />
    <glyph glyph-name="quoteleft" unicode="&#x2018;" horiz-adv-x="733" 
d="M610 1526l-114 -92q-78 -60 -78 -209v-148h-295v148q0 291 188 440l117 92z" />
    <glyph glyph-name="quoteright" unicode="&#x2019;" horiz-adv-x="733" 
d="M123 985l115 92q77 59 77 209v148h295v-148q0 -291 -188 -440l-117 -92z" />
    <glyph glyph-name="quotesinglbase" unicode="&#x201a;" horiz-adv-x="610" 
d="M487 295v-148q0 -291 -188 -440l-117 -92l-182 231l115 93q78 60 78 208v148h294z" />
    <glyph glyph-name="quotedblleft" unicode="&#x201c;" horiz-adv-x="1191" 
d="M610 1526l-114 -92q-78 -60 -78 -209v-148h-295v148q0 291 188 440l117 92zM1069 1526l-115 -92q-77 -59 -77 -209v-148h-295v148q0 291 188 440l117 92z" />
    <glyph glyph-name="quotedblright" unicode="&#x201d;" horiz-adv-x="1191" 
d="M123 985l115 92q77 59 77 209v148h295v-148q0 -291 -188 -440l-117 -92zM582 985l114 92q78 60 78 209v148h295v-148q0 -291 -188 -440l-117 -92z" />
    <glyph glyph-name="quotedblbase" unicode="&#x201e;" horiz-adv-x="1069" 
d="M0 -154l115 93q78 60 78 208v148h294v-148q0 -291 -188 -440l-117 -92zM459 -154l114 93q78 60 78 208v148h295v-148q0 -291 -188 -440l-117 -92z" />
    <glyph glyph-name="dagger" unicode="&#x2020;" horiz-adv-x="1353" 
d="M825 1190h406v-295h-406v-1139h-295v1139h-407v295h407v487h295v-487z" />
    <glyph glyph-name="daggerdbl" unicode="&#x2021;" horiz-adv-x="1353" 
d="M825 1190h406v-295h-406v-356h406v-295h-406v-488h-295v488h-407v295h407v356h-407v295h407v487h295v-487z" />
    <glyph glyph-name="bullet" unicode="&#x2022;" horiz-adv-x="835" 
d="M418 1012q123 0 209 -86.5t86 -208.5q0 -123 -86 -209t-209 -86q-122 0 -208.5 86t-86.5 209q0 121 86.5 208t208.5 87z" />
    <glyph glyph-name="ellipsis" unicode="&#x2026;" horiz-adv-x="1376" 
d="M270 295q61 0 104.5 -44t43.5 -104q0 -61 -43 -104t-105 -43t-104.5 43t-42.5 104q0 60 43 104t104 44zM688 295q61 0 104.5 -44t43.5 -104q0 -61 -43 -104t-105 -43t-104.5 43t-42.5 104q0 60 43 104t104 44zM1106 295q61 0 104 -44t43 -104q0 -61 -42.5 -104
t-104.5 -43t-105 43t-43 104q0 60 43.5 104t104.5 44z" />
    <glyph glyph-name="perthousand" unicode="&#x2030;" horiz-adv-x="2725" 
d="M1573 1321l-983 -1378l-240 172l983 1378zM494 1434q169 0 269.5 -101t100.5 -270t-100.5 -270t-269.5 -101t-270 101t-101 270t101 270t270 101zM494 1139q-47 0 -62 -15q-14 -14 -14 -61q0 -45 14 -62q17 -14 62 -14q47 0 61 14t14 62q0 50 -14 61q-12 15 -61 15z
M1430 743q169 0 269.5 -100.5t100.5 -269.5t-101 -271t-269 -102q-169 0 -270 102t-101 271t101 269.5t270 100.5zM2232 743q169 0 270 -100.5t101 -269.5t-101 -271t-270 -102q-168 0 -269 102t-101 271t100.5 269.5t269.5 100.5zM1430 449q-47 0 -62 -15q-14 -14 -14 -61
q0 -51 14 -62q13 -16 62 -16q45 0 61 16q14 14 14 62q0 44 -14 61q-19 15 -61 15zM2232 449q-46 0 -61 -15q-14 -14 -14 -61q0 -51 14 -62q13 -16 61 -16q46 0 62 16q14 14 14 62q0 44 -14 61q-19 15 -62 15z" />
    <glyph glyph-name="guilsinglleft" unicode="&#x2039;" horiz-adv-x="1028" 
d="M905 1083l-364 -364l364 -367l-207 -209l-575 576l575 573z" />
    <glyph glyph-name="guilsinglright" unicode="&#x203a;" horiz-adv-x="1028" 
d="M905 719l-575 -576l-207 209l364 367l-364 364l207 209z" />
    <glyph glyph-name="fraction" unicode="&#x2044;" horiz-adv-x="1210" 
d="M1087 1352l-700 -1403l-264 131l700 1403z" />
    <glyph glyph-name="Euro" unicode="&#x20ac;" horiz-adv-x="1191" 
d="M1069 1139h-229q-312 0 -394 -226h623v-147h-649q-2 -16 -2 -49t2 -49h649v-148h-623q81 -225 394 -225h229v-295h-229q-156 0 -293 45q-141 52 -234 145t-145 234q-45 137 -45 293t45 293q51 139 145 233q95 95 234 146q128 45 293 45h229v-295z" />
    <glyph glyph-name="trademark" unicode="&#x2122;" horiz-adv-x="1572" 
d="M678 1286h-205v-407h-147v407h-203v148h555v-148zM1450 879h-147v245l-173 -245h-77l-172 245v-245h-148v555h113l246 -353l245 353h113v-555z" />
    <glyph glyph-name="oneeighth" unicode="&#x215b;" horiz-adv-x="1605" 
d="M1122 1352l-700 -1403l-264 131l700 1403zM270 717h-147v717h147v-717zM1204 717q122 0 195 -49q84 -62 84 -166q0 -86 -58 -144q58 -58 58 -141q0 -107 -84 -166q-71 -51 -195 -51t-192 51q-84 59 -84 166q0 83 55 141q-55 58 -55 144q0 104 84 166q70 49 192 49z
M1204 569q-72 0 -108 -22q-21 -17 -21 -45q0 -32 21 -45q36 -25 108 -25q78 0 109 25q22 13 22 45q0 27 -22 45q-31 22 -109 22zM1204 285q-70 0 -108 -23q-21 -17 -21 -45q0 -32 21 -45q36 -25 108 -25q78 0 109 25q22 13 22 45q0 27 -22 45q-33 23 -109 23z" />
    <glyph glyph-name="threeeighths" unicode="&#x215c;" horiz-adv-x="1925" 
d="M1442 1352l-701 -1403l-264 131l701 1403zM399 1434q123 0 197 -58q82 -67 82 -178q0 -71 -43 -123q43 -52 43 -123q0 -111 -82 -178q-72 -57 -197 -57q-121 0 -196 57q-80 67 -80 178h147q0 -41 25 -61q34 -27 104 -27q75 0 105 27q26 17 26 61q0 22 -14 33
q-21 16 -76 16h-123v148h123q55 0 76 16q14 11 14 33q0 45 -26 62q-29 26 -105 26q-71 0 -104 -26q-25 -20 -25 -62h-147q0 111 80 178q77 58 196 58zM1524 717q121 0 194 -49q84 -62 84 -166q0 -87 -57 -144q57 -57 57 -141q0 -107 -84 -166q-71 -51 -194 -51
q-125 0 -193 51q-84 59 -84 166q0 82 56 141q-56 59 -56 144q0 104 84 166q70 49 193 49zM1524 569q-73 0 -109 -22q-20 -16 -20 -45q0 -33 20 -45q36 -25 109 -25q77 0 108 25q23 14 23 45q0 27 -23 45q-31 22 -108 22zM1524 285q-71 0 -109 -23q-20 -16 -20 -45
q0 -33 20 -45q36 -25 109 -25q77 0 108 25q23 14 23 45q0 27 -23 45q-33 23 -108 23z" />
    <glyph glyph-name="fiveeighths" unicode="&#x215d;" horiz-adv-x="1925" 
d="M1442 1352l-701 -1403l-264 131l701 1403zM678 1286h-408v-96h129q125 0 197 -60q82 -63 82 -178q0 -111 -82 -178q-72 -57 -197 -57q-121 0 -196 57q-80 67 -80 178h147q0 -41 25 -61q34 -27 104 -27q75 0 105 27q26 17 26 61q0 47 -26 64q-32 26 -105 26h-276v392h555
v-148zM1524 717q121 0 194 -49q84 -62 84 -166q0 -87 -57 -144q57 -57 57 -141q0 -107 -84 -166q-71 -51 -194 -51q-125 0 -193 51q-84 59 -84 166q0 82 56 141q-56 59 -56 144q0 104 84 166q70 49 193 49zM1524 569q-73 0 -109 -22q-20 -16 -20 -45q0 -33 20 -45
q36 -25 109 -25q77 0 108 25q23 14 23 45q0 27 -23 45q-31 22 -108 22zM1524 285q-71 0 -109 -23q-20 -16 -20 -45q0 -33 20 -45q36 -25 109 -25q77 0 108 25q23 14 23 45q0 27 -23 45q-33 23 -108 23z" />
    <glyph glyph-name="seveneighths" unicode="&#x215e;" horiz-adv-x="1701" 
d="M1219 1352l-701 -1403l-264 131l700 1403zM367 717h-160l244 569h-328v148h551zM1300 717q122 0 195 -49q84 -62 84 -166q0 -87 -57 -144q57 -57 57 -141q0 -107 -84 -166q-71 -51 -195 -51t-192 51q-84 59 -84 166q0 83 55 141q-55 58 -55 144q0 104 84 166
q70 49 192 49zM1300 569q-72 0 -108 -22q-21 -17 -21 -45q0 -32 21 -45q36 -25 108 -25q78 0 109 25q23 14 23 45q0 27 -23 45q-31 22 -109 22zM1300 285q-70 0 -108 -23q-21 -17 -21 -45q0 -32 21 -45q36 -25 108 -25q78 0 109 25q23 14 23 45q0 27 -23 45q-33 23 -109 23z
" />
    <glyph glyph-name="arrowleft" unicode="&#x2190;" horiz-adv-x="1716" 
d="M758 1073l-156 -209h991v-295h-991l156 -207l-236 -176l-399 531l399 532z" />
    <glyph glyph-name="arrowup" unicode="&#x2191;" horiz-adv-x="1308" 
d="M1186 1071l-176 -235l-207 155v-991h-295v991l-209 -155l-176 235l532 399z" />
    <glyph glyph-name="arrowright" unicode="&#x2192;" horiz-adv-x="1716" 
d="M1593 717l-399 -531l-236 176l156 207h-991v295h991l-156 209l236 176z" />
    <glyph glyph-name="arrowdown" unicode="&#x2193;" horiz-adv-x="1308" 
d="M123 362l176 236l209 -156v992h295v-992l207 156l176 -236l-531 -399z" />
    <glyph glyph-name="uni2194" unicode="&#x2194;" horiz-adv-x="1753" 
d="M1630 717l-399 -531l-236 176l156 207h-549l156 -207l-236 -176l-399 531l399 532l236 -176l-156 -209h549l-156 209l236 176z" />
    <glyph glyph-name="arrowupdn" unicode="&#x2195;" horiz-adv-x="1308" 
d="M1186 1071l-176 -235l-207 155v-549l207 156l176 -236l-531 -399l-532 399l176 236l209 -156v549l-209 -155l-176 235l532 399z" />
    <glyph glyph-name="uni2196" unicode="&#x2196;" horiz-adv-x="1484" 
d="M918 1044l-256 -36l700 -701l-209 -209l-700 701l-37 -256l-293 41l94 659l660 94z" />
    <glyph glyph-name="uni2197" unicode="&#x2197;" horiz-adv-x="1484" 
d="M1268 1243l94 -659l-293 -41l-37 256l-700 -701l-209 209l700 701l-256 36l41 293z" />
    <glyph glyph-name="uni2198" unicode="&#x2198;" horiz-adv-x="1484" 
d="M567 391l256 37l-700 700l209 209l700 -700l37 256l293 -41l-94 -659l-660 -95z" />
    <glyph glyph-name="uni2199" unicode="&#x2199;" horiz-adv-x="1484" 
d="M217 193l-94 659l293 41l37 -256l700 700l209 -209l-700 -700l256 -37l-41 -293z" />
    <glyph glyph-name="partialdiff" unicode="&#x2202;" horiz-adv-x="1271" 
d="M336 1479l135 -56q303 -125 487 -374q191 -260 191 -576q0 -103 -43 -190q-41 -87 -113 -150q-148 -133 -356 -133q-211 0 -356 133q-75 66 -115 150q-43 87 -43 190q0 101 43 191q41 84 115 149q145 133 356 133q17 0 25 -2q-125 134 -302 205l-137 57zM637 651
q-97 0 -162 -59q-57 -51 -57 -119q0 -67 57 -121q66 -57 162 -57q97 0 160 57q57 54 57 121q0 68 -57 119q-62 59 -160 59z" />
    <glyph glyph-name="emptyset" unicode="&#x2205;" 
d="M717 1313q118 0 225 -43q114 -48 197 -131t131 -197q43 -107 43 -225q0 -116 -43 -223q-48 -114 -131 -197t-197 -131q-107 -43 -225 -43q-116 0 -223 43q-114 48 -197 131t-131 197q-43 107 -43 223q0 118 43 225q48 114 131 197t197 131q107 43 223 43zM461 563
l409 412q-80 54 -184 42.5t-180 -87.5t-87 -181t42 -186zM975 870l-410 -409q86 -53 189 -40.5t176 85.5t85.5 175.5t-40.5 188.5z" />
    <glyph glyph-name="product" unicode="&#x220f;" 
d="M1313 -244h-295v1626h-600v-1626h-295v1921h1190v-1921z" />
    <glyph glyph-name="summation" unicode="&#x2211;" horiz-adv-x="1466" 
d="M1343 1382h-700l399 -665l-399 -666h700v-295h-1220l577 961l-577 960h1220v-295z" />
    <glyph glyph-name="minus" unicode="&#x2212;" horiz-adv-x="1191" 
d="M1069 569h-946v295h946v-295z" />
    <glyph glyph-name="radical" unicode="&#x221a;" horiz-adv-x="1695" 
d="M1573 1688l-821 -2053l-629 1133l258 143l328 -589l589 1474z" />
    <glyph glyph-name="infinity" unicode="&#x221e;" horiz-adv-x="1679" 
d="M1233 1124q141 -22 231 -129q92 -115 92 -278q0 -165 -92 -277q-86 -105 -231 -131q-87 -7 -163 7t-155 65q-32 21 -75 61q-31 -31 -76 -61q-80 -52 -154 -66t-161 -6q-145 25 -234 131q-92 112 -92 277q0 163 92 278q93 108 234 129q166 25 315 -71q42 -28 76 -62
q47 44 75 62q149 96 318 71zM1186 834q-55 6 -109 -29q-46 -26 -78 -88q29 -57 78 -88q55 -36 109 -27q30 3 51 27q25 28 25 88t-25 88q-20 24 -51 29zM512 834h-18q-32 -6 -52 -29q-24 -27 -24 -88t24 -88q21 -24 52 -27q53 -9 108 27q49 31 78 88q-32 62 -78 88
q-47 29 -90 29z" />
    <glyph glyph-name="integral" unicode="&#x222b;" horiz-adv-x="948" 
d="M825 1382h-147q-39 0 -47 -8q-10 -10 -10 -47v-1221q0 -160 -97 -253q-93 -97 -254 -97h-147v295h147q37 0 47 10q9 9 9 45v1221q0 156 96 256q94 94 256 94h147v-295z" />
    <glyph glyph-name="approxequal" unicode="&#x2248;" 
d="M395 1305q136 29 252 -23q135 -57 203 -190q13 -26 32.5 -41.5t40 -18t31 -2.5t19.5 2q25 7 35 21q10 15 10 28v148h295v-148q0 -132 -84 -225q-74 -83 -189 -111q-143 -28 -252 23q-134 56 -202 190q-13 26 -32.5 41.5t-40 18t-31 2.5t-19.5 -2q-20 -6 -35 -21
q-10 -10 -10 -28v-148h-295v148q0 132 84 225q78 84 188 111zM395 690q137 29 252 -22q134 -56 203 -191q13 -26 32.5 -41t40 -17.5t31 -2.5t19.5 2q25 7 35 20q10 15 10 29v147h295v-147q0 -132 -84 -225q-74 -83 -189 -111q-143 -28 -252 23q-134 56 -202 190
q-13 26 -32.5 41t-40 17.5t-31 2.5t-19.5 -2q-21 -6 -35 -20q-10 -10 -10 -29v-147h-295v147q0 133 84 226q77 83 188 110z" />
    <glyph glyph-name="notequal" unicode="&#x2260;" horiz-adv-x="1191" 
d="M903 1245l-65 -155h231v-295h-360l-66 -154h426v-295h-553l-94 -213l-135 60l67 153h-231v295h360l66 154h-426v295h553l92 213z" />
    <glyph glyph-name="lessequal" unicode="&#x2264;" horiz-adv-x="1200" 
d="M1077 1374l-520 -479l520 -479l-200 -217l-754 696l754 696zM1077 137v-295h-954v295h954z" />
    <glyph glyph-name="greaterequal" unicode="&#x2265;" horiz-adv-x="1200" 
d="M1077 895l-753 -696l-201 217l520 479l-520 479l201 217zM1077 -158h-954v295h954v-295z" />
    <glyph glyph-name="lozenge" unicode="&#x25ca;" horiz-adv-x="1515" 
d="M1393 717l-635 -809l-635 809l635 807zM498 717l260 -332l260 332l-260 330z" />
    <glyph glyph-name="i.loclTRK" horiz-adv-x="540" 
d="M270 1593q21 0 35 -14t14 -35t-14 -35t-35 -14q-20 0 -34.5 14.5t-14.5 34.5t14.5 34.5t34.5 14.5zM418 0h-295v1434h295v-1434zM188 1368v-1302h164v1302h-164z" />
    <glyph glyph-name="zero.dnom" horiz-adv-x="800" 
d="M401 717q126 0 203 -74q74 -77 74 -203v-164q0 -125 -74 -202q-77 -74 -203 -74q-128 0 -202 74q-76 76 -76 202v164q0 127 76 203q74 74 202 74zM401 569q-68 0 -99.5 -31t-31.5 -98v-164q0 -66 32 -97.5t99 -31.5t98 31.5t31 97.5v164q0 68 -31 98.5t-98 30.5z" />
    <glyph glyph-name="one.dnom" horiz-adv-x="393" 
d="M270 0h-147v717h147v-717z" />
    <glyph glyph-name="two.dnom" horiz-adv-x="800" 
d="M399 717q123 0 197 -58q82 -67 82 -178q0 -115 -82 -178q-71 -59 -197 -59q-58 0 -88.5 -23.5t-38.5 -73.5h406v-147h-555l2 147q9 104 72 170q74 74 202 74q71 0 105 27q26 17 26 63q0 45 -26 62q-29 26 -105 26q-71 0 -104 -26q-25 -20 -25 -62h-147q0 111 80 178
q77 58 196 58z" />
    <glyph glyph-name="three.dnom" horiz-adv-x="800" 
d="M399 717q123 0 197 -58q82 -67 82 -178q0 -71 -43 -123q43 -52 43 -122q0 -112 -82 -179q-72 -57 -197 -57q-121 0 -196 57q-80 67 -80 179h147q0 -42 25 -62q35 -27 104 -27q75 0 105 27q26 17 26 62q0 22 -14 32q-23 17 -76 17h-123v147h123q53 0 76 17q14 11 14 32
q0 45 -26 62q-29 26 -105 26q-71 0 -104 -26q-25 -20 -25 -62h-147q0 111 80 178q77 58 196 58z" />
    <glyph glyph-name="four.dnom" horiz-adv-x="831" 
d="M334 270h227v203h148v-473h-148v123h-438l217 594h156z" />
    <glyph glyph-name="five.dnom" horiz-adv-x="800" 
d="M678 569h-408v-96h129q126 0 197 -59q82 -63 82 -178q0 -112 -82 -179q-72 -57 -197 -57q-121 0 -196 57q-80 67 -80 179h147q0 -42 25 -62q35 -27 104 -27q75 0 105 27q26 17 26 62q0 46 -26 63q-34 27 -105 27h-276v391h555v-148z" />
    <glyph glyph-name="six.dnom" horiz-adv-x="800" 
d="M604 569h-205q-71 0 -104 -26q-25 -20 -25 -62v-28q62 20 129 20q126 0 197 -59q82 -63 82 -178q0 -112 -82 -179q-72 -57 -197 -57q-121 0 -196 57q-80 67 -80 179v245q0 111 80 178q77 58 196 58h205v-148zM399 326q-65 0 -104 -27q-25 -20 -25 -63q0 -42 25 -62
q35 -27 104 -27q75 0 105 27q26 17 26 62q0 46 -26 63q-34 27 -105 27z" />
    <glyph glyph-name="seven.dnom" horiz-adv-x="796" 
d="M367 0h-160l244 569h-328v148h551z" />
    <glyph glyph-name="eight.dnom" horiz-adv-x="800" 
d="M399 717q122 0 195 -49q84 -62 84 -166q0 -87 -57 -144q57 -57 57 -141q0 -107 -84 -166q-71 -51 -195 -51t-192 51q-84 59 -84 166q0 83 55 141q-55 58 -55 144q0 104 84 166q70 49 192 49zM399 569q-72 0 -108 -22q-21 -17 -21 -45q0 -32 21 -45q36 -25 108 -25
q78 0 109 25q22 13 22 45q0 27 -22 45q-31 22 -109 22zM399 285q-70 0 -108 -23q-21 -17 -21 -45q0 -32 21 -45q36 -25 108 -25q78 0 109 25q22 13 22 45q0 27 -22 45q-33 23 -109 23z" />
    <glyph glyph-name="nine.dnom" horiz-adv-x="800" 
d="M401 717q120 0 197 -58q80 -67 80 -178v-245q0 -112 -80 -179q-75 -57 -197 -57h-204v147h204q71 0 105 27q24 19 24 62v28q-62 -20 -129 -20q-125 0 -196 59q-82 63 -82 178q0 111 82 178q74 58 196 58zM401 569q-75 0 -104 -26q-27 -18 -27 -62q0 -45 27 -63
q34 -27 104 -27q66 0 105 27q24 19 24 63q0 43 -24 62q-33 26 -105 26z" />
    <glyph glyph-name="zero.numr" horiz-adv-x="800" 
d="M401 1434q126 0 203 -74q74 -77 74 -203v-164q0 -125 -74 -202q-77 -74 -203 -74q-128 0 -202 74q-76 76 -76 202v164q0 127 76 203q74 74 202 74zM401 1286q-68 0 -99.5 -31t-31.5 -98v-164q0 -66 32 -97.5t99 -31.5t98 31.5t31 97.5v164q0 67 -31 98t-98 31z" />
    <glyph glyph-name="one.numr" horiz-adv-x="393" 
d="M270 717h-147v717h147v-717z" />
    <glyph glyph-name="two.numr" horiz-adv-x="800" 
d="M399 1434q123 0 197 -58q82 -67 82 -178q0 -115 -82 -178q-71 -59 -197 -59q-58 0 -88.5 -23.5t-38.5 -73.5h406v-147h-555l2 147q9 104 72 170q74 74 202 74q71 0 105 27q26 17 26 63q0 45 -26 62q-29 26 -105 26q-71 0 -104 -26q-25 -20 -25 -62h-147q0 111 80 178
q77 58 196 58z" />
    <glyph glyph-name="three.numr" horiz-adv-x="800" 
d="M399 1434q123 0 197 -58q82 -67 82 -178q0 -71 -43 -123q43 -52 43 -123q0 -111 -82 -178q-72 -57 -197 -57q-121 0 -196 57q-80 67 -80 178h147q0 -41 25 -61q34 -27 104 -27q75 0 105 27q26 17 26 61q0 22 -14 33q-21 16 -76 16h-123v148h123q55 0 76 16q14 11 14 33
q0 45 -26 62q-29 26 -105 26q-71 0 -104 -26q-25 -20 -25 -62h-147q0 111 80 178q77 58 196 58z" />
    <glyph glyph-name="four.numr" horiz-adv-x="831" 
d="M334 987h227v203h148v-473h-148v123h-438l217 594h156z" />
    <glyph glyph-name="five.numr" horiz-adv-x="800" 
d="M678 1286h-408v-96h129q125 0 197 -60q82 -63 82 -178q0 -111 -82 -178q-72 -57 -197 -57q-121 0 -196 57q-80 67 -80 178h147q0 -41 25 -61q34 -27 104 -27q75 0 105 27q26 17 26 61q0 47 -26 64q-32 26 -105 26h-276v392h555v-148z" />
    <glyph glyph-name="six.numr" horiz-adv-x="800" 
d="M604 1286h-205q-71 0 -104 -26q-25 -20 -25 -62v-29q65 21 129 21q125 0 197 -60q82 -63 82 -178q0 -111 -82 -178q-72 -57 -197 -57q-121 0 -196 57q-80 67 -80 178v246q0 111 80 178q77 58 196 58h205v-148zM399 1042q-67 0 -104 -26q-25 -20 -25 -64q0 -41 25 -61
q34 -27 104 -27q75 0 105 27q26 17 26 61q0 47 -26 64q-32 26 -105 26z" />
    <glyph glyph-name="seven.numr" horiz-adv-x="796" 
d="M367 717h-160l244 569h-328v148h551z" />
    <glyph glyph-name="eight.numr" horiz-adv-x="800" 
d="M399 1434q121 0 195 -50q84 -62 84 -165q0 -87 -57 -144q57 -57 57 -141q0 -107 -84 -166q-71 -51 -195 -51t-192 51q-84 59 -84 166q0 83 55 141q-55 58 -55 144q0 103 84 165q71 50 192 50zM399 1286q-72 0 -108 -22q-21 -17 -21 -45q0 -32 21 -45q36 -25 108 -25
q78 0 109 25q22 13 22 45q0 27 -22 45q-31 22 -109 22zM399 1001q-72 0 -108 -22q-21 -17 -21 -45q0 -32 21 -45q36 -25 108 -25q78 0 109 25q22 13 22 45q0 27 -22 45q-31 22 -109 22z" />
    <glyph glyph-name="nine.numr" horiz-adv-x="800" 
d="M401 1434q120 0 197 -58q80 -67 80 -178v-246q0 -111 -80 -178q-75 -57 -197 -57h-204v147h204q71 0 105 27q24 19 24 61v29q-62 -20 -129 -20q-125 0 -196 59q-82 63 -82 178q0 111 82 178q74 58 196 58zM401 1286q-75 0 -104 -26q-27 -18 -27 -62q0 -45 27 -63
q34 -27 104 -27q66 0 105 27q24 19 24 63q0 43 -24 62q-33 26 -105 26z" />
    <glyph glyph-name="caronaccent" horiz-adv-x="65" 
d="M66 1042h-66v392h66v-392z" />
    <glyph glyph-name="upperslashaccent" horiz-adv-x="1069" 
d="M1069 1290l-1020 -1188l-49 43l1018 1188z" />
    <glyph glyph-name="slashaccent" horiz-adv-x="651" 
d="M651 770l-633 -180l-18 63l633 181z" />
    <glyph glyph-name="baraccent" horiz-adv-x="593" 
d="M594 684h-594v66h594v-66z" />
    <glyph glyph-name="longbaraccent" horiz-adv-x="1042" 
d="M1042 684h-1042v66h1042v-66z" />
    <glyph glyph-name="breveacuteaccent" horiz-adv-x="647" 
d="M647 1978l-463 -278l-34 55l462 279zM553 1804v-32q0 -131 -72 -203q-74 -74 -205 -74t-202 74q-74 71 -74 203v32h66v-32q0 -102 53 -158q56 -53 157 -53q105 0 158 53t53 158v32h66z" />
    <glyph glyph-name="brevegraveaccent" horiz-adv-x="647" 
d="M498 1755l-35 -55l-463 278l35 56zM647 1804v-32q0 -131 -72 -203q-74 -74 -204 -74q-132 0 -203 74q-74 71 -74 203v32h66v-32q0 -102 53 -158q56 -53 158 -53q104 0 157 53q54 54 54 158v32h65z" />
    <glyph glyph-name="brevehookaccent" horiz-adv-x="552" 
d="M221 2054v66q92 0 143.5 -52.5t51.5 -144.5q0 -91 -51.5 -142.5t-143.5 -51.5v65q129 0 129 129q0 131 -129 131zM553 1804v-32q0 -131 -72 -203q-74 -74 -205 -74t-202 74q-74 71 -74 203v32h66v-32q0 -102 53 -158q56 -53 157 -53q105 0 158 53t53 158v32h66z" />
    <glyph glyph-name="brevetildeaccent" horiz-adv-x="634" 
d="M135 2097q59 13 119.5 -16t93.5 -101q23 -51 61 -68.5t78 -10.5q34 7 58 33.5t24 72.5v33h66v-33q0 -67 -39 -115q-37 -43 -96 -55q-61 -12 -120 14.5t-93 102.5q-23 51 -62 70t-78 10q-33 -7 -57 -34t-24 -73v-33h-66v33q0 67 39 115q37 43 96 55zM594 1804v-32
q0 -131 -72 -203q-74 -74 -205 -74t-202 74q-74 71 -74 203v32h65v-32q0 -101 54 -158q56 -53 157 -53q105 0 158 53t53 158v32h66z" />
    <glyph glyph-name="circumflexacuteaccent" horiz-adv-x="581" 
d="M537 2044l-463 -279l-35 56l463 278zM291 1739l-244 -244l-47 45l291 291l291 -291l-47 -45z" />
    <glyph glyph-name="circumflexgraveaccent" horiz-adv-x="581" 
d="M543 1821l-35 -56l-463 279l35 55zM291 1739l-244 -244l-47 45l291 291l291 -291l-47 -45z" />
    <glyph glyph-name="circumflexhookaccent" horiz-adv-x="581" 
d="M367 2136v66q92 0 143 -52t51 -145q0 -91 -51 -143t-143 -52v66q129 0 129 129q0 131 -129 131zM291 1739l-244 -244l-47 45l291 291l291 -291l-47 -45z" />
    <glyph glyph-name="circumflextildeaccent" horiz-adv-x="634" 
d="M135 2075q59 13 119.5 -16t93.5 -101q23 -51 61.5 -69t77.5 -11q33 7 57.5 34t24.5 73v32h66v-32q0 -67 -39 -115q-37 -43 -96 -55q-61 -12 -120 14t-93 102q-23 51 -62 70t-78 10q-33 -7 -57 -33.5t-24 -72.5v-33h-66v33q0 66 39 114q38 44 96 56zM319 1739l-243 -244
l-47 45l290 291l291 -291l-47 -45z" />
    <glyph glyph-name="dieresisacuteaccent" horiz-adv-x="497" 
d="M498 1810l-463 -278l-35 55l463 279zM225 1593q21 0 35 -14t14 -35t-14 -35t-35 -14q-20 0 -34.5 14.5t-14.5 34.5t14.5 34.5t34.5 14.5zM365 1593q21 0 35 -14t14 -35t-14 -35t-35 -14q-20 0 -35 14.5t-15 34.5t15 34.5t35 14.5z" />
    <glyph glyph-name="dieresisgraveaccent" horiz-adv-x="497" 
d="M498 1587l-35 -55l-463 278l35 56zM133 1593q21 0 35 -14t14 -35t-14 -35t-35 -14q-20 0 -34.5 14.5t-14.5 34.5t14.5 34.5t34.5 14.5zM272 1593q22 0 36 -14.5t14 -34.5t-14 -34.5t-36 -14.5q-20 0 -34.5 14.5t-14.5 34.5t14.5 34.5t34.5 14.5z" />
    <glyph glyph-name="dieresiscaronaccent" horiz-adv-x="581" 
d="M582 1896l-291 -290l-291 290l47 46l244 -244l244 244zM221 1593q21 0 35 -14t14 -35t-14 -35t-35 -14q-20 0 -34.5 14.5t-14.5 34.5t14.5 34.5t34.5 14.5zM360 1593q22 0 36 -14.5t14 -34.5t-14 -34.5t-36 -14.5q-20 0 -34.5 14.5t-14.5 34.5t14.5 34.5t34.5 14.5z" />
    <glyph glyph-name="dieresismacronaccent" horiz-adv-x="473" 
d="M473 1634h-473v66h473v-66zM168 1593q21 0 35 -14t14 -35t-14 -35t-35 -14q-20 0 -34.5 14.5t-14.5 34.5t14.5 34.5t34.5 14.5zM307 1593q21 0 35 -14t14 -35t-14 -35t-35 -14q-20 0 -34.5 14.5t-14.5 34.5t14.5 34.5t34.5 14.5z" />
    </font>
</defs>
</svg>
