<?xml version="1.0" standalone="no"?>
<!DOCTYPE svg PUBLIC "-//W3C//DTD SVG 1.1//EN" "http://www.w3.org/Graphics/SVG/1.1/DTD/svg11.dtd" >
<svg xmlns="http://www.w3.org/2000/svg" xmlns:xlink="http://www.w3.org/1999/xlink" version="1.1">
<metadata>
Created by FontForge 20201107 at Tue Apr  7 13:00:02 2026
 By www-data
Copyright 2019-2021 Indian Type Foundry. All rights reserved.
</metadata>
<defs>
<font id="Sentient-ExtralightItalic" horiz-adv-x="1024" >
  <font-face 
    font-family="Sentient Extralight Italic"
    font-weight="200"
    font-style="italic"
    font-stretch="normal"
    units-per-em="2048"
    panose-1="0 0 0 0 0 0 0 0 0 0"
    ascent="1638"
    descent="-410"
    x-height="1044"
    cap-height="1403"
    bbox="-295 -578 3336 1923"
    underline-thickness="71"
    underline-position="-136"
    slope="-8"
    unicode-range="U+000D-FB04"
  />
<missing-glyph horiz-adv-x="471" 
 />
    <glyph glyph-name="f_f" unicode="ff" horiz-adv-x="1277" 
d="M-88 -512l-23 27q147 135 213.5 276.5t102.5 403.5l106 753h-178l8 58l181 20l24 174q23 166 123 251t270 85q122 0 320 -88q82 88 209 88q95 0 174 -57l-35 -99h-37l-106 88q-79 0 -135.5 -67.5t-71.5 -181.5l-27 -195h287l-12 -76h-285l-107 -760
q-29 -205 -73.5 -330.5t-117.5 -209.5t-200 -160l-22 27q146 135 212.5 276t102.5 404l107 753h-512l-107 -760q-29 -205 -73.5 -330.5t-117.5 -209.5t-200 -160zM446 1219l-26 -195h512l24 176q12 96 48 166l-269 102q-254 0 -289 -249z" />
    <glyph glyph-name="fi" unicode="fi" horiz-adv-x="1234" 
d="M-88 -512l-23 27q147 135 213.5 276.5t102.5 403.5l106 753h-178l8 58l181 20l20 141q26 177 140 273t298 96q153 0 260 -119l-55 -98h-37l-172 135q-138 0 -227.5 -71.5t-106.5 -196.5l-22 -162h553q53 0 53 -53q0 -38 -10 -97l-123 -778l10 -8l221 137l15 -37
q-93 -98 -172 -153t-125 -55q-54 0 -54 53q0 31 11 96l129 819h-518l-107 -760q-29 -205 -73.5 -330.5t-117.5 -209.5t-200 -160z" />
    <glyph glyph-name="fl" unicode="fl" horiz-adv-x="1232" 
d="M-88 -512l-23 27q147 135 213.5 276.5t102.5 403.5l106 753h-178l8 58l181 20l26 174q25 166 124 251t269 85q98 0 232 -51l100 41l33 -21l-207 -1409l10 -8l221 137l15 -37q-98 -103 -175.5 -155.5t-121.5 -52.5q-53 0 -53 53q0 21 10 96l182 1245l-250 94
q-129 0 -199 -62.5t-89 -186.5l-29 -195h287l-13 -76h-284l-107 -760q-29 -205 -73.5 -330.5t-117.5 -209.5t-200 -160z" />
    <glyph glyph-name="f_f_i" unicode="ffi" horiz-adv-x="1845" 
d="M-88 -512l-23 27q147 135 213.5 276.5t102.5 403.5l106 753h-178l8 58l181 20l26 174q25 166 124 251t269 85q135 0 346 -100q118 100 306 100q153 0 260 -119l-56 -98h-36l-172 135q-138 0 -226.5 -71.5t-107.5 -196.5l-25 -162h553q53 0 53 -53q0 -38 -10 -97
l-123 -778l10 -8l222 137l14 -37q-93 -98 -172 -153t-125 -55q-53 0 -53 53q0 37 10 96l129 819h-518l-107 -760q-29 -205 -73.5 -330.5t-117.5 -209.5t-200 -160l-22 27q146 135 212.5 276t102.5 404l107 753h-512l-107 -760q-29 -205 -73.5 -330.5t-117.5 -209.5
t-200 -160zM449 1219l-29 -195h512l22 143q16 112 70 193l-287 108q-127 0 -198 -61.5t-90 -187.5z" />
    <glyph glyph-name="f_f_l" unicode="ffl" horiz-adv-x="1843" 
d="M-88 -512l-23 27q147 135 213.5 276.5t102.5 403.5l106 753h-178l8 58l181 20l26 174q25 166 124 251t269 85q122 0 332 -94q98 94 279 94q97 0 231 -51l100 41l33 -21l-207 -1409l11 -8l221 137l14 -37q-98 -103 -175.5 -155.5t-121.5 -52.5q-53 0 -53 53q0 21 10 96
l182 1245l-249 94q-130 0 -200 -62.5t-89 -186.5l-29 -195h287l-12 -76h-285l-107 -760q-29 -205 -73.5 -330.5t-117.5 -209.5t-200 -160l-22 27q146 135 212.5 276t102.5 404l107 753h-512l-107 -760q-29 -205 -73.5 -330.5t-117.5 -209.5t-200 -160zM449 1219l-29 -195
h512l26 176q16 101 54 164l-275 104q-129 0 -199 -62.5t-89 -186.5z" />
    <glyph glyph-name="f_b" unicode="fb" horiz-adv-x="1798" 
d="M-88 -512l-23 27q147 135 213.5 276.5t102.5 403.5l106 753h-178l8 58l181 20l24 174q23 166 123 251t270 85q95 0 232 -51l96 41l33 -21l-148 -962l11 -6q95 250 211.5 378.5t248.5 128.5q120 0 192.5 -96t72.5 -256q0 -147 -53.5 -280.5t-140 -227t-200 -149
t-231.5 -55.5q-135 0 -268 77l186 1319l-246 92q-254 0 -289 -249l-26 -195h287l-13 -76h-284l-107 -760q-29 -205 -73.5 -330.5t-117.5 -209.5t-200 -160zM1069 43q212 40 359 220t147 429q0 125 -47 197t-129 72q-88 0 -190.5 -121t-186 -319.5t-117.5 -411.5
q83 -43 164 -66z" />
    <glyph glyph-name="f_f_b" unicode="ffb" horiz-adv-x="2408" 
d="M-88 -512l-23 27q147 135 213.5 276.5t102.5 403.5l106 753h-178l8 58l181 20l26 174q53 336 393 336q122 0 332 -94q98 94 279 94q94 0 231 -51l96 41l33 -21l-149 -962l10 -6q95 250 212 378.5t249 128.5q120 0 192 -96t72 -256q0 -147 -53.5 -280.5t-140 -227
t-200 -149t-231.5 -55.5q-135 0 -268 77l188 1319l-245 92q-130 0 -200 -62.5t-89 -186.5l-29 -195h287l-12 -76h-285l-107 -760q-29 -205 -73.5 -330.5t-117.5 -209.5t-200 -160l-22 27q146 135 212.5 276t102.5 404l107 753h-512l-107 -760q-29 -205 -73.5 -330.5
t-117.5 -209.5t-200 -160zM449 1219l-29 -195h512l26 176q16 101 54 164l-275 104q-129 0 -199 -62.5t-89 -186.5zM1679 43q212 40 359 220t147 429q0 125 -47 197t-129 72q-88 0 -190.5 -121t-185.5 -319.5t-117 -411.5q85 -43 163 -66z" />
    <glyph glyph-name="f_f_h" unicode="ffh" horiz-adv-x="2471" 
d="M-88 -512l-23 27q147 135 213.5 276.5t102.5 403.5l106 753h-178l8 58l181 20l24 174q23 167 122.5 251.5t270.5 84.5q122 0 332 -94q98 94 279 94q96 0 233 -51l94 41l33 -21l-147 -964l10 -6q99 265 208.5 387t252.5 122q105 0 164 -64t59 -183q0 -67 -21 -187
l-92 -508l15 -8l213 131l14 -37q-196 -208 -293 -208q-59 0 -59 53q0 15 6 53l96 522q21 110 21 183t-37.5 115t-96.5 42q-111 0 -220.5 -128.5t-190 -347t-109.5 -472.5l-106 -23l194 1399l-245 92q-254 0 -289 -249l-27 -195h287l-12 -76h-285l-107 -760
q-29 -205 -73.5 -330.5t-117.5 -209.5t-200 -160l-22 27q146 135 212.5 276t102.5 404l107 753h-512l-107 -760q-29 -205 -73.5 -330.5t-117.5 -209.5t-200 -160zM446 1219l-26 -195h512l24 176q12 94 54 164l-275 104q-254 0 -289 -249z" />
    <glyph glyph-name="f_f_j" unicode="ffj" horiz-adv-x="1798" 
d="M-88 -512l-23 27q147 135 213.5 276.5t102.5 403.5l106 753h-178l8 58l181 20l26 174q25 166 124 251t269 85q135 0 346 -100q118 100 306 100q153 0 260 -119l-56 -98h-36l-172 135q-138 0 -226.5 -71.5t-107.5 -196.5l-25 -162h553q53 0 53 -53q0 -19 -10 -97l-98 -686
q-29 -206 -74.5 -332t-118 -209t-198.5 -159l-23 27q146 135 212 276t104 404l108 753h-518l-107 -760q-29 -205 -73.5 -330.5t-117.5 -209.5t-200 -160l-22 27q146 135 212.5 276t102.5 404l107 753h-512l-107 -760q-29 -205 -73.5 -330.5t-117.5 -209.5t-200 -160z
M449 1219l-29 -195h512l22 143q16 112 70 193l-287 108q-127 0 -198 -61.5t-90 -187.5z" />
    <glyph glyph-name="f_f_k" unicode="ffk" horiz-adv-x="2392" 
d="M-90 -524l-23 26q146 135 212 279t104 414l106 753h-178l8 58l180 20l27 174q25 166 124 251t269 85q122 0 332 -94q98 94 279 94q95 0 229 -51l98 41l33 -21l-149 -964l10 -6q94 252 212.5 380.5t250.5 128.5q88 0 149.5 -62t61.5 -151q0 -127 -112.5 -239t-293.5 -168
l217 -342h17l188 139l14 -37q-93 -112 -148 -158t-91 -46q-43 0 -70 47l-240 383l-4 43q175 37 292.5 140.5t117.5 221.5q0 57 -34.5 100t-86.5 50q-109 -12 -216 -144.5t-186 -351t-108 -469.5l-106 -23l196 1399l-245 92q-130 0 -200 -62.5t-89 -186.5l-29 -195h287
l-12 -76h-285l-107 -760q-29 -209 -73 -336.5t-117.5 -214t-200.5 -161.5l-22 26q146 135 211.5 279t103.5 414l107 753h-512l-107 -760q-29 -209 -73 -336.5t-117.5 -214t-200.5 -161.5zM446 1219l-28 -195h512l26 176q16 101 54 164l-275 104q-130 0 -200 -62.5
t-89 -186.5z" />
    <glyph glyph-name="f_h" unicode="fh" horiz-adv-x="1859" 
d="M-90 -524l-23 26q146 135 212 279t104 414l106 753h-178l8 58l180 20l25 174q23 166 123 251t270 85q97 0 234 -51l94 41l33 -21l-148 -964l11 -6q99 265 208 387t252 122q105 0 164.5 -64t59.5 -183q0 -67 -21 -187l-92 -508l14 -8l213 131l15 -37q-196 -208 -293 -208
q-60 0 -60 53q0 15 6 53l97 522q20 105 20 183q0 73 -37 115t-96 42q-111 0 -220.5 -128.5t-190 -347t-109.5 -472.5l-107 -23l195 1399l-246 92q-254 0 -289 -249l-26 -195h287l-13 -76h-284l-107 -760q-29 -209 -73 -336.5t-117.5 -214t-200.5 -161.5z" />
    <glyph glyph-name="f_j" unicode="fj" horiz-adv-x="1187" 
d="M-88 -512l-23 27q147 135 213.5 276.5t102.5 403.5l106 753h-178l8 58l181 20l20 141q26 177 140 273t298 96q153 0 260 -119l-55 -98h-37l-172 135q-138 0 -227.5 -71.5t-106.5 -196.5l-22 -162h553q53 0 53 -53q0 -19 -10 -97l-98 -686q-29 -205 -74.5 -331.5
t-118.5 -209.5t-199 -159l-22 27q146 134 211.5 275t103.5 405l109 753h-518l-107 -760q-29 -205 -73.5 -330.5t-117.5 -209.5t-200 -160z" />
    <glyph glyph-name="f_k" unicode="fk" horiz-adv-x="1783" 
d="M-88 -512l-23 27q147 135 213.5 276.5t102.5 403.5l106 753h-178l8 58l181 20l26 174q53 336 393 336q96 0 230 -51l98 41l33 -21l-150 -964l11 -6q94 252 212 380.5t250 128.5q88 0 149.5 -62t61.5 -151q0 -127 -112 -239t-293 -168l217 -342h16l189 139l14 -37
q-93 -111 -148.5 -157.5t-91.5 -46.5q-42 0 -69 47l-240 383l-4 43q175 37 292.5 140.5t117.5 221.5q0 57 -34.5 100t-86.5 50q-109 -12 -216 -144.5t-186 -351t-108 -469.5l-107 -23l197 1399l-246 92q-129 0 -199 -62.5t-89 -186.5l-29 -195h287l-13 -76h-284l-107 -760
q-29 -205 -73.5 -330.5t-117.5 -209.5t-200 -160z" />
    <glyph glyph-name="f_t" unicode="ft" horiz-adv-x="1380" 
d="M-88 -512l-23 27q147 135 213.5 276.5t102.5 403.5l106 753h-178l8 58l181 20l26 174q25 163 104.5 249.5t206.5 86.5q96 0 175 -57l-35 -99h-37l-107 88q-78 0 -133.5 -67t-72.5 -182l-29 -195h512l108 276l33 -14l-37 -262h310l-13 -76h-309l-106 -760q-5 -40 -5 -49
q0 -40 17 -58t55 -18q21 0 45 9l246 153l14 -37q-133 -121 -203.5 -164.5t-132.5 -43.5q-75 0 -110 34t-35 103q0 26 14 129l103 702h-516l-107 -760q-29 -205 -73.5 -330.5t-117.5 -209.5t-200 -160z" />
    <glyph glyph-name=".notdef" horiz-adv-x="471" 
 />
    <glyph glyph-name=".null" 
 />
    <glyph glyph-name="nonmarkingreturn" horiz-adv-x="682" 
 />
    <glyph glyph-name="CR" unicode="&#xd;" horiz-adv-x="0" 
 />
    <glyph glyph-name="space" unicode=" " horiz-adv-x="614" 
 />
    <glyph glyph-name="exclam" unicode="!" horiz-adv-x="583" 
d="M313 465h-57l86 901l6 37h139l-6 -37zM217 -20q-38 0 -64 26t-26 64q0 49 34 81.5t85 32.5q38 0 64 -26t26 -64q0 -49 -34 -81.5t-85 -32.5z" />
    <glyph glyph-name="quotedbl" unicode="&#x22;" horiz-adv-x="702" 
d="M608 1036h-49l19 504l6 37h155l-6 -37zM289 1036h-49l18 504l6 37h156l-6 -37z" />
    <glyph glyph-name="numbersign" unicode="#" horiz-adv-x="1411" 
d="M266 0h-86l158 393h-289l12 74h310l178 473h-320l13 74h342l145 366h86l-145 -366h379l145 366h86l-145 -366h280l-12 -74h-303l-178 -473h313l-12 -74h-334l-158 -393h-86l158 393h-379zM635 940l-178 -473h379l178 473h-379z" />
    <glyph glyph-name="dollar" unicode="$" horiz-adv-x="1146" 
d="M508 -207h-78l27 187q-244 10 -369 122l39 285h43l37 -139q23 -92 85 -136.5t175 -50.5l86 615q-179 92 -252.5 172.5t-73.5 183.5q0 154 117 265t309 124l23 156h78l-21 -154q165 -10 301 -86l-12 -256h-43l-45 99q-66 140 -213 161l-82 -577q182 -91 265 -184.5
t83 -200.5q0 -155 -122.5 -269.5t-329.5 -127.5zM567 801l76 545q-134 -6 -221.5 -87.5t-87.5 -191.5q0 -73 53.5 -136t179.5 -130zM627 637l-82 -576q146 10 235.5 95t89.5 196q0 75 -55 142.5t-188 142.5z" />
    <glyph glyph-name="percent" unicode="%" horiz-adv-x="1675" 
d="M406 672q-109 0 -175.5 81t-66.5 214q0 183 101.5 314.5t242.5 131.5q109 0 175.5 -81t66.5 -214q0 -183 -101.5 -314.5t-242.5 -131.5zM399 0h-100l1012 1376h100zM414 735q103 0 172 113t69 280q0 104 -41 163t-114 59q-103 0 -172.5 -113.5t-69.5 -280.5
q0 -104 41 -162.5t115 -58.5zM1221 -12q-109 0 -175.5 81t-66.5 214q0 183 101.5 314.5t242.5 131.5q109 0 175.5 -81t66.5 -214q0 -183 -101.5 -314.5t-242.5 -131.5zM1229 51q103 0 172 113t69 280q0 104 -41 163t-114 59q-103 0 -172.5 -113.5t-69.5 -280.5
q0 -104 41 -162.5t115 -58.5z" />
    <glyph glyph-name="ampersand" unicode="&#x26;" horiz-adv-x="1734" 
d="M686 -25q-256 0 -414.5 162.5t-158.5 425.5q0 129 44.5 242t120 180.5t160.5 67.5q67 0 121 -27.5t82 -75.5q137 223 137 373l-65 127l10 41l117 43q45 -105 45 -197q0 -89 -44 -197t-178 -309.5t-378 -511.5q158 -237 417 -237q122 0 230 55.5t188.5 154.5t129 243.5
t53.5 314.5q-152 64 -210.5 83t-99.5 21l60 -135l-15 -41l-73 -33q-25 32 -40.5 78.5t-15.5 89.5q0 56 34.5 91.5t88.5 35.5t130 -26t192 -76q203 -88 332 -88l-76 125l8 43l72 37q57 -97 57 -166q0 -65 -31.5 -99t-91.5 -34q-80 0 -256 65q-5 -197 -57.5 -357t-142.5 -267
t-213 -164.5t-269 -57.5zM256 385q237 320 338 492l-197 116q-78 -51 -127 -158t-49 -231q0 -115 35 -219z" />
    <glyph glyph-name="quotesingle" unicode="'" horiz-adv-x="382" 
d="M289 1036h-49l18 504l6 37h156l-6 -37z" />
    <glyph glyph-name="parenleft" unicode="(" horiz-adv-x="622" 
d="M467 -348l-41 -33q-145 152 -228 373.5t-83 453.5q0 311 152.5 613t428.5 538l41 -38q-236 -239 -372 -542t-136 -597q0 -389 238 -768z" />
    <glyph glyph-name="parenright" unicode=")" horiz-adv-x="622" 
d="M-47 -381l-41 39q236 239 372 542t136 597q0 389 -238 768l41 32q145 -152 228.5 -373.5t83.5 -453.5q0 -311 -152.5 -613t-429.5 -538z" />
    <glyph glyph-name="asterisk" unicode="*" horiz-adv-x="1032" 
d="M496 938l-25 -31l-117 86l23 29l225 215l-307 37l-39 12l47 139l35 -16l272 -149l-57 309v37h143v-37l-57 -309l270 149l37 16l47 -139l-39 -12l-307 -37l225 -215l23 -29l-117 -86l-24 31l-129 283z" />
    <glyph glyph-name="plus" unicode="+" horiz-adv-x="1095" 
d="M559 270h-90l53 379h-379l13 90h379l53 379h90l-53 -379h379l-13 -90h-379z" />
    <glyph glyph-name="comma" unicode="," horiz-adv-x="430" 
d="M-8 -276l-29 32q160 114 160 238q0 65 -60 90l7 39q102 59 123 59q32 0 52.5 -28.5t20.5 -71.5q0 -85 -79.5 -189.5t-194.5 -168.5z" />
    <glyph glyph-name="hyphen" unicode="-" horiz-adv-x="798" 
d="M694 580h-569l12 96h570z" />
    <glyph glyph-name="period" unicode="." horiz-adv-x="430" 
d="M139 -20q-38 0 -64 26t-26 64q0 49 34 81.5t85 32.5q38 0 64 -26t26 -64q0 -49 -34 -81.5t-85 -32.5z" />
    <glyph glyph-name="slash" unicode="/" horiz-adv-x="796" 
d="M6 -274h-98l921 1851h97z" />
    <glyph glyph-name="zero" unicode="0" horiz-adv-x="1241" 
d="M543 -20q-192 0 -300 145t-108 397q0 247 80 453.5t220.5 327t309.5 120.5q194 0 302 -145t108 -397q0 -247 -80 -453.5t-221 -327t-311 -120.5zM555 59q132 0 243 109.5t175.5 300t64.5 418.5q0 215 -79.5 335.5t-223.5 120.5q-132 0 -243 -109.5t-175.5 -299.5
t-64.5 -418q0 -215 79.5 -336t223.5 -121z" />
    <glyph glyph-name="one" unicode="1" horiz-adv-x="739" 
d="M545 0h-494l6 41l117 37q51 15 68 32t22 56l133 952q2 19 4.5 36.5t3.5 24t1 9.5q0 63 -103 74l-74 10l7 39l284 112l31 -20l-164 -1167q-10 -76 -10 -91q0 -26 13.5 -39.5t51.5 -27.5l109 -37z" />
    <glyph glyph-name="two" unicode="2" horiz-adv-x="1060" 
d="M821 0h-803l-4 57q349 366 574 623q233 271 233 436q0 101 -65.5 161t-175.5 60q-154 0 -349 -147l-32 35q95 92 208.5 145t215.5 53q149 0 233 -75t84 -207q0 -113 -63.5 -230t-212.5 -278q-123 -132 -508 -524h454q78 0 117.5 19.5t79.5 76.5l53 78h41z" />
    <glyph glyph-name="three" unicode="3" horiz-adv-x="985" 
d="M350 -20q-240 0 -387 141l41 51q83 -57 166 -81.5t190 -24.5q154 0 264.5 103.5t110.5 248.5q0 133 -112 208.5t-310 75.5l2 58q221 13 355.5 114t134.5 252q0 94 -67 151.5t-177 57.5q-187 0 -368 -135l-33 39q89 83 201 132.5t210 49.5q163 0 259 -77t96 -207
q0 -132 -89.5 -237.5t-244.5 -156.5q123 -34 193.5 -118t70.5 -197q0 -189 -146 -318.5t-360 -129.5z" />
    <glyph glyph-name="four" unicode="4" horiz-adv-x="1095" 
d="M940 0h-494l7 41l116 37q51 15 68 32t22 56l25 172h-661l-3 47l814 1018h112l-135 -967h190l-14 -98h-190q-27 -174 -27 -193q0 -26 14.5 -39.5t53.5 -27.5l108 -37zM813 1262l-657 -826h542z" />
    <glyph glyph-name="five" unicode="5" horiz-adv-x="1011" 
d="M350 -20q-229 0 -360 143l41 49q87 -63 158 -87t167 -24q120 0 217 60t149 154.5t52 201.5q0 132 -85.5 207.5t-237.5 75.5q-139 0 -261 -58l-22 39l147 662h508q47 0 92 51l37 47h41l-55 -207h-565l-113 -506q136 54 254 54q178 0 279.5 -91.5t101.5 -250.5
q0 -101 -39.5 -195t-109 -166t-173 -115.5t-223.5 -43.5z" />
    <glyph glyph-name="six" unicode="6" horiz-adv-x="1157" 
d="M530 -20q-189 0 -297 128t-108 351q0 189 70 365.5t186 306t275 207t329 77.5q36 0 76 -4l-2 -53h-35q-296 0 -510 -207.5t-260 -540.5q85 120 200 190t228 70q156 0 252 -95t96 -249q0 -145 -68 -271t-183.5 -200.5t-248.5 -74.5zM547 57q147 0 253.5 132.5t106.5 314.5
q0 128 -71.5 203t-194.5 75q-100 0 -202 -69.5t-193 -198.5q-6 -40 -6 -78q0 -164 87 -271.5t220 -107.5z" />
    <glyph glyph-name="seven" unicode="7" horiz-adv-x="937" 
d="M315 0h-129l7 41l718 1253h-481q-76 0 -113 -18.5t-77 -77.5l-54 -78h-41l72 283h770l27 -45z" />
    <glyph glyph-name="eight" unicode="8" horiz-adv-x="1140" 
d="M489 -20q-182 0 -289.5 79.5t-107.5 212.5q0 137 105 254.5t301 200.5q-134 83 -195 162t-61 168q0 152 133 259t321 107q159 0 257 -77t98 -203q0 -120 -97 -226.5t-264 -171.5q171 -98 239 -175.5t68 -174.5q0 -115 -67 -210t-184 -150t-257 -55zM629 776
q160 94 231.5 180t71.5 185q0 95 -67 152t-179 57q-137 0 -230.5 -81.5t-93.5 -201.5q0 -75 59.5 -140t207.5 -151zM506 59q156 0 262 89.5t106 220.5q0 86 -71.5 159t-251.5 168q-166 -88 -252 -191.5t-86 -215.5q0 -104 80.5 -167t212.5 -63z" />
    <glyph glyph-name="nine" unicode="9" horiz-adv-x="1126" 
d="M240 -10q-75 0 -127 8l4 51q54 -4 71 -4q138 0 263.5 53t221.5 147t161.5 227.5t87.5 289.5q-74 -94 -178 -146.5t-218 -52.5q-156 0 -249 95t-93 251q0 132 61 249.5t174.5 191t252.5 73.5q180 0 280.5 -128.5t100.5 -354.5q0 -191 -58.5 -364t-162 -303t-257.5 -206.5
t-335 -76.5zM571 645q90 0 189 54t168 141q8 74 8 106q0 172 -76 284.5t-196 112.5q-100 0 -183 -58.5t-129.5 -154t-46.5 -204.5q0 -128 72 -204.5t194 -76.5z" />
    <glyph glyph-name="colon" unicode=":" horiz-adv-x="473" 
d="M281 840q-38 0 -64.5 26t-26.5 64q0 49 34 81.5t85 32.5q38 0 64 -26t26 -64q0 -49 -33.5 -81.5t-84.5 -32.5zM162 -20q-38 0 -64 26t-26 64q0 49 33.5 81.5t84.5 32.5q38 0 64.5 -26t26.5 -64q0 -49 -34 -81.5t-85 -32.5z" />
    <glyph glyph-name="semicolon" unicode=";" horiz-adv-x="481" 
d="M279 840q-38 0 -64.5 26t-26.5 64q0 49 34 81.5t85 32.5q38 0 64 -26t26 -64q0 -49 -33.5 -81.5t-84.5 -32.5zM12 -276l-28 32q159 113 159 238q0 66 -59 90l6 39q102 59 123 59q32 0 53 -28.5t21 -71.5q0 -85 -80 -189.5t-195 -168.5z" />
    <glyph glyph-name="less" unicode="&#x3c;" horiz-adv-x="1056" 
d="M915 393l-12 -94l-778 371l8 47l881 370l-13 -94l-720 -299z" />
    <glyph glyph-name="equal" unicode="=" horiz-adv-x="1073" 
d="M991 811h-825l12 90h826zM946 483h-825l12 90h825z" />
    <glyph glyph-name="greater" unicode="&#x3e;" horiz-adv-x="1056" 
d="M975 670l-881 -371l12 94l721 301l-634 299l12 94l778 -370z" />
    <glyph glyph-name="question" unicode="?" horiz-adv-x="833" 
d="M391 383h-45q-18 40 -38.5 121t-20.5 108q0 53 44.5 115t180.5 172q121 97 158 155.5t37 119.5q0 78 -51 122.5t-138 44.5q-155 0 -246 -135l-43 -61h-32l12 186q72 40 160 64t161 24q139 0 219 -65t80 -174q0 -83 -48 -157t-185 -185q-131 -105 -181 -162.5t-50 -104.5
q0 -78 26 -188zM287 -20q-38 0 -64 26t-26 64q0 49 33.5 81.5t84.5 32.5q38 0 64.5 -26t26.5 -64q0 -49 -34 -81.5t-85 -32.5z" />
    <glyph glyph-name="at" unicode="@" horiz-adv-x="1978" 
d="M903 -348q-236 0 -416 86.5t-278 245t-98 366.5t79 395t214 322t322.5 214t395.5 79q216 0 386 -83t264 -232t94 -338q0 -134 -49.5 -262t-131 -222.5t-190 -152.5t-221.5 -58q-129 0 -129 101q0 25 49 315l-12 2q-85 -197 -191 -305.5t-215 -108.5t-174 79.5t-65 211.5
q0 166 79 316t215 242.5t291 92.5q65 0 170 -43l49 43l29 -18q-127 -790 -127 -813q0 -45 70 -45q108 0 213 91.5t171 237.5t66 296q0 162 -85 292t-236.5 203.5t-339.5 73.5q-179 0 -343 -71.5t-283.5 -191t-191 -284.5t-71.5 -344q0 -295 192.5 -471.5t516.5 -177.5
q103 0 170 9.5t153 35.5l25 -62q-159 -67 -367 -67zM799 94q78 0 172 108t171.5 281.5t110.5 356.5q-85 53 -155 67q-119 -24 -224 -113t-168 -215t-63 -255q0 -107 42 -168.5t114 -61.5z" />
    <glyph glyph-name="A" unicode="A" horiz-adv-x="1370" 
d="M332 0h-414l6 41l82 25q45 13 64 28.5t41 55.5l647 1241l88 32l307 -1273q9 -40 22 -53.5t62 -30.5l74 -25l-6 -41h-439l6 41l72 20q62 19 80 31.5t18 28.5q0 13 -6 43l-65 274h-623l-141 -274q-17 -31 -17 -47q0 -19 15 -30t59 -24l74 -22zM770 1264l-383 -748h563z" />
    <glyph glyph-name="B" unicode="B" horiz-adv-x="1300" 
d="M608 0h-563l6 41l96 25q47 12 66 33t25 67l145 1032q8 62 8 84q0 20 -14.5 32.5t-52.5 22.5l-88 25l6 41h495q217 0 341 -83.5t124 -225.5q0 -274 -311 -357q116 -21 195 -112t79 -209q0 -196 -147 -306t-410 -110zM514 1325l-80 -559h211q199 0 317.5 87t118.5 224
q0 115 -94.5 181.5t-271.5 66.5h-201zM424 688l-86 -610h237q224 0 348 86t124 246q0 125 -98.5 201.5t-272.5 76.5h-252z" />
    <glyph glyph-name="C" unicode="C" horiz-adv-x="1402" 
d="M686 -20q-257 0 -410 160.5t-153 428.5q0 177 58 335.5t157.5 272t238.5 180t295 66.5q234 0 449 -102l-8 -283h-43q-16 117 -72 189q-86 116 -336 116q-171 0 -313.5 -102.5t-224.5 -280t-82 -391.5q0 -227 126 -368.5t328 -141.5q175 0 307 83t201 237h39l-78 -264
q-82 -59 -217 -97t-262 -38z" />
    <glyph glyph-name="D" unicode="D" horiz-adv-x="1460" 
d="M596 0h-551l6 41l96 25q47 12 66 33t25 67l145 1032q8 62 8 84q0 20 -14.5 32.5t-52.5 22.5l-88 25l6 41h520q297 0 459.5 -153.5t162.5 -434.5q0 -241 -98.5 -426.5t-277.5 -287t-412 -101.5zM514 1325l-176 -1247h272q187 0 337 95t234.5 264t84.5 380
q0 232 -133.5 370t-356.5 138h-262z" />
    <glyph glyph-name="E" unicode="E" horiz-adv-x="1339" 
d="M1079 0h-1034l6 41l96 31q47 15 66 35t25 59l145 1032q6 44 6 62q0 28 -13.5 43t-51.5 28l-88 31l6 41h1015l-12 -289h-41l-37 119q-19 60 -45 76t-102 16h-506l-82 -582h408q40 0 61 15.5t39 62.5l41 103h41l-61 -439h-41l-11 103q-4 44 -23.5 61t-60.5 17h-403
l-68 -473q-8 -54 -8 -70q0 -45 57 -45h461q78 0 116 19t71 77l73 129h41z" />
    <glyph glyph-name="F" unicode="F" horiz-adv-x="1257" 
d="M520 0h-475l6 41l96 25q47 12 66 33.5t25 66.5l147 1032q8 58 8 84q0 20 -14.5 32.5t-52.5 22.5l-88 25l6 41h1016l-13 -289h-41l-37 119q-19 60 -45 76t-102 16h-506l-88 -612h408q40 0 61 15.5t39 62.5l41 102h41l-62 -438h-41l-10 102q-4 44 -23.5 61t-60.5 17h-403
l-62 -426q-8 -54 -8 -86q0 -21 15 -33.5t53 -21.5l110 -27z" />
    <glyph glyph-name="G" unicode="G" horiz-adv-x="1480" 
d="M686 -20q-257 0 -410 160.5t-153 428.5q0 237 98.5 433t269.5 308.5t377 112.5q238 0 453 -102l-8 -283h-43q-16 117 -72 189q-88 116 -336 116q-171 0 -313.5 -102.5t-224.5 -280t-82 -391.5q0 -227 126 -368.5t328 -141.5q112 0 223.5 24.5t165.5 61.5l43 297
q7 61 7 74q0 30 -16 44t-64 28l-94 26l6 41h403l-6 -41l-55 -20q-33 -13 -44 -29.5t-16 -54.5l-53 -383q-98 -70 -231 -108.5t-279 -38.5z" />
    <glyph glyph-name="H" unicode="H" horiz-adv-x="1622" 
d="M498 0h-453l6 41l96 25q47 12 66 33.5t25 66.5l145 1032q8 58 8 84q0 20 -14.5 32.5t-52.5 22.5l-88 25l6 41h452l-6 -41l-96 -25q-46 -12 -65 -33.5t-25 -66.5l-70 -492h823l64 453q8 58 8 84q0 20 -14.5 32.5t-52.5 22.5l-89 25l7 41h452l-6 -41l-96 -25
q-46 -12 -65 -33.5t-25 -66.5l-146 -1032q-8 -58 -8 -84q0 -20 15 -32.5t53 -22.5l88 -25l-6 -41h-453l6 41l96 25q47 12 66 33.5t25 66.5l71 502h-823l-66 -463q-8 -58 -8 -84q0 -20 15 -32.5t53 -22.5l88 -25z" />
    <glyph glyph-name="I" unicode="I" horiz-adv-x="686" 
d="M498 0h-453l6 41l96 25q47 12 66 33.5t25 66.5l145 1032q8 58 8 84q0 20 -14.5 32.5t-52.5 22.5l-88 25l6 41h452l-6 -41l-96 -25q-46 -12 -65 -33.5t-25 -66.5l-146 -1032q-8 -58 -8 -84q0 -20 15 -32.5t53 -22.5l88 -25z" />
    <glyph glyph-name="J" unicode="J" horiz-adv-x="690" 
d="M-94 -512l-25 29q58 55 95.5 95t75 91t60.5 92t48 108.5t40.5 129t35.5 165.5t35.5 206.5t37.5 261.5l74 532q8 62 8 84q0 20 -14.5 32.5t-52.5 22.5l-88 25l6 41h452l-6 -41l-96 -25q-46 -12 -65 -33.5t-25 -66.5l-94 -680q-20 -141 -35.5 -240t-36 -192.5t-39.5 -155.5
t-48 -123.5t-58.5 -103t-75 -87.5t-93 -83t-116.5 -84z" />
    <glyph glyph-name="K" unicode="K" horiz-adv-x="1333" 
d="M498 0h-453l6 41l96 25q48 12 66.5 33t24.5 67l145 1032q8 52 8 84q0 22 -13.5 33.5t-53.5 21.5l-88 25l6 41h452l-6 -41l-96 -25q-46 -12 -65 -33.5t-25 -66.5l-68 -479h98q72 0 130 61l409 422q35 35 35 55q0 27 -62 45l-65 19l6 41h395l-6 -41l-76 -23q-28 -9 -46 -22
t-56 -53l-512 -529q42 -27 70 -78l268 -456q37 -62 62.5 -88t76.5 -45l74 -27l-4 -39h-219l-402 680h-186l-68 -475q-8 -52 -8 -84q0 -23 13.5 -33.5t54.5 -21.5l88 -25z" />
    <glyph glyph-name="L" unicode="L" horiz-adv-x="1148" 
d="M993 0h-948l6 41l96 25q47 12 66 33.5t25 66.5l145 1032q8 58 8 84q0 20 -14.5 32.5t-52.5 22.5l-88 25l6 41h452l-6 -41l-96 -25q-46 -12 -65 -33.5t-25 -66.5l-146 -1026q-8 -55 -8 -78q0 -32 15.5 -43.5t54.5 -11.5h344q90 0 130.5 18.5t72.5 77.5l75 141h41z" />
    <glyph glyph-name="M" unicode="M" horiz-adv-x="1923" 
d="M930 6l-82 -29l-313 1262l-277 -1042q-14 -50 -14 -72q0 -17 17 -28.5t65 -26.5l88 -29l-4 -41h-441l4 41l99 31q43 14 61.5 32.5t28.5 61.5l291 1071q6 27 6 41q0 18 -14.5 28.5t-57.5 24.5l-88 31l6 41h305l301 -1274l652 1274h307l-6 -41l-97 -31q-59 -19 -75.5 -35.5
t-16.5 -58.5l-12 -1071q0 -42 14 -61t54 -33l86 -31l-5 -41h-464l4 41l96 29q67 20 85.5 38t18.5 60l13 1073z" />
    <glyph glyph-name="N" unicode="N" horiz-adv-x="1615" 
d="M1260 33l-82 -60l-707 1239l-143 -1007q-6 -43 -6 -62q0 -28 13.5 -43t51.5 -28l88 -31l-6 -41h-424l6 41l96 31q47 15 66 35t25 59l145 1032q6 44 6 62q0 28 -13.5 43t-51.5 28l-88 31l6 41h245l709 -1243l145 1038q7 51 7 62q0 28 -14 42.5t-52 28.5l-88 31l6 41h424
l-6 -41l-96 -31q-46 -15 -65 -35t-25 -59z" />
    <glyph glyph-name="O" unicode="O" horiz-adv-x="1492" 
d="M670 -20q-258 0 -402.5 160t-144.5 429q0 234 97 429.5t269.5 310t382.5 114.5q259 0 403 -159.5t144 -429.5q0 -175 -57 -332.5t-155.5 -272t-238.5 -182t-298 -67.5zM680 59q173 0 315.5 103.5t223.5 281.5t81 390q0 231 -118.5 370t-319.5 139q-172 0 -314.5 -103
t-224 -281t-81.5 -390q0 -231 119 -370.5t319 -139.5z" />
    <glyph glyph-name="P" unicode="P" horiz-adv-x="1253" 
d="M520 0h-475l6 41l96 25q47 12 66 33.5t25 66.5l145 1032q8 58 8 84q0 20 -14.5 32.5t-52.5 22.5l-88 25l6 41h536q209 0 326 -95t117 -264q0 -236 -155.5 -374t-422.5 -138h-242l-45 -321q-8 -58 -8 -88q0 -21 15 -33.5t53 -21.5l110 -27zM514 1325l-100 -715h243
q201 0 322 116.5t121 309.5q0 134 -88 211.5t-240 77.5h-258z" />
    <glyph glyph-name="Q" unicode="Q" horiz-adv-x="1492" 
d="M1161 -344l-182 -25q-112 6 -209 148q-72 103 -110 148.5t-66 56.5q-223 23 -347 179.5t-124 405.5q0 234 97 429.5t269.5 310t382.5 114.5q259 0 403 -159.5t144 -429.5q0 -224 -90.5 -415t-253.5 -308.5t-364 -128.5q29 -12 66 -50.5t110 -132.5q34 -43 67.5 -60.5
t104.5 -27.5l102 -14v-41zM680 59q173 0 315.5 103.5t223.5 281.5t81 390q0 231 -118.5 370t-319.5 139q-172 0 -314.5 -103t-224 -281t-81.5 -390q0 -231 119 -370.5t319 -139.5z" />
    <glyph glyph-name="R" unicode="R" horiz-adv-x="1341" 
d="M498 0h-453l6 41l96 25q47 12 66 33.5t25 66.5l145 1032q8 52 8 84q0 20 -14.5 32.5t-52.5 22.5l-88 25l6 41h518q214 0 332 -86.5t118 -241.5q0 -174 -111.5 -291.5t-310.5 -152.5q42 -25 74 -94l154 -338q27 -59 55.5 -85.5t83.5 -47.5l74 -27l-4 -39h-236l-227 489
q-62 129 -121 129h-227l-58 -413q-8 -58 -8 -84q0 -20 15 -32.5t53 -22.5l88 -25zM514 1325l-88 -629h233q192 0 312.5 101t120.5 264q0 121 -91.5 192.5t-246.5 71.5h-240z" />
    <glyph glyph-name="S" unicode="S" horiz-adv-x="1095" 
d="M475 -20q-125 0 -239 33.5t-177 88.5l45 314h43l13 -146q9 -112 90 -161.5t250 -49.5q148 0 249 83t101 204q0 94 -77 169.5t-253 164.5q-171 85 -246 174t-75 193q0 161 128 268.5t320 107.5q86 0 181.5 -24t164.5 -62l-4 -282h-43l-31 121q-24 90 -101 130t-206 40
q-124 0 -213.5 -80t-89.5 -191q0 -86 65.5 -155t227.5 -154q181 -92 268.5 -189t87.5 -206q0 -169 -136 -280t-343 -111z" />
    <glyph glyph-name="T" unicode="T" horiz-adv-x="1300" 
d="M825 0h-493l6 41l117 29q48 11 65.5 32.5t24.5 63.5l164 1159h-250q-64 0 -103.5 -26t-89.5 -101l-73 -113h-41l75 318h1096l-14 -318h-41l-41 113q-28 75 -60 101t-96 26h-250l-159 -1128q-7 -47 -7 -68q0 -42 68 -59l108 -29z" />
    <glyph glyph-name="U" unicode="U" horiz-adv-x="1609" 
d="M737 -20q-463 0 -463 378q0 78 15 177l92 663q6 46 6 62q0 28 -13.5 43t-51.5 28l-89 31l7 41h452l-6 -41l-96 -31q-46 -15 -65 -34.5t-25 -59.5l-103 -733q-10 -68 -10 -115q0 -166 91 -247t278 -81q213 0 331.5 117t151.5 350l92 670q6 46 6 62q0 28 -13.5 43t-51.5 28
l-88 31l6 41h426l-6 -41l-97 -31q-47 -15 -66 -35.5t-24 -58.5l-100 -723q-35 -243 -162 -379q-62 -67 -181.5 -111t-242.5 -44z" />
    <glyph glyph-name="V" unicode="V" horiz-adv-x="1312" 
d="M647 6l-88 -33l-307 1280q-9 40 -22 53.5t-62 30.5l-74 25l6 41h439l-7 -41l-71 -21q-62 -19 -80.5 -31.5t-18.5 -27.5q0 -12 7 -43l266 -1100l543 1100q16 32 16 47q0 19 -14.5 29t-59.5 24l-73 23l6 41h413l-6 -41l-82 -25q-46 -13 -65 -28.5t-39 -55.5z" />
    <glyph glyph-name="W" unicode="W" horiz-adv-x="2011" 
d="M567 6l-90 -26l-209 1273q-6 40 -19 55.5t-54 28.5l-74 25l6 41h426l-6 -41l-72 -21q-64 -19 -81 -31.5t-17 -31.5q0 -11 8 -66l172 -1046l539 1214l92 25l225 -1243l434 1052q25 59 25 72q0 19 -14 29.5t-58 23.5l-74 23l7 41h405l-6 -41l-82 -25q-45 -14 -63 -29
t-35 -55l-522 -1247l-91 -26l-231 1245z" />
    <glyph glyph-name="X" unicode="X" horiz-adv-x="1277" 
d="M322 0h-390l7 41l77 29q38 13 55.5 26.5t53.5 53.5l485 571l-280 532q-19 37 -35 51t-57 29l-74 29l6 41h446l-6 -41l-75 -25q-47 -15 -65.5 -27.5t-18.5 -29.5q0 -21 22 -66l215 -409l361 422q30 35 30 53q0 35 -67 61l-54 21l7 41h389l-6 -41l-78 -29
q-38 -13 -55.5 -26.5t-53.5 -53.5l-436 -510l313 -593q21 -38 36.5 -51.5t55.5 -28.5l74 -29l-6 -41h-442l6 41l72 25q50 18 67 29t17 28q0 18 -23 65l-248 471l-409 -483q-31 -36 -31 -53q0 -36 67 -62l54 -20z" />
    <glyph glyph-name="Y" unicode="Y" horiz-adv-x="1191" 
d="M780 0h-493l6 41l117 29q48 11 65.5 32.5t24.5 63.5l55 362l-315 725q-18 39 -31.5 52t-52.5 28l-74 29l6 41h442l-6 -41l-71 -25q-54 -18 -72.5 -29t-18.5 -28q0 -30 15 -66l258 -593l397 602q33 49 33 61q0 14 -14 25.5t-58 27.5l-67 25l6 41h407l-6 -41l-82 -29
q-43 -15 -61 -29t-43 -51l-485 -725l-46 -331q-6 -40 -6 -68q0 -21 15.5 -35t52.5 -24l108 -29z" />
    <glyph glyph-name="Z" unicode="Z" horiz-adv-x="1159" 
d="M987 0h-960l4 78l997 1247h-553q-78 0 -113.5 -24t-82.5 -111l-66 -121h-41l80 334h917l-4 -78l-1007 -1247h606q78 0 120 27.5t81 99.5l69 129h41z" />
    <glyph glyph-name="bracketleft" unicode="[" horiz-adv-x="708" 
d="M532 -367h-481l275 1944h481l-12 -78h-369l-250 -1788h369z" />
    <glyph glyph-name="backslash" unicode="\" horiz-adv-x="796" 
d="M657 -274h-84l-395 1851h82z" />
    <glyph glyph-name="bracketright" unicode="]" horiz-adv-x="708" 
d="M410 -367h-482l13 78h368l250 1788h-369l13 78h481z" />
    <glyph glyph-name="asciicircum" unicode="^" horiz-adv-x="1034" 
d="M242 684h-95l488 829h47l254 -829h-94l-205 678z" />
    <glyph glyph-name="underscore" unicode="_" horiz-adv-x="1036" 
d="M913 -227h-933l14 88h934z" />
    <glyph glyph-name="grave" unicode="`" 
d="M594 1190h-43l-242 293l6 37h134z" />
    <glyph glyph-name="a" unicode="a" horiz-adv-x="1210" 
d="M369 -20q-120 0 -192.5 96t-72.5 254q0 147 53.5 281t140 228t200 149.5t231.5 55.5q94 0 195 -40l51 40l31 -20l-127 -928l10 -8l221 137l14 -37q-98 -103 -175.5 -155.5t-121.5 -52.5q-53 0 -53 53q0 19 66 446l-11 6q-95 -249 -211.5 -377t-248.5 -128zM393 63
q88 0 190.5 121t186 319.5t117.5 411.5q-83 43 -164 66q-138 -26 -252.5 -114t-184 -229.5t-69.5 -307.5q0 -123 47 -195t129 -72z" />
    <glyph glyph-name="b" unicode="b" horiz-adv-x="1159" 
d="M424 -20q-138 0 -268 75l172 1200q14 89 14 117q0 25 -12 34t-43 9h-125l4 39l266 82l33 -20l-152 -973l11 -6q95 250 211.5 378.5t248.5 128.5q120 0 192.5 -96t72.5 -256q0 -146 -53.5 -279.5t-140 -227.5t-200 -149.5t-231.5 -55.5zM430 43q138 26 252.5 114t184 229
t69.5 306q0 125 -47 197t-129 72q-88 0 -190.5 -121.5t-186 -321t-117.5 -412.5q70 -36 164 -63z" />
    <glyph glyph-name="c" unicode="c" horiz-adv-x="964" 
d="M481 -20q-164 0 -261 116.5t-97 311.5q0 176 68.5 322.5t187.5 230t262 83.5q157 0 279 -104l-48 -129h-34l-109 143q-46 17 -84 17q-112 0 -206 -74t-148.5 -201.5t-54.5 -277.5q0 -159 75.5 -258t196.5 -99q137 0 295 164l28 -43q-71 -95 -162.5 -148.5t-187.5 -53.5z
" />
    <glyph glyph-name="d" unicode="d" horiz-adv-x="1216" 
d="M375 -20q-120 0 -192 96t-72 254q0 147 53 281t140 228t200 149.5t231 55.5q81 0 178 -34q50 322 50 362q0 24 -12.5 33.5t-43.5 9.5h-125l4 39l267 82l32 -20l-200 -1420l10 -8l221 137l14 -37q-99 -103 -176 -155.5t-120 -52.5q-54 0 -54 53q0 19 66 446l-10 6
q-95 -249 -212 -377t-249 -128zM399 63q88 0 190.5 121t186 319.5t117.5 411.5q-83 43 -164 66q-138 -26 -252.5 -114t-184 -229.5t-69.5 -307.5q0 -123 47 -195t129 -72z" />
    <glyph glyph-name="e" unicode="e" horiz-adv-x="1003" 
d="M485 -20q-164 0 -263 120t-99 320q0 168 69 312t187 228t256 84q116 0 186 -63.5t70 -167.5q0 -155 -148 -262t-364 -107q-73 0 -143 13q0 -185 71.5 -288t198.5 -103q162 0 332 167l26 -38q-165 -215 -379 -215zM778 809q0 68 -40 112t-113 56q-144 -10 -252.5 -142
t-130.5 -319q40 -6 88 -6q202 0 325 82t123 217z" />
    <glyph glyph-name="f" unicode="f" horiz-adv-x="669" 
d="M-88 -512l-23 27q147 135 213.5 276.5t102.5 403.5l106 753h-178l8 58l181 20l26 174q25 163 104.5 249.5t206.5 86.5q96 0 175 -57l-35 -99h-37l-107 88q-78 0 -133.5 -67t-72.5 -182l-29 -195h287l-13 -76h-284l-107 -760q-29 -205 -73.5 -330.5t-117.5 -209.5
t-200 -160z" />
    <glyph glyph-name="g" unicode="g" horiz-adv-x="1155" 
d="M305 -512q-144 0 -232.5 66t-88.5 172q0 81 90 143t305 133q-133 7 -204 97t-71 251q0 143 53.5 273t140 221.5t200 145.5t231.5 54q91 0 195 -40l51 40l31 -20l-127 -889q-49 -339 -188.5 -493t-385.5 -154zM393 82q89 0 192 118.5t186 312.5t116 402q-81 41 -164 66
q-103 -19 -195 -74t-161 -135.5t-109.5 -190.5t-40.5 -231q0 -124 47 -196t129 -72zM313 -442q187 0 308 146.5t165 430.5l54 344l-11 6q-71 -181 -196 -340q-103 -132 -254 -198q-175 -79 -228 -119.5t-53 -101.5q0 -72 61.5 -120t153.5 -48z" />
    <glyph glyph-name="h" unicode="h" horiz-adv-x="1220" 
d="M252 0l-107 -20l179 1275q14 103 14 117q0 25 -12 34t-43 9h-125l4 39l266 82l33 -20l-150 -975l11 -6q99 265 208 387t252 122q105 0 164.5 -64t59.5 -183q0 -67 -21 -187l-92 -508l14 -8l213 131l15 -37q-196 -208 -293 -208q-60 0 -60 53q0 15 6 53l97 522
q20 105 20 183q0 73 -37 115t-96 42q-111 0 -220.5 -128.5t-190 -347t-109.5 -472.5z" />
    <glyph glyph-name="i" unicode="i" horiz-adv-x="647" 
d="M414 1270q-35 0 -60.5 25.5t-25.5 60.5q0 47 33 78.5t81 31.5q35 0 60.5 -25.5t25.5 -60.5q0 -46 -32.5 -78t-81.5 -32zM254 -20q-53 0 -53 53q0 21 10 96l127 799l-10 8l-222 -137l-14 37q98 103 175.5 155.5t121.5 52.5q53 0 53 -53q0 -21 -10 -96l-127 -799l10 -8
l222 137l14 -37q-98 -103 -175.5 -155.5t-121.5 -52.5z" />
    <glyph glyph-name="j" unicode="j" horiz-adv-x="593" 
d="M412 1270q-35 0 -60.5 25.5t-25.5 60.5q0 47 33 78.5t81 31.5q35 0 60.5 -25.5t25.5 -60.5q0 -46 -32.5 -78t-81.5 -32zM-66 -512l-22 27q146 134 211.5 275t103.5 405l105 735l-10 8l-222 -137l-14 37q94 98 172.5 153.5t124.5 55.5q53 0 53 -54q0 -18 -10 -96
l-100 -709q-29 -205 -74 -330.5t-118 -209.5t-200 -160z" />
    <glyph glyph-name="k" unicode="k" horiz-adv-x="1142" 
d="M252 0l-107 -20l179 1275q14 103 14 117q0 25 -12 34t-43 9h-125l4 39l266 82l33 -20l-150 -975l11 -6q93 249 214 379t248 130q88 0 149.5 -62t61.5 -151q0 -127 -112 -239t-293 -168l217 -342h16l189 139l14 -37q-93 -111 -148.5 -157.5t-91.5 -46.5q-42 0 -69 47
l-240 383l-4 43q175 37 292.5 140.5t117.5 221.5q0 57 -34.5 100t-86.5 50q-105 -12 -212 -144.5t-188 -351.5t-110 -469z" />
    <glyph glyph-name="l" unicode="l" horiz-adv-x="591" 
d="M207 -20q-53 0 -53 53q0 21 10 96l164 1126q14 89 14 117q0 25 -12 34t-43 9h-125l4 39l266 82l33 -20l-207 -1420l10 -8l221 137l15 -37q-98 -103 -175.5 -155.5t-121.5 -52.5z" />
    <glyph glyph-name="m" unicode="m" horiz-adv-x="1875" 
d="M1497 -25q-59 0 -59 54q0 16 6 53l96 526q21 110 21 183q0 75 -30 116t-87 41q-111 0 -221 -128.5t-191.5 -347t-111.5 -472.5l-107 -23l115 631q20 105 20 183q0 75 -30 116t-87 41q-111 0 -221.5 -128.5t-192 -347.5t-110.5 -472l-106 -23l129 953l-11 8l-221 -137
l-14 37q99 103 176.5 156t120.5 53q53 0 53 -54q0 -28 -67 -452l10 -6q99 264 210 386.5t255 122.5q89 0 142.5 -56.5t53.5 -149.5q0 -98 -51 -297l8 -6q99 266 207.5 387.5t251.5 121.5q207 0 207 -247q0 -67 -21 -187l-92 -512l15 -8l213 131l14 -37q-197 -209 -293 -209z
" />
    <glyph glyph-name="n" unicode="n" horiz-adv-x="1275" 
d="M307 0l-106 -23l129 953l-11 8l-221 -137l-14 37q99 103 176.5 156t120.5 53q53 0 53 -54q0 -28 -67 -452l10 -6q99 265 208.5 387t252.5 122q105 0 164 -64t59 -183q0 -67 -21 -187l-92 -512l15 -8l213 131l14 -37q-197 -209 -293 -209q-59 0 -59 54q0 16 6 53l96 526
q21 110 21 183t-37.5 115t-96.5 42q-111 0 -220.5 -128.5t-190 -347t-109.5 -472.5z" />
    <glyph glyph-name="o" unicode="o" horiz-adv-x="1120" 
d="M485 -20q-165 0 -263.5 120.5t-98.5 319.5q0 167 69 311t187 228.5t256 84.5q165 0 263.5 -120.5t98.5 -319.5q0 -167 -69 -311t-187 -228.5t-256 -84.5zM496 47q162 12 275.5 172.5t113.5 374.5q0 160 -70 264t-190 119q-162 -12 -275.5 -172.5t-113.5 -374.5
q0 -160 70 -264t190 -119z" />
    <glyph glyph-name="p" unicode="p" horiz-adv-x="1189" 
d="M399 -492h-454l4 39l94 25q46 12 66 33t26 65l176 1260l-10 8l-221 -137l-14 37q94 98 172 153.5t124 55.5q54 0 54 -54q0 -42 -72 -450l10 -6q95 250 212 378.5t249 128.5q120 0 192 -96t72 -256q0 -146 -53 -279.5t-140 -227.5t-200 -149.5t-231 -55.5q-84 0 -174 34
l-39 -297q-6 -41 -6 -65q0 -33 16.5 -50t64.5 -30l86 -25zM461 43q138 26 252.5 114t184 229t69.5 306q0 125 -47 197t-129 72q-88 0 -190.5 -121t-186 -319.5t-117.5 -411.5q83 -43 164 -66z" />
    <glyph glyph-name="q" unicode="q" horiz-adv-x="1161" 
d="M965 -492h-451l4 39l94 25q53 13 78 36t31 62l125 809l-10 6q-95 -249 -212 -377t-249 -128q-120 0 -192 96t-72 256q0 146 53 279.5t140 227.5t200 149.5t231 55.5q94 0 195 -40l51 40l31 -20l-185 -1307q-6 -40 -6 -65q0 -36 13 -52.5t49 -27.5l86 -25zM399 63
q88 0 190.5 121t186 319.5t117.5 411.5q-83 43 -164 66q-138 -26 -252.5 -114t-184 -229t-69.5 -306q0 -125 47 -197t129 -72z" />
    <glyph glyph-name="r" unicode="r" horiz-adv-x="960" 
d="M307 0l-106 -20l129 948l-11 8l-221 -137l-14 37q93 98 172 153t125 55q53 0 53 -53q0 -27 -65 -450l10 -6q192 509 442 509q87 0 146 -59l-33 -141h-37l-82 104q-107 0 -213 -125.5t-185.5 -344t-109.5 -478.5z" />
    <glyph glyph-name="s" unicode="s" horiz-adv-x="909" 
d="M397 -20q-200 0 -331 110l43 119h36l138 -139q59 -19 123 -19q102 0 175.5 59t73.5 142q0 66 -46 121t-175 123q-138 73 -199 143t-61 160q0 113 92.5 179t243.5 66q174 0 299 -104l-43 -117h-35l-129 140q-43 12 -96 12q-97 0 -160 -44t-63 -116q0 -69 46.5 -120
t164.5 -115q155 -85 212.5 -156t57.5 -162q0 -117 -105.5 -199.5t-261.5 -82.5z" />
    <glyph glyph-name="t" unicode="t" horiz-adv-x="765" 
d="M340 -20q-75 0 -110 34t-35 103q0 26 14 129l102 702h-178l8 58l178 20l107 274l33 -14l-37 -262h309l-12 -76h-309l-107 -760q-4 -32 -4 -49q0 -40 17 -58t55 -18q21 0 45 9l246 153l14 -37q-133 -121 -203.5 -164.5t-132.5 -43.5z" />
    <glyph glyph-name="u" unicode="u" horiz-adv-x="1257" 
d="M436 -20q-105 0 -164 64t-59 183q0 73 20 187l93 508l-15 8l-213 -131l-14 37q196 208 293 208q59 0 59 -53q0 -15 -6 -53l-96 -522q-21 -110 -21 -183t37 -115t96 -42q107 0 213 128.5t184 346.5t107 471l107 22l-129 -948l10 -8l221 137l15 -37q-98 -103 -175.5 -155.5
t-121.5 -52.5q-54 0 -54 53q0 21 68 450l-10 6q-100 -266 -204.5 -387.5t-240.5 -121.5z" />
    <glyph glyph-name="v" unicode="v" horiz-adv-x="1081" 
d="M522 2l-61 -22q-121 677 -213 958h-17l-198 -135l-15 37q79 96 147.5 150t110.5 54q29 0 45.5 -14.5t28.5 -52.5q111 -356 182 -832q173 262 261 426t114 277l-61 123l6 39l106 30q17 -15 29 -50.5t12 -69.5q0 -115 -118 -337.5t-359 -580.5z" />
    <glyph glyph-name="w" unicode="w" horiz-adv-x="1669" 
d="M500 4l-66 -24q-92 578 -186 958h-17l-198 -135l-15 37q79 96 147.5 150t110.5 54q32 0 47.5 -14t24.5 -53q107 -453 156 -817l407 831l74 33q111 -456 170 -881q293 447 342 703l-63 127l6 39l106 30q17 -15 29 -50.5t12 -69.5q0 -124 -109 -356.5t-331 -561.5l-66 -24
q-74 463 -163 868z" />
    <glyph glyph-name="x" unicode="x" horiz-adv-x="1140" 
d="M764 -20q-22 0 -42.5 12.5t-27.5 34.5l-155 442q-246 -195 -338 -352l-8 -103l-29 -26l-101 32q9 61 46.5 124t135 162t267.5 239l-141 397h-17l-188 -139l-14 37q93 112 148 158t91 46q22 0 42.5 -12.5t27.5 -34.5l143 -403q114 96 186.5 171.5t116.5 149.5l8 103l29 26
l100 -32q-12 -88 -95.5 -187.5t-317.5 -306.5l153 -436h17l188 139l15 -37q-93 -111 -148.5 -157.5t-91.5 -46.5z" />
    <glyph glyph-name="y" unicode="y" horiz-adv-x="1081" 
d="M41 -512q-35 0 -69.5 24t-45.5 70l23 35q41 -6 69 -6q60 0 116 33.5t132.5 122.5t186.5 253q-116 642 -205 918h-17l-198 -135l-15 37q79 96 147.5 150t110.5 54q28 0 45 -15t29 -52q110 -346 182 -832q174 263 261.5 426t113.5 275l-61 123l6 39l106 30q17 -15 29 -50.5
t12 -69.5q0 -109 -111 -322t-366 -594q-120 -178 -191 -276.5t-125.5 -153.5t-87 -69.5t-77.5 -14.5z" />
    <glyph glyph-name="z" unicode="z" horiz-adv-x="989" 
d="M170 39l-104 -59l-39 45l712 866l-456 57l-86 -213h-39q14 146 43 234q13 42 36 58.5t66 16.5q31 0 78 -6l410 -51l98 57l39 -45l-711 -862l498 -61l112 213h39q-36 -158 -69 -234q-20 -45 -41 -60t-62 -15q-32 0 -78 6z" />
    <glyph glyph-name="braceleft" unicode="{" horiz-adv-x="772" 
d="M440 -369q-146 0 -225.5 63t-79.5 179q0 51 17.5 110.5t64.5 172.5q46 109 62 163.5t16 100.5q0 53 -36 87t-136 75l8 61q136 51 182.5 100.5t46.5 143.5q0 41 -16 182q-16 136 -16 178q0 158 105 252t282 94q68 0 153 -14l-8 -59q-233 0 -326.5 -54t-93.5 -194
q0 -61 15 -187q16 -136 16 -182q0 -118 -52.5 -185t-182.5 -106q95 -31 135.5 -76t40.5 -118q0 -44 -15.5 -98t-64.5 -181q-50 -128 -66 -182t-16 -92q0 -89 79 -124.5t277 -35.5l-8 -59q-127 -15 -158 -15z" />
    <glyph glyph-name="bar" unicode="|" horiz-adv-x="655" 
d="M258 -274h-82l266 1894h82z" />
    <glyph glyph-name="braceright" unicode="}" horiz-adv-x="772" 
d="M86 -369q-62 0 -154 15l9 59q232 0 325.5 54t93.5 194q0 68 -14 186q-16 136 -16 183q0 118 52.5 184.5t182.5 105.5q-94 30 -135 76t-41 119q0 44 15.5 97.5t64.5 180.5t65.5 182t16.5 93q0 89 -79 124.5t-277 35.5l8 59q119 14 157 14q146 0 226 -63t80 -178
q0 -51 -17.5 -110.5t-64.5 -172.5q-46 -109 -62 -163.5t-16 -100.5q0 -53 36 -87t136 -75l-8 -61q-136 -51 -183 -100.5t-47 -143.5q0 -32 17 -182q16 -136 16 -179q0 -158 -105 -252t-282 -94z" />
    <glyph glyph-name="asciitilde" unicode="~" horiz-adv-x="1097" 
d="M745 584q-88 0 -196 61q-64 37 -94.5 48.5t-61.5 11.5q-93 0 -205 -97l-43 66q131 125 254 125q76 0 193 -60q71 -36 103.5 -48.5t64.5 -12.5q100 0 203 100l41 -65q-132 -129 -259 -129z" />
    <glyph glyph-name="nbspace" unicode="&#xa0;" horiz-adv-x="614" 
 />
    <glyph glyph-name="exclamdown" unicode="&#xa1;" horiz-adv-x="583" 
d="M338 840q-38 0 -64 26t-26 64q0 49 34 81.5t85 32.5q38 0 64 -26t26 -64q0 -49 -34 -81.5t-85 -32.5zM236 -379h-140l6 37l168 901h58l-86 -901z" />
    <glyph glyph-name="cent" unicode="&#xa2;" horiz-adv-x="1146" 
d="M537 -209h-78l26 191q-170 17 -265 128t-95 293q0 162 61.5 301t178.5 230t268 106l26 191h78l-24 -187q169 -3 309 -104l-45 -203h-39q-19 88 -49 137q-54 88 -189 97l-127 -910q167 0 314 103l28 -43q-169 -135 -354 -141zM498 70l125 897q-110 -16 -199 -96.5
t-136.5 -199t-47.5 -249.5q0 -140 68.5 -233t189.5 -119z" />
    <glyph glyph-name="sterling" unicode="&#xa3;" horiz-adv-x="1126" 
d="M934 0h-883l-8 88q192 82 273 186t81 238q0 60 -28 139h-260l10 78h217q-48 108 -67 170.5t-19 114.5q0 80 32.5 153t90.5 130.5t146.5 91.5t193.5 34q87 0 174 -18.5t145 -50.5l2 -254h-45l-47 88q-49 92 -102.5 125t-151.5 33q-139 0 -227 -94t-88 -218q0 -107 88 -305
h418l-11 -78h-381q21 -73 21 -133q0 -118 -71.5 -233t-198.5 -183h518q49 0 84 18.5t71 61.5l70 82h37z" />
    <glyph glyph-name="currency" unicode="&#xa4;" horiz-adv-x="1146" 
d="M317 397l-217 -190l-49 55l215 189q-59 88 -59 196q0 159 125 291l-158 184l62 56l159 -185q117 86 252 86q142 0 234 -92l217 191l49 -56l-219 -190q49 -76 49 -178q0 -73 -33 -154.5t-88 -140.5l168 -197l-61 -55l-170 196q-117 -86 -254 -86q-132 0 -222 80zM551 397
q139 0 238.5 105.5t99.5 240.5q0 109 -72 182.5t-182 73.5q-91 0 -170.5 -51.5t-123.5 -130t-44 -160.5q0 -111 72 -185.5t182 -74.5z" />
    <glyph glyph-name="yen" unicode="&#xa5;" horiz-adv-x="1146" 
d="M758 0h-494l6 41l117 29q48 11 66.5 33t23.5 63l19 135h-410l12 78h410l35 246h-410l10 77h377l-223 551q-18 39 -31.5 52t-52.5 28l-74 29l6 41h447l-6 -41l-72 -25q-90 -30 -90 -57q0 -30 18 -78l179 -454l317 466q39 55 39 70q0 14 -14.5 25t-57.5 28l-67 25l6 41h407
l-6 -41l-82 -29q-43 -15 -61 -29t-43 -51l-377 -551h393l-10 -77h-410l-34 -246h409l-12 -78h-410q-20 -130 -20 -172q0 -21 15 -35t52 -24l109 -29z" />
    <glyph glyph-name="brokenbar" unicode="&#xa6;" horiz-adv-x="655" 
d="M403 764h-81l120 856h82zM258 -274h-82l121 856h82z" />
    <glyph glyph-name="section" unicode="&#xa7;" horiz-adv-x="1073" 
d="M401 -438q-144 0 -280 76l10 225h35l41 -84q38 -78 91.5 -113t131.5 -35q116 0 188 62.5t72 150.5q0 64 -55 119.5t-193 132.5q-179 98 -249 181.5t-70 191.5q0 134 104 242.5t265 128.5q-105 56 -155 119.5t-50 142.5q0 132 104.5 225.5t280.5 93.5q146 0 280 -75
l-10 -226h-35l-41 84q-40 78 -92.5 113t-130.5 35q-116 0 -188 -62.5t-72 -150.5q0 -64 55 -119.5t193 -132.5q180 -98 249.5 -180t69.5 -189q0 -136 -104 -245.5t-264 -129.5q105 -56 154.5 -119.5t49.5 -142.5q0 -132 -104.5 -225.5t-280.5 -93.5zM494 188q157 1 249.5 92
t92.5 218q0 86 -56 152.5t-200 144.5q-160 -1 -255.5 -85t-95.5 -206q0 -87 61.5 -163t203.5 -153z" />
    <glyph glyph-name="dieresis" unicode="&#xa8;" 
d="M717 1253q-38 0 -62 24.5t-24 61.5q0 50 31.5 80.5t82.5 30.5q38 0 62 -24t24 -62q0 -50 -31.5 -80.5t-82.5 -30.5zM367 1253q-38 0 -62 24.5t-24 61.5q0 50 31.5 80.5t82.5 30.5q38 0 62 -24t24 -62q0 -50 -31.5 -80.5t-82.5 -30.5z" />
    <glyph glyph-name="copyright" unicode="&#xa9;" horiz-adv-x="1708" 
d="M879 -12q-154 0 -290 56t-233 152.5t-153 232.5t-56 290q0 205 95.5 372t263.5 262t373 95q206 0 373.5 -94.5t262.5 -261.5t95 -373q0 -151 -56.5 -286.5t-154 -233t-233 -154.5t-287.5 -57zM881 66q180 0 321 82.5t219 231.5t78 339q0 183 -80.5 332t-222 234
t-315.5 85q-177 0 -319.5 -84t-223 -232.5t-80.5 -332.5q0 -185 81 -335t223.5 -235t318.5 -85zM911 285q-202 0 -320 114.5t-118 317.5q0 193 118.5 307.5t309.5 114.5q139 0 279 -66l20 -160h-29q-23 47 -55 82q-76 82 -217 82q-147 0 -233 -93.5t-86 -260.5
q0 -184 87 -280.5t246 -96.5q97 0 164 41t111 129h24l-22 -145q-46 -38 -123 -62t-156 -24z" />
    <glyph glyph-name="ordfeminine" unicode="&#xaa;" horiz-adv-x="808" 
d="M328 735q-71 0 -114.5 62.5t-43.5 167.5q0 189 110 322.5t250 133.5q62 0 115 -24l31 26l26 -20l-73 -574l6 -4l121 84l14 -37q-128 -137 -178 -137q-37 0 -37 41q0 14 33 213h-10q-53 -125 -118 -189.5t-132 -64.5zM342 805q49 0 106.5 75.5t104 197.5t65.5 249
q-33 17 -92 39q-117 -27 -196.5 -138t-79.5 -263q0 -73 24 -116.5t68 -43.5zM729 524h-616l10 78h616z" />
    <glyph glyph-name="guillemotleft" unicode="&#xab;" horiz-adv-x="897" 
d="M729 129l-35 -20l-262 393l4 33l373 393l31 -21l-277 -389zM387 129l-35 -20l-262 393l4 33l373 393l31 -21l-277 -389z" />
    <glyph glyph-name="logicalnot" unicode="&#xac;" horiz-adv-x="1097" 
d="M967 457h-90l53 381h-760l12 90h850z" />
    <glyph glyph-name="softhyphen" unicode="&#xad;" horiz-adv-x="798" 
d="M694 580h-569l12 96h570z" />
    <glyph glyph-name="registered" unicode="&#xae;" horiz-adv-x="1159" 
d="M666 682q-207 0 -342.5 132.5t-135.5 346.5q0 199 134 333t344 134q211 0 344 -132t133 -335q0 -206 -133.5 -342.5t-343.5 -136.5zM666 739q80 0 151 28.5t124.5 81t84.5 133t31 179.5q0 111 -46 203.5t-136.5 149.5t-208.5 57q-180 0 -286 -117.5t-106 -292.5
q0 -191 113 -306.5t279 -115.5zM647 909h-178v23l31 12q15 6 19.5 13.5t4.5 23.5v365q0 21 -16 28l-33 12v23h178q89 0 142 -37t53 -104q0 -54 -40 -92t-97 -43q22 -16 37.5 -37.5t46.5 -75.5q40 -69 67 -78l29 -10v-23h-105l-112 185q-19 32 -35 32h-47v-145q0 -26 20 -35
l35 -14v-23zM592 1372v-209h57q58 0 88.5 28t30.5 77q0 51 -29.5 77.5t-85.5 26.5h-61z" />
    <glyph glyph-name="macron" unicode="&#xaf;" 
d="M834 1286h-562l15 98h561z" />
    <glyph glyph-name="degree" unicode="&#xb0;" horiz-adv-x="794" 
d="M440 856q-121 0 -199.5 70.5t-78.5 175.5q0 123 103 221t253 98q121 0 200 -70t79 -175q0 -123 -103.5 -221.5t-253.5 -98.5zM451 928q101 0 170 73t69 168q0 79 -50.5 130t-131.5 51q-101 0 -170.5 -73.5t-69.5 -168.5q0 -79 51 -129.5t132 -50.5z" />
    <glyph glyph-name="plusminus" unicode="&#xb1;" horiz-adv-x="1062" 
d="M563 430h-86l43 301h-364l10 86h364l43 301h86l-43 -301h365l-10 -86h-365zM905 270h-815l12 82h816z" />
    <glyph glyph-name="twosuperior" unicode="&#xb2;" horiz-adv-x="686" 
d="M559 616h-459l-2 39q205 215 320 349q119 143 119 235q0 55 -34 87t-93 32q-85 0 -189 -78l-20 27q55 55 119.5 85.5t123.5 30.5q87 0 136 -45t49 -123q0 -64 -36.5 -131.5t-119.5 -156.5q-94 -101 -274 -275h247q41 0 62.5 10t42.5 41l31 45h26z" />
    <glyph glyph-name="threesuperior" unicode="&#xb3;" horiz-adv-x="651" 
d="M291 612q-137 0 -219 82l26 35q83 -55 191 -55q85 0 144 54.5t59 135.5q0 72 -60 112t-166 40l2 41q118 7 189 61.5t71 136.5q0 51 -34.5 81t-92.5 30q-96 0 -200 -76l-21 29q52 52 117.5 82.5t122.5 30.5q93 0 148 -45.5t55 -120.5t-49.5 -134t-135.5 -88
q68 -22 107 -69t39 -109q0 -108 -84.5 -181t-208.5 -73z" />
    <glyph glyph-name="acute" unicode="&#xb4;" 
d="M514 1190h-43l219 330h139l-6 -37z" />
    <glyph glyph-name="micro" unicode="&#xb5;" horiz-adv-x="1212" 
d="M211 -362h-125l197 1386h102l-88 -610q-10 -71 -10 -117q0 -225 245 -225q84 0 173 40t159 107l115 805h102l-112 -784q-6 -49 -6 -74q0 -37 15 -54t50 -18l82 -2v-37l-195 -75h-34l-29 153q-68 -70 -165.5 -111.5t-186.5 -41.5q-205 0 -279 124l-6 -436z" />
    <glyph glyph-name="paragraph" unicode="&#xb6;" horiz-adv-x="1224" 
d="M453 -430l-25 29q77 75 122 124t88 115.5t66 122.5t48 155.5t41.5 202.5t40.5 275l102 725h-205l-133 -954q-190 0 -312 128t-122 322q0 112 44 219t119 188.5t182.5 131t227.5 49.5h494l-6 -41l-97 -31q-49 -15 -67.5 -34.5t-24.5 -59.5l-100 -723q-17 -122 -30 -203
t-31.5 -161t-34.5 -130.5t-44.5 -105.5t-56 -90.5t-73.5 -81t-93.5 -83t-119.5 -89.5z" />
    <glyph glyph-name="periodcentered" unicode="&#xb7;" horiz-adv-x="436" 
d="M229 590q-38 0 -64 26t-26 64q0 49 34 82t85 33q38 0 64 -26t26 -64q0 -49 -34 -82t-85 -33z" />
    <glyph glyph-name="cedilla" unicode="&#xb8;" 
d="M293 -532l-8 20q115 70 161 119.5t46 113.5q0 101 -191 101l209 201h49l-117 -152q71 0 111.5 -32t40.5 -87q0 -86 -81 -162t-220 -122z" />
    <glyph glyph-name="onesuperior" unicode="&#xb9;" horiz-adv-x="520" 
d="M430 616h-305l4 37l68 23q31 11 41.5 21.5t13.5 35.5l70 496q4 28 4 41q0 38 -58 47l-45 8l6 31l183 67l20 -14l-90 -635q-6 -46 -6 -53q0 -17 8 -26.5t31 -18.5l61 -23z" />
    <glyph glyph-name="ordmasculine" unicode="&#xba;" horiz-adv-x="811" 
d="M424 723q-112 0 -176 79t-64 212q0 167 99 288t237 121q109 0 174.5 -79t65.5 -211q0 -110 -45.5 -204.5t-123 -150t-167.5 -55.5zM432 782q100 6 170 107.5t70 236.5q0 99 -43 164t-117 74q-100 -7 -170 -108t-70 -234q0 -101 42.5 -166t117.5 -74zM717 524h-598l12 78
h596z" />
    <glyph glyph-name="guillemotright" unicode="&#xbb;" horiz-adv-x="897" 
d="M805 502l-373 -393l-31 20l277 389l-166 389l35 21l262 -393zM463 502l-373 -393l-31 20l277 389l-166 389l35 21l262 -393z" />
    <glyph glyph-name="onequarter" unicode="&#xbc;" horiz-adv-x="1452" 
d="M453 616h-306l5 37l67 23q31 11 41.5 21.5t13.5 35.5l70 496q4 28 4 41q0 38 -57 47l-45 8l6 31l182 67l21 -14l-90 -635q-2 -12 -3.5 -25t-2.5 -19t-1 -9q0 -17 8 -26.5t31 -18.5l62 -23zM299 -2h-100l1011 1376h101zM1190 -10h-84l27 190h-365l-2 33l451 575h83
l-75 -544h104l-8 -64h-104zM1202 690l-344 -446h283z" />
    <glyph glyph-name="onehalf" unicode="&#xbd;" horiz-adv-x="1587" 
d="M453 616h-306l5 37l67 23q31 11 41.5 21.5t13.5 35.5l70 496q4 28 4 41q0 38 -57 47l-45 8l6 31l182 67l21 -14l-90 -635q-2 -12 -3.5 -25t-2.5 -19t-1 -9q0 -17 8 -26.5t31 -18.5l62 -23zM299 -2h-100l1011 1376h101zM1395 2h-459l-2 39q204 213 319 348
q119 143 119 236q0 55 -34 86.5t-93 31.5q-85 0 -188 -77l-21 26q55 55 120 86t124 31q87 0 135.5 -44.5t48.5 -123.5q0 -65 -36 -132.5t-119 -156.5q-74 -79 -275 -274h248q41 0 62 10t42 41l31 45h27z" />
    <glyph glyph-name="threequarters" unicode="&#xbe;" horiz-adv-x="1634" 
d="M367 604q-138 0 -220 82l27 35q83 -55 191 -55q85 0 143.5 54.5t58.5 135.5q0 72 -59.5 112t-165.5 40l2 41q118 7 189 61.5t71 136.5q0 51 -34.5 81t-92.5 30q-97 0 -201 -76l-20 29q52 52 117 82t123 30q93 0 147.5 -45.5t54.5 -120.5t-49 -133.5t-135 -87.5
q68 -22 106.5 -68.5t38.5 -109.5q0 -108 -84.5 -181t-207.5 -73zM481 -2h-100l1012 1376h100zM1372 -10h-84l27 190h-365l-2 33l451 575h84l-76 -544h104l-8 -64h-104zM1384 690l-344 -446h283z" />
    <glyph glyph-name="questiondown" unicode="&#xbf;" horiz-adv-x="833" 
d="M518 840q-38 0 -64 26t-26 64q0 49 34 81.5t85 32.5q38 0 64 -26t26 -64q0 -49 -34 -81.5t-85 -32.5zM303 -395q-139 0 -219 65t-80 174q0 83 48.5 157t185.5 185q131 105 181 162.5t50 104.5q0 74 -27 188h45q18 -40 39 -121t21 -108q0 -53 -44.5 -115t-180.5 -172
q-121 -97 -158 -155.5t-37 -119.5q0 -78 50.5 -122.5t137.5 -44.5q155 0 246 135l43 61h33l-12 -186q-72 -40 -160.5 -64t-161.5 -24z" />
    <glyph glyph-name="Agrave" unicode="&#xc0;" horiz-adv-x="1370" 
d="M862 1528h-43l-241 293l6 37h133zM332 0h-414l6 41l82 25q45 13 64 28.5t41 55.5l647 1241l88 32l307 -1273q9 -40 22 -53.5t62 -30.5l74 -25l-6 -41h-439l6 41l72 20q62 19 80 31.5t18 28.5q0 13 -6 43l-65 274h-623l-141 -274q-17 -31 -17 -47q0 -19 15 -30t59 -24
l74 -22zM770 1264l-383 -748h563z" />
    <glyph glyph-name="Aacute" unicode="&#xc1;" horiz-adv-x="1370" 
d="M803 1528h-43l219 330h139l-6 -37zM332 0h-414l6 41l82 25q45 13 64 28.5t41 55.5l647 1241l88 32l307 -1273q9 -40 22 -53.5t62 -30.5l74 -25l-6 -41h-439l6 41l72 20q62 19 80 31.5t18 28.5q0 13 -6 43l-65 274h-623l-141 -274q-17 -31 -17 -47q0 -19 15 -30t59 -24
l74 -22zM770 1264l-383 -748h563z" />
    <glyph glyph-name="Acircumflex" unicode="&#xc2;" horiz-adv-x="1370" 
d="M590 1528h-39l297 330h45l203 -330h-39l-207 176zM332 0h-414l6 41l82 25q45 13 64 28.5t41 55.5l647 1241l88 32l307 -1273q9 -40 22 -53.5t62 -30.5l74 -25l-6 -41h-439l6 41l72 20q62 19 80 31.5t18 28.5q0 13 -6 43l-65 274h-623l-141 -274q-17 -31 -17 -47
q0 -19 15 -30t59 -24l74 -22zM770 1264l-383 -748h563z" />
    <glyph glyph-name="Atilde" unicode="&#xc3;" horiz-adv-x="1370" 
d="M971 1569q-24 0 -50 11.5t-44 25t-58 45.5q-55 44 -78.5 56.5t-44.5 12.5q-64 0 -94 -127h-39q14 99 56 160.5t98 61.5q37 0 72 -19t85 -63q52 -46 74.5 -58t42.5 -12q64 0 94 127h39q-14 -99 -55.5 -160t-97.5 -61zM332 0h-414l6 41l82 25q45 13 64 28.5t41 55.5
l647 1241l88 32l307 -1273q9 -40 22 -53.5t62 -30.5l74 -25l-6 -41h-439l6 41l72 20q62 19 80 31.5t18 28.5q0 13 -6 43l-65 274h-623l-141 -274q-17 -31 -17 -47q0 -19 15 -30t59 -24l74 -22zM770 1264l-383 -748h563z" />
    <glyph glyph-name="Adieresis" unicode="&#xc4;" horiz-adv-x="1370" 
d="M1004 1591q-38 0 -62 24.5t-24 61.5q0 50 31.5 80.5t82.5 30.5q38 0 62 -24t24 -62q0 -50 -31.5 -80.5t-82.5 -30.5zM653 1591q-38 0 -62 24.5t-24 61.5q0 49 32 80t83 31q38 0 62 -24t24 -62q0 -49 -32 -80t-83 -31zM332 0h-414l6 41l82 25q45 13 64 28.5t41 55.5
l647 1241l88 32l307 -1273q9 -40 22 -53.5t62 -30.5l74 -25l-6 -41h-439l6 41l72 20q62 19 80 31.5t18 28.5q0 13 -6 43l-65 274h-623l-141 -274q-17 -31 -17 -47q0 -19 15 -30t59 -24l74 -22zM770 1264l-383 -748h563z" />
    <glyph glyph-name="Aring" unicode="&#xc5;" horiz-adv-x="1370" 
d="M823 1513q-88 0 -139 42.5t-51 113.5q0 78 69 141.5t170 63.5q89 0 140 -42.5t51 -113.5q0 -77 -69.5 -141t-170.5 -64zM831 1573q57 0 102.5 40.5t45.5 94.5q0 46 -32 76.5t-83 30.5q-57 0 -102 -41t-45 -95q0 -46 31.5 -76t82.5 -30zM332 0h-414l6 41l82 25
q45 13 64 28.5t41 55.5l647 1241l88 32l307 -1273q9 -40 22 -53.5t62 -30.5l74 -25l-6 -41h-439l6 41l72 20q62 19 80 31.5t18 28.5q0 13 -6 43l-65 274h-623l-141 -274q-17 -31 -17 -47q0 -19 15 -30t59 -24l74 -22zM770 1264l-383 -748h563z" />
    <glyph glyph-name="AE" unicode="&#xc6;" horiz-adv-x="1906" 
d="M336 0h-418l6 41l82 29q49 17 66.5 30t44.5 50l862 1253h846l-13 -289h-40l-37 119q-19 59 -45.5 75.5t-102.5 16.5h-506l-82 -582h406q42 0 62.5 15.5t39.5 62.5l41 103h41l-61 -439h-41l-10 103q-4 44 -23.5 61t-60.5 17h-404l-67 -473q-9 -52 -9 -70q0 -45 58 -45h461
q77 0 115 19t71 77l74 129h41l-86 -303h-1035l6 41l97 31q46 15 65 35t25 59l45 326h-408l-225 -328q-18 -29 -18 -43q0 -15 15.5 -26.5t59.5 -28.5l68 -25zM956 1239l-460 -670h366z" />
    <glyph glyph-name="Ccedilla" unicode="&#xc7;" horiz-adv-x="1402" 
d="M471 -532l-8 20q115 70 161 119.5t46 113.5q0 101 -191 101l166 160q-239 12 -380.5 170.5t-141.5 416.5q0 177 58 335.5t157.5 272t238.5 180t295 66.5q234 0 449 -102l-8 -283h-43q-16 117 -72 189q-86 116 -336 116q-171 0 -313.5 -102.5t-224.5 -280t-82 -391.5
q0 -227 126 -368.5t328 -141.5q175 0 307 83t201 237h39l-78 -264q-78 -57 -206.5 -94.5t-253.5 -40.5l-84 -109q70 0 110.5 -31.5t40.5 -87.5q0 -86 -81 -162t-220 -122z" />
    <glyph glyph-name="Egrave" unicode="&#xc8;" horiz-adv-x="1339" 
d="M866 1528h-43l-241 293l6 37h133zM1079 0h-1034l6 41l96 31q47 15 66 35t25 59l145 1032q6 44 6 62q0 28 -13.5 43t-51.5 28l-88 31l6 41h1015l-12 -289h-41l-37 119q-19 60 -45 76t-102 16h-506l-82 -582h408q40 0 61 15.5t39 62.5l41 103h41l-61 -439h-41l-11 103
q-4 44 -23.5 61t-60.5 17h-403l-68 -473q-8 -54 -8 -70q0 -45 57 -45h461q78 0 116 19t71 77l73 129h41z" />
    <glyph glyph-name="Eacute" unicode="&#xc9;" horiz-adv-x="1339" 
d="M807 1528h-43l219 330h139l-6 -37zM1079 0h-1034l6 41l96 31q47 15 66 35t25 59l145 1032q6 44 6 62q0 28 -13.5 43t-51.5 28l-88 31l6 41h1015l-12 -289h-41l-37 119q-19 60 -45 76t-102 16h-506l-82 -582h408q40 0 61 15.5t39 62.5l41 103h41l-61 -439h-41l-11 103
q-4 44 -23.5 61t-60.5 17h-403l-68 -473q-8 -54 -8 -70q0 -45 57 -45h461q78 0 116 19t71 77l73 129h41z" />
    <glyph glyph-name="Ecircumflex" unicode="&#xca;" horiz-adv-x="1339" 
d="M594 1528h-39l297 330h45l203 -330h-39l-207 176zM1079 0h-1034l6 41l96 31q47 15 66 35t25 59l145 1032q6 44 6 62q0 28 -13.5 43t-51.5 28l-88 31l6 41h1015l-12 -289h-41l-37 119q-19 60 -45 76t-102 16h-506l-82 -582h408q40 0 61 15.5t39 62.5l41 103h41l-61 -439
h-41l-11 103q-4 44 -23.5 61t-60.5 17h-403l-68 -473q-8 -54 -8 -70q0 -45 57 -45h461q78 0 116 19t71 77l73 129h41z" />
    <glyph glyph-name="Edieresis" unicode="&#xcb;" horiz-adv-x="1339" 
d="M1008 1591q-38 0 -62 24.5t-24 61.5q0 50 31.5 80.5t82.5 30.5q38 0 62 -24t24 -62q0 -50 -31.5 -80.5t-82.5 -30.5zM657 1591q-38 0 -62 24.5t-24 61.5q0 49 32 80t83 31q38 0 62 -24t24 -62q0 -49 -32 -80t-83 -31zM1079 0h-1034l6 41l96 31q47 15 66 35t25 59
l145 1032q6 44 6 62q0 28 -13.5 43t-51.5 28l-88 31l6 41h1015l-12 -289h-41l-37 119q-19 60 -45 76t-102 16h-506l-82 -582h408q40 0 61 15.5t39 62.5l41 103h41l-61 -439h-41l-11 103q-4 44 -23.5 61t-60.5 17h-403l-68 -473q-8 -54 -8 -70q0 -45 57 -45h461q78 0 116 19
t71 77l73 129h41z" />
    <glyph glyph-name="Igrave" unicode="&#xcc;" horiz-adv-x="686" 
d="M532 1528h-43l-241 293l6 37h133zM498 0h-453l6 41l96 25q47 12 66 33.5t25 66.5l145 1032q8 58 8 84q0 20 -14.5 32.5t-52.5 22.5l-88 25l6 41h452l-6 -41l-96 -25q-46 -12 -65 -33.5t-25 -66.5l-146 -1032q-8 -58 -8 -84q0 -20 15 -32.5t53 -22.5l88 -25z" />
    <glyph glyph-name="Iacute" unicode="&#xcd;" horiz-adv-x="686" 
d="M473 1528h-43l219 330h139l-6 -37zM498 0h-453l6 41l96 25q47 12 66 33.5t25 66.5l145 1032q8 58 8 84q0 20 -14.5 32.5t-52.5 22.5l-88 25l6 41h452l-6 -41l-96 -25q-46 -12 -65 -33.5t-25 -66.5l-146 -1032q-8 -58 -8 -84q0 -20 15 -32.5t53 -22.5l88 -25z" />
    <glyph glyph-name="Icircumflex" unicode="&#xce;" horiz-adv-x="686" 
d="M260 1528h-39l297 330h45l203 -330h-39l-207 176zM498 0h-453l6 41l96 25q47 12 66 33.5t25 66.5l145 1032q8 58 8 84q0 20 -14.5 32.5t-52.5 22.5l-88 25l6 41h452l-6 -41l-96 -25q-46 -12 -65 -33.5t-25 -66.5l-146 -1032q-8 -58 -8 -84q0 -20 15 -32.5t53 -22.5
l88 -25z" />
    <glyph glyph-name="Idieresis" unicode="&#xcf;" horiz-adv-x="686" 
d="M674 1591q-38 0 -62 24.5t-24 61.5q0 50 31.5 80.5t82.5 30.5q38 0 62 -24t24 -62q0 -50 -31.5 -80.5t-82.5 -30.5zM324 1591q-38 0 -62 24.5t-24 61.5q0 50 31.5 80.5t82.5 30.5q38 0 62 -24t24 -62q0 -50 -31.5 -80.5t-82.5 -30.5zM498 0h-453l6 41l96 25
q47 12 66 33.5t25 66.5l145 1032q8 58 8 84q0 20 -14.5 32.5t-52.5 22.5l-88 25l6 41h452l-6 -41l-96 -25q-46 -12 -65 -33.5t-25 -66.5l-146 -1032q-8 -58 -8 -84q0 -20 15 -32.5t53 -22.5l88 -25z" />
    <glyph glyph-name="Eth" unicode="&#xd0;" horiz-adv-x="1460" 
d="M596 0h-551l6 41l96 25q47 12 66 33.5t25 66.5l69 498h-162l13 77h161l64 457q8 58 8 84q0 20 -14.5 32.5t-52.5 22.5l-88 25l6 41h520q297 0 459.5 -153.5t162.5 -434.5q0 -241 -98.5 -426.5t-277.5 -287t-412 -101.5zM420 664l-82 -586h272q187 0 337 95t234.5 264
t84.5 380q0 232 -133.5 370t-356.5 138h-262l-82 -584h338l-12 -77h-338z" />
    <glyph glyph-name="Ntilde" unicode="&#xd1;" horiz-adv-x="1615" 
d="M1104 1569q-24 0 -50 11.5t-44 25t-58 45.5q-55 44 -78.5 56.5t-44.5 12.5q-64 0 -94 -127h-39q14 99 56 160.5t98 61.5q37 0 72.5 -19.5t85.5 -62.5q53 -46 74.5 -58t41.5 -12q30 0 55 32t40 95h38q-14 -99 -55.5 -160t-97.5 -61zM1260 33l-82 -60l-707 1239l-143 -1007
q-6 -43 -6 -62q0 -28 13.5 -43t51.5 -28l88 -31l-6 -41h-424l6 41l96 31q47 15 66 35t25 59l145 1032q6 44 6 62q0 28 -13.5 43t-51.5 28l-88 31l6 41h245l709 -1243l145 1038q7 51 7 62q0 28 -14 42.5t-52 28.5l-88 31l6 41h424l-6 -41l-96 -31q-46 -15 -65 -35t-25 -59z
" />
    <glyph glyph-name="Ograve" unicode="&#xd2;" horiz-adv-x="1492" 
d="M932 1528h-43l-242 293l6 37h133zM670 -20q-258 0 -402.5 160t-144.5 429q0 234 97 429.5t269.5 310t382.5 114.5q259 0 403 -159.5t144 -429.5q0 -175 -57 -332.5t-155.5 -272t-238.5 -182t-298 -67.5zM680 59q173 0 315.5 103.5t223.5 281.5t81 390q0 231 -118.5 370
t-319.5 139q-172 0 -314.5 -103t-224 -281t-81.5 -390q0 -231 119 -370.5t319 -139.5z" />
    <glyph glyph-name="Oacute" unicode="&#xd3;" horiz-adv-x="1492" 
d="M872 1528h-43l220 330h139l-6 -37zM670 -20q-258 0 -402.5 160t-144.5 429q0 234 97 429.5t269.5 310t382.5 114.5q259 0 403 -159.5t144 -429.5q0 -175 -57 -332.5t-155.5 -272t-238.5 -182t-298 -67.5zM680 59q173 0 315.5 103.5t223.5 281.5t81 390q0 231 -118.5 370
t-319.5 139q-172 0 -314.5 -103t-224 -281t-81.5 -390q0 -231 119 -370.5t319 -139.5z" />
    <glyph glyph-name="Ocircumflex" unicode="&#xd4;" horiz-adv-x="1492" 
d="M659 1528h-38l297 330h45l202 -330h-39l-206 176zM670 -20q-258 0 -402.5 160t-144.5 429q0 234 97 429.5t269.5 310t382.5 114.5q259 0 403 -159.5t144 -429.5q0 -175 -57 -332.5t-155.5 -272t-238.5 -182t-298 -67.5zM680 59q173 0 315.5 103.5t223.5 281.5t81 390
q0 231 -118.5 370t-319.5 139q-172 0 -314.5 -103t-224 -281t-81.5 -390q0 -231 119 -370.5t319 -139.5z" />
    <glyph glyph-name="Otilde" unicode="&#xd5;" horiz-adv-x="1492" 
d="M1040 1569q-24 0 -50 11.5t-43 24.5t-58 46q-55 44 -78.5 56.5t-44.5 12.5q-64 0 -94 -127h-39q14 99 55.5 160.5t97.5 61.5q37 0 72.5 -19.5t85.5 -62.5q52 -46 74.5 -58t42.5 -12q64 0 94 127h39q-14 -99 -55.5 -160t-98.5 -61zM670 -20q-258 0 -402.5 160t-144.5 429
q0 234 97 429.5t269.5 310t382.5 114.5q259 0 403 -159.5t144 -429.5q0 -175 -57 -332.5t-155.5 -272t-238.5 -182t-298 -67.5zM680 59q173 0 315.5 103.5t223.5 281.5t81 390q0 231 -118.5 370t-319.5 139q-172 0 -314.5 -103t-224 -281t-81.5 -390q0 -231 119 -370.5
t319 -139.5z" />
    <glyph glyph-name="Odieresis" unicode="&#xd6;" horiz-adv-x="1492" 
d="M1073 1591q-38 0 -62 24.5t-24 61.5q0 49 32 80t83 31q38 0 62 -24t24 -62q0 -49 -32 -80t-83 -31zM723 1591q-38 0 -62 24.5t-24 61.5q0 49 32 80t83 31q38 0 62 -24t24 -62q0 -49 -32 -80t-83 -31zM670 -20q-258 0 -402.5 160t-144.5 429q0 234 97 429.5t269.5 310
t382.5 114.5q259 0 403 -159.5t144 -429.5q0 -175 -57 -332.5t-155.5 -272t-238.5 -182t-298 -67.5zM680 59q173 0 315.5 103.5t223.5 281.5t81 390q0 231 -118.5 370t-319.5 139q-172 0 -314.5 -103t-224 -281t-81.5 -390q0 -231 119 -370.5t319 -139.5z" />
    <glyph glyph-name="multiply" unicode="&#xd7;" horiz-adv-x="911" 
d="M473 631l-305 -271l-55 64l305 270l-232 273l66 57l233 -276l314 276l53 -63l-311 -277l227 -268l-63 -56z" />
    <glyph glyph-name="Oslash" unicode="&#xd8;" horiz-adv-x="1492" 
d="M221 -20h-96l137 165q-139 158 -139 424q0 234 97 429.5t269.5 310t382.5 114.5q216 0 353 -112l96 114h96l-137 -165q139 -161 139 -426q0 -175 -57 -332.5t-155.5 -272t-238.5 -182t-298 -67.5q-216 0 -355 114zM334 233l825 996q-114 114 -297 114q-172 0 -314.5 -103
t-224 -281t-81.5 -390q0 -202 92 -336zM680 59q173 0 315.5 103.5t223.5 281.5t81 390q0 203 -92 337l-825 -997q115 -115 297 -115z" />
    <glyph glyph-name="Ugrave" unicode="&#xd9;" horiz-adv-x="1609" 
d="M1008 1528h-43l-242 293l6 37h133zM737 -20q-463 0 -463 378q0 78 15 177l92 663q6 46 6 62q0 28 -13.5 43t-51.5 28l-89 31l7 41h452l-6 -41l-96 -31q-46 -15 -65 -34.5t-25 -59.5l-103 -733q-10 -68 -10 -115q0 -166 91 -247t278 -81q213 0 331.5 117t151.5 350l92 670
q6 46 6 62q0 28 -13.5 43t-51.5 28l-88 31l6 41h426l-6 -41l-97 -31q-47 -15 -66 -35.5t-24 -58.5l-100 -723q-35 -243 -162 -379q-62 -67 -181.5 -111t-242.5 -44z" />
    <glyph glyph-name="Uacute" unicode="&#xda;" horiz-adv-x="1609" 
d="M948 1528h-43l219 330h140l-7 -37zM737 -20q-463 0 -463 378q0 78 15 177l92 663q6 46 6 62q0 28 -13.5 43t-51.5 28l-89 31l7 41h452l-6 -41l-96 -31q-46 -15 -65 -34.5t-25 -59.5l-103 -733q-10 -68 -10 -115q0 -166 91 -247t278 -81q213 0 331.5 117t151.5 350l92 670
q6 46 6 62q0 28 -13.5 43t-51.5 28l-88 31l6 41h426l-6 -41l-97 -31q-47 -15 -66 -35.5t-24 -58.5l-100 -723q-35 -243 -162 -379q-62 -67 -181.5 -111t-242.5 -44z" />
    <glyph glyph-name="Ucircumflex" unicode="&#xdb;" horiz-adv-x="1609" 
d="M735 1528h-39l297 330h45l203 -330h-39l-207 176zM737 -20q-463 0 -463 378q0 78 15 177l92 663q6 46 6 62q0 28 -13.5 43t-51.5 28l-89 31l7 41h452l-6 -41l-96 -31q-46 -15 -65 -34.5t-25 -59.5l-103 -733q-10 -68 -10 -115q0 -166 91 -247t278 -81q213 0 331.5 117
t151.5 350l92 670q6 46 6 62q0 28 -13.5 43t-51.5 28l-88 31l6 41h426l-6 -41l-97 -31q-47 -15 -66 -35.5t-24 -58.5l-100 -723q-35 -243 -162 -379q-62 -67 -181.5 -111t-242.5 -44z" />
    <glyph glyph-name="Udieresis" unicode="&#xdc;" horiz-adv-x="1609" 
d="M1149 1591q-38 0 -62 24.5t-24 61.5q0 49 32 80t83 31q38 0 62 -24t24 -62q0 -49 -32 -80t-83 -31zM799 1591q-38 0 -62 24.5t-24 61.5q0 50 31.5 80.5t82.5 30.5q38 0 62 -24t24 -62q0 -50 -31.5 -80.5t-82.5 -30.5zM737 -20q-463 0 -463 378q0 78 15 177l92 663
q6 46 6 62q0 28 -13.5 43t-51.5 28l-89 31l7 41h452l-6 -41l-96 -31q-46 -15 -65 -34.5t-25 -59.5l-103 -733q-10 -68 -10 -115q0 -166 91 -247t278 -81q213 0 331.5 117t151.5 350l92 670q6 46 6 62q0 28 -13.5 43t-51.5 28l-88 31l6 41h426l-6 -41l-97 -31
q-47 -15 -66 -35.5t-24 -58.5l-100 -723q-35 -243 -162 -379q-62 -67 -181.5 -111t-242.5 -44z" />
    <glyph glyph-name="Yacute" unicode="&#xdd;" horiz-adv-x="1191" 
d="M725 1528h-43l219 330h139l-6 -37zM780 0h-493l6 41l117 29q48 11 65.5 32.5t24.5 63.5l55 362l-315 725q-18 39 -31.5 52t-52.5 28l-74 29l6 41h442l-6 -41l-71 -25q-54 -18 -72.5 -29t-18.5 -28q0 -30 15 -66l258 -593l397 602q33 49 33 61q0 14 -14 25.5t-58 27.5
l-67 25l6 41h407l-6 -41l-82 -29q-43 -15 -61 -29t-43 -51l-485 -725l-46 -331q-6 -40 -6 -68q0 -21 15.5 -35t52.5 -24l108 -29z" />
    <glyph glyph-name="Thorn" unicode="&#xde;" horiz-adv-x="1294" 
d="M498 0h-453l6 41l96 25q47 12 66 33.5t25 66.5l145 1032q8 58 8 84q0 20 -14.5 32.5t-52.5 22.5l-88 25l6 41h452l-6 -41l-96 -25q-46 -12 -65 -33.5t-25 -66.5l-17 -109h256q207 0 323 -91t116 -255q0 -229 -151 -356t-421 -127h-239q-21 -154 -21 -178q0 -20 15 -32.5
t53 -22.5l88 -25zM475 1051l-94 -674h242q200 0 318 106.5t118 286.5q0 131 -86 206t-236 75h-262z" />
    <glyph glyph-name="germandbls" unicode="&#xdf;" horiz-adv-x="1263" 
d="M-90 -524l-23 26q146 135 212 279t104 414l106 753h-178l8 58l180 20l29 184q23 151 123 238.5t252 87.5q153 0 240.5 -59.5t87.5 -163.5q0 -69 -44 -134t-153 -161q-110 -95 -140 -136t-30 -85q0 -51 37.5 -95.5t142.5 -117.5q135 -96 194.5 -168.5t59.5 -153.5
q0 -121 -99.5 -201.5t-250.5 -80.5q-94 0 -181.5 29t-150.5 81l43 119h37l137 -139q59 -19 123 -19q100 0 167 57.5t67 143.5q0 59 -47 114.5t-158 133.5q-121 86 -170 150t-49 138q0 49 35 99.5t133 142.5q104 97 144 158.5t40 124.5q0 68 -60.5 109.5t-160.5 41.5
q-101 0 -177 -66t-91 -169l-148 -1041q-29 -209 -73 -336.5t-117.5 -214t-200.5 -161.5z" />
    <glyph glyph-name="agrave" unicode="&#xe0;" horiz-adv-x="1210" 
d="M762 1190h-43l-242 293l6 37h133zM369 -20q-120 0 -192.5 96t-72.5 254q0 147 53.5 281t140 228t200 149.5t231.5 55.5q94 0 195 -40l51 40l31 -20l-127 -928l10 -8l221 137l14 -37q-98 -103 -175.5 -155.5t-121.5 -52.5q-53 0 -53 53q0 19 66 446l-11 6
q-95 -249 -211.5 -377t-248.5 -128zM393 63q88 0 190.5 121t186 319.5t117.5 411.5q-83 43 -164 66q-138 -26 -252.5 -114t-184 -229.5t-69.5 -307.5q0 -123 47 -195t129 -72z" />
    <glyph glyph-name="aacute" unicode="&#xe1;" horiz-adv-x="1210" 
d="M702 1190h-43l220 330h139l-6 -37zM369 -20q-120 0 -192.5 96t-72.5 254q0 147 53.5 281t140 228t200 149.5t231.5 55.5q94 0 195 -40l51 40l31 -20l-127 -928l10 -8l221 137l14 -37q-98 -103 -175.5 -155.5t-121.5 -52.5q-53 0 -53 53q0 19 66 446l-11 6
q-95 -249 -211.5 -377t-248.5 -128zM393 63q88 0 190.5 121t186 319.5t117.5 411.5q-83 43 -164 66q-138 -26 -252.5 -114t-184 -229.5t-69.5 -307.5q0 -123 47 -195t129 -72z" />
    <glyph glyph-name="acircumflex" unicode="&#xe2;" horiz-adv-x="1210" 
d="M489 1190h-38l297 330h45l202 -330h-39l-206 176zM369 -20q-120 0 -192.5 96t-72.5 254q0 147 53.5 281t140 228t200 149.5t231.5 55.5q94 0 195 -40l51 40l31 -20l-127 -928l10 -8l221 137l14 -37q-98 -103 -175.5 -155.5t-121.5 -52.5q-53 0 -53 53q0 19 66 446l-11 6
q-95 -249 -211.5 -377t-248.5 -128zM393 63q88 0 190.5 121t186 319.5t117.5 411.5q-83 43 -164 66q-138 -26 -252.5 -114t-184 -229.5t-69.5 -307.5q0 -123 47 -195t129 -72z" />
    <glyph glyph-name="atilde" unicode="&#xe3;" horiz-adv-x="1210" 
d="M870 1231q-24 0 -50 11.5t-43 24.5t-58 46q-55 44 -78.5 56.5t-44.5 12.5q-64 0 -94 -127h-39q14 99 55.5 160.5t97.5 61.5q37 0 72.5 -19.5t85.5 -62.5q52 -46 74.5 -58t42.5 -12q64 0 94 127h39q-14 -99 -55.5 -160t-98.5 -61zM369 -20q-120 0 -192.5 96t-72.5 254
q0 147 53.5 281t140 228t200 149.5t231.5 55.5q94 0 195 -40l51 40l31 -20l-127 -928l10 -8l221 137l14 -37q-98 -103 -175.5 -155.5t-121.5 -52.5q-53 0 -53 53q0 19 66 446l-11 6q-95 -249 -211.5 -377t-248.5 -128zM393 63q88 0 190.5 121t186 319.5t117.5 411.5
q-83 43 -164 66q-138 -26 -252.5 -114t-184 -229.5t-69.5 -307.5q0 -123 47 -195t129 -72z" />
    <glyph glyph-name="adieresis" unicode="&#xe4;" horiz-adv-x="1210" 
d="M903 1253q-38 0 -62 24.5t-24 61.5q0 49 32 80t83 31q38 0 62 -24t24 -62q0 -49 -32 -80t-83 -31zM553 1253q-38 0 -62 24.5t-24 61.5q0 49 32 80t83 31q38 0 62 -24t24 -62q0 -49 -32 -80t-83 -31zM369 -20q-120 0 -192.5 96t-72.5 254q0 147 53.5 281t140 228
t200 149.5t231.5 55.5q94 0 195 -40l51 40l31 -20l-127 -928l10 -8l221 137l14 -37q-98 -103 -175.5 -155.5t-121.5 -52.5q-53 0 -53 53q0 19 66 446l-11 6q-95 -249 -211.5 -377t-248.5 -128zM393 63q88 0 190.5 121t186 319.5t117.5 411.5q-83 43 -164 66
q-138 -26 -252.5 -114t-184 -229.5t-69.5 -307.5q0 -123 47 -195t129 -72z" />
    <glyph glyph-name="aring" unicode="&#xe5;" horiz-adv-x="1210" 
d="M723 1176q-89 0 -140 42t-51 113q0 77 69.5 141t170.5 64q89 0 140 -42.5t51 -113.5q0 -77 -69 -140.5t-171 -63.5zM731 1235q57 0 102.5 40.5t45.5 94.5q0 46 -32 76.5t-83 30.5q-57 0 -102.5 -41t-45.5 -95q0 -46 32 -76t83 -30zM369 -20q-120 0 -192.5 96t-72.5 254
q0 147 53.5 281t140 228t200 149.5t231.5 55.5q94 0 195 -40l51 40l31 -20l-127 -928l10 -8l221 137l14 -37q-98 -103 -175.5 -155.5t-121.5 -52.5q-53 0 -53 53q0 19 66 446l-11 6q-95 -249 -211.5 -377t-248.5 -128zM393 63q88 0 190.5 121t186 319.5t117.5 411.5
q-83 43 -164 66q-138 -26 -252.5 -114t-184 -229.5t-69.5 -307.5q0 -123 47 -195t129 -72z" />
    <glyph glyph-name="ae" unicode="&#xe6;" horiz-adv-x="1669" 
d="M369 -23q-120 0 -192.5 96.5t-72.5 256.5q0 147 53.5 281t140 228t200 149.5t231.5 55.5q65 0 151.5 -29.5t143.5 -70.5q127 100 276 100q116 0 186 -63.5t70 -167.5q0 -155 -148 -262t-364 -107q-73 0 -143 13q0 -185 71.5 -288t198.5 -103q162 0 332 167l27 -38
q-165 -215 -379 -215q-154 0 -251 105t-109 284q-89 -192 -197.5 -292t-224.5 -100zM393 61q86 0 189 121.5t187 321t118 411.5q-83 43 -164 66q-138 -26 -252.5 -114t-184 -229.5t-69.5 -307.5q0 -125 47 -197t129 -72zM1444 809q0 68 -40.5 112t-113.5 56
q-144 -10 -252.5 -142t-130.5 -319q40 -6 88 -6q203 0 326 82t123 217z" />
    <glyph glyph-name="ccedilla" unicode="&#xe7;" horiz-adv-x="964" 
d="M262 -532l-8 20q115 70 161 119.5t46 113.5q0 101 -191 101l166 160q-145 17 -229 131t-84 295q0 176 68.5 322.5t187.5 230t262 83.5q157 0 279 -104l-48 -129h-34l-109 143q-46 17 -84 17q-112 0 -206 -74t-148.5 -201.5t-54.5 -277.5q0 -159 75.5 -258t196.5 -99
q137 0 295 164l28 -43q-68 -92 -155 -145t-180 -57l-84 -109q70 0 110.5 -31.5t40.5 -87.5q0 -86 -81 -162t-220 -122z" />
    <glyph glyph-name="egrave" unicode="&#xe8;" horiz-adv-x="1003" 
d="M692 1190h-43l-241 293l6 37h133zM485 -20q-164 0 -263 120t-99 320q0 168 69 312t187 228t256 84q116 0 186 -63.5t70 -167.5q0 -155 -148 -262t-364 -107q-73 0 -143 13q0 -185 71.5 -288t198.5 -103q162 0 332 167l26 -38q-165 -215 -379 -215zM778 809q0 68 -40 112
t-113 56q-144 -10 -252.5 -142t-130.5 -319q40 -6 88 -6q202 0 325 82t123 217z" />
    <glyph glyph-name="eacute" unicode="&#xe9;" horiz-adv-x="1003" 
d="M633 1190h-43l219 330h139l-6 -37zM485 -20q-164 0 -263 120t-99 320q0 168 69 312t187 228t256 84q116 0 186 -63.5t70 -167.5q0 -155 -148 -262t-364 -107q-73 0 -143 13q0 -185 71.5 -288t198.5 -103q162 0 332 167l26 -38q-165 -215 -379 -215zM778 809q0 68 -40 112
t-113 56q-144 -10 -252.5 -142t-130.5 -319q40 -6 88 -6q202 0 325 82t123 217z" />
    <glyph glyph-name="ecircumflex" unicode="&#xea;" horiz-adv-x="1003" 
d="M420 1190h-39l297 330h45l203 -330h-39l-207 176zM485 -20q-164 0 -263 120t-99 320q0 168 69 312t187 228t256 84q116 0 186 -63.5t70 -167.5q0 -155 -148 -262t-364 -107q-73 0 -143 13q0 -185 71.5 -288t198.5 -103q162 0 332 167l26 -38q-165 -215 -379 -215z
M778 809q0 68 -40 112t-113 56q-144 -10 -252.5 -142t-130.5 -319q40 -6 88 -6q202 0 325 82t123 217z" />
    <glyph glyph-name="edieresis" unicode="&#xeb;" horiz-adv-x="1003" 
d="M834 1253q-38 0 -62 24.5t-24 61.5q0 50 31.5 80.5t82.5 30.5q38 0 62 -24t24 -62q0 -50 -31.5 -80.5t-82.5 -30.5zM483 1253q-38 0 -62 24.5t-24 61.5q0 49 32 80t83 31q38 0 62 -24t24 -62q0 -49 -32 -80t-83 -31zM485 -20q-164 0 -263 120t-99 320q0 168 69 312
t187 228t256 84q116 0 186 -63.5t70 -167.5q0 -155 -148 -262t-364 -107q-73 0 -143 13q0 -185 71.5 -288t198.5 -103q162 0 332 167l26 -38q-165 -215 -379 -215zM778 809q0 68 -40 112t-113 56q-144 -10 -252.5 -142t-130.5 -319q40 -6 88 -6q202 0 325 82t123 217z" />
    <glyph glyph-name="igrave" unicode="&#xec;" horiz-adv-x="647" 
d="M440 1190h-43l-241 293l6 37h133zM254 -20q-53 0 -53 53q0 21 10 96l127 799l-10 8l-222 -137l-14 37q98 103 175.5 155.5t121.5 52.5q53 0 53 -53q0 -21 -10 -96l-127 -799l10 -8l222 137l14 -37q-98 -103 -175.5 -155.5t-121.5 -52.5z" />
    <glyph glyph-name="iacute" unicode="&#xed;" horiz-adv-x="647" 
d="M381 1190h-43l219 330h139l-6 -37zM254 -20q-53 0 -53 53q0 21 10 96l127 799l-10 8l-222 -137l-14 37q98 103 175.5 155.5t121.5 52.5q53 0 53 -53q0 -21 -10 -96l-127 -799l10 -8l222 137l14 -37q-98 -103 -175.5 -155.5t-121.5 -52.5z" />
    <glyph glyph-name="icircumflex" unicode="&#xee;" horiz-adv-x="647" 
d="M168 1190h-39l297 330h45l203 -330h-39l-207 176zM254 -20q-53 0 -53 53q0 21 10 96l127 799l-10 8l-222 -137l-14 37q98 103 175.5 155.5t121.5 52.5q53 0 53 -53q0 -21 -10 -96l-127 -799l10 -8l222 137l14 -37q-98 -103 -175.5 -155.5t-121.5 -52.5z" />
    <glyph glyph-name="idieresis" unicode="&#xef;" horiz-adv-x="647" 
d="M582 1253q-38 0 -62 24.5t-24 61.5q0 50 31.5 80.5t82.5 30.5q38 0 62 -24t24 -62q0 -50 -31.5 -80.5t-82.5 -30.5zM231 1253q-38 0 -62 24.5t-24 61.5q0 49 32 80t83 31q38 0 62 -24t24 -62q0 -49 -32 -80t-83 -31zM254 -20q-53 0 -53 53q0 21 10 96l127 799l-10 8
l-222 -137l-14 37q98 103 175.5 155.5t121.5 52.5q53 0 53 -53q0 -21 -10 -96l-127 -799l10 -8l222 137l14 -37q-98 -103 -175.5 -155.5t-121.5 -52.5z" />
    <glyph glyph-name="eth" unicode="&#xf0;" horiz-adv-x="1124" 
d="M485 -20q-165 0 -263.5 120.5t-98.5 319.5q0 167 69 311t187 228.5t256 84.5q60 0 118 -31t126 -106q-26 135 -70.5 228t-124.5 186l-324 -133l13 80l252 106q-84 57 -162 81t-170 24l16 53q32 4 66 4q202 0 344 -121l266 109l-10 -80l-203 -82q116 -133 168.5 -299
t52.5 -418q0 -195 -68.5 -348t-184 -235t-255.5 -82zM496 47q162 12 275.5 172.5t113.5 374.5q0 160 -70 264t-190 119q-162 -12 -275.5 -172.5t-113.5 -374.5q0 -160 70 -264t190 -119z" />
    <glyph glyph-name="ntilde" unicode="&#xf1;" horiz-adv-x="1275" 
d="M928 1231q-24 0 -50 11.5t-44 25t-58 45.5q-55 44 -78.5 56.5t-44.5 12.5q-64 0 -94 -127h-39q14 99 56 160.5t98 61.5q37 0 72 -19t85 -63q52 -46 74.5 -58t42.5 -12q64 0 94 127h39q-14 -99 -55.5 -160t-97.5 -61zM307 0l-106 -23l129 953l-11 8l-221 -137l-14 37
q99 103 176.5 156t120.5 53q53 0 53 -54q0 -28 -67 -452l10 -6q99 265 208.5 387t252.5 122q105 0 164 -64t59 -183q0 -67 -21 -187l-92 -512l15 -8l213 131l14 -37q-197 -209 -293 -209q-59 0 -59 54q0 16 6 53l96 526q21 110 21 183t-37.5 115t-96.5 42
q-111 0 -220.5 -128.5t-190 -347t-109.5 -472.5z" />
    <glyph glyph-name="ograve" unicode="&#xf2;" horiz-adv-x="1120" 
d="M692 1190h-43l-241 293l6 37h133zM485 -20q-165 0 -263.5 120.5t-98.5 319.5q0 167 69 311t187 228.5t256 84.5q165 0 263.5 -120.5t98.5 -319.5q0 -167 -69 -311t-187 -228.5t-256 -84.5zM496 47q162 12 275.5 172.5t113.5 374.5q0 160 -70 264t-190 119
q-162 -12 -275.5 -172.5t-113.5 -374.5q0 -160 70 -264t190 -119z" />
    <glyph glyph-name="oacute" unicode="&#xf3;" horiz-adv-x="1120" 
d="M633 1190h-43l219 330h139l-6 -37zM485 -20q-165 0 -263.5 120.5t-98.5 319.5q0 167 69 311t187 228.5t256 84.5q165 0 263.5 -120.5t98.5 -319.5q0 -167 -69 -311t-187 -228.5t-256 -84.5zM496 47q162 12 275.5 172.5t113.5 374.5q0 160 -70 264t-190 119
q-162 -12 -275.5 -172.5t-113.5 -374.5q0 -160 70 -264t190 -119z" />
    <glyph glyph-name="ocircumflex" unicode="&#xf4;" horiz-adv-x="1120" 
d="M420 1190h-39l297 330h45l203 -330h-39l-207 176zM485 -20q-165 0 -263.5 120.5t-98.5 319.5q0 167 69 311t187 228.5t256 84.5q165 0 263.5 -120.5t98.5 -319.5q0 -167 -69 -311t-187 -228.5t-256 -84.5zM496 47q162 12 275.5 172.5t113.5 374.5q0 160 -70 264t-190 119
q-162 -12 -275.5 -172.5t-113.5 -374.5q0 -160 70 -264t190 -119z" />
    <glyph glyph-name="otilde" unicode="&#xf5;" horiz-adv-x="1120" 
d="M801 1231q-24 0 -50 11.5t-44 25t-58 45.5q-55 44 -78.5 56.5t-44.5 12.5q-64 0 -94 -127h-39q14 99 56 160.5t98 61.5q37 0 72.5 -19.5t85.5 -62.5q53 -46 74.5 -58t41.5 -12q64 0 94 127h39q-14 -99 -55.5 -160t-97.5 -61zM485 -20q-165 0 -263.5 120.5t-98.5 319.5
q0 167 69 311t187 228.5t256 84.5q165 0 263.5 -120.5t98.5 -319.5q0 -167 -69 -311t-187 -228.5t-256 -84.5zM496 47q162 12 275.5 172.5t113.5 374.5q0 160 -70 264t-190 119q-162 -12 -275.5 -172.5t-113.5 -374.5q0 -160 70 -264t190 -119z" />
    <glyph glyph-name="odieresis" unicode="&#xf6;" horiz-adv-x="1120" 
d="M834 1253q-38 0 -62 24.5t-24 61.5q0 50 31.5 80.5t82.5 30.5q38 0 62 -24t24 -62q0 -50 -31.5 -80.5t-82.5 -30.5zM483 1253q-38 0 -62 24.5t-24 61.5q0 49 32 80t83 31q38 0 62 -24t24 -62q0 -49 -32 -80t-83 -31zM485 -20q-165 0 -263.5 120.5t-98.5 319.5
q0 167 69 311t187 228.5t256 84.5q165 0 263.5 -120.5t98.5 -319.5q0 -167 -69 -311t-187 -228.5t-256 -84.5zM496 47q162 12 275.5 172.5t113.5 374.5q0 160 -70 264t-190 119q-162 -12 -275.5 -172.5t-113.5 -374.5q0 -160 70 -264t190 -119z" />
    <glyph glyph-name="divide" unicode="&#xf7;" horiz-adv-x="1083" 
d="M598 909q-38 0 -64 26t-26 64q0 49 34 82t85 33q38 0 64 -26t26 -64q0 -49 -34 -82t-85 -33zM979 649h-836l13 90h835zM508 274q-38 0 -64 26.5t-26 64.5q0 49 34 81.5t85 32.5q38 0 64 -26t26 -64q0 -49 -34 -82t-85 -33z" />
    <glyph glyph-name="oslash" unicode="&#xf8;" horiz-adv-x="1120" 
d="M219 -23h-96l94 129q-94 117 -94 314q0 167 69 311t187 228.5t256 84.5q126 0 213 -69l51 69h98l-92 -126q92 -122 92 -314q0 -167 -69 -311t-187 -228.5t-256 -84.5q-127 0 -213 71zM285 201l503 690q-68 75 -163 86q-162 -12 -275.5 -172.5t-113.5 -374.5
q0 -133 49 -229zM496 47q162 12 275.5 172.5t113.5 374.5q0 129 -49 229l-504 -690q68 -74 164 -86z" />
    <glyph glyph-name="ugrave" unicode="&#xf9;" horiz-adv-x="1257" 
d="M766 1190h-43l-242 293l6 37h134zM436 -20q-105 0 -164 64t-59 183q0 73 20 187l93 508l-15 8l-213 -131l-14 37q196 208 293 208q59 0 59 -53q0 -15 -6 -53l-96 -522q-21 -110 -21 -183t37 -115t96 -42q107 0 213 128.5t184 346.5t107 471l107 22l-129 -948l10 -8
l221 137l15 -37q-98 -103 -175.5 -155.5t-121.5 -52.5q-54 0 -54 53q0 21 68 450l-10 6q-100 -266 -204.5 -387.5t-240.5 -121.5z" />
    <glyph glyph-name="uacute" unicode="&#xfa;" horiz-adv-x="1257" 
d="M707 1190h-43l219 330h139l-6 -37zM436 -20q-105 0 -164 64t-59 183q0 73 20 187l93 508l-15 8l-213 -131l-14 37q196 208 293 208q59 0 59 -53q0 -15 -6 -53l-96 -522q-21 -110 -21 -183t37 -115t96 -42q107 0 213 128.5t184 346.5t107 471l107 22l-129 -948l10 -8
l221 137l15 -37q-98 -103 -175.5 -155.5t-121.5 -52.5q-54 0 -54 53q0 21 68 450l-10 6q-100 -266 -204.5 -387.5t-240.5 -121.5z" />
    <glyph glyph-name="ucircumflex" unicode="&#xfb;" horiz-adv-x="1257" 
d="M494 1190h-39l297 330h45l202 -330h-38l-207 176zM436 -20q-105 0 -164 64t-59 183q0 73 20 187l93 508l-15 8l-213 -131l-14 37q196 208 293 208q59 0 59 -53q0 -15 -6 -53l-96 -522q-21 -110 -21 -183t37 -115t96 -42q107 0 213 128.5t184 346.5t107 471l107 22
l-129 -948l10 -8l221 137l15 -37q-98 -103 -175.5 -155.5t-121.5 -52.5q-54 0 -54 53q0 21 68 450l-10 6q-100 -266 -204.5 -387.5t-240.5 -121.5z" />
    <glyph glyph-name="udieresis" unicode="&#xfc;" horiz-adv-x="1257" 
d="M907 1253q-38 0 -62 24.5t-24 61.5q0 49 32 80t83 31q38 0 62 -24t24 -62q0 -49 -32 -80t-83 -31zM557 1253q-38 0 -62 24.5t-24 61.5q0 49 32 80t83 31q38 0 62 -24t24 -62q0 -49 -32 -80t-83 -31zM436 -20q-105 0 -164 64t-59 183q0 73 20 187l93 508l-15 8l-213 -131
l-14 37q196 208 293 208q59 0 59 -53q0 -15 -6 -53l-96 -522q-21 -110 -21 -183t37 -115t96 -42q107 0 213 128.5t184 346.5t107 471l107 22l-129 -948l10 -8l221 137l15 -37q-98 -103 -175.5 -155.5t-121.5 -52.5q-54 0 -54 53q0 21 68 450l-10 6q-100 -266 -204.5 -387.5
t-240.5 -121.5z" />
    <glyph glyph-name="yacute" unicode="&#xfd;" horiz-adv-x="1081" 
d="M633 1190h-43l219 330h139l-6 -37zM41 -512q-35 0 -69.5 24t-45.5 70l23 35q41 -6 69 -6q60 0 116 33.5t132.5 122.5t186.5 253q-116 642 -205 918h-17l-198 -135l-15 37q79 96 147.5 150t110.5 54q28 0 45 -15t29 -52q110 -346 182 -832q174 263 261.5 426t113.5 275
l-61 123l6 39l106 30q17 -15 29 -50.5t12 -69.5q0 -109 -111 -322t-366 -594q-120 -178 -191 -276.5t-125.5 -153.5t-87 -69.5t-77.5 -14.5z" />
    <glyph glyph-name="thorn" unicode="&#xfe;" horiz-adv-x="1155" 
d="M367 -492h-455l4 39l94 25q46 12 66 33t26 65l226 1585q14 89 14 117q0 25 -12 34t-43 9h-125l4 39l266 82l33 -20l-152 -975l11 -6q95 252 211.5 380.5t248.5 128.5q120 0 192.5 -96.5t72.5 -257.5q0 -146 -53 -279.5t-140 -226.5t-200 -148.5t-230 -55.5q-92 0 -176 34
l-41 -297q-6 -41 -6 -65q0 -33 16.5 -50t65.5 -30l86 -25zM432 43q137 26 251 113.5t183.5 228t69.5 305.5q0 126 -47 198.5t-129 72.5q-88 0 -190 -121.5t-185 -320t-117 -410.5q83 -43 164 -66z" />
    <glyph glyph-name="ydieresis" unicode="&#xff;" horiz-adv-x="1081" 
d="M834 1253q-38 0 -62 24.5t-24 61.5q0 50 31.5 80.5t82.5 30.5q38 0 62 -24t24 -62q0 -50 -31.5 -80.5t-82.5 -30.5zM483 1253q-38 0 -62 24.5t-24 61.5q0 49 32 80t83 31q38 0 62 -24t24 -62q0 -49 -32 -80t-83 -31zM41 -512q-35 0 -69.5 24t-45.5 70l23 35q41 -6 69 -6
q60 0 116 33.5t132.5 122.5t186.5 253q-116 642 -205 918h-17l-198 -135l-15 37q79 96 147.5 150t110.5 54q28 0 45 -15t29 -52q110 -346 182 -832q174 263 261.5 426t113.5 275l-61 123l6 39l106 30q17 -15 29 -50.5t12 -69.5q0 -109 -111 -322t-366 -594
q-120 -178 -191 -276.5t-125.5 -153.5t-87 -69.5t-77.5 -14.5z" />
    <glyph glyph-name="Amacron" unicode="&#x100;" horiz-adv-x="1370" 
d="M1122 1624h-561l14 98h562zM332 0h-414l6 41l82 25q45 13 64 28.5t41 55.5l647 1241l88 32l307 -1273q9 -40 22 -53.5t62 -30.5l74 -25l-6 -41h-439l6 41l72 20q62 19 80 31.5t18 28.5q0 13 -6 43l-65 274h-623l-141 -274q-17 -31 -17 -47q0 -19 15 -30t59 -24l74 -22z
M770 1264l-383 -748h563z" />
    <glyph glyph-name="amacron" unicode="&#x101;" horiz-adv-x="1210" 
d="M1022 1286h-561l14 98h561zM369 -20q-120 0 -192.5 96t-72.5 254q0 147 53.5 281t140 228t200 149.5t231.5 55.5q94 0 195 -40l51 40l31 -20l-127 -928l10 -8l221 137l14 -37q-98 -103 -175.5 -155.5t-121.5 -52.5q-53 0 -53 53q0 19 66 446l-11 6q-95 -249 -211.5 -377
t-248.5 -128zM393 63q88 0 190.5 121t186 319.5t117.5 411.5q-83 43 -164 66q-138 -26 -252.5 -114t-184 -229.5t-69.5 -307.5q0 -123 47 -195t129 -72z" />
    <glyph glyph-name="Abreve" unicode="&#x102;" horiz-adv-x="1370" 
d="M827 1528q-92 0 -140 57.5t-48 145.5q0 32 16 86h35q0 -105 34.5 -146t119.5 -41q91 0 144 43.5t79 143.5h35q0 -131 -75.5 -210t-199.5 -79zM332 0h-414l6 41l82 25q45 13 64 28.5t41 55.5l647 1241l88 32l307 -1273q9 -40 22 -53.5t62 -30.5l74 -25l-6 -41h-439l6 41
l72 20q62 19 80 31.5t18 28.5q0 13 -6 43l-65 274h-623l-141 -274q-17 -31 -17 -47q0 -19 15 -30t59 -24l74 -22zM770 1264l-383 -748h563z" />
    <glyph glyph-name="abreve" unicode="&#x103;" horiz-adv-x="1210" 
d="M727 1190q-92 0 -140 57.5t-48 145.5q0 32 16 86h35q0 -105 34 -146t119 -41q91 0 144.5 43.5t79.5 143.5h34q0 -131 -75 -210t-199 -79zM369 -20q-120 0 -192.5 96t-72.5 254q0 147 53.5 281t140 228t200 149.5t231.5 55.5q94 0 195 -40l51 40l31 -20l-127 -928l10 -8
l221 137l14 -37q-98 -103 -175.5 -155.5t-121.5 -52.5q-53 0 -53 53q0 19 66 446l-11 6q-95 -249 -211.5 -377t-248.5 -128zM393 63q88 0 190.5 121t186 319.5t117.5 411.5q-83 43 -164 66q-138 -26 -252.5 -114t-184 -229.5t-69.5 -307.5q0 -123 47 -195t129 -72z" />
    <glyph glyph-name="Aogonek" unicode="&#x104;" horiz-adv-x="1370" 
d="M332 0h-414l6 41l82 25q45 13 64 28.5t41 55.5l647 1241l88 32l307 -1273q9 -40 22 -53.5t62 -30.5l74 -25l-6 -41q-127 -58 -203 -143.5t-76 -159.5q0 -60 41.5 -92.5t120.5 -32.5q17 0 67 4v-27q-77 -30 -145 -30q-90 0 -139 42t-49 111q0 94 77.5 180.5t229.5 147.5
h-363l6 41l72 20q62 19 80 31.5t18 28.5q0 13 -6 43l-65 274h-623l-141 -274q-17 -31 -17 -47q0 -19 15 -30t59 -24l74 -22zM770 1264l-383 -748h563z" />
    <glyph glyph-name="aogonek" unicode="&#x105;" horiz-adv-x="1210" 
d="M369 -20q-120 0 -192.5 96t-72.5 254q0 147 53.5 281t140 228t200 149.5t231.5 55.5q94 0 195 -40l51 40l31 -20l-127 -928l10 -8l221 137l14 -37q-184 -190 -280 -206q-111 -58 -175.5 -137.5t-64.5 -147.5q0 -60 41.5 -92.5t120.5 -32.5q18 0 68 4v-27
q-77 -30 -146 -30q-90 0 -139 42t-49 111q0 90 72 174.5t216 145.5q-14 14 -14 41q0 19 66 446l-11 6q-95 -249 -211.5 -377t-248.5 -128zM393 63q88 0 190.5 121t186 319.5t117.5 411.5q-83 43 -164 66q-138 -26 -252.5 -114t-184 -229.5t-69.5 -307.5q0 -123 47 -195
t129 -72z" />
    <glyph glyph-name="Cacute" unicode="&#x106;" horiz-adv-x="1402" 
d="M874 1528h-43l220 330h139l-6 -37zM686 -20q-257 0 -410 160.5t-153 428.5q0 177 58 335.5t157.5 272t238.5 180t295 66.5q234 0 449 -102l-8 -283h-43q-16 117 -72 189q-86 116 -336 116q-171 0 -313.5 -102.5t-224.5 -280t-82 -391.5q0 -227 126 -368.5t328 -141.5
q175 0 307 83t201 237h39l-78 -264q-82 -59 -217 -97t-262 -38z" />
    <glyph glyph-name="cacute" unicode="&#x107;" horiz-adv-x="964" 
d="M645 1190h-43l219 330h140l-7 -37zM481 -20q-164 0 -261 116.5t-97 311.5q0 176 68.5 322.5t187.5 230t262 83.5q157 0 279 -104l-48 -129h-34l-109 143q-46 17 -84 17q-112 0 -206 -74t-148.5 -201.5t-54.5 -277.5q0 -159 75.5 -258t196.5 -99q137 0 295 164l28 -43
q-71 -95 -162.5 -148.5t-187.5 -53.5z" />
    <glyph glyph-name="Cdotaccent" unicode="&#x10a;" horiz-adv-x="1402" 
d="M907 1591q-38 0 -62 24.5t-24 61.5q0 49 32 80t83 31q38 0 62 -24t24 -62q0 -49 -32 -80t-83 -31zM686 -20q-257 0 -410 160.5t-153 428.5q0 177 58 335.5t157.5 272t238.5 180t295 66.5q234 0 449 -102l-8 -283h-43q-16 117 -72 189q-86 116 -336 116
q-171 0 -313.5 -102.5t-224.5 -280t-82 -391.5q0 -227 126 -368.5t328 -141.5q175 0 307 83t201 237h39l-78 -264q-82 -59 -217 -97t-262 -38z" />
    <glyph glyph-name="cdotaccent" unicode="&#x10b;" horiz-adv-x="964" 
d="M678 1253q-38 0 -62 24.5t-24 61.5q0 49 32 80t83 31q38 0 62 -24t24 -62q0 -49 -32 -80t-83 -31zM481 -20q-164 0 -261 116.5t-97 311.5q0 176 68.5 322.5t187.5 230t262 83.5q157 0 279 -104l-48 -129h-34l-109 143q-46 17 -84 17q-112 0 -206 -74t-148.5 -201.5
t-54.5 -277.5q0 -159 75.5 -258t196.5 -99q137 0 295 164l28 -43q-71 -95 -162.5 -148.5t-187.5 -53.5z" />
    <glyph glyph-name="Ccaron" unicode="&#x10c;" horiz-adv-x="1402" 
d="M918 1528h-46l-202 330h39l202 -183l265 183h38zM686 -20q-257 0 -410 160.5t-153 428.5q0 177 58 335.5t157.5 272t238.5 180t295 66.5q234 0 449 -102l-8 -283h-43q-16 117 -72 189q-86 116 -336 116q-171 0 -313.5 -102.5t-224.5 -280t-82 -391.5q0 -227 126 -368.5
t328 -141.5q175 0 307 83t201 237h39l-78 -264q-82 -59 -217 -97t-262 -38z" />
    <glyph glyph-name="ccaron" unicode="&#x10d;" horiz-adv-x="964" 
d="M688 1190h-45l-203 330h39l203 -183l264 183h39zM481 -20q-164 0 -261 116.5t-97 311.5q0 176 68.5 322.5t187.5 230t262 83.5q157 0 279 -104l-48 -129h-34l-109 143q-46 17 -84 17q-112 0 -206 -74t-148.5 -201.5t-54.5 -277.5q0 -159 75.5 -258t196.5 -99
q137 0 295 164l28 -43q-71 -95 -162.5 -148.5t-187.5 -53.5z" />
    <glyph glyph-name="Dcaron" unicode="&#x10e;" horiz-adv-x="1460" 
d="M838 1528h-45l-203 330h39l202 -183l265 183h39zM596 0h-551l6 41l96 25q47 12 66 33t25 67l145 1032q8 62 8 84q0 20 -14.5 32.5t-52.5 22.5l-88 25l6 41h520q297 0 459.5 -153.5t162.5 -434.5q0 -241 -98.5 -426.5t-277.5 -287t-412 -101.5zM514 1325l-176 -1247h272
q187 0 337 95t234.5 264t84.5 380q0 232 -133.5 370t-356.5 138h-262z" />
    <glyph glyph-name="dcaron" unicode="&#x10f;" horiz-adv-x="1216" 
d="M375 -20q-120 0 -192 96t-72 254q0 147 53 281t140 228t200 149.5t231 55.5q81 0 178 -34q50 322 50 362q0 24 -12.5 33.5t-43.5 9.5h-125l4 39l267 82l32 -20l-200 -1420l10 -8l221 137l14 -37q-99 -103 -176 -155.5t-120 -52.5q-54 0 -54 53q0 19 66 446l-10 6
q-95 -249 -212 -377t-249 -128zM1204 1149h-35l54 367h133l-6 -37zM399 63q88 0 190.5 121t186 319.5t117.5 411.5q-83 43 -164 66q-138 -26 -252.5 -114t-184 -229.5t-69.5 -307.5q0 -123 47 -195t129 -72z" />
    <glyph glyph-name="Dcroat" unicode="&#x110;" horiz-adv-x="1460" 
d="M596 0h-551l6 41l96 25q47 12 66 33.5t25 66.5l69 498h-162l13 77h161l64 457q8 58 8 84q0 20 -14.5 32.5t-52.5 22.5l-88 25l6 41h520q297 0 459.5 -153.5t162.5 -434.5q0 -241 -98.5 -426.5t-277.5 -287t-412 -101.5zM420 664l-82 -586h272q187 0 337 95t234.5 264
t84.5 380q0 232 -133.5 370t-356.5 138h-262l-82 -584h338l-12 -77h-338z" />
    <glyph glyph-name="dcroat" unicode="&#x111;" horiz-adv-x="1216" 
d="M375 -20q-120 0 -192 96t-72 254q0 147 53 281t140 228t200 149.5t231 55.5q81 0 178 -34q24 158 25 166h-332l12 73h332q15 101 15 123q0 24 -12.5 33.5t-43.5 9.5h-125l4 39l267 82l32 -20l-38 -267h178l-13 -73h-176l-153 -1080l10 -8l221 137l14 -37
q-99 -103 -176 -155.5t-120 -52.5q-54 0 -54 53q0 19 66 446l-10 6q-95 -249 -212 -377t-249 -128zM399 63q88 0 190.5 121t186 319.5t117.5 411.5q-83 43 -164 66q-138 -26 -252.5 -114t-184 -229.5t-69.5 -307.5q0 -123 47 -195t129 -72z" />
    <glyph glyph-name="Emacron" unicode="&#x112;" horiz-adv-x="1339" 
d="M1126 1624h-561l15 98h561zM1079 0h-1034l6 41l96 31q47 15 66 35t25 59l145 1032q6 44 6 62q0 28 -13.5 43t-51.5 28l-88 31l6 41h1015l-12 -289h-41l-37 119q-19 60 -45 76t-102 16h-506l-82 -582h408q40 0 61 15.5t39 62.5l41 103h41l-61 -439h-41l-11 103
q-4 44 -23.5 61t-60.5 17h-403l-68 -473q-8 -54 -8 -70q0 -45 57 -45h461q78 0 116 19t71 77l73 129h41z" />
    <glyph glyph-name="emacron" unicode="&#x113;" horiz-adv-x="1003" 
d="M952 1286h-561l15 98h561zM485 -20q-164 0 -263 120t-99 320q0 168 69 312t187 228t256 84q116 0 186 -63.5t70 -167.5q0 -155 -148 -262t-364 -107q-73 0 -143 13q0 -185 71.5 -288t198.5 -103q162 0 332 167l26 -38q-165 -215 -379 -215zM778 809q0 68 -40 112t-113 56
q-144 -10 -252.5 -142t-130.5 -319q40 -6 88 -6q202 0 325 82t123 217z" />
    <glyph glyph-name="Edotaccent" unicode="&#x116;" horiz-adv-x="1339" 
d="M840 1591q-38 0 -62 24.5t-24 61.5q0 50 31.5 80.5t82.5 30.5q38 0 62 -24t24 -62q0 -50 -31.5 -80.5t-82.5 -30.5zM1079 0h-1034l6 41l96 31q47 15 66 35t25 59l145 1032q6 44 6 62q0 28 -13.5 43t-51.5 28l-88 31l6 41h1015l-12 -289h-41l-37 119q-19 60 -45 76
t-102 16h-506l-82 -582h408q40 0 61 15.5t39 62.5l41 103h41l-61 -439h-41l-11 103q-4 44 -23.5 61t-60.5 17h-403l-68 -473q-8 -54 -8 -70q0 -45 57 -45h461q78 0 116 19t71 77l73 129h41z" />
    <glyph glyph-name="edotaccent" unicode="&#x117;" horiz-adv-x="1003" 
d="M666 1253q-38 0 -62 24.5t-24 61.5q0 50 31.5 80.5t82.5 30.5q38 0 62 -24t24 -62q0 -50 -31.5 -80.5t-82.5 -30.5zM485 -20q-164 0 -263 120t-99 320q0 168 69 312t187 228t256 84q116 0 186 -63.5t70 -167.5q0 -155 -148 -262t-364 -107q-73 0 -143 13
q0 -185 71.5 -288t198.5 -103q162 0 332 167l26 -38q-165 -215 -379 -215zM778 809q0 68 -40 112t-113 56q-144 -10 -252.5 -142t-130.5 -319q40 -6 88 -6q202 0 325 82t123 217z" />
    <glyph glyph-name="Eogonek" unicode="&#x118;" horiz-adv-x="1339" 
d="M885 -481q-90 0 -139.5 42t-49.5 111q0 93 77.5 180t230.5 148h-959l6 41l96 31q47 15 66 35t25 59l145 1032q6 44 6 62q0 28 -13.5 43t-51.5 28l-88 31l6 41h1015l-12 -289h-41l-37 119q-19 60 -45 76t-102 16h-506l-82 -582h408q40 0 61 15.5t39 62.5l41 103h41
l-61 -439h-41l-11 103q-4 44 -23.5 61t-60.5 17h-403l-68 -473q-8 -54 -8 -70q0 -45 57 -45h461q78 0 116 19t71 77l73 129h41l-86 -303q-127 -58 -202.5 -143.5t-75.5 -159.5q0 -60 41.5 -92.5t120.5 -32.5q17 0 67 4v-27q-76 -30 -145 -30z" />
    <glyph glyph-name="eogonek" unicode="&#x119;" horiz-adv-x="1003" 
d="M485 -20q-164 0 -263 120t-99 320q0 168 69 312t187 228t256 84q116 0 186 -63.5t70 -167.5q0 -155 -148 -262t-364 -107q-73 0 -143 13q0 -185 71.5 -288t198.5 -103q162 0 332 167l26 -38q-115 -152 -252 -195q-126 -58 -201 -143.5t-75 -159.5q0 -60 41.5 -92.5
t120.5 -32.5q17 0 67 4v-27q-77 -30 -145 -30q-90 0 -139.5 42t-49.5 111q0 85 66 167t195 141h-7zM778 809q0 68 -40 112t-113 56q-144 -10 -252.5 -142t-130.5 -319q40 -6 88 -6q202 0 325 82t123 217z" />
    <glyph glyph-name="Ecaron" unicode="&#x11a;" horiz-adv-x="1339" 
d="M850 1528h-45l-203 330h39l203 -183l264 183h39zM1079 0h-1034l6 41l96 31q47 15 66 35t25 59l145 1032q6 44 6 62q0 28 -13.5 43t-51.5 28l-88 31l6 41h1015l-12 -289h-41l-37 119q-19 60 -45 76t-102 16h-506l-82 -582h408q40 0 61 15.5t39 62.5l41 103h41l-61 -439
h-41l-11 103q-4 44 -23.5 61t-60.5 17h-403l-68 -473q-8 -54 -8 -70q0 -45 57 -45h461q78 0 116 19t71 77l73 129h41z" />
    <glyph glyph-name="ecaron" unicode="&#x11b;" horiz-adv-x="1003" 
d="M676 1190h-45l-203 330h39l203 -183l264 183h39zM485 -20q-164 0 -263 120t-99 320q0 168 69 312t187 228t256 84q116 0 186 -63.5t70 -167.5q0 -155 -148 -262t-364 -107q-73 0 -143 13q0 -185 71.5 -288t198.5 -103q162 0 332 167l26 -38q-165 -215 -379 -215zM778 809
q0 68 -40 112t-113 56q-144 -10 -252.5 -142t-130.5 -319q40 -6 88 -6q202 0 325 82t123 217z" />
    <glyph glyph-name="Gbreve" unicode="&#x11e;" horiz-adv-x="1480" 
d="M909 1528q-92 0 -140 57.5t-48 145.5q0 32 16 86h35q0 -105 34.5 -146t119.5 -41q91 0 144 43.5t79 143.5h35q0 -131 -75.5 -210t-199.5 -79zM686 -20q-257 0 -410 160.5t-153 428.5q0 237 98.5 433t269.5 308.5t377 112.5q238 0 453 -102l-8 -283h-43q-16 117 -72 189
q-88 116 -336 116q-171 0 -313.5 -102.5t-224.5 -280t-82 -391.5q0 -227 126 -368.5t328 -141.5q112 0 223.5 24.5t165.5 61.5l43 297q7 61 7 74q0 30 -16 44t-64 28l-94 26l6 41h403l-6 -41l-55 -20q-33 -13 -44 -29.5t-16 -54.5l-53 -383q-98 -70 -231 -108.5t-279 -38.5z
" />
    <glyph glyph-name="gbreve" unicode="&#x11f;" horiz-adv-x="1155" 
d="M662 1190q-92 0 -140.5 58t-48.5 145q0 32 16 86h35q0 -105 34.5 -146t119.5 -41q91 0 144 43.5t79 143.5h35q0 -131 -75 -210t-199 -79zM305 -512q-144 0 -232.5 66t-88.5 172q0 81 90 143t305 133q-133 7 -204 97t-71 251q0 143 53.5 273t140 221.5t200 145.5t231.5 54
q91 0 195 -40l51 40l31 -20l-127 -889q-49 -339 -188.5 -493t-385.5 -154zM393 82q89 0 192 118.5t186 312.5t116 402q-81 41 -164 66q-103 -19 -195 -74t-161 -135.5t-109.5 -190.5t-40.5 -231q0 -124 47 -196t129 -72zM313 -442q187 0 308 146.5t165 430.5l54 344l-11 6
q-71 -181 -196 -340q-103 -132 -254 -198q-175 -79 -228 -119.5t-53 -101.5q0 -72 61.5 -120t153.5 -48z" />
    <glyph glyph-name="Gdotaccent" unicode="&#x120;" horiz-adv-x="1480" 
d="M918 1591q-38 0 -62.5 24.5t-24.5 61.5q0 49 32 80t83 31q38 0 62 -24t24 -62q0 -50 -31.5 -80.5t-82.5 -30.5zM686 -20q-257 0 -410 160.5t-153 428.5q0 237 98.5 433t269.5 308.5t377 112.5q238 0 453 -102l-8 -283h-43q-16 117 -72 189q-88 116 -336 116
q-171 0 -313.5 -102.5t-224.5 -280t-82 -391.5q0 -227 126 -368.5t328 -141.5q112 0 223.5 24.5t165.5 61.5l43 297q7 61 7 74q0 30 -16 44t-64 28l-94 26l6 41h403l-6 -41l-55 -20q-33 -13 -44 -29.5t-16 -54.5l-53 -383q-98 -70 -231 -108.5t-279 -38.5z" />
    <glyph glyph-name="gdotaccent" unicode="&#x121;" horiz-adv-x="1155" 
d="M670 1253q-38 0 -62 24.5t-24 61.5q0 50 31.5 80.5t82.5 30.5q38 0 62 -24t24 -62q0 -50 -31.5 -80.5t-82.5 -30.5zM305 -512q-144 0 -232.5 66t-88.5 172q0 81 90 143t305 133q-133 7 -204 97t-71 251q0 143 53.5 273t140 221.5t200 145.5t231.5 54q91 0 195 -40l51 40
l31 -20l-127 -889q-49 -339 -188.5 -493t-385.5 -154zM393 82q89 0 192 118.5t186 312.5t116 402q-81 41 -164 66q-103 -19 -195 -74t-161 -135.5t-109.5 -190.5t-40.5 -231q0 -124 47 -196t129 -72zM313 -442q187 0 308 146.5t165 430.5l54 344l-11 6q-71 -181 -196 -340
q-103 -132 -254 -198q-175 -79 -228 -119.5t-53 -101.5q0 -72 61.5 -120t153.5 -48z" />
    <glyph glyph-name="Gcommaaccent" unicode="&#x122;" horiz-adv-x="1480" 
d="M686 -20q-257 0 -410 160.5t-153 428.5q0 237 98.5 433t269.5 308.5t377 112.5q238 0 453 -102l-8 -283h-43q-16 117 -72 189q-88 116 -336 116q-171 0 -313.5 -102.5t-224.5 -280t-82 -391.5q0 -227 126 -368.5t328 -141.5q112 0 223.5 24.5t165.5 61.5l43 297
q7 61 7 74q0 30 -16 44t-64 28l-94 26l6 41h403l-6 -41l-55 -20q-33 -13 -44 -29.5t-16 -54.5l-53 -383q-98 -70 -231 -108.5t-279 -38.5zM451 -578l-19 23q83 54 133.5 123t50.5 115q0 33 -13.5 51.5t-45.5 34.5l8 36q76 54 97 54q31 0 48 -25.5t17 -71.5q0 -87 -72 -175
t-204 -165z" />
    <glyph glyph-name="gcommaaccent" unicode="&#x123;" horiz-adv-x="1155" 
d="M655 1176q-31 0 -48 25t-17 71q0 87 72 175t204 165l19 -23q-83 -54 -134 -122.5t-51 -114.5q0 -33 14 -51.5t46 -34.5l-8 -37q-74 -53 -97 -53zM305 -512q-144 0 -232.5 66t-88.5 172q0 81 90 143t305 133q-133 7 -204 97t-71 251q0 143 53.5 273t140 221.5t200 145.5
t231.5 54q91 0 195 -40l51 40l31 -20l-127 -889q-49 -339 -188.5 -493t-385.5 -154zM393 82q89 0 192 118.5t186 312.5t116 402q-81 41 -164 66q-103 -19 -195 -74t-161 -135.5t-109.5 -190.5t-40.5 -231q0 -124 47 -196t129 -72zM313 -442q187 0 308 146.5t165 430.5
l54 344l-11 6q-71 -181 -196 -340q-103 -132 -254 -198q-175 -79 -228 -119.5t-53 -101.5q0 -72 61.5 -120t153.5 -48z" />
    <glyph glyph-name="Hbar" unicode="&#x126;" horiz-adv-x="1622" 
d="M498 0h-453l6 41l96 25q47 12 66 33.5t25 66.5l118 840h-157l10 77h158q24 172 24 199q0 20 -14.5 32.5t-52.5 22.5l-88 25l6 41h452l-6 -41l-96 -25q-46 -12 -65 -33.5t-25 -66.5l-23 -154h824q24 172 24 199q0 20 -14.5 32.5t-52.5 22.5l-89 25l7 41h452l-6 -41
l-96 -25q-46 -12 -65 -33.5t-25 -66.5l-23 -154h158l-10 -77h-158l-113 -801q-8 -58 -8 -84q0 -20 15 -32.5t53 -22.5l88 -25l-6 -41h-453l6 41l96 25q47 12 66 33.5t25 66.5l71 502h-823l-66 -463q-8 -58 -8 -84q0 -20 15 -32.5t53 -22.5l88 -25zM469 1006l-37 -261h823
l37 261h-823z" />
    <glyph glyph-name="hbar" unicode="&#x127;" horiz-adv-x="1220" 
d="M252 0l-107 -20l168 1196h-182l12 73h181q12 101 12 123q0 25 -12 34t-43 9h-125l4 39l266 82l33 -20l-39 -267h332l-13 -73h-329l-99 -635l11 -6q99 265 208 387t252 122q105 0 164.5 -64t59.5 -183q0 -67 -21 -187l-92 -508l14 -8l213 131l15 -37q-196 -208 -293 -208
q-60 0 -60 53q0 15 6 53l97 522q20 105 20 183q0 73 -37 115t-96 42q-111 0 -220.5 -128.5t-190 -347t-109.5 -472.5z" />
    <glyph glyph-name="Itilde" unicode="&#x128;" horiz-adv-x="686" 
d="M641 1569q-24 0 -50 11.5t-44 25t-58 45.5q-55 44 -78 56.5t-44 12.5q-30 0 -55 -32t-40 -95h-39q14 99 56 160.5t98 61.5q37 0 72.5 -19.5t85.5 -62.5q52 -46 74.5 -58t42.5 -12q64 0 94 127h39q-14 -99 -55.5 -160t-98.5 -61zM498 0h-453l6 41l96 25q47 12 66 33.5
t25 66.5l145 1032q8 58 8 84q0 20 -14.5 32.5t-52.5 22.5l-88 25l6 41h452l-6 -41l-96 -25q-46 -12 -65 -33.5t-25 -66.5l-146 -1032q-8 -58 -8 -84q0 -20 15 -32.5t53 -22.5l88 -25z" />
    <glyph glyph-name="itilde" unicode="&#x129;" horiz-adv-x="647" 
d="M549 1231q-24 0 -50 11.5t-44 25t-58 45.5q-55 44 -78.5 56.5t-44.5 12.5q-64 0 -94 -127h-39q14 99 56 160.5t98 61.5q37 0 72.5 -19.5t85.5 -62.5q53 -46 74.5 -58t41.5 -12q30 0 55 32t40 95h38q-14 -99 -55.5 -160t-97.5 -61zM254 -20q-53 0 -53 53q0 21 10 96
l127 799l-10 8l-222 -137l-14 37q98 103 175.5 155.5t121.5 52.5q53 0 53 -53q0 -21 -10 -96l-127 -799l10 -8l222 137l14 -37q-98 -103 -175.5 -155.5t-121.5 -52.5z" />
    <glyph glyph-name="Imacron" unicode="&#x12a;" horiz-adv-x="686" 
d="M793 1624h-562l15 98h561zM498 0h-453l6 41l96 25q47 12 66 33.5t25 66.5l145 1032q8 58 8 84q0 20 -14.5 32.5t-52.5 22.5l-88 25l6 41h452l-6 -41l-96 -25q-46 -12 -65 -33.5t-25 -66.5l-146 -1032q-8 -58 -8 -84q0 -20 15 -32.5t53 -22.5l88 -25z" />
    <glyph glyph-name="imacron" unicode="&#x12b;" horiz-adv-x="647" 
d="M700 1286h-561l15 98h561zM254 -20q-53 0 -53 53q0 21 10 96l127 799l-10 8l-222 -137l-14 37q98 103 175.5 155.5t121.5 52.5q53 0 53 -53q0 -21 -10 -96l-127 -799l10 -8l222 137l14 -37q-98 -103 -175.5 -155.5t-121.5 -52.5z" />
    <glyph glyph-name="Iogonek" unicode="&#x12e;" horiz-adv-x="686" 
d="M303 -481q-90 0 -139 42t-49 111q0 94 77.5 180.5t229.5 147.5h-377l6 41l96 25q47 12 66 33.5t25 66.5l145 1032q8 58 8 84q0 20 -14.5 32.5t-52.5 22.5l-88 25l6 41h452l-6 -41l-96 -25q-46 -12 -65 -33.5t-25 -66.5l-146 -1032q-8 -58 -8 -84q0 -20 15 -32.5t53 -22.5
l88 -25l-6 -41q-127 -58 -203 -143.5t-76 -159.5q0 -60 41.5 -92.5t120.5 -32.5q18 0 68 4v-27q-77 -30 -146 -30z" />
    <glyph glyph-name="iogonek" unicode="&#x12f;" horiz-adv-x="647" 
d="M414 1270q-35 0 -60.5 25.5t-25.5 60.5q0 47 33 78.5t81 31.5q35 0 60.5 -25.5t25.5 -60.5q0 -46 -32.5 -78t-81.5 -32zM127 -481q-90 0 -139 42t-49 111q0 90 70 173.5t210 144.5q-18 13 -18 43q0 21 10 96l127 799l-10 8l-222 -137l-14 37q98 103 175.5 155.5
t121.5 52.5q53 0 53 -53q0 -21 -10 -96l-127 -799l10 -8l222 137l14 -37q-134 -140 -229 -188h-3l-12 -6q-122 -60 -193 -142.5t-71 -154.5q0 -60 41.5 -92.5t120.5 -32.5q17 0 67 4v-27q-77 -30 -145 -30z" />
    <glyph glyph-name="Idotaccent" unicode="&#x130;" horiz-adv-x="686" 
d="M506 1608q-35 0 -60.5 25.5t-25.5 60.5q0 47 33.5 78.5t81.5 31.5q35 0 60.5 -25.5t25.5 -60.5q0 -46 -33 -78t-82 -32zM498 0h-453l6 41l96 25q47 12 66 33.5t25 66.5l145 1032q8 58 8 84q0 20 -14.5 32.5t-52.5 22.5l-88 25l6 41h452l-6 -41l-96 -25q-46 -12 -65 -33.5
t-25 -66.5l-146 -1032q-8 -58 -8 -84q0 -20 15 -32.5t53 -22.5l88 -25z" />
    <glyph glyph-name="dotlessi" unicode="&#x131;" horiz-adv-x="647" 
d="M254 -20q-53 0 -53 53q0 21 10 96l127 799l-10 8l-222 -137l-14 37q98 103 175.5 155.5t121.5 52.5q53 0 53 -53q0 -21 -10 -96l-127 -799l10 -8l222 137l14 -37q-98 -103 -175.5 -155.5t-121.5 -52.5z" />
    <glyph glyph-name="Kcommaaccent" unicode="&#x136;" horiz-adv-x="1333" 
d="M498 0h-453l6 41l96 25q48 12 66.5 33t24.5 67l145 1032q8 52 8 84q0 22 -13.5 33.5t-53.5 21.5l-88 25l6 41h452l-6 -41l-96 -25q-46 -12 -65 -33.5t-25 -66.5l-68 -479h98q72 0 130 61l409 422q35 35 35 55q0 27 -62 45l-65 19l6 41h395l-6 -41l-76 -23q-28 -9 -46 -22
t-56 -53l-512 -529q42 -27 70 -78l268 -456q37 -62 62.5 -88t76.5 -45l74 -27l-4 -39h-219l-402 680h-186l-68 -475q-8 -52 -8 -84q0 -23 13.5 -33.5t54.5 -21.5l88 -25zM444 -578l-18 23q83 54 133.5 123t50.5 115q0 33 -13.5 51.5t-45.5 34.5l8 36q76 54 96 54
q31 0 48.5 -25.5t17.5 -71.5q0 -87 -72.5 -175t-204.5 -165z" />
    <glyph glyph-name="kcommaaccent" unicode="&#x137;" horiz-adv-x="1142" 
d="M252 0l-107 -20l179 1275q14 103 14 117q0 25 -12 34t-43 9h-125l4 39l266 82l33 -20l-150 -975l11 -6q93 249 214 379t248 130q88 0 149.5 -62t61.5 -151q0 -127 -112 -239t-293 -168l217 -342h16l189 139l14 -37q-93 -111 -148.5 -157.5t-91.5 -46.5q-42 0 -69 47
l-240 383l-4 43q175 37 292.5 140.5t117.5 221.5q0 57 -34.5 100t-86.5 50q-105 -12 -212 -144.5t-188 -351.5t-110 -469zM252 -578l-19 23q83 54 134 123t51 115q0 33 -14 51.5t-46 34.5l9 36q76 54 96 54q31 0 48 -25.5t17 -71.5q0 -87 -72 -175t-204 -165z" />
    <glyph glyph-name="Lacute" unicode="&#x139;" horiz-adv-x="1148" 
d="M469 1528h-43l219 330h139l-6 -37zM993 0h-948l6 41l96 25q47 12 66 33.5t25 66.5l145 1032q8 58 8 84q0 20 -14.5 32.5t-52.5 22.5l-88 25l6 41h452l-6 -41l-96 -25q-46 -12 -65 -33.5t-25 -66.5l-146 -1026q-8 -55 -8 -78q0 -32 15.5 -43.5t54.5 -11.5h344
q90 0 130.5 18.5t72.5 77.5l75 141h41z" />
    <glyph glyph-name="lacute" unicode="&#x13a;" horiz-adv-x="591" 
d="M356 1593h-43l219 330h140l-6 -37zM207 -20q-53 0 -53 53q0 21 10 96l164 1126q14 89 14 117q0 25 -12 34t-43 9h-125l4 39l266 82l33 -20l-207 -1420l10 -8l221 137l15 -37q-98 -103 -175.5 -155.5t-121.5 -52.5z" />
    <glyph glyph-name="Lcommaaccent" unicode="&#x13b;" horiz-adv-x="1148" 
d="M993 0h-948l6 41l96 25q47 12 66 33.5t25 66.5l145 1032q8 58 8 84q0 20 -14.5 32.5t-52.5 22.5l-88 25l6 41h452l-6 -41l-96 -25q-46 -12 -65 -33.5t-25 -66.5l-146 -1026q-8 -55 -8 -78q0 -32 15.5 -43.5t54.5 -11.5h344q90 0 130.5 18.5t72.5 77.5l75 141h41z
M377 -578l-19 23q83 54 134 123t51 115q0 33 -14 51.5t-46 34.5l9 36q76 54 96 54q31 0 48 -25.5t17 -71.5q0 -87 -72 -175t-204 -165z" />
    <glyph glyph-name="lcommaaccent" unicode="&#x13c;" horiz-adv-x="591" 
d="M207 -20q-53 0 -53 53q0 21 10 96l164 1126q14 89 14 117q0 25 -12 34t-43 9h-125l4 39l266 82l33 -20l-207 -1420l10 -8l221 137l15 -37q-98 -103 -175.5 -155.5t-121.5 -52.5zM6 -578l-18 23q83 54 133.5 123t50.5 115q0 33 -13.5 51.5t-45.5 34.5l8 36q76 54 96 54
q31 0 48.5 -25.5t17.5 -71.5q0 -87 -72.5 -175t-204.5 -165z" />
    <glyph glyph-name="Lcaron" unicode="&#x13d;" horiz-adv-x="1148" 
d="M993 0h-948l6 41l96 25q47 12 66 33.5t25 66.5l145 1032q8 58 8 84q0 20 -14.5 32.5t-52.5 22.5l-88 25l6 41h452l-6 -41l-96 -25q-46 -12 -65 -33.5t-25 -66.5l-146 -1026q-8 -55 -8 -78q0 -32 15.5 -43.5t54.5 -11.5h344q90 0 130.5 18.5t72.5 77.5l75 141h41z
M807 1036h-35l53 367h133l-6 -37z" />
    <glyph glyph-name="lcaron" unicode="&#x13e;" horiz-adv-x="591" 
d="M207 -20q-53 0 -53 53q0 21 10 96l164 1126q14 89 14 117q0 25 -12 34t-43 9h-125l4 39l266 82l33 -20l-207 -1420l10 -8l221 137l15 -37q-98 -103 -175.5 -155.5t-121.5 -52.5zM582 1149h-35l53 367h133l-6 -37z" />
    <glyph glyph-name="Lslash" unicode="&#x141;" horiz-adv-x="1148" 
d="M993 0h-948l6 41l96 25q47 12 66 33.5t25 66.5l57 405l-184 -106l12 96l184 107l76 530q8 58 8 84q0 20 -14.5 32.5t-52.5 22.5l-88 25l6 41h452l-6 -41l-96 -25q-46 -12 -65 -33.5t-25 -66.5l-72 -500l350 201l-12 -90l-350 -205l-62 -432q-8 -55 -8 -78
q0 -32 15.5 -43.5t54.5 -11.5h344q90 0 130.5 18.5t72.5 77.5l75 141h41z" />
    <glyph glyph-name="lslash" unicode="&#x142;" horiz-adv-x="591" 
d="M207 -20q-53 0 -53 53q0 21 10 96l86 584l-189 -119l15 98l188 119l66 444q14 89 14 117q0 25 -12 34t-43 9h-125l4 39l266 82l33 -20l-94 -635l188 118l-14 -98l-189 -119l-100 -686l10 -8l221 137l15 -37q-98 -103 -175.5 -155.5t-121.5 -52.5z" />
    <glyph glyph-name="Nacute" unicode="&#x143;" horiz-adv-x="1615" 
d="M936 1528h-43l219 330h139l-6 -37zM1260 33l-82 -60l-707 1239l-143 -1007q-6 -43 -6 -62q0 -28 13.5 -43t51.5 -28l88 -31l-6 -41h-424l6 41l96 31q47 15 66 35t25 59l145 1032q6 44 6 62q0 28 -13.5 43t-51.5 28l-88 31l6 41h245l709 -1243l145 1038q7 51 7 62
q0 28 -14 42.5t-52 28.5l-88 31l6 41h424l-6 -41l-96 -31q-46 -15 -65 -35t-25 -59z" />
    <glyph glyph-name="nacute" unicode="&#x144;" horiz-adv-x="1275" 
d="M760 1190h-43l219 330h139l-6 -37zM307 0l-106 -23l129 953l-11 8l-221 -137l-14 37q99 103 176.5 156t120.5 53q53 0 53 -54q0 -28 -67 -452l10 -6q99 265 208.5 387t252.5 122q105 0 164 -64t59 -183q0 -67 -21 -187l-92 -512l15 -8l213 131l14 -37
q-197 -209 -293 -209q-59 0 -59 54q0 16 6 53l96 526q21 110 21 183t-37.5 115t-96.5 42q-111 0 -220.5 -128.5t-190 -347t-109.5 -472.5z" />
    <glyph glyph-name="Ncommaaccent" unicode="&#x145;" horiz-adv-x="1615" 
d="M1260 33l-82 -60l-707 1239l-143 -1007q-6 -43 -6 -62q0 -28 13.5 -43t51.5 -28l88 -31l-6 -41h-424l6 41l96 31q47 15 66 35t25 59l145 1032q6 44 6 62q0 28 -13.5 43t-51.5 28l-88 31l6 41h245l709 -1243l145 1038q7 51 7 62q0 28 -14 42.5t-52 28.5l-88 31l6 41h424
l-6 -41l-96 -31q-46 -15 -65 -35t-25 -59zM502 -578l-19 23q83 54 134 123t51 115q0 33 -14 51.5t-46 34.5l8 36q76 54 97 54q31 0 48 -25.5t17 -71.5q0 -87 -72 -175t-204 -165z" />
    <glyph glyph-name="ncommaaccent" unicode="&#x146;" horiz-adv-x="1275" 
d="M307 0l-106 -23l129 953l-11 8l-221 -137l-14 37q99 103 176.5 156t120.5 53q53 0 53 -54q0 -28 -67 -452l10 -6q99 265 208.5 387t252.5 122q105 0 164 -64t59 -183q0 -67 -21 -187l-92 -512l15 -8l213 131l14 -37q-197 -209 -293 -209q-59 0 -59 54q0 16 6 53l96 526
q21 110 21 183t-37.5 115t-96.5 42q-111 0 -220.5 -128.5t-190 -347t-109.5 -472.5zM346 -578l-18 23q83 54 133.5 123t50.5 115q0 33 -13.5 51.5t-45.5 34.5l8 36q76 54 96 54q31 0 48.5 -25.5t17.5 -71.5q0 -87 -72.5 -175t-204.5 -165z" />
    <glyph glyph-name="Ncaron" unicode="&#x147;" horiz-adv-x="1615" 
d="M979 1528h-45l-203 330h39l203 -183l264 183h39zM1260 33l-82 -60l-707 1239l-143 -1007q-6 -43 -6 -62q0 -28 13.5 -43t51.5 -28l88 -31l-6 -41h-424l6 41l96 31q47 15 66 35t25 59l145 1032q6 44 6 62q0 28 -13.5 43t-51.5 28l-88 31l6 41h245l709 -1243l145 1038
q7 51 7 62q0 28 -14 42.5t-52 28.5l-88 31l6 41h424l-6 -41l-96 -31q-46 -15 -65 -35t-25 -59z" />
    <glyph glyph-name="ncaron" unicode="&#x148;" horiz-adv-x="1275" 
d="M803 1190h-45l-203 330h39l203 -183l264 183h39zM307 0l-106 -23l129 953l-11 8l-221 -137l-14 37q99 103 176.5 156t120.5 53q53 0 53 -54q0 -28 -67 -452l10 -6q99 265 208.5 387t252.5 122q105 0 164 -64t59 -183q0 -67 -21 -187l-92 -512l15 -8l213 131l14 -37
q-197 -209 -293 -209q-59 0 -59 54q0 16 6 53l96 526q21 110 21 183t-37.5 115t-96.5 42q-111 0 -220.5 -128.5t-190 -347t-109.5 -472.5z" />
    <glyph glyph-name="Eng" unicode="&#x14a;" horiz-adv-x="1615" 
d="M891 -512l-23 27q86 79 136.5 142t89.5 150t63 207l-686 1198l-143 -1007q-6 -43 -6 -62q0 -28 13.5 -43t51.5 -28l88 -31l-6 -41h-424l6 41l96 31q47 15 66 35t25 59l145 1032q6 44 6 62q0 28 -13.5 43t-51.5 28l-88 31l6 41h245l709 -1243l145 1038q7 51 7 62
q0 28 -14 42.5t-52 28.5l-88 31l6 41h424l-6 -41l-96 -31q-46 -15 -65 -35t-25 -59l-150 -1049q-29 -205 -73.5 -330.5t-117.5 -209.5t-200 -160z" />
    <glyph glyph-name="eng" unicode="&#x14b;" horiz-adv-x="1216" 
d="M571 -512l-22 27q140 129 203 270t112 410l76 413q21 110 21 183t-37.5 115t-96.5 42q-111 0 -220.5 -128.5t-190 -347t-109.5 -472.5l-106 -23l129 953l-11 8l-221 -137l-14 37q99 103 176.5 156t120.5 53q53 0 53 -54q0 -28 -67 -452l10 -6q99 265 208.5 387t252.5 122
q105 0 164 -64t59 -183q0 -67 -21 -187l-77 -422q-24 -129 -47 -217t-52.5 -163t-70.5 -129t-93.5 -100t-128.5 -91z" />
    <glyph glyph-name="Omacron" unicode="&#x14c;" horiz-adv-x="1492" 
d="M1192 1624h-561l14 98h561zM670 -20q-258 0 -402.5 160t-144.5 429q0 234 97 429.5t269.5 310t382.5 114.5q259 0 403 -159.5t144 -429.5q0 -175 -57 -332.5t-155.5 -272t-238.5 -182t-298 -67.5zM680 59q173 0 315.5 103.5t223.5 281.5t81 390q0 231 -118.5 370
t-319.5 139q-172 0 -314.5 -103t-224 -281t-81.5 -390q0 -231 119 -370.5t319 -139.5z" />
    <glyph glyph-name="omacron" unicode="&#x14d;" horiz-adv-x="1120" 
d="M952 1286h-561l15 98h561zM485 -20q-165 0 -263.5 120.5t-98.5 319.5q0 167 69 311t187 228.5t256 84.5q165 0 263.5 -120.5t98.5 -319.5q0 -167 -69 -311t-187 -228.5t-256 -84.5zM496 47q162 12 275.5 172.5t113.5 374.5q0 160 -70 264t-190 119
q-162 -12 -275.5 -172.5t-113.5 -374.5q0 -160 70 -264t190 -119z" />
    <glyph glyph-name="Ohungarumlaut" unicode="&#x150;" horiz-adv-x="1492" 
d="M981 1528h-43l209 330h141l-6 -37zM662 1528h-44l207 330h146l-6 -37zM670 -20q-258 0 -402.5 160t-144.5 429q0 234 97 429.5t269.5 310t382.5 114.5q259 0 403 -159.5t144 -429.5q0 -175 -57 -332.5t-155.5 -272t-238.5 -182t-298 -67.5zM680 59q173 0 315.5 103.5
t223.5 281.5t81 390q0 231 -118.5 370t-319.5 139q-172 0 -314.5 -103t-224 -281t-81.5 -390q0 -231 119 -370.5t319 -139.5z" />
    <glyph glyph-name="ohungarumlaut" unicode="&#x151;" horiz-adv-x="1120" 
d="M741 1190h-43l209 330h142l-7 -37zM422 1190h-43l207 330h145l-6 -37zM485 -20q-165 0 -263.5 120.5t-98.5 319.5q0 167 69 311t187 228.5t256 84.5q165 0 263.5 -120.5t98.5 -319.5q0 -167 -69 -311t-187 -228.5t-256 -84.5zM496 47q162 12 275.5 172.5t113.5 374.5
q0 160 -70 264t-190 119q-162 -12 -275.5 -172.5t-113.5 -374.5q0 -160 70 -264t190 -119z" />
    <glyph glyph-name="OE" unicode="&#x152;" horiz-adv-x="2318" 
d="M670 -20q-258 0 -402.5 160t-144.5 429q0 234 97 429.5t269.5 310t382.5 114.5q174 0 296.5 -74t185.5 -210l37 264h845l-12 -289h-41l-37 119q-19 60 -45 76t-102 16h-506l-82 -582h408q40 0 61 15.5t39 62.5l41 103h41l-62 -439h-41l-10 103q-4 44 -23.5 61t-60.5 17
h-403l-68 -473q-8 -54 -8 -70q0 -45 57 -45h461q78 0 116 19t71 77l73 129h41l-86 -303h-864l37 264q-102 -134 -246.5 -209t-314.5 -75zM680 59q173 0 315.5 103.5t223.5 281.5t81 390q0 231 -118.5 370t-319.5 139q-172 0 -314.5 -103t-224 -281t-81.5 -390
q0 -231 119 -370.5t319 -139.5z" />
    <glyph glyph-name="oe" unicode="&#x153;" horiz-adv-x="1751" 
d="M485 -20q-165 0 -263.5 120.5t-98.5 319.5q0 167 69 311t187 228.5t256 84.5q124 0 210.5 -69.5t123.5 -194.5q70 123 178 193.5t235 70.5q116 0 186 -63.5t70 -167.5q0 -155 -148 -262t-364 -107q-73 0 -143 13q0 -185 71.5 -288t198.5 -103q162 0 332 167l27 -38
q-165 -215 -379 -215q-123 0 -211 70t-125 194q-69 -121 -178 -192.5t-234 -71.5zM496 47q162 12 275.5 172.5t113.5 374.5q0 160 -70 264t-190 119q-162 -12 -275.5 -172.5t-113.5 -374.5q0 -160 70 -264t190 -119zM1526 809q0 68 -40.5 112t-113.5 56
q-144 -10 -252.5 -142t-130.5 -319q40 -6 88 -6q203 0 326 82t123 217z" />
    <glyph glyph-name="Racute" unicode="&#x154;" horiz-adv-x="1341" 
d="M831 1528h-43l220 330h139l-6 -37zM498 0h-453l6 41l96 25q47 12 66 33.5t25 66.5l145 1032q8 52 8 84q0 20 -14.5 32.5t-52.5 22.5l-88 25l6 41h518q214 0 332 -86.5t118 -241.5q0 -174 -111.5 -291.5t-310.5 -152.5q42 -25 74 -94l154 -338q27 -59 55.5 -85.5
t83.5 -47.5l74 -27l-4 -39h-236l-227 489q-62 129 -121 129h-227l-58 -413q-8 -58 -8 -84q0 -20 15 -32.5t53 -22.5l88 -25zM514 1325l-88 -629h233q192 0 312.5 101t120.5 264q0 121 -91.5 192.5t-246.5 71.5h-240z" />
    <glyph glyph-name="racute" unicode="&#x155;" horiz-adv-x="960" 
d="M569 1190h-43l219 330h140l-6 -37zM307 0l-106 -20l129 948l-11 8l-221 -137l-14 37q93 98 172 153t125 55q53 0 53 -53q0 -27 -65 -450l10 -6q192 509 442 509q87 0 146 -59l-33 -141h-37l-82 104q-107 0 -213 -125.5t-185.5 -344t-109.5 -478.5z" />
    <glyph glyph-name="Rcommaaccent" unicode="&#x156;" horiz-adv-x="1341" 
d="M498 0h-453l6 41l96 25q47 12 66 33.5t25 66.5l145 1032q8 52 8 84q0 20 -14.5 32.5t-52.5 22.5l-88 25l6 41h518q214 0 332 -86.5t118 -241.5q0 -174 -111.5 -291.5t-310.5 -152.5q42 -25 74 -94l154 -338q27 -59 55.5 -85.5t83.5 -47.5l74 -27l-4 -39h-236l-227 489
q-62 129 -121 129h-227l-58 -413q-8 -58 -8 -84q0 -20 15 -32.5t53 -22.5l88 -25zM514 1325l-88 -629h233q192 0 312.5 101t120.5 264q0 121 -91.5 192.5t-246.5 71.5h-240zM438 -578l-18 23q83 54 133.5 123t50.5 115q0 33 -13.5 51.5t-45.5 34.5l8 36q76 54 96 54
q31 0 48.5 -25.5t17.5 -71.5q0 -87 -72.5 -175t-204.5 -165z" />
    <glyph glyph-name="rcommaaccent" unicode="&#x157;" horiz-adv-x="960" 
d="M307 0l-106 -20l129 948l-11 8l-221 -137l-14 37q93 98 172 153t125 55q53 0 53 -53q0 -27 -65 -450l10 -6q192 509 442 509q87 0 146 -59l-33 -141h-37l-82 104q-107 0 -213 -125.5t-185.5 -344t-109.5 -478.5zM18 -578l-18 23q83 54 133.5 123t50.5 115
q0 33 -13.5 51.5t-45.5 34.5l8 36q76 54 96 54q31 0 48.5 -25.5t17.5 -71.5q0 -87 -72.5 -175t-204.5 -165z" />
    <glyph glyph-name="Rcaron" unicode="&#x158;" horiz-adv-x="1341" 
d="M874 1528h-45l-202 330h39l202 -183l265 183h38zM498 0h-453l6 41l96 25q47 12 66 33.5t25 66.5l145 1032q8 52 8 84q0 20 -14.5 32.5t-52.5 22.5l-88 25l6 41h518q214 0 332 -86.5t118 -241.5q0 -174 -111.5 -291.5t-310.5 -152.5q42 -25 74 -94l154 -338
q27 -59 55.5 -85.5t83.5 -47.5l74 -27l-4 -39h-236l-227 489q-62 129 -121 129h-227l-58 -413q-8 -58 -8 -84q0 -20 15 -32.5t53 -22.5l88 -25zM514 1325l-88 -629h233q192 0 312.5 101t120.5 264q0 121 -91.5 192.5t-246.5 71.5h-240z" />
    <glyph glyph-name="rcaron" unicode="&#x159;" horiz-adv-x="960" 
d="M612 1190h-45l-202 330h38l203 -183l264 183h39zM307 0l-106 -20l129 948l-11 8l-221 -137l-14 37q93 98 172 153t125 55q53 0 53 -53q0 -27 -65 -450l10 -6q192 509 442 509q87 0 146 -59l-33 -141h-37l-82 104q-107 0 -213 -125.5t-185.5 -344t-109.5 -478.5z" />
    <glyph glyph-name="Sacute" unicode="&#x15a;" horiz-adv-x="1095" 
d="M645 1528h-43l219 330h140l-7 -37zM475 -20q-125 0 -239 33.5t-177 88.5l45 314h43l13 -146q9 -112 90 -161.5t250 -49.5q148 0 249 83t101 204q0 94 -77 169.5t-253 164.5q-171 85 -246 174t-75 193q0 161 128 268.5t320 107.5q86 0 181.5 -24t164.5 -62l-4 -282h-43
l-31 121q-24 90 -101 130t-206 40q-124 0 -213.5 -80t-89.5 -191q0 -86 65.5 -155t227.5 -154q181 -92 268.5 -189t87.5 -206q0 -169 -136 -280t-343 -111z" />
    <glyph glyph-name="sacute" unicode="&#x15b;" horiz-adv-x="909" 
d="M510 1190h-43l219 330h139l-6 -37zM397 -20q-200 0 -331 110l43 119h36l138 -139q59 -19 123 -19q102 0 175.5 59t73.5 142q0 66 -46 121t-175 123q-138 73 -199 143t-61 160q0 113 92.5 179t243.5 66q174 0 299 -104l-43 -117h-35l-129 140q-43 12 -96 12
q-97 0 -160 -44t-63 -116q0 -69 46.5 -120t164.5 -115q155 -85 212.5 -156t57.5 -162q0 -117 -105.5 -199.5t-261.5 -82.5z" />
    <glyph glyph-name="Scedilla" unicode="&#x15e;" horiz-adv-x="1095" 
d="M254 -532l-8 20q115 70 161 119.5t46 113.5q0 101 -191 101l166 160q-114 6 -213.5 38t-155.5 82l45 314h43l13 -146q9 -112 90 -161.5t250 -49.5q148 0 249 83t101 204q0 94 -77 169.5t-253 164.5q-171 85 -246 174t-75 193q0 161 128 268.5t320 107.5q86 0 181.5 -24
t164.5 -62l-4 -282h-43l-31 121q-24 90 -101 130t-206 40q-124 0 -213.5 -80t-89.5 -191q0 -86 65.5 -155t227.5 -154q181 -92 268.5 -189t87.5 -206q0 -168 -134 -279.5t-333 -111.5l-84 -109q71 0 111.5 -32t40.5 -87q0 -86 -81 -162t-220 -122z" />
    <glyph glyph-name="scedilla" unicode="&#x15f;" horiz-adv-x="909" 
d="M186 -532l-8 20q115 70 161 119.5t46 113.5q0 101 -190 101l165 160q-175 10 -294 108l43 119h36l138 -139q59 -19 123 -19q102 0 175.5 59t73.5 142q0 66 -46 121t-175 123q-138 73 -199 143t-61 160q0 113 92.5 179t243.5 66q174 0 299 -104l-43 -117h-35l-129 140
q-43 12 -96 12q-97 0 -160 -44t-63 -116q0 -69 46.5 -120t164.5 -115q155 -85 212.5 -156t57.5 -162q0 -111 -98 -193t-246 -89l-84 -109q70 0 110.5 -31.5t40.5 -87.5q0 -86 -81 -162t-220 -122z" />
    <glyph glyph-name="Scaron" unicode="&#x160;" horiz-adv-x="1095" 
d="M688 1528h-45l-203 330h39l203 -183l264 183h39zM475 -20q-125 0 -239 33.5t-177 88.5l45 314h43l13 -146q9 -112 90 -161.5t250 -49.5q148 0 249 83t101 204q0 94 -77 169.5t-253 164.5q-171 85 -246 174t-75 193q0 161 128 268.5t320 107.5q86 0 181.5 -24t164.5 -62
l-4 -282h-43l-31 121q-24 90 -101 130t-206 40q-124 0 -213.5 -80t-89.5 -191q0 -86 65.5 -155t227.5 -154q181 -92 268.5 -189t87.5 -206q0 -169 -136 -280t-343 -111z" />
    <glyph glyph-name="scaron" unicode="&#x161;" horiz-adv-x="909" 
d="M553 1190h-45l-203 330h39l203 -183l264 183h39zM397 -20q-200 0 -331 110l43 119h36l138 -139q59 -19 123 -19q102 0 175.5 59t73.5 142q0 66 -46 121t-175 123q-138 73 -199 143t-61 160q0 113 92.5 179t243.5 66q174 0 299 -104l-43 -117h-35l-129 140q-43 12 -96 12
q-97 0 -160 -44t-63 -116q0 -69 46.5 -120t164.5 -115q155 -85 212.5 -156t57.5 -162q0 -117 -105.5 -199.5t-261.5 -82.5z" />
    <glyph glyph-name="Tcedilla" unicode="&#x162;" horiz-adv-x="1300" 
d="M358 -532l-8 20q115 70 161 119.5t46 113.5q0 101 -190 101l186 178h-221l6 41l117 29q48 11 65.5 32.5t24.5 63.5l164 1159h-250q-64 0 -103.5 -26t-89.5 -101l-73 -113h-41l75 318h1096l-14 -318h-41l-41 113q-28 75 -60 101t-96 26h-250l-159 -1128q-7 -47 -7 -68
q0 -42 68 -59l108 -29l-6 -41h-217l-100 -129q70 0 110.5 -31.5t40.5 -87.5q0 -86 -81 -162t-220 -122z" />
    <glyph glyph-name="tcedilla" unicode="&#x163;" horiz-adv-x="765" 
d="M125 -532l-8 20q115 70 161 119.5t46 113.5q0 101 -191 101l168 160q-55 9 -80.5 42t-25.5 93q0 26 14 129l102 702h-178l8 58l178 20l107 274l33 -14l-37 -262h309l-12 -76h-309l-107 -760q-4 -32 -4 -49q0 -40 17 -58t55 -18q21 0 45 9l246 153l14 -37
q-122 -112 -191.5 -157t-126.5 -51l-84 -109q71 0 111.5 -32t40.5 -87q0 -86 -81 -162t-220 -122z" />
    <glyph glyph-name="Tcaron" unicode="&#x164;" horiz-adv-x="1300" 
d="M819 1528h-45l-203 330h39l203 -183l264 183h39zM825 0h-493l6 41l117 29q48 11 65.5 32.5t24.5 63.5l164 1159h-250q-64 0 -103.5 -26t-89.5 -101l-73 -113h-41l75 318h1096l-14 -318h-41l-41 113q-28 75 -60 101t-96 26h-250l-159 -1128q-7 -47 -7 -68q0 -42 68 -59
l108 -29z" />
    <glyph glyph-name="tcaron" unicode="&#x165;" horiz-adv-x="765" 
d="M649 1130h-35l54 367h133l-6 -37zM340 -20q-75 0 -110 34t-35 103q0 26 14 129l102 702h-178l8 58l178 20l107 274l33 -14l-37 -262h309l-12 -76h-309l-107 -760q-4 -32 -4 -49q0 -40 17 -58t55 -18q21 0 45 9l246 153l14 -37q-133 -121 -203.5 -164.5t-132.5 -43.5z" />
    <glyph glyph-name="Tbar" unicode="&#x166;" horiz-adv-x="1239" 
d="M825 0h-493l6 41l117 29q48 11 65.5 32.5t24.5 63.5l71 504h-327l10 73h328l82 582h-250q-64 0 -103.5 -26t-89.5 -101l-73 -113h-41l75 318h1096l-14 -318h-41l-41 113q-28 75 -60 101t-96 26h-250l-82 -582h328l-10 -73h-328l-67 -473q-7 -47 -7 -68q0 -42 68 -59
l108 -29z" />
    <glyph glyph-name="tbar" unicode="&#x167;" horiz-adv-x="765" 
d="M340 -20q-75 0 -110 34t-35 103q0 26 14 129l47 321h-145l10 72h145l45 309h-178l8 58l178 20l107 274l33 -14l-37 -262h309l-12 -76h-309l-43 -309h268l-10 -72h-269l-53 -379q-4 -32 -4 -49q0 -40 17 -58t55 -18q21 0 45 9l246 153l14 -37q-133 -121 -203.5 -164.5
t-132.5 -43.5z" />
    <glyph glyph-name="Utilde" unicode="&#x168;" horiz-adv-x="1609" 
d="M1116 1569q-24 0 -50 11.5t-43 24.5t-58 46q-55 44 -78.5 56.5t-44.5 12.5q-64 0 -94 -127h-39q14 99 55.5 160.5t97.5 61.5q37 0 72.5 -19.5t85.5 -62.5q52 -46 74.5 -58t42.5 -12q64 0 94 127h39q-14 -99 -55.5 -160t-98.5 -61zM737 -20q-463 0 -463 378q0 78 15 177
l92 663q6 46 6 62q0 28 -13.5 43t-51.5 28l-89 31l7 41h452l-6 -41l-96 -31q-46 -15 -65 -34.5t-25 -59.5l-103 -733q-10 -68 -10 -115q0 -166 91 -247t278 -81q213 0 331.5 117t151.5 350l92 670q6 46 6 62q0 28 -13.5 43t-51.5 28l-88 31l6 41h426l-6 -41l-97 -31
q-47 -15 -66 -35.5t-24 -58.5l-100 -723q-35 -243 -162 -379q-62 -67 -181.5 -111t-242.5 -44z" />
    <glyph glyph-name="utilde" unicode="&#x169;" horiz-adv-x="1257" 
d="M874 1231q-24 0 -50 11.5t-43 24.5t-58 46q-55 44 -78.5 56.5t-44.5 12.5q-64 0 -94 -127h-39q14 99 56 160.5t98 61.5q37 0 72 -19t85 -63q52 -46 74.5 -58t42.5 -12q64 0 94 127h39q-14 -99 -55.5 -160t-98.5 -61zM436 -20q-105 0 -164 64t-59 183q0 73 20 187l93 508
l-15 8l-213 -131l-14 37q196 208 293 208q59 0 59 -53q0 -15 -6 -53l-96 -522q-21 -110 -21 -183t37 -115t96 -42q107 0 213 128.5t184 346.5t107 471l107 22l-129 -948l10 -8l221 137l15 -37q-98 -103 -175.5 -155.5t-121.5 -52.5q-54 0 -54 53q0 21 68 450l-10 6
q-100 -266 -204.5 -387.5t-240.5 -121.5z" />
    <glyph glyph-name="Umacron" unicode="&#x16a;" horiz-adv-x="1609" 
d="M1268 1624h-561l14 98h561zM737 -20q-463 0 -463 378q0 78 15 177l92 663q6 46 6 62q0 28 -13.5 43t-51.5 28l-89 31l7 41h452l-6 -41l-96 -31q-46 -15 -65 -34.5t-25 -59.5l-103 -733q-10 -68 -10 -115q0 -166 91 -247t278 -81q213 0 331.5 117t151.5 350l92 670
q6 46 6 62q0 28 -13.5 43t-51.5 28l-88 31l6 41h426l-6 -41l-97 -31q-47 -15 -66 -35.5t-24 -58.5l-100 -723q-35 -243 -162 -379q-62 -67 -181.5 -111t-242.5 -44z" />
    <glyph glyph-name="umacron" unicode="&#x16b;" horiz-adv-x="1257" 
d="M1026 1286h-561l14 98h561zM436 -20q-105 0 -164 64t-59 183q0 73 20 187l93 508l-15 8l-213 -131l-14 37q196 208 293 208q59 0 59 -53q0 -15 -6 -53l-96 -522q-21 -110 -21 -183t37 -115t96 -42q107 0 213 128.5t184 346.5t107 471l107 22l-129 -948l10 -8l221 137
l15 -37q-98 -103 -175.5 -155.5t-121.5 -52.5q-54 0 -54 53q0 21 68 450l-10 6q-100 -266 -204.5 -387.5t-240.5 -121.5z" />
    <glyph glyph-name="Uring" unicode="&#x16e;" horiz-adv-x="1609" 
d="M969 1513q-89 0 -140 42.5t-51 113.5q0 77 69.5 141t170.5 64q88 0 139 -42.5t51 -113.5q0 -78 -69 -141.5t-170 -63.5zM977 1573q57 0 102 40.5t45 94.5q0 46 -32 76.5t-82 30.5q-57 0 -102.5 -41t-45.5 -95q0 -46 32 -76t83 -30zM737 -20q-463 0 -463 378q0 78 15 177
l92 663q6 46 6 62q0 28 -13.5 43t-51.5 28l-89 31l7 41h452l-6 -41l-96 -31q-46 -15 -65 -34.5t-25 -59.5l-103 -733q-10 -68 -10 -115q0 -166 91 -247t278 -81q213 0 331.5 117t151.5 350l92 670q6 46 6 62q0 28 -13.5 43t-51.5 28l-88 31l6 41h426l-6 -41l-97 -31
q-47 -15 -66 -35.5t-24 -58.5l-100 -723q-35 -243 -162 -379q-62 -67 -181.5 -111t-242.5 -44z" />
    <glyph glyph-name="uring" unicode="&#x16f;" horiz-adv-x="1257" 
d="M727 1176q-89 0 -139.5 42t-50.5 113q0 78 69 141.5t170 63.5q89 0 140 -42.5t51 -113.5q0 -77 -69 -140.5t-171 -63.5zM735 1235q57 0 102.5 40.5t45.5 94.5q0 46 -32 76.5t-83 30.5q-57 0 -102 -41t-45 -95q0 -46 31.5 -76t82.5 -30zM436 -20q-105 0 -164 64t-59 183
q0 73 20 187l93 508l-15 8l-213 -131l-14 37q196 208 293 208q59 0 59 -53q0 -15 -6 -53l-96 -522q-21 -110 -21 -183t37 -115t96 -42q107 0 213 128.5t184 346.5t107 471l107 22l-129 -948l10 -8l221 137l15 -37q-98 -103 -175.5 -155.5t-121.5 -52.5q-54 0 -54 53
q0 21 68 450l-10 6q-100 -266 -204.5 -387.5t-240.5 -121.5z" />
    <glyph glyph-name="Uhungarumlaut" unicode="&#x170;" horiz-adv-x="1609" 
d="M1057 1528h-43l209 330h141l-6 -37zM737 1528h-43l207 330h146l-7 -37zM737 -20q-463 0 -463 378q0 78 15 177l92 663q6 46 6 62q0 28 -13.5 43t-51.5 28l-89 31l7 41h452l-6 -41l-96 -31q-46 -15 -65 -34.5t-25 -59.5l-103 -733q-10 -68 -10 -115q0 -166 91 -247
t278 -81q213 0 331.5 117t151.5 350l92 670q6 46 6 62q0 28 -13.5 43t-51.5 28l-88 31l6 41h426l-6 -41l-97 -31q-47 -15 -66 -35.5t-24 -58.5l-100 -723q-35 -243 -162 -379q-62 -67 -181.5 -111t-242.5 -44z" />
    <glyph glyph-name="uhungarumlaut" unicode="&#x171;" horiz-adv-x="1257" 
d="M815 1190h-43l209 330h141l-6 -37zM496 1190h-43l206 330h146l-6 -37zM436 -20q-105 0 -164 64t-59 183q0 73 20 187l93 508l-15 8l-213 -131l-14 37q196 208 293 208q59 0 59 -53q0 -15 -6 -53l-96 -522q-21 -110 -21 -183t37 -115t96 -42q107 0 213 128.5t184 346.5
t107 471l107 22l-129 -948l10 -8l221 137l15 -37q-98 -103 -175.5 -155.5t-121.5 -52.5q-54 0 -54 53q0 21 68 450l-10 6q-100 -266 -204.5 -387.5t-240.5 -121.5z" />
    <glyph glyph-name="Uogonek" unicode="&#x172;" horiz-adv-x="1609" 
d="M737 -20q-463 0 -463 378q0 78 15 177l92 663q6 46 6 62q0 28 -13.5 43t-51.5 28l-89 31l7 41h452l-6 -41l-96 -31q-46 -15 -65 -34.5t-25 -59.5l-103 -733q-10 -68 -10 -115q0 -166 91 -247t278 -81q213 0 331.5 117t151.5 350l92 670q6 46 6 62q0 28 -13.5 43t-51.5 28
l-88 31l6 41h426l-6 -41l-97 -31q-47 -15 -66 -35.5t-24 -58.5l-100 -723q-35 -243 -162 -379q-44 -47 -121 -84.5t-168 -56.5q-122 -58 -193 -141.5t-71 -155.5q0 -60 41.5 -92.5t120.5 -32.5q18 0 68 4v-27q-76 -30 -146 -30q-90 0 -139 42t-49 111q0 87 66 168t196 140
h-29z" />
    <glyph glyph-name="uogonek" unicode="&#x173;" horiz-adv-x="1257" 
d="M436 -20q-105 0 -164 64t-59 183q0 73 20 187l93 508l-15 8l-213 -131l-14 37q196 208 293 208q59 0 59 -53q0 -15 -6 -53l-96 -522q-21 -110 -21 -183t37 -115t96 -42q107 0 213 128.5t184 346.5t107 471l107 22l-129 -948l10 -8l221 137l15 -37q-171 -180 -273 -204
q-113 -60 -178.5 -139.5t-65.5 -147.5q0 -60 41.5 -92.5t120.5 -32.5q18 0 68 4v-27q-77 -30 -146 -30q-90 0 -139 42t-49 111q0 90 72.5 174.5t214.5 145.5q-17 14 -17 41q0 21 68 450l-10 6q-100 -266 -204.5 -387.5t-240.5 -121.5z" />
    <glyph glyph-name="Wcircumflex" unicode="&#x174;" horiz-adv-x="2011" 
d="M944 1528h-39l297 330h45l203 -330h-39l-207 176zM567 6l-90 -26l-209 1273q-6 40 -19 55.5t-54 28.5l-74 25l6 41h426l-6 -41l-72 -21q-64 -19 -81 -31.5t-17 -31.5q0 -11 8 -66l172 -1046l539 1214l92 25l225 -1243l434 1052q25 59 25 72q0 19 -14 29.5t-58 23.5
l-74 23l7 41h405l-6 -41l-82 -25q-45 -14 -63 -29t-35 -55l-522 -1247l-91 -26l-231 1245z" />
    <glyph glyph-name="wcircumflex" unicode="&#x175;" horiz-adv-x="1669" 
d="M752 1190h-39l297 330h45l202 -330h-38l-207 176zM500 4l-66 -24q-92 578 -186 958h-17l-198 -135l-15 37q79 96 147.5 150t110.5 54q32 0 47.5 -14t24.5 -53q107 -453 156 -817l407 831l74 33q111 -456 170 -881q293 447 342 703l-63 127l6 39l106 30q17 -15 29 -50.5
t12 -69.5q0 -124 -109 -356.5t-331 -561.5l-66 -24q-74 463 -163 868z" />
    <glyph glyph-name="Ycircumflex" unicode="&#x176;" horiz-adv-x="1191" 
d="M512 1528h-39l297 330h45l203 -330h-39l-207 176zM780 0h-493l6 41l117 29q48 11 65.5 32.5t24.5 63.5l55 362l-315 725q-18 39 -31.5 52t-52.5 28l-74 29l6 41h442l-6 -41l-71 -25q-54 -18 -72.5 -29t-18.5 -28q0 -30 15 -66l258 -593l397 602q33 49 33 61
q0 14 -14 25.5t-58 27.5l-67 25l6 41h407l-6 -41l-82 -29q-43 -15 -61 -29t-43 -51l-485 -725l-46 -331q-6 -40 -6 -68q0 -21 15.5 -35t52.5 -24l108 -29z" />
    <glyph glyph-name="ycircumflex" unicode="&#x177;" horiz-adv-x="1081" 
d="M420 1190h-39l297 330h45l203 -330h-39l-207 176zM41 -512q-35 0 -69.5 24t-45.5 70l23 35q41 -6 69 -6q60 0 116 33.5t132.5 122.5t186.5 253q-116 642 -205 918h-17l-198 -135l-15 37q79 96 147.5 150t110.5 54q28 0 45 -15t29 -52q110 -346 182 -832
q174 263 261.5 426t113.5 275l-61 123l6 39l106 30q17 -15 29 -50.5t12 -69.5q0 -109 -111 -322t-366 -594q-120 -178 -191 -276.5t-125.5 -153.5t-87 -69.5t-77.5 -14.5z" />
    <glyph glyph-name="Ydieresis" unicode="&#x178;" horiz-adv-x="1191" 
d="M926 1591q-38 0 -62 24.5t-24 61.5q0 50 31.5 80.5t82.5 30.5q38 0 62 -24t24 -62q0 -50 -31.5 -80.5t-82.5 -30.5zM575 1591q-38 0 -62 24.5t-24 61.5q0 49 32 80t83 31q38 0 62 -24t24 -62q0 -49 -32 -80t-83 -31zM780 0h-493l6 41l117 29q48 11 65.5 32.5t24.5 63.5
l55 362l-315 725q-18 39 -31.5 52t-52.5 28l-74 29l6 41h442l-6 -41l-71 -25q-54 -18 -72.5 -29t-18.5 -28q0 -30 15 -66l258 -593l397 602q33 49 33 61q0 14 -14 25.5t-58 27.5l-67 25l6 41h407l-6 -41l-82 -29q-43 -15 -61 -29t-43 -51l-485 -725l-46 -331q-6 -40 -6 -68
q0 -21 15.5 -35t52.5 -24l108 -29z" />
    <glyph glyph-name="Zacute" unicode="&#x179;" horiz-adv-x="1159" 
d="M702 1528h-43l220 330h139l-6 -37zM987 0h-960l4 78l997 1247h-553q-78 0 -113.5 -24t-82.5 -111l-66 -121h-41l80 334h917l-4 -78l-1007 -1247h606q78 0 120 27.5t81 99.5l69 129h41z" />
    <glyph glyph-name="zacute" unicode="&#x17a;" horiz-adv-x="989" 
d="M571 1190h-43l220 330h139l-6 -37zM170 39l-104 -59l-39 45l712 866l-456 57l-86 -213h-39q14 146 43 234q13 42 36 58.5t66 16.5q31 0 78 -6l410 -51l98 57l39 -45l-711 -862l498 -61l112 213h39q-36 -158 -69 -234q-20 -45 -41 -60t-62 -15q-32 0 -78 6z" />
    <glyph glyph-name="Zdotaccent" unicode="&#x17b;" horiz-adv-x="1159" 
d="M735 1591q-38 0 -62 24.5t-24 61.5q0 49 32 80t83 31q38 0 62 -24t24 -62q0 -49 -32 -80t-83 -31zM987 0h-960l4 78l997 1247h-553q-78 0 -113.5 -24t-82.5 -111l-66 -121h-41l80 334h917l-4 -78l-1007 -1247h606q78 0 120 27.5t81 99.5l69 129h41z" />
    <glyph glyph-name="zdotaccent" unicode="&#x17c;" horiz-adv-x="989" 
d="M604 1253q-38 0 -62 24.5t-24 61.5q0 49 32 80t83 31q38 0 62 -24t24 -62q0 -49 -32 -80t-83 -31zM170 39l-104 -59l-39 45l712 866l-456 57l-86 -213h-39q14 146 43 234q13 42 36 58.5t66 16.5q31 0 78 -6l410 -51l98 57l39 -45l-711 -862l498 -61l112 213h39
q-36 -158 -69 -234q-20 -45 -41 -60t-62 -15q-32 0 -78 6z" />
    <glyph glyph-name="Zcaron" unicode="&#x17d;" horiz-adv-x="1159" 
d="M745 1528h-45l-202 330h39l202 -183l265 183h38zM987 0h-960l4 78l997 1247h-553q-78 0 -113.5 -24t-82.5 -111l-66 -121h-41l80 334h917l-4 -78l-1007 -1247h606q78 0 120 27.5t81 99.5l69 129h41z" />
    <glyph glyph-name="zcaron" unicode="&#x17e;" horiz-adv-x="989" 
d="M614 1190h-45l-202 330h39l202 -183l264 183h39zM170 39l-104 -59l-39 45l712 866l-456 57l-86 -213h-39q14 146 43 234q13 42 36 58.5t66 16.5q31 0 78 -6l410 -51l98 57l39 -45l-711 -862l498 -61l112 213h39q-36 -158 -69 -234q-20 -45 -41 -60t-62 -15q-32 0 -78 6z
" />
    <glyph glyph-name="florin" unicode="&#x192;" horiz-adv-x="1146" 
d="M35 -512q-52 0 -98 13.5t-117 49.5l65 207h37q17 -98 50 -144t87 -46q71 0 125.5 81t106.5 265l211 737h-209l14 58l219 30l84 295q59 203 145 296t216 93q53 0 99 -13.5t116 -49.5l-66 -207h-37q-15 98 -48 144t-89 46q-69 0 -124 -81.5t-107 -264.5l-76 -264h315
l-22 -82h-314l-225 -774q-59 -204 -143 -296.5t-215 -92.5z" />
    <glyph glyph-name="Scommaaccent" unicode="&#x218;" horiz-adv-x="1095" 
d="M475 -20q-125 0 -239 33.5t-177 88.5l45 314h43l13 -146q9 -112 90 -161.5t250 -49.5q148 0 249 83t101 204q0 94 -77 169.5t-253 164.5q-171 85 -246 174t-75 193q0 161 128 268.5t320 107.5q86 0 181.5 -24t164.5 -62l-4 -282h-43l-31 121q-24 90 -101 130t-206 40
q-124 0 -213.5 -80t-89.5 -191q0 -86 65.5 -155t227.5 -154q181 -92 268.5 -189t87.5 -206q0 -169 -136 -280t-343 -111zM238 -578l-19 23q83 54 133.5 123t50.5 115q0 33 -13.5 51.5t-45.5 34.5l8 36q76 54 97 54q31 0 48 -25.5t17 -71.5q0 -87 -72 -175t-204 -165z" />
    <glyph glyph-name="scommaaccent" unicode="&#x219;" horiz-adv-x="909" 
d="M397 -20q-200 0 -331 110l43 119h36l138 -139q59 -19 123 -19q102 0 175.5 59t73.5 142q0 66 -46 121t-175 123q-138 73 -199 143t-61 160q0 113 92.5 179t243.5 66q174 0 299 -104l-43 -117h-35l-129 140q-43 12 -96 12q-97 0 -160 -44t-63 -116q0 -69 46.5 -120
t164.5 -115q155 -85 212.5 -156t57.5 -162q0 -117 -105.5 -199.5t-261.5 -82.5zM170 -578l-18 23q83 54 133.5 123t50.5 115q0 33 -14 51.5t-46 34.5l9 36q76 54 96 54q31 0 48 -25.5t17 -71.5q0 -87 -72 -175t-204 -165z" />
    <glyph glyph-name="Tcommaaccent" unicode="&#x21a;" horiz-adv-x="1300" 
d="M825 0h-493l6 41l117 29q48 11 65.5 32.5t24.5 63.5l164 1159h-250q-64 0 -103.5 -26t-89.5 -101l-73 -113h-41l75 318h1096l-14 -318h-41l-41 113q-28 75 -60 101t-96 26h-250l-159 -1128q-7 -47 -7 -68q0 -42 68 -59l108 -29zM342 -578l-18 23q83 54 133.5 123
t50.5 115q0 33 -13.5 51.5t-45.5 34.5l8 36q76 54 96 54q31 0 48 -25.5t17 -71.5q0 -87 -72 -175t-204 -165z" />
    <glyph glyph-name="tcommaaccent" unicode="&#x21b;" horiz-adv-x="765" 
d="M340 -20q-75 0 -110 34t-35 103q0 26 14 129l102 702h-178l8 58l178 20l107 274l33 -14l-37 -262h309l-12 -76h-309l-107 -760q-4 -32 -4 -49q0 -40 17 -58t55 -18q21 0 45 9l246 153l14 -37q-133 -121 -203.5 -164.5t-132.5 -43.5zM109 -578l-19 23q83 54 133.5 123
t50.5 115q0 33 -13.5 51.5t-45.5 34.5l8 36q76 54 96 54q31 0 48.5 -25.5t17.5 -71.5q0 -87 -72 -175t-204 -165z" />
    <glyph glyph-name="commaturnedmod" unicode="&#x2bb;" 
d="M477 1176q-31 0 -48 25t-17 71q0 87 72 175t204 165l19 -23q-83 -54 -134 -122.5t-51 -114.5q0 -33 14 -51.5t46 -34.5l-9 -37q-74 -53 -96 -53z" />
    <glyph glyph-name="circumflex" unicode="&#x2c6;" 
d="M301 1190h-39l297 330h45l203 -330h-39l-207 176z" />
    <glyph glyph-name="caron" unicode="&#x2c7;" 
d="M557 1190h-45l-203 330h39l203 -183l264 183h39z" />
    <glyph glyph-name="breve" unicode="&#x2d8;" 
d="M539 1190q-92 0 -140.5 58t-48.5 145q0 29 17 86h34q0 -105 34.5 -146t119.5 -41q91 0 144 43.5t79 143.5h35q0 -131 -75 -210t-199 -79z" />
    <glyph glyph-name="dotaccent" unicode="&#x2d9;" 
d="M543 1253q-38 0 -62 24.5t-24 61.5q0 50 31.5 80.5t82.5 30.5q38 0 62 -24t24 -62q0 -50 -31.5 -80.5t-82.5 -30.5z" />
    <glyph glyph-name="ring" unicode="&#x2da;" 
d="M535 1176q-89 0 -140 42t-51 113q0 77 69.5 141t170.5 64q88 0 139 -42.5t51 -113.5q0 -77 -69 -140.5t-170 -63.5zM543 1235q57 0 102 40.5t45 94.5q0 46 -32 76.5t-83 30.5q-57 0 -102 -41t-45 -95q0 -46 32 -76t83 -30z" />
    <glyph glyph-name="ogonek" unicode="&#x2db;" 
d="M317 -481q-90 0 -139 42t-49 111q0 94 77.5 180.5t229.5 147.5h76q-127 -58 -203 -143.5t-76 -159.5q0 -60 41.5 -92.5t120.5 -32.5q18 0 68 4v-27q-77 -30 -146 -30z" />
    <glyph glyph-name="tilde" unicode="&#x2dc;" 
d="M682 1231q-24 0 -50 11.5t-44 25t-58 45.5q-55 44 -78 56.5t-44 12.5q-30 0 -55 -32t-40 -95h-39q14 99 56 160.5t98 61.5q37 0 72.5 -19.5t85.5 -62.5q53 -46 74.5 -58t41.5 -12q30 0 55 32t40 95h39q-14 -99 -55.5 -160t-98.5 -61z" />
    <glyph glyph-name="hungarumlaut" unicode="&#x2dd;" 
d="M643 1190h-43l209 330h141l-6 -37zM324 1190h-43l206 330h146l-6 -37z" />
    <glyph glyph-name="gravecomb" unicode="&#x300;" horiz-adv-x="374" 
d="M446 1190h-43l-241 293l6 37h133z" />
    <glyph glyph-name="acutecomb" unicode="&#x301;" horiz-adv-x="362" 
d="M164 1190h-43l219 330h139l-6 -37z" />
    <glyph glyph-name="circumflexcomb" unicode="&#x302;" horiz-adv-x="593" 
d="M160 1190h-39l297 330h45l203 -330h-39l-207 176z" />
    <glyph glyph-name="tildecomb" unicode="&#x303;" horiz-adv-x="581" 
d="M537 1231q-24 0 -50 11.5t-44 25t-58 45.5q-55 44 -78.5 56.5t-44.5 12.5q-64 0 -94 -127h-39q14 99 56 160.5t98 61.5q37 0 72 -19t85 -63q52 -46 74.5 -58t42.5 -12q64 0 94 127h39q-14 -99 -55.5 -160t-97.5 -61z" />
    <glyph glyph-name="macroncomb" unicode="&#x304;" horiz-adv-x="610" 
d="M694 1286h-561l14 98h562z" />
    <glyph glyph-name="brevecomb" unicode="&#x306;" horiz-adv-x="505" 
d="M338 1190q-92 0 -140 57.5t-48 145.5q0 32 16 86h35q0 -105 34 -146t119 -41q91 0 144.5 43.5t79.5 143.5h34q0 -131 -75 -210t-199 -79z" />
    <glyph glyph-name="dotaccentcomb" unicode="&#x307;" horiz-adv-x="247" 
d="M227 1253q-38 0 -62 24.5t-24 61.5q0 49 32 80t83 31q38 0 62 -24t24 -62q0 -49 -32 -80t-83 -31z" />
    <glyph glyph-name="dieresiscomb" unicode="&#x308;" horiz-adv-x="598" 
d="M578 1253q-38 0 -62 24.5t-24 61.5q0 50 31.5 80.5t82.5 30.5q38 0 62 -24t24 -62q0 -50 -31.5 -80.5t-82.5 -30.5zM227 1253q-38 0 -62 24.5t-24 61.5q0 49 32 80t83 31q38 0 62 -24t24 -62q0 -49 -32 -80t-83 -31z" />
    <glyph glyph-name="ringcomb" unicode="&#x30a;" horiz-adv-x="475" 
d="M332 1176q-89 0 -140 42t-51 113q0 77 69.5 141t170.5 64q88 0 139 -42.5t51 -113.5q0 -77 -69 -140.5t-170 -63.5zM340 1235q57 0 102 40.5t45 94.5q0 46 -32 76.5t-82 30.5q-57 0 -102.5 -41t-45.5 -95q0 -46 32 -76t83 -30z" />
    <glyph glyph-name="hungarumlautcomb" unicode="&#x30b;" horiz-adv-x="673" 
d="M483 1190h-43l209 330h142l-7 -37zM164 1190h-43l207 330h145l-6 -37z" />
    <glyph glyph-name="caroncomb" unicode="&#x30c;" horiz-adv-x="593" 
d="M414 1190h-45l-203 330h39l203 -183l264 183h39z" />
    <glyph glyph-name="commaturnedabovecomb" unicode="&#x312;" horiz-adv-x="301" 
d="M199 1176q-31 0 -48.5 25t-17.5 71q0 87 72.5 175t204.5 165l18 -23q-83 -54 -133.5 -122.5t-50.5 -114.5q0 -33 13.5 -51.5t45.5 -34.5l-8 -37q-74 -53 -96 -53z" />
    <glyph glyph-name="commaabovecomb" unicode="&#x313;" horiz-adv-x="301" 
d="M199 1176q-31 0 -48.5 25t-17.5 71q0 87 72.5 175t204.5 165l18 -23q-83 -54 -133.5 -122.5t-50.5 -114.5q0 -33 13.5 -51.5t45.5 -34.5l-8 -37q-74 -53 -96 -53z" />
    <glyph glyph-name="commaaccentcomb" unicode="&#x326;" horiz-adv-x="301" 
d="M-106 -578l-19 23q83 54 133.5 123t50.5 115q0 33 -13.5 51.5t-45.5 34.5l8 36q76 54 96 54q31 0 48.5 -25.5t17.5 -71.5q0 -87 -72 -175t-204 -165z" />
    <glyph glyph-name="cedillacomb" unicode="&#x327;" horiz-adv-x="354" 
d="M-80 -532l-8 20q115 70 161 119.5t46 113.5q0 101 -191 101l209 201h49l-116 -152q70 0 110.5 -31.5t40.5 -87.5q0 -86 -81 -162t-220 -122z" />
    <glyph glyph-name="ogonekcomb" unicode="&#x328;" horiz-adv-x="401" 
d="M96 -481q-90 0 -139 42t-49 111q0 94 77.5 180.5t229.5 147.5h76q-127 -58 -203 -143.5t-76 -159.5q0 -60 41.5 -92.5t120.5 -32.5q18 0 68 4v-27q-77 -30 -146 -30z" />
    <glyph glyph-name="Delta" unicode="&#x394;" horiz-adv-x="1386" 
d="M1214 0h-1191l6 39l766 1364l51 18l375 -1382zM782 1214l-635 -1136h953z" />
    <glyph glyph-name="Omega" unicode="&#x3a9;" horiz-adv-x="1560" 
d="M612 0h-530l6 258h41l47 -100q19 -41 39 -56.5t57 -15.5h281q-186 94 -288.5 255.5t-102.5 350.5q0 138 54 269.5t149.5 233.5t237.5 164t306 62q258 0 413 -149t155 -387q0 -154 -67 -304.5t-202 -282t-319 -212.5h280q37 0 61 15.5t56 56.5l76 100h41l-68 -258h-530
l-4 86q280 161 418.5 364t138.5 416q0 209 -126.5 343t-334.5 134q-133 0 -249.5 -56t-196 -148t-125 -210.5t-45.5 -242.5q0 -170 90 -323t270 -277z" />
    <glyph glyph-name="mu" unicode="&#x3bc;" horiz-adv-x="1212" 
d="M211 -362h-125l197 1386h102l-88 -610q-10 -71 -10 -117q0 -225 245 -225q84 0 173 40t159 107l115 805h102l-112 -784q-6 -49 -6 -74q0 -37 15 -54t50 -18l82 -2v-37l-195 -75h-34l-29 153q-68 -70 -165.5 -111.5t-186.5 -41.5q-205 0 -279 124l-6 -436z" />
    <glyph glyph-name="pi" unicode="&#x3c0;" horiz-adv-x="1298" 
d="M375 0h-113l-12 45l184 870h-166l-94 -106l-37 16l84 172q47 27 129 27h694q88 0 132 55l63 78l37 -12l-82 -230h-219q-50 -445 -61 -556t-11 -158q0 -35 25 -52t82 -22l53 -4v-39l-137 -84q-71 0 -109.5 25.5t-38.5 72.5q0 56 39 301l82 516h-395z" />
    <glyph glyph-name="Wgrave" unicode="&#x1e80;" horiz-adv-x="2011" 
d="M1217 1528h-43l-242 293l6 37h133zM567 6l-90 -26l-209 1273q-6 40 -19 55.5t-54 28.5l-74 25l6 41h426l-6 -41l-72 -21q-64 -19 -81 -31.5t-17 -31.5q0 -11 8 -66l172 -1046l539 1214l92 25l225 -1243l434 1052q25 59 25 72q0 19 -14 29.5t-58 23.5l-74 23l7 41h405
l-6 -41l-82 -25q-45 -14 -63 -29t-35 -55l-522 -1247l-91 -26l-231 1245z" />
    <glyph glyph-name="wgrave" unicode="&#x1e81;" horiz-adv-x="1669" 
d="M1024 1190h-43l-242 293l6 37h134zM500 4l-66 -24q-92 578 -186 958h-17l-198 -135l-15 37q79 96 147.5 150t110.5 54q32 0 47.5 -14t24.5 -53q107 -453 156 -817l407 831l74 33q111 -456 170 -881q293 447 342 703l-63 127l6 39l106 30q17 -15 29 -50.5t12 -69.5
q0 -124 -109 -356.5t-331 -561.5l-66 -24q-74 463 -163 868z" />
    <glyph glyph-name="Wacute" unicode="&#x1e82;" horiz-adv-x="2011" 
d="M1157 1528h-43l219 330h140l-7 -37zM567 6l-90 -26l-209 1273q-6 40 -19 55.5t-54 28.5l-74 25l6 41h426l-6 -41l-72 -21q-64 -19 -81 -31.5t-17 -31.5q0 -11 8 -66l172 -1046l539 1214l92 25l225 -1243l434 1052q25 59 25 72q0 19 -14 29.5t-58 23.5l-74 23l7 41h405
l-6 -41l-82 -25q-45 -14 -63 -29t-35 -55l-522 -1247l-91 -26l-231 1245z" />
    <glyph glyph-name="wacute" unicode="&#x1e83;" horiz-adv-x="1669" 
d="M965 1190h-43l219 330h139l-6 -37zM500 4l-66 -24q-92 578 -186 958h-17l-198 -135l-15 37q79 96 147.5 150t110.5 54q32 0 47.5 -14t24.5 -53q107 -453 156 -817l407 831l74 33q111 -456 170 -881q293 447 342 703l-63 127l6 39l106 30q17 -15 29 -50.5t12 -69.5
q0 -124 -109 -356.5t-331 -561.5l-66 -24q-74 463 -163 868z" />
    <glyph glyph-name="Wdieresis" unicode="&#x1e84;" horiz-adv-x="2011" 
d="M1358 1591q-38 0 -62 24.5t-24 61.5q0 50 31.5 80.5t82.5 30.5q38 0 62.5 -24t24.5 -62q0 -49 -32 -80t-83 -31zM1008 1591q-38 0 -62 24.5t-24 61.5q0 50 31.5 80.5t82.5 30.5q38 0 62 -24t24 -62q0 -50 -31.5 -80.5t-82.5 -30.5zM567 6l-90 -26l-209 1273
q-6 40 -19 55.5t-54 28.5l-74 25l6 41h426l-6 -41l-72 -21q-64 -19 -81 -31.5t-17 -31.5q0 -11 8 -66l172 -1046l539 1214l92 25l225 -1243l434 1052q25 59 25 72q0 19 -14 29.5t-58 23.5l-74 23l7 41h405l-6 -41l-82 -25q-45 -14 -63 -29t-35 -55l-522 -1247l-91 -26
l-231 1245z" />
    <glyph glyph-name="wdieresis" unicode="&#x1e85;" horiz-adv-x="1669" 
d="M1165 1253q-38 0 -62 24.5t-24 61.5q0 49 32 80t83 31q38 0 62 -24t24 -62q0 -49 -32 -80t-83 -31zM815 1253q-38 0 -62 24.5t-24 61.5q0 49 32 80t83 31q38 0 62 -24t24 -62q0 -49 -32 -80t-83 -31zM500 4l-66 -24q-92 578 -186 958h-17l-198 -135l-15 37
q79 96 147.5 150t110.5 54q32 0 47.5 -14t24.5 -53q107 -453 156 -817l407 831l74 33q111 -456 170 -881q293 447 342 703l-63 127l6 39l106 30q17 -15 29 -50.5t12 -69.5q0 -124 -109 -356.5t-331 -561.5l-66 -24q-74 463 -163 868z" />
    <glyph glyph-name="Germandbls" unicode="&#x1e9e;" horiz-adv-x="1349" 
d="M907 -20q-105 0 -187 20.5t-153 71.5l49 221h41l19 -117q10 -62 76.5 -90.5t167.5 -28.5q123 0 201.5 61.5t78.5 180.5q0 56 -32.5 100t-116.5 97q-125 80 -159 113q-59 55 -52 110q10 7 47 34t54.5 41t50.5 42.5t50.5 52.5t37.5 57t29 70t9 78q0 115 -99 173t-265 58
h-240l-186 -1325h-283l6 41l96 31q45 15 65 33.5t26 60.5l151 1071q6 39 -7.5 59t-57.5 35l-88 31l6 41h518q226 0 349.5 -70t123.5 -215q0 -57 -19.5 -110t-45 -90t-69 -77t-72.5 -61t-75 -51q13 -32 47 -60.5t115 -78.5q201 -125 201 -279q0 -146 -114 -238.5t-294 -92.5z
" />
    <glyph glyph-name="Etilde" unicode="&#x1ebc;" horiz-adv-x="1339" 
d="M975 1569q-24 0 -50 11.5t-44 25t-58 45.5q-55 44 -78.5 56.5t-44.5 12.5q-64 0 -94 -127h-39q14 99 56 160.5t98 61.5q37 0 72.5 -19.5t85.5 -62.5q53 -46 74.5 -58t41.5 -12q30 0 55 32t40 95h38q-14 -99 -55.5 -160t-97.5 -61zM1079 0h-1034l6 41l96 31q47 15 66 35
t25 59l145 1032q6 44 6 62q0 28 -13.5 43t-51.5 28l-88 31l6 41h1015l-12 -289h-41l-37 119q-19 60 -45 76t-102 16h-506l-82 -582h408q40 0 61 15.5t39 62.5l41 103h41l-61 -439h-41l-11 103q-4 44 -23.5 61t-60.5 17h-403l-68 -473q-8 -54 -8 -70q0 -45 57 -45h461
q78 0 116 19t71 77l73 129h41z" />
    <glyph glyph-name="etilde" unicode="&#x1ebd;" horiz-adv-x="1003" 
d="M801 1231q-24 0 -50 11.5t-44 25t-58 45.5q-55 44 -78.5 56.5t-44.5 12.5q-64 0 -94 -127h-39q14 99 56 160.5t98 61.5q37 0 72.5 -19.5t85.5 -62.5q53 -46 74.5 -58t41.5 -12q64 0 94 127h39q-14 -99 -55.5 -160t-97.5 -61zM485 -20q-164 0 -263 120t-99 320
q0 168 69 312t187 228t256 84q116 0 186 -63.5t70 -167.5q0 -155 -148 -262t-364 -107q-73 0 -143 13q0 -185 71.5 -288t198.5 -103q162 0 332 167l26 -38q-165 -215 -379 -215zM778 809q0 68 -40 112t-113 56q-144 -10 -252.5 -142t-130.5 -319q40 -6 88 -6q202 0 325 82
t123 217z" />
    <glyph glyph-name="Ygrave" unicode="&#x1ef2;" horiz-adv-x="1191" 
d="M784 1528h-43l-241 293l6 37h133zM780 0h-493l6 41l117 29q48 11 65.5 32.5t24.5 63.5l55 362l-315 725q-18 39 -31.5 52t-52.5 28l-74 29l6 41h442l-6 -41l-71 -25q-54 -18 -72.5 -29t-18.5 -28q0 -30 15 -66l258 -593l397 602q33 49 33 61q0 14 -14 25.5t-58 27.5
l-67 25l6 41h407l-6 -41l-82 -29q-43 -15 -61 -29t-43 -51l-485 -725l-46 -331q-6 -40 -6 -68q0 -21 15.5 -35t52.5 -24l108 -29z" />
    <glyph glyph-name="ygrave" unicode="&#x1ef3;" horiz-adv-x="1081" 
d="M692 1190h-43l-241 293l6 37h133zM41 -512q-35 0 -69.5 24t-45.5 70l23 35q41 -6 69 -6q60 0 116 33.5t132.5 122.5t186.5 253q-116 642 -205 918h-17l-198 -135l-15 37q79 96 147.5 150t110.5 54q28 0 45 -15t29 -52q110 -346 182 -832q174 263 261.5 426t113.5 275
l-61 123l6 39l106 30q17 -15 29 -50.5t12 -69.5q0 -109 -111 -322t-366 -594q-120 -178 -191 -276.5t-125.5 -153.5t-87 -69.5t-77.5 -14.5z" />
    <glyph glyph-name="Ytilde" unicode="&#x1ef8;" horiz-adv-x="1191" 
d="M893 1569q-24 0 -50 11.5t-44 25t-58 45.5q-55 44 -78.5 56.5t-44.5 12.5q-64 0 -94 -127h-39q14 99 56 160.5t98 61.5q37 0 72.5 -19.5t85.5 -62.5q53 -46 74.5 -58t41.5 -12q30 0 55 32t40 95h39q-14 -99 -55.5 -160t-98.5 -61zM780 0h-493l6 41l117 29
q48 11 65.5 32.5t24.5 63.5l55 362l-315 725q-18 39 -31.5 52t-52.5 28l-74 29l6 41h442l-6 -41l-71 -25q-54 -18 -72.5 -29t-18.5 -28q0 -30 15 -66l258 -593l397 602q33 49 33 61q0 14 -14 25.5t-58 27.5l-67 25l6 41h407l-6 -41l-82 -29q-43 -15 -61 -29t-43 -51
l-485 -725l-46 -331q-6 -40 -6 -68q0 -21 15.5 -35t52.5 -24l108 -29z" />
    <glyph glyph-name="ytilde" unicode="&#x1ef9;" horiz-adv-x="1081" 
d="M801 1231q-24 0 -50 11.5t-44 25t-58 45.5q-55 44 -78.5 56.5t-44.5 12.5q-64 0 -94 -127h-39q14 99 56 160.5t98 61.5q37 0 72.5 -19.5t85.5 -62.5q53 -46 74.5 -58t41.5 -12q64 0 94 127h39q-14 -99 -55.5 -160t-97.5 -61zM41 -512q-35 0 -69.5 24t-45.5 70l23 35
q41 -6 69 -6q60 0 116 33.5t132.5 122.5t186.5 253q-116 642 -205 918h-17l-198 -135l-15 37q79 96 147.5 150t110.5 54q28 0 45 -15t29 -52q110 -346 182 -832q174 263 261.5 426t113.5 275l-61 123l6 39l106 30q17 -15 29 -50.5t12 -69.5q0 -109 -111 -322t-366 -594
q-120 -178 -191 -276.5t-125.5 -153.5t-87 -69.5t-77.5 -14.5z" />
    <glyph glyph-name="endash" unicode="&#x2013;" horiz-adv-x="995" 
d="M903 584h-792l12 86h792z" />
    <glyph glyph-name="emdash" unicode="&#x2014;" horiz-adv-x="1753" 
d="M1661 584h-1550l12 86h1550z" />
    <glyph glyph-name="quoteleft" unicode="&#x2018;" horiz-adv-x="430" 
d="M295 1110q-32 0 -53 28.5t-21 71.5q0 85 80 190t195 169l28 -33q-159 -113 -159 -238q0 -66 59 -90l-6 -39q-102 -59 -123 -59z" />
    <glyph glyph-name="quoteright" unicode="&#x2019;" horiz-adv-x="430" 
d="M170 1110l-29 33q160 114 160 237q0 66 -59 90l6 39q104 60 123 60q32 0 52.5 -29t20.5 -72q0 -85 -79.5 -189.5t-194.5 -168.5z" />
    <glyph glyph-name="quotesinglbase" unicode="&#x201a;" horiz-adv-x="430" 
d="M-29 -276l-28 32q159 113 159 238q0 66 -59 90l6 39q102 59 123 59q32 0 53 -28.5t21 -71.5q0 -85 -80 -189.5t-195 -168.5z" />
    <glyph glyph-name="quotedblleft" unicode="&#x201c;" horiz-adv-x="737" 
d="M602 1110q-32 0 -53 28.5t-21 71.5q0 85 80 190t195 169l28 -33q-159 -113 -159 -238q0 -66 59 -90l-6 -39q-102 -59 -123 -59zM295 1110q-32 0 -53 28.5t-21 71.5q0 85 80 190t195 169l28 -33q-159 -113 -159 -238q0 -66 59 -90l-6 -39q-102 -59 -123 -59z" />
    <glyph glyph-name="quotedblright" unicode="&#x201d;" horiz-adv-x="737" 
d="M170 1110l-29 33q160 114 160 237q0 66 -59 90l6 39q104 60 123 60q32 0 52.5 -29t20.5 -72q0 -85 -79.5 -189.5t-194.5 -168.5zM477 1110l-28 33q159 113 159 237q0 66 -59 90l6 39q104 60 123 60q32 0 53 -29t21 -72q0 -85 -80 -189.5t-195 -168.5z" />
    <glyph glyph-name="quotedblbase" unicode="&#x201e;" horiz-adv-x="737" 
d="M279 -276l-29 32q160 114 160 238q0 65 -60 90l6 39q102 59 123 59q32 0 53 -28.5t21 -71.5q0 -85 -79.5 -189.5t-194.5 -168.5zM-29 -276l-28 32q159 113 159 238q0 66 -59 90l6 39q102 59 123 59q32 0 53 -28.5t21 -71.5q0 -85 -80 -189.5t-195 -168.5z" />
    <glyph glyph-name="dagger" unicode="&#x2020;" horiz-adv-x="1060" 
d="M416 -418h-31l80 916l6 51l94 422l-340 -43h-43l21 137h43l327 -41l11 336l6 43h133l-6 -43l-84 -336l340 41h43l-21 -137h-43l-327 43l-25 -422l-6 -51z" />
    <glyph glyph-name="daggerdbl" unicode="&#x2021;" horiz-adv-x="1060" 
d="M475 -356h-133l6 43l84 336l-340 -41h-43l21 137h43l327 -43l25 422l6 51l94 422l-340 -43h-43l21 137h43l327 -41l11 336l6 43h133l-6 -43l-84 -336l340 41h43l-21 -137h-43l-327 43l-25 -422l-6 -51l-94 -422l340 43h43l-21 -137h-43l-327 41l-11 -336z" />
    <glyph glyph-name="bullet" unicode="&#x2022;" horiz-adv-x="645" 
d="M319 494q-77 0 -128.5 52t-51.5 128q0 98 68.5 163.5t169.5 65.5q77 0 128.5 -51.5t51.5 -128.5q0 -98 -68.5 -163.5t-169.5 -65.5z" />
    <glyph glyph-name="ellipsis" unicode="&#x2026;" horiz-adv-x="1372" 
d="M1081 -20q-38 0 -64 26t-26 64q0 49 34 81.5t85 32.5q38 0 64 -26t26 -64q0 -49 -34 -81.5t-85 -32.5zM139 -20q-38 0 -64 26t-26 64q0 49 34 81.5t85 32.5q38 0 64 -26t26 -64q0 -49 -34 -81.5t-85 -32.5zM610 -20q-38 0 -64 26t-26 64q0 49 34 81.5t85 32.5
q38 0 64 -26t26 -64q0 -49 -34 -81.5t-85 -32.5z" />
    <glyph glyph-name="perthousand" unicode="&#x2030;" horiz-adv-x="2392" 
d="M406 672q-109 0 -175.5 81t-66.5 214q0 183 101.5 314.5t242.5 131.5q109 0 175.5 -81t66.5 -214q0 -183 -101.5 -314.5t-242.5 -131.5zM399 0h-100l1012 1376h100zM414 735q103 0 172 113t69 280q0 104 -41 163t-114 59q-103 0 -172.5 -113.5t-69.5 -280.5
q0 -104 41 -162.5t115 -58.5zM1221 -12q-109 0 -175.5 81t-66.5 214q0 183 101.5 314.5t242.5 131.5q109 0 175.5 -81t66.5 -214q0 -183 -101.5 -314.5t-242.5 -131.5zM1937 -12q-109 0 -175 81t-66 214q0 183 101.5 314.5t242.5 131.5q109 0 175 -81t66 -214
q0 -183 -101.5 -314.5t-242.5 -131.5zM1229 51q103 0 172 113t69 280q0 104 -41 163t-114 59q-103 0 -172.5 -113.5t-69.5 -280.5q0 -104 41 -162.5t115 -58.5zM1946 51q103 0 172 113t69 280q0 104 -41 163t-114 59q-103 0 -172.5 -113.5t-69.5 -280.5q0 -104 41 -162.5
t115 -58.5z" />
    <glyph glyph-name="guilsinglleft" unicode="&#x2039;" horiz-adv-x="555" 
d="M387 129l-35 -20l-262 393l4 33l373 393l31 -21l-277 -389z" />
    <glyph glyph-name="guilsinglright" unicode="&#x203a;" horiz-adv-x="555" 
d="M463 502l-373 -393l-31 20l277 389l-166 389l35 21l262 -393z" />
    <glyph glyph-name="fraction" unicode="&#x2044;" horiz-adv-x="522" 
d="M-195 -2h-100l1012 1376h100z" />
    <glyph glyph-name="zero.superior" unicode="&#x2070;" horiz-adv-x="794" 
d="M414 616q-112 0 -174 83.5t-62 230.5q0 213 98 352t246 139q112 0 174 -83t62 -230q0 -214 -97.5 -353t-246.5 -139zM422 670q105 0 176.5 128.5t71.5 323.5q0 116 -40.5 181t-113.5 65q-105 0 -176.5 -129t-71.5 -324q0 -116 40.5 -180.5t113.5 -64.5z" />
    <glyph glyph-name="four.superior" unicode="&#x2074;" horiz-adv-x="712" 
d="M520 604h-84l27 191h-365l-2 32l451 576h84l-76 -545h104l-8 -63h-104zM532 1305l-344 -447h283z" />
    <glyph glyph-name="eight.superior" unicode="&#x2078;" horiz-adv-x="733" 
d="M362 608q-104 0 -165.5 45.5t-61.5 122.5q0 76 56.5 141.5t162.5 110.5q-139 88 -139 186q0 89 75.5 148t188.5 59q92 0 147.5 -40t55.5 -111q0 -68 -52.5 -127t-144.5 -94q93 -55 131.5 -100t38.5 -101q0 -100 -84.5 -170t-208.5 -70zM446 1071q152 96 152 199
q0 50 -33.5 75t-93.5 25q-73 0 -120.5 -38.5t-47.5 -100.5q0 -40 32 -76.5t111 -83.5zM373 662q81 0 136.5 47.5t55.5 115.5q0 44 -40.5 85.5t-137.5 95.5q-168 -101 -168 -222q0 -56 42 -89t112 -33z" />
    <glyph glyph-name="Euro" unicode="&#x20ac;" horiz-adv-x="1187" 
d="M680 -12q-222 0 -350 134t-137 367h-175l13 78h164q0 128 34 246h-166l13 78h178q83 240 250 385t373 145q89 0 170.5 -21.5t185.5 -72.5l-6 -248h-43q-47 95 -72 129q-57 74 -112 103.5t-142 29.5q-152 0 -282.5 -124t-200.5 -326h487l-12 -78h-502q-35 -122 -35 -246
h504l-12 -78h-492q15 -190 115.5 -304.5t259.5 -114.5q85 0 144.5 18.5t109.5 61.5q80 70 152 206h39l-58 -243q-182 -125 -395 -125z" />
    <glyph glyph-name="indianrupee" unicode="&#x20b9;" horiz-adv-x="1146" 
d="M897 0h-238l-227 489q-60 129 -119 129h-157l12 78h164q160 0 271 75t145 202h-541l10 78h541q0 130 -86.5 202t-245.5 72h-170l10 78h860l-10 -78h-381q142 -93 142 -274h200l-10 -78h-201q-32 -133 -138.5 -223t-266.5 -119q45 -26 76 -94l151 -338q27 -59 55.5 -85.5
t83.5 -47.5l74 -27z" />
    <glyph glyph-name="turkishlira" unicode="&#x20ba;" horiz-adv-x="1146" 
d="M344 0h-283l7 41l96 25q46 12 65 33.5t25 66.5l45 323l-197 -106l13 90l198 107l35 258l-196 -107l12 90l196 107l39 270q9 65 9 84q0 20 -15 32.5t-53 22.5l-88 25l6 41h453l-6 -41l-97 -25q-46 -12 -65 -33.5t-25 -66.5l-35 -246l422 228l-12 -89l-422 -227l-37 -260
l424 227l-14 -88l-422 -227l-66 -469h45q244 0 406 163t201 435h39l67 -100q-82 -277 -284.5 -430.5t-485.5 -153.5z" />
    <glyph glyph-name="ruble" unicode="&#x20bd;" horiz-adv-x="1146" 
d="M483 0h-473l6 41l97 25q46 12 65 33.5t25 66.5l18 135h-180l12 78h180l35 246h-180l10 77h181l69 496q8 58 8 84q0 20 -14.5 32.5t-52.5 22.5l-88 25l6 41h508q207 0 319.5 -83.5t112.5 -238.5q0 -96 -35.5 -178.5t-104 -144.5t-175.5 -97.5t-242 -35.5h-209l-35 -246
h414l-12 -78h-414q-21 -147 -21 -176q0 -22 14.5 -35t53.5 -22l108 -27zM479 1325l-88 -623h211q201 0 313.5 103t112.5 264q0 122 -83 189t-234 67h-232z" />
    <glyph glyph-name="litre" unicode="&#x2113;" horiz-adv-x="946" 
d="M524 -20q-61 0 -98.5 13t-65 42.5t-41 92t-19 146.5t-5.5 220q-111 -60 -217 -97l-17 45q130 57 234 133v572q0 190 69 289.5t201 99.5q114 0 183 -80t69 -211q0 -192 -108.5 -370t-300.5 -312v-121q0 -99 4 -159.5t13 -105.5t28 -66t44.5 -30t67.5 -9q70 0 121 14.5
t115 48.5l22 -49q-64 -46 -145.5 -76t-153.5 -30zM408 1147v-481q147 132 226 288.5t79 323.5q0 85 -39 135.5t-105 50.5q-82 0 -121.5 -77t-39.5 -240z" />
    <glyph glyph-name="trademark" unicode="&#x2122;" horiz-adv-x="1597" 
d="M932 743h-213v25l45 20q21 10 28 19t9 27l49 464q2 25 2 37q0 18 -35 29l-39 12v27h160l213 -543l199 543h166v-27l-39 -12q-35 -11 -35 -29q0 -12 2 -37l49 -464q2 -18 9 -27.5t28 -18.5l45 -20v-25h-234v25l41 18q31 13 31 31q0 11 -2 29l-43 434l-194 -532l-58 -11
l-211 541l-43 -434q-2 -18 -2 -29q0 -16 31 -29l41 -18v-25zM553 743h-252v25l41 16q26 11 36.5 20.5t10.5 24.5v517h-115q-27 0 -41 -10.5t-32 -43.5l-29 -53h-25l13 164h534l13 -164h-25l-29 53q-18 33 -32 43.5t-41 10.5h-115v-517q0 -15 10.5 -24.5t36.5 -20.5l41 -16
v-25z" />
    <glyph glyph-name="Ohm" unicode="&#x2126;" horiz-adv-x="1560" 
d="M612 0h-530l6 258h41l47 -100q19 -41 39 -56.5t57 -15.5h281q-186 94 -288.5 255.5t-102.5 350.5q0 138 54 269.5t149.5 233.5t237.5 164t306 62q258 0 413 -149t155 -387q0 -154 -67 -304.5t-202 -282t-319 -212.5h280q37 0 61 15.5t56 56.5l76 100h41l-68 -258h-530
l-4 86q280 161 418.5 364t138.5 416q0 209 -126.5 343t-334.5 134q-133 0 -249.5 -56t-196 -148t-125 -210.5t-45.5 -242.5q0 -170 90 -323t270 -277z" />
    <glyph glyph-name="estimated" unicode="&#x212e;" horiz-adv-x="1554" 
d="M823 -2q-319 0 -509.5 197.5t-190.5 521.5q0 129 50.5 252.5t137 218.5t212.5 153t268 58q183 0 329.5 -86.5t229 -239.5t82.5 -342h-1096v-416q80 -113 207 -173t286 -60q148 0 286 64t220 163l56 -47q-100 -122 -249 -193t-319 -71zM336 1079v-274h878v305
q-73 98 -181.5 153.5t-244.5 55.5q-138 0 -256 -65t-196 -175z" />
    <glyph glyph-name="oneeighth" unicode="&#x215b;" horiz-adv-x="1599" 
d="M453 616h-306l5 37l67 23q31 11 41.5 21.5t13.5 35.5l70 496q4 28 4 41q0 38 -57 47l-45 8l6 31l182 67l21 -14l-90 -635q-2 -12 -3.5 -25t-2.5 -19t-1 -9q0 -17 8 -26.5t31 -18.5l62 -23zM299 -2h-100l1011 1376h101zM1157 -6q-104 0 -165.5 45.5t-61.5 122.5
q0 76 56.5 141.5t162.5 110.5q-139 88 -139 186q0 89 75.5 148t188.5 59q92 0 147.5 -40.5t55.5 -111.5q0 -68 -52.5 -127t-144.5 -94q93 -55 131.5 -100t38.5 -101q0 -100 -84.5 -169.5t-208.5 -69.5zM1241 457q152 96 152 198q0 50 -33.5 75.5t-93.5 25.5
q-73 0 -120.5 -39t-47.5 -101q0 -40 32 -76t111 -83zM1167 47q81 0 137 48t56 116q0 44 -40.5 85t-137.5 95q-168 -101 -168 -221q0 -57 42 -90t111 -33z" />
    <glyph glyph-name="partialdiff" unicode="&#x2202;" horiz-adv-x="1120" 
d="M395 -20q-153 0 -239 92.5t-86 253.5q0 112 40 217.5t108 186t166.5 129t209.5 48.5q86 0 164.5 -30.5t128.5 -83.5q8 52 8 114q0 237 -138 384t-372 153l12 49q18 2 45 2q261 0 413.5 -163t152.5 -443q0 -170 -49 -335.5t-131 -291.5t-196 -204t-237 -78zM401 55
q72 0 149 50t140.5 132.5t111 194t64.5 227.5q-13 69 -91 120.5t-167 51.5q-123 0 -222.5 -72.5t-152.5 -187t-53 -243.5q0 -126 59 -199.5t162 -73.5z" />
    <glyph glyph-name="emptyset" unicode="&#x2205;" horiz-adv-x="1353" 
d="M186 -2h-108l160 162q-115 134 -115 315q0 118 50 232.5t134 203t204 143t251 54.5q179 0 311 -107l105 107h114l-162 -162q113 -129 113 -311q0 -118 -50 -233t-134 -203.5t-203.5 -143.5t-249.5 -55q-182 0 -313 106zM311 233l693 699q-109 88 -254 88
q-108 0 -207 -46.5t-168.5 -120.5t-110.5 -169t-41 -190q0 -149 88 -261zM618 88q107 0 205.5 46.5t168 121.5t110.5 172t41 197q0 141 -84 249l-694 -698q109 -88 253 -88z" />
    <glyph glyph-name="increment" unicode="&#x2206;" horiz-adv-x="1386" 
d="M1214 0h-1191l6 39l766 1364l51 18l375 -1382zM782 1214l-635 -1136h953z" />
    <glyph glyph-name="product" unicode="&#x220f;" horiz-adv-x="1662" 
d="M537 -291h-453l4 41l96 31q47 15 66.5 34.5t25.5 59.5l193 1372q10 68 10 88q0 33 -15 45.5t-54 12.5h-168l10 77h1427l-10 -77h-168q-49 0 -67 -20.5t-27 -82.5l-190 -1360q-11 -71 -11 -77q0 -27 15 -43.5t51 -28.5l88 -31l-4 -41h-453l4 41l97 31q47 15 66.5 34.5
t25.5 59.5l213 1518h-707l-205 -1456q-10 -68 -10 -84q0 -27 15 -43.5t51 -28.5l88 -31z" />
    <glyph glyph-name="summation" unicode="&#x2211;" horiz-adv-x="1325" 
d="M1010 -262h-1028l10 76l633 798l-412 774l10 78h1014l-14 -299h-41l-47 109q-33 74 -64 93t-110 19h-625l405 -759l-620 -787h663q65 0 111.5 23.5t93.5 89.5l78 108h41z" />
    <glyph glyph-name="minus" unicode="&#x2212;" horiz-adv-x="1083" 
d="M979 649h-836l13 90h835z" />
    <glyph glyph-name="radical" unicode="&#x221a;" horiz-adv-x="1316" 
d="M573 0h-30l-310 762h-176l6 47l189 98h45l287 -706l700 1376h96z" />
    <glyph glyph-name="infinity" unicode="&#x221e;" horiz-adv-x="1499" 
d="M381 354q-113 0 -179.5 76.5t-66.5 202.5q0 169 99.5 290t250.5 121q187 0 303 -264q202 264 388 264q112 0 176.5 -74.5t64.5 -199.5q0 -111 -45.5 -206.5t-124.5 -152.5t-172 -57q-199 0 -313 264q-114 -144 -200.5 -204t-180.5 -60zM387 461q83 0 167 60.5t181 189.5
q-43 109 -113.5 168t-158.5 59q-111 0 -182.5 -84.5t-71.5 -202.5q0 -86 48 -138t130 -52zM1098 461q105 0 175 86t70 198q0 88 -46 140.5t-123 52.5q-86 0 -172.5 -62t-184.5 -194q105 -221 281 -221z" />
    <glyph glyph-name="integral" unicode="&#x222b;" horiz-adv-x="888" 
d="M106 -512q-96 0 -178 53l47 211h43q23 -115 46 -151.5t73 -36.5q64 0 103.5 88t68.5 299l164 1171q31 223 102.5 318.5t206.5 95.5q42 0 92 -14.5t87 -38.5l-48 -211h-43q-23 116 -46 152t-72 36q-64 0 -103.5 -88t-68.5 -299l-164 -1171q-31 -222 -103 -318t-207 -96z
" />
    <glyph glyph-name="approxequal" unicode="&#x2248;" horiz-adv-x="1099" 
d="M766 741q-85 0 -195 62q-64 36 -94 47.5t-61 11.5q-94 0 -205 -96l-43 65q131 125 254 125q77 0 192 -59q71 -36 103.5 -48.5t64.5 -12.5q100 0 203 100l41 -66q-132 -129 -260 -129zM723 426q-89 0 -197 61q-65 37 -94.5 48.5t-60.5 11.5q-94 0 -205 -96l-43 65
q134 125 254 125q77 0 192 -59q73 -37 104.5 -49.5t63.5 -12.5q99 0 203 101l43 -66q-71 -68 -132.5 -98.5t-127.5 -30.5z" />
    <glyph glyph-name="notequal" unicode="&#x2260;" horiz-adv-x="1073" 
d="M252 268h-102l180 215h-209l12 90h273l198 238h-438l12 90h502l182 217h103l-183 -217h222l-13 -90h-284l-199 -238h450l-12 -90h-514z" />
    <glyph glyph-name="lessequal" unicode="&#x2264;" horiz-adv-x="1060" 
d="M942 547l-14 -94l-770 309l6 47l858 309l-12 -94l-686 -238zM903 270h-815l12 82h815z" />
    <glyph glyph-name="greaterequal" unicode="&#x2265;" horiz-adv-x="1062" 
d="M975 762l-860 -309l14 94l684 239l-616 238l12 94l772 -309zM905 270h-815l12 82h816z" />
    <glyph glyph-name="lozenge" unicode="&#x25ca;" horiz-adv-x="1134" 
d="M541 0h-90l-301 709l497 694h90l301 -694zM258 709l252 -598l420 598l-254 583z" />
    <glyph glyph-name="M.ss01" horiz-adv-x="1886" 
d="M918 10l-87 -30l-356 1269l-147 -1044q-6 -43 -6 -62q0 -28 13.5 -43t51.5 -28l88 -31l-6 -41h-424l6 41l96 31q47 15 66 35t25 59l145 1032q6 44 6 62q0 28 -13.5 43t-51.5 28l-88 31l6 41h303l360 -1274l684 1274h305l-6 -41l-96 -31q-46 -15 -65 -35t-25 -59
l-146 -1032q-6 -43 -6 -62q0 -28 14 -42.5t52 -28.5l88 -31l-6 -41h-451l6 41l97 31q46 15 65 35t25 59l151 1077z" />
    <glyph glyph-name="Q.ss02" horiz-adv-x="1492" 
d="M1303 -469q-192 0 -372 107t-403 356q-194 42 -299.5 194t-105.5 381q0 234 97 429.5t269.5 310t382.5 114.5q259 0 403 -159.5t144 -429.5q0 -234 -96.5 -429.5t-268.5 -310t-382 -114.5q135 -118 227 -187t171 -106t138.5 -47.5t145.5 -10.5q182 0 381 111l28 -41
q-244 -168 -460 -168zM680 59q173 0 315.5 103.5t223.5 281.5t81 390q0 231 -118.5 370t-319.5 139q-172 0 -314.5 -103t-224 -281t-81.5 -390q0 -231 119 -370.5t319 -139.5z" />
    <glyph glyph-name="idotaccent" horiz-adv-x="647" 
d="M414 1270q-35 0 -60.5 25.5t-25.5 60.5q0 47 33 78.5t81 31.5q35 0 60.5 -25.5t25.5 -60.5q0 -46 -32.5 -78t-81.5 -32zM254 -20q-53 0 -53 53q0 21 10 96l127 799l-10 8l-222 -137l-14 37q98 103 175.5 155.5t121.5 52.5q53 0 53 -53q0 -21 -10 -96l-127 -799l10 -8
l222 137l14 -37q-98 -103 -175.5 -155.5t-121.5 -52.5z" />
    <glyph glyph-name="zero.osf" horiz-adv-x="1134" 
d="M494 -20q-174 0 -275.5 117.5t-101.5 314.5q0 126 40.5 245.5t110 210t168.5 146t209 55.5q174 0 275.5 -117.5t101.5 -314.5q0 -126 -40.5 -245.5t-110 -210t-168.5 -146t-209 -55.5zM504 53q109 0 203 80t148 215t54 289q0 165 -73 261.5t-201 96.5q-109 0 -203 -80
t-148.5 -214.5t-54.5 -288.5q0 -165 73.5 -262t201.5 -97z" />
    <glyph glyph-name="one.osf" horiz-adv-x="759" 
d="M535 0h-453l6 41l96 31q46 15 66 35t26 59l93 670q8 58 8 67q0 26 -15 42t-51 28l-88 31l6 40h453l-6 -40l-96 -31q-47 -15 -67 -35t-26 -59l-90 -658q-10 -65 -10 -80q0 -26 15 -41.5t51 -27.5l88 -31z" />
    <glyph glyph-name="two.osf" horiz-adv-x="905" 
d="M688 0h-680l-4 45q215 190 343 313.5t195.5 209t88 136t20.5 107.5q0 80 -53 130t-139 50q-131 0 -277 -100l-26 33q69 66 163.5 105.5t182.5 39.5q124 0 196 -63.5t72 -171.5q0 -56 -11 -99t-46 -101.5t-104.5 -130t-181 -171t-282.5 -238.5h351q69 0 98 13.5t70 64.5
l51 64h37z" />
    <glyph glyph-name="three.osf" horiz-adv-x="872" 
d="M-86 -416l-12 45q177 60 312.5 132t217 146t122 146.5t40.5 143.5q0 111 -98.5 173t-276.5 62l-4 43q428 109 428 340q0 80 -56.5 127t-152.5 47q-123 0 -297 -98l-22 37q83 67 178 104t186 37q127 0 204 -65t77 -170q0 -112 -90 -211.5t-248 -145.5q139 -17 214 -85
t75 -175q0 -69 -30.5 -141t-95 -144.5t-156.5 -136.5t-225 -119.5t-290 -91.5z" />
    <glyph glyph-name="four.osf" horiz-adv-x="989" 
d="M641 -385h-106l53 385h-606v47l753 997h107l-133 -946h196l-14 -98h-197zM717 911l-617 -813h502z" />
    <glyph glyph-name="five.osf" horiz-adv-x="917" 
d="M-31 -416l-10 45q342 119 510 276.5t168 323.5q0 114 -88.5 178t-249.5 64q-86 0 -160 -14l-12 30l135 557h412q56 0 79.5 10t53.5 46l39 45h37l-60 -203h-512l-98 -410q108 17 172 17q177 0 273 -76.5t96 -216.5q0 -215 -204.5 -399.5t-580.5 -272.5z" />
    <glyph glyph-name="six.osf" horiz-adv-x="1077" 
d="M479 -20q-171 0 -266.5 114t-95.5 314q0 165 59 323t165.5 286.5t264 220t344.5 122.5l6 -47q-280 -64 -476 -269t-234 -471q85 103 188 159t207 56q137 0 220 -86t83 -225q0 -124 -57.5 -237t-166 -186.5t-241.5 -73.5zM489 51q95 0 173.5 56t121.5 146.5t43 192.5
q0 117 -64.5 185.5t-176.5 68.5q-86 0 -179.5 -54t-170.5 -148q-7 -54 -7 -86q0 -155 73 -258t187 -103z" />
    <glyph glyph-name="seven.osf" horiz-adv-x="897" 
d="M213 -385h-127l6 41l729 1294h-426q-78 0 -111 -15t-71 -69l-57 -78h-41l67 261h711l27 -45z" />
    <glyph glyph-name="eight.osf" horiz-adv-x="1099" 
d="M473 -20q-172 0 -276.5 79t-104.5 207q0 123 101 240t288 194q-132 87 -186.5 156t-54.5 150q0 137 125 245.5t305 108.5q146 0 238.5 -74t92.5 -190q0 -109 -88.5 -208.5t-257.5 -168.5q160 -88 229.5 -167.5t69.5 -176.5q0 -74 -35.5 -145.5t-97.5 -126.5t-153 -89
t-195 -34zM600 750q156 89 222.5 172t66.5 168q0 88 -63 144t-164 56q-131 0 -218.5 -78t-87.5 -186q0 -73 54 -133t190 -143zM485 49q150 0 251.5 92t101.5 205q0 84 -69.5 156.5t-236.5 165.5q-165 -87 -245 -186.5t-80 -196.5q0 -103 77 -169.5t201 -66.5z" />
    <glyph glyph-name="nine.osf" horiz-adv-x="1091" 
d="M78 -416l-10 43q304 95 522.5 322t253.5 485q-66 -92 -170 -147.5t-211 -55.5q-150 0 -239 89t-89 239q0 134 61 250.5t171.5 188t244.5 71.5q167 0 264 -123.5t97 -331.5q0 -173 -62 -338.5t-174.5 -303.5t-283 -241t-375.5 -147zM506 313q90 0 179.5 50t164.5 143
q8 49 8 104q0 167 -73 274t-189 107q-150 0 -248 -121t-98 -288q0 -122 69.5 -195.5t186.5 -73.5z" />
    <glyph glyph-name="parenleft.cap" horiz-adv-x="622" 
d="M479 -260l-41 -33q-145 152 -228 374t-83 454q0 311 152.5 613t429.5 538l41 -39q-236 -239 -372 -542t-136 -597q0 -391 237 -768z" />
    <glyph glyph-name="parenright.cap" horiz-adv-x="622" 
d="M-35 -293l-41 39q236 239 372 542t136 597q0 391 -237 768l41 33q145 -152 228 -374t83 -454q0 -311 -152.5 -613t-429.5 -538z" />
    <glyph glyph-name="braceleft.cap" horiz-adv-x="772" 
d="M453 -281q-146 0 -226 63t-80 179q0 51 17.5 110.5t64.5 172.5q46 109 62 163.5t16 100.5q0 53 -36 87t-136 75l8 61q136 51 183 100.5t47 143.5q0 32 -17 182q-16 136 -16 178q0 158 105 252t282 94q69 0 154 -14l-9 -59q-232 0 -325.5 -54t-93.5 -194q0 -68 14 -186
q16 -136 16 -183q0 -118 -52.5 -185t-182.5 -106q95 -31 135.5 -76t40.5 -118q0 -45 -15.5 -98.5t-64.5 -180.5q-50 -128 -66 -182t-16 -92q0 -89 79 -124.5t277 -35.5l-8 -59q-128 -15 -157 -15z" />
    <glyph glyph-name="braceright.cap" horiz-adv-x="772" 
d="M98 -281q-61 0 -153 15l8 59q233 0 326.5 54t93.5 194q0 60 -15 186q-16 136 -16 183q0 117 53 184t183 106q-95 31 -136 76.5t-41 118.5q0 44 15.5 98t64.5 181q50 128 66 182t16 92q0 89 -79 124.5t-277 35.5l8 59q119 14 158 14q146 0 225.5 -62.5t79.5 -178.5
q0 -51 -17.5 -110.5t-64.5 -172.5q-46 -109 -62 -163.5t-16 -100.5q0 -53 36 -87t136 -75l-8 -61q-136 -51 -182.5 -100.5t-46.5 -143.5q0 -41 16 -182q16 -136 16 -178q0 -158 -105 -252.5t-282 -94.5z" />
    <glyph glyph-name="bracketleft.cap" horiz-adv-x="708" 
d="M545 -279h-482l275 1944h481l-12 -78h-369l-250 -1788h369z" />
    <glyph glyph-name="bracketright.cap" horiz-adv-x="708" 
d="M422 -279h-481l12 78h369l249 1788h-368l12 78h481z" />
    <glyph glyph-name="caroncomb.alt" horiz-adv-x="184" 
d="M150 1149h-35l53 367h133l-6 -37z" />
    <glyph glyph-name="caron.alt" 
d="M514 1149h-35l53 367h134l-7 -37z" />
    <glyph glyph-name="dotaccentcomb.i" horiz-adv-x="198" 
d="M229 1270q-35 0 -60.5 25.5t-25.5 60.5q0 47 33.5 78.5t81.5 31.5q35 0 60.5 -25.5t25.5 -60.5q0 -46 -33 -78t-82 -32z" />
    <glyph glyph-name="ITF" horiz-adv-x="3561" 
d="M225 0v1434h443v-1434h-443zM760 1016v418h442v-418h-442zM1292 0v1434h445v-1434h-445zM1827 1016v418h442v-418h-442zM2359 0v1434h445v-1434h-445zM2894 1016v418h442v-418h-442zM2894 506v420h442v-420h-442z" />
    </font>
</defs>
</svg>
