<?xml version="1.0" standalone="no"?>
<!DOCTYPE svg PUBLIC "-//W3C//DTD SVG 1.1//EN" "http://www.w3.org/Graphics/SVG/1.1/DTD/svg11.dtd" >
<svg xmlns="http://www.w3.org/2000/svg" xmlns:xlink="http://www.w3.org/1999/xlink" version="1.1">
<metadata>
Created by FontForge 20201107 at Thu Aug 15 08:54:12 2024
 By Unknown
Copyright (c) 2018 by Vladimir Nikolic. All rights reserved.
</metadata>
<defs>
<font id="Vogue-Regular" horiz-adv-x="595" >
  <font-face 
    font-family="Vogue"
    font-weight="400"
    font-stretch="normal"
    units-per-em="1000"
    panose-1="0 0 0 0 0 0 0 0 0 0"
    ascent="800"
    descent="-200"
    x-height="667"
    cap-height="667"
    bbox="-69 -236 1280 852"
    underline-thickness="50"
    underline-position="-100"
    unicode-range="U+0020-2122"
  />
    <missing-glyph />
    <glyph glyph-name="space" unicode=" " horiz-adv-x="385" 
 />
    <glyph glyph-name="exclam" unicode="!" horiz-adv-x="231" 
d="M101 159q-7 131 -19.5 240t-27.5 188q14 18 21 29t16 30l12 22q5 6 10 6q2 0 7 -1.5t10 -9.5q6 -10 9 -16l17.5 -31.5t21.5 -25.5q-10 -59 -17.5 -108.5t-13.5 -99t-10.5 -103.5t-7.5 -120h-28zM117 92q17 0 29.5 -15t12.5 -36q0 -23 -12.5 -37.5t-30.5 -14.5
q-17 0 -29.5 15t-12.5 37q0 21 13 36t30 15z" />
    <glyph glyph-name="quotedbl" unicode="&#x22;" horiz-adv-x="276" 
d="M33 637q4 8 9.5 18.5t12.5 19t13.5 11.5t10.5 3q6 0 12 -3q28 -17 31.5 -26t3.5 -16q0 -10 -5 -25q-5 -14 -12.5 -44.5t-14.5 -62.5q-8 -37 -17 -79h-20zM159 637q4 8 9.5 18.5t12.5 19t13.5 11.5t10.5 3q6 0 12 -3q28 -17 31.5 -26t3.5 -16q0 -10 -5 -25
q-5 -14 -12.5 -44.5t-14.5 -62.5q-8 -37 -17 -79h-20z" />
    <glyph glyph-name="numbersign" unicode="#" horiz-adv-x="652" 
d="M229 247h167l47 162h-167zM63 247h137l47 162h-138l25 83h137l39 135h29l-39 -135h167l39 135h29l-39 -135h136l-25 -83h-135l-47 -162h136l-25 -84h-135l-47 -163h-29l47 163h-167l-47 -163h-29l47 163h-138z" />
    <glyph glyph-name="dollar" unicode="$" horiz-adv-x="470" 
d="M51 238h15q4 -51 16 -92.5t34.5 -71.5t56.5 -46q2 -2 5 -3v232q-33 18 -62 45q-31 28 -50.5 68t-19.5 98q0 9 0.5 20t2.5 22q11 81 55 121q30 26 74 37v44h20v-40q12 1 25 2q18 0 34 -2v40h20v-45q9 -2 16 -6q28 -14 46 -27q17 -14 28 -14q14 0 17 13.5t3 25.5h16v-201
h-17q-7 44 -19 80.5t-31.5 62t-47.5 39.5q-5 3 -11 5v-258q11 -5 23 -10q33 -17 61.5 -41.5t48 -59.5t24.5 -85v-12q0 -39 -12.5 -74t-37 -62t-58.5 -41q-24 -10 -49 -13v-53h-20v51h-6q-29 0 -53 6v-57h-20v64q-27 11 -48 21q-12 7 -22.5 11.5t-20.5 4.5q-11 0 -15.5 -16
t-5.5 -28h-15v245zM198 420q17 -7 35 -14l24 -10v255q-17 3 -36 3q-12 0 -23 -1v-233zM178 649q-4 -1 -7 -2q-24 -7 -41.5 -21.5t-26 -35.5t-8.5 -46v-11q2 -27 14 -46.5t31 -33.5q17 -13 38 -24v220zM198 18q25 -7 56 -7h3v207q-1 1 -2 1q-28 13 -57 28v-229zM277 13
q16 2 30 7q23 9 38.5 25.5t19.5 33t4 27.5q0 14 -4 29q-8 29 -38 47q-22 13 -50 27v-196z" />
    <glyph glyph-name="percent" unicode="%" horiz-adv-x="888" 
d="M282 0l268 700h40l-267 -700h-41zM211 680q44 0 81 -17.5t63.5 -45.5t41.5 -63.5t15 -71.5t-15 -70.5t-41.5 -62.5t-63.5 -45t-81 -17q-45 0 -82 17.5t-64 46t-41.5 64t-14.5 72.5q0 35 16 69.5t43.5 62t64.5 44.5t78 17zM213 665q-36 0 -57 -19.5t-32 -47.5t-14.5 -59
t-3.5 -55t2.5 -55t13 -59.5t31.5 -48t57 -19.5q37 0 57.5 20t30 48.5t11 60t1.5 54.5q0 20 -3 51t-13 59.5t-29 49t-52 20.5zM641 381q44 0 81 -17.5t63.5 -45.5t41.5 -63.5t15 -71.5t-15 -70.5t-41.5 -62.5t-63.5 -45t-81 -17q-45 0 -82 17.5t-64 46t-41.5 64t-14.5 72.5
q0 35 16 69.5t43.5 62t64.5 44.5t78 17zM643 366q-36 0 -57 -19.5t-32 -47.5t-14.5 -59t-3.5 -55t2.5 -55t13 -59.5t31.5 -48t57 -19.5q37 0 57.5 20t30 48.5t11 60t1.5 54.5q0 20 -3 51t-13 59.5t-29 49t-52 20.5z" />
    <glyph glyph-name="ampersand" unicode="&#x26;" horiz-adv-x="666" 
d="M410 20h30l-23 27q-37 -22 -76 -39t-83 -17q-40 0 -83 13.5t-79 38t-59.5 60t-23.5 80.5q0 28 12 55.5t31.5 50.5t44 41t50.5 28q-27 28 -43 51.5t-24 42t-10.5 33t-2.5 25.5q0 47 19 79.5t50 52.5t70.5 29t80.5 9q31 0 62 -10t56 -28.5t40.5 -45.5t15.5 -61
q0 -36 -19 -59.5t-48 -38t-63 -23.5t-63 -17l222 -268q35 36 62 89.5t37 104.5h-63v20h142v-20h-64q-8 -58 -35 -112t-68 -96l82 -95h48v-20h-225v20zM279 663q-48 0 -78.5 -28.5t-30.5 -77.5q0 -14 6 -36.5t21 -38.5l63 -71q24 15 45 26t36.5 24t25 32t9.5 49q0 24 -5 46
t-16 38.5t-30 26.5t-46 10zM139 189q0 -29 9 -58.5t26.5 -53t43 -38.5t58.5 -15t65 11.5t61 27.5l-226 266q-8 -14 -14.5 -31.5t-11.5 -36.5t-8 -38t-3 -34z" />
    <glyph glyph-name="quotesingle" unicode="'" horiz-adv-x="164" 
d="M33 637q4 8 9.5 18.5t12.5 19t13.5 11.5t10.5 3q6 0 12 -3q28 -17 31.5 -26t3.5 -16q0 -10 -5 -25q-5 -14 -12.5 -44.5t-14.5 -62.5q-8 -37 -17 -79h-20z" />
    <glyph glyph-name="parenleft" unicode="(" horiz-adv-x="283" 
d="M196 -115q-51 38 -88.5 102t-58.5 154q-21 88 -21 169q0 41 5 84t16 85t26 80t32 67q18 28 43 56.5t46 45.5q25 18 51.5 28t55.5 11v-21q-38 -1 -62 -22q-23 -16 -38 -45t-25 -66t-15.5 -78.5t-8.5 -82.5t-3.5 -79t-0.5 -68q0 -16 0.5 -37.5t1.5 -45.5t3 -49t5 -49
q5 -46 14 -93q9 -43 27 -81t42 -61q11 -10 26.5 -16t33.5 -7v-21q-56 1 -107 40z" />
    <glyph glyph-name="parenright" unicode=")" horiz-adv-x="283" 
d="M76 727q51 -38 88.5 -102t58.5 -154q21 -89 21 -169q0 -41 -5 -84t-16 -85t-26 -80t-32 -67q-18 -28 -43 -56.5t-46 -45.5q-25 -18 -51.5 -28t-55.5 -11v21q38 1 62 22q22 16 37.5 45t25.5 66t15.5 78.5t8.5 82.5t3.5 79t0.5 68q0 16 -0.5 37.5t-1.5 45.5t-3 49t-5 49
q-5 46 -14 93q-9 43 -27 81t-42 61q-11 10 -26.5 16t-33.5 7v21q56 -1 107 -40z" />
    <glyph glyph-name="asterisk" unicode="*" horiz-adv-x="343" 
d="M263 439q20 -11 24 -21.5t4 -14.5q0 -10 -10 -18q-20 -14 -30 -14t-24 11q-9 7 -21.5 20.5t-26.5 27.5l15 -72q0 -23 -8.5 -33t-18.5 -10q-4 0 -9 1q-23 9 -27.5 16t-4.5 14t2 15q2 14 8 39t13 45l-60 -60q-17 -11 -33 -11l-8.5 0.5t-15.5 16.5q-1 8 -1 15q0 13 3.5 21
t21.5 15q11 5 31 11t38 13l-63 24q-18 9 -22.5 19.5t-4.5 14.5q0 10 9 17q20 14 30 14t24 -11l51 -51l-18 84q0 23 8.5 33t18.5 10q4 0 9 -1q23 -9 27.5 -16t4.5 -14t-2 -15q-1 -8 -4 -20.5t-7 -26.5t-7.5 -28t-5.5 -24l60 63q17 10 32 10q2 0 11 -0.5t14 -18.5q1 -8 1 -15
q0 -13 -3.5 -19.5t-21.5 -13.5q-9 -5 -25.5 -11t-34.5 -13z" />
    <glyph glyph-name="plus" unicode="+" horiz-adv-x="431" 
d="M234 547v-170h173v-37h-173v-179h-37v179h-176v37h176v170h37z" />
    <glyph glyph-name="comma" unicode="," horiz-adv-x="209" 
d="M90 -155q8 10 17.5 24.5t17.5 31t13 35t5 38.5q0 17 -5 36t-17 39l-7 -6q4 -11 4 -19q0 -11 -8 -22t-30 -11q-17 0 -28 13.5t-11 33.5q0 24 15.5 38.5t34.5 14.5q18 0 31.5 -9.5t23 -24.5t14 -34t4.5 -38q0 -28 -3.5 -49t-11.5 -38.5t-20 -33.5t-29 -33z" />
    <glyph glyph-name="hyphen" unicode="-" horiz-adv-x="394" 
d="M45 359h303v-42h-303v42z" />
    <glyph glyph-name="period" unicode="." horiz-adv-x="208" 
d="M107 92q17 0 29.5 -15t12.5 -36q0 -23 -12.5 -37.5t-30.5 -14.5q-17 0 -29.5 15t-12.5 37q0 21 13 36t30 15z" />
    <glyph glyph-name="slash" unicode="/" horiz-adv-x="485" 
d="M416 785h36l-389 -915h-36z" />
    <glyph glyph-name="zero" unicode="0" horiz-adv-x="454" 
d="M231 670q39 0 70 -21.5t55 -56.5q37 -53 50.5 -121t13.5 -134q0 -38 -4 -77t-14 -75.5t-25.5 -70t-39.5 -60.5q-23 -26 -50.5 -43t-59.5 -17q-38 0 -66.5 18t-52.5 51q-21 28 -34.5 61t-21.5 69t-11.5 73t-3.5 73q0 75 18 144t63 123q23 28 51 46t62 18zM230 655
q-32 0 -49 -20.5t-27 -55.5q-6 -23 -9.5 -52t-5 -60t-2 -60.5t-0.5 -53.5v-23q0 -27 0.5 -62t2 -71t5 -68t9.5 -51q10 -29 26.5 -49t43.5 -20q35 0 51 22t25 60q6 26 9 57.5t4.5 64t1.5 65.5v2v3v2v3v7v2v6v2v35v3v1v3v6v2v5v1v35q0 31 -1.5 63t-4.5 63t-8 55
q-8 37 -23.5 57.5t-47.5 20.5z" />
    <glyph glyph-name="one" unicode="1" horiz-adv-x="454" 
d="M305 667v-650h72v-17h-239q0 5 -0.5 9t-0.5 8h74l-1 563q-29 -20 -64 -45.5t-65 -45.5v22q48 35 94 74.5t88 81.5h42z" />
    <glyph glyph-name="two" unicode="2" horiz-adv-x="454" 
d="M400 185h15q-6 -40 -9.5 -76t-7.5 -76q0 -8 -1.5 -16.5t-2.5 -16.5h-368q7 30 20 54.5t29 46t34.5 41t38.5 39.5q27 28 52.5 57.5t46 64.5t33 78t12.5 99q0 32 -6.5 63t-20.5 55t-35.5 39t-51.5 15q-18 0 -39 -9t-38.5 -25t-29 -38t-11.5 -47q0 -17 4 -19.5t9 -2.5h4h6
q20 0 32 -11t12 -37q0 -21 -11.5 -35t-28.5 -14q-14 0 -23.5 7.5t-16 19.5t-9.5 26.5t-3 28.5q0 43 14.5 76t38.5 55t55 33t64 11q36 0 70.5 -11.5t61.5 -35t43.5 -58.5t16.5 -82q0 -48 -16 -86.5t-42 -70.5t-58.5 -60t-65.5 -55q-31 -25 -60.5 -50.5t-58.5 -60.5l287 -1z
" />
    <glyph glyph-name="three" unicode="3" horiz-adv-x="454" 
d="M93 367q1 5 1 15h15q36 0 69.5 2t59.5 16t41.5 44t15.5 86q0 55 -24 89.5t-72 34.5q-11 0 -27.5 -4t-32.5 -12t-28.5 -20t-13.5 -27l2 -12l16 3q16 -7 25 -15t9 -28q0 -19 -12 -32.5t-27 -13.5q-19 0 -30 17.5t-11 39.5q0 33 14.5 56t36.5 37.5t48 21t49 6.5q27 0 58 -8
t57.5 -25t43.5 -44.5t17 -67.5q0 -32 -10.5 -56t-28 -41.5t-41.5 -30.5t-51 -23q31 -11 59.5 -26.5t49.5 -37t33.5 -50t12.5 -67.5q0 -50 -21.5 -87.5t-54.5 -62.5t-72.5 -37.5t-75.5 -12.5q-24 0 -52 6t-52 20.5t-40.5 38t-16.5 58.5q0 29 13 51.5t39 22.5q18 0 29.5 -14
t11.5 -35q0 -27 -14.5 -37.5t-28.5 -10.5q-7 0 -14 2l-8 -10q1 -23 16.5 -37t36.5 -22t42 -11t33 -3q27 0 49.5 15t38 39t24 54t8.5 60q0 66 -17.5 103.5t-47 56t-68.5 22.5t-82 4z" />
    <glyph glyph-name="four" unicode="4" horiz-adv-x="454" 
d="M418 304v-69h-79v-218h77v-17h-251v17h75v218h-221q-7 0 -7 4l3 6v-1l289 439h17l-244 -379h165v153l97 132v-285h79z" />
    <glyph glyph-name="five" unicode="5" horiz-adv-x="454" 
d="M68 357q15 64 15 133q0 21 -2.5 42.5t-4.5 42.5q-3 20 -5 39t-2 36q0 8 13.5 12.5t31.5 7t35 3t23 0.5q20 0 40.5 -2.5t40.5 -6.5q21 -3 41 -6t41 -3q9 0 11.5 10t2.5 18h14v-17q0 -49 -25 -80t-67 -31q-14 0 -29 2t-30 5t-30.5 5.5t-31.5 2.5q-12 0 -25 -3.5t-28 -11.5
q1 -10 1.5 -21.5t0.5 -21.5q0 -13 -1.5 -27t-2.5 -28q-2 -14 -3 -28t-1 -29v-15q56 28 109 28q39 0 78.5 -12t71 -37.5t51.5 -64t20 -91.5q0 -60 -20.5 -101t-54 -66t-75.5 -36t-84 -11q-26 0 -53.5 7t-50 23t-37 41t-14.5 61q0 26 13 46t36 20q17 0 29 -13t12 -33
q0 -28 -15.5 -35t-34.5 -7q-8 0 -10 -6t-2 -14q0 -21 14.5 -35.5t34 -23t40.5 -12t33 -3.5q33 0 57.5 16t41 42.5t24.5 60.5t8 71t-6.5 72t-21.5 62t-39.5 43.5t-60.5 16.5q-30 0 -57 -10t-51 -33z" />
    <glyph glyph-name="six" unicode="6" horiz-adv-x="454" 
d="M380 670q-54 -15 -94 -39t-66 -56q-54 -67 -70 -185q54 33 97 33q76 0 126 -56q49 -58 49 -145q0 -93 -57 -160q-54 -67 -133 -67q-85 0 -138 75q-57 73 -57 189q0 79 31 161q14 42 38.5 79t58.5 74q63 72 213 111zM235 10q39 0 66.5 48.5t30.5 156.5q-6 184 -95 189
q-62 0 -83 -59q-8 -27 -14 -60t-6 -68q4 -110 26.5 -158.5t74.5 -48.5z" />
    <glyph glyph-name="seven" unicode="7" horiz-adv-x="454" 
d="M32 506q4 32 6.5 61.5t5.5 61.5q1 10 2.5 19.5t2.5 18.5h387l-110 -271h1q-6 -14 -15.5 -38.5t-21 -54.5t-23 -62.5t-21 -62.5t-15.5 -54.5t-6 -37.5q0 -10 7 -10q2 0 8 2q5 4 12 4q16 0 26.5 -13t10.5 -31q0 -44 -38 -44q-26 0 -37 23t-11 51q0 21 8.5 60t22.5 87
t30.5 100.5t33 100.5t30 87t21.5 60h-283q-8 -10 -12 -26t-7 -29v-2h-15z" />
    <glyph glyph-name="eight" unicode="8" horiz-adv-x="454" 
d="M188 364q-23 8 -45.5 20.5t-41 30t-30 41t-11.5 55.5q0 40 15.5 70t40.5 49.5t55.5 29.5t60.5 10q29 0 58.5 -9.5t53 -28.5t38.5 -48t15 -69q0 -32 -13 -56.5t-34 -43.5t-46.5 -33t-50.5 -24q29 -12 59.5 -28.5t55 -39t40.5 -51.5t16 -67q0 -46 -18.5 -79.5t-47 -55.5
t-64 -32.5t-68.5 -10.5t-67.5 9.5t-62 29.5t-45.5 52.5t-18 78.5q0 39 14 68.5t36.5 52t50.5 38.5t55 28zM232 365q25 0 39 15.5t21 38.5t8.5 49.5t1.5 48.5q0 21 -2.5 45t-10 44.5t-21.5 34.5t-36 14q-24 0 -40 -12.5t-25 -32.5t-12.5 -44.5t-3.5 -48.5q0 -26 2 -52.5
t10 -49t24 -36.5t45 -14zM230 349q-33 0 -52.5 -16t-30 -41.5t-13.5 -57t-3 -61.5q0 -33 3.5 -62.5t14 -52t30.5 -36t53 -13.5q30 0 48.5 13t29.5 34.5t15 50t4 58.5t-3 62.5t-13 59.5t-29.5 44.5t-53.5 17.5z" />
    <glyph glyph-name="nine" unicode="9" horiz-adv-x="454" 
d="M77 -5q55 15 94.5 39t65.5 56t43.5 78t25.5 106q-53 -32 -96 -32q-76 0 -127 56q-24 29 -36.5 64.5t-12.5 80.5q0 91 57 160q55 67 133 67q85 0 139 -75q56 -76 56 -189q0 -84 -30.5 -162t-97.5 -152q-67 -72 -211 -111zM222 655q-40 0 -67 -48.5t-31 -156.5
q7 -184 95 -189q63 0 83 59q10 26 15 56.5t5 60.5v11q-4 110 -26.5 158.5t-73.5 48.5z" />
    <glyph glyph-name="colon" unicode=":" horiz-adv-x="208" 
d="M104 359q17 0 29.5 -14.5t12.5 -35.5q0 -23 -12.5 -37.5t-30.5 -14.5q-17 0 -29.5 15t-12.5 37q0 21 13 35.5t30 14.5zM105 94q17 0 30 -15t13 -36q0 -23 -12.5 -37.5t-30.5 -14.5t-30.5 15t-12.5 37q0 21 13 36t30 15z" />
    <glyph glyph-name="semicolon" unicode=";" horiz-adv-x="209" 
d="M98 359q17 0 29.5 -14.5t12.5 -35.5q0 -23 -12.5 -37.5t-30.5 -14.5t-30 15t-12 37q0 21 13 35.5t30 14.5zM90 -155q8 10 17.5 24.5t17.5 31t13 35t5 38.5q0 17 -5 36t-17 39l-7 -6q4 -11 4 -19q0 -11 -8 -22t-30 -11q-17 0 -28 13.5t-11 33.5q0 24 15.5 38.5t34.5 14.5
q18 0 31.5 -9.5t23 -24.5t14 -34t4.5 -38q0 -28 -3.5 -49t-11.5 -38.5t-20 -33.5t-29 -33z" />
    <glyph glyph-name="less" unicode="&#x3c;" horiz-adv-x="250" 
d="M28 356l187 145l23 -39l-175 -135l175 -136l-23 -39l-187 145v59z" />
    <glyph glyph-name="equal" unicode="=" horiz-adv-x="388" 
d="M45 299h303v-42h-303v42zM45 439h303v-42h-303v42z" />
    <glyph glyph-name="greater" unicode="&#x3e;" horiz-adv-x="250" 
d="M238 297l-187 -145l-23 39l175 135l-175 136l23 39l187 -145v-59z" />
    <glyph glyph-name="question" unicode="?" horiz-adv-x="330" 
d="M112 194q0 -10 1 -19t3 -19l-15 -3q-12 31 -19 61.5t-7 53.5q0 32 10.5 58.5t26.5 48.5t36 40t40 35q16 13 30.5 26t26 27t18.5 29t7 32q0 26 -10 45.5t-26 32t-35.5 19t-37.5 6.5q-9 0 -23 -3.5t-28 -10t-24 -17.5t-10 -26q0 -7 7 -10t11 -3q35 -7 35 -47
q0 -20 -11 -32.5t-28 -12.5q-11 0 -19 6t-13.5 16t-8.5 21.5t-3 23.5q0 26 10.5 47t27 35.5t37 22t40.5 7.5q61 0 98.5 -45t37.5 -119q0 -18 -1.5 -37t-7.5 -37q-15 -46 -45 -78t-57 -55q-15 -12 -28 -24.5t-23.5 -26.5t-16.5 -30.5t-6 -37.5zM127 159l-8 -10l-3 7zM117 92
q17 0 29.5 -15t12.5 -36q0 -23 -13 -37.5t-30 -14.5q-18 0 -30 15t-12 37q0 21 12.5 36t30.5 15z" />
    <glyph glyph-name="at" unicode="@" horiz-adv-x="796" 
d="M775 273q0 -33 -7 -64q-3 -15 -9 -34.5t-19 -39.5q-9 -18 -26 -32q-14 -13 -37 -24t-56 -15q-24 -3 -40 -3.5t-19 -0.5q-26 0 -50.5 5t-43.5 18t-22 39v1q-17 -9 -39.5 -18.5t-49.5 -15.5t-44 -6.5t-22 -0.5q-26 0 -54 5q-35 7 -54.5 32t-23 50t-3.5 41q0 22 5.5 54
t22 69.5t41.5 68.5t56 46q41 21 64 22t30 1q31 0 59.5 -6.5t50 -17.5t29.5 -16v2l1 1l97 7l-64 -270q-4 -16 -4 -30v-5q1 -14 8 -26t27 -15q14 -2 29 -2q5 0 17 0.5t30.5 7.5t35 20.5t28.5 35.5q14 24 21.5 54.5t7.5 61.5q0 68 -27.5 128t-75 104.5t-111.5 70.5t-136 26
t-136 -26t-111.5 -70.5t-75 -104.5t-27.5 -128t27.5 -128t75 -104.5t111.5 -70.5t136 -26q82 0 157 35l4 2l4 -2q2 -2 5 -3.5t5 -3.5l12 -7l-12 -6q-8 -3 -14.5 -6.5t-13.5 -5.5q-69 -28 -147 -28t-147 28q-68 27 -120 76q-51 48 -80 112q-30 66 -30 138t30 138
q29 64 80 112q52 49 120 76q69 28 147 28t147 -28q68 -27 120 -76q53 -50 81 -112q29 -67 29 -138zM308 114q9 -2 19 -2q7 0 21.5 2t34.5 9t37 14.5t26 12.5q2 26 9.5 62t16.5 72.5t19 69.5t16 54q-57 25 -77 25.5t-21 0.5q-37 0 -62 -15t-40 -41.5t-25 -55.5
q-10 -30 -13.5 -58t-3.5 -48q0 -12 1.5 -32.5t12 -42.5t29.5 -27z" />
    <glyph glyph-name="A" unicode="A" horiz-adv-x="536" 
d="M-5 17q22 0 36 3t23 11t15 23.5t14 39.5q43 146 87 291.5t88 291.5h34l213 -660h44v-17h-239v17h67l-64 201h-174l-7 -20q-5 -15 -12 -38t-13.5 -46t-11.5 -42t-5 -26q0 -12 9.5 -18t22.5 -8.5t27 -2.5h5h2h1h1h1h1v0h12v-17h-177v17zM144 235h164l-84 262z" />
    <glyph glyph-name="B" unicode="B" horiz-adv-x="535" 
d="M27 667h201q37 0 81 -3t82 -18.5t63.5 -48t25.5 -91.5t-30.5 -97.5t-78.5 -51.5v-10q27 -8 51 -21t42 -33t28 -47.5t10 -64.5q0 -60 -21 -96t-54 -55t-74 -24.5t-80 -5.5h-246v17h54v633h-54v17zM192 363h14q28 0 57 4.5t53 19.5t39 42t15 72q0 35 -12.5 63.5t-32.5 48.5
t-45.5 30.5t-52.5 10.5q-8 0 -16.5 -1.5t-18.5 -3.5v-286zM192 17h55q61 0 99 41.5t38 115.5q0 55 -14 89t-39.5 52.5t-60.5 25t-78 6.5v-330z" />
    <glyph glyph-name="C" unicode="C" horiz-adv-x="551" 
d="M484 0q0 9 -1 19t-4 18.5t-8.5 14.5t-14.5 6q-5 0 -13.5 -5t-19.5 -13q-20 -16 -51.5 -33.5t-74.5 -17.5q-59 0 -106.5 26.5t-80.5 71.5t-51 105.5t-18 128.5t17.5 132.5t50.5 114t81 79.5t110 30q27 0 48 -8.5t39 -18.5t34 -18.5t34 -8.5q12 0 18 6.5t8 20.5h18v-202
h-20q-2 36 -15.5 72.5t-34.5 66t-49.5 48t-60.5 18.5t-55 -17t-39 -45t-25.5 -63.5t-15 -72t-7 -72t-1.5 -62.5q0 -51 6 -103.5t24 -96t51 -71t87 -27.5q29 0 53 21.5t42 54t29.5 70t15.5 69.5h15v-238h-15z" />
    <glyph glyph-name="D" unicode="D" horiz-adv-x="616" 
d="M27 667h207q70 0 133 -16t110.5 -54.5t75.5 -103.5t28 -162q0 -95 -26.5 -158.5t-72 -101.5t-106 -54.5t-129.5 -16.5h-220v17h57v632h-57v18zM202 649v-632q72 0 121 19.5t79 59.5t43 100.5t13 142.5q0 67 -14 124t-42.5 98.5t-72 65t-102.5 23.5z" />
    <glyph glyph-name="E" unicode="E" horiz-adv-x="558" 
d="M198 20h97q46 0 85.5 2.5t68.5 19t46 52.5t17 103h17v-197h-502v17h50v633h-50v17h501l1 -164h-17q-8 55 -28.5 84.5t-50 43t-67 15t-80.5 1.5h-88v-295h26q31 0 54.5 2t39.5 13t24 34.5t9 65.5h16v-252h-16q-1 38 -7.5 60.5t-18.5 34t-29 15t-39 3.5h-59v-308z" />
    <glyph glyph-name="F" unicode="F" horiz-adv-x="509" 
d="M490 491h-18q-2 59 -16 91.5t-38.5 47.5t-58 17.5t-73.5 2.5h-94v-297h33q34 0 60 1.5t43.5 13t26 36t8.5 71.5h16v-262h-16q-1 39 -9 62.5t-22 36t-33 16.5t-43 4h-28q-8 0 -18 -0.5t-18 -0.5v-314h59v-17h-224v17h49v633h-49v17h462z" />
    <glyph glyph-name="G" unicode="G" horiz-adv-x="605" 
d="M502 453h-20q-5 37 -16.5 72t-29.5 62t-44 43t-60 16q-55 0 -87 -32.5t-48.5 -80.5t-21.5 -102.5t-6 -98.5v-19q0 -20 1.5 -48.5t7.5 -63t16.5 -67.5t27.5 -58.5t41 -41t56 -15.5q45 0 77 27t32 87v166h-59v17h234v-17h-58l-2 -294q-12 26 -21.5 33t-19.5 7
q-3 0 -10.5 -1.5t-22 -9.5t-32.5 -14q-29 -12 -59.5 -20.5t-63.5 -8.5q-62 0 -112 24t-86 68t-55.5 104.5t-19.5 134.5q0 69 19.5 133t55.5 112.5t85.5 77.5t109.5 29q24 0 44 -8t38 -17.5t34 -17.5t33 -8q14 0 18 9.5t5 23.5h19v-203z" />
    <glyph glyph-name="H" unicode="H" horiz-adv-x="678" 
d="M206 330v-313h65v-17h-244v17h60l-5 633h-55v17h244v-17h-65v-299h271v299h-63v17h244v-17h-63v-633h63v-17h-244v17h63v313h-271z" />
    <glyph glyph-name="I" unicode="I" horiz-adv-x="308" 
d="M31 667h249v-17h-72v-633h72v-17h-249v17h63v633h-63v17z" />
    <glyph glyph-name="J" unicode="J" horiz-adv-x="318" 
d="M301 650h-63v-539q0 -39 -7 -72t-22.5 -57t-40 -38t-58.5 -14q-16 0 -32 5t-28.5 15t-20 25.5t-7.5 36.5q0 23 11.5 40.5t32.5 17.5q15 0 23.5 -13t8.5 -33t-11.5 -28.5t-31.5 -17.5q27 -29 50 -29q18 0 30.5 15t12.5 47q0 11 -3 22t-8 23q-6 15 -10.5 33t-4.5 35v526
h-68v17h247v-17z" />
    <glyph glyph-name="K" unicode="K" horiz-adv-x="599" 
d="M550 17h59v-17h-264v17h70l-208 324l-7 -20v-304h56v-17h-229v17h58v633h-58v17h225v-17h-52v-302l201 219v-1q42 45 42 64q0 12 -9.5 16t-28.5 4h-41v17h230v-17h-15q-68 0 -106 -33q-38 -38 -83 -88t-96 -109z" />
    <glyph glyph-name="L" unicode="L" horiz-adv-x="540" 
d="M520 221v-221h-493v17h63v633h-63v17h246v-17h-70v-633h117q46 0 80.5 4.5t57.5 24.5t34.5 61t11.5 114h16z" />
    <glyph glyph-name="M" unicode="M" horiz-adv-x="714" 
d="M21 0v18h12h10q19 0 36.5 3.5t20.5 30.5q1 9 2 37.5t1.5 69t0.5 90.5v6v15v9v16v3v35v3v13q0 55 -0.5 108.5t-1 95.5t-2 68.5t-3.5 28.5h-73v17h193l157 -451l156 451h164v-17h-54v-633h54v-17h-231v18h56l1 534l-8 2q-46 -136 -92.5 -271.5t-94.5 -271.5l-196 555l-8 -2
v-457v-7v-3v-4v-4v-2v-1v-1v-13v-1v-3q0 -12 2 -20q1 -12 9 -18.5t19.5 -9.5t24.5 -3h5h2h1h1h1h1h1h19v-17h-186zM17 18l4 6v-6h-4z" />
    <glyph glyph-name="N" unicode="N" horiz-adv-x="626" 
d="M21 17q30 0 47 1.5t24.5 10t9 26t1.5 50.5v532l-13 13h-69v17h201l290 -476v376q0 32 -1.5 49t-7.5 24.5t-17.5 8.5t-31.5 1h-22v17h181v-17h-23q-20 0 -32 -1t-18 -8.5t-7.5 -24.5t-1.5 -49v-572h-50l-359 594v-467q0 -40 1 -61.5t8.5 -31t24.5 -11t49 -1.5v-17h-184v17
z" />
    <glyph glyph-name="O" unicode="O" 
d="M301 680q57 0 104.5 -30.5t82 -80t53.5 -112t19 -125.5q0 -64 -19 -125.5t-53.5 -110t-82 -78.5t-104.5 -30q-58 0 -106 30.5t-82 80.5t-53 113t-19 128q0 62 20.5 123t56 109t82.5 78t101 30zM303 664q-32 0 -55 -16.5t-39 -44t-25.5 -62t-15 -71t-7.5 -72t-2 -63.5
q0 -29 1.5 -64.5t6.5 -72t14 -71.5t24.5 -62.5t38.5 -44t56 -16.5t56 17t38 44.5t23 63t12 72t5 72t1 63.5q0 25 -1.5 59t-6.5 70t-13.5 72t-23.5 64t-36 45.5t-51 17.5z" />
    <glyph glyph-name="P" unicode="P" horiz-adv-x="515" 
d="M201 17h64v-17h-238v17h60v633h-60v17h234q38 0 80 -7t77 -27t58 -56t23 -93q0 -52 -20.5 -88.5t-52 -59t-70 -33t-75.5 -10.5q-20 0 -39.5 3t-39.5 17zM202 332q27 -20 61 -20q29 0 53 12t41 34t26 51t9 64q0 48 -11.5 82t-33.5 55.5t-52.5 31.5t-67.5 10q-3 0 -9.5 -1
t-14.5 -2z" />
    <glyph glyph-name="Q" unicode="Q" 
d="M355 -103q0 -25 7 -40.5t19 -24t27.5 -11.5t32.5 -3q12 0 22.5 1t21.5 2v-19q-14 -1 -24.5 -1.5t-24.5 -0.5q-13 0 -35 3t-45.5 8t-44.5 12t-30 16q-12 10 -18 26.5t-8.5 35.5t-3 38.5t-0.5 35.5v17q-48 16 -87 50.5t-66.5 80.5t-42 101t-14.5 113q0 62 20 123.5t55 110
t82 79t102 30.5q57 0 104.5 -30.5t82 -80t54 -111.5t19.5 -126q0 -57 -14.5 -110.5t-41 -98.5t-64 -79t-84.5 -52zM303 664q-33 0 -56.5 -16.5t-40 -43t-26.5 -61.5t-15.5 -71.5t-7 -72t-1.5 -64.5t2 -65t7.5 -72.5t16 -71.5t27 -62t40.5 -43.5t57 -16.5q30 0 51.5 17.5
t36.5 46t23.5 64.5t13 73t6 71t1.5 59q0 26 -2 60.5t-7.5 71t-14.5 72t-24 63.5t-36.5 45t-50.5 17z" />
    <glyph glyph-name="R" unicode="R" horiz-adv-x="583" 
d="M192 17h61v-17h-226v17h55v633h-55v17h289q33 0 65 -8t56.5 -26.5t40 -49t15.5 -76.5q0 -35 -10.5 -61t-28.5 -44.5t-42 -30.5t-51 -18v-11q42 -11 65.5 -35.5t35.5 -55.5t15 -65.5t4 -65.5q1 -22 2.5 -41.5t5.5 -34t12 -23t22 -8.5q9 0 17 2.5t16 5.5q1 0 2 1l6 -15
q-17 -8 -33.5 -11t-33.5 -3q-44 0 -69 13t-38.5 36t-18 55t-7.5 71q-1 12 -2 25t-3 27q-5 43 -20.5 67t-38 35.5t-50.5 14t-58 2.5v-322zM192 650v-295h32q28 0 55.5 8t48.5 25.5t34 45t13 67.5q0 45 -12 74t-33 45.5t-49 23t-60 6.5h-29z" />
    <glyph glyph-name="S" unicode="S" horiz-adv-x="470" 
d="M51 238h15q4 -51 16 -92.5t34.5 -71.5t56.5 -46.5t81 -16.5q29 0 52.5 9t39 25.5t19.5 33t4 27.5q0 14 -4 29q-8 29 -38.5 47t-71.5 37q-35 16 -71.5 35t-67.5 47.5t-50.5 68.5t-19.5 98q0 9 0.5 20t2.5 22q11 81 55 120.5t119 43.5h6q38 0 65 -13.5t45 -26.5
q17 -14 28 -14q14 0 17 13.5t3 25.5h16v-201h-17q-7 44 -19 80.5t-31.5 62t-47.5 39.5t-67 14q-26 0 -50 -7t-41.5 -21.5t-26 -35.5t-8.5 -46v-11q2 -27 14 -46.5t31 -34t43 -25.5t50 -21q33 -13 66.5 -29.5t62 -41t48 -59.5t24.5 -85v-12q0 -39 -12.5 -74t-37 -62
t-59 -41.5t-74.5 -14.5q-39 0 -69 11.5t-52 22.5q-12 7 -22.5 11.5t-20.5 4.5q-11 0 -15.5 -16t-5.5 -28h-15v245z" />
    <glyph glyph-name="T" unicode="T" horiz-adv-x="526" 
d="M207 650h-14q-48 0 -79 -7.5t-49.5 -28t-26 -56t-7.5 -92.5h-18q2 52 2.5 101t2.5 100h495q1 -51 1.5 -100t1.5 -101h-16q0 61 -8 97.5t-27.5 56t-53 25t-86.5 5.5v-633h68v-17h-257v17h71v633z" />
    <glyph glyph-name="U" unicode="U" horiz-adv-x="623" 
d="M616 650h-16q-20 0 -32.5 -1t-20 -8.5t-10 -24.5t-2.5 -48v-341q0 -130 -52.5 -185.5t-157.5 -55.5q-33 0 -72.5 5t-75 20.5t-62 43.5t-32.5 74q-2 11 -2 28v3v1v3v3v1v0v1v3v478h-63v17h253v-17h-64v-431q0 -46 5.5 -84.5t21 -66.5t42.5 -44t69 -16q46 0 78.5 16.5
t52 47t28.5 74t9 96.5v326q0 32 -3.5 49t-11.5 25t-17.5 9t-17.5 1t-18 -1q-5 0 -10.5 -0.5t-12.5 -0.5v17h194v-17z" />
    <glyph glyph-name="V" unicode="V" horiz-adv-x="523" 
d="M-12 667h246v-17h-64l139 -460q32 95 54 162t37 113t23.5 73.5t12.5 43.5t5 23.5t1 12.5q0 13 -7.5 19.5t-19 9.5t-23.5 3h-3h-2h-2h-2h-16v17h184v-17h-8q-24 0 -37 -1.5t-21 -9t-14 -23.5t-15 -44l-196 -598l-219 676h-53v17z" />
    <glyph glyph-name="W" unicode="W" horiz-adv-x="735" 
d="M-13 667h560v-17q-31 0 -49.5 -5t-29.5 -16.5t-18 -30.5t-14 -47l-16 -60l91 -323q7 20 16.5 48t16.5 49q10 30 22 66.5t24.5 73.5t23.5 72.5t20 65t14 50t5 27.5q0 12 -7.5 18.5t-18 9t-20.5 2.5h-3h-1h-2h-2h-11v17h178v-17q-30 0 -46 -1.5t-25.5 -9t-16 -24
t-16.5 -45.5l-191 -593h-16l-94 328l-93 -328q-6 0 -12.5 -0.5t-11.5 -0.5l-207 674h-50v17zM349 332l-98 318h-102l148 -493zM411 516q1 2 5.5 18t10 35t10 36t4.5 21q0 9 -4.5 13.5t-11 7t-13 3t-10.5 0.5h-29z" />
    <glyph glyph-name="X" unicode="X" horiz-adv-x="558" 
d="M-15 17h10h14q14 0 34 1.5t39 17.5q7 6 17 20.5t27.5 45t44.5 81.5t68 130l-160 337h-53v17h242v-17h-61l108 -223q35 63 55 100t30.5 57.5t13.5 29.5t3 15q0 15 -10 18t-18 3h-46v17h192v-17h-5q-17 0 -37.5 -2.5t-34.5 -14.5q-6 -6 -14 -16t-22 -33.5t-37 -65.5
t-60 -111l190 -390h64v-17h-261v17h67l-136 276l-80 -153q-15 -28 -24 -45.5t-14.5 -29t-7.5 -17t-2 -9.5q0 -9 5 -13.5t12 -6.5t14 -2h2h1h1h1v0h44v-17h-216v17z" />
    <glyph glyph-name="Y" unicode="Y" horiz-adv-x="483" 
d="M333 667h177v-16h-21q-14 0 -23 -2.5t-16.5 -10t-14 -21.5t-15.5 -36l-125 -315v-249h64v-17h-235v17h63v226l-157 407h-53v17h239v-17h-63l133 -346l97 237q3 6 7 17.5t8 24t7 24t3 18.5q0 17 -15.5 21.5t-33.5 4.5q-7 0 -13 -0.5t-11 -0.5h-2v17z" />
    <glyph glyph-name="Z" unicode="Z" horiz-adv-x="519" 
d="M32 0l321 647h-43q-68 0 -112.5 -5.5t-67.5 -18.5v1q-49 -25 -49 -103v-39h-16v185h431l-329 -650h73q65 0 110.5 7t74.5 23t42.5 41t13.5 60v45h17v-193h-466z" />
    <glyph glyph-name="bracketleft" unicode="[" horiz-adv-x="211" 
d="M54 783h230v-23h-122v-890h122v-28h-230v941z" />
    <glyph glyph-name="backslash" unicode="\" horiz-adv-x="419" 
d="M323 0l-267 700h40l268 -700h-41z" />
    <glyph glyph-name="bracketright" unicode="]" horiz-adv-x="211" 
d="M161 -158h-230v28h122v890h-122v23h230v-941z" />
    <glyph glyph-name="asciicircum" unicode="^" horiz-adv-x="383" 
d="M224 657l145 -187l-39 -23l-135 175l-136 -175l-39 23l145 187h59z" />
    <glyph glyph-name="underscore" unicode="_" horiz-adv-x="439" 
d="M10 -29h417v-42h-417v42z" />
    <glyph glyph-name="grave" unicode="`" horiz-adv-x="225" 
d="M204 461l-16 -11q-32 28 -60 54q-24 22 -48.5 42.5t-36.5 29.5q-20 14 -22 22.5t-2 11.5q0 14 9 37q6 10 13 11.5t12 1.5q6 0 14.5 -2t19 -7.5t18.5 -9.5z" />
    <glyph glyph-name="a" unicode="a" horiz-adv-x="536" 
d="M-5 17q22 0 36 3t23 11t15 23.5t14 39.5q43 146 87 291.5t88 291.5h34l213 -660h44v-17h-239v17h67l-64 201h-174l-7 -20q-5 -15 -12 -38t-13.5 -46t-11.5 -42t-5 -26q0 -12 9.5 -18t22.5 -8.5t26.5 -2.5h21.5h2v-17h-177v17zM144 235h164l-84 262z" />
    <glyph glyph-name="b" unicode="b" horiz-adv-x="535" 
d="M27 667h201q37 0 81 -3t82 -18.5t63.5 -48t25.5 -91.5t-30.5 -97.5t-78.5 -51.5v-10q27 -8 51 -21t42 -33t28 -47.5t10 -64.5q0 -60 -21 -96t-54 -55t-74 -24.5t-80 -5.5h-246v17h54v633h-54v17zM192 363h14q28 0 57 4.5t53 19.5t39 42t15 72q0 35 -12.5 63.5t-32.5 48.5
t-45.5 30.5t-52.5 10.5q-8 0 -16.5 -1.5t-18.5 -3.5v-286zM192 17h55q61 0 99 41.5t38 115.5q0 55 -14 89t-39.5 52.5t-60.5 25t-78 6.5v-330z" />
    <glyph glyph-name="c" unicode="c" horiz-adv-x="551" 
d="M484 0q0 9 -1 19t-4 18.5t-8.5 14.5t-14.5 6q-5 0 -13.5 -5t-19.5 -13q-20 -16 -51.5 -33.5t-74.5 -17.5q-59 0 -106.5 26.5t-80.5 71.5t-51 105.5t-18 128.5t17.5 132.5t50.5 114t81 79.5t110 30q27 0 48 -8.5t39 -18.5t34 -18.5t34 -8.5q12 0 18 6.5t8 20.5h18v-202
h-20q-2 36 -15.5 72.5t-34.5 66t-49.5 48t-60.5 18.5t-55 -17t-39 -45t-25.5 -63.5t-15 -72t-7 -72t-1.5 -62.5q0 -51 6 -103.5t24 -96t51 -71t87 -27.5q29 0 53 21.5t42 54t29.5 70t15.5 69.5h15v-238h-15z" />
    <glyph glyph-name="d" unicode="d" horiz-adv-x="616" 
d="M27 667h207q70 0 133 -16t110.5 -54.5t75.5 -103.5t28 -162q0 -95 -26.5 -158.5t-72 -101.5t-106 -54.5t-129.5 -16.5h-220v17h57v632h-57v18zM202 649v-632q72 0 121 19.5t79 59.5t43 100.5t13 142.5q0 67 -14 124t-42.5 98.5t-72 65t-102.5 23.5z" />
    <glyph glyph-name="e" unicode="e" horiz-adv-x="558" 
d="M198 20h97q46 0 85.5 2.5t68.5 19t46 52.5t17 103h17v-197h-502v17h50v633h-50v17h501l1 -164h-17q-8 55 -28.5 84.5t-50 43t-67 15t-80.5 1.5h-88v-295h26q31 0 54.5 2t39.5 13t24 34.5t9 65.5h16v-252h-16q-1 38 -7.5 60.5t-18.5 34t-29 15t-39 3.5h-59v-308z" />
    <glyph glyph-name="f" unicode="f" horiz-adv-x="509" 
d="M490 491h-18q-2 59 -16 91.5t-38.5 47.5t-58 17.5t-73.5 2.5h-94v-297h33q34 0 60 1.5t43.5 13t26 36t8.5 71.5h16v-262h-16q-1 39 -9 62.5t-22 36t-33 16.5t-43 4h-28q-8 0 -18 -0.5t-18 -0.5v-314h59v-17h-224v17h49v633h-49v17h462z" />
    <glyph glyph-name="g" unicode="g" horiz-adv-x="605" 
d="M502 453h-20q-5 37 -16.5 72t-29.5 62t-44 43t-60 16q-55 0 -87 -32.5t-48.5 -80.5t-21.5 -102.5t-6 -98.5v-19q0 -20 1.5 -48.5t7.5 -63t16.5 -67.5t27.5 -58.5t41 -41t56 -15.5q45 0 77 27t32 87v166h-59v17h234v-17h-58l-2 -294q-12 26 -21.5 33t-19.5 7
q-3 0 -10.5 -1.5t-22 -9.5t-32.5 -14q-29 -12 -59.5 -20.5t-63.5 -8.5q-62 0 -112 24t-86 68t-55.5 104.5t-19.5 134.5q0 69 19.5 133t55.5 112.5t85.5 77.5t109.5 29q24 0 44 -8t38 -17.5t34 -17.5t33 -8q14 0 18 9.5t5 23.5h19v-203z" />
    <glyph glyph-name="h" unicode="h" horiz-adv-x="678" 
d="M206 330v-313h65v-17h-244v17h60l-5 633h-55v17h244v-17h-65v-299h271v299h-63v17h244v-17h-63v-633h63v-17h-244v17h63v313h-271z" />
    <glyph glyph-name="i" unicode="i" horiz-adv-x="308" 
d="M31 667h249v-17h-72v-633h72v-17h-249v17h63v633h-63v17z" />
    <glyph glyph-name="j" unicode="j" horiz-adv-x="318" 
d="M301 650h-63v-539q0 -39 -7 -72t-22.5 -57t-40 -38t-58.5 -14q-16 0 -32 5t-28.5 15t-20 25.5t-7.5 36.5q0 23 11.5 40.5t32.5 17.5q15 0 23.5 -13t8.5 -33t-11.5 -28.5t-31.5 -17.5q27 -29 50 -29q18 0 30.5 15t12.5 47q0 11 -3 22t-8 23q-6 15 -10.5 33t-4.5 35v526
h-68v17h247v-17z" />
    <glyph glyph-name="k" unicode="k" horiz-adv-x="599" 
d="M550 17h59v-17h-264v17h70l-208 324l-7 -20v-304h56v-17h-229v17h58v633h-58v17h225v-17h-52v-302l201 219v-1q42 45 42 64q0 12 -9.5 16t-28.5 4h-41v17h230v-17h-15q-68 0 -106 -33q-38 -38 -83 -88t-96 -109z" />
    <glyph glyph-name="l" unicode="l" horiz-adv-x="540" 
d="M520 221v-221h-493v17h63v633h-63v17h246v-17h-70v-633h117q46 0 80.5 4.5t57.5 24.5t34.5 61t11.5 114h16z" />
    <glyph glyph-name="m" unicode="m" horiz-adv-x="714" 
d="M21 0v18h12h10q19 0 36.5 3.5t20.5 30.5q1 9 2 37.5t1.5 69t0.5 90.5v6v15v9v16v3v35v3v13q0 55 -0.5 108.5t-1 95.5t-2 68.5t-3.5 28.5h-73v17h193l157 -451l156 451h164v-17h-54v-633h54v-17h-231v18h56l1 534l-8 2q-46 -136 -92.5 -271.5t-94.5 -271.5l-196 555l-8 -2
v-457v-7v-3v-4v-4v-2v-1v-1v-13v-1v-3q0 -12 2 -20q1 -12 9 -18.5t19.5 -9.5t24.5 -3h5h2h1h1h1h1h1h19v-17h-186zM17 18l4 6v-6h-4z" />
    <glyph glyph-name="n" unicode="n" horiz-adv-x="626" 
d="M21 17q30 0 47 1.5t24.5 10t9 26t1.5 50.5v532l-13 13h-69v17h201l290 -476v376q0 32 -1.5 49t-7.5 24.5t-17.5 8.5t-31.5 1h-22v17h181v-17h-23q-20 0 -32 -1t-18 -8.5t-7.5 -24.5t-1.5 -49v-572h-50l-359 594v-467q0 -40 1 -61.5t8.5 -31t24.5 -11t49 -1.5v-17h-184v17
z" />
    <glyph glyph-name="o" unicode="o" 
d="M301 680q57 0 104.5 -30.5t82 -80t53.5 -112t19 -125.5q0 -64 -19 -125.5t-53.5 -110t-82 -78.5t-104.5 -30q-58 0 -106 30.5t-82 80.5t-53 113t-19 128q0 62 20.5 123t56 109t82.5 78t101 30zM303 664q-32 0 -55 -16.5t-39 -44t-25.5 -62t-15 -71t-7.5 -72t-2 -63.5
q0 -29 1.5 -64.5t6.5 -72t14 -71.5t24.5 -62.5t38.5 -44t56 -16.5t56 17t38 44.5t23 63t12 72t5 72t1 63.5q0 25 -1.5 59t-6.5 70t-13.5 72t-23.5 64t-36 45.5t-51 17.5z" />
    <glyph glyph-name="p" unicode="p" horiz-adv-x="515" 
d="M201 17h64v-17h-238v17h60v633h-60v17h234q38 0 80 -7t77 -27t58 -56t23 -93q0 -52 -20.5 -88.5t-52 -59t-70 -33t-75.5 -10.5q-20 0 -39.5 3t-39.5 17zM202 332q27 -20 61 -20q29 0 53 12t41 34t26 51t9 64q0 48 -11.5 82t-33.5 55.5t-52.5 31.5t-67.5 10q-3 0 -9.5 -1
t-14.5 -2z" />
    <glyph glyph-name="q" unicode="q" 
d="M355 -103q0 -25 7 -40.5t19 -24t27.5 -11.5t32.5 -3q12 0 22.5 1t21.5 2v-19q-14 -1 -24.5 -1.5t-24.5 -0.5q-13 0 -35 3t-45.5 8t-44.5 12t-30 16q-12 10 -18 26.5t-8.5 35.5t-3 38.5t-0.5 35.5v17q-48 16 -87 50.5t-66.5 80.5t-42 101t-14.5 113q0 62 20 123.5t55 110
t82 79t102 30.5q57 0 104.5 -30.5t82 -80t54 -111.5t19.5 -126q0 -57 -14.5 -110.5t-41 -98.5t-64 -79t-84.5 -52zM303 664q-33 0 -56.5 -16.5t-40 -43t-26.5 -61.5t-15.5 -71.5t-7 -72t-1.5 -64.5t2 -65t7.5 -72.5t16 -71.5t27 -62t40.5 -43.5t57 -16.5q30 0 51.5 17.5
t36.5 46t23.5 64.5t13 73t6 71t1.5 59q0 26 -2 60.5t-7.5 71t-14.5 72t-24 63.5t-36.5 45t-50.5 17z" />
    <glyph glyph-name="r" unicode="r" horiz-adv-x="583" 
d="M192 17h61v-17h-226v17h55v633h-55v17h289q33 0 65 -8t56.5 -26.5t40 -49t15.5 -76.5q0 -35 -10.5 -61t-28.5 -44.5t-42 -30.5t-51 -18v-11q42 -11 65.5 -35.5t35.5 -55.5t15 -65.5t4 -65.5q1 -22 2.5 -41.5t5.5 -34t12 -23t22 -8.5q9 0 17 2.5t16 5.5q1 0 2 1l6 -15
q-17 -8 -33.5 -11t-33.5 -3q-44 0 -69 13t-38.5 36t-18 55t-7.5 71q-1 12 -2 25t-3 27q-5 43 -20.5 67t-38 35.5t-50.5 14t-58 2.5v-322zM192 650v-295h32q28 0 55.5 8t48.5 25.5t34 45t13 67.5q0 45 -12 74t-33 45.5t-49 23t-60 6.5h-29z" />
    <glyph glyph-name="s" unicode="s" horiz-adv-x="470" 
d="M51 238h15q4 -51 16 -92.5t34.5 -71.5t56.5 -46.5t81 -16.5q29 0 52.5 9t39 25.5t19.5 33t4 27.5q0 14 -4 29q-8 29 -38.5 47t-71.5 37q-35 16 -71.5 35t-67.5 47.5t-50.5 68.5t-19.5 98q0 9 0.5 20t2.5 22q11 81 55 120.5t119 43.5h6q38 0 65 -13.5t45 -26.5
q17 -14 28 -14q14 0 17 13.5t3 25.5h16v-201h-17q-7 44 -19 80.5t-31.5 62t-47.5 39.5t-67 14q-26 0 -50 -7t-41.5 -21.5t-26 -35.5t-8.5 -46v-11q2 -27 14 -46.5t31 -34t43 -25.5t50 -21q33 -13 66.5 -29.5t62 -41t48 -59.5t24.5 -85v-12q0 -39 -12.5 -74t-37 -62
t-59 -41.5t-74.5 -14.5q-39 0 -69 11.5t-52 22.5q-12 7 -22.5 11.5t-20.5 4.5q-11 0 -15.5 -16t-5.5 -28h-15v245z" />
    <glyph glyph-name="t" unicode="t" horiz-adv-x="526" 
d="M207 650h-14q-48 0 -79 -7.5t-49.5 -28t-26 -56t-7.5 -92.5h-18q2 52 2.5 101t2.5 100h495q1 -51 1.5 -100t1.5 -101h-16q0 61 -8 97.5t-27.5 56t-53 25t-86.5 5.5v-633h68v-17h-257v17h71v633z" />
    <glyph glyph-name="u" unicode="u" horiz-adv-x="623" 
d="M616 650h-16q-20 0 -32.5 -1t-20 -8.5t-10 -24.5t-2.5 -48v-341q0 -130 -52.5 -185.5t-157.5 -55.5q-33 0 -72.5 5t-75 20.5t-62 43.5t-32.5 74q-2 11 -2 28v3v1v3v3v1v0v1v3v478h-63v17h253v-17h-64v-431q0 -46 5.5 -84.5t21 -66.5t42.5 -44t69 -16q46 0 78.5 16.5
t52 47t28.5 74t9 96.5v326q0 32 -3.5 49t-11.5 25t-17.5 9t-17.5 1t-18 -1q-5 0 -10.5 -0.5t-12.5 -0.5v17h194v-17z" />
    <glyph glyph-name="v" unicode="v" horiz-adv-x="523" 
d="M-12 667h246v-17h-64l139 -460q32 95 54 162t37 113t23.5 73.5t12.5 43.5t5 23.5t1 12.5q0 13 -7.5 19.5t-19 9.5t-23.5 3h-3h-2h-2h-2h-16v17h184v-17h-8q-24 0 -37 -1.5t-21 -9t-14 -23.5t-15 -44l-196 -598l-219 676h-53v17z" />
    <glyph glyph-name="w" unicode="w" horiz-adv-x="735" 
d="M-13 667h560v-17q-31 0 -49.5 -5t-29.5 -16.5t-18 -30.5t-14 -47l-16 -60l91 -323q7 20 16.5 48t16.5 49q10 30 22 66.5t24.5 73.5t23.5 72.5t20 65t14 50t5 27.5q0 12 -7.5 18.5t-18 9t-20.5 2.5h-3h-1h-2h-2h-11v17h178v-17q-30 0 -46 -1.5t-25.5 -9t-16 -24
t-16.5 -45.5l-191 -593h-16l-94 328l-93 -328q-6 0 -12.5 -0.5t-11.5 -0.5l-207 674h-50v17zM349 332l-98 318h-102l148 -493zM411 516q1 2 5.5 18t10 35t10 36t4.5 21q0 9 -4.5 13.5t-11 7t-13 3t-10.5 0.5h-29z" />
    <glyph glyph-name="x" unicode="x" horiz-adv-x="558" 
d="M-15 17h10h14q14 0 34 1.5t39 17.5q7 6 17 20.5t27.5 45t44.5 81.5t68 130l-160 337h-53v17h242v-17h-61l108 -223q35 63 55 100t30.5 57.5t13.5 29.5t3 15q0 15 -10 18t-18 3h-46v17h192v-17h-5q-17 0 -37.5 -2.5t-34.5 -14.5q-6 -6 -14 -16t-22 -33.5t-37 -65.5
t-60 -111l190 -390h64v-17h-261v17h67l-136 276l-80 -153q-15 -28 -24 -45.5t-14.5 -29t-7.5 -17t-2 -9.5q0 -9 5 -13.5t12 -6.5t14 -2h2h1h1h1v0h44v-17h-216v17z" />
    <glyph glyph-name="y" unicode="y" horiz-adv-x="483" 
d="M333 667h177v-16h-21q-14 0 -23 -2.5t-16.5 -10t-14 -21.5t-15.5 -36l-125 -315v-249h64v-17h-235v17h63v226l-157 407h-53v17h239v-17h-63l133 -346l97 237q3 6 7 17.5t8 24t7 24t3 18.5q0 17 -15.5 21.5t-33.5 4.5q-7 0 -13 -0.5t-11 -0.5h-2v17z" />
    <glyph glyph-name="z" unicode="z" horiz-adv-x="519" 
d="M32 0l321 647h-43q-68 0 -112.5 -5.5t-67.5 -18.5v1q-49 -25 -49 -103v-39h-16v185h431l-329 -650h73q65 0 110.5 7t74.5 23t42.5 41t13.5 60v45h17v-193h-466z" />
    <glyph glyph-name="braceleft" unicode="{" horiz-adv-x="212" 
d="M138 -6q2 -20 19.5 -35.5t34.5 -23.5h-4l-2 -19q-20 5 -44.5 14.5t-47 25t-39 37t-20.5 50.5v6q0 6 1.5 18.5t6 32t10.5 42t12 45.5q1 7 3.5 19t5 24.5t3.5 21.5t1 13v5q-3 20 -19.5 34.5t-32.5 22.5v23q16 8 32.5 22.5t19.5 34.5v5q0 4 -1 13t-3.5 21.5t-5 24t-3.5 19.5
q-6 23 -12 45.5t-10.5 42t-6 31.5t-1.5 19v6q4 29 20.5 50.5t39 37t47 25t44.5 14.5l2 -19h4q-17 -8 -34.5 -23.5t-19.5 -35.5v-8q0 -13 5.5 -41t13.5 -62q9 -33 15 -60.5t6 -44.5v-9q-3 -26 -15.5 -45.5t-30 -34t-37.5 -24.5t-39 -16q19 -6 39 -16t37.5 -24.5t30 -34
t15.5 -44.5v-9q0 -17 -6 -44.5t-15 -60.5q-8 -34 -13.5 -62t-5.5 -41v-8z" />
    <glyph glyph-name="bar" unicode="|" horiz-adv-x="89" 
d="M23 -96v853h42v-853h-42z" />
    <glyph glyph-name="braceright" unicode="}" horiz-adv-x="212" 
d="M80 -6v8q0 13 -5.5 41t-13.5 62q-9 33 -15 60.5t-6 44.5v9q3 25 15.5 44.5t30 34t37.5 24.5t39 16q-19 6 -39 16t-37.5 24.5t-30 34t-15.5 45.5v9q0 17 6 44.5t15 60.5q8 34 13.5 62t5.5 41v8q-2 20 -19.5 35.5t-34.5 23.5h4l2 19q20 -5 44.5 -14.5t47 -25t39 -37
t20.5 -50.5v-6q0 -7 -1.5 -19t-6 -31.5t-10.5 -42t-12 -45.5q-1 -8 -3.5 -19.5t-5 -24t-3.5 -21.5t-1 -13v-5q3 -20 19.5 -34.5t32.5 -22.5v-23q-16 -8 -32.5 -22.5t-19.5 -34.5v-5q0 -4 1 -13t3.5 -21.5t5 -24.5t3.5 -19q6 -23 12 -45.5t10.5 -42t6 -32t1.5 -18.5v-6
q-4 -29 -20.5 -50.5t-39 -37t-47 -25t-44.5 -14.5l-2 19h-4q17 8 34.5 23.5t19.5 35.5z" />
    <glyph glyph-name="asciitilde" unicode="~" horiz-adv-x="467" 
d="M375 380q21 2 36.5 19t24.5 34v-4l18 -1q-5 -20 -15 -44.5t-25 -47t-37 -39t-51 -19.5h-6q-16 0 -53.5 9.5t-84.5 21.5q-8 1 -19.5 4t-24 5.5t-21.5 3.5t-13 1h-5q-20 -3 -35 -19t-23 -32l-19 3q5 19 14.5 43t25 46t37.5 38.5t52 20.5h9q17 0 44.5 -6.5t60.5 -15.5
q34 -8 61.5 -14.5t41.5 -6.5h7z" />
    <glyph glyph-name="uni00A0" unicode="&#xa0;" horiz-adv-x="260" 
 />
    <glyph glyph-name="exclamdown" unicode="&#xa1;" horiz-adv-x="231" 
d="M117 573q-17 0 -30 15t-13 36q0 22 12.5 37t29.5 15q18 0 30.5 -14.5t12.5 -37.5q0 -21 -12.5 -36t-29.5 -15zM129 506q3 -66 7.5 -120t10.5 -103.5t13.5 -99t17.5 -108.5q-14 -12 -21.5 -25.5l-17.5 -31.5q-3 -6 -9 -16q-5 -8 -10 -9.5t-7 -1.5q-5 0 -10 6l-12 22
q-9 19 -16 30t-21 29q15 79 27.5 188t19.5 240h28z" />
    <glyph glyph-name="cent" unicode="&#xa2;" horiz-adv-x="446" 
d="M264 85q16 0 34.5 2.5t37 8t36.5 13.5t33 20l6 -8q-70 -55 -153 -55h-9q-35 0 -68 9l-36 -105l-21 6l36 105q-29 10 -55.5 26.5t-46 40t-31 54t-11.5 69.5q0 60 21.5 101t56.5 66.5t79 36.5t89 11q16 0 36 -3l35 102l21 -6l-35 -101q21 -5 40 -15t34 -25.5t23.5 -36.5
t8.5 -48q0 -26 -13.5 -46t-37.5 -20q-18 0 -30.5 13t-12.5 33q0 28 16 35t36 7q9 0 11 6t2 14q0 21 -15 35.5t-36 23t-42.5 12t-34.5 3.5q-35 0 -61 -16t-43 -42.5t-25.5 -60.5t-8.5 -71t6.5 -72t22.5 -62t41.5 -43.5t63.5 -16.5z" />
    <glyph glyph-name="sterling" unicode="&#xa3;" horiz-adv-x="507" 
d="M476 116q-4 -17 -12 -37.5t-21 -39t-31 -32.5t-42 -17h-5q-14 0 -39.5 8.5t-72.5 32.5q-8 4 -26.5 13t-33.5 14q-1 -17 -10.5 -33t-26.5 -26t-35 -10q-7 0 -23 3.5t-27 26.5q-6 12 -6 26q0 11 7 30t31 33q11 7 20.5 8.5t15.5 1.5t11 -1q2 12 2 23q0 27 -12 58t-31 68
l-4 8h-82v29h67q-9 18 -17 37q-17 38 -17 81q0 72 21.5 121.5t56.5 80t79 43.5t88 13q27 0 55.5 -8.5t52 -28t39 -50t15.5 -73.5q0 -32 -14 -55t-38 -23q-18 0 -30.5 15.5t-12.5 39.5q0 32 16.5 41.5t36.5 9.5q8 0 10 6t2 17q0 26 -15 43t-35.5 27.5t-42 15t-33.5 4.5
q-35 0 -61 -19t-43 -51t-25 -73.5t-8 -85.5v-128h141v-29h-141v-114q0 -6 -1 -18t-3 -31q3 -2 5 -3t3 -3q13 7 26.5 12t31.5 7h6q14 0 33 -7.5t45 -21.5q43 -23 59.5 -24t24.5 -1q11 0 18 1q17 2 26.5 18.5t16.5 30.5v-2z" />
    <glyph glyph-name="currency" unicode="&#xa4;" horiz-adv-x="429" 
d="M403 104l-78 82q-21 -16 -46 -25.5t-52 -9.5q-53 0 -96 34l-90 -81l-15 12l70 105q-17 23 -26 51.5t-9 60.5q0 31 9 59t26 51l-71 101l13 11l92 -75q21 16 46 25t51 9q27 0 51.5 -9t45.5 -25l76 75l13 -11l-58 -96q18 -23 28.5 -52.5t10.5 -62.5q0 -32 -10 -61t-27 -52
l58 -104zM227 191q26 0 49 11t40.5 30.5t27.5 45.5t10 55t-10 55t-27.5 45t-40.5 30t-49 11t-49 -11t-40 -30t-27 -45t-10 -55t10 -55t27 -45.5t40 -30.5t49 -11z" />
    <glyph glyph-name="yen" unicode="&#xa5;" horiz-adv-x="483" 
d="M333 667h177v-16h-21q-14 0 -23 -2.5t-16.5 -10t-14 -21.5t-15.5 -36l-112 -281h88v-30h-99l-2 -4v-39h101v-30h-101v-180h64v-17h-235v17h63v180h-94v30h94v16l-10 27h-84v30h72l-135 350h-53v17h239v-17h-63l133 -346l97 237q3 6 7 17.5t8 24t7 24t3 18.5
q0 17 -15.5 21.5t-33.5 4.5q-7 0 -13 -0.5t-11 -0.5h-2v17z" />
    <glyph glyph-name="brokenbar" unicode="&#xa6;" horiz-adv-x="89" 
d="M23 240h42v-336h-42v336zM23 448v309h42v-309h-42z" />
    <glyph glyph-name="section" unicode="&#xa7;" horiz-adv-x="513" 
d="M289 192q-50 14 -96 35.5t-83.5 54.5t-63.5 86q-25 50 -25.5 74t-0.5 26q0 45 17 84t48.5 70t70.5 51q37 17 62.5 20t37.5 3q28 0 60.5 -9t65.5 -38t57 -75q7 -15 11 -32t4 -32q0 -2 -0.5 -11t-7 -22t-21.5 -21q-8 -4 -17 -4q-10 0 -25.5 7.5t-27.5 28.5q-8 19 -8 33
q0 8 4.5 20.5t26.5 23.5l6 3q10 3 11.5 6.5t1.5 5.5q0 7 -6 20q-13 28 -38 46t-51 25.5t-50 7.5q-3 0 -18 -0.5t-36 -11.5q-32 -15 -47.5 -43.5t-17.5 -61.5v-14q0 -20 4 -43l6 -1l1 -1l5 -1h1l5 -1q0 -1 1 -1l6 -1q1 0 2 -1l4 -1h1l5 -1q1 0 1 -1l6 -1h2l4 -2h2l4 -1h2
l6 -2h1l4 -1q1 -1 2 -1l4 -1q2 0 3 -1l5 -1h1l5 -1l1 -1l5 -1h1q51 -13 97 -34.5t83 -55t64 -85.5q25 -50 25.5 -74t0.5 -25q0 -45 -17 -85t-48.5 -70.5t-70.5 -50.5q-38 -19 -62.5 -21.5t-35.5 -2.5q-28 0 -61 9.5t-66.5 38t-56.5 74.5q-9 16 -12.5 32t-3.5 30
q0 3 0.5 12.5t7.5 23t21 20.5q9 4 18 4q10 0 25 -7t27 -29q8 -18 8 -32q0 -8 -4.5 -20.5t-26.5 -23.5l-5 -3q-11 -2 -12.5 -6t-1.5 -6q0 -7 6 -21q13 -27 37.5 -45t51 -25.5t50.5 -7.5q3 0 18.5 0.5t34.5 10.5q34 16 49 43.5t17 61.5v11q0 22 -3 46q-49 11 -98 24zM166 420
q29 -62 66 -101.5t77 -67.5q32 -21 64 -37q-6 21 -15 41q-31 60 -67.5 100t-77.5 67q-32 20 -64 35q7 -19 17 -37z" />
    <glyph glyph-name="dieresis" unicode="&#xa8;" horiz-adv-x="329" 
d="M31 578q0 24 17 41t41 17t41 -17t17 -41t-17 -41t-41 -17t-41 17t-17 41zM186 578q0 24 17 41t41 17t41 -17t17 -41t-17 -41t-41 -17t-41 17t-17 41z" />
    <glyph glyph-name="copyright" unicode="&#xa9;" horiz-adv-x="445" 
d="M223 242q-43 0 -81 16.5t-66.5 45t-45 66t-16.5 80.5q0 44 16.5 82t45 66.5t66.5 44.5t81 16t81 -16t66.5 -44.5t44.5 -66.5t16 -82q0 -43 -16 -80.5t-44.5 -66t-66.5 -45t-81 -16.5zM223 631q-37 0 -70 -14t-57.5 -38.5t-39 -57.5t-14.5 -71q0 -37 14.5 -70t39 -57.5
t57.5 -38.5t70 -14q38 0 71 14t57 38.5t38 57.5t14 70q0 38 -14 71t-38 57.5t-57 38.5t-71 14zM301 310q0 4 -0.5 8t-1.5 7.5t-3.5 6t-6.5 2.5q-2 0 -5.5 -2t-7.5 -5q-9 -7 -22 -14t-31 -7q-24 0 -44 11t-33.5 29.5t-21 44t-7.5 53.5t7 55t21 47.5t34 33t45 12.5
q12 0 20.5 -3.5t16 -7.5t14 -8t14.5 -4q5 0 7.5 3t3.5 9h7v-84h-8q-1 15 -6.5 30t-14.5 27.5t-20.5 20t-25.5 7.5q-13 0 -22.5 -7t-16 -18.5t-10.5 -26.5t-6.5 -30t-3 -30t-0.5 -26q0 -21 2.5 -43t10 -40t21 -29.5t36.5 -11.5q12 0 22 9t17.5 22.5t12 29t6.5 28.5h6v-99h-6z
" />
    <glyph glyph-name="ordfeminine" unicode="&#xaa;" horiz-adv-x="289" 
d="M14 440q0 34 15.5 53t40 27.5t54.5 9.5t60 1h15v8q0 14 -3 31t-12 32.5t-24.5 26t-38.5 10.5q-9 0 -21.5 -2t-24 -6.5t-19 -11.5t-7.5 -16q0 -5 4 -6t9 -2q8 -1 16.5 -4.5t8.5 -20.5q0 -11 -7.5 -20t-20.5 -9q-17 0 -25 13t-8 26q0 19 8 33t21.5 23.5t31.5 14t37 4.5
q64 0 105.5 -29.5t41.5 -89.5v-209q-14 5 -30.5 10t-27.5 5q-6 0 -12.5 -1t-14.5 -3t-16.5 -3t-18.5 -1l-17 1q-51 2 -85.5 30.5t-34.5 74.5zM199 514h-6q-2 0 -4.5 0.5t-4.5 0.5q-51 0 -74.5 -19t-23.5 -62q0 -13 4 -27.5t12.5 -26.5t21.5 -20t31 -8q12 0 22 0.5t22 5.5
v156z" />
    <glyph glyph-name="guillemotleft" unicode="&#xab;" horiz-adv-x="365" 
d="M189 494l9 -6q-21 -37 -39 -70q-16 -28 -32 -56.5t-24 -43.5q8 -16 24 -44q3 -5 5 -9l1 -2l6 -10l1 -1q6 -11 12 -21l1 -2q2 -5 5 -9l1 -2q18 -33 39 -70l-9 -6l-162 132q-11 22 -11 45t11 43zM334 494l9 -6q-21 -37 -39 -70q-16 -28 -32 -56.5t-24 -43.5q8 -16 24 -44
q3 -5 5 -9l1 -2l6 -10l1 -1q6 -11 12 -21l1 -2q2 -5 5 -9l1 -2q18 -33 39 -70l-9 -6l-162 132q-11 22 -11 45t11 43z" />
    <glyph glyph-name="uni00AD" unicode="&#xad;" horiz-adv-x="394" 
d="M45 359h303v-42h-303v42z" />
    <glyph glyph-name="registered" unicode="&#xae;" horiz-adv-x="440" 
d="M222 254q-41 0 -78.5 16.5t-65.5 44t-44.5 64.5t-16.5 79q0 41 16.5 77.5t44.5 63.5t65.5 42.5t78.5 15.5q42 0 78.5 -15.5t63 -42.5t41.5 -63.5t15 -77.5q0 -42 -15 -79t-41.5 -64.5t-63 -44t-78.5 -16.5zM219 629q-36 0 -67 -14.5t-54.5 -38.5t-37 -55.5t-13.5 -65.5
q0 -36 13.5 -67t37 -54.5t54.5 -36.5t67 -13q35 0 66.5 13t55.5 36.5t38.5 54.5t14.5 67q0 34 -14.5 65.5t-38.5 55.5t-55.5 38.5t-66.5 14.5zM194 352h18v-5h-77v5h19v222h-19v7h101q11 0 22.5 -3.5t20 -10t13.5 -17t5 -26.5q0 -12 -3.5 -22t-9.5 -15t-14 -10.5t-19 -6.5
v-2q15 -6 22.5 -14.5t13 -19t6 -22.5t0.5 -23q1 -8 1 -14.5t1.5 -12t5 -8t7.5 -2.5q3 0 6.5 1t5.5 1v0v0v0v0v1l2 -7q-4 -2 -10.5 -2.5t-13.5 -0.5q-15 0 -23.5 4.5t-12.5 12t-6.5 18.5t-2.5 25q0 6 -1 10.5t-1 8.5q-1 15 -7 24t-13.5 12t-17.5 4t-19 1v-113zM194 574v-103
h10q8 0 18.5 2.5t17.5 9t11.5 15.5t4.5 24q0 16 -3.5 26t-11.5 16t-18.5 8t-19.5 2h-9z" />
    <glyph glyph-name="macron" unicode="&#xaf;" horiz-adv-x="385" 
d="M66 769h253v-59h-253v59z" />
    <glyph glyph-name="degree" unicode="&#xb0;" horiz-adv-x="234" 
d="M122 487q-21 0 -39.5 8t-32.5 22t-22 32.5t-8 39.5t8 39t22 31.5t32.5 21.5t39.5 8t39 -8t31.5 -21.5t21 -31.5t7.5 -39t-7.5 -39.5t-21 -32.5t-31.5 -22t-39 -8zM122 651q-26 0 -44 -18.5t-18 -43.5q0 -26 18 -44t44 -18t44.5 18t18.5 44q0 25 -18.5 43.5t-44.5 18.5z
" />
    <glyph glyph-name="plusminus" unicode="&#xb1;" horiz-adv-x="431" 
d="M21 121h386v-37h-386v37zM234 606v-170h173v-37h-173v-179h-37v179h-176v37h176v170h37z" />
    <glyph glyph-name="acute" unicode="&#xb4;" horiz-adv-x="206" 
d="M103 646q8 3 20.5 6.5t20 4t9.5 0.5q9 0 19 -3t15 -14q5 -15 5 -24.5t-4 -16.5t-12 -12t-18 -11q-14 -8 -36 -18.5t-45 -20.5q-26 -11 -55 -24l-6 9z" />
    <glyph glyph-name="paragraph" unicode="&#xb6;" horiz-adv-x="559" 
d="M531 612h-71v-790h-42v790h-147v-790h-42v415q-43 0 -80.5 17t-65.5 45t-44.5 66t-16.5 80q0 43 16.5 81t44.5 66.5t65.5 45t80.5 16.5h302v-42z" />
    <glyph glyph-name="periodcentered" unicode="&#xb7;" horiz-adv-x="189" 
d="M23 337q0 33 22 56t53 23t53 -23t22 -56t-22 -56.5t-53 -23.5t-53 23.5t-22 56.5z" />
    <glyph glyph-name="cedilla" unicode="&#xb8;" horiz-adv-x="345" 
d="M90 -65l62 72h23l-41 -45q22 7 42 7q21 0 43 -6t40 -18.5t29 -31.5t11 -45q0 -29 -11.5 -49t-30 -32t-42 -17.5t-46.5 -5.5q-15 0 -31 3.5t-29 11.5t-21.5 20.5t-8.5 30.5q0 14 10 25.5t27 11.5q14 0 23.5 -7.5t9.5 -20.5q0 -14 -9 -18.5t-23 -6.5q1 -9 7 -14.5t14 -9.5
t15.5 -5.5t12.5 -1.5q27 0 40.5 24.5t13.5 56.5q0 16 -2.5 31t-8.5 27t-16 19t-25 7q-11 0 -23.5 -5t-28.5 -19z" />
    <glyph glyph-name="onesuperior" unicode="&#xb9;" horiz-adv-x="222" 
d="M155 654v-310h33v-16h-142v1v1v0v0v1v1v0v3v0v1v1v1v0v1v0v0v5v0h30v236l-40 -28l-14 10l98 92h35z" />
    <glyph glyph-name="ordmasculine" unicode="&#xba;" horiz-adv-x="343" 
d="M166 655q33 0 61 -14.5t48 -37.5t31.5 -52t11.5 -58q0 -36 -11 -66t-31.5 -52t-48.5 -35t-61 -14q-35 1 -63 14t-48 35.5t-31 53.5t-11 68q0 28 12 56.5t32.5 51t48.5 36.5t60 14zM167 639q-27 0 -42.5 -15.5t-24 -38t-11 -47.5t-2.5 -43q0 -23 2 -50t9.5 -50t23.5 -38.5
t43 -15.5t42.5 15.5t22.5 39t8.5 50t1.5 49.5q0 16 -2.5 41t-10 47.5t-22 39t-38.5 16.5z" />
    <glyph glyph-name="guillemotright" unicode="&#xbb;" horiz-adv-x="365" 
d="M170 142l-9 6q21 37 39 70l32 56t24 44q-8 15 -24 43.5t-32 56.5q-18 33 -39 70l9 6l162 -132q11 -22 11 -45t-11 -43zM25 142l-9 6q21 37 39 70l32 56t24 44q-8 15 -24 43.5t-32 56.5q-18 33 -39 70l9 6l162 -132q11 -22 11 -45t-11 -43z" />
    <glyph glyph-name="questiondown" unicode="&#xbf;" horiz-adv-x="330" 
d="M226 581q-17 0 -29.5 15t-12.5 36q0 23 13 37.5t30 14.5q18 0 30 -15t12 -37q0 -21 -12.5 -36t-30.5 -15zM216 514l8 10l3 -7zM231 479q0 10 -1 19t-3 19l15 3q12 -31 19 -61.5t7 -53.5q0 -32 -10.5 -58.5t-26.5 -48.5t-36 -40t-40 -35q-16 -13 -30.5 -26t-26 -27
t-18.5 -29t-7 -32q0 -26 10 -45.5t26 -32t35.5 -19t37.5 -6.5q9 0 23 3.5t28 10t24 17.5t10 26q0 7 -7 10t-11 3q-35 7 -35 47q0 20 11 32.5t28 12.5q11 0 19 -6t13.5 -16t8.5 -21.5t3 -23.5q0 -26 -10.5 -47t-27 -35.5t-37 -22t-40.5 -7.5q-61 0 -98.5 45t-37.5 119
q0 18 1.5 37t7.5 37q15 46 45 78t57 55q15 12 28 24.5t23.5 26.5t16.5 30.5t6 37.5z" />
    <glyph glyph-name="Agrave" unicode="&#xc0;" horiz-adv-x="536" 
d="M386 709l-6 -9q-29 13 -55 24q-23 10 -45.5 20.5t-35.5 18.5q-11 6 -18.5 11t-11.5 12t-4 16.5t5 24.5q5 11 15 14t19 3q2 0 9.5 -0.5t20 -4t20.5 -6.5zM-5 17q22 0 36 3t23 11t15 23.5t14 39.5q43 146 87 291.5t88 291.5h34l213 -660h44v-17h-239v17h67l-64 201h-174
l-7 -20q-5 -15 -12 -38t-13.5 -46t-11.5 -42t-5 -26q0 -12 9.5 -18t22.5 -8.5t27 -2.5h5h2h1h1h1h1v0h12v-17h-177v17zM144 235h164l-84 262z" />
    <glyph glyph-name="Aacute" unicode="&#xc1;" horiz-adv-x="536" 
d="M289 833q8 3 20.5 6.5t20 4t9.5 0.5q9 0 19 -3t15 -14q5 -15 5 -24.5t-4 -16.5t-12 -12t-18 -11q-14 -8 -36 -18.5t-45 -20.5q-26 -11 -55 -24l-6 9zM-5 17q22 0 36 3t23 11t15 23.5t14 39.5q43 146 87 291.5t88 291.5h34l213 -660h44v-17h-239v17h67l-64 201h-174
l-7 -20q-5 -15 -12 -38t-13.5 -46t-11.5 -42t-5 -26q0 -12 9.5 -18t22.5 -8.5t27 -2.5h5h2h1h1h1h1v0h12v-17h-177v17zM144 235h164l-84 262z" />
    <glyph glyph-name="Acircumflex" unicode="&#xc2;" horiz-adv-x="536" 
d="M412 717l-6 -9q-24 9 -47 20q-20 8 -41.5 18.5t-36.5 18.5l-2 -1q-8 -4 -17 -9h-1q-5 -2 -9 -5h-2q-3 -2 -6 -3q-21 -11 -41 -19q-23 -11 -47 -20l-6 9l87 124q13 7 21 9t16 2q17 0 28.5 -4t22.5 -7zM-5 17q22 0 36 3t23 11t15 23.5t14 39.5q43 146 87 291.5t88 291.5h34
l213 -660h44v-17h-239v17h67l-64 201h-174l-7 -20q-5 -15 -12 -38t-13.5 -46t-11.5 -42t-5 -26q0 -12 9.5 -18t22.5 -8.5t27 -2.5h5h2h1h1h1h1v0h12v-17h-177v17zM144 235h164l-84 262z" />
    <glyph glyph-name="Atilde" unicode="&#xc3;" horiz-adv-x="536" 
d="M371 771q13 2 22.5 13.5t14.5 23.5v-3l11 -1q-3 -14 -9 -30.5t-15 -32t-22.5 -27t-31.5 -13.5h-5q-10 0 -32 6.5t-51 14.5q-9 2 -25 6t-23 4h-3q-12 -2 -21 -13t-14 -22l-12 2q3 13 9 29.5t15.5 32t23 26.5t31.5 14q3 1 7 1q10 0 26.5 -5t36.5 -11t37 -11t25 -5q3 0 5 1z
M-5 17q22 0 36 3t23 11t15 23.5t14 39.5q43 146 87 291.5t88 291.5h34l213 -660h44v-17h-239v17h67l-64 201h-174l-7 -20q-5 -15 -12 -38t-13.5 -46t-11.5 -42t-5 -26q0 -12 9.5 -18t22.5 -8.5t27 -2.5h5h2h1h1h1h1v0h12v-17h-177v17zM144 235h164l-84 262z" />
    <glyph glyph-name="Adieresis" unicode="&#xc4;" horiz-adv-x="536" 
d="M147 766q0 24 17 41t41 17t41 -17t17 -41t-17 -41t-41 -17t-41 17t-17 41zM302 766q0 24 17 41t41 17t41 -17t17 -41t-17 -41t-41 -17t-41 17t-17 41zM-5 17q22 0 36 3t23 11t15 23.5t14 39.5q43 146 87 291.5t88 291.5h34l213 -660h44v-17h-239v17h67l-64 201h-174
l-7 -20q-5 -15 -12 -38t-13.5 -46t-11.5 -42t-5 -26q0 -12 9.5 -18t22.5 -8.5t27 -2.5h5h2h1h1h1h1v0h12v-17h-177v17zM144 235h164l-84 262z" />
    <glyph glyph-name="Aring" unicode="&#xc5;" horiz-adv-x="536" 
d="M271 701q-29 0 -48 19.5t-19 48.5q0 28 19 47t48 19t48 -18.5t19 -47.5q0 -28 -19.5 -48t-47.5 -20zM270 805q-16 0 -27 -10.5t-11 -25.5t11 -26t27 -11t27 10.5t11 26.5q0 15 -11 25.5t-27 10.5zM-5 17q22 0 36 3t23 11t15 23.5t14 39.5q43 146 87 291.5t88 291.5h34
l213 -660h44v-17h-239v17h67l-64 201h-174l-7 -20q-5 -15 -12 -38t-13.5 -46t-11.5 -42t-5 -26q0 -12 9.5 -18t22.5 -8.5t27 -2.5h5h2h1h1h1h1v0h12v-17h-177v17zM144 235h164l-84 262z" />
    <glyph glyph-name="AE" unicode="&#xc6;" horiz-adv-x="930" 
d="M568 20h97q46 0 85.5 2.5t68.5 19t46 52.5t17 103h17v-197h-502v17h50v201h-231q-72 -127 -82.5 -146t-10.5 -26q0 -12 9.5 -18t22.5 -8.5t26 -2.5h24v-17h-177v17q22 0 36 3t23 11t18 23.5t333 595.5h-42v17h502l1 -164h-17q-8 55 -28.5 84.5t-50 43t-67 15t-80.5 1.5
h-88v-295h26q31 0 54.5 2t39.5 13t24 34.5t9 65.5h16v-252h-16q-1 38 -7.5 60.5t-18.5 34t-29 15t-39 3.5h-59v-308zM228 235h219v393z" />
    <glyph glyph-name="Ccedilla" unicode="&#xc7;" horiz-adv-x="551" 
d="M484 0q0 9 -1 19t-4 18.5t-8.5 14.5t-14.5 6q-5 0 -13.5 -5t-19.5 -13q-20 -16 -51.5 -33.5t-74.5 -17.5h-16l-25 -27q22 7 42 7q21 0 43 -6t40 -18.5t29 -31.5t11 -45q0 -29 -11.5 -49t-30 -32t-42 -17.5t-46.5 -5.5q-15 0 -31 3.5t-29 11.5t-21.5 20.5t-8.5 30.5
q0 14 10 25.5t27 11.5q14 0 23.5 -7.5t9.5 -20.5q0 -14 -9 -18.5t-23 -6.5q1 -9 7 -14.5t14 -9.5t15.5 -5.5t12.5 -1.5q27 0 40.5 24.5t13.5 56.5q0 16 -2.5 31t-8.5 27t-16 19t-25 7q-11 0 -23.5 -5t-28.5 -19l-26 11l49 57q-38 5 -70 24q-48 26 -81 71t-51 105.5
t-18 128.5t17.5 132.5t50.5 114t81 79.5t110 30q27 0 48 -8.5t39 -18.5t34 -18.5t34 -8.5q12 0 18 6.5t8 20.5h18v-202h-20q-2 36 -15.5 72.5t-34.5 66t-49.5 48t-60.5 18.5t-55 -17t-39 -45t-25.5 -63.5t-15 -72t-7 -72t-1.5 -62.5q0 -51 6 -103.5t24 -96t51 -71t87 -27.5
q29 0 53 21.5t42 54t29.5 70t15.5 69.5h15v-238h-15z" />
    <glyph glyph-name="Egrave" unicode="&#xc8;" horiz-adv-x="558" 
d="M386 709l-6 -9q-29 13 -55 24q-23 10 -45.5 20.5t-35.5 18.5q-11 6 -18.5 11t-11.5 12t-4 16.5t5 24.5q5 11 15 14t19 3q2 0 9.5 -0.5t20 -4t20.5 -6.5zM198 20h97q46 0 85.5 2.5t68.5 19t46 52.5t17 103h17v-197h-502v17h50v633h-50v17h501l1 -164h-17q-8 55 -28.5 84.5
t-50 43t-67 15t-80.5 1.5h-88v-295h26q31 0 54.5 2t39.5 13t24 34.5t9 65.5h16v-252h-16q-1 38 -7.5 60.5t-18.5 34t-29 15t-39 3.5h-59v-308z" />
    <glyph glyph-name="Eacute" unicode="&#xc9;" horiz-adv-x="558" 
d="M292 833q8 3 20.5 6.5t20 4t9.5 0.5q9 0 19 -3t15 -14q5 -15 5 -24.5t-4 -16.5t-12 -12t-18 -11q-14 -8 -36 -18.5t-45 -20.5q-26 -11 -55 -24l-6 9zM198 20h97q46 0 85.5 2.5t68.5 19t46 52.5t17 103h17v-197h-502v17h50v633h-50v17h501l1 -164h-17q-8 55 -28.5 84.5
t-50 43t-67 15t-80.5 1.5h-88v-295h26q31 0 54.5 2t39.5 13t24 34.5t9 65.5h16v-252h-16q-1 38 -7.5 60.5t-18.5 34t-29 15t-39 3.5h-59v-308z" />
    <glyph glyph-name="Ecircumflex" unicode="&#xca;" horiz-adv-x="558" 
d="M412 717l-6 -9q-24 9 -47 20q-20 8 -41.5 18.5t-36.5 18.5l-2 -1q-8 -4 -17 -9h-1q-5 -2 -9 -5h-2q-3 -2 -6 -3q-21 -11 -41 -19q-23 -11 -47 -20l-6 9l87 124q13 7 21 9t16 2q17 0 28.5 -4t22.5 -7zM198 20h97q46 0 85.5 2.5t68.5 19t46 52.5t17 103h17v-197h-502v17h50
v633h-50v17h501l1 -164h-17q-8 55 -28.5 84.5t-50 43t-67 15t-80.5 1.5h-88v-295h26q31 0 54.5 2t39.5 13t24 34.5t9 65.5h16v-252h-16q-1 38 -7.5 60.5t-18.5 34t-29 15t-39 3.5h-59v-308z" />
    <glyph glyph-name="Edieresis" unicode="&#xcb;" horiz-adv-x="558" 
d="M155 766q0 24 17 41t41 17t41 -17t17 -41t-17 -41t-41 -17t-41 17t-17 41zM310 766q0 24 17 41t41 17t41 -17t17 -41t-17 -41t-41 -17t-41 17t-17 41zM198 20h97q46 0 85.5 2.5t68.5 19t46 52.5t17 103h17v-197h-502v17h50v633h-50v17h501l1 -164h-17q-8 55 -28.5 84.5
t-50 43t-67 15t-80.5 1.5h-88v-295h26q31 0 54.5 2t39.5 13t24 34.5t9 65.5h16v-252h-16q-1 38 -7.5 60.5t-18.5 34t-29 15t-39 3.5h-59v-308z" />
    <glyph glyph-name="Igrave" unicode="&#xcc;" horiz-adv-x="308" 
d="M218 709l-6 -9q-29 13 -55 24q-23 10 -45.5 20.5t-35.5 18.5q-11 6 -18.5 11t-11.5 12t-4 16.5t5 24.5q5 11 15 14t19 3q2 0 9.5 -0.5t20 -4t20.5 -6.5zM31 667h249v-17h-72v-633h72v-17h-249v17h63v633h-63v17z" />
    <glyph glyph-name="Iacute" unicode="&#xcd;" horiz-adv-x="308" 
d="M164 833q8 3 20.5 6.5t20 4t9.5 0.5q9 0 19 -3t15 -14q5 -15 5 -24.5t-4 -16.5t-12 -12t-18 -11q-14 -8 -36 -18.5t-45 -20.5q-26 -11 -55 -24l-6 9zM31 667h249v-17h-72v-633h72v-17h-249v17h63v633h-63v17z" />
    <glyph glyph-name="Icircumflex" unicode="&#xce;" horiz-adv-x="308" 
d="M202 719q-11 -3 -22.5 -7t-28.5 -4q-8 0 -16 2t-21 9l-87 124l6 9q24 -10 47 -20q20 -9 41 -19t37 -18q15 8 36.5 18t41.5 19q23 10 47 20l6 -9zM31 667h249v-17h-72v-633h72v-17h-249v17h63v633h-63v17z" />
    <glyph glyph-name="Idieresis" unicode="&#xcf;" horiz-adv-x="308" 
d="M18 766q0 24 17 41t41 17t41 -17t17 -41t-17 -41t-41 -17t-41 17t-17 41zM173 766q0 24 17 41t41 17t41 -17t17 -41t-17 -41t-41 -17t-41 17t-17 41zM31 667h249v-17h-72v-633h72v-17h-249v17h63v633h-63v17z" />
    <glyph glyph-name="Eth" unicode="&#xd0;" horiz-adv-x="616" 
d="M27 667h207q70 0 133 -16t110.5 -54.5t75.5 -103.5t28 -162q0 -95 -26.5 -158.5t-72 -101.5t-106 -54.5t-129.5 -16.5h-220v17h57v300h-70v42h70v290h-57v18zM202 649v-290h115v-42h-115v-300q72 0 121 19.5t79 59.5t43 100.5t13 142.5q0 67 -14 124t-42.5 98.5t-72 65
t-102.5 23.5z" />
    <glyph glyph-name="Ntilde" unicode="&#xd1;" horiz-adv-x="626" 
d="M399 771q13 2 22.5 13.5t14.5 23.5v-3l11 -1q-3 -14 -9 -30.5t-15 -32t-22.5 -27t-31.5 -13.5h-5q-10 0 -32 6.5t-51 14.5q-9 2 -25 6t-23 4h-3q-12 -2 -21 -13t-14 -22l-12 2q3 13 9 29.5t15.5 32t23 26.5t31.5 14q3 1 7 1q10 0 26.5 -5t36.5 -11t37 -11t25 -5q3 0 5 1z
M21 17q30 0 47 1.5t24.5 10t9 26t1.5 50.5v532l-13 13h-69v17h201l290 -476v376q0 32 -1.5 49t-7.5 24.5t-17.5 8.5t-31.5 1h-22v17h181v-17h-23q-20 0 -32 -1t-18 -8.5t-7.5 -24.5t-1.5 -49v-572h-50l-359 594v-467q0 -40 1 -61.5t8.5 -31t24.5 -11t49 -1.5v-17h-184v17z
" />
    <glyph glyph-name="Ograve" unicode="&#xd2;" 
d="M386 709l-6 -9q-29 13 -55 24q-23 10 -45.5 20.5t-35.5 18.5q-11 6 -18.5 11t-11.5 12t-4 16.5t5 24.5q5 11 15 14t19 3q2 0 9.5 -0.5t20 -4t20.5 -6.5zM301 680q57 0 104.5 -30.5t82 -80t53.5 -112t19 -125.5q0 -64 -19 -125.5t-53.5 -110t-82 -78.5t-104.5 -30
q-58 0 -106 30.5t-82 80.5t-53 113t-19 128q0 62 20.5 123t56 109t82.5 78t101 30zM303 664q-32 0 -55 -16.5t-39 -44t-25.5 -62t-15 -71t-7.5 -72t-2 -63.5q0 -29 1.5 -64.5t6.5 -72t14 -71.5t24.5 -62.5t38.5 -44t56 -16.5t56 17t38 44.5t23 63t12 72t5 72t1 63.5
q0 25 -1.5 59t-6.5 70t-13.5 72t-23.5 64t-36 45.5t-51 17.5z" />
    <glyph glyph-name="Oacute" unicode="&#xd3;" 
d="M305 833q8 3 20.5 6.5t20 4t9.5 0.5q9 0 19 -3t15 -14q5 -15 5 -24.5t-4 -16.5t-12 -12t-18 -11q-14 -8 -36 -18.5t-45 -20.5q-26 -11 -55 -24l-6 9zM301 680q57 0 104.5 -30.5t82 -80t53.5 -112t19 -125.5q0 -64 -19 -125.5t-53.5 -110t-82 -78.5t-104.5 -30
q-58 0 -106 30.5t-82 80.5t-53 113t-19 128q0 62 20.5 123t56 109t82.5 78t101 30zM303 664q-32 0 -55 -16.5t-39 -44t-25.5 -62t-15 -71t-7.5 -72t-2 -63.5q0 -29 1.5 -64.5t6.5 -72t14 -71.5t24.5 -62.5t38.5 -44t56 -16.5t56 17t38 44.5t23 63t12 72t5 72t1 63.5
q0 25 -1.5 59t-6.5 70t-13.5 72t-23.5 64t-36 45.5t-51 17.5z" />
    <glyph glyph-name="Ocircumflex" unicode="&#xd4;" 
d="M431 717l-6 -9q-24 9 -47 20q-20 8 -41.5 18.5t-36.5 18.5l-2 -1q-5 -3 -10 -5l-2 -1q-3 -1 -5 -3h-1q-5 -2 -9 -5h-2q-3 -2 -6 -3q-21 -11 -41 -19q-23 -11 -47 -20l-6 9l87 124q13 7 21 9t16 2q17 0 28.5 -4t22.5 -7zM301 680q57 0 104.5 -30.5t82 -80t53.5 -112
t19 -125.5q0 -64 -19 -125.5t-53.5 -110t-82 -78.5t-104.5 -30q-58 0 -106 30.5t-82 80.5t-53 113t-19 128q0 62 20.5 123t56 109t82.5 78t101 30zM303 664q-32 0 -55 -16.5t-39 -44t-25.5 -62t-15 -71t-7.5 -72t-2 -63.5q0 -29 1.5 -64.5t6.5 -72t14 -71.5t24.5 -62.5
t38.5 -44t56 -16.5t56 17t38 44.5t23 63t12 72t5 72t1 63.5q0 25 -1.5 59t-6.5 70t-13.5 72t-23.5 64t-36 45.5t-51 17.5z" />
    <glyph glyph-name="Otilde" unicode="&#xd5;" 
d="M399 771q13 2 22.5 13.5t14.5 23.5v-3l11 -1q-3 -14 -9 -30.5t-15 -32t-22.5 -27t-31.5 -13.5h-5q-10 0 -32 6.5t-51 14.5q-9 2 -25 6t-23 4h-3q-12 -2 -21 -13t-14 -22l-12 2q3 13 9 29.5t15.5 32t23 26.5t31.5 14q3 1 7 1q10 0 26.5 -5t36.5 -11t37 -11t25 -5q3 0 5 1z
M301 680q57 0 104.5 -30.5t82 -80t53.5 -112t19 -125.5q0 -64 -19 -125.5t-53.5 -110t-82 -78.5t-104.5 -30q-58 0 -106 30.5t-82 80.5t-53 113t-19 128q0 62 20.5 123t56 109t82.5 78t101 30zM303 664q-32 0 -55 -16.5t-39 -44t-25.5 -62t-15 -71t-7.5 -72t-2 -63.5
q0 -29 1.5 -64.5t6.5 -72t14 -71.5t24.5 -62.5t38.5 -44t56 -16.5t56 17t38 44.5t23 63t12 72t5 72t1 63.5q0 25 -1.5 59t-6.5 70t-13.5 72t-23.5 64t-36 45.5t-51 17.5z" />
    <glyph glyph-name="Odieresis" unicode="&#xd6;" 
d="M168 766q0 24 17 41t41 17t41 -17t17 -41t-17 -41t-41 -17t-41 17t-17 41zM323 766q0 24 17 41t41 17t41 -17t17 -41t-17 -41t-41 -17t-41 17t-17 41zM301 680q57 0 104.5 -30.5t82 -80t53.5 -112t19 -125.5q0 -64 -19 -125.5t-53.5 -110t-82 -78.5t-104.5 -30
q-58 0 -106 30.5t-82 80.5t-53 113t-19 128q0 62 20.5 123t56 109t82.5 78t101 30zM303 664q-32 0 -55 -16.5t-39 -44t-25.5 -62t-15 -71t-7.5 -72t-2 -63.5q0 -29 1.5 -64.5t6.5 -72t14 -71.5t24.5 -62.5t38.5 -44t56 -16.5t56 17t38 44.5t23 63t12 72t5 72t1 63.5
q0 25 -1.5 59t-6.5 70t-13.5 72t-23.5 64t-36 45.5t-51 17.5z" />
    <glyph glyph-name="multiply" unicode="&#xd7;" horiz-adv-x="289" 
d="M268 427l-92 -92l92 -93l-30 -29l-92 92l-92 -92l-30 29l93 93l-93 92l29 30l93 -93l93 93z" />
    <glyph glyph-name="Oslash" unicode="&#xd8;" 
d="M301 681q41 0 77 -16l25 76l20 -6l-26 -80q4 -2 9 -5q47 -31 81.5 -80.5t53.5 -112t19 -125.5q0 -64 -19 -125.5t-53.5 -110t-82 -78.5t-104.5 -30q-58 0 -106 31l-4 2l-30 -93l-20 6l33 100q-35 28 -61 66q-34 50 -53 113t-19 128q0 61 20.5 122t56 109.5t82.5 78.5
t101 30zM303 664q-32 0 -55 -16.5t-39 -43.5t-25.5 -61.5t-15 -71.5t-7.5 -72.5t-2 -63.5t1.5 -63.5t6.5 -72t14 -71.5q5 -19 12 -35l175 540l-14 14q-21 17 -51 17zM206 65q15 -27 38 -43.5t56 -16.5t56 17t38 44.5t23 63t12 72t5 72t1 63.5q0 25 -1.5 58.5t-6.5 70
t-13.5 72t-23.5 63.5q-3 6 -7 12z" />
    <glyph glyph-name="Ugrave" unicode="&#xd9;" horiz-adv-x="623" 
d="M386 709l-6 -9q-29 13 -55 24q-23 10 -45.5 20.5t-35.5 18.5q-11 6 -18.5 11t-11.5 12t-4 16.5t5 24.5q5 11 15 14t19 3q2 0 9.5 -0.5t20 -4t20.5 -6.5zM616 650h-16q-20 0 -32.5 -1t-20 -8.5t-10 -24.5t-2.5 -48v-341q0 -130 -52.5 -185.5t-157.5 -55.5q-33 0 -72.5 5
t-75 20.5t-62 43.5t-32.5 74q-2 11 -2 28v3v1v3v3v1v0v1v3v478h-63v17h253v-17h-64v-431q0 -46 5.5 -84.5t21 -66.5t42.5 -44t69 -16q46 0 78.5 16.5t52 47t28.5 74t9 96.5v326q0 32 -3.5 49t-11.5 25t-17.5 9t-17.5 1t-18 -1q-5 0 -10.5 -0.5t-12.5 -0.5v17h194v-17z" />
    <glyph glyph-name="Uacute" unicode="&#xda;" horiz-adv-x="623" 
d="M329 833q8 3 20.5 6.5t20 4t9.5 0.5q9 0 19 -3t15 -14q5 -15 5 -24.5t-4 -16.5t-12 -12t-18 -11q-14 -8 -36 -18.5t-45 -20.5q-26 -11 -55 -24l-6 9zM616 650h-16q-20 0 -32.5 -1t-20 -8.5t-10 -24.5t-2.5 -48v-341q0 -130 -52.5 -185.5t-157.5 -55.5q-33 0 -72.5 5
t-75 20.5t-62 43.5t-32.5 74q-2 11 -2 28v3v1v3v3v1v0v1v3v478h-63v17h253v-17h-64v-431q0 -46 5.5 -84.5t21 -66.5t42.5 -44t69 -16q46 0 78.5 16.5t52 47t28.5 74t9 96.5v326q0 32 -3.5 49t-11.5 25t-17.5 9t-17.5 1t-18 -1q-5 0 -10.5 -0.5t-12.5 -0.5v17h194v-17z" />
    <glyph glyph-name="Ucircumflex" unicode="&#xdb;" horiz-adv-x="623" 
d="M440 717l-6 -9q-24 9 -47 20q-20 8 -41.5 18.5t-36.5 18.5l-2 -1q-5 -3 -10 -5l-2 -1q-3 -1 -5 -3h-1q-5 -2 -9 -5h-2q-3 -2 -6 -3q-21 -11 -41 -19q-23 -11 -47 -20l-6 9l87 124q13 7 21 9t16 2q17 0 28.5 -4t22.5 -7zM616 650h-16q-20 0 -32.5 -1t-20 -8.5t-10 -24.5
t-2.5 -48v-341q0 -130 -52.5 -185.5t-157.5 -55.5q-33 0 -72.5 5t-75 20.5t-62 43.5t-32.5 74q-2 11 -2 28v3v1v3v3v1v0v1v3v478h-63v17h253v-17h-64v-431q0 -46 5.5 -84.5t21 -66.5t42.5 -44t69 -16q46 0 78.5 16.5t52 47t28.5 74t9 96.5v326q0 32 -3.5 49t-11.5 25
t-17.5 9t-17.5 1t-18 -1q-5 0 -10.5 -0.5t-12.5 -0.5v17h194v-17z" />
    <glyph glyph-name="Udieresis" unicode="&#xdc;" horiz-adv-x="623" 
d="M191 766q0 24 17 41t41 17t41 -17t17 -41t-17 -41t-41 -17t-41 17t-17 41zM346 766q0 24 17 41t41 17t41 -17t17 -41t-17 -41t-41 -17t-41 17t-17 41zM616 650h-16q-20 0 -32.5 -1t-20 -8.5t-10 -24.5t-2.5 -48v-341q0 -130 -52.5 -185.5t-157.5 -55.5q-33 0 -72.5 5
t-75 20.5t-62 43.5t-32.5 74q-2 11 -2 28v3v1v3v3v1v0v1v3v478h-63v17h253v-17h-64v-431q0 -46 5.5 -84.5t21 -66.5t42.5 -44t69 -16q46 0 78.5 16.5t52 47t28.5 74t9 96.5v326q0 32 -3.5 49t-11.5 25t-17.5 9t-17.5 1t-18 -1q-5 0 -10.5 -0.5t-12.5 -0.5v17h194v-17z" />
    <glyph glyph-name="Yacute" unicode="&#xdd;" horiz-adv-x="483" 
d="M274 833q8 3 20.5 6.5t20 4t9.5 0.5q9 0 19 -3t15 -14q5 -15 5 -24.5t-4 -16.5t-12 -12t-18 -11q-14 -8 -36 -18.5t-45 -20.5q-26 -11 -55 -24l-6 9zM333 667h177v-16h-21q-14 0 -23 -2.5t-16.5 -10t-14 -21.5t-15.5 -36l-125 -315v-249h64v-17h-235v17h63v226l-157 407
h-53v17h239v-17h-63l133 -346l97 237q3 6 7 17.5t8 24t7 24t3 18.5q0 17 -15.5 21.5t-33.5 4.5q-7 0 -13 -0.5t-11 -0.5h-2v17z" />
    <glyph glyph-name="Thorn" unicode="&#xde;" horiz-adv-x="528" 
d="M264 547q38 0 80 -7t77 -27t58 -56t23 -93v-3v-1v-4v-1v-1v-1v0v-1v-1v-1v-1v-6v-3v-1v-1q0 -57 -23 -93t-58 -56t-77 -27t-80 -7h-67v-138h72v-17h-249v17h63v633h-63v17h249v-17h-72v-103h67zM395 353q0 48 -11.5 82t-33.5 55.5t-53 31.5q-28 9 -100 10v-362
q72 0 100 10q31 10 53 31.5t33.5 55.5t11.5 86z" />
    <glyph glyph-name="germandbls" unicode="&#xdf;" horiz-adv-x="694" 
d="M349 414q0 -15 13.5 -31.5t32.5 -30.5t38 -24.5t30 -13.5q33 -10 67 -22.5t63 -31.5t49.5 -46.5t25.5 -66.5v-8q0 -38 -16.5 -66.5t-43 -47.5t-60 -28t-67.5 -9q-16 0 -26.5 2t-19.5 5.5t-18.5 8.5t-24.5 11q-11 5 -22 8.5t-22 3.5t-15.5 -12.5t-5.5 -21.5h-16v190h16
q4 -43 12.5 -76t26 -55t46 -33.5t72.5 -11.5q17 0 37.5 3.5t38.5 12t30 23t12 35.5q0 28 -22 45.5t-55 32t-71 28.5t-71 36t-55 55t-22 84q0 36 9.5 59.5t24 40t31.5 28.5t31.5 25.5t24 31t9.5 44.5q0 19 -9.5 32t-24 21t-31.5 11.5t-33 3.5q-47 0 -74.5 -19t-41.5 -49.5
t-18 -68t-4 -74.5v-431h64v-17h-253v17h63v493q0 52 22 85.5t57 52.5t78.5 26t86.5 7q25 0 49.5 -4t43.5 -15.5t30.5 -30.5t11.5 -49q0 -34 -16.5 -57t-36 -41t-35.5 -34t-16 -36z" />
    <glyph glyph-name="agrave" unicode="&#xe0;" horiz-adv-x="536" 
d="M386 709l-6 -9q-29 13 -55 24q-23 10 -45.5 20.5t-35.5 18.5q-11 6 -18.5 11t-11.5 12t-4 16.5t5 24.5q5 11 15 14t19 3q2 0 9.5 -0.5t20 -4t20.5 -6.5zM-5 17q22 0 36 3t23 11t15 23.5t14 39.5q43 146 87 291.5t88 291.5h34l213 -660h44v-17h-239v17h67l-64 201h-174
l-7 -20q-5 -15 -12 -38t-13.5 -46t-11.5 -42t-5 -26q0 -12 9.5 -18t22.5 -8.5t27 -2.5h5h2h1h1h1h1v0h12v-17h-177v17zM144 235h164l-84 262z" />
    <glyph glyph-name="aacute" unicode="&#xe1;" horiz-adv-x="536" 
d="M289 833q8 3 20.5 6.5t20 4t9.5 0.5q9 0 19 -3t15 -14q5 -15 5 -24.5t-4 -16.5t-12 -12t-18 -11q-14 -8 -36 -18.5t-45 -20.5q-26 -11 -55 -24l-6 9zM-5 17q22 0 36 3t23 11t15 23.5t14 39.5q43 146 87 291.5t88 291.5h34l213 -660h44v-17h-239v17h67l-64 201h-174
l-7 -20q-5 -15 -12 -38t-13.5 -46t-11.5 -42t-5 -26q0 -12 9.5 -18t22.5 -8.5t27 -2.5h5h2h1h1h1h1v0h12v-17h-177v17zM144 235h164l-84 262z" />
    <glyph glyph-name="acircumflex" unicode="&#xe2;" horiz-adv-x="536" 
d="M412 717l-6 -9q-24 9 -47 20q-20 8 -41.5 18.5t-36.5 18.5l-2 -1q-8 -4 -17 -9h-1q-5 -2 -9 -5h-2q-3 -2 -6 -3q-21 -11 -41 -19q-23 -11 -47 -20l-6 9l87 124q13 7 21 9t16 2q17 0 28.5 -4t22.5 -7zM-5 17q22 0 36 3t23 11t15 23.5t14 39.5q43 146 87 291.5t88 291.5h34
l213 -660h44v-17h-239v17h67l-64 201h-174l-7 -20q-5 -15 -12 -38t-13.5 -46t-11.5 -42t-5 -26q0 -12 9.5 -18t22.5 -8.5t27 -2.5h5h2h1h1h1h1v0h12v-17h-177v17zM144 235h164l-84 262z" />
    <glyph glyph-name="atilde" unicode="&#xe3;" horiz-adv-x="536" 
d="M371 771q13 2 22.5 13.5t14.5 23.5v-3l11 -1q-3 -14 -9 -30.5t-15 -32t-22.5 -27t-31.5 -13.5h-5q-10 0 -32 6.5t-51 14.5q-9 2 -25 6t-23 4h-3q-12 -2 -21 -13t-14 -22l-12 2q3 13 9 29.5t15.5 32t23 26.5t31.5 14q3 1 7 1q10 0 26.5 -5t36.5 -11t37 -11t25 -5q3 0 5 1z
M-5 17q22 0 36 3t23 11t15 23.5t14 39.5q43 146 87 291.5t88 291.5h34l213 -660h44v-17h-239v17h67l-64 201h-174l-7 -20q-5 -15 -12 -38t-13.5 -46t-11.5 -42t-5 -26q0 -12 9.5 -18t22.5 -8.5t27 -2.5h5h2h1h1h1h1v0h12v-17h-177v17zM144 235h164l-84 262z" />
    <glyph glyph-name="adieresis" unicode="&#xe4;" horiz-adv-x="536" 
d="M147 766q0 24 17 41t41 17t41 -17t17 -41t-17 -41t-41 -17t-41 17t-17 41zM302 766q0 24 17 41t41 17t41 -17t17 -41t-17 -41t-41 -17t-41 17t-17 41zM-5 17q22 0 36 3t23 11t15 23.5t14 39.5q43 146 87 291.5t88 291.5h34l213 -660h44v-17h-239v17h67l-64 201h-174
l-7 -20q-5 -15 -12 -38t-13.5 -46t-11.5 -42t-5 -26q0 -12 9.5 -18t22.5 -8.5t27 -2.5h5h2h1h1h1h1v0h12v-17h-177v17zM144 235h164l-84 262z" />
    <glyph glyph-name="aring" unicode="&#xe5;" horiz-adv-x="536" 
d="M271 701q-29 0 -48 19.5t-19 48.5q0 28 19 47t48 19t48 -18.5t19 -47.5q0 -28 -19.5 -48t-47.5 -20zM270 805q-16 0 -27 -10.5t-11 -25.5t11 -26t27 -11t27 10.5t11 26.5q0 15 -11 25.5t-27 10.5zM-5 17q22 0 36 3t23 11t15 23.5t14 39.5q43 146 87 291.5t88 291.5h34
l213 -660h44v-17h-239v17h67l-64 201h-174l-7 -20q-5 -15 -12 -38t-13.5 -46t-11.5 -42t-5 -26q0 -12 9.5 -18t22.5 -8.5t27 -2.5h5h2h1h1h1h1v0h12v-17h-177v17zM144 235h164l-84 262z" />
    <glyph glyph-name="ae" unicode="&#xe6;" horiz-adv-x="930" 
d="M568 20h97q46 0 85.5 2.5t68.5 19t46 52.5t17 103h17v-197h-502v17h50v201h-231q-72 -127 -82.5 -146t-10.5 -26q0 -12 9.5 -18t22.5 -8.5t26 -2.5h24v-17h-177v17q22 0 36 3t23 11t18 23.5t333 595.5h-42v17h502l1 -164h-17q-8 55 -28.5 84.5t-50 43t-67 15t-80.5 1.5
h-88v-295h26q31 0 54.5 2t39.5 13t24 34.5t9 65.5h16v-252h-16q-1 38 -7.5 60.5t-18.5 34t-29 15t-39 3.5h-59v-308zM228 235h219v393z" />
    <glyph glyph-name="ccedilla" unicode="&#xe7;" horiz-adv-x="551" 
d="M484 0q0 9 -1 19t-4 18.5t-8.5 14.5t-14.5 6q-5 0 -13.5 -5t-19.5 -13q-20 -16 -51.5 -33.5t-74.5 -17.5h-16l-25 -27q22 7 42 7q21 0 43 -6t40 -18.5t29 -31.5t11 -45q0 -29 -11.5 -49t-30 -32t-42 -17.5t-46.5 -5.5q-15 0 -31 3.5t-29 11.5t-21.5 20.5t-8.5 30.5
q0 14 10 25.5t27 11.5q14 0 23.5 -7.5t9.5 -20.5q0 -14 -9 -18.5t-23 -6.5q1 -9 7 -14.5t14 -9.5t15.5 -5.5t12.5 -1.5q27 0 40.5 24.5t13.5 56.5q0 16 -2.5 31t-8.5 27t-16 19t-25 7q-11 0 -23.5 -5t-28.5 -19l-26 11l49 57q-38 5 -70 24q-48 26 -81 71t-51 105.5
t-18 128.5t17.5 132.5t50.5 114t81 79.5t110 30q27 0 48 -8.5t39 -18.5t34 -18.5t34 -8.5q12 0 18 6.5t8 20.5h18v-202h-20q-2 36 -15.5 72.5t-34.5 66t-49.5 48t-60.5 18.5t-55 -17t-39 -45t-25.5 -63.5t-15 -72t-7 -72t-1.5 -62.5q0 -51 6 -103.5t24 -96t51 -71t87 -27.5
q29 0 53 21.5t42 54t29.5 70t15.5 69.5h15v-238h-15z" />
    <glyph glyph-name="egrave" unicode="&#xe8;" horiz-adv-x="558" 
d="M386 709l-6 -9q-29 13 -55 24q-23 10 -45.5 20.5t-35.5 18.5q-11 6 -18.5 11t-11.5 12t-4 16.5t5 24.5q5 11 15 14t19 3q2 0 9.5 -0.5t20 -4t20.5 -6.5zM198 20h97q46 0 85.5 2.5t68.5 19t46 52.5t17 103h17v-197h-502v17h50v633h-50v17h501l1 -164h-17q-8 55 -28.5 84.5
t-50 43t-67 15t-80.5 1.5h-88v-295h26q31 0 54.5 2t39.5 13t24 34.5t9 65.5h16v-252h-16q-1 38 -7.5 60.5t-18.5 34t-29 15t-39 3.5h-59v-308z" />
    <glyph glyph-name="eacute" unicode="&#xe9;" horiz-adv-x="558" 
d="M292 833q8 3 20.5 6.5t20 4t9.5 0.5q9 0 19 -3t15 -14q5 -15 5 -24.5t-4 -16.5t-12 -12t-18 -11q-14 -8 -36 -18.5t-45 -20.5q-26 -11 -55 -24l-6 9zM198 20h97q46 0 85.5 2.5t68.5 19t46 52.5t17 103h17v-197h-502v17h50v633h-50v17h501l1 -164h-17q-8 55 -28.5 84.5
t-50 43t-67 15t-80.5 1.5h-88v-295h26q31 0 54.5 2t39.5 13t24 34.5t9 65.5h16v-252h-16q-1 38 -7.5 60.5t-18.5 34t-29 15t-39 3.5h-59v-308z" />
    <glyph glyph-name="ecircumflex" unicode="&#xea;" horiz-adv-x="558" 
d="M412 717l-6 -9q-24 9 -47 20q-20 8 -41.5 18.5t-36.5 18.5l-2 -1q-8 -4 -17 -9h-1q-5 -2 -9 -5h-2q-3 -2 -6 -3q-21 -11 -41 -19q-23 -11 -47 -20l-6 9l87 124q13 7 21 9t16 2q17 0 28.5 -4t22.5 -7zM198 20h97q46 0 85.5 2.5t68.5 19t46 52.5t17 103h17v-197h-502v17h50
v633h-50v17h501l1 -164h-17q-8 55 -28.5 84.5t-50 43t-67 15t-80.5 1.5h-88v-295h26q31 0 54.5 2t39.5 13t24 34.5t9 65.5h16v-252h-16q-1 38 -7.5 60.5t-18.5 34t-29 15t-39 3.5h-59v-308z" />
    <glyph glyph-name="edieresis" unicode="&#xeb;" horiz-adv-x="558" 
d="M155 766q0 24 17 41t41 17t41 -17t17 -41t-17 -41t-41 -17t-41 17t-17 41zM310 766q0 24 17 41t41 17t41 -17t17 -41t-17 -41t-41 -17t-41 17t-17 41zM198 20h97q46 0 85.5 2.5t68.5 19t46 52.5t17 103h17v-197h-502v17h50v633h-50v17h501l1 -164h-17q-8 55 -28.5 84.5
t-50 43t-67 15t-80.5 1.5h-88v-295h26q31 0 54.5 2t39.5 13t24 34.5t9 65.5h16v-252h-16q-1 38 -7.5 60.5t-18.5 34t-29 15t-39 3.5h-59v-308z" />
    <glyph glyph-name="igrave" unicode="&#xec;" horiz-adv-x="308" 
d="M218 709l-6 -9q-29 13 -55 24q-23 10 -45.5 20.5t-35.5 18.5q-11 6 -18.5 11t-11.5 12t-4 16.5t5 24.5q5 11 15 14t19 3q2 0 9.5 -0.5t20 -4t20.5 -6.5zM31 667h249v-17h-72v-633h72v-17h-249v17h63v633h-63v17z" />
    <glyph glyph-name="iacute" unicode="&#xed;" horiz-adv-x="308" 
d="M164 833q8 3 20.5 6.5t20 4t9.5 0.5q9 0 19 -3t15 -14q5 -15 5 -24.5t-4 -16.5t-12 -12t-18 -11q-14 -8 -36 -18.5t-45 -20.5q-26 -11 -55 -24l-6 9zM31 667h249v-17h-72v-633h72v-17h-249v17h63v633h-63v17z" />
    <glyph glyph-name="icircumflex" unicode="&#xee;" horiz-adv-x="308" 
d="M202 719q-11 -3 -22.5 -7t-28.5 -4q-8 0 -16 2t-21 9l-87 124l6 9q24 -10 47 -20q20 -9 41 -19t37 -18q15 8 36.5 18t41.5 19q23 10 47 20l6 -9zM31 667h249v-17h-72v-633h72v-17h-249v17h63v633h-63v17z" />
    <glyph glyph-name="idieresis" unicode="&#xef;" horiz-adv-x="308" 
d="M18 766q0 24 17 41t41 17t41 -17t17 -41t-17 -41t-41 -17t-41 17t-17 41zM173 766q0 24 17 41t41 17t41 -17t17 -41t-17 -41t-41 -17t-41 17t-17 41zM31 667h249v-17h-72v-633h72v-17h-249v17h63v633h-63v17z" />
    <glyph glyph-name="eth" unicode="&#xf0;" horiz-adv-x="616" 
d="M27 667h207q70 0 133 -16t110.5 -54.5t75.5 -103.5t28 -162q0 -95 -26.5 -158.5t-72 -101.5t-106 -54.5t-129.5 -16.5h-220v17h57v300h-70v42h70v290h-57v18zM202 649v-290h115v-42h-115v-300q72 0 121 19.5t79 59.5t43 100.5t13 142.5q0 67 -14 124t-42.5 98.5t-72 65
t-102.5 23.5z" />
    <glyph glyph-name="ntilde" unicode="&#xf1;" horiz-adv-x="626" 
d="M399 771q13 2 22.5 13.5t14.5 23.5v-3l11 -1q-3 -14 -9 -30.5t-15 -32t-22.5 -27t-31.5 -13.5h-5q-10 0 -32 6.5t-51 14.5q-9 2 -25 6t-23 4h-3q-12 -2 -21 -13t-14 -22l-12 2q3 13 9 29.5t15.5 32t23 26.5t31.5 14q3 1 7 1q10 0 26.5 -5t36.5 -11t37 -11t25 -5q3 0 5 1z
M21 17q30 0 47 1.5t24.5 10t9 26t1.5 50.5v532l-13 13h-69v17h201l290 -476v376q0 32 -1.5 49t-7.5 24.5t-17.5 8.5t-31.5 1h-22v17h181v-17h-23q-20 0 -32 -1t-18 -8.5t-7.5 -24.5t-1.5 -49v-572h-50l-359 594v-467q0 -40 1 -61.5t8.5 -31t24.5 -11t49 -1.5v-17h-184v17z
" />
    <glyph glyph-name="ograve" unicode="&#xf2;" 
d="M386 709l-6 -9q-29 13 -55 24q-23 10 -45.5 20.5t-35.5 18.5q-11 6 -18.5 11t-11.5 12t-4 16.5t5 24.5q5 11 15 14t19 3q2 0 9.5 -0.5t20 -4t20.5 -6.5zM301 680q57 0 104.5 -30.5t82 -80t53.5 -112t19 -125.5q0 -64 -19 -125.5t-53.5 -110t-82 -78.5t-104.5 -30
q-58 0 -106 30.5t-82 80.5t-53 113t-19 128q0 62 20.5 123t56 109t82.5 78t101 30zM303 664q-32 0 -55 -16.5t-39 -44t-25.5 -62t-15 -71t-7.5 -72t-2 -63.5q0 -29 1.5 -64.5t6.5 -72t14 -71.5t24.5 -62.5t38.5 -44t56 -16.5t56 17t38 44.5t23 63t12 72t5 72t1 63.5
q0 25 -1.5 59t-6.5 70t-13.5 72t-23.5 64t-36 45.5t-51 17.5z" />
    <glyph glyph-name="oacute" unicode="&#xf3;" 
d="M305 833q8 3 20.5 6.5t20 4t9.5 0.5q9 0 19 -3t15 -14q5 -15 5 -24.5t-4 -16.5t-12 -12t-18 -11q-14 -8 -36 -18.5t-45 -20.5q-26 -11 -55 -24l-6 9zM301 680q57 0 104.5 -30.5t82 -80t53.5 -112t19 -125.5q0 -64 -19 -125.5t-53.5 -110t-82 -78.5t-104.5 -30
q-58 0 -106 30.5t-82 80.5t-53 113t-19 128q0 62 20.5 123t56 109t82.5 78t101 30zM303 664q-32 0 -55 -16.5t-39 -44t-25.5 -62t-15 -71t-7.5 -72t-2 -63.5q0 -29 1.5 -64.5t6.5 -72t14 -71.5t24.5 -62.5t38.5 -44t56 -16.5t56 17t38 44.5t23 63t12 72t5 72t1 63.5
q0 25 -1.5 59t-6.5 70t-13.5 72t-23.5 64t-36 45.5t-51 17.5z" />
    <glyph glyph-name="ocircumflex" unicode="&#xf4;" 
d="M431 717l-6 -9q-24 9 -47 20q-20 8 -41.5 18.5t-36.5 18.5l-2 -1q-5 -3 -10 -5l-2 -1q-3 -1 -5 -3h-1q-5 -2 -9 -5h-2q-3 -2 -6 -3q-21 -11 -41 -19q-23 -11 -47 -20l-6 9l87 124q13 7 21 9t16 2q17 0 28.5 -4t22.5 -7zM301 680q57 0 104.5 -30.5t82 -80t53.5 -112
t19 -125.5q0 -64 -19 -125.5t-53.5 -110t-82 -78.5t-104.5 -30q-58 0 -106 30.5t-82 80.5t-53 113t-19 128q0 62 20.5 123t56 109t82.5 78t101 30zM303 664q-32 0 -55 -16.5t-39 -44t-25.5 -62t-15 -71t-7.5 -72t-2 -63.5q0 -29 1.5 -64.5t6.5 -72t14 -71.5t24.5 -62.5
t38.5 -44t56 -16.5t56 17t38 44.5t23 63t12 72t5 72t1 63.5q0 25 -1.5 59t-6.5 70t-13.5 72t-23.5 64t-36 45.5t-51 17.5z" />
    <glyph glyph-name="otilde" unicode="&#xf5;" 
d="M399 771q13 2 22.5 13.5t14.5 23.5v-3l11 -1q-3 -14 -9 -30.5t-15 -32t-22.5 -27t-31.5 -13.5h-5q-10 0 -32 6.5t-51 14.5q-9 2 -25 6t-23 4h-3q-12 -2 -21 -13t-14 -22l-12 2q3 13 9 29.5t15.5 32t23 26.5t31.5 14q3 1 7 1q10 0 26.5 -5t36.5 -11t37 -11t25 -5q3 0 5 1z
M301 680q57 0 104.5 -30.5t82 -80t53.5 -112t19 -125.5q0 -64 -19 -125.5t-53.5 -110t-82 -78.5t-104.5 -30q-58 0 -106 30.5t-82 80.5t-53 113t-19 128q0 62 20.5 123t56 109t82.5 78t101 30zM303 664q-32 0 -55 -16.5t-39 -44t-25.5 -62t-15 -71t-7.5 -72t-2 -63.5
q0 -29 1.5 -64.5t6.5 -72t14 -71.5t24.5 -62.5t38.5 -44t56 -16.5t56 17t38 44.5t23 63t12 72t5 72t1 63.5q0 25 -1.5 59t-6.5 70t-13.5 72t-23.5 64t-36 45.5t-51 17.5z" />
    <glyph glyph-name="odieresis" unicode="&#xf6;" 
d="M168 766q0 24 17 41t41 17t41 -17t17 -41t-17 -41t-41 -17t-41 17t-17 41zM323 766q0 24 17 41t41 17t41 -17t17 -41t-17 -41t-41 -17t-41 17t-17 41zM301 680q57 0 104.5 -30.5t82 -80t53.5 -112t19 -125.5q0 -64 -19 -125.5t-53.5 -110t-82 -78.5t-104.5 -30
q-58 0 -106 30.5t-82 80.5t-53 113t-19 128q0 62 20.5 123t56 109t82.5 78t101 30zM303 664q-32 0 -55 -16.5t-39 -44t-25.5 -62t-15 -71t-7.5 -72t-2 -63.5q0 -29 1.5 -64.5t6.5 -72t14 -71.5t24.5 -62.5t38.5 -44t56 -16.5t56 17t38 44.5t23 63t12 72t5 72t1 63.5
q0 25 -1.5 59t-6.5 70t-13.5 72t-23.5 64t-36 45.5t-51 17.5z" />
    <glyph glyph-name="divide" unicode="&#xf7;" horiz-adv-x="368" 
d="M127 449q0 24 17 41t41 17t41 -17t17 -41t-17 -41t-41 -17t-41 17t-17 41zM33 359h303v-42h-303v42zM127 225q0 24 17 41t41 17t41 -17t17 -41t-17 -41t-41 -17t-41 17t-17 41z" />
    <glyph glyph-name="oslash" unicode="&#xf8;" 
d="M301 681q41 0 77 -16l25 76l20 -6l-26 -80q4 -2 9 -5q47 -31 81.5 -80.5t53.5 -112t19 -125.5q0 -64 -19 -125.5t-53.5 -110t-82 -78.5t-104.5 -30q-58 0 -106 31l-4 2l-30 -93l-20 6l33 100q-35 28 -61 66q-34 50 -53 113t-19 128q0 61 20.5 122t56 109.5t82.5 78.5
t101 30zM303 664q-32 0 -55 -16.5t-39 -43.5t-25.5 -61.5t-15 -71.5t-7.5 -72.5t-2 -63.5t1.5 -63.5t6.5 -72t14 -71.5q5 -19 12 -35l175 540l-14 14q-21 17 -51 17zM206 65q15 -27 38 -43.5t56 -16.5t56 17t38 44.5t23 63t12 72t5 72t1 63.5q0 25 -1.5 58.5t-6.5 70
t-13.5 72t-23.5 63.5q-3 6 -7 12z" />
    <glyph glyph-name="ugrave" unicode="&#xf9;" horiz-adv-x="623" 
d="M386 709l-6 -9q-29 13 -55 24q-23 10 -45.5 20.5t-35.5 18.5q-11 6 -18.5 11t-11.5 12t-4 16.5t5 24.5q5 11 15 14t19 3q2 0 9.5 -0.5t20 -4t20.5 -6.5zM616 650h-16q-20 0 -32.5 -1t-20 -8.5t-10 -24.5t-2.5 -48v-341q0 -130 -52.5 -185.5t-157.5 -55.5q-33 0 -72.5 5
t-75 20.5t-62 43.5t-32.5 74q-2 11 -2 28v3v1v3v3v1v0v1v3v478h-63v17h253v-17h-64v-431q0 -46 5.5 -84.5t21 -66.5t42.5 -44t69 -16q46 0 78.5 16.5t52 47t28.5 74t9 96.5v326q0 32 -3.5 49t-11.5 25t-17.5 9t-17.5 1t-18 -1q-5 0 -10.5 -0.5t-12.5 -0.5v17h194v-17z" />
    <glyph glyph-name="uacute" unicode="&#xfa;" horiz-adv-x="623" 
d="M329 833q8 3 20.5 6.5t20 4t9.5 0.5q9 0 19 -3t15 -14q5 -15 5 -24.5t-4 -16.5t-12 -12t-18 -11q-14 -8 -36 -18.5t-45 -20.5q-26 -11 -55 -24l-6 9zM616 650h-16q-20 0 -32.5 -1t-20 -8.5t-10 -24.5t-2.5 -48v-341q0 -130 -52.5 -185.5t-157.5 -55.5q-33 0 -72.5 5
t-75 20.5t-62 43.5t-32.5 74q-2 11 -2 28v3v1v3v3v1v0v1v3v478h-63v17h253v-17h-64v-431q0 -46 5.5 -84.5t21 -66.5t42.5 -44t69 -16q46 0 78.5 16.5t52 47t28.5 74t9 96.5v326q0 32 -3.5 49t-11.5 25t-17.5 9t-17.5 1t-18 -1q-5 0 -10.5 -0.5t-12.5 -0.5v17h194v-17z" />
    <glyph glyph-name="ucircumflex" unicode="&#xfb;" horiz-adv-x="623" 
d="M440 717l-6 -9q-24 9 -47 20q-20 8 -41.5 18.5t-36.5 18.5l-2 -1q-5 -3 -10 -5l-2 -1q-3 -1 -5 -3h-1q-5 -2 -9 -5h-2q-3 -2 -6 -3q-21 -11 -41 -19q-23 -11 -47 -20l-6 9l87 124q13 7 21 9t16 2q17 0 28.5 -4t22.5 -7zM616 650h-16q-20 0 -32.5 -1t-20 -8.5t-10 -24.5
t-2.5 -48v-341q0 -130 -52.5 -185.5t-157.5 -55.5q-33 0 -72.5 5t-75 20.5t-62 43.5t-32.5 74q-2 11 -2 28v3v1v3v3v1v0v1v3v478h-63v17h253v-17h-64v-431q0 -46 5.5 -84.5t21 -66.5t42.5 -44t69 -16q46 0 78.5 16.5t52 47t28.5 74t9 96.5v326q0 32 -3.5 49t-11.5 25
t-17.5 9t-17.5 1t-18 -1q-5 0 -10.5 -0.5t-12.5 -0.5v17h194v-17z" />
    <glyph glyph-name="udieresis" unicode="&#xfc;" horiz-adv-x="623" 
d="M191 766q0 24 17 41t41 17t41 -17t17 -41t-17 -41t-41 -17t-41 17t-17 41zM346 766q0 24 17 41t41 17t41 -17t17 -41t-17 -41t-41 -17t-41 17t-17 41zM616 650h-16q-20 0 -32.5 -1t-20 -8.5t-10 -24.5t-2.5 -48v-341q0 -130 -52.5 -185.5t-157.5 -55.5q-33 0 -72.5 5
t-75 20.5t-62 43.5t-32.5 74q-2 11 -2 28v3v1v3v3v1v0v1v3v478h-63v17h253v-17h-64v-431q0 -46 5.5 -84.5t21 -66.5t42.5 -44t69 -16q46 0 78.5 16.5t52 47t28.5 74t9 96.5v326q0 32 -3.5 49t-11.5 25t-17.5 9t-17.5 1t-18 -1q-5 0 -10.5 -0.5t-12.5 -0.5v17h194v-17z" />
    <glyph glyph-name="yacute" unicode="&#xfd;" horiz-adv-x="483" 
d="M274 833q8 3 20.5 6.5t20 4t9.5 0.5q9 0 19 -3t15 -14q5 -15 5 -24.5t-4 -16.5t-12 -12t-18 -11q-14 -8 -36 -18.5t-45 -20.5q-26 -11 -55 -24l-6 9zM333 667h177v-16h-21q-14 0 -23 -2.5t-16.5 -10t-14 -21.5t-15.5 -36l-125 -315v-249h64v-17h-235v17h63v226l-157 407
h-53v17h239v-17h-63l133 -346l97 237q3 6 7 17.5t8 24t7 24t3 18.5q0 17 -15.5 21.5t-33.5 4.5q-7 0 -13 -0.5t-11 -0.5h-2v17z" />
    <glyph glyph-name="thorn" unicode="&#xfe;" horiz-adv-x="528" 
d="M264 547q38 0 80 -7t77 -27t58 -56t23 -93v-3v-1v-4v-1v-1v-1v0v-1v-1v-1v-1v-6v-3v-1v-1q0 -57 -23 -93t-58 -56t-77 -27t-80 -7h-67v-138h72v-17h-249v17h63v633h-63v17h249v-17h-72v-103h67zM395 353q0 48 -11.5 82t-33.5 55.5t-53 31.5q-28 9 -100 10v-362
q72 0 100 10q31 10 53 31.5t33.5 55.5t11.5 86z" />
    <glyph glyph-name="ydieresis" unicode="&#xff;" horiz-adv-x="483" 
d="M108 766q0 24 17 41t41 17t41 -17t17 -41t-17 -41t-41 -17t-41 17t-17 41zM263 766q0 24 17 41t41 17t41 -17t17 -41t-17 -41t-41 -17t-41 17t-17 41zM333 667h177v-16h-21q-14 0 -23 -2.5t-16.5 -10t-14 -21.5t-15.5 -36l-125 -315v-249h64v-17h-235v17h63v226l-157 407
h-53v17h239v-17h-63l133 -346l97 237q3 6 7 17.5t8 24t7 24t3 18.5q0 17 -15.5 21.5t-33.5 4.5q-7 0 -13 -0.5t-11 -0.5h-2v17z" />
    <glyph glyph-name="ncaron" unicode="&#x148;" horiz-adv-x="626" 
d="M363 719q-11 -3 -22.5 -7t-28.5 -4q-8 0 -16 2t-21 9l-87 124l6 9q24 -10 47 -20q20 -9 41 -19t37 -18q15 8 36.5 18t41.5 19q23 10 47 20l6 -9zM21 17q30 0 47 1.5t24.5 10t9 26t1.5 50.5v532l-13 13h-69v17h201l290 -476v376q0 32 -1.5 49t-7.5 24.5t-17.5 8.5t-31.5 1
h-22v17h181v-17h-23q-20 0 -32 -1t-18 -8.5t-7.5 -24.5t-1.5 -49v-572h-50l-359 594v-467q0 -40 1 -61.5t8.5 -31t24.5 -11t49 -1.5v-17h-184v17z" />
    <glyph glyph-name="OE" unicode="&#x152;" horiz-adv-x="930" 
d="M582 20h97q46 0 85.5 2.5t68.5 19t46 52.5t17 103h17v-197h-452v74q-29 -34 -65 -56q-47 -30 -104 -30q-58 0 -106 30.5t-82 80.5t-53 113t-19 128q0 62 20.5 123t56 109t82.5 78t101 30q57 0 104 -31q36 -23 65 -57v75h451l1 -164h-17q-8 55 -28.5 84.5t-50 43t-67 15
t-80.5 1.5h-88v-295h26q31 0 54.5 2t39.5 13t24 34.5t9 65.5h16v-252h-16q-1 38 -7.5 60.5t-18.5 34t-29 15t-39 3.5h-59v-308zM294 664q-32 0 -55 -16.5t-39 -44t-25.5 -62t-15 -71t-7.5 -72t-2 -63.5q0 -29 1.5 -64.5t6.5 -72t14 -71.5t24.5 -62.5t38.5 -44t56 -16.5
t56 17t38 44.5t23 63t12 72t5 72t1 63.5q0 25 -1.5 59t-6.5 70t-13.5 72t-23.5 64t-36 45.5t-51 17.5z" />
    <glyph glyph-name="oe" unicode="&#x153;" horiz-adv-x="930" 
d="M582 20h97q46 0 85.5 2.5t68.5 19t46 52.5t17 103h17v-197h-452v74q-29 -34 -65 -56q-47 -30 -104 -30q-58 0 -106 30.5t-82 80.5t-53 113t-19 128q0 62 20.5 123t56 109t82.5 78t101 30q57 0 104 -31q36 -23 65 -57v75h451l1 -164h-17q-8 55 -28.5 84.5t-50 43t-67 15
t-80.5 1.5h-88v-295h26q31 0 54.5 2t39.5 13t24 34.5t9 65.5h16v-252h-16q-1 38 -7.5 60.5t-18.5 34t-29 15t-39 3.5h-59v-308zM294 664q-32 0 -55 -16.5t-39 -44t-25.5 -62t-15 -71t-7.5 -72t-2 -63.5q0 -29 1.5 -64.5t6.5 -72t14 -71.5t24.5 -62.5t38.5 -44t56 -16.5
t56 17t38 44.5t23 63t12 72t5 72t1 63.5q0 25 -1.5 59t-6.5 70t-13.5 72t-23.5 64t-36 45.5t-51 17.5z" />
    <glyph glyph-name="Scaron" unicode="&#x160;" horiz-adv-x="470" 
d="M288 719q-11 -3 -22.5 -7t-28.5 -4q-8 0 -16 2t-21 9l-87 124l6 9q24 -10 47 -20q20 -9 41 -19t37 -18q15 8 36.5 18t41.5 19q23 10 47 20l6 -9zM51 238h15q4 -51 16 -92.5t34.5 -71.5t56.5 -46.5t81 -16.5q29 0 52.5 9t39 25.5t19.5 33t4 27.5q0 14 -4 29
q-8 29 -38.5 47t-71.5 37q-35 16 -71.5 35t-67.5 47.5t-50.5 68.5t-19.5 98q0 9 0.5 20t2.5 22q11 81 55 120.5t119 43.5h6q38 0 65 -13.5t45 -26.5q17 -14 28 -14q14 0 17 13.5t3 25.5h16v-201h-17q-7 44 -19 80.5t-31.5 62t-47.5 39.5t-67 14q-26 0 -50 -7t-41.5 -21.5
t-26 -35.5t-8.5 -46v-11q2 -27 14 -46.5t31 -34t43 -25.5t50 -21q33 -13 66.5 -29.5t62 -41t48 -59.5t24.5 -85v-12q0 -39 -12.5 -74t-37 -62t-59 -41.5t-74.5 -14.5q-39 0 -69 11.5t-52 22.5q-12 7 -22.5 11.5t-20.5 4.5q-11 0 -15.5 -16t-5.5 -28h-15v245z" />
    <glyph glyph-name="scaron" unicode="&#x161;" horiz-adv-x="470" 
d="M288 719q-11 -3 -22.5 -7t-28.5 -4q-8 0 -16 2t-21 9l-87 124l6 9q24 -10 47 -20q20 -9 41 -19t37 -18q15 8 36.5 18t41.5 19q23 10 47 20l6 -9zM51 238h15q4 -51 16 -92.5t34.5 -71.5t56.5 -46.5t81 -16.5q29 0 52.5 9t39 25.5t19.5 33t4 27.5q0 14 -4 29
q-8 29 -38.5 47t-71.5 37q-35 16 -71.5 35t-67.5 47.5t-50.5 68.5t-19.5 98q0 9 0.5 20t2.5 22q11 81 55 120.5t119 43.5h6q38 0 65 -13.5t45 -26.5q17 -14 28 -14q14 0 17 13.5t3 25.5h16v-201h-17q-7 44 -19 80.5t-31.5 62t-47.5 39.5t-67 14q-26 0 -50 -7t-41.5 -21.5
t-26 -35.5t-8.5 -46v-11q2 -27 14 -46.5t31 -34t43 -25.5t50 -21q33 -13 66.5 -29.5t62 -41t48 -59.5t24.5 -85v-12q0 -39 -12.5 -74t-37 -62t-59 -41.5t-74.5 -14.5q-39 0 -69 11.5t-52 22.5q-12 7 -22.5 11.5t-20.5 4.5q-11 0 -15.5 -16t-5.5 -28h-15v245z" />
    <glyph glyph-name="Ydieresis" unicode="&#x178;" horiz-adv-x="483" 
d="M108 766q0 24 17 41t41 17t41 -17t17 -41t-17 -41t-41 -17t-41 17t-17 41zM263 766q0 24 17 41t41 17t41 -17t17 -41t-17 -41t-41 -17t-41 17t-17 41zM333 667h177v-16h-21q-14 0 -23 -2.5t-16.5 -10t-14 -21.5t-15.5 -36l-125 -315v-249h64v-17h-235v17h63v226l-157 407
h-53v17h239v-17h-63l133 -346l97 237q3 6 7 17.5t8 24t7 24t3 18.5q0 17 -15.5 21.5t-33.5 4.5q-7 0 -13 -0.5t-11 -0.5h-2v17z" />
    <glyph glyph-name="Zdotaccent" unicode="&#x17b;" horiz-adv-x="519" 
d="M201 773q0 33 22 56t53 23t53 -23t22 -56t-22 -56.5t-53 -23.5t-53 23.5t-22 56.5zM32 0l321 647h-43q-68 0 -112.5 -5.5t-67.5 -18.5v1q-49 -25 -49 -103v-39h-16v185h431l-329 -650h73q65 0 110.5 7t74.5 23t42.5 41t13.5 60v45h17v-193h-466z" />
    <glyph glyph-name="zdotaccent" unicode="&#x17c;" horiz-adv-x="519" 
d="M201 773q0 33 22 56t53 23t53 -23t22 -56t-22 -56.5t-53 -23.5t-53 23.5t-22 56.5zM32 0l321 647h-43q-68 0 -112.5 -5.5t-67.5 -18.5v1q-49 -25 -49 -103v-39h-16v185h431l-329 -650h73q65 0 110.5 7t74.5 23t42.5 41t13.5 60v45h17v-193h-466z" />
    <glyph glyph-name="Zcaron" unicode="&#x17d;" horiz-adv-x="519" 
d="M327 719q-11 -3 -22.5 -7t-28.5 -4q-8 0 -16 2t-21 9l-87 124l6 9q24 -10 47 -20q20 -9 41 -19t37 -18q15 8 36.5 18t41.5 19q23 10 47 20l6 -9zM32 0l321 647h-43q-68 0 -112.5 -5.5t-67.5 -18.5v1q-49 -25 -49 -103v-39h-16v185h431l-329 -650h73q65 0 110.5 7t74.5 23
t42.5 41t13.5 60v45h17v-193h-466z" />
    <glyph glyph-name="zcaron" unicode="&#x17e;" horiz-adv-x="519" 
d="M327 719q-11 -3 -22.5 -7t-28.5 -4q-8 0 -16 2t-21 9l-87 124l6 9q24 -10 47 -20q20 -9 41 -19t37 -18q15 8 36.5 18t41.5 19q23 10 47 20l6 -9zM32 0l321 647h-43q-68 0 -112.5 -5.5t-67.5 -18.5v1q-49 -25 -49 -103v-39h-16v185h431l-329 -650h73q65 0 110.5 7t74.5 23
t42.5 41t13.5 60v45h17v-193h-466z" />
    <glyph glyph-name="florin" unicode="&#x192;" horiz-adv-x="535" 
d="M27 667h140v75h20v-75h41q28 0 60 -2v77h20v-78h1q44 -3 82 -18.5t63.5 -48t25.5 -91.5t-30.5 -97.5t-78.5 -51.5v-10q27 -8 51 -21t42 -33t28 -47.5t10 -64.5q0 -60 -21 -96t-54 -55t-74 -24q-23 -4 -45 -5v-75h-20v74h-15h-86v-74h-20v74h-140v17h54v633h-54v17z
M192 363h14q28 0 57 4.5t53 19.5t39 42t15 72q0 35 -12.5 63.5t-32.5 48.5t-45.5 30.5t-52.5 10.5q-8 0 -16.5 -1.5t-18.5 -3.5v-286zM192 17h55q61 0 99 41.5t38 115.5q0 55 -14 89t-39.5 52.5t-60.5 25t-78 6.5v-330z" />
    <glyph glyph-name="endash" unicode="&#x2013;" horiz-adv-x="470" 
d="M45 359h374v-42h-374v42z" />
    <glyph glyph-name="emdash" unicode="&#x2014;" horiz-adv-x="594" 
d="M45 359h499v-42h-499v42z" />
    <glyph glyph-name="quoteleft" unicode="&#x2018;" horiz-adv-x="162" 
d="M96 639q-8 -10 -17.5 -24.5t-17.5 -31t-13 -35t-5 -38.5q0 -17 5 -36t17 -39l7 6q-4 11 -4 19q0 11 8 22t30 11q17 0 28 -13.5t11 -33.5q0 -24 -15.5 -38.5t-34.5 -14.5q-18 0 -31.5 9.5t-23 24.5t-14 34t-4.5 38q0 28 3.5 49t11.5 38.5t20 33.5t29 33z" />
    <glyph glyph-name="quoteright" unicode="&#x2019;" horiz-adv-x="162" 
d="M71 407q8 10 17.5 24.5t17.5 31t13 35t5 38.5q0 17 -5 36t-17 39l-7 -6q4 -11 4 -19q0 -11 -8 -22t-30 -11q-17 0 -28 13.5t-11 33.5q0 24 15.5 38.5t34.5 14.5q18 0 31.5 -9.5t23 -24.5t14 -34t4.5 -38q0 -28 -3.5 -49t-11.5 -38.5t-20 -33.5t-29 -33z" />
    <glyph glyph-name="quotesinglbase" unicode="&#x201a;" horiz-adv-x="209" 
d="M90 -155q8 10 17.5 24.5t17.5 31t13 35t5 38.5q0 17 -5 36t-17 39l-7 -6q4 -11 4 -19q0 -11 -8 -22t-30 -11q-17 0 -28 13.5t-11 33.5q0 24 15.5 38.5t34.5 14.5q18 0 31.5 -9.5t23 -24.5t14 -34t4.5 -38q0 -28 -3.5 -49t-11.5 -38.5t-20 -33.5t-29 -33z" />
    <glyph glyph-name="quotedblleft" unicode="&#x201c;" horiz-adv-x="326" 
d="M232 639q-8 -10 -17.5 -24.5t-17.5 -31t-13 -35t-5 -38.5q0 -17 5 -36t17 -39l7 6q-4 11 -4 19q0 11 8 22t30 11q17 0 28 -13.5t11 -33.5q0 -24 -15.5 -38.5t-34.5 -14.5q-18 0 -31.5 9.5t-23 24.5t-14 34t-4.5 38q0 28 3.5 49t11.5 38.5t20 33.5t29 33zM98 639
q-8 -10 -17.5 -24.5t-17.5 -31t-13 -35t-5 -38.5q0 -17 5 -36t17 -39l7 6q-4 11 -4 19q0 11 8 22t30 11q17 0 28 -13.5t11 -33.5q0 -24 -15.5 -38.5t-34.5 -14.5q-18 0 -31.5 9.5t-23 24.5t-14 34t-4.5 38q0 28 3.5 49t11.5 38.5t20 33.5t29 33z" />
    <glyph glyph-name="quotedblright" unicode="&#x201d;" horiz-adv-x="326" 
d="M73 407q8 10 17.5 24.5t17.5 31t13 35t5 38.5q0 17 -5 36t-17 39l-7 -6q4 -11 4 -19q0 -11 -8 -22t-30 -11q-17 0 -28 13.5t-11 33.5q0 24 15.5 38.5t34.5 14.5q18 0 31.5 -9.5t23 -24.5t14 -34t4.5 -38q0 -28 -3.5 -49t-11.5 -38.5t-20 -33.5t-29 -33zM207 407
q8 10 17.5 24.5t17.5 31t13 35t5 38.5q0 17 -5 36t-17 39l-7 -6q4 -11 4 -19q0 -11 -8 -22t-30 -11q-17 0 -28 13.5t-11 33.5q0 24 15.5 38.5t34.5 14.5q18 0 31.5 -9.5t23 -24.5t14 -34t4.5 -38q0 -28 -3.5 -49t-11.5 -38.5t-20 -33.5t-29 -33z" />
    <glyph glyph-name="quotedblbase" unicode="&#x201e;" horiz-adv-x="343" 
d="M90 -155q8 10 17.5 24.5t17.5 31t13 35t5 38.5q0 17 -5 36t-17 39l-7 -6q4 -11 4 -19q0 -11 -8 -22t-30 -11q-17 0 -28 13.5t-11 33.5q0 24 15.5 38.5t34.5 14.5q18 0 31.5 -9.5t23 -24.5t14 -34t4.5 -38q0 -28 -3.5 -49t-11.5 -38.5t-20 -33.5t-29 -33zM235 -155
q8 10 17.5 24.5t17.5 31t13 35t5 38.5q0 17 -5 36t-17 39l-7 -6q4 -11 4 -19q0 -11 -8 -22t-30 -11q-17 0 -28 13.5t-11 33.5q0 24 15.5 38.5t34.5 14.5q18 0 31.5 -9.5t23 -24.5t14 -34t4.5 -38q0 -28 -3.5 -49t-11.5 -38.5t-20 -33.5t-29 -33z" />
    <glyph glyph-name="bullet" unicode="&#x2022;" horiz-adv-x="287" 
d="M19 339q0 25 9.5 47.5t26 39.5t38.5 26.5t48 9.5q25 0 47.5 -9.5t39.5 -26.5t26.5 -39.5t9.5 -47.5q0 -26 -9.5 -48t-26.5 -38.5t-39.5 -26t-47.5 -9.5q-26 0 -48 9.5t-38.5 26t-26 38.5t-9.5 48z" />
    <glyph glyph-name="ellipsis" unicode="&#x2026;" horiz-adv-x="507" 
d="M107 92q17 0 29.5 -15t12.5 -36q0 -23 -12.5 -37.5t-30.5 -14.5q-17 0 -29.5 15t-12.5 37q0 21 13 36t30 15zM252 92q17 0 29.5 -15t12.5 -36q0 -23 -12.5 -37.5t-30.5 -14.5q-17 0 -29.5 15t-12.5 37q0 21 13 36t30 15zM409 92q17 0 29.5 -15t12.5 -36
q0 -23 -12.5 -37.5t-30.5 -14.5q-17 0 -29.5 15t-12.5 37q0 21 13 36t30 15z" />
    <glyph glyph-name="perthousand" unicode="&#x2030;" horiz-adv-x="1292" 
d="M282 0l268 700h40l-267 -700h-41zM211 680q44 0 81 -17.5t63.5 -45.5t41.5 -63.5t15 -71.5t-15 -70.5t-41.5 -62.5t-63.5 -45t-81 -17q-45 0 -82 17.5t-64 46t-41.5 64t-14.5 72.5q0 35 16 69.5t43.5 62t64.5 44.5t78 17zM213 665q-36 0 -57 -19.5t-32 -47.5t-14.5 -59
t-3.5 -55t2.5 -55t13 -59.5t31.5 -48t57 -19.5q37 0 57.5 20t30 48.5t11 60t1.5 54.5q0 20 -3 51t-13 59.5t-29 49t-52 20.5zM641 381q44 0 81 -17.5t63.5 -45.5t41.5 -63.5t15 -71.5t-15 -70.5t-41.5 -62.5t-63.5 -45t-81 -17q-45 0 -82 17.5t-64 46t-41.5 64t-14.5 72.5
q0 35 16 69.5t43.5 62t64.5 44.5t78 17zM1079 381q44 0 81 -17.5t63.5 -45.5t41.5 -63.5t15 -71.5t-15 -70.5t-41.5 -62.5t-63.5 -45t-81 -17q-45 0 -82 17.5t-64 46t-41.5 64t-14.5 72.5q0 35 16 69.5t43.5 62t64.5 44.5t78 17zM643 366q-36 0 -57 -19.5t-32 -47.5
t-14.5 -59t-3.5 -55t2.5 -55t13 -59.5t31.5 -48t57 -19.5q37 0 57.5 20t30 48.5t11 60t1.5 54.5q0 20 -3 51t-13 59.5t-29 49t-52 20.5zM1081 366q-36 0 -57 -19.5t-32 -47.5t-14.5 -59t-3.5 -55t2.5 -55t13 -59.5t31.5 -48t57 -19.5q37 0 57.5 20t30 48.5t11 60t1.5 54.5
q0 20 -3 51t-13 59.5t-29 49t-52 20.5z" />
    <glyph glyph-name="guilsinglleft" unicode="&#x2039;" horiz-adv-x="212" 
d="M189 494l9 -6q-21 -37 -39 -70q-16 -28 -32 -56.5t-24 -43.5q8 -16 24 -44q3 -5 5 -9l1 -2l6 -10l1 -1q6 -11 12 -21l1 -2q2 -5 5 -9l1 -2q18 -33 39 -70l-9 -6l-162 132q-11 22 -11 45t11 43z" />
    <glyph glyph-name="guilsinglright" unicode="&#x203a;" horiz-adv-x="212" 
d="M187 362q11 -20 11 -43t-11 -45l-162 -132l-9 6q21 37 39 70l32 56t24 44q-8 15 -24 43.5t-32 56.5q-18 33 -39 70l9 6z" />
    <glyph glyph-name="Euro" unicode="&#x20ac;" horiz-adv-x="519" 
d="M20 406h86q9 50 28 98.5t50 87t74.5 62t99.5 23.5q25 0 51 -6.5t47 -21.5t34.5 -38t14.5 -56q0 -13 -4 -26.5t-11.5 -24t-19 -17t-25.5 -6.5q-18 0 -32.5 12.5t-14.5 30.5q0 17 12 30.5t29 13.5q12 0 25 -6.5t21 -14.5q-1 46 -30.5 76t-77.5 30q-38 0 -63.5 -23.5
t-41.5 -60t-24 -80t-11 -83.5h132l-1 -26h-133q-1 -17 -1 -32v-1v-1v-1v-1v-2v-3v-1v-1v-2v-1v-9v-1v-1v-1v-1v-35h135l-1 -25h-133q3 -41 11 -83t27 -76.5t50 -56.5t79 -22q18 0 33 9t26 22.5t16 27.5t5 24v4q-8 -8 -19.5 -13t-22.5 -5q-16 0 -29 11.5t-13 27.5
q0 18 15.5 28t31.5 10q26 0 42 -17.5t16 -38.5v-7q-4 -32 -18.5 -54t-35 -36t-45.5 -20.5t-49 -6.5q-58 0 -102 23.5t-75 61.5t-49.5 87t-25.5 100h-84l1 25h80q-1 8 -1 17v1v2v1v0v2v1v1v1v9q0 29 3 59h-83z" />
    <glyph glyph-name="trademark" unicode="&#x2122;" horiz-adv-x="593" 
d="M109 652h-6q-22 0 -36.5 -3.5t-23 -13t-12 -26t-3.5 -43.5h-9q1 24 1.5 47t1.5 46h229q1 -23 1 -46t1 -47h-8q0 28 -3.5 45t-12.5 26t-24.5 12t-40.5 3v-294h32v-8h-120v8h33v294zM265 358l2 3v-3h6q11 0 20 2t11 14q0 4 0.5 17.5t1 32t0.5 41.5v10v1v2v1v2v1v2v1v25v2
q0 25 -0.5 50t-0.5 44.5t-1 32t-2 13.5h-33v7h89l73 -209l72 209h76v-7h-25v-294h25v-8h-107v8h26l1 248l-4 1q-21 -63 -43 -126q-8 -23 -16 -47l-2 -3l-26 -76l-91 258l-3 -1v-214v0v-3v0v-1v-1v-2v0v-1v-1v-9v0v-1v0v-1v-1v0v-1v-4q1 -5 4.5 -8t9 -4.5t11.5 -1.5h1h1h1v0
h1h6v0h4v-8h-86v8h-2z" />
  </font>
</defs>
</svg>
