<?xml version="1.0" standalone="no"?>
<!DOCTYPE svg PUBLIC "-//W3C//DTD SVG 1.1//EN" "http://www.w3.org/Graphics/SVG/1.1/DTD/svg11.dtd" >
<svg xmlns="http://www.w3.org/2000/svg" xmlns:xlink="http://www.w3.org/1999/xlink" version="1.1">
<metadata></metadata>
<defs>
<font id="pixel_pirateregular" horiz-adv-x="1536" >
<font-face units-per-em="2048" ascent="1638" descent="-410" />
<missing-glyph horiz-adv-x="512" />
<glyph horiz-adv-x="0" />
<glyph horiz-adv-x="682" />
<glyph unicode=" "  horiz-adv-x="512" />
<glyph unicode="&#x09;" horiz-adv-x="512" />
<glyph unicode="&#xa0;" horiz-adv-x="512" />
<glyph unicode="!" horiz-adv-x="512" d="M0 0v256h256v-256h-256zM0 512v1536h256v-1536h-256z" />
<glyph unicode="&#x22;" horiz-adv-x="1024" d="M0 1536v512h256v-512h-256zM512 1536v512h256v-512h-256z" />
<glyph unicode="#" d="M0 256v256h256v256h-256v256h256v256h256v-256h256v256h256v-256h256v-256h-256v-256h256v-256h-256v-256h-256v256h-256v-256h-256v256h-256zM512 512h256v256h-256v-256z" />
<glyph unicode="$" d="M0 512v256h256v-256h-256zM0 1280v256h256v-256h-256zM256 256v256h256v512h-256v256h256v256h-256v256h256v256h256v-256h256v-256h-256v-512h256v-256h-256v-256h256v-256h-256v-256h-256v256h-256zM1024 512v256h256v-256h-256zM1024 1280v256h256v-256h-256z" />
<glyph unicode="%" horiz-adv-x="1792" d="M0 0v256h256v-256h-256zM0 1024v512h512v-512h-512zM256 256v256h256v-256h-256zM512 512v256h256v-256h-256zM768 768v256h256v-256h-256zM1024 0v512h512v-512h-512zM1024 1024v256h256v-256h-256zM1280 1280v256h256v-256h-256z" />
<glyph unicode="&#x26;" horiz-adv-x="1792" d="M0 256v512h256v256h-256v256h256v256h512v-256h-256v-256h256v-256h-256v-512h512v-256h-768v256h-256zM768 512v256h256v-256h-256zM768 1024v256h256v-256h-256zM1024 256v256h256v-256h-256zM1280 0v256h256v-256h-256zM1280 512v256h256v-256h-256z" />
<glyph unicode="'" horiz-adv-x="512" d="M0 1536v512h256v-512h-256z" />
<glyph unicode="(" horiz-adv-x="1024" d="M0 512v1024h256v256h256v-1536h-256v256h-256zM512 0v256h256v-256h-256zM512 1792v256h256v-256h-256z" />
<glyph unicode=")" horiz-adv-x="1024" d="M0 0v256h256v-256h-256zM0 1792v256h256v-256h-256zM256 256v1536h256v-256h256v-1024h-256v-256h-256z" />
<glyph unicode="*" horiz-adv-x="1024" d="M0 1536v256h256v-256h-256zM256 1280v256h256v-256h-256zM256 1792v256h256v-256h-256zM512 1536v256h256v-256h-256z" />
<glyph unicode="+" horiz-adv-x="1792" d="M0 512v256h512v512h512v-512h512v-256h-512v-512h-512v512h-512z" />
<glyph unicode="," horiz-adv-x="768" d="M0 0v256h256v-256h-256zM256 0h256v-512h-256v512z" />
<glyph unicode="-" horiz-adv-x="1024" d="M0 512v256h768v-256h-768z" />
<glyph unicode="." horiz-adv-x="512" d="M0 0v256h256v-256h-256z" />
<glyph unicode="/" d="M0 0v512h256v512h256v512h256v512h512v-512h-256v-512h-256v-512h-256v-512h-512z" />
<glyph unicode="0" horiz-adv-x="2048" d="M0 512v1024h256v256h256v-1536h-256v256h-256zM512 0v256h768v-256h-768zM512 1792v256h768v-256h-768zM1280 256v256h256v-256h-256zM1280 1536v256h256v-256h-256zM1536 512v1024h256v-1024h-256z" />
<glyph unicode="1" horiz-adv-x="1280" d="M0 0v256h256v1280h-256v256h256v256h512v-1792h256v-256h-1024z" />
<glyph unicode="2" d="M0 0v768h256v256h256v256h256v256h256v256h256v-512h-256v-256h-256v-256h-256v-256h-256v-256h768v256h256v-512h-1280zM0 1536v256h256v-256h-256zM256 1792v256h768v-256h-768z" />
<glyph unicode="3" d="M0 256v256h256v-256h-256zM0 1536v256h256v-256h-256zM256 0v256h512v512h-256v256h256v768h-512v256h768v-256h256v-512h-256v-256h256v-768h-256v-256h-768z" />
<glyph unicode="4" horiz-adv-x="1792" d="M0 512v512h256v-256h512v768h-256v256h256v256h512v-1792h256v-256h-1024v256h256v256h-768zM256 1024v512h256v-512h-256z" />
<glyph unicode="5" d="M0 256v256h256v-256h-256zM0 1024v512h256v512h1024v-512h-256v256h-512v-512h512v-256h256v-768h-256v512h-512v256h-512zM256 0v256h768v-256h-768z" />
<glyph unicode="6" d="M0 256v1024h256v256h256v-512h256v-256h-256v-512h512v-256h-768v256h-256zM512 1536v256h256v-256h-256zM768 1024v256h256v-256h-256zM768 1792v256h512v-256h-512zM1024 256v768h256v-768h-256z" />
<glyph unicode="7" horiz-adv-x="1792" d="M0 1536v512h1536v-1024h-256v-512h-256v-256h-256v-256h-512v256h256v256h256v512h256v768h-768v-256h-256z" />
<glyph unicode="8" d="M0 256v512h256v-256h256v-256h512v-256h-768v256h-256zM0 1024v768h256v-512h256v-256h512v-256h256v-512h-256v256h-256v256h-512v256h-256zM256 1792v256h768v-256h256v-768h-256v256h-256v256h-256v256h-256z" />
<glyph unicode="9" d="M0 0v256h512v-256h-512zM0 1024v768h256v-768h-256zM256 768v256h256v-256h-256zM256 1792v256h768v-256h256v-1024h-256v-256h-256v512h-256v256h256v512h-512zM512 256v256h256v-256h-256z" />
<glyph unicode=":" horiz-adv-x="512" d="M0 0v256h256v-256h-256zM0 768v256h256v-256h-256z" />
<glyph unicode=";" horiz-adv-x="768" d="M0 0v256h256v-256h-256zM0 768v256h256v-256h-256zM256 0h256v-512h-256v512z" />
<glyph unicode="&#x3c;" horiz-adv-x="1280" d="M0 512v256h256v-256h-256zM256 256v256h512v-256h-512zM256 768v256h512v-256h-512zM768 0v256h256v-256h-256zM768 1024v256h256v-256h-256z" />
<glyph unicode="=" horiz-adv-x="1024" d="M0 256v256h768v-256h-768zM0 768v256h768v-256h-768z" />
<glyph unicode="&#x3e;" horiz-adv-x="1280" d="M0 0v256h256v-256h-256zM0 1024v256h256v-256h-256zM256 256v256h512v-256h-512zM256 768v256h512v-256h-512zM768 512v256h256v-256h-256z" />
<glyph unicode="?" d="M0 1536v256h256v-256h-256zM256 256v256h256v512h256v-512h256v-256h-256v-256h-256v256h-256zM256 1792v256h768v-256h-768zM768 1024v256h256v-256h-256zM1024 1280v512h256v-512h-256z" />
<glyph unicode="@" d="M0 256v768h256v-768h-256zM256 0v256h256v512h256v-256h256v256h-256v256h-512v256h1024v-1024h-256v-256h-768z" />
<glyph unicode="A" horiz-adv-x="2560" d="M0 0v256h256v512h256v-512h256v-256h-768zM512 768v768h256v-256h256v256h-256v512h512v-256h256v-512h256v-512h256v-512h256v-256h-1024v256h256v512h-256v256h-512v-256h-256zM1792 1280v256h512v-256h-512z" />
<glyph unicode="B" horiz-adv-x="2048" d="M-512 1536v256h512v-256h-512zM0 0v256h256v1280h512v-256h256v512h-1024v256h1280v-256h256v-512h-256v-256h256v-256h256v-256h-256v-256h-256v-256h-1280zM768 256h256v256h256v256h-256v256h-256v-768z" />
<glyph unicode="C" horiz-adv-x="2304" d="M0 1024v256h256v256h256v256h256v-1536h-256v256h-256v512h-256zM768 0v256h1024v-256h-1024zM768 1792v256h1024v-512h-256v256h-768zM1792 256v256h256v-256h-256z" />
<glyph unicode="D" horiz-adv-x="2048" d="M-512 1536v256h512v-256h-512zM0 0v256h256v1280h512v-1280h256v512h256v768h-256v256h-1024v256h1280v-256h256v-256h256v-768h-256v-512h-256v-256h-1280z" />
<glyph unicode="E" horiz-adv-x="2560" d="M0 0v256h256v1536h-256v256h2048v-768h-256v256h-256v256h-768v-768h512v256h256v-768h-256v256h-512v-512h1536v-256h-2304z" />
<glyph unicode="F" horiz-adv-x="2048" d="M0 0h256v-256h-256v256zM0 1792v256h1792v-768h-256v256h-256v256h-512v-768h256v256h256v-768h-256v256h-256v-512h256v-256h-768v1792h-256z" />
<glyph unicode="G" horiz-adv-x="2048" d="M0 1024v256h256v256h256v256h256v-1536h-256v256h-256v512h-256zM768 0v256h768v-256h-768zM768 1792v256h1024v-512h-256v256h-768zM1280 768v256h512v-768h-256v512h-256z" />
<glyph unicode="H" horiz-adv-x="2560" d="M0 0h256v-256h-256v256zM0 1792v256h1024v-256h-256v-768h512v-256h-512v-512h256v-256h-768v1792h-256zM1280 1024v256h512v512h-256v256h768v-256h-256v-1536h256v-256h-768v256h256v768h-512z" />
<glyph unicode="I" horiz-adv-x="1280" d="M0 0v256h256v1536h-256v256h1024v-256h-256v-1536h256v-256h-1024z" />
<glyph unicode="J" horiz-adv-x="1792" d="M0 -256h768v-256h-768v256zM512 1792v256h1024v-256h-256v-1792h-256v-256h-256v2048h-256z" />
<glyph unicode="K" horiz-adv-x="2816" d="M0 0h256v-256h-256v256zM0 1792v256h1024v-256h-256v-768h256v256h256v-512h-512v-512h256v-256h-768v1792h-256zM1280 256v512h256v-512h-256zM1280 1280v256h256v-256h-256zM1280 1792v256h768v-256h-256v-256h-256v256h-256zM1536 0v256h256v-256h-256zM1792 0h256 v-256h-256v256zM2048 -256h512v-256h-512v256z" />
<glyph unicode="L" horiz-adv-x="2048" d="M0 0h256v-256h-256v256zM0 1792v256h1024v-256h-256v-1536h768v512h256v-768h-1536v1792h-256z" />
<glyph unicode="M" horiz-adv-x="2816" d="M-256 2048v256h768v-256h256v-256h256v-512h256v-512h256v-512h-512v512h-256v512h-256v-1024h256v-256h-768v256h256v1792h-512zM1536 768v512h256v-512h-256zM1792 0v256h256v1024h-256v512h256v256h512v-256h-256v-1536h256v-256h-768z" />
<glyph unicode="N" horiz-adv-x="2560" d="M-256 2048v256h768v-256h256v-256h256v-512h256v-512h256v1280h-256v256h768v-256h-256v-2304h-256v256h-256v256h-256v512h-256v512h-256v-1024h256v-256h-768v256h256v1792h-512zM1792 -256h512v-256h-512v256z" />
<glyph unicode="O" horiz-adv-x="2560" d="M0 1024v256h256v256h256v256h256v-1536h-256v256h-256v512h-256zM768 0v256h768v-256h-768zM768 1792v256h512v-256h256v-256h-512v256h-256zM1536 256v256h256v-256h-256zM1536 1280v256h256v-256h-256zM1792 512v768h256v-256h256v-256h-256v-256h-256z" />
<glyph unicode="P" horiz-adv-x="1792" d="M-512 1536v256h512v-256h-512zM0 0v256h256v1280h512v-256h512v-256h-512v-768h256v-256h-1024zM0 1792v256h1280v-256h256v-512h-256v256h-256v256h-1024z" />
<glyph unicode="Q" horiz-adv-x="2560" d="M0 1024v256h256v256h256v256h256v-1536h-256v256h-256v512h-256zM768 0v256h768v256h256v-512h-1024zM768 1792v256h512v-256h256v-256h-512v256h-256zM1536 1280v256h256v-256h-256zM1792 0h512v-256h-512v256zM1792 512v768h256v-256h256v-256h-256v-256h-256z" />
<glyph unicode="R" horiz-adv-x="2816" d="M-512 1536v256h512v-256h-512zM0 0v256h256v1280h512v-256h512v-512h-256v256h-256v-768h256v-256h-1024zM0 1792v256h1280v-256h256v-512h-256v256h-256v256h-1024zM1280 256v512h256v-512h-256zM1536 0v256h256v-256h-256zM1792 0h256v-256h-256v256zM2048 -256h512 v-256h-512v256z" />
<glyph unicode="S" horiz-adv-x="2048" d="M0 256v256h256v-256h-256zM256 0v256h1024v-256h-1024zM256 512v256h256v-256h-256zM256 1280v512h256v-256h256v-256h512v-256h256v-256h-512v256h-512v256h-256zM512 1792v256h1024v-512h-256v256h-768zM1280 256v256h256v-256h-256zM1536 512v256h256v-256h-256z" />
<glyph unicode="T" horiz-adv-x="2304" d="M0 1536v512h2048v-512h-256v256h-512v-1536h256v-256h-1024v256h256v1536h-512v-256h-256z" />
<glyph unicode="U" horiz-adv-x="2304" d="M0 1792v256h1024v-256h-256v-1536h768v-256h-1024v256h-256v1536h-256zM1280 1792v256h768v-256h-256v-1536h-256v1536h-256z" />
<glyph unicode="V" horiz-adv-x="2304" d="M-512 2048v256h768v-256h256v-256h256v-512h256v-512h256v-512h256v-256h-1024v256h256v512h-256v512h-256v512h-256v256h-512zM1280 768v512h256v-512h-256zM1280 1792v256h768v-256h-256v-512h-256v512h-256z" />
<glyph unicode="W" horiz-adv-x="3584" d="M-512 2048v256h768v-256h256v-256h256v-512h256v-512h256v-512h256v-256h-1024v256h256v512h-256v512h-256v512h-256v256h-512zM1280 768v512h256v-512h-256zM1280 1792v256h1024v-256h-256v-512h256v-512h256v-512h256v-256h-1024v256h256v512h-256v512h-256v512h-256z M2560 768v512h256v-512h-256zM2560 1792v256h768v-256h-256v-512h-256v512h-256z" />
<glyph unicode="X" horiz-adv-x="2560" d="M-256 2048v256h768v-256h256v-256h256v-512h256v-512h256v-512h256v-512h-256v256h-256v256h-256v512h-256v512h-256v512h-256v256h-512zM0 0v256h256v256h256v-256h256v-256h-768zM512 512v256h256v-256h-256zM1280 1280v256h256v-256h-256zM1280 1792v256h768v-256 h-256v-256h-256v256h-256zM1792 -256h512v-256h-512v256z" />
<glyph unicode="Y" horiz-adv-x="2304" d="M-512 2048v256h768v-256h256v-256h256v-768h256v-768h256v-256h-1024v256h256v768h-256v768h-256v256h-512zM1024 1024v256h256v-256h-256zM1280 1280v256h256v-256h-256zM1280 1792v256h768v-256h-256v-256h-256v256h-256z" />
<glyph unicode="Z" horiz-adv-x="1792" d="M0 0v512h256v512h256v256h256v256h256v256h-768v-256h-256v512h1536v-512h-256v-256h-256v-256h-256v-512h-256v-256h768v256h256v-512h-1536z" />
<glyph unicode="[" horiz-adv-x="1024" d="M0 0v2048h768v-256h-256v-1536h256v-256h-768z" />
<glyph unicode="\" horiz-adv-x="1280" d="M0 1536v512h256v-512h-256zM256 1024v512h256v-512h-256zM512 512v512h256v-512h-256zM768 0v512h256v-512h-256z" />
<glyph unicode="]" horiz-adv-x="1024" d="M0 0v256h256v1536h-256v256h768v-2048h-768z" />
<glyph unicode="^" d="M0 1024v256h256v-256h-256zM256 1280v512h256v-512h-256zM512 1792v256h256v-256h-256zM768 1280v512h256v-512h-256zM1024 1024v256h256v-256h-256z" />
<glyph unicode="_" d="M0 0v256h1280v-256h-1280z" />
<glyph unicode="`" horiz-adv-x="768" d="M0 1792v256h256v-256h-256zM256 1536v256h256v-256h-256z" />
<glyph unicode="a" horiz-adv-x="1792" d="M0 0h256v-256h-256v256zM256 0v512h256v-512h-256zM512 512v512h256v-256h256v256h-256v256h768v-256h-256v-768h256v-256h-768v256h256v256h-512z" />
<glyph unicode="b" d="M0 0v256h256v768h-256v256h1024v-256h-512v-256h512v-256h-512v-256h512v-256h-1024zM1024 256v256h256v-256h-256zM1024 768v256h256v-256h-256z" />
<glyph unicode="c" d="M0 256v512h256v-512h-256zM256 0v256h768v-256h-768zM256 768v256h256v-256h-256zM512 1024v256h768v-256h-768zM1024 256v256h256v-256h-256z" />
<glyph unicode="d" d="M0 0v256h256v768h-256v256h1024v-256h-512v-768h512v-256h-1024zM1024 256v768h256v-768h-256z" />
<glyph unicode="e" horiz-adv-x="1792" d="M0 0v256h256v768h-256v256h1280v-512h-256v256h-512v-256h256v-256h-256v-256h768v-256h-1280zM1280 0h256v-256h-256v256z" />
<glyph unicode="f" d="M0 0v256h256v768h-256v256h1280v-512h-256v256h-512v-256h256v-256h-256v-256h256v-256h-768z" />
<glyph unicode="g" d="M0 256v512h256v-512h-256zM256 0v256h768v-256h-768zM256 768v256h256v-256h-256zM512 1024v256h768v-256h-768zM768 512v256h512v-512h-256v256h-256z" />
<glyph unicode="h" horiz-adv-x="2048" d="M0 0v256h256v768h-256v256h768v-256h-256v-256h768v256h-256v256h768v-256h-256v-768h256v-256h-768v256h256v256h-768v-256h256v-256h-768z" />
<glyph unicode="i" horiz-adv-x="1024" d="M0 0v256h256v768h-256v256h768v-256h-256v-768h256v-256h-768z" />
<glyph unicode="j" horiz-adv-x="1280" d="M0 -256h512v-256h-512v256zM256 1024v256h768v-256h-256v-1280h-256v1280h-256z" />
<glyph unicode="k" horiz-adv-x="2048" d="M0 0v256h256v768h-256v256h768v-256h-256v-256h512v-256h-512v-256h256v-256h-768zM1024 0v512h256v-512h-256zM1024 768v512h512v-256h-256v-256h-256zM1280 0h256v-256h-256v256zM1536 -256h256v-256h-256v256z" />
<glyph unicode="l" d="M0 0v256h256v768h-256v256h768v-256h-256v-768h512v256h256v-512h-1280z" />
<glyph unicode="m" horiz-adv-x="2560" d="M0 0v256h256v768h256v-768h256v-256h-768zM512 1024v256h256v-256h-256zM768 768v256h256v-256h-256zM1024 512v256h256v-256h-256zM1280 768v256h256v-256h-256zM1536 0v256h256v768h256v-768h256v-256h-768zM1536 1024v256h256v-256h-256z" />
<glyph unicode="n" horiz-adv-x="2304" d="M0 0v256h256v1024h-256v256h512v-256h256v-256h256v-256h256v256h-256v256h768v-256h-256v-1024h-256v256h-256v256h-256v256h-256v-512h256v-256h-768zM1536 0h512v-256h-512v256z" />
<glyph unicode="o" d="M0 256v768h256v256h768v-256h-512v-256h-256v-512h-256zM256 0v256h768v-256h-768zM1024 256v768h256v-768h-256z" />
<glyph unicode="p" d="M0 0v256h256v768h-256v256h1024v-256h-512v-256h512v-256h-512v-256h256v-256h-768zM1024 768v256h256v-256h-256z" />
<glyph unicode="q" horiz-adv-x="1792" d="M0 256v768h256v256h768v-256h-512v-256h-256v-512h-256zM256 0v256h768v-256h-768zM1024 0h512v-256h-512v256zM1024 256v768h256v-768h-256z" />
<glyph unicode="r" horiz-adv-x="2048" d="M0 0v256h256v768h-256v256h1024v-256h-512v-256h512v-256h-512v-256h256v-256h-768zM1024 0v512h256v-512h-256zM1024 768v256h256v-256h-256zM1280 0h512v-256h-512v256z" />
<glyph unicode="s" horiz-adv-x="1792" d="M0 256v256h256v-256h-256zM256 0v256h768v256h-512v256h-256v256h256v256h768v-256h-512v-256h512v-256h256v-256h-256v-256h-1024zM1280 768v256h256v-256h-256z" />
<glyph unicode="t" d="M0 768v512h1280v-512h-256v256h-256v-768h256v-256h-768v256h256v768h-256v-256h-256z" />
<glyph unicode="u" horiz-adv-x="2048" d="M0 1024v256h768v-256h-256v-768h-256v768h-256zM512 0v256h768v-256h-768zM1024 1024v256h768v-256h-256v-768h-256v768h-256z" />
<glyph unicode="v" horiz-adv-x="2048" d="M0 1024v256h768v-256h-256v-256h-256v256h-256zM512 0v256h256v256h256v-256h256v-256h-768zM512 512v256h256v-256h-256zM1024 512v256h256v-256h-256zM1024 1024v256h768v-256h-256v-256h-256v256h-256z" />
<glyph unicode="w" horiz-adv-x="2560" d="M0 1024v256h768v-256h-256v-512h-256v512h-256zM256 0v256h256v256h256v-256h256v-256h-768zM768 512v256h256v-256h-256zM1024 768v256h256v-256h-256zM1280 0v256h256v256h256v-256h256v-256h-768zM1280 512v256h256v-256h-256zM1536 1024v256h768v-256h-256v-512h-256 v512h-256z" />
<glyph unicode="x" d="M0 0v256h256v256h256v-256h256v256h256v-256h256v-256h-1280zM0 1024v256h1280v-256h-256v-256h-256v256h-256v-256h-256v256h-256zM512 512v256h256v-256h-256z" />
<glyph unicode="y" horiz-adv-x="2048" d="M0 1024v256h768v-256h-256v-256h-256v256h-256zM512 0v256h256v256h256v-256h256v-256h-768zM512 512v256h256v-256h-256zM1024 512v256h256v-256h-256zM1024 1024v256h768v-256h-256v-256h-256v256h-256z" />
<glyph unicode="z" d="M0 0v256h256v256h256v-256h512v256h256v-512h-1280zM0 768v512h1280v-256h-256v-256h-256v256h-512v-256h-256zM512 512v256h256v-256h-256z" />
<glyph unicode="|" horiz-adv-x="768" d="M0 0v2048h512v-2048h-512z" />
<glyph unicode="~" horiz-adv-x="1792" d="M0 768v256h256v-256h-256zM256 1024v256h512v-256h-512zM768 768v256h512v-256h-512zM1280 1024v256h256v-256h-256z" />
<glyph unicode="&#xad;" horiz-adv-x="1024" d="M0 512v256h768v-256h-768z" />
<glyph unicode="&#x2000;" horiz-adv-x="1152" />
<glyph unicode="&#x2001;" horiz-adv-x="2304" />
<glyph unicode="&#x2002;" horiz-adv-x="1152" />
<glyph unicode="&#x2003;" horiz-adv-x="2304" />
<glyph unicode="&#x2004;" horiz-adv-x="768" />
<glyph unicode="&#x2005;" horiz-adv-x="576" />
<glyph unicode="&#x2006;" horiz-adv-x="384" />
<glyph unicode="&#x2007;" horiz-adv-x="384" />
<glyph unicode="&#x2008;" horiz-adv-x="288" />
<glyph unicode="&#x2009;" horiz-adv-x="460" />
<glyph unicode="&#x200a;" horiz-adv-x="128" />
<glyph unicode="&#x2010;" horiz-adv-x="1024" d="M0 512v256h768v-256h-768z" />
<glyph unicode="&#x2011;" horiz-adv-x="1024" d="M0 512v256h768v-256h-768z" />
<glyph unicode="&#x2012;" horiz-adv-x="1024" d="M0 512v256h768v-256h-768z" />
<glyph unicode="&#x2013;" horiz-adv-x="1280" d="M0 512v256h1024v-256h-1024z" />
<glyph unicode="&#x2014;" horiz-adv-x="2304" d="M0 512v256h2048v-256h-2048z" />
<glyph unicode="&#x2018;" horiz-adv-x="512" d="M0 1536v512h256v-512h-256z" />
<glyph unicode="&#x2019;" horiz-adv-x="512" d="M0 1536v512h256v-512h-256z" />
<glyph unicode="&#x201c;" horiz-adv-x="1024" d="M0 1536v512h256v-512h-256zM512 1536v512h256v-512h-256z" />
<glyph unicode="&#x201d;" horiz-adv-x="1024" d="M0 1536v512h256v-512h-256zM512 1536v512h256v-512h-256z" />
<glyph unicode="&#x202f;" horiz-adv-x="460" />
<glyph unicode="&#x205f;" horiz-adv-x="576" />
<glyph unicode="&#x25fc;" horiz-adv-x="1280" d="M0 0v1280h1280v-1280h-1280z" />
</font>
</defs>
</svg>
