<?xml version="1.0" standalone="no"?>
<!DOCTYPE svg PUBLIC "-//W3C//DTD SVG 1.1//EN" "http://www.w3.org/Graphics/SVG/1.1/DTD/svg11.dtd" >
<svg xmlns="http://www.w3.org/2000/svg" xmlns:xlink="http://www.w3.org/1999/xlink" version="1.1">
<metadata>
Created by FontForge 20201107 at Mon Jan 20 08:55:51 2025
 By 
Pavel Larin
</metadata>
<defs>
<font id="Paseo-MediumItalic" horiz-adv-x="0" >
  <font-face 
    font-family="Paseo Medium"
    font-weight="500"
    font-style="italic"
    font-stretch="normal"
    units-per-em="2048"
    panose-1="0 0 0 0 0 0 0 0 0 0"
    ascent="1638"
    descent="-410"
    x-height="1024"
    cap-height="1434"
    bbox="-397 -1638 2462 2458"
    underline-thickness="102"
    underline-position="-255"
    unicode-range="U+000D-E022"
  />
<missing-glyph horiz-adv-x="2048" 
d="M2068 2458l-649 -4096h-1298l649 4096h1298zM1311 -336h-680l-74 -463h680zM1155 -471l-31 -193h-409l30 193h410zM1423 373h-409l-37 -230h139l14 95h136l-31 -193h-410l54 328h-136l-73 -463h680zM1501 872h-135l-41 -270h-545l-22 -139h680zM1540 1118h-680l-20 -135
h270l-25 -152h-270l-20 -135h409l45 287h271zM1194 1516l-23 -148h-135l23 148h135zM1356 1655h-410l-67 -426h680l22 139h-270zM1710 2183h-676l-22 -135h266l-23 -152h-270l-22 -135h679l23 135h-270l22 152h271zM1223 -893h-680l-23 -135h287l-315 -193l-23 -135h680
l22 135h-417l315 193h131z" />
    <glyph glyph-name=".notdef" horiz-adv-x="2048" 
d="M2068 2458l-649 -4096h-1298l649 4096h1298zM1311 -336h-680l-74 -463h680zM1155 -471l-31 -193h-409l30 193h410zM1423 373h-409l-37 -230h139l14 95h136l-31 -193h-410l54 328h-136l-73 -463h680zM1501 872h-135l-41 -270h-545l-22 -139h680zM1540 1118h-680l-20 -135
h270l-25 -152h-270l-20 -135h409l45 287h271zM1194 1516l-23 -148h-135l23 148h135zM1356 1655h-410l-67 -426h680l22 139h-270zM1710 2183h-676l-22 -135h266l-23 -152h-270l-22 -135h679l23 135h-270l22 152h271zM1223 -893h-680l-23 -135h287l-315 -193l-23 -135h680
l22 135h-417l315 193h131z" />
    <glyph glyph-name=".null" 
 />
    <glyph glyph-name="nonmarkingreturn" horiz-adv-x="682" 
 />
    <glyph glyph-name="NULL" 
 />
    <glyph glyph-name="NULL" 
 />
    <glyph glyph-name="CR" unicode="&#xd;" horiz-adv-x="512" 
 />
    <glyph glyph-name="space" unicode=" " horiz-adv-x="618" 
 />
    <glyph glyph-name="exclam" unicode="!" horiz-adv-x="446" 
d="M260 305l78 1149h268l-280 -1149h-66zM242 -20q-48 0 -75 31.5t-20 80.5q8 45 46.5 78t85.5 33q45 0 72.5 -33t19.5 -78q-7 -49 -44.5 -80.5t-84.5 -31.5z" />
    <glyph glyph-name="quotedbl" unicode="&#x22;" horiz-adv-x="636" 
d="M532 1036l86 400h185l-221 -400h-50zM266 1036l84 400h187l-222 -400h-49z" />
    <glyph glyph-name="numbersign" unicode="#" horiz-adv-x="1429" 
d="M295 0l190 385h-321l31 66h321l160 327h-340l35 64h338l190 387h66l-191 -387l344 -2l191 389h67l-190 -389h315l-33 -62h-315l-162 -329h336l-31 -64h-333l-191 -385h-67l190 385h-344l-191 -385h-65zM926 449l159 329h-342l-159 -327z" />
    <glyph glyph-name="dollar" unicode="$" horiz-adv-x="1269" 
d="M512 -10q-104 15 -182.5 53.5t-127.5 106.5t-50 157h49q3 -104 94 -172t227 -88l94 600q-62 30 -107 56.5t-92.5 65.5t-74.5 80t-40 97t-3 119q24 146 148 244t294 131l31 184h57l-28 -174q58 4 84 4q43 0 84 -6l28 176h56l-31 -184q133 -28 215.5 -108t83.5 -206h-47
q-4 102 -77 168.5t-183 91.5l-92 -581q69 -32 115.5 -57t100 -65t82.5 -80.5t44 -98.5t4 -125q-16 -101 -86.5 -182.5t-169 -130t-217.5 -70.5l-33 -205h-55l30 197q-47 -8 -98 -8q-30 0 -70 4l-30 -193h-58zM647 39q51 0 101 12l77 498q-26 14 -78.5 37.5t-76.5 36.5
l-92 -580q40 -4 69 -4zM805 66q204 60 229 221q11 74 -30 129t-127 106zM731 1368q-79 -26 -131.5 -79.5t-64.5 -129.5q-21 -134 127 -223zM961 1395q-47 4 -78 2q-58 -4 -92 -11l-76 -485l155 -72z" />
    <glyph glyph-name="percent" unicode="%" horiz-adv-x="1460" 
d="M209 0l1241 1434h66l-1242 -1434h-65zM1083 -18q-134 0 -209 89.5t-55 219.5q22 129 125 218t236 89t209.5 -89.5t54.5 -217.5q-20 -130 -124 -219.5t-237 -89.5zM1090 18q59 0 113 78.5t73 194.5q20 117 -9 194.5t-89 77.5q-58 0 -111.5 -77.5t-73.5 -194.5
q-19 -116 10 -194.5t87 -78.5zM549 838q-134 0 -210 89.5t-54 219.5q20 129 123 218t237 89q133 0 208.5 -89.5t55.5 -217.5q-22 -130 -125 -219.5t-235 -89.5zM557 874q59 0 112 78.5t72 194.5q19 117 -10 194.5t-88 77.5t-112 -77.5t-72 -194.5q-19 -116 10 -194.5
t88 -78.5z" />
    <glyph glyph-name="ampersand" unicode="&#x26;" horiz-adv-x="1427" 
d="M561 -20q-95 2 -173.5 23.5t-136 62.5t-84 106t-13.5 147q8 55 29.5 103t57.5 89.5t72.5 74t92 66.5t96 56t104.5 54q-90 112 -127 209.5t-22 193.5q14 87 59.5 156.5t110 112.5t139 65.5t152.5 22.5q70 0 130 -19t104.5 -55t65 -94t9.5 -131q-11 -65 -45.5 -122.5
t-91.5 -106.5t-113.5 -85.5t-136.5 -79.5q2 -2 57.5 -64t71.5 -80.5t65 -76.5t75 -92t63 -84.5t65 -95.5q46 69 64.5 157t8 165t-54.5 134t-114 66l6 35h57q63 0 100.5 -2t67 -11.5t42 -21t17.5 -38.5t2.5 -55t-10.5 -79q-10 -97 -54 -200t-107 -189q96 -175 104 -297h-289
q6 61 -26 135q-215 -158 -490 -155zM674 47q109 1 203.5 35t158.5 92q-26 58 -64.5 121t-92 133t-86.5 111t-94 112.5t-68 79.5q-262 -147 -297 -350q-16 -145 71 -241.5t269 -92.5zM817 854q132 77 207.5 159t95.5 204q20 124 -38 192t-154 68q-93 0 -171.5 -65.5
t-97.5 -180.5q-27 -169 158 -377z" />
    <glyph glyph-name="quotesingle" unicode="'" horiz-adv-x="370" 
d="M266 1036l84 400h187l-222 -400h-49z" />
    <glyph glyph-name="parenleft" unicode="(" horiz-adv-x="651" 
d="M500 -256q-179 227 -256.5 438t-46.5 416q63 394 573 852h49q-293 -402 -366 -852q-70 -449 96 -854h-49z" />
    <glyph glyph-name="parenright" unicode=")" horiz-adv-x="651" 
d="M61 -256q297 404 367 854q73 447 -96 852h49q366 -457 303 -852q-60 -393 -573 -854h-50z" />
    <glyph glyph-name="asterisk" unicode="*" horiz-adv-x="843" 
d="M600 991q-29 0 -43.5 23t-5.5 53l82 279l-242 -193q-26 -22 -54 -20.5t-40 26.5q-11 24 2 50.5t43 39.5l254 115l-219 113q-26 16 -31 42.5t16 53.5q20 22 47.5 23t47.5 -21l182 -193l4 277q0 29 22.5 52.5t51.5 23.5t44.5 -23.5t6.5 -52.5l-82 -277l242 193
q27 22 55.5 22t38.5 -24q10 -29 -2 -55t-43 -41l-256 -113l221 -115q25 -13 29 -39t-15 -51q-20 -26 -48 -27t-48 21l-180 193l-4 -279q0 -29 -23.5 -52.5t-52.5 -23.5z" />
    <glyph glyph-name="plus" unicode="+" horiz-adv-x="1054" 
d="M549 258l67 426h-405l12 82h406l61 385h80l-61 -385h405l-12 -82h-406l-67 -426h-80z" />
    <glyph glyph-name="comma" unicode="," horiz-adv-x="387" 
d="M137 -219q56 59 70 135q3 22 -6.5 37.5t-25 25.5t-31 21t-24 33.5t-3.5 54.5q7 50 45 81.5t82 31.5q52 0 77 -35.5t17 -91.5q-13 -77 -69 -166.5t-111 -134.5z" />
    <glyph glyph-name="hyphen" unicode="-" horiz-adv-x="837" 
d="M193 567l8 58h673l-8 -58h-673z" />
    <glyph glyph-name="period" unicode="." horiz-adv-x="387" 
d="M211 -20q-47 0 -74 31.5t-20 80.5q8 44 46.5 77.5t84.5 33.5q44 0 72 -33.5t20 -77.5q-7 -48 -45.5 -80t-83.5 -32z" />
    <glyph glyph-name="slash" unicode="/" horiz-adv-x="974" 
d="M63 -240l1006 1694h74l-1006 -1694h-74z" />
    <glyph glyph-name="zero" unicode="0" horiz-adv-x="1441" 
d="M748 -20q-133 0 -242 52t-180 146t-98.5 234t-0.5 307q35 222 147 391t269.5 256.5t337.5 87.5q133 0 242 -51.5t180.5 -144.5t99.5 -232.5t2 -306.5q-27 -168 -99 -308t-173 -233.5t-226 -145.5t-259 -52zM758 33q170 0 311 188t191 498q49 309 -33.5 495.5
t-253.5 186.5q-176 0 -310.5 -184t-183.5 -498q-51 -313 26 -499.5t253 -186.5z" />
    <glyph glyph-name="one" unicode="1" horiz-adv-x="727" 
d="M297 0l201 1264l-174 -127l10 69l319 248h117l-229 -1454h-244z" />
    <glyph glyph-name="two" unicode="2" horiz-adv-x="1101" 
d="M113 14q126 88 236 175.5t218 191.5t187.5 205t136.5 214t74 220q14 90 -1.5 160.5t-54.5 114t-93.5 65.5t-119.5 22q-131 0 -242.5 -89.5t-136.5 -241.5h-36q16 98 67 177t123.5 128t157 74.5t172.5 25.5q89 0 168.5 -27.5t139 -78.5t87.5 -134t12 -184
q-11 -68 -46.5 -139.5t-83 -135t-118.5 -133.5t-137 -125.5t-154.5 -120.5t-154.5 -110t-152 -102h365h90.5t68 2.5t51.5 4t37 8.5t27.5 11.5t21 18.5t19.5 23.5t21 31.5h37q-13 -23 -35 -62q-21 -39 -30.5 -56t-27.5 -43t-23.5 -35t-26 -25t-27.5 -19.5t-34.5 -12
t-40.5 -8.5t-52 -3t-63 -2.5t-80 0.5h-7h-542z" />
    <glyph glyph-name="three" unicode="3" horiz-adv-x="1155" 
d="M565 -20q-170 0 -275.5 77t-127.5 213h33q14 -64 49 -112t81.5 -74t94.5 -38.5t96 -12.5q91 0 170 33.5t133.5 90.5t90 128t48.5 149q24 153 -51.5 257t-236.5 104h-47l436 465h-346q-76 0 -115 -0.5t-78 -5t-53.5 -8.5t-34 -18.5t-27.5 -27t-26 -41.5h-33
q78 159 100 192q38 57 91 72q43 12 188 11h70h497l-567 -596q81 4 148.5 -6.5t115 -32t85 -52.5t58 -67.5t34 -77t13 -81.5t-4.5 -81q-31 -198 -202 -329t-407 -131z" />
    <glyph glyph-name="four" unicode="4" horiz-adv-x="1177" 
d="M741 0l66 410h-629l893 1044h150l-138 -876h162l-82 -168h-106l-66 -410h-250zM397 578h437l100 636z" />
    <glyph glyph-name="five" unicode="5" horiz-adv-x="1177" 
d="M578 -20q-172 0 -278 77t-126 213h33q19 -85 72.5 -140t119 -76t144.5 -21q89 0 165 35t128.5 94.5t87 133t47.5 155.5q32 202 -51 317t-254 115q-89 0 -179.5 -36t-199.5 -112l209 699h497h89.5t67.5 2.5t51.5 3.5t36.5 8.5t28.5 12t21 18.5t20 24t21.5 33h35
q-79 -159 -100 -190q-38 -57 -90 -72q-44 -13 -188 -12h-73h-413l-131 -422q181 114 385 114q104 1 194 -31.5t152.5 -92t91 -148.5t12.5 -195q-25 -156 -119 -273t-226 -175.5t-281 -58.5z" />
    <glyph glyph-name="six" unicode="6" horiz-adv-x="1196" 
d="M633 -20q-156 0 -264 89.5t-148 235t-10 318.5q27 149 91 279.5t151.5 227.5t194 169t220 111.5t226.5 47.5l-7 -31q-141 -14 -265.5 -108t-212.5 -238.5t-140 -324.5q79 104 180.5 157.5t206.5 53.5q84 0 158.5 -34t127.5 -95t75.5 -155.5t3.5 -205.5
q-23 -131 -103 -243.5t-208.5 -183t-276.5 -70.5zM643 25q133 0 225.5 118t128.5 326q35 204 -29 318t-182 114q-88 0 -180 -63.5t-160 -182.5l-8 -53q-27 -172 -13 -300.5t71 -202.5t147 -74z" />
    <glyph glyph-name="seven" unicode="7" horiz-adv-x="1028" 
d="M281 0l749 1260h-436q-76 0 -114.5 -0.5t-77.5 -5t-53.5 -8.5t-34 -19t-27 -27t-25.5 -41h-37q79 159 100 191q38 57 90 73q43 12 187 11h74h528l-854 -1434h-69z" />
    <glyph glyph-name="eight" unicode="8" horiz-adv-x="1181" 
d="M600 -18q-212 0 -336.5 91t-101.5 240q39 248 389 437q-52 48 -86 86t-64.5 84.5t-41.5 96t-3 101.5q18 108 97 187t182 115t213 36q167 0 271 -84.5t83 -216.5q-14 -96 -97.5 -192t-223.5 -175q139 -111 187 -160q131 -134 119 -266q-1 -10 -3 -20q-13 -87 -69.5 -157.5
t-138.5 -113.5t-178.5 -66t-197.5 -23zM561 43q90 -1 174.5 25.5t147.5 83t75 131.5q6 37 -8 76t-36 70.5t-66.5 73.5t-77.5 69t-92.5 73.5t-89.5 71.5q-140 -65 -242 -173.5t-119 -213.5q-20 -128 73.5 -207.5t260.5 -79.5zM844 817q133 72 209.5 155.5t89.5 170.5
q18 111 -58 181.5t-196 70.5q-107 0 -198 -59.5t-109 -166.5q-7 -47 8 -90t59.5 -91t76.5 -75.5t103 -83.5z" />
    <glyph glyph-name="nine" unicode="9" horiz-adv-x="1196" 
d="M397 8q141 15 266 109t213 239t140 326q-77 -105 -178.5 -159t-208.5 -54q-84 0 -158 34t-127.5 94.5t-76 154.5t-3.5 204q17 98 69 189t128.5 160.5t179.5 111t215 41.5q95 0 173.5 -33t131 -91.5t86.5 -138.5t39.5 -174t-10.5 -198q-27 -149 -91.5 -280.5t-152 -229.5
t-194 -171t-220.5 -113.5t-227 -48.5zM700 537q88 0 179 63t161 182l9 54q43 255 -14.5 416t-194.5 161q-132 0 -224.5 -118.5t-128.5 -325.5q-35 -204 30 -318t183 -114z" />
    <glyph glyph-name="colon" unicode=":" horiz-adv-x="387" 
d="M346 821q-46 0 -74.5 33.5t-21.5 79.5q7 47 46 78.5t85 31.5t72.5 -31.5t19.5 -78.5q-8 -46 -45 -79.5t-82 -33.5zM211 -23q-46 0 -73.5 33t-20.5 80q7 46 46 78.5t85 32.5t73 -32.5t19 -78.5q-7 -47 -45 -80t-84 -33z" />
    <glyph glyph-name="semicolon" unicode=";" horiz-adv-x="387" 
d="M137 -219q56 59 70 135q3 22 -6.5 37.5t-25 25.5t-31 21t-24 33.5t-3.5 54.5q7 50 45 81.5t82 31.5q52 0 77 -35.5t17 -91.5q-13 -77 -69 -166.5t-111 -134.5zM346 821q-46 0 -74.5 33.5t-21.5 79.5q7 47 46 78.5t85 31.5t72.5 -31.5t19.5 -78.5q-8 -46 -45 -79.5
t-82 -33.5z" />
    <glyph glyph-name="less" unicode="&#x3c;" horiz-adv-x="1054" 
d="M1040 297l-819 448l961 451l-15 -92l-774 -359l662 -356z" />
    <glyph glyph-name="equal" unicode="=" horiz-adv-x="1054" 
d="M233 823l13 80h891l-13 -80h-891zM190 559l13 78h891l-13 -78h-891z" />
    <glyph glyph-name="greater" unicode="&#x3e;" horiz-adv-x="1054" 
d="M150 297l14 92l776 356l-664 359l15 92l821 -451z" />
    <glyph glyph-name="question" unicode="?" horiz-adv-x="931" 
d="M465 307q12 90 50 179t85.5 162t95 145t86.5 156.5t52 168.5q22 131 -38.5 201t-164.5 70q-65 0 -129 -29.5t-115 -91t-65 -142.5h-41q18 107 86.5 183.5t159 111.5t190.5 35q99 0 179 -38.5t124 -118t27 -185.5q-10 -67 -43.5 -133t-79 -121t-99 -109.5t-106.5 -107.5
t-98.5 -104.5t-78 -111.5t-42.5 -120h-35zM432 -20q-49 0 -75.5 31t-18.5 81q8 45 45.5 78t85.5 33q44 0 72 -33.5t20 -77.5q-7 -48 -45.5 -80t-83.5 -32z" />
    <glyph glyph-name="at" unicode="@" horiz-adv-x="1822" 
d="M936 -371q-122 0 -229 24.5t-188 69t-147 106t-107.5 135.5t-68 158t-28.5 173t10 180q21 133 77 260t147 239.5t207.5 197.5t268 134.5t318.5 49.5q120 0 228 -29t198.5 -89.5t151 -147.5t84 -210.5t0.5 -269.5q-18 -111 -71 -224t-127.5 -204.5t-172.5 -149t-197 -57.5
q-101 0 -161 59.5t-54 153.5q-60 -82 -128.5 -133t-133.5 -51q-124 0 -175.5 98.5t-25.5 257.5q13 82 45 166.5t82 162.5t112 139.5t140 98t160 36.5q98 0 158 -89l32 80h183q-33 -85 -113 -272t-135.5 -323t-61.5 -177q-10 -65 22 -97t97 -32q97 0 196 84t166.5 210.5
t88.5 254.5q26 168 -11 300.5t-122.5 214t-203 123.5t-257.5 42q-154 0 -293 -45.5t-245 -123t-189 -181t-133.5 -219.5t-69.5 -238q-18 -97 -7 -191.5t40 -179.5t88 -158t136.5 -126t185.5 -83t235 -30q374 0 580 180h102q-121 -123 -303.5 -190.5t-380.5 -67.5zM829 74
q43 0 92 43.5t96 118t88 156.5t79 175l84 211q-5 47 -35 84t-66 37q-79 0 -166.5 -106.5t-150 -256t-84.5 -286.5q-12 -83 6 -129.5t57 -46.5z" />
    <glyph glyph-name="A" unicode="A" horiz-adv-x="1462" 
d="M793 1311q-27 44 -59.5 65t-88.5 21l6 37h162q128 0 194 -46.5t89 -160.5l272 -1227h-264l-107 479h-589l-254 -479h-62zM438 532h545l-133 607q-14 67 -27 112z" />
    <glyph glyph-name="B" unicode="B" horiz-adv-x="1492" 
d="M539 0q-164 0 -238 32t-90 109t8 205l133 844q31 207 -108 207l6 37h643q284 0 409.5 -96.5t98.5 -262.5q-15 -101 -84.5 -181.5t-183.5 -125.5q164 -36 233 -132t47 -239q-30 -186 -190.5 -291.5t-448.5 -105.5h-235zM729 53q181 0 298 95t142 249q26 157 -57.5 243.5
t-261.5 86.5h-324l-73 -473q-14 -73 -5.5 -117.5t46 -64t116.5 -19.5h119zM739 780q181 0 288.5 78.5t129.5 216.5q23 140 -61.5 222.5t-272.5 82.5h-250q32 -30 33.5 -97t-12.5 -132l-59 -371h204z" />
    <glyph glyph-name="C" unicode="C" horiz-adv-x="1568" 
d="M895 -20q-117 1 -222 32t-191 91t-144 149.5t-80 206t0 260.5q28 174 113.5 316.5t206 233t262.5 139.5t290 50q411 0 535 -311h-59q-30 68 -80 119t-108.5 78.5t-117 40.5t-116.5 12q-255 -3 -437 -184.5t-231 -493.5q-50 -312 74 -493.5t379 -184.5q80 -1 163.5 20.5
t176 80.5t159.5 149h60q-220 -311 -633 -311z" />
    <glyph glyph-name="D" unicode="D" horiz-adv-x="1589" 
d="M539 0q-162 0 -236.5 31.5t-91 106t5.5 198.5l135 854q31 207 -108 207l6 37h637q103 0 192 -16t157.5 -45.5t124.5 -71t93.5 -92t65 -109t37.5 -121.5t12.5 -130t-10.5 -134q-17 -109 -61 -211t-120.5 -194.5t-177.5 -160.5t-240.5 -108.5t-300.5 -40.5h-120zM666 53
q115 2 213.5 41.5t169 103t125.5 149.5t87 178.5t48 193.5q11 72 13 140t-7.5 134.5t-30.5 123.5t-57.5 106t-86.5 83.5t-120.5 54t-155.5 19.5h-291q32 -30 33.5 -97t-12.5 -132l-141 -897q-14 -73 -5.5 -117.5t46 -64t116.5 -19.5h56z" />
    <glyph glyph-name="E" unicode="E" horiz-adv-x="1337" 
d="M539 0q-164 0 -238 32t-90 109t8 205l135 856q7 30 4 64t-12.5 63.5t-38.5 48.5t-74 19l7 37h757h58q168 1 200.5 -21t58.5 -155q7 -34 11 -54h-57q-4 17 -11 45q-23 99 -51 115t-173 16h-44h-420q24 -23 31.5 -65t4.5 -79t-13 -99l-60 -369h598l-8 -53h-598l-71 -461
q-19 -114 14 -157.5t151 -43.5h209h44h69.5t52.5 3t42 5.5t31 13t28.5 20t25 32t29 42l34.5 58.5q15 25 23 39h58q-85 -155 -109 -187q-41 -56 -96 -69q-42 -11 -190 -10h-56h-274z" />
    <glyph glyph-name="F" unicode="F" horiz-adv-x="1255" 
d="M354 1202q7 30 4 64t-12.5 63.5t-38.5 48.5t-74 19l7 37h778h58q168 1 200.5 -21t58.5 -155q7 -34 11 -54h-60q-4 16 -10 44q-23 100 -50.5 116t-170.5 16h-43h-441q35 -33 36 -102.5t-15 -140.5l-60 -369h578l-8 -53h-578l-112 -715h-248z" />
    <glyph glyph-name="G" unicode="G" horiz-adv-x="1677" 
d="M895 -20q-117 1 -222 32t-191 91t-144 149.5t-80 206t0 260.5q28 174 113.5 316.5t206 233t262.5 139.5t290 50q411 0 535 -311h-59q-30 68 -80 119t-108.5 78.5t-117 40.5t-116.5 12q-255 -3 -437 -184.5t-231 -493.5q-51 -312 74 -496t379 -186q195 0 338 108l61 383
q28 195 -121 197l6 37h107q131 0 189.5 -30.5t66.5 -97t-10 -173.5l-25 -152q-121 -171 -303.5 -250t-382.5 -79z" />
    <glyph glyph-name="H" unicode="H" horiz-adv-x="1478" 
d="M354 1202q4 27 4.5 51t-5 51.5t-18.5 47t-39 32.5t-63 13l7 37h110q129 0 187 -30.5t65.5 -97.5t-10.5 -173l-57 -361h653l104 662h250l-227 -1434h-250l113 717h-654l-112 -717h-248z" />
    <glyph glyph-name="I" unicode="I" horiz-adv-x="577" 
d="M354 1202q4 27 4.5 51t-5 51.5t-18.5 47t-39 32.5t-63 13l7 37h110q129 0 187 -30.5t65.5 -97.5t-10.5 -173l-180 -1133h-248z" />
    <glyph glyph-name="J" unicode="J" horiz-adv-x="1216" 
d="M500 -20q-115 0 -207 34.5t-149.5 110.5t-53.5 182h49q-4 -84 43.5 -146t125.5 -92t173 -30q73 0 135.5 21.5t118 67t94.5 124.5t56 186l121 764q4 27 4.5 51t-5 51.5t-18.5 47t-39 32.5t-63 13l6 37h108q130 0 188 -30.5t66 -97.5t-10 -173l-104 -650q-17 -106 -63 -192
t-109.5 -143t-143 -95.5t-160 -55.5t-163.5 -17z" />
    <glyph glyph-name="K" unicode="K" horiz-adv-x="1488" 
d="M1397 -10q-310 -42 -383 51q-32 40 -44 108t-14.5 173t-7.5 151q-7 48 -17 81t-36.5 69t-67.5 56.5t-111.5 32t-166.5 7.5l893 715h80l-807 -639q88 8 156 6t120.5 -20.5t89.5 -43t62 -61.5t39 -77t20 -89q7 -59 11.5 -152.5t12 -156t25.5 -105.5q22 -45 54 -60t98 -9z
M354 1202q4 27 4.5 51t-5 51.5t-18.5 47t-39 32.5t-63 13l7 37h110q129 0 187 -30.5t65.5 -97.5t-10.5 -173l-180 -1133h-248z" />
    <glyph glyph-name="L" unicode="L" horiz-adv-x="1255" 
d="M539 0q-164 0 -238 32t-90 109t8 205l135 856q4 27 4.5 51t-5 51.5t-18.5 47t-39 32.5t-63 13l7 37h110q129 0 187 -30.5t65.5 -97.5t-10.5 -173l-139 -879q-19 -114 14 -157.5t151 -43.5h193q140 0 175 9q48 12 84 61q17 23 87 143h60q-87 -155 -109 -186
q-41 -56 -95 -70q-42 -11 -188 -10h-59h-227z" />
    <glyph glyph-name="M" unicode="M" horiz-adv-x="1910" 
d="M858 -31l-442 1268l-197 -1237h-55l211 1329q-49 68 -142 68l7 37h161q66 -1 105 -5.5t74.5 -19.5t57 -44t38.5 -77l336 -969l712 1115h248l-227 -1434h-248l207 1305z" />
    <glyph glyph-name="N" unicode="N" horiz-adv-x="1441" 
d="M373 1325q-46 72 -140 72l7 37h151q132 0 192.5 -28t104.5 -118l567 -1091l197 1237h55l-209 -1323q46 -72 138 -72l-6 -39h-152q-130 0 -191 27.5t-106 117.5l-565 1092l-197 -1237h-55z" />
    <glyph glyph-name="O" unicode="O" horiz-adv-x="1806" 
d="M901 -20q-159 0 -290.5 52t-219 146t-124 234t-9.5 307q26 167 107.5 306t198.5 232.5t264.5 145t306.5 51.5q161 0 292 -51.5t218 -145t123 -232.5t10 -306q-36 -223 -163.5 -392.5t-313 -258t-400.5 -88.5zM915 33q248 0 404 177.5t209 508.5q51 330 -49.5 506
t-348.5 176q-250 0 -406.5 -176t-207.5 -506q-53 -330 48 -508t351 -178z" />
    <glyph glyph-name="P" unicode="P" horiz-adv-x="1419" 
d="M354 1202q7 30 4 64t-12.5 63.5t-38.5 48.5t-74 19l7 37h718q156 0 263.5 -28.5t163 -81.5t74 -119t5.5 -150q-13 -80 -52.5 -146t-111.5 -120t-189.5 -84.5t-272.5 -30.5h-320l-106 -674h-248zM797 727q184 0 284 87.5t125 240.5q23 151 -49.5 238t-255.5 87h-332
q24 -23 31.5 -65t4.5 -79t-13 -99l-66 -410h271z" />
    <glyph glyph-name="Q" unicode="Q" horiz-adv-x="1849" 
d="M922 -20q-131 0 -244.5 33t-200 96t-144 153.5t-77 205t1.5 251.5q26 167 108.5 306t202.5 232.5t271 145t315 51.5q165 0 299.5 -51.5t224.5 -145t128 -232.5t12 -306q-36 -222 -166.5 -392t-320.5 -258.5t-410 -88.5zM1423 -537q-81 0 -180.5 35t-192.5 84.5t-184.5 99
t-184 84.5t-163.5 35q-89 0 -152.5 -35t-117.5 -139h-21q76 178 172 255t213 77q78 0 176 -33t191 -80t185 -94.5t187 -80.5t169 -33q93 0 166.5 46t132.5 160h20q-171 -381 -416 -381zM936 33q236 0 408.5 182t224.5 504q50 321 -65.5 501.5t-352.5 180.5
q-238 0 -411.5 -180.5t-223.5 -501.5q-26 -163 -7.5 -291t74.5 -215.5t146 -133.5t207 -46z" />
    <glyph glyph-name="R" unicode="R" horiz-adv-x="1480" 
d="M1425 -10q-63 -7 -111 -10t-108 -1.5t-107 17t-75 43.5q-45 43 -67 115.5t-27 147.5t-12.5 148.5t-36.5 134.5t-86 89h-277l-106 -674h-248l190 1202q7 30 4 64t-12.5 63.5t-38.5 48.5t-74 19l7 37h663q156 0 263.5 -28.5t163 -81.5t74 -119t5.5 -150
q-22 -133 -115.5 -230t-267.5 -133q62 -16 99 -65t51.5 -117.5t22.5 -138.5t22 -147t39 -124q24 -42 64 -58t108 -13zM750 727q350 0 403 328q23 152 -46.5 238.5t-252.5 86.5h-285q24 -23 31.5 -65t4.5 -79t-13 -99l-66 -410h224z" />
    <glyph glyph-name="S" unicode="S" horiz-adv-x="1372" 
d="M670 -20q-124 0 -225.5 35t-171 111t-80.5 183h55q9 -85 71.5 -148t152 -92.5t192.5 -29.5q94 0 176.5 29t143 90t73.5 145q9 55 -12.5 100t-64.5 77.5t-101 61.5t-123 56t-130 55.5t-121.5 65.5t-98 81t-60 106.5t-6.5 137.5q20 125 110.5 221t212.5 142.5t252 46.5
q110 0 202.5 -32t156 -103.5t72.5 -171.5h-56q-8 80 -63 139t-132 86t-165 27q-132 0 -235 -67.5t-124 -190.5q-9 -57 12.5 -103.5t65 -80t102 -62.5t124 -55.5t130.5 -54.5t122.5 -64t99 -79t60.5 -105.5t7 -137.5q-21 -127 -119 -225t-231 -146t-274 -48z" />
    <glyph glyph-name="T" unicode="T" horiz-adv-x="1429" 
d="M590 0l219 1380h-158h-35q-57 0 -79.5 0.5t-53.5 -5.5t-39 -9.5t-27.5 -24t-27.5 -35t-30 -54.5q-17 -30 -27 -48h-60q71 137 84 156q33 51 78 64q39 11 178 10h62h536h58q168 1 200.5 -21t58.5 -155q7 -34 11 -54h-59q-4 17 -11 47q-22 97 -49 113t-167 16h-35h-160
l-219 -1380h-248z" />
    <glyph glyph-name="U" unicode="U" horiz-adv-x="1449" 
d="M748 -20q-79 0 -148 13t-132 41.5t-108.5 73.5t-77.5 109.5t-38.5 149.5t8.5 192l102 643q4 27 4.5 51t-5 51.5t-18.5 47t-39 32.5t-63 13l7 37h110q129 0 187 -30.5t65.5 -97.5t-10.5 -173l-96 -596q-19 -111 -9.5 -194t34.5 -140t71.5 -92t100.5 -50.5t122 -15.5
q191 -2 327 132.5t179 402.5l135 854h57l-133 -840q-50 -313 -214 -464.5t-418 -149.5z" />
    <glyph glyph-name="V" unicode="V" horiz-adv-x="1470" 
d="M891 0q-124 0 -183.5 45.5t-84.5 159.5l-220 971q-13 54 -24 85.5t-31.5 67t-51 52t-73.5 16.5l6 37h164q125 0 182 -44.5t80 -158.5l224 -987l667 1190h60l-709 -1260q56 -135 193 -135l-7 -39h-192z" />
    <glyph glyph-name="W" unicode="W" horiz-adv-x="2246" 
d="M844 0q-126 0 -187.5 46.5t-81.5 160.5l-186 969q-8 42 -15 69t-20 58.5t-29.5 50t-42.5 31t-59 12.5l6 37h162q124 0 177.5 -44.5t74.5 -158.5l188 -995l469 981q-20 88 -54 134t-103 46l6 37h160q124 0 176.5 -44t73.5 -159l192 -998l571 1201h60l-608 -1272
q24 -64 68.5 -92.5t117.5 -30.5l-6 -39h-193q-125 0 -184.5 46.5t-81.5 160.5l-178 923l-463 -968q23 -64 67.5 -92.5t120.5 -30.5l-6 -39h-192z" />
    <glyph glyph-name="X" unicode="X" horiz-adv-x="1458" 
d="M154 0l577 639l-248 559q-15 35 -26.5 58t-30.5 52.5t-38 47t-47 29.5t-60 12l6 37h213q49 0 86 -9.5t61 -23t45.5 -43t33.5 -53t32 -70.5l174 -387l530 586h70l-578 -637l248 -566q20 -44 35.5 -70.5t40.5 -58.5t57 -47.5t72 -15.5l-6 -39h-217q-49 0 -85.5 9.5
t-60.5 24t-44.5 43t-32.5 54t-29 70.5l-178 387l-531 -588h-69z" />
    <glyph glyph-name="Y" unicode="Y" horiz-adv-x="1421" 
d="M584 0l96 606l-252 588q-44 98 -65 128q-53 75 -136 75l6 37h222q57 0 94.5 -10.5t62 -35.5t40 -52.5t35.5 -74.5q6 -15 9 -22l213 -510l570 705h67l-610 -758l-107 -676h-245z" />
    <glyph glyph-name="Z" unicode="Z" horiz-adv-x="1445" 
d="M164 0l1022 1380h-477q-154 0 -182 -5q-46 -8 -74 -46q-11 -15 -70 -121l-2 -4h-59q72 138 83 155q33 51 77 64q38 12 174 11h65h788l-1024 -1381h445h47q64 0 89 -1t62 8.5t45 12.5t35 34t35.5 47.5t42.5 77.5q20 35 31 55h59q-10 -20 -29 -55q-72 -135 -101 -170
q-40 -46 -106 -56q-40 -7 -168 -6h-57h-751z" />
    <glyph glyph-name="bracketleft" unicode="[" horiz-adv-x="573" 
d="M61 -256l271 1706h409l-8 -49h-184l-254 -1606h184l-8 -51h-410z" />
    <glyph glyph-name="backslash" unicode="\" horiz-adv-x="874" 
d="M698 -240l-366 1694h76l366 -1694h-76z" />
    <glyph glyph-name="bracketright" unicode="]" horiz-adv-x="573" 
d="M61 -256l9 51h182l254 1606h-182l8 49h409l-270 -1706h-410z" />
    <glyph glyph-name="asciicircum" unicode="^" horiz-adv-x="659" 
d="M287 1159l338 576l157 -576h-102l-74 443l-217 -443h-102z" />
    <glyph glyph-name="underscore" unicode="_" horiz-adv-x="1144" 
d="M86 -98l10 57h981l-10 -57h-981z" />
    <glyph glyph-name="grave" unicode="`" horiz-adv-x="538" 
d="M389 1403q-45 54 -7 106q31 41 83 47q61 7 84 -46q4 -8 6 -17l90 -367h-18z" />
    <glyph glyph-name="a" unicode="a" horiz-adv-x="1267" 
d="M457 -20q-150 0 -243 73.5t-73 192.5q12 73 56.5 123.5t109.5 76t141.5 41t156 23.5t149.5 17.5t127 30.5t82 54q15 84 5.5 146.5t-31 105t-60.5 68t-82.5 36.5t-96.5 11q-96 0 -183 -34.5t-150 -100.5h-50q77 97 207.5 148.5t278.5 51.5q74 0 139.5 -15.5t121 -49.5
t92 -83t51.5 -121t1 -159l-61 -383q-28 -194 117 -194l-7 -39h-104q-138 0 -192.5 34t-57.5 124q-93 -87 -208 -132.5t-236 -45.5zM565 59q84 0 171.5 40.5t162.5 113.5l53 330q-35 -27 -105.5 -44t-141 -29t-139.5 -31.5t-118.5 -64.5t-60.5 -116q-14 -95 37 -147t141 -52z
" />
    <glyph glyph-name="b" unicode="b" horiz-adv-x="1370" 
d="M770 -20q-112 0 -198.5 51t-129.5 133l-26 -164h-232l199 1251q7 31 4 65t-12.5 63.5t-39 48.5t-75.5 20l6 39h111q128 0 184.5 -30.5t63.5 -97.5t-11 -175l-49 -310q68 78 168.5 124t206.5 46q216 0 331.5 -147.5t78.5 -384.5q-38 -235 -201 -383.5t-379 -148.5zM711 53
q140 0 249 132t140 327q20 126 -2 229.5t-85 166.5t-157 63q-92 0 -173 -59t-138 -167l-74 -466q22 -104 86 -165t154 -61z" />
    <glyph glyph-name="c" unicode="c" horiz-adv-x="1187" 
d="M664 -20q-252 0 -384.5 149.5t-95.5 382.5q37 234 218 383.5t432 148.5q147 0 243 -54.5t144 -147.5h-54q-43 75 -118.5 111t-169.5 34q-166 -3 -287.5 -134t-153.5 -341q-34 -210 46 -341t245 -132q92 -3 179.5 33t154.5 110h53q-169 -202 -452 -202z" />
    <glyph glyph-name="d" unicode="d" horiz-adv-x="1320" 
d="M592 -20q-104 0 -188.5 39t-139.5 108.5t-77 169t-3 215.5q24 155 108.5 277.5t207.5 188.5t262 66q107 0 192.5 -46t128.5 -124l60 377q28 195 -121 197l6 39h111q128 0 184.5 -30.5t63.5 -97.5t-11 -175l-188 -1184h-232l27 164q-74 -83 -176.5 -133.5t-214.5 -50.5z
M676 53q91 0 174 61t139 165l74 466q-22 107 -86 166.5t-156 59.5q-139 0 -248 -133.5t-139 -325.5q-20 -127 2 -231t84.5 -166t155.5 -62z" />
    <glyph glyph-name="e" unicode="e" horiz-adv-x="1294" 
d="M678 -20q-258 0 -395 148.5t-99 383.5q37 236 219.5 384.5t436.5 147.5q102 1 186 -26t146.5 -80.5t93 -141.5t20.5 -202h-831q-10 -33 -17 -82q-35 -215 54 -339.5t276 -129.5q121 -3 231.5 56t165.5 151h56q-89 -128 -227.5 -199t-315.5 -71zM1051 645
q11 161 -47 254.5t-173 93.5q-124 0 -224.5 -106.5t-149.5 -274.5z" />
    <glyph glyph-name="f" unicode="f" horiz-adv-x="649" 
d="M139 0l154 969h-139l8 55h139l10 61q37 229 183 320t403 80l-6 -37q-64 0 -111 -8.5t-81 -29.5t-56.5 -46t-39 -69t-26 -87t-20.5 -112l-12 -72h246l-9 -55h-245l-154 -969h-244z" />
    <glyph glyph-name="g" unicode="g" horiz-adv-x="1253" 
d="M524 -553q-152 1 -263.5 33.5t-172.5 104t-45 175.5q14 89 95.5 152.5t207.5 99.5h60q-153 -87 -177 -243q-20 -124 58.5 -203.5t242.5 -79.5q160 0 273 79t133 208q10 62 -9 108.5t-58 74.5t-92 48t-110 33.5t-112 27.5t-98.5 34t-70 48t-25 75t35.5 110
q-102 48 -149 133.5t-29 198.5q18 114 95.5 201t197.5 133t264 46l37 -2q56 125 160.5 210t224.5 85q80 0 116.5 -38t26.5 -93q-6 -48 -46.5 -85.5t-96.5 -37.5q-51 0 -80.5 35.5t-21.5 81.5q11 70 94 109q-101 -1 -192.5 -78.5t-135.5 -190.5q181 -21 276.5 -121t71.5 -255
q-27 -176 -179.5 -279.5t-375.5 -105.5q-128 0 -221 38q-57 -114 43 -165q56 -29 225 -55q187 -29 260 -55q166 -58 178 -187q3 -33 -3 -70q-23 -151 -195.5 -244.5t-417.5 -93.5zM659 317q128 0 209 100t105 247q13 67 5.5 128.5t-29.5 109t-68 76t-111 28.5
q-126 0 -207.5 -98.5t-105.5 -243.5q-15 -93 -0.5 -170t66.5 -127t136 -50z" />
    <glyph glyph-name="h" unicode="h" horiz-adv-x="1310" 
d="M383 1251q7 31 4 65t-12.5 63.5t-39 48.5t-75.5 20l6 39h111q128 0 184.5 -30.5t63.5 -97.5t-11 -175l-49 -305q93 79 205 122t223 43q349 0 291 -372l-106 -672h-242l100 633q10 62 13.5 105.5t-1 89.5t-20.5 73.5t-50 45.5t-85 18q-83 0 -173.5 -37.5t-164.5 -108.5
l-129 -819h-242z" />
    <glyph glyph-name="i" unicode="i" horiz-adv-x="548" 
d="M309 793q7 30 4 64t-12.5 63t-39 48t-75.5 19l7 37h110q128 0 185 -30t64.5 -96.5t-11.5 -174.5l-115 -723h-242zM451 1169q-64 0 -100 43t-27 107q9 62 59.5 104.5t114.5 42.5q60 0 97 -43t28 -104q-9 -62 -60 -106t-112 -44z" />
    <glyph glyph-name="j" unicode="j" horiz-adv-x="548" 
d="M-231 -567q92 6 161.5 37t115.5 86t74 125.5t42 162.5l149 949q29 194 -118 194l6 37h108q128 0 185 -30t64.5 -96.5t-11.5 -174.5l-131 -829q-19 -122 -79.5 -216.5t-149 -151.5t-194 -85.5t-224.5 -28.5zM455 1169q-63 0 -99.5 43.5t-27.5 106.5q9 61 60 104t114 43
q61 0 96.5 -42.5t26.5 -104.5q-9 -63 -58.5 -106.5t-111.5 -43.5z" />
    <glyph glyph-name="k" unicode="k" horiz-adv-x="1284" 
d="M1059 -20q-147 0 -201 77q-24 30 -43 83t-29.5 106t-29.5 109.5t-42.5 99.5t-69 69.5t-109.5 24.5l727 475h92l-652 -426q68 6 121 -8t86.5 -44.5t57.5 -69t41 -88.5t29.5 -95.5t30 -96.5t36.5 -85q21 -45 51.5 -63.5t79.5 -20.5l-4 -33q-135 -15 -172 -14zM383 1251
q7 31 4 65t-12.5 63.5t-39 48.5t-75.5 20l6 39h111q128 0 184.5 -30.5t63.5 -97.5t-11 -175l-188 -1184h-242z" />
    <glyph glyph-name="l" unicode="l" horiz-adv-x="745" 
d="M453 -20q-136 0 -192 78t-30 245l152 948q7 31 4 65t-12.5 63.5t-39 48.5t-75.5 20l6 39h111q128 0 184.5 -30.5t63.5 -97.5t-11 -175l-151 -953q-15 -95 2 -141t88 -49q37 -2 84 13.5t82 41.5l-4 -37q-46 -37 -116 -58t-146 -21z" />
    <glyph glyph-name="m" unicode="m" horiz-adv-x="1910" 
d="M309 793q7 30 4 64t-12.5 63t-39 48t-75.5 19l7 37h110q134 0 188 -31.5t58 -118.5q191 170 383 170q237 0 274 -188q194 188 400 188q160 0 233.5 -87t42.5 -285l-106 -672h-242l100 633q8 52 12 88.5t5.5 79t-6.5 70t-23 51t-43 34t-68 9.5q-143 0 -297 -158
q6 -59 -6 -135l-106 -672h-242l101 633q8 52 12 89t5 78.5t-7 69.5t-23 51.5t-43 34t-67 9.5q-133 0 -281 -142l-131 -823h-242z" />
    <glyph glyph-name="n" unicode="n" horiz-adv-x="1310" 
d="M309 793q7 30 4 64t-12.5 63t-39 48t-75.5 19l7 37h110q137 0 192 -33t56 -125q204 178 442 178q349 0 291 -372l-106 -672h-242l100 633q10 62 13.5 105.5t-1 89.5t-20.5 73.5t-50 45.5t-85 18q-83 0 -173.5 -37.5t-164.5 -108.5l-129 -819h-242z" />
    <glyph glyph-name="o" unicode="o" horiz-adv-x="1368" 
d="M680 -20q-255 0 -395 144.5t-101 387.5q38 243 224 387.5t442 144.5q125 0 226 -37t167.5 -105t95 -168.5t9.5 -221.5q-39 -243 -226 -387.5t-442 -144.5zM690 33q81 0 151.5 39.5t121 106.5t85 152t50.5 181q17 94 7.5 181t-37.5 153t-86.5 105.5t-139.5 39.5t-151 -39
t-120 -106t-84 -152.5t-49 -181.5q-11 -76 -11 -146t18 -130.5t48.5 -105.5t81 -71t115.5 -26z" />
    <glyph glyph-name="p" unicode="p" horiz-adv-x="1370" 
d="M309 793q7 30 4 64t-12.5 63t-39 48t-75.5 19l7 37h110q139 0 193 -35t57 -129q73 91 177.5 137.5t209.5 46.5q216 0 331.5 -147.5t78.5 -384.5q-38 -235 -201 -383.5t-379 -148.5q-105 0 -189.5 47.5t-129.5 122.5l-115 -723h-242zM711 53q140 0 249 132t140 327
q20 126 -2 229.5t-85 166.5t-157 63q-92 0 -173 -59t-138 -167l-74 -466q22 -104 86 -165t154 -61z" />
    <glyph glyph-name="q" unicode="q" horiz-adv-x="1320" 
d="M969 150q-71 -76 -171 -123t-206 -47q-215 0 -330.5 148.5t-77.5 383.5q24 156 107 277.5t206 188t265 66.5q113 0 200 -49t132 -135l24 164h232l-252 -1597h-244zM676 53q91 0 174 61t139 165l74 466q-22 107 -86 166.5t-156 59.5q-139 0 -248 -133.5t-139 -325.5
q-20 -127 2 -231t84.5 -166t155.5 -62z" />
    <glyph glyph-name="r" unicode="r" horiz-adv-x="927" 
d="M309 793q7 30 4 64t-12.5 63t-39 48t-75.5 19l7 37h110q136 0 190.5 -32.5t57.5 -123.5q102 97 228.5 140t252.5 34l-28 -176q-39 16 -55 22.5t-57.5 19t-65.5 14.5t-64 1.5t-70.5 -13t-67 -36.5t-69.5 -61l-129 -813h-242z" />
    <glyph glyph-name="s" unicode="s" horiz-adv-x="1085" 
d="M526 -20q-91 0 -170.5 22t-140 69t-84.5 113h55q32 -73 127 -113t211 -40q121 0 213 47t105 133q7 46 -25 82t-89.5 61.5t-127.5 50t-140 53.5t-125.5 65t-85 92.5t-18.5 127.5q16 93 90 163.5t174.5 104t209.5 33.5q131 0 232 -50.5t136 -149.5h-57q-27 72 -110 110.5
t-189 38.5q-74 0 -137 -18.5t-107 -58t-51 -93.5q-5 -35 14 -64t56 -50.5t85.5 -41t103 -38t108.5 -39t101.5 -48t82 -60.5t50.5 -80.5t7 -104.5q-16 -101 -95 -175t-185 -108t-224 -34z" />
    <glyph glyph-name="t" unicode="t" horiz-adv-x="692" 
d="M399 -20q-134 0 -189.5 78t-29.5 245l107 666h-133l8 55h133l37 236h241l-36 -236h229l-8 -55h-230l-116 -738q-8 -57 -7.5 -98.5t23.5 -65.5t72 -26q39 -2 86 13.5t82 41.5l-4 -37q-102 -79 -265 -79z" />
    <glyph glyph-name="u" unicode="u" horiz-adv-x="1310" 
d="M530 -20q-348 0 -290 374l69 439q7 30 4 64t-12.5 63t-39 48t-75.5 19l7 37h110q128 0 185 -30t64.5 -96.5t-11.5 -174.5l-54 -332q-8 -50 -11.5 -87.5t-3 -78t10 -68.5t26.5 -51.5t48 -35t74 -11.5q84 0 173 38t165 110l92 586q7 30 4 64t-12.5 63t-39 48t-75.5 19l6 37
h111q128 0 185 -30t64 -96.5t-12 -174.5l-114 -723h-234l25 156q-97 -84 -212 -130t-227 -46z" />
    <glyph glyph-name="v" unicode="v" horiz-adv-x="1218" 
d="M774 0q-125 0 -182 45t-82 160l-150 561q-13 54 -24 85.5t-31.5 67t-51 52t-73.5 16.5l6 37h179q113 -1 164.5 -47t80.5 -156l156 -602l461 805h61l-502 -870q26 -60 61 -87.5t97 -27.5l-6 -39h-164z" />
    <glyph glyph-name="w" unicode="w" horiz-adv-x="1841" 
d="M719 0q-119 3 -175.5 48t-74.5 157l-111 561q-11 52 -22 86t-31 68t-51 50.5t-74 16.5l6 37h179q116 -1 170 -47t71 -156l117 -590l321 592q-22 78 -59 121t-106 43l6 37h178q118 -1 171.5 -47t72.5 -156l118 -588l424 791h62l-465 -864q22 -66 59 -93.5t103 -27.5
l-6 -39h-181q-120 3 -175 47.5t-72 157.5l-117 536l-314 -587q17 -63 54.5 -89t107.5 -26l-6 -39h-180z" />
    <glyph glyph-name="x" unicode="x" horiz-adv-x="1329" 
d="M172 0l465 446l-188 357q-7 14 -20.5 41.5t-20.5 40t-19.5 33t-23.5 30t-27 20.5t-35.5 15t-44.5 4l6 37h211q39 -1 67 -4.5t51.5 -15.5t37 -21.5t30.5 -36t26.5 -44t29.5 -58.5l117 -217l409 397h76l-459 -444l184 -359q8 -14 25 -47.5t24 -46t23.5 -34.5t30.5 -30.5
t37 -16t51 -7.5l-6 -39h-211q-46 1 -78.5 9t-54 18t-42 36t-32.5 48t-35 69l-117 219l-409 -399h-78z" />
    <glyph glyph-name="y" unicode="y" horiz-adv-x="1206" 
d="M319 -512l281 479l-240 799q-13 46 -20.5 69.5t-23 57.5t-32 51t-43.5 30t-61 13l6 37h195q59 -1 96 -11t63.5 -37t41.5 -60.5t34 -94.5l154 -565l447 768h59l-895 -1536h-62z" />
    <glyph glyph-name="z" unicode="z" horiz-adv-x="1232" 
d="M145 0l773 969h-291q-149 1 -178 -4q-44 -8 -71 -46q-11 -14 -67 -118h-61q70 134 82 151q32 50 77 62q38 11 177 10h61h602l-772 -969h301q141 -1 171 5q41 9 68 48q9 12 66 117h60q-68 -134 -82 -155q-32 -48 -80 -61q-38 -10 -182 -9h-51h-603z" />
    <glyph glyph-name="braceleft" unicode="{" horiz-adv-x="665" 
d="M565 -248q-166 -18 -248.5 35.5t-66.5 153.5l78 485q9 59 -25.5 105.5t-105.5 64.5q90 22 133.5 69t54.5 119l78 486q18 93 117 141t254 31l-7 -29q-128 -3 -147 -139l-78 -477q-25 -151 -289 -201q114 -21 179 -68.5t55 -115.5l-72 -482q-11 -77 7.5 -113.5t86.5 -37.5z
" />
    <glyph glyph-name="bar" unicode="|" horiz-adv-x="243" 
d="M61 -256l271 1706h80l-271 -1706h-80z" />
    <glyph glyph-name="braceright" unicode="}" horiz-adv-x="665" 
d="M68 -221q69 1 99.5 37.5t45.5 113.5l78 482q12 68 92 115.5t201 68.5q-117 23 -179 72.5t-49 128.5l78 477q19 136 -108 139l6 29q165 17 246.5 -31t66.5 -141l-74 -486q-11 -73 16.5 -119.5t110.5 -68.5q-77 -18 -125 -64t-57 -106l-78 -485q-16 -100 -115.5 -153.5
t-259.5 -35.5z" />
    <glyph glyph-name="asciitilde" unicode="~" horiz-adv-x="1042" 
d="M221 754q36 28 72.5 45t66.5 25.5t67 5.5t60.5 -7t62.5 -19.5t58 -24.5t60 -29q52 -25 82.5 -38t79.5 -26t87 -10t87 21.5t96 56.5l-15 -88q-41 -33 -80.5 -52t-80.5 -22t-72 -1.5t-75 18t-67 27t-70 34.5q-19 9 -28 14q-59 26 -97.5 38.5t-92 18.5t-106.5 -13t-109 -62z
" />
    <glyph glyph-name="uni00A0" unicode="&#xa0;" horiz-adv-x="618" 
 />
    <glyph glyph-name="exclamdown" unicode="&#xa1;" horiz-adv-x="446" 
d="M55 -336l285 1151h66l-82 -1151h-269zM389 918q-46 0 -73.5 32t-20.5 78q6 47 44.5 80t84.5 33t73 -33t21 -80q-7 -46 -45 -78t-84 -32z" />
    <glyph glyph-name="cent" unicode="&#xa2;" horiz-adv-x="1146" 
d="M649 -20q-156 3 -270.5 71t-166.5 189t-28 272q35 229 215 379t420 153l27 175h53l-27 -175q132 -7 218.5 -61t128.5 -141h-52q-40 71 -110 106t-156 37q-13 2 -39 -2l-149 -942l35 -2q87 2 170 38t145 105h51q-68 -87 -172.5 -141t-239.5 -61l-28 -187h-53zM807 975
q-139 -29 -240.5 -154.5t-130.5 -308.5q-30 -185 32.5 -310t193.5 -153z" />
    <glyph glyph-name="sterling" unicode="&#xa3;" horiz-adv-x="1267" 
d="M221 0q114 81 183 187t88 223q20 135 -27 329h-246l43 58h189q-18 103 -5 186q18 113 74.5 204.5t136 148.5t172.5 88t189 32q110 2 196.5 -38.5t133 -122.5t32.5 -191h-28q6 97 -37.5 166.5t-113.5 100.5t-154 30q-92 -1 -167.5 -39t-131.5 -122.5t-76 -209.5
q-15 -99 -4 -233h344l-41 -58h-299q10 -117 -10 -213q-43 -170 -228 -364h428q152 -1 185 5q47 10 80 51q16 20 65 99h47q-105 -185 -132 -222q-46 -65 -101 -82q-43 -14 -176 -13h-72h-537z" />
    <glyph glyph-name="currency" unicode="&#xa4;" horiz-adv-x="1255" 
d="M647 -18q-105 0 -195.5 34.5t-154.5 96.5l-135 -117l-29 39l135 117q-116 146 -80 360q34 217 195 362l-107 123l46 37l100 -123q179 133 393 133q209 0 342 -124l133 114l31 -37l-133 -114q121 -147 88 -371q-36 -221 -205 -371l92 -106l-43 -39l-92 110
q-172 -124 -381 -124zM653 16q75 0 141.5 40.5t115 110t82.5 158t50 187.5q18 99 10.5 189t-33 158t-79.5 108.5t-129 40.5q-100 0 -182.5 -70t-132 -180t-70.5 -246q-19 -98 -12 -187.5t31 -158t78 -109.5t130 -41z" />
    <glyph glyph-name="yen" unicode="&#xa5;" horiz-adv-x="1425" 
d="M629 0l92 584h-309l10 57h289l-62 147h-205l9 58h168l-140 334q-45 105 -65 135q-54 82 -144 82l7 37h221q58 0 95.5 -9.5t64 -39t38.5 -52t36 -78.5q5 -11 7 -16l215 -510l568 705h67l-473 -588h195l-8 -58h-232l-90 -112l-4 -35h303l-10 -57h-303l-92 -584h-248z" />
    <glyph glyph-name="brokenbar" unicode="&#xa6;" horiz-adv-x="243" 
d="M207 666l125 784h80l-125 -784h-80zM61 -256l125 784h80l-125 -784h-80z" />
    <glyph glyph-name="section" unicode="&#xa7;" horiz-adv-x="1024" 
d="M506 -14q-131 0 -201 60.5t-61 162.5h41q-10 -83 51 -131.5t164 -48.5q83 0 138 38.5t67 108.5q6 40 -8 77t-43 66.5t-68 58t-82.5 55.5t-86.5 55.5t-80.5 62t-65 70.5t-38.5 85.5t-2 102.5q12 74 69 141.5t142 110.5q-25 63 -16 127q18 110 120.5 188t241.5 78
q131 0 201.5 -60.5t59.5 -162.5h-45q12 87 -46.5 135.5t-156.5 48.5q-88 0 -144.5 -39t-66.5 -110q-8 -51 16.5 -96.5t69.5 -81.5t101 -71.5t111 -74.5t99 -82t66 -102t10 -127q-13 -75 -70.5 -142t-142.5 -110q27 -56 16 -127q-18 -112 -118.5 -189t-241.5 -77zM823 426
q88 61 101 156q6 56 -25.5 104t-88.5 86t-118.5 72.5t-125 79.5t-97.5 90q-87 -60 -100 -156q-6 -56 25.5 -104t88.5 -86t118 -72.5t124.5 -79.5t97.5 -90z" />
    <glyph glyph-name="dieresis" unicode="&#xa8;" horiz-adv-x="800" 
d="M440 1128q-56 0 -86.5 36t-21.5 93q9 56 51.5 93t97.5 34q55 -2 85.5 -37t21.5 -90q-9 -56 -51 -92.5t-97 -36.5zM780 1128q-56 0 -87.5 36t-22.5 93q9 55 52 90t99 35q53 0 84.5 -35t22.5 -90q-9 -56 -52 -92.5t-96 -36.5z" />
    <glyph glyph-name="copyright" unicode="&#xa9;" horiz-adv-x="1472" 
d="M756 -18q-133 0 -246.5 52t-187.5 139.5t-107 208t-12 253.5q28 178 140 328.5t277 237.5t343 87q132 0 244.5 -52t186 -139.5t106 -208t11.5 -253.5q-28 -177 -139.5 -327.5t-275.5 -238t-340 -87.5zM827 254q-169 -2 -262.5 102.5t-66.5 280.5q27 173 154 276t296 103
q188 0 273 -127l-35 -6q-33 48 -90 70t-121 20q-111 -3 -184 -94.5t-97 -241.5q-24 -152 20 -243t154 -95q145 -7 240 90l31 -10q-125 -125 -312 -125zM764 37q161 0 312.5 80.5t254 218.5t127.5 299q19 121 -11.5 232t-98 191.5t-170.5 128.5t-224 48q-163 0 -313.5 -80
t-252.5 -218.5t-128 -301.5q-25 -162 33 -299.5t183 -218t288 -80.5z" />
    <glyph glyph-name="ordfeminine" unicode="&#xaa;" horiz-adv-x="1050" 
d="M580 672q-157 0 -242 108.5t-57 280.5t146.5 281.5t274.5 109.5q72 0 132 -26.5t94 -73.5l12 86h195l-119 -752h-195l15 84q-106 -98 -256 -98zM637 715q58 0 112.5 38t90.5 105l65 406q-15 69 -57.5 104t-102.5 35q-92 0 -160 -94t-93 -248q-25 -156 13.5 -251
t131.5 -95z" />
    <glyph glyph-name="guillemotleft" unicode="&#xab;" horiz-adv-x="1269" 
d="M1223 88l-584 457l729 459l-18 -109l-551 -350l440 -350zM770 88l-582 457l727 459l-18 -109l-551 -350l440 -350z" />
    <glyph glyph-name="logicalnot" unicode="&#xac;" horiz-adv-x="1042" 
d="M952 377l49 303h-790l12 88h879l-62 -391h-88z" />
    <glyph glyph-name="uni00AD" unicode="&#xad;" horiz-adv-x="837" 
d="M193 567l8 58h673l-8 -58h-673z" />
    <glyph glyph-name="registered" unicode="&#xae;" horiz-adv-x="940" 
d="M631 883q-161 0 -257 114t-71 275q26 161 158 274t293 113q160 0 255.5 -113t69.5 -274q-25 -161 -156.5 -275t-291.5 -114zM639 930q141 0 255 100.5t136 241.5q23 140 -59 240t-223 100q-142 0 -257.5 -100t-138.5 -240q-22 -142 61.5 -242t225.5 -100zM522 1075
l66 410h145q77 0 113 -27.5t28 -79.5q-6 -39 -37 -65t-83 -33l84 -199h-88l-78 193h-41l-33 -199h-76zM696 1311q90 0 101 67q4 35 -15.5 52.5t-62.5 17.5h-62l-22 -137h61z" />
    <glyph glyph-name="macron" unicode="&#xaf;" horiz-adv-x="872" 
d="M322 1184l10 76h665l-10 -76h-665z" />
    <glyph glyph-name="degree" unicode="&#xb0;" horiz-adv-x="765" 
d="M555 954q-125 0 -199.5 88.5t-54.5 212.5q20 125 122 213t226 88q125 0 199.5 -88.5t54.5 -212.5q-20 -125 -122 -213t-226 -88zM565 1018q96 0 176 70t95 167t-42.5 165.5t-154.5 68.5q-96 0 -175.5 -69t-94.5 -165q-15 -97 43 -167t153 -70z" />
    <glyph glyph-name="plusminus" unicode="&#xb1;" horiz-adv-x="1054" 
d="M555 301l68 426h-406l12 80h406l61 385h80l-61 -385h405l-12 -80h-406l-67 -426h-80zM133 152l12 79h879l-12 -79h-879z" />
    <glyph glyph-name="uni00B2" unicode="&#xb2;" horiz-adv-x="817" 
d="M207 567q238 166 400.5 349.5t191.5 363.5q19 120 -38 186t-149 66q-91 0 -170.5 -62t-95.5 -170h-29q14 94 72 161.5t134.5 97.5t162.5 30q64 0 120.5 -19t99.5 -55t62.5 -94.5t8.5 -130.5q-9 -56 -38.5 -113.5t-77.5 -113t-99.5 -105t-121.5 -103t-124 -92t-125 -85.5
h486l-64 -127h-608z" />
    <glyph glyph-name="uni00B3" unicode="&#xb3;" horiz-adv-x="874" 
d="M526 545q-122 0 -197.5 54t-90.5 151h24q11 -44 35 -76t57 -48.5t67 -24t73 -7.5q122 0 204 81t101 193q15 99 -28.5 166.5t-141.5 87.5l2 15q72 34 117.5 93.5t56.5 131.5q14 86 -34 134t-126 48q-91 0 -166.5 -57t-91.5 -156h-22q22 127 120 195.5t217 68.5
q120 0 193 -60.5t55 -170.5q-11 -71 -67 -126t-148 -79q132 -23 187 -103t39 -186q-22 -141 -144 -233t-291 -92z" />
    <glyph glyph-name="acute" unicode="&#xb4;" horiz-adv-x="538" 
d="M516 1493q36 65 100 64q49 -1 72 -38q29 -47 -21 -100q-7 -8 -16 -16l-321 -277h-19z" />
    <glyph glyph-name="uni00B5" unicode="&#xb5;" horiz-adv-x="1460" 
d="M350 793q7 30 4 64t-12.5 63t-39 48t-75.5 19l6 37h111q128 0 185 -30t64.5 -96.5t-11.5 -174.5l-54 -332q-8 -50 -11.5 -87.5t-3 -78t10 -68.5t26.5 -51.5t48 -35t74 -11.5q180 0 346 156q0 28 8 98l76 480q7 30 4 64t-12.5 63t-39 48t-75.5 19l6 37h111q128 0 185 -30
t64 -96.5t-12 -174.5l-63 -406q-8 -47 -11.5 -80.5t-4 -71.5t7 -63t22 -47t42 -32t65.5 -9l-2 -14q-68 -14 -117 -14q-223 0 -250 180q-101 -87 -211 -136.5t-213 -49.5q-90 0 -129 34l-92 -587h-242z" />
    <glyph glyph-name="paragraph" unicode="&#xb6;" horiz-adv-x="1079" 
d="M504 664q-148 1 -211 126q-56 114 -21 272q37 162 146 267q111 105 258 105h569l-227 -1434h-217l221 1391l-172 2q-71 0 -118 -54.5t-58 -119.5l-193 -1219h-82z" />
    <glyph glyph-name="periodcentered" unicode="&#xb7;" horiz-adv-x="397" 
d="M305 545q-49 0 -77.5 33.5t-20.5 83.5q8 48 47 82t88 34t77.5 -34t20.5 -82q-7 -49 -46 -83t-89 -34z" />
    <glyph glyph-name="cedilla" unicode="&#xb8;" horiz-adv-x="608" 
d="M219 -401q45 0 76.5 26.5t42.5 65.5q10 48 -19.5 87t-105.5 50l147 197h56l-101 -125q54 -4 93 -22t57.5 -45t25 -55.5t1.5 -58.5q-11 -69 -64.5 -116t-118.5 -59.5t-132 8.5t-103 75l18 21q62 -49 127 -49z" />
    <glyph glyph-name="uni00B9" unicode="&#xb9;" horiz-adv-x="583" 
d="M303 547l135 848l-73 2l2 14l270 176h14l-166 -1040h-182z" />
    <glyph glyph-name="ordmasculine" unicode="&#xba;" horiz-adv-x="1085" 
d="M649 668q-190 0 -293.5 106.5t-74.5 286.5t165.5 286.5t325.5 106.5q191 0 294.5 -106.5t74.5 -286.5t-165.5 -286.5t-326.5 -106.5zM653 707q222 0 277 354q58 356 -164 356q-214 0 -272 -356q-55 -354 159 -354z" />
    <glyph glyph-name="guillemotright" unicode="&#xbb;" horiz-adv-x="1269" 
d="M567 88l17 107l553 350l-443 350l19 109l581 -459zM117 88l16 107l553 350l-442 350l18 109l580 -459z" />
    <glyph glyph-name="onequarter" unicode="&#xbc;" horiz-adv-x="1648" 
d="M346 629l133 848l-71 2l2 14l268 176h16l-164 -1040h-184zM244 -205l1331 1802h74l-1332 -1802h-73zM1260 -197l45 291h-428l624 748h107l-164 -1039h-184zM973 143h340l80 502z" />
    <glyph glyph-name="onehalf" unicode="&#xbd;" horiz-adv-x="1947" 
d="M223 -205l1331 1802h74l-1331 -1802h-74zM346 629l133 848l-71 2l2 14l268 176h16l-164 -1040h-184zM1079 -193q112 79 207.5 161t179 174t137.5 190t68 190q20 120 -36 186t-148 66q-97 0 -173.5 -60.5t-94.5 -170.5h-29q22 138 129.5 214.5t241.5 76.5q135 0 224 -81
t66 -223q-11 -66 -54 -137t-97.5 -129.5t-137.5 -126.5t-145.5 -113t-150.5 -104h487l-67 -125h-609z" />
    <glyph glyph-name="threequarters" unicode="&#xbe;" horiz-adv-x="1910" 
d="M541 -205l1331 1802h74l-1332 -1802h-73zM584 545q-124 0 -199.5 54t-89.5 151h24q14 -58 52.5 -94.5t82.5 -49t97 -12.5q121 0 202.5 81t100.5 193q15 99 -27.5 166.5t-140.5 87.5l2 15q72 34 117.5 93.5t56.5 131.5q14 86 -35 134t-127 48q-89 0 -164.5 -57t-91.5 -156
h-22q14 86 68.5 147.5t123.5 89t144 27.5q120 0 194 -60.5t56 -170.5q-11 -71 -67 -126t-148 -79q132 -23 186.5 -103t38.5 -186q-22 -140 -144 -232.5t-290 -92.5zM1520 -197l45 291h-428l624 748h109l-164 -1039h-186zM1231 143h342l80 502z" />
    <glyph glyph-name="questiondown" unicode="&#xbf;" horiz-adv-x="931" 
d="M436 -336q-100 0 -180.5 39t-125 118.5t-28.5 184.5q11 68 44.5 134t79.5 121.5t100 110t107.5 107.5t99 104.5t78.5 111t42 118.5h33q-11 -90 -48.5 -179t-85.5 -162t-95.5 -145t-87 -156.5t-52.5 -168.5q-21 -130 41.5 -200t165.5 -70q108 0 201.5 72t114.5 194h30
q-13 -81 -55.5 -146t-103.5 -105t-131.5 -61.5t-143.5 -21.5zM684 922q-46 0 -72.5 31t-19.5 77q7 49 44 81t83 32q48 0 75.5 -32t20.5 -81q-7 -46 -45.5 -77t-85.5 -31z" />
    <glyph glyph-name="Agrave" unicode="&#xc0;" horiz-adv-x="1462" 
d="M793 1311q-27 44 -59.5 65t-88.5 21l6 37h162q128 0 194 -46.5t89 -160.5l272 -1227h-264l-107 479h-589l-254 -479h-62zM438 532h545l-133 607q-14 67 -27 112zM678 1808q-45 54 -7 106q31 41 83 47q61 7 84 -46q4 -8 6 -17l88 -366h-19z" />
    <glyph glyph-name="Aacute" unicode="&#xc1;" horiz-adv-x="1462" 
d="M793 1311q-27 44 -59.5 65t-88.5 21l6 37h162q128 0 194 -46.5t89 -160.5l272 -1227h-264l-107 479h-589l-254 -479h-62zM438 532h545l-133 607q-14 67 -27 112zM1151 1901q36 65 100 64q48 -1 72 -38q29 -47 -20 -100q-7 -9 -17 -17l-321 -276h-19z" />
    <glyph glyph-name="Acircumflex" unicode="&#xc2;" horiz-adv-x="1462" 
d="M793 1311q-27 44 -59.5 65t-88.5 21l6 37h162q128 0 194 -46.5t89 -160.5l272 -1227h-264l-107 479h-589l-254 -479h-62zM438 532h545l-133 607q-14 67 -27 112zM913 1903q28 47 69 61.5t76 -3t48 -58.5l111 -367h-19l-203 281l-290 -281h-19z" />
    <glyph glyph-name="Atilde" unicode="&#xc3;" horiz-adv-x="1462" 
d="M793 1311q-27 44 -59.5 65t-88.5 21l6 37h162q128 0 194 -46.5t89 -160.5l272 -1227h-264l-107 479h-589l-254 -479h-62zM438 532h545l-133 607q-14 67 -27 112zM1151 1536q-72 0 -211 49t-186 49q-53 0 -81 -16.5t-34 -58.5h-27q13 128 62 178.5t125 50.5q69 0 208 -49
t191 -49q104 0 117 75h26q-13 -116 -65 -172.5t-125 -56.5z" />
    <glyph glyph-name="Adieresis" unicode="&#xc4;" horiz-adv-x="1462" 
d="M793 1311q-27 44 -59.5 65t-88.5 21l6 37h162q128 0 194 -46.5t89 -160.5l272 -1227h-264l-107 479h-589l-254 -479h-62zM438 532h545l-133 607q-14 67 -27 112zM784 1530q-56 0 -86.5 36t-21.5 93q9 56 51.5 93t97.5 34q55 -2 85.5 -37t21.5 -90q-9 -56 -51 -92.5
t-97 -36.5zM1124 1530q-56 0 -87.5 36t-22.5 93q9 55 52 90t99 35q53 0 84.5 -35t22.5 -90q-9 -56 -52 -92.5t-96 -36.5z" />
    <glyph glyph-name="Aring" unicode="&#xc5;" horiz-adv-x="1462" 
d="M793 1311q-27 44 -59.5 65t-88.5 21l6 37h162q128 0 194 -46.5t89 -160.5l272 -1227h-264l-107 479h-589l-254 -479h-62zM438 532h545l-133 607q-14 67 -27 112zM954 1538q-88 0 -141.5 63t-38.5 152q13 89 86.5 152t161.5 63t142.5 -63t41.5 -152q-15 -89 -89.5 -152
t-162.5 -63zM963 1593q65 0 120.5 47t65.5 113q9 66 -30.5 112t-104.5 46t-119.5 -46.5t-63.5 -111.5q-10 -66 28.5 -113t103.5 -47z" />
    <glyph glyph-name="AE" unicode="&#xc6;" horiz-adv-x="2054" 
d="M82 0l883 1434h747h60q69 1 96 1t62 -8t43 -13.5t23.5 -33.5t19 -48.5t14.5 -77.5q9 -45 14 -72h-57q-6 23 -14 62q-23 103 -49 120t-164 16h-54h-420q24 -23 31.5 -65t4.5 -79t-13 -99l-60 -369h598l-8 -53h-598l-72 -461q-19 -113 15 -157t151 -44h207h47
q50 0 70.5 -0.5t53 3.5t42 5t32 15t28 20.5t26 34.5t29.5 44t34 61q19 33 29 51h56q-10 -20 -29 -55q-72 -135 -101 -170q-40 -46 -106 -56q-40 -7 -168 -6h-57h-273q-164 0 -238 32t-89.5 109t8.5 205l33 215h-482l-342 -561h-63zM524 616h455l92 586q23 160 -74 189z" />
    <glyph glyph-name="Ccedilla" unicode="&#xc7;" horiz-adv-x="1579" 
d="M743 -422q45 0 77.5 26.5t43.5 65.5q9 49 -20.5 87.5t-106.5 49.5l129 173q-113 4 -214.5 37.5t-183.5 94.5t-136.5 149.5t-75 203t1.5 254.5q28 174 113.5 316.5t206 233t262.5 139.5t290 50q411 0 535 -311h-59q-30 68 -80 119t-108.5 78.5t-117 40.5t-116.5 12
q-255 -3 -437 -184.5t-231 -493.5q-50 -312 74 -493.5t379 -184.5q80 -1 163.5 20.5t176 80.5t159.5 149h60q-213 -300 -608 -311l-78 -101q104 -7 144.5 -60.5t31.5 -119.5q-11 -69 -64.5 -116t-119 -59.5t-132.5 8.5t-102 75l16 20q62 -49 127 -49z" />
    <glyph glyph-name="Egrave" unicode="&#xc8;" horiz-adv-x="1337" 
d="M539 0q-164 0 -238 32t-90 109t8 205l135 856q7 30 4 64t-12.5 63.5t-38.5 48.5t-74 19l7 37h757h58q168 1 200.5 -21t58.5 -155q7 -34 11 -54h-57q-4 17 -11 45q-23 99 -51 115t-173 16h-44h-420q24 -23 31.5 -65t4.5 -79t-13 -99l-60 -369h598l-8 -53h-598l-71 -461
q-19 -114 14 -157.5t151 -43.5h209h44h69.5t52.5 3t42 5.5t31 13t28.5 20t25 32t29 42l34.5 58.5q15 25 23 39h58q-85 -155 -109 -187q-41 -56 -96 -69q-42 -11 -190 -10h-56h-274zM709 1810q-46 55 -7 107q31 41 83 47q60 7 83 -46q4 -8 6 -17l91 -367h-19z" />
    <glyph glyph-name="Eacute" unicode="&#xc9;" horiz-adv-x="1337" 
d="M539 0q-164 0 -238 32t-90 109t8 205l135 856q7 30 4 64t-12.5 63.5t-38.5 48.5t-74 19l7 37h757h58q168 1 200.5 -21t58.5 -155q7 -34 11 -54h-57q-4 17 -11 45q-23 99 -51 115t-173 16h-44h-420q24 -23 31.5 -65t4.5 -79t-13 -99l-60 -369h598l-8 -53h-598l-71 -461
q-19 -114 14 -157.5t151 -43.5h209h44h69.5t52.5 3t42 5.5t31 13t28.5 20t25 32t29 42l34.5 58.5q15 25 23 39h58q-85 -155 -109 -187q-41 -56 -96 -69q-42 -11 -190 -10h-56h-274zM1049 1898q36 65 100 64q49 -1 72 -38q29 -47 -21 -100q-7 -8 -16 -16l-324 -276h-18z" />
    <glyph glyph-name="Ecircumflex" unicode="&#xca;" horiz-adv-x="1337" 
d="M539 0q-164 0 -238 32t-90 109t8 205l135 856q7 30 4 64t-12.5 63.5t-38.5 48.5t-74 19l7 37h757h58q168 1 200.5 -21t58.5 -155q7 -34 11 -54h-57q-4 17 -11 45q-23 99 -51 115t-173 16h-44h-420q24 -23 31.5 -65t4.5 -79t-13 -99l-60 -369h598l-8 -53h-598l-71 -461
q-19 -114 14 -157.5t151 -43.5h209h44h69.5t52.5 3t42 5.5t31 13t28.5 20t25 32t29 42l34.5 58.5q15 25 23 39h58q-85 -155 -109 -187q-41 -56 -96 -69q-42 -11 -190 -10h-56h-274zM842 1907q21 35 51 52.5t57.5 15.5t51 -20t32.5 -48l111 -367h-19l-200 281l-293 -281h-19z
" />
    <glyph glyph-name="Edieresis" unicode="&#xcb;" horiz-adv-x="1337" 
d="M539 0q-164 0 -238 32t-90 109t8 205l135 856q7 30 4 64t-12.5 63.5t-38.5 48.5t-74 19l7 37h757h58q168 1 200.5 -21t58.5 -155q7 -34 11 -54h-57q-4 17 -11 45q-23 99 -51 115t-173 16h-44h-420q24 -23 31.5 -65t4.5 -79t-13 -99l-60 -369h598l-8 -53h-598l-71 -461
q-19 -114 14 -157.5t151 -43.5h209h44h69.5t52.5 3t42 5.5t31 13t28.5 20t25 32t29 42l34.5 58.5q15 25 23 39h58q-85 -155 -109 -187q-41 -56 -96 -69q-42 -11 -190 -10h-56h-274zM737 1538q-56 0 -86.5 36t-21.5 93q9 56 51.5 93t97.5 34q55 -2 85.5 -37t21.5 -90
q-9 -56 -51 -92.5t-97 -36.5zM1077 1538q-56 0 -87.5 36t-22.5 93q9 55 52 90t99 35q53 0 84.5 -35t22.5 -90q-9 -56 -52 -92.5t-96 -36.5z" />
    <glyph glyph-name="Igrave" unicode="&#xcc;" horiz-adv-x="577" 
d="M354 1202q4 27 4.5 51t-5 51.5t-18.5 47t-39 32.5t-63 13l7 37h110q129 0 187 -30.5t65.5 -97.5t-10.5 -173l-180 -1133h-248zM387 1808q-45 54 -7 106q31 41 83 47q61 7 84 -46q4 -8 6 -17l88 -366h-18z" />
    <glyph glyph-name="Iacute" unicode="&#xcd;" horiz-adv-x="577" 
d="M354 1202q4 27 4.5 51t-5 51.5t-18.5 47t-39 32.5t-63 13l7 37h110q129 0 187 -30.5t65.5 -97.5t-10.5 -173l-180 -1133h-248zM565 1905q36 65 100 64q49 -1 72 -38q29 -47 -21 -100q-7 -8 -16 -16l-321 -277h-19z" />
    <glyph glyph-name="Icircumflex" unicode="&#xce;" horiz-adv-x="577" 
d="M354 1202q4 27 4.5 51t-5 51.5t-18.5 47t-39 32.5t-63 13l7 37h110q129 0 187 -30.5t65.5 -97.5t-10.5 -173l-180 -1133h-248zM494 1903q21 35 51 52.5t57.5 15.5t50.5 -20t33 -48l111 -367h-19l-203 281l-290 -281h-19z" />
    <glyph glyph-name="Idieresis" unicode="&#xcf;" horiz-adv-x="577" 
d="M354 1202q4 27 4.5 51t-5 51.5t-18.5 47t-39 32.5t-63 13l7 37h110q129 0 187 -30.5t65.5 -97.5t-10.5 -173l-180 -1133h-248zM362 1532q-55 0 -85.5 36t-22.5 93q9 56 52 93t97 34q55 -2 85.5 -37t21.5 -90q-7 -56 -50 -92.5t-98 -36.5zM702 1532q-56 0 -86.5 36
t-23.5 93q9 55 52 90t99 35q53 0 84.5 -35t22.5 -90q-7 -56 -50.5 -92.5t-97.5 -36.5z" />
    <glyph glyph-name="Eth" unicode="&#xd0;" horiz-adv-x="1589" 
d="M539 0q-162 0 -236.5 31.5t-91 106t5.5 198.5l57 364h-151l10 58h152l67 432q31 207 -108 207l6 37h637q116 0 215 -21t171 -58.5t129.5 -90t91 -115.5t54.5 -134t21 -146.5t-10 -153.5q-17 -109 -61 -211t-120.5 -194.5t-177.5 -160.5t-240.5 -108.5t-300.5 -40.5h-120z
M641 53q117 2 218 41.5t174 103t129 149.5t89 179t49 193q11 72 12.5 140t-8.5 134.5t-31.5 123.5t-59 106t-87.5 83.5t-120.5 54t-155.5 19.5h-277q32 -30 33.5 -97t-12.5 -132l-62 -393h183l-10 -58h-183l-69 -446q-14 -73 -5.5 -117.5t46 -64t116.5 -19.5h31z" />
    <glyph glyph-name="Ntilde" unicode="&#xd1;" horiz-adv-x="1441" 
d="M373 1325q-46 72 -140 72l7 37h151q132 0 192.5 -28t104.5 -118l567 -1091l197 1237h55l-209 -1323q46 -72 138 -72l-6 -39h-152q-130 0 -191 27.5t-106 117.5l-565 1092l-197 -1237h-55zM1194 1546q-72 0 -211 49.5t-186 49.5q-53 0 -81.5 -17t-35.5 -59h-27
q14 128 63.5 178.5t125.5 50.5q70 0 208 -49t189 -49q106 0 117 76h26q-11 -116 -63 -173t-125 -57z" />
    <glyph glyph-name="Ograve" unicode="&#xd2;" horiz-adv-x="1849" 
d="M901 -20q-159 0 -290.5 52t-219 146t-124 234t-9.5 307q26 167 107.5 306t198.5 232.5t264.5 145t306.5 51.5q161 0 292 -51.5t218 -145t123 -232.5t10 -306q-36 -223 -163.5 -392.5t-313 -258t-400.5 -88.5zM915 33q248 0 404 177.5t209 508.5q51 330 -49.5 506
t-348.5 176q-250 0 -406.5 -176t-207.5 -506q-53 -330 48 -508t351 -178zM1042 1812q-45 54 -7 107q31 41 83 47q61 7 84 -46q4 -8 6 -17l90 -367h-18z" />
    <glyph glyph-name="Oacute" unicode="&#xd3;" horiz-adv-x="1849" 
d="M901 -20q-159 0 -290.5 52t-219 146t-124 234t-9.5 307q26 167 107.5 306t198.5 232.5t264.5 145t306.5 51.5q161 0 292 -51.5t218 -145t123 -232.5t10 -306q-36 -223 -163.5 -392.5t-313 -258t-400.5 -88.5zM915 33q248 0 404 177.5t209 508.5q51 330 -49.5 506
t-348.5 176q-250 0 -406.5 -176t-207.5 -506q-53 -330 48 -508t351 -178zM1249 1882q36 65 98 64q49 -1 73 -38q29 -47 -21 -101q-7 -8 -15 -15l-323 -276h-19z" />
    <glyph glyph-name="Ocircumflex" unicode="&#xd4;" horiz-adv-x="1849" 
d="M901 -20q-159 0 -290.5 52t-219 146t-124 234t-9.5 307q26 167 107.5 306t198.5 232.5t264.5 145t306.5 51.5q161 0 292 -51.5t218 -145t123 -232.5t10 -306q-36 -223 -163.5 -392.5t-313 -258t-400.5 -88.5zM915 33q248 0 404 177.5t209 508.5q51 330 -49.5 506
t-348.5 176q-250 0 -406.5 -176t-207.5 -506q-53 -330 48 -508t351 -178zM1135 1903q21 35 51 52.5t57.5 15.5t50.5 -20t33 -48l111 -367h-19l-202 281l-291 -281h-19z" />
    <glyph glyph-name="Otilde" unicode="&#xd5;" horiz-adv-x="1849" 
d="M901 -20q-159 0 -290.5 52t-219 146t-124 234t-9.5 307q26 167 107.5 306t198.5 232.5t264.5 145t306.5 51.5q161 0 292 -51.5t218 -145t123 -232.5t10 -306q-36 -223 -163.5 -392.5t-313 -258t-400.5 -88.5zM915 33q248 0 404 177.5t209 508.5q51 330 -49.5 506
t-348.5 176q-250 0 -406.5 -176t-207.5 -506q-53 -330 48 -508t351 -178zM1380 1554q-72 0 -210 49.5t-185 49.5q-53 0 -81.5 -17t-35.5 -59h-26q13 128 62.5 178.5t125.5 50.5q70 0 208 -49t189 -49q106 0 117 76h27q-13 -116 -65.5 -173t-125.5 -57z" />
    <glyph glyph-name="Odieresis" unicode="&#xd6;" horiz-adv-x="1849" 
d="M901 -20q-159 0 -290.5 52t-219 146t-124 234t-9.5 307q26 167 107.5 306t198.5 232.5t264.5 145t306.5 51.5q161 0 292 -51.5t218 -145t123 -232.5t10 -306q-36 -223 -163.5 -392.5t-313 -258t-400.5 -88.5zM915 33q248 0 404 177.5t209 508.5q51 330 -49.5 506
t-348.5 176q-250 0 -406.5 -176t-207.5 -506q-53 -330 48 -508t351 -178zM991 1530q-56 0 -86.5 36t-21.5 93q9 56 51.5 93t97.5 34q55 -2 85.5 -37t21.5 -90q-9 -56 -51 -92.5t-97 -36.5zM1331 1530q-56 0 -87.5 36t-22.5 93q9 55 52 90t99 35q53 0 84.5 -35t22.5 -90
q-9 -56 -52 -92.5t-96 -36.5z" />
    <glyph glyph-name="multiply" unicode="&#xd7;" horiz-adv-x="866" 
d="M807 360l-254 302l-332 -287l-51 57l334 287l-228 272l64 58l229 -273l332 287l49 -57l-332 -287l252 -301z" />
    <glyph glyph-name="Oslash" unicode="&#xd8;" horiz-adv-x="1806" 
d="M901 -20q-259 0 -434 133l-107 -113h-57l131 137q-111 100 -158.5 249t-17.5 333q26 167 107.5 306t198.5 232.5t264.5 145t306.5 51.5q258 0 430 -125l98 105h59l-125 -131q113 -98 161.5 -247t19.5 -337q-36 -223 -163.5 -392.5t-313 -258t-400.5 -88.5zM915 33
q248 0 404 177.5t209 508.5q46 297 -33 475l-934 -981q105 -180 354 -180zM1475 1235q-104 166 -345 166q-250 0 -406.5 -176t-207.5 -506q-47 -294 27 -467z" />
    <glyph glyph-name="Ugrave" unicode="&#xd9;" horiz-adv-x="1449" 
d="M748 -20q-79 0 -148 13t-132 41.5t-108.5 73.5t-77.5 109.5t-38.5 149.5t8.5 192l102 643q4 27 4.5 51t-5 51.5t-18.5 47t-39 32.5t-63 13l7 37h110q129 0 187 -30.5t65.5 -97.5t-10.5 -173l-96 -596q-19 -111 -9.5 -194t34.5 -140t71.5 -92t100.5 -50.5t122 -15.5
q191 -2 327 132.5t179 402.5l135 854h57l-133 -840q-50 -313 -214 -464.5t-418 -149.5zM809 1817q-45 54 -7 106q31 41 83 47q61 7 84 -46q4 -8 6 -17l90 -367h-18z" />
    <glyph glyph-name="Uacute" unicode="&#xda;" horiz-adv-x="1449" 
d="M748 -20q-79 0 -148 13t-132 41.5t-108.5 73.5t-77.5 109.5t-38.5 149.5t8.5 192l102 643q4 27 4.5 51t-5 51.5t-18.5 47t-39 32.5t-63 13l7 37h110q129 0 187 -30.5t65.5 -97.5t-10.5 -173l-96 -596q-19 -111 -9.5 -194t34.5 -140t71.5 -92t100.5 -50.5t122 -15.5
q191 -2 327 132.5t179 402.5l135 854h57l-133 -840q-50 -313 -214 -464.5t-418 -149.5zM1159 1896q36 65 99 64q49 -1 72 -38q30 -47 -20 -100q-7 -8 -16 -16l-323 -276h-19z" />
    <glyph glyph-name="Ucircumflex" unicode="&#xdb;" horiz-adv-x="1449" 
d="M748 -20q-79 0 -148 13t-132 41.5t-108.5 73.5t-77.5 109.5t-38.5 149.5t8.5 192l102 643q4 27 4.5 51t-5 51.5t-18.5 47t-39 32.5t-63 13l7 37h110q129 0 187 -30.5t65.5 -97.5t-10.5 -173l-96 -596q-19 -111 -9.5 -194t34.5 -140t71.5 -92t100.5 -50.5t122 -15.5
q191 -2 327 132.5t179 402.5l135 854h57l-133 -840q-50 -313 -214 -464.5t-418 -149.5zM1012 1905q21 35 51 52.5t57.5 15.5t51 -20t32.5 -48l111 -367h-19l-200 281l-293 -281h-19z" />
    <glyph glyph-name="Udieresis" unicode="&#xdc;" horiz-adv-x="1449" 
d="M748 -20q-79 0 -148 13t-132 41.5t-108.5 73.5t-77.5 109.5t-38.5 149.5t8.5 192l102 643q4 27 4.5 51t-5 51.5t-18.5 47t-39 32.5t-63 13l7 37h110q129 0 187 -30.5t65.5 -97.5t-10.5 -173l-96 -596q-19 -111 -9.5 -194t34.5 -140t71.5 -92t100.5 -50.5t122 -15.5
q191 -2 327 132.5t179 402.5l135 854h57l-133 -840q-50 -313 -214 -464.5t-418 -149.5zM862 1524q-56 0 -86.5 36t-21.5 93q9 56 51.5 93t97.5 34q54 -2 85 -37.5t22 -89.5q-9 -56 -51 -92.5t-97 -36.5zM1202 1524q-56 0 -87.5 36t-22.5 93q9 55 51 90t98 35q54 0 86 -35.5
t23 -89.5q-9 -56 -52 -92.5t-96 -36.5z" />
    <glyph glyph-name="Yacute" unicode="&#xdd;" horiz-adv-x="1421" 
d="M584 0l96 606l-252 588q-44 98 -65 128q-53 75 -136 75l6 37h222q57 0 94.5 -10.5t62 -35.5t40 -52.5t35.5 -74.5q6 -15 9 -22l213 -510l570 705h67l-610 -758l-107 -676h-245zM1143 1907q36 65 100 64q49 -1 72 -38q29 -47 -21 -100q-7 -8 -16 -16l-322 -277h-18z" />
    <glyph glyph-name="Thorn" unicode="&#xde;" horiz-adv-x="1460" 
d="M354 1202q4 27 4.5 51t-5 51.5t-18.5 47t-39 32.5t-63 13l7 37h110q123 0 181 -27t70 -87.5t-5 -158.5l-10 -65h338q156 0 264 -29t163.5 -82t74 -120t4.5 -150q-10 -63 -36 -117t-75.5 -103t-118.5 -83.5t-170.5 -55t-226.5 -20.5h-338l-53 -336h-248zM764 391
q185 0 284.5 86.5t122.5 237.5q25 153 -47.5 239t-257.5 86h-291l-102 -649h291z" />
    <glyph glyph-name="germandbls" unicode="&#xdf;" horiz-adv-x="1349" 
d="M842 -20q-138 0 -245 52t-142 152h53q31 -73 124 -114t202 -41q118 0 205 46.5t96 131.5q5 43 -27 78.5t-86.5 61t-121.5 50.5t-132 55.5t-117.5 67.5t-79.5 94.5t-16 128.5q15 92 87 162.5t169 104.5t201 34q123 0 202 -43l7 35q32 178 -52.5 281.5t-246.5 103.5
q-90 -1 -161.5 -33t-120.5 -91.5t-80.5 -138.5t-47.5 -179l-156 -979h-243l147 932q37 236 218 385t429 149q200 0 296 -117t61 -335l-15 -96q-35 37 -96.5 56t-130.5 19q-109 0 -189 -43t-90 -121q-4 -42 28.5 -77t87.5 -60.5t121 -51.5t131 -57.5t116.5 -70t78.5 -97
t15 -130.5q-16 -97 -90.5 -168t-175.5 -104t-213 -33z" />
    <glyph glyph-name="agrave" unicode="&#xe0;" horiz-adv-x="1286" 
d="M457 -20q-150 0 -243 73.5t-73 192.5q12 73 56.5 123.5t109.5 76t141.5 41t156 23.5t149.5 17.5t127 30.5t82 54q15 84 5.5 146.5t-31 105t-60.5 68t-82.5 36.5t-96.5 11q-96 0 -183 -34.5t-150 -100.5h-50q77 97 207.5 148.5t278.5 51.5q74 0 139.5 -15.5t121 -49.5
t92 -83t51.5 -121t1 -159l-61 -383q-28 -194 117 -194l-7 -39h-104q-138 0 -192.5 34t-57.5 124q-93 -87 -208 -132.5t-236 -45.5zM565 59q84 0 171.5 40.5t162.5 113.5l53 330q-35 -27 -105.5 -44t-141 -29t-139.5 -31.5t-118.5 -64.5t-60.5 -116q-14 -95 37 -147t141 -52z
M623 1421q-46 55 -7 107q31 41 83 46q60 7 83 -46q4 -8 6 -17l91 -366h-19z" />
    <glyph glyph-name="aacute" unicode="&#xe1;" horiz-adv-x="1286" 
d="M457 -20q-150 0 -243 73.5t-73 192.5q12 73 56.5 123.5t109.5 76t141.5 41t156 23.5t149.5 17.5t127 30.5t82 54q15 84 5.5 146.5t-31 105t-60.5 68t-82.5 36.5t-96.5 11q-96 0 -183 -34.5t-150 -100.5h-50q77 97 207.5 148.5t278.5 51.5q74 0 139.5 -15.5t121 -49.5
t92 -83t51.5 -121t1 -159l-61 -383q-28 -194 117 -194l-7 -39h-104q-138 0 -192.5 34t-57.5 124q-93 -87 -208 -132.5t-236 -45.5zM565 59q84 0 171.5 40.5t162.5 113.5l53 330q-35 -27 -105.5 -44t-141 -29t-139.5 -31.5t-118.5 -64.5t-60.5 -116q-14 -95 37 -147t141 -52z
M963 1516q36 65 100 64q48 -1 72 -38q29 -47 -20 -100q-7 -9 -17 -17l-322 -276h-18z" />
    <glyph glyph-name="acircumflex" unicode="&#xe2;" horiz-adv-x="1286" 
d="M457 -20q-150 0 -243 73.5t-73 192.5q12 73 56.5 123.5t109.5 76t141.5 41t156 23.5t149.5 17.5t127 30.5t82 54q15 84 5.5 146.5t-31 105t-60.5 68t-82.5 36.5t-96.5 11q-96 0 -183 -34.5t-150 -100.5h-50q77 97 207.5 148.5t278.5 51.5q74 0 139.5 -15.5t121 -49.5
t92 -83t51.5 -121t1 -159l-61 -383q-28 -194 117 -194l-7 -39h-104q-138 0 -192.5 34t-57.5 124q-93 -87 -208 -132.5t-236 -45.5zM565 59q84 0 171.5 40.5t162.5 113.5l53 330q-35 -27 -105.5 -44t-141 -29t-139.5 -31.5t-118.5 -64.5t-60.5 -116q-14 -95 37 -147t141 -52z
M776 1511q20 35 50 52.5t58 15.5t51.5 -20t33.5 -48l110 -366h-18l-203 280l-291 -280h-18z" />
    <glyph glyph-name="atilde" unicode="&#xe3;" horiz-adv-x="1286" 
d="M457 -20q-150 0 -243 73.5t-73 192.5q12 73 56.5 123.5t109.5 76t141.5 41t156 23.5t149.5 17.5t127 30.5t82 54q15 84 5.5 146.5t-31 105t-60.5 68t-82.5 36.5t-96.5 11q-96 0 -183 -34.5t-150 -100.5h-50q77 97 207.5 148.5t278.5 51.5q74 0 139.5 -15.5t121 -49.5
t92 -83t51.5 -121t1 -159l-61 -383q-28 -194 117 -194l-7 -39h-104q-138 0 -192.5 34t-57.5 124q-93 -87 -208 -132.5t-236 -45.5zM565 59q84 0 171.5 40.5t162.5 113.5l53 330q-35 -27 -105.5 -44t-141 -29t-139.5 -31.5t-118.5 -64.5t-60.5 -116q-14 -95 37 -147t141 -52z
M1016 1161q-72 0 -211.5 49.5t-186.5 49.5q-52 0 -80 -17t-34 -59h-27q13 128 62 178.5t125 50.5q69 0 208.5 -49t190.5 -49q104 0 117 76h26q-13 -116 -65 -173t-125 -57z" />
    <glyph glyph-name="adieresis" unicode="&#xe4;" horiz-adv-x="1286" 
d="M457 -20q-150 0 -243 73.5t-73 192.5q12 73 56.5 123.5t109.5 76t141.5 41t156 23.5t149.5 17.5t127 30.5t82 54q15 84 5.5 146.5t-31 105t-60.5 68t-82.5 36.5t-96.5 11q-96 0 -183 -34.5t-150 -100.5h-50q77 97 207.5 148.5t278.5 51.5q74 0 139.5 -15.5t121 -49.5
t92 -83t51.5 -121t1 -159l-61 -383q-28 -194 117 -194l-7 -39h-104q-138 0 -192.5 34t-57.5 124q-93 -87 -208 -132.5t-236 -45.5zM565 59q84 0 171.5 40.5t162.5 113.5l53 330q-35 -27 -105.5 -44t-141 -29t-139.5 -31.5t-118.5 -64.5t-60.5 -116q-14 -95 37 -147t141 -52z
M659 1145q-56 0 -86.5 36t-21.5 93q8 56 50.5 93t96.5 34q55 -2 85.5 -37t23.5 -90q-9 -56 -51 -92.5t-97 -36.5zM999 1145q-56 0 -87.5 36t-22.5 93q7 55 50 90t99 35q53 0 84.5 -35t24.5 -90q-9 -56 -52 -92.5t-96 -36.5z" />
    <glyph glyph-name="aring" unicode="&#xe5;" horiz-adv-x="1286" 
d="M457 -20q-150 0 -243 73.5t-73 192.5q12 73 56.5 123.5t109.5 76t141.5 41t156 23.5t149.5 17.5t127 30.5t82 54q15 84 5.5 146.5t-31 105t-60.5 68t-82.5 36.5t-96.5 11q-96 0 -183 -34.5t-150 -100.5h-50q77 97 207.5 148.5t278.5 51.5q74 0 139.5 -15.5t121 -49.5
t92 -83t51.5 -121t1 -159l-61 -383q-28 -194 117 -194l-7 -39h-104q-138 0 -192.5 34t-57.5 124q-93 -87 -208 -132.5t-236 -45.5zM565 59q84 0 171.5 40.5t162.5 113.5l53 330q-35 -27 -105.5 -44t-141 -29t-139.5 -31.5t-118.5 -64.5t-60.5 -116q-14 -95 37 -147t141 -52z
M803 1149q-88 0 -141.5 63t-40.5 152q15 89 88 152t161 63t143 -63t40 -152q-13 -89 -87.5 -152t-162.5 -63zM811 1204q65 0 120 47.5t64 112.5q10 66 -29 112t-104 46t-119.5 -46t-64.5 -112q-9 -66 30 -113t103 -47z" />
    <glyph glyph-name="ae" unicode="&#xe6;" horiz-adv-x="2052" 
d="M496 -20q-78 1 -144 20.5t-116.5 59t-73 106t-8.5 153.5q40 250 348 310q90 17 219 19t240 -3q35 337 -248 340q-104 0 -193 -40.5t-143 -117.5h-58q76 108 195 162.5t262 54.5q129 0 223.5 -46.5t139.5 -135.5q85 86 203.5 134t254.5 48q101 1 185.5 -26t147.5 -80.5
t94 -141.5t22 -202h-834q-12 -39 -18 -82q-35 -216 50.5 -340t271.5 -129q121 -3 231.5 56t165.5 151h55q-87 -126 -224.5 -198t-305.5 -72q-160 0 -275.5 59.5t-175.5 165.5q-210 -225 -491 -225zM598 47q99 0 198 53.5t173 143.5q-48 118 -27 268l12 84q-23 0 -76.5 0.5
t-77 0.5t-66 -1.5t-67.5 -5t-55.5 -10t-54.5 -15.5q-81 -30 -127 -87.5t-61 -153.5q-21 -130 45 -203.5t184 -73.5zM1810 645q8 163 -49 255.5t-172 92.5q-119 0 -217.5 -97t-146.5 -251h585z" />
    <glyph glyph-name="ccedilla" unicode="&#xe7;" horiz-adv-x="1187" 
d="M522 -426q45 0 76.5 26.5t42.5 65.5q10 48 -19 87t-106 50l131 177q-245 6 -372.5 154t-90.5 378q37 234 218 383.5t432 148.5q147 0 243 -54.5t144 -147.5h-54q-43 75 -118.5 111t-169.5 34q-166 -3 -287.5 -134t-153.5 -341q-34 -210 46 -341t245 -132q92 -3 179.5 33
t154.5 110h53q-158 -186 -411 -200l-87 -107q105 -7 146.5 -60.5t30.5 -119.5q-10 -69 -63.5 -116t-119 -59.5t-132.5 8.5t-103 75l18 20q62 -49 127 -49z" />
    <glyph glyph-name="egrave" unicode="&#xe8;" horiz-adv-x="1294" 
d="M678 -20q-258 0 -395 148.5t-99 383.5q37 236 219.5 384.5t436.5 147.5q102 1 186 -26t146.5 -80.5t93 -141.5t20.5 -202h-831q-10 -33 -17 -82q-35 -215 54 -339.5t276 -129.5q121 -3 231.5 56t165.5 151h56q-89 -128 -227.5 -199t-315.5 -71zM1051 645
q11 161 -47 254.5t-173 93.5q-124 0 -224.5 -106.5t-149.5 -274.5zM723 1427q-45 54 -7 107q31 41 83 47q61 7 84 -46q4 -8 6 -17l90 -367h-18z" />
    <glyph glyph-name="eacute" unicode="&#xe9;" horiz-adv-x="1294" 
d="M678 -20q-258 0 -395 148.5t-99 383.5q37 236 219.5 384.5t436.5 147.5q102 1 186 -26t146.5 -80.5t93 -141.5t20.5 -202h-831q-10 -33 -17 -82q-35 -215 54 -339.5t276 -129.5q121 -3 231.5 56t165.5 151h56q-89 -128 -227.5 -199t-315.5 -71zM1051 645
q11 161 -47 254.5t-173 93.5q-124 0 -224.5 -106.5t-149.5 -274.5zM946 1509q36 65 99 64q49 -1 72 -38q30 -47 -20 -100q-7 -8 -16 -16l-323 -276h-19z" />
    <glyph glyph-name="ecircumflex" unicode="&#xea;" horiz-adv-x="1294" 
d="M678 -20q-258 0 -395 148.5t-99 383.5q37 236 219.5 384.5t436.5 147.5q102 1 186 -26t146.5 -80.5t93 -141.5t20.5 -202h-831q-10 -33 -17 -82q-35 -215 54 -339.5t276 -129.5q121 -3 231.5 56t165.5 151h56q-89 -128 -227.5 -199t-315.5 -71zM1051 645
q11 161 -47 254.5t-173 93.5q-124 0 -224.5 -106.5t-149.5 -274.5zM811 1507q20 35 50 52.5t58 15.5t51.5 -20t33.5 -48l108 -366h-18l-201 280l-293 -280h-18z" />
    <glyph glyph-name="edieresis" unicode="&#xeb;" horiz-adv-x="1294" 
d="M678 -20q-258 0 -395 148.5t-99 383.5q37 236 219.5 384.5t436.5 147.5q102 1 186 -26t146.5 -80.5t93 -141.5t20.5 -202h-831q-10 -33 -17 -82q-35 -215 54 -339.5t276 -129.5q121 -3 231.5 56t165.5 151h56q-89 -128 -227.5 -199t-315.5 -71zM1051 645
q11 161 -47 254.5t-173 93.5q-124 0 -224.5 -106.5t-149.5 -274.5zM686 1141q-56 0 -86.5 36t-21.5 93q9 56 51.5 93t97.5 34q55 -2 85.5 -37t21.5 -90q-9 -56 -51 -92.5t-97 -36.5zM1026 1141q-56 0 -88 36.5t-23 92.5q9 55 52.5 90t99.5 35q53 0 84.5 -35t22.5 -90
q-9 -56 -52 -92.5t-96 -36.5z" />
    <glyph glyph-name="igrave" unicode="&#xec;" horiz-adv-x="559" 
d="M309 793q7 30 4 64t-12.5 63t-39 48t-75.5 19l7 37h110q128 0 185 -30t64.5 -96.5t-11.5 -174.5l-115 -723h-242zM248 1427q-45 54 -7 107q31 41 83 47q61 7 84 -46q4 -8 6 -17l90 -367h-19z" />
    <glyph glyph-name="iacute" unicode="&#xed;" horiz-adv-x="559" 
d="M309 793q7 30 4 64t-12.5 63t-39 48t-75.5 19l7 37h110q128 0 185 -30t64.5 -96.5t-11.5 -174.5l-115 -723h-242zM477 1516q36 65 100 64q48 -1 72 -38q29 -47 -20 -100q-7 -9 -17 -17l-321 -276h-19z" />
    <glyph glyph-name="icircumflex" unicode="&#xee;" horiz-adv-x="559" 
d="M309 793q7 30 4 64t-12.5 63t-39 48t-75.5 19l7 37h110q128 0 185 -30t64.5 -96.5t-11.5 -174.5l-115 -723h-242zM389 1513q28 47 69 61.5t76 -3t48 -58.5l110 -366h-18l-203 280l-291 -280h-18z" />
    <glyph glyph-name="idieresis" unicode="&#xef;" horiz-adv-x="559" 
d="M309 793q7 30 4 64t-12.5 63t-39 48t-75.5 19l7 37h110q128 0 185 -30t64.5 -96.5t-11.5 -174.5l-115 -723h-242zM276 1145q-56 0 -86.5 36t-21.5 93q8 56 50.5 93t96.5 34q55 -2 85.5 -37t23.5 -90q-9 -56 -51 -92.5t-97 -36.5zM616 1145q-56 0 -87.5 36t-22.5 93
q7 55 50 90t99 35q53 0 84.5 -35t24.5 -90q-9 -56 -52 -92.5t-96 -36.5z" />
    <glyph glyph-name="eth" unicode="&#xf0;" horiz-adv-x="1236" 
d="M612 -20q-74 0 -137 15.5t-109 43t-83.5 65.5t-59 83t-35.5 95t-14 102.5t6 104.5q34 219 192 360.5t382 141.5q169 0 254 -123q-9 224 -123 385l-156 -82l-16 37l147 78q-104 129 -256 150l6 39q207 -12 365 -129l170 90l14 -35l-151 -82q136 -116 197 -295.5t28 -396.5
q-17 -122 -68 -236t-128 -206.5t-188 -148.5t-237 -56zM621 29q134 0 233.5 159.5t140.5 417.5q13 86 13 166q-30 79 -94 121.5t-142 42.5q-131 0 -224 -127.5t-122 -323.5q-17 -133 -6 -234.5t63 -161.5t138 -60z" />
    <glyph glyph-name="ntilde" unicode="&#xf1;" horiz-adv-x="1310" 
d="M309 793q7 30 4 64t-12.5 63t-39 48t-75.5 19l7 37h110q137 0 192 -33t56 -125q204 178 442 178q349 0 291 -372l-106 -672h-242l100 633q10 62 13.5 105.5t-1 89.5t-20.5 73.5t-50 45.5t-85 18q-83 0 -173.5 -37.5t-164.5 -108.5l-129 -819h-242zM1042 1153
q-72 0 -210 49t-185 49q-53 0 -81.5 -16.5t-35.5 -58.5h-26q13 128 62.5 178.5t125.5 50.5q70 0 208 -49t190 -49q103 0 116 75h27q-13 -116 -65.5 -172.5t-125.5 -56.5z" />
    <glyph glyph-name="ograve" unicode="&#xf2;" horiz-adv-x="1368" 
d="M680 -20q-255 0 -395 144.5t-101 387.5q38 243 224 387.5t442 144.5q125 0 226 -37t167.5 -105t95 -168.5t9.5 -221.5q-39 -243 -226 -387.5t-442 -144.5zM690 33q81 0 151.5 39.5t121 106.5t85 152t50.5 181q17 94 7.5 181t-37.5 153t-86.5 105.5t-139.5 39.5t-151 -39
t-120 -106t-84 -152.5t-49 -181.5q-11 -76 -11 -146t18 -130.5t48.5 -105.5t81 -71t115.5 -26zM696 1423q-45 54 -7 106q31 41 83 47q61 7 84 -46q4 -8 6 -17l90 -366h-18z" />
    <glyph glyph-name="oacute" unicode="&#xf3;" horiz-adv-x="1368" 
d="M680 -20q-255 0 -395 144.5t-101 387.5q38 243 224 387.5t442 144.5q125 0 226 -37t167.5 -105t95 -168.5t9.5 -221.5q-39 -243 -226 -387.5t-442 -144.5zM690 33q81 0 151.5 39.5t121 106.5t85 152t50.5 181q17 94 7.5 181t-37.5 153t-86.5 105.5t-139.5 39.5t-151 -39
t-120 -106t-84 -152.5t-49 -181.5q-11 -76 -11 -146t18 -130.5t48.5 -105.5t81 -71t115.5 -26zM989 1509q36 65 99 64q49 -1 72 -38q30 -47 -20 -100q-7 -8 -16 -16l-323 -276h-19z" />
    <glyph glyph-name="ocircumflex" unicode="&#xf4;" horiz-adv-x="1368" 
d="M680 -20q-255 0 -395 144.5t-101 387.5q38 243 224 387.5t442 144.5q125 0 226 -37t167.5 -105t95 -168.5t9.5 -221.5q-39 -243 -226 -387.5t-442 -144.5zM690 33q81 0 151.5 39.5t121 106.5t85 152t50.5 181q17 94 7.5 181t-37.5 153t-86.5 105.5t-139.5 39.5t-151 -39
t-120 -106t-84 -152.5t-49 -181.5q-11 -76 -11 -146t18 -130.5t48.5 -105.5t81 -71t115.5 -26zM819 1518q21 35 51.5 52.5t58 15.5t51 -20t32.5 -48l110 -367h-18l-201 281l-293 -281h-18z" />
    <glyph glyph-name="otilde" unicode="&#xf5;" horiz-adv-x="1368" 
d="M680 -20q-255 0 -395 144.5t-101 387.5q38 243 224 387.5t442 144.5q125 0 226 -37t167.5 -105t95 -168.5t9.5 -221.5q-39 -243 -226 -387.5t-442 -144.5zM690 33q81 0 151.5 39.5t121 106.5t85 152t50.5 181q17 94 7.5 181t-37.5 153t-86.5 105.5t-139.5 39.5t-151 -39
t-120 -106t-84 -152.5t-49 -181.5q-11 -76 -11 -146t18 -130.5t48.5 -105.5t81 -71t115.5 -26zM1061 1149q-72 0 -211 49t-186 49q-53 0 -81 -17t-34 -59h-27q13 128 62 179t125 51q69 0 208 -49t191 -49q104 0 117 75h26q-13 -116 -65 -172.5t-125 -56.5z" />
    <glyph glyph-name="odieresis" unicode="&#xf6;" horiz-adv-x="1368" 
d="M680 -20q-255 0 -395 144.5t-101 387.5q38 243 224 387.5t442 144.5q125 0 226 -37t167.5 -105t95 -168.5t9.5 -221.5q-39 -243 -226 -387.5t-442 -144.5zM690 33q81 0 151.5 39.5t121 106.5t85 152t50.5 181q17 94 7.5 181t-37.5 153t-86.5 105.5t-139.5 39.5t-151 -39
t-120 -106t-84 -152.5t-49 -181.5q-11 -76 -11 -146t18 -130.5t48.5 -105.5t81 -71t115.5 -26zM698 1147q-56 0 -86.5 36t-21.5 93q8 56 50.5 93t96.5 34q55 -2 85.5 -37t23.5 -90q-9 -56 -51 -92.5t-97 -36.5zM1038 1147q-56 0 -87.5 36t-22.5 93q7 55 50 90t99 35
q53 0 84.5 -35t24.5 -90q-9 -56 -52 -92.5t-96 -36.5z" />
    <glyph glyph-name="divide" unicode="&#xf7;" horiz-adv-x="1054" 
d="M211 688l12 80h891l-12 -80h-891zM586 283q-51 0 -79.5 33.5t-21.5 84.5q8 48 47.5 81.5t90.5 33.5q49 0 76.5 -33.5t19.5 -81.5q-7 -51 -45 -84.5t-88 -33.5zM688 928q-51 0 -79.5 33t-20.5 81q7 51 46.5 84t90.5 33q49 0 76.5 -33t19.5 -84q-8 -48 -46 -81t-87 -33z
" />
    <glyph glyph-name="oslash" unicode="&#xf8;" horiz-adv-x="1368" 
d="M229 -12l99 98q-90 71 -128.5 180t-15.5 246q38 243 224 387.5t442 144.5q195 0 328 -88l75 78h62l-103 -104q85 -71 121 -177.5t15 -240.5q-39 -243 -226 -387.5t-442 -144.5q-190 0 -320 83l-73 -75h-58zM690 33q81 0 151.5 39.5t121 106.5t85 152t50.5 181
q26 170 -13 289l-618 -629q71 -139 223 -139zM438 512q-28 -172 15 -297l614 631q-68 145 -225 145q-81 0 -151 -39t-120 -106t-84 -152.5t-49 -181.5z" />
    <glyph glyph-name="ugrave" unicode="&#xf9;" horiz-adv-x="1310" 
d="M530 -20q-348 0 -290 374l69 439q7 30 4 64t-12.5 63t-39 48t-75.5 19l7 37h110q128 0 185 -30t64.5 -96.5t-11.5 -174.5l-54 -332q-8 -50 -11.5 -87.5t-3 -78t10 -68.5t26.5 -51.5t48 -35t74 -11.5q84 0 173 38t165 110l92 586q7 30 4 64t-12.5 63t-39 48t-75.5 19l6 37
h111q128 0 185 -30t64 -96.5t-12 -174.5l-114 -723h-234l25 156q-97 -84 -212 -130t-227 -46zM614 1421q-45 54 -7 106q31 41 83 47q61 7 84 -46q4 -8 6 -17l90 -366h-18z" />
    <glyph glyph-name="uacute" unicode="&#xfa;" horiz-adv-x="1310" 
d="M530 -20q-348 0 -290 374l69 439q7 30 4 64t-12.5 63t-39 48t-75.5 19l7 37h110q128 0 185 -30t64.5 -96.5t-11.5 -174.5l-54 -332q-8 -50 -11.5 -87.5t-3 -78t10 -68.5t26.5 -51.5t48 -35t74 -11.5q84 0 173 38t165 110l92 586q7 30 4 64t-12.5 63t-39 48t-75.5 19l6 37
h111q128 0 185 -30t64 -96.5t-12 -174.5l-114 -723h-234l25 156q-97 -84 -212 -130t-227 -46zM965 1513q36 65 100 64q49 -1 72 -38q29 -47 -21 -100q-7 -8 -16 -16l-322 -276h-18z" />
    <glyph glyph-name="ucircumflex" unicode="&#xfb;" horiz-adv-x="1310" 
d="M530 -20q-348 0 -290 374l69 439q7 30 4 64t-12.5 63t-39 48t-75.5 19l7 37h110q128 0 185 -30t64.5 -96.5t-11.5 -174.5l-54 -332q-8 -50 -11.5 -87.5t-3 -78t10 -68.5t26.5 -51.5t48 -35t74 -11.5q84 0 173 38t165 110l92 586q7 30 4 64t-12.5 63t-39 48t-75.5 19l6 37
h111q128 0 185 -30t64 -96.5t-12 -174.5l-114 -723h-234l25 156q-97 -84 -212 -130t-227 -46zM791 1518q21 35 51 52.5t57.5 15.5t51 -20t32.5 -48l111 -367h-19l-201 281l-292 -281h-19z" />
    <glyph glyph-name="udieresis" unicode="&#xfc;" horiz-adv-x="1310" 
d="M530 -20q-348 0 -290 374l69 439q7 30 4 64t-12.5 63t-39 48t-75.5 19l7 37h110q128 0 185 -30t64.5 -96.5t-11.5 -174.5l-54 -332q-8 -50 -11.5 -87.5t-3 -78t10 -68.5t26.5 -51.5t48 -35t74 -11.5q84 0 173 38t165 110l92 586q7 30 4 64t-12.5 63t-39 48t-75.5 19l6 37
h111q128 0 185 -30t64 -96.5t-12 -174.5l-114 -723h-234l25 156q-97 -84 -212 -130t-227 -46zM666 1141q-56 0 -87 36t-22 93q9 56 52 93t98 34q55 -2 85 -37t21 -90q-9 -57 -51 -93t-96 -36zM1006 1141q-56 0 -88 36.5t-23 92.5q9 55 52.5 90t99.5 35q53 0 84 -35t22 -90
q-9 -56 -51.5 -92.5t-95.5 -36.5z" />
    <glyph glyph-name="yacute" unicode="&#xfd;" horiz-adv-x="1206" 
d="M319 -512l281 479l-240 799q-13 46 -20.5 69.5t-23 57.5t-32 51t-43.5 30t-61 13l6 37h195q59 -1 96 -11t63.5 -37t41.5 -60.5t34 -94.5l154 -565l447 768h59l-895 -1536h-62zM989 1511q36 65 100 64q49 -1 72 -38q29 -47 -21 -100q-7 -8 -16 -16l-321 -276h-19z" />
    <glyph glyph-name="thorn" unicode="&#xfe;" horiz-adv-x="1370" 
d="M383 1251q7 31 4 65t-12.5 63.5t-39 48.5t-75.5 20l6 39h111q128 0 184.5 -30.5t63.5 -97.5t-11 -175l-51 -312q72 80 171 126t206 46q216 0 331.5 -147.5t78.5 -384.5q-38 -235 -201 -383.5t-379 -148.5q-105 0 -189.5 47.5t-129.5 122.5l-115 -723h-242zM711 53
q140 0 249 132t140 327q20 126 -2 229.5t-85 166.5t-157 63q-92 0 -173 -59t-138 -167l-74 -466q22 -104 86 -165t154 -61z" />
    <glyph glyph-name="ydieresis" unicode="&#xff;" horiz-adv-x="1206" 
d="M319 -512l281 479l-240 799q-13 46 -20.5 69.5t-23 57.5t-32 51t-43.5 30t-61 13l6 37h195q59 -1 96 -11t63.5 -37t41.5 -60.5t34 -94.5l154 -565l447 768h59l-895 -1536h-62zM692 1147q-56 0 -86.5 36t-21.5 93q8 56 50.5 93t96.5 34q55 -2 85.5 -37t23.5 -90
q-9 -56 -51 -92.5t-97 -36.5zM1032 1147q-56 0 -87.5 36t-22.5 93q7 55 50 90t99 35q53 0 84.5 -35t24.5 -90q-9 -56 -52 -92.5t-96 -36.5z" />
    <glyph glyph-name="Amacron" unicode="&#x100;" horiz-adv-x="1462" 
d="M793 1311q-27 44 -59.5 65t-88.5 21l6 37h162q128 0 194 -46.5t89 -160.5l272 -1227h-264l-107 479h-589l-254 -479h-62zM438 532h545l-133 607q-14 67 -27 112zM618 1556l13 76h665l-12 -76h-666z" />
    <glyph glyph-name="amacron" unicode="&#x101;" horiz-adv-x="1286" 
d="M457 -20q-150 0 -243 73.5t-73 192.5q12 73 56.5 123.5t109.5 76t141.5 41t156 23.5t149.5 17.5t127 30.5t82 54q15 84 5.5 146.5t-31 105t-60.5 68t-82.5 36.5t-96.5 11q-96 0 -183 -34.5t-150 -100.5h-50q77 97 207.5 148.5t278.5 51.5q74 0 139.5 -15.5t121 -49.5
t92 -83t51.5 -121t1 -159l-61 -383q-28 -194 117 -194l-7 -39h-104q-138 0 -192.5 34t-57.5 124q-93 -87 -208 -132.5t-236 -45.5zM565 59q84 0 171.5 40.5t162.5 113.5l53 330q-35 -27 -105.5 -44t-141 -29t-139.5 -31.5t-118.5 -64.5t-60.5 -116q-14 -95 37 -147t141 -52z
M471 1176l12 75h666l-12 -75h-666z" />
    <glyph glyph-name="Abreve" unicode="&#x102;" horiz-adv-x="1462" 
d="M793 1311q-27 44 -59.5 65t-88.5 21l6 37h162q128 0 194 -46.5t89 -160.5l272 -1227h-264l-107 479h-589l-254 -479h-62zM438 532h545l-133 607q-14 67 -27 112zM950 1538q-131 0 -205.5 80t-54.5 246h25q-7 -86 67 -129t193 -43q121 0 207.5 43t107.5 129h25
q-32 -167 -131.5 -246.5t-233.5 -79.5z" />
    <glyph glyph-name="abreve" unicode="&#x103;" horiz-adv-x="1286" 
d="M457 -20q-150 0 -243 73.5t-73 192.5q12 73 56.5 123.5t109.5 76t141.5 41t156 23.5t149.5 17.5t127 30.5t82 54q15 84 5.5 146.5t-31 105t-60.5 68t-82.5 36.5t-96.5 11q-96 0 -183 -34.5t-150 -100.5h-50q77 97 207.5 148.5t278.5 51.5q74 0 139.5 -15.5t121 -49.5
t92 -83t51.5 -121t1 -159l-61 -383q-28 -194 117 -194l-7 -39h-104q-138 0 -192.5 34t-57.5 124q-93 -87 -208 -132.5t-236 -45.5zM565 59q84 0 171.5 40.5t162.5 113.5l53 330q-35 -27 -105.5 -44t-141 -29t-139.5 -31.5t-118.5 -64.5t-60.5 -116q-14 -95 37 -147t141 -52z
M801 1153q-131 0 -205.5 80t-54.5 246h24q-7 -86 67 -129t193 -43q121 0 208 43t108 129h24q-32 -167 -131 -246.5t-233 -79.5z" />
    <glyph glyph-name="Aogonek" unicode="&#x104;" horiz-adv-x="1462" 
d="M793 1311q-27 44 -59.5 65t-88.5 21l6 37h162q128 0 194 -46.5t89 -160.5l272 -1227h-96q-104 -130 -75 -240q19 -74 88 -103q76 -32 152 16q3 1 5 3l10 -12q-105 -101 -228 -115q-104 -11 -154 48q-63 71 0 201q45 94 151 202h-117l-107 479h-589l-254 -479h-62z
M438 532h545l-133 607q-14 67 -27 112z" />
    <glyph glyph-name="aogonek" unicode="&#x105;" horiz-adv-x="1286" 
d="M457 -20q-150 0 -243 73.5t-73 192.5q12 73 56.5 123.5t109.5 76t141.5 41t156 23.5t149.5 17.5t127 30.5t82 54q15 84 5.5 146.5t-31 105t-60.5 68t-82.5 36.5t-96.5 11q-96 0 -183 -34.5t-150 -100.5h-50q77 97 207.5 148.5t278.5 51.5q74 0 139.5 -15.5t121 -49.5
t92 -83t51.5 -121t1 -159l-61 -383q-28 -194 117 -194l-7 -39h-104h-29q-113 -131 -89 -245q16 -76 84 -108q75 -35 151 9l12 8l10 -12q-105 -101 -228 -114q-103 -11 -154 47q-62 72 1 203q48 99 164 214q-92 9 -131.5 44.5t-40.5 111.5q-93 -87 -208 -132.5t-236 -45.5z
M565 59q84 0 171.5 40.5t162.5 113.5l53 330q-35 -27 -105.5 -44t-141 -29t-139.5 -31.5t-118.5 -64.5t-60.5 -116q-14 -95 37 -147t141 -52z" />
    <glyph glyph-name="Cacute" unicode="&#x106;" horiz-adv-x="1568" 
d="M895 -20q-117 1 -222 32t-191 91t-144 149.5t-80 206t0 260.5q28 174 113.5 316.5t206 233t262.5 139.5t290 50q411 0 535 -311h-59q-30 68 -80 119t-108.5 78.5t-117 40.5t-116.5 12q-255 -3 -437 -184.5t-231 -493.5q-50 -312 74 -493.5t379 -184.5q80 -1 163.5 20.5
t176 80.5t159.5 149h60q-220 -311 -633 -311zM1235 1901q36 65 100 64q48 -1 72 -38q29 -47 -20 -100q-7 -9 -17 -17l-321 -276h-19z" />
    <glyph glyph-name="cacute" unicode="&#x107;" horiz-adv-x="1187" 
d="M664 -20q-252 0 -384.5 149.5t-95.5 382.5q37 234 218 383.5t432 148.5q147 0 243 -54.5t144 -147.5h-54q-43 75 -118.5 111t-169.5 34q-166 -3 -287.5 -134t-153.5 -341q-34 -210 46 -341t245 -132q92 -3 179.5 33t154.5 110h53q-169 -202 -452 -202zM963 1518
q36 65 100 64q48 -1 72 -38q29 -47 -20 -100q-7 -9 -17 -17l-322 -276h-18z" />
    <glyph glyph-name="Cdotaccent" unicode="&#x10a;" horiz-adv-x="1568" 
d="M895 -20q-117 1 -222 32t-191 91t-144 149.5t-80 206t0 260.5q28 174 113.5 316.5t206 233t262.5 139.5t290 50q411 0 535 -311h-59q-30 68 -80 119t-108.5 78.5t-117 40.5t-116.5 12q-255 -3 -437 -184.5t-231 -493.5q-50 -312 74 -493.5t379 -184.5q80 -1 163.5 20.5
t176 80.5t159.5 149h60q-220 -311 -633 -311zM1145 1532q-55 0 -86 35.5t-23 91.5q9 55 51.5 90t98.5 35q54 0 84.5 -35t21.5 -90q-7 -55 -49.5 -91t-97.5 -36z" />
    <glyph glyph-name="cdotaccent" unicode="&#x10b;" horiz-adv-x="1187" 
d="M664 -20q-252 0 -384.5 149.5t-95.5 382.5q37 234 218 383.5t432 148.5q147 0 243 -54.5t144 -147.5h-54q-43 75 -118.5 111t-169.5 34q-166 -3 -287.5 -134t-153.5 -341q-34 -210 46 -341t245 -132q92 -3 179.5 33t154.5 110h53q-169 -202 -452 -202zM854 1143
q-56 0 -87 36t-22 91t51.5 90t98.5 35q54 0 84.5 -35t21.5 -90t-51 -91t-96 -36z" />
    <glyph glyph-name="Ccaron" unicode="&#x10c;" horiz-adv-x="1579" 
d="M895 -20q-117 1 -222 32t-191 91t-144 149.5t-80 206t0 260.5q28 174 113.5 316.5t206 233t262.5 139.5t290 50q411 0 535 -311h-59q-30 68 -80 119t-108.5 78.5t-117 40.5t-116.5 12q-255 -3 -437 -184.5t-231 -493.5q-50 -312 74 -493.5t379 -184.5q80 -1 163.5 20.5
t176 80.5t159.5 149h60q-220 -311 -633 -311zM1079 1604l-112 364h18l205 -280l289 280h18l-225 -364q-40 -64 -105.5 -68t-87.5 68z" />
    <glyph glyph-name="ccaron" unicode="&#x10d;" horiz-adv-x="1218" 
d="M664 -20q-252 0 -384.5 149.5t-95.5 382.5q37 234 218 383.5t432 148.5q147 0 243 -54.5t144 -147.5h-54q-43 75 -118.5 111t-169.5 34q-166 -3 -287.5 -134t-153.5 -341q-34 -210 46 -341t245 -132q92 -3 179.5 33t154.5 110h53q-169 -202 -452 -202zM774 1219l-112 364
h18l205 -280l289 280h18l-225 -364q-40 -64 -105.5 -68t-87.5 68z" />
    <glyph glyph-name="Dcaron" unicode="&#x10e;" horiz-adv-x="1589" 
d="M539 0q-162 0 -236.5 31.5t-91 106t5.5 198.5l135 854q31 207 -108 207l6 37h637q103 0 192 -16t157.5 -45.5t124.5 -71t93.5 -92t65 -109t37.5 -121.5t12.5 -130t-10.5 -134q-17 -109 -61 -211t-120.5 -194.5t-177.5 -160.5t-240.5 -108.5t-300.5 -40.5h-120zM666 53
q115 2 213.5 41.5t169 103t125.5 149.5t87 178.5t48 193.5q11 72 13 140t-7.5 134.5t-30.5 123.5t-57.5 106t-86.5 83.5t-120.5 54t-155.5 19.5h-291q32 -30 33.5 -97t-12.5 -132l-141 -897q-14 -73 -5.5 -117.5t46 -64t116.5 -19.5h56zM799 1604l-113 364h19l204 -280
l289 280h19l-226 -364q-40 -64 -105 -68t-87 68z" />
    <glyph glyph-name="dcaron" unicode="&#x10f;" horiz-adv-x="1320" 
d="M592 -20q-104 0 -188.5 39t-139.5 108.5t-77 169t-3 215.5q24 155 108.5 277.5t207.5 188.5t262 66q107 0 192.5 -46t128.5 -124l60 377q28 195 -121 197l6 39h111q128 0 184.5 -30.5t63.5 -97.5t-11 -175l-188 -1184h-232l27 164q-74 -83 -176.5 -133.5t-214.5 -50.5z
M676 53q91 0 174 61t139 165l74 466q-22 107 -86 166.5t-156 59.5q-139 0 -248 -133.5t-139 -325.5q-20 -127 2 -231t84.5 -166t155.5 -62zM1161 1628l-112 365h18l203 -281l291 281h18l-225 -365q-40 -64 -105.5 -68t-87.5 68z" />
    <glyph glyph-name="Dcroat" unicode="&#x110;" horiz-adv-x="1589" 
d="M539 0q-162 0 -236.5 31.5t-91 106t5.5 198.5l57 364h-151l10 58h152l67 432q31 207 -108 207l6 37h637q116 0 215 -21t171 -58.5t129.5 -90t91 -115.5t54.5 -134t21 -146.5t-10 -153.5q-17 -109 -61 -211t-120.5 -194.5t-177.5 -160.5t-240.5 -108.5t-300.5 -40.5h-120z
M641 53q117 2 218 41.5t174 103t129 149.5t89 179t49 193q11 72 12.5 140t-8.5 134.5t-31.5 123.5t-59 106t-87.5 83.5t-120.5 54t-155.5 19.5h-277q32 -30 33.5 -97t-12.5 -132l-62 -393h183l-10 -58h-183l-69 -446q-14 -73 -5.5 -117.5t46 -64t116.5 -19.5h31z" />
    <glyph glyph-name="dcroat" unicode="&#x111;" horiz-adv-x="1320" 
d="M592 -20q-104 0 -188.5 39t-139.5 108.5t-77 169t-3 215.5q24 155 108.5 277.5t207.5 188.5t262 66q107 0 192.5 -46t128.5 -124l45 291h-110l10 60h111l4 26q28 195 -121 197l6 39h111q120 0 177 -26.5t68.5 -85t-2.5 -150.5h129l-10 -60h-129l-184 -1165h-232l27 164
q-74 -83 -176.5 -133.5t-214.5 -50.5zM676 53q91 0 174 61t139 165l74 466q-22 107 -86 166.5t-156 59.5q-139 0 -248 -133.5t-139 -325.5q-20 -127 2 -231t84.5 -166t155.5 -62z" />
    <glyph glyph-name="Emacron" unicode="&#x112;" horiz-adv-x="1337" 
d="M539 0q-164 0 -238 32t-90 109t8 205l135 856q7 30 4 64t-12.5 63.5t-38.5 48.5t-74 19l7 37h757h58q168 1 200.5 -21t58.5 -155q7 -34 11 -54h-57q-4 17 -11 45q-23 99 -51 115t-173 16h-44h-420q24 -23 31.5 -65t4.5 -79t-13 -99l-60 -369h598l-8 -53h-598l-71 -461
q-19 -114 14 -157.5t151 -43.5h209h44h69.5t52.5 3t42 5.5t31 13t28.5 20t25 32t29 42l34.5 58.5q15 25 23 39h58q-85 -155 -109 -187q-41 -56 -96 -69q-42 -11 -190 -10h-56h-274zM565 1591l13 76h665l-12 -76h-666z" />
    <glyph glyph-name="emacron" unicode="&#x113;" horiz-adv-x="1294" 
d="M678 -20q-258 0 -395 148.5t-99 383.5q37 236 219.5 384.5t436.5 147.5q102 1 186 -26t146.5 -80.5t93 -141.5t20.5 -202h-831q-10 -33 -17 -82q-35 -215 54 -339.5t276 -129.5q121 -3 231.5 56t165.5 151h56q-89 -128 -227.5 -199t-315.5 -71zM1051 645
q11 161 -47 254.5t-173 93.5q-124 0 -224.5 -106.5t-149.5 -274.5zM530 1180l13 75h665l-12 -75h-666z" />
    <glyph glyph-name="Edotaccent" unicode="&#x116;" horiz-adv-x="1337" 
d="M539 0q-164 0 -238 32t-90 109t8 205l135 856q7 30 4 64t-12.5 63.5t-38.5 48.5t-74 19l7 37h757h58q168 1 200.5 -21t58.5 -155q7 -34 11 -54h-57q-4 17 -11 45q-23 99 -51 115t-173 16h-44h-420q24 -23 31.5 -65t4.5 -79t-13 -99l-60 -369h598l-8 -53h-598l-71 -461
q-19 -114 14 -157.5t151 -43.5h209h44h69.5t52.5 3t42 5.5t31 13t28.5 20t25 32t29 42l34.5 58.5q15 25 23 39h58q-85 -155 -109 -187q-41 -56 -96 -69q-42 -11 -190 -10h-56h-274zM891 1534q-56 0 -87 36t-24 91q9 55 51.5 90t98.5 35q54 0 84.5 -35t21.5 -90
q-7 -55 -49 -91t-96 -36z" />
    <glyph glyph-name="edotaccent" unicode="&#x117;" horiz-adv-x="1294" 
d="M678 -20q-258 0 -395 148.5t-99 383.5q37 236 219.5 384.5t436.5 147.5q102 1 186 -26t146.5 -80.5t93 -141.5t20.5 -202h-831q-10 -33 -17 -82q-35 -215 54 -339.5t276 -129.5q121 -3 231.5 56t165.5 151h56q-89 -128 -227.5 -199t-315.5 -71zM1051 645
q11 161 -47 254.5t-173 93.5q-124 0 -224.5 -106.5t-149.5 -274.5zM866 1147q-56 0 -86.5 36t-21.5 91q7 55 49 90t98 35q54 0 85 -35t24 -90q-9 -55 -51.5 -91t-96.5 -36z" />
    <glyph glyph-name="Eogonek" unicode="&#x118;" horiz-adv-x="1337" 
d="M539 0q-164 0 -238 32t-90 109t8 205l135 856q7 30 4 64t-12.5 63.5t-38.5 48.5t-74 19l7 37h757h58q168 1 200.5 -21t58.5 -155q7 -34 11 -54h-57q-4 17 -11 45q-23 99 -51 115t-173 16h-44h-420q24 -23 31.5 -65t4.5 -79t-13 -99l-60 -369h598l-8 -53h-598l-71 -461
q-19 -114 14 -157.5t151 -43.5h209h44h69.5t52.5 3t42 5.5t31 13t28.5 20t25 32t29 42l34.5 58.5q15 25 23 39h58q-85 -155 -109 -187q-41 -56 -96 -69q-42 -11 -190 -10h-56h-88q-104 -130 -75 -240q19 -74 88 -103q76 -32 152 16q3 1 5 3l10 -12q-105 -101 -228 -115
q-104 -11 -154 48q-63 71 0 201q45 94 151 202h-135z" />
    <glyph glyph-name="eogonek" unicode="&#x119;" horiz-adv-x="1294" 
d="M1051 645q11 161 -47 254.5t-173 93.5q-124 0 -224.5 -106.5t-149.5 -274.5zM881 -369q-105 -101 -228 -114q-104 -11 -154 48q-62 72 1 204q48 98 162 211q-250 4 -382.5 152t-95.5 380q37 236 219.5 384.5t436.5 147.5q102 1 186 -26t146.5 -80.5t93 -141.5t20.5 -202
h-831q-10 -33 -17 -82q-35 -215 54 -339.5t276 -129.5q121 -3 231.5 56t165.5 151h56q-84 -121 -213.5 -192t-294.5 -78q-112 -131 -88 -245q16 -76 83 -108q74 -35 150 9l12 8z" />
    <glyph glyph-name="Ecaron" unicode="&#x11a;" horiz-adv-x="1337" 
d="M539 0q-164 0 -238 32t-90 109t8 205l135 856q7 30 4 64t-12.5 63.5t-38.5 48.5t-74 19l7 37h757h58q168 1 200.5 -21t58.5 -155q7 -34 11 -54h-57q-4 17 -11 45q-23 99 -51 115t-173 16h-44h-420q24 -23 31.5 -65t4.5 -79t-13 -99l-60 -369h598l-8 -53h-598l-71 -461
q-19 -114 14 -157.5t151 -43.5h209h44h69.5t52.5 3t42 5.5t31 13t28.5 20t25 32t29 42l34.5 58.5q15 25 23 39h58q-85 -155 -109 -187q-41 -56 -96 -69q-42 -11 -190 -10h-56h-274zM809 1604l-113 364h19l205 -280l288 280h19l-226 -364q-40 -64 -105 -68t-87 68z" />
    <glyph glyph-name="ecaron" unicode="&#x11b;" horiz-adv-x="1294" 
d="M678 -20q-258 0 -395 148.5t-99 383.5q37 236 219.5 384.5t436.5 147.5q102 1 186 -26t146.5 -80.5t93 -141.5t20.5 -202h-831q-10 -33 -17 -82q-35 -215 54 -339.5t276 -129.5q121 -3 231.5 56t165.5 151h56q-89 -128 -227.5 -199t-315.5 -71zM1051 645
q11 161 -47 254.5t-173 93.5q-124 0 -224.5 -106.5t-149.5 -274.5zM772 1217l-113 364h19l205 -281l288 281h19l-225 -364q-40 -64 -105.5 -68t-87.5 68z" />
    <glyph glyph-name="Gbreve" unicode="&#x11e;" horiz-adv-x="1677" 
d="M895 -20q-117 1 -222 32t-191 91t-144 149.5t-80 206t0 260.5q28 174 113.5 316.5t206 233t262.5 139.5t290 50q411 0 535 -311h-59q-30 68 -80 119t-108.5 78.5t-117 40.5t-116.5 12q-255 -3 -437 -184.5t-231 -493.5q-51 -312 74 -496t379 -186q195 0 338 108l61 383
q28 195 -121 197l6 37h107q131 0 189.5 -30.5t66.5 -97t-10 -173.5l-25 -152q-121 -171 -303.5 -250t-382.5 -79zM1155 1559q-62 0 -112.5 18t-88.5 55.5t-54 102t-5 149.5h25q-6 -58 29 -98t93.5 -57t135.5 -17q121 0 208 43t109 129h25q-17 -86 -53.5 -150t-86 -101.5
t-105.5 -55.5t-120 -18z" />
    <glyph glyph-name="gbreve" unicode="&#x11f;" horiz-adv-x="1253" 
d="M524 -553q-152 1 -263.5 33.5t-172.5 104t-45 175.5q14 89 95.5 152.5t207.5 99.5h60q-153 -87 -177 -243q-20 -124 58.5 -203.5t242.5 -79.5q160 0 273 79t133 208q10 62 -9 108.5t-58 74.5t-92 48t-110 33.5t-112 27.5t-98.5 34t-70 48t-25 75t35.5 110
q-102 48 -149 133.5t-29 198.5q18 114 95.5 201t197.5 133t264 46l37 -2q56 125 160.5 210t224.5 85q80 0 116.5 -38t26.5 -93q-6 -48 -46.5 -85.5t-96.5 -37.5q-51 0 -80.5 35.5t-21.5 81.5q11 70 94 109q-101 -1 -192.5 -78.5t-135.5 -190.5q181 -21 276.5 -121t71.5 -255
q-27 -176 -179.5 -279.5t-375.5 -105.5q-128 0 -221 38q-57 -114 43 -165q56 -29 225 -55q187 -29 260 -55q166 -58 178 -187q3 -33 -3 -70q-23 -151 -195.5 -244.5t-417.5 -93.5zM659 317q128 0 209 100t105 247q13 67 5.5 128.5t-29.5 109t-68 76t-111 28.5
q-126 0 -207.5 -98.5t-105.5 -243.5q-15 -93 -0.5 -170t66.5 -127t136 -50zM834 1384q-131 0 -206 80t-55 246h25q-7 -86 67 -129t193 -43q121 0 208 43t108 129h24q-32 -167 -131 -246.5t-233 -79.5z" />
    <glyph glyph-name="Gdotaccent" unicode="&#x120;" horiz-adv-x="1677" 
d="M895 -20q-117 1 -222 32t-191 91t-144 149.5t-80 206t0 260.5q28 174 113.5 316.5t206 233t262.5 139.5t290 50q411 0 535 -311h-59q-30 68 -80 119t-108.5 78.5t-117 40.5t-116.5 12q-255 -3 -437 -184.5t-231 -493.5q-51 -312 74 -496t379 -186q195 0 338 108l61 383
q28 195 -121 197l6 37h107q131 0 189.5 -30.5t66.5 -97t-10 -173.5l-25 -152q-121 -171 -303.5 -250t-382.5 -79zM1153 1532q-55 0 -86 35.5t-23 91.5q9 55 51.5 90t98.5 35q54 0 84.5 -35t21.5 -90q-7 -55 -49.5 -91t-97.5 -36z" />
    <glyph glyph-name="gdotaccent" unicode="&#x121;" horiz-adv-x="1253" 
d="M524 -553q-152 1 -263.5 33.5t-172.5 104t-45 175.5q14 89 95.5 152.5t207.5 99.5h60q-153 -87 -177 -243q-20 -124 58.5 -203.5t242.5 -79.5q160 0 273 79t133 208q10 62 -9 108.5t-58 74.5t-92 48t-110 33.5t-112 27.5t-98.5 34t-70 48t-25 75t35.5 110
q-102 48 -149 133.5t-29 198.5q18 114 95.5 201t197.5 133t264 46l37 -2q56 125 160.5 210t224.5 85q80 0 116.5 -38t26.5 -93q-6 -48 -46.5 -85.5t-96.5 -37.5q-51 0 -80.5 35.5t-21.5 81.5q11 70 94 109q-101 -1 -192.5 -78.5t-135.5 -190.5q181 -21 276.5 -121t71.5 -255
q-27 -176 -179.5 -279.5t-375.5 -105.5q-128 0 -221 38q-57 -114 43 -165q56 -29 225 -55q187 -29 260 -55q166 -58 178 -187q3 -33 -3 -70q-23 -151 -195.5 -244.5t-417.5 -93.5zM659 317q128 0 209 100t105 247q13 67 5.5 128.5t-29.5 109t-68 76t-111 28.5
q-126 0 -207.5 -98.5t-105.5 -243.5q-15 -93 -0.5 -170t66.5 -127t136 -50zM842 1378q-56 0 -87 36t-24 91q9 55 51.5 90t98.5 35q54 0 84.5 -35t21.5 -90q-7 -55 -49 -91t-96 -36z" />
    <glyph glyph-name="uni0122" unicode="&#x122;" horiz-adv-x="1677" 
d="M895 -20q-117 1 -222 32t-191 91t-144 149.5t-80 206t0 260.5q28 174 113.5 316.5t206 233t262.5 139.5t290 50q411 0 535 -311h-59q-30 68 -80 119t-108.5 78.5t-117 40.5t-116.5 12q-255 -3 -437 -184.5t-231 -493.5q-51 -312 74 -496t379 -186q195 0 338 108l61 383
q28 195 -121 197l6 37h107q131 0 189.5 -30.5t66.5 -97t-10 -173.5l-25 -152q-121 -171 -303.5 -250t-382.5 -79zM811 -526q56 67 68 135q3 22 -6.5 37.5t-25.5 25.5t-31.5 21t-24 33.5t-3.5 54.5q7 50 46 80t84 30q51 0 75.5 -35t16.5 -92q-11 -73 -67.5 -163.5
t-108.5 -137.5z" />
    <glyph glyph-name="uni0123" unicode="&#x123;" horiz-adv-x="1253" 
d="M524 -553q-152 1 -263.5 33.5t-172.5 104t-45 175.5q14 89 95.5 152.5t207.5 99.5h60q-153 -87 -177 -243q-20 -124 58.5 -203.5t242.5 -79.5q160 0 273 79t133 208q10 62 -9 108.5t-58 74.5t-92 48t-110 33.5t-112 27.5t-98.5 34t-70 48t-25 75t35.5 110
q-102 48 -149 133.5t-29 198.5q18 114 95.5 201t197.5 133t264 46l37 -2q56 125 160.5 210t224.5 85q80 0 116.5 -38t26.5 -93q-6 -48 -46.5 -85.5t-96.5 -37.5q-51 0 -80.5 35.5t-21.5 81.5q11 70 94 109q-101 -1 -192.5 -78.5t-135.5 -190.5q181 -21 276.5 -121t71.5 -255
q-27 -176 -179.5 -279.5t-375.5 -105.5q-128 0 -221 38q-57 -114 43 -165q56 -29 225 -55q187 -29 260 -55q166 -58 178 -187q3 -33 -3 -70q-23 -151 -195.5 -244.5t-417.5 -93.5zM659 317q128 0 209 100t105 247q13 67 5.5 128.5t-29.5 109t-68 76t-111 28.5
q-126 0 -207.5 -98.5t-105.5 -243.5q-15 -93 -0.5 -170t66.5 -127t136 -50zM930 1786q-57 -68 -66 -135q-4 -22 5.5 -37.5t25 -25.5t30.5 -21t23.5 -33.5t3.5 -54.5q-7 -50 -45 -80.5t-82 -30.5q-52 0 -76.5 35.5t-15.5 91.5q11 73 67.5 163.5t108.5 137.5z" />
    <glyph glyph-name="Hbar" unicode="&#x126;" horiz-adv-x="1478" 
d="M354 1202q4 27 4.5 51t-5 51.5t-18.5 47t-39 32.5t-63 13l7 37h110q122 0 180.5 -29t69.5 -91.5t-6 -160.5l-16 -106h653l61 387h250l-227 -1434h-250l113 717h-654l-112 -717h-248zM535 772h653l35 219h-654z" />
    <glyph glyph-name="hbar" unicode="&#x127;" horiz-adv-x="1310" 
d="M383 1251q7 31 4 65t-12.5 63.5t-39 48.5t-75.5 20l6 39h111q125 0 182 -29t65.5 -92.5t-8.5 -165.5h127l-10 -59h-127l-41 -262q93 79 205 122t223 43q349 0 291 -372l-106 -672h-242l100 633q10 62 13.5 105.5t-1 89.5t-20.5 73.5t-50 45.5t-85 18q-83 0 -173.5 -37.5
t-164.5 -108.5l-129 -819h-242l181 1141h-119l10 59h119z" />
    <glyph glyph-name="Imacron" unicode="&#x12a;" horiz-adv-x="577" 
d="M354 1202q4 27 4.5 51t-5 51.5t-18.5 47t-39 32.5t-63 13l7 37h110q129 0 187 -30.5t65.5 -97.5t-10.5 -173l-180 -1133h-248zM238 1559l10 75h598l-10 -75h-598z" />
    <glyph glyph-name="imacron" unicode="&#x12b;" horiz-adv-x="559" 
d="M309 793q7 30 4 64t-12.5 63t-39 48t-75.5 19l7 37h110q128 0 185 -30t64.5 -96.5t-11.5 -174.5l-115 -723h-242zM193 1167l12 76h473l-12 -76h-473z" />
    <glyph glyph-name="Iogonek" unicode="&#x12e;" horiz-adv-x="577" 
d="M354 1202q4 27 4.5 51t-5 51.5t-18.5 47t-39 32.5t-63 13l7 37h110q129 0 187 -30.5t65.5 -97.5t-10.5 -173l-180 -1133h-97q-104 -130 -75 -240q19 -74 88 -103q76 -32 152 16q3 1 5 3l11 -12q-105 -101 -228 -115q-104 -11 -155 48q-62 71 0 201q45 94 151 202h-100z
" />
    <glyph glyph-name="iogonek" unicode="&#x12f;" horiz-adv-x="548" 
d="M309 793q7 30 4 64t-12.5 63t-39 48t-75.5 19l7 37h110q128 0 185 -30t64.5 -96.5t-11.5 -174.5l-115 -723h-88q-104 -130 -75 -240q19 -74 88 -103q76 -32 152 16q3 1 5 3l10 -12q-105 -101 -228 -115q-104 -11 -154 48q-63 71 0 201q45 94 151 202h-103zM451 1169
q-64 0 -100 43t-27 107q9 62 59.5 104.5t114.5 42.5q60 0 97 -43t28 -104q-9 -62 -60 -106t-112 -44z" />
    <glyph glyph-name="Idotaccent" unicode="&#x130;" horiz-adv-x="577" 
d="M354 1202q4 27 4.5 51t-5 51.5t-18.5 47t-39 32.5t-63 13l7 37h110q129 0 187 -30.5t65.5 -97.5t-10.5 -173l-180 -1133h-248zM524 1536q-63 0 -97.5 41t-25.5 104q9 61 57 101.5t111 40.5q62 0 97 -40.5t26 -101.5q-9 -62 -57.5 -103.5t-110.5 -41.5z" />
    <glyph glyph-name="dotlessi" unicode="&#x131;" horiz-adv-x="548" 
d="M309 793q7 30 4 64t-12.5 63t-39 48t-75.5 19l7 37h110q128 0 185 -30t64.5 -96.5t-11.5 -174.5l-115 -723h-242z" />
    <glyph glyph-name="uni0136" unicode="&#x136;" horiz-adv-x="1488" 
d="M1397 -10q-310 -42 -383 51q-32 40 -44 108t-14.5 173t-7.5 151q-5 36 -10 58.5t-16.5 52t-28.5 47.5t-46.5 37.5t-69 30t-97.5 16.5t-131 4l893 715h80l-781 -621q98 7 174.5 -5.5t126.5 -39t84.5 -68t51.5 -87.5t24 -103q7 -59 11.5 -152.5t12 -156t25.5 -105.5
q22 -45 54 -61t98 -12zM354 1202q4 27 4.5 51t-5 51.5t-18.5 47t-39 32.5t-63 13l7 37h110q129 0 187 -30.5t65.5 -97.5t-10.5 -173l-180 -1133h-248zM580 -524q55 65 67 135q3 22 -6.5 37.5t-25 25.5t-31 21t-24 33.5t-3.5 54.5q9 50 47 80.5t82 30.5q52 0 76.5 -35.5
t15.5 -91.5q-11 -73 -67.5 -164t-108.5 -138z" />
    <glyph glyph-name="uni0137" unicode="&#x137;" horiz-adv-x="1284" 
d="M1059 -20q-147 0 -201 77q-24 30 -43 83t-29.5 106t-29.5 109.5t-42.5 99.5t-69 69.5t-109.5 24.5l727 475h92l-652 -426q68 6 121 -8t86.5 -44.5t57.5 -69t41 -88.5t29.5 -95.5t30 -96.5t36.5 -85q21 -45 51.5 -63.5t79.5 -20.5l-4 -33q-135 -15 -172 -14zM383 1251
q7 31 4 65t-12.5 63.5t-39 48.5t-75.5 20l6 39h111q128 0 184.5 -30.5t63.5 -97.5t-11 -175l-188 -1184h-242zM524 -535q57 68 66 136q3 22 -6.5 37.5t-25 25.5t-31 21t-24 33.5t-3.5 54.5q9 50 47 80t82 30q52 0 76.5 -35.5t15.5 -91.5q-11 -73 -67.5 -163.5t-108.5 -137.5
z" />
    <glyph glyph-name="Lacute" unicode="&#x139;" horiz-adv-x="1255" 
d="M539 0q-164 0 -238 32t-90 109t8 205l135 856q4 27 4.5 51t-5 51.5t-18.5 47t-39 32.5t-63 13l7 37h110q129 0 187 -30.5t65.5 -97.5t-10.5 -173l-139 -879q-19 -114 14 -157.5t151 -43.5h193q140 0 175 9q48 12 84 61q17 23 87 143h60q-87 -155 -109 -186
q-41 -56 -95 -70q-42 -11 -188 -10h-59h-227zM575 1905q36 65 99 64q50 0 73 -38q30 -47 -20 -100q-7 -8 -16 -16l-322 -277h-18z" />
    <glyph glyph-name="lacute" unicode="&#x13a;" horiz-adv-x="745" 
d="M453 -20q-136 0 -192 78t-30 245l152 948q7 31 4 65t-12.5 63.5t-39 48.5t-75.5 20l6 39h111q128 0 184.5 -30.5t63.5 -97.5t-11 -175l-151 -953q-15 -95 2 -141t88 -49q37 -2 84 13.5t82 41.5l-4 -37q-46 -37 -116 -58t-146 -21zM553 1935q36 65 99 64q49 -1 72 -38
q30 -47 -20 -100q-7 -8 -16 -16l-323 -276h-19z" />
    <glyph glyph-name="uni013B" unicode="&#x13b;" horiz-adv-x="1255" 
d="M539 0q-164 0 -238 32t-90 109t8 205l135 856q4 27 4.5 51t-5 51.5t-18.5 47t-39 32.5t-63 13l7 37h110q129 0 187 -30.5t65.5 -97.5t-10.5 -173l-139 -879q-19 -114 14 -157.5t151 -43.5h193q140 0 175 9q48 12 84 61q17 23 87 143h60q-87 -155 -109 -186
q-41 -56 -95 -70q-42 -11 -188 -10h-59h-227zM524 -526q56 67 68 135q3 22 -6.5 37.5t-25 25.5t-31 21t-24 33.5t-3.5 54.5q7 50 46 80t83 30q51 0 75.5 -35t16.5 -92q-11 -73 -67.5 -163.5t-108.5 -137.5z" />
    <glyph glyph-name="uni013C" unicode="&#x13c;" horiz-adv-x="745" 
d="M453 -20q-136 0 -192 78t-30 245l152 948q7 31 4 65t-12.5 63.5t-39 48.5t-75.5 20l6 39h111q128 0 184.5 -30.5t63.5 -97.5t-11 -175l-151 -953q-15 -95 2 -141t88 -49q37 -2 84 13.5t82 41.5l-4 -37q-46 -37 -116 -58t-146 -21zM262 -524q56 67 68 135q3 22 -6.5 37.5
t-25 25.5t-31 21t-24 33.5t-3.5 54.5q9 50 47 80.5t82 30.5q52 0 76.5 -35.5t15.5 -91.5q-11 -73 -67.5 -164t-108.5 -138z" />
    <glyph glyph-name="Lcaron" unicode="&#x13d;" horiz-adv-x="1255" 
d="M539 0q-164 0 -238 32t-90 109t8 205l135 856q4 27 4.5 51t-5 51.5t-18.5 47t-39 32.5t-63 13l7 37h110q129 0 187 -30.5t65.5 -97.5t-10.5 -173l-139 -879q-19 -114 14 -157.5t151 -43.5h193q140 0 175 9q48 12 84 61q17 23 87 143h60q-87 -155 -109 -186
q-41 -56 -95 -70q-42 -11 -188 -10h-59h-227zM426 1606l-113 364h19l205 -280l288 280h19l-226 -364q-40 -64 -105 -68t-87 68z" />
    <glyph glyph-name="lcaron" unicode="&#x13e;" horiz-adv-x="745" 
d="M453 -20q-136 0 -192 78t-30 245l152 948q7 31 4 65t-12.5 63.5t-39 48.5t-75.5 20l6 39h111q128 0 184.5 -30.5t63.5 -97.5t-11 -175l-151 -953q-15 -95 2 -141t88 -49q37 -2 84 13.5t82 41.5l-4 -37q-46 -37 -116 -58t-146 -21zM410 1628l-113 365h18l203 -281l291 281
h18l-225 -365q-40 -64 -105 -68t-87 68z" />
    <glyph glyph-name="Lslash" unicode="&#x141;" horiz-adv-x="1255" 
d="M74 418l182 157l98 627q4 27 4.5 51t-5 51.5t-18.5 47t-39 32.5t-63 13l7 37h110q129 0 187 -30.5t65.5 -97.5t-10.5 -173l-49 -306l88 78h84l-187 -162l-75 -489q-19 -114 14 -157.5t151 -43.5h193q140 0 175 9q48 12 84 61q17 23 87 143h60q-87 -155 -109 -186
q-41 -56 -95 -70q-42 -11 -188 -10h-59h-227q-164 0 -238 32t-90 109t8 205l23 146l-84 -74h-84z" />
    <glyph glyph-name="lslash" unicode="&#x142;" horiz-adv-x="745" 
d="M453 -20q-136 0 -192 78t-30 245l31 193l-102 -88l-35 43l151 129l107 671q7 31 4 65t-12.5 63.5t-39 48.5t-75.5 20l6 39h111q128 0 184.5 -30.5t63.5 -97.5t-11 -175l-59 -369l109 92l36 -43l-157 -133l-80 -500q-15 -95 2 -141t88 -49q37 -2 84 13.5t82 41.5l-4 -37
q-46 -37 -116 -58t-146 -21z" />
    <glyph glyph-name="Nacute" unicode="&#x143;" horiz-adv-x="1441" 
d="M373 1325q-46 72 -140 72l7 37h151q132 0 192.5 -28t104.5 -118l567 -1091l197 1237h55l-209 -1323q46 -72 138 -72l-6 -39h-152q-130 0 -191 27.5t-106 117.5l-565 1092l-197 -1237h-55zM1128 1903q36 65 99 64q49 -1 73 -38q30 -47 -19 -100q-7 -9 -17 -17l-322 -276
h-18z" />
    <glyph glyph-name="nacute" unicode="&#x144;" horiz-adv-x="1310" 
d="M309 793q7 30 4 64t-12.5 63t-39 48t-75.5 19l7 37h110q137 0 192 -33t56 -125q204 178 442 178q349 0 291 -372l-106 -672h-242l100 633q10 62 13.5 105.5t-1 89.5t-20.5 73.5t-50 45.5t-85 18q-83 0 -173.5 -37.5t-164.5 -108.5l-129 -819h-242zM913 1511q36 65 99 64
q50 0 73 -38q30 -47 -20 -100q-7 -8 -16 -16l-322 -276h-18z" />
    <glyph glyph-name="uni0145" unicode="&#x145;" horiz-adv-x="1441" 
d="M373 1325q-46 72 -140 72l7 37h151q132 0 192.5 -28t104.5 -118l567 -1091l197 1237h55l-209 -1323q46 -72 138 -72l-6 -39h-152q-130 0 -191 27.5t-106 117.5l-565 1092l-197 -1237h-55zM584 -504q56 67 65 135q4 22 -5.5 37.5t-25 25.5t-30.5 21t-23.5 33.5t-3.5 54.5
q7 50 45 80.5t82 30.5q52 0 77 -35t17 -92q-13 -74 -69 -164.5t-109 -136.5z" />
    <glyph glyph-name="uni0146" unicode="&#x146;" horiz-adv-x="1310" 
d="M309 793q7 30 4 64t-12.5 63t-39 48t-75.5 19l7 37h110q137 0 192 -33t56 -125q204 178 442 178q349 0 291 -372l-106 -672h-242l100 633q10 62 13.5 105.5t-1 89.5t-20.5 73.5t-50 45.5t-85 18q-83 0 -173.5 -37.5t-164.5 -108.5l-129 -819h-242zM551 -510q57 72 65 135
q3 22 -6.5 37.5t-25 25.5t-31 21t-24 33.5t-3.5 54.5q9 50 47 80.5t82 30.5q52 0 77 -35.5t16 -91.5q-11 -73 -67.5 -163t-109.5 -138z" />
    <glyph glyph-name="Ncaron" unicode="&#x147;" horiz-adv-x="1441" 
d="M373 1325q-46 72 -140 72l7 37h151q132 0 192.5 -28t104.5 -118l567 -1091l197 1237h55l-209 -1323q46 -72 138 -72l-6 -39h-152q-130 0 -191 27.5t-106 117.5l-565 1092l-197 -1237h-55zM905 1606l-112 364h18l205 -280l289 280h18l-225 -364q-40 -64 -105.5 -68
t-87.5 68z" />
    <glyph glyph-name="ncaron" unicode="&#x148;" horiz-adv-x="1310" 
d="M309 793q7 30 4 64t-12.5 63t-39 48t-75.5 19l7 37h110q137 0 192 -33t56 -125q204 178 442 178q349 0 291 -372l-106 -672h-242l100 633q10 62 13.5 105.5t-1 89.5t-20.5 73.5t-50 45.5t-85 18q-83 0 -173.5 -37.5t-164.5 -108.5l-129 -819h-242zM717 1214l-113 365h19
l202 -281l291 281h19l-226 -365q-40 -64 -105 -68t-87 68z" />
    <glyph glyph-name="Eng" unicode="&#x14a;" horiz-adv-x="1441" 
d="M985 -397q37 1 67 9.5t50.5 20.5t37 33.5t25.5 39t16.5 46t11 46.5t7.5 48l23 140l-807 1249l-197 -1235h-55l207 1309q-26 42 -56.5 63.5t-81.5 22.5l7 39h182q84 0 133 -14.5t80 -43.5t72 -92l577 -907l168 1057h55l-252 -1588q-4 -25 -6.5 -38.5t-12 -44.5
t-20.5 -50.5t-32 -45.5t-47 -41.5t-66 -26.5t-88 -11z" />
    <glyph glyph-name="eng" unicode="&#x14b;" horiz-adv-x="1310" 
d="M514 -567q92 6 162 37t117 85.5t75.5 125.5t42.5 163l125 789q10 62 13.5 105.5t-1 89.5t-20.5 73.5t-50 45.5t-85 18q-83 0 -173.5 -37.5t-164.5 -108.5l-129 -819h-242l125 793q7 30 4 64t-12.5 63t-39 48t-75.5 19l7 37h110q136 0 190.5 -32.5t57.5 -123.5
q207 176 442 176q349 0 291 -372l-123 -778q-16 -98 -58 -178.5t-103 -136.5t-139.5 -94t-165.5 -55.5t-183 -17.5z" />
    <glyph glyph-name="Omacron" unicode="&#x14c;" horiz-adv-x="1849" 
d="M901 -20q-159 0 -290.5 52t-219 146t-124 234t-9.5 307q26 167 107.5 306t198.5 232.5t264.5 145t306.5 51.5q161 0 292 -51.5t218 -145t123 -232.5t10 -306q-36 -223 -163.5 -392.5t-313 -258t-400.5 -88.5zM915 33q248 0 404 177.5t209 508.5q51 330 -49.5 506
t-348.5 176q-250 0 -406.5 -176t-207.5 -506q-53 -330 48 -508t351 -178zM848 1591l12 76h666l-13 -76h-665z" />
    <glyph glyph-name="omacron" unicode="&#x14d;" horiz-adv-x="1368" 
d="M680 -20q-255 0 -395 144.5t-101 387.5q38 243 224 387.5t442 144.5q125 0 226 -37t167.5 -105t95 -168.5t9.5 -221.5q-39 -243 -226 -387.5t-442 -144.5zM690 33q81 0 151.5 39.5t121 106.5t85 152t50.5 181q17 94 7.5 181t-37.5 153t-86.5 105.5t-139.5 39.5t-151 -39
t-120 -106t-84 -152.5t-49 -181.5q-11 -76 -11 -146t18 -130.5t48.5 -105.5t81 -71t115.5 -26zM547 1167l12 76h666l-13 -76h-665z" />
    <glyph glyph-name="Ohungarumlaut" unicode="&#x150;" horiz-adv-x="1849" 
d="M901 -20q-159 0 -290.5 52t-219 146t-124 234t-9.5 307q26 167 107.5 306t198.5 232.5t264.5 145t306.5 51.5q161 0 292 -51.5t218 -145t123 -232.5t10 -306q-36 -223 -163.5 -392.5t-313 -258t-400.5 -88.5zM915 33q248 0 404 177.5t209 508.5q51 330 -49.5 506
t-348.5 176q-250 0 -406.5 -176t-207.5 -506q-53 -330 48 -508t351 -178zM1477 1905q36 66 101 65q49 -1 72 -38q30 -47 -20 -100q-8 -9 -18 -17l-322 -277h-16zM1184 1905q38 66 102 65q50 -1 72 -39q29 -48 -22 -102q-7 -7 -15 -14l-322 -277h-18z" />
    <glyph glyph-name="ohungarumlaut" unicode="&#x151;" horiz-adv-x="1368" 
d="M680 -20q-255 0 -395 144.5t-101 387.5q38 243 224 387.5t442 144.5q125 0 226 -37t167.5 -105t95 -168.5t9.5 -221.5q-39 -243 -226 -387.5t-442 -144.5zM690 33q81 0 151.5 39.5t121 106.5t85 152t50.5 181q17 94 7.5 181t-37.5 153t-86.5 105.5t-139.5 39.5t-151 -39
t-120 -106t-84 -152.5t-49 -181.5q-11 -76 -11 -146t18 -130.5t48.5 -105.5t81 -71t115.5 -26zM1186 1513q36 66 101 65q49 -1 72 -38q30 -47 -20 -100q-8 -9 -18 -17l-322 -276h-16zM893 1513q38 66 102 65q50 -1 72 -39q29 -48 -22 -102q-7 -7 -15 -14l-321 -276h-19z" />
    <glyph glyph-name="OE" unicode="&#x152;" horiz-adv-x="2473" 
d="M922 -20q-131 0 -244.5 33t-200 96t-144 153.5t-77 205t1.5 251.5q26 167 108.5 306t202.5 232.5t271 145t315 51.5q196 0 361 -102l12 82h606h58q168 1 200.5 -21t58.5 -155q7 -34 11 -54h-60q-4 16 -10 44q-23 100 -50.5 116t-170.5 16h-43h-359l-98 -612h596l-8 -53
h-596l-72 -461q-19 -113 14 -157t150 -44h207q160 0 192 5q55 9 90 51q21 25 91 147l6 10h59q-85 -155 -106 -184q-41 -57 -93 -71q-42 -12 -185 -11h-68h-273q-150 0 -222.5 21.5t-94.5 82.5q-220 -124 -436 -124zM936 33q233 0 405 188q0 37 15 125l139 879
q-110 176 -344 176q-238 0 -411.5 -180.5t-223.5 -501.5q-26 -163 -7.5 -291t74.5 -215.5t146 -133.5t207 -46z" />
    <glyph glyph-name="oe" unicode="&#x153;" horiz-adv-x="2084" 
d="M680 -20q-255 0 -395 144.5t-101 387.5q38 243 224 387.5t442 144.5q235 0 373 -129q175 129 407 129q102 1 186 -26t147 -80.5t93.5 -141.5t20.5 -202h-832q-12 -52 -16 -82q-35 -215 55 -339.5t277 -129.5q121 -3 230.5 55.5t166.5 151.5h53q-88 -128 -226 -199
t-312 -71q-239 0 -373 131q-182 -131 -420 -131zM690 33q98 0 176.5 61t134.5 166q-48 113 -26 252q20 132 104 254q-21 104 -80 164.5t-157 60.5q-81 0 -151 -39t-120 -106t-84 -152.5t-49 -181.5q-11 -76 -11 -146t18 -130.5t48.5 -105.5t81 -71t115.5 -26zM1843 645
q9 162 -48.5 255t-172.5 93q-122 0 -222 -100t-147 -260z" />
    <glyph glyph-name="Racute" unicode="&#x154;" horiz-adv-x="1480" 
d="M1425 -10q-63 -7 -111 -10t-108 -1.5t-107 17t-75 43.5q-45 43 -67 115.5t-27 147.5t-12.5 148.5t-36.5 134.5t-86 89h-277l-106 -674h-248l190 1202q7 30 4 64t-12.5 63.5t-38.5 48.5t-74 19l7 37h663q156 0 263.5 -28.5t163 -81.5t74 -119t5.5 -150
q-22 -133 -115.5 -230t-267.5 -133q62 -16 99 -65t51.5 -117.5t22.5 -138.5t22 -147t39 -124q24 -42 64 -58t108 -13zM750 727q350 0 403 328q23 152 -46.5 238.5t-252.5 86.5h-285q24 -23 31.5 -65t4.5 -79t-13 -99l-66 -410h224zM1038 1907q36 65 99 64q50 0 73 -38
q30 -47 -20 -100q-7 -8 -16 -16l-322 -277h-18z" />
    <glyph glyph-name="racute" unicode="&#x155;" horiz-adv-x="927" 
d="M309 793q7 30 4 64t-12.5 63t-39 48t-75.5 19l7 37h110q136 0 190.5 -32.5t57.5 -123.5q102 97 228.5 140t252.5 34l-28 -176q-39 16 -55 22.5t-57.5 19t-65.5 14.5t-64 1.5t-70.5 -13t-67 -36.5t-69.5 -61l-129 -813h-242zM733 1509q36 65 99 64q49 -1 72 -38
q30 -47 -20 -100q-7 -8 -16 -16l-323 -276h-19z" />
    <glyph glyph-name="uni0156" unicode="&#x156;" horiz-adv-x="1480" 
d="M1425 -10q-63 -7 -111 -10t-108 -1.5t-107 17t-75 43.5q-45 43 -67 115.5t-27 147.5t-12.5 148.5t-36.5 134.5t-86 89h-277l-106 -674h-248l190 1202q7 30 4 64t-12.5 63.5t-38.5 48.5t-74 19l7 37h663q156 0 263.5 -28.5t163 -81.5t74 -119t5.5 -150
q-22 -133 -115.5 -230t-267.5 -133q62 -16 99 -65t51.5 -117.5t22.5 -138.5t22 -147t39 -124q24 -42 64 -58t108 -13zM750 727q350 0 403 328q23 152 -46.5 238.5t-252.5 86.5h-285q24 -23 31.5 -65t4.5 -79t-13 -99l-66 -410h224zM573 -504q57 68 66 135q4 22 -5.5 37.5
t-25 25.5t-30.5 21t-23.5 33.5t-3.5 54.5q7 50 45 80.5t82 30.5q52 0 77 -35t17 -92q-13 -74 -69 -164.5t-109 -136.5z" />
    <glyph glyph-name="uni0157" unicode="&#x157;" horiz-adv-x="927" 
d="M309 793q7 30 4 64t-12.5 63t-39 48t-75.5 19l7 37h110q136 0 190.5 -32.5t57.5 -123.5q102 97 228.5 140t252.5 34l-28 -176q-39 16 -55 22.5t-57.5 19t-65.5 14.5t-64 1.5t-70.5 -13t-67 -36.5t-69.5 -61l-129 -813h-242zM184 -506q57 68 66 135q4 22 -5.5 37.5
t-25 25.5t-30.5 21t-23.5 33.5t-3.5 54.5q7 50 45 80.5t82 30.5q52 0 76.5 -35.5t15.5 -91.5q-11 -73 -67.5 -163.5t-108.5 -137.5z" />
    <glyph glyph-name="Rcaron" unicode="&#x158;" horiz-adv-x="1480" 
d="M1425 -10q-63 -7 -111 -10t-108 -1.5t-107 17t-75 43.5q-45 43 -67 115.5t-27 147.5t-12.5 148.5t-36.5 134.5t-86 89h-277l-106 -674h-248l190 1202q7 30 4 64t-12.5 63.5t-38.5 48.5t-74 19l7 37h663q156 0 263.5 -28.5t163 -81.5t74 -119t5.5 -150
q-22 -133 -115.5 -230t-267.5 -133q62 -16 99 -65t51.5 -117.5t22.5 -138.5t22 -147t39 -124q24 -42 64 -58t108 -13zM750 727q350 0 403 328q23 152 -46.5 238.5t-252.5 86.5h-285q24 -23 31.5 -65t4.5 -79t-13 -99l-66 -410h224zM825 1604l-112 364h18l205 -280l289 280
h18l-225 -364q-40 -64 -105.5 -68t-87.5 68z" />
    <glyph glyph-name="rcaron" unicode="&#x159;" horiz-adv-x="927" 
d="M309 793q7 30 4 64t-12.5 63t-39 48t-75.5 19l7 37h110q136 0 190.5 -32.5t57.5 -123.5q102 97 228.5 140t252.5 34l-28 -176q-39 16 -55 22.5t-57.5 19t-65.5 14.5t-64 1.5t-70.5 -13t-67 -36.5t-69.5 -61l-129 -813h-242zM602 1217l-113 364h19l205 -281l288 281h19
l-225 -364q-40 -64 -105.5 -68t-87.5 68z" />
    <glyph glyph-name="Sacute" unicode="&#x15a;" horiz-adv-x="1372" 
d="M670 -20q-124 0 -225.5 35t-171 111t-80.5 183h55q9 -85 71.5 -148t152 -92.5t192.5 -29.5q94 0 176.5 29t143 90t73.5 145q9 55 -12.5 100t-64.5 77.5t-101 61.5t-123 56t-130 55.5t-121.5 65.5t-98 81t-60 106.5t-6.5 137.5q20 125 110.5 221t212.5 142.5t252 46.5
q110 0 202.5 -32t156 -103.5t72.5 -171.5h-56q-8 80 -63 139t-132 86t-165 27q-132 0 -235 -67.5t-124 -190.5q-9 -57 12.5 -103.5t65 -80t102 -62.5t124 -55.5t130.5 -54.5t122.5 -64t99 -79t60.5 -105.5t7 -137.5q-21 -127 -119 -225t-231 -146t-274 -48zM1014 1898
q36 65 100 64q49 -1 72 -38q29 -47 -21 -100q-7 -8 -16 -16l-324 -276h-18z" />
    <glyph glyph-name="sacute" unicode="&#x15b;" horiz-adv-x="1085" 
d="M526 -20q-91 0 -170.5 22t-140 69t-84.5 113h55q32 -73 127 -113t211 -40q121 0 213 47t105 133q7 46 -25 82t-89.5 61.5t-127.5 50t-140 53.5t-125.5 65t-85 92.5t-18.5 127.5q16 93 90 163.5t174.5 104t209.5 33.5q131 0 232 -50.5t136 -149.5h-57q-27 72 -110 110.5
t-189 38.5q-74 0 -137 -18.5t-107 -58t-51 -93.5q-5 -35 14 -64t56 -50.5t85.5 -41t103 -38t108.5 -39t101.5 -48t82 -60.5t50.5 -80.5t7 -104.5q-16 -101 -95 -175t-185 -108t-224 -34zM838 1511q36 65 100 64q49 -1 72 -38q29 -47 -21 -100q-7 -8 -16 -16l-322 -276h-18z
" />
    <glyph glyph-name="Scedilla" unicode="&#x15e;" horiz-adv-x="1372" 
d="M543 -418q45 0 76.5 26.5t42.5 65.5q9 49 -20.5 88t-106.5 50l127 168q-122 1 -221.5 36t-168 111t-79.5 182h55q9 -85 71.5 -148t152 -92.5t192.5 -29.5q94 0 176.5 29t143 90t73.5 145q9 55 -12.5 100t-64.5 77.5t-101 61.5t-123 56t-130 55.5t-121.5 65.5t-98 81
t-60 106.5t-6.5 137.5q20 125 110.5 221t212.5 142.5t252 46.5q110 0 202.5 -32t156 -103.5t72.5 -171.5h-56q-8 80 -63 139t-132 86t-165 27q-132 0 -235 -67.5t-124 -190.5q-9 -57 12.5 -103.5t65 -80t102 -62.5t124 -55.5t130.5 -54.5t122.5 -64t99 -79t60.5 -105.5
t7 -137.5q-20 -121 -109 -215t-210.5 -144t-257.5 -58l-78 -99q54 -4 93 -22t57 -44.5t24.5 -55t1.5 -58.5q-11 -69 -64.5 -116t-119 -59.5t-132.5 8.5t-102 75l17 20q65 -49 129 -49z" />
    <glyph glyph-name="scedilla" unicode="&#x15f;" horiz-adv-x="1085" 
d="M375 -424q45 0 77 26.5t42 65.5q10 48 -19 87t-106 50l131 175q-133 5 -235 57.5t-134 146.5h55q32 -73 127 -113t211 -40q121 0 213 47t105 133q7 46 -25 82t-89.5 61.5t-127.5 50t-140 53.5t-125.5 65t-85 92.5t-18.5 127.5q16 93 90 163.5t174.5 104t209.5 33.5
q131 0 232 -50.5t136 -149.5h-57q-27 72 -110 110.5t-189 38.5q-74 0 -137 -18.5t-107 -58t-51 -93.5q-5 -35 14 -64t56 -50.5t85.5 -41t103 -38t108.5 -39t101.5 -48t82 -60.5t50.5 -80.5t7 -104.5q-16 -97 -89 -169.5t-173.5 -108t-214.5 -39.5l-82 -103q105 -7 146 -60.5
t32 -119.5q-11 -69 -64.5 -116t-119.5 -59.5t-133 8.5t-103 75l19 20q62 -49 127 -49z" />
    <glyph glyph-name="Scaron" unicode="&#x160;" horiz-adv-x="1394" 
d="M670 -20q-124 0 -225.5 35t-171 111t-80.5 183h55q9 -85 71.5 -148t152 -92.5t192.5 -29.5q94 0 176.5 29t143 90t73.5 145q9 55 -12.5 100t-64.5 77.5t-101 61.5t-123 56t-130 55.5t-121.5 65.5t-98 81t-60 106.5t-6.5 137.5q20 125 110.5 221t212.5 142.5t252 46.5
q110 0 202.5 -32t156 -103.5t72.5 -171.5h-56q-8 80 -63 139t-132 86t-165 27q-132 0 -235 -67.5t-124 -190.5q-9 -57 12.5 -103.5t65 -80t102 -62.5t124 -55.5t130.5 -54.5t122.5 -64t99 -79t60.5 -105.5t7 -137.5q-21 -127 -119 -225t-231 -146t-274 -48zM864 1604
l-112 364h18l205 -280l289 280h18l-225 -364q-40 -64 -105.5 -68t-87.5 68z" />
    <glyph glyph-name="scaron" unicode="&#x161;" horiz-adv-x="1085" 
d="M526 -20q-91 0 -170.5 22t-140 69t-84.5 113h55q32 -73 127 -113t211 -40q121 0 213 47t105 133q7 46 -25 82t-89.5 61.5t-127.5 50t-140 53.5t-125.5 65t-85 92.5t-18.5 127.5q16 93 90 163.5t174.5 104t209.5 33.5q131 0 232 -50.5t136 -149.5h-57q-27 72 -110 110.5
t-189 38.5q-74 0 -137 -18.5t-107 -58t-51 -93.5q-5 -35 14 -64t56 -50.5t85.5 -41t103 -38t108.5 -39t101.5 -48t82 -60.5t50.5 -80.5t7 -104.5q-16 -101 -95 -175t-185 -108t-224 -34zM643 1214l-113 365h19l203 -281l290 281h19l-225 -365q-40 -64 -105.5 -68t-87.5 68z
" />
    <glyph glyph-name="uni0162" unicode="&#x162;" horiz-adv-x="1429" 
d="M590 0l219 1380h-158h-35q-57 0 -79.5 0.5t-53.5 -5.5t-39 -9.5t-27.5 -24t-27.5 -35t-30 -54.5q-17 -30 -27 -48h-60q71 137 84 156q33 51 78 64q39 11 178 10h62h536h58q168 1 200.5 -21t58.5 -155q7 -34 11 -54h-59q-4 17 -11 47q-22 97 -49 113t-167 16h-35h-160
l-219 -1380h-99l-63 -80q54 -4 93 -22t57 -44.5t24.5 -55t1.5 -58.5q-11 -69 -64.5 -116t-119 -59.5t-132.5 8.5t-102 75l17 20q62 -49 129 -49q45 0 76 26.5t42 65.5q9 49 -20.5 87.5t-106.5 49.5l115 152h-96z" />
    <glyph glyph-name="uni0163" unicode="&#x163;" horiz-adv-x="692" 
d="M260 -426q45 0 76.5 26.5t42.5 65.5q10 48 -19 87t-106 50l131 177q-255 9 -205 323l107 666h-133l8 55h133l37 236h241l-36 -236h229l-8 -55h-230l-116 -738q-8 -57 -7.5 -98.5t23.5 -65.5t72 -26q39 -2 86 13.5t82 41.5l-4 -37q-86 -68 -222 -77l-86 -107
q105 -7 146 -60.5t30 -119.5q-10 -69 -63.5 -116t-118.5 -59.5t-132 8.5t-103 75l18 20q62 -49 127 -49z" />
    <glyph glyph-name="Tcaron" unicode="&#x164;" horiz-adv-x="1429" 
d="M590 0l219 1380h-158h-35q-57 0 -79.5 0.5t-53.5 -5.5t-39 -9.5t-27.5 -24t-27.5 -35t-30 -54.5q-17 -30 -27 -48h-60q71 137 84 156q33 51 78 64q39 11 178 10h62h536h58q168 1 200.5 -21t58.5 -155q7 -34 11 -54h-59q-4 17 -11 47q-22 97 -49 113t-167 16h-35h-160
l-219 -1380h-248zM864 1602l-112 364h18l203 -280l291 280h18l-225 -364q-40 -64 -105.5 -68t-87.5 68z" />
    <glyph glyph-name="tcaron" unicode="&#x165;" horiz-adv-x="692" 
d="M399 -20q-134 0 -189.5 78t-29.5 245l107 666h-133l8 55h133l37 236h241l-36 -236h229l-8 -55h-230l-116 -738q-8 -57 -7.5 -98.5t23.5 -65.5t72 -26q39 -2 86 13.5t82 41.5l-4 -37q-102 -79 -265 -79zM381 1427l-111 365h19l203 -281l290 281h19l-228 -365
q-40 -64 -104 -68t-88 68z" />
    <glyph glyph-name="Tbar" unicode="&#x166;" horiz-adv-x="1429" 
d="M590 0l102 647h-205l11 60h204l107 673h-158h-35q-57 0 -79.5 0.5t-53.5 -5.5t-39 -9.5t-27.5 -24t-27.5 -35t-30 -54.5q-17 -30 -27 -48h-60q71 137 84 156q33 51 78 64q39 11 178 10h62h536h58q168 1 200.5 -21t58.5 -155q7 -34 11 -54h-59q-4 17 -11 47
q-22 97 -49 113t-167 16h-35h-160l-107 -673h201l-10 -60h-201l-102 -647h-248z" />
    <glyph glyph-name="tbar" unicode="&#x167;" horiz-adv-x="692" 
d="M399 -20q-134 0 -189.5 78t-29.5 245l56 348h-107l6 35h107l45 283h-133l8 55h133l37 236h241l-36 -236h229l-8 -55h-230l-45 -283h115l-6 -35h-115l-65 -420q-8 -57 -7.5 -98.5t23.5 -65.5t72 -26q39 -2 86 13.5t82 41.5l-4 -37q-102 -79 -265 -79z" />
    <glyph glyph-name="Umacron" unicode="&#x16a;" horiz-adv-x="1449" 
d="M748 -20q-79 0 -148 13t-132 41.5t-108.5 73.5t-77.5 109.5t-38.5 149.5t8.5 192l102 643q4 27 4.5 51t-5 51.5t-18.5 47t-39 32.5t-63 13l7 37h110q129 0 187 -30.5t65.5 -97.5t-10.5 -173l-96 -596q-19 -111 -9.5 -194t34.5 -140t71.5 -92t100.5 -50.5t122 -15.5
q191 -2 327 132.5t179 402.5l135 854h57l-133 -840q-50 -313 -214 -464.5t-418 -149.5zM702 1595l13 76h665l-12 -76h-666z" />
    <glyph glyph-name="umacron" unicode="&#x16b;" horiz-adv-x="1310" 
d="M530 -20q-348 0 -290 374l69 439q7 30 4 64t-12.5 63t-39 48t-75.5 19l7 37h110q128 0 185 -30t64.5 -96.5t-11.5 -174.5l-54 -332q-8 -50 -11.5 -87.5t-3 -78t10 -68.5t26.5 -51.5t48 -35t74 -11.5q84 0 173 38t165 110l92 586q7 30 4 64t-12.5 63t-39 48t-75.5 19l6 37
h111q128 0 185 -30t64 -96.5t-12 -174.5l-114 -723h-234l25 156q-97 -84 -212 -130t-227 -46zM514 1184l10 76h666l-10 -76h-666z" />
    <glyph glyph-name="Uring" unicode="&#x16e;" horiz-adv-x="1449" 
d="M748 -20q-79 0 -148 13t-132 41.5t-108.5 73.5t-77.5 109.5t-38.5 149.5t8.5 192l102 643q4 27 4.5 51t-5 51.5t-18.5 47t-39 32.5t-63 13l7 37h110q129 0 187 -30.5t65.5 -97.5t-10.5 -173l-96 -596q-19 -111 -9.5 -194t34.5 -140t71.5 -92t100.5 -50.5t122 -15.5
q191 -2 327 132.5t179 402.5l135 854h57l-133 -840q-50 -313 -214 -464.5t-418 -149.5zM1040 1532q-88 0 -140.5 63t-39.5 152t87.5 152t162.5 63t141.5 -63t40.5 -152t-88 -152t-164 -63zM1051 1587q65 0 119.5 47t64.5 113q10 65 -30 111.5t-105 46.5t-118.5 -46
t-63.5 -112t29 -113t104 -47z" />
    <glyph glyph-name="uring" unicode="&#x16f;" horiz-adv-x="1310" 
d="M530 -20q-348 0 -290 374l69 439q7 30 4 64t-12.5 63t-39 48t-75.5 19l7 37h110q128 0 185 -30t64.5 -96.5t-11.5 -174.5l-54 -332q-8 -50 -11.5 -87.5t-3 -78t10 -68.5t26.5 -51.5t48 -35t74 -11.5q84 0 173 38t165 110l92 586q7 30 4 64t-12.5 63t-39 48t-75.5 19l6 37
h111q128 0 185 -30t64 -96.5t-12 -174.5l-114 -723h-234l25 156q-97 -84 -212 -130t-227 -46zM846 1143q-88 0 -140.5 63t-39.5 152t87 152t162 63t142 -63t41 -152t-88 -152t-164 -63zM856 1198q65 0 119.5 47t64.5 113q10 65 -30 111.5t-105 46.5t-118.5 -46t-63.5 -112
t29 -113t104 -47z" />
    <glyph glyph-name="Uhungarumlaut" unicode="&#x170;" horiz-adv-x="1449" 
d="M748 -20q-79 0 -148 13t-132 41.5t-108.5 73.5t-77.5 109.5t-38.5 149.5t8.5 192l102 643q4 27 4.5 51t-5 51.5t-18.5 47t-39 32.5t-63 13l7 37h110q129 0 187 -30.5t65.5 -97.5t-10.5 -173l-96 -596q-19 -111 -9.5 -194t34.5 -140t71.5 -92t100.5 -50.5t122 -15.5
q191 -2 327 132.5t179 402.5l135 854h57l-133 -840q-50 -313 -214 -464.5t-418 -149.5zM1294 1901q36 65 100 65q49 -1 73 -38q31 -46 -17 -99q-9 -10 -20 -19l-322 -276h-16zM1001 1901q37 66 101 65q50 -1 73 -39q30 -48 -20 -101q-7 -8 -16 -16l-322 -276h-18z" />
    <glyph glyph-name="uhungarumlaut" unicode="&#x171;" horiz-adv-x="1310" 
d="M530 -20q-348 0 -290 374l69 439q7 30 4 64t-12.5 63t-39 48t-75.5 19l7 37h110q128 0 185 -30t64.5 -96.5t-11.5 -174.5l-54 -332q-8 -50 -11.5 -87.5t-3 -78t10 -68.5t26.5 -51.5t48 -35t74 -11.5q84 0 173 38t165 110l92 586q7 30 4 64t-12.5 63t-39 48t-75.5 19l6 37
h111q128 0 185 -30t64 -96.5t-12 -174.5l-114 -723h-234l25 156q-97 -84 -212 -130t-227 -46zM1126 1518q36 65 100 65q49 -1 73 -38q31 -46 -17 -99q-9 -10 -20 -19l-322 -276h-16zM834 1518q38 66 102 65q49 -2 72 -39q29 -48 -21 -101q-7 -8 -16 -16l-322 -276h-18z" />
    <glyph glyph-name="Uogonek" unicode="&#x172;" horiz-adv-x="1449" 
d="M967 -362q-107 -102 -230 -114q-104 -11 -154 48q-62 73 3 204q46 95 155 204q-78 1 -146 14t-130.5 42t-107.5 74.5t-76 109.5t-37.5 148t8.5 191l102 643q4 27 4.5 51t-5 51.5t-18.5 47t-39 32.5t-63 13l7 37h110q129 0 187 -30.5t65.5 -97.5t-10.5 -173l-96 -596
q-19 -111 -9.5 -194t34.5 -140t71.5 -92t100.5 -50.5t122 -15.5q191 -2 327 132.5t179 402.5l135 854h57l-133 -840q-48 -299 -199.5 -450.5t-387.5 -163.5q-109 -132 -82 -244q17 -75 85 -105q76 -33 152 14q4 2 8 5z" />
    <glyph glyph-name="uogonek" unicode="&#x173;" horiz-adv-x="1310" 
d="M530 -20q-348 0 -290 374l69 439q7 30 4 64t-12.5 63t-39 48t-75.5 19l7 37h110q128 0 185 -30t64.5 -96.5t-11.5 -174.5l-54 -332q-8 -50 -11.5 -87.5t-3 -78t10 -68.5t26.5 -51.5t48 -35t74 -11.5q84 0 173 38t165 110l92 586q7 30 4 64t-12.5 63t-39 48t-75.5 19l6 37
h111q128 0 185 -30t64 -96.5t-12 -174.5l-114 -723h-86q-117 -133 -95 -249q15 -77 82 -110q74 -35 152 8q7 4 14 9l10 -12q-108 -102 -232 -114q-104 -11 -154 49q-60 73 7 206q50 99 166 213h-98l25 156q-97 -84 -212 -130t-227 -46z" />
    <glyph glyph-name="Wcircumflex" unicode="&#x174;" horiz-adv-x="2246" 
d="M844 0q-126 0 -187.5 46.5t-81.5 160.5l-186 969q-8 42 -15 69t-20 58.5t-29.5 50t-42.5 31t-59 12.5l6 37h162q124 0 177.5 -44.5t74.5 -158.5l188 -995l469 981q-20 88 -54 134t-103 46l6 37h160q124 0 176.5 -44t73.5 -159l192 -998l571 1201h60l-608 -1272
q24 -64 68.5 -92.5t117.5 -30.5l-6 -39h-193q-125 0 -184.5 46.5t-81.5 160.5l-178 923l-463 -968q23 -64 67.5 -92.5t120.5 -30.5l-6 -39h-192zM1376 1909q20 35 50 52.5t58 15.5t51.5 -20t33.5 -48l108 -367h-18l-201 281l-293 -281h-18z" />
    <glyph glyph-name="wcircumflex" unicode="&#x175;" horiz-adv-x="1841" 
d="M719 0q-119 3 -175.5 48t-74.5 157l-111 561q-11 52 -22 86t-31 68t-51 50.5t-74 16.5l6 37h179q116 -1 170 -47t71 -156l117 -590l321 592q-22 78 -59 121t-106 43l6 37h178q118 -1 171.5 -47t72.5 -156l118 -588l424 791h62l-465 -864q22 -66 59 -93.5t103 -27.5
l-6 -39h-181q-120 3 -175 47.5t-72 157.5l-117 536l-314 -587q17 -63 54.5 -89t107.5 -26l-6 -39h-180zM1114 1518q21 35 51.5 52.5t58 15.5t51 -20t32.5 -48l110 -367h-18l-201 281l-293 -281h-18z" />
    <glyph glyph-name="Ycircumflex" unicode="&#x176;" horiz-adv-x="1421" 
d="M584 0l96 606l-252 588q-44 98 -65 128q-53 75 -136 75l6 37h222q57 0 94.5 -10.5t62 -35.5t40 -52.5t35.5 -74.5q6 -15 9 -22l213 -510l570 705h67l-610 -758l-107 -676h-245zM1012 1905q21 35 51 52.5t57.5 15.5t51 -20t32.5 -48l111 -367h-19l-200 281l-293 -281h-19z
" />
    <glyph glyph-name="ycircumflex" unicode="&#x177;" horiz-adv-x="1206" 
d="M319 -512l281 479l-240 799q-13 46 -20.5 69.5t-23 57.5t-32 51t-43.5 30t-61 13l6 37h195q59 -1 96 -11t63.5 -37t41.5 -60.5t34 -94.5l154 -565l447 768h59l-895 -1536h-62zM819 1513q28 47 69 61.5t76 -3t48 -58.5l110 -366h-18l-203 280l-291 -280h-18z" />
    <glyph glyph-name="Ydieresis" unicode="&#x178;" horiz-adv-x="1421" 
d="M584 0l96 606l-252 588q-44 98 -65 128q-53 75 -136 75l6 37h222q57 0 94.5 -10.5t62 -35.5t40 -52.5t35.5 -74.5q6 -15 9 -22l213 -510l570 705h67l-610 -758l-107 -676h-245zM895 1528q-56 0 -87 36t-22 93q9 56 52 93t98 34q55 -2 85 -37t21 -90q-9 -57 -51 -93
t-96 -36zM1235 1528q-56 0 -88 36.5t-23 92.5q9 55 52.5 90t99.5 35q53 0 84 -35t22 -90q-9 -56 -51.5 -92.5t-95.5 -36.5z" />
    <glyph glyph-name="Zacute" unicode="&#x179;" horiz-adv-x="1445" 
d="M164 0l1022 1380h-477q-154 0 -182 -5q-46 -8 -74 -46q-11 -15 -70 -121l-2 -4h-59q72 138 83 155q33 51 77 64q38 12 174 11h65h788l-1024 -1381h445h47q64 0 89 -1t62 8.5t45 12.5t35 34t35.5 47.5t42.5 77.5q20 35 31 55h59q-10 -20 -29 -55q-72 -135 -101 -170
q-40 -46 -106 -56q-40 -7 -168 -6h-57h-751zM1055 1907q36 65 100 64q49 -1 72 -38q29 -47 -21 -100q-7 -8 -16 -16l-322 -277h-18z" />
    <glyph glyph-name="zacute" unicode="&#x17a;" horiz-adv-x="1232" 
d="M145 0l773 969h-291q-149 1 -178 -4q-44 -8 -71 -46q-11 -14 -67 -118h-61q70 134 82 151q32 50 77 62q38 11 177 10h61h602l-772 -969h301q141 -1 171 5q41 9 68 48q9 12 66 117h60q-68 -134 -82 -155q-32 -48 -80 -61q-38 -10 -182 -9h-51h-603zM940 1511q36 65 100 64
q49 -1 72 -38q29 -47 -21 -100q-7 -8 -16 -16l-321 -276h-19z" />
    <glyph glyph-name="Zdotaccent" unicode="&#x17b;" horiz-adv-x="1445" 
d="M164 0l1022 1380h-477q-154 0 -182 -5q-46 -8 -74 -46q-11 -15 -70 -121l-2 -4h-59q72 138 83 155q33 51 77 64q38 12 174 11h65h788l-1024 -1381h445h47q64 0 89 -1t62 8.5t45 12.5t35 34t35.5 47.5t42.5 77.5q20 35 31 55h59q-10 -20 -29 -55q-72 -135 -101 -170
q-40 -46 -106 -56q-40 -7 -168 -6h-57h-751zM901 1534q-56 0 -86.5 36t-23.5 91q9 55 51 90t98 35q55 0 85.5 -35t21.5 -90q-7 -55 -49 -91t-97 -36z" />
    <glyph glyph-name="zdotaccent" unicode="&#x17c;" horiz-adv-x="1232" 
d="M145 0l773 969h-291q-149 1 -178 -4q-44 -8 -71 -46q-11 -14 -67 -118h-61q70 134 82 151q32 50 77 62q38 11 177 10h61h602l-772 -969h301q141 -1 171 5q41 9 68 48q9 12 66 117h60q-68 -134 -82 -155q-32 -48 -80 -61q-38 -10 -182 -9h-51h-603zM801 1143q-56 0 -87 36
t-22 91t51.5 90t98.5 35q54 0 84.5 -35t21.5 -90t-51 -91t-96 -36z" />
    <glyph glyph-name="Zcaron" unicode="&#x17d;" horiz-adv-x="1445" 
d="M164 0l1022 1380h-477q-154 0 -182 -5q-46 -8 -74 -46q-11 -15 -70 -121l-2 -4h-59q72 138 83 155q33 51 77 64q38 12 174 11h65h788l-1024 -1381h445h47q64 0 89 -1t62 8.5t45 12.5t35 34t35.5 47.5t42.5 77.5q20 35 31 55h59q-10 -20 -29 -55q-72 -135 -101 -170
q-40 -46 -106 -56q-40 -7 -168 -6h-57h-751zM831 1612l-112 364h18l203 -280l291 280h18l-225 -364q-42 -64 -106.5 -68t-86.5 68z" />
    <glyph glyph-name="zcaron" unicode="&#x17e;" horiz-adv-x="1232" 
d="M145 0l773 969h-291q-149 1 -178 -4q-44 -8 -71 -46q-11 -14 -67 -118h-61q70 134 82 151q32 50 77 62q38 11 177 10h61h602l-772 -969h301q141 -1 171 5q41 9 68 48q9 12 66 117h60q-68 -134 -82 -155q-32 -48 -80 -61q-38 -10 -182 -9h-51h-603zM713 1214l-113 365h18
l203 -281l291 281h18l-225 -365q-40 -64 -105 -68t-87 68z" />
    <glyph glyph-name="florin" unicode="&#x192;" horiz-adv-x="925" 
d="M-385 -551q92 1 155 20t109.5 66t77 106t68.5 160l432 1168h-140l9 55h149l19 45q39 117 103.5 198t151.5 125t188 60t224 8l-12 -30q-55 0 -98.5 -7.5t-77.5 -19.5t-63 -36t-50 -48t-43 -65.5t-38.5 -79t-39.5 -97.5l-18 -53h233l-8 -55h-248l-428 -1159
q-42 -117 -107 -197.5t-151 -124.5t-185.5 -60t-223.5 -8z" />
    <glyph glyph-name="uni0218" unicode="&#x218;" horiz-adv-x="1372" 
d="M670 -20q-124 0 -225.5 35t-171 111t-80.5 183h55q9 -85 71.5 -148t152 -92.5t192.5 -29.5q94 0 176.5 29t143 90t73.5 145q9 55 -12.5 100t-64.5 77.5t-101 61.5t-123 56t-130 55.5t-121.5 65.5t-98 81t-60 106.5t-6.5 137.5q20 125 110.5 221t212.5 142.5t252 46.5
q110 0 202.5 -32t156 -103.5t72.5 -171.5h-56q-8 80 -63 139t-132 86t-165 27q-132 0 -235 -67.5t-124 -190.5q-9 -57 12.5 -103.5t65 -80t102 -62.5t124 -55.5t130.5 -54.5t122.5 -64t99 -79t60.5 -105.5t7 -137.5q-21 -127 -119 -225t-231 -146t-274 -48zM553 -520
q56 67 65 135q4 22 -5.5 37.5t-25 25.5t-30.5 21t-23.5 33.5t-3.5 54.5q7 50 45 80.5t82 30.5q52 0 77 -35.5t16 -91.5q-11 -73 -67.5 -163t-109.5 -138z" />
    <glyph glyph-name="uni0219" unicode="&#x219;" horiz-adv-x="1085" 
d="M526 -20q-91 0 -170.5 22t-140 69t-84.5 113h55q32 -73 127 -113t211 -40q121 0 213 47t105 133q7 46 -25 82t-89.5 61.5t-127.5 50t-140 53.5t-125.5 65t-85 92.5t-18.5 127.5q16 93 90 163.5t174.5 104t209.5 33.5q131 0 232 -50.5t136 -149.5h-57q-27 72 -110 110.5
t-189 38.5q-74 0 -137 -18.5t-107 -58t-51 -93.5q-5 -35 14 -64t56 -50.5t85.5 -41t103 -38t108.5 -39t101.5 -48t82 -60.5t50.5 -80.5t7 -104.5q-16 -101 -95 -175t-185 -108t-224 -34zM422 -520q56 67 65 135q4 22 -5.5 37.5t-25 25.5t-30.5 21t-23.5 33.5t-3.5 54.5
q7 50 45 80.5t82 30.5q52 0 76.5 -35.5t15.5 -91.5q-11 -73 -67.5 -163.5t-108.5 -137.5z" />
    <glyph glyph-name="uni021A" unicode="&#x21a;" horiz-adv-x="1429" 
d="M590 0l219 1380h-158h-35q-57 0 -79.5 0.5t-53.5 -5.5t-39 -9.5t-27.5 -24t-27.5 -35t-30 -54.5q-17 -30 -27 -48h-60q71 137 84 156q33 51 78 64q39 11 178 10h62h536h58q168 1 200.5 -21t58.5 -155q7 -34 11 -54h-59q-4 17 -11 47q-22 97 -49 113t-167 16h-35h-160
l-219 -1380h-248zM600 -502q56 67 68 135q3 22 -6.5 37.5t-25 25.5t-31 21t-24 33.5t-3.5 54.5q7 50 46 80.5t83 30.5q51 0 75.5 -35t16.5 -92q-13 -74 -69 -164.5t-109 -136.5z" />
    <glyph glyph-name="uni021B" unicode="&#x21b;" horiz-adv-x="692" 
d="M399 -20q-134 0 -189.5 78t-29.5 245l107 666h-133l8 55h133l37 236h241l-36 -236h229l-8 -55h-230l-116 -738q-8 -57 -7.5 -98.5t23.5 -65.5t72 -26q39 -2 86 13.5t82 41.5l-4 -37q-102 -79 -265 -79zM203 -518q56 67 65 135q4 22 -5.5 37.5t-25 25.5t-30.5 21
t-23.5 33.5t-3.5 54.5q7 50 45 80.5t82 30.5q52 0 76.5 -35.5t15.5 -91.5q-11 -73 -67.5 -163.5t-108.5 -137.5z" />
    <glyph glyph-name="circumflex" unicode="&#x2c6;" horiz-adv-x="737" 
d="M539 1493q21 35 51 52.5t57.5 15.5t51 -20t32.5 -48l111 -367h-19l-200 281l-293 -281h-19z" />
    <glyph glyph-name="caron" unicode="&#x2c7;" horiz-adv-x="737" 
d="M492 1196l-111 365h18l203 -281l291 281h18l-227 -365q-40 -64 -104 -68t-88 68z" />
    <glyph glyph-name="breve" unicode="&#x2d8;" horiz-adv-x="831" 
d="M625 1135q-131 0 -205.5 79.5t-54.5 245.5h24q-7 -86 67 -129t193 -43q121 0 208 43t108 129h24q-32 -167 -131 -246t-233 -79z" />
    <glyph glyph-name="dotaccent" unicode="&#x2d9;" horiz-adv-x="460" 
d="M440 1130q-55 0 -85.5 35.5t-22.5 91.5q9 55 51 90t98 35q55 0 85.5 -35t21.5 -90q-7 -55 -50 -91t-98 -36z" />
    <glyph glyph-name="ring" unicode="&#x2da;" horiz-adv-x="634" 
d="M524 1116q-88 0 -140.5 63t-39.5 152t87.5 152t162.5 63t141.5 -63t40.5 -152t-88 -152t-164 -63zM535 1171q65 0 119.5 47t64.5 113q10 65 -30 111.5t-105 46.5t-119 -46t-64 -112t29.5 -113t104.5 -47z" />
    <glyph glyph-name="ogonek" unicode="&#x2db;" horiz-adv-x="620" 
d="M498 -336q-106 -101 -230 -114q-104 -11 -154 48q-62 72 2 203q56 113 199 246l23 -24q-119 -134 -98 -252q14 -78 82 -111q73 -36 151 7q7 4 14 9z" />
    <glyph glyph-name="tilde" unicode="&#x2dc;" horiz-adv-x="903" 
d="M858 1137q-72 0 -210 49t-185 49q-53 0 -82 -17t-35 -59h-27q13 128 62 179t125 51q70 0 208.5 -49.5t190.5 -49.5q104 0 117 76h27q-13 -116 -65.5 -172.5t-125.5 -56.5z" />
    <glyph glyph-name="hungarumlaut" unicode="&#x2dd;" horiz-adv-x="831" 
d="M807 1493q36 66 101 65q49 -1 72 -38q30 -47 -20 -100q-8 -9 -18 -17l-321 -277h-17zM514 1493q38 66 102 65q50 -1 72 -39q29 -48 -22 -102q-7 -7 -15 -14l-321 -277h-19z" />
    <glyph glyph-name="gravecomb" unicode="&#x300;" 
d="M389 1403q-45 54 -7 106q31 41 83 47q61 7 84 -46q4 -8 6 -17l90 -367h-18z" />
    <glyph glyph-name="acutecomb" unicode="&#x301;" 
d="M516 1493q36 65 100 64q49 -1 72 -38q29 -47 -21 -100q-7 -8 -16 -16l-321 -277h-19z" />
    <glyph glyph-name="uni0302" unicode="&#x302;" 
d="M539 1493q21 35 51 52.5t57.5 15.5t51 -20t32.5 -48l111 -367h-19l-200 281l-293 -281h-19z" />
    <glyph glyph-name="tildecomb" unicode="&#x303;" 
d="M858 1137q-72 0 -210 49t-185 49q-53 0 -82 -17t-35 -59h-27q13 128 62 179t125 51q70 0 208.5 -49.5t190.5 -49.5q104 0 117 76h27q-13 -116 -65.5 -172.5t-125.5 -56.5z" />
    <glyph glyph-name="uni0304" unicode="&#x304;" 
d="M322 1184l10 76h665l-10 -76h-665z" />
    <glyph glyph-name="uni0306" unicode="&#x306;" 
d="M625 1135q-131 0 -205.5 79.5t-54.5 245.5h24q-7 -86 67 -129t193 -43q121 0 208 43t108 129h24q-32 -167 -131 -246t-233 -79z" />
    <glyph glyph-name="uni0307" unicode="&#x307;" 
d="M440 1130q-55 0 -85.5 35.5t-22.5 91.5q9 55 51 90t98 35q55 0 85.5 -35t21.5 -90q-7 -55 -50 -91t-98 -36z" />
    <glyph glyph-name="uni0308" unicode="&#x308;" 
d="M440 1128q-56 0 -86.5 36t-21.5 93q9 56 51.5 93t97.5 34q55 -2 85.5 -37t21.5 -90q-9 -56 -51 -92.5t-97 -36.5zM780 1128q-56 0 -87.5 36t-22.5 93q9 55 52 90t99 35q53 0 84.5 -35t22.5 -90q-9 -56 -52 -92.5t-96 -36.5z" />
    <glyph glyph-name="uni030A" unicode="&#x30a;" 
d="M524 1116q-88 0 -140.5 63t-39.5 152t87.5 152t162.5 63t141.5 -63t40.5 -152t-88 -152t-164 -63zM535 1171q65 0 119.5 47t64.5 113q10 65 -30 111.5t-105 46.5t-119 -46t-64 -112t29.5 -113t104.5 -47z" />
    <glyph glyph-name="uni030B" unicode="&#x30b;" 
d="M807 1493q36 66 101 65q49 -1 72 -38q30 -47 -20 -100q-8 -9 -18 -17l-321 -277h-17zM514 1493q38 66 102 65q50 -1 72 -39q29 -48 -22 -102q-7 -7 -15 -14l-321 -277h-19z" />
    <glyph glyph-name="uni030C" unicode="&#x30c;" 
d="M492 1196l-111 365h18l203 -281l291 281h18l-227 -365q-40 -64 -104 -68t-88 68z" />
    <glyph glyph-name="uni0312" unicode="&#x312;" 
d="M426 1126q-53 0 -78 35.5t-16 93.5q11 73 67.5 161.5t110.5 135.5l20 -8q-55 -67 -67 -133q-3 -22 6.5 -37.5t25 -25t31 -21t24 -34.5t3.5 -56q-9 -50 -46 -80.5t-81 -30.5z" />
    <glyph glyph-name="uni0326" unicode="&#x326;" 
d="M119 -549q57 72 65 135q3 22 -6.5 37.5t-25 25.5t-31 21t-24 33.5t-3.5 54.5q9 50 47 80.5t82 30.5q52 0 76.5 -35.5t15.5 -91.5q-11 -73 -67.5 -163.5t-108.5 -137.5z" />
    <glyph glyph-name="uni0327" unicode="&#x327;" 
d="M219 -401q45 0 76.5 26.5t42.5 65.5q10 48 -19.5 87t-105.5 50l147 197h56l-101 -125q54 -4 93 -22t57.5 -45t25 -55.5t1.5 -58.5q-11 -69 -64.5 -116t-118.5 -59.5t-132 8.5t-103 75l18 21q62 -49 127 -49z" />
    <glyph glyph-name="uni0328" unicode="&#x328;" 
d="M498 -336q-106 -101 -230 -114q-104 -11 -154 48q-62 72 2 203q56 113 199 246l23 -24q-119 -134 -98 -252q14 -78 82 -111q73 -36 151 7q7 4 14 9z" />
    <glyph glyph-name="uni0335" unicode="&#x335;" 
d="M223 571l10 60h654l-10 -60h-654z" />
    <glyph glyph-name="uni0336" unicode="&#x336;" 
d="M223 571l10 60h746l-10 -60h-746z" />
    <glyph glyph-name="uni0337" unicode="&#x337;" 
d="M129 -31l674 690h71l-673 -690h-72z" />
    <glyph glyph-name="uni0338" unicode="&#x338;" 
d="M123 -59l1184 1267h75l-1187 -1267h-72z" />
    <glyph glyph-name="uni03BC" unicode="&#x3bc;" horiz-adv-x="1308" 
d="M381 793q7 30 4 64t-12.5 63t-39 48t-75.5 19l6 37h109q129 0 185.5 -30t63.5 -96.5t-12 -174.5l-53 -332q-10 -61 -13.5 -104.5t1.5 -89t21.5 -74t50.5 -46.5t85 -18q83 0 171.5 38t166.5 110l93 586q7 30 4 64t-12.5 63t-39 48t-75.5 19l6 37h108q129 0 186 -30
t64 -96.5t-12 -174.5l-115 -723h-231l24 156q-90 -77 -196.5 -123.5t-208.5 -50.5q-91 -3 -137 32l-92 -587h-240z" />
    <glyph glyph-name="Wgrave" unicode="&#x1e80;" horiz-adv-x="2246" 
d="M844 0q-126 0 -187.5 46.5t-81.5 160.5l-186 969q-8 42 -15 69t-20 58.5t-29.5 50t-42.5 31t-59 12.5l6 37h162q124 0 177.5 -44.5t74.5 -158.5l188 -995l469 981q-20 88 -54 134t-103 46l6 37h160q124 0 176.5 -44t73.5 -159l192 -998l571 1201h60l-608 -1272
q24 -64 68.5 -92.5t117.5 -30.5l-6 -39h-193q-125 0 -184.5 46.5t-81.5 160.5l-178 923l-463 -968q23 -64 67.5 -92.5t120.5 -30.5l-6 -39h-192zM1202 1815q-45 54 -7 106q31 41 83 47q61 7 84 -46q4 -8 6 -17l90 -367h-18z" />
    <glyph glyph-name="wgrave" unicode="&#x1e81;" horiz-adv-x="1841" 
d="M719 0q-119 3 -175.5 48t-74.5 157l-111 561q-11 52 -22 86t-31 68t-51 50.5t-74 16.5l6 37h179q116 -1 170 -47t71 -156l117 -590l321 592q-22 78 -59 121t-106 43l6 37h178q118 -1 171.5 -47t72.5 -156l118 -588l424 791h62l-465 -864q22 -66 59 -93.5t103 -27.5
l-6 -39h-181q-120 3 -175 47.5t-72 157.5l-117 536l-314 -587q17 -63 54.5 -89t107.5 -26l-6 -39h-180zM963 1423q-46 55 -7 107q31 41 83 46q60 7 83 -46q4 -8 6 -17l91 -366h-19z" />
    <glyph glyph-name="Wacute" unicode="&#x1e82;" horiz-adv-x="2246" 
d="M844 0q-126 0 -187.5 46.5t-81.5 160.5l-186 969q-8 42 -15 69t-20 58.5t-29.5 50t-42.5 31t-59 12.5l6 37h162q124 0 177.5 -44.5t74.5 -158.5l188 -995l469 981q-20 88 -54 134t-103 46l6 37h160q124 0 176.5 -44t73.5 -159l192 -998l571 1201h60l-608 -1272
q24 -64 68.5 -92.5t117.5 -30.5l-6 -39h-193q-125 0 -184.5 46.5t-81.5 160.5l-178 923l-463 -968q23 -64 67.5 -92.5t120.5 -30.5l-6 -39h-192zM1513 1909q35 65 98 64q50 0 74 -38q30 -47 -20 -100q-7 -8 -16 -16l-324 -277h-18z" />
    <glyph glyph-name="wacute" unicode="&#x1e83;" horiz-adv-x="1841" 
d="M719 0q-119 3 -175.5 48t-74.5 157l-111 561q-11 52 -22 86t-31 68t-51 50.5t-74 16.5l6 37h179q116 -1 170 -47t71 -156l117 -590l321 592q-22 78 -59 121t-106 43l6 37h178q118 -1 171.5 -47t72.5 -156l118 -588l424 791h62l-465 -864q22 -66 59 -93.5t103 -27.5
l-6 -39h-181q-120 3 -175 47.5t-72 157.5l-117 536l-314 -587q17 -63 54.5 -89t107.5 -26l-6 -39h-180zM1214 1509q35 65 98 64q50 0 74 -38q30 -47 -20 -100q-7 -8 -16 -16l-324 -276h-18z" />
    <glyph glyph-name="Wdieresis" unicode="&#x1e84;" horiz-adv-x="2246" 
d="M844 0q-126 0 -187.5 46.5t-81.5 160.5l-186 969q-8 42 -15 69t-20 58.5t-29.5 50t-42.5 31t-59 12.5l6 37h162q124 0 177.5 -44.5t74.5 -158.5l188 -995l469 981q-20 88 -54 134t-103 46l6 37h160q124 0 176.5 -44t73.5 -159l192 -998l571 1201h60l-608 -1272
q24 -64 68.5 -92.5t117.5 -30.5l-6 -39h-193q-125 0 -184.5 46.5t-81.5 160.5l-178 923l-463 -968q23 -64 67.5 -92.5t120.5 -30.5l-6 -39h-192zM1249 1538q-56 0 -86.5 36t-21.5 93q9 56 51.5 93t97.5 34q55 -2 85.5 -37t21.5 -90q-9 -56 -51 -92.5t-97 -36.5zM1589 1538
q-56 0 -87.5 36t-22.5 93q9 55 52 90t99 35q53 0 84.5 -35t22.5 -90q-9 -56 -52 -92.5t-96 -36.5z" />
    <glyph glyph-name="wdieresis" unicode="&#x1e85;" horiz-adv-x="1841" 
d="M719 0q-119 3 -175.5 48t-74.5 157l-111 561q-11 52 -22 86t-31 68t-51 50.5t-74 16.5l6 37h179q116 -1 170 -47t71 -156l117 -590l321 592q-22 78 -59 121t-106 43l6 37h178q118 -1 171.5 -47t72.5 -156l118 -588l424 791h62l-465 -864q22 -66 59 -93.5t103 -27.5
l-6 -39h-181q-120 3 -175 47.5t-72 157.5l-117 536l-314 -587q17 -63 54.5 -89t107.5 -26l-6 -39h-180zM983 1151q-56 0 -87 36t-22 93q9 56 52 93t98 34q55 -2 85 -37t21 -90q-9 -57 -51 -93t-96 -36zM1323 1151q-56 0 -88 36.5t-23 92.5q9 55 52.5 90t99.5 35q53 0 84 -35
t22 -90q-9 -56 -51.5 -92.5t-95.5 -36.5z" />
    <glyph glyph-name="Ygrave" unicode="&#x1ef2;" horiz-adv-x="1421" 
d="M584 0l96 606l-252 588q-44 98 -65 128q-53 75 -136 75l6 37h222q57 0 94.5 -10.5t62 -35.5t40 -52.5t35.5 -74.5q6 -15 9 -22l213 -510l570 705h67l-610 -758l-107 -676h-245zM817 1810q-45 54 -7 107q31 41 83 47q61 7 84 -46q4 -8 6 -17l90 -367h-18z" />
    <glyph glyph-name="ygrave" unicode="&#x1ef3;" horiz-adv-x="1206" 
d="M319 -512l281 479l-240 799q-13 46 -20.5 69.5t-23 57.5t-32 51t-43.5 30t-61 13l6 37h195q59 -1 96 -11t63.5 -37t41.5 -60.5t34 -94.5l154 -565l447 768h59l-895 -1536h-62zM672 1423q-45 54 -7 106q31 41 83 47q61 7 84 -46q4 -8 6 -17l90 -366h-19z" />
    <glyph glyph-name="endash" unicode="&#x2013;" horiz-adv-x="1144" 
d="M193 567l8 58h981l-8 -58h-981z" />
    <glyph glyph-name="emdash" unicode="&#x2014;" horiz-adv-x="1861" 
d="M193 567l8 58h1697l-8 -58h-1697z" />
    <glyph glyph-name="quoteleft" unicode="&#x2018;" horiz-adv-x="387" 
d="M387 1081q-52 0 -77 35t-17 92q12 73 68 161.5t108 135.5l25 -8q-24 -24 -43 -61.5t-25 -71.5q-3 -22 6.5 -37.5t24.5 -25t30 -21t23.5 -34.5t3.5 -56q-7 -50 -45 -79.5t-82 -29.5z" />
    <glyph glyph-name="quoteright" unicode="&#x2019;" horiz-adv-x="387" 
d="M336 1036q56 56 70 135q3 22 -6.5 37t-25.5 25t-31.5 22t-24 35t-3.5 56q7 49 44 78.5t81 29.5q53 0 79 -35t18 -92q-13 -74 -69.5 -163.5t-109.5 -135.5z" />
    <glyph glyph-name="quotesinglbase" unicode="&#x201a;" horiz-adv-x="387" 
d="M135 -229q57 60 70 137q3 22 -6.5 37t-25 24.5t-31 21t-24 34t-3.5 55.5q7 49 45 78.5t82 29.5q53 0 77.5 -35t16.5 -92q-11 -72 -68 -162.5t-110 -136.5z" />
    <glyph glyph-name="quotedblleft" unicode="&#x201c;" horiz-adv-x="679" 
d="M680 1081q-52 0 -77 35t-17 92q12 73 68 161.5t108 135.5l24 -8q-25 -25 -44 -62t-25 -71q-3 -22 6.5 -37.5t25 -25t31 -21t24 -34.5t3.5 -56q-7 -50 -45 -79.5t-82 -29.5zM387 1081q-52 0 -77 35t-17 92q12 73 68 161.5t108 135.5l25 -8q-24 -24 -43 -61.5t-25 -71.5
q-3 -22 6.5 -37.5t24.5 -25t30 -21t23.5 -34.5t3.5 -56q-7 -50 -45 -79.5t-82 -29.5z" />
    <glyph glyph-name="quotedblright" unicode="&#x201d;" horiz-adv-x="679" 
d="M629 1036q55 59 69 135q3 22 -6.5 37t-25 25t-31 22t-24 35t-3.5 56q7 49 44 78.5t81 29.5q52 0 78 -35.5t18 -91.5q-13 -74 -69 -163.5t-109 -135.5zM336 1036q56 56 70 135q3 22 -6.5 37t-25.5 25t-31.5 22t-24 35t-3.5 56q7 49 44 78.5t81 29.5q53 0 79 -35t18 -92
q-13 -74 -69.5 -163.5t-109.5 -135.5z" />
    <glyph glyph-name="quotedblbase" unicode="&#x201e;" horiz-adv-x="679" 
d="M428 -229q58 65 70 137q3 22 -6.5 37t-25 24.5t-31 21t-24 34t-3.5 55.5q7 49 45 78.5t82 29.5q52 0 77 -35t17 -92q-11 -72 -68 -162.5t-110 -136.5zM135 -229q57 60 70 137q3 22 -6.5 37t-25 24.5t-31 21t-24 34t-3.5 55.5q7 49 45 78.5t82 29.5q53 0 77.5 -35
t16.5 -92q-11 -72 -68 -162.5t-110 -136.5z" />
    <glyph glyph-name="dagger" unicode="&#x2020;" horiz-adv-x="659" 
d="M344 2l98 932l86 237q-63 -3 -109.5 -22t-79 -36t-63.5 -17l27 174q31 0 58 -17t67.5 -36.5t101.5 -22.5q7 62 -6 105.5t-26.5 73.5t-8.5 61h175q-4 -25 -19 -50t-32 -44t-36.5 -57.5t-29.5 -88.5q63 3 109.5 22.5t79 36.5t63.5 17l-27 -174q-26 0 -49 10.5t-40 24
t-53.5 25.5t-84.5 15l10 -237l-199 -932h-12z" />
    <glyph glyph-name="daggerdbl" unicode="&#x2021;" horiz-adv-x="659" 
d="M254 -55q4 25 19 50t32 44t36.5 57.5t29.5 87.5q-62 -3 -108 -22t-79 -36t-65 -17l28 174q32 0 59 -17t67.5 -37t101.5 -24q6 69 -2 112t-16 68.5t-3 56.5l97 250l-17 248q4 25 15 47.5t23.5 39.5t28 56.5t27.5 94.5q-63 -4 -109 -23.5t-78.5 -36t-64.5 -16.5l29 174
q26 0 49 -11t40 -24.5t53 -26t85 -14.5q6 62 -7.5 105t-27 72t-8.5 59h175q-4 -25 -19 -49t-32 -43t-35.5 -57t-28.5 -87q62 3 108.5 22t79.5 36.5t64 17.5l-29 -174q-31 0 -58 16.5t-67.5 36t-101.5 23.5q-6 -69 1.5 -112.5t15.5 -69t3 -56.5l-98 -248l18 -250
q-5 -31 -21 -57t-37 -69t-36 -111q63 4 109.5 24t79 37t63.5 17l-29 -174q-25 0 -48 10.5t-40 24t-53.5 25.5t-85.5 15q-7 -63 6 -106t26.5 -72.5t8.5 -60.5h-174z" />
    <glyph glyph-name="bullet" unicode="&#x2022;" horiz-adv-x="745" 
d="M457 393q-120 0 -192.5 86.5t-53.5 206.5t119.5 205.5t220.5 85.5t190.5 -85.5t51.5 -205.5t-117.5 -206.5t-218.5 -86.5z" />
    <glyph glyph-name="ellipsis" unicode="&#x2026;" horiz-adv-x="1087" 
d="M911 -20q-48 0 -74.5 31.5t-19.5 80.5q8 45 46 78t85 33q45 0 72.5 -33t19.5 -78q-7 -49 -44.5 -80.5t-84.5 -31.5zM211 -20q-47 0 -74 31.5t-20 80.5q8 44 46.5 77.5t84.5 33.5q44 0 72 -33.5t20 -77.5q-7 -48 -45.5 -80t-83.5 -32zM563 -23q-48 0 -75.5 33t-20.5 82
q8 44 47 76.5t86 32.5q45 0 71.5 -32t18.5 -77q-7 -49 -44 -82t-83 -33z" />
    <glyph glyph-name="perthousand" unicode="&#x2030;" horiz-adv-x="2082" 
d="M209 0l1243 1434h64l-1242 -1434h-65zM1022 -18q-134 0 -210 89.5t-56 219.5q22 129 125 218t237 89t209 -89t53 -218q-20 -130 -122 -219.5t-236 -89.5zM1028 18q59 0 112 78.5t72 194.5q20 117 -8.5 194.5t-87.5 77.5t-112.5 -77.5t-73.5 -194.5q-19 -116 10 -194.5
t88 -78.5zM549 838q-134 0 -210 89.5t-54 219.5q20 129 123 218t237 89q133 0 208.5 -89.5t55.5 -217.5q-22 -130 -125 -219.5t-235 -89.5zM557 874q59 0 112 78.5t72 194.5q19 117 -10 194.5t-88 77.5t-112 -77.5t-72 -194.5q-19 -116 10 -194.5t88 -78.5zM1708 -18
q-134 0 -210 89.5t-56 219.5q22 129 125 218t237 89q132 0 208 -89.5t54 -217.5q-20 -130 -123.5 -219.5t-234.5 -89.5zM1714 18q58 0 111.5 78.5t72.5 194.5q20 116 -9 194t-87 78t-112 -77.5t-74 -194.5q-18 -115 11 -194t87 -79z" />
    <glyph glyph-name="guilsinglleft" unicode="&#x2039;" horiz-adv-x="817" 
d="M770 88l-582 457l727 459l-18 -109l-551 -350l440 -350z" />
    <glyph glyph-name="guilsinglright" unicode="&#x203a;" horiz-adv-x="817" 
d="M117 88l16 107l553 350l-442 350l18 109l580 -459z" />
    <glyph glyph-name="fraction" unicode="&#x2044;" horiz-adv-x="1460" 
d="M139 -240l1313 1694h74l-1313 -1694h-74z" />
    <glyph glyph-name="uni2070" unicode="&#x2070;" horiz-adv-x="1077" 
d="M655 545q-197 0 -303 143.5t-69 384.5q25 158 105 278.5t193.5 183t241.5 62.5q197 0 303.5 -143t69.5 -381q-25 -160 -105 -281.5t-193.5 -184t-242.5 -62.5zM666 594q113 0 213.5 131t134.5 348q34 214 -25 344.5t-172 130.5t-213.5 -130t-134.5 -345q-34 -217 25 -348
t172 -131z" />
    <glyph glyph-name="uni2074" unicode="&#x2074;" horiz-adv-x="866" 
d="M629 551l45 293h-428l624 747h107l-111 -698h117l-31 -49h-94l-45 -293h-184zM342 893h340l80 500z" />
    <glyph glyph-name="uni2075" unicode="&#x2075;" horiz-adv-x="892" 
d="M541 545q-125 0 -202.5 59t-86.5 162h24q12 -82 76 -128t156 -46q125 0 205.5 84.5t99.5 206.5q23 141 -37 222t-176 81q-117 0 -272 -107l143 506h571l-67 -129h-498l-84 -293q137 76 271 76q101 0 179 -38.5t118 -115t24 -176.5q-17 -111 -83.5 -195t-160.5 -126.5
t-200 -42.5z" />
    <glyph glyph-name="uni2076" unicode="&#x2076;" horiz-adv-x="901" 
d="M573 543q-112 0 -189.5 63.5t-106 168.5t-5.5 229q24 131 88.5 242.5t151.5 185.5t188 117.5t203 49.5l-4 -16q-150 -18 -262.5 -151t-169.5 -334q48 67 111.5 105.5t126.5 45t122.5 -14.5t101.5 -64.5t60.5 -114.5t3.5 -156q-26 -145 -143.5 -250.5t-276.5 -105.5z
M580 584q93 0 156.5 82t90.5 227q11 74 5.5 132t-28 94t-53.5 56t-71.5 17.5t-80.5 -21t-81 -59.5t-74 -98l-4 -27q-30 -178 7.5 -290.5t132.5 -112.5z" />
    <glyph glyph-name="uni2077" unicode="&#x2077;" horiz-adv-x="743" 
d="M264 561q85 224 219 442t332 453h-543l64 129h608q-191 -268 -304.5 -509.5t-174.5 -514.5h-201z" />
    <glyph glyph-name="uni2078" unicode="&#x2078;" horiz-adv-x="890" 
d="M549 539q-92 0 -166 25t-116.5 79t-30.5 129q24 169 278 315q-75 66 -112.5 128.5t-26.5 132.5q13 79 68.5 136.5t128.5 83t153 25.5q117 0 192.5 -55t59.5 -154q-23 -145 -227 -264q55 -41 88.5 -71t70.5 -72t51 -86t7 -92q-14 -83 -80 -143.5t-153.5 -88.5t-184.5 -28z
M526 590q101 0 179.5 44t91.5 124q4 26 -5.5 53t-24 48.5t-45 51t-52 47t-63.5 51t-62 50.5q-92 -42 -169.5 -118t-90.5 -155q-14 -92 59 -144t182 -52zM719 1143q193 102 211 233q13 80 -40.5 124t-133.5 44q-77 0 -139.5 -41.5t-73.5 -116.5q-6 -40 18 -82.5t56.5 -73
t87.5 -76.5q9 -7 14 -11z" />
    <glyph glyph-name="uni2079" unicode="&#x2079;" horiz-adv-x="901" 
d="M403 555q150 18 264.5 146.5t172.5 322.5q-51 -63 -116.5 -99t-129 -41.5t-123 16t-101 64.5t-60 113t-3.5 154q26 142 146 249t278 107q110 0 186.5 -65t105 -168t7.5 -219q-23 -131 -87.5 -244t-152 -189t-189 -121.5t-202.5 -52.5zM868 1143q28 177 -10.5 287
t-134.5 110q-95 0 -163 -81t-91 -222q-17 -86 -4 -144.5t41.5 -96.5t73.5 -47t92.5 3.5t99 56t92.5 109.5z" />
    <glyph glyph-name="uni2080" unicode="&#x2080;" horiz-adv-x="1077" 
d="M535 -225q-197 0 -304.5 144t-70.5 384q25 158 105 278.5t193.5 183t241.5 62.5q197 0 303.5 -143t69.5 -381q-25 -160 -104 -281.5t-192 -184t-242 -62.5zM543 -176q113 0 213.5 131t134.5 348q34 214 -25 344.5t-172 130.5t-213.5 -130t-134.5 -345q-34 -217 25 -348
t172 -131z" />
    <glyph glyph-name="uni2081" unicode="&#x2081;" horiz-adv-x="585" 
d="M180 -221l133 848l-69 2l2 14l266 176h16l-163 -1040h-185z" />
    <glyph glyph-name="uni2082" unicode="&#x2082;" horiz-adv-x="817" 
d="M86 -190q112 78 207.5 160t179 173.5t137.5 189t68 189.5q20 121 -36 187.5t-148 66.5q-97 0 -174 -61t-95 -170h-28q21 138 129 214.5t241 76.5q136 0 224 -81.5t65 -222.5q-9 -56 -38.5 -113.5t-78 -113t-99 -104t-121 -102.5t-123 -91t-124.5 -86h486l-66 -125h-608z
" />
    <glyph glyph-name="uni2083" unicode="&#x2083;" horiz-adv-x="874" 
d="M406 -219q-122 0 -198 54.5t-91 150.5h24q11 -44 35 -76t57 -48.5t67 -24t73 -7.5q122 0 204 81.5t101 192.5q15 99 -28.5 167.5t-141.5 88.5l2 15q71 32 117 92t57 131q14 87 -33 135.5t-125 48.5q-58 0 -112.5 -24t-95.5 -73.5t-52 -115.5h-22q15 86 69.5 147t123.5 88
t145 27q120 0 192.5 -60t56.5 -169q-12 -71 -69 -127t-148 -80q132 -23 187 -103t39 -186q-22 -141 -143.5 -233t-290.5 -92z" />
    <glyph glyph-name="uni2084" unicode="&#x2084;" horiz-adv-x="866" 
d="M508 -201l47 293h-428l625 748h106l-110 -699h116l-30 -49h-95l-47 -293h-184zM223 141h340l80 500z" />
    <glyph glyph-name="uni2085" unicode="&#x2085;" horiz-adv-x="892" 
d="M422 -205q-125 0 -203.5 58.5t-85.5 160.5h25q10 -82 74.5 -128t156.5 -46q125 0 205 84t100 207q23 143 -37 223t-176 80q-119 0 -272 -106l143 508h572l-70 -131h-498l-82 -293q139 77 271 77q101 0 179 -39t118 -115.5t24 -176.5q-27 -166 -154 -264.5t-290 -98.5z
" />
    <glyph glyph-name="uni2086" unicode="&#x2086;" horiz-adv-x="901" 
d="M455 -201q-112 0 -189 63t-105.5 167t-6.5 227q24 132 88.5 244t152 185.5t188 117t201.5 49.5l-4 -18q-150 -18 -262.5 -150.5t-169.5 -331.5q36 50 82 84.5t92.5 50t95 17t91 -14.5t79 -44t58.5 -71.5t31.5 -97t-3.5 -120.5q-26 -147 -143 -252t-276 -105zM461 -162
q93 0 158 84t92 228q12 67 7 117.5t-20 88.5t-41 59t-56.5 30t-67 0.5t-71.5 -29t-70 -58.5t-64 -88l-4 -26q-30 -181 6 -293.5t131 -112.5z" />
    <glyph glyph-name="uni2087" unicode="&#x2087;" horiz-adv-x="743" 
d="M147 -184q82 221 216 438.5t333 456.5h-542l63 129h608q-191 -270 -304.5 -511.5t-172.5 -512.5h-201z" />
    <glyph glyph-name="uni2088" unicode="&#x2088;" horiz-adv-x="890" 
d="M432 -193q-92 0 -166 25t-116.5 79t-30.5 128q27 169 278 315q-74 65 -111 128t-26 132q18 117 121 181.5t229 64.5q117 0 191.5 -55.5t58.5 -153.5q-23 -145 -227 -262q46 -36 71.5 -57t61.5 -56.5t53 -64.5t27.5 -67.5t3.5 -77.5q-13 -82 -79 -142.5t-154 -88.5
t-185 -28zM410 -143q100 0 178.5 44.5t91.5 123.5q4 26 -5.5 53.5t-24 49.5t-45 51.5t-52 47.5t-63.5 51t-62 50q-94 -45 -170.5 -119.5t-89.5 -153.5q-10 -64 24.5 -110.5t91 -67t126.5 -20.5zM604 412q190 99 211 233q11 79 -41.5 123.5t-132.5 44.5q-77 0 -139.5 -41.5
t-73.5 -116.5q-5 -33 6 -64t42 -64.5t55 -54.5t73 -60z" />
    <glyph glyph-name="uni2089" unicode="&#x2089;" horiz-adv-x="901" 
d="M291 -150q150 18 264 145t172 320q-51 -63 -116.5 -98.5t-129 -41t-122.5 16t-100 64.5t-59 113.5t-3 154.5q16 91 73 172t150 133t198 52q110 0 186.5 -65t105.5 -168t8 -220q-23 -130 -87.5 -243.5t-152 -189.5t-189 -122t-202.5 -53zM758 436q28 178 -12 288t-136 110
q-95 0 -162 -81t-92 -223q-11 -71 -6 -127.5t28.5 -92t55 -55.5t73 -18.5t83.5 19t85.5 57.5t78.5 97z" />
    <glyph glyph-name="Euro" unicode="&#x20ac;" horiz-adv-x="1738" 
d="M1077 -20q-133 1 -250 41t-206.5 114t-142 190t-52.5 259h-231l34 57h203q0 39 8 78q2 26 15 69h-228l33 58h207q45 145 134 263t203 193t244.5 115t264.5 41q90 0 169 -16.5t152.5 -53.5t130.5 -103.5t90 -158.5h-51q-32 75 -83 130t-110.5 85t-120 43.5t-124.5 12.5
q-228 -3 -399.5 -149t-241.5 -402h346l-35 -58h-323q-13 -43 -15 -69q-8 -39 -8 -78h350l-36 -57h-320q-9 -252 116 -396t351 -147q137 -2 276.5 61.5t247.5 206.5h51q-62 -91 -141 -157t-164.5 -102.5t-169.5 -53t-174 -16.5z" />
    <glyph glyph-name="trademark" unicode="&#x2122;" horiz-adv-x="1478" 
d="M897 1024l102 645h109l147 -539l330 539h96l-102 -645h-96l84 522l-318 -522h-67l-150 539l-86 -539h-49zM473 1024l94 598h-209l9 47h512l-9 -47h-204l-95 -598h-98z" />
    <glyph glyph-name="oneeighth" unicode="&#x215b;" horiz-adv-x="1941" 
d="M244 -205l1331 1802h74l-1332 -1802h-73zM1315 -244q101 0 180 44t92 124q4 26 -5.5 53t-24.5 48.5t-45 50.5t-52.5 47.5t-63 51t-61.5 50.5q-94 -42 -170.5 -117t-89.5 -155q-14 -93 59 -145t181 -52zM346 629l133 848l-71 2l2 14l268 176h16l-164 -1040h-184z
M1337 -295q-92 0 -166 25t-116.5 79.5t-30.5 129.5q27 169 281 315q-76 65 -113.5 127t-26.5 133q13 79 69.5 136.5t130 83.5t153.5 26q116 0 189.5 -55t59.5 -154q-23 -145 -227 -264q56 -43 88.5 -71.5t70.5 -71.5t52 -87.5t6 -91.5q-13 -83 -79.5 -144t-155 -88.5
t-185.5 -27.5zM1509 309q192 104 213 234q13 80 -40.5 124t-135.5 44q-77 0 -139.5 -41.5t-73.5 -116.5q-5 -32 6 -63t41 -64.5t55.5 -56t73.5 -60.5z" />
    <glyph glyph-name="threeeighths" unicode="&#x215c;" horiz-adv-x="2222" 
d="M553 -205l1331 1802h74l-1331 -1802h-74zM584 545q-124 0 -199.5 54t-89.5 151h24q14 -58 52.5 -94.5t82.5 -49t97 -12.5q121 0 202.5 81t100.5 193q15 99 -27.5 166.5t-140.5 87.5l2 15q72 34 117.5 93.5t56.5 131.5q14 86 -35 134t-127 48q-89 0 -164.5 -57t-91.5 -156
h-22q14 86 68.5 147.5t123.5 89t144 27.5q120 0 194 -60.5t56 -170.5q-11 -71 -67 -126t-148 -79q132 -23 186.5 -103t38.5 -186q-22 -140 -144 -232.5t-290 -92.5zM1589 -244q100 0 179 44t92 124q4 26 -5.5 53t-24.5 48.5t-45 50.5t-52.5 47.5t-63 51t-61.5 50.5
q-93 -42 -170 -117.5t-90 -154.5q-10 -62 24 -108.5t91 -67.5t126 -21zM1612 -295q-92 0 -166 25t-117 79.5t-31 129.5q27 168 279 315q-74 65 -111 127.5t-26 132.5q13 79 68.5 136.5t128.5 83.5t153 26q117 0 191.5 -55t60.5 -154q-23 -145 -227 -264q44 -34 70.5 -56
t61 -57t52.5 -64.5t28 -68t3 -76.5q-13 -83 -79.5 -144t-154.5 -88.5t-184 -27.5zM1784 309q188 102 209 234q13 80 -39.5 124t-132.5 44q-77 0 -139.5 -41.5t-73.5 -116.5q-5 -32 6 -63t41 -64.5t55.5 -56t73.5 -60.5z" />
    <glyph glyph-name="fiveeighths" unicode="&#x215d;" horiz-adv-x="2236" 
d="M565 -205l1331 1802h76l-1331 -1802h-76zM594 545q-123 0 -201 59t-88 162h25q12 -83 75.5 -128.5t155.5 -45.5q126 0 206 84t99 207q23 142 -36.5 222.5t-176.5 80.5q-118 0 -270 -107l141 506h572l-68 -129h-498l-81 -293q134 76 270 76q101 0 179 -38.5t118 -115
t24 -176.5q-17 -111 -84 -195t-161 -126.5t-201 -42.5zM1608 -244q100 0 178.5 44t91.5 124q4 26 -5.5 53t-24.5 48.5t-45 50.5t-52.5 47.5t-63 51t-61.5 50.5q-93 -42 -170 -117.5t-90 -154.5q-10 -62 24 -108.5t91.5 -67.5t126.5 -21zM1630 -295q-92 0 -166 25
t-116.5 79.5t-30.5 129.5q27 169 278 315q-74 64 -111 126.5t-26 133.5q13 79 68.5 136.5t128.5 83.5t153 26q117 0 191.5 -55t60.5 -154q-23 -145 -227 -264q44 -34 70.5 -56t61 -57t52.5 -64.5t28 -68t3 -76.5q-13 -83 -79.5 -144t-154.5 -88.5t-184 -27.5zM1802 309
q188 102 209 234q13 80 -39.5 124t-132.5 44q-77 0 -139.5 -41.5t-73.5 -116.5q-5 -32 6 -63t41 -64.5t55.5 -56t73.5 -60.5z" />
    <glyph glyph-name="seveneighths" unicode="&#x215e;" horiz-adv-x="2056" 
d="M356 -205l1332 1802h73l-1331 -1802h-74zM1427 -244q101 0 179.5 44t91.5 124q4 26 -5.5 53t-24.5 48.5t-45 50.5t-52.5 47.5t-63 51t-61.5 50.5q-93 -42 -170 -117.5t-90 -154.5q-10 -62 24 -108.5t91 -67.5t126 -21zM381 561q160 432 551 895h-545l66 129h606
q-190 -269 -303 -510.5t-174 -513.5h-201zM1450 -295q-92 0 -166 25t-116.5 79.5t-30.5 129.5q27 170 280 315q-75 65 -112.5 127t-26.5 133q13 79 69 136.5t129.5 83.5t153.5 26q115 0 189.5 -55t60.5 -154q-23 -143 -227 -264q44 -34 70.5 -56t61 -57t52.5 -64.5t28 -68
t3 -76.5q-13 -83 -79.5 -144t-154.5 -88.5t-184 -27.5zM1620 309q192 102 213 234q13 80 -40.5 124t-135.5 44q-76 0 -138 -41.5t-73 -116.5q-4 -26 4.5 -53t21.5 -48t41.5 -49.5t48.5 -45.5t58 -48z" />
    <glyph glyph-name="arrowleft" unicode="&#x2190;" horiz-adv-x="1466" 
d="M907 223l-702 416l4 16l833 416l-4 -27l-565 -358l1040 -4l-14 -72l-1036 -2l448 -356z" />
    <glyph glyph-name="arrowup" unicode="&#x2191;" horiz-adv-x="1015" 
d="M489 0l164 1036l-438 -504h-29l539 768h20l293 -768h-28l-279 504l-164 -1036h-78z" />
    <glyph glyph-name="arrowright" unicode="&#x2192;" horiz-adv-x="1466" 
d="M670 215l4 29l563 358l-1036 2l8 72l1038 2l-448 358l4 29l702 -418v-14z" />
    <glyph glyph-name="arrowdown" unicode="&#x2193;" horiz-adv-x="1015" 
d="M516 -14l-295 770h29l278 -506l164 1036l78 2l-166 -1038l440 506h29l-538 -768z" />
    <glyph glyph-name="arrowboth" unicode="&#x2194;" horiz-adv-x="2101" 
d="M905 213l-702 416l4 14l833 418l-4 -29l-565 -360h1413l-450 360l4 29l702 -418v-14l-837 -416l6 29l559 358h-1405l448 -358z" />
    <glyph glyph-name="arrowupdn" unicode="&#x2195;" horiz-adv-x="1015" 
d="M492 -168l-295 768l30 2l279 -504l221 1405l-438 -504h-29l539 770l18 -2l295 -768h-29l-278 508l-225 -1413l442 508h29l-541 -768z" />
    <glyph glyph-name="uni2196" unicode="&#x2196;" horiz-adv-x="1118" 
d="M1028 162l-616 733l6 -610l-25 -23l-117 840l17 10l799 -248l-25 -20l-594 104l617 -735z" />
    <glyph glyph-name="uni2197" unicode="&#x2197;" horiz-adv-x="1116" 
d="M182 164l-45 53l848 733l-625 -102l-18 20l877 248l10 -12l-379 -838l-19 21l199 610z" />
    <glyph glyph-name="uni2198" unicode="&#x2198;" horiz-adv-x="1116" 
d="M1071 176l-799 248l23 20l594 -104l-617 735l62 51l618 -731l-6 611l21 20l116 -840z" />
    <glyph glyph-name="uni2199" unicode="&#x2199;" horiz-adv-x="1114" 
d="M139 170l-8 14l383 838l14 -21l-200 -612l852 733l43 -53l-848 -731l624 102l19 -20z" />
    <glyph glyph-name="partialdiff" unicode="&#x2202;" horiz-adv-x="1196" 
d="M608 -20q-111 0 -200.5 41t-143.5 110t-77 159t-9 187q17 119 76 218.5t138.5 160.5t173.5 90t180 19.5t159.5 -63t110.5 -146.5q6 180 -36 324.5t-137.5 238.5t-232.5 108l6 31q111 -8 211.5 -47.5t184 -111.5t140.5 -169t79.5 -227.5t1.5 -279.5q-23 -172 -109 -318.5
t-222.5 -235.5t-293.5 -89zM612 25q136 0 243.5 160.5t145.5 416.5l9 53q-29 111 -94.5 176t-144 68t-155 -37t-137.5 -144t-82 -249q-30 -207 26.5 -325.5t188.5 -118.5z" />
    <glyph glyph-name="emptyset" unicode="&#x2205;" horiz-adv-x="1206" 
d="M328 88q-87 72 -126.5 182t-19.5 238q23 143 111.5 263t220 189.5t274.5 69.5q153 0 269 -82l188 221h68l-213 -256q77 -72 111 -177.5t14 -227.5q-34 -218 -209.5 -370t-392.5 -152q-134 0 -248 67l-176 -209h-78zM997 874q-96 68 -223 68q-180 0 -327.5 -127
t-176.5 -307q-17 -104 15 -195t102 -153zM637 74q179 0 325.5 127t174.5 307q17 98 -10.5 185t-90.5 147l-598 -713q85 -53 199 -53z" />
    <glyph glyph-name="product" unicode="&#x220f;" horiz-adv-x="1677" 
d="M494 4l254 1593h-392l9 54h1513l-8 -54h-389l-254 -1593h-195l254 1593h-344l-254 -1593h-194z" />
    <glyph glyph-name="summation" unicode="&#x2211;" horiz-adv-x="1193" 
d="M121 0l20 125l682 733l-450 727l18 125h940l49 -145h-927l446 -709l-674 -711h930l-94 -145h-940z" />
    <glyph glyph-name="minus" unicode="&#x2212;" horiz-adv-x="1054" 
d="M211 684l12 80h891l-12 -80h-891z" />
    <glyph glyph-name="radical" unicode="&#x221a;" horiz-adv-x="1521" 
d="M367 -20l-144 782h219l105 -645l794 1579h388l-78 -158h-330l-789 -1558h-165z" />
    <glyph glyph-name="infinity" unicode="&#x221e;" horiz-adv-x="2029" 
d="M1636 436q-119 0 -233.5 70.5t-212.5 200.5q-82 -54 -124.5 -81t-118.5 -69.5t-129 -63.5t-120.5 -38t-128.5 -17q-96 0 -168.5 30.5t-112 81.5t-55 114.5t-4.5 132.5q24 151 153.5 262t328.5 110q222 -3 422 -260q93 61 152.5 97.5t143.5 79.5t160 63.5t148 19.5
q98 -1 174 -34t118 -87t59 -121t5 -139q-11 -68 -46 -130t-91 -112.5t-139 -80t-181 -29.5zM582 643q54 0 113 17t129.5 55t119.5 69t135 88q-87 113 -183.5 174.5t-184.5 61.5q-149 0 -244.5 -74.5t-110.5 -173.5q-14 -91 44 -154t182 -63zM1634 500q137 0 222 69t100 166
q9 60 -11.5 112t-76.5 86t-139 34q-98 0 -210 -57t-280 -169q88 -115 192.5 -178t202.5 -63z" />
    <glyph glyph-name="integral" unicode="&#x222b;" horiz-adv-x="1093" 
d="M68 -217q181 -25 295 185q77 141 155 467q2 8 49 208q80 334 136 484q116 314 295 400q121 59 280 21l-4 -26q-188 39 -304 -166q-76 -134 -152 -446q-11 -44 -32 -135l-30 -126q-83 -342 -147 -500q-121 -300 -305 -377q-107 -45 -241 -20z" />
    <glyph glyph-name="approxequal" unicode="&#x2248;" horiz-adv-x="1046" 
d="M254 961q32 25 63 42.5t63 24t56.5 10.5t58.5 -3.5t53 -11t55.5 -20t51.5 -23.5t54 -26q50 -24 80 -36.5t78 -24.5t85.5 -9t85.5 21.5t95 55.5l-15 -89q-41 -32 -80.5 -50.5t-78.5 -22t-72 -1.5t-73 16.5t-67 27t-68 32.5q-17 9 -26 13q-59 28 -99.5 41.5t-95 20
t-108.5 -12.5t-110 -64zM203 602q35 27 71 44t64.5 25t65 5.5t59.5 -6t61.5 -18.5t57 -23.5t59.5 -28.5q39 -19 59 -28t57 -23.5t61.5 -18.5t60.5 -6t65.5 6.5t65.5 26t71 45.5l-14 -90q-35 -28 -71.5 -45.5t-66 -25.5t-66 -5.5t-60.5 6.5t-62 19t-58 24.5t-59 29.5
q-17 9 -26 13q-58 27 -98 40t-94.5 19.5t-108.5 -12.5t-109 -63z" />
    <glyph glyph-name="notequal" unicode="&#x2260;" horiz-adv-x="1054" 
d="M215 72l297 487h-322l13 78h356l117 186h-443l13 80h475l283 463h88l-283 -463h328l-13 -80h-362l-113 -186h445l-13 -78h-483l-295 -487h-88z" />
    <glyph glyph-name="lessequal" unicode="&#x2264;" horiz-adv-x="1056" 
d="M1042 297l-817 448l959 451l-15 -92l-774 -359l662 -356zM137 152l13 79h882l-12 -79h-883z" />
    <glyph glyph-name="greaterequal" unicode="&#x2265;" horiz-adv-x="1056" 
d="M150 297l14 92l776 356l-664 359l15 92l821 -451zM127 152l12 79h883l-12 -79h-883z" />
    <glyph glyph-name="lozenge" unicode="&#x25ca;" horiz-adv-x="997" 
d="M518 -12l-303 725l533 725l301 -727zM543 154l405 557l-229 559l-406 -557z" />
    <glyph glyph-name="uniE000" unicode="&#xe000;" horiz-adv-x="1462" 
d="M784 1309q-55 88 -159 88l6 37h174q126 0 191 -46.5t89 -160.5l211 -932q10 -44 16 -69t16 -56.5t19 -48t22.5 -35t29.5 -27t37.5 -14.5t48.5 -6l-6 -39h-148q-126 0 -191.5 47.5t-88.5 161.5l-66 270h-582l-249 -479h-62zM434 532h539l-133 607q-13 63 -29 112z" />
    <glyph glyph-name="uniE001" unicode="&#xe001;" horiz-adv-x="1478" 
d="M354 1202q4 27 4.5 51t-5 51.5t-18.5 47t-39 32.5t-63 13l7 37h110q129 0 187 -30.5t65.5 -97.5t-10.5 -173l-57 -361h653l104 662h250l-190 -1201q-28 -194 121 -194l-7 -39h-110q-129 0 -187 30.5t-66.5 97.5t9.5 173l66 416h-654l-112 -717h-248z" />
    <glyph glyph-name="uniE002" unicode="&#xe002;" horiz-adv-x="1447" 
d="M1016 0l-471 698l907 736h78l-752 -607l547 -827h-309zM354 1202q4 27 4.5 51t-5 51.5t-18.5 47t-39 32.5t-63 13l7 37h110q129 0 187 -30.5t65.5 -97.5t-10.5 -173l-180 -1133h-248z" />
    <glyph glyph-name="uniE003" unicode="&#xe003;" horiz-adv-x="1910" 
d="M373 1321q-50 76 -140 76l7 37h192q82 0 133 -24.5t76 -65.5t43 -113l281 -987l759 1190h248l-227 -1434h-248l207 1305l-719 -1127q25 -66 67.5 -102t112.5 -37l-6 -39h-190q-121 0 -177.5 48.5t-82.5 156.5l-293 1032l-197 -1237h-55z" />
    <glyph glyph-name="uniE004" unicode="&#xe004;" horiz-adv-x="1441" 
d="M1497 -309q-72 0 -117.5 6t-90.5 23t-81 52.5t-73.5 89.5t-83.5 140l-635 1233l-197 -1235h-55l209 1325q-46 72 -140 72l7 37h151q128 0 192 -32.5t111 -125.5l561 -1077l197 1235h55l-209 -1317l68 -135q34 -63 59.5 -102.5t58.5 -77t70 -55t80 -17.5h15l-7 -39h-145z
" />
    <glyph glyph-name="uniE005" unicode="&#xe005;" horiz-adv-x="1849" 
d="M1446 -514q-78 0 -140 24.5t-102.5 65t-72.5 89.5t-58 100.5t-51.5 95.5t-60.5 77.5t-78 43.5q-157 6 -284.5 61t-212 149t-119.5 230t-9 297q26 167 108.5 306t202.5 232.5t271 145t315 51.5q165 0 299.5 -51.5t224.5 -145t128 -232.5t12 -306q-26 -157 -100 -290
t-182 -226t-243.5 -150t-285.5 -69q48 -26 99.5 -72t93 -89.5t88 -85t103 -66.5t119.5 -25q47 0 86 8.5t79 29.5t76.5 61t66.5 99h20q-74 -196 -168 -277t-225 -81zM936 33q236 0 408.5 182t224.5 504q50 321 -65.5 501.5t-352.5 180.5q-238 0 -411.5 -180.5t-223.5 -501.5
q-26 -163 -7.5 -291t74.5 -215.5t146 -133.5t207 -46z" />
    <glyph glyph-name="uniE006" unicode="&#xe006;" horiz-adv-x="1480" 
d="M354 1202q7 30 4 64t-12.5 63.5t-38.5 48.5t-74 19l7 37h698q155 0 262.5 -28.5t163 -81.5t74.5 -119.5t6 -149.5q-22 -134 -121.5 -231t-288.5 -130l295 -694h-291l-286 674h-234l-106 -674h-248zM776 727q184 0 284.5 87.5t125.5 240.5q23 151 -49.5 238t-255.5 87
h-312q24 -23 31.5 -65t4.5 -79t-13 -99l-66 -410h250z" />
    <glyph glyph-name="uniE007" unicode="&#xe007;" horiz-adv-x="1351" 
d="M659 -23q-123 0 -227 35.5t-176.5 112.5t-83.5 184h55q8 -84 73 -147t156.5 -93t192.5 -30q152 0 266.5 71t135.5 203q11 65 -7.5 117t-58 88t-93 66t-114.5 56t-121 53.5t-113 62.5t-91.5 78t-55 106t-4.5 141q18 115 97 202t182.5 129t212.5 42q69 0 129 -18.5t107 -55
t73 -96.5t23 -137h-56q3 118 -72 183t-182 65q-104 0 -184 -59t-98 -169q-9 -58 10.5 -103.5t59.5 -76.5t94 -58t114.5 -51.5t121 -51.5t113 -65t90 -85t53 -117.5t1.5 -157.5q-16 -101 -75.5 -183.5t-146.5 -134t-190 -79t-211 -27.5z" />
    <glyph glyph-name="uniE008" unicode="&#xe008;" horiz-adv-x="1470" 
d="M1034 -305q-91 0 -154 22.5t-109 78t-77 133.5t-61 204l-230 1043q-13 54 -24 85.5t-31.5 67t-51 52t-73.5 16.5l6 37h164q125 0 182 -44.5t80 -158.5l224 -987l667 1190h60l-711 -1268l14 -66q16 -69 29.5 -115.5t37 -98t52 -82t72 -50.5t98.5 -20h27l-6 -39h-185z" />
    <glyph glyph-name="uniE009" unicode="&#xe009;" horiz-adv-x="2263" 
d="M973 -305q-92 0 -154.5 22t-107 76.5t-72 133.5t-51.5 206l-199 1043q-8 42 -15 69t-20 58.5t-29.5 50t-42.5 31t-59 12.5l6 37h162q124 0 177 -44t75 -159l191 -991l466 977q-20 88 -54 134t-103 46l6 37h160q124 0 176.5 -44t73.5 -159l192 -1000l571 1203h60
l-617 -1289l11 -34q12 -62 21.5 -100.5t25 -86.5t34 -77t45 -56t63.5 -40.5t83 -14.5l33 -2l-6 -39h-187q-92 0 -153.5 22t-106 76.5t-72 133.5t-51.5 206l-188 997l-467 -978l4 -43q14 -72 26.5 -119t34.5 -99t49.5 -82t70.5 -50.5t98 -22.5l30 -2l-6 -39h-184z" />
    <glyph glyph-name="uniE00A" unicode="&#xe00a;" horiz-adv-x="1458" 
d="M1403 -305q-107 0 -176.5 33.5t-120.5 104t-111 208.5l-241 547l-531 -588h-69l577 639l-244 559q-20 45 -35.5 73t-41 61t-57.5 49t-72 16l6 37h213q61 0 103 -12t71.5 -41.5t46.5 -59.5t41 -86l170 -387l530 586h70l-578 -637l318 -725q30 -69 51 -112t50.5 -91t57 -74
t64 -43.5t78.5 -17.5h31l-7 -39h-194z" />
    <glyph glyph-name="uniE00B" unicode="&#xe00b;" horiz-adv-x="1462" 
d="M1458 -305q-63 0 -110 9t-85 30.5t-65.5 52t-51.5 80.5t-41.5 108t-37.5 142l-82 362h-582l-249 -479h-62l692 1309q-58 88 -159 88l6 37h192q113 0 175 -46.5t85 -156.5l232 -1038q48 -208 73 -273q49 -131 135 -168q42 -18 97 -18h31l-6 -39h-187zM434 532h541
l-141 623q-3 17 -23 94z" />
    <glyph glyph-name="uniE00C" unicode="&#xe00c;" horiz-adv-x="1488" 
d="M1767 -389q-105 -6 -190.5 -8.5t-156 16.5t-125 40t-97.5 61t-74.5 80t-55.5 96.5t-41 111t-29.5 124t-22 134.5t-19.5 143q-5 42 -8 64q-8 53 -15.5 82t-32 68.5t-64 58t-112 30.5t-175.5 7l893 715h80l-781 -621q121 7 207.5 -12.5t137.5 -64t77 -98.5t39 -128
q8 -45 23 -139q13 -81 20.5 -123t23.5 -117.5t30 -116.5t38.5 -102.5t51 -94.5t66 -73t84.5 -58t105 -28.5t130 -5.5zM354 1202q4 27 4.5 51t-5 51.5t-18.5 47t-39 32.5t-63 13l7 37h110q129 0 187 -30.5t65.5 -97.5t-10.5 -173l-180 -1133h-248z" />
    <glyph glyph-name="uniE00D" unicode="&#xe00d;" horiz-adv-x="1910" 
d="M1153 -305q-91 0 -155 23.5t-112 80t-81.5 132t-71.5 198.5l-319 1104l-195 -1233h-55l209 1321q-50 76 -140 76l7 37h182q120 0 176 -48t86 -155l291 -969l749 1172h248l-227 -1434h-248l207 1305l-711 -1110l29 -111q46 -155 71 -206q56 -116 156 -138q27 -6 58 -6h28
l-6 -39h-176z" />
    <glyph glyph-name="uniE00E" unicode="&#xe00e;" horiz-adv-x="1503" 
d="M354 1202q4 27 4.5 51t-5 51.5t-18.5 47t-39 32.5t-63 13l7 37h110q166 0 219 -51.5t33 -184.5l-8 -47q83 147 223.5 226t302.5 79q238 -1 323.5 -141t35.5 -443l-138 -872h-249l141 897q44 277 -1 384t-194 105q-71 1 -146.5 -31t-145 -92t-122.5 -159.5t-73 -222.5
l-139 -881h-248z" />
    <glyph glyph-name="uniE00F" unicode="&#xe00f;" horiz-adv-x="1480" 
d="M1788 -393q-102 -9 -185.5 -10t-151.5 11t-122 30.5t-96.5 49t-74.5 66.5t-57 83t-43.5 99t-33 113.5t-27.5 126.5t-26 139q-1 9 -2 13q-26 149 -61.5 232t-110.5 114h-279l-106 -674h-248l190 1202q7 30 4 64t-12.5 63.5t-38.5 48.5t-74 19l7 37h675q156 0 264 -28.5
t163.5 -81.5t74.5 -119t6 -150q-22 -138 -124 -237t-298 -132q192 -18 256 -332q50 -254 77 -342q66 -219 188 -302q106 -73 272 -64zM756 727q185 0 284.5 87.5t124.5 240.5q13 71 1 131t-45.5 103t-100 67t-160.5 24h-291q24 -23 31.5 -65t4.5 -79t-13 -99l-66 -410h230z
" />
    <glyph glyph-name="uniE010" unicode="&#xe010;" horiz-adv-x="2269" 
d="M354 1202q4 27 4.5 51t-5 51.5t-18.5 47t-39 32.5t-63 13l7 37h110q162 0 218 -48.5t36 -175.5l-8 -43q78 140 204.5 214.5t272.5 74.5q173 -2 258.5 -83t91.5 -255q78 162 212.5 250t291.5 88q226 -1 305 -140.5t29 -443.5l-137 -872h-250l141 895q22 140 22.5 234.5
t-22 151t-64 80.5t-108.5 25q-64 -1 -130.5 -32.5t-128 -91.5t-109.5 -159t-68 -222l-139 -881h-248l141 895q20 141 22 235t-22.5 150.5t-65.5 80.5t-108 25q-64 -1 -130.5 -32.5t-128 -91.5t-109.5 -159t-68 -222l-139 -881h-248z" />
    <glyph glyph-name="uniE011" unicode="&#xe011;" horiz-adv-x="1349" 
d="M592 -20q-215 0 -330.5 148.5t-77.5 383.5q24 156 107 277.5t206 188t265 66.5q113 0 200 -49t132 -135l24 164h232l-125 -791q-28 -194 118 -194l-6 -39h-96q-148 0 -203.5 33.5t-56.5 130.5q-73 -87 -175.5 -135.5t-213.5 -48.5zM676 53q91 0 174 61t139 165l74 466
q-22 107 -86 166.5t-156 59.5q-139 0 -248 -133.5t-139 -325.5q-20 -127 2 -231t84.5 -166t155.5 -62z" />
    <glyph glyph-name="uniE012" unicode="&#xe012;" horiz-adv-x="1349" 
d="M592 -20q-104 0 -188.5 39t-139.5 108.5t-77 169t-3 215.5q24 155 108.5 277.5t207.5 188.5t262 66q107 0 192.5 -46t128.5 -124l60 377q28 195 -121 197l6 39h102q133 0 191.5 -30.5t65.5 -97.5t-11 -175l-151 -951q-28 -194 118 -194l-6 -39h-96q-146 0 -201.5 33.5
t-58.5 126.5q-67 -84 -171 -132t-218 -48zM676 53q91 0 174 61t139 165l74 466q-22 107 -86 166.5t-156 59.5q-139 0 -248 -133.5t-139 -325.5q-20 -127 2 -231t84.5 -166t155.5 -62z" />
    <glyph glyph-name="uniE013" unicode="&#xe013;" horiz-adv-x="649" 
d="M139 0l154 969h-139l8 55h141l6 37q18 112 68.5 198t123 137.5t158.5 77t181 23.5q117 -2 189 -51.5t75 -136.5h-45q-3 63 -56 100t-129 37q-137 0 -214 -78.5t-103 -241.5l-16 -102h250l-9 -55h-245l-154 -969h-244z" />
    <glyph glyph-name="uniE014" unicode="&#xe014;" horiz-adv-x="1320" 
d="M551 -573q-95 0 -178 25t-150.5 84t-91.5 145h45q17 -54 55 -95t87.5 -63.5t99.5 -33.5t100 -11q174 0 276 105.5t132 295.5l43 271q-71 -76 -171 -123t-206 -47q-104 0 -188.5 39t-139.5 108.5t-77 169t-3 215.5q24 155 108.5 277.5t207.5 188.5t262 66q113 0 200 -49
t132 -135l24 164h232l-176 -1114q-15 -98 -59 -179.5t-105 -137t-137.5 -93.5t-157 -55.5t-164.5 -17.5zM676 53q91 0 174 61t139 165l74 466q-22 107 -86 166.5t-156 59.5q-139 0 -248 -133.5t-139 -325.5q-20 -127 2 -231t84.5 -166t155.5 -62z" />
    <glyph glyph-name="uniE015" unicode="&#xe015;" horiz-adv-x="1341" 
d="M383 1251q7 31 4 65t-12.5 63.5t-39 48.5t-75.5 20l6 39h103q133 0 191 -30.5t65 -97.5t-11 -175l-49 -305q93 79 205 122t223 43q349 0 291 -372l-70 -439q-28 -194 121 -194l-6 -39h-98q-134 0 -193 30t-66.5 96.5t11.5 174.5l53 332q10 62 13.5 105.5t-1 89.5
t-20.5 73.5t-50 45.5t-85 18q-83 0 -173.5 -37.5t-164.5 -108.5l-129 -819h-242z" />
    <glyph glyph-name="uniE016" unicode="&#xe016;" horiz-adv-x="1273" 
d="M897 0l-362 549l727 475h92l-574 -371l412 -653h-295zM383 1251q7 31 4 65t-12.5 63.5t-39 48.5t-75.5 20l6 39h111q128 0 184.5 -30.5t63.5 -97.5t-11 -175l-188 -1184h-242z" />
    <glyph glyph-name="uniE017" unicode="&#xe017;" horiz-adv-x="630" 
d="M469 0q-128 0 -185 30t-64.5 96.5t11.5 174.5l152 950q7 31 4 65t-12.5 63.5t-39 48.5t-75.5 20l6 39h111q128 0 184.5 -30.5t63.5 -97.5t-11 -175l-151 -951q-28 -194 141 -194l-6 -39h-129z" />
    <glyph glyph-name="uniE018" unicode="&#xe018;" horiz-adv-x="1939" 
d="M309 793q7 30 4 64t-12.5 63t-39 48t-75.5 19l7 37h102q140 0 195.5 -30.5t58.5 -119.5q191 170 383 170q237 0 274 -188q194 188 400 188q160 0 233.5 -87t42.5 -285l-70 -439q-28 -194 121 -194l-6 -39h-98q-134 0 -193 30t-66.5 96.5t11.5 174.5l53 332q8 52 12 88.5
t5.5 79t-6.5 70t-23 51t-43 34t-68 9.5q-143 0 -297 -158q6 -59 -6 -135l-106 -672h-242l101 633q8 52 12 89t5 78.5t-7 69.5t-23 51.5t-43 34t-67 9.5q-133 0 -281 -142l-131 -823h-242z" />
    <glyph glyph-name="uniE019" unicode="&#xe019;" horiz-adv-x="1341" 
d="M309 793q7 30 4 64t-12.5 63t-39 48t-75.5 19l7 37h102q144 0 199.5 -33t56.5 -125q204 178 442 178q349 0 291 -372l-70 -439q-28 -194 121 -194l-6 -39h-104q-131 0 -189 30t-65 96.5t12 174.5l53 332q10 62 13.5 105.5t-1 89.5t-20.5 73.5t-50 45.5t-85 18
q-83 0 -173.5 -37.5t-164.5 -108.5l-129 -819h-242z" />
    <glyph glyph-name="uniE01A" unicode="&#xe01a;" horiz-adv-x="692" 
d="M399 -20q-134 0 -189.5 78t-29.5 245l107 666h-133l8 55h133l12 74q28 194 -123 196l6 37h101q125 0 183 -23.5t73.5 -82t-2.5 -156.5l-8 -45h229l-8 -55h-230l-116 -738q-8 -57 -7.5 -98.5t23.5 -65.5t72 -26q39 -2 86 13.5t82 41.5l-4 -37q-102 -79 -265 -79z" />
    <glyph glyph-name="uniE01B" unicode="&#xe01b;" horiz-adv-x="1341" 
d="M530 -20q-348 0 -290 374l69 439q7 30 4 64t-12.5 63t-39 48t-75.5 19l7 37h110q128 0 185 -30t64.5 -96.5t-11.5 -174.5l-54 -332q-8 -50 -11.5 -87.5t-3 -78t10 -68.5t26.5 -51.5t48 -35t74 -11.5q84 0 173 38t165 110l92 586q7 30 4 64t-12.5 63t-39 48t-75.5 19l6 37
h111q128 0 185 -30t64 -96.5t-12 -174.5l-78 -490q-28 -194 121 -194l-6 -39h-100q-142 0 -197.5 33t-56.5 127q-200 -180 -445 -180z" />
    <glyph glyph-name="uniE01C" unicode="&#xe01c;" horiz-adv-x="1329" 
d="M1665 -397q-130 -3 -224.5 4t-178 31t-143.5 61t-119.5 101.5t-109.5 144.5t-110 198l-121 256l-409 -399h-78l465 446l-188 357q-7 14 -20.5 41.5t-20.5 40t-19.5 33t-23.5 30t-27 20.5t-35.5 15t-44.5 4l6 37h211q39 -1 67 -4.5t51.5 -15.5t37 -21.5t30.5 -36t26.5 -44
t29.5 -58.5l117 -217l409 397h76l-459 -444l150 -306q16 -30 42.5 -82.5t44.5 -87t46.5 -84.5t51 -84t55.5 -77t64 -71.5t72 -58t83 -47t94 -29t108 -11.5z" />
    <glyph glyph-name="uniE01D" unicode="&#xe01d;" horiz-adv-x="1310" 
d="M551 -588q-92 0 -173.5 25t-147.5 83.5t-91 143.5l43 2q16 -55 53 -96t85.5 -63.5t98.5 -33t101 -10.5q329 0 395 402l43 280q-96 -78 -208 -121.5t-220 -43.5q-348 0 -290 374l69 439q7 30 4 64t-12.5 63t-39 48t-75.5 19l7 37h110q128 0 185 -30t64.5 -96.5
t-11.5 -174.5l-54 -332q-8 -50 -11.5 -87.5t-3 -78t10 -68.5t26.5 -51.5t48 -35t74 -11.5q84 0 173 38t165 110l92 586q7 30 4 64t-12.5 63t-39 48t-75.5 19l6 37h111q128 0 185 -30t64 -96.5t-12 -174.5l-131 -829q-15 -98 -57.5 -179.5t-101.5 -136.5t-134 -93
t-154.5 -55.5t-162.5 -17.5z" />
    <glyph glyph-name="uniE01E" unicode="&#xe01e;" horiz-adv-x="1222" 
d="M1665 -397q-130 -3 -224.5 4t-178 31t-143.5 61t-119.5 101.5t-109.5 144.5t-110 198l-121 256l-409 -399h-78l465 446l-152 304q-16 31 -42.5 83t-44.5 87.5t-46 86t-51 85.5t-55.5 77.5t-63.5 71.5t-72 58.5t-83.5 46.5t-94.5 27t-108 9l6 41q130 3 224 -4t177 -31.5
t143 -61.5t119.5 -102t109.5 -145t110 -198l121 -254l409 397h76l-459 -444l150 -306q16 -31 42.5 -82.5t44.5 -87.5t46 -86t51 -85t56 -78t64 -72t72 -58t83 -46.5t94 -27.5t108 -9z" />
    <glyph glyph-name="uniE01F" unicode="&#xe01f;" horiz-adv-x="1269" 
d="M139 0l154 971h-139l8 53h141l2 12q14 84 51 156.5t88.5 122.5t114 85.5t127.5 52.5t129 17q92 0 162 -36t98 -105q81 81 196 115t242 22l-4 -32q-151 3 -227.5 -80.5t-103.5 -257.5l-13 -72h248l-8 -53h-248l-153 -971h-242l153 971h-378l-154 -971h-244zM535 1024h389
l4 23q24 150 112 247q-15 60 -65.5 93.5t-118.5 33.5q-106 0 -194 -77t-111 -224z" />
    <glyph glyph-name="uniE020" unicode="&#xe020;" horiz-adv-x="1697" 
d="M139 0l154 971h-139l8 53h141l2 12q18 111 72 200.5t127.5 143.5t155.5 82.5t163 28.5q91 0 157 -34t95 -99q75 84 176.5 127t206.5 43q146 0 236 -64.5t73 -173.5q-11 -65 -60 -108t-112 -43q-64 0 -99.5 39.5t-25.5 103.5q9 60 56.5 99.5t107.5 39.5q19 0 37 -6
q-63 66 -182 66q-108 0 -191 -71.5t-108 -207.5l-29 -178h283q133 0 191.5 -29.5t66.5 -96.5t-12 -175l-115 -723h-242l125 784q12 80 6 109q-15 77 -131 78h-170l-153 -971h-244l154 971h-383l-154 -971h-244zM535 1024h393l10 57q19 132 106 240q-20 59 -68.5 90
t-115.5 31q-107 0 -194.5 -74.5t-110.5 -220.5z" />
    <glyph glyph-name="uniE021" unicode="&#xe021;" horiz-adv-x="1071" 
d="M139 0l154 971h-139l8 53h141l10 68q17 106 71 191.5t128.5 137.5t159 79.5t168.5 27.5q141 0 229 -64.5t74 -173.5q-10 -64 -60 -107.5t-112 -43.5q-63 0 -99.5 41t-27.5 102q9 59 55.5 100t104.5 41q24 0 43 -8q-66 66 -183 66q-71 0 -132.5 -30t-109 -96.5
t-63.5 -162.5l-27 -168h277q137 0 196.5 -28.5t68.5 -95.5t-11 -177l-115 -723h-241l124 784q12 80 7 108q-13 78 -129 79h-172l-154 -971h-244z" />
    <glyph glyph-name="uniE022" unicode="&#xe022;" horiz-adv-x="1351" 
d="M1059 -20q-136 0 -191.5 77.5t-29.5 245.5l151 948q29 192 -147 197h-23q-110 -3 -170 -70.5t-76 -177.5l-28 -176h235l-8 -53h-235l-154 -971h-244l154 971h-139l8 53h139l6 37q23 148 97.5 244.5t185 139t260.5 42.5h98q141 0 206.5 -37t73 -111.5t-10.5 -185.5
l-146 -922q-8 -57 -7.5 -98.5t23.5 -65.5t72 -26q39 -2 86 13.5t80 41.5l-4 -37q-44 -37 -114 -58t-148 -21z" />
    <glyph glyph-name="eight.osf" horiz-adv-x="1181" 
d="M600 -18q-212 0 -336.5 91t-101.5 240q39 248 389 437q-52 48 -86 86t-64.5 84.5t-41.5 96t-3 101.5q18 108 97 187t182 115t213 36q167 0 271 -84.5t83 -216.5q-14 -96 -97.5 -192t-223.5 -175q139 -111 187 -160q131 -134 119 -266q-1 -10 -3 -20q-13 -87 -69.5 -157.5
t-138.5 -113.5t-178.5 -66t-197.5 -23zM561 43q90 -1 174.5 25.5t147.5 83t75 131.5q6 37 -8 76t-36 70.5t-66.5 73.5t-77.5 69t-92.5 73.5t-89.5 71.5q-140 -65 -242 -173.5t-119 -213.5q-20 -128 73.5 -207.5t260.5 -79.5zM844 817q133 72 209.5 155.5t89.5 170.5
q18 111 -58 181.5t-196 70.5q-107 0 -198 -59.5t-109 -166.5q-7 -47 8 -90t59.5 -91t76.5 -75.5t103 -83.5z" />
    <glyph glyph-name="five.osf" horiz-adv-x="1177" 
d="M514 -430q-172 0 -278.5 77.5t-126.5 213.5h32q14 -64 47.5 -111.5t80.5 -74.5t98.5 -39.5t109.5 -12.5q89 0 165.5 35t129 94.5t86.5 133t47 155.5q32 202 -50.5 317t-252.5 115q-171 0 -381 -147l209 698h555q60 0 94 0.5t65 5t44.5 8t30 16.5t24 23.5t23.5 34.5h34
q-80 -151 -97 -176q-39 -56 -89 -71q-43 -13 -188 -13h-54h-438l-131 -422q183 115 385 115q140 2 250 -53.5t166.5 -164.5t34.5 -249q-19 -118 -77.5 -215t-143.5 -160.5t-189 -98t-215 -34.5z" />
    <glyph glyph-name="four.osf" horiz-adv-x="1165" 
d="M674 -430l65 420h-628l893 1034h149l-156 -981h160l-37 -53h-131l-65 -420h-250zM229 43h519l118 741z" />
    <glyph glyph-name="i.loclTRK" horiz-adv-x="548" 
d="M309 793q7 30 4 64t-12.5 63t-39 48t-75.5 19l7 37h110q128 0 185 -30t64.5 -96.5t-11.5 -174.5l-115 -723h-242zM430 1145q-62 0 -97 39.5t-26 99.5q10 61 57 99t109 38q60 0 93.5 -38.5t23.5 -98.5q-9 -60 -55 -99.5t-105 -39.5z" />
    <glyph glyph-name="nine.osf" horiz-adv-x="1196" 
d="M332 -401q141 14 266 108t213 238.5t139 324.5q-76 -104 -177 -157.5t-208 -53.5q-84 0 -158 34t-127 95t-76 155t-5 204q18 98 70 188.5t128 159.5t179 110.5t215 41.5q95 0 173.5 -33t131.5 -91t86.5 -138t39 -174t-11.5 -199q-26 -148 -90 -279.5t-151.5 -229.5
t-193.5 -172t-220 -114.5t-227 -48.5zM637 125q88 0 178 63.5t160 182.5l8 53q43 256 -14.5 416.5t-194.5 160.5q-132 0 -224 -118t-128 -326q-17 -108 -7.5 -189t41.5 -135t78.5 -81t102.5 -27z" />
    <glyph glyph-name="one.osf" horiz-adv-x="690" 
d="M270 0l136 856l-144 -102l10 57l293 223h115l-164 -1034h-246z" />
    <glyph glyph-name="seven.osf" horiz-adv-x="1028" 
d="M215 -410l752 1260h-486q-72 0 -108.5 -2t-66 -5t-45.5 -15t-26.5 -23.5t-29.5 -40.5h-37q11 20 30 55q34 63 47.5 88t41.5 55.5t39 37.5t54.5 16t72.5 8.5t107 -0.5h38h541l-854 -1434h-70z" />
    <glyph glyph-name="six.osf" horiz-adv-x="1196" 
d="M633 -20q-156 0 -264 89.5t-148 235t-10 318.5q27 149 91 279.5t151.5 227.5t194 169t220 111.5t226.5 47.5l-7 -31q-141 -14 -265.5 -108t-212.5 -238.5t-140 -324.5q79 104 180.5 157.5t206.5 53.5q84 0 158.5 -34t127.5 -95t75.5 -155.5t3.5 -205.5
q-23 -131 -103 -243.5t-208.5 -183t-276.5 -70.5zM643 25q133 0 225.5 118t128.5 326q35 204 -29 318t-182 114q-88 0 -180 -63.5t-160 -182.5l-8 -53q-27 -172 -13 -300.5t71 -202.5t147 -74z" />
    <glyph glyph-name="three.osf" horiz-adv-x="1155" 
d="M502 -430q-171 0 -277.5 77.5t-128.5 213.5h33q14 -64 49 -112t81.5 -74.5t95 -39t96.5 -12.5q91 0 170 33.5t133.5 90.5t90 128.5t48.5 149.5q24 153 -51 256.5t-236 103.5h-47l436 465h-346q-66 0 -101.5 -1t-72 -2t-54.5 -6.5t-35 -10.5t-28.5 -18.5t-20.5 -25
t-24 -36.5h-32q7 14 19 39q35 72 48 101t43 64.5t39 43t55.5 18t71 9.5t106.5 -1h66h498l-568 -596q81 4 149 -6.5t115.5 -32t85 -52t58 -67t34 -77t13 -81.5t-5.5 -81q-31 -199 -201 -330t-405 -131z" />
    <glyph glyph-name="two.osf" horiz-adv-x="915" 
d="M147 18q95 66 187 148t172 173t135 188t68 180q18 116 -31.5 181.5t-145.5 65.5q-62 0 -116.5 -23t-95.5 -74t-52 -124h-37q16 99 80 171.5t148 106t176 33.5q69 0 128.5 -20t103.5 -58t64 -99.5t7 -137.5q-7 -48 -32 -97t-55 -90t-82 -89.5t-91 -81t-106.5 -79.5
t-104 -71t-105.5 -69h213q64 0 98.5 0.5t67.5 4.5t46 7.5t30.5 16.5t25.5 23.5t25 35.5h33q-13 -23 -35 -63q-23 -41 -32.5 -58.5t-28.5 -42.5t-26 -32.5t-30.5 -20t-36 -14t-49.5 -5.5t-63.5 -4h-83.5h-371z" />
    <glyph glyph-name="zero.osf" horiz-adv-x="1157" 
d="M606 -20q-225 0 -337.5 144t-73.5 394q38 241 197 383.5t384 142.5q223 0 337.5 -142.5t76.5 -383.5q-39 -249 -199 -393.5t-385 -144.5zM614 25q114 0 194.5 128.5t117.5 360.5q36 225 -4 355t-154 130q-115 0 -194 -128.5t-115 -356.5q-37 -233 1.5 -361t153.5 -128z
" />
    </font>
</defs>
</svg>
