<?xml version="1.0" standalone="no"?>
<!DOCTYPE svg PUBLIC "-//W3C//DTD SVG 1.1//EN" "http://www.w3.org/Graphics/SVG/1.1/DTD/svg11.dtd" >
<svg xmlns="http://www.w3.org/2000/svg" xmlns:xlink="http://www.w3.org/1999/xlink" version="1.1">
<metadata>
Created by FontForge 20201107 at Mon Jan 20 08:55:50 2025
 By 
Pavel Larin
</metadata>
<defs>
<font id="Paseo-SemiBold" horiz-adv-x="0" >
  <font-face 
    font-family="Paseo SemiBold"
    font-weight="600"
    font-stretch="normal"
    units-per-em="2048"
    panose-1="0 0 0 0 0 0 0 0 0 0"
    ascent="1638"
    descent="-410"
    x-height="1024"
    cap-height="1434"
    bbox="-379 -1638 2396 2458"
    underline-thickness="102"
    underline-position="-255"
    unicode-range="U+0020-E022"
  />
<missing-glyph horiz-adv-x="2048" 
d="M1679 2458v-4096h-1298v4096h1298zM1364 -336h-680v-463h680v463zM1229 -471v-193h-410v193h410zM1364 373h-410v-230h140v95h135v-193h-410v328h-135v-463h680v463zM1364 872h-135v-270h-545v-139h680v409zM1364 1118h-680v-135h270v-152h-270v-135h410v287h270v135z
M954 1516v-148h-135v148h135zM1094 1655h-410v-426h680v139h-270v287zM1364 2183h-676v-135h266v-152h-270v-135h680v135h-270v152h270v135zM1364 -893h-680v-135h287l-287 -193v-135h680v135h-418l287 193h131v135z" />
    <glyph glyph-name="uniE01F" unicode="ff" horiz-adv-x="1316" 
d="M129 0v965h-135v59h137v12q0 107 42 194t110.5 140.5t150.5 82t168 28.5q94 0 172.5 -34.5t120.5 -98.5q74 75 189.5 107t256.5 20v-39q-70 1 -119.5 -15t-79.5 -44t-47.5 -75.5t-23.5 -99t-6 -125.5v-53h240v-59h-240v-965h-291v965h-354v-965h-291zM408 1024h366v20
q0 164 88 269q-27 52 -81 81t-119 29q-49 0 -93.5 -18t-81 -54t-58 -96t-21.5 -137v-94z" />
    <glyph glyph-name="uniE020" unicode="ffi" horiz-adv-x="1775" 
d="M129 0v965h-135v59h137v12q0 93 28.5 172t76 133t109.5 92.5t128.5 56t134.5 17.5q199 0 285 -129q68 82 169 124t210 42q159 0 266 -69t107 -187q0 -71 -47.5 -119.5t-116.5 -48.5q-71 0 -118.5 44t-47.5 114q0 67 44.5 110.5t110.5 43.5q18 0 46 -7q-77 66 -197 66
q-112 0 -185.5 -73.5t-74.5 -213.5v-180h289q65 0 113 -7t82 -18.5t57 -34.5t36 -45t19.5 -61t8 -72t1.5 -88v-698h-291v774q0 79 -8 106q-26 84 -147 85h-148v-965h-291v965h-360v-965h-291zM408 1024h372v57q0 141 82 258q-29 54 -81.5 82.5t-118.5 28.5q-106 0 -180 -74
t-74 -223v-129z" />
    <glyph glyph-name="uniE021" unicode="fi" horiz-adv-x="1124" 
d="M129 0v965h-135v59h137v70q0 108 44.5 196t117 142t160 83t178.5 29q151 0 257 -69.5t107 -186.5q0 -70 -48 -119t-116 -49q-71 0 -119 45.5t-48 114.5q0 65 43.5 109.5t107.5 44.5q24 0 51 -9q-79 66 -198 66q-113 0 -187.5 -75.5t-74.5 -217.5v-174h284q66 0 115 -7
t83.5 -18t58 -33.5t37 -45t20 -61t8.5 -72.5t2 -89v-698h-291v774q0 80 -9 109q-27 81 -145 82h-149v-965h-291z" />
    <glyph glyph-name="uniE022" unicode="fl" horiz-adv-x="1427" 
d="M1124 -20q-295 0 -295 335v926q0 201 -184 205h-20q-205 -5 -205 -238v-184h233v-59h-233v-965h-291v965h-135v59h135v29q0 436 528 436h123q67 0 118 -9t87 -24.5t61 -42t39.5 -53.5t22 -69t10 -78.5t2.5 -90.5v-884q0 -94 22.5 -139t94.5 -48q35 -3 81 12.5t77 40.5
v-43q-91 -81 -271 -81z" />
    <glyph glyph-name=".notdef" horiz-adv-x="2048" 
d="M1679 2458v-4096h-1298v4096h1298zM1364 -336h-680v-463h680v463zM1229 -471v-193h-410v193h410zM1364 373h-410v-230h140v95h135v-193h-410v328h-135v-463h680v463zM1364 872h-135v-270h-545v-139h680v409zM1364 1118h-680v-135h270v-152h-270v-135h410v287h270v135z
M954 1516v-148h-135v148h135zM1094 1655h-410v-426h680v139h-270v287zM1364 2183h-676v-135h266v-152h-270v-135h680v135h-270v152h270v135zM1364 -893h-680v-135h287l-287 -193v-135h680v135h-418l287 193h131v135z" />
    <glyph glyph-name=".null" 
 />
    <glyph glyph-name="nonmarkingreturn" horiz-adv-x="682" 
 />
    <glyph glyph-name="space" unicode=" " horiz-adv-x="636" 
 />
    <glyph glyph-name="exclam" unicode="!" horiz-adv-x="483" 
d="M223 319l-117 1135h310l-115 -1135h-78zM264 -20q-51 0 -86 34t-35 86q0 50 35 84.5t86 34.5q50 0 84.5 -34.5t34.5 -84.5q0 -52 -34.5 -86t-84.5 -34z" />
    <glyph glyph-name="quotedbl" unicode="&#x22;" horiz-adv-x="657" 
d="M375 1038l18 398h203l-162 -398h-59zM102 1038l17 398h205l-162 -398h-60z" />
    <glyph glyph-name="numbersign" unicode="#" horiz-adv-x="1429" 
d="M295 0l129 385h-322l23 72h321l105 315h-340l27 70h337l130 387h71l-129 -387l330 -2l129 389h76l-129 -389h315l-25 -68h-315l-106 -317h335l-22 -70h-334l-129 -385h-76l129 385h-329l-129 -385h-72zM848 455l104 317h-327l-105 -315z" />
    <glyph glyph-name="dollar" unicode="$" horiz-adv-x="1308" 
d="M537 -12q-172 23 -291.5 106t-143.5 219h56q19 -103 126.5 -171.5t252.5 -88.5v565q-70 31 -122 59t-108.5 69t-92.5 84t-59.5 102t-23.5 125q0 150 116 251t290 134v172h59v-164q54 4 78 4q42 0 80 -6v166h59v-174q143 -28 243.5 -109.5t125.5 -210.5h-56
q-21 102 -108.5 169.5t-204.5 90.5v-549q55 -24 93 -42t87 -44.5t82.5 -51.5t68.5 -59t55.5 -69t34 -80.5t13.5 -95.5q0 -80 -34.5 -148t-95.5 -116t-137.5 -81t-166.5 -50v-201h-59v193q-50 -6 -90 -6q-50 0 -68 2v-189h-59v195zM664 47q50 0 90 12v463q-27 13 -80.5 36
t-77.5 34v-543q20 -2 68 -2zM813 74q83 26 130.5 76.5t47.5 125.5q0 66 -46 117.5t-132 98.5v-418zM537 1360q-69 -24 -109.5 -73.5t-40.5 -117.5q0 -119 150 -206v397zM754 1389q-30 3 -74 0q-51 -3 -84 -9v-454l158 -70v533z" />
    <glyph glyph-name="percent" unicode="%" horiz-adv-x="1462" 
d="M209 0l1014 1434h69l-1013 -1434h-70zM1079 -18q-140 0 -231.5 89.5t-91.5 219.5q0 129 92 218t231 89q137 0 229.5 -89.5t92.5 -217.5q0 -130 -92.5 -219.5t-229.5 -89.5zM1081 18q53 0 92 79t39 194t-39 193.5t-92 78.5t-92 -78.5t-39 -193.5t39 -194t92 -79zM426 838
q-140 0 -232 89.5t-92 219.5q0 129 92 218t232 89q138 0 230 -89t92 -218q0 -130 -92 -219.5t-230 -89.5zM428 874q55 0 93 78.5t38 194.5t-38 194t-93 78t-93 -78t-38 -194t38.5 -194.5t92.5 -78.5z" />
    <glyph glyph-name="ampersand" unicode="&#x26;" horiz-adv-x="1462" 
d="M559 -20q-128 1 -229 38t-164 114.5t-64 186.5q-1 63 22 120t55 97.5t88 83.5t100.5 69t113.5 63q-215 224 -215 411q0 88 35.5 158t96 113.5t135.5 66.5t157 23q97 0 178.5 -32t135 -102t53.5 -167q0 -64 -24.5 -120.5t-72 -104.5t-97 -84t-120.5 -78q96 -91 155 -147.5
t154.5 -158t161.5 -186.5q33 67 36 153t-20 163t-77 135t-127 69v41h64q67 0 108 -2t72.5 -12.5t46 -21t23.5 -39t10.5 -55t1.5 -79.5q3 -100 -26.5 -205.5t-80.5 -187.5q129 -180 156 -303h-342q-3 49 -37 119q-199 -142 -463 -139zM674 49q101 1 186 31.5t139 81.5
q-24 41 -55 85.5t-72 92.5t-72.5 85t-82 89t-73.5 75.5t-74 74t-58 57.5q-101 -66 -157 -152t-56 -182q5 -145 102 -243t273 -95zM717 860q112 74 169.5 155.5t57.5 201.5q0 123 -66 190.5t-157 67.5q-90 0 -155.5 -65t-65.5 -179q0 -163 217 -371z" />
    <glyph glyph-name="quotesingle" unicode="'" horiz-adv-x="385" 
d="M102 1038l17 398h205l-162 -398h-60z" />
    <glyph glyph-name="parenleft" unicode="(" horiz-adv-x="692" 
d="M575 -256q-235 226 -354 436.5t-119 417.5q0 401 473 852h56q-228 -406 -228 -852q0 -448 228 -854h-56z" />
    <glyph glyph-name="parenright" unicode=")" horiz-adv-x="692" 
d="M102 -256q226 402 226 854q0 450 -226 852h56q473 -454 473 -852q0 -206 -119 -416.5t-354 -437.5h-56z" />
    <glyph glyph-name="asterisk" unicode="*" horiz-adv-x="882" 
d="M461 971q-31 0 -51 24.5t-15 55.5l41 292l-221 -202q-25 -23 -54 -21.5t-48 27.5q-15 25 -6 53t38 43l250 121l-250 119q-30 15 -40 44t8 56q19 23 47 24t53 -22l223 -203l-41 293q-5 31 15 55.5t51 24.5t51.5 -24.5t15.5 -55.5l-41 -293l222 203q26 24 56 24.5t44 -26.5
q17 -30 8 -57.5t-39 -42.5l-250 -119l250 -121q30 -15 39 -42.5t-8 -53.5q-17 -27 -46.5 -28.5t-53.5 22.5l-222 202l41 -292q5 -31 -15.5 -55.5t-51.5 -24.5z" />
    <glyph glyph-name="plus" unicode="+" horiz-adv-x="1060" 
d="M508 250v426h-406v88h406v385h86v-385h405v-88h-405v-426h-86z" />
    <glyph glyph-name="comma" unicode="," horiz-adv-x="403" 
d="M178 -236q22 29 35.5 70t13.5 76q0 25 -13 41.5t-31.5 27t-36.5 22.5t-31 36t-13 59q0 54 35 87.5t82 33.5q57 0 90 -38.5t33 -98.5q0 -82 -45 -179.5t-94 -146.5z" />
    <glyph glyph-name="hyphen" unicode="-" horiz-adv-x="837" 
d="M102 563v62h674v-62h-674z" />
    <glyph glyph-name="period" unicode="." horiz-adv-x="403" 
d="M223 -20q-50 0 -85.5 34t-35.5 86q0 49 35.5 84t85.5 35q48 0 83.5 -35t35.5 -84q0 -51 -35.5 -85.5t-83.5 -34.5z" />
    <glyph glyph-name="slash" unicode="/" horiz-adv-x="983" 
d="M102 -240l738 1694h82l-738 -1694h-82z" />
    <glyph glyph-name="zero" unicode="0" horiz-adv-x="1462" 
d="M758 -20q-188 0 -337 91.5t-234 260.5t-85 387q0 217 85 385.5t234 259t337 90.5q141 0 262.5 -53t208.5 -148t136.5 -233t49.5 -301q0 -219 -84.5 -388t-234 -260t-338.5 -91zM758 39q162 0 262 187.5t100 492.5t-100 490.5t-262 185.5q-165 0 -261 -183.5t-96 -492.5
t96 -494.5t261 -185.5z" />
    <glyph glyph-name="one" unicode="1" horiz-adv-x="753" 
d="M291 0v1237l-162 -135v78l305 274h148v-1454h-291z" />
    <glyph glyph-name="two" unicode="2" horiz-adv-x="1114" 
d="M106 14q668 520 668 1000q0 88 -26.5 157.5t-71.5 112t-101.5 64.5t-119.5 22q-127 0 -220.5 -86.5t-93.5 -236.5h-37q-1 80 24.5 147.5t70 115t104 81t127 49.5t139.5 16q73 0 143 -17t132.5 -52.5t110 -85.5t75 -121t27.5 -154q0 -66 -24 -136t-61 -131.5t-97 -129.5
t-116.5 -122t-134.5 -117.5t-136.5 -107.5t-137.5 -100h352q78 0 120.5 0.5t81 5.5t53.5 8t32 18t22 25.5t19 39.5h39q-67 -163 -70 -167q-31 -67 -72 -88q-43 -22 -172 -24h-102h-547v14z" />
    <glyph glyph-name="three" unicode="3" horiz-adv-x="1173" 
d="M575 -20q-180 0 -301 80t-163 223h34q44 -124 146 -184t213 -60q88 0 159.5 33t116.5 89t68.5 126t23.5 147q0 149 -87 254t-238 105h-45l354 444h-336h-120.5t-80 -5t-54 -8t-31 -17.5t-23 -26t-18.5 -39.5h-37q5 16 15 46q48 142 71 179q31 48 90 60q42 9 184 8h57h510
l-483 -598q114 5 206 -16.5t150.5 -61t97.5 -93.5t55.5 -110.5t16.5 -116.5q0 -135 -71.5 -239.5t-197 -161.5t-282.5 -57z" />
    <glyph glyph-name="four" unicode="4" horiz-adv-x="1179" 
d="M711 0v410h-609l736 1044h170v-856h166l-58 -188h-108v-410h-297zM315 598h396v571z" />
    <glyph glyph-name="five" unicode="5" horiz-adv-x="1200" 
d="M588 -20q-181 0 -302 80t-161 223h33q31 -86 92.5 -142.5t130 -79t145.5 -22.5q87 0 157 34t113 92t66 132t23 158q0 200 -98.5 313t-262.5 113q-89 0 -174 -38.5t-184 -119.5l92 711h520h120.5t80 5t53.5 8t31 18t23.5 26.5t19.5 40.5h39q-6 -18 -18 -51
q-48 -139 -71 -175q-31 -48 -92 -59q-42 -9 -187 -8h-52h-434l-55 -401q167 120 380 120q143 2 264.5 -53.5t197 -164t75.5 -248.5q0 -159 -78.5 -277t-205 -176.5t-281.5 -58.5z" />
    <glyph glyph-name="six" unicode="6" horiz-adv-x="1210" 
d="M639 -20q-155 0 -280 87t-192.5 235.5t-64.5 326.5q4 182 68.5 336.5t171 258t245 164t292.5 68.5v-29q-110 -11 -198.5 -67t-148.5 -146.5t-97.5 -204.5t-53.5 -251q58 105 149 159t193 54q83 0 161.5 -34.5t141 -96.5t99.5 -156.5t36 -204.5q-1 -101 -40.5 -192.5
t-106.5 -159t-165 -107.5t-210 -40zM643 29q124 0 190.5 117.5t69.5 322.5q3 202 -71.5 314t-182.5 112q-79 0 -153.5 -63t-122.5 -181v-49q-2 -166 30 -295.5t94.5 -203.5t145.5 -74z" />
    <glyph glyph-name="seven" unicode="7" horiz-adv-x="1044" 
d="M285 0l551 1237h-430h-93.5t-70.5 -2.5t-53 -3.5t-36 -8t-26 -11t-17.5 -17.5t-15.5 -22.5t-14 -31h-39q6 17 16 48q47 141 71 178q30 48 90 59q41 9 184 8h57h538l-639 -1434h-73z" />
    <glyph glyph-name="eight" unicode="8" horiz-adv-x="1191" 
d="M604 -18q-138 0 -251.5 38.5t-182 113.5t-68.5 175q0 241 310 434q-116 95 -179 182.5t-63 190.5q0 82 39 148t103 106.5t142.5 62t161.5 21.5q170 0 291 -82t121 -215q0 -95 -66.5 -189t-187.5 -171q161 -114 222 -171q149 -139 149 -284q0 -87 -46.5 -157.5
t-124.5 -113.5t-173 -66t-197 -23zM545 49q87 -1 163 24.5t126.5 80.5t50.5 129q0 35 -19.5 73t-46 68.5t-75 71t-86 68t-101 72.5t-98.5 71q-119 -60 -204 -167t-85 -208q0 -129 107.5 -206t267.5 -77zM727 827q238 149 238 316q0 109 -84 176t-197 67q-65 0 -122 -23.5
t-95.5 -74.5t-38.5 -121q0 -32 10 -62t35 -61.5t45 -53.5t64.5 -56.5t67 -51t77.5 -55.5z" />
    <glyph glyph-name="nine" unicode="9" horiz-adv-x="1210" 
d="M385 6q110 12 198.5 68t148.5 146.5t97.5 205.5t53.5 252q-56 -106 -147 -160.5t-195 -54.5q-82 0 -161 34.5t-141.5 96t-100 156t-36.5 204.5q1 102 40.5 194t107.5 160t166 108t211 40q156 0 280 -84t191 -229.5t63 -323.5q-4 -183 -68 -338.5t-170.5 -261.5
t-245.5 -168.5t-292 -70.5v26zM616 541q79 0 153 62.5t122 180.5v50q5 251 -70.5 412t-202.5 161q-122 0 -188.5 -118t-69.5 -322q-3 -202 72 -314t184 -112z" />
    <glyph glyph-name="colon" unicode=":" horiz-adv-x="403" 
d="M223 805q-51 0 -86 35.5t-35 85.5q0 52 34.5 85t86.5 33q50 0 84.5 -33t34.5 -85q0 -50 -35 -85.5t-84 -35.5zM223 -23q-51 0 -86 35t-35 86q0 50 35 84.5t86 34.5q49 0 84 -34.5t35 -84.5q0 -51 -34.5 -86t-84.5 -35z" />
    <glyph glyph-name="semicolon" unicode=";" horiz-adv-x="403" 
d="M178 -236q22 29 35.5 70t13.5 76q0 25 -13 41.5t-31.5 27t-36.5 22.5t-31 36t-13 59q0 54 35 87.5t82 33.5q57 0 90 -38.5t33 -98.5q0 -82 -45 -179.5t-94 -146.5zM223 805q-51 0 -86 35.5t-35 85.5q0 52 34.5 85t86.5 33q50 0 84.5 -33t34.5 -85q0 -50 -35 -85.5
t-84 -35.5z" />
    <glyph glyph-name="less" unicode="&#x3c;" horiz-adv-x="1071" 
d="M1010 291l-908 457l908 458v-102l-717 -356l717 -357v-100z" />
    <glyph glyph-name="equal" unicode="=" horiz-adv-x="1060" 
d="M102 821v86h897v-86h-897zM102 549v86h897v-86h-897z" />
    <glyph glyph-name="greater" unicode="&#x3e;" horiz-adv-x="1071" 
d="M102 291v100l717 357l-717 356v102l908 -458z" />
    <glyph glyph-name="question" unicode="?" horiz-adv-x="954" 
d="M420 322q-3 92 18.5 180t55 159.5t67.5 141t58 151.5t24 164q0 127 -66.5 194.5t-166.5 67.5q-63 0 -120.5 -28.5t-98 -89.5t-41.5 -142h-48q1 82 34.5 147.5t89.5 106t125 61.5t145 21q103 0 191.5 -38t147 -117.5t58.5 -186.5q0 -94 -45 -184t-109 -161.5t-128 -140.5
t-109 -148t-45 -158h-37zM440 -20q-53 0 -87 34t-34 86q0 50 34.5 84.5t86.5 34.5q50 0 84.5 -34.5t34.5 -84.5q0 -52 -34.5 -86t-84.5 -34z" />
    <glyph glyph-name="at" unicode="@" horiz-adv-x="1853" 
d="M1012 -379q-172 0 -321 48t-255.5 131t-183 193t-113.5 234.5t-37 255.5q0 135 36.5 264.5t111 244t179.5 201t251.5 137t316.5 50.5q122 0 236.5 -29t216.5 -91t178 -150t120 -214t44 -275q0 -113 -35.5 -228t-97 -208.5t-152.5 -152.5t-192 -59q-102 0 -172 58t-84 151
q-46 -82 -106.5 -131t-125.5 -49q-125 0 -195.5 101t-70.5 264q0 105 31 211.5t87 196.5t144.5 147t192.5 57q98 0 172 -84l20 78h197q-18 -77 -69.5 -268t-86.5 -334.5t-35 -184.5q0 -127 136 -127q95 0 180 82.5t133.5 210.5t48.5 260q0 137 -38.5 251.5t-104.5 194
t-156.5 135t-193.5 81.5t-215 26q-156 0 -289.5 -46t-228.5 -124.5t-163 -183t-100.5 -222t-32.5 -241.5q0 -118 33.5 -231t101.5 -212t163 -173.5t227.5 -118t285.5 -43.5q379 0 560 184h110q-102 -126 -278 -197t-381 -71zM834 80q50 0 103.5 75t96 184.5t74.5 238.5
l53 213q-14 47 -49.5 83.5t-71.5 36.5q-73 0 -140.5 -105.5t-106.5 -257.5t-39 -294q0 -83 22 -128.5t58 -45.5z" />
    <glyph glyph-name="A" unicode="A" horiz-adv-x="1486" 
d="M582 1294q-34 47 -73 72t-95 25v43h182q141 0 226 -54.5t130 -181.5l445 -1198h-316l-170 457h-581l-174 -457h-68zM352 516h537l-217 584q-29 85 -49 127z" />
    <glyph glyph-name="B" unicode="B" horiz-adv-x="1517" 
d="M530 0q-85 0 -145.5 9t-102 30.5t-66 47.5t-37.5 71.5t-17 90t-4 113.5v812q0 217 -142 217v43h660q297 0 441.5 -95.5t144.5 -265.5q0 -101 -55 -180.5t-158 -126.5q166 -37 248.5 -132t82.5 -235q0 -188 -146 -293.5t-446 -105.5h-258zM723 59q175 0 272 94.5t99 245.5
q2 155 -92 239.5t-269 84.5h-280v-485q0 -99 34 -139t131 -40h105zM614 782q176 0 268.5 78t92.5 213q0 137 -94.5 219t-274.5 82h-215q40 -33 51 -91.5t11 -152.5v-348h161z" />
    <glyph glyph-name="C" unicode="C" horiz-adv-x="1587" 
d="M901 -20q-120 1 -232 31t-208.5 92t-168.5 148.5t-113.5 207t-41.5 260.5t41.5 260t113.5 206.5t168.5 148t208.5 91.5t232 31q197 2 353.5 -74.5t244.5 -248.5h-63q-36 68 -92 120t-119.5 81t-126 43t-121.5 12q-245 -3 -390 -182t-145 -488q0 -310 144.5 -488.5
t390.5 -183.5q81 -1 163.5 22.5t165.5 84t130 149.5h63q-165 -323 -598 -323z" />
    <glyph glyph-name="D" unicode="D" horiz-adv-x="1613" 
d="M530 0q-64 0 -114 5t-88 17t-65.5 26.5t-46 39t-30 49t-18 61.5t-8.5 71.5t-2 84.5v820q0 217 -142 217v43h654q170 0 307.5 -40.5t229.5 -108.5t154 -161.5t89 -195.5t27 -213q0 -110 -27.5 -211.5t-90 -194t-154 -160.5t-229 -108.5t-306.5 -40.5h-140zM662 59
q112 2 201.5 41.5t146.5 102t95 149t53.5 177t15.5 190.5q0 101 -15.5 192t-54 177t-96.5 148.5t-149.5 100t-207.5 37.5h-260q40 -33 51 -91.5t11 -152.5v-892q0 -99 34 -139t131 -40h44z" />
    <glyph glyph-name="E" unicode="E" horiz-adv-x="1361" 
d="M530 0q-85 0 -145.5 9t-102 30.5t-66 47.5t-37.5 71.5t-17 90t-4 113.5v826q0 35 -6 66t-21 64.5t-48 53t-81 19.5v43h791q182 0 213 -4q60 -8 86 -45q19 -26 56 -133q12 -34 21 -58h-65q-8 20 -21 53q-15 39 -21 54.5t-23 34.5t-24 23t-40.5 10t-56 5.5t-85.5 -0.5h-38
h-408q43 -37 54.5 -98.5t11.5 -163.5v-342h587v-59h-587v-473q0 -98 38 -138.5t140 -40.5h213q162 0 194 6q51 9 77 48q14 22 61 135q8 21 16 39h63q-10 -25 -26 -69q-62 -164 -103 -191.5t-227 -26.5h-63h-306z" />
    <glyph glyph-name="F" unicode="F" horiz-adv-x="1280" 
d="M158 1188q0 35 -6 66t-21 64.5t-48 53t-81 19.5v43h805h58q55 0 78 0.5t57.5 -3.5t45 -5t31 -14t25 -20.5t19 -33.5t20 -43.5t20.5 -60.5q13 -38 21 -60h-66q-8 19 -20 51q-37 97 -68 113t-181 16h-38h-422q24 -20 38.5 -46t20 -67.5t6.5 -66.5t1 -82v-342h561v-59h-561
v-711h-295v1188z" />
    <glyph glyph-name="G" unicode="G" horiz-adv-x="1693" 
d="M901 -20q-120 1 -232 31t-208.5 92t-168.5 148.5t-113.5 207t-41.5 260.5t41.5 260t113.5 206.5t168.5 148t208.5 91.5t232 31q197 2 353.5 -74.5t244.5 -248.5h-63q-36 68 -92 120t-119.5 81t-126 43t-121.5 12q-245 -3 -390 -182t-145 -488q0 -312 145 -493t390 -183
q164 -3 283 80v399q0 203 -154 203v43h131q64 0 112.5 -7t82.5 -19t57 -34.5t36.5 -45.5t20 -61t8.5 -72t2 -87v-127q-89 -170 -265 -252.5t-390 -82.5z" />
    <glyph glyph-name="H" unicode="H" horiz-adv-x="1505" 
d="M158 1188q0 203 -156 203v43h135q64 0 112 -7.5t81.5 -19t56.5 -34.5t36 -45.5t19.5 -61t8.5 -72t2 -86.5v-332h598v658h299v-1434h-299v715h-598v-715h-295v1188z" />
    <glyph glyph-name="I" unicode="I" horiz-adv-x="612" 
d="M158 1188q0 203 -156 203v43h135q64 0 112 -7.5t81.5 -19t56.5 -34.5t36 -45.5t19.5 -61t8.5 -72t2 -86.5v-1108h-295v1188z" />
    <glyph glyph-name="J" unicode="J" horiz-adv-x="1247" 
d="M514 -20q-185 0 -320 86.5t-153 246.5h55q12 -124 122.5 -196t258.5 -72q150 0 241 98.5t91 302.5v742q0 203 -156 203v43h133q64 0 112 -7.5t82 -19t57 -34.5t36 -46t20 -61t9 -71.5t2 -86.5v-614q0 -108 -35 -196t-92.5 -146.5t-134.5 -98t-159 -56.5t-169 -17z" />
    <glyph glyph-name="K" unicode="K" horiz-adv-x="1529" 
d="M1448 -10q-52 -7 -86.5 -10.5t-96 -5.5t-104.5 4t-88.5 23t-71.5 46q-39 40 -59.5 108t-36.5 171t-28 149q-12 45 -25 75t-42 65.5t-70 55.5t-109.5 33.5t-159.5 12.5l782 717h86l-696 -633q123 15 218.5 -1.5t156.5 -59.5t97.5 -99t55.5 -129q15 -60 32.5 -150.5
t32.5 -149.5t38 -103q28 -50 65 -66t109 -10v-43zM158 1188q0 203 -156 203v43h135q64 0 112 -7.5t81.5 -19t56.5 -34.5t36 -45.5t19.5 -61t8.5 -72t2 -86.5v-1108h-295v1188z" />
    <glyph glyph-name="L" unicode="L" horiz-adv-x="1280" 
d="M530 0q-85 0 -145.5 9t-102 30.5t-66 47.5t-37.5 71.5t-17 90t-4 113.5v826q0 203 -156 203v43h135q64 0 112 -7.5t81.5 -19t56.5 -34.5t36 -45.5t19.5 -61t8.5 -72t2 -86.5v-870q0 -98 38 -138.5t140 -40.5h203q159 0 193.5 20t83.5 141q17 42 28 67h65q-10 -26 -27 -70
q-63 -164 -104 -191t-226 -26h-63h-254z" />
    <glyph glyph-name="M" unicode="M" horiz-adv-x="1925" 
d="M850 -35l-633 1245v-1210h-59v1319q-62 72 -156 72v43h168q44 0 63.5 -0.5t53.5 -3t50 -6.5t41.5 -11t40 -18t33 -27t33 -38t29.5 -50l457 -901l499 1055h297v-1434h-297v1288z" />
    <glyph glyph-name="N" unicode="N" horiz-adv-x="1447" 
d="M158 1315q-62 76 -156 76v43h162q64 0 101 -2t78.5 -10.5t69.5 -25t57 -45t56 -71.5l707 -1055v1209h59v-1313q61 -78 154 -78v-43h-162q-52 0 -84 1.5t-69 6.5t-61.5 15t-51.5 27t-50 42.5t-46 61.5l-705 1056v-1210h-59v1315z" />
    <glyph glyph-name="O" unicode="O" horiz-adv-x="1812" 
d="M907 -20q-222 0 -396.5 91t-274 260t-99.5 388t99.5 387t274 258t396.5 90q223 0 397.5 -90t272.5 -258t98 -387q0 -220 -98 -388.5t-272.5 -259.5t-397.5 -91zM911 39q229 0 346 176.5t117 503.5q0 326 -117 501t-346 175q-231 0 -350 -175t-119 -501t119 -503t350 -177
z" />
    <glyph glyph-name="P" unicode="P" horiz-adv-x="1439" 
d="M158 1188q0 35 -6 66t-21 64.5t-48 53t-81 19.5v43h737q586 0 586 -381q0 -64 -17.5 -119t-60.5 -104.5t-108.5 -84t-167.5 -55t-232 -20.5h-286v-670h-295v1188zM676 729q176 0 259 86.5t83 237.5q0 149 -83 235t-259 86h-289q43 -37 54.5 -98.5t11.5 -163.5v-383h223z
" />
    <glyph glyph-name="Q" unicode="Q" horiz-adv-x="1867" 
d="M934 -20q-229 0 -410 91t-284 260t-103 388t103 387t283.5 258t410.5 90t411 -90t283.5 -258t102.5 -387t-102.5 -388t-283.5 -260t-411 -91zM1513 -567q-82 0 -187.5 34.5t-206.5 84t-200.5 99t-197 84t-168.5 34.5q-89 0 -146 -33.5t-94 -134.5h-20q50 188 137 269
t209 81q79 0 182.5 -32.5t204 -79t200.5 -93t199.5 -79t173.5 -32.5q92 0 159.5 48t109.5 163h20q-60 -211 -156 -312t-219 -101zM940 39q225 0 357.5 180.5t132.5 499.5t-132.5 497.5t-357.5 178.5q-229 0 -363.5 -178.5t-134.5 -497.5t135 -499.5t363 -180.5z" />
    <glyph glyph-name="R" unicode="R" horiz-adv-x="1509" 
d="M1464 -10q-67 -9 -120 -12.5t-123.5 -2t-127.5 19t-94 50.5q-42 36 -71.5 92.5t-43.5 114t-30.5 122t-33.5 119t-52 102.5t-86 75h-229v-670h-295v1188q0 35 -6 66t-21 64.5t-48 53t-81 19.5v43h692q163 0 280 -28.5t182.5 -81.5t94.5 -119.5t29 -151.5
q0 -134 -80 -231.5t-256 -133.5q68 -14 115 -62t74 -116t46.5 -137.5t45 -146.5t55.5 -124q30 -42 72.5 -57t111.5 -10v-45zM639 729q176 0 256 86t80 238q0 150 -80 235.5t-256 85.5h-252q43 -37 54.5 -98.5t11.5 -163.5v-383h186z" />
    <glyph glyph-name="S" unicode="S" horiz-adv-x="1390" 
d="M680 -20q-95 0 -183 21t-162 61t-126.5 105.5t-71.5 147.5h60q20 -84 93 -146.5t169 -92t200 -29.5q142 0 240 64.5t98 183.5q0 51 -28.5 94t-76.5 74.5t-110 59.5t-131 55t-137.5 56t-130.5 67t-110 82.5t-76.5 108.5t-28.5 140q0 79 29.5 147.5t80.5 118t118 85.5
t143 53.5t155 17.5q114 0 214.5 -33.5t178 -108t101.5 -179.5h-60q-31 122 -148.5 190t-256.5 68q-127 0 -214 -62.5t-87 -177.5q0 -69 46 -123t119.5 -90.5t162 -70.5t177.5 -73t162.5 -86.5t119.5 -122.5t46 -171q0 -134 -85 -235t-214 -150t-276 -49z" />
    <glyph glyph-name="T" unicode="T" horiz-adv-x="1443" 
d="M571 0v1374h-139h-36q-45 0 -64 0.5t-47.5 -3t-36.5 -3t-26 -10t-20.5 -14t-15 -24t-15.5 -29.5t-16 -42q-14 -34 -22 -55h-65q9 24 24 66q46 131 82.5 153t210.5 21h59h555h58q55 0 78 0.5t57.5 -3.5t45 -5t31 -14t25 -20.5t19 -33.5t20 -43.5t20.5 -60.5q13 -38 21 -60
h-65q-8 19 -20 52q-15 39 -20.5 55t-22 35t-23.5 23t-39.5 10t-54.5 5.5t-83 -0.5h-36h-142v-1374h-297z" />
    <glyph glyph-name="U" unicode="U" horiz-adv-x="1472" 
d="M770 -23q-97 0 -183.5 18t-166 61.5t-137 108t-91.5 164.5t-34 226v633q0 203 -156 203v43h135q64 0 112 -7.5t81.5 -19t56.5 -34.5t36 -45.5t19.5 -61t8.5 -72t2 -86.5v-576q0 -131 30.5 -227t85.5 -149.5t121.5 -78.5t147.5 -24q190 -2 302.5 130.5t112.5 391.5v859h64
v-842q0 -312 -142.5 -463.5t-404.5 -151.5z" />
    <glyph glyph-name="V" unicode="V" horiz-adv-x="1492" 
d="M905 0q-137 0 -213 52t-123 179l-346 918q-20 51 -37 87t-44.5 75t-64 59.5t-81.5 20.5v43h197q136 0 207.5 -52t117.5 -180l352 -936l467 1168h68l-500 -1244q82 -147 217 -147v-43h-217z" />
    <glyph glyph-name="W" unicode="W" horiz-adv-x="2263" 
d="M860 0q-139 0 -216.5 52.5t-119.5 180.5l-315 916q-14 42 -25.5 69.5t-31 63.5t-40 57.5t-51 36.5t-65.5 15v43h194q136 0 204.5 -51.5t111.5 -180.5l325 -950l283 940q-36 93 -80.5 146t-118.5 53v43h195q136 0 202.5 -51t110.5 -181l330 -952l356 1184h66l-385 -1264
q70 -125 207 -125v-45h-217q-138 0 -215 52.5t-119 180.5l-297 859l-281 -922q67 -125 209 -125v-45h-217z" />
    <glyph glyph-name="X" unicode="X" horiz-adv-x="1478" 
d="M143 0l480 623l-324 544q-22 38 -36.5 61.5t-40.5 58t-49.5 54.5t-56.5 35t-67 15v43h246q54 0 96.5 -10.5t72 -26t58 -47.5t48 -61t48.5 -81l205 -340l434 566h78l-479 -621l324 -551q23 -38 36.5 -59.5t40.5 -56.5t50 -54t56 -34t67 -15v-43h-248q-67 0 -114.5 13
t-85 45.5t-62.5 68t-60 98.5l-205 340l-434 -565h-78z" />
    <glyph glyph-name="Y" unicode="Y" horiz-adv-x="1443" 
d="M571 0v602l-323 561q-5 8 -21.5 36.5t-23.5 40t-24 37t-28.5 37.5t-30 29.5t-35.5 26t-39 15t-46 6.5v43h256q52 0 91.5 -9.5t65 -22.5t52 -43.5t42 -55t44.5 -75.5q5 -9 8 -14l270 -473l445 693h74l-482 -752v-682h-295z" />
    <glyph glyph-name="Z" unicode="Z" horiz-adv-x="1478" 
d="M158 0l790 1374h-456h-37h-75t-52.5 -3.5t-39.5 -6t-25.5 -14.5t-21 -22.5t-16 -35.5t-20.5 -48q-12 -32 -19 -50h-65q8 23 23 63q37 105 57 132q27 35 91 42q35 4 146 3h58h825l-793 -1375h428q162 0 194 5q52 9 78 48q16 25 61 140q11 27 20 49h65q-11 -28 -29 -76
q-48 -132 -71 -165q-32 -45 -93 -54q-39 -7 -169 -6h-64h-790z" />
    <glyph glyph-name="bracketleft" unicode="[" horiz-adv-x="608" 
d="M102 -256v1706h445v-53h-178v-1600h178v-53h-445z" />
    <glyph glyph-name="backslash" unicode="\" horiz-adv-x="884" 
d="M737 -240l-635 1694h86l635 -1694h-86z" />
    <glyph glyph-name="bracketright" unicode="]" horiz-adv-x="608" 
d="M102 -256v53h177v1600h-177v53h445v-1706h-445z" />
    <glyph glyph-name="asciicircum" unicode="^" horiz-adv-x="675" 
d="M102 1157l256 594l256 -594h-106l-148 455l-153 -455h-105z" />
    <glyph glyph-name="underscore" unicode="_" horiz-adv-x="1144" 
d="M102 -102v61h981v-61h-981z" />
    <glyph glyph-name="grave" unicode="`" horiz-adv-x="532" 
d="M156 1409q-54 55 -22 108q25 40 77 47q63 8 96 -47q6 -9 10 -20l146 -377h-21z" />
    <glyph glyph-name="a" unicode="a" horiz-adv-x="1280" 
d="M446 -20q-149 0 -253.5 74t-104.5 194q0 56 21.5 99.5t58.5 70.5t86 46t105 29.5t113.5 17.5t114.5 13.5t105 15t87 23.5t59 37q0 104 -26 179t-72.5 115t-100 57.5t-119.5 17.5q-92 0 -169 -33t-124 -94h-55q55 94 181 148t282 54q97 0 183 -25.5t156.5 -76t112 -136.5
t41.5 -198v-362q0 -203 150 -203v-43h-127q-147 0 -212.5 35t-86.5 121q-156 -176 -406 -176zM563 76q73 0 146 36t129 103v317q-31 -22 -93 -37t-121 -26.5t-116 -31.5t-92 -63.5t-35 -109.5q0 -91 51.5 -139.5t130.5 -48.5z" />
    <glyph glyph-name="b" unicode="b" horiz-adv-x="1390" 
d="M815 -20q-111 0 -204.5 49t-149.5 133v-162h-277v1241q0 36 -5.5 66.5t-21 64t-49 53.5t-81.5 21v43h135q49 0 88.5 -4.5t70.5 -11.5t54 -20.5t39 -27.5t27 -37t17.5 -43.5t9.5 -53t4 -59.5t1 -69v-282q56 75 147 119t195 44q101 0 189.5 -36.5t155 -103.5t105 -168.5
t38.5 -223.5t-38.5 -223.5t-105 -168.5t-155 -103.5t-189.5 -36.5zM723 66q87 0 151.5 62.5t95.5 162.5t31 221q0 119 -30.5 218.5t-95 162.5t-152.5 63t-153.5 -61t-96.5 -170v-426q29 -106 96.5 -169.5t153.5 -63.5z" />
    <glyph glyph-name="c" unicode="c" horiz-adv-x="1173" 
d="M664 -20q-254 -2 -415 144.5t-161 387.5t161 387.5t415 144.5q289 0 421 -204h-57q-53 74 -131.5 108t-163.5 31q-158 -3 -249 -131.5t-91 -335.5t91 -335.5t249 -131.5q85 -3 163.5 31t131.5 108h57q-132 -204 -421 -204z" />
    <glyph glyph-name="d" unicode="d" horiz-adv-x="1325" 
d="M575 -20q-99 0 -187 36.5t-155 103.5t-106 168.5t-39 223.5t39 223.5t106 168.5t155 103.5t187 36.5q105 0 196 -43.5t147 -119.5v360q0 203 -156 205v43h135q49 0 88.5 -4.5t70.5 -11.5t54 -20.5t39 -27.5t27 -37t17.5 -43.5t9.5 -53t4 -59.5t1 -69v-1163h-276v162
q-58 -84 -152 -133t-205 -49zM668 66q87 0 153.5 63t96.5 170v426q-29 109 -95.5 170t-154.5 61q-87 0 -151.5 -63t-96 -162.5t-31.5 -218.5q0 -121 31.5 -221t96 -162.5t151.5 -62.5z" />
    <glyph glyph-name="e" unicode="e" horiz-adv-x="1284" 
d="M680 -20q-265 0 -428.5 145t-163.5 387q0 243 161.5 388.5t418.5 143.5q108 1 200.5 -27t164.5 -83t115 -144t48 -204h-799q-4 -25 -4 -74q0 -212 100 -333.5t283 -127.5q115 -3 212 51t134 140h62q-66 -125 -195 -193.5t-309 -68.5zM907 643q-9 155 -71.5 249.5
t-167.5 94.5q-112 0 -182.5 -106t-88.5 -273z" />
    <glyph glyph-name="f" unicode="f" horiz-adv-x="673" 
d="M129 0v963h-135v61h135v45q0 234 146 334t423 84v-41q-44 0 -80 -5.5t-63.5 -13.5t-48 -24t-35 -31.5t-24 -42t-15 -49t-8.5 -60t-3.5 -67t-0.5 -76.5v-53h239v-61h-239v-963h-291z" />
    <glyph glyph-name="g" unicode="g" horiz-adv-x="1271" 
d="M621 -559q-252 0 -398.5 79.5t-146.5 233.5q0 92 74.5 155.5t199.5 96.5h68q-127 -83 -127 -239q0 -125 85.5 -205t244.5 -80q149 0 245.5 76t96.5 206q0 62 -26 109.5t-68.5 75.5t-97 50.5t-112 35t-114 30t-102 34.5t-75.5 48.5t-36.5 72.5t16.5 106q-116 46 -179 132
t-63 204q0 176 140 279t372 103l37 -2q34 128 129 217t220 89q84 0 128 -40.5t44 -97.5q0 -50 -36.5 -89.5t-95.5 -39.5q-52 0 -88 37.5t-36 85.5q0 38 23 67.5t58 45.5q-104 -1 -185 -80.5t-105 -196.5q194 -20 306.5 -120.5t112.5 -257.5q0 -178 -138.5 -281t-373.5 -105
q-81 0 -128 8t-99 27q-22 -67 10.5 -108.5t102 -61t159 -32.5t183.5 -31.5t172.5 -48.5t129 -93.5t50.5 -156.5q0 -153 -157.5 -245.5t-419.5 -92.5zM616 319q78 0 131 49t76 124t23 170q0 146 -57.5 242.5t-170.5 96.5t-170 -96.5t-57 -242.5q0 -95 22.5 -170t74.5 -124
t128 -49z" />
    <glyph glyph-name="h" unicode="h" horiz-adv-x="1341" 
d="M184 1241q0 36 -5.5 66.5t-21 64t-49 53.5t-81.5 21v43h135q49 0 88.5 -4.5t70.5 -11.5t54 -20.5t39 -27.5t27 -37t17.5 -43.5t9.5 -53t4 -59.5t1 -69v-276q165 157 391 157q79 0 142.5 -20t113.5 -62t77.5 -113.5t27.5 -168.5v-680h-289v639q0 59 -3.5 100.5t-14.5 84.5
t-30 69t-53 42.5t-81 16.5q-75 0 -150.5 -34.5t-130.5 -98.5v-819h-289v1241z" />
    <glyph glyph-name="i" unicode="i" horiz-adv-x="583" 
d="M184 778q0 36 -5.5 66.5t-21 64t-49 53t-81.5 19.5v43h135q55 0 98.5 -4.5t75.5 -16t55 -24.5t38 -36.5t24 -44.5t13.5 -57t5.5 -65.5t1 -77.5v-698h-289v778zM289 1155q-70 0 -119 48.5t-49 117.5t48.5 116.5t119.5 47.5q68 0 117 -48t49 -116q0 -69 -49 -117.5
t-117 -48.5z" />
    <glyph glyph-name="j" unicode="j" horiz-adv-x="581" 
d="M-139 -569q94 8 158.5 40.5t100 88.5t50 123.5t14.5 158.5v936q0 203 -153 203v43h133q55 0 98.5 -4.5t75.5 -16t55 -24.5t38 -36.5t24 -44.5t13.5 -57t5.5 -65.5t1 -77.5v-794q0 -125 -48 -221.5t-133.5 -155.5t-194.5 -88.5t-238 -30.5v23zM291 1155q-69 0 -118.5 48.5
t-49.5 117.5t49.5 116.5t118.5 47.5t116.5 -47.5t47.5 -116.5t-47.5 -117.5t-116.5 -48.5z" />
    <glyph glyph-name="k" unicode="k" horiz-adv-x="1327" 
d="M1087 -20q-168 0 -235 88q-25 28 -48.5 79t-40 101.5t-41.5 105t-52.5 95.5t-73.5 67t-104 25l649 483h100l-569 -426q81 7 144 -13t101 -55t70.5 -89t51.5 -104t46 -112t52 -102q28 -48 61.5 -68t79.5 -22v-37q-6 -1 -52.5 -7t-77 -8t-61.5 -1zM184 1241q0 36 -5.5 66.5
t-21 64t-49 53.5t-81.5 21v43h135q49 0 88.5 -4.5t70.5 -11.5t54 -20.5t39 -27.5t27 -37t17.5 -43.5t9.5 -53t4 -59.5t1 -69v-1163h-289v1241z" />
    <glyph glyph-name="l" unicode="l" horiz-adv-x="782" 
d="M479 -20q-295 0 -295 335v926q0 36 -5.5 66.5t-21 64t-49 53.5t-81.5 21v43h135q49 0 88.5 -4.5t70.5 -11.5t54 -20.5t39 -27.5t27 -37t17.5 -43.5t9.5 -53t4 -59.5t1 -69v-925q0 -93 23 -138.5t94 -48.5q35 -3 81 12.5t79 40.5v-43q-94 -81 -271 -81z" />
    <glyph glyph-name="m" unicode="m" horiz-adv-x="1923" 
d="M184 778q0 36 -5.5 66.5t-21 64t-49 53t-81.5 19.5v43h135q139 0 204 -32t87 -111q83 85 164.5 124t179.5 39q238 0 309 -180q157 180 356 180q161 0 252.5 -87t91.5 -277v-680h-290v639q0 52 -1.5 85t-6 74t-15 66t-27.5 47.5t-44 32t-64 8.5q-119 0 -232 -143
q15 -59 15 -129v-680h-291v639q0 50 -1.5 84.5t-6.5 74.5t-16 65.5t-28 48t-43.5 32t-62.5 8.5q-107 0 -219 -127v-825h-289v778z" />
    <glyph glyph-name="n" unicode="n" horiz-adv-x="1341" 
d="M184 778q0 36 -5.5 66.5t-21 64t-49 53t-81.5 19.5v43h135q145 0 210 -34t85 -120q174 174 407 174q79 0 142.5 -20t113.5 -62t77.5 -113.5t27.5 -168.5v-680h-289v639q0 59 -3.5 100.5t-14.5 84.5t-30 69t-53 42.5t-81 16.5q-75 0 -150.5 -34.5t-130.5 -98.5v-819h-289
v778z" />
    <glyph glyph-name="o" unicode="o" horiz-adv-x="1363" 
d="M682 -20q-266 0 -430 143t-164 389t164 389t430 143t430 -143t164 -389t-164 -389t-430 -143zM682 39q97 0 164 67t97 171t30 235t-30 235t-97 171t-164 67q-73 0 -129.5 -38t-90.5 -104.5t-51.5 -150t-17.5 -180.5t17.5 -180.5t51.5 -150t90.5 -104.5t129.5 -38z" />
    <glyph glyph-name="p" unicode="p" horiz-adv-x="1390" 
d="M184 778q0 36 -5.5 66.5t-21 64t-49 53t-81.5 19.5v43h135q148 0 213 -36.5t86 -125.5q60 93 156 137.5t198 44.5q101 0 189.5 -36.5t155 -103.5t105 -168.5t38.5 -223.5t-38.5 -223.5t-105 -168.5t-155 -103.5t-189.5 -36.5q-102 0 -193.5 44.5t-148.5 118.5v-716h-289
v1351zM723 66q87 0 151.5 62.5t95.5 162.5t31 221q0 119 -30.5 218.5t-95 162.5t-152.5 63t-153.5 -61t-96.5 -170v-426q29 -106 96.5 -169.5t153.5 -63.5z" />
    <glyph glyph-name="q" unicode="q" horiz-adv-x="1325" 
d="M918 143q-57 -74 -148.5 -118.5t-194.5 -44.5q-100 0 -188.5 36.5t-155 103.5t-105 168.5t-38.5 223.5t38.5 223.5t105 168.5t155 103.5t188.5 36.5q111 0 205.5 -48t151.5 -134v162h276v-1597h-290v716zM668 66q87 0 153.5 63t96.5 170v426q-29 109 -95.5 170t-154.5 61
q-87 0 -151.5 -63t-96 -162.5t-31.5 -218.5q0 -121 31.5 -221t96 -162.5t151.5 -62.5z" />
    <glyph glyph-name="r" unicode="r" horiz-adv-x="962" 
d="M184 778q0 36 -5.5 66.5t-21 64t-49 53t-81.5 19.5v43h135q143 0 208 -33.5t87 -118.5q155 185 444 170v-202q-115 52 -164 65q-173 44 -264 -90v-815h-289v778z" />
    <glyph glyph-name="s" unicode="s" horiz-adv-x="1083" 
d="M524 -20q-143 0 -263.5 53t-172.5 153h62q42 -70 143.5 -109.5t216.5 -39.5q74 0 135 17.5t101 56.5t40 94q0 44 -37.5 78t-98 58t-133.5 47t-146 52t-133.5 65.5t-98 94.5t-37.5 133q0 96 65 168.5t163 107.5t211 35q132 0 242.5 -51.5t160.5 -150.5h-61
q-34 69 -123.5 107t-192.5 38q-108 0 -181.5 -42t-72.5 -118q0 -43 38 -76.5t98 -57t132.5 -45.5t145 -50.5t132 -64.5t97 -94.5t37.5 -133.5q0 -103 -69 -178.5t-173.5 -111t-226.5 -35.5z" />
    <glyph glyph-name="t" unicode="t" horiz-adv-x="716" 
d="M414 -20q-295 0 -295 335v648h-125v61h125v242h291v-242h223v-61h-223v-725q0 -94 22 -139t92 -48q36 -3 82.5 12.5t77.5 40.5v-43q-94 -81 -270 -81z" />
    <glyph glyph-name="u" unicode="u" horiz-adv-x="1341" 
d="M545 -20q-165 0 -263 88.5t-98 277.5v432q0 36 -5.5 66.5t-21 64t-49 53t-81.5 19.5v43h135q55 0 98.5 -4.5t75.5 -16t55 -24.5t38 -36.5t24 -44.5t13.5 -57t5.5 -65.5t1 -77.5v-313q0 -58 3 -99t14 -84.5t30 -69.5t52.5 -43t80.5 -17q75 0 150.5 35t132.5 100v571
q0 27 -3 52t-13 53.5t-27 49t-46.5 34.5t-68.5 14v43h135q63 0 110.5 -7t81 -18.5t56 -34.5t35.5 -45t19.5 -61t8 -72.5t1.5 -87.5v-698h-279v150q-82 -82 -186.5 -126t-214.5 -44z" />
    <glyph glyph-name="v" unicode="v" horiz-adv-x="1247" 
d="M795 0q-137 0 -210.5 51.5t-123.5 179.5l-209 508q-17 42 -29.5 69.5t-34 63.5t-43.5 57t-53.5 36.5t-68.5 15.5v43h206q129 -1 197 -53.5t119 -177.5l225 -553l328 784h67l-360 -856q36 -62 80 -93.5t106 -31.5v-43h-196z" />
    <glyph glyph-name="w" unicode="w" horiz-adv-x="1873" 
d="M743 0q-134 2 -209 53t-114 178l-170 508q-17 50 -35 87.5t-45 75.5t-64.5 58.5t-82.5 20.5v43h206q133 -2 204 -54t108 -177l184 -543l209 547q-76 184 -207 184v43h207q134 -2 204.5 -53.5t108.5 -177.5l185 -541l292 772h68l-324 -852q31 -67 77 -98t114 -31v-43h-207
q-137 2 -211 52.5t-113 178.5l-165 471l-203 -538q27 -65 73 -93t119 -28v-43h-209z" />
    <glyph glyph-name="x" unicode="x" horiz-adv-x="1368" 
d="M168 0l395 432l-237 354q-10 15 -31.5 47.5t-32 47.5t-31 38.5t-37.5 34t-43 19t-55 8.5v43h248q33 0 59 -2.5t49.5 -10t39.5 -13t35 -22.5t29.5 -26t30 -36t29 -41.5t33.5 -51.5l121 -176l344 379h86l-393 -430l237 -356q10 -15 31.5 -47.5t32 -47.5t31 -38.5t37.5 -34
t43 -19t55 -8.5v-43h-250q-33 0 -59 2.5t-49 10t-39.5 13.5t-34.5 21.5t-29.5 26.5t-29.5 36t-29 41.5t-33 51.5l-123 176l-344 -379h-86z" />
    <glyph glyph-name="y" unicode="y" horiz-adv-x="1232" 
d="M422 -512l205 475l-373 776q-54 118 -86 160q-61 82 -145 82v43h229q65 -1 109 -12.5t78.5 -42t58.5 -69t57 -107.5l221 -488l309 719h66l-662 -1536h-67z" />
    <glyph glyph-name="z" unicode="z" horiz-adv-x="1239" 
d="M131 0l594 963h-252q-153 1 -183 -5q-43 -8 -63 -44q-8 -14 -47 -115q-2 -6 -4 -11h-67q8 22 22 61q46 132 82.5 154t210.5 21h59h625l-594 -963h258q149 -1 180 5q41 9 61 46q7 12 46 114l4 10h65q-7 -21 -20 -58q-46 -134 -82.5 -156.5t-210.5 -21.5h-59h-625z" />
    <glyph glyph-name="braceleft" unicode="{" horiz-adv-x="710" 
d="M649 -246q-178 -24 -275.5 28.5t-97.5 156.5v479q0 61 -48 111t-126 67q96 21 135 72t39 131l3 477q2 94 101.5 140.5t268.5 23.5v-29q-64 -1 -91.5 -33.5t-27.5 -95.5l-2 -473q0 -166 -311 -213q143 -20 231.5 -69t88.5 -121l6 -482q2 -75 21.5 -108.5t84.5 -34.5v-27z
" />
    <glyph glyph-name="bar" unicode="|" horiz-adv-x="249" 
d="M102 -256v1706h86v-1706h-86z" />
    <glyph glyph-name="braceright" unicode="}" horiz-adv-x="710" 
d="M102 -219q67 1 87 34.5t22 108.5l4 482q1 72 90.5 121t231.5 69q-316 48 -316 213l2 473q0 62 -28.5 95t-92.5 34v29q174 23 272.5 -23t98.5 -141l2 -477q0 -79 40 -130.5t134 -72.5q-78 -17 -125 -67t-47 -111v-479q0 -104 -99 -156.5t-276 -28.5v27z" />
    <glyph glyph-name="asciitilde" unicode="~" horiz-adv-x="1042" 
d="M102 754q25 22 51 37.5t48.5 25t50.5 11.5t48 2.5t51 -7t48 -12t50.5 -18.5t48 -20.5t49.5 -22.5q55 -25 88.5 -38.5t84.5 -26t89.5 -9.5t84.5 21.5t87 56.5v-95q-24 -22 -49 -37t-46.5 -24.5t-49.5 -12.5t-47 -4t-49.5 6t-46.5 10.5t-49.5 17t-47 19.5t-49 22.5
t-47.5 21.5q-59 25 -101.5 38t-95.5 18t-103 -13.5t-98 -61.5v95z" />
    <glyph glyph-name="uni00A0" unicode="&#xa0;" horiz-adv-x="636" 
 />
    <glyph glyph-name="exclamdown" unicode="&#xa1;" horiz-adv-x="483" 
d="M106 -326l117 1135h78l115 -1135h-310zM262 909q-51 0 -86 34.5t-35 84.5q0 52 35 86.5t86 34.5q50 0 84.5 -34.5t34.5 -86.5q0 -50 -34.5 -84.5t-84.5 -34.5z" />
    <glyph glyph-name="cent" unicode="&#xa2;" horiz-adv-x="1159" 
d="M668 -20q-158 1 -286 65.5t-204 186.5t-76 280t76 280t204 186.5t286 65.5v164h57v-164q257 -17 373 -204h-58q-50 71 -124 105t-154 34q-13 0 -37 -4v-926q24 -4 35 -4q81 0 155.5 34t124.5 105h58q-116 -187 -373 -204v-185h-57v185zM668 965q-121 -34 -191.5 -156
t-70.5 -297q0 -178 70 -299.5t192 -153.5v906z" />
    <glyph glyph-name="sterling" unicode="&#xa3;" horiz-adv-x="1271" 
d="M223 0q195 172 195 395q0 68 -23.5 163.5t-58.5 182.5h-234l35 62h174q-28 96 -28 178q0 113 43 205t114.5 149.5t159.5 88.5t184 32q112 1 206.5 -40t156 -127t63.5 -202h-28q-13 146 -114.5 227t-231.5 81q-134 -2 -215.5 -90.5t-81.5 -264.5q0 -110 30 -237h328
l-35 -62h-278q22 -105 14 -200q-19 -174 -180 -361h413q162 -1 194 5q44 8 68 45q9 13 56 112h49q-12 -29 -32 -79q-32 -81 -44.5 -113t-40.5 -71.5t-37 -48t-54 -20.5t-70.5 -11t-104.5 1h-59h-533z" />
    <glyph glyph-name="currency" unicode="&#xa4;" horiz-adv-x="1253" 
d="M647 -18q-215 0 -366 129l-113 -113l-39 39l113 113q-138 144 -138 362t138 362l-117 117l39 39l117 -117q151 129 366 129q214 0 363 -124l112 112l39 -39l-110 -110q141 -147 141 -369t-141 -369l106 -106l-39 -39l-108 108q-149 -124 -363 -124zM649 16
q86 0 146.5 69.5t88 179.5t27.5 247q0 139 -27.5 248.5t-88 178.5t-146.5 69q-87 0 -147 -69t-86.5 -178t-26.5 -249q0 -102 15.5 -190t46.5 -157.5t82 -109t116 -39.5z" />
    <glyph glyph-name="yen" unicode="&#xa5;" horiz-adv-x="1476" 
d="M639 0v582h-305v61h282l-81 143h-201v62h164l-176 307q-7 11 -23 38.5t-24 42t-24.5 38.5t-28.5 37.5t-31 31t-36.5 26.5t-40 15.5t-46.5 6.5v43h256q34 0 61.5 -2.5t51.5 -12t40.5 -16t36 -26l29.5 -29.5t28.5 -39.5t26 -43t29.5 -51.5l272 -473l442 693h74l-375 -586
h199v-62h-238l-65 -104v-39h303v-61h-303v-582h-297z" />
    <glyph glyph-name="brokenbar" unicode="&#xa6;" horiz-adv-x="249" 
d="M102 666v784h86v-784h-86zM102 -256v784h86v-784h-86z" />
    <glyph glyph-name="section" unicode="&#xa7;" horiz-adv-x="1050" 
d="M516 -14q-134 0 -216 60t-87 159h45q1 -77 71.5 -123.5t168.5 -46.5q79 0 127.5 35.5t48.5 101.5q0 50 -32 95.5t-82.5 81t-112 70.5t-122.5 73.5t-111.5 81.5t-81.5 102t-30 127q1 73 49 142.5t128 113.5q-33 64 -33 123q0 113 94.5 192.5t239.5 79.5q134 0 214 -60
t85 -159h-50q-3 83 -67.5 129.5t-157.5 46.5q-84 0 -135 -37.5t-51 -105.5q0 -50 31.5 -95t82.5 -80.5t112 -71.5t122 -75t111.5 -82t81.5 -101.5t30 -125.5q-2 -74 -49.5 -143t-126.5 -113q33 -53 33 -123q0 -115 -92.5 -193.5t-237.5 -78.5zM778 430q71 65 68 152
q-3 51 -43.5 96.5t-104.5 83t-132 73t-139 82t-112 93.5q-73 -64 -67 -152q2 -51 42.5 -96.5t104 -83t131.5 -73t139.5 -82t112.5 -93.5z" />
    <glyph glyph-name="dieresis" unicode="&#xa8;" horiz-adv-x="815" 
d="M258 1122q-59 0 -97 37.5t-38 97.5q0 58 38.5 97.5t96.5 36.5q56 -2 94.5 -40t38.5 -94q0 -59 -38.5 -97t-94.5 -38zM614 1122q-59 0 -98 38t-39 97q0 57 39 94.5t98 37.5q55 0 94.5 -38t39.5 -94q0 -59 -39.5 -97t-94.5 -38z" />
    <glyph glyph-name="copyright" unicode="&#xa9;" horiz-adv-x="1472" 
d="M758 -18q-178 0 -329 87.5t-239 238t-88 327.5q0 178 88 328.5t239 237.5t329 87q176 0 326.5 -87.5t238.5 -238t88 -327.5t-88 -327.5t-238.5 -238t-326.5 -87.5zM791 252q-170 -2 -283 101.5t-113 281.5q0 176 113 278.5t283 102.5q201 -3 296 -135l-36 -4
q-38 50 -96 71.5t-117 18.5q-109 -3 -165.5 -93.5t-56.5 -238.5q0 -150 56.5 -240t165.5 -94q59 -3 117 18.5t96 71.5l36 -6q-97 -133 -296 -133zM758 41q160 0 297 80t217 217t80 297t-80 297t-217 217t-297 80q-122 0 -232 -47t-189 -126t-126 -189t-47 -232
q0 -161 79 -297.5t216 -216.5t299 -80z" />
    <glyph glyph-name="ordfeminine" unicode="&#xaa;" horiz-adv-x="1056" 
d="M461 666q-152 0 -255.5 106t-103.5 285t103.5 286t255.5 107q72 0 135.5 -26t101.5 -72v84h230v-756h-230v82q-81 -96 -237 -96zM528 715q54 0 98 41t64 110v381q-20 71 -63 109.5t-99 38.5q-85 0 -132.5 -97.5t-47.5 -240.5q0 -146 47.5 -244t132.5 -98z" />
    <glyph glyph-name="guillemotleft" unicode="&#xab;" horiz-adv-x="1271" 
d="M1210 80l-663 465l663 465v-113l-495 -352l495 -352v-113zM766 80l-664 465l664 465v-113l-496 -352l496 -352v-113z" />
    <glyph glyph-name="logicalnot" unicode="&#xac;" horiz-adv-x="1042" 
d="M887 362v304h-785v96h879v-400h-94z" />
    <glyph glyph-name="uni00AD" unicode="&#xad;" horiz-adv-x="837" 
d="M102 563v62h674v-62h-674z" />
    <glyph glyph-name="registered" unicode="&#xae;" horiz-adv-x="952" 
d="M498 877q-164 0 -280 115.5t-116 279.5q0 163 116 278t280 115q163 0 278 -115t115 -278q0 -164 -115 -279.5t-278 -115.5zM498 928q142 0 241 100.5t99 243.5q0 142 -99 242t-241 100q-144 0 -243 -100t-99 -242q0 -143 99 -243.5t243 -100.5zM350 1075v410h154
q79 0 119.5 -27.5t40.5 -79.5q0 -80 -103 -98l115 -199h-94l-109 193h-39v-199h-84zM496 1311q84 0 84 67q0 70 -84 70h-62v-137h62z" />
    <glyph glyph-name="macron" unicode="&#xaf;" horiz-adv-x="878" 
d="M123 1182v82h686v-82h-686z" />
    <glyph glyph-name="degree" unicode="&#xb0;" horiz-adv-x="765" 
d="M403 954q-125 0 -213 88t-88 213t88 213t213 88t213.5 -88.5t88.5 -212.5t-88.5 -212.5t-213.5 -88.5zM403 1024q94 0 161 68t67 163q0 94 -67 161t-161 67t-160.5 -67t-66.5 -161q0 -95 66.5 -163t160.5 -68z" />
    <glyph glyph-name="plusminus" unicode="&#xb1;" horiz-adv-x="1060" 
d="M508 307v426h-406v86h406v385h86v-385h405v-86h-405v-426h-86zM106 152v86h889v-86h-889z" />
    <glyph glyph-name="uni00B2" unicode="&#xb2;" horiz-adv-x="829" 
d="M113 565q467 365 467 711q0 119 -66 184.5t-158 65.5q-89 0 -156 -60.5t-67 -167.5h-29q-1 139 97 215t235 76q89 0 166.5 -33t129.5 -104t52 -168q0 -64 -31.5 -133t-75.5 -125t-116 -122.5t-127.5 -110t-134.5 -101.5h483l-49 -141h-620v14z" />
    <glyph glyph-name="uni00B3" unicode="&#xb3;" horiz-adv-x="882" 
d="M442 545q-128 0 -214 55.5t-117 157.5h24q34 -87 103.5 -125.5t152.5 -38.5q121 0 190.5 81t69.5 193q0 95 -52.5 164t-149.5 92v11q63 34 97 92t34 133q0 86 -54.5 133t-132.5 47q-90 0 -156.5 -56t-66.5 -153h-23q1 86 46.5 147.5t112.5 89t145 27.5q124 0 208 -60.5
t84 -172.5q0 -71 -49.5 -126.5t-142.5 -78.5q147 -23 216 -101.5t69 -187.5q0 -145 -111 -234t-283 -89z" />
    <glyph glyph-name="acute" unicode="&#xb4;" horiz-adv-x="532" 
d="M268 1497q25 65 87 68q52 2 86 -36q40 -45 5 -99q-8 -11 -18 -21l-285 -289h-20z" />
    <glyph glyph-name="uni00B5" unicode="&#xb5;" horiz-adv-x="1513" 
d="M238 778q0 203 -156 203v43h135q63 0 110 -7t80.5 -18.5t56 -34.5t35 -45t19 -61t8.5 -72.5t2 -87.5v-313q0 -58 3 -99.5t14 -84.5t30 -69t53 -43t81 -17q75 0 150.5 36.5t135.5 106.5q-6 43 -6 90v473q0 203 -155 203v43h135q63 0 110 -7t80.5 -18.5t56 -34.5t35 -45
t19 -61t8.5 -72.5t2 -87.5v-383q0 -56 2 -93t11.5 -80t26.5 -68t49 -42t77 -16v-16q-69 -16 -131 -16q-243 0 -303 176q-183 -183 -377 -183q-67 0 -107 25v-575h-290v1351z" />
    <glyph glyph-name="paragraph" unicode="&#xb6;" horiz-adv-x="1103" 
d="M399 664q-151 1 -233 131q-73 115 -61 274q12 162 108 265q93 100 236 100h593v-1434h-256v1384l-147 2q-72 0 -109.5 -56.5t-37.5 -125.5v-1204h-93v664z" />
    <glyph glyph-name="periodcentered" unicode="&#xb7;" horiz-adv-x="409" 
d="M225 539q-53 0 -88 35.5t-35 87.5q0 51 35.5 86.5t87.5 35.5t87.5 -35.5t35.5 -86.5q0 -52 -35 -87.5t-88 -35.5z" />
    <glyph glyph-name="cedilla" unicode="&#xb8;" horiz-adv-x="614" 
d="M279 -408q47 0 75 28t31 69q2 48 -37 88t-119 53l125 201h64l-88 -127q58 -3 102.5 -22t68 -47.5t35 -58t11.5 -59.5q0 -71 -48.5 -119.5t-115.5 -61.5t-140.5 8t-119.5 75l16 25q73 -52 140 -52z" />
    <glyph glyph-name="uni00B9" unicode="&#xb9;" horiz-adv-x="585" 
d="M207 547v827l-70 2v15l271 196h14v-1040h-215z" />
    <glyph glyph-name="ordmasculine" unicode="&#xba;" horiz-adv-x="1089" 
d="M545 662q-199 0 -321 106.5t-122 288.5q0 184 122 290.5t321 106.5q200 0 321 -106.5t121 -290.5q0 -183 -121 -289t-321 -106zM543 705q56 0 95.5 26.5t60.5 76.5t30.5 110.5t9.5 138.5q0 79 -9.5 140t-30.5 111t-60.5 76.5t-95.5 26.5q-193 0 -193 -354
q0 -352 193 -352z" />
    <glyph glyph-name="guillemotright" unicode="&#xbb;" horiz-adv-x="1271" 
d="M547 80v113l495 352l-495 352v113l663 -465zM102 80v113l498 352l-498 352v113l664 -465z" />
    <glyph glyph-name="onequarter" unicode="&#xbc;" horiz-adv-x="1667" 
d="M233 629v827l-69 2v15l270 196h15v-1040h-216zM289 -205l1044 1802h78l-1044 -1802h-78zM1288 -199v291h-411l505 748h121v-1039h-215zM963 141h325v477z" />
    <glyph glyph-name="onehalf" unicode="&#xbd;" horiz-adv-x="1964" 
d="M260 -205l1045 1802h79l-1044 -1802h-80zM233 629v827l-69 2v15l270 196h15v-1040h-216zM1118 -195q467 365 467 711q0 120 -65.5 186t-157.5 66t-157.5 -60.5t-65.5 -168.5h-29q0 71 28 128t75.5 92t106.5 53.5t124 18.5q88 0 165.5 -33t130 -104.5t52.5 -169.5
q0 -54 -20 -109.5t-59.5 -109t-82 -100.5t-105 -100t-108.5 -89t-112 -84h485l-51 -139h-621v12z" />
    <glyph glyph-name="threequarters" unicode="&#xbe;" horiz-adv-x="1921" 
d="M586 -205l1044 1802h78l-1044 -1802h-78zM498 545q-130 0 -216.5 55.5t-115.5 157.5h24q33 -87 102.5 -125.5t153.5 -38.5q120 0 189.5 81.5t69.5 192.5q0 95 -52 164t-149 92v11q63 34 97 92t34 133q0 86 -55.5 133t-133.5 47q-88 0 -154.5 -56t-66.5 -153h-22
q0 86 45.5 147.5t112 89t143.5 27.5q125 0 210 -61t85 -172q0 -71 -50 -126.5t-143 -78.5q147 -23 216 -101.5t69 -187.5q0 -145 -110.5 -234t-282.5 -89zM1540 -199v291h-412l506 748h123v-1039h-217zM1214 141h326v477z" />
    <glyph glyph-name="questiondown" unicode="&#xbf;" horiz-adv-x="954" 
d="M500 -330q-102 0 -191.5 38.5t-148 118t-58.5 185.5q0 70 24 137t62.5 121.5t85 107.5t93.5 104t85.5 101t62.5 107t24 115h36q3 -92 -18.5 -180t-55 -159.5t-67.5 -141.5t-58 -152t-24 -164q0 -126 71 -194t171 -68q66 0 125 29t98.5 90.5t40.5 142.5h35
q-1 -109 -59 -187.5t-145 -114.5t-189 -36zM555 909q-50 0 -84.5 34t-34.5 85q0 52 34.5 86.5t84.5 34.5q53 0 87 -34.5t34 -86.5q0 -51 -34.5 -85t-86.5 -34z" />
    <glyph glyph-name="Agrave" unicode="&#xc0;" horiz-adv-x="1486" 
d="M582 1294q-34 47 -73 72t-95 25v43h182q141 0 226 -54.5t130 -181.5l445 -1198h-316l-170 457h-581l-174 -457h-68zM352 516h537l-217 584q-29 85 -49 127zM401 1821q-54 55 -22 107q25 41 77 48q63 8 97 -46q6 -10 10 -21l146 -377h-21z" />
    <glyph glyph-name="Aacute" unicode="&#xc1;" horiz-adv-x="1486" 
d="M582 1294q-34 47 -73 72t-95 25v43h182q141 0 226 -54.5t130 -181.5l445 -1198h-316l-170 457h-581l-174 -457h-68zM352 516h537l-217 584q-29 85 -49 127zM872 1911q25 65 87 68q52 2 86 -36q40 -45 5 -99q-8 -11 -18 -21l-284 -289h-21z" />
    <glyph glyph-name="Acircumflex" unicode="&#xc2;" horiz-adv-x="1486" 
d="M582 1294q-34 47 -73 72t-95 25v43h182q141 0 226 -54.5t130 -181.5l445 -1198h-316l-170 457h-581l-174 -457h-68zM352 516h537l-217 584q-29 85 -49 127zM629 1913q21 49 61.5 64t79.5 -3.5t59 -60.5l172 -377h-20l-252 285l-254 -285h-20z" />
    <glyph glyph-name="Atilde" unicode="&#xc3;" horiz-adv-x="1486" 
d="M582 1294q-34 47 -73 72t-95 25v43h182q141 0 226 -54.5t130 -181.5l445 -1198h-316l-170 457h-581l-174 -457h-68zM352 516h537l-217 584q-29 85 -49 127zM942 1536q-74 0 -228.5 51t-203.5 51q-53 0 -78.5 -17t-25.5 -60h-31q-5 73 5 123.5t33.5 76.5t51 36.5
t65.5 10.5q72 0 227.5 -50t207.5 -50t78 17.5t26 60.5h31q8 -124 -37.5 -187t-120.5 -63z" />
    <glyph glyph-name="Adieresis" unicode="&#xc4;" horiz-adv-x="1486" 
d="M582 1294q-34 47 -73 72t-95 25v43h182q141 0 226 -54.5t130 -181.5l445 -1198h-316l-170 457h-581l-174 -457h-68zM352 516h537l-217 584q-29 85 -49 127zM555 1528q-59 0 -97 37.5t-38 97.5q0 58 38.5 97t96.5 36q56 -2 94.5 -39.5t38.5 -93.5q0 -59 -38.5 -97
t-94.5 -38zM911 1528q-59 0 -98 38t-39 97q0 57 39 94t98 37q55 0 94 -37.5t39 -93.5q0 -59 -39 -97t-94 -38z" />
    <glyph glyph-name="Aring" unicode="&#xc5;" horiz-adv-x="1486" 
d="M582 1294q-34 47 -73 72t-95 25v43h182q141 0 226 -54.5t130 -181.5l445 -1198h-316l-170 457h-581l-174 -457h-68zM352 516h537l-217 584q-29 85 -49 127zM729 1538q-91 0 -156 64.5t-65 156.5t65 156.5t156 64.5t157 -64.5t66 -156.5t-66 -156.5t-157 -64.5zM729 1602
q65 0 111.5 45.5t46.5 111.5q0 64 -46.5 110t-111.5 46q-63 0 -109.5 -46t-46.5 -110q0 -65 46 -111t110 -46z" />
    <glyph glyph-name="AE" unicode="&#xc6;" horiz-adv-x="2091" 
d="M76 0l663 1434h783q182 0 212 -4q61 -7 88 -44q19 -27 57 -136q14 -43 24 -70h-64q-10 24 -25 64q-37 98 -66.5 114.5t-170.5 15.5h-51h-410q31 -26 47 -71t18.5 -83.5t2.5 -107.5v-342h588v-59h-588v-473q0 -98 38 -138.5t140 -40.5h211q162 0 194 5q51 9 78 48
q16 24 63 138q11 28 21 51h62q-11 -28 -29 -76q-48 -132 -71 -165q-32 -45 -93 -54q-39 -7 -169 -6h-64h-303q-85 0 -146.5 9t-103 30.5t-66.5 48t-38 71.5t-17 89.5t-4 113.5v197h-486l-258 -559h-67zM430 621h457v567q0 165 -105 196z" />
    <glyph glyph-name="Ccedilla" unicode="&#xc7;" horiz-adv-x="1593" 
d="M805 -436q47 0 75 27.5t31 68.5q2 48 -36.5 88t-118.5 53l110 179q-116 5 -223 38t-199 95t-160.5 148t-107.5 204t-39 254q0 140 41.5 260t113.5 206.5t168.5 148t208.5 91.5t232 31q197 2 353.5 -74.5t244.5 -248.5h-63q-36 68 -92 120t-119.5 81t-126 43t-121.5 12
q-245 -3 -390 -182t-145 -488q0 -310 144.5 -488.5t390.5 -183.5q81 -1 163.5 22.5t165.5 84t130 149.5h63q-162 -312 -571 -323l-72 -105q58 -3 102.5 -21.5t68 -47t35 -58t11.5 -59.5q0 -71 -48.5 -119.5t-115.5 -62t-140.5 7.5t-119.5 75l17 25q72 -51 139 -51z" />
    <glyph glyph-name="Egrave" unicode="&#xc8;" horiz-adv-x="1361" 
d="M530 0q-85 0 -145.5 9t-102 30.5t-66 47.5t-37.5 71.5t-17 90t-4 113.5v826q0 35 -6 66t-21 64.5t-48 53t-81 19.5v43h791q182 0 213 -4q60 -8 86 -45q19 -26 56 -133q12 -34 21 -58h-65q-8 20 -21 53q-15 39 -21 54.5t-23 34.5t-24 23t-40.5 10t-56 5.5t-85.5 -0.5h-38
h-408q43 -37 54.5 -98.5t11.5 -163.5v-342h587v-59h-587v-473q0 -98 38 -138.5t140 -40.5h213q162 0 194 6q51 9 77 48q14 22 61 135q8 21 16 39h63q-10 -25 -26 -69q-62 -164 -103 -191.5t-227 -26.5h-63h-306zM436 1823q-54 55 -22 107q25 41 77 48q63 8 97 -46
q6 -10 10 -21l145 -377h-20z" />
    <glyph glyph-name="Eacute" unicode="&#xc9;" horiz-adv-x="1361" 
d="M530 0q-85 0 -145.5 9t-102 30.5t-66 47.5t-37.5 71.5t-17 90t-4 113.5v826q0 35 -6 66t-21 64.5t-48 53t-81 19.5v43h791q182 0 213 -4q60 -8 86 -45q19 -26 56 -133q12 -34 21 -58h-65q-8 20 -21 53q-15 39 -21 54.5t-23 34.5t-24 23t-40.5 10t-56 5.5t-85.5 -0.5h-38
h-408q43 -37 54.5 -98.5t11.5 -163.5v-342h587v-59h-587v-473q0 -98 38 -138.5t140 -40.5h213q162 0 194 6q51 9 77 48q14 22 61 135q8 21 16 39h63q-10 -25 -26 -69q-62 -164 -103 -191.5t-227 -26.5h-63h-306zM766 1909q25 65 87 68q52 2 86 -36q40 -45 5 -99
q-8 -11 -18 -21l-285 -289h-20z" />
    <glyph glyph-name="Ecircumflex" unicode="&#xca;" horiz-adv-x="1361" 
d="M530 0q-85 0 -145.5 9t-102 30.5t-66 47.5t-37.5 71.5t-17 90t-4 113.5v826q0 35 -6 66t-21 64.5t-48 53t-81 19.5v43h791q182 0 213 -4q60 -8 86 -45q19 -26 56 -133q12 -34 21 -58h-65q-8 20 -21 53q-15 39 -21 54.5t-23 34.5t-24 23t-40.5 10t-56 5.5t-85.5 -0.5h-38
h-408q43 -37 54.5 -98.5t11.5 -163.5v-342h587v-59h-587v-473q0 -98 38 -138.5t140 -40.5h213q162 0 194 6q51 9 77 48q14 22 61 135q8 21 16 39h63q-10 -25 -26 -69q-62 -164 -103 -191.5t-227 -26.5h-63h-306zM559 1917q21 49 62 64t80 -3.5t59 -60.5l172 -377h-21
l-252 285l-253 -285h-21z" />
    <glyph glyph-name="Edieresis" unicode="&#xcb;" horiz-adv-x="1361" 
d="M530 0q-85 0 -145.5 9t-102 30.5t-66 47.5t-37.5 71.5t-17 90t-4 113.5v826q0 35 -6 66t-21 64.5t-48 53t-81 19.5v43h791q182 0 213 -4q60 -8 86 -45q19 -26 56 -133q12 -34 21 -58h-65q-8 20 -21 53q-15 39 -21 54.5t-23 34.5t-24 23t-40.5 10t-56 5.5t-85.5 -0.5h-38
h-408q43 -37 54.5 -98.5t11.5 -163.5v-342h587v-59h-587v-473q0 -98 38 -138.5t140 -40.5h213q162 0 194 6q51 9 77 48q14 22 61 135q8 21 16 39h63q-10 -25 -26 -69q-62 -164 -103 -191.5t-227 -26.5h-63h-306zM516 1538q-59 0 -97 37.5t-38 97.5q0 58 38.5 97t96.5 36
q56 -2 94.5 -39.5t38.5 -93.5q0 -59 -38.5 -97t-94.5 -38zM872 1538q-59 0 -98 38t-39 97q0 57 39 94t98 37q55 0 94.5 -37.5t39.5 -93.5q0 -59 -39.5 -97t-94.5 -38z" />
    <glyph glyph-name="Igrave" unicode="&#xcc;" horiz-adv-x="612" 
d="M158 1188q0 203 -156 203v43h135q64 0 112 -7.5t81.5 -19t56.5 -34.5t36 -45.5t19.5 -61t8.5 -72t2 -86.5v-1108h-295v1188zM129 1821q-54 55 -22 107q25 41 77 48q63 8 97 -46q6 -10 10 -21l145 -377h-20z" />
    <glyph glyph-name="Iacute" unicode="&#xcd;" horiz-adv-x="612" 
d="M158 1188q0 203 -156 203v43h135q64 0 112 -7.5t81.5 -19t56.5 -34.5t36 -45.5t19.5 -61t8.5 -72t2 -86.5v-1108h-295v1188zM276 1915q25 65 87 68q52 2 86 -36q40 -45 5 -99q-8 -11 -18 -21l-284 -289h-21z" />
    <glyph glyph-name="Icircumflex" unicode="&#xce;" horiz-adv-x="612" 
d="M158 1188q0 203 -156 203v43h135q64 0 112 -7.5t81.5 -19t56.5 -34.5t36 -45.5t19.5 -61t8.5 -72t2 -86.5v-1108h-295v1188zM205 1913q21 49 62 64t80 -3.5t59 -60.5l172 -377h-21l-252 285l-254 -285h-20z" />
    <glyph glyph-name="Idieresis" unicode="&#xcf;" horiz-adv-x="612" 
d="M158 1188q0 203 -156 203v43h135q64 0 112 -7.5t81.5 -19t56.5 -34.5t36 -45.5t19.5 -61t8.5 -72t2 -86.5v-1108h-295v1188zM129 1530q-59 0 -97 37.5t-38 97.5q0 58 38.5 97t96.5 36q56 -2 94.5 -39.5t38.5 -93.5q0 -59 -38.5 -97t-94.5 -38zM485 1530q-59 0 -98 38
t-39 97q0 57 39 94t98 37q55 0 94 -37.5t39 -93.5q0 -59 -39 -97t-94 -38z" />
    <glyph glyph-name="Eth" unicode="&#xd0;" horiz-adv-x="1613" 
d="M530 0q-64 0 -114 5t-88 17t-65.5 26.5t-46 39t-30 49t-18 61.5t-8.5 71.5t-2 84.5v338h-144v64h144v418q0 217 -142 217v43h654q169 0 306 -40.5t229 -108.5t154.5 -161.5t90 -195.5t27.5 -213q0 -110 -27.5 -211.5t-90 -194t-154 -160.5t-229 -108.5t-306.5 -40.5h-140
zM645 59q114 2 205 41.5t149 102.5t97 149t55 176.5t16 190.5q0 101 -16 192t-55 177t-98 148.5t-150.5 100t-206.5 37.5h-250q40 -33 51 -91.5t11 -152.5v-374h168v-64h-168v-454q0 -99 34 -139t131 -40h27z" />
    <glyph glyph-name="Ntilde" unicode="&#xd1;" horiz-adv-x="1447" 
d="M158 1315q-62 76 -156 76v43h162q64 0 101 -2t78.5 -10.5t69.5 -25t57 -45t56 -71.5l707 -1055v1209h59v-1313q61 -78 154 -78v-43h-162q-52 0 -84 1.5t-69 6.5t-61.5 15t-51.5 27t-50 42.5t-46 61.5l-705 1056v-1210h-59v1315zM963 1548q-74 0 -229 51.5t-204 51.5
q-53 0 -78.5 -17.5t-25.5 -60.5h-31q-5 73 5 124t33.5 77t51.5 36.5t66 10.5q72 0 227 -50.5t207 -50.5t78.5 18t26.5 60h30q8 -125 -37 -187.5t-120 -62.5z" />
    <glyph glyph-name="Ograve" unicode="&#xd2;" horiz-adv-x="1867" 
d="M907 -20q-222 0 -396.5 91t-274 260t-99.5 388t99.5 387t274 258t396.5 90q223 0 397.5 -90t272.5 -258t98 -387q0 -220 -98 -388.5t-272.5 -259.5t-397.5 -91zM911 39q229 0 346 176.5t117 503.5q0 326 -117 501t-346 175q-231 0 -350 -175t-119 -501t119 -503t350 -177
zM762 1825q-54 55 -22 107q25 41 77 48q63 8 97 -46q6 -10 10 -21l145 -377h-20z" />
    <glyph glyph-name="Oacute" unicode="&#xd3;" horiz-adv-x="1867" 
d="M907 -20q-222 0 -396.5 91t-274 260t-99.5 388t99.5 387t274 258t396.5 90q223 0 397.5 -90t272.5 -258t98 -387q0 -220 -98 -388.5t-272.5 -259.5t-397.5 -91zM911 39q229 0 346 176.5t117 503.5q0 326 -117 501t-346 175q-231 0 -350 -175t-119 -501t119 -503t350 -177
zM930 1886q25 65 87 68q52 2 86 -36q40 -45 5 -99q-8 -11 -18 -21l-285 -289h-21z" />
    <glyph glyph-name="Ocircumflex" unicode="&#xd4;" horiz-adv-x="1867" 
d="M907 -20q-222 0 -396.5 91t-274 260t-99.5 388t99.5 387t274 258t396.5 90q223 0 397.5 -90t272.5 -258t98 -387q0 -220 -98 -388.5t-272.5 -259.5t-397.5 -91zM911 39q229 0 346 176.5t117 503.5q0 326 -117 501t-346 175q-231 0 -350 -175t-119 -501t119 -503t350 -177
zM838 1913q21 49 61.5 64t79.5 -3.5t59 -60.5l172 -377h-20l-252 285l-254 -285h-20z" />
    <glyph glyph-name="Otilde" unicode="&#xd5;" horiz-adv-x="1867" 
d="M907 -20q-222 0 -396.5 91t-274 260t-99.5 388t99.5 387t274 258t396.5 90q223 0 397.5 -90t272.5 -258t98 -387q0 -220 -98 -388.5t-272.5 -259.5t-397.5 -91zM911 39q229 0 346 176.5t117 503.5q0 326 -117 501t-346 175q-231 0 -350 -175t-119 -501t119 -503t350 -177
zM1155 1552q-74 0 -228.5 51.5t-203.5 51.5q-53 0 -79 -17.5t-26 -60.5h-30q-5 73 5 124t33.5 77t51.5 36.5t65 10.5q72 0 227.5 -50.5t207.5 -50.5t78 17.5t26 60.5h31q8 -124 -37.5 -187t-120.5 -63z" />
    <glyph glyph-name="Odieresis" unicode="&#xd6;" horiz-adv-x="1867" 
d="M907 -20q-222 0 -396.5 91t-274 260t-99.5 388t99.5 387t274 258t396.5 90q223 0 397.5 -90t272.5 -258t98 -387q0 -220 -98 -388.5t-272.5 -259.5t-397.5 -91zM911 39q229 0 346 176.5t117 503.5q0 326 -117 501t-346 175q-231 0 -350 -175t-119 -501t119 -503t350 -177
zM754 1528q-59 0 -97.5 37.5t-38.5 97.5q0 58 39 97t97 36q56 -2 94.5 -39.5t38.5 -93.5q0 -59 -38.5 -97t-94.5 -38zM1110 1528q-59 0 -98 38t-39 97q0 57 39 94t98 37q55 0 94 -37.5t39 -93.5q0 -59 -39 -97t-94 -38z" />
    <glyph glyph-name="multiply" unicode="&#xd7;" horiz-adv-x="874" 
d="M752 350l-301 303l-287 -286l-62 61l287 287l-272 272l61 62l273 -273l286 287l62 -64l-287 -286l301 -301z" />
    <glyph glyph-name="Oslash" unicode="&#xd8;" horiz-adv-x="1812" 
d="M907 -20q-260 0 -454 124l-84 -104h-58l105 131q-133 98 -206 249t-73 339q0 219 99.5 387t274 258t396.5 90q264 0 455 -125l82 105h59l-102 -131q131 -97 202.5 -246.5t71.5 -337.5q0 -220 -98 -388.5t-272.5 -259.5t-397.5 -91zM911 39q229 0 346 176.5t117 503.5
q0 274 -84 444l-739 -932q120 -192 360 -192zM1266 1208q-121 187 -355 187q-231 0 -350 -175t-119 -501q0 -278 86 -445z" />
    <glyph glyph-name="Ugrave" unicode="&#xd9;" horiz-adv-x="1472" 
d="M770 -23q-97 0 -183.5 18t-166 61.5t-137 108t-91.5 164.5t-34 226v633q0 203 -156 203v43h135q64 0 112 -7.5t81.5 -19t56.5 -34.5t36 -45.5t19.5 -61t8.5 -72t2 -86.5v-576q0 -131 30.5 -227t85.5 -149.5t121.5 -78.5t147.5 -24q190 -2 302.5 130.5t112.5 391.5v859h64
v-842q0 -312 -142.5 -463.5t-404.5 -151.5zM532 1829q-54 55 -22 107q25 41 77 48q63 8 97 -46q6 -10 10 -21l146 -377h-21z" />
    <glyph glyph-name="Uacute" unicode="&#xda;" horiz-adv-x="1472" 
d="M770 -23q-97 0 -183.5 18t-166 61.5t-137 108t-91.5 164.5t-34 226v633q0 203 -156 203v43h135q64 0 112 -7.5t81.5 -19t56.5 -34.5t36 -45.5t19.5 -61t8.5 -72t2 -86.5v-576q0 -131 30.5 -227t85.5 -149.5t121.5 -78.5t147.5 -24q190 -2 302.5 130.5t112.5 391.5v859h64
v-842q0 -312 -142.5 -463.5t-404.5 -151.5zM879 1907q25 65 88 68q51 2 85 -36q40 -46 3 -100q-7 -10 -17 -20l-284 -289h-21z" />
    <glyph glyph-name="Ucircumflex" unicode="&#xdb;" horiz-adv-x="1472" 
d="M770 -23q-97 0 -183.5 18t-166 61.5t-137 108t-91.5 164.5t-34 226v633q0 203 -156 203v43h135q64 0 112 -7.5t81.5 -19t56.5 -34.5t36 -45.5t19.5 -61t8.5 -72t2 -86.5v-576q0 -131 30.5 -227t85.5 -149.5t121.5 -78.5t147.5 -24q190 -2 302.5 130.5t112.5 391.5v859h64
v-842q0 -312 -142.5 -463.5t-404.5 -151.5zM743 1917q21 49 62 64t80 -3.5t59 -60.5l172 -377h-20l-252 285l-254 -285h-21z" />
    <glyph glyph-name="Udieresis" unicode="&#xdc;" horiz-adv-x="1472" 
d="M770 -23q-97 0 -183.5 18t-166 61.5t-137 108t-91.5 164.5t-34 226v633q0 203 -156 203v43h135q64 0 112 -7.5t81.5 -19t56.5 -34.5t36 -45.5t19.5 -61t8.5 -72t2 -86.5v-576q0 -131 30.5 -227t85.5 -149.5t121.5 -78.5t147.5 -24q190 -2 302.5 130.5t112.5 391.5v859h64
v-842q0 -312 -142.5 -463.5t-404.5 -151.5zM651 1520q-59 0 -97 37.5t-38 97.5q0 58 38.5 97t96.5 36q56 -2 94.5 -39.5t38.5 -93.5q0 -59 -38.5 -97t-94.5 -38zM1008 1520q-59 0 -98.5 38t-39.5 97q0 57 39.5 94t98.5 37q55 0 94 -37.5t39 -93.5q0 -59 -39 -97t-94 -38z
" />
    <glyph glyph-name="Yacute" unicode="&#xdd;" horiz-adv-x="1443" 
d="M571 0v602l-323 561q-5 8 -21.5 36.5t-23.5 40t-24 37t-28.5 37.5t-30 29.5t-35.5 26t-39 15t-46 6.5v43h256q52 0 91.5 -9.5t65 -22.5t52 -43.5t42 -55t44.5 -75.5q5 -9 8 -14l270 -473l445 693h74l-482 -752v-682h-295zM860 1919q25 65 87 68q52 2 86 -36q40 -45 5 -99
q-8 -11 -18 -21l-285 -289h-20z" />
    <glyph glyph-name="Thorn" unicode="&#xde;" horiz-adv-x="1488" 
d="M158 1188q0 203 -156 203v43h135q82 0 139 -12t91.5 -33t53.5 -58.5t25.5 -79t6.5 -104.5v-49h311q164 0 280.5 -28.5t182.5 -81.5t95.5 -120t29.5 -153q0 -64 -17.5 -118t-60.5 -103.5t-109 -84t-168 -55t-233 -20.5h-311v-334h-295v1188zM705 393q176 0 257.5 86
t81.5 236q0 151 -81.5 236t-257.5 85h-252v-643h252z" />
    <glyph glyph-name="germandbls" unicode="&#xdf;" horiz-adv-x="1392" 
d="M885 -20q-140 0 -256.5 52.5t-169.5 153.5h59q42 -71 140 -111t206 -40q110 0 183 42.5t69 121.5q-2 35 -31.5 65t-75 51t-103 44t-117 44t-116.5 52.5t-101.5 67.5t-71.5 90t-27 120q0 72 35.5 132t95 98.5t133 59.5t152.5 21q125 0 219 -47v31q3 176 -100.5 284.5
t-268.5 108.5q-346 0 -346 -463v-958h-291v920q0 241 172 395.5t439 154.5q215 0 330.5 -125t115.5 -354v-90q-38 41 -106 63.5t-140 22.5q-101 0 -168 -39.5t-63 -111.5q3 -39 40.5 -71.5t94 -57.5t124.5 -50.5t135 -58t122.5 -72t90 -100t34.5 -135.5q0 -99 -64.5 -171.5
t-162 -106t-211.5 -33.5z" />
    <glyph glyph-name="agrave" unicode="&#xe0;" horiz-adv-x="1304" 
d="M446 -20q-149 0 -253.5 74t-104.5 194q0 56 21.5 99.5t58.5 70.5t86 46t105 29.5t113.5 17.5t114.5 13.5t105 15t87 23.5t59 37q0 104 -26 179t-72.5 115t-100 57.5t-119.5 17.5q-92 0 -169 -33t-124 -94h-55q55 94 181 148t282 54q97 0 183 -25.5t156.5 -76t112 -136.5
t41.5 -198v-362q0 -203 150 -203v-43h-127q-147 0 -212.5 35t-86.5 121q-156 -176 -406 -176zM563 76q73 0 146 36t129 103v317q-31 -22 -93 -37t-121 -26.5t-116 -31.5t-92 -63.5t-35 -109.5q0 -91 51.5 -139.5t130.5 -48.5zM371 1434q-54 55 -22 108q25 40 77 47
q63 8 96 -47q6 -9 10 -20l146 -377h-21z" />
    <glyph glyph-name="aacute" unicode="&#xe1;" horiz-adv-x="1304" 
d="M446 -20q-149 0 -253.5 74t-104.5 194q0 56 21.5 99.5t58.5 70.5t86 46t105 29.5t113.5 17.5t114.5 13.5t105 15t87 23.5t59 37q0 104 -26 179t-72.5 115t-100 57.5t-119.5 17.5q-92 0 -169 -33t-124 -94h-55q55 94 181 148t282 54q97 0 183 -25.5t156.5 -76t112 -136.5
t41.5 -198v-362q0 -203 150 -203v-43h-127q-147 0 -212.5 35t-86.5 121q-156 -176 -406 -176zM563 76q73 0 146 36t129 103v317q-31 -22 -93 -37t-121 -26.5t-116 -31.5t-92 -63.5t-35 -109.5q0 -91 51.5 -139.5t130.5 -48.5zM721 1526q25 65 87 68q52 2 86 -36
q40 -45 5 -99q-8 -11 -18 -21l-285 -289h-21z" />
    <glyph glyph-name="acircumflex" unicode="&#xe2;" horiz-adv-x="1304" 
d="M446 -20q-149 0 -253.5 74t-104.5 194q0 56 21.5 99.5t58.5 70.5t86 46t105 29.5t113.5 17.5t114.5 13.5t105 15t87 23.5t59 37q0 104 -26 179t-72.5 115t-100 57.5t-119.5 17.5q-92 0 -169 -33t-124 -94h-55q55 94 181 148t282 54q97 0 183 -25.5t156.5 -76t112 -136.5
t41.5 -198v-362q0 -203 150 -203v-43h-127q-147 0 -212.5 35t-86.5 121q-156 -176 -406 -176zM563 76q73 0 146 36t129 103v317q-31 -22 -93 -37t-121 -26.5t-116 -31.5t-92 -63.5t-35 -109.5q0 -91 51.5 -139.5t130.5 -48.5zM532 1522q21 49 62 64t80 -3.5t59 -60.5
l172 -377h-20l-252 285l-254 -285h-21z" />
    <glyph glyph-name="atilde" unicode="&#xe3;" horiz-adv-x="1304" 
d="M446 -20q-149 0 -253.5 74t-104.5 194q0 56 21.5 99.5t58.5 70.5t86 46t105 29.5t113.5 17.5t114.5 13.5t105 15t87 23.5t59 37q0 104 -26 179t-72.5 115t-100 57.5t-119.5 17.5q-92 0 -169 -33t-124 -94h-55q55 94 181 148t282 54q97 0 183 -25.5t156.5 -76t112 -136.5
t41.5 -198v-362q0 -203 150 -203v-43h-127q-147 0 -212.5 35t-86.5 121q-156 -176 -406 -176zM563 76q73 0 146 36t129 103v317q-31 -22 -93 -37t-121 -26.5t-116 -31.5t-92 -63.5t-35 -109.5q0 -91 51.5 -139.5t130.5 -48.5zM844 1165q-74 0 -228.5 51.5t-203.5 51.5
q-53 0 -79 -17.5t-26 -60.5h-31q-5 73 5 124t33.5 77t51.5 36.5t66 10.5q72 0 227 -50.5t207 -50.5t78.5 18t26.5 60h30q8 -125 -37 -187.5t-120 -62.5z" />
    <glyph glyph-name="adieresis" unicode="&#xe4;" horiz-adv-x="1304" 
d="M446 -20q-149 0 -253.5 74t-104.5 194q0 56 21.5 99.5t58.5 70.5t86 46t105 29.5t113.5 17.5t114.5 13.5t105 15t87 23.5t59 37q0 104 -26 179t-72.5 115t-100 57.5t-119.5 17.5q-92 0 -169 -33t-124 -94h-55q55 94 181 148t282 54q97 0 183 -25.5t156.5 -76t112 -136.5
t41.5 -198v-362q0 -203 150 -203v-43h-127q-147 0 -212.5 35t-86.5 121q-156 -176 -406 -176zM563 76q73 0 146 36t129 103v317q-31 -22 -93 -37t-121 -26.5t-116 -31.5t-92 -63.5t-35 -109.5q0 -91 51.5 -139.5t130.5 -48.5zM459 1145q-59 0 -97 37.5t-38 97.5
q0 58 38.5 97t96.5 36q56 -2 94.5 -39.5t38.5 -93.5q0 -59 -38.5 -97t-94.5 -38zM815 1145q-59 0 -98 38t-39 97q0 57 39 94t98 37q55 0 94 -37.5t39 -93.5q0 -59 -39 -97t-94 -38z" />
    <glyph glyph-name="aring" unicode="&#xe5;" horiz-adv-x="1304" 
d="M446 -20q-149 0 -253.5 74t-104.5 194q0 56 21.5 99.5t58.5 70.5t86 46t105 29.5t113.5 17.5t114.5 13.5t105 15t87 23.5t59 37q0 104 -26 179t-72.5 115t-100 57.5t-119.5 17.5q-92 0 -169 -33t-124 -94h-55q55 94 181 148t282 54q97 0 183 -25.5t156.5 -76t112 -136.5
t41.5 -198v-362q0 -203 150 -203v-43h-127q-147 0 -212.5 35t-86.5 121q-156 -176 -406 -176zM563 76q73 0 146 36t129 103v317q-31 -22 -93 -37t-121 -26.5t-116 -31.5t-92 -63.5t-35 -109.5q0 -91 51.5 -139.5t130.5 -48.5zM623 1149q-91 0 -156.5 64.5t-65.5 156.5
t65.5 156.5t156.5 64.5t157 -64.5t66 -156.5t-66 -156.5t-157 -64.5zM623 1212q65 0 111 46t46 112q0 64 -46 110t-111 46q-63 0 -109.5 -46t-46.5 -110q0 -66 46.5 -112t109.5 -46z" />
    <glyph glyph-name="ae" unicode="&#xe6;" horiz-adv-x="2041" 
d="M489 -20q-79 1 -148 19.5t-127.5 56.5t-92 105t-33.5 156q0 136 78.5 211t222.5 103q87 15 219 16.5t234 -2.5q-11 165 -84 247.5t-217 82.5q-101 0 -181.5 -39t-121.5 -119h-62q121 227 436 227q263 0 396 -157q154 157 417 157q107 1 199 -27t164.5 -83t116 -144
t49.5 -204h-801q-4 -50 -4 -74q0 -214 94.5 -334.5t276.5 -126.5q115 -3 212 51t134 140h61q-65 -123 -192.5 -192.5t-296.5 -69.5q-161 0 -288 56.5t-204 158.5q-165 -218 -457 -215zM600 57q91 0 176 47.5t142 131.5q-69 120 -72 276v78q-18 0 -70.5 0.5t-73 0t-62.5 -2
t-65.5 -5t-52.5 -11t-51 -17.5q-66 -28 -98.5 -82.5t-32.5 -146.5q0 -129 74 -199t186 -70zM1667 643q-12 157 -74.5 250.5t-167.5 93.5q-108 0 -177.5 -95t-90.5 -249h510z" />
    <glyph glyph-name="ccedilla" unicode="&#xe7;" horiz-adv-x="1173" 
d="M575 -440q47 0 75.5 27.5t31.5 68.5q2 48 -37 88t-119 53l113 183q-244 6 -397.5 152t-153.5 380q0 241 161 387.5t415 144.5q289 0 421 -204h-57q-53 74 -131.5 108t-163.5 31q-158 -3 -249 -131.5t-91 -335.5t91 -335.5t249 -131.5q85 -3 163.5 31t131.5 108h57
q-124 -190 -383 -204l-75 -109q58 -3 102.5 -21.5t68 -47t35 -58t11.5 -59.5q0 -71 -48.5 -119.5t-115.5 -62t-140.5 7.5t-119.5 75l16 25q72 -51 139 -51z" />
    <glyph glyph-name="egrave" unicode="&#xe8;" horiz-adv-x="1284" 
d="M680 -20q-265 0 -428.5 145t-163.5 387q0 243 161.5 388.5t418.5 143.5q108 1 200.5 -27t164.5 -83t115 -144t48 -204h-799q-4 -25 -4 -74q0 -212 100 -333.5t283 -127.5q115 -3 212 51t134 140h62q-66 -125 -195 -193.5t-309 -68.5zM907 643q-9 155 -71.5 249.5
t-167.5 94.5q-112 0 -182.5 -106t-88.5 -273zM469 1438q-54 55 -22 107q25 41 77 48q63 8 97 -46q6 -10 10 -21l145 -377h-20z" />
    <glyph glyph-name="eacute" unicode="&#xe9;" horiz-adv-x="1284" 
d="M680 -20q-265 0 -428.5 145t-163.5 387q0 243 161.5 388.5t418.5 143.5q108 1 200.5 -27t164.5 -83t115 -144t48 -204h-799q-4 -25 -4 -74q0 -212 100 -333.5t283 -127.5q115 -3 212 51t134 140h62q-66 -125 -195 -193.5t-309 -68.5zM907 643q-9 155 -71.5 249.5
t-167.5 94.5q-112 0 -182.5 -106t-88.5 -273zM705 1520q25 65 88 68q51 2 85 -36q40 -46 3 -100q-7 -10 -17 -20l-284 -289h-21z" />
    <glyph glyph-name="ecircumflex" unicode="&#xea;" horiz-adv-x="1284" 
d="M680 -20q-265 0 -428.5 145t-163.5 387q0 243 161.5 388.5t418.5 143.5q108 1 200.5 -27t164.5 -83t115 -144t48 -204h-799q-4 -25 -4 -74q0 -212 100 -333.5t283 -127.5q115 -3 212 51t134 140h62q-66 -125 -195 -193.5t-309 -68.5zM907 643q-9 155 -71.5 249.5
t-167.5 94.5q-112 0 -182.5 -106t-88.5 -273zM561 1520q21 49 62 64t80 -3.5t59 -60.5l172 -377h-21l-251 284l-254 -284h-21z" />
    <glyph glyph-name="edieresis" unicode="&#xeb;" horiz-adv-x="1284" 
d="M680 -20q-265 0 -428.5 145t-163.5 387q0 243 161.5 388.5t418.5 143.5q108 1 200.5 -27t164.5 -83t115 -144t48 -204h-799q-4 -25 -4 -74q0 -212 100 -333.5t283 -127.5q115 -3 212 51t134 140h62q-66 -125 -195 -193.5t-309 -68.5zM907 643q-9 155 -71.5 249.5
t-167.5 94.5q-112 0 -182.5 -106t-88.5 -273zM494 1137q-59 0 -97.5 37.5t-38.5 97.5q0 58 39 97t97 36q56 -2 94.5 -39.5t38.5 -93.5q0 -59 -38.5 -97t-94.5 -38zM850 1137q-59 0 -98 38t-39 97q0 57 39 94t98 37q55 0 94 -37.5t39 -93.5q0 -59 -39 -97t-94 -38z" />
    <glyph glyph-name="igrave" unicode="&#xec;" horiz-adv-x="589" 
d="M184 778q0 36 -5.5 66.5t-21 64t-49 53t-81.5 19.5v43h135q55 0 98.5 -4.5t75.5 -16t55 -24.5t38 -36.5t24 -44.5t13.5 -57t5.5 -65.5t1 -77.5v-698h-289v778zM29 1440q-54 55 -22 108q25 40 77 47q63 8 96 -47q6 -9 10 -20l146 -377h-21z" />
    <glyph glyph-name="iacute" unicode="&#xed;" horiz-adv-x="589" 
d="M184 778q0 36 -5.5 66.5t-21 64t-49 53t-81.5 19.5v43h135q55 0 98.5 -4.5t75.5 -16t55 -24.5t38 -36.5t24 -44.5t13.5 -57t5.5 -65.5t1 -77.5v-698h-289v778zM246 1526q25 65 87 68q52 2 86 -36q40 -45 5 -99q-8 -11 -18 -21l-285 -289h-21z" />
    <glyph glyph-name="icircumflex" unicode="&#xee;" horiz-adv-x="589" 
d="M184 778q0 36 -5.5 66.5t-21 64t-49 53t-81.5 19.5v43h135q55 0 98.5 -4.5t75.5 -16t55 -24.5t38 -36.5t24 -44.5t13.5 -57t5.5 -65.5t1 -77.5v-698h-289v778zM162 1524q21 49 61.5 64t79.5 -3.5t59 -60.5l173 -377h-21l-252 285l-254 -285h-20z" />
    <glyph glyph-name="idieresis" unicode="&#xef;" horiz-adv-x="589" 
d="M184 778q0 36 -5.5 66.5t-21 64t-49 53t-81.5 19.5v43h135q55 0 98.5 -4.5t75.5 -16t55 -24.5t38 -36.5t24 -44.5t13.5 -57t5.5 -65.5t1 -77.5v-698h-289v778zM104 1145q-59 0 -97 37.5t-38 97.5q0 58 38.5 97t96.5 36q56 -2 95 -39.5t39 -93.5q0 -59 -39 -97t-95 -38z
M461 1145q-59 0 -98 38t-39 97q0 57 39 94t98 37q55 0 94 -37.5t39 -93.5q0 -59 -39 -97t-94 -38z" />
    <glyph glyph-name="eth" unicode="&#xf0;" horiz-adv-x="1236" 
d="M616 -20q-107 0 -195.5 30t-149 80t-102.5 116.5t-61 139.5t-20 150q0 140 57.5 253t174.5 182.5t276 69.5q147 0 238 -94q-48 202 -164 346l-140 -79l-22 38l131 76q-124 130 -279 150v43q224 -12 402 -123l156 90l22 -39l-135 -78q162 -116 252.5 -298.5t91.5 -397.5
q1 -126 -33.5 -242t-99 -209t-168.5 -148.5t-232 -55.5zM616 35q83 0 141 76.5t84.5 203t26.5 291.5q0 98 -18 203q-37 64 -97 98.5t-126 34.5q-64 0 -112.5 -37t-77.5 -101t-43 -143t-13 -169q1 -131 24.5 -231t77.5 -163t133 -63z" />
    <glyph glyph-name="ntilde" unicode="&#xf1;" horiz-adv-x="1341" 
d="M184 778q0 36 -5.5 66.5t-21 64t-49 53t-81.5 19.5v43h135q145 0 210 -34t85 -120q174 174 407 174q79 0 142.5 -20t113.5 -62t77.5 -113.5t27.5 -168.5v-680h-289v639q0 59 -3.5 100.5t-14.5 84.5t-30 69t-53 42.5t-81 16.5q-75 0 -150.5 -34.5t-130.5 -98.5v-819h-289
v778zM885 1155q-74 0 -228.5 51t-203.5 51q-54 0 -79.5 -17t-25.5 -60h-31q-5 73 5 123.5t33.5 76.5t51.5 36.5t66 10.5q72 0 227 -50t207 -50t78.5 18t26.5 60h30q8 -125 -37 -187.5t-120 -62.5z" />
    <glyph glyph-name="ograve" unicode="&#xf2;" horiz-adv-x="1363" 
d="M682 -20q-266 0 -430 143t-164 389t164 389t430 143t430 -143t164 -389t-164 -389t-430 -143zM682 39q97 0 164 67t97 171t30 235t-30 235t-97 171t-164 67q-73 0 -129.5 -38t-90.5 -104.5t-51.5 -150t-17.5 -180.5t17.5 -180.5t51.5 -150t90.5 -104.5t129.5 -38z
M434 1436q-54 55 -22 107q25 41 77 48q63 8 97 -46q6 -10 10 -21l145 -377h-20z" />
    <glyph glyph-name="oacute" unicode="&#xf3;" horiz-adv-x="1363" 
d="M682 -20q-266 0 -430 143t-164 389t164 389t430 143t430 -143t164 -389t-164 -389t-430 -143zM682 39q97 0 164 67t97 171t30 235t-30 235t-97 171t-164 67q-73 0 -129.5 -38t-90.5 -104.5t-51.5 -150t-17.5 -180.5t17.5 -180.5t51.5 -150t90.5 -104.5t129.5 -38z
M764 1524q25 65 87 68q52 2 86 -36q40 -45 5 -99q-8 -11 -18 -21l-285 -289h-21z" />
    <glyph glyph-name="ocircumflex" unicode="&#xf4;" horiz-adv-x="1363" 
d="M682 -20q-266 0 -430 143t-164 389t164 389t430 143t430 -143t164 -389t-164 -389t-430 -143zM682 39q97 0 164 67t97 171t30 235t-30 235t-97 171t-164 67q-73 0 -129.5 -38t-90.5 -104.5t-51.5 -150t-17.5 -180.5t17.5 -180.5t51.5 -150t90.5 -104.5t129.5 -38z
M571 1528q21 49 62 64t80 -3.5t59 -60.5l172 -377h-20l-252 285l-254 -285h-21z" />
    <glyph glyph-name="otilde" unicode="&#xf5;" horiz-adv-x="1363" 
d="M682 -20q-266 0 -430 143t-164 389t164 389t430 143t430 -143t164 -389t-164 -389t-430 -143zM682 39q97 0 164 67t97 171t30 235t-30 235t-97 171t-164 67q-73 0 -129.5 -38t-90.5 -104.5t-51.5 -150t-17.5 -180.5t17.5 -180.5t51.5 -150t90.5 -104.5t129.5 -38z
M887 1149q-74 0 -228.5 51t-203.5 51q-54 0 -79.5 -17t-25.5 -60h-31q-5 73 5 123.5t33.5 76.5t51.5 36.5t66 10.5q72 0 227 -50t207 -50t78.5 18t26.5 60h30q8 -125 -37 -187.5t-120 -62.5z" />
    <glyph glyph-name="odieresis" unicode="&#xf6;" horiz-adv-x="1363" 
d="M682 -20q-266 0 -430 143t-164 389t164 389t430 143t430 -143t164 -389t-164 -389t-430 -143zM682 39q97 0 164 67t97 171t30 235t-30 235t-97 171t-164 67q-73 0 -129.5 -38t-90.5 -104.5t-51.5 -150t-17.5 -180.5t17.5 -180.5t51.5 -150t90.5 -104.5t129.5 -38z
M506 1147q-59 0 -97 37.5t-38 97.5q0 58 38.5 97t96.5 36q56 -2 94.5 -39.5t38.5 -93.5q0 -59 -38.5 -97t-94.5 -38zM862 1147q-59 0 -98 38t-39 97q0 57 39 94t98 37q55 0 94 -37.5t39 -93.5q0 -59 -39 -97t-94 -38z" />
    <glyph glyph-name="divide" unicode="&#xf7;" horiz-adv-x="1060" 
d="M102 682v86h897v-86h-897zM545 274q-54 0 -89.5 35.5t-35.5 89.5q0 51 36 87t89 36q52 0 86.5 -35.5t34.5 -87.5q0 -54 -34.5 -89.5t-86.5 -35.5zM545 918q-54 0 -89.5 35.5t-35.5 86.5q0 54 35.5 88.5t89.5 34.5q53 0 87 -34.5t34 -88.5q0 -51 -34.5 -86.5t-86.5 -35.5z
" />
    <glyph glyph-name="oslash" unicode="&#xf8;" horiz-adv-x="1363" 
d="M221 -8l78 94q-100 69 -155.5 178t-55.5 248q0 246 164 389t430 143q206 0 348 -83l60 69h67l-84 -98q97 -70 150 -177t53 -243q0 -246 -164 -389t-430 -143q-194 0 -340 79l-57 -67h-64zM682 39q97 0 164 67t97 171t30 235q0 144 -37 254l-481 -571q78 -156 227 -156z
M393 512q0 -156 41 -266l479 575q-79 164 -231 164q-73 0 -129.5 -38t-90.5 -104.5t-51.5 -150t-17.5 -180.5z" />
    <glyph glyph-name="ugrave" unicode="&#xf9;" horiz-adv-x="1341" 
d="M545 -20q-165 0 -263 88.5t-98 277.5v432q0 36 -5.5 66.5t-21 64t-49 53t-81.5 19.5v43h135q55 0 98.5 -4.5t75.5 -16t55 -24.5t38 -36.5t24 -44.5t13.5 -57t5.5 -65.5t1 -77.5v-313q0 -58 3 -99t14 -84.5t30 -69.5t52.5 -43t80.5 -17q75 0 150.5 35t132.5 100v571
q0 27 -3 52t-13 53.5t-27 49t-46.5 34.5t-68.5 14v43h135q63 0 110.5 -7t81 -18.5t56 -34.5t35.5 -45t19.5 -61t8 -72.5t1.5 -87.5v-698h-279v150q-82 -82 -186.5 -126t-214.5 -44zM387 1434q-54 55 -22 107q25 41 77 48q63 8 97 -46q6 -10 10 -21l145 -377h-20z" />
    <glyph glyph-name="uacute" unicode="&#xfa;" horiz-adv-x="1341" 
d="M545 -20q-165 0 -263 88.5t-98 277.5v432q0 36 -5.5 66.5t-21 64t-49 53t-81.5 19.5v43h135q55 0 98.5 -4.5t75.5 -16t55 -24.5t38 -36.5t24 -44.5t13.5 -57t5.5 -65.5t1 -77.5v-313q0 -58 3 -99t14 -84.5t30 -69.5t52.5 -43t80.5 -17q75 0 150.5 35t132.5 100v571
q0 27 -3 52t-13 53.5t-27 49t-46.5 34.5t-68.5 14v43h135q63 0 110.5 -7t81 -18.5t56 -34.5t35.5 -45t19.5 -61t8 -72.5t1.5 -87.5v-698h-279v150q-82 -82 -186.5 -126t-214.5 -44zM731 1524q25 65 87 68q52 2 86 -36q40 -45 5 -99q-8 -11 -18 -21l-285 -289h-20z" />
    <glyph glyph-name="ucircumflex" unicode="&#xfb;" horiz-adv-x="1341" 
d="M545 -20q-165 0 -263 88.5t-98 277.5v432q0 36 -5.5 66.5t-21 64t-49 53t-81.5 19.5v43h135q55 0 98.5 -4.5t75.5 -16t55 -24.5t38 -36.5t24 -44.5t13.5 -57t5.5 -65.5t1 -77.5v-313q0 -58 3 -99t14 -84.5t30 -69.5t52.5 -43t80.5 -17q75 0 150.5 35t132.5 100v571
q0 27 -3 52t-13 53.5t-27 49t-46.5 34.5t-68.5 14v43h135q63 0 110.5 -7t81 -18.5t56 -34.5t35.5 -45t19.5 -61t8 -72.5t1.5 -87.5v-698h-279v150q-82 -82 -186.5 -126t-214.5 -44zM555 1528q21 49 62 64t80 -3.5t59 -60.5l172 -377h-21l-252 285l-254 -285h-20z" />
    <glyph glyph-name="udieresis" unicode="&#xfc;" horiz-adv-x="1341" 
d="M545 -20q-165 0 -263 88.5t-98 277.5v432q0 36 -5.5 66.5t-21 64t-49 53t-81.5 19.5v43h135q55 0 98.5 -4.5t75.5 -16t55 -24.5t38 -36.5t24 -44.5t13.5 -57t5.5 -65.5t1 -77.5v-313q0 -58 3 -99t14 -84.5t30 -69.5t52.5 -43t80.5 -17q75 0 150.5 35t132.5 100v571
q0 27 -3 52t-13 53.5t-27 49t-46.5 34.5t-68.5 14v43h135q63 0 110.5 -7t81 -18.5t56 -34.5t35.5 -45t19.5 -61t8 -72.5t1.5 -87.5v-698h-279v150q-82 -82 -186.5 -126t-214.5 -44zM492 1139q-59 0 -97.5 37.5t-38.5 97.5q0 58 39 97t97 36q56 -2 94.5 -39.5t38.5 -93.5
q0 -59 -38.5 -97t-94.5 -38zM848 1139q-59 0 -98 38t-39 97q0 57 39 94t98 37q55 0 94 -37.5t39 -93.5q0 -59 -39 -97t-94 -38z" />
    <glyph glyph-name="yacute" unicode="&#xfd;" horiz-adv-x="1232" 
d="M422 -512l205 475l-373 776q-54 118 -86 160q-61 82 -145 82v43h229q65 -1 109 -12.5t78.5 -42t58.5 -69t57 -107.5l221 -488l309 719h66l-662 -1536h-67zM776 1524q25 65 87 68q52 2 86 -36q40 -45 5 -99q-8 -11 -18 -21l-285 -289h-20z" />
    <glyph glyph-name="thorn" unicode="&#xfe;" horiz-adv-x="1390" 
d="M184 1241q0 36 -5.5 66.5t-21 64t-49 53.5t-81.5 21v43h135q49 0 88.5 -4.5t70.5 -11.5t54 -20.5t39 -27.5t27 -37t17.5 -43.5t9.5 -53t4 -59.5t1 -69v-284q57 77 147.5 121t194.5 44q101 0 189.5 -36.5t155 -103.5t105 -168.5t38.5 -223.5t-38.5 -223.5t-105 -168.5
t-155 -103.5t-189.5 -36.5q-102 0 -193.5 44.5t-148.5 118.5v-716h-289v1814zM723 66q87 0 151.5 62.5t95.5 162.5t31 221q0 119 -30.5 218.5t-95 162.5t-152.5 63t-153.5 -61t-96.5 -170v-426q29 -106 96.5 -169.5t153.5 -63.5z" />
    <glyph glyph-name="ydieresis" unicode="&#xff;" horiz-adv-x="1232" 
d="M422 -512l205 475l-373 776q-54 118 -86 160q-61 82 -145 82v43h229q65 -1 109 -12.5t78.5 -42t58.5 -69t57 -107.5l221 -488l309 719h66l-662 -1536h-67zM530 1147q-59 0 -97 37.5t-38 97.5q0 58 38.5 97t96.5 36q56 -2 95 -39.5t39 -93.5q0 -59 -39 -97t-95 -38z
M887 1147q-59 0 -98 38t-39 97q0 57 39 94t98 37q55 0 94 -37.5t39 -93.5q0 -59 -39 -97t-94 -38z" />
    <glyph glyph-name="Amacron" unicode="&#x100;" horiz-adv-x="1486" 
d="M582 1294q-34 47 -73 72t-95 25v43h182q141 0 226 -54.5t130 -181.5l445 -1198h-316l-170 457h-581l-174 -457h-68zM352 516h537l-217 584q-29 85 -49 127zM383 1559v81h686v-81h-686z" />
    <glyph glyph-name="amacron" unicode="&#x101;" horiz-adv-x="1304" 
d="M446 -20q-149 0 -253.5 74t-104.5 194q0 56 21.5 99.5t58.5 70.5t86 46t105 29.5t113.5 17.5t114.5 13.5t105 15t87 23.5t59 37q0 104 -26 179t-72.5 115t-100 57.5t-119.5 17.5q-92 0 -169 -33t-124 -94h-55q55 94 181 148t282 54q97 0 183 -25.5t156.5 -76t112 -136.5
t41.5 -198v-362q0 -203 150 -203v-43h-127q-147 0 -212.5 35t-86.5 121q-156 -176 -406 -176zM563 76q73 0 146 36t129 103v317q-31 -22 -93 -37t-121 -26.5t-116 -31.5t-92 -63.5t-35 -109.5q0 -91 51.5 -139.5t130.5 -48.5zM272 1169v82h686v-82h-686z" />
    <glyph glyph-name="Abreve" unicode="&#x102;" horiz-adv-x="1486" 
d="M582 1294q-34 47 -73 72t-95 25v43h182q141 0 226 -54.5t130 -181.5l445 -1198h-316l-170 457h-581l-174 -457h-68zM352 516h537l-217 584q-29 85 -49 127zM727 1536q-137 0 -226 82.5t-95 259.5h26q6 -87 91 -130.5t204 -43.5q77 0 140.5 17t107.5 57.5t49 99.5h27
q-3 -91 -29.5 -159t-72 -107t-101 -57.5t-121.5 -18.5z" />
    <glyph glyph-name="abreve" unicode="&#x103;" horiz-adv-x="1304" 
d="M446 -20q-149 0 -253.5 74t-104.5 194q0 56 21.5 99.5t58.5 70.5t86 46t105 29.5t113.5 17.5t114.5 13.5t105 15t87 23.5t59 37q0 104 -26 179t-72.5 115t-100 57.5t-119.5 17.5q-92 0 -169 -33t-124 -94h-55q55 94 181 148t282 54q97 0 183 -25.5t156.5 -76t112 -136.5
t41.5 -198v-362q0 -203 150 -203v-43h-127q-147 0 -212.5 35t-86.5 121q-156 -176 -406 -176zM563 76q73 0 146 36t129 103v317q-31 -22 -93 -37t-121 -26.5t-116 -31.5t-92 -63.5t-35 -109.5q0 -91 51.5 -139.5t130.5 -48.5zM614 1153q-137 0 -226 82.5t-95 259.5h26
q6 -87 91 -130.5t204 -43.5q77 0 140.5 17t107.5 57.5t49 99.5h27q-3 -91 -29.5 -159t-72 -107t-101 -57.5t-121.5 -18.5z" />
    <glyph glyph-name="Aogonek" unicode="&#x104;" horiz-adv-x="1486" 
d="M582 1294q-34 47 -73 72t-95 25v43h182q141 0 226 -54.5t130 -181.5l445 -1198h-113q-45 -72 -51 -141.5t21.5 -116t69.5 -75.5t93.5 -28t93.5 33l13 -12q-92 -105 -214 -123q-108 -17 -171 43q-76 69 -36 201q29 101 126 219h-148l-170 457h-581l-174 -457h-68zM352 516
h537l-217 584q-29 85 -49 127z" />
    <glyph glyph-name="aogonek" unicode="&#x105;" horiz-adv-x="1304" 
d="M446 -20q-149 0 -253.5 74t-104.5 194q0 56 21.5 99.5t58.5 70.5t86 46t105 29.5t113.5 17.5t114.5 13.5t105 15t87 23.5t59 37q0 104 -26 179t-72.5 115t-100 57.5t-119.5 17.5q-92 0 -169 -33t-124 -94h-55q55 94 181 148t282 54q97 0 183 -25.5t156.5 -76t112 -136.5
t41.5 -198v-362q0 -203 150 -203v-43h-127h-23q-95 -135 -53 -252q27 -78 101 -111q80 -36 151 7l14 10l13 -12q-91 -105 -214 -124q-107 -16 -171 43q-75 69 -37 200q32 110 143 241q-105 7 -155 43.5t-68 110.5q-156 -176 -406 -176zM563 76q73 0 146 36t129 103v317
q-31 -22 -93 -37t-121 -26.5t-116 -31.5t-92 -63.5t-35 -109.5q0 -91 51.5 -139.5t130.5 -48.5z" />
    <glyph glyph-name="Cacute" unicode="&#x106;" horiz-adv-x="1587" 
d="M901 -20q-120 1 -232 31t-208.5 92t-168.5 148.5t-113.5 207t-41.5 260.5t41.5 260t113.5 206.5t168.5 148t208.5 91.5t232 31q197 2 353.5 -74.5t244.5 -248.5h-63q-36 68 -92 120t-119.5 81t-126 43t-121.5 12q-245 -3 -390 -182t-145 -488q0 -310 144.5 -488.5
t390.5 -183.5q81 -1 163.5 22.5t165.5 84t130 149.5h63q-165 -323 -598 -323zM918 1911q25 65 88 68q51 2 85 -36q40 -46 3 -100q-7 -10 -17 -20l-284 -289h-21z" />
    <glyph glyph-name="cacute" unicode="&#x107;" horiz-adv-x="1173" 
d="M664 -20q-254 -2 -415 144.5t-161 387.5t161 387.5t415 144.5q289 0 421 -204h-57q-53 74 -131.5 108t-163.5 31q-158 -3 -249 -131.5t-91 -335.5t91 -335.5t249 -131.5q85 -3 163.5 31t131.5 108h57q-132 -204 -421 -204zM713 1528q25 65 88 68q51 2 85 -36
q40 -46 3 -100q-7 -10 -17 -20l-284 -289h-21z" />
    <glyph glyph-name="Cdotaccent" unicode="&#x10a;" horiz-adv-x="1587" 
d="M901 -20q-120 1 -232 31t-208.5 92t-168.5 148.5t-113.5 207t-41.5 260.5t41.5 260t113.5 206.5t168.5 148t208.5 91.5t232 31q197 2 353.5 -74.5t244.5 -248.5h-63q-36 68 -92 120t-119.5 81t-126 43t-121.5 12q-245 -3 -390 -182t-145 -488q0 -310 144.5 -488.5
t390.5 -183.5q81 -1 163.5 22.5t165.5 84t130 149.5h63q-165 -323 -598 -323zM905 1530q-59 0 -97 37.5t-38 95.5q0 57 38 94t97 37q56 0 94.5 -37.5t38.5 -93.5q0 -58 -38.5 -95.5t-94.5 -37.5z" />
    <glyph glyph-name="cdotaccent" unicode="&#x10b;" horiz-adv-x="1173" 
d="M664 -20q-254 -2 -415 144.5t-161 387.5t161 387.5t415 144.5q289 0 421 -204h-57q-53 74 -131.5 108t-163.5 31q-158 -3 -249 -131.5t-91 -335.5t91 -335.5t249 -131.5q85 -3 163.5 31t131.5 108h57q-132 -204 -421 -204zM668 1139q-59 0 -97.5 37.5t-38.5 95.5
q0 57 38.5 94t97.5 37q56 0 94.5 -37.5t38.5 -93.5q0 -58 -38.5 -95.5t-94.5 -37.5z" />
    <glyph glyph-name="Ccaron" unicode="&#x10c;" horiz-adv-x="1593" 
d="M901 -20q-120 1 -232 31t-208.5 92t-168.5 148.5t-113.5 207t-41.5 260.5t41.5 260t113.5 206.5t168.5 148t208.5 91.5t232 31q197 2 353.5 -74.5t244.5 -248.5h-63q-36 68 -92 120t-119.5 81t-126 43t-121.5 12q-245 -3 -390 -182t-145 -488q0 -310 144.5 -488.5
t390.5 -183.5q81 -1 163.5 22.5t165.5 84t130 149.5h63q-165 -323 -598 -323zM821 1604l-174 376h21l254 -284l252 284h20l-172 -376q-20 -42 -59 -60.5t-80 -3.5t-62 64z" />
    <glyph glyph-name="ccaron" unicode="&#x10d;" horiz-adv-x="1214" 
d="M664 -20q-254 -2 -415 144.5t-161 387.5t161 387.5t415 144.5q289 0 421 -204h-57q-53 74 -131.5 108t-163.5 31q-158 -3 -249 -131.5t-91 -335.5t91 -335.5t249 -131.5q85 -3 163.5 31t131.5 108h57q-132 -204 -421 -204zM569 1219l-174 376h21l254 -284l252 284h20
l-172 -376q-20 -42 -59 -60.5t-80 -3.5t-62 64z" />
    <glyph glyph-name="Dcaron" unicode="&#x10e;" horiz-adv-x="1613" 
d="M530 0q-64 0 -114 5t-88 17t-65.5 26.5t-46 39t-30 49t-18 61.5t-8.5 71.5t-2 84.5v820q0 217 -142 217v43h654q170 0 307.5 -40.5t229.5 -108.5t154 -161.5t89 -195.5t27 -213q0 -110 -27.5 -211.5t-90 -194t-154 -160.5t-229 -108.5t-306.5 -40.5h-140zM662 59
q112 2 201.5 41.5t146.5 102t95 149t53.5 177t15.5 190.5q0 101 -15.5 192t-54 177t-96.5 148.5t-149.5 100t-207.5 37.5h-260q40 -33 51 -91.5t11 -152.5v-892q0 -99 34 -139t131 -40h44zM559 1604l-174 376h21l253 -284l252 284h21l-172 -376q-20 -42 -59 -60.5t-80 -3.5
t-62 64z" />
    <glyph glyph-name="dcaron" unicode="&#x10f;" horiz-adv-x="1325" 
d="M575 -20q-99 0 -187 36.5t-155 103.5t-106 168.5t-39 223.5t39 223.5t106 168.5t155 103.5t187 36.5q105 0 196 -43.5t147 -119.5v360q0 203 -156 205v43h135q49 0 88.5 -4.5t70.5 -11.5t54 -20.5t39 -27.5t27 -37t17.5 -43.5t9.5 -53t4 -59.5t1 -69v-1163h-276v162
q-58 -84 -152 -133t-205 -49zM668 66q87 0 153.5 63t96.5 170v426q-29 109 -95.5 170t-154.5 61q-87 0 -151.5 -63t-96 -162.5t-31.5 -218.5q0 -121 31.5 -221t96 -162.5t151.5 -62.5zM897 1628l-174 377h20l254 -285l252 285h21l-172 -377q-20 -42 -59 -60.5t-80 -3.5
t-62 64z" />
    <glyph glyph-name="Dcroat" unicode="&#x110;" horiz-adv-x="1613" 
d="M530 0q-64 0 -114 5t-88 17t-65.5 26.5t-46 39t-30 49t-18 61.5t-8.5 71.5t-2 84.5v338h-144v64h144v418q0 217 -142 217v43h654q169 0 306 -40.5t229 -108.5t154.5 -161.5t90 -195.5t27.5 -213q0 -110 -27.5 -211.5t-90 -194t-154 -160.5t-229 -108.5t-306.5 -40.5h-140
zM645 59q114 2 205 41.5t149 102.5t97 149t55 176.5t16 190.5q0 101 -16 192t-55 177t-98 148.5t-150.5 100t-206.5 37.5h-250q40 -33 51 -91.5t11 -152.5v-374h168v-64h-168v-454q0 -99 34 -139t131 -40h27z" />
    <glyph glyph-name="dcroat" unicode="&#x111;" horiz-adv-x="1325" 
d="M575 -20q-99 0 -187 36.5t-155 103.5t-106 168.5t-39 223.5t39 223.5t106 168.5t155 103.5t187 36.5q105 0 196 -43.5t147 -119.5v284h-97v64h97v12q0 203 -156 205v43h135q79 0 134 -11t88.5 -30t53 -53t26.5 -71.5t9 -94.5h125v-64h-125v-2v-1163h-276v162
q-58 -84 -152 -133t-205 -49zM668 66q87 0 153.5 63t96.5 170v426q-29 109 -95.5 170t-154.5 61q-87 0 -151.5 -63t-96 -162.5t-31.5 -218.5q0 -121 31.5 -221t96 -162.5t151.5 -62.5z" />
    <glyph glyph-name="Emacron" unicode="&#x112;" horiz-adv-x="1361" 
d="M530 0q-85 0 -145.5 9t-102 30.5t-66 47.5t-37.5 71.5t-17 90t-4 113.5v826q0 35 -6 66t-21 64.5t-48 53t-81 19.5v43h791q182 0 213 -4q60 -8 86 -45q19 -26 56 -133q12 -34 21 -58h-65q-8 20 -21 53q-15 39 -21 54.5t-23 34.5t-24 23t-40.5 10t-56 5.5t-85.5 -0.5h-38
h-408q43 -37 54.5 -98.5t11.5 -163.5v-342h587v-59h-587v-473q0 -98 38 -138.5t140 -40.5h213q162 0 194 6q51 9 77 48q14 22 61 135q8 21 16 39h63q-10 -25 -26 -69q-62 -164 -103 -191.5t-227 -26.5h-63h-306zM330 1589v82h686v-82h-686z" />
    <glyph glyph-name="emacron" unicode="&#x113;" horiz-adv-x="1284" 
d="M680 -20q-265 0 -428.5 145t-163.5 387q0 243 161.5 388.5t418.5 143.5q108 1 200.5 -27t164.5 -83t115 -144t48 -204h-799q-4 -25 -4 -74q0 -212 100 -333.5t283 -127.5q115 -3 212 51t134 140h62q-66 -125 -195 -193.5t-309 -68.5zM907 643q-9 155 -71.5 249.5
t-167.5 94.5q-112 0 -182.5 -106t-88.5 -273zM330 1182v82h686v-82h-686z" />
    <glyph glyph-name="Edotaccent" unicode="&#x116;" horiz-adv-x="1361" 
d="M530 0q-85 0 -145.5 9t-102 30.5t-66 47.5t-37.5 71.5t-17 90t-4 113.5v826q0 35 -6 66t-21 64.5t-48 53t-81 19.5v43h791q182 0 213 -4q60 -8 86 -45q19 -26 56 -133q12 -34 21 -58h-65q-8 20 -21 53q-15 39 -21 54.5t-23 34.5t-24 23t-40.5 10t-56 5.5t-85.5 -0.5h-38
h-408q43 -37 54.5 -98.5t11.5 -163.5v-342h587v-59h-587v-473q0 -98 38 -138.5t140 -40.5h213q162 0 194 6q51 9 77 48q14 22 61 135q8 21 16 39h63q-10 -25 -26 -69q-62 -164 -103 -191.5t-227 -26.5h-63h-306zM670 1534q-59 0 -97 37.5t-38 95.5q0 57 38 94t97 37
q56 0 94.5 -37.5t38.5 -93.5q0 -58 -38.5 -95.5t-94.5 -37.5z" />
    <glyph glyph-name="edotaccent" unicode="&#x117;" horiz-adv-x="1284" 
d="M680 -20q-265 0 -428.5 145t-163.5 387q0 243 161.5 388.5t418.5 143.5q108 1 200.5 -27t164.5 -83t115 -144t48 -204h-799q-4 -25 -4 -74q0 -212 100 -333.5t283 -127.5q115 -3 212 51t134 140h62q-66 -125 -195 -193.5t-309 -68.5zM907 643q-9 155 -71.5 249.5
t-167.5 94.5q-112 0 -182.5 -106t-88.5 -273zM680 1147q-59 0 -97 37.5t-38 95.5q0 57 38 94t97 37q56 0 94.5 -37.5t38.5 -93.5q0 -58 -38.5 -95.5t-94.5 -37.5z" />
    <glyph glyph-name="Eogonek" unicode="&#x118;" horiz-adv-x="1361" 
d="M530 0q-85 0 -145.5 9t-102 30.5t-66 47.5t-37.5 71.5t-17 90t-4 113.5v826q0 35 -6 66t-21 64.5t-48 53t-81 19.5v43h791q182 0 213 -4q60 -8 86 -45q19 -26 56 -133q12 -34 21 -58h-65q-8 20 -21 53q-15 39 -21 54.5t-23 34.5t-24 23t-40.5 10t-56 5.5t-85.5 -0.5h-38
h-408q43 -37 54.5 -98.5t11.5 -163.5v-342h587v-59h-587v-473q0 -98 38 -138.5t140 -40.5h213q162 0 194 6q51 9 77 48q14 22 61 135q8 21 16 39h63q-10 -25 -26 -69q-62 -164 -103 -191.5t-227 -26.5h-63h-101q-45 -72 -51 -141.5t21.5 -116t69.5 -75.5t94 -28t94 33
l12 -12q-92 -105 -214 -123q-108 -17 -171 43q-76 69 -36 201q29 101 126 219h-150z" />
    <glyph glyph-name="eogonek" unicode="&#x119;" horiz-adv-x="1284" 
d="M907 643q-9 155 -71.5 249.5t-167.5 94.5q-112 0 -182.5 -106t-88.5 -273zM942 -379q-92 -105 -214 -124q-106 -16 -170 43q-76 70 -37 202q32 109 141 238q-257 6 -415.5 150.5t-158.5 381.5q0 243 161.5 388.5t418.5 143.5q108 1 200.5 -27t164.5 -83t115 -144t48 -204
h-799q-4 -25 -4 -74q0 -212 100 -333.5t283 -127.5q115 -3 212 51t134 140h62q-62 -118 -182 -186.5t-285 -75.5q-95 -135 -53 -253q28 -78 101 -111q80 -36 151 7l14 10z" />
    <glyph glyph-name="Ecaron" unicode="&#x11a;" horiz-adv-x="1361" 
d="M530 0q-85 0 -145.5 9t-102 30.5t-66 47.5t-37.5 71.5t-17 90t-4 113.5v826q0 35 -6 66t-21 64.5t-48 53t-81 19.5v43h791q182 0 213 -4q60 -8 86 -45q19 -26 56 -133q12 -34 21 -58h-65q-8 20 -21 53q-15 39 -21 54.5t-23 34.5t-24 23t-40.5 10t-56 5.5t-85.5 -0.5h-38
h-408q43 -37 54.5 -98.5t11.5 -163.5v-342h587v-59h-587v-473q0 -98 38 -138.5t140 -40.5h213q162 0 194 6q51 9 77 48q14 22 61 135q8 21 16 39h63q-10 -25 -26 -69q-62 -164 -103 -191.5t-227 -26.5h-63h-306zM578 1604l-175 376h21l254 -284l252 284h20l-172 -376
q-20 -42 -59 -60.5t-79.5 -3.5t-61.5 64z" />
    <glyph glyph-name="ecaron" unicode="&#x11b;" horiz-adv-x="1284" 
d="M680 -20q-265 0 -428.5 145t-163.5 387q0 243 161.5 388.5t418.5 143.5q108 1 200.5 -27t164.5 -83t115 -144t48 -204h-799q-4 -25 -4 -74q0 -212 100 -333.5t283 -127.5q115 -3 212 51t134 140h62q-66 -125 -195 -193.5t-309 -68.5zM907 643q-9 155 -71.5 249.5
t-167.5 94.5q-112 0 -182.5 -106t-88.5 -273zM569 1217l-174 376h21l254 -284l252 284h20l-172 -376q-20 -42 -59 -60.5t-80 -3.5t-62 64z" />
    <glyph glyph-name="Gbreve" unicode="&#x11e;" horiz-adv-x="1693" 
d="M901 -20q-120 1 -232 31t-208.5 92t-168.5 148.5t-113.5 207t-41.5 260.5t41.5 260t113.5 206.5t168.5 148t208.5 91.5t232 31q197 2 353.5 -74.5t244.5 -248.5h-63q-36 68 -92 120t-119.5 81t-126 43t-121.5 12q-245 -3 -390 -182t-145 -488q0 -312 145 -493t390 -183
q164 -3 283 80v399q0 203 -154 203v43h131q64 0 112.5 -7t82.5 -19t57 -34.5t36.5 -45.5t20 -61t8.5 -72t2 -87v-127q-89 -170 -265 -252.5t-390 -82.5zM920 1559q-137 0 -226.5 82.5t-95.5 259.5h27q6 -87 91 -131t204 -44q77 0 140.5 17.5t107.5 58t49 99.5h26
q-6 -178 -95 -260t-228 -82z" />
    <glyph glyph-name="gbreve" unicode="&#x11f;" horiz-adv-x="1271" 
d="M621 -559q-252 0 -398.5 79.5t-146.5 233.5q0 92 74.5 155.5t199.5 96.5h68q-127 -83 -127 -239q0 -125 85.5 -205t244.5 -80q149 0 245.5 76t96.5 206q0 62 -26 109.5t-68.5 75.5t-97 50.5t-112 35t-114 30t-102 34.5t-75.5 48.5t-36.5 72.5t16.5 106q-116 46 -179 132
t-63 204q0 176 140 279t372 103l37 -2q34 128 129 217t220 89q84 0 128 -40.5t44 -97.5q0 -50 -36.5 -89.5t-95.5 -39.5q-52 0 -88 37.5t-36 85.5q0 38 23 67.5t58 45.5q-104 -1 -185 -80.5t-105 -196.5q194 -20 306.5 -120.5t112.5 -257.5q0 -178 -138.5 -281t-373.5 -105
q-81 0 -128 8t-99 27q-22 -67 10.5 -108.5t102 -61t159 -32.5t183.5 -31.5t172.5 -48.5t129 -93.5t50.5 -156.5q0 -153 -157.5 -245.5t-419.5 -92.5zM616 319q78 0 131 49t76 124t23 170q0 146 -57.5 242.5t-170.5 96.5t-170 -96.5t-57 -242.5q0 -95 22.5 -170t74.5 -124
t128 -49zM616 1389q-137 0 -226 82.5t-95 259.5h27q6 -87 90.5 -131t203.5 -44q77 0 140.5 17.5t107.5 58t49 99.5h27q-3 -91 -29.5 -159t-72 -107t-101 -57.5t-121.5 -18.5z" />
    <glyph glyph-name="Gdotaccent" unicode="&#x120;" horiz-adv-x="1693" 
d="M901 -20q-120 1 -232 31t-208.5 92t-168.5 148.5t-113.5 207t-41.5 260.5t41.5 260t113.5 206.5t168.5 148t208.5 91.5t232 31q197 2 353.5 -74.5t244.5 -248.5h-63q-36 68 -92 120t-119.5 81t-126 43t-121.5 12q-245 -3 -390 -182t-145 -488q0 -312 145 -493t390 -183
q164 -3 283 80v399q0 203 -154 203v43h131q64 0 112.5 -7t82.5 -19t57 -34.5t36.5 -45.5t20 -61t8.5 -72t2 -87v-127q-89 -170 -265 -252.5t-390 -82.5zM920 1530q-59 0 -97.5 37.5t-38.5 95.5q0 57 38.5 94t97.5 37q56 0 94.5 -37.5t38.5 -93.5q0 -58 -38.5 -95.5
t-94.5 -37.5z" />
    <glyph glyph-name="gdotaccent" unicode="&#x121;" horiz-adv-x="1271" 
d="M621 -559q-252 0 -398.5 79.5t-146.5 233.5q0 92 74.5 155.5t199.5 96.5h68q-127 -83 -127 -239q0 -125 85.5 -205t244.5 -80q149 0 245.5 76t96.5 206q0 62 -26 109.5t-68.5 75.5t-97 50.5t-112 35t-114 30t-102 34.5t-75.5 48.5t-36.5 72.5t16.5 106q-116 46 -179 132
t-63 204q0 176 140 279t372 103l37 -2q34 128 129 217t220 89q84 0 128 -40.5t44 -97.5q0 -50 -36.5 -89.5t-95.5 -39.5q-52 0 -88 37.5t-36 85.5q0 38 23 67.5t58 45.5q-104 -1 -185 -80.5t-105 -196.5q194 -20 306.5 -120.5t112.5 -257.5q0 -178 -138.5 -281t-373.5 -105
q-81 0 -128 8t-99 27q-22 -67 10.5 -108.5t102 -61t159 -32.5t183.5 -31.5t172.5 -48.5t129 -93.5t50.5 -156.5q0 -153 -157.5 -245.5t-419.5 -92.5zM616 319q78 0 131 49t76 124t23 170q0 146 -57.5 242.5t-170.5 96.5t-170 -96.5t-57 -242.5q0 -95 22.5 -170t74.5 -124
t128 -49zM635 1395q-59 0 -97 37.5t-38 95.5q0 57 38 94t97 37q56 0 94.5 -37.5t38.5 -93.5q0 -58 -38.5 -95.5t-94.5 -37.5z" />
    <glyph glyph-name="uni0122" unicode="&#x122;" horiz-adv-x="1693" 
d="M901 -20q-120 1 -232 31t-208.5 92t-168.5 148.5t-113.5 207t-41.5 260.5t41.5 260t113.5 206.5t168.5 148t208.5 91.5t232 31q197 2 353.5 -74.5t244.5 -248.5h-63q-36 68 -92 120t-119.5 81t-126 43t-121.5 12q-245 -3 -390 -182t-145 -488q0 -312 145 -493t390 -183
q164 -3 283 80v399q0 203 -154 203v43h131q64 0 112.5 -7t82.5 -19t57 -34.5t36.5 -45.5t20 -61t8.5 -72t2 -87v-127q-89 -170 -265 -252.5t-390 -82.5zM899 -557q47 68 47 145q0 30 -19.5 49.5t-43 30t-43 37.5t-19.5 70q0 54 36 87.5t83 33.5q56 0 88.5 -39t32.5 -99
q0 -81 -44.5 -179t-92.5 -148z" />
    <glyph glyph-name="uni0123" unicode="&#x123;" horiz-adv-x="1271" 
d="M621 -559q-252 0 -398.5 79.5t-146.5 233.5q0 92 74.5 155.5t199.5 96.5h68q-127 -83 -127 -239q0 -125 85.5 -205t244.5 -80q149 0 245.5 76t96.5 206q0 62 -26 109.5t-68.5 75.5t-97 50.5t-112 35t-114 30t-102 34.5t-75.5 48.5t-36.5 72.5t16.5 106q-116 46 -179 132
t-63 204q0 176 140 279t372 103l37 -2q34 128 129 217t220 89q84 0 128 -40.5t44 -97.5q0 -50 -36.5 -89.5t-95.5 -39.5q-52 0 -88 37.5t-36 85.5q0 38 23 67.5t58 45.5q-104 -1 -185 -80.5t-105 -196.5q194 -20 306.5 -120.5t112.5 -257.5q0 -178 -138.5 -281t-373.5 -105
q-81 0 -128 8t-99 27q-22 -67 10.5 -108.5t102 -61t159 -32.5t183.5 -31.5t172.5 -48.5t129 -93.5t50.5 -156.5q0 -153 -157.5 -245.5t-419.5 -92.5zM616 319q78 0 131 49t76 124t23 170q0 146 -57.5 242.5t-170.5 96.5t-170 -96.5t-57 -242.5q0 -95 22.5 -170t74.5 -124
t128 -49zM664 1831q-48 -69 -48 -145q0 -30 19.5 -49.5t43 -30t43 -37.5t19.5 -70q0 -54 -35.5 -87.5t-82.5 -33.5q-56 0 -88.5 39t-32.5 99q0 81 44.5 179t92.5 148z" />
    <glyph glyph-name="Hbar" unicode="&#x126;" horiz-adv-x="1505" 
d="M158 1188q0 203 -156 203v43h135q82 0 139 -13t91.5 -35.5t53.5 -61.5t25.5 -82t6.5 -107v-95h598v394h299v-1434h-299v715h-598v-715h-295v1188zM453 776h598v203h-598v-203z" />
    <glyph glyph-name="hbar" unicode="&#x127;" horiz-adv-x="1341" 
d="M184 1241q0 36 -5.5 66.5t-21 64t-49 53.5t-81.5 21v43h135q70 0 121 -7.5t85 -25.5t55 -40t31.5 -59t14 -72.5t4.5 -90.5h109v-64h-109v-243q165 157 391 157q79 0 142.5 -20t113.5 -62t77.5 -113.5t27.5 -168.5v-680h-289v639q0 59 -3.5 100.5t-14.5 84.5t-30 69
t-53 42.5t-81 16.5q-75 0 -150.5 -34.5t-130.5 -98.5v-819h-289v1130h-104v64h104v47z" />
    <glyph glyph-name="Imacron" unicode="&#x12a;" horiz-adv-x="612" 
d="M158 1188q0 203 -156 203v43h135q64 0 112 -7.5t81.5 -19t56.5 -34.5t36 -45.5t19.5 -61t8.5 -72t2 -86.5v-1108h-295v1188zM-8 1556v82h629v-82h-629z" />
    <glyph glyph-name="imacron" unicode="&#x12b;" horiz-adv-x="589" 
d="M184 778q0 36 -5.5 66.5t-21 64t-49 53t-81.5 19.5v43h135q55 0 98.5 -4.5t75.5 -16t55 -24.5t38 -36.5t24 -44.5t13.5 -57t5.5 -65.5t1 -77.5v-698h-289v778zM18 1165v82h488v-82h-488z" />
    <glyph glyph-name="Iogonek" unicode="&#x12e;" horiz-adv-x="612" 
d="M158 1188q0 203 -156 203v43h135q64 0 112 -7.5t81.5 -19t56.5 -34.5t36 -45.5t19.5 -61t8.5 -72t2 -86.5v-1108h-117q-45 -72 -51 -141.5t21.5 -116t69.5 -75.5t93.5 -28t93.5 33l12 -12q-92 -105 -214 -123q-107 -17 -171 43q-75 69 -36 201q30 101 127 219h-123v1188z
" />
    <glyph glyph-name="iogonek" unicode="&#x12f;" horiz-adv-x="583" 
d="M184 778q0 36 -5.5 66.5t-21 64t-49 53t-81.5 19.5v43h135q55 0 98.5 -4.5t75.5 -16t55 -24.5t38 -36.5t24 -44.5t13.5 -57t5.5 -65.5t1 -77.5v-698h-108q-45 -72 -51 -141.5t21.5 -116t69.5 -75.5t93.5 -28t93.5 33l12 -12q-92 -105 -214 -123q-108 -17 -171 43
q-76 69 -36 201q29 101 126 219h-125v778zM289 1155q-70 0 -119 48.5t-49 117.5t48.5 116.5t119.5 47.5q68 0 117 -48t49 -116q0 -69 -49 -117.5t-117 -48.5z" />
    <glyph glyph-name="Idotaccent" unicode="&#x130;" horiz-adv-x="612" 
d="M158 1188q0 203 -156 203v43h135q64 0 112 -7.5t81.5 -19t56.5 -34.5t36 -45.5t19.5 -61t8.5 -72t2 -86.5v-1108h-295v1188zM301 1534q-69 0 -114.5 44.5t-45.5 113.5q0 66 45.5 109.5t114.5 43.5q65 0 110.5 -44t45.5 -109q0 -68 -45.5 -113t-110.5 -45z" />
    <glyph glyph-name="dotlessi" unicode="&#x131;" horiz-adv-x="583" 
d="M184 778q0 36 -5.5 66.5t-21 64t-49 53t-81.5 19.5v43h135q55 0 98.5 -4.5t75.5 -16t55 -24.5t38 -36.5t24 -44.5t13.5 -57t5.5 -65.5t1 -77.5v-698h-289v778z" />
    <glyph glyph-name="uni0136" unicode="&#x136;" horiz-adv-x="1529" 
d="M1448 -10q-52 -7 -86.5 -10.5t-96 -5.5t-104.5 4t-88.5 23t-71.5 46q-39 40 -59.5 108t-36.5 171t-28 149q-13 48 -24 75.5t-39 63.5t-67.5 55.5t-109.5 33.5t-166 14l782 717h86l-680 -621q427 37 512 -301q15 -60 32.5 -150.5t32.5 -149.5t38 -103q28 -50 65.5 -67
t108.5 -11v-41zM158 1188q0 203 -156 203v43h135q64 0 112 -7.5t81.5 -19t56.5 -34.5t36 -45.5t19.5 -61t8.5 -72t2 -86.5v-1108h-295v1188zM682 -553q47 68 47 145q0 30 -19.5 49.5t-43 30t-43 37.5t-19.5 70q0 54 36 87.5t83 33.5q56 0 88.5 -39t32.5 -99
q0 -81 -44.5 -179t-92.5 -148z" />
    <glyph glyph-name="uni0137" unicode="&#x137;" horiz-adv-x="1327" 
d="M1087 -20q-168 0 -235 88q-25 28 -48.5 79t-40 101.5t-41.5 105t-52.5 95.5t-73.5 67t-104 25l649 483h100l-569 -426q81 7 144 -13t101 -55t70.5 -89t51.5 -104t46 -112t52 -102q28 -48 61.5 -68t79.5 -22v-37q-6 -1 -52.5 -7t-77 -8t-61.5 -1zM184 1241q0 36 -5.5 66.5
t-21 64t-49 53.5t-81.5 21v43h135q49 0 88.5 -4.5t70.5 -11.5t54 -20.5t39 -27.5t27 -37t17.5 -43.5t9.5 -53t4 -59.5t1 -69v-1163h-289v1241zM639 -567q47 68 47 145q0 25 -13 41.5t-31 27t-36.5 22.5t-31.5 36t-13 59q0 54 36 87.5t83 33.5q56 0 88.5 -38.5t32.5 -98.5
q0 -82 -44.5 -180t-92.5 -148z" />
    <glyph glyph-name="Lacute" unicode="&#x139;" horiz-adv-x="1280" 
d="M530 0q-85 0 -145.5 9t-102 30.5t-66 47.5t-37.5 71.5t-17 90t-4 113.5v826q0 203 -156 203v43h135q64 0 112 -7.5t81.5 -19t56.5 -34.5t36 -45.5t19.5 -61t8.5 -72t2 -86.5v-870q0 -98 38 -138.5t140 -40.5h203q159 0 193.5 20t83.5 141q17 42 28 67h65q-10 -26 -27 -70
q-63 -164 -104 -191t-226 -26h-63h-254zM287 1915q25 65 88 68q51 2 85 -36q40 -46 3 -100q-7 -10 -17 -20l-284 -289h-21z" />
    <glyph glyph-name="lacute" unicode="&#x13a;" horiz-adv-x="782" 
d="M479 -20q-295 0 -295 335v926q0 36 -5.5 66.5t-21 64t-49 53.5t-81.5 21v43h135q49 0 88.5 -4.5t70.5 -11.5t54 -20.5t39 -27.5t27 -37t17.5 -43.5t9.5 -53t4 -59.5t1 -69v-925q0 -93 23 -138.5t94 -48.5q35 -3 81 12.5t79 40.5v-43q-94 -81 -271 -81zM254 1944
q25 65 87 67q53 2 87 -36q40 -46 3 -100q-7 -10 -17 -20l-285 -288h-20z" />
    <glyph glyph-name="uni013B" unicode="&#x13b;" horiz-adv-x="1280" 
d="M530 0q-85 0 -145.5 9t-102 30.5t-66 47.5t-37.5 71.5t-17 90t-4 113.5v826q0 203 -156 203v43h135q64 0 112 -7.5t81.5 -19t56.5 -34.5t36 -45.5t19.5 -61t8.5 -72t2 -86.5v-870q0 -98 38 -138.5t140 -40.5h203q159 0 193.5 20t83.5 141q17 42 28 67h65q-10 -26 -27 -70
q-63 -164 -104 -191t-226 -26h-63h-254zM614 -555q48 69 48 145q0 30 -19.5 49.5t-43 30t-43 37.5t-19.5 70q0 54 35.5 87.5t82.5 33.5q56 0 88.5 -39t32.5 -99q0 -81 -44.5 -179t-92.5 -148z" />
    <glyph glyph-name="uni013C" unicode="&#x13c;" horiz-adv-x="782" 
d="M479 -20q-295 0 -295 335v926q0 36 -5.5 66.5t-21 64t-49 53.5t-81.5 21v43h135q49 0 88.5 -4.5t70.5 -11.5t54 -20.5t39 -27.5t27 -37t17.5 -43.5t9.5 -53t4 -59.5t1 -69v-925q0 -93 23 -138.5t94 -48.5q35 -3 81 12.5t79 40.5v-43q-94 -81 -271 -81zM365 -559
q47 68 47 145q0 30 -19.5 49.5t-43 30t-43 37.5t-19.5 70q0 54 36 87.5t83 33.5q56 0 88 -39t32 -99q0 -81 -44.5 -179t-92.5 -148z" />
    <glyph glyph-name="Lcaron" unicode="&#x13d;" horiz-adv-x="1280" 
d="M530 0q-85 0 -145.5 9t-102 30.5t-66 47.5t-37.5 71.5t-17 90t-4 113.5v826q0 203 -156 203v43h135q64 0 112 -7.5t81.5 -19t56.5 -34.5t36 -45.5t19.5 -61t8.5 -72t2 -86.5v-870q0 -98 38 -138.5t140 -40.5h203q159 0 193.5 20t83.5 141q17 42 28 67h65q-10 -26 -27 -70
q-63 -164 -104 -191t-226 -26h-63h-254zM188 1606l-174 376h21l254 -284l252 284h20l-172 -376q-20 -42 -59 -60.5t-80 -3.5t-62 64z" />
    <glyph glyph-name="lcaron" unicode="&#x13e;" horiz-adv-x="782" 
d="M479 -20q-295 0 -295 335v926q0 36 -5.5 66.5t-21 64t-49 53.5t-81.5 21v43h135q49 0 88.5 -4.5t70.5 -11.5t54 -20.5t39 -27.5t27 -37t17.5 -43.5t9.5 -53t4 -59.5t1 -69v-925q0 -93 23 -138.5t94 -48.5q35 -3 81 12.5t79 40.5v-43q-94 -81 -271 -81zM170 1632l-174 377
h20l254 -285l252 285h21l-172 -377q-20 -42 -59 -60.5t-80 -3.5t-62 64z" />
    <glyph glyph-name="Lslash" unicode="&#x141;" horiz-adv-x="1280" 
d="M0 418l158 153v617q0 203 -156 203v43h135q64 0 112 -7.5t81.5 -19t56.5 -34.5t36 -45.5t19.5 -61t8.5 -72t2 -86.5v-252l67 66h96l-163 -158v-526q0 -98 38 -138.5t140 -40.5h203q159 0 193.5 20t83.5 141q17 42 28 67h65q-10 -26 -27 -70q-63 -164 -104 -191t-226 -26
h-63h-254q-85 0 -145.5 9t-102 30.5t-66 47.5t-37.5 71.5t-17 90t-4 113.5v115l-62 -59h-96z" />
    <glyph glyph-name="lslash" unicode="&#x142;" horiz-adv-x="782" 
d="M479 -20q-295 0 -295 335v164l-75 -71l-43 45l118 112v676q0 36 -5.5 66.5t-21 64t-49 53.5t-81.5 21v43h135q49 0 88.5 -4.5t70.5 -11.5t54 -20.5t39 -27.5t27 -37t17.5 -43.5t9.5 -53t4 -59.5t1 -69v-321l80 76l43 -46l-123 -116v-518q0 -93 23 -138.5t94 -48.5
q35 -3 81 12.5t79 40.5v-43q-94 -81 -271 -81z" />
    <glyph glyph-name="Nacute" unicode="&#x143;" horiz-adv-x="1447" 
d="M158 1315q-62 76 -156 76v43h162q64 0 101 -2t78.5 -10.5t69.5 -25t57 -45t56 -71.5l707 -1055v1209h59v-1313q61 -78 154 -78v-43h-162q-52 0 -84 1.5t-69 6.5t-61.5 15t-51.5 27t-50 42.5t-46 61.5l-705 1056v-1210h-59v1315zM825 1913q25 65 87 68q52 2 86 -36
q40 -45 5 -99q-8 -11 -18 -21l-285 -289h-20z" />
    <glyph glyph-name="nacute" unicode="&#x144;" horiz-adv-x="1341" 
d="M184 778q0 36 -5.5 66.5t-21 64t-49 53t-81.5 19.5v43h135q145 0 210 -34t85 -120q174 174 407 174q79 0 142.5 -20t113.5 -62t77.5 -113.5t27.5 -168.5v-680h-289v639q0 59 -3.5 100.5t-14.5 84.5t-30 69t-53 42.5t-81 16.5q-75 0 -150.5 -34.5t-130.5 -98.5v-819h-289
v778zM682 1522q25 65 87 68q52 2 86 -36q40 -45 5 -99q-8 -11 -18 -21l-285 -289h-20z" />
    <glyph glyph-name="uni0145" unicode="&#x145;" horiz-adv-x="1447" 
d="M158 1315q-62 76 -156 76v43h162q64 0 101 -2t78.5 -10.5t69.5 -25t57 -45t56 -71.5l707 -1055v1209h59v-1313q61 -78 154 -78v-43h-162q-52 0 -84 1.5t-69 6.5t-61.5 15t-51.5 27t-50 42.5t-46 61.5l-705 1056v-1210h-59v1315zM666 -532q47 68 47 145q0 25 -13 41.5
t-31.5 27t-36.5 22.5t-31 36t-13 59q0 54 36 87.5t83 33.5q56 0 88 -38.5t32 -98.5q0 -82 -44.5 -180t-92.5 -148z" />
    <glyph glyph-name="uni0146" unicode="&#x146;" horiz-adv-x="1341" 
d="M184 778q0 36 -5.5 66.5t-21 64t-49 53t-81.5 19.5v43h135q145 0 210 -34t85 -120q174 174 407 174q79 0 142.5 -20t113.5 -62t77.5 -113.5t27.5 -168.5v-680h-289v639q0 59 -3.5 100.5t-14.5 84.5t-30 69t-53 42.5t-81 16.5q-75 0 -150.5 -34.5t-130.5 -98.5v-819h-289
v778zM653 -541q47 68 47 146q0 25 -13 41.5t-31 27t-36.5 22.5t-31.5 36t-13 59q0 54 36 87.5t83 33.5q56 0 88.5 -38.5t32.5 -98.5q0 -82 -44.5 -180t-92.5 -148z" />
    <glyph glyph-name="Ncaron" unicode="&#x147;" horiz-adv-x="1447" 
d="M158 1315q-62 76 -156 76v43h162q64 0 101 -2t78.5 -10.5t69.5 -25t57 -45t56 -71.5l707 -1055v1209h59v-1313q61 -78 154 -78v-43h-162q-52 0 -84 1.5t-69 6.5t-61.5 15t-51.5 27t-50 42.5t-46 61.5l-705 1056v-1210h-59v1315zM647 1606l-174 376h21l254 -284l251 284
h21l-172 -376q-20 -42 -59 -60.5t-80 -3.5t-62 64z" />
    <glyph glyph-name="ncaron" unicode="&#x148;" horiz-adv-x="1341" 
d="M184 778q0 36 -5.5 66.5t-21 64t-49 53t-81.5 19.5v43h135q145 0 210 -34t85 -120q174 174 407 174q79 0 142.5 -20t113.5 -62t77.5 -113.5t27.5 -168.5v-680h-289v639q0 59 -3.5 100.5t-14.5 84.5t-30 69t-53 42.5t-81 16.5q-75 0 -150.5 -34.5t-130.5 -98.5v-819h-289
v778zM539 1214l-174 377h20l254 -284l252 284h20l-172 -377q-20 -42 -59 -60.5t-79.5 -3.5t-61.5 64z" />
    <glyph glyph-name="Eng" unicode="&#x14a;" horiz-adv-x="1447" 
d="M1055 -395q37 0 66 9t47.5 21t31.5 34t19 38.5t9.5 46t4 46t0.5 46.5v123l-1016 1241v-1210h-59v1294q-34 47 -69 71.5t-87 25.5v43h203q137 0 200.5 -29.5t145.5 -130.5l682 -840v1000h59v-1588q0 -24 -0.5 -38.5t-5 -44.5t-12.5 -50t-25.5 -46t-42 -41.5t-63.5 -26.5
t-88 -11v17z" />
    <glyph glyph-name="eng" unicode="&#x14b;" horiz-adv-x="1341" 
d="M608 -569q94 8 159.5 40.5t101.5 88.5t51.5 123.5t15.5 158.5v797q0 59 -3.5 100.5t-14.5 84.5t-30 69t-53 42.5t-81 16.5q-75 0 -150.5 -34.5t-130.5 -98.5v-819h-289v778q0 36 -5.5 66.5t-21 64t-49 53t-81.5 19.5v43h135q143 0 208 -33.5t87 -118.5q178 172 407 172
q79 0 142.5 -20t113.5 -62t77.5 -113.5t27.5 -168.5v-776q0 -125 -48 -221.5t-133.5 -155.5t-195 -88.5t-240.5 -30.5v23z" />
    <glyph glyph-name="Omacron" unicode="&#x14c;" horiz-adv-x="1867" 
d="M907 -20q-222 0 -396.5 91t-274 260t-99.5 388t99.5 387t274 258t396.5 90q223 0 397.5 -90t272.5 -258t98 -387q0 -220 -98 -388.5t-272.5 -259.5t-397.5 -91zM911 39q229 0 346 176.5t117 503.5q0 326 -117 501t-346 175q-231 0 -350 -175t-119 -501t119 -503t350 -177
zM588 1585v82h686v-82h-686z" />
    <glyph glyph-name="omacron" unicode="&#x14d;" horiz-adv-x="1363" 
d="M682 -20q-266 0 -430 143t-164 389t164 389t430 143t430 -143t164 -389t-164 -389t-430 -143zM682 39q97 0 164 67t97 171t30 235t-30 235t-97 171t-164 67q-73 0 -129.5 -38t-90.5 -104.5t-51.5 -150t-17.5 -180.5t17.5 -180.5t51.5 -150t90.5 -104.5t129.5 -38z
M350 1167v82h686v-82h-686z" />
    <glyph glyph-name="Ohungarumlaut" unicode="&#x150;" horiz-adv-x="1867" 
d="M907 -20q-222 0 -396.5 91t-274 260t-99.5 388t99.5 387t274 258t396.5 90q223 0 397.5 -90t272.5 -258t98 -387q0 -220 -98 -388.5t-272.5 -259.5t-397.5 -91zM911 39q229 0 346 176.5t117 503.5q0 326 -117 501t-346 175q-231 0 -350 -175t-119 -501t119 -503t350 -177
zM1190 1915q25 66 88 68q52 3 86 -35q40 -45 5 -99q-8 -11 -19 -22l-285 -289h-18zM887 1915q26 66 89 68q53 2 87 -36q40 -46 3 -100q-7 -10 -17 -20l-285 -289h-21z" />
    <glyph glyph-name="ohungarumlaut" unicode="&#x151;" horiz-adv-x="1363" 
d="M682 -20q-266 0 -430 143t-164 389t164 389t430 143t430 -143t164 -389t-164 -389t-430 -143zM682 39q97 0 164 67t97 171t30 235t-30 235t-97 171t-164 67q-73 0 -129.5 -38t-90.5 -104.5t-51.5 -150t-17.5 -180.5t17.5 -180.5t51.5 -150t90.5 -104.5t129.5 -38z
M948 1524q25 66 88 68q52 3 86 -35q40 -45 5 -99q-8 -11 -19 -22l-285 -289h-18zM645 1524q26 66 89 68q53 2 87 -36q40 -46 3 -100q-7 -10 -17 -20l-285 -289h-20z" />
    <glyph glyph-name="OE" unicode="&#x152;" horiz-adv-x="2500" 
d="M934 -20q-229 0 -410 91t-284 260t-103 388t103 387t283.5 258t410.5 90q186 0 362 -98v78h637h58q55 0 78 0.5t57.5 -3.5t45 -5t31 -14t25 -20.5t19 -33.5t20 -43.5t20.5 -60.5q13 -38 21 -60h-65q-45 113 -48 118q-20 41 -56 52q-32 10 -166 10h-38h-340v-604h586v-59
h-586v-473q0 -98 37.5 -138.5t139.5 -40.5h210q163 0 196 6q51 9 77 49q15 23 61 136q8 20 15 37h65q-9 -24 -25 -66q-63 -167 -104.5 -194.5t-229.5 -26.5h-63h-303q-141 0 -217.5 22.5t-110.5 79.5q-204 -122 -409 -122zM940 39q228 0 363 199q-7 43 -7 124v846
q-130 187 -356 187q-229 0 -363.5 -178.5t-134.5 -497.5t135 -499.5t363 -180.5z" />
    <glyph glyph-name="oe" unicode="&#x153;" horiz-adv-x="2072" 
d="M682 -20q-266 0 -430 143t-164 389t164 389t430 143q236 0 391 -118q151 118 383 118q108 1 200.5 -27t164.5 -83t115.5 -144t48.5 -204h-799q-4 -50 -4 -74q0 -212 100.5 -333.5t284.5 -127.5q115 -3 211.5 50.5t134.5 140.5h59q-65 -125 -194 -193.5t-308 -68.5
q-239 0 -393 120q-157 -120 -395 -120zM682 39q180 0 250 242q-55 107 -55 231q0 122 53 231q-31 112 -92.5 177t-155.5 65q-73 0 -129.5 -38t-90.5 -104.5t-51.5 -150t-17.5 -180.5t17.5 -180.5t51.5 -150t90.5 -104.5t129.5 -38zM1698 643q-11 156 -73.5 250t-168.5 94
q-110 0 -180 -97.5t-88 -254.5z" />
    <glyph glyph-name="Racute" unicode="&#x154;" horiz-adv-x="1509" 
d="M1464 -10q-67 -9 -120 -12.5t-123.5 -2t-127.5 19t-94 50.5q-42 36 -71.5 92.5t-43.5 114t-30.5 122t-33.5 119t-52 102.5t-86 75h-229v-670h-295v1188q0 35 -6 66t-21 64.5t-48 53t-81 19.5v43h692q163 0 280 -28.5t182.5 -81.5t94.5 -119.5t29 -151.5
q0 -134 -80 -231.5t-256 -133.5q68 -14 115 -62t74 -116t46.5 -137.5t45 -146.5t55.5 -124q30 -42 72.5 -57t111.5 -10v-45zM639 729q176 0 256 86t80 238q0 150 -80 235.5t-256 85.5h-252q43 -37 54.5 -98.5t11.5 -163.5v-383h186zM754 1917q25 65 88 68q51 2 85 -36
q40 -46 3 -100q-7 -10 -17 -20l-284 -289h-21z" />
    <glyph glyph-name="racute" unicode="&#x155;" horiz-adv-x="962" 
d="M184 778q0 36 -5.5 66.5t-21 64t-49 53t-81.5 19.5v43h135q143 0 208 -33.5t87 -118.5q155 185 444 170v-202q-115 52 -164 65q-173 44 -264 -90v-815h-289v778zM496 1520q25 65 88 68q51 2 85 -36q40 -46 3 -100q-7 -10 -17 -20l-284 -289h-21z" />
    <glyph glyph-name="uni0156" unicode="&#x156;" horiz-adv-x="1509" 
d="M1464 -10q-67 -9 -120 -12.5t-123.5 -2t-127.5 19t-94 50.5q-42 36 -71.5 92.5t-43.5 114t-30.5 122t-33.5 119t-52 102.5t-86 75h-229v-670h-295v1188q0 35 -6 66t-21 64.5t-48 53t-81 19.5v43h692q163 0 280 -28.5t182.5 -81.5t94.5 -119.5t29 -151.5
q0 -134 -80 -231.5t-256 -133.5q68 -14 115 -62t74 -116t46.5 -137.5t45 -146.5t55.5 -124q30 -42 72.5 -57t111.5 -10v-45zM639 729q176 0 256 86t80 238q0 150 -80 235.5t-256 85.5h-252q43 -37 54.5 -98.5t11.5 -163.5v-383h186zM659 -528q48 69 48 145q0 25 -13 41.5
t-31.5 27t-36.5 22.5t-31 36t-13 59q0 54 35.5 87.5t82.5 33.5q56 0 88.5 -38.5t32.5 -98.5q0 -82 -44.5 -180t-92.5 -148z" />
    <glyph glyph-name="uni0157" unicode="&#x157;" horiz-adv-x="962" 
d="M184 778q0 36 -5.5 66.5t-21 64t-49 53t-81.5 19.5v43h135q143 0 208 -33.5t87 -118.5q155 185 444 170v-202q-115 52 -164 65q-173 44 -264 -90v-815h-289v778zM283 -535q47 68 47 146q0 25 -13 41.5t-31 27t-36.5 22.5t-31.5 36t-13 59q0 54 36 87.5t83 33.5
q56 0 88 -38.5t32 -98.5q0 -82 -44.5 -180t-92.5 -148z" />
    <glyph glyph-name="Rcaron" unicode="&#x158;" horiz-adv-x="1509" 
d="M1464 -10q-67 -9 -120 -12.5t-123.5 -2t-127.5 19t-94 50.5q-42 36 -71.5 92.5t-43.5 114t-30.5 122t-33.5 119t-52 102.5t-86 75h-229v-670h-295v1188q0 35 -6 66t-21 64.5t-48 53t-81 19.5v43h692q163 0 280 -28.5t182.5 -81.5t94.5 -119.5t29 -151.5
q0 -134 -80 -231.5t-256 -133.5q68 -14 115 -62t74 -116t46.5 -137.5t45 -146.5t55.5 -124q30 -42 72.5 -57t111.5 -10v-45zM639 729q176 0 256 86t80 238q0 150 -80 235.5t-256 85.5h-252q43 -37 54.5 -98.5t11.5 -163.5v-383h186zM586 1604l-174 376h20l254 -284l252 284
h20l-172 -376q-20 -42 -59 -60.5t-79.5 -3.5t-61.5 64z" />
    <glyph glyph-name="rcaron" unicode="&#x159;" horiz-adv-x="962" 
d="M184 778q0 36 -5.5 66.5t-21 64t-49 53t-81.5 19.5v43h135q143 0 208 -33.5t87 -118.5q155 185 444 170v-202q-115 52 -164 65q-173 44 -264 -90v-815h-289v778zM416 1217l-174 376h20l254 -284l252 284h20l-172 -376q-20 -42 -59 -60.5t-79.5 -3.5t-61.5 64z" />
    <glyph glyph-name="Sacute" unicode="&#x15a;" horiz-adv-x="1390" 
d="M680 -20q-95 0 -183 21t-162 61t-126.5 105.5t-71.5 147.5h60q20 -84 93 -146.5t169 -92t200 -29.5q142 0 240 64.5t98 183.5q0 51 -28.5 94t-76.5 74.5t-110 59.5t-131 55t-137.5 56t-130.5 67t-110 82.5t-76.5 108.5t-28.5 140q0 79 29.5 147.5t80.5 118t118 85.5
t143 53.5t155 17.5q114 0 214.5 -33.5t178 -108t101.5 -179.5h-60q-31 122 -148.5 190t-256.5 68q-127 0 -214 -62.5t-87 -177.5q0 -69 46 -123t119.5 -90.5t162 -70.5t177.5 -73t162.5 -86.5t119.5 -122.5t46 -171q0 -134 -85 -235t-214 -150t-276 -49zM702 1909
q25 65 87 68q52 2 86 -36q40 -45 5 -99q-8 -11 -18 -21l-284 -289h-21z" />
    <glyph glyph-name="sacute" unicode="&#x15b;" horiz-adv-x="1083" 
d="M524 -20q-143 0 -263.5 53t-172.5 153h62q42 -70 143.5 -109.5t216.5 -39.5q74 0 135 17.5t101 56.5t40 94q0 44 -37.5 78t-98 58t-133.5 47t-146 52t-133.5 65.5t-98 94.5t-37.5 133q0 96 65 168.5t163 107.5t211 35q132 0 242.5 -51.5t160.5 -150.5h-61
q-34 69 -123.5 107t-192.5 38q-108 0 -181.5 -42t-72.5 -118q0 -43 38 -76.5t98 -57t132.5 -45.5t145 -50.5t132 -64.5t97 -94.5t37.5 -133.5q0 -103 -69 -178.5t-173.5 -111t-226.5 -35.5zM596 1522q25 65 87 68q52 2 86 -36q40 -45 5 -99q-8 -11 -18 -21l-285 -289h-20z
" />
    <glyph glyph-name="Scedilla" unicode="&#x15e;" horiz-adv-x="1390" 
d="M610 -430q47 0 75.5 27.5t31.5 68.5q2 48 -37 88t-119 53l107 173q-93 2 -179 23.5t-158.5 61.5t-123.5 104.5t-70 145.5h60q20 -84 93 -146.5t169 -92t200 -29.5q142 0 240 64.5t98 183.5q0 51 -28.5 94t-76.5 74.5t-110 59.5t-131 55t-137.5 56t-130.5 67t-110 82.5
t-76.5 108.5t-28.5 140q0 79 29.5 147.5t80.5 118t118 85.5t143 53.5t155 17.5q114 0 214.5 -33.5t178 -108t101.5 -179.5h-60q-31 122 -148.5 190t-256.5 68q-127 0 -214 -62.5t-87 -177.5q0 -69 46 -123t119.5 -90.5t162 -70.5t177.5 -73t162.5 -86.5t119.5 -122.5
t46 -171q0 -95 -44 -175t-118 -133.5t-167 -85.5t-195 -38l-69 -101q58 -3 102.5 -21.5t68 -47t35 -58t11.5 -59.5q0 -71 -48.5 -119.5t-115.5 -61.5t-140.5 8t-119.5 75l16 24q72 -51 139 -51z" />
    <glyph glyph-name="scedilla" unicode="&#x15f;" horiz-adv-x="1083" 
d="M432 -438q47 0 75.5 27.5t31.5 68.5q2 48 -37 88t-119 53l113 181q-135 6 -247 59t-161 147h62q42 -70 143.5 -109.5t216.5 -39.5q74 0 135 17.5t101 56.5t40 94q0 44 -37.5 78t-98 58t-133.5 47t-146 52t-133.5 65.5t-98 94.5t-37.5 133q0 96 65 168.5t163 107.5t211 35
q132 0 242.5 -51.5t160.5 -150.5h-61q-34 69 -123.5 107t-192.5 38q-108 0 -181.5 -42t-72.5 -118q0 -43 38 -76.5t98 -57t132.5 -45.5t145 -50.5t132 -64.5t97 -94.5t37.5 -133.5q0 -98 -63 -172t-160 -111t-213 -42l-74 -107q58 -3 102.5 -21.5t68 -47t35 -58t11.5 -59.5
q0 -71 -48.5 -119.5t-115.5 -62t-140.5 7.5t-119.5 75l17 25q72 -51 139 -51z" />
    <glyph glyph-name="Scaron" unicode="&#x160;" horiz-adv-x="1419" 
d="M680 -20q-95 0 -183 21t-162 61t-126.5 105.5t-71.5 147.5h60q20 -84 93 -146.5t169 -92t200 -29.5q142 0 240 64.5t98 183.5q0 51 -28.5 94t-76.5 74.5t-110 59.5t-131 55t-137.5 56t-130.5 67t-110 82.5t-76.5 108.5t-28.5 140q0 79 29.5 147.5t80.5 118t118 85.5
t143 53.5t155 17.5q114 0 214.5 -33.5t178 -108t101.5 -179.5h-60q-31 122 -148.5 190t-256.5 68q-127 0 -214 -62.5t-87 -177.5q0 -69 46 -123t119.5 -90.5t162 -70.5t177.5 -73t162.5 -86.5t119.5 -122.5t46 -171q0 -134 -85 -235t-214 -150t-276 -49zM627 1604l-174 376
h20l254 -284l252 284h20l-172 -376q-20 -42 -59 -60.5t-79.5 -3.5t-61.5 64z" />
    <glyph glyph-name="scaron" unicode="&#x161;" horiz-adv-x="1083" 
d="M524 -20q-143 0 -263.5 53t-172.5 153h62q42 -70 143.5 -109.5t216.5 -39.5q74 0 135 17.5t101 56.5t40 94q0 44 -37.5 78t-98 58t-133.5 47t-146 52t-133.5 65.5t-98 94.5t-37.5 133q0 96 65 168.5t163 107.5t211 35q132 0 242.5 -51.5t160.5 -150.5h-61
q-34 69 -123.5 107t-192.5 38q-108 0 -181.5 -42t-72.5 -118q0 -43 38 -76.5t98 -57t132.5 -45.5t145 -50.5t132 -64.5t97 -94.5t37.5 -133.5q0 -103 -69 -178.5t-173.5 -111t-226.5 -35.5zM440 1214l-174 377h21l254 -284l252 284h20l-172 -377q-20 -42 -59 -60.5t-80 -3.5
t-62 64z" />
    <glyph glyph-name="uni0162" unicode="&#x162;" horiz-adv-x="1443" 
d="M571 0v1374h-139h-36q-45 0 -64 0.5t-47.5 -3t-36.5 -3t-26 -10t-20.5 -14t-15 -24t-15.5 -29.5t-16 -42q-14 -34 -22 -55h-65q9 24 24 66q46 131 82.5 153t210.5 21h59h555h58q55 0 78 0.5t57.5 -3.5t45 -5t31 -14t25 -20.5t19 -33.5t20 -43.5t20.5 -60.5q13 -38 21 -60
h-65q-8 19 -20 52q-15 39 -20.5 55t-22 35t-23.5 23t-39.5 10t-54.5 5.5t-83 -0.5h-36h-142v-1374h-118l-54 -76q58 -3 102.5 -21.5t68 -47t35 -58t11.5 -59.5q0 -71 -48.5 -119.5t-115.5 -61.5t-140.5 8t-119.5 75l17 24q72 -51 139 -51q47 0 75.5 27.5t31.5 68.5
q2 48 -37 88t-119 53l92 150h-117z" />
    <glyph glyph-name="uni0163" unicode="&#x163;" horiz-adv-x="716" 
d="M332 -440q47 0 75 27.5t31 68.5q2 48 -36.5 88t-118.5 53l112 183q-134 5 -205 88t-71 247v648h-125v61h125v242h291v-242h223v-61h-223v-725q0 -94 22 -139t92 -48q36 -3 82.5 12.5t77.5 40.5v-43q-80 -70 -225 -79l-76 -111q58 -3 102.5 -21.5t68 -47t35 -58
t11.5 -59.5q0 -71 -48.5 -119.5t-115.5 -62t-140.5 7.5t-119.5 75l17 25q72 -51 139 -51z" />
    <glyph glyph-name="Tcaron" unicode="&#x164;" horiz-adv-x="1443" 
d="M571 0v1374h-139h-36q-45 0 -64 0.5t-47.5 -3t-36.5 -3t-26 -10t-20.5 -14t-15 -24t-15.5 -29.5t-16 -42q-14 -34 -22 -55h-65q9 24 24 66q46 131 82.5 153t210.5 21h59h555h58q55 0 78 0.5t57.5 -3.5t45 -5t31 -14t25 -20.5t19 -33.5t20 -43.5t20.5 -60.5q13 -38 21 -60
h-65q-8 19 -20 52q-15 39 -20.5 55t-22 35t-23.5 23t-39.5 10t-54.5 5.5t-83 -0.5h-36h-142v-1374h-297zM610 1602l-174 376h21l254 -284l252 284h20l-172 -376q-20 -42 -59 -60.5t-80 -3.5t-62 64z" />
    <glyph glyph-name="tcaron" unicode="&#x165;" horiz-adv-x="716" 
d="M414 -20q-295 0 -295 335v648h-125v61h125v242h291v-242h223v-61h-223v-725q0 -94 22 -139t92 -48q36 -3 82.5 12.5t77.5 40.5v-43q-94 -81 -270 -81zM160 1430l-174 376h20l254 -284l252 284h20l-172 -376q-20 -42 -59 -60.5t-79.5 -3.5t-61.5 64z" />
    <glyph glyph-name="Tbar" unicode="&#x166;" horiz-adv-x="1443" 
d="M571 0v645h-190v64h190v665h-139h-36q-45 0 -64 0.5t-47.5 -3t-36.5 -3t-26 -10t-20.5 -14t-15 -24t-15.5 -29.5t-16 -42q-14 -34 -22 -55h-65q9 24 24 66q46 131 82.5 153t210.5 21h59h555h58q55 0 78 0.5t57.5 -3.5t45 -5t31 -14t25 -20.5t19 -33.5t20 -43.5
t20.5 -60.5q13 -38 21 -60h-65q-8 19 -20 52q-15 39 -20.5 55t-22 35t-23.5 23t-39.5 10t-54.5 5.5t-83 -0.5h-36h-142v-665h187v-64h-187v-645h-297z" />
    <glyph glyph-name="tbar" unicode="&#x167;" horiz-adv-x="716" 
d="M414 -20q-295 0 -295 335v338h-101v35h101v275h-125v61h125v242h291v-242h223v-61h-223v-275h110v-35h-110v-415q0 -94 22 -139t92 -48q36 -3 82.5 12.5t77.5 40.5v-43q-94 -81 -270 -81z" />
    <glyph glyph-name="Umacron" unicode="&#x16a;" horiz-adv-x="1472" 
d="M770 -23q-97 0 -183.5 18t-166 61.5t-137 108t-91.5 164.5t-34 226v633q0 203 -156 203v43h135q64 0 112 -7.5t81.5 -19t56.5 -34.5t36 -45.5t19.5 -61t8.5 -72t2 -86.5v-576q0 -131 30.5 -227t85.5 -149.5t121.5 -78.5t147.5 -24q190 -2 302.5 130.5t112.5 391.5v859h64
v-842q0 -312 -142.5 -463.5t-404.5 -151.5zM471 1593v82h686v-82h-686z" />
    <glyph glyph-name="umacron" unicode="&#x16b;" horiz-adv-x="1341" 
d="M545 -20q-165 0 -263 88.5t-98 277.5v432q0 36 -5.5 66.5t-21 64t-49 53t-81.5 19.5v43h135q55 0 98.5 -4.5t75.5 -16t55 -24.5t38 -36.5t24 -44.5t13.5 -57t5.5 -65.5t1 -77.5v-313q0 -58 3 -99t14 -84.5t30 -69.5t52.5 -43t80.5 -17q75 0 150.5 35t132.5 100v571
q0 27 -3 52t-13 53.5t-27 49t-46.5 34.5t-68.5 14v43h135q63 0 110.5 -7t81 -18.5t56 -34.5t35.5 -45t19.5 -61t8 -72.5t1.5 -87.5v-698h-279v150q-82 -82 -186.5 -126t-214.5 -44zM332 1182v82h686v-82h-686z" />
    <glyph glyph-name="Uring" unicode="&#x16e;" horiz-adv-x="1472" 
d="M770 -23q-97 0 -183.5 18t-166 61.5t-137 108t-91.5 164.5t-34 226v633q0 203 -156 203v43h135q64 0 112 -7.5t81.5 -19t56.5 -34.5t36 -45.5t19.5 -61t8.5 -72t2 -86.5v-576q0 -131 30.5 -227t85.5 -149.5t121.5 -78.5t147.5 -24q190 -2 302.5 130.5t112.5 391.5v859h64
v-842q0 -312 -142.5 -463.5t-404.5 -151.5zM825 1532q-91 0 -156 64.5t-65 156.5t65 156.5t156 64.5t157.5 -64.5t66.5 -156.5t-66.5 -156.5t-157.5 -64.5zM825 1595q65 0 111.5 46t46.5 112q0 64 -46.5 110t-111.5 46q-63 0 -109 -46t-46 -110q0 -66 46 -112t109 -46z" />
    <glyph glyph-name="uring" unicode="&#x16f;" horiz-adv-x="1341" 
d="M545 -20q-165 0 -263 88.5t-98 277.5v432q0 36 -5.5 66.5t-21 64t-49 53t-81.5 19.5v43h135q55 0 98.5 -4.5t75.5 -16t55 -24.5t38 -36.5t24 -44.5t13.5 -57t5.5 -65.5t1 -77.5v-313q0 -58 3 -99t14 -84.5t30 -69.5t52.5 -43t80.5 -17q75 0 150.5 35t132.5 100v571
q0 27 -3 52t-13 53.5t-27 49t-46.5 34.5t-68.5 14v43h135q63 0 110.5 -7t81 -18.5t56 -34.5t35.5 -45t19.5 -61t8 -72.5t1.5 -87.5v-698h-279v150q-82 -82 -186.5 -126t-214.5 -44zM686 1145q-91 0 -156 64.5t-65 156.5t65 156.5t156 64.5t157 -64.5t66 -156.5t-66 -156.5
t-157 -64.5zM686 1208q65 0 111.5 46t46.5 112q0 64 -46.5 110t-111.5 46q-63 0 -109.5 -46t-46.5 -110q0 -66 46 -112t110 -46z" />
    <glyph glyph-name="Uhungarumlaut" unicode="&#x170;" horiz-adv-x="1472" 
d="M770 -23q-97 0 -183.5 18t-166 61.5t-137 108t-91.5 164.5t-34 226v633q0 203 -156 203v43h135q64 0 112 -7.5t81.5 -19t56.5 -34.5t36 -45.5t19.5 -61t8.5 -72t2 -86.5v-576q0 -131 30.5 -227t85.5 -149.5t121.5 -78.5t147.5 -24q190 -2 302.5 130.5t112.5 391.5v859h64
v-842q0 -312 -142.5 -463.5t-404.5 -151.5zM1024 1911q25 66 88 68q52 3 86 -35q40 -45 5 -99q-8 -11 -19 -22l-285 -289h-18zM721 1911q26 66 89 68q53 2 87 -36q40 -46 3 -100q-7 -10 -17 -20l-285 -289h-20z" />
    <glyph glyph-name="uhungarumlaut" unicode="&#x171;" horiz-adv-x="1341" 
d="M545 -20q-165 0 -263 88.5t-98 277.5v432q0 36 -5.5 66.5t-21 64t-49 53t-81.5 19.5v43h135q55 0 98.5 -4.5t75.5 -16t55 -24.5t38 -36.5t24 -44.5t13.5 -57t5.5 -65.5t1 -77.5v-313q0 -58 3 -99t14 -84.5t30 -69.5t52.5 -43t80.5 -17q75 0 150.5 35t132.5 100v571
q0 27 -3 52t-13 53.5t-27 49t-46.5 34.5t-68.5 14v43h135q63 0 110.5 -7t81 -18.5t56 -34.5t35.5 -45t19.5 -61t8 -72.5t1.5 -87.5v-698h-279v150q-82 -82 -186.5 -126t-214.5 -44zM909 1532q25 66 88 68q52 3 86 -35q40 -45 5 -99q-8 -11 -19 -22l-285 -289h-18zM606 1532
q26 66 89 68q53 2 87 -36q40 -46 3 -100q-7 -10 -17 -20l-285 -289h-20z" />
    <glyph glyph-name="Uogonek" unicode="&#x172;" horiz-adv-x="1472" 
d="M1049 -371q-92 -106 -215 -124q-106 -16 -170 43q-76 70 -36 202q31 104 132 227q-96 1 -181 20t-163.5 62.5t-134.5 108t-89.5 164t-33.5 223.5v633q0 203 -156 203v43h135q64 0 112 -7.5t81.5 -19t56.5 -34.5t36 -45.5t19.5 -61t8.5 -72t2 -86.5v-576q0 -131 30.5 -227
t85.5 -149.5t121.5 -78.5t147.5 -24q190 -2 302.5 130.5t112.5 391.5v859h64v-842q0 -297 -130.5 -448.5t-371.5 -163.5q-88 -135 -43 -250q29 -77 103 -108q81 -34 151 13q5 3 10 7z" />
    <glyph glyph-name="uogonek" unicode="&#x173;" horiz-adv-x="1341" 
d="M545 -20q-165 0 -263 88.5t-98 277.5v432q0 36 -5.5 66.5t-21 64t-49 53t-81.5 19.5v43h135q55 0 98.5 -4.5t75.5 -16t55 -24.5t38 -36.5t24 -44.5t13.5 -57t5.5 -65.5t1 -77.5v-313q0 -58 3 -99t14 -84.5t30 -69.5t52.5 -43t80.5 -17q75 0 150.5 35t132.5 100v571
q0 27 -3 52t-13 53.5t-27 49t-46.5 34.5t-68.5 14v43h135q63 0 110.5 -7t81 -18.5t56 -34.5t35.5 -45t19.5 -61t8 -72.5t1.5 -87.5v-698h-105q-97 -137 -55 -256q27 -79 101 -112q80 -36 150 8q8 4 15 10l12 -12q-93 -106 -216 -124q-107 -16 -170 43q-75 71 -34 204
q33 109 144 239h-121v150q-82 -82 -186.5 -126t-214.5 -44z" />
    <glyph glyph-name="Wcircumflex" unicode="&#x174;" horiz-adv-x="2263" 
d="M860 0q-139 0 -216.5 52.5t-119.5 180.5l-315 916q-14 42 -25.5 69.5t-31 63.5t-40 57.5t-51 36.5t-65.5 15v43h194q136 0 204.5 -51.5t111.5 -180.5l325 -950l283 940q-36 93 -80.5 146t-118.5 53v43h195q136 0 202.5 -51t110.5 -181l330 -952l356 1184h66l-385 -1264
q70 -125 207 -125v-45h-217q-138 0 -215 52.5t-119 180.5l-297 859l-281 -922q67 -125 209 -125v-45h-217zM1090 1923q21 49 61.5 64t79.5 -3.5t59 -60.5l172 -377h-20l-252 285l-254 -285h-21z" />
    <glyph glyph-name="wcircumflex" unicode="&#x175;" horiz-adv-x="1873" 
d="M743 0q-134 2 -209 53t-114 178l-170 508q-17 50 -35 87.5t-45 75.5t-64.5 58.5t-82.5 20.5v43h206q133 -2 204 -54t108 -177l184 -543l209 547q-76 184 -207 184v43h207q134 -2 204.5 -53.5t108.5 -177.5l185 -541l292 772h68l-324 -852q31 -67 77 -98t114 -31v-43h-207
q-137 2 -211 52.5t-113 178.5l-165 471l-203 -538q27 -65 73 -93t119 -28v-43h-209zM893 1530q21 49 62 64t80 -3.5t59 -60.5l172 -377h-21l-252 285l-254 -285h-20z" />
    <glyph glyph-name="Ycircumflex" unicode="&#x176;" horiz-adv-x="1443" 
d="M571 0v602l-323 561q-5 8 -21.5 36.5t-23.5 40t-24 37t-28.5 37.5t-30 29.5t-35.5 26t-39 15t-46 6.5v43h256q52 0 91.5 -9.5t65 -22.5t52 -43.5t42 -55t44.5 -75.5q5 -9 8 -14l270 -473l445 693h74l-482 -752v-682h-295zM729 1915q21 49 62 64t80 -3.5t59 -60.5
l172 -377h-21l-252 285l-254 -285h-20z" />
    <glyph glyph-name="ycircumflex" unicode="&#x177;" horiz-adv-x="1232" 
d="M422 -512l205 475l-373 776q-54 118 -86 160q-61 82 -145 82v43h229q65 -1 109 -12.5t78.5 -42t58.5 -69t57 -107.5l221 -488l309 719h66l-662 -1536h-67zM610 1524q21 49 62 64t80 -3.5t59 -60.5l172 -377h-20l-252 285l-254 -285h-21z" />
    <glyph glyph-name="Ydieresis" unicode="&#x178;" horiz-adv-x="1443" 
d="M571 0v602l-323 561q-5 8 -21.5 36.5t-23.5 40t-24 37t-28.5 37.5t-30 29.5t-35.5 26t-39 15t-46 6.5v43h256q52 0 91.5 -9.5t65 -22.5t52 -43.5t42 -55t44.5 -75.5q5 -9 8 -14l270 -473l445 693h74l-482 -752v-682h-295zM676 1528q-59 0 -97 37.5t-38 97.5q0 58 38.5 97
t96.5 36q56 -2 94.5 -39.5t38.5 -93.5q0 -59 -38.5 -97t-94.5 -38zM1032 1528q-59 0 -98 38t-39 97q0 57 39 94t98 37q55 0 94 -37.5t39 -93.5q0 -59 -39 -97t-94 -38z" />
    <glyph glyph-name="Zacute" unicode="&#x179;" horiz-adv-x="1478" 
d="M158 0l790 1374h-456h-37h-75t-52.5 -3.5t-39.5 -6t-25.5 -14.5t-21 -22.5t-16 -35.5t-20.5 -48q-12 -32 -19 -50h-65q8 23 23 63q37 105 57 132q27 35 91 42q35 4 146 3h58h825l-793 -1375h428q162 0 194 5q52 9 78 48q16 25 61 140q11 27 20 49h65q-11 -28 -29 -76
q-48 -132 -71 -165q-32 -45 -93 -54q-39 -7 -169 -6h-64h-790zM752 1919q25 65 88 68q51 2 85 -36q40 -46 3 -100q-7 -10 -17 -20l-284 -289h-21z" />
    <glyph glyph-name="zacute" unicode="&#x17a;" horiz-adv-x="1239" 
d="M131 0l594 963h-252q-153 1 -183 -5q-43 -8 -63 -44q-8 -14 -47 -115q-2 -6 -4 -11h-67q8 22 22 61q46 132 82.5 154t210.5 21h59h625l-594 -963h258q149 -1 180 5q41 9 61 46q7 12 46 114l4 10h65q-7 -21 -20 -58q-46 -134 -82.5 -156.5t-210.5 -21.5h-59h-625z
M705 1522q25 65 88 68q51 2 85 -36q40 -46 3 -100q-7 -10 -17 -20l-284 -289h-21z" />
    <glyph glyph-name="Zdotaccent" unicode="&#x17b;" horiz-adv-x="1478" 
d="M158 0l790 1374h-456h-37h-75t-52.5 -3.5t-39.5 -6t-25.5 -14.5t-21 -22.5t-16 -35.5t-20.5 -48q-12 -32 -19 -50h-65q8 23 23 63q37 105 57 132q27 35 91 42q35 4 146 3h58h825l-793 -1375h428q162 0 194 5q52 9 78 48q16 25 61 140q11 27 20 49h65q-11 -28 -29 -76
q-48 -132 -71 -165q-32 -45 -93 -54q-39 -7 -169 -6h-64h-790zM666 1530q-59 0 -97.5 37.5t-38.5 95.5q0 57 38.5 94t97.5 37q56 0 94.5 -37.5t38.5 -93.5q0 -58 -38.5 -95.5t-94.5 -37.5z" />
    <glyph glyph-name="zdotaccent" unicode="&#x17c;" horiz-adv-x="1239" 
d="M131 0l594 963h-252q-153 1 -183 -5q-43 -8 -63 -44q-8 -14 -47 -115q-2 -6 -4 -11h-67q8 22 22 61q46 132 82.5 154t210.5 21h59h625l-594 -963h258q149 -1 180 5q41 9 61 46q7 12 46 114l4 10h65q-7 -21 -20 -58q-46 -134 -82.5 -156.5t-210.5 -21.5h-59h-625z
M627 1141q-59 0 -97 37.5t-38 95.5q0 57 38 94t97 37q56 0 94.5 -37.5t38.5 -93.5q0 -58 -38.5 -95.5t-94.5 -37.5z" />
    <glyph glyph-name="Zcaron" unicode="&#x17d;" horiz-adv-x="1478" 
d="M158 0l790 1374h-456h-37h-75t-52.5 -3.5t-39.5 -6t-25.5 -14.5t-21 -22.5t-16 -35.5t-20.5 -48q-12 -32 -19 -50h-65q8 23 23 63q37 105 57 132q27 35 91 42q35 4 146 3h58h825l-793 -1375h428q162 0 194 5q52 9 78 48q16 25 61 140q11 27 20 49h65q-11 -28 -29 -76
q-48 -132 -71 -165q-32 -45 -93 -54q-39 -7 -169 -6h-64h-790zM573 1614l-174 377h21l254 -285l252 285h20l-172 -377q-20 -42 -59 -60.5t-80 -3.5t-62 64z" />
    <glyph glyph-name="zcaron" unicode="&#x17e;" horiz-adv-x="1239" 
d="M131 0l594 963h-252q-153 1 -183 -5q-43 -8 -63 -44q-8 -14 -47 -115q-2 -6 -4 -11h-67q8 22 22 61q46 132 82.5 154t210.5 21h59h625l-594 -963h258q149 -1 180 5q41 9 61 46q7 12 46 114l4 10h65q-7 -21 -20 -58q-46 -134 -82.5 -156.5t-210.5 -21.5h-59h-625z
M528 1214l-174 377h21l254 -284l252 284h20l-172 -377q-20 -42 -59 -60.5t-80 -3.5t-62 64z" />
    <glyph glyph-name="florin" unicode="&#x192;" horiz-adv-x="960" 
d="M-301 -541q63 0 110.5 10t82.5 33t59 50t43 72.5t31 89.5t26 112l242 1137h-135v61h147l8 35q26 157 116.5 254t225 132t314.5 21l-8 -34q-40 0 -73 -3.5t-61 -12.5t-49.5 -18t-40.5 -26.5t-32.5 -32.5t-26.5 -41.5t-21.5 -46.5t-18 -55.5t-16 -61t-16.5 -69.5l-8 -41
h225v-61h-239l-238 -1131q-96 -450 -657 -407z" />
    <glyph glyph-name="uni0218" unicode="&#x218;" horiz-adv-x="1390" 
d="M680 -20q-95 0 -183 21t-162 61t-126.5 105.5t-71.5 147.5h60q20 -84 93 -146.5t169 -92t200 -29.5q142 0 240 64.5t98 183.5q0 51 -28.5 94t-76.5 74.5t-110 59.5t-131 55t-137.5 56t-130.5 67t-110 82.5t-76.5 108.5t-28.5 140q0 79 29.5 147.5t80.5 118t118 85.5
t143 53.5t155 17.5q114 0 214.5 -33.5t178 -108t101.5 -179.5h-60q-31 122 -148.5 190t-256.5 68q-127 0 -214 -62.5t-87 -177.5q0 -69 46 -123t119.5 -90.5t162 -70.5t177.5 -73t162.5 -86.5t119.5 -122.5t46 -171q0 -134 -85 -235t-214 -150t-276 -49zM639 -551
q47 68 47 145q0 30 -19.5 49.5t-43 30t-43 37.5t-19.5 70q0 54 36 87.5t83 33.5q56 0 88.5 -39t32.5 -99q0 -81 -44.5 -179t-92.5 -148z" />
    <glyph glyph-name="uni0219" unicode="&#x219;" horiz-adv-x="1083" 
d="M524 -20q-143 0 -263.5 53t-172.5 153h62q42 -70 143.5 -109.5t216.5 -39.5q74 0 135 17.5t101 56.5t40 94q0 44 -37.5 78t-98 58t-133.5 47t-146 52t-133.5 65.5t-98 94.5t-37.5 133q0 96 65 168.5t163 107.5t211 35q132 0 242.5 -51.5t160.5 -150.5h-61
q-34 69 -123.5 107t-192.5 38q-108 0 -181.5 -42t-72.5 -118q0 -43 38 -76.5t98 -57t132.5 -45.5t145 -50.5t132 -64.5t97 -94.5t37.5 -133.5q0 -103 -69 -178.5t-173.5 -111t-226.5 -35.5zM496 -545q47 68 47 146q0 25 -13 41.5t-31.5 27t-36.5 22.5t-31 36t-13 59
q0 54 36 87.5t83 33.5q56 0 88 -38.5t32 -98.5q0 -82 -44.5 -180t-92.5 -148z" />
    <glyph glyph-name="uni021A" unicode="&#x21a;" horiz-adv-x="1443" 
d="M571 0v1374h-139h-36q-45 0 -64 0.5t-47.5 -3t-36.5 -3t-26 -10t-20.5 -14t-15 -24t-15.5 -29.5t-16 -42q-14 -34 -22 -55h-65q9 24 24 66q46 131 82.5 153t210.5 21h59h555h58q55 0 78 0.5t57.5 -3.5t45 -5t31 -14t25 -20.5t19 -33.5t20 -43.5t20.5 -60.5q13 -38 21 -60
h-65q-8 19 -20 52q-15 39 -20.5 55t-22 35t-23.5 23t-39.5 10t-54.5 5.5t-83 -0.5h-36h-142v-1374h-297zM686 -526q47 68 47 145q0 25 -13 41.5t-31.5 27t-36.5 22.5t-31 36t-13 59q0 54 36 87.5t83 33.5q56 0 88.5 -38.5t32.5 -98.5q0 -82 -44.5 -180t-92.5 -148z" />
    <glyph glyph-name="uni021B" unicode="&#x21b;" horiz-adv-x="716" 
d="M414 -20q-295 0 -295 335v648h-125v61h125v242h291v-242h223v-61h-223v-725q0 -94 22 -139t92 -48q36 -3 82.5 12.5t77.5 40.5v-43q-94 -81 -270 -81zM279 -553q47 68 47 145q0 30 -19.5 49.5t-43 30t-43 37.5t-19.5 70q0 54 35.5 87.5t82.5 33.5q56 0 88.5 -39t32.5 -99
q0 -81 -44.5 -179t-92.5 -148z" />
    <glyph glyph-name="circumflex" unicode="&#x2c6;" horiz-adv-x="739" 
d="M297 1497q21 49 62 64t80 -3.5t59 -60.5l172 -377h-21l-252 285l-254 -285h-20z" />
    <glyph glyph-name="caron" unicode="&#x2c7;" horiz-adv-x="739" 
d="M297 1190l-174 377h20l254 -285l252 285h21l-172 -377q-20 -42 -59 -60.5t-80 -3.5t-62 64z" />
    <glyph glyph-name="breve" unicode="&#x2d8;" horiz-adv-x="837" 
d="M444 1128q-137 0 -226 82.5t-95 259.5h27q6 -87 90.5 -130.5t203.5 -43.5q77 0 140.5 17t107.5 57.5t49 99.5h27q-3 -91 -29.5 -159t-72 -107t-101 -57.5t-121.5 -18.5z" />
    <glyph glyph-name="dotaccent" unicode="&#x2d9;" horiz-adv-x="458" 
d="M258 1124q-59 0 -97 37.5t-38 95.5q0 57 38.5 94.5t96.5 37.5q56 0 94.5 -37.5t38.5 -94.5q0 -58 -38.5 -95.5t-94.5 -37.5z" />
    <glyph glyph-name="ring" unicode="&#x2da;" horiz-adv-x="634" 
d="M344 1110q-91 0 -156 64.5t-65 156.5t65 156.5t156 64.5t157 -64.5t66 -156.5t-66 -156.5t-157 -64.5zM344 1174q65 0 111.5 45.5t46.5 111.5q0 64 -46.5 110t-111.5 46q-63 0 -109.5 -46t-46.5 -110q0 -65 46 -111t110 -46z" />
    <glyph glyph-name="ogonek" unicode="&#x2db;" horiz-adv-x="624" 
d="M557 -340q-92 -106 -215 -124q-107 -16 -170 43q-76 71 -36 203q37 123 171 271l31 -24q-101 -137 -62 -258q27 -80 101 -115q79 -38 151 5q9 5 17 11z" />
    <glyph glyph-name="tilde" unicode="&#x2dc;" horiz-adv-x="919" 
d="M692 1133q-74 0 -228.5 51t-203.5 51q-53 0 -78.5 -17.5t-25.5 -60.5h-31q-5 73 5 124t33.5 77t51.5 36.5t66 10.5q72 0 227 -50t207 -50t78 17.5t26 59.5h31q8 -124 -37.5 -186.5t-120.5 -62.5z" />
    <glyph glyph-name="hungarumlaut" unicode="&#x2dd;" horiz-adv-x="833" 
d="M569 1497q25 66 88 68q52 3 86 -35q40 -45 5 -99q-8 -11 -19 -22l-285 -289h-18zM266 1497q26 66 89 68q53 2 87 -36q40 -46 3 -100q-7 -10 -17 -20l-285 -289h-20z" />
    <glyph glyph-name="gravecomb" unicode="&#x300;" 
d="M156 1409q-54 55 -22 108q25 40 77 47q63 8 96 -47q6 -9 10 -20l146 -377h-21z" />
    <glyph glyph-name="acutecomb" unicode="&#x301;" 
d="M268 1497q25 65 87 68q52 2 86 -36q40 -45 5 -99q-8 -11 -18 -21l-285 -289h-20z" />
    <glyph glyph-name="uni0302" unicode="&#x302;" 
d="M297 1497q21 49 62 64t80 -3.5t59 -60.5l172 -377h-21l-252 285l-254 -285h-20z" />
    <glyph glyph-name="tildecomb" unicode="&#x303;" 
d="M692 1133q-74 0 -228.5 51t-203.5 51q-53 0 -78.5 -17.5t-25.5 -60.5h-31q-5 73 5 124t33.5 77t51.5 36.5t66 10.5q72 0 227 -50t207 -50t78 17.5t26 59.5h31q8 -124 -37.5 -186.5t-120.5 -62.5z" />
    <glyph glyph-name="uni0304" unicode="&#x304;" 
d="M123 1182v82h686v-82h-686z" />
    <glyph glyph-name="uni0306" unicode="&#x306;" 
d="M444 1128q-137 0 -226 82.5t-95 259.5h27q6 -87 90.5 -130.5t203.5 -43.5q77 0 140.5 17t107.5 57.5t49 99.5h27q-3 -91 -29.5 -159t-72 -107t-101 -57.5t-121.5 -18.5z" />
    <glyph glyph-name="uni0307" unicode="&#x307;" 
d="M258 1124q-59 0 -97 37.5t-38 95.5q0 57 38.5 94.5t96.5 37.5q56 0 94.5 -37.5t38.5 -94.5q0 -58 -38.5 -95.5t-94.5 -37.5z" />
    <glyph glyph-name="uni0308" unicode="&#x308;" 
d="M258 1122q-59 0 -97 37.5t-38 97.5q0 58 38.5 97.5t96.5 36.5q56 -2 94.5 -40t38.5 -94q0 -59 -38.5 -97t-94.5 -38zM614 1122q-59 0 -98 38t-39 97q0 57 39 94.5t98 37.5q55 0 94.5 -38t39.5 -94q0 -59 -39.5 -97t-94.5 -38z" />
    <glyph glyph-name="uni030A" unicode="&#x30a;" 
d="M344 1110q-91 0 -156 64.5t-65 156.5t65 156.5t156 64.5t157 -64.5t66 -156.5t-66 -156.5t-157 -64.5zM344 1174q65 0 111.5 45.5t46.5 111.5q0 64 -46.5 110t-111.5 46q-63 0 -109.5 -46t-46.5 -110q0 -65 46 -111t110 -46z" />
    <glyph glyph-name="uni030B" unicode="&#x30b;" 
d="M569 1497q25 66 88 68q52 3 86 -35q40 -45 5 -99q-8 -11 -19 -22l-285 -289h-18zM266 1497q26 66 89 68q53 2 87 -36q40 -46 3 -100q-7 -10 -17 -20l-285 -289h-20z" />
    <glyph glyph-name="uni030C" unicode="&#x30c;" 
d="M297 1190l-174 377h20l254 -285l252 285h21l-172 -377q-20 -42 -59 -60.5t-80 -3.5t-62 64z" />
    <glyph glyph-name="uni0312" unicode="&#x312;" 
d="M246 1120q-57 0 -90 38t-33 99q0 82 44.5 178t94.5 146l25 -10q-21 -28 -35 -69t-14 -75q0 -25 13 -41.5t31 -27t36 -23t31 -36.5t13 -60q0 -54 -34.5 -86.5t-81.5 -32.5z" />
    <glyph glyph-name="uni0326" unicode="&#x326;" 
d="M201 -573q47 68 47 145q0 25 -13 41.5t-31 27t-36.5 22.5t-31.5 36t-13 59q0 54 36 87.5t83 33.5q56 0 88 -38.5t32 -98.5q0 -82 -44.5 -180t-92.5 -148z" />
    <glyph glyph-name="uni0327" unicode="&#x327;" 
d="M279 -408q47 0 75 28t31 69q2 48 -37 88t-119 53l125 201h64l-88 -127q58 -3 102.5 -22t68 -47.5t35 -58t11.5 -59.5q0 -71 -48.5 -119.5t-115.5 -61.5t-140.5 8t-119.5 75l16 25q73 -52 140 -52z" />
    <glyph glyph-name="uni0328" unicode="&#x328;" 
d="M557 -340q-92 -106 -215 -124q-107 -16 -170 43q-76 71 -36 203q37 123 171 271l31 -24q-101 -137 -62 -258q27 -80 101 -115q79 -38 151 5q9 5 17 11z" />
    <glyph glyph-name="uni0335" unicode="&#x335;" 
d="M123 569v64h674v-64h-674z" />
    <glyph glyph-name="uni0336" unicode="&#x336;" 
d="M123 569v64h770v-64h-770z" />
    <glyph glyph-name="uni0337" unicode="&#x337;" 
d="M123 -43l582 713h77l-583 -713h-76z" />
    <glyph glyph-name="uni0338" unicode="&#x338;" 
d="M123 -80l1014 1309h82l-1020 -1309h-76z" />
    <glyph glyph-name="uni03BC" unicode="&#x3bc;" horiz-adv-x="1359" 
d="M258 778q0 203 -156 203v43h134q55 0 98.5 -4.5t75.5 -16t55 -24.5t38 -36.5t24 -44.5t13.5 -57t5.5 -65.5t1 -77.5v-313q0 -58 3.5 -99.5t14.5 -84.5t30 -69t53 -43t81 -17q74 0 149 35t132 100v571q0 203 -156 203v43h133q55 0 98.5 -4.5t75.5 -16t55 -24.5t38 -36.5
t24 -44.5t13.5 -57t5.5 -65.5t1 -77.5v-698h-276v150q-75 -75 -169 -118.5t-191 -49.5q-70 -3 -115 20v-575h-289v1351z" />
    <glyph glyph-name="Wgrave" unicode="&#x1e80;" horiz-adv-x="2263" 
d="M860 0q-139 0 -216.5 52.5t-119.5 180.5l-315 916q-14 42 -25.5 69.5t-31 63.5t-40 57.5t-51 36.5t-65.5 15v43h194q136 0 204.5 -51.5t111.5 -180.5l325 -950l283 940q-36 93 -80.5 146t-118.5 53v43h195q136 0 202.5 -51t110.5 -181l330 -952l356 1184h66l-385 -1264
q70 -125 207 -125v-45h-217q-138 0 -215 52.5t-119 180.5l-297 859l-281 -922q67 -125 209 -125v-45h-217zM950 1825q-54 55 -22 107q25 41 77 48q63 8 97 -46q6 -10 10 -21l145 -377h-20z" />
    <glyph glyph-name="wgrave" unicode="&#x1e81;" horiz-adv-x="1873" 
d="M743 0q-134 2 -209 53t-114 178l-170 508q-17 50 -35 87.5t-45 75.5t-64.5 58.5t-82.5 20.5v43h206q133 -2 204 -54t108 -177l184 -543l209 547q-76 184 -207 184v43h207q134 -2 204.5 -53.5t108.5 -177.5l185 -541l292 772h68l-324 -852q31 -67 77 -98t114 -31v-43h-207
q-137 2 -211 52.5t-113 178.5l-165 471l-203 -538q27 -65 73 -93t119 -28v-43h-209zM778 1438q-54 55 -22 107q25 41 77 48q63 8 97 -46q6 -10 10 -21l145 -377h-20z" />
    <glyph glyph-name="Wacute" unicode="&#x1e82;" horiz-adv-x="2263" 
d="M860 0q-139 0 -216.5 52.5t-119.5 180.5l-315 916q-14 42 -25.5 69.5t-31 63.5t-40 57.5t-51 36.5t-65.5 15v43h194q136 0 204.5 -51.5t111.5 -180.5l325 -950l283 940q-36 93 -80.5 146t-118.5 53v43h195q136 0 202.5 -51t110.5 -181l330 -952l356 1184h66l-385 -1264
q70 -125 207 -125v-45h-217q-138 0 -215 52.5t-119 180.5l-297 859l-281 -922q67 -125 209 -125v-45h-217zM1202 1921q25 65 87 68q52 2 86 -36q40 -45 5 -99q-8 -11 -18 -21l-285 -289h-20z" />
    <glyph glyph-name="wacute" unicode="&#x1e83;" horiz-adv-x="1873" 
d="M743 0q-134 2 -209 53t-114 178l-170 508q-17 50 -35 87.5t-45 75.5t-64.5 58.5t-82.5 20.5v43h206q133 -2 204 -54t108 -177l184 -543l209 547q-76 184 -207 184v43h207q134 -2 204.5 -53.5t108.5 -177.5l185 -541l292 772h68l-324 -852q31 -67 77 -98t114 -31v-43h-207
q-137 2 -211 52.5t-113 178.5l-165 471l-203 -538q27 -65 73 -93t119 -28v-43h-209zM979 1520q25 65 87 68q52 2 86 -36q40 -45 5 -99q-8 -11 -18 -21l-285 -289h-20z" />
    <glyph glyph-name="Wdieresis" unicode="&#x1e84;" horiz-adv-x="2263" 
d="M860 0q-139 0 -216.5 52.5t-119.5 180.5l-315 916q-14 42 -25.5 69.5t-31 63.5t-40 57.5t-51 36.5t-65.5 15v43h194q136 0 204.5 -51.5t111.5 -180.5l325 -950l283 940q-36 93 -80.5 146t-118.5 53v43h195q136 0 202.5 -51t110.5 -181l330 -952l356 1184h66l-385 -1264
q70 -125 207 -125v-45h-217q-138 0 -215 52.5t-119 180.5l-297 859l-281 -922q67 -125 209 -125v-45h-217zM1016 1532q-59 0 -97 37.5t-38 97.5q0 58 38.5 97t96.5 36q56 -2 94.5 -39.5t38.5 -93.5q0 -59 -38.5 -97t-94.5 -38zM1372 1532q-59 0 -98 38t-39 97q0 57 39 94
t98 37q55 0 94 -37.5t39 -93.5q0 -59 -39 -97t-94 -38z" />
    <glyph glyph-name="wdieresis" unicode="&#x1e85;" horiz-adv-x="1873" 
d="M743 0q-134 2 -209 53t-114 178l-170 508q-17 50 -35 87.5t-45 75.5t-64.5 58.5t-82.5 20.5v43h206q133 -2 204 -54t108 -177l184 -543l209 547q-76 184 -207 184v43h207q134 -2 204.5 -53.5t108.5 -177.5l185 -541l292 772h68l-324 -852q31 -67 77 -98t114 -31v-43h-207
q-137 2 -211 52.5t-113 178.5l-165 471l-203 -538q27 -65 73 -93t119 -28v-43h-209zM815 1151q-59 0 -97 37.5t-38 97.5q0 58 38.5 97t96.5 36q56 -2 94.5 -39.5t38.5 -93.5q0 -59 -38.5 -97t-94.5 -38zM1171 1151q-59 0 -98 38t-39 97q0 57 39 94t98 37q55 0 94.5 -37.5
t39.5 -93.5q0 -59 -39.5 -97t-94.5 -38z" />
    <glyph glyph-name="Ygrave" unicode="&#x1ef2;" horiz-adv-x="1443" 
d="M571 0v602l-323 561q-5 8 -21.5 36.5t-23.5 40t-24 37t-28.5 37.5t-30 29.5t-35.5 26t-39 15t-46 6.5v43h256q52 0 91.5 -9.5t65 -22.5t52 -43.5t42 -55t44.5 -75.5q5 -9 8 -14l270 -473l445 693h74l-482 -752v-682h-295zM561 1823q-54 55 -22 107q25 41 77 48
q63 8 97 -46q6 -10 10 -21l145 -377h-20z" />
    <glyph glyph-name="ygrave" unicode="&#x1ef3;" horiz-adv-x="1232" 
d="M422 -512l205 475l-373 776q-54 118 -86 160q-61 82 -145 82v43h229q65 -1 109 -12.5t78.5 -42t58.5 -69t57 -107.5l221 -488l309 719h66l-662 -1536h-67zM469 1436q-54 55 -22 107q25 41 77 48q63 8 97 -46q6 -10 10 -21l145 -377h-20z" />
    <glyph glyph-name="endash" unicode="&#x2013;" horiz-adv-x="1144" 
d="M102 563v62h981v-62h-981z" />
    <glyph glyph-name="emdash" unicode="&#x2014;" horiz-adv-x="1861" 
d="M102 563v62h1698v-62h-1698z" />
    <glyph glyph-name="quoteleft" unicode="&#x2018;" horiz-adv-x="403" 
d="M223 1061q-56 0 -88.5 38.5t-32.5 98.5q0 81 44.5 177.5t93.5 146.5l26 -11q-20 -28 -33.5 -68t-13.5 -75q0 -25 12.5 -41.5t30.5 -27t36.5 -23t31 -36.5t12.5 -60q0 -54 -36 -86.5t-83 -32.5z" />
    <glyph glyph-name="quoteright" unicode="&#x2019;" horiz-adv-x="403" 
d="M178 1001q49 66 49 148q0 23 -13 39t-31.5 27t-36.5 23.5t-31 36.5t-13 60q0 53 35 86t82 33q57 0 90 -38t33 -99q0 -81 -45 -179t-94 -147z" />
    <glyph glyph-name="quotesinglbase" unicode="&#x201a;" horiz-adv-x="403" 
d="M178 -250q49 69 49 148q0 24 -13 40.5t-31.5 27t-36.5 23t-31 36.5t-13 59q0 53 35 86t82 33q57 0 90 -38t33 -99q0 -81 -45 -179t-94 -147z" />
    <glyph glyph-name="quotedblleft" unicode="&#x201c;" horiz-adv-x="710" 
d="M530 1061q-56 0 -88 38.5t-32 98.5q0 81 44.5 177.5t92.5 146.5l26 -11q-21 -29 -35 -69t-14 -74q0 -25 13 -41.5t31 -27t36.5 -23t31.5 -36.5t13 -60q0 -54 -36 -86.5t-83 -32.5zM223 1061q-56 0 -88.5 38.5t-32.5 98.5q0 81 44.5 177.5t93.5 146.5l26 -11
q-20 -28 -33.5 -68t-13.5 -75q0 -25 12.5 -41.5t30.5 -27t36.5 -23t31 -36.5t12.5 -60q0 -54 -36 -86.5t-83 -32.5z" />
    <glyph glyph-name="quotedblright" unicode="&#x201d;" horiz-adv-x="710" 
d="M485 1001q22 30 36 71t14 77q0 23 -13 39t-31.5 27t-36.5 23.5t-31 36.5t-13 60q0 53 34.5 86t81.5 33q56 0 89.5 -38t33.5 -99q0 -81 -45 -179t-94 -147zM178 1001q49 66 49 148q0 23 -13 39t-31.5 27t-36.5 23.5t-31 36.5t-13 60q0 53 35 86t82 33q57 0 90 -38t33 -99
q0 -81 -45 -179t-94 -147z" />
    <glyph glyph-name="quotedblbase" unicode="&#x201e;" horiz-adv-x="710" 
d="M485 -250q50 71 50 148q0 24 -13 40.5t-31.5 27t-36.5 23t-31 36.5t-13 59q0 53 34.5 86t81.5 33q56 0 89.5 -38t33.5 -99q0 -81 -45 -179t-94 -147zM178 -250q49 69 49 148q0 24 -13 40.5t-31.5 27t-36.5 23t-31 36.5t-13 59q0 53 35 86t82 33q57 0 90 -38t33 -99
q0 -81 -45 -179t-94 -147z" />
    <glyph glyph-name="dagger" unicode="&#x2020;" horiz-adv-x="659" 
d="M344 2l-49 932l47 237q-62 -3 -105.5 -22t-73.5 -36t-61 -17v174q31 0 61 -17t73.5 -36.5t105.5 -22.5q-3 62 -23.5 105.5t-38.5 73.5t-18 61h174q0 -31 -18 -60.5t-37.5 -73t-22.5 -106.5q62 3 105.5 22.5t73.5 36.5t61 17v-174q-31 0 -61 17t-73.5 36t-105.5 22
l50 -237l-52 -932h-12z" />
    <glyph glyph-name="daggerdbl" unicode="&#x2021;" horiz-adv-x="659" 
d="M262 -55q0 31 18 60.5t38.5 73t23.5 105.5q-62 -3 -105 -22t-73 -36t-62 -17v174q32 0 62 -17t73 -37t105 -24q-4 69 -18.5 112t-26.5 68.5t-12 56.5l55 250l-55 248q0 31 12 56.5t26.5 69t18.5 112.5q-62 -4 -105 -23.5t-73 -36t-62 -16.5v174q32 0 62 -17.5t73 -36.5
t105 -22q-3 62 -23.5 105t-38.5 72t-18 59h174q0 -30 -18 -59t-37.5 -72t-22.5 -105q62 3 105.5 22t73.5 36.5t61 17.5v-174q-31 0 -61 16.5t-73.5 36t-105.5 23.5q4 -69 19 -112.5t27 -69t12 -56.5l-60 -248l60 -250q0 -31 -12 -57t-27 -69t-19 -111q62 4 105.5 24t73.5 37
t61 17v-174q-31 0 -61 17t-73.5 36t-105.5 22q2 -50 14.5 -88.5t26.5 -57.5t25.5 -43.5t11.5 -49.5h-174z" />
    <glyph glyph-name="bullet" unicode="&#x2022;" horiz-adv-x="778" 
d="M412 377q-128 0 -219 91t-91 218q0 126 91.5 216.5t218.5 90.5q126 0 215.5 -90.5t89.5 -216.5q0 -128 -89.5 -218.5t-215.5 -90.5z" />
    <glyph glyph-name="ellipsis" unicode="&#x2026;" horiz-adv-x="1132" 
d="M952 -20q-51 0 -86 34t-35 86q0 50 35 84.5t86 34.5t85 -34.5t34 -84.5q0 -52 -34 -86t-85 -34zM223 -20q-51 0 -86 34t-35 86q0 50 35 84.5t86 34.5q48 0 83.5 -35t35.5 -84q0 -51 -35.5 -85.5t-83.5 -34.5zM590 -23q-51 0 -87 35.5t-36 87.5q0 49 36 83t87 34
q50 0 83.5 -33.5t33.5 -83.5q0 -52 -33.5 -87.5t-83.5 -35.5z" />
    <glyph glyph-name="perthousand" unicode="&#x2030;" horiz-adv-x="2109" 
d="M209 0l1016 1434h67l-1013 -1434h-70zM1024 -18q-140 0 -232 89.5t-92 219.5q0 129 92 218t232 89q138 0 230 -89t92 -218q0 -130 -92 -219.5t-230 -89.5zM1026 18q54 0 92.5 78.5t38.5 194.5t-38 194t-93 78t-93 -78t-38 -194t38.5 -194.5t92.5 -78.5zM426 838
q-140 0 -232 89.5t-92 219.5q0 129 92 218t232 89q138 0 230 -89t92 -218q0 -130 -92 -219.5t-230 -89.5zM428 874q55 0 93 78.5t38 194.5t-38 194t-93 78t-93 -78t-38 -194t38.5 -194.5t92.5 -78.5zM1726 -18q-138 0 -230.5 89.5t-92.5 219.5q0 129 92.5 218t230.5 89
q137 0 229.5 -89.5t92.5 -217.5q0 -130 -92.5 -219.5t-229.5 -89.5zM1729 18q53 0 92 79t39 194t-39 193.5t-92 78.5t-92.5 -78.5t-39.5 -193.5t39.5 -194t92.5 -79z" />
    <glyph glyph-name="guilsinglleft" unicode="&#x2039;" horiz-adv-x="827" 
d="M766 80l-664 465l664 465v-113l-496 -352l496 -352v-113z" />
    <glyph glyph-name="guilsinglright" unicode="&#x203a;" horiz-adv-x="827" 
d="M102 80v113l498 352l-498 352v113l664 -465z" />
    <glyph glyph-name="fraction" unicode="&#x2044;" horiz-adv-x="1460" 
d="M174 -240l1045 1694h77l-1044 -1694h-78z" />
    <glyph glyph-name="uni2070" unicode="&#x2070;" horiz-adv-x="1087" 
d="M571 545q-206 0 -337.5 145.5t-131.5 382.5q0 234 131.5 379t337.5 145t337.5 -145t131.5 -379q0 -237 -131.5 -382.5t-337.5 -145.5zM573 598q106 0 179 132t73 343q0 209 -73 340t-179 131q-107 0 -180.5 -130.5t-73.5 -340.5q0 -212 73.5 -343.5t180.5 -131.5z" />
    <glyph glyph-name="uni2074" unicode="&#x2074;" horiz-adv-x="849" 
d="M514 551v293h-412l506 747h121v-698h115l-23 -49h-92v-293h-215zM188 893h326v475z" />
    <glyph glyph-name="uni2075" unicode="&#x2075;" horiz-adv-x="905" 
d="M457 545q-129 0 -217.5 60t-114.5 165h25q25 -85 96.5 -130.5t161.5 -45.5q123 0 189.5 83.5t66.5 209.5q0 139 -71 219t-183 80q-119 0 -256 -113l59 512h592l-51 -141h-514l-35 -283q128 82 270 82q102 0 188 -38.5t140.5 -115.5t54.5 -178q0 -112 -55.5 -196.5
t-145.5 -127t-200 -42.5z" />
    <glyph glyph-name="uni2076" unicode="&#x2076;" horiz-adv-x="907" 
d="M485 543q-168 0 -277 134.5t-106 330.5q3 130 49 240t122.5 184.5t175 118t208.5 48.5v-16q-79 -10 -141 -50.5t-104 -105.5t-67.5 -146.5t-35.5 -180.5q35 68 92 107t117.5 45.5t123 -15t110.5 -66t78 -115.5t28 -155q-2 -150 -106.5 -254t-266.5 -104zM487 584
q87 0 133.5 82.5t49.5 226.5q1 84 -18.5 148.5t-51.5 99.5t-73 45.5t-82 -4.5t-79.5 -58t-64.5 -108v-29q-3 -176 47 -289.5t139 -113.5z" />
    <glyph glyph-name="uni2077" unicode="&#x2077;" horiz-adv-x="751" 
d="M170 561q46 217 148.5 429t271.5 454h-549l47 141h617q-149 -268 -219 -506.5t-85 -517.5h-231z" />
    <glyph glyph-name="uni2078" unicode="&#x2078;" horiz-adv-x="892" 
d="M461 539q-94 0 -174 25t-132.5 79t-52.5 129q0 168 222 311q-81 66 -126.5 129t-45.5 136q0 79 47.5 136.5t118.5 83t153 25.5q118 0 204.5 -56t86.5 -153q0 -143 -180 -260q49 -34 79 -56t69.5 -57t61.5 -64.5t38 -68.5t16 -79q0 -63 -33 -113.5t-88.5 -82t-123 -48
t-140.5 -16.5zM422 592q96 0 164.5 43.5t68.5 122.5q0 25 -13 51.5t-31.5 47.5t-52 49t-59.5 47t-70 50t-69 50q-80 -41 -144 -116t-64 -149q0 -92 81 -144t189 -52zM547 1149q166 101 166 225q0 78 -58 122t-135 44q-73 0 -126.5 -40t-53.5 -114q0 -32 15.5 -62.5t49 -62.5
t62.5 -54t80 -58z" />
    <glyph glyph-name="uni2079" unicode="&#x2079;" horiz-adv-x="907" 
d="M305 557q152 18 242.5 142t116.5 319q-42 -63 -102 -98.5t-122 -40t-124 17.5t-109.5 66t-76.5 113.5t-28 152.5q3 146 109 252t266 106q109 0 198.5 -64t137 -167.5t45.5 -222.5q-2 -130 -48 -242.5t-121.5 -190t-175 -123.5t-208.5 -51v31zM672 1143q2 174 -51.5 284.5
t-143.5 110.5q-88 0 -140.5 -81t-53.5 -220q-1 -80 18.5 -142t52 -96.5t75 -46.5t85.5 1.5t85.5 55.5t72.5 107v27z" />
    <glyph glyph-name="uni2080" unicode="&#x2080;" horiz-adv-x="1087" 
d="M571 -225q-206 0 -337.5 145.5t-131.5 382.5q0 234 131.5 379t337.5 145t337.5 -145t131.5 -379q0 -237 -131.5 -382.5t-337.5 -145.5zM573 -172q106 0 179 132t73 343q0 209 -73 340t-179 131q-107 0 -180.5 -130.5t-73.5 -340.5q0 -212 73.5 -343.5t180.5 -131.5z" />
    <glyph glyph-name="uni2081" unicode="&#x2081;" horiz-adv-x="585" 
d="M199 -221v827l-70 2v15l270 196h15v-1040h-215z" />
    <glyph glyph-name="uni2082" unicode="&#x2082;" horiz-adv-x="829" 
d="M113 -193q221 171 344 351t123 358q0 122 -66 188t-158 66t-157.5 -61t-65.5 -168h-29q-1 139 97 216t235 77q89 0 166.5 -33.5t129.5 -105.5t52 -169q0 -65 -31.5 -134t-75.5 -125t-116.5 -122.5t-126.5 -109t-135 -101.5h483l-49 -139h-620v12z" />
    <glyph glyph-name="uni2083" unicode="&#x2083;" horiz-adv-x="882" 
d="M442 -219q-128 0 -214 56t-117 157h24q23 -58 66.5 -96t90 -52t99.5 -14q121 0 190.5 81t69.5 191q0 95 -52.5 165t-149.5 93v11q63 32 97 90.5t34 132.5q0 87 -54.5 134.5t-132.5 47.5q-89 0 -156 -56.5t-67 -152.5h-23q1 86 46.5 147t112 88t145.5 27q124 0 208 -60.5
t84 -170.5q0 -72 -50 -128t-142 -77q99 -16 165 -60.5t93 -102t27 -128.5q0 -145 -111 -234t-283 -89z" />
    <glyph glyph-name="uni2084" unicode="&#x2084;" horiz-adv-x="849" 
d="M514 -201v293h-412l506 748h121v-701h115l-23 -47h-92v-293h-215zM188 139h326v477z" />
    <glyph glyph-name="uni2085" unicode="&#x2085;" horiz-adv-x="905" 
d="M457 -205q-130 0 -218 59t-114 164h25q25 -86 96 -131t162 -45q123 0 189.5 83.5t66.5 207.5q0 141 -71 221t-183 80q-120 0 -256 -112l59 514h592l-51 -146h-514l-35 -280q131 84 270 84q157 0 270 -92t113 -242q0 -113 -55.5 -197t-145.5 -126t-200 -42z" />
    <glyph glyph-name="uni2086" unicode="&#x2086;" horiz-adv-x="907" 
d="M485 -201q-111 0 -200 61.5t-137 167.5t-46 234q3 130 49 240t122.5 184.5t175.5 117.5t208 48v-16q-104 -13 -179 -80.5t-115 -168t-54 -233.5q35 68 92 106.5t117.5 45t123 -14.5t110.5 -64.5t78 -114t28 -154.5q-2 -151 -107 -255t-266 -104zM487 -160q87 0 133.5 83
t49.5 227q1 84 -18.5 148.5t-51.5 99t-73 45.5t-82 -4t-79.5 -58.5t-64.5 -108.5v-28q-3 -177 47 -290.5t139 -113.5z" />
    <glyph glyph-name="uni2087" unicode="&#x2087;" horiz-adv-x="751" 
d="M170 -184q46 216 148 426.5t272 453.5h-549l47 144h617q-149 -268 -219 -506.5t-85 -517.5h-231z" />
    <glyph glyph-name="uni2088" unicode="&#x2088;" horiz-adv-x="892" 
d="M461 -195q-94 0 -174 25t-132.5 78.5t-52.5 126.5q0 168 222 311q-172 139 -172 264q0 79 47.5 136.5t118.5 83.5t153 26q118 0 204.5 -56t86.5 -153q0 -138 -180 -258q49 -33 79 -55.5t69.5 -57.5t61.5 -65t38 -69.5t16 -80.5q0 -81 -57.5 -141t-143 -87.5t-184.5 -27.5
zM422 -143q96 0 164.5 43t68.5 120q0 30 -15 59.5t-51.5 63.5t-62.5 54.5t-84.5 62.5t-81.5 59q-82 -43 -145 -116.5t-63 -149.5q0 -93 81 -144.5t189 -51.5zM547 414q166 101 166 225q0 78 -58 123t-135 45q-73 0 -126.5 -41t-53.5 -115q0 -32 15.5 -62.5t49 -62.5
t62.5 -54t80 -58z" />
    <glyph glyph-name="uni2089" unicode="&#x2089;" horiz-adv-x="907" 
d="M305 -145q152 18 242.5 140.5t116.5 317.5q-42 -63 -102 -98.5t-122 -40t-124 17.5t-109.5 66t-76.5 114t-28 154q3 144 109 250.5t266 106.5q109 0 198 -63.5t137 -167.5t46 -224q-2 -129 -48 -241.5t-121.5 -189.5t-175 -123.5t-208.5 -51.5v33zM672 438
q2 175 -51.5 285.5t-143.5 110.5q-88 0 -140.5 -81.5t-53.5 -220.5q-1 -80 18.5 -142t52 -96.5t75 -46t85.5 2t85.5 55.5t72.5 107v26z" />
    <glyph glyph-name="Euro" unicode="&#x20ac;" horiz-adv-x="1757" 
d="M1090 -20q-108 1 -210 25.5t-193 74.5t-163 120.5t-122 168.5t-68 213h-232l27 61h201q-4 46 -4 76q0 27 4 67h-228l27 62h205q22 145 93 261.5t173.5 191t228 114.5t261.5 41q96 1 182 -16.5t166 -55.5t146.5 -105t111.5 -159h-58q-39 72 -97 126.5t-122 85t-128 45
t-126 12.5q-218 -3 -357.5 -145.5t-168.5 -395.5h328l-27 -62h-305q-2 -20 -2 -67q0 -53 2 -76h332l-27 -61h-299q29 -249 168 -389.5t356 -145.5q135 -2 266 63.5t207 204.5h58q-45 -92 -111 -158.5t-146.5 -104t-166.5 -55t-182 -17.5z" />
    <glyph glyph-name="trademark" unicode="&#x2122;" horiz-adv-x="1488" 
d="M735 1024v645h115l231 -536l242 536h104v-645h-104v522l-233 -522h-70l-236 539v-539h-49zM311 1024v598h-209v47h519v-47h-205v-598h-105z" />
    <glyph glyph-name="oneeighth" unicode="&#x215b;" horiz-adv-x="1949" 
d="M289 -205l1044 1802h78l-1044 -1802h-78zM1354 -242q98 0 166.5 43.5t68.5 122.5q0 30 -15.5 59t-50.5 61t-64 54.5t-83.5 61t-81.5 59.5q-81 -41 -145 -115.5t-64 -148.5q0 -92 81 -144.5t188 -52.5zM233 629v827l-69 2v15l270 196h15v-1040h-216zM1393 -295
q-94 0 -174 25t-132.5 79.5t-52.5 129.5q0 167 223 311q-83 67 -128.5 129t-45.5 135q0 79 48.5 136.5t120 83.5t153.5 26q76 0 140.5 -23t106.5 -71.5t42 -114.5q0 -142 -178 -260q50 -35 78.5 -56t69 -57t62 -65t38 -68.5t16.5 -79.5q0 -63 -33.5 -113.5t-89 -82
t-123.5 -48t-141 -16.5zM1479 315q168 102 168 226q0 78 -58.5 122t-136.5 44q-73 0 -126.5 -40.5t-53.5 -113.5q0 -32 15.5 -63t49 -62.5t62.5 -54.5t80 -58z" />
    <glyph glyph-name="threeeighths" unicode="&#x215c;" horiz-adv-x="2238" 
d="M588 -205l1044 1802h80l-1044 -1802h-80zM498 545q-130 0 -216.5 55.5t-115.5 157.5h24q33 -87 102.5 -125.5t153.5 -38.5q120 0 189.5 81.5t69.5 192.5q0 95 -52 164t-149 92v11q63 34 97 92t34 133q0 86 -55.5 133t-133.5 47q-88 0 -154.5 -56t-66.5 -153h-22
q0 86 45.5 147.5t112 89t143.5 27.5q125 0 210 -61t85 -172q0 -71 -50 -126.5t-143 -78.5q147 -23 216 -101.5t69 -187.5q0 -145 -110.5 -234t-282.5 -89zM1632 -242q97 0 166.5 43.5t69.5 122.5q0 30 -15.5 59t-50.5 61t-64 54.5t-83.5 61t-81.5 59.5q-81 -41 -145 -115.5
t-64 -148.5q0 -62 40.5 -108.5t100 -67.5t127.5 -21zM1673 -295q-94 0 -173.5 25t-132 79.5t-52.5 129.5q0 168 219 311q-81 67 -125.5 129t-44.5 135q0 117 94 181.5t223 64.5q120 0 206.5 -55.5t86.5 -153.5q0 -141 -180 -260q49 -33 79 -55.5t69.5 -57.5t61.5 -65t38 -69
t16 -79q0 -63 -33.5 -113.5t-89 -82t-123 -48t-139.5 -16.5zM1757 315q166 101 166 226q0 79 -57 122.5t-135 43.5q-73 0 -126 -40t-53 -114q0 -61 51.5 -114t153.5 -124z" />
    <glyph glyph-name="fiveeighths" unicode="&#x215d;" horiz-adv-x="2254" 
d="M606 -205l1045 1802h80l-1045 -1802h-80zM510 545q-129 0 -217.5 60t-114.5 165h25q25 -85 96.5 -130.5t161.5 -45.5q123 0 189.5 83.5t66.5 209.5q0 140 -70.5 219.5t-183.5 79.5q-120 0 -254 -113l57 512h592l-51 -141h-514l-33 -283q125 82 270 82q102 0 188 -38.5
t140.5 -115.5t54.5 -178q0 -167 -116.5 -266.5t-286.5 -99.5zM1655 -242q96 0 165.5 43.5t69.5 122.5q0 30 -15.5 59t-50.5 61t-64 54.5t-83.5 61t-81.5 59.5q-81 -41 -145 -115.5t-64 -148.5q0 -92 81 -144.5t188 -52.5zM1696 -295q-94 0 -174 25t-132.5 79.5t-52.5 129.5
q0 168 219 311q-81 65 -125.5 128t-44.5 136q0 117 94.5 181.5t223.5 64.5q120 0 206.5 -55.5t86.5 -153.5q0 -141 -180 -260q49 -33 79 -55.5t69.5 -57.5t61.5 -65t38 -69t16 -79q0 -63 -33.5 -113.5t-89 -82t-123 -48t-139.5 -16.5zM1780 315q166 101 166 226
q0 79 -57.5 122.5t-135.5 43.5q-73 0 -125.5 -40t-52.5 -114q0 -61 51.5 -114t153.5 -124z" />
    <glyph glyph-name="seveneighths" unicode="&#x215e;" horiz-adv-x="2058" 
d="M383 -205l1044 1802h78l-1044 -1802h-78zM1458 -242q96 0 165 43.5t69 122.5q0 30 -15.5 59t-50.5 61t-64 54.5t-83.5 61t-81.5 59.5q-80 -41 -144.5 -115.5t-64.5 -148.5q0 -92 81.5 -144.5t188.5 -52.5zM270 561q45 216 147 428t273 455h-551l49 141h617
q-149 -268 -218.5 -506t-84.5 -518h-232zM1497 -295q-94 0 -173.5 25t-132 79.5t-52.5 129.5q0 168 221 311q-82 66 -127 128.5t-45 135.5q0 79 47.5 136.5t118.5 83.5t153 26q118 0 204.5 -56t86.5 -153q0 -139 -178 -260q49 -34 78 -56t68.5 -57t61.5 -64.5t38 -69
t16 -79.5q0 -63 -33.5 -113.5t-89 -82t-123 -48t-139.5 -16.5zM1581 315q168 100 168 226q0 78 -58.5 122t-136.5 44q-73 0 -125.5 -40t-52.5 -114q0 -32 15 -62.5t49.5 -63t61.5 -54t79 -58.5z" />
    <glyph glyph-name="arrowleft" unicode="&#x2190;" horiz-adv-x="1466" 
d="M872 221l-768 416v20l768 416v-26l-507 -361l1040 -2l-2 -76l-1036 -2l505 -356v-29z" />
    <glyph glyph-name="arrowup" unicode="&#x2191;" horiz-adv-x="1017" 
d="M489 0v1036l-358 -504h-29l416 768h23l415 -768h-28l-359 504v-1036h-80z" />
    <glyph glyph-name="arrowright" unicode="&#x2192;" horiz-adv-x="1466" 
d="M635 213v29l506 358l-1037 2l-2 76l1039 2l-506 358v29l768 -418l2 -18z" />
    <glyph glyph-name="arrowdown" unicode="&#x2193;" horiz-adv-x="1017" 
d="M518 -14l-416 770h29l358 -506v1036h80v-1036l359 506h28l-415 -768z" />
    <glyph glyph-name="arrowboth" unicode="&#x2194;" horiz-adv-x="2101" 
d="M872 215l-770 416l2 18l768 418v-29l-507 -360h1413l-508 360v29l768 -418l2 -18l-770 -416v29l504 358h-1405l503 -358v-29z" />
    <glyph glyph-name="arrowupdn" unicode="&#x2195;" horiz-adv-x="1017" 
d="M518 -168l-416 768l29 2l358 -504v1405l-358 -504h-29l416 770l21 -2l417 -768h-28l-361 508v-1413l361 508h28l-417 -768z" />
    <glyph glyph-name="uni2196" unicode="&#x2196;" horiz-adv-x="1120" 
d="M1001 160l-731 733l103 -610l-21 -23l-250 840l17 12l837 -248l-20 -18l-610 102l733 -735z" />
    <glyph glyph-name="uni2197" unicode="&#x2197;" horiz-adv-x="1118" 
d="M158 162l-56 57l734 733l-611 -104l-20 20l837 250l15 -16l-248 -838l-21 21l103 610z" />
    <glyph glyph-name="uni2198" unicode="&#x2198;" horiz-adv-x="1118" 
d="M1042 174l-837 248l20 20l611 -104l-734 735l56 53l733 -731l-103 611l19 20l250 -840z" />
    <glyph glyph-name="uni2199" unicode="&#x2199;" horiz-adv-x="1116" 
d="M115 168l-13 16l250 838l17 -21l-103 -612l735 735l54 -57l-731 -731l608 102l22 -20z" />
    <glyph glyph-name="partialdiff" unicode="&#x2202;" horiz-adv-x="1222" 
d="M627 -20q-113 0 -211 40t-166 107.5t-107.5 159t-40.5 192.5q-2 119 41 218t112 161t157 91.5t174.5 20.5t166.5 -63t130 -149q-16 137 -53.5 251t-97.5 204.5t-148.5 146.5t-198.5 67v29q153 -8 291.5 -68.5t245 -164t171 -258t68.5 -336.5q4 -178 -63 -326.5
t-191.5 -235.5t-279.5 -87zM621 29q126 0 200.5 160.5t69.5 412.5v49q-37 91 -92.5 151t-114 80.5t-118 4.5t-105.5 -65t-74 -141t-27 -212q3 -205 70.5 -322.5t190.5 -117.5z" />
    <glyph glyph-name="emptyset" unicode="&#x2205;" horiz-adv-x="1206" 
d="M311 90q-97 72 -153 181t-56 237q0 218 152.5 370t370.5 152q151 0 280 -82l154 221h71l-174 -258q88 -72 138.5 -177t50.5 -226q0 -143 -69 -263t-189 -189.5t-262 -69.5q-137 0 -254 65l-142 -207h-86zM848 864q-103 64 -223 64q-173 0 -296.5 -123.5t-123.5 -296.5
q0 -101 44 -188.5t120 -147.5zM625 88q172 0 294.5 123.5t122.5 296.5q0 94 -38.5 176.5t-106.5 140.5l-469 -688q90 -49 197 -49z" />
    <glyph glyph-name="product" unicode="&#x220f;" horiz-adv-x="1703" 
d="M479 4v1591h-377v58h1540v-58h-378v-1591h-228v1591h-329v-1591h-228z" />
    <glyph glyph-name="summation" unicode="&#x2211;" horiz-adv-x="1200" 
d="M115 0v152l549 712l-549 709v153h942l82 -165h-938l549 -699l-549 -696h938l-82 -166h-942z" />
    <glyph glyph-name="minus" unicode="&#x2212;" horiz-adv-x="1060" 
d="M102 676v86h897v-86h-897z" />
    <glyph glyph-name="radical" unicode="&#x221a;" horiz-adv-x="1560" 
d="M371 -20l-269 782h254l205 -639l543 1575h395l-63 -189h-330l-533 -1529h-202z" />
    <glyph glyph-name="infinity" unicode="&#x221e;" horiz-adv-x="2056" 
d="M1581 436q-117 0 -241.5 68.5t-243.5 197.5q-88 -63 -142 -98.5t-134.5 -80t-155.5 -65t-150 -20.5q-99 0 -179.5 31.5t-130 84t-76 118t-26.5 135.5q0 73 27.5 140.5t80 121.5t137.5 86t190 31q113 -1 225.5 -65t234.5 -193q82 60 138 97t133 79t151.5 62.5t147.5 19.5
q102 -1 185 -34.5t135 -88.5t80 -123.5t28 -142.5q0 -70 -26 -133.5t-75.5 -115t-130.5 -82t-182 -30.5zM494 674q53 0 107.5 16t116.5 50.5t107 64.5t117 82q-217 231 -397 231q-148 0 -231 -70.5t-83 -164.5q0 -87 69.5 -148t193.5 -61zM1569 508q137 0 210.5 65.5
t73.5 157.5q0 91 -70 156t-194 65q-96 0 -199 -54t-243 -157q105 -113 215.5 -173t206.5 -60z" />
    <glyph glyph-name="integral" unicode="&#x222b;" horiz-adv-x="1120" 
d="M102 -217q179 -24 261 177q57 138 86 460q1 8 18 215q28 324 57 466q66 316 227 410q122 71 308 27v-22q-190 35 -274 -163q-56 -131 -83 -439q-4 -44 -10 -134q-8 -97 -12 -145q-31 -342 -74 -504q-79 -294 -260 -364q-103 -40 -244 -13v29z" />
    <glyph glyph-name="approxequal" unicode="&#x2248;" horiz-adv-x="1046" 
d="M102 961q25 22 51.5 37.5t49 25t53 11t48.5 2.5t52.5 -8t49 -12.5t53 -19.5t49 -21t51.5 -24q46 -20 71.5 -30t68 -23t72.5 -14t68 3t73 23t69 50v-95q-43 -38 -89.5 -56.5t-86.5 -20.5t-90 11t-86 27.5t-89 38.5q-19 9 -28 13q-50 22 -83.5 34.5t-80.5 22.5t-84 6.5
t-80 -22t-82 -54.5v95zM106 604q31 28 64 45t61 25t65.5 5.5t61.5 -6.5t65.5 -19t61.5 -23.5t64 -28.5q40 -18 62.5 -28t61 -23.5t64 -17.5t61 -6t63.5 6.5t61 25.5t63 45v-96q-36 -32 -72 -51t-75.5 -22.5t-70.5 -2t-76 17t-70.5 26t-75.5 33.5l-33 15q-60 27 -102.5 40.5
t-97.5 19.5t-106.5 -13t-99.5 -63v96z" />
    <glyph glyph-name="notequal" unicode="&#x2260;" horiz-adv-x="1060" 
d="M213 96l205 453h-316v86h353l84 186h-437v86h473l195 434h94l-194 -434h329v-86h-366l-82 -186h448v-86h-489l-201 -453h-96z" />
    <glyph glyph-name="lessequal" unicode="&#x2264;" horiz-adv-x="1073" 
d="M1012 291l-908 457l908 458v-102l-717 -356l717 -357v-100zM115 152v86h897v-86h-897z" />
    <glyph glyph-name="greaterequal" unicode="&#x2265;" horiz-adv-x="1073" 
d="M102 291v100l717 357l-717 356v102l908 -458zM102 152v86h895v-86h-895z" />
    <glyph glyph-name="lozenge" unicode="&#x25ca;" horiz-adv-x="997" 
d="M520 -12l-418 725l418 725l416 -727zM518 152l320 559l-320 561l-319 -559z" />
    <glyph glyph-name="uniE000" unicode="&#xe000;" horiz-adv-x="1486" 
d="M571 1292q-75 99 -178 99v43h191q140 0 224 -54t130 -182l326 -864q24 -66 39 -103t37.5 -78.5t44.5 -62t53.5 -34t70.5 -13.5v-43h-172q-140 0 -224.5 55t-129.5 183l-86 219h-573l-168 -457h-68zM348 516h526l-215 584q-27 77 -51 127z" />
    <glyph glyph-name="uniE001" unicode="&#xe001;" horiz-adv-x="1505" 
d="M158 1188q0 203 -156 203v43h135q64 0 112 -7.5t81.5 -19t56.5 -34.5t36 -45.5t19.5 -61t8.5 -72t2 -86.5v-332h598v658h299v-1188q0 -203 153 -203v-43h-133q-74 0 -127.5 8.5t-88.5 29t-55.5 44t-31 65t-13.5 79.5t-3 100v389h-598v-715h-295v1188z" />
    <glyph glyph-name="uniE002" unicode="&#xe002;" horiz-adv-x="1474" 
d="M1008 0l-537 688l789 746h86l-625 -588l651 -846h-364zM158 1188q0 203 -156 203v43h135q64 0 112 -7.5t81.5 -19t56.5 -34.5t36 -45.5t19.5 -61t8.5 -72t2 -86.5v-1108h-295v1188z" />
    <glyph glyph-name="uniE003" unicode="&#xe003;" horiz-adv-x="1925" 
d="M158 1309q-69 82 -156 82v43h217q132 0 202 -54t118 -178l385 -926l546 1158h297v-1434h-297v1288l-514 -1085q79 -158 215 -160v-43h-215q-134 0 -208 53.5t-121 177.5l-410 979v-1210h-59v1309z" />
    <glyph glyph-name="uniE004" unicode="&#xe004;" horiz-adv-x="1447" 
d="M1534 -315q-69 0 -117.5 5.5t-98.5 22t-92 48t-88 82t-96 124.5l-825 1241v-1208h-59v1315q-62 76 -156 76v43h162q147 0 226.5 -33t146.5 -137l696 -1039v1209h59v-1299l105 -160q38 -56 68 -94t68.5 -75.5t80 -56.5t84.5 -19h14v-45h-178z" />
    <glyph glyph-name="uniE005" unicode="&#xe005;" horiz-adv-x="1867" 
d="M1540 -539q-82 0 -149.5 26t-114.5 69t-86 95t-71.5 106.5t-63.5 100.5t-70.5 80.5t-83.5 43.5q-222 6 -395 98.5t-271 258.5t-98 380q0 219 103 387t283.5 258t410.5 90t411 -90t283.5 -258t102.5 -387q0 -153 -51.5 -284t-143.5 -225t-220 -152t-280 -72
q52 -26 109.5 -72.5t104.5 -90t98.5 -84.5t112 -66t124.5 -25q98 0 170 43t113 155h20q-42 -212 -124.5 -298.5t-223.5 -86.5zM940 39q225 0 357.5 180.5t132.5 499.5t-132.5 497.5t-357.5 178.5q-229 0 -363.5 -178.5t-134.5 -497.5t135 -499.5t363 -180.5z" />
    <glyph glyph-name="uniE006" unicode="&#xe006;" horiz-adv-x="1509" 
d="M158 1188q0 35 -6 66t-21 64.5t-48 53t-81 19.5v43h729q586 0 586 -381q0 -133 -82 -229t-266 -132l399 -692h-344l-385 670h-186v-670h-295v1188zM670 729q176 0 259 86.5t83 237.5q0 149 -83 235t-259 86h-283q43 -37 54.5 -98.5t11.5 -163.5v-383h217z" />
    <glyph glyph-name="uniE007" unicode="&#xe007;" horiz-adv-x="1382" 
d="M674 -23q-128 0 -243 36t-202.5 114.5t-111.5 187.5h59q20 -83 96.5 -146t175 -93.5t201.5 -30.5q93 0 168.5 27t124.5 86t49 143q0 62 -27 112t-72 84.5t-104 63.5t-124 54.5t-130 52.5t-124 63t-104 80t-72 109t-27 145q0 120 69.5 211t172.5 134.5t217 43.5
q73 0 139 -20t120.5 -58t89.5 -101t42 -142h-60q-13 121 -98 187t-194 66q-102 0 -172 -56t-70 -161q0 -56 27 -100.5t72 -75t104 -56t124 -49.5t130 -50.5t124 -64t104 -85t72 -118t27 -158.5q0 -84 -32 -155.5t-86.5 -122t-128 -86.5t-156 -53.5t-170.5 -17.5z" />
    <glyph glyph-name="uniE008" unicode="&#xe008;" horiz-adv-x="1492" 
d="M1077 -307q-172 0 -274 89.5t-185 305.5l-395 1061q-20 51 -37 87t-44.5 75t-64 59.5t-81.5 20.5v43h197q137 0 208 -51.5t117 -180.5l352 -936l467 1168h68l-504 -1254l29 -76q19 -49 31 -79t33 -73.5t39 -70.5t45 -57.5t55 -47.5t65.5 -28.5t79.5 -11.5h25v-43h-226z
" />
    <glyph glyph-name="uniE009" unicode="&#xe009;" horiz-adv-x="2285" 
d="M1022 -307q-173 0 -273 89t-176 306l-364 1061q-14 42 -25.5 69.5t-31 63.5t-40 57.5t-51 36.5t-65.5 15v43h194q136 0 203.5 -51t112.5 -181l325 -946l283 936q-36 93 -80.5 146t-118.5 53v43h195q136 0 202.5 -51t110.5 -181l330 -956l356 1188h66l-391 -1284l14 -37
q19 -53 29.5 -81.5t30.5 -73.5t36.5 -70.5t42.5 -57.5t52.5 -48.5t62.5 -29t78 -14.5l35 -2v-43h-226q-173 0 -272.5 89t-173.5 306l-344 1004l-285 -934l15 -47q21 -59 35 -94t37 -84t46.5 -78t55.5 -58t72.5 -43t88.5 -16l33 -2v-43h-225z" />
    <glyph glyph-name="uniE00A" unicode="&#xe00a;" horiz-adv-x="1478" 
d="M1436 -307q-107 0 -185.5 35.5t-140.5 104.5t-135 194l-320 538l-434 -565h-78l480 623l-322 544q-21 37 -36.5 61t-41.5 58t-50 54.5t-57 35.5t-67 15v43h246q54 0 97 -10.5t73 -26t59 -47t49 -61.5t50 -81l200 -340l434 566h78l-479 -621l447 -762q35 -58 59 -95
t60 -83.5t67 -73t71.5 -45t81.5 -18.5h29v-43h-235z" />
    <glyph glyph-name="uniE00B" unicode="&#xe00b;" horiz-adv-x="1486" 
d="M1491 -307q-175 0 -271.5 84.5t-179.5 300.5l-143 379h-573l-168 -457h-68l481 1292q-75 99 -176 99v43h217q121 0 201.5 -54t124.5 -178l385 -1036q72 -185 103 -242q72 -138 173 -173q41 -15 91 -15h28v-43h-225zM348 516h529l-228 606q-8 23 -41 101z" />
    <glyph glyph-name="uniE00C" unicode="&#xe00c;" horiz-adv-x="1529" 
d="M1853 -391q-420 -46 -632 120q-138 108 -225 340q-36 97 -108 365q-6 23 -11 41q-8 28 -12.5 42.5t-15 40.5t-20.5 40t-27.5 34.5t-37 31.5t-49 24t-64 19t-80.5 9t-100 1l782 717h86l-680 -621q97 8 175 -3.5t131.5 -37t94.5 -67.5t66 -88t45 -105q15 -45 36.5 -116.5
t37 -123t39 -120t45 -118.5t52.5 -108t63 -97.5t75.5 -78t92 -60t110 -32t131.5 -4.5v-45zM158 1188q0 203 -156 203v43h135q64 0 112 -7.5t81.5 -19t56.5 -34.5t36 -45.5t19.5 -61t8.5 -72t2 -86.5v-1108h-295v1188z" />
    <glyph glyph-name="uniE00D" unicode="&#xe00d;" horiz-adv-x="1925" 
d="M1178 -307q-172 0 -278.5 90.5t-201.5 302.5l-481 1122v-1208h-59v1309q-69 82 -156 82v43h203q134 0 208.5 -54.5t125.5 -177.5l397 -901l534 1133h297v-1434h-297v1288l-503 -1063l55 -131q5 -12 15 -35q20 -47 30.5 -71t31.5 -64.5t37 -62t41.5 -49.5t51.5 -42
t60.5 -24t74.5 -10h25v-43h-211z" />
    <glyph glyph-name="uniE00E" unicode="&#xe00e;" horiz-adv-x="1521" 
d="M158 1188q0 203 -156 203v43h135q178 0 247 -55.5t69 -182.5v-35q58 143 179 219t281 76q245 0 349 -138t104 -441v-877h-297v901q0 272 -53 375.5t-187 101.5q-66 1 -131.5 -31.5t-120.5 -93t-89.5 -160.5t-34.5 -221v-872h-295v1188z" />
    <glyph glyph-name="uniE00F" unicode="&#xe00f;" horiz-adv-x="1509" 
d="M1878 -397q-103 -11 -190.5 -12t-160 11t-131 27.5t-108 48.5t-87 62.5t-72 82t-58.5 94.5t-52 111.5t-46.5 121.5t-47.5 136q-3 10 -5 15q-27 80 -44.5 125t-46 100.5t-63.5 90t-80 53.5h-233v-670h-295v1188q0 35 -6 66t-21 64.5t-48 53t-81 19.5v43h700
q588 0 588 -381q0 -66 -19 -122.5t-60.5 -106.5t-114.5 -86.5t-172 -53.5q214 -18 338 -360q90 -249 134 -341q104 -216 245 -291q102 -54 237 -46v-43zM643 729q176 0 258 86.5t82 237.5q0 150 -82 235.5t-258 85.5h-256q43 -37 54.5 -98.5t11.5 -163.5v-383h190z" />
    <glyph glyph-name="uniE010" unicode="&#xe010;" horiz-adv-x="2271" 
d="M158 1188q0 203 -156 203v43h135q173 0 243.5 -51t70.5 -171v-30q55 132 163 203t250 71q174 0 273.5 -79t136.5 -247q51 157 164 241.5t268 84.5q232 0 333 -138.5t101 -440.5v-877h-297v899q0 181 -25 286t-72.5 148t-127.5 43q-59 -1 -115 -33t-103 -92t-75.5 -158.5
t-28.5 -220.5v-872h-295v899q0 181 -25.5 286.5t-73.5 148t-128 42.5q-59 -1 -114.5 -33t-102.5 -92t-75.5 -158.5t-28.5 -220.5v-872h-295v1188z" />
    <glyph glyph-name="uniE011" unicode="&#xe011;" horiz-adv-x="1363" 
d="M575 -20q-100 0 -188.5 36.5t-155 103.5t-105 168.5t-38.5 223.5t38.5 223.5t105 168.5t155 103.5t188.5 36.5q111 0 205.5 -48t151.5 -134v162h276v-778q0 -203 154 -203v-43h-125q-153 0 -220 35.5t-87 126.5q-60 -90 -153 -136t-202 -46zM668 66q87 0 153.5 63
t96.5 170v426q-29 109 -95.5 170t-154.5 61q-87 0 -151.5 -63t-96 -162.5t-31.5 -218.5q0 -121 31.5 -221t96 -162.5t151.5 -62.5z" />
    <glyph glyph-name="uniE012" unicode="&#xe012;" horiz-adv-x="1363" 
d="M575 -20q-99 0 -187 36.5t-155 103.5t-106 168.5t-39 223.5t39 223.5t106 168.5t155 103.5t187 36.5q105 0 196 -43.5t147 -119.5v360q0 203 -156 205v43h129q65 0 113 -7.5t82 -18.5t57 -34.5t36 -45.5t19.5 -61t8 -72t1.5 -87v-917q0 -203 154 -203v-43h-125
q-151 0 -218 35.5t-87 122.5q-54 -87 -148.5 -132.5t-208.5 -45.5zM668 66q87 0 153.5 63t96.5 170v426q-29 109 -95.5 170t-154.5 61q-87 0 -151.5 -63t-96 -162.5t-31.5 -218.5q0 -121 31.5 -221t96 -162.5t151.5 -62.5z" />
    <glyph glyph-name="uniE013" unicode="&#xe013;" horiz-adv-x="673" 
d="M129 0v963h-135v61h137v37q0 111 39.5 197.5t107.5 139.5t155.5 79t187.5 24q125 -3 209.5 -57.5t99.5 -151.5h-49q-13 70 -71 111t-134 41q-138 0 -199 -82t-61 -246v-92h243v-61h-239v-963h-291z" />
    <glyph glyph-name="uniE014" unicode="&#xe014;" horiz-adv-x="1325" 
d="M635 -573q-152 0 -282.5 64t-190.5 190h51q25 -52 69 -91.5t96 -61.5t103.5 -33t100.5 -11q336 0 336 403v256q-57 -74 -148.5 -118.5t-194.5 -44.5q-99 0 -187 36.5t-155 103.5t-106 168.5t-39 223.5t39 223.5t106 168.5t155 103.5t187 36.5q111 0 205.5 -48t151.5 -134
v162h276v-1102q0 -101 -32 -184t-87 -140t-128.5 -96t-155.5 -57t-170 -18zM668 66q87 0 153.5 63t96.5 170v426q-29 109 -95.5 170t-154.5 61q-87 0 -151.5 -63t-96 -162.5t-31.5 -218.5q0 -121 31.5 -221t96 -162.5t151.5 -62.5z" />
    <glyph glyph-name="uniE015" unicode="&#xe015;" horiz-adv-x="1382" 
d="M184 1241q0 36 -5.5 66.5t-21 64t-49 53.5t-81.5 21v43h129q65 0 113 -7.5t82 -18.5t57 -34.5t36 -45.5t19.5 -61t8 -72t1.5 -87v-276q165 157 391 157q79 0 142.5 -20t113.5 -62t77.5 -113.5t27.5 -168.5v-434q0 -203 155 -203v-43h-127q-65 0 -113 7t-82 18.5t-57 34.5
t-36 45t-19.5 61t-8 72t-1.5 88v313q0 59 -3.5 100.5t-14.5 84.5t-30 69t-53 42.5t-81 16.5q-75 0 -150.5 -34.5t-130.5 -98.5v-819h-289v1241z" />
    <glyph glyph-name="uniE016" unicode="&#xe016;" horiz-adv-x="1316" 
d="M895 0l-403 541l647 483h102l-483 -354l483 -670h-346zM184 1241q0 36 -5.5 66.5t-21 64t-49 53.5t-81.5 21v43h135q49 0 88.5 -4.5t70.5 -11.5t54 -20.5t39 -27.5t27 -37t17.5 -43.5t9.5 -53t4 -59.5t1 -69v-1163h-289v1241z" />
    <glyph glyph-name="uniE017" unicode="&#xe017;" horiz-adv-x="684" 
d="M496 0q-63 0 -110.5 7t-81 18.5t-56 34.5t-35.5 45t-19.5 61t-8 72.5t-1.5 87.5v915q0 36 -5.5 66.5t-21 64t-49 53.5t-81.5 21v43h135q49 0 88.5 -4.5t70.5 -11.5t54 -20.5t39 -27.5t27 -37t17.5 -43.5t9.5 -53t4 -59.5t1 -69v-917q0 -203 182 -203v-43h-159z" />
    <glyph glyph-name="uniE018" unicode="&#xe018;" horiz-adv-x="1961" 
d="M184 778q0 36 -5.5 66.5t-21 64t-49 53t-81.5 19.5v43h129q144 0 209.5 -31t87.5 -112q83 85 164.5 124t179.5 39q238 0 309 -180q157 180 356 180q161 0 252.5 -87t91.5 -277v-434q0 -203 156 -203v-43h-127q-57 0 -101.5 4.5t-77.5 16t-56 24.5t-38.5 36.5t-25 44.5
t-14 57t-5.5 65.5t-1 77.5v313q0 52 -1.5 85t-6 74t-15 66t-27.5 47.5t-44 32t-64 8.5q-119 0 -232 -143q15 -59 15 -129v-680h-291v639q0 50 -1.5 84.5t-6.5 74.5t-16 65.5t-28 48t-43.5 32t-62.5 8.5q-107 0 -219 -127v-825h-289v778z" />
    <glyph glyph-name="uniE019" unicode="&#xe019;" horiz-adv-x="1382" 
d="M184 778q0 36 -5.5 66.5t-21 64t-49 53t-81.5 19.5v43h129q149 0 215 -34t86 -120q174 174 407 174q79 0 142.5 -20t113.5 -62t77.5 -113.5t27.5 -168.5v-434q0 -203 155 -203v-43h-131q-56 0 -99.5 4.5t-75.5 16t-55 24.5t-38.5 36.5t-24.5 44.5t-13.5 57t-5.5 65.5
t-1 77.5v313q0 59 -3.5 100.5t-14.5 84.5t-30 69t-53 42.5t-81 16.5q-75 0 -150.5 -34.5t-130.5 -98.5v-819h-289v778z" />
    <glyph glyph-name="uniE01A" unicode="&#xe01a;" horiz-adv-x="716" 
d="M414 -20q-295 0 -295 335v648h-125v61h125v74q0 203 -156 205v40h127q82 0 138.5 -10.5t92 -30t55 -54.5t26.5 -75.5t8 -101.5v-47h223v-61h-223v-725q0 -94 22 -139t92 -48q36 -3 82.5 12.5t77.5 40.5v-43q-94 -81 -270 -81z" />
    <glyph glyph-name="uniE01B" unicode="&#xe01b;" horiz-adv-x="1382" 
d="M545 -20q-165 0 -263 88.5t-98 277.5v432q0 36 -5.5 66.5t-21 64t-49 53t-81.5 19.5v43h135q55 0 98.5 -4.5t75.5 -16t55 -24.5t38 -36.5t24 -44.5t13.5 -57t5.5 -65.5t1 -77.5v-313q0 -58 3 -99t14 -84.5t30 -69.5t52.5 -43t80.5 -17q75 0 150.5 35t132.5 100v571
q0 27 -3 52t-13 53.5t-27 49t-46.5 34.5t-68.5 14v43h135q63 0 110.5 -7t81 -18.5t56 -34.5t35.5 -45t19.5 -61t8 -72.5t1.5 -87.5v-452q0 -203 155 -203v-43h-127q-149 0 -215 34t-86 120q-168 -174 -407 -174z" />
    <glyph glyph-name="uniE01C" unicode="&#xe01c;" horiz-adv-x="1368" 
d="M1749 -403q-156 -3 -264.5 7.5t-207.5 39.5t-178.5 85.5t-154.5 140t-158 210.5l-188 299l-344 -379h-86l395 432l-237 354q-10 15 -31.5 47.5t-32 47.5t-31 38.5t-37.5 34t-43 19t-55 8.5v43h248q33 0 59 -2.5t49.5 -10t39.5 -13t35 -22.5t29.5 -26t30 -36t29 -41.5
t33.5 -51.5l121 -176l344 379h86l-393 -430l231 -358q15 -22 49.5 -75t57 -86t60.5 -86t70.5 -88.5t75.5 -79.5t86 -72.5t93 -55t105.5 -39t113.5 -12.5v-45z" />
    <glyph glyph-name="uniE01D" unicode="&#xe01d;" horiz-adv-x="1341" 
d="M659 -592q-150 0 -277.5 63.5t-188.5 188.5l49 2q33 -68 98.5 -114t132.5 -63t135 -17q328 0 328 401v268q-171 -157 -391 -157q-165 0 -263 88.5t-98 277.5v432q0 36 -5.5 66.5t-21 64t-49 53t-81.5 19.5v43h135q55 0 98.5 -4.5t75.5 -16t55 -24.5t38 -36.5t24 -44.5
t13.5 -57t5.5 -65.5t1 -77.5v-313q0 -58 3 -99t14 -84.5t30 -69.5t52.5 -43t80.5 -17q75 0 150.5 35t132.5 100v571q0 27 -3 52t-13 53.5t-27 49t-46.5 34.5t-68.5 14v43h135q63 0 110.5 -7t81 -18.5t56 -34.5t35.5 -45t19.5 -61t8 -72.5t1.5 -87.5v-794
q0 -125 -47.5 -222.5t-128.5 -156t-180 -88t-210 -29.5z" />
    <glyph glyph-name="uniE01E" unicode="&#xe01e;" horiz-adv-x="1224" 
d="M1749 -403q-156 -3 -264.5 7.5t-207.5 39.5t-178.5 85.5t-154.5 140t-158 210.5l-188 299l-344 -379h-86l395 432l-231 356q-15 22 -56 85t-65.5 99t-71 97t-82.5 98.5t-90 83.5t-104 71.5t-113.5 43t-128.5 16.5v45q129 2 223 -4t183.5 -25.5t158 -53.5t137 -89.5
t130.5 -130.5t131 -180l186 -299l344 379h86l-393 -430l231 -358q15 -22 56 -85t65.5 -99t71 -97t82.5 -98.5t90 -83.5t104 -71.5t113.5 -43t128.5 -16.5v-45z" />
    <glyph glyph-name="i.loclTRK" horiz-adv-x="583" 
d="M184 778q0 36 -5.5 66.5t-21 64t-49 53t-81.5 19.5v43h135q55 0 98.5 -4.5t75.5 -16t55 -24.5t38 -36.5t24 -44.5t13.5 -57t5.5 -65.5t1 -77.5v-698h-289v778zM262 1143q-66 0 -109.5 42.5t-43.5 108.5q0 64 43.5 106t109.5 42q62 0 106 -42t44 -106q0 -65 -44 -108
t-106 -43z" />
    <glyph glyph-name="zero.osf" horiz-adv-x="1196" 
d="M627 -20q-245 0 -385 145.5t-140 392.5q0 239 140.5 382.5t384.5 143.5q241 0 381.5 -144t140.5 -382q0 -247 -139.5 -392.5t-382.5 -145.5zM627 29q104 0 154 128t50 359q0 224 -50.5 351.5t-153.5 127.5q-105 0 -156 -127t-51 -352q0 -231 51 -359t156 -128z" />
    <glyph glyph-name="one.osf" horiz-adv-x="729" 
d="M272 0v827l-143 -118v63l291 258h145v-1030h-293z" />
    <glyph glyph-name="two.osf" horiz-adv-x="935" 
d="M145 18q184 143 307 330.5t123 343.5q0 113 -57 179.5t-153 66.5q-93 0 -157.5 -54.5t-64.5 -160.5h-39q-1 102 54 177t138 109.5t179 34.5q97 0 179 -35t136 -110.5t54 -179.5q0 -63 -29.5 -126.5t-74 -115.5t-110.5 -108t-125 -98.5t-131 -91.5q-9 -6 -14 -9h191
q71 0 109 0.5t73 5t48.5 7.5t29 16t21 23.5t18.5 35.5h37q-11 -27 -28 -73q-17 -42 -23.5 -60t-21 -44t-21.5 -34t-27.5 -21t-34.5 -15t-48 -6.5t-63 -4.5h-83h-392v18z" />
    <glyph glyph-name="three.osf" horiz-adv-x="1173" 
d="M575 -430q-180 0 -301 80t-163 223h34q44 -124 146 -184t213 -60q117 0 202.5 58t125.5 146t40 192q0 149 -87 253.5t-238 104.5h-45l354 444h-336h-120.5t-80 -5t-54 -8t-31 -17.5t-23 -26t-18.5 -39.5h-37q5 16 15 46q48 142 71 179q31 48 90 60q42 9 184 8h57h510
l-483 -598q114 5 206 -16.5t150.5 -60.5t97.5 -93t55.5 -110.5t16.5 -116.5q0 -135 -71.5 -240t-197 -162t-282.5 -57z" />
    <glyph glyph-name="four.osf" horiz-adv-x="1171" 
d="M711 -430v416h-609l736 1038h170v-981h166l-33 -57h-133v-416h-297zM221 43h490v696z" />
    <glyph glyph-name="five.osf" horiz-adv-x="1200" 
d="M588 -430q-181 0 -302 80t-161 223h33q31 -86 92.5 -142.5t130 -79t145.5 -22.5q87 0 157 34t113 92t66 132t23 158q0 200 -98.5 313t-262.5 113q-89 0 -174 -38.5t-184 -119.5l92 711h559q131 0 181.5 6.5t69 21t40.5 60.5h39q-8 -21 -21 -58q-47 -129 -71 -163
q-31 -45 -94 -55q-42 -7 -183 -7h-37h-450l-55 -401q169 121 380 121q142 2 264 -53.5t197.5 -164.5t75.5 -249q0 -159 -78.5 -277t-205 -176.5t-281.5 -58.5z" />
    <glyph glyph-name="six.osf" horiz-adv-x="1210" 
d="M639 -20q-155 0 -280 87t-192.5 235.5t-64.5 326.5q4 182 68.5 336.5t171 258t245 164t292.5 68.5v-29q-110 -11 -198.5 -67t-148.5 -146.5t-97.5 -204.5t-53.5 -251q58 105 149 159t193 54q83 0 161.5 -34.5t141 -96.5t99.5 -156.5t36 -204.5q-1 -101 -40.5 -192.5
t-106.5 -159t-165 -107.5t-210 -40zM643 29q124 0 190.5 117.5t69.5 322.5q3 202 -71.5 314t-182.5 112q-79 0 -153.5 -63t-122.5 -181v-49q-2 -166 30 -295.5t94.5 -203.5t145.5 -74z" />
    <glyph glyph-name="seven.osf" horiz-adv-x="1044" 
d="M285 -410l551 1237h-463h-81.5t-61.5 -2.5t-46 -3.5t-32 -7.5t-23.5 -10t-16.5 -15.5t-14 -20t-14 -27h-39q8 21 22 58q47 129 71 163q32 45 95 55q42 7 181 7h37h546l-639 -1434h-73z" />
    <glyph glyph-name="eight.osf" horiz-adv-x="1191" 
d="M604 -18q-138 0 -251.5 38.5t-182 113.5t-68.5 175q0 241 310 434q-116 95 -179 182.5t-63 190.5q0 82 39 148t103 106.5t142.5 62t161.5 21.5q170 0 291 -82t121 -215q0 -95 -66.5 -189t-187.5 -171q161 -114 222 -171q149 -139 149 -284q0 -87 -46.5 -157.5
t-124.5 -113.5t-173 -66t-197 -23zM545 49q87 -1 163 24.5t126.5 80.5t50.5 129q0 35 -19.5 73t-46 68.5t-75 71t-86 68t-101 72.5t-98.5 71q-119 -60 -204 -167t-85 -208q0 -129 107.5 -206t267.5 -77zM727 827q238 149 238 316q0 109 -84 176t-197 67q-65 0 -122 -23.5
t-95.5 -74.5t-38.5 -121q0 -32 10 -62t35 -61.5t45 -53.5t64.5 -56.5t67 -51t77.5 -55.5z" />
    <glyph glyph-name="nine.osf" horiz-adv-x="1210" 
d="M385 -403q110 11 198.5 67t148.5 146.5t97.5 205.5t53.5 252q-56 -106 -147 -160.5t-195 -54.5q-82 0 -161 34.5t-141.5 96.5t-100 156.5t-36.5 204.5q1 102 40.5 194t107.5 160t166 108t211 40q156 0 280 -84t191 -230t63 -325q-3 -146 -45 -276t-115 -229
t-169.5 -172.5t-210.5 -114.5t-236 -48v29zM616 131q80 0 153.5 62t121.5 180v51q5 251 -70.5 412t-202.5 161q-122 0 -188.5 -118t-69.5 -322q-3 -202 72 -314t184 -112z" />
    </font>
</defs>
</svg>
