<?xml version="1.0" standalone="no"?>
<!DOCTYPE svg PUBLIC "-//W3C//DTD SVG 1.1//EN" "http://www.w3.org/Graphics/SVG/1.1/DTD/svg11.dtd" >
<svg>
<metadata>
Created by FontForge 20110222 at Tue Jul 10 21:33:33 2012
 By www-data
Donationware through PayPal: turoturom@yahoo.es
</metadata>
<defs>
<font id="OzsWizard-CowardlyLion" horiz-adv-x="500" >
  <font-face 
    font-family="Oz'sWizard"
    font-weight="400"
    font-stretch="normal"
    units-per-em="1000"
    panose-1="0 0 0 0 0 0 0 0 0 0"
    ascent="683"
    descent="-317"
    x-height="498"
    cap-height="673"
    bbox="-397 -690.091 3837.13 898.375"
    underline-thickness="50"
    underline-position="-50"
    unicode-range="U+0020-2122"
  />
    <missing-glyph />
    <glyph glyph-name="space" unicode=" " horiz-adv-x="346" 
 />
    <glyph glyph-name="exclam" unicode="!" horiz-adv-x="184" 
d="M148 517q-9 -45 -16 -78.5t-12.5 -71t-8 -86.5t-2.5 -125q0 -8 -6.5 -13t-14.5 -6.5t-15 3t-7 16.5q-2 61 -3.5 104.5t-4 75t-5 54t-5.5 42t-7 39t-9 44.5q-7 36 -10 72t2.5 64.5t22 46.5t48.5 18t47.5 -15t19.5 -42t-1 -63.5t-13 -78.5zM144 42q0 -8 -2.5 -17.5
t-9 -17.5t-17.5 -13.5t-28 -5.5q-25 0 -40.5 16.5t-15.5 39.5q0 19 15 36t41 17t41.5 -14.5t15.5 -40.5z" />
    <glyph glyph-name="quotedbl" unicode="&#x22;" horiz-adv-x="287" 
d="M262 686q-7 -20 -13.5 -33.5t-11.5 -23t-7.5 -17t-1.5 -16.5q0 -10 -5.5 -14.5t-12 -4t-12.5 5.5t-7 16q-2 23 -5 33.5t-7 16.5t-9 12t-11 20q-6 16 -4 30t10.5 24.5t21 16.5t26.5 5q10 0 21 -5t19 -14t11.5 -22.5t-2.5 -29.5zM129 692q-2 -16 -6.5 -27t-9 -20t-9 -17.5
t-6.5 -19.5q-4 -19 -11 -25t-14 -4t-11.5 10.5t-3.5 19.5q1 10 -4.5 20t-13 20.5t-13.5 21t-6 21.5q-1 22 11.5 43t38.5 21t44 -14.5t14 -49.5z" />
    <glyph glyph-name="numbersign" unicode="#" horiz-adv-x="1960" 
d="M1930 335q3 -19 -1.5 -27.5t-16 -11t-28.5 -2t-38 -0.5q-12 -1 -37.5 -1h-57.5h-67.5t-68.5 0.5t-60.5 1.5t-42.5 2q-12 -57 1 -103.5t43 -79t72 -49.5t87.5 -15t90.5 24.5t81 69.5q11 15 16.5 26t13.5 3q4 -3 7.5 -12.5t-2.5 -23.5q-21 -50 -52 -80t-66 -46.5t-71.5 -22
t-68.5 -6.5q-62 -2 -113.5 14.5t-90 49t-61 80.5t-26.5 109q-3 60 19 110.5t61.5 87t93.5 57t114 19.5q47 -1 92 -11t81.5 -31t62 -53.5t33.5 -78.5zM1819 -36q8 2 5 -7.5t-15 -23.5q-103 -126 -271 -117q-63 4 -136.5 34.5t-136.5 91.5q-47 46 -81 103t-60.5 113
t-47.5 106.5t-41 83.5q-25 41 -51 71.5t-56 44.5t-66.5 9.5t-81.5 -33.5v-356q0 -15 7.5 -24.5t16.5 -16.5t16.5 -13t7.5 -12q0 -13 -6.5 -15t-32.5 -2h-170q-7 0 -10 4t-3 9.5t3 10t9 5.5q11 1 22 16t11 57v470v15t-1.5 15t-4.5 11t-9 3q-29 -8 -61.5 -10t-55.5 -2
q-11 0 -17 -2t-8.5 -6t-2.5 -10.5v-14.5v-37.5v-77t0.5 -98t0.5 -100.5v-84.5v-49.5q0 -38 8 -53.5t18 -20.5q5 -2 9 -3.5t6.5 -4.5t3.5 -9t1 -17t-5 -14.5t-13.5 -4t-20.5 1t-25 1.5q-38 -1 -70.5 0t-57.5 0q-27 -1 -35 0t-10 12q-2 12 -2 25.5t12 18.5q4 2 11 4t14 7.5
t11.5 17.5t4.5 34v438q0 19 -5 28t-20 12.5t-42 3.5h-71q-29 0 -50 -8.5t-36 -20.5t-24.5 -24t-14.5 -18t-9.5 -12t-9.5 -10.5t-10.5 -5.5t-12.5 3q-18 8 -21.5 19t10.5 31q16 23 28 55t20 61q3 11 8.5 13t13 -0.5t16.5 -7t18 -5.5q105 -15 199.5 -13t173 11t139 20.5
t97.5 15.5t49 -4t-6 -37q-7 -11 -9.5 -16.5t-2.5 -20.5v-128q26 13 69.5 24.5t106.5 11.5q103 0 182.5 -69t123.5 -192q37 -105 86.5 -179t116 -114.5t154 -45.5t200.5 28zM1798 347q-8 31 -27 60q-15 22 -42 41t-70 18q-30 -1 -53 -11.5t-40 -27.5t-28 -38.5t-17 -45.5z
" />
    <glyph glyph-name="dollar" unicode="$" horiz-adv-x="364" 
d="M329 518q6 -1 10.5 -7t4.5 -13t-6 -14t-21 -10q-14 -3 -34.5 -4t-40.5 -1.5t-37.5 0t-26.5 0.5q-8 -1 -13 2t-5 7.5t5 9t16 5.5q7 0 27 0.5t41.5 1.5t39.5 2.5t22 3.5q8 3 9 10.5t9 6.5zM173 525q6 0 3 -6.5t-14 -8.5q-8 -2 -18.5 -12t-16.5 -21t-11.5 -12t-13.5 4
q-9 5 -16 6t-13 3q-3 1 -3 5t0.5 8.5t0.5 8.5t-3 5q-6 3 -5 13t8 16q4 3 7.5 9.5t7 13.5t7 13t7.5 7q8 3 12.5 -4t8.5 -21q2 -7 9 -12t15.5 -8.5t16.5 -5t11 -1.5zM52 432q-9 -1 -12 4t-2 12t5 12.5t9 5.5q8 0 12.5 -5t4.5 -11t-4 -11.5t-13 -6.5zM108 311q1 -6 -2 -9.5
t-8 -5t-11 -2.5t-12 -3q-11 -4 -16.5 -8t-14.5 -4q-8 0 -11 12t-3 29q0 16 2 28.5t16 10.5q7 -1 10.5 -6.5t5.5 -11.5t4.5 -10.5t7.5 -4.5q11 1 20.5 -1t11.5 -14zM202 320q-6 -8 -22.5 -24t-37 -37.5t-42 -47t-37.5 -50.5q-16 -26 -21.5 -51t-1.5 -46t16 -34.5t32 -15.5
t33 5.5t21.5 19.5t12.5 25.5t6 23.5q1 11 -5.5 18.5t-16.5 9.5t-20.5 -1.5t-17.5 -13.5q-15 -21 -7.5 -27t17.5 0q5 3 10 5.5t8 1.5t2.5 -5.5t-6.5 -15.5t-15 -13.5t-17 1t-15 12t-8 19.5q-2 13 3.5 25t14.5 21t19 15t18 7q18 2 34.5 -9.5t21.5 -50.5q3 -20 -5 -38
t-21.5 -31t-29 -20.5t-26.5 -7.5t-25 3.5t-26 13.5t-20 28t-8 47q0 28 12 58t28.5 56t33 45.5t26.5 28.5q20 18 24 25t-1 14q-3 3 -4.5 8t-3 9.5t-5 7.5t-12.5 2q-10 -2 -13 1t-4 16q-2 13 -3 22t-8 9t-13 3.5t-7 19.5q-1 15 7.5 24t16.5 6q4 -1 6 -5.5t2.5 -10.5t0 -12
t-0.5 -9q0 -14 7.5 -5.5t10.5 21.5q3 12 10.5 12t12.5 -7q2 -3 3 -11.5t1 -18t-1 -19.5t-2 -17t1 -8.5t5 1.5t6.5 10t4.5 17q1 11 6.5 15.5t16.5 -9.5q5 -7 11 -14.5t9.5 -15.5t3.5 -16t-6 -15z" />
    <glyph glyph-name="percent" unicode="%" horiz-adv-x="535" 
d="M1559 673q13 -8 9 -13t-23 3q-9 4 -32.5 9t-72 8.5t-126.5 5.5t-196 0q-113 -2 -195.5 -6.5t-144.5 -9.5t-108 -10t-86 -8q-42 -3 -75 -5.5t-58 -4.5l-52 -4q-1 -1 -1 -5v-20q0 -6 -0.5 -43.5t-1 -92t-1.5 -118t-1.5 -120t-0.5 -98.5v-53q2 -34 12 -45t18 -14q8 -2 10 -4
t4 -7q4 -10 -8 -15q-5 -2 -18 -1.5t-34 0.5q-13 0 -32.5 -0.5t-38.5 -1.5t-34 -1t-19 1q-9 2 -9 8.5t2 14.5q3 8 6 8t13 2t17.5 8t7.5 15q0 5 0.5 25t1.5 45.5t1.5 50t0.5 38.5q0 7 -0.5 29t-1 53t-1 68t-1.5 75l-3 196h-36.5t-34.5 -1q-28 -1 -53.5 -1.5t-33.5 0.5
q-17 2 -28 0t-18 -4q-4 -1 -13.5 -6.5t-20 -11.5t-20 -11.5t-13.5 -7.5q-8 -4 -9 3t4 15l34 50q9 13 12.5 19t7.5 14q4 7 9.5 2.5t11.5 -12.5q5 -7 6.5 -10t14.5 -4h29.5h56t70 0.5t73.5 2.5q36 1 70 3t75 6t93 11t123 18q73 12 137.5 19t123.5 11.5t114 7t110 4.5
q56 2 118.5 -8t116.5 -24t93.5 -28t48.5 -20z" />
    <glyph glyph-name="ampersand" unicode="&#x26;" horiz-adv-x="630" 
d="M252 515q3 -8 9 -12.5t20 -4.5q37 -2 55.5 17t22.5 50q3 19 -4.5 35.5t-21 29.5t-32 21t-37.5 9q-24 1 -49 -5t-45.5 -20.5t-34 -36t-13.5 -50.5t14.5 -53.5t33 -43t35.5 -29.5t22 -12q14 -4 16 -12t-6 -13q-3 -3 -7 -3h-9q-5 -1 -10.5 -1t-13.5 -2q-40 -8 -68.5 -26
t-46.5 -42t-26 -52t-6 -55q1 -21 10 -51.5t29 -58t51.5 -47.5t78.5 -20q70 0 112.5 21.5t65.5 51.5t30.5 61t7.5 50q0 18 -3.5 42t-16.5 45.5t-38.5 36.5t-68.5 16q-48 1 -74.5 -14.5t-39 -37.5t-14.5 -44t0 -33q3 -20 12.5 -20.5t14.5 1.5q11 4 21 -5.5t13 -18.5
q5 -17 -6.5 -30.5t-27.5 -14.5q-10 -1 -22.5 2t-23.5 12.5t-18.5 27.5t-7.5 48t10.5 57.5t32 49t53.5 34t75 12.5q40 0 68.5 -12t48.5 -32.5t31.5 -47.5t17.5 -57q6 -29 14.5 -55t17.5 -46.5t17.5 -34.5t14.5 -18q11 -8 14.5 -5.5t5.5 7.5q4 11 13 13.5t20 -0.5
q6 -2 13.5 -9.5t12.5 -18.5t5.5 -24t-7.5 -26q-12 -18 -28.5 -21.5t-33 3t-31.5 21t-25 32.5q-11 20 -19.5 48t-14.5 54l-6 25q-9 -54 -34 -88.5t-58 -55t-69.5 -28.5t-68.5 -9q-38 -1 -75 11.5t-66.5 39.5t-49 68t-22.5 96q-3 51 12.5 88.5t38.5 63t46.5 40t37.5 20.5
q-5 4 -11 10t-13 14q-12 15 -22 38t-10 54q0 46 20 75t48 45t56.5 21.5t46.5 4.5q51 -3 81.5 -21.5t47 -42.5t20.5 -49t2 -41q-6 -45 -37 -76.5t-76 -36.5q-44 -5 -74 11t-34 50q-2 17 3.5 28.5t13.5 18t16.5 9.5t13.5 3q12 0 15 -7q2 -3 1 -6.5t-3 -5.5z" />
    <glyph glyph-name="quotesingle" unicode="'" horiz-adv-x="152" 
d="M66 757q10 0 21 -5t19 -14t11.5 -22.5t-2.5 -29.5q-7 -20 -13.5 -33.5t-11.5 -23t-7.5 -17t-1.5 -16.5q0 -10 -5.5 -14.5t-12 -4t-12.5 5.5t-7 16q-2 23 -5 33.5t-7 16.5t-9 12t-11 20q-6 16 -4 30t10.5 24.5t21 16.5t26.5 5z" />
    <glyph glyph-name="parenleft" unicode="(" horiz-adv-x="277" 
d="M251 -83q3 -3 1.5 -9.5t-5 -12.5t-8 -9t-8.5 2q-36 43 -73.5 87t-68 99.5t-50 126.5t-18.5 169q0 52 14.5 103t36.5 96.5t48 84.5t49 68.5t40 48t22 23.5q4 4 9.5 4t10 -2.5t5.5 -8t-5 -13.5q-12 -16 -34.5 -59.5t-45 -101t-39.5 -122t-17 -121.5q-1 -83 14.5 -158
t37 -135.5t45 -102t39.5 -57.5z" />
    <glyph glyph-name="parenright" unicode=")" horiz-adv-x="263" 
d="M243 370q0 -97 -17 -169t-44.5 -128t-63 -100t-72.5 -85q-4 -5 -8.5 -2t-7.5 9t-4.5 12.5t0.5 9.5q16 17 35.5 58.5t36.5 101.5t28 134.5t10 158.5q0 57 -13 121.5t-30.5 122t-36 101t-30.5 59.5q-6 8 -5 13.5t5.5 8t10 2.5t9.5 -4q4 -5 20.5 -23.5t38.5 -48t46 -68
t44.5 -84t34 -96t13.5 -104.5z" />
    <glyph glyph-name="asterisk" unicode="*" horiz-adv-x="224" 
d="M203 530q-4 -11 -14 -10.5t-20 5.5t-18.5 14t-15.5 12q-7 4 -12.5 2.5t-4.5 -9.5t7 -21t6 -23q-1 -11 -3 -17.5t-11 -7.5q-10 -2 -16.5 5.5t-4.5 19.5t5.5 24t3.5 17q-1 5 -6 9.5t-11 1.5q-5 -3 -14.5 -15.5t-20.5 -18.5t-19.5 -3t-11.5 9q-3 4 0 11t14 12q8 4 24.5 8
t21.5 8q5 3 7 10t-7 9q-9 3 -25 6.5t-23 6.5t-10 11t0 13t10.5 7t19.5 -6q11 -8 19.5 -18t14.5 -12q5 -2 10 1.5t3 11.5q-1 9 -4.5 24t-4.5 23q0 19 14 19q7 1 13 -4.5t4 -16.5t-5 -24t-2 -18t2.5 -8.5t12.5 -0.5q13 4 19 11.5t11 12.5q6 6 18 8.5t18 -7.5q3 -6 0 -11.5
t-8 -9.5t-10 -6.5t-6 -3.5q-14 -6 -24 -5t-15 -3q-4 -2 -5.5 -6.5t14.5 -11.5q11 -5 21 -8t18 -5t16.5 -7.5t4.5 -14.5z" />
    <glyph glyph-name="plus" unicode="+" horiz-adv-x="362" 
d="M325 214q-1 -2 -11 -3.5t-26 -2.5t-36 -1h-42v-66q0 -6 1 -13.5t2 -13.5t0.5 -10.5t-4.5 -4.5q-8 0 -18 1t-18 1q-9 0 -14.5 -1t-15.5 0q-10 2 -8 14.5t2 26.5v67l-57 2h-12t-11 1q-11 1 -17 3t-6 16v22q0 12 1 14q1 5 2.5 9.5t6.5 4.5h93v63q0 9 -1.5 17t-1.5 14t2 10
t9 4h51q14 0 14 -8.5v-20.5v-79h95q5 0 13 -8t7 -25q0 -17 1.5 -21t-1.5 -12z" />
    <glyph glyph-name="comma" unicode="," horiz-adv-x="163" 
d="M143 48q0 -17 -5 -31t-12.5 -26t-16 -23t-15.5 -20t-13.5 -9t-10 5.5t-4 14.5t4.5 18q6 9 1 16t-14.5 15t-20 19t-15.5 29q-3 10 0.5 21.5t12 21t20 15.5t24.5 6q26 0 45 -20t19 -52z" />
    <glyph glyph-name="hyphen" unicode="-" horiz-adv-x="329" 
d="M309 273q0 -8 -1 -18t-1 -18q0 -9 1 -14.5t0 -15.5q-2 -10 -14.5 -8t-26.5 2h-202q-9 0 -17 -1.5t-14 -1.5t-10 2t-4 9v51q0 14 8.5 14h20.5h218q6 0 13.5 1t13.5 2t10.5 0.5t4.5 -4.5z" />
    <glyph glyph-name="period" unicode="." horiz-adv-x="163" 
d="M146 55q0 -8 -2 -18t-8 -19.5t-18.5 -16t-33.5 -6.5q-23 0 -36 8.5t-19 19t-7.5 21t-1.5 14.5t2 14.5t8.5 21t19.5 18.5t34 8q19 0 31.5 -7.5t19 -18t9 -21.5t2.5 -18z" />
    <glyph glyph-name="slash" unicode="/" horiz-adv-x="411" 
d="M387 761q-17 -47 -38.5 -109t-46 -131.5t-50 -143.5t-50 -144t-47 -132t-40.5 -109t-30.5 -74t-17.5 -27h-16.5t-5.5 -0.5t-6 -0.5h-16q-4 0 0.5 23.5t15.5 63t27.5 91.5t35.5 109t39 114.5t39 109.5q25 69 50.5 138t47 124t36.5 89.5t18 34.5h12.5t8 0.5t7.5 0.5h11
q14 0 18.5 -4.5t-2.5 -22.5z" />
    <glyph glyph-name="zero" unicode="0" horiz-adv-x="662" 
d="M651 359q-1 -70 -17.5 -125t-43.5 -96t-61.5 -69.5t-70.5 -46t-72 -25t-65 -6.5q-28 1 -61.5 6.5t-67.5 20t-66 37.5t-57 58.5t-40.5 84t-16.5 113.5q-2 100 29 170t78.5 114.5t104 65.5t105.5 23q26 1 60 -4.5t70 -20t71 -39t62 -61t43.5 -86t15.5 -114.5zM508 326
q0 306 -179 308q-35 0 -66.5 -15.5t-55 -50t-37.5 -90.5t-14 -136t11.5 -135t32.5 -89.5t52 -50t70 -15.5q40 0 74 14.5t59 46.5t39 84.5t14 128.5z" />
    <glyph glyph-name="one" unicode="1" horiz-adv-x="544" 
d="M351 682q18 -2 24 -14.5t6 -24.5q0 -4 -1 -37t-2 -81.5t-2.5 -106t-2.5 -111t-1 -96.5t1 -62q1 -29 4 -44t9 -23t16.5 -11.5t26.5 -9.5t31.5 -7t28.5 -1.5t22 -2t12 -8.5q6 -14 -5 -26t-24 -14q-6 -1 -28.5 -1t-53 0.5t-66.5 0.5t-69 -1q-69 -2 -119 -0.5t-79 -0.5
q-15 -1 -21.5 3t-6.5 9t5.5 10.5t14.5 7.5q12 1 33 7.5t41.5 16.5t36 23t16.5 28v29t-1 63t-1.5 80t-1.5 81t-1.5 65.5t-0.5 33.5q0 18 -8.5 19t-34.5 -9q-13 -5 -33 -12t-39.5 -12.5t-35 -8t-18.5 0.5q-4 4 -6.5 8.5t0 9t11 9t25.5 8.5t46.5 21.5t61.5 40t62 46.5t49 42
t30 30.5t18.5 20t14 10t16.5 1.5z" />
    <glyph glyph-name="two" unicode="2" horiz-adv-x="609" 
d="M590 526q10 -42 -7 -93.5t-65 -96.5q-31 -29 -67.5 -57.5t-71.5 -54t-63.5 -46t-42.5 -32.5t-25.5 -21t-18.5 -15t-7.5 -8t7.5 0q27 7 56 6t58.5 -5t59 -9.5t58.5 -6.5q28 -2 42.5 7.5t22 22.5t10.5 26.5t8 20.5t14.5 2t15 -20t3 -38t-22.5 -52t-61.5 -43.5t-87 -19.5
t-86 -3.5t-59.5 3.5q-18 2 -40.5 6t-44 7.5t-40 5t-28.5 -1.5t-22.5 -5.5t-23.5 -2t-19 5t-9 16.5q-2 10 14.5 22.5t41.5 26.5t54 29.5t52 32.5q15 11 39.5 30t52.5 43.5t56.5 53t52 59t38 61.5t15.5 60q1 55 -12 88.5t-35 51.5t-50.5 24t-57.5 6q-28 0 -55 -11.5t-48 -29.5
t-34 -40.5t-13 -44.5t4 -34t10 -17.5t13 -6.5t14 -1t8 -7t-2.5 -16.5t-11 -19t-17.5 -14.5q-11 -6 -35 -11.5t-49 0t-44 27.5t-19 71q-1 49 26.5 87t72.5 64t103 39.5t119 14.5t106.5 -12.5t76.5 -34t48.5 -44.5t22.5 -45z" />
    <glyph glyph-name="three" unicode="3" horiz-adv-x="678" 
d="M655 233q1 -54 -29.5 -98.5t-77.5 -76t-103 -49t-107 -17.5t-101 7t-92.5 21.5t-74 37t-46.5 54.5q-12 25 -10 48.5t14.5 42.5t34 31.5t48.5 17.5q27 4 43 1t23.5 -9t7 -12.5t-7.5 -8.5q-14 -4 -23.5 -17t-9.5 -49q0 -18 14 -38.5t39.5 -37.5t61 -28t77.5 -10
q85 2 130 44t45 127q0 43 -13 70.5t-31 42.5t-38 19t-34 0q-14 -5 -31 -6t-33 0t-29 4.5t-18 8.5t-7.5 11.5t2 11.5t17 8t37.5 2q25 -2 48 9t41 29t29 40t12 43q0 20 -7.5 42.5t-25 41.5t-44 31.5t-63.5 12.5q-57 0 -91.5 -19t-47.5 -46q-9 -19 -9 -34t5 -25.5t13 -16.5
t15 -7q14 -2 10.5 -17t-21.5 -26q-9 -5 -31 -8t-44.5 2.5t-40 23.5t-17.5 54q0 37 25 67.5t65.5 53t91 35t100.5 12.5q49 0 100 -10t92 -28.5t67 -45t26 -59.5q0 -62 -28.5 -97t-70.5 -53q-15 -7 -27 -10.5t-1 -4.5q6 0 30 -7.5t51 -24t48.5 -44t21.5 -67.5z" />
    <glyph glyph-name="four" unicode="4" horiz-adv-x="735" 
d="M700 305q9 0 16 -7.5t7 -19t-10.5 -24.5t-36.5 -25q-21 -9 -37 -15.5t-31 -10t-31 -5t-38 -1.5v-73q0 -18 -0.5 -29.5t1 -19t6 -12t15.5 -7.5q22 -8 42.5 -11.5t34.5 -1.5t17 -4t-15 -17q-9 -6 -14.5 -10t-18 -6t-36 -3t-68.5 -1h-76h-51.5t-33 -0.5t-19.5 -1.5
q-8 -1 -13.5 2.5t-7 9t1.5 10.5t13 6q20 2 32 12.5t23 18.5l8 6l9 4.5t10 4.5l2 126q-35 1 -73.5 2t-75 1t-68.5 -0.5t-53 -1.5q-29 -2 -44.5 -4.5t-24 -3.5t-13.5 0.5t-13 7.5q-16 11 -19 25t11 16q5 1 27.5 20.5t55 49t71 66t75 72t67 65t47.5 46.5q51 51 82 77.5t42 36.5
q5 4 13.5 7t16.5 1.5t13.5 -9.5t5.5 -24v-26q0 -11 0.5 -24.5t0.5 -25.5q0 -32 -1 -70.5t-2 -79.5t-2 -82.5t-1 -78.5q17 -2 31 -4t25 -3q48 -3 67 4.5t17 14.5t1 18.5t20 11.5zM409 553q-81 -78 -128.5 -124.5t-74.5 -72.5l-43 -41q-25 -23 -29.5 -37t10.5 -4q7 5 26.5 9.5
t45 7.5t54 4t54.5 0q37 -3 79 -9z" />
    <glyph glyph-name="five" unicode="5" horiz-adv-x="639" 
d="M601 209q0 -51 -28 -90.5t-71.5 -66.5t-97 -41.5t-104.5 -14.5q-58 0 -107.5 5t-86 19.5t-57 40.5t-20.5 67q0 36 13 59.5t31.5 37t39 18.5t35.5 3t27 -9t18.5 -15.5t6 -16t-10.5 -10.5q-42 -14 -38 -62q1 -13 11.5 -29t30.5 -29.5t49 -22.5t67 -7q72 3 111 38.5t45 95.5
q3 27 -5 56.5t-28 53.5t-53 40t-79 16q-35 0 -61.5 -5t-45.5 -12t-32 -15.5t-20 -14.5q-14 -12 -27 -12.5t-11 14.5q0 5 -0.5 31t-2 63t-2.5 79t-2.5 78.5t-2 62.5t-0.5 30q-1 6 5 8t14 0t14 -7t5 -13q0 -4 -0.5 -10.5t0.5 -16.5q2 2 5.5 4t7.5 5q12 10 32 18.5t44.5 14.5
t52.5 9.5t56 3.5q38 0 68.5 -2t50.5 -4l41 -5q22 -5 33 -3.5t17 5.5t9 9.5t9 9.5t16.5 1t14 -13.5t-5.5 -30t-43 -47.5q-34 -29 -81.5 -41.5t-94.5 -15.5t-88 0t-63 6q-25 3 -45 5.5t-34 4.5q1 -27 2.5 -55.5t3 -53t2.5 -41.5t1 -21q0 -15 0.5 -20t7.5 0q3 3 19 9t41.5 12
t59 10.5t71.5 4.5t83.5 -8t84.5 -28.5t65.5 -54t26.5 -84.5z" />
    <glyph glyph-name="six" unicode="6" horiz-adv-x="620" 
d="M589 230q2 -45 -20 -87.5t-58.5 -75t-84.5 -51t-97 -15.5q-36 2 -86.5 19t-97 53.5t-80.5 95.5t-37 144q-3 81 27.5 149.5t81 117.5t114 74t126.5 19q74 -7 117.5 -33.5t60.5 -58.5t10 -64.5t-34 -51.5q-12 -9 -27.5 -10t-29.5 2t-24 9t-12 11q-2 6 2 10t10 9.5t11 14
t5 23.5q0 14 -8.5 30.5t-23 31t-34 24t-41.5 9.5t-51.5 -15t-56 -51.5t-45 -97t-18.5 -150.5q0 -91 17.5 -143.5t43.5 -79t57.5 -33.5t58.5 -6q27 0 49.5 12t38.5 32t25 46t9 55q0 37 -10.5 65.5t-28 47t-39.5 28t-45 9.5q-18 0 -36.5 -6.5t-34 -16.5t-27 -21.5t-16.5 -21.5
q-9 -20 -9.5 -34.5t-5.5 -15.5q-2 -1 -7 -1.5t-9.5 1.5t-7.5 8.5t-2 18.5q3 35 22 62.5t48 46t65 28t73 8.5q75 -2 121.5 -42.5t50.5 -131.5z" />
    <glyph glyph-name="seven" unicode="7" horiz-adv-x="579" 
d="M562 635q-3 -5 -21.5 -35.5t-43 -76t-50.5 -100t-44 -107.5q-18 -54 -28.5 -93t-16 -67t-5.5 -47t3 -32q7 -26 15 -37.5t23 -7.5q8 2 15.5 6t14.5 7.5t12.5 4t8.5 -3.5t1.5 -11t-7 -14.5t-14 -13.5t-19.5 -7q-19 -2 -34 -1.5t-28 1.5t-25.5 2.5t-26.5 1.5t-28.5 -1.5
t-28 -3t-24 -2.5t-16.5 1q-20 7 24 94q7 14 26 47.5t43 76.5t51 90.5t50.5 89.5t41.5 73.5t24 42.5q18 32 24.5 53.5t-1.5 14.5q-4 -3 -22 -13.5t-44.5 -22.5t-58.5 -21t-64 -9q-58 0 -91 6t-51.5 13.5t-27.5 13.5t-18 6q-18 0 -27 -19.5t-7 -40.5q2 -22 1 -32.5t-21 -10.5
q-10 0 -13.5 2.5t-3.5 7.5t2 13t3 19q0 12 0.5 33.5t0.5 44t-0.5 42t-1.5 28.5q-2 16 11.5 16.5t21.5 -5.5q4 -3 18 -4.5t32 -2t36 0t32 0.5q27 0 51.5 4t58.5 4t76 -3t88 -3q22 0 36 2t22.5 4t12 4t5.5 2q2 1 7.5 -1t11 -5.5t8.5 -8.5t0 -9z" />
    <glyph glyph-name="eight" unicode="8" horiz-adv-x="579" 
d="M561 211q0 -34 -17 -75t-54 -75.5t-96 -55t-143 -13.5q-60 5 -100 18.5t-65.5 31t-39 37.5t-19 39t-6 34.5t-0.5 23.5q0 10 5 29t19.5 41t39.5 44.5t65 40.5q-38 25 -60.5 62.5t-22.5 94.5q0 50 21.5 88t56 63t77.5 36.5t87 8.5q50 -3 83.5 -17t53.5 -33.5t28.5 -42
t8.5 -42.5q0 -9 -3 -25.5t-13 -36.5t-28 -41.5t-48 -39.5q170 -65 170 -195zM395 509q3 23 -1.5 48t-19.5 45t-41 32.5t-66 11.5q-32 -1 -55 -15t-36.5 -34t-16 -44.5t6.5 -46.5q6 -13 19 -22.5t34.5 -18t51 -18t67.5 -22.5q20 20 37 41t20 43zM432 140q0 15 -5 34
t-20.5 37.5t-43.5 35.5t-74 29q-26 7 -51 14.5t-48 17.5q-38 -31 -53 -64.5t-15 -70.5q1 -60 41.5 -98.5t121.5 -38.5q40 0 68 10.5t45.5 26.5t25.5 34t8 33z" />
    <glyph glyph-name="nine" unicode="9" horiz-adv-x="573" 
d="M556 378q-3 -101 -26 -172.5t-59.5 -118t-84.5 -69.5t-102 -26q-88 -5 -149 12.5t-93 71.5q-18 31 -21 57.5t4.5 47t22.5 33.5t34 17q38 7 60 -3t24 -23q1 -6 -2.5 -11.5t-9.5 -11t-12.5 -12t-10.5 -15.5q-5 -9 -5 -29t12 -40.5t40 -36t81 -15.5q54 0 89 28t55.5 67
t28.5 81t8 71q0 28 -3.5 42.5t-8.5 19.5t-10.5 3t-8.5 -6q-3 -5 -14.5 -21.5t-33.5 -34.5t-55.5 -33.5t-80.5 -16.5q-41 -2 -76.5 9.5t-62.5 36t-42.5 63.5t-15.5 92q0 54 19.5 98.5t53 77.5t79 52t97.5 21q49 2 100 -12t91.5 -49t65.5 -95t22 -150zM405 405q7 20 6.5 42
t-3.5 40q-2 11 -4.5 20.5t-6.5 19.5q-10 25 -21.5 45.5t-26 35t-33.5 21t-44 4.5q-30 -3 -54.5 -19.5t-41.5 -42t-26.5 -58.5t-9.5 -68q0 -72 30 -107.5t75 -37.5q22 -1 48.5 10.5t50.5 28t41 35t20 31.5z" />
    <glyph glyph-name="colon" unicode=":" horiz-adv-x="171" 
d="M147 268q0 -10 -4 -20.5t-12.5 -19.5t-20.5 -15t-28 -6q-17 0 -28.5 5.5t-19 13.5t-11 18t-3.5 18t2.5 19.5t9 21.5t17 17t26.5 7q39 0 55.5 -19.5t16.5 -39.5zM151 56q0 -8 -2 -18t-8 -19.5t-18.5 -16t-33.5 -6.5q-23 0 -36 8.5t-19 19t-7.5 21t-1.5 14.5t2 14.5t8.5 21
t19.5 18.5t34 8q19 0 31.5 -7.5t19 -17.5t9 -21.5t2.5 -18.5z" />
    <glyph glyph-name="semicolon" unicode=";" horiz-adv-x="170" 
d="M147 268q0 -10 -4 -20.5t-12.5 -19.5t-20.5 -15t-28 -6q-17 0 -28.5 5.5t-19 13.5t-11 18t-3.5 18t2.5 19.5t9 21.5t17 17t26.5 7q39 0 55.5 -19.5t16.5 -39.5zM150 48q0 -17 -5 -31t-12.5 -26t-16 -23t-15.5 -20t-13.5 -9t-10 5.5t-4 14.5t4.5 18q6 9 1 16t-14.5 15
t-20 19t-15.5 29q-3 10 0.5 21.5t12 21t20 15.5t24.5 6q26 0 45 -20t19 -52z" />
    <glyph glyph-name="less" unicode="&#x3c;" horiz-adv-x="1322" 
d="M1291 451q10 -12 11 -22.5t-5 -14.5t-18.5 -0.5t-29.5 18.5q-21 18 -61.5 24.5t-93 0t-113.5 -26.5t-124 -54q-31 -17 -84.5 -39.5t-119.5 -46t-138.5 -44.5t-141 -34t-127 -15.5t-96.5 11.5q-20 -13 -42 -15t-41 6t-32 25.5t-14 44.5q-1 26 12 45t33 28.5t43 9.5t43 -12
q20 -13 26 -31.5t5 -36.5q-1 -11 -2.5 -21.5t-5.5 -21.5q18 -2 40.5 -0.5t49.5 8.5q45 11 108 39t145 87q89 64 161.5 103.5t132.5 61.5t109.5 28.5t91.5 5.5q78 -3 127 -16t79.5 -30t46 -35t25.5 -30z" />
    <glyph glyph-name="equal" unicode="=" horiz-adv-x="339" 
d="M310 338q0 -8 -1 -17.5t-1 -18.5t1 -14t-1 -16q-1 -10 -14 -8t-27 2h-202q-18 0 -31 -3t-13 12q0 9 -0.5 22.5t-0.5 27.5t8.5 14h21.5h218q6 0 13 1.5t13.5 2t11 0t4.5 -4.5zM317 160q-1 -3 -13 -4.5t-31 -2t-43 -0.5h-49q-29 0 -62 1t-70 3q-11 1 -17 3t-6 16v22
q0 12 1 14q1 5 3 9.5t6 4.5h261q5 0 13 -7.5t7 -24.5q0 -17 1.5 -22t-1.5 -12z" />
    <glyph glyph-name="greater" unicode="&#x3e;" horiz-adv-x="3705" 
d="M3677 357q-8 1 -63.5 4.5t-142 8.5t-196 10.5t-225 9.5t-229 6.5t-208.5 1.5q-96 -1 -223 -2t-270 -2.5t-294.5 -4t-295.5 -6.5t-273 -10t-227 -14q-88 -8 -190 -15.5t-205 -14.5t-200 -13t-174.5 -11t-129.5 -7.5t-65 -2.5q-19 0 -32.5 2.5t-12.5 6.5t21.5 8.5t71.5 8.5
q32 2 105.5 7.5t173 14t216.5 19t235.5 23t230 26t200.5 27.5q93 15 212.5 32t256 33.5t285 31.5t300 25.5t300.5 15t285.5 1t256.5 -17t214 -39.5q91 -25 153 -54.5t97 -54t45 -40.5t-3 -14z" />
    <glyph glyph-name="question" unicode="?" horiz-adv-x="402" 
d="M375 488q-14 -57 -44.5 -97t-62 -71.5t-57 -59t-29.5 -58.5q-3 -21 5 -30t18.5 -12.5t19 -5t7.5 -7.5t-7 -9t-13.5 -4t-15.5 0.5t-12 3.5q-12 3 -24 16t-16 34t3.5 50t34.5 64q31 40 51 78.5t31 72.5t14 61t0 45q-6 41 -24 65t-40.5 35t-47 11t-44.5 -8t-31.5 -21.5
t-8.5 -29.5q9 0 20 -3q8 -2 17 -7.5t15 -16.5q5 -11 5.5 -23.5t-5 -23.5t-16.5 -19.5t-29 -11.5q-14 -2 -26.5 3.5t-22 16.5t-15 27t-4.5 34q3 49 35 78.5t75.5 41t90 6.5t79.5 -23q53 -30 71 -85.5t3 -116.5zM250 41q0 -19 -17 -36t-43 -17t-44 14.5t-18 41.5q0 7 3 16.5
t10.5 17.5t19.5 13.5t29 5.5q25 0 42.5 -16.5t17.5 -39.5z" />
    <glyph glyph-name="at" unicode="@" horiz-adv-x="604" 
d="M577 179q-14 -35 -45.5 -58.5t-79.5 -18.5q-17 2 -27.5 10t-19.5 19l-9 21q-3 3 -4 6.5t-3 7.5l-2 -7q-2 -2 -5 -4t-6 -6q-7 -5 -14.5 -9.5t-21.5 -9.5q-23 -8 -45.5 -4t-41.5 17t-32.5 32.5t-18.5 42.5t1 44t19.5 37t33 25t41.5 8q11 -1 20.5 -2.5t16.5 -5.5q4 -1 13 -8
q-9 24 -25 39t-32.5 22.5t-32 8.5t-22.5 -3q1 -2 1 -11t-9 -22q-5 -7 -14 -9.5t-18 0.5t-15 11t-4 23q2 16 14 25.5t28.5 13.5t34 4t29.5 -3q31 -8 54 -23t38.5 -34t25.5 -40t16 -42q6 -20 10.5 -40t9.5 -35q10 -34 35 -40q12 -3 27 1t28.5 15.5t23 31t11.5 46.5
q1 15 -3.5 39t-16 51.5t-31 55t-48.5 49t-69 34t-92 10.5q-38 -2 -79 -19.5t-74 -50.5t-52 -81t-12 -111q7 -62 32 -104.5t62 -68t83 -35t94 -6.5q35 3 57 16q0 1 0.5 3t-0.5 6q1 3 4 8t8 9q11 10 25.5 7t17.5 -15q5 -15 -5 -29t-32 -12q-54 -24 -110.5 -27t-108.5 11
q-54 13 -97 46t-69 78.5t-31.5 100.5t14.5 114q21 60 59 100.5t86 63.5t101.5 28t106.5 -7q56 -13 102 -47.5t74 -81.5t35 -102t-15 -109zM379 195q-2 5 -5.5 19t-8.5 28q-6 17 -9 29t-5 14q-7 6 -24 16t-40 6q-10 -2 -18 -11t-11.5 -22.5t-3 -28.5t7.5 -29
q7 -15 18.5 -28.5t24 -22t26 -10t24.5 6.5q13 11 17.5 18.5t6.5 14.5z" />
    <glyph glyph-name="A" unicode="A" horiz-adv-x="715" 
d="M701 40q7 -6 6.5 -12t-6.5 -11t-15.5 -8.5t-21.5 -3.5h-28h-35.5t-36.5 -0.5t-30 -1.5q-23 -2 -39 5t-12 20q2 7 4 11t3.5 8t1 9.5t-3.5 16.5t-6.5 23t-8.5 22t-11.5 16.5t-15.5 6.5h-24t-41.5 0.5t-50 0.5t-50 0.5t-41.5 0.5h-24q-20 0 -28 -6t-12 -17q-5 -11 -12 -31.5
t-10 -32.5t4 -18.5t18 -17.5q6 -5 4.5 -10.5t-7.5 -9.5t-15.5 -6t-18.5 -1q-19 2 -45.5 0.5t-47.5 -4.5q-21 -2 -29 3.5t-9 21.5q0 7 8.5 12t21 11t25.5 15t22 24q4 7 13 30t21 56t27 73t31 82t32 81.5t31 72.5q22 49 41 91.5t36 73.5t33 48t33 15t27 -15.5t22 -45.5
q3 -8 13 -34t24 -63t31 -81.5t35 -91t35 -91t31 -81t24 -61.5t13 -32q6 -15 14 -25t17 -16.5t17.5 -11.5t15.5 -10zM422 230q-4 10 -13 35.5t-19 54.5t-18.5 55t-12.5 38q-8 24 -15 35.5t-23 11.5q-8 0 -16 -11.5t-16 -28.5t-15 -38t-13 -40q-13 -39 -27 -69.5t-19 -46.5
q-2 -8 -3 -14.5t1 -11.5t9.5 -7.5t23.5 -2.5t37.5 0.5l43 1t40.5 1t30 0.5q21 0 27 7.5t-2 29.5z" />
    <glyph glyph-name="B" unicode="B" horiz-adv-x="684" 
d="M661 179q0 -52 -22.5 -88.5t-57 -58.5t-76 -31t-80.5 -6t-79 7t-78.5 6.5t-74.5 3t-67 -3.5q-31 -3 -49 -6t-28 -4t-15 -0.5t-10 3.5t-9.5 10t-6 15t2 16.5t14.5 14.5q10 6 16 18.5t9.5 28.5t4.5 34.5t1 37.5q0 12 0.5 44t1.5 73.5t2 87t1.5 86t0 70.5t-1.5 40
q-2 16 -4.5 24.5t-6 13.5t-8.5 9.5t-12 11.5q-6 6 -7 15t4 16.5t17.5 11t33.5 -0.5t56.5 -5t76 0t81.5 3.5t73 5.5q52 4 97 -5.5t78 -31t51 -52.5t16 -68q-2 -49 -25.5 -75t-82.5 -29q-18 -1 -37 3.5t-34 12t-23 16.5t-3 17q3 5 13 -0.5t30 -6.5q27 -1 40 11.5t16 30.5
t-2 38t-15 33q-20 26 -56 38.5t-99 14.5q-42 2 -68.5 2t-41 -2.5t-19.5 -9t-5 -18.5v-160q0 -12 14 -21t55 -9q15 0 31.5 0.5t45.5 2.5q73 5 132.5 -11.5t101.5 -48.5t64.5 -77.5t22.5 -97.5zM539 195q0 24 -11 54t-35 57t-61.5 45t-89.5 18q-46 0 -79 -1t-44 -3
q-16 -2 -22 -11.5t-6 -38.5q0 -14 0.5 -48t0.5 -71.5t0.5 -69.5t0.5 -42q0 -20 10 -28.5t34 -6.5q12 1 44 1.5t69 0.5t71 0.5t49 2.5q23 3 37 17t21 34t9 43.5t2 46.5z" />
    <glyph glyph-name="C" unicode="C" horiz-adv-x="699" 
d="M685 505q-1 -16 -19 -15.5t-38 20.5q-10 10 -27 28t-45.5 35t-70.5 30t-101 13t-100 -26.5t-66.5 -67.5t-37 -92t-11.5 -100q0 -50 13.5 -101t41 -93t68.5 -68.5t97 -26.5q55 0 94.5 12t66 29t42 34t22.5 28q7 10 17.5 12.5t18 -2t10 -15.5t-5.5 -27q-12 -23 -34 -45.5
t-56 -40.5t-80 -29t-106 -11t-124.5 24.5t-118 71.5t-88 114.5t-34.5 154.5q0 59 17 106t44.5 83.5t62.5 62t71.5 42t71.5 24t63 7.5q41 -1 68.5 -5.5t46 -10t31.5 -9.5t25 -4t21 7.5t17.5 17t16.5 17t18 7.5q9 0 16.5 -9t13.5 -23t11.5 -31.5t11.5 -34.5t14 -31t14.5 -25
t11.5 -20t5 -17z" />
    <glyph glyph-name="D" unicode="D" horiz-adv-x="742" 
d="M719 319q1 -66 -15.5 -115t-43 -84.5t-59.5 -58.5t-65 -36.5t-59.5 -19.5t-42.5 -7q-16 -1 -43.5 -1.5t-60.5 -1t-69 -1t-69.5 0t-61.5 1t-44 1.5q-24 1 -38 5.5t-19.5 11t-4.5 14t7 15.5q5 7 11 13.5t11.5 14.5t9.5 19.5t5 28.5q1 12 1.5 44t1 74t0.5 89.5v91v78v51.5
q0 49 -11 67t-37 24q-13 3 -15.5 11t1.5 16t12.5 13.5t17.5 4.5q18 -2 99 -2t215 4q73 2 138.5 -18t116 -64t80.5 -114.5t31 -169.5zM565 357q0 36 -13.5 83t-40 90t-66.5 74t-94 36q-36 3 -40 3.5t8 -0.5t31.5 -3t31.5 -3t8 -0.5t-39 3.5q-53 4 -81 4t-40 -4t-13.5 -12.5
t-1.5 -21.5q0 -9 -0.5 -45.5t-1 -87t-1.5 -108.5t-1.5 -109t-1 -88.5t-0.5 -46.5q0 -14 -1.5 -28t0.5 -25.5t10 -19t26 -7.5t50 -2t67.5 0.5t70 13t58.5 35.5t38.5 56.5t22.5 66.5t11 72.5t3 73.5z" />
    <glyph glyph-name="E" unicode="E" horiz-adv-x="683" 
d="M665 90q-8 -12 -18.5 -26.5t-20.5 -29t-18.5 -26t-12.5 -17.5q-5 -5 -17 -4.5t-27 3.5t-31.5 6t-31.5 3q-9 0 -34 0.5t-58 0.5h-71.5t-74.5 -1t-66 -2.5t-46 -4.5q-51 -9 -75.5 -11t-38.5 12q-15 14 -14.5 27t19.5 18q20 5 27 36.5t7 94.5v54t0.5 72t1 80t0.5 77.5v64
v40.5q-1 19 -5.5 32t-11.5 22.5t-16 17t-18 15.5q-5 4 -3.5 12t6.5 15.5t12.5 11.5t13.5 0t18 -6.5t26.5 -3.5t28.5 -1.5t24 -0.5h32.5h63h78t79 0.5t66.5 1t39 1.5q15 1 26.5 5t20.5 7t16 3.5t13 -5.5t15 -17t19 -23.5t19 -24t15 -18.5q26 -29 -12 -34q-9 -1 -18.5 3
t-23 10.5t-32.5 14t-48 13.5q-58 12 -117 10.5t-105 -1.5h-39t-25.5 -3t-13.5 -11.5t-4 -24.5q0 -17 -2 -33t-1.5 -29t6 -21t20.5 -8h184q20 0 28 8.5t13 17.5q2 5 5 8t9.5 2t17 -7.5t26.5 -20.5t33 -28t29 -26.5t17.5 -22t-1.5 -15.5q-6 -6 -15.5 -4.5t-22.5 7t-31 13.5
t-42 14q-24 7 -43.5 10t-38 4t-37.5 1h-43q-23 0 -42.5 1t-34.5 -0.5t-24 -7.5t-10 -21q-1 -10 -2 -33.5t-1.5 -53.5t-1 -63.5t-1 -64t-0.5 -54.5v-35q-1 -34 8 -53t40 -19q15 0 43.5 -0.5t60 -1t61.5 -0.5t50 2q38 3 73.5 18.5t80.5 54.5q6 5 16 3.5t18 -6.5t13.5 -11.5
t2.5 -12.5z" />
    <glyph glyph-name="F" unicode="F" horiz-adv-x="685" 
d="M665 580q7 -7 7 -12.5t-3.5 -9t-9.5 -5.5t-11 -2t-16 6t-26.5 14.5t-34.5 17t-39 13.5t-59.5 8t-80.5 4.5t-75.5 2t-43.5 0.5q-19 0 -30.5 -1.5t-11.5 -10.5q-1 -10 -1.5 -35.5t1.5 -47.5q2 -21 10 -27.5t41 -4.5q17 1 44 1t54.5 -0.5t52 -1t36.5 -0.5t20.5 4t16 9.5
t14 9.5t13.5 4q6 0 15 -6t19.5 -16t21 -21.5t21.5 -23.5q21 -24 23.5 -34t-12.5 -23t-28.5 -8.5t-29.5 20.5t-38 23t-48 12q-13 2 -41.5 3t-61 1h-62.5t-45 1q-16 1 -24 -2.5t-11.5 -9.5t-3.5 -13v-14q0 -4 1 -27t2 -55.5t3 -70t3 -71t2 -59t1 -33.5q0 -12 8.5 -18.5
t18.5 -12.5t17 -13t4 -20q-3 -15 -20.5 -21t-46.5 -1t-65.5 4t-68.5 -5q-15 -2 -23.5 0.5t-12 8t-2.5 13t4 15.5t8.5 16t11 17t9.5 19t4 24v37t-0.5 66.5t-0.5 84t-0.5 89t-0.5 81v61.5q0 36 -5.5 52.5t-14.5 23t-20 7.5t-21 5t-12 12.5t1 16.5t9.5 14.5t12.5 6.5
q12 0 31 -3t49 -3q10 0 44.5 -0.5t80 -1.5t96.5 -1.5t94.5 -0.5t73 1t33.5 4q17 13 36.5 15t28.5 -10q4 -6 12 -19t17 -27.5t18 -27t17 -18.5z" />
    <glyph glyph-name="G" unicode="G" horiz-adv-x="780" 
d="M762 283q1 -21 -4.5 -62.5t-5.5 -95.5t0.5 -89t-15.5 -50q-9 -8 -23 -9t-29.5 2t-32 8.5t-31.5 9.5t-21 7t-7.5 6.5t0 8t2.5 10.5q2 10 -1.5 17t-9.5 10t-13.5 2.5t-13.5 -4.5q-15 -10 -37 -19t-49 -16t-56.5 -11t-59.5 -4q-20 0 -53 3.5t-71 15.5t-76.5 35t-70 61
t-51.5 94t-20 135q0 68 21 118.5t53.5 87t73 59.5t79.5 36.5t72 18.5t52 5q45 0 75 -6.5t50.5 -12.5t34.5 -8t27 8q21 16 40 13t30 -16q6 -6 15.5 -19t20.5 -28.5t21.5 -32.5t18.5 -32q8 -16 4.5 -26.5t-12.5 -15.5t-20.5 -4t-17.5 7q-17 16 -44.5 38.5t-64.5 43.5t-83 35.5
t-99 14.5q-107 0 -154 -75t-47 -221q0 -72 19.5 -125t51.5 -88.5t73.5 -52.5t86.5 -17t81 11.5t61 26t38.5 27.5t13.5 17q0 8 -0.5 21.5t-0.5 41.5t-14 43t-37 27q-13 7 -17.5 16t-3 17.5t9 14t19.5 5.5q24 -1 54.5 -2t84.5 2q27 1 43.5 -1t25 -6.5t11.5 -12.5t3 -18z" />
    <glyph glyph-name="H" unicode="H" horiz-adv-x="566" 
d="M552 21q1 -17 -7 -24t-31 -8q-11 0 -17.5 2l-13 4t-15.5 3.5t-24 0.5q-12 0 -20 -1.5t-15 -3t-15.5 -3t-20.5 -1.5t-20.5 5t-10.5 11.5t2 13.5t16 11t18 11.5t8 17.5t2 21v23v48t0.5 80.5t0.5 82v52.5v25t-3 20.5t-11 13.5t-23 5h-35.5t-39 0.5t-37 0.5h-28.5t-20 1
t-15 -1t-9.5 -9t-3.5 -23v-34t-0.5 -52t-0.5 -61.5t-0.5 -61.5t-0.5 -51.5v-31.5q0 -29 2 -41t16 -14q7 -1 13 -9t8.5 -17t-0.5 -16t-15 -7t-21.5 1t-20 2t-24.5 1t-35 -2q-11 -1 -23.5 -3.5t-23.5 -2.5t-18 3t-7 14t2.5 15.5t5 9.5t5 14.5t2.5 31.5v59.5v97.5t0.5 115.5
t0.5 112v88v43.5t-5 18.5t-8 22t0 18t20 7.5q32 0 64.5 -1t56.5 -1t35.5 -9.5t-7.5 -29.5q-8 -9 -12 -16.5t-5 -16t-0.5 -19t0.5 -25.5q0 -9 -0.5 -19t2.5 -18.5t10.5 -14t23.5 -5.5q35 0 71.5 0.5t66.5 2.5q29 2 37 14.5t8 45.5q0 16 -0.5 25.5t-1 14.5t-1 8t-0.5 7t-4 7
t-9 6t-9 7t-4 11q0 14 9 19t38 5h102q10 0 17.5 -5t12 -12.5t5 -15.5t-4.5 -14q-10 -11 -13 -33.5t-3 -48.5v-43t0.5 -81t1 -100.5t1 -100t0.5 -80v-41.5q0 -11 4.5 -20.5t9.5 -18t9.5 -16.5t4.5 -17z" />
    <glyph glyph-name="I" unicode="I" horiz-adv-x="250" 
d="M235 23q8 -8 2 -19t-20 -12t-35.5 3t-38.5 4q-9 0 -21 -1t-24 -2.5t-22.5 -2.5t-17.5 -1q-14 0 -17 13.5t6 19.5t15.5 16t9.5 28q0 6 -0.5 32.5t-1 65t-1 85t-1 92.5t-1 87t-0.5 69q0 42 -1.5 65t-5 35t-9 16t-13.5 7q-31 13 -19 40q3 6 8.5 7.5t13 0.5t16 -3t18.5 -2
q25 0 44 -0.5t40 -0.5q22 -1 39.5 3.5t29.5 4.5q6 0 8 -6.5t1.5 -14t-3.5 -13.5t-9 -6q-9 0 -17 -16.5t-8 -30.5v-44.5t0.5 -96t1 -122t1 -122t0.5 -96v-43.5q-1 -14 11.5 -22.5t20.5 -16.5z" />
    <glyph glyph-name="J" unicode="J" horiz-adv-x="567" 
d="M543 648q-5 -8 -10.5 -19t-4.5 -38q0 -8 -0.5 -30.5t-1 -52t-1 -63.5t-1 -65.5t-1 -57.5t-0.5 -40q0 -18 -5 -47t-18.5 -61t-37 -64.5t-59 -58.5t-85.5 -42.5t-117 -16.5q-48 0 -83 13.5t-58.5 34.5t-34.5 45.5t-11 45.5q0 10 5 24t15.5 26t25.5 20.5t36 8.5
q20 0 35.5 -7t25.5 -17t15 -21t5 -18q0 -14 -4.5 -33.5t-18.5 -42.5q-7 -11 -1 -20t19 -15t29.5 -8.5t30.5 -1.5q52 4 83.5 28t48 56.5t21.5 67t5 59.5t-1 69.5t-1.5 91t-1.5 86.5t-1 57q0 16 -0.5 32.5t-2 30.5t-5 23.5t-9.5 10.5t-7.5 7.5t0 13.5t6.5 13t12 6
q14 -1 30 -5.5t46 -4.5q29 0 41 3.5t24 9.5q6 3 11.5 0t8.5 -9t4 -13t-1 -11z" />
    <glyph glyph-name="K" unicode="K" horiz-adv-x="637" 
d="M624 -1q-1 -8 -9.5 -10.5t-20.5 -1.5t-25 4t-23 5q-20 4 -53.5 4t-68.5 -4q-35 -3 -48 0t-14 14q0 5 3.5 11t7 13t4.5 15.5t-4 19.5q-4 7 -16 24.5t-27.5 40t-33 47t-33 46t-26.5 36.5t-14 19q-5 6 -11 5.5t-11.5 -4.5t-9.5 -11.5t-4 -16.5v-23.5t0.5 -38t0.5 -46v-47.5
t3 -36.5t7.5 -20.5t10.5 -10t12 -5t7.5 -8t0 -12t-7.5 -10.5t-15 -3.5q-25 2 -54 2.5t-55 -1.5q-12 -1 -24 -1.5t-20.5 1.5t-11.5 6.5t2 12.5q8 13 11.5 27t4.5 28t1 27.5t1 25.5v34t-0.5 61t-0.5 76.5v81.5v74t1 55q1 32 0 52.5t-4 33.5t-8 20.5t-11 12.5q-14 9 -21.5 18
t0.5 28q5 11 19 9.5t36 -5.5q22 -3 52 -6t63 2q21 3 29.5 -3t9.5 -15.5t-3.5 -18.5t-10.5 -12q-14 -7 -17 -16.5t-3 -26.5v-23t-0.5 -41.5t-0.5 -49v-46.5t0.5 -34t1.5 -11q11 12 36.5 39t54 56t53.5 55.5t35 38.5q20 24 28 45t-6 29q-8 4 -13 5t-8 2.5t-4.5 4t-1.5 10.5
q0 14 15.5 14.5t35.5 0.5q9 0 29 0.5t42 1t42 1t29 0.5q10 0 13 -5.5t0 -12.5t-10.5 -13t-18.5 -7q-23 -3 -35 -9t-32 -25q-11 -10 -31.5 -33t-43 -49.5t-42.5 -50t-29 -33.5q-18 -20 -23 -34t4 -31q3 -6 16 -25t32 -46t41 -57.5t42 -58.5t35.5 -50t21.5 -31
q20 -29 42.5 -52t45.5 -25q22 -2 30 -6.5t6 -21.5z" />
    <glyph glyph-name="L" unicode="L" horiz-adv-x="727" 
d="M696 169q10 -5 13 -12t0 -15t-10.5 -16t-17.5 -15t-22.5 -24t-24 -36.5t-20.5 -37.5t-12 -26q-6 -17 -22.5 -13t-38.5 15q-11 6 -32 10t-49 6.5t-61 4t-67 1.5t-72 -0.5t-72 -2t-60 -3.5t-36 -5q-20 -7 -40 -8t-26 9q-7 10 -11 22t4 21q8 10 17 25.5t9 45.5v47.5
t0.5 88.5t1 108.5t1 108t0.5 87v45.5q0 13 -3.5 20t-7.5 12t-7.5 9t-3.5 12q0 15 12.5 21t40.5 5q27 -1 51.5 -3t47.5 1t30.5 -6.5t9.5 -24.5q1 -7 -2 -13t-7 -13t-8 -15t-5 -19q-1 -8 -1 -35.5t1 -67t2 -86t2 -90t2 -81t1 -58.5q0 -32 2.5 -51t8.5 -29.5t16.5 -14
t26.5 -3.5t46.5 -2.5t64.5 -5t67 -4t55 0.5q21 2 45 13t45.5 25t37.5 28t22 22q12 16 24 24t32 -2z" />
    <glyph glyph-name="M" unicode="M" horiz-adv-x="904" 
d="M879 1q-5 -12 -23 -9.5t-58 4.5q-20 1 -39.5 0.5t-36.5 -2t-29.5 -3t-17.5 -2.5q-5 0 -10 6.5t-8 14.5t-3.5 15t4.5 9q4 2 11 6.5t12.5 10t8 12t-0.5 14.5q-2 4 -9 26.5t-17 54.5t-21.5 69.5t-22 72t-19.5 61t-13 37.5q-13 31 -22 37.5t-21 -19.5q-4 -9 -11.5 -28.5
t-16.5 -44t-19 -51t-18.5 -50t-15.5 -41t-10 -23.5q-9 -17 -23.5 -7.5t-28.5 29.5q-5 7 -15 26t-22 43.5t-25 51t-24 50t-19.5 40t-11.5 20.5q-9 11 -14 11.5t-16 -24.5q-4 -9 -12.5 -37.5t-18.5 -65.5t-21.5 -78t-20.5 -76t-15.5 -59t-7.5 -27q-2 -5 4.5 -11.5t15 -13.5
t16.5 -14.5t10 -14.5q2 -14 -8.5 -21t-30.5 -5q-11 1 -27.5 2t-35.5 2t-38.5 0.5t-36.5 -1.5q-9 -1 -12.5 6.5t-3 17.5t4.5 18.5t12 9.5q7 1 17.5 4t20.5 8.5t18.5 13t11.5 16.5q2 6 13.5 45.5t28 96t35 121.5t35 122.5t28 99t13.5 50.5q7 28 14 39t23 12q17 1 27.5 -3.5
t18.5 -24.5q4 -10 17 -36t28.5 -57.5t31.5 -62t26 -49.5q20 -38 29 -47t15 5q3 7 13 35.5t21 62.5t21.5 65.5l14.5 43.5t6 23t5 19t9 12.5t20 4.5q19 0 29 -1.5t15 -5.5t7.5 -11t7.5 -19q3 -8 14.5 -41t27 -80.5t33.5 -103t34 -106t28 -91.5t16 -59q12 -54 34 -78.5
t36 -25.5q6 -1 9 -6t3.5 -12t-1 -14.5t-3.5 -13.5z" />
    <glyph glyph-name="N" unicode="N" horiz-adv-x="521" 
d="M510 660q0 -5 -4.5 -9t-10 -8t-10.5 -7t-6 -5t-1.5 -10.5t-1 -25.5t-0.5 -44.5v-67.5q0 -26 1 -65.5t2.5 -84t3.5 -91t3.5 -86.5t2.5 -70.5t1 -43.5q0 -20 -2.5 -29.5t-8 -13.5t-13.5 -4h-18q-21 0 -29.5 5.5t-20.5 16.5q-4 4 -23.5 31t-47 66t-59 84.5t-59.5 86.5
t-49 72t-27 41q-18 30 -26 34t-8 -16q0 -7 -0.5 -34.5t-0.5 -65t-1 -80.5t-1 -80t-0.5 -63.5t-0.5 -31.5q0 -7 5 -12t11.5 -9.5t12.5 -9.5t7 -11q1 -24 -35 -20q-19 2 -42 -0.5t-37 -2.5q-7 0 -10 5t-2.5 12t4 13.5t8.5 9.5q5 2 9.5 2t8 0.5t6 3t3.5 9.5q1 5 2 38t1.5 81.5
t0.5 105t0.5 109t0.5 94v59.5q0 27 -2.5 46.5t-6 34.5t-6 27t-2.5 24q0 10 5 13.5t12.5 3.5t17.5 -1.5t19 -1.5t15 -6t10.5 -15t8 -19.5t8.5 -19.5q3 -6 22.5 -37t48 -75.5t61 -96t61.5 -96t49.5 -77t25.5 -38.5q17 -23 20 -27t3 11q0 5 -0.5 28.5t-1 57t-1.5 72.5t-1 75.5
v66t1 43.5q3 42 -2.5 70t-22.5 35q-15 6 -17.5 14.5t-5.5 20.5q-2 11 7.5 12t32.5 -4q24 -5 49.5 -1t39.5 5q13 0 13.5 -7t-0.5 -16z" />
    <glyph glyph-name="O" unicode="O" horiz-adv-x="750" 
d="M730 366q0 -77 -27 -146t-75.5 -120.5t-115.5 -82t-147 -30.5q-86 0 -151.5 30.5t-110 80t-67.5 112t-23 127.5q0 73 23.5 135t68.5 108t110.5 72t149.5 26q91 0 159.5 -23.5t114.5 -65t68.5 -99t22.5 -124.5zM605 330q0 74 -17.5 129.5t-48.5 92.5t-74 55.5t-95 18.5
q-59 0 -101 -22t-70 -60.5t-41 -90.5t-13 -112t11 -114t36.5 -95.5t67.5 -66t104 -24.5q125 0 183 69.5t58 219.5z" />
    <glyph glyph-name="P" unicode="P" horiz-adv-x="634" 
d="M611 526q1 -20 -3 -41t-13 -39.5t-23.5 -34t-34.5 -22.5q-21 -8 -50.5 -11.5t-61.5 -5t-64.5 -2t-58.5 -1.5q-37 -2 -49.5 5t-14.5 20q-2 14 15 18t49 5q40 1 66 6.5t42 14.5t24.5 22t13.5 29q5 17 2.5 38.5t-10.5 41t-22 33t-32 14.5q-11 0 -35.5 1t-51.5 1.5t-51.5 1
t-37.5 0.5q-14 0 -19 -6.5t-6 -17t0.5 -24t1.5 -27.5q0 -9 0.5 -45t1.5 -85t2 -105t2 -105t1.5 -85.5t0.5 -46.5q0 -30 12 -36.5t24 -4.5q11 2 17.5 -7t6.5 -22q0 -14 -16.5 -14t-45.5 6q-14 3 -33 3.5t-37.5 -0.5t-34.5 -3.5t-23 -5.5q-17 -7 -30 -7.5t-21 10.5
q-8 10 -7.5 17.5t5 12t11 7t11.5 4.5q11 3 17 7.5t6 27.5v43.5v91.5t0.5 116.5t0.5 118v96.5v52q0 16 -4.5 21.5t-10.5 9t-10.5 11t-4.5 28.5q0 12 13.5 14.5t34.5 -3.5q10 -3 40 -3.5t73.5 0t97 1t110.5 -0.5t97.5 -15.5t66 -35t37.5 -44.5t13 -43z" />
    <glyph glyph-name="Q" unicode="Q" horiz-adv-x="788" 
d="M775 361q0 -54 -10.5 -104t-32.5 -93.5t-57 -78t-84 -56.5q21 -22 39.5 -32t23.5 10q3 15 19.5 24.5t36 10t37 -8.5t23.5 -31q4 -15 3.5 -30.5t-8 -30t-23 -26t-41.5 -17.5q-30 -8 -60.5 -3t-58 18.5t-49.5 35t-35 47.5l-2 4q-39 -6 -84 -6q-199 0 -299 82.5t-100 268.5
q0 62 18.5 110t48.5 83.5t69 60t80 39t81 21t73 6.5q81 0 152.5 -20t124.5 -59t84 -95.5t31 -129.5zM632 345q0 9 -3.5 31.5t-13 52t-27 61t-45.5 57.5t-68 43t-95 17q-74 0 -119 -30.5t-69 -72.5t-32 -85.5t-8 -70.5v-39.5t4 -50t14 -53.5t31 -50.5t55 -41.5t85 -26
q-2 7 7 23t29 25q43 19 82 7t65 -36q42 22 64 58.5t31.5 73.5t11 67.5t1.5 39.5zM423 81q-21 11 -40 13.5t-31 -7.5l-2 -2q15 -2 31.5 -3t35.5 -1h6z" />
    <glyph glyph-name="R" unicode="R" horiz-adv-x="728" 
d="M694 35q9 6 15 0.5t5 -16.5t-10.5 -24.5t-31.5 -23.5q-32 -14 -76 -11.5t-90.5 17t-89 40.5t-71.5 60q-33 39 -55.5 70.5t-38.5 54.5t-27 35.5t-21 12.5q-9 0 -7.5 -20.5t1.5 -45.5v-30v-35t1 -30.5t3 -17.5q1 -5 7 -7t12.5 -4.5t11.5 -6.5t5 -13q0 -17 -1.5 -30.5
t-19.5 -12.5q-9 0 -21.5 1t-26 1.5t-26 1.5t-21.5 1t-22.5 -0.5t-26.5 -1.5t-24.5 -2t-15.5 -2q-3 -1 -8.5 3t-9 11t-4 14t5.5 12q7 4 13 8.5t10.5 15.5t7.5 31t3 54v62v85.5t0.5 95.5t0.5 90v70v37q0 23 -10.5 31t-20.5 9q-4 0 -5.5 6.5t0 14t4.5 14t8 6.5t12 -0.5t15 -0.5
q5 -1 9 -1h9q48 -1 90 -1h81h210q20 0 50.5 -8.5t59 -30t49 -58.5t20.5 -94t-19 -95.5t-54.5 -63t-87.5 -38.5t-118 -21q-11 -2 -4 -20.5t49 -61.5q15 -15 38.5 -34t51.5 -38t58 -36t58 -27t51.5 -11.5t38.5 9.5zM458 538q-17 29 -51 42t-82 13q-24 0 -47.5 0.5t-43 -1
t-31.5 -7.5t-12 -19t1 -45t2.5 -67t2.5 -65t1 -39q0 -17 12 -23t45 -6q17 0 45.5 1t58.5 5.5t57 13.5t41 24t19.5 38.5t4.5 48t-7.5 48t-15.5 38.5z" />
    <glyph glyph-name="S" unicode="S" horiz-adv-x="866" 
d="M843 272q0 -54 -24.5 -99.5t-62 -80.5t-83 -58.5t-88.5 -32.5q-42 -9 -93.5 -10.5t-99.5 1.5t-87 9.5t-57 14.5q-24 10 -37.5 14.5t-23 4.5t-17.5 -4.5t-20 -11.5q-16 -9 -38 10t-42 48t-35.5 58.5t-18.5 41.5q-6 24 9.5 29t30.5 -11q27 -29 67.5 -54t89 -43.5t103.5 -30
t112 -12.5q60 -1 112 7.5t91 27.5t61 47t22 66q0 25 -13.5 43.5t-34.5 32t-48 22.5t-54 14t-51.5 7t-41.5 2q-26 0 -63.5 8.5t-72.5 29.5t-60 55.5t-25 87.5t25.5 89.5t63.5 58.5t81 31t79 8q15 -1 32.5 -3.5t34.5 -5t32 -4.5t25 -2t17 5t12 9.5t9.5 6.5t10.5 -4t16.5 -16
t22.5 -21t25 -22.5t24 -20.5t14.5 -17t3 -14.5t-3.5 -11.5t-5 -8t-5 -8t-10.5 -7t-20 1.5t-33.5 18.5q-22 15 -52 27.5t-60 20.5t-55 12.5t-37 4.5t-36.5 -1t-49.5 -8.5t-43.5 -25t-18.5 -49.5q0 -25 16 -41.5t41.5 -26t58 -14.5t65 -8t63 -6t52.5 -8q40 -10 76 -23
t63.5 -33.5t43.5 -48.5t16 -68z" />
    <glyph glyph-name="T" unicode="T" horiz-adv-x="806" 
d="M779 584q17 -20 12 -33t-16 -24q-12 -11 -22 -12t-30 19q-9 9 -21 20t-24 20.5t-22.5 16t-16.5 7.5t-23.5 1.5t-38 0.5h-40h-31.5q-11 0 -17 -2t-8.5 -6t-2.5 -10.5v-14.5v-37.5v-77t0.5 -98t0.5 -100.5v-84.5v-49.5q0 -38 8 -54t18 -20q5 -2 9 -3.5t6.5 -4.5t3.5 -9
t1 -17q0 -20 -16 -17t-43 7q-14 2 -31.5 1.5t-36 -2t-35.5 -4t-29 -5.5q-25 -6 -34 -2.5t-11 14.5q-2 12 -2 27.5t11 20.5q5 2 12 3.5t13.5 7.5t11 17.5t4.5 34.5v438q0 19 -5 28t-20 12.5t-42 3.5h-71q-29 0 -50 -9t-36 -20.5t-24.5 -23.5t-14.5 -18t-9 -12t-8.5 -10
t-10 -5.5t-14.5 2.5q-17 8 -21 19t10 31q16 23 28 55t20 61q3 11 9.5 14.5t14.5 2.5t16.5 -6t15.5 -11q6 -6 12 -9.5t14 -5.5t20 -2.5t32 -0.5h29.5t53.5 0.5t67.5 1t70.5 1t62.5 0.5h43.5q22 0 45 -0.5t42 0t33.5 2.5t20.5 7q6 6 13 10.5t14.5 7t14 0.5t11.5 -10
q10 -16 23 -40t30 -45z" />
    <glyph glyph-name="U" unicode="U" horiz-adv-x="627" 
d="M611 661q0 -10 -6 -14.5t-10 -19.5q-2 -7 -2 -33t0.5 -67.5t1 -98t0.5 -125.5t-16.5 -127t-51 -100t-87 -65.5t-124.5 -23.5t-125 25t-88 63.5t-52 84.5t-17 88q0 21 -0.5 62t-0.5 86t-0.5 86.5t-0.5 62.5q0 42 -0.5 68.5t-10.5 28.5q-5 1 -7 7.5t-1 13.5t5 13t11 6
q14 1 29 -3.5t42 -3.5q32 1 45 1t22 4q9 2 14.5 -11t3.5 -24q-2 -5 -6.5 -8.5t-9.5 -6.5t-8.5 -6.5t-3.5 -8.5t-1.5 -44.5t-3 -96t-2 -122t1.5 -122.5q2 -56 18.5 -92.5t41.5 -57.5t53.5 -28.5t54.5 -6.5q30 1 66.5 12.5t67.5 42t51 85.5t18 144q-1 45 -1.5 95t-1 93.5
t-0.5 74v35.5q0 7 -6 10t-12.5 6t-9.5 8.5t3 19.5q2 6 8.5 7.5t14.5 1t17 -1.5t17 -1h20.5t15.5 5q9 4 16 -1t7 -20z" />
    <glyph glyph-name="V" unicode="V" horiz-adv-x="615" 
d="M600 659q2 -11 -5 -20.5t-24 -8.5q-17 0 -34 -3t-26 -19q-3 -5 -12.5 -32t-23.5 -68t-30 -90t-32 -99t-30.5 -95t-24.5 -77q-15 -48 -24.5 -78t-17.5 -46.5t-15.5 -22t-17.5 -5.5q-20 0 -33.5 22.5t-24.5 60.5q-4 13 -14.5 48t-24.5 81.5t-29.5 98.5t-29.5 99t-24.5 83
t-14.5 51q-12 45 -21 64t-14 19h-8t-12 1t-11.5 4t-5.5 9q-1 15 0.5 24t4.5 13t7.5 5t10.5 1q13 0 33.5 -3.5t50.5 -3.5h31t31 0.5t27.5 1.5t18.5 2q7 1 11.5 -3.5t6.5 -10.5t1 -12t-6 -7q-10 -2 -16 -10t-4 -22q1 -4 6.5 -27t13.5 -56t17.5 -71.5t18 -73.5t15.5 -62t10 -37
q4 -15 9 -29t9.5 -23t9.5 -11t9 7q2 6 8.5 27.5t15.5 51.5t20 65t21 68t18.5 60.5t13.5 42.5q7 22 10.5 36t3.5 23t-4 14.5t-11 10.5q-8 5 -14.5 7.5t-11 4.5t-6.5 5t0 9q4 14 11.5 19t30.5 4q11 0 26.5 -0.5t31.5 -1t31 0t25 2.5q20 5 27.5 -1t10.5 -17z" />
    <glyph glyph-name="W" unicode="W" horiz-adv-x="968" 
d="M951 635q4 -15 -6.5 -19t-33.5 -2t-35 -10t-24 -38q-3 -7 -12.5 -33t-23.5 -64.5t-31 -85t-34 -95t-33.5 -95t-30 -84t-22 -62.5t-10.5 -31q-4 -12 -12.5 -17t-18 -5.5t-17.5 3.5t-11 11q-2 5 -11 24t-20.5 45t-25 56t-26 57t-21.5 47.5t-12 28.5q-10 23 -19.5 31.5
t-17.5 -9.5q-3 -5 -10 -24.5t-15.5 -47t-17.5 -58.5t-17.5 -59t-14.5 -48.5t-8 -27.5q-3 -11 -13.5 -14.5t-22.5 -1.5t-23 10t-16 21l-189 511q-11 29 -21.5 43.5t-20.5 21t-19.5 9.5t-16.5 9q-8 6 -5 15t10 16.5t16 12t14 2.5q11 -4 26.5 -8t51.5 -4q37 1 66 4t44 5
q7 0 12.5 -6t7.5 -13.5t1.5 -15t-4.5 -10.5q-9 -6 -15 -17.5t-3 -23.5q1 -4 7 -21.5t15 -42.5t19 -54t20 -56.5t18 -50t12 -34.5q6 -18 13 -32.5t13.5 -23.5t12 -10.5t8.5 6.5t15 39t27 67.5t28.5 70t19.5 46.5q13 28 32 22t48 -66q15 -31 31 -70t30.5 -72t25 -53t14.5 -13
q2 5 11.5 28.5t23 57t29.5 72.5t30 74t24.5 61.5t13.5 35.5q4 13 0.5 22t-10.5 14.5t-16 8.5t-16 4q-29 5 -10 36q8 14 25 12t45 -6q13 -2 29.5 -2.5t33 -0.5t30 0.5t21.5 1.5q17 2 25 -4t13 -21z" />
    <glyph glyph-name="X" unicode="X" horiz-adv-x="805" 
d="M774 643q-4 -1 -17 -7t-29 -14t-32 -16.5t-25 -14.5q-6 -4 -20.5 -19t-33.5 -35.5t-40.5 -44.5t-40.5 -45.5t-34 -38.5t-20 -23q-17 -20 -16 -30.5t16 -26.5q5 -5 21 -25.5t38 -48.5t46 -59.5t45.5 -58.5t36.5 -46.5t18 -22.5q12 -12 33 -18t30 -10q4 -3 4.5 -9t-1.5 -13
t-6 -12t-9 -5t-17.5 -0.5t-27.5 -0.5t-29 -0.5t-22 -0.5t-20.5 -1t-25.5 -2t-25.5 -2t-19.5 -1q-15 0 -15.5 13t3.5 21l10 16t-4 18q-4 4 -20 26.5t-36.5 50t-40.5 53.5t-32 38q-24 25 -34.5 27.5t-20.5 -5.5q-5 -4 -23 -25.5t-39.5 -47t-41 -48.5t-28.5 -32
q-17 -17 -29 -30.5t-5 -29.5q6 -15 5.5 -23t-5.5 -14q-7 -9 -29.5 -9t-45.5 4q-12 2 -24.5 1t-24 -2.5t-21 -3t-15.5 -0.5t-7 7t1 12.5t6.5 12.5t9.5 7q11 2 28 5.5t32 18.5q5 5 20.5 22t36.5 40t44.5 49.5t44.5 50t37 41.5t22 25q18 20 18 35.5t-15 32.5q-5 6 -18.5 22
t-32 37.5t-39.5 46t-40.5 48t-36 43t-25.5 31.5q-14 18 -27 28t-24.5 16t-21.5 9.5t-18 6.5t-10 10t0.5 14.5t8.5 13t14 5.5q16 0 47.5 -4.5t59.5 -5.5q14 0 32.5 2t36.5 4.5t33 5l21 3.5t9.5 -3.5t4 -11.5t-2 -13.5t-7.5 -8.5q-9 -4 -20.5 -10t-5.5 -16q3 -5 19 -26t36 -47
t39.5 -51t29.5 -38q20 -25 30 -38.5t24 1.5l161 164q14 14 17.5 27.5t-7.5 30.5q-5 8 -2 13t11.5 7.5t21 3t26.5 -0.5q13 -1 29 -0.5t32 2t29.5 3t20.5 2.5t11 -3.5t4.5 -10.5t-2 -11.5t-7.5 -6.5z" />
    <glyph glyph-name="Y" unicode="Y" horiz-adv-x="810" 
d="M785 665q2 -16 -4.5 -26t-28.5 -11t-40.5 -4.5t-35.5 -17.5q-6 -5 -19.5 -19.5t-31 -34t-37 -41.5t-37 -41.5t-31.5 -35t-20 -21.5q-17 -18 -27 -30t-10 -32v-206q0 -32 3 -52.5t18 -22.5t25.5 -13t10.5 -19q0 -28 -9.5 -35.5t-29.5 -6.5t-48 2.5t-51 2.5q-11 0 -27 -1.5
l-32 -3t-30 -2.5t-22 -1q-17 -1 -19.5 5.5t-6.5 27.5q-2 10 3 15.5t14 8t19 3.5t17 3q16 5 25.5 11.5t9.5 24.5q0 9 0.5 32t0.5 49t0.5 52t0.5 41t-1 26.5t-4 20.5t-8.5 17.5t-14.5 18.5q-6 7 -20.5 25.5t-33.5 42.5t-41 51.5t-43 53.5t-39 47t-29 32q-16 16 -25.5 23
t-16 9.5t-12 3t-13.5 3.5t-12 10.5t-4 15t3.5 13.5t9.5 6q14 -1 43 -3.5t86 -4.5q28 -1 47.5 0t34 3.5t24 5t17.5 3.5q9 1 12.5 -5t3 -13.5t-5.5 -14.5t-13 -8q-17 -3 -18.5 -13t4.5 -23q3 -7 19.5 -28t36.5 -46t39 -49t28 -36q17 -24 30 -30.5t28 5.5q5 4 17.5 18
t28.5 32.5t33.5 39.5t32.5 39.5t26.5 32.5t14.5 18q9 12 -4 19.5t-29 7.5q-17 1 -20.5 9t-3.5 28q0 9 5 12t12.5 1.5t17 -5t19.5 -6.5t29.5 -4t41 -0.5t40 2t27.5 2.5t18 2.5t16 1.5t11.5 -3t4.5 -10z" />
    <glyph glyph-name="Z" unicode="Z" horiz-adv-x="797" 
d="M778 135q-4 -8 -14.5 -17.5t-23 -20t-24.5 -21.5t-19 -21t-17.5 -22.5t-22 -24.5t-22 -21t-17.5 -10q-14 -3 -23 0.5t-19 8.5t-23 9.5t-34 4.5h-49h-81h-97h-96.5t-80.5 0.5t-48 0.5q-42 2 -51.5 16.5t10.5 34.5q80 78 152.5 157.5t130 147t96 115.5t50.5 63t22 28
t13.5 23t-1 16t-21.5 6t-51 1t-72 1.5t-74.5 0t-57.5 -3.5q-42 -5 -73 -18.5t-40 -22.5q-5 -5 -9 -11t-9 -10t-12 -5.5t-19 1.5t-15 8.5t-0.5 13t8.5 16t12 16.5q6 9 14 22t15.5 25.5t13.5 24t9 17.5q7 14 18.5 16.5t15.5 -6.5q4 -11 17 -24t46 -13q11 0 46 0.5t82.5 2
t101.5 2.5t102 2.5t84.5 2t48.5 0.5q19 0 26 -5.5t6 -14.5t-7 -19.5t-14 -19.5q-4 -5 -22.5 -26.5t-46 -54t-61.5 -73t-69 -82.5t-69 -82.5t-62 -74t-47 -57t-24 -30.5q-10 -14 -18.5 -24.5t-11 -17.5t3.5 -10t26 -1q14 1 46 0.5t73 -1t87.5 -0.5t89.5 2q24 1 48 12.5
t44.5 26t37 28t25.5 18.5q9 4 19 3.5t17.5 -4t11 -10t-0.5 -15.5z" />
    <glyph glyph-name="bracketleft" unicode="[" horiz-adv-x="884" 
d="M790 186q-28 -17 -70 -24t-105 4q-49 9 -101 24t-102 32.5t-96.5 35t-84.5 31.5t-65.5 22t-39.5 7q-23 -3 -38.5 -10.5t-25.5 -16t-16.5 -15t-12.5 -6.5q-11 0 -12.5 3.5t1.5 8t8 9.5l8 8l20 20t41 23t69.5 8t107.5 -25q64 -23 128.5 -35t121 -15.5t101 -0.5t69.5 9
q36 9 51.5 31.5t15.5 47t-14 44.5t-37 23q-11 2 -13 -2t-4 -2q-9 6 -7 14.5t10.5 16.5t21.5 13t28 3q52 -7 80.5 -43t34 -81.5t-12.5 -90.5t-60 -71z" />
    <glyph glyph-name="backslash" unicode="\" horiz-adv-x="412" 
d="M389 -110h-16t-6 0.5t-5.5 0.5h-16.5q-7 0 -27 47t-48 123t-61 172t-66.5 192.5t-64 185t-53.5 150.5q-7 18 -2.5 22.5t18.5 4.5h11t7.5 -0.5t8 -0.5h12.5q3 0 18 -34.5t37 -89.5t47.5 -124t49.5 -138q18 -51 38 -109t39.5 -114.5t36 -108.5t28 -92t16 -63.5t-0.5 -23.5z
" />
    <glyph glyph-name="bracketright" unicode="]" horiz-adv-x="1143" 
d="M1101 292q7 8 14.5 4t7 -13t-13 -21t-46.5 -20q-27 -7 -63.5 -2.5t-78.5 16.5t-88 29.5t-90.5 36t-86.5 37t-77 32.5q-52 21 -105.5 29t-101 4.5t-85.5 -17.5t-59 -37t-25 -46t2 -41t18 -29.5t23 -11.5q23 0 19 -17t-37 -29q-11 -4 -30.5 -8t-43 -4.5t-47 4t-43 17.5
t-32 36.5t-12.5 60.5q0 56 30.5 98.5t75 72t94.5 44.5t90 16q75 1 151 -18t147.5 -49t135 -66.5t114.5 -69.5t92.5 -46t73 -14t51 6.5t26.5 15.5z" />
    <glyph glyph-name="asciicircum" unicode="^" 
 />
    <glyph glyph-name="underscore" unicode="_" 
 />
    <glyph glyph-name="grave" unicode="`" 
 />
    <glyph glyph-name="a" unicode="a" horiz-adv-x="686" 
d="M642 50q19 -8 25 -16t2 -15.5t-17 -13t-32 -8.5q-19 -2 -47 3.5t-59 18t-61 30.5t-53 41l-8 8q-24 -52 -62 -77t-81 -29t-87 11t-79 44q-35 28 -49.5 70.5t-11.5 84.5t23 77t55 49q25 10 49.5 12t46.5 -1t41.5 -9t33.5 -12q-23 48 -43.5 86.5t-34.5 52.5q-16 15 -28.5 17
t-21.5 -4t-13.5 -17.5t-4.5 -22.5q0 -23 -10.5 -42.5t-36.5 -21.5t-45.5 16t-19.5 48q0 15 8 29.5t21.5 26t30.5 19t35 9.5q61 4 115.5 -29t118.5 -110q32 -39 72 -90t81 -99t79.5 -86t67.5 -50zM353 155q-14 23 -27.5 50.5t-27.5 56.5q-18 11 -49.5 22t-79.5 6
q-30 -3 -40 -21.5t-8 -42.5t13 -47.5t23 -35.5t30 -28t39.5 -29t44.5 -20t46 0q27 8 33 34t3 55z" />
    <glyph glyph-name="b" unicode="b" horiz-adv-x="666" 
d="M647 248q0 -64 -23 -110.5t-59 -77t-81 -45t-89 -14.5q-40 0 -69.5 2.5t-55.5 11.5t-51 27t-56 50v-34q0 -9 4 -15.5t8.5 -11t8.5 -9t4 -8.5q0 -10 -12 -10.5t-29 -0.5t-22 2.5t-19 2.5t-30.5 -1t-31.5 -1t-22.5 11t-4.5 17q1 3 6 5t10 4.5t9.5 6.5t4.5 10v575
q0 9 -9 14.5t-8 13.5q1 4 10 5t21.5 1t26.5 -1t25 -1q17 0 35.5 1t32.5 -1q14 -1 12 -7.5t-9 -12.5q-4 -3 -7.5 -4.5t-6.5 -6.5t-5 -15.5t-2 -31.5v-183q13 12 34 27t49.5 29t62.5 23.5t73 9.5q52 0 100 -14.5t84.5 -45t58.5 -77t22 -110.5zM501 246q0 27 -3.5 63.5t-16 69
t-37.5 55t-68 22.5q-45 0 -79 -12t-59 -29.5t-43 -37t-32 -34.5v-218q11 -12 28.5 -26t44 -26t62 -20t81.5 -8q48 0 73 17.5t36 46t12 64.5t1 73z" />
    <glyph glyph-name="c" unicode="c" horiz-adv-x="549" 
d="M535 119q-4 -8 -19.5 -29.5t-45.5 -44.5t-75 -41.5t-106 -19.5q-39 -1 -88.5 11.5t-92 42t-70.5 78t-25 120.5q3 75 31.5 124t67.5 77.5t81 40t71 11.5q34 0 53.5 -2t31.5 -5.5t19.5 -7t17.5 -6.5q9 -3 21.5 4.5t15.5 18.5q1 7 4.5 7t7.5 -4t8 -9t6 -9q1 -3 5 -13
t10 -21.5t13.5 -23t14.5 -18.5q15 -16 10 -27t-12 -13q-8 -2 -23.5 4t-44.5 33q-14 13 -33.5 23.5t-40.5 18t-42 11.5t-38 3q-25 -2 -49.5 -17.5t-43.5 -42.5t-30.5 -65t-9.5 -84q2 -54 17.5 -94t40 -66.5t56 -39.5t66.5 -13q34 0 67.5 15.5t60.5 34.5t44 36.5t18 22.5
q1 4 7.5 4.5t13 -2t10 -8.5t-0.5 -15z" />
    <glyph glyph-name="d" unicode="d" horiz-adv-x="636" 
d="M612 36q7 0 8.5 -6.5t0 -14t-5.5 -13t-9 -4.5t-16 1.5t-24.5 0t-29 -1t-28.5 -0.5q-27 -2 -38 -1.5t-13 17.5l-2 26q-25 -12 -63.5 -24t-89.5 -14q-43 -2 -93.5 11t-93.5 44t-72 82t-29 126q0 48 15 87t40 68.5t56.5 50.5t65.5 33.5t66.5 17.5t59.5 3q48 -4 81 -14.5
t56 -22.5v146q0 17 -8 19t-19 6q-9 5 -4.5 16.5t23.5 13.5q20 2 49.5 1t55.5 -3q12 0 18 -6t8.5 -15t2 -19.5t-0.5 -20.5v-565q0 -14 3 -19.5t7.5 -6.5t10.5 0t12 1zM454 116v295q-8 11 -19.5 23t-27.5 21.5t-37 15.5t-49 6q-49 -1 -81.5 -20.5t-52 -51t-27 -70.5t-5.5 -78
q1 -32 13.5 -68.5t35 -67t54 -49.5t71.5 -16q51 5 80 14.5t45 18.5v27z" />
    <glyph glyph-name="e" unicode="e" horiz-adv-x="619" 
d="M602 346q3 -20 -2.5 -29t-17.5 -12t-29.5 -2t-39.5 1q-13 0 -39.5 0.5t-60 1.5t-71 2t-72 2.5t-63.5 2.5t-45 2q-2 -8 -2.5 -17.5t-1.5 -19.5q-2 -33 13.5 -72.5t43.5 -73.5t66 -56.5t81 -22.5q45 0 76.5 13t52.5 30.5t32.5 34.5t16.5 26q9 17 23 22t22 -3q4 -5 6 -19
t-7 -34t-33 -45.5t-70 -52.5q-45 -27 -104 -34.5t-117 0.5t-107.5 30.5t-75.5 56.5q-13 17 -26.5 44t-22 60t-11 70t6.5 73.5t31 71t62 62.5q36 26 84 42t99.5 20.5t102.5 -3.5t92.5 -29t70.5 -56.5t36 -86.5zM464 361q-9 35 -27 64q-16 24 -43.5 44t-72.5 20
q-31 0 -55.5 -10.5t-43 -28t-30.5 -40t-19 -47.5z" />
    <glyph glyph-name="f" unicode="f" horiz-adv-x="704" 
d="M675 762q11 -32 1 -49t-35 -17q-13 0 -25 5.5t-21.5 13.5t-16.5 18t-10 18q-3 9 -3.5 19t-0.5 19.5t-1.5 17t-7.5 10.5q-29 17 -60.5 23t-66.5 5q-56 -1 -93 -23.5t-60.5 -55.5t-34.5 -72.5t-15.5 -74t-4.5 -60v-30.5l24 -2h46q15 0 19 -10.5t4 -18.5t-6.5 -15.5
t-32.5 -7.5h-55q-2 -6 -2 -9.5v-5.5v-371q0 -20 6 -28.5t13.5 -12t14 -4.5t6.5 -6t0.5 -11t-1 -11.5t-5.5 -10t-13 -5.5q-17 -2 -41.5 -1t-53.5 1q-24 0 -38 -0.5t-31 -0.5t-25.5 2.5t-10.5 10.5q-2 11 0 17t7 9t12 5t15 5t12 6.5t5 9.5t0.5 16t-0.5 27q0 11 0.5 41.5t1 70
t1 83t1.5 81t2 63t2 28.5l-57 2q-14 1 -19 9t-5 22q0 13 5.5 16.5t24.5 3.5h65q9 108 41 176.5t75.5 107.5t92.5 53.5t92 14.5q64 0 111 -12.5t79 -30.5t50 -38t23 -36z" />
    <glyph glyph-name="g" unicode="g" horiz-adv-x="840" 
d="M655 699q6 -21 6 -41t-8 -35.5t-24.5 -25.5t-42.5 -11t-41.5 10t-23.5 24.5t-10 25t-1 11.5q-19 -1 -31 -10t-19.5 -21t-11.5 -24.5t-7 -20.5t-10.5 -9.5t-14 2.5t-11 14t-1.5 25t9.5 36t20 42t35.5 38.5t56 26.5q15 4 35 3.5t39 -6.5t34.5 -19.5t21.5 -34.5zM741 411
q57 -65 64 -128t-24 -117t-93.5 -96.5t-143.5 -66.5q-54 -16 -115.5 -19.5t-122 5.5t-115 30.5t-93.5 55.5t-58.5 80.5t-9.5 105.5t35.5 100.5t59.5 70t74 44.5t79.5 24.5t75.5 11t62 2.5q39 0 84 -4t89 -15t83.5 -31t68.5 -53zM667 -283q10 80 -72.5 113.5t-251.5 31.5
q-84 -1 -136 2.5t-78.5 14.5t-29.5 30.5t12 51.5q2 6 8 11t14 8t16 4t14 -1q11 -4 13.5 -13t-8.5 -17q-6 -3 -13.5 -9t-9.5 -13.5t4.5 -15t28.5 -13.5t53.5 -3t76.5 6.5t106.5 3.5t142.5 -12q54 -8 97.5 -30t72.5 -51t42.5 -62.5t6.5 -64.5t-35.5 -57t-82.5 -40
q-167 -43 -296 -40.5t-214 47.5q-42 22 -54 58.5t0.5 73t47 65.5t85.5 37q37 5 53.5 -6t0.5 -48q-8 -19 -12 -42t2 -46t24.5 -43t54.5 -32q24 -8 56 -11t66 -0.5t68 10.5t61 21.5t45 33.5t21 47zM734 190q0 9 -17.5 29.5t-50.5 46.5t-78.5 54.5t-101.5 53.5t-120.5 43
t-133.5 24q-20 1 -43.5 -10t-41.5 -30.5t-25 -45t7 -52.5q9 -18 42 -42t77.5 -49t95.5 -50t97.5 -44.5t81.5 -32t48 -13.5q21 -2 49 11t53 32t42.5 40t18.5 35z" />
    <glyph glyph-name="h" unicode="h" horiz-adv-x="901" 
d="M882 25q0 -7 -22.5 -17.5t-55 -15t-68.5 2.5t-64 35q-18 18 -42 50.5t-50 71.5t-52 80.5t-50 78.5t-43 64.5t-30 39.5q-17 17 -36.5 33.5t-45 23.5t-58 1t-74.5 -33v-356q0 -15 7.5 -24.5t16.5 -16.5t16.5 -13t7.5 -12q0 -13 -6.5 -15t-32.5 -2h-170q-7 0 -10 4t-3 9.5
t3 10t9 5.5q11 1 22 16t11 57v542q0 20 -4.5 25t-17.5 8q-14 3 -11.5 8.5t12.5 5.5h128q31 0 35.5 -8t-1.5 -19q-7 -11 -9.5 -16.5t-2.5 -20.5v-128q26 13 69.5 24.5t106.5 11.5q57 0 102.5 -25t85 -68t76 -100.5t76.5 -121.5t72 -100t55 -55t35.5 -26.5t12.5 -14.5z" />
    <glyph glyph-name="i" unicode="i" horiz-adv-x="244" 
d="M183 672q0 -6 -2.5 -17.5t-9.5 -22t-19.5 -18.5t-31.5 -8t-34 8t-25 20t-15.5 25t-5.5 23t7 19.5t17.5 17t24 12t26.5 4.5q24 0 37.5 -7.5t20 -17.5t8.5 -21t2 -17zM218 5q-6 -2 -9.5 -3.5t-7 -2.5t-9.5 -0.5l-18 1.5q-36 3 -60.5 4t-50.5 -3t-37 0.5t-13 18.5q0 7 4 13
t9.5 11.5t9.5 11t4 13.5v38t0.5 79.5t1 100t1 99t0.5 76.5v33q-1 7 -3.5 10t-5 4.5t-5 3.5t-3.5 7q-2 4 6 5t21 1h27.5t26.5 1q10 1 21 1.5t20.5 -1t16 -6t6.5 -14.5v-422q0 -6 5.5 -12.5t12.5 -12.5t14.5 -10t11.5 -5t7.5 -7t4.5 -12.5t-1 -12.5t-8 -8z" />
    <glyph glyph-name="j" unicode="j" horiz-adv-x="225" 
d="M119 708q32 0 49.5 -19.5t18 -42.5t-18 -42.5t-57.5 -19.5t-55 19.5t-13 42.5t23 42.5t53 19.5zM198 -275q0 -37 -6 -76t-21.5 -71t-42 -52.5t-66.5 -20.5q-32 0 -51 7.5t-28.5 17t-11.5 18.5t0 13q1 3 15.5 9t31.5 19.5t31.5 36t16.5 59.5t2.5 94t-0.5 117.5t-2 116.5
t-2 91q-1 23 -1 56v68.5t1 71.5t1.5 66t1 50t0.5 25q0 7 -7 12t-15.5 9.5t-15.5 9t-7 10.5q0 13 4 20t21 5q32 -3 53.5 -4.5t36.5 -1t26 2t22 3.5q5 1 7.5 -6t3.5 -17.5t1 -22v-20.5v-35.5v-80v-109.5t0.5 -125.5t0.5 -126.5v-112.5v-84.5v-42z" />
    <glyph glyph-name="k" unicode="k" horiz-adv-x="691" 
d="M663 31q3 -1 6 -7t3 -12.5t-3.5 -11t-13.5 -3.5q-20 2 -49 6.5t-59 0.5q-30 -3 -47 -4.5t-28 3.5q-10 6 -13.5 18.5t4.5 12.5q4 1 10.5 3.5t11.5 6t8 9t1 11.5q-1 4 -10.5 25.5t-23 52.5t-29.5 66t-30 66.5t-24 54.5t-12 29l-189 -209q-2 -32 -2.5 -54t-0.5 -28
q0 -23 5.5 -31.5t9.5 -16.5q2 -5 -3.5 -9.5t-14.5 -8t-20 -4.5t-20 2t-23 3t-28 -0.5t-26 -2t-17 -1.5q-10 0 -15.5 5.5t-7 13t1 14t9.5 8.5q23 6 31.5 23.5t8.5 30.5v619q0 16 -3.5 23t-8.5 11t-9.5 8.5t-5.5 15.5q-2 12 19 15t56 3q27 0 43 -3.5t25 -9.5t12 -13t3 -14
t-1 -38.5t-2 -69.5t-2 -75t-1 -55q0 -11 -1 -37.5t-2.5 -63t-3 -79t-2.5 -84.5l44.5 44.5t57 56t61 59.5t56 55.5t43.5 43t22 21.5q8 8 8 13t-4.5 9t-11 6t-12.5 4q-6 1 -5 6t6.5 10.5t14.5 8.5t20 1q20 -5 47.5 -8.5t47.5 -5.5q10 -1 13 -5.5t1.5 -9.5t-6.5 -8.5t-12 -2.5
q-14 2 -29.5 -2t-20.5 -10l-53 -60q5 -14 18 -49.5t30 -80.5t36 -94t35 -90t27 -69t13 -31q6 -9 17.5 -17t18.5 -10z" />
    <glyph glyph-name="l" unicode="l" horiz-adv-x="216" 
d="M201 9q0 -12 -13.5 -11t-41.5 3q-14 1 -31.5 1.5t-34 0.5t-30.5 -0.5t-20 -1.5q-7 -1 -10.5 3t-3.5 9.5t2.5 11t7.5 8.5q11 6 19.5 17t8.5 30v31v65t0.5 87.5t0.5 98.5l2 263q1 10 0 21q-1 8 -4 14.5t-8 6.5q-6 0 -10.5 6.5t-5.5 14.5t2.5 14.5t14.5 6.5q21 0 52.5 -3
t57.5 -5q24 -2 26.5 -17.5t0.5 -36.5q0 -7 -1 -46t-2.5 -94.5t-3 -119.5t-3 -121.5t-2.5 -101t-1 -56.5q0 -40 3 -54.5t14 -16.5q12 -2 13 -9t1 -19z" />
    <glyph glyph-name="m" unicode="m" horiz-adv-x="949" 
d="M926 31q8 -5 8.5 -13t-5.5 -15.5t-17 -12.5t-26 -4t-41.5 4.5t-54 20t-52.5 53t-37 103.5q-8 45 -23 88t-34.5 79.5t-42 66t-44.5 47t-42 22t-35 -7.5l-16 -13q18 -22 28 -44q5 -11 14.5 -33t21.5 -49t24.5 -57t24.5 -57.5t21.5 -50t14.5 -34.5q9 -21 19.5 -32t19.5 -17
t14.5 -10t4.5 -11q-1 -8 -4.5 -18t-12 -19t-23 -14.5t-36.5 -3.5q-31 3 -61 28.5t-57.5 66t-51 92t-41.5 105.5q-24 75 -43.5 127.5t-52.5 72.5q-10 6 -25 10t-29.5 6.5t-24.5 2.5t-10 -2v-235q0 -24 -0.5 -61l-1 -74t0 -67t2.5 -40q5 -21 -9.5 -26.5t-43.5 -5.5h-31h-33
t-29.5 0.5t-20.5 1.5q-15 2 -18 17t10 23q12 8 27.5 21t15.5 25v401q0 17 -10.5 23t-21.5 10q-5 2 -5 7t4 10.5t10.5 10t14.5 4.5h21h35.5t56.5 -0.5t85 -1.5q34 0 63 -8t53 -20.5t43 -28t34 -31.5q6 10 16.5 23.5t25.5 25.5t35 19.5t44 6.5q52 -4 91 -34t68.5 -73.5
t51.5 -95t40 -97.5q35 -91 61 -144.5t42 -62.5z" />
    <glyph glyph-name="n" unicode="n" horiz-adv-x="810" 
d="M765 -7q-17 -14 -42.5 -16.5t-52.5 5.5t-53.5 24.5t-45.5 39.5q-15 18 -33.5 50.5t-39 72t-42 83t-42 83t-39.5 71.5t-34 49q-12 13 -27 20t-30 10.5t-28 4t-22 0.5q-18 0 -35 -2.5t-17 -12.5v-397q0 -24 3.5 -33t11.5 -9t14.5 -7t2.5 -21t-22 -13t-42 3q-12 0 -28 -0.5
t-32.5 -0.5h-30.5t-21 1q-8 0 -12 5t-4.5 10.5t2 10.5t7.5 5q11 2 12.5 8.5t1.5 17.5v398q0 18 -5 21t-16 4q-5 1 -4 8.5t5.5 16.5t12.5 17t17 9q8 0 40.5 0.5t75 0t86.5 -1.5t76 -4q31 -3 60 -15.5t57.5 -38.5t57.5 -66.5t61 -99.5q31 -59 54.5 -98.5t43 -65.5t37 -42
t37.5 -28q16 -10 28 -18.5t16.5 -17t0 -18.5t-20.5 -23z" />
    <glyph glyph-name="o" unicode="o" horiz-adv-x="600" 
d="M573 258q0 -35 -13 -81t-43 -87t-77.5 -69.5t-116.5 -28.5q-79 0 -136 21t-94 59t-54.5 90.5t-17.5 114.5q0 64 23.5 112t62.5 79t88.5 46t101.5 13.5t101.5 -19t88.5 -51.5t62.5 -83.5t23.5 -115.5zM476 110q12 18 13 48t-12 66t-40.5 74.5t-72.5 73.5q-87 68 -143 81
t-93 -33q-14 -17 -19.5 -44.5t2 -61.5t30.5 -71.5t67 -74.5q41 -34 83.5 -54t79.5 -27t65 -1t40 24z" />
    <glyph glyph-name="p" unicode="p" horiz-adv-x="720" 
d="M703 242q0 -60 -23.5 -106.5t-62.5 -78.5t-89.5 -48.5t-104.5 -16.5q-38 0 -72 9.5t-62.5 23.5t-51.5 29.5t-38 28.5q1 -39 2 -75t1.5 -64t0.5 -46.5v-23.5q0 -13 0.5 -20t2.5 -11.5t6 -8t12 -9.5q14 -11 3 -21t-27 -10t-28.5 4t-31.5 2q-15 -2 -23 -2.5t-13 -1l-10 -1
t-14 -1.5q-17 -2 -22.5 14t-3.5 34v30t-0.5 66.5t-1 90.5t-1 102.5t-1.5 103.5t-1.5 92.5t-1.5 70t-2 35.5q-2 14 -5 17.5t-7 4.5t-7 2t-4 10q-3 18 5 26t23 4q14 -3 38.5 -2.5t55.5 2.5q32 2 45.5 -2t14.5 -14q1 -9 -5 -17.5t-6 -28.5v-25q15 13 36 26.5t48 24.5t60.5 18.5
t74.5 7.5q60 0 113 -16t92.5 -46.5t62.5 -76.5t23 -106zM572 237q-1 19 -8.5 51.5t-26.5 64.5t-51.5 55.5t-84.5 25.5q-42 1 -75 -7.5t-58 -22.5t-43 -31t-30 -32l3 -195q16 -18 37 -36.5t47 -33.5t57 -24t66 -7q61 3 95 28t50.5 57t19.5 62.5t2 44.5z" />
    <glyph glyph-name="q" unicode="q" horiz-adv-x="655" 
d="M638 470q-3 -6 -11 -23t-8 -29l-3 -547q0 -9 6.5 -21.5t5.5 -20.5q-1 -4 -9.5 -4.5t-20.5 0.5t-25.5 2.5t-23.5 1.5q-17 0 -34 -3.5t-31 -1.5q-14 1 -13.5 10t8.5 15q7 6 13.5 26t6.5 62v157q-14 -12 -35 -28.5t-48.5 -31.5t-61 -26t-71.5 -11q-53 0 -101 16t-85 47.5
t-59 79t-22 111.5t24.5 111t62.5 78.5t84.5 47t90.5 16.5q76 2 134.5 -24.5t86.5 -72.5v38q0 9 -4.5 15.5t-9.5 11.5t-8.5 9t-1.5 9q3 12 12 13.5t20 -0.5t22.5 -6t20.5 -4q13 0 21 1t15 1.5t15 1.5t21 1q15 0 17 -11t-1 -17zM499 361q-11 12 -28.5 29.5t-44 33.5
t-61.5 25.5t-81 4.5q-47 -5 -76.5 -27t-45.5 -52t-22 -63t-7 -60q0 -17 5 -50t21.5 -67t46.5 -60.5t80 -30.5q45 -3 78.5 7.5t58.5 27.5t43 36.5t33 34.5v211z" />
    <glyph glyph-name="r" unicode="r" horiz-adv-x="606" 
d="M590 415q-1 -6 -6 -17t-15 -20t-24.5 -13.5t-33.5 1.5q-18 6 -27.5 21t-10.5 32t6.5 31.5t22.5 18.5q5 1 5.5 8t-8.5 14.5t-29 13t-56 4.5q-24 -1 -54 -9t-62 -21t-64.5 -30.5t-61.5 -36.5v-324q0 -17 5 -26t11.5 -15.5t11.5 -13t5 -19.5q0 -16 -25.5 -14.5t-69.5 1.5
q-14 0 -30.5 -2t-30.5 -2t-23 3t-9 14q0 12 5 17.5t11 11t11 13.5t5 25v396q0 5 -5 7t-11 3.5t-11 3.5t-5 7t-0.5 9t4 6.5t16.5 4t38 1.5q51 0 74 -3t23 -26v-24q28 18 63 36t74 31t79.5 18.5t79.5 -2.5q52 -11 78 -31t36 -41t9.5 -38.5t-1.5 -23.5z" />
    <glyph glyph-name="s" unicode="s" horiz-adv-x="781" 
d="M765 195q0 -46 -26 -84t-70.5 -65t-103.5 -41.5t-125 -13.5q-55 0 -103 3.5t-84 8t-58 8.5t-25 7q-5 3 -8 -3.5t-6 -15.5t-6.5 -17.5t-10.5 -9.5q-10 -2 -22 1.5t-33 24.5q-17 17 -36 47t-32 59q-4 9 -0.5 15.5t12.5 9t21.5 0t26.5 -12.5q32 -23 56.5 -38t56.5 -23.5
t79 -12.5t124 -5q66 -2 119.5 9t92.5 28t61 36.5t25 35.5q6 32 -28.5 48.5t-109.5 23.5q-36 3 -79.5 11.5t-82 26t-65.5 45.5t-31 70q-3 30 7.5 52.5t28.5 39t42 27.5t47 17.5t43.5 9t32.5 2.5q18 0 35 -1.5t30 -3.5l28 -4l2 12q1 5 1.5 10.5t0.5 10.5q0 4 5 9t11.5 8
t13.5 3.5t11 -3.5q8 -9 23.5 -28t34.5 -46q10 -14 20 -24t17.5 -17t10.5 -12t-1 -9q-9 -10 -20.5 -18t-27.5 4q-9 7 -27 17t-40.5 19t-47.5 16t-47 9q-45 4 -77.5 -9t-35.5 -33q-2 -19 30 -32t107 -33q36 -10 74 -20.5t69 -28t50.5 -46t19.5 -74.5z" />
    <glyph glyph-name="t" unicode="t" horiz-adv-x="316" 
d="M229 504v-10v-364q0 -45 9 -74t29 -25q10 2 17.5 -1.5t9 -10.5t-5 -15t-24.5 -15q-12 -5 -32 -4.5t-41.5 9t-41.5 27t-33 49.5t-18.5 54t-7 44t-1 43.5t0.5 52.5v234v6h-53q-8 0 -14 6.5t-8 14.5t-0.5 14.5t8.5 6.5h66q1 11 5.5 18t16.5 15q11 7 22 18.5t21 24.5
t17.5 25.5t12.5 22.5t12.5 15.5t15 4t13 -11.5t5.5 -32q0 -32 -0.5 -53t-0.5 -47h48q13 0 18 -6.5t5 -14.5t-3 -14.5t-6 -6.5h-62z" />
    <glyph glyph-name="u" unicode="u" horiz-adv-x="923" 
d="M845 498q40 -2 53 -9.5t6 -18.5t-31 -26t-57 -31q-36 -18 -67.5 -52t-64 -78t-68 -94t-79.5 -99q-26 -29 -63 -47t-78.5 -28t-84 -13.5t-78.5 -3.5t-62.5 1.5t-36.5 2.5q-15 1 -24.5 1t-17 -1.5t-15.5 -2.5t-21 -1q-25 0 -36.5 11t3.5 25q8 7 16 11t14.5 10t10.5 16t4 28
v330q0 7 -4.5 11t-10 7.5t-10 6.5t-5.5 8q-2 10 4 22t26 12h144q16 0 21 -3t5 -14t-3.5 -22.5t-16.5 -11.5t-13 -10v-27v-345q0 -5 8 -8t21.5 -4t30.5 -0.5t34 3.5q18 3 44 15.5t59 38.5t71 66.5t79 99.5t77.5 102t71.5 70.5t70.5 40.5t73.5 11z" />
    <glyph glyph-name="v" unicode="v" horiz-adv-x="642" 
d="M626 532q4 -7 -5.5 -18.5t-26.5 -11.5q-8 0 -13 -3.5t-8.5 -9.5t-7 -14t-9.5 -17q-4 -6 -20 -36t-37.5 -73t-46.5 -92.5t-46.5 -94t-37 -78t-18.5 -43.5q-9 -30 -19.5 -43.5t-19.5 -13.5t-19.5 19t-24.5 50q-3 8 -19 43t-38 83.5t-47 103t-46.5 100.5t-35.5 77t-14 33
q0 4 -4 4.5t-9.5 0.5t-12.5 1t-13 7t-7 13.5t1.5 14t8.5 10.5t14 3q10 -1 30.5 -0.5t43.5 1t43.5 1.5t30.5 1t16 -6t8 -12.5t0.5 -12.5t-7.5 -6q-21 0 -17 -19q0 -1 7 -14.5t18.5 -35.5t26.5 -49.5t30 -56.5l81 -154l158 320q-5 -1 -9 -1h-9q-17 -2 -30 0q-6 0 -10 4.5
t-4 10.5t4 11t14 6q19 2 42.5 2h52.5q28 0 42.5 0.5t18.5 -5.5z" />
    <glyph glyph-name="w" unicode="w" horiz-adv-x="876" 
d="M850 539q4 -7 1 -20t-20 -13t-28 -11.5t-23 -29.5q-4 -6 -20 -36t-37.5 -73t-46.5 -92.5t-46.5 -94t-37 -78t-18.5 -43.5q-10 -31 -20 -44.5t-19 -13.5t-18.5 19.5t-25.5 50.5q-8 15 -20 40.5t-24 50.5l-30 60q-8 -19 -19 -43.5t-22 -48t-19.5 -43t-11.5 -28.5
q-11 -31 -20.5 -44.5t-18.5 -13.5t-19.5 19.5t-24.5 50.5q-5 10 -22 46t-39.5 83.5t-47.5 101t-46 98.5t-34.5 76t-13.5 34q0 5 -4 5.5t-9.5 0.5t-12.5 1t-13 7t-7 13.5t1.5 14t8.5 10.5t14 3q10 -1 30.5 -0.5t43.5 1t43.5 1.5t30.5 1t16 -6t8 -12.5t0.5 -12.5t-7.5 -6
q-21 0 -17 -19q0 -2 7.5 -16.5t19.5 -37t27 -50t30 -55.5l81 -151l27 57q11 24 22.5 51t20.5 50q5 13 10.5 24t10.5 19q9 14 18 19.5t17 -11.5q7 -16 23.5 -50t34.5 -70l45 -89l37 72q15 29 31.5 60t27.5 49q11 17 25 41t27 46q8 13 15.5 26t15.5 26q-8 -1 -14.5 -1h-13.5
q-11 -1 -22.5 -1t-17.5 1q-6 0 -10 4.5t-4 10.5t4 11t14 6q19 2 42.5 2h52.5q28 0 42.5 0.5t18.5 -5.5z" />
    <glyph glyph-name="x" unicode="x" horiz-adv-x="658" 
d="M637 8q0 -6 -6.5 -9t-16.5 -3.5t-22 1t-22 3.5q-21 4 -44.5 2.5t-55.5 -3.5t-50 -0.5t-19 21.5q0 7 5.5 10.5t11.5 6t9 5.5t-3 10q-4 5 -21 30t-40 57q-3 4 -9.5 13t-14.5 21t-17 25t-17 25l-135 -151q-6 -8 -9 -14.5t2 -8.5q6 -2 12.5 -12t8.5 -17q1 -6 -5 -13t-20 -7
t-28 1t-28 3t-30 -1.5t-33 -3.5t-20 8t-3 24t17 19.5t32 3.5q-3 0 7 2q4 2 8.5 4.5t10.5 7.5q3 3 20 22.5t42.5 48.5t56 64.5t59.5 68.5q-24 33 -46.5 67t-41 62t-31 45.5t-15.5 17.5q-33 -3 -49.5 5t-21.5 19t-0.5 21t13.5 12q18 3 46.5 1.5t48.5 -3.5q9 -1 22.5 -1h28
t27 0.5t20.5 0.5q14 0 14 -5.5t-4.5 -14.5t-9 -19.5t0.5 -20.5q2 -3 20.5 -27t53.5 -72q32 36 47 51.5t18 19.5q12 12 20.5 25t-0.5 19t-8.5 20.5t3.5 22.5q2 3 11.5 4t21.5 0.5t25 -1.5t24 -1q20 0 41 -0.5t41 -0.5q10 0 12.5 -8.5t1 -19t-6 -19t-8.5 -8.5h-14t-18.5 -1
t-18 -2t-12.5 -3q-2 -1 -13.5 -12t-30 -30.5t-44 -46.5t-54.5 -59l176 -236q7 -10 12 -16t10 -10t11.5 -6t17.5 -3q23 -2 25.5 -11t0.5 -20z" />
    <glyph glyph-name="y" unicode="y" horiz-adv-x="872" 
d="M829 481q-5 -7 -18.5 -11.5t-30 -7.5t-32 -5t-23.5 -4t-20.5 -18.5t-35.5 -52.5t-59.5 -93.5t-92.5 -142.5q-60 -90 -133 -179.5t-152 -165t-161 -132t-160 -81.5q-77 -25 -129 -27t-84.5 7t-49.5 23.5t-24 21.5t-14 25.5t-7 39.5t9 41t35 30q30 12 52 8t36 -16t21.5 -29
t8.5 -30q1 -11 -3 -22t-8.5 -20.5t-7.5 -16t1 -8.5q45 -14 96 -1.5t103.5 40t103 64.5t94.5 73q25 20 53 48.5t57 62t59 71t59 76.5q-12 19 -33.5 53.5t-46.5 76t-51.5 85.5t-49.5 81.5t-39 64.5t-20 34q-14 25 -31 30.5t-29 8.5q-6 1 -9 7.5t-3 13.5t4 13.5t13 7.5
q17 2 36 -4.5t47 -6.5q36 0 62 6t41 9q14 2 30.5 -7t16.5 -23q0 -8 -4.5 -12.5t-10 -8.5t-8.5 -8t0 -10q2 -3 13 -22t27.5 -46.5l36 -60t38.5 -63.5t34.5 -57t24.5 -40q31 45 58.5 85.5t49.5 73.5t37.5 55.5t21.5 30.5q13 18 4 37t-29 26q-9 3 -10 8.5t3.5 11.5t14 11
t20.5 6q21 2 36.5 -1.5t28.5 -3.5q15 0 45 -3t58 3q26 6 32.5 -5t-2.5 -25z" />
    <glyph glyph-name="z" unicode="z" horiz-adv-x="611" 
d="M594 102q-2 -6 -2.5 -9.5t-2 -8t-3.5 -12t-7 -21.5t-5.5 -26t-0.5 -21t-1.5 -14.5t-7.5 -5.5q-6 -1 -10 2t-7.5 7.5t-8 8.5t-11.5 4h-37t-78.5 -0.5t-100.5 -0.5t-101.5 -0.5t-82 -0.5h-42.5q-12 -1 -18 -1t-9 2t-4 6t-4 12t0.5 17t10.5 18.5t16 18.5l17 17q5 5 18 22.5
t29.5 41t35.5 51t36.5 53.5t31.5 47l22 33q12 16 27.5 34.5t29 33.5t21.5 25t5 10t-19 1t-39 2.5t-49.5 3t-51 2t-43 -1t-24.5 -4.5q-9 -5 -23 -14.5t-29 -18t-28.5 -13t-21.5 1.5q-11 7 -7.5 19t12 25t18 25.5t10.5 20.5q2 17 15 23t24 3q5 -1 7 -4t3.5 -6t4 -5t8.5 -2h27
h56t71.5 0.5t73.5 0.5t61.5 0.5t35.5 1.5q14 1 27.5 3t25.5 2t22.5 -3t17.5 -12q6 -8 6 -15.5t-4.5 -15.5t-12.5 -17.5t-17 -22.5q-6 -9 -26.5 -36.5t-48 -65t-59 -79t-58.5 -77t-46.5 -60.5t-23.5 -29q-11 -15 -13 -22.5t12 -7.5h24.5h46t56.5 -0.5t56.5 0t45.5 1t23 1.5
q5 1 14.5 8.5t19.5 17t19.5 19t14.5 15.5q11 12 22 8t8 -16z" />
    <glyph glyph-name="braceleft" unicode="{" 
 />
    <glyph glyph-name="bar" unicode="|" horiz-adv-x="126" 
d="M97 765q0 -47 1 -109t2 -132t2.5 -143.5t2.5 -143.5t1 -132t-1.5 -109t-4 -74t-7.5 -27h-16.5t-5.5 -0.5t-6 -0.5h-16q-4 0 -7.5 23.5t-6.5 63t-5.5 91.5t-4.5 108.5t-3 114.5t-1 110q0 70 0.5 139t2 124t4 89t5.5 34h12.5t8 0.5t7.5 0.5h11q14 0 19.5 -4.5t5.5 -22.5z
" />
    <glyph glyph-name="braceright" unicode="}" 
 />
    <glyph glyph-name="asciitilde" unicode="~" horiz-adv-x="432" 
d="M411 288q-2 -16 -5 -30t-12 -28q-12 -20 -37.5 -34.5t-70.5 -16.5q-28 -1 -48.5 8.5t-37.5 22.5t-33 24t-35 13q-18 2 -32.5 -2t-24.5 -11t-15.5 -14.5t-6.5 -13.5q-1 -5 -6.5 -7.5t-11.5 -1.5q-3 1 -9 3.5t-6 10.5q0 9 7.5 25t22.5 31.5t38 26.5t55 10q28 -1 46.5 -8
t32 -15t26 -16t29.5 -11q21 -4 34.5 -0.5t23.5 11.5t19 19.5t21 23.5q4 4 10.5 3t12 -5t9.5 -9.5t4 -8.5z" />
    <glyph glyph-name="uni007F" 
 />
    <glyph glyph-name="Euro" unicode="&#x20ac;" 
 />
    <glyph glyph-name="quotesinglbase" unicode="&#x201a;" 
 />
    <glyph glyph-name="quotedblbase" unicode="&#x201e;" 
 />
    <glyph glyph-name="ellipsis" unicode="&#x2026;" 
 />
    <glyph glyph-name="daggerdbl" unicode="&#x2021;" 
 />
    <glyph glyph-name="circumflex" unicode="&#x2c6;" horiz-adv-x="274" 
d="M252 601q-6 -8 -10.5 -11t-10.5 -9q-7 -7 -12.5 -15t-11.5 -13q-2 -2 -13 8.5t-23 23.5l-33 35l-39 -39q-6 -6 -10.5 -12.5t-9 -11t-8.5 -5.5t-9 4l-36 35q-10 10 -4 16.5t15 14.5q24 24 45.5 49t45.5 49q5 5 10.5 3t10.5 -7t9.5 -11.5t7.5 -9.5l61 -60q11 -11 21 -18.5
t4 -15.5z" />
    <glyph glyph-name="perthousand" unicode="&#x2030;" 
 />
    <glyph glyph-name="Scaron" unicode="&#x160;" horiz-adv-x="866" 
d="M617 851q3 -2 2 -7.5t-4 -12t-7.5 -13.5t-7.5 -11q-18 -24 -32.5 -42.5t-38.5 -40.5q-7 -6 -15 0t-14 12q-30 32 -51.5 62.5t-27.5 45.5q-2 6 6.5 13t14.5 5q2 0 14.5 -11.5t27 -25t27 -25.5t15.5 -13q29 32 42 48t23 24q8 7 12.5 4t13.5 -12zM843 272q0 -54 -24.5 -99.5
t-62 -80.5t-83 -58.5t-88.5 -32.5q-42 -9 -93.5 -10.5t-99.5 1.5t-87 9.5t-57 14.5q-24 10 -37.5 14.5t-23 4.5t-17.5 -4.5t-20 -11.5q-16 -9 -38 10t-42 48t-35.5 58.5t-18.5 41.5q-6 24 9.5 29t30.5 -11q27 -29 67.5 -54t89 -43.5t103.5 -30t112 -12.5q60 -1 112 7.5
t91 27.5t61 47t22 66q0 25 -13.5 43.5t-34.5 32t-48 22.5t-54 14t-51.5 7t-41.5 2q-26 0 -63.5 8.5t-72.5 29.5t-60 55.5t-25 87.5t25.5 89.5t63.5 58.5t81 31t79 8q15 -1 32.5 -3.5t34.5 -5t32 -4.5t25 -2t17 5t12 9.5t9.5 6.5t10.5 -4t16.5 -16t22.5 -21t25 -22.5
t24 -20.5t14.5 -17t3 -14.5t-3.5 -11.5t-5 -8t-5 -8t-10.5 -7t-20 1.5t-33.5 18.5q-22 15 -52 27.5t-60 20.5t-55 12.5t-37 4.5t-36.5 -1t-49.5 -8.5t-43.5 -25t-18.5 -49.5q0 -25 16 -41.5t41.5 -26t58 -14.5t65 -8t63 -6t52.5 -8q40 -10 76 -23t63.5 -33.5t43.5 -48.5
t16 -68z" />
    <glyph glyph-name="guilsinglleft" unicode="&#x2039;" 
 />
    <glyph glyph-name="OE" unicode="&#x152;" 
 />
    <glyph glyph-name="quoteleft" unicode="&#x2018;" horiz-adv-x="152" 
d="M81 609q-20 2 -38.5 15.5t-18.5 49.5q0 18 5 35.5t13 32.5t17 26t17 16q15 9 23.5 2t1.5 -15q-3 -5 -5.5 -12.5t-4 -14.5t-1 -12t4.5 -5q3 0 9 -1t13 -4.5t14 -10t11 -17.5q6 -17 2.5 -32.5t-13 -27.5t-23 -19t-27.5 -6z" />
    <glyph glyph-name="quoteright" unicode="&#x2019;" horiz-adv-x="152" 
d="M67 774q26 0 45 -20t19 -52t-17.5 -56t-32.5 -43q-7 -9 -13.5 -9t-10.5 5.5t-4 14.5t6 18q5 10 0 17t-14.5 14.5t-20 18t-15.5 28.5q-3 11 0.5 22.5t12 20.5t20 15t25.5 6z" />
    <glyph glyph-name="quotedblleft" unicode="&#x201c;" horiz-adv-x="323" 
d="M81 609q-20 2 -38.5 15.5t-18.5 49.5q0 18 5 35.5t13 32.5t17 26t17 16q15 9 23.5 2t1.5 -15q-3 -5 -5.5 -12.5t-4 -14.5t-1 -12t4.5 -5q3 0 9 -1t13 -4.5t14 -10t11 -17.5q6 -17 2.5 -32.5t-13 -27.5t-23 -19t-27.5 -6zM245 603q-26 0 -45 20t-19 52q0 16 5 30.5
t12.5 26.5t16.5 22.5t16 19.5t13.5 9t10.5 -5.5t4 -14.5t-6 -18t-0.5 -15.5t15 -14.5t20 -19t15.5 -29q3 -11 -0.5 -22t-12 -20.5t-20.5 -15.5t-25 -6z" />
    <glyph glyph-name="quotedblright" unicode="&#x201d;" horiz-adv-x="152" 
d="M231 757q10 0 20 -3.5t18.5 -11t13.5 -20t5 -30.5t-5.5 -35.5t-13.5 -32.5t-17 -26t-16 -15q-15 -9 -23 -2.5t-2 15.5q3 4 6 11.5t4 14.5t0.5 12t-3.5 5t-9.5 1t-13.5 4.5t-14 10t-11 17.5q-6 16 -2.5 32t13 28t23 19t27.5 6zM67 763q26 0 45 -19.5t19 -52.5
q0 -16 -5 -30t-12.5 -26.5t-16 -23t-15.5 -19.5t-13.5 -9t-10.5 5.5t-4.5 14.5t5.5 18t1 16t-14.5 15t-20.5 19t-16 28q-3 11 0.5 22.5t11.5 20.5t20 15t26 6z" />
    <glyph glyph-name="bullet" unicode="&#x2022;" 
 />
    <glyph glyph-name="endash" unicode="&#x2013;" horiz-adv-x="1705" 
d="M1685 380q0 -19 -22 -15t-49 30q-14 13 -49 29t-95 24t-147 5t-204 -27q-78 -16 -170.5 -38t-188.5 -46.5t-189.5 -48.5t-173.5 -44t-141 -33.5t-92 -16.5q-46 -4 -77.5 6.5t-48 30t-18 44.5t12.5 50q16 28 38 34.5t43.5 1.5t38.5 -18.5t22 -25.5q5 -13 6.5 -26t1.5 -24
t-0.5 -18.5t0.5 -8.5q37 -9 89.5 2t122 39t157.5 70.5t197 96.5t200 88.5t165 54.5t131.5 28t99.5 9q80 2 136 -14.5t94 -42.5t60 -57.5t33 -60.5t14 -50.5t3 -27.5z" />
    <glyph glyph-name="emdash" unicode="&#x2014;" horiz-adv-x="3858" 
d="M3837 429q1 -14 -5.5 -12.5t-22 11t-40 23.5t-59.5 24q-132 39 -269.5 52t-291 7t-328 -27t-381.5 -49q-139 -19 -297.5 -38t-323.5 -38t-332 -37t-324 -34.5t-297.5 -31.5t-253.5 -27q-161 -18 -264.5 -24.5t-167.5 -7.5t-96 3t-49 7q-35 8 9 14.5t170 9.5q41 1 110 6.5
t155.5 14.5t186 21.5t201.5 28t202 33.5t188 38q186 42 376 79.5t370.5 68.5t345.5 56t301 42t236.5 26t152.5 8q128 -2 237 -18.5t197 -40.5t155.5 -52.5t113.5 -55.5t70 -48.5t25 -31.5z" />
    <glyph glyph-name="tilde" unicode="&#x2dc;" 
 />
    <glyph glyph-name="trademark" unicode="&#x2122;" 
 />
    <glyph glyph-name="scaron" unicode="&#x161;" horiz-adv-x="781" 
d="M624 685q5 -5 -2.5 -20t-14.5 -24l-16.5 -22t-15.5 -19.5t-17.5 -19.5t-21.5 -22q-7 -7 -15 -0.5t-14 12.5q-30 32 -52 62t-27 46q-2 5 6.5 12.5t14.5 5.5q2 0 14.5 -11.5t27 -25t27 -25.5t15.5 -13q29 32 42 48t23 24q8 6 12 3t14 -11zM765 195q0 -46 -26 -84t-70.5 -65
t-103.5 -41.5t-125 -13.5q-55 0 -103 3.5t-84 8t-58 8.5t-25 7q-5 3 -8 -3.5t-6 -15.5t-6.5 -17.5t-10.5 -9.5q-10 -2 -22 1.5t-33 24.5q-17 17 -36 47t-32 59q-4 9 -0.5 15.5t12.5 9t21.5 0t26.5 -12.5q32 -23 56.5 -38t56.5 -23.5t79 -12.5t124 -5q66 -2 119.5 9t92.5 28
t61 36.5t25 35.5q6 32 -28.5 48.5t-109.5 23.5q-36 3 -79.5 11.5t-82 26t-65.5 45.5t-31 70q-3 30 7.5 52.5t28.5 39t42 27.5t47 17.5t43.5 9t32.5 2.5q18 0 35 -1.5t30 -3.5l28 -4l2 12q1 5 1.5 10.5t0.5 10.5q0 4 5 9t11.5 8t13.5 3.5t11 -3.5q8 -9 23.5 -28t34.5 -46
q10 -14 20 -24t17.5 -17t10.5 -12t-1 -9q-9 -10 -20.5 -18t-27.5 4q-9 7 -27 17t-40.5 19t-47.5 16t-47 9q-45 4 -77.5 -9t-35.5 -33q-2 -19 30 -32t107 -33q36 -10 74 -20.5t69 -28t50.5 -46t19.5 -74.5z" />
    <glyph glyph-name="oe" unicode="&#x153;" 
 />
    <glyph glyph-name="Ydieresis" unicode="&#x178;" horiz-adv-x="810" 
d="M569 806q0 -21 -19.5 -40t-48.5 -19t-49.5 16t-20.5 46q0 9 3.5 19.5t11.5 19.5t21.5 15t33.5 6q28 0 48 -18.5t20 -44.5zM383 807q0 -23 -8.5 -36t-19 -19t-21 -7t-14.5 -1q-5 0 -15 2t-20.5 8.5t-18.5 19t-8 33.5q0 20 7.5 32t17.5 19t21 9t18 2t17.5 -1.5t20.5 -8
t16.5 -19t6.5 -33.5zM785 665q2 -16 -4.5 -26t-28.5 -11t-40.5 -4.5t-35.5 -17.5q-6 -5 -19.5 -19.5t-31 -34t-37 -41.5t-37 -41.5t-31.5 -35t-20 -21.5q-17 -18 -27 -30t-10 -32v-206q0 -32 3 -52.5t18 -22.5t25.5 -13t10.5 -19q0 -28 -9.5 -35.5t-29.5 -6.5t-48 2.5
t-51 2.5q-11 0 -27 -1.5l-32 -3t-30 -2.5t-22 -1q-17 -1 -19.5 5.5t-6.5 27.5q-2 10 3 15.5t14 8t19 3.5t17 3q16 5 25.5 11.5t9.5 24.5q0 9 0.5 32t0.5 49t0.5 52t0.5 41t-1 26.5t-4 20.5t-8.5 17.5t-14.5 18.5q-6 7 -20.5 25.5t-33.5 42.5t-41 51.5t-43 53.5t-39 47
t-29 32q-16 16 -25.5 23t-16 9.5t-12 3t-13.5 3.5t-12 10.5t-4 15t3.5 13.5t9.5 6q14 -1 43 -3.5t86 -4.5q28 -1 47.5 0t34 3.5t24 5t17.5 3.5q9 1 12.5 -5t3 -13.5t-5.5 -14.5t-13 -8q-17 -3 -18.5 -13t4.5 -23q3 -7 19.5 -28t36.5 -46t39 -49t28 -36q17 -24 30 -30.5
t28 5.5q5 4 17.5 18t28.5 32.5t33.5 39.5t32.5 39.5t26.5 32.5t14.5 18q9 12 -4 19.5t-29 7.5q-17 1 -20.5 9t-3.5 28q0 9 5 12t12.5 1.5t17 -5t19.5 -6.5t29.5 -4t41 -0.5t40 2t27.5 2.5t18 2.5t16 1.5t11.5 -3t4.5 -10z" />
    <glyph glyph-name="uni00A0" unicode="&#xa0;" 
 />
    <glyph glyph-name="exclamdown" unicode="&#xa1;" horiz-adv-x="185" 
d="M154 660q0 -19 -15.5 -36t-41.5 -17t-41.5 14.5t-15.5 40.5q0 8 2.5 17.5t9 17.5t17.5 13.5t28 5.5q25 0 41 -16.5t16 -39.5zM153 189q7 -36 10 -72t-2.5 -64.5t-22 -46.5t-48.5 -18q-31 0 -46 15t-19.5 42t-0.5 63.5t13 78.5q9 45 16.5 78.5t12 71t7 86.5t2.5 125
q0 7 6.5 12.5t15 7t15.5 -3t7 -16.5q2 -61 3.5 -104.5t4 -75t5 -54t5.5 -42t7 -39t9 -44.5z" />
    <glyph glyph-name="cent" unicode="&#xa2;" horiz-adv-x="737" 
d="M723 366q0 -77 -27 -146t-75.5 -120.5t-115.5 -82t-147 -30.5q-64 0 -116.5 17.5t-94.5 46.5q-30 -31 -48.5 -48t-23.5 -15q-12 4 -16.5 7.5t-7 7t-6.5 7t-15 8.5q-5 2 12 25t48 61q-42 49 -63 109.5t-21 123.5q0 73 23.5 135t68.5 108t110.5 72t149.5 26q66 0 118 -12
t94 -34q42 43 68 67.5t30 22.5q7 -3 10 -5t5 -4t4.5 -4t8.5 -5q30 -10 4 -38l-70 -75q48 -42 70.5 -99t22.5 -126zM512 572q-59 54 -149 54q-59 0 -101 -22t-70 -60.5t-41 -90.5t-13 -112q0 -42 5 -81.5t17 -74.5q51 58 108.5 121t108.5 120q36 40 70 77t65 69zM598 330
q0 57 -10 101.5t-29 79.5q-44 -50 -91.5 -104t-94 -106.5t-91 -102t-81.5 -89.5q26 -32 64 -50t92 -18q125 0 183 69.5t58 219.5z" />
    <glyph glyph-name="sterling" unicode="&#xa3;" 
 />
    <glyph glyph-name="currency" unicode="&#xa4;" 
 />
    <glyph glyph-name="yen" unicode="&#xa5;" horiz-adv-x="872" 
d="M1064 481q-5 -7 -18.5 -11.5t-30 -7.5t-32 -5t-23.5 -4t-20.5 -18.5t-35.5 -52.5t-59.5 -93.5t-92.5 -142.5q-40 -60 -101 -138t-133.5 -161.5t-152.5 -166t-159.5 -152t-153.5 -120.5t-134 -71q-77 -26 -130 -27t-87 9t-52 25t-25 22t-14 25.5t-7 39.5t9 41t35 30
q30 12 52 8t36 -16t21.5 -29t8.5 -30q1 -11 -3 -22t-8.5 -20.5t-7.5 -16t1 -8.5q45 -14 96 -1t103 40.5t103 64.5t95 72q17 13 52.5 48.5t80.5 83t95 102t96 106t83 95.5t56 70q-12 19 -33.5 53.5t-46.5 76t-51.5 85.5t-49.5 81.5t-39 64.5t-20 34q-14 25 -31 30.5t-29 8.5
q-6 1 -9 7.5t-3 13.5t4 13.5t13 7.5q17 2 36 -4.5t47 -6.5q36 0 62 6t41 9q14 2 30.5 -7t16.5 -23q0 -8 -4.5 -12.5t-10 -8.5t-8.5 -8t0 -10q2 -3 13 -22t27.5 -46.5l36 -60t38.5 -63.5t34.5 -57t24.5 -40q31 45 58.5 85.5t49.5 73.5t37.5 55.5t21.5 30.5q13 18 4 37t-29 26
q-9 3 -10 8.5t3.5 11.5t14 11t20.5 6q21 2 36.5 -1.5t28.5 -3.5q15 0 45 -3t58 3q26 6 32.5 -5t-2.5 -25z" />
    <glyph glyph-name="brokenbar" unicode="&#xa6;" horiz-adv-x="872" 
d="M1064 481q-5 -7 -18.5 -11.5t-30 -7.5t-32 -5t-23.5 -4t-20.5 -18.5t-35.5 -52.5t-59.5 -93.5t-92.5 -142.5q-40 -60 -101 -138t-133.5 -161.5t-152.5 -166t-159.5 -152t-153.5 -120.5t-134 -71q-77 -26 -130 -27t-87 9t-52 25t-25 22t-14 25.5t-7 39.5t9 41t35 30
q30 12 52 8t36 -16t21.5 -29t8.5 -30q1 -11 -3 -22t-8.5 -20.5t-7.5 -16t1 -8.5q45 -14 96 -1t103 40.5t103 64.5t95 72q17 13 52.5 48.5t80.5 83t95 102t96 106t83 95.5t56 70q-12 19 -33.5 53.5t-46.5 76t-51.5 85.5t-49.5 81.5t-39 64.5t-20 34q-14 25 -31 30.5t-29 8.5
q-6 1 -9 7.5t-3 13.5t4 13.5t13 7.5q17 2 36 -4.5t47 -6.5q36 0 62 6t41 9q14 2 30.5 -7t16.5 -23q0 -8 -4.5 -12.5t-10 -8.5t-8.5 -8t0 -10q2 -3 13 -22t27.5 -46.5l36 -60t38.5 -63.5t34.5 -57t24.5 -40q31 45 58.5 85.5t49.5 73.5t37.5 55.5t21.5 30.5q13 18 4 37t-29 26
q-9 3 -10 8.5t3.5 11.5t14 11t20.5 6q21 2 36.5 -1.5t28.5 -3.5q15 0 45 -3t58 3q26 6 32.5 -5t-2.5 -25zM793 606q-22 -15 -50.5 -26.5t-44.5 -17.5q-20 -8 -24.5 -2t1.5 25q3 10 9 23.5t13.5 28t17 28t20.5 22.5q25 21 47.5 18t34 -19t8 -38.5t-31.5 -41.5z" />
    <glyph glyph-name="section" unicode="&#xa7;" horiz-adv-x="872" 
d="M1064 481q-5 -7 -18.5 -11.5t-30 -7.5t-32 -5t-23.5 -4t-20.5 -18.5t-35.5 -52.5t-59.5 -93.5t-92.5 -142.5q-40 -60 -101 -138t-133.5 -161.5t-152.5 -166t-159.5 -152t-153.5 -120.5t-134 -71q-77 -26 -130 -27t-87 9t-52 25t-25 22t-14 25.5t-7 39.5t9 41t35 30
q30 12 52 8t36 -16t21.5 -29t8.5 -30q1 -11 -3 -22t-8.5 -20.5t-7.5 -16t1 -8.5q45 -14 96 -1t103 40.5t103 64.5t95 72q17 13 52.5 48.5t80.5 83t95 102t96 106t83 95.5t56 70q-12 19 -33.5 53.5t-46.5 76t-51.5 85.5t-49.5 81.5t-39 64.5t-20 34q-14 25 -31 30.5t-29 8.5
q-6 1 -9 7.5t-3 13.5t4 13.5t13 7.5q17 2 36 -4.5t47 -6.5q36 0 62 6t41 9q14 2 30.5 -7t16.5 -23q0 -8 -4.5 -12.5t-10 -8.5t-8.5 -8t0 -10q2 -3 13 -22t27.5 -46.5l36 -60t38.5 -63.5t34.5 -57t24.5 -40q31 45 58.5 85.5t49.5 73.5t37.5 55.5t21.5 30.5q13 18 4 37t-29 26
q-9 3 -10 8.5t3.5 11.5t14 11t20.5 6q21 2 36.5 -1.5t28.5 -3.5q15 0 45 -3t58 3q26 6 32.5 -5t-2.5 -25zM874 645q0 -21 -19.5 -40t-48.5 -19t-49 16t-20 46q0 9 3.5 19.5t11.5 20t21 15.5t33 6q28 0 48 -18.5t20 -45.5zM688 647q0 -23 -8.5 -36t-19 -19t-21 -7.5
t-14.5 -1.5q-5 0 -15 2t-20.5 8.5t-18.5 19.5t-8 34q0 19 7.5 31.5t17.5 19t21 9t19 2.5q7 0 17.5 -2t20 -8t16 -18.5t6.5 -33.5z" />
    <glyph glyph-name="dieresis" unicode="&#xa8;" 
 />
    <glyph glyph-name="copyright" unicode="&#xa9;" 
 />
    <glyph glyph-name="ordfeminine" unicode="&#xaa;" horiz-adv-x="220" 
d="M199 602q2 -2 -3.5 -10.5t-17.5 -7.5q-25 2 -38 19q-2 3 -5 7t-6 9q-16 -29 -41 -34t-45 13q-10 9 -12.5 20t0 21t9 18t15.5 12q9 5 18.5 5.5t17.5 -0.5q-4 5 -7.5 9t-5.5 6q-17 15 -30 9v-5v-7q0 -2 -4 -7t-10 -5q-7 0 -10.5 5t-3.5 11t8 12.5t25 5.5q11 0 27 -5.5
t36 -26.5q20 -22 37.5 -40.5t25.5 -23.5q10 -8 14 -8t6 -2zM124 627q-7 10 -13.5 20.5t-13.5 19.5q-10 0 -21.5 -3t-16.5 -14q-6 -18 5.5 -33t28.5 -12q11 2 18.5 8t12.5 14z" />
    <glyph glyph-name="guillemotleft" unicode="&#xab;" horiz-adv-x="364" 
d="M344 97q0 -4 -1.5 -8t-8.5 -4h-2l-2 1q-14 14 -26 29t-30 35q-17 16 -41.5 36t-62.5 45q-6 0 -6 7t6 7q38 25 62.5 45.5t41.5 37.5q18 18 30 33t26 29l2 1h2q7 0 8.5 -4t1.5 -8q0 -2 -5 -17q-5 -9 -12 -20.5t-17 -25.5q-16 -23 -33 -45t-25 -33q8 -11 25 -33t33 -45
q10 -14 17 -25.5t12 -20.5q5 -15 5 -17q0 -4 -1.5 -8t-8.5 -4h-2l-2 1q-14 14 -26 29t-30 35q-17 16 -41.5 36t-62.5 45q-6 0 -6 7t6 7q38 25 62.5 45.5t41.5 37.5q18 18 30 33t26 29l2 1h2q7 0 8.5 -4t1.5 -8q0 -2 -5 -17q-5 -9 -12 -20.5t-17 -25.5q-16 -23 -33 -45
t-25 -33q8 -11 25 -33t33 -45q10 -14 17 -25.5t12 -20.5q5 -15 5 -17zM200 97q0 -4 -2 -8t-9 -4h-1l-2 1q-14 14 -26.5 29t-29.5 35q-17 16 -42 36t-65 45l-2 2q-1 1 -1 5t1 5l2 2q40 25 65 45.5t42 37.5q17 18 29.5 33t26.5 29l2 1h1q7 0 9 -4t2 -8q0 -2 -5 -17
q-5 -9 -13 -20.5t-16 -25.5q-17 -23 -33.5 -45t-26.5 -33q10 -11 26.5 -33t33.5 -45q8 -14 16 -25.5t13 -20.5q5 -15 5 -17q0 -4 -2 -8t-9 -4h-1l-2 1q-14 14 -26.5 29t-29.5 35q-17 16 -42 36t-65 45l-2 2q-1 1 -1 5t1 5l2 2q40 25 65 45.5t42 37.5q17 18 29.5 33t26.5 29
l2 1h1q7 0 9 -4t2 -8q0 -2 -5 -17q-5 -9 -13 -20.5t-16 -25.5q-17 -23 -33.5 -45t-26.5 -33q10 -11 26.5 -33t33.5 -45q8 -14 16 -25.5t13 -20.5q5 -15 5 -17z" />
    <glyph glyph-name="logicalnot" unicode="&#xac;" 
 />
    <glyph glyph-name="uni00AD" unicode="&#xad;" 
 />
    <glyph glyph-name="registered" unicode="&#xae;" 
 />
    <glyph glyph-name="macron" unicode="&#xaf;" 
 />
    <glyph glyph-name="degree" unicode="&#xb0;" horiz-adv-x="165" 
d="M145 647q0 -23 -8.5 -36t-19 -19t-21 -7.5t-14.5 -1.5q-5 0 -15 2t-20.5 8.5t-18.5 19.5t-8 34q0 19 7.5 31.5t17.5 19t21 9t18 2.5t17.5 -2t20.5 -8t16.5 -18.5t6.5 -33.5zM111 646q0 12 -8.5 20.5t-20.5 8.5q-17 0 -23.5 -10t-6.5 -18q0 -14 8.5 -21.5t21.5 -7.5
q12 0 20.5 8.5t8.5 19.5z" />
    <glyph glyph-name="plusminus" unicode="&#xb1;" 
 />
    <glyph glyph-name="twosuperior" unicode="&#xb2;" 
 />
    <glyph glyph-name="threesuperior" unicode="&#xb3;" 
 />
    <glyph glyph-name="acute" unicode="&#xb4;" horiz-adv-x="196" 
d="M143 606q-22 -15 -50.5 -26.5t-44.5 -17.5q-20 -8 -24.5 -2t1.5 25q3 10 9 23.5t13.5 28t17 28t20.5 22.5q25 21 47.5 18t34 -19t8 -38.5t-31.5 -41.5z" />
    <glyph glyph-name="mu" unicode="&#xb5;" 
 />
    <glyph glyph-name="paragraph" unicode="&#xb6;" 
 />
    <glyph glyph-name="periodcentered" unicode="&#xb7;" 
 />
    <glyph glyph-name="cedilla" unicode="&#xb8;" 
 />
    <glyph glyph-name="onesuperior" unicode="&#xb9;" 
 />
    <glyph glyph-name="ordmasculine" unicode="&#xba;" horiz-adv-x="179" 
d="M159 646q0 -18 -8 -30t-19 -19t-23 -10t-20 -3t-20 2t-23 8.5t-18.5 18t-7.5 30.5t6.5 31.5t16.5 20t21.5 11t21.5 3.5q9 0 21.5 -3t24 -10.5t19.5 -19.5t8 -30zM127 645q0 29 -14.5 42.5t-26.5 13.5q-34 0 -34 -55q0 -25 11.5 -38.5t22.5 -13.5q6 0 13 2.5t13 8.5
t10.5 15.5t4.5 24.5z" />
    <glyph glyph-name="guillemotright" unicode="&#xbb;" horiz-adv-x="364" 
d="M344 238q0 -3 -2 -5q-1 -1 -1 -2q-40 -25 -65 -45t-42 -36q-17 -20 -29.5 -35t-26.5 -29l-2 -1h-1q-7 0 -9 4t-2 8q0 2 5 17q5 9 13 20.5t16 25.5q17 23 33.5 45t26.5 33q-10 11 -26.5 33t-33.5 45q-8 14 -16 25.5t-13 20.5q-5 15 -5 17q0 4 2 8t9 4h1l2 -1
q14 -14 26.5 -29t29.5 -33q17 -17 42 -37.5t65 -45.5q0 -1 1 -2q2 -2 2 -5t-2 -5q-1 -1 -1 -2q-40 -25 -65 -45t-42 -36q-17 -20 -29.5 -35t-26.5 -29l-2 -1h-1q-7 0 -9 4t-2 8q0 2 5 17q5 9 13 20.5t16 25.5q17 23 33.5 45t26.5 33q-10 11 -26.5 33t-33.5 45
q-8 14 -16 25.5t-13 20.5q-5 15 -5 17q0 4 2 8t9 4h1l2 -1q14 -14 26.5 -29t29.5 -33q17 -17 42 -37.5t65 -45.5q0 -1 1 -2q2 -2 2 -5zM200 238q0 -7 -6 -7q-38 -25 -62.5 -45t-41.5 -36q-18 -20 -30 -35t-26 -29l-2 -1h-2q-7 0 -8.5 4t-1.5 8q0 2 5 17q5 9 12 20.5t17 25.5
q16 23 33 45t25 33q-8 11 -25 33t-33 45q-10 14 -17 25.5t-12 20.5q-5 15 -5 17q0 4 1.5 8t8.5 4h2l2 -1q14 -14 26 -29t30 -33q17 -17 41.5 -37.5t62.5 -45.5q6 0 6 -7t-6 -7q-38 -25 -62.5 -45t-41.5 -36q-18 -20 -30 -35t-26 -29l-2 -1h-2q-7 0 -8.5 4t-1.5 8q0 2 5 17
q5 9 12 20.5t17 25.5q16 23 33 45t25 33q-8 11 -25 33t-33 45q-10 14 -17 25.5t-12 20.5q-5 15 -5 17q0 4 1.5 8t8.5 4h2l2 -1q14 -14 26 -29t30 -33q17 -17 41.5 -37.5t62.5 -45.5q6 0 6 -7z" />
    <glyph glyph-name="onequarter" unicode="&#xbc;" 
 />
    <glyph glyph-name="onehalf" unicode="&#xbd;" 
 />
    <glyph glyph-name="threequarters" unicode="&#xbe;" 
 />
    <glyph glyph-name="questiondown" unicode="&#xbf;" horiz-adv-x="402" 
d="M273 635q0 -8 -3 -17.5t-10 -17.5t-19 -13.5t-29 -5.5q-25 0 -42.5 16.5t-17.5 39.5q0 19 17 36t43 17t43.5 -14.5t17.5 -40.5zM381 91q-1 -50 -33 -79.5t-76.5 -40.5t-92 -6t-79.5 23q-26 15 -43.5 37t-26.5 48.5t-9.5 56.5t6.5 60q9 38 26 68t37.5 55t42 46t40 40.5
t31.5 38t16 39.5t-5 29.5t-18.5 12t-19.5 5t-7 8.5q1 7 7 9.5t13.5 2.5t15 -1t12.5 -2q12 -4 24 -16.5t16 -33.5t-3.5 -49.5t-34.5 -64.5q-32 -41 -51.5 -79.5t-30 -72t-13.5 -60.5t-1 -45q5 -41 22 -65.5t39.5 -36t47.5 -11t45 8t32 21.5t9 30q-10 0 -20 3q-8 2 -17 7.5
t-14 16.5q-5 10 -5 22.5t5 24t16 20t28 11.5q14 2 26.5 -3.5t22 -17t15 -27t5.5 -33.5z" />
    <glyph glyph-name="Agrave" unicode="&#xc0;" horiz-adv-x="715" 
d="M386 778q7 -19 2 -24.5t-25 1.5q-17 6 -45 17t-51 27q-27 19 -31 42t7 38.5t33.5 18.5t48.5 -18q11 -9 20.5 -22.5t17.5 -28t14 -28.5t9 -23zM701 40q7 -6 6.5 -12t-6.5 -11t-15.5 -8.5t-21.5 -3.5h-28h-35.5t-36.5 -0.5t-30 -1.5q-23 -2 -39 5t-12 20q2 7 4 11t3.5 8
t1 9.5t-3.5 16.5t-6.5 23t-8.5 22t-11.5 16.5t-15.5 6.5h-24t-41.5 0.5t-50 0.5t-50 0.5t-41.5 0.5h-24q-20 0 -28 -6t-12 -17q-5 -11 -12 -31.5t-10 -32.5t4 -18.5t18 -17.5q6 -5 4.5 -10.5t-7.5 -9.5t-15.5 -6t-18.5 -1q-19 2 -45.5 0.5t-47.5 -4.5q-21 -2 -29 3.5
t-9 21.5q0 7 8.5 12t21 11t25.5 15t22 24q4 7 13 30t21 56t27 73t31 82t32 81.5t31 72.5q22 49 41 91.5t36 73.5t33 48t33 15t27 -15.5t22 -45.5q3 -8 13 -34t24 -63t31 -81.5t35 -91t35 -91t31 -81t24 -61.5t13 -32q6 -15 14 -25t17 -16.5t17.5 -11.5t15.5 -10zM422 230
q-4 10 -13 35.5t-19 54.5t-18.5 55t-12.5 38q-8 24 -15 35.5t-23 11.5q-8 0 -16 -11.5t-16 -28.5t-15 -38t-13 -40q-13 -39 -27 -69.5t-19 -46.5q-2 -8 -3 -14.5t1 -11.5t9.5 -7.5t23.5 -2.5t37.5 0.5l43 1t40.5 1t30 0.5q21 0 27 7.5t-2 29.5z" />
    <glyph glyph-name="Aacute" unicode="&#xc1;" horiz-adv-x="715" 
d="M495 799q-23 -16 -51.5 -27t-44.5 -17q-20 -8 -24.5 -2t1.5 25q3 9 8.5 23t13.5 28.5t17.5 28t20.5 22.5q25 21 48 18t34 -18.5t7.5 -38.5t-30.5 -42zM701 40q7 -6 6.5 -12t-6.5 -11t-15.5 -8.5t-21.5 -3.5h-28h-35.5t-36.5 -0.5t-30 -1.5q-23 -2 -39 5t-12 20q2 7 4 11
t3.5 8t1 9.5t-3.5 16.5t-6.5 23t-8.5 22t-11.5 16.5t-15.5 6.5h-24t-41.5 0.5t-50 0.5t-50 0.5t-41.5 0.5h-24q-20 0 -28 -6t-12 -17q-5 -11 -12 -31.5t-10 -32.5t4 -18.5t18 -17.5q6 -5 4.5 -10.5t-7.5 -9.5t-15.5 -6t-18.5 -1q-19 2 -45.5 0.5t-47.5 -4.5q-21 -2 -29 3.5
t-9 21.5q0 7 8.5 12t21 11t25.5 15t22 24q4 7 13 30t21 56t27 73t31 82t32 81.5t31 72.5q22 49 41 91.5t36 73.5t33 48t33 15t27 -15.5t22 -45.5q3 -8 13 -34t24 -63t31 -81.5t35 -91t35 -91t31 -81t24 -61.5t13 -32q6 -15 14 -25t17 -16.5t17.5 -11.5t15.5 -10zM422 230
q-4 10 -13 35.5t-19 54.5t-18.5 55t-12.5 38q-8 24 -15 35.5t-23 11.5q-8 0 -16 -11.5t-16 -28.5t-15 -38t-13 -40q-13 -39 -27 -69.5t-19 -46.5q-2 -8 -3 -14.5t1 -11.5t9.5 -7.5t23.5 -2.5t37.5 0.5l43 1t40.5 1t30 0.5q21 0 27 7.5t-2 29.5z" />
    <glyph glyph-name="Acircumflex" unicode="&#xc2;" horiz-adv-x="715" 
d="M458 737q-2 -2 -14 7t-26 21q-8 7 -17.5 14.5t-19.5 17.5l-38 -39q-12 -12 -23 -19.5t-22 3.5q-12 13 -12.5 21.5t15.5 29.5q11 15 18.5 26.5t15 22t15.5 20.5t20 22q6 6 11.5 4t10.5 -7t9 -11.5t7 -10.5q27 -32 42.5 -51.5t21.5 -32.5t2 -21t-16 -17zM701 40
q7 -6 6.5 -12t-6.5 -11t-15.5 -8.5t-21.5 -3.5h-28h-35.5t-36.5 -0.5t-30 -1.5q-23 -2 -39 5t-12 20q2 7 4 11t3.5 8t1 9.5t-3.5 16.5t-6.5 23t-8.5 22t-11.5 16.5t-15.5 6.5h-24t-41.5 0.5t-50 0.5t-50 0.5t-41.5 0.5h-24q-20 0 -28 -6t-12 -17q-5 -11 -12 -31.5t-10 -32.5
t4 -18.5t18 -17.5q6 -5 4.5 -10.5t-7.5 -9.5t-15.5 -6t-18.5 -1q-19 2 -45.5 0.5t-47.5 -4.5q-21 -2 -29 3.5t-9 21.5q0 7 8.5 12t21 11t25.5 15t22 24q4 7 13 30t21 56t27 73t31 82t32 81.5t31 72.5q22 49 41 91.5t36 73.5t33 48t33 15t27 -15.5t22 -45.5q3 -8 13 -34
t24 -63t31 -81.5t35 -91t35 -91t31 -81t24 -61.5t13 -32q6 -15 14 -25t17 -16.5t17.5 -11.5t15.5 -10zM422 230q-4 10 -13 35.5t-19 54.5t-18.5 55t-12.5 38q-8 24 -15 35.5t-23 11.5q-8 0 -16 -11.5t-16 -28.5t-15 -38t-13 -40q-13 -39 -27 -69.5t-19 -46.5q-2 -8 -3 -14.5
t1 -11.5t9.5 -7.5t23.5 -2.5t37.5 0.5l43 1t40.5 1t30 0.5q21 0 27 7.5t-2 29.5z" />
    <glyph glyph-name="Atilde" unicode="&#xc3;" horiz-adv-x="715" 
d="M558 849q13 -7 10.5 -24.5t-18.5 -35.5t-44 -32t-67 -14q-27 0 -44.5 9.5t-34 20t-37.5 18.5t-55 6q-30 -2 -45 -19t-29 -39q-5 -8 -11.5 -8t-11.5 3.5t-8 9t-1 9.5q16 42 44.5 69t76.5 29q26 1 51 -6t48 -15.5t44 -15t39 -4.5q12 1 23.5 6t21.5 11.5t17 12.5t9 9
q4 4 10.5 3.5t11.5 -3.5zM701 40q7 -6 6.5 -12t-6.5 -11t-15.5 -8.5t-21.5 -3.5h-28h-35.5t-36.5 -0.5t-30 -1.5q-23 -2 -39 5t-12 20q2 7 4 11t3.5 8t1 9.5t-3.5 16.5t-6.5 23t-8.5 22t-11.5 16.5t-15.5 6.5h-24t-41.5 0.5t-50 0.5t-50 0.5t-41.5 0.5h-24q-20 0 -28 -6
t-12 -17q-5 -11 -12 -31.5t-10 -32.5t4 -18.5t18 -17.5q6 -5 4.5 -10.5t-7.5 -9.5t-15.5 -6t-18.5 -1q-19 2 -45.5 0.5t-47.5 -4.5q-21 -2 -29 3.5t-9 21.5q0 7 8.5 12t21 11t25.5 15t22 24q4 7 13 30t21 56t27 73t31 82t32 81.5t31 72.5q22 49 41 91.5t36 73.5t33 48t33 15
t27 -15.5t22 -45.5q3 -8 13 -34t24 -63t31 -81.5t35 -91t35 -91t31 -81t24 -61.5t13 -32q6 -15 14 -25t17 -16.5t17.5 -11.5t15.5 -10zM422 230q-4 10 -13 35.5t-19 54.5t-18.5 55t-12.5 38q-8 24 -15 35.5t-23 11.5q-8 0 -16 -11.5t-16 -28.5t-15 -38t-13 -40
q-13 -39 -27 -69.5t-19 -46.5q-2 -8 -3 -14.5t1 -11.5t9.5 -7.5t23.5 -2.5t37.5 0.5l43 1t40.5 1t30 0.5q21 0 27 7.5t-2 29.5z" />
    <glyph glyph-name="Adieresis" unicode="&#xc4;" horiz-adv-x="715" 
d="M533 806q0 -21 -19.5 -40t-48.5 -19t-49 16t-20 46q0 9 3.5 19.5t11.5 19.5t21 15t33 6q28 0 48 -18.5t20 -44.5zM347 807q0 -23 -8.5 -36t-19 -19t-21 -7t-14.5 -1q-5 0 -15 2t-20.5 8.5t-18.5 19t-8 33.5q0 20 7.5 32t17.5 19t21 9t19 2q7 0 17.5 -1.5t20 -8t16 -19
t6.5 -33.5zM701 40q7 -6 6.5 -12t-6.5 -11t-15.5 -8.5t-21.5 -3.5h-28h-35.5t-36.5 -0.5t-30 -1.5q-23 -2 -39 5t-12 20q2 7 4 11t3.5 8t1 9.5t-3.5 16.5t-6.5 23t-8.5 22t-11.5 16.5t-15.5 6.5h-24t-41.5 0.5t-50 0.5t-50 0.5t-41.5 0.5h-24q-20 0 -28 -6t-12 -17
q-5 -11 -12 -31.5t-10 -32.5t4 -18.5t18 -17.5q6 -5 4.5 -10.5t-7.5 -9.5t-15.5 -6t-18.5 -1q-19 2 -45.5 0.5t-47.5 -4.5q-21 -2 -29 3.5t-9 21.5q0 7 8.5 12t21 11t25.5 15t22 24q4 7 13 30t21 56t27 73t31 82t32 81.5t31 72.5q22 49 41 91.5t36 73.5t33 48t33 15
t27 -15.5t22 -45.5q3 -8 13 -34t24 -63t31 -81.5t35 -91t35 -91t31 -81t24 -61.5t13 -32q6 -15 14 -25t17 -16.5t17.5 -11.5t15.5 -10zM422 230q-4 10 -13 35.5t-19 54.5t-18.5 55t-12.5 38q-8 24 -15 35.5t-23 11.5q-8 0 -16 -11.5t-16 -28.5t-15 -38t-13 -40
q-13 -39 -27 -69.5t-19 -46.5q-2 -8 -3 -14.5t1 -11.5t9.5 -7.5t23.5 -2.5t37.5 0.5l43 1t40.5 1t30 0.5q21 0 27 7.5t-2 29.5z" />
    <glyph glyph-name="Aring" unicode="&#xc5;" horiz-adv-x="715" 
d="M436 807q0 -23 -8.5 -36t-19 -19t-21 -7t-14.5 -1q-5 0 -15 2t-20.5 8.5t-18.5 19t-8 33.5q0 20 7.5 32t17.5 19t21 9t19 2q7 0 17.5 -1.5t20 -8t16 -19t6.5 -33.5zM701 40q7 -6 6.5 -12t-6.5 -11t-15.5 -8.5t-21.5 -3.5h-28h-35.5t-36.5 -0.5t-30 -1.5q-23 -2 -39 5
t-12 20q2 7 4 11t3.5 8t1 9.5t-3.5 16.5t-6.5 23t-8.5 22t-11.5 16.5t-15.5 6.5h-24t-41.5 0.5t-50 0.5t-50 0.5t-41.5 0.5h-24q-20 0 -28 -6t-12 -17q-5 -11 -12 -31.5t-10 -32.5t4 -18.5t18 -17.5q6 -5 4.5 -10.5t-7.5 -9.5t-15.5 -6t-18.5 -1q-19 2 -45.5 0.5t-47.5 -4.5
q-21 -2 -29 3.5t-9 21.5q0 7 8.5 12t21 11t25.5 15t22 24q4 7 13 30t21 56t27 73t31 82t32 81.5t31 72.5q22 49 41 91.5t36 73.5t33 48t33 15t27 -15.5t22 -45.5q3 -8 13 -34t24 -63t31 -81.5t35 -91t35 -91t31 -81t24 -61.5t13 -32q6 -15 14 -25t17 -16.5t17.5 -11.5
t15.5 -10zM402 806q0 13 -8.5 21.5t-20.5 8.5q-17 0 -23.5 -10t-6.5 -18q0 -14 8.5 -22t21.5 -8q12 0 20.5 9t8.5 19zM422 230q-4 10 -13 35.5t-19 54.5t-18.5 55t-12.5 38q-8 24 -15 35.5t-23 11.5q-8 0 -16 -11.5t-16 -28.5t-15 -38t-13 -40q-13 -39 -27 -69.5t-19 -46.5
q-2 -8 -3 -14.5t1 -11.5t9.5 -7.5t23.5 -2.5t37.5 0.5l43 1t40.5 1t30 0.5q21 0 27 7.5t-2 29.5z" />
    <glyph glyph-name="AE" unicode="&#xc6;" horiz-adv-x="1105" 
d="M1088 90q-8 -12 -18.5 -26.5t-20.5 -29t-18.5 -26t-12.5 -17.5q-5 -5 -17 -4.5t-27 3.5t-31.5 6t-31.5 3q-9 0 -32.5 1t-55 1.5t-67.5 1.5t-70 0.5t-62.5 -1.5t-44.5 -4q-51 -9 -74.5 -7.5t-29.5 8.5q-14 15 -8.5 21t24.5 12q16 5 19 26.5t5 58.5q-1 20 -7.5 27.5
t-23.5 7.5q-8 0 -6.5 0t4.5 0.5t4 0.5t-8 0t-42 -0.5t-71 -0.5t-71 -0.5t-42 -0.5q-20 0 -29.5 -6t-16.5 -17q-10 -11 -22.5 -31.5t-18.5 -32.5q-7 -12 3.5 -18.5t21.5 -17.5q6 -5 4.5 -10.5t-7.5 -9.5t-15.5 -6t-18.5 -1q-19 2 -45.5 0t-47.5 -4q-21 -3 -29.5 3t-8.5 22
q0 7 7.5 12t19 11t25.5 15t28 24q9 11 35 52t59.5 96t70.5 116.5t69 112.5q32 52 54 91t39.5 65.5t32.5 40.5t34 15q26 -2 45.5 -2h39.5h31h59.5h74t75 0.5t63 1t37.5 1.5q15 1 26.5 5t20.5 7t16 3.5t13 -5.5t15 -17t19 -23.5t19 -24t15 -18.5q26 -29 -12 -34q-9 -1 -18.5 3
t-23 10.5t-32.5 14t-48 13.5q-58 12 -117 10.5t-105 -1.5h-39t-25.5 -3t-13.5 -11.5t-4 -24.5q0 -17 -2 -33t-1.5 -29t6 -21t20.5 -8h184q20 0 28 8.5t13 17.5q2 5 5 8t9.5 2t17 -7.5t26.5 -20.5t33 -28t29 -26.5t17.5 -22t-1.5 -15.5q-6 -6 -15.5 -4.5t-22.5 7t-31 13.5
t-42 14q-24 7 -43.5 10t-38 4t-37.5 1h-43q-23 0 -42.5 1t-34.5 -0.5t-24 -7.5t-10 -21q-1 -10 -2 -33.5t-1.5 -53.5t-1 -63.5t-1 -64t-0.5 -54.5v-35q-1 -34 8 -53t40 -19q15 0 43.5 -0.5t60 -1t61.5 -0.5t50 2q38 3 73.5 18.5t80.5 54.5q6 5 16 3.5t18 -6.5t13.5 -11.5
t2.5 -12.5zM505 239q-1 10 -1 31v44.5v45t-1 33.5t-1 34.5t-0.5 44.5t-4 38.5t-11.5 16.5q-15 0 -33 -18.5t-37.5 -46t-38.5 -59.5t-35 -60q-23 -40 -39.5 -66.5t-25.5 -42.5q-5 -8 -8.5 -14.5t-2.5 -11.5t8 -7.5t23 -2.5t40.5 1t50 1.5t48 1.5t33.5 1q21 0 29.5 7t6.5 29z
" />
    <glyph glyph-name="Ccedilla" unicode="&#xc7;" horiz-adv-x="699" 
d="M685 505q0 -16 -18.5 -15.5t-38.5 20.5q-10 10 -27 28t-45.5 35t-70.5 30t-101 13t-100 -26.5t-66.5 -67.5t-37 -92t-11.5 -100q0 -50 13.5 -101t41 -93t68.5 -68.5t97 -26.5q55 0 94.5 12t66 29t42 34t22.5 28q7 10 17.5 12.5t18 -2t10 -15.5t-5.5 -27
q-11 -21 -31 -42.5t-49.5 -38.5t-70 -29t-92.5 -15q-2 -6 -3 -11.5t-3 -10.5l-4 -12l11 2q5 1 10.5 2t12.5 0q26 -2 35.5 -15t9.5 -31t-10.5 -29.5t-36.5 -11.5t-30.5 7t-6.5 13q-2 7 3 9q4 2 8.5 -3.5t21.5 -5.5q12 0 17.5 7t5 15t-6 15t-15.5 7q-20 0 -27.5 -3.5
t-19.5 -4.5q-3 0 -3.5 5.5t0.5 14.5t2.5 19.5t3.5 20.5h-8q-60 0 -124.5 24.5t-118 71t-88 114.5t-34.5 155q0 59 17 106t44.5 83t62.5 61.5t71.5 42t71.5 24.5t63 8q41 0 68.5 -4.5t46 -10t31.5 -10t25 -4.5t21 7.5t17.5 17t16.5 17t18 7.5q9 0 16.5 -9t13.5 -23
t11.5 -31.5t11.5 -34.5t14 -31t14.5 -25t11.5 -20t5 -17z" />
    <glyph glyph-name="Egrave" unicode="&#xc8;" horiz-adv-x="683" 
d="M339 778q7 -19 2 -24.5t-25 1.5q-17 6 -45 17t-51 27q-27 19 -31 42t7 38.5t33.5 18.5t48.5 -18q11 -9 20.5 -22.5t17.5 -28t14 -28.5t9 -23zM665 90q-8 -12 -18.5 -26.5t-20.5 -29t-18.5 -26t-12.5 -17.5q-5 -5 -17 -4.5t-27 3.5t-31.5 6t-31.5 3q-9 0 -34 0.5t-58 0.5
h-71.5t-74.5 -1t-66 -2.5t-46 -4.5q-51 -9 -75.5 -11t-38.5 12q-15 14 -14.5 27t19.5 18q20 5 27 36.5t7 94.5v54t0.5 72t1 80t0.5 77.5v64v40.5q-1 19 -5.5 32t-11.5 22.5t-16 17t-18 15.5q-5 4 -3.5 12t6.5 15.5t12.5 11.5t13.5 0t18 -6.5t26.5 -3.5t28.5 -1.5t24 -0.5
h32.5h63h78t79 0.5t66.5 1t39 1.5q15 1 26.5 5t20.5 7t16 3.5t13 -5.5t15 -17t19 -23.5t19 -24t15 -18.5q26 -29 -12 -34q-9 -1 -18.5 3t-23 10.5t-32.5 14t-48 13.5q-58 12 -117 10.5t-105 -1.5h-39t-25.5 -3t-13.5 -11.5t-4 -24.5q0 -17 -2 -33t-1.5 -29t6 -21t20.5 -8
h184q20 0 28 8.5t13 17.5q2 5 5 8t9.5 2t17 -7.5t26.5 -20.5t33 -28t29 -26.5t17.5 -22t-1.5 -15.5q-6 -6 -15.5 -4.5t-22.5 7t-31 13.5t-42 14q-24 7 -43.5 10t-38 4t-37.5 1h-43q-23 0 -42.5 1t-34.5 -0.5t-24 -7.5t-10 -21q-1 -10 -2 -33.5t-1.5 -53.5t-1 -63.5t-1 -64
t-0.5 -54.5v-35q-1 -34 8 -53t40 -19q15 0 43.5 -0.5t60 -1t61.5 -0.5t50 2q38 3 73.5 18.5t80.5 54.5q6 5 16 3.5t18 -6.5t13.5 -11.5t2.5 -12.5z" />
    <glyph glyph-name="Eacute" unicode="&#xc9;" horiz-adv-x="683" 
d="M413 799q-23 -16 -51.5 -27t-44.5 -17q-20 -8 -24.5 -2t1.5 25q3 9 8.5 23t13.5 28.5t17.5 28t20.5 22.5q25 21 48 18t34 -18.5t7.5 -38.5t-30.5 -42zM665 90q-8 -12 -18.5 -26.5t-20.5 -29t-18.5 -26t-12.5 -17.5q-5 -5 -17 -4.5t-27 3.5t-31.5 6t-31.5 3q-9 0 -34 0.5
t-58 0.5h-71.5t-74.5 -1t-66 -2.5t-46 -4.5q-51 -9 -75.5 -11t-38.5 12q-15 14 -14.5 27t19.5 18q20 5 27 36.5t7 94.5v54t0.5 72t1 80t0.5 77.5v64v40.5q-1 19 -5.5 32t-11.5 22.5t-16 17t-18 15.5q-5 4 -3.5 12t6.5 15.5t12.5 11.5t13.5 0t18 -6.5t26.5 -3.5t28.5 -1.5
t24 -0.5h32.5h63h78t79 0.5t66.5 1t39 1.5q15 1 26.5 5t20.5 7t16 3.5t13 -5.5t15 -17t19 -23.5t19 -24t15 -18.5q26 -29 -12 -34q-9 -1 -18.5 3t-23 10.5t-32.5 14t-48 13.5q-58 12 -117 10.5t-105 -1.5h-39t-25.5 -3t-13.5 -11.5t-4 -24.5q0 -17 -2 -33t-1.5 -29t6 -21
t20.5 -8h184q20 0 28 8.5t13 17.5q2 5 5 8t9.5 2t17 -7.5t26.5 -20.5t33 -28t29 -26.5t17.5 -22t-1.5 -15.5q-6 -6 -15.5 -4.5t-22.5 7t-31 13.5t-42 14q-24 7 -43.5 10t-38 4t-37.5 1h-43q-23 0 -42.5 1t-34.5 -0.5t-24 -7.5t-10 -21q-1 -10 -2 -33.5t-1.5 -53.5t-1 -63.5
t-1 -64t-0.5 -54.5v-35q-1 -34 8 -53t40 -19q15 0 43.5 -0.5t60 -1t61.5 -0.5t50 2q38 3 73.5 18.5t80.5 54.5q6 5 16 3.5t18 -6.5t13.5 -11.5t2.5 -12.5z" />
    <glyph glyph-name="Ecircumflex" unicode="&#xca;" horiz-adv-x="683" 
d="M409 737q-2 -2 -14 7t-26 21q-8 7 -17.5 14.5t-19.5 17.5l-38 -39q-11 -12 -22.5 -19.5t-22.5 3.5q-12 13 -12 21.5t15 29.5q11 15 18.5 26.5t15 22t15.5 20.5t20 22q6 6 11.5 4t10.5 -7t9 -11.5t7 -10.5q27 -32 42.5 -51.5t21.5 -32.5t2 -21t-16 -17zM665 90
q-8 -12 -18.5 -26.5t-20.5 -29t-18.5 -26t-12.5 -17.5q-5 -5 -17 -4.5t-27 3.5t-31.5 6t-31.5 3q-9 0 -34 0.5t-58 0.5h-71.5t-74.5 -1t-66 -2.5t-46 -4.5q-51 -9 -75.5 -11t-38.5 12q-15 14 -14.5 27t19.5 18q20 5 27 36.5t7 94.5v54t0.5 72t1 80t0.5 77.5v64v40.5
q-1 19 -5.5 32t-11.5 22.5t-16 17t-18 15.5q-5 4 -3.5 12t6.5 15.5t12.5 11.5t13.5 0t18 -6.5t26.5 -3.5t28.5 -1.5t24 -0.5h32.5h63h78t79 0.5t66.5 1t39 1.5q15 1 26.5 5t20.5 7t16 3.5t13 -5.5t15 -17t19 -23.5t19 -24t15 -18.5q26 -29 -12 -34q-9 -1 -18.5 3t-23 10.5
t-32.5 14t-48 13.5q-58 12 -117 10.5t-105 -1.5h-39t-25.5 -3t-13.5 -11.5t-4 -24.5q0 -17 -2 -33t-1.5 -29t6 -21t20.5 -8h184q20 0 28 8.5t13 17.5q2 5 5 8t9.5 2t17 -7.5t26.5 -20.5t33 -28t29 -26.5t17.5 -22t-1.5 -15.5q-6 -6 -15.5 -4.5t-22.5 7t-31 13.5t-42 14
q-24 7 -43.5 10t-38 4t-37.5 1h-43q-23 0 -42.5 1t-34.5 -0.5t-24 -7.5t-10 -21q-1 -10 -2 -33.5t-1.5 -53.5t-1 -63.5t-1 -64t-0.5 -54.5v-35q-1 -34 8 -53t40 -19q15 0 43.5 -0.5t60 -1t61.5 -0.5t50 2q38 3 73.5 18.5t80.5 54.5q6 5 16 3.5t18 -6.5t13.5 -11.5t2.5 -12.5
z" />
    <glyph glyph-name="Edieresis" unicode="&#xcb;" horiz-adv-x="683" 
d="M471 806q0 -21 -19.5 -40t-48.5 -19t-49 16t-20 46q0 9 3.5 19.5t11.5 19.5t21 15t33 6q28 0 48 -18.5t20 -44.5zM285 807q0 -23 -8.5 -36t-19 -19t-21 -7t-14.5 -1q-5 0 -15 2t-20.5 8.5t-18.5 19t-8 33.5q0 20 7.5 32t17.5 19t21 9t19 2q7 0 17.5 -1.5t20 -8t16 -19
t6.5 -33.5zM665 90q-8 -12 -18.5 -26.5t-20.5 -29t-18.5 -26t-12.5 -17.5q-5 -5 -17 -4.5t-27 3.5t-31.5 6t-31.5 3q-9 0 -34 0.5t-58 0.5h-71.5t-74.5 -1t-66 -2.5t-46 -4.5q-51 -9 -75.5 -11t-38.5 12q-15 14 -14.5 27t19.5 18q20 5 27 36.5t7 94.5v54t0.5 72t1 80
t0.5 77.5v64v40.5q-1 19 -5.5 32t-11.5 22.5t-16 17t-18 15.5q-5 4 -3.5 12t6.5 15.5t12.5 11.5t13.5 0t18 -6.5t26.5 -3.5t28.5 -1.5t24 -0.5h32.5h63h78t79 0.5t66.5 1t39 1.5q15 1 26.5 5t20.5 7t16 3.5t13 -5.5t15 -17t19 -23.5t19 -24t15 -18.5q26 -29 -12 -34
q-9 -1 -18.5 3t-23 10.5t-32.5 14t-48 13.5q-58 12 -117 10.5t-105 -1.5h-39t-25.5 -3t-13.5 -11.5t-4 -24.5q0 -17 -2 -33t-1.5 -29t6 -21t20.5 -8h184q20 0 28 8.5t13 17.5q2 5 5 8t9.5 2t17 -7.5t26.5 -20.5t33 -28t29 -26.5t17.5 -22t-1.5 -15.5q-6 -6 -15.5 -4.5
t-22.5 7t-31 13.5t-42 14q-24 7 -43.5 10t-38 4t-37.5 1h-43q-23 0 -42.5 1t-34.5 -0.5t-24 -7.5t-10 -21q-1 -10 -2 -33.5t-1.5 -53.5t-1 -63.5t-1 -64t-0.5 -54.5v-35q-1 -34 8 -53t40 -19q15 0 43.5 -0.5t60 -1t61.5 -0.5t50 2q38 3 73.5 18.5t80.5 54.5q6 5 16 3.5
t18 -6.5t13.5 -11.5t2.5 -12.5z" />
    <glyph glyph-name="Igrave" unicode="&#xcc;" horiz-adv-x="250" 
d="M167 778q7 -19 2 -24.5t-25 1.5q-17 6 -45 17t-51 27q-27 19 -31 42t7 38.5t33.5 18.5t48.5 -18q11 -9 20.5 -22.5t17.5 -28t14 -28.5t9 -23zM257 23q8 -8 2 -19t-20 -12t-35.5 3t-38.5 4q-9 0 -21 -1t-24 -2.5t-22.5 -2.5t-17.5 -1q-14 0 -17 13.5t6 19.5t15.5 16
t9.5 28q0 6 -0.5 32.5t-1 65t-1 85t-1 92.5t-1 87t-0.5 69q0 42 -1.5 65t-5 35t-9 16t-13.5 7q-31 13 -19 40q3 6 8.5 7.5t13 0.5t16 -3t18.5 -2q25 0 44 -0.5t40 -0.5q22 -1 39.5 3.5t29.5 4.5q6 0 8 -6.5t1.5 -14t-3.5 -13.5t-9 -6q-9 0 -17 -16.5t-8 -30.5v-44.5t0.5 -96
t1 -122t1 -122t0.5 -96v-43.5q-1 -14 11.5 -22.5t20.5 -16.5z" />
    <glyph glyph-name="Iacute" unicode="&#xcd;" horiz-adv-x="250" 
d="M244 799q-23 -16 -51.5 -27t-44.5 -17q-20 -8 -24.5 -2t1.5 25q3 10 8.5 23.5t13.5 28t17.5 28t20.5 22.5q25 21 47.5 18t34 -18.5t8 -38.5t-30.5 -42zM235 23q8 -8 2 -19t-20 -12t-35.5 3t-38.5 4q-9 0 -21 -1t-24 -2.5t-22.5 -2.5t-17.5 -1q-14 0 -17 13.5t6 19.5
t15.5 16t9.5 28q0 6 -0.5 32.5t-1 65t-1 85t-1 92.5t-1 87t-0.5 69q0 42 -1.5 65t-5 35t-9 16t-13.5 7q-31 13 -19 40q3 6 8.5 7.5t13 0.5t16 -3t18.5 -2q25 0 44 -0.5t40 -0.5q22 -1 39.5 3.5t29.5 4.5q6 0 8 -6.5t1.5 -14t-3.5 -13.5t-9 -6q-9 0 -17 -16.5t-8 -30.5v-44.5
t0.5 -96t1 -122t1 -122t0.5 -96v-43.5q-1 -14 11.5 -22.5t20.5 -16.5z" />
    <glyph glyph-name="Icircumflex" unicode="&#xce;" horiz-adv-x="250" 
d="M209 737q-2 -2 -14 7t-26 21q-8 7 -17.5 14.5t-19.5 17.5l-38 -39q-12 -12 -23 -19.5t-22 3.5q-12 13 -12.5 21.5t15.5 29.5q11 15 18.5 26.5t15 22t15.5 20.5t20 22q5 5 10.5 3.5t10.5 -6.5t9.5 -11.5t7.5 -10.5q26 -32 42 -51.5t22 -32t2.5 -21t-16.5 -17.5zM235 23
q8 -8 2 -19t-20 -12t-35.5 3t-38.5 4q-9 0 -21 -1t-24 -2.5t-22.5 -2.5t-17.5 -1q-14 0 -17 13.5t6 19.5t15.5 16t9.5 28q0 6 -0.5 32.5t-1 65t-1 85t-1 92.5t-1 87t-0.5 69q0 42 -1.5 65t-5 35t-9 16t-13.5 7q-31 13 -19 40q3 6 8.5 7.5t13 0.5t16 -3t18.5 -2q25 0 44 -0.5
t40 -0.5q22 -1 39.5 3.5t29.5 4.5q6 0 8 -6.5t1.5 -14t-3.5 -13.5t-9 -6q-9 0 -17 -16.5t-8 -30.5v-44.5t0.5 -96t1 -122t1 -122t0.5 -96v-43.5q-1 -14 11.5 -22.5t20.5 -16.5z" />
    <glyph glyph-name="Idieresis" unicode="&#xcf;" horiz-adv-x="250" 
d="M326 806q0 -21 -19.5 -40t-48.5 -19t-49 16t-20 46q0 9 3.5 19.5t11.5 19.5t21 15t33 6q28 0 48 -18.5t20 -44.5zM140 807q0 -23 -8.5 -36t-19 -19t-21 -7t-14.5 -1q-5 0 -15 2t-20.5 8.5t-18.5 19t-8 33.5q0 20 7.5 32t17.5 19t21 9t19 2q7 0 17.5 -1.5t20 -8t16 -19
t6.5 -33.5zM269 23q8 -8 2 -19t-20 -12t-35.5 3t-38.5 4q-9 0 -21 -1t-24 -2.5t-22.5 -2.5t-17.5 -1q-14 0 -17 13.5t6 19.5t15.5 16t9.5 28q0 6 -0.5 32.5t-1 65t-1 85t-1 92.5t-1 87t-0.5 69q0 42 -1.5 65t-5 35t-9 16t-13.5 7q-31 13 -19 40q3 6 8.5 7.5t13 0.5t16 -3
t18.5 -2q25 0 44 -0.5t40 -0.5q22 -1 39.5 3.5t29.5 4.5q6 0 8 -6.5t1.5 -14t-3.5 -13.5t-9 -6q-9 0 -17 -16.5t-8 -30.5v-44.5t0.5 -96t1 -122t1 -122t0.5 -96v-43.5q-1 -14 11.5 -22.5t20.5 -16.5z" />
    <glyph glyph-name="Ntilde" unicode="&#xd1;" horiz-adv-x="521" 
d="M457 833q13 -7 10.5 -24.5t-18.5 -35.5t-44 -32t-67 -14q-27 0 -44.5 9.5t-34 20t-37.5 18.5t-55 6q-30 -2 -45 -19t-29 -39q-5 -8 -11.5 -8t-11.5 3.5t-8 9t-1 9.5q16 42 44.5 69t76.5 29q26 1 51 -6t48 -15.5t44 -15t39 -4.5q12 1 23.5 6t21.5 11.5t17 12.5t9 9
q4 4 10.5 3.5t11.5 -3.5zM510 660q0 -5 -4.5 -9t-10 -8t-10.5 -7t-6 -5t-1.5 -10.5t-1 -25.5t-0.5 -44.5v-67.5q0 -26 1 -65.5t2.5 -84t3.5 -91t3.5 -86.5t2.5 -70.5t1 -43.5q0 -20 -2.5 -29.5t-8 -13.5t-13.5 -4h-18q-21 0 -29.5 5.5t-20.5 16.5q-4 4 -23.5 31t-47 66
t-59 84.5t-59.5 86.5t-49 72t-27 41q-18 30 -26 34t-8 -16q0 -7 -0.5 -34.5t-0.5 -65t-1 -80.5t-1 -80t-0.5 -63.5t-0.5 -31.5q0 -7 5 -12t11.5 -9.5t12.5 -9.5t7 -11q1 -24 -35 -20q-19 2 -42 -0.5t-37 -2.5q-7 0 -10 5t-2.5 12t4 13.5t8.5 9.5q5 2 9.5 2t8 0.5t6 3
t3.5 9.5q1 5 2 38t1.5 81.5t0.5 105t0.5 109t0.5 94v59.5q0 27 -2.5 46.5t-6 34.5t-6 27t-2.5 24q0 10 5 13.5t12.5 3.5t17.5 -1.5t19 -1.5t15 -6t10.5 -15t8 -19.5t8.5 -19.5q3 -6 22.5 -37t48 -75.5t61 -96t61.5 -96t49.5 -77t25.5 -38.5q17 -23 20 -27t3 11
q0 5 -0.5 28.5t-1 57t-1.5 72.5t-1 75.5v66t1 43.5q3 42 -2.5 70t-22.5 35q-15 6 -17.5 14.5t-5.5 20.5q-2 11 7.5 12t32.5 -4q24 -5 49.5 -1t39.5 5q13 0 13.5 -7t-0.5 -16z" />
    <glyph glyph-name="Ograve" unicode="&#xd2;" horiz-adv-x="750" 
d="M380 778q7 -19 2 -24.5t-25 1.5q-17 6 -45 17t-51 27q-27 19 -31 42t7 38.5t33.5 18.5t48.5 -18q11 -9 20.5 -22.5t17.5 -28t14 -28.5t9 -23zM730 366q0 -77 -27 -146t-75.5 -120.5t-115.5 -82t-147 -30.5q-86 0 -151.5 30.5t-110 80t-67.5 112t-23 127.5q0 73 23.5 135
t68.5 108t110.5 72t149.5 26q91 0 159.5 -23.5t114.5 -65t68.5 -99t22.5 -124.5zM605 330q0 74 -17.5 129.5t-48.5 92.5t-74 55.5t-95 18.5q-59 0 -101 -22t-70 -60.5t-41 -90.5t-13 -112t11 -114t36.5 -95.5t67.5 -66t104 -24.5q125 0 183 69.5t58 219.5z" />
    <glyph glyph-name="Oacute" unicode="&#xd3;" horiz-adv-x="750" 
d="M481 799q-23 -16 -51.5 -27t-44.5 -17q-20 -8 -24.5 -2t1.5 25q3 9 8.5 23t13.5 28.5t17.5 28t20.5 22.5q25 21 48 18t34 -18.5t7.5 -38.5t-30.5 -42zM730 366q0 -77 -27 -146t-75.5 -120.5t-115.5 -82t-147 -30.5q-86 0 -151.5 30.5t-110 80t-67.5 112t-23 127.5
q0 73 23.5 135t68.5 108t110.5 72t149.5 26q91 0 159.5 -23.5t114.5 -65t68.5 -99t22.5 -124.5zM605 330q0 74 -17.5 129.5t-48.5 92.5t-74 55.5t-95 18.5q-59 0 -101 -22t-70 -60.5t-41 -90.5t-13 -112t11 -114t36.5 -95.5t67.5 -66t104 -24.5q125 0 183 69.5t58 219.5z
" />
    <glyph glyph-name="Ocircumflex" unicode="&#xd4;" horiz-adv-x="750" 
d="M444 737q-2 -2 -14 7t-26 21q-8 7 -17.5 14.5t-19.5 17.5l-38 -39q-12 -12 -23 -19.5t-22 3.5q-12 13 -12.5 21.5t15.5 29.5q11 15 18.5 26.5t15 22t15.5 20.5t20 22q6 6 11.5 4t10.5 -7t9 -11.5t7 -10.5q27 -32 42.5 -51.5t21.5 -32.5t2 -21t-16 -17zM730 366
q0 -77 -27 -146t-75.5 -120.5t-115.5 -82t-147 -30.5q-86 0 -151.5 30.5t-110 80t-67.5 112t-23 127.5q0 73 23.5 135t68.5 108t110.5 72t149.5 26q91 0 159.5 -23.5t114.5 -65t68.5 -99t22.5 -124.5zM605 330q0 74 -17.5 129.5t-48.5 92.5t-74 55.5t-95 18.5
q-59 0 -101 -22t-70 -60.5t-41 -90.5t-13 -112t11 -114t36.5 -95.5t67.5 -66t104 -24.5q125 0 183 69.5t58 219.5z" />
    <glyph glyph-name="Otilde" unicode="&#xd5;" horiz-adv-x="750" 
d="M558 849q13 -7 10.5 -24.5t-18.5 -35.5t-44 -32t-67 -14q-27 0 -44.5 9.5t-34 20t-37.5 18.5t-55 6q-30 -2 -45 -19t-29 -39q-5 -8 -11.5 -8t-11.5 3.5t-8 9t-1 9.5q16 42 44.5 69t76.5 29q26 1 51 -6t48 -15.5t44 -15t39 -4.5q12 1 23.5 6t21.5 11.5t17 12.5t9 9
q4 4 10.5 3.5t11.5 -3.5zM730 366q0 -77 -27 -146t-75.5 -120.5t-115.5 -82t-147 -30.5q-86 0 -151.5 30.5t-110 80t-67.5 112t-23 127.5q0 73 23.5 135t68.5 108t110.5 72t149.5 26q91 0 159.5 -23.5t114.5 -65t68.5 -99t22.5 -124.5zM605 330q0 74 -17.5 129.5t-48.5 92.5
t-74 55.5t-95 18.5q-59 0 -101 -22t-70 -60.5t-41 -90.5t-13 -112t11 -114t36.5 -95.5t67.5 -66t104 -24.5q125 0 183 69.5t58 219.5z" />
    <glyph glyph-name="Odieresis" unicode="&#xd6;" horiz-adv-x="750" 
d="M529 806q0 -21 -19.5 -40t-48.5 -19t-49 16t-20 46q0 9 3.5 19.5t11.5 19.5t21 15t33 6q28 0 48 -18.5t20 -44.5zM343 807q0 -23 -8.5 -36t-19 -19t-21 -7t-14.5 -1q-5 0 -15 2t-20.5 8.5t-18.5 19t-8 33.5q0 20 7.5 32t17.5 19t21 9t19 2q7 0 17.5 -1.5t20 -8t16 -19
t6.5 -33.5zM730 366q0 -77 -27 -146t-75.5 -120.5t-115.5 -82t-147 -30.5q-86 0 -151.5 30.5t-110 80t-67.5 112t-23 127.5q0 73 23.5 135t68.5 108t110.5 72t149.5 26q91 0 159.5 -23.5t114.5 -65t68.5 -99t22.5 -124.5zM605 330q0 74 -17.5 129.5t-48.5 92.5t-74 55.5
t-95 18.5q-59 0 -101 -22t-70 -60.5t-41 -90.5t-13 -112t11 -114t36.5 -95.5t67.5 -66t104 -24.5q125 0 183 69.5t58 219.5z" />
    <glyph glyph-name="multiply" unicode="&#xd7;" horiz-adv-x="331" 
d="M306 102q-11 2 -29.5 0t-35.5 -2q-1 0 -9 9.5t-19 23t-23 29.5l-21 28q-32 -37 -56 -63.5t-27 -26.5q-17 0 -35.5 -0.5t-29.5 2.5q-3 0 5 12.5t23.5 32.5t36.5 45.5t43 51.5q-13 17 -26.5 34.5t-24.5 32t-19 24t-9 11.5l-6 9t-7 12t-4 10.5t3 5.5q9 2 14 1.5t15 -2.5
q11 -2 14.5 -0.5t11.5 1.5q3 0 7.5 -5t9 -11t8.5 -11.5t5 -6.5q0 -1 15 -19.5t32 -40.5q30 35 53 61.5t30 32.5q3 4 10.5 4.5t16.5 -0.5t17 -2.5t11 -1.5q5 -1 4 -5.5t-4 -10.5t-7 -12t-5 -9q-6 -12 -30 -42.5t-54 -66.5q14 -17 27.5 -33t24.5 -29t18.5 -22t9.5 -12
q2 -4 7 -11t9 -13.5t5 -11t-5 -3.5z" />
    <glyph glyph-name="Oslash" unicode="&#xd8;" horiz-adv-x="750" 
d="M730 366q0 -77 -27 -146t-75.5 -120.5t-115.5 -82t-147 -30.5q-64 0 -116.5 17.5t-94.5 46.5q-30 -31 -48.5 -48t-23.5 -15q-12 4 -16.5 7.5t-7 7t-6.5 7t-15 8.5q-5 2 12 25t48 61q-42 49 -63 109.5t-21 123.5q0 73 23.5 135t68.5 108t110.5 72t149.5 26q66 0 118 -12
t94 -34q42 43 68 67.5t30 22.5q7 -3 10 -5t5 -4t4.5 -4t8.5 -5q30 -10 4 -38l-70 -75q48 -42 70.5 -99t22.5 -126zM519 572q-59 54 -149 54q-59 0 -101 -22t-70 -60.5t-41 -90.5t-13 -112q0 -42 5 -81.5t17 -74.5q51 58 108.5 121t108.5 120q36 40 70 77t65 69zM605 330
q0 57 -10 101.5t-29 79.5q-44 -50 -91.5 -104t-94 -106.5t-91 -102t-81.5 -89.5q26 -32 64 -50t92 -18q125 0 183 69.5t58 219.5z" />
    <glyph glyph-name="Ugrave" unicode="&#xd9;" horiz-adv-x="627" 
d="M326 778q7 -19 2 -24.5t-25 1.5q-17 6 -45 17t-51 27q-27 19 -31 42t7 38.5t33.5 18.5t48.5 -18q11 -9 20.5 -22.5t17.5 -28t14 -28.5t9 -23zM611 661q0 -10 -6 -14.5t-10 -19.5q-2 -7 -2 -33t0.5 -67.5t1 -98t0.5 -125.5t-16.5 -127t-51 -100t-87 -65.5t-124.5 -23.5
t-125 25t-88 63.5t-52 84.5t-17 88q0 21 -0.5 62t-0.5 86t-0.5 86.5t-0.5 62.5q0 42 -0.5 68.5t-10.5 28.5q-5 1 -7 7.5t-1 13.5t5 13t11 6q14 1 29 -3.5t42 -3.5q32 1 45 1t22 4q9 2 14.5 -11t3.5 -24q-2 -5 -6.5 -8.5t-9.5 -6.5t-8.5 -6.5t-3.5 -8.5t-1.5 -44.5t-3 -96
t-2 -122t1.5 -122.5q2 -56 18.5 -92.5t41.5 -57.5t53.5 -28.5t54.5 -6.5q30 1 66.5 12.5t67.5 42t51 85.5t18 144q-1 45 -1.5 95t-1 93.5t-0.5 74v35.5q0 7 -6 10t-12.5 6t-9.5 8.5t3 19.5q2 6 8.5 7.5t14.5 1t17 -1.5t17 -1h20.5t15.5 5q9 4 16 -1t7 -20z" />
    <glyph glyph-name="Uacute" unicode="&#xda;" horiz-adv-x="627" 
d="M453 799q-23 -16 -51.5 -27t-44.5 -17q-20 -8 -24.5 -2t1.5 25q3 9 8.5 23t13.5 28.5t17.5 28t20.5 22.5q25 21 48 18t34 -18.5t7.5 -38.5t-30.5 -42zM611 661q0 -10 -6 -14.5t-10 -19.5q-2 -7 -2 -33t0.5 -67.5t1 -98t0.5 -125.5t-16.5 -127t-51 -100t-87 -65.5
t-124.5 -23.5t-125 25t-88 63.5t-52 84.5t-17 88q0 21 -0.5 62t-0.5 86t-0.5 86.5t-0.5 62.5q0 42 -0.5 68.5t-10.5 28.5q-5 1 -7 7.5t-1 13.5t5 13t11 6q14 1 29 -3.5t42 -3.5q32 1 45 1t22 4q9 2 14.5 -11t3.5 -24q-2 -5 -6.5 -8.5t-9.5 -6.5t-8.5 -6.5t-3.5 -8.5
t-1.5 -44.5t-3 -96t-2 -122t1.5 -122.5q2 -56 18.5 -92.5t41.5 -57.5t53.5 -28.5t54.5 -6.5q30 1 66.5 12.5t67.5 42t51 85.5t18 144q-1 45 -1.5 95t-1 93.5t-0.5 74v35.5q0 7 -6 10t-12.5 6t-9.5 8.5t3 19.5q2 6 8.5 7.5t14.5 1t17 -1.5t17 -1h20.5t15.5 5q9 4 16 -1t7 -20
z" />
    <glyph glyph-name="Ucircumflex" unicode="&#xdb;" horiz-adv-x="627" 
d="M408 737q-2 -2 -14 7t-26 21q-8 7 -17.5 14.5t-19.5 17.5l-38 -39q-12 -12 -23 -19.5t-22 3.5q-12 13 -12.5 21.5t15.5 29.5q11 15 18.5 26.5t15 22t15.5 20.5t20 22q6 6 11.5 4t10.5 -7t9 -11.5t7 -10.5q27 -32 42.5 -51.5t21.5 -32.5t2 -21t-16 -17zM611 661
q0 -10 -6 -14.5t-10 -19.5q-2 -7 -2 -33t0.5 -67.5t1 -98t0.5 -125.5t-16.5 -127t-51 -100t-87 -65.5t-124.5 -23.5t-125 25t-88 63.5t-52 84.5t-17 88q0 21 -0.5 62t-0.5 86t-0.5 86.5t-0.5 62.5q0 42 -0.5 68.5t-10.5 28.5q-5 1 -7 7.5t-1 13.5t5 13t11 6q14 1 29 -3.5
t42 -3.5q32 1 45 1t22 4q9 2 14.5 -11t3.5 -24q-2 -5 -6.5 -8.5t-9.5 -6.5t-8.5 -6.5t-3.5 -8.5t-1.5 -44.5t-3 -96t-2 -122t1.5 -122.5q2 -56 18.5 -92.5t41.5 -57.5t53.5 -28.5t54.5 -6.5q30 1 66.5 12.5t67.5 42t51 85.5t18 144q-1 45 -1.5 95t-1 93.5t-0.5 74v35.5
q0 7 -6 10t-12.5 6t-9.5 8.5t3 19.5q2 6 8.5 7.5t14.5 1t17 -1.5t17 -1h20.5t15.5 5q9 4 16 -1t7 -20z" />
    <glyph glyph-name="Udieresis" unicode="&#xdc;" horiz-adv-x="627" 
d="M505 806q0 -21 -19.5 -40t-48.5 -19t-49 16t-20 46q0 9 3.5 19.5t11.5 19.5t21 15t33 6q28 0 48 -18.5t20 -44.5zM319 807q0 -23 -8.5 -36t-19 -19t-21 -7t-14.5 -1q-5 0 -15 2t-20.5 8.5t-18.5 19t-8 33.5q0 20 7.5 32t17.5 19t21 9t19 2q7 0 17.5 -1.5t20 -8t16 -19
t6.5 -33.5zM611 661q0 -10 -6 -14.5t-10 -19.5q-2 -7 -2 -33t0.5 -67.5t1 -98t0.5 -125.5t-16.5 -127t-51 -100t-87 -65.5t-124.5 -23.5t-125 25t-88 63.5t-52 84.5t-17 88q0 21 -0.5 62t-0.5 86t-0.5 86.5t-0.5 62.5q0 42 -0.5 68.5t-10.5 28.5q-5 1 -7 7.5t-1 13.5t5 13
t11 6q14 1 29 -3.5t42 -3.5q32 1 45 1t22 4q9 2 14.5 -11t3.5 -24q-2 -5 -6.5 -8.5t-9.5 -6.5t-8.5 -6.5t-3.5 -8.5t-1.5 -44.5t-3 -96t-2 -122t1.5 -122.5q2 -56 18.5 -92.5t41.5 -57.5t53.5 -28.5t54.5 -6.5q30 1 66.5 12.5t67.5 42t51 85.5t18 144q-1 45 -1.5 95t-1 93.5
t-0.5 74v35.5q0 7 -6 10t-12.5 6t-9.5 8.5t3 19.5q2 6 8.5 7.5t14.5 1t17 -1.5t17 -1h20.5t15.5 5q9 4 16 -1t7 -20z" />
    <glyph glyph-name="Yacute" unicode="&#xdd;" horiz-adv-x="810" 
d="M555 799q-23 -16 -51.5 -27t-44.5 -17q-20 -8 -24.5 -2t1.5 25q3 9 8.5 23t13.5 28.5t17.5 28t20.5 22.5q25 21 48 18t34 -18.5t7.5 -38.5t-30.5 -42zM785 665q2 -16 -4.5 -26t-28.5 -11t-40.5 -4.5t-35.5 -17.5q-6 -5 -19.5 -19.5t-31 -34t-37 -41.5t-37 -41.5
t-31.5 -35t-20 -21.5q-17 -18 -27 -30t-10 -32v-206q0 -32 3 -52.5t18 -22.5t25.5 -13t10.5 -19q0 -28 -9.5 -35.5t-29.5 -6.5t-48 2.5t-51 2.5q-11 0 -27 -1.5l-32 -3t-30 -2.5t-22 -1q-17 -1 -19.5 5.5t-6.5 27.5q-2 10 3 15.5t14 8t19 3.5t17 3q16 5 25.5 11.5t9.5 24.5
q0 9 0.5 32t0.5 49t0.5 52t0.5 41t-1 26.5t-4 20.5t-8.5 17.5t-14.5 18.5q-6 7 -20.5 25.5t-33.5 42.5t-41 51.5t-43 53.5t-39 47t-29 32q-16 16 -25.5 23t-16 9.5t-12 3t-13.5 3.5t-12 10.5t-4 15t3.5 13.5t9.5 6q14 -1 43 -3.5t86 -4.5q28 -1 47.5 0t34 3.5t24 5t17.5 3.5
q9 1 12.5 -5t3 -13.5t-5.5 -14.5t-13 -8q-17 -3 -18.5 -13t4.5 -23q3 -7 19.5 -28t36.5 -46t39 -49t28 -36q17 -24 30 -30.5t28 5.5q5 4 17.5 18t28.5 32.5t33.5 39.5t32.5 39.5t26.5 32.5t14.5 18q9 12 -4 19.5t-29 7.5q-17 1 -20.5 9t-3.5 28q0 9 5 12t12.5 1.5t17 -5
t19.5 -6.5t29.5 -4t41 -0.5t40 2t27.5 2.5t18 2.5t16 1.5t11.5 -3t4.5 -10z" />
    <glyph glyph-name="Thorn" unicode="&#xde;" 
 />
    <glyph glyph-name="germandbls" unicode="&#xdf;" horiz-adv-x="598" 
 />
    <glyph glyph-name="agrave" unicode="&#xe0;" horiz-adv-x="686" 
d="M164 585q6 -19 1.5 -25t-24.5 2q-16 6 -44.5 17.5t-50.5 26.5q-28 19 -31.5 42t8 38.5t34 18.5t47.5 -18q10 -9 20 -22.5t17.5 -28t13.5 -28t9 -23.5zM651 50q19 -8 25 -16t2 -15.5t-17 -13t-32 -8.5q-19 -2 -47 3.5t-59 18t-61 30.5t-53 41l-8 8q-24 -52 -62 -77
t-81 -29t-87 11t-79 44q-35 28 -49.5 70.5t-11.5 84.5t23 77t55 49q25 10 49.5 12t46.5 -1t41.5 -9t33.5 -12q-23 48 -43.5 86.5t-34.5 52.5q-16 15 -28.5 17t-21.5 -4t-13.5 -17.5t-4.5 -22.5q0 -23 -10.5 -42.5t-36.5 -21.5t-45.5 16t-19.5 48q0 15 8 29.5t21.5 26
t30.5 19t35 9.5q61 4 115.5 -29t118.5 -110q32 -39 72 -90t81 -99t79.5 -86t67.5 -50zM362 155q-14 23 -27.5 50.5t-27.5 56.5q-18 11 -49.5 22t-79.5 6q-30 -3 -40 -21.5t-8 -42.5t13 -47.5t23 -35.5t30 -28t39.5 -29t44.5 -20t46 0q27 8 33 34t3 55z" />
    <glyph glyph-name="aacute" unicode="&#xe1;" horiz-adv-x="686" 
d="M253 606q-23 -17 -51 -27.5t-45 -16.5q-20 -7 -24.5 -1.5t1.5 24.5q3 9 8.5 23t13.5 28.5t17.5 28t20.5 22.5q25 21 47.5 18.5t34 -18.5t8 -39t-30.5 -42zM642 50q19 -8 25 -16t2 -15.5t-17 -13t-32 -8.5q-19 -2 -47 3.5t-59 18t-61 30.5t-53 41l-8 8q-24 -52 -62 -77
t-81 -29t-87 11t-79 44q-35 28 -49.5 70.5t-11.5 84.5t23 77t55 49q25 10 49.5 12t46.5 -1t41.5 -9t33.5 -12q-23 48 -43.5 86.5t-34.5 52.5q-16 15 -28.5 17t-21.5 -4t-13.5 -17.5t-4.5 -22.5q0 -23 -10.5 -42.5t-36.5 -21.5t-45.5 16t-19.5 48q0 15 8 29.5t21.5 26
t30.5 19t35 9.5q61 4 115.5 -29t118.5 -110q32 -39 72 -90t81 -99t79.5 -86t67.5 -50zM353 155q-14 23 -27.5 50.5t-27.5 56.5q-18 11 -49.5 22t-79.5 6q-30 -3 -40 -21.5t-8 -42.5t13 -47.5t23 -35.5t30 -28t39.5 -29t44.5 -20t46 0q27 8 33 34t3 55z" />
    <glyph glyph-name="acircumflex" unicode="&#xe2;" horiz-adv-x="686" 
d="M207 542q-2 -2 -13.5 7t-26.5 21q-8 7 -17.5 14.5t-19.5 17.5l-38 -39q-11 -12 -22.5 -19.5t-22.5 3.5q-12 13 -12 21.5t15 29.5q11 15 18.5 26.5t15 22t15.5 20.5t20 22q6 6 11.5 4t10.5 -7t9 -11.5t7 -10.5q27 -32 42.5 -51.5t21.5 -32.5t2 -21t-16 -17zM642 50
q19 -8 25 -16t2 -15.5t-17 -13t-32 -8.5q-19 -2 -47 3.5t-59 18t-61 30.5t-53 41l-8 8q-24 -52 -62 -77t-81 -29t-87 11t-79 44q-35 28 -49.5 70.5t-11.5 84.5t23 77t55 49q25 10 49.5 12t46.5 -1t41.5 -9t33.5 -12q-23 48 -43.5 86.5t-34.5 52.5q-16 15 -28.5 17t-21.5 -4
t-13.5 -17.5t-4.5 -22.5q0 -23 -10.5 -42.5t-36.5 -21.5t-45.5 16t-19.5 48q0 15 8 29.5t21.5 26t30.5 19t35 9.5q61 4 115.5 -29t118.5 -110q32 -39 72 -90t81 -99t79.5 -86t67.5 -50zM353 155q-14 23 -27.5 50.5t-27.5 56.5q-18 11 -49.5 22t-79.5 6q-30 -3 -40 -21.5
t-8 -42.5t13 -47.5t23 -35.5t30 -28t39.5 -29t44.5 -20t46 0q27 8 33 34t3 55z" />
    <glyph glyph-name="atilde" unicode="&#xe3;" horiz-adv-x="686" 
d="M410 692q13 -7 10.5 -24.5t-18.5 -35.5t-44 -32t-67 -14q-27 0 -44.5 9.5t-34 20t-37.5 18.5t-55 6q-30 -2 -45 -19t-29 -39q-5 -8 -11.5 -8t-11.5 3.5t-8 9t-1 9.5q16 42 44.5 69t76.5 29q26 1 51 -6t48 -15.5t44 -15t39 -4.5q12 1 24 6t21.5 11.5t16.5 12.5t9 9
q4 4 10.5 3.5t11.5 -3.5zM683 50q19 -8 25 -16t2 -15.5t-17 -13t-32 -8.5q-19 -2 -47 3.5t-59 18t-61 30.5t-53 41l-8 8q-24 -52 -62 -77t-81 -29t-87 11t-79 44q-35 28 -49.5 70.5t-11.5 84.5t23 77t55 49q25 10 49.5 12t46.5 -1t41.5 -9t33.5 -12q-23 48 -43.5 86.5
t-34.5 52.5q-16 15 -28.5 17t-21.5 -4t-13.5 -17.5t-4.5 -22.5q0 -23 -10.5 -42.5t-36.5 -21.5t-45.5 16t-19.5 48q0 15 8 29.5t21.5 26t30.5 19t35 9.5q61 4 115.5 -29t118.5 -110q32 -39 72 -90t81 -99t79.5 -86t67.5 -50zM394 155q-14 23 -27.5 50.5t-27.5 56.5
q-18 11 -49.5 22t-79.5 6q-30 -3 -40 -21.5t-8 -42.5t13 -47.5t23 -35.5t30 -28t39.5 -29t44.5 -20t46 0q27 8 33 34t3 55z" />
    <glyph glyph-name="adieresis" unicode="&#xe4;" horiz-adv-x="686" 
d="M324 645q0 -21 -19.5 -40t-48.5 -19t-49 16t-20 46q0 9 3.5 19.5t11.5 20t21 15.5t33 6q28 0 48 -18.5t20 -45.5zM138 647q0 -23 -8.5 -36t-19 -19t-21 -7.5t-14.5 -1.5q-5 0 -15 2t-20.5 8.5t-18.5 19.5t-8 34q0 19 7.5 31.5t17.5 19t21 9t19 2.5q7 0 17.5 -2t20 -8
t16 -18.5t6.5 -33.5zM659 50q19 -8 25 -16t2 -15.5t-17 -13t-32 -8.5q-19 -2 -47 3.5t-59 18t-61 30.5t-53 41l-8 8q-24 -52 -62 -77t-81 -29t-87 11t-79 44q-35 28 -49.5 70.5t-11.5 84.5t23 77t55 49q25 10 49.5 12t46.5 -1t41.5 -9t33.5 -12q-23 48 -43.5 86.5
t-34.5 52.5q-16 15 -28.5 17t-21.5 -4t-13.5 -17.5t-4.5 -22.5q0 -23 -10.5 -42.5t-36.5 -21.5t-45.5 16t-19.5 48q0 15 8 29.5t21.5 26t30.5 19t35 9.5q61 4 115.5 -29t118.5 -110q32 -39 72 -90t81 -99t79.5 -86t67.5 -50zM370 155q-14 23 -27.5 50.5t-27.5 56.5
q-18 11 -49.5 22t-79.5 6q-30 -3 -40 -21.5t-8 -42.5t13 -47.5t23 -35.5t30 -28t39.5 -29t44.5 -20t46 0q27 8 33 34t3 55z" />
    <glyph glyph-name="aring" unicode="&#xe5;" horiz-adv-x="686" 
d="M185 647q0 -23 -8.5 -36t-19 -19t-21 -7.5t-14.5 -1.5q-5 0 -15 2t-20.5 8.5t-18.5 19.5t-8 34q0 19 7.5 31.5t17.5 19t21 9t19 2.5q7 0 17.5 -2t20 -8t16 -18.5t6.5 -33.5zM642 50q19 -8 25 -16t2 -15.5t-17 -13t-32 -8.5q-19 -2 -47 3.5t-59 18t-61 30.5t-53 41l-8 8
q-24 -52 -62 -77t-81 -29t-87 11t-79 44q-35 28 -49.5 70.5t-11.5 84.5t23 77t55 49q25 10 49.5 12t46.5 -1t41.5 -9t33.5 -12q-23 48 -43.5 86.5t-34.5 52.5q-16 15 -28.5 17t-21.5 -4t-13.5 -17.5t-4.5 -22.5q0 -23 -10.5 -42.5t-36.5 -21.5t-45.5 16t-19.5 48
q0 15 8 29.5t21.5 26t30.5 19t35 9.5q61 4 115.5 -29t118.5 -110q32 -39 72 -90t81 -99t79.5 -86t67.5 -50zM151 646q0 12 -8.5 20.5t-20.5 8.5q-17 0 -23.5 -10t-6.5 -18q0 -14 8.5 -21.5t21.5 -7.5q12 0 20.5 8.5t8.5 19.5zM353 155q-14 23 -27.5 50.5t-27.5 56.5
q-18 11 -49.5 22t-79.5 6q-30 -3 -40 -21.5t-8 -42.5t13 -47.5t23 -35.5t30 -28t39.5 -29t44.5 -20t46 0q27 8 33 34t3 55z" />
    <glyph glyph-name="ae" unicode="&#xe6;" horiz-adv-x="966" 
d="M941 346q3 -20 -2.5 -29t-17.5 -12t-29.5 -2t-39.5 1q-13 0 -39.5 0.5t-60 1.5t-71 2t-72 2.5t-63.5 2.5t-45 2q-2 -8 -2.5 -17.5t-1.5 -19.5q-2 -33 13.5 -72.5t43.5 -73.5t66 -56.5t81 -22.5q45 0 76.5 13t52.5 30.5t32.5 34.5t16.5 26q9 17 23 22t22 -3q4 -5 5.5 -19
t-7.5 -34t-32.5 -45.5t-69.5 -52.5q-53 -32 -114.5 -40.5t-119.5 2.5t-107.5 39.5t-78.5 71.5q-24 -52 -62 -77t-81 -29t-87 11t-79 44q-35 28 -49.5 70.5t-11.5 84.5t23 77t55 49q25 10 49.5 12t46.5 -1t41.5 -9t33.5 -12q-23 48 -43.5 86.5t-34.5 52.5q-16 15 -28.5 17
t-21.5 -4t-13.5 -17.5t-4.5 -22.5q0 -23 -10.5 -42.5t-36.5 -21.5t-45.5 16t-19.5 48q0 15 8 29.5t21.5 26t30.5 19t35 9.5q61 4 115 -29.5t119 -109.5l21 -25q11 29 31.5 57t53.5 52q36 26 84 42t99.5 20.5t102 -3t92.5 -29t71 -57t36 -86.5zM803 361q-9 35 -27 64
q-16 24 -43.5 44t-72.5 20q-31 0 -55.5 -10.5t-43 -28t-30.5 -40t-19 -47.5zM361 155q-14 23 -27.5 50.5t-27.5 56.5q-18 11 -49.5 22t-79.5 6q-30 -3 -40 -21.5t-8 -42.5t13 -47.5t23 -35.5t30 -28t39.5 -29t44.5 -20t46 0q27 8 33 34t3 55z" />
    <glyph glyph-name="ccedilla" unicode="&#xe7;" horiz-adv-x="549" 
d="M535 119q-4 -9 -17.5 -28t-38.5 -40t-62 -39t-88 -25q-2 -3 -2 -6.5v-6.5v-7l11 2q5 1 10.5 1.5t12.5 -0.5q26 -2 35.5 -14.5t9.5 -30.5t-11 -29.5t-36 -11.5q-26 0 -30.5 7t-6.5 12q-2 8 3 10q4 2 8.5 -3.5t21.5 -5.5q12 0 17.5 6.5t5 15t-6 15t-15.5 6.5t-16 -1
t-11 -2.5t-9.5 -2.5t-10.5 -1q-3 0 -3.5 5t0.5 11.5t2 14.5t1 14q-5 0 -10 -0.5t-10 -0.5q-39 -1 -88.5 11t-92 41.5t-70.5 78.5t-25 121q3 75 31.5 124t67.5 77.5t81 40t71 11.5q34 0 53.5 -2t31.5 -5.5t19.5 -7t17.5 -6.5q9 -3 21.5 4.5t15.5 18.5q1 7 4.5 7t7.5 -4t8 -9
t6 -9q1 -3 5 -13t10 -21.5t13.5 -23t14.5 -18.5q15 -16 10 -27t-12 -13q-8 -2 -23.5 4t-44.5 33q-14 13 -33.5 23.5t-40.5 18t-42 11.5t-38 3q-25 -2 -49.5 -17.5t-43.5 -42.5t-30.5 -65t-9.5 -84q2 -54 17.5 -94t40 -66.5t56 -39.5t66.5 -13q34 0 67.5 15.5t60.5 34.5
t44 36.5t18 22.5q1 4 7.5 4.5t13 -2t10 -8.5t-0.5 -15z" />
    <glyph glyph-name="egrave" unicode="&#xe8;" horiz-adv-x="619" 
d="M371 585q6 -19 2 -24.5t-24 1.5q-17 6 -45 17t-51 27q-27 19 -31 42t7.5 39t33.5 18.5t48 -18.5q10 -9 20 -22t17.5 -27.5t13.5 -28.5t9 -24zM602 346q3 -20 -2.5 -29t-17.5 -12t-29.5 -2t-39.5 1q-13 0 -39.5 0.5t-60 1.5t-71 2t-72 2.5t-63.5 2.5t-45 2
q-2 -8 -2.5 -17.5t-1.5 -19.5q-2 -33 13.5 -72.5t43.5 -73.5t66 -56.5t81 -22.5q45 0 76.5 13t52.5 30.5t32.5 34.5t16.5 26q9 17 23 22t22 -3q4 -5 6 -19t-7 -34t-33 -45.5t-70 -52.5q-45 -27 -104 -34.5t-117 0.5t-107.5 30.5t-75.5 56.5q-13 17 -26.5 44t-22 60t-11 70
t6.5 73.5t31 71t62 62.5q36 26 84 42t99.5 20.5t102.5 -3.5t92.5 -29t70.5 -56.5t36 -86.5zM464 361q-9 35 -27 64q-16 24 -43.5 44t-72.5 20q-31 0 -55.5 -10.5t-43 -28t-30.5 -40t-19 -47.5z" />
    <glyph glyph-name="eacute" unicode="&#xe9;" horiz-adv-x="619" 
d="M432 606q-23 -16 -51 -27t-44 -17q-20 -8 -24.5 -2t1.5 25q3 10 9 23.5t13.5 28t17 28t20.5 22.5q25 21 47.5 18t34 -19t8 -38.5t-31.5 -41.5zM602 346q3 -20 -2.5 -29t-17.5 -12t-29.5 -2t-39.5 1q-13 0 -39.5 0.5t-60 1.5t-71 2t-72 2.5t-63.5 2.5t-45 2
q-2 -8 -2.5 -17.5t-1.5 -19.5q-2 -33 13.5 -72.5t43.5 -73.5t66 -56.5t81 -22.5q45 0 76.5 13t52.5 30.5t32.5 34.5t16.5 26q9 17 23 22t22 -3q4 -5 6 -19t-7 -34t-33 -45.5t-70 -52.5q-45 -27 -104 -34.5t-117 0.5t-107.5 30.5t-75.5 56.5q-13 17 -26.5 44t-22 60t-11 70
t6.5 73.5t31 71t62 62.5q36 26 84 42t99.5 20.5t102.5 -3.5t92.5 -29t70.5 -56.5t36 -86.5zM464 361q-9 35 -27 64q-16 24 -43.5 44t-72.5 20q-31 0 -55.5 -10.5t-43 -28t-30.5 -40t-19 -47.5z" />
    <glyph glyph-name="ecircumflex" unicode="&#xea;" horiz-adv-x="619" 
d="M427 591q0 -3 -3 -8t-7 -9.5t-8 -8.5l-5 -5q-2 -2 -14 8t-26 21q-8 7 -17 14.5t-19 16.5l-39 -39q-12 -12 -23 -19t-21 3l-17 17q-5 5 -0.5 12.5t11.5 18.5q17 27 36 55t43 52q4 4 9.5 2t10.5 -6.5t10 -10.5t8 -10q13 -17 26.5 -32.5t24 -29t16.5 -24.5t4 -18zM602 346
q3 -20 -2.5 -29t-17.5 -12t-29.5 -2t-39.5 1q-13 0 -39.5 0.5t-60 1.5t-71 2t-72 2.5t-63.5 2.5t-45 2q-2 -8 -2.5 -17.5t-1.5 -19.5q-2 -33 13.5 -72.5t43.5 -73.5t66 -56.5t81 -22.5q45 0 76.5 13t52.5 30.5t32.5 34.5t16.5 26q9 17 23 22t22 -3q4 -5 6 -19t-7 -34
t-33 -45.5t-70 -52.5q-45 -27 -104 -34.5t-117 0.5t-107.5 30.5t-75.5 56.5q-13 17 -26.5 44t-22 60t-11 70t6.5 73.5t31 71t62 62.5q36 26 84 42t99.5 20.5t102.5 -3.5t92.5 -29t70.5 -56.5t36 -86.5zM464 361q-9 35 -27 64q-16 24 -43.5 44t-72.5 20q-31 0 -55.5 -10.5
t-43 -28t-30.5 -40t-19 -47.5z" />
    <glyph glyph-name="edieresis" unicode="&#xeb;" horiz-adv-x="619" 
d="M489 645q0 -21 -19.5 -40t-48.5 -19t-49.5 16t-20.5 46q0 9 3.5 19.5t12 20t21.5 15.5t33 6q28 0 48 -18.5t20 -45.5zM303 647q0 -23 -8.5 -36t-19 -19t-21 -7.5t-14.5 -1.5q-5 0 -15 2t-20.5 8.5t-18.5 19.5t-8 34q0 19 7.5 31.5t17.5 19t21 9t18 2.5t17.5 -2t20.5 -8
t16.5 -18.5t6.5 -33.5zM602 346q3 -20 -2.5 -29t-17.5 -12t-29.5 -2t-39.5 1q-13 0 -39.5 0.5t-60 1.5t-71 2t-72 2.5t-63.5 2.5t-45 2q-2 -8 -2.5 -17.5t-1.5 -19.5q-2 -33 13.5 -72.5t43.5 -73.5t66 -56.5t81 -22.5q45 0 76.5 13t52.5 30.5t32.5 34.5t16.5 26q9 17 23 22
t22 -3q4 -5 6 -19t-7 -34t-33 -45.5t-70 -52.5q-45 -27 -104 -34.5t-117 0.5t-107.5 30.5t-75.5 56.5q-13 17 -26.5 44t-22 60t-11 70t6.5 73.5t31 71t62 62.5q36 26 84 42t99.5 20.5t102.5 -3.5t92.5 -29t70.5 -56.5t36 -86.5zM464 361q-9 35 -27 64q-16 24 -43.5 44
t-72.5 20q-31 0 -55.5 -10.5t-43 -28t-30.5 -40t-19 -47.5z" />
    <glyph glyph-name="igrave" unicode="&#xec;" horiz-adv-x="244" 
d="M164 597q6 -19 1.5 -25t-24.5 2q-16 6 -44.5 17t-51.5 27q-27 19 -30.5 42t8 38.5t33.5 18.5t48 -18q10 -9 20 -22t17.5 -27.5t13.5 -28.5t9 -24zM260 5q-6 -2 -9.5 -3.5t-7 -2.5t-9.5 -0.5l-18 1.5q-36 3 -60.5 4t-50.5 -3t-37 0.5t-13 18.5q0 7 4 13t9.5 11.5t9.5 11
t4 13.5v38t0.5 79.5t1 100t1 99t0.5 76.5v33q-1 7 -3.5 10t-5 4.5t-5 3.5t-3.5 7q-2 4 6 5t21 1h27.5t26.5 1q10 1 21 1.5t20.5 -1t16 -6t6.5 -14.5v-422q0 -6 5.5 -12.5t12.5 -12.5t14.5 -10t11.5 -5t7.5 -7t4.5 -12.5t-1 -12.5t-8 -8z" />
    <glyph glyph-name="iacute" unicode="&#xed;" horiz-adv-x="244" 
d="M214 616q-23 -16 -51 -27t-45 -17q-20 -7 -25 -1.5t2 24.5q3 9 9 23t14 28.5t17.5 28t20.5 22.5q25 21 47.5 18t34 -18.5t7.5 -38.5t-31 -42zM218 5q-6 -2 -9.5 -3.5t-7 -2.5t-9.5 -0.5l-18 1.5q-36 3 -60.5 4t-50.5 -3t-37 0.5t-13 18.5q0 7 4 13t9.5 11.5t9.5 11
t4 13.5v38t0.5 79.5t1 100t1 99t0.5 76.5v33q-1 7 -3.5 10t-5 4.5t-5 3.5t-3.5 7q-2 4 6 5t21 1h27.5t26.5 1q10 1 21 1.5t20.5 -1t16 -6t6.5 -14.5v-422q0 -6 5.5 -12.5t12.5 -12.5t14.5 -10t11.5 -5t7.5 -7t4.5 -12.5t-1 -12.5t-8 -8z" />
    <glyph glyph-name="icircumflex" unicode="&#xee;" horiz-adv-x="244" 
d="M215 591q0 -2 -3.5 -7t-7.5 -10t-7.5 -9t-4.5 -5q-2 -2 -14 8t-26 21q-8 7 -17 14.5t-19 16.5l-39 -39q-12 -12 -23 -19t-22 3l-4.5 4.5t-2 2.5t-2.5 3l-7 7t-0.5 12.5t10.5 18.5q18 27 37 55t43 52q5 5 10.5 3t10.5 -6.5t9.5 -11t7.5 -10.5q13 -17 26.5 -32t24 -28.5
t16.5 -24.5t4 -19zM232 5q-6 -2 -9.5 -3.5t-7 -2.5t-9.5 -0.5l-18 1.5q-36 3 -60.5 4t-50.5 -3t-37 0.5t-13 18.5q0 7 4 13t9.5 11.5t9.5 11t4 13.5v38t0.5 79.5t1 100t1 99t0.5 76.5v33q-1 7 -3.5 10t-5 4.5t-5 3.5t-3.5 7q-2 4 6 5t21 1h27.5t26.5 1q10 1 21 1.5t20.5 -1
t16 -6t6.5 -14.5v-422q0 -6 5.5 -12.5t12.5 -12.5t14.5 -10t11.5 -5t7.5 -7t4.5 -12.5t-1 -12.5t-8 -8z" />
    <glyph glyph-name="idieresis" unicode="&#xef;" horiz-adv-x="244" 
d="M325 645q0 -21 -20 -40t-49 -19t-49 16t-20 46q0 9 3.5 19.5t11.5 20t21 15.5t33 6q28 0 48.5 -18.5t20.5 -45.5zM139 647q0 -23 -8.5 -36t-19.5 -19t-21.5 -7.5t-14.5 -1.5q-5 0 -15 2t-20.5 8.5t-18.5 19.5t-8 34q0 19 7.5 31.5t18 19t21.5 9t18 2.5t17.5 -2t20 -8
t16.5 -18.5t7 -33.5zM271 5q-6 -2 -9.5 -3.5t-7 -2.5t-9.5 -0.5l-18 1.5q-36 3 -60.5 4t-50.5 -3t-37 0.5t-13 18.5q0 7 4 13t9.5 11.5t9.5 11t4 13.5v38t0.5 79.5t1 100t1 99t0.5 76.5v33q-1 7 -3.5 10t-5 4.5t-5 3.5t-3.5 7q-2 4 6 5t21 1h27.5t26.5 1q10 1 21 1.5
t20.5 -1t16 -6t6.5 -14.5v-422q0 -6 5.5 -12.5t12.5 -12.5t14.5 -10t11.5 -5t7.5 -7t4.5 -12.5t-1 -12.5t-8 -8z" />
    <glyph glyph-name="eth" unicode="&#xf0;" 
 />
    <glyph glyph-name="ntilde" unicode="&#xf1;" horiz-adv-x="810" 
d="M441 692q13 -7 10.5 -24.5t-18.5 -35.5t-44 -32t-67 -14q-27 0 -44.5 9.5t-34 20t-37.5 18.5t-55 6q-30 -2 -45 -19t-29 -39q-5 -8 -11.5 -8t-11.5 3.5t-8 9t-1 9.5q16 42 44.5 69t76.5 29q26 1 51 -6t48 -15.5t44 -15t39 -4.5q12 1 23.5 6t21.5 11.5t17 12.5t9 9
q4 4 10.5 3.5t11.5 -3.5zM765 -7q-17 -14 -42.5 -16.5t-52.5 5.5t-53.5 24.5t-45.5 39.5q-15 18 -33.5 50.5t-39 72t-42 83t-42 83t-39.5 71.5t-34 49q-12 13 -27 20t-30 10.5t-28 4t-22 0.5q-18 0 -35 -2.5t-17 -12.5v-397q0 -24 3.5 -33t11.5 -9t14.5 -7t2.5 -21t-22 -13
t-42 3q-12 0 -28 -0.5t-32.5 -0.5h-30.5t-21 1q-8 0 -12 5t-4.5 10.5t2 10.5t7.5 5q11 2 12.5 8.5t1.5 17.5v398q0 18 -5 21t-16 4q-5 1 -4 8.5t5.5 16.5t12.5 17t17 9q8 0 40.5 0.5t75 0t86.5 -1.5t76 -4q31 -3 60 -15.5t57.5 -38.5t57.5 -66.5t61 -99.5q31 -59 54.5 -98.5
t43 -65.5t37 -42t37.5 -28q16 -10 28 -18.5t16.5 -17t0 -18.5t-20.5 -23z" />
    <glyph glyph-name="ograve" unicode="&#xf2;" horiz-adv-x="600" 
d="M313 585q6 -19 2 -24.5t-24 1.5q-17 6 -45 17t-51 27q-27 19 -31 42t7.5 39t33.5 18.5t48 -18.5q10 -9 20 -22t17.5 -27.5t13.5 -28.5t9 -24zM573 258q0 -35 -13 -81t-43 -87t-77.5 -69.5t-116.5 -28.5q-79 0 -136 21t-94 59t-54.5 90.5t-17.5 114.5q0 64 23.5 112
t62.5 79t88.5 46t101.5 13.5t101.5 -19t88.5 -51.5t62.5 -83.5t23.5 -115.5zM476 110q12 18 13 48t-12 66t-40.5 74.5t-72.5 73.5q-87 68 -143 81t-93 -33q-14 -17 -19.5 -44.5t2 -61.5t30.5 -71.5t67 -74.5q41 -34 83.5 -54t79.5 -27t65 -1t40 24z" />
    <glyph glyph-name="oacute" unicode="&#xf3;" horiz-adv-x="600" 
d="M411 606q-23 -16 -51 -27t-45 -17q-20 -7 -24 -1.5t2 24.5q3 9 8.5 23t13.5 28.5t17.5 28t20.5 22.5q25 21 47.5 18t34 -18.5t7.5 -38.5t-31 -42zM573 258q0 -35 -13 -81t-43 -87t-77.5 -69.5t-116.5 -28.5q-79 0 -136 21t-94 59t-54.5 90.5t-17.5 114.5q0 64 23.5 112
t62.5 79t88.5 46t101.5 13.5t101.5 -19t88.5 -51.5t62.5 -83.5t23.5 -115.5zM476 110q12 18 13 48t-12 66t-40.5 74.5t-72.5 73.5q-87 68 -143 81t-93 -33q-14 -17 -19.5 -44.5t2 -61.5t30.5 -71.5t67 -74.5q41 -34 83.5 -54t79.5 -27t65 -1t40 24z" />
    <glyph glyph-name="ocircumflex" unicode="&#xf4;" horiz-adv-x="600" 
d="M393 591q0 -3 -3 -8t-7 -9.5t-8 -8.5l-5 -5q-2 -2 -14 8t-26 21q-8 7 -17 14.5t-19 16.5l-39 -39q-12 -12 -23 -19t-21 3l-17 17q-5 5 -0.5 12.5t11.5 18.5q17 27 36 55t43 52q4 4 9.5 2t10.5 -6.5t10 -10.5t8 -10q13 -17 26.5 -32.5t24 -29t16.5 -24.5t4 -18zM573 258
q0 -35 -13 -81t-43 -87t-77.5 -69.5t-116.5 -28.5q-79 0 -136 21t-94 59t-54.5 90.5t-17.5 114.5q0 64 23.5 112t62.5 79t88.5 46t101.5 13.5t101.5 -19t88.5 -51.5t62.5 -83.5t23.5 -115.5zM476 110q12 18 13 48t-12 66t-40.5 74.5t-72.5 73.5q-87 68 -143 81t-93 -33
q-14 -17 -19.5 -44.5t2 -61.5t30.5 -71.5t67 -74.5q41 -34 83.5 -54t79.5 -27t65 -1t40 24z" />
    <glyph glyph-name="otilde" unicode="&#xf5;" horiz-adv-x="600" 
d="M489 682q12 -7 9.5 -24.5t-18 -35.5t-43.5 -32t-67 -14q-27 0 -44.5 9.5t-34.5 20t-38 18.5t-55 5q-29 -2 -44.5 -18.5t-29.5 -39.5q-5 -8 -11 -8t-11 4t-8 9.5t-1 9.5q16 42 44 69t76 29q27 1 52 -6t48 -15.5t44 -15t39 -4.5q11 1 23 6t21.5 11t17 12t9.5 9q3 4 10 4
t12 -3zM573 258q0 -35 -13 -81t-43 -87t-77.5 -69.5t-116.5 -28.5q-79 0 -136 21t-94 59t-54.5 90.5t-17.5 114.5q0 64 23.5 112t62.5 79t88.5 46t101.5 13.5t101.5 -19t88.5 -51.5t62.5 -83.5t23.5 -115.5zM476 110q12 18 13 48t-12 66t-40.5 74.5t-72.5 73.5
q-87 68 -143 81t-93 -33q-14 -17 -19.5 -44.5t2 -61.5t30.5 -71.5t67 -74.5q41 -34 83.5 -54t79.5 -27t65 -1t40 24z" />
    <glyph glyph-name="odieresis" unicode="&#xf6;" horiz-adv-x="600" 
d="M467 645q0 -21 -19.5 -40t-48.5 -19t-49 16t-20 46q0 9 3.5 19.5t11.5 20t21 15.5t33 6q28 0 48 -18.5t20 -45.5zM281 647q0 -23 -8.5 -36t-19 -19t-21 -7.5t-14.5 -1.5q-5 0 -15 2t-20.5 8.5t-18.5 19.5t-8 34q0 19 7.5 31.5t17.5 19t21 9t19 2.5q7 0 17.5 -2t20 -8
t16 -18.5t6.5 -33.5zM573 258q0 -35 -13 -81t-43 -87t-77.5 -69.5t-116.5 -28.5q-79 0 -136 21t-94 59t-54.5 90.5t-17.5 114.5q0 64 23.5 112t62.5 79t88.5 46t101.5 13.5t101.5 -19t88.5 -51.5t62.5 -83.5t23.5 -115.5zM476 110q12 18 13 48t-12 66t-40.5 74.5t-72.5 73.5
q-87 68 -143 81t-93 -33q-14 -17 -19.5 -44.5t2 -61.5t30.5 -71.5t67 -74.5q41 -34 83.5 -54t79.5 -27t65 -1t40 24z" />
    <glyph glyph-name="divide" unicode="&#xf7;" horiz-adv-x="333" 
d="M223 328q0 -10 -4 -20.5t-12.5 -19.5t-20.5 -15t-28 -6q-17 0 -28.5 5.5t-19 13.5t-11 18t-3.5 18t2.5 19.5t9 21.5t17 17t26.5 7q39 0 55.5 -19.5t16.5 -39.5zM311 160q-1 -3 -13 -4.5t-31 -2t-43 -0.5h-49q-29 0 -62 1t-70 3q-11 1 -17 3t-6 16v22q0 12 1 14q1 5 3 9.5
t6 4.5h261q5 0 13 -7.5t7 -24.5q0 -17 1.5 -22t-1.5 -12zM227 48q0 -7 -2 -17.5t-8 -20t-18.5 -16.5t-33.5 -7q-23 0 -36 8.5t-19 19.5t-7.5 21.5t-1.5 14.5t2 14.5t8.5 21t19.5 18.5t34 8q19 0 31.5 -7.5t19 -18t9 -21.5t2.5 -18z" />
    <glyph glyph-name="oslash" unicode="&#xf8;" horiz-adv-x="600" 
d="M573 260q0 -35 -13 -81t-43 -87t-77.5 -69.5t-116.5 -28.5q-57 0 -100 10t-78 30q-25 -26 -41.5 -40t-21.5 -12q-12 4 -16.5 7.5t-7 7t-6.5 7t-15 8.5q-4 2 9 20.5t39 49.5q-33 38 -48.5 87.5t-15.5 109.5q0 59 20 104t54 76.5t77.5 48.5t91 20.5t95 -7t88.5 -34.5
q31 31 47.5 43.5t24.5 14t10 -3t5 -6.5q12 -11 17 -22q2 -6 4.5 -14t-11.5 -22l-37 -39q30 -33 48 -77t18 -101zM476 112q11 16 13 40t-5.5 53.5t-25.5 61.5t-47 64q-45 -49 -86.5 -96.5t-79.5 -92.5q37 -25 73.5 -38.5t68 -17t55 3t34.5 22.5zM351 384q-81 63 -134.5 73
t-88.5 -35q-13 -17 -18.5 -41.5t-1 -54.5t22 -64t50.5 -68q40 46 84 95t86 95z" />
    <glyph glyph-name="ugrave" unicode="&#xf9;" horiz-adv-x="923" 
d="M482 585q6 -19 1.5 -25t-24.5 2q-16 6 -44 17t-51 27q-27 19 -31 42t7.5 38.5t34 18.5t47.5 -18q11 -9 20.5 -22.5t17.5 -28t13.5 -28t8.5 -23.5zM845 498q40 -2 53 -9.5t6 -18.5t-31 -26t-57 -31q-36 -18 -67.5 -52t-64 -78t-68 -94t-79.5 -99q-26 -29 -63 -47
t-78.5 -28t-84 -13.5t-78.5 -3.5t-62.5 1.5t-36.5 2.5q-15 1 -24.5 1t-17 -1.5t-15.5 -2.5t-21 -1q-25 0 -36.5 11t3.5 25q8 7 16 11t14.5 10t10.5 16t4 28v330q0 7 -4.5 11t-10 7.5t-10 6.5t-5.5 8q-2 10 4 22t26 12h144q16 0 21 -3t5 -14t-3.5 -22.5t-16.5 -11.5t-13 -10
v-27v-345q0 -5 8 -8t21.5 -4t30.5 -0.5t34 3.5q18 3 44 15.5t59 38.5t71 66.5t79 99.5t77.5 102t71.5 70.5t70.5 40.5t73.5 11z" />
    <glyph glyph-name="uacute" unicode="&#xfa;" horiz-adv-x="923" 
d="M563 606q-23 -16 -51 -27t-44 -17q-20 -8 -24.5 -2t1.5 25q3 10 9 23.5t13.5 28t17 28t20.5 22.5q25 21 47.5 18t34 -19t8 -38.5t-31.5 -41.5zM845 498q40 -2 53 -9.5t6 -18.5t-31 -26t-57 -31q-36 -18 -67.5 -52t-64 -78t-68 -94t-79.5 -99q-26 -29 -63 -47t-78.5 -28
t-84 -13.5t-78.5 -3.5t-62.5 1.5t-36.5 2.5q-15 1 -24.5 1t-17 -1.5t-15.5 -2.5t-21 -1q-25 0 -36.5 11t3.5 25q8 7 16 11t14.5 10t10.5 16t4 28v330q0 7 -4.5 11t-10 7.5t-10 6.5t-5.5 8q-2 10 4 22t26 12h144q16 0 21 -3t5 -14t-3.5 -22.5t-16.5 -11.5t-13 -10v-27v-345
q0 -5 8 -8t21.5 -4t30.5 -0.5t34 3.5q18 3 44 15.5t59 38.5t71 66.5t79 99.5t77.5 102t71.5 70.5t70.5 40.5t73.5 11z" />
    <glyph glyph-name="ucircumflex" unicode="&#xfb;" horiz-adv-x="923" 
d="M563 591q0 -2 -3.5 -7t-7.5 -10t-7.5 -9t-4.5 -5q-2 -2 -14 8t-26 21q-8 7 -17 14.5t-19 16.5l-39 -39q-12 -12 -23 -19.5t-22 3.5l-17 17q-5 5 -1 12.5t12 18.5q18 27 37 55t43 52q5 5 10.5 3.5t10.5 -7t9 -11.5t7 -10q30 -34 52 -60.5t20 -43.5zM845 498q40 -2 53 -9.5
t6 -18.5t-31 -26t-57 -31q-36 -18 -67.5 -52t-64 -78t-68 -94t-79.5 -99q-26 -29 -63 -47t-78.5 -28t-84 -13.5t-78.5 -3.5t-62.5 1.5t-36.5 2.5q-15 1 -24.5 1t-17 -1.5t-15.5 -2.5t-21 -1q-25 0 -36.5 11t3.5 25q8 7 16 11t14.5 10t10.5 16t4 28v330q0 7 -4.5 11t-10 7.5
t-10 6.5t-5.5 8q-2 10 4 22t26 12h144q16 0 21 -3t5 -14t-3.5 -22.5t-16.5 -11.5t-13 -10v-27v-345q0 -5 8 -8t21.5 -4t30.5 -0.5t34 3.5q18 3 44 15.5t59 38.5t71 66.5t79 99.5t77.5 102t71.5 70.5t70.5 40.5t73.5 11z" />
    <glyph glyph-name="udieresis" unicode="&#xfc;" horiz-adv-x="923" 
d="M616 645q0 -21 -19.5 -40t-48.5 -19t-49.5 16t-20.5 46q0 9 3.5 19.5t12 20t21.5 15.5t33 6q28 0 48 -18.5t20 -45.5zM430 647q0 -23 -8.5 -36t-19 -19t-21 -7.5t-14.5 -1.5q-5 0 -15 2t-20.5 8.5t-18.5 19.5t-8 34q0 19 7.5 31.5t17.5 19t21 9t18 2.5t17.5 -2t20.5 -8
t16.5 -18.5t6.5 -33.5zM845 498q40 -2 53 -9.5t6 -18.5t-31 -26t-57 -31q-36 -18 -67.5 -52t-64 -78t-68 -94t-79.5 -99q-26 -29 -63 -47t-78.5 -28t-84 -13.5t-78.5 -3.5t-62.5 1.5t-36.5 2.5q-15 1 -24.5 1t-17 -1.5t-15.5 -2.5t-21 -1q-25 0 -36.5 11t3.5 25q8 7 16 11
t14.5 10t10.5 16t4 28v330q0 7 -4.5 11t-10 7.5t-10 6.5t-5.5 8q-2 10 4 22t26 12h144q16 0 21 -3t5 -14t-3.5 -22.5t-16.5 -11.5t-13 -10v-27v-345q0 -5 8 -8t21.5 -4t30.5 -0.5t34 3.5q18 3 44 15.5t59 38.5t71 66.5t79 99.5t77.5 102t71.5 70.5t70.5 40.5t73.5 11z" />
    <glyph glyph-name="yacute" unicode="&#xfd;" horiz-adv-x="872" 
d="M558 606q-22 -15 -50.5 -26.5t-44.5 -17.5q-20 -8 -24.5 -2t1.5 25q3 10 9 23.5t13.5 28t17 28t20.5 22.5q25 21 47.5 18t34 -19t8 -38.5t-31.5 -41.5zM829 481q-5 -7 -18.5 -11.5t-30 -7.5t-32 -5t-23.5 -4t-20.5 -18.5t-35.5 -52.5t-59.5 -93.5t-92.5 -142.5
q-60 -90 -133 -179.5t-152 -165t-161 -132t-160 -81.5q-77 -25 -129 -27t-84.5 7t-49.5 23.5t-24 21.5t-14 25.5t-7 39.5t9 41t35 30q30 12 52 8t36 -16t21.5 -29t8.5 -30q1 -11 -3 -22t-8.5 -20.5t-7.5 -16t1 -8.5q45 -14 96 -1.5t103.5 40t103 64.5t94.5 73q25 20 53 48.5
t57 62t59 71t59 76.5q-12 19 -33.5 53.5t-46.5 76t-51.5 85.5t-49.5 81.5t-39 64.5t-20 34q-14 25 -31 30.5t-29 8.5q-6 1 -9 7.5t-3 13.5t4 13.5t13 7.5q17 2 36 -4.5t47 -6.5q36 0 62 6t41 9q14 2 30.5 -7t16.5 -23q0 -8 -4.5 -12.5t-10 -8.5t-8.5 -8t0 -10q2 -3 13 -22
t27.5 -46.5l36 -60t38.5 -63.5t34.5 -57t24.5 -40q31 45 58.5 85.5t49.5 73.5t37.5 55.5t21.5 30.5q13 18 4 37t-29 26q-9 3 -10 8.5t3.5 11.5t14 11t20.5 6q21 2 36.5 -1.5t28.5 -3.5q15 0 45 -3t58 3q26 6 32.5 -5t-2.5 -25z" />
    <glyph glyph-name="thorn" unicode="&#xfe;" 
 />
    <glyph glyph-name="ydieresis" unicode="&#xff;" horiz-adv-x="872" 
d="M624 645q0 -21 -19.5 -40t-48.5 -19t-49 16t-20 46q0 9 3.5 19.5t11.5 20t21 15.5t33 6q28 0 48 -18.5t20 -45.5zM438 647q0 -23 -8.5 -36t-19 -19t-21 -7.5t-14.5 -1.5q-5 0 -15 2t-20.5 8.5t-18.5 19.5t-8 34q0 19 7.5 31.5t17.5 19t21 9t19 2.5q7 0 17.5 -2t20 -8
t16 -18.5t6.5 -33.5zM829 481q-5 -7 -18.5 -11.5t-30 -7.5t-32 -5t-23.5 -4t-20.5 -18.5t-35.5 -52.5t-59.5 -93.5t-92.5 -142.5q-60 -90 -133 -179.5t-152 -165t-161 -132t-160 -81.5q-77 -25 -129 -27t-84.5 7t-49.5 23.5t-24 21.5t-14 25.5t-7 39.5t9 41t35 30
q30 12 52 8t36 -16t21.5 -29t8.5 -30q1 -11 -3 -22t-8.5 -20.5t-7.5 -16t1 -8.5q45 -14 96 -1.5t103.5 40t103 64.5t94.5 73q25 20 53 48.5t57 62t59 71t59 76.5q-12 19 -33.5 53.5t-46.5 76t-51.5 85.5t-49.5 81.5t-39 64.5t-20 34q-14 25 -31 30.5t-29 8.5q-6 1 -9 7.5
t-3 13.5t4 13.5t13 7.5q17 2 36 -4.5t47 -6.5q36 0 62 6t41 9q14 2 30.5 -7t16.5 -23q0 -8 -4.5 -12.5t-10 -8.5t-8.5 -8t0 -10q2 -3 13 -22t27.5 -46.5l36 -60t38.5 -63.5t34.5 -57t24.5 -40q31 45 58.5 85.5t49.5 73.5t37.5 55.5t21.5 30.5q13 18 4 37t-29 26
q-9 3 -10 8.5t3.5 11.5t14 11t20.5 6q21 2 36.5 -1.5t28.5 -3.5q15 0 45 -3t58 3q26 6 32.5 -5t-2.5 -25z" />
  </font>
</defs>
</svg>
