<?xml version="1.0" standalone="no"?>
<!DOCTYPE svg PUBLIC "-//W3C//DTD SVG 1.1//EN" "http://www.w3.org/Graphics/SVG/1.1/DTD/svg11.dtd" >
<svg xmlns="http://www.w3.org/2000/svg" xmlns:xlink="http://www.w3.org/1999/xlink" version="1.1">
<metadata>
Created by FontForge 20201107 at Wed Feb  9 11:58:14 2022
 By 
Copyright (c) 2022, RandomMaerks (rmforbusiness@gmail.com)
</metadata>
<defs>
<font id="EdgecuttingLiteTight" horiz-adv-x="300" >
  <font-face 
    font-family="Edgecutting Lite Tight"
    font-weight="500"
    font-stretch="normal"
    units-per-em="1000"
    panose-1="2 1 6 3 4 3 2 6 1 3"
    ascent="800"
    descent="-200"
    x-height="550"
    cap-height="700"
    bbox="-143 -272 1414 959"
    underline-thickness="50"
    underline-position="-100"
    unicode-range="U+0020-2122"
  />
<missing-glyph horiz-adv-x="364" 
d="M33 0v666h265v-666h-265zM66 33h199v600h-199v-600z" />
    <glyph glyph-name=".notdef" horiz-adv-x="364" 
d="M33 0v666h265v-666h-265zM66 33h199v600h-199v-600z" />
    <glyph glyph-name=".null" horiz-adv-x="0" 
 />
    <glyph glyph-name="nonmarkingreturn" horiz-adv-x="333" 
 />
    <glyph glyph-name="space" unicode=" " horiz-adv-x="90" 
 />
    <glyph glyph-name="exclam" unicode="!" horiz-adv-x="170" 
d="M15 57q0 29 20.5 49.5t49.5 20.5t49.5 -20.5t20.5 -49.5t-20.5 -49.5t-49.5 -20.5t-49.5 20.5t-20.5 49.5zM146 700l-20 -522h-84l-20 522h124z" />
    <glyph glyph-name="quotedbl" unicode="&#x22;" horiz-adv-x="341" 
d="M266 517h-91l40 233h111zM106 517h-91l40 233h111z" />
    <glyph glyph-name="numbersign" unicode="#" horiz-adv-x="660" 
d="M69 422l26 96h105l48 182h104l-47 -182h125l48 182h104l-47 -182h110l-26 -96h-109l-28 -114h107l-24 -96h-108l-54 -212h-105l54 212h-125l-54 -212h-105l54 212h-107l24 96h108l28 114h-106zM405 422h-125l-28 -114h125z" />
    <glyph glyph-name="dollar" unicode="$" horiz-adv-x="545" 
d="M218 316q-90 12 -140.5 51t-50.5 101q0 69 54 115.5t149 55.5v71h104v-75q65 -17 114.5 -63t67.5 -95l-80 -44q-12 38 -61.5 76t-104.5 38q-67 0 -105 -22t-38 -49q0 -25 33 -42t78 -24l103 -16q87 -13 138 -56t51 -99q0 -76 -52.5 -124t-143.5 -57v-68h-104v72
q-77 15 -134 60t-81 105l80 56q19 -52 77.5 -91.5t125.5 -39.5q60 0 95.5 19.5t35.5 54.5q0 26 -28.5 47.5t-76.5 28.5z" />
    <glyph glyph-name="percent" unicode="%" horiz-adv-x="1009" 
d="M576 199q0 85 62 147t147 62t147 -62t62 -147t-62 -147t-147 -62t-147 62t-62 147zM676 199q0 -49 31.5 -79t77.5 -30t77.5 30t31.5 79q0 44 -32.5 76.5t-76.5 32.5q-48 0 -78.5 -32t-30.5 -77zM15 501q0 85 61.5 147t147.5 62t147.5 -62t61.5 -147t-61.5 -147
t-147.5 -62t-147.5 62t-61.5 147zM115 501q0 -49 31.5 -79t77.5 -30t77.5 30t31.5 79q0 44 -32.5 76.5t-76.5 32.5q-48 0 -78.5 -32t-30.5 -77zM675 700l-233 -700h-114l234 700h113z" />
    <glyph glyph-name="ampersand" unicode="&#x26;" horiz-adv-x="629" 
d="M284 328q-69 0 -123 -35.5t-54 -94.5q0 -54 41 -83.5t106 -29.5q87 0 142 60t55 183h-167zM284 415h167v90h92v-90h71v-87h-71v-328h-92v95q-19 -50 -78.5 -77t-138.5 -27q-101 0 -160 54t-59 147q0 66 44.5 115t93.5 67q-98 51 -98 154q0 83 60.5 135t148.5 52
q66 0 125.5 -36t73.5 -98l-75 -43q-6 39 -44 61t-80 22q-50 0 -83.5 -25t-33.5 -68q0 -51 42 -82t95 -31z" />
    <glyph glyph-name="quotesingle" unicode="'" horiz-adv-x="181" 
d="M106 517h-91l40 233h111z" />
    <glyph glyph-name="parenleft" unicode="(" horiz-adv-x="295" 
d="M247 -12q-87 21 -159.5 124t-72.5 239q0 140 70.5 239.5t161.5 124.5l33 -91q-86 -36 -126.5 -100t-40.5 -173q0 -100 48 -172.5t119 -104.5z" />
    <glyph glyph-name="parenright" unicode=")" horiz-adv-x="296" 
d="M47 716q87 -21 160.5 -128t73.5 -243q0 -140 -71.5 -239.5t-162.5 -124.5l-32 91q86 36 127 100t41 173q0 100 -48 172.5t-120 104.5z" />
    <glyph glyph-name="asterisk" unicode="*" horiz-adv-x="290" 
d="M186 487h-81l10 74l-81 -43l-18 69l75 29l-76 29l18 69l82 -43l-10 79h81l-10 -79l80 42l19 -69l-73 -27l72 -28l-18 -69l-80 42z" />
    <glyph glyph-name="plus" unicode="+" horiz-adv-x="377" 
d="M139 262h-124v98h124v123h98v-123h125v-98h-125v-126h-98v126z" />
    <glyph glyph-name="comma" unicode="," horiz-adv-x="181" 
d="M75 111h91l-40 -233h-111z" />
    <glyph glyph-name="hyphen" unicode="-" horiz-adv-x="377" 
d="M362 262h-347v98h347v-98z" />
    <glyph glyph-name="period" unicode="." horiz-adv-x="170" 
d="M15 57q0 29 20.5 49.5t49.5 20.5t49.5 -20.5t20.5 -49.5t-20.5 -49.5t-49.5 -20.5t-49.5 20.5t-20.5 49.5z" />
    <glyph glyph-name="slash" unicode="/" horiz-adv-x="377" 
d="M362 700l-233 -700h-114l234 700h113z" />
    <glyph glyph-name="zero" unicode="0" horiz-adv-x="606" 
d="M9 351q0 160 77 262t217 102q135 0 214.5 -103.5t79.5 -260.5t-79.5 -260.5t-214.5 -103.5q-140 0 -217 102t-77 262zM109 351q0 -120 48.5 -192.5t145.5 -72.5q91 0 142.5 73.5t51.5 191.5q0 113 -52 189t-142 76q-96 0 -145 -75t-49 -190z" />
    <glyph glyph-name="one" unicode="1" horiz-adv-x="321" 
d="M9 700h303v-700h-104v598h-199v102z" />
    <glyph glyph-name="two" unicode="2" horiz-adv-x="515" 
d="M9 480q11 97 80.5 163.5t163.5 66.5q113 0 178 -70.5t65 -191.5q0 -72 -45 -133.5t-109 -98.5t-127.5 -63.5t-108.5 -36.5l-45 -11h445v-105h-497v194q8 1 22 4t53.5 14.5t75.5 24.5t80.5 35t76 47t53.5 60.5t22 73.5q0 73 -35 113t-98 40q-68 0 -111.5 -42.5
t-47.5 -130.5z" />
    <glyph glyph-name="three" unicode="3" horiz-adv-x="525" 
d="M476 700v-166l-183 -119q8 1 22 1q80 0 140.5 -53.5t60.5 -150.5q0 -222 -253 -222q-97 0 -175.5 68.5t-78.5 161.5l91 47q1 -90 49 -131.5t120 -41.5q68 0 110 27.5t42 85.5q0 47 -28.5 78t-65 42t-76.5 11q-22 0 -44.5 -2.5t-34.5 -5.5l-12 -2v103l263 171l-394 -1v99
h447z" />
    <glyph glyph-name="four" unicode="4" horiz-adv-x="554" 
d="M9 366l274 334h176v-409h86v-95h-86v-196h-94v196h-356v170zM365 291v358l-301 -358h301z" />
    <glyph glyph-name="five" unicode="5" horiz-adv-x="520" 
d="M115 437q64 69 163 69q93 0 163 -73t70 -187q0 -118 -77 -188.5t-183 -70.5q-87 0 -154.5 53t-87.5 163l93 36q5 -44 21.5 -75.5t39 -47.5t45 -22.5t47.5 -6.5q63 0 109.5 40t46.5 119q0 73 -49.5 116t-110.5 43q-38 0 -76 -21t-60 -56h-94v372l454 1v-99h-360v-165z" />
    <glyph glyph-name="six" unicode="6" horiz-adv-x="525" 
d="M106 378q27 44 73 74t108 30q95 0 162 -70t67 -176q0 -108 -70.5 -178.5t-178.5 -70.5q-122 0 -190 88t-68 270q0 189 75.5 280.5t197.5 91.5q84 0 139.5 -54t74.5 -116l-81 -45q-18 56 -49 86t-90 30q-80 0 -125 -64t-45 -176zM116 236q0 -68 43.5 -111t107.5 -43
q65 0 110 43t45 111q0 62 -45.5 105.5t-109.5 43.5q-63 0 -107 -43t-44 -106z" />
    <glyph glyph-name="seven" unicode="7" horiz-adv-x="498" 
d="M209 0h-113l346 596h-433v104h480v-222z" />
    <glyph glyph-name="eight" unicode="8" horiz-adv-x="516" 
d="M258 715q88 0 148.5 -52t60.5 -135q0 -39 -22 -77.5t-56 -56.5q44 -12 81 -63t37 -119q0 -104 -72 -165.5t-177 -61.5t-177 61.5t-72 165.5q0 68 36.5 117t81.5 65q-34 18 -56 56.5t-22 77.5q0 83 60.5 135t148.5 52zM258 621q-49 0 -83 -26.5t-34 -66.5q0 -45 33 -69
t84 -24t84 24t33 69q0 40 -34 66.5t-83 26.5zM258 348q-66 0 -111.5 -34.5t-45.5 -95.5q0 -66 44.5 -99.5t112.5 -33.5t112.5 33.5t44.5 99.5q0 61 -45.5 95.5t-111.5 34.5z" />
    <glyph glyph-name="nine" unicode="9" horiz-adv-x="525" 
d="M420 326q-27 -44 -73.5 -74t-108.5 -30q-95 0 -162 70t-67 176q0 108 70.5 178.5t178.5 70.5q122 0 190 -88t68 -270q0 -189 -75.5 -280.5t-197.5 -91.5q-45 0 -83 17t-63.5 44.5t-42 54.5t-24.5 54l81 45q18 -56 49 -86t90 -30q80 0 125 64t45 176zM410 468
q0 68 -44 111t-108 43q-65 0 -109.5 -43t-44.5 -111q0 -63 45.5 -106t108.5 -43t107.5 43t44.5 106z" />
    <glyph glyph-name="colon" unicode=":" horiz-adv-x="170" 
d="M15 476q0 28 20.5 49t49.5 21t49.5 -21t20.5 -49t-20.5 -49t-49.5 -21t-49.5 21t-20.5 49zM15 116q0 28 20.5 49t49.5 21t49.5 -21t20.5 -49t-20.5 -49t-49.5 -21t-49.5 21t-20.5 49z" />
    <glyph glyph-name="semicolon" unicode=";" horiz-adv-x="181" 
d="M75 186h91l-40 -233h-111zM15 476q0 28 20.5 49t49.5 21t49.5 -21t20.5 -49t-20.5 -49t-49.5 -21t-49.5 21t-20.5 49z" />
    <glyph glyph-name="less" unicode="&#x3c;" horiz-adv-x="427" 
d="M412 504v-114l-350 -113l350 -114v-114l-397 132v191z" />
    <glyph glyph-name="equal" unicode="=" horiz-adv-x="477" 
d="M462 352h-447v98h447v-98zM462 162h-447v98h447v-98z" />
    <glyph glyph-name="greater" unicode="&#x3e;" horiz-adv-x="427" 
d="M15 49v114l349 114l-349 113v114l397 -132v-191z" />
    <glyph glyph-name="question" unicode="?" horiz-adv-x="517" 
d="M185 57q0 29 20.5 49.5t49.5 20.5t49.5 -20.5t20.5 -49.5t-20.5 -49.5t-49.5 -20.5t-49.5 20.5t-20.5 49.5zM15 530q26 71 91.5 125.5t152.5 54.5q113 0 178 -61.5t65 -167.5q0 -104 -61 -163.5t-135 -59.5l-10 -79h-77l-10 173h99q36 0 63 36.5t27 87.5q0 58 -35.5 94
t-97.5 36q-61 0 -97.5 -30.5t-61.5 -92.5z" />
    <glyph glyph-name="at" unicode="@" horiz-adv-x="742" 
d="M362 313q-40 0 -64 -25.5t-24 -63.5t24 -63.5t64 -25.5q38 0 63 25.5t25 63.5q0 37 -26 63t-62 26zM456 102q-1 -2 -3.5 -5.5t-13 -13t-22 -16.5t-31.5 -13t-42 -6q-65 0 -115.5 45.5t-50.5 120.5q0 83 50.5 135.5t115.5 52.5q26 0 48 -7t35.5 -18.5t19 -17.5t9.5 -12v-1
v43h94v-235q0 -17 10 -28.5t24 -11.5q25 0 39.5 32t14.5 85q0 113 -78 185t-188 72q-114 0 -190 -78.5t-76 -188.5q0 -115 75 -191t191 -76q42 0 76 11l24 -95q-52 -13 -100 -13q-105 0 -189 48.5t-129.5 131.5t-45.5 184t45.5 184t129.5 131.5t189 48.5q101 0 184 -43.5
t131.5 -124.5t48.5 -186q0 -97 -38.5 -153t-121.5 -56q-44 0 -77 24t-43 56z" />
    <glyph glyph-name="A" unicode="A" horiz-adv-x="682" 
d="M667 0h-114l-57 174h-315l-58 -174h-114l234 700h191zM463 272l-125 380l-125 -380h250z" />
    <glyph glyph-name="B" unicode="B" horiz-adv-x="603" 
d="M375 102q53 0 90 27t37 78q0 53 -38 85t-89 32h-256v-222h256zM375 0h-360v700h320q95 0 157 -55t62 -146q0 -84 -78 -125q118 -48 118 -167q0 -93 -59.5 -150t-159.5 -57zM335 414q54 0 90.5 20.5t36.5 64.5q0 46 -38 72.5t-89 26.5h-216v-184h216z" />
    <glyph glyph-name="C" unicode="C" horiz-adv-x="697" 
d="M688 197q-47 -96 -130.5 -153t-184.5 -57q-159 0 -261.5 104.5t-102.5 259.5t102.5 259.5t261.5 104.5q91 0 169 -48.5t128 -132.5l-86 -56q-37 64 -92.5 101.5t-118.5 37.5q-114 0 -190 -78t-76 -188q0 -115 75.5 -190.5t190.5 -75.5q69 0 129.5 42t96.5 113z" />
    <glyph glyph-name="D" unicode="D" horiz-adv-x="613" 
d="M119 102h146q123 0 180 69.5t57 187.5q0 97 -64 168t-173 71h-146v-496zM265 700q143 0 241 -92.5t98 -248.5q0 -91 -27.5 -161.5t-75.5 -113t-107.5 -63.5t-128.5 -21h-250v700h250z" />
    <glyph glyph-name="E" unicode="E" horiz-adv-x="570" 
d="M495 414v-102h-376v-210h436v-102h-540v700h540v-102h-436v-184h376z" />
    <glyph glyph-name="F" unicode="F" horiz-adv-x="570" 
d="M495 414v-102h-376v-312h-104v700h540v-102h-436v-184h376z" />
    <glyph glyph-name="G" unicode="G" horiz-adv-x="746" 
d="M636 278h-276v103l374 1q3 -12 3 -31q0 -165 -103.5 -264.5t-260.5 -99.5q-159 0 -261.5 104.5t-102.5 259.5t102.5 259.5t261.5 104.5q98 0 186 -49t141 -132l-86 -56q-40 63 -105.5 101.5t-135.5 38.5q-114 0 -190 -78.5t-76 -188.5q0 -115 75 -188.5t191 -73.5
q99 0 171 48t92 141z" />
    <glyph glyph-name="H" unicode="H" horiz-adv-x="614" 
d="M119 0h-104v700h104v-286h376v286h104v-700h-104v312h-376v-312z" />
    <glyph glyph-name="I" unicode="I" horiz-adv-x="134" 
d="M119 0h-104v700h104v-700z" />
    <glyph glyph-name="J" unicode="J" horiz-adv-x="583" 
d="M464 264v437h104v-447q0 -123 -74 -196t-201 -73q-106 0 -188.5 67.5t-95.5 168.5l96 29q13 -76 63 -120.5t125 -44.5q82 0 126.5 47t44.5 132z" />
    <glyph glyph-name="K" unicode="K" horiz-adv-x="613" 
d="M119 239v-239h-104v700h104v-342l353 342h132l-327 -321l327 -379h-132l-273 313z" />
    <glyph glyph-name="L" unicode="L" horiz-adv-x="564" 
d="M119 700v-598h436v-102h-540v700h104z" />
    <glyph glyph-name="M" unicode="M" horiz-adv-x="888" 
d="M548 0h-189l-240 648v-648h-104v700h196l243 -653l223 653h196v-700h-104v648z" />
    <glyph glyph-name="N" unicode="N" horiz-adv-x="643" 
d="M628 700v-700h-199l-310 648v-648h-104v700h196l313 -653v653h104z" />
    <glyph glyph-name="O" unicode="O" horiz-adv-x="746" 
d="M9 351q0 155 102.5 259.5t261.5 104.5q153 0 258.5 -105.5t105.5 -258.5t-105.5 -258.5t-258.5 -105.5q-159 0 -261.5 104.5t-102.5 259.5zM107 351q0 -115 75.5 -191t190.5 -76q109 0 187.5 77t78.5 190q0 108 -79 187.5t-187 79.5q-114 0 -190 -78.5t-76 -188.5z" />
    <glyph glyph-name="P" unicode="P" horiz-adv-x="563" 
d="M119 0h-104v700h300q97 0 168 -62t71 -159q0 -105 -67 -163t-172 -58h-196v-258zM315 354q59 0 98 32.5t39 92.5q0 54 -39.5 86.5t-97.5 32.5h-196v-244h196z" />
    <glyph glyph-name="Q" unicode="Q" horiz-adv-x="746" 
d="M107 351q0 -115 75.5 -190t190.5 -75q51 0 103 21l-142 166h127l96 -113q82 79 82 191q0 108 -79 187.5t-187 79.5q-114 0 -190 -78.5t-76 -188.5zM9 351q0 155 102.5 259.5t261.5 104.5q153 0 258.5 -105.5t105.5 -258.5q0 -160 -115 -267l115 -134h-127l-67 78
q-80 -41 -170 -41q-159 0 -261.5 104.5t-102.5 259.5z" />
    <glyph glyph-name="R" unicode="R" horiz-adv-x="563" 
d="M119 0h-104v700h300q97 0 168 -62t71 -159q0 -92 -53 -149t-140 -69l181 -261h-120l-177 258h-126v-258zM315 354q59 0 98 32.5t39 92.5q0 54 -39.5 86.5t-97.5 32.5h-196v-244h196z" />
    <glyph glyph-name="S" unicode="S" horiz-adv-x="603" 
d="M242 303q-101 14 -161 65.5t-60 134.5q0 101 70 157t207 56q105 0 175 -51.5t107 -132.5l-88 -44q-24 53 -74 90t-124 37q-85 0 -129 -28t-44 -76q0 -79 141 -101l103 -16q97 -15 163 -69.5t66 -130.5q0 -105 -71.5 -158.5t-202.5 -53.5q-234 0 -311 190l80 56
q40 -72 94 -109t140 -37q170 0 170 99q0 87 -145 107z" />
    <glyph glyph-name="T" unicode="T" horiz-adv-x="570" 
d="M237 598h-222v102h540v-102h-214v-598h-104v598z" />
    <glyph glyph-name="U" unicode="U" horiz-adv-x="600" 
d="M300 85q83 0 132 47.5t49 131.5v437h104v-447q0 -122 -78.5 -195.5t-206.5 -73.5t-206.5 73.5t-78.5 195.5v447h104v-437q0 -84 49 -131.5t132 -47.5z" />
    <glyph glyph-name="V" unicode="V" horiz-adv-x="676" 
d="M9 700h114l214 -652l216 652h114l-234 -700h-191z" />
    <glyph glyph-name="W" unicode="W" horiz-adv-x="1138" 
d="M9 700h114l175 -652l176 652h191l176 -652l174 652h114l-193 -700h-191l-175 644l-176 -644h-191z" />
    <glyph glyph-name="X" unicode="X" horiz-adv-x="678" 
d="M9 700h124l205 -308l204 308h124l-242 -355l245 -345h-124l-207 298l-205 -298h-124l244 345z" />
    <glyph glyph-name="Y" unicode="Y" horiz-adv-x="675" 
d="M394 285v-285h-111v285h-30l-244 415h124l205 -368l204 368h124l-242 -415h-30z" />
    <glyph glyph-name="Z" unicode="Z" horiz-adv-x="630" 
d="M15 700h600v-192l-548 -404h548v-104h-600v189l553 407h-553v104z" />
    <glyph glyph-name="bracketleft" unicode="[" horiz-adv-x="287" 
d="M15 700h257v-98h-153v-504h153v-98h-257v700z" />
    <glyph glyph-name="backslash" unicode="\" horiz-adv-x="377" 
d="M128 700l234 -700h-114l-233 700h113z" />
    <glyph glyph-name="bracketright" unicode="]" horiz-adv-x="287" 
d="M272 700v-700h-257v98h153v504h-153v98h257z" />
    <glyph glyph-name="asciicircum" unicode="^" horiz-adv-x="408" 
d="M393 534h-114l-73 168l-77 -168h-114l95 216h191z" />
    <glyph glyph-name="underscore" unicode="_" horiz-adv-x="447" 
d="M432 -98h-417v98h417v-98z" />
    <glyph glyph-name="grave" unicode="`" horiz-adv-x="276" 
d="M148 610l-133 190h112l134 -190h-113z" />
    <glyph glyph-name="a" unicode="a" horiz-adv-x="557" 
d="M238 87q51 0 94 13.5t74.5 49.5t31.5 90h-190q-71 0 -104.5 -23.5t-33.5 -55.5t33.5 -53t94.5 -21zM438 332q0 53 -42 94t-120 41q-58 0 -102 -35t-69 -93l-87 49q39 81 105.5 130t152.5 49q126 0 196 -63.5t70 -172.5v-330h-104v83q-24 -43 -80.5 -70t-119.5 -27
q-99 0 -164 49t-65 125q0 74 61.5 122.5t177.5 48.5h190z" />
    <glyph glyph-name="b" unicode="b" horiz-adv-x="607" 
d="M119 0h-104v750h104v-272q76 87 200 87q121 0 200 -80.5t79 -208.5t-79 -208.5t-200 -80.5q-124 0 -200 87v-74zM308 465q-78 0 -133 -55.5t-55 -133.5q0 -83 54.5 -136t133.5 -53t134 53t55 136q0 78 -55.5 133.5t-133.5 55.5z" />
    <glyph glyph-name="c" unicode="c" horiz-adv-x="573" 
d="M481 208l78 -49q-38 -80 -104 -126t-154 -46q-126 0 -209 82.5t-83 206.5t83 206.5t209 82.5q90 0 158 -48.5t105 -132.5l-86 -47q-25 58 -71.5 93t-105.5 35q-81 0 -136.5 -55t-55.5 -134q0 -84 54.5 -136.5t137.5 -52.5q60 0 108 32t72 89z" />
    <glyph glyph-name="d" unicode="d" horiz-adv-x="607" 
d="M488 0v74q-76 -87 -200 -87q-121 0 -200 80.5t-79 208.5t79 208.5t200 80.5q124 0 200 -87v272h104v-750h-104zM298 465q-78 0 -133 -55.5t-55 -133.5q0 -83 54.5 -136t133.5 -53t134 53t55 136q0 78 -55.5 133.5t-133.5 55.5z" />
    <glyph glyph-name="e" unicode="e" horiz-adv-x="596" 
d="M482 208l87 -49q-37 -79 -106.5 -125.5t-154.5 -46.5q-127 0 -213 83t-86 206t83 206t206 83t206 -83t83 -206q0 -13 -1.5 -24.5t-3.5 -16.5l-1 -5h-467q15 -65 69 -104t125 -39q57 0 103.5 32.5t70.5 88.5zM113 317h369q-14 64 -65.5 106t-118.5 42t-119 -42t-66 -106z
" />
    <glyph glyph-name="f" unicode="f" horiz-adv-x="495" 
d="M9 550h122q0 38 9.5 72t30.5 66t63 51.5t99 19.5q36 0 74 -8t59 -16l20 -8l-20 -92q-73 30 -121 30q-53 0 -80.5 -32t-29.5 -83h251v-98h-251v-452h-104v452h-122v98z" />
    <glyph glyph-name="g" unicode="g" horiz-adv-x="607" 
d="M298 465q-78 0 -133 -53t-55 -131q0 -82 54 -133t134 -51t134.5 51t54.5 133q0 78 -55.5 131t-133.5 53zM488 11v73q-76 -87 -200 -87q-122 0 -200.5 78.5t-78.5 205.5t78.5 205.5t200.5 78.5q124 0 200 -87v73h104v-550q0 -106 -78.5 -167.5t-207.5 -61.5
q-89 0 -160 46.5t-108 125.5l87 49q24 -57 72.5 -89t108.5 -32q84 0 133 35.5t49 103.5z" />
    <glyph glyph-name="h" unicode="h" horiz-adv-x="586" 
d="M15 750h104v-282q22 40 77 67t122 27q107 0 180 -72.5t73 -179.5v-310h-104v283q0 85 -45 132t-124 47q-78 0 -128.5 -50.5t-50.5 -128.5v-283h-104v750z" />
    <glyph glyph-name="i" unicode="i" horiz-adv-x="145" 
d="M13 690q0 25 17.5 42.5t42 17.5t42.5 -17.5t18 -42.5t-18 -42.5t-42.5 -17.5t-42 17.5t-17.5 42.5zM125 0h-104v550h104v-550z" />
    <glyph glyph-name="j" unicode="j" horiz-adv-x="287" 
d="M155 690q0 25 17.5 42.5t42 17.5t42.5 -17.5t18 -42.5t-18 -42.5t-42.5 -17.5t-42 17.5t-17.5 42.5zM267 -1q0 -94 -44 -146t-128 -52q-36 0 -71.5 10.5t-53.5 20.5l-18 10l26 88q58 -32 106 -32q43 0 61 28t18 93v531h104v-551z" />
    <glyph glyph-name="k" unicode="k" horiz-adv-x="539" 
d="M119 169v-169h-104v750h104v-452l246 252h132l-230 -232l263 -318h-124l-207 251z" />
    <glyph glyph-name="l" unicode="l" horiz-adv-x="134" 
d="M119 0h-104v750h104v-750z" />
    <glyph glyph-name="m" unicode="m" horiz-adv-x="918" 
d="M15 550h104v-78q54 90 179 90q63 0 110 -29t71 -81q40 58 86.5 84t114.5 26q93 0 158 -72.5t65 -179.5v-310h-104v283q0 179 -139 179q-63 0 -106 -51t-43 -128v-283h-104v283q0 179 -139 179q-63 0 -106 -51t-43 -128v-283h-104v550z" />
    <glyph glyph-name="n" unicode="n" horiz-adv-x="586" 
d="M15 550h104v-82q21 38 73.5 66t125.5 28q107 0 180 -72.5t73 -179.5v-310h-104v283q0 85 -45 132t-124 47q-78 0 -128.5 -50.5t-50.5 -128.5v-283h-104v550z" />
    <glyph glyph-name="o" unicode="o" horiz-adv-x="596" 
d="M9 276q0 123 83 206t206 83t206 -83t83 -206t-83 -206t-206 -83t-206 83t-83 206zM109 276q0 -83 54.5 -136t134.5 -53t134.5 53t54.5 136q0 78 -55.5 133.5t-133.5 55.5t-133.5 -55.5t-55.5 -133.5z" />
    <glyph glyph-name="p" unicode="p" horiz-adv-x="607" 
d="M119 -199h-104v750h104v-73q76 87 200 87q121 0 200 -80.5t79 -208.5t-79 -208.5t-200 -80.5q-124 0 -200 87v-273zM308 465q-78 0 -133 -55.5t-55 -133.5q0 -83 54.5 -136t133.5 -53t134 53t55 136q0 78 -55.5 133.5t-133.5 55.5z" />
    <glyph glyph-name="q" unicode="q" horiz-adv-x="607" 
d="M488 -199v273q-76 -87 -200 -87q-121 0 -200 80.5t-79 208.5t79 208.5t200 80.5q124 0 200 -87v73h104v-750h-104zM298 465q-78 0 -133 -55.5t-55 -133.5q0 -83 54.5 -136t133.5 -53t134 53t55 136q0 78 -55.5 133.5t-133.5 55.5z" />
    <glyph glyph-name="r" unicode="r" horiz-adv-x="393" 
d="M378 462q-13 2 -40 2q-100 0 -159.5 -53t-59.5 -128v-283h-104v550h104v-82q26 35 86 66t131 31q21 0 42 -3v-100z" />
    <glyph glyph-name="s" unicode="s" horiz-adv-x="533" 
d="M212 241q-90 12 -140.5 51t-50.5 101q0 77 66 125t181 48q84 0 151.5 -52t90.5 -112l-80 -44q-12 38 -61.5 76t-104.5 38q-67 0 -105 -22t-38 -49q0 -25 33 -42t78 -24l103 -16q87 -13 138 -56t51 -99q0 -84 -63.5 -133t-170.5 -49q-99 0 -175.5 48.5t-105.5 121.5l80 56
q19 -52 77.5 -91t125.5 -39q60 0 95.5 19t35.5 54q0 26 -28.5 47.5t-76.5 28.5z" />
    <glyph glyph-name="t" unicode="t" horiz-adv-x="495" 
d="M131 189v263h-122v98h122v150h104v-150h251v-98h-251v-233q0 -62 24 -95t86 -33q48 0 122 35l19 -99q-73 -36 -153 -36q-88 0 -145 54t-57 144z" />
    <glyph glyph-name="u" unicode="u" horiz-adv-x="586" 
d="M571 0h-104v82q-21 -38 -73.5 -66t-125.5 -28q-107 0 -180 72.5t-73 179.5v310h104v-283q0 -85 45 -132t124 -47q78 0 128.5 50.5t50.5 128.5v283h104v-550z" />
    <glyph glyph-name="v" unicode="v" horiz-adv-x="575" 
d="M9 550h114l164 -502l165 502h114l-183 -550h-191z" />
    <glyph glyph-name="w" unicode="w" horiz-adv-x="975" 
d="M9 550h114l134 -502l135 502h191l134 -502l135 502h114l-153 -550h-191l-135 494l-134 -494h-191z" />
    <glyph glyph-name="x" unicode="x" horiz-adv-x="575" 
d="M9 550h124l154 -232l155 232h124l-193 -280l193 -270h-124l-155 222l-154 -222h-124l193 270z" />
    <glyph glyph-name="y" unicode="y" horiz-adv-x="575" 
d="M9 550h114l164 -502l165 502h114l-183 -550l-64 -200h-112l65 200h-80z" />
    <glyph glyph-name="z" unicode="z" horiz-adv-x="507" 
d="M15 550h477v-182l-425 -271h425v-97h-477v179l431 274h-431v97z" />
    <glyph glyph-name="braceleft" unicode="{" horiz-adv-x="295" 
d="M80 452q0 125 42.5 182.5t124.5 80.5l33 -91q-63 -27 -81 -62t-18 -119q0 -32 -16 -56.5t-38 -35.5q17 -12 26 -19.5t20 -28t11 -45.5q0 -85 20.5 -124t75.5 -60l-33 -86q-75 18 -120.5 83.5t-45.5 178.5q0 22 -22 40t-44 18v96q22 0 43.5 14t21.5 34z" />
    <glyph glyph-name="bar" unicode="|" horiz-adv-x="134" 
d="M119 -200h-104v1000h104v-1000z" />
    <glyph glyph-name="braceright" unicode="}" horiz-adv-x="295" 
d="M215 243q0 -85 -22.5 -140.5t-56.5 -81t-88 -40.5l-33 91q63 27 81 62t18 119q0 32 16 56.5t38 35.5q-17 12 -26 19.5t-20 28t-11 45.5q0 85 -20.5 124t-75.5 60l33 86q75 -18 120.5 -83.5t45.5 -178.5q0 -22 22 -40t44 -18v-96q-22 0 -43.5 -14.5t-21.5 -34.5z" />
    <glyph glyph-name="asciitilde" unicode="~" horiz-adv-x="448" 
d="M109 577l-94 20q0 70 36 114t94 44q36 0 62.5 -13.5t38.5 -29.5t25.5 -29.5t25.5 -13.5q40 0 40 81l96 -20q0 -76 -32.5 -118t-91.5 -42q-34 0 -60.5 13t-39 28.5t-27 28.5t-28.5 13q-20 0 -32.5 -19.5t-12.5 -56.5z" />
    <glyph glyph-name="uni007F" 
 />
    <glyph glyph-name="uni0080" 
 />
    <glyph glyph-name="uni0081" 
 />
    <glyph glyph-name="uni0082" 
 />
    <glyph glyph-name="uni0083" 
 />
    <glyph glyph-name="uni0084" 
 />
    <glyph glyph-name="uni0085" unicode="&#x85;" 
 />
    <glyph glyph-name="uni0086" 
 />
    <glyph glyph-name="uni0087" 
 />
    <glyph glyph-name="uni0088" 
 />
    <glyph glyph-name="uni0089" 
 />
    <glyph glyph-name="uni008A" 
 />
    <glyph glyph-name="uni008B" 
 />
    <glyph glyph-name="uni008C" 
 />
    <glyph glyph-name="uni008D" 
 />
    <glyph glyph-name="uni008E" 
 />
    <glyph glyph-name="uni008F" 
 />
    <glyph glyph-name="uni0090" 
 />
    <glyph glyph-name="uni0091" 
 />
    <glyph glyph-name="uni0092" 
 />
    <glyph glyph-name="uni0093" 
 />
    <glyph glyph-name="uni0094" 
 />
    <glyph glyph-name="uni0095" 
 />
    <glyph glyph-name="uni0096" 
 />
    <glyph glyph-name="uni0097" 
 />
    <glyph glyph-name="uni0098" 
 />
    <glyph glyph-name="uni0099" 
 />
    <glyph glyph-name="uni009A" 
 />
    <glyph glyph-name="uni009B" 
 />
    <glyph glyph-name="uni009C" 
 />
    <glyph glyph-name="uni009D" 
 />
    <glyph glyph-name="uni009E" 
 />
    <glyph glyph-name="uni009F" 
 />
    <glyph glyph-name="uni00A0" unicode="&#xa0;" 
 />
    <glyph glyph-name="exclamdown" unicode="&#xa1;" horiz-adv-x="170" 
d="M155 644q0 -28 -20.5 -49t-49.5 -21t-49.5 21t-20.5 49t20.5 49t49.5 21t49.5 -21t20.5 -49zM24 1l20 522h84l20 -522h-124z" />
    <glyph glyph-name="cent" unicode="&#xa2;" horiz-adv-x="573" 
d="M480 253l79 -49q-67 -117 -205 -138v-74h-104v74q-107 17 -174 96t-67 189t67 189t174 96v74h104v-74q71 -11 125 -49.5t85 -97.5l-86 -47q-25 45 -72 71.5t-106 26.5q-81 0 -136 -55t-55 -134q0 -84 54 -136.5t137 -52.5q60 0 108 24t72 67z" />
    <glyph glyph-name="sterling" unicode="&#xa3;" horiz-adv-x="531" 
d="M15 310v98h121v100q0 38 9.5 72t31 66.5t63.5 52t99 19.5q80 0 153 -33l-20 -92q-73 30 -121 30q-54 0 -82 -32.5t-28 -82.5v-100h209v-98h-209v-212h275v-98h-501v98h121v212h-121z" />
    <glyph glyph-name="currency" unicode="&#xa4;" horiz-adv-x="463" 
d="M123 339q0 -48 31.5 -80.5t73.5 -32.5q47 0 81 32t34 81q0 42 -34.5 74t-80.5 32q-45 0 -75 -31.5t-30 -74.5zM142 493q41 24 89 24q49 0 91 -25l54 52l69 -69l-54 -52q23 -40 23 -86q0 -48 -25 -90l59 -58l-70 -70l-61 61q-40 -22 -86 -22t-87 23l-60 -60l-69 68l61 61
q-22 40 -22 87q0 45 20 84l-58 58l69 70z" />
    <glyph glyph-name="yen" unicode="&#xa5;" horiz-adv-x="669" 
d="M250 360l-244 340h124l205 -292l204 292h124l-242 -340h110v-90h-140v-60h140v-90h-140v-120h-111v120h-154v90h154v60h-154v90h124z" />
    <glyph glyph-name="brokenbar" unicode="&#xa6;" horiz-adv-x="134" 
d="M119 -200h-104v433h104v-433zM119 367h-104v433h104v-433z" />
    <glyph glyph-name="section" unicode="&#xa7;" horiz-adv-x="30" 
 />
    <glyph glyph-name="dieresis" unicode="&#xa8;" horiz-adv-x="325" 
d="M190 707q0 25 17.5 42.5t42.5 17.5t42.5 -17.5t17.5 -42.5t-17.5 -42.5t-42.5 -17.5t-42.5 17.5t-17.5 42.5zM15 707q0 25 17.5 42.5t42.5 17.5t42.5 -17.5t17.5 -42.5t-17.5 -42.5t-42.5 -17.5t-42.5 17.5t-17.5 42.5z" />
    <glyph glyph-name="copyright" unicode="&#xa9;" horiz-adv-x="448" 
d="M297 550l32 -20q-33 -58 -105 -58q-52 0 -86 33.5t-34 84t34 84.5t86 34q75 0 107 -62l-35 -19q-22 40 -72 40q-33 0 -56 -22.5t-23 -54.5q0 -34 22.5 -55.5t56.5 -21.5q52 0 73 37zM15 591q0 85 61.5 147t147.5 62t147.5 -62t61.5 -147t-61.5 -147t-147.5 -62t-147.5 62
t-61.5 147zM65 590q0 -73 46.5 -116.5t113.5 -43.5t113 43.5t46 116.5q0 65 -47 112t-112 47q-70 0 -115 -46.5t-45 -112.5z" />
    <glyph glyph-name="ordfeminine" unicode="&#xaa;" horiz-adv-x="412" 
d="M179 365q58 0 100.5 26.5t42.5 82.5h-136q-51 0 -75 -16.5t-24 -39.5t24.5 -38t67.5 -15zM322 540q0 38 -30 67.5t-86 29.5q-84 0 -123 -70l-62 35q28 49 75.5 78t109.5 29q90 0 140.5 -45.5t50.5 -123.5v-237h-75v60q-17 -31 -57.5 -50.5t-85.5 -19.5q-71 0 -117.5 35
t-46.5 90q0 53 44 87.5t127 34.5h136z" />
    <glyph glyph-name="guillemotleft" unicode="&#xab;" horiz-adv-x="483" 
d="M468 522v-114l-156 -101l156 -81v-114l-203 99v191zM218 522v-114l-156 -101l156 -81v-114l-203 99v191z" />
    <glyph glyph-name="logicalnot" unicode="&#xac;" horiz-adv-x="30" 
 />
    <glyph glyph-name="uni00AD" unicode="&#xad;" horiz-adv-x="317" 
d="M302 262h-287v98h287v-98z" />
    <glyph glyph-name="registered" unicode="&#xae;" horiz-adv-x="448" 
d="M182 485h-40v213h91q37 0 61 -19t24 -51q0 -27 -16.5 -46.5t-38.5 -22.5l48 -74h-45l-46 73h-38v-73zM233 595q23 0 34.5 7t11.5 26q0 31 -46 31h-51v-64h51zM15 591q0 85 61.5 147t147.5 62t147.5 -62t61.5 -147t-61.5 -147t-147.5 -62t-147.5 62t-61.5 147zM65 590
q0 -73 46.5 -116.5t113.5 -43.5t113 43.5t46 116.5q0 65 -47 112t-112 47q-70 0 -115 -46.5t-45 -112.5z" />
    <glyph glyph-name="macron" unicode="&#xaf;" horiz-adv-x="30" 
 />
    <glyph glyph-name="degree" unicode="&#xb0;" horiz-adv-x="237" 
d="M15 607q0 43 30 74t72 31q43 0 74 -31t31 -74t-31 -73.5t-74 -30.5t-72.5 30.5t-29.5 73.5zM85 607q0 -15 9.5 -24.5t22.5 -9.5t23.5 9.5t10.5 24.5q0 13 -10.5 22.5t-23.5 9.5q-14 0 -23 -9.5t-9 -22.5z" />
    <glyph glyph-name="plusminus" unicode="&#xb1;" horiz-adv-x="377" 
d="M362 -24h-347v98h347v-98zM139 262h-124v98h124v123h98v-123h125v-98h-125v-126h-98v126z" />
    <glyph glyph-name="uni00B2" unicode="&#xb2;" horiz-adv-x="30" 
 />
    <glyph glyph-name="uni00B3" unicode="&#xb3;" horiz-adv-x="30" 
 />
    <glyph glyph-name="acute" unicode="&#xb4;" horiz-adv-x="276" 
d="M127 610h-112l133 190h113z" />
    <glyph glyph-name="mu" unicode="&#xb5;" horiz-adv-x="30" 
 />
    <glyph glyph-name="paragraph" unicode="&#xb6;" horiz-adv-x="509" 
d="M494 0h-94v700h94v-700zM260 0v328h-36q-97 0 -153 55t-56 136q0 79 58.5 130t150.5 51h130v-700h-94z" />
    <glyph glyph-name="periodcentered" unicode="&#xb7;" horiz-adv-x="170" 
d="M15 297q0 29 20.5 49.5t49.5 20.5t49.5 -20.5t20.5 -49.5t-20.5 -49.5t-49.5 -20.5t-49.5 20.5t-20.5 49.5z" />
    <glyph glyph-name="cedilla" unicode="&#xb8;" horiz-adv-x="272" 
d="M15 -120l26 73q42 -25 87 -25q46 0 46 36t-52 36h-85v132h80v-61q140 0 140 -107q0 -61 -36.5 -89.5t-89.5 -28.5q-58 0 -116 34z" />
    <glyph glyph-name="uni00B9" unicode="&#xb9;" horiz-adv-x="30" 
 />
    <glyph glyph-name="ordmasculine" unicode="&#xba;" horiz-adv-x="428" 
d="M15 501q0 87 57 148t142 61t142 -61t57 -148t-57 -148t-142 -61t-142 61t-57 148zM97 501q0 -59 33 -94t82.5 -35t83 35t33.5 94q0 53 -34.5 91t-81.5 38q-52 0 -84 -37.5t-32 -91.5z" />
    <glyph glyph-name="guillemotright" unicode="&#xbb;" horiz-adv-x="483" 
d="M15 112v114l156 81l-156 101v114l203 -119v-191zM265 112v114l156 81l-156 101v114l203 -119v-191z" />
    <glyph glyph-name="onequarter" unicode="&#xbc;" horiz-adv-x="929" 
d="M530 250l139 152h168v-227h86v-87h-86v-88h-86v88h-221v162zM751 175v176l-166 -176h166zM606 700l-233 -700h-114l234 700h113zM6 692l211 8v-298h100v-94h-311v94h116v196h-116v94z" />
    <glyph glyph-name="onehalf" unicode="&#xbd;" horiz-adv-x="866" 
d="M538 313q15 49 52.5 77t95.5 28q73 0 118.5 -41t45.5 -120q0 -113 -151 -152q-57 -15 -109 -15h270v-90h-322v171q5 0 12.5 0.5t30.5 3t43.5 6t45.5 10.5t43 16t30 23.5t12 31.5q0 27 -17.5 43.5t-45.5 16.5t-46.5 -12.5t-24.5 -34.5zM606 700l-233 -700h-114l234 700
h113zM6 692l211 8v-298h100v-94h-311v94h116v196h-116v94z" />
    <glyph glyph-name="threequarters" unicode="&#xbe;" horiz-adv-x="949" 
d="M331 700v-116l-133 -46q22 4 36 4q48 0 80 -22.5t32 -77.5q0 -67 -48 -106t-130 -39q-61 0 -101.5 30.5t-60.5 74.5l74 46q9 -24 35.5 -44t58.5 -20q39 0 62 17t23 45q0 45 -78 45q-11 0 -23 -1.5t-19 -3.5l-7 -1v86l146 47h-252v82h305zM551 250l139 152h167v-227h86
v-87h-86v-88h-85v88h-221v162zM772 175v176l-166 -176h166zM627 700l-234 -700h-113l233 700h114z" />
    <glyph glyph-name="questiondown" unicode="&#xbf;" horiz-adv-x="517" 
d="M332 641q0 -29 -21 -49.5t-49 -20.5t-49 20.5t-21 49.5t21 49.5t49 20.5t49 -20.5t21 -49.5zM502 168q-26 -71 -91.5 -125.5t-152.5 -54.5q-113 0 -178 61.5t-65 167.5q0 104 61 163.5t135 59.5l10 79h77l10 -173h-99q-36 0 -63 -36.5t-27 -87.5q0 -58 35.5 -94t97.5 -36
q61 0 97.5 30.5t61.5 92.5z" />
    <glyph glyph-name="Agrave" unicode="&#xc0;" horiz-adv-x="682" 
d="M282 750l-132 190h122l124 -190h-114zM667 0h-114l-57 174h-315l-58 -174h-114l234 700h191zM463 272l-125 380l-125 -380h250z" />
    <glyph glyph-name="Aacute" unicode="&#xc1;" horiz-adv-x="682" 
d="M392 750h-112l122 190h124zM667 0h-114l-57 174h-315l-58 -174h-114l234 700h191zM463 272l-125 380l-125 -380h250z" />
    <glyph glyph-name="Acircumflex" unicode="&#xc2;" horiz-adv-x="682" 
d="M546 750h-114l-94 152l-96 -152h-114l124 200h172zM667 0h-114l-57 174h-315l-58 -174h-114l234 700h191zM463 272l-125 380l-125 -380h250z" />
    <glyph glyph-name="Atilde" unicode="&#xc3;" horiz-adv-x="682" 
d="M326 784q-5 4 -16 14t-16 14.5t-14 8.5t-18 4q-21 0 -37.5 -20t-16.5 -56l-84 20q0 69 35 108.5t95 39.5q53 0 92 -34q7 -5 17 -14.5t16 -14.5t14.5 -9.5t16.5 -4.5q22 0 39 20t17 56l84 -20q0 -69 -35.5 -108.5t-94.5 -39.5q-52 0 -94 36zM667 0h-114l-57 174h-315
l-58 -174h-114l234 700h191zM463 272l-125 380l-125 -380h250z" />
    <glyph glyph-name="Adieresis" unicode="&#xc4;" horiz-adv-x="682" 
d="M364 810q0 25 18 42.5t42.5 17.5t42 -17.5t17.5 -42.5t-17.5 -42.5t-42 -17.5t-42.5 17.5t-18 42.5zM190 810q0 25 17.5 42.5t42 17.5t42.5 -17.5t18 -42.5t-18 -42.5t-42.5 -17.5t-42 17.5t-17.5 42.5zM667 0h-114l-57 174h-315l-58 -174h-114l234 700h191zM463 272
l-125 380l-125 -380h250z" />
    <glyph glyph-name="Aring" unicode="&#xc5;" horiz-adv-x="682" 
d="M237 854q0 43 29.5 74t72.5 31q42 0 73 -31t31 -74t-31 -73.5t-73 -30.5q-43 0 -72.5 30.5t-29.5 73.5zM307 854q0 -15 9 -24.5t23 -9.5q13 0 23.5 10t10.5 24q0 13 -11 22.5t-23 9.5q-14 0 -23 -9.5t-9 -22.5zM667 0h-114l-57 174h-315l-58 -174h-114l234 700h191z
M463 272l-125 380l-125 -380h250z" />
    <glyph glyph-name="AE" unicode="&#xc6;" horiz-adv-x="916" 
d="M848 414v-102h-326v-210h386v-102h-490v174h-208l-88 -174h-114l344 700h556v-102h-386v-184h326zM418 630l-166 -358h166v358z" />
    <glyph glyph-name="Ccedilla" unicode="&#xc7;" horiz-adv-x="697" 
d="M281 -238l26 73q42 -25 86 -25q46 0 46 36q0 18 -14.5 27t-37.5 9h-84v132h80v-61q64 0 102 -25.5t38 -81.5q0 -61 -36.5 -89.5t-89.5 -28.5q-58 0 -116 34zM688 197q-47 -96 -130.5 -153t-184.5 -57q-159 0 -261.5 104.5t-102.5 259.5t102.5 259.5t261.5 104.5
q91 0 169 -48.5t128 -132.5l-86 -56q-37 64 -92.5 101.5t-118.5 37.5q-114 0 -190 -78t-76 -188q0 -115 75.5 -190.5t190.5 -75.5q69 0 129.5 42t96.5 113z" />
    <glyph glyph-name="Egrave" unicode="&#xc8;" horiz-adv-x="570" 
d="M237 750l-132 190h122l124 -190h-114zM495 414v-102h-376v-210h436v-102h-540v700h540v-102h-436v-184h376z" />
    <glyph glyph-name="Eacute" unicode="&#xc9;" horiz-adv-x="570" 
d="M347 750h-112l122 190h124zM495 414v-102h-376v-210h436v-102h-540v700h540v-102h-436v-184h376z" />
    <glyph glyph-name="Ecircumflex" unicode="&#xca;" horiz-adv-x="570" 
d="M501 750h-114l-94 152l-96 -152h-114l124 200h172zM495 414v-102h-376v-210h436v-102h-540v700h540v-102h-436v-184h376z" />
    <glyph glyph-name="Edieresis" unicode="&#xcb;" horiz-adv-x="570" 
d="M319 810q0 25 18 42.5t42.5 17.5t42 -17.5t17.5 -42.5t-17.5 -42.5t-42 -17.5t-42.5 17.5t-18 42.5zM145 810q0 25 17.5 42.5t42 17.5t42.5 -17.5t18 -42.5t-18 -42.5t-42.5 -17.5t-42 17.5t-17.5 42.5zM495 414v-102h-376v-210h436v-102h-540v700h540v-102h-436v-184
h376z" />
    <glyph glyph-name="Igrave" unicode="&#xcc;" horiz-adv-x="134" 
d="M11 750l-132 190h122l124 -190h-114zM119 0h-104v700h104v-700z" />
    <glyph glyph-name="Iacute" unicode="&#xcd;" horiz-adv-x="134" 
d="M121 750h-112l122 190h124zM119 0h-104v700h104v-700z" />
    <glyph glyph-name="Icircumflex" unicode="&#xce;" horiz-adv-x="134" 
d="M275 750h-114l-94 152l-96 -152h-114l124 200h172zM119 0h-104v700h104v-700z" />
    <glyph glyph-name="Idieresis" unicode="&#xcf;" horiz-adv-x="134" 
d="M93 810q0 25 18 42.5t42.5 17.5t42 -17.5t17.5 -42.5t-17.5 -42.5t-42 -17.5t-42.5 17.5t-18 42.5zM-81 810q0 25 17.5 42.5t42 17.5t42.5 -17.5t18 -42.5t-18 -42.5t-42.5 -17.5t-42 17.5t-17.5 42.5zM119 0h-104v700h104v-700z" />
    <glyph glyph-name="Eth" unicode="&#xd0;" horiz-adv-x="660" 
d="M314 700q143 0 241 -92.5t98 -248.5q0 -91 -27.5 -161.5t-75.5 -113t-107.5 -63.5t-128.5 -21h-250v312h-70v98h70v290h250zM168 102h146q123 0 180 69.5t57 187.5q0 97 -64 168t-173 71h-146v-188h173v-98h-173v-210z" />
    <glyph glyph-name="Ntilde" unicode="&#xd1;" horiz-adv-x="643" 
d="M310 784q-5 4 -16 14t-16 14.5t-14 8.5t-18 4q-21 0 -37.5 -20t-16.5 -56l-84 20q0 69 35 108.5t95 39.5q53 0 92 -34q7 -5 17 -14.5t16 -14.5t14.5 -9.5t16.5 -4.5q22 0 39 20t17 56l84 -20q0 -69 -35.5 -108.5t-94.5 -39.5q-52 0 -94 36zM628 700v-700h-199l-310 648
v-648h-104v700h196l313 -653v653h104z" />
    <glyph glyph-name="Ograve" unicode="&#xd2;" horiz-adv-x="746" 
d="M317 750l-132 190h122l124 -190h-114zM9 351q0 155 102.5 259.5t261.5 104.5q153 0 258.5 -105.5t105.5 -258.5t-105.5 -258.5t-258.5 -105.5q-159 0 -261.5 104.5t-102.5 259.5zM107 351q0 -115 75.5 -191t190.5 -76q109 0 187.5 77t78.5 190q0 108 -79 187.5t-187 79.5
q-114 0 -190 -78.5t-76 -188.5z" />
    <glyph glyph-name="Oacute" unicode="&#xd3;" horiz-adv-x="746" 
d="M427 750h-112l122 190h124zM9 351q0 155 102.5 259.5t261.5 104.5q153 0 258.5 -105.5t105.5 -258.5t-105.5 -258.5t-258.5 -105.5q-159 0 -261.5 104.5t-102.5 259.5zM107 351q0 -115 75.5 -191t190.5 -76q109 0 187.5 77t78.5 190q0 108 -79 187.5t-187 79.5
q-114 0 -190 -78.5t-76 -188.5z" />
    <glyph glyph-name="Ocircumflex" unicode="&#xd4;" horiz-adv-x="746" 
d="M581 750h-114l-94 152l-96 -152h-114l124 200h172zM9 351q0 155 102.5 259.5t261.5 104.5q153 0 258.5 -105.5t105.5 -258.5t-105.5 -258.5t-258.5 -105.5q-159 0 -261.5 104.5t-102.5 259.5zM107 351q0 -115 75.5 -191t190.5 -76q109 0 187.5 77t78.5 190
q0 108 -79 187.5t-187 79.5q-114 0 -190 -78.5t-76 -188.5z" />
    <glyph glyph-name="Otilde" unicode="&#xd5;" horiz-adv-x="746" 
d="M362 784q-5 4 -16 14t-16 14.5t-14 8.5t-18 4q-21 0 -37.5 -20t-16.5 -56l-84 20q0 69 35 108.5t95 39.5q53 0 92 -34q7 -5 17 -14.5t16 -14.5t14.5 -9.5t16.5 -4.5q22 0 39 20t17 56l84 -20q0 -69 -35.5 -108.5t-94.5 -39.5q-52 0 -94 36zM9 351q0 155 102.5 259.5
t261.5 104.5q153 0 258.5 -105.5t105.5 -258.5t-105.5 -258.5t-258.5 -105.5q-159 0 -261.5 104.5t-102.5 259.5zM107 351q0 -115 75.5 -191t190.5 -76q109 0 187.5 77t78.5 190q0 108 -79 187.5t-187 79.5q-114 0 -190 -78.5t-76 -188.5z" />
    <glyph glyph-name="Odieresis" unicode="&#xd6;" horiz-adv-x="746" 
d="M399 810q0 25 18 42.5t42.5 17.5t42 -17.5t17.5 -42.5t-17.5 -42.5t-42 -17.5t-42.5 17.5t-18 42.5zM225 810q0 25 17.5 42.5t42 17.5t42.5 -17.5t18 -42.5t-18 -42.5t-42.5 -17.5t-42 17.5t-17.5 42.5zM9 351q0 155 102.5 259.5t261.5 104.5q153 0 258.5 -105.5
t105.5 -258.5t-105.5 -258.5t-258.5 -105.5q-159 0 -261.5 104.5t-102.5 259.5zM107 351q0 -115 75.5 -191t190.5 -76q109 0 187.5 77t78.5 190q0 108 -79 187.5t-187 79.5q-114 0 -190 -78.5t-76 -188.5z" />
    <glyph glyph-name="multiply" unicode="&#xd7;" horiz-adv-x="346" 
d="M104 310l-88 88l69 70l88 -88l87 87l69 -69l-87 -87l89 -88l-70 -70l-88 89l-89 -89l-69 68z" />
    <glyph glyph-name="Oslash" unicode="&#xd8;" horiz-adv-x="742" 
d="M106 351q0 -115 75 -191t191 -76q109 0 187.5 77t78.5 190q0 108 -79.5 187.5t-186.5 79.5q-114 0 -190 -78.5t-76 -188.5zM8 351q0 101 45.5 184t129.5 131.5t189 48.5q100 0 183.5 -48t132 -132t48.5 -184t-48.5 -184t-132 -132t-183.5 -48q-105 0 -189 48.5
t-129.5 131.5t-45.5 184zM549 820l93 -47l-447 -894l-93 46z" />
    <glyph glyph-name="Ugrave" unicode="&#xd9;" horiz-adv-x="600" 
d="M242 750l-132 190h122l124 -190h-114zM300 85q83 0 132 47.5t49 131.5v437h104v-447q0 -122 -78.5 -195.5t-206.5 -73.5t-206.5 73.5t-78.5 195.5v447h104v-437q0 -84 49 -131.5t132 -47.5z" />
    <glyph glyph-name="Uacute" unicode="&#xda;" horiz-adv-x="600" 
d="M352 750h-112l122 190h124zM300 85q83 0 132 47.5t49 131.5v437h104v-447q0 -122 -78.5 -195.5t-206.5 -73.5t-206.5 73.5t-78.5 195.5v447h104v-437q0 -84 49 -131.5t132 -47.5z" />
    <glyph glyph-name="Ucircumflex" unicode="&#xdb;" horiz-adv-x="600" 
d="M506 750h-114l-94 152l-96 -152h-114l124 200h172zM300 85q83 0 132 47.5t49 131.5v437h104v-447q0 -122 -78.5 -195.5t-206.5 -73.5t-206.5 73.5t-78.5 195.5v447h104v-437q0 -84 49 -131.5t132 -47.5z" />
    <glyph glyph-name="Udieresis" unicode="&#xdc;" horiz-adv-x="600" 
d="M324 810q0 25 18 42.5t42.5 17.5t42 -17.5t17.5 -42.5t-17.5 -42.5t-42 -17.5t-42.5 17.5t-18 42.5zM150 810q0 25 17.5 42.5t42 17.5t42.5 -17.5t18 -42.5t-18 -42.5t-42.5 -17.5t-42 17.5t-17.5 42.5zM300 85q83 0 132 47.5t49 131.5v437h104v-447q0 -122 -78.5 -195.5
t-206.5 -73.5t-206.5 73.5t-78.5 195.5v447h104v-437q0 -84 49 -131.5t132 -47.5z" />
    <glyph glyph-name="Yacute" unicode="&#xdd;" horiz-adv-x="675" 
d="M390 750h-112l122 190h124zM394 285v-285h-111v285h-30l-244 415h124l205 -368l204 368h124l-242 -415h-30z" />
    <glyph glyph-name="Thorn" unicode="&#xde;" horiz-adv-x="561" 
d="M315 230q59 0 98 32.5t39 92.5q0 54 -39.5 86.5t-97.5 32.5h-196v-244h196zM119 576h196q97 0 168 -62t71 -159q0 -105 -67 -163t-172 -58h-196v-134h-104v700h104v-124z" />
    <glyph glyph-name="germandbls" unicode="&#xdf;" 
 />
    <glyph glyph-name="agrave" unicode="&#xe0;" horiz-adv-x="557" 
d="M221 627l-132 190h122l124 -190h-114zM238 87q51 0 94 13.5t74.5 49.5t31.5 90h-190q-71 0 -104.5 -23.5t-33.5 -55.5t33.5 -53t94.5 -21zM438 332q0 53 -42 94t-120 41q-58 0 -102 -35t-69 -93l-87 49q39 81 105.5 130t152.5 49q126 0 196 -63.5t70 -172.5v-330h-104v83
q-24 -43 -80.5 -70t-119.5 -27q-99 0 -164 49t-65 125q0 74 61.5 122.5t177.5 48.5h190z" />
    <glyph glyph-name="aacute" unicode="&#xe1;" horiz-adv-x="557" 
d="M331 627h-112l122 190h124zM238 87q51 0 94 13.5t74.5 49.5t31.5 90h-190q-71 0 -104.5 -23.5t-33.5 -55.5t33.5 -53t94.5 -21zM438 332q0 53 -42 94t-120 41q-58 0 -102 -35t-69 -93l-87 49q39 81 105.5 130t152.5 49q126 0 196 -63.5t70 -172.5v-330h-104v83
q-24 -43 -80.5 -70t-119.5 -27q-99 0 -164 49t-65 125q0 74 61.5 122.5t177.5 48.5h190z" />
    <glyph glyph-name="acircumflex" unicode="&#xe2;" horiz-adv-x="557" 
d="M485 627h-114l-94 152l-96 -152h-114l124 200h172zM238 87q51 0 94 13.5t74.5 49.5t31.5 90h-190q-71 0 -104.5 -23.5t-33.5 -55.5t33.5 -53t94.5 -21zM438 332q0 53 -42 94t-120 41q-58 0 -102 -35t-69 -93l-87 49q39 81 105.5 130t152.5 49q126 0 196 -63.5t70 -172.5
v-330h-104v83q-24 -43 -80.5 -70t-119.5 -27q-99 0 -164 49t-65 125q0 74 61.5 122.5t177.5 48.5h190z" />
    <glyph glyph-name="atilde" unicode="&#xe3;" horiz-adv-x="557" 
d="M266 661q-5 4 -16 14t-16 14.5t-14 8.5t-18 4q-21 0 -37.5 -20t-16.5 -56l-84 20q0 69 35 108.5t95 39.5q53 0 92 -34q7 -5 17 -14.5t16 -14.5t14.5 -9.5t16.5 -4.5q22 0 39 20t17 56l84 -20q0 -69 -35.5 -108.5t-94.5 -39.5q-52 0 -94 36zM238 87q51 0 94 13.5
t74.5 49.5t31.5 90h-190q-71 0 -104.5 -23.5t-33.5 -55.5t33.5 -53t94.5 -21zM438 332q0 53 -42 94t-120 41q-58 0 -102 -35t-69 -93l-87 49q39 81 105.5 130t152.5 49q126 0 196 -63.5t70 -172.5v-330h-104v83q-24 -43 -80.5 -70t-119.5 -27q-99 0 -164 49t-65 125
q0 74 61.5 122.5t177.5 48.5h190z" />
    <glyph glyph-name="adieresis" unicode="&#xe4;" horiz-adv-x="557" 
d="M303 687q0 25 18 42.5t42.5 17.5t42 -17.5t17.5 -42.5t-17.5 -42.5t-42 -17.5t-42.5 17.5t-18 42.5zM129 687q0 25 17.5 42.5t42 17.5t42.5 -17.5t18 -42.5t-18 -42.5t-42.5 -17.5t-42 17.5t-17.5 42.5zM238 87q51 0 94 13.5t74.5 49.5t31.5 90h-190q-71 0 -104.5 -23.5
t-33.5 -55.5t33.5 -53t94.5 -21zM438 332q0 53 -42 94t-120 41q-58 0 -102 -35t-69 -93l-87 49q39 81 105.5 130t152.5 49q126 0 196 -63.5t70 -172.5v-330h-104v83q-24 -43 -80.5 -70t-119.5 -27q-99 0 -164 49t-65 125q0 74 61.5 122.5t177.5 48.5h190z" />
    <glyph glyph-name="aring" unicode="&#xe5;" horiz-adv-x="557" 
d="M176 731q0 43 29.5 74t72.5 31q42 0 73 -31t31 -74t-31 -73.5t-73 -30.5q-43 0 -72.5 30.5t-29.5 73.5zM246 731q0 -15 9 -24.5t23 -9.5q13 0 23.5 10t10.5 24q0 13 -11 22.5t-23 9.5q-14 0 -23 -9.5t-9 -22.5zM238 87q51 0 94 13.5t74.5 49.5t31.5 90h-190
q-71 0 -104.5 -23.5t-33.5 -55.5t33.5 -53t94.5 -21zM438 332q0 53 -42 94t-120 41q-58 0 -102 -35t-69 -93l-87 49q39 81 105.5 130t152.5 49q126 0 196 -63.5t70 -172.5v-330h-104v83q-24 -43 -80.5 -70t-119.5 -27q-99 0 -164 49t-65 125q0 74 61.5 122.5t177.5 48.5h190
z" />
    <glyph glyph-name="ae" unicode="&#xe6;" horiz-adv-x="1023" 
d="M436 327q0 65 -40 102.5t-122 37.5q-57 0 -101 -35t-69 -93l-88 49q39 81 105.5 130t152.5 49q77 0 133.5 -30.5t86.5 -86.5q39 54 99.5 84.5t132.5 30.5q123 0 206.5 -81.5t83.5 -197.5q0 -13 -2 -24.5t-3 -16.5l-1 -5h-468q16 -66 70 -109.5t124 -43.5q57 0 104 32.5
t70 88.5l88 -49q-38 -79 -107 -125.5t-155 -46.5q-76 0 -139.5 31.5t-104.5 87.5q-33 -55 -99.5 -87t-156.5 -32q-96 0 -162 51.5t-66 121.5q0 68 62.5 117.5t175.5 49.5h190zM236 87q38 0 71.5 7.5t63.5 23.5t47.5 46t17.5 71h-190q-70 0 -104 -22.5t-34 -52.5
q0 -32 34 -52.5t94 -20.5zM542 327h368q-14 63 -64.5 100.5t-119 37.5t-119.5 -38t-65 -100z" />
    <glyph glyph-name="ccedilla" unicode="&#xe7;" horiz-adv-x="573" 
d="M201 -236l26 73q42 -25 86 -25q46 0 46 36q0 18 -14.5 27t-37.5 9h-84v132h80v-61q64 0 102 -25.5t38 -81.5q0 -61 -36.5 -89.5t-89.5 -28.5q-58 0 -116 34zM481 208l78 -49q-38 -80 -104 -126t-154 -46q-126 0 -209 82.5t-83 206.5t83 206.5t209 82.5q90 0 158 -48.5
t105 -132.5l-86 -47q-25 58 -71.5 93t-105.5 35q-81 0 -136.5 -55t-55.5 -134q0 -84 54.5 -136.5t137.5 -52.5q60 0 108 32t72 89z" />
    <glyph glyph-name="egrave" unicode="&#xe8;" horiz-adv-x="596" 
d="M243 627l-132 190h122l124 -190h-114zM482 208l87 -49q-37 -79 -106.5 -125.5t-154.5 -46.5q-127 0 -213 83t-86 206t83 206t206 83t206 -83t83 -206q0 -13 -1.5 -24.5t-3.5 -16.5l-1 -5h-467q15 -65 69 -104t125 -39q57 0 103.5 32.5t70.5 88.5zM113 317h369
q-14 64 -65.5 106t-118.5 42t-119 -42t-66 -106z" />
    <glyph glyph-name="eacute" unicode="&#xe9;" horiz-adv-x="596" 
d="M353 627h-112l122 190h124zM482 208l87 -49q-37 -79 -106.5 -125.5t-154.5 -46.5q-127 0 -213 83t-86 206t83 206t206 83t206 -83t83 -206q0 -13 -1.5 -24.5t-3.5 -16.5l-1 -5h-467q15 -65 69 -104t125 -39q57 0 103.5 32.5t70.5 88.5zM113 317h369q-14 64 -65.5 106
t-118.5 42t-119 -42t-66 -106z" />
    <glyph glyph-name="ecircumflex" unicode="&#xea;" horiz-adv-x="596" 
d="M507 627h-114l-94 152l-96 -152h-114l124 200h172zM482 208l87 -49q-37 -79 -106.5 -125.5t-154.5 -46.5q-127 0 -213 83t-86 206t83 206t206 83t206 -83t83 -206q0 -13 -1.5 -24.5t-3.5 -16.5l-1 -5h-467q15 -65 69 -104t125 -39q57 0 103.5 32.5t70.5 88.5zM113 317
h369q-14 64 -65.5 106t-118.5 42t-119 -42t-66 -106z" />
    <glyph glyph-name="edieresis" unicode="&#xeb;" horiz-adv-x="596" 
d="M325 687q0 25 18 42.5t42.5 17.5t42 -17.5t17.5 -42.5t-17.5 -42.5t-42 -17.5t-42.5 17.5t-18 42.5zM151 687q0 25 17.5 42.5t42 17.5t42.5 -17.5t18 -42.5t-18 -42.5t-42.5 -17.5t-42 17.5t-17.5 42.5zM482 208l87 -49q-37 -79 -106.5 -125.5t-154.5 -46.5
q-127 0 -213 83t-86 206t83 206t206 83t206 -83t83 -206q0 -13 -1.5 -24.5t-3.5 -16.5l-1 -5h-467q15 -65 69 -104t125 -39q57 0 103.5 32.5t70.5 88.5zM113 317h369q-14 64 -65.5 106t-118.5 42t-119 -42t-66 -106z" />
    <glyph glyph-name="igrave" unicode="&#xec;" horiz-adv-x="134" 
d="M17 626l-132 190h122l124 -190h-114zM119 0h-104v550h104v-550z" />
    <glyph glyph-name="iacute" unicode="&#xed;" horiz-adv-x="134" 
d="M127 626h-112l122 190h124zM119 0h-104v550h104v-550z" />
    <glyph glyph-name="icircumflex" unicode="&#xee;" horiz-adv-x="134" 
d="M281 626h-114l-94 152l-96 -152h-114l124 200h172zM119 0h-104v550h104v-550z" />
    <glyph glyph-name="idieresis" unicode="&#xef;" horiz-adv-x="134" 
d="M99 686q0 25 18 42.5t42.5 17.5t42 -17.5t17.5 -42.5t-17.5 -42.5t-42 -17.5t-42.5 17.5t-18 42.5zM-75 686q0 25 17.5 42.5t42 17.5t42.5 -17.5t18 -42.5t-18 -42.5t-42.5 -17.5t-42 17.5t-17.5 42.5zM119 0h-104v550h104v-550z" />
    <glyph glyph-name="eth" unicode="&#xf0;" horiz-adv-x="513" 
d="M408 235q0 68 -44 111.5t-105 43.5q-68 0 -112.5 -45.5t-44.5 -106.5q0 -68 46 -110t105 -42q68 0 111.5 43.5t43.5 105.5zM381 615q68 -81 99 -206q22 -86 22 -155q0 -122 -67 -192.5t-185 -70.5q-100 0 -172 71.5t-72 185.5q0 95 62.5 164t159.5 69q85 0 150 -63
q-23 93 -79 156l-129 -63l-36 71l95 48q-43 24 -91 29l13 79q92 -11 165 -63l117 59l41 -74z" />
    <glyph glyph-name="ntilde" unicode="&#xf1;" horiz-adv-x="586" 
d="M298 661q-5 4 -16 14t-16 14.5t-14 8.5t-18 4q-21 0 -37.5 -20t-16.5 -56l-84 20q0 69 35 108.5t95 39.5q53 0 92 -34q7 -5 17 -14.5t16 -14.5t14.5 -9.5t16.5 -4.5q22 0 39 20t17 56l84 -20q0 -69 -35.5 -108.5t-94.5 -39.5q-52 0 -94 36zM15 550h104v-82q21 38 73.5 66
t125.5 28q107 0 180 -72.5t73 -179.5v-310h-104v283q0 85 -45 132t-124 47q-78 0 -128.5 -50.5t-50.5 -128.5v-283h-104v550z" />
    <glyph glyph-name="ograve" unicode="&#xf2;" horiz-adv-x="596" 
d="M241 627l-132 190h122l124 -190h-114zM9 276q0 123 83 206t206 83t206 -83t83 -206t-83 -206t-206 -83t-206 83t-83 206zM109 276q0 -83 54.5 -136t134.5 -53t134.5 53t54.5 136q0 78 -55.5 133.5t-133.5 55.5t-133.5 -55.5t-55.5 -133.5z" />
    <glyph glyph-name="oacute" unicode="&#xf3;" horiz-adv-x="596" 
d="M351 627h-112l122 190h124zM9 276q0 123 83 206t206 83t206 -83t83 -206t-83 -206t-206 -83t-206 83t-83 206zM109 276q0 -83 54.5 -136t134.5 -53t134.5 53t54.5 136q0 78 -55.5 133.5t-133.5 55.5t-133.5 -55.5t-55.5 -133.5z" />
    <glyph glyph-name="ocircumflex" unicode="&#xf4;" horiz-adv-x="596" 
d="M505 627h-114l-94 152l-96 -152h-114l124 200h172zM9 276q0 123 83 206t206 83t206 -83t83 -206t-83 -206t-206 -83t-206 83t-83 206zM109 276q0 -83 54.5 -136t134.5 -53t134.5 53t54.5 136q0 78 -55.5 133.5t-133.5 55.5t-133.5 -55.5t-55.5 -133.5z" />
    <glyph glyph-name="otilde" unicode="&#xf5;" horiz-adv-x="596" 
d="M286 661q-5 4 -16 14t-16 14.5t-14 8.5t-18 4q-21 0 -37.5 -20t-16.5 -56l-84 20q0 69 35 108.5t95 39.5q53 0 92 -34q7 -5 17 -14.5t16 -14.5t14.5 -9.5t16.5 -4.5q22 0 39 20t17 56l84 -20q0 -69 -35.5 -108.5t-94.5 -39.5q-52 0 -94 36zM9 276q0 123 83 206t206 83
t206 -83t83 -206t-83 -206t-206 -83t-206 83t-83 206zM109 276q0 -83 54.5 -136t134.5 -53t134.5 53t54.5 136q0 78 -55.5 133.5t-133.5 55.5t-133.5 -55.5t-55.5 -133.5z" />
    <glyph glyph-name="odieresis" unicode="&#xf6;" horiz-adv-x="596" 
d="M323 687q0 25 18 42.5t42.5 17.5t42 -17.5t17.5 -42.5t-17.5 -42.5t-42 -17.5t-42.5 17.5t-18 42.5zM149 687q0 25 17.5 42.5t42 17.5t42.5 -17.5t18 -42.5t-18 -42.5t-42.5 -17.5t-42 17.5t-17.5 42.5zM9 276q0 123 83 206t206 83t206 -83t83 -206t-83 -206t-206 -83
t-206 83t-83 206zM109 276q0 -83 54.5 -136t134.5 -53t134.5 53t54.5 136q0 78 -55.5 133.5t-133.5 55.5t-133.5 -55.5t-55.5 -133.5z" />
    <glyph glyph-name="divide" unicode="&#xf7;" horiz-adv-x="377" 
d="M115 476q0 28 20.5 49t49.5 21t49.5 -21t20.5 -49t-20.5 -49t-49.5 -21t-49.5 21t-20.5 49zM115 149q0 29 20.5 49.5t49.5 20.5t49.5 -20.5t20.5 -49.5t-20.5 -49.5t-49.5 -20.5t-49.5 20.5t-20.5 49.5zM362 262h-347v98h347v-98z" />
    <glyph glyph-name="oslash" unicode="&#xf8;" horiz-adv-x="592" 
d="M108 276q0 -83 54.5 -136t134 -53t134.5 53t55 136q0 78 -56 133.5t-134 55.5t-133 -55.5t-55 -133.5zM8 276q0 123 83 206t206 83t206 -83t83 -206t-83 -206t-206 -83t-206 83t-83 206zM444 691l94 -47l-382 -765l-93 46z" />
    <glyph glyph-name="ugrave" unicode="&#xf9;" horiz-adv-x="586" 
d="M237 627l-132 190h122l124 -190h-114zM571 0h-104v82q-21 -38 -73.5 -66t-125.5 -28q-107 0 -180 72.5t-73 179.5v310h104v-283q0 -85 45 -132t124 -47q78 0 128.5 50.5t50.5 128.5v283h104v-550z" />
    <glyph glyph-name="uacute" unicode="&#xfa;" horiz-adv-x="586" 
d="M347 627h-112l122 190h124zM571 0h-104v82q-21 -38 -73.5 -66t-125.5 -28q-107 0 -180 72.5t-73 179.5v310h104v-283q0 -85 45 -132t124 -47q78 0 128.5 50.5t50.5 128.5v283h104v-550z" />
    <glyph glyph-name="ucircumflex" unicode="&#xfb;" horiz-adv-x="586" 
d="M501 627h-114l-94 152l-96 -152h-114l124 200h172zM571 0h-104v82q-21 -38 -73.5 -66t-125.5 -28q-107 0 -180 72.5t-73 179.5v310h104v-283q0 -85 45 -132t124 -47q78 0 128.5 50.5t50.5 128.5v283h104v-550z" />
    <glyph glyph-name="udieresis" unicode="&#xfc;" horiz-adv-x="586" 
d="M319 687q0 25 18 42.5t42.5 17.5t42 -17.5t17.5 -42.5t-17.5 -42.5t-42 -17.5t-42.5 17.5t-18 42.5zM145 687q0 25 17.5 42.5t42 17.5t42.5 -17.5t18 -42.5t-18 -42.5t-42.5 -17.5t-42 17.5t-17.5 42.5zM571 0h-104v82q-21 -38 -73.5 -66t-125.5 -28q-107 0 -180 72.5
t-73 179.5v310h104v-283q0 -85 45 -132t124 -47q78 0 128.5 50.5t50.5 128.5v283h104v-550z" />
    <glyph glyph-name="yacute" unicode="&#xfd;" horiz-adv-x="575" 
d="M344 627h-112l122 190h124zM9 550h114l164 -502l165 502h114l-183 -550l-64 -200h-112l65 200h-80z" />
    <glyph glyph-name="thorn" unicode="&#xfe;" horiz-adv-x="604" 
d="M119 -200h-104v950h104v-272q76 87 200 87q121 0 200 -80.5t79 -208.5t-79 -208.5t-200 -80.5q-124 0 -200 87v-274zM308 465q-78 0 -133 -55.5t-55 -133.5q0 -83 54.5 -136t133.5 -53t134 53t55 136q0 78 -55.5 133.5t-133.5 55.5z" />
    <glyph glyph-name="ydieresis" unicode="&#xff;" horiz-adv-x="575" 
d="M316 687q0 25 18 42.5t42.5 17.5t42 -17.5t17.5 -42.5t-17.5 -42.5t-42 -17.5t-42.5 17.5t-18 42.5zM142 687q0 25 17.5 42.5t42 17.5t42.5 -17.5t18 -42.5t-18 -42.5t-42.5 -17.5t-42 17.5t-17.5 42.5zM9 550h114l164 -502l165 502h114l-183 -550l-64 -200h-112l65 200
h-80z" />
    <glyph glyph-name="Dcroat" unicode="&#x110;" horiz-adv-x="660" 
d="M314 700q143 0 241 -92.5t98 -248.5q0 -91 -27.5 -161.5t-75.5 -113t-107.5 -63.5t-128.5 -21h-250v312h-70v98h70v290h250zM168 102h146q123 0 180 69.5t57 187.5q0 97 -64 168t-173 71h-146v-188h173v-98h-173v-210z" />
    <glyph glyph-name="dcroat" unicode="&#x111;" horiz-adv-x="682" 
d="M304 465q-78 0 -133 -55.5t-55 -133.5q0 -83 54.5 -136t133.5 -53t134 53t55 136q0 78 -55.5 133.5t-133.5 55.5zM494 0v74q-76 -87 -200 -87q-121 0 -200 80.5t-79 208.5t79 208.5t200 80.5q124 0 200 -87v124h-174v78h174v70h104v-70h69v-78h-69v-602h-104z" />
    <glyph glyph-name="dotlessi" unicode="&#x131;" horiz-adv-x="134" 
d="M119 0h-104v550h104v-550z" />
    <glyph glyph-name="gravecomb" unicode="&#x300;" horiz-adv-x="276" 
d="M140 550l-132 190h122l124 -190h-114z" />
    <glyph glyph-name="acutecomb" unicode="&#x301;" horiz-adv-x="276" 
d="M120 550h-112l122 190h124z" />
    <glyph glyph-name="uni0302" unicode="&#x302;" horiz-adv-x="448" 
d="M426 550h-114l-94 152l-96 -152h-114l124 200h172z" />
    <glyph glyph-name="tildecomb" unicode="&#x303;" horiz-adv-x="456" 
d="M210 585q-5 4 -16 14t-16 14.5t-14 8.5t-18 4q-21 0 -37.5 -20t-16.5 -56l-84 20q0 69 35 108.5t95 39.5q53 0 92 -34q7 -5 17 -14.5t16 -14.5t14.5 -9.5t16.5 -4.5q22 0 39 20t17 56l84 -20q0 -69 -35.5 -108.5t-94.5 -39.5q-52 0 -94 36z" />
    <glyph glyph-name="uni0308" unicode="&#x308;" horiz-adv-x="325" 
d="M182 610q0 25 18 42.5t42.5 17.5t42 -17.5t17.5 -42.5t-17.5 -42.5t-42 -17.5t-42.5 17.5t-18 42.5zM8 610q0 25 17.5 42.5t42 17.5t42.5 -17.5t18 -42.5t-18 -42.5t-42.5 -17.5t-42 17.5t-17.5 42.5z" />
    <glyph glyph-name="uni030A" unicode="&#x30a;" horiz-adv-x="237" 
d="M8 654q0 43 29.5 74t72.5 31q42 0 73 -31t31 -74t-31 -73.5t-73 -30.5q-43 0 -72.5 30.5t-29.5 73.5zM78 654q0 -15 9 -24.5t23 -9.5q13 0 23.5 10t10.5 24q0 13 -11 22.5t-23 9.5q-14 0 -23 -9.5t-9 -22.5z" />
    <glyph glyph-name="uni0327" unicode="&#x327;" horiz-adv-x="272" 
d="M8 -120l26 73q42 -25 86 -25q46 0 46 36q0 18 -14.5 27t-37.5 9h-84v132h80v-61q64 0 102 -25.5t38 -81.5q0 -61 -36.5 -89.5t-89.5 -28.5q-58 0 -116 34z" />
    <glyph glyph-name="endash" unicode="&#x2013;" horiz-adv-x="417" 
d="M402 262h-387v98h387v-98z" />
    <glyph glyph-name="emdash" unicode="&#x2014;" horiz-adv-x="477" 
d="M462 262h-447v98h447v-98z" />
    <glyph glyph-name="uni2015" unicode="&#x2015;" horiz-adv-x="477" 
d="M462 262h-447v98h447v-98z" />
    <glyph glyph-name="quoteleft" unicode="&#x2018;" horiz-adv-x="171" 
d="M155 507q0 -29 -20.5 -49.5t-49.5 -20.5q-30 0 -50 25.5t-20 74.5q0 64 38.5 113.5t92.5 49.5l10 -60q-30 0 -56 -16.5t-32 -48.5q8 2 17 2q29 0 49.5 -20.5t20.5 -49.5z" />
    <glyph glyph-name="quoteright" unicode="&#x2019;" horiz-adv-x="171" 
d="M16 630q0 28 21 49t49 21q30 0 50 -25.5t20 -74.5q0 -64 -38.5 -113.5t-92.5 -49.5l-10 60q30 0 56 16.5t32 48.5q-8 -2 -17 -2q-28 0 -49 21t-21 49z" />
    <glyph glyph-name="quotesinglbase" unicode="&#x201a;" horiz-adv-x="171" 
d="M16 10q0 28 21 49t49 21q30 0 50 -25.5t20 -74.5q0 -64 -38.5 -113.5t-92.5 -49.5l-10 60q30 0 56 16.5t32 48.5q-8 -2 -17 -2q-28 0 -49 21t-21 49z" />
    <glyph glyph-name="quotedblleft" unicode="&#x201c;" horiz-adv-x="361" 
d="M345 507q0 -29 -20.5 -49.5t-49.5 -20.5q-30 0 -50 25.5t-20 74.5q0 64 38.5 113.5t92.5 49.5l10 -60q-30 0 -56 -16.5t-32 -48.5q8 2 17 2q29 0 49.5 -20.5t20.5 -49.5zM155 507q0 -29 -20.5 -49.5t-49.5 -20.5q-30 0 -50 25.5t-20 74.5q0 64 38.5 113.5t92.5 49.5
l10 -60q-30 0 -56 -16.5t-32 -48.5q8 2 17 2q29 0 49.5 -20.5t20.5 -49.5z" />
    <glyph glyph-name="quotedblright" unicode="&#x201d;" horiz-adv-x="361" 
d="M206 630q0 28 21 49t49 21q30 0 50 -25.5t20 -74.5q0 -64 -38.5 -113.5t-92.5 -49.5l-10 60q30 0 56 16.5t32 48.5q-8 -2 -17 -2q-28 0 -49 21t-21 49zM16 630q0 28 21 49t49 21q30 0 50 -25.5t20 -74.5q0 -64 -38.5 -113.5t-92.5 -49.5l-10 60q30 0 56 16.5t32 48.5
q-8 -2 -17 -2q-28 0 -49 21t-21 49z" />
    <glyph glyph-name="quotedblbase" unicode="&#x201e;" horiz-adv-x="361" 
d="M206 10q0 28 21 49t49 21q30 0 50 -25.5t20 -74.5q0 -64 -38.5 -113.5t-92.5 -49.5l-10 60q30 0 56 16.5t32 48.5q-8 -2 -17 -2q-28 0 -49 21t-21 49zM16 10q0 28 21 49t49 21q30 0 50 -25.5t20 -74.5q0 -64 -38.5 -113.5t-92.5 -49.5l-10 60q30 0 56 16.5t32 48.5
q-8 -2 -17 -2q-28 0 -49 21t-21 49z" />
    <glyph glyph-name="glyph94" unicode="&#x2022;" horiz-adv-x="186" 
d="M15 373q0 32 23.5 55.5t54.5 23.5t54.5 -23.5t23.5 -55.5q0 -31 -23.5 -54.5t-54.5 -23.5t-54.5 23.5t-23.5 54.5z" />
    <glyph glyph-name="uni2023" unicode="&#x2023;" horiz-adv-x="188" 
d="M15 463l158 -89l-158 -90v179z" />
    <glyph glyph-name="ellipsis" unicode="&#x2026;" horiz-adv-x="650" 
d="M495 57q0 29 20.5 49.5t49.5 20.5t49.5 -20.5t20.5 -49.5t-20.5 -49.5t-49.5 -20.5t-49.5 20.5t-20.5 49.5zM255 57q0 29 20.5 49.5t49.5 20.5t49.5 -20.5t20.5 -49.5t-20.5 -49.5t-49.5 -20.5t-49.5 20.5t-20.5 49.5zM15 57q0 29 20.5 49.5t49.5 20.5t49.5 -20.5
t20.5 -49.5t-20.5 -49.5t-49.5 -20.5t-49.5 20.5t-20.5 49.5z" />
    <glyph glyph-name="perthousand" unicode="&#x2030;" horiz-adv-x="1429" 
d="M1016 199q0 87 57 148t142 61t142 -61t57 -148t-57 -148t-142 -61t-142 61t-57 148zM1116 199q0 -50 27 -79.5t72 -29.5t72 29.5t27 79.5q0 45 -28 77t-71 32q-47 0 -73 -31t-26 -78zM576 199q0 87 57 148t142 61t142 -61t57 -148t-57 -148t-142 -61t-142 61t-57 148z
M676 199q0 -50 27 -79.5t72 -29.5t72 29.5t27 79.5q0 45 -28 77t-71 32q-47 0 -73 -31t-26 -78zM15 501q0 85 61.5 147t147.5 62t147.5 -62t61.5 -147t-61.5 -147t-147.5 -62t-147.5 62t-61.5 147zM115 501q0 -49 31.5 -79t77.5 -30t77.5 30t31.5 79q0 44 -32.5 76.5
t-76.5 32.5q-48 0 -78.5 -32t-30.5 -77zM675 700l-233 -700h-114l234 700h113z" />
    <glyph glyph-name="uni2042" unicode="&#x2042;" horiz-adv-x="650" 
d="M546 197h-81l10 74l-81 -43l-18 69l75 29l-76 29l18 69l82 -43l-10 79h81l-10 -79l80 42l19 -69l-73 -27l72 -28l-18 -69l-80 42zM186 197h-81l10 74l-81 -43l-18 69l75 29l-76 29l18 69l82 -43l-10 79h81l-10 -79l80 42l19 -69l-73 -27l72 -28l-18 -69l-80 42zM366 487
h-81l10 74l-81 -43l-18 69l75 29l-76 29l18 69l82 -43l-10 79h81l-10 -79l80 42l19 -69l-73 -27l72 -28l-18 -69l-80 42z" />
    <glyph glyph-name="trademark" unicode="&#x2122;" horiz-adv-x="521" 
d="M406 512h-84l-52 210v-210h-55v238h107l42 -211l36 211h106v-238h-55v210zM80 695h-65v55h183v-55h-62v-183h-56v183z" />
  </font>
</defs>
</svg>
