<?xml version="1.0" standalone="no"?>
<!DOCTYPE svg PUBLIC "-//W3C//DTD SVG 1.1//EN" "http://www.w3.org/Graphics/SVG/1.1/DTD/svg11.dtd" >
<svg xmlns="http://www.w3.org/2000/svg" xmlns:xlink="http://www.w3.org/1999/xlink" version="1.1">
<metadata>
Created by FontForge 20201107 at Tue Dec  6 22:46:42 2022
 By 
Pavel Larin
</metadata>
<defs>
<font id="LaroSoft-RegularItalic" horiz-adv-x="0" >
  <font-face 
    font-family="Laro Soft Reg"
    font-weight="400"
    font-style="italic"
    font-stretch="normal"
    units-per-em="1000"
    panose-1="0 0 5 0 0 0 0 0 0 0"
    ascent="800"
    descent="-200"
    x-height="500"
    cap-height="700"
    bbox="-299.533 -500 1271.5 1300"
    underline-thickness="50"
    underline-position="-100"
    unicode-range="U+000D-25CA"
  />
<missing-glyph horiz-adv-x="900" 
d="M1014 1300l-382 -1800h-571l382 1800h571zM850 1179h-297l-13 -59h117l-14 -67h-118l-13 -59h298l13 59h-118l14 67h118zM682 947h-180l-39 -187h298l13 61h-118zM607 886l-13 -65h-59l13 65h59zM750 711h-298l-12 -59h118l-15 -67h-118l-12 -59h180l27 126h118zM727 603
h-59l-25 -118h-239l-13 -62h298zM681 384h-180l-22 -101h62l9 41h59l-18 -84h-180l31 144h-59l-44 -204h298zM614 72h-298l-43 -203h298zM543 13l-18 -85h-180l18 85h180zM562 -172h-298l-12 -60h126l-144 -84l-13 -60h298l13 60h-183l144 84h57z" />
    <glyph glyph-name=".notdef" horiz-adv-x="900" 
d="M1014 1300l-382 -1800h-571l382 1800h571zM850 1179h-297l-13 -59h117l-14 -67h-118l-13 -59h298l13 59h-118l14 67h118zM682 947h-180l-39 -187h298l13 61h-118zM607 886l-13 -65h-59l13 65h59zM750 711h-298l-12 -59h118l-15 -67h-118l-12 -59h180l27 126h118zM727 603
h-59l-25 -118h-239l-13 -62h298zM681 384h-180l-22 -101h62l9 41h59l-18 -84h-180l31 144h-59l-44 -204h298zM614 72h-298l-43 -203h298zM543 13l-18 -85h-180l18 85h180zM562 -172h-298l-12 -60h126l-144 -84l-13 -60h298l13 60h-183l144 84h57z" />
    <glyph glyph-name=".null" 
 />
    <glyph glyph-name=".null" 
 />
    <glyph glyph-name="nonmarkingreturn" unicode="&#xd;" horiz-adv-x="250" 
 />
    <glyph glyph-name="space" unicode=" " horiz-adv-x="335" 
 />
    <glyph glyph-name="exclam" unicode="!" horiz-adv-x="237" 
d="M162 160q-11 0 -17.5 7.5t-3.5 18.5l92 487q2 11 11 19t21 8h35q11 0 16.5 -8t3.5 -19l-115 -487q-3 -11 -12.5 -18.5t-20.5 -7.5h-10zM131 -12q-24 0 -37 16.5t-7 41.5q5 23 25 39.5t44 16.5q23 0 36.5 -16.5t8.5 -39.5q-6 -25 -26 -41.5t-44 -16.5z" />
    <glyph glyph-name="quotedbl" unicode="&#x22;" horiz-adv-x="359" 
d="M207 500q-10 0 -15 8t-3 19l38 181q3 11 12.5 19t20.5 8h32q15 0 20.5 -10t-0.5 -24l-73 -181q-4 -10 -12.5 -15t-17.5 -5h-2zM348 500q-10 0 -15 8t-3 19l38 181q3 11 12.5 19t20.5 8h33q15 0 21 -10t0 -24l-74 -181q-4 -10 -12.5 -15t-17.5 -5h-3z" />
    <glyph glyph-name="numbersign" unicode="#" horiz-adv-x="954" 
d="M245 0q-14 0 -19 11t3 26l70 141h-146q-15 0 -22 10t0 24l7 15q9 18 28 18h166l108 216h-144q-15 0 -21.5 10t-0.5 24l7 15q9 18 28 18h164l77 154q4 8 11 13t16 5h13q16 0 22 -11t-2 -26l-68 -135h226l78 154q4 8 11 13t16 5h12q15 0 21.5 -11t-1.5 -26l-67 -135h142
q16 0 23 -10t0 -23l-8 -16q-4 -8 -11.5 -12.5t-15.5 -4.5h-163l-108 -218h141q16 0 22.5 -10t0.5 -23l-9 -16q-3 -8 -11 -12.5t-15 -4.5h-162l-80 -160q-4 -8 -11.5 -13t-15.5 -5h-13q-15 0 -21.5 11t1.5 26l70 141h-225l-80 -160q-4 -8 -11.5 -13t-15.5 -5h-17zM627 244
l109 218l-226 -1l-109 -216z" />
    <glyph glyph-name="dollar" unicode="$" horiz-adv-x="680" 
d="M339 -93q-13 0 -13.5 8t1.5 19l11 53q-104 3 -159.5 45.5t-66.5 108.5q-1 19 15 27l21 10q16 8 28 6t15 -17q12 -44 52 -70.5t112 -29.5l54 254q-40 11 -80 24.5t-69 35t-43.5 54t-3.5 81.5q9 40 33 75t61 61.5t84 42.5t102 18l11 53q2 11 6.5 19t17.5 8q12 0 13 -8
t-1 -19l-11 -53q92 -4 141 -46t52 -105q1 -7 -2 -14t-10 -10l-24 -11q-37 -17 -44 16q-7 38 -41 63t-89 28l-51 -241q42 -12 84.5 -26t74.5 -37t47.5 -58t4.5 -88q-18 -87 -94.5 -140t-203.5 -57l-11 -53q-2 -11 -7 -19t-17 -8zM476 636q-37 -1 -67 -12t-52.5 -27.5
t-37 -37.5t-19.5 -44q-5 -27 3.5 -45.5t26.5 -31t43 -20.5t54 -15zM391 67q89 2 136.5 35.5t55.5 82.5q7 32 -3 53t-30.5 34.5t-48.5 22.5t-58 16z" />
    <glyph glyph-name="percent" unicode="%" horiz-adv-x="802" 
d="M318 398q-33 0 -58.5 12.5t-42.5 33.5t-23 49.5t1 60.5t25 60.5t44 50t57 34t63 12.5q33 0 59 -12.5t42.5 -34t23 -50t-0.5 -60.5q-7 -33 -25.5 -61.5t-44 -49.5t-57 -33t-63.5 -12zM169 0q-19 0 -19 18.5t18 37.5l627 635q8 9 20 9q19 0 19 -18.5t-18 -37.5l-627 -635
q-8 -9 -20 -9zM330 455q20 0 39.5 8t36 21.5t28.5 31.5t16 38t0 38t-15 31.5t-27 21.5t-36 8t-39.5 -8t-36 -21.5t-28 -31.5t-15.5 -38t-0.5 -38t14 -31.5t26.5 -21.5t37 -8zM597 -10q-33 0 -59 12.5t-42.5 33.5t-23 49.5t0.5 61.5q7 32 25.5 60.5t44 50t57 34t64.5 12.5
q32 0 58 -12.5t42.5 -34t23 -50t-0.5 -60.5q-7 -33 -25.5 -61.5t-44.5 -50t-57 -33.5t-63 -12zM609 49q20 0 39.5 7.5t36 21t28 31.5t15.5 38q9 41 -14 69.5t-63 28.5q-21 0 -40.5 -7.5t-35.5 -21t-27.5 -31.5t-16.5 -38q-8 -41 14.5 -69.5t63.5 -28.5z" />
    <glyph glyph-name="ampersand" unicode="&#x26;" horiz-adv-x="831" 
d="M318 -14q-55 -4 -97.5 8t-69.5 37.5t-37 62t-1 82.5q9 42 33 75t58 58.5t75.5 45.5t84.5 37q-37 36 -56 75t-9 84q9 41 32 72t55 52t70.5 32t78.5 11t73 -10.5t54.5 -31t29.5 -49.5t0 -66q-7 -34 -25.5 -60t-45 -46t-58.5 -36t-66 -30q44 -38 75.5 -67.5t64.5 -62.5
q40 42 88 74t103 38q12 2 18.5 -6.5t3.5 -20.5l-8 -38q-2 -11 -11 -17.5t-20 -8.5q-33 -4 -66 -23t-61 -43q45 -49 67.5 -93t26.5 -88q1 -14 -10 -23.5t-25 -9.5h-38q-19 0 -20 19q-2 35 -18 67t-40 62q-39 -43 -76.5 -73t-75 -48.5t-76.5 -28t-81 -12.5zM451 426
q30 12 56.5 24t48 26t36 31.5t19.5 41.5q5 26 -0.5 45t-18.5 31t-32 18t-40 6t-43.5 -5.5t-42 -17.5t-33.5 -30.5t-20 -45.5q-8 -36 14 -65.5t56 -58.5zM352 65q31 3 60.5 10.5t57.5 22.5t56 38.5t58 57.5q-33 36 -80 78t-97 84q-32 -13 -65 -28.5t-61.5 -35t-48.5 -44
t-27 -56.5q-7 -31 1.5 -56t28.5 -41.5t50 -24.5t67 -5z" />
    <glyph glyph-name="quotesingle" unicode="'" horiz-adv-x="216" 
d="M207 500q-10 0 -15 8t-3 19l38 181q3 11 12.5 19t20.5 8h32q15 0 20.5 -10t-0.5 -24l-73 -181q-4 -10 -12.5 -15t-17.5 -5h-2z" />
    <glyph glyph-name="parenleft" unicode="(" horiz-adv-x="341" 
d="M224 -136q-10 -5 -19.5 -3t-12.5 12q-44 103 -58 215.5t14 244.5q28 131 90 244t150 216q7 10 17.5 12t17.5 -3l16 -10q10 -6 10 -16.5t-9 -21.5q-78 -96 -129.5 -203t-74.5 -218q-24 -112 -18.5 -219t43.5 -202q4 -11 -1 -21.5t-17 -16.5z" />
    <glyph glyph-name="parenright" unicode=")" horiz-adv-x="341" 
d="M74 -126q-9 6 -9 16.5t8 21.5q78 95 128.5 202t74.5 219q23 111 18 218.5t-42 203.5q-4 10 1 20.5t16 16.5l17 9q10 5 20 3t15 -11q43 -103 58 -216t-13 -244q-28 -132 -91 -244.5t-150 -215.5q-18 -21 -37 -8z" />
    <glyph glyph-name="asterisk" unicode="*" horiz-adv-x="433" 
d="M349 552q-9 0 -13.5 8.5t-1.5 20.5l25 89l-74 -68q-10 -9 -20.5 -10.5t-15.5 5.5t-2 17t15 19l79 59l-89 -6q-12 -1 -19.5 5t-5.5 16t12 16t22 5l87 -5l-54 58q-8 9 -7.5 19t9.5 17q8 7 18 5.5t16 -10.5l45 -68l13 90q2 12 10 20.5t17 8.5t13.5 -8t0.5 -21l-24 -90l74 68
q9 9 20 10.5t17 -5.5q5 -7 1 -17t-15 -18l-79 -59l90 5q12 1 19 -5t5 -16t-11.5 -16t-21.5 -5l-88 6l54 -60q8 -8 7.5 -18t-8.5 -17t-18 -5.5t-16 10.5l-46 68l-14 -89q-1 -13 -8.5 -21t-17.5 -8z" />
    <glyph glyph-name="plus" unicode="+" horiz-adv-x="495" 
d="M292 174q-11 0 -17.5 8t-3.5 19l26 124h-124q-11 0 -17.5 8t-3.5 19l3 15q2 11 11.5 19t21.5 8h124l26 125q3 11 12.5 19t20.5 8h15q11 0 17.5 -8t3.5 -19l-26 -125h125q11 0 17 -8t4 -19l-3 -15q-3 -11 -12.5 -19t-20.5 -8h-125l-26 -124q-3 -11 -12.5 -19t-20.5 -8h-15
z" />
    <glyph glyph-name="comma" unicode="," horiz-adv-x="237" 
d="M96 -85q-5 5 -0.5 13.5t13.5 22.5q6 11 9.5 20t4.5 18q-20 3 -30.5 19t-5.5 38q5 23 25 39.5t44 16.5q26 0 37.5 -18.5t5.5 -44.5q-8 -34 -33 -64.5t-50 -52.5q-14 -12 -20 -7z" />
    <glyph glyph-name="hyphen" unicode="-" horiz-adv-x="513" 
d="M171 316q-11 0 -17 8t-4 19l3 14q2 11 11.5 19t21.5 8h335q11 0 17 -8t4 -19l-3 -14q-2 -11 -12 -19t-21 -8h-335z" />
    <glyph glyph-name="period" unicode="." horiz-adv-x="237" 
d="M131 -12q-24 0 -37 16.5t-7 41.5q5 23 25 39.5t44 16.5q23 0 36.5 -16.5t8.5 -39.5q-6 -25 -26 -41.5t-44 -16.5z" />
    <glyph glyph-name="slash" unicode="/" horiz-adv-x="489" 
d="M79 -170q-15 0 -21 11t1 26l460 944q9 18 28 18h33q15 0 21 -11t-1 -26l-460 -944q-9 -18 -28 -18h-33z" />
    <glyph glyph-name="zero" unicode="0" horiz-adv-x="684" 
d="M353 -13q-59 0 -105 28.5t-74.5 78t-36.5 115.5t7 141q16 75 52.5 141t85.5 115.5t107.5 78t118.5 28.5q59 0 104.5 -28.5t74 -78t36.5 -115.5t-8 -141q-15 -75 -51.5 -141t-85.5 -115.5t-107.5 -78t-117.5 -28.5zM372 73q39 0 79 22t75 59.5t61 88t38 107.5q13 57 8 108
t-23.5 89.5t-49 60.5t-70.5 22q-41 0 -81.5 -22t-75 -60t-61 -89t-39.5 -109q-12 -58 -7 -108.5t24 -88t50 -59t72 -21.5z" />
    <glyph glyph-name="one" unicode="1" horiz-adv-x="375" 
d="M210 0q-11 0 -17.5 8t-3.5 19l121 570l-65 -52q-10 -8 -21 -7.5t-17 8.5l-11 15q-6 8 -3.5 18.5t12.5 18.5l120 96q7 6 16 6h52q11 0 17 -8t4 -19l-137 -646q-3 -11 -12.5 -19t-20.5 -8h-34z" />
    <glyph glyph-name="two" unicode="2" horiz-adv-x="614" 
d="M97 0q-11 0 -17.5 8t-3.5 19l6 30q15 58 56 100.5t94 77.5t112 64t110.5 60t88.5 65.5t46 80.5q12 56 -24 91t-115 35q-52 0 -95.5 -20t-70.5 -55q-7 -10 -17 -14t-19 0l-27 12q-11 5 -13.5 14t4.5 19q39 58 106.5 92t153.5 34q55 0 98 -13.5t71 -39t38.5 -61.5t1.5 -81
q-11 -57 -47 -99.5t-84.5 -76.5t-104.5 -63.5t-109 -59.5t-97.5 -63.5t-68.5 -77.5h387q11 0 17 -8t4 -19l-5 -24q-3 -11 -12.5 -19t-20.5 -8h-443z" />
    <glyph glyph-name="three" unicode="3" horiz-adv-x="654" 
d="M336 -13q-89 0 -150 31t-82 91q-3 10 2.5 19.5t16.5 14.5l35 16q11 5 20 2t12 -13q17 -40 62.5 -60.5t108.5 -20.5q83 0 137 39t68 105q12 58 -20 93t-108 35h-42q-11 0 -17.5 8t-3.5 19l2 11q3 11 11 19t19 8q30 0 57 9.5t48 25.5t35.5 37t19.5 44q11 54 -19 84.5
t-88 30.5q-43 0 -80.5 -17.5t-65.5 -49.5q-7 -8 -16 -11.5t-18 0.5l-28 12q-10 5 -13 15t6 21q38 49 99 78.5t136 29.5q49 0 86.5 -13.5t60.5 -38.5t31.5 -59t-0.5 -75q-9 -45 -41 -84t-83 -60q73 -8 104.5 -56.5t16.5 -117.5q-11 -54 -39.5 -95t-70.5 -69.5t-95 -43
t-114 -14.5z" />
    <glyph glyph-name="four" unicode="4" horiz-adv-x="595" 
d="M420 0q-11 0 -17.5 8t-3.5 19l44 209h-296q-11 0 -17.5 8t-3.5 19l9 41q1 7 8 14l387 374q8 8 19 8h54q11 0 17 -8t4 -19l-79 -370h24q12 0 18 -8t4 -19l-3 -13q-3 -11 -11.5 -19t-19.5 -8h-26l-44 -209q-3 -11 -12.5 -19t-20.5 -8h-34zM208 303h249l65 306z" />
    <glyph glyph-name="five" unicode="5" horiz-adv-x="621" 
d="M318 -13q-80 1 -138 32.5t-77 90.5q-3 9 3 18.5t16 14.5l35 16q11 5 20 1.5t13 -14.5q15 -38 53 -58.5t94 -20.5q86 2 137.5 48t66.5 123q13 71 -26 111.5t-138 40.5q-36 0 -74 -4t-81 -11q-14 -2 -22 6t-5 22l57 270q2 11 11.5 19t21.5 8h365q11 0 17 -8t4 -19l-5 -23
q-2 -11 -11.5 -19t-21.5 -8h-317l-39 -184q35 5 70 8.5t68 3.5q136 0 185 -59t26 -165q-25 -113 -107 -176.5t-201 -63.5z" />
    <glyph glyph-name="six" unicode="6" horiz-adv-x="644" 
d="M343 -13q-85 -1 -136 39.5t-70 100.5q-14 44 -11 96.5t15 110.5q17 80 53.5 149.5t87.5 120.5t113.5 79.5t132.5 28.5q37 -1 81 -14.5t74 -46.5q8 -8 4.5 -19t-13.5 -19l-15 -12q-18 -14 -33 -1q-23 19 -52 29.5t-62 10.5q-51 0 -99 -23t-87 -64.5t-66 -100.5t-37 -131
q15 33 40.5 60.5t57 47.5t66.5 31t71 11q52 0 92.5 -18t66 -50t35 -75.5t-0.5 -94.5q-11 -51 -40.5 -96t-71.5 -78t-92.5 -52.5t-103.5 -19.5zM356 64q36 0 70 13t62 36t48 54t28 66q7 35 0 65.5t-25 53.5t-47 36.5t-65 13.5q-35 0 -69 -13t-62 -35.5t-48 -53.5t-27 -67
q-8 -34 -2 -64.5t23.5 -54t46 -37t67.5 -13.5z" />
    <glyph glyph-name="seven" unicode="7" horiz-adv-x="581" 
d="M197 0q-19 0 -24.5 14t6.5 31l403 578h-353q-11 0 -17 8t-4 19l5 23q2 11 11.5 19t21.5 8h427q11 0 17 -8t4 -19l-10 -45q0 -3 -3 -9l-422 -606q-9 -13 -24 -13h-38z" />
    <glyph glyph-name="eight" unicode="8" horiz-adv-x="651" 
d="M339 -7q-62 0 -108.5 15t-76 42.5t-40 67.5t-0.5 91q7 31 23.5 60.5t40.5 53.5t55 40.5t66 22.5q-41 20 -56.5 56.5t-6.5 81.5q9 39 31 72.5t55.5 58t76 38.5t91.5 14q45 0 81 -13.5t59.5 -38t33 -58t0.5 -73.5q-9 -45 -40 -81.5t-81 -57.5q33 -5 57 -21.5t37.5 -40.5
t17.5 -53.5t-3 -60.5q-10 -48 -35.5 -87.5t-65 -68t-93 -44.5t-119.5 -16zM427 408q28 0 52.5 8.5t44 23.5t32.5 35t18 42q5 23 0 44t-18 36.5t-34 24.5t-48 9q-28 0 -53 -9t-44.5 -24.5t-33 -36.5t-18.5 -44q-10 -45 17 -76.5t85 -32.5zM355 72q89 0 142 41.5t66 104.5
q6 27 1 51t-20 42t-40.5 29t-61.5 11h-57q-35 0 -65 -10.5t-53.5 -29t-39 -42.5t-21.5 -51q-13 -63 23 -104.5t126 -41.5z" />
    <glyph glyph-name="nine" unicode="9" horiz-adv-x="644" 
d="M290 -13q-38 0 -81 13.5t-74 47.5q-7 8 -4 19t13 19l16 12q17 13 33 0q45 -39 114 -39q51 0 99 23t87 64.5t66 100.5t36 131q-15 -33 -40.5 -61t-56.5 -48t-66.5 -31t-71.5 -11q-51 0 -91.5 18t-66.5 50.5t-35 76t2 94.5t40 95.5t70.5 78t92 53t102.5 19.5
q87 0 137.5 -40t68.5 -101q15 -43 13 -95.5t-15 -111.5q-17 -80 -53.5 -149t-87.5 -120t-114 -79.5t-133 -28.5zM390 297q36 0 70 13t62.5 35.5t48 53.5t27.5 67q7 34 1 64.5t-23.5 54t-46 37t-66.5 13.5q-36 0 -70 -13.5t-62 -36.5t-48 -53.5t-27 -65.5t-0.5 -66t24.5 -54
t46.5 -36t63.5 -13z" />
    <glyph glyph-name="colon" unicode=":" horiz-adv-x="237" 
d="M217 392q-24 0 -37 16.5t-7 41.5q5 23 24.5 39.5t44.5 16.5q23 0 36.5 -16.5t8.5 -39.5q-6 -25 -26 -41.5t-44 -16.5zM131 -12q-24 0 -37 16.5t-7 41.5q5 23 25 39.5t44 16.5q23 0 36.5 -16.5t8.5 -39.5q-6 -25 -26 -41.5t-44 -16.5z" />
    <glyph glyph-name="semicolon" unicode=";" horiz-adv-x="237" 
d="M217 392q-24 0 -37 16.5t-7 41.5q5 23 24.5 39.5t44.5 16.5q23 0 36.5 -16.5t8.5 -39.5q-6 -25 -26 -41.5t-44 -16.5zM96 -85q-5 5 -0.5 13.5t13.5 22.5q6 11 9.5 20t4.5 18q-20 3 -30.5 19t-5.5 38q5 23 25 39.5t44 16.5q26 0 37.5 -18.5t5.5 -44.5q-8 -34 -33 -64.5
t-50 -52.5q-14 -12 -20 -7z" />
    <glyph glyph-name="less" unicode="&#x3c;" horiz-adv-x="474" 
d="M162 344q-5 3 -7 9t0 12l2 11q3 14 16 21l325 153q18 8 31 4t11 -19l-4 -23q-3 -14 -17 -22l-243 -119l193 -119q10 -7 7 -22l-6 -22q-4 -15 -19 -19.5t-29 3.5z" />
    <glyph glyph-name="equal" unicode="=" horiz-adv-x="495" 
d="M195 428q-11 0 -17.5 8t-3.5 19l3 14q2 11 11.5 19t20.5 8h318q12 0 18 -8t4 -19l-3 -14q-3 -11 -12.5 -19t-20.5 -8h-318zM151 219q-12 0 -18 8t-4 19l3 14q3 11 12.5 19t20.5 8h318q11 0 17.5 -8t3.5 -19l-3 -14q-2 -11 -11.5 -19t-20.5 -8h-318z" />
    <glyph glyph-name="greater" unicode="&#x3e;" horiz-adv-x="474" 
d="M165 192q-19 -9 -31.5 -3.5t-10.5 19.5l4 22q3 15 17 22l242 119l-192 119q-10 8 -7 22l3 11q5 18 20.5 26.5t30.5 -0.5l259 -152q6 -3 7.5 -9t0.5 -12l-2 -11q-2 -6 -6 -12t-11 -9z" />
    <glyph glyph-name="question" unicode="?" horiz-adv-x="579" 
d="M309 156q-11 0 -17 8t-3 20q14 50 37 83t50 57t56 42.5t55 39t45 46.5t28 64q5 26 -1 49t-21.5 40.5t-41 28t-60.5 10.5q-47 0 -88 -20.5t-66 -56.5q-15 -20 -33 -15l-23 6q-12 3 -16 14t4 22q37 54 99 86t138 32q52 0 91.5 -14t65 -38.5t35 -58.5t1.5 -75
q-10 -46 -31 -77t-49 -54t-60 -42t-61.5 -42t-54.5 -53.5t-40 -76.5q-3 -11 -11.5 -18t-19.5 -7h-8zM278 -12q-24 0 -37 16.5t-7 41.5q5 23 25 39.5t44 16.5t37 -16.5t8 -39.5q-6 -25 -25.5 -41.5t-44.5 -16.5z" />
    <glyph glyph-name="at" unicode="@" horiz-adv-x="836" 
d="M443 -31q-80 0 -142.5 29t-101.5 79.5t-52.5 118.5t3.5 146q16 78 58.5 145t102.5 117t134.5 79.5t156.5 30.5q81 2 142 -27.5t96 -80.5t41 -120t-23 -146q-18 -49 -46 -86.5t-60.5 -63t-66 -38t-63.5 -12.5q-39 1 -59.5 23.5t-6.5 70.5q-33 -34 -71.5 -54t-74.5 -20
q-32 0 -54 15.5t-32 42.5t-7.5 63.5t19.5 78.5q16 41 42.5 76.5t57.5 61.5t64.5 41.5t65.5 15.5q40 0 62 -25t23 -67l35 74q4 9 12 13.5t16 4.5q9 0 10.5 -11t-5.5 -25l-119 -252q-12 -25 -13 -41.5t5 -26.5t18 -14.5t27 -4.5q23 0 48 10.5t49.5 31t46.5 51t37 70.5
q26 69 21.5 130t-35 106.5t-84.5 71.5t-127 24q-72 -1 -138.5 -27.5t-120.5 -71t-91.5 -105t-51.5 -129.5q-15 -70 -3.5 -131t46.5 -106t90 -71t128 -26q67 0 132 26q12 5 21 3.5t11 -9.5q5 -19 -19 -29q-38 -16 -76 -23t-78 -7zM421 197q23 0 49.5 13.5t51.5 36t46 52
t34 61.5q12 33 16 61.5t-1.5 50t-21 34t-40.5 12.5q-23 0 -49.5 -13.5t-51.5 -36t-46 -52t-34 -61.5t-16.5 -60.5t2.5 -50.5t21 -34.5t40 -12.5z" />
    <glyph glyph-name="A" unicode="A" horiz-adv-x="721" 
d="M87 0q-17 0 -23 12t4 29l383 644q9 15 25 15h68q15 0 19 -15l109 -644q2 -17 -9 -29t-28 -12h-37q-15 0 -19 15l-32 192h-285l-114 -192q-10 -15 -25 -15h-36zM309 286h226l-50 297z" />
    <glyph glyph-name="B" unicode="B" horiz-adv-x="723" 
d="M103 0q-11 0 -17.5 8t-3.5 19l137 646q2 11 11.5 19t21.5 8h269q55 0 93 -13t60 -36.5t28.5 -56t-1.5 -71.5q-9 -45 -40 -82t-77 -58q33 -6 57.5 -22.5t40 -40.5t20.5 -54t-2 -64q-9 -43 -33.5 -80t-59.5 -64t-79.5 -42.5t-94.5 -15.5h-330zM250 404h201q31 0 58 8.5
t48 24t35.5 36t19.5 44.5q10 49 -18.5 79t-95.5 30h-201zM180 74h262q29 0 57 10t51 27.5t39 41.5t22 52q6 29 0 53t-21.5 41t-39 27t-53.5 10h-262z" />
    <glyph glyph-name="C" unicode="C" horiz-adv-x="777" 
d="M428 -12q-80 0 -142 28t-101 77t-53 115t2 142q17 76 58.5 142t101.5 115t134 77t154 28q89 0 152 -32t102 -89q5 -9 2 -19t-13 -18l-32 -23q-12 -8 -22 -6.5t-15 10.5q-29 43 -75.5 67t-116.5 24q-60 0 -115.5 -21.5t-101.5 -58.5t-78 -87.5t-45 -108.5
q-12 -58 -1 -108.5t40.5 -87.5t76.5 -58.5t107 -21.5q70 0 127 24t103 66q9 10 20 11t19 -7l21 -22q7 -8 6.5 -17.5t-7.5 -17.5q-63 -57 -140.5 -90t-167.5 -33z" />
    <glyph glyph-name="D" unicode="D" horiz-adv-x="766" 
d="M103 0q-11 0 -17.5 8t-3.5 19l137 646q2 11 11.5 19t21.5 8h236q82 0 144.5 -26.5t101 -73t51 -110.5t-3.5 -140t-56 -140t-98.5 -110.5t-131.5 -73t-156 -26.5h-236zM182 84h175q58 0 113 18.5t100 53t77 83.5t45 111q14 62 2.5 111t-42 83.5t-77.5 53t-105 18.5h-175z
" />
    <glyph glyph-name="E" unicode="E" horiz-adv-x="671" 
d="M103 0q-11 0 -17.5 8t-3.5 19l137 646q2 11 11.5 19t21.5 8h465q11 0 17 -8t4 -19l-5 -26q-3 -11 -12.5 -19t-20.5 -8h-404l-49 -229h291q11 0 17.5 -8t3.5 -19l-5 -27q-3 -11 -12.5 -19t-20.5 -8h-291l-49 -230h404q11 0 17.5 -8t3.5 -19l-5 -26q-3 -11 -12.5 -19
t-20.5 -8h-465z" />
    <glyph glyph-name="F" unicode="F" horiz-adv-x="646" 
d="M103 0q-11 0 -17.5 8t-3.5 19l137 646q2 11 11.5 19t21.5 8h465q11 0 17 -8t4 -19l-5 -26q-3 -11 -12.5 -19t-20.5 -8h-404l-50 -234h291q11 0 17.5 -8t3.5 -19l-5 -24q-2 -11 -11.5 -19t-21.5 -8h-291l-59 -281q-3 -11 -12.5 -19t-20.5 -8h-34z" />
    <glyph glyph-name="G" unicode="G" horiz-adv-x="798" 
d="M428 -12q-80 0 -142 28t-101 77t-53 115t2 142q17 76 58.5 142t101.5 115t134 77t154 28q89 0 152.5 -30.5t101.5 -87.5q6 -8 2 -18.5t-14 -18.5l-30 -22q-11 -8 -21.5 -6.5t-15.5 10.5q-28 42 -75.5 64.5t-117.5 22.5q-60 0 -115.5 -21.5t-101.5 -58.5t-78 -87.5
t-45 -108.5q-12 -60 -1 -111.5t42 -90t79.5 -60t109.5 -21.5q70 0 129.5 26t107.5 72l28 132h-211q-11 0 -17.5 8t-3.5 19l5 23q2 11 11.5 19t20.5 8h260q12 0 18 -8t4 -19l-47 -218q-1 -9 -9 -15q-73 -63 -150 -94.5t-172 -31.5z" />
    <glyph glyph-name="H" unicode="H" horiz-adv-x="742" 
d="M103 0q-11 0 -17.5 8t-3.5 19l137 646q2 11 11.5 19t21.5 8h34q11 0 17 -8t4 -19l-59 -278h414l59 278q2 11 11.5 19t21.5 8h34q11 0 17 -8t4 -19l-137 -646q-3 -11 -12.5 -19t-20.5 -8h-34q-11 0 -17.5 8t-3.5 19l60 282h-414l-60 -282q-3 -11 -12.5 -19t-20.5 -8h-34z
" />
    <glyph glyph-name="I" unicode="I" horiz-adv-x="240" 
d="M103 0q-11 0 -17.5 8t-3.5 19l137 646q2 11 11.5 19t21.5 8h34q11 0 17 -8t4 -19l-137 -646q-3 -11 -12.5 -19t-20.5 -8h-34z" />
    <glyph glyph-name="J" unicode="J" horiz-adv-x="644" 
d="M285 -13q-71 0 -125.5 33.5t-80.5 90.5q-10 18 12 33l29 21q13 9 24 6.5t17 -13.5q19 -39 56.5 -61.5t88.5 -22.5q39 0 77.5 14t70.5 40t55 62t32 78l86 405q2 11 11.5 19t21.5 8h34q11 0 17 -8t4 -19l-83 -392q-15 -68 -48 -122.5t-79.5 -92.5t-102.5 -58.5t-117 -20.5z
" />
    <glyph glyph-name="K" unicode="K" horiz-adv-x="680" 
d="M103 0q-11 0 -17.5 8t-3.5 19l137 646q2 11 11.5 19t21.5 8h34q11 0 17 -8t4 -19l-59 -278h132l305 297q8 8 20 8h29q24 0 24 -17t-24 -40l-297 -291l173 -295q17 -28 6 -42.5t-28 -14.5h-38q-12 0 -16 8l-179 299h-126l-59 -280q-3 -11 -12.5 -19t-20.5 -8h-34z" />
    <glyph glyph-name="L" unicode="L" horiz-adv-x="648" 
d="M103 0q-11 0 -17.5 8t-3.5 19l137 646q2 11 11.5 19t21.5 8h34q11 0 17 -8t4 -19l-126 -593h404q11 0 17.5 -8t3.5 -19l-5 -26q-3 -11 -12.5 -19t-20.5 -8h-465z" />
    <glyph glyph-name="M" unicode="M" horiz-adv-x="916" 
d="M103 0q-11 0 -17.5 8t-3.5 19l137 646q2 11 11.5 19t21.5 8h50q14 0 17 -11l181 -491l388 491q8 11 23 11h51q11 0 17 -8t4 -19l-137 -646q-3 -11 -12.5 -19t-20.5 -8h-34q-11 0 -17.5 8t-3.5 19l108 510l-337 -423q-8 -11 -22 -11h-55q-15 0 -18 11l-156 423l-108 -510
q-3 -11 -12.5 -19t-20.5 -8h-34z" />
    <glyph glyph-name="N" unicode="N" horiz-adv-x="745" 
d="M103 0q-11 0 -17.5 8t-3.5 19l137 646q2 11 11.5 19t21.5 8h52q12 0 16 -9l290 -549l113 531q2 11 11.5 19t21.5 8h35q11 0 17 -8t4 -19l-137 -646q-3 -11 -12.5 -19t-20.5 -8h-52q-12 0 -16 9l-291 549l-113 -531q-3 -11 -12.5 -19t-20.5 -8h-34z" />
    <glyph glyph-name="O" unicode="O" horiz-adv-x="860" 
d="M427 -12q-79 0 -141 28t-101 77t-53 115t2 142q17 76 59 142t101.5 115t133.5 77t153 28q80 0 141.5 -28t101 -77t53.5 -115t-3 -142q-16 -76 -58 -142t-102 -115t-133.5 -77t-153.5 -28zM446 74q59 0 114.5 21.5t101 58.5t78 87.5t44.5 108.5q13 58 2 108.5t-41 87.5
t-76.5 58.5t-105.5 21.5t-114.5 -21.5t-101 -58.5t-78 -87.5t-45.5 -108.5q-12 -58 -1 -108.5t41 -87.5t76.5 -58.5t105.5 -21.5z" />
    <glyph glyph-name="P" unicode="P" horiz-adv-x="672" 
d="M103 0q-11 0 -17.5 8t-3.5 19l137 646q2 11 11.5 19t21.5 8h255q62 0 106 -18.5t70 -50t34.5 -74t-2.5 -89.5q-10 -47 -36 -89.5t-65.5 -74t-91.5 -50t-114 -18.5h-194l-44 -209q-3 -11 -12.5 -19t-20.5 -8h-34zM231 317h187q42 0 77.5 11.5t62.5 32t45 48t24 59.5
q7 31 1 58.5t-24.5 48t-48.5 32.5t-72 12h-187z" />
    <glyph glyph-name="Q" unicode="Q" horiz-adv-x="860" 
d="M427 -12q-78 0 -139.5 28t-101 77t-54 115t1.5 142q17 76 59.5 142t102.5 115t133.5 77t151.5 28q79 0 140.5 -28t101 -77t54 -115t-2.5 -142q-15 -72 -55 -135.5t-97 -111.5l40 -46q8 -9 5.5 -20t-13.5 -20l-20 -15q-9 -8 -19.5 -8.5t-16.5 7.5l-46 54
q-52 -32 -108.5 -49.5t-116.5 -17.5zM446 74q40 0 79.5 13.5t73.5 36.5l-24 27q-8 9 -5.5 20.5t15.5 20.5l21 16q9 6 18.5 6t15.5 -7l31 -34q42 33 72 78t41 99q13 58 2 108.5t-41 87.5t-76.5 58.5t-105.5 21.5t-115 -21.5t-101.5 -58.5t-77.5 -87.5t-45 -108.5
q-12 -58 -1 -108.5t40.5 -87.5t76 -58.5t106.5 -21.5z" />
    <glyph glyph-name="R" unicode="R" horiz-adv-x="711" 
d="M103 0q-11 0 -17.5 8t-3.5 19l137 646q2 11 11.5 19t21.5 8h302q55 0 94 -17t62 -46.5t30 -69t-2 -84.5q-8 -36 -25.5 -68.5t-43.5 -59.5t-59.5 -46t-73.5 -28l81 -233q6 -17 -4 -32.5t-28 -15.5h-36q-14 0 -17 12l-92 255h-219l-51 -240q-3 -11 -12.5 -19t-20.5 -8h-34z
M238 348h234q34 0 64 10.5t53 28.5t38.5 42.5t21.5 53.5q12 59 -19 97.5t-100 38.5h-234z" />
    <glyph glyph-name="S" unicode="S" horiz-adv-x="675" 
d="M332 -12q-176 0 -238 107q-5 8 -1.5 17.5t12.5 16.5l29 20q11 8 22 6.5t17 -12.5q22 -37 65.5 -57t109.5 -20q97 0 150 34t61 85q7 45 -21.5 70t-74 41.5t-99 30.5t-97 36t-68 57.5t-10.5 95.5q9 42 34.5 78t64.5 62.5t89.5 41t108.5 14.5q83 -1 135 -29.5t72 -76.5
q3 -8 -1 -17t-13 -15l-28 -18q-13 -9 -24 -6t-16 15q-15 34 -53.5 53t-92.5 19q-38 0 -70.5 -10t-57 -27t-40 -39t-21.5 -46q-8 -41 20 -63.5t74 -38.5t100 -30t98 -37t69 -61t11 -101q-19 -90 -100.5 -143t-215.5 -53z" />
    <glyph glyph-name="T" unicode="T" horiz-adv-x="665" 
d="M315 0q-11 0 -17.5 8t-3.5 19l124 585h-208q-11 0 -17.5 8t-3.5 19l7 34q2 11 11.5 19t21.5 8h505q11 0 17 -8t4 -19l-7 -34q-3 -11 -12.5 -19t-20.5 -8h-207l-124 -585q-3 -11 -12.5 -19t-20.5 -8h-36z" />
    <glyph glyph-name="U" unicode="U" horiz-adv-x="754" 
d="M374 -12q-65 0 -115.5 21t-82.5 58.5t-43.5 90.5t1.5 116l85 399q2 11 11.5 19t21.5 8h34q11 0 17 -8t4 -19l-85 -399q-9 -45 -1.5 -82t30.5 -63t59 -40.5t83 -14.5t89 14t76 40.5t57.5 63.5t32.5 82l85 399q2 11 11.5 19t21.5 8h34q11 0 17 -8t4 -19l-85 -399
q-13 -63 -47 -116t-82 -90.5t-107.5 -58.5t-125.5 -21z" />
    <glyph glyph-name="V" unicode="V" horiz-adv-x="708" 
d="M320 0q-15 0 -19 15l-109 644q-2 17 9 29t28 12h36q15 0 19 -15l95 -568l336 568q3 7 10.5 11t15.5 4h36q17 0 23 -12t-4 -29l-384 -644q-10 -15 -25 -15h-67z" />
    <glyph glyph-name="W" unicode="W" horiz-adv-x="1140" 
d="M318 0q-17 0 -19 15l-107 644q-2 17 9 29t28 12h35q7 0 13 -4t7 -11l91 -553l290 551q8 17 27 17h55q18 0 19 -17l56 -551l327 553q3 7 10.5 11t15.5 4h34q16 0 22.5 -12t-3.5 -29l-382 -644q-10 -15 -25 -15h-59q-18 0 -19 17l-54 544l-283 -544q-9 -17 -27 -17h-61z
" />
    <glyph glyph-name="X" unicode="X" horiz-adv-x="772" 
d="M131 0q-19 0 -20 17.5t16 36.5l278 296l-152 296q-9 19 -0.5 36.5t27.5 17.5h43q12 0 16 -9l136 -266l250 266q8 9 20 9h33q22 0 27.5 -17.5t-12.5 -36.5l-278 -296l152 -296q10 -19 1.5 -36.5t-27.5 -17.5h-45q-12 0 -16 9l-137 266l-249 -266q-8 -9 -20 -9h-43z" />
    <glyph glyph-name="Y" unicode="Y" horiz-adv-x="676" 
d="M320 0q-11 0 -17.5 8t-3.5 19l60 285l-159 335q-9 18 2.5 35.5t29.5 17.5h35q12 0 17 -10l139 -292l263 292q8 10 21 10h29q22 0 27 -17.5t-11 -35.5l-303 -335l-60 -285q-3 -11 -12.5 -19t-20.5 -8h-36z" />
    <glyph glyph-name="Z" unicode="Z" horiz-adv-x="688" 
d="M103 0q-11 0 -17.5 8t-3.5 19l12 57q0 3 2 7t5 6l514 518h-381q-12 0 -18 8t-4 19l7 31q2 11 11.5 19t21.5 8h482q11 0 17 -8t4 -19l-12 -56q-1 -6 -8 -13l-518 -519h386q11 0 17.5 -8t3.5 -19l-6 -31q-3 -11 -12.5 -19t-20.5 -8h-482z" />
    <glyph glyph-name="bracketleft" unicode="[" horiz-adv-x="323" 
d="M72 -152q-12 0 -18 8t-4 19l199 936q3 11 12.5 19t20.5 8h145q11 0 17.5 -8t3.5 -19l-2 -13q-3 -11 -12.5 -19t-20.5 -8h-84l-182 -856h84q11 0 17.5 -8t3.5 -19l-3 -13q-2 -11 -11.5 -19t-20.5 -8h-145z" />
    <glyph glyph-name="backslash" unicode="\" horiz-adv-x="489" 
d="M335 -170q-19 0 -20 18l-60 944q0 15 10.5 26t25.5 11h33q19 0 20 -18l60 -944q0 -15 -10.5 -26t-25.5 -11h-33z" />
    <glyph glyph-name="bracketright" unicode="]" horiz-adv-x="323" 
d="M72 -152q-12 0 -18 8t-4 19l3 13q3 11 12.5 19t20.5 8h83l182 856h-83q-11 0 -17.5 8t-3.5 19l2 13q3 11 12.5 19t20.5 8h145q11 0 17.5 -8t3.5 -19l-199 -936q-2 -11 -11.5 -19t-20.5 -8h-145z" />
    <glyph glyph-name="asciicircum" unicode="^" horiz-adv-x="427" 
d="M264 700q-14 0 -14.5 15t13.5 33l131 168q8 12 22 12h19q14 0 18 -12l59 -168q6 -18 -0.5 -33t-19.5 -15h-24q-14 0 -17 13l-42 135l-99 -136q-8 -12 -23 -12h-23z" />
    <glyph glyph-name="underscore" unicode="_" horiz-adv-x="706" 
d="M82 -103q-11 0 -17.5 8t-3.5 19l3 13q2 11 11.5 19t20.5 8h528q12 0 18 -8t4 -19l-3 -13q-3 -11 -12.5 -19t-20.5 -8h-528z" />
    <glyph glyph-name="grave" unicode="`" horiz-adv-x="325" 
d="M403 758q-23 0 -29.5 4.5t-14.5 15.5l-61 91q-13 19 -5.5 30.5t25.5 11.5h47q13 0 17 -11l46 -116q4 -11 -4.5 -18.5t-20.5 -7.5z" />
    <glyph glyph-name="a" unicode="a" horiz-adv-x="580" 
d="M233 -14q-96 -2 -135.5 39.5t-22.5 117.5q16 70 84.5 112.5t183.5 42.5q40 0 78.5 -5.5t72.5 -15.5l3 13q16 78 -7.5 118t-104.5 40q-40 0 -81.5 -11.5t-79.5 -33.5q-11 -5 -20.5 -4t-14.5 10l-4 8q-5 10 -1 21t16 18q54 29 109.5 43t107.5 14q111 0 152 -51.5t19 -154.5
l-59 -280q-3 -11 -12.5 -19t-20.5 -8h-23q-11 0 -17.5 8t-3.5 19l7 35q-18 -13 -44 -26t-56 -24t-62 -18t-64 -8zM271 45q26 1 54.5 8.5t54.5 18t47 22.5t33 21l23 108q-23 14 -54.5 19.5t-67.5 5.5q-81 0 -132.5 -25t-63.5 -77q-14 -56 16 -79.5t90 -21.5z" />
    <glyph glyph-name="b" unicode="b" horiz-adv-x="610" 
d="M321 -12q-66 0 -110 25.5t-65 72.5l-12 -59q-3 -11 -12.5 -19t-20.5 -8h-17q-11 0 -17.5 8t-3.5 19l137 646q2 11 11.5 19t21.5 8h34q11 0 17 -8t4 -19l-51 -242q36 38 85.5 59.5t110.5 21.5q53 0 93 -19t64.5 -53.5t32 -83t-4.5 -106.5t-40 -106t-67.5 -82.5t-88 -54
t-101.5 -19.5zM315 61q39 0 74 13.5t63 38.5t48 59.5t29 77.5q18 86 -18.5 137.5t-115.5 51.5q-57 0 -102 -24.5t-74 -68.5l-41 -191q11 -45 45.5 -69.5t91.5 -24.5z" />
    <glyph glyph-name="c" unicode="c" horiz-adv-x="549" 
d="M319 -13q-64 0 -111 19.5t-75.5 54.5t-37.5 83.5t3 105.5q12 56 41 104t72.5 83.5t99.5 55.5t120 20q56 -1 95.5 -16.5t67.5 -40.5q7 -7 6 -17.5t-10 -18.5l-16 -16q-10 -9 -20.5 -10.5t-18.5 6.5q-22 20 -50.5 30.5t-68.5 10.5q-43 0 -81 -15t-68 -41t-50.5 -61
t-29.5 -74q-8 -39 -2 -74t25 -61t50.5 -41t74.5 -15q40 0 73 10.5t63 30.5q11 8 21.5 7t15.5 -11l9 -15q5 -8 4 -17.5t-9 -15.5q-40 -27 -87 -43.5t-106 -17.5z" />
    <glyph glyph-name="d" unicode="d" horiz-adv-x="610" 
d="M283 -12q-52 0 -92.5 19.5t-65 54t-32 82.5t4.5 106t40.5 106.5t67.5 83t87.5 53.5t101.5 19q60 0 100.5 -21.5t61.5 -59.5l51 242q2 11 11.5 19t21.5 8h34q11 0 17 -8t4 -19l-137 -646q-3 -11 -12.5 -19t-20.5 -8h-17q-11 0 -17.5 8t-3.5 19l12 59q-40 -46 -95 -72
t-122 -26zM321 61q57 0 102 24.5t75 69.5l41 191q-12 44 -46 68.5t-92 24.5q-39 0 -74 -13.5t-63 -38t-48 -59.5t-29 -78q-18 -86 18.5 -137.5t115.5 -51.5z" />
    <glyph glyph-name="e" unicode="e" horiz-adv-x="617" 
d="M316 -13q-62 0 -108.5 20t-74.5 55.5t-37.5 83.5t2.5 104t41.5 104t72.5 83.5t98 55.5t118 20q57 0 97.5 -16t66 -45t36.5 -68.5t7 -87.5l-2 -8q-2 -11 -11.5 -19t-21.5 -8h-407l-3.5 -17.5t-2.5 -17.5q-5 -37 3.5 -69t29 -55.5t51.5 -37t72 -13.5q40 0 80 11.5t74 32.5
q11 7 20.5 5.5t14.5 -9.5l6 -9q5 -8 3.5 -18t-9.5 -15q-43 -29 -99 -45.5t-117 -16.5zM549 329q-4 55 -35.5 89.5t-98.5 34.5q-65 0 -117.5 -34.5t-83.5 -89.5h335z" />
    <glyph glyph-name="f" unicode="f" horiz-adv-x="372" 
d="M95 0q-11 0 -17.5 8t-3.5 19l85 403h-21q-11 0 -17 8t-4 19l4 16q2 11 10.5 19t18.5 8h24l8 38q11 52 30.5 86.5t46 55.5t60 30t73.5 9q22 0 44.5 -3.5t44.5 -9.5q17 -5 13 -24l-4 -19q-3 -15 -15.5 -20.5t-26.5 -2.5q-27 6 -54 6q-23 0 -42 -4.5t-35 -17t-27.5 -34.5
t-19.5 -57l-7 -33h106q12 0 18 -8t4 -19l-4 -16q-2 -11 -11.5 -19t-21.5 -8h-106l-85 -403q-3 -11 -12.5 -19t-20.5 -8h-35z" />
    <glyph glyph-name="g" unicode="g" horiz-adv-x="626" 
d="M193 -293q-95 -1 -140 38t-33 105q7 38 32 72t64 55q-59 18 -51 76q5 33 33.5 62t66.5 58q-66 51 -46 148q19 87 94 138.5t194 53.5h17t17 -1l206 23q13 2 21.5 -2t3.5 -24v-3q-4 -19 -13 -23t-20 -4h-83q48 -21 68.5 -61t8.5 -97q-19 -88 -95 -140.5t-203 -52.5
q-81 0 -130 24q-26 -16 -49 -35t-25 -41q-2 -18 10 -25.5t34 -9t52.5 1t64.5 5.5q29 2 59 5.5t59 4.5q97 2 138.5 -40.5t23.5 -116.5q-12 -53 -50 -90t-91 -60.5t-115 -34t-123 -9.5zM347 185q81 0 134.5 36.5t66.5 99.5q14 63 -24 99t-119 36t-133.5 -36t-66.5 -99
q-13 -63 24.5 -99.5t117.5 -36.5zM222 -236q54 -2 102 4t85.5 21t62.5 38.5t34 57.5q12 46 -19 71.5t-97 23.5q-19 0 -47.5 -2.5t-58 -5.5t-54.5 -5t-37 -2q-31 -13 -53.5 -40.5t-28.5 -60.5q-8 -44 20.5 -71t90.5 -29z" />
    <glyph glyph-name="h" unicode="h" horiz-adv-x="603" 
d="M84 0q-11 0 -17.5 8t-3.5 19l137 646q2 11 11.5 19t21.5 8h34q11 0 17 -8t4 -19l-58 -273q55 59 122.5 87t132.5 26q49 -1 79 -15t44.5 -40t15.5 -63t-9 -85l-60 -283q-3 -11 -12.5 -19t-20.5 -8h-35q-11 0 -17.5 8t-3.5 19l54 253q16 76 -3 117t-94 41q-58 1 -115 -29
t-93 -81l-64 -301q-3 -11 -12.5 -19t-20.5 -8h-34z" />
    <glyph glyph-name="i" unicode="i" horiz-adv-x="201" 
d="M222 568q-25 0 -38.5 17t-8.5 43q6 24 26.5 41t45.5 17t38.5 -17t7.5 -41q-5 -26 -25.5 -43t-45.5 -17zM84 0q-11 0 -17.5 8t-3.5 19l95 446q2 11 11.5 19t20.5 8h34q12 0 18 -8t4 -19l-95 -446q-3 -11 -12.5 -19t-20.5 -8h-34z" />
    <glyph glyph-name="j" unicode="j" horiz-adv-x="198" 
d="M222 568q-25 0 -38.5 17t-8.5 43q6 24 26.5 41t45.5 17t38.5 -17t7.5 -41q-5 -26 -25.5 -43t-45.5 -17zM-54 -259q-11 0 -16.5 7.5t-3.5 18.5l5 19q2 11 10 17.5t19 8.5q39 6 54.5 32.5t24.5 71.5l119 557q2 11 11.5 19t20.5 8h34q12 0 18 -8t4 -19l-120 -561
q-17 -81 -57.5 -126.5t-122.5 -44.5z" />
    <glyph glyph-name="k" unicode="k" horiz-adv-x="538" 
d="M84 0q-11 0 -17.5 8t-3.5 19l137 646q2 11 11.5 19t21.5 8h34q11 0 17 -8t4 -19l-80 -375h67l258 196q9 6 15 6h41q18 0 17.5 -14.5t-13.5 -24.5l-260 -205l168 -213q9 -11 2 -27t-34 -16h-32q-9 0 -14 6l-166 205h-67l-39 -184q-3 -11 -12.5 -19t-20.5 -8h-34z" />
    <glyph glyph-name="l" unicode="l" horiz-adv-x="201" 
d="M84 0q-11 0 -17.5 8t-3.5 19l137 646q2 11 11.5 19t21.5 8h34q11 0 17 -8t4 -19l-137 -646q-3 -11 -12.5 -19t-20.5 -8h-34z" />
    <glyph glyph-name="m" unicode="m" horiz-adv-x="880" 
d="M84 0q-11 0 -17.5 8t-3.5 19l95 446q2 11 11.5 19t20.5 8h26q12 0 18 -8t4 -19l-18 -84q53 64 112.5 95t119.5 29q113 -1 113 -118q51 60 109.5 90t116.5 28q73 -2 98 -47.5t5 -142.5l-63 -296q-3 -11 -12.5 -19t-20.5 -8h-35q-11 0 -17.5 8t-3.5 19l57 268
q16 76 -2 109.5t-68 33.5q-47 1 -94 -29t-81 -81q-1 -19 -6 -42l-55 -259q-3 -11 -12.5 -19t-20.5 -8h-36q-11 0 -17.5 8t-3.5 19l57 268q16 76 -2 109.5t-68 33.5q-47 1 -94.5 -29t-80.5 -81l-64 -301q-3 -11 -12.5 -19t-20.5 -8h-34z" />
    <glyph glyph-name="n" unicode="n" horiz-adv-x="610" 
d="M90 0q-11 0 -17.5 8t-3.5 19l95 446q2 11 11.5 19t20.5 8h26q12 0 18 -8t4 -19l-18 -84q57 65 128 95.5t138 28.5q49 -1 79 -15t44.5 -40t15.5 -63t-9 -85l-60 -283q-3 -11 -12.5 -19t-20.5 -8h-36q-11 0 -17.5 8t-3.5 19l54 253q8 38 8 67.5t-10.5 49.5t-33.5 30.5
t-61 10.5q-58 1 -114.5 -29t-93.5 -81l-64 -301q-3 -11 -12.5 -19t-20.5 -8h-34z" />
    <glyph glyph-name="o" unicode="o" horiz-adv-x="634" 
d="M314 -13q-65 0 -111.5 20t-73.5 55.5t-35 83.5t4 104t40 104t70 83.5t97 55.5t121 20t112.5 -20t73.5 -55.5t35 -83.5t-4 -104t-40 -104t-70.5 -83.5t-97.5 -55.5t-121 -20zM330 61q44 0 81.5 14.5t66 40t48.5 60t28 74.5q9 40 4 74.5t-23.5 60t-49.5 40t-75 14.5
t-81 -14.5t-65.5 -40t-48 -60t-28.5 -74.5q-8 -40 -3.5 -74.5t22.5 -60t49 -40t75 -14.5z" />
    <glyph glyph-name="p" unicode="p" horiz-adv-x="610" 
d="M31 -250q-11 0 -17.5 8t-3.5 19l148 696q2 11 11.5 19t20.5 8h17q12 0 18 -8t4 -19l-13 -59q40 47 95 72.5t122 25.5q53 0 93 -19t64.5 -53.5t32 -83t-4.5 -106.5t-40 -106t-67.5 -82.5t-88 -54t-101.5 -19.5q-60 0 -100.5 21.5t-60.5 59.5l-62 -292q-3 -11 -12.5 -19
t-20.5 -8h-34zM315 61q39 0 74 13.5t63 38.5t48 59.5t29 77.5q18 86 -18.5 137.5t-115.5 51.5q-57 0 -102 -24.5t-74 -68.5l-41 -191q11 -45 45.5 -69.5t91.5 -24.5z" />
    <glyph glyph-name="q" unicode="q" horiz-adv-x="610" 
d="M439 -250q-11 0 -17.5 8t-3.5 19l62 292q-37 -38 -86.5 -59.5t-110.5 -21.5q-52 0 -92.5 19.5t-65 54t-32 82.5t4.5 106t40.5 106.5t67.5 83t87.5 53.5t101.5 19q66 0 110.5 -25.5t64.5 -72.5l13 59q2 11 11.5 19t20.5 8h17q12 0 18 -8t4 -19l-148 -696q-3 -11 -12.5 -19
t-20.5 -8h-34zM321 61q57 0 102 24.5t75 69.5l41 191q-12 44 -46 68.5t-92 24.5q-39 0 -74 -13.5t-63 -38t-48 -59.5t-29 -78q-18 -86 18.5 -137.5t115.5 -51.5z" />
    <glyph glyph-name="r" unicode="r" horiz-adv-x="386" 
d="M84 0q-11 0 -17.5 8t-3.5 19l95 446q2 11 11.5 19t20.5 8h26q12 0 18 -8t4 -19l-20 -91q51 57 106 86.5t111 35.5q12 1 18.5 -7t3.5 -20l-6 -28q-2 -12 -12 -19.5t-22 -7.5q-69 2 -120 -27t-84 -77l-62 -291q-3 -11 -12.5 -19t-20.5 -8h-34z" />
    <glyph glyph-name="s" unicode="s" horiz-adv-x="523" 
d="M261 -13q-56 0 -108 13.5t-88 42.5q-8 6 -6.5 17t10.5 20l15 15q9 9 20 10t19 -6q30 -24 71 -35.5t81 -11.5q27 0 52 4.5t45 14.5t34 25t18 36q6 28 -15.5 44.5t-56.5 28.5t-77 23t-76 28t-53.5 43.5t-9.5 70.5q6 32 26 58.5t50.5 45t70 29t84.5 10.5q113 0 176 -57
q7 -8 5.5 -18.5t-10.5 -18.5l-15 -15q-10 -10 -21 -10.5t-19 7.5q-23 23 -53.5 35t-74.5 12q-50 0 -87.5 -23.5t-44.5 -57.5q-6 -29 15.5 -46.5t56.5 -30t76.5 -24t76 -28.5t54 -42.5t10.5 -67.5q-8 -38 -31 -65t-56.5 -44t-75.5 -24.5t-88 -7.5z" />
    <glyph glyph-name="t" unicode="t" horiz-adv-x="377" 
d="M239 -12q-88 0 -124.5 43t-14.5 148l53 251h-15q-11 0 -17 8t-4 19l4 16q2 11 9.5 19t16.5 8h21l20 93q2 11 11.5 19t21.5 8h35q11 0 17 -8t4 -19l-20 -93h129q12 0 18 -8t4 -19l-4 -16q-2 -11 -11.5 -19t-21.5 -8h-129l-52 -245q-15 -72 8 -99t83 -27q8 0 15.5 0.5
t14.5 1.5q16 2 25.5 -2t6.5 -18l-4 -19q-4 -19 -23 -24t-38.5 -7.5t-38.5 -2.5z" />
    <glyph glyph-name="u" unicode="u" horiz-adv-x="603" 
d="M224 -13q-48 1 -78 15t-44.5 40t-15.5 63t9 85l61 283q2 11 11.5 19t20.5 8h35q12 0 18 -8t4 -19l-54 -253q-16 -76 2.5 -117t92.5 -41q58 -1 115.5 29t94.5 81l64 301q2 11 11.5 19t20.5 8h34q12 0 18 -8t4 -19l-95 -446q-3 -11 -12.5 -19t-20.5 -8h-26q-11 0 -17.5 8
t-3.5 19l18 84q-58 -66 -128.5 -96t-138.5 -28z" />
    <glyph glyph-name="v" unicode="v" horiz-adv-x="616" 
d="M281 0q-14 0 -18 14l-109 442q-4 17 8 30.5t30 13.5h33q14 0 18 -14l88 -380l246 380q10 14 24 14h36q18 0 24 -13.5t-5 -30.5l-297 -442q-10 -14 -24 -14h-54z" />
    <glyph glyph-name="w" unicode="w" horiz-adv-x="901" 
d="M261 0q-15 0 -19 15l-90 443q-3 16 8.5 29t28.5 13h36q16 0 19 -15l70 -374l199 372q4 8 11.5 12.5t14.5 4.5h34q8 0 13.5 -4.5t6.5 -12.5l42 -372l227 374q9 15 25 15h37q18 0 23.5 -13t-4.5 -30l-280 -442q-10 -15 -25 -15h-47q-8 0 -13.5 4.5t-5.5 12.5l-42 360
l-192 -360q-4 -8 -11.5 -12.5t-15.5 -4.5h-50z" />
    <glyph glyph-name="x" unicode="x" horiz-adv-x="626" 
d="M129 0q-16 0 -24 5.5t-9 13.5t4 18.5t14 19.5l197 193l-115 193q-11 19 -1 38t37 19h25q12 0 17 -8l105 -180l183 180q8 8 19 8h21q32 0 33.5 -19t-17.5 -38l-197 -193l115 -193q11 -19 2 -38t-41 -19h-22q-12 0 -16 8l-105 184l-183 -184q-8 -8 -20 -8h-22z" />
    <glyph glyph-name="y" unicode="y" horiz-adv-x="608" 
d="M58 -241q-12 -1 -17.5 7t-3.5 19l5 24q3 11 12 18t21 8q44 3 84 26t67 64l48 74l-125 456q-5 17 7 31t30 14h34q16 0 19 -13l99 -381l233 379q9 15 25 15h36q18 0 24 -13t-5 -29l-332 -531q-52 -86 -113.5 -126.5t-147.5 -41.5z" />
    <glyph glyph-name="z" unicode="z" horiz-adv-x="564" 
d="M84 0q-11 0 -17.5 8t-3.5 19l9 43q2 9 9 15l401 339h-308q-11 0 -17.5 8t-3.5 19l5 22q2 11 11.5 19t20.5 8h397q12 0 18 -8t4 -19l-9 -42q-2 -9 -10 -15l-400 -340h307q11 0 17.5 -8t3.5 -19l-4 -22q-3 -11 -12.5 -19t-20.5 -8h-397z" />
    <glyph glyph-name="braceleft" unicode="{" horiz-adv-x="329" 
d="M222 -148q-35 0 -56 11t-32 28t-13 39t3 45q16 75 34.5 147.5t30.5 147.5q4 17 -4.5 31t-25.5 25q-11 7 -11 9l1 2q26 11 44.5 26t23.5 38q20 77 33 153t29 153q5 22 16 44t29 40t43.5 29.5t59.5 11.5h5q11 0 17.5 -7t4.5 -18l-1 -3q-2 -10 -10 -16.5t-18 -8.5
q-29 -6 -43 -25t-19 -43q-16 -77 -31 -151.5t-33 -150.5q-12 -48 -62 -75q20 -13 27.5 -32t2.5 -41q-12 -72 -28.5 -143t-31.5 -143q-6 -25 -1.5 -44.5t32.5 -24.5q10 -2 15.5 -8.5t2.5 -17.5v-1q-2 -11 -11.5 -19t-20.5 -8h-2z" />
    <glyph glyph-name="bar" unicode="|" horiz-adv-x="211" 
d="M61 -203q-11 0 -17.5 8t-3.5 19l180 849q2 11 11.5 19t21.5 8h34q11 0 17 -8t4 -19l-180 -849q-3 -11 -12.5 -19t-20.5 -8h-34z" />
    <glyph glyph-name="braceright" unicode="}" horiz-adv-x="329" 
d="M61 -148q-6 0 -9 7.5t-1 18.5v2q3 11 11 17.5t19 8.5q30 5 42.5 24.5t18.5 44.5q15 72 28.5 143t30.5 143q7 22 22.5 41t41.5 32q-40 26 -31 75q14 76 30.5 150.5t32.5 151.5q5 24 0 43t-30 25q-11 2 -16 8.5t-3 16.5v1q3 11 12.5 19t20.5 8h5q34 0 54.5 -11.5
t31.5 -29.5t12.5 -40t-3.5 -44q-16 -77 -35 -153t-33 -153q-4 -20 5 -33.5t24 -24.5q12 -6 11 -8v-3q-25 -10 -44 -26t-24 -36q-19 -75 -31 -147.5t-28 -147.5q-5 -23 -16 -45t-29.5 -39t-45 -28t-60.5 -11h-14z" />
    <glyph glyph-name="asciitilde" unicode="~" horiz-adv-x="676" 
d="M670 315q-37 -14 -72.5 -16.5t-68.5 1t-64 12t-58 16.5q-54 16 -105 23.5t-101 -10.5q-12 -5 -21 -1.5t-12 14.5l-3 13q-2 10 3 19.5t16 14.5q35 15 69.5 18.5t66.5 0t62.5 -11t57.5 -15.5q56 -17 109.5 -26t107.5 10q12 5 21.5 1t11.5 -15l4 -12q2 -11 -4.5 -21
t-19.5 -15z" />
    <glyph glyph-name="exclamdown" unicode="&#xa1;" horiz-adv-x="237" 
d="M218 396q-24 0 -37 17t-8 40q5 24 25 40.5t44 16.5t37 -16.5t8 -40.5q-5 -23 -25 -40t-44 -17zM73 -201q-11 0 -16.5 8t-3.5 19l114 485q3 11 12 18.5t21 7.5h10q11 0 17.5 -7.5t3.5 -18.5l-91 -485q-2 -11 -11 -19t-21 -8h-35z" />
    <glyph glyph-name="cent" unicode="&#xa2;" horiz-adv-x="630" 
d="M332 -65q-7 0 -10.5 8t-1.5 19l7 35q-51 4 -92 26.5t-67.5 58.5t-36 83.5t2.5 101.5q11 54 40.5 101.5t71.5 83.5t92.5 58.5t103.5 26.5l16 73q2 11 9 19t14 8q8 0 11.5 -8t1.5 -19l-16 -72q62 -4 108.5 -33.5t71.5 -78.5q4 -10 -1.5 -21t-17.5 -17l-17 -9
q-11 -5 -19.5 -2.5t-13.5 11.5q-17 33 -49.5 54t-76.5 24l-84 -396q46 2 88.5 23.5t74.5 56.5q8 9 18 11.5t19 -3.5l12 -8q9 -6 10 -16.5t-8 -21.5q-46 -49 -106 -80.5t-124 -34.5l-7 -35q-2 -11 -9 -19t-15 -8zM426 463q-38 -3 -73.5 -19.5t-65 -43t-50 -61t-28.5 -72.5
t-2 -72.5t24 -60.5t46.5 -43t65.5 -20z" />
    <glyph glyph-name="sterling" unicode="&#xa3;" horiz-adv-x="685" 
d="M196 0q-11 0 -18 4.5t-6 11.5l3 10q0 4 5 10q32 44 49.5 80.5t25.5 71.5q8 36 6.5 68t-3.5 64h-86q-11 0 -17.5 8t-3.5 19q2 11 11.5 19t20.5 8h72q-2 23 -2 46t3 47q9 59 37.5 105t69.5 77.5t91.5 47.5t103.5 16q93 0 143.5 -44t51.5 -112q1 -14 -15 -24l-17 -10
q-16 -10 -28 -4t-15 23q-6 43 -40 69.5t-89 26.5q-35 0 -68.5 -11.5t-60.5 -33.5t-46 -54.5t-25 -74.5q-4 -23 -5 -45t-1 -45h184q12 0 18 -8t4 -19q-3 -11 -12.5 -19t-20.5 -8h-183q1 -29 -1 -60t-13 -65q-9 -29 -27 -59.5t-48 -65.5h335q15 0 21 -10.5t-1 -24.5l-7 -17
q-4 -9 -12 -13.5t-16 -4.5h-368z" />
    <glyph glyph-name="currency" unicode="&#xa4;" horiz-adv-x="675" 
d="M353 0q-47 0 -84.5 16t-65.5 42l-54 -43q-22 -18 -36 0l-7 9q-6 8 -4 19t12 19l52 43q-21 33 -27 74t4 88q10 48 33.5 89t58.5 73l-34 44q-7 8 -4.5 19t12.5 19l11 9q9 8 20 8.5t18 -7.5l34 -44q40 28 84 43t91 15t85 -15t64 -43l53 43q10 8 20.5 8t17.5 -8l7 -10
q6 -8 4 -18.5t-11 -18.5l-53 -44q20 -32 27 -73t-3 -89q-10 -47 -34.5 -88t-58.5 -74l33 -43q7 -8 4.5 -19t-12.5 -19l-12 -9q-22 -18 -36 0l-35 43q-38 -26 -82.5 -42t-91.5 -16zM369 75q40 0 78 15t69.5 41.5t54 61.5t31.5 74q8 41 0.5 76t-28 61t-52 41t-71.5 15
t-78.5 -15t-70 -41t-54 -61t-30.5 -76q-9 -39 -1.5 -74t28 -61.5t52.5 -41.5t72 -15z" />
    <glyph glyph-name="yen" unicode="&#xa5;" horiz-adv-x="749" 
d="M372 0q-11 0 -17.5 8t-3.5 19l44 208h-150q-11 0 -18.5 2.5t-3.5 19.5q3 17 11.5 19t19.5 2h150l7 34l-20 45h-120q-11 0 -18.5 2t-4.5 19q4 17 12 19t20 2h92l-120 248q-9 18 0 35.5t27 17.5h40q12 0 17 -10l139 -292l263 292q8 10 21 10h28q22 0 27.5 -17.5
t-10.5 -35.5l-226 -248h91q11 0 18.5 -2t3.5 -19q-3 -17 -11.5 -19t-19.5 -2h-119l-40 -45l-7 -34h149q11 0 18.5 -2t4.5 -19q-4 -17 -12.5 -19.5t-19.5 -2.5h-149l-44 -208q-3 -11 -12.5 -19t-20.5 -8h-36z" />
    <glyph glyph-name="brokenbar" unicode="&#xa6;" horiz-adv-x="211" 
d="M166 290q-12 0 -18 8t-4 19l76 356q2 11 11.5 19t21.5 8h34q11 0 17 -8t4 -19l-76 -356q-2 -11 -11.5 -19t-20.5 -8h-34zM61 -203q-11 0 -17.5 8t-3.5 19l75 353q2 11 11.5 19t20.5 8h34q12 0 18 -8t4 -19l-75 -353q-3 -11 -12.5 -19t-20.5 -8h-34z" />
    <glyph glyph-name="section" unicode="&#xa7;" horiz-adv-x="538" 
d="M278 -25q-57 0 -97 20t-59 58q-5 12 4 24t24 16l23 5q17 4 25 -12q10 -25 35 -39t58 -14q51 0 84 25.5t41 62.5q6 29 -3.5 47t-30 30.5t-47.5 21t-55 18.5q-26 10 -50.5 20.5t-43 25t-27.5 33.5t-5 46q7 47 65 91q-19 31 -8 81q7 33 27 60.5t49 47t65.5 30t77.5 10.5
q56 0 96 -20t59 -58q5 -12 -4 -24t-24 -16l-23 -5q-18 -5 -25 13q-10 25 -34.5 39t-57.5 14q-51 0 -84.5 -26t-41.5 -63q-6 -29 3.5 -47t30 -30t47.5 -21t55 -19q26 -10 50.5 -20.5t43 -24.5t28 -33t5.5 -46q-10 -49 -64 -91q8 -16 10 -36t-4 -45q-7 -33 -27 -60.5t-49 -47
t-65.5 -30.5t-76.5 -11zM469 224q27 31 33 53q4 17 -3 29.5t-22 22t-36 17.5t-45 15q-23 6 -45.5 13t-43.5 15t-39 19t-30 26q-27 -31 -32 -52q-4 -16 3 -29t21.5 -23t36 -18t45.5 -15q22 -6 45 -13t44 -15t38.5 -19t29.5 -26z" />
    <glyph glyph-name="dieresis" unicode="&#xa8;" horiz-adv-x="472" 
d="M303 750q-28 0 -43 19.5t-9 47.5q5 27 28.5 46.5t52.5 19.5q28 0 43 -19.5t10 -46.5q-6 -28 -30 -47.5t-52 -19.5zM517 750q-28 0 -43 19.5t-9 47.5q5 27 29 46.5t52 19.5t43.5 -19.5t10.5 -46.5q-6 -28 -30 -47.5t-53 -19.5z" />
    <glyph glyph-name="copyright" unicode="&#xa9;" horiz-adv-x="878" 
d="M448 -27q-78 0 -140.5 29.5t-102.5 80.5t-55 120t1 147q17 78 61 147t106 120t137 80.5t154 29.5q78 0 140.5 -29.5t102.5 -80.5t55 -120t-2 -147q-16 -78 -60.5 -147t-106 -120t-136.5 -80.5t-154 -29.5zM459 22q68 0 133 26t119 70.5t92.5 104t52.5 127.5
q15 68 2 127.5t-48.5 104t-89.5 70.5t-122 26t-133.5 -26t-119.5 -70.5t-92.5 -104t-53.5 -127.5q-14 -68 -1 -127.5t48.5 -104t90 -70.5t122.5 -26zM490 146q-43 0 -77 16t-55.5 43.5t-30 65t0.5 79.5t33 79.5t57.5 65t74.5 43.5t84 16q47 0 83 -20t58 -55
q5 -10 -0.5 -21.5t-16.5 -17.5l-8 -4q-10 -5 -19 -3.5t-14 9.5q-15 23 -39.5 36.5t-56.5 13.5q-30 0 -58.5 -11t-52 -30t-40 -45t-23.5 -56q-6 -30 -0.5 -56t21 -45t39 -30t53.5 -11q32 0 63 14t56 38q9 8 19 10.5t18 -3.5l7 -5q9 -7 9.5 -17.5t-8.5 -19.5q-37 -37 -83 -58
t-94 -21z" />
    <glyph glyph-name="guillemotleft" unicode="&#xab;" horiz-adv-x="797" 
d="M394 8q-9 0 -14 6l-221 281q-7 8 -4.5 19t12.5 19l337 278q7 6 16 6h10q14 0 22 -6.5t10 -16t-2.5 -20.5t-15.5 -21l-290 -239l190 -242q8 -10 7.5 -21t-6.5 -20.5t-17 -16t-24 -6.5h-10zM651 8q-9 0 -14 6l-222 281q-7 8 -4.5 19t12.5 19l338 278q7 6 16 6h11
q14 0 22 -6.5t10 -16t-2.5 -20.5t-15.5 -21l-291 -239l190 -242q8 -10 7.5 -21t-6.5 -20.5t-17 -16t-24 -6.5h-10z" />
    <glyph glyph-name="logicalnot" unicode="&#xac;" horiz-adv-x="676" 
d="M624 170q-11 0 -17.5 8t-3.5 19l27 126h-457q-12 0 -18 8t-4 19l3 14q3 11 12.5 19t20.5 8h498q11 0 17.5 -8t3.5 -19l-35 -167q-3 -11 -12.5 -19t-20.5 -8h-14z" />
    <glyph glyph-name="registered" unicode="&#xae;" horiz-adv-x="657" 
d="M426 385q-56 0 -100 21t-72.5 57.5t-39 85.5t1.5 104q12 56 43 104.5t75 84.5t97 57t109 21q55 0 99 -21t72.5 -57t39.5 -84.5t-1 -104.5q-12 -55 -43.5 -104t-75 -85.5t-97 -57.5t-108.5 -21zM433 417q49 0 96 18.5t86 50t66.5 75t38.5 92.5q10 50 1 93t-34.5 75
t-64.5 50.5t-89 18.5q-49 0 -96 -18.5t-86 -50.5t-66.5 -75t-37.5 -93q-11 -49 -1.5 -92.5t34.5 -75t64 -50t89 -18.5zM374 513q-7 0 -10.5 8t-0.5 19l50 235q2 11 11.5 19t20.5 8h94q43 1 65.5 -22.5t13.5 -62.5q-6 -30 -27 -51t-51 -29l27 -75q7 -17 6.5 -33t-7.5 -16h-6
q-14 0 -17 12l-39 107h-88l-19 -92q-3 -11 -9 -19t-14 -8zM423 665h99q23 0 40 15t21 37q5 23 -7.5 37.5t-37.5 13.5h-93z" />
    <glyph glyph-name="macron" unicode="&#xaf;" horiz-adv-x="446" 
d="M266 764q-11 0 -17 8t-4 19l3 14q3 11 12.5 19t20.5 8h269q11 0 17.5 -8t3.5 -19l-3 -14q-2 -11 -11.5 -19t-21.5 -8h-269z" />
    <glyph glyph-name="degree" unicode="&#xb0;" horiz-adv-x="449" 
d="M349 513q-34 0 -61 13t-44 35t-23.5 52t0.5 64t26 63.5t46 52t59.5 35.5t66.5 13t60.5 -13t44 -35.5t24 -52t-0.5 -63.5t-26.5 -64t-46 -52t-59 -35t-66.5 -13zM363 579q20 0 39.5 7.5t35.5 21t28 31.5t16 38q9 41 -14 69.5t-63 28.5q-21 0 -40.5 -7.5t-35.5 -21
t-28 -31.5t-16 -38q-9 -41 14 -69.5t64 -28.5z" />
    <glyph glyph-name="plusminus" unicode="&#xb1;" horiz-adv-x="495" 
d="M303 225q-11 0 -17.5 8t-3.5 19l26 126h-124q-11 0 -17 8t-4 19l3 14q2 11 11.5 19t21.5 8h124l26 124q3 11 12.5 19t20.5 8h15q11 0 17.5 -8t3.5 -19l-26 -124h125q11 0 17 -8t4 -19l-3 -14q-2 -11 -11.5 -19t-21.5 -8h-125l-26 -126q-3 -11 -12.5 -19t-20.5 -8h-15z
M127 108q-11 0 -17.5 8t-3.5 19l2 13q3 11 12.5 19t20.5 8h318q12 0 18 -8t3 -19l-2 -13q-3 -11 -12.5 -19t-20.5 -8h-318z" />
    <glyph glyph-name="acute" unicode="&#xb4;" horiz-adv-x="325" 
d="M274 758q-12 0 -17.5 7.5t4.5 18.5l94 116q9 11 23 11h47q17 0 19.5 -11.5t-17.5 -30.5l-101 -91q-12 -11 -20 -15.5t-32 -4.5z" />
    <glyph glyph-name="paragraph" unicode="&#xb6;" horiz-adv-x="608" 
d="M230 -200q-11 0 -17 8t-4 19l105 495q-55 0 -87 28t-42 70t0.5 91t38 91t72 70t102.5 28h52q11 0 17 -8t4 -19l-180 -846q-2 -11 -11.5 -19t-21.5 -8h-28zM457 -200q-11 0 -17 8t-4 19l180 846q2 11 11.5 19t21.5 8h35q11 0 17 -8t4 -19l-180 -846q-2 -11 -11.5 -19
t-21.5 -8h-35z" />
    <glyph glyph-name="periodcentered" unicode="&#xb7;" horiz-adv-x="254" 
d="M194 238q-28 0 -43 19.5t-9 46.5q5 27 28.5 46.5t51.5 19.5q26 0 41 -19.5t10 -46.5q-6 -27 -29.5 -46.5t-49.5 -19.5z" />
    <glyph glyph-name="cedilla" unicode="&#xb8;" horiz-adv-x="337" 
d="M118 -259q-39 0 -72 20q-8 5 -8.5 15t6.5 19l7 9q8 11 18.5 13t20.5 -3q17 -8 37 -10q28 0 48 12.5t26 36.5q5 20 -5.5 35t-33.5 20q-19 5 -26 17t5 29l27 35q9 12 23 12q18 0 25 -11t-4 -22l-32 -33q40 -2 62 -29t14 -67q-9 -43 -46.5 -70.5t-91.5 -27.5z" />
    <glyph glyph-name="guillemotright" unicode="&#xbb;" horiz-adv-x="797" 
d="M169 8q-14 0 -22 6.5t-10 16t2.5 20.5t16.5 21l293 242l-188 239q-8 10 -11 21t-2.5 20.5t5.5 16t13 6.5h46q9 0 14 -6l220 -278q6 -8 4 -19t-12 -19l-342 -281q-7 -6 -16 -6h-11zM426 8q-14 0 -22 6.5t-10 16t2 20.5t16 21l294 242l-188 239q-8 10 -11 21t-2.5 20.5
t5.5 16t13 6.5h46q9 0 14 -6l219 -278q6 -8 4 -19t-12 -19l-341 -281q-7 -6 -16 -6h-11z" />
    <glyph glyph-name="onequarter" unicode="&#xbc;" horiz-adv-x="932" 
d="M318 483q-12 0 -18 8t-4 19l88 414l-25 -20q-10 -8 -20.5 -8t-16.5 8l-1 1q-6 8 -4 19t12 19l64 51q8 6 17 6h17q11 0 17 -8t4 -19l-99 -463q-2 -11 -11 -19t-20 -8zM130 -162q-20 0 -20.5 14.5t17.5 36.5l788 932q3 5 10 8t29 3q20 0 21 -11t-10 -24l-799 -948
q-6 -8 -15 -9.5t-15 -1.5h-6zM706 -290q-11 0 -17 8t-4 19l32 150h-197q-11 0 -17.5 7.5t-3.5 18.5l4 20q0 3 2 7t5 6l268 273q7 9 19 9h18q12 0 18 -8t4 -19l-56 -262h11q11 0 17.5 -7.5t4.5 -18.5q-3 -11 -10 -18.5t-15 -7.5h-19l-32 -150q-2 -11 -11 -19t-21 -8zM566 -61
h162l44 206z" />
    <glyph glyph-name="onehalf" unicode="&#xbd;" horiz-adv-x="1013" 
d="M318 483q-12 0 -18 8t-4 19l88 414l-25 -20q-10 -8 -20.5 -8t-16.5 8l-1 1q-6 8 -4 19t12 19l64 51q8 6 17 6h17q11 0 17 -8t4 -19l-99 -463q-2 -11 -11 -19t-20 -8zM132 -162q-20 0 -20.5 14.5t17.5 36.5l788 932q3 5 10 8t29 3q20 0 21 -11t-10 -24l-799 -948
q-6 -8 -15 -9.5t-15 -1.5h-6zM524 -290q-11 0 -17 8t-4 19l6 26q8 33 29.5 58.5t50 46.5t62 39t65.5 35q65 35 109 68t53 79q7 36 -19 63.5t-86 27.5q-77 0 -119 -47q-8 -9 -17 -13t-18 1l-2 1q-10 5 -12.5 15t6.5 21q30 36 75.5 55.5t99.5 19.5q39 0 69.5 -11t49.5 -30.5
t26 -45.5t1 -56q-13 -67 -66 -111t-132 -83q-27 -14 -53 -28t-47.5 -30t-37.5 -34.5t-22 -40.5h262q11 0 17 -8t4 -19q-3 -11 -12 -18.5t-21 -7.5h-300z" />
    <glyph glyph-name="threequarters" unicode="&#xbe;" horiz-adv-x="1026" 
d="M383 479q-58 -1 -97 16.5t-57 50.5q-5 10 0.5 20.5t17.5 15.5l2 1q22 10 34 -9q25 -42 111 -42q66 0 107 29t53 82q8 42 -14 66.5t-72 24.5h-36q-11 0 -17.5 8t-3.5 19v1q2 11 8.5 19t13.5 8q46 0 79 26t40 59q8 37 -13 59.5t-66 22.5q-26 1 -48.5 -8.5t-39.5 -26.5
q-8 -8 -17.5 -11.5t-17.5 2.5l-3 2q-8 7 -10 17t7 20q27 27 63.5 42.5t77.5 14.5q69 0 102 -37t20 -97q-7 -30 -27.5 -56.5t-49.5 -43.5q46 -11 66.5 -45.5t10.5 -85.5q-17 -76 -77.5 -120.5t-146.5 -43.5zM223 -162q-20 0 -20.5 14.5t17.5 36.5l788 932q3 5 10 8t29 3
q20 0 21 -11t-10 -24l-799 -948q-6 -8 -15 -9.5t-15 -1.5h-6zM801 -290q-11 0 -17 8t-4 19l32 150h-197q-11 0 -17.5 7.5t-3.5 18.5l4 20q0 3 2 7t5 6l268 273q7 9 19 9h19q12 0 18 -8t4 -19l-56 -262h9q11 0 17.5 -7.5t4.5 -18.5q-3 -11 -9.5 -18.5t-14.5 -7.5h-18
l-32 -150q-2 -11 -11.5 -19t-21.5 -8zM662 -61h161l44 206z" />
    <glyph glyph-name="questiondown" unicode="&#xbf;" horiz-adv-x="579" 
d="M412 396q-23 0 -36.5 17t-8.5 40q5 24 25.5 40.5t43.5 16.5q25 0 38 -16.5t8 -40.5q-5 -23 -25.5 -40t-44.5 -17zM265 -214q-52 0 -92 14t-65.5 38.5t-35 58.5t-1.5 74q9 47 30.5 78t49.5 54t60 42t61.5 42t54.5 53.5t39 75.5q3 11 12 18t19 7h8q12 0 18 -8t3 -20
q-14 -49 -37.5 -82.5t-50.5 -57.5t-56 -42t-54.5 -38.5t-44.5 -46.5t-27 -64q-5 -26 0.5 -49t21.5 -40.5t41.5 -27.5t60.5 -10q47 0 88 20.5t66 55.5q14 20 33 15l22 -6q12 -3 16.5 -12t-1.5 -19q-37 -57 -100 -90t-139 -33z" />
    <glyph glyph-name="Agrave" unicode="&#xc0;" horiz-adv-x="721" 
d="M544 740q-23 0 -29.5 4.5t-13.5 15.5l-62 91q-13 19 -5.5 30.5t25.5 11.5h47q14 0 17 -11l46 -116q4 -11 -4.5 -18.5t-20.5 -7.5zM87 0q-17 0 -23 12t4 29l383 644q9 15 25 15h68q15 0 19 -15l109 -644q2 -17 -9 -29t-28 -12h-37q-15 0 -19 15l-32 192h-285l-114 -192
q-10 -15 -25 -15h-36zM309 286h226l-50 297z" />
    <glyph glyph-name="Aacute" unicode="&#xc1;" horiz-adv-x="721" 
d="M526 746q-13 0 -18 7.5t4 18.5l95 116q8 11 22 11h47q17 0 20 -11.5t-18 -30.5l-100 -91q-12 -11 -20.5 -15.5t-31.5 -4.5zM87 0q-17 0 -23 12t4 29l383 644q9 15 25 15h68q15 0 19 -15l109 -644q2 -17 -9 -29t-28 -12h-37q-15 0 -19 15l-32 192h-285l-114 -192
q-10 -15 -25 -15h-36zM309 286h226l-50 297z" />
    <glyph glyph-name="Acircumflex" unicode="&#xc2;" horiz-adv-x="721" 
d="M411 742q-18 0 -24 10.5t13 29.5l107 106q8 8 19 8h52q12 0 17 -8l63 -108q11 -19 -0.5 -28.5t-27.5 -9.5h-39q-14 0 -18 11l-33 83l-68 -83q-9 -11 -22 -11h-39zM87 0q-17 0 -23 12t4 29l383 644q9 15 25 15h68q15 0 19 -15l109 -644q2 -17 -9 -29t-28 -12h-37
q-15 0 -19 15l-32 192h-285l-114 -192q-10 -15 -25 -15h-36zM309 286h226l-50 297z" />
    <glyph glyph-name="Atilde" unicode="&#xc3;" horiz-adv-x="721" 
d="M514 761q-31 9 -58.5 16.5t-54.5 -6.5q-15 -8 -27 -8.5t-14 12.5l-5 17q-4 15 10 26q21 18 42.5 25t42.5 7t42 -4.5t40 -10.5q34 -10 63 -18t58 6q16 7 27.5 7.5t14.5 -13.5l4 -19q1 -15 -11 -25q-21 -17 -43.5 -23t-44.5 -5.5t-43.5 5.5t-42.5 11zM87 0q-17 0 -23 12
t4 29l383 644q9 15 25 15h68q15 0 19 -15l109 -644q2 -17 -9 -29t-28 -12h-37q-15 0 -19 15l-32 192h-285l-114 -192q-10 -15 -25 -15h-36zM309 286h226l-50 297z" />
    <glyph glyph-name="Adieresis" unicode="&#xc4;" horiz-adv-x="721" 
d="M409 740q-28 0 -43 19.5t-9 47.5q5 27 28.5 46.5t52.5 19.5q27 0 42.5 -19.5t10.5 -46.5q-6 -28 -30 -47.5t-52 -19.5zM623 740q-28 0 -43 19.5t-9 47.5q5 27 29 46.5t52 19.5t43.5 -19.5t10.5 -46.5q-6 -28 -30 -47.5t-53 -19.5zM87 0q-17 0 -23 12t4 29l383 644
q9 15 25 15h68q15 0 19 -15l109 -644q2 -17 -9 -29t-28 -12h-37q-15 0 -19 15l-32 192h-285l-114 -192q-10 -15 -25 -15h-36zM309 286h226l-50 297z" />
    <glyph glyph-name="Aring" unicode="&#xc5;" horiz-adv-x="721" 
d="M512 731q-23 0 -42 9t-31 24.5t-16.5 36t0.5 44.5t18 44.5t32 36.5t41.5 25t46.5 9t43 -9t31.5 -25t17 -36.5t-0.5 -44.5t-18.5 -45t-32.5 -36t-42 -24t-47 -9zM524 783q27 -1 49 17.5t28 44.5q5 26 -9 45t-41 19q-25 0 -47.5 -19t-27.5 -45q-6 -26 8.5 -44.5t39.5 -17.5
zM87 0q-17 0 -23 12t4 29l383 644q9 15 25 15h68q15 0 19 -15l109 -644q2 -17 -9 -29t-28 -12h-37q-15 0 -19 15l-32 192h-285l-114 -192q-10 -15 -25 -15h-36zM309 286h226l-50 297z" />
    <glyph glyph-name="AE" unicode="&#xc6;" horiz-adv-x="1045" 
d="M87 0q-17 0 -23.5 12t3.5 29l380 644q3 7 10.5 11t15.5 4h618q11 0 17 -8t4 -19l-5 -26q-3 -11 -12.5 -19t-20.5 -8h-403l-49 -231h278q11 0 17 -8t4 -19l-5 -24q-3 -11 -12.5 -19t-20.5 -8h-278l-49 -231h403q11 0 17.5 -8t3.5 -19l-5 -26q-3 -11 -12.5 -19t-20.5 -8
h-465q-11 0 -17.5 8t-3.5 19l50 236h-214l-144 -247q-3 -7 -10.5 -11.5t-15.5 -4.5h-35zM330 332h191l61 288h-85z" />
    <glyph glyph-name="Ccedilla" unicode="&#xc7;" horiz-adv-x="785" 
d="M737 146q7 -8 6.5 -17.5t-7.5 -17.5q-60 -54 -133 -86.5t-158 -36.5q5 -10 -4 -20l-32 -33q40 -2 62 -29t14 -67q-9 -43 -46.5 -70.5t-91.5 -27.5q-39 0 -72 20q-8 5 -8.5 15t6.5 19l7 9q8 11 18.5 13t20.5 -3q17 -8 37 -10q28 0 48 12.5t26 36.5q5 20 -5.5 35t-33.5 20
q-19 5 -26 17t5 29l27 35q-73 6 -129 36t-90.5 78t-46.5 111.5t3 135.5q17 76 58.5 142t101.5 115t134 77t154 28q89 0 152 -32t102 -89q5 -9 2 -19t-13 -18l-32 -23q-12 -8 -22 -6.5t-15 10.5q-29 43 -75.5 67t-116.5 24q-60 0 -115.5 -21.5t-101.5 -58.5t-78 -87.5
t-45 -108.5q-12 -58 -1 -108.5t40.5 -87.5t76.5 -58.5t107 -21.5q70 0 127 24t103 66q9 10 20 11t19 -7z" />
    <glyph glyph-name="Egrave" unicode="&#xc8;" horiz-adv-x="671" 
d="M542 742q-24 0 -30.5 4.5t-13.5 15.5l-62 91q-12 19 -4.5 30.5t24.5 11.5h47q14 0 18 -11l45 -116q5 -11 -3.5 -18.5t-20.5 -7.5zM103 0q-11 0 -17.5 8t-3.5 19l137 646q2 11 11.5 19t21.5 8h465q11 0 17 -8t4 -19l-5 -26q-3 -11 -12.5 -19t-20.5 -8h-404l-49 -229h291
q11 0 17.5 -8t3.5 -19l-5 -27q-3 -11 -12.5 -19t-20.5 -8h-291l-49 -230h404q11 0 17.5 -8t3.5 -19l-5 -26q-3 -11 -12.5 -19t-20.5 -8h-465z" />
    <glyph glyph-name="Eacute" unicode="&#xc9;" horiz-adv-x="671" 
d="M461 742q-12 0 -17.5 7.5t3.5 18.5l95 116q9 11 22 11h47q18 0 20.5 -11.5t-18.5 -30.5l-100 -91q-12 -11 -20.5 -15.5t-31.5 -4.5zM103 0q-11 0 -17.5 8t-3.5 19l137 646q2 11 11.5 19t21.5 8h465q11 0 17 -8t4 -19l-5 -26q-3 -11 -12.5 -19t-20.5 -8h-404l-49 -229h291
q11 0 17.5 -8t3.5 -19l-5 -27q-3 -11 -12.5 -19t-20.5 -8h-291l-49 -230h404q11 0 17.5 -8t3.5 -19l-5 -26q-3 -11 -12.5 -19t-20.5 -8h-465z" />
    <glyph glyph-name="Ecircumflex" unicode="&#xca;" horiz-adv-x="671" 
d="M390 744q-17 0 -23 10.5t13 29.5l106 106q8 8 20 8h52q11 0 16 -8l63 -108q11 -19 0 -28.5t-28 -9.5h-39q-14 0 -18 11l-33 83l-68 -83q-8 -11 -22 -11h-39zM103 0q-11 0 -17.5 8t-3.5 19l137 646q2 11 11.5 19t21.5 8h465q11 0 17 -8t4 -19l-5 -26q-3 -11 -12.5 -19
t-20.5 -8h-404l-49 -229h291q11 0 17.5 -8t3.5 -19l-5 -27q-3 -11 -12.5 -19t-20.5 -8h-291l-49 -230h404q11 0 17.5 -8t3.5 -19l-5 -26q-3 -11 -12.5 -19t-20.5 -8h-465z" />
    <glyph glyph-name="Edieresis" unicode="&#xcb;" horiz-adv-x="629" 
d="M391 746q-29 0 -44 19.5t-9 47.5q6 27 29 46.5t52 19.5q28 0 43.5 -19.5t9.5 -46.5q-6 -28 -30 -47.5t-51 -19.5zM605 746q-28 0 -43.5 19.5t-9.5 47.5q6 27 29.5 46.5t51.5 19.5q29 0 44.5 -19.5t9.5 -46.5q-6 -28 -30 -47.5t-52 -19.5zM103 0q-11 0 -17.5 8t-3.5 19
l137 646q2 11 11.5 19t21.5 8h465q11 0 17 -8t4 -19l-5 -26q-3 -11 -12.5 -19t-20.5 -8h-404l-49 -229h291q11 0 17.5 -8t3.5 -19l-5 -27q-3 -11 -12.5 -19t-20.5 -8h-291l-49 -230h404q11 0 17.5 -8t3.5 -19l-5 -26q-3 -11 -12.5 -19t-20.5 -8h-465z" />
    <glyph glyph-name="Igrave" unicode="&#xcc;" horiz-adv-x="240" 
d="M279 740q-23 0 -29.5 4.5t-13.5 15.5l-62 91q-13 19 -5.5 30.5t25.5 11.5h47q14 0 17 -11l46 -116q4 -11 -4.5 -18.5t-20.5 -7.5zM103 0q-11 0 -17.5 8t-3.5 19l137 646q2 11 11.5 19t21.5 8h34q11 0 17 -8t4 -19l-137 -646q-3 -11 -12.5 -19t-20.5 -8h-34z" />
    <glyph glyph-name="Iacute" unicode="&#xcd;" horiz-adv-x="240" 
d="M277 741q-13 0 -18 7.5t4 18.5l95 116q8 11 22 11h47q17 0 20 -11.5t-18 -30.5l-100 -91q-12 -11 -20.5 -15.5t-31.5 -4.5zM103 0q-11 0 -17.5 8t-3.5 19l137 646q2 11 11.5 19t21.5 8h34q11 0 17 -8t4 -19l-137 -646q-3 -11 -12.5 -19t-20.5 -8h-34z" />
    <glyph glyph-name="Icircumflex" unicode="&#xce;" horiz-adv-x="240" 
d="M190 741q-16 0 -21.5 10.5t12.5 29.5l100 106q8 8 17 8h48q11 0 16 -8l56 -108q9 -19 -1.5 -28.5t-25.5 -9.5h-36q-12 0 -16 11l-30 83l-63 -83q-7 -11 -20 -11h-36zM103 0q-11 0 -17.5 8t-3.5 19l137 646q2 11 11.5 19t21.5 8h34q11 0 17 -8t4 -19l-137 -646
q-3 -11 -12.5 -19t-20.5 -8h-34z" />
    <glyph glyph-name="Idieresis" unicode="&#xcf;" horiz-adv-x="240" 
d="M178 740q-28 0 -43 19.5t-9 47.5q5 27 28.5 46.5t52.5 19.5q27 0 42.5 -19.5t10.5 -46.5q-6 -28 -30 -47.5t-52 -19.5zM392 740q-28 0 -43 19.5t-9 47.5q5 27 29 46.5t52 19.5t43.5 -19.5t10.5 -46.5q-6 -28 -30 -47.5t-53 -19.5zM103 0q-11 0 -17.5 8t-3.5 19l137 646
q2 11 11.5 19t21.5 8h34q11 0 17 -8t4 -19l-137 -646q-3 -11 -12.5 -19t-20.5 -8h-34z" />
    <glyph glyph-name="Eth" unicode="&#xd0;" horiz-adv-x="766" 
d="M103 0q-11 0 -17.5 8t-3.5 19l61 289h-44q-11 0 -17 8t-4 19l3 14q2 11 11.5 19t21.5 8h44l61 289q2 11 11.5 19t21.5 8h236q82 0 144.5 -26.5t101 -73t51 -110.5t-3.5 -140t-56 -140t-98.5 -110.5t-131.5 -73t-156 -26.5h-236zM182 84h175q58 0 113 18.5t100 53t77 83.5
t45 111q14 62 2.5 111t-42 83.5t-77.5 53t-105 18.5h-175l-49 -232h52q11 0 17 -8t4 -19l-3 -14q-2 -11 -12 -19t-21 -8h-52z" />
    <glyph glyph-name="Ntilde" unicode="&#xd1;" horiz-adv-x="745" 
d="M541 761q-31 9 -58.5 16.5t-54.5 -6.5q-15 -8 -27 -8.5t-14 12.5l-5 17q-4 15 10 26q21 18 42.5 25t42.5 7t42 -4.5t40 -10.5q34 -10 63 -18t58 6q16 7 27.5 7.5t14.5 -13.5l4 -19q1 -15 -11 -25q-21 -17 -43.5 -23t-44.5 -5.5t-43.5 5.5t-42.5 11zM103 0q-11 0 -17.5 8
t-3.5 19l137 646q2 11 11.5 19t21.5 8h52q12 0 16 -9l290 -549l113 531q2 11 11.5 19t21.5 8h35q11 0 17 -8t4 -19l-137 -646q-3 -11 -12.5 -19t-20.5 -8h-52q-12 0 -16 9l-291 549l-113 -531q-3 -11 -12.5 -19t-20.5 -8h-34z" />
    <glyph glyph-name="Ograve" unicode="&#xd2;" horiz-adv-x="860" 
d="M627 747q-24 0 -30.5 4.5t-13.5 15.5l-62 91q-12 19 -4.5 30.5t24.5 11.5h47q14 0 18 -11l45 -116q5 -11 -3.5 -18.5t-20.5 -7.5zM427 -12q-79 0 -141 28t-101 77t-53 115t2 142q17 76 59 142t101.5 115t133.5 77t153 28q80 0 141.5 -28t101 -77t53.5 -115t-3 -142
q-16 -76 -58 -142t-102 -115t-133.5 -77t-153.5 -28zM446 74q59 0 114.5 21.5t101 58.5t78 87.5t44.5 108.5q13 58 2 108.5t-41 87.5t-76.5 58.5t-105.5 21.5t-114.5 -21.5t-101 -58.5t-78 -87.5t-45.5 -108.5q-12 -58 -1 -108.5t41 -87.5t76.5 -58.5t105.5 -21.5z" />
    <glyph glyph-name="Oacute" unicode="&#xd3;" horiz-adv-x="860" 
d="M564 744q-12 0 -17.5 7.5t4.5 18.5l94 116q9 11 23 11h47q17 0 19.5 -11.5t-17.5 -30.5l-101 -91q-12 -11 -20 -15.5t-32 -4.5zM427 -12q-79 0 -141 28t-101 77t-53 115t2 142q17 76 59 142t101.5 115t133.5 77t153 28q80 0 141.5 -28t101 -77t53.5 -115t-3 -142
q-16 -76 -58 -142t-102 -115t-133.5 -77t-153.5 -28zM446 74q59 0 114.5 21.5t101 58.5t78 87.5t44.5 108.5q13 58 2 108.5t-41 87.5t-76.5 58.5t-105.5 21.5t-114.5 -21.5t-101 -58.5t-78 -87.5t-45.5 -108.5q-12 -58 -1 -108.5t41 -87.5t76.5 -58.5t105.5 -21.5z" />
    <glyph glyph-name="Ocircumflex" unicode="&#xd4;" horiz-adv-x="860" 
d="M482 747q-18 0 -24 10.5t13 29.5l107 106q8 8 20 8h52q11 0 16 -8l63 -108q11 -19 -0.5 -28.5t-27.5 -9.5h-39q-14 0 -18 11l-33 83l-68 -83q-9 -11 -22 -11h-39zM427 -12q-79 0 -141 28t-101 77t-53 115t2 142q17 76 59 142t101.5 115t133.5 77t153 28q80 0 141.5 -28
t101 -77t53.5 -115t-3 -142q-16 -76 -58 -142t-102 -115t-133.5 -77t-153.5 -28zM446 74q59 0 114.5 21.5t101 58.5t78 87.5t44.5 108.5q13 58 2 108.5t-41 87.5t-76.5 58.5t-105.5 21.5t-114.5 -21.5t-101 -58.5t-78 -87.5t-45.5 -108.5q-12 -58 -1 -108.5t41 -87.5
t76.5 -58.5t105.5 -21.5z" />
    <glyph glyph-name="Otilde" unicode="&#xd5;" horiz-adv-x="860" 
d="M588 772q-30 9 -58 16.5t-55 -6.5q-15 -8 -26.5 -8.5t-14.5 12.5l-4 17q-5 15 9 26q22 18 43 25t42.5 7t42 -4.5t40.5 -10.5q33 -10 62.5 -18t57.5 6q16 7 28 7.5t14 -13.5l4 -19q2 -15 -10 -25q-22 -17 -44 -23t-44 -5.5t-44 5.5t-43 11zM427 -12q-79 0 -141 28t-101 77
t-53 115t2 142q17 76 59 142t101.5 115t133.5 77t153 28q80 0 141.5 -28t101 -77t53.5 -115t-3 -142q-16 -76 -58 -142t-102 -115t-133.5 -77t-153.5 -28zM446 74q59 0 114.5 21.5t101 58.5t78 87.5t44.5 108.5q13 58 2 108.5t-41 87.5t-76.5 58.5t-105.5 21.5t-114.5 -21.5
t-101 -58.5t-78 -87.5t-45.5 -108.5q-12 -58 -1 -108.5t41 -87.5t76.5 -58.5t105.5 -21.5z" />
    <glyph glyph-name="Odieresis" unicode="&#xd6;" horiz-adv-x="860" 
d="M475 746q-29 0 -44 19.5t-9 47.5q6 27 29 46.5t52 19.5q28 0 43.5 -19.5t9.5 -46.5q-6 -28 -30 -47.5t-51 -19.5zM689 746q-28 0 -43.5 19.5t-9.5 47.5q6 27 29.5 46.5t51.5 19.5q29 0 44.5 -19.5t9.5 -46.5q-6 -28 -30 -47.5t-52 -19.5zM427 -12q-79 0 -141 28t-101 77
t-53 115t2 142q17 76 59 142t101.5 115t133.5 77t153 28q80 0 141.5 -28t101 -77t53.5 -115t-3 -142q-16 -76 -58 -142t-102 -115t-133.5 -77t-153.5 -28zM446 74q59 0 114.5 21.5t101 58.5t78 87.5t44.5 108.5q13 58 2 108.5t-41 87.5t-76.5 58.5t-105.5 21.5t-114.5 -21.5
t-101 -58.5t-78 -87.5t-45.5 -108.5q-12 -58 -1 -108.5t41 -87.5t76.5 -58.5t105.5 -21.5z" />
    <glyph glyph-name="multiply" unicode="&#xd7;" horiz-adv-x="436" 
d="M299 311l-108 -88q-10 -8 -20.5 -8t-17.5 8l-7 10q-7 8 -4.5 19t12.5 19l109 89l-72 88q-6 8 -4 19t12 19l12 10q10 8 21 8t17 -8l71 -88l109 89q9 8 19.5 8t17.5 -8l8 -10q6 -8 4.5 -19t-12.5 -19l-108 -89l71 -89q6 -8 4 -19t-12 -19l-14 -11q-10 -8 -20.5 -8t-16.5 8z
" />
    <glyph glyph-name="Oslash" unicode="&#xd8;" horiz-adv-x="853" 
d="M825 606q38 -49 52 -114.5t-3 -141.5q-16 -76 -58 -142t-102 -115t-133.5 -77t-153.5 -28q-70 0 -126 22t-96 60q-28 -24 -50.5 -36.5t-26.5 -6.5l-7 7q-5 6 11 27t43 44q-33 48 -44.5 110.5t3.5 134.5q17 76 59 142t101.5 115t133.5 77t153 28q66 0 119 -19t92 -53
l37 31q27 24 49.5 36.5t28.5 6.5l5 -8q6 -5 -10 -26t-43 -45zM224 350q-11 -52 -3.5 -97.5t30.5 -81.5l466 403q-29 25 -68 38.5t-86 13.5q-59 0 -114.5 -21.5t-101 -58.5t-78 -87.5t-45.5 -108.5zM446 74q59 0 114.5 21.5t101 58.5t78 87.5t44.5 108.5q12 57 2.5 105
t-36.5 85l-469 -405q30 -29 71.5 -45t93.5 -16z" />
    <glyph glyph-name="Ugrave" unicode="&#xd9;" horiz-adv-x="754" 
d="M565 741q-24 0 -30.5 4.5t-13.5 15.5l-62 91q-12 19 -4.5 30.5t24.5 11.5h47q14 0 18 -11l45 -116q4 -11 -4 -18.5t-20 -7.5zM374 -12q-65 0 -115.5 21t-82.5 58.5t-43.5 90.5t1.5 116l85 399q2 11 11.5 19t21.5 8h34q11 0 17 -8t4 -19l-85 -399q-9 -45 -1.5 -82
t30.5 -63t59 -40.5t83 -14.5t89 14t76 40.5t57.5 63.5t32.5 82l85 399q2 11 11.5 19t21.5 8h34q11 0 17 -8t4 -19l-85 -399q-13 -63 -47 -116t-82 -90.5t-107.5 -58.5t-125.5 -21z" />
    <glyph glyph-name="Uacute" unicode="&#xda;" horiz-adv-x="754" 
d="M499 743q-12 0 -17.5 7.5t3.5 18.5l95 116q9 11 22 11h47q18 0 20.5 -11.5t-17.5 -30.5l-101 -91q-12 -11 -20.5 -15.5t-31.5 -4.5zM374 -12q-65 0 -115.5 21t-82.5 58.5t-43.5 90.5t1.5 116l85 399q2 11 11.5 19t21.5 8h34q11 0 17 -8t4 -19l-85 -399q-9 -45 -1.5 -82
t30.5 -63t59 -40.5t83 -14.5t89 14t76 40.5t57.5 63.5t32.5 82l85 399q2 11 11.5 19t21.5 8h34q11 0 17 -8t4 -19l-85 -399q-13 -63 -47 -116t-82 -90.5t-107.5 -58.5t-125.5 -21z" />
    <glyph glyph-name="Ucircumflex" unicode="&#xdb;" horiz-adv-x="754" 
d="M425 743q-17 0 -23.5 10.5t12.5 29.5l107 106q8 8 20 8h52q11 0 16 -8l63 -108q11 -19 0 -28.5t-28 -9.5h-39q-14 0 -18 11l-33 83l-68 -83q-8 -11 -22 -11h-39zM374 -12q-65 0 -115.5 21t-82.5 58.5t-43.5 90.5t1.5 116l85 399q2 11 11.5 19t21.5 8h34q11 0 17 -8t4 -19
l-85 -399q-9 -45 -1.5 -82t30.5 -63t59 -40.5t83 -14.5t89 14t76 40.5t57.5 63.5t32.5 82l85 399q2 11 11.5 19t21.5 8h34q11 0 17 -8t4 -19l-85 -399q-13 -63 -47 -116t-82 -90.5t-107.5 -58.5t-125.5 -21z" />
    <glyph glyph-name="Udieresis" unicode="&#xdc;" horiz-adv-x="754" 
d="M429 740q-28 0 -43 19.5t-9 47.5q5 27 28.5 46.5t52.5 19.5q27 0 42.5 -19.5t10.5 -46.5q-6 -28 -30 -47.5t-52 -19.5zM643 740q-28 0 -43 19.5t-9 47.5q5 27 29 46.5t52 19.5t43.5 -19.5t10.5 -46.5q-6 -28 -30 -47.5t-53 -19.5zM374 -12q-65 0 -115.5 21t-82.5 58.5
t-43.5 90.5t1.5 116l85 399q2 11 11.5 19t21.5 8h34q11 0 17 -8t4 -19l-85 -399q-9 -45 -1.5 -82t30.5 -63t59 -40.5t83 -14.5t89 14t76 40.5t57.5 63.5t32.5 82l85 399q2 11 11.5 19t21.5 8h34q11 0 17 -8t4 -19l-85 -399q-13 -63 -47 -116t-82 -90.5t-107.5 -58.5
t-125.5 -21z" />
    <glyph glyph-name="Yacute" unicode="&#xdd;" horiz-adv-x="676" 
d="M477 743q-12 0 -17.5 7.5t3.5 18.5l95 116q9 11 22 11h47q18 0 20.5 -11.5t-17.5 -30.5l-101 -91q-12 -11 -20.5 -15.5t-31.5 -4.5zM320 0q-11 0 -17.5 8t-3.5 19l60 285l-159 335q-9 18 2.5 35.5t29.5 17.5h35q12 0 17 -10l139 -292l263 292q8 10 21 10h29
q22 0 27 -17.5t-11 -35.5l-303 -335l-60 -285q-3 -11 -12.5 -19t-20.5 -8h-36z" />
    <glyph glyph-name="Thorn" unicode="&#xde;" horiz-adv-x="676" 
d="M103 0q-11 0 -17.5 8t-3.5 19l137 646q2 11 11.5 19t21.5 8h34q11 0 17 -8t4 -19l-15 -73h194q59 0 103 -18.5t70.5 -51.5t35 -78t-3.5 -97q-11 -52 -38.5 -97t-67.5 -78t-92 -51.5t-112 -18.5h-194l-17 -83q-3 -11 -12.5 -19t-20.5 -8h-34zM205 191h187q39 0 74 12
t63 33.5t47.5 51.5t26.5 67q8 36 1.5 66t-25 52t-48.5 34t-70 12h-187z" />
    <glyph glyph-name="germandbls" unicode="&#xdf;" horiz-adv-x="627" 
d="M311 -10q-43 1 -73 5t-53 13q-14 5 -11 22l4 18q4 17 17.5 25t28.5 3q39 -10 101 -10q88 0 144.5 39t70.5 106q12 57 -18 92.5t-102 35.5l-76 -1q-11 0 -17.5 8t-3.5 19l2 12q3 11 12.5 19t20.5 8h23q30 0 57 9.5t48 25.5t35.5 37t19.5 44q11 54 -21.5 84.5t-89.5 30.5
q-69 0 -117.5 -37.5t-63.5 -109.5l-98 -461q-3 -11 -12.5 -19t-20.5 -8h-34q-11 0 -17.5 8t-3.5 19l103 485q10 49 35.5 86.5t62.5 63t83 38.5t99 13q49 0 87.5 -12.5t63.5 -36t35 -56.5t2 -74q-10 -47 -42.5 -88.5t-83.5 -62.5q73 -8 104.5 -56.5t16.5 -117.5
q-11 -54 -39.5 -94.5t-70.5 -68.5t-95 -42t-113 -14z" />
    <glyph glyph-name="agrave" unicode="&#xe0;" horiz-adv-x="580" 
d="M467 570q-23 0 -29.5 4.5t-14.5 15.5l-61 91q-13 19 -5.5 30.5t25.5 11.5h47q13 0 17 -11l46 -116q4 -11 -4.5 -18.5t-20.5 -7.5zM233 -14q-96 -2 -135.5 39.5t-22.5 117.5q16 70 84.5 112.5t183.5 42.5q40 0 78.5 -5.5t72.5 -15.5l3 13q16 78 -7.5 118t-104.5 40
q-40 0 -81.5 -11.5t-79.5 -33.5q-11 -5 -20.5 -4t-14.5 10l-4 8q-5 10 -1 21t16 18q54 29 109.5 43t107.5 14q111 0 152 -51.5t19 -154.5l-59 -280q-3 -11 -12.5 -19t-20.5 -8h-23q-11 0 -17.5 8t-3.5 19l7 35q-18 -13 -44 -26t-56 -24t-62 -18t-64 -8zM271 45
q26 1 54.5 8.5t54.5 18t47 22.5t33 21l23 108q-23 14 -54.5 19.5t-67.5 5.5q-81 0 -132.5 -25t-63.5 -77q-14 -56 16 -79.5t90 -21.5z" />
    <glyph glyph-name="aacute" unicode="&#xe1;" horiz-adv-x="580" 
d="M399 569q-12 0 -17.5 7.5t3.5 18.5l95 116q9 11 22 11h47q18 0 20.5 -11.5t-17.5 -30.5l-101 -91q-12 -11 -20.5 -15.5t-31.5 -4.5zM233 -14q-96 -2 -135.5 39.5t-22.5 117.5q16 70 84.5 112.5t183.5 42.5q40 0 78.5 -5.5t72.5 -15.5l3 13q16 78 -7.5 118t-104.5 40
q-40 0 -81.5 -11.5t-79.5 -33.5q-11 -5 -20.5 -4t-14.5 10l-4 8q-5 10 -1 21t16 18q54 29 109.5 43t107.5 14q111 0 152 -51.5t19 -154.5l-59 -280q-3 -11 -12.5 -19t-20.5 -8h-23q-11 0 -17.5 8t-3.5 19l7 35q-18 -13 -44 -26t-56 -24t-62 -18t-64 -8zM271 45
q26 1 54.5 8.5t54.5 18t47 22.5t33 21l23 108q-23 14 -54.5 19.5t-67.5 5.5q-81 0 -132.5 -25t-63.5 -77q-14 -56 16 -79.5t90 -21.5z" />
    <glyph glyph-name="acircumflex" unicode="&#xe2;" horiz-adv-x="580" 
d="M326 568q-17 0 -22.5 10.5t12.5 29.5l102 106q8 8 19 8h49q11 0 16 -8l59 -108q10 -19 -0.5 -28.5t-26.5 -9.5h-37q-13 0 -17 11l-31 83l-65 -83q-9 -11 -21 -11h-37zM233 -14q-96 -2 -135.5 39.5t-22.5 117.5q16 70 84.5 112.5t183.5 42.5q40 0 78.5 -5.5t72.5 -15.5
l3 13q16 78 -7.5 118t-104.5 40q-40 0 -81.5 -11.5t-79.5 -33.5q-11 -5 -20.5 -4t-14.5 10l-4 8q-5 10 -1 21t16 18q54 29 109.5 43t107.5 14q111 0 152 -51.5t19 -154.5l-59 -280q-3 -11 -12.5 -19t-20.5 -8h-23q-11 0 -17.5 8t-3.5 19l7 35q-18 -13 -44 -26t-56 -24
t-62 -18t-64 -8zM271 45q26 1 54.5 8.5t54.5 18t47 22.5t33 21l23 108q-23 14 -54.5 19.5t-67.5 5.5q-81 0 -132.5 -25t-63.5 -77q-14 -56 16 -79.5t90 -21.5z" />
    <glyph glyph-name="atilde" unicode="&#xe3;" horiz-adv-x="580" 
d="M408 585q-30 9 -57.5 16.5t-55.5 -6.5q-15 -8 -26.5 -8.5t-14.5 12.5l-4 17q-4 15 9 26q22 18 43.5 25t42.5 7t41.5 -4.5t40.5 -10.5q33 -10 62.5 -18t58.5 6q15 7 27 7.5t14 -13.5l4 -19q2 -15 -10 -25q-22 -17 -44 -23t-44 -5.5t-44 5.5t-43 11zM233 -14
q-96 -2 -135.5 39.5t-22.5 117.5q16 70 84.5 112.5t183.5 42.5q40 0 78.5 -5.5t72.5 -15.5l3 13q16 78 -7.5 118t-104.5 40q-40 0 -81.5 -11.5t-79.5 -33.5q-11 -5 -20.5 -4t-14.5 10l-4 8q-5 10 -1 21t16 18q54 29 109.5 43t107.5 14q111 0 152 -51.5t19 -154.5l-59 -280
q-3 -11 -12.5 -19t-20.5 -8h-23q-11 0 -17.5 8t-3.5 19l7 35q-18 -13 -44 -26t-56 -24t-62 -18t-64 -8zM271 45q26 1 54.5 8.5t54.5 18t47 22.5t33 21l23 108q-23 14 -54.5 19.5t-67.5 5.5q-81 0 -132.5 -25t-63.5 -77q-14 -56 16 -79.5t90 -21.5z" />
    <glyph glyph-name="adieresis" unicode="&#xe4;" horiz-adv-x="580" 
d="M307 568q-29 0 -44 19.5t-9 47.5q6 27 29 46.5t52 19.5q28 0 43.5 -19.5t9.5 -46.5q-6 -28 -29.5 -47.5t-51.5 -19.5zM521 568q-28 0 -43.5 19.5t-9.5 47.5q6 27 29.5 46.5t51.5 19.5q29 0 44.5 -19.5t9.5 -46.5q-6 -28 -30 -47.5t-52 -19.5zM233 -14q-96 -2 -135.5 39.5
t-22.5 117.5q16 70 84.5 112.5t183.5 42.5q40 0 78.5 -5.5t72.5 -15.5l3 13q16 78 -7.5 118t-104.5 40q-40 0 -81.5 -11.5t-79.5 -33.5q-11 -5 -20.5 -4t-14.5 10l-4 8q-5 10 -1 21t16 18q54 29 109.5 43t107.5 14q111 0 152 -51.5t19 -154.5l-59 -280q-3 -11 -12.5 -19
t-20.5 -8h-23q-11 0 -17.5 8t-3.5 19l7 35q-18 -13 -44 -26t-56 -24t-62 -18t-64 -8zM271 45q26 1 54.5 8.5t54.5 18t47 22.5t33 21l23 108q-23 14 -54.5 19.5t-67.5 5.5q-81 0 -132.5 -25t-63.5 -77q-14 -56 16 -79.5t90 -21.5z" />
    <glyph glyph-name="aring" unicode="&#xe5;" horiz-adv-x="580" 
d="M418 561q-23 0 -42 9t-31 24.5t-17 36t0 44.5t18.5 44.5t32.5 36.5t41.5 25t46.5 9t43 -9t31 -25t16.5 -36.5t-0.5 -44.5t-18 -45t-32 -36t-42 -24t-47 -9zM430 613q27 -1 49 17.5t27 44.5q6 26 -8.5 45t-40.5 19q-25 0 -47.5 -19t-28.5 -45q-5 -26 9.5 -44.5t39.5 -17.5
zM233 -14q-96 -2 -135.5 39.5t-22.5 117.5q16 70 84.5 112.5t183.5 42.5q40 0 78.5 -5.5t72.5 -15.5l3 13q16 78 -7.5 118t-104.5 40q-40 0 -81.5 -11.5t-79.5 -33.5q-11 -5 -20.5 -4t-14.5 10l-4 8q-5 10 -1 21t16 18q54 29 109.5 43t107.5 14q111 0 152 -51.5t19 -154.5
l-59 -280q-3 -11 -12.5 -19t-20.5 -8h-23q-11 0 -17.5 8t-3.5 19l7 35q-18 -13 -44 -26t-56 -24t-62 -18t-64 -8zM271 45q26 1 54.5 8.5t54.5 18t47 22.5t33 21l23 108q-23 14 -54.5 19.5t-67.5 5.5q-81 0 -132.5 -25t-63.5 -77q-14 -56 16 -79.5t90 -21.5z" />
    <glyph glyph-name="ae" unicode="&#xe6;" horiz-adv-x="1008" 
d="M233 -14q-96 -2 -135.5 39.5t-22.5 117.5q16 70 84.5 112.5t183.5 42.5q37 0 76 -4.5t76 -13.5l2 12q17 78 -8 117t-104 39q-40 0 -81.5 -11.5t-79.5 -33.5q-11 -5 -20.5 -4t-14.5 10l-4 8q-5 10 -1 21t16 18q54 29 109.5 43t107.5 14q82 0 118 -32t38 -95q39 57 103 92
t142 35q57 0 98 -16t67 -45t36 -68.5t6 -87.5l-2 -11q-3 -11 -12.5 -19t-20.5 -8h-407l-5 -29q-6 -37 2.5 -69.5t29 -56.5t52 -38t72.5 -14q40 0 80 11.5t74 32.5q11 6 21 5t15 -9l6 -10q11 -20 -10 -35q-43 -28 -98.5 -43.5t-114.5 -15.5q-75 0 -125.5 29.5t-73.5 80.5
q-60 -49 -130.5 -79t-144.5 -32zM943 316q-1 59 -33 98t-102 39q-69 0 -123.5 -38.5t-84.5 -98.5h343zM267 47q61 2 114.5 29t98.5 67q-3 20 -2 41t6 47q-26 11 -59 15.5t-68 4.5q-82 0 -132.5 -27.5t-61.5 -77.5q-12 -54 15.5 -77.5t88.5 -21.5z" />
    <glyph glyph-name="ccedilla" unicode="&#xe7;" horiz-adv-x="549" 
d="M517 81q5 -8 4 -17.5t-9 -15.5q-38 -26 -82.5 -42.5t-99.5 -18.5q7 -11 -3 -22l-32 -33q39 -2 61.5 -29t13.5 -67q-9 -43 -46 -70.5t-92 -27.5q-39 0 -71 20q-8 5 -8.5 15t6.5 19l7 9q7 11 18 13t21 -3q16 -8 37 -10q28 0 47.5 12.5t25.5 36.5q5 20 -5.5 35t-32.5 20
q-20 5 -27 17t6 29l26 35q0 2 2 2q-55 5 -95 27t-64 56.5t-31 80t4 98.5q12 56 41 104t72.5 83.5t99.5 55.5t120 20q56 -1 95.5 -16.5t67.5 -40.5q7 -7 6 -17.5t-10 -18.5l-16 -16q-10 -9 -20.5 -10.5t-18.5 6.5q-22 20 -50.5 30.5t-68.5 10.5q-43 0 -81 -15t-68 -41
t-50.5 -61t-29.5 -74q-8 -39 -2 -74t25 -61t50.5 -41t74.5 -15q40 0 73 10.5t63 30.5q11 8 21.5 7t15.5 -11z" />
    <glyph glyph-name="egrave" unicode="&#xe8;" horiz-adv-x="617" 
d="M469 571q-23 0 -29.5 4.5t-13.5 15.5l-62 91q-13 19 -5 30.5t25 11.5h47q14 0 18 -11l45 -116q4 -11 -4.5 -18.5t-20.5 -7.5zM316 -13q-62 0 -108.5 20t-74.5 55.5t-37.5 83.5t2.5 104t41.5 104t72.5 83.5t98 55.5t118 20q57 0 97.5 -16t66 -45t36.5 -68.5t7 -87.5l-2 -8
q-2 -11 -11.5 -19t-21.5 -8h-407l-3.5 -17.5t-2.5 -17.5q-5 -37 3.5 -69t29 -55.5t51.5 -37t72 -13.5q40 0 80 11.5t74 32.5q11 7 20.5 5.5t14.5 -9.5l6 -9q5 -8 3.5 -18t-9.5 -15q-43 -29 -99 -45.5t-117 -16.5zM549 329q-4 55 -35.5 89.5t-98.5 34.5q-65 0 -117.5 -34.5
t-83.5 -89.5h335z" />
    <glyph glyph-name="eacute" unicode="&#xe9;" horiz-adv-x="617" 
d="M435 570q-12 0 -17.5 7.5t4.5 18.5l94 116q9 11 23 11h47q17 0 19.5 -11.5t-17.5 -30.5l-101 -91q-12 -11 -20 -15.5t-32 -4.5zM316 -13q-62 0 -108.5 20t-74.5 55.5t-37.5 83.5t2.5 104t41.5 104t72.5 83.5t98 55.5t118 20q57 0 97.5 -16t66 -45t36.5 -68.5t7 -87.5
l-2 -8q-2 -11 -11.5 -19t-21.5 -8h-407l-3.5 -17.5t-2.5 -17.5q-5 -37 3.5 -69t29 -55.5t51.5 -37t72 -13.5q40 0 80 11.5t74 32.5q11 7 20.5 5.5t14.5 -9.5l6 -9q5 -8 3.5 -18t-9.5 -15q-43 -29 -99 -45.5t-117 -16.5zM549 329q-4 55 -35.5 89.5t-98.5 34.5
q-65 0 -117.5 -34.5t-83.5 -89.5h335z" />
    <glyph glyph-name="ecircumflex" unicode="&#xea;" horiz-adv-x="617" 
d="M332 571q-16 0 -22 10.5t13 29.5l104 106q4 4 9.5 6t9.5 2h51q12 0 16 -8l61 -108q12 -19 0.5 -28.5t-28.5 -9.5h-38q-12 0 -16 11l-33 83l-66 -83q-9 -11 -23 -11h-38zM316 -13q-62 0 -108.5 20t-74.5 55.5t-37.5 83.5t2.5 104t41.5 104t72.5 83.5t98 55.5t118 20
q57 0 97.5 -16t66 -45t36.5 -68.5t7 -87.5l-2 -8q-2 -11 -11.5 -19t-21.5 -8h-407l-3.5 -17.5t-2.5 -17.5q-5 -37 3.5 -69t29 -55.5t51.5 -37t72 -13.5q40 0 80 11.5t74 32.5q11 7 20.5 5.5t14.5 -9.5l6 -9q5 -8 3.5 -18t-9.5 -15q-43 -29 -99 -45.5t-117 -16.5zM549 329
q-4 55 -35.5 89.5t-98.5 34.5q-65 0 -117.5 -34.5t-83.5 -89.5h335z" />
    <glyph glyph-name="edieresis" unicode="&#xeb;" horiz-adv-x="617" 
d="M336 568q-29 0 -44 19.5t-9 47.5q6 27 29 46.5t52 19.5q28 0 43.5 -19.5t9.5 -46.5q-6 -28 -29.5 -47.5t-51.5 -19.5zM550 568q-28 0 -43.5 19.5t-9.5 47.5q6 27 29.5 46.5t51.5 19.5q29 0 44.5 -19.5t9.5 -46.5q-6 -28 -30 -47.5t-52 -19.5zM316 -13q-62 0 -108.5 20
t-74.5 55.5t-37.5 83.5t2.5 104t41.5 104t72.5 83.5t98 55.5t118 20q57 0 97.5 -16t66 -45t36.5 -68.5t7 -87.5l-2 -8q-2 -11 -11.5 -19t-21.5 -8h-407l-3.5 -17.5t-2.5 -17.5q-5 -37 3.5 -69t29 -55.5t51.5 -37t72 -13.5q40 0 80 11.5t74 32.5q11 7 20.5 5.5t14.5 -9.5
l6 -9q5 -8 3.5 -18t-9.5 -15q-43 -29 -99 -45.5t-117 -16.5zM549 329q-4 55 -35.5 89.5t-98.5 34.5q-65 0 -117.5 -34.5t-83.5 -89.5h335z" />
    <glyph glyph-name="igrave" unicode="&#xec;" horiz-adv-x="201" 
d="M228 566q-23 0 -29.5 4.5t-13.5 15.5l-62 91q-13 19 -5.5 30.5t25.5 11.5h47q14 0 17 -11l46 -116q4 -11 -4.5 -18.5t-20.5 -7.5zM84 0q-11 0 -17.5 8t-3.5 19l95 446q2 11 11.5 19t20.5 8h34q12 0 18 -8t4 -19l-95 -446q-3 -11 -12.5 -19t-20.5 -8h-34z" />
    <glyph glyph-name="iacute" unicode="&#xed;" horiz-adv-x="201" 
d="M227 570q-12 0 -17.5 7.5t4.5 18.5l94 116q9 11 23 11h47q17 0 19.5 -11.5t-17.5 -30.5l-101 -91q-12 -11 -20 -15.5t-32 -4.5zM84 0q-11 0 -17.5 8t-3.5 19l95 446q2 11 11.5 19t20.5 8h34q12 0 18 -8t4 -19l-95 -446q-3 -11 -12.5 -19t-20.5 -8h-34z" />
    <glyph glyph-name="icircumflex" unicode="&#xee;" horiz-adv-x="201" 
d="M131 569q-16 0 -21 10.5t12 29.5l100 106q8 8 19 8h47q10 0 15 -8l56 -108q10 -19 -0.5 -28.5t-26.5 -9.5h-35q-13 0 -17 11l-29 83l-63 -83q-8 -11 -21 -11h-36zM84 0q-11 0 -17.5 8t-3.5 19l95 446q2 11 11.5 19t20.5 8h34q12 0 18 -8t4 -19l-95 -446q-3 -11 -12.5 -19
t-20.5 -8h-34z" />
    <glyph glyph-name="idieresis" unicode="&#xef;" horiz-adv-x="201" 
d="M143 567q-29 0 -44 19.5t-9 47.5q6 27 29 46.5t52 19.5q28 0 43.5 -19.5t9.5 -46.5q-6 -28 -30 -47.5t-51 -19.5zM300 565q-29 0 -44 19.5t-9 47.5q6 27 29.5 46.5t51.5 19.5t43.5 -19.5t9.5 -46.5q-6 -28 -29.5 -47.5t-51.5 -19.5zM84 0q-11 0 -17.5 8t-3.5 19l95 446
q2 11 11.5 19t20.5 8h34q12 0 18 -8t4 -19l-95 -446q-3 -11 -12.5 -19t-20.5 -8h-34z" />
    <glyph glyph-name="eth" unicode="&#xf0;" horiz-adv-x="618" 
d="M298 -10q-55 1 -97 22t-68.5 56.5t-35.5 83t3 101.5q11 53 38 98t65.5 78t86.5 52t101 19q35 0 66 -10.5t55 -30t39 -45.5t20 -58q11 72 2 124.5t-33 87t-62 51t-86 16.5q-15 0 -30 -2t-31 -6q-11 -4 -19.5 0t-10.5 14l-5 24q-2 11 5 21t19 14q21 6 44 9.5t45 3.5
q102 0 163 -56l51 34q10 7 20 5.5t15 -9.5l2 -2q6 -10 2.5 -21t-15.5 -19l-42 -27q40 -55 48 -139.5t-22 -197.5q-15 -59 -44.5 -112t-71.5 -93.5t-97 -63.5t-120 -22zM319 65q44 -1 81 13t66 39.5t49 60.5t31 75q8 39 0.5 73t-27.5 59t-51.5 39.5t-70.5 14.5
q-38 0 -73.5 -14.5t-64.5 -39.5t-49.5 -59t-28.5 -73q-9 -39 -3 -73t24.5 -59.5t48 -40t68.5 -15.5z" />
    <glyph glyph-name="ntilde" unicode="&#xf1;" horiz-adv-x="610" 
d="M415 592q-31 9 -58.5 16.5t-54.5 -6.5q-15 -8 -27 -8.5t-14 12.5l-5 17q-4 15 10 26q21 18 42.5 25t42.5 7t42 -4.5t41 -10.5q33 -10 62 -18t58 6q16 7 27.5 7.5t14.5 -13.5l4 -19q2 -15 -11 -25q-21 -17 -43 -23t-44.5 -5.5t-44 5.5t-42.5 11zM90 0q-11 0 -17.5 8
t-3.5 19l95 446q2 11 11.5 19t20.5 8h26q12 0 18 -8t4 -19l-18 -84q57 65 128 95.5t138 28.5q49 -1 79 -15t44.5 -40t15.5 -63t-9 -85l-60 -283q-3 -11 -12.5 -19t-20.5 -8h-36q-11 0 -17.5 8t-3.5 19l54 253q8 38 8 67.5t-10.5 49.5t-33.5 30.5t-61 10.5q-58 1 -114.5 -29
t-93.5 -81l-64 -301q-3 -11 -12.5 -19t-20.5 -8h-34z" />
    <glyph glyph-name="ograve" unicode="&#xf2;" horiz-adv-x="634" 
d="M464 571q-23 0 -29.5 4.5t-13.5 15.5l-62 91q-13 19 -5 30.5t25 11.5h47q14 0 18 -11l45 -116q4 -11 -4.5 -18.5t-20.5 -7.5zM314 -13q-65 0 -111.5 20t-73.5 55.5t-35 83.5t4 104t40 104t70 83.5t97 55.5t121 20t112.5 -20t73.5 -55.5t35 -83.5t-4 -104t-40 -104
t-70.5 -83.5t-97.5 -55.5t-121 -20zM330 61q44 0 81.5 14.5t66 40t48.5 60t28 74.5q9 40 4 74.5t-23.5 60t-49.5 40t-75 14.5t-81 -14.5t-65.5 -40t-48 -60t-28.5 -74.5q-8 -40 -3.5 -74.5t22.5 -60t49 -40t75 -14.5z" />
    <glyph glyph-name="oacute" unicode="&#xf3;" horiz-adv-x="634" 
d="M433 570q-12 0 -17.5 7.5t4.5 18.5l94 116q9 11 23 11h47q17 0 19.5 -11.5t-17.5 -30.5l-101 -91q-12 -11 -20 -15.5t-32 -4.5zM314 -13q-65 0 -111.5 20t-73.5 55.5t-35 83.5t4 104t40 104t70 83.5t97 55.5t121 20t112.5 -20t73.5 -55.5t35 -83.5t-4 -104t-40 -104
t-70.5 -83.5t-97.5 -55.5t-121 -20zM330 61q44 0 81.5 14.5t66 40t48.5 60t28 74.5q9 40 4 74.5t-23.5 60t-49.5 40t-75 14.5t-81 -14.5t-65.5 -40t-48 -60t-28.5 -74.5q-8 -40 -3.5 -74.5t22.5 -60t49 -40t75 -14.5z" />
    <glyph glyph-name="ocircumflex" unicode="&#xf4;" horiz-adv-x="634" 
d="M336 572q-17 0 -23 10.5t13 29.5l105 106q3 4 9 6t9 2h51q12 0 17 -8l61 -108q11 -19 -0.5 -28.5t-27.5 -9.5h-38q-13 0 -17 11l-32 83l-67 -83q-9 -11 -22 -11h-38zM314 -13q-65 0 -111.5 20t-73.5 55.5t-35 83.5t4 104t40 104t70 83.5t97 55.5t121 20t112.5 -20
t73.5 -55.5t35 -83.5t-4 -104t-40 -104t-70.5 -83.5t-97.5 -55.5t-121 -20zM330 61q44 0 81.5 14.5t66 40t48.5 60t28 74.5q9 40 4 74.5t-23.5 60t-49.5 40t-75 14.5t-81 -14.5t-65.5 -40t-48 -60t-28.5 -74.5q-8 -40 -3.5 -74.5t22.5 -60t49 -40t75 -14.5z" />
    <glyph glyph-name="otilde" unicode="&#xf5;" horiz-adv-x="634" 
d="M438 581q-30 9 -57.5 16.5t-54.5 -6.5q-16 -8 -27.5 -8.5t-14.5 12.5l-4 17q-4 15 10 26q21 18 42.5 25t42.5 7t41.5 -4.5t40.5 -10.5q34 -10 63 -18t58 6q15 7 27 7.5t14 -13.5l4 -19q2 -15 -10 -25q-22 -17 -44 -23t-44 -5.5t-44 5.5t-43 11zM314 -13q-65 0 -111.5 20
t-73.5 55.5t-35 83.5t4 104t40 104t70 83.5t97 55.5t121 20t112.5 -20t73.5 -55.5t35 -83.5t-4 -104t-40 -104t-70.5 -83.5t-97.5 -55.5t-121 -20zM330 61q44 0 81.5 14.5t66 40t48.5 60t28 74.5q9 40 4 74.5t-23.5 60t-49.5 40t-75 14.5t-81 -14.5t-65.5 -40t-48 -60
t-28.5 -74.5q-8 -40 -3.5 -74.5t22.5 -60t49 -40t75 -14.5z" />
    <glyph glyph-name="odieresis" unicode="&#xf6;" horiz-adv-x="634" 
d="M333 564q-29 0 -44 19.5t-9 47.5q6 27 29 46.5t52 19.5q28 0 43.5 -19.5t9.5 -46.5q-6 -28 -29.5 -47.5t-51.5 -19.5zM547 564q-28 0 -43.5 19.5t-9.5 47.5q6 27 29.5 46.5t51.5 19.5q29 0 44.5 -19.5t9.5 -46.5q-6 -28 -29.5 -47.5t-52.5 -19.5zM314 -13
q-65 0 -111.5 20t-73.5 55.5t-35 83.5t4 104t40 104t70 83.5t97 55.5t121 20t112.5 -20t73.5 -55.5t35 -83.5t-4 -104t-40 -104t-70.5 -83.5t-97.5 -55.5t-121 -20zM330 61q44 0 81.5 14.5t66 40t48.5 60t28 74.5q9 40 4 74.5t-23.5 60t-49.5 40t-75 14.5t-81 -14.5
t-65.5 -40t-48 -60t-28.5 -74.5q-8 -40 -3.5 -74.5t22.5 -60t49 -40t75 -14.5z" />
    <glyph glyph-name="divide" unicode="&#xf7;" horiz-adv-x="495" 
d="M361 456q-26 0 -39.5 18t-8.5 44q6 26 27 43.5t47 17.5q25 0 39.5 -17.5t8.5 -43.5q-5 -26 -27 -44t-47 -18zM173 324q-11 0 -17.5 8t-3.5 19l3 14q2 11 11.5 19t20.5 8h318q12 0 18 -8t4 -19l-3 -14q-3 -11 -12.5 -19t-20.5 -8h-318zM292 131q-26 0 -40 18t-8 44
q5 25 26.5 43t47.5 18q25 0 39 -18t9 -43q-6 -26 -27.5 -44t-46.5 -18z" />
    <glyph glyph-name="oslash" unicode="&#xf8;" horiz-adv-x="634" 
d="M594 457q38 -36 50.5 -89.5t-1.5 -117.5q-12 -56 -40 -104t-70.5 -83.5t-97.5 -55.5t-121 -20q-49 0 -86.5 11.5t-65.5 31.5l-20 -20q-22 -20 -40 -31t-23 -5l-5 6q-5 5 6 23.5t32 39.5l18 18q-28 35 -36 83.5t4 105.5q12 56 40 104t70 83.5t97 55.5t121 20q41 0 73.5 -8
t59.5 -22l53 53q21 21 39 31.5t24 5.5l5 -7q5 -5 -6 -23.5t-32 -38.5zM187 250q-15 -71 11 -122l296 292q-35 19 -84 19q-44 0 -81 -14.5t-65.5 -40t-48 -60t-28.5 -74.5zM330 61q44 0 81.5 14.5t66 40t48.5 60t28 74.5q9 43 3 79.5t-29 62.5l-301 -299q18 -15 44 -23.5
t59 -8.5z" />
    <glyph glyph-name="ugrave" unicode="&#xf9;" horiz-adv-x="603" 
d="M480 569q-23 0 -29.5 4.5t-14.5 15.5l-61 91q-13 19 -5.5 30.5t24.5 11.5h47q14 0 18 -11l45 -116q5 -11 -3.5 -18.5t-20.5 -7.5zM224 -13q-48 1 -78 15t-44.5 40t-15.5 63t9 85l61 283q2 11 11.5 19t20.5 8h35q12 0 18 -8t4 -19l-54 -253q-16 -76 2.5 -117t92.5 -41
q58 -1 115.5 29t94.5 81l64 301q2 11 11.5 19t20.5 8h34q12 0 18 -8t4 -19l-95 -446q-3 -11 -12.5 -19t-20.5 -8h-26q-11 0 -17.5 8t-3.5 19l18 84q-58 -66 -128.5 -96t-138.5 -28z" />
    <glyph glyph-name="uacute" unicode="&#xfa;" horiz-adv-x="603" 
d="M406 568q-12 0 -17.5 7.5t3.5 18.5l95 116q9 11 22 11h47q18 0 20.5 -11.5t-18.5 -30.5l-100 -91q-12 -11 -20.5 -15.5t-31.5 -4.5zM224 -13q-48 1 -78 15t-44.5 40t-15.5 63t9 85l61 283q2 11 11.5 19t20.5 8h35q12 0 18 -8t4 -19l-54 -253q-16 -76 2.5 -117t92.5 -41
q58 -1 115.5 29t94.5 81l64 301q2 11 11.5 19t20.5 8h34q12 0 18 -8t4 -19l-95 -446q-3 -11 -12.5 -19t-20.5 -8h-26q-11 0 -17.5 8t-3.5 19l18 84q-58 -66 -128.5 -96t-138.5 -28z" />
    <glyph glyph-name="ucircumflex" unicode="&#xfb;" horiz-adv-x="603" 
d="M324 571q-16 0 -22 10.5t13 29.5l104 106q4 4 9.5 6t9.5 2h51q12 0 16 -8l61 -108q12 -19 0.5 -28.5t-28.5 -9.5h-38q-12 0 -16 11l-33 83l-66 -83q-9 -11 -23 -11h-38zM224 -13q-48 1 -78 15t-44.5 40t-15.5 63t9 85l61 283q2 11 11.5 19t20.5 8h35q12 0 18 -8t4 -19
l-54 -253q-16 -76 2.5 -117t92.5 -41q58 -1 115.5 29t94.5 81l64 301q2 11 11.5 19t20.5 8h34q12 0 18 -8t4 -19l-95 -446q-3 -11 -12.5 -19t-20.5 -8h-26q-11 0 -17.5 8t-3.5 19l18 84q-58 -66 -128.5 -96t-138.5 -28z" />
    <glyph glyph-name="udieresis" unicode="&#xfc;" horiz-adv-x="603" 
d="M318 563q-29 0 -44 19.5t-9 47.5q6 27 29 46.5t52 19.5q28 0 43.5 -19.5t9.5 -46.5q-6 -28 -29.5 -47.5t-51.5 -19.5zM532 563q-28 0 -43.5 19.5t-9.5 47.5q6 27 29.5 46.5t51.5 19.5q29 0 44.5 -19.5t9.5 -46.5q-6 -28 -30 -47.5t-52 -19.5zM224 -13q-48 1 -78 15
t-44.5 40t-15.5 63t9 85l61 283q2 11 11.5 19t20.5 8h35q12 0 18 -8t4 -19l-54 -253q-16 -76 2.5 -117t92.5 -41q58 -1 115.5 29t94.5 81l64 301q2 11 11.5 19t20.5 8h34q12 0 18 -8t4 -19l-95 -446q-3 -11 -12.5 -19t-20.5 -8h-26q-11 0 -17.5 8t-3.5 19l18 84
q-58 -66 -128.5 -96t-138.5 -28z" />
    <glyph glyph-name="yacute" unicode="&#xfd;" horiz-adv-x="615" 
d="M440 570q-12 0 -17.5 7.5t4.5 18.5l94 116q9 11 23 11h47q17 0 19.5 -11.5t-17.5 -30.5l-101 -91q-12 -11 -20 -15.5t-32 -4.5zM58 -241q-12 -1 -17.5 7t-3.5 19l5 24q3 11 12 18t21 8q44 3 84 26t67 64l48 74l-125 456q-5 17 7 31t30 14h34q16 0 19 -13l99 -381l233 379
q9 15 25 15h36q18 0 24 -13t-5 -29l-332 -531q-52 -86 -113.5 -126.5t-147.5 -41.5z" />
    <glyph glyph-name="thorn" unicode="&#xfe;" horiz-adv-x="610" 
d="M31 -250q-11 0 -17.5 8t-3.5 19l190 896q2 11 11.5 19t21.5 8h34q11 0 17 -8t4 -19l-51 -242q36 38 86 60.5t110 22.5q53 0 93 -19.5t64.5 -54.5t32 -83.5t-4.5 -106.5t-40 -106t-67.5 -82.5t-88 -54t-101.5 -19.5q-60 0 -100.5 21.5t-60.5 59.5l-62 -292
q-3 -11 -12.5 -19t-20.5 -8h-34zM315 61q39 0 74 13.5t63 38.5t48 59.5t29 77.5q18 86 -18.5 137.5t-115.5 51.5q-57 0 -102 -24.5t-74 -68.5l-41 -191q11 -45 45.5 -69.5t91.5 -24.5z" />
    <glyph glyph-name="ydieresis" unicode="&#xff;" horiz-adv-x="615" 
d="M332 563q-29 0 -44 19.5t-9 47.5q6 27 29 46.5t52 19.5q28 0 43.5 -19.5t9.5 -46.5q-6 -28 -29.5 -47.5t-51.5 -19.5zM546 563q-28 0 -43.5 19.5t-9.5 47.5q6 27 29.5 46.5t51.5 19.5q29 0 44.5 -19.5t9.5 -46.5q-6 -28 -30 -47.5t-52 -19.5zM58 -241q-12 -1 -17.5 7
t-3.5 19l5 24q3 11 12 18t21 8q44 3 84 26t67 64l48 74l-125 456q-5 17 7 31t30 14h34q16 0 19 -13l99 -381l233 379q9 15 25 15h36q18 0 24 -13t-5 -29l-332 -531q-52 -86 -113.5 -126.5t-147.5 -41.5z" />
    <glyph glyph-name="Amacron" unicode="&#x100;" horiz-adv-x="721" 
d="M386 749q-11 0 -17 8t-4 19l3 14q2 11 11.5 19t21.5 8h269q11 0 17 -8t4 -19l-3 -14q-2 -11 -11.5 -19t-21.5 -8h-269zM87 0q-17 0 -23 12t4 29l383 644q9 15 25 15h68q15 0 19 -15l109 -644q2 -17 -9 -29t-28 -12h-37q-15 0 -19 15l-32 192h-285l-114 -192
q-10 -15 -25 -15h-36zM309 286h226l-50 297z" />
    <glyph glyph-name="amacron" unicode="&#x101;" horiz-adv-x="580" 
d="M286 571q-11 0 -17 8t-4 19l3 14q2 11 12 19t21 8h269q11 0 17 -8t4 -19l-3 -14q-2 -11 -11.5 -19t-21.5 -8h-269zM233 -14q-96 -2 -135.5 39.5t-22.5 117.5q16 70 84.5 112.5t183.5 42.5q40 0 78.5 -5.5t72.5 -15.5l3 13q16 78 -7.5 118t-104.5 40q-40 0 -81.5 -11.5
t-79.5 -33.5q-11 -5 -20.5 -4t-14.5 10l-4 8q-5 10 -1 21t16 18q54 29 109.5 43t107.5 14q111 0 152 -51.5t19 -154.5l-59 -280q-3 -11 -12.5 -19t-20.5 -8h-23q-11 0 -17.5 8t-3.5 19l7 35q-18 -13 -44 -26t-56 -24t-62 -18t-64 -8zM271 45q26 1 54.5 8.5t54.5 18t47 22.5
t33 21l23 108q-23 14 -54.5 19.5t-67.5 5.5q-81 0 -132.5 -25t-63.5 -77q-14 -56 16 -79.5t90 -21.5z" />
    <glyph glyph-name="Abreve" unicode="&#x102;" horiz-adv-x="721" 
d="M516 740q-68 0 -103 31.5t-29 89.5q1 12 11 20t22 8h20q22 0 20 -23q0 -32 20 -45t55 -14q35 0 60.5 13t37.5 45q4 11 12 17.5t19 6.5h21q12 0 18.5 -7.5t2.5 -18.5q-19 -60 -68 -91.5t-119 -31.5zM87 0q-17 0 -23 12t4 29l383 644q9 15 25 15h68q15 0 19 -15l109 -644
q2 -17 -9 -29t-28 -12h-37q-15 0 -19 15l-32 192h-285l-114 -192q-10 -15 -25 -15h-36zM309 286h226l-50 297z" />
    <glyph glyph-name="abreve" unicode="&#x103;" horiz-adv-x="580" 
d="M424 563q-67 0 -101 31.5t-29 89.5q1 12 11 20t21 8h20q22 0 20 -23q0 -32 19.5 -45t53.5 -14q35 0 60 13t37 45q5 11 12.5 17.5t17.5 6.5h21q12 0 18.5 -7.5t2.5 -18.5q-19 -60 -67 -91.5t-117 -31.5zM233 -14q-96 -2 -135.5 39.5t-22.5 117.5q16 70 84.5 112.5
t183.5 42.5q40 0 78.5 -5.5t72.5 -15.5l3 13q16 78 -7.5 118t-104.5 40q-40 0 -81.5 -11.5t-79.5 -33.5q-11 -5 -20.5 -4t-14.5 10l-4 8q-5 10 -1 21t16 18q54 29 109.5 43t107.5 14q111 0 152 -51.5t19 -154.5l-59 -280q-3 -11 -12.5 -19t-20.5 -8h-23q-11 0 -17.5 8
t-3.5 19l7 35q-18 -13 -44 -26t-56 -24t-62 -18t-64 -8zM271 45q26 1 54.5 8.5t54.5 18t47 22.5t33 21l23 108q-23 14 -54.5 19.5t-67.5 5.5q-81 0 -132.5 -25t-63.5 -77q-14 -56 16 -79.5t90 -21.5z" />
    <glyph glyph-name="Aogonek" unicode="&#x104;" horiz-adv-x="721" 
d="M678 -164q6 -8 3 -20t-15 -20q-21 -13 -43 -19.5t-42 -6.5q-42 0 -68 26t-15 76q6 30 30 63t67 65q-12 1 -16 15l-32 192h-285l-114 -192q-10 -15 -25 -15h-36q-17 0 -23 12t4 29l383 644q9 15 25 15h68q15 0 19 -15l109 -644q2 -15 -7.5 -27t-24.5 -14q-2 -17 -25 -39
q-42 -37 -49 -71q-6 -27 5.5 -40.5t31.5 -13.5q18 0 37 10q22 10 33 -3zM309 286h226l-50 297z" />
    <glyph glyph-name="aogonek" unicode="&#x105;" horiz-adv-x="580" 
d="M525 -164q6 -8 3 -20t-15 -20q-21 -13 -43 -19.5t-42 -6.5q-42 0 -68 26t-15 76q7 32 34 68t75 69q-4 8 -2 18l7 35q-18 -13 -44 -26t-56 -24t-62 -18t-64 -8q-96 -2 -135.5 39.5t-22.5 117.5q16 70 84.5 112.5t183.5 42.5q40 0 78.5 -5.5t72.5 -15.5l3 13
q16 78 -7.5 118t-104.5 40q-40 0 -81.5 -11.5t-79.5 -33.5q-11 -5 -20.5 -4t-14.5 10l-4 8q-5 10 -1 21t16 18q54 29 109.5 43t107.5 14q111 0 152 -51.5t19 -154.5l-59 -280q-3 -11 -12.5 -19t-20.5 -8h-9q-2 -17 -25 -39q-42 -37 -49 -71q-6 -27 5.5 -40.5t31.5 -13.5
q18 0 37 10q22 10 33 -3zM483 223q-23 14 -54.5 19.5t-67.5 5.5q-81 0 -132.5 -25t-63.5 -77q-14 -56 16 -79.5t90 -21.5q26 1 54.5 8.5t54.5 18t47 22.5t33 21z" />
    <glyph glyph-name="Cacute" unicode="&#x106;" horiz-adv-x="777" 
d="M556 744q-12 0 -17.5 7.5t4.5 18.5l94 116q9 11 23 11h47q17 0 19.5 -11.5t-17.5 -30.5l-101 -91q-12 -11 -20 -15.5t-32 -4.5zM428 -12q-80 0 -142 28t-101 77t-53 115t2 142q17 76 58.5 142t101.5 115t134 77t154 28q89 0 152 -32t102 -89q5 -9 2 -19t-13 -18l-32 -23
q-12 -8 -22 -6.5t-15 10.5q-29 43 -75.5 67t-116.5 24q-60 0 -115.5 -21.5t-101.5 -58.5t-78 -87.5t-45 -108.5q-12 -58 -1 -108.5t40.5 -87.5t76.5 -58.5t107 -21.5q70 0 127 24t103 66q9 10 20 11t19 -7l21 -22q7 -8 6.5 -17.5t-7.5 -17.5q-63 -57 -140.5 -90t-167.5 -33z
" />
    <glyph glyph-name="cacute" unicode="&#x107;" horiz-adv-x="549" 
d="M414 570q-12 0 -17.5 7.5t4.5 18.5l94 116q9 11 23 11h47q17 0 19.5 -11.5t-17.5 -30.5l-101 -91q-12 -11 -20 -15.5t-32 -4.5zM319 -13q-64 0 -111 19.5t-75.5 54.5t-37.5 83.5t3 105.5q12 56 41 104t72.5 83.5t99.5 55.5t120 20q56 -1 95.5 -16.5t67.5 -40.5
q7 -7 6 -17.5t-10 -18.5l-16 -16q-10 -9 -20.5 -10.5t-18.5 6.5q-22 20 -50.5 30.5t-68.5 10.5q-43 0 -81 -15t-68 -41t-50.5 -61t-29.5 -74q-8 -39 -2 -74t25 -61t50.5 -41t74.5 -15q40 0 73 10.5t63 30.5q11 8 21.5 7t15.5 -11l9 -15q5 -8 4 -17.5t-9 -15.5
q-40 -27 -87 -43.5t-106 -17.5z" />
    <glyph glyph-name="Cdotaccent" unicode="&#x10a;" horiz-adv-x="777" 
d="M586 755q-28 0 -43 19.5t-9 47.5q5 27 28.5 46.5t52.5 19.5q28 0 43 -19.5t10 -46.5q-6 -28 -30 -47.5t-52 -19.5zM428 -12q-80 0 -142 28t-101 77t-53 115t2 142q17 76 58.5 142t101.5 115t134 77t154 28q89 0 152 -32t102 -89q5 -9 2 -19t-13 -18l-32 -23
q-12 -8 -22 -6.5t-15 10.5q-29 43 -75.5 67t-116.5 24q-60 0 -115.5 -21.5t-101.5 -58.5t-78 -87.5t-45 -108.5q-12 -58 -1 -108.5t40.5 -87.5t76.5 -58.5t107 -21.5q70 0 127 24t103 66q9 10 20 11t19 -7l21 -22q7 -8 6.5 -17.5t-7.5 -17.5q-63 -57 -140.5 -90t-167.5 -33z
" />
    <glyph glyph-name="cdotaccent" unicode="&#x10b;" horiz-adv-x="549" 
d="M436 564q-29 0 -44 19.5t-9 47.5q6 27 29 46.5t52 19.5q28 0 43.5 -19.5t9.5 -46.5q-6 -28 -29.5 -47.5t-51.5 -19.5zM319 -13q-64 0 -111 19.5t-75.5 54.5t-37.5 83.5t3 105.5q12 56 41 104t72.5 83.5t99.5 55.5t120 20q56 -1 95.5 -16.5t67.5 -40.5q7 -7 6 -17.5
t-10 -18.5l-16 -16q-10 -9 -20.5 -10.5t-18.5 6.5q-22 20 -50.5 30.5t-68.5 10.5q-43 0 -81 -15t-68 -41t-50.5 -61t-29.5 -74q-8 -39 -2 -74t25 -61t50.5 -41t74.5 -15q40 0 73 10.5t63 30.5q11 8 21.5 7t15.5 -11l9 -15q5 -8 4 -17.5t-9 -15.5q-40 -27 -87 -43.5
t-106 -17.5z" />
    <glyph glyph-name="Ccaron" unicode="&#x10c;" horiz-adv-x="785" 
d="M558 744q-11 0 -16 8l-62 106q-11 19 0 29.5t28 10.5h39q14 0 18 -11l32 -83l69 83q8 11 22 11h39q16 0 23.5 -9.5t-11.5 -28.5l-109 -108q-8 -8 -20 -8h-52zM428 -12q-80 0 -142 28t-101 77t-53 115t2 142q17 76 58.5 142t101.5 115t134 77t154 28q89 0 152 -32t102 -89
q5 -9 2 -19t-13 -18l-32 -23q-12 -8 -22 -6.5t-15 10.5q-29 43 -75.5 67t-116.5 24q-60 0 -115.5 -21.5t-101.5 -58.5t-78 -87.5t-45 -108.5q-12 -58 -1 -108.5t40.5 -87.5t76.5 -58.5t107 -21.5q70 0 127 24t103 66q9 10 20 11t19 -7l21 -22q7 -8 6.5 -17.5t-7.5 -17.5
q-63 -57 -140.5 -90t-167.5 -33z" />
    <glyph glyph-name="ccaron" unicode="&#x10d;" horiz-adv-x="549" 
d="M401 562q-3 0 -8 2t-7 6l-59 106q-11 19 -0.5 29.5t26.5 10.5h38q14 0 18 -11l31 -83l68 83q8 11 21 11h38q17 0 24 -9.5t-12 -28.5l-107 -108q-8 -8 -20 -8h-51zM319 -13q-64 0 -111 19.5t-75.5 54.5t-37.5 83.5t3 105.5q12 56 41 104t72.5 83.5t99.5 55.5t120 20
q56 -1 95.5 -16.5t67.5 -40.5q7 -7 6 -17.5t-10 -18.5l-16 -16q-10 -9 -20.5 -10.5t-18.5 6.5q-22 20 -50.5 30.5t-68.5 10.5q-43 0 -81 -15t-68 -41t-50.5 -61t-29.5 -74q-8 -39 -2 -74t25 -61t50.5 -41t74.5 -15q40 0 73 10.5t63 30.5q11 8 21.5 7t15.5 -11l9 -15
q5 -8 4 -17.5t-9 -15.5q-40 -27 -87 -43.5t-106 -17.5z" />
    <glyph glyph-name="Dcaron" unicode="&#x10e;" horiz-adv-x="766" 
d="M462 743q-12 0 -16 8l-62 106q-11 19 -0.5 29.5t28.5 10.5h39q13 0 17 -11l33 -83l68 83q9 11 23 11h39q16 0 23.5 -9.5t-11.5 -28.5l-109 -108q-8 -8 -20 -8h-52zM103 0q-11 0 -17.5 8t-3.5 19l137 646q2 11 11.5 19t21.5 8h236q82 0 144.5 -26.5t101 -73t51 -110.5
t-3.5 -140t-56 -140t-98.5 -110.5t-131.5 -73t-156 -26.5h-236zM182 84h175q58 0 113 18.5t100 53t77 83.5t45 111q14 62 2.5 111t-42 83.5t-77.5 53t-105 18.5h-175z" />
    <glyph glyph-name="dcaron" unicode="&#x10f;" horiz-adv-x="616" 
d="M655 739q-11 0 -15 8l-56 106q-9 19 1 29.5t26 10.5h36q13 0 15 -11l30 -83l64 83q8 11 21 11h36q15 0 21.5 -9.5t-11.5 -28.5l-102 -108q-8 -8 -18 -8h-48zM283 -12q-52 0 -92.5 19.5t-65 54t-32 82.5t4.5 106t40.5 106.5t67.5 83t87.5 53.5t101.5 19q60 0 100.5 -21.5
t61.5 -59.5l51 242q2 11 11.5 19t21.5 8h34q11 0 17 -8t4 -19l-137 -646q-3 -11 -12.5 -19t-20.5 -8h-17q-11 0 -17.5 8t-3.5 19l12 59q-40 -46 -95 -72t-122 -26zM321 61q57 0 102 24.5t75 69.5l41 191q-12 44 -46 68.5t-92 24.5q-39 0 -74 -13.5t-63 -38t-48 -59.5
t-29 -78q-18 -86 18.5 -137.5t115.5 -51.5z" />
    <glyph glyph-name="Dcroat" unicode="&#x110;" horiz-adv-x="766" 
d="M103 0q-11 0 -17.5 8t-3.5 19l61 289h-44q-11 0 -17 8t-4 19l3 14q2 11 11.5 19t21.5 8h44l61 289q2 11 11.5 19t21.5 8h236q82 0 144.5 -26.5t101 -73t51 -110.5t-3.5 -140t-56 -140t-98.5 -110.5t-131.5 -73t-156 -26.5h-236zM182 84h175q58 0 113 18.5t100 53t77 83.5
t45 111q14 62 2.5 111t-42 83.5t-77.5 53t-105 18.5h-175l-49 -232h52q11 0 17 -8t4 -19l-3 -14q-2 -11 -12 -19t-21 -8h-52z" />
    <glyph glyph-name="dcroat" unicode="&#x111;" horiz-adv-x="610" 
d="M283 -12q-52 0 -92.5 19.5t-65 54t-32 82.5t4.5 106t40.5 106.5t68 83.5t87.5 54.5t101 19.5q61 0 101 -22.5t61 -60.5l29 137h-34q-12 0 -18.5 6t-4.5 14t11 14t20 6h34l14 65q2 11 11.5 19t21.5 8h34q11 0 17 -8t4 -19l-14 -65h35q12 0 18.5 -6t4.5 -14t-11 -14t-20 -6
h-35l-115 -541q-3 -11 -12.5 -19t-20.5 -8h-17q-11 0 -17.5 8t-3.5 19l12 59q-40 -48 -95 -73t-122 -25zM321 61q57 0 102 24.5t75 69.5l41 191q-12 44 -46 68.5t-92 24.5q-39 0 -74 -13.5t-63 -38t-48 -59.5t-29 -78q-18 -86 18.5 -137.5t115.5 -51.5z" />
    <glyph glyph-name="Emacron" unicode="&#x112;" horiz-adv-x="671" 
d="M366 760q-12 0 -18 8t-4 19l3 14q3 11 12.5 19t20.5 8h269q11 0 17.5 -8t3.5 -19l-3 -14q-2 -11 -11.5 -19t-20.5 -8h-269zM103 0q-11 0 -17.5 8t-3.5 19l137 646q2 11 11.5 19t21.5 8h465q11 0 17 -8t4 -19l-5 -26q-3 -11 -12.5 -19t-20.5 -8h-404l-49 -229h291
q11 0 17.5 -8t3.5 -19l-5 -27q-3 -11 -12.5 -19t-20.5 -8h-291l-49 -230h404q11 0 17.5 -8t3.5 -19l-5 -26q-3 -11 -12.5 -19t-20.5 -8h-465z" />
    <glyph glyph-name="emacron" unicode="&#x113;" horiz-adv-x="617" 
d="M301 571q-11 0 -17 8t-4 19l3 14q2 11 12 19t21 8h269q11 0 17 -8t4 -19l-3 -14q-2 -11 -11.5 -19t-21.5 -8h-269zM316 -13q-62 0 -108.5 20t-74.5 55.5t-37.5 83.5t2.5 104t41.5 104t72.5 83.5t98 55.5t118 20q57 0 97.5 -16t66 -45t36.5 -68.5t7 -87.5l-2 -8
q-2 -11 -11.5 -19t-21.5 -8h-407l-3.5 -17.5t-2.5 -17.5q-5 -37 3.5 -69t29 -55.5t51.5 -37t72 -13.5q40 0 80 11.5t74 32.5q11 7 20.5 5.5t14.5 -9.5l6 -9q5 -8 3.5 -18t-9.5 -15q-43 -29 -99 -45.5t-117 -16.5zM549 329q-4 55 -35.5 89.5t-98.5 34.5q-65 0 -117.5 -34.5
t-83.5 -89.5h335z" />
    <glyph glyph-name="Edotaccent" unicode="&#x116;" horiz-adv-x="671" 
d="M501 746q-29 0 -44 19.5t-9 47.5q6 27 29 46.5t52 19.5q28 0 43.5 -19.5t9.5 -46.5q-6 -28 -30 -47.5t-51 -19.5zM103 0q-11 0 -17.5 8t-3.5 19l137 646q2 11 11.5 19t21.5 8h465q11 0 17 -8t4 -19l-5 -26q-3 -11 -12.5 -19t-20.5 -8h-404l-49 -229h291q11 0 17.5 -8
t3.5 -19l-5 -27q-3 -11 -12.5 -19t-20.5 -8h-291l-49 -230h404q11 0 17.5 -8t3.5 -19l-5 -26q-3 -11 -12.5 -19t-20.5 -8h-465z" />
    <glyph glyph-name="edotaccent" unicode="&#x117;" horiz-adv-x="617" 
d="M438 569q-29 0 -44 19.5t-9 47.5q6 27 29.5 46.5t51.5 19.5t43.5 -19.5t9.5 -46.5q-6 -28 -29.5 -47.5t-51.5 -19.5zM316 -13q-62 0 -108.5 20t-74.5 55.5t-37.5 83.5t2.5 104t41.5 104t72.5 83.5t98 55.5t118 20q57 0 97.5 -16t66 -45t36.5 -68.5t7 -87.5l-2 -8
q-2 -11 -11.5 -19t-21.5 -8h-407l-3.5 -17.5t-2.5 -17.5q-5 -37 3.5 -69t29 -55.5t51.5 -37t72 -13.5q40 0 80 11.5t74 32.5q11 7 20.5 5.5t14.5 -9.5l6 -9q5 -8 3.5 -18t-9.5 -15q-43 -29 -99 -45.5t-117 -16.5zM549 329q-4 55 -35.5 89.5t-98.5 34.5q-65 0 -117.5 -34.5
t-83.5 -89.5h335z" />
    <glyph glyph-name="Eogonek" unicode="&#x118;" horiz-adv-x="671" 
d="M296 620l-49 -229h291q11 0 17.5 -8t3.5 -19l-5 -27q-3 -11 -12.5 -19t-20.5 -8h-291l-49 -230h404q11 0 17.5 -8t3.5 -19l-5 -26q-3 -11 -12.5 -19t-20.5 -8h-216q0 -8 -7 -18.5t-19 -21.5q-41 -37 -49 -71q-5 -27 6.5 -40.5t31.5 -13.5q18 0 37 10q22 10 32 -3l6 -7
q6 -8 3 -20t-16 -20q-20 -13 -42 -19.5t-42 -6.5q-42 0 -68 26t-15 76q6 30 30.5 63.5t66.5 65.5h-204q-11 0 -17.5 8t-3.5 19l137 646q2 11 11.5 19t21.5 8h465q11 0 17 -8t4 -19l-5 -26q-3 -11 -12.5 -19t-20.5 -8h-404z" />
    <glyph glyph-name="eogonek" unicode="&#x119;" horiz-adv-x="617" 
d="M428 513q57 0 97.5 -16t66 -45t36.5 -68.5t7 -87.5l-2 -8q-2 -11 -11.5 -19t-21.5 -8h-407l-3.5 -17.5t-2.5 -17.5q-5 -37 3.5 -69t29 -55.5t51.5 -37t72 -13.5q40 0 80 11.5t74 32.5q11 7 20.5 5.5t14.5 -9.5l6 -9q5 -8 3.5 -18t-9.5 -15q-38 -26 -88 -42t-105 -19
q-5 -16 -24 -33q-41 -37 -49 -71q-5 -27 6 -40.5t32 -13.5q18 0 37 10q22 10 32 -3l6 -7q6 -8 3 -20t-16 -20q-20 -13 -42.5 -19.5t-41.5 -6.5q-42 0 -68 26t-15 76q6 29 28 60.5t60 61.5q-54 5 -95 27t-65.5 56.5t-32 80.5t3.5 98q12 56 41.5 104t72.5 83.5t98 55.5t118 20
zM549 329q-4 55 -35.5 89.5t-98.5 34.5q-65 0 -117.5 -34.5t-83.5 -89.5h335z" />
    <glyph glyph-name="Ecaron" unicode="&#x11a;" horiz-adv-x="671" 
d="M474 743q-12 0 -16 8l-62 106q-11 19 -0.5 29.5t28.5 10.5h39q13 0 17 -11l33 -83l68 83q9 11 23 11h39q16 0 23.5 -9.5t-11.5 -28.5l-109 -108q-8 -8 -20 -8h-52zM103 0q-11 0 -17.5 8t-3.5 19l137 646q2 11 11.5 19t21.5 8h465q11 0 17 -8t4 -19l-5 -26
q-3 -11 -12.5 -19t-20.5 -8h-404l-49 -229h291q11 0 17.5 -8t3.5 -19l-5 -27q-3 -11 -12.5 -19t-20.5 -8h-291l-49 -230h404q11 0 17.5 -8t3.5 -19l-5 -26q-3 -11 -12.5 -19t-20.5 -8h-465z" />
    <glyph glyph-name="ecaron" unicode="&#x11b;" horiz-adv-x="617" 
d="M413 570q-4 0 -8.5 2t-6.5 6l-60 106q-11 19 -0.5 29.5t27.5 10.5h38q14 0 18 -11l31 -83l68 83q8 11 21 11h38q16 0 23.5 -9.5t-11.5 -28.5l-107 -108q-8 -8 -20 -8h-51zM316 -13q-62 0 -108.5 20t-74.5 55.5t-37.5 83.5t2.5 104t41.5 104t72.5 83.5t98 55.5t118 20
q57 0 97.5 -16t66 -45t36.5 -68.5t7 -87.5l-2 -8q-2 -11 -11.5 -19t-21.5 -8h-407l-3.5 -17.5t-2.5 -17.5q-5 -37 3.5 -69t29 -55.5t51.5 -37t72 -13.5q40 0 80 11.5t74 32.5q11 7 20.5 5.5t14.5 -9.5l6 -9q5 -8 3.5 -18t-9.5 -15q-43 -29 -99 -45.5t-117 -16.5zM549 329
q-4 55 -35.5 89.5t-98.5 34.5q-65 0 -117.5 -34.5t-83.5 -89.5h335z" />
    <glyph glyph-name="Gbreve" unicode="&#x11e;" horiz-adv-x="798" 
d="M607 766q-69 0 -103.5 31.5t-28.5 89.5q1 12 10.5 20t21.5 8h20q22 0 21 -23q0 -32 20 -45t54 -14q36 0 61 13t37 45q5 11 13 17.5t18 6.5h21q13 0 19.5 -7.5t2.5 -18.5q-19 -60 -68 -91.5t-119 -31.5zM428 -12q-80 0 -142 28t-101 77t-53 115t2 142q17 76 58.5 142
t101.5 115t134 77t154 28q89 0 152.5 -30.5t101.5 -87.5q6 -8 2 -18.5t-14 -18.5l-30 -22q-11 -8 -21.5 -6.5t-15.5 10.5q-28 42 -75.5 64.5t-117.5 22.5q-60 0 -115.5 -21.5t-101.5 -58.5t-78 -87.5t-45 -108.5q-12 -60 -1 -111.5t42 -90t79.5 -60t109.5 -21.5
q70 0 129.5 26t107.5 72l28 132h-211q-11 0 -17.5 8t-3.5 19l5 23q2 11 11.5 19t20.5 8h260q12 0 18 -8t4 -19l-47 -218q-1 -9 -9 -15q-73 -63 -150 -94.5t-172 -31.5z" />
    <glyph glyph-name="gbreve" unicode="&#x11f;" horiz-adv-x="626" 
d="M432 581q-68 0 -102.5 31.5t-29.5 89.5q1 12 11 20t22 8h20q22 0 20 -23q0 -32 20 -45t55 -14q35 0 60.5 13t37.5 45q5 11 13 17.5t18 6.5h21q12 0 19 -7.5t3 -18.5q-20 -60 -68.5 -91.5t-119.5 -31.5zM193 -293q-95 -1 -140 38t-33 105q7 38 32 72t64 55q-59 18 -51 76
q5 33 33.5 62t66.5 58q-66 51 -46 148q19 87 94 138.5t194 53.5h17t17 -1l206 23q13 2 21.5 -2t3.5 -24v-3q-4 -19 -13 -23t-20 -4h-83q48 -21 68.5 -61t8.5 -97q-19 -88 -95 -140.5t-203 -52.5q-81 0 -130 24q-26 -16 -49 -35t-25 -41q-2 -18 10 -25.5t34 -9t52.5 1
t64.5 5.5q29 2 59 5.5t59 4.5q97 2 138.5 -40.5t23.5 -116.5q-12 -53 -50 -90t-91 -60.5t-115 -34t-123 -9.5zM347 185q81 0 134.5 36.5t66.5 99.5q14 63 -24 99t-119 36t-133.5 -36t-66.5 -99q-13 -63 24.5 -99.5t117.5 -36.5zM222 -236q54 -2 102 4t85.5 21t62.5 38.5
t34 57.5q12 46 -19 71.5t-97 23.5q-19 0 -47.5 -2.5t-58 -5.5t-54.5 -5t-37 -2q-31 -13 -53.5 -40.5t-28.5 -60.5q-8 -44 20.5 -71t90.5 -29z" />
    <glyph glyph-name="Gdotaccent" unicode="&#x120;" horiz-adv-x="798" 
d="M595 763q-28 0 -43.5 19.5t-9.5 47.5q6 27 29.5 46.5t51.5 19.5t43.5 -19.5t9.5 -46.5q-6 -28 -29.5 -47.5t-51.5 -19.5zM428 -12q-80 0 -142 28t-101 77t-53 115t2 142q17 76 58.5 142t101.5 115t134 77t154 28q89 0 152.5 -30.5t101.5 -87.5q6 -8 2 -18.5t-14 -18.5
l-30 -22q-11 -8 -21.5 -6.5t-15.5 10.5q-28 42 -75.5 64.5t-117.5 22.5q-60 0 -115.5 -21.5t-101.5 -58.5t-78 -87.5t-45 -108.5q-12 -60 -1 -111.5t42 -90t79.5 -60t109.5 -21.5q70 0 129.5 26t107.5 72l28 132h-211q-11 0 -17.5 8t-3.5 19l5 23q2 11 11.5 19t20.5 8h260
q12 0 18 -8t4 -19l-47 -218q-1 -9 -9 -15q-73 -63 -150 -94.5t-172 -31.5z" />
    <glyph glyph-name="gdotaccent" unicode="&#x121;" horiz-adv-x="626" 
d="M441 604q-28 0 -43 19.5t-9 47.5q5 27 28.5 46.5t52.5 19.5q28 0 43 -19.5t10 -46.5q-6 -28 -30 -47.5t-52 -19.5zM193 -293q-95 -1 -140 38t-33 105q7 38 32 72t64 55q-59 18 -51 76q5 33 33.5 62t66.5 58q-66 51 -46 148q19 87 94 138.5t194 53.5h17t17 -1l206 23
q13 2 21.5 -2t3.5 -24v-3q-4 -19 -13 -23t-20 -4h-83q48 -21 68.5 -61t8.5 -97q-19 -88 -95 -140.5t-203 -52.5q-81 0 -130 24q-26 -16 -49 -35t-25 -41q-2 -18 10 -25.5t34 -9t52.5 1t64.5 5.5q29 2 59 5.5t59 4.5q97 2 138.5 -40.5t23.5 -116.5q-12 -53 -50 -90t-91 -60.5
t-115 -34t-123 -9.5zM347 185q81 0 134.5 36.5t66.5 99.5q14 63 -24 99t-119 36t-133.5 -36t-66.5 -99q-13 -63 24.5 -99.5t117.5 -36.5zM222 -236q54 -2 102 4t85.5 21t62.5 38.5t34 57.5q12 46 -19 71.5t-97 23.5q-19 0 -47.5 -2.5t-58 -5.5t-54.5 -5t-37 -2
q-31 -13 -53.5 -40.5t-28.5 -60.5q-8 -44 20.5 -71t90.5 -29z" />
    <glyph glyph-name="uni0122" unicode="&#x122;" horiz-adv-x="798" 
d="M428 -12q-80 0 -142 28t-101 77t-53 115t2 142q17 76 58.5 142t101.5 115t134 77t154 28q89 0 152.5 -30.5t101.5 -87.5q6 -8 2 -18.5t-14 -18.5l-30 -22q-11 -8 -21.5 -6.5t-15.5 10.5q-28 42 -75.5 64.5t-117.5 22.5q-60 0 -115.5 -21.5t-101.5 -58.5t-78 -87.5
t-45 -108.5q-12 -60 -1 -111.5t42 -90t79.5 -60t109.5 -21.5q70 0 129.5 26t107.5 72l28 132h-211q-11 0 -17.5 8t-3.5 19l5 23q2 11 11.5 19t20.5 8h260q12 0 18 -8t4 -19l-47 -218q-1 -9 -9 -15q-73 -63 -150 -94.5t-172 -31.5zM343 -242q-11 0 -15 9.5t0 22.5l43 121
q8 22 30 22h41q19 0 24.5 -14.5t-6.5 -31.5l-83 -116q-8 -13 -22 -13h-12z" />
    <glyph glyph-name="uni0123" unicode="&#x123;" horiz-adv-x="626" 
d="M524 768q11 0 15 -9.5t-1 -22.5l-42 -121q-8 -22 -30 -22h-41q-19 0 -24.5 14.5t6.5 31.5l82 116q9 13 23 13h12zM193 -293q-95 -1 -140 38t-33 105q7 38 32 72t64 55q-59 18 -51 76q5 33 33.5 62t66.5 58q-66 51 -46 148q19 87 94 138.5t194 53.5h17t17 -1l206 23
q13 2 21.5 -2t3.5 -24v-3q-4 -19 -13 -23t-20 -4h-83q48 -21 68.5 -61t8.5 -97q-19 -88 -95 -140.5t-203 -52.5q-81 0 -130 24q-26 -16 -49 -35t-25 -41q-2 -18 10 -25.5t34 -9t52.5 1t64.5 5.5q29 2 59 5.5t59 4.5q97 2 138.5 -40.5t23.5 -116.5q-12 -53 -50 -90t-91 -60.5
t-115 -34t-123 -9.5zM347 185q81 0 134.5 36.5t66.5 99.5q14 63 -24 99t-119 36t-133.5 -36t-66.5 -99q-13 -63 24.5 -99.5t117.5 -36.5zM222 -236q54 -2 102 4t85.5 21t62.5 38.5t34 57.5q12 46 -19 71.5t-97 23.5q-19 0 -47.5 -2.5t-58 -5.5t-54.5 -5t-37 -2
q-31 -13 -53.5 -40.5t-28.5 -60.5q-8 -44 20.5 -71t90.5 -29z" />
    <glyph glyph-name="Hbar" unicode="&#x126;" horiz-adv-x="742" 
d="M103 0q-11 0 -17.5 8t-3.5 19l137 646q2 11 11.5 19t21.5 8h34q11 0 17 -8t4 -19l-27 -128h414l27 128q2 11 11.5 19t21.5 8h34q11 0 17 -8t4 -19l-137 -646q-3 -11 -12.5 -19t-20.5 -8h-34q-11 0 -17.5 8t-3.5 19l60 282h-414l-60 -282q-3 -11 -12.5 -19t-20.5 -8h-34z
M248 395h414l24 112h-414z" />
    <glyph glyph-name="hbar" unicode="&#x127;" horiz-adv-x="603" 
d="M84 0q-11 0 -17.5 8t-3.5 19l115 541h-35q-12 0 -19 2.5t-4 17.5t11.5 17.5t19.5 2.5h35l14 65q2 11 11.5 19t21.5 8h34q11 0 17 -8t4 -19l-14 -65h34q12 0 19 -2.5t4 -17.5t-11.5 -17.5t-19.5 -2.5h-34l-36 -168q55 59 122.5 87t132.5 26q49 -1 79 -15t44.5 -40
t15.5 -63t-9 -85l-60 -283q-3 -11 -12.5 -19t-20.5 -8h-35q-11 0 -17.5 8t-3.5 19l54 253q16 76 -3 117t-94 41q-58 1 -115 -29t-93 -81l-64 -301q-3 -11 -12.5 -19t-20.5 -8h-34z" />
    <glyph glyph-name="Imacron" unicode="&#x12a;" horiz-adv-x="240" 
d="M184 748q-8 0 -11.5 8t-0.5 19l3 14q2 11 9 19t14 8h187q9 0 12.5 -8t1.5 -19l-3 -14q-3 -11 -10 -19t-15 -8h-187zM103 0q-11 0 -17.5 8t-3.5 19l137 646q2 11 11.5 19t21.5 8h34q11 0 17 -8t4 -19l-137 -646q-3 -11 -12.5 -19t-20.5 -8h-34z" />
    <glyph glyph-name="imacron" unicode="&#x12b;" horiz-adv-x="201" 
d="M142 564q-6 0 -9 8t0 19l3 14q2 11 8 19t12 8h150q6 0 9 -8t1 -19l-3 -14q-3 -11 -9 -19t-12 -8h-150zM84 0q-11 0 -17.5 8t-3.5 19l95 446q2 11 11.5 19t20.5 8h34q12 0 18 -8t4 -19l-95 -446q-3 -11 -12.5 -19t-20.5 -8h-34z" />
    <glyph glyph-name="Iogonek" unicode="&#x12e;" horiz-adv-x="240" 
d="M169 -164q6 -8 3 -20t-15 -20q-21 -13 -43 -19.5t-42 -6.5q-42 0 -68 26t-15 76q6 31 31.5 65t69.5 67q-12 6 -8 23l137 646q2 11 11.5 19t21.5 8h34q11 0 17 -8t4 -19l-137 -646q-3 -11 -12.5 -19t-20.5 -8h-6q-2 -17 -25 -39q-42 -37 -49 -71q-6 -27 5.5 -40.5
t31.5 -13.5q18 0 37 10q22 10 33 -3z" />
    <glyph glyph-name="iogonek" unicode="&#x12f;" horiz-adv-x="201" 
d="M222 568q-25 0 -38.5 17t-8.5 43q6 24 26.5 41t45.5 17t38.5 -17t7.5 -41q-5 -26 -25.5 -43t-45.5 -17zM41 -230q-41 0 -67.5 26t-15.5 76q6 29 31.5 64t68.5 67l100 470q2 11 11.5 19t20.5 8h34q12 0 18 -8t4 -19l-95 -446q-3 -11 -7 -19t-7 -8h-8q-44 -25 -71 -55.5
t-33 -55.5q-5 -26 6.5 -40t32.5 -14q17 0 36 10q10 5 19 5t14 -8l5 -7q6 -8 4 -18.5t-13 -18.5q-22 -14 -45 -21t-43 -7z" />
    <glyph glyph-name="Idotaccent" unicode="&#x130;" horiz-adv-x="240" 
d="M280 739q-29 0 -44 19.5t-9 47.5q6 27 29.5 46.5t51.5 19.5t43.5 -19.5t9.5 -46.5q-6 -28 -29.5 -47.5t-51.5 -19.5zM103 0q-11 0 -17.5 8t-3.5 19l137 646q2 11 11.5 19t21.5 8h34q11 0 17 -8t4 -19l-137 -646q-3 -11 -12.5 -19t-20.5 -8h-34z" />
    <glyph glyph-name="dotlessi" unicode="&#x131;" horiz-adv-x="201" 
d="M84 0q-11 0 -17.5 8t-3.5 19l95 446q2 11 11.5 19t20.5 8h34q12 0 18 -8t4 -19l-95 -446q-3 -11 -12.5 -19t-20.5 -8h-34z" />
    <glyph glyph-name="uni0136" unicode="&#x136;" horiz-adv-x="680" 
d="M103 0q-11 0 -17.5 8t-3.5 19l137 646q2 11 11.5 19t21.5 8h34q11 0 17 -8t4 -19l-59 -278h132l305 297q8 8 20 8h29q24 0 24 -17t-24 -40l-297 -291l173 -295q17 -28 6 -42.5t-28 -14.5h-38q-12 0 -16 8l-179 299h-126l-59 -280q-3 -11 -12.5 -19t-20.5 -8h-34z
M238 -232q-11 0 -15 9.5t0 22.5l43 121q8 22 30 22h41q19 0 24.5 -14.5t-6.5 -31.5l-83 -116q-8 -13 -22 -13h-12z" />
    <glyph glyph-name="uni0137" unicode="&#x137;" horiz-adv-x="538" 
d="M84 0q-11 0 -17.5 8t-3.5 19l137 646q2 11 11.5 19t21.5 8h34q11 0 17 -8t4 -19l-80 -375h67l258 196q9 6 15 6h41q18 0 17.5 -14.5t-13.5 -24.5l-260 -205l168 -213q9 -11 2 -27t-34 -16h-32q-9 0 -14 6l-166 205h-67l-39 -184q-3 -11 -12.5 -19t-20.5 -8h-34zM183 -235
q-11 0 -14.5 9.5t0.5 22.5l43 121q8 22 29 22h41q19 0 24.5 -14.5t-6.5 -31.5l-82 -116q-9 -13 -23 -13h-12z" />
    <glyph glyph-name="Lacute" unicode="&#x139;" horiz-adv-x="648" 
d="M283 741q-13 0 -18 7.5t4 18.5l95 116q8 11 22 11h47q17 0 20 -11.5t-18 -30.5l-100 -91q-12 -11 -20.5 -15.5t-31.5 -4.5zM103 0q-11 0 -17.5 8t-3.5 19l137 646q2 11 11.5 19t21.5 8h34q11 0 17 -8t4 -19l-126 -593h404q11 0 17.5 -8t3.5 -19l-5 -26q-3 -11 -12.5 -19
t-20.5 -8h-465z" />
    <glyph glyph-name="lacute" unicode="&#x13a;" horiz-adv-x="201" 
d="M252 744q-11 0 -9 16t17 34l77 94q8 11 22 11h15q13 0 20.5 -6t10 -15t-1 -19.5t-14.5 -19.5l-95 -88q-7 -7 -19 -7h-23zM84 0q-11 0 -17.5 8t-3.5 19l137 646q2 11 11.5 19t21.5 8h34q11 0 17 -8t4 -19l-137 -646q-3 -11 -12.5 -19t-20.5 -8h-34z" />
    <glyph glyph-name="uni013B" unicode="&#x13b;" horiz-adv-x="648" 
d="M103 0q-11 0 -17.5 8t-3.5 19l137 646q2 11 11.5 19t21.5 8h34q11 0 17 -8t4 -19l-126 -593h404q11 0 17.5 -8t3.5 -19l-5 -26q-3 -11 -12.5 -19t-20.5 -8h-465zM241 -232q-11 0 -15 9.5t0 22.5l43 121q8 22 30 22h41q19 0 24.5 -14.5t-6.5 -31.5l-83 -116
q-8 -13 -22 -13h-12z" />
    <glyph glyph-name="uni013C" unicode="&#x13c;" horiz-adv-x="201" 
d="M84 0q-11 0 -17.5 8t-3.5 19l137 646q2 11 11.5 19t21.5 8h34q11 0 17 -8t4 -19l-137 -646q-3 -11 -12.5 -19t-20.5 -8h-34zM4 -235q-11 0 -14.5 9.5t0.5 22.5l43 121q8 22 29 22h41q19 0 24.5 -14.5t-6.5 -31.5l-82 -116q-9 -13 -23 -13h-12z" />
    <glyph glyph-name="Lcaron" unicode="&#x13d;" horiz-adv-x="648" 
d="M265 741q-11 0 -16 8l-56 106q-11 19 -0.5 29.5t26.5 10.5h37q14 0 16 -11l30 -83l66 83q9 11 21 11h36q16 0 23 -9.5t-12 -28.5l-104 -108q-8 -8 -18 -8h-49zM103 0q-11 0 -17.5 8t-3.5 19l137 646q2 11 11.5 19t21.5 8h34q11 0 17 -8t4 -19l-126 -593h404q11 0 17.5 -8
t3.5 -19l-5 -26q-3 -11 -12.5 -19t-20.5 -8h-465z" />
    <glyph glyph-name="lcaron" unicode="&#x13e;" horiz-adv-x="201" 
d="M237 744q-4 0 -8.5 2t-6.5 6l-60 106q-11 19 -0.5 29.5t27.5 10.5h38q14 0 18 -11l31 -83l68 83q8 11 21 11h38q16 0 23.5 -9.5t-11.5 -28.5l-107 -108q-8 -8 -20 -8h-51zM84 0q-11 0 -17.5 8t-3.5 19l137 646q2 11 11.5 19t21.5 8h34q11 0 17 -8t4 -19l-137 -646
q-3 -11 -12.5 -19t-20.5 -8h-34z" />
    <glyph glyph-name="Lslash" unicode="&#x141;" horiz-adv-x="648" 
d="M585 80q11 0 17.5 -8t3.5 -19l-5 -26q-3 -11 -12.5 -19t-20.5 -8h-465q-11 0 -17.5 8t-3.5 19l52 244l-30 -22q-10 -8 -20 -8.5t-14 6.5l-6 8q-4 7 0.5 16.5t13.5 17.5l70 51l71 333q2 11 11.5 19t21.5 8h34q11 0 17 -8t4 -19l-55 -257l67 49q10 8 20 8.5t14 -6.5l6 -8
q3 -7 -1 -16.5t-14 -17.5l-106 -78l-57 -267h404z" />
    <glyph glyph-name="lslash" unicode="&#x142;" horiz-adv-x="201" 
d="M267 421q8 -5 7 -14.5t-9 -18.5l-49 -56l-65 -305q-3 -11 -12.5 -19t-20.5 -8h-34q-11 0 -17.5 8t-3.5 19l37 176l-30 -34q-9 -9 -19.5 -12t-16.5 2l-9 6q-7 5 -6 15t9 19l93 104l79 370q2 11 11.5 19t21.5 8h34q11 0 17 -8t4 -19l-52 -246q15 7 24 0z" />
    <glyph glyph-name="Nacute" unicode="&#x143;" horiz-adv-x="745" 
d="M521 740q-12 0 -17 7.5t4 18.5l94 116q9 11 23 11h47q17 0 19.5 -11.5t-17.5 -30.5l-100 -91q-13 -11 -21 -15.5t-32 -4.5zM103 0q-11 0 -17.5 8t-3.5 19l137 646q2 11 11.5 19t21.5 8h52q12 0 16 -9l290 -549l113 531q2 11 11.5 19t21.5 8h35q11 0 17 -8t4 -19
l-137 -646q-3 -11 -12.5 -19t-20.5 -8h-52q-12 0 -16 9l-291 549l-113 -531q-3 -11 -12.5 -19t-20.5 -8h-34z" />
    <glyph glyph-name="nacute" unicode="&#x144;" horiz-adv-x="610" 
d="M386 563q-12 0 -17.5 7.5t3.5 18.5l95 116q8 11 22 11h47q18 0 20.5 -11.5t-18.5 -30.5l-100 -91q-12 -11 -20.5 -15.5t-31.5 -4.5zM90 0q-11 0 -17.5 8t-3.5 19l95 446q2 11 11.5 19t20.5 8h26q12 0 18 -8t4 -19l-18 -84q57 65 128 95.5t138 28.5q49 -1 79 -15t44.5 -40
t15.5 -63t-9 -85l-60 -283q-3 -11 -12.5 -19t-20.5 -8h-36q-11 0 -17.5 8t-3.5 19l54 253q8 38 8 67.5t-10.5 49.5t-33.5 30.5t-61 10.5q-58 1 -114.5 -29t-93.5 -81l-64 -301q-3 -11 -12.5 -19t-20.5 -8h-34z" />
    <glyph glyph-name="uni0145" unicode="&#x145;" horiz-adv-x="745" 
d="M103 0q-11 0 -17.5 8t-3.5 19l137 646q2 11 11.5 19t21.5 8h52q12 0 16 -9l290 -549l113 531q2 11 11.5 19t21.5 8h35q11 0 17 -8t4 -19l-137 -646q-3 -11 -12.5 -19t-20.5 -8h-52q-12 0 -16 9l-291 549l-113 -531q-3 -11 -12.5 -19t-20.5 -8h-34zM276 -232
q-11 0 -15 9.5t0 22.5l43 121q8 22 30 22h41q19 0 24.5 -14.5t-6.5 -31.5l-83 -116q-8 -13 -22 -13h-12z" />
    <glyph glyph-name="uni0146" unicode="&#x146;" horiz-adv-x="610" 
d="M90 0q-11 0 -17.5 8t-3.5 19l95 446q2 11 11.5 19t20.5 8h26q12 0 18 -8t4 -19l-18 -84q57 65 128 95.5t138 28.5q49 -1 79 -15t44.5 -40t15.5 -63t-9 -85l-60 -283q-3 -11 -12.5 -19t-20.5 -8h-36q-11 0 -17.5 8t-3.5 19l54 253q8 38 8 67.5t-10.5 49.5t-33.5 30.5
t-61 10.5q-58 1 -114.5 -29t-93.5 -81l-64 -301q-3 -11 -12.5 -19t-20.5 -8h-34zM209 -232q-11 0 -15 9.5t0 22.5l43 121q8 22 30 22h41q19 0 24.5 -14.5t-6.5 -31.5l-83 -116q-8 -13 -22 -13h-12z" />
    <glyph glyph-name="Ncaron" unicode="&#x147;" horiz-adv-x="745" 
d="M507 741q-12 0 -17 8l-61 106q-11 19 -0.5 29.5t27.5 10.5h39q14 0 18 -11l32 -83l69 83q9 11 22 11h39q17 0 24 -9.5t-12 -28.5l-109 -108q-8 -8 -19 -8h-52zM103 0q-11 0 -17.5 8t-3.5 19l137 646q2 11 11.5 19t21.5 8h52q12 0 16 -9l290 -549l113 531q2 11 11.5 19
t21.5 8h35q11 0 17 -8t4 -19l-137 -646q-3 -11 -12.5 -19t-20.5 -8h-52q-12 0 -16 9l-291 549l-113 -531q-3 -11 -12.5 -19t-20.5 -8h-34z" />
    <glyph glyph-name="ncaron" unicode="&#x148;" horiz-adv-x="610" 
d="M398 562q-3 0 -8 2t-7 6l-59 106q-11 19 -0.5 29.5t26.5 10.5h38q14 0 18 -11l31 -83l68 83q8 11 21 11h38q17 0 24 -9.5t-12 -28.5l-107 -108q-8 -8 -20 -8h-51zM90 0q-11 0 -17.5 8t-3.5 19l95 446q2 11 11.5 19t20.5 8h26q12 0 18 -8t4 -19l-18 -84q57 65 128 95.5
t138 28.5q49 -1 79 -15t44.5 -40t15.5 -63t-9 -85l-60 -283q-3 -11 -12.5 -19t-20.5 -8h-36q-11 0 -17.5 8t-3.5 19l54 253q8 38 8 67.5t-10.5 49.5t-33.5 30.5t-61 10.5q-58 1 -114.5 -29t-93.5 -81l-64 -301q-3 -11 -12.5 -19t-20.5 -8h-34z" />
    <glyph glyph-name="Eng" unicode="&#x14a;" horiz-adv-x="745" 
d="M346 -264q-11 0 -17 8t-3 19l1 6q2 11 11 18.5t20 7.5q91 6 145.5 57t71.5 125l1 23l-293 562l-113 -535q-3 -11 -12.5 -19t-20.5 -8h-34q-11 0 -17.5 8t-3.5 19l137 646q2 11 11.5 19t21.5 8h56q12 0 16 -9l286 -552l113 534q2 11 11.5 19t21.5 8h35q11 0 17 -8t4 -19
l-145 -682q-12 -57 -39 -104t-67.5 -80.5t-94.5 -52t-120 -18.5z" />
    <glyph glyph-name="eng" unicode="&#x14b;" horiz-adv-x="610" 
d="M360 -245q-11 0 -16.5 7.5t-3.5 18.5l1 4q5 23 31 26q38 6 52.5 34.5t23.5 71.5l78 363q8 38 8 67.5t-10.5 49.5t-33.5 30.5t-61 10.5q-58 1 -114.5 -29t-93.5 -81l-64 -301q-3 -11 -12.5 -19t-20.5 -8h-34q-11 0 -17.5 8t-3.5 19l95 446q2 11 11.5 19t20.5 8h26
q12 0 18 -8t4 -19l-18 -84q57 65 128 95.5t138 28.5q49 -1 79 -15t44.5 -40t15.5 -63t-9 -85l-82 -384q-17 -81 -58 -126.5t-122 -44.5z" />
    <glyph glyph-name="Omacron" unicode="&#x14c;" horiz-adv-x="860" 
d="M459 767q-11 0 -17.5 8t-3.5 19l3 14q2 11 11.5 19t20.5 8h269q12 0 18 -8t4 -19l-3 -14q-3 -11 -12.5 -19t-20.5 -8h-269zM427 -12q-79 0 -141 28t-101 77t-53 115t2 142q17 76 59 142t101.5 115t133.5 77t153 28q80 0 141.5 -28t101 -77t53.5 -115t-3 -142
q-16 -76 -58 -142t-102 -115t-133.5 -77t-153.5 -28zM446 74q59 0 114.5 21.5t101 58.5t78 87.5t44.5 108.5q13 58 2 108.5t-41 87.5t-76.5 58.5t-105.5 21.5t-114.5 -21.5t-101 -58.5t-78 -87.5t-45.5 -108.5q-12 -58 -1 -108.5t41 -87.5t76.5 -58.5t105.5 -21.5z" />
    <glyph glyph-name="omacron" unicode="&#x14d;" horiz-adv-x="634" 
d="M307 570q-11 0 -17.5 8t-3.5 19l3 14q2 11 11.5 19t21.5 8h269q11 0 17 -8t4 -19l-3 -14q-3 -11 -12.5 -19t-20.5 -8h-269zM314 -13q-65 0 -111.5 20t-73.5 55.5t-35 83.5t4 104t40 104t70 83.5t97 55.5t121 20t112.5 -20t73.5 -55.5t35 -83.5t-4 -104t-40 -104
t-70.5 -83.5t-97.5 -55.5t-121 -20zM330 61q44 0 81.5 14.5t66 40t48.5 60t28 74.5q9 40 4 74.5t-23.5 60t-49.5 40t-75 14.5t-81 -14.5t-65.5 -40t-48 -60t-28.5 -74.5q-8 -40 -3.5 -74.5t22.5 -60t49 -40t75 -14.5z" />
    <glyph glyph-name="Ohungarumlaut" unicode="&#x150;" horiz-adv-x="860" 
d="M502 747q-12 0 -17.5 7.5t3.5 18.5l95 116q9 11 22 11h47q18 0 20.5 -11.5t-18.5 -30.5l-100 -91q-12 -11 -20.5 -15.5t-31.5 -4.5zM668 747q-12 0 -17.5 7.5t3.5 18.5l95 116q9 11 22 11h47q18 0 20.5 -11.5t-18.5 -30.5l-100 -91q-12 -11 -20.5 -15.5t-31.5 -4.5z
M427 -12q-79 0 -141 28t-101 77t-53 115t2 142q17 76 59 142t101.5 115t133.5 77t153 28q80 0 141.5 -28t101 -77t53.5 -115t-3 -142q-16 -76 -58 -142t-102 -115t-133.5 -77t-153.5 -28zM446 74q59 0 114.5 21.5t101 58.5t78 87.5t44.5 108.5q13 58 2 108.5t-41 87.5
t-76.5 58.5t-105.5 21.5t-114.5 -21.5t-101 -58.5t-78 -87.5t-45.5 -108.5q-12 -58 -1 -108.5t41 -87.5t76.5 -58.5t105.5 -21.5z" />
    <glyph glyph-name="ohungarumlaut" unicode="&#x151;" horiz-adv-x="634" 
d="M358 569q-12 0 -17.5 7.5t3.5 18.5l95 116q9 11 22 11h47q18 0 20.5 -11.5t-17.5 -30.5l-101 -91q-12 -11 -20.5 -15.5t-31.5 -4.5zM524 569q-12 0 -17.5 7.5t3.5 18.5l95 116q9 11 22 11h47q18 0 20.5 -11.5t-17.5 -30.5l-101 -91q-12 -11 -20.5 -15.5t-31.5 -4.5z
M314 -13q-65 0 -111.5 20t-73.5 55.5t-35 83.5t4 104t40 104t70 83.5t97 55.5t121 20t112.5 -20t73.5 -55.5t35 -83.5t-4 -104t-40 -104t-70.5 -83.5t-97.5 -55.5t-121 -20zM330 61q44 0 81.5 14.5t66 40t48.5 60t28 74.5q9 40 4 74.5t-23.5 60t-49.5 40t-75 14.5t-81 -14.5
t-65.5 -40t-48 -60t-28.5 -74.5q-8 -40 -3.5 -74.5t22.5 -60t49 -40t75 -14.5z" />
    <glyph glyph-name="OE" unicode="&#x152;" horiz-adv-x="1204" 
d="M427 -13q-78 0 -139.5 28t-101 77t-54 115.5t1.5 142.5q17 76 59.5 142.5t102.5 115.5t133.5 77t152.5 28q98 0 170 -46l1 6q2 11 11.5 19t21.5 8h464q11 0 17 -8t4 -19l-5 -26q-3 -11 -12.5 -19t-20.5 -8h-403l-49 -231h278q11 0 17 -8t4 -19l-5 -24q-3 -11 -12.5 -19
t-20.5 -8h-278l-49 -231h403q11 0 17.5 -8t3.5 -19l-5 -26q-3 -11 -12.5 -19t-20.5 -8h-464q-11 0 -18 5t-5 12l3 16q-91 -46 -190 -46zM448 70q56 0 103.5 19t87.5 52l89 418q-26 33 -65.5 52t-95.5 19q-61 0 -117.5 -22t-102.5 -60t-78 -89t-45 -109q-12 -58 -1.5 -109
t40.5 -89t77 -60t108 -22z" />
    <glyph glyph-name="oe" unicode="&#x153;" horiz-adv-x="1075" 
d="M314 -13q-65 0 -111 20t-73.5 55.5t-35.5 83.5t4 104t40.5 104t70.5 83.5t97 55.5t120 20q88 0 138 -40.5t60 -104.5q20 32 47.5 58.5t61.5 46t72.5 30t79.5 10.5q55 0 95.5 -16t66.5 -45t37.5 -68.5t7.5 -87.5l-4 -17q-2 -11 -11.5 -19t-20.5 -8h-407q-3 -9 -3 -11.5
t-3 -12.5q-5 -37 3.5 -69.5t28.5 -56.5t52 -37.5t73 -13.5q40 0 80 11.5t74 32.5q11 7 21 5.5t15 -9.5l5 -9q5 -8 2.5 -19t-12.5 -18q-43 -28 -97.5 -43t-113.5 -15q-84 0 -136 40.5t-64 104.5q-37 -64 -104 -104.5t-156 -40.5zM1007 311q0 62 -34 102t-101 40
q-71 0 -126 -39.5t-83 -102.5h344zM328 54q44 0 81.5 15t66.5 41.5t49 62t29 77.5q9 41 4.5 77t-22.5 62.5t-49 41.5t-75 15t-81.5 -15t-66.5 -41.5t-48.5 -62.5t-28.5 -77q-9 -42 -4.5 -77.5t22.5 -62t49 -41.5t74 -15z" />
    <glyph glyph-name="Racute" unicode="&#x154;" horiz-adv-x="711" 
d="M433 741q-13 0 -18 7.5t4 18.5l95 116q8 11 22 11h47q17 0 20 -11.5t-18 -30.5l-100 -91q-12 -11 -20.5 -15.5t-31.5 -4.5zM103 0q-11 0 -17.5 8t-3.5 19l137 646q2 11 11.5 19t21.5 8h302q55 0 94 -17t62 -46.5t30 -69t-2 -84.5q-8 -36 -25.5 -68.5t-43.5 -59.5
t-59.5 -46t-73.5 -28l81 -233q6 -17 -4 -32.5t-28 -15.5h-36q-14 0 -17 12l-92 255h-219l-51 -240q-3 -11 -12.5 -19t-20.5 -8h-34zM238 348h234q34 0 64 10.5t53 28.5t38.5 42.5t21.5 53.5q12 59 -19 97.5t-100 38.5h-234z" />
    <glyph glyph-name="racute" unicode="&#x155;" horiz-adv-x="386" 
d="M272 569q-12 0 -17.5 7.5t3.5 18.5l95 116q9 11 22 11h47q18 0 20.5 -11.5t-17.5 -30.5l-101 -91q-12 -11 -20.5 -15.5t-31.5 -4.5zM84 0q-11 0 -17.5 8t-3.5 19l95 446q2 11 11.5 19t20.5 8h26q12 0 18 -8t4 -19l-20 -91q51 57 106 86.5t111 35.5q12 1 18.5 -7t3.5 -20
l-6 -28q-2 -12 -12 -19.5t-22 -7.5q-69 2 -120 -27t-84 -77l-62 -291q-3 -11 -12.5 -19t-20.5 -8h-34z" />
    <glyph glyph-name="uni0156" unicode="&#x156;" horiz-adv-x="711" 
d="M103 0q-11 0 -17.5 8t-3.5 19l137 646q2 11 11.5 19t21.5 8h302q55 0 94 -17t62 -46.5t30 -69t-2 -84.5q-8 -36 -25.5 -68.5t-43.5 -59.5t-59.5 -46t-73.5 -28l81 -233q6 -17 -4 -32.5t-28 -15.5h-36q-14 0 -17 12l-92 255h-219l-51 -240q-3 -11 -12.5 -19t-20.5 -8h-34z
M238 348h234q34 0 64 10.5t53 28.5t38.5 42.5t21.5 53.5q12 59 -19 97.5t-100 38.5h-234zM252 -242q-11 0 -15 9.5t0 22.5l43 121q8 22 30 22h41q19 0 24.5 -14.5t-6.5 -31.5l-83 -116q-8 -13 -22 -13h-12z" />
    <glyph glyph-name="uni0157" unicode="&#x157;" horiz-adv-x="386" 
d="M84 0q-11 0 -17.5 8t-3.5 19l95 446q2 11 11.5 19t20.5 8h26q12 0 18 -8t4 -19l-20 -91q51 57 106 86.5t111 35.5q12 1 18.5 -7t3.5 -20l-6 -28q-2 -12 -12 -19.5t-22 -7.5q-69 2 -120 -27t-84 -77l-62 -291q-3 -11 -12.5 -19t-20.5 -8h-34zM8 -232q-11 0 -15 9.5t0 22.5
l43 121q8 22 30 22h41q19 0 24.5 -14.5t-6.5 -31.5l-83 -116q-8 -13 -22 -13h-12z" />
    <glyph glyph-name="Rcaron" unicode="&#x158;" horiz-adv-x="711" 
d="M469 743q-12 0 -16 8l-62 106q-11 19 -0.5 29.5t28.5 10.5h39q13 0 17 -11l33 -83l68 83q9 11 23 11h39q16 0 23.5 -9.5t-11.5 -28.5l-109 -108q-8 -8 -20 -8h-52zM103 0q-11 0 -17.5 8t-3.5 19l137 646q2 11 11.5 19t21.5 8h302q55 0 94 -17t62 -46.5t30 -69t-2 -84.5
q-8 -36 -25.5 -68.5t-43.5 -59.5t-59.5 -46t-73.5 -28l81 -233q6 -17 -4 -32.5t-28 -15.5h-36q-14 0 -17 12l-92 255h-219l-51 -240q-3 -11 -12.5 -19t-20.5 -8h-34zM238 348h234q34 0 64 10.5t53 28.5t38.5 42.5t21.5 53.5q12 59 -19 97.5t-100 38.5h-234z" />
    <glyph glyph-name="rcaron" unicode="&#x159;" horiz-adv-x="386" 
d="M292 571q-3 0 -8 2t-7 6l-59 106q-11 19 -0.5 29.5t26.5 10.5h38q14 0 18 -11l31 -83l68 83q8 11 21 11h38q17 0 24 -9.5t-12 -28.5l-107 -108q-8 -8 -20 -8h-51zM84 0q-11 0 -17.5 8t-3.5 19l95 446q2 11 11.5 19t20.5 8h26q12 0 18 -8t4 -19l-20 -91q51 57 106 86.5
t111 35.5q12 1 18.5 -7t3.5 -20l-6 -28q-2 -12 -12 -19.5t-22 -7.5q-69 2 -120 -27t-84 -77l-62 -291q-3 -11 -12.5 -19t-20.5 -8h-34z" />
    <glyph glyph-name="Sacute" unicode="&#x15a;" horiz-adv-x="675" 
d="M471 747q-12 0 -17.5 7.5t3.5 18.5l95 116q9 11 22 11h47q18 0 20.5 -11.5t-18.5 -30.5l-100 -91q-12 -11 -20.5 -15.5t-31.5 -4.5zM332 -12q-176 0 -238 107q-5 8 -1.5 17.5t12.5 16.5l29 20q11 8 22 6.5t17 -12.5q22 -37 65.5 -57t109.5 -20q97 0 150 34t61 85
q7 45 -21.5 70t-74 41.5t-99 30.5t-97 36t-68 57.5t-10.5 95.5q9 42 34.5 78t64.5 62.5t89.5 41t108.5 14.5q83 -1 135 -29.5t72 -76.5q3 -8 -1 -17t-13 -15l-28 -18q-13 -9 -24 -6t-16 15q-15 34 -53.5 53t-92.5 19q-38 0 -70.5 -10t-57 -27t-40 -39t-21.5 -46
q-8 -41 20 -63.5t74 -38.5t100 -30t98 -37t69 -61t11 -101q-19 -90 -100.5 -143t-215.5 -53z" />
    <glyph glyph-name="sacute" unicode="&#x15b;" horiz-adv-x="523" 
d="M369 570q-12 0 -17.5 7.5t4.5 18.5l94 116q9 11 23 11h47q17 0 19.5 -11.5t-17.5 -30.5l-101 -91q-12 -11 -20 -15.5t-32 -4.5zM261 -13q-56 0 -108 13.5t-88 42.5q-8 6 -6.5 17t10.5 20l15 15q9 9 20 10t19 -6q30 -24 71 -35.5t81 -11.5q27 0 52 4.5t45 14.5t34 25
t18 36q6 28 -15.5 44.5t-56.5 28.5t-77 23t-76 28t-53.5 43.5t-9.5 70.5q6 32 26 58.5t50.5 45t70 29t84.5 10.5q113 0 176 -57q7 -8 5.5 -18.5t-10.5 -18.5l-15 -15q-10 -10 -21 -10.5t-19 7.5q-23 23 -53.5 35t-74.5 12q-50 0 -87.5 -23.5t-44.5 -57.5q-6 -29 15.5 -46.5
t56.5 -30t76.5 -24t76 -28.5t54 -42.5t10.5 -67.5q-8 -38 -31 -65t-56.5 -44t-75.5 -24.5t-88 -7.5z" />
    <glyph glyph-name="Scedilla" unicode="&#x15e;" horiz-adv-x="675" 
d="M276 515q-8 -41 20 -63.5t74 -38.5t100 -30t98 -37t69 -61t11 -101q-19 -90 -100.5 -143t-215.5 -53q-51 0 -93 9q9 -5 11 -13t-6 -16l-32 -33q40 -2 62 -29t14 -67q-9 -43 -46.5 -70.5t-91.5 -27.5q-39 0 -72 20q-8 5 -8.5 15t6.5 19l7 9q8 11 18.5 13t20.5 -3
q17 -8 37 -10q28 0 48 12.5t26 36.5q5 20 -5.5 35t-33.5 20q-19 5 -26 17t5 29l27 35q9 12 23 12h1q-90 24 -130 94q-5 8 -1.5 17.5t12.5 16.5l29 20q11 8 22 6.5t17 -12.5q22 -37 65.5 -57t109.5 -20q97 0 150 34t61 85q7 45 -21.5 70t-74 41.5t-99 30.5t-97 36t-68 57.5
t-10.5 95.5q9 42 34.5 78t64.5 62.5t89.5 41t108.5 14.5q83 -1 135 -29.5t72 -76.5q3 -8 -1 -17t-13 -15l-28 -18q-13 -9 -24 -6t-16 15q-15 34 -53.5 53t-92.5 19q-38 0 -70.5 -10t-57 -27t-40 -39t-21.5 -46z" />
    <glyph glyph-name="scedilla" unicode="&#x15f;" horiz-adv-x="523" 
d="M512 128q-8 -37 -30 -63.5t-54 -43.5t-72.5 -25t-85.5 -9q7 -11 -3 -22l-32 -33q39 -2 61.5 -29t13.5 -67q-9 -43 -46 -70.5t-92 -27.5q-39 0 -71 20q-8 5 -8.5 15t6.5 19l7 9q7 11 18 13t21 -3q16 -8 37 -10q28 0 47.5 12.5t25.5 36.5q5 20 -5.5 35t-32.5 20
q-20 5 -27 17t6 29l26 35q0 2 2 2q-46 4 -87.5 17.5t-71.5 37.5q-8 6 -6.5 17t10.5 20l15 15q9 9 20 10t19 -6q30 -24 71 -35.5t81 -11.5q27 0 52 4.5t45 14.5t34 25t18 36q6 28 -15.5 44.5t-56.5 28.5t-77 23t-76 28t-53.5 43.5t-9.5 70.5q6 32 26 58.5t50.5 45t70 29
t84.5 10.5q113 0 176 -57q7 -8 5.5 -18.5t-10.5 -18.5l-15 -15q-10 -10 -21 -10.5t-19 7.5q-23 23 -53.5 35t-74.5 12q-50 0 -87.5 -23.5t-44.5 -57.5q-6 -29 15.5 -46.5t56.5 -30t76.5 -24t76 -28.5t54 -42.5t10.5 -67.5z" />
    <glyph glyph-name="Scaron" unicode="&#x160;" horiz-adv-x="681" 
d="M461 745q-11 0 -16 8l-61 106q-11 19 -0.5 29.5t27.5 10.5h39q14 0 18 -11l32 -83l69 83q8 11 22 11h39q17 0 24 -9.5t-12 -28.5l-109 -108q-8 -8 -20 -8h-52zM332 -12q-176 0 -238 107q-5 8 -1.5 17.5t12.5 16.5l29 20q11 8 22 6.5t17 -12.5q22 -37 65.5 -57t109.5 -20
q97 0 150 34t61 85q7 45 -21.5 70t-74 41.5t-99 30.5t-97 36t-68 57.5t-10.5 95.5q9 42 34.5 78t64.5 62.5t89.5 41t108.5 14.5q83 -1 135 -29.5t72 -76.5q3 -8 -1 -17t-13 -15l-28 -18q-13 -9 -24 -6t-16 15q-15 34 -53.5 53t-92.5 19q-38 0 -70.5 -10t-57 -27t-40 -39
t-21.5 -46q-8 -41 20 -63.5t74 -38.5t100 -30t98 -37t69 -61t11 -101q-19 -90 -100.5 -143t-215.5 -53z" />
    <glyph glyph-name="scaron" unicode="&#x161;" horiz-adv-x="523" 
d="M357 570q-4 0 -8.5 2t-6.5 6l-60 106q-11 19 -0.5 29.5t27.5 10.5h38q14 0 18 -11l31 -83l68 83q8 11 21 11h38q16 0 23.5 -9.5t-11.5 -28.5l-107 -108q-8 -8 -20 -8h-51zM261 -13q-56 0 -108 13.5t-88 42.5q-8 6 -6.5 17t10.5 20l15 15q9 9 20 10t19 -6q30 -24 71 -35.5
t81 -11.5q27 0 52 4.5t45 14.5t34 25t18 36q6 28 -15.5 44.5t-56.5 28.5t-77 23t-76 28t-53.5 43.5t-9.5 70.5q6 32 26 58.5t50.5 45t70 29t84.5 10.5q113 0 176 -57q7 -8 5.5 -18.5t-10.5 -18.5l-15 -15q-10 -10 -21 -10.5t-19 7.5q-23 23 -53.5 35t-74.5 12
q-50 0 -87.5 -23.5t-44.5 -57.5q-6 -29 15.5 -46.5t56.5 -30t76.5 -24t76 -28.5t54 -42.5t10.5 -67.5q-8 -38 -31 -65t-56.5 -44t-75.5 -24.5t-88 -7.5z" />
    <glyph glyph-name="uni0162" unicode="&#x162;" horiz-adv-x="665" 
d="M734 700q11 0 17 -8t4 -19l-7 -34q-3 -11 -12.5 -19t-20.5 -8h-207l-124 -585q-3 -11 -12.5 -19t-20.5 -8h-7q11 -11 -1 -25l-32 -33q39 -2 61.5 -29t13.5 -67q-9 -43 -46 -70.5t-92 -27.5q-39 0 -71 20q-8 5 -8.5 15t6.5 19l7 9q7 11 18 13t21 -3q16 -8 37 -10
q28 0 47.5 12.5t25.5 36.5q5 20 -5.5 35t-32.5 20q-19 5 -26.5 17t5.5 29l26 35l6 6q-14 7 -10 25l124 585h-208q-11 0 -17.5 8t-3.5 19l7 34q2 11 11.5 19t21.5 8h505z" />
    <glyph glyph-name="uni0163" unicode="&#x163;" horiz-adv-x="377" 
d="M339 22q-4 -19 -23 -24q-16 -4 -32 -6.5t-32 -3.5q9 -11 -2 -23l-32 -33q39 -2 61.5 -29t13.5 -67q-9 -43 -46 -70.5t-92 -27.5q-39 0 -71 20q-8 5 -8.5 15t6.5 19l7 9q7 11 18 13t21 -3q16 -8 37 -10q28 0 47.5 12.5t25.5 36.5q5 20 -5.5 35t-32.5 20q-20 5 -27 17t6 29
l26 35l3 3q-72 7 -100 50.5t-8 139.5l53 251h-15q-11 0 -17 8t-4 19l4 16q2 11 9.5 19t16.5 8h21l20 93q2 11 11.5 19t21.5 8h35q11 0 17 -8t4 -19l-20 -93h129q12 0 18 -8t4 -19l-4 -16q-2 -11 -11.5 -19t-21.5 -8h-129l-52 -245q-15 -72 8 -99t83 -27q8 0 15.5 0.5
t14.5 1.5q16 2 25.5 -2t6.5 -18z" />
    <glyph glyph-name="Tcaron" unicode="&#x164;" horiz-adv-x="665" 
d="M467 741q-12 0 -17 8l-61 106q-11 19 -0.5 29.5t27.5 10.5h39q14 0 18 -11l32 -83l69 83q9 11 22 11h39q17 0 24 -9.5t-12 -28.5l-109 -108q-8 -8 -19 -8h-52zM315 0q-11 0 -17.5 8t-3.5 19l124 585h-208q-11 0 -17.5 8t-3.5 19l7 34q2 11 11.5 19t21.5 8h505q11 0 17 -8
t4 -19l-7 -34q-3 -11 -12.5 -19t-20.5 -8h-207l-124 -585q-3 -11 -12.5 -19t-20.5 -8h-36z" />
    <glyph glyph-name="tcaron" unicode="&#x165;" horiz-adv-x="377" 
d="M246 750q-10 0 -15 8l-57 106q-11 19 -0.5 29.5t26.5 10.5h37q13 0 17 -11l30 -83l67 83q7 11 21 11h37q16 0 22.5 -9.5t-11.5 -28.5l-105 -108q-8 -8 -19 -8h-50zM239 -12q-88 0 -124.5 43t-14.5 148l53 251h-15q-11 0 -17 8t-4 19l4 16q2 11 9.5 19t16.5 8h21l20 93
q2 11 11.5 19t21.5 8h35q11 0 17 -8t4 -19l-20 -93h129q12 0 18 -8t4 -19l-4 -16q-2 -11 -11.5 -19t-21.5 -8h-129l-52 -245q-15 -72 8 -99t83 -27q8 0 15.5 0.5t14.5 1.5q16 2 25.5 -2t6.5 -18l-4 -19q-4 -19 -23 -24t-38.5 -7.5t-38.5 -2.5z" />
    <glyph glyph-name="Tbar" unicode="&#x166;" horiz-adv-x="665" 
d="M734 700q11 0 17 -8t4 -19l-7 -34q-3 -11 -12.5 -19t-20.5 -8h-207l-48 -226h93q11 0 17.5 -8t3.5 -19l-3 -14q-2 -11 -11.5 -19t-20.5 -8h-93l-62 -291q-3 -11 -12.5 -19t-20.5 -8h-36q-11 0 -17.5 8t-3.5 19l62 291h-86q-12 0 -18 8t-4 19l3 14q3 11 12.5 19t20.5 8h86
l48 226h-208q-11 0 -17.5 8t-3.5 19l7 34q2 11 11.5 19t21.5 8h505z" />
    <glyph glyph-name="tbar" unicode="&#x167;" horiz-adv-x="379" 
d="M311 61q16 2 25 -4t6 -20l-3 -15q-4 -19 -23 -24t-38.5 -7.5t-38.5 -2.5q-88 0 -124.5 43t-14.5 148l20 95h-21q-9 0 -13.5 6.5t-2.5 15.5l2 12q2 9 9.5 15.5t16.5 6.5h21l21 100h-15q-11 0 -17 8t-4 19l4 16q2 11 9.5 19t16.5 8h21l38 178q3 11 12.5 19t20.5 8h35
q11 0 17.5 -8t3.5 -19l-38 -178h139q12 0 18 -8t4 -19l-4 -16q-2 -11 -11.5 -19t-21.5 -8h-139l-21 -100h102q9 0 14 -6.5t3 -15.5l-2 -12q-2 -9 -10 -15.5t-17 -6.5h-102l-19 -89q-15 -72 8 -99t83 -27q8 0 15.5 0.5t14.5 1.5z" />
    <glyph glyph-name="Umacron" unicode="&#x16a;" horiz-adv-x="754" 
d="M409 747q-12 0 -18 8t-3 19l2 14q3 11 12.5 19t20.5 8h269q12 0 18 -8t3 -19l-2 -14q-3 -11 -12.5 -19t-20.5 -8h-269zM374 -12q-65 0 -115.5 21t-82.5 58.5t-43.5 90.5t1.5 116l85 399q2 11 11.5 19t21.5 8h34q11 0 17 -8t4 -19l-85 -399q-9 -45 -1.5 -82t30.5 -63
t59 -40.5t83 -14.5t89 14t76 40.5t57.5 63.5t32.5 82l85 399q2 11 11.5 19t21.5 8h34q11 0 17 -8t4 -19l-85 -399q-13 -63 -47 -116t-82 -90.5t-107.5 -58.5t-125.5 -21z" />
    <glyph glyph-name="umacron" unicode="&#x16b;" horiz-adv-x="603" 
d="M289 571q-11 0 -17 8t-4 19l3 14q2 11 12 19t21 8h269q11 0 17 -8t4 -19l-3 -14q-2 -11 -11.5 -19t-21.5 -8h-269zM224 -13q-48 1 -78 15t-44.5 40t-15.5 63t9 85l61 283q2 11 11.5 19t20.5 8h35q12 0 18 -8t4 -19l-54 -253q-16 -76 2.5 -117t92.5 -41q58 -1 115.5 29
t94.5 81l64 301q2 11 11.5 19t20.5 8h34q12 0 18 -8t4 -19l-95 -446q-3 -11 -12.5 -19t-20.5 -8h-26q-11 0 -17.5 8t-3.5 19l18 84q-58 -66 -128.5 -96t-138.5 -28z" />
    <glyph glyph-name="Uring" unicode="&#x16e;" horiz-adv-x="754" 
d="M536 732q-24 0 -43 9t-31 24.5t-16.5 36t0.5 44.5t18.5 44.5t32 36.5t41.5 25t46 9q24 0 43 -9t31.5 -25t17 -36.5t-0.5 -44.5t-18.5 -45t-32.5 -36t-41.5 -24t-46.5 -9zM548 784q26 -1 48 17.5t28 44.5q5 26 -9 45t-41 19q-24 0 -47 -19t-28 -45q-6 -26 9 -44.5
t40 -17.5zM374 -12q-65 0 -115.5 21t-82.5 58.5t-43.5 90.5t1.5 116l85 399q2 11 11.5 19t21.5 8h34q11 0 17 -8t4 -19l-85 -399q-9 -45 -1.5 -82t30.5 -63t59 -40.5t83 -14.5t89 14t76 40.5t57.5 63.5t32.5 82l85 399q2 11 11.5 19t21.5 8h34q11 0 17 -8t4 -19l-85 -399
q-13 -63 -47 -116t-82 -90.5t-107.5 -58.5t-125.5 -21z" />
    <glyph glyph-name="uring" unicode="&#x16f;" horiz-adv-x="603" 
d="M428 559q-24 0 -43 9t-31 24.5t-16.5 36t0.5 44.5t18.5 44.5t32 36.5t41.5 25t46 9q24 0 43.5 -9t31.5 -25t16.5 -36.5t-0.5 -44.5t-18.5 -45t-32 -36t-41.5 -24t-47 -9zM440 611q26 -1 48 17.5t28 44.5t-8.5 45t-40.5 19q-25 0 -47.5 -19t-28.5 -45t9 -44.5t40 -17.5z
M224 -13q-48 1 -78 15t-44.5 40t-15.5 63t9 85l61 283q2 11 11.5 19t20.5 8h35q12 0 18 -8t4 -19l-54 -253q-16 -76 2.5 -117t92.5 -41q58 -1 115.5 29t94.5 81l64 301q2 11 11.5 19t20.5 8h34q12 0 18 -8t4 -19l-95 -446q-3 -11 -12.5 -19t-20.5 -8h-26q-11 0 -17.5 8
t-3.5 19l18 84q-58 -66 -128.5 -96t-138.5 -28z" />
    <glyph glyph-name="Uhungarumlaut" unicode="&#x170;" horiz-adv-x="754" 
d="M425 741q-13 0 -18 7.5t4 18.5l95 116q8 11 22 11h47q17 0 20 -11.5t-18 -30.5l-100 -91q-12 -11 -20.5 -15.5t-31.5 -4.5zM591 741q-13 0 -18 7.5t4 18.5l95 116q8 11 22 11h47q17 0 20 -11.5t-18 -30.5l-100 -91q-12 -11 -20.5 -15.5t-31.5 -4.5zM374 -12
q-65 0 -115.5 21t-82.5 58.5t-43.5 90.5t1.5 116l85 399q2 11 11.5 19t21.5 8h34q11 0 17 -8t4 -19l-85 -399q-9 -45 -1.5 -82t30.5 -63t59 -40.5t83 -14.5t89 14t76 40.5t57.5 63.5t32.5 82l85 399q2 11 11.5 19t21.5 8h34q11 0 17 -8t4 -19l-85 -399q-13 -63 -47 -116
t-82 -90.5t-107.5 -58.5t-125.5 -21z" />
    <glyph glyph-name="uhungarumlaut" unicode="&#x171;" horiz-adv-x="603" 
d="M330 565q-12 0 -17.5 7.5t4.5 18.5l94 116q9 11 23 11h47q17 0 19.5 -11.5t-17.5 -30.5l-101 -91q-12 -11 -20.5 -15.5t-31.5 -4.5zM496 565q-12 0 -17.5 7.5t4.5 18.5l94 116q9 11 23 11h47q17 0 19.5 -11.5t-17.5 -30.5l-101 -91q-12 -11 -20.5 -15.5t-31.5 -4.5z
M224 -13q-48 1 -78 15t-44.5 40t-15.5 63t9 85l61 283q2 11 11.5 19t20.5 8h35q12 0 18 -8t4 -19l-54 -253q-16 -76 2.5 -117t92.5 -41q58 -1 115.5 29t94.5 81l64 301q2 11 11.5 19t20.5 8h34q12 0 18 -8t4 -19l-95 -446q-3 -11 -12.5 -19t-20.5 -8h-26q-11 0 -17.5 8
t-3.5 19l18 84q-58 -66 -128.5 -96t-138.5 -28z" />
    <glyph glyph-name="Uogonek" unicode="&#x172;" horiz-adv-x="754" 
d="M800 700q11 0 17 -8t4 -19l-85 -399q-13 -60 -44 -110.5t-75.5 -88t-99.5 -60t-116 -26.5q-2 -8 -8.5 -17t-16.5 -18q-42 -37 -49 -71q-6 -27 5.5 -40.5t32.5 -13.5q18 0 37 10q22 10 32 -3l6 -7q5 -8 2 -20t-15 -20q-21 -13 -43 -19.5t-41 -6.5q-43 0 -68.5 26t-15.5 76
q7 29 29.5 61t62.5 63q-60 4 -106.5 26t-75 59.5t-38.5 88.5t3 111l85 399q2 11 11.5 19t21.5 8h34q11 0 17 -8t4 -19l-85 -399q-9 -45 -1.5 -82t30.5 -63t59 -40.5t83 -14.5t89 14t76 40.5t57.5 63.5t32.5 82l85 399q2 11 11.5 19t21.5 8h34z" />
    <glyph glyph-name="uogonek" unicode="&#x173;" horiz-adv-x="603" 
d="M555 -164q6 -8 3 -20t-15 -20q-21 -13 -43 -19.5t-42 -6.5q-42 0 -68 26t-15 76q7 32 32.5 66.5t71.5 66.5q-9 8 -6 22l18 84q-58 -66 -128.5 -96t-138.5 -28q-48 1 -78 15t-44.5 40t-15.5 63t9 85l61 283q2 11 11.5 19t20.5 8h35q12 0 18 -8t4 -19l-54 -253
q-16 -76 2.5 -117t92.5 -41q58 -1 115.5 29t94.5 81l64 301q2 11 11.5 19t20.5 8h34q12 0 18 -8t4 -19l-95 -446q-3 -11 -12.5 -19t-20.5 -8h-3q-2 -17 -25 -39q-42 -37 -49 -71q-6 -27 5.5 -40.5t31.5 -13.5q18 0 37 10q22 10 33 -3z" />
    <glyph glyph-name="Wcircumflex" unicode="&#x174;" horiz-adv-x="1140" 
d="M619 744q-17 0 -23 10.5t13 29.5l106 106q8 8 20 8h52q11 0 16 -8l63 -108q11 -19 0 -28.5t-28 -9.5h-39q-14 0 -18 11l-33 83l-68 -83q-8 -11 -22 -11h-39zM318 0q-17 0 -19 15l-107 644q-2 17 9 29t28 12h35q7 0 13 -4t7 -11l91 -553l290 551q8 17 27 17h55
q18 0 19 -17l56 -551l327 553q3 7 10.5 11t15.5 4h34q16 0 22.5 -12t-3.5 -29l-382 -644q-10 -15 -25 -15h-59q-18 0 -19 17l-54 544l-283 -544q-9 -17 -27 -17h-61z" />
    <glyph glyph-name="wcircumflex" unicode="&#x175;" horiz-adv-x="901" 
d="M471 578q-17 0 -23 10.5t13 29.5l105 106q4 4 9.5 6t9.5 2h51q11 0 16 -8l61 -108q11 -19 -0.5 -28.5t-27.5 -9.5h-38q-13 0 -17 11l-32 83l-67 -83q-8 -11 -22 -11h-38zM261 0q-15 0 -19 15l-90 443q-3 16 8.5 29t28.5 13h36q16 0 19 -15l70 -374l199 372q4 8 11.5 12.5
t14.5 4.5h34q8 0 13.5 -4.5t6.5 -12.5l42 -372l227 374q9 15 25 15h37q18 0 23.5 -13t-4.5 -30l-280 -442q-10 -15 -25 -15h-47q-8 0 -13.5 4.5t-5.5 12.5l-42 360l-192 -360q-4 -8 -11.5 -12.5t-15.5 -4.5h-50z" />
    <glyph glyph-name="Ycircumflex" unicode="&#x176;" horiz-adv-x="676" 
d="M385 745q-17 0 -23 10.5t13 29.5l106 106q8 8 20 8h52q12 0 16 -8l63 -108q12 -19 0.5 -28.5t-28.5 -9.5h-39q-13 0 -17 11l-34 83l-67 -83q-9 -11 -23 -11h-39zM320 0q-11 0 -17.5 8t-3.5 19l60 285l-159 335q-9 18 2.5 35.5t29.5 17.5h35q12 0 17 -10l139 -292l263 292
q8 10 21 10h29q22 0 27 -17.5t-11 -35.5l-303 -335l-60 -285q-3 -11 -12.5 -19t-20.5 -8h-36z" />
    <glyph glyph-name="ycircumflex" unicode="&#x177;" horiz-adv-x="615" 
d="M336 578q-17 0 -23 10.5t13 29.5l105 106q4 4 9.5 6t9.5 2h51q11 0 16 -8l61 -108q11 -19 -0.5 -28.5t-27.5 -9.5h-38q-13 0 -17 11l-32 83l-67 -83q-8 -11 -22 -11h-38zM58 -241q-12 -1 -17.5 7t-3.5 19l5 24q3 11 12 18t21 8q44 3 84 26t67 64l48 74l-125 456
q-5 17 7 31t30 14h34q16 0 19 -13l99 -381l233 379q9 15 25 15h36q18 0 24 -13t-5 -29l-332 -531q-52 -86 -113.5 -126.5t-147.5 -41.5z" />
    <glyph glyph-name="Ydieresis" unicode="&#x178;" horiz-adv-x="676" 
d="M384 739q-29 0 -44 19.5t-9 47.5q6 27 29.5 46.5t51.5 19.5t43.5 -19.5t9.5 -46.5q-6 -28 -29.5 -47.5t-51.5 -19.5zM598 739q-28 0 -43.5 19.5t-9.5 47.5q6 27 29.5 46.5t51.5 19.5q29 0 44.5 -19.5t9.5 -46.5q-6 -28 -29.5 -47.5t-52.5 -19.5zM320 0q-11 0 -17.5 8
t-3.5 19l60 285l-159 335q-9 18 2.5 35.5t29.5 17.5h35q12 0 17 -10l139 -292l263 292q8 10 21 10h29q22 0 27 -17.5t-11 -35.5l-303 -335l-60 -285q-3 -11 -12.5 -19t-20.5 -8h-36z" />
    <glyph glyph-name="Zacute" unicode="&#x179;" horiz-adv-x="688" 
d="M481 741q-13 0 -18 7.5t4 18.5l95 116q8 11 22 11h47q17 0 20 -11.5t-18 -30.5l-100 -91q-12 -11 -20.5 -15.5t-31.5 -4.5zM103 0q-11 0 -17.5 8t-3.5 19l12 57q0 3 2 7t5 6l514 518h-381q-12 0 -18 8t-4 19l7 31q2 11 11.5 19t21.5 8h482q11 0 17 -8t4 -19l-12 -56
q-1 -6 -8 -13l-518 -519h386q11 0 17.5 -8t3.5 -19l-6 -31q-3 -11 -12.5 -19t-20.5 -8h-482z" />
    <glyph glyph-name="zacute" unicode="&#x17a;" horiz-adv-x="564" 
d="M387 570q-12 0 -17.5 7.5t4.5 18.5l94 116q9 11 23 11h47q17 0 19.5 -11.5t-17.5 -30.5l-101 -91q-12 -11 -20 -15.5t-32 -4.5zM84 0q-11 0 -17.5 8t-3.5 19l9 43q2 9 9 15l401 339h-308q-11 0 -17.5 8t-3.5 19l5 22q2 11 11.5 19t20.5 8h397q12 0 18 -8t4 -19l-9 -42
q-2 -9 -10 -15l-400 -340h307q11 0 17.5 -8t3.5 -19l-4 -22q-3 -11 -12.5 -19t-20.5 -8h-397z" />
    <glyph glyph-name="Zdotaccent" unicode="&#x17b;" horiz-adv-x="688" 
d="M508 742q-29 0 -44 19.5t-9 47.5q6 27 29 46.5t52 19.5q28 0 43.5 -19.5t9.5 -46.5q-6 -28 -29.5 -47.5t-51.5 -19.5zM103 0q-11 0 -17.5 8t-3.5 19l12 57q0 3 2 7t5 6l514 518h-381q-12 0 -18 8t-4 19l7 31q2 11 11.5 19t21.5 8h482q11 0 17 -8t4 -19l-12 -56
q-1 -6 -8 -13l-518 -519h386q11 0 17.5 -8t3.5 -19l-6 -31q-3 -11 -12.5 -19t-20.5 -8h-482z" />
    <glyph glyph-name="zdotaccent" unicode="&#x17c;" horiz-adv-x="564" 
d="M410 563q-29 0 -44 19.5t-9 47.5q6 27 29 46.5t52 19.5q28 0 43.5 -19.5t9.5 -46.5q-6 -28 -29.5 -47.5t-51.5 -19.5zM84 0q-11 0 -17.5 8t-3.5 19l9 43q2 9 9 15l401 339h-308q-11 0 -17.5 8t-3.5 19l5 22q2 11 11.5 19t20.5 8h397q12 0 18 -8t4 -19l-9 -42
q-2 -9 -10 -15l-400 -340h307q11 0 17.5 -8t3.5 -19l-4 -22q-3 -11 -12.5 -19t-20.5 -8h-397z" />
    <glyph glyph-name="Zcaron" unicode="&#x17d;" horiz-adv-x="695" 
d="M487 742q-12 0 -17 8l-61 106q-11 19 -0.5 29.5t27.5 10.5h39q14 0 18 -11l32 -83l69 83q9 11 22 11h39q17 0 24 -9.5t-12 -28.5l-109 -108q-8 -8 -19 -8h-52zM103 0q-11 0 -17.5 8t-3.5 19l12 57q0 3 2 7t5 6l514 518h-381q-12 0 -18 8t-4 19l7 31q2 11 11.5 19t21.5 8
h482q11 0 17 -8t4 -19l-12 -56q-1 -6 -8 -13l-518 -519h386q11 0 17.5 -8t3.5 -19l-6 -31q-3 -11 -12.5 -19t-20.5 -8h-482z" />
    <glyph glyph-name="zcaron" unicode="&#x17e;" horiz-adv-x="564" 
d="M387 578q-4 0 -8.5 2t-6.5 6l-60 106q-11 19 -0.5 29.5t27.5 10.5h38q13 0 17 -11l32 -83l67 83q9 11 22 11h38q16 0 23.5 -9.5t-11.5 -28.5l-107 -108q-9 -8 -20 -8h-51zM84 0q-11 0 -17.5 8t-3.5 19l9 43q2 9 9 15l401 339h-308q-11 0 -17.5 8t-3.5 19l5 22
q2 11 11.5 19t20.5 8h397q12 0 18 -8t4 -19l-9 -42q-2 -9 -10 -15l-400 -340h307q11 0 17.5 -8t3.5 -19l-4 -22q-3 -11 -12.5 -19t-20.5 -8h-397z" />
    <glyph glyph-name="uni0218" unicode="&#x218;" horiz-adv-x="675" 
d="M332 -12q-176 0 -238 107q-5 8 -1.5 17.5t12.5 16.5l29 20q11 8 22 6.5t17 -12.5q22 -37 65.5 -57t109.5 -20q97 0 150 34t61 85q7 45 -21.5 70t-74 41.5t-99 30.5t-97 36t-68 57.5t-10.5 95.5q9 42 34.5 78t64.5 62.5t89.5 41t108.5 14.5q83 -1 135 -29.5t72 -76.5
q3 -8 -1 -17t-13 -15l-28 -18q-13 -9 -24 -6t-16 15q-15 34 -53.5 53t-92.5 19q-38 0 -70.5 -10t-57 -27t-40 -39t-21.5 -46q-8 -41 20 -63.5t74 -38.5t100 -30t98 -37t69 -61t11 -101q-19 -90 -100.5 -143t-215.5 -53zM247 -242q-11 0 -15 9.5t0 22.5l43 121q8 22 30 22h41
q19 0 24.5 -14.5t-6.5 -31.5l-83 -116q-8 -13 -22 -13h-12z" />
    <glyph glyph-name="uni0219" unicode="&#x219;" horiz-adv-x="523" 
d="M261 -13q-56 0 -108 13.5t-88 42.5q-8 6 -6.5 17t10.5 20l15 15q9 9 20 10t19 -6q30 -24 71 -35.5t81 -11.5q27 0 52 4.5t45 14.5t34 25t18 36q6 28 -15.5 44.5t-56.5 28.5t-77 23t-76 28t-53.5 43.5t-9.5 70.5q6 32 26 58.5t50.5 45t70 29t84.5 10.5q113 0 176 -57
q7 -8 5.5 -18.5t-10.5 -18.5l-15 -15q-10 -10 -21 -10.5t-19 7.5q-23 23 -53.5 35t-74.5 12q-50 0 -87.5 -23.5t-44.5 -57.5q-6 -29 15.5 -46.5t56.5 -30t76.5 -24t76 -28.5t54 -42.5t10.5 -67.5q-8 -38 -31 -65t-56.5 -44t-75.5 -24.5t-88 -7.5zM169 -234q-10 0 -14 9.5
t0 22.5l43 121q8 22 29 22h41q19 0 25 -14.5t-6 -31.5l-83 -116q-9 -13 -23 -13h-12z" />
    <glyph glyph-name="uni021A" unicode="&#x21a;" horiz-adv-x="665" 
d="M315 0q-11 0 -17.5 8t-3.5 19l124 585h-208q-11 0 -17.5 8t-3.5 19l7 34q2 11 11.5 19t21.5 8h505q11 0 17 -8t4 -19l-7 -34q-3 -11 -12.5 -19t-20.5 -8h-207l-124 -585q-3 -11 -12.5 -19t-20.5 -8h-36zM233 -233q-10 0 -14 9.5t0 22.5l43 121q8 22 30 22h41
q19 0 24.5 -14.5t-6.5 -31.5l-83 -116q-8 -13 -23 -13h-12z" />
    <glyph glyph-name="uni021B" unicode="&#x21b;" horiz-adv-x="377" 
d="M239 -12q-88 0 -124.5 43t-14.5 148l53 251h-15q-11 0 -17 8t-4 19l4 16q2 11 9.5 19t16.5 8h21l20 93q2 11 11.5 19t21.5 8h35q11 0 17 -8t4 -19l-20 -93h129q12 0 18 -8t4 -19l-4 -16q-2 -11 -11.5 -19t-21.5 -8h-129l-52 -245q-15 -72 8 -99t83 -27q8 0 15.5 0.5
t14.5 1.5q16 2 25.5 -2t6.5 -18l-4 -19q-4 -19 -23 -24t-38.5 -7.5t-38.5 -2.5zM111 -240q-11 0 -14.5 9.5t0.5 22.5l43 121q8 22 29 22h41q19 0 24.5 -14.5t-6.5 -31.5l-82 -116q-9 -13 -23 -13h-12z" />
    <glyph glyph-name="circumflex" unicode="&#x2c6;" horiz-adv-x="446" 
d="M290 758q-17 0 -23 10.5t13 29.5l106 106q8 8 20 8h52q11 0 16 -8l63 -108q11 -19 0 -28.5t-28 -9.5h-39q-14 0 -18 11l-33 83l-68 -83q-8 -11 -22 -11h-39z" />
    <glyph glyph-name="caron" unicode="&#x2c7;" horiz-adv-x="446" 
d="M373 758q-11 0 -16 8l-62 106q-11 19 -0.5 29.5t28.5 10.5h39q14 0 18 -11l32 -83l69 83q8 11 22 11h39q16 0 23.5 -9.5t-11.5 -28.5l-109 -108q-8 -8 -20 -8h-52z" />
    <glyph glyph-name="breve" unicode="&#x2d8;" horiz-adv-x="444" 
d="M396 753q-69 0 -103.5 31.5t-28.5 89.5q1 12 11 20t22 8h20q21 0 20 -23q0 -32 20 -45t54 -14q36 0 61.5 13t37.5 45q4 11 12 17.5t19 6.5h21q12 0 18.5 -7.5t2.5 -18.5q-19 -60 -68 -91.5t-119 -31.5z" />
    <glyph glyph-name="dotaccent" unicode="&#x2d9;" horiz-adv-x="257" 
d="M303 750q-28 0 -43 19.5t-9 47.5q5 27 28.5 46.5t52.5 19.5q28 0 43 -19.5t10 -46.5q-6 -28 -30 -47.5t-52 -19.5z" />
    <glyph glyph-name="ring" unicode="&#x2da;" horiz-adv-x="353" 
d="M351 752q-24 0 -43 9t-31 24.5t-16.5 36t0.5 44.5t18.5 44.5t32 36.5t41.5 25t47 9t43 -9t31 -25t16.5 -36.5t-0.5 -44.5t-18.5 -45t-32 -36t-41.5 -24t-47 -9zM363 804q26 -1 48 17.5t28 44.5t-8.5 45t-40.5 19q-25 0 -47.5 -19t-28.5 -45t9 -44.5t40 -17.5z" />
    <glyph glyph-name="ogonek" unicode="&#x2db;" horiz-adv-x="330" 
d="M133 -231q-42 0 -68 26t-15 76q6 32 33.5 68t76.5 70q12 9 23 4q13 -5 7 -20.5t-24 -32.5q-41 -37 -49 -71q-5 -27 6.5 -40.5t31.5 -13.5q18 0 37 10q22 10 32 -3l6 -7q6 -8 3 -20t-16 -20q-20 -13 -42 -19.5t-42 -6.5z" />
    <glyph glyph-name="tilde" unicode="&#x2dc;" horiz-adv-x="477" 
d="M412 772q-30 9 -58 16.5t-55 -6.5q-15 -8 -26.5 -8.5t-14.5 12.5l-4 17q-5 15 9 26q22 18 43 25t42.5 7t42 -4.5t40.5 -10.5q33 -10 62.5 -18t57.5 6q16 7 28 7.5t14 -13.5l4 -19q2 -15 -10 -25q-22 -17 -44 -23t-44 -5.5t-44 5.5t-43 11z" />
    <glyph glyph-name="hungarumlaut" unicode="&#x2dd;" horiz-adv-x="491" 
d="M274 758q-12 0 -17.5 7.5t4.5 18.5l94 116q9 11 23 11h47q17 0 19.5 -11.5t-17.5 -30.5l-101 -91q-12 -11 -20 -15.5t-32 -4.5zM440 758q-12 0 -17.5 7.5t4.5 18.5l94 116q9 11 23 11h47q17 0 19.5 -11.5t-17.5 -30.5l-101 -91q-12 -11 -20 -15.5t-32 -4.5z" />
    <glyph glyph-name="gravecomb" unicode="&#x300;" 
d="M78 758q-23 0 -29.5 4.5t-14.5 15.5l-61 91q-13 19 -5.5 30.5t25.5 11.5h47q13 0 17 -11l46 -116q4 -11 -4.5 -18.5t-20.5 -7.5z" />
    <glyph glyph-name="acutecomb" unicode="&#x301;" 
d="M-51 758q-12 0 -17.5 7.5t4.5 18.5l94 116q9 11 23 11h47q17 0 19.5 -11.5t-17.5 -30.5l-101 -91q-12 -11 -20 -15.5t-32 -4.5z" />
    <glyph glyph-name="uni0302" unicode="&#x302;" 
d="M-156 758q-17 0 -23 10.5t13 29.5l106 106q8 8 20 8h52q11 0 16 -8l63 -108q11 -19 0 -28.5t-28 -9.5h-39q-14 0 -18 11l-33 83l-68 -83q-8 -11 -22 -11h-39z" />
    <glyph glyph-name="tildecomb" unicode="&#x303;" 
d="M-65 773q-30 8 -58 15.5t-55 -5.5q-16 -8 -27 -9t-14 12l-4 17q-5 15 9 26q21 17 42.5 24t42 7.5t41 -4t40.5 -10.5q33 -9 63.5 -17t58.5 5q16 8 28 8t14 -14l4 -19q2 -15 -10 -25q-22 -17 -44 -23t-44 -5.5t-44 6t-43 11.5z" />
    <glyph glyph-name="uni0304" unicode="&#x304;" 
d="M-180 764q-11 0 -17 8t-4 19l3 14q3 11 12.5 19t20.5 8h269q11 0 17.5 -8t3.5 -19l-3 -14q-2 -11 -11.5 -19t-21.5 -8h-269z" />
    <glyph glyph-name="uni0306" unicode="&#x306;" 
d="M-48 753q-69 0 -103.5 31.5t-28.5 89.5q1 12 11 20t22 8h20q21 0 20 -23q0 -32 20 -45t54 -14q36 0 61.5 13t37.5 45q4 11 12 17.5t19 6.5h21q12 0 18.5 -7.5t2.5 -18.5q-19 -60 -68 -91.5t-119 -31.5z" />
    <glyph glyph-name="uni0307" unicode="&#x307;" 
d="M48 757q-29 0 -44 19.5t-9 47.5q6 27 29.5 46.5t51.5 19.5t43.5 -19.5t9.5 -46.5q-6 -28 -29.5 -47.5t-51.5 -19.5z" />
    <glyph glyph-name="uni0308" unicode="&#x308;" 
d="M-167 757q-29 0 -44 19.5t-9 47.5q6 27 29.5 46.5t51.5 19.5t43.5 -19.5t9.5 -46.5q-6 -28 -29.5 -47.5t-51.5 -19.5zM47 757q-28 0 -43.5 19.5t-9.5 47.5q6 27 29.5 46.5t51.5 19.5q29 0 44.5 -19.5t9.5 -46.5q-6 -28 -29.5 -47.5t-52.5 -19.5z" />
    <glyph glyph-name="uni030A" unicode="&#x30a;" 
d="M-2 752q-24 0 -43 9t-31 24.5t-16.5 36t0.5 44.5t18.5 44.5t32 36.5t41.5 25t47 9t43 -9t31 -25t16.5 -36.5t-0.5 -44.5t-18.5 -45t-32 -36t-41.5 -24t-47 -9zM10 804q26 -1 48 17.5t28 44.5t-8.5 45t-40.5 19q-25 0 -47.5 -19t-28.5 -45t9 -44.5t40 -17.5z" />
    <glyph glyph-name="uni030B" unicode="&#x30b;" 
d="M-217 758q-12 0 -17.5 7.5t4.5 18.5l94 116q9 11 23 11h47q17 0 19.5 -11.5t-17.5 -30.5l-101 -91q-12 -11 -20 -15.5t-32 -4.5zM-51 758q-12 0 -17.5 7.5t4.5 18.5l94 116q9 11 23 11h47q17 0 19.5 -11.5t-17.5 -30.5l-101 -91q-12 -11 -20 -15.5t-32 -4.5z" />
    <glyph glyph-name="uni030C" unicode="&#x30c;" 
d="M-73 758q-11 0 -16 8l-62 106q-11 19 -0.5 29.5t28.5 10.5h39q14 0 18 -11l32 -83l69 83q8 11 22 11h39q16 0 23.5 -9.5t-11.5 -28.5l-109 -108q-8 -8 -20 -8h-52z" />
    <glyph glyph-name="uni0312" unicode="&#x312;" 
d="M26 758q-19 0 -25 14t6 31l84 118q8 13 23 13h6q13 0 19 -9.5t1 -22.5l-44 -122q-8 -22 -30 -22h-40z" />
    <glyph glyph-name="uni0326" unicode="&#x326;" 
d="M-218 -272q-10 0 -14 9.5t0 22.5l43 121q8 22 29 22h41q19 0 25 -14.5t-6 -31.5l-83 -116q-9 -13 -23 -13h-12z" />
    <glyph glyph-name="uni0327" unicode="&#x327;" 
d="M-219 -259q-39 0 -72 20q-8 5 -8.5 15t6.5 19l7 9q8 11 18.5 13t20.5 -3q17 -8 37 -10q28 0 48 12.5t26 36.5q5 20 -5.5 35t-33.5 20q-19 5 -26 17t5 29l27 35q9 12 23 12q18 0 25 -11t-4 -22l-32 -33q40 -2 62 -29t14 -67q-9 -43 -46.5 -70.5t-91.5 -27.5z" />
    <glyph glyph-name="uni0328" unicode="&#x328;" 
d="M-197 -231q-42 0 -68 26t-15 76q6 32 33.5 68t76.5 70q12 9 23 4q13 -5 7 -20.5t-24 -32.5q-41 -37 -49 -71q-5 -27 6.5 -40.5t31.5 -13.5q18 0 37 10q22 10 32 -3l6 -7q6 -8 3 -20t-16 -20q-20 -13 -42 -19.5t-42 -6.5z" />
    <glyph glyph-name="Wgrave" unicode="&#x1e80;" horiz-adv-x="1140" 
d="M730 745q-23 0 -29.5 4.5t-13.5 15.5l-62 91q-13 19 -5 30.5t25 11.5h47q14 0 18 -11l45 -116q4 -11 -4.5 -18.5t-20.5 -7.5zM318 0q-17 0 -19 15l-107 644q-2 17 9 29t28 12h35q7 0 13 -4t7 -11l91 -553l290 551q8 17 27 17h55q18 0 19 -17l56 -551l327 553q3 7 10.5 11
t15.5 4h34q16 0 22.5 -12t-3.5 -29l-382 -644q-10 -15 -25 -15h-59q-18 0 -19 17l-54 544l-283 -544q-9 -17 -27 -17h-61z" />
    <glyph glyph-name="wgrave" unicode="&#x1e81;" horiz-adv-x="901" 
d="M554 569q-23 0 -29.5 4.5t-14.5 15.5l-61 91q-13 19 -5.5 30.5t24.5 11.5h47q14 0 18 -11l45 -116q5 -11 -3.5 -18.5t-20.5 -7.5zM261 0q-15 0 -19 15l-90 443q-3 16 8.5 29t28.5 13h36q16 0 19 -15l70 -374l199 372q4 8 11.5 12.5t14.5 4.5h34q8 0 13.5 -4.5t6.5 -12.5
l42 -372l227 374q9 15 25 15h37q18 0 23.5 -13t-4.5 -30l-280 -442q-10 -15 -25 -15h-47q-8 0 -13.5 4.5t-5.5 12.5l-42 360l-192 -360q-4 -8 -11.5 -12.5t-15.5 -4.5h-50z" />
    <glyph glyph-name="Wacute" unicode="&#x1e82;" horiz-adv-x="1140" 
d="M732 743q-12 0 -17.5 7.5t3.5 18.5l95 116q9 11 22 11h47q18 0 20.5 -11.5t-17.5 -30.5l-101 -91q-12 -11 -20.5 -15.5t-31.5 -4.5zM318 0q-17 0 -19 15l-107 644q-2 17 9 29t28 12h35q7 0 13 -4t7 -11l91 -553l290 551q8 17 27 17h55q18 0 19 -17l56 -551l327 553
q3 7 10.5 11t15.5 4h34q16 0 22.5 -12t-3.5 -29l-382 -644q-10 -15 -25 -15h-59q-18 0 -19 17l-54 544l-283 -544q-9 -17 -27 -17h-61z" />
    <glyph glyph-name="wacute" unicode="&#x1e83;" horiz-adv-x="901" 
d="M585 571q-12 0 -17 7.5t4 18.5l95 116q8 11 22 11h47q17 0 20 -11.5t-18 -30.5l-100 -91q-13 -11 -21 -15.5t-32 -4.5zM261 0q-15 0 -19 15l-90 443q-3 16 8.5 29t28.5 13h36q16 0 19 -15l70 -374l199 372q4 8 11.5 12.5t14.5 4.5h34q8 0 13.5 -4.5t6.5 -12.5l42 -372
l227 374q9 15 25 15h37q18 0 23.5 -13t-4.5 -30l-280 -442q-10 -15 -25 -15h-47q-8 0 -13.5 4.5t-5.5 12.5l-42 360l-192 -360q-4 -8 -11.5 -12.5t-15.5 -4.5h-50z" />
    <glyph glyph-name="Wdieresis" unicode="&#x1e84;" horiz-adv-x="1140" 
d="M619 746q-29 0 -44 19.5t-9 47.5q6 27 29 46.5t52 19.5q28 0 43.5 -19.5t9.5 -46.5q-6 -28 -30 -47.5t-51 -19.5zM833 746q-28 0 -43.5 19.5t-9.5 47.5q6 27 29.5 46.5t51.5 19.5q29 0 44.5 -19.5t9.5 -46.5q-6 -28 -30 -47.5t-52 -19.5zM318 0q-17 0 -19 15l-107 644
q-2 17 9 29t28 12h35q7 0 13 -4t7 -11l91 -553l290 551q8 17 27 17h55q18 0 19 -17l56 -551l327 553q3 7 10.5 11t15.5 4h34q16 0 22.5 -12t-3.5 -29l-382 -644q-10 -15 -25 -15h-59q-18 0 -19 17l-54 544l-283 -544q-9 -17 -27 -17h-61z" />
    <glyph glyph-name="wdieresis" unicode="&#x1e85;" horiz-adv-x="901" 
d="M464 563q-29 0 -44 19.5t-9 47.5q6 27 29 46.5t52 19.5q28 0 43.5 -19.5t9.5 -46.5q-6 -28 -29.5 -47.5t-51.5 -19.5zM678 563q-28 0 -43.5 19.5t-9.5 47.5q6 27 29.5 46.5t51.5 19.5q29 0 44.5 -19.5t9.5 -46.5q-6 -28 -30 -47.5t-52 -19.5zM261 0q-15 0 -19 15l-90 443
q-3 16 8.5 29t28.5 13h36q16 0 19 -15l70 -374l199 372q4 8 11.5 12.5t14.5 4.5h34q8 0 13.5 -4.5t6.5 -12.5l42 -372l227 374q9 15 25 15h37q18 0 23.5 -13t-4.5 -30l-280 -442q-10 -15 -25 -15h-47q-8 0 -13.5 4.5t-5.5 12.5l-42 360l-192 -360q-4 -8 -11.5 -12.5
t-15.5 -4.5h-50z" />
    <glyph glyph-name="Ygrave" unicode="&#x1ef2;" horiz-adv-x="676" 
d="M518 741q-24 0 -30.5 4.5t-13.5 15.5l-62 91q-12 19 -4.5 30.5t24.5 11.5h47q14 0 18 -11l45 -116q4 -11 -4 -18.5t-20 -7.5zM320 0q-11 0 -17.5 8t-3.5 19l60 285l-159 335q-9 18 2.5 35.5t29.5 17.5h35q12 0 17 -10l139 -292l263 292q8 10 21 10h29q22 0 27 -17.5
t-11 -35.5l-303 -335l-60 -285q-3 -11 -12.5 -19t-20.5 -8h-36z" />
    <glyph glyph-name="ygrave" unicode="&#x1ef3;" horiz-adv-x="615" 
d="M457 570q-23 0 -29.5 4.5t-14.5 15.5l-61 91q-13 19 -5.5 30.5t25.5 11.5h47q13 0 17 -11l46 -116q4 -11 -4.5 -18.5t-20.5 -7.5zM58 -241q-12 -1 -17.5 7t-3.5 19l5 24q3 11 12 18t21 8q44 3 84 26t67 64l48 74l-125 456q-5 17 7 31t30 14h34q16 0 19 -13l99 -381
l233 379q9 15 25 15h36q18 0 24 -13t-5 -29l-332 -531q-52 -86 -113.5 -126.5t-147.5 -41.5z" />
    <glyph glyph-name="endash" unicode="&#x2013;" horiz-adv-x="706" 
d="M171 316q-11 0 -17 8t-4 19l3 14q2 11 11.5 19t21.5 8h528q11 0 17 -8t4 -19l-3 -14q-2 -11 -12 -19t-21 -8h-528z" />
    <glyph glyph-name="emdash" unicode="&#x2014;" horiz-adv-x="944" 
d="M171 316q-11 0 -17 8t-4 19l3 14q2 11 11.5 19t21.5 8h766q11 0 17 -8t4 -19l-3 -14q-2 -11 -12 -19t-21 -8h-766z" />
    <glyph glyph-name="quoteleft" unicode="&#x2018;" horiz-adv-x="237" 
d="M311 744q5 -5 1 -13.5t-14 -22.5q-6 -11 -9.5 -20t-4.5 -18q20 -3 30.5 -19t5.5 -38q-5 -23 -24.5 -39.5t-44.5 -16.5q-26 0 -37.5 18.5t-5.5 44.5q9 34 33.5 64.5t49.5 52.5q14 12 20 7z" />
    <glyph glyph-name="quoteright" unicode="&#x2019;" horiz-adv-x="237" 
d="M235 568q-5 5 -1 13.5t13 22.5q6 11 10 20t4 18q-19 3 -29.5 19t-5.5 38q5 23 24.5 39.5t43.5 16.5q27 0 38.5 -18.5t5.5 -44.5q-9 -34 -34 -64.5t-49 -52.5q-15 -12 -20 -7z" />
    <glyph glyph-name="quotesinglbase" unicode="&#x201a;" horiz-adv-x="237" 
d="M96 -85q-5 5 -0.5 13.5t13.5 22.5q6 11 9.5 20t4.5 18q-20 3 -30.5 19t-5.5 38q5 23 25 39.5t44 16.5q26 0 37.5 -18.5t5.5 -44.5q-8 -34 -33 -64.5t-50 -52.5q-14 -12 -20 -7z" />
    <glyph glyph-name="quotedblleft" unicode="&#x201c;" horiz-adv-x="379" 
d="M311 744q5 -5 1 -13.5t-14 -22.5q-6 -11 -9.5 -20t-4.5 -18q20 -3 30.5 -19t5.5 -38q-5 -23 -24.5 -39.5t-44.5 -16.5q-26 0 -37.5 18.5t-5.5 44.5q9 34 33.5 64.5t49.5 52.5q14 12 20 7zM453 744q5 -5 1 -13.5t-14 -22.5q-6 -11 -9.5 -20t-4.5 -18q20 -3 30.5 -19
t5.5 -38q-5 -23 -24.5 -39.5t-44.5 -16.5q-26 0 -37.5 18.5t-5.5 44.5q9 34 33.5 64.5t49.5 52.5q14 12 20 7z" />
    <glyph glyph-name="quotedblright" unicode="&#x201d;" horiz-adv-x="379" 
d="M235 568q-5 5 -1 13.5t13 22.5q6 11 10 20t4 18q-19 3 -29.5 19t-5.5 38q5 23 24.5 39.5t43.5 16.5q27 0 38.5 -18.5t5.5 -44.5q-9 -34 -34 -64.5t-49 -52.5q-15 -12 -20 -7zM377 568q-5 5 -1 13.5t13 22.5q6 11 10 20t4 18q-19 3 -29.5 19t-5.5 38q5 23 24.5 39.5
t43.5 16.5q27 0 38.5 -18.5t5.5 -44.5q-9 -34 -34 -64.5t-49 -52.5q-15 -12 -20 -7z" />
    <glyph glyph-name="quotedblbase" unicode="&#x201e;" horiz-adv-x="383" 
d="M96 -85q-5 5 -0.5 13.5t13.5 22.5q6 11 9.5 20t4.5 18q-20 3 -30.5 19t-5.5 38q5 23 25 39.5t44 16.5q26 0 37.5 -18.5t5.5 -44.5q-8 -34 -33 -64.5t-50 -52.5q-14 -12 -20 -7zM242 -85q-5 5 -0.5 13.5t13.5 22.5q6 11 9.5 20t4.5 18q-20 3 -30.5 19t-5.5 38
q5 23 25 39.5t44 16.5q26 0 37.5 -18.5t5.5 -44.5q-8 -34 -33 -64.5t-50 -52.5q-14 -12 -20 -7z" />
    <glyph glyph-name="dagger" unicode="&#x2020;" horiz-adv-x="568" 
d="M241 -203q-11 0 -17 7t-4 19l122 610l-146 -7q-13 -1 -19 7t-4 20l12 56q3 12 12.5 20t21.5 7l142 -8l29 145q2 11 11.5 19t21.5 8h50q11 0 17 -8t4 -19l-33 -145l147 8q12 1 18.5 -7t3.5 -20l-12 -56q-2 -12 -12 -20t-21 -7l-145 7l-138 -610q-2 -12 -11 -19t-20 -7h-30
z" />
    <glyph glyph-name="daggerdbl" unicode="&#x2021;" horiz-adv-x="568" 
d="M232 -194q-12 0 -17.5 8t-2.5 19l37 156l-148 -7q-12 -1 -18.5 7t-3.5 20l11 52q3 12 12.5 20t21.5 7l147 -7l44 176l31 178l-150 -7q-12 -1 -18.5 7t-3.5 20l11 52q2 12 12 20t22 7l143 -6l28 145q2 11 11 19t21 8h52q11 0 16.5 -8t3.5 -19l-34 -145l148 6q12 1 18 -7
t4 -20l-11 -52q-3 -12 -12.5 -20t-21.5 -7l-149 7l-43 -178l-32 -176l152 7q12 1 18.5 -7t3.5 -20l-11 -52q-3 -12 -12.5 -20t-21.5 -7l-145 7l-29 -156q-3 -11 -12 -19t-20 -8h-52z" />
    <glyph glyph-name="bullet" unicode="&#x2022;" horiz-adv-x="459" 
d="M276 146q-35 0 -62.5 13t-45.5 36t-25 54t1 66q7 35 26.5 65.5t47.5 53.5t61 36t69 13q35 0 62.5 -13t45.5 -36t24.5 -53.5t-0.5 -65.5q-8 -35 -27.5 -66t-47 -54t-61 -36t-68.5 -13z" />
    <glyph glyph-name="ellipsis" unicode="&#x2026;" horiz-adv-x="569" 
d="M131 -12q-24 0 -37 16.5t-7 41.5q5 23 25 39.5t44 16.5q23 0 36.5 -16.5t8.5 -39.5q-6 -25 -26 -41.5t-44 -16.5zM296 -12q-24 0 -37 16.5t-7 41.5q5 23 25 39.5t44 16.5t37 -16.5t8 -39.5q-6 -25 -25.5 -41.5t-44.5 -16.5zM462 -12q-24 0 -37 16.5t-7 41.5q5 23 25 39.5
t44 16.5t37 -16.5t8 -39.5q-6 -25 -25.5 -41.5t-44.5 -16.5z" />
    <glyph glyph-name="perthousand" unicode="&#x2030;" horiz-adv-x="1150" 
d="M318 398q-33 0 -58.5 12.5t-42.5 33.5t-23 49.5t1 60.5t25 60.5t44 50t57 34t63 12.5q33 0 59 -12.5t42.5 -34t23 -50t-0.5 -60.5q-7 -33 -25.5 -61.5t-44 -49.5t-57 -33t-63.5 -12zM169 0q-19 0 -19 18.5t18 37.5l627 635q8 9 20 9q19 0 19 -18.5t-18 -37.5l-627 -635
q-8 -9 -20 -9zM330 455q20 0 39.5 8t36 21.5t28.5 31.5t16 38t0 38t-15 31.5t-27 21.5t-36 8t-39.5 -8t-36 -21.5t-28 -31.5t-15.5 -38t-0.5 -38t14 -31.5t26.5 -21.5t37 -8zM597 -10q-33 0 -59 12.5t-42.5 33.5t-23 49.5t0.5 61.5q7 32 25.5 60.5t44 50t57 34t64.5 12.5
q32 0 58 -12.5t42.5 -34t23 -50t-0.5 -60.5q-7 -33 -25.5 -61.5t-44.5 -50t-57 -33.5t-63 -12zM945 -10q-33 0 -59 12.5t-42.5 33.5t-23 49.5t0.5 61.5q7 32 25.5 60.5t44 50t57 34t64.5 12.5q32 0 58 -12.5t42.5 -34t23 -50t-0.5 -60.5q-7 -33 -25.5 -61.5t-44.5 -50
t-57 -33.5t-63 -12zM609 49q20 0 39.5 7.5t36 21t28 31.5t15.5 38q9 41 -14 69.5t-63 28.5q-21 0 -40.5 -7.5t-35.5 -21t-27.5 -31.5t-16.5 -38q-8 -41 14.5 -69.5t63.5 -28.5zM957 49q20 0 39.5 7.5t36 21t28 31.5t15.5 38q9 41 -14 69.5t-63 28.5q-21 0 -40.5 -7.5
t-35.5 -21t-27.5 -31.5t-16.5 -38q-8 -41 14.5 -69.5t63.5 -28.5z" />
    <glyph glyph-name="guilsinglleft" unicode="&#x2039;" horiz-adv-x="540" 
d="M394 8q-9 0 -14 6l-221 281q-7 8 -4.5 19t12.5 19l337 278q7 6 16 6h10q14 0 22 -6.5t10 -16t-2.5 -20.5t-15.5 -21l-290 -239l190 -242q8 -10 7.5 -21t-6.5 -20.5t-17 -16t-24 -6.5h-10z" />
    <glyph glyph-name="guilsinglright" unicode="&#x203a;" horiz-adv-x="540" 
d="M134 8q-9 0 -10.5 6.5t1.5 16t11 20.5t20 21l293 242l-187 239q-8 10 -11.5 21t-2.5 20.5t5.5 16t12.5 6.5h46q9 0 14 -6l219 -278q6 -8 4 -19t-12 -19l-341 -281q-7 -6 -16 -6h-46z" />
    <glyph glyph-name="fraction" unicode="&#x2044;" horiz-adv-x="829" 
d="M88 -162q-20 0 -20.5 14.5t17.5 36.5l788 932q3 5 10 8t29 3q20 0 21 -11t-10 -24l-799 -948q-6 -8 -15 -9.5t-15 -1.5h-6z" />
    <glyph glyph-name="Euro" unicode="&#x20ac;" horiz-adv-x="809" 
d="M564 -13q-70 0 -126.5 22t-96.5 61.5t-60.5 93.5t-18.5 117h-70q-21 0 -32.5 6.5t-6.5 14.5l6 8q9 12 23 12h83l2 14l2 14q2 8 4 15.5t5 15.5h-45q-20 0 -31.5 6.5t-6.5 14.5l6 9q5 6 11.5 9t12.5 3h68q25 62 68.5 115t99.5 92t122 61t136 22q91 0 156 -37
q11 -7 10 -19.5t-12 -23.5l-24 -22q-16 -15 -32 -5q-27 14 -57 20.5t-65 6.5q-49 0 -96 -16t-87.5 -44.5t-72 -66.5t-49.5 -83h152q20 0 32 -6.5t6 -14.5l-6 -9q-9 -12 -23 -12h-182q-3 -8 -5 -15.5t-4 -15.5l-2 -14t-3 -14h143q20 0 32.5 -6t6.5 -14l-6 -9q-4 -6 -10.5 -9
t-12.5 -3h-151q-1 -45 14.5 -84t44 -68t69 -45.5t89.5 -16.5q36 -1 70.5 5.5t67.5 22.5q9 4 17.5 3t13.5 -9l13 -20q6 -11 3 -22.5t-15 -17.5q-40 -20 -85.5 -31t-94.5 -11z" />
    <glyph glyph-name="trademark" unicode="&#x2122;" horiz-adv-x="892" 
d="M331 526q-12 0 -18 8t-3 19l61 288h-88q-12 0 -18 7.5t-4 18.5q3 11 12 18.5t21 7.5h232q11 0 17.5 -7.5t3.5 -18.5q-2 -11 -11.5 -18.5t-20.5 -7.5h-90l-61 -288q-3 -11 -12.5 -19t-20.5 -8zM565 526q-12 0 -18 8t-3 19l66 313q2 11 11.5 19t21.5 8h22q14 0 17 -12
l88 -249l194 249q9 12 23 12h21q11 0 17 -8t4 -19l-66 -313q-3 -11 -12 -19t-20 -8q-12 0 -17.5 8t-2.5 19l52 248l-164 -210q-9 -12 -23 -12h-35q-14 0 -17 12l-75 210l-52 -248q-3 -11 -12 -19t-20 -8z" />
    <glyph glyph-name="oneeighth" unicode="&#x215b;" horiz-adv-x="1010" 
d="M318 483q-12 0 -18 8t-4 19l88 414l-25 -20q-10 -8 -20.5 -8t-16.5 8l-1 1q-6 8 -4 19t12 19l64 51q8 6 17 6h17q11 0 17 -8t4 -19l-99 -463q-2 -11 -11 -19t-20 -8zM126 -162q-20 0 -20.5 14.5t17.5 36.5l788 932q3 5 10 8t29 3q20 0 21 -11t-10 -24l-799 -948
q-6 -8 -15 -9.5t-15 -1.5h-6zM657 -300q-85 0 -125 42t-24 115q9 45 42 80t81 49q-23 14 -32.5 39.5t-3.5 56.5q7 29 23.5 53.5t40 42.5t52.5 28.5t60 10.5q32 0 56.5 -10.5t40 -28.5t21.5 -42.5t-1 -53.5q-6 -31 -26 -56t-50 -40q42 -14 59.5 -49t8.5 -80
q-16 -74 -75 -115.5t-148 -41.5zM726 3q41 2 71 24t37 55q8 34 -13 56.5t-62 23.5q-40 0 -71.5 -23.5t-38.5 -56.5t14 -55t63 -24zM668 -247q135 0 158 104q8 38 -13.5 65t-70.5 27h-58q-49 0 -81.5 -27t-40.5 -65q-11 -49 15.5 -76.5t90.5 -27.5z" />
    <glyph glyph-name="threeeighths" unicode="&#x215c;" horiz-adv-x="1084" 
d="M383 479q-58 -1 -97 16.5t-57 50.5q-5 10 0.5 20.5t17.5 15.5l2 1q22 10 34 -9q25 -42 111 -42q66 0 107 29t53 82q8 42 -14 66.5t-72 24.5h-36q-11 0 -17.5 8t-3.5 19v1q2 11 8.5 19t13.5 8q46 0 79 26t40 59q8 37 -13 59.5t-66 22.5q-26 0 -48.5 -9t-39.5 -26
q-8 -8 -17.5 -11.5t-17.5 2.5l-3 2q-8 7 -10 17t7 20q27 27 63.5 42.5t77.5 14.5q69 0 102 -37t20 -97q-7 -30 -27.5 -56.5t-49.5 -43.5q46 -11 66.5 -45.5t10.5 -85.5q-17 -76 -77.5 -120.5t-146.5 -43.5zM223 -162q-20 0 -20.5 14.5t17.5 36.5l788 932q3 5 10 8t29 3
q20 0 21 -11t-10 -24l-799 -948q-6 -8 -15 -9.5t-15 -1.5h-6zM731 -300q-84 0 -124.5 42t-24.5 115q9 45 42.5 80t81.5 49q-24 14 -33.5 39.5t-3.5 56.5q7 29 23 53.5t39.5 42.5t53 28.5t60.5 10.5q32 0 57 -10.5t40.5 -28.5t21.5 -42.5t-1 -53.5q-6 -31 -27 -56t-51 -40
q42 -14 60 -49t9 -80q-16 -74 -74.5 -115.5t-148.5 -41.5zM800 3q41 2 71 24t37 55q8 34 -12.5 56.5t-62.5 23.5q-40 0 -71 -23.5t-38 -56.5t13.5 -55t62.5 -24zM743 -247q135 0 158 104q8 38 -13.5 65t-72.5 27h-56q-50 0 -82.5 -27t-40.5 -65q-11 -49 16 -76.5t91 -27.5z
" />
    <glyph glyph-name="fiveeighths" unicode="&#x215d;" horiz-adv-x="1050" 
d="M378 477q-55 -1 -94 20t-54 60q-3 11 3 21t18 14l3 1q23 7 29 -12q11 -24 38.5 -37.5t70.5 -13.5q126 0 152 124q13 61 -19 89.5t-104 24.5q-23 -2 -48.5 -4.5t-52.5 -5.5q-13 -2 -20.5 6t-4.5 21l40 188q2 11 11.5 19t21.5 8h239q11 0 17 -7.5t4 -18.5t-11.5 -19
t-21.5 -8h-212l-28 -131l71 5q100 7 145.5 -37.5t27.5 -129.5t-76.5 -131.5t-144.5 -45.5zM182 -162q-20 0 -20.5 14.5t17.5 36.5l788 932q3 5 10 8t29 3q20 0 21 -11t-10 -24l-799 -948q-6 -8 -15 -9.5t-15 -1.5h-6zM697 -300q-84 0 -124.5 42t-24.5 115q9 45 42 80t81 49
q-23 14 -33 39.5t-4 56.5q7 29 23.5 53.5t40 42.5t53 28.5t60.5 10.5q32 0 56.5 -10.5t40 -28.5t21.5 -42.5t-1 -53.5q-6 -31 -26.5 -56t-50.5 -40q42 -14 60 -49t9 -80q-16 -74 -75 -115.5t-148 -41.5zM766 3q41 2 70.5 24t36.5 55q8 34 -12.5 56.5t-61.5 23.5
q-41 0 -72 -23.5t-38 -56.5t14 -55t63 -24zM708 -247q135 0 158 104q8 38 -13.5 65t-71.5 27h-56q-50 0 -82.5 -27t-40.5 -65q-11 -49 16 -76.5t90 -27.5z" />
    <glyph glyph-name="seveneighths" unicode="&#x215e;" horiz-adv-x="975" 
d="M301 483q-12 0 -11 14.5t12 31.5l295 417h-262q-11 0 -17.5 8t-3.5 19q2 11 11.5 19t21.5 8h296q11 0 17 -8t4 -19l-5 -22q0 -3 -4 -9l-316 -446q-8 -13 -22 -13h-16zM114 -162q-20 0 -20.5 14.5t17.5 36.5l788 932q3 5 10 8t29 3q20 0 21 -11t-10 -24l-799 -948
q-6 -8 -15 -9.5t-15 -1.5h-6zM622 -300q-84 0 -124.5 42t-24.5 115q9 45 42.5 80t81.5 49q-24 14 -33.5 39.5t-3.5 56.5q7 29 23 53.5t39.5 42.5t53 28.5t60.5 10.5q32 0 57 -10.5t40.5 -28.5t21.5 -42.5t-1 -53.5q-6 -31 -27 -56t-51 -40q42 -14 60 -49t9 -80
q-16 -74 -74.5 -115.5t-148.5 -41.5zM691 3q41 2 71 24t37 55q8 34 -12.5 56.5t-62.5 23.5q-40 0 -71 -23.5t-38 -56.5t13.5 -55t62.5 -24zM634 -247q135 0 158 104q8 38 -13.5 65t-72.5 27h-56q-50 0 -82.5 -27t-40.5 -65q-11 -49 16 -76.5t91 -27.5z" />
    <glyph glyph-name="arrowleft" unicode="&#x2190;" horiz-adv-x="832" 
d="M157 323q-10 6 -7 20l4 20q3 14 15 20l314 161q10 5 19 3t13 -11l1 -3q5 -10 0 -21t-17 -17l-215 -112h556q12 0 18 -8t4 -19l-2 -6q-2 -11 -11.5 -19t-20.5 -8h-557l168 -112q9 -6 9.5 -17t-8.5 -21l-2 -2q-8 -9 -18.5 -11.5t-18.5 2.5z" />
    <glyph glyph-name="arrowup" unicode="&#x2191;" horiz-adv-x="529" 
d="M277 0q-11 0 -17.5 8t-3.5 19l118 555l-153 -191q-8 -10 -19 -13t-20 3l-3 2q-7 6 -7.5 15.5t7.5 19.5l218 278q8 12 22 12h21q15 0 18 -11l101 -279q7 -22 -17 -35l-3 -2q-11 -6 -21 -3t-14 13l-71 190l-117 -554q-3 -11 -12.5 -19t-20.5 -8h-6z" />
    <glyph glyph-name="arrowright" unicode="&#x2192;" horiz-adv-x="832" 
d="M530 161q-11 -6 -20 -3.5t-13 12.5v2q-5 10 0 21t17 17l212 110l-555 1q-11 0 -17 7.5t-3 18.5l1 8q3 11 12.5 19t20.5 8h555l-167 111q-9 6 -9.5 16t8.5 21l2 3q18 21 37 9l245 -161q10 -6 7 -20l-4 -19q-3 -14 -16 -20z" />
    <glyph glyph-name="arrowdown" unicode="&#x2193;" horiz-adv-x="529" 
d="M267 -10q-14 0 -18 12l-100 278q-7 21 15 34l3 2q11 7 22 4.5t14 -13.5l71 -191l118 556q2 11 11.5 19t21.5 8h7q11 0 17 -8t4 -19l-118 -556l151 192q9 11 20.5 13.5t19.5 -4.5l4 -2q8 -6 8 -15.5t-7 -19.5l-222 -279q-8 -11 -22 -11h-20z" />
    <glyph glyph-name="arrowboth" unicode="&#x2194;" horiz-adv-x="1012" 
d="M157 323q-10 6 -7 20l4 20q3 14 15 20l314 161q10 5 19 3t13 -11l1 -3q5 -10 0 -21t-17 -17l-215 -112h636l-167 112q-9 6 -9.5 16.5t8.5 21.5l2 2q8 9 18.5 11.5t18.5 -2.5l244 -161q10 -6 7 -20l-4 -20q-3 -14 -15 -20l-314 -161q-10 -5 -19 -3t-13 11l-1 3q-5 10 0 21
t17 17l215 112h-637l168 -112q9 -6 9.5 -17t-8.5 -21l-2 -2q-8 -9 -18.5 -11.5t-18.5 2.5z" />
    <glyph glyph-name="arrowupdn" unicode="&#x2195;" horiz-adv-x="529" 
d="M252 -81q-14 0 -18 12l-101 278q-3 9 2 19t15 16l2 2q12 7 22.5 4.5t13.5 -13.5l72 -191l130 614l-152 -191q-8 -10 -19.5 -12.5t-19.5 3.5l-3 2q-8 6 -8 15.5t8 19.5l218 279q8 12 22 12h21q14 0 18 -12l102 -279q3 -9 -1.5 -19t-15.5 -16l-2 -2q-11 -7 -22 -4.5
t-14 13.5l-72 191l-130 -613l152 190q9 11 20.5 14t20.5 -4l3 -2q7 -6 7 -16t-7 -19l-221 -280q-8 -11 -22 -11h-21z" />
    <glyph glyph-name="uni2196" unicode="&#x2196;" horiz-adv-x="662" 
d="M265 493l11 -214q1 -12 -7 -21.5t-20 -11.5l-4 -1q-25 -5 -26 19l-17 311q0 11 11 22l17 14q10 9 23 6l293 -84q23 -7 13 -30l-2 -4q-5 -11 -16 -17t-21 -3l-201 58l308 -394q7 -8 4.5 -19t-12.5 -19l-6 -5q-10 -8 -20.5 -8t-16.5 8z" />
    <glyph glyph-name="uni2197" unicode="&#x2197;" horiz-adv-x="662" 
d="M118 106q-6 8 -4 18.5t11 18.5l478 395l-227 -57q-12 -3 -20.5 2.5t-8.5 17.5v4q0 11 7.5 19t18.5 11l328 83q14 3 21 -6l11 -14q7 -9 1 -22l-149 -311q-11 -24 -34 -19l-3 1q-11 2 -15 11.5t2 21.5l101 213l-477 -392q-10 -8 -20.5 -8t-17.5 8z" />
    <glyph glyph-name="uni2198" unicode="&#x2198;" horiz-adv-x="662" 
d="M296 172q-23 7 -13 30l2 4q4 11 15 17t22 3l202 -57l-310 393q-5 8 -3 18.5t11 18.5l8 6q10 8 20.5 8t17.5 -8l309 -394l-12 214q0 12 8.5 22t20.5 12l4 1q10 2 17 -3.5t8 -15.5l18 -310q0 -13 -11 -22l-18 -15q-11 -9 -23 -6z" />
    <glyph glyph-name="uni2199" unicode="&#x2199;" horiz-adv-x="662" 
d="M140 87q-13 -3 -20 6l-11 14q-7 9 -2 22l150 311q5 11 14 16t20 3h3q11 -2 15 -12t-2 -22l-102 -214l477 392q10 8 21 8t17 -8l3 -4q7 -8 4.5 -19t-12.5 -19l-477 -394l228 58q12 3 20.5 -2.5t8.5 -17.5v-4q0 -11 -7 -19t-19 -11z" />
    <glyph glyph-name="partialdiff" unicode="&#x2202;" horiz-adv-x="658" 
d="M335 -10q-54 1 -97 22t-70.5 56.5t-38 83t1.5 101.5q11 54 40 100.5t70 80.5t90.5 53.5t102.5 19.5q71 0 120 -39t58 -102q11 72 2 125t-33 87.5t-62 51t-86 16.5q-30 0 -61 -9q-11 -4 -20 0t-11 14l-5 24q-2 11 5 21.5t19 13.5q46 14 90 14q73 0 127 -30.5t83.5 -87.5
t33 -138t-22.5 -183q-15 -59 -44.5 -113t-72.5 -95t-98 -64.5t-121 -22.5zM357 65q44 -1 80.5 13t65.5 39.5t49.5 60.5t31.5 75q8 39 0.5 73t-27.5 59t-51 39.5t-70 14.5t-76 -14.5t-68 -39.5t-53 -59t-30 -73q-9 -39 -1 -73t28 -59.5t51 -40t70 -15.5z" />
    <glyph glyph-name="emptyset" unicode="&#x2205;" horiz-adv-x="660" 
d="M343 -7q-51 0 -91 17t-68 47l-50 -41q-10 -8 -19.5 -9t-14.5 6q-6 7 -2.5 17t13.5 18l49 40q-24 35 -31 78.5t3 93.5q12 56 43.5 104.5t75 85t97 57.5t108.5 21q50 0 90.5 -17t68.5 -48l51 42q9 8 19.5 9t15.5 -6t2 -17t-13 -18l-50 -41q22 -35 29.5 -78t-3.5 -94
q-11 -55 -42.5 -103.5t-75.5 -85t-97 -57.5t-108 -21zM555 414q-20 21 -48.5 33.5t-64.5 12.5q-42 0 -81.5 -15.5t-72 -42.5t-56 -63.5t-32.5 -78.5q-7 -36 -1.5 -67t21.5 -56zM357 61q42 0 81.5 15.5t72 42.5t55.5 63.5t32 77.5q8 36 2 67t-22 54l-332 -274
q19 -21 47 -33.5t64 -12.5z" />
    <glyph glyph-name="product" unicode="&#x220f;" horiz-adv-x="727" 
d="M124 -204q-12 0 -18 8t-4 19l168 789h-36q-11 0 -17.5 8t-3.5 19l7 34q2 11 11.5 19t21.5 8h549q11 0 17 -8t4 -19l-7 -34q-3 -11 -12.5 -19t-20.5 -8h-36l-168 -789q-2 -11 -11.5 -19t-20.5 -8h-35q-12 0 -18 8t-4 19l168 789h-299l-168 -789q-2 -11 -11.5 -19t-20.5 -8
h-35z" />
    <glyph glyph-name="summation" unicode="&#x2211;" horiz-adv-x="692" 
d="M70 -162q-12 0 -18 8t-4 19l12 53q1 8 10 15l426 338l-283 335q-6 7 -4 15l11 52q2 11 11.5 19t21.5 8h514q11 0 17 -8t4 -19l-7 -34q-3 -11 -12.5 -19t-20.5 -8h-410l263 -325q7 -8 4.5 -19t-12.5 -19l-401 -322h410q12 0 18 -8t4 -19l-8 -35q-2 -11 -11.5 -19t-20.5 -8
h-514z" />
    <glyph glyph-name="minus" unicode="&#x2212;" horiz-adv-x="495" 
d="M173 325q-11 0 -17.5 8t-3.5 19l3 15q2 11 11.5 19t21.5 8h318q11 0 17 -8t4 -19l-3 -15q-3 -11 -12.5 -19t-20.5 -8h-318z" />
    <glyph glyph-name="radical" unicode="&#x221a;" horiz-adv-x="790" 
d="M175 -246q-18 0 -20 16l-46 312q-1 16 9.5 28t27.5 12h34q18 0 20 -16l34 -228l454 806q4 8 11.5 12t15.5 4h151q11 0 17 -8t4 -19l-7 -34q-3 -11 -12.5 -19t-20.5 -8h-105l-480 -842q-4 -7 -11.5 -11.5t-14.5 -4.5h-61z" />
    <glyph glyph-name="infinity" unicode="&#x221e;" horiz-adv-x="1091" 
d="M339 179q-55 0 -93.5 17t-61 44t-29 62t0.5 71q8 34 27.5 66.5t51.5 58t75.5 41t98.5 15.5q43 0 77.5 -12t63 -31.5t52 -44.5t45.5 -51q32 26 64.5 50.5t67.5 44t72.5 31t77.5 11.5q59 0 99 -16.5t63 -43.5t30 -61.5t0 -69.5q-8 -34 -28 -67t-51.5 -58.5t-73 -41
t-92.5 -15.5q-46 0 -82 12.5t-65.5 32t-54 44.5t-46.5 51q-32 -26 -65 -51.5t-69 -45t-74.5 -31.5t-80.5 -12zM353 246q33 0 63 10t59 26.5t57 38t58 45.5q-21 24 -41 46t-43 38.5t-50 26.5t-61 10q-38 0 -68 -10t-52 -26.5t-35.5 -37t-17.5 -42.5q-5 -23 0.5 -45.5
t21.5 -40t43 -28.5t66 -11zM891 246q34 0 62 10t49 26t34 36.5t18 42.5q5 23 -0.5 45t-22 39.5t-45.5 28.5t-71 11q-31 0 -60 -9.5t-57 -26t-55.5 -37.5t-56.5 -45q20 -25 41 -47t45 -38.5t53.5 -26t65.5 -9.5z" />
    <glyph glyph-name="integral" unicode="&#x222b;" horiz-adv-x="465" 
d="M83 -222q-13 -2 -17 10l-6 14q-13 30 2 36q9 4 18 9q22 15 45 54t48 98.5t52 137t56 170.5q25 80 48.5 156t48 139t50.5 109.5t58 67.5q23 16 48 16q12 0 16 -10l5 -12q15 -31 1 -36t-19 -10q-22 -15 -42.5 -54t-41.5 -95t-43 -125.5t-47 -145.5q-27 -85 -54 -166.5
t-55 -150t-58.5 -119t-63.5 -74.5q-12 -8 -24 -13t-25 -6z" />
    <glyph glyph-name="approxequal" unicode="&#x2248;" horiz-adv-x="676" 
d="M693 422q-37 -14 -73.5 -17t-70.5 1.5t-65 13t-59 17.5q-53 15 -102.5 21.5t-98.5 -10.5q-12 -5 -21.5 -1.5t-11.5 14.5l-3 13q-3 10 2.5 19t16.5 14q34 15 68 18.5t66 0.5t61.5 -10t55.5 -14q29 -9 57 -16.5t55.5 -11t55 -2t54.5 11.5q12 5 21.5 1.5t11.5 -14.5l3 -14
q5 -24 -23 -35zM649 217q-37 -15 -72.5 -17.5t-69.5 1.5t-65.5 12.5t-58.5 16.5q-53 16 -103 23.5t-99 -10.5q-13 -5 -22 -1.5t-12 14.5l-3 13q-5 23 19 33q34 14 67.5 18t65.5 1t61 -10t55 -15q29 -9 57 -16.5t56 -11t56 -1.5t55 12q13 5 22 1t11 -15l4 -13q2 -10 -4.5 -20
t-19.5 -15z" />
    <glyph glyph-name="notequal" unicode="&#x2260;" horiz-adv-x="599" 
d="M105 0q-10 0 -6.5 16t17.5 33l141 174h-59q-11 0 -17 8t-4 19l3 14q3 11 12.5 19t20.5 8h99l116 141h-185q-11 0 -17.5 8t-3.5 19l3 14q2 11 11.5 19t20.5 8h225l153 189q9 11 23 11q15 0 16.5 -16t-13.5 -33l-122 -151h36q12 0 18 -8t4 -19l-3 -14q-3 -11 -12.5 -19
t-20.5 -8h-77l-115 -141h162q11 0 17.5 -8t3.5 -19l-3 -14q-2 -11 -11.5 -19t-21.5 -8h-203l-171 -212q-8 -11 -22 -11h-15z" />
    <glyph glyph-name="lessequal" unicode="&#x2264;" horiz-adv-x="501" 
d="M183 380q-11 6 -8 21l3 13q3 15 16 21l326 152q17 8 29.5 3.5t10.5 -19.5l-3 -23q0 -7 -5.5 -13t-11.5 -9l-243 -117l193 -120q12 -8 8 -22l-7 -22q-5 -15 -19 -20t-29 3zM125 98q-11 0 -17.5 8t-3.5 19l3 14q2 11 11.5 19t20.5 8h324q12 0 18 -8t4 -19l-3 -14
q-3 -11 -12.5 -19t-20.5 -8h-324z" />
    <glyph glyph-name="greaterequal" unicode="&#x2265;" horiz-adv-x="501" 
d="M186 229q-18 -8 -31 -3t-11 19l4 22q3 15 16 22l243 120l-192 117q-11 7 -8 22l4 12q5 18 20.5 26t30.5 0l258 -151q12 -6 9 -21l-3 -13q-3 -14 -17 -21zM125 98q-11 0 -17.5 8t-3.5 19l3 14q2 11 11.5 19t20.5 8h324q12 0 18 -8t4 -19l-3 -14q-3 -11 -12.5 -19t-20.5 -8
h-324z" />
    <glyph glyph-name="lozenge" unicode="&#x25ca;" horiz-adv-x="554" 
d="M280 24q-14 0 -17 12l-108 299q-3 11 5 22l234 298q9 12 23 12h31q14 0 17 -11l111 -298q4 -12 -5 -24l-238 -299q-7 -11 -22 -11h-31zM317 116l182 230l-85 229l-182 -229z" />
    <glyph glyph-name="C.ss01" horiz-adv-x="514" 
d="M416 0q-84 4 -144.5 31t-96 73.5t-46 109t4.5 136.5q16 74 53 136.5t92.5 109t127.5 73.5t158 31q12 1 18.5 -7t3.5 -19l-7 -35q-3 -11 -11.5 -18.5t-20.5 -8.5q-65 -3 -119.5 -23.5t-96 -55t-69 -81t-39.5 -102.5q-11 -55 -3.5 -102t34.5 -81.5t72.5 -55t109.5 -23.5
q11 -1 16.5 -8.5t3.5 -18.5l-7 -35q-3 -11 -12.5 -19t-21.5 -7z" />
    <glyph glyph-name="M.ss01" horiz-adv-x="1047" 
d="M103 0q-11 0 -17.5 8t-3.5 19l137 646q2 11 11.5 19t21.5 8h28q11 0 17 -8t4 -19l-25 -117q22 35 52 63.5t64 49t70.5 31.5t72.5 11q76 0 110 -39.5t29 -120.5q22 36 52.5 65.5t65.5 50.5t72.5 32.5t74.5 11.5q51 0 82.5 -15.5t46 -48t13 -83.5t-16.5 -123l-88 -414
q-3 -11 -12.5 -19t-20.5 -8h-34q-11 0 -17.5 8t-3.5 19l88 415q19 90 -1 135.5t-86 45.5q-32 0 -66 -13t-65.5 -38t-57.5 -60.5t-41 -80.5l-86 -404q-3 -11 -12.5 -19t-20.5 -8h-34q-11 0 -17.5 8t-3.5 19l88 415q19 90 -1 135.5t-86 45.5q-32 0 -66 -13.5t-65.5 -38.5
t-57.5 -61t-42 -82l-85 -401q-3 -11 -12.5 -19t-20.5 -8h-34z" />
    <glyph glyph-name="N.ss01" horiz-adv-x="753" 
d="M103 0q-11 0 -17.5 8t-3.5 19l137 646q2 11 11.5 19t21.5 8h28q11 0 17 -8t4 -19l-28 -132q25 38 59.5 69t76 53.5t88.5 35t96 12.5q125 0 166 -67t11 -207l-87 -410q-3 -11 -12.5 -19t-20.5 -8h-34q-11 0 -17.5 8t-3.5 19l89 418q19 91 -18 137t-123 45q-40 0 -84 -13.5
t-84 -38.5t-71.5 -61t-47.5 -82l-86 -405q-3 -11 -12.5 -19t-20.5 -8h-34z" />
    <glyph glyph-name="U.ss01" horiz-adv-x="753" 
d="M310 -11q-126 0 -167 67t-11 207l87 410q2 11 11.5 19t21.5 8h34q11 0 17 -8t4 -19l-89 -418q-19 -91 18 -137t124 -45q40 0 83.5 13.5t83.5 38.5t71.5 61t47.5 82l86 405q2 11 11.5 19t21.5 8h34q11 0 17 -8t4 -19l-137 -646q-3 -11 -12.5 -19t-20.5 -8h-28
q-11 0 -17.5 8t-3.5 19l28 132q-25 -38 -59.5 -69t-76 -53.5t-88.5 -35t-95 -12.5z" />
    <glyph glyph-name="a.ss01" horiz-adv-x="611" 
d="M284 -12q-52 0 -92.5 19.5t-65.5 54t-32.5 82.5t4.5 106t40.5 106.5t68 83.5t88 54.5t101.5 19.5q64 0 107 -24.5t63 -69.5l12 53q2 11 11.5 19t20.5 8h23q12 0 18 -8t4 -19l-95 -446q-3 -11 -12.5 -19t-20.5 -8h-23q-11 0 -17.5 8t-3.5 19l11 53q-39 -44 -92.5 -68
t-117.5 -24zM321 61q58 0 102.5 24.5t74.5 69.5l41 191q-11 44 -45.5 68.5t-92.5 24.5q-39 0 -74 -13.5t-63 -38t-48 -59.5t-29 -78q-18 -86 18.5 -137.5t115.5 -51.5z" />
    <glyph glyph-name="eight.dnom" horiz-adv-x="505" 
d="M195 -300q-84 0 -124 43t-24 116q9 44 42 78.5t81 48.5q-24 14 -33.5 39.5t-2.5 57.5q6 29 22 53.5t40 42.5t53 28.5t60 10.5q32 0 57 -10.5t40.5 -28.5t21.5 -42.5t0 -53.5q-7 -32 -28 -57t-51 -40q42 -14 60 -48.5t9 -78.5q-16 -75 -74.5 -117t-148.5 -42zM264 3
q42 2 71.5 24t37.5 56q7 34 -13.5 56.5t-61.5 23.5q-41 0 -71.5 -23t-37.5 -57q-8 -34 13 -56t62 -24zM208 -246q67 0 106.5 27t50.5 78q8 38 -13.5 64.5t-72.5 26.5h-56q-49 0 -82 -26.5t-41 -64.5q-11 -51 16.5 -78t91.5 -27z" />
    <glyph glyph-name="eight.numr" horiz-adv-x="505" 
d="M364 493q-85 0 -124.5 42.5t-24.5 115.5q10 45 42.5 79.5t81.5 48.5q-24 15 -34 40t-3 56q6 29 22.5 54t40 43t52.5 28t61 10t56.5 -10t40.5 -28t21.5 -43t-0.5 -54q-7 -31 -27.5 -55.5t-50.5 -40.5q42 -14 60 -48.5t8 -79.5q-16 -75 -74 -116.5t-148 -41.5zM432 797
q42 2 72 24t37 54q7 35 -13 57.5t-62 23.5q-41 0 -71.5 -23.5t-37.5 -57.5q-7 -32 13.5 -54t61.5 -24zM376 547q135 0 157 104q8 38 -13.5 64.5t-71.5 26.5h-56q-50 0 -83 -26.5t-41 -64.5q-10 -49 17 -76.5t91 -27.5z" />
    <glyph glyph-name="f.ss01" horiz-adv-x="370" 
d="M103 0q-11 0 -17.5 8t-3.5 19l85 403h-36q-11 0 -17 8t-4 19l4 16q2 11 11.5 19t20.5 8h36l3 12q11 54 28.5 93t45 63.5t66 36.5t92.5 12h42q12 0 18 -8t4 -19l-4 -19q-3 -11 -12.5 -19t-20.5 -8h-23q-39 0 -63.5 -6t-40.5 -20.5t-25 -39.5t-18 -63l-3 -15h142
q12 0 18 -8t4 -19l-4 -16q-2 -11 -11.5 -19t-21.5 -8h-142l-85 -403q-3 -11 -12.5 -19t-20.5 -8h-35z" />
    <glyph glyph-name="five.dnom" horiz-adv-x="493" 
d="M189 -304q-56 -1 -94.5 20.5t-53.5 59.5q-3 11 3 20.5t18 14.5l2 1q11 5 19 1t11 -13q11 -24 39 -37t69 -14q127 0 153 125q13 60 -19.5 88t-103.5 25q-23 -2 -48.5 -4t-52.5 -5q-13 -2 -20.5 6t-4.5 21l40 187q2 11 11.5 19t21.5 8h239q11 0 17 -7.5t4 -18.5t-11.5 -19
t-21.5 -8h-212l-27 -130l69 4q101 8 146.5 -36.5t27.5 -129.5t-76.5 -132t-144.5 -46z" />
    <glyph glyph-name="five.numr" horiz-adv-x="493" 
d="M355 477q-56 -1 -94.5 20t-53.5 60q-4 11 2.5 20.5t18.5 14.5l3 1q21 7 29 -12q11 -23 39 -37t68 -14q128 0 154 124q13 62 -20 89.5t-106 24.5q-22 -2 -47 -4.5t-51 -5.5q-13 -2 -20.5 6t-4.5 21l40 188q2 11 11.5 19t21.5 8h239q11 0 17 -7.5t4 -18.5t-11.5 -19
t-21.5 -8h-212l-28 -131l70 5q101 8 146.5 -37t27.5 -130t-76.5 -131.5t-144.5 -45.5z" />
    <glyph glyph-name="four.dnom" horiz-adv-x="448" 
d="M266 -290q-11 0 -17 8t-4 19l32 150h-197q-11 0 -17.5 7.5t-3.5 18.5l4 20q0 3 2 7t5 6l268 273q7 9 19 9h20q12 0 18 -8t4 -19l-56 -262h9q11 0 17.5 -7.5t4.5 -18.5q-3 -11 -9.5 -18.5t-14.5 -7.5h-18l-32 -150q-2 -11 -11.5 -19t-21.5 -8h-1zM126 -61h162l44 206z" />
    <glyph glyph-name="four.numr" horiz-adv-x="448" 
d="M430 482q-11 0 -17 8t-4 19l32 150h-197q-11 0 -17.5 8t-3.5 19l4 20q1 3 2.5 7t4.5 6l268 272q8 9 20 9h20q11 0 17 -8t4 -19l-56 -261h9q12 0 18 -7.5t4 -18.5q-3 -11 -9.5 -19t-14.5 -8h-18l-32 -150q-2 -11 -11.5 -19t-21.5 -8h-1zM290 712h162l44 206z" />
    <glyph glyph-name="g.ss01" horiz-adv-x="610" 
d="M233 -237q-55 1 -100 16.5t-75 46.5q-7 7 -4.5 17.5t11.5 18.5l21 20q9 9 20 9.5t19 -7.5q25 -24 58 -35t72 -12q37 0 70.5 7t60.5 23.5t46 42t27 63.5l25 115q-37 -38 -86.5 -59t-109.5 -21q-53 0 -93.5 17.5t-66 49.5t-33.5 77.5t4 100.5q12 58 40 106t67.5 82.5
t87.5 53.5t101 19q64 0 107 -24.5t64 -69.5l12 53q2 11 11.5 19t20.5 8h22q12 0 18 -8t4 -19l-107 -503q-12 -56 -40 -95.5t-68.5 -64.5t-92.5 -36t-113 -11zM324 74q57 0 102 24.5t75 69.5l38 178q-12 44 -46 68.5t-92 24.5q-39 0 -73.5 -13.5t-63 -37.5t-48 -58.5
t-28.5 -76.5q-18 -82 19 -130.5t117 -48.5z" />
    <glyph glyph-name="i.loclTRK" horiz-adv-x="201" 
d="M226 564q-29 0 -44 19.5t-9 47.5q6 27 29 46.5t52 19.5q28 0 43.5 -19.5t9.5 -46.5q-6 -28 -29.5 -47.5t-51.5 -19.5zM84 0q-11 0 -17.5 8t-3.5 19l95 446q2 11 11.5 19t20.5 8h34q12 0 18 -8t4 -19l-95 -446q-3 -11 -12.5 -19t-20.5 -8h-34z" />
    <glyph glyph-name="nine.dnom" horiz-adv-x="508" 
d="M177 -300q-57 0 -96 32q-9 7 -7 18t11 19l2 2q19 16 36 3q30 -22 68 -22q34 0 65.5 15t57.5 42t45 64.5t27 83.5q-25 -39 -67 -64t-87 -26q-39 -1 -70 12.5t-50.5 37.5t-26 57t1.5 71t29.5 71.5t51.5 58.5t66.5 39.5t74.5 14.5q65 0 105 -38.5t44 -97.5q1 -32 -2 -61
t-9 -57q-13 -61 -39 -111.5t-61.5 -87t-79 -56.5t-90.5 -20zM242 -84q27 0 53 10t47 27.5t36.5 41t21.5 50.5q5 27 0 51t-19 41t-35.5 27t-48.5 10t-52.5 -10t-47 -27t-36.5 -41t-20 -51q-6 -27 -1 -50.5t18.5 -41t35 -27.5t48.5 -10z" />
    <glyph glyph-name="nine.numr" horiz-adv-x="508" 
d="M343 481q-28 0 -52 8.5t-43 23.5q-9 7 -7.5 18.5t10.5 19.5l3 2q8 8 17.5 8t16.5 -6q30 -22 69 -22q34 0 65.5 15t57.5 42t45 65t27 84q-25 -39 -67 -65t-87 -26q-39 0 -70 13.5t-50 37.5t-26 57t1 71t29.5 71.5t51.5 58.5t66.5 39t74.5 14q65 0 105.5 -38t43.5 -98
q1 -31 -2 -60t-9 -58q-13 -60 -39 -110.5t-61.5 -87t-79 -57t-90.5 -20.5zM408 697q27 0 53 10t47.5 27.5t36.5 41.5t21 51q5 27 0 50.5t-19 41t-35.5 27.5t-48.5 10t-52.5 -10t-47 -27.5t-36.5 -41t-20 -50.5q-6 -27 -1 -51t18.5 -41.5t35 -27.5t48.5 -10z" />
    <glyph glyph-name="one.dnom" horiz-adv-x="289" 
d="M120 -286q-11 0 -17 8t-4 19l88 414l-24 -19q-10 -8 -21 -8t-17 8l-1 1q-6 8 -3.5 18.5t12.5 18.5l63 51q7 6 16 6h18q11 0 17.5 -8t3.5 -19l-98 -463q-2 -11 -11.5 -19t-21.5 -8z" />
    <glyph glyph-name="one.numr" horiz-adv-x="289" 
d="M284 483q-12 0 -18 8t-4 19l88 414l-24 -20q-10 -8 -20.5 -8t-16.5 8l-1 1q-6 8 -4 19t12 19l63 51q8 6 17 6h18q11 0 17 -8t4 -19l-99 -463q-2 -11 -11.5 -19t-20.5 -8z" />
    <glyph glyph-name="seven.dnom" horiz-adv-x="482" 
d="M105 -290q-11 0 -10.5 14.5t12.5 31.5l295 416h-261q-12 0 -18 8t-4 19l1 1q2 11 11.5 19t20.5 8h293q12 0 18 -8t4 -19l-5 -23q-1 -3 -4 -9l-314 -445q-8 -13 -24 -13h-15z" />
    <glyph glyph-name="seven.numr" horiz-adv-x="482" 
d="M270 483q-12 0 -11 14.5t12 31.5l295 417h-261q-11 0 -17.5 8t-3.5 19q2 11 11.5 19t21.5 8h293q11 0 17 -8t4 -19l-5 -22q0 -3 -4 -9l-314 -446q-8 -13 -23 -13h-15z" />
    <glyph glyph-name="six.dnom" horiz-adv-x="508" 
d="M204 -300q-64 0 -104.5 38t-44.5 98q0 59 12 118q13 60 39 110.5t61.5 87t78.5 57t90 20.5q28 0 51.5 -8.5t43.5 -23.5q10 -7 8.5 -18t-10.5 -19l-2 -2q-19 -16 -36 -3q-30 22 -69 22q-34 0 -65.5 -14.5t-57.5 -41.5t-45 -65t-27 -85q25 39 67 65t87 26q40 0 70.5 -13.5
t50 -37.5t26.5 -57t-1 -71t-29.5 -71.5t-51.5 -58.5t-67 -39t-75 -14zM216 -246q27 0 52.5 10t47 27.5t36.5 41t21 50.5t1 51t-19 41.5t-35.5 27.5t-48.5 10t-52.5 -10t-47 -27.5t-36.5 -41.5t-21 -51t-0.5 -50.5t19 -41t35 -27.5t48.5 -10z" />
    <glyph glyph-name="six.numr" horiz-adv-x="508" 
d="M370 481q-64 0 -104.5 38.5t-44.5 97.5q0 61 12 118q13 61 39 111.5t61.5 87t78.5 56.5t90 20q56 0 97 -32q8 -7 6.5 -18t-10.5 -19l-2 -2q-19 -16 -36 -3q-30 22 -69 22q-34 0 -65.5 -15t-57.5 -42t-45 -64.5t-27 -83.5q25 39 67 64t87 26q40 1 70.5 -12.5t50 -37.5
t26.5 -57t-1 -71t-29.5 -71.5t-51.5 -58.5t-67 -39.5t-75 -14.5zM382 536q27 0 53 10t47 27t36.5 41t20.5 51q6 27 1 50.5t-19 41t-35.5 27.5t-48.5 10t-52.5 -10t-47 -27.5t-36.5 -41t-21 -50.5q-5 -27 0 -51t19 -41t35 -27t48 -10z" />
    <glyph glyph-name="three.dnom" horiz-adv-x="503" 
d="M193 -299q-57 -1 -96 17t-56 52q-5 9 0 19t17 16l3 2q21 11 33 -9t40 -31.5t71 -11.5q66 0 107.5 29t53.5 82q8 42 -14.5 67t-71.5 25h-36q-11 0 -17.5 7.5t-3.5 18.5q2 11 8.5 19t12.5 8q46 0 78.5 26t40.5 61q8 37 -12.5 59t-65.5 22q-27 0 -49.5 -9t-39.5 -25
q-8 -8 -17.5 -11t-17.5 2l-3 2q-8 5 -9.5 16t7.5 20q27 28 63.5 42.5t77.5 14.5q68 0 101 -36.5t20 -96.5q-7 -30 -26.5 -56.5t-49.5 -43.5q46 -11 66.5 -46t10.5 -86q-8 -38 -28 -68.5t-49.5 -52t-67 -33t-81.5 -11.5z" />
    <glyph glyph-name="three.numr" horiz-adv-x="503" 
d="M359 479q-58 -1 -97 16.5t-56 51.5q-5 9 0.5 19.5t16.5 15.5l3 2q11 6 19 2.5t14 -11.5q25 -43 111 -43q66 0 107.5 29t53.5 82q8 42 -14.5 66.5t-71.5 24.5h-36q-11 0 -17.5 8t-3.5 19v1q2 11 8.5 19t13.5 8q45 0 78 26t40 59q8 37 -12.5 59.5t-65.5 22.5
q-27 0 -49.5 -9t-39.5 -26q-8 -8 -17.5 -11t-17.5 2l-3 2q-8 5 -9.5 16t7.5 20q27 28 63.5 43.5t77.5 14.5q68 0 101 -37t20 -97q-7 -30 -27 -56.5t-49 -43.5q46 -11 66.5 -45.5t10.5 -85.5q-17 -76 -77.5 -120.5t-147.5 -43.5z" />
    <glyph glyph-name="two.dnom" horiz-adv-x="488" 
d="M42 -290q-11 0 -17 8t-4 19l6 26q8 33 29.5 58.5t50 46.5t61.5 39t65 35q65 35 109 68t54 79q8 36 -18.5 63.5t-87.5 27.5q-77 0 -119 -47q-8 -9 -17 -13t-18 1l-2 1q-10 5 -12 14.5t6 20.5q29 37 74.5 56.5t100.5 19.5q40 0 70.5 -11t49.5 -30.5t26 -45.5t1 -56
q-14 -67 -67 -111t-132 -83q-27 -14 -52.5 -28t-47.5 -30t-37.5 -34.5t-21.5 -40.5h261q11 0 17 -8t4 -19q-3 -11 -12 -18.5t-21 -7.5h-299z" />
    <glyph glyph-name="two.numr" horiz-adv-x="488" 
d="M208 487q-12 0 -18 8t-4 19l6 26q8 33 29.5 58t50 46t61.5 39t65 35q65 36 109 69t54 78q8 36 -18 64t-88 28q-77 0 -119 -47q-8 -10 -17.5 -13.5t-18.5 1.5l-2 1q-9 5 -11 14.5t6 19.5q29 36 74.5 56.5t100.5 20.5q40 0 70.5 -11.5t49.5 -31.5t26 -46t1 -56
q-14 -66 -67 -110.5t-132 -83.5q-27 -13 -52.5 -27t-47.5 -30t-37.5 -34t-21.5 -40h261q11 0 17.5 -7.5t3.5 -18.5q-2 -11 -11.5 -19t-20.5 -8h-299z" />
    <glyph glyph-name="y.ss01" horiz-adv-x="604" 
d="M228 -237q-56 1 -101 16.5t-75 46.5q-7 7 -5 17.5t11 18.5l22 20q9 9 20 9.5t18 -7.5q25 -24 58.5 -35t71.5 -12q38 0 71.5 7t60.5 23.5t46 42t27 63.5l31 144q-55 -56 -123 -83t-132 -26q-49 1 -79 15t-44.5 40t-15 63.5t9.5 85.5l56 261q2 11 11.5 19t20.5 8h35
q12 0 18 -8t4 -19l-50 -232q-16 -76 2.5 -116.5t92.5 -42.5q59 0 116.5 30t94.5 84l59 277q2 11 11.5 19t20.5 8h34q12 0 18 -8t4 -19l-107 -503q-12 -56 -40 -95.5t-68.5 -64.5t-92.5 -36t-112 -11z" />
    <glyph glyph-name="zero.dnom" horiz-adv-x="540" 
d="M217 -299q-42 0 -75 20.5t-53 56.5t-25.5 84.5t6.5 104.5q12 55 38 103t61 84t76.5 56.5t84.5 20.5q42 0 74.5 -20.5t52.5 -56.5t26 -84t-6 -103q-12 -56 -38 -104.5t-61.5 -84.5t-77 -56.5t-83.5 -20.5zM229 -244q31 0 61 16.5t56.5 45.5t46.5 67t29 82q9 43 5.5 81
t-17.5 66.5t-37.5 45t-54.5 16.5q-30 0 -61 -16.5t-57 -44.5t-46 -66t-29 -82t-5.5 -82.5t17.5 -67t37.5 -45t54.5 -16.5z" />
    <glyph glyph-name="zero.numr" horiz-adv-x="540" 
d="M383 479q-43 0 -76 20.5t-53 56.5t-25.5 84t6.5 103q12 56 38 104.5t61 84.5t77 56.5t84 20.5t75 -20.5t52.5 -56.5t25.5 -84.5t-6 -104.5q-12 -55 -38 -103t-61 -84t-76.5 -56.5t-83.5 -20.5zM395 534q30 0 60.5 16.5t56.5 45t46 66.5t29 81q9 44 5.5 82t-17.5 67
t-37.5 45.5t-53.5 16.5q-31 0 -61.5 -16.5t-57 -45t-46.5 -67t-29 -82.5q-9 -43 -5.5 -81.5t17.5 -66.5t38 -44.5t55 -16.5z" />
    </font>
</defs>
</svg>
