<?xml version="1.0" standalone="no"?>
<!DOCTYPE svg PUBLIC "-//W3C//DTD SVG 1.1//EN" "http://www.w3.org/Graphics/SVG/1.1/DTD/svg11.dtd" >
<svg xmlns="http://www.w3.org/2000/svg" xmlns:xlink="http://www.w3.org/1999/xlink" version="1.1">
<metadata></metadata>
<defs>
<font id="config_roundedbold" horiz-adv-x="1329" >
<font-face units-per-em="2048" ascent="1577" descent="-471" />
<missing-glyph horiz-adv-x="462" />
<glyph unicode="&#xfb01;" horiz-adv-x="1327" d="M76 831v130q0 63 63 63h107v119q0 131 85 210q86 80 226 80h111q63 0 63 -64v-110q0 -63 -63 -64h-33q-47 0 -75 -27t-28 -74v-70h605q63 0 63 -63v-898q0 -63 -63 -63h-160q-63 0 -64 63v705h-381v-705q0 -63 -63 -63h-160q-63 0 -63 63v705h-107q-63 0 -63 63z M887 1319q0 76 47 121q46 45 125 45q77 0 123 -45q47 -45 47 -119q0 -76 -46 -121t-124 -45q-79 0 -126 45q-46 45 -46 119z" />
<glyph unicode="&#xfb02;" horiz-adv-x="1464" d="M76 832v130q0 63 63 63h107v119q0 131 85 210q86 80 226 80h125q63 0 63 -64v-110q0 -62 -63 -64h-47q-47 0 -75 -27t-28 -74v-70h150q63 0 63 -63v-130q0 -63 -63 -63h-150v-705q0 -63 -63 -63h-160q-63 0 -63 63v705h-107q-63 0 -63 63zM949 286v1083q0 63 64 64h160 q63 0 63 -64v-1008q0 -47 27 -72q26 -25 72 -25h23l-1 -1q39 0 39 -41v-160q0 -63 -64 -63h-76q-140 0 -223 79q-84 79 -84 208z" />
<glyph horiz-adv-x="0" />
<glyph unicode="&#xd;" horiz-adv-x="682" />
<glyph unicode=" "  horiz-adv-x="462" />
<glyph unicode="&#x09;" horiz-adv-x="462" />
<glyph unicode="&#xa0;" horiz-adv-x="462" />
<glyph unicode="!" horiz-adv-x="546" d="M90 162q0 82 51 132q50 49 132 49t131 -49q50 -50 50 -132q0 -83 -49 -132q-50 -50 -131 -50h-1q-80 0 -132 50q-51 50 -51 132zM123 995v314q0 63 63 63h176q62 0 64 -63v-314l-31 -485q-1 -61 -63 -61h-115q-62 0 -63 61z" />
<glyph unicode="&#x22;" horiz-adv-x="948" d="M109 1286v23q0 63 63 63h176q62 0 64 -63v-23l-27 -377q-2 -59 -63 -59h-121q-61 0 -64 59zM537 1286v23q0 63 63 63h176q62 0 64 -63v-23l-29 -377q-2 -59 -63 -59h-121q-61 0 -64 59z" />
<glyph unicode="#" horiz-adv-x="1439" d="M98 403v82q0 63 64 64h158l40 274h-116q-63 0 -64 64v82q0 63 64 63h147l43 281q8 59 68 59h117q70 0 60 -67l-41 -273h270l41 281q12 59 70 59h117q70 0 60 -67l-41 -273h119q63 0 63 -63v-82q0 -63 -63 -64h-150l-41 -274h109q63 0 63 -64v-82q0 -63 -63 -63h-139 l-43 -281q-8 -59 -68 -59h-119q-31 0 -48 18q-16 18 -10 50l41 272h-270l-43 -281q-8 -59 -68 -59h-117q-71 0 -60 68l41 272h-127q-62 0 -64 63zM567 549h271l41 274h-271z" />
<glyph unicode="$" horiz-adv-x="1144" d="M115 381q-4 31 12 49q17 18 48 18h168q44 0 57 -43q29 -131 174 -131q75 0 121 38q45 38 45 98q0 62 -63 99q-65 39 -154 62q-87 23 -183 59q-92 35 -155 111q-63 77 -63 198q0 141 84 239t231 129v114q0 63 64 64h143q63 0 64 -64v-112q127 -27 205 -105t93 -198 q6 -31 -12 -49t-49 -18h-168q-39 0 -57 41q-26 113 -154 113q-69 0 -112 -35q-42 -34 -42 -90q0 -52 46 -86q47 -35 115 -51q76 -18 149 -43q81 -28 149 -60q68 -33 115 -105q46 -71 46 -174l-2 -5q0 -147 -87 -249t-236 -134v-115q0 -63 -64 -64h-143q-63 0 -64 64v112 q-136 27 -221 110q-83 82 -100 213z" />
<glyph unicode="%" horiz-adv-x="1769" d="M105 916v197q0 129 87 207t228 78q140 0 226 -78q85 -78 85 -207v-197q0 -129 -85 -207q-86 -78 -226 -78q-141 0 -228 78t-87 207zM322 919q0 -41 27 -66q28 -26 71 -26l-1 -1q44 0 72 26q27 26 27 66v188q0 40 -27 66q-28 26 -72 26t-70 -25q-27 -25 -27 -66v-188z M381 24q-12 24 10 57l764 1243q27 47 82 47h100q39 0 51 -24t-10 -57l-764 -1243q-27 -47 -82 -47h-100q-39 0 -51 24zM1035 259v197q0 129 87 207t231 78q139 0 225 -78q85 -78 85 -207v-197q0 -129 -85 -207q-86 -78 -225 -78h-1q-143 0 -230 78t-87 207zM1249 262 q0 -40 29 -66q28 -25 74 -25v-2q42 0 70 26q27 25 27 66v189q0 40 -27 66q-28 26 -70 26q-46 0 -74 -25q-29 -26 -29 -66v-189z" />
<glyph unicode="&#x26;" horiz-adv-x="1308" d="M62 390q0 123 67 221q68 100 181 152v22q-112 154 -111 289q0 136 107 228t281 92t278 -91q105 -91 105 -232q0 -106 -66 -202t-187 -165l237 -254q4 25 4 47v98q0 63 64 63h121q63 0 63 -63v-94q0 -142 -65 -249l112 -121l-1 -3q33 -33 33 -78q0 -53 -63 -53h-129 q-47 0 -78 33l-55 57q-139 -115 -366 -115q-236 0 -384 117t-148 301zM360 403q0 -84 73 -139t196 -55v-1q98 0 176 39l-326 342q-119 -77 -119 -186zM457 1055q0 -67 90 -171q162 84 162 182q0 45 -35 75q-34 30 -90 30v-1q-55 0 -91 -33t-36 -82z" />
<glyph unicode="'" horiz-adv-x="522" d="M109 1286v23q0 63 63 63h176q62 0 64 -63v-23l-27 -377q-2 -59 -63 -59h-121q-61 0 -64 59z" />
<glyph unicode="(" horiz-adv-x="720" d="M125 585q0 248 72 470t201 384q28 37 78 37h129q39 0 50 -21t-10 -54q-219 -341 -219 -817q0 -472 221 -816q19 -33 9 -54t-50 -21h-129l-1 1q-50 0 -78 37q-129 163 -201 386q-72 222 -72 468z" />
<glyph unicode=")" horiz-adv-x="720" d="M65 -289q-12 21 8 54q223 340 223 817q0 473 -223 816q-18 33 -7 54q10 21 48 21h129q50 0 78 -37q131 -162 201 -384q71 -224 71 -470q0 -249 -70 -468q-71 -220 -201 -384q-28 -37 -78 -37h-129l-1 -3q-37 0 -49 21z" />
<glyph unicode="*" horiz-adv-x="872" d="M99 941q-23 44 19 69l41 22l155 60l-155 59l-41 25q-40 25 -18 67l39 66q22 43 66 16l43 -22l129 -105l-27 164v47q0 49 47 49h78q49 0 49 -49v-47l-26 -164l127 105l43 22q45 27 67 -16l37 -66q22 -43 -18 -67l-41 -25l-156 -59l156 -60l41 -22l-2 1q40 -25 18 -69 l-37 -65q-23 -43 -66 -18l-43 23l-129 104l28 -164v-47q0 -49 -49 -49h-78q-47 0 -47 49v47l27 164l-129 -104l-43 -23q-43 -27 -66 17z" />
<glyph unicode="+" horiz-adv-x="1128" d="M127 551v121q0 63 63 63h246v250q0 63 64 64h131q63 0 63 -64v-250h244q63 0 63 -63v-121q0 -63 -63 -64h-244v-251q0 -62 -63 -64h-131q-63 0 -64 64v251h-246q-63 0 -63 64z" />
<glyph unicode="," horiz-adv-x="552" d="M78 -134l76 389q8 57 69 57h180q35 0 48 -21q14 -21 2 -55l-154 -390q-16 -49 -72 -49h-92v1q-71 0 -57 68z" />
<glyph unicode="-" horiz-adv-x="835" d="M127 498v143q0 63 63 64h455q63 0 64 -64v-143q0 -63 -64 -64h-455q-63 0 -63 64z" />
<glyph unicode="." horiz-adv-x="548" d="M87 168q0 84 53 134t136 50t135 -50q51 -50 51 -134t-51 -136t-135 -52h-1q-84 0 -136 52t-52 136z" />
<glyph unicode="/" horiz-adv-x="931" d="M62 -237l533 1657q13 52 72 54h153q32 0 45 -19t3 -52l-532 -1657q-14 -53 -72 -53h-153l-1 -1q-31 0 -45 20q-13 20 -3 51z" />
<glyph unicode="0" horiz-adv-x="1288" d="M132 444v484q0 211 141 340t372 129t371 -128t140 -341v-484q0 -213 -140 -341t-371 -128t-372 129t-141 340zM434 450q0 -88 57 -142t153 -54l-1 -1q95 0 152 54t57 143v471q0 88 -57 142t-151 54q-96 0 -153 -54t-57 -142v-471z" />
<glyph unicode="1" horiz-adv-x="831" d="M90 1032v146q0 53 49 71l244 107q38 16 80 16h131q63 0 63 -63v-1246q0 -63 -63 -63h-176v-2q-62 0 -64 63v996h-18l-170 -76q-34 -13 -55 0t-21 51z" />
<glyph unicode="2" horiz-adv-x="1171" d="M101 961v36q0 178 134 289q133 111 353 111q218 0 349 -106q132 -107 132 -279q0 -208 -209 -408l-305 -309v-16h446q63 0 64 -64v-152q0 -63 -64 -63h-833l-2 1q-62 0 -64 63v132q0 47 33 77l436 435q181 180 183 276q0 62 -45 99q-46 38 -123 38q-80 0 -126 -40 q-47 -41 -47 -108v-17q0 -55 -60 -55h-188q-63 0 -64 60z" />
<glyph unicode="3" horiz-adv-x="1185" d="M88 346v23q0 63 64 63h184q52 0 69 -45q7 -66 57 -105t134 -39q86 0 138 46t52 122q0 75 -48 120t-128 45h-164q-63 0 -63 64v113q0 63 63 63h140q79 0 128 44q48 44 48 117q0 72 -46 115t-123 43t-120 -37q-43 -38 -48 -102q-10 -43 -61 -43h-193q-63 0 -63 64v16 q0 157 134 261t351 104t351 -105q133 -105 133 -274q0 -109 -56 -192q-55 -82 -149 -112v-17q102 -33 165 -122q63 -88 63 -204q0 -179 -139 -288t-369 -109l1 3q-227 0 -366 105t-139 263z" />
<glyph unicode="4" horiz-adv-x="1239" d="M77 332v123q0 46 20 80l498 794q22 43 75 43h284q62 0 64 -63v-777h84h1q63 0 63 -63v-137q0 -62 -63 -64h-84v-205q0 -63 -64 -63h-176q-63 0 -63 63v205h-576q-63 0 -63 64zM388 532h328v426l14 99h-24l-318 -508v-17z" />
<glyph unicode="5" horiz-adv-x="1183" d="M101 342v20q0 28 18 45q19 17 47 17h186q46 0 63 -45q25 -139 189 -139q92 0 146 55t54 147q0 94 -54 151t-142 57q-106 0 -156 -63q-16 -11 -36 -13h-228q-71 0 -60 68l92 672q6 59 68 59h661q63 0 64 -63v-138q0 -63 -64 -63h-463l-43 -281h17q72 72 225 72 q193 0 312 -123q119 -124 119 -321q0 -217 -143 -349t-383 -132v-1q-212 0 -351 104q-138 104 -138 264z" />
<glyph unicode="6" horiz-adv-x="1193" d="M82 453q0 227 141 438l293 438q26 41 76 41h199q35 0 45 -22t-11 -55l-315 -446h16q56 51 186 51q185 0 297 -121q113 -122 113 -315q0 -220 -144 -354q-143 -133 -380 -133l-2 -3q-231 0 -373 134q-141 134 -141 347zM392 440q0 -91 56 -147t150 -56l-2 -2q92 0 152 57 t60 149q0 90 -57 147t-151 57q-95 0 -151 -55q-57 -56 -57 -150z" />
<glyph unicode="7" horiz-adv-x="1112" d="M96 1157v152q0 63 64 63h811q63 0 63 -63v-131q0 -42 -16 -80l-473 -1051q-20 -47 -74 -47h-201v1q-37 0 -49 21q-12 22 4 60l455 995v17h-520q-62 0 -64 63z" />
<glyph unicode="8" horiz-adv-x="1214" d="M81 377q0 117 65 206q64 89 174 126v16q-94 37 -148 117t-54 182q0 164 134 269t351 105q219 0 354 -105t135 -271q0 -100 -54 -180q-55 -80 -148 -119v-16q111 -39 174 -127t63 -205q0 -178 -143 -289q-142 -111 -378 -111l-5 2q-232 0 -376 111t-144 289zM383 418 q0 -82 59 -130q58 -48 157 -48h-2q99 0 158 48t59 130t-59 129t-157 47t-157 -48q-58 -48 -58 -128zM409 981q0 -71 54 -114q55 -44 138 -44h-2q85 0 140 44q54 43 54 114q0 73 -54 116q-55 44 -139 44q-85 0 -138 -44t-53 -116z" />
<glyph unicode="9" horiz-adv-x="1193" d="M74 903q0 225 143 359t378 134q236 0 376 -133q141 -133 141 -348q0 -217 -141 -432l-289 -442q-26 -41 -76 -41h-196l-1 -3q-37 0 -48 23t15 56l301 430h-16q-49 -49 -181 -49q-182 0 -294 124t-112 322zM384 924q0 -90 57 -147t152 -57l1 -2q92 0 149 57t57 149 t-57 149t-151 57q-92 0 -150 -57t-58 -149z" />
<glyph unicode=":" horiz-adv-x="567" d="M99 168q0 84 51 134q52 50 135 50q84 0 134 -50t50 -134q0 -83 -50 -136q-49 -52 -134 -52q-84 0 -135 52t-51 136zM99 807q0 85 51 134q52 50 135 50q84 0 134 -50t50 -134q0 -83 -50 -135q-49 -51 -134 -51q-84 0 -135 51t-51 135z" />
<glyph unicode=";" horiz-adv-x="583" d="M69 -134l75 389q8 57 68 57h182q34 0 48 -21q13 -21 0 -55l-153 -390q-19 -49 -72 -49h-94v1q-68 0 -54 68zM123 807q0 85 51 134q52 50 135 50t135 -50q51 -49 51 -134q0 -84 -51 -135t-135 -51t-135 51t-51 135z" />
<glyph unicode="&#x3c;" horiz-adv-x="1046" d="M128 538v143q0 53 47 74l670 309q33 14 54 0t21 -48v-142q0 -58 -52 -71l-462 -182v-17l462 -184q50 -19 52 -72v-141q0 -37 -21 -52t-54 2l-670 307q-47 23 -47 74z" />
<glyph unicode="=" horiz-adv-x="1128" d="M127 328v121q0 63 63 63h748q63 0 63 -63v-121q0 -62 -63 -64h-748q-63 0 -63 64zM127 774v119q0 63 63 63h748q63 0 63 -63v-119q0 -63 -63 -63h-748q-63 0 -63 63z" />
<glyph unicode="&#x3e;" horiz-adv-x="1046" d="M126 208v141q0 51 51 72l463 184v17l-463 182q-51 13 -51 71v142q0 35 21 48t54 0l671 -309q46 -19 48 -74v-143q0 -51 -48 -74l-671 -307v-1q-33 -13 -54 0t-21 51z" />
<glyph unicode="?" horiz-adv-x="1087" d="M63 1010q1 190 131 288t354 98q218 0 349 -103q132 -103 132 -283q0 -79 -35 -143q-34 -62 -84 -103q-50 -40 -99 -75t-84 -75q-35 -41 -35 -86v-32q0 -47 -59 -47h-187l1 -2q-61 0 -61 69v47q0 61 24 111q24 49 62 78q42 32 79 57q49 33 79 50q38 21 62 54t24 72 q0 61 -46 97t-124 36q-149 0 -172 -137q-13 -37 -47 -37h-201q-62 0 -63 66zM355 160q0 82 50 132q49 49 131 49t131 -49q50 -50 50 -132q0 -83 -49 -132q-50 -50 -131 -50h-2q-81 0 -131 50q-49 49 -49 132z" />
<glyph unicode="@" horiz-adv-x="1849" d="M101 582q0 370 230 594q229 223 615 223q361 0 588 -200t227 -531q0 -231 -114 -372t-307 -141q-196 0 -284 129h-11q-27 -57 -89 -93q-61 -36 -140 -36q-124 0 -199 81t-75 215v266q0 119 69 191t180 72q73 0 131 -35q56 -34 82 -93h12v45q0 63 63 64h133h-1 q63 0 64 -64v-420q0 -43 30 -70t73 -27q79 0 122 79q44 80 44 204q0 242 -166 387t-435 145q-289 0 -459 -167t-170 -447q0 -297 186 -474t501 -177q192 0 360 56q70 19 70 -52v-69q0 -57 -33 -68q-176 -68 -410 -66q-401 0 -644 234t-243 617zM799 498q0 -44 30 -73 q29 -28 77 -28l-1 -2q50 0 79 28q30 29 30 72v143q0 44 -30 71t-79 27q-46 0 -76 -27t-30 -72v-139z" />
<glyph unicode="A" d="M69 80l366 1231q13 61 78 61h301q62 0 81 -61l365 -1231q5 -17 5 -31q0 -49 -65 -49h-196q-56 0 -69 57l-53 203h-447l-53 -203q-12 -57 -68 -57h-186q-63 0 -63 51q0 13 4 29zM508 530h303l-143 539h-19z" />
<glyph unicode="B" horiz-adv-x="1271" d="M155 72v1228q0 72 71 72h568q168 0 269 -98t101 -258q0 -123 -61 -208t-163 -103v-17h-1q123 -23 194 -109q72 -87 72 -219q0 -162 -101 -261t-269 -99h-609q-72 0 -71 72zM457 265h295q68 0 108 43q41 44 41 113t-41 110t-108 41h-295v-307zM457 814h254q68 0 108 40 q41 41 41 105q0 68 -40 108q-41 41 -108 41l-255 1v-295z" />
<glyph unicode="C" horiz-adv-x="1302" d="M110 474v422q0 225 149 363t396 138t393 -126t146 -362q0 -33 -15 -49.5t-46 -15.5h-177q-56 0 -66 61q-11 103 -70 158q-61 56 -165 56q-109 0 -175 -63t-66 -165v-410q0 -102 66 -165t174 -63q106 0 168 57t69 157q10 61 66 61h177q61 0 61 -69q0 -235 -147 -360 q-146 -124 -393 -124l-1 -2q-248 0 -396 138t-148 363z" />
<glyph unicode="D" horiz-adv-x="1333" d="M156 72v1228q0 72 71 72h451q247 0 396 -139q150 -139 150 -369v-356q0 -230 -150 -369q-149 -139 -396 -139h-451q-73 0 -71 72zM460 279h211q117 0 183 63t66 174l1 341q0 111 -67 174q-68 63 -183 63h-211v-815z" />
<glyph unicode="E" horiz-adv-x="1150" d="M156 70v1233q0 69 65 69h4h748q71 0 69 -69v-138q2 -69 -69 -69h-514v-267h434q70 0 70 -71v-131q0 -72 -70 -72h-434v-279h514q71 0 69 -69v-137q0 -70 -69 -70h-748q-70 0 -69 70z" />
<glyph unicode="F" horiz-adv-x="1116" d="M156 72v1228q0 72 71 72h723q72 0 72 -72v-137q0 -69 -68 -69h-4h-491v-303h395q72 0 72 -70v-139q0 -70 -72 -70h-395v-440q0 -72 -72 -72h-160q-73 0 -71 72z" />
<glyph unicode="G" horiz-adv-x="1308" d="M110 476v422q0 225 149 363t396 138q233 0 374 -117t162 -326q5 -32 -12 -48q-17 -17 -46 -17h-177q-49 0 -69 53q-13 83 -75 130q-61 46 -156 46q-109 0 -175 -63t-66 -165v-424q0 -102 66 -165t174 -63q109 0 174 58q66 58 66 153v51h-145q-70 0 -70 71v97 q0 36 17.5 54t52.5 17h376v-1q72 0 72 -71v-209q0 -218 -150 -352q-149 -133 -394 -133q-248 0 -396 138t-148 363z" />
<glyph unicode="H" horiz-adv-x="1343" d="M156 72v1228q0 72 71 72h160q72 0 72 -72v-469h426v469q0 72 69 72h162q70 0 70 -72v-1228q0 -72 -70 -72h-162q-70 0 -69 72v481h-426v-481q0 -72 -72 -72h-160q-73 0 -71 72z" />
<glyph unicode="I" horiz-adv-x="614" d="M156 72v1228q0 72 71 72h160q72 0 72 -72v-1228q0 -72 -72 -72h-160q-73 0 -71 72z" />
<glyph unicode="J" horiz-adv-x="1177" d="M88 408v28q0 72 72 72h159q72 0 72 -72v-22q0 -72 48 -116q49 -44 126 -44t126 44q48 44 48 116v886q0 72 72 72h160q71 0 69 -72v-892q0 -196 -130 -314q-131 -119 -345 -119h-1q-214 0 -345 119t-131 314z" />
<glyph unicode="K" horiz-adv-x="1290" d="M156 73v1228q0 72 71 72h160q72 0 72 -72v-481h18l385 506q29 47 84 47h191q41 0 53 -27q4 -9 4 -18q0 -20 -18 -42l-398 -493l424 -707h1q19 -37 6 -61t-52 -24h-209q-57 0 -84 51l-286 494l-119 -148v-325q0 -72 -72 -72h-160q-73 0 -71 72z" />
<glyph unicode="L" horiz-adv-x="1079" d="M156 72v1228q0 72 71 72h160q72 0 72 -72v-1021h471q36 0 54 -17.5t17 -52.5v-137q0 -72 -71 -72h-703q-73 0 -71 72z" />
<glyph unicode="M" horiz-adv-x="1695" d="M157 72v1228q0 72 71 72h269q63 0 79 -57l271 -651h18l266 651q19 57 81 57h256q72 0 72 -72v-1228q0 -72 -72 -72h-159q-72 0 -72 72v725l14 96h-22l-248 -574q-19 -57 -81 -57h-102q-62 0 -81 57l-248 574h-25l15 -96v-725q0 -72 -72 -72h-160h1q-72 0 -71 72z" />
<glyph unicode="N" horiz-adv-x="1402" d="M155 63v1246q0 63 63 63h238q56 0 75 -49l404 -819h22l-14 96v709q0 63 64 63h176q63 0 63 -63v-1246q0 -63 -63 -63h-238q-53 0 -75 49l-401 819h-25l15 -96v-709q0 -63 -64 -63h-176h-1q-63 0 -63 63z" />
<glyph unicode="O" d="M109 486v402q0 231 152 371t404 140q251 0 402 -141q152 -141 152 -370v-402q0 -229 -151 -370q-152 -141 -402 -141h-3q-251 0 -403 140q-151 139 -151 371zM410 492q0 -106 69 -172t184 -66l2 -1q113 0 180 66q68 66 68 173v389q0 106 -69 172t-181 66q-115 0 -184 -66 t-69 -172v-389z" />
<glyph unicode="P" horiz-adv-x="1271" d="M156 72v1228q0 72 71 72h494v-1q218 0 352 -134q133 -133 133 -354q0 -224 -133 -357t-352 -133h-262v-321q0 -72 -72 -72h-160q-73 0 -71 72zM459 671h237l-2 1q96 0 152 56t56 155q0 95 -56 153q-56 57 -150 57h-237v-422z" />
<glyph unicode="Q" d="M109 485v402q0 231 152 371t404 140q251 0 402 -141q152 -141 152 -370v-402h-5q0 -262 -193 -403l86 -174q18 -37 4 -60q-13 -22 -54 -22h-133q-52 0 -81 51l-55 109q-66 -10 -125 -12q-251 0 -403 140q-151 139 -151 371zM407 492q0 -106 69 -172t184 -66q24 0 36 2 l-45 92q-16 34 -1 57t54 23h88q58 0 80 -49l6 -13q33 59 32 126v389q0 106 -69 172t-181 66q-115 0 -184 -66t-69 -172v-389z" />
<glyph unicode="R" horiz-adv-x="1310" d="M156 71v1228q0 72 71 72h537q208 0 336 -126q127 -126 127 -337q0 -151 -66 -265t-184 -166l230 -395q20 -39 8 -61t-53 -22h-200q-62 0 -90 55l-196 379h-217v-362q0 -72 -72 -72h-160q-73 0 -71 72zM458 711h274q90 0 141 51t51 139q0 89 -51 140t-139 51h-274z" />
<glyph unicode="S" horiz-adv-x="1214" d="M81 340v10q0 64 70 64h182q51 0 70 -58q33 -137 204 -137q86 0 146 39t60 102q0 50 -40 87q-41 38 -103 63q-56 23 -140 49q-75 23 -154 57q-76 32 -141 77q-62 43 -103 120q-40 76 -40 177q0 188 141 297q140 109 370 109q214 0 345 -89q130 -89 156 -255q4 -34 -14 -53 q-18 -18 -53 -18h-180q-51 0 -68 51q-38 119 -190 119q-79 0 -132 -36q-52 -36 -52 -95q0 -68 75 -110t180 -72t210 -72q104 -42 180 -134q75 -92 75 -234q0 -195 -142 -309q-143 -114 -381 -114l-3 -1q-225 0 -363 96t-165 270z" />
<glyph unicode="T" horiz-adv-x="1165" d="M70 1163v137q0 72 69 72h885q72 0 72 -72v-137q0 -69 -68 -69h-4h-289v-1022q0 -72 -71 -72h-160q-72 0 -72 72v1022h-293q-71 0 -69 69z" />
<glyph unicode="U" horiz-adv-x="1339" d="M137 464v835q0 72 72 72h160q73 0 71 -72v-829q0 -97 63 -157t170 -60q102 0 165 60t63 158v829q0 72 72 72h160q71 0 69 -72v-835q0 -220 -145 -355t-385 -135v-2q-241 0 -388 135t-147 356z" />
<glyph unicode="V" horiz-adv-x="1294" d="M70 1291q-11 38 6 59t55 21h186q66 0 78 -63l248 -969h21l245 969q12 63 78 63h176q39 0 56 -21q16 -21 6 -58l-367 -1231q-13 -61 -78 -61h-266v-1q-63 0 -78 61z" />
<glyph unicode="W" horiz-adv-x="1937" d="M80 1294q-8 35 9 56t54 21h191q68 0 74 -65l178 -891h18l213 893q12 63 76 63h162q63 0 75 -63l216 -893h18l176 891q6 65 70 65h4h178q38 0 54 -21q17 -21 9 -56l-296 -1231q-12 -63 -78 -63h-236q-63 0 -76 63l-190 787h-21l-192 -787q-12 -63 -76 -63h-235h-2 q-66 0 -78 63z" />
<glyph unicode="X" horiz-adv-x="1310" d="M87 1346q13 24 57 24h213q57 0 84 -53l211 -365h23l209 365q26 53 84 53h184q44 0 56 -24q4 -9 4 -20q0 -20 -14 -45l-350 -584l366 -608q14 -25 14 -44q0 -12 -5 -21q-13 -24 -54 -24h-215q-57 0 -84 53l-211 365h-22l-211 -365q-27 -53 -84 -53h-186h-3q-41 0 -53 24 q-4 9 -4 20q0 19 13 45l352 584l-365 608q-14 25 -14 44q0 12 5 21z" />
<glyph unicode="Y" horiz-adv-x="1253" d="M70 1348q15 23 56 23h194q57 0 82 -55l222 -449h20l219 449q22 55 81 55h184q41 0 56 -22q7 -10 7 -23q0 -17 -11 -38l-402 -747v-469q0 -72 -71 -72h-160l1 -2q-72 0 -72 72v467l-403 749q-10 21 -10 38q0 14 7 24z" />
<glyph unicode="Z" horiz-adv-x="1183" d="M104 72v108q0 46 29 87l539 809v17h-488q-70 0 -69 69v137q0 72 69 72h815q70 0 70 -72v-108q0 -46 -29 -87l-538 -809v-16h508q70 0 69 -70v-137q0 -72 -69 -72h-836q-70 0 -70 72z" />
<glyph unicode="[" horiz-adv-x="806" d="M168 -244v1655q0 63 63 64h449q63 0 63 -64v-143q0 -64 -63 -64h-217v-1241h217q63 0 63 -63v-144q0 -63 -63 -63h-449q-63 0 -63 63z" />
<glyph unicode="\" horiz-adv-x="931" d="M64 1402q-11 33 3 53t45 20h153q57 0 72 -54l532 -1657q10 -33 -3 -52t-45 -19h-153l1 -1q-57 0 -72 53z" />
<glyph unicode="]" horiz-adv-x="806" d="M63 -100q0 63 64 63h217v1241h-217q-63 0 -64 64v143q0 63 64 64h448q63 0 64 -64v-1655q0 -63 -64 -63h-448q-63 0 -64 63v144z" />
<glyph unicode="^" horiz-adv-x="1064" d="M113 847q-13 23 6 54l248 426q23 45 75 45h181q51 0 75 -45l248 -426q16 -31 4 -54q-12 -22 -49 -22h-156q-51 0 -71 47l-135 256h-17l-131 -254q-22 -49 -74 -49h-153v-1q-37 0 -51 23z" />
<glyph unicode="_" horiz-adv-x="1009" d="M68 -182q0 63 63 63h748q63 0 63 -63v-97q0 -63 -63 -63h-748q-63 0 -63 63v97z" />
<glyph unicode="`" horiz-adv-x="501" d="M56 1417q12 24 52 24h177q52 0 72 -47l107 -193q16 -31 3 -52t-51 -21h-94l1 -2q-45 0 -78 35l-174 201q-27 31 -15 55z" />
<glyph unicode="a" horiz-adv-x="1075" d="M62 277q0 139 93 225q92 85 245 85h279v94q0 61 -42 99q-41 37 -112 37q-116 0 -141 -82q-13 -49 -60 -49h-158q-63 0 -64 64q0 133 122 216t308 83l-3 -3q200 0 318 -94t118 -252v-639q0 -63 -64 -63h-149q-62 0 -64 63v66h-18q-32 -73 -103 -113q-73 -41 -173 -41 q-149 0 -241 83q-91 82 -91 221zM349 296q0 -46 42 -76t112 -30v-2q78 0 126 33t48 86v88h-209q-53 0 -86 -27t-33 -72z" />
<glyph unicode="b" horiz-adv-x="1120" d="M126 62v1307q0 63 63 64h160q63 0 64 -64v-489h16q32 77 103 123t170 46l-3 -2q145 0 235 -93t90 -241v-406q0 -150 -89 -242t-234 -92q-96 0 -169 47q-71 46 -103 122h-16v-80q0 -63 -64 -63h-160q-63 0 -63 63zM410 390q0 -63 46 -106t120 -43q72 0 116 41t44 111 l-2 232q0 70 -44 111t-114 41q-74 0 -120 -43t-46 -106v-238z" />
<glyph unicode="c" horiz-adv-x="1048" d="M87 383v254q0 186 121 298t321 112q197 0 318 -99q122 -99 122 -273q0 -66 -60 -66h-163q-52 0 -62 45q-16 127 -156 127q-69 0 -112 -41q-42 -40 -42 -105v-250q0 -66 43 -106t112 -40q140 0 156 127q11 45 63 45h163q58 0 60 -68q0 -173 -123 -271q-122 -97 -318 -97 l-2 -2q-202 0 -321 112q-120 113 -120 298z" />
<glyph unicode="d" horiz-adv-x="1120" d="M93 308v406q0 150 90 242t234 92q99 0 170 -46q72 -46 103 -121h17v489q0 62 63 64h160l-2 -1q63 0 63 -64v-1307q0 -63 -63 -63h-160q-63 0 -63 63v80h-17q-32 -77 -103 -123t-169 -46q-143 0 -233 93t-90 242zM379 394q0 -70 44 -111q43 -40 116 -40q74 0 120 43 t46 106v238q0 63 -46 106t-120 43q-72 0 -116 -41t-44 -110v-234z" />
<glyph unicode="e" horiz-adv-x="1077" d="M87 390v246q0 188 123 300q124 113 328 113t326 -115q123 -116 123 -303v-150q0 -63 -63 -63l-550 3v-58q0 -70 47 -112t123 -42q112 0 147 69q19 43 62 43h172q29 0 44 -16q15 -17 11 -45q-19 -130 -137 -207q-116 -76 -299 -76q-207 0 -332 113t-125 300zM373 616h325 v52q0 70 -44 111t-117 41l-1 -1q-72 0 -118 -41q-45 -40 -45 -110v-52z" />
<glyph unicode="f" horiz-adv-x="806" d="M76 832v130q0 63 63 63h107v119q0 131 85 210q86 80 226 80h125q63 0 63 -64v-110q0 -62 -63 -64h-47q-47 0 -75 -27t-28 -74v-70h150q63 0 63 -63v-130q0 -63 -63 -63h-150v-705q0 -63 -63 -63h-160q-63 0 -63 63v705h-107q-63 0 -63 63z" />
<glyph unicode="g" horiz-adv-x="1114" d="M93 364v350q0 150 90 242t234 92q99 0 170 -46q72 -46 103 -121h17v80q0 63 63 63h160l-3 -3q63 0 63 -63v-1000q0 -158 -120 -255q-121 -98 -322 -98q-180 0 -296 74q-116 73 -135 204q-4 31 11 50q15 18 42 18h166q39 0 59 -35q25 -94 150 -94q73 0 117 42 q43 42 43 109v218h-17q-29 -74 -103 -117q-76 -44 -169 -44q-143 0 -233 92t-90 242zM378 448q0 -70 44 -111t116 -41v-1q74 0 120 43t46 108v182q0 63 -46 106t-120 43q-72 0 -116 -41t-44 -110v-178z" />
<glyph unicode="h" horiz-adv-x="1126" d="M128 62v1307q0 63 63 64h160q63 0 64 -64v-489h16q31 76 105 123q73 46 171 46l1 -3q136 0 222 -83q85 -82 85 -218v-685q0 -63 -64 -63h-159q-62 0 -64 63v574q0 66 -41 105t-108 39q-71 0 -118 -41q-46 -40 -46 -99v-576q0 -63 -64 -63h-160q-63 0 -63 63z" />
<glyph unicode="i" horiz-adv-x="540" d="M99 1319q0 76 48 121t125 45q76 0 123 -45t47 -119q0 -76 -46 -121t-124 -45h-1q-79 0 -126 45q-46 45 -46 119zM126 63v898q0 63 63 63h160q63 0 64 -63v-898q0 -63 -64 -63h-160q-63 0 -63 63z" />
<glyph unicode="j" horiz-adv-x="544" d="M-81 -196q0 63 64 64h45q50 0 77 27t27 77v988q0 63 64 63h159q63 0 64 -63v-1039q0 -131 -85 -210q-86 -80 -226 -80h-125v-1q-63 0 -64 64v110zM103 1319q0 76 48 121t125 45q76 0 123 -45t47 -119q0 -76 -46 -121t-124 -45h-1q-79 0 -126 45q-46 45 -46 119z" />
<glyph unicode="k" horiz-adv-x="1081" d="M129 64v1307q0 63 63 64h160q63 0 64 -64v-717h20l268 330q27 41 76 41h193q35 0 42 -24t-18 -55l-299 -338l326 -532h4q20 -33 6 -54t-51 -21h-197q-52 0 -75 47l-197 350l-98 -110v-224q0 -63 -64 -63h-160q-63 0 -63 63z" />
<glyph unicode="l" horiz-adv-x="630" d="M118 286v1083q0 63 63 64h160q63 0 63 -64v-1008q0 -46 26 -72q25 -25 72 -25h22q39 0 39 -41v-160q0 -63 -63 -63h-76l1 -1q-137 0 -222 79t-85 208z" />
<glyph unicode="m" horiz-adv-x="1693" d="M127 60v898q0 63 63 63h160q62 0 64 -63v-80h16q32 76 102 123q70 46 165 46q101 0 174 -48q74 -48 107 -134h14q33 81 110 133q76 51 180 51v-3q134 0 216 -84q83 -85 83 -220v-682q0 -63 -63 -63h-160q-62 0 -64 63v578q0 64 -39 101q-40 38 -105 38q-68 0 -111 -39 t-43 -98v-580q0 -63 -63 -63h-160q-63 0 -63 63v578q0 64 -39 101q-40 38 -105 38q-68 0 -110 -39t-42 -98v-580q0 -63 -64 -63h-160q-63 0 -63 63z" />
<glyph unicode="n" horiz-adv-x="1126" d="M128 62v898q0 63 63 63h160q63 0 64 -63v-80h16q31 76 105 123q73 46 171 46l1 -3q136 0 222 -83q85 -82 85 -218v-685q0 -63 -64 -63h-159q-62 0 -64 63v574q0 66 -41 105t-108 39q-71 0 -118 -41q-46 -40 -46 -99v-576q0 -63 -64 -63h-160q-63 0 -63 63z" />
<glyph unicode="o" horiz-adv-x="1077" d="M86 389v246q0 186 124 300t327 114t326 -114t123 -300v-246q0 -186 -123 -300t-325 -114h-1q-203 0 -327 114t-124 300zM373 391q0 -71 45 -111q44 -40 119 -40l-1 -1q73 0 117 41t44 110v242q0 70 -44 111t-117 41q-72 0 -118 -41q-45 -41 -45 -110v-242z" />
<glyph unicode="p" horiz-adv-x="1120" d="M126 -306v1266q0 63 63 63h160q63 0 64 -63v-80h16q32 77 103 123t170 46l-3 -2q145 0 235 -93t90 -241v-406q0 -150 -89 -242t-234 -92q-96 0 -169 47q-71 46 -103 122h-16v-448q0 -63 -64 -64h-160q-63 0 -63 64zM410 390q0 -63 46 -106t120 -43q72 0 116 41t44 111 l-2 232q0 70 -44 111t-114 41q-74 0 -120 -43t-46 -106v-238z" />
<glyph unicode="q" horiz-adv-x="1120" d="M93 308v406q0 150 90 242t234 92q99 0 170 -46q72 -46 103 -121h17v80q0 63 63 63h160l-2 -1q63 0 63 -63v-1266q0 -62 -63 -64h-160q-63 0 -63 64v448h-17q-32 -77 -103 -123t-169 -46q-143 0 -233 93t-90 242zM379 394q0 -70 44 -111q43 -40 116 -40q74 0 120 43 t46 106v238q0 63 -46 106t-120 43q-72 0 -116 -41t-44 -110v-234z" />
<glyph unicode="r" horiz-adv-x="782" d="M128 63v898q0 63 63 63h160q63 0 64 -63v-109h16q55 183 231 195v1q32 2 49 -16q18 -18 18 -49v-166q0 -63 -63 -63q-126 0 -188 -61q-63 -61 -63 -171v-459q0 -63 -64 -63h-160q-63 0 -63 63z" />
<glyph unicode="s" horiz-adv-x="978" d="M65 251q-7 31 9 49t45 18h168q30 0 41 -10q12 -10 22 -37q32 -77 135 -77h3q63 0 99 24t36 65q0 45 -57 72q-58 27 -139 48t-163 51t-138 100q-57 70 -57 177q0 154 111 238t297 84q172 0 281 -68t131 -189q6 -32 -10 -49q-17 -18 -45 -18h-168q-4 0 -16 2q-8 1 -13 3 q-4 1 -10 6q-4 3 -9 8q-1 1 -7 11q-5 7 -6 9q-43 63 -123 63q-58 0 -90 -22q-33 -23 -33 -58q0 -45 57 -72t140 -45q82 -18 165 -48t140 -99t57 -178q0 -156 -114 -245q-115 -89 -310 -89l-3 1q-179 0 -291 73q-113 74 -135 202z" />
<glyph unicode="t" horiz-adv-x="817" d="M53 831v136q0 57 58 57h51q80 0 80 80v123q0 63 63 63h141q62 0 64 -63v-203h162q63 0 63 -63v-130q0 -63 -63 -63l-163 1v-401q0 -46 27 -75q27 -28 77 -28h45q62 0 64 -63v-138q0 -63 -64 -63h-124q-140 0 -226 80q-85 79 -85 210v477h-106q-63 0 -64 63z" />
<glyph unicode="u" horiz-adv-x="1112" d="M116 274v687q0 63 63 63h160q63 0 63 -63v-578q0 -63 39 -101q40 -38 105 -38q68 0 110 39t42 98v580q0 63 64 63h160v1q63 0 63 -63v-898q0 -63 -63 -63h-160q-62 0 -64 63v80h-16q-32 -77 -100 -123t-165 -46q-136 0 -218 82q-83 83 -83 217z" />
<glyph unicode="v" horiz-adv-x="1069" d="M58 952q-7 31 6 52q14 21 42 21h191q59 0 68 -57l167 -645h19l166 645q7 57 66 57h179q32 0 45 -21t3 -52l-287 -899q-12 -53 -72 -53h-233h-1q-55 0 -72 53z" />
<glyph unicode="w" horiz-adv-x="1640" d="M65 955q-7 33 6 51t42 18h190q57 0 68 -59l135 -613h20l150 615q12 57 70 57h157q59 0 68 -57l149 -615h21l137 613q6 59 68 59h178q32 0 45 -19t6 -51l-252 -899q-12 -55 -72 -55h-211q-58 0 -69 57l-142 537h-18l-141 -537q-10 -57 -70 -57h-211l-1 1q-57 0 -72 55z " />
<glyph unicode="x" horiz-adv-x="1069" d="M68 1001q10 21 45 21h202q51 0 74 -47l146 -252h16l143 252q26 47 76 47h172q34 0 45 -21t-7 -54l-268 -424l284 -448q18 -33 7 -54t-45 -21h-202q-51 0 -74 47l-145 254h-19l-145 -254q-23 -47 -74 -47h-174q-35 0 -45 21t9 54l268 424l-282 448q-18 33 -7 54z" />
<glyph unicode="y" horiz-adv-x="1081" d="M60 951q-7 31 6 52q14 21 45 21h188q59 0 68 -57l167 -645h31l166 645q7 57 68 57h176q32 0 45 -19t3 -52l-352 -1097q-71 -224 -315 -225h-139l1 -1q-63 0 -63 64v110q0 62 63 64h68q90 0 114 74l33 88h-33q-46 0 -59 43z" />
<glyph unicode="z" horiz-adv-x="1007" d="M86 63v107q0 43 29 78l399 500v16h-354q-62 0 -64 63v134q0 63 64 63h688q63 0 63 -63v-107q0 -40 -30 -78l-398 -500v-16h375q62 0 64 -63v-134q0 -63 -64 -63h-708q-62 0 -64 63z" />
<glyph unicode="{" horiz-adv-x="888" d="M127 498v174q0 55 55 55h21q41 0 65 27t24 72v336q0 141 92 227t243 86h135q63 0 63 -64v-143q0 -62 -63 -64h-64q-51 0 -81 -30t-30 -79v-324q0 -75 -40 -119q-41 -45 -106 -45h-24v-43h24q65 0 106 -45q40 -44 40 -119v-325q0 -49 30 -81q30 -31 81 -31h64q63 0 63 -63 v-144q0 -63 -63 -63h-135l-2 1q-152 0 -243 85q-92 86 -92 226v336q0 47 -24 74t-63 27h-21q-55 0 -55 56z" />
<glyph unicode="|" horiz-adv-x="612" d="M176 -305v1778q0 63 64 63h131q63 0 63 -63v-1778q0 -63 -63 -64h-131q-63 0 -64 64z" />
<glyph unicode="}" horiz-adv-x="888" d="M61 -101q0 63 64 63h59q53 0 84 31q32 32 32 81v325q0 75 40 119q40 45 106 45h24v43h-24q-66 0 -106 45q-40 44 -40 117v326q0 50 -31 80q-32 30 -85 30h-59q-63 0 -64 64v143q0 63 64 64h129q157 0 249 -85q93 -86 93 -228v-340q0 -45 24 -72t65 -27h19q57 0 57 -55 v-166q0 -56 -57 -57h-19q-39 0 -63 -27t-24 -74v-340q0 -140 -93 -226q-92 -85 -249 -85h-129l-2 -1q-63 0 -64 63v144z" />
<glyph unicode="~" horiz-adv-x="1273" d="M126 487q25 314 309 316q86 0 191 -51t150 -51q72 0 92 54q23 41 54 41h161q31 0 49 -21t14 -58q-28 -301 -300 -301l-1 -1q-87 0 -198 50t-150 50q-72 0 -92 -53q-23 -41 -54 -41h-162q-31 0 -48 18t-15 48z" />
<glyph unicode="&#xa1;" horiz-adv-x="546" d="M90 863q0 83 51 132q52 50 132 50q81 0 131 -50t50 -132q0 -83 -49 -132t-131 -49h-1q-82 0 -132 49q-51 49 -51 132zM121 29l31 485q1 61 63 61h115q62 0 63 -61l31 -485v-314q0 -63 -64 -63h-176q-63 0 -63 63v314z" />
<glyph unicode="&#xa2;" horiz-adv-x="1126" d="M118 557v254q0 149 83 255t225 140v101q0 63 64 63h143q63 0 63 -63v-101q140 -32 222 -123t82 -233q0 -66 -59 -66h-164q-47 0 -60 45q-19 127 -156 127q-71 0 -112 -40q-42 -40 -42 -106v-250q0 -66 43 -106t112 -40q135 0 156 127q14 45 60 45h164l-3 -1q59 0 59 -68 q0 -140 -82 -231q-83 -92 -220 -123v-101q0 -63 -63 -63h-143q-62 0 -64 63v101q-142 34 -225 140t-83 254z" />
<glyph unicode="&#xa3;" horiz-adv-x="1294" d="M127 580v120q0 62 63 64h52v203q0 195 130 312t343 117q209 0 329 -105t140 -302q6 -63 -62 -63h-176q-52 0 -65 45q-21 147 -166 147q-79 0 -125 -43q-47 -44 -47 -114v-197h358q63 0 64 -64v-120q0 -63 -64 -64h-358v-88q0 -82 -56 -133v-16h596q63 0 64 -64v-152 q0 -63 -64 -63h-890q-63 0 -64 63v134q0 38 43 63q70 46 70 137v119h-52q-63 0 -63 64z" />
<glyph unicode="&#xa4;" horiz-adv-x="1148" d="M152 368q-45 43 0 88l79 80q-29 70 -27 150q0 75 26 147l-77 79q-45 45 0 88l106 109q43 43 90 0l88 -88q63 20 139 20t138 -20l88 88q46 43 90 0l106 -109q43 -43 0 -88l-77 -77q29 -67 27 -147q0 -83 -28 -151l77 -78l-1 -3q45 -45 0 -88l-106 -109q-45 -43 -90 0 l-88 88q-60 -20 -138 -20q-66 0 -138 20l-88 -88q-46 -43 -90 0zM411 685q0 -75 44 -121q44 -45 119 -45q74 0 119 45t45 121q0 74 -45 119t-119 45q-76 0 -120 -45q-43 -44 -43 -119z" />
<glyph unicode="&#xa5;" horiz-adv-x="1245" d="M107 1349q14 23 51 23h207q55 0 75 -53l178 -451h21l176 451q20 53 78 53h194l-2 -2q37 0 52 -22q15 -23 -1 -55l-285 -589h117q57 0 57 -60v-45q0 -57 -57 -57h-195v-109h195q57 0 57 -57v-47q0 -59 -57 -60h-195v-204q0 -66 -65 -66h-172q-66 0 -66 66v204h-192 q-58 0 -60 60v47q0 57 60 57h192v105l-2 4h-190q-58 0 -60 57v45q0 58 60 60h112l-280 589q-17 33 -3 56z" />
<glyph unicode="&#xa6;" horiz-adv-x="612" d="M176 -305v641q0 63 64 63h131q63 0 63 -63v-641q0 -63 -63 -64h-131q-63 0 -64 64zM176 831v642q0 63 64 63h131q63 0 63 -63v-642q0 -63 -63 -63h-131q-62 0 -64 63z" />
<glyph unicode="&#xa7;" horiz-adv-x="1259" d="M125 502q0 176 154 270v21q-107 90 -108 241q0 173 121 267q122 95 328 95q187 0 305 -74q117 -74 140 -209q6 -34 -9 -50.5t-50 -15.5h-174q-34 0 -54 36q-28 109 -156 109q-70 0 -111 -32t-41 -89t49 -97t123 -61q80 -23 159 -52q90 -33 159 -67q74 -36 123 -108 q50 -73 50 -170q0 -178 -152 -270v-25h-4q104 -89 104 -240q0 -172 -121 -268q-122 -96 -328 -96q-185 0 -303 74q-116 73 -139 209q-6 34 9 50.5t50 15.5h176q33 0 51 -37q31 -106 159 -106q70 0 111 32t41 89q0 58 -49 98q-50 41 -123 62t-159 51t-159 66t-123 108 q-49 71 -49 173zM416 552q0 -35 15 -62q15 -26 38 -45q23 -18 63 -36q33 -15 71 -28q4 -1 86 -28t86 -28q55 55 57 132q0 35 -16 63q-17 30 -36 47q-21 19 -61 38q-42 19 -69 30q-31 12 -86 29q-80 25 -85 26q-61 -57 -61 -135z" />
<glyph unicode="&#xa8;" horiz-adv-x="735" d="M0 1291q0 70 43 112t115 42q70 0 112 -42t42 -112q0 -72 -42 -114t-112 -42v-1q-72 0 -115 43t-43 114zM422 1290q0 70 43 112t115 42q70 0 112 -42t42 -112q0 -72 -42 -114t-111 -42l-2 -1q-70 0 -113 43q-44 44 -44 114z" />
<glyph unicode="&#xa9;" horiz-adv-x="1673" d="M120 686q0 321 195 516t519 195t520 -195q197 -195 197 -516t-196 -516q-197 -195 -520 -195h-1q-324 0 -519 195t-195 516zM268 685q0 -259 155 -417q154 -157 411 -157v-1q256 0 412 158t156 417t-156 417t-412 158t-411 -158t-155 -417zM473 607v152q0 151 99 243 q98 91 261 91q155 0 249 -78q95 -78 108 -217q6 -53 -51 -53h-158q-31 0 -43 36q-18 80 -106 80q-48 0 -77 -28q-30 -29 -30 -75v-148q0 -46 30 -75q29 -28 78 -28q89 0 106 80q12 37 43 37h158q57 0 51 -54q-17 -142 -111 -218q-95 -77 -246 -77l-1 -3q-161 0 -261 92 q-99 92 -99 243z" />
<glyph unicode="&#xaa;" horiz-adv-x="858" d="M108 853q0 98 65 158t171 60h191v76q0 39 -28 63q-29 24 -69 24q-74 0 -90 -61q-12 -35 -47 -35h-115q-51 0 -51 51v6q0 85 87 143q88 59 222 59l-1 -3q137 0 221 -66t84 -172v-444q0 -51 -52 -51h-104q-51 0 -51 51v20h-15q-46 -88 -189 -88q-103 0 -166 57t-63 152z M327 871q0 -33 26 -54q25 -21 66 -21v2q52 0 83 24q32 24 32 63v57h-119q-41 0 -64 -19q-24 -19 -24 -52z" />
<glyph unicode="&#xab;" horiz-adv-x="1259" d="M90 498q-33 45 0 90l242 315q32 39 78 39h163q38 0 50 -22t-9 -54l-223 -313v-21l223 -313q20 -32 8 -54t-49 -22h-163q-46 0 -78 39zM607 498q-31 45 0 90l244 315q27 39 78 39h162q39 0 51 -22t-8 -54l-224 -313v-21l224 -313q20 -32 8 -54t-50 -22h-162h-1 q-51 0 -78 39z" />
<glyph unicode="&#xac;" horiz-adv-x="1187" d="M127 633v121q0 63 63 63h807q63 0 64 -63v-371q0 -63 -64 -64h-129q-63 0 -63 64v186h-615q-63 0 -63 64z" />
<glyph unicode="&#xad;" horiz-adv-x="835" d="M127 498v143q0 63 63 64h455q63 0 64 -64v-143q0 -63 -64 -64h-455q-63 0 -63 64z" />
<glyph unicode="&#xae;" horiz-adv-x="985" d="M86 992q0 183 111 294t294 111t294 -111t111 -294t-111 -294t-294 -111t-294 111t-111 294zM176 993q0 -143 87 -229q88 -86 228 -86v-2q142 0 228 86t86 230t-86 230t-228 86q-140 0 -228 -86q-87 -86 -87 -229zM339 827v355q0 29 29 27h163q65 0 106 -39 q40 -39 40 -105v-1q0 -92 -68 -131l56 -100q18 -35 -19 -35h-69q-23 0 -35 22l-47 95h-41v-89q0 -28 -31 -27h-55q-29 0 -29 28zM454 1019h65q43 0 43 43q0 41 -43 41h-65v-84z" />
<glyph unicode="&#xaf;" horiz-adv-x="612" d="M0 1229v96q0 63 63 64h486q63 0 63 -64v-96q0 -63 -63 -64h-486q-63 0 -63 64z" />
<glyph unicode="&#xb0;" horiz-adv-x="780" d="M67 1092q0 138 89 222q88 84 234 84t233 -84t87 -222t-87 -222t-232 -84h-1q-146 0 -234 84q-89 84 -89 222zM274 1091q0 -54 31 -85t84 -31v-2q52 0 84 32q31 31 31 85q0 53 -32 85t-83 32q-52 0 -83 -31q-32 -32 -32 -85z" />
<glyph unicode="&#xb1;" horiz-adv-x="1128" d="M127 63v121q0 62 63 64h748q63 0 63 -64v-121q0 -63 -63 -63h-748q-63 0 -63 63zM127 729v121q0 63 63 63h246v250q0 63 64 64h131q63 0 63 -64v-250h244q63 0 63 -63v-121q0 -63 -63 -63h-244v-250q0 -62 -63 -64h-131q-63 0 -64 64v250h-246q-63 0 -63 63z" />
<glyph unicode="&#xb2;" horiz-adv-x="739" d="M74 804v63q0 34 26 63l248 242q109 103 109 162q0 33 -24 54t-63 21q-42 0 -65 -22q-24 -23 -24 -57v-6q0 -41 -41 -41h-113q-51 0 -51 51v11q0 111 81 178q80 67 214 67t214 -64q81 -64 81 -171q0 -125 -127 -243l-166 -164v-10h239q50 0 52 -51v-82q0 -51 -52 -51h-485 l-2 -1q-51 0 -51 51z" />
<glyph unicode="&#xb3;" horiz-adv-x="768" d="M73 963v10q0 41 41 41h121q33 0 51 -39q16 -62 96 -64q46 0 72 25q27 26 27 66q0 38 -27 64q-26 25 -70 25h-84q-51 0 -51 51v55q0 51 51 51h70q44 0 71 24t27 63t-24 62q-25 23 -65 23q-66 0 -84 -59q-12 -35 -47 -35h-121q-41 0 -41 41v6q0 92 82 155t216 63 q130 0 213 -63q82 -63 82 -163q0 -64 -34 -114q-35 -51 -91 -69v-11q61 -18 99 -71t38 -123q0 -103 -86 -171q-85 -67 -222 -67h-2q-136 0 -222 65t-86 159z" />
<glyph unicode="&#xb4;" horiz-adv-x="501" d="M33 1150q-12 22 4 53l104 193q26 47 76 47h176q41 0 53 -24q12 -23 -17 -55l-174 -201q-29 -35 -75 -35h-96l-2 1q-37 0 -49 21z" />
<glyph unicode="&#xb5;" horiz-adv-x="1196" d="M147 -305v1266q0 63 64 63h176q63 0 64 -63v-564q0 -61 39 -99q40 -38 103 -38q67 0 111 39t44 96v566q0 63 63 63h174q63 0 64 -63v-898q0 -63 -64 -63h-174q-63 0 -63 63v64h-19q-29 -68 -99 -110t-171 -42h-8v-280q0 -63 -64 -64h-176q-63 0 -64 64z" />
<glyph unicode="&#xb6;" horiz-adv-x="1241" d="M96 919q0 206 122 330q122 123 323 123h182v1q63 0 63 -63v-1594q0 -63 -63 -63h-72q-63 0 -63 63v748h-47q-201 0 -323 125t-122 330zM918 -284v1594q0 63 63 63h70q63 0 63 -63v-1594q0 -63 -63 -63h-70q-63 0 -63 63z" />
<glyph unicode="&#xb7;" horiz-adv-x="614" d="M126 580q0 82 49 130t132 48t132 -48t49 -130q0 -83 -49 -132t-132 -49v-1q-82 0 -132 50q-49 49 -49 132z" />
<glyph unicode="&#xb8;" horiz-adv-x="448" d="M-1 -357q0 67 59 53q53 -14 91 -14q104 0 104 61q0 23 -15 36q-14 13 -39 13h-105q-49 0 -49 47v19q0 22 12 42l62 100l-4 4h164l4 -4l-47 -84h24h-2q84 0 137 -50t53 -132q0 -94 -75 -151t-198 -57q-68 0 -125 16q-51 14 -51 72v29z" />
<glyph unicode="&#xb9;" horiz-adv-x="671" d="M92 806v82q0 51 51 51h109v432h-12l-84 -37q-26 -12 -43 -1q-16 10 -16 39v76q0 41 39 59l131 58q31 12 63 12h71q51 0 52 -51v-588h94l-2 1q49 0 49 -51v-82q0 -51 -49 -51h-402q-51 0 -51 51z" />
<glyph unicode="&#xba;" horiz-adv-x="856" d="M109 940v164q0 131 88 212q89 81 231 81q143 0 230 -81t87 -212v-164q0 -131 -87 -212t-230 -81q-142 0 -231 81q-88 81 -88 212zM325 943q0 -43 29 -70t74 -27h-4q46 0 74 27q29 27 29 70v160q0 43 -28 70q-29 27 -73 27t-73 -27q-28 -27 -28 -70v-160z" />
<glyph unicode="&#xbb;" horiz-adv-x="1259" d="M116 164q-12 22 9 54l223 313v21l-223 313q-20 32 -8 54q12 23 51 23h162q51 0 78 -39l243 -315q31 -45 0 -90l-243 -316q-27 -39 -78 -39h-162l-1 -2q-39 0 -51 23zM634 162q-12 23 10 54l223 313v21l-223 313q-22 31 -10 54t51 23h164q49 0 76 -39l243 -315 q33 -45 0 -90l-243 -316q-27 -39 -76 -39h-164v-2q-39 0 -51 23z" />
<glyph unicode="&#xbc;" horiz-adv-x="1898" d="M92 599v82q0 51 51 51h109v432h-12l-84 -37q-27 -12 -43 0t-16 40v76q0 41 39 60l131 57q31 12 63 12h71q51 0 52 -51v-588h94q49 0 49 -51v-82l-2 -1q0 -51 -49 -51h-402q-51 0 -51 51zM490 15q-9 17 6 41l710 1282q18 33 58 33h135v-2q29 0 38 -16t-5 -40l-711 -1282 q-18 -33 -57 -33h-136q-29 0 -38 17zM1157 203v65q0 29 19 63l278 454q23 35 62 35h170q51 0 51 -51v-442h35v1q51 0 51 -51v-74q0 -51 -51 -51h-35v-103q0 -51 -51 -51h-97q-51 0 -51 51v103h-330q-51 0 -51 51zM1362 328h176v227l8 57h-14l-170 -276v-8z" />
<glyph unicode="&#xbd;" horiz-adv-x="1939" d="M92 599v82q0 51 51 51h109v432h-12l-84 -37q-27 -12 -43 0t-16 40v76q0 41 39 60l131 57q31 12 63 12h71q51 0 52 -51v-588h94q49 0 49 -51v-82l-2 -1q0 -51 -49 -51h-402q-51 0 -51 51zM490 15q-9 17 6 41l710 1282q18 33 58 33h135v-2q29 0 38 -16t-5 -40l-711 -1282 q-18 -33 -57 -33h-136q-29 0 -38 17zM1270 45v64q0 34 26 63l248 242q109 103 109 164q0 34 -24 53q-25 20 -63 20q-42 0 -65 -22q-24 -23 -24 -57v-7q0 -41 -41 -41h-113q-51 0 -51 52v10q0 112 81 179q82 68 214 68q134 0 214 -64q81 -65 81 -171q0 -125 -127 -243 l-166 -163v-11h239l-2 -3q50 0 52 -51v-82q0 -51 -52 -51h-485q-51 0 -51 51z" />
<glyph unicode="&#xbe;" horiz-adv-x="1933" d="M74 762v10q0 41 41 41h121q33 0 51 -39q17 -63 96 -63q45 0 72 24t27 65q0 39 -27 63t-70 24h-84q-51 0 -51 51v55q0 51 51 51h70q45 0 71 25q27 25 27 64t-24 61q-25 23 -65 23q-66 0 -84 -59q-12 -35 -47 -35h-121q-41 0 -41 41v6q0 92 82 155q83 63 216 63 q131 0 213 -63t82 -164q0 -64 -34 -114q-35 -51 -91 -69v-10q61 -18 99 -72q38 -55 38 -124l-2 2q0 -104 -86 -170t-222 -66t-222 65t-86 159zM525 18q-9 16 5 41l711 1282q18 33 57 33h136v-2q29 0 38 -16t-6 -40l-710 -1282q-18 -33 -58 -33h-135q-29 0 -38 17zM1193 206 v65q0 29 18 63l279 454q23 35 60 35h170q50 0 52 -51v-442h34l1 1q51 0 52 -51v-74q0 -51 -52 -51h-34v-103q0 -51 -52 -51h-96q-51 0 -51 51v103h-330q-51 0 -51 51zM1398 331h176v227l8 57h-14l-170 -276v-8z" />
<glyph unicode="&#xbf;" horiz-adv-x="1079" d="M64 13q0 79 35 143t84 104t99 75t84 75q35 41 35 86v32q0 47 60 47h186l-3 -3q58 0 60 -69v-47q0 -88 -51 -151t-113 -93q-60 -29 -112 -75q-51 -45 -51 -102q0 -61 46 -97q47 -36 124 -36q154 0 172 137q13 37 47 37h201q61 0 61 -66q0 -187 -129 -286t-354 -99 q-216 0 -349 104q-132 103 -132 284zM374 862q0 83 49 132q50 50 132 50t132 -50t50 -132t-50 -132q-49 -49 -132 -49t-132 49t-49 132z" />
<glyph unicode="&#xc0;" d="M69 80l366 1231q13 61 78 61h301q62 0 81 -61l365 -1231q23 -80 -60 -80h-196q-56 0 -69 57l-53 203h-447l-53 -203q-12 -57 -68 -57h-186q-79 0 -59 80zM362 1767q12 24 53 24h176q53 0 74 -47l106 -193q16 -31 3 -52q-14 -21 -51 -21h-94q-45 -2 -78 33l-174 201 q-27 31 -15 55zM508 530h303l-143 539h-19z" />
<glyph unicode="&#xc1;" d="M67 81l366 1231q13 61 78 61h301q62 0 81 -61l365 -1231q23 -80 -60 -80h-196q-56 0 -69 57l-53 203h-447l-53 -203q-12 -57 -68 -57h-186q-79 0 -59 80zM506 531h303l-143 539h-19zM553 1499q-12 21 4 51l105 193q26 47 75 47h176q41 0 53 -24q12 -23 -17 -55l-174 -201 q-29 -34 -75 -33h-96l-2 1q-37 0 -49 21z" />
<glyph unicode="&#xc2;" d="M67 80l366 1231q13 61 78 61h301q62 0 81 -61l365 -1231q23 -80 -60 -80h-196q-56 0 -69 57l-53 203h-447l-53 -203q-12 -57 -68 -57h-186q-79 0 -59 80zM326 1500q-12 22 11 54l147 197q27 39 78 39h203q49 0 76 -39l149 -197q23 -33 11 -55t-51 -22h-102q-46 0 -78 36 l-98 107h-15l-98 -107q-29 -37 -78 -36h-102h-2q-39 0 -51 23zM506 530h303l-143 539h-19z" />
<glyph unicode="&#xc3;" d="M66 80l366 1231q13 61 78 61h301q62 0 81 -61l365 -1231q23 -80 -60 -80h-196q-55 0 -69 57l-53 203h-447l-53 -203q-12 -57 -68 -57h-186q-79 0 -59 80zM271 1540q17 270 225 270q67 0 150 -47t116 -47q58 0 74 51q12 37 59 37h109q53 0 47 -67q-23 -252 -222 -252 q-67 0 -153 47t-118 47q-52 0 -69 -51q-12 -37 -59 -37h-108h-3q-51 0 -48 49zM505 530h303l-143 539h-19z" />
<glyph unicode="&#xc4;" d="M66 78l366 1231q13 61 78 61h301q62 0 81 -61l365 -1231q23 -80 -60 -80h-196q-55 0 -69 57l-53 203h-447l-53 -203q-12 -57 -68 -57h-186q-79 0 -59 80zM295 1639q0 70 43 112q44 42 115 42q70 0 112 -42t42 -112q0 -72 -42 -114t-111 -42l-2 -1q-70 0 -113 43 q-44 44 -44 114zM505 528h303l-143 539h-19zM718 1638q0 70 43 112t115 42q70 0 112 -42t42 -112q0 -72 -42 -114t-112 -42v-1q-72 0 -115 43t-43 114z" />
<glyph unicode="&#xc5;" d="M66 77l366 1231q13 61 78 61h301q62 0 81 -61l365 -1231q23 -80 -60 -80h-196q-55 0 -69 57l-53 203h-447l-53 -203q-12 -57 -68 -57h-186q-79 0 -59 80zM422 1690q0 102 66 167q67 65 177 65q108 0 173 -64q66 -64 66 -167t-66 -167q-65 -64 -172 -64l-1 -2 q-110 0 -177 65q-66 65 -66 167zM505 527h303l-143 539h-19zM568 1689q0 -40 26 -68q26 -27 69 -27q39 0 65 27q26 28 26 68q0 42 -25 68q-25 27 -64 27l-2 -1q-41 0 -68 -27t-27 -67z" />
<glyph unicode="&#xc6;" horiz-adv-x="1824" d="M12 80l572 1235q22 57 86 57h966q70 0 70 -72v-137q0 -69 -70 -69h-514v-269h434q72 0 72 -71v-123q0 -72 -72 -72h-434v-280h514q70 0 70 -70v-137q0 -72 -70 -72h-745q-70 0 -70 72v188h-391l-90 -203q-22 -57 -84 -57h-190q-86 0 -54 80zM549 530h272v564h-24z" />
<glyph unicode="&#xc7;" horiz-adv-x="1302" d="M109 474v422q0 225 149 363q148 138 396 138t393 -126q146 -126 146 -362q0 -33 -15 -49.5t-46 -15.5h-177q-56 0 -66 61q-11 103 -70 158q-61 56 -165 56q-109 0 -175 -63t-66 -165v-410q0 -102 66 -165t174 -63q107 0 168 57q62 57 69 157q10 61 66 61h177l-3 -2 q61 0 61 -69q0 -220 -127 -341q-128 -122 -346 -141l-35 -61h25q83 0 136 -50q52 -49 52 -132q0 -94 -75 -151t-198 -57q-68 0 -125 16q-51 14 -51 72v29q0 67 59 53q53 -14 90 -14q104 0 105 61q0 23 -15 36q-14 13 -40 13h-104q-49 0 -49 47v19q0 22 12 42l49 82 q-205 27 -325 159t-120 335z" />
<glyph unicode="&#xc8;" horiz-adv-x="1150" d="M155 70v1233q0 71 69 69h748q70 0 69 -69v-138q1 -69 -69 -69h-514v-267h434q70 0 70 -71v-131q0 -72 -70 -72h-434v-279h514q70 0 69 -69v-137q0 -70 -69 -70h-748q-70 0 -69 70zM295 1767q12 24 53 24h176q53 0 74 -47l107 -193q16 -31 3 -52q-14 -21 -51 -21h-94 q-45 -2 -78 33l-175 201q-27 31 -15 55z" />
<glyph unicode="&#xc9;" horiz-adv-x="1150" d="M156 71v1233q0 70 69 69h748q71 0 69 -69v-138q2 -69 -69 -69h-514v-267h434q70 0 70 -71v-131q0 -72 -70 -72h-434v-279h514q71 0 69 -69v-137q0 -70 -69 -70h-748q-70 0 -69 70zM490 1499q-12 21 5 51l104 193q26 47 76 47h176q41 0 51 -24t-18 -55l-174 -201 q-28 -34 -75 -33h-96v1q-37 0 -49 21z" />
<glyph unicode="&#xca;" horiz-adv-x="1150" d="M155 70v1233q0 71 69 69h748q70 0 69 -69v-138q1 -69 -69 -69h-514v-267h434q70 0 70 -71v-131q0 -72 -70 -72h-434v-279h514q70 0 69 -69v-137q0 -70 -69 -70h-748q-70 0 -69 70zM261 1500q-12 23 10 54l148 197q27 39 78 39h202q49 0 76 -39l150 -197q23 -33 11 -55 t-51 -22h-103q-47 0 -77 36l-99 107h-14l-98 -107q-28 -37 -78 -36h-103h-1q-39 0 -51 23z" />
<glyph unicode="&#xcb;" horiz-adv-x="1150" d="M156 68v1233q0 71 69 69h748q71 0 69 -69v-138q2 -69 -69 -69h-514v-267h434q70 0 70 -71v-131q0 -72 -70 -72h-434v-279h514q71 0 69 -69v-137q0 -70 -69 -70h-748q-70 0 -69 70zM231 1639q0 70 43 112q44 42 115 42q70 0 112 -42t42 -112q0 -72 -42 -114t-112 -42v-1 q-71 0 -114 43q-44 44 -44 114zM655 1638q0 70 43 112q44 42 115 42q70 0 112 -42t42 -112q0 -72 -42 -114t-112 -42v-1q-72 0 -115 43t-43 114z" />
<glyph unicode="&#xcc;" horiz-adv-x="614" d="M1 1766q12 24 53 24h176q53 0 74 -47l107 -193q16 -31 3 -52q-14 -21 -49 -21h-95l-2 -1q-46 0 -77 34l-175 201q-27 31 -15 55zM154 71v1228q0 72 71 72h160q72 0 72 -72v-1228q0 -72 -72 -72h-160q-73 0 -71 72z" />
<glyph unicode="&#xcd;" horiz-adv-x="614" d="M153 73v1228q0 72 71 72h160q72 0 72 -72v-1228q0 -72 -72 -72h-160q-72 0 -71 72zM196 1499q-12 21 5 51l104 193q26 47 76 47h176q41 0 53 -24q12 -23 -17 -55l-174 -201q-29 -34 -75 -33h-96l-3 1q-37 0 -49 21z" />
<glyph unicode="&#xce;" horiz-adv-x="614" d="M-30 1500q-12 22 11 54l147 197q27 39 78 39h203q49 0 75 -39l150 -197q23 -33 11 -55t-51 -22h-102q-46 0 -78 36l-99 107h-14l-98 -107q-29 -37 -78 -36h-102h-2q-39 0 -51 23zM154 72v1228q0 72 71 72h160q72 0 72 -72v-1228q0 -72 -72 -72h-160q-73 0 -71 72z" />
<glyph unicode="&#xcf;" horiz-adv-x="614" d="M-60 1639q0 70 43 112t114 42q70 0 112 -42t42 -112q0 -72 -42 -114t-111 -42l-1 -1q-70 0 -113 43q-44 44 -44 114zM153 70v1228q0 72 71 72h160q72 0 72 -72v-1228q0 -72 -72 -72h-160q-72 0 -71 72zM363 1638q0 70 43 112q44 42 114 42t112 -42t42 -112 q0 -72 -42 -114t-112 -42l-1 -1q-72 0 -114 43q-42 44 -42 114z" />
<glyph unicode="&#xd0;" horiz-adv-x="1333" d="M29 629v114q0 63 63 64h64v493q0 72 71 72h451q247 0 396 -139q150 -139 150 -369v-356q0 -230 -150 -369q-149 -139 -396 -139h-451q-73 0 -71 72v493h-64q-63 0 -63 64zM460 279h211q117 0 183 63t66 174l1 341q0 111 -67 174q-68 63 -183 63h-211v-287h149 q63 0 64 -64v-114q0 -63 -64 -64h-149v-286z" />
<glyph unicode="&#xd1;" horiz-adv-x="1402" d="M152 63v1246q0 63 63 63h238q56 0 75 -49l404 -819h22l-14 96v709q0 63 64 63h176q63 0 63 -63v-1246q0 -63 -63 -63h-238q-53 0 -75 49l-401 819h-25l15 -96v-709q0 -63 -64 -63h-176h-1q-63 0 -63 63zM310 1540q16 270 225 270q67 0 150 -47t116 -47q57 0 73 51 q12 37 60 37h108q52 0 48 -67q-22 -252 -222 -252h-3q-67 0 -153 47t-118 47q-52 0 -69 -51q-12 -37 -59 -37h-109q-51 0 -47 49z" />
<glyph unicode="&#xd2;" d="M109 485v402q0 231 152 371t404 140q251 0 402 -141q152 -141 152 -370v-402q0 -229 -151 -370q-152 -141 -402 -141h-3q-251 0 -403 140q-151 139 -151 371zM362 1766q12 24 53 24h176q53 0 74 -47l106 -193q16 -31 3 -52q-14 -21 -51 -21h-94v-1q-45 0 -78 34l-174 201 q-27 31 -15 55zM410 491q0 -106 69 -172t184 -66l2 -1q113 0 180 66q68 66 68 173v389q0 106 -69 172t-181 66q-115 0 -184 -66t-69 -172v-389z" />
<glyph unicode="&#xd3;" d="M107 487v402q0 231 152 371t404 140q251 0 402 -141q152 -141 152 -370v-402q0 -229 -151 -370q-152 -141 -402 -141h-3q-251 0 -403 140q-151 139 -151 371zM408 493q0 -106 69 -172t184 -66l2 -1q113 0 180 66q68 66 68 173v389q0 106 -69 172t-181 66q-115 0 -184 -66 t-69 -172v-389zM553 1499q-12 21 4 51l105 193q26 47 75 47h176q41 0 53 -24q12 -23 -17 -55l-174 -201q-29 -34 -75 -33h-96l-2 1q-37 0 -49 21z" />
<glyph unicode="&#xd4;" d="M107 486v402q0 231 152 371t404 140q251 0 402 -141q152 -141 152 -370v-402q0 -229 -151 -370q-152 -141 -402 -141h-3q-251 0 -403 140q-151 139 -151 371zM326 1500q-12 22 11 54l147 197q27 39 78 39h203q49 0 76 -39l149 -197q23 -33 11 -55t-51 -22h-102 q-46 0 -78 36l-98 107h-15l-98 -107q-29 -37 -78 -36h-102h-2q-39 0 -51 23zM408 492q0 -106 69 -172t184 -66l2 -1q113 0 180 66q68 66 68 173v389q0 106 -69 172t-181 66q-115 0 -184 -66t-69 -172v-389z" />
<glyph unicode="&#xd5;" d="M106 486v402q0 231 152 371t404 140q250 0 402 -141t152 -370v-402q0 -229 -151 -370t-402 -141h-3q-251 0 -403 140q-151 139 -151 371zM273 1540q17 270 225 270q67 0 150 -47t116 -47q58 0 74 51q12 37 59 37h109q53 0 47 -67q-23 -252 -222 -252h-3q-67 0 -153 47 t-118 47q-53 0 -69 -51q-12 -37 -59 -37h-108q-51 0 -48 49zM407 492q0 -106 69 -172t184 -66l2 -1q112 0 180 66t68 173v389q0 106 -69 172t-181 66q-115 0 -184 -66t-69 -172v-389z" />
<glyph unicode="&#xd6;" d="M106 484v402q0 231 152 371t404 140q250 0 402 -141t152 -370v-402q0 -229 -151 -370t-402 -141h-3q-251 0 -403 140q-151 139 -151 371zM295 1639q0 70 43 112q44 42 115 42q70 0 112 -42t42 -112q0 -72 -42 -114t-111 -42l-2 -1q-70 0 -113 43q-44 44 -44 114zM407 490 q0 -106 69 -172t184 -66l2 -1q112 0 180 66t68 173v389q0 106 -69 172t-181 66q-115 0 -184 -66t-69 -172v-389zM718 1638q0 70 43 112t115 42q70 0 112 -42t42 -112q0 -72 -42 -114t-112 -42v-1q-72 0 -115 43t-43 114z" />
<glyph unicode="&#xd7;" horiz-adv-x="1005" d="M150 346q-43 43 0 88l176 176l-176 176q-45 45 0 91l88 86q43 45 88 0l176 -177l178 179q45 43 88 0l88 -88q45 -45 0 -91l-176 -176l176 -176q43 -45 0 -88l-88 -88q-45 -45 -88 0l-176 176l-178 -178q-45 -45 -88 0z" />
<glyph unicode="&#xd8;" d="M110 484v402q0 231 152 371t404 140q163 0 292 -64l35 60q20 41 68 41h61q32 0 42 -19t-9 -51l-72 -123l-2 -1q134 -139 136 -354v-402q0 -229 -152 -370q-151 -141 -401 -141q-165 0 -294 64l-35 -59q-23 -41 -69 -41h-59q-32 0 -42 19q-11 20 6 51l74 123 q-135 140 -135 354zM412 491l1 1q0 -35 8 -64l387 653q-56 37 -143 37q-115 0 -184 -66t-69 -172v-389zM520 291q56 -37 146 -37q112 0 180 66t68 172l1 389q0 38 -8 65z" />
<glyph unicode="&#xd9;" horiz-adv-x="1339" d="M137 463v835q0 72 72 72h160q73 0 71 -72v-829q0 -97 63 -157t170 -60q102 0 165 60t63 158v829q0 72 72 72h160q71 0 69 -72v-835q0 -220 -145 -355t-385 -135v-2q-241 0 -388 135t-147 356zM366 1766q12 24 53 24h176q53 0 74 -47l106 -193q16 -31 3 -52 q-14 -21 -51 -21h-94v-1q-45 0 -78 34l-174 201q-27 31 -15 55z" />
<glyph unicode="&#xda;" horiz-adv-x="1339" d="M138 465v835q0 72 72 72h160q72 0 71 -72v-829q0 -97 63 -157t170 -60q102 0 165 60t63 158v829q0 72 72 72h160q70 0 69 -72v-835q0 -220 -145 -355q-146 -135 -385 -135v-2q-241 0 -388 135t-147 356zM562 1499q-12 21 4 51l105 193q23 47 75 47h177q41 0 51 -24 t-18 -55l-174 -201q-28 -34 -75 -33h-97l1 1q-37 0 -49 21z" />
<glyph unicode="&#xdb;" horiz-adv-x="1339" d="M136 464v835q0 72 72 72h160q72 0 71 -72v-829q0 -97 63 -157t170 -60q102 0 165 60t63 158v829q0 72 72 72h160q70 0 69 -72v-835q0 -220 -145 -355q-146 -135 -385 -135v-2q-241 0 -388 135t-147 356zM333 1500q-12 23 10 54l148 197q27 39 77 39h203q49 0 76 -39 l149 -197q23 -33 11 -55t-51 -22h-102q-46 0 -78 36l-98 107h-14l-99 -107q-29 -37 -78 -36h-102h-1q-39 0 -51 23z" />
<glyph unicode="&#xdc;" horiz-adv-x="1339" d="M134 462v835q0 72 72 72h160q72 0 71 -72v-829q0 -97 63 -157t170 -60q102 0 165 60t63 158v829q0 72 72 72h160q70 0 69 -72v-835q0 -220 -145 -355t-385 -135v-2q-241 0 -388 135t-147 356zM303 1639q0 70 43 112q44 42 115 42q70 0 112 -42t42 -112q0 -72 -42 -114 t-112 -42v-1q-72 0 -115 43t-43 114zM725 1638q0 70 43 112q44 42 115 42q70 0 112 -42t42 -112q0 -72 -42 -114t-111 -42l-2 -1q-70 0 -113 43q-44 44 -44 114z" />
<glyph unicode="&#xdd;" horiz-adv-x="1253" d="M71 1349q15 23 56 23h194q57 0 82 -55l222 -449h20l219 449q22 55 81 55h184q41 0 56 -22q15 -23 -4 -61l-402 -747v-469q0 -72 -71 -72h-160l1 -2q-72 0 -72 72v467l-403 749q-18 39 -3 62zM519 1499q-12 21 4 51l105 193q26 47 75 47h177q40 0 51 -24q10 -24 -18 -55 l-174 -201q-29 -34 -75 -33h-97l1 1q-37 0 -49 21z" />
<glyph unicode="&#xde;" horiz-adv-x="1288" d="M156 72v1228q0 72 71 72h160q72 0 72 -72v-145h305q208 0 336 -126q127 -126 127 -337q0 -214 -127 -344q-128 -131 -336 -131h-305v-145q0 -72 -72 -72h-160q-73 0 -71 72zM459 496h274h-1q89 0 140 51t51 139q0 89 -51 140t-139 51h-274v-381z" />
<glyph unicode="&#xdf;" horiz-adv-x="1130" d="M112 63v947q0 174 126 281q127 107 332 107q206 0 330 -105t124 -277q0 -103 -50 -183q-49 -79 -134 -111v-14q102 -26 165 -120t63 -222q0 -168 -109 -267t-291 -99h-80q-62 0 -64 63v140q0 47 49 47h46q74 0 119 47t45 123t-45 121t-118 45h-37q-41 0 -41 43v164 q0 17 7.5 25t22.5 7h21q66 0 107 44t41 116t-46 117q-47 45 -121 45q-75 0 -123 -45t-48 -119v-920q0 -63 -63 -63h-160h-5q-63 0 -63 63z" />
<glyph unicode="&#xe0;" horiz-adv-x="1075" d="M62 275q0 139 93 225q92 85 245 85h279v94q0 61 -42 99q-41 37 -112 37q-116 0 -141 -82q-13 -49 -60 -49h-158q-63 0 -64 64q0 133 122 216t308 83l-3 -3q200 0 318 -94t118 -252v-639q0 -63 -64 -63h-149q-62 0 -64 63v66h-18q-32 -73 -103 -113q-73 -41 -173 -41 q-149 0 -241 83q-91 82 -91 221zM235 1417q12 24 53 24h176q53 0 74 -47l106 -193q16 -31 3 -52t-51 -21h-94q-45 0 -78 35l-174 199q-27 31 -15 55zM349 294q0 -46 42 -76t112 -30v-2q78 0 126 33t48 86v88h-209q-53 0 -86 -27t-33 -72z" />
<glyph unicode="&#xe1;" horiz-adv-x="1075" d="M62 278q0 140 93 225q92 85 245 85h279v94q0 62 -42 99q-41 37 -112 37q-116 0 -141 -82q-13 -49 -60 -49h-158q-63 0 -64 64q0 133 122 216t308 83l-3 -3q200 0 318 -94t118 -252v-639q0 -63 -64 -63h-149q-62 0 -64 63v66h-18q-32 -73 -103 -113q-73 -41 -173 -41 q-149 0 -241 83q-91 82 -91 221zM349 297q0 -46 42 -76t112 -30v-2q78 0 126 33t48 86v88h-209q-53 0 -86 -27t-33 -72zM430 1150q-12 22 4 53l105 193q23 47 75 47h177q41 0 51 -24t-18 -55l-174 -201q-29 -35 -75 -35h-96v1q-37 0 -49 21z" />
<glyph unicode="&#xe2;" horiz-adv-x="1075" d="M60 277q0 139 93 225q92 85 245 85h279v94q0 61 -42 99q-41 37 -112 37q-116 0 -141 -82q-13 -49 -60 -49h-158q-63 0 -64 64q0 133 122 216t308 83l-3 -3q200 0 318 -94t118 -252v-639q0 -63 -64 -63h-149q-62 0 -64 63v66h-18q-32 -73 -103 -113q-73 -41 -173 -41 q-149 0 -241 83q-91 82 -91 221zM199 1151q-12 22 11 54l147 197q27 39 78 39h203q49 0 76 -39l149 -197q23 -33 11 -55t-51 -22h-102q-47 0 -78 37l-98 107h-15l-98 -107q-28 -37 -78 -37h-102h-2q-39 0 -51 23zM347 296q0 -46 42 -76t112 -30v-2q78 0 126 33t48 86v88 h-209q-53 0 -86 -27t-33 -72z" />
<glyph unicode="&#xe3;" horiz-adv-x="1075" d="M62 277q0 139 93 225q92 85 245 85h279v94q0 61 -42 99q-41 37 -112 37q-116 0 -141 -82q-13 -49 -60 -49h-158q-63 0 -64 64q0 133 122 216t308 83l-3 -3q200 0 318 -94t118 -252v-639q0 -63 -64 -63h-149q-62 0 -64 63v66h-18q-32 -73 -103 -113q-73 -41 -173 -41 q-149 0 -241 83q-91 82 -91 221zM149 1192q17 270 223 270q67 0 150 -47t116 -47q58 0 74 51q12 37 59 37h109q53 0 47 -67q-23 -252 -221 -252q-67 0 -153 47t-119 47q-52 0 -69 -51q-12 -37 -60 -37h-108q-49 0 -48 49zM349 296q0 -46 42 -76t112 -30v-2q78 0 126 33 t48 86v88h-209q-53 0 -86 -27t-33 -72z" />
<glyph unicode="&#xe4;" horiz-adv-x="1075" d="M59 275q0 139 93 225q92 85 245 85h279v94q0 61 -42 99q-41 37 -112 37q-116 0 -141 -82q-13 -49 -60 -49h-158q-63 0 -64 64q0 133 122 216t308 83l-3 -3q200 0 318 -94t118 -252v-639q0 -63 -64 -63h-149q-63 0 -64 63v66h-18q-32 -73 -103 -113q-73 -41 -173 -41 q-149 0 -241 83q-91 82 -91 221zM168 1291q0 70 43 112t115 42q70 0 112 -42t42 -112q0 -72 -42 -114t-111 -42l-2 -1q-70 0 -113 43q-44 44 -44 114zM346 294q0 -46 42 -76t112 -30v-2q78 0 126 33t48 86v88h-209q-53 0 -86 -27t-33 -72zM591 1290q0 70 43 112 q44 42 115 42q70 0 112 -42t42 -112q0 -72 -42 -114t-112 -42v-1q-72 0 -115 43t-43 114z" />
<glyph unicode="&#xe5;" horiz-adv-x="1075" d="M59 273q0 139 93 225q92 85 245 85h279v94q0 61 -42 99q-41 37 -112 37q-116 0 -141 -82q-13 -49 -60 -49h-158q-63 0 -64 64q0 133 122 216t308 83l-3 -3q200 0 318 -94t118 -252v-639q0 -63 -64 -63h-149q-63 0 -64 63v66h-18q-32 -73 -103 -113q-73 -41 -173 -41 q-149 0 -241 83q-91 82 -91 221zM295 1342q0 102 66 167q67 65 177 65q108 0 173 -64q66 -65 66 -167q0 -103 -66 -167q-65 -64 -172 -64l-1 -2q-110 0 -177 65q-66 65 -66 167zM346 292q0 -46 42 -76t112 -30v-2q78 0 126 33t48 86v88h-209q-53 0 -86 -27t-33 -72z M441 1340q0 -39 26 -67q25 -27 69 -27q40 0 65 27q26 28 26 68q0 42 -25 68q-25 27 -64 27l-2 -2q-41 0 -68 -27t-27 -67z" />
<glyph unicode="&#xe6;" horiz-adv-x="1669" d="M62 288q0 139 93 223t249 84h274v86q0 61 -41 99q-40 37 -111 37q-118 0 -141 -80q-13 -51 -59 -51h-160q-63 0 -64 64q0 143 109 221t282 78q113 0 197 -37q86 -38 126 -102h14q39 61 126 100t196 39q191 0 309 -112t118 -294v-166q0 -63 -63 -63l-550 3v-54 q0 -70 47 -112t126 -42q109 0 145 72q20 41 60 39h172q28 0 45 -17t12 -48q-23 -135 -129 -207t-274 -72q-114 0 -207 38q-91 38 -132 99h-14q-45 -61 -145 -100t-219 -39q-178 0 -285 86q-106 85 -106 228zM348 304q0 -49 43 -79t114 -30l-1 -1q76 0 124 33t48 86v90h-207 q-53 0 -87 -27t-34 -72zM965 610h325v58q0 70 -44 111t-117 41l-1 -1q-73 0 -118 -42t-45 -109v-58z" />
<glyph unicode="&#xe7;" horiz-adv-x="1048" d="M87 384v254q0 186 121 298t321 112q197 0 318 -99q122 -99 122 -273q0 -66 -60 -66h-163q-52 0 -62 45q-16 127 -156 127q-69 0 -112 -41q-42 -41 -42 -105v-250q0 -66 43 -106t112 -40q140 0 156 127q11 45 63 45h163l-1 -2q58 0 60 -68q0 -158 -102 -252t-270 -111 l-35 -64h25q83 0 136 -50q52 -49 52 -132q0 -94 -75 -151t-198 -57q-68 0 -125 16q-51 13 -51 72v29q0 67 59 53q51 -14 90 -14q104 0 105 61q0 22 -15 36q-14 13 -40 13h-104q-49 0 -49 47v19q0 23 12 42l51 84q-160 25 -255 132q-94 106 -94 269z" />
<glyph unicode="&#xe8;" horiz-adv-x="1077" d="M87 388v246q0 188 123 300q124 113 328 113t326 -115q123 -116 123 -303v-150q0 -63 -63 -63l-550 3v-58q0 -70 47 -112t123 -42q112 0 147 69q19 43 62 43h172q29 0 44 -16q15 -17 11 -45q-19 -130 -137 -207q-116 -76 -299 -76q-207 0 -332 113t-125 300zM235 1417 q12 24 53 24h176q53 0 74 -47l106 -193q16 -31 3 -52t-51 -21h-94q-45 0 -78 35l-174 199q-27 31 -15 55zM373 614h325v52q0 70 -44 111t-117 41l-1 -1q-72 0 -118 -41q-45 -40 -45 -110v-52z" />
<glyph unicode="&#xe9;" horiz-adv-x="1077" d="M87 391v246q0 187 123 300q124 113 328 113t326 -115q123 -115 123 -303v-150q0 -63 -63 -63l-550 3v-58q0 -70 47 -112t123 -42q112 0 147 69q19 43 62 43h172q29 0 44 -16q15 -17 11 -45q-19 -130 -137 -207q-116 -76 -299 -76q-207 0 -332 113t-125 300zM373 617h325 v52q0 70 -44 111t-117 41l-1 -1q-72 0 -118 -41q-45 -41 -45 -110v-52zM430 1150q-12 22 4 53l105 193q23 47 75 47h177q41 0 51 -24t-18 -55l-174 -201q-29 -35 -75 -35h-96v1q-37 0 -49 21z" />
<glyph unicode="&#xea;" horiz-adv-x="1077" d="M85 390v246q0 188 123 300q124 113 328 113t326 -115q123 -116 123 -303v-150q0 -63 -63 -63l-550 3v-58q0 -70 47 -112t123 -42q112 0 147 69q19 43 62 43h172q29 0 44 -16q15 -17 11 -45q-19 -130 -137 -207q-116 -76 -299 -76q-207 0 -332 113t-125 300zM199 1151 q-12 22 11 54l147 197q27 39 78 39h203q49 0 76 -39l149 -197q23 -33 11 -55t-51 -22h-102q-47 0 -78 37l-98 107h-15l-98 -107q-28 -37 -78 -37h-102h-2q-39 0 -51 23zM371 616h325v52q0 70 -44 111t-117 41l-1 -1q-72 0 -118 -41q-45 -40 -45 -110v-52z" />
<glyph unicode="&#xeb;" horiz-adv-x="1077" d="M84 388v246q0 188 123 300q124 113 328 113t326 -115q123 -116 123 -303v-150q0 -63 -63 -63l-550 3v-58q0 -70 47 -112q46 -42 123 -42q113 0 147 69q19 43 62 43h172q29 0 44 -16q15 -17 11 -45q-19 -130 -137 -207q-116 -76 -299 -76q-207 0 -332 113t-125 300z M168 1291q0 70 43 112t115 42q70 0 112 -42t42 -112q0 -72 -42 -114t-111 -42l-2 -1q-70 0 -113 43q-44 44 -44 114zM370 614h325v52q0 70 -44 111t-117 41l-1 -1q-72 0 -118 -41q-45 -40 -45 -110v-52zM591 1290q0 70 43 112q44 42 115 42q70 0 112 -42t42 -112 q0 -72 -42 -114t-112 -42v-1q-72 0 -115 43t-43 114z" />
<glyph unicode="&#xec;" horiz-adv-x="540" d="M-31 1417q11 24 51 24h177q52 0 72 -47l107 -193q16 -31 3 -52t-51 -21h-95l3 -2q-45 0 -77 35l-174 201q-27 31 -16 55zM130 61v898q0 63 63 63h160q63 0 64 -63v-898q0 -63 -64 -63h-160q-63 0 -63 63z" />
<glyph unicode="&#xed;" horiz-adv-x="540" d="M125 64v898q0 63 63 63h160q62 0 64 -63v-898q0 -63 -64 -63h-160q-63 0 -63 63zM160 1150q-12 22 4 53l104 193q26 47 76 47h176q41 0 53 -24q12 -23 -17 -55l-174 -201q-29 -35 -75 -35h-96l-2 1q-37 0 -49 21z" />
<glyph unicode="&#xee;" horiz-adv-x="540" d="M-69 1151q-12 22 11 54l147 197q27 39 78 39h203q50 0 75 -39l150 -197q23 -33 11 -55t-51 -22h-102q-47 0 -78 37l-99 107h-14l-98 -107q-28 -37 -78 -37h-102h-2q-39 0 -51 23zM125 63v898q0 63 63 63h160q62 0 64 -63v-898q0 -63 -64 -63h-160q-63 0 -63 63z" />
<glyph unicode="&#xef;" horiz-adv-x="540" d="M-98 1291q0 70 43 112t114 42q70 0 112 -42t42 -112q0 -72 -42 -114t-112 -42l-1 -1q-72 0 -114 43t-42 114zM124 61v898q0 63 63 63h160q63 0 64 -63v-898q0 -63 -64 -63h-160q-63 0 -63 63zM324 1290q0 70 43 112t114 42q70 0 112 -42t42 -112q0 -72 -42 -114t-111 -42 l-1 -1q-70 0 -113 43q-44 44 -44 114z" />
<glyph unicode="&#xf0;" horiz-adv-x="1077" d="M83 386v195q0 169 96 276t246 107q145 0 217 -82h16q-28 106 -84 210l-174 -52q-35 -8 -52.5 6t-16.5 50v39q0 57 55 69l96 29q-34 43 -84 93q-28 32 -21 51q8 20 48 20h125q46 0 78 -31q42 -39 66 -70l144 43q33 8 52 -7t19 -48v-37q0 -59 -55 -71l-55 -17l1 -3 q182 -281 182 -590v-180q0 -186 -123 -300t-325 -114t-327 114q-124 114 -124 300zM370 387q0 -71 45 -111q44 -40 119 -40q73 0 117 41t44 111l-1 158q0 70 -44 111t-117 41q-74 0 -118 -40q-45 -40 -45 -111v-160z" />
<glyph unicode="&#xf1;" horiz-adv-x="1126" d="M126 62v898q0 63 63 63h160q63 0 64 -63v-80h16q31 76 105 123q73 46 171 46l1 -3q136 0 222 -83q85 -82 85 -218v-685q0 -63 -64 -63h-159q-62 0 -64 63v574q0 66 -41 105t-108 39q-71 0 -118 -41q-46 -40 -46 -99v-576q0 -63 -64 -63h-160q-63 0 -63 63zM179 1192 q17 270 225 270q67 0 150 -47t116 -47q56 0 73 51q12 37 60 37h108q52 0 48 -67q-23 -252 -222 -252q-67 0 -153 47t-118 47q-52 0 -69 -51q-12 -37 -59 -37h-109h-2q-49 0 -48 49z" />
<glyph unicode="&#xf2;" horiz-adv-x="1077" d="M86 387v246q0 186 124 300t327 114t326 -114t123 -300v-246q0 -186 -123 -300t-325 -114h-1q-203 0 -327 114t-124 300zM235 1417q12 24 53 24h176q53 0 74 -47l106 -193q16 -31 3 -52t-51 -21h-94v-2q-45 0 -78 35l-174 201q-27 31 -15 55zM373 389q0 -71 45 -111 q44 -40 119 -40l-1 -1q73 0 117 41t44 110v242q0 70 -44 111t-117 41q-72 0 -118 -41q-45 -41 -45 -110v-242z" />
<glyph unicode="&#xf3;" horiz-adv-x="1077" d="M86 390v246q0 186 124 300t327 114t326 -114t123 -300v-246q0 -186 -123 -300t-325 -114h-1q-203 0 -327 114t-124 300zM373 392q0 -70 45 -111q44 -40 119 -40l-1 -1q73 0 117 41t44 110v242q0 70 -44 111t-117 41q-72 0 -118 -41q-45 -40 -45 -110v-242zM430 1150 q-12 22 4 53l105 193q23 47 75 47h177q41 0 51 -24t-18 -55l-174 -201q-29 -35 -75 -35h-96v1q-37 0 -49 21z" />
<glyph unicode="&#xf4;" horiz-adv-x="1077" d="M84 389v246q0 186 124 300t327 114t326 -114t123 -300v-246q0 -186 -123 -300t-325 -114h-1q-203 0 -327 114t-124 300zM199 1151q-12 22 11 54l147 197q27 39 78 39h203q49 0 76 -39l149 -197q23 -33 11 -55t-51 -22h-102q-47 0 -78 37l-98 107h-15l-98 -107 q-28 -37 -78 -37h-102h-2q-39 0 -51 23zM371 391q0 -71 45 -111q44 -40 119 -40l-1 -1q73 0 117 41t44 110v242q0 70 -44 111t-117 41q-72 0 -118 -41q-45 -41 -45 -110v-242z" />
<glyph unicode="&#xf5;" horiz-adv-x="1077" d="M87 389v246q0 186 124 300q125 114 327 114q203 0 326 -114t123 -300v-246q0 -186 -123 -300t-325 -114h-1q-202 0 -327 114q-124 114 -124 300zM151 1192q17 270 223 270q67 0 150 -47t116 -47q58 0 74 51q12 37 59 37h109q53 0 47 -67q-23 -252 -222 -252h1 q-67 0 -153 47t-119 47q-52 0 -69 -51q-12 -37 -60 -37h-108q-49 0 -48 49zM374 391q0 -71 45 -111q44 -40 119 -40l-1 -1q73 0 117 41t44 110v242q0 70 -44 111t-117 41q-72 0 -118 -41q-45 -41 -45 -110v-242z" />
<glyph unicode="&#xf6;" horiz-adv-x="1077" d="M83 387v246q0 186 124 300q125 114 327 114q203 0 326 -114t123 -300v-246q0 -186 -123 -300t-325 -114h-1q-202 0 -327 114q-124 114 -124 300zM168 1291q0 70 43 112t115 42q70 0 112 -42t42 -112q0 -72 -42 -114t-111 -42l-2 -1q-70 0 -113 43q-44 44 -44 114z M370 389q0 -71 45 -111q44 -40 119 -40l-1 -1q73 0 117 41t44 110v242q0 70 -44 111t-117 41q-72 0 -118 -41q-45 -41 -45 -110v-242zM591 1290q0 70 43 112q44 42 115 42q70 0 112 -42t42 -112q0 -72 -42 -114t-112 -42v-1q-72 0 -115 43t-43 114z" />
<glyph unicode="&#xf7;" horiz-adv-x="1128" d="M125 564v90q0 62 63 64h748q63 0 63 -64v-90q0 -63 -63 -63h-748q-63 0 -63 63zM411 240q0 68 42 108q43 41 110 41t108 -41t41 -108q0 -66 -41 -109q-41 -42 -108 -42l-1 -1q-67 0 -109 42t-42 110zM413 979q0 67 42 108q43 41 110 41q68 0 108 -40q41 -41 41 -108 t-41 -108t-108 -41l-1 -1q-66 0 -109 41q-42 41 -42 108z" />
<glyph unicode="&#xf8;" horiz-adv-x="1077" d="M88 390v246q0 186 124 300t327 114q125 0 215 -43l26 41q23 39 69 38h45q32 0 42 -21t-8 -51l-56 -86h1q115 -111 115 -293v-246q0 -186 -123 -300t-325 -114q-122 0 -217 43l-25 -41q-27 -39 -70 -38h-45q-31 0 -42 21t9 51l55 86q-117 111 -117 293zM375 391 q0 -16 4 -39l248 412q-35 20 -87 20q-75 0 -119 -40q-45 -40 -45 -111zM452 259q35 -20 87 -20q73 0 117 41t44 111l1 241q0 18 -4 37z" />
<glyph unicode="&#xf9;" horiz-adv-x="1112" d="M116 272v687q0 63 63 63h160q63 0 63 -63v-578q0 -63 39 -101q40 -38 105 -38q68 0 110 39t42 98v580q0 63 64 63h160v1q63 0 63 -63v-898q0 -63 -63 -63h-160q-62 0 -64 63v80h-16q-32 -77 -100 -123t-165 -46q-136 0 -218 82q-83 83 -83 217zM247 1417q12 24 53 24h176 q53 0 74 -47l106 -193q16 -31 3 -52t-51 -21h-94q-45 0 -78 35l-174 199q-27 31 -15 55z" />
<glyph unicode="&#xfa;" horiz-adv-x="1112" d="M117 275v687q0 63 63 63h160q63 0 63 -63v-578q0 -64 39 -101q40 -38 105 -38q68 0 110 39t42 98v580q0 63 64 63h160v1q63 0 63 -63v-898q0 -63 -63 -63h-160q-63 0 -64 63v80h-16q-32 -77 -100 -123t-165 -46q-136 0 -218 82q-83 83 -83 217zM441 1150q-12 22 4 53 l105 193q26 47 76 47h176q40 0 51 -24q10 -24 -18 -55l-174 -201q-29 -35 -75 -35h-97l1 1q-37 0 -49 21z" />
<glyph unicode="&#xfb;" horiz-adv-x="1112" d="M117 274v687q0 63 63 63h160q63 0 63 -63v-578q0 -63 39 -101q40 -38 105 -38q68 0 110 39t42 98v580q0 63 64 63h160v1q63 0 63 -63v-898q0 -63 -63 -63h-160q-63 0 -64 63v80h-16q-32 -77 -100 -123t-165 -46q-136 0 -218 82q-83 83 -83 217zM214 1151q-12 23 10 54 l148 197q27 39 78 39h202q49 0 76 -39l150 -197q22 -33 9 -55t-51 -22h-103q-47 0 -78 37l-98 107h-14l-99 -107q-28 -37 -77 -37h-103h1q-39 0 -51 23z" />
<glyph unicode="&#xfc;" horiz-adv-x="1112" d="M116 272v687q0 63 63 63h160q63 0 63 -63v-578q0 -63 39 -101q40 -38 105 -38q68 0 110 39t42 98v580q0 63 64 63h160v1q63 0 63 -63v-898q0 -63 -63 -63h-160q-62 0 -64 63v80h-16q-32 -77 -100 -123t-165 -46q-136 0 -218 82q-83 83 -83 217zM182 1291q0 70 43 112 q44 42 115 42q70 0 112 -42t42 -112q0 -72 -42 -114t-112 -42v-1q-71 0 -114 43q-44 44 -44 114zM606 1290q0 70 43 112t115 42q70 0 112 -42t42 -112q0 -72 -42 -114t-112 -42v-1q-72 0 -115 43t-43 114z" />
<glyph unicode="&#xfd;" horiz-adv-x="1081" d="M61 952q-7 31 6 52t45 21h188q59 0 68 -57l167 -645h31l166 645q8 57 68 57h176q32 0 45 -19t3 -52l-352 -1097q-70 -223 -315 -225h-139l1 -1q-63 0 -63 64v110q0 63 63 64h68q90 0 114 74l33 88h-33q-46 0 -59 43zM433 1150q-12 22 4 53l105 193q26 47 75 47h177 q40 0 51 -24q10 -24 -18 -55l-174 -201q-29 -35 -75 -35h-97l1 1q-37 0 -49 21z" />
<glyph unicode="&#xfe;" horiz-adv-x="1120" d="M126 -306v1675q0 63 63 64h160q63 0 64 -64v-489h16q32 77 103 123t170 46l-3 -2q145 0 235 -93t90 -241v-406q0 -150 -89 -242t-234 -92q-96 0 -169 47q-71 46 -103 122h-16v-448q0 -63 -64 -64h-160q-63 0 -63 64zM410 390q0 -63 46 -106t120 -43q72 0 116 41t44 111 l-2 232q0 70 -44 111t-114 41q-74 0 -120 -43t-46 -106v-238z" />
<glyph unicode="&#xff;" horiz-adv-x="1081" d="M57 949q-7 31 6 52t45 21h188q59 0 68 -57l167 -645h31l166 645q8 57 68 57h176q32 0 45 -19t3 -52l-352 -1097q-70 -224 -315 -225h-139l1 -1q-63 0 -63 64v110q0 62 63 64h68q90 0 114 74l33 88h-33q-46 0 -59 43zM172 1291q0 70 43 112t115 42q70 0 112 -42t42 -112 q0 -72 -42 -114t-112 -42v-1q-72 0 -115 43t-43 114zM594 1290q0 70 43 112t115 42q70 0 112 -42t42 -112q0 -72 -42 -114t-111 -42l-2 -1q-70 0 -113 43q-44 44 -44 114z" />
<glyph unicode="&#x152;" horiz-adv-x="1869" d="M110 509v352q0 231 152 371t404 140h1015q70 0 70 -72v-137q0 -69 -70 -69l-516 -2v-269h435q73 0 71 -71v-123q0 -72 -71 -72h-435v-280h514q70 0 70 -70v-137q0 -72 -70 -72h-1015q-251 0 -403 140q-151 139 -151 371zM411 515q0 -106 69 -172t184 -66l200 1v815h-200 q-115 0 -184 -66t-69 -172v-340z" />
<glyph unicode="&#x153;" horiz-adv-x="1689" d="M88 374v274q0 181 118 290q119 110 309 110q229 0 322 -138h16q41 64 126 101q87 38 195 38q195 0 311 -112q117 -113 117 -294v-162q-2 -63 -64 -63l-551 3v-58q0 -70 46 -112q47 -42 126 -42q109 0 147 72q22 41 63 39h164q32 0 51 -17q18 -17 11 -48 q-22 -135 -131 -207q-108 -72 -276 -72q-114 0 -204 38q-88 38 -129 99h-18q-37 -61 -124 -100t-198 -39q-190 0 -309 110q-118 109 -118 290zM373 392q0 -70 45 -111q44 -40 119 -40q73 0 117 41t44 111l-1 240q0 70 -44 111t-117 41q-72 0 -118 -41q-45 -40 -45 -110v-242 zM987 616h326v52q0 70 -45 111q-46 41 -117 41v-1q-73 0 -119 -41q-45 -40 -45 -110v-52z" />
<glyph unicode="&#x178;" horiz-adv-x="1253" d="M67 1346q15 23 56 23h194q57 0 82 -55l222 -449h20l219 449q22 55 81 55h184q41 0 56 -22q15 -23 -4 -61l-402 -747v-469q0 -72 -71 -72h-160l1 -2q-72 0 -72 72v467l-403 749q-18 39 -3 62zM258 1639q0 70 43 112q44 42 115 42q70 0 112 -42t42 -112q0 -72 -42 -114 t-112 -42v-1q-72 0 -115 43t-43 114zM680 1638q0 70 43 112t115 42q70 0 112 -42t42 -112q0 -72 -42 -114t-111 -42l-2 -1q-70 0 -113 43q-44 44 -44 114z" />
<glyph unicode="&#x2c6;" horiz-adv-x="759" d="M42 1151q-12 23 10 54l148 197q27 39 78 39h202q49 0 76 -39l150 -197q23 -33 11 -55t-51 -22h-103q-47 0 -78 37l-98 107h-14l-99 -107q-28 -37 -77 -37h-103h-1q-39 0 -51 23z" />
<glyph unicode="&#x2dc;" horiz-adv-x="782" d="M4 1192q17 270 223 270q67 0 150 -47t116 -47q57 0 73 51q12 37 60 37h108q53 0 47 -67q-23 -252 -222 -252q-67 0 -153 47t-117 47q-53 0 -69 -51q-12 -37 -59 -37h-109q-49 0 -48 49z" />
<glyph unicode="&#x2000;" horiz-adv-x="961" />
<glyph unicode="&#x2001;" horiz-adv-x="1922" />
<glyph unicode="&#x2002;" horiz-adv-x="961" />
<glyph unicode="&#x2003;" horiz-adv-x="1922" />
<glyph unicode="&#x2004;" horiz-adv-x="640" />
<glyph unicode="&#x2005;" horiz-adv-x="480" />
<glyph unicode="&#x2006;" horiz-adv-x="320" />
<glyph unicode="&#x2007;" horiz-adv-x="320" />
<glyph unicode="&#x2008;" horiz-adv-x="240" />
<glyph unicode="&#x2009;" horiz-adv-x="384" />
<glyph unicode="&#x200a;" horiz-adv-x="106" />
<glyph unicode="&#x2010;" horiz-adv-x="835" d="M127 498v143q0 63 63 64h455q63 0 64 -64v-143q0 -63 -64 -64h-455q-63 0 -63 64z" />
<glyph unicode="&#x2011;" horiz-adv-x="835" d="M127 498v143q0 63 63 64h455q63 0 64 -64v-143q0 -63 -64 -64h-455q-63 0 -63 64z" />
<glyph unicode="&#x2012;" horiz-adv-x="835" d="M127 498v143q0 63 63 64h455q63 0 64 -64v-143q0 -63 -64 -64h-455q-63 0 -63 64z" />
<glyph unicode="&#x2013;" horiz-adv-x="1128" d="M127 510v121q0 63 63 63h748q63 0 63 -63v-121q0 -62 -63 -64h-748q-63 0 -63 64z" />
<glyph unicode="&#x2014;" horiz-adv-x="1767" d="M127 510v121q0 63 63 63h1387q63 0 63 -63v-121q0 -62 -63 -64h-1387q-63 0 -63 64z" />
<glyph unicode="&#x2018;" horiz-adv-x="606" d="M110 878q-14 21 0 54l153 391q16 49 72 49h92q70 0 57 -67l-75 -390q-7 -57 -69 -57h-180l-2 -1q-34 0 -48 21z" />
<glyph unicode="&#x2019;" horiz-adv-x="606" d="M118 929l78 387q8 57 69 57h178q37 0 51 -21t2 -54l-154 -391q-19 -49 -74 -49h-92l-1 1q-70 0 -57 70z" />
<glyph unicode="&#x201a;" horiz-adv-x="552" d="M78 -134l76 389q8 57 69 57h180q35 0 48 -21q14 -21 2 -55l-154 -390q-16 -49 -72 -49h-92v1q-71 0 -57 68z" />
<glyph unicode="&#x201c;" horiz-adv-x="1044" d="M110 878q-14 21 0 54l153 391q16 49 72 49h92q70 0 57 -67l-75 -390q-7 -57 -69 -57h-180l-2 -1q-34 0 -48 21zM549 931l151 391q19 49 74 49h92q70 0 58 -67l-76 -390q-12 -57 -70 -57h-180v-1q-34 0 -48 21q-13 21 -1 54z" />
<glyph unicode="&#x201d;" horiz-adv-x="1044" d="M118 929l78 387q8 57 69 57h178q37 0 51 -21t2 -54l-154 -391q-19 -49 -74 -49h-92l-1 1q-70 0 -57 70zM558 930l78 387q8 57 68 57h180q34 0 48 -21t0 -54l-152 -391q-19 -49 -72 -49h-93v1q-70 0 -57 70z" />
<glyph unicode="&#x201e;" horiz-adv-x="993" d="M78 -134l76 389q8 57 69 57h180q35 0 48 -21q14 -21 2 -55l-154 -390q-16 -49 -72 -49h-92v1q-71 0 -57 68zM519 -133l76 389q7 57 69 57h180q34 0 48 -21q13 -20 1 -55l-154 -390q-19 -49 -71 -49h-95v1q-68 0 -54 68z" />
<glyph unicode="&#x2022;" horiz-adv-x="800" d="M126 579q0 123 75 198t200 75q123 0 198 -75t75 -197q0 -125 -75 -200t-198 -75l-1 -1q-124 0 -199 75t-75 200z" />
<glyph unicode="&#x2026;" horiz-adv-x="1624" d="M87 162q0 82 50 130q49 48 132 48t131 -48t48 -130t-48 -132t-130 -50h-1q-82 0 -132 50t-50 132zM631 162q0 82 49 130q50 48 132 48t130 -48t48 -130t-48 -132t-130 -50t-132 50q-49 49 -49 132zM1174 162q0 82 49 130t132 48t132 -48t49 -130q0 -83 -49 -132 q-50 -50 -132 -50t-132 50q-49 49 -49 132z" />
<glyph unicode="&#x202f;" horiz-adv-x="384" />
<glyph unicode="&#x2039;" horiz-adv-x="739" d="M90 498q-33 45 0 90l242 315q32 39 78 39h163q38 0 50 -22t-9 -54l-223 -313v-21l223 -313q20 -32 8 -54t-49 -22h-163q-46 0 -78 39z" />
<glyph unicode="&#x203a;" horiz-adv-x="739" d="M116 164q-12 22 9 54l223 313v21l-223 313q-20 32 -8 54q12 23 51 23h162q51 0 78 -39l243 -315q31 -45 0 -90l-243 -316q-27 -39 -78 -39h-162l-1 -2q-39 0 -51 23z" />
<glyph unicode="&#x205f;" horiz-adv-x="480" />
<glyph unicode="&#x20ac;" horiz-adv-x="1337" d="M122 532v50q0 55 55 55h51v98h-51q-55 0 -55 56v49q0 55 55 55h51v47q0 206 138 331q137 124 369 124q209 0 336 -97q128 -98 149 -273q4 -31 -14 -49t-49 -18h-174q-49 0 -66 50q-32 137 -187 137q-91 0 -144 -49q-54 -50 -54 -132v-70h324q57 0 57 -55v-49 q0 -56 -57 -57h-324v-98h324q57 0 57 -55v-50q0 -55 -57 -55h-324v-69q0 -82 54 -132q53 -49 144 -49q160 0 187 138q16 49 66 49h174l-2 -1q34 0 51 -16q18 -17 14 -48q-19 -179 -149 -277q-128 -97 -336 -97q-232 0 -369 124q-138 125 -138 331v47h-51q-55 0 -55 55z" />
<glyph unicode="&#x2122;" horiz-adv-x="1495" d="M68 1262v63q0 47 47 47h428q47 0 47 -47v-63q0 -46 -47 -48h-129v-481q0 -47 -47 -47h-74q-47 0 -47 47v481h-131q-47 0 -47 48zM677 733v592q0 47 47 47h137q43 0 57 -39l112 -299h10l113 299q12 39 53 39h133q47 0 47 -47v-592q0 -47 -47 -47h-77q-46 0 -48 47v318 l9 51h-13l-102 -256q-12 -39 -53 -39h-45q-44 0 -57 39l-100 256h-12l8 -51v-318q0 -47 -47 -47h-78q-47 0 -47 47z" />
<glyph unicode="&#x25fc;" horiz-adv-x="1020" d="M0 0v1020h1020v-1020h-1020z" />
</font>
</defs>
</svg>
