<?xml version="1.0" standalone="no"?>
<!DOCTYPE svg PUBLIC "-//W3C//DTD SVG 1.1//EN" "http://www.w3.org/Graphics/SVG/1.1/DTD/svg11.dtd" >
<svg xmlns="http://www.w3.org/2000/svg" xmlns:xlink="http://www.w3.org/1999/xlink" version="1.1">
<metadata>
Created by FontForge 20201107 at Mon Jan 20 08:55:51 2025
 By 
Pavel Larin
</metadata>
<defs>
<font id="Paseo-SemiBoldItalic" horiz-adv-x="0" >
  <font-face 
    font-family="Paseo SemiBold"
    font-weight="600"
    font-style="italic"
    font-stretch="normal"
    units-per-em="2048"
    panose-1="0 0 0 0 0 0 0 0 0 0"
    ascent="1638"
    descent="-410"
    x-height="1024"
    cap-height="1434"
    bbox="-403 -1638 2497 2458"
    underline-thickness="102"
    underline-position="-255"
    unicode-range="U+000D-E022"
  />
<missing-glyph horiz-adv-x="2048" 
d="M2068 2458l-649 -4096h-1298l649 4096h1298zM1311 -336h-680l-74 -463h680zM1155 -471l-31 -193h-409l30 193h410zM1423 373h-409l-37 -230h139l14 95h136l-31 -193h-410l54 328h-136l-73 -463h680zM1501 872h-135l-41 -270h-545l-22 -139h680zM1540 1118h-680l-20 -135
h270l-25 -152h-270l-20 -135h409l45 287h271zM1194 1516l-23 -148h-135l23 148h135zM1356 1655h-410l-67 -426h680l22 139h-270zM1710 2183h-676l-22 -135h266l-23 -152h-270l-22 -135h679l23 135h-270l22 152h271zM1223 -893h-680l-23 -135h287l-315 -193l-23 -135h680
l22 135h-417l315 193h131z" />
    <glyph glyph-name=".notdef" horiz-adv-x="2048" 
d="M2068 2458l-649 -4096h-1298l649 4096h1298zM1311 -336h-680l-74 -463h680zM1155 -471l-31 -193h-409l30 193h410zM1423 373h-409l-37 -230h139l14 95h136l-31 -193h-410l54 328h-136l-73 -463h680zM1501 872h-135l-41 -270h-545l-22 -139h680zM1540 1118h-680l-20 -135
h270l-25 -152h-270l-20 -135h409l45 287h271zM1194 1516l-23 -148h-135l23 148h135zM1356 1655h-410l-67 -426h680l22 139h-270zM1710 2183h-676l-22 -135h266l-23 -152h-270l-22 -135h679l23 135h-270l22 152h271zM1223 -893h-680l-23 -135h287l-315 -193l-23 -135h680
l22 135h-417l315 193h131z" />
    <glyph glyph-name=".null" 
 />
    <glyph glyph-name="nonmarkingreturn" horiz-adv-x="682" 
 />
    <glyph glyph-name="NULL" 
 />
    <glyph glyph-name="NULL" 
 />
    <glyph glyph-name="CR" unicode="&#xd;" horiz-adv-x="512" 
 />
    <glyph glyph-name="space" unicode=" " horiz-adv-x="636" 
 />
    <glyph glyph-name="exclam" unicode="!" horiz-adv-x="483" 
d="M274 319l62 1135h309l-293 -1135h-78zM260 -20q-51 0 -80 34t-20 86q8 50 48 84.5t91 34.5q49 0 78.5 -34.5t21.5 -84.5q-9 -52 -49 -86t-90 -34z" />
    <glyph glyph-name="quotedbl" unicode="&#x22;" horiz-adv-x="657" 
d="M539 1038l82 398h202l-225 -398h-59zM266 1038l80 398h205l-225 -398h-60z" />
    <glyph glyph-name="numbersign" unicode="#" horiz-adv-x="1429" 
d="M295 0l190 385h-321l33 72h321l156 315h-340l37 70h338l190 387h72l-191 -387l330 -2l190 389h76l-190 -389h315l-35 -68h-315l-158 -317h336l-33 -70h-333l-191 -385h-76l191 385h-330l-190 -385h-72zM920 455l155 317h-327l-156 -315z" />
    <glyph glyph-name="dollar" unicode="$" horiz-adv-x="1308" 
d="M535 -12q-168 23 -274 106t-109 219h55q3 -103 99.5 -171.5t238.5 -88.5l90 565q-65 31 -112.5 59t-97.5 69t-79 84t-43.5 102t-3.5 125q24 151 155.5 251.5t311.5 133.5l27 172h59l-27 -164q54 4 78 4q43 0 80 -6l27 166h59l-29 -174q140 -28 228 -109.5t92 -210.5h-55
q-4 102 -81.5 169.5t-191.5 90.5l-88 -549q93 -43 150.5 -77t120 -87.5t85.5 -122.5t9 -155q-17 -105 -91 -189t-177 -134t-228 -72l-33 -201h-59l31 193q-50 -6 -93 -6q-49 0 -65 2l-31 -189h-59zM672 47q48 0 92 12l72 463q-25 13 -74.5 36t-71.5 34l-86 -543q20 -2 68 -2
zM825 74q86 26 142 76.5t67 125.5q11 66 -26.5 117.5t-116.5 98.5zM752 1360q-72 -24 -120.5 -73.5t-60.5 -117.5q-18 -120 117 -206zM973 1389q-27 3 -74 0q-51 -3 -84 -9l-72 -454l146 -70z" />
    <glyph glyph-name="percent" unicode="%" horiz-adv-x="1462" 
d="M209 0l1241 1434h70l-1241 -1434h-70zM1077 -18q-140 0 -218 89.5t-58 219.5q22 129 128 218t245 89q137 0 215.5 -89.5t56.5 -217.5q-20 -130 -126 -219.5t-243 -89.5zM1083 18q53 0 104.5 79t69.5 194q20 115 -6 193.5t-80 78.5q-53 0 -104.5 -78t-71.5 -194
q-18 -115 8.5 -194t79.5 -79zM559 838q-140 0 -218 89.5t-56 219.5q21 129 126 218t244 89q138 0 216.5 -89t58.5 -218q-22 -130 -127.5 -219.5t-243.5 -89.5zM567 874q54 0 104.5 78.5t69.5 194.5t-7 194t-81 78q-54 0 -104.5 -78t-69.5 -194t7 -194.5t81 -78.5z" />
    <glyph glyph-name="ampersand" unicode="&#x26;" horiz-adv-x="1462" 
d="M555 -20q-127 1 -222 38t-145.5 114.5t-33.5 186.5q10 63 41 120t70 98t100.5 83t111 69t123.5 63q-177 223 -149 411q19 116 94.5 200t175.5 122.5t211 38.5q72 0 133.5 -19t107.5 -55t67.5 -94.5t10.5 -132.5q-10 -64 -43.5 -120.5t-88.5 -104.5t-110 -84t-132 -78
q277 -306 393 -492q43 67 59.5 153t5.5 163t-56 135t-116 69l6 41h64q50 0 84 -1t62.5 -6.5t45.5 -10.5t28.5 -19t16 -25.5t4.5 -37.5t-3 -47.5t-9 -61.5q-13 -101 -59.5 -206.5t-110.5 -186.5q101 -182 109 -303h-342q5 48 -19 119q-221 -142 -485 -139zM682 49
q101 1 191 31.5t153 81.5q-24 56 -60 117.5t-91.5 134.5t-83.5 109t-95.5 116.5t-68.5 81.5q-112 -66 -182 -152t-85 -182q-9 -69 6 -129.5t52.5 -108t105 -74.5t158.5 -26zM854 860q123 75 193.5 156t89.5 201q20 123 -36 190.5t-147 67.5q-89 0 -165 -65t-95 -179
q-26 -164 160 -371z" />
    <glyph glyph-name="quotesingle" unicode="'" horiz-adv-x="385" 
d="M266 1038l80 398h205l-225 -398h-60z" />
    <glyph glyph-name="parenleft" unicode="(" horiz-adv-x="692" 
d="M535 -256q-199 226 -284.5 436.5t-53.5 417.5q65 403 608 852h55q-289 -402 -362 -852q-70 -454 92 -854h-55z" />
    <glyph glyph-name="parenright" unicode=")" horiz-adv-x="692" 
d="M61 -256q292 406 361 854q73 449 -90 852h55q402 -456 338 -852q-31 -206 -184 -416.5t-424 -437.5h-56z" />
    <glyph glyph-name="asterisk" unicode="*" horiz-adv-x="882" 
d="M614 971q-30 0 -46 24.5t-7 55.5l88 292l-254 -202q-28 -23 -57.5 -21.5t-42.5 27.5q-12 25 2 53t45 43l268 121l-229 119q-28 15 -34 44t15 56q23 23 52 24t51 -22l190 -203l7 293q0 31 23.5 55.5t53.5 24.5q31 0 48 -24.5t8 -55.5l-88 -293l254 203q29 24 58.5 24.5
t39.5 -26.5q12 -29 -1 -57t-44 -43l-271 -119l232 -121q28 -15 32 -42.5t-16 -53.5q-21 -27 -51 -28.5t-51 22.5l-189 202l-6 -292q0 -31 -24.5 -55.5t-55.5 -24.5z" />
    <glyph glyph-name="plus" unicode="+" horiz-adv-x="1060" 
d="M547 250l67 426h-405l14 88h406l61 385h86l-61 -385h405l-14 -88h-406l-67 -426h-86z" />
    <glyph glyph-name="comma" unicode="," horiz-adv-x="403" 
d="M141 -236q58 65 72 146q4 25 -6 41.5t-27 27t-33 22.5t-25.5 36t-4.5 59q9 54 49.5 87.5t87.5 33.5q57 0 83 -38.5t17 -98.5q-13 -82 -72.5 -179.5t-117.5 -146.5z" />
    <glyph glyph-name="hyphen" unicode="-" horiz-adv-x="837" 
d="M193 563l8 62h673l-8 -62h-673z" />
    <glyph glyph-name="period" unicode="." horiz-adv-x="403" 
d="M219 -20q-50 0 -79.5 34t-20.5 86q7 49 48 84t91 35q48 0 77.5 -35t22.5 -84q-9 -51 -50 -85.5t-89 -34.5z" />
    <glyph glyph-name="slash" unicode="/" horiz-adv-x="983" 
d="M63 -240l1006 1694h82l-1006 -1694h-82z" />
    <glyph glyph-name="zero" unicode="0" horiz-adv-x="1462" 
d="M754 -20q-188 0 -322.5 91.5t-192 260.5t-22.5 387q34 217 145 385t274 259t351 91q113 0 209 -34t166 -97.5t116 -154t58.5 -203.5t-6.5 -246q-54 -331 -271 -535t-505 -204zM764 39q162 0 292 187.5t179 492.5q30 206 9.5 356.5t-89.5 235t-176 84.5
q-165 0 -290.5 -183.5t-172.5 -492.5q-31 -207 -14 -358.5t85 -236.5t177 -85z" />
    <glyph glyph-name="one" unicode="1" horiz-adv-x="753" 
d="M291 0l196 1237l-184 -135l12 78l349 274h147l-229 -1454h-291z" />
    <glyph glyph-name="two" unicode="2" horiz-adv-x="1114" 
d="M109 14q750 520 825 1000q14 88 -1.5 157.5t-53.5 112t-91 64.5t-116 22q-81 0 -157 -35.5t-134 -111t-74 -176.5h-37q15 99 67 179t126 129t161 75t177 26q92 0 173 -28t142.5 -79.5t90 -135.5t12.5 -187q-10 -66 -45 -136t-82 -131.5t-117 -129.5t-135 -122
t-153.5 -117.5t-154 -107.5t-153.5 -100h352q78 0 120.5 0.5t82 5.5t55 8.5t35 18t26.5 25.5t25 39h39q-14 -25 -39 -69q-22 -40 -31.5 -57.5t-28.5 -44.5t-25 -36.5t-26.5 -26t-27.5 -20t-34.5 -11.5t-40.5 -8.5t-52 -3.5t-63 -2.5t-79 0.5h-14h-547z" />
    <glyph glyph-name="three" unicode="3" horiz-adv-x="1173" 
d="M571 -20q-180 0 -288 79.5t-127 223.5h34q13 -65 46.5 -114t79 -76t94.5 -40.5t100 -13.5q173 0 289 116.5t143 278.5q23 149 -48 254t-222 105h-45l426 444h-336h-94t-71 -2.5t-53.5 -3.5t-38 -7.5t-28.5 -11t-20.5 -18t-19.5 -23t-19 -30.5h-37q84 168 106 202
q40 61 93 77q45 15 188 14h78h510l-578 -598q83 4 152.5 -6.5t118.5 -31.5t87.5 -51.5t60 -66.5t35.5 -76.5t14 -82.5t-5 -83q-32 -203 -208.5 -330.5t-416.5 -127.5z" />
    <glyph glyph-name="four" unicode="4" horiz-adv-x="1179" 
d="M711 0l65 410h-608l899 1044h170l-135 -856h166l-86 -188h-109l-65 -410h-297zM410 598h395l90 571z" />
    <glyph glyph-name="five" unicode="5" horiz-adv-x="1200" 
d="M584 -20q-181 0 -289 80t-125 223h33q18 -86 70 -142.5t117 -79t142 -22.5q87 0 162 34t127.5 92t87 132t47.5 158q32 200 -48 313t-244 113q-89 0 -180.5 -38.5t-202.5 -119.5l204 711h521h120.5t80.5 5t54.5 8t33.5 18t27 26.5t26 40.5h38q-10 -20 -28 -55
q-69 -138 -98 -173q-39 -48 -105 -59q-42 -7 -181 -6h-52h-435l-118 -401q184 120 399 120q143 2 255.5 -53.5t171 -164t36.5 -248.5q-25 -159 -122 -277t-233.5 -176.5t-291.5 -58.5z" />
    <glyph glyph-name="six" unicode="6" horiz-adv-x="1210" 
d="M635 -20q-155 0 -265.5 87t-154 235t-12.5 327q26 147 88.5 276t150.5 226t196 169t228 111t244 45l-6 -29q-148 -15 -269.5 -108.5t-202 -235t-130.5 -325.5q74 105 173.5 159t201.5 54q83 0 156 -34.5t126 -96.5t75 -156.5t3 -204.5q-18 -101 -71.5 -192.5t-131.5 -159
t-182.5 -107.5t-216.5 -40zM647 29q124 0 210 117.5t120 322.5q35 202 -21.5 314t-164.5 112q-79 0 -164 -63t-152 -181l-6 -49q-27 -169 -17 -296t61 -202t134 -75z" />
    <glyph glyph-name="seven" unicode="7" horiz-adv-x="1044" 
d="M285 0l747 1237h-430h-120.5t-80.5 -5t-55.5 -8t-34 -17.5t-26.5 -26t-25 -39.5h-39q8 17 24 47q70 143 99 179q40 49 105 60q42 8 180 7h57h539l-867 -1434h-73z" />
    <glyph glyph-name="eight" unicode="8" horiz-adv-x="1191" 
d="M602 -18q-138 0 -245.5 38.5t-164 114t-40.5 174.5q39 242 376 434q-100 95 -149 182.5t-33 190.5q13 82 62.5 148t120.5 106.5t152.5 62t164.5 21.5q170 0 278 -82t86 -215q-13 -95 -94.5 -189t-214.5 -171q138 -110 189 -165q132 -140 108 -288v-2
q-13 -87 -70.5 -157.5t-142 -113.5t-183 -66t-200.5 -23zM553 49q86 -1 166.5 24.5t139.5 80.5t71 129q6 35 -7.5 73t-36 69t-64 71t-75.5 67.5t-89 72t-87 71.5q-129 -61 -231 -167.5t-117 -207.5q-21 -128 74.5 -205.5t255.5 -77.5zM858 827q261 148 287 316
q18 109 -55.5 176t-186.5 67q-102 0 -187.5 -57.5t-103.5 -161.5q-5 -32 0.5 -62t25.5 -61.5t36.5 -53.5t55.5 -56.5t59.5 -51.5t68.5 -55z" />
    <glyph glyph-name="nine" unicode="9" horiz-adv-x="1210" 
d="M385 6q220 24 374 206t230 466q-72 -106 -171.5 -160.5t-203.5 -54.5q-82 0 -155 34.5t-126 96t-75.5 156t-3.5 204.5q23 137 107.5 251t215.5 182.5t281 68.5q156 0 266.5 -84t154.5 -229.5t11 -323.5q-32 -183 -121 -338.5t-212 -261.5t-272 -168.5t-304 -70.5z
M702 541q79 0 163 62.5t151 180.5l6 50q28 168 18 295.5t-62 202.5t-136 75q-122 0 -208 -118t-120 -322q-35 -202 22 -314t166 -112z" />
    <glyph glyph-name="colon" unicode=":" horiz-adv-x="403" 
d="M350 805q-50 0 -79 35.5t-21 85.5q7 52 47 85t92 33q50 0 78.5 -33t21.5 -85q-8 -50 -49 -85.5t-90 -35.5zM219 -23q-51 0 -80 35t-20 86q8 50 48 84.5t91 34.5q49 0 78.5 -34.5t21.5 -84.5q-9 -51 -49 -86t-90 -35z" />
    <glyph glyph-name="semicolon" unicode=";" horiz-adv-x="403" 
d="M141 -236q58 65 72 146q4 25 -6 41.5t-27 27t-33 22.5t-25.5 36t-4.5 59q9 54 49.5 87.5t87.5 33.5q57 0 83 -38.5t17 -98.5q-13 -82 -72.5 -179.5t-117.5 -146.5zM350 805q-50 0 -79 35.5t-21 85.5q7 52 47 85t92 33q50 0 78.5 -33t21.5 -85q-8 -50 -49 -85.5t-90 -35.5
z" />
    <glyph glyph-name="less" unicode="&#x3c;" horiz-adv-x="1071" 
d="M1055 291l-834 457l979 458l-16 -102l-772 -356l659 -357z" />
    <glyph glyph-name="equal" unicode="=" horiz-adv-x="1060" 
d="M233 821l13 86h897l-13 -86h-897zM188 549l15 86h897l-15 -86h-897z" />
    <glyph glyph-name="greater" unicode="&#x3e;" horiz-adv-x="1071" 
d="M147 291l17 100l774 357l-662 356l17 102l835 -458z" />
    <glyph glyph-name="question" unicode="?" horiz-adv-x="954" 
d="M471 322q11 92 47 180t80.5 159.5t89 141t81.5 151.5t50 164q21 127 -34.5 194.5t-155.5 67.5q-63 0 -125 -28.5t-112 -89.5t-64 -142h-47q13 82 57 147.5t106.5 106t134.5 61.5t148 21t142.5 -22.5t116 -64.5t73 -108t10.5 -147q-11 -69 -45.5 -136t-81.5 -121
t-102 -107t-109.5 -104t-101 -101t-79.5 -107.5t-42 -115.5h-37zM436 -20q-53 0 -81 34t-19 86q8 50 47.5 84.5t91.5 34.5q49 0 78.5 -34.5t21.5 -84.5q-9 -52 -49 -86t-90 -34z" />
    <glyph glyph-name="at" unicode="@" horiz-adv-x="1853" 
d="M952 -379q-109 0 -206 19.5t-174 54.5t-143 84.5t-111.5 110.5t-80.5 130.5t-50 145.5t-19.5 156t10.5 161q22 135 79 264.5t150.5 244t212 201t273 137t324.5 50.5q122 0 232 -29t201.5 -91t153.5 -150t86 -214t0 -275q-18 -113 -71.5 -228t-129.5 -208.5t-176.5 -152.5
t-201.5 -59q-102 0 -163 58t-61 151q-60 -82 -127.5 -131t-132.5 -49q-125 0 -179.5 100.5t-29.5 264.5q14 83 47 168.5t84.5 165t114.5 141.5t143 99.5t164 37.5q96 0 158 -84l33 78h197q-30 -76 -111.5 -267.5t-139.5 -335t-65 -184.5q-20 -127 117 -127q72 0 147 49
t135.5 127.5t105.5 178t60 198.5q23 141 2.5 252t-73.5 193t-135 136t-181 80.5t-211 26.5q-130 0 -250.5 -32t-217.5 -89t-179.5 -134.5t-142 -168.5t-98.5 -190.5t-56 -202.5q-11 -84 -9 -166t26.5 -159t62 -145t97.5 -124.5t133.5 -97.5t170.5 -63.5t207 -22.5
q381 0 588 184h111q-122 -126 -309.5 -197t-391.5 -71zM846 80q50 0 115.5 74.5t126 184.5t112.5 239l86 213q-6 47 -36 83.5t-66 36.5q-73 0 -157.5 -105.5t-147 -257.5t-84.5 -294q-13 -83 1 -128.5t50 -45.5z" />
    <glyph glyph-name="A" unicode="A" horiz-adv-x="1486" 
d="M786 1294q-26 47 -60.5 72t-90.5 25l6 43h182q141 0 217.5 -54.5t102.5 -181.5l254 -1198h-316l-98 457h-582l-245 -457h-68zM434 516h537l-125 584q-19 92 -29 127z" />
    <glyph glyph-name="B" unicode="B" horiz-adv-x="1517" 
d="M530 0q-166 0 -241.5 38.5t-84.5 119t11 204.5l129 812q33 217 -106 217l6 43h659q297 0 426.5 -96t102.5 -265q-15 -100 -83 -180t-180 -127q161 -37 229 -132t46 -235q-30 -188 -193.5 -293.5t-462.5 -105.5h-258zM733 59q175 0 286.5 94.5t137.5 245.5
q26 155 -54 239.5t-255 84.5h-281l-78 -485q-14 -99 14.5 -139t125.5 -40h104zM739 782q176 0 280 77.5t126 213.5q23 137 -59 219t-263 82h-215q34 -33 36.5 -103.5t-13.5 -140.5l-53 -348h161z" />
    <glyph glyph-name="C" unicode="C" horiz-adv-x="1587" 
d="M897 -20q-119 1 -226 31.5t-194 91t-145.5 149.5t-80.5 206t1 261q28 174 113.5 316t206.5 232.5t265 139t296 49.5q95 1 176 -15.5t154 -53t128.5 -101t87.5 -153.5h-63q-34 90 -107 150.5t-152.5 84t-160.5 21.5q-245 -3 -417.5 -181.5t-221.5 -488.5
q-50 -310 66 -488.5t362 -183.5q79 -1 165.5 22.5t179 84t153.5 149.5h63q-214 -323 -649 -323z" />
    <glyph glyph-name="D" unicode="D" horiz-adv-x="1613" 
d="M530 0q-126 0 -198.5 21.5t-101.5 65.5t-31 110.5t14 156.5l131 820q33 217 -106 217l6 43h653q107 0 199.5 -16t163 -45.5t128 -71t95.5 -92t66 -109t38 -121.5t12.5 -130t-10.5 -134q-17 -110 -60.5 -211.5t-120.5 -194t-179.5 -160.5t-246 -108.5t-312.5 -40.5h-140z
M672 59q112 2 207.5 41.5t162.5 102t118.5 149t81.5 177t46 190.5q13 84 13.5 160.5t-11.5 152t-44 136t-80.5 107.5t-124.5 73t-173 26h-260q34 -33 36.5 -103.5t-13.5 -140.5l-142 -892q-14 -99 14.5 -139t125.5 -40h43z" />
    <glyph glyph-name="E" unicode="E" horiz-adv-x="1361" 
d="M530 0q-166 0 -241.5 38.5t-84.5 119t11 204.5l131 826q30 203 -123 203l6 43h791q182 0 212 -4q58 -7 78 -42q15 -26 36 -132q7 -38 12 -62h-66q-5 20 -12 53q-18 77 -33 96q-20 26 -86 30q-28 1 -111 1h-38h-408q37 -37 39 -111t-14 -151l-54 -342h588l-10 -59h-588
l-76 -473q-14 -98 18 -138.5t134 -40.5h213q162 0 195 6q53 9 86 50q16 21 81 136q11 19 21 36h63q-14 -25 -37 -70q-69 -127 -97 -159q-38 -44 -104 -53q-39 -6 -163 -5h-63h-306z" />
    <glyph glyph-name="F" unicode="F" horiz-adv-x="1280" 
d="M346 1188q30 203 -123 203l6 43h805h58q175 1 208 -21.5t58 -156.5q8 -39 12 -62h-65q-4 18 -11 49q-22 99 -50.5 115t-179.5 16h-38h-422q38 -35 40.5 -104t-13.5 -142q-1 -11 -2 -16l-54 -342h562l-11 -59h-561l-112 -711h-295z" />
    <glyph glyph-name="G" unicode="G" horiz-adv-x="1693" 
d="M897 -20q-119 1 -226 31.5t-194 91t-145.5 149.5t-80.5 206t1 261q28 174 113.5 316t206.5 232.5t265 139t296 49.5q95 1 176 -15.5t154 -53t128.5 -101t87.5 -153.5h-63q-34 90 -107 150.5t-152.5 84t-160.5 21.5q-245 -3 -417.5 -181.5t-221.5 -488.5q-51 -312 65 -493
t361 -183q164 -3 297 80l61 399q36 203 -120 203l6 43h131q50 0 89.5 -4.5t69.5 -11.5t52 -20.5t36.5 -27.5t22.5 -37t11 -44t1.5 -53t-4.5 -59.5t-10 -68.5l-20 -127q-115 -170 -305 -252.5t-404 -82.5z" />
    <glyph glyph-name="H" unicode="H" horiz-adv-x="1505" 
d="M346 1188q30 203 -123 203l6 43h136q64 0 110.5 -7.5t78.5 -19t51 -34.5t28.5 -45.5t10 -61.5t-3 -72t-11.5 -86l-54 -332h599l104 658h299l-227 -1434h-299l112 715h-598l-112 -715h-295z" />
    <glyph glyph-name="I" unicode="I" horiz-adv-x="612" 
d="M346 1188q30 203 -123 203l6 43h136q64 0 110.5 -7.5t78.5 -19t51 -34.5t28.5 -45.5t10 -61.5t-3 -72t-11.5 -86l-176 -1108h-295z" />
    <glyph glyph-name="J" unicode="J" horiz-adv-x="1247" 
d="M510 -20q-119 0 -214 35.5t-153 112.5t-53 185h55q-7 -124 91.5 -196t246.5 -72q72 0 134.5 23t116 69.5t92 125t55.5 183.5l116 742q30 203 -123 203l7 43h133q110 0 172.5 -20.5t85 -61.5t23 -102t-14.5 -142l-98 -614q-17 -108 -66 -196t-115.5 -146.5t-150.5 -98
t-168.5 -56.5t-171.5 -17z" />
    <glyph glyph-name="K" unicode="K" horiz-adv-x="1529" 
d="M1446 -10q-43 -6 -71.5 -8.5t-79 -6.5t-87.5 -1t-78 9.5t-71.5 23t-48.5 40.5q-32 40 -43 107t-11 172.5t-4 148.5q-4 37 -10.5 63t-20.5 56.5t-39.5 51t-64 38.5t-97.5 26t-136 7l897 717h86l-797 -633q125 15 218 -1.5t147.5 -59.5t82.5 -99t35 -129q5 -58 7.5 -150.5
t8 -150.5t21.5 -102q20 -49 55 -65.5t109 -10.5zM346 1188q30 203 -123 203l6 43h136q64 0 110.5 -7.5t78.5 -19t51 -34.5t28.5 -45.5t10 -61.5t-3 -72t-11.5 -86l-176 -1108h-295z" />
    <glyph glyph-name="L" unicode="L" horiz-adv-x="1280" 
d="M530 0q-166 0 -241.5 38.5t-84.5 119t11 204.5l131 826q30 203 -123 203l6 43h136q64 0 110.5 -7.5t78.5 -19t51 -34.5t28.5 -45.5t10 -61.5t-3 -72t-11.5 -86l-140 -870q-14 -98 18 -138.5t134 -40.5h203h70.5t53 3.5t41.5 4.5t31 13t27 18.5t23.5 29.5t26 38.5
t29.5 53.5q24 42 38 67h65q-14 -26 -39 -71q-88 -163 -133 -190t-230 -26h-63h-254z" />
    <glyph glyph-name="M" unicode="M" horiz-adv-x="1925" 
d="M844 -35l-434 1245l-193 -1210h-59l209 1319q-52 72 -144 72l6 43h168q44 0 63.5 -0.5t53.5 -3t49.5 -6.5t40 -11t37 -18t28.5 -27t27 -38t21 -50l313 -901l668 1055h297l-228 -1434h-297l205 1288z" />
    <glyph glyph-name="N" unicode="N" horiz-adv-x="1447" 
d="M367 1315q-52 76 -144 76l6 43h162q53 0 85 -1.5t68.5 -6.5t59 -15t47 -27t43 -42.5t35.5 -61.5l539 -1055l192 1209h60l-209 -1313q51 -78 141 -78l-6 -43h-162q-63 0 -99.5 2t-76.5 10.5t-65.5 25t-50.5 45t-46 71.5l-536 1056l-193 -1210h-59z" />
    <glyph glyph-name="O" unicode="O" horiz-adv-x="1812" 
d="M903 -20q-133 0 -246 34t-196.5 97.5t-139 154.5t-72.5 205t3 248q34 219 160 387t314.5 258t410.5 90q167 0 301 -52.5t220.5 -147.5t122 -232.5t9.5 -302.5q-54 -332 -301 -535.5t-586 -203.5zM918 39q228 0 373 176.5t198 503.5q52 326 -37.5 501t-318.5 175
q-231 0 -377.5 -175t-198.5 -501q-53 -326 38.5 -503t322.5 -177z" />
    <glyph glyph-name="P" unicode="P" horiz-adv-x="1439" 
d="M346 1188q30 203 -123 203l6 43h738q109 0 196 -13t146 -37.5t100.5 -58.5t60.5 -76.5t25.5 -92t-4.5 -103.5q-12 -81 -52 -147t-113.5 -120.5t-196 -85t-283.5 -30.5h-287l-106 -670h-295zM791 729q177 0 273.5 86.5t119.5 237.5q25 149 -44.5 235t-246.5 86h-289
q37 -37 39 -111t-14 -151l-62 -383h224z" />
    <glyph glyph-name="Q" unicode="Q" horiz-adv-x="1867" 
d="M930 -20q-171 0 -310 53t-229 148.5t-128 234.5t-11 303q34 219 163 387t323.5 258t424.5 90q172 0 311.5 -52.5t230 -147t128.5 -232.5t12 -303q-35 -219 -164.5 -388t-325 -260t-425.5 -91zM1423 -567q-82 0 -182 34.5t-193 84t-185 99t-184 84t-163 34.5
q-88 0 -150 -33.5t-116 -134.5h-21q81 189 180.5 269.5t221.5 80.5q79 0 177.5 -32.5t192 -79t186 -93t187 -79t168.5 -32.5q192 0 301 211h21q-92 -211 -205 -312t-236 -101zM946 39q225 0 385.5 180t212.5 500q50 319 -54 497.5t-329 178.5q-229 0 -391.5 -178.5
t-212.5 -497.5q-52 -319 54.5 -499.5t334.5 -180.5z" />
    <glyph glyph-name="R" unicode="R" horiz-adv-x="1509" 
d="M1462 -10q-68 -9 -121.5 -12.5t-123.5 -2t-124.5 19t-86.5 50.5q-43 43 -63 113t-24.5 142.5t-12 144.5t-35.5 133t-83 92h-229l-106 -670h-295l188 1188q30 203 -123 203l6 43h693q163 0 275.5 -28.5t169 -81.5t75 -119.5t4.5 -151.5q-20 -134 -115.5 -231.5
t-277.5 -133.5q65 -14 105 -62t56 -116t24.5 -137.5t21.5 -146.5t36 -124q23 -42 63 -57t111 -10zM754 729q176 0 270 86t117 238q25 150 -42 235.5t-243 85.5h-252q37 -37 39 -111t-14 -151l-62 -383h187z" />
    <glyph glyph-name="S" unicode="S" horiz-adv-x="1390" 
d="M676 -20q-95 0 -179.5 21t-152.5 61t-110 105.5t-48 147.5h60q7 -84 71 -146.5t155.5 -92t195.5 -29.5q91 0 169.5 26t136 83.5t70.5 138.5q8 51 -13.5 94t-64.5 74.5t-101 59.5t-122 55t-128.5 56t-120.5 67t-97 82.5t-59 108.5t-6 140q16 98 73.5 179.5t140.5 133.5
t181 80.5t197 28.5q85 0 161 -20t137.5 -58t100.5 -101t45 -142h-59q-8 82 -63.5 142.5t-134 88t-167.5 27.5q-127 0 -224 -62.5t-116 -177.5q-8 -55 13.5 -99.5t64.5 -77t101 -61t123 -55t129.5 -54.5t121.5 -65t98 -80.5t59.5 -106t6.5 -138.5q-22 -134 -123 -235
t-238 -150t-284 -49z" />
    <glyph glyph-name="T" unicode="T" horiz-adv-x="1443" 
d="M571 0l217 1374h-139h-36q-45 0 -63.5 0.5t-47.5 -2.5t-37 -3.5t-27 -10t-23 -13.5t-18.5 -23.5t-20 -29.5t-22.5 -41q-20 -36 -32 -57h-66q12 23 33 63q53 105 77 131q34 37 102 43q35 4 145 3h59h555h58q175 1 208 -21.5t58 -156.5q8 -39 12 -62h-66q-5 19 -12 52
q-21 96 -48.5 112t-173.5 16h-36h-142l-217 -1374h-297z" />
    <glyph glyph-name="U" unicode="U" horiz-adv-x="1472" 
d="M766 -23q-80 0 -151 13t-137 41t-114 73t-82.5 109t-42 149t6.5 193l100 633q30 203 -123 203l6 43h136q64 0 110.5 -7.5t78.5 -19t51 -34.5t28.5 -45.5t10 -61.5t-3 -72t-11.5 -86l-92 -576q-19 -108 -9.5 -189t34.5 -136.5t70 -90t97.5 -49.5t116.5 -14q93 -1 173.5 31
t146.5 95.5t112.5 164t67.5 231.5l135 859h63l-133 -842q-50 -312 -216.5 -463.5t-428.5 -151.5z" />
    <glyph glyph-name="V" unicode="V" horiz-adv-x="1492" 
d="M905 0q-137 0 -204 52t-95 179l-200 918q-9 40 -17.5 69t-24 64t-34 57t-48 37t-65.5 15l6 43h197q136 0 199 -52t90 -180l204 -936l652 1168h67l-696 -1244q58 -147 192 -147l-6 -43h-217z" />
    <glyph glyph-name="W" unicode="W" horiz-adv-x="2263" 
d="M860 0q-139 0 -207.5 52.5t-91.5 180.5l-170 916q-9 52 -19 87t-29 74.5t-50.5 60t-75.5 20.5l6 43h195q136 0 195 -51t83 -181l174 -950l433 940q-10 44 -21 75t-29.5 62t-47.5 46.5t-68 15.5l6 43h194q136 0 194.5 -51t82.5 -181l178 -952l545 1184h65l-585 -1264
q27 -64 71 -94.5t115 -30.5l-6 -45h-217q-138 0 -206 52.5t-91 180.5l-162 859l-426 -922q25 -64 70 -94.5t118 -30.5l-6 -45h-217z" />
    <glyph glyph-name="X" unicode="X" horiz-adv-x="1478" 
d="M143 0l578 623l-238 544q-19 48 -34 77.5t-41.5 68.5t-61 58.5t-76.5 19.5l6 43h246q54 0 95 -10t68 -26t50.5 -47.5t38.5 -61.5t35 -81l152 -340l524 566h78l-578 -621l236 -551q13 -29 19 -42t20.5 -41t25 -42.5t28.5 -35.5t35 -31.5t39.5 -18.5t47.5 -8l-6 -43h-248
q-67 0 -112.5 13t-78 45.5t-52 68t-44.5 98.5l-150 340l-524 -565h-78z" />
    <glyph glyph-name="Y" unicode="Y" horiz-adv-x="1443" 
d="M571 0l97 602l-236 561q-4 10 -18 42t-20.5 46t-21.5 41t-28 40.5t-32 29.5t-41.5 22.5t-49.5 6.5l6 43h256q52 0 90 -9t62.5 -24t44.5 -42.5t34 -57.5t33 -74q3 -9 5 -13l194 -473l555 693h74l-600 -752l-109 -682h-295z" />
    <glyph glyph-name="Z" unicode="Z" horiz-adv-x="1478" 
d="M158 0l1007 1374h-456h-37q-61 0 -84.5 1.5t-58 -7.5t-40.5 -8t-29.5 -25.5t-26.5 -33.5t-30 -57q-18 -31 -28 -50h-66q12 23 32 62q28 55 38.5 76.5t36 48.5t33.5 32.5t50.5 13.5t66 7.5t99.5 -0.5h58h825l-1009 -1375h428q162 0 194 5q54 9 87 51q17 22 82 140
q14 25 26 46h65q-15 -28 -41 -77q-89 -169 -135 -197t-233 -27h-64h-790z" />
    <glyph glyph-name="bracketleft" unicode="[" horiz-adv-x="608" 
d="M61 -256l271 1706h444l-8 -53h-178l-254 -1600h178l-8 -53h-445z" />
    <glyph glyph-name="backslash" unicode="\" horiz-adv-x="884" 
d="M698 -240l-366 1694h86l366 -1694h-86z" />
    <glyph glyph-name="bracketright" unicode="]" horiz-adv-x="608" 
d="M61 -256l9 53h176l254 1600h-176l8 53h444l-270 -1706h-445z" />
    <glyph glyph-name="asciicircum" unicode="^" horiz-adv-x="675" 
d="M285 1157l350 594l162 -594h-107l-74 455l-227 -455h-104z" />
    <glyph glyph-name="underscore" unicode="_" horiz-adv-x="1144" 
d="M86 -102l10 61h981l-10 -61h-981z" />
    <glyph glyph-name="grave" unicode="`" horiz-adv-x="532" 
d="M379 1409q-45 55 -4 108q32 42 87 47q63 6 87 -48q4 -9 6 -19l86 -377h-20z" />
    <glyph glyph-name="a" unicode="a" horiz-adv-x="1280" 
d="M442 -20q-97 0 -173 32t-115.5 94t-26.5 142q10 63 44.5 110t83.5 73.5t112 45t128 26.5t132.5 16.5t124.5 16t105.5 24t74.5 40.5q10 72 8.5 127.5t-18 96.5t-40 69t-58 44.5t-71 24t-79.5 7.5q-92 0 -175 -33t-139 -94h-55q70 94 205 148t291 54q97 0 179 -25.5
t144.5 -76t90.5 -136.5t10 -198l-58 -362q-4 -29 -5.5 -52t2.5 -53t16 -50t38.5 -34t65.5 -14l-6 -43h-127q-148 0 -208 35t-66 121q-185 -176 -435 -176zM575 76q73 0 151.5 36t145.5 103l50 317q-34 -22 -98 -37t-125 -26.5t-121.5 -31.5t-102.5 -63.5t-53 -109.5
q-13 -91 30.5 -139.5t122.5 -48.5z" />
    <glyph glyph-name="b" unicode="b" horiz-adv-x="1390" 
d="M811 -20q-111 0 -196.5 49t-127.5 133l-26 -162h-277l197 1241q30 203 -125 205l6 43h135q55 0 97.5 -4.5t73 -16t51.5 -25t32.5 -37t17 -45t4.5 -56.5t-4.5 -65t-11.5 -77l-45 -282q68 75 166.5 119t202.5 44q135 0 234.5 -62.5t146.5 -185t22 -284.5
q-39 -243 -202 -387.5t-371 -144.5zM733 66q87 0 161.5 62.5t121.5 162.5t67 221q16 87 8.5 167.5t-31 142t-72 98t-114.5 36.5q-88 0 -163.5 -61t-122.5 -170l-68 -426q12 -106 69.5 -169.5t143.5 -63.5z" />
    <glyph glyph-name="c" unicode="c" horiz-adv-x="1173" 
d="M659 -20q-254 -2 -390.5 144.5t-98.5 387.5t221.5 387.5t437.5 144.5q291 0 390 -204h-58q-41 74 -114 108t-158 31q-159 -3 -270 -131.5t-144 -335.5t37.5 -335.5t226.5 -131.5q85 -3 169.5 31t148.5 108h57q-162 -204 -455 -204z" />
    <glyph glyph-name="d" unicode="d" horiz-adv-x="1325" 
d="M571 -20q-204 0 -321.5 145t-79.5 387q19 122 74 223.5t132.5 168.5t171.5 103.5t193 36.5q105 0 189 -43.5t127 -119.5l57 360q30 203 -123 205l6 43h136q55 0 97.5 -4.5t73 -16t51.5 -25t32.5 -37t17 -45t4.5 -56.5t-4.5 -65t-11.5 -77l-185 -1163h-276l26 162
q-71 -84 -173.5 -133t-213.5 -49zM678 66q87 0 164 63t123 170l67 426q-12 109 -68.5 170t-144.5 61q-87 0 -161 -63t-121 -162.5t-66 -218.5q-17 -89 -9.5 -170t31 -142.5t71.5 -97.5t114 -36z" />
    <glyph glyph-name="e" unicode="e" horiz-adv-x="1284" 
d="M676 -20q-265 0 -405 145t-101 387q38 243 222.5 388.5t441.5 143.5q108 1 196 -27t151 -83t92 -144t15 -204h-799q-11 -34 -14 -74q-34 -212 46.5 -333.5t262.5 -127.5q115 -3 220.5 50.5t156.5 140.5h62q-86 -125 -226.5 -193.5t-320.5 -68.5zM1010 643
q14 155 -34.5 249.5t-152.5 94.5q-112 0 -198.5 -106t-130.5 -273z" />
    <glyph glyph-name="f" unicode="f" horiz-adv-x="673" 
d="M129 0l152 963h-136l11 61h135l8 45q71 450 635 418l-6 -41q-57 0 -101 -9t-76 -22t-56.5 -39.5t-39.5 -51.5t-28 -69t-20 -80.5t-17 -97.5l-8 -53h239l-10 -61h-240l-151 -963h-291z" />
    <glyph glyph-name="g" unicode="g" horiz-adv-x="1271" 
d="M532 -559q-252 0 -385.5 79.5t-109.5 233.5q14 92 98.5 155.5t214.5 96.5h68q-142 -86 -164 -239q-20 -125 53 -205t232 -80q149 0 257.5 76t129.5 206q10 62 -8.5 109.5t-56.5 76t-89.5 49.5t-107 35.5t-109 29.5t-96.5 35t-68.5 48t-25 73t33.5 106
q-108 46 -157.5 132.5t-30.5 203.5q28 176 184.5 279t388.5 103l37 -2q54 128 162.5 217t233.5 89q84 0 121.5 -40t29.5 -98q-8 -51 -50.5 -90t-100.5 -39q-53 0 -84 38t-23 85q6 38 34 67.5t66 45.5q-105 -1 -199.5 -80.5t-136.5 -196.5q191 -20 288.5 -120.5t72.5 -257.5
q-28 -178 -182.5 -281t-390.5 -105q-81 0 -127.5 8t-94.5 27q-24 -47 -17 -82.5t37.5 -55t79 -35.5t107.5 -24t122.5 -20t125 -23.5t115 -35.5t91.5 -55.5t55.5 -82.5t6.5 -118q-25 -153 -197 -245.5t-434 -92.5zM668 319q114 0 186 97t96 246q13 68 7.5 129t-24 108
t-59 74.5t-98.5 27.5q-113 0 -184.5 -96t-95.5 -243q-12 -94 -3.5 -170t54 -124.5t121.5 -48.5z" />
    <glyph glyph-name="h" unicode="h" horiz-adv-x="1341" 
d="M381 1241q30 203 -125 205l6 43h135q55 0 97.5 -4.5t73 -16t51.5 -25t32.5 -37t17 -45t4.5 -56.5t-4.5 -65t-11.5 -77l-43 -276q189 157 416 157q164 0 248 -87.5t55 -276.5l-108 -680h-289l100 639q13 89 15 158.5t-33.5 112t-112.5 42.5q-75 0 -156.5 -34.5
t-146.5 -98.5l-129 -819h-289z" />
    <glyph glyph-name="i" unicode="i" horiz-adv-x="583" 
d="M307 778q30 203 -125 203l6 43h136q63 0 109.5 -7t78 -18.5t50.5 -34.5t28 -45t9.5 -61t-3 -72.5t-12.5 -87.5l-111 -698h-289zM471 1155q-70 0 -111 48.5t-30 117.5q10 69 66.5 116.5t127.5 47.5q68 0 109 -47.5t31 -116.5q-10 -68 -67.5 -117t-125.5 -49z" />
    <glyph glyph-name="j" unicode="j" horiz-adv-x="581" 
d="M-229 -569q96 8 165.5 40.5t114 88.5t69.5 123.5t40 158.5l147 936q30 203 -121 203l7 43h133q63 0 109.5 -7t78 -18.5t50.5 -34.5t28 -45t9.5 -61t-3 -72.5t-12.5 -87.5l-125 -794q-20 -125 -84 -221.5t-158.5 -155.5t-208.5 -88.5t-243 -30.5zM473 1155
q-69 0 -110 48.5t-31 117.5t67.5 116.5t126.5 47.5t109 -47.5t29 -116.5t-66.5 -117.5t-124.5 -48.5z" />
    <glyph glyph-name="k" unicode="k" horiz-adv-x="1327" 
d="M1083 -20q-167 0 -221 88q-24 33 -40.5 97.5t-29 126t-34 120.5t-66.5 94.5t-114 34.5l725 483h100l-637 -426q82 7 142 -13t92.5 -55t56.5 -89t35 -104t28.5 -112t36.5 -102q19 -48 50 -68t77 -22l-6 -37q-8 -1 -55 -6.5t-78 -8t-62 -1.5zM381 1241q30 203 -125 205
l6 43h135q55 0 97.5 -4.5t73 -16t51.5 -25t32.5 -37t17 -45t4.5 -56.5t-4.5 -65t-11.5 -77l-184 -1163h-289z" />
    <glyph glyph-name="l" unicode="l" horiz-adv-x="782" 
d="M475 -20q-296 0 -242 335l148 926q30 203 -125 205l6 43h135q55 0 97.5 -4.5t73 -16t51.5 -25t32.5 -37t17 -45t4.5 -56.5t-4.5 -65t-11.5 -77l-147 -925q-7 -55 -7 -96t23 -65t72 -26q35 -3 83.5 12.5t84.5 40.5l-6 -43q-109 -81 -285 -81z" />
    <glyph glyph-name="m" unicode="m" horiz-adv-x="1923" 
d="M307 778q30 203 -125 203l6 43h136q139 0 199 -32t69 -111q97 85 185 124t186 39q237 0 280 -180q186 180 385 180q161 0 238.5 -87t48.5 -277l-109 -680h-290l100 639q8 51 12.5 85t6 74t-5 65.5t-19.5 48t-38.5 32t-62.5 8.5q-120 0 -254 -143q5 -45 -6 -129l-108 -680
h-291l100 639q8 50 12.5 84.5t6 74.5t-5.5 65.5t-20 48t-38 32t-61 8.5q-110 0 -240 -127l-131 -825h-289z" />
    <glyph glyph-name="n" unicode="n" horiz-adv-x="1341" 
d="M307 778q30 203 -125 203l6 43h136q145 0 204.5 -34t65.5 -120q201 174 436 174q164 0 248 -87.5t55 -276.5l-108 -680h-289l100 639q13 89 15 158.5t-33.5 112t-112.5 42.5q-75 0 -156.5 -34.5t-146.5 -98.5l-129 -819h-289z" />
    <glyph glyph-name="o" unicode="o" horiz-adv-x="1363" 
d="M678 -20q-266 0 -406.5 143t-101.5 389q25 163 120 284.5t239 184.5t319 63q266 0 407 -143t103 -389q-26 -163 -121 -284.5t-239.5 -184.5t-319.5 -63zM688 39q73 0 136 38t108 104.5t76 150t47 180.5q17 94 11 180t-29.5 151t-74.5 103.5t-124 38.5t-135.5 -38
t-107 -104.5t-75 -150t-45.5 -180.5q-18 -94 -12.5 -180t28 -151t73.5 -103.5t124 -38.5z" />
    <glyph glyph-name="p" unicode="p" horiz-adv-x="1390" 
d="M307 778q30 203 -125 203l6 43h136q149 0 208.5 -36.5t65.5 -125.5q74 93 177.5 137.5t205.5 44.5q135 0 234.5 -62.5t146.5 -185t22 -284.5q-39 -243 -202 -387.5t-371 -144.5q-102 0 -186 44.5t-129 118.5l-113 -716h-289zM733 66q87 0 161.5 62.5t121.5 162.5t67 221
q16 87 8.5 167.5t-31 142t-72 98t-114.5 36.5q-88 0 -163.5 -61t-122.5 -170l-68 -426q12 -106 69.5 -169.5t143.5 -63.5z" />
    <glyph glyph-name="q" unicode="q" horiz-adv-x="1325" 
d="M940 143q-67 -74 -166 -118.5t-203 -44.5q-100 0 -182.5 36.5t-138 103.5t-77.5 168.5t-3 223.5q25 162 111 285t206 185t254 62q111 0 198 -48t130 -134l25 162h276l-252 -1597h-291zM678 66q87 0 164 63t123 170l67 426q-12 109 -68.5 170t-144.5 61q-87 0 -161 -63
t-121 -162.5t-66 -218.5q-17 -89 -9.5 -170t31 -142.5t71.5 -97.5t114 -36z" />
    <glyph glyph-name="r" unicode="r" horiz-adv-x="962" 
d="M307 778q30 203 -125 203l6 43h136q143 0 203 -33.5t67 -118.5q185 185 473 170l-33 -202q-103 50 -146 63q-170 49 -286 -88l-129 -815h-289z" />
    <glyph glyph-name="s" unicode="s" horiz-adv-x="1083" 
d="M520 -20q-143 0 -254.5 53t-148.5 153h61q32 -70 127.5 -109.5t210.5 -39.5q74 0 138 17.5t110 56.5t55 94q7 44 -25 78t-89 58t-126 47t-137.5 52t-123 65.5t-83 94.5t-16.5 133q15 96 91.5 168.5t180 107.5t216.5 35q132 0 234 -51.5t136 -150.5h-61q-22 69 -106 107
t-187 38q-108 0 -188.5 -42t-90.5 -118q-6 -38 18.5 -69t69 -51.5t102 -42t118.5 -40.5t117.5 -48.5t98.5 -63.5t63 -87.5t11 -119.5q-17 -103 -98.5 -178.5t-191.5 -111t-232 -35.5z" />
    <glyph glyph-name="t" unicode="t" horiz-adv-x="716" 
d="M410 -20q-296 0 -242 335l102 648h-125l11 61h125l38 242h291l-39 -242h224l-11 -61h-223l-115 -725q-7 -55 -7.5 -96t22 -65t71.5 -26q36 -3 85 12.5t83 40.5l-6 -43q-109 -81 -284 -81z" />
    <glyph glyph-name="u" unicode="u" horiz-adv-x="1341" 
d="M541 -20q-79 0 -139.5 20t-103.5 62.5t-58.5 114.5t0.5 169l67 432q30 203 -125 203l6 43h136q63 0 109.5 -7t78 -18.5t50.5 -34.5t28 -45t9.5 -61t-3 -72.5t-12.5 -87.5l-49 -313q-13 -88 -15 -157.5t33.5 -112.5t112.5 -43q75 0 155 35t148 100l90 571q30 203 -125 203
l6 43h135q63 0 109.5 -7t78 -18.5t50.5 -34.5t28 -45t9.5 -61t-3 -72.5t-12.5 -87.5l-110 -698h-279l25 150q-96 -82 -208 -126t-222 -44z" />
    <glyph glyph-name="v" unicode="v" horiz-adv-x="1247" 
d="M795 0q-137 0 -202.5 51.5t-94.5 179.5l-129 508q-10 42 -18 69.5t-24 63.5t-34.5 57.5t-48 36.5t-66.5 15l6 43h207q129 -1 189 -53.5t90 -177.5l139 -553l451 784h67l-496 -856q27 -62 65.5 -93.5t100.5 -31.5l-6 -43h-196z" />
    <glyph glyph-name="w" unicode="w" horiz-adv-x="1873" 
d="M743 0q-134 2 -201 53t-85 178l-90 508q-9 49 -21 87t-33 76t-55.5 58.5t-79.5 20.5l6 43h207q133 -2 195.5 -54t79.5 -177l98 -543l297 547q-49 184 -178 184l6 43h207q134 -2 195.5 -53.5t80.5 -177.5l98 -541l416 772h68l-459 -852q20 -67 61 -98t109 -31l-6 -43h-207
q-137 2 -203 52.5t-84 178.5l-92 471l-287 -538q17 -65 58 -93t114 -28l-6 -43h-209z" />
    <glyph glyph-name="x" unicode="x" horiz-adv-x="1368" 
d="M168 0l463 432l-180 354l-24 48t-24.5 47t-25 38t-32 34t-40 19.5t-53.5 8.5l6 43h248q37 0 66 -4.5t50.5 -10t40.5 -19.5t31 -25t28 -36.5t25.5 -44l28.5 -55.5q3 -5 4 -8l92 -176l404 379h86l-461 -430l180 -356l24 -48t24.5 -47t25 -38t32 -34t40 -19.5t53.5 -8.5
l-6 -43h-250q-44 1 -75.5 5t-57 17t-41 24t-34.5 40t-29.5 50t-32.5 67l-97 176l-403 -379h-86z" />
    <glyph glyph-name="y" unicode="y" horiz-adv-x="1232" 
d="M340 -512l281 475l-250 776q-35 119 -62 163q-49 79 -131 79l6 43h230q65 -1 107 -12.5t71.5 -42t47.5 -69t40 -107.5l145 -488l422 719h66l-905 -1536h-68z" />
    <glyph glyph-name="z" unicode="z" horiz-adv-x="1239" 
d="M131 0l746 963h-252q-153 1 -184 -5q-45 -8 -72 -47q-9 -13 -66 -119l-2 -4h-68q12 22 31 61q54 104 78 130q33 36 101 42q35 4 143 3h59h625l-746 -963h258q150 -1 182 6q43 9 69 48q7 9 64 115q2 3 3 6h65q-72 -141 -81 -156q-33 -53 -76 -68q-40 -13 -175 -12h-77
h-625z" />
    <glyph glyph-name="braceleft" unicode="{" horiz-adv-x="710" 
d="M610 -246q-183 -24 -271.5 28.5t-72.5 156.5l76 479q9 61 -30.5 111t-114.5 67q98 21 145.5 72t60.5 131l78 477q15 94 123 140.5t273 23.5l-5 -29q-64 -1 -97 -34t-42 -95l-76 -473q-27 -166 -346 -213q139 -20 220 -69t69 -121l-70 -482q-6 -44 -4.5 -75.5t22.5 -49
t66 -18.5z" />
    <glyph glyph-name="bar" unicode="|" horiz-adv-x="249" 
d="M61 -256l271 1706h86l-271 -1706h-86z" />
    <glyph glyph-name="braceright" unicode="}" horiz-adv-x="710" 
d="M68 -219q67 1 92 34.5t39 108.5l80 482q13 72 109.5 121t242.5 69q-141 22 -218 74t-63 139l76 473q9 63 -13.5 95.5t-86.5 33.5l4 29q179 23 269.5 -23t76.5 -141l-74 -477q-13 -79 18 -130.5t123 -72.5q-82 -17 -136.5 -67t-63.5 -111l-76 -479q-16 -103 -123.5 -156
t-280.5 -29z" />
    <glyph glyph-name="asciitilde" unicode="~" horiz-adv-x="1042" 
d="M221 754q36 28 72.5 45t66 25.5t67 5.5t60 -7t62 -19.5t57.5 -24t60 -29.5q51 -25 82 -38t80.5 -26t88 -10t87.5 21.5t96 56.5l-15 -95q-27 -22 -54.5 -37t-50.5 -24.5t-51 -12.5t-47.5 -4t-48.5 6t-45 11t-47 17t-44.5 19t-46.5 22.5t-44 21.5q-55 25 -94.5 38t-92 18
t-105 -13.5t-107.5 -61.5z" />
    <glyph glyph-name="uni00A0" unicode="&#xa0;" horiz-adv-x="636" 
 />
    <glyph glyph-name="exclamdown" unicode="&#xa1;" horiz-adv-x="483" 
d="M55 -326l297 1135h78l-65 -1135h-310zM406 909q-51 0 -80.5 35t-20.5 84q7 52 47.5 86.5t91.5 34.5q50 0 79 -34.5t22 -86.5q-9 -50 -49.5 -84.5t-89.5 -34.5z" />
    <glyph glyph-name="cent" unicode="&#xa2;" horiz-adv-x="1159" 
d="M664 -20q-117 1 -214 39t-162.5 106t-94 168t-9.5 219q25 158 120.5 280t233.5 186.5t296 65.5l24 164h57l-24 -164q256 -17 340 -204h-57q-37 71 -106.5 105t-149.5 34q-11 0 -39 -4l-146 -926q24 -4 33 -4q81 0 161.5 34t141.5 105h57q-142 -187 -405 -204l-29 -185
h-57zM821 965q-127 -34 -216.5 -156t-117.5 -297q-29 -178 22.5 -299.5t168.5 -153.5z" />
    <glyph glyph-name="sterling" unicode="&#xa3;" horiz-adv-x="1271" 
d="M223 0q221 171 258 395q10 72 2 166.5t-30 179.5h-234l45 62h174q-14 93 0 178q18 113 75.5 205t138 149.5t174.5 88.5t190 32q83 1 154.5 -23.5t123.5 -70t76.5 -117t11.5 -158.5h-28q5 75 -18 135t-65.5 97t-97.5 56.5t-116 19.5q-135 -2 -231 -91t-124 -264
q-17 -113 -6 -237h328l-45 -62h-279q6 -103 -16 -200q-47 -174 -238 -361h414q161 -1 194 5q46 8 77 47q8 11 71 110h49q-16 -29 -44 -79q-86 -154 -119 -193q-43 -52 -106 -64q-41 -7 -167 -6h-59h-533z" />
    <glyph glyph-name="currency" unicode="&#xa4;" horiz-adv-x="1253" 
d="M645 -18q-217 0 -346 129l-131 -113l-33 39l131 113q-117 146 -80 362q34 217 195 362l-98 117l45 39l98 -117q171 129 387 129q212 0 342 -124l131 112l33 -39l-129 -110q118 -146 84 -369q-36 -220 -201 -369l90 -106l-45 -39l-92 108q-169 -124 -381 -124zM651 16
q86 0 157.5 69.5t117 179.5t67.5 247q19 138 11 248.5t-58.5 179t-136.5 68.5q-87 0 -157.5 -69t-114.5 -178t-66 -249q-18 -100 -15 -190t21.5 -158t63.5 -108t110 -40z" />
    <glyph glyph-name="yen" unicode="&#xa5;" horiz-adv-x="1476" 
d="M639 0l92 582h-305l10 61h283l-60 143h-200l10 62h164l-129 307q-6 13 -17 39t-17.5 41t-18.5 39t-22 38t-25.5 31t-31.5 26t-37.5 15.5t-45.5 6.5l6 43h256q30 0 55.5 -3.5t45 -7t37.5 -15t29 -18t25 -26t20.5 -28.5t19 -36.5t17.5 -39t19 -46.5l197 -473l553 693h73
l-466 -586h198l-10 -62h-238l-82 -104l-6 -39h303l-10 -61h-303l-92 -582h-297z" />
    <glyph glyph-name="brokenbar" unicode="&#xa6;" horiz-adv-x="249" 
d="M207 666l125 784h86l-125 -784h-86zM61 -256l125 784h86l-125 -784h-86z" />
    <glyph glyph-name="section" unicode="&#xa7;" horiz-adv-x="1050" 
d="M514 -14q-134 0 -206.5 60t-61.5 159h45q-10 -77 52.5 -123.5t160.5 -46.5q79 0 132.5 35.5t63.5 101.5q8 50 -16.5 95.5t-69 81t-100.5 70.5t-111 73.5t-98.5 81.5t-65.5 102t-10 127q14 74 72 143t145 113q-22 65 -14 123q19 113 125.5 192.5t251.5 79.5
q134 0 205.5 -60t60.5 -159h-49q9 83 -49 129.5t-150 46.5q-84 0 -141.5 -38t-67.5 -105q-7 -44 11.5 -84.5t54 -71.5t82 -64.5t95.5 -63.5t94.5 -67.5t79.5 -76.5t49.5 -91.5t5.5 -111.5q-12 -73 -71 -142.5t-147 -113.5q27 -55 15 -123q-19 -115 -123.5 -193.5
t-249.5 -78.5zM846 430q83 67 92 152q5 51 -28.5 96.5t-92 83t-120.5 73t-125.5 82t-96.5 93.5q-83 -64 -92 -152q-6 -51 27.5 -96.5t91.5 -83t120.5 -73t126 -82t97.5 -93.5z" />
    <glyph glyph-name="dieresis" unicode="&#xa8;" horiz-adv-x="815" 
d="M436 1122q-59 0 -91 37.5t-23 97.5q9 58 54 97.5t103 36.5q55 -2 87.5 -40t23.5 -94q-9 -59 -53.5 -97t-100.5 -38zM793 1122q-59 0 -92.5 38t-24.5 97q9 57 54 94.5t104 37.5q55 0 88 -38t24 -94q-9 -59 -53.5 -97t-99.5 -38z" />
    <glyph glyph-name="copyright" unicode="&#xa9;" horiz-adv-x="1472" 
d="M756 -18q-133 0 -246.5 52t-187.5 139.5t-107 208t-12 253.5q28 178 140 328.5t277 237.5t343 87q132 0 244.5 -52t186 -139.5t106 -208t11.5 -253.5q-28 -177 -139.5 -327.5t-275.5 -238t-340 -87.5zM829 252q-170 -2 -265.5 101.5t-67.5 281.5q28 176 157 278.5
t299 102.5q201 -3 275 -135l-37 -4q-31 50 -85.5 71.5t-113.5 18.5q-110 -3 -180 -93t-94 -239t18.5 -239.5t149.5 -94.5q59 -3 120 18.5t107 71.5l37 -6q-121 -133 -320 -133zM764 41q160 0 310 80t251.5 217t126.5 297t-33 297t-182.5 217t-284.5 80q-122 0 -239 -47
t-209 -126t-156 -189t-84 -232q-25 -161 32.5 -297.5t181.5 -216.5t286 -80z" />
    <glyph glyph-name="ordfeminine" unicode="&#xaa;" horiz-adv-x="1056" 
d="M565 666q-152 0 -237.5 106t-57.5 285q19 119 82.5 210t151.5 137t186 46q72 0 131.5 -25.5t91.5 -72.5l13 84h229l-119 -756h-229l12 82q-96 -96 -254 -96zM641 715q54 0 104.5 41t81.5 110l60 381q-7 71 -44 109.5t-93 38.5q-85 0 -148 -97.5t-86 -240.5
q-14 -94 -8 -170t41 -124t92 -48z" />
    <glyph glyph-name="guillemotleft" unicode="&#xab;" horiz-adv-x="1271" 
d="M1223 80l-590 465l737 465l-18 -113l-551 -352l440 -352zM778 80l-590 465l738 465l-19 -113l-551 -352l441 -352z" />
    <glyph glyph-name="logicalnot" unicode="&#xac;" horiz-adv-x="1042" 
d="M944 362l47 304h-784l16 96h879l-64 -400h-94z" />
    <glyph glyph-name="uni00AD" unicode="&#xad;" horiz-adv-x="837" 
d="M193 563l8 62h673l-8 -62h-673z" />
    <glyph glyph-name="registered" unicode="&#xae;" horiz-adv-x="952" 
d="M637 877q-164 0 -262 115.5t-72 279.5q26 163 160.5 278t298.5 115q163 0 259.5 -115t70.5 -278q-26 -164 -159 -279.5t-296 -115.5zM645 928q142 0 256.5 100.5t136.5 243.5q23 142 -59.5 242t-224.5 100q-144 0 -259.5 -100t-138.5 -242q-22 -143 61.5 -243.5
t227.5 -100.5zM520 1075l66 410h153q79 0 115.5 -27.5t28.5 -79.5q-13 -80 -119 -98l84 -199h-94l-78 193h-39l-33 -199h-84zM702 1311q86 0 97 67q4 35 -15 52.5t-59 17.5h-61l-23 -137h61z" />
    <glyph glyph-name="macron" unicode="&#xaf;" horiz-adv-x="878" 
d="M309 1182l15 82h686l-15 -82h-686z" />
    <glyph glyph-name="degree" unicode="&#xb0;" horiz-adv-x="765" 
d="M555 954q-125 0 -199.5 88.5t-54.5 212.5q20 125 122 213t226 88q125 0 199.5 -88.5t54.5 -212.5q-20 -125 -122 -213t-226 -88zM565 1024q94 0 171.5 68t92.5 163q15 94 -40.5 161t-149.5 67t-171.5 -67t-92.5 -161q-15 -95 40.5 -163t149.5 -68z" />
    <glyph glyph-name="plusminus" unicode="&#xb1;" horiz-adv-x="1060" 
d="M557 307l68 426h-406l12 86h406l61 385h86l-61 -385h405l-12 -86h-405l-68 -426h-86zM131 152l12 86h889l-12 -86h-889z" />
    <glyph glyph-name="uni00B2" unicode="&#xb2;" horiz-adv-x="829" 
d="M203 565q522 364 579 711q19 119 -36.5 184.5t-147.5 65.5q-89 0 -165.5 -60.5t-94.5 -167.5h-29q22 139 132 215t247 76q89 0 161.5 -33t113 -104t24.5 -168q-7 -46 -31 -95t-56 -92t-80 -90.5t-92.5 -85t-105 -82.5t-106 -76t-106.5 -71h483l-72 -141h-620z" />
    <glyph glyph-name="uni00B3" unicode="&#xb3;" horiz-adv-x="882" 
d="M528 545q-129 0 -206 55.5t-91 157.5h25q20 -87 83 -125.5t146 -38.5q121 0 202.5 81t100.5 193q15 95 -26 164t-135 92l2 11q141 71 166 225q14 86 -33 133t-125 47q-90 0 -165 -56t-91 -153h-23q22 127 121.5 195.5t222.5 68.5q80 0 141.5 -25t94 -79t20.5 -129
q-11 -71 -69.5 -126.5t-155.5 -78.5q144 -23 201.5 -101.5t38.5 -187.5q-23 -145 -148 -234t-297 -89z" />
    <glyph glyph-name="acute" unicode="&#xb4;" horiz-adv-x="532" 
d="M506 1497q36 67 102 68q51 0 76 -38q32 -46 -15 -100q-8 -9 -18 -18l-329 -289h-21z" />
    <glyph glyph-name="uni00B5" unicode="&#xb5;" horiz-adv-x="1513" 
d="M360 778q30 203 -122 203l6 43h135q55 0 97.5 -4.5t72.5 -16t51 -24.5t32.5 -36t17.5 -45t5 -57t-5 -65.5t-11 -77.5l-49 -313q-13 -88 -15 -157.5t33.5 -112.5t112.5 -43q75 0 156.5 36.5t152.5 106.5q0 49 8 90l74 473q30 203 -123 203l6 43h135q143 0 206.5 -36
t68 -108.5t-13.5 -181.5l-62 -383q-7 -46 -10.5 -77.5t-4.5 -70t6.5 -63t22 -46.5t41 -32t64.5 -10l-2 -16q-72 -16 -133 -16q-243 0 -277 176q-209 -183 -405 -183q-65 0 -103 25l-90 -575h-291z" />
    <glyph glyph-name="paragraph" unicode="&#xb6;" horiz-adv-x="1103" 
d="M504 664q-148 1 -211 126q-56 114 -21 272q37 162 146 267q111 105 258 105h594l-228 -1434h-256l220 1384l-148 2q-72 0 -119 -56.5t-57 -125.5l-190 -1204h-93z" />
    <glyph glyph-name="periodcentered" unicode="&#xb7;" horiz-adv-x="409" 
d="M311 539q-52 0 -82 35t-22 88q8 51 49.5 86.5t93.5 35.5t81.5 -35.5t21.5 -86.5q-7 -52 -48 -87.5t-94 -35.5z" />
    <glyph glyph-name="cedilla" unicode="&#xb8;" horiz-adv-x="614" 
d="M213 -408q47 0 80 28t43 69q8 48 -24 88t-109 53l155 201h64l-107 -127q58 -3 99 -22t60 -47.5t26 -58t2 -59.5q-11 -71 -67.5 -119.5t-125.5 -61.5t-139 8t-107 75l19 25q65 -52 131 -52z" />
    <glyph glyph-name="uni00B9" unicode="&#xb9;" horiz-adv-x="585" 
d="M293 547l131 827l-70 2l4 15l301 196h15l-166 -1040h-215z" />
    <glyph glyph-name="ordmasculine" unicode="&#xba;" horiz-adv-x="1089" 
d="M649 662q-199 0 -303.5 106.5t-75.5 288.5q29 184 167 290.5t337 106.5q200 0 305 -106.5t76 -290.5q-29 -183 -167.5 -289t-338.5 -106zM653 705q199 0 254 352q14 102 11.5 180.5t-40.5 126t-112 47.5q-193 0 -248 -354q-55 -352 135 -352z" />
    <glyph glyph-name="guillemotright" unicode="&#xbb;" horiz-adv-x="1271" 
d="M559 80l19 113l550 352l-440 352l19 113l589 -465zM115 80l18 113l553 352l-442 352l18 113l590 -465z" />
    <glyph glyph-name="onequarter" unicode="&#xbc;" horiz-adv-x="1667" 
d="M334 629l131 827l-70 2l2 15l301 196h15l-164 -1040h-215zM256 -205l1331 1802h78l-1331 -1802h-78zM1257 -199l46 291h-412l625 748h120l-163 -1039h-216zM985 141h326l75 477z" />
    <glyph glyph-name="onehalf" unicode="&#xbd;" horiz-adv-x="1964" 
d="M227 -205l1332 1802h79l-1331 -1802h-80zM334 629l131 827l-70 2l2 15l301 196h15l-164 -1040h-215zM1087 -195q526 367 580 711q19 120 -36.5 186t-147.5 66t-167 -60.5t-91 -168.5h-29q11 71 48 128t89.5 92t114.5 53.5t127 18.5q88 0 160.5 -33t114 -104.5
t26.5 -169.5q-8 -46 -32.5 -95t-56.5 -92t-81 -90.5t-93 -85t-106 -82.5t-106.5 -75.5t-106.5 -71.5h486l-74 -139h-621z" />
    <glyph glyph-name="threequarters" unicode="&#xbe;" horiz-adv-x="1921" 
d="M553 -205l1331 1802h78l-1331 -1802h-78zM584 545q-130 0 -207.5 55.5t-89.5 157.5h24q19 -87 82.5 -125.5t147.5 -38.5q120 0 201 81t100 193q15 95 -25.5 164t-134.5 92l2 11q141 71 166 225q14 86 -34 133t-126 47q-88 0 -163 -56t-91 -153h-22q14 86 69 147.5
t125.5 89t147.5 27.5q125 0 200.5 -61t57.5 -172q-11 -71 -70 -126.5t-156 -78.5q144 -23 201.5 -101.5t38.5 -187.5q-23 -145 -147.5 -234t-296.5 -89zM1509 -199l45 291h-411l624 748h123l-164 -1039h-217zM1237 141h326l75 477z" />
    <glyph glyph-name="questiondown" unicode="&#xbf;" horiz-adv-x="954" 
d="M449 -330q-102 0 -185.5 38.5t-130 118t-29.5 185.5q11 70 46 137t82 121.5t102 107.5t109.5 104t101 101t79.5 107t42 115h36q-11 -92 -46.5 -180t-80 -159.5t-89.5 -141.5t-82 -152t-50 -164q-21 -126 39 -194t160 -68q104 0 194.5 70.5t112.5 191.5h35
q-19 -109 -89 -187.5t-162.5 -114.5t-194.5 -36zM698 909q-50 0 -78.5 34t-19.5 85q7 52 47 86.5t90 34.5q52 0 81.5 -34t21.5 -87q-9 -51 -49.5 -85t-92.5 -34z" />
    <glyph glyph-name="Agrave" unicode="&#xc0;" horiz-adv-x="1486" 
d="M786 1294q-26 47 -60.5 72t-90.5 25l6 43h182q141 0 217.5 -54.5t102.5 -181.5l254 -1198h-316l-98 457h-582l-245 -457h-68zM434 516h537l-125 584q-19 92 -29 127zM690 1821q-45 55 -4 108q32 42 87 47q63 6 87 -48q4 -9 6 -19l84 -377h-20z" />
    <glyph glyph-name="Aacute" unicode="&#xc1;" horiz-adv-x="1486" 
d="M786 1294q-26 47 -60.5 72t-90.5 25l6 43h182q141 0 217.5 -54.5t102.5 -181.5l254 -1198h-316l-98 457h-582l-245 -457h-68zM434 516h537l-125 584q-19 92 -29 127zM1176 1911q36 67 102 68q51 0 76 -38q32 -46 -15 -100q-8 -9 -18 -18l-330 -289h-20z" />
    <glyph glyph-name="Acircumflex" unicode="&#xc2;" horiz-adv-x="1486" 
d="M786 1294q-26 47 -60.5 72t-90.5 25l6 43h182q141 0 217.5 -54.5t102.5 -181.5l254 -1198h-316l-98 457h-582l-245 -457h-68zM434 516h537l-125 584q-19 92 -29 127zM932 1913q22 37 53 54.5t59.5 15.5t53 -20.5t35.5 -49.5l112 -377h-20l-207 285l-299 -285h-21z" />
    <glyph glyph-name="Atilde" unicode="&#xc3;" horiz-adv-x="1486" 
d="M786 1294q-26 47 -60.5 72t-90.5 25l6 43h182q141 0 217.5 -54.5t102.5 -181.5l254 -1198h-316l-98 457h-582l-245 -457h-68zM434 516h537l-125 584q-19 92 -29 127zM1186 1536q-74 0 -220.5 51t-195.5 51q-54 0 -82.5 -17.5t-34.5 -59.5h-30q11 140 62.5 193.5
t131.5 53.5q72 0 219 -50t199 -50t81.5 18t35.5 60h30q-11 -125 -66 -187.5t-130 -62.5z" />
    <glyph glyph-name="Adieresis" unicode="&#xc4;" horiz-adv-x="1486" 
d="M786 1294q-26 47 -60.5 72t-90.5 25l6 43h182q141 0 217.5 -54.5t102.5 -181.5l254 -1198h-316l-98 457h-582l-245 -457h-68zM434 516h537l-125 584q-19 92 -29 127zM797 1528q-59 0 -91 38t-22 97q8 58 53 97t103 36q56 -2 87.5 -39t24.5 -94q-10 -59 -54.5 -97
t-100.5 -38zM1153 1528q-59 0 -92 38t-23 97q7 56 53 93.5t105 37.5q55 0 87.5 -37.5t25.5 -93.5q-10 -59 -55.5 -97t-100.5 -38z" />
    <glyph glyph-name="Aring" unicode="&#xc5;" horiz-adv-x="1486" 
d="M786 1294q-26 47 -60.5 72t-90.5 25l6 43h182q141 0 217.5 -54.5t102.5 -181.5l254 -1198h-316l-98 457h-582l-245 -457h-68zM434 516h537l-125 584q-19 92 -29 127zM973 1538q-91 0 -145.5 64.5t-41.5 156.5q15 92 90 156.5t166 64.5t147.5 -64.5t41.5 -156.5
q-13 -91 -89.5 -156t-168.5 -65zM983 1602q65 0 118.5 45.5t63.5 111.5q10 64 -29 110t-104 46q-63 0 -116.5 -46t-63.5 -110q-10 -65 28.5 -111t102.5 -46z" />
    <glyph glyph-name="AE" unicode="&#xc6;" horiz-adv-x="2091" 
d="M76 0l891 1434h782h62q70 1 98 0.5t64 -6.5t45 -15t23.5 -31.5t19.5 -50t14 -76.5q8 -47 14 -75h-64q-6 24 -15 64q-21 98 -48 114.5t-168 15.5h-51h-410q27 -26 35.5 -72t5 -82.5t-13.5 -107.5l-53 -342h587l-10 -59h-588l-75 -473q-14 -98 17.5 -138.5t133.5 -40.5h211
q162 0 194 5q54 9 87 51q18 22 84 138q15 26 28 48h62q-15 -28 -41 -77q-89 -169 -135 -197t-233 -27h-64h-303q-127 0 -199.5 21.5t-102 66.5t-31 113t14.5 161l31 197h-486l-346 -559h-67zM528 621h457l90 567q24 166 -74 196z" />
    <glyph glyph-name="Ccedilla" unicode="&#xc7;" horiz-adv-x="1593" 
d="M735 -436q47 0 80 27.5t43 68.5q8 48 -24 88t-109 53l137 179q-115 5 -216.5 38t-184 94.5t-137 149.5t-75 202.5t2.5 254.5q28 174 113.5 316t206.5 232.5t265 139t296 49.5q95 1 176 -15.5t154 -53t128.5 -101t87.5 -153.5h-63q-34 90 -107 150.5t-152.5 84
t-160.5 21.5q-245 -3 -417.5 -181.5t-221.5 -488.5q-50 -310 66 -488.5t362 -183.5q79 -1 165.5 22.5t179 84t153.5 149.5h63q-212 -313 -622 -323l-88 -105q58 -3 99.5 -21.5t61 -47t26 -58t1.5 -59.5q-11 -71 -67.5 -119.5t-125 -62t-139 7.5t-108.5 75l20 25
q64 -51 131 -51z" />
    <glyph glyph-name="Egrave" unicode="&#xc8;" horiz-adv-x="1361" 
d="M530 0q-166 0 -241.5 38.5t-84.5 119t11 204.5l131 826q30 203 -123 203l6 43h791q182 0 212 -4q58 -7 78 -42q15 -26 36 -132q7 -38 12 -62h-66q-5 20 -12 53q-18 77 -33 96q-20 26 -86 30q-28 1 -111 1h-38h-408q37 -37 39 -111t-14 -151l-54 -342h588l-10 -59h-588
l-76 -473q-14 -98 18 -138.5t134 -40.5h213q162 0 195 6q53 9 86 50q16 21 81 136q11 19 21 36h63q-14 -25 -37 -70q-69 -127 -97 -159q-38 -44 -104 -53q-39 -6 -163 -5h-63h-306zM725 1823q-45 55 -4 108q32 42 87 47q63 6 87 -48q4 -9 6 -19l86 -377h-20z" />
    <glyph glyph-name="Eacute" unicode="&#xc9;" horiz-adv-x="1361" 
d="M530 0q-166 0 -241.5 38.5t-84.5 119t11 204.5l131 826q30 203 -123 203l6 43h791q182 0 212 -4q58 -7 78 -42q15 -26 36 -132q7 -38 12 -62h-66q-5 20 -12 53q-18 77 -33 96q-20 26 -86 30q-28 1 -111 1h-38h-408q37 -37 39 -111t-14 -151l-54 -342h588l-10 -59h-588
l-76 -473q-14 -98 18 -138.5t134 -40.5h213q162 0 195 6q53 9 86 50q16 21 81 136q11 19 21 36h63q-14 -25 -37 -70q-69 -127 -97 -159q-38 -44 -104 -53q-39 -6 -163 -5h-63h-306zM1069 1909q36 67 102 68q51 0 76 -38q32 -46 -15 -100q-8 -9 -18 -18l-331 -289h-21z" />
    <glyph glyph-name="Ecircumflex" unicode="&#xca;" horiz-adv-x="1361" 
d="M530 0q-166 0 -241.5 38.5t-84.5 119t11 204.5l131 826q30 203 -123 203l6 43h791q182 0 212 -4q58 -7 78 -42q15 -26 36 -132q7 -38 12 -62h-66q-5 20 -12 53q-18 77 -33 96q-20 26 -86 30q-28 1 -111 1h-38h-408q37 -37 39 -111t-14 -151l-54 -342h588l-10 -59h-588
l-76 -473q-14 -98 18 -138.5t134 -40.5h213q162 0 195 6q53 9 86 50q16 21 81 136q11 19 21 36h63q-14 -25 -37 -70q-69 -127 -97 -159q-38 -44 -104 -53q-39 -6 -163 -5h-63h-306zM862 1917q22 37 53.5 54.5t60 15.5t53 -20.5t34.5 -49.5l113 -377h-21l-207 285l-299 -285
h-20z" />
    <glyph glyph-name="Edieresis" unicode="&#xcb;" horiz-adv-x="1361" 
d="M530 0q-166 0 -241.5 38.5t-84.5 119t11 204.5l131 826q30 203 -123 203l6 43h791q182 0 212 -4q58 -7 78 -42q15 -26 36 -132q7 -38 12 -62h-66q-5 20 -12 53q-18 77 -33 96q-20 26 -86 30q-28 1 -111 1h-38h-408q37 -37 39 -111t-14 -151l-54 -342h588l-10 -59h-588
l-76 -473q-14 -98 18 -138.5t134 -40.5h213q162 0 195 6q53 9 86 50q16 21 81 136q11 19 21 36h63q-14 -25 -37 -70q-69 -127 -97 -159q-38 -44 -104 -53q-39 -6 -163 -5h-63h-306zM760 1538q-59 0 -91.5 37.5t-23.5 97.5q9 58 54.5 97t103.5 36q56 -2 87.5 -39t22.5 -94
q-9 -59 -53 -97t-100 -38zM1116 1538q-59 0 -92.5 38t-24.5 97q9 57 55 94t105 37q55 0 87.5 -37.5t23.5 -93.5q-9 -59 -54 -97t-100 -38z" />
    <glyph glyph-name="Igrave" unicode="&#xcc;" horiz-adv-x="612" 
d="M346 1188q30 203 -123 203l6 43h136q64 0 110.5 -7.5t78.5 -19t51 -34.5t28.5 -45.5t10 -61.5t-3 -72t-11.5 -86l-176 -1108h-295zM418 1821q-45 55 -4 108q32 42 87 47q63 6 87 -48q4 -9 6 -19l84 -377h-21z" />
    <glyph glyph-name="Iacute" unicode="&#xcd;" horiz-adv-x="612" 
d="M346 1188q30 203 -123 203l6 43h136q64 0 110.5 -7.5t78.5 -19t51 -34.5t28.5 -45.5t10 -61.5t-3 -72t-11.5 -86l-176 -1108h-295zM580 1915q36 67 102 68q51 0 76 -38q32 -46 -15 -100q-8 -9 -18 -18l-330 -289h-20z" />
    <glyph glyph-name="Icircumflex" unicode="&#xce;" horiz-adv-x="612" 
d="M346 1188q30 203 -123 203l6 43h136q64 0 110.5 -7.5t78.5 -19t51 -34.5t28.5 -45.5t10 -61.5t-3 -72t-11.5 -86l-176 -1108h-295zM508 1913q22 37 53 54.5t59.5 15.5t53 -20.5t35.5 -49.5l112 -377h-20l-207 285l-299 -285h-21z" />
    <glyph glyph-name="Idieresis" unicode="&#xcf;" horiz-adv-x="612" 
d="M346 1188q30 203 -123 203l6 43h136q64 0 110.5 -7.5t78.5 -19t51 -34.5t28.5 -45.5t10 -61.5t-3 -72t-11.5 -86l-176 -1108h-295zM371 1530q-59 0 -90.5 37.5t-22.5 97.5q9 58 53.5 97t102.5 36q56 -2 88.5 -39.5t23.5 -93.5q-9 -59 -53.5 -97t-101.5 -38zM727 1530
q-59 0 -91.5 37.5t-23.5 97.5q9 57 54 94t104 37q55 0 88.5 -37.5t24.5 -93.5q-9 -59 -55 -97t-101 -38z" />
    <glyph glyph-name="Eth" unicode="&#xd0;" horiz-adv-x="1613" 
d="M530 0q-126 0 -198.5 21.5t-101.5 65.5t-31 110.5t14 156.5l55 338h-143l8 64h143l68 418q33 217 -106 217l6 43h653q121 0 223.5 -21t177 -58.5t133 -90t92.5 -115.5t55 -134t21 -146.5t-10 -153.5q-17 -110 -60.5 -211.5t-120.5 -194t-179.5 -160.5t-246 -108.5
t-312.5 -40.5h-140zM655 59q114 2 211 41.5t165.5 102.5t121 148.5t83 176.5t46.5 191q13 84 13 161t-13 152t-45 136t-81.5 107.5t-125.5 72.5t-172 26h-250q34 -33 36.5 -103.5t-13.5 -140.5l-60 -374h168l-8 -64h-168l-74 -454q-14 -99 14.5 -139t125.5 -40h26z" />
    <glyph glyph-name="Ntilde" unicode="&#xd1;" horiz-adv-x="1447" 
d="M367 1315q-52 76 -144 76l6 43h162q53 0 85 -1.5t68.5 -6.5t59 -15t47 -27t43 -42.5t35.5 -61.5l539 -1055l192 1209h60l-209 -1313q51 -78 141 -78l-6 -43h-162q-63 0 -99.5 2t-76.5 10.5t-65.5 25t-50.5 45t-46 71.5l-536 1056l-193 -1210h-59zM1208 1548
q-74 0 -220 51.5t-195 51.5q-54 0 -82.5 -17.5t-34.5 -60.5h-31q11 140 63 194t132 54q72 0 218.5 -50.5t198.5 -50.5t81 17.5t36 60.5h31q-11 -125 -66.5 -187.5t-130.5 -62.5z" />
    <glyph glyph-name="Ograve" unicode="&#xd2;" horiz-adv-x="1867" 
d="M903 -20q-133 0 -246 34t-196.5 97.5t-139 154.5t-72.5 205t3 248q34 219 160 387t314.5 258t410.5 90q167 0 301 -52.5t220.5 -147.5t122 -232.5t9.5 -302.5q-54 -332 -301 -535.5t-586 -203.5zM918 39q228 0 373 176.5t198 503.5q52 326 -37.5 501t-318.5 175
q-231 0 -377.5 -175t-198.5 -501q-53 -326 38.5 -503t322.5 -177zM1051 1825q-45 55 -4 108q32 42 87 47q63 6 87 -48q4 -9 6 -19l86 -377h-21z" />
    <glyph glyph-name="Oacute" unicode="&#xd3;" horiz-adv-x="1867" 
d="M903 -20q-133 0 -246 34t-196.5 97.5t-139 154.5t-72.5 205t3 248q34 219 160 387t314.5 258t410.5 90q167 0 301 -52.5t220.5 -147.5t122 -232.5t9.5 -302.5q-54 -332 -301 -535.5t-586 -203.5zM918 39q228 0 373 176.5t198 503.5q52 326 -37.5 501t-318.5 175
q-231 0 -377.5 -175t-198.5 -501q-53 -326 38.5 -503t322.5 -177zM1229 1886q36 67 102 68q51 0 76 -38q32 -46 -15 -100q-8 -9 -18 -18l-330 -289h-20z" />
    <glyph glyph-name="Ocircumflex" unicode="&#xd4;" horiz-adv-x="1867" 
d="M903 -20q-133 0 -246 34t-196.5 97.5t-139 154.5t-72.5 205t3 248q34 219 160 387t314.5 258t410.5 90q167 0 301 -52.5t220.5 -147.5t122 -232.5t9.5 -302.5q-54 -332 -301 -535.5t-586 -203.5zM918 39q228 0 373 176.5t198 503.5q52 326 -37.5 501t-318.5 175
q-231 0 -377.5 -175t-198.5 -501q-53 -326 38.5 -503t322.5 -177zM1141 1913q22 37 53 54.5t59.5 15.5t52.5 -20.5t35 -49.5l113 -377h-20l-207 285l-299 -285h-21z" />
    <glyph glyph-name="Otilde" unicode="&#xd5;" horiz-adv-x="1867" 
d="M903 -20q-133 0 -246 34t-196.5 97.5t-139 154.5t-72.5 205t3 248q34 219 160 387t314.5 258t410.5 90q167 0 301 -52.5t220.5 -147.5t122 -232.5t9.5 -302.5q-54 -332 -301 -535.5t-586 -203.5zM918 39q228 0 373 176.5t198 503.5q52 326 -37.5 501t-318.5 175
q-231 0 -377.5 -175t-198.5 -501q-53 -326 38.5 -503t322.5 -177zM1401 1552q-74 0 -220.5 51.5t-195.5 51.5q-53 0 -81.5 -17.5t-35.5 -60.5h-30q12 140 63.5 194t130.5 54q72 0 219 -50.5t199 -50.5t81.5 18t35.5 60h30q-10 -124 -65.5 -187t-130.5 -63z" />
    <glyph glyph-name="Odieresis" unicode="&#xd6;" horiz-adv-x="1867" 
d="M903 -20q-133 0 -246 34t-196.5 97.5t-139 154.5t-72.5 205t3 248q34 219 160 387t314.5 258t410.5 90q167 0 301 -52.5t220.5 -147.5t122 -232.5t9.5 -302.5q-54 -332 -301 -535.5t-586 -203.5zM918 39q228 0 373 176.5t198 503.5q52 326 -37.5 501t-318.5 175
q-231 0 -377.5 -175t-198.5 -501q-53 -326 38.5 -503t322.5 -177zM995 1528q-59 0 -90.5 37.5t-21.5 97.5q8 58 52.5 97t102.5 36q56 -2 88 -39t25 -94q-10 -59 -55 -97t-101 -38zM1352 1528q-59 0 -92 38t-23 97q7 56 53 93.5t105 37.5q55 0 87 -37.5t25 -93.5
q-10 -59 -55 -97t-100 -38z" />
    <glyph glyph-name="multiply" unicode="&#xd7;" horiz-adv-x="874" 
d="M807 350l-252 303l-334 -286l-51 61l332 287l-230 272l72 62l229 -273l332 287l51 -64l-331 -286l254 -301z" />
    <glyph glyph-name="Oslash" unicode="&#xd8;" horiz-adv-x="1812" 
d="M903 -20q-259 0 -434 124l-100 -104h-58l125 131q-117 98 -165.5 249t-18.5 339q34 219 160 387t314.5 258t410.5 90q264 0 436 -125l98 105h60l-123 -131q115 -96 163 -246t19 -338q-54 -332 -301 -535.5t-586 -203.5zM918 39q228 0 373 176.5t198 503.5q43 273 -14 444
l-887 -932q88 -192 330 -192zM1456 1208q-88 187 -323 187q-231 0 -377.5 -175t-198.5 -501q-46 -273 14 -445z" />
    <glyph glyph-name="Ugrave" unicode="&#xd9;" horiz-adv-x="1472" 
d="M766 -23q-80 0 -151 13t-137 41t-114 73t-82.5 109t-42 149t6.5 193l100 633q30 203 -123 203l6 43h136q64 0 110.5 -7.5t78.5 -19t51 -34.5t28.5 -45.5t10 -61.5t-3 -72t-11.5 -86l-92 -576q-19 -108 -9.5 -189t34.5 -136.5t70 -90t97.5 -49.5t116.5 -14q93 -1 173.5 31
t146.5 95.5t112.5 164t67.5 231.5l135 859h63l-133 -842q-50 -312 -216.5 -463.5t-428.5 -151.5zM821 1829q-45 55 -4 108q32 42 87 47q63 6 87 -48q4 -9 6 -19l86 -377h-20z" />
    <glyph glyph-name="Uacute" unicode="&#xda;" horiz-adv-x="1472" 
d="M766 -23q-80 0 -151 13t-137 41t-114 73t-82.5 109t-42 149t6.5 193l100 633q30 203 -123 203l6 43h136q64 0 110.5 -7.5t78.5 -19t51 -34.5t28.5 -45.5t10 -61.5t-3 -72t-11.5 -86l-92 -576q-19 -108 -9.5 -189t34.5 -136.5t70 -90t97.5 -49.5t116.5 -14q93 -1 173.5 31
t146.5 95.5t112.5 164t67.5 231.5l135 859h63l-133 -842q-50 -312 -216.5 -463.5t-428.5 -151.5zM1180 1907q37 68 104 68q51 0 77 -38q31 -46 -16 -100q-8 -9 -18 -18l-332 -289h-20z" />
    <glyph glyph-name="Ucircumflex" unicode="&#xdb;" horiz-adv-x="1472" 
d="M766 -23q-80 0 -151 13t-137 41t-114 73t-82.5 109t-42 149t6.5 193l100 633q30 203 -123 203l6 43h136q64 0 110.5 -7.5t78.5 -19t51 -34.5t28.5 -45.5t10 -61.5t-3 -72t-11.5 -86l-92 -576q-19 -108 -9.5 -189t34.5 -136.5t70 -90t97.5 -49.5t116.5 -14q93 -1 173.5 31
t146.5 95.5t112.5 164t67.5 231.5l135 859h63l-133 -842q-50 -312 -216.5 -463.5t-428.5 -151.5zM1047 1917q22 37 53 54.5t60 15.5t53 -20.5t34 -49.5l113 -377h-21l-206 285l-299 -285h-21z" />
    <glyph glyph-name="Udieresis" unicode="&#xdc;" horiz-adv-x="1472" 
d="M766 -23q-80 0 -151 13t-137 41t-114 73t-82.5 109t-42 149t6.5 193l100 633q30 203 -123 203l6 43h136q64 0 110.5 -7.5t78.5 -19t51 -34.5t28.5 -45.5t10 -61.5t-3 -72t-11.5 -86l-92 -576q-19 -108 -9.5 -189t34.5 -136.5t70 -90t97.5 -49.5t116.5 -14q93 -1 173.5 31
t146.5 95.5t112.5 164t67.5 231.5l135 859h63l-133 -842q-50 -312 -216.5 -463.5t-428.5 -151.5zM893 1520q-59 0 -91.5 37.5t-23.5 97.5q9 58 54.5 97t101.5 36q56 -2 89 -39.5t24 -93.5q-9 -59 -53.5 -97t-100.5 -38zM1249 1520q-59 0 -92 37.5t-24 97.5q9 57 53.5 94
t103.5 37q55 0 88.5 -37.5t24.5 -93.5q-9 -59 -54 -97t-100 -38z" />
    <glyph glyph-name="Yacute" unicode="&#xdd;" horiz-adv-x="1443" 
d="M571 0l97 602l-236 561q-4 10 -18 42t-20.5 46t-21.5 41t-28 40.5t-32 29.5t-41.5 22.5t-49.5 6.5l6 43h256q52 0 90 -9t62.5 -24t44.5 -42.5t34 -57.5t33 -74q3 -9 5 -13l194 -473l555 693h74l-600 -752l-109 -682h-295zM1163 1919q37 67 103 68q52 0 78 -38
q32 -46 -15 -100q-8 -9 -18 -18l-332 -289h-21z" />
    <glyph glyph-name="Thorn" unicode="&#xde;" horiz-adv-x="1488" 
d="M346 1188q30 203 -123 203l6 43h136q135 0 200 -31.5t75.5 -95.5t-5.5 -160l-8 -49h311q110 0 197 -13t146.5 -37.5t101 -59t60.5 -77t25.5 -92t-4.5 -104.5q-10 -64 -36 -118t-76.5 -103.5t-121.5 -84t-176.5 -55t-236.5 -20.5h-311l-53 -334h-295zM766 393
q176 0 272 86t119 236q25 151 -43.5 236t-245.5 85h-252l-102 -643h252z" />
    <glyph glyph-name="germandbls" unicode="&#xdf;" horiz-adv-x="1392" 
d="M881 -20q-140 0 -248.5 52.5t-145.5 153.5h60q32 -72 123.5 -111.5t199.5 -39.5q110 0 190 42.5t87 121.5q3 35 -21.5 65t-66.5 51t-96 44t-110 44t-108 52.5t-90.5 67.5t-57 90t-7.5 120q15 95 88 168t172 108t205 35q127 0 211 -47l6 31q31 176 -55.5 284.5
t-251.5 108.5q-347 0 -420 -463l-152 -958h-291l146 920q38 241 234.5 395.5t463.5 154.5q215 0 310.5 -125t60.5 -354l-14 -90q-32 41 -97 63.5t-137 22.5q-101 0 -174.5 -40t-79.5 -111q-3 -39 29 -71.5t85 -57.5t116.5 -50.5t125.5 -58t111 -72t73.5 -100t12.5 -135.5
q-16 -99 -91.5 -171.5t-178.5 -106t-217 -33.5z" />
    <glyph glyph-name="agrave" unicode="&#xe0;" horiz-adv-x="1304" 
d="M442 -20q-97 0 -173 32t-115.5 94t-26.5 142q10 63 44.5 110t83.5 73.5t112 45t128 26.5t132.5 16.5t124.5 16t105.5 24t74.5 40.5q10 72 8.5 127.5t-18 96.5t-40 69t-58 44.5t-71 24t-79.5 7.5q-92 0 -175 -33t-139 -94h-55q70 94 205 148t291 54q97 0 179 -25.5
t144.5 -76t90.5 -136.5t10 -198l-58 -362q-4 -29 -5.5 -52t2.5 -53t16 -50t38.5 -34t65.5 -14l-6 -43h-127q-148 0 -208 35t-66 121q-185 -176 -435 -176zM575 76q73 0 151.5 36t145.5 103l50 317q-34 -22 -98 -37t-125 -26.5t-121.5 -31.5t-102.5 -63.5t-53 -109.5
q-13 -91 30.5 -139.5t122.5 -48.5zM598 1434q-45 55 -4 108q32 42 87 47q63 6 87 -48q4 -9 6 -19l86 -377h-20z" />
    <glyph glyph-name="aacute" unicode="&#xe1;" horiz-adv-x="1304" 
d="M442 -20q-97 0 -173 32t-115.5 94t-26.5 142q10 63 44.5 110t83.5 73.5t112 45t128 26.5t132.5 16.5t124.5 16t105.5 24t74.5 40.5q10 72 8.5 127.5t-18 96.5t-40 69t-58 44.5t-71 24t-79.5 7.5q-92 0 -175 -33t-139 -94h-55q70 94 205 148t291 54q97 0 179 -25.5
t144.5 -76t90.5 -136.5t10 -198l-58 -362q-4 -29 -5.5 -52t2.5 -53t16 -50t38.5 -34t65.5 -14l-6 -43h-127q-148 0 -208 35t-66 121q-185 -176 -435 -176zM575 76q73 0 151.5 36t145.5 103l50 317q-34 -22 -98 -37t-125 -26.5t-121.5 -31.5t-102.5 -63.5t-53 -109.5
q-13 -91 30.5 -139.5t122.5 -48.5zM963 1526q36 67 102 68q51 0 76 -38q32 -46 -15 -100q-8 -9 -18 -18l-330 -289h-20z" />
    <glyph glyph-name="acircumflex" unicode="&#xe2;" horiz-adv-x="1304" 
d="M442 -20q-97 0 -173 32t-115.5 94t-26.5 142q10 63 44.5 110t83.5 73.5t112 45t128 26.5t132.5 16.5t124.5 16t105.5 24t74.5 40.5q10 72 8.5 127.5t-18 96.5t-40 69t-58 44.5t-71 24t-79.5 7.5q-92 0 -175 -33t-139 -94h-55q70 94 205 148t291 54q97 0 179 -25.5
t144.5 -76t90.5 -136.5t10 -198l-58 -362q-4 -29 -5.5 -52t2.5 -53t16 -50t38.5 -34t65.5 -14l-6 -43h-127q-148 0 -208 35t-66 121q-185 -176 -435 -176zM575 76q73 0 151.5 36t145.5 103l50 317q-34 -22 -98 -37t-125 -26.5t-121.5 -31.5t-102.5 -63.5t-53 -109.5
q-13 -91 30.5 -139.5t122.5 -48.5zM774 1522q22 37 53 54.5t59.5 15.5t53 -20.5t35.5 -49.5l112 -377h-20l-207 285l-299 -285h-20z" />
    <glyph glyph-name="atilde" unicode="&#xe3;" horiz-adv-x="1304" 
d="M442 -20q-97 0 -173 32t-115.5 94t-26.5 142q10 63 44.5 110t83.5 73.5t112 45t128 26.5t132.5 16.5t124.5 16t105.5 24t74.5 40.5q10 72 8.5 127.5t-18 96.5t-40 69t-58 44.5t-71 24t-79.5 7.5q-92 0 -175 -33t-139 -94h-55q70 94 205 148t291 54q97 0 179 -25.5
t144.5 -76t90.5 -136.5t10 -198l-58 -362q-4 -29 -5.5 -52t2.5 -53t16 -50t38.5 -34t65.5 -14l-6 -43h-127q-148 0 -208 35t-66 121q-185 -176 -435 -176zM575 76q73 0 151.5 36t145.5 103l50 317q-34 -22 -98 -37t-125 -26.5t-121.5 -31.5t-102.5 -63.5t-53 -109.5
q-13 -91 30.5 -139.5t122.5 -48.5zM1028 1165q-74 0 -220.5 51.5t-195.5 51.5q-53 0 -81 -17.5t-35 -60.5h-31q12 140 63.5 194t130.5 54q72 0 219 -50.5t199 -50.5t81.5 18t35.5 60h31q-10 -124 -66 -187t-131 -63z" />
    <glyph glyph-name="adieresis" unicode="&#xe4;" horiz-adv-x="1304" 
d="M442 -20q-97 0 -173 32t-115.5 94t-26.5 142q10 63 44.5 110t83.5 73.5t112 45t128 26.5t132.5 16.5t124.5 16t105.5 24t74.5 40.5q10 72 8.5 127.5t-18 96.5t-40 69t-58 44.5t-71 24t-79.5 7.5q-92 0 -175 -33t-139 -94h-55q70 94 205 148t291 54q97 0 179 -25.5
t144.5 -76t90.5 -136.5t10 -198l-58 -362q-4 -29 -5.5 -52t2.5 -53t16 -50t38.5 -34t65.5 -14l-6 -43h-127q-148 0 -208 35t-66 121q-185 -176 -435 -176zM575 76q73 0 151.5 36t145.5 103l50 317q-34 -22 -98 -37t-125 -26.5t-121.5 -31.5t-102.5 -63.5t-53 -109.5
q-13 -91 30.5 -139.5t122.5 -48.5zM641 1145q-59 0 -91.5 37.5t-23.5 97.5q9 58 54.5 97t101.5 36q56 -2 89 -39.5t24 -93.5q-9 -59 -53.5 -97t-100.5 -38zM997 1145q-59 0 -92 37.5t-24 97.5q9 57 53.5 94t103.5 37q55 0 88.5 -37.5t24.5 -93.5q-9 -59 -54 -97t-100 -38z
" />
    <glyph glyph-name="aring" unicode="&#xe5;" horiz-adv-x="1304" 
d="M442 -20q-97 0 -173 32t-115.5 94t-26.5 142q10 63 44.5 110t83.5 73.5t112 45t128 26.5t132.5 16.5t124.5 16t105.5 24t74.5 40.5q10 72 8.5 127.5t-18 96.5t-40 69t-58 44.5t-71 24t-79.5 7.5q-92 0 -175 -33t-139 -94h-55q70 94 205 148t291 54q97 0 179 -25.5
t144.5 -76t90.5 -136.5t10 -198l-58 -362q-4 -29 -5.5 -52t2.5 -53t16 -50t38.5 -34t65.5 -14l-6 -43h-127q-148 0 -208 35t-66 121q-185 -176 -435 -176zM575 76q73 0 151.5 36t145.5 103l50 317q-34 -22 -98 -37t-125 -26.5t-121.5 -31.5t-102.5 -63.5t-53 -109.5
q-13 -91 30.5 -139.5t122.5 -48.5zM805 1149q-91 0 -146.5 64.5t-40.5 156.5q13 92 89 156.5t167 64.5t146.5 -64.5t42.5 -156.5q-15 -92 -91 -156.5t-167 -64.5zM815 1212q65 0 118.5 46t63.5 112q10 64 -29 110t-104 46q-63 0 -116.5 -46t-63.5 -110q-10 -65 28.5 -111.5
t102.5 -46.5z" />
    <glyph glyph-name="ae" unicode="&#xe6;" horiz-adv-x="2041" 
d="M485 -20q-79 1 -144.5 19.5t-118 56.5t-75.5 105t-8 156q39 255 350 314q90 15 222 16.5t233 -2.5q15 165 -45.5 247.5t-204.5 82.5q-100 0 -186 -39t-141 -119h-62q157 227 473 227q262 0 371 -157q177 157 442 157q107 1 194.5 -27t151 -83t93 -144t16.5 -204h-801
q-12 -51 -14 -74q-34 -214 41 -334.5t256 -126.5q115 -3 220.5 50.5t156.5 140.5h61q-86 -123 -224.5 -192.5t-307.5 -69.5q-161 0 -278 56t-179 159q-200 -218 -492 -215zM608 57q92 0 185 47.5t161 131.5q-48 113 -26 276l12 78q-18 0 -70.5 0.5t-73.5 0t-63 -2t-66 -5
t-54 -11t-54 -17.5q-71 -29 -112 -83t-56 -146q-21 -129 42 -199t175 -70zM1769 643q11 157 -36 250.5t-152 93.5q-108 0 -192 -95t-129 -249h509z" />
    <glyph glyph-name="ccedilla" unicode="&#xe7;" horiz-adv-x="1173" 
d="M506 -440q47 0 79 27.5t42 68.5q10 48 -22 88t-111 53l141 183q-242 6 -372.5 152t-92.5 380q38 241 221.5 387.5t437.5 144.5q291 0 390 -204h-58q-41 74 -114 108t-158 31q-159 -3 -270 -131.5t-144 -335.5t37.5 -335.5t226.5 -131.5q85 -3 169.5 31t148.5 108h57
q-151 -190 -416 -204l-92 -109q58 -3 99 -21.5t60.5 -47t26.5 -58t3 -59.5q-12 -71 -68.5 -119.5t-126 -62t-139.5 7.5t-107 75l21 25q64 -51 131 -51z" />
    <glyph glyph-name="egrave" unicode="&#xe8;" horiz-adv-x="1284" 
d="M676 -20q-265 0 -405 145t-101 387q38 243 222.5 388.5t441.5 143.5q108 1 196 -27t151 -83t92 -144t15 -204h-799q-11 -34 -14 -74q-34 -212 46.5 -333.5t262.5 -127.5q115 -3 220.5 50.5t156.5 140.5h62q-86 -125 -226.5 -193.5t-320.5 -68.5zM1010 643
q14 155 -34.5 249.5t-152.5 94.5q-112 0 -198.5 -106t-130.5 -273zM696 1438q-45 55 -4 108q32 42 87 47q63 6 87 -48q4 -9 6 -19l86 -377h-20z" />
    <glyph glyph-name="eacute" unicode="&#xe9;" horiz-adv-x="1284" 
d="M676 -20q-265 0 -405 145t-101 387q38 243 222.5 388.5t441.5 143.5q108 1 196 -27t151 -83t92 -144t15 -204h-799q-11 -34 -14 -74q-34 -212 46.5 -333.5t262.5 -127.5q115 -3 220.5 50.5t156.5 140.5h62q-86 -125 -226.5 -193.5t-320.5 -68.5zM1010 643
q14 155 -34.5 249.5t-152.5 94.5q-112 0 -198.5 -106t-130.5 -273zM946 1520q36 67 101 68q52 0 78 -37q32 -46 -14 -100q-8 -10 -19 -19l-332 -289h-21z" />
    <glyph glyph-name="ecircumflex" unicode="&#xea;" horiz-adv-x="1284" 
d="M676 -20q-265 0 -405 145t-101 387q38 243 222.5 388.5t441.5 143.5q108 1 196 -27t151 -83t92 -144t15 -204h-799q-11 -34 -14 -74q-34 -212 46.5 -333.5t262.5 -127.5q115 -3 220.5 50.5t156.5 140.5h62q-86 -125 -226.5 -193.5t-320.5 -68.5zM1010 643
q14 155 -34.5 249.5t-152.5 94.5q-112 0 -198.5 -106t-130.5 -273zM803 1520q21 37 52 54.5t60 15.5t53.5 -20.5t35.5 -49.5l110 -377h-20l-207 284l-299 -284h-21z" />
    <glyph glyph-name="edieresis" unicode="&#xeb;" horiz-adv-x="1284" 
d="M676 -20q-265 0 -405 145t-101 387q38 243 222.5 388.5t441.5 143.5q108 1 196 -27t151 -83t92 -144t15 -204h-799q-11 -34 -14 -74q-34 -212 46.5 -333.5t262.5 -127.5q115 -3 220.5 50.5t156.5 140.5h62q-86 -125 -226.5 -193.5t-320.5 -68.5zM1010 643
q14 155 -34.5 249.5t-152.5 94.5q-112 0 -198.5 -106t-130.5 -273zM674 1137q-59 0 -91.5 37.5t-23.5 97.5q9 58 54.5 97t103.5 36q55 -2 87 -39.5t23 -93.5q-9 -59 -53 -97t-100 -38zM1030 1137q-59 0 -92.5 38t-24.5 97q9 57 54 94t104 37q55 0 88.5 -37.5t24.5 -93.5
q-9 -59 -54 -97t-100 -38z" />
    <glyph glyph-name="igrave" unicode="&#xec;" horiz-adv-x="589" 
d="M307 778q30 203 -125 203l6 43h136q63 0 109.5 -7t78 -18.5t50.5 -34.5t28 -45t9.5 -61t-3 -72.5t-12.5 -87.5l-111 -698h-289zM256 1440q-45 55 -4 108q32 42 87 47q63 6 87 -48q4 -9 6 -19l86 -377h-20z" />
    <glyph glyph-name="iacute" unicode="&#xed;" horiz-adv-x="589" 
d="M307 778q30 203 -125 203l6 43h136q63 0 109.5 -7t78 -18.5t50.5 -34.5t28 -45t9.5 -61t-3 -72.5t-12.5 -87.5l-111 -698h-289zM487 1526q36 67 101 68q52 0 78 -37q32 -46 -14 -100q-8 -10 -19 -19l-330 -289h-20z" />
    <glyph glyph-name="icircumflex" unicode="&#xee;" horiz-adv-x="589" 
d="M307 778q30 203 -125 203l6 43h136q63 0 109.5 -7t78 -18.5t50.5 -34.5t28 -45t9.5 -61t-3 -72.5t-12.5 -87.5l-111 -698h-289zM403 1524q22 37 53 54.5t59.5 15.5t53 -20.5t35.5 -49.5l113 -377h-21l-207 285l-299 -285h-20z" />
    <glyph glyph-name="idieresis" unicode="&#xef;" horiz-adv-x="589" 
d="M307 778q30 203 -125 203l6 43h136q63 0 109.5 -7t78 -18.5t50.5 -34.5t28 -45t9.5 -61t-3 -72.5t-12.5 -87.5l-111 -698h-289zM287 1145q-59 0 -91.5 37.5t-23.5 97.5q9 58 54.5 97t101.5 36q56 -2 88.5 -39.5t23.5 -93.5q-9 -59 -53 -97t-100 -38zM643 1145
q-59 0 -92.5 38t-24.5 97q9 57 54 94t104 37q55 0 88.5 -37.5t24.5 -93.5q-9 -59 -54 -97t-100 -38z" />
    <glyph glyph-name="eth" unicode="&#xf0;" horiz-adv-x="1236" 
d="M612 -20q-89 0 -163 21t-124 57.5t-87.5 86t-54 106.5t-23 120t5.5 125q17 104 65.5 195.5t122 160.5t177 109t223.5 40q147 0 223 -94q-15 202 -109 346l-151 -79l-17 38l144 76q-102 130 -256 150l8 43q224 -12 381 -123l170 90l16 -39l-147 -78q143 -116 204 -298.5
t29 -397.5q-19 -126 -71.5 -242t-132 -209t-192.5 -148.5t-241 -55.5zM623 35q83 0 153 77t116.5 203t72.5 291q14 92 14 203q-29 64 -83 98.5t-120 34.5q-84 0 -152 -65.5t-107.5 -164t-57.5 -220.5q-16 -94 -13 -177.5t20 -145.5t57 -98t100 -36z" />
    <glyph glyph-name="ntilde" unicode="&#xf1;" horiz-adv-x="1341" 
d="M307 778q30 203 -125 203l6 43h136q145 0 204.5 -34t65.5 -120q201 174 436 174q164 0 248 -87.5t55 -276.5l-108 -680h-289l100 639q13 89 15 158.5t-33.5 112t-112.5 42.5q-75 0 -156.5 -34.5t-146.5 -98.5l-129 -819h-289zM1067 1155q-74 0 -220.5 51t-195.5 51
q-53 0 -81 -17t-35 -60h-31q6 73 24 123.5t45.5 76.5t57 36.5t67.5 10.5q72 0 220 -50t200 -50t81 17.5t36 60.5h31q-11 -124 -67.5 -187t-131.5 -63z" />
    <glyph glyph-name="ograve" unicode="&#xf2;" horiz-adv-x="1363" 
d="M678 -20q-266 0 -406.5 143t-101.5 389q25 163 120 284.5t239 184.5t319 63q266 0 407 -143t103 -389q-26 -163 -121 -284.5t-239.5 -184.5t-319.5 -63zM688 39q73 0 136 38t108 104.5t76 150t47 180.5q17 94 11 180t-29.5 151t-74.5 103.5t-124 38.5t-135.5 -38
t-107 -104.5t-75 -150t-45.5 -180.5q-18 -94 -12.5 -180t28 -151t73.5 -103.5t124 -38.5zM662 1436q-45 55 -4 108q32 42 87 47q63 6 87 -48q4 -9 6 -19l86 -377h-21z" />
    <glyph glyph-name="oacute" unicode="&#xf3;" horiz-adv-x="1363" 
d="M678 -20q-266 0 -406.5 143t-101.5 389q25 163 120 284.5t239 184.5t319 63q266 0 407 -143t103 -389q-26 -163 -121 -284.5t-239.5 -184.5t-319.5 -63zM688 39q73 0 136 38t108 104.5t76 150t47 180.5q17 94 11 180t-29.5 151t-74.5 103.5t-124 38.5t-135.5 -38
t-107 -104.5t-75 -150t-45.5 -180.5q-18 -94 -12.5 -180t28 -151t73.5 -103.5t124 -38.5zM1006 1524q36 67 102 68q51 0 76 -38q32 -46 -15 -100q-8 -9 -18 -18l-330 -289h-20z" />
    <glyph glyph-name="ocircumflex" unicode="&#xf4;" horiz-adv-x="1363" 
d="M678 -20q-266 0 -406.5 143t-101.5 389q25 163 120 284.5t239 184.5t319 63q266 0 407 -143t103 -389q-26 -163 -121 -284.5t-239.5 -184.5t-319.5 -63zM688 39q73 0 136 38t108 104.5t76 150t47 180.5q17 94 11 180t-29.5 151t-74.5 103.5t-124 38.5t-135.5 -38
t-107 -104.5t-75 -150t-45.5 -180.5q-18 -94 -12.5 -180t28 -151t73.5 -103.5t124 -38.5zM813 1528q22 37 53.5 54.5t60 15.5t53 -20.5t34.5 -49.5l112 -377h-20l-207 285l-299 -285h-20z" />
    <glyph glyph-name="otilde" unicode="&#xf5;" horiz-adv-x="1363" 
d="M678 -20q-266 0 -406.5 143t-101.5 389q25 163 120 284.5t239 184.5t319 63q266 0 407 -143t103 -389q-26 -163 -121 -284.5t-239.5 -184.5t-319.5 -63zM688 39q73 0 136 38t108 104.5t76 150t47 180.5q17 94 11 180t-29.5 151t-74.5 103.5t-124 38.5t-135.5 -38
t-107 -104.5t-75 -150t-45.5 -180.5q-18 -94 -12.5 -180t28 -151t73.5 -103.5t124 -38.5zM1069 1149q-74 0 -220.5 51t-195.5 51q-54 0 -82 -17t-34 -60h-31q11 140 62.5 193.5t131.5 53.5q72 0 219 -50t199 -50t81.5 18t35.5 60h31q-10 -124 -66 -187t-131 -63z" />
    <glyph glyph-name="odieresis" unicode="&#xf6;" horiz-adv-x="1363" 
d="M678 -20q-266 0 -406.5 143t-101.5 389q25 163 120 284.5t239 184.5t319 63q266 0 407 -143t103 -389q-26 -163 -121 -284.5t-239.5 -184.5t-319.5 -63zM688 39q73 0 136 38t108 104.5t76 150t47 180.5q17 94 11 180t-29.5 151t-74.5 103.5t-124 38.5t-135.5 -38
t-107 -104.5t-75 -150t-45.5 -180.5q-18 -94 -12.5 -180t28 -151t73.5 -103.5t124 -38.5zM688 1147q-59 0 -91.5 37.5t-23.5 97.5q9 58 54.5 97t101.5 36q56 -2 89 -39.5t24 -93.5q-9 -59 -53.5 -97t-100.5 -38zM1044 1147q-59 0 -92 37.5t-24 97.5q9 57 53.5 94t103.5 37
q55 0 88.5 -37.5t24.5 -93.5q-9 -59 -54 -97t-100 -38z" />
    <glyph glyph-name="divide" unicode="&#xf7;" horiz-adv-x="1060" 
d="M211 682l12 86h897l-12 -86h-897zM588 274q-54 0 -84 35.5t-21 89.5q8 51 49 87t95 36q52 0 81 -35.5t21 -87.5q-9 -54 -49 -89.5t-92 -35.5zM690 918q-53 0 -83.5 35t-22.5 87q9 54 50 88.5t95 34.5q53 0 81 -34.5t19 -88.5q-8 -51 -47.5 -86.5t-91.5 -35.5z" />
    <glyph glyph-name="oslash" unicode="&#xf8;" horiz-adv-x="1363" 
d="M219 -8l94 94q-90 69 -128 178.5t-15 247.5q25 163 120 284.5t239 184.5t319 63q207 0 334 -83l71 69h68l-100 -98q86 -70 122 -177t15 -243q-26 -163 -121 -284.5t-239.5 -184.5t-319.5 -63q-193 0 -326 79l-69 -67h-64zM688 39q73 0 136 38t108 104.5t76 150t47 180.5
q22 147 2 254l-572 -571q55 -156 203 -156zM475 512q-25 -152 -2 -266l571 575q-55 164 -206 164q-73 0 -135.5 -38t-107 -104.5t-75 -150t-45.5 -180.5z" />
    <glyph glyph-name="ugrave" unicode="&#xf9;" horiz-adv-x="1341" 
d="M541 -20q-79 0 -139.5 20t-103.5 62.5t-58.5 114.5t0.5 169l67 432q30 203 -125 203l6 43h136q63 0 109.5 -7t78 -18.5t50.5 -34.5t28 -45t9.5 -61t-3 -72.5t-12.5 -87.5l-49 -313q-13 -88 -15 -157.5t33.5 -112.5t112.5 -43q75 0 155 35t148 100l90 571q30 203 -125 203
l6 43h135q63 0 109.5 -7t78 -18.5t50.5 -34.5t28 -45t9.5 -61t-3 -72.5t-12.5 -87.5l-110 -698h-279l25 150q-96 -82 -208 -126t-222 -44zM614 1434q-45 55 -5 107q33 42 88 48q63 7 87 -47q4 -9 7 -20l86 -377h-21z" />
    <glyph glyph-name="uacute" unicode="&#xfa;" horiz-adv-x="1341" 
d="M541 -20q-79 0 -139.5 20t-103.5 62.5t-58.5 114.5t0.5 169l67 432q30 203 -125 203l6 43h136q63 0 109.5 -7t78 -18.5t50.5 -34.5t28 -45t9.5 -61t-3 -72.5t-12.5 -87.5l-49 -313q-13 -88 -15 -157.5t33.5 -112.5t112.5 -43q75 0 155 35t148 100l90 571q30 203 -125 203
l6 43h135q63 0 109.5 -7t78 -18.5t50.5 -34.5t28 -45t9.5 -61t-3 -72.5t-12.5 -87.5l-110 -698h-279l25 150q-96 -82 -208 -126t-222 -44zM973 1524q36 67 102 68q51 0 76 -38q32 -46 -15 -100q-8 -9 -18 -18l-330 -289h-20z" />
    <glyph glyph-name="ucircumflex" unicode="&#xfb;" horiz-adv-x="1341" 
d="M541 -20q-79 0 -139.5 20t-103.5 62.5t-58.5 114.5t0.5 169l67 432q30 203 -125 203l6 43h136q63 0 109.5 -7t78 -18.5t50.5 -34.5t28 -45t9.5 -61t-3 -72.5t-12.5 -87.5l-49 -313q-13 -88 -15 -157.5t33.5 -112.5t112.5 -43q75 0 155 35t148 100l90 571q30 203 -125 203
l6 43h135q63 0 109.5 -7t78 -18.5t50.5 -34.5t28 -45t9.5 -61t-3 -72.5t-12.5 -87.5l-110 -698h-279l25 150q-96 -82 -208 -126t-222 -44zM797 1528q22 37 53 54.5t60 15.5t53 -20.5t34 -49.5l113 -377h-20l-207 285l-299 -285h-21z" />
    <glyph glyph-name="udieresis" unicode="&#xfc;" horiz-adv-x="1341" 
d="M541 -20q-79 0 -139.5 20t-103.5 62.5t-58.5 114.5t0.5 169l67 432q30 203 -125 203l6 43h136q63 0 109.5 -7t78 -18.5t50.5 -34.5t28 -45t9.5 -61t-3 -72.5t-12.5 -87.5l-49 -313q-13 -88 -15 -157.5t33.5 -112.5t112.5 -43q75 0 155 35t148 100l90 571q30 203 -125 203
l6 43h135q63 0 109.5 -7t78 -18.5t50.5 -34.5t28 -45t9.5 -61t-3 -72.5t-12.5 -87.5l-110 -698h-279l25 150q-96 -82 -208 -126t-222 -44zM672 1139q-59 0 -91 38t-22 97q8 58 53 97t103 36q56 -2 87.5 -39t24.5 -94q-10 -59 -54.5 -97t-100.5 -38zM1028 1139q-59 0 -92 38
t-23 97q7 56 53 93.5t105 37.5q55 0 87.5 -37.5t25.5 -93.5q-10 -59 -55.5 -97t-100.5 -38z" />
    <glyph glyph-name="yacute" unicode="&#xfd;" horiz-adv-x="1232" 
d="M340 -512l281 475l-250 776q-35 119 -62 163q-49 79 -131 79l6 43h230q65 -1 107 -12.5t71.5 -42t47.5 -69t40 -107.5l145 -488l422 719h66l-905 -1536h-68zM1018 1524q36 67 102 68q51 0 76 -38q32 -46 -15 -100q-8 -9 -18 -18l-329 -289h-21z" />
    <glyph glyph-name="thorn" unicode="&#xfe;" horiz-adv-x="1390" 
d="M381 1241q30 203 -125 205l6 43h135q55 0 97.5 -4.5t73 -16t51.5 -25t32.5 -37t17 -45t4.5 -56.5t-4.5 -65t-11.5 -77l-45 -284q69 77 167 121t202 44q135 0 234.5 -62.5t146.5 -185t22 -284.5q-39 -243 -202 -387.5t-371 -144.5q-102 0 -186 44.5t-129 118.5l-113 -716
h-289zM733 66q87 0 161.5 62.5t121.5 162.5t67 221q16 87 8.5 167.5t-31 142t-72 98t-114.5 36.5q-88 0 -163.5 -61t-122.5 -170l-68 -426q12 -106 69.5 -169.5t143.5 -63.5z" />
    <glyph glyph-name="ydieresis" unicode="&#xff;" horiz-adv-x="1232" 
d="M340 -512l281 475l-250 776q-35 119 -62 163q-49 79 -131 79l6 43h230q65 -1 107 -12.5t71.5 -42t47.5 -69t40 -107.5l145 -488l422 719h66l-905 -1536h-68zM713 1147q-59 0 -91.5 37.5t-23.5 97.5q9 58 54.5 97t101.5 36q56 -2 88.5 -39.5t23.5 -93.5q-9 -59 -53 -97
t-100 -38zM1069 1147q-59 0 -92.5 38t-24.5 97q9 57 54 94t104 37q55 0 88.5 -37.5t24.5 -93.5q-9 -59 -54 -97t-100 -38z" />
    <glyph glyph-name="Amacron" unicode="&#x100;" horiz-adv-x="1486" 
d="M786 1294q-26 47 -60.5 72t-90.5 25l6 43h182q141 0 217.5 -54.5t102.5 -181.5l254 -1198h-316l-98 457h-582l-245 -457h-68zM434 516h537l-125 584q-19 92 -29 127zM631 1559l12 81h686l-12 -81h-686z" />
    <glyph glyph-name="amacron" unicode="&#x101;" horiz-adv-x="1304" 
d="M442 -20q-97 0 -173 32t-115.5 94t-26.5 142q10 63 44.5 110t83.5 73.5t112 45t128 26.5t132.5 16.5t124.5 16t105.5 24t74.5 40.5q10 72 8.5 127.5t-18 96.5t-40 69t-58 44.5t-71 24t-79.5 7.5q-92 0 -175 -33t-139 -94h-55q70 94 205 148t291 54q97 0 179 -25.5
t144.5 -76t90.5 -136.5t10 -198l-58 -362q-4 -29 -5.5 -52t2.5 -53t16 -50t38.5 -34t65.5 -14l-6 -43h-127q-148 0 -208 35t-66 121q-185 -176 -435 -176zM575 76q73 0 151.5 36t145.5 103l50 317q-34 -22 -98 -37t-125 -26.5t-121.5 -31.5t-102.5 -63.5t-53 -109.5
q-13 -91 30.5 -139.5t122.5 -48.5zM457 1169l14 82h686l-14 -82h-686z" />
    <glyph glyph-name="Abreve" unicode="&#x102;" horiz-adv-x="1486" 
d="M786 1294q-26 47 -60.5 72t-90.5 25l6 43h182q141 0 217.5 -54.5t102.5 -181.5l254 -1198h-316l-98 457h-582l-245 -457h-68zM434 516h537l-125 584q-19 92 -29 127zM971 1536q-65 0 -117 18.5t-91 57.5t-55.5 107t-5.5 159h27q-5 -59 33 -99.5t98.5 -57.5t136.5 -17
q77 0 143 17t116.5 57.5t64.5 99.5h27q-17 -91 -54.5 -159t-88.5 -107t-109.5 -57.5t-124.5 -18.5z" />
    <glyph glyph-name="abreve" unicode="&#x103;" horiz-adv-x="1304" 
d="M442 -20q-97 0 -173 32t-115.5 94t-26.5 142q10 63 44.5 110t83.5 73.5t112 45t128 26.5t132.5 16.5t124.5 16t105.5 24t74.5 40.5q10 72 8.5 127.5t-18 96.5t-40 69t-58 44.5t-71 24t-79.5 7.5q-92 0 -175 -33t-139 -94h-55q70 94 205 148t291 54q97 0 179 -25.5
t144.5 -76t90.5 -136.5t10 -198l-58 -362q-4 -29 -5.5 -52t2.5 -53t16 -50t38.5 -34t65.5 -14l-6 -43h-127q-148 0 -208 35t-66 121q-185 -176 -435 -176zM575 76q73 0 151.5 36t145.5 103l50 317q-34 -22 -98 -37t-125 -26.5t-121.5 -31.5t-102.5 -63.5t-53 -109.5
q-13 -91 30.5 -139.5t122.5 -48.5zM797 1153q-137 0 -213.5 82.5t-53.5 259.5h27q-8 -87 69.5 -130.5t196.5 -43.5q120 0 212 43.5t114 130.5h27q-35 -178 -137.5 -260t-241.5 -82z" />
    <glyph glyph-name="Aogonek" unicode="&#x104;" horiz-adv-x="1486" 
d="M786 1294q-26 47 -60.5 72t-90.5 25l6 43h182q141 0 217.5 -54.5t102.5 -181.5l254 -1198h-113q-104 -133 -74 -245q19 -74 88 -104q77 -33 155 16q4 3 7 5l10 -12q-112 -108 -239 -124q-107 -14 -160 44q-64 71 -2 203q46 100 160 217h-148l-98 457h-582l-245 -457h-68z
M434 516h537l-125 584q-19 92 -29 127z" />
    <glyph glyph-name="aogonek" unicode="&#x105;" horiz-adv-x="1304" 
d="M442 -20q-97 0 -173 32t-115.5 94t-26.5 142q10 63 44.5 110t83.5 73.5t112 45t128 26.5t132.5 16.5t124.5 16t105.5 24t74.5 40.5q10 72 8.5 127.5t-18 96.5t-40 69t-58 44.5t-71 24t-79.5 7.5q-92 0 -175 -33t-139 -94h-55q70 94 205 148t291 54q97 0 179 -25.5
t144.5 -76t90.5 -136.5t10 -198l-58 -362q-4 -29 -5.5 -52t2.5 -53t16 -50t38.5 -34t65.5 -14l-6 -43h-127h-23q-116 -135 -93 -252q16 -78 83 -111q74 -36 152 7l16 10l10 -12q-110 -107 -237 -124q-108 -15 -161 44q-63 70 -2 203q50 109 179 237q-103 7 -147.5 43.5
t-50.5 110.5q-185 -176 -435 -176zM575 76q73 0 151.5 36t145.5 103l50 317q-34 -22 -98 -37t-125 -26.5t-121.5 -31.5t-102.5 -63.5t-53 -109.5q-13 -91 30.5 -139.5t122.5 -48.5z" />
    <glyph glyph-name="Cacute" unicode="&#x106;" horiz-adv-x="1587" 
d="M897 -20q-119 1 -226 31.5t-194 91t-145.5 149.5t-80.5 206t1 261q28 174 113.5 316t206.5 232.5t265 139t296 49.5q95 1 176 -15.5t154 -53t128.5 -101t87.5 -153.5h-63q-34 90 -107 150.5t-152.5 84t-160.5 21.5q-245 -3 -417.5 -181.5t-221.5 -488.5
q-50 -310 66 -488.5t362 -183.5q79 -1 165.5 22.5t179 84t153.5 149.5h63q-214 -323 -649 -323zM1221 1911q36 67 102 68q51 0 76 -38q32 -46 -15 -100q-8 -9 -18 -18l-330 -289h-20z" />
    <glyph glyph-name="cacute" unicode="&#x107;" horiz-adv-x="1173" 
d="M659 -20q-254 -2 -390.5 144.5t-98.5 387.5t221.5 387.5t437.5 144.5q291 0 390 -204h-58q-41 74 -114 108t-158 31q-159 -3 -270 -131.5t-144 -335.5t37.5 -335.5t226.5 -131.5q85 -3 169.5 31t148.5 108h57q-162 -204 -455 -204zM954 1528q36 67 101 68q52 0 78 -37
q32 -46 -14 -100q-8 -10 -19 -19l-330 -289h-20z" />
    <glyph glyph-name="Cdotaccent" unicode="&#x10a;" horiz-adv-x="1587" 
d="M897 -20q-119 1 -226 31.5t-194 91t-145.5 149.5t-80.5 206t1 261q28 174 113.5 316t206.5 232.5t265 139t296 49.5q95 1 176 -15.5t154 -53t128.5 -101t87.5 -153.5h-63q-34 90 -107 150.5t-152.5 84t-160.5 21.5q-245 -3 -417.5 -181.5t-221.5 -488.5
q-50 -310 66 -488.5t362 -183.5q79 -1 165.5 22.5t179 84t153.5 149.5h63q-214 -323 -649 -323zM1147 1530q-59 0 -90.5 37.5t-22.5 95.5q7 57 52 94t104 37q56 0 88 -37t25 -94q-9 -58 -54.5 -95.5t-101.5 -37.5z" />
    <glyph glyph-name="cdotaccent" unicode="&#x10b;" horiz-adv-x="1173" 
d="M659 -20q-254 -2 -390.5 144.5t-98.5 387.5t221.5 387.5t437.5 144.5q291 0 390 -204h-58q-41 74 -114 108t-158 31q-159 -3 -270 -131.5t-144 -335.5t37.5 -335.5t226.5 -131.5q85 -3 169.5 31t148.5 108h57q-162 -204 -455 -204zM848 1139q-59 0 -91.5 37.5t-23.5 95.5
q9 57 53 94t103 37q56 0 88.5 -37.5t23.5 -93.5q-9 -58 -53 -95.5t-100 -37.5z" />
    <glyph glyph-name="Ccaron" unicode="&#x10c;" horiz-adv-x="1593" 
d="M897 -20q-119 1 -226 31.5t-194 91t-145.5 149.5t-80.5 206t1 261q28 174 113.5 316t206.5 232.5t265 139t296 49.5q95 1 176 -15.5t154 -53t128.5 -101t87.5 -153.5h-63q-34 90 -107 150.5t-152.5 84t-160.5 21.5q-245 -3 -417.5 -181.5t-221.5 -488.5
q-50 -310 66 -488.5t362 -183.5q79 -1 165.5 22.5t179 84t153.5 149.5h63q-214 -323 -649 -323zM1075 1604l-114 376h20l209 -284l297 284h20l-231 -376q-26 -42 -68 -60.5t-80.5 -3.5t-52.5 64z" />
    <glyph glyph-name="ccaron" unicode="&#x10d;" horiz-adv-x="1214" 
d="M659 -20q-254 -2 -390.5 144.5t-98.5 387.5t221.5 387.5t437.5 144.5q291 0 390 -204h-58q-41 74 -114 108t-158 31q-159 -3 -270 -131.5t-144 -335.5t37.5 -335.5t226.5 -131.5q85 -3 169.5 31t148.5 108h57q-162 -204 -455 -204zM762 1219l-115 376h21l209 -284
l297 284h20l-231 -376q-26 -42 -68 -60.5t-80.5 -3.5t-52.5 64z" />
    <glyph glyph-name="Dcaron" unicode="&#x10e;" horiz-adv-x="1613" 
d="M530 0q-126 0 -198.5 21.5t-101.5 65.5t-31 110.5t14 156.5l131 820q33 217 -106 217l6 43h653q107 0 199.5 -16t163 -45.5t128 -71t95.5 -92t66 -109t38 -121.5t12.5 -130t-10.5 -134q-17 -110 -60.5 -211.5t-120.5 -194t-179.5 -160.5t-246 -108.5t-312.5 -40.5h-140z
M672 59q112 2 207.5 41.5t162.5 102t118.5 149t81.5 177t46 190.5q13 84 13.5 160.5t-11.5 152t-44 136t-80.5 107.5t-124.5 73t-173 26h-260q34 -33 36.5 -103.5t-13.5 -140.5l-142 -892q-14 -99 14.5 -139t125.5 -40h43zM813 1604l-115 376h21l209 -284l297 284h20
l-231 -376q-26 -42 -68 -60.5t-80.5 -3.5t-52.5 64z" />
    <glyph glyph-name="dcaron" unicode="&#x10f;" horiz-adv-x="1325" 
d="M571 -20q-204 0 -321.5 145t-79.5 387q19 122 74 223.5t132.5 168.5t171.5 103.5t193 36.5q105 0 189 -43.5t127 -119.5l57 360q30 203 -123 205l6 43h136q55 0 97.5 -4.5t73 -16t51.5 -25t32.5 -37t17 -45t4.5 -56.5t-4.5 -65t-11.5 -77l-185 -1163h-276l26 162
q-71 -84 -173.5 -133t-213.5 -49zM678 66q87 0 164 63t123 170l67 426q-12 109 -68.5 170t-144.5 61q-87 0 -161 -63t-121 -162.5t-66 -218.5q-17 -89 -9.5 -170t31 -142.5t71.5 -97.5t114 -36zM1155 1628l-115 377h21l209 -285l297 285h20l-231 -377q-27 -42 -69 -60.5
t-80 -3.5t-52 64z" />
    <glyph glyph-name="Dcroat" unicode="&#x110;" horiz-adv-x="1613" 
d="M530 0q-126 0 -198.5 21.5t-101.5 65.5t-31 110.5t14 156.5l55 338h-143l8 64h143l68 418q33 217 -106 217l6 43h653q121 0 223.5 -21t177 -58.5t133 -90t92.5 -115.5t55 -134t21 -146.5t-10 -153.5q-17 -110 -60.5 -211.5t-120.5 -194t-179.5 -160.5t-246 -108.5
t-312.5 -40.5h-140zM655 59q114 2 211 41.5t165.5 102.5t121 148.5t83 176.5t46.5 191q13 84 13 161t-13 152t-45 136t-81.5 107.5t-125.5 72.5t-172 26h-250q34 -33 36.5 -103.5t-13.5 -140.5l-60 -374h168l-8 -64h-168l-74 -454q-14 -99 14.5 -139t125.5 -40h26z" />
    <glyph glyph-name="dcroat" unicode="&#x111;" horiz-adv-x="1325" 
d="M571 -20q-204 0 -321.5 145t-79.5 387q19 122 74 223.5t132.5 168.5t171.5 103.5t193 36.5q105 0 189 -43.5t127 -119.5l45 284h-96l10 64h96l2 12q30 203 -123 205l6 43h136q98 0 157 -16t85 -48.5t31.5 -81.5t-3.5 -114h125l-10 -64h-125v-2l-185 -1163h-276l26 162
q-71 -84 -173.5 -133t-213.5 -49zM678 66q87 0 164 63t123 170l67 426q-12 109 -68.5 170t-144.5 61q-87 0 -161 -63t-121 -162.5t-66 -218.5q-17 -89 -9.5 -170t31 -142.5t71.5 -97.5t114 -36z" />
    <glyph glyph-name="Emacron" unicode="&#x112;" horiz-adv-x="1361" 
d="M530 0q-166 0 -241.5 38.5t-84.5 119t11 204.5l131 826q30 203 -123 203l6 43h791q182 0 212 -4q58 -7 78 -42q15 -26 36 -132q7 -38 12 -62h-66q-5 20 -12 53q-18 77 -33 96q-20 26 -86 30q-28 1 -111 1h-38h-408q37 -37 39 -111t-14 -151l-54 -342h588l-10 -59h-588
l-76 -473q-14 -98 18 -138.5t134 -40.5h213q162 0 195 6q53 9 86 50q16 21 81 136q11 19 21 36h63q-14 -25 -37 -70q-69 -127 -97 -159q-38 -44 -104 -53q-39 -6 -163 -5h-63h-306zM582 1589l12 82h686l-12 -82h-686z" />
    <glyph glyph-name="emacron" unicode="&#x113;" horiz-adv-x="1284" 
d="M676 -20q-265 0 -405 145t-101 387q38 243 222.5 388.5t441.5 143.5q108 1 196 -27t151 -83t92 -144t15 -204h-799q-11 -34 -14 -74q-34 -212 46.5 -333.5t262.5 -127.5q115 -3 220.5 50.5t156.5 140.5h62q-86 -125 -226.5 -193.5t-320.5 -68.5zM1010 643
q14 155 -34.5 249.5t-152.5 94.5q-112 0 -198.5 -106t-130.5 -273zM516 1182l14 82h687l-15 -82h-686z" />
    <glyph glyph-name="Edotaccent" unicode="&#x116;" horiz-adv-x="1361" 
d="M530 0q-166 0 -241.5 38.5t-84.5 119t11 204.5l131 826q30 203 -123 203l6 43h791q182 0 212 -4q58 -7 78 -42q15 -26 36 -132q7 -38 12 -62h-66q-5 20 -12 53q-18 77 -33 96q-20 26 -86 30q-28 1 -111 1h-38h-408q37 -37 39 -111t-14 -151l-54 -342h588l-10 -59h-588
l-76 -473q-14 -98 18 -138.5t134 -40.5h213q162 0 195 6q53 9 86 50q16 21 81 136q11 19 21 36h63q-14 -25 -37 -70q-69 -127 -97 -159q-38 -44 -104 -53q-39 -6 -163 -5h-63h-306zM913 1534q-59 0 -91 37.5t-23 95.5q9 57 53 94t102 37q56 0 89 -37.5t24 -93.5
q-9 -58 -53.5 -95.5t-100.5 -37.5z" />
    <glyph glyph-name="edotaccent" unicode="&#x117;" horiz-adv-x="1284" 
d="M676 -20q-265 0 -405 145t-101 387q38 243 222.5 388.5t441.5 143.5q108 1 196 -27t151 -83t92 -144t15 -204h-799q-11 -34 -14 -74q-34 -212 46.5 -333.5t262.5 -127.5q115 -3 220.5 50.5t156.5 140.5h62q-86 -125 -226.5 -193.5t-320.5 -68.5zM1010 643
q14 155 -34.5 249.5t-152.5 94.5q-112 0 -198.5 -106t-130.5 -273zM862 1147q-59 0 -91 37.5t-23 95.5q9 57 53 94t102 37q56 0 89 -37.5t24 -93.5q-9 -58 -53.5 -95.5t-100.5 -37.5z" />
    <glyph glyph-name="Eogonek" unicode="&#x118;" horiz-adv-x="1361" 
d="M530 0q-166 0 -241.5 38.5t-84.5 119t11 204.5l131 826q30 203 -123 203l6 43h791q182 0 212 -4q58 -7 78 -42q15 -26 36 -132q7 -38 12 -62h-66q-5 20 -12 53q-18 77 -33 96q-20 26 -86 30q-28 1 -111 1h-38h-408q37 -37 39 -111t-14 -151l-54 -342h588l-10 -59h-588
l-76 -473q-14 -98 18 -138.5t134 -40.5h213q162 0 195 6q53 9 86 50q16 21 81 136q11 19 21 36h63q-14 -25 -37 -70q-69 -127 -97 -159q-38 -44 -104 -53q-39 -6 -163 -5h-63h-101q-104 -133 -74 -245q19 -74 88 -104q77 -33 155 16q4 3 7 5l11 -12q-112 -108 -239 -124
q-108 -14 -161 44q-64 71 -2 203q46 100 160 217h-150z" />
    <glyph glyph-name="eogonek" unicode="&#x119;" horiz-adv-x="1284" 
d="M1010 643q14 155 -34.5 249.5t-152.5 94.5q-112 0 -198.5 -106t-130.5 -273zM883 -379q-111 -108 -239 -124q-108 -14 -161 44q-64 72 -2 205q49 107 176 234q-256 6 -390.5 150.5t-96.5 381.5q38 243 222.5 388.5t441.5 143.5q108 1 196 -27t151 -83t92 -144t15 -204
h-799q-11 -34 -14 -74q-34 -212 46.5 -333.5t262.5 -127.5q115 -3 220.5 50.5t156.5 140.5h62q-80 -118 -211.5 -186.5t-298.5 -75.5q-116 -135 -93 -253q16 -78 84 -111q75 -36 154 8q7 4 14 9z" />
    <glyph glyph-name="Ecaron" unicode="&#x11a;" horiz-adv-x="1361" 
d="M530 0q-166 0 -241.5 38.5t-84.5 119t11 204.5l131 826q30 203 -123 203l6 43h791q182 0 212 -4q58 -7 78 -42q15 -26 36 -132q7 -38 12 -62h-66q-5 20 -12 53q-18 77 -33 96q-20 26 -86 30q-28 1 -111 1h-38h-408q37 -37 39 -111t-14 -151l-54 -342h588l-10 -59h-588
l-76 -473q-14 -98 18 -138.5t134 -40.5h213q162 0 195 6q53 9 86 50q16 21 81 136q11 19 21 36h63q-14 -25 -37 -70q-69 -127 -97 -159q-38 -44 -104 -53q-39 -6 -163 -5h-63h-306zM831 1604l-114 376h20l209 -284l297 284h21l-232 -376q-26 -42 -68 -60.5t-80.5 -3.5
t-52.5 64z" />
    <glyph glyph-name="ecaron" unicode="&#x11b;" horiz-adv-x="1284" 
d="M676 -20q-265 0 -405 145t-101 387q38 243 222.5 388.5t441.5 143.5q108 1 196 -27t151 -83t92 -144t15 -204h-799q-11 -34 -14 -74q-34 -212 46.5 -333.5t262.5 -127.5q115 -3 220.5 50.5t156.5 140.5h62q-86 -125 -226.5 -193.5t-320.5 -68.5zM1010 643
q14 155 -34.5 249.5t-152.5 94.5q-112 0 -198.5 -106t-130.5 -273zM762 1217l-115 376h21l209 -284l297 284h20l-231 -376q-26 -42 -68 -60.5t-80.5 -3.5t-52.5 64z" />
    <glyph glyph-name="Gbreve" unicode="&#x11e;" horiz-adv-x="1693" 
d="M897 -20q-119 1 -226 31.5t-194 91t-145.5 149.5t-80.5 206t1 261q28 174 113.5 316t206.5 232.5t265 139t296 49.5q95 1 176 -15.5t154 -53t128.5 -101t87.5 -153.5h-63q-34 90 -107 150.5t-152.5 84t-160.5 21.5q-245 -3 -417.5 -181.5t-221.5 -488.5q-51 -312 65 -493
t361 -183q164 -3 297 80l61 399q36 203 -120 203l6 43h131q50 0 89.5 -4.5t69.5 -11.5t52 -20.5t36.5 -27.5t22.5 -37t11 -44t1.5 -53t-4.5 -59.5t-10 -68.5l-20 -127q-115 -170 -305 -252.5t-404 -82.5zM1167 1559q-137 0 -214 82.5t-54 259.5h27q-8 -87 70.5 -131
t197.5 -44q120 0 211 44t113 131h26q-35 -178 -136.5 -260t-240.5 -82z" />
    <glyph glyph-name="gbreve" unicode="&#x11f;" horiz-adv-x="1271" 
d="M532 -559q-252 0 -385.5 79.5t-109.5 233.5q14 92 98.5 155.5t214.5 96.5h68q-142 -86 -164 -239q-20 -125 53 -205t232 -80q149 0 257.5 76t129.5 206q10 62 -8.5 109.5t-56.5 76t-89.5 49.5t-107 35.5t-109 29.5t-96.5 35t-68.5 48t-25 73t33.5 106
q-108 46 -157.5 132.5t-30.5 203.5q28 176 184.5 279t388.5 103l37 -2q54 128 162.5 217t233.5 89q84 0 121.5 -40t29.5 -98q-8 -51 -50.5 -90t-100.5 -39q-53 0 -84 38t-23 85q6 38 34 67.5t66 45.5q-105 -1 -199.5 -80.5t-136.5 -196.5q191 -20 288.5 -120.5t72.5 -257.5
q-28 -178 -182.5 -281t-390.5 -105q-81 0 -127.5 8t-94.5 27q-24 -47 -17 -82.5t37.5 -55t79 -35.5t107.5 -24t122.5 -20t125 -23.5t115 -35.5t91.5 -55.5t55.5 -82.5t6.5 -118q-25 -153 -197 -245.5t-434 -92.5zM668 319q114 0 186 97t96 246q13 68 7.5 129t-24 108
t-59 74.5t-98.5 27.5q-113 0 -184.5 -96t-95.5 -243q-12 -94 -3.5 -170t54 -124.5t121.5 -48.5zM836 1389q-137 0 -213.5 82.5t-53.5 259.5h27q-8 -87 69.5 -131t196.5 -44q120 0 212 44t114 131h26q-35 -178 -137 -260t-241 -82z" />
    <glyph glyph-name="Gdotaccent" unicode="&#x120;" horiz-adv-x="1693" 
d="M897 -20q-119 1 -226 31.5t-194 91t-145.5 149.5t-80.5 206t1 261q28 174 113.5 316t206.5 232.5t265 139t296 49.5q95 1 176 -15.5t154 -53t128.5 -101t87.5 -153.5h-63q-34 90 -107 150.5t-152.5 84t-160.5 21.5q-245 -3 -417.5 -181.5t-221.5 -488.5q-51 -312 65 -493
t361 -183q164 -3 297 80l61 399q36 203 -120 203l6 43h131q50 0 89.5 -4.5t69.5 -11.5t52 -20.5t36.5 -27.5t22.5 -37t11 -44t1.5 -53t-4.5 -59.5t-10 -68.5l-20 -127q-115 -170 -305 -252.5t-404 -82.5zM1161 1530q-58 0 -89.5 37t-22.5 96q7 57 51.5 94t103.5 37
q56 0 88 -37t25 -94q-9 -58 -54.5 -95.5t-101.5 -37.5z" />
    <glyph glyph-name="gdotaccent" unicode="&#x121;" horiz-adv-x="1271" 
d="M532 -559q-252 0 -385.5 79.5t-109.5 233.5q14 92 98.5 155.5t214.5 96.5h68q-142 -86 -164 -239q-20 -125 53 -205t232 -80q149 0 257.5 76t129.5 206q10 62 -8.5 109.5t-56.5 76t-89.5 49.5t-107 35.5t-109 29.5t-96.5 35t-68.5 48t-25 73t33.5 106
q-108 46 -157.5 132.5t-30.5 203.5q28 176 184.5 279t388.5 103l37 -2q54 128 162.5 217t233.5 89q84 0 121.5 -40t29.5 -98q-8 -51 -50.5 -90t-100.5 -39q-53 0 -84 38t-23 85q6 38 34 67.5t66 45.5q-105 -1 -199.5 -80.5t-136.5 -196.5q191 -20 288.5 -120.5t72.5 -257.5
q-28 -178 -182.5 -281t-390.5 -105q-81 0 -127.5 8t-94.5 27q-24 -47 -17 -82.5t37.5 -55t79 -35.5t107.5 -24t122.5 -20t125 -23.5t115 -35.5t91.5 -55.5t55.5 -82.5t6.5 -118q-25 -153 -197 -245.5t-434 -92.5zM668 319q114 0 186 97t96 246q13 68 7.5 129t-24 108
t-59 74.5t-98.5 27.5q-113 0 -184.5 -96t-95.5 -243q-12 -94 -3.5 -170t54 -124.5t121.5 -48.5zM856 1395q-59 0 -91.5 37.5t-23.5 95.5q9 57 53 94t103 37q56 0 89 -37.5t24 -93.5q-9 -58 -53.5 -95.5t-100.5 -37.5z" />
    <glyph glyph-name="uni0122" unicode="&#x122;" horiz-adv-x="1693" 
d="M897 -20q-119 1 -226 31.5t-194 91t-145.5 149.5t-80.5 206t1 261q28 174 113.5 316t206.5 232.5t265 139t296 49.5q95 1 176 -15.5t154 -53t128.5 -101t87.5 -153.5h-63q-34 90 -107 150.5t-152.5 84t-160.5 21.5q-245 -3 -417.5 -181.5t-221.5 -488.5q-51 -312 65 -493
t361 -183q164 -3 297 80l61 399q36 203 -120 203l6 43h131q50 0 89.5 -4.5t69.5 -11.5t52 -20.5t36.5 -27.5t22.5 -37t11 -44t1.5 -53t-4.5 -59.5t-10 -68.5l-20 -127q-115 -170 -305 -252.5t-404 -82.5zM811 -557q26 31 46 71t24 74q4 25 -6.5 41.5t-27 27t-32.5 23
t-25.5 36.5t-3.5 59q7 54 49 87.5t89 33.5q56 0 81.5 -39t16.5 -99q-13 -82 -72.5 -180t-115.5 -147z" />
    <glyph glyph-name="uni0123" unicode="&#x123;" horiz-adv-x="1271" 
d="M532 -559q-252 0 -385.5 79.5t-109.5 233.5q14 92 98.5 155.5t214.5 96.5h68q-142 -86 -164 -239q-20 -125 53 -205t232 -80q149 0 257.5 76t129.5 206q10 62 -8.5 109.5t-56.5 76t-89.5 49.5t-107 35.5t-109 29.5t-96.5 35t-68.5 48t-25 73t33.5 106
q-108 46 -157.5 132.5t-30.5 203.5q28 176 184.5 279t388.5 103l37 -2q54 128 162.5 217t233.5 89q84 0 121.5 -40t29.5 -98q-8 -51 -50.5 -90t-100.5 -39q-53 0 -84 38t-23 85q6 38 34 67.5t66 45.5q-105 -1 -199.5 -80.5t-136.5 -196.5q191 -20 288.5 -120.5t72.5 -257.5
q-28 -178 -182.5 -281t-390.5 -105q-81 0 -127.5 8t-94.5 27q-24 -47 -17 -82.5t37.5 -55t79 -35.5t107.5 -24t122.5 -20t125 -23.5t115 -35.5t91.5 -55.5t55.5 -82.5t6.5 -118q-25 -153 -197 -245.5t-434 -92.5zM668 319q114 0 186 97t96 246q13 68 7.5 129t-24 108
t-59 74.5t-98.5 27.5q-113 0 -184.5 -96t-95.5 -243q-12 -94 -3.5 -170t54 -124.5t121.5 -48.5zM954 1831q-58 -69 -71 -145q-4 -25 6.5 -41.5t27 -27t33 -23t26 -36.5t3.5 -59q-9 -54 -49.5 -87.5t-87.5 -33.5q-56 0 -83 39t-18 99q13 82 73.5 179.5t117.5 147.5z" />
    <glyph glyph-name="Hbar" unicode="&#x126;" horiz-adv-x="1505" 
d="M346 1188q30 203 -123 203l6 43h136q134 0 199 -34t74.5 -100.5t-5.5 -164.5l-17 -95h598l64 394h299l-227 -1434h-299l112 715h-598l-112 -715h-295zM575 776h599l32 203h-598z" />
    <glyph glyph-name="hbar" unicode="&#x127;" horiz-adv-x="1341" 
d="M381 1241q30 203 -125 205l6 43h135q137 0 201 -32.5t72 -98.5t-8 -164h108l-10 -64h-109l-37 -243q189 157 416 157q164 0 248 -87.5t55 -276.5l-108 -680h-289l100 639q13 89 15 158.5t-33.5 112t-112.5 42.5q-75 0 -156.5 -34.5t-146.5 -98.5l-129 -819h-289l178 1130
h-104l10 64h105z" />
    <glyph glyph-name="Imacron" unicode="&#x12a;" horiz-adv-x="612" 
d="M346 1188q30 203 -123 203l6 43h136q64 0 110.5 -7.5t78.5 -19t51 -34.5t28.5 -45.5t10 -61.5t-3 -72t-11.5 -86l-176 -1108h-295zM238 1556l14 82h629l-15 -82h-628z" />
    <glyph glyph-name="imacron" unicode="&#x12b;" horiz-adv-x="589" 
d="M307 778q30 203 -125 203l6 43h136q63 0 109.5 -7t78 -18.5t50.5 -34.5t28 -45t9.5 -61t-3 -72.5t-12.5 -87.5l-111 -698h-289zM203 1165l12 82h487l-12 -82h-487z" />
    <glyph glyph-name="Iogonek" unicode="&#x12e;" horiz-adv-x="612" 
d="M346 1188q30 203 -123 203l6 43h136q64 0 110.5 -7.5t78.5 -19t51 -34.5t28.5 -45.5t10 -61.5t-3 -72t-11.5 -86l-176 -1108h-117q-104 -133 -74 -245q19 -74 88 -104q77 -33 155 16q4 3 7 5l10 -12q-112 -108 -239 -124q-107 -14 -160 44q-64 71 -2 203q46 100 160 217
h-123z" />
    <glyph glyph-name="iogonek" unicode="&#x12f;" horiz-adv-x="583" 
d="M307 778q30 203 -125 203l6 43h136q63 0 109.5 -7t78 -18.5t50.5 -34.5t28 -45t9.5 -61t-3 -72.5t-12.5 -87.5l-111 -698h-108q-104 -133 -74 -245q19 -74 88 -104q77 -33 155 16q4 3 7 5l10 -12q-112 -108 -239 -124q-108 -14 -161 44q-64 71 -2 203q46 100 160 217
h-125zM471 1155q-70 0 -111 48.5t-30 117.5q10 69 66.5 116.5t127.5 47.5q68 0 109 -47.5t31 -116.5q-10 -68 -67.5 -117t-125.5 -49z" />
    <glyph glyph-name="Idotaccent" unicode="&#x130;" horiz-adv-x="612" 
d="M346 1188q30 203 -123 203l6 43h136q64 0 110.5 -7.5t78.5 -19t51 -34.5t28.5 -45.5t10 -61.5t-3 -72t-11.5 -86l-176 -1108h-295zM545 1534q-69 0 -107 44.5t-28 113.5q11 66 63 109.5t121 43.5q65 0 103 -44t28 -109q-10 -68 -62.5 -113t-117.5 -45z" />
    <glyph glyph-name="dotlessi" unicode="&#x131;" horiz-adv-x="583" 
d="M307 778q30 203 -125 203l6 43h136q63 0 109.5 -7t78 -18.5t50.5 -34.5t28 -45t9.5 -61t-3 -72.5t-12.5 -87.5l-111 -698h-289z" />
    <glyph glyph-name="uni0136" unicode="&#x136;" horiz-adv-x="1529" 
d="M1446 -10q-43 -6 -71.5 -8.5t-79 -6.5t-87.5 -1t-78 9.5t-71.5 23t-48.5 40.5q-32 40 -43 107t-11 172.5t-4 148.5q-5 47 -11.5 75t-29 64t-59.5 55.5t-104.5 33.5t-163.5 14l897 717h86l-779 -621q121 10 211 -9t142 -63.5t79 -100.5t33 -128q5 -58 7.5 -150.5t8 -150.5
t21.5 -102q20 -50 55 -67t107 -11zM346 1188q30 203 -123 203l6 43h136q64 0 110.5 -7.5t78.5 -19t51 -34.5t28.5 -45.5t10 -61.5t-3 -72t-11.5 -86l-176 -1108h-295zM594 -553q26 31 46 71t24 74q4 25 -6.5 41.5t-27 27t-32.5 23t-25.5 36.5t-3.5 59q9 54 50 87.5t88 33.5
q56 0 82.5 -39t17.5 -99q-13 -82 -73.5 -179.5t-117.5 -147.5z" />
    <glyph glyph-name="uni0137" unicode="&#x137;" horiz-adv-x="1327" 
d="M1083 -20q-167 0 -221 88q-24 33 -40.5 97.5t-29 126t-34 120.5t-66.5 94.5t-114 34.5l725 483h100l-637 -426q82 7 142 -13t92.5 -55t56.5 -89t35 -104t28.5 -112t36.5 -102q19 -48 50 -68t77 -22l-6 -37q-8 -1 -55 -6.5t-78 -8t-62 -1.5zM381 1241q30 203 -125 205
l6 43h135q55 0 97.5 -4.5t73 -16t51.5 -25t32.5 -37t17 -45t4.5 -56.5t-4.5 -65t-11.5 -77l-184 -1163h-289zM549 -567q59 70 69 145q4 25 -6 41.5t-26.5 27t-33 22.5t-25.5 36t-3 59q9 54 50 87.5t88 33.5q56 0 82.5 -38.5t17.5 -98.5q-14 -82 -74.5 -180.5t-116.5 -147.5z
" />
    <glyph glyph-name="Lacute" unicode="&#x139;" horiz-adv-x="1280" 
d="M530 0q-166 0 -241.5 38.5t-84.5 119t11 204.5l131 826q30 203 -123 203l6 43h136q64 0 110.5 -7.5t78.5 -19t51 -34.5t28.5 -45.5t10 -61.5t-3 -72t-11.5 -86l-140 -870q-14 -98 18 -138.5t134 -40.5h203h70.5t53 3.5t41.5 4.5t31 13t27 18.5t23.5 29.5t26 38.5
t29.5 53.5q24 42 38 67h65q-14 -26 -39 -71q-88 -163 -133 -190t-230 -26h-63h-254zM590 1915q36 67 102 68q51 0 76 -38q32 -46 -15 -100q-8 -9 -18 -18l-329 -289h-21z" />
    <glyph glyph-name="lacute" unicode="&#x13a;" horiz-adv-x="782" 
d="M475 -20q-296 0 -242 335l148 926q30 203 -125 205l6 43h135q55 0 97.5 -4.5t73 -16t51.5 -25t32.5 -37t17 -45t4.5 -56.5t-4.5 -65t-11.5 -77l-147 -925q-7 -55 -7 -96t23 -65t72 -26q35 -3 83.5 12.5t84.5 40.5l-6 -43q-109 -81 -285 -81zM561 1944q37 67 102 67
q52 1 78 -37q32 -45 -14 -99q-8 -10 -20 -20l-330 -288h-21z" />
    <glyph glyph-name="uni013B" unicode="&#x13b;" horiz-adv-x="1280" 
d="M530 0q-166 0 -241.5 38.5t-84.5 119t11 204.5l131 826q30 203 -123 203l6 43h136q64 0 110.5 -7.5t78.5 -19t51 -34.5t28.5 -45.5t10 -61.5t-3 -72t-11.5 -86l-140 -870q-14 -98 18 -138.5t134 -40.5h203h70.5t53 3.5t41.5 4.5t31 13t27 18.5t23.5 29.5t26 38.5
t29.5 53.5q24 42 38 67h65q-14 -26 -39 -71q-88 -163 -133 -190t-230 -26h-63h-254zM526 -555q26 31 46 71t24 74q4 25 -6 41.5t-26.5 27t-33 23t-25.5 36.5t-3 59q9 54 49.5 87.5t87.5 33.5q55 0 81 -39t17 -99q-13 -82 -72.5 -180t-115.5 -147z" />
    <glyph glyph-name="uni013C" unicode="&#x13c;" horiz-adv-x="782" 
d="M475 -20q-296 0 -242 335l148 926q30 203 -125 205l6 43h135q55 0 97.5 -4.5t73 -16t51.5 -25t32.5 -37t17 -45t4.5 -56.5t-4.5 -65t-11.5 -77l-147 -925q-7 -55 -7 -96t23 -65t72 -26q35 -3 83.5 12.5t84.5 40.5l-6 -43q-109 -81 -285 -81zM276 -559q25 30 44.5 70
t25.5 75q4 25 -6 41.5t-27 27t-33 23t-25.5 36.5t-4.5 59q9 54 50.5 87.5t88.5 33.5q55 0 81 -39t17 -99q-13 -81 -72.5 -179t-115.5 -148z" />
    <glyph glyph-name="Lcaron" unicode="&#x13d;" horiz-adv-x="1280" 
d="M530 0q-166 0 -241.5 38.5t-84.5 119t11 204.5l131 826q30 203 -123 203l6 43h136q64 0 110.5 -7.5t78.5 -19t51 -34.5t28.5 -45.5t10 -61.5t-3 -72t-11.5 -86l-140 -870q-14 -98 18 -138.5t134 -40.5h203h70.5t53 3.5t41.5 4.5t31 13t27 18.5t23.5 29.5t26 38.5
t29.5 53.5q24 42 38 67h65q-14 -26 -39 -71q-88 -163 -133 -190t-230 -26h-63h-254zM442 1606l-114 376h20l209 -284l297 284h20l-231 -376q-26 -42 -68 -60.5t-80.5 -3.5t-52.5 64z" />
    <glyph glyph-name="lcaron" unicode="&#x13e;" horiz-adv-x="782" 
d="M475 -20q-296 0 -242 335l148 926q30 203 -125 205l6 43h135q55 0 97.5 -4.5t73 -16t51.5 -25t32.5 -37t17 -45t4.5 -56.5t-4.5 -65t-11.5 -77l-147 -925q-7 -55 -7 -96t23 -65t72 -26q35 -3 83.5 12.5t84.5 40.5l-6 -43q-109 -81 -285 -81zM428 1632l-115 377h21
l209 -285l297 285h20l-231 -377q-26 -42 -68 -60.5t-80.5 -3.5t-52.5 64z" />
    <glyph glyph-name="Lslash" unicode="&#x141;" horiz-adv-x="1280" 
d="M66 418l182 153l98 617q30 203 -123 203l6 43h136q64 0 110.5 -7.5t78.5 -19t51 -34.5t28.5 -45.5t10 -61.5t-3 -72t-11.5 -86l-41 -252l78 66h96l-189 -158l-84 -526q-14 -98 18 -138.5t134 -40.5h203h70.5t53 3.5t41.5 4.5t31 13t27 18.5t23.5 29.5t26 38.5t29.5 53.5
q24 42 38 67h65q-14 -26 -39 -71q-88 -163 -133 -190t-230 -26h-63h-254q-166 0 -241.5 38.5t-84.5 119t11 204.5l18 115l-71 -59h-96z" />
    <glyph glyph-name="lslash" unicode="&#x142;" horiz-adv-x="782" 
d="M475 -20q-296 0 -242 335l27 164l-86 -71l-37 45l137 112l107 676q30 203 -125 205l6 43h135q55 0 97.5 -4.5t73 -16t51.5 -25t32.5 -37t17 -45t4.5 -56.5t-4.5 -65t-11.5 -77l-51 -321l92 76l35 -46l-141 -116l-82 -518q-7 -55 -7 -96t23 -65t72 -26q35 -3 83.5 12.5
t84.5 40.5l-6 -43q-109 -81 -285 -81z" />
    <glyph glyph-name="Nacute" unicode="&#x143;" horiz-adv-x="1447" 
d="M367 1315q-52 76 -144 76l6 43h162q53 0 85 -1.5t68.5 -6.5t59 -15t47 -27t43 -42.5t35.5 -61.5l539 -1055l192 1209h60l-209 -1313q51 -78 141 -78l-6 -43h-162q-63 0 -99.5 2t-76.5 10.5t-65.5 25t-50.5 45t-46 71.5l-536 1056l-193 -1210h-59zM1128 1913q36 67 101 68
q52 0 78 -37q32 -46 -14 -100q-8 -10 -19 -19l-330 -289h-20z" />
    <glyph glyph-name="nacute" unicode="&#x144;" horiz-adv-x="1341" 
d="M307 778q30 203 -125 203l6 43h136q145 0 204.5 -34t65.5 -120q201 174 436 174q164 0 248 -87.5t55 -276.5l-108 -680h-289l100 639q13 89 15 158.5t-33.5 112t-112.5 42.5q-75 0 -156.5 -34.5t-146.5 -98.5l-129 -819h-289zM924 1522q36 67 102 68q51 0 76 -38
q32 -46 -15 -100q-8 -9 -18 -18l-330 -289h-20z" />
    <glyph glyph-name="uni0145" unicode="&#x145;" horiz-adv-x="1447" 
d="M367 1315q-52 76 -144 76l6 43h162q53 0 85 -1.5t68.5 -6.5t59 -15t47 -27t43 -42.5t35.5 -61.5l539 -1055l192 1209h60l-209 -1313q51 -78 141 -78l-6 -43h-162q-63 0 -99.5 2t-76.5 10.5t-65.5 25t-50.5 45t-46 71.5l-536 1056l-193 -1210h-59zM582 -532q55 66 69 145
q4 25 -6 41.5t-27 27t-33 22.5t-25.5 36t-4.5 59q9 54 50.5 87.5t88.5 33.5q56 0 82 -38.5t17 -98.5q-13 -81 -73 -179.5t-116 -148.5z" />
    <glyph glyph-name="uni0146" unicode="&#x146;" horiz-adv-x="1341" 
d="M307 778q30 203 -125 203l6 43h136q145 0 204.5 -34t65.5 -120q201 174 436 174q164 0 248 -87.5t55 -276.5l-108 -680h-289l100 639q13 89 15 158.5t-33.5 112t-112.5 42.5q-75 0 -156.5 -34.5t-146.5 -98.5l-129 -819h-289zM567 -541q60 71 70 146q4 25 -6 41.5
t-26.5 27t-33 22.5t-25.5 36t-3 59q9 54 49.5 87.5t87.5 33.5q56 0 82.5 -38.5t17.5 -98.5q-13 -82 -73 -180.5t-117 -147.5z" />
    <glyph glyph-name="Ncaron" unicode="&#x147;" horiz-adv-x="1447" 
d="M367 1315q-52 76 -144 76l6 43h162q53 0 85 -1.5t68.5 -6.5t59 -15t47 -27t43 -42.5t35.5 -61.5l539 -1055l192 1209h60l-209 -1313q51 -78 141 -78l-6 -43h-162q-63 0 -99.5 2t-76.5 10.5t-65.5 25t-50.5 45t-46 71.5l-536 1056l-193 -1210h-59zM901 1606l-115 376h21
l209 -284l297 284h20l-231 -376q-26 -42 -68 -60.5t-80.5 -3.5t-52.5 64z" />
    <glyph glyph-name="ncaron" unicode="&#x148;" horiz-adv-x="1341" 
d="M307 778q30 203 -125 203l6 43h136q145 0 204.5 -34t65.5 -120q201 174 436 174q164 0 248 -87.5t55 -276.5l-108 -680h-289l100 639q13 89 15 158.5t-33.5 112t-112.5 42.5q-75 0 -156.5 -34.5t-146.5 -98.5l-129 -819h-289zM731 1214l-115 377h21l209 -284l297 284h20
l-231 -377q-27 -42 -69 -60.5t-80 -3.5t-52 64z" />
    <glyph glyph-name="Eng" unicode="&#x14a;" horiz-adv-x="1447" 
d="M991 -395q37 0 67.5 9t51 21t37 33.5t26 39t17 46.5t10.5 45.5t8 46.5l21 123l-819 1241l-193 -1210h-59l204 1294q-27 47 -57.5 71.5t-81.5 25.5l6 43h203q95 0 148 -13t90.5 -45t83.5 -102l549 -840l157 1000h60l-252 -1588q-4 -24 -7 -38.5t-12 -44.5t-20.5 -50
t-33.5 -46t-49 -41.5t-67.5 -26.5t-89.5 -11z" />
    <glyph glyph-name="eng" unicode="&#x14b;" horiz-adv-x="1341" 
d="M518 -569q96 8 166.5 40.5t115 88.5t70.5 123.5t41 158.5l125 797q13 89 15 158.5t-33.5 112t-112.5 42.5q-75 0 -156.5 -34.5t-146.5 -98.5l-129 -819h-289l123 778q30 203 -125 203l6 43h136q143 0 203 -33.5t67 -118.5q204 172 436 172q164 0 248 -87.5t55 -276.5
l-123 -776q-20 -125 -83.5 -221.5t-158 -155.5t-209 -88.5t-245.5 -30.5z" />
    <glyph glyph-name="Omacron" unicode="&#x14c;" horiz-adv-x="1867" 
d="M903 -20q-133 0 -246 34t-196.5 97.5t-139 154.5t-72.5 205t3 248q34 219 160 387t314.5 258t410.5 90q167 0 301 -52.5t220.5 -147.5t122 -232.5t9.5 -302.5q-54 -332 -301 -535.5t-586 -203.5zM918 39q228 0 373 176.5t198 503.5q52 326 -37.5 501t-318.5 175
q-231 0 -377.5 -175t-198.5 -501q-53 -326 38.5 -503t322.5 -177zM840 1585l12 82h686l-12 -82h-686z" />
    <glyph glyph-name="omacron" unicode="&#x14d;" horiz-adv-x="1363" 
d="M678 -20q-266 0 -406.5 143t-101.5 389q25 163 120 284.5t239 184.5t319 63q266 0 407 -143t103 -389q-26 -163 -121 -284.5t-239.5 -184.5t-319.5 -63zM688 39q73 0 136 38t108 104.5t76 150t47 180.5q17 94 11 180t-29.5 151t-74.5 103.5t-124 38.5t-135.5 -38
t-107 -104.5t-75 -150t-45.5 -180.5q-18 -94 -12.5 -180t28 -151t73.5 -103.5t124 -38.5zM535 1167l14 82h686l-14 -82h-686z" />
    <glyph glyph-name="Ohungarumlaut" unicode="&#x150;" horiz-adv-x="1867" 
d="M903 -20q-133 0 -246 34t-196.5 97.5t-139 154.5t-72.5 205t3 248q34 219 160 387t314.5 258t410.5 90q167 0 301 -52.5t220.5 -147.5t122 -232.5t9.5 -302.5q-54 -332 -301 -535.5t-586 -203.5zM918 39q228 0 373 176.5t198 503.5q52 326 -37.5 501t-318.5 175
q-231 0 -377.5 -175t-198.5 -501q-53 -326 38.5 -503t322.5 -177zM1493 1915q36 68 102 69q51 0 77 -38q32 -46 -15 -100q-8 -10 -19 -19l-329 -289h-19zM1190 1915q37 69 104 69q51 -1 76 -38q32 -46 -14 -100q-8 -10 -19 -19l-329 -289h-21z" />
    <glyph glyph-name="ohungarumlaut" unicode="&#x151;" horiz-adv-x="1363" 
d="M678 -20q-266 0 -406.5 143t-101.5 389q25 163 120 284.5t239 184.5t319 63q266 0 407 -143t103 -389q-26 -163 -121 -284.5t-239.5 -184.5t-319.5 -63zM688 39q73 0 136 38t108 104.5t76 150t47 180.5q17 94 11 180t-29.5 151t-74.5 103.5t-124 38.5t-135.5 -38
t-107 -104.5t-75 -150t-45.5 -180.5q-18 -94 -12.5 -180t28 -151t73.5 -103.5t124 -38.5zM1190 1524q36 68 102 69q51 0 77 -38q32 -46 -15 -100q-8 -10 -19 -19l-329 -289h-19zM887 1524q37 69 104 69q51 -1 76 -38q32 -46 -14 -100q-8 -10 -19 -19l-329 -289h-21z" />
    <glyph glyph-name="OE" unicode="&#x152;" horiz-adv-x="2500" 
d="M930 -20q-171 0 -310 53t-229 148.5t-128 234.5t-11 303q34 219 163 387t323.5 258t424.5 90q185 0 348 -98l13 78h637h58q175 1 208 -21.5t58 -156.5q8 -39 12 -62h-66q-4 18 -11 49q-22 99 -50.5 115t-179.5 16h-38h-340l-94 -604h586l-10 -59h-586l-76 -473
q-14 -98 17.5 -138.5t132.5 -40.5h211q162 0 196 6q53 9 86 51q17 22 83 139q9 17 18 32h65q-13 -24 -36 -67q-89 -166 -135 -193.5t-233 -26.5h-63h-303q-141 0 -213 22.5t-98 79.5q-221 -122 -430 -122zM946 39q230 0 393 199q0 36 15 124l133 846q-47 91 -130.5 139
t-195.5 48q-229 0 -391.5 -178.5t-212.5 -497.5q-52 -319 54.5 -499.5t334.5 -180.5z" />
    <glyph glyph-name="oe" unicode="&#x153;" horiz-adv-x="2072" 
d="M678 -20q-266 0 -406.5 143t-101.5 389q25 163 120 284.5t239 184.5t319 63q233 0 373 -118q171 118 401 118q108 1 196 -27t151.5 -83t92.5 -144t15 -204h-799q-12 -51 -14 -74q-34 -212 47.5 -333.5t263.5 -127.5q115 -3 219.5 50.5t157.5 140.5h59
q-86 -125 -226 -193.5t-319 -68.5q-237 0 -372 120q-177 -120 -416 -120zM688 39q181 0 289 242q-40 108 -19 231q17 117 89 231q-13 112 -64 177t-145 65q-73 0 -135.5 -38t-107 -104.5t-75 -150t-45.5 -180.5q-18 -94 -12.5 -180t28 -151t73.5 -103.5t124 -38.5zM1800 643
q12 157 -35.5 250.5t-152.5 93.5q-110 0 -195.5 -97.5t-128.5 -254.5z" />
    <glyph glyph-name="Racute" unicode="&#x154;" horiz-adv-x="1509" 
d="M1462 -10q-68 -9 -121.5 -12.5t-123.5 -2t-124.5 19t-86.5 50.5q-43 43 -63 113t-24.5 142.5t-12 144.5t-35.5 133t-83 92h-229l-106 -670h-295l188 1188q30 203 -123 203l6 43h693q163 0 275.5 -28.5t169 -81.5t75 -119.5t4.5 -151.5q-20 -134 -115.5 -231.5
t-277.5 -133.5q65 -14 105 -62t56 -116t24.5 -137.5t21.5 -146.5t36 -124q23 -42 63 -57t111 -10zM754 729q176 0 270 86t117 238q25 150 -42 235.5t-243 85.5h-252q37 -37 39 -111t-14 -151l-62 -383h187zM1057 1917q36 67 102 68q51 0 76 -38q32 -46 -15 -100
q-8 -9 -18 -18l-330 -289h-20z" />
    <glyph glyph-name="racute" unicode="&#x155;" horiz-adv-x="962" 
d="M307 778q30 203 -125 203l6 43h136q143 0 203 -33.5t67 -118.5q185 185 473 170l-33 -202q-103 50 -146 63q-170 49 -286 -88l-129 -815h-289zM737 1520q36 67 101 68q52 0 78 -37q32 -46 -14 -100q-8 -10 -19 -19l-332 -289h-21z" />
    <glyph glyph-name="uni0156" unicode="&#x156;" horiz-adv-x="1509" 
d="M1462 -10q-68 -9 -121.5 -12.5t-123.5 -2t-124.5 19t-86.5 50.5q-43 43 -63 113t-24.5 142.5t-12 144.5t-35.5 133t-83 92h-229l-106 -670h-295l188 1188q30 203 -123 203l6 43h693q163 0 275.5 -28.5t169 -81.5t75 -119.5t4.5 -151.5q-20 -134 -115.5 -231.5
t-277.5 -133.5q65 -14 105 -62t56 -116t24.5 -137.5t21.5 -146.5t36 -124q23 -42 63 -57t111 -10zM754 729q176 0 270 86t117 238q25 150 -42 235.5t-243 85.5h-252q37 -37 39 -111t-14 -151l-62 -383h187zM575 -528q26 31 46 71t24 74q4 25 -6 41.5t-26.5 27t-33 22.5
t-25.5 36t-3 59q9 54 49.5 87.5t87.5 33.5q56 0 82.5 -38.5t17.5 -98.5q-13 -82 -73 -180.5t-117 -147.5z" />
    <glyph glyph-name="uni0157" unicode="&#x157;" horiz-adv-x="962" 
d="M307 778q30 203 -125 203l6 43h136q143 0 203 -33.5t67 -118.5q185 185 473 170l-33 -202q-103 50 -146 63q-170 49 -286 -88l-129 -815h-289zM199 -535q55 65 69 146q4 25 -6 41.5t-27 27t-33 22.5t-25.5 36t-4.5 59q9 54 50.5 87.5t88.5 33.5q56 0 82 -38.5t17 -98.5
q-13 -81 -73 -179.5t-116 -148.5z" />
    <glyph glyph-name="Rcaron" unicode="&#x158;" horiz-adv-x="1509" 
d="M1462 -10q-68 -9 -121.5 -12.5t-123.5 -2t-124.5 19t-86.5 50.5q-43 43 -63 113t-24.5 142.5t-12 144.5t-35.5 133t-83 92h-229l-106 -670h-295l188 1188q30 203 -123 203l6 43h693q163 0 275.5 -28.5t169 -81.5t75 -119.5t4.5 -151.5q-20 -134 -115.5 -231.5
t-277.5 -133.5q65 -14 105 -62t56 -116t24.5 -137.5t21.5 -146.5t36 -124q23 -42 63 -57t111 -10zM754 729q176 0 270 86t117 238q25 150 -42 235.5t-243 85.5h-252q37 -37 39 -111t-14 -151l-62 -383h187zM840 1604l-115 376h20l209 -284l297 284h21l-232 -376
q-26 -42 -68 -60.5t-80 -3.5t-52 64z" />
    <glyph glyph-name="rcaron" unicode="&#x159;" horiz-adv-x="962" 
d="M307 778q30 203 -125 203l6 43h136q143 0 203 -33.5t67 -118.5q185 185 473 170l-33 -202q-103 50 -146 63q-170 49 -286 -88l-129 -815h-289zM608 1217l-114 376h20l209 -284l297 284h20l-231 -376q-26 -42 -68 -60.5t-80.5 -3.5t-52.5 64z" />
    <glyph glyph-name="Sacute" unicode="&#x15a;" horiz-adv-x="1390" 
d="M676 -20q-95 0 -179.5 21t-152.5 61t-110 105.5t-48 147.5h60q7 -84 71 -146.5t155.5 -92t195.5 -29.5q91 0 169.5 26t136 83.5t70.5 138.5q8 51 -13.5 94t-64.5 74.5t-101 59.5t-122 55t-128.5 56t-120.5 67t-97 82.5t-59 108.5t-6 140q16 98 73.5 179.5t140.5 133.5
t181 80.5t197 28.5q85 0 161 -20t137.5 -58t100.5 -101t45 -142h-59q-8 82 -63.5 142.5t-134 88t-167.5 27.5q-127 0 -224 -62.5t-116 -177.5q-8 -55 13.5 -99.5t64.5 -77t101 -61t123 -55t129.5 -54.5t121.5 -65t98 -80.5t59.5 -106t6.5 -138.5q-22 -134 -123 -235
t-238 -150t-284 -49zM1006 1909q36 67 102 68q51 0 76 -38q32 -46 -15 -100q-8 -9 -18 -18l-332 -289h-20z" />
    <glyph glyph-name="sacute" unicode="&#x15b;" horiz-adv-x="1083" 
d="M520 -20q-143 0 -254.5 53t-148.5 153h61q32 -70 127.5 -109.5t210.5 -39.5q74 0 138 17.5t110 56.5t55 94q7 44 -25 78t-89 58t-126 47t-137.5 52t-123 65.5t-83 94.5t-16.5 133q15 96 91.5 168.5t180 107.5t216.5 35q132 0 234 -51.5t136 -150.5h-61q-22 69 -106 107
t-187 38q-108 0 -188.5 -42t-90.5 -118q-6 -38 18.5 -69t69 -51.5t102 -42t118.5 -40.5t117.5 -48.5t98.5 -63.5t63 -87.5t11 -119.5q-17 -103 -98.5 -178.5t-191.5 -111t-232 -35.5zM838 1522q36 67 102 68q51 0 76 -38q32 -46 -15 -100q-8 -9 -18 -18l-330 -289h-20z" />
    <glyph glyph-name="Scedilla" unicode="&#x15e;" horiz-adv-x="1390" 
d="M543 -430q47 0 79 27.5t42 68.5q10 48 -22.5 88t-111.5 53l134 173q-125 2 -228 38t-172.5 113t-77.5 184h60q7 -84 71 -146.5t155.5 -92t195.5 -29.5q91 0 169.5 26t136 83.5t70.5 138.5q8 51 -13.5 94t-64.5 74.5t-101 59.5t-122 55t-128.5 56t-120.5 67t-97 82.5
t-59 108.5t-6 140q16 98 73.5 179.5t140.5 133.5t181 80.5t197 28.5q85 0 161 -20t137.5 -58t100.5 -101t45 -142h-59q-8 82 -63.5 142.5t-134 88t-167.5 27.5q-127 0 -224 -62.5t-116 -177.5q-8 -55 13.5 -99.5t64.5 -77t101 -61t123 -55t129.5 -54.5t121.5 -65t98 -80.5
t59.5 -106t6.5 -138.5q-20 -126 -111.5 -223.5t-216.5 -149t-264 -59.5l-86 -101q47 -2 83 -15t56 -32.5t33.5 -43.5t14.5 -48t-1 -47q-11 -71 -67.5 -119.5t-125 -61.5t-138.5 8t-107 75l21 24q64 -51 131 -51z" />
    <glyph glyph-name="scedilla" unicode="&#x15f;" horiz-adv-x="1083" 
d="M362 -438q47 0 80 27.5t43 68.5q8 48 -24 88t-111 53l142 181q-134 6 -237.5 59t-137.5 147h61q32 -70 127.5 -109.5t210.5 -39.5q74 0 138 17.5t110 56.5t55 94q7 44 -25 78t-89 58t-126 47t-137.5 52t-123 65.5t-83 94.5t-16.5 133q15 96 91.5 168.5t180 107.5
t216.5 35q132 0 234 -51.5t136 -150.5h-61q-22 69 -106 107t-187 38q-108 0 -188.5 -42t-90.5 -118q-6 -38 18.5 -69t69 -51.5t102 -42t118.5 -40.5t117.5 -48.5t98.5 -63.5t63 -87.5t11 -119.5q-16 -98 -91 -172t-178 -111t-220 -42l-90 -107q47 -2 83.5 -15t56.5 -32.5
t33.5 -43.5t14.5 -48t0 -47q-10 -57 -48.5 -101t-91.5 -63.5t-109.5 -22t-108.5 20.5t-82 67l20 25q64 -51 131 -51z" />
    <glyph glyph-name="Scaron" unicode="&#x160;" horiz-adv-x="1419" 
d="M676 -20q-95 0 -179.5 21t-152.5 61t-110 105.5t-48 147.5h60q7 -84 71 -146.5t155.5 -92t195.5 -29.5q91 0 169.5 26t136 83.5t70.5 138.5q8 51 -13.5 94t-64.5 74.5t-101 59.5t-122 55t-128.5 56t-120.5 67t-97 82.5t-59 108.5t-6 140q16 98 73.5 179.5t140.5 133.5
t181 80.5t197 28.5q85 0 161 -20t137.5 -58t100.5 -101t45 -142h-59q-8 82 -63.5 142.5t-134 88t-167.5 27.5q-127 0 -224 -62.5t-116 -177.5q-8 -55 13.5 -99.5t64.5 -77t101 -61t123 -55t129.5 -54.5t121.5 -65t98 -80.5t59.5 -106t6.5 -138.5q-22 -134 -123 -235
t-238 -150t-284 -49zM881 1604l-115 376h20l209 -284l297 284h21l-232 -376q-26 -42 -68 -60.5t-80 -3.5t-52 64z" />
    <glyph glyph-name="scaron" unicode="&#x161;" horiz-adv-x="1083" 
d="M520 -20q-143 0 -254.5 53t-148.5 153h61q32 -70 127.5 -109.5t210.5 -39.5q74 0 138 17.5t110 56.5t55 94q7 44 -25 78t-89 58t-126 47t-137.5 52t-123 65.5t-83 94.5t-16.5 133q15 96 91.5 168.5t180 107.5t216.5 35q132 0 234 -51.5t136 -150.5h-61q-22 69 -106 107
t-187 38q-108 0 -188.5 -42t-90.5 -118q-6 -38 18.5 -69t69 -51.5t102 -42t118.5 -40.5t117.5 -48.5t98.5 -63.5t63 -87.5t11 -119.5q-17 -103 -98.5 -178.5t-191.5 -111t-232 -35.5zM633 1214l-115 377h21l209 -284l296 284h21l-231 -377q-27 -42 -69 -60.5t-80 -3.5
t-52 64z" />
    <glyph glyph-name="uni0162" unicode="&#x162;" horiz-adv-x="1443" 
d="M571 0l217 1374h-139h-36q-45 0 -63.5 0.5t-47.5 -2.5t-37 -3.5t-27 -10t-23 -13.5t-18.5 -23.5t-20 -29.5t-22.5 -41q-20 -36 -32 -57h-66q12 23 33 63q53 105 77 131q34 37 102 43q35 4 145 3h59h555h58q175 1 208 -21.5t58 -156.5q8 -39 12 -62h-66q-5 19 -12 52
q-21 96 -48.5 112t-173.5 16h-36h-142l-217 -1374h-118l-66 -76q47 -2 83.5 -15t56.5 -32.5t33.5 -43.5t14.5 -48t0 -47q-12 -71 -68.5 -119.5t-125 -61.5t-138.5 8t-108 75l21 24q64 -51 131 -51q47 0 80 27.5t43 68.5q8 48 -24.5 88t-111.5 53l117 150h-117z" />
    <glyph glyph-name="uni0163" unicode="&#x163;" horiz-adv-x="716" 
d="M262 -440q47 0 79 27.5t42 68.5q10 48 -22 88t-111 53l141 183q-133 5 -191 88t-32 247l102 648h-125l11 61h125l38 242h291l-39 -242h224l-11 -61h-223l-115 -725q-7 -55 -7.5 -96t22 -65t71.5 -26q36 -3 85 12.5t83 40.5l-6 -43q-93 -70 -237 -79l-95 -111
q58 -3 99 -21.5t60.5 -47t26.5 -58t3 -59.5q-12 -71 -68.5 -119.5t-125.5 -62t-139 7.5t-107 75l20 25q64 -51 131 -51z" />
    <glyph glyph-name="Tcaron" unicode="&#x164;" horiz-adv-x="1443" 
d="M571 0l217 1374h-139h-36q-45 0 -63.5 0.5t-47.5 -2.5t-37 -3.5t-27 -10t-23 -13.5t-18.5 -23.5t-20 -29.5t-22.5 -41q-20 -36 -32 -57h-66q12 23 33 63q53 105 77 131q34 37 102 43q35 4 145 3h59h555h58q175 1 208 -21.5t58 -156.5q8 -39 12 -62h-66q-5 19 -12 52
q-21 96 -48.5 112t-173.5 16h-36h-142l-217 -1374h-297zM864 1602l-114 376h20l209 -284l297 284h20l-231 -376q-27 -42 -69 -60.5t-80 -3.5t-52 64z" />
    <glyph glyph-name="tcaron" unicode="&#x165;" horiz-adv-x="716" 
d="M410 -20q-296 0 -242 335l102 648h-125l11 61h125l38 242h291l-39 -242h224l-11 -61h-223l-115 -725q-7 -55 -7.5 -96t22 -65t71.5 -26q36 -3 85 12.5t83 40.5l-6 -43q-109 -81 -284 -81zM387 1430l-115 376h21l209 -284l297 284h20l-231 -376q-27 -42 -69 -60.5
t-80 -3.5t-52 64z" />
    <glyph glyph-name="Tbar" unicode="&#x166;" horiz-adv-x="1443" 
d="M571 0l103 645h-191l11 64h190l104 665h-139h-36q-45 0 -63.5 0.5t-47.5 -2.5t-37 -3.5t-27 -10t-23 -13.5t-18.5 -23.5t-20 -29.5t-22.5 -41q-20 -36 -32 -57h-66q12 23 33 63q53 105 77 131q34 37 102 43q35 4 145 3h59h555h58q175 1 208 -21.5t58 -156.5q8 -39 12 -62
h-66q-5 19 -12 52q-21 96 -48.5 112t-173.5 16h-36h-142l-104 -665h186l-10 -64h-186l-103 -645h-297z" />
    <glyph glyph-name="tbar" unicode="&#x167;" horiz-adv-x="716" 
d="M410 -20q-296 0 -242 335l55 338h-100l4 35h100l43 275h-125l11 61h125l38 242h291l-39 -242h224l-11 -61h-223l-43 -275h111l-4 -35h-111l-68 -415q-7 -55 -7.5 -96t22 -65t71.5 -26q36 -3 85 12.5t83 40.5l-6 -43q-109 -81 -284 -81z" />
    <glyph glyph-name="Umacron" unicode="&#x16a;" horiz-adv-x="1472" 
d="M766 -23q-80 0 -151 13t-137 41t-114 73t-82.5 109t-42 149t6.5 193l100 633q30 203 -123 203l6 43h136q64 0 110.5 -7.5t78.5 -19t51 -34.5t28.5 -45.5t10 -61.5t-3 -72t-11.5 -86l-92 -576q-19 -108 -9.5 -189t34.5 -136.5t70 -90t97.5 -49.5t116.5 -14q93 -1 173.5 31
t146.5 95.5t112.5 164t67.5 231.5l135 859h63l-133 -842q-50 -312 -216.5 -463.5t-428.5 -151.5zM723 1593l14 82h686l-14 -82h-686z" />
    <glyph glyph-name="umacron" unicode="&#x16b;" horiz-adv-x="1341" 
d="M541 -20q-79 0 -139.5 20t-103.5 62.5t-58.5 114.5t0.5 169l67 432q30 203 -125 203l6 43h136q63 0 109.5 -7t78 -18.5t50.5 -34.5t28 -45t9.5 -61t-3 -72.5t-12.5 -87.5l-49 -313q-13 -88 -15 -157.5t33.5 -112.5t112.5 -43q75 0 155 35t148 100l90 571q30 203 -125 203
l6 43h135q63 0 109.5 -7t78 -18.5t50.5 -34.5t28 -45t9.5 -61t-3 -72.5t-12.5 -87.5l-110 -698h-279l25 150q-96 -82 -208 -126t-222 -44zM518 1182l14 82h687l-15 -82h-686z" />
    <glyph glyph-name="Uring" unicode="&#x16e;" horiz-adv-x="1472" 
d="M766 -23q-80 0 -151 13t-137 41t-114 73t-82.5 109t-42 149t6.5 193l100 633q30 203 -123 203l6 43h136q64 0 110.5 -7.5t78.5 -19t51 -34.5t28.5 -45.5t10 -61.5t-3 -72t-11.5 -86l-92 -576q-19 -108 -9.5 -189t34.5 -136.5t70 -90t97.5 -49.5t116.5 -14q93 -1 173.5 31
t146.5 95.5t112.5 164t67.5 231.5l135 859h63l-133 -842q-50 -312 -216.5 -463.5t-428.5 -151.5zM1067 1532q-91 0 -145 64.5t-39 156.5q13 92 89 156.5t167 64.5t146 -64.5t42 -156.5q-15 -92 -92 -156.5t-168 -64.5zM1077 1595q65 0 120 46.5t65 111.5q9 65 -30.5 110.5
t-103.5 45.5t-117.5 -46t-62.5 -110q-10 -66 28 -112t101 -46z" />
    <glyph glyph-name="uring" unicode="&#x16f;" horiz-adv-x="1341" 
d="M541 -20q-79 0 -139.5 20t-103.5 62.5t-58.5 114.5t0.5 169l67 432q30 203 -125 203l6 43h136q63 0 109.5 -7t78 -18.5t50.5 -34.5t28 -45t9.5 -61t-3 -72.5t-12.5 -87.5l-49 -313q-13 -88 -15 -157.5t33.5 -112.5t112.5 -43q75 0 155 35t148 100l90 571q30 203 -125 203
l6 43h135q63 0 109.5 -7t78 -18.5t50.5 -34.5t28 -45t9.5 -61t-3 -72.5t-12.5 -87.5l-110 -698h-279l25 150q-96 -82 -208 -126t-222 -44zM868 1145q-91 0 -146 64.5t-40 156.5q13 92 89 156.5t167 64.5t146 -64.5t42 -156.5q-15 -92 -91 -156.5t-167 -64.5zM877 1208
q65 0 119.5 46t64.5 112q9 65 -30 110.5t-103 45.5t-117.5 -46t-62.5 -110q-10 -66 28 -112t101 -46z" />
    <glyph glyph-name="Uhungarumlaut" unicode="&#x170;" horiz-adv-x="1472" 
d="M766 -23q-80 0 -151 13t-137 41t-114 73t-82.5 109t-42 149t6.5 193l100 633q30 203 -123 203l6 43h136q64 0 110.5 -7.5t78.5 -19t51 -34.5t28.5 -45.5t10 -61.5t-3 -72t-11.5 -86l-92 -576q-19 -108 -9.5 -189t34.5 -136.5t70 -90t97.5 -49.5t116.5 -14q93 -1 173.5 31
t146.5 95.5t112.5 164t67.5 231.5l135 859h63l-133 -842q-50 -312 -216.5 -463.5t-428.5 -151.5zM1327 1911q36 68 101 69q52 0 78 -37q33 -46 -13 -100q-8 -10 -20 -20l-330 -289h-19zM1024 1911q37 69 104 69q51 -1 76 -38q32 -46 -14 -100q-8 -10 -19 -19l-329 -289h-21z
" />
    <glyph glyph-name="uhungarumlaut" unicode="&#x171;" horiz-adv-x="1341" 
d="M541 -20q-79 0 -139.5 20t-103.5 62.5t-58.5 114.5t0.5 169l67 432q30 203 -125 203l6 43h136q63 0 109.5 -7t78 -18.5t50.5 -34.5t28 -45t9.5 -61t-3 -72.5t-12.5 -87.5l-49 -313q-13 -88 -15 -157.5t33.5 -112.5t112.5 -43q75 0 155 35t148 100l90 571q30 203 -125 203
l6 43h135q63 0 109.5 -7t78 -18.5t50.5 -34.5t28 -45t9.5 -61t-3 -72.5t-12.5 -87.5l-110 -698h-279l25 150q-96 -82 -208 -126t-222 -44zM1151 1532q37 69 104 69q51 -1 77 -38q32 -46 -15 -100q-8 -10 -19 -19l-331 -289h-19zM848 1532q39 69 106 69q52 -1 77 -39
q31 -48 -17 -101q-8 -9 -17 -17l-331 -289h-21z" />
    <glyph glyph-name="Uogonek" unicode="&#x172;" horiz-adv-x="1472" 
d="M989 -371q-111 -108 -238 -125q-107 -13 -159 46q-64 71 -2 204q48 103 166 223q-79 1 -148.5 14.5t-134.5 42t-112 73.5t-81 109t-41 148t7 191l100 633q30 203 -123 203l6 43h136q64 0 110.5 -7.5t78.5 -19t51 -34.5t28.5 -45.5t10 -61.5t-3 -72t-11.5 -86l-92 -576
q-19 -108 -9.5 -189t34.5 -136.5t70 -90t97.5 -49.5t116.5 -14q93 -1 173.5 31t146.5 95.5t112.5 164t67.5 231.5l135 859h63l-133 -842q-48 -298 -202 -449t-398 -163q-109 -135 -83 -250q18 -76 87 -107q75 -35 152 11l12 8z" />
    <glyph glyph-name="uogonek" unicode="&#x173;" horiz-adv-x="1341" 
d="M541 -20q-79 0 -139.5 20t-103.5 62.5t-58.5 114.5t0.5 169l67 432q30 203 -125 203l6 43h136q63 0 109.5 -7t78 -18.5t50.5 -34.5t28 -45t9.5 -61t-3 -72.5t-12.5 -87.5l-49 -313q-13 -88 -15 -157.5t33.5 -112.5t112.5 -43q75 0 155 35t148 100l90 571q30 203 -125 203
l6 43h135q63 0 109.5 -7t78 -18.5t50.5 -34.5t28 -45t9.5 -61t-3 -72.5t-12.5 -87.5l-110 -698h-105q-118 -136 -97 -254q15 -80 83 -114q74 -36 153 7q9 5 17 11l10 -12q-112 -108 -240 -125q-108 -13 -160 45q-64 71 -1 204q51 109 182 238h-121l25 150q-96 -82 -208 -126
t-222 -44z" />
    <glyph glyph-name="Wcircumflex" unicode="&#x174;" horiz-adv-x="2263" 
d="M860 0q-139 0 -207.5 52.5t-91.5 180.5l-170 916q-9 52 -19 87t-29 74.5t-50.5 60t-75.5 20.5l6 43h195q136 0 195 -51t83 -181l174 -950l433 940q-10 44 -21 75t-29.5 62t-47.5 46.5t-68 15.5l6 43h194q136 0 194.5 -51t82.5 -181l178 -952l545 1184h65l-585 -1264
q27 -64 71 -94.5t115 -30.5l-6 -45h-217q-138 0 -206 52.5t-91 180.5l-162 859l-426 -922q25 -64 70 -94.5t118 -30.5l-6 -45h-217zM1395 1923q22 37 53 54.5t59.5 15.5t52.5 -20.5t35 -49.5l113 -377h-20l-207 285l-299 -285h-21z" />
    <glyph glyph-name="wcircumflex" unicode="&#x175;" horiz-adv-x="1873" 
d="M743 0q-134 2 -201 53t-85 178l-90 508q-9 49 -21 87t-33 76t-55.5 58.5t-79.5 20.5l6 43h207q133 -2 195.5 -54t79.5 -177l98 -543l297 547q-49 184 -178 184l6 43h207q134 -2 195.5 -53.5t80.5 -177.5l98 -541l416 772h68l-459 -852q20 -67 61 -98t109 -31l-6 -43h-207
q-137 2 -203 52.5t-84 178.5l-92 471l-287 -538q17 -65 58 -93t114 -28l-6 -43h-209zM1135 1530q22 37 53 54.5t60 15.5t53 -20.5t34 -49.5l113 -377h-21l-206 285l-299 -285h-21z" />
    <glyph glyph-name="Ycircumflex" unicode="&#x176;" horiz-adv-x="1443" 
d="M571 0l97 602l-236 561q-4 10 -18 42t-20.5 46t-21.5 41t-28 40.5t-32 29.5t-41.5 22.5t-49.5 6.5l6 43h256q52 0 90 -9t62.5 -24t44.5 -42.5t34 -57.5t33 -74q3 -9 5 -13l194 -473l555 693h74l-600 -752l-109 -682h-295zM1032 1915q22 37 53.5 54.5t60 15.5t53 -20.5
t34.5 -49.5l113 -377h-21l-207 285l-299 -285h-20z" />
    <glyph glyph-name="ycircumflex" unicode="&#x177;" horiz-adv-x="1232" 
d="M340 -512l281 475l-250 776q-35 119 -62 163q-49 79 -131 79l6 43h230q65 -1 107 -12.5t71.5 -42t47.5 -69t40 -107.5l145 -488l422 719h66l-905 -1536h-68zM852 1524q22 37 53 54.5t59.5 15.5t53 -20.5t35.5 -49.5l112 -377h-20l-207 285l-299 -285h-21z" />
    <glyph glyph-name="Ydieresis" unicode="&#x178;" horiz-adv-x="1443" 
d="M571 0l97 602l-236 561q-4 10 -18 42t-20.5 46t-21.5 41t-28 40.5t-32 29.5t-41.5 22.5t-49.5 6.5l6 43h256q52 0 90 -9t62.5 -24t44.5 -42.5t34 -57.5t33 -74q3 -9 5 -13l194 -473l555 693h74l-600 -752l-109 -682h-295zM918 1528q-59 0 -91 38t-22 97q8 58 53 97
t103 36q56 -2 87.5 -39t24.5 -94q-10 -59 -54.5 -97t-100.5 -38zM1274 1528q-59 0 -92 38t-23 97q7 56 53 93.5t105 37.5q55 0 87.5 -37.5t25.5 -93.5q-10 -59 -55.5 -97t-100.5 -38z" />
    <glyph glyph-name="Zacute" unicode="&#x179;" horiz-adv-x="1478" 
d="M158 0l1007 1374h-456h-37q-61 0 -84.5 1.5t-58 -7.5t-40.5 -8t-29.5 -25.5t-26.5 -33.5t-30 -57q-18 -31 -28 -50h-66q12 23 32 62q28 55 38.5 76.5t36 48.5t33.5 32.5t50.5 13.5t66 7.5t99.5 -0.5h58h825l-1009 -1375h428q162 0 194 5q54 9 87 51q17 22 82 140
q14 25 26 46h65q-15 -28 -41 -77q-89 -169 -135 -197t-233 -27h-64h-790zM1055 1919q37 68 104 68q51 0 77 -38q31 -46 -16 -100q-8 -9 -18 -18l-332 -289h-20z" />
    <glyph glyph-name="zacute" unicode="&#x17a;" horiz-adv-x="1239" 
d="M131 0l746 963h-252q-153 1 -184 -5q-45 -8 -72 -47q-9 -13 -66 -119l-2 -4h-68q12 22 31 61q54 104 78 130q33 36 101 42q35 4 143 3h59h625l-746 -963h258q150 -1 182 6q43 9 69 48q7 9 64 115q2 3 3 6h65q-72 -141 -81 -156q-33 -53 -76 -68q-40 -13 -175 -12h-77
h-625zM946 1522q36 67 101 68q52 0 78 -37q32 -46 -14 -100q-8 -10 -19 -19l-330 -289h-21z" />
    <glyph glyph-name="Zdotaccent" unicode="&#x17b;" horiz-adv-x="1478" 
d="M158 0l1007 1374h-456h-37q-61 0 -84.5 1.5t-58 -7.5t-40.5 -8t-29.5 -25.5t-26.5 -33.5t-30 -57q-18 -31 -28 -50h-66q12 23 32 62q28 55 38.5 76.5t36 48.5t33.5 32.5t50.5 13.5t66 7.5t99.5 -0.5h58h825l-1009 -1375h428q162 0 194 5q54 9 87 51q17 22 82 140
q14 25 26 46h65q-15 -28 -41 -77q-89 -169 -135 -197t-233 -27h-64h-790zM907 1530q-58 0 -89.5 37t-22.5 96q7 57 51.5 94t103.5 37q56 0 88 -37t25 -94q-9 -58 -54.5 -95.5t-101.5 -37.5z" />
    <glyph glyph-name="zdotaccent" unicode="&#x17c;" horiz-adv-x="1239" 
d="M131 0l746 963h-252q-153 1 -184 -5q-45 -8 -72 -47q-9 -13 -66 -119l-2 -4h-68q12 22 31 61q54 104 78 130q33 36 101 42q35 4 143 3h59h625l-746 -963h258q150 -1 182 6q43 9 69 48q7 9 64 115q2 3 3 6h65q-72 -141 -81 -156q-33 -53 -76 -68q-40 -13 -175 -12h-77
h-625zM807 1141q-59 0 -91 37.5t-22 95.5q7 57 52 94t104 37q56 0 88 -37t25 -94q-10 -58 -55 -95.5t-101 -37.5z" />
    <glyph glyph-name="Zcaron" unicode="&#x17d;" horiz-adv-x="1478" 
d="M158 0l1007 1374h-456h-37q-61 0 -84.5 1.5t-58 -7.5t-40.5 -8t-29.5 -25.5t-26.5 -33.5t-30 -57q-18 -31 -28 -50h-66q12 23 32 62q28 55 38.5 76.5t36 48.5t33.5 32.5t50.5 13.5t66 7.5t99.5 -0.5h58h825l-1009 -1375h428q162 0 194 5q54 9 87 51q17 22 82 140
q14 25 26 46h65q-15 -28 -41 -77q-89 -169 -135 -197t-233 -27h-64h-790zM829 1614l-114 377h20l209 -285l297 285h21l-232 -377q-27 -42 -69 -60.5t-80 -3.5t-52 64z" />
    <glyph glyph-name="zcaron" unicode="&#x17e;" horiz-adv-x="1239" 
d="M131 0l746 963h-252q-153 1 -184 -5q-45 -8 -72 -47q-9 -13 -66 -119l-2 -4h-68q12 22 31 61q54 104 78 130q33 36 101 42q35 4 143 3h59h625l-746 -963h258q150 -1 182 6q43 9 69 48q7 9 64 115q2 3 3 6h65q-72 -141 -81 -156q-33 -53 -76 -68q-40 -13 -175 -12h-77
h-625zM721 1214l-115 377h21l209 -284l297 284h20l-231 -377q-27 -42 -69 -60.5t-80 -3.5t-52 64z" />
    <glyph glyph-name="florin" unicode="&#x192;" horiz-adv-x="960" 
d="M-387 -541q63 0 112 10t88 33t67.5 50t54.5 72.5t45.5 89.5t44.5 112l419 1137h-135l10 61h148l14 35q51 157 156.5 254t245 132t317.5 21l-12 -34q-40 0 -73.5 -3.5t-62.5 -12.5t-52.5 -18t-45 -26.5t-37.5 -32.5t-33 -41.5t-29 -46.5t-27.5 -55.5t-26 -61t-27.5 -69.5
l-14 -41h225l-10 -61h-240l-416 -1131q-168 -450 -722 -407z" />
    <glyph glyph-name="uni0218" unicode="&#x218;" horiz-adv-x="1390" 
d="M676 -20q-95 0 -179.5 21t-152.5 61t-110 105.5t-48 147.5h60q7 -84 71 -146.5t155.5 -92t195.5 -29.5q91 0 169.5 26t136 83.5t70.5 138.5q8 51 -13.5 94t-64.5 74.5t-101 59.5t-122 55t-128.5 56t-120.5 67t-97 82.5t-59 108.5t-6 140q16 98 73.5 179.5t140.5 133.5
t181 80.5t197 28.5q85 0 161 -20t137.5 -58t100.5 -101t45 -142h-59q-8 82 -63.5 142.5t-134 88t-167.5 27.5q-127 0 -224 -62.5t-116 -177.5q-8 -55 13.5 -99.5t64.5 -77t101 -61t123 -55t129.5 -54.5t121.5 -65t98 -80.5t59.5 -106t6.5 -138.5q-22 -134 -123 -235
t-238 -150t-284 -49zM551 -551q59 70 72 145q4 25 -6.5 41.5t-27.5 27t-33.5 23t-26 36.5t-3.5 59q9 54 50 87.5t88 33.5q56 0 82.5 -39t17.5 -99q-13 -82 -73.5 -179.5t-117.5 -147.5z" />
    <glyph glyph-name="uni0219" unicode="&#x219;" horiz-adv-x="1083" 
d="M520 -20q-143 0 -254.5 53t-148.5 153h61q32 -70 127.5 -109.5t210.5 -39.5q74 0 138 17.5t110 56.5t55 94q7 44 -25 78t-89 58t-126 47t-137.5 52t-123 65.5t-83 94.5t-16.5 133q15 96 91.5 168.5t180 107.5t216.5 35q132 0 234 -51.5t136 -150.5h-61q-22 69 -106 107
t-187 38q-108 0 -188.5 -42t-90.5 -118q-6 -38 18.5 -69t69 -51.5t102 -42t118.5 -40.5t117.5 -48.5t98.5 -63.5t63 -87.5t11 -119.5q-17 -103 -98.5 -178.5t-191.5 -111t-232 -35.5zM410 -545q55 65 69 146q4 25 -6 41.5t-26.5 27t-33 22.5t-25.5 36t-3 59q7 54 48.5 87.5
t88.5 33.5q56 0 82 -38.5t17 -98.5q-13 -82 -72.5 -180.5t-116.5 -147.5z" />
    <glyph glyph-name="uni021A" unicode="&#x21a;" horiz-adv-x="1443" 
d="M571 0l217 1374h-139h-36q-45 0 -63.5 0.5t-47.5 -2.5t-37 -3.5t-27 -10t-23 -13.5t-18.5 -23.5t-20 -29.5t-22.5 -41q-20 -36 -32 -57h-66q12 23 33 63q53 105 77 131q34 37 102 43q35 4 145 3h59h555h58q175 1 208 -21.5t58 -156.5q8 -39 12 -62h-66q-5 19 -12 52
q-21 96 -48.5 112t-173.5 16h-36h-142l-217 -1374h-297zM602 -526q59 70 72 145q4 25 -6.5 41.5t-27 27t-33 22.5t-26 36t-3.5 59q9 54 49.5 87.5t87.5 33.5q56 0 82.5 -38.5t17.5 -98.5q-13 -82 -73 -180.5t-117 -147.5z" />
    <glyph glyph-name="uni021B" unicode="&#x21b;" horiz-adv-x="716" 
d="M410 -20q-296 0 -242 335l102 648h-125l11 61h125l38 242h291l-39 -242h224l-11 -61h-223l-115 -725q-7 -55 -7.5 -96t22 -65t71.5 -26q36 -3 85 12.5t83 40.5l-6 -43q-109 -81 -284 -81zM190 -553q26 31 46 71t24 74q4 25 -6 41.5t-26.5 27t-33 23t-25.5 36.5t-3 59
q9 54 49.5 87.5t87.5 33.5q56 0 82.5 -39t17.5 -99q-13 -82 -73 -180t-117 -147z" />
    <glyph glyph-name="circumflex" unicode="&#x2c6;" horiz-adv-x="739" 
d="M535 1497q22 37 53 54.5t59.5 15.5t52.5 -20.5t35 -49.5l113 -377h-21l-206 285l-299 -285h-21z" />
    <glyph glyph-name="caron" unicode="&#x2c7;" horiz-adv-x="739" 
d="M485 1190l-114 377h20l209 -285l297 285h21l-232 -377q-26 -42 -68 -60.5t-80.5 -3.5t-52.5 64z" />
    <glyph glyph-name="breve" unicode="&#x2d8;" horiz-adv-x="837" 
d="M623 1128q-137 0 -213.5 82.5t-53.5 259.5h27q-8 -87 69.5 -130.5t196.5 -43.5q120 0 212 43.5t114 130.5h26q-35 -178 -137 -260t-241 -82z" />
    <glyph glyph-name="dotaccent" unicode="&#x2d9;" horiz-adv-x="458" 
d="M436 1124q-59 0 -91 37.5t-23 95.5q9 57 53 94.5t102 37.5q56 0 89 -38t24 -94q-9 -58 -53.5 -95.5t-100.5 -37.5z" />
    <glyph glyph-name="ring" unicode="&#x2da;" horiz-adv-x="634" 
d="M520 1110q-91 0 -146 64.5t-40 156.5q13 92 89 156.5t167 64.5t146 -64.5t42 -156.5q-15 -92 -91 -156.5t-167 -64.5zM530 1174q65 0 119 45.5t64 111.5q10 64 -29 110t-104 46q-63 0 -117 -46t-64 -110q-10 -65 28.5 -111t102.5 -46z" />
    <glyph glyph-name="ogonek" unicode="&#x2db;" horiz-adv-x="624" 
d="M504 -340q-111 -108 -239 -124q-108 -14 -161 45q-63 71 -1 204q56 122 212 268l27 -24q-122 -136 -102 -257q13 -80 81 -115q74 -39 153 3q10 5 20 12z" />
    <glyph glyph-name="tilde" unicode="&#x2dc;" horiz-adv-x="919" 
d="M872 1133q-74 0 -220 51t-195 51q-53 0 -82.5 -17.5t-36.5 -60.5h-31q6 73 24.5 124t46.5 77t58 36.5t68 10.5q72 0 219 -50t199 -50t80.5 17.5t35.5 59.5h31q-11 -124 -66.5 -186.5t-130.5 -62.5z" />
    <glyph glyph-name="hungarumlaut" unicode="&#x2dd;" horiz-adv-x="833" 
d="M807 1497q36 68 102 69q51 0 77 -38q32 -46 -15 -100q-8 -10 -19 -19l-329 -289h-19zM504 1497q37 69 104 69q51 -1 76 -38q32 -46 -14 -100q-8 -10 -19 -19l-329 -289h-21z" />
    <glyph glyph-name="gravecomb" unicode="&#x300;" 
d="M379 1409q-45 55 -4 108q32 42 87 47q63 6 87 -48q4 -9 6 -19l86 -377h-20z" />
    <glyph glyph-name="acutecomb" unicode="&#x301;" 
d="M506 1497q36 67 102 68q51 0 76 -38q32 -46 -15 -100q-8 -9 -18 -18l-329 -289h-21z" />
    <glyph glyph-name="uni0302" unicode="&#x302;" 
d="M535 1497q22 37 53 54.5t59.5 15.5t52.5 -20.5t35 -49.5l113 -377h-21l-206 285l-299 -285h-21z" />
    <glyph glyph-name="tildecomb" unicode="&#x303;" 
d="M872 1133q-74 0 -220 51t-195 51q-53 0 -82.5 -17.5t-36.5 -60.5h-31q6 73 24.5 124t46.5 77t58 36.5t68 10.5q72 0 219 -50t199 -50t80.5 17.5t35.5 59.5h31q-11 -124 -66.5 -186.5t-130.5 -62.5z" />
    <glyph glyph-name="uni0304" unicode="&#x304;" 
d="M309 1182l15 82h686l-15 -82h-686z" />
    <glyph glyph-name="uni0306" unicode="&#x306;" 
d="M623 1128q-137 0 -213.5 82.5t-53.5 259.5h27q-8 -87 69.5 -130.5t196.5 -43.5q120 0 212 43.5t114 130.5h26q-35 -178 -137 -260t-241 -82z" />
    <glyph glyph-name="uni0307" unicode="&#x307;" 
d="M436 1124q-59 0 -91 37.5t-23 95.5q9 57 53 94.5t102 37.5q56 0 89 -38t24 -94q-9 -58 -53.5 -95.5t-100.5 -37.5z" />
    <glyph glyph-name="uni0308" unicode="&#x308;" 
d="M436 1122q-59 0 -91 37.5t-23 97.5q9 58 54 97.5t103 36.5q55 -2 87.5 -40t23.5 -94q-9 -59 -53.5 -97t-100.5 -38zM793 1122q-59 0 -92.5 38t-24.5 97q9 57 54 94.5t104 37.5q55 0 88 -38t24 -94q-9 -59 -53.5 -97t-99.5 -38z" />
    <glyph glyph-name="uni030A" unicode="&#x30a;" 
d="M520 1110q-91 0 -146 64.5t-40 156.5q13 92 89 156.5t167 64.5t146 -64.5t42 -156.5q-15 -92 -91 -156.5t-167 -64.5zM530 1174q65 0 119 45.5t64 111.5q10 64 -29 110t-104 46q-63 0 -117 -46t-64 -110q-10 -65 28.5 -111t102.5 -46z" />
    <glyph glyph-name="uni030B" unicode="&#x30b;" 
d="M807 1497q36 68 102 69q51 0 77 -38q32 -46 -15 -100q-8 -10 -19 -19l-329 -289h-19zM504 1497q37 69 104 69q51 -1 76 -38q32 -46 -14 -100q-8 -10 -19 -19l-329 -289h-21z" />
    <glyph glyph-name="uni030C" unicode="&#x30c;" 
d="M485 1190l-114 377h20l209 -285l297 285h21l-232 -377q-26 -42 -68 -60.5t-80.5 -3.5t-52.5 64z" />
    <glyph glyph-name="uni0312" unicode="&#x312;" 
d="M424 1120q-57 0 -84 38t-18 99q13 81 73 177.5t117 146.5l23 -10q-25 -29 -45.5 -69.5t-26.5 -74.5q-4 -25 6.5 -41.5t27 -27t33 -23t26 -36.5t3.5 -60q-9 -54 -48.5 -86.5t-86.5 -32.5z" />
    <glyph glyph-name="uni0326" unicode="&#x326;" 
d="M111 -573q55 66 69 145q4 25 -6.5 41.5t-27 27t-33 22.5t-26 36t-3.5 59q9 54 50.5 87.5t88.5 33.5q56 0 82 -38.5t17 -98.5q-13 -81 -73 -179.5t-116 -148.5z" />
    <glyph glyph-name="uni0327" unicode="&#x327;" 
d="M213 -408q47 0 80 28t43 69q8 48 -24 88t-109 53l155 201h64l-107 -127q58 -3 99 -22t60 -47.5t26 -58t2 -59.5q-11 -71 -67.5 -119.5t-125.5 -61.5t-139 8t-107 75l19 25q65 -52 131 -52z" />
    <glyph glyph-name="uni0328" unicode="&#x328;" 
d="M504 -340q-111 -108 -239 -124q-108 -14 -161 45q-63 71 -1 204q56 122 212 268l27 -24q-122 -136 -102 -257q13 -80 81 -115q74 -39 153 3q10 5 20 12z" />
    <glyph glyph-name="uni0335" unicode="&#x335;" 
d="M213 569l10 64h674l-10 -64h-674z" />
    <glyph glyph-name="uni0336" unicode="&#x336;" 
d="M213 569l10 64h770l-10 -64h-770z" />
    <glyph glyph-name="uni0337" unicode="&#x337;" 
d="M117 -43l694 713h78l-696 -713h-76z" />
    <glyph glyph-name="uni0338" unicode="&#x338;" 
d="M111 -80l1220 1309h82l-1227 -1309h-75z" />
    <glyph glyph-name="uni03BC" unicode="&#x3bc;" horiz-adv-x="1359" 
d="M381 778q30 203 -123 203l6 43h133q63 0 109.5 -7t78 -18.5t50.5 -34.5t28 -45t9.5 -61t-3 -72.5t-12.5 -87.5l-49 -313q-13 -88 -14.5 -157.5t34.5 -112.5t113 -43q74 0 153.5 35t147.5 100l91 571q30 203 -123 203l6 43h133q63 0 109.5 -7t78 -18.5t50.5 -34.5t28 -45
t9.5 -61t-3 -72.5t-12.5 -87.5l-111 -698h-276l25 150q-87 -74 -189 -118t-199 -50q-70 -3 -112 20l-90 -575h-289z" />
    <glyph glyph-name="Wgrave" unicode="&#x1e80;" horiz-adv-x="2263" 
d="M860 0q-139 0 -207.5 52.5t-91.5 180.5l-170 916q-9 52 -19 87t-29 74.5t-50.5 60t-75.5 20.5l6 43h195q136 0 195 -51t83 -181l174 -950l433 940q-10 44 -21 75t-29.5 62t-47.5 46.5t-68 15.5l6 43h194q136 0 194.5 -51t82.5 -181l178 -952l545 1184h65l-585 -1264
q27 -64 71 -94.5t115 -30.5l-6 -45h-217q-138 0 -206 52.5t-91 180.5l-162 859l-426 -922q25 -64 70 -94.5t118 -30.5l-6 -45h-217zM1239 1825q-45 55 -4 108q32 42 87 47q63 6 87 -48q4 -9 6 -19l86 -377h-20z" />
    <glyph glyph-name="wgrave" unicode="&#x1e81;" horiz-adv-x="1873" 
d="M743 0q-134 2 -201 53t-85 178l-90 508q-9 49 -21 87t-33 76t-55.5 58.5t-79.5 20.5l6 43h207q133 -2 195.5 -54t79.5 -177l98 -543l297 547q-49 184 -178 184l6 43h207q134 -2 195.5 -53.5t80.5 -177.5l98 -541l416 772h68l-459 -852q20 -67 61 -98t109 -31l-6 -43h-207
q-137 2 -203 52.5t-84 178.5l-92 471l-287 -538q17 -65 58 -93t114 -28l-6 -43h-209zM1006 1438q-45 55 -4 108q32 42 87 47q63 6 87 -48q4 -9 6 -19l86 -377h-21z" />
    <glyph glyph-name="Wacute" unicode="&#x1e82;" horiz-adv-x="2263" 
d="M860 0q-139 0 -207.5 52.5t-91.5 180.5l-170 916q-9 52 -19 87t-29 74.5t-50.5 60t-75.5 20.5l6 43h195q136 0 195 -51t83 -181l174 -950l433 940q-10 44 -21 75t-29.5 62t-47.5 46.5t-68 15.5l6 43h194q136 0 194.5 -51t82.5 -181l178 -952l545 1184h65l-585 -1264
q27 -64 71 -94.5t115 -30.5l-6 -45h-217q-138 0 -206 52.5t-91 180.5l-162 859l-426 -922q25 -64 70 -94.5t118 -30.5l-6 -45h-217zM1507 1921q36 67 101 68q52 0 78 -37q32 -46 -14 -100q-8 -10 -19 -19l-332 -289h-21z" />
    <glyph glyph-name="wacute" unicode="&#x1e83;" horiz-adv-x="1873" 
d="M743 0q-134 2 -201 53t-85 178l-90 508q-9 49 -21 87t-33 76t-55.5 58.5t-79.5 20.5l6 43h207q133 -2 195.5 -54t79.5 -177l98 -543l297 547q-49 184 -178 184l6 43h207q134 -2 195.5 -53.5t80.5 -177.5l98 -541l416 772h68l-459 -852q20 -67 61 -98t109 -31l-6 -43h-207
q-137 2 -203 52.5t-84 178.5l-92 471l-287 -538q17 -65 58 -93t114 -28l-6 -43h-209zM1221 1520q36 67 102 68q51 0 76 -38q32 -46 -15 -100q-8 -9 -18 -18l-332 -289h-20z" />
    <glyph glyph-name="Wdieresis" unicode="&#x1e84;" horiz-adv-x="2263" 
d="M860 0q-139 0 -207.5 52.5t-91.5 180.5l-170 916q-9 52 -19 87t-29 74.5t-50.5 60t-75.5 20.5l6 43h195q136 0 195 -51t83 -181l174 -950l433 940q-10 44 -21 75t-29.5 62t-47.5 46.5t-68 15.5l6 43h194q136 0 194.5 -51t82.5 -181l178 -952l545 1184h65l-585 -1264
q27 -64 71 -94.5t115 -30.5l-6 -45h-217q-138 0 -206 52.5t-91 180.5l-162 859l-426 -922q25 -64 70 -94.5t118 -30.5l-6 -45h-217zM1257 1532q-59 0 -90 37.5t-22 97.5q9 58 54 97t101 36q56 -2 89 -39.5t24 -93.5q-9 -59 -54 -97t-102 -38zM1614 1532q-59 0 -91.5 37.5
t-23.5 97.5q9 57 54 94t104 37q55 0 88 -37.5t24 -93.5q-9 -59 -54.5 -97t-100.5 -38z" />
    <glyph glyph-name="wdieresis" unicode="&#x1e85;" horiz-adv-x="1873" 
d="M743 0q-134 2 -201 53t-85 178l-90 508q-9 49 -21 87t-33 76t-55.5 58.5t-79.5 20.5l6 43h207q133 -2 195.5 -54t79.5 -177l98 -543l297 547q-49 184 -178 184l6 43h207q134 -2 195.5 -53.5t80.5 -177.5l98 -541l416 772h68l-459 -852q20 -67 61 -98t109 -31l-6 -43h-207
q-137 2 -203 52.5t-84 178.5l-92 471l-287 -538q17 -65 58 -93t114 -28l-6 -43h-209zM997 1151q-59 0 -91 37.5t-23 97.5q9 58 54 97t103 36q56 -2 88 -39.5t23 -93.5q-9 -59 -53.5 -97t-100.5 -38zM1354 1151q-59 0 -92.5 38t-24.5 97q9 57 55 94t105 37q55 0 87 -37.5
t23 -93.5q-9 -59 -53.5 -97t-99.5 -38z" />
    <glyph glyph-name="Ygrave" unicode="&#x1ef2;" horiz-adv-x="1443" 
d="M571 0l97 602l-236 561q-4 10 -18 42t-20.5 46t-21.5 41t-28 40.5t-32 29.5t-41.5 22.5t-49.5 6.5l6 43h256q52 0 90 -9t62.5 -24t44.5 -42.5t34 -57.5t33 -74q3 -9 5 -13l194 -473l555 693h74l-600 -752l-109 -682h-295zM850 1823q-45 55 -4 108q32 42 87 47
q63 6 87 -48q4 -9 6 -19l86 -377h-20z" />
    <glyph glyph-name="ygrave" unicode="&#x1ef3;" horiz-adv-x="1232" 
d="M340 -512l281 475l-250 776q-35 119 -62 163q-49 79 -131 79l6 43h230q65 -1 107 -12.5t71.5 -42t47.5 -69t40 -107.5l145 -488l422 719h66l-905 -1536h-68zM696 1436q-45 55 -4 108q32 42 87 47q63 6 87 -48q4 -9 6 -19l86 -377h-20z" />
    <glyph glyph-name="endash" unicode="&#x2013;" horiz-adv-x="1144" 
d="M193 563l8 62h981l-8 -62h-981z" />
    <glyph glyph-name="emdash" unicode="&#x2014;" horiz-adv-x="1861" 
d="M193 563l8 62h1697l-8 -62h-1697z" />
    <glyph glyph-name="quoteleft" unicode="&#x2018;" horiz-adv-x="403" 
d="M391 1061q-56 0 -81.5 38.5t-16.5 98.5q13 82 72 178.5t116 145.5l25 -11q-60 -68 -70 -143q-4 -25 6 -41.5t26 -27t32 -23t25 -36.5t3 -60q-9 -54 -49.5 -86.5t-87.5 -32.5z" />
    <glyph glyph-name="quoteright" unicode="&#x2019;" horiz-adv-x="403" 
d="M336 1001q61 68 74 148q4 23 -6.5 39t-27.5 27t-33.5 23.5t-26 36.5t-3.5 60q9 53 49 86t87 33q57 0 84 -38t18 -99q-13 -80 -73.5 -178.5t-117.5 -147.5z" />
    <glyph glyph-name="quotesinglbase" unicode="&#x201a;" horiz-adv-x="403" 
d="M139 -250q59 69 72 148q4 24 -6 40.5t-27 27t-33 23t-25.5 36.5t-4.5 59q9 53 49.5 86t87.5 33q57 0 83 -37.5t17 -99.5q-13 -81 -73 -179t-117 -147z" />
    <glyph glyph-name="quotedblleft" unicode="&#x201c;" horiz-adv-x="710" 
d="M698 1061q-56 0 -81.5 38.5t-16.5 98.5q13 82 72 178.5t116 145.5l25 -11q-26 -29 -47 -69t-25 -74q-4 -25 6.5 -41.5t27 -27t32.5 -23t25.5 -36.5t3.5 -60q-9 -54 -50 -86.5t-88 -32.5zM391 1061q-56 0 -81.5 38.5t-16.5 98.5q13 82 72 178.5t116 145.5l25 -11
q-60 -68 -70 -143q-4 -25 6 -41.5t26 -27t32 -23t25 -36.5t3 -60q-9 -54 -49.5 -86.5t-87.5 -32.5z" />
    <glyph glyph-name="quotedblright" unicode="&#x201d;" horiz-adv-x="710" 
d="M643 1001q61 68 74 148q4 23 -6.5 39t-27 27t-33 23.5t-26 36.5t-3.5 60q9 53 48.5 86t86.5 33q56 0 83.5 -38t18.5 -99q-13 -81 -73 -179t-117 -147zM336 1001q61 68 74 148q4 23 -6.5 39t-27.5 27t-33.5 23.5t-26 36.5t-3.5 60q9 53 49 86t87 33q57 0 84 -38t18 -99
q-13 -80 -73.5 -178.5t-117.5 -147.5z" />
    <glyph glyph-name="quotedblbase" unicode="&#x201e;" horiz-adv-x="710" 
d="M446 -250q59 69 72 148q4 24 -6 40.5t-27 27t-33 23t-25.5 36.5t-4.5 59q9 53 49.5 86t87.5 33q56 0 82.5 -38t17.5 -99q-13 -81 -73 -179t-117 -147zM139 -250q59 69 72 148q4 24 -6 40.5t-27 27t-33 23t-25.5 36.5t-4.5 59q9 53 49.5 86t87.5 33q57 0 83 -37.5
t17 -99.5q-13 -81 -73 -179t-117 -147z" />
    <glyph glyph-name="dagger" unicode="&#x2020;" horiz-adv-x="659" 
d="M344 2l98 932l86 237q-63 -3 -109.5 -22t-79 -36t-63.5 -17l27 174q31 0 58 -17t67.5 -36.5t101.5 -22.5q7 62 -6 105.5t-26.5 73.5t-8.5 61h175q-4 -25 -19 -50t-32 -44t-36.5 -57.5t-29.5 -88.5q63 3 109.5 22.5t79 36.5t63.5 17l-27 -174q-26 0 -49 10.5t-40 24
t-53.5 25.5t-84.5 15l10 -237l-199 -932h-12z" />
    <glyph glyph-name="daggerdbl" unicode="&#x2021;" horiz-adv-x="659" 
d="M254 -55q4 25 19 50t32 44t36.5 57.5t29.5 87.5q-62 -3 -108 -22t-79 -36t-65 -17l28 174q32 0 59 -17t67.5 -37t101.5 -24q6 69 -2 112t-16 68.5t-3 56.5l97 250l-17 248q4 25 15 47.5t23.5 39.5t28 56.5t27.5 94.5q-63 -4 -109 -23.5t-78.5 -36t-64.5 -16.5l29 174
q26 0 49 -11t40 -24.5t53 -26t85 -14.5q6 62 -7.5 105t-27 72t-8.5 59h175q-4 -25 -19 -49t-32 -43t-35.5 -57t-28.5 -87q62 3 108.5 22t79.5 36.5t64 17.5l-29 -174q-31 0 -58 16.5t-67.5 36t-101.5 23.5q-6 -69 1.5 -112.5t15.5 -69t3 -56.5l-98 -248l18 -250
q-5 -31 -21 -57t-37 -69t-36 -111q63 4 109.5 24t79 37t63.5 17l-29 -174q-25 0 -48 10.5t-40 24t-53.5 25.5t-85.5 15q-7 -63 6 -106t26.5 -72.5t8.5 -60.5h-174z" />
    <glyph glyph-name="bullet" unicode="&#x2022;" horiz-adv-x="778" 
d="M471 377q-128 0 -204 91t-56 218q20 126 125.5 216.5t232.5 90.5q126 0 201 -90.5t55 -216.5q-20 -128 -124 -218.5t-230 -90.5z" />
    <glyph glyph-name="ellipsis" unicode="&#x2026;" horiz-adv-x="1132" 
d="M948 -20q-51 0 -80 34t-20 86q8 50 48 84.5t91 34.5t79.5 -34.5t20.5 -84.5q-9 -52 -48.5 -86t-90.5 -34zM219 -20q-51 0 -80 34t-20 86q8 50 48 84.5t91 34.5q48 0 77.5 -35t22.5 -84q-9 -51 -50 -85.5t-89 -34.5zM586 -23q-51 0 -81.5 35.5t-21.5 87.5q7 49 49 83
t93 34q49 0 77.5 -33.5t20.5 -83.5q-9 -53 -48.5 -88t-88.5 -35z" />
    <glyph glyph-name="perthousand" unicode="&#x2030;" horiz-adv-x="2109" 
d="M209 0l1243 1434h68l-1241 -1434h-70zM1022 -18q-140 0 -218.5 89.5t-58.5 219.5q22 129 128 218t245 89q138 0 216.5 -89.5t56.5 -217.5q-20 -130 -125.5 -219.5t-243.5 -89.5zM1028 18q54 0 104.5 78.5t69.5 194.5q20 115 -5.5 193.5t-80.5 78.5q-54 0 -105 -78
t-71 -194q-19 -116 7 -194.5t81 -78.5zM559 838q-140 0 -218 89.5t-56 219.5q21 129 126 218t244 89q138 0 216.5 -89t58.5 -218q-22 -130 -127.5 -219.5t-243.5 -89.5zM567 874q54 0 104.5 78.5t69.5 194.5t-7 194t-81 78q-54 0 -104.5 -78t-69.5 -194t7 -194.5t81 -78.5z
M1724 -18q-139 0 -217.5 89.5t-58.5 219.5q22 129 128.5 218t244.5 89q137 0 215.5 -89.5t56.5 -217.5q-20 -130 -126 -219.5t-243 -89.5zM1731 18q53 0 104.5 79t69.5 194q20 115 -6 193.5t-80 78.5q-53 0 -105 -78.5t-72 -193.5q-18 -115 8.5 -194t80.5 -79z" />
    <glyph glyph-name="guilsinglleft" unicode="&#x2039;" horiz-adv-x="827" 
d="M778 80l-590 465l738 465l-19 -113l-551 -352l441 -352z" />
    <glyph glyph-name="guilsinglright" unicode="&#x203a;" horiz-adv-x="827" 
d="M115 80l18 113l553 352l-442 352l18 113l590 -465z" />
    <glyph glyph-name="fraction" unicode="&#x2044;" horiz-adv-x="1460" 
d="M135 -240l1313 1694h78l-1313 -1694h-78z" />
    <glyph glyph-name="uni2070" unicode="&#x2070;" horiz-adv-x="1087" 
d="M657 545q-206 0 -314.5 145.5t-70.5 382.5q36 234 191.5 379t361.5 145t313.5 -144.5t71.5 -379.5q-38 -237 -192.5 -382.5t-360.5 -145.5zM668 598q106 0 200 132t127 343q33 209 -19.5 340t-158.5 131q-107 0 -201 -130.5t-127 -340.5q-33 -212 19.5 -343.5
t159.5 -131.5z" />
    <glyph glyph-name="uni2074" unicode="&#x2074;" horiz-adv-x="849" 
d="M602 551l45 293h-411l624 747h121l-111 -698h115l-31 -49h-92l-45 -293h-215zM330 893h325l76 475z" />
    <glyph glyph-name="uni2075" unicode="&#x2075;" horiz-adv-x="905" 
d="M543 545q-129 0 -207.5 60t-87.5 165h24q12 -85 76 -130.5t154 -45.5q123 0 202 83.5t101 209.5q21 139 -37 219t-170 80q-119 0 -274 -113l141 512h592l-74 -141h-514l-80 -283q140 82 283 82q158 0 256 -90.5t73 -241.5q-17 -112 -85.5 -196.5t-165.5 -127t-207 -42.5z
" />
    <glyph glyph-name="uni2076" unicode="&#x2076;" horiz-adv-x="907" 
d="M571 543q-168 0 -255.5 134.5t-53.5 330.5q23 130 86.5 240t152 184.5t194.5 118t216 48.5l-4 -16q-80 -10 -148.5 -50.5t-120.5 -105.5t-90.5 -146.5t-64.5 -180.5q47 68 109.5 107t124.5 45.5t120.5 -15t100 -66t60 -115.5t3.5 -155q-27 -151 -148 -254.5t-282 -103.5z
M580 584q87 0 146 82.5t85 226.5q12 67 8 117t-17 88t-36.5 59t-51.5 30t-61 1t-65.5 -28t-65 -57.5t-59.5 -86.5l-6 -29q-18 -117 -12.5 -206.5t41 -143t94.5 -53.5z" />
    <glyph glyph-name="uni2077" unicode="&#x2077;" horiz-adv-x="751" 
d="M258 561q82 218 218 430.5t343 452.5h-549l70 141h616q-191 -267 -298.5 -505.5t-168.5 -518.5h-231z" />
    <glyph glyph-name="uni2078" unicode="&#x2078;" horiz-adv-x="892" 
d="M547 539q-94 0 -170 25t-120 79t-32 129q25 167 271 311q-71 66 -106.5 129t-24.5 136q13 79 69.5 136.5t131.5 83t157 25.5q119 0 196.5 -56t61.5 -153q-23 -142 -221 -260q56 -43 88 -71t69 -71t50.5 -88t5.5 -95q-14 -83 -81 -143.5t-156.5 -88.5t-188.5 -28zM516 592
q96 0 171.5 43.5t88.5 122.5q5 30 -6 59t-41.5 61.5t-55 54t-74.5 61.5t-73 59q-86 -41 -162.5 -116t-87.5 -149q-14 -92 59 -144t181 -52zM729 1149q183 102 201 225q13 78 -38 122t-128 44q-74 0 -134 -40.5t-71 -113.5q-5 -32 5.5 -62.5t40 -63t54 -53.5t70.5 -58z" />
    <glyph glyph-name="uni2079" unicode="&#x2079;" horiz-adv-x="907" 
d="M393 557q155 18 265 142t167 319q-52 -63 -118 -98.5t-128.5 -40t-121 17.5t-99 66t-58.5 113.5t-3 152.5q27 146 149.5 252t282.5 106q109 0 188 -64t110 -167.5t11 -222.5q-31 -173 -130.5 -311t-235.5 -213.5t-283 -82.5zM852 1143q18 116 10 204t-45 139.5t-96 51.5
q-88 0 -153.5 -81t-88.5 -220q-11 -69 -7 -124.5t25 -91t49.5 -56t67 -19.5t77.5 18t80.5 56.5t76.5 95.5z" />
    <glyph glyph-name="uni2080" unicode="&#x2080;" horiz-adv-x="1087" 
d="M537 -225q-206 0 -314.5 145.5t-72.5 382.5q38 235 192 379.5t360 144.5t314.5 -145t70.5 -379q-36 -237 -190 -382.5t-360 -145.5zM547 -172q106 0 199 131.5t126 343.5q33 209 -19 340t-157 131q-107 0 -201 -130t-128 -341q-33 -212 20 -343.5t160 -131.5z" />
    <glyph glyph-name="uni2081" unicode="&#x2081;" horiz-adv-x="585" 
d="M164 -221l131 827l-70 2l2 15l301 196h15l-164 -1040h-215z" />
    <glyph glyph-name="uni2082" unicode="&#x2082;" horiz-adv-x="829" 
d="M82 -193q525 363 580 709q19 122 -36 188t-147 66t-168 -61t-92 -168h-29q21 139 130.5 216t246.5 77q66 0 124 -20t102.5 -57.5t65 -97.5t9.5 -133q-11 -65 -53.5 -134t-95 -125t-135.5 -122t-144.5 -109t-150.5 -102h483l-72 -139h-620z" />
    <glyph glyph-name="uni2083" unicode="&#x2083;" horiz-adv-x="882" 
d="M408 -219q-128 0 -205.5 56.5t-91.5 156.5h24q20 -85 83.5 -123.5t146.5 -38.5q121 0 202.5 80.5t100.5 191.5q15 95 -26.5 165t-135.5 93l2 11q67 32 110.5 90.5t55.5 132.5q14 87 -33 134.5t-125 47.5q-90 0 -166 -56.5t-90 -152.5h-22q15 86 69.5 147t125.5 88t149 27
q124 0 199 -60.5t57 -170.5q-11 -72 -70 -128t-154 -77q97 -16 155.5 -60.5t76.5 -102t6 -128.5q-23 -145 -147.5 -234t-296.5 -89z" />
    <glyph glyph-name="uni2084" unicode="&#x2084;" horiz-adv-x="849" 
d="M481 -201l47 293h-411l624 748h121l-110 -701h114l-30 -47h-93l-47 -293h-215zM211 139h326l75 477z" />
    <glyph glyph-name="uni2085" unicode="&#x2085;" horiz-adv-x="905" 
d="M424 -205q-130 0 -209 59t-88 164h25q12 -86 76 -131t155 -45q123 0 202 83t99 208q23 141 -35 221t-170 80q-121 0 -274 -112l141 514h592l-76 -146h-514l-78 -280q144 84 283 84q102 0 182 -39.5t122 -117t26 -177.5q-27 -169 -158 -267t-301 -98z" />
    <glyph glyph-name="uni2086" unicode="&#x2086;" horiz-adv-x="907" 
d="M453 -201q-111 0 -190.5 61.5t-110.5 167.5t-9 234q32 172 132 306.5t235 206t283 77.5l-2 -16q-106 -13 -192 -80.5t-142.5 -168t-91.5 -233.5q47 68 109.5 106.5t124.5 45t120.5 -14.5t100 -64.5t60 -114t3.5 -154.5q-25 -151 -147 -255t-283 -104zM463 -160
q87 0 145.5 82.5t85.5 227.5q12 67 8 117t-17 88t-36.5 59t-51 29.5t-61 0.5t-66 -28t-66 -57.5t-60.5 -86.5l-4 -28q-31 -177 1.5 -290.5t121.5 -113.5z" />
    <glyph glyph-name="uni2087" unicode="&#x2087;" horiz-adv-x="751" 
d="M141 -184q82 218 217 429t342 451h-548l69 144h617q-191 -268 -298.5 -506.5t-166.5 -517.5h-232z" />
    <glyph glyph-name="uni2088" unicode="&#x2088;" horiz-adv-x="892" 
d="M430 -195q-94 0 -170 25t-119.5 78.5t-31.5 126.5q12 84 77 160t193 151q-151 140 -131 264q13 79 69.5 136.5t131.5 83.5t157 26q119 0 196.5 -56t61.5 -153q-23 -139 -221 -258q56 -43 88 -71.5t69 -71.5t50.5 -89t5.5 -96q-13 -81 -80 -141t-157 -87.5t-189 -27.5z
M399 -143q96 0 171.5 43t88.5 120q4 26 -5 52.5t-23.5 48t-44 50.5t-51 47t-62 51t-61.5 50q-56 -27 -108 -66.5t-94 -94t-50 -105.5q-10 -63 24 -109t90 -66.5t125 -20.5zM612 414q183 102 201 225q13 78 -38 123t-128 45q-73 0 -133.5 -41t-71.5 -115q-5 -32 5.5 -62.5
t40 -63t54 -53.5t70.5 -58z" />
    <glyph glyph-name="uni2089" unicode="&#x2089;" horiz-adv-x="907" 
d="M283 -145q155 18 264 140.5t166 317.5q-52 -63 -117 -98.5t-128 -40t-121 17.5t-99 66t-59 114t-3 154q26 144 148 250.5t282 106.5q109 0 188.5 -63.5t111 -168t10.5 -223.5q-30 -172 -129.5 -309.5t-236.5 -213.5t-284 -83zM741 438q30 175 -6.5 285.5t-126.5 110.5
q-87 0 -151.5 -81t-89.5 -221q-11 -63 -7 -111t17.5 -85t37.5 -58t52.5 -31t63.5 -3t69.5 26.5t70 56t66.5 85.5z" />
    <glyph glyph-name="Euro" unicode="&#x20ac;" horiz-adv-x="1757" 
d="M1085 -20q-135 1 -253 40.5t-209 113.5t-143.5 189.5t-53.5 258.5h-231l36 61h201q0 37 8 76q2 24 15 67h-228l37 62h205q45 145 133.5 261.5t203 191t246.5 114.5t269 41q96 1 179 -16.5t157.5 -55.5t130 -105t86.5 -159h-57q-28 72 -77.5 126.5t-109 85t-121.5 45
t-125 12.5q-218 -3 -379.5 -145.5t-230.5 -395.5h328l-37 -62h-305q-9 -29 -12 -67q-11 -53 -11 -76h332l-37 -61h-299q-10 -249 107 -389.5t334 -145.5q84 -1 171.5 23t182 87t160.5 158h57q-114 -177 -286 -256t-374 -79z" />
    <glyph glyph-name="trademark" unicode="&#x2122;" horiz-adv-x="1488" 
d="M897 1024l102 645h115l148 -536l325 536h105l-103 -645h-104l84 522l-318 -522h-69l-150 539l-86 -539h-49zM473 1024l94 598h-209l9 47h518l-8 -47h-205l-94 -598h-105z" />
    <glyph glyph-name="oneeighth" unicode="&#x215b;" horiz-adv-x="1949" 
d="M256 -205l1331 1802h78l-1331 -1802h-78zM1315 -242q63 0 118.5 18t95.5 56.5t48 91.5q5 30 -6 59t-41 61t-55 54.5t-74 61.5t-72 59q-88 -41 -163.5 -115.5t-86.5 -148.5q-16 -92 56.5 -144.5t179.5 -52.5zM334 629l131 827l-70 2l2 15l301 196h15l-164 -1040h-215z
M1346 -295q-94 0 -170 25t-120 79.5t-32 129.5q25 166 272 311q-71 66 -106.5 128.5t-24.5 135.5q13 79 70.5 136.5t133 83.5t157.5 26q118 0 194 -55.5t62 -153.5q-23 -142 -221 -260q44 -34 70.5 -56t60.5 -57t51.5 -65t27.5 -69t3 -79q-13 -83 -80.5 -144t-158 -88.5
t-189.5 -27.5zM1528 315q187 102 205 226q11 79 -39.5 122.5t-128.5 43.5q-74 0 -134 -40.5t-71 -113.5q-5 -32 5.5 -63t38.5 -62.5t53.5 -54.5t70.5 -58z" />
    <glyph glyph-name="threeeighths" unicode="&#x215c;" horiz-adv-x="2238" 
d="M555 -205l1331 1802h80l-1331 -1802h-80zM584 545q-130 0 -207.5 55.5t-89.5 157.5h24q19 -87 82.5 -125.5t147.5 -38.5q120 0 201 81t100 193q15 95 -25.5 164t-134.5 92l2 11q141 71 166 225q14 86 -34 133t-126 47q-88 0 -163 -56t-91 -153h-22q14 86 69 147.5
t125.5 89t147.5 27.5q125 0 200.5 -61t57.5 -172q-11 -71 -70 -126.5t-156 -78.5q144 -23 201.5 -101.5t38.5 -187.5q-23 -145 -147.5 -234t-296.5 -89zM1593 -242q62 0 117.5 18t96 56.5t48.5 91.5q5 30 -6 59t-41 61.5t-54.5 54.5t-73.5 61t-72 59q-88 -41 -163.5 -115.5
t-86.5 -148.5q-16 -92 56 -144.5t179 -52.5zM1626 -295q-94 0 -169.5 25t-119.5 79.5t-32 129.5q25 167 268 311q-69 66 -103.5 128.5t-23.5 135.5q19 117 123 181.5t233 64.5q120 0 197 -55.5t63 -153.5q-23 -141 -223 -260q55 -42 88.5 -71.5t69.5 -71.5t49.5 -87.5
t5.5 -95.5q-13 -83 -80.5 -144t-157.5 -88.5t-188 -27.5zM1806 315q184 101 203 226q11 79 -38.5 122.5t-127.5 43.5q-73 0 -132.5 -40t-70.5 -114q-9 -61 33.5 -114t132.5 -124z" />
    <glyph glyph-name="fiveeighths" unicode="&#x215d;" horiz-adv-x="2254" 
d="M573 -205l1332 1802h80l-1332 -1802h-80zM596 545q-129 0 -207.5 60t-87.5 165h25q12 -85 75.5 -130.5t153.5 -45.5q123 0 202 83.5t101 209.5q21 140 -36.5 219.5t-170.5 79.5q-120 0 -272 -113l139 512h592l-74 -141h-514l-78 -283q137 82 283 82q158 0 256.5 -90.5
t73.5 -241.5q-17 -112 -86.5 -196.5t-167 -127t-207.5 -42.5zM1616 -242q62 0 117.5 18t96 56.5t48.5 91.5q5 30 -6 59t-41 61t-55 54.5t-74 61.5t-72 59q-88 -41 -163.5 -115.5t-86.5 -148.5q-16 -92 56.5 -144.5t179.5 -52.5zM1649 -295q-94 0 -170 25t-120 79.5
t-32 129.5q25 167 268 311q-70 65 -104 127.5t-23 136.5q19 117 123.5 181.5t233.5 64.5q120 0 197 -55.5t63 -153.5q-23 -141 -223 -260q55 -42 88.5 -71.5t69.5 -71.5t49.5 -87.5t5.5 -95.5q-13 -83 -80.5 -144t-157.5 -88.5t-188 -27.5zM1829 315q184 101 203 226
q11 79 -38.5 122.5t-127.5 43.5q-73 0 -132.5 -40t-70.5 -114q-9 -61 33.5 -114t132.5 -124z" />
    <glyph glyph-name="seveneighths" unicode="&#x215e;" horiz-adv-x="2058" 
d="M350 -205l1331 1802h78l-1331 -1802h-78zM1419 -242q62 0 117 18t95 56.5t48 91.5q5 30 -6 59t-41 61.5t-54.5 54.5t-73.5 61t-72 59q-87 -41 -163 -115.5t-87 -148.5q-16 -92 56.5 -144.5t180.5 -52.5zM358 561q80 216 216.5 428t345.5 455h-551l71 141h617
q-191 -267 -298.5 -505.5t-168.5 -518.5h-232zM1450 -295q-94 0 -170 25t-120 79.5t-32 129.5q25 167 271 311q-71 65 -105.5 128t-23.5 136q13 79 69.5 136.5t131.5 83.5t157 26q118 0 195 -55.5t63 -153.5q-23 -140 -221 -260q43 -33 70 -55.5t60.5 -57.5t51 -65t27 -69
t2.5 -79q-13 -83 -80.5 -144t-157.5 -88.5t-188 -27.5zM1630 315q186 100 205 226q11 79 -39.5 122.5t-128.5 43.5q-73 0 -132.5 -40t-70.5 -114q-7 -42 18.5 -87t56.5 -73.5t91 -77.5z" />
    <glyph glyph-name="arrowleft" unicode="&#x2190;" horiz-adv-x="1466" 
d="M907 221l-702 416l4 20l833 416l-4 -26l-565 -361l1040 -2l-14 -76l-1036 -2l448 -356z" />
    <glyph glyph-name="arrowup" unicode="&#x2191;" horiz-adv-x="1017" 
d="M489 0l164 1036l-438 -504h-29l539 768h23l292 -768h-28l-279 504l-164 -1036h-80z" />
    <glyph glyph-name="arrowright" unicode="&#x2192;" horiz-adv-x="1466" 
d="M668 213l6 29l561 358l-1034 2l8 76l1040 2l-450 358l6 29l700 -418v-18z" />
    <glyph glyph-name="arrowdown" unicode="&#x2193;" horiz-adv-x="1017" 
d="M516 -14l-295 770h29l278 -506l164 1036h80l-164 -1036l439 506h28l-536 -768z" />
    <glyph glyph-name="arrowboth" unicode="&#x2194;" horiz-adv-x="2101" 
d="M907 215l-704 416l4 18l835 418l-6 -29l-565 -360h1413l-450 360l6 29l700 -418v-18l-835 -416l4 29l561 358h-1405l446 -358z" />
    <glyph glyph-name="arrowupdn" unicode="&#x2195;" horiz-adv-x="1017" 
d="M492 -168l-295 768l30 2l279 -504l221 1405l-438 -504h-29l539 770l20 -2l295 -768h-29l-278 508l-225 -1413l442 508h29l-541 -768z" />
    <glyph glyph-name="uni2196" unicode="&#x2196;" horiz-adv-x="1120" 
d="M1026 160l-614 733l6 -610l-25 -23l-117 840l19 12l799 -248l-25 -18l-594 102l617 -735z" />
    <glyph glyph-name="uni2197" unicode="&#x2197;" horiz-adv-x="1118" 
d="M184 162l-47 57l850 733l-627 -104l-18 20l877 250l12 -16l-381 -838l-16 21l198 610z" />
    <glyph glyph-name="uni2198" unicode="&#x2198;" horiz-adv-x="1118" 
d="M1069 174l-797 248l23 20l594 -104l-617 735l64 53l618 -731l-6 611l21 20l116 -840z" />
    <glyph glyph-name="uni2199" unicode="&#x2199;" horiz-adv-x="1116" 
d="M141 168l-10 16l383 838l12 -21l-198 -612l852 735l45 -57l-848 -731l624 102l19 -20z" />
    <glyph glyph-name="partialdiff" unicode="&#x2202;" horiz-adv-x="1222" 
d="M623 -20q-150 0 -259.5 68t-157 181.5t-28.5 249.5q17 119 75.5 218t137.5 161t172 91.5t178 20.5t156.5 -63t106.5 -149q5 137 -14.5 251t-65.5 204.5t-126 146.5t-188 67l6 29q120 -6 227.5 -45t193 -111t143 -169t80 -226.5t2.5 -275.5q-24 -178 -115 -326.5
t-230 -235.5t-294 -87zM625 29q126 0 226 160.5t136 412.5l6 49q-39 163 -144 220q-96 52 -199 -6q-118 -67 -179 -242q-25 -71 -37 -154q-28 -205 20.5 -322.5t170.5 -117.5z" />
    <glyph glyph-name="emptyset" unicode="&#x2205;" horiz-adv-x="1206" 
d="M326 90q-86 72 -125 181t-19 237q23 143 111.5 263t220 189.5t274.5 69.5q151 0 267 -82l188 221h72l-215 -258q77 -72 111 -177.5t14 -225.5q-34 -218 -209.5 -370t-392.5 -152q-136 0 -244 65l-174 -207h-86zM985 864q-92 64 -213 64q-173 0 -316 -123.5t-171 -296.5
q-15 -102 14 -189.5t96 -146.5zM639 88q172 0 313.5 123.5t169.5 296.5q15 94 -10 176.5t-84 140.5l-577 -688q81 -49 188 -49z" />
    <glyph glyph-name="product" unicode="&#x220f;" horiz-adv-x="1703" 
d="M479 4l252 1591h-377l11 58h1540l-11 -58h-378l-252 -1591h-228l252 1591h-330l-251 -1591h-228z" />
    <glyph glyph-name="summation" unicode="&#x2211;" horiz-adv-x="1200" 
d="M115 0l24 152l662 712l-436 709l24 153h942l55 -165h-937l438 -699l-660 -696h938l-108 -166h-942z" />
    <glyph glyph-name="minus" unicode="&#x2212;" horiz-adv-x="1060" 
d="M209 676l14 86h897l-14 -86h-897z" />
    <glyph glyph-name="radical" unicode="&#x221a;" horiz-adv-x="1560" 
d="M367 -20l-144 782h254l105 -639l790 1575h395l-92 -189h-329l-777 -1529h-202z" />
    <glyph glyph-name="infinity" unicode="&#x221e;" horiz-adv-x="2056" 
d="M1651 436q-117 0 -232 68.5t-213 197.5q-100 -65 -157.5 -99.5t-145.5 -79t-166 -65t-153 -20.5q-99 0 -174.5 31.5t-117 84t-58 118t-5.5 135.5q12 73 50.5 140t99.5 121.5t151 86.5t195 31q114 -1 216 -65.5t204 -192.5q93 61 153.5 97t145 79t161.5 63t150 19
q102 -1 179.5 -34.5t121 -88.5t60.5 -123.5t6 -142.5q-24 -148 -149 -254.5t-322 -106.5zM600 674q69 0 156.5 33.5t153 71.5t173.5 108q-184 231 -362 231q-148 0 -241.5 -70.5t-108.5 -164.5q-13 -88 46 -148.5t183 -60.5zM1649 508q137 0 221.5 65.5t99.5 157.5
q13 91 -46 156t-183 65q-96 0 -208.5 -54t-268.5 -157q88 -113 188.5 -173t196.5 -60z" />
    <glyph glyph-name="integral" unicode="&#x222b;" horiz-adv-x="1120" 
d="M68 -217q181 -24 296 189q77 141 156 466q2 9 47 197q79 324 131 466q116 316 292 410q134 71 313 27l-5 -22q-62 12 -115.5 -3t-94 -47.5t-76.5 -91t-61.5 -118.5t-51.5 -146.5t-44 -159t-41 -171.5q-22 -96 -34 -144q-85 -339 -151 -498q-124 -295 -314 -368
q-112 -43 -252 -15z" />
    <glyph glyph-name="approxequal" unicode="&#x2248;" horiz-adv-x="1046" 
d="M254 961q28 22 57.5 37.5t53.5 25t54.5 11t49.5 2.5t51.5 -8t47 -13t49.5 -19.5t46 -21t48 -23.5q43 -20 66.5 -30t64 -23t70 -14t68 3t76.5 23t77 50l-15 -95q-49 -38 -98.5 -56.5t-89.5 -20.5t-88.5 11t-82 27.5t-82.5 38.5q-17 9 -26 13q-46 22 -77.5 34.5t-76.5 22.5
t-82.5 6.5t-83.5 -22t-91 -54.5zM203 604q35 28 71 45t65 25t66 5.5t60.5 -6.5t62.5 -19t57.5 -23.5t59.5 -28.5q37 -18 58 -28t56.5 -23.5t60.5 -17.5t60 -6t65 6.5t65.5 25.5t70.5 45l-16 -96q-60 -48 -116.5 -67t-119 -6.5t-97.5 26t-107 49.5q-19 9 -29 14
q-57 27 -97 40t-94 19.5t-108.5 -12.5t-110.5 -63z" />
    <glyph glyph-name="notequal" unicode="&#x2260;" horiz-adv-x="1060" 
d="M227 96l277 453h-316l15 86h352l115 186h-437l13 86h473l264 434h94l-264 -434h330l-13 -86h-366l-113 -186h449l-15 -86h-489l-272 -453h-97z" />
    <glyph glyph-name="lessequal" unicode="&#x2264;" horiz-adv-x="1073" 
d="M1057 291l-834 457l979 458l-16 -102l-772 -356l659 -357zM139 152l13 86h897l-13 -86h-897z" />
    <glyph glyph-name="greaterequal" unicode="&#x2265;" horiz-adv-x="1073" 
d="M147 291l17 100l774 357l-662 356l17 102l835 -458zM127 152l12 86h895l-12 -86h-895z" />
    <glyph glyph-name="lozenge" unicode="&#x25ca;" horiz-adv-x="997" 
d="M518 -12l-303 725l533 725l301 -727zM543 152l407 559l-231 561l-408 -559z" />
    <glyph glyph-name="uniE000" unicode="&#xe000;" horiz-adv-x="1486" 
d="M776 1292q-61 99 -162 99l7 43h190q139 0 214.5 -54t102.5 -182l189 -864q11 -54 18.5 -87t19.5 -70.5t25.5 -58.5t32.5 -40t44.5 -27t58.5 -8l-7 -43h-172q-139 0 -215 55t-102 183l-51 219h-574l-239 -457h-68zM430 516h526l-122 584q-17 83 -31 127z" />
    <glyph glyph-name="uniE001" unicode="&#xe001;" horiz-adv-x="1505" 
d="M346 1188q30 203 -123 203l6 43h136q64 0 110.5 -7.5t78.5 -19t51 -34.5t28.5 -45.5t10 -61.5t-3 -72t-11.5 -86l-54 -332h599l104 658h299l-188 -1188q-30 -203 120 -203l-6 -43h-133q-110 0 -172.5 20.5t-86 61.5t-24 102t14.5 142l61 389h-598l-112 -715h-295z" />
    <glyph glyph-name="uniE002" unicode="&#xe002;" horiz-adv-x="1474" 
d="M1008 0l-428 688l907 746h86l-719 -588l518 -846h-364zM346 1188q30 203 -123 203l6 43h136q64 0 110.5 -7.5t78.5 -19t51 -34.5t28.5 -45.5t10 -61.5t-3 -72t-11.5 -86l-176 -1108h-295z" />
    <glyph glyph-name="uniE003" unicode="&#xe003;" horiz-adv-x="1925" 
d="M365 1309q-55 82 -142 82l6 43h217q132 0 193 -54t90 -178l238 -926l731 1158h297l-228 -1434h-297l205 1288l-686 -1085q25 -74 68.5 -116.5t120.5 -43.5l-7 -43h-215q-134 0 -199.5 53.5t-92.5 177.5l-254 979l-193 -1210h-59z" />
    <glyph glyph-name="uniE004" unicode="&#xe004;" horiz-adv-x="1447" 
d="M1485 -315q-87 0 -143 9.5t-111.5 38.5t-101 85.5t-93.5 148.5l-628 1241l-191 -1208h-59l209 1315q-52 76 -144 76l6 43h162q147 0 220.5 -33t125.5 -137l531 -1039l192 1209h60l-207 -1299l80 -160q30 -57 53.5 -94.5t56.5 -75t71 -56.5t81 -19h14l-6 -45h-178z" />
    <glyph glyph-name="uniE005" unicode="&#xe005;" horiz-adv-x="1867" 
d="M1454 -539q-82 0 -145.5 26t-103 69t-70.5 95t-55 106.5t-47.5 100.5t-57 80.5t-76.5 43.5q-165 4 -298 59.5t-218.5 150.5t-121 231t-9.5 296q34 219 163 387t323.5 258t424.5 90q172 0 311.5 -52.5t230 -147t128.5 -232.5t12 -303q-33 -204 -147.5 -365t-286 -255.5
t-377.5 -112.5q48 -26 97.5 -72.5t90 -90t85.5 -84.5t102 -66t121 -25q98 0 176.5 43t136.5 155h21q-74 -211 -171 -298t-239 -87zM946 39q225 0 385.5 180t212.5 500q50 319 -54 497.5t-329 178.5q-229 0 -391.5 -178.5t-212.5 -497.5q-52 -319 54.5 -499.5t334.5 -180.5z
" />
    <glyph glyph-name="uniE006" unicode="&#xe006;" horiz-adv-x="1509" 
d="M346 1188q30 203 -123 203l6 43h729q162 0 274 -28.5t169.5 -81.5t76.5 -119.5t5 -151.5q-20 -133 -117.5 -229t-286.5 -132l289 -692h-344l-279 670h-186l-106 -670h-295zM784 729q177 0 274 86.5t120 237.5q25 149 -44.5 235t-246.5 86h-283q37 -37 39 -111t-14 -151
l-62 -383h217z" />
    <glyph glyph-name="uniE007" unicode="&#xe007;" horiz-adv-x="1382" 
d="M670 -23q-128 0 -237 36t-184 114.5t-83 187.5h59q7 -83 73.5 -146t160 -93.5t196.5 -30.5q93 0 173 27t138.5 86.5t71.5 142.5q13 79 -21 138.5t-97 97t-141 70.5t-156 70.5t-139.5 84.5t-93 124t-15.5 179q20 120 103.5 211t193 134.5t223.5 43.5q154 0 253.5 -83
t88.5 -238h-59q3 62 -17 111t-56.5 79.5t-82.5 46.5t-98 16q-102 0 -180.5 -56t-96.5 -161q-9 -56 11 -100.5t60.5 -75t95.5 -56t116.5 -49.5t122 -50.5t113.5 -64t91 -85t54 -118t2 -158.5q-13 -84 -56.5 -155.5t-106.5 -122t-142 -86.5t-164.5 -53.5t-173.5 -17.5z" />
    <glyph glyph-name="uniE008" unicode="&#xe008;" horiz-adv-x="1492" 
d="M1028 -307q-172 0 -259.5 89.5t-135.5 305.5l-227 1061q-9 40 -17.5 69t-24 64t-34 57t-48 37t-65.5 15l6 43h197q137 0 199.5 -51.5t89.5 -180.5l204 -936l652 1168h67l-702 -1254l16 -76q11 -49 18.5 -79t21.5 -73.5t28 -70.5t36 -57.5t47.5 -47.5t61.5 -28.5t78 -11.5
h25l-9 -43h-225z" />
    <glyph glyph-name="uniE009" unicode="&#xe009;" horiz-adv-x="2285" 
d="M973 -307q-173 0 -258 89t-127 306l-197 1061q-9 52 -19 87t-29 74.5t-50.5 60t-75.5 20.5l6 43h195q135 0 194 -51t84 -181l176 -946l431 936q-10 44 -21 75t-29.5 62t-47.5 46.5t-68 15.5l6 43h194q136 0 194.5 -51t82.5 -181l178 -956l545 1188h65l-594 -1284l9 -37
q10 -53 16.5 -81.5t19 -74t24.5 -70.5t33 -57t45 -48.5t58 -29t76 -14.5l35 -2l-8 -43h-226q-173 0 -258 89t-125 306l-186 1004l-432 -934l8 -47q10 -49 17 -80.5t19.5 -74.5t25.5 -70t34 -57t45.5 -47.5t59 -29.5t76.5 -14l32 -2l-8 -43h-225z" />
    <glyph glyph-name="uniE00A" unicode="&#xe00a;" horiz-adv-x="1478" 
d="M1386 -307q-107 0 -179.5 35.5t-123 104.5t-104.5 194l-234 538l-524 -565h-78l578 623l-236 544q-15 36 -26 61t-32 58.5t-41.5 54t-51 35.5t-64.5 15l6 43h246q54 0 95 -10t69 -26t51.5 -47.5t39 -61.5t36.5 -81l148 -340l524 566h78l-578 -621l326 -762
q34 -75 57.5 -119.5t60 -95.5t79.5 -75.5t94 -24.5h28l-8 -43h-236z" />
    <glyph glyph-name="uniE00B" unicode="&#xe00b;" horiz-adv-x="1486" 
d="M1442 -307q-176 0 -258.5 84.5t-130.5 300.5l-84 379h-574l-239 -457h-68l686 1292q-61 99 -160 99l7 43h217q121 0 191.5 -54t96.5 -178l222 -1036q42 -185 64 -244q52 -136 147 -171q39 -15 88 -15h28l-8 -43h-225zM430 516h528l-131 606q-8 35 -24 101z" />
    <glyph glyph-name="uniE00C" unicode="&#xe00c;" horiz-adv-x="1529" 
d="M1792 -391q-426 -46 -611 118q-123 108 -173 340q-22 98 -51 366q-3 24 -5 42q-4 28 -6 42.5t-8 40.5t-13.5 40t-22 34.5t-32.5 31.5t-45 24t-61 19t-79.5 9t-100.5 1l897 717h86l-779 -621q98 8 174 -3.5t125.5 -37t84 -67.5t52.5 -88t29 -105q7 -45 17.5 -116.5
t17.5 -122.5t19.5 -120.5t26 -119t35.5 -107.5t47.5 -97.5t63.5 -78t83 -60t104.5 -32t130.5 -4.5zM346 1188q30 203 -123 203l6 43h136q64 0 110.5 -7.5t78.5 -19t51 -34.5t28.5 -45.5t10 -61.5t-3 -72t-11.5 -86l-176 -1108h-295z" />
    <glyph glyph-name="uniE00D" unicode="&#xe00d;" horiz-adv-x="1925" 
d="M1128 -307q-172 0 -263.5 90.5t-151.5 302.5l-305 1122l-191 -1208h-59l207 1309q-55 82 -142 82l6 43h203q134 0 199.5 -54.5t97.5 -177.5l254 -901l715 1133h297l-228 -1434h-297l205 1288l-674 -1063l35 -131q41 -148 58 -189q52 -126 148 -157q36 -12 81 -12h25
l-9 -43h-211z" />
    <glyph glyph-name="uniE00E" unicode="&#xe00e;" horiz-adv-x="1521" 
d="M346 1188q30 203 -123 203l6 43h136q178 0 237.5 -55.5t38.5 -182.5l-4 -35q81 143 214 219t294 76q245 0 326.5 -138t33.5 -441l-139 -877h-297l143 901q42 274 6.5 376.5t-169.5 100.5q-66 1 -137 -31.5t-136 -93t-115.5 -160.5t-70.5 -221l-137 -872h-295z" />
    <glyph glyph-name="uniE00F" unicode="&#xe00f;" horiz-adv-x="1509" 
d="M1815 -397q-105 -11 -193 -11t-158 9.5t-127 29t-100 47t-77.5 64.5t-59 80.5t-44 96.5t-34 110t-27.5 123.5t-26 135.5q-1 9 -2 13q-12 68 -19 100.5t-22 85.5t-30.5 81.5t-42 57.5t-60.5 44h-234l-106 -670h-295l188 1188q30 203 -123 203l6 43h701q110 0 197 -13
t146.5 -37.5t101 -58.5t60.5 -76.5t25.5 -92t-4.5 -103.5q-11 -66 -38.5 -122.5t-76.5 -107t-127.5 -86.5t-181.5 -53q212 -18 281 -360q50 -249 81 -344q71 -216 203 -290q93 -52 226 -44zM758 729q176 0 272 86.5t119 237.5q25 149 -44 235t-245 86h-256q37 -37 39 -111
t-14 -151l-62 -383h191z" />
    <glyph glyph-name="uniE010" unicode="&#xe010;" horiz-adv-x="2271" 
d="M346 1188q30 203 -123 203l6 43h136q173 0 235 -51t43 -171l-6 -30q76 132 196 203t263 71q174 0 260.5 -79t95.5 -247q76 157 203 241.5t282 84.5q232 0 311 -138.5t31 -440.5l-139 -877h-297l144 899q31 180 20 286t-51.5 148.5t-120.5 42.5q-126 -2 -244 -134.5
t-157 -369.5l-138 -872h-295l144 899q31 180 19.5 286t-52.5 148.5t-121 42.5q-126 -2 -244 -134.5t-157 -369.5l-137 -872h-295z" />
    <glyph glyph-name="uniE011" unicode="&#xe011;" horiz-adv-x="1363" 
d="M571 -20q-100 0 -182.5 36.5t-138 103.5t-77.5 168.5t-3 223.5q25 162 111 285t206 185t254 62q111 0 198 -48t130 -134l25 162h276l-123 -778q-30 -203 121 -203l-6 -43h-125q-154 0 -215 35.5t-66 126.5q-75 -90 -175.5 -136t-209.5 -46zM678 66q87 0 164 63t123 170
l67 426q-12 109 -68.5 170t-144.5 61q-87 0 -161 -63t-121 -162.5t-66 -218.5q-17 -89 -9.5 -170t31 -142.5t71.5 -97.5t114 -36z" />
    <glyph glyph-name="uniE012" unicode="&#xe012;" horiz-adv-x="1363" 
d="M571 -20q-204 0 -321.5 145t-79.5 387q19 122 74 223.5t132.5 168.5t171.5 103.5t193 36.5q105 0 189 -43.5t127 -119.5l57 360q30 203 -123 205l6 43h129q57 0 100 -4.5t74 -16t52.5 -25t33.5 -36.5t18 -45t5 -57t-4.5 -65t-11.5 -77l-146 -917q-30 -203 121 -203
l-6 -43h-125q-151 0 -213 35.5t-68 122.5q-67 -87 -169 -132.5t-216 -45.5zM678 66q87 0 164 63t123 170l67 426q-12 109 -68.5 170t-144.5 61q-87 0 -161 -63t-121 -162.5t-66 -218.5q-17 -89 -9.5 -170t31 -142.5t71.5 -97.5t114 -36z" />
    <glyph glyph-name="uniE013" unicode="&#xe013;" horiz-adv-x="673" 
d="M129 0l152 963h-136l11 61h137l6 37q18 111 71 197.5t129.5 139.5t168 79t190.5 24q125 -3 201 -57.5t76 -151.5h-50q-3 70 -53.5 111t-126.5 41q-138 0 -212 -82t-101 -246l-14 -92h243l-10 -61h-240l-151 -963h-291z" />
    <glyph glyph-name="uniE014" unicode="&#xe014;" horiz-adv-x="1325" 
d="M545 -573q-98 0 -183.5 25.5t-154.5 84.5t-96 144h51q17 -52 55 -91.5t86.5 -61.5t98 -33t98.5 -11q174 0 272 106t127 297l41 256q-67 -74 -166 -118.5t-203 -44.5q-204 0 -321.5 145t-79.5 387q19 122 74 223.5t132.5 168.5t171.5 103.5t193 36.5q111 0 198 -48
t130 -134l25 162h276l-174 -1102q-20 -125 -84 -222.5t-155.5 -155.5t-196 -87.5t-215.5 -29.5zM678 66q87 0 164 63t123 170l67 426q-12 109 -68.5 170t-144.5 61q-87 0 -161 -63t-121 -162.5t-66 -218.5q-17 -89 -9.5 -170t31 -142.5t71.5 -97.5t114 -36z" />
    <glyph glyph-name="uniE015" unicode="&#xe015;" horiz-adv-x="1382" 
d="M381 1241q30 203 -125 205l6 43h129q50 0 90 -4.5t70 -11.5t51.5 -20.5t36 -27.5t22 -37t10.5 -43.5t1.5 -53t-5 -60t-10.5 -68.5l-43 -276q189 157 416 157q164 0 248 -87.5t55 -276.5l-69 -434q-30 -203 122 -203l-6 -43h-127q-147 0 -211.5 36t-68.5 108.5t14 181.5
l49 313q13 89 15 158.5t-33.5 112t-112.5 42.5q-75 0 -156.5 -34.5t-146.5 -98.5l-129 -819h-289z" />
    <glyph glyph-name="uniE016" unicode="&#xe016;" horiz-adv-x="1316" 
d="M895 0l-317 541l722 483h103l-539 -354l377 -670h-346zM381 1241q30 203 -125 205l6 43h135q55 0 97.5 -4.5t73 -16t51.5 -25t32.5 -37t17 -45t4.5 -56.5t-4.5 -65t-11.5 -77l-184 -1163h-289z" />
    <glyph glyph-name="uniE017" unicode="&#xe017;" horiz-adv-x="684" 
d="M496 0q-63 0 -109.5 7t-78 18.5t-50.5 34.5t-28 45t-9.5 61t3 72.5t12.5 87.5l145 915q30 203 -125 205l6 43h135q55 0 97.5 -4.5t73 -16t51.5 -25t32.5 -37t17 -45t4.5 -56.5t-4.5 -65t-11.5 -77l-145 -917q-30 -203 150 -203l-7 -43h-159z" />
    <glyph glyph-name="uniE018" unicode="&#xe018;" horiz-adv-x="1961" 
d="M307 778q30 203 -125 203l6 43h129q144 0 205 -31t70 -112q97 85 185 124t186 39q237 0 280 -180q186 180 385 180q161 0 238.5 -87t48.5 -277l-70 -434q-30 -203 123 -203l-6 -43h-127q-148 0 -213 36t-69 108.5t14 181.5l49 313q8 51 12.5 85t6 74t-5 65.5t-19.5 48
t-38.5 32t-62.5 8.5q-120 0 -254 -143q5 -45 -6 -129l-108 -680h-291l100 639q8 50 12.5 84.5t6 74.5t-5.5 65.5t-20 48t-38 32t-61 8.5q-110 0 -240 -127l-131 -825h-289z" />
    <glyph glyph-name="uniE019" unicode="&#xe019;" horiz-adv-x="1382" 
d="M307 778q30 203 -125 203l6 43h129q149 0 210 -34t67 -120q201 174 436 174q164 0 248 -87.5t55 -276.5l-69 -434q-30 -203 122 -203l-6 -43h-131q-145 0 -208.5 36t-67.5 108.5t14 181.5l49 313q13 89 15 158.5t-33.5 112t-112.5 42.5q-75 0 -156.5 -34.5t-146.5 -98.5
l-129 -819h-289z" />
    <glyph glyph-name="uniE01A" unicode="&#xe01a;" horiz-adv-x="716" 
d="M410 -20q-296 0 -242 335l102 648h-125l11 61h125l12 74q30 203 -123 205l6 40h127q135 0 200 -28.5t79 -88.5t-2 -155l-9 -47h224l-11 -61h-223l-115 -725q-7 -55 -7.5 -96t22 -65t71.5 -26q36 -3 85 12.5t83 40.5l-6 -43q-109 -81 -284 -81z" />
    <glyph glyph-name="uniE01B" unicode="&#xe01b;" horiz-adv-x="1382" 
d="M541 -20q-79 0 -139.5 20t-103.5 62.5t-58.5 114.5t0.5 169l67 432q30 203 -125 203l6 43h136q63 0 109.5 -7t78 -18.5t50.5 -34.5t28 -45t9.5 -61t-3 -72.5t-12.5 -87.5l-49 -313q-13 -88 -15 -157.5t33.5 -112.5t112.5 -43q75 0 155 35t148 100l90 571q30 203 -125 203
l6 43h135q63 0 109.5 -7t78 -18.5t50.5 -34.5t28 -45t9.5 -61t-3 -72.5t-12.5 -87.5l-71 -452q-30 -203 122 -203l-6 -43h-127q-149 0 -209.5 34t-66.5 120q-196 -174 -436 -174z" />
    <glyph glyph-name="uniE01C" unicode="&#xe01c;" horiz-adv-x="1368" 
d="M1686 -403q-130 -2 -223.5 4t-180 26t-149 53.5t-122.5 89t-110 130.5t-102 180l-142 299l-403 -379h-86l463 432l-180 354l-24 48t-24.5 47t-25 38t-32 34t-40 19.5t-53.5 8.5l6 43h248q37 0 66 -4.5t50.5 -10t40.5 -19.5t31 -25t28 -36.5t25.5 -44l28.5 -55.5
q3 -5 4 -8l92 -176l404 379h86l-461 -430l174 -358q12 -23 43 -85t50 -98t55.5 -96.5t67 -98t77 -83t92.5 -71.5t106.5 -44t125.5 -18z" />
    <glyph glyph-name="uniE01D" unicode="&#xe01d;" horiz-adv-x="1341" 
d="M565 -592q-150 0 -267.5 63.5t-158.5 188.5l49 2q22 -68 80.5 -114t123 -63t132.5 -17q173 0 266.5 104t124.5 297l43 268q-95 -76 -203 -116.5t-214 -40.5q-79 0 -139.5 20t-103.5 62.5t-58.5 114.5t0.5 169l67 432q30 203 -125 203l6 43h136q63 0 109.5 -7t78 -18.5
t50.5 -34.5t28 -45t9.5 -61t-3 -72.5t-12.5 -87.5l-49 -313q-13 -88 -15 -157.5t33.5 -112.5t112.5 -43q75 0 155 35t148 100l90 571q30 203 -125 203l6 43h135q63 0 109.5 -7t78 -18.5t50.5 -34.5t28 -45t9.5 -61t-3 -72.5t-12.5 -87.5l-125 -794q-20 -125 -83 -222.5
t-153 -156t-194 -88t-215 -29.5z" />
    <glyph glyph-name="uniE01E" unicode="&#xe01e;" horiz-adv-x="1224" 
d="M1686 -403q-130 -2 -223.5 4t-180 26t-149 53.5t-122.5 89t-110 130.5t-102 180l-142 299l-403 -379h-86l463 432l-174 356q-13 24 -43.5 85.5t-49.5 98.5t-55.5 97t-67 98.5t-77 84t-92.5 71t-106.5 43t-125.5 16.5l6 45q156 3 263 -7.5t201.5 -39.5t165 -85.5
t132.5 -140.5t125 -210l139 -299l404 379h86l-461 -430l174 -358q13 -24 43.5 -85.5t49.5 -98.5t55.5 -97t67 -98.5t77 -84t92.5 -71t106.5 -43t125.5 -16.5z" />
    <glyph glyph-name="uniE01F" unicode="&#xe01f;" horiz-adv-x="1316" 
d="M129 0l154 965h-136l9 59h137l2 12q17 107 73 194t133 140.5t164 82t173 28.5q93 0 166 -34.5t104 -98.5q86 75 207 107t260 20l-6 -39q-87 1 -146 -22t-96 -73t-57 -110.5t-35 -153.5l-8 -53h239l-8 -59h-239l-154 -965h-291l154 965h-355l-153 -965h-291zM569 1024h367
l4 20q24 165 131 269q-20 52 -69.5 81t-114.5 29q-105 0 -191.5 -77.5t-111.5 -227.5z" />
    <glyph glyph-name="uniE020" unicode="&#xe020;" horiz-adv-x="1775" 
d="M129 0l154 965h-136l9 59h137l2 12q15 93 56 172t97 133t124.5 92.5t138 56t137.5 17.5q196 0 264 -129q80 82 187.5 124t216.5 42q159 0 255 -69t78 -187q-12 -71 -66.5 -119.5t-123.5 -48.5q-71 0 -111 44t-30 114q10 67 61.5 110.5t118.5 43.5q18 0 43 -7
q-66 66 -187 66q-112 0 -196.5 -73.5t-108.5 -213.5l-28 -180h288q57 0 100 -4.5t74.5 -16t52.5 -24.5t33 -36.5t18 -45t5 -57t-4.5 -65.5t-11.5 -77l-111 -698h-291l123 774q12 80 7 109q-14 81 -132 82h-147l-154 -965h-291l154 965h-361l-153 -965h-291zM569 1024h373
l10 57q22 142 123 258q-21 54 -69.5 82.5t-114.5 28.5q-106 0 -191 -74t-110 -223z" />
    <glyph glyph-name="uniE021" unicode="&#xe021;" horiz-adv-x="1124" 
d="M129 0l154 965h-136l9 59h137l12 70q17 108 75 196t138.5 142t172.5 83t183 29q151 0 247 -69.5t79 -186.5q-12 -70 -67 -119t-123 -49q-71 0 -112.5 45.5t-31.5 114.5q11 65 61.5 109.5t114.5 44.5q26 0 50 -9q-69 66 -189 66q-113 0 -199 -75.5t-108 -217.5l-29 -174
h285q149 0 214.5 -35t70.5 -107.5t-13 -183.5l-110 -698h-291l123 774q12 80 7 109q-13 81 -130 82h-150l-153 -965h-291z" />
    <glyph glyph-name="uniE022" unicode="&#xe022;" horiz-adv-x="1427" 
d="M1120 -20q-295 0 -241 335l147 926q31 201 -152 205h-20q-114 -3 -171 -70t-73 -168l-28 -184h233l-8 -59h-234l-153 -965h-291l154 965h-136l9 59h135l4 29q69 436 598 436h123q67 0 117 -9t83 -24.5t54 -42t31 -54t11.5 -69t-2.5 -78t-12 -90.5l-141 -884
q-7 -55 -7.5 -96t22.5 -65t73 -26q35 -3 83.5 12.5t82.5 40.5l-6 -43q-104 -81 -285 -81z" />
    <glyph glyph-name="eight.osf" horiz-adv-x="1191" 
d="M602 -18q-138 0 -245.5 38.5t-164 114t-40.5 174.5q39 242 376 434q-100 95 -149 182.5t-33 190.5q13 82 62.5 148t120.5 106.5t152.5 62t164.5 21.5q170 0 278 -82t86 -215q-13 -95 -94.5 -189t-214.5 -171q138 -110 189 -165q132 -140 108 -288v-2
q-13 -87 -70.5 -157.5t-142 -113.5t-183 -66t-200.5 -23zM553 49q86 -1 166.5 24.5t139.5 80.5t71 129q6 35 -7.5 73t-36 69t-64 71t-75.5 67.5t-89 72t-87 71.5q-129 -61 -231 -167.5t-117 -207.5q-21 -128 74.5 -205.5t255.5 -77.5zM858 827q261 148 287 316
q18 109 -55.5 176t-186.5 67q-102 0 -187.5 -57.5t-103.5 -161.5q-5 -32 0.5 -62t25.5 -61.5t36.5 -53.5t55.5 -56.5t59.5 -51.5t68.5 -55z" />
    <glyph glyph-name="five.osf" horiz-adv-x="1200" 
d="M520 -430q-181 0 -290 80t-126 223h33q13 -65 46 -113.5t79 -76.5t97 -41t108 -13q87 0 162.5 34t128 92t86.5 132.5t47 157.5q32 200 -48.5 313t-244.5 113q-89 0 -180.5 -38.5t-202.5 -119.5l205 711h559q131 0 182.5 6.5t72.5 21t50 60.5h39q-11 -21 -30 -58
q-68 -129 -96 -162q-40 -47 -108 -57q-42 -6 -180 -6h-37h-450l-119 -401q189 121 399 121q107 1 199 -31.5t157 -91.5t94.5 -149t12.5 -195q-25 -159 -121.5 -277t-232.5 -176.5t-291 -58.5z" />
    <glyph glyph-name="four.osf" horiz-adv-x="1171" 
d="M643 -430l66 416h-609l899 1038h170l-155 -981h166l-41 -57h-133l-66 -416h-297zM227 43h490l110 696z" />
    <glyph glyph-name="i.loclTRK" horiz-adv-x="583" 
d="M307 778q30 203 -125 203l6 43h136q63 0 109.5 -7t78 -18.5t50.5 -34.5t28 -45t9.5 -61t-3 -72.5t-12.5 -87.5l-111 -698h-289zM442 1143q-66 0 -102.5 42.5t-26.5 108.5q10 64 61.5 106t117.5 42q62 0 98 -42t26 -106q-10 -65 -61 -108t-113 -43z" />
    <glyph glyph-name="nine.osf" horiz-adv-x="1210" 
d="M322 -403q111 11 208.5 67t172 146.5t130 205.5t93.5 252q-74 -106 -173.5 -160.5t-203.5 -54.5q-82 0 -155 34.5t-126 96.5t-75.5 156.5t-4.5 204.5q17 102 71.5 194t133 160t183 108t217.5 40q156 0 267 -84t155.5 -230t11.5 -325q-33 -182 -122.5 -337.5t-213 -261.5
t-272 -169t-302.5 -72zM637 131q79 0 162.5 62t150.5 180l8 51q27 168 16.5 295.5t-62.5 202.5t-136 75q-122 0 -206.5 -117.5t-120.5 -322.5q-35 -202 22 -314t166 -112z" />
    <glyph glyph-name="one.osf" horiz-adv-x="729" 
d="M272 0l131 827l-161 -118l10 63l332 258h145l-164 -1030h-293z" />
    <glyph glyph-name="seven.osf" horiz-adv-x="1044" 
d="M219 -410l748 1237h-463q-68 0 -104.5 -0.5t-71 -4.5t-48 -7.5t-31 -16.5t-24.5 -22.5t-24 -34.5h-39q12 22 32 60q36 68 50 95.5t43.5 61t41.5 40.5t57.5 17t76.5 9.5t112 -0.5h37h547l-866 -1434h-74z" />
    <glyph glyph-name="six.osf" horiz-adv-x="1210" 
d="M635 -20q-155 0 -265.5 87t-154 235t-12.5 327q26 147 88.5 276t150.5 226t196 169t228 111t244 45l-6 -29q-148 -15 -269.5 -108.5t-202 -235t-130.5 -325.5q74 105 173.5 159t201.5 54q83 0 156 -34.5t126 -96.5t75 -156.5t3 -204.5q-18 -101 -71.5 -192.5t-131.5 -159
t-182.5 -107.5t-216.5 -40zM647 29q124 0 210 117.5t120 322.5q35 202 -21.5 314t-164.5 112q-79 0 -164 -63t-152 -181l-6 -49q-27 -169 -17 -296t61 -202t134 -75z" />
    <glyph glyph-name="three.osf" horiz-adv-x="1173" 
d="M508 -430q-181 0 -290 80t-128 223h35q13 -65 46 -114t78.5 -76t94.5 -40.5t100 -13.5q173 0 289.5 117t143.5 279q23 149 -47.5 253.5t-221.5 104.5h-45l424 444h-336h-120.5t-80.5 -5t-55.5 -8t-34 -17.5t-26.5 -26t-25 -39.5h-37q8 17 24 48q70 142 99 178
q39 49 104 60q42 8 179 7h57h510l-577 -598q73 3 135.5 -4t109 -23.5t84.5 -40t62.5 -53t42.5 -63t24.5 -69t9 -72t-5.5 -72.5q-21 -135 -108.5 -240t-222 -162t-291.5 -57z" />
    <glyph glyph-name="two.osf" horiz-adv-x="935" 
d="M147 18q207 143 360.5 330.5t178.5 343.5q17 114 -29.5 180t-142.5 66q-59 0 -111.5 -21.5t-93 -71.5t-51.5 -122h-39q11 77 52.5 139.5t100.5 101.5t128.5 59.5t140.5 20.5q152 0 246 -85.5t71 -239.5q-7 -41 -24 -81t-48 -79t-60.5 -72t-78.5 -72t-82.5 -65
t-93.5 -64.5t-91 -58t-93 -57.5h191q71 0 109 0.5t74 4.5t50 7.5t31.5 16.5t25 23.5t23.5 35.5h37q-15 -27 -39 -72l-42 -77t-37 -50t-39 -34.5t-53 -15t-74 -9t-107 -0.5h-392z" />
    <glyph glyph-name="zero.osf" horiz-adv-x="1196" 
d="M623 -20q-244 0 -361 145t-78 393q37 238 201 382t408 144q241 0 358 -143.5t80 -382.5q-38 -247 -201.5 -392.5t-406.5 -145.5zM631 29q104 0 174.5 128t107.5 359q21 144 18 250.5t-40 167.5t-107 61q-105 0 -176 -127t-106 -352q-39 -223 -7.5 -355t136.5 -132z" />
    </font>
</defs>
</svg>
