<?xml version="1.0" standalone="no"?>
<!DOCTYPE svg PUBLIC "-//W3C//DTD SVG 1.1//EN" "http://www.w3.org/Graphics/SVG/1.1/DTD/svg11.dtd" >
<svg xmlns="http://www.w3.org/2000/svg" xmlns:xlink="http://www.w3.org/1999/xlink" version="1.1">
<metadata>
Created by FontForge 20201107 at Tue Apr  7 13:00:03 2026
 By www-data
Copyright 2019-2021 Indian Type Foundry. All rights reserved.
</metadata>
<defs>
<font id="Sentient-Italic" horiz-adv-x="1009" >
  <font-face 
    font-family="Sentient"
    font-weight="400"
    font-style="italic"
    font-stretch="normal"
    units-per-em="2048"
    panose-1="0 0 0 0 0 0 0 0 0 0"
    ascent="1638"
    descent="-410"
    x-height="1049"
    cap-height="1403"
    bbox="-332 -606 3336 1952"
    underline-thickness="81"
    underline-position="-142"
    slope="-8"
    unicode-range="U+000D-FB04"
  />
<missing-glyph horiz-adv-x="471" 
 />
    <glyph glyph-name="f_f" unicode="ff" horiz-adv-x="1372" 
d="M-78 -512l-31 39q96 95 152 184t92 210.5t62 311.5l94 685h-191l13 88l194 24l19 137q23 182 134.5 275.5t301.5 93.5q133 0 330 -96q101 96 266 96q124 0 227 -63l-59 -164h-47l-127 127q-70 0 -119 -68t-66 -192l-20 -148h283l-17 -110h-280l-99 -715
q-27 -197 -81 -326.5t-144.5 -219t-243.5 -169.5l-30 39q96 95 151.5 184t91.5 210.5t62 311.5l94 685h-442l-99 -715q-28 -198 -82 -326.5t-145 -218.5t-244 -170zM524 1176l-18 -148h442l21 139q8 67 37 146l-252 123q-98 0 -156.5 -65.5t-73.5 -194.5z" />
    <glyph glyph-name="fi" unicode="fi" horiz-adv-x="1316" 
d="M-78 -512l-31 39q139 139 203.5 282t100.5 404l96 705h-191l13 88l194 24l19 131q23 179 155 277t344 98q199 0 316 -111l-72 -155h-47l-178 157q-142 -1 -223.5 -67.5t-96.5 -188.5l-18 -143h557q35 0 55.5 -21.5t20.5 -58.5q0 -16 -17 -127l-102 -659l8 -8l207 110
l20 -51q-126 -120 -215.5 -176.5t-156.5 -56.5q-34 0 -55 20.5t-21 56.5q0 25 16 129l115 732h-449l-96 -711q-27 -199 -80.5 -328.5t-145 -220t-245.5 -170.5z" />
    <glyph glyph-name="fl" unicode="fl" horiz-adv-x="1312" 
d="M-78 -512l-31 39q139 139 203.5 282t100.5 404l96 705h-191l13 88l194 24l21 150q25 177 136 266.5t304 89.5q140 0 264 -55l146 49l39 -29l-193 -1339l8 -8l207 110l21 -51q-244 -233 -373 -233q-37 0 -55.5 21.5t-18.5 55.5q0 36 14 129l166 1147l-233 103
q-197 0 -232 -248l-22 -160h264l-16 -110h-265l-96 -711q-27 -199 -80.5 -328.5t-145 -220t-245.5 -170.5z" />
    <glyph glyph-name="f_f_i" unicode="ffi" horiz-adv-x="1957" 
d="M-78 -512l-31 39q96 95 152 184t92 210.5t62 311.5l94 685h-191l13 88l194 24l19 137q25 183 136 276t302 93q64 0 161 -28t191 -74q132 102 352 102q199 0 316 -111l-72 -155h-47l-178 157q-141 -1 -222 -67t-98 -189l-20 -143h557q35 0 55.5 -21.5t20.5 -58.5
q0 -32 -17 -127l-102 -659l10 -8l207 110l18 -51q-245 -233 -370 -233q-36 0 -56 20t-20 57q0 38 14 129l117 732h-448l-99 -711q-27 -199 -80.5 -328.5t-145 -220t-245.5 -170.5l-28 39q138 138 201.5 280.5t99.5 405.5l96 705h-440l-99 -715q-28 -198 -82 -326.5
t-145 -218.5t-244 -170zM526 1176l-20 -148h442l21 133q9 83 47 148l-260 127q-98 0 -156.5 -65.5t-73.5 -194.5z" />
    <glyph glyph-name="f_f_l" unicode="ffl" horiz-adv-x="1955" 
d="M-78 -512l-31 39q96 95 152 184t92 210.5t62 311.5l94 685h-191l13 88l194 24l19 137q25 183 136 276t302 93q133 0 334 -98q110 98 313 98q140 0 264 -55l146 49l39 -29l-193 -1339l8 -8l207 110l21 -51q-244 -233 -373 -233q-37 0 -55.5 21.5t-18.5 55.5q0 23 12 129
l168 1147l-235 103q-195 0 -230 -248l-22 -160h264l-16 -110h-264l-97 -711q-27 -199 -80.5 -328.5t-145 -220t-245.5 -170.5l-30 39q139 139 203 281.5t100 404.5l96 705h-442l-99 -715q-28 -198 -82 -326.5t-145 -218.5t-244 -170zM526 1176l-20 -148h444l21 152
q12 75 39 131l-254 125q-200 0 -230 -260z" />
    <glyph glyph-name="f_b" unicode="fb" horiz-adv-x="1884" 
d="M-78 -512l-31 39q139 139 203.5 282t100.5 404l96 705h-191l13 88l194 24l21 150q23 176 134.5 266t303.5 90q140 0 264 -55l146 49l36 -29l-145 -913l18 -8q94 240 203 354.5t238 114.5q126 0 201 -99t75 -266q0 -145 -52.5 -275.5t-140.5 -224.5t-209 -149t-253 -55
q-80 0 -171.5 23.5t-164.5 62.5l178 1269l-231 101q-197 0 -232 -248l-20 -160h264l-16 -110h-265l-96 -711q-27 -199 -80.5 -328.5t-145 -220t-245.5 -170.5zM1171 68q167 27 289.5 202t122.5 404q0 108 -37 169.5t-100 61.5q-71 0 -157 -109t-160 -291t-111 -382
q80 -41 153 -55z" />
    <glyph glyph-name="f_f_b" unicode="ffb" horiz-adv-x="2527" 
d="M-78 -512l-31 39q96 95 152 184t92 210.5t62 311.5l94 685h-191l13 88l194 24l19 137q26 183 136.5 276t301.5 93q133 0 334 -98q110 98 313 98q140 0 264 -55l144 49l39 -29l-148 -913l19 -8q95 240 203.5 354.5t236.5 114.5q126 0 201 -99t75 -266q0 -145 -52.5 -275.5
t-140.5 -224.5t-209 -149t-253 -55q-82 0 -173 23t-163 63l178 1269l-231 101q-195 0 -230 -248l-22 -160h264l-16 -110h-264l-97 -711q-27 -199 -80.5 -328.5t-145 -220t-245.5 -170.5l-30 39q139 139 203 281.5t100 404.5l96 705h-442l-99 -715q-28 -198 -82 -326.5
t-145 -218.5t-244 -170zM526 1176l-20 -148h444l21 152q12 75 39 131l-254 125q-200 0 -230 -260zM1815 68q167 27 288 201.5t121 404.5q0 109 -36 170t-99 61q-72 0 -158.5 -109t-160 -291t-109.5 -382q79 -40 154 -55z" />
    <glyph glyph-name="f_f_h" unicode="ffh" horiz-adv-x="2582" 
d="M-78 -512l-31 39q96 95 152 184t92 210.5t62 311.5l94 685h-191l13 88l194 24l19 137q23 183 134.5 276t301.5 93q131 0 336 -98q110 98 311 98q142 0 266 -55l144 49l36 -29l-145 -909l16 -10q99 245 208.5 356t254.5 111q97 0 153 -60t56 -164q0 -83 -18 -182l-84 -477
l12 -10l203 108l18 -51q-127 -123 -214.5 -178t-153.5 -55q-39 0 -59.5 20.5t-20.5 56.5q0 17 14 105l82 469q14 86 14 135q0 52 -25 81.5t-67 29.5q-89 0 -176 -107t-160 -306t-116 -458l-205 -29l190 1358l-231 101q-197 0 -232 -248l-20 -160h264l-16 -110h-264l-97 -711
q-27 -199 -80.5 -328.5t-145 -220t-245.5 -170.5l-30 39q139 139 203 281.5t100 404.5l96 705h-442l-99 -715q-28 -198 -82 -326.5t-145 -218.5t-244 -170zM524 1176l-18 -148h444l21 152q9 72 37 131l-254 125q-98 0 -156.5 -65.5t-73.5 -194.5z" />
    <glyph glyph-name="f_f_j" unicode="ffj" horiz-adv-x="1918" 
d="M-78 -512l-31 39q96 95 152 184t92 210.5t62 311.5l94 685h-191l13 88l194 24l19 137q25 183 136 276t302 93q130 0 350 -104q135 104 354 104q201 0 318 -111l-72 -155h-49l-178 157q-141 -1 -222 -67t-98 -189l-18 -143h555q36 0 56 -21.5t20 -58.5q0 -10 -15 -127
l-92 -614q-29 -200 -82 -328.5t-144 -219.5t-245 -171l-28 39q136 137 198.5 279.5t102.5 406.5l106 705h-448l-97 -711q-27 -199 -80.5 -328.5t-145 -220t-245.5 -170.5l-30 39q139 139 203 281.5t100 404.5l96 705h-442l-99 -715q-28 -198 -82 -326.5t-145 -218.5
t-244 -170zM526 1176l-20 -148h442l21 133q13 90 47 148l-260 127q-98 0 -156.5 -65.5t-73.5 -194.5z" />
    <glyph glyph-name="f_f_k" unicode="ffk" horiz-adv-x="2527" 
d="M-78 -518l-31 37q141 141 204.5 287t101.5 427l94 685h-191l13 88l194 24l19 137q25 183 136 276t302 93q133 0 334 -98q110 98 313 98q141 0 262 -55l146 49l39 -29l-148 -909l16 -10q92 232 208 349.5t249 117.5q98 0 162.5 -63.5t64.5 -160.5q0 -121 -96.5 -224.5
t-261.5 -160.5l176 -290h15l184 116l20 -51q-108 -125 -180 -180t-125 -55q-31 0 -53.5 16.5t-42.5 54.5l-201 350v54q157 35 261 129.5t104 203.5q0 50 -29 87t-74 43q-96 -19 -190 -144.5t-166 -328t-104 -439.5l-205 -29l190 1358l-231 101q-195 0 -230 -248l-22 -160
h264l-16 -110h-264l-97 -711q-27 -201 -80.5 -332t-145 -222t-245.5 -171l-30 37q138 139 201.5 283.5t101.5 410.5l96 705h-442l-99 -715q-28 -200 -82 -330t-145 -220.5t-244 -170.5zM526 1176l-20 -148h444l21 152q12 75 39 131l-254 125q-200 0 -230 -260z" />
    <glyph glyph-name="f_h" unicode="fh" horiz-adv-x="1939" 
d="M-78 -518l-31 37q140 140 204 284t100 410l96 705h-191l13 88l194 24l21 150q23 176 134.5 266t303.5 90q142 0 266 -55l144 49l36 -29l-145 -909l16 -10q99 245 208.5 356t254.5 111q97 0 153 -60t56 -164q0 -83 -18 -182l-82 -477l10 -10l203 108l18 -51
q-127 -123 -214.5 -178t-153.5 -55q-39 0 -59.5 20.5t-20.5 56.5q0 17 14 105l82 469q14 69 14 135q0 52 -25 81.5t-67 29.5q-134 0 -259.5 -239.5t-192.5 -631.5l-205 -29l190 1358l-231 101q-197 0 -232 -248l-20 -160h264l-16 -110h-265l-96 -711q-27 -201 -80.5 -332
t-145 -222t-245.5 -171z" />
    <glyph glyph-name="f_j" unicode="fj" horiz-adv-x="1277" 
d="M-78 -512l-31 39q139 139 203.5 282t100.5 404l96 705h-191l13 88l194 24l19 131q23 179 155 277t344 98q199 0 316 -111l-72 -155h-47l-178 157q-142 -1 -223.5 -67.5t-96.5 -188.5l-18 -143h557q35 0 55.5 -21.5t20.5 -58.5q0 -16 -17 -127l-92 -614
q-29 -200 -82 -328.5t-144 -219.5t-245 -171l-29 39q137 137 199 279t102 407l107 705h-449l-96 -711q-27 -199 -80.5 -328.5t-145 -220t-245.5 -170.5z" />
    <glyph glyph-name="f_k" unicode="fk" horiz-adv-x="1884" 
d="M-78 -512l-31 39q139 139 203.5 282t100.5 404l96 705h-191l13 88l194 24l21 150q25 176 137 266t303 90q141 0 262 -55l146 49l38 -29l-147 -909l16 -10q92 232 208 349.5t249 117.5q98 0 162.5 -63.5t64.5 -160.5q0 -121 -96.5 -224.5t-261.5 -160.5l176 -290h14
l185 116l20 -51q-108 -126 -179.5 -180.5t-125.5 -54.5q-31 0 -53.5 16.5t-42.5 54.5l-201 350l2 54q156 35 259.5 130t103.5 203q0 50 -29 87t-74 43q-96 -19 -190 -144.5t-166 -328t-104 -439.5l-205 -29l192 1358l-231 101q-197 0 -232 -248l-22 -160h264l-16 -110h-265
l-96 -711q-27 -199 -80.5 -328.5t-145 -220t-245.5 -170.5z" />
    <glyph glyph-name="f_t" unicode="ft" horiz-adv-x="1484" 
d="M-78 -512l-31 39q96 95 152 184t92 210.5t62 311.5l94 685h-191l13 88l194 24l19 137q25 181 126 275t267 94q120 0 225 -63l-59 -164h-47l-127 127q-70 0 -120 -68.5t-65 -191.5l-20 -148h444l201 287l37 -21l-37 -266h307l-16 -110h-307l-95 -658q-6 -41 -6 -74
q0 -35 15 -51t47 -16q26 0 53 8l231 129l19 -53q-144 -128 -230 -175.5t-163 -47.5q-177 0 -177 178q0 37 15 133l92 627h-447l-96 -715q-28 -198 -82 -326.5t-145 -218.5t-244 -170z" />
    <glyph glyph-name=".notdef" horiz-adv-x="471" 
 />
    <glyph glyph-name=".null" horiz-adv-x="1024" 
 />
    <glyph glyph-name="nonmarkingreturn" horiz-adv-x="682" 
 />
    <glyph glyph-name="CR" unicode="&#xd;" horiz-adv-x="0" 
 />
    <glyph glyph-name="space" unicode=" " horiz-adv-x="491" 
 />
    <glyph glyph-name="exclam" unicode="!" horiz-adv-x="647" 
d="M362 481h-86l33 860l10 62h263l-9 -62zM250 -20q-57 0 -92 35t-35 89q0 69 50 115.5t118 46.5q54 0 89.5 -33.5t35.5 -87.5q0 -70 -47.5 -117.5t-118.5 -47.5z" />
    <glyph glyph-name="quotedbl" unicode="&#x22;" horiz-adv-x="843" 
d="M721 999h-74l-12 533l6 49h250l-6 -49zM332 999h-74l-12 533l6 49h250l-6 -49z" />
    <glyph glyph-name="numbersign" unicode="#" horiz-adv-x="1445" 
d="M297 0h-115l148 369h-258l14 100h285l170 453h-289l16 100h316l141 358h115l-142 -358h359l143 358h113l-142 -358h254l-14 -100h-283l-170 -453h285l-14 -100h-311l-148 -369h-113l146 369h-359zM655 922l-170 -453h361l170 453h-361z" />
    <glyph glyph-name="dollar" unicode="$" horiz-adv-x="1214" 
d="M559 -207h-108l26 187q-118 6 -218.5 38t-164.5 84l47 340h58l43 -133q28 -94 88 -145t166 -70l75 537q-195 112 -268.5 197.5t-73.5 193.5q0 162 126.5 274.5t332.5 124.5l23 156h106l-20 -156q176 -13 305 -84l-21 -305h-57l-45 94q-73 150 -203 183l-71 -502
q200 -116 281 -210t81 -200q0 -165 -132.5 -282.5t-350.5 -132.5zM612 860l64 455q-119 -10 -186.5 -74t-67.5 -151q0 -57 42 -110.5t148 -119.5zM664 578l-68 -486q122 14 194 85.5t72 160.5q0 61 -43.5 118t-154.5 122z" />
    <glyph glyph-name="percent" unicode="%" horiz-adv-x="1724" 
d="M408 657q-125 0 -199 81.5t-74 219.5q0 118 50.5 219.5t137 160.5t187.5 59q123 0 197.5 -81.5t74.5 -219.5q0 -181 -110.5 -310t-263.5 -129zM430 -2h-137l1001 1364h138zM418 737q88 0 151.5 109.5t63.5 261.5q0 97 -36 152t-99 55q-88 0 -150.5 -108.5t-62.5 -260.5
q0 -97 35.5 -153t97.5 -56zM1229 -18q-123 0 -198 82.5t-75 220.5q0 118 51 219t137.5 160t186.5 59q124 0 198.5 -82.5t74.5 -220.5q0 -180 -110.5 -309t-264.5 -129zM1241 63q88 0 150.5 108.5t62.5 262.5q0 96 -35 151.5t-98 55.5q-88 0 -151.5 -108.5t-63.5 -260.5
q0 -96 36.5 -152.5t98.5 -56.5z" />
    <glyph glyph-name="ampersand" unicode="&#x26;" horiz-adv-x="1814" 
d="M694 -23q-261 0 -421 160.5t-160 421.5q0 141 50.5 262t136 191.5t185.5 70.5q68 0 124.5 -27.5t90.5 -76.5q98 174 101 311l-78 142l14 49l176 65q48 -108 48 -205q0 -139 -139.5 -371.5t-459.5 -609.5q137 -204 383 -204q231 0 392 179.5t186 471.5q-136 62 -194.5 82
t-96.5 20l76 -145l-12 -53l-107 -64q-29 31 -47 81.5t-18 100.5q0 97 54 165.5t132 68.5q118 0 311 -94q181 -88 295 -88l-86 139l10 53l105 68q67 -85 67 -183q0 -102 -52.5 -169.5t-135.5 -67.5q-75 0 -215 49q-7 -179 -63.5 -328t-151 -251t-223 -158t-277.5 -56z
M326 434q182 236 290 412l-210 145q-57 -57 -89 -141t-32 -178q0 -130 41 -238z" />
    <glyph glyph-name="quotesingle" unicode="'" horiz-adv-x="454" 
d="M332 999h-74l-12 533l6 49h250l-6 -49z" />
    <glyph glyph-name="parenleft" unicode="(" horiz-adv-x="681" 
d="M526 -340l-63 -49q-164 158 -256 379t-92 456q0 312 164 615t456 532l58 -49q-216 -225 -345 -536.5t-129 -610.5q0 -197 54 -389t153 -348z" />
    <glyph glyph-name="parenright" unicode=")" horiz-adv-x="681" 
d="M-27 -389l-57 51q215 224 344 535.5t129 609.5q0 198 -54 389.5t-153 349.5l64 47q163 -158 254.5 -379t91.5 -454q0 -312 -163.5 -615.5t-455.5 -533.5z" />
    <glyph glyph-name="asterisk" unicode="*" horiz-adv-x="1011" 
d="M485 862l-26 -35l-166 121l24 35l256 213l-331 21l-43 12l65 196l41 -14l281 -178l-82 323v43h205v-43l-82 -323l278 178l43 14l66 -196l-43 -12l-332 -21l256 -213l25 -35l-166 -121l-27 35l-121 312z" />
    <glyph glyph-name="plus" unicode="+" horiz-adv-x="1130" 
d="M590 248h-125l53 381h-381l17 125h381l53 381h125l-54 -381h383l-18 -125h-381z" />
    <glyph glyph-name="comma" unicode="," horiz-adv-x="505" 
d="M-14 -342l-41 45q87 68 135.5 144.5t48.5 140.5q0 76 -76 112l8 54q108 63 140.5 79.5t46.5 16.5q43 0 71.5 -38.5t28.5 -98.5q0 -112 -103 -241t-259 -214z" />
    <glyph glyph-name="hyphen" unicode="-" horiz-adv-x="811" 
d="M711 555h-596l18 141h598z" />
    <glyph glyph-name="period" unicode="." horiz-adv-x="505" 
d="M176 -20q-55 0 -90 35t-35 91q0 68 48 114t118 46q54 0 90.5 -35.5t36.5 -89.5q0 -68 -48 -114.5t-120 -46.5z" />
    <glyph glyph-name="slash" unicode="/" horiz-adv-x="851" 
d="M49 -281h-141l923 1858h140z" />
    <glyph glyph-name="zero" unicode="0" horiz-adv-x="1288" 
d="M565 -20q-210 0 -329 148.5t-119 406.5q0 249 84.5 452.5t233.5 319.5t333 116q210 0 328 -148.5t118 -406.5q0 -249 -84 -452.5t-232.5 -319.5t-332.5 -116zM580 90q113 0 208 109t150 298.5t55 415.5q0 191 -63 295.5t-178 104.5q-112 0 -206.5 -109.5t-150 -299.5
t-55.5 -415q0 -191 62.5 -295t177.5 -104z" />
    <glyph glyph-name="one" unicode="1" horiz-adv-x="821" 
d="M657 0h-634l8 55l123 43q62 22 84 44t28 69l115 821q8 57 8 78q0 74 -106 92l-90 15l8 53l395 153l43 -28l-156 -1114q-12 -79 -12 -97q0 -32 18 -50.5t64 -35.5l113 -43z" />
    <glyph glyph-name="two" unicode="2" horiz-adv-x="1089" 
d="M858 0h-854l-6 80q341 338 567 612q92 110 139.5 210.5t47.5 176.5q0 92 -57.5 145.5t-157.5 53.5q-136 0 -326 -127l-41 57q103 101 224 158t235 57q164 0 259 -82t95 -223q0 -116 -68.5 -236.5t-218.5 -269.5q-94 -94 -463 -434h424q65 0 103 18.5t76 69.5l61 80h57z
" />
    <glyph glyph-name="three" unicode="3" horiz-adv-x="1038" 
d="M358 -20q-253 0 -403 147l57 70q149 -88 326 -88q146 0 245 92.5t99 228.5q0 123 -99.5 190.5t-279.5 67.5v82q202 15 321 105t119 225q0 83 -57 132.5t-154 49.5q-160 0 -346 -131l-43 61q100 97 221.5 153t233.5 56q172 0 273.5 -80.5t101.5 -216.5q0 -129 -82.5 -228
t-233.5 -155q119 -38 185.5 -120t66.5 -189q0 -127 -71.5 -230.5t-198 -162.5t-281.5 -59z" />
    <glyph glyph-name="four" unicode="4" horiz-adv-x="1153" 
d="M995 0h-571l6 55l98 37q57 23 79 45.5t26 63.5l18 129h-641l-4 65l797 1008h205l-131 -946h184l-19 -127h-184q-20 -130 -20 -150q0 -30 16.5 -48.5t60.5 -39.5l89 -37zM774 1210l-588 -753h484z" />
    <glyph glyph-name="five" unicode="5" horiz-adv-x="1048" 
d="M358 -20q-116 0 -214 37.5t-164 107.5l55 70q71 -50 141 -71.5t160 -21.5q158 0 262 108.5t104 258.5q0 116 -76 180t-212 64q-122 0 -234 -47l-26 45l151 692h508q67 0 109 47l45 51h57l-72 -278h-573l-94 -422q126 55 256 55q181 0 286 -95t105 -257q0 -106 -42.5 -202
t-116.5 -167t-182 -113t-233 -42z" />
    <glyph glyph-name="six" unicode="6" horiz-adv-x="1222" 
d="M553 -20q-202 0 -322 133.5t-120 359.5q0 150 45 292.5t128.5 259.5t195 206t251.5 138.5t291 49.5q50 0 88 -6l-2 -80q-14 2 -43 2q-124 0 -243.5 -50t-215.5 -137.5t-163.5 -215.5t-88.5 -277q76 107 184 170.5t212 63.5q163 0 263.5 -95.5t100.5 -250.5
q0 -150 -74 -279.5t-203.5 -206.5t-283.5 -77zM584 88q124 0 211.5 120.5t87.5 287.5q0 115 -60.5 182t-163.5 67q-82 0 -164.5 -56t-150.5 -157q-8 -70 -8 -102q0 -151 69 -246.5t179 -95.5z" />
    <glyph glyph-name="seven" unicode="7" horiz-adv-x="976" 
d="M383 0h-227l8 57l725 1168h-467q-62 0 -97 -18t-75 -70l-64 -80h-55l78 346h823l29 -45z" />
    <glyph glyph-name="eight" unicode="8" horiz-adv-x="1187" 
d="M514 -20q-198 0 -315 82t-117 219q0 129 98.5 239.5t282.5 184.5q-125 82 -182.5 159t-57.5 164q0 163 141.5 279t354.5 116q173 0 280 -79.5t107 -208.5q0 -119 -90 -219t-254 -156q158 -89 227.5 -171.5t69.5 -182.5q0 -176 -155.5 -301t-389.5 -125zM676 809
q233 156 233 330q0 82 -56 131t-151 49q-116 0 -194 -70.5t-78 -169.5q0 -67 55 -127.5t191 -142.5zM530 88q131 0 219.5 78t88.5 184q0 77 -68 146t-235 161q-254 -179 -254 -364q0 -95 66.5 -150t182.5 -55z" />
    <glyph glyph-name="nine" unicode="9" horiz-adv-x="1198" 
d="M270 -14q-103 0 -164 14l5 76q54 -4 82 -4q177 0 327.5 83t247 229t121.5 329q-66 -88 -163.5 -137.5t-201.5 -49.5q-164 0 -262 98.5t-98 260.5q0 143 70.5 266.5t197 197.5t279.5 74q201 0 314.5 -133.5t113.5 -367.5q0 -191 -64.5 -363t-178 -298t-276.5 -200.5
t-350 -74.5zM612 670q78 0 154 39t133 108q10 78 10 135q0 161 -59.5 261t-157.5 100q-126 0 -210.5 -113t-84.5 -272q0 -119 57.5 -188.5t157.5 -69.5z" />
    <glyph glyph-name="colon" unicode=":" horiz-adv-x="546" 
d="M307 760q-54 0 -89.5 36t-35.5 91q0 68 48 115t118 47q54 0 89.5 -36t35.5 -91q0 -69 -47 -115.5t-119 -46.5zM197 -20q-54 0 -89.5 35.5t-35.5 90.5q0 68 48 114t118 46q55 0 91 -35t36 -88q0 -69 -48 -116t-120 -47z" />
    <glyph glyph-name="semicolon" unicode=";" horiz-adv-x="555" 
d="M305 760q-56 0 -91.5 36t-35.5 89q0 69 49.5 116.5t116.5 47.5q54 0 90.5 -34.5t36.5 -88.5q0 -71 -48 -118.5t-118 -47.5zM6 -342l-41 45q87 68 136 144.5t49 140.5q0 75 -78 112l10 54q112 66 141.5 81t44.5 15q43 0 71 -38.5t28 -98.5q0 -113 -102.5 -241.5
t-258.5 -213.5z" />
    <glyph glyph-name="less" unicode="&#x3c;" horiz-adv-x="1144" 
d="M977 408l-16 -127l-822 370l13 80l923 371l-16 -127l-709 -283z" />
    <glyph glyph-name="equal" unicode="=" horiz-adv-x="1087" 
d="M1006 801h-844l16 125h846zM958 461h-845l18 125h846z" />
    <glyph glyph-name="greater" unicode="&#x3e;" horiz-adv-x="1148" 
d="M1044 651l-923 -370l16 127l709 284l-629 283l19 127l823 -371z" />
    <glyph glyph-name="question" unicode="?" horiz-adv-x="940" 
d="M453 424h-74q-28 37 -51 101.5t-23 101.5q0 61 44.5 127t156.5 153q116 91 155 147t39 117q0 64 -42 102t-113 38q-65 0 -118 -32t-114 -108l-51 -63h-53l12 225q75 40 170 64t178 24q164 0 258.5 -67.5t94.5 -184.5q0 -90 -53.5 -171t-182.5 -177
q-141 -105 -194.5 -161.5t-53.5 -102.5q0 -57 15 -133zM338 -20q-56 0 -90.5 34.5t-34.5 89.5q0 69 49.5 115.5t116.5 46.5q55 0 91 -33t36 -88q0 -70 -48.5 -117.5t-119.5 -47.5z" />
    <glyph glyph-name="at" unicode="@" horiz-adv-x="2021" 
d="M903 -344q-366 0 -580 189t-214 513q0 205 83 393t222 324.5t331.5 217.5t401.5 81q223 0 397 -84t270.5 -235t96.5 -342q0 -136 -51 -264.5t-135 -222.5t-199 -151t-238 -57q-158 0 -158 123q0 43 48 281h-15q-82 -194 -182.5 -298t-206.5 -104q-108 0 -176 87t-68 223
q0 173 77 317t212.5 227.5t298.5 83.5q89 0 185 -36l100 49l33 -27q-123 -743 -123 -780q0 -45 57 -45q94 0 186 87t149.5 226.5t57.5 282.5q0 246 -176.5 401.5t-456.5 155.5q-177 0 -340 -70.5t-281 -189.5t-188.5 -282.5t-70.5 -342.5q0 -289 185.5 -459t500.5 -172
q187 0 348 51l27 -71q-190 -80 -408 -80zM848 156q45 0 101 56t108.5 147t99 216t72.5 254q-86 53 -139 60q-97 -21 -181.5 -101.5t-135 -195.5t-50.5 -234q0 -94 33.5 -148t91.5 -54z" />
    <glyph glyph-name="A" unicode="A" horiz-adv-x="1429" 
d="M367 0h-451l8 55l86 31q41 15 65.5 39t53.5 78l623 1179l153 41l307 -1228q14 -53 28 -71t58 -40l68 -29l-8 -55h-529l9 55l71 25q55 21 71.5 35.5t16.5 36.5q0 21 -6 51l-53 213h-578l-106 -207q-27 -56 -27 -70q0 -19 16 -31.5t58 -27.5l74 -25zM752 1174l-336 -652
h495z" />
    <glyph glyph-name="B" unicode="B" horiz-adv-x="1355" 
d="M631 0h-598l8 55l84 29q52 18 71 42.5t27 74.5l133 954q9 70 9 86q0 28 -15 44.5t-55 33.5l-74 29l6 55h594q210 0 325.5 -83t115.5 -230q0 -133 -84 -229.5t-234 -131.5q130 -23 209.5 -108t79.5 -201q0 -192 -155 -306t-447 -114zM592 1298l-74 -526h160q164 0 262 84
t98 215q0 110 -76 168.5t-221 58.5h-149zM504 668l-80 -564h184q191 0 297.5 85.5t106.5 232.5q0 112 -84 179t-234 67h-190z" />
    <glyph glyph-name="C" unicode="C" horiz-adv-x="1437" 
d="M733 -20q-285 0 -451.5 160t-166.5 429q0 182 61.5 340.5t169 271.5t258 177.5t322.5 64.5q242 0 456 -100l-16 -336h-55q-4 28 -33.5 86t-50.5 86q-115 154 -316 154q-154 0 -284.5 -98.5t-206.5 -267.5t-76 -369q0 -218 113 -350t301 -132q155 0 281 84t214 244h58
l-90 -309q-82 -59 -218.5 -97t-269.5 -38z" />
    <glyph glyph-name="D" unicode="D" horiz-adv-x="1521" 
d="M651 0h-618l6 55l86 29q52 18 71 42.5t25 74.5l135 954q9 74 9 86q0 28 -15 44.5t-55 33.5l-76 29l8 55h602q292 0 461.5 -154.5t169.5 -433.5q0 -238 -102.5 -423.5t-287 -288.5t-419.5 -103zM592 1298l-168 -1194h201q173 0 312.5 93t217.5 256t78 364
q0 222 -121 351.5t-326 129.5h-194z" />
    <glyph glyph-name="E" unicode="E" horiz-adv-x="1355" 
d="M1122 0h-1091l8 55l84 33q52 21 71 44.5t27 68.5l135 966q9 53 9 64q0 29 -15 47t-55 37l-76 33l8 55h1078l-21 -324h-57l-43 107q-31 69 -63.5 90.5t-104.5 21.5h-424l-78 -538h328q47 0 72 16.5t51 65.5l43 86h55l-66 -459h-55l-14 94q-9 54 -32 73t-71 19h-323
l-60 -415q-8 -66 -8 -76q0 -32 18.5 -46t61.5 -14h348q80 0 121.5 23t95.5 96l82 121h56z" />
    <glyph glyph-name="F" unicode="F" horiz-adv-x="1263" 
d="M592 0h-561l8 55l84 29q50 20 70 44.5t28 72.5l135 954q9 74 9 86q0 28 -15 44.5t-55 33.5l-74 29l6 55h1069l-22 -336h-55l-43 107q-31 79 -63 101.5t-105 22.5h-416l-82 -569h317q47 0 71.5 17t49.5 65l45 88h56l-64 -461h-57l-15 94q-10 54 -32.5 73.5t-69.5 19.5
h-315l-54 -371q-8 -52 -8 -86q0 -28 16.5 -46t61.5 -36l88 -31z" />
    <glyph glyph-name="G" unicode="G" horiz-adv-x="1517" 
d="M725 -20q-287 0 -449.5 154.5t-162.5 426.5q0 179 60.5 338t166.5 274.5t257.5 182.5t326.5 67q260 0 467 -106l-23 -330h-57q-3 28 -26.5 78.5t-43.5 79.5q-61 89 -137.5 128.5t-185.5 39.5q-162 0 -294.5 -100.5t-207 -271t-74.5 -372.5q0 -214 115.5 -344.5
t308.5 -130.5q85 0 168.5 19.5t126.5 48.5l33 235q8 49 8 82q0 31 -16 50t-60 36l-78 29l6 55h494l-8 -55l-51 -21q-35 -14 -49.5 -35t-20.5 -63l-49 -348q-104 -71 -245.5 -109t-299.5 -38z" />
    <glyph glyph-name="H" unicode="H" horiz-adv-x="1671" 
d="M571 0h-540l8 55l86 29q52 18 71 42.5t25 74.5l133 954q11 61 11 86q0 28 -15 44.5t-55 33.5l-76 29l8 55h541l-8 -55l-86 -29q-51 -20 -70.5 -44t-25.5 -73l-62 -436h709l55 389q8 66 8 86q0 28 -14 44.5t-55 33.5l-76 29l8 55h541l-9 -55l-84 -29q-52 -21 -71 -44.5
t-27 -72.5l-133 -954q-8 -66 -8 -86q0 -29 14 -46t53 -32l76 -29l-8 -55h-539l9 55l84 29q53 18 71.5 42.5t24.5 74.5l65 454h-708l-58 -407q-10 -82 -10 -86q0 -28 15 -44.5t55 -33.5l76 -29z" />
    <glyph glyph-name="I" unicode="I" horiz-adv-x="747" 
d="M571 0h-540l8 55l86 29q52 18 71 42.5t25 74.5l133 954q1 12 4 30.5t5 32t2 23.5q0 28 -15 44.5t-55 33.5l-76 29l8 55h541l-8 -55l-86 -29q-51 -20 -70.5 -44t-25.5 -73l-134 -954q-10 -82 -10 -86q0 -28 15 -44.5t55 -33.5l76 -29z" />
    <glyph glyph-name="J" unicode="J" horiz-adv-x="749" 
d="M-55 -530l-37 41q50 53 81 88t63.5 83.5t51 84.5t41 102t35.5 124t32 162t33.5 205t37.5 263l71 532q11 64 11 86q0 26 -15.5 43.5t-54.5 34.5l-76 29l8 55h541l-8 -55l-86 -29q-51 -20 -70.5 -44t-25.5 -73l-99 -710q-24 -179 -45 -296t-52 -220.5t-64.5 -168t-90 -127
t-120.5 -108t-162 -102.5z" />
    <glyph glyph-name="K" unicode="K" horiz-adv-x="1433" 
d="M571 0h-540l8 55l86 29q53 18 71.5 42.5t24.5 74.5l133 954q11 71 11 86q0 28 -15 44.5t-55 33.5l-76 29l8 55h541l-8 -55l-86 -29q-51 -20 -70.5 -44t-25.5 -73l-62 -436h100q81 0 156 84l320 348q53 56 53 80q0 28 -64 49l-59 19l8 55h457l-6 -55l-82 -27
q-52 -19 -77.5 -37t-66.5 -65l-421 -457q50 -39 92 -119l231 -436q29 -54 52.5 -78t70.5 -45l70 -29l-7 -53h-317l-350 662h-174l-58 -414q-10 -65 -10 -86q0 -29 14.5 -44.5t55.5 -33.5l76 -29z" />
    <glyph glyph-name="L" unicode="L" horiz-adv-x="1212" 
d="M1067 0h-1036l8 55l86 29q52 18 71 42.5t25 74.5l133 954q1 12 4 30.5t5 32t2 23.5q0 28 -15 44.5t-55 33.5l-76 29l8 55h541l-8 -55l-86 -29q-51 -20 -70.5 -44t-25.5 -73l-134 -952q-8 -55 -8 -80q0 -37 19.5 -51.5t68.5 -14.5h264q88 0 133.5 26t106.5 118l84 127h55z
" />
    <glyph glyph-name="M" unicode="M" horiz-adv-x="1982" 
d="M944 20l-117 -43l-297 1192l-241 -929q-17 -77 -17 -88q0 -21 17.5 -34.5t64.5 -31.5l82 -31l-8 -55h-459l6 55l88 33q46 19 65 40.5t32 72.5l270 1007q8 33 8 52q0 16 -12.5 25.5t-58.5 31.5l-76 31l6 55h399l269 -1120l575 1120h395l-8 -55l-84 -31q-59 -24 -76.5 -41
t-17.5 -55l-14 -1020q0 -51 13 -72.5t54 -40.5l76 -33l-6 -55h-551l6 55l90 31q66 23 83.5 43.5t19.5 73.5l16 971z" />
    <glyph glyph-name="N" unicode="N" horiz-adv-x="1636" 
d="M1303 33l-115 -62l-717 1159l-125 -880q-6 -55 -6 -74q0 -32 16 -51t62 -39l80 -31l-6 -55h-461l8 55l86 33q51 20 70.5 43.5t25.5 69.5l135 962q6 53 6 66q0 35 -15 54t-52 34l-74 31l8 55h324l670 -1096l118 856q7 54 7 68q0 31 -16 48t-62 36l-82 33l8 55h459l-6 -55
l-86 -33q-51 -22 -71 -45.5t-26 -69.5z" />
    <glyph glyph-name="O" unicode="O" horiz-adv-x="1538" 
d="M694 -20q-276 0 -428.5 155.5t-152.5 425.5q0 175 59.5 333.5t162 275t249.5 185t313 68.5q277 0 430.5 -156t153.5 -427q0 -175 -59.5 -333t-162.5 -274t-250.5 -184.5t-314.5 -68.5zM711 90q148 0 273.5 103.5t197 276t71.5 370.5q0 214 -100 343.5t-270 129.5
q-148 0 -273.5 -103.5t-197.5 -276t-72 -370.5q0 -214 100.5 -343.5t270.5 -129.5z" />
    <glyph glyph-name="P" unicode="P" horiz-adv-x="1316" 
d="M594 0h-563l8 55l86 29q50 17 70 42.5t26 74.5l133 954q1 12 4 30.5t5 32t2 23.5q0 28 -15 44.5t-55 33.5l-76 29l8 55h600q227 0 350 -95.5t123 -269.5q0 -233 -159.5 -374.5t-444.5 -141.5h-215l-37 -268q-10 -65 -10 -86q0 -29 16 -47t62 -35l90 -31zM592 1298
l-96 -671h192q171 0 277 113t106 288q0 126 -74 198t-206 72h-199z" />
    <glyph glyph-name="Q" unicode="Q" horiz-adv-x="1538" 
d="M1294 -367l-284 -36q-127 3 -238 178q-64 102 -99 146t-65 61q-235 23 -365 176t-130 403q0 234 100.5 431t281.5 314t402 117q277 0 430.5 -156t153.5 -427q0 -214 -86.5 -399.5t-242.5 -306.5t-351 -146q64 -15 108.5 -49t112.5 -119q44 -56 81 -79t95 -32l96 -16v-60z
M711 86q148 0 273.5 104t197 277t71.5 371q0 215 -99.5 345t-270.5 130q-148 0 -273.5 -104t-197.5 -277t-72 -371q0 -215 100 -345t271 -130z" />
    <glyph glyph-name="R" unicode="R" horiz-adv-x="1406" 
d="M580 0h-549l8 55l86 29q50 17 70 42.5t26 74.5l133 954q11 71 11 86q0 28 -15 44.5t-55 33.5l-76 29l8 55h594q225 0 349 -87t124 -245q0 -162 -106.5 -279t-294.5 -161q56 -26 94 -109l143 -329q20 -44 45.5 -68t71.5 -43l68 -29l-6 -53h-324l-215 483q-52 116 -98 121
h-180l-48 -358q-8 -58 -8 -80q0 -27 17 -45t59 -37l76 -29zM592 1298l-84 -589h186q158 0 264.5 99.5t106.5 250.5q0 115 -73.5 177t-205.5 62h-194z" />
    <glyph glyph-name="S" unicode="S" horiz-adv-x="1169" 
d="M514 -20q-132 0 -253 33t-191 89l51 355h57l27 -135q28 -119 109 -175.5t223 -56.5q126 0 215.5 71.5t89.5 172.5q0 83 -74 153.5t-256 159.5q-307 153 -307 371q0 179 138.5 292t350.5 113q96 0 201.5 -24.5t173.5 -63.5l-14 -317h-58l-36 106q-69 191 -306 191
q-106 0 -183 -65t-77 -156q0 -75 64 -140t227 -151q184 -97 269 -195t85 -207q0 -186 -148.5 -303.5t-377.5 -117.5z" />
    <glyph glyph-name="T" unicode="T" horiz-adv-x="1308" 
d="M872 0h-579l8 55l96 31q56 18 77 43.5t28 71.5l155 1097h-182q-71 0 -114 -29.5t-109 -123.5l-82 -119h-55l82 377h1163l-25 -377h-55l-49 119q-38 94 -72 123.5t-104 29.5h-183l-149 -1052q-8 -52 -8 -76q0 -57 80 -84l86 -31z" />
    <glyph glyph-name="U" unicode="U" horiz-adv-x="1607" 
d="M745 -20q-249 0 -371 94.5t-122 294.5q0 109 22 252l74 534q8 70 8 74q0 31 -14.5 49t-54.5 37l-76 33l8 55h541l-8 -55l-86 -33q-50 -21 -69.5 -45.5t-27.5 -69.5l-88 -631q-12 -83 -12 -147q0 -166 79 -245t245 -79q197 0 303 119t143 377l78 561q6 53 6 74
q0 31 -14.5 50t-53.5 36l-75 33l8 55h444l-8 -55l-84 -33q-51 -22 -70.5 -45.5t-25.5 -69.5l-84 -592q-43 -313 -166 -450q-72 -82 -192 -130t-257 -48z" />
    <glyph glyph-name="V" unicode="V" horiz-adv-x="1386" 
d="M705 25l-127 -50l-326 1233q-15 56 -28.5 73t-57.5 38l-70 29l8 55h533l-6 -55l-72 -25q-56 -21 -73 -35.5t-17 -36.5q0 -18 8 -51l244 -934l465 928q24 50 24 72q0 19 -13.5 31.5t-51.5 25.5l-74 25l8 55h453l-8 -55l-86 -31q-42 -15 -67 -39.5t-52 -77.5z" />
    <glyph glyph-name="W" unicode="W" horiz-adv-x="2041" 
d="M594 23l-119 -43l-225 1228q-9 51 -25 72.5t-57 38.5l-68 29l9 55h524l-8 -55l-70 -25q-57 -21 -73.5 -35t-16.5 -37q0 -15 8 -65l154 -871l493 1057l123 33l215 -1088l375 863q29 62 29 86q0 19 -13.5 31.5t-52.5 25.5l-72 25l9 55h440l-8 -55l-86 -31
q-40 -15 -66 -41.5t-49 -75.5l-530 -1177l-119 -43l-225 1110z" />
    <glyph glyph-name="X" unicode="X" horiz-adv-x="1345" 
d="M362 0h-430l9 55l84 31q38 14 62 34.5t67 69.5l436 515l-266 503q-30 58 -46.5 76t-52.5 33l-69 31l8 55h543l-9 -55l-73 -27q-72 -24 -72 -57q0 -27 22 -72l181 -346l293 344q53 61 53 80q0 35 -58 57l-55 21l8 55h430l-8 -55l-82 -31q-39 -13 -63.5 -33.5t-67.5 -71.5
l-393 -458l295 -559q32 -58 47 -75t51 -34l68 -31l-6 -55h-539l6 55l72 27q40 15 57 28.5t17 30.5q0 22 -25 70l-213 403l-334 -401q-49 -60 -49 -80q0 -36 55 -57l56 -21z" />
    <glyph glyph-name="Y" unicode="Y" horiz-adv-x="1267" 
d="M858 0h-579l6 55l98 31q55 18 76 44t28 71l48 325l-295 682q-26 60 -39 77.5t-47 31.5l-68 31l8 55h529l-9 -55l-71 -27q-46 -19 -64 -31t-18 -28q0 -30 18 -70l230 -530l346 524q39 56 39 76t-14 32.5t-56 26.5l-68 27l7 55h446l-8 -55l-86 -33q-35 -13 -54 -31t-51 -63
l-460 -678l-41 -297q-9 -59 -9 -76q0 -57 78 -84l88 -31z" />
    <glyph glyph-name="Z" unicode="Z" horiz-adv-x="1226" 
d="M1055 0h-1041l6 104l941 1194h-439q-78 0 -119 -28.5t-104 -128.5l-78 -125h-55l82 387h989l-4 -105l-950 -1194h497q82 0 128 30t112 130l80 123h55z" />
    <glyph glyph-name="bracketleft" unicode="[" horiz-adv-x="739" 
d="M567 -367h-512l275 1944h512l-15 -102h-317l-244 -1741h318z" />
    <glyph glyph-name="backslash" unicode="\" horiz-adv-x="851" 
d="M717 -281h-129l-398 1858h127z" />
    <glyph glyph-name="bracketright" unicode="]" horiz-adv-x="739" 
d="M436 -367h-514l17 101h315l246 1741h-318l15 102h514z" />
    <glyph glyph-name="asciicircum" unicode="^" horiz-adv-x="1056" 
d="M272 684h-125l490 844h70l254 -844h-125l-193 635z" />
    <glyph glyph-name="underscore" unicode="_" horiz-adv-x="1089" 
d="M961 -250h-988l21 127h985z" />
    <glyph glyph-name="grave" unicode="`" 
d="M610 1188h-63l-295 293l8 51h219z" />
    <glyph glyph-name="a" unicode="a" horiz-adv-x="1251" 
d="M358 -20q-126 0 -201 98t-75 266q0 192 88.5 354.5t239.5 256.5t327 94q91 0 221 -39l86 45l37 -29l-118 -864l8 -8l207 110l20 -51q-125 -124 -210 -178.5t-146 -54.5q-39 0 -60.5 22.5t-21.5 56.5q0 43 57 379l-18 11q-94 -240 -203 -354.5t-238 -114.5zM438 123
q71 0 157 109t160 290.5t111 380.5q-79 43 -151 58q-111 -18 -205.5 -103.5t-151.5 -219.5t-57 -286q0 -107 36.5 -168t100.5 -61z" />
    <glyph glyph-name="b" unicode="b" horiz-adv-x="1208" 
d="M471 -20q-80 0 -172.5 22.5t-163.5 60.5l158 1113q16 106 16 137q0 26 -15 38t-50 15l-107 6l6 53l359 111l39 -29l-150 -919l19 -8q95 240 203.5 354.5t236.5 114.5q126 0 201 -99t75 -266q0 -144 -52.5 -274.5t-140.5 -224.5t-209 -149.5t-253 -55.5zM496 68
q167 27 288 201.5t121 404.5q0 109 -36 170t-99 61q-71 0 -157 -109.5t-160 -291.5t-111 -381q79 -40 154 -55z" />
    <glyph glyph-name="c" unicode="c" horiz-adv-x="980" 
d="M489 -20q-180 0 -287.5 119t-107.5 319q0 177 72 321.5t199 227t282 82.5q168 0 316 -109l-72 -180h-49l-129 176q-27 12 -62 12q-88 0 -165.5 -69t-123 -185t-45.5 -248q0 -154 65 -242.5t177 -88.5q67 0 145 39t150 108l33 -51q-77 -107 -183 -169t-215 -62z" />
    <glyph glyph-name="d" unicode="d" horiz-adv-x="1251" 
d="M360 -20q-126 0 -201 98t-75 266q0 192 88.5 354.5t239.5 256.5t327 94q52 0 150 -25q39 251 39 289q0 26 -15 38t-51 15l-106 6l6 53l358 111l37 -29l-192 -1345l8 -8l207 110l20 -51q-127 -124 -211 -178.5t-145 -54.5q-39 0 -60.5 22.5t-21.5 56.5q0 38 57 379l-18 8
q-95 -238 -204 -352t-237 -114zM440 123q71 0 157 109t160 290.5t111 380.5q-79 43 -151 58q-110 -18 -204.5 -103.5t-151.5 -219.5t-58 -286q0 -107 36.5 -168t100.5 -61z" />
    <glyph glyph-name="e" unicode="e" horiz-adv-x="1046" 
d="M492 -20q-181 0 -289.5 121.5t-108.5 322.5q0 129 42.5 245t115.5 199t174.5 132t214.5 49q141 0 227 -69.5t86 -182.5q0 -158 -150 -262.5t-378 -104.5q-65 0 -109 8q4 -154 67 -237.5t173 -83.5q159 0 332 159l33 -51q-86 -118 -198 -181.5t-232 -63.5zM760 803
q0 58 -29 97.5t-82 53.5q-126 -11 -220.5 -136t-109.5 -302q18 -2 64 -2q162 0 269.5 83t107.5 206z" />
    <glyph glyph-name="f" unicode="f" horiz-adv-x="731" 
d="M-78 -512l-31 39q96 95 152 184t92 210.5t62 311.5l94 685h-191l13 88l194 24l19 137q25 181 126 275t267 94q120 0 225 -63l-59 -164h-47l-127 127q-70 0 -120 -68t-65 -192l-20 -148h282l-18 -110h-281l-96 -715q-39 -290 -141.5 -443.5t-329.5 -271.5z" />
    <glyph glyph-name="g" unicode="g" horiz-adv-x="1208" 
d="M342 -512q-180 0 -285.5 65t-105.5 175q0 85 93 145.5t323 124.5q-136 5 -210.5 97.5t-74.5 260.5q0 141 52.5 269.5t140.5 221t209 147.5t253 55q88 0 221 -39l86 45l37 -29l-131 -917q-45 -318 -196.5 -469.5t-411.5 -151.5zM440 139q72 0 158 107t159 284.5t109 372.5
q-76 41 -151 58q-110 -18 -204.5 -101t-152 -214.5t-57.5 -280.5q0 -106 37 -166t102 -60zM365 -422q310 0 389 488l61 374l-16 9q-73 -194 -199 -345q-89 -107 -215 -176q-130 -71 -169.5 -106t-39.5 -88q0 -69 52.5 -112.5t136.5 -43.5z" />
    <glyph glyph-name="h" unicode="h" horiz-adv-x="1263" 
d="M328 6l-205 -26l170 1196q14 106 14 137q0 26 -14 38t-49 15l-109 6l8 53l359 111l37 -29l-146 -915l17 -10q97 245 206 356t254 111q98 0 153.5 -59.5t55.5 -164.5q0 -83 -18 -182l-82 -477l10 -10l203 108l18 -51q-128 -123 -214.5 -178t-153.5 -55q-38 0 -58 20.5
t-20 56.5q0 29 12 105l84 469q14 86 14 135q0 52 -25.5 81.5t-68.5 29.5q-133 0 -259 -240t-193 -631z" />
    <glyph glyph-name="i" unicode="i" horiz-adv-x="686" 
d="M436 1229q-53 0 -87 34.5t-34 86.5q0 68 48 113.5t114 45.5q52 0 87.5 -33.5t35.5 -86.5q0 -67 -47.5 -113.5t-116.5 -46.5zM252 -20q-37 0 -55.5 21.5t-18.5 55.5t15 129l108 680l-8 8l-207 -110l-20 49q130 124 218.5 180t153.5 56q37 0 56.5 -23t19.5 -57
q0 -26 -16 -127l-109 -680l8 -8l207 110l21 -51q-244 -233 -373 -233z" />
    <glyph glyph-name="j" unicode="j" horiz-adv-x="647" 
d="M438 1229q-54 0 -87.5 34.5t-33.5 86.5q0 68 47.5 113.5t112.5 45.5q53 0 88 -33.5t35 -86.5q0 -68 -46.5 -114t-115.5 -46zM-66 -512l-28 39q140 139 202.5 283t102.5 423l88 633l-8 11l-207 -113l-21 51q127 121 216 177.5t155 56.5q35 0 55.5 -20.5t20.5 -57.5
q0 -31 -14 -127l-90 -641q-27 -198 -80.5 -326.5t-145.5 -218.5t-246 -170z" />
    <glyph glyph-name="k" unicode="k" horiz-adv-x="1218" 
d="M336 6l-205 -26l170 1196q16 114 16 137q0 26 -15 38t-50 15l-107 6l7 53l358 111l39 -29l-148 -915l17 -10q90 231 207 349t249 118q98 0 162 -63.5t64 -160.5q0 -121 -96.5 -224.5t-262.5 -160.5l179 -290h14l182 116l23 -51q-108 -125 -180 -180t-125 -55
q-59 0 -97 71l-200 350v54q156 35 259 130t103 203q0 50 -27.5 87t-72.5 43q-93 -18 -187.5 -143t-169 -329.5t-106.5 -439.5z" />
    <glyph glyph-name="l" unicode="l" horiz-adv-x="634" 
d="M211 -20q-38 0 -57 21.5t-19 55.5q0 21 15 129l145 990q16 131 16 137q0 26 -15 38t-50 15l-107 6l6 53l357 111l39 -29l-195 -1345l10 -8l207 110l19 -51q-241 -233 -371 -233z" />
    <glyph glyph-name="m" unicode="m" horiz-adv-x="1925" 
d="M1501 -23q-38 0 -58 21t-20 57q0 19 13 105l84 471q14 86 14 135q0 53 -21.5 82t-62.5 29q-88 0 -176 -107t-161.5 -306t-117.5 -458l-204 -29l110 654q14 86 14 135q0 111 -86 111q-133 0 -260 -240.5t-194 -630.5l-205 -29l125 889l-10 8l-207 -110l-19 51
q127 124 212.5 179t148.5 55q38 0 58 -23t20 -57q0 -29 -58 -381l17 -10q99 246 209.5 358.5t255.5 112.5q88 0 137 -55t49 -146q0 -84 -45 -260l16 -10q99 247 207.5 359t253.5 112q96 0 147.5 -59.5t51.5 -164.5q0 -77 -19 -182l-82 -479l11 -10l202 108l21 -51
q-130 -124 -217 -179t-154 -55z" />
    <glyph glyph-name="n" unicode="n" horiz-adv-x="1312" 
d="M375 6l-205 -29l125 889l-10 8l-207 -110l-19 51q127 124 212.5 179t148.5 55q38 0 58 -23t20 -57q0 -29 -58 -381l17 -10q99 246 208.5 358.5t254.5 112.5q97 0 152.5 -60t55.5 -164q0 -72 -20 -182l-82 -479l12 -10l201 108l21 -51q-130 -124 -217 -179t-154 -55
q-38 0 -58 21t-20 57q0 26 12 105l84 471q15 92 15 135q0 52 -26 81.5t-69 29.5q-133 0 -259 -240t-193 -631z" />
    <glyph glyph-name="o" unicode="o" horiz-adv-x="1159" 
d="M504 -20q-189 0 -298.5 122t-109.5 332q0 129 43 243t117.5 195.5t178.5 129t222 47.5q188 0 298 -123t110 -332q0 -172 -73.5 -313t-202.5 -221t-285 -80zM514 70q139 12 233.5 164t94.5 364q0 143 -54 242t-143 114q-140 -12 -234 -162.5t-94 -363.5q0 -143 54 -242
t143 -116z" />
    <glyph glyph-name="p" unicode="p" horiz-adv-x="1243" 
d="M481 -492h-551l7 54l88 30q49 17 69.5 42t26.5 73l164 1163l-11 9l-206 -111l-19 51q123 120 209.5 175t151.5 55q36 0 56.5 -20.5t20.5 -57.5q0 -34 -61 -383l18 -8q94 240 203 354.5t238 114.5q126 0 201 -99t75 -266q0 -144 -52.5 -274.5t-141 -224.5t-209.5 -149.5
t-252 -55.5q-72 0 -146 22l-30 -233q-8 -52 -8 -80q0 -38 17 -57.5t69 -39.5l81 -30zM528 68q110 17 204 101.5t151 218.5t57 286q0 109 -36 170t-99 61q-72 0 -158.5 -109t-160 -291t-109.5 -382q74 -39 151 -55z" />
    <glyph glyph-name="q" unicode="q" horiz-adv-x="1212" 
d="M1030 -492h-549l8 54l93 30q59 20 84.5 45.5t33.5 69.5l119 731l-18 11q-94 -240 -203 -354.5t-238 -114.5q-126 0 -201 98t-75 266q0 192 88.5 354.5t239.5 256.5t327 94q92 0 222 -39l86 45l36 -29l-178 -1257q-8 -52 -8 -82q0 -40 13 -61t48 -34l78 -30zM440 123
q71 0 157 109t160 290.5t111 380.5q-79 43 -151 58q-110 -18 -204.5 -102.5t-152 -218.5t-57.5 -286q0 -108 36.5 -169.5t100.5 -61.5z" />
    <glyph glyph-name="r" unicode="r" horiz-adv-x="1007" 
d="M375 6l-205 -26l125 886l-10 8l-207 -110l-19 49q124 122 210.5 179t150.5 57q37 0 57.5 -21.5t20.5 -58.5q0 -29 -58 -381l19 -10q98 243 199 357t216 114q91 0 156 -68l-51 -213h-51l-107 109q-134 -8 -263.5 -247t-182.5 -624z" />
    <glyph glyph-name="s" unicode="s" horiz-adv-x="923" 
d="M397 -20q-94 0 -187.5 26.5t-158.5 73.5l58 178h45l145 -164q56 -18 102 -18q86 0 147.5 48t61.5 114q0 56 -45 105.5t-176 125.5q-125 71 -180 141.5t-55 161.5q0 127 102 202t270 75q86 0 169.5 -25t148.5 -70l-56 -168h-43l-135 154q-43 12 -86 12q-79 0 -129.5 -34
t-50.5 -89q0 -60 43.5 -107t167.5 -122q140 -83 194 -152.5t54 -158.5q0 -136 -112.5 -222.5t-293.5 -86.5z" />
    <glyph glyph-name="t" unicode="t" horiz-adv-x="839" 
d="M360 -20q-89 0 -132.5 43.5t-43.5 134.5q0 37 15 133l92 627h-191l13 86l194 26l199 285l37 -21l-37 -266h307l-16 -110h-308l-94 -658q-6 -40 -6 -74q0 -35 15 -51t47 -16q26 0 53 8l231 129l19 -53q-144 -127 -230.5 -175t-163.5 -48z" />
    <glyph glyph-name="u" unicode="u" horiz-adv-x="1296" 
d="M393 -20q-98 0 -153.5 59t-55.5 162q0 77 19 182l82 479l-11 8l-202 -106l-19 49q128 125 215 180.5t154 55.5q37 0 57.5 -22t20.5 -58q0 -21 -13 -103l-84 -471q-14 -82 -14 -133q0 -52 25.5 -82t68.5 -30q130 0 253 239.5t190 632.5l204 27l-122 -887l8 -8l207 110
l20 -51q-127 -124 -212 -178.5t-148 -54.5q-38 0 -58 22.5t-20 56.5q0 36 57 381l-16 11q-99 -248 -205.5 -359.5t-247.5 -111.5z" />
    <glyph glyph-name="v" unicode="v" horiz-adv-x="1097" 
d="M567 18l-114 -38q-116 584 -228 892h-14l-178 -116l-31 43q196 250 309 250q43 0 68 -24t47 -87q85 -244 166 -700q139 222 204 350t85 223l-66 123l10 49l174 64q22 -25 36 -64.5t14 -77.5q0 -100 -110 -299.5t-372 -587.5z" />
    <glyph glyph-name="w" unicode="w" horiz-adv-x="1679" 
d="M545 20l-131 -40q-101 579 -187 892h-16l-176 -116l-33 43q101 128 175 189t132 61q46 0 73 -25t44 -86q59 -219 131 -692l328 731l129 47q121 -436 178 -791q229 359 270 576l-65 127l8 47l174 64q22 -23 35.5 -62.5t13.5 -77.5q0 -107 -105.5 -315t-351.5 -572
l-122 -40q-63 380 -150 745z" />
    <glyph glyph-name="x" unicode="x" horiz-adv-x="1163" 
d="M768 -20q-70 0 -96 63l-160 393q-112 -95 -173.5 -161t-94.5 -128l6 -127l-33 -36l-168 43q5 67 41.5 130t129 152.5t257.5 216.5l-143 348l-17 3l-172 -121l-30 43q106 136 174 193t123 57q69 0 96 -64l151 -371q185 156 242 271l-6 125l33 39l168 -43q-6 -100 -88 -200
t-310 -284l150 -370h14l172 120l33 -43q-109 -137 -176.5 -193t-122.5 -56z" />
    <glyph glyph-name="y" unicode="y" horiz-adv-x="1095" 
d="M63 -512q-117 0 -178 154l29 47q71 -19 111 -19q102 0 193 69t226 261q-112 576 -219 872l-14 2l-178 -118l-31 43q101 129 174 189.5t131 60.5q44 0 71.5 -25t47.5 -86q85 -268 166 -707q135 212 201.5 346.5t87.5 231.5l-66 125l10 49l174 61q22 -23 36 -62t14 -77
q0 -96 -98 -281.5t-361 -580.5q-218 -325 -325.5 -440t-201.5 -115z" />
    <glyph glyph-name="z" unicode="z" horiz-adv-x="1017" 
d="M186 45l-123 -65l-49 47l672 788l-414 51l-86 -172h-53q16 155 60 267q19 49 50 68.5t89 19.5q48 0 104 -9l375 -53l123 62l49 -50l-672 -782l445 -59l118 184h56q-43 -196 -90 -287q-22 -41 -51 -58t-78 -17q-52 0 -99 8z" />
    <glyph glyph-name="braceleft" unicode="{" horiz-adv-x="794" 
d="M469 -369q-155 0 -240.5 66t-85.5 186q0 50 17.5 109.5t64.5 169.5q44 106 60 160.5t16 97.5q0 52 -37 83.5t-143 69.5l12 78q141 50 187.5 96.5t46.5 139.5q0 45 -17 178q-16 123 -16 178q0 155 109.5 252.5t299.5 97.5q67 0 152 -12l-12 -86q-196 0 -271 -50t-75 -183
q0 -44 10 -164q12 -120 12 -160q0 -138 -66.5 -211t-224.5 -115q113 -31 167 -84t54 -133q0 -44 -14 -97.5t-57 -168.5q-44 -115 -59 -168.5t-15 -89.5q0 -78 65 -109.5t226 -31.5l-10 -84q-114 -15 -156 -15z" />
    <glyph glyph-name="bar" unicode="|" horiz-adv-x="643" 
d="M274 -274h-124l264 1894h125z" />
    <glyph glyph-name="braceright" unicode="}" horiz-adv-x="792" 
d="M76 -369q-61 0 -150 13l11 86q197 0 271.5 50t74.5 183q0 65 -11 164q-12 120 -12 160q0 138 66 210.5t225 114.5q-113 31 -167 84t-54 133q0 43 14.5 96t58.5 171q44 120 59 172t15 86q0 78 -66 109.5t-227 31.5l13 84q107 14 153 14q155 0 240.5 -66t85.5 -186
q0 -50 -17.5 -109t-64.5 -169q-44 -106 -60 -160.5t-16 -97.5q0 -52 37 -84t143 -70l-10 -78q-143 -50 -189 -95.5t-46 -139.5q0 -53 16 -178q16 -123 16 -178q0 -156 -109.5 -253.5t-299.5 -97.5z" />
    <glyph glyph-name="asciitilde" unicode="~" horiz-adv-x="1132" 
d="M764 569q-84 0 -195 62q-102 61 -168 61q-93 0 -200 -98l-58 86q143 137 271 137q83 0 192 -59q63 -35 100 -49.5t74 -14.5q92 0 199 101l59 -84q-148 -142 -274 -142z" />
    <glyph glyph-name="nbspace" unicode="&#xa0;" horiz-adv-x="491" 
 />
    <glyph glyph-name="exclamdown" unicode="&#xa1;" horiz-adv-x="647" 
d="M358 760q-55 0 -91 34t-36 89q0 70 48.5 118t117.5 48q57 0 92 -35.5t35 -89.5q0 -69 -49.5 -116.5t-116.5 -47.5zM330 -375h-264l10 62l209 860h86l-33 -860z" />
    <glyph glyph-name="cent" unicode="&#xa2;" horiz-adv-x="1093" 
d="M578 -209h-103l27 191q-188 9 -297 125.5t-109 308.5q0 167 68.5 306.5t195 226.5t287.5 98l27 184h102l-24 -187q150 -15 278 -104l-61 -213h-51q-13 72 -46 121q-39 63 -137 86l-112 -819q154 10 286 114l35 -53q-152 -159 -340 -186zM522 125l113 821
q-89 -11 -164 -83.5t-117.5 -182.5t-42.5 -231q0 -128 55.5 -213t155.5 -111z" />
    <glyph glyph-name="sterling" unicode="&#xa3;" horiz-adv-x="1177" 
d="M977 0h-914l-6 137q342 134 342 398q0 43 -16 96h-266l14 106h209q-45 99 -63.5 159t-18.5 114q0 176 139.5 294.5t370.5 118.5q195 0 330 -77l-4 -295h-60l-47 79q-65 106 -116.5 143.5t-135.5 37.5q-114 0 -187 -76.5t-73 -183.5q0 -122 88 -314h385l-12 -106h-342
q12 -46 12 -90q0 -104 -65.5 -200t-196.5 -165h459q48 0 83 18t70 60l72 82h53z" />
    <glyph glyph-name="currency" unicode="&#xa4;" horiz-adv-x="1214" 
d="M358 367l-204 -181l-76 86l203 181q-54 85 -54 186q0 152 117 285l-149 176l100 86l149 -178q115 75 238 75q131 0 223 -79l203 182l76 -86l-205 -180q47 -80 47 -177q0 -71 -31 -148t-84 -136l156 -187l-96 -86l-158 185q-113 -76 -242 -76q-122 0 -213 72zM590 412
q127 0 219 96.5t92 222.5q0 102 -66 169t-167 67q-126 0 -220 -97t-94 -217q0 -103 67.5 -172t168.5 -69z" />
    <glyph glyph-name="yen" unicode="&#xa5;" horiz-adv-x="1212" 
d="M834 0h-580l8 55l96 31q56 18 78 44.5t27 70.5l12 82h-399l14 104h402l30 217h-401l14 105h342l-190 499q-22 57 -35.5 74t-52.5 35l-68 31l8 55h527l-9 -55l-69 -27q-78 -28 -78 -57q0 -31 16 -78l162 -445l275 439q45 68 45 92q0 14 -13 25t-47 24l-69 27l8 55h436
l-8 -55l-88 -33q-36 -14 -57 -32.5t-48 -61.5l-336 -512h365l-14 -105h-400l-30 -217h399l-16 -104h-400q-12 -79 -12 -113q0 -28 17 -48t61 -36l86 -31z" />
    <glyph glyph-name="brokenbar" unicode="&#xa6;" horiz-adv-x="643" 
d="M420 772h-125l119 848h125zM274 -274h-124l118 845h125z" />
    <glyph glyph-name="section" unicode="&#xa7;" horiz-adv-x="1107" 
d="M403 -446q-79 0 -162 24.5t-145 65.5l27 272h57l37 -90q39 -96 86.5 -134t126.5 -38q101 0 163 58t62 143q0 58 -51.5 108.5t-191.5 130.5q-169 96 -237.5 177.5t-68.5 183.5q0 128 92.5 231t241.5 135q-168 107 -168 248q0 150 116 251t304 101q74 0 154 -20t141 -55
l-12 -263h-64l-37 84q-38 80 -89 118t-121 38q-99 0 -160.5 -52.5t-61.5 -129.5q0 -56 50.5 -104.5t191.5 -131.5q177 -100 244 -179t67 -181q0 -125 -96 -236t-240 -143q92 -58 133.5 -116t41.5 -132q0 -151 -122 -257.5t-309 -106.5zM561 227q113 9 180.5 81.5t67.5 170.5
q0 73 -57 134t-207 147q-116 -6 -190 -74.5t-74 -161.5q0 -73 61 -139t219 -158z" />
    <glyph glyph-name="dieresis" unicode="&#xa8;" 
d="M731 1237q-51 0 -82 31t-31 82q0 61 42.5 102t107.5 41q50 0 81.5 -31t31.5 -82q0 -61 -43.5 -102t-106.5 -41zM330 1237q-51 0 -82 31t-31 82q0 61 42.5 102t105.5 41q51 0 82.5 -31t31.5 -82q0 -61 -43 -102t-106 -41z" />
    <glyph glyph-name="copyright" unicode="&#xa9;" horiz-adv-x="1667" 
d="M848 -16q-206 0 -374 95.5t-263.5 263.5t-95.5 374t95.5 373.5t263.5 262.5t374 95t373.5 -94.5t262.5 -262t95 -374.5q0 -153 -56.5 -289t-153.5 -233.5t-232.5 -154t-288.5 -56.5zM848 72q176 0 316 82.5t219 230t79 332.5q0 180 -80.5 328t-221.5 232.5t-312 84.5
q-174 0 -315 -83.5t-221.5 -231t-80.5 -328.5q0 -136 47.5 -256.5t129.5 -206t196.5 -135t243.5 -49.5zM877 285q-205 0 -324 112t-119 310q0 190 122 306.5t314 116.5q148 0 279 -61l20 -192h-39q-31 51 -65 90q-75 86 -195 86q-127 0 -202.5 -91t-75.5 -247
q0 -166 78 -258t215 -92q88 0 150.5 42t109.5 134h37l-27 -172q-46 -37 -122.5 -60.5t-155.5 -23.5z" />
    <glyph glyph-name="ordfeminine" unicode="&#xaa;" horiz-adv-x="843" 
d="M315 727q-71 0 -116 66.5t-45 171.5q0 195 110 325.5t266 130.5q62 0 129 -24l54 30l26 -22l-69 -551l6 -4l115 68l14 -39q-78 -82 -127 -117t-86 -35q-22 0 -34.5 15.5t-12.5 39.5q0 33 30 201l-12 4q-99 -260 -248 -260zM365 827q41 0 90 71t89.5 185.5t59.5 237.5
q-49 25 -88 37q-94 -19 -159.5 -127t-65.5 -252q0 -70 19.5 -111t54.5 -41zM758 504h-658l13 104h659z" />
    <glyph glyph-name="guillemotleft" unicode="&#xab;" horiz-adv-x="1003" 
d="M831 121l-55 -29l-299 402l4 41l414 399l47 -29l-250 -393zM432 121l-53 -29l-301 402l6 41l414 399l45 -29l-248 -393z" />
    <glyph glyph-name="logicalnot" unicode="&#xac;" horiz-adv-x="1091" 
d="M950 375h-129l56 385h-762l18 125h889z" />
    <glyph glyph-name="softhyphen" unicode="&#xad;" horiz-adv-x="811" 
d="M711 555h-596l18 141h598z" />
    <glyph glyph-name="registered" unicode="&#xae;" horiz-adv-x="1138" 
d="M618 682q-207 0 -341 132.5t-134 342.5q0 204 129 337.5t346 133.5q209 0 342.5 -133t133.5 -338t-130.5 -340t-345.5 -135zM618 745q172 0 279 112.5t107 299.5q0 171 -108 288.5t-278 117.5q-181 0 -284 -115t-103 -291q0 -183 110 -297.5t277 -114.5zM604 907h-196v25
l26 14q15 9 20 17.5t5 25.5v336q0 24 -21 37l-28 16v23h204q89 0 142 -36t53 -101q0 -50 -36 -88.5t-91 -49.5q19 -11 34 -31t44 -69q24 -41 38 -58t31 -24l29 -12v-25h-125l-108 178q-12 19 -18.5 26t-16.5 7h-39v-129q0 -30 24 -43l29 -14v-25zM551 1358v-197h51
q51 0 79 28t28 75q0 44 -28 69t-77 25h-53z" />
    <glyph glyph-name="macron" unicode="&#xaf;" 
d="M834 1268h-584l18 131h584z" />
    <glyph glyph-name="degree" unicode="&#xb0;" horiz-adv-x="813" 
d="M453 856q-127 0 -208 70t-81 176q0 129 105 227t263 98q127 0 207 -69.5t80 -177.5q0 -128 -104.5 -226t-261.5 -98zM465 940q92 0 151.5 69.5t59.5 168.5q0 74 -43 119.5t-113 45.5q-92 0 -152.5 -70t-60.5 -167q0 -74 44 -120t114 -46z" />
    <glyph glyph-name="plusminus" unicode="&#xb1;" horiz-adv-x="1095" 
d="M594 422h-119l43 301h-366l14 119h369l43 301h116l-43 -301h369l-16 -119h-367zM936 240h-854l16 110h854z" />
    <glyph glyph-name="twosuperior" unicode="&#xb2;" horiz-adv-x="716" 
d="M602 616h-500l-2 48q228 224 326 346q102 127 102 215q0 51 -32 80.5t-88 29.5q-79 0 -185 -71l-24 36q58 58 129 90.5t137 32.5q97 0 153 -47t56 -129q0 -138 -164 -289q-100 -94 -260 -231h242q38 0 58.5 9t41.5 38l35 45h35z" />
    <glyph glyph-name="threesuperior" unicode="&#xb3;" horiz-adv-x="690" 
d="M311 610q-145 0 -235 84l33 43q85 -49 186 -49q83 0 138.5 50.5t55.5 125.5q0 69 -56.5 106.5t-158.5 37.5l2 51q114 9 180 59t66 125q0 44 -31 70t-85 26q-97 0 -197 -71l-29 39q58 56 130.5 88t140.5 32q99 0 158 -46t59 -124q0 -72 -47 -128.5t-134 -88.5
q68 -24 107 -69.5t39 -106.5q0 -110 -92.5 -182t-229.5 -72z" />
    <glyph glyph-name="acute" unicode="&#xb4;" 
d="M506 1188h-66l222 344h221l-6 -51z" />
    <glyph glyph-name="micro" unicode="&#xb5;" horiz-adv-x="1251" 
d="M268 -371h-205l197 1399h201l-82 -594q-10 -59 -10 -106q0 -193 204 -193q63 0 134 31.5t127 83.5l108 778h201l-105 -735q-8 -58 -8 -80q0 -32 17.5 -49t56.5 -21l74 -6l2 -53l-279 -104h-45l-35 161q-67 -70 -160.5 -115.5t-187.5 -45.5q-154 0 -223 94l24 -400z" />
    <glyph glyph-name="paragraph" unicode="&#xb6;" horiz-adv-x="1265" 
d="M481 -444l-32 41q48 51 80 87.5t63.5 83.5t51 84.5t41 100t35.5 120t31.5 154t32 191.5t35.5 244l88 630h-186l-129 -921q-192 0 -317 128.5t-125 321.5q0 112 43.5 217.5t119 186.5t185.5 129.5t235 48.5h543l-6 -53l-88 -33q-53 -20 -73 -43.5t-28 -73.5l-92 -651
q-23 -170 -43 -279.5t-49.5 -209.5t-61 -161.5t-85 -124.5t-114 -110t-155.5 -108z" />
    <glyph glyph-name="periodcentered" unicode="&#xb7;" horiz-adv-x="542" 
d="M274 555q-54 0 -88 35.5t-34 91.5q0 69 46.5 115.5t116.5 46.5q55 0 91 -35.5t36 -89.5q0 -69 -48.5 -116.5t-119.5 -47.5z" />
    <glyph glyph-name="cedilla" unicode="&#xb8;" 
d="M289 -535l-19 31q96 66 138.5 114.5t42.5 102.5q0 49 -45 76t-127 29l227 213h67l-112 -152q74 0 118 -32.5t44 -88.5q0 -86 -91.5 -166t-242.5 -127z" />
    <glyph glyph-name="onesuperior" unicode="&#xb9;" horiz-adv-x="567" 
d="M500 616h-383l6 37l72 27q37 12 49.5 25.5t17.5 42.5l60 426q8 54 8 63q0 43 -62 53l-55 10l6 35l238 88l28 -18l-88 -619q-6 -46 -6 -55q0 -19 10 -29.5t37 -21.5l66 -27z" />
    <glyph glyph-name="ordmasculine" unicode="&#xba;" horiz-adv-x="829" 
d="M430 719q-121 0 -190.5 80t-69.5 217q0 174 102.5 290.5t255.5 116.5q119 0 189.5 -80.5t70.5 -216.5q0 -173 -103 -290t-255 -117zM438 786q86 7 144.5 106.5t58.5 237.5q0 90 -33.5 152.5t-87.5 71.5q-87 -7 -145 -105t-58 -237q0 -92 32.5 -154t88.5 -72zM737 504
h-628l14 104h629z" />
    <glyph glyph-name="guillemotright" unicode="&#xbb;" horiz-adv-x="1003" 
d="M920 494l-412 -402l-47 29l248 391l-138 393l54 29l301 -399zM522 494l-413 -402l-48 29l250 391l-139 393l55 29l299 -399z" />
    <glyph glyph-name="onequarter" unicode="&#xbc;" horiz-adv-x="1533" 
d="M512 616h-381l4 37l72 27q37 12 49.5 25.5t17.5 42.5l64 440q4 29 4 49q0 41 -61 53l-56 10l6 35l240 88l27 -18l-88 -619q-7 -54 -7 -55q0 -18 10.5 -29t37.5 -22l67 -27zM371 -2h-138l1000 1388h137zM1282 -10h-129l27 190h-367l-2 41l455 567h129l-76 -532h108
l-12 -76h-106zM1247 670l-325 -414h268z" />
    <glyph glyph-name="onehalf" unicode="&#xbd;" horiz-adv-x="1654" 
d="M512 616h-381l4 37l72 27q37 12 50.5 25.5t16.5 42.5l62 440q1 7 2.5 18.5t2.5 19.5t1 11q0 44 -61 53l-56 10l6 35l240 88l27 -18l-88 -619q-7 -54 -7 -55q0 -18 10.5 -29t37.5 -22l67 -27zM371 -2h-138l1000 1388h137zM1462 2h-497l-4 47q223 219 325 346
q103 128 103 215q0 51 -32 81t-89 30q-78 0 -185 -72l-24 37q60 58 130 90.5t136 32.5q98 0 153.5 -47t55.5 -129q0 -70 -38.5 -137.5t-125.5 -151.5q-71 -69 -260 -231h244q35 0 56 9.5t44 37.5l35 45h33z" />
    <glyph glyph-name="threequarters" unicode="&#xbe;" horiz-adv-x="1662" 
d="M371 604q-146 0 -236 84l33 43q81 -47 186 -47q84 0 139.5 50t55.5 126q0 69 -56.5 106.5t-158.5 37.5l2 51q114 9 180 59t66 125q0 44 -31.5 70t-85.5 26q-97 0 -197 -71l-26 39q56 56 128 88t140 32q100 0 158.5 -46t58.5 -124q0 -72 -46.5 -128.5t-133.5 -88.5
q68 -24 106.5 -69.5t38.5 -106.5q0 -110 -92 -183t-229 -73zM518 -2h-137l999 1388h138zM1430 -10h-130l27 190h-366l-5 41l457 567h129l-76 -532h107l-10 -76h-107zM1395 670l-326 -414h268z" />
    <glyph glyph-name="questiondown" unicode="&#xbf;" horiz-adv-x="940" 
d="M561 760q-55 0 -90 34t-35 89q0 71 48 118.5t118 47.5q56 0 90.5 -35.5t34.5 -89.5q0 -69 -49.5 -116.5t-116.5 -47.5zM371 -393q-163 0 -258 67.5t-95 184.5q0 90 53.5 171t182.5 177q140 105 194 161t54 101q0 69 -15 135h74q28 -37 51 -101.5t23 -101.5
q0 -61 -44.5 -127t-156.5 -153q-116 -90 -155 -147t-39 -117q0 -65 42.5 -103.5t114.5 -38.5q63 0 116 32t114 108l53 65h51l-12 -227q-74 -39 -169 -62.5t-179 -23.5z" />
    <glyph glyph-name="Agrave" unicode="&#xc0;" horiz-adv-x="1429" 
d="M913 1520h-63l-295 292l8 52h219zM367 0h-451l8 55l86 31q41 15 65.5 39t53.5 78l623 1179l153 41l307 -1228q14 -53 28 -71t58 -40l68 -29l-8 -55h-529l9 55l71 25q55 21 71.5 35.5t16.5 36.5q0 21 -6 51l-53 213h-578l-106 -207q-27 -56 -27 -70q0 -19 16 -31.5
t58 -27.5l74 -25zM752 1174l-336 -652h495z" />
    <glyph glyph-name="Aacute" unicode="&#xc1;" horiz-adv-x="1429" 
d="M821 1520h-65l221 344h221l-6 -52zM367 0h-451l8 55l86 31q41 15 65.5 39t53.5 78l623 1179l153 41l307 -1228q14 -53 28 -71t58 -40l68 -29l-8 -55h-529l9 55l71 25q55 21 71.5 35.5t16.5 36.5q0 21 -6 51l-53 213h-578l-106 -207q-27 -56 -27 -70q0 -19 16 -31.5
t58 -27.5l74 -25zM752 1174l-336 -652h495z" />
    <glyph glyph-name="Acircumflex" unicode="&#xc2;" horiz-adv-x="1429" 
d="M621 1520h-60l307 344h58l209 -344h-60l-207 147zM367 0h-451l8 55l86 31q41 15 65.5 39t53.5 78l623 1179l153 41l307 -1228q14 -53 28 -71t58 -40l68 -29l-8 -55h-529l9 55l71 25q55 21 71.5 35.5t16.5 36.5q0 21 -6 51l-53 213h-578l-106 -207q-27 -56 -27 -70
q0 -19 16 -31.5t58 -27.5l74 -25zM752 1174l-336 -652h495z" />
    <glyph glyph-name="Atilde" unicode="&#xc3;" horiz-adv-x="1429" 
d="M985 1552q-32 0 -65.5 16.5t-83.5 53.5q-52 37 -76 48t-45 11q-73 0 -107 -118h-57q17 115 72.5 188.5t126.5 73.5q58 0 153 -68q51 -37 74.5 -49t42.5 -12q74 0 108 119h56q-15 -113 -71 -188t-128 -75zM367 0h-451l8 55l86 31q41 15 65.5 39t53.5 78l623 1179l153 41
l307 -1228q14 -53 28 -71t58 -40l68 -29l-8 -55h-529l9 55l71 25q55 21 71.5 35.5t16.5 36.5q0 21 -6 51l-53 213h-578l-106 -207q-27 -56 -27 -70q0 -19 16 -31.5t58 -27.5l74 -25zM752 1174l-336 -652h495z" />
    <glyph glyph-name="Adieresis" unicode="&#xc4;" horiz-adv-x="1429" 
d="M1053 1569q-51 0 -82 30.5t-31 81.5q0 62 43 103t107 41q50 0 81 -31t31 -82q0 -61 -43 -102t-106 -41zM651 1569q-51 0 -81.5 30.5t-30.5 81.5q0 62 42 103t105 41q51 0 83 -31t32 -82q0 -61 -43.5 -102t-106.5 -41zM367 0h-451l8 55l86 31q41 15 65.5 39t53.5 78
l623 1179l153 41l307 -1228q14 -53 28 -71t58 -40l68 -29l-8 -55h-529l9 55l71 25q55 21 71.5 35.5t16.5 36.5q0 21 -6 51l-53 213h-578l-106 -207q-27 -56 -27 -70q0 -19 16 -31.5t58 -27.5l74 -25zM752 1174l-336 -652h495z" />
    <glyph glyph-name="Aring" unicode="&#xc5;" horiz-adv-x="1429" 
d="M846 1497q-96 0 -152.5 45.5t-56.5 120.5q0 88 71.5 151.5t186.5 63.5q96 0 152.5 -45.5t56.5 -120.5q0 -88 -71.5 -151.5t-186.5 -63.5zM854 1567q55 0 95 40.5t40 96.5q0 45 -28.5 74.5t-73.5 29.5q-55 0 -95 -40.5t-40 -96.5q0 -44 29 -74t73 -30zM367 0h-451l8 55
l86 31q41 15 65.5 39t53.5 78l623 1179l153 41l307 -1228q14 -53 28 -71t58 -40l68 -29l-8 -55h-529l9 55l71 25q55 21 71.5 35.5t16.5 36.5q0 21 -6 51l-53 213h-578l-106 -207q-27 -56 -27 -70q0 -19 16 -31.5t58 -27.5l74 -25zM752 1174l-336 -652h495z" />
    <glyph glyph-name="AE" unicode="&#xc6;" horiz-adv-x="1968" 
d="M365 0h-455l8 55l86 33q45 19 70 40t65 75l862 1200h914l-21 -324h-55l-43 107q-31 69 -63.5 90.5t-104.5 21.5h-426l-76 -538h326q48 0 73.5 16.5t49.5 65.5l43 86h55l-63 -459h-56l-14 94q-10 54 -32.5 73t-69.5 19h-326l-59 -403q-9 -74 -9 -88q0 -32 19 -46t63 -14
h347q81 0 122 22.5t95 96.5l84 121h55l-96 -344h-1090l6 55l86 33q51 21 70.5 45t25.5 68l39 272h-415l-191 -264q-35 -51 -35 -68t15.5 -29.5t58.5 -29.5l70 -27zM973 1200l-443 -620h355z" />
    <glyph glyph-name="Ccedilla" unicode="&#xc7;" horiz-adv-x="1437" 
d="M512 -535l-18 31q96 66 138 114.5t42 102.5q0 49 -45 76t-127 29l174 164q-260 17 -410.5 174.5t-150.5 412.5q0 182 61.5 340.5t169 271.5t258 177.5t322.5 64.5q242 0 456 -100l-16 -336h-55q-4 28 -33.5 86t-50.5 86q-115 154 -316 154q-154 0 -284.5 -98.5
t-206.5 -267.5t-76 -369q0 -218 113 -350t301 -132q155 0 281 84t214 244h58l-90 -309q-76 -55 -204.5 -92.5t-256.5 -42.5l-76 -101q74 0 118 -32.5t44 -88.5q0 -86 -91.5 -166t-242.5 -127z" />
    <glyph glyph-name="Egrave" unicode="&#xc8;" horiz-adv-x="1355" 
d="M899 1520h-63l-295 292l8 52h219zM1122 0h-1091l8 55l84 33q52 21 71 44.5t27 68.5l135 966q9 53 9 64q0 29 -15 47t-55 37l-76 33l8 55h1078l-21 -324h-57l-43 107q-31 69 -63.5 90.5t-104.5 21.5h-424l-78 -538h328q47 0 72 16.5t51 65.5l43 86h55l-66 -459h-55l-14 94
q-9 54 -32 73t-71 19h-323l-60 -415q-8 -66 -8 -76q0 -32 18.5 -46t61.5 -14h348q80 0 121.5 23t95.5 96l82 121h56z" />
    <glyph glyph-name="Eacute" unicode="&#xc9;" horiz-adv-x="1355" 
d="M807 1520h-66l222 344h221l-6 -52zM1122 0h-1091l8 55l84 33q52 21 71 44.5t27 68.5l135 966q9 53 9 64q0 29 -15 47t-55 37l-76 33l8 55h1078l-21 -324h-57l-43 107q-31 69 -63.5 90.5t-104.5 21.5h-424l-78 -538h328q47 0 72 16.5t51 65.5l43 86h55l-66 -459h-55
l-14 94q-9 54 -32 73t-71 19h-323l-60 -415q-8 -66 -8 -76q0 -32 18.5 -46t61.5 -14h348q80 0 121.5 23t95.5 96l82 121h56z" />
    <glyph glyph-name="Ecircumflex" unicode="&#xca;" horiz-adv-x="1355" 
d="M606 1520h-59l307 344h57l209 -344h-59l-207 147zM1122 0h-1091l8 55l84 33q52 21 71 44.5t27 68.5l135 966q9 53 9 64q0 29 -15 47t-55 37l-76 33l8 55h1078l-21 -324h-57l-43 107q-31 69 -63.5 90.5t-104.5 21.5h-424l-78 -538h328q47 0 72 16.5t51 65.5l43 86h55
l-66 -459h-55l-14 94q-9 54 -32 73t-71 19h-323l-60 -415q-8 -66 -8 -76q0 -32 18.5 -46t61.5 -14h348q80 0 121.5 23t95.5 96l82 121h56z" />
    <glyph glyph-name="Edieresis" unicode="&#xcb;" horiz-adv-x="1355" 
d="M1038 1569q-51 0 -81.5 30.5t-30.5 81.5q0 62 42.5 103t106.5 41q50 0 81.5 -31t31.5 -82q0 -61 -43.5 -102t-106.5 -41zM637 1569q-51 0 -82 30.5t-31 81.5q0 61 42.5 102.5t105.5 41.5q51 0 82.5 -31t31.5 -82q0 -61 -43 -102t-106 -41zM1122 0h-1091l8 55l84 33
q52 21 71 44.5t27 68.5l135 966q9 53 9 64q0 29 -15 47t-55 37l-76 33l8 55h1078l-21 -324h-57l-43 107q-31 69 -63.5 90.5t-104.5 21.5h-424l-78 -538h328q47 0 72 16.5t51 65.5l43 86h55l-66 -459h-55l-14 94q-9 54 -32 73t-71 19h-323l-60 -415q-8 -66 -8 -76
q0 -32 18.5 -46t61.5 -14h348q80 0 121.5 23t95.5 96l82 121h56z" />
    <glyph glyph-name="Igrave" unicode="&#xcc;" horiz-adv-x="747" 
d="M588 1520h-64l-295 292l9 52h219zM571 0h-540l8 55l86 29q52 18 71 42.5t25 74.5l133 954q1 12 4 30.5t5 32t2 23.5q0 28 -15 44.5t-55 33.5l-76 29l8 55h541l-8 -55l-86 -29q-51 -20 -70.5 -44t-25.5 -73l-134 -954q-10 -82 -10 -86q0 -28 15 -44.5t55 -33.5l76 -29z
" />
    <glyph glyph-name="Iacute" unicode="&#xcd;" horiz-adv-x="747" 
d="M496 1520h-66l221 344h221l-6 -52zM571 0h-540l8 55l86 29q52 18 71 42.5t25 74.5l133 954q1 12 4 30.5t5 32t2 23.5q0 28 -15 44.5t-55 33.5l-76 29l8 55h541l-8 -55l-86 -29q-51 -20 -70.5 -44t-25.5 -73l-134 -954q-10 -82 -10 -86q0 -28 15 -44.5t55 -33.5l76 -29z
" />
    <glyph glyph-name="Icircumflex" unicode="&#xce;" horiz-adv-x="747" 
d="M295 1520h-59l307 344h57l209 -344h-59l-207 147zM571 0h-540l8 55l86 29q52 18 71 42.5t25 74.5l133 954q1 12 4 30.5t5 32t2 23.5q0 28 -15 44.5t-55 33.5l-76 29l8 55h541l-8 -55l-86 -29q-51 -20 -70.5 -44t-25.5 -73l-134 -954q-10 -82 -10 -86q0 -28 15 -44.5
t55 -33.5l76 -29z" />
    <glyph glyph-name="Idieresis" unicode="&#xcf;" horiz-adv-x="747" 
d="M727 1569q-51 0 -82 30.5t-31 81.5q0 62 43 103t107 41q50 0 81.5 -31t31.5 -82q0 -61 -43.5 -102t-106.5 -41zM326 1569q-51 0 -82 30.5t-31 81.5q0 62 42 103t105 41q51 0 83 -31t32 -82q0 -61 -43 -102t-106 -41zM571 0h-540l8 55l86 29q52 18 71 42.5t25 74.5
l133 954q1 12 4 30.5t5 32t2 23.5q0 28 -15 44.5t-55 33.5l-76 29l8 55h541l-8 -55l-86 -29q-51 -20 -70.5 -44t-25.5 -73l-134 -954q-10 -82 -10 -86q0 -28 15 -44.5t55 -33.5l76 -29z" />
    <glyph glyph-name="Eth" unicode="&#xd0;" horiz-adv-x="1521" 
d="M651 0h-618l6 55l86 29q52 18 71 42.5t25 74.5l64 450h-152l17 105h151l55 399q9 74 9 86q0 28 -15 44.5t-55 33.5l-76 29l8 55h602q292 0 461.5 -154.5t169.5 -433.5q0 -238 -102.5 -423.5t-287 -288.5t-419.5 -103zM500 651l-76 -547h201q173 0 312.5 93t217.5 256
t78 364q0 222 -121 351.5t-326 129.5h-194l-74 -542h328l-17 -105h-329z" />
    <glyph glyph-name="Ntilde" unicode="&#xd1;" horiz-adv-x="1636" 
d="M1092 1552q-56 0 -150 70q-52 37 -76 48t-45 11q-72 0 -106 -118h-58q17 115 72.5 188.5t126.5 73.5q59 0 154 -68q51 -37 74 -49t42 -12q75 0 109 119h55q-15 -113 -71 -188t-127 -75zM1303 33l-115 -62l-717 1159l-125 -880q-6 -55 -6 -74q0 -32 16 -51t62 -39l80 -31
l-6 -55h-461l8 55l86 33q51 20 70.5 43.5t25.5 69.5l135 962q6 53 6 66q0 35 -15 54t-52 34l-74 31l8 55h324l670 -1096l118 856q7 54 7 68q0 31 -16 48t-62 36l-82 33l8 55h459l-6 -55l-86 -33q-51 -22 -71 -45.5t-26 -69.5z" />
    <glyph glyph-name="Ograve" unicode="&#xd2;" horiz-adv-x="1538" 
d="M987 1520h-63l-295 292l8 52h219zM694 -20q-276 0 -428.5 155.5t-152.5 425.5q0 175 59.5 333.5t162 275t249.5 185t313 68.5q277 0 430.5 -156t153.5 -427q0 -175 -59.5 -333t-162.5 -274t-250.5 -184.5t-314.5 -68.5zM711 90q148 0 273.5 103.5t197 276t71.5 370.5
q0 214 -100 343.5t-270 129.5q-148 0 -273.5 -103.5t-197.5 -276t-72 -370.5q0 -214 100.5 -343.5t270.5 -129.5z" />
    <glyph glyph-name="Oacute" unicode="&#xd3;" horiz-adv-x="1538" 
d="M895 1520h-66l222 344h221l-6 -52zM694 -20q-276 0 -428.5 155.5t-152.5 425.5q0 175 59.5 333.5t162 275t249.5 185t313 68.5q277 0 430.5 -156t153.5 -427q0 -175 -59.5 -333t-162.5 -274t-250.5 -184.5t-314.5 -68.5zM711 90q148 0 273.5 103.5t197 276t71.5 370.5
q0 214 -100 343.5t-270 129.5q-148 0 -273.5 -103.5t-197.5 -276t-72 -370.5q0 -214 100.5 -343.5t270.5 -129.5z" />
    <glyph glyph-name="Ocircumflex" unicode="&#xd4;" horiz-adv-x="1538" 
d="M694 1520h-59l307 344h57l209 -344h-59l-207 147zM694 -20q-276 0 -428.5 155.5t-152.5 425.5q0 175 59.5 333.5t162 275t249.5 185t313 68.5q277 0 430.5 -156t153.5 -427q0 -175 -59.5 -333t-162.5 -274t-250.5 -184.5t-314.5 -68.5zM711 90q148 0 273.5 103.5t197 276
t71.5 370.5q0 214 -100 343.5t-270 129.5q-148 0 -273.5 -103.5t-197.5 -276t-72 -370.5q0 -214 100.5 -343.5t270.5 -129.5z" />
    <glyph glyph-name="Otilde" unicode="&#xd5;" horiz-adv-x="1538" 
d="M1059 1552q-56 0 -150 70q-52 37 -76 48t-45 11q-72 0 -106 -118h-57q17 115 72 188.5t126 73.5q59 0 154 -68q51 -37 74.5 -49t42.5 -12q74 0 108 119h55q-15 -113 -71 -188t-127 -75zM694 -20q-276 0 -428.5 155.5t-152.5 425.5q0 175 59.5 333.5t162 275t249.5 185
t313 68.5q277 0 430.5 -156t153.5 -427q0 -175 -59.5 -333t-162.5 -274t-250.5 -184.5t-314.5 -68.5zM711 90q148 0 273.5 103.5t197 276t71.5 370.5q0 214 -100 343.5t-270 129.5q-148 0 -273.5 -103.5t-197.5 -276t-72 -370.5q0 -214 100.5 -343.5t270.5 -129.5z" />
    <glyph glyph-name="Odieresis" unicode="&#xd6;" horiz-adv-x="1538" 
d="M1126 1569q-51 0 -81.5 30.5t-30.5 81.5q0 62 42.5 103t106.5 41q50 0 81.5 -31t31.5 -82q0 -61 -43.5 -102t-106.5 -41zM725 1569q-51 0 -82 30.5t-31 81.5q0 61 42.5 102.5t105.5 41.5q51 0 82.5 -31t31.5 -82q0 -61 -43 -102t-106 -41zM694 -20q-276 0 -428.5 155.5
t-152.5 425.5q0 175 59.5 333.5t162 275t249.5 185t313 68.5q277 0 430.5 -156t153.5 -427q0 -175 -59.5 -333t-162.5 -274t-250.5 -184.5t-314.5 -68.5zM711 90q148 0 273.5 103.5t197 276t71.5 370.5q0 214 -100 343.5t-270 129.5q-148 0 -273.5 -103.5t-197.5 -276
t-72 -370.5q0 -214 100.5 -343.5t270.5 -129.5z" />
    <glyph glyph-name="multiply" unicode="&#xd7;" horiz-adv-x="966" 
d="M498 604l-312 -274l-80 88l314 276l-234 273l93 86l237 -279l315 279l78 -88l-315 -281l231 -270l-92 -84z" />
    <glyph glyph-name="Oslash" unicode="&#xd8;" horiz-adv-x="1538" 
d="M244 -20h-131l141 165q-141 153 -141 414q0 175 59.5 334t162 275.5t249.5 185.5t313 69q220 0 365 -102l88 104h131l-144 -168q144 -160 144 -417q0 -175 -59.5 -333t-162.5 -274t-250.5 -184.5t-314.5 -68.5q-223 0 -364 102zM397 309l748 877q-94 127 -262 127
q-148 0 -273.5 -103.5t-197.5 -276.5t-72 -372q0 -147 57 -252zM711 90q148 0 273.5 103t197 275t71.5 370q0 150 -59 256l-748 -879q95 -125 265 -125z" />
    <glyph glyph-name="Ugrave" unicode="&#xd9;" horiz-adv-x="1607" 
d="M1061 1520h-64l-295 292l9 52h219zM745 -20q-249 0 -371 94.5t-122 294.5q0 109 22 252l74 534q8 70 8 74q0 31 -14.5 49t-54.5 37l-76 33l8 55h541l-8 -55l-86 -33q-50 -21 -69.5 -45.5t-27.5 -69.5l-88 -631q-12 -83 -12 -147q0 -166 79 -245t245 -79q197 0 303 119
t143 377l78 561q6 53 6 74q0 31 -14.5 50t-53.5 36l-75 33l8 55h444l-8 -55l-84 -33q-51 -22 -70.5 -45.5t-25.5 -69.5l-84 -592q-43 -313 -166 -450q-72 -82 -192 -130t-257 -48z" />
    <glyph glyph-name="Uacute" unicode="&#xda;" horiz-adv-x="1607" 
d="M969 1520h-66l221 344h222l-7 -52zM745 -20q-249 0 -371 94.5t-122 294.5q0 109 22 252l74 534q8 70 8 74q0 31 -14.5 49t-54.5 37l-76 33l8 55h541l-8 -55l-86 -33q-50 -21 -69.5 -45.5t-27.5 -69.5l-88 -631q-12 -83 -12 -147q0 -166 79 -245t245 -79q197 0 303 119
t143 377l78 561q6 53 6 74q0 31 -14.5 50t-53.5 36l-75 33l8 55h444l-8 -55l-84 -33q-51 -22 -70.5 -45.5t-25.5 -69.5l-84 -592q-43 -313 -166 -450q-72 -82 -192 -130t-257 -48z" />
    <glyph glyph-name="Ucircumflex" unicode="&#xdb;" horiz-adv-x="1607" 
d="M768 1520h-59l307 344h57l209 -344h-59l-207 147zM745 -20q-249 0 -371 94.5t-122 294.5q0 109 22 252l74 534q8 70 8 74q0 31 -14.5 49t-54.5 37l-76 33l8 55h541l-8 -55l-86 -33q-50 -21 -69.5 -45.5t-27.5 -69.5l-88 -631q-12 -83 -12 -147q0 -166 79 -245t245 -79
q197 0 303 119t143 377l78 561q6 53 6 74q0 31 -14.5 50t-53.5 36l-75 33l8 55h444l-8 -55l-84 -33q-51 -22 -70.5 -45.5t-25.5 -69.5l-84 -592q-43 -313 -166 -450q-72 -82 -192 -130t-257 -48z" />
    <glyph glyph-name="Udieresis" unicode="&#xdc;" horiz-adv-x="1607" 
d="M1200 1569q-51 0 -82 30.5t-31 81.5q0 62 43 103t107 41q50 0 81.5 -31t31.5 -82q0 -61 -43.5 -102t-106.5 -41zM799 1569q-51 0 -82 30.5t-31 81.5q0 61 42.5 102.5t105.5 41.5q51 0 82.5 -31t31.5 -82q0 -61 -43 -102t-106 -41zM745 -20q-249 0 -371 94.5t-122 294.5
q0 109 22 252l74 534q8 70 8 74q0 31 -14.5 49t-54.5 37l-76 33l8 55h541l-8 -55l-86 -33q-50 -21 -69.5 -45.5t-27.5 -69.5l-88 -631q-12 -83 -12 -147q0 -166 79 -245t245 -79q197 0 303 119t143 377l78 561q6 53 6 74q0 31 -14.5 50t-53.5 36l-75 33l8 55h444l-8 -55
l-84 -33q-51 -22 -70.5 -45.5t-25.5 -69.5l-84 -592q-43 -313 -166 -450q-72 -82 -192 -130t-257 -48z" />
    <glyph glyph-name="Yacute" unicode="&#xdd;" horiz-adv-x="1267" 
d="M776 1520h-65l221 344h221l-6 -52zM858 0h-579l6 55l98 31q55 18 76 44t28 71l48 325l-295 682q-26 60 -39 77.5t-47 31.5l-68 31l8 55h529l-9 -55l-71 -27q-46 -19 -64 -31t-18 -28q0 -30 18 -70l230 -530l346 524q39 56 39 76t-14 32.5t-56 26.5l-68 27l7 55h446
l-8 -55l-86 -33q-35 -13 -54 -31t-51 -63l-460 -678l-41 -297q-9 -59 -9 -76q0 -57 78 -84l88 -31z" />
    <glyph glyph-name="Thorn" unicode="&#xde;" horiz-adv-x="1335" 
d="M571 0h-540l8 55l86 29q51 20 69.5 45t26.5 78l133 948q11 64 11 86q0 28 -15.5 45.5t-54.5 32.5l-76 29l8 55h541l-8 -55l-86 -29q-51 -20 -69.5 -43t-26.5 -74l-11 -72h224q223 0 347 -92t124 -256q0 -229 -160 -360t-438 -131h-215q-15 -97 -15 -129q0 -28 16 -46.5
t54 -31.5l76 -29zM553 1026l-90 -631h190q170 0 275.5 104.5t105.5 272.5q0 119 -74 186.5t-206 67.5h-201z" />
    <glyph glyph-name="germandbls" unicode="&#xdf;" horiz-adv-x="1363" 
d="M-78 -518l-31 37q141 141 204 286.5t102 427.5l94 678h-191l13 86l194 25l23 164q22 167 140 258.5t308 91.5q172 0 280.5 -67t108.5 -173q0 -68 -40.5 -128t-139.5 -136q-108 -84 -144 -124.5t-36 -80.5q0 -45 42.5 -91.5t149.5 -121.5q129 -90 186.5 -166t57.5 -159
q0 -138 -109.5 -223.5t-287.5 -85.5q-94 0 -188 27t-160 73l59 178h45l146 -164q46 -18 102 -18q85 0 142 46.5t57 115.5q0 53 -46 106t-165 141q-111 82 -155 145.5t-44 135.5q0 57 33 110.5t125 137.5q93 87 129.5 146.5t36.5 123.5q0 66 -54 108t-141 42
q-93 0 -159 -65.5t-81 -174.5l-135 -991q-28 -200 -81.5 -330t-144.5 -220.5t-245 -170.5z" />
    <glyph glyph-name="agrave" unicode="&#xe0;" horiz-adv-x="1251" 
d="M774 1188h-63l-295 293l8 51h219zM358 -20q-126 0 -201 98t-75 266q0 192 88.5 354.5t239.5 256.5t327 94q91 0 221 -39l86 45l37 -29l-118 -864l8 -8l207 110l20 -51q-125 -124 -210 -178.5t-146 -54.5q-39 0 -60.5 22.5t-21.5 56.5q0 43 57 379l-18 11
q-94 -240 -203 -354.5t-238 -114.5zM438 123q71 0 157 109t160 290.5t111 380.5q-79 43 -151 58q-111 -18 -205.5 -103.5t-151.5 -219.5t-57 -286q0 -107 36.5 -168t100.5 -61z" />
    <glyph glyph-name="aacute" unicode="&#xe1;" horiz-adv-x="1251" 
d="M682 1188h-66l222 344h221l-6 -51zM358 -20q-126 0 -201 98t-75 266q0 192 88.5 354.5t239.5 256.5t327 94q91 0 221 -39l86 45l37 -29l-118 -864l8 -8l207 110l20 -51q-125 -124 -210 -178.5t-146 -54.5q-39 0 -60.5 22.5t-21.5 56.5q0 43 57 379l-18 11
q-94 -240 -203 -354.5t-238 -114.5zM438 123q71 0 157 109t160 290.5t111 380.5q-79 43 -151 58q-111 -18 -205.5 -103.5t-151.5 -219.5t-57 -286q0 -107 36.5 -168t100.5 -61z" />
    <glyph glyph-name="acircumflex" unicode="&#xe2;" horiz-adv-x="1251" 
d="M481 1188h-59l307 344h57l209 -344h-59l-207 147zM358 -20q-126 0 -201 98t-75 266q0 192 88.5 354.5t239.5 256.5t327 94q91 0 221 -39l86 45l37 -29l-118 -864l8 -8l207 110l20 -51q-125 -124 -210 -178.5t-146 -54.5q-39 0 -60.5 22.5t-21.5 56.5q0 43 57 379l-18 11
q-94 -240 -203 -354.5t-238 -114.5zM438 123q71 0 157 109t160 290.5t111 380.5q-79 43 -151 58q-111 -18 -205.5 -103.5t-151.5 -219.5t-57 -286q0 -107 36.5 -168t100.5 -61z" />
    <glyph glyph-name="atilde" unicode="&#xe3;" horiz-adv-x="1251" 
d="M846 1221q-58 0 -150 69q-52 37 -76 48.5t-45 11.5q-72 0 -106 -119h-57q17 115 72 188.5t126 73.5q59 0 154 -68q51 -37 74.5 -49t42.5 -12q74 0 108 119h55q-15 -113 -70.5 -187.5t-127.5 -74.5zM358 -20q-126 0 -201 98t-75 266q0 192 88.5 354.5t239.5 256.5t327 94
q91 0 221 -39l86 45l37 -29l-118 -864l8 -8l207 110l20 -51q-125 -124 -210 -178.5t-146 -54.5q-39 0 -60.5 22.5t-21.5 56.5q0 43 57 379l-18 11q-94 -240 -203 -354.5t-238 -114.5zM438 123q71 0 157 109t160 290.5t111 380.5q-79 43 -151 58q-111 -18 -205.5 -103.5
t-151.5 -219.5t-57 -286q0 -107 36.5 -168t100.5 -61z" />
    <glyph glyph-name="adieresis" unicode="&#xe4;" horiz-adv-x="1251" 
d="M913 1237q-51 0 -81.5 31t-30.5 82q0 62 42.5 102.5t106.5 40.5q50 0 81.5 -31t31.5 -82q0 -61 -43.5 -102t-106.5 -41zM512 1237q-51 0 -82 31t-31 82q0 61 42.5 102t105.5 41q51 0 83 -31t32 -82q0 -61 -43.5 -102t-106.5 -41zM358 -20q-126 0 -201 98t-75 266
q0 192 88.5 354.5t239.5 256.5t327 94q91 0 221 -39l86 45l37 -29l-118 -864l8 -8l207 110l20 -51q-125 -124 -210 -178.5t-146 -54.5q-39 0 -60.5 22.5t-21.5 56.5q0 43 57 379l-18 11q-94 -240 -203 -354.5t-238 -114.5zM438 123q71 0 157 109t160 290.5t111 380.5
q-79 43 -151 58q-111 -18 -205.5 -103.5t-151.5 -219.5t-57 -286q0 -107 36.5 -168t100.5 -61z" />
    <glyph glyph-name="aring" unicode="&#xe5;" horiz-adv-x="1251" 
d="M707 1165q-96 0 -152.5 45.5t-56.5 120.5q0 88 71.5 151.5t186.5 63.5q96 0 152.5 -45.5t56.5 -120.5q0 -88 -71.5 -151.5t-186.5 -63.5zM715 1235q55 0 95 40.5t40 96.5q0 45 -28.5 75t-73.5 30q-55 0 -95.5 -41t-40.5 -97q0 -44 29.5 -74t73.5 -30zM358 -20
q-126 0 -201 98t-75 266q0 192 88.5 354.5t239.5 256.5t327 94q91 0 221 -39l86 45l37 -29l-118 -864l8 -8l207 110l20 -51q-125 -124 -210 -178.5t-146 -54.5q-39 0 -60.5 22.5t-21.5 56.5q0 43 57 379l-18 11q-94 -240 -203 -354.5t-238 -114.5zM438 123q71 0 157 109
t160 290.5t111 380.5q-79 43 -151 58q-111 -18 -205.5 -103.5t-151.5 -219.5t-57 -286q0 -107 36.5 -168t100.5 -61z" />
    <glyph glyph-name="ae" unicode="&#xe6;" horiz-adv-x="1716" 
d="M358 -23q-122 0 -199 103t-77 266q0 148 52 279.5t140.5 224t208 146t250.5 53.5q63 0 146.5 -26.5t150.5 -66.5q132 93 281 93q141 0 227 -68.5t86 -181.5q0 -157 -150 -261t-378 -104q-65 0 -109 8q4 -156 67 -240.5t173 -84.5q159 0 332 159l32 -51
q-86 -118 -198 -181.5t-232 -63.5q-161 0 -262.5 100.5t-120.5 273.5q-168 -377 -420 -377zM442 121q71 0 157 110t159 291.5t106 376.5q-77 44 -153 62q-110 -18 -203 -100.5t-149 -213t-56 -280.5q0 -114 37.5 -180t101.5 -66zM1430 807q0 57 -29 95t-82 52
q-126 -10 -220.5 -134.5t-109.5 -299.5q14 -2 64 -2q162 0 269.5 83t107.5 206z" />
    <glyph glyph-name="ccedilla" unicode="&#xe7;" horiz-adv-x="980" 
d="M264 -535l-18 31q96 66 138 114.5t42 102.5q0 49 -45 76t-127 29l176 166q-155 20 -245.5 136t-90.5 298q0 177 72 321.5t199 227t282 82.5q168 0 316 -109l-72 -180h-49l-129 176q-27 12 -62 12q-88 0 -165.5 -69t-123 -185t-45.5 -248q0 -154 65 -242.5t177 -88.5
q67 0 145 39t150 108l33 -51q-72 -101 -172 -163t-203 -68l-76 -101q74 0 118 -32.5t44 -88.5q0 -86 -91.5 -166t-242.5 -127z" />
    <glyph glyph-name="egrave" unicode="&#xe8;" horiz-adv-x="1046" 
d="M719 1188h-64l-295 293l9 51h219zM492 -20q-181 0 -289.5 121.5t-108.5 322.5q0 129 42.5 245t115.5 199t174.5 132t214.5 49q141 0 227 -69.5t86 -182.5q0 -158 -150 -262.5t-378 -104.5q-65 0 -109 8q4 -154 67 -237.5t173 -83.5q159 0 332 159l33 -51
q-86 -118 -198 -181.5t-232 -63.5zM760 803q0 58 -29 97.5t-82 53.5q-126 -11 -220.5 -136t-109.5 -302q18 -2 64 -2q162 0 269.5 83t107.5 206z" />
    <glyph glyph-name="eacute" unicode="&#xe9;" horiz-adv-x="1046" 
d="M627 1188h-66l221 344h222l-7 -51zM492 -20q-181 0 -289.5 121.5t-108.5 322.5q0 129 42.5 245t115.5 199t174.5 132t214.5 49q141 0 227 -69.5t86 -182.5q0 -158 -150 -262.5t-378 -104.5q-65 0 -109 8q4 -154 67 -237.5t173 -83.5q159 0 332 159l33 -51
q-86 -118 -198 -181.5t-232 -63.5zM760 803q0 58 -29 97.5t-82 53.5q-126 -11 -220.5 -136t-109.5 -302q18 -2 64 -2q162 0 269.5 83t107.5 206z" />
    <glyph glyph-name="ecircumflex" unicode="&#xea;" horiz-adv-x="1046" 
d="M426 1188h-59l307 344h57l209 -344h-59l-207 147zM492 -20q-181 0 -289.5 121.5t-108.5 322.5q0 129 42.5 245t115.5 199t174.5 132t214.5 49q141 0 227 -69.5t86 -182.5q0 -158 -150 -262.5t-378 -104.5q-65 0 -109 8q4 -154 67 -237.5t173 -83.5q159 0 332 159l33 -51
q-86 -118 -198 -181.5t-232 -63.5zM760 803q0 58 -29 97.5t-82 53.5q-126 -11 -220.5 -136t-109.5 -302q18 -2 64 -2q162 0 269.5 83t107.5 206z" />
    <glyph glyph-name="edieresis" unicode="&#xeb;" horiz-adv-x="1046" 
d="M858 1237q-51 0 -82 31t-31 82q0 61 42.5 102t107.5 41q50 0 81.5 -31t31.5 -82q0 -61 -43.5 -102t-106.5 -41zM457 1237q-51 0 -82 31t-31 82q0 61 42.5 102t105.5 41q51 0 82.5 -31t31.5 -82q0 -61 -43 -102t-106 -41zM492 -20q-181 0 -289.5 121.5t-108.5 322.5
q0 129 42.5 245t115.5 199t174.5 132t214.5 49q141 0 227 -69.5t86 -182.5q0 -158 -150 -262.5t-378 -104.5q-65 0 -109 8q4 -154 67 -237.5t173 -83.5q159 0 332 159l33 -51q-86 -118 -198 -181.5t-232 -63.5zM760 803q0 58 -29 97.5t-82 53.5q-126 -11 -220.5 -136
t-109.5 -302q18 -2 64 -2q162 0 269.5 83t107.5 206z" />
    <glyph glyph-name="igrave" unicode="&#xec;" horiz-adv-x="686" 
d="M485 1188h-63l-295 293l8 51h219zM252 -20q-37 0 -55.5 21.5t-18.5 55.5t15 129l108 680l-8 8l-207 -110l-20 49q130 124 218.5 180t153.5 56q37 0 56.5 -23t19.5 -57q0 -26 -16 -127l-109 -680l8 -8l207 110l21 -51q-244 -233 -373 -233z" />
    <glyph glyph-name="iacute" unicode="&#xed;" horiz-adv-x="686" 
d="M393 1188h-65l221 344h221l-6 -51zM252 -20q-37 0 -55.5 21.5t-18.5 55.5t15 129l108 680l-8 8l-207 -110l-20 49q130 124 218.5 180t153.5 56q37 0 56.5 -23t19.5 -57q0 -26 -16 -127l-109 -680l8 -8l207 110l21 -51q-244 -233 -373 -233z" />
    <glyph glyph-name="icircumflex" unicode="&#xee;" horiz-adv-x="686" 
d="M193 1188h-60l307 344h58l209 -344h-60l-207 147zM252 -20q-37 0 -55.5 21.5t-18.5 55.5t15 129l108 680l-8 8l-207 -110l-20 49q130 124 218.5 180t153.5 56q37 0 56.5 -23t19.5 -57q0 -26 -16 -127l-109 -680l8 -8l207 110l21 -51q-244 -233 -373 -233z" />
    <glyph glyph-name="idieresis" unicode="&#xef;" horiz-adv-x="686" 
d="M625 1237q-51 0 -82 31t-31 82q0 61 42.5 102t107.5 41q50 0 81 -31t31 -82q0 -61 -43 -102t-106 -41zM223 1237q-51 0 -81.5 31t-30.5 82q0 61 42 102t105 41q51 0 83 -31t32 -82q0 -61 -43.5 -102t-106.5 -41zM252 -20q-37 0 -55.5 21.5t-18.5 55.5t15 129l108 680
l-8 8l-207 -110l-20 49q130 124 218.5 180t153.5 56q37 0 56.5 -23t19.5 -57q0 -26 -16 -127l-109 -680l8 -8l207 110l21 -51q-244 -233 -373 -233z" />
    <glyph glyph-name="eth" unicode="&#xf0;" horiz-adv-x="1161" 
d="M504 -20q-189 0 -298.5 121.5t-109.5 330.5q0 129 43 243.5t117.5 196t178.5 128.5t222 47q79 0 162 -80q-26 101 -64 174.5t-98 142.5l-297 -121l13 103l211 86q-135 92 -312 92l25 82q55 10 98 10q200 0 346 -119l273 109l-15 -103l-182 -73q244 -262 244 -695
q0 -198 -73 -352.5t-199.5 -238.5t-284.5 -84zM514 70q92 8 167 80t118 191.5t43 260.5t-54 238t-143 114q-140 -12 -234 -163.5t-94 -366.5q0 -141 54.5 -239t142.5 -115z" />
    <glyph glyph-name="ntilde" unicode="&#xf1;" horiz-adv-x="1312" 
d="M926 1221q-58 0 -150 69q-52 37 -76 48.5t-45 11.5q-72 0 -106 -119h-57q17 115 72 188.5t126 73.5q59 0 154 -68q51 -37 74.5 -49t42.5 -12q74 0 108 119h55q-15 -113 -70.5 -187.5t-127.5 -74.5zM375 6l-205 -29l125 889l-10 8l-207 -110l-19 51q127 124 212.5 179
t148.5 55q38 0 58 -23t20 -57q0 -29 -58 -381l17 -10q99 246 208.5 358.5t254.5 112.5q97 0 152.5 -60t55.5 -164q0 -72 -20 -182l-82 -479l12 -10l201 108l21 -51q-130 -124 -217 -179t-154 -55q-38 0 -58 21t-20 57q0 26 12 105l84 471q15 92 15 135q0 52 -26 81.5
t-69 29.5q-133 0 -259 -240t-193 -631z" />
    <glyph glyph-name="ograve" unicode="&#xf2;" horiz-adv-x="1159" 
d="M729 1188h-63l-295 293l8 51h219zM504 -20q-189 0 -298.5 122t-109.5 332q0 129 43 243t117.5 195.5t178.5 129t222 47.5q188 0 298 -123t110 -332q0 -172 -73.5 -313t-202.5 -221t-285 -80zM514 70q139 12 233.5 164t94.5 364q0 143 -54 242t-143 114
q-140 -12 -234 -162.5t-94 -363.5q0 -143 54 -242t143 -116z" />
    <glyph glyph-name="oacute" unicode="&#xf3;" horiz-adv-x="1159" 
d="M637 1188h-66l222 344h221l-6 -51zM504 -20q-189 0 -298.5 122t-109.5 332q0 129 43 243t117.5 195.5t178.5 129t222 47.5q188 0 298 -123t110 -332q0 -172 -73.5 -313t-202.5 -221t-285 -80zM514 70q139 12 233.5 164t94.5 364q0 143 -54 242t-143 114
q-140 -12 -234 -162.5t-94 -363.5q0 -143 54 -242t143 -116z" />
    <glyph glyph-name="ocircumflex" unicode="&#xf4;" horiz-adv-x="1159" 
d="M436 1188h-59l307 344h57l209 -344h-59l-207 147zM504 -20q-189 0 -298.5 122t-109.5 332q0 129 43 243t117.5 195.5t178.5 129t222 47.5q188 0 298 -123t110 -332q0 -172 -73.5 -313t-202.5 -221t-285 -80zM514 70q139 12 233.5 164t94.5 364q0 143 -54 242t-143 114
q-140 -12 -234 -162.5t-94 -363.5q0 -143 54 -242t143 -116z" />
    <glyph glyph-name="otilde" unicode="&#xf5;" horiz-adv-x="1159" 
d="M801 1221q-58 0 -150 69q-52 37 -76 48.5t-45 11.5q-72 0 -106 -119h-57q17 115 72 188.5t126 73.5q59 0 154 -68q51 -37 74.5 -49t42.5 -12q74 0 108 119h55q-15 -113 -70.5 -187.5t-127.5 -74.5zM504 -20q-189 0 -298.5 122t-109.5 332q0 129 43 243t117.5 195.5
t178.5 129t222 47.5q188 0 298 -123t110 -332q0 -172 -73.5 -313t-202.5 -221t-285 -80zM514 70q139 12 233.5 164t94.5 364q0 143 -54 242t-143 114q-140 -12 -234 -162.5t-94 -363.5q0 -143 54 -242t143 -116z" />
    <glyph glyph-name="odieresis" unicode="&#xf6;" horiz-adv-x="1159" 
d="M868 1237q-51 0 -81.5 31t-30.5 82q0 62 42.5 102.5t106.5 40.5q50 0 81.5 -31t31.5 -82q0 -61 -43.5 -102t-106.5 -41zM467 1237q-51 0 -82 31t-31 82q0 61 42.5 102t105.5 41q51 0 82.5 -31t31.5 -82q0 -61 -43 -102t-106 -41zM504 -20q-189 0 -298.5 122t-109.5 332
q0 129 43 243t117.5 195.5t178.5 129t222 47.5q188 0 298 -123t110 -332q0 -172 -73.5 -313t-202.5 -221t-285 -80zM514 70q139 12 233.5 164t94.5 364q0 143 -54 242t-143 114q-140 -12 -234 -162.5t-94 -363.5q0 -143 54 -242t143 -116z" />
    <glyph glyph-name="divide" unicode="&#xf7;" horiz-adv-x="1114" 
d="M606 893q-46 0 -76 30t-30 76q0 59 39.5 98.5t99.5 39.5q46 0 77.5 -30.5t31.5 -76.5q0 -58 -41 -97.5t-101 -39.5zM1008 629h-871l17 125h872zM514 246q-47 0 -76.5 30.5t-29.5 77.5q0 58 40 98t99 40q46 0 77 -31.5t31 -77.5q0 -58 -40.5 -97.5t-100.5 -39.5z" />
    <glyph glyph-name="oslash" unicode="&#xf8;" horiz-adv-x="1159" 
d="M225 -25h-125l103 131q-107 119 -107 328q0 129 43 243t117.5 195.5t178.5 129t222 47.5q130 0 228 -64l51 68h129l-104 -133q104 -126 104 -326q0 -172 -73.5 -313t-202.5 -221t-285 -80q-134 0 -228 63zM346 281l432 565q-54 93 -133 108q-140 -12 -234 -162.5
t-94 -363.5q0 -73 29 -147zM514 70q139 12 233.5 164t94.5 364q0 79 -29 145l-430 -563q54 -92 131 -110z" />
    <glyph glyph-name="ugrave" unicode="&#xf9;" horiz-adv-x="1296" 
d="M803 1188h-64l-295 293l9 51h219zM393 -20q-98 0 -153.5 59t-55.5 162q0 77 19 182l82 479l-11 8l-202 -106l-19 49q128 125 215 180.5t154 55.5q37 0 57.5 -22t20.5 -58q0 -21 -13 -103l-84 -471q-14 -82 -14 -133q0 -52 25.5 -82t68.5 -30q130 0 253 239.5t190 632.5
l204 27l-122 -887l8 -8l207 110l20 -51q-127 -124 -212 -178.5t-148 -54.5q-38 0 -58 22.5t-20 56.5q0 36 57 381l-16 11q-99 -248 -205.5 -359.5t-247.5 -111.5z" />
    <glyph glyph-name="uacute" unicode="&#xfa;" horiz-adv-x="1296" 
d="M711 1188h-66l221 344h221l-6 -51zM393 -20q-98 0 -153.5 59t-55.5 162q0 77 19 182l82 479l-11 8l-202 -106l-19 49q128 125 215 180.5t154 55.5q37 0 57.5 -22t20.5 -58q0 -21 -13 -103l-84 -471q-14 -82 -14 -133q0 -52 25.5 -82t68.5 -30q130 0 253 239.5t190 632.5
l204 27l-122 -887l8 -8l207 110l20 -51q-127 -124 -212 -178.5t-148 -54.5q-38 0 -58 22.5t-20 56.5q0 36 57 381l-16 11q-99 -248 -205.5 -359.5t-247.5 -111.5z" />
    <glyph glyph-name="ucircumflex" unicode="&#xfb;" horiz-adv-x="1296" 
d="M510 1188h-59l307 344h57l209 -344h-59l-207 147zM393 -20q-98 0 -153.5 59t-55.5 162q0 77 19 182l82 479l-11 8l-202 -106l-19 49q128 125 215 180.5t154 55.5q37 0 57.5 -22t20.5 -58q0 -21 -13 -103l-84 -471q-14 -82 -14 -133q0 -52 25.5 -82t68.5 -30
q130 0 253 239.5t190 632.5l204 27l-122 -887l8 -8l207 110l20 -51q-127 -124 -212 -178.5t-148 -54.5q-38 0 -58 22.5t-20 56.5q0 36 57 381l-16 11q-99 -248 -205.5 -359.5t-247.5 -111.5z" />
    <glyph glyph-name="udieresis" unicode="&#xfc;" horiz-adv-x="1296" 
d="M942 1237q-51 0 -82 31t-31 82q0 61 42.5 102t107.5 41q50 0 81.5 -31t31.5 -82q0 -61 -43.5 -102t-106.5 -41zM541 1237q-51 0 -82 31t-31 82q0 61 42 102t105 41q51 0 83 -31t32 -82q0 -61 -43 -102t-106 -41zM393 -20q-98 0 -153.5 59t-55.5 162q0 77 19 182l82 479
l-11 8l-202 -106l-19 49q128 125 215 180.5t154 55.5q37 0 57.5 -22t20.5 -58q0 -21 -13 -103l-84 -471q-14 -82 -14 -133q0 -52 25.5 -82t68.5 -30q130 0 253 239.5t190 632.5l204 27l-122 -887l8 -8l207 110l20 -51q-127 -124 -212 -178.5t-148 -54.5q-38 0 -58 22.5
t-20 56.5q0 36 57 381l-16 11q-99 -248 -205.5 -359.5t-247.5 -111.5z" />
    <glyph glyph-name="yacute" unicode="&#xfd;" horiz-adv-x="1095" 
d="M631 1165h-66l221 344h222l-7 -51zM63 -512q-117 0 -178 154l29 47q71 -19 111 -19q102 0 193 69t226 261q-112 576 -219 872l-14 2l-178 -118l-31 43q101 129 174 189.5t131 60.5q44 0 71.5 -25t47.5 -86q85 -268 166 -707q135 212 201.5 346.5t87.5 231.5l-66 125
l10 49l174 61q22 -23 36 -62t14 -77q0 -96 -98 -281.5t-361 -580.5q-218 -325 -325.5 -440t-201.5 -115z" />
    <glyph glyph-name="thorn" unicode="&#xfe;" horiz-adv-x="1210" 
d="M446 -492h-552l6 54l88 30q49 17 69.5 42t26.5 73l209 1473q16 106 16 131q0 28 -14.5 40t-50.5 15l-107 6l6 53l361 111l37 -29l-150 -921l19 -8q94 241 202.5 356t237.5 115q126 0 201 -99.5t75 -267.5q0 -144 -52.5 -274.5t-140.5 -224t-208.5 -148.5t-251.5 -55
q-67 0 -147 22l-33 -233q-8 -52 -8 -80q0 -38 17 -57.5t69 -39.5l82 -30zM496 68q168 27 288.5 201t120.5 403q0 110 -36 171.5t-99 61.5q-71 0 -157 -109.5t-159.5 -291.5t-109.5 -381q76 -40 152 -55z" />
    <glyph glyph-name="ydieresis" unicode="&#xff;" horiz-adv-x="1095" 
d="M862 1214q-51 0 -81.5 31t-30.5 82q0 62 42.5 102.5t106.5 40.5q50 0 81.5 -30.5t31.5 -81.5q0 -61 -43.5 -102.5t-106.5 -41.5zM461 1214q-51 0 -82 31t-31 82q0 61 42.5 102t105.5 41q51 0 82.5 -30.5t31.5 -81.5q0 -61 -43 -102.5t-106 -41.5zM63 -512
q-117 0 -178 154l29 47q71 -19 111 -19q102 0 193 69t226 261q-112 576 -219 872l-14 2l-178 -118l-31 43q101 129 174 189.5t131 60.5q44 0 71.5 -25t47.5 -86q85 -268 166 -707q135 212 201.5 346.5t87.5 231.5l-66 125l10 49l174 61q22 -23 36 -62t14 -77
q0 -96 -98 -281.5t-361 -580.5q-218 -325 -325.5 -440t-201.5 -115z" />
    <glyph glyph-name="Amacron" unicode="&#x100;" horiz-adv-x="1429" 
d="M1151 1599h-584l19 132h583zM367 0h-451l8 55l86 31q41 15 65.5 39t53.5 78l623 1179l153 41l307 -1228q14 -53 28 -71t58 -40l68 -29l-8 -55h-529l9 55l71 25q55 21 71.5 35.5t16.5 36.5q0 21 -6 51l-53 213h-578l-106 -207q-27 -56 -27 -70q0 -19 16 -31.5t58 -27.5
l74 -25zM752 1174l-336 -652h495z" />
    <glyph glyph-name="amacron" unicode="&#x101;" horiz-adv-x="1251" 
d="M1012 1268h-584l18 131h584zM358 -20q-126 0 -201 98t-75 266q0 192 88.5 354.5t239.5 256.5t327 94q91 0 221 -39l86 45l37 -29l-118 -864l8 -8l207 110l20 -51q-125 -124 -210 -178.5t-146 -54.5q-39 0 -60.5 22.5t-21.5 56.5q0 43 57 379l-18 11q-94 -240 -203 -354.5
t-238 -114.5zM438 123q71 0 157 109t160 290.5t111 380.5q-79 43 -151 58q-111 -18 -205.5 -103.5t-151.5 -219.5t-57 -286q0 -107 36.5 -168t100.5 -61z" />
    <glyph glyph-name="Abreve" unicode="&#x102;" horiz-adv-x="1429" 
d="M850 1520q-109 0 -163 57.5t-54 157.5q0 44 16 106h51q0 -95 39 -133.5t133 -38.5q97 0 151.5 40t78.5 132h51q-5 -154 -83.5 -237.5t-219.5 -83.5zM367 0h-451l8 55l86 31q41 15 65.5 39t53.5 78l623 1179l153 41l307 -1228q14 -53 28 -71t58 -40l68 -29l-8 -55h-529
l9 55l71 25q55 21 71.5 35.5t16.5 36.5q0 21 -6 51l-53 213h-578l-106 -207q-27 -56 -27 -70q0 -19 16 -31.5t58 -27.5l74 -25zM752 1174l-336 -652h495z" />
    <glyph glyph-name="abreve" unicode="&#x103;" horiz-adv-x="1251" 
d="M711 1188q-109 0 -163 57.5t-54 157.5q0 44 16 106h51q0 -95 39 -133.5t133 -38.5q97 0 151.5 40t78.5 132h51q-5 -154 -83.5 -237.5t-219.5 -83.5zM358 -20q-126 0 -201 98t-75 266q0 192 88.5 354.5t239.5 256.5t327 94q91 0 221 -39l86 45l37 -29l-118 -864l8 -8
l207 110l20 -51q-125 -124 -210 -178.5t-146 -54.5q-39 0 -60.5 22.5t-21.5 56.5q0 43 57 379l-18 11q-94 -240 -203 -354.5t-238 -114.5zM438 123q71 0 157 109t160 290.5t111 380.5q-79 43 -151 58q-111 -18 -205.5 -103.5t-151.5 -219.5t-57 -286q0 -107 36.5 -168
t100.5 -61z" />
    <glyph glyph-name="Aogonek" unicode="&#x104;" horiz-adv-x="1429" 
d="M367 0h-451l8 55l86 31q41 15 65.5 39t53.5 78l623 1179l153 41l307 -1228q14 -53 28 -71t58 -40l68 -29l-8 -55q-120 -58 -191 -141t-71 -154q0 -111 153 -111q3 0 70 5l-2 -50q-84 -38 -176 -38q-99 0 -157 45.5t-58 119.5q0 92 82.5 176t246.5 148h-426l9 55l71 25
q55 21 71.5 35.5t16.5 36.5q0 21 -6 51l-53 213h-578l-106 -207q-27 -56 -27 -70q0 -19 16 -31.5t58 -27.5l74 -25zM752 1174l-336 -652h495z" />
    <glyph glyph-name="aogonek" unicode="&#x105;" horiz-adv-x="1251" 
d="M358 -20q-126 0 -201 98t-75 266q0 192 88.5 354.5t239.5 256.5t327 94q91 0 221 -39l86 45l37 -29l-118 -864l8 -8l207 110l20 -51q-211 -208 -324 -229q-105 -59 -167 -136t-62 -143q0 -111 154 -111q1 0 69 5l-2 -50q-84 -38 -176 -38q-99 0 -157 45.5t-58 119.5
q0 91 80.5 174.5t235.5 143.5q-31 22 -31 65t57 379l-18 11q-94 -240 -203 -354.5t-238 -114.5zM438 123q71 0 157 109t160 290.5t111 380.5q-79 43 -151 58q-111 -18 -205.5 -103.5t-151.5 -219.5t-57 -286q0 -107 36.5 -168t100.5 -61z" />
    <glyph glyph-name="Cacute" unicode="&#x106;" horiz-adv-x="1437" 
d="M918 1520h-66l221 344h221l-6 -52zM733 -20q-285 0 -451.5 160t-166.5 429q0 182 61.5 340.5t169 271.5t258 177.5t322.5 64.5q242 0 456 -100l-16 -336h-55q-4 28 -33.5 86t-50.5 86q-115 154 -316 154q-154 0 -284.5 -98.5t-206.5 -267.5t-76 -369q0 -218 113 -350
t301 -132q155 0 281 84t214 244h58l-90 -309q-82 -59 -218.5 -97t-269.5 -38z" />
    <glyph glyph-name="cacute" unicode="&#x107;" horiz-adv-x="980" 
d="M629 1188h-66l221 344h222l-7 -51zM489 -20q-180 0 -287.5 119t-107.5 319q0 177 72 321.5t199 227t282 82.5q168 0 316 -109l-72 -180h-49l-129 176q-27 12 -62 12q-88 0 -165.5 -69t-123 -185t-45.5 -248q0 -154 65 -242.5t177 -88.5q67 0 145 39t150 108l33 -51
q-77 -107 -183 -169t-215 -62z" />
    <glyph glyph-name="Cdotaccent" unicode="&#x10a;" horiz-adv-x="1437" 
d="M958 1565q-52 0 -83 32t-31 82q0 65 44 106.5t107 41.5q50 0 82.5 -32t32.5 -83q0 -64 -43.5 -105.5t-108.5 -41.5zM733 -20q-285 0 -451.5 160t-166.5 429q0 182 61.5 340.5t169 271.5t258 177.5t322.5 64.5q242 0 456 -100l-16 -336h-55q-4 28 -33.5 86t-50.5 86
q-115 154 -316 154q-154 0 -284.5 -98.5t-206.5 -267.5t-76 -369q0 -218 113 -350t301 -132q155 0 281 84t214 244h58l-90 -309q-82 -59 -218.5 -97t-269.5 -38z" />
    <glyph glyph-name="cdotaccent" unicode="&#x10b;" horiz-adv-x="980" 
d="M670 1233q-52 0 -83.5 32.5t-31.5 82.5q0 65 44.5 106t107.5 41q50 0 82 -32t32 -83q0 -64 -43 -105.5t-108 -41.5zM489 -20q-180 0 -287.5 119t-107.5 319q0 177 72 321.5t199 227t282 82.5q168 0 316 -109l-72 -180h-49l-129 176q-27 12 -62 12q-88 0 -165.5 -69
t-123 -185t-45.5 -248q0 -154 65 -242.5t177 -88.5q67 0 145 39t150 108l33 -51q-77 -107 -183 -169t-215 -62z" />
    <glyph glyph-name="Ccaron" unicode="&#x10c;" horiz-adv-x="1437" 
d="M973 1520h-58l-208 344h59l203 -150l250 150h61zM733 -20q-285 0 -451.5 160t-166.5 429q0 182 61.5 340.5t169 271.5t258 177.5t322.5 64.5q242 0 456 -100l-16 -336h-55q-4 28 -33.5 86t-50.5 86q-115 154 -316 154q-154 0 -284.5 -98.5t-206.5 -267.5t-76 -369
q0 -218 113 -350t301 -132q155 0 281 84t214 244h58l-90 -309q-82 -59 -218.5 -97t-269.5 -38z" />
    <glyph glyph-name="ccaron" unicode="&#x10d;" horiz-adv-x="980" 
d="M684 1188h-57l-209 344h59l203 -150l250 150h61zM489 -20q-180 0 -287.5 119t-107.5 319q0 177 72 321.5t199 227t282 82.5q168 0 316 -109l-72 -180h-49l-129 176q-27 12 -62 12q-88 0 -165.5 -69t-123 -185t-45.5 -248q0 -154 65 -242.5t177 -88.5q67 0 145 39t150 108
l33 -51q-77 -107 -183 -169t-215 -62z" />
    <glyph glyph-name="Dcaron" unicode="&#x10e;" horiz-adv-x="1521" 
d="M891 1520h-57l-209 344h59l203 -150l250 150h61zM651 0h-618l6 55l86 29q52 18 71 42.5t25 74.5l135 954q9 74 9 86q0 28 -15 44.5t-55 33.5l-76 29l8 55h602q292 0 461.5 -154.5t169.5 -433.5q0 -238 -102.5 -423.5t-287 -288.5t-419.5 -103zM592 1298l-168 -1194h201
q173 0 312.5 93t217.5 256t78 364q0 222 -121 351.5t-326 129.5h-194z" />
    <glyph glyph-name="dcaron" unicode="&#x10f;" horiz-adv-x="1251" 
d="M360 -20q-126 0 -201 98t-75 266q0 192 88.5 354.5t239.5 256.5t327 94q52 0 150 -25q39 251 39 289q0 26 -15 38t-51 15l-106 6l6 53l358 111l37 -29l-192 -1345l8 -8l207 110l20 -51q-127 -124 -211 -178.5t-145 -54.5q-39 0 -60.5 22.5t-21.5 56.5q0 38 57 379l-18 8
q-95 -238 -204 -352t-237 -114zM1278 1108h-53l53 375h186l-6 -51zM440 123q71 0 157 109t160 290.5t111 380.5q-79 43 -151 58q-110 -18 -204.5 -103.5t-151.5 -219.5t-58 -286q0 -107 36.5 -168t100.5 -61z" />
    <glyph glyph-name="Dcroat" unicode="&#x110;" horiz-adv-x="1521" 
d="M651 0h-618l6 55l86 29q52 18 71 42.5t25 74.5l64 450h-152l17 105h151l55 399q9 74 9 86q0 28 -15 44.5t-55 33.5l-76 29l8 55h602q292 0 461.5 -154.5t169.5 -433.5q0 -238 -102.5 -423.5t-287 -288.5t-419.5 -103zM500 651l-76 -547h201q173 0 312.5 93t217.5 256
t78 364q0 222 -121 351.5t-326 129.5h-194l-74 -542h328l-17 -105h-329z" />
    <glyph glyph-name="dcroat" unicode="&#x111;" horiz-adv-x="1253" 
d="M360 -20q-122 0 -199 102t-77 264q0 148 52 279t140.5 223t208 145.5t250.5 53.5q72 0 156 -23q13 75 18 121h-311l14 90h312q8 65 8 86q0 27 -15 39.5t-51 15.5l-106 6l6 54l356 100l39 -29l-39 -272h176l-14 -90h-176l-141 -983l8 -8l207 110l20 -51
q-127 -124 -211.5 -178.5t-146.5 -54.5q-38 0 -59 22.5t-21 56.5q0 43 57 379l-18 11q-88 -238 -197 -353.5t-246 -115.5zM444 123q72 0 158 109.5t158.5 290.5t105.5 376q-70 39 -153 59q-169 -27 -288.5 -195.5t-119.5 -393.5q0 -115 37 -180.5t102 -65.5z" />
    <glyph glyph-name="Emacron" unicode="&#x112;" horiz-adv-x="1355" 
d="M1137 1599h-584l18 132h584zM1122 0h-1091l8 55l84 33q52 21 71 44.5t27 68.5l135 966q9 53 9 64q0 29 -15 47t-55 37l-76 33l8 55h1078l-21 -324h-57l-43 107q-31 69 -63.5 90.5t-104.5 21.5h-424l-78 -538h328q47 0 72 16.5t51 65.5l43 86h55l-66 -459h-55l-14 94
q-9 54 -32 73t-71 19h-323l-60 -415q-8 -66 -8 -76q0 -32 18.5 -46t61.5 -14h348q80 0 121.5 23t95.5 96l82 121h56z" />
    <glyph glyph-name="emacron" unicode="&#x113;" horiz-adv-x="1046" 
d="M956 1268h-583l18 131h584zM492 -20q-181 0 -289.5 121.5t-108.5 322.5q0 129 42.5 245t115.5 199t174.5 132t214.5 49q141 0 227 -69.5t86 -182.5q0 -158 -150 -262.5t-378 -104.5q-65 0 -109 8q4 -154 67 -237.5t173 -83.5q159 0 332 159l33 -51q-86 -118 -198 -181.5
t-232 -63.5zM760 803q0 58 -29 97.5t-82 53.5q-126 -11 -220.5 -136t-109.5 -302q18 -2 64 -2q162 0 269.5 83t107.5 206z" />
    <glyph glyph-name="Edotaccent" unicode="&#x116;" horiz-adv-x="1355" 
d="M848 1565q-52 0 -83.5 32t-31.5 82q0 65 44.5 106.5t107.5 41.5q50 0 82 -32t32 -83q0 -64 -43 -105.5t-108 -41.5zM1122 0h-1091l8 55l84 33q52 21 71 44.5t27 68.5l135 966q9 53 9 64q0 29 -15 47t-55 37l-76 33l8 55h1078l-21 -324h-57l-43 107q-31 69 -63.5 90.5
t-104.5 21.5h-424l-78 -538h328q47 0 72 16.5t51 65.5l43 86h55l-66 -459h-55l-14 94q-9 54 -32 73t-71 19h-323l-60 -415q-8 -66 -8 -76q0 -32 18.5 -46t61.5 -14h348q80 0 121.5 23t95.5 96l82 121h56z" />
    <glyph glyph-name="edotaccent" unicode="&#x117;" horiz-adv-x="1046" 
d="M668 1233q-52 0 -83.5 32.5t-31.5 82.5q0 65 44.5 106t107.5 41q50 0 82 -32t32 -83q0 -64 -43 -105.5t-108 -41.5zM492 -20q-181 0 -289.5 121.5t-108.5 322.5q0 129 42.5 245t115.5 199t174.5 132t214.5 49q141 0 227 -69.5t86 -182.5q0 -158 -150 -262.5t-378 -104.5
q-65 0 -109 8q4 -154 67 -237.5t173 -83.5q159 0 332 159l33 -51q-86 -118 -198 -181.5t-232 -63.5zM760 803q0 58 -29 97.5t-82 53.5q-126 -11 -220.5 -136t-109.5 -302q18 -2 64 -2q162 0 269.5 83t107.5 206z" />
    <glyph glyph-name="Eogonek" unicode="&#x118;" horiz-adv-x="1355" 
d="M905 -489q-99 0 -157 45.5t-58 119.5q0 92 82.5 176t247.5 148h-989l8 55l84 33q52 21 71 44.5t27 68.5l135 966q9 53 9 64q0 29 -15 47t-55 37l-76 33l8 55h1078l-21 -324h-57l-43 107q-31 69 -63.5 90.5t-104.5 21.5h-424l-78 -538h328q47 0 72 16.5t51 65.5l43 86h55
l-66 -459h-55l-14 94q-9 54 -32 73t-71 19h-323l-60 -415q-8 -66 -8 -76q0 -32 18.5 -46t61.5 -14h348q80 0 121.5 23t95.5 96l82 121h56l-95 -344q-120 -58 -191 -141t-71 -154q0 -111 154 -111q2 0 69 5l-2 -50q-84 -38 -176 -38z" />
    <glyph glyph-name="eogonek" unicode="&#x119;" horiz-adv-x="1046" 
d="M408 -489q-99 0 -157 45.5t-58 119.5q0 85 70.5 163.5t209.5 140.5q-173 6 -276 126.5t-103 317.5q0 129 42.5 245t115.5 199t174.5 132t214.5 49q141 0 227 -69.5t86 -182.5q0 -158 -150 -262.5t-378 -104.5q-65 0 -109 8q4 -154 67 -237.5t173 -83.5q159 0 332 159
l33 -51q-124 -170 -297 -225q-120 -58 -191.5 -141t-71.5 -154q0 -111 154 -111q2 0 70 5l-2 -50q-84 -38 -176 -38zM760 803q0 58 -29 97.5t-82 53.5q-126 -11 -220.5 -136t-109.5 -302q18 -2 64 -2q162 0 269.5 83t107.5 206z" />
    <glyph glyph-name="Ecaron" unicode="&#x11a;" horiz-adv-x="1355" 
d="M862 1520h-57l-209 344h59l203 -150l250 150h61zM1122 0h-1091l8 55l84 33q52 21 71 44.5t27 68.5l135 966q9 53 9 64q0 29 -15 47t-55 37l-76 33l8 55h1078l-21 -324h-57l-43 107q-31 69 -63.5 90.5t-104.5 21.5h-424l-78 -538h328q47 0 72 16.5t51 65.5l43 86h55
l-66 -459h-55l-14 94q-9 54 -32 73t-71 19h-323l-60 -415q-8 -66 -8 -76q0 -32 18.5 -46t61.5 -14h348q80 0 121.5 23t95.5 96l82 121h56z" />
    <glyph glyph-name="ecaron" unicode="&#x11b;" horiz-adv-x="1046" 
d="M682 1188h-57l-209 344h59l203 -150l250 150h61zM492 -20q-181 0 -289.5 121.5t-108.5 322.5q0 129 42.5 245t115.5 199t174.5 132t214.5 49q141 0 227 -69.5t86 -182.5q0 -158 -150 -262.5t-378 -104.5q-65 0 -109 8q4 -154 67 -237.5t173 -83.5q159 0 332 159l33 -51
q-86 -118 -198 -181.5t-232 -63.5zM760 803q0 58 -29 97.5t-82 53.5q-126 -11 -220.5 -136t-109.5 -302q18 -2 64 -2q162 0 269.5 83t107.5 206z" />
    <glyph glyph-name="Gbreve" unicode="&#x11e;" horiz-adv-x="1517" 
d="M922 1520q-109 0 -163 57.5t-54 157.5q0 44 16 106h51q0 -95 39 -133.5t133 -38.5q97 0 151.5 40t78.5 132h51q-5 -154 -83.5 -237.5t-219.5 -83.5zM725 -20q-287 0 -449.5 154.5t-162.5 426.5q0 179 60.5 338t166.5 274.5t257.5 182.5t326.5 67q260 0 467 -106l-23 -330
h-57q-3 28 -26.5 78.5t-43.5 79.5q-61 89 -137.5 128.5t-185.5 39.5q-162 0 -294.5 -100.5t-207 -271t-74.5 -372.5q0 -214 115.5 -344.5t308.5 -130.5q85 0 168.5 19.5t126.5 48.5l33 235q8 49 8 82q0 31 -16 50t-60 36l-78 29l6 55h494l-8 -55l-51 -21q-35 -14 -49.5 -35
t-20.5 -63l-49 -348q-104 -71 -245.5 -109t-299.5 -38z" />
    <glyph glyph-name="gbreve" unicode="&#x11f;" horiz-adv-x="1208" 
d="M666 1165q-109 0 -163 57.5t-54 157.5q0 45 16 107h51q0 -95 39 -133.5t133 -38.5q97 0 151.5 40t78.5 132h51q-5 -154 -83.5 -238t-219.5 -84zM342 -512q-180 0 -285.5 65t-105.5 175q0 85 93 145.5t323 124.5q-136 5 -210.5 97.5t-74.5 260.5q0 141 52.5 269.5
t140.5 221t209 147.5t253 55q88 0 221 -39l86 45l37 -29l-131 -917q-45 -318 -196.5 -469.5t-411.5 -151.5zM440 139q72 0 158 107t159 284.5t109 372.5q-76 41 -151 58q-110 -18 -204.5 -101t-152 -214.5t-57.5 -280.5q0 -106 37 -166t102 -60zM365 -422q310 0 389 488
l61 374l-16 9q-73 -194 -199 -345q-89 -107 -215 -176q-130 -71 -169.5 -106t-39.5 -88q0 -69 52.5 -112.5t136.5 -43.5z" />
    <glyph glyph-name="Gdotaccent" unicode="&#x120;" horiz-adv-x="1517" 
d="M934 1565q-52 0 -83.5 32t-31.5 82q0 65 44.5 106.5t107.5 41.5q50 0 82 -32t32 -83q0 -64 -43 -105.5t-108 -41.5zM725 -20q-287 0 -449.5 154.5t-162.5 426.5q0 179 60.5 338t166.5 274.5t257.5 182.5t326.5 67q260 0 467 -106l-23 -330h-57q-3 28 -26.5 78.5
t-43.5 79.5q-61 89 -137.5 128.5t-185.5 39.5q-162 0 -294.5 -100.5t-207 -271t-74.5 -372.5q0 -214 115.5 -344.5t308.5 -130.5q85 0 168.5 19.5t126.5 48.5l33 235q8 49 8 82q0 31 -16 50t-60 36l-78 29l6 55h494l-8 -55l-51 -21q-35 -14 -49.5 -35t-20.5 -63l-49 -348
q-104 -71 -245.5 -109t-299.5 -38z" />
    <glyph glyph-name="gdotaccent" unicode="&#x121;" horiz-adv-x="1208" 
d="M678 1210q-52 0 -83.5 32.5t-31.5 82.5q0 65 44.5 106.5t107.5 41.5q50 0 82 -32t32 -83q0 -64 -43 -106t-108 -42zM342 -512q-180 0 -285.5 65t-105.5 175q0 85 93 145.5t323 124.5q-136 5 -210.5 97.5t-74.5 260.5q0 141 52.5 269.5t140.5 221t209 147.5t253 55
q88 0 221 -39l86 45l37 -29l-131 -917q-45 -318 -196.5 -469.5t-411.5 -151.5zM440 139q72 0 158 107t159 284.5t109 372.5q-76 41 -151 58q-110 -18 -204.5 -101t-152 -214.5t-57.5 -280.5q0 -106 37 -166t102 -60zM365 -422q310 0 389 488l61 374l-16 9
q-73 -194 -199 -345q-89 -107 -215 -176q-130 -71 -169.5 -106t-39.5 -88q0 -69 52.5 -112.5t136.5 -43.5z" />
    <glyph glyph-name="Gcommaaccent" unicode="&#x122;" horiz-adv-x="1517" 
d="M725 -20q-287 0 -449.5 154.5t-162.5 426.5q0 179 60.5 338t166.5 274.5t257.5 182.5t326.5 67q260 0 467 -106l-23 -330h-57q-3 28 -26.5 78.5t-43.5 79.5q-61 89 -137.5 128.5t-185.5 39.5q-162 0 -294.5 -100.5t-207 -271t-74.5 -372.5q0 -214 115.5 -344.5
t308.5 -130.5q85 0 168.5 19.5t126.5 48.5l33 235q8 49 8 82q0 31 -16 50t-60 36l-78 29l6 55h494l-8 -55l-51 -21q-35 -14 -49.5 -35t-20.5 -63l-49 -348q-104 -71 -245.5 -109t-299.5 -38zM489 -606l-30 37q69 55 111 119.5t42 109.5q0 65 -63 94l8 43q120 76 139 76
q35 0 56.5 -31.5t21.5 -83.5q0 -89 -75.5 -184t-209.5 -180z" />
    <glyph glyph-name="gcommaaccent" unicode="&#x123;" horiz-adv-x="1208" 
d="M657 1137q-37 0 -60.5 35t-23.5 92q0 90 72 181.5t203 168.5l31 -37q-72 -56 -113 -118t-41 -107q0 -64 70 -101l-4 -41q-107 -73 -134 -73zM342 -512q-180 0 -285.5 65t-105.5 175q0 85 93 145.5t323 124.5q-136 5 -210.5 97.5t-74.5 260.5q0 141 52.5 269.5t140.5 221
t209 147.5t253 55q88 0 221 -39l86 45l37 -29l-131 -917q-45 -318 -196.5 -469.5t-411.5 -151.5zM440 139q72 0 158 107t159 284.5t109 372.5q-76 41 -151 58q-110 -18 -204.5 -101t-152 -214.5t-57.5 -280.5q0 -106 37 -166t102 -60zM365 -422q310 0 389 488l61 374l-16 9
q-73 -194 -199 -345q-89 -107 -215 -176q-130 -71 -169.5 -106t-39.5 -88q0 -69 52.5 -112.5t136.5 -43.5z" />
    <glyph glyph-name="Hbar" unicode="&#x126;" horiz-adv-x="1671" 
d="M571 0h-540l8 55l86 29q52 18 71 42.5t25 74.5l111 778h-152l15 106h151q19 136 19 156q0 28 -15 44.5t-55 33.5l-74 29l6 55h541l-8 -55l-86 -29q-51 -20 -69.5 -44t-26.5 -73l-17 -117h709q20 125 20 156q0 28 -14.5 44.5t-54.5 33.5l-76 29l8 55h539l-9 -55l-84 -29
q-51 -18 -70.5 -43t-25.5 -74l-18 -117h149l-14 -106h-147l-105 -731q-8 -66 -8 -86q0 -29 14 -46t53 -32l76 -29l-8 -55h-539l9 55l84 29q52 18 71 42.5t25 74.5l63 444h-708l-56 -397q-10 -55 -10 -86q0 -28 15 -44.5t55 -33.5l76 -29zM547 979l-33 -225h711l30 225h-708z
" />
    <glyph glyph-name="hbar" unicode="&#x127;" horiz-adv-x="1265" 
d="M328 6l-205 -26l164 1165h-168l14 90h166q8 71 8 86q0 28 -14.5 40t-50.5 15l-107 6l6 54l359 100l39 -29l-43 -272h286l-14 -90h-289l-86 -553l17 -10q97 245 206 356t254 111q98 0 153.5 -59.5t55.5 -164.5q0 -83 -18 -182l-82 -477l10 -10l203 108l18 -51
q-128 -123 -214.5 -178t-153.5 -55q-38 0 -58 20.5t-20 56.5q0 29 12 105l84 469q14 86 14 135q0 52 -25.5 81.5t-68.5 29.5q-133 0 -259 -240t-193 -631z" />
    <glyph glyph-name="Itilde" unicode="&#x128;" horiz-adv-x="747" 
d="M659 1552q-32 0 -65.5 16.5t-83.5 53.5q-52 37 -76 48t-45 11q-72 0 -106 -118h-58q17 115 72.5 188.5t126.5 73.5q59 0 154 -68q51 -37 74 -49t42 -12q75 0 109 119h55q-15 -113 -71 -188t-128 -75zM571 0h-540l8 55l86 29q52 18 71 42.5t25 74.5l133 954q1 12 4 30.5
t5 32t2 23.5q0 28 -15 44.5t-55 33.5l-76 29l8 55h541l-8 -55l-86 -29q-51 -20 -70.5 -44t-25.5 -73l-134 -954q-10 -82 -10 -86q0 -28 15 -44.5t55 -33.5l76 -29z" />
    <glyph glyph-name="itilde" unicode="&#x129;" horiz-adv-x="686" 
d="M557 1221q-57 0 -149 69q-52 37 -76 48.5t-45 11.5q-73 0 -107 -119h-57q17 115 72.5 188.5t126.5 73.5q58 0 153 -68q51 -37 74.5 -49t42.5 -12q74 0 108 119h56q-15 -113 -71 -187.5t-128 -74.5zM252 -20q-37 0 -55.5 21.5t-18.5 55.5t15 129l108 680l-8 8l-207 -110
l-20 49q130 124 218.5 180t153.5 56q37 0 56.5 -23t19.5 -57q0 -26 -16 -127l-109 -680l8 -8l207 110l21 -51q-244 -233 -373 -233z" />
    <glyph glyph-name="Imacron" unicode="&#x12a;" horiz-adv-x="747" 
d="M825 1599h-583l18 132h584zM571 0h-540l8 55l86 29q52 18 71 42.5t25 74.5l133 954q1 12 4 30.5t5 32t2 23.5q0 28 -15 44.5t-55 33.5l-76 29l8 55h541l-8 -55l-86 -29q-51 -20 -70.5 -44t-25.5 -73l-134 -954q-10 -82 -10 -86q0 -28 15 -44.5t55 -33.5l76 -29z" />
    <glyph glyph-name="imacron" unicode="&#x12b;" horiz-adv-x="686" 
d="M723 1268h-584l19 131h583zM252 -20q-37 0 -55.5 21.5t-18.5 55.5t15 129l108 680l-8 8l-207 -110l-20 49q130 124 218.5 180t153.5 56q37 0 56.5 -23t19.5 -57q0 -26 -16 -127l-109 -680l8 -8l207 110l21 -51q-244 -233 -373 -233z" />
    <glyph glyph-name="Iogonek" unicode="&#x12e;" horiz-adv-x="747" 
d="M354 -489q-99 0 -157 45.5t-58 119.5q0 92 82.5 176t247.5 148h-438l8 55l86 29q52 18 71 42.5t25 74.5l133 954q1 12 4 30.5t5 32t2 23.5q0 28 -15 44.5t-55 33.5l-76 29l8 55h541l-8 -55l-86 -29q-51 -20 -70.5 -44t-25.5 -73l-134 -954q-10 -82 -10 -86
q0 -28 15 -44.5t55 -33.5l76 -29l-9 -55q-120 -58 -191 -141t-71 -154q0 -111 154 -111q1 0 69 5l-2 -50q-84 -38 -176 -38z" />
    <glyph glyph-name="iogonek" unicode="&#x12f;" horiz-adv-x="686" 
d="M436 1229q-53 0 -87 34.5t-34 86.5q0 68 48 113.5t114 45.5q52 0 87.5 -33.5t35.5 -86.5q0 -67 -47.5 -113.5t-116.5 -46.5zM123 -489q-99 0 -157 45.5t-58 119.5q0 89 76 170t227 144q-33 17 -33 67q0 34 15 129l108 680l-8 8l-207 -110l-20 49q130 124 218.5 180
t153.5 56q37 0 56.5 -23t19.5 -57q0 -26 -16 -127l-109 -680l8 -8l207 110l21 -51q-176 -168 -289 -215q-118 -58 -188 -140t-70 -153q0 -111 153 -111q2 0 70 5l-2 -50q-84 -38 -176 -38z" />
    <glyph glyph-name="Idotaccent" unicode="&#x130;" horiz-adv-x="747" 
d="M539 1561q-53 0 -87 34t-34 86q0 68 48 114t114 46q52 0 87 -34t35 -87q0 -67 -47 -113t-116 -46zM571 0h-540l8 55l86 29q52 18 71 42.5t25 74.5l133 954q1 12 4 30.5t5 32t2 23.5q0 28 -15 44.5t-55 33.5l-76 29l8 55h541l-8 -55l-86 -29q-51 -20 -70.5 -44t-25.5 -73
l-134 -954q-10 -82 -10 -86q0 -28 15 -44.5t55 -33.5l76 -29z" />
    <glyph glyph-name="dotlessi" unicode="&#x131;" horiz-adv-x="686" 
d="M252 -20q-37 0 -55.5 21.5t-18.5 55.5t15 129l108 680l-8 8l-207 -110l-20 49q130 124 218.5 180t153.5 56q37 0 56.5 -23t19.5 -57q0 -26 -16 -127l-109 -680l8 -8l207 110l21 -51q-244 -233 -373 -233z" />
    <glyph glyph-name="Kcommaaccent" unicode="&#x136;" horiz-adv-x="1433" 
d="M571 0h-540l8 55l86 29q53 18 71.5 42.5t24.5 74.5l133 954q11 71 11 86q0 28 -15 44.5t-55 33.5l-76 29l8 55h541l-8 -55l-86 -29q-51 -20 -70.5 -44t-25.5 -73l-62 -436h100q81 0 156 84l320 348q53 56 53 80q0 28 -64 49l-59 19l8 55h457l-6 -55l-82 -27
q-52 -19 -77.5 -37t-66.5 -65l-421 -457q50 -39 92 -119l231 -436q29 -54 52.5 -78t70.5 -45l70 -29l-7 -53h-317l-350 662h-174l-58 -414q-10 -65 -10 -86q0 -29 14.5 -44.5t55.5 -33.5l76 -29zM502 -606l-31 37q70 55 112 119.5t42 109.5q0 64 -64 94l8 43q120 76 140 76
q35 0 56 -31t21 -84q0 -90 -75 -185t-209 -179z" />
    <glyph glyph-name="kcommaaccent" unicode="&#x137;" horiz-adv-x="1218" 
d="M336 6l-205 -26l170 1196q16 114 16 137q0 26 -15 38t-50 15l-107 6l7 53l358 111l39 -29l-148 -915l17 -10q90 231 207 349t249 118q98 0 162 -63.5t64 -160.5q0 -121 -96.5 -224.5t-262.5 -160.5l179 -290h14l182 116l23 -51q-108 -125 -180 -180t-125 -55
q-59 0 -97 71l-200 350v54q156 35 259 130t103 203q0 50 -27.5 87t-72.5 43q-93 -18 -187.5 -143t-169 -329.5t-106.5 -439.5zM311 -606l-30 37q69 55 111 119.5t42 109.5q0 65 -63 94l8 43q120 76 139 76q35 0 56.5 -31.5t21.5 -83.5q0 -89 -75.5 -184t-209.5 -180z" />
    <glyph glyph-name="Lacute" unicode="&#x139;" horiz-adv-x="1212" 
d="M500 1520h-66l221 344h222l-7 -52zM1067 0h-1036l8 55l86 29q52 18 71 42.5t25 74.5l133 954q1 12 4 30.5t5 32t2 23.5q0 28 -15 44.5t-55 33.5l-76 29l8 55h541l-8 -55l-86 -29q-51 -20 -70.5 -44t-25.5 -73l-134 -952q-8 -55 -8 -80q0 -37 19.5 -51.5t68.5 -14.5h264
q88 0 133.5 26t106.5 118l84 127h55z" />
    <glyph glyph-name="lacute" unicode="&#x13a;" horiz-adv-x="634" 
d="M391 1608h-65l221 344h221l-6 -51zM211 -20q-38 0 -57 21.5t-19 55.5q0 21 15 129l145 990q16 131 16 137q0 26 -15 38t-50 15l-107 6l6 53l357 111l39 -29l-195 -1345l10 -8l207 110l19 -51q-241 -233 -371 -233z" />
    <glyph glyph-name="Lcommaaccent" unicode="&#x13b;" horiz-adv-x="1212" 
d="M1067 0h-1036l8 55l86 29q52 18 71 42.5t25 74.5l133 954q1 12 4 30.5t5 32t2 23.5q0 28 -15 44.5t-55 33.5l-76 29l8 55h541l-8 -55l-86 -29q-51 -20 -70.5 -44t-25.5 -73l-134 -952q-8 -55 -8 -80q0 -37 19.5 -51.5t68.5 -14.5h264q88 0 133.5 26t106.5 118l84 127h55z
M393 -606l-31 37q70 55 112 119.5t42 109.5q0 65 -63 94l8 43q120 76 139 76q35 0 56.5 -31.5t21.5 -83.5q0 -89 -75.5 -184t-209.5 -180z" />
    <glyph glyph-name="lcommaaccent" unicode="&#x13c;" horiz-adv-x="634" 
d="M211 -20q-38 0 -57 21.5t-19 55.5q0 21 15 129l145 990q16 131 16 137q0 26 -15 38t-50 15l-107 6l6 53l357 111l39 -29l-195 -1345l10 -8l207 110l19 -51q-241 -233 -371 -233zM41 -606l-31 37q70 55 112 119.5t42 109.5q0 64 -64 94l9 43q120 76 139 76
q35 0 56.5 -31.5t21.5 -83.5q0 -89 -75.5 -184t-209.5 -180z" />
    <glyph glyph-name="Lcaron" unicode="&#x13d;" horiz-adv-x="1212" 
d="M1067 0h-1036l8 55l86 29q52 18 71 42.5t25 74.5l133 954q1 12 4 30.5t5 32t2 23.5q0 28 -15 44.5t-55 33.5l-76 29l8 55h541l-8 -55l-86 -29q-51 -20 -70.5 -44t-25.5 -73l-134 -952q-8 -55 -8 -80q0 -37 19.5 -51.5t68.5 -14.5h264q88 0 133.5 26t106.5 118l84 127h55z
M877 1028h-54l54 375h186l-6 -51z" />
    <glyph glyph-name="lcaron" unicode="&#x13e;" horiz-adv-x="634" 
d="M211 -20q-38 0 -57 21.5t-19 55.5q0 21 15 129l145 990q16 131 16 137q0 26 -15 38t-50 15l-107 6l6 53l357 111l39 -29l-195 -1345l10 -8l207 110l19 -51q-241 -233 -371 -233zM659 1108h-53l53 375h187l-6 -51z" />
    <glyph glyph-name="Lslash" unicode="&#x141;" horiz-adv-x="1212" 
d="M1067 0h-1036l8 55l86 29q52 18 71 42.5t25 74.5l43 297l-166 -97l17 129l166 93l73 532q1 12 4 30.5t5 32t2 23.5q0 28 -15 44.5t-55 33.5l-76 29l8 55h541l-8 -55l-86 -29q-51 -20 -70.5 -44t-25.5 -73l-62 -442l334 190l-14 -121l-336 -194l-56 -385q-8 -55 -8 -80
q0 -37 19.5 -51.5t68.5 -14.5h264q89 0 134 25.5t106 118.5l84 127h55z" />
    <glyph glyph-name="lslash" unicode="&#x142;" horiz-adv-x="643" 
d="M219 -20q-38 0 -56 21t-18 56q0 21 15 129l67 461l-174 -106l17 125l176 106l59 404q2 17 6.5 49.5t7.5 55t3 32.5q0 26 -15 38t-51 15l-106 6l6 53l356 111l39 -29l-88 -604l174 107l-19 -123l-174 -107l-88 -618l9 -8l206 110l19 -51q-241 -233 -371 -233z" />
    <glyph glyph-name="Nacute" unicode="&#x143;" horiz-adv-x="1636" 
d="M928 1520h-66l221 344h222l-7 -52zM1303 33l-115 -62l-717 1159l-125 -880q-6 -55 -6 -74q0 -32 16 -51t62 -39l80 -31l-6 -55h-461l8 55l86 33q51 20 70.5 43.5t25.5 69.5l135 962q6 53 6 66q0 35 -15 54t-52 34l-74 31l8 55h324l670 -1096l118 856q7 54 7 68
q0 31 -16 48t-62 36l-82 33l8 55h459l-6 -55l-86 -33q-51 -22 -71 -45.5t-26 -69.5z" />
    <glyph glyph-name="nacute" unicode="&#x144;" horiz-adv-x="1312" 
d="M762 1188h-66l222 344h221l-6 -51zM375 6l-205 -29l125 889l-10 8l-207 -110l-19 51q127 124 212.5 179t148.5 55q38 0 58 -23t20 -57q0 -29 -58 -381l17 -10q99 246 208.5 358.5t254.5 112.5q97 0 152.5 -60t55.5 -164q0 -72 -20 -182l-82 -479l12 -10l201 108l21 -51
q-130 -124 -217 -179t-154 -55q-38 0 -58 21t-20 57q0 26 12 105l84 471q15 92 15 135q0 52 -26 81.5t-69 29.5q-133 0 -259 -240t-193 -631z" />
    <glyph glyph-name="Ncommaaccent" unicode="&#x145;" horiz-adv-x="1636" 
d="M1303 33l-115 -62l-717 1159l-125 -880q-6 -55 -6 -74q0 -32 16 -51t62 -39l80 -31l-6 -55h-461l8 55l86 33q51 20 70.5 43.5t25.5 69.5l135 962q6 53 6 66q0 35 -15 54t-52 34l-74 31l8 55h324l670 -1096l118 856q7 54 7 68q0 31 -16 48t-62 36l-82 33l8 55h459l-6 -55
l-86 -33q-51 -22 -71 -45.5t-26 -69.5zM530 -606l-30 37q69 55 111 119.5t42 109.5q0 65 -63 94l8 43q120 76 139 76q35 0 56.5 -31.5t21.5 -83.5q0 -89 -75.5 -184t-209.5 -180z" />
    <glyph glyph-name="ncommaaccent" unicode="&#x146;" horiz-adv-x="1312" 
d="M375 6l-205 -29l125 889l-10 8l-207 -110l-19 51q127 124 212.5 179t148.5 55q38 0 58 -23t20 -57q0 -29 -58 -381l17 -10q99 246 208.5 358.5t254.5 112.5q97 0 152.5 -60t55.5 -164q0 -72 -20 -182l-82 -479l12 -10l201 108l21 -51q-130 -124 -217 -179t-154 -55
q-38 0 -58 21t-20 57q0 26 12 105l84 471q15 92 15 135q0 52 -26 81.5t-69 29.5q-133 0 -259 -240t-193 -631zM365 -606l-31 37q69 55 111 119.5t42 109.5q0 65 -63 94l8 43q120 76 139 76q35 0 56.5 -31.5t21.5 -83.5q0 -90 -75 -185t-209 -179z" />
    <glyph glyph-name="Ncaron" unicode="&#x147;" horiz-adv-x="1636" 
d="M983 1520h-57l-209 344h59l203 -150l250 150h61zM1303 33l-115 -62l-717 1159l-125 -880q-6 -55 -6 -74q0 -32 16 -51t62 -39l80 -31l-6 -55h-461l8 55l86 33q51 20 70.5 43.5t25.5 69.5l135 962q6 53 6 66q0 35 -15 54t-52 34l-74 31l8 55h324l670 -1096l118 856
q7 54 7 68q0 31 -16 48t-62 36l-82 33l8 55h459l-6 -55l-86 -33q-51 -22 -71 -45.5t-26 -69.5z" />
    <glyph glyph-name="ncaron" unicode="&#x148;" horiz-adv-x="1312" 
d="M817 1188h-57l-209 344h59l203 -150l250 150h61zM375 6l-205 -29l125 889l-10 8l-207 -110l-19 51q127 124 212.5 179t148.5 55q38 0 58 -23t20 -57q0 -29 -58 -381l17 -10q99 246 208.5 358.5t254.5 112.5q97 0 152.5 -60t55.5 -164q0 -72 -20 -182l-82 -479l12 -10
l201 108l21 -51q-130 -124 -217 -179t-154 -55q-38 0 -58 21t-20 57q0 26 12 105l84 471q15 92 15 135q0 52 -26 81.5t-69 29.5q-133 0 -259 -240t-193 -631z" />
    <glyph glyph-name="Eng" unicode="&#x14a;" horiz-adv-x="1636" 
d="M856 -512l-29 39q81 80 127.5 144t80 148.5t59.5 209.5l-623 1101l-125 -880q-6 -55 -6 -74q0 -32 16 -51t62 -39l80 -31l-6 -55h-461l8 55l86 33q51 20 70.5 43.5t25.5 69.5l135 962q6 53 6 66q0 35 -15 54t-52 34l-74 31l8 55h324l661 -1153l127 913q7 54 7 68
q0 31 -16 48t-62 36l-82 33l8 55h459l-6 -55l-86 -33q-51 -22 -71 -45.5t-26 -69.5l-139 -997q-39 -291 -141 -444t-330 -271z" />
    <glyph glyph-name="eng" unicode="&#x14b;" horiz-adv-x="1257" 
d="M561 -512l-29 39q137 136 195 271t111 435l69 398q15 92 15 135q0 52 -26 81.5t-69 29.5q-133 0 -259 -240t-193 -631l-205 -29l125 889l-10 8l-207 -110l-19 51q127 124 212.5 179t148.5 55q38 0 58 -23t20 -57q0 -29 -58 -381l17 -10q99 246 208.5 358.5t254.5 112.5
q97 0 152.5 -60t55.5 -164q0 -50 -20 -182l-76 -440q-39 -291 -141 -444t-330 -271z" />
    <glyph glyph-name="Omacron" unicode="&#x14c;" horiz-adv-x="1538" 
d="M1225 1599h-584l18 132h584zM694 -20q-276 0 -428.5 155.5t-152.5 425.5q0 175 59.5 333.5t162 275t249.5 185t313 68.5q277 0 430.5 -156t153.5 -427q0 -175 -59.5 -333t-162.5 -274t-250.5 -184.5t-314.5 -68.5zM711 90q148 0 273.5 103.5t197 276t71.5 370.5
q0 214 -100 343.5t-270 129.5q-148 0 -273.5 -103.5t-197.5 -276t-72 -370.5q0 -214 100.5 -343.5t270.5 -129.5z" />
    <glyph glyph-name="omacron" unicode="&#x14d;" horiz-adv-x="1159" 
d="M967 1268h-584l18 131h584zM504 -20q-189 0 -298.5 122t-109.5 332q0 129 43 243t117.5 195.5t178.5 129t222 47.5q188 0 298 -123t110 -332q0 -172 -73.5 -313t-202.5 -221t-285 -80zM514 70q139 12 233.5 164t94.5 364q0 143 -54 242t-143 114q-140 -12 -234 -162.5
t-94 -363.5q0 -143 54 -242t143 -116z" />
    <glyph glyph-name="Ohungarumlaut" unicode="&#x150;" horiz-adv-x="1538" 
d="M1034 1520h-65l221 344h205l-9 -52zM664 1520h-66l221 344h205l-8 -52zM694 -20q-276 0 -428.5 155.5t-152.5 425.5q0 175 59.5 333.5t162 275t249.5 185t313 68.5q277 0 430.5 -156t153.5 -427q0 -175 -59.5 -333t-162.5 -274t-250.5 -184.5t-314.5 -68.5zM711 90
q148 0 273.5 103.5t197 276t71.5 370.5q0 214 -100 343.5t-270 129.5q-148 0 -273.5 -103.5t-197.5 -276t-72 -370.5q0 -214 100.5 -343.5t270.5 -129.5z" />
    <glyph glyph-name="ohungarumlaut" unicode="&#x151;" horiz-adv-x="1159" 
d="M776 1188h-65l221 344h205l-9 -51zM406 1188h-66l221 344h205l-8 -51zM504 -20q-189 0 -298.5 122t-109.5 332q0 129 43 243t117.5 195.5t178.5 129t222 47.5q188 0 298 -123t110 -332q0 -172 -73.5 -313t-202.5 -221t-285 -80zM514 70q139 12 233.5 164t94.5 364
q0 143 -54 242t-143 114q-140 -12 -234 -162.5t-94 -363.5q0 -143 54 -242t143 -116z" />
    <glyph glyph-name="OE" unicode="&#x152;" horiz-adv-x="2299" 
d="M694 -20q-276 0 -428.5 155t-152.5 426q0 234 100.5 431t281.5 314t402 117q286 0 420 -202l24 182h908l-23 -324h-55l-43 107q-31 69 -63.5 90.5t-104.5 21.5h-426l-76 -540h330q45 0 69.5 17t51.5 65l43 88h55l-63 -461h-56l-16 94q-10 54 -32 73t-68 19h-326l-60 -415
q-8 -62 -8 -74q0 -32 18.5 -46t61.5 -14h348q81 0 122 22.5t95 96.5l82 121h56l-95 -344h-919l24 182q-91 -97 -212.5 -149.5t-264.5 -52.5zM711 90q148 0 273.5 103t197 275t71.5 370q0 215 -99.5 345t-270.5 130q-148 0 -273.5 -103.5t-197.5 -276.5t-72 -372
q0 -214 100 -342.5t271 -128.5z" />
    <glyph glyph-name="oe" unicode="&#x153;" horiz-adv-x="1779" 
d="M504 -20q-189 0 -298.5 122t-109.5 332q0 129 43 243t117.5 195.5t178.5 129t222 47.5q114 0 199 -53t131 -150q70 95 171 149t216 54q141 0 227.5 -69.5t86.5 -182.5q0 -158 -150 -262.5t-379 -104.5q-64 0 -108 8q5 -154 67 -237.5t172 -83.5q159 0 332 159l33 -51
q-86 -118 -197 -181.5t-233 -63.5q-111 0 -194 52.5t-128 147.5q-74 -94 -177 -147t-222 -53zM514 70q139 12 233.5 164t94.5 364q0 143 -54 242t-143 114q-140 -12 -234 -162.5t-94 -363.5q0 -143 54 -242t143 -116zM1493 803q0 58 -29 97.5t-82 53.5q-126 -10 -220 -135.5
t-109 -302.5q16 -2 63 -2q162 0 269.5 83t107.5 206z" />
    <glyph glyph-name="Racute" unicode="&#x154;" horiz-adv-x="1406" 
d="M809 1520h-66l222 344h221l-6 -52zM580 0h-549l8 55l86 29q50 17 70 42.5t26 74.5l133 954q11 71 11 86q0 28 -15 44.5t-55 33.5l-76 29l8 55h594q225 0 349 -87t124 -245q0 -162 -106.5 -279t-294.5 -161q56 -26 94 -109l143 -329q20 -44 45.5 -68t71.5 -43l68 -29
l-6 -53h-324l-215 483q-52 116 -98 121h-180l-48 -358q-8 -58 -8 -80q0 -27 17 -45t59 -37l76 -29zM592 1298l-84 -589h186q158 0 264.5 99.5t106.5 250.5q0 115 -73.5 177t-205.5 62h-194z" />
    <glyph glyph-name="racute" unicode="&#x155;" horiz-adv-x="1007" 
d="M606 1188h-65l221 344h221l-6 -51zM375 6l-205 -26l125 886l-10 8l-207 -110l-19 49q124 122 210.5 179t150.5 57q37 0 57.5 -21.5t20.5 -58.5q0 -29 -58 -381l19 -10q98 243 199 357t216 114q91 0 156 -68l-51 -213h-51l-107 109q-134 -8 -263.5 -247t-182.5 -624z" />
    <glyph glyph-name="Rcommaaccent" unicode="&#x156;" horiz-adv-x="1406" 
d="M580 0h-549l8 55l86 29q50 17 70 42.5t26 74.5l133 954q11 71 11 86q0 28 -15 44.5t-55 33.5l-76 29l8 55h594q225 0 349 -87t124 -245q0 -162 -106.5 -279t-294.5 -161q56 -26 94 -109l143 -329q20 -44 45.5 -68t71.5 -43l68 -29l-6 -53h-324l-215 483q-52 116 -98 121
h-180l-48 -358q-8 -58 -8 -80q0 -27 17 -45t59 -37l76 -29zM592 1298l-84 -589h186q158 0 264.5 99.5t106.5 250.5q0 115 -73.5 177t-205.5 62h-194zM485 -606l-30 37q69 55 111 119.5t42 109.5q0 65 -63 94l8 43q120 76 139 76q35 0 56.5 -31.5t21.5 -83.5
q0 -89 -75.5 -184t-209.5 -180z" />
    <glyph glyph-name="rcommaaccent" unicode="&#x157;" horiz-adv-x="1007" 
d="M375 6l-205 -26l125 886l-10 8l-207 -110l-19 49q124 122 210.5 179t150.5 57q37 0 57.5 -21.5t20.5 -58.5q0 -29 -58 -381l19 -10q98 243 199 357t216 114q91 0 156 -68l-51 -213h-51l-107 109q-134 -8 -263.5 -247t-182.5 -624zM49 -606l-31 37q70 55 112 119.5
t42 109.5q0 65 -63 94l8 43q120 76 139 76q35 0 56.5 -31.5t21.5 -83.5q0 -89 -75.5 -184t-209.5 -180z" />
    <glyph glyph-name="Rcaron" unicode="&#x158;" horiz-adv-x="1406" 
d="M864 1520h-57l-209 344h59l203 -150l250 150h61zM580 0h-549l8 55l86 29q50 17 70 42.5t26 74.5l133 954q11 71 11 86q0 28 -15 44.5t-55 33.5l-76 29l8 55h594q225 0 349 -87t124 -245q0 -162 -106.5 -279t-294.5 -161q56 -26 94 -109l143 -329q20 -44 45.5 -68
t71.5 -43l68 -29l-6 -53h-324l-215 483q-52 116 -98 121h-180l-48 -358q-8 -58 -8 -80q0 -27 17 -45t59 -37l76 -29zM592 1298l-84 -589h186q158 0 264.5 99.5t106.5 250.5q0 115 -73.5 177t-205.5 62h-194z" />
    <glyph glyph-name="rcaron" unicode="&#x159;" horiz-adv-x="1007" 
d="M662 1188h-58l-209 344h60l202 -150l250 150h62zM375 6l-205 -26l125 886l-10 8l-207 -110l-19 49q124 122 210.5 179t150.5 57q37 0 57.5 -21.5t20.5 -58.5q0 -29 -58 -381l19 -10q98 243 199 357t216 114q91 0 156 -68l-51 -213h-51l-107 109q-134 -8 -263.5 -247
t-182.5 -624z" />
    <glyph glyph-name="Sacute" unicode="&#x15a;" horiz-adv-x="1169" 
d="M680 1520h-66l222 344h221l-6 -52zM514 -20q-132 0 -253 33t-191 89l51 355h57l27 -135q28 -119 109 -175.5t223 -56.5q126 0 215.5 71.5t89.5 172.5q0 83 -74 153.5t-256 159.5q-307 153 -307 371q0 179 138.5 292t350.5 113q96 0 201.5 -24.5t173.5 -63.5l-14 -317h-58
l-36 106q-69 191 -306 191q-106 0 -183 -65t-77 -156q0 -75 64 -140t227 -151q184 -97 269 -195t85 -207q0 -186 -148.5 -303.5t-377.5 -117.5z" />
    <glyph glyph-name="sacute" unicode="&#x15b;" horiz-adv-x="923" 
d="M514 1188h-65l221 344h221l-6 -51zM397 -20q-94 0 -187.5 26.5t-158.5 73.5l58 178h45l145 -164q56 -18 102 -18q86 0 147.5 48t61.5 114q0 56 -45 105.5t-176 125.5q-125 71 -180 141.5t-55 161.5q0 127 102 202t270 75q86 0 169.5 -25t148.5 -70l-56 -168h-43l-135 154
q-43 12 -86 12q-79 0 -129.5 -34t-50.5 -89q0 -60 43.5 -107t167.5 -122q140 -83 194 -152.5t54 -158.5q0 -136 -112.5 -222.5t-293.5 -86.5z" />
    <glyph glyph-name="Scedilla" unicode="&#x15e;" horiz-adv-x="1169" 
d="M295 -535l-19 31q96 66 138.5 114.5t42.5 102.5q0 49 -45 76t-127 29l174 164q-118 6 -222.5 38t-166.5 82l51 355h57l27 -135q28 -119 109 -175.5t223 -56.5q126 0 215.5 71.5t89.5 172.5q0 83 -74 153.5t-256 159.5q-307 153 -307 371q0 179 138.5 292t350.5 113
q96 0 201.5 -24.5t173.5 -63.5l-14 -317h-58l-36 106q-69 191 -306 191q-106 0 -183 -65t-77 -156q0 -75 64 -140t227 -151q184 -97 269 -195t85 -207q0 -180 -139.5 -296.5t-357.5 -124.5l-76 -101q74 0 118 -32.5t44 -88.5q0 -86 -91.5 -166t-242.5 -127z" />
    <glyph glyph-name="scedilla" unicode="&#x15f;" horiz-adv-x="923" 
d="M186 -535l-18 31q96 66 138 114.5t42 102.5q0 49 -45 76t-127 29l174 164q-179 13 -299 98l58 178h45l145 -164q56 -18 102 -18q86 0 147.5 48t61.5 114q0 56 -45 105.5t-176 125.5q-125 71 -180 141.5t-55 161.5q0 127 102 202t270 75q86 0 169.5 -25t148.5 -70
l-56 -168h-43l-135 154q-43 12 -86 12q-79 0 -129.5 -34t-50.5 -89q0 -60 43.5 -107t167.5 -122q140 -83 194 -152.5t54 -158.5q0 -129 -101.5 -213.5t-267.5 -93.5l-76 -103q74 0 118 -32.5t44 -88.5q0 -86 -91.5 -166t-242.5 -127z" />
    <glyph glyph-name="Scaron" unicode="&#x160;" horiz-adv-x="1169" 
d="M735 1520h-57l-209 344h59l203 -150l250 150h61zM514 -20q-132 0 -253 33t-191 89l51 355h57l27 -135q28 -119 109 -175.5t223 -56.5q126 0 215.5 71.5t89.5 172.5q0 83 -74 153.5t-256 159.5q-307 153 -307 371q0 179 138.5 292t350.5 113q96 0 201.5 -24.5t173.5 -63.5
l-14 -317h-58l-36 106q-69 191 -306 191q-106 0 -183 -65t-77 -156q0 -75 64 -140t227 -151q184 -97 269 -195t85 -207q0 -186 -148.5 -303.5t-377.5 -117.5z" />
    <glyph glyph-name="scaron" unicode="&#x161;" horiz-adv-x="923" 
d="M569 1188h-57l-209 344h59l203 -150l250 150h62zM397 -20q-94 0 -187.5 26.5t-158.5 73.5l58 178h45l145 -164q56 -18 102 -18q86 0 147.5 48t61.5 114q0 56 -45 105.5t-176 125.5q-125 71 -180 141.5t-55 161.5q0 127 102 202t270 75q86 0 169.5 -25t148.5 -70l-56 -168
h-43l-135 154q-43 12 -86 12q-79 0 -129.5 -34t-50.5 -89q0 -60 43.5 -107t167.5 -122q140 -83 194 -152.5t54 -158.5q0 -136 -112.5 -222.5t-293.5 -86.5z" />
    <glyph glyph-name="Tcedilla" unicode="&#x162;" horiz-adv-x="1308" 
d="M365 -535l-19 31q96 66 138 114.5t42 102.5q0 49 -45 76t-127 29l195 182h-256l8 55l96 31q56 18 77 43.5t28 71.5l155 1097h-182q-71 0 -114 -29.5t-109 -123.5l-82 -119h-55l82 377h1163l-25 -377h-55l-49 119q-38 94 -72 123.5t-104 29.5h-183l-149 -1052
q-8 -52 -8 -76q0 -57 80 -84l86 -31l-9 -55h-245l-90 -121q74 0 117.5 -32t43.5 -89q0 -86 -91 -166t-242 -127z" />
    <glyph glyph-name="tcedilla" unicode="&#x163;" horiz-adv-x="839" 
d="M147 -535l-18 31q96 66 138 114.5t42 102.5q0 49 -45 76t-127 29l176 166q-129 21 -129 174q0 37 15 133l92 627h-191l13 86l194 26l199 285l37 -21l-37 -266h307l-16 -110h-308l-94 -658q-6 -40 -6 -74q0 -35 15 -51t47 -16q26 0 53 8l231 129l19 -53
q-129 -115 -210 -164t-149 -57l-76 -103q74 0 118 -32.5t44 -88.5q0 -86 -91.5 -166t-242.5 -127z" />
    <glyph glyph-name="Tcaron" unicode="&#x164;" horiz-adv-x="1308" 
d="M831 1520h-57l-209 344h60l202 -150l250 150h62zM872 0h-579l8 55l96 31q56 18 77 43.5t28 71.5l155 1097h-182q-71 0 -114 -29.5t-109 -123.5l-82 -119h-55l82 377h1163l-25 -377h-55l-49 119q-38 94 -72 123.5t-104 29.5h-183l-149 -1052q-8 -52 -8 -76q0 -57 80 -84
l86 -31z" />
    <glyph glyph-name="tcaron" unicode="&#x165;" horiz-adv-x="839" 
d="M709 1130h-54l54 375h186l-6 -51zM360 -20q-89 0 -132.5 43.5t-43.5 134.5q0 37 15 133l92 627h-191l13 86l194 26l199 285l37 -21l-37 -266h307l-16 -110h-308l-94 -658q-6 -40 -6 -74q0 -35 15 -51t47 -16q26 0 53 8l231 129l19 -53q-144 -127 -230.5 -175t-163.5 -48z
" />
    <glyph glyph-name="Tbar" unicode="&#x166;" horiz-adv-x="1310" 
d="M872 0h-579l8 55l96 31q56 18 77 43.5t28 71.5l63 444h-323l14 98h324l77 555h-182q-71 0 -114 -29.5t-109 -123.5l-82 -119h-55l82 377h1163l-25 -377h-55l-49 119q-38 94 -72 123.5t-104 29.5h-183l-77 -555h323l-14 -98h-324l-57 -399q-8 -52 -8 -76q0 -57 80 -84
l86 -31z" />
    <glyph glyph-name="tbar" unicode="&#x167;" horiz-adv-x="839" 
d="M360 -20q-89 0 -132.5 43.5t-43.5 134.5q0 37 15 133l37 254h-130l15 102h131l39 271h-191l13 86l194 26l199 285l37 -21l-37 -266h307l-16 -110h-308l-38 -271h241l-14 -102h-242l-41 -285q-6 -40 -6 -74q0 -35 15 -51t47 -16q26 0 53 8l231 129l19 -53
q-144 -127 -230.5 -175t-163.5 -48z" />
    <glyph glyph-name="Utilde" unicode="&#x168;" horiz-adv-x="1607" 
d="M1133 1552q-56 0 -150 70q-52 37 -76 48t-45 11q-72 0 -106 -118h-58q17 115 72.5 188.5t126.5 73.5q59 0 154 -68q51 -37 74 -49t42 -12q75 0 109 119h55q-15 -113 -71 -188t-127 -75zM745 -20q-249 0 -371 94.5t-122 294.5q0 109 22 252l74 534q8 70 8 74
q0 31 -14.5 49t-54.5 37l-76 33l8 55h541l-8 -55l-86 -33q-50 -21 -69.5 -45.5t-27.5 -69.5l-88 -631q-12 -83 -12 -147q0 -166 79 -245t245 -79q197 0 303 119t143 377l78 561q6 53 6 74q0 31 -14.5 50t-53.5 36l-75 33l8 55h444l-8 -55l-84 -33q-51 -22 -70.5 -45.5
t-25.5 -69.5l-84 -592q-43 -313 -166 -450q-72 -82 -192 -130t-257 -48z" />
    <glyph glyph-name="utilde" unicode="&#x169;" horiz-adv-x="1296" 
d="M874 1221q-57 0 -149 69q-52 37 -76 48.5t-45 11.5q-72 0 -106 -119h-58q17 115 72.5 188.5t126.5 73.5q59 0 154 -68q51 -37 74 -49t42 -12q75 0 109 119h55q-15 -113 -71 -187.5t-128 -74.5zM393 -20q-98 0 -153.5 59t-55.5 162q0 77 19 182l82 479l-11 8l-202 -106
l-19 49q128 125 215 180.5t154 55.5q37 0 57.5 -22t20.5 -58q0 -21 -13 -103l-84 -471q-14 -82 -14 -133q0 -52 25.5 -82t68.5 -30q130 0 253 239.5t190 632.5l204 27l-122 -887l8 -8l207 110l20 -51q-127 -124 -212 -178.5t-148 -54.5q-38 0 -58 22.5t-20 56.5q0 36 57 381
l-16 11q-99 -248 -205.5 -359.5t-247.5 -111.5z" />
    <glyph glyph-name="Umacron" unicode="&#x16a;" horiz-adv-x="1607" 
d="M1298 1599h-583l18 132h584zM745 -20q-249 0 -371 94.5t-122 294.5q0 109 22 252l74 534q8 70 8 74q0 31 -14.5 49t-54.5 37l-76 33l8 55h541l-8 -55l-86 -33q-50 -21 -69.5 -45.5t-27.5 -69.5l-88 -631q-12 -83 -12 -147q0 -166 79 -245t245 -79q197 0 303 119t143 377
l78 561q6 53 6 74q0 31 -14.5 50t-53.5 36l-75 33l8 55h444l-8 -55l-84 -33q-51 -22 -70.5 -45.5t-25.5 -69.5l-84 -592q-43 -313 -166 -450q-72 -82 -192 -130t-257 -48z" />
    <glyph glyph-name="umacron" unicode="&#x16b;" horiz-adv-x="1296" 
d="M1040 1268h-583l18 131h584zM393 -20q-98 0 -153.5 59t-55.5 162q0 77 19 182l82 479l-11 8l-202 -106l-19 49q128 125 215 180.5t154 55.5q37 0 57.5 -22t20.5 -58q0 -21 -13 -103l-84 -471q-14 -82 -14 -133q0 -52 25.5 -82t68.5 -30q130 0 253 239.5t190 632.5l204 27
l-122 -887l8 -8l207 110l20 -51q-127 -124 -212 -178.5t-148 -54.5q-38 0 -58 22.5t-20 56.5q0 36 57 381l-16 11q-99 -248 -205.5 -359.5t-247.5 -111.5z" />
    <glyph glyph-name="Uring" unicode="&#x16e;" horiz-adv-x="1607" 
d="M993 1497q-96 0 -152.5 45.5t-56.5 120.5q0 88 71.5 151.5t186.5 63.5q96 0 152.5 -45.5t56.5 -120.5q0 -88 -71.5 -151.5t-186.5 -63.5zM1001 1567q55 0 95.5 40.5t40.5 96.5q0 45 -29 74.5t-74 29.5q-55 0 -95 -40.5t-40 -96.5q0 -44 29 -74t73 -30zM745 -20
q-249 0 -371 94.5t-122 294.5q0 109 22 252l74 534q8 70 8 74q0 31 -14.5 49t-54.5 37l-76 33l8 55h541l-8 -55l-86 -33q-50 -21 -69.5 -45.5t-27.5 -69.5l-88 -631q-12 -83 -12 -147q0 -166 79 -245t245 -79q197 0 303 119t143 377l78 561q6 53 6 74q0 31 -14.5 50
t-53.5 36l-75 33l8 55h444l-8 -55l-84 -33q-51 -22 -70.5 -45.5t-25.5 -69.5l-84 -592q-43 -313 -166 -450q-72 -82 -192 -130t-257 -48z" />
    <glyph glyph-name="uring" unicode="&#x16f;" horiz-adv-x="1296" 
d="M735 1165q-96 0 -152.5 45.5t-56.5 120.5q0 88 71.5 151.5t186.5 63.5q96 0 152.5 -45.5t56.5 -120.5q0 -88 -71.5 -151.5t-186.5 -63.5zM743 1235q55 0 95.5 40.5t40.5 96.5q0 45 -29 75t-74 30q-55 0 -95 -41t-40 -97q0 -44 29 -74t73 -30zM393 -20q-98 0 -153.5 59
t-55.5 162q0 77 19 182l82 479l-11 8l-202 -106l-19 49q128 125 215 180.5t154 55.5q37 0 57.5 -22t20.5 -58q0 -21 -13 -103l-84 -471q-14 -82 -14 -133q0 -52 25.5 -82t68.5 -30q130 0 253 239.5t190 632.5l204 27l-122 -887l8 -8l207 110l20 -51q-127 -124 -212 -178.5
t-148 -54.5q-38 0 -58 22.5t-20 56.5q0 36 57 381l-16 11q-99 -248 -205.5 -359.5t-247.5 -111.5z" />
    <glyph glyph-name="Uhungarumlaut" unicode="&#x170;" horiz-adv-x="1607" 
d="M1108 1520h-66l222 344h204l-8 -52zM737 1520h-65l221 344h205l-8 -52zM745 -20q-249 0 -371 94.5t-122 294.5q0 109 22 252l74 534q8 70 8 74q0 31 -14.5 49t-54.5 37l-76 33l8 55h541l-8 -55l-86 -33q-50 -21 -69.5 -45.5t-27.5 -69.5l-88 -631q-12 -83 -12 -147
q0 -166 79 -245t245 -79q197 0 303 119t143 377l78 561q6 53 6 74q0 31 -14.5 50t-53.5 36l-75 33l8 55h444l-8 -55l-84 -33q-51 -22 -70.5 -45.5t-25.5 -69.5l-84 -592q-43 -313 -166 -450q-72 -82 -192 -130t-257 -48z" />
    <glyph glyph-name="uhungarumlaut" unicode="&#x171;" horiz-adv-x="1296" 
d="M850 1188h-66l222 344h204l-8 -51zM479 1188h-65l221 344h205l-9 -51zM393 -20q-98 0 -153.5 59t-55.5 162q0 77 19 182l82 479l-11 8l-202 -106l-19 49q128 125 215 180.5t154 55.5q37 0 57.5 -22t20.5 -58q0 -21 -13 -103l-84 -471q-14 -82 -14 -133q0 -52 25.5 -82
t68.5 -30q130 0 253 239.5t190 632.5l204 27l-122 -887l8 -8l207 110l20 -51q-127 -124 -212 -178.5t-148 -54.5q-38 0 -58 22.5t-20 56.5q0 36 57 381l-16 11q-99 -248 -205.5 -359.5t-247.5 -111.5z" />
    <glyph glyph-name="Uogonek" unicode="&#x172;" horiz-adv-x="1607" 
d="M676 -489q-99 0 -157 45.5t-58 119.5q0 85 70 163t210 141q-247 0 -368 95t-121 294q0 109 22 252l74 534q8 70 8 74q0 31 -14.5 49t-54.5 37l-76 33l8 55h541l-8 -55l-86 -33q-50 -21 -69.5 -45.5t-27.5 -69.5l-88 -631q-12 -83 -12 -147q0 -166 79 -245t245 -79
q197 0 303 119t143 377l78 561q6 53 6 74q0 31 -14.5 50t-53.5 36l-75 33l8 55h444l-8 -55l-84 -33q-51 -22 -70.5 -45.5t-25.5 -69.5l-84 -592q-43 -313 -166 -450q-115 -127 -317 -166q-112 -58 -179 -138.5t-67 -148.5q0 -111 153 -111q2 0 70 5l-2 -50q-84 -38 -176 -38
z" />
    <glyph glyph-name="uogonek" unicode="&#x173;" horiz-adv-x="1296" 
d="M393 -20q-98 0 -153.5 59t-55.5 162q0 77 19 182l82 479l-11 8l-202 -106l-19 49q128 125 215 180.5t154 55.5q37 0 57.5 -22t20.5 -58q0 -21 -13 -103l-84 -471q-14 -82 -14 -133q0 -52 25.5 -82t68.5 -30q130 0 253 239.5t190 632.5l204 27l-122 -887l8 -8l207 110
l20 -51q-202 -196 -309 -225q-110 -59 -174 -137t-64 -146q0 -111 154 -111q2 0 70 5l-2 -50q-84 -38 -177 -38q-99 0 -157 45.5t-58 119.5q0 89 78.5 171t233.5 145q-33 20 -33 67q0 36 57 381l-16 11q-99 -248 -205.5 -359.5t-247.5 -111.5z" />
    <glyph glyph-name="Wcircumflex" unicode="&#x174;" horiz-adv-x="2041" 
d="M977 1520h-59l307 344h57l209 -344h-59l-207 147zM594 23l-119 -43l-225 1228q-9 51 -25 72.5t-57 38.5l-68 29l9 55h524l-8 -55l-70 -25q-57 -21 -73.5 -35t-16.5 -37q0 -15 8 -65l154 -871l493 1057l123 33l215 -1088l375 863q29 62 29 86q0 19 -13.5 31.5t-52.5 25.5
l-72 25l9 55h440l-8 -55l-86 -31q-40 -15 -66 -41.5t-49 -75.5l-530 -1177l-119 -43l-225 1110z" />
    <glyph glyph-name="wcircumflex" unicode="&#x175;" horiz-adv-x="1679" 
d="M758 1188h-60l308 344h57l209 -344h-60l-206 147zM545 20l-131 -40q-101 579 -187 892h-16l-176 -116l-33 43q101 128 175 189t132 61q46 0 73 -25t44 -86q59 -219 131 -692l328 731l129 47q121 -436 178 -791q229 359 270 576l-65 127l8 47l174 64q22 -23 35.5 -62.5
t13.5 -77.5q0 -107 -105.5 -315t-351.5 -572l-122 -40q-63 380 -150 745z" />
    <glyph glyph-name="Ycircumflex" unicode="&#x176;" horiz-adv-x="1267" 
d="M575 1520h-59l307 344h58l209 -344h-60l-207 147zM858 0h-579l6 55l98 31q55 18 76 44t28 71l48 325l-295 682q-26 60 -39 77.5t-47 31.5l-68 31l8 55h529l-9 -55l-71 -27q-46 -19 -64 -31t-18 -28q0 -30 18 -70l230 -530l346 524q39 56 39 76t-14 32.5t-56 26.5l-68 27
l7 55h446l-8 -55l-86 -33q-35 -13 -54 -31t-51 -63l-460 -678l-41 -297q-9 -59 -9 -76q0 -57 78 -84l88 -31z" />
    <glyph glyph-name="ycircumflex" unicode="&#x177;" horiz-adv-x="1095" 
d="M430 1165h-59l307 344h57l209 -344h-59l-207 148zM63 -512q-117 0 -178 154l29 47q71 -19 111 -19q102 0 193 69t226 261q-112 576 -219 872l-14 2l-178 -118l-31 43q101 129 174 189.5t131 60.5q44 0 71.5 -25t47.5 -86q85 -268 166 -707q135 212 201.5 346.5
t87.5 231.5l-66 125l10 49l174 61q22 -23 36 -62t14 -77q0 -96 -98 -281.5t-361 -580.5q-218 -325 -325.5 -440t-201.5 -115z" />
    <glyph glyph-name="Ydieresis" unicode="&#x178;" horiz-adv-x="1267" 
d="M1008 1569q-51 0 -82 30.5t-31 81.5q0 62 42.5 103t106.5 41q50 0 81.5 -31t31.5 -82q0 -61 -43 -102t-106 -41zM606 1569q-51 0 -81.5 30.5t-30.5 81.5q0 62 42 103t105 41q51 0 83 -31t32 -82q0 -61 -43.5 -102t-106.5 -41zM858 0h-579l6 55l98 31q55 18 76 44t28 71
l48 325l-295 682q-26 60 -39 77.5t-47 31.5l-68 31l8 55h529l-9 -55l-71 -27q-46 -19 -64 -31t-18 -28q0 -30 18 -70l230 -530l346 524q39 56 39 76t-14 32.5t-56 26.5l-68 27l7 55h446l-8 -55l-86 -33q-35 -13 -54 -31t-51 -63l-460 -678l-41 -297q-9 -59 -9 -76
q0 -57 78 -84l88 -31z" />
    <glyph glyph-name="Zacute" unicode="&#x179;" horiz-adv-x="1226" 
d="M735 1520h-65l221 344h221l-6 -52zM1055 0h-1041l6 104l941 1194h-439q-78 0 -119 -28.5t-104 -128.5l-78 -125h-55l82 387h989l-4 -105l-950 -1194h497q82 0 128 30t112 130l80 123h55z" />
    <glyph glyph-name="zacute" unicode="&#x17a;" horiz-adv-x="1017" 
d="M567 1188h-65l221 344h221l-6 -51zM186 45l-123 -65l-49 47l672 788l-414 51l-86 -172h-53q16 155 60 267q19 49 50 68.5t89 19.5q48 0 104 -9l375 -53l123 62l49 -50l-672 -782l445 -59l118 184h56q-43 -196 -90 -287q-22 -41 -51 -58t-78 -17q-52 0 -99 8z" />
    <glyph glyph-name="Zdotaccent" unicode="&#x17b;" horiz-adv-x="1226" 
d="M776 1565q-52 0 -83 32t-31 82q0 65 44 106.5t107 41.5q50 0 82.5 -32t32.5 -83q0 -64 -43.5 -105.5t-108.5 -41.5zM1055 0h-1041l6 104l941 1194h-439q-78 0 -119 -28.5t-104 -128.5l-78 -125h-55l82 387h989l-4 -105l-950 -1194h497q82 0 128 30t112 130l80 123h55z
" />
    <glyph glyph-name="zdotaccent" unicode="&#x17c;" horiz-adv-x="1017" 
d="M608 1233q-52 0 -83 32.5t-31 82.5q0 65 44 106t107 41q50 0 82.5 -32t32.5 -83q0 -64 -43.5 -105.5t-108.5 -41.5zM186 45l-123 -65l-49 47l672 788l-414 51l-86 -172h-53q16 155 60 267q19 49 50 68.5t89 19.5q48 0 104 -9l375 -53l123 62l49 -50l-672 -782l445 -59
l118 184h56q-43 -196 -90 -287q-22 -41 -51 -58t-78 -17q-52 0 -99 8z" />
    <glyph glyph-name="Zcaron" unicode="&#x17d;" horiz-adv-x="1226" 
d="M791 1520h-58l-209 344h60l202 -150l250 150h62zM1055 0h-1041l6 104l941 1194h-439q-78 0 -119 -28.5t-104 -128.5l-78 -125h-55l82 387h989l-4 -105l-950 -1194h497q82 0 128 30t112 130l80 123h55z" />
    <glyph glyph-name="zcaron" unicode="&#x17e;" horiz-adv-x="1017" 
d="M623 1188h-58l-209 344h60l202 -150l250 150h62zM186 45l-123 -65l-49 47l672 788l-414 51l-86 -172h-53q16 155 60 267q19 49 50 68.5t89 19.5q48 0 104 -9l375 -53l123 62l49 -50l-672 -782l445 -59l118 184h56q-43 -196 -90 -287q-22 -41 -51 -58t-78 -17q-52 0 -99 8
z" />
    <glyph glyph-name="florin" unicode="&#x192;" horiz-adv-x="1208" 
d="M55 -512q-61 0 -111.5 14t-123.5 52l80 237h47q39 -197 131 -197q63 0 113.5 80t101.5 263l190 684h-198l22 88l211 32l76 279q57 206 160.5 304.5t261.5 98.5q61 0 112 -13.5t123 -51.5l-80 -238h-49q-19 102 -50.5 149.5t-80.5 47.5q-64 0 -114 -79.5t-101 -262.5
l-65 -240h297l-33 -114h-295l-205 -730q-58 -207 -160.5 -305t-259.5 -98z" />
    <glyph glyph-name="Scommaaccent" unicode="&#x218;" horiz-adv-x="1169" 
d="M514 -20q-132 0 -253 33t-191 89l51 355h57l27 -135q28 -119 109 -175.5t223 -56.5q126 0 215.5 71.5t89.5 172.5q0 83 -74 153.5t-256 159.5q-307 153 -307 371q0 179 138.5 292t350.5 113q96 0 201.5 -24.5t173.5 -63.5l-14 -317h-58l-36 106q-69 191 -306 191
q-106 0 -183 -65t-77 -156q0 -75 64 -140t227 -151q184 -97 269 -195t85 -207q0 -186 -148.5 -303.5t-377.5 -117.5zM291 -606l-31 37q70 55 112 119.5t42 109.5q0 64 -64 94l8 43q120 76 140 76q35 0 56 -31t21 -84q0 -90 -75 -185t-209 -179z" />
    <glyph glyph-name="scommaaccent" unicode="&#x219;" horiz-adv-x="923" 
d="M397 -20q-94 0 -187.5 26.5t-158.5 73.5l58 178h45l145 -164q56 -18 102 -18q86 0 147.5 48t61.5 114q0 56 -45 105.5t-176 125.5q-125 71 -180 141.5t-55 161.5q0 127 102 202t270 75q86 0 169.5 -25t148.5 -70l-56 -168h-43l-135 154q-43 12 -86 12q-79 0 -129.5 -34
t-50.5 -89q0 -60 43.5 -107t167.5 -122q140 -83 194 -152.5t54 -158.5q0 -136 -112.5 -222.5t-293.5 -86.5zM182 -606l-30 37q69 55 111 119.5t42 109.5q0 65 -63 94l8 43q120 76 139 76q35 0 56.5 -31.5t21.5 -83.5q0 -89 -75.5 -184t-209.5 -180z" />
    <glyph glyph-name="Tcommaaccent" unicode="&#x21a;" horiz-adv-x="1308" 
d="M872 0h-579l8 55l96 31q56 18 77 43.5t28 71.5l155 1097h-182q-71 0 -114 -29.5t-109 -123.5l-82 -119h-55l82 377h1163l-25 -377h-55l-49 119q-38 94 -72 123.5t-104 29.5h-183l-149 -1052q-8 -52 -8 -76q0 -57 80 -84l86 -31zM360 -606l-30 37q69 55 111 119.5
t42 109.5q0 65 -63 94l8 43q120 76 139 76q35 0 56.5 -31.5t21.5 -83.5q0 -89 -75.5 -184t-209.5 -180z" />
    <glyph glyph-name="tcommaaccent" unicode="&#x21b;" horiz-adv-x="839" 
d="M360 -20q-89 0 -132.5 43.5t-43.5 134.5q0 37 15 133l92 627h-191l13 86l194 26l199 285l37 -21l-37 -266h307l-16 -110h-308l-94 -658q-6 -40 -6 -74q0 -35 15 -51t47 -16q26 0 53 8l231 129l19 -53q-144 -127 -230.5 -175t-163.5 -48zM143 -606l-30 37q69 55 111 119.5
t42 109.5q0 65 -63 94l8 43q120 76 139 76q35 0 56.5 -31.5t21.5 -83.5q0 -89 -75.5 -184t-209.5 -180z" />
    <glyph glyph-name="commaturnedmod" unicode="&#x2bb;" 
d="M492 1159q-37 0 -60.5 35t-23.5 92q0 91 71.5 182t202.5 168l31 -37q-72 -56 -113 -118t-41 -107q0 -63 70 -100l-4 -41q-108 -74 -133 -74z" />
    <glyph glyph-name="circumflex" unicode="&#x2c6;" 
d="M299 1188h-59l307 344h57l209 -344h-59l-207 147z" />
    <glyph glyph-name="caron" unicode="&#x2c7;" 
d="M555 1188h-57l-209 344h59l203 -150l250 150h61z" />
    <glyph glyph-name="breve" unicode="&#x2d8;" 
d="M530 1188q-109 0 -163 57.5t-54 157.5q0 40 17 106h51q0 -95 39 -133.5t133 -38.5q97 0 151 39.5t78 132.5h52q-4 -154 -83.5 -237.5t-220.5 -83.5z" />
    <glyph glyph-name="dotaccent" unicode="&#x2d9;" 
d="M535 1233q-52 0 -83.5 32.5t-31.5 82.5q0 65 44 106t107 41q50 0 82.5 -32t32.5 -83q0 -64 -43 -105.5t-108 -41.5z" />
    <glyph glyph-name="ring" unicode="&#x2da;" 
d="M526 1165q-96 0 -152.5 45.5t-56.5 120.5q0 88 71.5 151.5t186.5 63.5q96 0 152.5 -45.5t56.5 -120.5q0 -88 -71.5 -151.5t-186.5 -63.5zM535 1235q55 0 95 40.5t40 96.5q0 45 -29 75t-74 30q-55 0 -95 -41t-40 -97q0 -44 29.5 -74t73.5 -30z" />
    <glyph glyph-name="ogonek" unicode="&#x2db;" 
d="M289 -489q-99 0 -157 45.5t-58 119.5q0 92 82.5 176t246.5 148h103q-120 -58 -191 -141t-71 -154q0 -111 153 -111q2 0 70 5l-2 -50q-84 -38 -176 -38z" />
    <glyph glyph-name="tilde" unicode="&#x2dc;" 
d="M666 1221q-58 0 -150 69q-52 37 -76 48.5t-45 11.5q-72 0 -106 -119h-58q17 115 72.5 188.5t126.5 73.5q59 0 154 -68q51 -37 74 -49t42 -12q75 0 109 119h55q-15 -113 -70.5 -187.5t-127.5 -74.5z" />
    <glyph glyph-name="hungarumlaut" unicode="&#x2dd;" 
d="M657 1188h-65l221 344h205l-8 -51zM287 1188h-66l221 344h205l-8 -51z" />
    <glyph glyph-name="gravecomb" unicode="&#x300;" horiz-adv-x="448" 
d="M518 1188h-63l-295 293l8 51h219z" />
    <glyph glyph-name="acutecomb" unicode="&#x301;" horiz-adv-x="444" 
d="M184 1188h-65l221 344h221l-6 -51z" />
    <glyph glyph-name="circumflexcomb" unicode="&#x302;" horiz-adv-x="622" 
d="M178 1188h-59l307 344h57l209 -344h-59l-207 147z" />
    <glyph glyph-name="tildecomb" unicode="&#x303;" horiz-adv-x="647" 
d="M559 1221q-57 0 -149 69q-52 37 -76 48.5t-45 11.5q-73 0 -107 -119h-57q17 115 72.5 188.5t126.5 73.5q58 0 153 -68q51 -37 74.5 -49t42.5 -12q74 0 108 119h56q-15 -113 -71 -187.5t-128 -74.5z" />
    <glyph glyph-name="macroncomb" unicode="&#x304;" horiz-adv-x="632" 
d="M715 1268h-584l19 131h583z" />
    <glyph glyph-name="brevecomb" unicode="&#x306;" horiz-adv-x="559" 
d="M369 1188q-109 0 -163 57.5t-54 157.5q0 44 16 106h51q0 -95 39 -133.5t133 -38.5q97 0 151.5 40t78.5 132h51q-5 -154 -83.5 -237.5t-219.5 -83.5z" />
    <glyph glyph-name="dotaccentcomb" unicode="&#x307;" horiz-adv-x="313" 
d="M258 1233q-52 0 -83.5 32.5t-31.5 82.5q0 65 44.5 106t107.5 41q50 0 82.5 -32t32.5 -83q0 -64 -43.5 -105.5t-108.5 -41.5z" />
    <glyph glyph-name="dieresiscomb" unicode="&#x308;" horiz-adv-x="710" 
d="M657 1237q-51 0 -81.5 31t-30.5 82q0 62 42.5 102.5t106.5 40.5q50 0 81.5 -31t31.5 -82q0 -61 -43.5 -102t-106.5 -41zM256 1237q-51 0 -82 31t-31 82q0 61 42.5 102t105.5 41q51 0 83 -31t32 -82q0 -61 -43.5 -102t-106.5 -41z" />
    <glyph glyph-name="ringcomb" unicode="&#x30a;" horiz-adv-x="512" 
d="M350 1165q-96 0 -152.5 45.5t-56.5 120.5q0 88 71.5 151.5t186.5 63.5q96 0 152.5 -45.5t56.5 -120.5q0 -88 -71.5 -151.5t-186.5 -63.5zM358 1235q55 0 95.5 40.5t40.5 96.5q0 45 -29 75t-74 30q-55 0 -95 -41t-40 -97q0 -44 29 -74t73 -30z" />
    <glyph glyph-name="hungarumlautcomb" unicode="&#x30b;" horiz-adv-x="796" 
d="M555 1188h-66l222 344h204l-8 -51zM184 1188h-65l221 344h205l-8 -51z" />
    <glyph glyph-name="caroncomb" unicode="&#x30c;" horiz-adv-x="622" 
d="M434 1188h-57l-209 344h59l203 -150l250 150h61z" />
    <glyph glyph-name="commaturnedabovecomb" unicode="&#x312;" horiz-adv-x="313" 
d="M219 1159q-37 0 -60.5 35t-23.5 92q0 90 72 181.5t203 168.5l30 -37q-72 -56 -112.5 -118t-40.5 -107q0 -35 16.5 -58t52.5 -42l-4 -41q-108 -74 -133 -74z" />
    <glyph glyph-name="commaabovecomb" unicode="&#x313;" horiz-adv-x="313" 
d="M219 1159q-37 0 -60.5 35t-23.5 92q0 90 72 181.5t203 168.5l30 -37q-72 -56 -112.5 -118t-40.5 -107q0 -35 16.5 -58t52.5 -42l-4 -41q-108 -74 -133 -74z" />
    <glyph glyph-name="commaaccentcomb" unicode="&#x326;" horiz-adv-x="321" 
d="M-96 -606l-31 37q70 55 112 119.5t42 109.5q0 64 -64 94l8 43q120 76 140 76q35 0 56 -31t21 -84q0 -90 -75 -185t-209 -179z" />
    <glyph glyph-name="cedillacomb" unicode="&#x327;" horiz-adv-x="403" 
d="M-63 -535l-19 31q96 66 138 114.5t42 102.5q0 49 -45 76t-127 29l228 213h67l-112 -152q74 0 117.5 -32t43.5 -89q0 -86 -91 -166t-242 -127z" />
    <glyph glyph-name="ogonekcomb" unicode="&#x328;" horiz-adv-x="458" 
d="M123 -489q-99 0 -157 45.5t-58 119.5q0 92 82.5 176t247.5 148h102q-120 -58 -191 -141t-71 -154q0 -111 153 -111q2 0 70 5l-2 -50q-84 -38 -176 -38z" />
    <glyph glyph-name="Delta" unicode="&#x394;" horiz-adv-x="1433" 
d="M1268 0h-1245l6 51l747 1340l131 30l369 -1368zM756 1145l-578 -1039h866z" />
    <glyph glyph-name="Omega" unicode="&#x3a9;" horiz-adv-x="1640" 
d="M639 0h-557l10 311h51l58 -102q21 -39 44 -51.5t79 -12.5h239q-182 90 -288.5 248.5t-106.5 333.5q0 131 55.5 255.5t153.5 222t245.5 157t319.5 59.5q275 0 442.5 -145.5t167.5 -380.5q0 -140 -68.5 -282.5t-202.5 -267t-310 -200.5h239q56 0 82.5 12.5t59.5 51.5
l88 102h51l-78 -311h-559l-2 160q228 134 349.5 326t121.5 401q0 191 -108 308.5t-289 117.5q-116 0 -216.5 -51.5t-168 -137.5t-106 -197.5t-38.5 -230.5q0 -163 73 -299.5t218 -236.5z" />
    <glyph glyph-name="mu" unicode="&#x3bc;" horiz-adv-x="1251" 
d="M268 -371h-205l197 1399h201l-82 -594q-10 -59 -10 -106q0 -193 204 -193q63 0 134 31.5t127 83.5l108 778h201l-105 -735q-8 -58 -8 -80q0 -32 17.5 -49t56.5 -21l74 -6l2 -53l-279 -104h-45l-35 161q-67 -70 -160.5 -115.5t-187.5 -45.5q-154 0 -223 94l24 -400z" />
    <glyph glyph-name="pi" unicode="&#x3c0;" horiz-adv-x="1318" 
d="M406 0h-181l-20 55l217 789h-148l-104 -105l-51 19l108 243q50 27 129 27h709q87 0 129 53l61 78l52 -12l-107 -303h-227q-39 -379 -39 -561q0 -51 27 -73t98 -28l63 -6v-55l-184 -121q-87 0 -134.5 31.5t-47.5 89.5q0 83 57 397l53 326h-340z" />
    <glyph glyph-name="Wgrave" unicode="&#x1e80;" horiz-adv-x="2041" 
d="M1270 1520h-64l-295 292l9 52h219zM594 23l-119 -43l-225 1228q-9 51 -25 72.5t-57 38.5l-68 29l9 55h524l-8 -55l-70 -25q-57 -21 -73.5 -35t-16.5 -37q0 -15 8 -65l154 -871l493 1057l123 33l215 -1088l375 863q29 62 29 86q0 19 -13.5 31.5t-52.5 25.5l-72 25l9 55
h440l-8 -55l-86 -31q-40 -15 -66 -41.5t-49 -75.5l-530 -1177l-119 -43l-225 1110z" />
    <glyph glyph-name="wgrave" unicode="&#x1e81;" horiz-adv-x="1679" 
d="M1051 1188h-64l-295 293l8 51h220zM545 20l-131 -40q-101 579 -187 892h-16l-176 -116l-33 43q101 128 175 189t132 61q46 0 73 -25t44 -86q59 -219 131 -692l328 731l129 47q121 -436 178 -791q229 359 270 576l-65 127l8 47l174 64q22 -23 35.5 -62.5t13.5 -77.5
q0 -107 -105.5 -315t-351.5 -572l-122 -40q-63 380 -150 745z" />
    <glyph glyph-name="Wacute" unicode="&#x1e82;" horiz-adv-x="2041" 
d="M1178 1520h-66l221 344h221l-6 -52zM594 23l-119 -43l-225 1228q-9 51 -25 72.5t-57 38.5l-68 29l9 55h524l-8 -55l-70 -25q-57 -21 -73.5 -35t-16.5 -37q0 -15 8 -65l154 -871l493 1057l123 33l215 -1088l375 863q29 62 29 86q0 19 -13.5 31.5t-52.5 25.5l-72 25l9 55
h440l-8 -55l-86 -31q-40 -15 -66 -41.5t-49 -75.5l-530 -1177l-119 -43l-225 1110z" />
    <glyph glyph-name="wacute" unicode="&#x1e83;" horiz-adv-x="1679" 
d="M958 1188h-65l221 344h221l-6 -51zM545 20l-131 -40q-101 579 -187 892h-16l-176 -116l-33 43q101 128 175 189t132 61q46 0 73 -25t44 -86q59 -219 131 -692l328 731l129 47q121 -436 178 -791q229 359 270 576l-65 127l8 47l174 64q22 -23 35.5 -62.5t13.5 -77.5
q0 -107 -105.5 -315t-351.5 -572l-122 -40q-63 380 -150 745z" />
    <glyph glyph-name="Wdieresis" unicode="&#x1e84;" horiz-adv-x="2041" 
d="M1409 1569q-51 0 -82 30.5t-31 81.5q0 62 43 103t107 41q50 0 81.5 -31t31.5 -82q0 -61 -43.5 -102t-106.5 -41zM1008 1569q-51 0 -82 30.5t-31 81.5q0 62 42 103t105 41q51 0 83 -31t32 -82q0 -61 -43 -102t-106 -41zM594 23l-119 -43l-225 1228q-9 51 -25 72.5
t-57 38.5l-68 29l9 55h524l-8 -55l-70 -25q-57 -21 -73.5 -35t-16.5 -37q0 -15 8 -65l154 -871l493 1057l123 33l215 -1088l375 863q29 62 29 86q0 19 -13.5 31.5t-52.5 25.5l-72 25l9 55h440l-8 -55l-86 -31q-40 -15 -66 -41.5t-49 -75.5l-530 -1177l-119 -43l-225 1110z
" />
    <glyph glyph-name="wdieresis" unicode="&#x1e85;" horiz-adv-x="1679" 
d="M1190 1237q-51 0 -82 31t-31 82q0 61 42.5 102t107.5 41q50 0 81 -31t31 -82q0 -61 -43 -102t-106 -41zM788 1237q-51 0 -81.5 31t-30.5 82q0 61 42 102t105 41q51 0 83 -31t32 -82q0 -61 -43.5 -102t-106.5 -41zM545 20l-131 -40q-101 579 -187 892h-16l-176 -116
l-33 43q101 128 175 189t132 61q46 0 73 -25t44 -86q59 -219 131 -692l328 731l129 47q121 -436 178 -791q229 359 270 576l-65 127l8 47l174 64q22 -23 35.5 -62.5t13.5 -77.5q0 -107 -105.5 -315t-351.5 -572l-122 -40q-63 380 -150 745z" />
    <glyph glyph-name="Germandbls" unicode="&#x1e9e;" horiz-adv-x="1431" 
d="M942 -20q-101 0 -196 28.5t-158 79.5l61 258h56l30 -117q16 -61 72 -100t139 -39q89 0 144 47t55 125q0 42 -22 78.5t-53 62t-95 70.5q-98 69 -133.5 132.5t-30.5 142.5q124 45 192 136t68 203q0 101 -84.5 156t-208.5 55h-188l-182 -1298h-377l8 55l84 33
q51 20 71.5 43.5t26.5 69.5l139 1001q6 45 -7 69t-58 44l-76 33l8 55h594q233 0 358.5 -70t125.5 -209q0 -62 -22.5 -118t-50.5 -91.5t-74 -70.5t-72.5 -50t-65.5 -34q-6 -53 147 -158q40 -27 62.5 -44t52.5 -44.5t45.5 -52.5t27 -60t11.5 -75q0 -151 -119 -248.5
t-305 -97.5z" />
    <glyph glyph-name="Etilde" unicode="&#x1ebc;" horiz-adv-x="1355" 
d="M971 1552q-56 0 -150 70q-52 37 -76 48t-45 11q-72 0 -106 -118h-57q17 115 72 188.5t126 73.5q59 0 154 -68q51 -37 74.5 -49t42.5 -12q74 0 108 119h55q-15 -113 -71 -188t-127 -75zM1122 0h-1091l8 55l84 33q52 21 71 44.5t27 68.5l135 966q9 53 9 64q0 29 -15 47
t-55 37l-76 33l8 55h1078l-21 -324h-57l-43 107q-31 69 -63.5 90.5t-104.5 21.5h-424l-78 -538h328q47 0 72 16.5t51 65.5l43 86h55l-66 -459h-55l-14 94q-9 54 -32 73t-71 19h-323l-60 -415q-8 -66 -8 -76q0 -32 18.5 -46t61.5 -14h348q80 0 121.5 23t95.5 96l82 121h56z
" />
    <glyph glyph-name="etilde" unicode="&#x1ebd;" horiz-adv-x="1046" 
d="M791 1221q-58 0 -150 69q-52 37 -76 48.5t-45 11.5q-72 0 -106 -119h-58q17 115 72.5 188.5t126.5 73.5q59 0 154 -68q51 -37 74 -49t42 -12q75 0 109 119h55q-15 -113 -70.5 -187.5t-127.5 -74.5zM492 -20q-181 0 -289.5 121.5t-108.5 322.5q0 129 42.5 245t115.5 199
t174.5 132t214.5 49q141 0 227 -69.5t86 -182.5q0 -158 -150 -262.5t-378 -104.5q-65 0 -109 8q4 -154 67 -237.5t173 -83.5q159 0 332 159l33 -51q-86 -118 -198 -181.5t-232 -63.5zM760 803q0 58 -29 97.5t-82 53.5q-126 -11 -220.5 -136t-109.5 -302q18 -2 64 -2
q162 0 269.5 83t107.5 206z" />
    <glyph glyph-name="Ygrave" unicode="&#x1ef2;" horiz-adv-x="1267" 
d="M868 1520h-63l-295 292l8 52h219zM858 0h-579l6 55l98 31q55 18 76 44t28 71l48 325l-295 682q-26 60 -39 77.5t-47 31.5l-68 31l8 55h529l-9 -55l-71 -27q-46 -19 -64 -31t-18 -28q0 -30 18 -70l230 -530l346 524q39 56 39 76t-14 32.5t-56 26.5l-68 27l7 55h446l-8 -55
l-86 -33q-35 -13 -54 -31t-51 -63l-460 -678l-41 -297q-9 -59 -9 -76q0 -57 78 -84l88 -31z" />
    <glyph glyph-name="ygrave" unicode="&#x1ef3;" horiz-adv-x="1095" 
d="M723 1165h-64l-294 293l8 51h219zM63 -512q-117 0 -178 154l29 47q71 -19 111 -19q102 0 193 69t226 261q-112 576 -219 872l-14 2l-178 -118l-31 43q101 129 174 189.5t131 60.5q44 0 71.5 -25t47.5 -86q85 -268 166 -707q135 212 201.5 346.5t87.5 231.5l-66 125l10 49
l174 61q22 -23 36 -62t14 -77q0 -96 -98 -281.5t-361 -580.5q-218 -325 -325.5 -440t-201.5 -115z" />
    <glyph glyph-name="Ytilde" unicode="&#x1ef8;" horiz-adv-x="1267" 
d="M940 1552q-32 0 -65.5 16.5t-83.5 53.5q-52 37 -76 48t-45 11q-73 0 -107 -118h-57q17 115 72.5 188.5t126.5 73.5q58 0 153 -68q51 -37 74.5 -49t42.5 -12q74 0 108 119h56q-15 -113 -71 -188t-128 -75zM858 0h-579l6 55l98 31q55 18 76 44t28 71l48 325l-295 682
q-26 60 -39 77.5t-47 31.5l-68 31l8 55h529l-9 -55l-71 -27q-46 -19 -64 -31t-18 -28q0 -30 18 -70l230 -530l346 524q39 56 39 76t-14 32.5t-56 26.5l-68 27l7 55h446l-8 -55l-86 -33q-35 -13 -54 -31t-51 -63l-460 -678l-41 -297q-9 -59 -9 -76q0 -57 78 -84l88 -31z" />
    <glyph glyph-name="ytilde" unicode="&#x1ef9;" horiz-adv-x="1095" 
d="M795 1198q-56 0 -150 70q-52 37 -76 48t-45 11q-72 0 -106 -119h-58q17 115 72.5 188.5t126.5 73.5q60 0 154 -67q52 -38 74.5 -50t41.5 -12q75 0 109 119h55q-15 -113 -70.5 -187.5t-127.5 -74.5zM63 -512q-117 0 -178 154l29 47q71 -19 111 -19q102 0 193 69t226 261
q-112 576 -219 872l-14 2l-178 -118l-31 43q101 129 174 189.5t131 60.5q44 0 71.5 -25t47.5 -86q85 -268 166 -707q135 212 201.5 346.5t87.5 231.5l-66 125l10 49l174 61q22 -23 36 -62t14 -77q0 -96 -98 -281.5t-361 -580.5q-218 -325 -325.5 -440t-201.5 -115z" />
    <glyph glyph-name="endash" unicode="&#x2013;" horiz-adv-x="976" 
d="M885 561h-783l19 125h782z" />
    <glyph glyph-name="emdash" unicode="&#x2014;" horiz-adv-x="1738" 
d="M1647 561h-1545l19 125h1544z" />
    <glyph glyph-name="quoteleft" unicode="&#x2018;" horiz-adv-x="507" 
d="M270 1018q-39 0 -65.5 38.5t-26.5 94.5q0 109 94 225t252 201l39 -47q-176 -135 -176 -262q0 -34 20.5 -63t55.5 -44l-8 -49q-94 -57 -130 -75.5t-55 -18.5z" />
    <glyph glyph-name="quoteright" unicode="&#x2019;" horiz-adv-x="509" 
d="M201 1014l-37 49q174 133 174 260q0 73 -74 109l6 49q96 58 132 76t55 18q38 0 65 -39t27 -96q0 -107 -95 -223.5t-253 -202.5z" />
    <glyph glyph-name="quotesinglbase" unicode="&#x201a;" horiz-adv-x="505" 
d="M-25 -330l-36 49q174 133 174 261q0 72 -76 108l8 49q93 56 129.5 74t54.5 18q40 0 66.5 -38.5t26.5 -94.5q0 -108 -95 -225t-252 -201z" />
    <glyph glyph-name="quotedblleft" unicode="&#x201c;" horiz-adv-x="894" 
d="M659 1020q-40 0 -66 38t-26 95q0 108 94.5 225t251.5 201l37 -49q-174 -133 -174 -260q0 -73 76 -109l-8 -49q-93 -55 -130 -73.5t-55 -18.5zM270 1020q-40 0 -66 38t-26 95q0 108 94.5 225t251.5 201l39 -49q-176 -132 -176 -260q0 -72 76 -109l-8 -49
q-91 -55 -128.5 -73.5t-56.5 -18.5z" />
    <glyph glyph-name="quotedblright" unicode="&#x201d;" horiz-adv-x="876" 
d="M190 1016l-36 47q174 133 174 262q0 34 -19.5 63t-54.5 46l6 47q97 58 132.5 76t53.5 18q38 0 65.5 -39t27.5 -96q0 -107 -95.5 -223t-253.5 -201zM580 1016l-37 47q174 133 174 262q0 73 -76 109l8 47q96 57 132 75.5t53 18.5q40 0 66 -39t26 -96q0 -108 -94 -224
t-252 -200z" />
    <glyph glyph-name="quotedblbase" unicode="&#x201e;" horiz-adv-x="894" 
d="M365 -330l-37 49q174 133 174 261q0 71 -76 108l8 49q92 56 128.5 74t55.5 18q40 0 66.5 -38.5t26.5 -94.5q0 -108 -94.5 -225t-251.5 -201zM-25 -330l-36 49q174 133 174 261q0 72 -76 108l8 49q93 56 129.5 74t54.5 18q40 0 66.5 -38.5t26.5 -94.5q0 -108 -95 -225
t-252 -201z" />
    <glyph glyph-name="dagger" unicode="&#x2020;" horiz-adv-x="1089" 
d="M436 -422h-45l41 907l6 56l117 395l-328 -59h-53l29 200h53l309 -55l-6 330l8 51h205l-6 -51l-96 -330l325 55h52l-29 -200h-53l-310 59l4 -395l-8 -56z" />
    <glyph glyph-name="daggerdbl" unicode="&#x2021;" horiz-adv-x="1093" 
d="M522 -387h-205l7 51l96 320l-326 -56h-51l29 199h51l311 -57l-2 411l6 54l119 413l-328 -59h-53l29 198h53l307 -55l-6 320l8 51h207l-8 -51l-94 -320l325 55h52l-29 -198h-53l-312 59l4 -413l-8 -54l-119 -411l330 57h53l-30 -199h-51l-310 56l6 -320z" />
    <glyph glyph-name="bullet" unicode="&#x2022;" horiz-adv-x="763" 
d="M373 449q-97 0 -159 62t-62 159q0 120 84 202t208 82q95 0 158.5 -63t63.5 -158q0 -121 -84 -202.5t-209 -81.5z" />
    <glyph glyph-name="ellipsis" unicode="&#x2026;" horiz-adv-x="1611" 
d="M1282 -25q-55 0 -90 35.5t-35 91.5q0 69 47.5 115.5t118.5 46.5q54 0 89.5 -35.5t35.5 -89.5q0 -69 -48 -116.5t-118 -47.5zM176 -25q-55 0 -90 35.5t-35 91.5q0 69 47.5 115.5t118.5 46.5q54 0 90.5 -35.5t36.5 -89.5q0 -69 -48 -116.5t-120 -47.5zM729 -25
q-54 0 -89.5 36t-35.5 91q0 69 47.5 115.5t118.5 46.5q54 0 90.5 -35.5t36.5 -89.5q0 -69 -48.5 -116.5t-119.5 -47.5z" />
    <glyph glyph-name="perthousand" unicode="&#x2030;" horiz-adv-x="2484" 
d="M408 657q-125 0 -199 81.5t-74 219.5q0 118 50.5 219.5t137 160.5t187.5 59q123 0 197.5 -81.5t74.5 -219.5q0 -181 -110.5 -310t-263.5 -129zM430 -2h-137l1001 1364h138zM418 737q88 0 151.5 109.5t63.5 261.5q0 97 -36 152t-99 55q-88 0 -150.5 -108.5t-62.5 -260.5
q0 -97 35.5 -153t97.5 -56zM1229 -18q-123 0 -198 82.5t-75 220.5q0 118 51 219t137.5 160t186.5 59q124 0 198.5 -82.5t74.5 -220.5q0 -180 -110.5 -309t-264.5 -129zM1989 -18q-124 0 -198.5 82.5t-74.5 220.5q0 118 51 219t137.5 160t186.5 59q124 0 198 -82.5t74 -220.5
q0 -118 -51 -219t-137 -160t-186 -59zM1241 63q88 0 150.5 108.5t62.5 262.5q0 96 -35 151.5t-98 55.5q-88 0 -151.5 -108.5t-63.5 -260.5q0 -96 36.5 -152.5t98.5 -56.5zM1999 63q89 0 152 108.5t63 262.5q0 96 -36 151.5t-99 55.5q-88 0 -150.5 -108.5t-62.5 -260.5
q0 -97 35.5 -153t97.5 -56z" />
    <glyph glyph-name="guilsinglleft" unicode="&#x2039;" horiz-adv-x="604" 
d="M432 121l-53 -29l-301 402l6 41l414 399l45 -29l-248 -393z" />
    <glyph glyph-name="guilsinglright" unicode="&#x203a;" horiz-adv-x="604" 
d="M522 494l-413 -402l-48 29l250 391l-139 393l55 29l299 -399z" />
    <glyph glyph-name="fraction" unicode="&#x2044;" horiz-adv-x="376" 
d="M-195 -2h-137l1002 1388h135z" />
    <glyph glyph-name="zero.superior" unicode="&#x2070;" horiz-adv-x="833" 
d="M430 612q-123 0 -192.5 84.5t-69.5 233.5q0 215 106 353t269 138q123 0 193.5 -84t70.5 -233q0 -214 -106.5 -353t-270.5 -139zM440 678q63 0 114.5 59.5t81.5 165t30 234.5q0 105 -34 162t-97 57q-96 0 -161 -131.5t-65 -325.5q0 -106 34 -163.5t97 -57.5z" />
    <glyph glyph-name="four.superior" unicode="&#x2074;" horiz-adv-x="755" 
d="M567 604h-129l27 191h-367l-2 41l455 567h129l-76 -533h109l-13 -75h-106zM532 1284l-325 -414h268z" />
    <glyph glyph-name="eight.superior" unicode="&#x2078;" horiz-adv-x="759" 
d="M389 608q-115 0 -183.5 45.5t-68.5 122.5q0 73 55 135.5t160 104.5q-72 46 -104.5 89.5t-32.5 94.5q0 94 82 157.5t209 63.5q102 0 163.5 -42t61.5 -115q0 -67 -50.5 -123.5t-143.5 -89.5q90 -50 130 -97.5t40 -105.5q0 -100 -89.5 -170t-228.5 -70zM485 1083
q66 38 98.5 84t32.5 93q0 45 -31.5 71.5t-88.5 26.5q-67 0 -109.5 -35.5t-42.5 -89.5q0 -37 32 -71.5t109 -78.5zM399 672q72 0 121 43t49 100q0 41 -40 80t-136 92q-139 -92 -139 -199q0 -52 40 -84t105 -32z" />
    <glyph glyph-name="Euro" unicode="&#x20ac;" horiz-adv-x="1228" 
d="M676 -16q-223 0 -353.5 129.5t-152.5 367.5h-164l17 107h149q3 95 31 215h-152l17 106h170q94 240 262.5 376t376.5 136q92 0 177 -20.5t191 -67.5l-12 -276h-53q-60 103 -82 137q-40 63 -93.5 90t-130.5 27q-130 0 -239.5 -106.5t-179.5 -295.5h424l-17 -106h-440
q-26 -111 -29 -215h441l-17 -107h-426q20 -183 102.5 -283t215.5 -100q69 0 118.5 16t96.5 54q76 61 170 213h53l-66 -272q-178 -125 -405 -125z" />
    <glyph glyph-name="indianrupee" unicode="&#x20b9;" horiz-adv-x="1200" 
d="M956 0h-325l-225 475q-27 58 -51 86.5t-54 34.5h-143l16 104h150q128 0 223 67.5t129 178.5h-467l14 105h467q-5 112 -79.5 179.5t-200.5 67.5h-154l16 105h908l-17 -105h-366q58 -38 89.5 -102.5t33.5 -144.5h210l-14 -105h-211q-35 -119 -134.5 -203.5t-248.5 -119.5
q63 -25 105 -111l151 -319q22 -44 47.5 -68t69.5 -43l68 -29z" />
    <glyph glyph-name="turkishlira" unicode="&#x20ba;" horiz-adv-x="1232" 
d="M426 0h-377l8 55l84 29q52 20 72.5 44.5t26.5 72.5l30 229l-182 -98l16 119l185 98l33 231l-185 -96l17 117l184 98l37 260q8 62 8 84q0 26 -16 43.5t-54 32.5l-75 29l8 55h540l-8 -55l-86 -29q-51 -20 -70.5 -44t-25.5 -73l-25 -182l371 199l-16 -117l-373 -199
l-33 -233l375 198l-18 -116l-373 -199l-62 -442h50q226 0 364 148t168 411h51l121 -152q-167 -518 -770 -518z" />
    <glyph glyph-name="ruble" unicode="&#x20bd;" horiz-adv-x="1234" 
d="M582 0h-562l7 55l86 29q52 20 72 44.5t26 72.5l12 88h-178l16 104h177l30 217h-176l14 105h177l61 440q10 65 10 88q0 26 -15.5 43.5t-53.5 32.5l-76 29l6 55h559q228 0 348.5 -85t120.5 -247q0 -206 -151.5 -333.5t-436.5 -127.5h-172l-30 -217h397l-16 -104h-396
q-14 -98 -14 -121q0 -28 17 -45.5t61 -36.5l86 -31zM580 1298l-82 -583h145q175 0 274 95.5t99 246.5q0 115 -74 178t-205 63h-157z" />
    <glyph glyph-name="litre" unicode="&#x2113;" horiz-adv-x="948" 
d="M522 -20q-106 0 -161 40.5t-81 143t-30 301.5q-86 -44 -172 -68l-21 60q98 40 193 102v571q0 194 84 300t235 106q124 0 196.5 -80t72.5 -219q0 -185 -106.5 -360t-297.5 -310v-123q0 -149 12.5 -222t42.5 -100.5t91 -27.5q63 0 113.5 15t115.5 47l27 -62
q-70 -52 -154.5 -83t-159.5 -31zM434 1130v-434q260 241 260 572q0 87 -32.5 133.5t-92.5 46.5q-72 0 -103.5 -72t-31.5 -246z" />
    <glyph glyph-name="trademark" unicode="&#x2122;" horiz-adv-x="1671" 
d="M952 739h-225v29l41 20q23 12 31.5 23.5t11.5 32.5l49 448q2 20 2 31q0 13 -7.5 20t-27.5 15l-34 14v31h200l189 -490l184 490h197v-31l-33 -14q-21 -8 -29 -15t-8 -20q0 -11 2 -31l53 -450q2 -22 9 -32t30 -22l37 -20v-29h-266v29l39 18q33 17 33 37q0 2 -0.5 4.5t-1 9
t-1.5 13.5l-45 405l-192 -514l-64 -4l-200 516l-45 -401q-2 -18 -2 -29q0 -21 32 -35l41 -20v-29zM563 739h-284v29l34 18q29 15 38 25.5t9 30.5v495h-102q-41 0 -80 -69l-33 -58h-28l12 193h586l12 -193h-31l-30 58q-21 37 -39.5 53t-42.5 16h-105v-495q0 -21 9 -31.5
t38 -24.5l37 -18v-29z" />
    <glyph glyph-name="Ohm" unicode="&#x2126;" horiz-adv-x="1642" 
d="M639 0h-557l10 311h51l58 -102q21 -39 44 -51.5t79 -12.5h239q-182 90 -288.5 248.5t-106.5 333.5q0 131 55.5 255.5t153.5 222t245.5 157t319.5 59.5q275 0 442.5 -145.5t167.5 -380.5q0 -140 -68.5 -282.5t-202.5 -267t-310 -200.5h239q56 0 82.5 12.5t59.5 51.5
l88 102h51l-78 -311h-559l-2 160q228 134 349.5 326t121.5 401q0 191 -108 308.5t-289 117.5q-116 0 -216.5 -51.5t-168 -137.5t-106 -197.5t-38.5 -230.5q0 -163 73 -299.5t218 -236.5z" />
    <glyph glyph-name="estimated" unicode="&#x212e;" horiz-adv-x="1544" 
d="M815 -10q-209 0 -372.5 93.5t-253 258.5t-89.5 373q0 134 51.5 260t140 222t217 154t273.5 58q190 0 341.5 -89.5t235 -246t83.5 -350.5h-1061v-451q79 -90 192 -139t248 -49q148 0 281 63.5t219 163.5l63 -57q-102 -123 -250 -193.5t-319 -70.5zM381 1135v-314h786v330
q-155 168 -387 168q-120 0 -223 -49.5t-176 -134.5z" />
    <glyph glyph-name="oneeighth" unicode="&#x215b;" horiz-adv-x="1673" 
d="M512 616h-381l4 37l72 27q37 12 49.5 25.5t17.5 42.5l62 440q6 40 6 49q0 41 -61 53l-56 10l6 35l240 88l27 -18l-88 -619q-7 -54 -7 -55q0 -18 10.5 -29t37.5 -22l67 -27zM371 -2h-138l1000 1388h137zM1225 -8q-116 0 -185 46.5t-69 123.5q0 72 55.5 134.5t159.5 104.5
q-135 85 -135 185q0 94 81 157.5t209 63.5q102 0 164 -43t62 -117q0 -67 -51.5 -123t-145.5 -88q91 -49 130.5 -96.5t39.5 -106.5q0 -101 -89 -171t-226 -70zM1319 467q131 74 131 176q0 47 -31 73.5t-90 26.5q-66 0 -107.5 -35.5t-41.5 -91.5q0 -36 31.5 -70t107.5 -79z
M1235 57q72 0 121 42.5t49 99.5q0 41 -40.5 81t-135.5 91q-139 -86 -139 -199q0 -52 40 -83.5t105 -31.5z" />
    <glyph glyph-name="partialdiff" unicode="&#x2202;" horiz-adv-x="1181" 
d="M430 -20q-166 0 -268.5 99.5t-102.5 260.5q0 151 75.5 281.5t208.5 209t290 78.5q153 0 248 -86q6 47 6 97q0 223 -127.5 356t-356.5 139l21 76q54 4 74 4q276 0 441 -171.5t165 -457.5q0 -138 -33.5 -271t-95 -243t-144 -194t-186.5 -131t-215 -47zM455 88
q82 0 166 76.5t148 208t89 282.5q-10 68 -67.5 112t-131.5 44q-104 0 -193.5 -71t-139.5 -184.5t-50 -238.5q0 -108 46.5 -168.5t132.5 -60.5z" />
    <glyph glyph-name="emptyset" unicode="&#x2205;" horiz-adv-x="1355" 
d="M199 -2h-131l165 170q-110 132 -110 317q0 122 49.5 236t134 198.5t203 135.5t248.5 51q172 0 305 -100l102 104h140l-170 -172q110 -129 110 -307q0 -125 -50.5 -241t-136 -201.5t-203 -137t-245.5 -51.5q-181 0 -309 104zM324 256l657 666q-98 79 -236 79
q-133 0 -248.5 -70t-183 -185.5t-67.5 -245.5q0 -136 78 -244zM623 106q134 0 249.5 73.5t181.5 192t66 249.5q0 133 -73 231l-662 -666q104 -80 238 -80z" />
    <glyph glyph-name="increment" unicode="&#x2206;" horiz-adv-x="1433" 
d="M1268 0h-1245l6 51l747 1340l131 30l369 -1368zM756 1145l-578 -1039h866z" />
    <glyph glyph-name="product" unicode="&#x220f;" horiz-adv-x="1710" 
d="M604 -291h-538l6 55l84 33q53 21 72.5 44.5t25.5 68.5l182 1294q13 86 13 99q0 35 -19.5 47t-73.5 12h-114l14 108h1466l-14 -108h-115q-66 0 -86.5 -21t-31.5 -94l-181 -1284q-10 -68 -10 -82q0 -29 15.5 -48t52.5 -36l78 -33l-9 -55h-538l6 55l84 33q52 22 72 45t26 68
l205 1452h-602l-197 -1397q-10 -68 -10 -84q0 -29 15.5 -48t52.5 -36l77 -33z" />
    <glyph glyph-name="summation" unicode="&#x2211;" horiz-adv-x="1355" 
d="M1047 -262h-1059l14 104l608 740l-393 778l14 104h1053l-22 -329h-56l-49 102q-39 77 -73.5 100t-108.5 23h-520l354 -701l-608 -737h608q79 0 127.5 25.5t105.5 101.5l60 80h55z" />
    <glyph glyph-name="minus" unicode="&#x2212;" horiz-adv-x="1114" 
d="M1010 635h-871l17 125h872z" />
    <glyph glyph-name="radical" unicode="&#x221a;" horiz-adv-x="1331" 
d="M602 0h-76l-307 733h-184l8 58l266 153h56l266 -643l641 1276h125z" />
    <glyph glyph-name="infinity" unicode="&#x221e;" horiz-adv-x="1548" 
d="M393 322q-120 0 -191 83t-71 220q0 183 106 313.5t261 130.5q97 0 175.5 -70t131.5 -202q109 139 208.5 205.5t198.5 66.5q117 0 186.5 -80.5t69.5 -214.5q0 -121 -48 -225t-131 -165.5t-181 -61.5q-102 0 -187 68t-137 192q-110 -134 -205 -197t-186 -63zM393 473
q151 0 346 242q-47 95 -118.5 147.5t-151.5 52.5q-107 0 -175.5 -75.5t-68.5 -186.5q0 -82 46 -131t122 -49zM1135 473q103 0 170 78t67 188q0 81 -44.5 128.5t-119.5 47.5q-80 0 -163 -60.5t-193 -199.5q126 -182 283 -182z" />
    <glyph glyph-name="integral" unicode="&#x222b;" horiz-adv-x="993" 
d="M127 -512q-108 0 -205 51l64 271h57q31 -135 52.5 -175.5t64.5 -40.5q58 0 91.5 78.5t61.5 280.5l158 1161q29 217 126.5 319.5t268.5 102.5q114 0 205 -51l-61 -271h-58q-31 134 -53 175t-65 41q-59 0 -92.5 -78.5t-59.5 -278.5l-158 -1163q-29 -216 -127 -319
t-270 -103z" />
    <glyph glyph-name="approxequal" unicode="&#x2248;" horiz-adv-x="1138" 
d="M788 733q-83 0 -194 62q-102 61 -168 61q-90 0 -199 -98l-59 86q143 137 270 137q84 0 193 -61q51 -25 69.5 -34t49 -18.5t55.5 -9.5q95 0 201 100l57 -86q-145 -139 -275 -139zM745 399q-86 0 -194 64q-57 32 -93 45.5t-73 13.5q-91 0 -201 -96l-59 84q145 139 272 139
q80 0 193 -61q62 -33 98.5 -47.5t73.5 -14.5q94 0 201 101l59 -86q-148 -142 -277 -142z" />
    <glyph glyph-name="notequal" unicode="&#x2260;" horiz-adv-x="1087" 
d="M264 246h-131l178 211h-196l16 127h283l178 213h-430l16 127h516l174 209h131l-174 -209h199l-18 -127h-285l-178 -213h434l-19 -127h-520z" />
    <glyph glyph-name="lessequal" unicode="&#x2264;" horiz-adv-x="1126" 
d="M979 563l-16 -123l-809 305l10 80l897 316l-17 -125l-675 -230zM934 244h-852l16 110h852z" />
    <glyph glyph-name="greaterequal" unicode="&#x2265;" horiz-adv-x="1128" 
d="M1038 745l-897 -305l19 123l674 223l-611 230l17 125l811 -316zM967 244h-852l16 110h854z" />
    <glyph glyph-name="lozenge" unicode="&#x25ca;" horiz-adv-x="1171" 
d="M571 0h-114l-310 705l504 698h117l309 -698zM293 705l239 -562l398 562l-242 555z" />
    <glyph glyph-name="M.ss01" horiz-adv-x="1951" 
d="M932 27l-119 -47l-332 1228l-133 -956q-8 -44 -8 -78q0 -31 17 -51t61 -37l80 -31l-6 -55h-461l8 55l86 33q51 20 70.5 43.5t25.5 69.5l135 966q6 43 6 62q0 34 -15.5 53t-51.5 35l-74 31l8 55h408l309 -1135l608 1135h420l-8 -55l-86 -33q-51 -21 -70.5 -45t-25.5 -70
l-133 -946q-11 -75 -11 -82q0 -29 15 -47t55 -37l76 -33l-8 -55h-539l6 55l86 33q51 21 71 45t28 68l139 1005z" />
    <glyph glyph-name="Q.ss02" horiz-adv-x="1538" 
d="M1288 -483q-201 0 -385 114.5t-381 362.5q-194 46 -301.5 194.5t-107.5 372.5q0 178 60.5 337.5t164.5 274.5t249.5 182.5t309.5 67.5q277 0 430.5 -156t153.5 -427q0 -224 -92 -414t-256 -308t-367 -134q187 -178 338.5 -247t302.5 -69q131 0 344 94l35 -55
q-133 -92 -262.5 -141t-235.5 -49zM711 90q148 0 273.5 103.5t197 276t71.5 370.5q0 214 -100 343.5t-270 129.5q-148 0 -273.5 -103.5t-197.5 -276.5t-72 -372q0 -214 100 -342.5t271 -128.5z" />
    <glyph glyph-name="idotaccent" horiz-adv-x="686" 
d="M436 1229q-53 0 -87 34.5t-34 86.5q0 68 48 113.5t114 45.5q52 0 87.5 -33.5t35.5 -86.5q0 -67 -47.5 -113.5t-116.5 -46.5zM252 -20q-37 0 -55.5 21.5t-18.5 55.5t15 129l108 680l-8 8l-207 -110l-20 49q130 124 218.5 180t153.5 56q37 0 56.5 -23t19.5 -57
q0 -26 -16 -127l-109 -680l8 -8l207 110l21 -51q-244 -233 -373 -233z" />
    <glyph glyph-name="zero.osf" horiz-adv-x="1210" 
d="M530 -20q-194 0 -313 125.5t-119 326.5q0 167 75.5 315.5t211.5 240t299 91.5q194 0 313 -125.5t119 -326.5q0 -167 -75.5 -315.5t-211.5 -240t-299 -91.5zM545 86q97 0 178.5 76.5t128.5 206t47 280.5q0 150 -60.5 237t-168.5 87q-97 0 -179 -76t-129 -206t-47 -281
q0 -150 61 -237t169 -87z" />
    <glyph glyph-name="one.osf" horiz-adv-x="796" 
d="M596 0h-539l6 55l91 33q51 21 71.5 44t26.5 69l84 606q8 70 8 78q0 30 -16 49.5t-52 34.5l-79 32l8 56h540l-8 -56l-90 -32q-50 -19 -71 -42.5t-27 -70.5l-82 -600q-10 -65 -10 -84q0 -30 14.5 -48.5t52.5 -35.5l80 -33z" />
    <glyph glyph-name="two.osf" horiz-adv-x="966" 
d="M750 0h-734l-2 63q191 168 311 286t182 201.5t83.5 137t21.5 109.5q0 71 -48.5 116t-127.5 45q-115 0 -254 -92l-32 49q77 75 179 119.5t199 44.5q138 0 222 -68t84 -182q0 -68 -24 -128.5t-88 -139t-179.5 -176t-296.5 -227.5h303q72 0 102.5 13.5t73.5 64.5l49 59h53z
" />
    <glyph glyph-name="three.osf" horiz-adv-x="894" 
d="M-94 -416l-17 60q324 118 479.5 263t155.5 288q0 102 -82 159.5t-233 57.5l-8 65q195 57 284.5 140.5t89.5 181.5q0 71 -50 114t-136 43q-111 0 -266 -86l-29 52q85 73 187.5 115t197.5 42q140 0 226 -67t86 -176q0 -111 -86 -205.5t-244 -147.5q133 -23 208.5 -96
t75.5 -180q0 -72 -34.5 -147t-105.5 -148.5t-169.5 -137t-235 -113.5t-294.5 -77z" />
    <glyph glyph-name="four.osf" horiz-adv-x="1058" 
d="M727 -385h-203l54 385h-590l-4 63l741 994h203l-129 -930h186l-18 -127h-187zM698 866l-553 -739h449z" />
    <glyph glyph-name="five.osf" horiz-adv-x="927" 
d="M-43 -416l-16 64q158 55 280 126t197.5 146.5t114 152.5t38.5 152q0 102 -76.5 158.5t-215.5 56.5q-79 0 -148 -14l-18 39l139 592h430q51 0 78 10t55 41l45 49h53l-73 -270h-527l-80 -340q97 20 177 20q177 0 281 -82t104 -227q0 -107 -56.5 -212.5t-161 -196t-265 -161
t-355.5 -104.5z" />
    <glyph glyph-name="six.osf" horiz-adv-x="1128" 
d="M500 -20q-187 0 -292.5 116.5t-105.5 321.5q0 176 65.5 342.5t180.5 297t279.5 218.5t353.5 110l6 -63q-261 -63 -438.5 -259.5t-216.5 -459.5q75 94 170.5 146.5t191.5 52.5q144 0 232 -88t88 -230q0 -98 -39 -190t-106 -161.5t-164 -111.5t-205 -42zM518 82
q115 0 198 107t83 247q0 104 -53.5 165t-145.5 61q-69 0 -142.5 -41t-138.5 -115q-6 -65 -6 -109q0 -141 56 -228t149 -87z" />
    <glyph glyph-name="seven.osf" horiz-adv-x="937" 
d="M276 -385h-208l8 55l723 1221h-406q-76 0 -108.5 -14.5t-73.5 -67.5l-53 -66h-54l78 316h758l31 -45z" />
    <glyph glyph-name="eight.osf" horiz-adv-x="1128" 
d="M492 -20q-190 0 -303 79t-113 211q0 118 95.5 227t270.5 181q-122 82 -174.5 151t-52.5 150q0 155 136 268t335 113q163 0 266 -78t103 -201q0 -109 -88.5 -202.5t-253.5 -151.5q155 -89 221.5 -167.5t66.5 -172.5q0 -80 -39 -154t-105.5 -130t-162 -89.5t-202.5 -33.5z
M635 776q116 70 171.5 148.5t55.5 156.5q0 79 -52.5 129t-137.5 50q-111 0 -182.5 -67t-71.5 -165q0 -64 46.5 -118t170.5 -134zM504 80q125 0 210 76t85 176q0 72 -61 136.5t-218 156.5q-252 -165 -252 -342q0 -91 64.5 -147t171.5 -56z" />
    <glyph glyph-name="nine.osf" horiz-adv-x="1138" 
d="M74 -410l-17 62q292 89 504 302t246 449q-59 -82 -153.5 -131t-194.5 -49q-155 0 -248.5 92t-93.5 244q0 136 68.5 256t188 192t259.5 72q189 0 297 -124.5t108 -340.5q0 -181 -71 -353t-196 -309t-306 -233.5t-391 -128.5zM541 352q147 0 276 154q8 60 8 125
q0 151 -58 245.5t-151 94.5q-121 0 -202.5 -111.5t-81.5 -265.5q0 -110 57 -176t152 -66z" />
    <glyph glyph-name="parenleft.cap" horiz-adv-x="681" 
d="M539 -248l-64 -47q-164 158 -256 379.5t-92 456.5q0 311 164 613.5t457 533.5l57 -52q-216 -225 -345.5 -535.5t-129.5 -608.5q0 -196 55 -389t154 -351z" />
    <glyph glyph-name="parenright.cap" horiz-adv-x="681" 
d="M-14 -295l-58 51q216 225 345.5 536t129.5 609q0 197 -54 388.5t-152 350.5l63 48q163 -158 254.5 -379.5t91.5 -456.5q0 -312 -164 -615t-456 -532z" />
    <glyph glyph-name="braceleft.cap" horiz-adv-x="794" 
d="M483 -281q-155 0 -240 65.5t-85 184.5q0 52 17 112.5t63 168.5q45 104 61 159t16 99q0 51 -38 82.5t-144 71.5l12 77q141 50 187.5 96t46.5 138q0 71 -14 178q-17 130 -17 178q0 157 109.5 254.5t300.5 97.5q72 0 149 -14l-12 -84q-196 0 -271 -50.5t-75 -184.5
q0 -54 12 -162q12 -123 12 -162q0 -137 -66 -210.5t-224 -113.5q113 -30 167 -84.5t54 -134.5q0 -42 -14.5 -92.5t-59.5 -171.5q-43 -119 -58.5 -172t-15.5 -88q0 -78 66 -109.5t227 -31.5l-12 -84q-99 -13 -154 -13z" />
    <glyph glyph-name="braceright.cap" horiz-adv-x="794" 
d="M88 -281q-60 0 -149 13l12 84q196 0 271 50.5t75 184.5q0 57 -12 162q-13 133 -13 162q0 137 67 210t226 113q-114 32 -167.5 86t-53.5 134q0 43 14 94.5t58 169.5q43 117 58 171t15 89q0 78 -65 109.5t-227 31.5l12 84q107 14 153 14q155 0 240.5 -66t85.5 -185
q0 -52 -16.5 -111t-63.5 -170q-46 -105 -62 -159.5t-16 -96.5q0 -52 38 -84t145 -72l-13 -78q-141 -50 -187 -95.5t-46 -137.5q0 -68 14 -178q17 -130 17 -178q0 -157 -109.5 -254t-300.5 -97z" />
    <glyph glyph-name="bracketleft.cap" horiz-adv-x="739" 
d="M582 -274h-514l274 1943h514l-16 -102h-318l-243 -1741h317z" />
    <glyph glyph-name="bracketright.cap" horiz-adv-x="739" 
d="M449 -274h-515l17 100h315l246 1741h-317l14 102h514z" />
    <glyph glyph-name="caroncomb.alt" horiz-adv-x="237" 
d="M166 1141h-53l53 375h186l-6 -52z" />
    <glyph glyph-name="caron.alt" 
d="M547 1141h-53l53 375h186l-6 -52z" />
    <glyph glyph-name="dotaccentcomb.i" horiz-adv-x="331" 
d="M264 1229q-53 0 -87 34.5t-34 86.5q0 68 48 113.5t114 45.5q52 0 87.5 -33.5t35.5 -86.5q0 -67 -47.5 -113.5t-116.5 -46.5z" />
    <glyph glyph-name="ITF" horiz-adv-x="3561" 
d="M225 0v1434h443v-1434h-443zM760 1016v418h442v-418h-442zM1292 0v1434h445v-1434h-445zM1827 1016v418h442v-418h-442zM2359 0v1434h445v-1434h-445zM2894 1016v418h442v-418h-442zM2894 506v420h442v-420h-442z" />
    </font>
</defs>
</svg>
