<?xml version="1.0" standalone="no"?>
<!DOCTYPE svg PUBLIC "-//W3C//DTD SVG 1.1//EN" "http://www.w3.org/Graphics/SVG/1.1/DTD/svg11.dtd" >
<svg xmlns="http://www.w3.org/2000/svg" xmlns:xlink="http://www.w3.org/1999/xlink" version="1.1">
<metadata>
Created by FontForge 20170731 at Fri Mar 20 05:56:08 2015
 By Aleksey,,,
Copyright (c) 2011 Thomas Lincoln. Published by Canada Type. All rights reserved.
</metadata>
<defs>
<font id="" horiz-adv-x="1474" >
  <font-face 
    font-family=""
    font-weight="400"
    font-stretch="normal"
    units-per-em="2048"
    panose-1="2 0 0 0 0 0 0 0 0 0"
    ascent="1536"
    descent="-512"
    x-height="1331"
    cap-height="1331"
    bbox="-14 -436 2839 1939"
    underline-thickness="0"
    underline-position="0"
    unicode-range="U+0020-FB04"
  />
<missing-glyph horiz-adv-x="1163" 
d="M1063 0h-961v1356h961v-1356zM930 125v1106h-694v-1106h694z" />
    <glyph glyph-name="uniFB00" unicode="FF" horiz-adv-x="1933" 
d="M305 1333h535v-45q-31 8 -209 8h-285v-559h334q111 0 147 6l2 -49q-31 6 -135 6h-348v-467q2 -115 6 -180h-41l-6 180v1100zM1272 1333h534v-45q-31 8 -209 8h-284v-559h334q111 0 147 6l2 -49q-31 6 -135 6h-348v-467q2 -115 6 -180h-41l-6 180v1100z" />
    <glyph glyph-name="uniFB01" unicode="FI" horiz-adv-x="1542" 
d="M305 1333h535v-45q-31 8 -209 8h-285v-559h334q111 0 147 6l2 -49q-31 6 -135 6h-348v-467q2 -115 6 -180h-41l-6 180v1100zM1313 229q0 -76 4 -176h-41l-4 176v875q2 139 8 227h41l-8 -227v-875z" />
    <glyph glyph-name="uniFB02" unicode="FL" horiz-adv-x="1947" 
d="M305 1333h535v-45q-31 8 -209 8h-285v-559h334q111 0 147 6l2 -49q-31 6 -135 6h-348v-467q2 -115 6 -180h-41l-6 180v1100zM1313 92h321q184 0 238 6v-43h-600v1032q4 172 10 244h41l-10 -244v-995z" />
    <glyph glyph-name="uniFB03" unicode="FFI" horiz-adv-x="2508" 
d="M305 1333h535v-45q-31 8 -209 8h-285v-559h334q111 0 147 6l2 -49q-31 6 -135 6h-348v-467q2 -115 6 -180h-41l-6 180v1100zM1272 1333h534v-45q-31 8 -209 8h-284v-559h334q111 0 147 6l2 -49q-31 6 -135 6h-348v-467q2 -115 6 -180h-41l-6 180v1100zM2279 229
q0 -76 5 -176h-41l-5 176v875q2 139 9 227h41l-9 -227v-875z" />
    <glyph glyph-name="uniFB04" unicode="FFL" horiz-adv-x="2914" 
d="M305 1333h535v-45q-31 8 -209 8h-285v-559h334q111 0 147 6l2 -49q-31 6 -135 6h-348v-467q2 -115 6 -180h-41l-6 180v1100zM1272 1333h534v-45q-31 8 -209 8h-284v-559h334q111 0 147 6l2 -49q-31 6 -135 6h-348v-467q2 -115 6 -180h-41l-6 180v1100zM2279 92h322
q184 0 238 6v-43h-601v1032q4 172 11 244h41l-11 -244v-995z" />
    <glyph glyph-name="F_uni0237.liga" unicode="FJ" horiz-adv-x="1540" 
d="M305 1333h535v-45q-31 8 -209 8h-285v-559h334q111 0 147 6l2 -49q-31 6 -135 6h-348v-467q2 -115 6 -180h-41l-6 180v1100zM1272 336l-2 721q2 176 8 274h41l-8 -274l2 -686q1 -243 -15 -387t-104 -240t-233 -125l-9 25q225 51 289 256q31 100 31 436z" />
    <glyph glyph-name="F_T.liga" unicode="FT" horiz-adv-x="2088" 
d="M305 1333h535v-45q-31 8 -209 8h-285v-559h334q111 0 147 6l2 -49q-31 6 -135 6h-348v-467q2 -115 6 -180h-41l-6 180v1100zM1845 1296h-260v-1067q0 -76 4 -176h-41l-4 176v1067h-305q-152 0 -182 -8v45h971v-45q-25 8 -183 8z" />
    <glyph glyph-name=".notdef" horiz-adv-x="1163" 
d="M1063 0h-961v1356h961v-1356zM930 125v1106h-694v-1106h694z" />
    <glyph glyph-name="glyph1" horiz-adv-x="0" 
 />
    <glyph glyph-name="glyph2" horiz-adv-x="681" 
 />
    <glyph glyph-name="space" unicode=" " horiz-adv-x="532" 
 />
    <glyph glyph-name="exclam" unicode="!" horiz-adv-x="548" 
d="M322 350h-41l14 836q2 84 8 151h41l-8 -151zM182 88q0 41 28 66.5t66 25.5t64.5 -25.5t26.5 -66.5t-27 -67.5t-65 -26.5t-65.5 26.5t-27.5 67.5zM328 88q0 57 -54 57q-23 0 -38 -15t-15 -42t16.5 -43t38.5 -16t37 16t15 43z" />
    <glyph glyph-name="quotedbl" unicode="&#x22;" horiz-adv-x="651" 
d="M236 1024h-31q0 102 10 307h31q-10 -201 -10 -307zM479 1024h-30q0 102 10 307h30q-10 -201 -10 -307z" />
    <glyph glyph-name="numbersign" unicode="#" horiz-adv-x="1277" 
d="M811 420h236l-13 -37h-229l-68 -330h-39l68 330h-334l-67 -330h-39l67 330h-241l12 37h235l115 553h-240l13 37h233l68 321h37l-66 -321h334l68 321h36l-65 -321h237l-12 -37h-233zM551 973l-113 -553h334l115 553h-336z" />
    <glyph glyph-name="dollar" unicode="$" horiz-adv-x="991" 
d="M528 -55q0 -57 4 -105h-40l-5 105v116q-18 -2 -51 -2q-150 0 -258 64v49q102 -76 246 -76q41 0 63 2v629q-283 92 -282 307q0 86 28.5 148.5t97 107.5t156.5 49v23q2 57 5 131h40l-4 -131v-23q182 -4 269 -73v-47q-84 78 -269 84v-545q352 -125 353 -361
q0 -154 -102.5 -232.5t-250.5 -98.5v-121zM840 395q0 211 -312 318v-611q135 18 223.5 89t88.5 204zM246 1052q0 -123 63.5 -183t177.5 -99v533q-92 -6 -166.5 -67t-74.5 -184z" />
    <glyph glyph-name="percent" unicode="%" horiz-adv-x="1675" 
d="M410 750q-123 0 -194 78.5t-71 206.5t68.5 214t188.5 86t201 -87t81 -214t-75.5 -205.5t-198.5 -78.5zM408 774q119 0 183 75t64 189t-71.5 193.5t-181.5 79.5t-169 -79t-59 -193t57.5 -189.5t176.5 -75.5zM1303 90q-123 0 -194 79t-71 207t68 214t188 86t201.5 -87
t81.5 -214t-75.5 -206t-198.5 -79zM1301 115q119 0 183 74.5t64 189.5t-71.5 193.5t-181.5 78.5t-169 -78.5t-59 -192.5t57.5 -189.5t176.5 -75.5zM506 53h-33l692 1266h33z" />
    <glyph glyph-name="ampersand" unicode="&#x26;" horiz-adv-x="1290" 
d="M524 25q-180 0 -263 99t-83 238t72 209t112.5 98.5t112.5 71.5q-152 201 -151 336q0 104 59 187.5t188 83.5q94 0 172 -64.5t78 -185.5t-73.5 -203t-212.5 -162q109 -135 409 -436q102 162 117 383h41q-35 -204 -62 -274t-69 -138q135 -131 227 -215h-59q-63 57 -193 183
q-160 -211 -422 -211zM219 351q0 -126 82 -208t225 -82q246 0 394 201q-297 297 -420 451q-135 -78 -208 -157t-73 -205zM780 1105q0 87 -62 146.5t-160 59.5t-145.5 -71t-47.5 -165q0 -123 147 -313q86 51 135 88t91 102.5t42 152.5z" />
    <glyph glyph-name="quotesingle" unicode="'" horiz-adv-x="407" 
d="M236 1024h-31q0 102 10 307h31q-10 -201 -10 -307z" />
    <glyph glyph-name="parenleft" unicode="(" horiz-adv-x="604" 
d="M252 647q0 -457 240 -794h-43q-238 328 -238 792q0 233 54.5 423.5t201.5 401.5h45q-139 -195 -199.5 -383t-60.5 -440z" />
    <glyph glyph-name="parenright" unicode=")" horiz-adv-x="602" 
d="M477 642q0 -230 -63.5 -409.5t-212.5 -379.5h-43q150 209 214 384t64 410q0 452 -301 823h45q162 -201 229.5 -399.5t67.5 -428.5z" />
    <glyph glyph-name="asterisk" unicode="*" horiz-adv-x="841" 
d="M440 797h-24v266l-226 -129l-10 16l228 131l-222 129l11 17l219 -127v256h24v-256l226 129l14 -21l-231 -127l233 -135l-8 -16l-234 135v-268z" />
    <glyph glyph-name="plus" unicode="+" horiz-adv-x="987" 
d="M852 705h-317v-336h-41v336h-330v36h330v314h41v-314h317v-36z" />
    <glyph glyph-name="comma" unicode="," horiz-adv-x="468" 
d="M250 37q31 0 31 36t-31 36t-31 -36t31 -36zM307 68q0 -121 -71 -181v27q43 39 43 111q-10 -11 -34 -11t-39.5 16.5t-15.5 42.5t15.5 43t44.5 17q57 1 57 -65z" />
    <glyph glyph-name="hyphen" unicode="-" horiz-adv-x="708" 
d="M539 651h-340v37h340v-37z" />
    <glyph glyph-name="period" unicode="." horiz-adv-x="471" 
d="M164 67q0 32 20.5 52t51 20t51 -20.5t20.5 -52.5t-20.5 -52t-51 -20t-51 20.5t-20.5 52.5zM274 66q0 45 -38.5 45t-38.5 -45q0 -18 11 -30.5t27.5 -12.5t27.5 12.5t11 30.5z" />
    <glyph glyph-name="slash" unicode="/" horiz-adv-x="876" 
d="M199 -41h-39l571 1479h41z" />
    <glyph glyph-name="zero" unicode="0" horiz-adv-x="1308" 
d="M656 55q450 0 450 624q0 372 -162 533q-115 115 -301 115q-152 0 -256 -123q-127 -156 -127 -528q0 -188 23.5 -297t89.5 -195q99 -129 283 -129zM1147 693q0 -337 -121 -505t-383 -168q-195 0 -309 148q-53 70 -81 168t-32 163.5t-4 178.5q0 387 135 547
q59 70 125 104.5t168 34.5q236 0 369 -167t133 -504z" />
    <glyph glyph-name="one" unicode="1" horiz-adv-x="751" 
d="M510 287q0 -125 4 -234h-41l-4 234v776q2 160 6 240q-281 -130 -336 -148l-30 -10v39q53 18 129 51l280 129l-8 -301v-776z" />
    <glyph glyph-name="two" unicode="2" horiz-adv-x="1077" 
d="M168 59v19q379 373 567 592q141 166 141 330t-104 253.5t-274 89.5t-305 -81v41q133 77 309 77t296 -97t120 -286q0 -98 -36 -177t-111 -167q-167 -196 -427 -456l-94 -97h375q207 0 293 13v-41q-89 -13 -240 -13h-510z" />
    <glyph glyph-name="three" unicode="3" horiz-adv-x="1073" 
d="M924 391q0 -168 -126 -266t-312 -98t-339 67v43q96 -45 160 -59.5t168 -14.5q182 0 297 95q111 88 111 246t-119 233.5t-326 89.5l-30 2v41q139 0 242.5 43t146.5 106.5t43 151.5q0 139 -100.5 200.5t-244.5 61.5t-270 -82v41q125 78 281 78t265.5 -76t109.5 -214
t-95.5 -227t-267.5 -103q406 -48 406 -359z" />
    <glyph glyph-name="four" unicode="4" horiz-adv-x="1236" 
d="M877 1174l-615 -689l615 -2v691zM918 444v-161q0 -127 4 -238h-41l-4 238v161h-701l744 840q0 -408 -2 -799h223l-2 -41h-221z" />
    <glyph glyph-name="five" unicode="5" horiz-adv-x="1019" 
d="M385 20q-111 0 -180 25l-25 10v37q84 -35 203 -35q229 0 346 109.5t117 279.5t-99.5 258.5t-261.5 88.5q-98 0 -198 -31v571h518v-37h-477v-485q86 18 164 18q193 0 294 -104t101 -274q0 -238 -189 -355q-125 -76 -313 -76z" />
    <glyph glyph-name="six" unicode="6" horiz-adv-x="1144" 
d="M983 420q0 168 -98.5 278.5t-262.5 110.5t-252.5 -103.5t-88.5 -267.5t89 -264q90 -100 244 -100t261.5 89t107.5 257zM1024 422q0 -188 -121 -286.5t-298 -98.5t-271 119q-63 82 -84 175t-21 220t13.5 229.5t53.5 213t100.5 191.5t165 133t237.5 52q39 0 80 -4v-37
q-49 4 -107 4t-132.5 -25.5t-149 -85t-129 -176t-76.5 -282.5q-2 -10 -15 -158q45 123 138.5 181.5t207.5 58.5q182 0 295 -118t113 -306z" />
    <glyph glyph-name="seven" unicode="7" horiz-adv-x="1013" 
d="M143 1300v37h830l-535 -1056q-82 -158 -110 -228h-45q37 86 118 246l506 1001h-764z" />
    <glyph glyph-name="eight" unicode="8" horiz-adv-x="1191" 
d="M596 729q-141 0 -233.5 -100.5t-92.5 -258.5t95 -240.5t257 -82.5t267.5 88t105.5 242t-105.5 253t-293.5 99zM606 1333q-129 0 -202.5 -84t-73.5 -209t74.5 -199.5t191.5 -74.5q182 0 259 89t77 185q0 141 -98.5 217t-227.5 76zM1036 354q0 -154 -120 -249t-304 -95
t-283.5 99t-99.5 241t63.5 249.5t190.5 148.5q-195 80 -194 284q0 147 84.5 242.5t234.5 95.5t257.5 -88t107.5 -240q0 -119 -71 -193.5t-185 -98.5q154 -25 236.5 -133.5t82.5 -262.5z" />
    <glyph glyph-name="nine" unicode="9" horiz-adv-x="1144" 
d="M944 913q0 174 -95 298t-292 124q-98 0 -168 -42t-114 -135t-44 -229q0 -137 79 -233t246 -96t277.5 103.5t110.5 209.5zM377 76q152 0 266.5 61.5t208.5 217.5t102 440q-63 -113 -170.5 -173.5t-228.5 -60.5q-172 0 -268.5 106.5t-96.5 285.5t97 299t287 120t304.5 -136
t114.5 -398q0 -338 -103.5 -505t-227 -230.5t-291.5 -63.5q-59 0 -88 4v37q37 -4 94 -4z" />
    <glyph glyph-name="colon" unicode=":" horiz-adv-x="483" 
d="M170 67.5q0 30.5 21.5 52t50 21.5t50 -21.5t21.5 -52t-21.5 -52t-50 -21.5t-50 21.5t-21.5 52zM281 68q0 45 -39 45t-39 -45t39 -45t39 45zM170 817q0 31 21.5 52.5t50 21.5t50 -21.5t21.5 -52.5t-21.5 -52.5t-50 -21.5t-50 21.5t-21.5 52.5zM281 817q0 45 -39 45
t-39 -45t39 -45t39 45z" />
    <glyph glyph-name="semicolon" unicode=";" horiz-adv-x="487" 
d="M172 817q0 31 20.5 52.5t51 21.5t51 -21.5t20.5 -52.5t-20.5 -52.5t-51 -21.5t-51 21.5t-20.5 52.5zM283 817q0 45 -39 45t-39 -45t39 -45t39 45zM258 32.5q31 0.5 31 36.5t-31 35.5t-31 -36.5t31 -35.5zM315 63q0 -121 -71 -180v27q43 41 43 110q-10 -10 -34 -10
t-39 16.5t-15 42.5t15 43t44 17q57 0 57 -66z" />
    <glyph glyph-name="less" unicode="&#x3c;" horiz-adv-x="1034" 
d="M866 1104l17 -35q-18 -14 -27 -18l-627 -324q586 -299 645 -328l41 -12l-14 -35q-33 8 -61 25l-688 350q688 356 696 363z" />
    <glyph glyph-name="equal" unicode="=" horiz-adv-x="1267" 
d="M1079 899h-862v37h862v-37zM1079 514h-862v37h862v-37z" />
    <glyph glyph-name="greater" unicode="&#x3e;" horiz-adv-x="1034" 
d="M201 379l-33 -14l-21 32l33 13l619 315q-565 297 -582 305l-39 23l15 34l34 -20l654 -342z" />
    <glyph glyph-name="question" unicode="?" horiz-adv-x="866" 
d="M285 86q0 41 26.5 67.5t64.5 26.5t65.5 -26.5t27.5 -67.5t-27.5 -67.5t-65.5 -26.5t-64.5 26.5t-26.5 67.5zM428 87q0 26 -15.5 41t-36.5 15t-35.5 -16t-14.5 -41t15 -41t36 -16t36 16t15 42zM352 432q0 130 90 224t180.5 187t90.5 228t-92.5 198.5t-233.5 63.5t-256 -61
l-2 41q115 57 273 57t255 -76.5t97 -223.5t-90.5 -241t-180.5 -184t-90 -213q0 -17 6 -35h-41q-6 18 -6 35z" />
    <glyph glyph-name="at" unicode="@" horiz-adv-x="1634" 
d="M1460 797q0 203 -167 353t-429 150t-437 -168.5t-175 -463.5q0 -250 154 -421t428 -171t448 151l27 -26q-63 -61 -187.5 -111.5t-283.5 -50.5q-287 0 -457 173t-170 471t185.5 477t455.5 179t459.5 -150.5t189.5 -396.5t-120.5 -355t-239.5 -109q-129 0 -129 137
q-31 -45 -92.5 -89t-143.5 -44q-117 0 -184.5 82t-67.5 238t87 277.5t255 121.5t234 -201l41 162h43l-117 -475q-14 -57 -14 -84q0 -88 92 -88q133 0 224 114.5t91 317.5zM565 654q0 -150 58.5 -217.5t152.5 -67.5t164 60t98 173l49 195q-6 43 -24.5 86t-70.5 87t-128 44
q-141 0 -220 -105t-79 -255z" />
    <glyph glyph-name="A" unicode="A" horiz-adv-x="1245" 
d="M338 459l-98 -244q-37 -88 -60 -162h-43q25 72 62 164l436 1069l465 -1091q14 -35 67 -142h-41q-35 57 -73 148l-111 258h-604zM633 1184l-279 -688h572z" />
    <glyph glyph-name="B" unicode="B" horiz-adv-x="1128" 
d="M946 404q0 156 -110.5 223t-317.5 67q-129 0 -170 -2v-575q106 -18 191 -19q231 0 319 75t88 231zM907 1024q0 156 -94 212t-274 56q-82 0 -166 -14l-25 -6v-537l141 -8q310 0 364 103.5t54 193.5zM987 393q0 -172 -107.5 -249.5t-351.5 -77.5q-66 0 -190 16l-31 6v1217
q180 20 254 20q157 0 272 -57t115 -238q0 -131 -74.5 -220t-238.5 -99q352 -11 352 -318z" />
    <glyph glyph-name="C" unicode="C" horiz-adv-x="1376" 
d="M881 31q-178 0 -420 130.5t-242 532.5q0 297 169 483.5t439 186.5q125 0 251.5 -32.5t187.5 -63.5l-9 -45q-59 37 -184 70.5t-246 33.5q-244 0 -405.5 -171t-161.5 -460q0 -147 48 -263t119 -182.5t191 -124.5t283 -58q88 0 193.5 35.5t140.5 62.5v-43q-176 -92 -354 -92
z" />
    <glyph glyph-name="D" unicode="D" horiz-adv-x="1527" 
d="M1354 676q0 354 -262 522q-158 102 -463 102q-141 0 -281 -20v-1184q139 -12 242 -12q385 0 574.5 163t189.5 429zM1395 680q0 -297 -208 -465t-607 -168l-269 14v1254q172 23 287 22q268 -1 431 -65t264.5 -223.5t101.5 -368.5z" />
    <glyph glyph-name="E" unicode="E" horiz-adv-x="1038" 
d="M903 55h-598v1278h543v-45q-31 8 -203 8h-299v-559h344q78 0 141 6v-49q-31 6 -126 6h-359v-608h410q117 0 147 4v-41z" />
    <glyph glyph-name="F" unicode="F" horiz-adv-x="966" 
d="M305 1333h535v-45q-31 8 -209 8h-285v-559h334q111 0 147 6l2 -49q-31 6 -135 6h-348v-467q2 -115 6 -180h-41l-6 180v1100z" />
    <glyph glyph-name="G" unicode="G" horiz-adv-x="1470" 
d="M889 1327q-276 0 -458.5 -151.5t-182.5 -454.5q0 -252 113.5 -398.5t242.5 -205t304 -58.5t352 103v356q0 74 6 135h41l-7 -135v-381q-201 -115 -378 -114q-371 0 -560 235q-156 195 -155 461q0 315 192.5 480t489.5 165q80 0 399 -53l-2 -45q-66 23 -188.5 42t-208.5 19
z" />
    <glyph glyph-name="H" unicode="H" horiz-adv-x="1490" 
d="M346 735h875v369q2 139 8 227h41l-8 -227v-875q0 -76 4 -176h-41l-4 176v469h-875v-469q0 -76 4 -176h-41l-4 176v875q2 139 8 227h41l-8 -227v-369z" />
    <glyph glyph-name="I" unicode="I" horiz-adv-x="575" 
d="M346 229q0 -76 4 -176h-41l-4 176v875q2 139 8 227h41l-8 -227v-875z" />
    <glyph glyph-name="J" unicode="J" horiz-adv-x="573" 
d="M305 336l-2 721q2 176 8 274h41l-8 -274l2 -686q0 -243 -15 -387t-103.5 -240t-233.5 -125l-8 25q225 51 288 256q31 100 31 436z" />
    <glyph glyph-name="K" unicode="K" horiz-adv-x="1155" 
d="M346 229q0 -76 4 -176h-41l-4 176v875q2 139 8 227h41l-8 -227v-875zM956 139l-487 590l422 524q53 66 70 78h55q-27 -20 -72 -80l-420 -522l486 -588q51 -63 77 -88h-55q-21 18 -76 86z" />
    <glyph glyph-name="L" unicode="L" horiz-adv-x="980" 
d="M346 92h322q184 0 237 6v-43h-600v1032q4 172 10 244h41l-10 -244v-995z" />
    <glyph glyph-name="M" unicode="M" horiz-adv-x="1796" 
d="M1614 53h-41q-12 45 -19 154l-59 889l-575 -1016l-594 1040l-56 -909l-6 -158h-37q2 96 6 164l64 1036l625 -1095l606 1073l67 -1020q7 -107 19 -158z" />
    <glyph glyph-name="N" unicode="N" horiz-adv-x="1607" 
d="M297 166q0 -58 4 -113h-37l-4 113v1130l1083 -1087v965q2 100 9 157h37l-9 -157v-1061l-1083 1087v-1034z" />
    <glyph glyph-name="O" unicode="O" horiz-adv-x="1587" 
d="M814 14q-278 0 -434.5 190.5t-156.5 483.5t154.5 482.5t432.5 189.5t462 -190.5t184 -477.5t-182 -482.5t-460 -195.5zM829 51q260 0 423 190.5t163 456.5t-171 445.5t-435 179.5t-404.5 -180t-140.5 -439t93.5 -399.5t207.5 -197t264 -56.5z" />
    <glyph glyph-name="P" unicode="P" horiz-adv-x="1064" 
d="M948 1008q0 -55 -4 -93t-28.5 -101.5t-68.5 -103.5t-136.5 -72t-221.5 -32q-37 0 -143 8v-421q0 -68 2 -140h-41l-2 140v1138l291 10q158 0 255 -97t97 -236zM498 639q411 0 411 344q0 126 -51 196t-118.5 100t-157.5 30l-236 -13v-649q131 -8 152 -8z" />
    <glyph glyph-name="Q" unicode="Q" horiz-adv-x="1587" 
d="M829 14q-293 0 -449.5 190.5t-156.5 483.5t154.5 482.5t432.5 189.5t462 -190.5t184 -481.5q0 -170 -69.5 -313.5t-190.5 -235.5q295 -219 553.5 -321.5t548.5 -102.5t489 82l2 -24q-83 -36 -221.5 -63t-259.5 -27q-319 0 -584.5 106.5t-558.5 325.5q-152 -101 -336 -101
zM829 51q260 0 423 190.5t163 456.5t-171 445.5t-435 179.5t-404.5 -180t-140.5 -439t93.5 -399.5t207.5 -197t264 -56.5z" />
    <glyph glyph-name="R" unicode="R" horiz-adv-x="1239" 
d="M1012 936q0 -117 -79 -223.5t-196 -116.5q41 -18 84 -69t152 -191t227 -283h-55l-338 430q-55 70 -97 88.5t-154 18.5t-208 4v-444q2 -72 4 -97h-41l-4 97v1183l248 8q102 0 178 -17t177.5 -98t101.5 -290zM971 932q0 225 -158 323q-86 53 -281 54l-184 -11v-671
q45 -2 354 -2q111 0 190 93t79 214z" />
    <glyph glyph-name="S" unicode="S" horiz-adv-x="966" 
d="M470 29q-152 0 -282 61v41q125 -65 278 -65t232.5 85t79.5 195t-69.5 199.5t-245.5 202.5q-231 147 -232 331q0 133 81.5 212t209.5 79t244 -41v-45q-86 51 -220 51t-204 -67.5t-70 -188.5q0 -156 211 -295q70 -45 98.5 -64.5t85 -67.5t104.5 -119.5t48 -195.5
t-98.5 -216t-250.5 -92z" />
    <glyph glyph-name="T" unicode="T" horiz-adv-x="1122" 
d="M879 1296h-261v-1067q0 -76 5 -176h-41l-4 176v1067h-306q-152 0 -182 -8v45h971v-45q-24 8 -182 8z" />
    <glyph glyph-name="U" unicode="U" 
d="M295 514v508q2 221 8 309h41l-8 -309v-530q0 -223 92 -324q109 -123 379 -123q303 0 379 221q31 92 31 240l-3 516q2 221 9 309h41l-9 -309l2 -526q0 -156 -34 -250q-88 -238 -422 -238q-367 0 -467 234q-39 90 -39 272z" />
    <glyph glyph-name="V" unicode="V" horiz-adv-x="1253" 
d="M664 205l311 749q123 293 178 377h41q-57 -92 -178 -379l-354 -850l-398 955q-90 209 -104 274h45q16 -61 106 -280z" />
    <glyph glyph-name="W" unicode="W" horiz-adv-x="1882" 
d="M1442 250l200 680q102 342 130 401h40q-45 -106 -135 -413l-229 -781l-471 1047l-469 -1055l-305 1038q-25 84 -37 164h43q6 -49 31 -141l278 -946l463 1038z" />
    <glyph glyph-name="X" unicode="X" horiz-adv-x="1126" 
d="M592 674l-266 -438q-53 -88 -99 -183h-55l397 656l-374 622h57q12 -45 131 -239l209 -347l201 330q100 168 165 256h46q-63 -88 -160 -239l-232 -381l279 -459q74 -123 129 -199h-53z" />
    <glyph glyph-name="Y" unicode="Y" horiz-adv-x="1103" 
d="M623 229q0 -76 4 -176h-41l-4 176v351l-338 565q-66 109 -94 186h47q14 -45 73 -149l338 -568l324 570q55 98 94 147h45q-45 -57 -96 -145l-352 -611v-346z" />
    <glyph glyph-name="Z" unicode="Z" horiz-adv-x="1116" 
d="M1012 53h-846l784 1241h-493q-287 0 -318 -8v45h881l-787 -1241h500q219 0 279 12v-49z" />
    <glyph glyph-name="bracketleft" unicode="[" horiz-adv-x="679" 
d="M592 1468h-275v-1548h275v-37h-316v1622h316v-37z" />
    <glyph glyph-name="backslash" unicode="\" horiz-adv-x="876" 
d="M717 -41h-39l-574 1479h41z" />
    <glyph glyph-name="bracketright" unicode="]" horiz-adv-x="677" 
d="M432 1468h-315v37h356v-1622h-356v37h315v1548z" />
    <glyph glyph-name="asciicircum" unicode="^" horiz-adv-x="931" 
d="M446 1401l351 -334l-25 -29l-323 310l-267 -295l-26 24z" />
    <glyph glyph-name="underscore" unicode="_" horiz-adv-x="1308" 
d="M1163 2h-989v37h989v-37z" />
    <glyph glyph-name="grave" unicode="`" horiz-adv-x="649" 
d="M188 1413l17 23l221 -211l-14 -21z" />
    <glyph glyph-name="a" unicode="a" horiz-adv-x="1245" 
d="M338 459l-98 -244q-37 -88 -60 -162h-43q25 72 62 164l436 1069l465 -1091q14 -35 67 -142h-41q-35 57 -73 148l-111 258h-604zM633 1184l-279 -688h572z" />
    <glyph glyph-name="b" unicode="b" horiz-adv-x="1128" 
d="M946 404q0 156 -110.5 223t-317.5 67q-129 0 -170 -2v-575q106 -18 191 -19q231 0 319 75t88 231zM907 1024q0 156 -94 212t-274 56q-82 0 -166 -14l-25 -6v-537l141 -8q310 0 364 103.5t54 193.5zM987 393q0 -172 -107.5 -249.5t-351.5 -77.5q-66 0 -190 16l-31 6v1217
q180 20 254 20q157 0 272 -57t115 -238q0 -131 -74.5 -220t-238.5 -99q352 -11 352 -318z" />
    <glyph glyph-name="c" unicode="c" horiz-adv-x="1376" 
d="M881 31q-178 0 -420 130.5t-242 532.5q0 297 169 483.5t439 186.5q125 0 251.5 -32.5t187.5 -63.5l-9 -45q-59 37 -184 70.5t-246 33.5q-244 0 -405.5 -171t-161.5 -460q0 -147 48 -263t119 -182.5t191 -124.5t283 -58q88 0 193.5 35.5t140.5 62.5v-43q-176 -92 -354 -92
z" />
    <glyph glyph-name="d" unicode="d" horiz-adv-x="1527" 
d="M1354 676q0 354 -262 522q-158 102 -463 102q-141 0 -281 -20v-1184q139 -12 242 -12q385 0 574.5 163t189.5 429zM1395 680q0 -297 -208 -465t-607 -168l-269 14v1254q172 23 287 22q268 -1 431 -65t264.5 -223.5t101.5 -368.5z" />
    <glyph glyph-name="e" unicode="e" horiz-adv-x="1038" 
d="M903 55h-598v1278h543v-45q-31 8 -203 8h-299v-559h344q78 0 141 6v-49q-31 6 -126 6h-359v-608h410q117 0 147 4v-41z" />
    <glyph glyph-name="f" unicode="f" horiz-adv-x="966" 
d="M305 1333h535v-45q-31 8 -209 8h-285v-559h334q111 0 147 6l2 -49q-31 6 -135 6h-348v-467q2 -115 6 -180h-41l-6 180v1100z" />
    <glyph glyph-name="g" unicode="g" horiz-adv-x="1470" 
d="M889 1327q-276 0 -458.5 -151.5t-182.5 -454.5q0 -252 113.5 -398.5t242.5 -205t304 -58.5t352 103v356q0 74 6 135h41l-7 -135v-381q-201 -115 -378 -114q-371 0 -560 235q-156 195 -155 461q0 315 192.5 480t489.5 165q80 0 399 -53l-2 -45q-66 23 -188.5 42t-208.5 19
z" />
    <glyph glyph-name="h" unicode="h" horiz-adv-x="1490" 
d="M346 735h875v369q2 139 8 227h41l-8 -227v-875q0 -76 4 -176h-41l-4 176v469h-875v-469q0 -76 4 -176h-41l-4 176v875q2 139 8 227h41l-8 -227v-369z" />
    <glyph glyph-name="i" unicode="i" horiz-adv-x="575" 
d="M346 229q0 -76 4 -176h-41l-4 176v875q2 139 8 227h41l-8 -227v-875z" />
    <glyph glyph-name="j" unicode="j" horiz-adv-x="573" 
d="M305 336l-2 721q2 176 8 274h41l-8 -274l2 -686q0 -243 -15 -387t-103.5 -240t-233.5 -125l-8 25q225 51 288 256q31 100 31 436z" />
    <glyph glyph-name="k" unicode="k" horiz-adv-x="1155" 
d="M346 229q0 -76 4 -176h-41l-4 176v875q2 139 8 227h41l-8 -227v-875zM956 139l-487 590l422 524q53 66 70 78h55q-27 -20 -72 -80l-420 -522l486 -588q51 -63 77 -88h-55q-21 18 -76 86z" />
    <glyph glyph-name="l" unicode="l" horiz-adv-x="980" 
d="M346 92h322q184 0 237 6v-43h-600v1032q4 172 10 244h41l-10 -244v-995z" />
    <glyph glyph-name="m" unicode="m" horiz-adv-x="1796" 
d="M1614 53h-41q-12 45 -19 154l-59 889l-575 -1016l-594 1040l-56 -909l-6 -158h-37q2 96 6 164l64 1036l625 -1095l606 1073l67 -1020q7 -107 19 -158z" />
    <glyph glyph-name="n" unicode="n" horiz-adv-x="1607" 
d="M297 166q0 -58 4 -113h-37l-4 113v1130l1083 -1087v965q2 100 9 157h37l-9 -157v-1061l-1083 1087v-1034z" />
    <glyph glyph-name="o" unicode="o" horiz-adv-x="1587" 
d="M814 14q-278 0 -434.5 190.5t-156.5 483.5t154.5 482.5t432.5 189.5t462 -190.5t184 -477.5t-182 -482.5t-460 -195.5zM829 51q260 0 423 190.5t163 456.5t-171 445.5t-435 179.5t-404.5 -180t-140.5 -439t93.5 -399.5t207.5 -197t264 -56.5z" />
    <glyph glyph-name="p" unicode="p" horiz-adv-x="1064" 
d="M948 1008q0 -55 -4 -93t-28.5 -101.5t-68.5 -103.5t-136.5 -72t-221.5 -32q-37 0 -143 8v-421q0 -68 2 -140h-41l-2 140v1138l291 10q158 0 255 -97t97 -236zM498 639q411 0 411 344q0 126 -51 196t-118.5 100t-157.5 30l-236 -13v-649q131 -8 152 -8z" />
    <glyph glyph-name="q" unicode="q" horiz-adv-x="1587" 
d="M829 14q-293 0 -449.5 190.5t-156.5 483.5t154.5 482.5t432.5 189.5t462 -190.5t184 -481.5q0 -170 -69.5 -313.5t-190.5 -235.5q295 -219 553.5 -321.5t548.5 -102.5t489 82l2 -24q-83 -36 -221.5 -63t-259.5 -27q-319 0 -584.5 106.5t-558.5 325.5q-152 -101 -336 -101
zM829 51q260 0 423 190.5t163 456.5t-171 445.5t-435 179.5t-404.5 -180t-140.5 -439t93.5 -399.5t207.5 -197t264 -56.5z" />
    <glyph glyph-name="r" unicode="r" horiz-adv-x="1239" 
d="M1012 936q0 -117 -79 -223.5t-196 -116.5q41 -18 84 -69t152 -191t227 -283h-55l-338 430q-55 70 -97 88.5t-154 18.5t-208 4v-444q2 -72 4 -97h-41l-4 97v1183l248 8q102 0 178 -17t177.5 -98t101.5 -290zM971 932q0 225 -158 323q-86 53 -281 54l-184 -11v-671
q45 -2 354 -2q111 0 190 93t79 214z" />
    <glyph glyph-name="s" unicode="s" horiz-adv-x="966" 
d="M470 29q-152 0 -282 61v41q125 -65 278 -65t232.5 85t79.5 195t-69.5 199.5t-245.5 202.5q-231 147 -232 331q0 133 81.5 212t209.5 79t244 -41v-45q-86 51 -220 51t-204 -67.5t-70 -188.5q0 -156 211 -295q70 -45 98.5 -64.5t85 -67.5t104.5 -119.5t48 -195.5
t-98.5 -216t-250.5 -92z" />
    <glyph glyph-name="t" unicode="t" horiz-adv-x="1122" 
d="M879 1296h-261v-1067q0 -76 5 -176h-41l-4 176v1067h-306q-152 0 -182 -8v45h971v-45q-24 8 -182 8z" />
    <glyph glyph-name="u" unicode="u" 
d="M295 514v508q2 221 8 309h41l-8 -309v-530q0 -223 92 -324q109 -123 379 -123q303 0 379 221q31 92 31 240l-3 516q2 221 9 309h41l-9 -309l2 -526q0 -156 -34 -250q-88 -238 -422 -238q-367 0 -467 234q-39 90 -39 272z" />
    <glyph glyph-name="v" unicode="v" horiz-adv-x="1253" 
d="M664 205l311 749q123 293 178 377h41q-57 -92 -178 -379l-354 -850l-398 955q-90 209 -104 274h45q16 -61 106 -280z" />
    <glyph glyph-name="w" unicode="w" horiz-adv-x="1882" 
d="M1442 250l200 680q102 342 130 401h40q-45 -106 -135 -413l-229 -781l-471 1047l-469 -1055l-305 1038q-25 84 -37 164h43q6 -49 31 -141l278 -946l463 1038z" />
    <glyph glyph-name="x" unicode="x" horiz-adv-x="1126" 
d="M592 674l-266 -438q-53 -88 -99 -183h-55l397 656l-374 622h57q12 -45 131 -239l209 -347l201 330q113 182 165 256h46q-63 -88 -160 -239l-232 -381l279 -459q74 -123 129 -199h-53z" />
    <glyph glyph-name="y" unicode="y" horiz-adv-x="1103" 
d="M623 229q0 -76 4 -176h-41l-4 176v351l-338 565q-66 109 -94 186h47q14 -45 73 -149l338 -568l324 570q55 98 94 147h45q-45 -57 -96 -145l-352 -611v-346z" />
    <glyph glyph-name="z" unicode="z" horiz-adv-x="1116" 
d="M1012 53h-846l784 1241h-493q-287 0 -318 -8v45h881l-787 -1241h500q219 0 279 12v-49z" />
    <glyph glyph-name="braceleft" unicode="{" horiz-adv-x="688" 
d="M328 498v-449q0 -74 30.5 -101.5t114.5 -27.5h129v-37h-129q-92 0 -139 33t-47 133v449q0 95 -51.5 126.5t-124.5 53.5q84 23 130 63.5t46 128.5v433q0 203 186 202h129v-37h-129q-145 0 -145 -165v-433q0 -84 -36 -127.5t-112 -66.5q70 -18 109 -57t39 -121z" />
    <glyph glyph-name="bar" unicode="|" horiz-adv-x="489" 
d="M287 -301h-41v1771h41v-1771z" />
    <glyph glyph-name="braceright" unicode="}" horiz-adv-x="692" 
d="M469 504v-459q0 -162 -166 -162h-188v37h184q66 0 97.5 27.5t31.5 97.5v459q0 104 119 170q-2 2 -13.5 9t-20.5 14.5t-26.5 21.5t-38 49t-20.5 80v485q0 135 -129 135h-184v37h188q166 0 166 -172v-485q0 -57 45 -102t102 -70q-57 -25 -102 -70t-45 -102z" />
    <glyph glyph-name="asciitilde" unicode="~" horiz-adv-x="1157" 
d="M822 1081q-71 0 -205 61.5t-177 61.5q-88 0 -250 -88l-12 23q186 98 268 98q51 0 181.5 -61.5t200.5 -61.5t184 66l16 -21q-135 -78 -206 -78z" />
    <glyph glyph-name="uni00A0" unicode="&#xa0;" horiz-adv-x="532" 
 />
    <glyph glyph-name="exclamdown" unicode="&#xa1;" horiz-adv-x="491" 
d="M252 647h41l14 -835q2 -66 8 -152h-41l-8 152zM154 909q0 41 27.5 68t65.5 27t64.5 -27t26.5 -68t-26.5 -66.5t-64.5 -25.5t-65.5 25.5t-27.5 66.5zM299 909q0 27 -15.5 43.5t-36.5 16.5t-37.5 -16.5t-16.5 -43t15 -42t38 -15.5q53 0 53 57z" />
    <glyph glyph-name="cent" unicode="&#xa2;" horiz-adv-x="1122" 
d="M176 736q0 179 109.5 313.5t318.5 134.5q68 0 141 -13l60 189l35 -12l-60 -185q53 -10 187 -47v-43q-78 33 -197 57l-270 -843q98 -35 223 -35t246 74v-41q-119 -70 -250 -70t-230 37l-75 -240l-35 11l76 241q-129 57 -204 175t-75 297zM602 1149q-164 0 -274.5 -107.5
t-110.5 -314.5q0 -313 250 -426l266 836q-74 12 -131 12z" />
    <glyph glyph-name="sterling" unicode="&#xa3;" horiz-adv-x="1036" 
d="M473 498q0 39 -10 69h-240v37h226q-10 31 -102.5 194t-92.5 265q0 143 90 225t238 82t264 -70v-40q-100 74 -248 74t-225.5 -72t-77.5 -182t93 -274.5t106 -201.5h213v-37h-201q8 -21 8 -79t-29.5 -137t-58.5 -120l-31 -41q43 -2 149.5 -59t184.5 -57t168 53l25 18v-45
q-109 -63 -196 -63t-195.5 58.5t-159.5 58.5q-106 0 -129 -101h-41q23 117 149 137q123 160 123 308z" />
    <glyph glyph-name="currency" unicode="&#xa4;" horiz-adv-x="1302" 
d="M672 248q-166 0 -277 104l-166 -166l-18 19l168 168q-115 121 -115 305t80 305l-154 156l19 18l149 -153q114 147 298 147t305 -121l124 127l19 -18l-125 -127q115 -131 115 -342t-133 -328l131 -127l-19 -18l-133 129q-102 -78 -268 -78zM1057 700q0 192 -116.5 305
t-278.5 113t-259.5 -120t-97.5 -302t101.5 -298.5t276.5 -116.5t274.5 113.5t99.5 305.5z" />
    <glyph glyph-name="yen" unicode="&#xa5;" horiz-adv-x="1257" 
d="M657 463h-424v37h424v80l-55 92h-369v37h347l-261 436q-66 109 -94 186h47q14 -45 74 -149l283 -473h106l260 475q55 98 95 147h45q-45 -57 -97 -145l-266 -477h303v-37h-323l-54 -97v-75h377v-37h-377v-234q0 -76 4 -176h-40l-5 176v234zM649 672l35 -58l31 58h-66z" />
    <glyph glyph-name="brokenbar" unicode="&#xa6;" horiz-adv-x="507" 
d="M295 762h-41v706h41v-706zM254 401h41v-702h-41v702z" />
    <glyph glyph-name="dieresis" unicode="&#xa8;" horiz-adv-x="747" 
d="M127 1192q0 31 18.5 50.5t47 19.5t47 -19.5t18.5 -50.5t-18.5 -48.5t-47 -17.5t-47 17.5t-18.5 48.5zM192.5 1153q34.5 0 34.5 41t-34.5 41t-34.5 -41t34.5 -41zM489 1192q0 31 18.5 50.5t47.5 19.5t47.5 -19.5t18.5 -50.5t-18.5 -48.5t-47.5 -17.5t-47.5 17.5
t-18.5 48.5zM555 1153q35 0 35 41t-35 41t-35 -41t35 -41z" />
    <glyph glyph-name="copyright" unicode="&#xa9;" horiz-adv-x="1601" 
d="M1425 684q0 258 -186 443.5t-440 185.5t-431.5 -184.5t-177.5 -444.5t181.5 -441.5t435.5 -181.5t436 182.5t182 440.5zM1458 683q0 -271 -190.5 -460.5t-461.5 -189.5t-459.5 191.5t-188.5 461.5t191.5 462.5t457.5 192.5t458.5 -193.5t192.5 -464.5zM823 1040
q-150 0 -228.5 -92t-78.5 -256t108.5 -254t258.5 -90q102 0 164 41v-31q-76 -35 -168 -34q-170 0 -282 100t-112 275t91.5 270.5t252.5 95.5q105 0 207 -33l37 -10l-6 -29q-94 47 -244 47z" />
    <glyph glyph-name="guillemotleft" unicode="&#xab;" horiz-adv-x="878" 
d="M385 330l-223 288l205 271l24 -19l-194 -254l209 -270zM676 330l-223 288l204 271l25 -19l-195 -254l209 -270z" />
    <glyph glyph-name="logicalnot" unicode="&#xac;" horiz-adv-x="1253" 
d="M1044 514q0 -76 5 -176h-41l-4 176v186h-799v41q39 -4 100 -4h598q90 0 141 4v-227z" />
    <glyph glyph-name="uni00AD" unicode="&#xad;" horiz-adv-x="708" 
d="M539 651h-340v37h340v-37z" />
    <glyph glyph-name="registered" unicode="&#xae;" horiz-adv-x="1601" 
d="M987 852q0 106 -58.5 157.5t-152.5 51.5l-131 -8v-400h143q199 0 199 199zM1016 856q0 -178 -154 -217q25 -4 72 -64t168 -215h-39l-166 215q-23 31 -44.5 42.5t-70.5 11.5h-137v-207q0 -53 2 -62h-31q-2 6 -2 60v661l162 6q119 0 179.5 -63t60.5 -168zM1425 684
q0 258 -186 443.5t-440 185.5t-431.5 -184.5t-177.5 -444.5t181.5 -441.5t435.5 -181.5t436 182.5t182 440.5zM1458 683q0 -271 -190.5 -460.5t-461.5 -189.5t-459.5 191.5t-188.5 461.5t191.5 462.5t457.5 192.5t458.5 -193.5t192.5 -464.5z" />
    <glyph glyph-name="macron" unicode="&#xaf;" horiz-adv-x="827" 
d="M700 1178h-544v36h544v-36z" />
    <glyph glyph-name="degree" unicode="&#xb0;" horiz-adv-x="897" 
d="M727 1149q0 121 -80 203t-192.5 82t-175 -80t-62.5 -204t62.5 -202t184.5 -78t192.5 79t70.5 200zM465 834q-135 0 -212 87t-77 222t70 231t206 96t226 -93t90 -229t-84 -225t-219 -89z" />
    <glyph glyph-name="plusminus" unicode="&#xb1;" horiz-adv-x="1230" 
d="M1061 604h-406v-334h-41v334h-415v37h415v315h41v-315h406v-37zM1061 72h-862v37h862v-37z" />
    <glyph glyph-name="acute" unicode="&#xb4;" horiz-adv-x="647" 
d="M444 1436l17 -23l-223 -209l-15 21z" />
    <glyph glyph-name="mu" unicode="&#xb5;" horiz-adv-x="1597" 
d="M223 688q0 293 154.5 482.5t432.5 189.5t462 -190.5t184 -481.5q0 -170 -70.5 -314.5t-191.5 -236.5q141 -111 261 -171t267 -109l-55 -21q-147 53 -258 112.5t-246 164.5q-150 -98 -334 -99q-293 0 -449.5 190.5t-156.5 483.5zM829 51q260 0 423 190.5t163 456.5
t-171 445.5t-435 179.5t-404.5 -180t-140.5 -439t93.5 -399.5t207.5 -197t264 -56.5z" />
    <glyph glyph-name="paragraph" unicode="&#xb6;" horiz-adv-x="1042" 
d="M801 43h-37v1260h-334q-119 0 -192.5 -40t-73.5 -155q0 -166 239 -166q51 0 68 4v-903h-37v868q-16 -2 -39 -2q-270 0 -270 199q0 113 77 170t204 57h395v-1292z" />
    <glyph glyph-name="periodcentered" unicode="&#xb7;" horiz-adv-x="483" 
d="M170 710q0 32 21.5 52t50 20t50 -20t21.5 -52t-20.5 -52.5t-51 -20.5t-51 20.5t-20.5 52.5zM281 709q0 45 -39 45t-39 -45q0 -18 11 -30.5t27.5 -12.5t28 12.5t11.5 30.5z" />
    <glyph glyph-name="cedilla" unicode="&#xb8;" horiz-adv-x="528" 
d="M360 -258q0 -100 -147 -162l-10 14q121 55 121 148q0 53 -47.5 82t-141.5 47l154 117h24l-139 -109q86 -16 136 -52t50 -85z" />
    <glyph glyph-name="guillemotright" unicode="&#xbb;" horiz-adv-x="880" 
d="M512 889l209 -273l-215 -284l-25 18l205 268l-194 254zM221 889l209 -273l-215 -284l-25 18l205 268l-194 254z" />
    <glyph glyph-name="questiondown" unicode="&#xbf;" horiz-adv-x="837" 
d="M557 917.5q0 -40.5 -26.5 -67.5t-64.5 -27t-65.5 27t-27.5 67.5t27.5 67.5t65.5 27t64.5 -27t26.5 -67.5zM414 917q0 -26 15 -41.5t37 -15.5t36 16.5t14 41t-16 41t-36 16.5t-35 -16t-15 -42zM489 571q0 -130 -90 -223.5t-180 -187.5t-90 -229q0 -134 91.5 -197.5
t233.5 -63.5t257 62l2 -41q-115 -57 -273 -57t-255 76.5t-97 223.5t90 240.5t180.5 184t90.5 212.5q-1 17 -7 35h41q6 -18 6 -35z" />
    <glyph glyph-name="Agrave" unicode="&#xc0;" horiz-adv-x="1245" 
d="M487 1825l17 22l221 -211l-14 -20zM338 459l-98 -244q-37 -88 -60 -162h-43q25 72 62 164l436 1069l465 -1091q14 -35 67 -142h-41q-35 57 -73 148l-111 258h-604zM633 1184l-279 -688h572z" />
    <glyph glyph-name="Aacute" unicode="&#xc1;" horiz-adv-x="1245" 
d="M743 1847l17 -22l-223 -209l-15 20zM338 459l-98 -244q-37 -88 -60 -162h-43q25 72 62 164l436 1069l465 -1091q14 -35 67 -142h-41q-35 57 -73 148l-111 258h-604zM633 1184l-279 -688h572z" />
    <glyph glyph-name="Acircumflex" unicode="&#xc2;" horiz-adv-x="1245" 
d="M371 1589l252 223l280 -210l-18 -25l-264 201l-232 -207zM338 459l-98 -244q-37 -88 -60 -162h-43q25 72 62 164l436 1069l465 -1091q14 -35 67 -142h-41q-35 57 -73 148l-111 258h-604zM633 1184l-279 -688h572z" />
    <glyph glyph-name="Atilde" unicode="&#xc3;" horiz-adv-x="1245" 
d="M486 1661q-53 0 -150 -64l-14 21q8 4 24 14t23.5 14.5t22 12.5t41.5 21.5t73 13.5q47 0 141 -49t157 -49t124 61l16 -21q-84 -74 -150 -74t-160.5 49.5t-147.5 49.5zM338 459l-98 -244q-37 -88 -60 -162h-43q25 72 62 164l436 1069l465 -1091q14 -35 67 -142h-41
q-35 57 -73 148l-111 258h-604zM633 1184l-279 -688h572z" />
    <glyph glyph-name="Adieresis" unicode="&#xc4;" horiz-adv-x="1245" 
d="M373 1603.5q0 30.5 18.5 50t47 19.5t47 -19.5t18.5 -50t-18.5 -48t-47 -17.5t-47 17.5t-18.5 48zM438 1565q35 0 35 41t-35 41t-35 -41t35 -41zM735 1603.5q0 30.5 18.5 50t47 19.5t47 -19.5t18.5 -50t-18.5 -48t-47 -17.5t-47 17.5t-18.5 48zM801 1565q35 0 35 41
t-35 41t-35 -41t35 -41zM338 459l-98 -244q-37 -88 -60 -162h-43q25 72 62 164l436 1069l465 -1091q14 -35 67 -142h-41q-35 57 -73 148l-111 258h-604zM633 1184l-279 -688h572z" />
    <glyph glyph-name="Aring" unicode="&#xc5;" horiz-adv-x="1245" 
d="M809 1725q0 79 -52 132.5t-128 53.5t-128 -54.5t-52 -133.5t51 -128t129 -49t129 50t51 129zM630 1518q-89 0 -151.5 56t-62.5 146t59.5 154.5t150.5 64.5t153.5 -64.5t62.5 -153.5t-61.5 -146t-150.5 -57zM338 459l-98 -244q-37 -88 -60 -162h-43q25 72 62 164l436 1069
l465 -1091q14 -35 67 -142h-41q-35 57 -73 148l-111 258h-604zM633 1184l-279 -688h572z" />
    <glyph glyph-name="AE" unicode="&#xc6;" horiz-adv-x="1624" 
d="M1434 1333v-45q-31 8 -203 8h-385l74 -557h352q78 0 141 6v-49q-31 6 -127 6h-362l77 -610h340q117 0 148 4v-41h-524l-64 486h-522l-166 -381q-35 -89 -43 -107h-41q6 18 49 119l508 1161h748zM897 578l-92 720h-92l-318 -720h502z" />
    <glyph glyph-name="Ccedilla" unicode="&#xc7;" horiz-adv-x="1378" 
d="M827 1327q-244 0 -405.5 -171t-161.5 -460q0 -147 48 -263t119 -182.5t191 -124.5t283 -58q88 0 193.5 35.5t140.5 62.5v-43q-150 -80 -297 -90l-213 -166q86 -16 136 -52t50 -85q0 -100 -147 -162l-10 14q121 55 120 148q0 53 -47 81.5t-141 47.5l225 172h-26
q-182 0 -424 130.5t-242 532.5q0 297 169 483.5t439 186.5q125 0 251.5 -32.5t187.5 -63.5l-9 -45q-59 37 -184 70.5t-246 33.5z" />
    <glyph glyph-name="Egrave" unicode="&#xc8;" horiz-adv-x="1038" 
d="M360 1825l17 22l221 -211l-14 -20zM903 55h-598v1278h543v-45q-31 8 -203 8h-299v-559h344q78 0 141 6v-49q-31 6 -126 6h-359v-608h410q117 0 147 4v-41z" />
    <glyph glyph-name="Eacute" unicode="&#xc9;" horiz-adv-x="1038" 
d="M903 55h-598v1278h543v-45q-31 8 -203 8h-299v-559h344q78 0 141 6v-49q-31 6 -126 6h-359v-608h410q117 0 147 4v-41zM723 1847l16 -22l-223 -209l-14 20z" />
    <glyph glyph-name="Ecircumflex" unicode="&#xca;" horiz-adv-x="1038" 
d="M285 1589l252 223l280 -210l-18 -25l-264 201l-232 -207zM903 55h-598v1278h543v-45q-31 8 -203 8h-299v-559h344q78 0 141 6v-49q-31 6 -126 6h-359v-608h410q117 0 147 4v-41z" />
    <glyph glyph-name="Edieresis" unicode="&#xcb;" horiz-adv-x="1038" 
d="M297 1603.5q0 30.5 18.5 50t47 19.5t47 -19.5t18.5 -50t-18.5 -48t-47 -17.5t-47 17.5t-18.5 48zM362.5 1565q34.5 0 34.5 41t-34.5 41t-34.5 -41t34.5 -41zM659 1603.5q0 30.5 18.5 50t47.5 19.5t47.5 -19.5t18.5 -50t-18.5 -48t-47.5 -17.5t-47.5 17.5t-18.5 48z
M725 1565q35 0 35 41t-35 41t-35 -41t35 -41zM903 55h-598v1278h543v-45q-31 8 -203 8h-299v-559h344q78 0 141 6v-49q-31 6 -126 6h-359v-608h410q117 0 147 4v-41z" />
    <glyph glyph-name="Igrave" unicode="&#xcc;" horiz-adv-x="575" 
d="M346 229q0 -76 4 -176h-41l-4 176v875q2 139 8 227h41l-8 -227v-875zM111 1825l16 22l221 -211l-14 -20z" />
    <glyph glyph-name="Iacute" unicode="&#xcd;" horiz-adv-x="575" 
d="M346 229q0 -76 4 -176h-41l-4 176v875q2 139 8 227h41l-8 -227v-875zM408 1847l16 -22l-223 -209l-15 20z" />
    <glyph glyph-name="Icircumflex" unicode="&#xce;" horiz-adv-x="575" 
d="M346 229q0 -76 4 -176h-41l-4 176v875q2 139 8 227h41l-8 -227v-875zM37 1589l252 223l280 -210l-18 -25l-264 201l-232 -207z" />
    <glyph glyph-name="Idieresis" unicode="&#xcf;" horiz-adv-x="575" 
d="M346 229q0 -76 4 -176h-41l-4 176v875q2 139 8 227h41l-8 -227v-875zM41 1603.5q0 30.5 18.5 50t47 19.5t47 -19.5t18.5 -50t-18.5 -48t-47 -17.5t-47 17.5t-18.5 48zM106.5 1565q34.5 0 34.5 41t-34.5 41t-34.5 -41t34.5 -41zM403 1603.5q0 30.5 18.5 50t47.5 19.5
t47.5 -19.5t18.5 -50t-18.5 -48t-47.5 -17.5t-47.5 17.5t-18.5 48zM469 1565q35 0 35 41t-35 41t-35 -41t35 -41z" />
    <glyph glyph-name="Eth" unicode="&#xd0;" horiz-adv-x="1548" 
d="M332 700h-244v37h244v578q172 23 286 22q268 -1 431 -65t264.5 -223.5t101.5 -368.5q0 -297 -208 -465t-607 -168l-268 14v639zM1374 676q0 354 -262 522q-158 102 -463 102q-141 0 -280 -20v-543h374v-37h-374v-604q139 -12 241 -12q385 0 574.5 163t189.5 429z" />
    <glyph glyph-name="Ntilde" unicode="&#xd1;" horiz-adv-x="1607" 
d="M297 166q0 -58 4 -113h-37l-4 113v1130l1083 -1087v965q2 100 9 157h37l-9 -157v-1061l-1083 1087v-1034zM672 1661q-54 0 -148 -64l-14 21q16 8 35.5 20.5t34 20.5t41.5 21.5t73 13.5q47 0 141.5 -49t156.5 -49t124 61l17 -21q-85 -74 -151 -74t-161 49.5t-149 49.5z
" />
    <glyph glyph-name="Ograve" unicode="&#xd2;" horiz-adv-x="1587" 
d="M569 1825l17 22l221 -211l-14 -20zM814 14q-278 0 -434.5 190.5t-156.5 483.5t154.5 482.5t432.5 189.5t462 -190.5t184 -477.5t-182 -482.5t-460 -195.5zM829 51q260 0 423 190.5t163 456.5t-171 445.5t-435 179.5t-404.5 -180t-140.5 -439t93.5 -399.5t207.5 -197
t264 -56.5z" />
    <glyph glyph-name="Oacute" unicode="&#xd3;" horiz-adv-x="1587" 
d="M958 1847l17 -22l-223 -209l-15 20zM814 14q-278 0 -434.5 190.5t-156.5 483.5t154.5 482.5t432.5 189.5t462 -190.5t184 -477.5t-182 -482.5t-460 -195.5zM829 51q260 0 423 190.5t163 456.5t-171 445.5t-435 179.5t-404.5 -180t-140.5 -439t93.5 -399.5t207.5 -197
t264 -56.5z" />
    <glyph glyph-name="Ocircumflex" unicode="&#xd4;" horiz-adv-x="1587" 
d="M541 1589l252 223l280 -210l-18 -25l-264 201l-232 -207zM814 14q-278 0 -434.5 190.5t-156.5 483.5t154.5 482.5t432.5 189.5t462 -190.5t184 -477.5t-182 -482.5t-460 -195.5zM829 51q260 0 423 190.5t163 456.5t-171 445.5t-435 179.5t-404.5 -180t-140.5 -439
t93.5 -399.5t207.5 -197t264 -56.5z" />
    <glyph glyph-name="Otilde" unicode="&#xd5;" horiz-adv-x="1587" 
d="M656 1661q-53 0 -150 -64l-14 21q8 4 24 14t23.5 14.5t21.5 12.5t42.5 21.5t73.5 13.5q44 0 138 -49t158 -49t125 61l16 -21q-84 -74 -150 -74t-160.5 49.5t-147.5 49.5zM814 14q-278 0 -434.5 190.5t-156.5 483.5t154.5 482.5t432.5 189.5t462 -190.5t184 -477.5
t-182 -482.5t-460 -195.5zM829 51q260 0 423 190.5t163 456.5t-171 445.5t-435 179.5t-404.5 -180t-140.5 -439t93.5 -399.5t207.5 -197t264 -56.5z" />
    <glyph glyph-name="Odieresis" unicode="&#xd6;" horiz-adv-x="1587" 
d="M547 1603.5q0 30.5 18.5 50t47 19.5t47 -19.5t18.5 -50t-18.5 -48t-47 -17.5t-47 17.5t-18.5 48zM612.5 1565q34.5 0 34.5 41t-34.5 41t-34.5 -41t34.5 -41zM909 1603.5q0 30.5 18.5 50t47.5 19.5t47 -19.5t18 -50t-18 -48t-47 -17.5t-47.5 17.5t-18.5 48zM975 1565
q35 0 35 41t-35 41t-35 -41t35 -41zM814 14q-278 0 -434.5 190.5t-156.5 483.5t154.5 482.5t432.5 189.5t462 -190.5t184 -477.5t-182 -482.5t-460 -195.5zM829 51q260 0 423 190.5t163 456.5t-171 445.5t-435 179.5t-404.5 -180t-140.5 -439t93.5 -399.5t207.5 -197
t264 -56.5z" />
    <glyph glyph-name="multiply" unicode="&#xd7;" horiz-adv-x="1081" 
d="M838 399l-267 267l-295 -295l-28 28l295 295l-314 312l27 24l313 -309l283 283l29 -29l-283 -285l264 -264z" />
    <glyph glyph-name="Oslash" unicode="&#xd8;" horiz-adv-x="1591" 
d="M219 684q0 297 154.5 486.5t437.5 189.5q246 0 422 -158l145 172h47l-168 -194q195 -195 195 -485t-181 -485.5t-445 -195.5t-425 162l-143 -168h-45l166 195q-160 184 -160 481zM829 51q256 0 419 190.5t163 458.5t-178 449l-805 -942q145 -156 401 -156zM811 1323
q-270 0 -410.5 -180t-140.5 -458.5t143 -451.5l805 941q-166 149 -397 149z" />
    <glyph glyph-name="Ugrave" unicode="&#xd9;" 
d="M295 514v508q2 221 8 309h41l-8 -309v-530q0 -223 92 -324q109 -123 379 -123q303 0 379 221q31 92 31 240l-3 516q2 221 9 309h41l-9 -309l2 -526q0 -156 -34 -250q-88 -238 -422 -238q-367 0 -467 234q-39 90 -39 272zM541 1825l16 22l221 -211l-14 -20z" />
    <glyph glyph-name="Uacute" unicode="&#xda;" 
d="M295 514v508q2 221 8 309h41l-8 -309v-530q0 -223 92 -324q109 -123 379 -123q303 0 379 221q31 92 31 240l-3 516q2 221 9 309h41l-9 -309l2 -526q0 -156 -34 -250q-88 -238 -422 -238q-367 0 -467 234q-39 90 -39 272zM977 1847l16 -22l-223 -209l-14 20z" />
    <glyph glyph-name="Ucircumflex" unicode="&#xdb;" 
d="M295 514v508q2 221 8 309h41l-8 -309v-530q0 -223 92 -324q109 -123 379 -123q303 0 379 221q31 92 31 240l-3 516q2 221 9 309h41l-9 -309l2 -526q0 -156 -34 -250q-88 -238 -422 -238q-367 0 -467 234q-39 90 -39 272zM502 1589l252 223l280 -210l-18 -25l-264 201
l-232 -207z" />
    <glyph glyph-name="Udieresis" unicode="&#xdc;" 
d="M295 514v508q2 221 8 309h41l-8 -309v-530q0 -223 92 -324q109 -123 379 -123q303 0 379 221q31 92 31 240l-3 516q2 221 9 309h41l-9 -309l2 -526q0 -156 -34 -250q-88 -238 -422 -238q-367 0 -467 234q-39 90 -39 272zM502 1603.5q0 30.5 18.5 50t47 19.5t47 -19.5
t18.5 -50t-18.5 -48t-47 -17.5t-47 17.5t-18.5 48zM567 1565q35 0 35 41t-35 41t-35 -41t35 -41zM864 1603.5q0 30.5 18.5 50t47 19.5t47 -19.5t18.5 -50t-18.5 -48t-47 -17.5t-47 17.5t-18.5 48zM930 1565q35 0 35 41t-35 41t-35 -41t35 -41z" />
    <glyph glyph-name="Yacute" unicode="&#xdd;" horiz-adv-x="1103" 
d="M786 1847l17 -22l-223 -209l-15 20zM623 229q0 -76 4 -176h-41l-4 176v351l-338 565q-66 109 -94 186h47q14 -45 73 -149l338 -568l324 570q55 98 94 147h45q-45 -57 -96 -145l-352 -611v-346z" />
    <glyph glyph-name="Thorn" unicode="&#xde;" horiz-adv-x="1064" 
d="M592 1075q215 0 311 -160q47 -77 47 -153t-4 -115t-28.5 -102.5t-69.5 -103.5t-137.5 -71.5t-221.5 -31.5q-37 0 -143 8v-117q0 -76 4 -176h-41l-4 176v875q2 133 6 227h41l-6 -227v-47q176 18 246 18zM498 371q264 0 356 135q55 80 55 213t-76.5 228t-250.5 95
q-60 0 -197 -14l-39 -6v-643q131 -8 152 -8z" />
    <glyph glyph-name="germandbls" unicode="&#xdf;" horiz-adv-x="1933" 
d="M470 29q-152 0 -282 61v41q125 -65 278 -65t232.5 85t79.5 195t-69.5 199.5t-245.5 202.5q-231 147 -232 331q0 133 81.5 212t209.5 79t244 -41v-45q-86 51 -220 51t-204 -67.5t-70 -188.5q0 -156 211 -295q70 -45 98.5 -64.5t85 -67.5t104.5 -119.5t48 -195.5
t-98.5 -216t-250.5 -92zM1436 29q-152 0 -281 61v41q125 -65 277 -65t232.5 85t80.5 195t-69.5 199.5t-245.5 202.5q-231 147 -232 331q0 133 81 212t209 79t245 -41v-45q-87 51 -221 51t-203.5 -67.5t-69.5 -188.5q0 -156 211 -295q70 -45 98.5 -64.5t85 -67.5
t104.5 -119.5t48 -195.5t-99 -216t-251 -92z" />
    <glyph glyph-name="agrave" unicode="&#xe0;" horiz-adv-x="1245" 
d="M487 1825l17 22l221 -211l-14 -20zM338 459l-98 -244q-37 -88 -60 -162h-43q25 72 62 164l436 1069l465 -1091q14 -35 67 -142h-41q-35 57 -73 148l-111 258h-604zM633 1184l-279 -688h572z" />
    <glyph glyph-name="aacute" unicode="&#xe1;" horiz-adv-x="1245" 
d="M743 1847l17 -22l-223 -209l-15 20zM338 459l-98 -244q-37 -88 -60 -162h-43q25 72 62 164l436 1069l465 -1091q14 -35 67 -142h-41q-35 57 -73 148l-111 258h-604zM633 1184l-279 -688h572z" />
    <glyph glyph-name="acircumflex" unicode="&#xe2;" horiz-adv-x="1245" 
d="M371 1589l252 223l280 -210l-18 -25l-264 201l-232 -207zM338 459l-98 -244q-37 -88 -60 -162h-43q25 72 62 164l436 1069l465 -1091q14 -35 67 -142h-41q-35 57 -73 148l-111 258h-604zM633 1184l-279 -688h572z" />
    <glyph glyph-name="atilde" unicode="&#xe3;" horiz-adv-x="1245" 
d="M486 1661q-53 0 -150 -64l-14 21q8 4 24 14t23.5 14.5t22 12.5t41.5 21.5t73 13.5q47 0 141 -49t157 -49t124 61l16 -21q-84 -74 -150 -74t-160.5 49.5t-147.5 49.5zM338 459l-98 -244q-37 -88 -60 -162h-43q25 72 62 164l436 1069l465 -1091q14 -35 67 -142h-41
q-35 57 -73 148l-111 258h-604zM633 1184l-279 -688h572z" />
    <glyph glyph-name="adieresis" unicode="&#xe4;" horiz-adv-x="1245" 
d="M373 1603.5q0 30.5 18.5 50t47 19.5t47 -19.5t18.5 -50t-18.5 -48t-47 -17.5t-47 17.5t-18.5 48zM438 1565q35 0 35 41t-35 41t-35 -41t35 -41zM735 1603.5q0 30.5 18.5 50t47 19.5t47 -19.5t18.5 -50t-18.5 -48t-47 -17.5t-47 17.5t-18.5 48zM801 1565q35 0 35 41
t-35 41t-35 -41t35 -41zM338 459l-98 -244q-37 -88 -60 -162h-43q25 72 62 164l436 1069l465 -1091q14 -35 67 -142h-41q-35 57 -73 148l-111 258h-604zM633 1184l-279 -688h572z" />
    <glyph glyph-name="aring" unicode="&#xe5;" horiz-adv-x="1245" 
d="M809 1725q0 79 -52 132.5t-128 53.5t-128 -54.5t-52 -133.5t51 -128t129 -49t129 50t51 129zM630 1518q-89 0 -151.5 56t-62.5 146t59.5 154.5t150.5 64.5t153.5 -64.5t62.5 -153.5t-61.5 -146t-150.5 -57zM338 459l-98 -244q-37 -88 -60 -162h-43q25 72 62 164l436 1069
l465 -1091q14 -35 67 -142h-41q-35 57 -73 148l-111 258h-604zM633 1184l-279 -688h572z" />
    <glyph glyph-name="ae" unicode="&#xe6;" horiz-adv-x="1624" 
d="M1434 1333v-45q-31 8 -203 8h-385l74 -557h352q78 0 141 6v-49q-31 6 -127 6h-362l77 -610h340q117 0 148 4v-41h-524l-64 486h-522l-166 -381q-35 -89 -43 -107h-41q6 18 49 119l508 1161h748zM897 578l-92 720h-92l-318 -720h502z" />
    <glyph glyph-name="ccedilla" unicode="&#xe7;" horiz-adv-x="1378" 
d="M827 1327q-244 0 -405.5 -171t-161.5 -460q0 -147 48 -263t119 -182.5t191 -124.5t283 -58q88 0 193.5 35.5t140.5 62.5v-43q-150 -80 -297 -90l-213 -166q86 -16 136 -52t50 -85q0 -100 -147 -162l-10 14q121 55 120 148q0 53 -47 81.5t-141 47.5l225 172h-26
q-182 0 -424 130.5t-242 532.5q0 297 169 483.5t439 186.5q125 0 251.5 -32.5t187.5 -63.5l-9 -45q-59 37 -184 70.5t-246 33.5z" />
    <glyph glyph-name="egrave" unicode="&#xe8;" horiz-adv-x="1038" 
d="M360 1825l17 22l221 -211l-14 -20zM903 55h-598v1278h543v-45q-31 8 -203 8h-299v-559h344q78 0 141 6v-49q-31 6 -126 6h-359v-608h410q117 0 147 4v-41z" />
    <glyph glyph-name="eacute" unicode="&#xe9;" horiz-adv-x="1038" 
d="M903 55h-598v1278h543v-45q-31 8 -203 8h-299v-559h344q78 0 141 6v-49q-31 6 -126 6h-359v-608h410q117 0 147 4v-41zM723 1847l16 -22l-223 -209l-14 20z" />
    <glyph glyph-name="ecircumflex" unicode="&#xea;" horiz-adv-x="1038" 
d="M285 1589l252 223l280 -210l-18 -25l-264 201l-232 -207zM903 55h-598v1278h543v-45q-31 8 -203 8h-299v-559h344q78 0 141 6v-49q-31 6 -126 6h-359v-608h410q117 0 147 4v-41z" />
    <glyph glyph-name="edieresis" unicode="&#xeb;" horiz-adv-x="1038" 
d="M297 1603.5q0 30.5 18.5 50t47 19.5t47 -19.5t18.5 -50t-18.5 -48t-47 -17.5t-47 17.5t-18.5 48zM362.5 1565q34.5 0 34.5 41t-34.5 41t-34.5 -41t34.5 -41zM659 1603.5q0 30.5 18.5 50t47.5 19.5t47.5 -19.5t18.5 -50t-18.5 -48t-47.5 -17.5t-47.5 17.5t-18.5 48z
M725 1565q35 0 35 41t-35 41t-35 -41t35 -41zM903 55h-598v1278h543v-45q-31 8 -203 8h-299v-559h344q78 0 141 6v-49q-31 6 -126 6h-359v-608h410q117 0 147 4v-41z" />
    <glyph glyph-name="igrave" unicode="&#xec;" horiz-adv-x="575" 
d="M346 229q0 -76 4 -176h-41l-4 176v875q2 139 8 227h41l-8 -227v-875zM111 1825l16 22l221 -211l-14 -20z" />
    <glyph glyph-name="iacute" unicode="&#xed;" horiz-adv-x="575" 
d="M346 229q0 -76 4 -176h-41l-4 176v875q2 139 8 227h41l-8 -227v-875zM408 1847l16 -22l-223 -209l-15 20z" />
    <glyph glyph-name="icircumflex" unicode="&#xee;" horiz-adv-x="575" 
d="M346 229q0 -76 4 -176h-41l-4 176v875q2 139 8 227h41l-8 -227v-875zM37 1589l252 223l280 -210l-18 -25l-264 201l-232 -207z" />
    <glyph glyph-name="idieresis" unicode="&#xef;" horiz-adv-x="575" 
d="M346 229q0 -76 4 -176h-41l-4 176v875q2 139 8 227h41l-8 -227v-875zM41 1603.5q0 30.5 18.5 50t47 19.5t47 -19.5t18.5 -50t-18.5 -48t-47 -17.5t-47 17.5t-18.5 48zM106.5 1565q34.5 0 34.5 41t-34.5 41t-34.5 -41t34.5 -41zM403 1603.5q0 30.5 18.5 50t47.5 19.5
t47.5 -19.5t18.5 -50t-18.5 -48t-47.5 -17.5t-47.5 17.5t-18.5 48zM469 1565q35 0 35 41t-35 41t-35 -41t35 -41z" />
    <glyph glyph-name="eth" unicode="&#xf0;" horiz-adv-x="1548" 
d="M332 700h-244v37h244v578q172 23 286 22q268 -1 431 -65t264.5 -223.5t101.5 -368.5q0 -297 -208 -465t-607 -168l-268 14v639zM1374 676q0 354 -262 522q-158 102 -463 102q-141 0 -280 -20v-543h374v-37h-374v-604q139 -12 241 -12q385 0 574.5 163t189.5 429z" />
    <glyph glyph-name="ntilde" unicode="&#xf1;" horiz-adv-x="1607" 
d="M297 166q0 -58 4 -113h-37l-4 113v1130l1083 -1087v965q2 100 9 157h37l-9 -157v-1061l-1083 1087v-1034zM672 1661q-54 0 -148 -64l-14 21q16 8 35.5 20.5t34 20.5t41.5 21.5t73 13.5q47 0 141.5 -49t156.5 -49t124 61l17 -21q-85 -74 -151 -74t-161 49.5t-149 49.5z
" />
    <glyph glyph-name="ograve" unicode="&#xf2;" horiz-adv-x="1587" 
d="M569 1825l17 22l221 -211l-14 -20zM814 14q-278 0 -434.5 190.5t-156.5 483.5t154.5 482.5t432.5 189.5t462 -190.5t184 -477.5t-182 -482.5t-460 -195.5zM829 51q260 0 423 190.5t163 456.5t-171 445.5t-435 179.5t-404.5 -180t-140.5 -439t93.5 -399.5t207.5 -197
t264 -56.5z" />
    <glyph glyph-name="oacute" unicode="&#xf3;" horiz-adv-x="1587" 
d="M958 1847l17 -22l-223 -209l-15 20zM814 14q-278 0 -434.5 190.5t-156.5 483.5t154.5 482.5t432.5 189.5t462 -190.5t184 -477.5t-182 -482.5t-460 -195.5zM829 51q260 0 423 190.5t163 456.5t-171 445.5t-435 179.5t-404.5 -180t-140.5 -439t93.5 -399.5t207.5 -197
t264 -56.5z" />
    <glyph glyph-name="ocircumflex" unicode="&#xf4;" horiz-adv-x="1587" 
d="M541 1589l252 223l280 -210l-18 -25l-264 201l-232 -207zM814 14q-278 0 -434.5 190.5t-156.5 483.5t154.5 482.5t432.5 189.5t462 -190.5t184 -477.5t-182 -482.5t-460 -195.5zM829 51q260 0 423 190.5t163 456.5t-171 445.5t-435 179.5t-404.5 -180t-140.5 -439
t93.5 -399.5t207.5 -197t264 -56.5z" />
    <glyph glyph-name="otilde" unicode="&#xf5;" horiz-adv-x="1587" 
d="M656 1661q-53 0 -150 -64l-14 21q8 4 24 14t23.5 14.5t21.5 12.5t42.5 21.5t73.5 13.5q44 0 138 -49t158 -49t125 61l16 -21q-84 -74 -150 -74t-160.5 49.5t-147.5 49.5zM814 14q-278 0 -434.5 190.5t-156.5 483.5t154.5 482.5t432.5 189.5t462 -190.5t184 -477.5
t-182 -482.5t-460 -195.5zM829 51q260 0 423 190.5t163 456.5t-171 445.5t-435 179.5t-404.5 -180t-140.5 -439t93.5 -399.5t207.5 -197t264 -56.5z" />
    <glyph glyph-name="odieresis" unicode="&#xf6;" horiz-adv-x="1587" 
d="M547 1603.5q0 30.5 18.5 50t47 19.5t47 -19.5t18.5 -50t-18.5 -48t-47 -17.5t-47 17.5t-18.5 48zM612.5 1565q34.5 0 34.5 41t-34.5 41t-34.5 -41t34.5 -41zM909 1603.5q0 30.5 18.5 50t47.5 19.5t47 -19.5t18 -50t-18 -48t-47 -17.5t-47.5 17.5t-18.5 48zM975 1565
q35 0 35 41t-35 41t-35 -41t35 -41zM814 14q-278 0 -434.5 190.5t-156.5 483.5t154.5 482.5t432.5 189.5t462 -190.5t184 -477.5t-182 -482.5t-460 -195.5zM829 51q260 0 423 190.5t163 456.5t-171 445.5t-435 179.5t-404.5 -180t-140.5 -439t93.5 -399.5t207.5 -197
t264 -56.5z" />
    <glyph glyph-name="divide" unicode="&#xf7;" horiz-adv-x="1064" 
d="M891 700h-688v41q39 -4 100 -4h447q90 0 141 4v-41zM461 323.5q0 32.5 21.5 53t50 20.5t50 -20.5t21.5 -53t-21.5 -53t-50 -20.5t-50 20.5t-21.5 53zM571 324q0 45 -38.5 45t-38.5 -45t38.5 -45t38.5 45zM461 1072q0 32 20.5 53.5t51 21.5t51 -21.5t20.5 -53.5
t-20.5 -52.5t-51 -20.5t-51 20.5t-20.5 52.5zM571 1071q0 47 -38.5 47t-38.5 -47q0 -18 11 -30.5t27.5 -12.5t27.5 12.5t11 30.5z" />
    <glyph glyph-name="oslash" unicode="&#xf8;" horiz-adv-x="1591" 
d="M219 684q0 297 154.5 486.5t437.5 189.5q246 0 422 -158l145 172h47l-168 -194q195 -195 195 -485t-181 -485.5t-445 -195.5t-425 162l-143 -168h-45l166 195q-160 184 -160 481zM829 51q256 0 419 190.5t163 458.5t-178 449l-805 -942q145 -156 401 -156zM811 1323
q-270 0 -410.5 -180t-140.5 -458.5t143 -451.5l805 941q-166 149 -397 149z" />
    <glyph glyph-name="ugrave" unicode="&#xf9;" 
d="M295 514v508q2 221 8 309h41l-8 -309v-530q0 -223 92 -324q109 -123 379 -123q303 0 379 221q31 92 31 240l-3 516q2 221 9 309h41l-9 -309l2 -526q0 -156 -34 -250q-88 -238 -422 -238q-367 0 -467 234q-39 90 -39 272zM541 1825l16 22l221 -211l-14 -20z" />
    <glyph glyph-name="uacute" unicode="&#xfa;" 
d="M295 514v508q2 221 8 309h41l-8 -309v-530q0 -223 92 -324q109 -123 379 -123q303 0 379 221q31 92 31 240l-3 516q2 221 9 309h41l-9 -309l2 -526q0 -156 -34 -250q-88 -238 -422 -238q-367 0 -467 234q-39 90 -39 272zM977 1847l16 -22l-223 -209l-14 20z" />
    <glyph glyph-name="ucircumflex" unicode="&#xfb;" 
d="M295 514v508q2 221 8 309h41l-8 -309v-530q0 -223 92 -324q109 -123 379 -123q303 0 379 221q31 92 31 240l-3 516q2 221 9 309h41l-9 -309l2 -526q0 -156 -34 -250q-88 -238 -422 -238q-367 0 -467 234q-39 90 -39 272zM502 1589l252 223l280 -210l-18 -25l-264 201
l-232 -207z" />
    <glyph glyph-name="udieresis" unicode="&#xfc;" 
d="M295 514v508q2 221 8 309h41l-8 -309v-530q0 -223 92 -324q109 -123 379 -123q303 0 379 221q31 92 31 240l-3 516q2 221 9 309h41l-9 -309l2 -526q0 -156 -34 -250q-88 -238 -422 -238q-367 0 -467 234q-39 90 -39 272zM502 1603.5q0 30.5 18.5 50t47 19.5t47 -19.5
t18.5 -50t-18.5 -48t-47 -17.5t-47 17.5t-18.5 48zM567 1565q35 0 35 41t-35 41t-35 -41t35 -41zM864 1603.5q0 30.5 18.5 50t47 19.5t47 -19.5t18.5 -50t-18.5 -48t-47 -17.5t-47 17.5t-18.5 48zM930 1565q35 0 35 41t-35 41t-35 -41t35 -41z" />
    <glyph glyph-name="yacute" unicode="&#xfd;" horiz-adv-x="1103" 
d="M786 1847l17 -22l-223 -209l-15 20zM623 229q0 -76 4 -176h-41l-4 176v351l-338 565q-66 109 -94 186h47q14 -45 73 -149l338 -568l324 570q55 98 94 147h45q-45 -57 -96 -145l-352 -611v-346z" />
    <glyph glyph-name="thorn" unicode="&#xfe;" horiz-adv-x="1064" 
d="M592 1075q215 0 311 -160q47 -77 47 -153t-4 -115t-28.5 -102.5t-69.5 -103.5t-137.5 -71.5t-221.5 -31.5q-37 0 -143 8v-117q0 -76 4 -176h-41l-4 176v875q2 133 6 227h41l-6 -227v-47q176 18 246 18zM498 371q264 0 356 135q55 80 55 213t-76.5 228t-250.5 95
q-60 0 -197 -14l-39 -6v-643q131 -8 152 -8z" />
    <glyph glyph-name="ydieresis" unicode="&#xff;" horiz-adv-x="1103" 
d="M330 1603.5q0 30.5 18.5 50t47 19.5t47 -19.5t18.5 -50t-18.5 -48t-47 -17.5t-47 17.5t-18.5 48zM395 1565q35 0 35 41t-35 41t-35 -41t35 -41zM692 1603.5q0 30.5 18.5 50t47 19.5t47 -19.5t18.5 -50t-18.5 -48t-47 -17.5t-47 17.5t-18.5 48zM758 1565q35 0 35 41
t-35 41t-35 -41t35 -41zM623 229q0 -76 4 -176h-41l-4 176v351l-338 565q-66 109 -94 186h47q14 -45 73 -149l338 -568l324 570q55 98 94 147h45q-45 -57 -96 -145l-352 -611v-346z" />
    <glyph glyph-name="Amacron" unicode="&#x100;" horiz-adv-x="1245" 
d="M905 1589h-545v37h545v-37zM338 459l-98 -244q-37 -88 -60 -162h-43q25 72 62 164l436 1069l465 -1091q14 -35 67 -142h-41q-35 57 -73 148l-111 258h-604zM633 1184l-279 -688h572z" />
    <glyph glyph-name="amacron" unicode="&#x101;" horiz-adv-x="1245" 
d="M905 1589h-545v37h545v-37zM338 459l-98 -244q-37 -88 -60 -162h-43q25 72 62 164l436 1069l465 -1091q14 -35 67 -142h-41q-35 57 -73 148l-111 258h-604zM633 1184l-279 -688h572z" />
    <glyph glyph-name="Abreve" unicode="&#x102;" horiz-adv-x="1245" 
d="M627 1610q168 0 231 139l16 -6q-63 -170 -244 -170t-253 170l16 6q66 -139 234 -139zM338 459l-98 -244q-37 -88 -60 -162h-43q25 72 62 164l436 1069l465 -1091q14 -35 67 -142h-41q-35 57 -73 148l-111 258h-604zM633 1184l-279 -688h572z" />
    <glyph glyph-name="abreve" unicode="&#x103;" horiz-adv-x="1245" 
d="M627 1610q168 0 231 139l16 -6q-63 -170 -244 -170t-253 170l16 6q66 -139 234 -139zM338 459l-98 -244q-37 -88 -60 -162h-43q25 72 62 164l436 1069l465 -1091q14 -35 67 -142h-41q-35 57 -73 148l-111 258h-604zM633 1184l-279 -688h572z" />
    <glyph glyph-name="Aogonek" unicode="&#x104;" horiz-adv-x="1243" 
d="M635 1186l-281 -690h576zM942 -185q0 -108 130 -108q58 0 147 60l8 -13q-119 -80 -179 -80t-101.5 35t-41.5 97t65.5 122t184.5 82q-37 45 -98 191l-111 258h-608l-98 -244q-37 -88 -60 -162h-43q25 72 62 164l438 1071l467 -1093q49 -117 90 -189q-119 -25 -185.5 -80
t-66.5 -111z" />
    <glyph glyph-name="aogonek" unicode="&#x105;" horiz-adv-x="1243" 
d="M635 1186l-281 -690h576zM942 -185q0 -108 130 -108q58 0 147 60l8 -13q-119 -80 -179 -80t-101.5 35t-41.5 97t65.5 122t184.5 82q-37 45 -98 191l-111 258h-608l-98 -244q-37 -88 -60 -162h-43q25 72 62 164l438 1071l467 -1093q49 -117 90 -189q-119 -25 -185.5 -80
t-66.5 -111z" />
    <glyph glyph-name="Cacute" unicode="&#x106;" horiz-adv-x="1376" 
d="M881 31q-178 0 -420 130.5t-242 532.5q0 297 169 483.5t439 186.5q125 0 251.5 -32.5t187.5 -63.5l-9 -45q-59 37 -184 70.5t-246 33.5q-244 0 -405.5 -171t-161.5 -460q0 -147 48 -263t119 -182.5t191 -124.5t283 -58q88 0 193.5 35.5t140.5 62.5v-43q-176 -92 -354 -92
zM938 1847l16 -22l-223 -209l-14 20z" />
    <glyph glyph-name="cacute" unicode="&#x107;" horiz-adv-x="1376" 
d="M881 31q-178 0 -420 130.5t-242 532.5q0 297 169 483.5t439 186.5q125 0 251.5 -32.5t187.5 -63.5l-9 -45q-59 37 -184 70.5t-246 33.5q-244 0 -405.5 -171t-161.5 -460q0 -147 48 -263t119 -182.5t191 -124.5t283 -58q88 0 193.5 35.5t140.5 62.5v-43q-176 -92 -354 -92
zM938 1847l16 -22l-223 -209l-14 20z" />
    <glyph glyph-name="Ccircumflex" unicode="&#x108;" horiz-adv-x="1376" 
d="M881 31q-178 0 -420 130.5t-242 532.5q0 297 169 483.5t439 186.5q125 0 251.5 -32.5t187.5 -63.5l-9 -45q-59 37 -184 70.5t-246 33.5q-244 0 -405.5 -171t-161.5 -460q0 -147 48 -263t119 -182.5t191 -124.5t283 -58q88 0 193.5 35.5t140.5 62.5v-43q-176 -92 -354 -92
zM520 1589l252 223l281 -210l-19 -25l-264 201l-231 -207z" />
    <glyph glyph-name="ccircumflex" unicode="&#x109;" horiz-adv-x="1376" 
d="M881 31q-178 0 -420 130.5t-242 532.5q0 297 169 483.5t439 186.5q125 0 251.5 -32.5t187.5 -63.5l-9 -45q-59 37 -184 70.5t-246 33.5q-244 0 -405.5 -171t-161.5 -460q0 -147 48 -263t119 -182.5t191 -124.5t283 -58q88 0 193.5 35.5t140.5 62.5v-43q-176 -92 -354 -92
zM520 1589l252 223l281 -210l-19 -25l-264 201l-231 -207z" />
    <glyph glyph-name="Cdotaccent" unicode="&#x10a;" horiz-adv-x="1376" 
d="M881 31q-178 0 -420 130.5t-242 532.5q0 297 169 483.5t439 186.5q125 0 251.5 -32.5t187.5 -63.5l-9 -45q-59 37 -184 70.5t-246 33.5q-244 0 -405.5 -171t-161.5 -460q0 -147 48 -263t119 -182.5t191 -124.5t283 -58q88 0 193.5 35.5t140.5 62.5v-43q-176 -92 -354 -92
zM690 1628q0 39 26.5 65.5t63.5 26.5t63.5 -25.5t26.5 -65.5t-26.5 -65.5t-64.5 -25.5t-63.5 25.5t-25.5 64.5zM829 1628q0 55 -51 55q-18 0 -32.5 -14t-14.5 -39t14.5 -40t34.5 -15t34.5 14t14.5 39z" />
    <glyph glyph-name="cdotaccent" unicode="&#x10b;" horiz-adv-x="1376" 
d="M881 31q-178 0 -420 130.5t-242 532.5q0 297 169 483.5t439 186.5q125 0 251.5 -32.5t187.5 -63.5l-9 -45q-59 37 -184 70.5t-246 33.5q-244 0 -405.5 -171t-161.5 -460q0 -147 48 -263t119 -182.5t191 -124.5t283 -58q88 0 193.5 35.5t140.5 62.5v-43q-176 -92 -354 -92
zM690 1628q0 39 26.5 65.5t63.5 26.5t63.5 -25.5t26.5 -65.5t-26.5 -65.5t-64.5 -25.5t-63.5 25.5t-25.5 64.5zM829 1628q0 55 -51 55q-18 0 -32.5 -14t-14.5 -39t14.5 -40t34.5 -15t34.5 14t14.5 39z" />
    <glyph glyph-name="Ccaron" unicode="&#x10c;" horiz-adv-x="1376" 
d="M881 31q-178 0 -420 130.5t-242 532.5q0 297 169 483.5t439 186.5q125 0 251.5 -32.5t187.5 -63.5l-9 -45q-59 37 -184 70.5t-246 33.5q-244 0 -405.5 -171t-161.5 -460q0 -147 48 -263t119 -182.5t191 -124.5t283 -58q88 0 193.5 35.5t140.5 62.5v-43q-176 -92 -354 -92
zM1024 1788l-240 -213l-276 199l18 24l260 -188l220 196z" />
    <glyph glyph-name="ccaron" unicode="&#x10d;" horiz-adv-x="1376" 
d="M881 31q-178 0 -420 130.5t-242 532.5q0 297 169 483.5t439 186.5q125 0 251.5 -32.5t187.5 -63.5l-9 -45q-59 37 -184 70.5t-246 33.5q-244 0 -405.5 -171t-161.5 -460q0 -147 48 -263t119 -182.5t191 -124.5t283 -58q88 0 193.5 35.5t140.5 62.5v-43q-176 -92 -354 -92
zM1024 1788l-240 -213l-276 199l18 24l260 -188l220 196z" />
    <glyph glyph-name="Dcaron" unicode="&#x10e;" horiz-adv-x="1527" 
d="M1354 676q0 354 -262 522q-158 102 -463 102q-141 0 -281 -20v-1184q139 -12 242 -12q385 0 574.5 163t189.5 429zM1395 680q0 -297 -208 -465t-607 -168l-269 14v1254q172 23 287 22q268 -1 431 -65t264.5 -223.5t101.5 -368.5zM952 1788l-239 -213l-277 199l19 24
l260 -188l219 196z" />
    <glyph glyph-name="dcaron" unicode="&#x10f;" horiz-adv-x="1527" 
d="M1354 676q0 354 -262 522q-158 102 -463 102q-141 0 -281 -20v-1184q139 -12 242 -12q385 0 574.5 163t189.5 429zM1395 680q0 -297 -208 -465t-607 -168l-269 14v1254q172 23 287 22q268 -1 431 -65t264.5 -223.5t101.5 -368.5zM952 1788l-239 -213l-277 199l19 24
l260 -188l219 196z" />
    <glyph glyph-name="Dcroat" unicode="&#x110;" horiz-adv-x="1548" 
d="M332 700h-244v37h244v578q172 23 286 22q268 -1 431 -65t264.5 -223.5t101.5 -368.5q0 -297 -208 -465t-607 -168l-268 14v639zM1374 676q0 354 -262 522q-158 102 -463 102q-141 0 -280 -20v-543h374v-37h-374v-604q139 -12 241 -12q385 0 574.5 163t189.5 429z" />
    <glyph glyph-name="dcroat" unicode="&#x111;" horiz-adv-x="1548" 
d="M332 700h-244v37h244v578q172 23 286 22q268 -1 431 -65t264.5 -223.5t101.5 -368.5q0 -297 -208 -465t-607 -168l-268 14v639zM1374 676q0 354 -262 522q-158 102 -463 102q-141 0 -280 -20v-543h374v-37h-374v-604q139 -12 241 -12q385 0 574.5 163t189.5 429z" />
    <glyph glyph-name="Emacron" unicode="&#x112;" horiz-adv-x="1038" 
d="M815 1589h-545v37h545v-37zM903 55h-598v1278h543v-45q-31 8 -203 8h-299v-559h344q78 0 141 6v-49q-31 6 -126 6h-359v-608h410q117 0 147 4v-41z" />
    <glyph glyph-name="emacron" unicode="&#x113;" horiz-adv-x="1038" 
d="M815 1589h-545v37h545v-37zM903 55h-598v1278h543v-45q-31 8 -203 8h-299v-559h344q78 0 141 6v-49q-31 6 -126 6h-359v-608h410q117 0 147 4v-41z" />
    <glyph glyph-name="Ebreve" unicode="&#x114;" horiz-adv-x="1038" 
d="M545 1610q168 0 231 139l17 -6q-63 -170 -245 -170t-253 170l16 6q66 -139 234 -139zM903 55h-598v1278h543v-45q-31 8 -203 8h-299v-559h344q78 0 141 6v-49q-31 6 -126 6h-359v-608h410q117 0 147 4v-41z" />
    <glyph glyph-name="ebreve" unicode="&#x115;" horiz-adv-x="1038" 
d="M545 1610q168 0 231 139l17 -6q-63 -170 -245 -170t-253 170l16 6q66 -139 234 -139zM903 55h-598v1278h543v-45q-31 8 -203 8h-299v-559h344q78 0 141 6v-49q-31 6 -126 6h-359v-608h410q117 0 147 4v-41z" />
    <glyph glyph-name="Edotaccent" unicode="&#x116;" horiz-adv-x="1038" 
d="M469 1628q0 39 26.5 65.5t63.5 26.5t63.5 -25.5t26.5 -65.5t-26.5 -65.5t-64.5 -25.5t-63.5 25.5t-25.5 64.5zM608 1628q0 55 -51 55q-18 0 -32.5 -14t-14.5 -39t15 -40t35 -15t34 14t14 39zM903 55h-598v1278h543v-45q-31 8 -203 8h-299v-559h344q78 0 141 6v-49
q-31 6 -126 6h-359v-608h410q117 0 147 4v-41z" />
    <glyph glyph-name="edotaccent" unicode="&#x117;" horiz-adv-x="1038" 
d="M469 1628q0 39 26.5 65.5t63.5 26.5t63.5 -25.5t26.5 -65.5t-26.5 -65.5t-64.5 -25.5t-63.5 25.5t-25.5 64.5zM608 1628q0 55 -51 55q-18 0 -32.5 -14t-14.5 -39t15 -40t35 -15t34 14t14 39zM903 55h-598v1278h543v-45q-31 8 -203 8h-299v-559h344q78 0 141 6v-49
q-31 6 -126 6h-359v-608h410q117 0 147 4v-41z" />
    <glyph glyph-name="Eogonek" unicode="&#x118;" horiz-adv-x="1038" 
d="M903 55h-598v1278h543v-45q-31 8 -203 8h-299v-559h344q78 0 141 6v-49q-31 6 -126 6h-359v-608h410q117 0 147 4v-41zM569 -190q0 -51 36.5 -77t94.5 -26t146 60l8 -13q-121 -80 -180 -80t-100.5 35t-41.5 98q0 87 156 193h29q-49 -33 -98.5 -86t-49.5 -104z" />
    <glyph glyph-name="eogonek" unicode="&#x119;" horiz-adv-x="1038" 
d="M903 55h-598v1278h543v-45q-31 8 -203 8h-299v-559h344q78 0 141 6v-49q-31 6 -126 6h-359v-608h410q117 0 147 4v-41zM569 -190q0 -51 36.5 -77t94.5 -26t146 60l8 -13q-121 -80 -180 -80t-100.5 35t-41.5 98q0 87 156 193h29q-49 -33 -98.5 -86t-49.5 -104z" />
    <glyph glyph-name="Ecaron" unicode="&#x11a;" horiz-adv-x="1038" 
d="M903 55h-598v1278h543v-45q-31 8 -203 8h-299v-559h344q78 0 141 6v-49q-31 6 -126 6h-359v-608h410q117 0 147 4v-41zM817 1788l-239 -213l-277 199l18 24l261 -188l219 196z" />
    <glyph glyph-name="ecaron" unicode="&#x11b;" horiz-adv-x="1038" 
d="M903 55h-598v1278h543v-45q-31 8 -203 8h-299v-559h344q78 0 141 6v-49q-31 6 -126 6h-359v-608h410q117 0 147 4v-41zM817 1788l-239 -213l-277 199l18 24l261 -188l219 196z" />
    <glyph glyph-name="Gcircumflex" unicode="&#x11c;" horiz-adv-x="1470" 
d="M889 1327q-276 0 -458.5 -151.5t-182.5 -454.5q0 -252 113.5 -398.5t242.5 -205t304 -58.5t352 103v356q0 74 6 135h41l-7 -135v-381q-201 -115 -378 -114q-371 0 -560 235q-156 195 -155 461q0 315 192.5 480t489.5 165q80 0 399 -53l-2 -45q-66 23 -188.5 42t-208.5 19
zM541 1589l252 223l280 -210l-18 -25l-264 201l-232 -207z" />
    <glyph glyph-name="gcircumflex" unicode="&#x11d;" horiz-adv-x="1470" 
d="M889 1327q-276 0 -458.5 -151.5t-182.5 -454.5q0 -252 113.5 -398.5t242.5 -205t304 -58.5t352 103v356q0 74 6 135h41l-7 -135v-381q-201 -115 -378 -114q-371 0 -560 235q-156 195 -155 461q0 315 192.5 480t489.5 165q80 0 399 -53l-2 -45q-66 23 -188.5 42t-208.5 19
zM541 1589l252 223l280 -210l-18 -25l-264 201l-232 -207z" />
    <glyph glyph-name="Gbreve" unicode="&#x11e;" horiz-adv-x="1470" 
d="M889 1327q-276 0 -458.5 -151.5t-182.5 -454.5q0 -252 113.5 -398.5t242.5 -205t304 -58.5t352 103v356q0 74 6 135h41l-7 -135v-381q-201 -115 -378 -114q-371 0 -560 235q-156 195 -155 461q0 315 192.5 480t489.5 165q80 0 399 -53l-2 -45q-66 23 -188.5 42t-208.5 19
zM764 1610q168 0 231 139l17 -6q-62 -170 -244 -170t-254 170l16 6q66 -139 234 -139z" />
    <glyph glyph-name="gbreve" unicode="&#x11f;" horiz-adv-x="1470" 
d="M889 1327q-276 0 -458.5 -151.5t-182.5 -454.5q0 -252 113.5 -398.5t242.5 -205t304 -58.5t352 103v356q0 74 6 135h41l-7 -135v-381q-201 -115 -378 -114q-371 0 -560 235q-156 195 -155 461q0 315 192.5 480t489.5 165q80 0 399 -53l-2 -45q-66 23 -188.5 42t-208.5 19
zM764 1610q168 0 231 139l17 -6q-62 -170 -244 -170t-254 170l16 6q66 -139 234 -139z" />
    <glyph glyph-name="Gdotaccent" unicode="&#x120;" horiz-adv-x="1470" 
d="M889 1327q-276 0 -458.5 -151.5t-182.5 -454.5q0 -252 113.5 -398.5t242.5 -205t304 -58.5t352 103v356q0 74 6 135h41l-7 -135v-381q-201 -115 -378 -114q-371 0 -560 235q-156 195 -155 461q0 315 192.5 480t489.5 165q80 0 399 -53l-2 -45q-66 23 -188.5 42t-208.5 19
zM672 1628q0 39 26.5 65.5t63.5 26.5t63.5 -25.5t26.5 -65.5t-26.5 -65.5t-63.5 -25.5t-63.5 25.5t-26.5 64.5zM811 1628q0 55 -51 55q-18 0 -32.5 -14t-14.5 -39t14 -40t35 -15t35 14t14 39z" />
    <glyph glyph-name="gdotaccent" unicode="&#x121;" horiz-adv-x="1470" 
d="M889 1327q-276 0 -458.5 -151.5t-182.5 -454.5q0 -252 113.5 -398.5t242.5 -205t304 -58.5t352 103v356q0 74 6 135h41l-7 -135v-381q-201 -115 -378 -114q-371 0 -560 235q-156 195 -155 461q0 315 192.5 480t489.5 165q80 0 399 -53l-2 -45q-66 23 -188.5 42t-208.5 19
zM672 1628q0 39 26.5 65.5t63.5 26.5t63.5 -25.5t26.5 -65.5t-26.5 -65.5t-63.5 -25.5t-63.5 25.5t-26.5 64.5zM811 1628q0 55 -51 55q-18 0 -32.5 -14t-14.5 -39t14 -40t35 -15t35 14t14 39z" />
    <glyph glyph-name="uni0122" unicode="&#x122;" horiz-adv-x="1470" 
d="M889 1327q-276 0 -458.5 -151.5t-182.5 -454.5q0 -252 113.5 -398.5t242.5 -205t304 -58.5t352 103v356q0 74 6 135h41l-7 -135v-381q-201 -115 -378 -114q-371 0 -560 235q-156 195 -155 461q0 315 192.5 480t489.5 165q80 0 399 -53l-2 -45q-66 23 -188.5 42t-208.5 19
zM893 -227.5q31 0.5 31 36.5t-31 35.5t-31 -36.5t31 -35.5zM950 -197q0 -121 -71 -180v27q43 39 43 110q-10 -10 -34 -10t-39 16.5t-15 42.5t15 43t44 17q57 0 57 -66z" />
    <glyph glyph-name="uni0123" unicode="&#x123;" horiz-adv-x="1470" 
d="M889 1327q-276 0 -458.5 -151.5t-182.5 -454.5q0 -252 113.5 -398.5t242.5 -205t304 -58.5t352 103v356q0 74 6 135h41l-7 -135v-381q-201 -115 -378 -114q-371 0 -560 235q-156 195 -155 461q0 315 192.5 480t489.5 165q80 0 399 -53l-2 -45q-66 23 -188.5 42t-208.5 19
zM893 -227.5q31 0.5 31 36.5t-31 35.5t-31 -36.5t31 -35.5zM950 -197q0 -121 -71 -180v27q43 39 43 110q-10 -10 -34 -10t-39 16.5t-15 42.5t15 43t44 17q57 0 57 -66z" />
    <glyph glyph-name="Hcircumflex" unicode="&#x124;" horiz-adv-x="1490" 
d="M346 735h875v369q2 139 8 227h41l-8 -227v-875q0 -76 4 -176h-41l-4 176v469h-875v-469q0 -76 4 -176h-41l-4 176v875q2 139 8 227h41l-8 -227v-369zM494 1589l251 223l281 -210l-18 -25l-265 201l-231 -207z" />
    <glyph glyph-name="hcircumflex" unicode="&#x125;" horiz-adv-x="1490" 
d="M346 735h875v369q2 139 8 227h41l-8 -227v-875q0 -76 4 -176h-41l-4 176v469h-875v-469q0 -76 4 -176h-41l-4 176v875q2 139 8 227h41l-8 -227v-369zM494 1589l251 223l281 -210l-18 -25l-265 201l-231 -207z" />
    <glyph glyph-name="Hbar" unicode="&#x126;" horiz-adv-x="1490" 
d="M305 1077h-186v37h186q0 111 8 217h41q-8 -92 -8 -217h875q0 111 8 217h41q-8 -92 -8 -217h118v-37h-118v-848q0 -76 4 -176h-41l-4 176v469h-875v-469q0 -76 4 -176h-41l-4 176v848zM346 735h875v342h-875v-342z" />
    <glyph glyph-name="hbar" unicode="&#x127;" horiz-adv-x="1490" 
d="M305 1077h-186v37h186q0 111 8 217h41q-8 -92 -8 -217h875q0 111 8 217h41q-8 -92 -8 -217h118v-37h-118v-848q0 -76 4 -176h-41l-4 176v469h-875v-469q0 -76 4 -176h-41l-4 176v848zM346 735h875v342h-875v-342z" />
    <glyph glyph-name="Itilde" unicode="&#x128;" horiz-adv-x="575" 
d="M346 229q0 -76 4 -176h-41l-4 176v875q2 139 8 227h41l-8 -227v-875zM150 1661q-54 0 -148 -64l-14 21q16 8 35.5 20.5t34 20.5t41.5 21.5t72 13.5q46 0 140.5 -49t158.5 -49t124 61l16 -21q-84 -74 -150 -74t-161 49.5t-149 49.5z" />
    <glyph glyph-name="itilde" unicode="&#x129;" horiz-adv-x="575" 
d="M346 229q0 -76 4 -176h-41l-4 176v875q2 139 8 227h41l-8 -227v-875zM150 1661q-54 0 -148 -64l-14 21q16 8 35.5 20.5t34 20.5t41.5 21.5t72 13.5q46 0 140.5 -49t158.5 -49t124 61l16 -21q-84 -74 -150 -74t-161 49.5t-149 49.5z" />
    <glyph glyph-name="Imacron" unicode="&#x12a;" horiz-adv-x="575" 
d="M346 229q0 -76 4 -176h-41l-4 176v875q2 139 8 227h41l-8 -227v-875zM575 1589h-544v37h544v-37z" />
    <glyph glyph-name="imacron" unicode="&#x12b;" horiz-adv-x="575" 
d="M346 229q0 -76 4 -176h-41l-4 176v875q2 139 8 227h41l-8 -227v-875zM575 1589h-544v37h544v-37z" />
    <glyph glyph-name="Ibreve" unicode="&#x12c;" horiz-adv-x="575" 
d="M346 229q0 -76 4 -176h-41l-4 176v875q2 139 8 227h41l-8 -227v-875zM291 1610q168 0 231 139l17 -6q-63 -170 -245 -170t-253 170l16 6q66 -139 234 -139z" />
    <glyph glyph-name="ibreve" unicode="&#x12d;" horiz-adv-x="575" 
d="M346 229q0 -76 4 -176h-41l-4 176v875q2 139 8 227h41l-8 -227v-875zM291 1610q168 0 231 139l17 -6q-63 -170 -245 -170t-253 170l16 6q66 -139 234 -139z" />
    <glyph glyph-name="Iogonek" unicode="&#x12e;" horiz-adv-x="575" 
d="M110.5 -208q-0.5 -83 129.5 -83q58 0 147 60l8 -13q-121 -80 -180 -80t-100 35t-41 97t58 120t177 105l-4 196v875q2 139 8 227h41l-8 -227v-875q0 -117 8 -215q-106 -16 -174.5 -77.5t-69 -144.5z" />
    <glyph glyph-name="iogonek" unicode="&#x12f;" horiz-adv-x="575" 
d="M110.5 -208q-0.5 -83 129.5 -83q58 0 147 60l8 -13q-121 -80 -180 -80t-100 35t-41 97t58 120t177 105l-4 196v875q2 139 8 227h41l-8 -227v-875q0 -117 8 -215q-106 -16 -174.5 -77.5t-69 -144.5z" />
    <glyph glyph-name="Idotaccent" unicode="&#x130;" horiz-adv-x="575" 
d="M346 229q0 -76 4 -176h-41l-4 176v875q2 139 8 227h41l-8 -227v-875zM197 1608q0 39 26.5 65.5t63.5 26.5t63.5 -25.5t26.5 -65.5t-26.5 -65.5t-63.5 -25.5t-63.5 25.5t-26.5 64.5zM336 1608q0 55 -51 55q-18 0 -32.5 -14.5t-14.5 -38.5t14 -40t35 -16t35 14.5t14 39.5z
" />
    <glyph glyph-name="dotlessi" unicode="&#x131;" horiz-adv-x="575" 
d="M346 229q0 -76 4 -176h-41l-4 176v875q2 139 8 227h41l-8 -227v-875z" />
    <glyph glyph-name="IJ" unicode="&#x132;" horiz-adv-x="1148" 
d="M346 229q0 -76 4 -176h-41l-4 176v875q2 139 8 227h41l-8 -227v-875zM881 336l-2 721q2 176 8 274h41l-8 -274l2 -686q0 -243 -16 -387t-103.5 -240t-233.5 -125l-8 25q225 51 289 256q31 100 31 436z" />
    <glyph glyph-name="ij" unicode="&#x133;" horiz-adv-x="1148" 
d="M346 229q0 -76 4 -176h-41l-4 176v875q2 139 8 227h41l-8 -227v-875zM881 336l-2 721q2 176 8 274h41l-8 -274l2 -686q0 -243 -16 -387t-103.5 -240t-233.5 -125l-8 25q225 51 289 256q31 100 31 436z" />
    <glyph glyph-name="Jcircumflex" unicode="&#x134;" horiz-adv-x="573" 
d="M305 336l-2 721q2 176 8 274h41l-8 -274l2 -686q0 -243 -15 -387t-103.5 -240t-233.5 -125l-8 25q225 51 288 256q31 100 31 436zM33 1589l252 223l280 -210l-18 -25l-264 201l-232 -207z" />
    <glyph glyph-name="jcircumflex" unicode="&#x135;" horiz-adv-x="573" 
d="M305 336l-2 721q2 176 8 274h41l-8 -274l2 -686q0 -243 -15 -387t-103.5 -240t-233.5 -125l-8 25q225 51 288 256q31 100 31 436zM33 1589l252 223l280 -210l-18 -25l-264 201l-232 -207z" />
    <glyph glyph-name="uni0136" unicode="&#x136;" horiz-adv-x="1150" 
d="M346 229q0 -76 4 -176h-41l-4 176v875q2 139 8 227h41l-8 -227v-875zM956 139l-487 590l422 524q53 66 70 78h55q-27 -20 -72 -80l-420 -522l486 -588q51 -63 77 -88h-55q-21 18 -76 86zM678 -227.5q31 0.5 31 36.5t-31 35.5t-31 -36.5t31 -35.5zM735 -197
q0 -121 -71 -180v27q43 39 43 110q-10 -10 -34 -10t-39.5 16.5t-15.5 42.5t15.5 43t44.5 17q57 0 57 -66z" />
    <glyph glyph-name="uni0137" unicode="&#x137;" horiz-adv-x="1150" 
d="M346 229q0 -76 4 -176h-41l-4 176v875q2 139 8 227h41l-8 -227v-875zM956 139l-487 590l422 524q53 66 70 78h55q-27 -20 -72 -80l-420 -522l486 -588q51 -63 77 -88h-55q-21 18 -76 86zM678 -227.5q31 0.5 31 36.5t-31 35.5t-31 -36.5t31 -35.5zM735 -197
q0 -121 -71 -180v27q43 39 43 110q-10 -10 -34 -10t-39.5 16.5t-15.5 42.5t15.5 43t44.5 17q57 0 57 -66z" />
    <glyph glyph-name="kgreenlandic" unicode="&#x138;" horiz-adv-x="1155" 
d="M346 229q0 -76 4 -176h-41l-4 176v875q2 139 8 227h41l-8 -227v-875zM956 139l-487 590l422 524q53 66 70 78h55q-27 -20 -72 -80l-420 -522l486 -588q51 -63 77 -88h-55q-21 18 -76 86z" />
    <glyph glyph-name="Lacute" unicode="&#x139;" horiz-adv-x="980" 
d="M346 92h322q184 0 237 6v-43h-600v1032q4 172 10 244h41l-10 -244v-995zM492 1847l16 -22l-223 -209l-15 20z" />
    <glyph glyph-name="lacute" unicode="&#x13a;" horiz-adv-x="980" 
d="M346 92h322q184 0 237 6v-43h-600v1032q4 172 10 244h41l-10 -244v-995zM492 1847l16 -22l-223 -209l-15 20z" />
    <glyph glyph-name="uni013B" unicode="&#x13b;" horiz-adv-x="983" 
d="M346 92h322q184 0 237 6v-43h-600v1032q4 172 10 244h41l-10 -244v-995zM622.5 -227.5q30.5 0.5 30.5 36.5t-30.5 35.5t-30.5 -36.5t30.5 -35.5zM680 -197q0 -121 -72 -180v27q43 39 43 110q-10 -10 -34 -10t-39 16.5t-15 42.5t15.5 43t44.5 17q57 0 57 -66z" />
    <glyph glyph-name="uni013C" unicode="&#x13c;" horiz-adv-x="983" 
d="M346 92h322q184 0 237 6v-43h-600v1032q4 172 10 244h41l-10 -244v-995zM622.5 -227.5q30.5 0.5 30.5 36.5t-30.5 35.5t-30.5 -36.5t30.5 -35.5zM680 -197q0 -121 -72 -180v27q43 39 43 110q-10 -10 -34 -10t-39 16.5t-15 42.5t15.5 43t44.5 17q57 0 57 -66z" />
    <glyph glyph-name="Lcaron" unicode="&#x13d;" horiz-adv-x="1003" 
d="M346 92h322q184 0 237 6v-43h-600v1032q4 172 10 244h41l-10 -244v-995zM833.5 1231q30.5 0 30.5 36t-30.5 36t-30.5 -36t30.5 -36zM891 1262q0 -121 -72 -181v27q43 39 43 111q-10 -11 -34 -11t-39 16.5t-15 42.5t15.5 43t44.5 17q57 1 57 -65z" />
    <glyph glyph-name="lcaron" unicode="&#x13e;" horiz-adv-x="1003" 
d="M346 92h322q184 0 237 6v-43h-600v1032q4 172 10 244h41l-10 -244v-995zM833.5 1231q30.5 0 30.5 36t-30.5 36t-30.5 -36t30.5 -36zM891 1262q0 -121 -72 -181v27q43 39 43 111q-10 -11 -34 -11t-39 16.5t-15 42.5t15.5 43t44.5 17q57 1 57 -65z" />
    <glyph glyph-name="Ldot" unicode="&#x13f;" horiz-adv-x="999" 
d="M346 92h322q184 0 237 6v-43h-600v1032q4 172 10 244h41l-10 -244v-995zM739 686q0 31 21.5 52.5t50.5 21.5t50.5 -21.5t21.5 -52.5t-20.5 -51.5t-51.5 -20.5t-51.5 20.5t-20.5 51.5zM850 686q0 45 -39 45t-39 -45q0 -18 11.5 -30.5t27.5 -12.5t27.5 12.5t11.5 30.5z" />
    <glyph glyph-name="ldot" unicode="&#x140;" horiz-adv-x="999" 
d="M346 92h322q184 0 237 6v-43h-600v1032q4 172 10 244h41l-10 -244v-995zM739 686q0 31 21.5 52.5t50.5 21.5t50.5 -21.5t21.5 -52.5t-20.5 -51.5t-51.5 -20.5t-51.5 20.5t-20.5 51.5zM850 686q0 45 -39 45t-39 -45q0 -18 11.5 -30.5t27.5 -12.5t27.5 12.5t11.5 30.5z" />
    <glyph glyph-name="Lslash" unicode="&#x141;" horiz-adv-x="999" 
d="M365 92h321q184 0 238 6v-43h-600v523l-230 -113l-18 37l248 121v464q4 172 10 244h41l-10 -244v-444l249 123l19 -37l-268 -131v-506z" />
    <glyph glyph-name="lslash" unicode="&#x142;" horiz-adv-x="999" 
d="M365 92h321q184 0 238 6v-43h-600v523l-230 -113l-18 37l248 121v464q4 172 10 244h41l-10 -244v-444l249 123l19 -37l-268 -131v-506z" />
    <glyph glyph-name="Nacute" unicode="&#x143;" horiz-adv-x="1607" 
d="M297 166q0 -58 4 -113h-37l-4 113v1130l1083 -1087v965q2 100 9 157h37l-9 -157v-1061l-1083 1087v-1034zM1010 1847l16 -22l-223 -209l-15 20z" />
    <glyph glyph-name="nacute" unicode="&#x144;" horiz-adv-x="1607" 
d="M297 166q0 -58 4 -113h-37l-4 113v1130l1083 -1087v965q2 100 9 157h37l-9 -157v-1061l-1083 1087v-1034zM1010 1847l16 -22l-223 -209l-15 20z" />
    <glyph glyph-name="uni0145" unicode="&#x145;" horiz-adv-x="1607" 
d="M297 166q0 -58 4 -113h-37l-4 113v1130l1083 -1087v965q2 100 9 157h37l-9 -157v-1061l-1083 1087v-1034zM835.5 -227.5q30.5 0.5 30.5 36.5t-30.5 35.5t-30.5 -36.5t30.5 -35.5zM893 -197q0 -121 -72 -180v27q43 39 43 110q-10 -10 -34 -10t-39 16.5t-15 42.5t15.5 43
t44.5 17q57 0 57 -66z" />
    <glyph glyph-name="uni0146" unicode="&#x146;" horiz-adv-x="1607" 
d="M297 166q0 -58 4 -113h-37l-4 113v1130l1083 -1087v965q2 100 9 157h37l-9 -157v-1061l-1083 1087v-1034zM835.5 -227.5q30.5 0.5 30.5 36.5t-30.5 35.5t-30.5 -36.5t30.5 -35.5zM893 -197q0 -121 -72 -180v27q43 39 43 110q-10 -10 -34 -10t-39 16.5t-15 42.5t15.5 43
t44.5 17q57 0 57 -66z" />
    <glyph glyph-name="Ncaron" unicode="&#x147;" horiz-adv-x="1607" 
d="M297 166q0 -58 4 -113h-37l-4 113v1130l1083 -1087v965q2 100 9 157h37l-9 -157v-1061l-1083 1087v-1034zM1087 1788l-239 -213l-277 199l19 24l260 -188l219 196z" />
    <glyph glyph-name="ncaron" unicode="&#x148;" horiz-adv-x="1607" 
d="M297 166q0 -58 4 -113h-37l-4 113v1130l1083 -1087v965q2 100 9 157h37l-9 -157v-1061l-1083 1087v-1034zM1087 1788l-239 -213l-277 199l19 24l260 -188l219 196z" />
    <glyph glyph-name="Eng" unicode="&#x14a;" horiz-adv-x="1613" 
d="M1380 371q0 -260 -12 -373q-16 -158 -104 -254t-234 -125l-8 25q227 51 289 256q25 90 28 252l-1042 1048v-1034q0 -57 4 -113h-37l-4 113v1130l1079 -1083l2 -10l-2 854q2 176 9 274h41l-9 -274v-686z" />
    <glyph glyph-name="eng" unicode="&#x14b;" horiz-adv-x="1613" 
d="M1380 371q0 -260 -12 -373q-16 -158 -104 -254t-234 -125l-8 25q227 51 289 256q25 90 28 252l-1042 1048v-1034q0 -57 4 -113h-37l-4 113v1130l1079 -1083l2 -10l-2 854q2 176 9 274h41l-9 -274v-686z" />
    <glyph glyph-name="Omacron" unicode="&#x14c;" horiz-adv-x="1587" 
d="M1079 1589h-544v37h544v-37zM814 14q-278 0 -434.5 190.5t-156.5 483.5t154.5 482.5t432.5 189.5t462 -190.5t184 -477.5t-182 -482.5t-460 -195.5zM829 51q260 0 423 190.5t163 456.5t-171 445.5t-435 179.5t-404.5 -180t-140.5 -439t93.5 -399.5t207.5 -197t264 -56.5z
" />
    <glyph glyph-name="omacron" unicode="&#x14d;" horiz-adv-x="1587" 
d="M1079 1589h-544v37h544v-37zM814 14q-278 0 -434.5 190.5t-156.5 483.5t154.5 482.5t432.5 189.5t462 -190.5t184 -477.5t-182 -482.5t-460 -195.5zM829 51q260 0 423 190.5t163 456.5t-171 445.5t-435 179.5t-404.5 -180t-140.5 -439t93.5 -399.5t207.5 -197t264 -56.5z
" />
    <glyph glyph-name="Obreve" unicode="&#x14e;" horiz-adv-x="1587" 
d="M797 1610q168 0 231 139l16 -6q-63 -170 -244 -170t-253 170l16 6q66 -139 234 -139zM814 14q-278 0 -434.5 190.5t-156.5 483.5t154.5 482.5t432.5 189.5t462 -190.5t184 -477.5t-182 -482.5t-460 -195.5zM829 51q260 0 423 190.5t163 456.5t-171 445.5t-435 179.5
t-404.5 -180t-140.5 -439t93.5 -399.5t207.5 -197t264 -56.5z" />
    <glyph glyph-name="obreve" unicode="&#x14f;" horiz-adv-x="1587" 
d="M797 1610q168 0 231 139l16 -6q-63 -170 -244 -170t-253 170l16 6q66 -139 234 -139zM814 14q-278 0 -434.5 190.5t-156.5 483.5t154.5 482.5t432.5 189.5t462 -190.5t184 -477.5t-182 -482.5t-460 -195.5zM829 51q260 0 423 190.5t163 456.5t-171 445.5t-435 179.5
t-404.5 -180t-140.5 -439t93.5 -399.5t207.5 -197t264 -56.5z" />
    <glyph glyph-name="Ohungarumlaut" unicode="&#x150;" horiz-adv-x="1587" 
d="M825 1847l15 -28l-215 -197l-15 20zM1182 1825l-217 -203l-15 20l215 205zM814 14q-278 0 -434.5 190.5t-156.5 483.5t154.5 482.5t432.5 189.5t462 -190.5t184 -477.5t-182 -482.5t-460 -195.5zM829 51q260 0 423 190.5t163 456.5t-171 445.5t-435 179.5t-404.5 -180
t-140.5 -439t93.5 -399.5t207.5 -197t264 -56.5z" />
    <glyph glyph-name="ohungarumlaut" unicode="&#x151;" horiz-adv-x="1587" 
d="M825 1847l15 -28l-215 -197l-15 20zM1182 1825l-217 -203l-15 20l215 205zM814 14q-278 0 -434.5 190.5t-156.5 483.5t154.5 482.5t432.5 189.5t462 -190.5t184 -477.5t-182 -482.5t-460 -195.5zM829 51q260 0 423 190.5t163 456.5t-171 445.5t-435 179.5t-404.5 -180
t-140.5 -439t93.5 -399.5t207.5 -197t264 -56.5z" />
    <glyph glyph-name="OE" unicode="&#x152;" horiz-adv-x="1734" 
d="M1001 92v1204q-348 0 -541.5 -144t-193.5 -450q0 -152 56.5 -272.5t196 -229t380.5 -108.5h102zM981 1333h563v-45q-31 8 -203 8h-299v-559h344q78 0 142 6v-49q-31 6 -127 6h-359v-608h410q117 0 147 4v-41h-700q-283 0 -478.5 174t-195.5 471q0 123 32 223.5t80 165
t148 130.5t233.5 90t262.5 24z" />
    <glyph glyph-name="oe" unicode="&#x153;" horiz-adv-x="1734" 
d="M1001 92v1204q-348 0 -541.5 -144t-193.5 -450q0 -152 56.5 -272.5t196 -229t380.5 -108.5h102zM981 1333h563v-45q-31 8 -203 8h-299v-559h344q78 0 142 6v-49q-31 6 -127 6h-359v-608h410q117 0 147 4v-41h-700q-283 0 -478.5 174t-195.5 471q0 123 32 223.5t80 165
t148 130.5t233.5 90t262.5 24z" />
    <glyph glyph-name="Racute" unicode="&#x154;" horiz-adv-x="1239" 
d="M799 1847l16 -22l-223 -209l-14 20zM1012 936q0 -117 -79 -223.5t-196 -116.5q41 -18 84 -69t152 -191t227 -283h-55l-338 430q-55 70 -97 88.5t-154 18.5t-208 4v-444q2 -72 4 -97h-41l-4 97v1183l248 8q102 0 178 -17t177.5 -98t101.5 -290zM971 932q0 225 -158 323
q-86 53 -281 54l-184 -11v-671q45 -2 354 -2q111 0 190 93t79 214z" />
    <glyph glyph-name="racute" unicode="&#x155;" horiz-adv-x="1239" 
d="M799 1847l16 -22l-223 -209l-14 20zM1012 936q0 -117 -79 -223.5t-196 -116.5q41 -18 84 -69t152 -191t227 -283h-55l-338 430q-55 70 -97 88.5t-154 18.5t-208 4v-444q2 -72 4 -97h-41l-4 97v1183l248 8q102 0 178 -17t177.5 -98t101.5 -290zM971 932q0 225 -158 323
q-86 53 -281 54l-184 -11v-671q45 -2 354 -2q111 0 190 93t79 214z" />
    <glyph glyph-name="uni0156" unicode="&#x156;" horiz-adv-x="1232" 
d="M710.5 -227.5q30.5 0.5 30.5 36.5t-30.5 35.5t-30.5 -36.5t30.5 -35.5zM768 -197q0 -121 -72 -180v27q43 39 43 110q-9 -10 -33 -10t-39.5 16.5t-15.5 42.5t15.5 43t44.5 17q57 0 57 -66zM1012 936q0 -117 -79 -223.5t-196 -116.5q41 -18 84 -69t152 -191t227 -283h-55
l-338 430q-55 70 -97 88.5t-154 18.5t-208 4v-444q2 -72 4 -97h-41l-4 97v1183l248 8q102 0 178 -17t177.5 -98t101.5 -290zM971 932q0 225 -158 323q-86 53 -281 54l-184 -11v-671q45 -2 354 -2q111 0 190 93t79 214z" />
    <glyph glyph-name="uni0157" unicode="&#x157;" horiz-adv-x="1232" 
d="M710.5 -227.5q30.5 0.5 30.5 36.5t-30.5 35.5t-30.5 -36.5t30.5 -35.5zM768 -197q0 -121 -72 -180v27q43 39 43 110q-9 -10 -33 -10t-39.5 16.5t-15.5 42.5t15.5 43t44.5 17q57 0 57 -66zM1012 936q0 -117 -79 -223.5t-196 -116.5q41 -18 84 -69t152 -191t227 -283h-55
l-338 430q-55 70 -97 88.5t-154 18.5t-208 4v-444q2 -72 4 -97h-41l-4 97v1183l248 8q102 0 178 -17t177.5 -98t101.5 -290zM971 932q0 225 -158 323q-86 53 -281 54l-184 -11v-671q45 -2 354 -2q111 0 190 93t79 214z" />
    <glyph glyph-name="Rcaron" unicode="&#x158;" horiz-adv-x="1239" 
d="M852 1788l-240 -213l-276 199l18 24l260 -188l220 196zM1012 936q0 -117 -79 -223.5t-196 -116.5q41 -18 84 -69t152 -191t227 -283h-55l-338 430q-55 70 -97 88.5t-154 18.5t-208 4v-444q2 -72 4 -97h-41l-4 97v1183l248 8q102 0 178 -17t177.5 -98t101.5 -290zM971 932
q0 225 -158 323q-86 53 -281 54l-184 -11v-671q45 -2 354 -2q111 0 190 93t79 214z" />
    <glyph glyph-name="rcaron" unicode="&#x159;" horiz-adv-x="1239" 
d="M852 1788l-240 -213l-276 199l18 24l260 -188l220 196zM1012 936q0 -117 -79 -223.5t-196 -116.5q41 -18 84 -69t152 -191t227 -283h-55l-338 430q-55 70 -97 88.5t-154 18.5t-208 4v-444q2 -72 4 -97h-41l-4 97v1183l248 8q102 0 178 -17t177.5 -98t101.5 -290zM971 932
q0 225 -158 323q-86 53 -281 54l-184 -11v-671q45 -2 354 -2q111 0 190 93t79 214z" />
    <glyph glyph-name="Sacute" unicode="&#x15a;" horiz-adv-x="966" 
d="M470 29q-152 0 -282 61v41q125 -65 278 -65t232.5 85t79.5 195t-69.5 199.5t-245.5 202.5q-231 147 -232 331q0 133 81.5 212t209.5 79t244 -41v-45q-86 51 -220 51t-204 -67.5t-70 -188.5q0 -156 211 -295q70 -45 98.5 -64.5t85 -67.5t104.5 -119.5t48 -195.5
t-98.5 -216t-250.5 -92zM633 1847l16 -22l-223 -209l-14 20z" />
    <glyph glyph-name="sacute" unicode="&#x15b;" horiz-adv-x="966" 
d="M470 29q-152 0 -282 61v41q125 -65 278 -65t232.5 85t79.5 195t-69.5 199.5t-245.5 202.5q-231 147 -232 331q0 133 81.5 212t209.5 79t244 -41v-45q-86 51 -220 51t-204 -67.5t-70 -188.5q0 -156 211 -295q70 -45 98.5 -64.5t85 -67.5t104.5 -119.5t48 -195.5
t-98.5 -216t-250.5 -92zM633 1847l16 -22l-223 -209l-14 20z" />
    <glyph glyph-name="Scircumflex" unicode="&#x15c;" horiz-adv-x="966" 
d="M470 29q-152 0 -282 61v41q125 -65 278 -65t232.5 85t79.5 195t-69.5 199.5t-245.5 202.5q-231 147 -232 331q0 133 81.5 212t209.5 79t244 -41v-45q-86 51 -220 51t-204 -67.5t-70 -188.5q0 -156 211 -295q70 -45 98.5 -64.5t85 -67.5t104.5 -119.5t48 -195.5
t-98.5 -216t-250.5 -92zM240 1589l252 223l280 -210l-18 -25l-265 201l-231 -207z" />
    <glyph glyph-name="scircumflex" unicode="&#x15d;" horiz-adv-x="966" 
d="M470 29q-152 0 -282 61v41q125 -65 278 -65t232.5 85t79.5 195t-69.5 199.5t-245.5 202.5q-231 147 -232 331q0 133 81.5 212t209.5 79t244 -41v-45q-86 51 -220 51t-204 -67.5t-70 -188.5q0 -156 211 -295q70 -45 98.5 -64.5t85 -67.5t104.5 -119.5t48 -195.5
t-98.5 -216t-250.5 -92zM240 1589l252 223l280 -210l-18 -25l-265 201l-231 -207z" />
    <glyph glyph-name="Scedilla" unicode="&#x15e;" horiz-adv-x="968" 
d="M470 29q-152 0 -282 61v41q125 -65 278 -65t232.5 85t79.5 195t-69.5 199.5t-245.5 202.5q-231 147 -232 331q0 133 81.5 212t209.5 79t244 -41v-45q-86 51 -220 51t-204 -67.5t-70 -188.5q0 -156 211 -295q70 -45 98.5 -64.5t85 -67.5t104.5 -119.5t48 -195.5
t-98.5 -216t-250.5 -92zM604 -258q0 -100 -147 -162l-11 14q121 55 121 148q0 53 -47 82t-141 47l153 117h25l-139 -109q86 -16 136 -52t50 -85z" />
    <glyph glyph-name="scedilla" unicode="&#x15f;" horiz-adv-x="968" 
d="M470 29q-152 0 -282 61v41q125 -65 278 -65t232.5 85t79.5 195t-69.5 199.5t-245.5 202.5q-231 147 -232 331q0 133 81.5 212t209.5 79t244 -41v-45q-86 51 -220 51t-204 -67.5t-70 -188.5q0 -156 211 -295q70 -45 98.5 -64.5t85 -67.5t104.5 -119.5t48 -195.5
t-98.5 -216t-250.5 -92zM604 -258q0 -100 -147 -162l-11 14q121 55 121 148q0 53 -47 82t-141 47l153 117h25l-139 -109q86 -16 136 -52t50 -85z" />
    <glyph glyph-name="Scaron" unicode="&#x160;" horiz-adv-x="966" 
d="M470 29q-152 0 -282 61v41q125 -65 278 -65t232.5 85t79.5 195t-69.5 199.5t-245.5 202.5q-231 147 -232 331q0 133 81.5 212t209.5 79t244 -41v-45q-86 51 -220 51t-204 -67.5t-70 -188.5q0 -156 211 -295q70 -45 98.5 -64.5t85 -67.5t104.5 -119.5t48 -195.5
t-98.5 -216t-250.5 -92zM772 1788l-240 -213l-276 199l18 24l261 -188l219 196z" />
    <glyph glyph-name="scaron" unicode="&#x161;" horiz-adv-x="966" 
d="M470 29q-152 0 -282 61v41q125 -65 278 -65t232.5 85t79.5 195t-69.5 199.5t-245.5 202.5q-231 147 -232 331q0 133 81.5 212t209.5 79t244 -41v-45q-86 51 -220 51t-204 -67.5t-70 -188.5q0 -156 211 -295q70 -45 98.5 -64.5t85 -67.5t104.5 -119.5t48 -195.5
t-98.5 -216t-250.5 -92zM772 1788l-240 -213l-276 199l18 24l261 -188l219 196z" />
    <glyph glyph-name="uni0162" unicode="&#x162;" horiz-adv-x="1118" 
d="M877 1296h-261v-1067q0 -76 5 -176h-41l-5 176v1067h-305q-152 0 -182 -8v45h971v-45q-24 8 -182 8zM569.5 -227.5q30.5 0.5 30.5 36.5t-30.5 35.5t-30.5 -36.5t30.5 -35.5zM627 -197q0 -121 -72 -180v27q43 39 43 110q-10 -10 -34 -10t-39 16.5t-15 42.5t15.5 43
t43.5 17q58 0 58 -66z" />
    <glyph glyph-name="uni0163" unicode="&#x163;" horiz-adv-x="1118" 
d="M877 1296h-261v-1067q0 -76 5 -176h-41l-5 176v1067h-305q-152 0 -182 -8v45h971v-45q-24 8 -182 8zM569.5 -227.5q30.5 0.5 30.5 36.5t-30.5 35.5t-30.5 -36.5t30.5 -35.5zM627 -197q0 -121 -72 -180v27q43 39 43 110q-10 -10 -34 -10t-39 16.5t-15 42.5t15.5 43
t43.5 17q58 0 58 -66z" />
    <glyph glyph-name="Tcaron" unicode="&#x164;" horiz-adv-x="1122" 
d="M879 1296h-261v-1067q0 -76 5 -176h-41l-4 176v1067h-306q-152 0 -182 -8v45h971v-45q-24 8 -182 8zM838 1788l-240 -213l-276 199l18 24l260 -188l219 196z" />
    <glyph glyph-name="tcaron" unicode="&#x165;" horiz-adv-x="1122" 
d="M879 1296h-261v-1067q0 -76 5 -176h-41l-4 176v1067h-306q-152 0 -182 -8v45h971v-45q-24 8 -182 8zM838 1788l-240 -213l-276 199l18 24l260 -188l219 196z" />
    <glyph glyph-name="Tbar" unicode="&#x166;" horiz-adv-x="1122" 
d="M578 885h-302v37h302v374h-306q-152 0 -182 -8v45h971v-45q-25 8 -182 8h-261v-374h224v-37h-224v-656q0 -76 5 -176h-41l-4 176v656z" />
    <glyph glyph-name="tbar" unicode="&#x167;" horiz-adv-x="1122" 
d="M578 885h-302v37h302v374h-306q-152 0 -182 -8v45h971v-45q-25 8 -182 8h-261v-374h224v-37h-224v-656q0 -76 5 -176h-41l-4 176v656z" />
    <glyph glyph-name="Utilde" unicode="&#x168;" 
d="M295 514v508q2 221 8 309h41l-8 -309v-530q0 -223 92 -324q109 -123 379 -123q303 0 379 221q31 92 31 240l-3 516q2 221 9 309h41l-9 -309l2 -526q0 -156 -34 -250q-88 -238 -422 -238q-367 0 -467 234q-39 90 -39 272zM631 1661q-53 0 -150 -64l-14 21q16 8 35.5 20.5
t34 20.5t41.5 21.5t72 13.5q46 0 140 -49t158 -49t125 61l17 -21q-84 -74 -150 -74t-161 49.5t-148 49.5z" />
    <glyph glyph-name="utilde" unicode="&#x169;" 
d="M295 514v508q2 221 8 309h41l-8 -309v-530q0 -223 92 -324q109 -123 379 -123q303 0 379 221q31 92 31 240l-3 516q2 221 9 309h41l-9 -309l2 -526q0 -156 -34 -250q-88 -238 -422 -238q-367 0 -467 234q-39 90 -39 272zM631 1661q-53 0 -150 -64l-14 21q16 8 35.5 20.5
t34 20.5t41.5 21.5t72 13.5q46 0 140 -49t158 -49t125 61l17 -21q-84 -74 -150 -74t-161 49.5t-148 49.5z" />
    <glyph glyph-name="Umacron" unicode="&#x16a;" 
d="M295 514v508q2 221 8 309h41l-8 -309v-530q0 -223 92 -324q109 -123 379 -123q303 0 379 221q31 92 31 240l-3 516q2 221 9 309h41l-9 -309l2 -526q0 -156 -34 -250q-88 -238 -422 -238q-367 0 -467 234q-39 90 -39 272zM1065 1589h-545v37h545v-37z" />
    <glyph glyph-name="umacron" unicode="&#x16b;" 
d="M295 514v508q2 221 8 309h41l-8 -309v-530q0 -223 92 -324q109 -123 379 -123q303 0 379 221q31 92 31 240l-3 516q2 221 9 309h41l-9 -309l2 -526q0 -156 -34 -250q-88 -238 -422 -238q-367 0 -467 234q-39 90 -39 272zM1065 1589h-545v37h545v-37z" />
    <glyph glyph-name="Ubreve" unicode="&#x16c;" 
d="M295 514v508q2 221 8 309h41l-8 -309v-530q0 -223 92 -324q109 -123 379 -123q303 0 379 221q31 92 31 240l-3 516q2 221 9 309h41l-9 -309l2 -526q0 -156 -34 -250q-88 -238 -422 -238q-367 0 -467 234q-39 90 -39 272zM772 1610q168 0 232 139l16 -6
q-62 -170 -244 -170t-254 170l17 6q65 -139 233 -139z" />
    <glyph glyph-name="ubreve" unicode="&#x16d;" 
d="M295 514v508q2 221 8 309h41l-8 -309v-530q0 -223 92 -324q109 -123 379 -123q303 0 379 221q31 92 31 240l-3 516q2 221 9 309h41l-9 -309l2 -526q0 -156 -34 -250q-88 -238 -422 -238q-367 0 -467 234q-39 90 -39 272zM772 1610q168 0 232 139l16 -6
q-62 -170 -244 -170t-254 170l17 6q65 -139 233 -139z" />
    <glyph glyph-name="Uring" unicode="&#x16e;" 
d="M295 514v508q2 221 8 309h41l-8 -309v-530q0 -223 92 -324q109 -123 379 -123q303 0 379 221q31 92 31 240l-3 516q2 221 9 309h41l-9 -309l2 -526q0 -156 -34 -250q-88 -238 -422 -238q-367 0 -467 234q-39 90 -39 272zM961 1725q0 79 -52.5 132.5t-128.5 53.5
t-128 -54.5t-52 -133.5t51 -128t129 -49t129.5 50t51.5 129zM781 1518q-89 0 -151.5 56t-62.5 146t59.5 154.5t150.5 64.5t153.5 -64.5t62.5 -153.5t-61.5 -146t-150.5 -57z" />
    <glyph glyph-name="uring" unicode="&#x16f;" 
d="M295 514v508q2 221 8 309h41l-8 -309v-530q0 -223 92 -324q109 -123 379 -123q303 0 379 221q31 92 31 240l-3 516q2 221 9 309h41l-9 -309l2 -526q0 -156 -34 -250q-88 -238 -422 -238q-367 0 -467 234q-39 90 -39 272zM961 1725q0 79 -52.5 132.5t-128.5 53.5
t-128 -54.5t-52 -133.5t51 -128t129 -49t129.5 50t51.5 129zM781 1518q-89 0 -151.5 56t-62.5 146t59.5 154.5t150.5 64.5t153.5 -64.5t62.5 -153.5t-61.5 -146t-150.5 -57z" />
    <glyph glyph-name="Uhungarumlaut" unicode="&#x170;" 
d="M295 514v508q2 221 8 309h41l-8 -309v-530q0 -223 92 -324q109 -123 379 -123q303 0 379 221q31 92 31 240l-3 516q2 221 9 309h41l-9 -309l2 -526q0 -156 -34 -250q-88 -238 -422 -238q-367 0 -467 234q-39 90 -39 272zM801 1847l14 -28l-215 -197l-14 20zM1157 1825
l-217 -203l-14 20l215 205z" />
    <glyph glyph-name="uhungarumlaut" unicode="&#x171;" 
d="M295 514v508q2 221 8 309h41l-8 -309v-530q0 -223 92 -324q109 -123 379 -123q303 0 379 221q31 92 31 240l-3 516q2 221 9 309h41l-9 -309l2 -526q0 -156 -34 -250q-88 -238 -422 -238q-367 0 -467 234q-39 90 -39 272zM801 1847l14 -28l-215 -197l-14 20zM1157 1825
l-217 -203l-14 20l215 205z" />
    <glyph glyph-name="Uogonek" unicode="&#x172;" 
d="M295 514v508q2 221 8 309h41l-8 -309v-530q0 -223 92 -324q109 -123 379 -123q303 0 379 221q31 92 31 240l-3 516q2 221 9 309h41l-9 -309l2 -526q0 -156 -34 -250q-88 -238 -422 -238q-367 0 -467 234q-39 90 -39 272zM737 -203q0 -51 36.5 -76.5t94.5 -25.5t146 59
l8 -12q-119 -80 -179 -80t-101.5 35t-41.5 98q1 84 136 176h28q-37 -25 -82 -74t-45 -100z" />
    <glyph glyph-name="uogonek" unicode="&#x173;" 
d="M295 514v508q2 221 8 309h41l-8 -309v-530q0 -223 92 -324q109 -123 379 -123q303 0 379 221q31 92 31 240l-3 516q2 221 9 309h41l-9 -309l2 -526q0 -156 -34 -250q-88 -238 -422 -238q-367 0 -467 234q-39 90 -39 272zM737 -203q0 -51 36.5 -76.5t94.5 -25.5t146 59
l8 -12q-119 -80 -179 -80t-101.5 35t-41.5 98q1 84 136 176h28q-37 -25 -82 -74t-45 -100z" />
    <glyph glyph-name="Wcircumflex" unicode="&#x174;" horiz-adv-x="1882" 
d="M688 1589l252 223l281 -210l-19 -25l-264 201l-231 -207zM1442 250l200 680q102 342 130 401h40q-45 -106 -135 -413l-229 -781l-471 1047l-469 -1055l-305 1038q-25 84 -37 164h43q6 -49 31 -141l278 -946l463 1038z" />
    <glyph glyph-name="wcircumflex" unicode="&#x175;" horiz-adv-x="1882" 
d="M688 1589l252 223l281 -210l-19 -25l-264 201l-231 -207zM1442 250l200 680q102 342 130 401h40q-45 -106 -135 -413l-229 -781l-471 1047l-469 -1055l-305 1038q-25 84 -37 164h43q6 -49 31 -141l278 -946l463 1038z" />
    <glyph glyph-name="Ycircumflex" unicode="&#x176;" horiz-adv-x="1103" 
d="M313 1589l252 223l281 -210l-19 -25l-264 201l-231 -207zM623 229q0 -76 4 -176h-41l-4 176v351l-338 565q-66 109 -94 186h47q14 -45 73 -149l338 -568l324 570q55 98 94 147h45q-45 -57 -96 -145l-352 -611v-346z" />
    <glyph glyph-name="ycircumflex" unicode="&#x177;" horiz-adv-x="1103" 
d="M313 1589l252 223l281 -210l-19 -25l-264 201l-231 -207zM623 229q0 -76 4 -176h-41l-4 176v351l-338 565q-66 109 -94 186h47q14 -45 73 -149l338 -568l324 570q55 98 94 147h45q-45 -57 -96 -145l-352 -611v-346z" />
    <glyph glyph-name="Ydieresis" unicode="&#x178;" horiz-adv-x="1103" 
d="M330 1603.5q0 30.5 18.5 50t47 19.5t47 -19.5t18.5 -50t-18.5 -48t-47 -17.5t-47 17.5t-18.5 48zM395 1565q35 0 35 41t-35 41t-35 -41t35 -41zM692 1603.5q0 30.5 18.5 50t47 19.5t47 -19.5t18.5 -50t-18.5 -48t-47 -17.5t-47 17.5t-18.5 48zM758 1565q35 0 35 41
t-35 41t-35 -41t35 -41zM623 229q0 -76 4 -176h-41l-4 176v351l-338 565q-66 109 -94 186h47q14 -45 73 -149l338 -568l324 570q55 98 94 147h45q-45 -57 -96 -145l-352 -611v-346z" />
    <glyph glyph-name="Zacute" unicode="&#x179;" horiz-adv-x="1116" 
d="M735 1847l17 -22l-224 -209l-14 20zM1012 53h-846l784 1241h-493q-287 0 -318 -8v45h881l-787 -1241h500q219 0 279 12v-49z" />
    <glyph glyph-name="zacute" unicode="&#x17a;" horiz-adv-x="1116" 
d="M735 1847l17 -22l-224 -209l-14 20zM1012 53h-846l784 1241h-493q-287 0 -318 -8v45h881l-787 -1241h500q219 0 279 12v-49z" />
    <glyph glyph-name="Zdotaccent" unicode="&#x17b;" horiz-adv-x="1116" 
d="M485 1628q0 39 27.5 65.5t63.5 26.5t63 -25.5t27 -65.5t-27 -65.5t-65 -25.5t-63.5 25.5t-25.5 64.5zM625 1628q0 55 -52 55q-18 0 -32.5 -14t-14.5 -39t15 -40t35 -15t34.5 14t14.5 39zM1012 53h-846l784 1241h-493q-287 0 -318 -8v45h881l-787 -1241h500q219 0 279 12
v-49z" />
    <glyph glyph-name="zdotaccent" unicode="&#x17c;" horiz-adv-x="1116" 
d="M485 1628q0 39 27.5 65.5t63.5 26.5t63 -25.5t27 -65.5t-27 -65.5t-65 -25.5t-63.5 25.5t-25.5 64.5zM625 1628q0 55 -52 55q-18 0 -32.5 -14t-14.5 -39t15 -40t35 -15t34.5 14t14.5 39zM1012 53h-846l784 1241h-493q-287 0 -318 -8v45h881l-787 -1241h500q219 0 279 12
v-49z" />
    <glyph glyph-name="Zcaron" unicode="&#x17d;" horiz-adv-x="1116" 
d="M854 1788l-240 -213l-276 199l18 24l260 -188l220 196zM1012 53h-846l784 1241h-493q-287 0 -318 -8v45h881l-787 -1241h500q219 0 279 12v-49z" />
    <glyph glyph-name="zcaron" unicode="&#x17e;" horiz-adv-x="1116" 
d="M854 1788l-240 -213l-276 199l18 24l260 -188l220 196zM1012 53h-846l784 1241h-493q-287 0 -318 -8v45h881l-787 -1241h500q219 0 279 12v-49z" />
    <glyph glyph-name="florin" unicode="&#x192;" horiz-adv-x="763" 
d="M672 680h-242v-739q0 -168 -89 -272.5t-251 -104.5q-31 0 -57 6v35q25 -6 57 -6q145 0 222 94t77 246v741h-268v37h268v362q0 164 73 279t228 115q35 0 66 -9v-34q-23 8 -66 8q-123 0 -191.5 -96.5t-68.5 -256.5v-368h242v-37z" />
    <glyph glyph-name="AEacute" unicode="&#x1fc;" horiz-adv-x="1624" 
d="M1434 1333v-45q-31 8 -203 8h-385l74 -557h352q78 0 141 6v-49q-31 6 -127 6h-362l77 -610h340q117 0 148 4v-41h-524l-64 486h-522l-166 -381q-35 -89 -43 -107h-41q6 18 49 119l508 1161h748zM897 578l-92 720h-92l-318 -720h502zM1217 1847l16 -22l-223 -209l-15 20z
" />
    <glyph glyph-name="aeacute" unicode="&#x1fd;" horiz-adv-x="1624" 
d="M1434 1333v-45q-31 8 -203 8h-385l74 -557h352q78 0 141 6v-49q-31 6 -127 6h-362l77 -610h340q117 0 148 4v-41h-524l-64 486h-522l-166 -381q-35 -89 -43 -107h-41q6 18 49 119l508 1161h748zM897 578l-92 720h-92l-318 -720h502zM1217 1847l16 -22l-223 -209l-15 20z
" />
    <glyph glyph-name="Oslashacute" unicode="&#x1fe;" horiz-adv-x="1591" 
d="M219 684q0 297 154.5 486.5t437.5 189.5q246 0 422 -158l145 172h47l-168 -194q195 -195 195 -485t-181 -485.5t-445 -195.5t-425 162l-143 -168h-45l166 195q-160 184 -160 481zM829 51q256 0 419 190.5t163 458.5t-178 449l-805 -942q145 -156 401 -156zM811 1323
q-270 0 -410.5 -180t-140.5 -458.5t143 -451.5l805 941q-166 149 -397 149zM961 1847l16 -22l-223 -209l-15 20z" />
    <glyph glyph-name="oslashacute" unicode="&#x1ff;" horiz-adv-x="1591" 
d="M219 684q0 297 154.5 486.5t437.5 189.5q246 0 422 -158l145 172h47l-168 -194q195 -195 195 -485t-181 -485.5t-445 -195.5t-425 162l-143 -168h-45l166 195q-160 184 -160 481zM829 51q256 0 419 190.5t163 458.5t-178 449l-805 -942q145 -156 401 -156zM811 1323
q-270 0 -410.5 -180t-140.5 -458.5t143 -451.5l805 941q-166 149 -397 149zM961 1847l16 -22l-223 -209l-15 20z" />
    <glyph glyph-name="uni0237" unicode="&#x237;" horiz-adv-x="573" 
d="M305 336l-2 721q2 176 8 274h41l-8 -274l2 -686q0 -243 -15 -387t-103.5 -240t-233.5 -125l-8 25q225 51 288 256q31 100 31 436z" />
    <glyph glyph-name="circumflex" unicode="&#x2c6;" horiz-adv-x="835" 
d="M166 1178l252 223l280 -211l-18 -25l-264 201l-232 -207z" />
    <glyph glyph-name="caron" unicode="&#x2c7;" horiz-adv-x="835" 
d="M698 1376l-239 -213l-277 199l19 24l260 -188l219 197z" />
    <glyph glyph-name="breve" unicode="&#x2d8;" horiz-adv-x="763" 
d="M385 1198q168 0 231 139l17 -6q-63 -170 -245 -170t-253 170l17 6q65 -139 233 -139z" />
    <glyph glyph-name="dotaccent" unicode="&#x2d9;" horiz-adv-x="434" 
d="M127 1218q0 38 26.5 64.5t63.5 26.5t63.5 -25.5t26.5 -65.5t-26.5 -66t-63.5 -26t-63.5 27t-26.5 65zM266 1217q0 55 -51 55q-18 0 -32.5 -15t-14.5 -39t15 -39.5t35 -15.5t34 14.5t14 39.5z" />
    <glyph glyph-name="ring" unicode="&#x2da;" horiz-adv-x="694" 
d="M535 1355q0 79 -52.5 132t-128.5 53t-128 -54t-52 -133t51 -128t129 -49t129.5 50t51.5 129zM355 1147q-89 0 -151.5 56.5t-62.5 146.5t59.5 154.5t150.5 64.5t153.5 -64.5t62.5 -153.5t-61.5 -146.5t-150.5 -57.5z" />
    <glyph glyph-name="ogonek" unicode="&#x2db;" horiz-adv-x="507" 
d="M227 -194q0 -51 35.5 -77t93.5 -26t148 59l8 -12q-119 -80 -179 -80t-101.5 35t-41.5 98q1 85 136 177h28q-37 -25 -82 -74t-45 -100z" />
    <glyph glyph-name="tilde" unicode="&#x2dc;" horiz-adv-x="917" 
d="M630 1151q-66 0 -161 49t-149 49t-148 -63l-14 20q8 4 24.5 14.5t23.5 14.5t21.5 12t38.5 21.5t90 13.5q31 0 126.5 -49t157.5 -49t124 61l16 -20q-84 -74 -150 -74z" />
    <glyph glyph-name="hungarumlaut" unicode="&#x2dd;" horiz-adv-x="985" 
d="M442 1436l15 -29l-215 -197l-15 21zM799 1413l-217 -203l-15 21l215 205z" />
    <glyph glyph-name="uni1E02" unicode="&#x1e02;" horiz-adv-x="1128" 
d="M946 404q0 156 -110.5 223t-317.5 67q-129 0 -170 -2v-575q106 -18 191 -19q231 0 319 75t88 231zM907 1024q0 156 -94 212t-274 56q-82 0 -166 -14l-25 -6v-537l141 -8q310 0 364 103.5t54 193.5zM987 393q0 -172 -107.5 -249.5t-351.5 -77.5q-66 0 -190 16l-31 6v1217
q180 20 254 20q157 0 272 -57t115 -238q0 -131 -74.5 -220t-238.5 -99q352 -11 352 -318zM451 1628q0 39 26.5 65.5t63.5 26.5t63.5 -25.5t26.5 -65.5t-26.5 -65.5t-63.5 -25.5t-63.5 25.5t-26.5 64.5zM590 1628q0 55 -51 55q-18 0 -32.5 -14t-14.5 -39t14 -40t35 -15t35 14
t14 39z" />
    <glyph glyph-name="uni1E03" unicode="&#x1e03;" horiz-adv-x="1128" 
d="M946 404q0 156 -110.5 223t-317.5 67q-129 0 -170 -2v-575q106 -18 191 -19q231 0 319 75t88 231zM907 1024q0 156 -94 212t-274 56q-82 0 -166 -14l-25 -6v-537l141 -8q310 0 364 103.5t54 193.5zM987 393q0 -172 -107.5 -249.5t-351.5 -77.5q-66 0 -190 16l-31 6v1217
q180 20 254 20q157 0 272 -57t115 -238q0 -131 -74.5 -220t-238.5 -99q352 -11 352 -318zM451 1628q0 39 26.5 65.5t63.5 26.5t63.5 -25.5t26.5 -65.5t-26.5 -65.5t-63.5 -25.5t-63.5 25.5t-26.5 64.5zM590 1628q0 55 -51 55q-18 0 -32.5 -14t-14.5 -39t14 -40t35 -15t35 14
t14 39z" />
    <glyph glyph-name="uni1E0A" unicode="&#x1e0a;" horiz-adv-x="1527" 
d="M1354 676q0 354 -262 522q-158 102 -463 102q-141 0 -281 -20v-1184q139 -12 242 -12q385 0 574.5 163t189.5 429zM1395 680q0 -297 -208 -465t-607 -168l-269 14v1254q172 23 287 22q268 -1 431 -65t264.5 -223.5t101.5 -368.5zM637 1628q0 39 26.5 65.5t63.5 26.5
t63.5 -25.5t26.5 -65.5t-26.5 -65.5t-64.5 -25.5t-63.5 25.5t-25.5 64.5zM776 1628q0 55 -51 55q-18 0 -32.5 -14t-14.5 -39t15 -40t35 -15t34 14t14 39z" />
    <glyph glyph-name="uni1E0B" unicode="&#x1e0b;" horiz-adv-x="1527" 
d="M1354 676q0 354 -262 522q-158 102 -463 102q-141 0 -281 -20v-1184q139 -12 242 -12q385 0 574.5 163t189.5 429zM1395 680q0 -297 -208 -465t-607 -168l-269 14v1254q172 23 287 22q268 -1 431 -65t264.5 -223.5t101.5 -368.5zM637 1628q0 39 26.5 65.5t63.5 26.5
t63.5 -25.5t26.5 -65.5t-26.5 -65.5t-64.5 -25.5t-63.5 25.5t-25.5 64.5zM776 1628q0 55 -51 55q-18 0 -32.5 -14t-14.5 -39t15 -40t35 -15t34 14t14 39z" />
    <glyph glyph-name="uni1E1E" unicode="&#x1e1e;" horiz-adv-x="966" 
d="M305 1333h535v-45q-31 8 -209 8h-285v-559h334q111 0 147 6l2 -49q-31 6 -135 6h-348v-467q2 -115 6 -180h-41l-6 180v1100zM461 1628q0 39 26.5 65.5t63.5 26.5t63.5 -25.5t26.5 -65.5t-26.5 -65.5t-64.5 -25.5t-63.5 25.5t-25.5 64.5zM600 1628q0 55 -51 55
q-18 0 -32.5 -14t-14.5 -39t14 -40t35 -15t35 14t14 39z" />
    <glyph glyph-name="uni1E1F" unicode="&#x1e1f;" horiz-adv-x="966" 
d="M305 1333h535v-45q-31 8 -209 8h-285v-559h334q111 0 147 6l2 -49q-31 6 -135 6h-348v-467q2 -115 6 -180h-41l-6 180v1100zM461 1628q0 39 26.5 65.5t63.5 26.5t63.5 -25.5t26.5 -65.5t-26.5 -65.5t-64.5 -25.5t-63.5 25.5t-25.5 64.5zM600 1628q0 55 -51 55
q-18 0 -32.5 -14t-14.5 -39t14 -40t35 -15t35 14t14 39z" />
    <glyph glyph-name="uni1E40" unicode="&#x1e40;" horiz-adv-x="1796" 
d="M1614 53h-41q-12 45 -19 154l-59 889l-575 -1016l-594 1040l-56 -909l-6 -158h-37q2 96 6 164l64 1036l625 -1095l606 1073l67 -1020q7 -107 19 -158zM801 1468.5q0 38.5 26.5 65.5t63.5 27t63.5 -26t26.5 -66t-26.5 -65.5t-64.5 -25.5t-63.5 26t-25.5 64.5zM940 1468
q0 55 -51 56q-18 0 -32.5 -14.5t-14.5 -39.5t14 -40t35 -15t35 14t14 39z" />
    <glyph glyph-name="uni1E41" unicode="&#x1e41;" horiz-adv-x="1796" 
d="M1614 53h-41q-12 45 -19 154l-59 889l-575 -1016l-594 1040l-56 -909l-6 -158h-37q2 96 6 164l64 1036l625 -1095l606 1073l67 -1020q7 -107 19 -158zM801 1468.5q0 38.5 26.5 65.5t63.5 27t63.5 -26t26.5 -66t-26.5 -65.5t-64.5 -25.5t-63.5 26t-25.5 64.5zM940 1468
q0 55 -51 56q-18 0 -32.5 -14.5t-14.5 -39.5t14 -40t35 -15t35 14t14 39z" />
    <glyph glyph-name="uni1E56" unicode="&#x1e56;" horiz-adv-x="1064" 
d="M459 1628q0 39 26.5 65.5t63.5 26.5t63.5 -25.5t26.5 -65.5t-26.5 -65.5t-63.5 -25.5t-63.5 25.5t-26.5 64.5zM598 1628q0 55 -51 55q-18 0 -32.5 -14t-14.5 -39t14 -40t35 -15t35 14t14 39zM948 1008q0 -55 -4 -93t-28.5 -101.5t-68.5 -103.5t-136.5 -72t-221.5 -32
q-37 0 -143 8v-421q0 -68 2 -140h-41l-2 140v1138l291 10q158 0 255 -97t97 -236zM498 639q411 0 411 344q0 126 -51 196t-118.5 100t-157.5 30l-236 -13v-649q131 -8 152 -8z" />
    <glyph glyph-name="uni1E57" unicode="&#x1e57;" horiz-adv-x="1064" 
d="M459 1628q0 39 26.5 65.5t63.5 26.5t63.5 -25.5t26.5 -65.5t-26.5 -65.5t-63.5 -25.5t-63.5 25.5t-26.5 64.5zM598 1628q0 55 -51 55q-18 0 -32.5 -14t-14.5 -39t14 -40t35 -15t35 14t14 39zM948 1008q0 -55 -4 -93t-28.5 -101.5t-68.5 -103.5t-136.5 -72t-221.5 -32
q-37 0 -143 8v-421q0 -68 2 -140h-41l-2 140v1138l291 10q158 0 255 -97t97 -236zM498 639q411 0 411 344q0 126 -51 196t-118.5 100t-157.5 30l-236 -13v-649q131 -8 152 -8z" />
    <glyph glyph-name="uni1E60" unicode="&#x1e60;" horiz-adv-x="966" 
d="M470 29q-152 0 -282 61v41q125 -65 278 -65t232.5 85t79.5 195t-69.5 199.5t-245.5 202.5q-231 147 -232 331q0 133 81.5 212t209.5 79t244 -41v-45q-86 51 -220 51t-204 -67.5t-70 -188.5q0 -156 211 -295q70 -45 98.5 -64.5t85 -67.5t104.5 -119.5t48 -195.5
t-98.5 -216t-250.5 -92zM401 1628q0 39 27.5 65.5t63.5 26.5t63 -25.5t27 -65.5t-27 -65.5t-64 -25.5t-63.5 25.5t-26.5 64.5zM541 1628q0 55 -52 55q-18 0 -32.5 -14t-14.5 -39t15 -40t35 -15t34.5 14t14.5 39z" />
    <glyph glyph-name="uni1E61" unicode="&#x1e61;" horiz-adv-x="966" 
d="M470 29q-152 0 -282 61v41q125 -65 278 -65t232.5 85t79.5 195t-69.5 199.5t-245.5 202.5q-231 147 -232 331q0 133 81.5 212t209.5 79t244 -41v-45q-86 51 -220 51t-204 -67.5t-70 -188.5q0 -156 211 -295q70 -45 98.5 -64.5t85 -67.5t104.5 -119.5t48 -195.5
t-98.5 -216t-250.5 -92zM401 1628q0 39 27.5 65.5t63.5 26.5t63 -25.5t27 -65.5t-27 -65.5t-64 -25.5t-63.5 25.5t-26.5 64.5zM541 1628q0 55 -52 55q-18 0 -32.5 -14t-14.5 -39t15 -40t35 -15t34.5 14t14.5 39z" />
    <glyph glyph-name="uni1E6A" unicode="&#x1e6a;" horiz-adv-x="1122" 
d="M879 1296h-261v-1067q0 -76 5 -176h-41l-4 176v1067h-306q-152 0 -182 -8v45h971v-45q-24 8 -182 8zM467 1628q0 39 26.5 65.5t63.5 26.5t63.5 -25.5t26.5 -65.5t-26.5 -65.5t-63.5 -25.5t-63.5 25.5t-26.5 64.5zM606 1628q0 55 -51 55q-18 0 -32.5 -14t-14.5 -39t15 -40
t35 -15t34 14t14 39z" />
    <glyph glyph-name="uni1E6B" unicode="&#x1e6b;" horiz-adv-x="1122" 
d="M879 1296h-261v-1067q0 -76 5 -176h-41l-4 176v1067h-306q-152 0 -182 -8v45h971v-45q-24 8 -182 8zM467 1628q0 39 26.5 65.5t63.5 26.5t63.5 -25.5t26.5 -65.5t-26.5 -65.5t-63.5 -25.5t-63.5 25.5t-26.5 64.5zM606 1628q0 55 -51 55q-18 0 -32.5 -14t-14.5 -39t15 -40
t35 -15t34 14t14 39z" />
    <glyph glyph-name="Wgrave" unicode="&#x1e80;" horiz-adv-x="1882" 
d="M805 1825l16 22l221 -211l-14 -20zM1442 250l200 680q102 342 130 401h40q-45 -106 -135 -413l-229 -781l-471 1047l-469 -1055l-305 1038q-25 84 -37 164h43q6 -49 31 -141l278 -946l463 1038z" />
    <glyph glyph-name="wgrave" unicode="&#x1e81;" horiz-adv-x="1882" 
d="M805 1825l16 22l221 -211l-14 -20zM1442 250l200 680q102 342 130 401h40q-45 -106 -135 -413l-229 -781l-471 1047l-469 -1055l-305 1038q-25 84 -37 164h43q6 -49 31 -141l278 -946l463 1038z" />
    <glyph glyph-name="Wacute" unicode="&#x1e82;" horiz-adv-x="1882" 
d="M1061 1847l16 -22l-223 -209l-14 20zM1442 250l200 680q102 342 130 401h40q-45 -106 -135 -413l-229 -781l-471 1047l-469 -1055l-305 1038q-25 84 -37 164h43q6 -49 31 -141l278 -946l463 1038z" />
    <glyph glyph-name="wacute" unicode="&#x1e83;" horiz-adv-x="1882" 
d="M1061 1847l16 -22l-223 -209l-14 20zM1442 250l200 680q102 342 130 401h40q-45 -106 -135 -413l-229 -781l-471 1047l-469 -1055l-305 1038q-25 84 -37 164h43q6 -49 31 -141l278 -946l463 1038z" />
    <glyph glyph-name="Wdieresis" unicode="&#x1e84;" horiz-adv-x="1882" 
d="M694 1603.5q0 30.5 18.5 50t47 19.5t47 -19.5t18.5 -50t-18.5 -48t-47 -17.5t-47 17.5t-18.5 48zM760 1565q35 0 35 41t-35 41t-35 -41t35 -41zM1057 1603.5q0 30.5 18.5 50t47 19.5t47 -19.5t18.5 -50t-18.5 -48t-47 -17.5t-47 17.5t-18.5 48zM1122 1565q35 0 35 41
t-35 41t-35 -41t35 -41zM1442 250l200 680q102 342 130 401h40q-45 -106 -135 -413l-229 -781l-471 1047l-469 -1055l-305 1038q-25 84 -37 164h43q6 -49 31 -141l278 -946l463 1038z" />
    <glyph glyph-name="wdieresis" unicode="&#x1e85;" horiz-adv-x="1882" 
d="M694 1603.5q0 30.5 18.5 50t47 19.5t47 -19.5t18.5 -50t-18.5 -48t-47 -17.5t-47 17.5t-18.5 48zM760 1565q35 0 35 41t-35 41t-35 -41t35 -41zM1057 1603.5q0 30.5 18.5 50t47 19.5t47 -19.5t18.5 -50t-18.5 -48t-47 -17.5t-47 17.5t-18.5 48zM1122 1565q35 0 35 41
t-35 41t-35 -41t35 -41zM1442 250l200 680q102 342 130 401h40q-45 -106 -135 -413l-229 -781l-471 1047l-469 -1055l-305 1038q-25 84 -37 164h43q6 -49 31 -141l278 -946l463 1038z" />
    <glyph glyph-name="Ygrave" unicode="&#x1ef2;" horiz-adv-x="1103" 
d="M348 1825l17 22l221 -211l-15 -20zM623 229q0 -76 4 -176h-41l-4 176v351l-338 565q-66 109 -94 186h47q14 -45 73 -149l338 -568l324 570q55 98 94 147h45q-45 -57 -96 -145l-352 -611v-346z" />
    <glyph glyph-name="ygrave" unicode="&#x1ef3;" horiz-adv-x="1103" 
d="M348 1825l17 22l221 -211l-15 -20zM623 229q0 -76 4 -176h-41l-4 176v351l-338 565q-66 109 -94 186h47q14 -45 73 -149l338 -568l324 570q55 98 94 147h45q-45 -57 -96 -145l-352 -611v-346z" />
    <glyph glyph-name="endash" unicode="&#x2013;" horiz-adv-x="882" 
d="M713 651h-514v37h514v-37z" />
    <glyph glyph-name="emdash" unicode="&#x2014;" horiz-adv-x="1470" 
d="M1300 651h-1101v37h1101v-37z" />
    <glyph glyph-name="quoteleft" unicode="&#x2018;" horiz-adv-x="419" 
d="M196.5 1163.5q-30.5 -0.5 -30.5 -36.5t30.5 -35.5t30.5 36.5t-30.5 35.5zM139 1133q0 121 72 180v-27q-43 -41 -43 -110q10 10 34 10t39 -16.5t15 -42.5t-15.5 -43t-43.5 -17q-58 0 -58 66z" />
    <glyph glyph-name="quoteright" unicode="&#x2019;" horiz-adv-x="415" 
d="M233.5 1253q30.5 0 30.5 36t-30.5 36t-30.5 -36t30.5 -36zM291 1284q0 -121 -72 -180v26q43 41 43 111q-10 -10 -34 -10t-39 16.5t-15 42.5t15.5 43t43.5 17q58 0 58 -66z" />
    <glyph glyph-name="quotesinglbase" unicode="&#x201a;" horiz-adv-x="468" 
d="M250 37q31 0 31 36t-31 36t-31 -36t31 -36zM307 68q0 -121 -71 -181v27q43 39 43 111q-10 -11 -34 -11t-39.5 16.5t-15.5 42.5t15.5 43t44.5 17q57 1 57 -65z" />
    <glyph glyph-name="quotedblleft" unicode="&#x201c;" horiz-adv-x="657" 
d="M432 1163.5q-31 -0.5 -31 -36.5t31 -35.5t31 36.5t-31 35.5zM375 1133q0 121 71 180v-27q-43 -41 -43 -110q10 10 34 10t39.5 -16.5t15.5 -42.5t-15.5 -43t-44.5 -17q-57 0 -57 66zM196.5 1163.5q-30.5 -0.5 -30.5 -36.5t30.5 -35.5t30.5 36.5t-30.5 35.5zM139 1133
q0 121 72 180v-27q-43 -41 -43 -110q10 10 34 10t39 -16.5t15 -42.5t-15.5 -43t-43.5 -17q-58 0 -58 66z" />
    <glyph glyph-name="quotedblright" unicode="&#x201d;" horiz-adv-x="651" 
d="M233.5 1249q30.5 0 30.5 36t-30.5 36t-30.5 -36t30.5 -36zM291 1280q0 -121 -72 -180v26q43 41 43 111q-10 -10 -34 -10t-39 16.5t-15 42.5t15.5 43t43.5 17q58 0 58 -66zM469 1249q31 0 31 36t-31 36t-31 -36t31 -36zM526 1280q0 -121 -71 -180v26q43 41 43 111
q-10 -10 -34 -10t-39 16.5t-15 42.5t15 43t44 17q57 0 57 -66z" />
    <glyph glyph-name="quotedblbase" unicode="&#x201e;" horiz-adv-x="706" 
d="M250 37q31 0 31 36t-31 36t-31 -36t31 -36zM307 68q0 -121 -71 -181v27q43 39 43 111q-10 -11 -34 -11t-39.5 16.5t-15.5 42.5t15.5 43t44.5 17q57 1 57 -65zM485.5 37q30.5 0 30.5 36t-30.5 36t-30.5 -36t30.5 -36zM543 68q0 -121 -72 -181v27q43 39 43 111
q-10 -11 -34 -11t-39 16.5t-15 42.5t15.5 43t43.5 17q58 1 58 -65z" />
    <glyph glyph-name="dagger" unicode="&#x2020;" horiz-adv-x="997" 
d="M905 885h-356v-1039h-41v1039h-387v37h387v409h41v-409h356v-37z" />
    <glyph glyph-name="daggerdbl" unicode="&#x2021;" horiz-adv-x="1079" 
d="M590 -154h-41v609h-387v37h387v393h-387v37h387v409h41v-409h356v-37h-356v-393h356v-37h-356v-609z" />
    <glyph glyph-name="bullet" unicode="&#x2022;" horiz-adv-x="684" 
d="M160 685q0 81 53 135t132 54t132 -54t53 -135t-53 -133t-132 -52t-132 52t-53 133zM489 686q0 68 -40.5 110t-102 42t-103.5 -42t-42 -110t43 -108.5t101 -40.5t101 40.5t43 108.5z" />
    <glyph glyph-name="ellipsis" unicode="&#x2026;" horiz-adv-x="1245" 
d="M164 67q0 32 20.5 52t51 20t51 -20.5t20.5 -52.5t-20.5 -52t-51 -20t-51 20.5t-20.5 52.5zM274 66q0 45 -38.5 45t-38.5 -45q0 -18 11 -30.5t27.5 -12.5t27.5 12.5t11 30.5zM551 67q0 32 21.5 52t50 20t50 -20.5t21.5 -52.5t-20.5 -52t-51 -20t-51 20.5t-20.5 52.5z
M662 66q0 45 -39 45t-39 -45q0 -18 11 -30.5t27.5 -12.5t28 12.5t11.5 30.5zM938 67q0 32 20.5 52t51 20t51 -20.5t20.5 -52.5t-20.5 -52t-51 -20t-51 20.5t-20.5 52.5zM1049 66q0 45 -39 45t-39 -45q0 -18 11 -30.5t27.5 -12.5t28 12.5t11.5 30.5z" />
    <glyph glyph-name="perthousand" unicode="&#x2030;" horiz-adv-x="2422" 
d="M410 750q-123 0 -194 78.5t-71 206.5t68.5 214t188.5 86t201 -87t81 -214t-75.5 -205.5t-198.5 -78.5zM408 774q119 0 183 75t64 189t-71.5 193.5t-181.5 79.5t-169 -79t-59 -193t57.5 -189.5t176.5 -75.5zM1303 90q-123 0 -194 79t-71 207t68 214t188 86t201.5 -87
t81.5 -214t-75.5 -206t-198.5 -79zM1301 115q119 0 183 74.5t64 189.5t-71.5 193.5t-181.5 78.5t-169 -78.5t-59 -192.5t57.5 -189.5t176.5 -75.5zM506 53h-33l692 1266h33zM2052 90q-123 0 -193.5 79t-70.5 207t67.5 214t188.5 86t202 -87t81 -214t-76 -206t-199 -79z
M2050 115q119 0 183.5 74.5t64.5 189.5t-72 193.5t-182 78.5t-168.5 -78.5t-58.5 -192.5t57 -189.5t176 -75.5z" />
    <glyph glyph-name="guilsinglleft" unicode="&#x2039;" horiz-adv-x="589" 
d="M385 330l-223 288l205 271l24 -19l-194 -254l209 -270z" />
    <glyph glyph-name="guilsinglright" unicode="&#x203a;" horiz-adv-x="587" 
d="M221 889l209 -273l-215 -284l-25 18l205 268l-194 254z" />
    <glyph glyph-name="fraction" unicode="&#x2044;" horiz-adv-x="813" 
d="M100 53h-39l76 144l522 958l86 148h39l-96 -166l-520 -953z" />
    <glyph glyph-name="Euro" unicode="&#x20ac;" horiz-adv-x="1527" 
d="M141 555v37h207q-6 48 -6 120t14 146h-174v37h183q53 215 208.5 342t376.5 127q125 0 251 -33t188 -63l-9 -45q-59 37 -184 70.5t-246 33.5q-197 0 -345 -114.5t-199 -317.5h878v-37h-887q-14 -72 -14 -144t6 -122h854v-37h-848q25 -139 100.5 -241.5t218 -174
t310.5 -71.5q88 0 192.5 34.5t139.5 61.5v-43q-172 -90 -351 -90t-392 115t-261 409h-211z" />
    <glyph glyph-name="trademark" unicode="&#x2122;" horiz-adv-x="1964" 
d="M635 1294h-146v-526q0 -82 5 -182h-31l-4 182v526h-197q-72 0 -100 -2v27h614v-29q-28 4 -141 4zM1776 588h-27q-2 12 -4 35.5t-6 67.5t-6 77l-41 412l-371 -615l-348 615l-37 -410l-12 -182h-25q6 119 12 184l43 498l365 -647l391 647l49 -500q13 -162 17 -182z" />
    <glyph glyph-name="Omega" unicode="&#x2126;" horiz-adv-x="1738" 
d="M1346 1296h-299v-559h344q78 0 141 6v-49q-31 6 -127 6h-358v-608h409q117 0 148 4v-41h-598v404h-584l-160 -244q-49 -78 -98 -162h-41q41 82 94 164l735 1116h596v-45q-30 8 -202 8zM1006 496v800h-33l-524 -800h557z" />
    <glyph glyph-name="partialdiff" unicode="&#x2202;" horiz-adv-x="1144" 
d="M952 745.5q0 98.5 -23.5 205t-71.5 213t-142.5 175t-236.5 68.5t-255 -64l-14 35q109 66 261 66q281 0 402 -220t121 -506t-131 -474.5t-330 -188.5q-143 0 -235 88.5t-92 268.5t91 307t263 127q121 0 207 -66.5t174 -218.5q12 86 12 184.5zM569 809q-119 0 -221 -89.5
t-102 -309.5q0 -158 81 -238t211 -80t241.5 113t150.5 297q-84 156 -163 231.5t-198 75.5z" />
    <glyph glyph-name="minus" unicode="&#x2212;" horiz-adv-x="1093" 
d="M905 705h-688v40q39 -4 100 -4h447q90 0 141 4v-40z" />
    <glyph glyph-name="infinity" unicode="&#x221e;" horiz-adv-x="1581" 
d="M449 494q-113 0 -183.5 66t-70.5 184t67.5 189t172.5 71t186.5 -67t173.5 -161q68 72 113.5 113t118.5 78t144 37q115 0 183.5 -78t68.5 -190.5t-76.5 -177t-174.5 -64.5t-168 44.5t-189 159.5q-12 10 -22 23q-72 -76 -111 -114t-105.5 -75.5t-127.5 -37.5zM1382 734
q0 97 -56 165t-154 68t-176 -55.5t-175 -159.5q9 -13 19 -21t59 -57t114.5 -96.5t149.5 -47.5t151.5 53.5t67.5 150.5zM288 903.5q-52 -63.5 -52 -163.5t60 -155t153 -55q55 0 114.5 35t98 73t104.5 110q-8 8 -33.5 34.5t-35 35.5t-33 32.5t-35 33t-59 46.5t-139.5 37
q-91 0 -143 -63.5z" />
    <glyph glyph-name="notequal" unicode="&#x2260;" horiz-adv-x="1234" 
d="M1057 920h-287l-180 -388h325q90 0 142 5v-41h-486l-131 -283h-39l131 283h-331v41q39 -4 100 -5h250l180 388h-530v41q39 -4 100 -5h447l106 228h41l-107 -228h127q91 1 142 5v-41z" />
    <glyph glyph-name="uniF6C3" unicode="&#xf6c3;" horiz-adv-x="387" 
d="M209 -227.5q31 0.5 31 36.5t-31 35.5t-31 -36.5t31 -35.5zM266 -197q0 -121 -71 -180v27q43 39 43 110q-10 -10 -34 -10t-39 16.5t-15 42.5t15 43t44 17q57 0 57 -66z" />
    <glyph glyph-name="uniF8FF" unicode="&#xf8ff;" horiz-adv-x="2011" 
d="M1221 0h-430l-213 1073l426 422l430 -422zM684 0h-365l-278 362l182 351l355 -176zM1690 0h-363l107 537l354 176l182 -351z" />
    <glyph glyph-name="zero.oldstyle" horiz-adv-x="1208" 
d="M266 502q0 -451 352 -451q170 0 275 88q133 115 133 355t-103.5 363.5t-293.5 123.5t-276.5 -129t-86.5 -350zM618 14q-391 0 -393 490q0 242 99.5 378t296.5 136q94 0 182 -33q264 -98 264 -483q0 -238 -114.5 -363t-334.5 -125z" />
    <glyph glyph-name="one.oldstyle" horiz-adv-x="681" 
d="M469 287q0 -125 4 -234h-41l-4 234v671q-223 -88 -319 -112v37q178 51 364 135l-4 -105v-626z" />
    <glyph glyph-name="two.oldstyle" horiz-adv-x="1003" 
d="M176 78v35q29 18 97.5 58t108.5 64.5t102.5 66.5t140 105.5t130 146t52.5 171.5q0 254 -344 254q-152 0 -264 -41v41q123 37 231 37t167.5 -12.5t120 -41t95.5 -90.5t35 -132t-19.5 -123.5t-42 -93.5t-78 -91t-104 -93.5t-346.5 -219.5h490q66 0 112 6v-41l-112 -6h-572z
" />
    <glyph glyph-name="three.oldstyle" horiz-adv-x="976" 
d="M852 66q0 -166 -121 -256.5t-293 -90.5t-305 74v43q127 -80 290 -80t275.5 77t112.5 245t-102.5 237.5t-305.5 83.5l-30 2v41q141 0 231 37t128 95.5t38 140.5q0 270 -326 270q-127 0 -239 -65v41q115 61 237 61q176 0 272.5 -77t96.5 -213t-80 -216t-248 -94
q174 -16 271.5 -103t97.5 -253z" />
    <glyph glyph-name="four.oldstyle" horiz-adv-x="1122" 
d="M842 807l-623 -690l619 -2zM885 76v-148q0 -127 4 -237h-41l-4 237l-2 148h-709l752 842v-27l-2 -776q121 0 180 2l-2 -41h-176z" />
    <glyph glyph-name="five.oldstyle" horiz-adv-x="966" 
d="M360 -287q-111 0 -182 31l-22 10v37q82 -41 202 -41q211 0 332 100.5t121 270.5t-99.5 253t-273.5 83q-70 0 -162 -29v553h498v-37h-457v-467q66 16 127 17q203 0 305.5 -100t102.5 -286t-139.5 -290.5t-352.5 -104.5z" />
    <glyph glyph-name="six.oldstyle" horiz-adv-x="1118" 
d="M967 427q0 173 -94.5 283.5t-253.5 110.5t-251 -109.5t-92 -274.5t88 -265t244 -100t257.5 91t101.5 264zM1008 421q0 -185 -113 -285.5t-293 -100.5q-100 0 -176 38t-138.5 132.5t-62.5 261.5q0 274 54.5 471t182.5 315.5t324 118.5q39 0 80 -4v-37q-49 4 -82 4
q-403 0 -491 -553q-10 -76 -17 -153q47 115 138.5 172t203.5 57q184 0 287 -126t103 -311z" />
    <glyph glyph-name="seven.oldstyle" horiz-adv-x="841" 
d="M131 944v37h680q-121 -279 -312.5 -761t-205.5 -517h-45q72 176 219 550.5t283 690.5h-619z" />
    <glyph glyph-name="eight.oldstyle" horiz-adv-x="1134" 
d="M580 743q-135 0 -217 -102t-82 -262t86.5 -240t236.5 -80t245 91.5t95 237.5t-88 250.5t-276 104.5zM598 1341q-117 0 -188.5 -79.5t-71.5 -209.5t66.5 -201t182.5 -71t205 67.5t89 211t-83 213t-200 69.5zM985 374q0 -152 -109.5 -251.5t-279.5 -99.5t-263 97.5
t-93 239.5t55 249.5t172 152.5q-170 76 -170 280q0 156 83 246t219 90t229.5 -82t93.5 -218q0 -250 -222 -314q133 -25 209 -131.5t76 -258.5z" />
    <glyph glyph-name="nine.oldstyle" horiz-adv-x="1093" 
d="M920 561q0 160 -55.5 249t-130.5 125t-177 36q-164 0 -241.5 -116.5t-77.5 -270.5t73.5 -240t226.5 -86t267.5 100.5t114.5 202.5zM535 219q-164 0 -251 95.5t-87 273.5t97 299t270 121t289 -117t116 -428t-142 -525t-481 -214q-47 0 -72 8v37q33 -9 117 -9t302 82
t237 600q-70 -111 -177.5 -167t-217.5 -56z" />
    </font>
</defs>
</svg>
